<?xml version="1.0" encoding="UTF-8" ?>
<!DOCTYPE svg PUBLIC "-//W3C//DTD SVG 1.1//EN" "http://www.w3.org/Graphics/SVG/1.1/DTD/svg11.dtd">
<svg width="1276pt" height="1276pt" viewBox="0 0 1276 1276" version="1.1" xmlns="http://www.w3.org/2000/svg">
<g id="#9a14aaff">
<path fill="#9a14aa" opacity="1.00" d=" M 100.03 211.09 C 137.22 211.07 174.42 211.01 211.60 211.13 C 215.12 212.72 219.05 211.80 222.78 212.21 C 224.36 214.29 223.62 216.62 222.35 218.63 C 220.75 220.78 223.42 223.19 222.23 225.38 C 221.27 226.84 222.14 228.42 222.63 229.87 C 221.22 231.72 218.81 232.15 216.74 232.84 C 177.84 232.84 138.94 232.87 100.04 232.84 C 100.07 225.59 100.09 218.34 100.03 211.09 Z" />
</g>
<g id="#a0189fff">
<path fill="#a0189f" opacity="1.00" d=" M 211.60 211.13 C 240.53 211.01 269.47 211.04 298.40 211.12 C 294.82 212.76 290.82 211.86 287.04 212.34 C 287.86 213.21 288.91 213.75 290.10 213.98 C 288.87 215.12 286.89 216.02 287.01 217.99 C 286.89 220.02 288.77 221.62 288.56 223.69 C 288.66 225.03 286.96 225.22 286.16 225.95 C 287.23 227.17 288.06 228.56 289.00 229.88 C 288.44 230.50 287.89 231.13 287.36 231.78 C 293.92 231.98 300.48 231.91 307.05 231.86 C 308.86 231.77 310.61 232.29 312.34 232.80 C 280.48 232.91 248.61 232.83 216.74 232.84 C 218.81 232.15 221.22 231.72 222.63 229.87 C 222.14 228.42 221.27 226.84 222.23 225.38 C 223.42 223.19 220.75 220.78 222.35 218.63 C 223.62 216.62 224.36 214.29 222.78 212.21 C 219.05 211.80 215.12 212.72 211.60 211.13 Z" />
</g>
<g id="#a61d93ff">
<path fill="#a61d93" opacity="1.00" d=" M 298.40 211.12 C 331.84 211.02 365.29 211.04 398.72 211.13 L 399.29 211.86 C 392.01 211.94 384.72 211.96 377.44 212.11 C 377.35 214.66 377.62 217.23 378.62 219.61 C 379.43 219.12 380.33 218.82 381.18 218.39 C 381.31 218.73 381.58 219.41 381.72 219.75 C 380.27 220.91 378.45 221.76 377.39 223.31 C 377.27 224.74 378.72 225.90 378.80 227.37 C 379.12 229.05 377.97 230.46 377.29 231.89 C 383.45 231.99 389.61 231.97 395.77 232.09 L 396.25 232.80 C 368.28 232.88 340.31 232.89 312.34 232.80 C 310.61 232.29 308.86 231.77 307.05 231.86 C 300.48 231.91 293.92 231.98 287.36 231.78 C 287.89 231.13 288.44 230.50 289.00 229.88 C 288.06 228.56 287.23 227.17 286.16 225.95 C 286.96 225.22 288.66 225.03 288.56 223.69 C 288.77 221.62 286.89 220.02 287.01 217.99 C 286.89 216.02 288.87 215.12 290.10 213.98 C 288.91 213.75 287.86 213.21 287.04 212.34 C 290.82 211.86 294.82 212.76 298.40 211.12 Z" />
</g>
<g id="#b4257bff">
<path fill="#b4257b" opacity="1.00" d=" M 398.72 211.13 C 435.70 211.04 472.70 211.01 509.68 211.14 C 511.50 211.67 513.34 212.14 515.25 212.29 C 515.12 214.12 516.55 215.32 517.50 216.71 C 518.09 218.09 517.40 219.52 516.68 220.70 C 516.96 221.05 517.52 221.75 517.80 222.10 C 516.74 223.11 515.34 223.98 515.08 225.51 C 515.71 225.70 516.98 226.08 517.61 226.27 C 516.85 227.16 515.96 228.00 515.48 229.09 C 515.96 230.13 517.11 230.79 517.83 231.72 C 506.55 232.03 495.26 231.94 483.99 232.16 C 482.85 232.31 481.73 232.52 480.63 232.79 C 452.51 232.89 424.37 232.88 396.25 232.80 L 395.77 232.09 C 408.13 231.89 420.51 232.30 432.85 231.76 C 432.86 230.28 431.71 229.13 431.04 227.92 C 431.97 226.98 432.77 225.91 433.71 224.98 C 433.20 222.04 434.12 218.84 432.60 216.12 C 433.30 215.43 434.05 214.78 434.75 214.09 C 434.48 213.63 433.94 212.71 433.67 212.25 C 422.23 211.66 410.75 211.93 399.29 211.86 L 398.72 211.13 Z" />
</g>
<g id="#bd2b6aff">
<path fill="#bd2b6a" opacity="1.00" d=" M 509.68 211.14 C 545.21 211.01 580.76 211.03 616.29 211.13 C 611.78 212.70 606.97 211.62 602.33 212.24 C 602.57 214.31 602.57 216.45 601.71 218.40 C 602.42 219.18 603.06 220.05 603.81 220.83 C 602.26 221.21 600.70 221.53 599.19 222.03 C 600.88 223.67 601.90 225.90 603.97 227.15 C 604.26 228.39 603.37 229.51 602.71 230.48 C 603.00 230.95 603.30 231.42 603.62 231.89 C 596.07 231.77 588.52 232.16 580.97 232.03 C 578.51 231.94 576.07 232.21 573.69 232.79 C 542.68 232.89 511.65 232.89 480.63 232.79 C 481.73 232.52 482.85 232.31 483.99 232.16 C 495.26 231.94 506.55 232.03 517.83 231.72 C 517.11 230.79 515.96 230.13 515.48 229.09 C 515.96 228.00 516.85 227.16 517.61 226.27 C 516.98 226.08 515.71 225.70 515.08 225.51 C 515.34 223.98 516.74 223.11 517.80 222.10 C 517.52 221.75 516.96 221.05 516.68 220.70 C 517.40 219.52 518.09 218.09 517.50 216.71 C 516.55 215.32 515.12 214.12 515.25 212.29 C 513.34 212.14 511.50 211.67 509.68 211.14 Z" />
</g>
<g id="#c73259ff">
<path fill="#c73259" opacity="1.00" d=" M 616.29 211.13 C 648.94 211.04 681.60 211.02 714.25 211.12 C 708.62 212.62 702.73 211.51 696.99 211.93 C 693.12 212.30 688.82 211.18 685.28 213.06 C 687.05 217.05 686.12 221.50 687.45 225.60 C 688.09 227.67 687.64 230.48 685.72 231.65 C 679.08 232.62 672.23 230.95 665.70 232.80 C 635.04 232.88 604.36 232.88 573.69 232.79 C 576.07 232.21 578.51 231.94 580.97 232.03 C 588.52 232.16 596.07 231.77 603.62 231.89 C 603.30 231.42 603.00 230.95 602.71 230.48 C 603.37 229.51 604.26 228.39 603.97 227.15 C 601.90 225.90 600.88 223.67 599.19 222.03 C 600.70 221.53 602.26 221.21 603.81 220.83 C 603.06 220.05 602.42 219.18 601.71 218.40 C 602.57 216.45 602.57 214.31 602.33 212.24 C 606.97 211.62 611.78 212.70 616.29 211.13 Z" />
<path fill="#c73259" opacity="1.00" d=" M 598.65 1045.21 C 632.20 1045.20 665.76 1045.12 699.32 1045.25 C 694.86 1046.96 690.01 1045.64 685.41 1046.53 C 686.14 1049.72 687.33 1052.93 685.21 1055.92 C 688.03 1057.65 688.52 1062.08 686.68 1064.71 C 678.39 1065.92 669.84 1064.07 661.67 1065.88 C 629.88 1065.98 598.07 1065.94 566.28 1065.89 L 565.90 1065.17 C 575.93 1065.43 585.95 1065.01 595.98 1065.08 C 598.65 1065.06 601.47 1065.19 603.86 1063.77 C 603.95 1063.07 604.13 1061.66 604.22 1060.95 C 603.25 1060.41 602.28 1059.91 601.30 1059.46 C 603.30 1055.86 605.84 1051.48 602.60 1047.69 C 602.89 1047.19 603.20 1046.72 603.53 1046.27 C 601.90 1045.88 600.27 1045.52 598.65 1045.21 Z" />
</g>
<g id="#d03847ff">
<path fill="#d03847" opacity="1.00" d=" M 714.25 211.12 C 747.05 211.03 779.87 211.02 812.67 211.13 L 813.26 211.86 C 803.17 211.64 793.08 211.94 782.99 211.86 C 780.87 211.78 778.73 212.53 777.15 213.93 C 777.07 215.97 779.60 217.17 779.53 219.32 C 779.99 221.40 778.80 223.21 777.95 225.00 C 777.91 227.08 778.97 228.99 779.67 230.91 C 775.50 233.27 770.02 230.51 765.62 232.80 C 732.32 232.89 699.01 232.87 665.70 232.80 C 672.23 230.95 679.08 232.62 685.72 231.65 C 687.64 230.48 688.09 227.67 687.45 225.60 C 686.12 221.50 687.05 217.05 685.28 213.06 C 688.82 211.18 693.12 212.30 696.99 211.93 C 702.73 211.51 708.62 212.62 714.25 211.12 Z" />
<path fill="#d03847" opacity="1.00" d=" M 699.32 1045.25 C 734.62 1045.13 769.93 1045.18 805.24 1045.21 C 798.38 1046.94 791.25 1045.53 784.28 1046.27 C 784.60 1048.35 784.21 1050.36 783.22 1052.21 C 783.36 1054.56 783.72 1056.96 782.44 1059.11 C 783.36 1059.43 784.30 1059.74 785.24 1060.09 C 783.96 1060.77 782.76 1061.57 781.50 1062.28 C 781.97 1062.93 782.45 1063.60 782.94 1064.29 C 781.46 1065.23 779.63 1064.90 777.96 1064.99 C 772.30 1064.87 766.65 1065.02 760.99 1065.13 C 756.56 1065.25 752.05 1064.70 747.72 1065.88 C 719.04 1065.97 690.35 1065.96 661.67 1065.88 C 669.84 1064.07 678.39 1065.92 686.68 1064.71 C 688.52 1062.08 688.03 1057.65 685.21 1055.92 C 687.33 1052.93 686.14 1049.72 685.41 1046.53 C 690.01 1045.64 694.86 1046.96 699.32 1045.25 Z" />
</g>
<g id="#de412eff">
<path fill="#de412e" opacity="1.00" d=" M 812.67 211.13 C 845.55 211.05 878.44 211.01 911.33 211.13 C 907.58 212.73 903.44 211.78 899.51 212.20 C 899.82 214.56 899.23 216.85 898.56 219.09 C 898.45 222.18 898.45 225.31 899.48 228.27 C 900.09 229.62 898.29 229.94 897.50 230.54 C 898.28 230.93 899.06 231.33 899.85 231.76 C 893.84 232.13 887.82 231.86 881.82 232.07 C 868.55 232.22 855.28 231.98 842.02 231.94 C 839.22 231.93 836.40 232.08 833.68 231.42 C 833.11 229.55 832.56 227.68 832.19 225.76 C 832.57 225.64 833.33 225.38 833.71 225.26 C 833.44 220.80 831.92 216.57 831.52 212.15 C 825.44 211.71 819.34 212.30 813.26 211.86 L 812.67 211.13 Z" />
<path fill="#de412e" opacity="1.00" d=" M 844.74 419.49 C 858.10 419.58 871.46 419.52 884.82 419.52 C 885.73 421.01 886.53 422.58 887.29 424.17 C 887.09 424.71 886.90 425.24 886.71 425.78 C 887.35 426.23 887.99 426.68 888.65 427.15 C 886.68 429.01 886.23 431.66 885.63 434.16 C 886.70 434.33 887.68 434.83 888.72 435.17 C 886.21 436.33 885.60 439.06 884.84 441.45 C 874.49 441.40 864.14 441.50 853.79 441.39 C 850.81 434.08 847.77 426.78 844.74 419.49 Z" />
</g>
<g id="#e64620ff">
<path fill="#e64620" opacity="1.00" d=" M 911.33 211.13 C 945.60 211.03 979.90 211.04 1014.18 211.10 L 1013.82 211.94 C 1009.33 212.02 1004.83 211.87 1000.35 212.02 C 1001.09 213.33 1002.17 214.58 1002.44 216.10 C 1001.94 217.27 1000.50 218.35 1001.29 219.73 C 1002.31 220.96 1004.60 220.85 1004.95 222.64 C 1003.58 222.51 1002.23 222.39 1000.91 222.59 C 1001.51 223.42 1002.15 224.23 1002.83 225.03 C 1002.38 225.78 1001.96 226.53 1001.54 227.29 C 1002.00 227.89 1002.45 228.50 1002.89 229.13 C 1002.09 229.60 1001.27 230.00 1000.42 230.33 C 1000.60 230.76 1000.97 231.63 1001.15 232.06 L 1000.87 232.85 C 961.33 232.83 921.79 232.89 882.25 232.80 L 881.82 232.07 C 887.82 231.86 893.84 232.13 899.85 231.76 C 899.06 231.33 898.28 230.93 897.50 230.54 C 898.29 229.94 900.09 229.62 899.48 228.27 C 898.45 225.31 898.45 222.18 898.56 219.09 C 899.23 216.85 899.82 214.56 899.51 212.20 C 903.44 211.78 907.58 212.73 911.33 211.13 Z" />
</g>
<g id="#f14e0cff">
<path fill="#f14e0c" opacity="1.00" d=" M 1014.18 211.10 C 1065.77 211.05 1117.37 211.06 1168.96 211.08 C 1168.91 218.33 1168.93 225.59 1168.96 232.84 C 1112.93 232.88 1056.90 232.81 1000.87 232.85 L 1001.15 232.06 C 1015.30 232.02 1029.45 231.99 1043.60 231.92 C 1041.34 229.75 1043.08 227.16 1044.74 225.26 C 1043.80 225.32 1042.87 225.39 1041.96 225.47 C 1042.42 223.94 1043.23 222.56 1044.81 221.99 C 1044.41 221.27 1044.01 220.55 1043.61 219.85 C 1043.94 219.23 1044.27 218.61 1044.60 217.98 C 1043.83 217.17 1043.31 216.14 1042.47 215.40 C 1043.63 214.46 1044.67 213.38 1045.81 212.40 C 1035.22 211.47 1024.47 212.22 1013.82 211.94 L 1014.18 211.10 Z" />
</g>
<g id="#ad2187ff">
<path fill="#ad2187" opacity="1.00" d=" M 377.44 212.11 C 384.72 211.96 392.01 211.94 399.29 211.86 C 410.75 211.93 422.23 211.66 433.67 212.25 C 433.94 212.71 434.48 213.63 434.75 214.09 C 434.05 214.78 433.30 215.43 432.60 216.12 C 434.12 218.84 433.20 222.04 433.71 224.98 C 432.77 225.91 431.97 226.98 431.04 227.92 C 431.71 229.13 432.86 230.28 432.85 231.76 C 420.51 232.30 408.13 231.89 395.77 232.09 C 389.61 231.97 383.45 231.99 377.29 231.89 C 377.97 230.46 379.12 229.05 378.80 227.37 C 378.72 225.90 377.27 224.74 377.39 223.31 C 378.45 221.76 380.27 220.91 381.72 219.75 C 381.58 219.41 381.31 218.73 381.18 218.39 C 380.33 218.82 379.43 219.12 378.62 219.61 C 377.62 217.23 377.35 214.66 377.44 212.11 Z" />
</g>
<g id="#d83d39ff">
<path fill="#d83d39" opacity="1.00" d=" M 777.15 213.93 C 778.73 212.53 780.87 211.78 782.99 211.86 C 793.08 211.94 803.17 211.64 813.26 211.86 C 819.34 212.30 825.44 211.71 831.52 212.15 C 831.92 216.57 833.44 220.80 833.71 225.26 C 833.33 225.38 832.57 225.64 832.19 225.76 C 832.56 227.68 833.11 229.55 833.68 231.42 C 836.40 232.08 839.22 231.93 842.02 231.94 C 855.28 231.98 868.55 232.22 881.82 232.07 L 882.25 232.80 C 843.37 232.90 804.50 232.87 765.62 232.80 C 770.02 230.51 775.50 233.27 779.67 230.91 C 778.97 228.99 777.91 227.08 777.95 225.00 C 778.80 223.21 779.99 221.40 779.53 219.32 C 779.60 217.17 777.07 215.97 777.15 213.93 Z" />
<path fill="#d83d39" opacity="1.00" d=" M 763.41 940.85 C 790.20 940.85 817.00 940.78 843.79 940.89 C 844.73 943.23 845.67 945.57 846.67 947.90 C 848.68 952.86 850.79 957.79 852.79 962.76 C 812.20 962.76 771.61 962.74 731.02 962.76 L 730.98 962.06 C 740.87 961.82 750.77 962.04 760.66 961.70 C 761.70 959.36 761.41 956.97 760.08 954.84 C 760.73 954.66 761.34 954.39 761.91 954.04 C 759.76 951.47 760.86 948.14 760.66 945.14 C 760.23 943.13 762.58 942.34 763.41 940.85 Z" />
</g>
<g id="#ec4a16ff">
<path fill="#ec4a16" opacity="1.00" d=" M 1000.35 212.02 C 1004.83 211.87 1009.33 212.02 1013.82 211.94 C 1024.47 212.22 1035.22 211.47 1045.81 212.40 C 1044.67 213.38 1043.63 214.46 1042.47 215.40 C 1043.31 216.14 1043.83 217.17 1044.60 217.98 C 1044.27 218.61 1043.94 219.23 1043.61 219.85 C 1044.01 220.55 1044.41 221.27 1044.81 221.99 C 1043.23 222.56 1042.42 223.94 1041.96 225.47 C 1042.87 225.39 1043.80 225.32 1044.74 225.26 C 1043.08 227.16 1041.34 229.75 1043.60 231.92 C 1029.45 231.99 1015.30 232.02 1001.15 232.06 C 1000.97 231.63 1000.60 230.76 1000.42 230.33 C 1001.27 230.00 1002.09 229.60 1002.89 229.13 C 1002.45 228.50 1002.00 227.89 1001.54 227.29 C 1001.96 226.53 1002.38 225.78 1002.83 225.03 C 1002.15 224.23 1001.51 223.42 1000.91 222.59 C 1002.23 222.39 1003.58 222.51 1004.95 222.64 C 1004.60 220.85 1002.31 220.96 1001.29 219.73 C 1000.50 218.35 1001.94 217.27 1002.44 216.10 C 1002.17 214.58 1001.09 213.33 1000.35 212.02 Z" />
</g>
<g id="#4d4f4eff">
<path fill="#4d4f4e" opacity="1.00" d=" M 374.87 266.10 L 374.94 266.20 C 377.11 269.38 379.02 272.73 381.26 275.88 C 381.27 276.38 381.27 277.40 381.28 277.91 C 376.64 288.33 371.71 298.63 367.02 309.03 C 364.83 314.16 362.32 319.16 360.11 324.28 C 359.13 322.60 357.52 319.56 355.23 321.32 C 354.96 320.65 354.70 319.99 354.45 319.33 C 354.14 319.68 353.52 320.40 353.21 320.76 C 353.08 320.16 352.83 318.96 352.70 318.36 C 352.17 318.78 351.64 319.21 351.11 319.64 L 350.79 318.87 C 351.28 317.66 351.82 316.46 352.40 315.29 C 359.92 298.91 367.46 282.53 374.87 266.10 Z" />
</g>
<g id="#dadadaff">
<path fill="#dadada" opacity="1.00" d=" M 374.94 266.20 C 426.97 265.87 479.03 266.15 531.07 266.06 C 614.55 266.01 698.02 266.15 781.50 265.99 L 781.58 267.26 C 779.79 270.76 776.97 273.62 775.29 277.17 C 775.16 279.43 776.65 281.41 777.40 283.48 C 785.17 302.37 793.20 321.14 800.89 340.06 C 803.15 346.35 806.43 352.27 808.27 358.70 L 807.35 359.30 C 806.07 356.07 804.82 352.83 803.39 349.67 C 798.03 336.69 792.77 323.68 787.36 310.73 C 782.78 299.57 778.11 288.46 773.62 277.27 C 643.15 277.17 512.68 277.34 382.21 277.18 C 381.98 276.85 381.50 276.20 381.26 275.88 C 379.02 272.73 377.11 269.38 374.94 266.20 Z" />
</g>
<g id="#c2c3c3ff">
<path fill="#c2c3c3" opacity="1.00" d=" M 781.58 267.26 L 781.75 266.96 C 788.33 283.09 795.08 299.14 801.67 315.26 C 804.52 321.96 807.23 328.72 810.04 335.43 C 806.71 336.27 803.62 338.00 800.89 340.06 C 793.20 321.14 785.17 302.37 777.40 283.48 C 776.65 281.41 775.16 279.43 775.29 277.17 C 776.97 273.62 779.79 270.76 781.58 267.26 Z" />
</g>
<g id="#8c8e8dff">
<path fill="#8c8e8d" opacity="1.00" d=" M 381.26 275.88 C 381.50 276.20 381.98 276.85 382.21 277.18 C 512.68 277.34 643.15 277.17 773.62 277.27 C 778.11 288.46 782.78 299.57 787.36 310.73 C 783.90 311.08 780.43 311.15 776.97 311.06 C 641.00 310.96 505.02 311.17 369.06 310.97 C 368.41 310.28 367.73 309.63 367.02 309.03 C 371.71 298.63 376.64 288.33 381.28 277.91 C 381.27 277.40 381.27 276.38 381.26 275.88 Z" />
</g>
<g id="#969897ff">
<path fill="#969897" opacity="1.00" d=" M 367.02 309.03 C 367.73 309.63 368.41 310.28 369.06 310.97 C 505.02 311.17 641.00 310.96 776.97 311.06 C 780.43 311.15 783.90 311.08 787.36 310.73 C 792.77 323.68 798.03 336.69 803.39 349.67 C 785.26 350.23 767.10 349.90 748.96 349.96 C 620.64 349.89 492.33 350.00 364.01 349.92 C 358.92 349.76 353.66 350.81 348.77 348.99 C 352.48 340.72 356.34 332.52 360.11 324.28 C 362.32 319.16 364.83 314.16 367.02 309.03 Z" />
</g>
<g id="#f14e0bff">
<path fill="#f14e0b" opacity="1.00" d=" M 1041.74 315.33 C 1084.12 315.23 1126.50 315.33 1168.88 315.27 C 1169.02 322.58 1168.89 329.90 1168.94 337.21 C 1129.38 337.16 1089.83 337.22 1050.27 337.18 C 1049.33 334.50 1046.17 333.87 1045.07 331.36 C 1046.11 331.39 1047.15 331.41 1048.21 331.42 C 1047.18 330.78 1046.52 329.69 1045.41 329.18 C 1045.47 328.47 1045.47 327.77 1045.41 327.07 C 1046.29 327.56 1047.16 328.07 1048.03 328.62 C 1048.25 328.26 1048.68 327.54 1048.90 327.18 C 1048.33 326.37 1047.76 325.58 1047.19 324.79 C 1047.73 322.65 1049.59 321.35 1051.08 319.88 C 1049.93 319.48 1049.07 318.56 1047.93 318.18 C 1047.68 317.61 1047.44 317.05 1047.22 316.49 C 1045.37 316.19 1043.57 315.65 1041.74 315.33 Z" />
<path fill="#f14e0b" opacity="1.00" d=" M 1045.07 419.52 C 1086.38 419.56 1127.70 419.50 1169.02 419.54 C 1168.88 426.83 1168.89 434.13 1169.01 441.42 C 1127.73 441.47 1086.44 441.40 1045.16 441.45 C 1045.52 440.41 1045.72 439.34 1045.77 438.24 C 1044.79 438.37 1043.82 438.43 1042.86 438.42 C 1044.62 436.40 1046.02 434.03 1045.25 431.24 C 1046.06 430.21 1046.71 429.06 1047.54 428.03 C 1045.73 425.45 1047.18 422.01 1045.07 419.52 Z" />
<path fill="#f14e0b" opacity="1.00" d=" M 1028.66 628.18 C 1075.43 628.09 1122.20 628.13 1168.96 628.14 C 1168.92 635.39 1168.91 642.64 1168.97 649.88 C 1129.39 649.95 1089.81 649.86 1050.24 649.91 C 1047.81 649.03 1045.61 647.55 1043.02 647.17 C 1044.77 645.21 1045.96 642.87 1045.19 640.18 C 1046.09 638.59 1048.67 636.83 1047.03 634.91 C 1045.58 633.29 1047.53 630.63 1045.76 629.32 C 1040.09 628.42 1034.15 630.19 1028.66 628.18 Z" />
<path fill="#f14e0b" opacity="1.00" d=" M 1027.71 1045.22 C 1074.80 1045.17 1121.89 1045.16 1168.97 1045.21 C 1168.91 1052.10 1168.92 1059.01 1168.97 1065.91 C 1123.21 1065.94 1077.45 1065.97 1031.69 1065.88 C 1035.16 1064.35 1039.03 1065.44 1042.59 1064.55 C 1045.17 1062.40 1044.09 1058.56 1046.07 1056.10 C 1046.91 1054.91 1047.60 1053.63 1048.12 1052.28 C 1047.08 1052.75 1046.06 1053.23 1045.06 1053.73 C 1045.51 1051.45 1047.87 1048.27 1045.74 1046.35 C 1039.77 1045.30 1033.55 1047.21 1027.71 1045.22 Z" />
</g>
<g id="#9813adff">
<path fill="#9813ad" opacity="1.00" d=" M 99.99 315.31 C 123.36 315.23 146.72 315.36 170.09 315.25 C 169.69 315.79 168.89 316.87 168.49 317.41 C 169.04 318.98 171.04 320.91 169.10 322.21 C 168.49 321.20 167.91 320.18 167.36 319.16 C 165.35 320.43 166.41 322.76 167.36 324.38 C 167.16 325.08 166.96 325.79 166.74 326.50 C 166.91 326.80 167.27 327.40 167.44 327.70 C 166.52 328.07 165.55 328.46 164.95 329.30 C 165.49 329.39 166.57 329.57 167.11 329.66 C 166.27 330.85 165.29 331.93 164.19 332.88 C 163.00 331.91 161.67 331.09 160.11 330.98 C 161.81 332.83 164.09 334.45 164.29 337.19 C 142.88 337.21 121.47 337.17 100.07 337.21 C 100.03 329.91 100.16 322.61 99.99 315.31 Z" />
<path fill="#9813ad" opacity="1.00" d=" M 99.98 419.54 C 119.06 419.51 138.15 419.55 157.23 419.52 C 158.20 422.32 155.67 424.38 154.57 426.68 C 155.12 427.71 155.90 428.70 156.02 429.91 C 155.57 431.84 152.50 431.17 152.26 433.32 C 152.00 436.04 152.86 438.74 153.13 441.44 C 135.42 441.43 117.70 441.45 99.99 441.43 C 100.11 434.13 100.12 426.83 99.98 419.54 Z" />
<path fill="#9813ad" opacity="1.00" d=" M 99.99 732.38 C 121.10 732.32 142.21 732.36 163.32 732.36 C 162.23 733.65 161.15 734.96 160.03 736.23 C 162.11 737.41 163.01 739.63 161.30 741.59 C 160.38 741.53 159.47 741.73 158.55 741.57 C 158.38 742.50 158.16 743.43 157.90 744.36 C 158.88 744.43 159.87 744.49 160.86 744.51 C 159.84 745.56 158.81 746.60 157.93 747.78 C 157.29 749.98 157.06 752.32 155.74 754.28 C 137.18 754.23 118.61 754.26 100.04 754.27 C 100.06 746.97 100.15 739.67 99.99 732.38 Z" />
<path fill="#9813ad" opacity="1.00" d=" M 99.99 836.61 C 123.05 836.59 146.10 836.61 169.16 836.60 C 169.74 839.27 170.36 841.93 170.84 844.63 C 169.90 844.18 168.96 843.72 168.03 843.29 C 166.79 844.95 167.77 846.85 168.40 848.54 C 167.95 848.77 167.05 849.22 166.60 849.45 C 166.66 852.47 166.39 855.51 166.92 858.51 C 144.61 858.48 122.30 858.53 99.99 858.49 C 100.12 851.20 100.11 843.90 99.99 836.61 Z" />
</g>
<g id="#9e17a3ff">
<path fill="#9e17a3" opacity="1.00" d=" M 170.09 315.25 C 208.95 315.34 247.82 315.24 286.68 315.31 C 287.31 316.72 288.46 317.68 289.99 317.94 C 289.60 319.83 287.73 319.85 286.17 319.54 C 286.33 322.30 287.36 324.84 288.51 327.31 C 289.08 328.80 286.89 329.15 286.08 329.92 C 287.19 331.12 288.14 332.46 288.97 333.89 C 287.92 335.02 286.82 336.12 285.73 337.22 C 245.25 337.16 204.77 337.22 164.29 337.19 C 164.09 334.45 161.81 332.83 160.11 330.98 C 161.67 331.09 163.00 331.91 164.19 332.88 C 165.29 331.93 166.27 330.85 167.11 329.66 C 166.57 329.57 165.49 329.39 164.95 329.30 C 165.55 328.46 166.52 328.07 167.44 327.70 C 167.27 327.40 166.91 326.80 166.74 326.50 C 166.96 325.79 167.16 325.08 167.36 324.38 C 166.41 322.76 165.35 320.43 167.36 319.16 C 167.91 320.18 168.49 321.20 169.10 322.21 C 171.04 320.91 169.04 318.98 168.49 317.41 C 168.89 316.87 169.69 315.79 170.09 315.25 Z" />
<path fill="#9e17a3" opacity="1.00" d=" M 203.31 419.50 C 219.54 419.55 235.76 419.54 251.99 419.51 C 252.40 420.25 252.89 420.95 253.45 421.60 C 252.14 422.66 251.11 423.99 249.85 425.11 C 250.63 426.12 251.12 427.33 251.92 428.35 C 251.08 428.35 250.24 428.34 249.41 428.33 C 249.42 430.68 250.35 432.76 252.78 433.36 C 251.69 434.17 249.08 434.69 249.79 436.55 C 250.39 438.20 249.37 439.85 249.00 441.44 C 232.58 441.46 216.16 441.39 199.75 441.47 C 200.73 440.59 201.65 439.67 202.55 438.71 C 202.06 436.25 201.09 433.81 201.30 431.27 C 201.98 430.25 203.39 430.23 204.42 429.76 C 204.10 429.24 203.79 428.72 203.50 428.20 C 204.24 427.32 204.97 426.43 205.71 425.55 C 204.32 424.65 203.03 423.61 201.60 422.79 C 202.07 421.65 202.66 420.54 203.31 419.50 Z" />
</g>
<g id="#a51c96ff">
<path fill="#a51c96" opacity="1.00" d=" M 286.68 315.31 C 308.59 315.26 330.50 315.30 352.40 315.29 C 351.82 316.46 351.28 317.66 350.79 318.87 C 347.99 324.93 345.18 330.99 342.50 337.11 C 323.58 337.33 304.65 337.10 285.73 337.22 C 286.82 336.12 287.92 335.02 288.97 333.89 C 288.14 332.46 287.19 331.12 286.08 329.92 C 286.89 329.15 289.08 328.80 288.51 327.31 C 287.36 324.84 286.33 322.30 286.17 319.54 C 287.73 319.85 289.60 319.83 289.99 317.94 C 288.46 317.68 287.31 316.72 286.68 315.31 Z" />
</g>
<g id="#db3f33ff">
<path fill="#db3f33" opacity="1.00" d=" M 801.67 315.26 C 823.89 315.33 846.11 315.26 868.33 315.29 C 868.52 318.18 867.32 320.88 866.53 323.61 C 867.58 323.86 868.64 324.13 869.71 324.39 C 869.67 325.86 869.71 327.37 870.37 328.73 C 869.70 329.21 869.05 329.71 868.41 330.21 C 869.01 331.47 869.10 332.91 869.62 334.18 C 868.83 334.33 868.05 334.49 867.27 334.66 C 867.15 335.30 866.89 336.56 866.76 337.20 C 848.08 337.16 829.40 337.26 810.72 337.15 C 810.55 336.72 810.21 335.86 810.04 335.43 C 807.23 328.72 804.52 321.96 801.67 315.26 Z" />
</g>
<g id="#e34426ff">
<path fill="#e34426" opacity="1.00" d=" M 868.33 315.29 C 899.29 315.30 930.25 315.28 961.21 315.28 C 961.29 316.44 961.77 317.73 961.06 318.80 C 960.64 318.44 959.79 317.72 959.37 317.36 C 957.62 318.61 958.07 321.34 958.70 323.12 C 960.17 323.91 961.77 324.52 963.05 325.66 C 961.68 325.53 960.33 325.42 958.98 325.29 C 959.89 326.38 961.20 326.97 962.51 327.48 C 962.46 328.23 962.48 328.99 962.62 329.74 C 961.40 329.53 960.18 329.31 959.00 329.67 C 959.78 331.38 961.16 333.21 960.49 335.20 C 959.81 336.15 958.75 336.75 957.72 337.20 C 927.40 337.19 897.08 337.19 866.76 337.20 C 866.89 336.56 867.15 335.30 867.27 334.66 C 868.05 334.49 868.83 334.33 869.62 334.18 C 869.10 332.91 869.01 331.47 868.41 330.21 C 869.05 329.71 869.70 329.21 870.37 328.73 C 869.71 327.37 869.67 325.86 869.71 324.39 C 868.64 324.13 867.58 323.86 866.53 323.61 C 867.32 320.88 868.52 318.18 868.33 315.29 Z" />
</g>
<g id="#e9481bff">
<path fill="#e9481b" opacity="1.00" d=" M 961.21 315.28 C 974.12 315.29 987.03 315.30 999.94 315.27 C 1000.93 317.05 1002.61 318.69 1002.72 320.83 C 1001.85 322.16 1000.53 323.52 1001.52 325.19 C 1002.71 325.47 1003.74 326.16 1004.84 326.69 C 1003.65 326.88 1002.48 327.05 1001.31 327.22 C 1001.78 327.81 1002.27 328.40 1002.78 328.99 C 1002.37 329.84 1001.93 330.68 1001.59 331.56 C 1001.92 331.95 1002.59 332.73 1002.92 333.12 C 1002.13 333.62 1001.32 334.06 1000.49 334.44 C 1000.73 335.34 1000.90 336.26 1001.01 337.20 C 986.58 337.19 972.14 337.19 957.72 337.20 C 958.75 336.75 959.81 336.15 960.49 335.20 C 961.16 333.21 959.78 331.38 959.00 329.67 C 960.18 329.31 961.40 329.53 962.62 329.74 C 962.48 328.99 962.46 328.23 962.51 327.48 C 961.20 326.97 959.89 326.38 958.98 325.29 C 960.33 325.42 961.68 325.53 963.05 325.66 C 961.77 324.52 960.17 323.91 958.70 323.12 C 958.07 321.34 957.62 318.61 959.37 317.36 C 959.79 317.72 960.64 318.44 961.06 318.80 C 961.77 317.73 961.29 316.44 961.21 315.28 Z" />
<path fill="#e9481b" opacity="1.00" d=" M 963.78 419.53 C 977.11 419.54 990.45 419.52 1003.79 419.53 C 1003.92 420.31 1004.20 421.87 1004.34 422.65 C 1005.04 423.27 1005.79 423.87 1006.48 424.55 C 1002.22 425.69 1005.10 430.28 1003.53 433.01 C 1002.14 435.73 1003.61 438.65 1003.87 441.44 C 991.68 441.45 979.50 441.42 967.32 441.44 C 967.36 440.48 967.42 439.53 967.50 438.59 C 965.97 438.71 964.53 438.06 963.03 437.93 C 963.57 435.96 965.85 437.09 967.15 436.22 C 967.62 434.49 967.48 432.68 967.60 430.91 C 966.94 430.34 965.91 430.07 965.73 429.13 C 964.32 426.49 968.02 424.10 966.63 421.47 C 965.56 420.99 964.45 421.69 963.39 421.79 C 963.49 421.22 963.68 420.09 963.78 419.53 Z" />
</g>
<g id="#ec4a15ff">
<path fill="#ec4a15" opacity="1.00" d=" M 999.94 315.27 C 1013.87 315.34 1027.81 315.22 1041.74 315.33 C 1043.57 315.65 1045.37 316.19 1047.22 316.49 C 1047.44 317.05 1047.68 317.61 1047.93 318.18 C 1049.07 318.56 1049.93 319.48 1051.08 319.88 C 1049.59 321.35 1047.73 322.65 1047.19 324.79 C 1047.76 325.58 1048.33 326.37 1048.90 327.18 C 1048.68 327.54 1048.25 328.26 1048.03 328.62 C 1047.16 328.07 1046.29 327.56 1045.41 327.07 C 1045.47 327.77 1045.47 328.47 1045.41 329.18 C 1046.52 329.69 1047.18 330.78 1048.21 331.42 C 1047.15 331.41 1046.11 331.39 1045.07 331.36 C 1046.17 333.87 1049.33 334.50 1050.27 337.18 C 1033.85 337.22 1017.43 337.18 1001.01 337.20 C 1000.90 336.26 1000.73 335.34 1000.49 334.44 C 1001.32 334.06 1002.13 333.62 1002.92 333.12 C 1002.59 332.73 1001.92 331.95 1001.59 331.56 C 1001.93 330.68 1002.37 329.84 1002.78 328.99 C 1002.27 328.40 1001.78 327.81 1001.31 327.22 C 1002.48 327.05 1003.65 326.88 1004.84 326.69 C 1003.74 326.16 1002.71 325.47 1001.52 325.19 C 1000.53 323.52 1001.85 322.16 1002.72 320.83 C 1002.61 318.69 1000.93 317.05 999.94 315.27 Z" />
<path fill="#ec4a15" opacity="1.00" d=" M 1003.79 419.53 C 1017.54 419.52 1031.31 419.54 1045.07 419.52 C 1047.18 422.01 1045.73 425.45 1047.54 428.03 C 1046.71 429.06 1046.06 430.21 1045.25 431.24 C 1046.02 434.03 1044.62 436.40 1042.86 438.42 C 1043.82 438.43 1044.79 438.37 1045.77 438.24 C 1045.72 439.34 1045.52 440.41 1045.16 441.45 C 1031.39 441.42 1017.63 441.45 1003.87 441.44 C 1003.61 438.65 1002.14 435.73 1003.53 433.01 C 1005.10 430.28 1002.22 425.69 1006.48 424.55 C 1005.79 423.87 1005.04 423.27 1004.34 422.65 C 1004.20 421.87 1003.92 420.31 1003.79 419.53 Z" />
</g>
<g id="#545554ff">
<path fill="#545554" opacity="1.00" d=" M 351.11 319.64 C 351.64 319.21 352.17 318.78 352.70 318.36 C 352.83 318.96 353.08 320.16 353.21 320.76 C 353.52 320.40 354.14 319.68 354.45 319.33 C 354.70 319.99 354.96 320.65 355.23 321.32 C 357.52 319.56 359.13 322.60 360.11 324.28 C 356.34 332.52 352.48 340.72 348.77 348.99 C 347.66 351.47 346.55 353.95 345.44 356.42 C 342.37 354.53 339.13 352.94 335.76 351.67 C 338.05 346.84 340.20 341.94 342.50 337.11 C 345.18 330.99 347.99 324.93 350.79 318.87 L 351.11 319.64 Z" />
</g>
<g id="#cbccccff">
<path fill="#cbcccc" opacity="1.00" d=" M 800.89 340.06 C 803.62 338.00 806.71 336.27 810.04 335.43 C 810.21 335.86 810.55 336.72 810.72 337.15 C 816.87 351.96 822.98 366.79 829.12 381.61 C 825.86 382.90 822.76 384.53 819.72 386.26 C 817.35 381.26 815.61 375.99 813.16 371.03 L 812.73 372.04 C 810.60 367.94 809.13 363.55 807.35 359.30 L 808.27 358.70 C 806.43 352.27 803.15 346.35 800.89 340.06 Z" />
</g>
<g id="#a2a4a3ff">
<path fill="#a2a4a3" opacity="1.00" d=" M 348.77 348.99 C 353.66 350.81 358.92 349.76 364.01 349.92 C 492.33 350.00 620.64 349.89 748.96 349.96 C 767.10 349.90 785.26 350.23 803.39 349.67 C 804.82 352.83 806.07 356.07 807.35 359.30 C 809.13 363.55 810.60 367.94 812.73 372.04 C 813.99 374.62 815.05 377.29 816.18 379.94 C 764.10 380.24 712.03 379.89 659.96 380.04 C 554.97 380.02 449.98 380.07 344.99 380.02 C 341.64 380.13 338.19 380.41 335.00 379.14 C 338.40 371.53 341.99 364.01 345.44 356.42 C 346.55 353.95 347.66 351.47 348.77 348.99 Z" />
</g>
<g id="#5c5d5cff">
<path fill="#5c5d5c" opacity="1.00" d=" M 335.76 351.67 C 339.13 352.94 342.37 354.53 345.44 356.42 C 341.99 364.01 338.40 371.53 335.00 379.14 C 331.08 387.91 326.91 396.58 323.00 405.36 C 322.55 404.40 322.14 403.43 321.76 402.45 C 321.28 402.83 320.80 403.21 320.33 403.59 C 320.20 403.02 319.96 401.88 319.83 401.31 C 319.34 401.74 318.85 402.18 318.37 402.63 C 318.17 401.85 317.89 401.10 317.53 400.38 C 316.58 402.00 314.84 400.40 313.56 400.23 C 321.01 384.07 328.43 367.89 335.76 351.67 Z" />
</g>
<g id="#fefefeff">
<path fill="#fefefe" opacity="1.00" d=" M 813.16 371.03 C 815.61 375.99 817.35 381.26 819.72 386.26 C 819.64 386.74 819.49 387.72 819.42 388.21 C 818.49 385.39 817.38 382.64 816.18 379.94 C 815.05 377.29 813.99 374.62 812.73 372.04 L 813.16 371.03 Z" />
<path fill="#fefefe" opacity="1.00" d=" M 899.14 580.92 C 901.44 576.86 906.60 578.86 910.34 578.18 C 917.20 594.84 924.09 611.49 930.99 628.14 C 933.98 635.38 936.98 642.61 939.94 649.87 C 950.34 674.96 960.68 700.09 971.07 725.19 C 967.92 726.80 964.38 724.79 961.25 726.20 C 961.62 728.10 961.94 730.05 961.64 731.99 C 957.83 722.90 953.87 713.88 950.33 704.68 C 949.55 703.26 949.11 700.82 947.01 701.01 C 882.01 701.12 816.99 700.99 751.98 701.08 C 750.27 701.23 748.69 700.59 747.16 699.95 C 749.33 695.67 750.49 690.75 749.94 685.96 C 748.76 683.54 749.06 680.71 747.65 678.38 C 739.22 657.88 730.65 637.44 722.30 616.91 C 719.90 611.42 717.77 605.82 715.33 600.35 C 741.20 599.78 767.11 600.25 792.99 600.10 C 829.34 600.09 865.69 600.11 902.05 600.11 C 903.34 599.87 905.48 600.52 906.11 598.93 C 904.27 592.76 901.46 586.92 899.14 580.92 Z" />
<path fill="#fefefe" opacity="1.00" d=" M 357.87 624.98 C 416.57 624.92 475.27 624.99 533.96 624.98 C 539.54 625.10 545.14 624.64 550.70 625.34 C 540.72 649.24 531.08 673.29 520.91 697.11 C 520.76 697.51 520.48 698.30 520.34 698.70 C 519.93 699.21 519.11 700.24 518.71 700.76 C 515.50 701.19 512.26 701.10 509.04 701.04 C 451.69 701.05 394.35 701.09 337.00 701.03 C 333.50 701.10 329.99 701.03 326.49 700.82 C 337.12 675.61 347.43 650.27 357.87 624.98 Z" />
</g>
<g id="#aeafaeff">
<path fill="#aeafae" opacity="1.00" d=" M 335.00 379.14 C 338.19 380.41 341.64 380.13 344.99 380.02 C 449.98 380.07 554.97 380.02 659.96 380.04 C 712.03 379.89 764.10 380.24 816.18 379.94 C 817.38 382.64 818.49 385.39 819.42 388.21 C 820.56 391.56 821.80 394.91 823.49 398.03 C 825.03 402.10 826.67 406.14 828.40 410.14 C 827.32 410.65 826.19 410.97 825.03 411.11 C 661.70 411.01 498.35 411.09 335.02 411.08 C 330.29 410.98 325.43 411.62 320.86 410.12 C 321.56 408.53 322.25 406.93 323.00 405.36 C 326.91 396.58 331.08 387.91 335.00 379.14 Z" />
</g>
<g id="#d3d4d3ff">
<path fill="#d3d4d3" opacity="1.00" d=" M 819.72 386.26 C 822.76 384.53 825.86 382.90 829.12 381.61 C 832.93 390.93 836.81 400.23 840.65 409.54 C 838.15 412.06 834.55 412.74 831.86 414.97 C 830.05 410.24 828.10 405.56 826.04 400.94 C 825.57 399.67 824.63 398.69 823.49 398.03 C 821.80 394.91 820.56 391.56 819.42 388.21 C 819.49 387.72 819.64 386.74 819.72 386.26 Z" />
</g>
<g id="#e4e5e5ff">
<path fill="#e4e5e5" opacity="1.00" d=" M 823.49 398.03 C 824.63 398.69 825.57 399.67 826.04 400.94 C 828.10 405.56 830.05 410.24 831.86 414.97 C 836.55 426.19 841.37 437.35 846.01 448.59 C 848.89 446.91 852.07 445.87 855.21 444.79 C 863.14 464.07 871.15 483.33 879.11 502.61 C 876.08 503.89 873.16 505.41 870.17 506.76 C 867.66 501.98 866.84 496.34 863.33 492.12 L 862.42 493.00 C 859.29 485.60 856.48 478.07 853.22 470.73 C 850.15 463.14 847.14 455.53 843.92 448.01 C 838.68 435.41 833.70 422.71 828.40 410.14 C 826.67 406.14 825.03 402.10 823.49 398.03 Z" />
</g>
<g id="#646564ff">
<path fill="#646564" opacity="1.00" d=" M 313.56 400.23 C 314.84 400.40 316.58 402.00 317.53 400.38 C 317.89 401.10 318.17 401.85 318.37 402.63 C 318.85 402.18 319.34 401.74 319.83 401.31 C 319.96 401.88 320.20 403.02 320.33 403.59 C 320.80 403.21 321.28 402.83 321.76 402.45 C 322.14 403.43 322.55 404.40 323.00 405.36 C 322.25 406.93 321.56 408.53 320.86 410.12 C 318.06 416.58 314.90 422.89 312.09 429.35 C 311.58 428.38 311.10 427.41 310.65 426.43 C 310.17 426.83 309.69 427.24 309.21 427.65 C 309.10 427.09 308.89 425.96 308.79 425.39 C 308.30 425.73 307.81 426.08 307.32 426.44 C 307.05 425.77 306.78 425.11 306.52 424.46 C 306.24 424.73 305.70 425.26 305.42 425.53 C 304.86 424.26 304.23 423.01 303.72 421.73 C 303.96 421.19 304.42 420.10 304.65 419.56 C 307.77 413.19 310.66 406.70 313.56 400.23 Z" />
</g>
<g id="#bcbdbcff">
<path fill="#bcbdbc" opacity="1.00" d=" M 320.86 410.12 C 325.43 411.62 330.29 410.98 335.02 411.08 C 498.35 411.09 661.70 411.01 825.03 411.11 C 826.19 410.97 827.32 410.65 828.40 410.14 C 833.70 422.71 838.68 435.41 843.92 448.01 C 787.94 447.71 731.95 447.96 675.97 447.88 C 667.15 448.14 658.28 447.36 649.49 448.32 C 642.67 443.65 633.08 443.98 626.39 448.76 C 624.12 447.49 621.48 447.85 619.00 447.86 C 540.98 447.82 462.96 447.89 384.94 447.83 C 383.50 447.84 382.12 448.29 380.75 448.69 C 376.06 446.83 371.00 446.12 366.09 445.04 C 345.63 444.94 325.16 445.03 304.70 445.00 C 307.35 439.87 309.61 434.56 312.09 429.35 C 314.90 422.89 318.06 416.58 320.86 410.12 Z" />
</g>
<g id="#dadbdbff">
<path fill="#dadbdb" opacity="1.00" d=" M 831.86 414.97 C 834.55 412.74 838.15 412.06 840.65 409.54 C 841.99 412.86 843.39 416.16 844.74 419.49 C 847.77 426.78 850.81 434.08 853.79 441.39 C 854.25 442.52 854.73 443.65 855.21 444.79 C 852.07 445.87 848.89 446.91 846.01 448.59 C 841.37 437.35 836.55 426.19 831.86 414.97 Z" />
</g>
<g id="#9b15a9ff">
<path fill="#9b15a9" opacity="1.00" d=" M 157.23 419.52 C 172.59 419.52 187.95 419.57 203.31 419.50 C 202.66 420.54 202.07 421.65 201.60 422.79 C 203.03 423.61 204.32 424.65 205.71 425.55 C 204.97 426.43 204.24 427.32 203.50 428.20 C 203.79 428.72 204.10 429.24 204.42 429.76 C 203.39 430.23 201.98 430.25 201.30 431.27 C 201.09 433.81 202.06 436.25 202.55 438.71 C 201.65 439.67 200.73 440.59 199.75 441.47 C 184.21 441.39 168.67 441.46 153.13 441.44 C 152.86 438.74 152.00 436.04 152.26 433.32 C 152.50 431.17 155.57 431.84 156.02 429.91 C 155.90 428.70 155.12 427.71 154.57 426.68 C 155.67 424.38 158.20 422.32 157.23 419.52 Z" />
</g>
<g id="#a1199cff">
<path fill="#a1199c" opacity="1.00" d=" M 251.99 419.51 C 269.54 419.58 287.10 419.48 304.65 419.56 C 304.42 420.10 303.96 421.19 303.72 421.73 C 300.84 428.28 297.72 434.73 294.86 441.29 C 279.58 441.63 264.28 441.34 249.00 441.44 C 249.37 439.85 250.39 438.20 249.79 436.55 C 249.08 434.69 251.69 434.17 252.78 433.36 C 250.35 432.76 249.42 430.68 249.41 428.33 C 250.24 428.34 251.08 428.35 251.92 428.35 C 251.12 427.33 250.63 426.12 249.85 425.11 C 251.11 423.99 252.14 422.66 253.45 421.60 C 252.89 420.95 252.40 420.25 251.99 419.51 Z" />
</g>
<g id="#e24427ff">
<path fill="#e24427" opacity="1.00" d=" M 884.82 419.52 C 898.34 419.54 911.85 419.53 925.37 419.52 C 924.59 420.72 923.89 421.97 923.14 423.19 C 924.22 424.85 926.14 426.33 925.96 428.51 C 925.04 428.44 924.13 428.40 923.22 428.37 C 924.17 429.44 924.96 430.65 925.80 431.82 C 925.11 433.22 923.64 433.81 922.37 434.50 C 923.10 434.75 923.85 435.00 924.61 435.26 C 924.37 435.55 923.90 436.11 923.66 436.40 C 925.06 437.82 924.86 439.72 924.17 441.45 C 911.06 441.43 897.95 441.43 884.84 441.45 C 885.60 439.06 886.21 436.33 888.72 435.17 C 887.68 434.83 886.70 434.33 885.63 434.16 C 886.23 431.66 886.68 429.01 888.65 427.15 C 887.99 426.68 887.35 426.23 886.71 425.78 C 886.90 425.24 887.09 424.71 887.29 424.17 C 886.53 422.58 885.73 421.01 884.82 419.52 Z" />
</g>
<g id="#e54621ff">
<path fill="#e54621" opacity="1.00" d=" M 925.37 419.52 C 938.17 419.55 950.97 419.52 963.78 419.53 C 963.68 420.09 963.49 421.22 963.39 421.79 C 964.45 421.69 965.56 420.99 966.63 421.47 C 968.02 424.10 964.32 426.49 965.73 429.13 C 965.91 430.07 966.94 430.34 967.60 430.91 C 967.48 432.68 967.62 434.49 967.15 436.22 C 965.85 437.09 963.57 435.96 963.03 437.93 C 964.53 438.06 965.97 438.71 967.50 438.59 C 967.42 439.53 967.36 440.48 967.32 441.44 C 952.93 441.44 938.55 441.42 924.17 441.45 C 924.86 439.72 925.06 437.82 923.66 436.40 C 923.90 436.11 924.37 435.55 924.61 435.26 C 923.85 435.00 923.10 434.75 922.37 434.50 C 923.64 433.81 925.11 433.22 925.80 431.82 C 924.96 430.65 924.17 429.44 923.22 428.37 C 924.13 428.40 925.04 428.44 925.96 428.51 C 926.14 426.33 924.22 424.85 923.14 423.19 C 923.89 421.97 924.59 420.72 925.37 419.52 Z" />
<path fill="#e54621" opacity="1.00" d=" M 887.85 523.77 C 922.90 523.78 957.96 523.81 993.01 523.75 C 995.64 525.44 994.00 528.69 995.64 530.96 C 994.10 530.79 992.61 530.38 991.09 530.27 C 992.03 531.16 992.93 532.09 993.90 532.98 C 993.29 533.78 992.93 534.71 992.45 535.59 C 993.00 535.84 994.11 536.35 994.66 536.61 C 994.76 537.13 994.95 538.17 995.05 538.69 C 994.03 538.23 993.03 537.79 992.03 537.35 C 992.67 539.45 992.80 542.72 995.67 542.75 C 995.61 543.41 995.56 544.09 995.52 544.77 C 1002.34 544.93 1009.17 544.83 1016.00 544.90 C 1019.45 544.94 1022.99 544.58 1026.35 545.63 C 983.18 545.69 939.98 545.85 896.82 545.54 C 895.69 542.71 894.47 539.93 893.36 537.10 C 891.57 532.64 889.68 528.21 887.85 523.77 Z" />
</g>
<g id="#6a6a6aff">
<path fill="#6a6a6a" opacity="1.00" d=" M 294.86 441.29 C 297.72 434.73 300.84 428.28 303.72 421.73 C 304.23 423.01 304.86 424.26 305.42 425.53 C 305.70 425.26 306.24 424.73 306.52 424.46 C 306.78 425.11 307.05 425.77 307.32 426.44 C 307.81 426.08 308.30 425.73 308.79 425.39 C 308.89 425.96 309.10 427.09 309.21 427.65 C 309.69 427.24 310.17 426.83 310.65 426.43 C 311.10 427.41 311.58 428.38 312.09 429.35 C 309.61 434.56 307.35 439.87 304.70 445.00 C 299.13 446.92 295.22 452.47 289.36 453.45 C 291.05 449.34 293.00 445.33 294.86 441.29 Z" />
</g>
<g id="#5d5e5dff">
<path fill="#5d5e5d" opacity="1.00" d=" M 289.36 453.45 C 295.22 452.47 299.13 446.92 304.70 445.00 C 325.16 445.03 345.63 444.94 366.09 445.04 C 371.00 446.12 376.06 446.83 380.75 448.69 C 389.30 452.25 396.86 458.26 401.82 466.12 C 405.80 471.67 407.57 478.37 408.97 484.96 C 405.14 484.80 401.32 484.83 397.49 484.98 C 394.44 469.34 379.92 456.75 363.90 456.52 C 338.50 456.41 313.11 456.51 287.71 456.47 C 288.23 455.48 288.73 454.48 289.21 453.49 L 289.36 453.45 Z" />
</g>
<g id="#5e5f5fff">
<path fill="#5e5f5f" opacity="1.00" d=" M 626.39 448.76 C 633.08 443.98 642.67 443.65 649.49 448.32 C 652.59 450.35 654.76 453.55 656.14 456.95 C 658.02 461.66 660.04 466.32 661.90 471.05 C 664.19 476.19 666.15 481.48 668.45 486.63 C 664.41 486.91 660.35 487.03 656.32 487.41 C 652.50 478.28 648.90 469.05 644.90 460.00 C 641.95 454.46 632.74 455.07 630.61 461.00 C 628.94 456.99 622.35 457.81 622.37 452.80 C 623.57 451.33 624.90 449.95 626.39 448.76 Z" />
</g>
<g id="#c7c8c8ff">
<path fill="#c7c8c8" opacity="1.00" d=" M 380.75 448.69 C 382.12 448.29 383.50 447.84 384.94 447.83 C 462.96 447.89 540.98 447.82 619.00 447.86 C 621.48 447.85 624.12 447.49 626.39 448.76 C 624.90 449.95 623.57 451.33 622.37 452.80 C 619.68 456.91 618.47 461.74 616.40 466.15 C 544.88 466.02 473.34 466.01 401.82 466.12 C 396.86 458.26 389.30 452.25 380.75 448.69 Z" />
</g>
<g id="#c8c9c9ff">
<path fill="#c8c9c9" opacity="1.00" d=" M 649.49 448.32 C 658.28 447.36 667.15 448.14 675.97 447.88 C 731.95 447.96 787.94 447.71 843.92 448.01 C 847.14 455.53 850.15 463.14 853.22 470.73 C 835.17 471.43 817.08 470.84 799.02 471.04 C 753.31 471.02 707.60 471.03 661.90 471.05 C 660.04 466.32 658.02 461.66 656.14 456.95 C 654.76 453.55 652.59 450.35 649.49 448.32 Z" />
</g>
<g id="#858686ff">
<path fill="#858686" opacity="1.00" d=" M 616.40 466.15 C 618.47 461.74 619.68 456.91 622.37 452.80 C 622.35 457.81 628.94 456.99 630.61 461.00 C 626.95 469.69 623.41 478.43 619.80 487.14 C 617.58 485.28 615.09 483.70 612.17 483.32 C 612.39 481.54 612.80 479.80 613.13 478.05 C 612.36 478.61 611.59 479.18 610.85 479.77 C 612.71 475.23 614.50 470.67 616.40 466.15 Z" />
</g>
<g id="#d0d2d1ff">
<path fill="#d0d2d1" opacity="1.00" d=" M 401.82 466.12 C 473.34 466.01 544.88 466.02 616.40 466.15 C 614.50 470.67 612.71 475.23 610.85 479.77 C 608.68 484.58 606.93 489.57 604.75 494.38 C 600.51 493.76 596.23 493.88 591.97 493.92 C 531.07 493.91 470.18 494.06 409.28 493.84 C 409.75 490.87 409.17 487.91 408.97 484.96 C 407.57 478.37 405.80 471.67 401.82 466.12 Z" />
</g>
<g id="#d2d4d3ff">
<path fill="#d2d4d3" opacity="1.00" d=" M 661.90 471.05 C 707.60 471.03 753.31 471.02 799.02 471.04 C 817.08 470.84 835.17 471.43 853.22 470.73 C 856.48 478.07 859.29 485.60 862.42 493.00 C 862.91 494.28 863.45 495.57 864.04 496.83 C 823.04 497.36 782.02 496.82 741.01 497.03 C 718.26 497.14 695.48 496.80 672.74 497.23 C 671.37 493.67 669.76 490.21 668.45 486.63 C 666.15 481.48 664.19 476.19 661.90 471.05 Z" />
</g>
<g id="#8d8e8dff">
<path fill="#8d8e8d" opacity="1.00" d=" M 610.85 479.77 C 611.59 479.18 612.36 478.61 613.13 478.05 C 612.80 479.80 612.39 481.54 612.17 483.32 C 615.09 483.70 617.58 485.28 619.80 487.14 C 615.77 496.79 611.81 506.47 607.82 516.14 C 605.52 514.35 602.92 513.04 600.33 511.76 C 600.15 510.07 599.88 508.40 599.71 506.72 C 601.42 502.62 603.03 498.48 604.75 494.38 C 606.93 489.57 608.68 484.58 610.85 479.77 Z" />
</g>
<g id="#656665ff">
<path fill="#656665" opacity="1.00" d=" M 397.49 484.98 C 401.32 484.83 405.14 484.80 408.97 484.96 C 409.17 487.91 409.75 490.87 409.28 493.84 C 408.97 499.49 407.33 504.99 405.34 510.27 C 402.48 508.17 399.25 505.80 395.63 505.60 C 398.25 499.11 399.07 491.83 397.49 484.98 Z" />
</g>
<g id="#686868ff">
<path fill="#686868" opacity="1.00" d=" M 656.32 487.41 C 660.35 487.03 664.41 486.91 668.45 486.63 C 669.76 490.21 671.37 493.67 672.74 497.23 C 676.73 506.88 680.77 516.52 684.68 526.21 C 685.19 527.41 685.77 528.59 686.29 529.81 C 682.18 530.02 678.07 530.00 673.96 529.98 C 673.11 527.92 672.27 525.86 671.43 523.82 C 666.31 511.71 661.43 499.51 656.32 487.41 Z" />
</g>
<g id="#eeefefff">
<path fill="#eeefef" opacity="1.00" d=" M 863.33 492.12 C 866.84 496.34 867.66 501.98 870.17 506.76 C 873.16 505.41 876.08 503.89 879.11 502.61 C 881.99 509.67 884.94 516.71 887.85 523.77 C 889.68 528.21 891.57 532.64 893.36 537.10 C 892.55 537.51 891.78 537.96 891.06 538.48 C 888.78 537.61 885.46 538.45 884.37 535.60 C 882.93 535.27 881.46 535.05 880.00 534.99 C 878.81 531.89 877.44 528.87 875.97 525.91 C 872.06 516.19 868.18 506.45 864.04 496.83 C 863.45 495.57 862.91 494.28 862.42 493.00 L 863.33 492.12 Z" />
</g>
<g id="#dbdcdcff">
<path fill="#dbdcdc" opacity="1.00" d=" M 409.28 493.84 C 470.18 494.06 531.07 493.91 591.97 493.92 C 596.23 493.88 600.51 493.76 604.75 494.38 C 603.03 498.48 601.42 502.62 599.71 506.72 C 597.58 511.42 595.82 516.27 593.75 520.99 C 592.54 520.46 591.30 520.12 590.02 519.97 C 528.69 520.17 467.34 520.06 406.01 520.05 C 404.30 520.39 403.13 519.23 402.06 518.12 C 403.14 515.50 404.28 512.90 405.34 510.27 C 407.33 504.99 408.97 499.49 409.28 493.84 Z" />
</g>
<g id="#dddedeff">
<path fill="#dddede" opacity="1.00" d=" M 672.74 497.23 C 695.48 496.80 718.26 497.14 741.01 497.03 C 782.02 496.82 823.04 497.36 864.04 496.83 C 868.18 506.45 872.06 516.19 875.97 525.91 C 822.31 526.12 768.65 525.99 715.00 525.97 C 704.89 526.23 694.77 525.66 684.68 526.21 C 680.77 516.52 676.73 506.88 672.74 497.23 Z" />
</g>
<g id="#757575ff">
<path fill="#757575" opacity="1.00" d=" M 395.63 505.60 C 399.25 505.80 402.48 508.17 405.34 510.27 C 404.28 512.90 403.14 515.50 402.06 518.12 C 399.53 524.55 396.71 530.86 394.22 537.31 C 393.32 536.06 392.62 534.46 391.05 533.97 C 389.00 533.16 387.25 531.43 384.91 531.59 C 386.04 529.00 387.04 526.36 388.15 523.76 C 390.67 517.72 393.22 511.68 395.63 505.60 Z" />
</g>
<g id="#969696ff">
<path fill="#969696" opacity="1.00" d=" M 593.75 520.99 C 595.82 516.27 597.58 511.42 599.71 506.72 C 599.88 508.40 600.15 510.07 600.33 511.76 C 602.92 513.04 605.52 514.35 607.82 516.14 C 606.74 518.69 605.68 521.26 604.60 523.82 C 601.64 531.15 598.62 538.46 595.57 545.75 C 593.33 551.19 591.08 556.62 588.84 562.06 C 586.54 560.29 583.96 558.97 581.39 557.67 C 581.56 556.51 581.73 555.35 581.91 554.21 C 581.43 554.32 580.45 554.54 579.97 554.65 C 584.62 543.45 589.04 532.16 593.75 520.99 Z" />
</g>
<g id="#e7e8e7ff">
<path fill="#e7e8e7" opacity="1.00" d=" M 402.06 518.12 C 403.13 519.23 404.30 520.39 406.01 520.05 C 467.34 520.06 528.69 520.17 590.02 519.97 C 591.30 520.12 592.54 520.46 593.75 520.99 C 589.04 532.16 584.62 543.45 579.97 554.65 C 579.46 555.78 578.97 556.92 578.45 558.05 C 518.28 557.70 458.10 558.00 397.93 557.93 C 393.91 557.87 389.81 558.30 385.88 557.23 C 388.68 550.60 391.34 543.91 394.22 537.31 C 396.71 530.86 399.53 524.55 402.06 518.12 Z" />
</g>
<g id="#9a15a9ff">
<path fill="#9a15a9" opacity="1.00" d=" M 100.04 523.76 C 147.96 523.80 195.87 523.77 243.78 523.78 C 243.95 525.57 244.15 527.39 244.73 529.11 C 245.79 531.79 244.74 534.69 244.21 537.38 C 244.05 539.06 242.07 538.39 240.96 538.56 C 242.04 540.53 242.96 542.66 244.50 544.34 C 245.97 545.04 247.58 545.37 249.17 545.71 C 199.47 545.65 149.77 545.72 100.07 545.69 C 100.04 538.38 100.10 531.07 100.04 523.76 Z" />
<path fill="#9a15a9" opacity="1.00" d=" M 100.04 628.14 C 149.46 628.10 198.88 628.16 248.30 628.12 C 246.88 628.46 245.53 628.99 244.17 629.50 C 243.81 631.57 245.01 633.40 245.24 635.38 C 244.47 638.69 245.01 642.59 242.22 645.08 C 242.97 646.20 243.33 647.53 244.00 648.72 C 240.87 648.93 237.61 648.53 234.66 649.82 C 189.79 649.98 144.91 649.89 100.03 649.88 C 100.09 642.63 100.07 635.39 100.04 628.14 Z" />
</g>
<g id="#a2199cff">
<path fill="#a2199c" opacity="1.00" d=" M 243.78 523.78 C 267.59 523.77 291.41 523.79 315.22 523.77 C 315.31 524.28 315.49 525.29 315.58 525.80 C 314.08 527.37 315.07 529.32 315.72 531.02 C 314.87 532.30 314.30 533.74 313.46 535.04 C 314.63 537.71 314.85 540.64 314.50 543.51 C 313.09 544.00 311.76 544.71 310.55 545.60 C 290.10 545.83 269.63 545.61 249.17 545.71 C 247.58 545.37 245.97 545.04 244.50 544.34 C 242.96 542.66 242.04 540.53 240.96 538.56 C 242.07 538.39 244.05 539.06 244.21 537.38 C 244.74 534.69 245.79 531.79 244.73 529.11 C 244.15 527.39 243.95 525.57 243.78 523.78 Z" />
</g>
<g id="#a81d91ff">
<path fill="#a81d91" opacity="1.00" d=" M 315.22 523.77 C 339.53 523.77 363.84 523.80 388.15 523.76 C 387.04 526.36 386.04 529.00 384.91 531.59 C 383.01 536.29 380.99 540.95 379.16 545.68 C 356.29 545.64 333.42 545.81 310.55 545.60 C 311.76 544.71 313.09 544.00 314.50 543.51 C 314.85 540.64 314.63 537.71 313.46 535.04 C 314.30 533.74 314.87 532.30 315.72 531.02 C 315.07 529.32 314.08 527.37 315.58 525.80 C 315.49 525.29 315.31 524.28 315.22 523.77 Z" />
</g>
<g id="#c6315aff">
<path fill="#c6315a" opacity="1.00" d=" M 595.57 545.75 C 598.62 538.46 601.64 531.15 604.60 523.82 C 626.87 523.75 649.15 523.75 671.43 523.82 C 672.27 525.86 673.11 527.92 673.96 529.98 C 676.13 535.23 678.29 540.49 680.48 545.74 C 652.18 545.67 623.87 545.64 595.57 545.75 Z" />
</g>
<g id="#ee4b12ff">
<path fill="#ee4b12" opacity="1.00" d=" M 993.01 523.75 C 1032.72 523.81 1072.42 523.77 1112.12 523.77 C 1112.50 525.25 1113.18 526.81 1112.42 528.31 C 1110.97 528.64 1109.58 529.11 1108.18 529.51 C 1109.06 531.38 1111.23 530.70 1112.86 530.50 C 1112.75 532.75 1111.84 534.81 1110.94 536.84 C 1112.15 537.88 1113.19 539.12 1114.16 540.41 C 1113.14 540.40 1112.14 540.38 1111.15 540.35 C 1110.89 540.63 1110.38 541.20 1110.12 541.48 C 1111.12 541.92 1112.15 542.35 1113.20 542.75 C 1113.36 543.42 1113.54 544.10 1113.73 544.79 C 1132.17 544.99 1150.63 544.81 1169.09 545.03 L 1168.75 545.64 C 1121.29 545.75 1073.81 545.73 1026.35 545.63 C 1022.99 544.58 1019.45 544.94 1016.00 544.90 C 1009.17 544.83 1002.34 544.93 995.52 544.77 C 995.56 544.09 995.61 543.41 995.67 542.75 C 992.80 542.72 992.67 539.45 992.03 537.35 C 993.03 537.79 994.03 538.23 995.05 538.69 C 994.95 538.17 994.76 537.13 994.66 536.61 C 994.11 536.35 993.00 535.84 992.45 535.59 C 992.93 534.71 993.29 533.78 993.90 532.98 C 992.93 532.09 992.03 531.16 991.09 530.27 C 992.61 530.38 994.10 530.79 995.64 530.96 C 994.00 528.69 995.64 525.44 993.01 523.75 Z" />
</g>
<g id="#f34f08ff">
<path fill="#f34f08" opacity="1.00" d=" M 1112.12 523.77 C 1131.06 523.78 1150.00 523.79 1168.94 523.76 C 1169.02 530.85 1168.73 537.95 1169.09 545.03 C 1150.63 544.81 1132.17 544.99 1113.73 544.79 C 1113.54 544.10 1113.36 543.42 1113.20 542.75 C 1112.15 542.35 1111.12 541.92 1110.12 541.48 C 1110.38 541.20 1110.89 540.63 1111.15 540.35 C 1112.14 540.38 1113.14 540.40 1114.16 540.41 C 1113.19 539.12 1112.15 537.88 1110.94 536.84 C 1111.84 534.81 1112.75 532.75 1112.86 530.50 C 1111.23 530.70 1109.06 531.38 1108.18 529.51 C 1109.58 529.11 1110.97 528.64 1112.42 528.31 C 1113.18 526.81 1112.50 525.25 1112.12 523.77 Z" />
<path fill="#f34f08" opacity="1.00" d=" M 1113.14 732.36 C 1131.76 732.37 1150.39 732.32 1169.02 732.38 C 1168.85 739.67 1168.94 746.97 1168.96 754.27 C 1150.34 754.25 1131.72 754.26 1113.10 754.25 C 1113.27 753.25 1113.41 752.25 1113.51 751.25 C 1112.58 750.19 1111.12 749.76 1109.97 749.01 C 1111.27 748.65 1112.60 748.54 1113.96 748.65 C 1112.93 747.74 1111.90 746.83 1110.98 745.84 C 1111.80 743.83 1112.72 741.81 1112.86 739.62 C 1111.64 739.66 1110.43 739.68 1109.24 739.82 C 1108.95 739.47 1108.37 738.78 1108.08 738.43 C 1109.51 738.08 1110.92 737.58 1112.40 737.36 C 1112.89 735.73 1113.00 734.03 1113.14 732.36 Z" />
<path fill="#f34f08" opacity="1.00" d=" M 1124.12 836.60 C 1139.08 836.62 1154.04 836.58 1169.01 836.61 C 1168.89 843.90 1168.88 851.20 1169.01 858.49 C 1152.91 858.53 1136.81 858.47 1120.71 858.51 C 1121.38 857.21 1122.06 855.92 1122.86 854.69 C 1121.92 854.13 1121.52 853.01 1120.62 852.43 C 1120.91 852.03 1121.49 851.22 1121.78 850.82 C 1121.49 849.55 1121.39 848.25 1121.01 847.03 C 1121.79 846.39 1122.63 845.82 1123.53 845.33 C 1123.68 842.41 1124.56 839.53 1124.12 836.60 Z" />
</g>
<g id="#e8e9e8ff">
<path fill="#e8e9e8" opacity="1.00" d=" M 684.68 526.21 C 694.77 525.66 704.89 526.23 715.00 525.97 C 768.65 525.99 822.31 526.12 875.97 525.91 C 877.44 528.87 878.81 531.89 880.00 534.99 C 882.67 541.93 885.65 548.75 888.33 555.70 C 867.90 556.27 847.45 555.82 827.01 555.94 C 785.01 555.94 743.02 556.00 701.02 555.95 C 699.75 556.00 698.56 556.35 697.46 557.00 C 693.75 547.93 689.93 538.91 686.29 529.81 C 685.77 528.59 685.19 527.41 684.68 526.21 Z" />
</g>
<g id="#6f6f6fff">
<path fill="#6f6f6f" opacity="1.00" d=" M 673.96 529.98 C 678.07 530.00 682.18 530.02 686.29 529.81 C 689.93 538.91 693.75 547.93 697.46 557.00 C 699.51 561.88 701.50 566.79 703.58 571.67 C 699.54 571.97 695.48 572.00 691.45 572.35 C 687.82 563.47 684.10 554.63 680.48 545.74 C 678.29 540.49 676.13 535.23 673.96 529.98 Z" />
</g>
<g id="#7a7b7aff">
<path fill="#7a7b7a" opacity="1.00" d=" M 384.91 531.59 C 387.25 531.43 389.00 533.16 391.05 533.97 C 392.62 534.46 393.32 536.06 394.22 537.31 C 391.34 543.91 388.68 550.60 385.88 557.23 C 384.21 561.67 382.15 565.95 380.54 570.42 C 377.45 568.52 374.20 566.92 370.82 565.65 C 373.67 559.02 376.30 552.30 379.16 545.68 C 380.99 540.95 383.01 536.29 384.91 531.59 Z" />
</g>
<g id="#f6f6f6ff">
<path fill="#f6f6f6" opacity="1.00" d=" M 880.00 534.99 C 881.46 535.05 882.93 535.27 884.37 535.60 C 885.46 538.45 888.78 537.61 891.06 538.48 C 891.78 537.96 892.55 537.51 893.36 537.10 C 894.47 539.93 895.69 542.71 896.82 545.54 C 901.35 556.41 905.83 567.30 910.34 578.18 C 906.60 578.86 901.44 576.86 899.14 580.92 C 901.46 586.92 904.27 592.76 906.11 598.93 C 905.48 600.52 903.34 599.87 902.05 600.11 C 865.69 600.11 829.34 600.09 792.99 600.10 C 767.11 600.25 741.20 599.78 715.33 600.35 C 712.19 592.58 709.06 584.81 705.75 577.13 C 750.83 576.83 795.92 577.13 841.01 576.99 C 859.63 576.86 878.27 577.30 896.88 576.77 C 894.18 569.70 891.44 562.61 888.33 555.70 C 885.65 548.75 882.67 541.93 880.00 534.99 Z" />
<path fill="#f6f6f6" opacity="1.00" d=" M 1058.21 963.97 C 1059.71 967.33 1061.69 970.67 1061.72 974.46 C 1060.46 971.30 1059.31 968.10 1057.77 965.08 L 1058.21 963.97 Z" />
</g>
<g id="#9d9e9dff">
<path fill="#9d9e9d" opacity="1.00" d=" M 579.97 554.65 C 580.45 554.54 581.43 554.32 581.91 554.21 C 581.73 555.35 581.56 556.51 581.39 557.67 C 583.96 558.97 586.54 560.29 588.84 562.06 C 584.79 571.75 580.83 581.47 576.80 591.16 C 574.59 589.24 571.93 588.03 569.37 586.70 C 569.39 585.03 569.28 583.39 569.30 581.74 C 569.41 580.24 569.86 578.80 570.46 577.44 C 573.19 571.00 575.72 564.48 578.45 558.05 C 578.97 556.92 579.46 555.78 579.97 554.65 Z" />
</g>
<g id="#f0f0f0ff">
<path fill="#f0f0f0" opacity="1.00" d=" M 697.46 557.00 C 698.56 556.35 699.75 556.00 701.02 555.95 C 743.02 556.00 785.01 555.94 827.01 555.94 C 847.45 555.82 867.90 556.27 888.33 555.70 C 891.44 562.61 894.18 569.70 896.88 576.77 C 878.27 577.30 859.63 576.86 841.01 576.99 C 795.92 577.13 750.83 576.83 705.75 577.13 C 705.00 575.31 704.29 573.48 703.58 571.67 C 701.50 566.79 699.51 561.88 697.46 557.00 Z" />
</g>
<g id="#f1f1f1ff">
<path fill="#f1f1f1" opacity="1.00" d=" M 385.88 557.23 C 389.81 558.30 393.91 557.87 397.93 557.93 C 458.10 558.00 518.28 557.70 578.45 558.05 C 575.72 564.48 573.19 571.00 570.46 577.44 C 569.86 578.80 569.41 580.24 569.30 581.74 L 568.36 582.23 C 544.56 581.76 520.74 582.16 496.93 582.06 C 461.27 582.04 425.61 582.10 389.95 582.05 C 385.30 581.92 380.53 582.63 376.01 581.23 C 377.46 577.60 378.93 573.98 380.54 570.42 C 382.15 565.95 384.21 561.67 385.88 557.23 Z" />
</g>
<g id="#808080ff">
<path fill="#808080" opacity="1.00" d=" M 370.82 565.65 C 374.20 566.92 377.45 568.52 380.54 570.42 C 378.93 573.98 377.46 577.60 376.01 581.23 C 371.29 592.98 366.16 604.56 361.55 616.35 C 358.87 613.76 355.13 613.04 351.79 611.69 C 358.18 596.37 364.54 581.02 370.82 565.65 Z" />
</g>
<g id="#747474ff">
<path fill="#747474" opacity="1.00" d=" M 691.45 572.35 C 695.48 572.00 699.54 571.97 703.58 571.67 C 704.29 573.48 705.00 575.31 705.75 577.13 C 709.06 584.81 712.19 592.58 715.33 600.35 C 717.77 605.82 719.90 611.42 722.30 616.91 C 718.30 617.20 714.10 616.31 710.30 617.92 C 704.02 602.73 697.77 587.53 691.45 572.35 Z" />
</g>
<g id="#f9f9f9ff">
<path fill="#f9f9f9" opacity="1.00" d=" M 376.01 581.23 C 380.53 582.63 385.30 581.92 389.95 582.05 C 425.61 582.10 461.27 582.04 496.93 582.06 C 520.74 582.16 544.56 581.76 568.36 582.23 C 562.54 596.63 556.60 610.98 550.70 625.34 C 545.14 624.64 539.54 625.10 533.96 624.98 C 475.27 624.99 416.57 624.92 357.87 624.98 C 359.08 622.09 360.26 619.20 361.55 616.35 C 366.16 604.56 371.29 592.98 376.01 581.23 Z" />
</g>
<g id="#a4a4a4ff">
<path fill="#a4a4a4" opacity="1.00" d=" M 568.36 582.23 L 569.30 581.74 C 569.28 583.39 569.39 585.03 569.37 586.70 C 571.93 588.03 574.59 589.24 576.80 591.16 C 571.66 603.50 566.63 615.89 561.45 628.21 C 558.53 635.48 555.51 642.71 552.50 649.94 C 545.10 667.83 537.79 685.77 530.27 703.62 L 530.27 703.62 L 529.62 702.85 C 526.71 700.94 522.76 700.34 520.91 697.11 C 531.08 673.29 540.72 649.24 550.70 625.34 C 556.60 610.98 562.54 596.63 568.36 582.23 Z" />
</g>
<g id="#838383ff">
<path fill="#838383" opacity="1.00" d=" M 351.79 611.69 C 355.13 613.04 358.87 613.76 361.55 616.35 C 360.26 619.20 359.08 622.09 357.87 624.98 C 347.43 650.27 337.12 675.61 326.49 700.82 C 323.28 708.90 319.92 716.92 316.65 724.98 C 314.19 722.32 310.45 721.34 307.19 719.98 C 316.63 696.56 326.49 673.27 336.02 649.88 C 339.06 642.64 341.99 635.36 345.05 628.14 C 347.26 622.64 349.64 617.21 351.79 611.69 Z" />
</g>
<g id="#787878ff">
<path fill="#787878" opacity="1.00" d=" M 710.30 617.92 C 714.10 616.31 718.30 617.20 722.30 616.91 C 730.65 637.44 739.22 657.88 747.65 678.38 C 749.06 680.71 748.76 683.54 749.94 685.96 C 750.49 690.75 749.33 695.67 747.16 699.95 C 747.05 700.20 746.81 700.71 746.69 700.97 C 743.38 699.72 740.32 697.93 737.09 696.53 C 739.12 692.82 739.41 688.20 737.74 684.30 C 733.03 672.84 728.27 661.41 723.55 649.95 C 720.59 642.70 717.57 635.47 714.58 628.23 C 713.14 624.79 711.73 621.35 710.30 617.92 Z" />
</g>
<g id="#a31a9aff">
<path fill="#a31a9a" opacity="1.00" d=" M 248.30 628.12 C 280.55 628.14 312.80 628.13 345.05 628.14 C 341.99 635.36 339.06 642.64 336.02 649.88 C 302.24 649.87 268.44 650.00 234.66 649.82 C 237.61 648.53 240.87 648.93 244.00 648.72 C 243.33 647.53 242.97 646.20 242.22 645.08 C 245.01 642.59 244.47 638.69 245.24 635.38 C 245.01 633.40 243.81 631.57 244.17 629.50 C 245.53 628.99 246.88 628.46 248.30 628.12 Z" />
</g>
<g id="#c12e63ff">
<path fill="#c12e63" opacity="1.00" d=" M 561.45 628.21 C 585.90 628.02 610.36 628.19 634.82 628.13 C 633.80 631.35 634.99 634.72 636.91 637.36 C 635.79 637.98 634.52 637.37 633.38 637.18 C 635.02 639.60 635.37 643.12 632.41 644.70 C 632.98 644.91 634.11 645.31 634.68 645.52 C 634.73 646.97 634.74 648.44 634.70 649.90 C 607.30 649.93 579.90 649.85 552.50 649.94 C 555.51 642.71 558.53 635.48 561.45 628.21 Z" />
</g>
<g id="#ca3452ff">
<path fill="#ca3452" opacity="1.00" d=" M 634.82 628.13 C 661.41 628.21 688.00 627.99 714.58 628.23 C 717.57 635.47 720.59 642.70 723.55 649.95 C 693.93 649.84 664.31 649.93 634.70 649.90 C 634.74 648.44 634.73 646.97 634.68 645.52 C 634.11 645.31 632.98 644.91 632.41 644.70 C 635.37 643.12 635.02 639.60 633.38 637.18 C 634.52 637.37 635.79 637.98 636.91 637.36 C 634.99 634.72 633.80 631.35 634.82 628.13 Z" />
</g>
<g id="#e9481aff">
<path fill="#e9481a" opacity="1.00" d=" M 930.99 628.14 C 963.54 628.16 996.11 628.06 1028.66 628.18 C 1034.15 630.19 1040.09 628.42 1045.76 629.32 C 1047.53 630.63 1045.58 633.29 1047.03 634.91 C 1048.67 636.83 1046.09 638.59 1045.19 640.18 C 1045.96 642.87 1044.77 645.21 1043.02 647.17 C 1045.61 647.55 1047.81 649.03 1050.24 649.91 C 1013.50 649.88 976.70 649.94 939.94 649.87 C 936.98 642.61 933.98 635.38 930.99 628.14 Z" />
</g>
<g id="#cac9c9ff">
<path fill="#cac9c9" opacity="1.00" d=" M 520.34 698.70 C 520.48 698.30 520.76 697.51 520.91 697.11 C 522.76 700.34 526.71 700.94 529.62 702.85 C 526.49 702.83 523.38 702.91 520.26 702.81 C 520.32 701.43 520.38 700.06 520.34 698.70 Z" />
</g>
<g id="#b2b1b2ff">
<path fill="#b2b1b2" opacity="1.00" d=" M 734.16 700.14 C 735.29 699.08 736.30 697.87 737.09 696.53 C 740.32 697.93 743.38 699.72 746.69 700.97 C 745.50 703.20 744.00 705.32 741.98 706.87 C 739.04 705.01 737.24 701.83 734.16 700.14 Z" />
</g>
<g id="#f8f7f8ff">
<path fill="#f8f7f8" opacity="1.00" d=" M 520.34 698.70 C 520.38 700.06 520.32 701.43 520.26 702.81 C 523.38 702.91 526.49 702.83 529.62 702.85 L 530.27 703.62 C 527.39 704.21 524.76 705.52 522.11 706.72 C 521.38 706.25 520.64 705.81 519.89 705.40 C 519.28 711.99 526.39 715.16 531.95 715.05 C 595.99 715.04 660.03 714.99 724.06 715.05 C 727.83 714.83 731.93 714.61 735.08 712.29 C 734.12 711.22 733.29 710.06 732.34 709.02 C 732.86 708.28 733.40 707.56 733.95 706.85 C 733.30 705.15 732.14 703.75 731.00 702.38 C 732.16 701.79 733.17 700.98 734.16 700.14 C 737.24 701.83 739.04 705.01 741.98 706.87 C 744.00 705.32 745.50 703.20 746.69 700.97 C 746.81 700.71 747.05 700.20 747.16 699.95 C 748.69 700.59 750.27 701.23 751.98 701.08 C 816.99 700.99 882.01 701.12 947.01 701.01 C 949.11 700.82 949.55 703.26 950.33 704.68 C 953.87 713.88 957.83 722.90 961.64 731.99 C 961.94 730.05 961.62 728.10 961.25 726.20 C 964.38 724.79 967.92 726.80 971.07 725.19 C 972.06 727.55 973.02 729.94 974.01 732.32 C 977.05 739.61 980.05 746.91 983.06 754.21 C 987.56 765.25 992.28 776.21 996.62 787.32 C 994.41 789.85 990.90 790.17 988.09 791.72 C 989.11 797.07 993.26 801.64 992.77 807.32 C 990.40 802.25 988.12 797.13 986.13 791.90 C 982.89 783.03 978.83 774.48 975.25 765.74 C 971.97 756.93 968.02 748.39 964.42 739.70 C 963.84 738.64 963.55 736.81 961.96 737.03 C 755.96 737.01 549.95 737.02 343.95 737.01 C 333.19 736.91 322.42 737.25 311.67 736.79 C 313.38 732.87 314.91 728.88 316.65 724.98 C 319.92 716.92 323.28 708.90 326.49 700.82 C 329.99 701.03 333.50 701.10 337.00 701.03 C 394.35 701.09 451.69 701.05 509.04 701.04 C 512.26 701.10 515.50 701.19 518.71 700.76 C 519.11 700.24 519.93 699.21 520.34 698.70 Z" />
</g>
<g id="#fefdfdff">
<path fill="#fefdfd" opacity="1.00" d=" M 723.02 703.76 C 725.74 703.84 728.52 703.59 731.00 702.38 C 732.14 703.75 733.30 705.15 733.95 706.85 C 733.40 707.56 732.86 708.28 732.34 709.02 C 733.29 710.06 734.12 711.22 735.08 712.29 C 731.93 714.61 727.83 714.83 724.06 715.05 C 660.03 714.99 595.99 715.04 531.95 715.05 C 526.39 715.16 519.28 711.99 519.89 705.40 C 520.64 705.81 521.38 706.25 522.11 706.72 C 524.76 705.52 527.39 704.21 530.27 703.62 L 530.27 703.62 C 594.51 703.93 658.77 703.64 723.02 703.76 Z" />
</g>
<g id="#7f7e7eff">
<path fill="#7f7e7e" opacity="1.00" d=" M 307.10 719.95 L 307.19 719.98 C 310.45 721.34 314.19 722.32 316.65 724.98 C 314.91 728.88 313.38 732.87 311.67 736.79 C 308.66 744.22 305.59 751.63 302.58 759.07 C 300.45 755.86 295.68 756.18 293.42 753.01 C 296.25 746.12 299.17 739.27 301.90 732.34 C 303.74 728.26 305.36 724.08 307.10 719.95 Z" />
</g>
<g id="#9c16a6ff">
<path fill="#9c16a6" opacity="1.00" d=" M 163.32 732.36 C 189.30 732.34 215.28 732.36 241.27 732.36 C 241.03 733.09 240.57 734.55 240.33 735.28 C 239.24 735.72 238.15 736.19 237.07 736.68 C 238.01 736.99 238.89 737.45 239.84 737.77 C 237.51 741.60 239.28 746.21 237.24 750.12 C 238.88 751.08 239.93 752.69 240.96 754.26 C 212.55 754.27 184.15 754.23 155.74 754.28 C 157.06 752.32 157.29 749.98 157.93 747.78 C 158.81 746.60 159.84 745.56 160.86 744.51 C 159.87 744.49 158.88 744.43 157.90 744.36 C 158.16 743.43 158.38 742.50 158.55 741.57 C 159.47 741.73 160.38 741.53 161.30 741.59 C 163.01 739.63 162.11 737.41 160.03 736.23 C 161.15 734.96 162.23 733.65 163.32 732.36 Z" />
</g>
<g id="#a1199dff">
<path fill="#a1199d" opacity="1.00" d=" M 241.27 732.36 C 261.48 732.34 281.69 732.37 301.90 732.34 C 299.17 739.27 296.25 746.12 293.42 753.01 C 293.30 753.31 293.06 753.90 292.94 754.20 C 275.61 754.34 258.28 754.22 240.96 754.26 C 239.93 752.69 238.88 751.08 237.24 750.12 C 239.28 746.21 237.51 741.60 239.84 737.77 C 238.89 737.45 238.01 736.99 237.07 736.68 C 238.15 736.19 239.24 735.72 240.33 735.28 C 240.57 734.55 241.03 733.09 241.27 732.36 Z" />
</g>
<g id="#ea4919ff">
<path fill="#ea4919" opacity="1.00" d=" M 974.01 732.32 C 990.78 732.40 1007.55 732.34 1024.32 732.35 C 1023.60 733.52 1023.04 734.78 1022.37 735.99 C 1024.77 738.06 1022.28 740.57 1021.07 742.53 C 1022.00 742.44 1022.94 742.36 1023.90 742.27 C 1023.41 743.54 1022.57 744.57 1021.17 744.82 C 1021.13 745.24 1021.06 746.08 1021.02 746.50 C 1021.87 746.38 1022.74 746.30 1023.62 746.25 C 1023.20 747.09 1022.81 747.94 1022.44 748.80 C 1023.16 749.34 1023.90 749.90 1024.63 750.48 C 1022.75 751.45 1021.03 752.70 1019.57 754.24 C 1007.40 754.25 995.23 754.30 983.06 754.21 C 980.05 746.91 977.05 739.61 974.01 732.32 Z" />
</g>
<g id="#ef4c10ff">
<path fill="#ef4c10" opacity="1.00" d=" M 1024.32 732.35 C 1053.92 732.37 1083.53 732.34 1113.14 732.36 C 1113.00 734.03 1112.89 735.73 1112.40 737.36 C 1110.92 737.58 1109.51 738.08 1108.08 738.43 C 1108.37 738.78 1108.95 739.47 1109.24 739.82 C 1110.43 739.68 1111.64 739.66 1112.86 739.62 C 1112.72 741.81 1111.80 743.83 1110.98 745.84 C 1111.90 746.83 1112.93 747.74 1113.96 748.65 C 1112.60 748.54 1111.27 748.65 1109.97 749.01 C 1111.12 749.76 1112.58 750.19 1113.51 751.25 C 1113.41 752.25 1113.27 753.25 1113.10 754.25 C 1081.93 754.25 1050.75 754.27 1019.57 754.24 C 1021.03 752.70 1022.75 751.45 1024.63 750.48 C 1023.90 749.90 1023.16 749.34 1022.44 748.80 C 1022.81 747.94 1023.20 747.09 1023.62 746.25 C 1022.74 746.30 1021.87 746.38 1021.02 746.50 C 1021.06 746.08 1021.13 745.24 1021.17 744.82 C 1022.57 744.57 1023.41 743.54 1023.90 742.27 C 1022.94 742.36 1022.00 742.44 1021.07 742.53 C 1022.28 740.57 1024.77 738.06 1022.37 735.99 C 1023.04 734.78 1023.60 733.52 1024.32 732.35 Z" />
</g>
<g id="#efefefff">
<path fill="#efefef" opacity="1.00" d=" M 311.67 736.79 C 322.42 737.25 333.19 736.91 343.95 737.01 C 549.95 737.02 755.96 737.01 961.96 737.03 C 963.55 736.81 963.84 738.64 964.42 739.70 C 968.02 748.39 971.97 756.93 975.25 765.74 C 962.20 766.40 949.11 765.86 936.05 766.02 C 731.38 766.01 526.72 766.02 322.06 766.02 C 314.50 766.28 306.91 765.44 299.39 766.51 C 300.46 764.03 301.54 761.55 302.58 759.07 C 305.59 751.63 308.66 744.22 311.67 736.79 Z" />
<path fill="#efefef" opacity="1.00" d=" M 1065.32 981.04 C 1068.38 988.00 1071.16 995.08 1074.13 1002.08 L 1073.11 1001.78 C 1070.23 995.22 1067.70 988.50 1064.74 981.97 L 1065.32 981.04 Z" />
</g>
<g id="#797979ff">
<path fill="#797979" opacity="1.00" d=" M 292.94 754.20 C 293.06 753.90 293.30 753.31 293.42 753.01 C 295.68 756.18 300.45 755.86 302.58 759.07 C 301.54 761.55 300.46 764.03 299.39 766.51 C 296.51 773.68 293.47 780.78 290.63 787.96 C 288.42 784.72 283.73 785.38 281.40 782.34 C 285.10 772.90 289.14 763.59 292.94 754.20 Z" />
</g>
<g id="#e5e4e5ff">
<path fill="#e5e4e5" opacity="1.00" d=" M 299.39 766.51 C 306.91 765.44 314.50 766.28 322.06 766.02 C 526.72 766.02 731.38 766.01 936.05 766.02 C 949.11 765.86 962.20 766.40 975.25 765.74 C 978.83 774.48 982.89 783.03 986.13 791.90 C 755.08 792.06 524.03 791.90 292.99 791.98 C 291.70 791.86 290.46 791.56 289.27 791.07 C 289.61 790.29 290.29 788.74 290.63 787.96 C 293.47 780.78 296.51 773.68 299.39 766.51 Z" />
</g>
<g id="#737272ff">
<path fill="#737272" opacity="1.00" d=" M 281.30 782.23 L 281.40 782.34 C 283.73 785.38 288.42 784.72 290.63 787.96 C 290.29 788.74 289.61 790.29 289.27 791.07 C 286.70 797.24 284.26 803.47 281.58 809.59 C 279.92 813.72 278.19 817.82 276.55 821.96 C 274.21 819.01 269.92 818.92 267.29 816.25 C 271.97 804.91 276.72 793.61 281.30 782.23 Z" />
</g>
<g id="#e8e7e7ff">
<path fill="#e8e7e7" opacity="1.00" d=" M 996.62 787.32 L 996.80 787.18 C 1003.38 803.68 1010.36 820.04 1017.05 836.51 C 1018.19 839.37 1019.44 842.19 1020.64 845.03 C 1018.65 848.10 1014.17 847.56 1011.96 850.03 C 1014.68 857.42 1017.66 864.73 1020.67 872.01 C 1022.50 877.08 1025.82 881.90 1025.85 887.42 C 1022.58 880.42 1019.72 873.24 1016.78 866.10 C 1013.83 859.04 1010.90 851.97 1007.95 844.91 C 1003.17 832.84 997.92 820.97 992.84 809.03 C 992.82 808.60 992.79 807.75 992.77 807.32 C 993.26 801.64 989.11 797.07 988.09 791.72 C 990.90 790.17 994.41 789.85 996.62 787.32 Z" />
</g>
<g id="#dddcdcff">
<path fill="#dddcdc" opacity="1.00" d=" M 281.58 809.59 C 284.26 803.47 286.70 797.24 289.27 791.07 C 290.46 791.56 291.70 791.86 292.99 791.98 C 524.03 791.90 755.08 792.06 986.13 791.90 C 988.12 797.13 990.40 802.25 992.77 807.32 C 992.79 807.75 992.82 808.60 992.84 809.03 C 938.23 809.36 883.61 809.09 829.00 809.17 C 653.67 809.17 478.34 809.18 303.01 809.17 C 295.87 809.26 288.70 808.84 281.58 809.59 Z" />
</g>
<g id="#d1d0d0ff">
<path fill="#d1d0d0" opacity="1.00" d=" M 281.58 809.59 C 288.70 808.84 295.87 809.26 303.01 809.17 C 478.34 809.18 653.67 809.17 829.00 809.17 C 883.61 809.09 938.23 809.36 992.84 809.03 C 997.92 820.97 1003.17 832.84 1007.95 844.91 C 764.29 844.82 520.62 844.89 276.96 844.87 C 273.76 844.78 270.41 845.37 267.39 844.04 C 270.60 836.75 273.36 829.26 276.55 821.96 C 278.19 817.82 279.92 813.72 281.58 809.59 Z" />
</g>
<g id="#6a696aff">
<path fill="#6a696a" opacity="1.00" d=" M 258.90 836.52 C 261.75 829.78 264.48 823.00 267.29 816.25 C 269.92 818.92 274.21 819.01 276.55 821.96 C 273.36 829.26 270.60 836.75 267.39 844.04 C 264.78 850.35 262.19 856.66 259.63 863.00 C 257.14 860.39 253.44 858.86 249.90 858.30 C 252.91 851.04 255.89 843.77 258.90 836.52 Z" />
</g>
<g id="#9d16a5ff">
<path fill="#9d16a5" opacity="1.00" d=" M 169.16 836.60 C 199.07 836.54 228.99 836.71 258.90 836.52 C 255.89 843.77 252.91 851.04 249.90 858.30 C 222.27 858.78 194.58 858.36 166.92 858.51 C 166.39 855.51 166.66 852.47 166.60 849.45 C 167.05 849.22 167.95 848.77 168.40 848.54 C 167.77 846.85 166.79 844.95 168.03 843.29 C 168.96 843.72 169.90 844.18 170.84 844.63 C 170.36 841.93 169.74 839.27 169.16 836.60 Z" />
</g>
<g id="#ef4c0fff">
<path fill="#ef4c0f" opacity="1.00" d=" M 1017.05 836.51 C 1052.73 836.73 1088.43 836.54 1124.12 836.60 C 1124.56 839.53 1123.68 842.41 1123.53 845.33 C 1122.63 845.82 1121.79 846.39 1121.01 847.03 C 1121.39 848.25 1121.49 849.55 1121.78 850.82 C 1121.49 851.22 1120.91 852.03 1120.62 852.43 C 1121.52 853.01 1121.92 854.13 1122.86 854.69 C 1122.06 855.92 1121.38 857.21 1120.71 858.51 C 1089.18 858.45 1057.64 858.60 1026.12 858.43 C 1024.32 853.95 1022.43 849.51 1020.64 845.03 C 1019.44 842.19 1018.19 839.37 1017.05 836.51 Z" />
</g>
<g id="#c4c3c3ff">
<path fill="#c4c3c3" opacity="1.00" d=" M 259.63 863.00 C 262.19 856.66 264.78 850.35 267.39 844.04 C 270.41 845.37 273.76 844.78 276.96 844.87 C 520.62 844.89 764.29 844.82 1007.95 844.91 C 1010.90 851.97 1013.83 859.04 1016.78 866.10 C 902.86 865.85 788.93 866.05 675.00 866.01 C 545.02 865.95 415.04 866.05 285.06 865.99 C 276.17 865.91 267.25 866.34 258.38 865.67 C 258.70 865.00 259.32 863.66 259.63 863.00 Z" />
</g>
<g id="#dedddeff">
<path fill="#deddde" opacity="1.00" d=" M 1020.64 845.03 C 1022.43 849.51 1024.32 853.95 1026.12 858.43 C 1027.28 861.40 1028.72 864.27 1029.66 867.33 C 1028.47 871.48 1023.48 869.83 1020.67 872.01 C 1017.66 864.73 1014.68 857.42 1011.96 850.03 C 1014.17 847.56 1018.65 848.10 1020.64 845.03 Z" />
</g>
<g id="#616060ff">
<path fill="#616060" opacity="1.00" d=" M 249.90 858.30 C 253.44 858.86 257.14 860.39 259.63 863.00 C 259.32 863.66 258.70 865.00 258.38 865.67 C 255.16 873.70 251.89 881.73 248.52 889.71 C 247.50 892.10 246.58 894.54 245.58 896.95 C 243.28 894.02 239.08 893.80 236.34 891.34 C 240.77 880.29 245.41 869.32 249.90 858.30 Z" />
</g>
<g id="#bbb9b9ff">
<path fill="#bbb9b9" opacity="1.00" d=" M 248.52 889.71 C 251.89 881.73 255.16 873.70 258.38 865.67 C 267.25 866.34 276.17 865.91 285.06 865.99 C 415.04 866.05 545.02 865.95 675.00 866.01 C 788.93 866.05 902.86 865.85 1016.78 866.10 C 1019.72 873.24 1022.58 880.42 1025.85 887.42 C 1025.89 887.82 1025.96 888.60 1026.00 888.99 C 969.33 888.95 912.67 888.96 856.01 888.95 C 848.89 889.04 841.77 888.74 834.68 889.24 C 832.89 885.02 828.24 883.46 824.05 882.97 C 703.70 882.98 583.34 882.99 462.98 882.97 C 456.54 883.08 449.40 881.99 443.85 886.09 C 442.82 887.31 441.84 888.59 441.12 890.03 C 376.93 889.57 312.71 890.22 248.52 889.71 Z" />
</g>
<g id="#d7d6d6ff">
<path fill="#d7d6d6" opacity="1.00" d=" M 1029.66 867.33 L 1029.77 867.12 C 1034.70 879.45 1040.01 891.63 1044.84 903.99 C 1041.99 904.86 1039.38 906.28 1036.68 907.50 C 1035.54 908.04 1036.57 909.39 1036.73 910.23 C 1041.84 922.45 1046.70 934.77 1051.69 947.04 C 1053.38 950.95 1055.39 954.76 1056.39 958.94 L 1055.15 959.19 C 1054.53 957.68 1054.02 956.15 1053.40 954.67 C 1049.89 946.13 1046.28 937.63 1042.78 929.09 C 1040.59 923.67 1038.21 918.32 1036.06 912.88 C 1032.76 904.89 1029.52 896.87 1026.00 888.99 C 1025.96 888.60 1025.89 887.82 1025.85 887.42 C 1025.82 881.90 1022.50 877.08 1020.67 872.01 C 1023.48 869.83 1028.47 871.48 1029.66 867.33 Z" />
</g>
<g id="#555455ff">
<path fill="#555455" opacity="1.00" d=" M 443.85 886.09 C 449.40 881.99 456.54 883.08 462.98 882.97 C 583.34 882.99 703.70 882.98 824.05 882.97 C 828.24 883.46 832.89 885.02 834.68 889.24 C 838.14 897.18 841.37 905.22 844.70 913.21 C 845.97 916.33 847.32 919.42 848.55 922.56 C 844.51 922.81 840.46 922.86 836.44 923.28 C 832.56 913.57 828.40 903.97 824.53 894.27 C 700.71 894.26 576.90 894.31 453.08 894.24 C 452.59 894.36 451.61 894.58 451.12 894.69 C 448.27 893.79 445.65 892.34 443.12 890.79 C 443.38 889.22 443.48 887.63 443.85 886.09 Z" />
</g>
<g id="#706f6fff">
<path fill="#706f6f" opacity="1.00" d=" M 441.12 890.03 C 441.84 888.59 442.82 887.31 443.85 886.09 C 443.48 887.63 443.38 889.22 443.12 890.79 C 445.65 892.34 448.27 893.79 451.12 894.69 C 447.21 905.42 442.43 915.83 438.23 926.46 C 435.49 925.64 432.85 924.53 430.27 923.32 C 429.58 924.19 428.88 925.07 428.17 925.94 C 428.08 925.15 427.90 923.57 427.81 922.78 C 430.09 916.47 432.92 910.39 435.39 904.16 C 437.27 899.44 439.53 894.87 441.12 890.03 Z" />
</g>
<g id="#b0aeafff">
<path fill="#b0aeaf" opacity="1.00" d=" M 834.68 889.24 C 841.77 888.74 848.89 889.04 856.01 888.95 C 912.67 888.96 969.33 888.95 1026.00 888.99 C 1029.52 896.87 1032.76 904.89 1036.06 912.88 C 980.02 913.03 923.97 912.84 867.93 912.95 C 860.19 912.99 852.43 912.75 844.70 913.21 C 841.37 905.22 838.14 897.18 834.68 889.24 Z" />
</g>
<g id="#b2b0b0ff">
<path fill="#b2b0b0" opacity="1.00" d=" M 245.58 896.95 C 246.58 894.54 247.50 892.10 248.52 889.71 C 312.71 890.22 376.93 889.57 441.12 890.03 C 439.53 894.87 437.27 899.44 435.39 904.16 C 392.25 903.96 349.11 904.16 305.98 904.06 C 284.82 904.12 263.66 903.91 242.51 904.23 C 243.52 901.79 244.56 899.37 245.58 896.95 Z" />
</g>
<g id="#5a5959ff">
<path fill="#5a5959" opacity="1.00" d=" M 236.26 891.28 L 236.34 891.34 C 239.08 893.80 243.28 894.02 245.58 896.95 C 244.56 899.37 243.52 901.79 242.51 904.23 C 239.68 910.84 237.15 917.58 234.29 924.18 C 234.17 923.67 233.92 922.65 233.80 922.14 C 233.10 922.90 232.44 923.71 231.78 924.52 C 229.34 923.10 226.72 922.00 224.41 920.38 C 228.12 910.59 232.41 901.02 236.26 891.28 Z" />
</g>
<g id="#a9a6a7ff">
<path fill="#a9a6a7" opacity="1.00" d=" M 234.29 924.18 C 237.15 917.58 239.68 910.84 242.51 904.23 C 263.66 903.91 284.82 904.12 305.98 904.06 C 349.11 904.16 392.25 903.96 435.39 904.16 C 432.92 910.39 430.09 916.47 427.81 922.78 C 426.77 925.31 425.59 927.78 424.55 930.32 C 407.39 929.60 390.20 930.29 373.02 930.04 C 329.02 930.01 285.03 930.06 241.03 930.02 C 237.86 929.94 234.70 930.14 231.57 930.63 C 232.48 928.48 233.46 926.35 234.29 924.18 Z" />
</g>
<g id="#cecdcdff">
<path fill="#cecdcd" opacity="1.00" d=" M 1036.68 907.50 C 1039.38 906.28 1041.99 904.86 1044.84 903.99 L 1045.03 903.93 C 1049.93 916.27 1055.10 928.53 1060.19 940.80 L 1060.70 942.01 C 1058.30 944.62 1054.66 945.32 1051.69 947.04 C 1046.70 934.77 1041.84 922.45 1036.73 910.23 C 1036.57 909.39 1035.54 908.04 1036.68 907.50 Z" />
</g>
<g id="#a7a5a5ff">
<path fill="#a7a5a5" opacity="1.00" d=" M 844.70 913.21 C 852.43 912.75 860.19 912.99 867.93 912.95 C 923.97 912.84 980.02 913.03 1036.06 912.88 C 1038.21 918.32 1040.59 923.67 1042.78 929.09 C 978.91 928.92 915.03 929.24 851.16 928.93 C 850.24 926.82 849.43 924.67 848.55 922.56 C 847.32 919.42 845.97 916.33 844.70 913.21 Z" />
</g>
<g id="#525151ff">
<path fill="#525151" opacity="1.00" d=" M 224.26 920.28 L 224.41 920.38 C 226.72 922.00 229.34 923.10 231.78 924.52 C 232.44 923.71 233.10 922.90 233.80 922.14 C 233.92 922.65 234.17 923.67 234.29 924.18 C 233.46 926.35 232.48 928.48 231.57 930.63 C 227.83 939.63 224.21 948.69 220.48 957.69 C 218.46 962.42 216.52 967.19 214.59 971.96 C 212.18 969.14 207.64 969.55 205.32 966.36 C 205.70 965.42 206.45 963.55 206.83 962.61 C 209.76 955.32 212.85 948.09 215.81 940.82 C 218.65 933.98 221.52 927.15 224.26 920.28 Z" />
</g>
<g id="#676666ff">
<path fill="#676666" opacity="1.00" d=" M 424.55 930.32 C 425.59 927.78 426.77 925.31 427.81 922.78 C 427.90 923.57 428.08 925.15 428.17 925.94 C 428.88 925.07 429.58 924.19 430.27 923.32 C 432.85 924.53 435.49 925.64 438.23 926.46 C 436.20 931.25 434.29 936.10 432.21 940.87 C 429.61 947.37 426.93 953.82 424.21 960.27 C 421.52 959.25 418.89 958.01 416.05 957.46 C 411.68 966.12 408.05 975.19 404.16 984.10 C 401.49 990.07 399.76 996.52 396.15 1002.04 L 394.93 1001.86 C 398.12 993.52 401.89 985.41 405.13 977.09 C 407.77 970.74 410.63 964.47 413.05 958.03 C 416.91 948.81 420.90 939.63 424.55 930.32 Z" />
</g>
<g id="#4c4b4bff">
<path fill="#4c4b4b" opacity="1.00" d=" M 836.44 923.28 C 840.46 922.86 844.51 922.81 848.55 922.56 C 849.43 924.67 850.24 926.82 851.16 928.93 C 853.56 934.84 856.05 940.71 858.51 946.60 C 854.60 947.43 850.36 946.17 846.67 947.90 C 845.67 945.57 844.73 943.23 843.79 940.89 C 841.26 935.05 838.94 929.13 836.44 923.28 Z" />
</g>
<g id="#9f9d9eff">
<path fill="#9f9d9e" opacity="1.00" d=" M 851.16 928.93 C 915.03 929.24 978.91 928.92 1042.78 929.09 C 1046.28 937.63 1049.89 946.13 1053.40 954.67 C 1039.61 955.23 1025.79 954.86 1011.99 954.92 C 961.97 955.07 911.94 954.79 861.92 955.04 C 860.83 952.20 859.62 949.42 858.51 946.60 C 856.05 940.71 853.56 934.84 851.16 928.93 Z" />
</g>
<g id="#9e9b9cff">
<path fill="#9e9b9c" opacity="1.00" d=" M 231.57 930.63 C 234.70 930.14 237.86 929.94 241.03 930.02 C 285.03 930.06 329.02 930.01 373.02 930.04 C 390.20 930.29 407.39 929.60 424.55 930.32 C 420.90 939.63 416.91 948.81 413.05 958.03 C 357.05 957.84 301.04 958.03 245.03 957.94 C 236.85 957.85 228.65 958.28 220.48 957.69 C 224.21 948.69 227.83 939.63 231.57 930.63 Z" />
</g>
<g id="#9914abff">
<path fill="#9914ab" opacity="1.00" d=" M 100.09 940.81 C 138.66 940.86 177.24 940.85 215.81 940.82 C 212.85 948.09 209.76 955.32 206.83 962.61 C 171.28 962.96 135.70 962.63 100.14 962.78 C 99.97 955.46 100.09 948.13 100.09 940.81 Z" />
<path fill="#9914ab" opacity="1.00" d=" M 100.03 1045.20 C 137.48 1045.19 174.92 1045.13 212.36 1045.24 C 209.81 1046.29 207.04 1046.25 204.34 1046.15 C 206.30 1047.88 207.32 1050.75 206.00 1053.19 C 204.20 1056.03 204.46 1059.74 202.02 1062.27 C 203.28 1064.25 205.68 1065.06 207.95 1065.02 C 221.89 1065.04 235.84 1065.02 249.78 1065.15 L 250.10 1065.90 C 200.08 1065.95 150.06 1065.94 100.04 1065.91 C 100.09 1059.01 100.08 1052.10 100.03 1045.20 Z" />
</g>
<g id="#b3257dff">
<path fill="#b3257d" opacity="1.00" d=" M 424.21 960.27 C 426.93 953.82 429.61 947.37 432.21 940.87 C 454.71 940.78 477.21 940.87 499.70 940.83 C 499.43 941.80 499.54 942.80 499.87 943.77 C 500.61 943.27 501.37 942.79 502.14 942.33 C 501.99 944.34 500.58 945.90 499.42 947.45 C 500.20 948.03 500.97 948.64 501.73 949.27 C 500.76 949.86 499.82 950.50 498.82 951.05 C 499.15 953.06 499.40 955.10 499.88 957.10 C 499.19 957.46 498.47 957.77 497.74 958.04 C 498.96 958.79 500.38 959.08 501.78 959.39 C 500.94 960.18 500.14 961.01 499.29 961.81 C 505.61 961.99 511.95 961.77 518.28 962.01 L 517.84 962.71 C 486.29 962.82 454.74 962.71 423.20 962.77 C 423.53 961.92 423.87 961.09 424.21 960.27 Z" />
</g>
<g id="#ba2970ff">
<path fill="#ba2970" opacity="1.00" d=" M 499.70 940.83 C 520.45 940.83 541.19 940.85 561.94 940.82 C 561.30 941.60 560.63 942.36 559.94 943.11 C 560.05 943.51 560.28 944.32 560.40 944.72 C 560.79 944.36 561.57 943.62 561.96 943.25 C 563.15 945.61 560.69 947.41 560.53 949.67 C 560.83 950.81 561.48 951.79 561.91 952.90 C 561.94 954.40 560.17 954.40 559.14 954.73 C 560.67 956.84 560.39 959.55 561.46 961.84 C 547.07 961.81 532.67 962.01 518.28 962.01 C 511.95 961.77 505.61 961.99 499.29 961.81 C 500.14 961.01 500.94 960.18 501.78 959.39 C 500.38 959.08 498.96 958.79 497.74 958.04 C 498.47 957.77 499.19 957.46 499.88 957.10 C 499.40 955.10 499.15 953.06 498.82 951.05 C 499.82 950.50 500.76 949.86 501.73 949.27 C 500.97 948.64 500.20 948.03 499.42 947.45 C 500.58 945.90 501.99 944.34 502.14 942.33 C 501.37 942.79 500.61 943.27 499.87 943.77 C 499.54 942.80 499.43 941.80 499.70 940.83 Z" />
</g>
<g id="#c02d65ff">
<path fill="#c02d65" opacity="1.00" d=" M 561.94 940.82 C 578.64 940.85 595.34 940.84 612.04 940.82 C 611.64 941.23 610.85 942.04 610.46 942.45 C 611.20 944.81 612.80 947.09 612.47 949.67 C 611.90 953.68 613.09 957.70 612.35 961.72 C 615.04 961.74 617.77 961.82 620.35 962.70 C 586.18 962.80 552.01 962.78 517.84 962.71 L 518.28 962.01 C 532.67 962.01 547.07 961.81 561.46 961.84 C 560.39 959.55 560.67 956.84 559.14 954.73 C 560.17 954.40 561.94 954.40 561.91 952.90 C 561.48 951.79 560.83 950.81 560.53 949.67 C 560.69 947.41 563.15 945.61 561.96 943.25 C 561.57 943.62 560.79 944.36 560.40 944.72 C 560.28 944.32 560.05 943.51 559.94 943.11 C 560.63 942.36 561.30 941.60 561.94 940.82 Z" />
</g>
<g id="#c73258ff">
<path fill="#c73258" opacity="1.00" d=" M 612.04 940.82 C 636.73 940.85 661.42 940.83 686.11 940.83 C 686.60 943.60 686.31 946.47 685.26 949.10 C 683.92 951.55 685.79 954.11 686.07 956.63 C 685.34 956.17 684.62 955.71 683.91 955.26 C 684.01 955.87 684.21 957.10 684.31 957.71 C 685.23 958.43 686.11 959.22 687.04 959.98 C 686.31 960.41 685.59 960.83 684.84 961.20 C 687.39 962.31 690.26 961.77 692.96 961.92 C 705.64 961.74 718.31 962.25 730.98 962.06 L 731.02 962.76 C 694.13 962.72 657.23 962.83 620.35 962.70 C 617.77 961.82 615.04 961.74 612.35 961.72 C 613.09 957.70 611.90 953.68 612.47 949.67 C 612.80 947.09 611.20 944.81 610.46 942.45 C 610.85 942.04 611.64 941.23 612.04 940.82 Z" />
</g>
<g id="#cf3749ff">
<path fill="#cf3749" opacity="1.00" d=" M 686.11 940.83 C 711.88 940.85 737.64 940.81 763.41 940.85 C 762.58 942.34 760.23 943.13 760.66 945.14 C 760.86 948.14 759.76 951.47 761.91 954.04 C 761.34 954.39 760.73 954.66 760.08 954.84 C 761.41 956.97 761.70 959.36 760.66 961.70 C 750.77 962.04 740.87 961.82 730.98 962.06 C 718.31 962.25 705.64 961.74 692.96 961.92 C 690.26 961.77 687.39 962.31 684.84 961.20 C 685.59 960.83 686.31 960.41 687.04 959.98 C 686.11 959.22 685.23 958.43 684.31 957.71 C 684.21 957.10 684.01 955.87 683.91 955.26 C 684.62 955.71 685.34 956.17 686.07 956.63 C 685.79 954.11 683.92 951.55 685.26 949.10 C 686.31 946.47 686.60 943.60 686.11 940.83 Z" />
</g>
<g id="#f24e0aff">
<path fill="#f24e0a" opacity="1.00" d=" M 1060.19 940.80 C 1096.43 940.87 1132.67 940.84 1168.91 940.81 C 1168.95 948.13 1168.95 955.45 1168.92 962.76 C 1135.66 962.63 1102.38 963.00 1069.15 962.57 C 1066.38 955.69 1063.48 948.87 1060.70 942.01 L 1060.19 940.80 Z" />
</g>
<g id="#c4c3c4ff">
<path fill="#c4c3c4" opacity="1.00" d=" M 1060.70 942.01 C 1063.48 948.87 1066.38 955.69 1069.15 962.57 C 1075.99 978.92 1082.58 995.39 1089.54 1011.70 C 1084.05 1009.33 1079.50 1004.87 1074.13 1002.08 C 1071.16 995.08 1068.38 988.00 1065.32 981.04 L 1064.74 981.97 C 1063.81 980.24 1063.01 978.46 1062.27 976.66 C 1062.13 976.11 1061.85 975.01 1061.72 974.46 C 1061.69 970.67 1059.71 967.33 1058.21 963.97 L 1057.77 965.08 C 1056.72 963.18 1055.94 961.18 1055.15 959.19 L 1056.39 958.94 C 1055.39 954.76 1053.38 950.95 1051.69 947.04 C 1054.66 945.32 1058.30 944.62 1060.70 942.01 Z" />
</g>
<g id="#474646ff">
<path fill="#474646" opacity="1.00" d=" M 846.67 947.90 C 850.36 946.17 854.60 947.43 858.51 946.60 C 859.62 949.42 860.83 952.20 861.92 955.04 C 864.99 962.36 868.02 969.71 871.05 977.05 C 872.01 979.37 872.95 981.71 873.92 984.04 C 869.79 984.01 865.66 983.93 861.53 984.10 C 858.74 976.94 855.67 969.89 852.79 962.76 C 850.79 957.79 848.68 952.86 846.67 947.90 Z" />
</g>
<g id="#979495ff">
<path fill="#979495" opacity="1.00" d=" M 861.92 955.04 C 911.94 954.79 961.97 955.07 1011.99 954.92 C 1025.79 954.86 1039.61 955.23 1053.40 954.67 C 1054.02 956.15 1054.53 957.68 1055.15 959.19 C 1055.94 961.18 1056.72 963.18 1057.77 965.08 C 1059.31 968.10 1060.46 971.30 1061.72 974.46 C 1061.85 975.01 1062.13 976.11 1062.27 976.66 C 1047.55 977.42 1032.77 976.78 1018.03 977.02 C 969.04 977.04 920.05 976.94 871.05 977.05 C 868.02 969.71 864.99 962.36 861.92 955.04 Z" />
</g>
<g id="#5e5d5dff">
<path fill="#5e5d5d" opacity="1.00" d=" M 416.05 957.46 C 418.89 958.01 421.52 959.25 424.21 960.27 C 423.87 961.09 423.53 961.92 423.20 962.77 C 416.53 979.06 409.72 995.29 403.06 1011.59 C 400.69 1008.45 398.63 1005.09 396.15 1002.04 C 399.76 996.52 401.49 990.07 404.16 984.10 C 408.05 975.19 411.68 966.12 416.05 957.46 Z" />
</g>
<g id="#969394ff">
<path fill="#969394" opacity="1.00" d=" M 214.59 971.96 C 216.52 967.19 218.46 962.42 220.48 957.69 C 228.65 958.28 236.85 957.85 245.03 957.94 C 301.04 958.03 357.05 957.84 413.05 958.03 C 410.63 964.47 407.77 970.74 405.13 977.09 C 363.75 976.99 322.38 976.99 281.00 977.03 C 258.17 976.89 235.34 977.33 212.52 976.79 C 213.22 975.17 213.89 973.55 214.59 971.96 Z" />
</g>
<g id="#4b4a4aff">
<path fill="#4b4a4a" opacity="1.00" d=" M 205.25 966.30 L 205.32 966.36 C 207.64 969.55 212.18 969.14 214.59 971.96 C 213.89 973.55 213.22 975.17 212.52 976.79 C 208.93 985.09 205.87 993.63 202.03 1001.82 C 199.72 1002.79 197.34 1003.63 194.82 1003.76 C 193.83 1007.26 190.33 1008.67 187.25 1009.85 C 193.32 995.37 199.32 980.85 205.25 966.30 Z" />
</g>
<g id="#908d8eff">
<path fill="#908d8e" opacity="1.00" d=" M 202.03 1001.82 C 205.87 993.63 208.93 985.09 212.52 976.79 C 235.34 977.33 258.17 976.89 281.00 977.03 C 322.38 976.99 363.75 976.99 405.13 977.09 C 401.89 985.41 398.12 993.52 394.93 1001.86 C 330.63 1001.72 266.32 1001.82 202.03 1001.82 Z" />
<path fill="#908d8e" opacity="1.00" d=" M 871.05 977.05 C 920.05 976.94 969.04 977.04 1018.03 977.02 C 1032.77 976.78 1047.55 977.42 1062.27 976.66 C 1063.01 978.46 1063.81 980.24 1064.74 981.97 C 1067.70 988.50 1070.23 995.22 1073.11 1001.78 C 1009.16 1001.82 945.22 1001.77 881.28 1001.81 C 878.82 995.89 876.36 989.97 873.92 984.04 C 872.95 981.71 872.01 979.37 871.05 977.05 Z" />
</g>
<g id="#424041ff">
<path fill="#424041" opacity="1.00" d=" M 861.53 984.10 C 865.66 983.93 869.79 984.01 873.92 984.04 C 876.36 989.97 878.82 995.89 881.28 1001.81 C 945.22 1001.77 1009.16 1001.82 1073.11 1001.78 L 1074.13 1002.08 C 1079.50 1004.87 1084.05 1009.33 1089.54 1011.70 C 1089.67 1011.98 1089.91 1012.55 1090.04 1012.83 C 1032.34 1013.09 974.64 1012.87 916.94 1012.94 C 902.40 1012.81 887.83 1013.20 873.31 1012.75 C 869.58 1003.12 865.53 993.61 861.53 984.10 Z" />
<path fill="#424041" opacity="1.00" d=" M 194.82 1003.76 C 197.34 1003.63 199.72 1002.79 202.03 1001.82 C 266.32 1001.82 330.63 1001.72 394.93 1001.86 L 396.15 1002.04 C 398.63 1005.09 400.69 1008.45 403.06 1011.59 C 403.18 1013.31 401.06 1012.88 399.98 1012.95 C 328.65 1012.92 257.31 1012.96 185.98 1012.93 C 186.38 1011.89 186.83 1010.86 187.25 1009.85 C 190.33 1008.67 193.83 1007.26 194.82 1003.76 Z" />
</g>
<g id="#a018a0ff">
<path fill="#a018a0" opacity="1.00" d=" M 212.36 1045.24 C 248.69 1045.14 285.04 1045.16 321.37 1045.24 C 314.25 1047.33 306.71 1045.35 299.43 1046.39 C 297.32 1048.18 297.56 1050.90 297.33 1053.38 C 296.51 1054.68 295.24 1055.62 294.12 1056.67 C 295.37 1056.90 296.63 1057.14 297.89 1057.38 C 297.15 1058.07 296.37 1058.72 295.58 1059.39 C 295.99 1059.94 296.40 1060.50 296.82 1061.09 C 296.51 1062.31 296.13 1063.52 295.66 1064.72 C 290.78 1065.36 285.86 1064.99 280.96 1065.10 C 270.56 1065.14 260.17 1065.36 249.78 1065.15 C 235.84 1065.02 221.89 1065.04 207.95 1065.02 C 205.68 1065.06 203.28 1064.25 202.02 1062.27 C 204.46 1059.74 204.20 1056.03 206.00 1053.19 C 207.32 1050.75 206.30 1047.88 204.34 1046.15 C 207.04 1046.25 209.81 1046.29 212.36 1045.24 Z" />
</g>
<g id="#a81e90ff">
<path fill="#a81e90" opacity="1.00" d=" M 321.37 1045.24 C 352.00 1045.10 382.64 1045.25 413.28 1045.17 C 411.55 1045.52 409.85 1046.00 408.17 1046.54 C 408.71 1047.77 408.79 1049.15 409.33 1050.41 C 407.66 1052.44 408.85 1055.05 408.25 1057.36 C 407.59 1059.98 407.29 1063.10 404.83 1064.74 C 399.92 1065.20 394.98 1064.73 390.06 1064.98 C 385.61 1065.25 381.02 1064.44 376.71 1065.88 C 334.51 1065.98 292.30 1065.95 250.10 1065.90 L 249.78 1065.15 C 260.17 1065.36 270.56 1065.14 280.96 1065.10 C 285.86 1064.99 290.78 1065.36 295.66 1064.72 C 296.13 1063.52 296.51 1062.31 296.82 1061.09 C 296.40 1060.50 295.99 1059.94 295.58 1059.39 C 296.37 1058.72 297.15 1058.07 297.89 1057.38 C 296.63 1057.14 295.37 1056.90 294.12 1056.67 C 295.24 1055.62 296.51 1054.68 297.33 1053.38 C 297.56 1050.90 297.32 1048.18 299.43 1046.39 C 306.71 1045.35 314.25 1047.33 321.37 1045.24 Z" />
</g>
<g id="#b02381ff">
<path fill="#b02381" opacity="1.00" d=" M 408.17 1046.54 C 409.85 1046.00 411.55 1045.52 413.28 1045.17 C 431.59 1045.20 449.90 1045.18 468.20 1045.18 C 468.40 1046.40 468.64 1047.63 468.92 1048.86 C 468.28 1049.61 467.67 1050.38 467.10 1051.19 C 468.00 1051.70 468.92 1052.19 469.86 1052.66 C 468.57 1053.03 467.30 1053.49 465.99 1053.81 C 466.91 1055.42 469.17 1056.93 468.13 1059.01 C 467.78 1060.31 467.33 1061.62 467.09 1062.98 C 467.41 1064.45 469.16 1064.96 470.15 1065.96 C 439.00 1065.86 407.86 1066.03 376.71 1065.88 C 381.02 1064.44 385.61 1065.25 390.06 1064.98 C 394.98 1064.73 399.92 1065.20 404.83 1064.74 C 407.29 1063.10 407.59 1059.98 408.25 1057.36 C 408.85 1055.05 407.66 1052.44 409.33 1050.41 C 408.79 1049.15 408.71 1047.77 408.17 1046.54 Z" />
</g>
<g id="#b72875ff">
<path fill="#b72875" opacity="1.00" d=" M 468.20 1045.18 C 492.83 1045.19 517.45 1045.18 542.08 1045.18 C 542.25 1046.61 542.64 1048.24 541.74 1049.56 C 542.74 1050.38 543.42 1051.51 544.13 1052.61 C 543.21 1052.16 542.27 1051.81 541.35 1051.41 C 541.22 1052.71 541.23 1054.04 541.31 1055.37 C 541.75 1055.47 542.63 1055.68 543.07 1055.78 C 541.88 1056.98 540.72 1058.22 539.46 1059.35 C 540.16 1060.06 540.93 1060.71 541.68 1061.42 C 541.49 1062.53 541.43 1063.67 541.30 1064.82 C 549.49 1065.21 557.70 1064.96 565.90 1065.17 L 566.28 1065.89 C 534.23 1066.01 502.19 1065.86 470.15 1065.96 C 469.16 1064.96 467.41 1064.45 467.09 1062.98 C 467.33 1061.62 467.78 1060.31 468.13 1059.01 C 469.17 1056.93 466.91 1055.42 465.99 1053.81 C 467.30 1053.49 468.57 1053.03 469.86 1052.66 C 468.92 1052.19 468.00 1051.70 467.10 1051.19 C 467.67 1050.38 468.28 1049.61 468.92 1048.86 C 468.64 1047.63 468.40 1046.40 468.20 1045.18 Z" />
</g>
<g id="#bf2c67ff">
<path fill="#bf2c67" opacity="1.00" d=" M 542.08 1045.18 C 560.93 1045.21 579.79 1045.14 598.65 1045.21 C 600.27 1045.52 601.90 1045.88 603.53 1046.27 C 603.20 1046.72 602.89 1047.19 602.60 1047.69 C 605.84 1051.48 603.30 1055.86 601.30 1059.46 C 602.28 1059.91 603.25 1060.41 604.22 1060.95 C 604.13 1061.66 603.95 1063.07 603.86 1063.77 C 601.47 1065.19 598.65 1065.06 595.98 1065.08 C 585.95 1065.01 575.93 1065.43 565.90 1065.17 C 557.70 1064.96 549.49 1065.21 541.30 1064.82 C 541.43 1063.67 541.49 1062.53 541.68 1061.42 C 540.93 1060.71 540.16 1060.06 539.46 1059.35 C 540.72 1058.22 541.88 1056.98 543.07 1055.78 C 542.63 1055.68 541.75 1055.47 541.31 1055.37 C 541.23 1054.04 541.22 1052.71 541.35 1051.41 C 542.27 1051.81 543.21 1052.16 544.13 1052.61 C 543.42 1051.51 542.74 1050.38 541.74 1049.56 C 542.64 1048.24 542.25 1046.61 542.08 1045.18 Z" />
</g>
<g id="#da3f35ff">
<path fill="#da3f35" opacity="1.00" d=" M 784.28 1046.27 C 791.25 1045.53 798.38 1046.94 805.24 1045.21 C 828.83 1045.15 852.42 1045.21 876.01 1045.17 C 875.48 1046.21 875.09 1047.35 874.58 1048.43 C 876.06 1050.85 878.10 1053.79 877.16 1056.76 C 876.36 1056.16 875.58 1055.56 874.81 1054.98 C 872.53 1056.76 876.33 1058.02 877.77 1058.49 C 876.61 1058.75 875.45 1059.04 874.31 1059.30 C 875.15 1060.94 876.19 1062.55 876.49 1064.40 C 870.41 1065.66 864.15 1064.52 858.00 1065.01 C 850.59 1065.49 843.04 1064.35 835.73 1065.88 C 806.40 1065.98 777.05 1065.94 747.72 1065.88 C 752.05 1064.70 756.56 1065.25 760.99 1065.13 C 766.65 1065.02 772.30 1064.87 777.96 1064.99 C 779.63 1064.90 781.46 1065.23 782.94 1064.29 C 782.45 1063.60 781.97 1062.93 781.50 1062.28 C 782.76 1061.57 783.96 1060.77 785.24 1060.09 C 784.30 1059.74 783.36 1059.43 782.44 1059.11 C 783.72 1056.96 783.36 1054.56 783.22 1052.21 C 784.21 1050.36 784.60 1048.35 784.28 1046.27 Z" />
</g>
<g id="#e34425ff">
<path fill="#e34425" opacity="1.00" d=" M 876.01 1045.17 C 906.38 1045.21 936.76 1045.17 967.13 1045.18 C 967.78 1047.61 966.09 1050.09 967.80 1052.31 C 967.33 1052.40 966.37 1052.58 965.90 1052.67 C 966.56 1053.98 967.70 1054.96 968.81 1055.93 C 967.67 1057.69 966.96 1059.70 967.45 1061.82 C 966.81 1062.37 966.20 1062.94 965.60 1063.53 C 965.85 1063.86 966.36 1064.52 966.61 1064.85 C 956.06 1064.96 945.50 1064.99 934.95 1065.05 C 933.48 1065.03 932.09 1065.51 930.70 1065.88 C 899.05 1065.98 867.38 1065.95 835.73 1065.88 C 843.04 1064.35 850.59 1065.49 858.00 1065.01 C 864.15 1064.52 870.41 1065.66 876.49 1064.40 C 876.19 1062.55 875.15 1060.94 874.31 1059.30 C 875.45 1059.04 876.61 1058.75 877.77 1058.49 C 876.33 1058.02 872.53 1056.76 874.81 1054.98 C 875.58 1055.56 876.36 1056.16 877.16 1056.76 C 878.10 1053.79 876.06 1050.85 874.58 1048.43 C 875.09 1047.35 875.48 1046.21 876.01 1045.17 Z" />
</g>
<g id="#eb4918ff">
<path fill="#eb4918" opacity="1.00" d=" M 967.13 1045.18 C 987.32 1045.23 1007.52 1045.13 1027.71 1045.22 C 1033.55 1047.21 1039.77 1045.30 1045.74 1046.35 C 1047.87 1048.27 1045.51 1051.45 1045.06 1053.73 C 1046.06 1053.23 1047.08 1052.75 1048.12 1052.28 C 1047.60 1053.63 1046.91 1054.91 1046.07 1056.10 C 1044.09 1058.56 1045.17 1062.40 1042.59 1064.55 C 1039.03 1065.44 1035.16 1064.35 1031.69 1065.88 C 998.03 1065.98 964.36 1065.94 930.70 1065.88 C 932.09 1065.51 933.48 1065.03 934.95 1065.05 C 945.50 1064.99 956.06 1064.96 966.61 1064.85 C 966.36 1064.52 965.85 1063.86 965.60 1063.53 C 966.20 1062.94 966.81 1062.37 967.45 1061.82 C 966.96 1059.70 967.67 1057.69 968.81 1055.93 C 967.70 1054.96 966.56 1053.98 965.90 1052.67 C 966.37 1052.58 967.33 1052.40 967.80 1052.31 C 966.09 1050.09 967.78 1047.61 967.13 1045.18 Z" />
</g>
</svg>
