<?xml version="1.0" encoding="UTF-8" ?>
<!DOCTYPE svg PUBLIC "-//W3C//DTD SVG 1.1//EN" "http://www.w3.org/Graphics/SVG/1.1/DTD/svg11.dtd">
<svg width="1276pt" height="1276pt" viewBox="0 0 1276 1276" version="1.1" xmlns="http://www.w3.org/2000/svg">
<g id="#ffffffff">
<path fill="#ffffff" opacity="1.00" d=" M 159.03 319.09 C 424.89 319.04 690.75 319.06 956.61 319.09 C 956.55 345.24 956.64 371.39 956.56 397.55 C 1010.37 397.60 1064.19 397.51 1118.00 397.59 C 1117.89 530.60 1117.89 663.62 1117.99 796.63 C 1064.19 796.73 1010.38 796.63 956.58 796.68 C 956.63 823.56 956.55 850.45 956.62 877.34 C 930.04 877.38 903.45 877.28 876.87 877.38 C 876.91 904.22 876.83 931.07 876.91 957.91 C 663.81 957.96 450.70 957.92 237.60 957.93 C 237.63 931.08 237.54 904.23 237.65 877.38 C 211.44 877.29 185.23 877.40 159.02 877.32 C 159.11 691.25 159.08 505.17 159.03 319.09 M 237.59 397.55 C 237.63 530.61 237.55 663.66 237.63 796.71 C 264.18 796.62 290.73 796.68 317.28 796.68 C 317.26 823.57 317.32 850.45 317.25 877.34 C 477.27 877.36 637.29 877.34 797.30 877.35 C 797.28 850.46 797.34 823.58 797.27 796.69 C 823.82 796.63 850.37 796.70 876.92 796.66 C 876.83 770.16 876.91 743.66 876.88 717.17 C 930.35 717.06 983.82 717.16 1037.29 717.12 C 1037.33 637.14 1037.31 557.17 1037.30 477.19 C 983.83 477.22 930.36 477.22 876.89 477.19 C 876.90 450.66 876.82 424.12 876.93 397.58 C 850.38 397.54 823.82 397.56 797.26 397.58 C 797.35 424.12 797.26 450.67 797.31 477.22 C 637.29 477.21 477.28 477.21 317.26 477.22 C 317.30 450.67 317.26 424.11 317.28 397.56 C 290.72 397.55 264.15 397.58 237.59 397.55 Z" />
<path fill="#ffffff" opacity="1.00" d=" M 876.89 557.82 C 903.45 557.78 930.02 557.81 956.58 557.81 C 956.63 584.35 956.55 610.89 956.62 637.44 C 930.04 637.45 903.46 637.49 876.88 637.42 C 876.89 610.88 876.87 584.35 876.89 557.82 Z" />
</g>
<g id="#0f80ffff">
<path fill="#0f80ff" opacity="1.00" d=" M 237.59 397.55 C 264.15 397.58 290.72 397.55 317.28 397.56 C 317.26 424.11 317.30 450.67 317.26 477.22 C 317.33 557.17 317.23 637.13 317.31 717.09 C 344.17 717.18 371.04 717.09 397.90 717.13 C 397.92 743.63 397.85 770.12 397.94 796.62 C 504.50 796.72 611.07 796.68 717.63 796.64 C 717.63 770.13 717.59 743.62 717.65 717.11 C 744.19 717.12 770.73 717.15 797.26 717.10 C 797.35 637.14 797.26 557.18 797.31 477.22 C 797.26 450.67 797.35 424.12 797.26 397.58 C 823.82 397.56 850.38 397.54 876.93 397.58 C 876.82 424.12 876.90 450.66 876.89 477.19 C 930.36 477.22 983.83 477.22 1037.30 477.19 C 1037.31 557.17 1037.33 637.14 1037.29 717.12 C 983.82 717.16 930.35 717.06 876.88 717.17 C 876.91 743.66 876.83 770.16 876.92 796.66 C 850.37 796.70 823.82 796.63 797.27 796.69 C 797.34 823.58 797.28 850.46 797.30 877.35 C 637.29 877.34 477.27 877.36 317.25 877.34 C 317.32 850.45 317.26 823.57 317.28 796.68 C 290.73 796.68 264.18 796.62 237.63 796.71 C 237.55 663.66 237.63 530.61 237.59 397.55 M 876.89 557.82 C 876.87 584.35 876.89 610.88 876.88 637.42 C 903.46 637.49 930.04 637.45 956.62 637.44 C 956.55 610.89 956.63 584.35 956.58 557.81 C 930.02 557.81 903.45 557.78 876.89 557.82 Z" />
</g>
<g id="#0000d4ff">
<path fill="#0000d4" opacity="1.00" d=" M 317.26 477.22 C 477.28 477.21 637.29 477.21 797.31 477.22 C 797.26 557.18 797.35 637.14 797.26 717.10 C 770.73 717.15 744.19 717.12 717.65 717.11 C 717.59 743.62 717.63 770.13 717.63 796.64 C 611.07 796.68 504.50 796.72 397.94 796.62 C 397.85 770.12 397.92 743.63 397.90 717.13 C 371.04 717.09 344.17 717.18 317.31 717.09 C 317.23 637.13 317.33 557.17 317.26 477.22 Z" />
</g>
</svg>
