<?xml version="1.0" encoding="UTF-8" ?>
<!DOCTYPE svg PUBLIC "-//W3C//DTD SVG 1.1//EN" "http://www.w3.org/Graphics/SVG/1.1/DTD/svg11.dtd">
<svg width="1276pt" height="1276pt" viewBox="0 0 1276 1276" version="1.1" xmlns="http://www.w3.org/2000/svg">
<g id="#ff001fff">
<path fill="#ff001f" opacity="1.00" d=" M 302.41 302.64 C 307.32 301.66 313.86 301.28 317.19 305.78 C 319.64 311.12 319.26 317.18 319.54 322.91 C 322.07 370.92 324.56 418.93 327.08 466.94 C 327.15 473.14 327.27 479.52 329.48 485.40 C 331.68 490.18 337.13 492.16 341.99 492.92 C 344.80 493.48 348.77 493.80 349.69 497.13 C 349.99 499.13 350.15 501.36 349.22 503.24 C 347.74 505.65 344.63 506.23 342.02 506.24 C 331.30 506.43 320.62 505.13 309.90 505.22 C 294.26 504.91 278.69 506.65 263.06 506.77 C 259.85 506.80 255.70 507.52 253.51 504.54 C 251.58 500.89 253.48 495.10 257.85 494.33 C 263.39 493.48 269.43 493.46 274.31 490.34 C 277.46 487.55 278.38 483.09 278.71 479.06 C 279.12 465.88 278.06 452.72 277.42 439.56 C 257.91 439.59 238.40 439.57 218.89 439.56 C 214.12 446.28 209.73 453.25 205.28 460.19 C 201.41 466.49 197.43 472.91 195.52 480.12 C 194.46 483.94 196.20 488.58 199.93 490.24 C 205.36 492.39 211.38 492.29 216.89 494.09 C 221.03 495.62 222.11 501.86 218.50 504.51 C 214.34 507.56 208.89 506.21 204.11 506.40 C 191.39 505.33 178.58 504.65 165.84 505.85 C 159.90 506.49 153.93 506.69 147.97 506.85 C 145.61 506.83 142.72 506.74 141.13 504.74 C 139.18 501.26 140.56 496.04 144.31 494.39 C 147.40 493.08 150.76 492.67 154.05 492.20 C 158.88 491.56 163.48 489.33 167.03 486.01 C 173.21 479.70 177.90 472.16 183.05 465.02 C 218.10 415.76 253.25 366.57 288.30 317.30 C 292.29 311.90 295.22 304.38 302.41 302.64 M 228.55 424.70 C 244.77 424.71 260.99 424.71 277.21 424.70 C 276.54 402.16 275.28 379.62 275.11 357.08 C 259.47 379.53 244.18 402.24 228.55 424.70 Z" />
<path fill="#ff001f" opacity="1.00" d=" M 1089.36 302.57 C 1093.53 301.75 1098.29 301.57 1102.04 303.90 C 1105.27 306.11 1105.30 310.48 1105.83 313.98 C 1108.42 367.68 1111.58 421.38 1114.06 475.08 C 1114.74 479.92 1114.90 485.69 1119.01 489.06 C 1122.94 492.44 1128.32 492.63 1133.10 493.92 C 1136.88 494.95 1137.43 499.87 1136.02 502.97 C 1134.56 505.84 1130.90 506.23 1128.04 506.25 C 1116.03 506.33 1104.06 504.89 1092.05 505.24 C 1078.36 505.10 1064.74 506.70 1051.05 506.72 C 1047.47 506.67 1042.96 507.80 1040.31 504.67 C 1038.73 502.07 1039.56 498.67 1041.22 496.32 C 1043.58 493.45 1047.62 494.18 1050.89 493.55 C 1055.19 492.69 1060.54 492.23 1063.01 488.02 C 1066.49 481.60 1065.62 474.00 1065.46 466.98 C 1065.32 457.84 1064.43 448.72 1064.25 439.58 C 1044.65 439.61 1025.06 439.48 1005.46 439.64 C 997.55 452.07 988.27 463.91 982.95 477.76 C 980.80 482.08 982.09 488.09 986.64 490.27 C 991.96 492.24 997.73 492.41 1003.16 493.91 C 1007.26 495.17 1008.84 500.81 1005.90 503.99 C 1003.50 506.12 1000.14 506.64 997.04 506.49 C 987.67 506.65 978.38 505.06 969.01 505.22 C 956.94 504.92 944.98 507.07 932.92 506.81 C 930.58 506.75 927.69 505.74 927.18 503.17 C 926.73 500.06 927.47 496.20 930.54 494.67 C 935.96 491.96 942.43 492.91 947.82 490.10 C 953.67 487.44 957.36 481.97 961.24 477.12 C 999.08 423.71 1037.23 370.51 1075.09 317.11 C 1079.04 311.68 1082.15 304.20 1089.36 302.57 M 1015.28 424.56 C 1031.46 424.87 1047.65 424.67 1063.84 424.66 C 1063.14 402.25 1062.34 379.84 1061.57 357.44 C 1046.05 379.74 1030.90 402.32 1015.28 424.56 Z" />
<path fill="#ff001f" opacity="1.00" d=" M 911.12 306.19 C 920.06 305.33 929.06 305.49 938.02 305.75 C 945.82 306.08 953.68 306.74 961.22 308.87 C 964.19 309.82 967.85 311.50 968.26 315.01 C 966.48 322.87 963.68 330.46 961.28 338.15 C 959.11 344.19 957.80 350.68 954.09 356.02 C 951.18 360.01 944.32 360.90 941.23 356.70 C 937.56 350.37 939.91 342.88 939.82 336.02 C 939.83 331.44 939.92 326.48 937.49 322.42 C 934.96 319.37 930.62 318.96 926.93 318.74 C 908.62 318.57 890.68 324.19 874.56 332.61 C 858.50 340.97 843.46 351.84 832.10 366.06 C 819.30 381.87 810.26 400.80 806.48 420.81 C 803.83 435.45 803.54 450.98 808.74 465.12 C 813.02 476.93 821.42 487.69 833.07 492.91 C 842.05 496.82 852.09 498.56 861.84 497.48 C 866.18 496.92 869.03 493.14 870.24 489.20 C 873.51 479.16 876.80 469.12 879.97 459.05 C 881.68 453.18 883.34 447.23 883.87 441.12 C 884.17 437.29 883.07 432.50 879.17 430.87 C 874.97 429.21 870.44 428.75 866.02 428.08 C 862.44 427.62 860.21 423.30 861.86 420.10 C 863.35 416.62 867.64 415.94 870.99 415.79 C 886.99 415.61 902.91 417.96 918.91 417.45 C 932.61 417.13 946.25 415.24 959.98 415.59 C 962.51 415.76 965.44 417.31 965.74 420.11 C 966.19 423.32 965.00 427.98 961.12 428.22 C 954.17 428.56 945.99 429.49 941.43 435.42 C 936.83 441.38 934.61 448.73 932.65 455.88 C 929.34 467.38 926.53 479.02 922.71 490.37 C 921.29 495.45 918.82 501.17 913.09 502.42 C 895.51 507.36 877.27 510.00 859.04 510.77 C 841.50 511.76 823.71 509.96 807.07 504.17 C 789.45 498.51 773.14 487.82 762.30 472.68 C 754.49 461.75 751.07 448.26 750.63 434.98 C 750.88 415.39 756.41 395.72 767.45 379.44 C 776.47 366.04 788.70 355.16 801.56 345.56 C 817.77 333.72 835.94 324.72 854.93 318.32 C 873.09 312.10 891.95 307.68 911.12 306.19 Z" />
<path fill="#ff001f" opacity="1.00" d=" M 757.52 308.80 C 762.19 308.49 766.98 307.59 771.63 308.49 C 776.08 309.84 775.95 316.11 772.57 318.60 C 766.69 323.00 758.56 321.56 752.45 325.47 C 748.79 327.77 747.29 332.10 746.00 335.99 C 733.76 378.66 721.46 421.31 709.19 463.97 C 707.38 470.54 704.63 477.12 705.31 484.08 C 705.52 486.93 706.77 489.95 709.37 491.42 C 713.72 493.19 718.50 493.15 723.08 493.97 C 728.04 495.08 728.60 502.90 724.13 505.06 C 720.67 506.65 716.69 506.36 712.98 506.48 C 692.31 506.23 671.59 503.69 650.96 506.01 C 645.32 506.65 639.65 506.90 633.99 507.21 C 630.91 507.22 627.26 507.59 624.92 505.18 C 622.09 502.24 624.02 497.16 627.46 495.66 C 632.59 493.35 638.39 493.42 643.63 491.52 C 647.25 490.25 650.44 487.54 651.98 483.99 C 654.26 478.50 655.63 472.70 657.14 466.97 C 669.57 423.96 682.02 380.96 694.42 337.94 C 695.63 334.02 696.38 329.05 693.02 325.94 C 689.74 322.64 684.79 324.43 680.78 323.32 C 677.33 322.49 674.47 318.56 675.86 315.04 C 677.07 311.28 681.33 309.48 685.04 309.64 C 697.71 309.65 710.35 311.39 723.03 310.65 C 734.55 310.78 746.09 310.28 757.52 308.80 Z" />
<path fill="#ff001f" opacity="1.00" d=" M 416.24 310.18 C 420.50 308.12 425.39 308.71 429.96 308.80 C 440.96 309.54 451.98 310.36 463.01 310.17 C 471.67 309.76 480.35 309.57 489.02 309.69 C 490.83 309.61 492.69 310.99 492.72 312.90 C 493.74 354.34 495.02 395.80 495.97 437.25 C 497.98 435.04 499.50 432.45 501.15 429.98 C 522.91 397.14 544.70 364.31 566.47 331.47 C 570.59 325.23 574.88 319.09 578.67 312.64 C 579.90 310.54 582.72 310.38 584.88 309.91 C 593.91 309.08 602.95 310.38 611.99 310.19 C 623.33 309.85 634.68 309.21 646.03 309.49 C 651.71 309.75 651.88 318.13 647.62 320.52 C 642.05 323.71 635.05 322.14 629.54 325.45 C 625.90 327.70 624.70 332.09 623.53 335.93 C 612.57 380.63 601.19 425.24 590.12 469.91 C 589.27 473.87 588.53 477.88 588.52 481.94 C 588.53 485.08 589.56 488.65 592.47 490.29 C 596.50 492.20 601.02 492.51 605.26 493.73 C 610.04 495.28 610.46 502.92 606.12 505.22 C 602.39 507.18 598.07 506.68 594.03 506.62 C 581.63 506.33 569.32 504.31 556.91 504.50 C 544.23 504.25 531.66 506.40 519.00 506.67 C 515.97 506.69 512.52 507.07 509.98 505.08 C 506.35 501.89 508.47 495.38 512.74 493.86 C 516.74 492.56 520.97 492.35 525.11 491.74 C 529.68 491.06 533.81 487.97 535.68 483.73 C 538.80 476.53 539.92 468.71 542.05 461.21 C 551.86 424.74 561.38 388.18 571.37 351.76 C 564.56 360.92 558.47 370.64 551.91 380.00 C 528.44 414.50 504.96 448.99 481.48 483.50 C 477.62 488.94 474.36 494.86 469.77 499.76 C 465.41 504.26 458.18 505.60 452.44 503.22 C 449.08 501.58 448.90 497.36 448.60 494.11 C 447.70 454.04 446.76 413.97 445.82 373.89 C 445.68 366.55 445.31 359.20 445.57 351.86 C 445.30 352.15 444.77 352.75 444.51 353.05 C 436.19 374.74 427.19 396.18 419.45 418.09 C 413.00 436.74 405.85 455.37 403.02 474.99 C 402.20 480.07 402.60 486.58 407.37 489.64 C 412.61 492.08 418.55 492.02 424.17 492.92 C 428.07 493.63 430.30 498.50 428.55 501.99 C 427.11 505.20 423.19 506.31 419.96 506.47 C 410.96 506.58 402.03 505.13 393.04 505.07 C 381.68 505.06 370.33 505.82 358.97 505.88 C 356.49 505.73 353.26 505.51 352.11 502.88 C 350.46 499.24 352.52 494.59 356.39 493.46 C 363.71 491.04 372.52 491.12 378.22 485.18 C 383.17 478.98 385.31 471.16 388.15 463.88 C 403.34 424.64 417.02 384.84 431.50 345.34 C 433.42 340.01 435.94 334.67 435.84 328.88 C 435.15 324.83 430.99 322.43 427.12 322.44 C 422.97 322.25 417.99 322.38 415.11 318.84 C 412.84 316.36 413.10 311.81 416.24 310.18 Z" />
</g>
<g id="#2c9cc8ff">
<path fill="#2c9cc8" opacity="1.00" d=" M 609.54 586.76 C 631.29 584.56 653.95 586.78 673.96 596.04 C 690.34 603.53 704.27 615.81 714.70 630.43 C 731.74 654.37 740.98 683.05 745.19 711.92 C 750.05 745.04 750.66 778.66 749.23 812.06 C 747.77 840.84 744.10 869.76 735.16 897.26 C 729.88 913.30 722.59 928.86 712.27 942.31 C 703.44 953.83 692.23 963.61 679.28 970.25 C 665.33 977.48 649.68 981.03 634.04 981.83 C 616.50 982.67 598.62 980.83 582.12 974.61 C 568.10 969.39 555.36 960.85 545.15 949.93 C 526.19 929.72 515.81 903.11 509.67 876.47 C 503.70 850.44 501.52 823.69 501.03 797.04 C 500.61 754.11 503.11 710.39 516.66 669.35 C 522.90 651.02 531.79 633.27 544.86 618.83 C 561.24 600.26 585.02 589.10 609.54 586.76 M 610.63 592.76 C 587.56 594.92 565.13 605.21 549.46 622.45 C 538.07 634.69 529.87 649.58 523.89 665.11 C 515.69 686.63 511.32 709.40 508.78 732.23 C 506.05 757.70 505.49 783.37 506.42 808.96 C 507.40 832.49 509.91 856.06 515.63 878.95 C 519.83 895.49 525.68 911.76 534.57 926.39 C 542.30 939.19 552.49 950.65 564.96 958.99 C 587.37 974.14 615.65 977.99 642.08 975.05 C 663.41 972.70 684.16 963.56 699.32 948.21 C 712.34 935.26 721.47 918.89 727.88 901.80 C 737.58 875.64 741.75 847.79 743.69 820.07 C 745.68 786.92 745.30 753.55 741.26 720.57 C 737.76 692.18 730.00 663.78 714.34 639.57 C 704.56 624.37 691.16 611.26 674.91 603.13 C 655.20 593.15 632.42 590.60 610.63 592.76 Z" />
<path fill="#2c9cc8" opacity="1.00" d=" M 865.52 586.76 C 886.02 584.70 907.28 586.53 926.43 594.49 C 946.80 602.80 963.57 618.45 975.12 636.98 C 986.05 654.45 993.50 673.99 997.90 694.09 C 1002.62 715.73 1004.61 737.87 1005.48 759.98 C 1006.30 783.33 1006.03 806.74 1004.02 830.03 C 1001.88 853.84 997.92 877.63 990.14 900.30 C 984.49 916.54 976.71 932.23 965.70 945.52 C 955.73 957.61 942.94 967.41 928.46 973.44 C 910.05 981.20 889.65 983.07 869.88 981.52 C 851.23 980.04 832.66 974.44 817.20 963.73 C 804.02 954.73 793.37 942.38 785.37 928.64 C 775.13 911.15 768.88 891.63 764.65 871.89 C 758.72 843.68 756.94 814.76 756.95 785.99 C 757.13 752.36 759.46 718.47 767.80 685.78 C 774.61 659.34 785.86 633.00 805.79 613.75 C 821.74 598.08 843.39 588.97 865.52 586.76 M 866.61 592.76 C 845.92 594.78 825.64 603.09 810.45 617.46 C 795.92 630.98 785.97 648.70 779.12 667.16 C 769.05 694.65 764.89 723.90 763.01 753.00 C 761.35 782.28 761.55 811.74 764.85 840.91 C 767.50 863.50 772.13 886.04 780.84 907.12 C 787.90 924.06 797.98 940.06 811.97 952.12 C 825.57 964.01 842.75 971.42 860.53 974.26 C 878.52 977.02 897.18 976.62 914.78 971.76 C 930.91 967.32 945.78 958.41 957.26 946.23 C 968.55 934.36 976.76 919.87 982.77 904.70 C 990.81 884.16 995.21 862.37 997.81 840.51 C 1000.64 816.14 1001.23 791.55 1000.63 767.03 C 999.99 744.09 998.24 721.09 993.60 698.58 C 989.49 678.49 982.34 658.90 971.52 641.43 C 960.59 623.69 944.72 608.65 925.36 600.55 C 906.94 592.70 886.41 590.80 866.61 592.76 Z" />
<path fill="#2c9cc8" opacity="1.00" d=" M 362.11 594.08 C 363.83 590.19 367.61 587.24 371.94 587.05 C 380.09 586.58 387.80 590.15 394.62 594.26 C 405.87 601.44 417.30 608.33 428.69 615.28 C 433.46 617.66 436.18 622.83 436.35 628.05 C 436.77 638.57 432.88 648.64 429.21 658.32 C 418.27 684.93 402.91 709.39 389.35 734.69 C 407.20 738.00 424.09 746.28 437.48 758.55 C 461.80 780.63 476.00 812.65 478.19 845.24 C 480.02 869.44 477.02 894.45 466.54 916.54 C 453.86 943.01 431.45 965.44 403.70 975.70 C 374.03 986.22 339.51 983.82 312.30 967.64 C 285.54 951.50 265.17 924.70 257.77 894.23 C 253.54 876.47 252.00 857.73 255.83 839.75 C 259.86 819.90 266.68 800.74 273.90 781.86 C 281.18 763.13 289.17 744.69 297.51 726.42 C 306.52 706.39 316.57 686.85 326.18 667.11 C 338.16 642.77 350.11 618.41 362.11 594.08 M 370.41 593.54 C 368.63 594.20 367.31 595.68 366.45 597.33 C 352.67 624.08 339.24 651.02 326.12 678.11 C 306.66 718.47 287.36 759.03 272.25 801.26 C 266.99 816.34 262.08 831.65 259.64 847.47 C 257.62 861.58 259.04 876.02 262.05 889.89 C 268.77 920.40 289.16 947.27 316.07 962.90 C 347.42 980.81 388.61 980.41 419.44 961.52 C 443.10 946.85 461.15 923.22 468.64 896.37 C 474.48 875.54 475.06 853.38 471.47 832.11 C 466.11 800.75 448.28 771.07 421.43 753.59 C 410.43 746.49 397.86 742.03 384.97 739.95 C 382.64 740.08 381.60 737.60 382.85 735.83 C 393.56 715.87 404.96 696.29 415.42 676.20 C 421.95 663.06 428.33 649.56 431.04 635.04 C 431.83 630.20 432.00 623.71 427.01 621.03 C 413.06 612.59 399.84 602.75 384.90 596.05 C 380.36 594.31 375.32 591.93 370.41 593.54 Z" />
<path fill="#2c9cc8" opacity="1.00" d=" M 610.57 610.83 C 629.13 608.72 648.55 610.41 665.67 618.29 C 679.20 624.46 690.71 634.60 699.26 646.69 C 710.36 662.29 717.06 680.57 721.57 699.05 C 729.02 730.42 730.55 762.86 730.05 794.99 C 729.40 824.15 726.76 853.56 718.37 881.61 C 713.44 897.74 706.45 913.51 695.78 926.71 C 687.39 937.15 676.54 945.68 664.16 950.89 C 649.36 957.22 632.91 958.81 616.97 957.65 C 602.09 956.57 587.28 952.36 574.70 944.20 C 560.76 935.32 550.07 922.06 542.57 907.46 C 529.07 880.86 524.11 850.89 521.85 821.43 C 519.96 793.31 520.31 765.02 523.16 736.99 C 525.57 714.82 529.75 692.64 538.11 671.89 C 544.42 656.25 553.42 641.35 566.24 630.20 C 578.55 619.34 594.33 612.79 610.57 610.83 M 616.59 649.81 C 606.95 651.37 597.87 656.05 590.97 662.96 C 580.65 673.20 574.77 686.95 570.74 700.70 C 565.19 720.61 563.43 741.33 562.39 761.91 C 561.48 785.60 561.44 809.39 564.05 832.99 C 565.95 849.54 569.03 866.14 575.40 881.61 C 580.20 893.12 587.17 904.22 597.57 911.44 C 609.01 919.52 623.97 921.61 637.51 918.73 C 648.19 916.44 657.68 909.93 664.32 901.35 C 673.67 889.44 678.74 874.84 682.25 860.28 C 687.24 838.90 688.83 816.88 689.30 794.98 C 689.61 775.92 689.15 756.81 687.08 737.85 C 685.17 720.92 682.10 703.95 675.77 688.07 C 670.84 675.88 663.60 663.99 652.43 656.61 C 642.02 649.59 628.80 647.79 616.59 649.81 Z" />
<path fill="#2c9cc8" opacity="1.00" d=" M 866.59 610.83 C 886.11 608.60 906.65 610.61 924.36 619.60 C 942.78 628.77 956.53 645.35 965.28 663.70 C 974.39 682.68 979.32 703.37 982.32 724.13 C 985.99 750.25 986.66 776.71 985.84 803.05 C 985.00 825.73 982.76 848.46 977.39 870.55 C 973.12 887.89 966.87 904.99 956.84 919.88 C 948.46 932.36 937.03 942.98 923.38 949.43 C 906.22 957.66 886.58 959.29 867.87 957.15 C 851.21 955.23 834.90 948.82 822.11 937.85 C 809.30 927.03 800.14 912.48 793.77 897.10 C 785.15 876.24 780.98 853.84 778.72 831.48 C 776.00 803.04 776.11 774.36 778.31 745.90 C 780.87 716.85 785.92 687.39 799.01 661.06 C 805.85 647.39 815.34 634.80 827.79 625.78 C 839.11 617.48 852.70 612.54 866.59 610.83 M 872.57 649.82 C 862.45 651.45 852.99 656.54 845.96 663.98 C 836.25 674.13 830.64 687.40 826.74 700.71 C 821.27 720.32 819.49 740.71 818.43 760.97 C 817.71 778.64 817.52 796.35 818.49 814.01 C 819.66 834.06 822.07 854.24 828.35 873.40 C 832.63 886.19 838.89 898.81 849.09 907.92 C 866.50 923.62 895.81 924.24 913.46 908.60 C 921.09 901.91 926.53 893.10 930.58 883.89 C 937.27 868.44 940.56 851.76 942.65 835.14 C 945.59 810.54 945.89 785.70 944.86 760.97 C 943.66 737.88 941.15 714.54 933.49 692.59 C 928.66 679.16 921.45 665.81 909.57 657.39 C 899.00 649.76 885.23 647.69 872.57 649.82 Z" />
<path fill="#2c9cc8" opacity="1.00" d=" M 372.74 619.77 C 373.92 617.43 374.66 614.70 376.87 613.10 C 388.29 619.32 399.67 625.61 411.07 631.88 C 413.11 632.61 414.08 634.91 412.74 636.77 C 396.23 671.88 379.67 706.96 363.10 742.04 C 361.43 745.37 359.77 749.53 361.84 753.08 C 363.76 756.16 367.84 755.91 371.00 756.03 C 387.20 756.24 403.41 761.00 416.77 770.25 C 430.73 779.93 441.98 793.45 449.07 808.87 C 457.67 827.61 460.04 848.71 458.49 869.12 C 457.02 888.06 450.64 906.81 438.96 921.92 C 426.56 938.17 408.90 950.71 388.87 955.44 C 370.74 959.67 351.28 958.81 333.81 952.24 C 305.36 941.32 283.13 915.63 276.38 885.92 C 272.90 870.76 272.17 854.80 275.68 839.58 C 282.63 808.34 297.78 779.88 311.09 751.04 C 331.64 707.28 352.21 663.53 372.74 619.77 M 357.47 795.63 C 344.36 797.47 332.86 805.67 325.28 816.31 C 314.48 831.04 311.60 850.25 313.83 868.06 C 316.02 885.69 325.66 902.49 340.44 912.50 C 351.68 920.12 366.30 921.75 379.24 918.12 C 392.65 914.39 403.51 904.27 410.37 892.41 C 418.87 877.55 420.50 859.61 417.82 842.94 C 415.27 826.84 406.17 811.65 392.41 802.72 C 382.21 796.02 369.45 793.85 357.47 795.63 Z" />
<path fill="#2c9cc8" opacity="1.00" d=" M 619.44 673.61 C 627.88 671.94 637.14 673.48 643.98 678.91 C 652.83 685.83 657.66 696.49 661.05 706.93 C 667.04 726.37 668.72 746.82 669.54 767.05 C 670.10 787.68 669.94 808.39 667.66 828.92 C 666.08 842.44 663.72 856.02 658.71 868.74 C 655.46 876.80 650.98 884.73 643.99 890.11 C 633.73 898.12 618.22 897.88 607.84 890.24 C 598.82 883.60 593.74 873.08 590.26 862.71 C 584.38 844.42 582.64 825.11 581.82 806.01 C 581.20 784.96 581.48 763.85 583.29 742.86 C 585.00 725.72 587.35 708.08 595.56 692.67 C 600.41 683.41 608.83 675.39 619.44 673.61 M 620.39 679.59 C 614.80 680.66 609.65 683.64 605.78 687.79 C 598.56 695.60 594.92 705.94 592.44 716.10 C 587.88 736.06 587.09 756.63 586.60 777.03 C 586.33 799.33 586.66 821.80 590.69 843.80 C 593.17 856.30 596.60 869.20 604.67 879.37 C 610.15 886.43 619.10 890.74 628.09 889.88 C 636.44 889.46 643.73 884.09 648.25 877.31 C 655.38 866.69 658.47 854.00 660.75 841.59 C 664.61 818.62 665.00 795.23 664.60 772.00 C 663.98 751.99 662.70 731.77 657.33 712.39 C 654.43 702.54 650.45 692.42 642.68 685.35 C 636.77 679.88 628.19 677.94 620.39 679.59 Z" />
<path fill="#2c9cc8" opacity="1.00" d=" M 875.50 673.59 C 883.92 671.95 893.16 673.49 899.98 678.91 C 909.06 686.02 913.91 697.02 917.30 707.75 C 923.26 727.60 924.86 748.43 925.61 769.04 C 926.13 792.34 925.84 815.77 922.34 838.86 C 920.53 850.26 917.98 861.66 913.22 872.23 C 909.95 879.39 905.47 886.30 898.93 890.88 C 890.06 897.17 877.74 897.57 868.09 892.84 C 859.60 888.58 853.80 880.49 849.92 872.05 C 842.30 855.10 839.93 836.38 838.48 818.02 C 836.93 793.67 837.27 769.20 839.11 744.88 C 840.77 727.29 843.00 709.17 851.23 693.28 C 856.08 683.74 864.62 675.40 875.50 673.59 M 876.43 679.59 C 868.40 681.03 861.68 686.57 857.44 693.37 C 850.41 704.50 847.69 717.67 845.75 730.51 C 843.04 750.22 842.54 770.14 842.51 790.01 C 842.75 811.71 843.62 833.69 849.20 854.78 C 852.19 865.43 856.46 876.49 865.10 883.86 C 874.19 891.72 889.01 892.15 898.14 884.14 C 906.93 876.50 911.06 865.08 914.04 854.15 C 919.74 831.60 920.56 808.18 920.75 785.03 C 920.60 762.09 919.80 738.90 914.42 716.49 C 911.55 705.41 907.63 693.89 899.16 685.78 C 893.23 680.03 884.43 677.88 876.43 679.59 Z" />
<path fill="#2c9cc8" opacity="1.00" d=" M 358.50 819.66 C 367.27 817.97 376.89 819.41 384.24 824.68 C 391.08 829.46 395.96 836.85 397.87 844.97 C 399.81 853.09 399.80 861.72 397.78 869.83 C 395.04 880.80 386.95 890.68 376.11 894.37 C 369.79 896.40 362.80 896.62 356.45 894.64 C 348.32 892.01 341.94 885.56 337.83 878.24 C 332.09 867.70 331.51 854.89 334.59 843.45 C 337.71 832.15 346.70 821.95 358.50 819.66 M 359.44 825.66 C 350.12 827.53 342.76 835.18 339.85 844.05 C 335.57 857.16 337.78 873.13 348.15 882.86 C 355.82 890.67 368.53 891.96 378.11 887.08 C 384.13 883.99 388.93 878.67 391.53 872.44 C 394.39 865.68 394.84 858.11 393.93 850.90 C 393.01 843.42 389.56 836.07 383.63 831.29 C 377.02 825.74 367.79 823.96 359.44 825.66 Z" />
</g>
</svg>
