<?xml version="1.0" encoding="UTF-8" ?>
<!DOCTYPE svg PUBLIC "-//W3C//DTD SVG 1.1//EN" "http://www.w3.org/Graphics/SVG/1.1/DTD/svg11.dtd">
<svg width="1276pt" height="1276pt" viewBox="0 0 1276 1276" version="1.1" xmlns="http://www.w3.org/2000/svg">
<g id="#ff001fff">
<path fill="#ff001f" opacity="1.00" d=" M 302.42 302.64 C 307.33 301.66 313.93 301.28 317.22 305.83 C 319.63 311.16 319.26 317.17 319.54 322.88 C 322.05 370.88 324.58 418.88 327.06 466.88 C 327.21 473.33 327.18 480.08 329.83 486.09 C 332.97 491.66 339.88 492.53 345.54 493.67 C 351.86 494.53 351.34 505.36 345.08 505.90 C 336.75 506.89 328.33 505.65 319.98 505.47 C 299.59 504.35 279.26 506.77 258.88 506.84 C 256.68 506.83 254.09 506.09 253.17 503.89 C 251.88 500.23 253.71 495.00 257.90 494.34 C 263.42 493.46 269.45 493.47 274.30 490.34 C 277.46 487.55 278.38 483.08 278.70 479.05 C 279.14 465.88 278.02 452.73 277.44 439.57 C 257.92 439.57 238.40 439.58 218.87 439.57 C 211.79 450.03 204.56 460.46 198.73 471.68 C 196.74 476.31 193.64 481.74 196.27 486.73 C 198.62 491.37 204.47 491.39 208.90 492.40 C 212.87 493.26 218.45 493.00 220.26 497.51 C 222.22 501.81 218.22 506.14 213.95 506.35 C 203.30 507.09 192.72 505.01 182.06 505.23 C 169.97 504.91 157.97 507.14 145.88 506.77 C 143.79 506.62 141.15 505.88 140.58 503.56 C 139.66 500.39 140.72 496.44 143.68 494.71 C 148.91 492.05 155.15 492.91 160.42 490.38 C 167.81 487.18 172.19 480.02 176.86 473.84 C 213.99 421.34 251.54 369.12 288.72 316.66 C 292.53 311.42 295.49 304.27 302.42 302.64 M 228.53 424.70 C 244.75 424.72 260.98 424.70 277.21 424.71 C 276.53 402.16 275.31 379.62 275.09 357.07 C 259.48 379.54 244.19 402.25 228.53 424.70 Z" />
<path fill="#ff001f" opacity="1.00" d=" M 1080.77 308.82 C 1084.77 302.15 1093.84 300.54 1100.72 303.18 C 1105.37 305.04 1105.41 310.78 1105.92 314.98 C 1108.42 368.36 1111.61 421.71 1114.06 475.07 C 1114.73 479.89 1114.90 485.62 1118.95 489.00 C 1122.70 492.25 1127.84 492.65 1132.48 493.73 C 1138.05 494.67 1138.17 503.97 1132.96 505.53 C 1128.79 506.78 1124.36 506.11 1120.08 506.17 C 1105.09 505.14 1090.05 504.88 1075.05 505.70 C 1065.35 506.41 1055.62 506.70 1045.90 506.84 C 1043.33 506.96 1040.06 505.83 1039.62 502.94 C 1038.93 499.36 1040.93 494.74 1044.89 494.26 C 1049.98 493.60 1055.30 493.32 1059.99 491.03 C 1064.69 488.10 1065.28 481.93 1065.64 476.92 C 1065.76 464.46 1064.63 452.03 1064.24 439.58 C 1044.65 439.61 1025.06 439.49 1005.47 439.64 C 997.53 452.10 988.22 463.96 982.91 477.87 C 980.82 482.17 982.12 488.11 986.64 490.26 C 991.74 492.15 997.25 492.43 1002.52 493.71 C 1006.02 494.47 1008.39 498.48 1007.09 501.90 C 1006.32 504.59 1003.47 505.73 1001.00 506.29 C 990.99 507.14 981.03 505.23 971.02 505.24 C 958.28 504.74 945.64 507.05 932.91 506.80 C 930.58 506.74 927.71 505.75 927.19 503.20 C 926.73 500.11 927.44 496.27 930.46 494.71 C 935.88 491.97 942.36 492.92 947.77 490.12 C 953.60 487.49 957.31 482.06 961.16 477.21 C 988.26 438.98 1015.52 400.85 1042.70 362.67 C 1055.39 344.72 1068.36 326.97 1080.77 308.82 M 1015.27 424.65 C 1031.46 424.76 1047.65 424.72 1063.84 424.67 C 1063.11 402.23 1062.37 379.79 1061.53 357.36 C 1046.16 379.82 1030.78 402.28 1015.27 424.65 Z" />
<path fill="#ff001f" opacity="1.00" d=" M 911.10 306.19 C 926.73 305.15 942.63 305.00 958.06 308.04 C 961.99 308.99 967.46 310.30 968.24 314.99 C 965.76 325.67 961.81 335.96 958.58 346.44 C 957.22 350.18 955.89 354.17 953.10 357.10 C 949.64 360.58 942.52 360.35 940.54 355.42 C 937.63 348.23 940.34 340.44 939.82 332.98 C 939.58 328.50 939.48 322.39 934.69 320.27 C 929.77 318.21 924.26 318.64 919.07 319.02 C 896.38 320.87 875.09 330.71 856.52 343.49 C 831.01 360.99 813.12 388.84 806.83 419.03 C 803.53 435.69 803.30 453.71 810.51 469.42 C 815.20 479.70 823.24 488.75 833.77 493.22 C 842.57 496.89 852.35 498.55 861.85 497.47 C 866.80 496.86 869.51 492.16 870.73 487.79 C 874.93 473.93 880.31 460.38 883.20 446.16 C 884.08 441.47 884.78 435.72 881.05 432.05 C 876.39 428.79 870.32 429.12 865.00 427.80 C 860.99 426.52 860.13 420.78 863.25 418.10 C 866.85 415.31 871.71 415.81 876.00 415.78 C 891.68 416.18 907.34 418.17 923.04 417.31 C 935.36 416.78 947.65 415.26 960.00 415.60 C 962.53 415.77 965.45 417.33 965.74 420.11 C 966.21 423.35 964.97 428.07 961.02 428.22 C 953.88 428.57 945.42 429.62 941.00 435.98 C 935.13 444.03 933.33 454.04 930.55 463.40 C 927.79 473.49 925.13 483.62 921.63 493.49 C 920.60 496.26 919.29 499.20 916.66 500.79 C 914.35 502.20 911.70 502.91 909.11 503.60 C 891.07 507.99 872.56 510.61 853.97 510.94 C 837.81 511.48 821.52 509.26 806.24 503.90 C 788.93 498.19 772.95 487.56 762.27 472.64 C 754.30 461.44 750.88 447.58 750.62 433.98 C 751.10 415.45 756.16 396.90 766.25 381.27 C 775.22 367.23 787.77 355.92 800.99 345.98 C 817.10 334.11 835.19 325.05 854.11 318.61 C 872.52 312.24 891.65 307.71 911.10 306.19 Z" />
<path fill="#ff001f" opacity="1.00" d=" M 757.58 308.79 C 762.22 308.48 766.98 307.61 771.61 308.48 C 776.10 309.82 775.96 316.17 772.53 318.64 C 766.65 322.98 758.55 321.58 752.46 325.47 C 748.82 327.76 747.30 332.06 746.01 335.94 C 733.66 378.97 721.27 422.00 708.88 465.02 C 706.85 472.33 703.52 480.18 706.20 487.74 C 707.99 492.58 713.80 492.63 718.09 493.31 C 720.76 493.79 724.32 493.31 726.00 495.96 C 728.32 498.94 727.16 503.94 723.58 505.35 C 721.15 506.25 718.53 506.31 715.99 506.45 C 700.33 506.65 684.72 504.83 669.06 505.09 C 656.36 504.85 643.79 507.28 631.09 507.22 C 628.67 507.25 625.93 506.70 624.44 504.61 C 622.42 501.71 624.08 497.51 626.99 495.91 C 633.62 492.56 641.97 493.85 648.01 489.11 C 651.33 486.63 652.66 482.59 653.86 478.81 C 665.80 436.43 678.26 394.19 690.41 351.87 C 692.03 345.89 694.12 340.02 695.30 333.93 C 696.07 330.42 694.59 326.36 691.28 324.71 C 687.51 322.84 682.98 324.71 679.24 322.71 C 676.58 321.35 674.66 317.98 675.86 315.04 C 677.20 310.90 682.00 309.33 685.97 309.63 C 698.34 309.77 710.68 311.35 723.06 310.65 C 734.59 310.78 746.13 310.28 757.58 308.79 Z" />
<path fill="#ff001f" opacity="1.00" d=" M 415.62 310.58 C 419.28 308.29 423.83 308.67 427.97 308.72 C 439.30 309.35 450.64 310.36 462.00 310.18 C 471.29 309.87 480.61 309.40 489.90 309.78 C 493.75 310.54 492.70 315.18 492.89 318.02 C 493.78 357.79 495.10 397.55 495.97 437.32 C 500.75 431.18 504.65 424.41 509.07 418.01 C 531.28 384.55 553.48 351.09 575.65 317.60 C 577.58 315.15 578.32 311.17 581.87 310.56 C 587.43 309.04 593.27 309.78 598.96 309.83 C 612.98 310.82 627.00 309.27 641.03 309.41 C 643.92 309.55 647.55 308.73 649.63 311.34 C 651.44 314.06 650.61 318.14 648.14 320.18 C 642.54 323.82 635.21 322.03 629.53 325.46 C 625.92 327.70 624.71 332.05 623.55 335.87 C 612.51 380.91 601.00 425.84 589.91 470.87 C 589.00 476.62 586.95 483.31 590.49 488.57 C 594.45 492.77 600.97 491.94 605.97 494.04 C 610.10 496.08 610.20 502.97 606.18 505.19 C 602.45 507.18 598.10 506.68 594.04 506.63 C 581.65 506.33 569.37 504.31 556.97 504.50 C 544.27 504.25 531.69 506.40 519.02 506.67 C 515.97 506.68 512.49 507.08 509.95 505.06 C 506.37 501.85 508.48 495.37 512.74 493.87 C 516.96 492.45 521.46 492.37 525.82 491.61 C 530.09 490.74 533.87 487.77 535.65 483.78 C 538.81 476.56 539.91 468.70 542.06 461.17 C 551.87 424.65 561.45 388.06 571.38 351.57 C 540.17 397.02 509.30 442.71 478.25 488.26 C 474.08 494.20 470.36 501.83 462.75 503.82 C 458.68 504.67 453.46 504.94 450.41 501.59 C 448.90 499.03 448.67 495.95 448.57 493.05 C 447.62 445.91 446.21 398.78 445.45 351.64 C 443.80 354.17 443.05 357.14 441.89 359.90 C 433.23 381.72 424.44 403.49 416.77 425.68 C 411.14 442.12 405.16 458.65 402.90 475.97 C 402.24 480.80 402.90 486.92 407.48 489.70 C 412.70 492.08 418.58 492.01 424.14 492.93 C 428.06 493.60 430.30 498.49 428.56 501.97 C 427.30 504.92 423.83 506.05 420.90 506.41 C 413.61 506.75 406.37 505.62 399.10 505.31 C 385.73 504.62 372.37 505.88 359.00 505.88 C 356.50 505.74 353.22 505.51 352.09 502.83 C 350.48 499.19 352.55 494.56 356.41 493.46 C 363.73 491.03 372.57 491.12 378.25 485.14 C 383.16 478.98 385.29 471.22 388.11 464.00 C 404.23 422.34 418.66 380.05 434.14 338.15 C 435.33 334.01 437.40 328.63 433.86 325.08 C 429.05 320.30 421.20 324.20 416.15 319.89 C 413.28 317.74 412.52 312.86 415.62 310.58 Z" />
<path fill="#ff001f" opacity="1.00" d=" M 847.22 927.10 C 868.58 923.30 890.36 923.20 912.00 923.32 C 922.98 923.39 933.97 923.11 944.95 923.59 C 956.61 923.94 968.63 924.12 979.67 928.40 C 987.42 931.38 994.39 937.16 997.41 945.08 C 998.67 948.73 999.51 952.52 1000.00 956.36 C 1000.64 966.89 1001.68 978.20 997.04 988.03 C 993.06 996.04 984.04 999.22 975.93 1001.26 C 983.63 1003.11 992.32 1004.78 997.48 1011.40 C 1003.67 1019.14 1003.43 1029.62 1003.68 1039.00 C 1003.21 1048.93 1003.01 1060.07 996.08 1067.96 C 988.09 1077.12 975.50 1079.78 963.97 1081.18 C 940.08 1083.85 916.00 1083.06 892.02 1083.69 C 877.28 1083.55 862.39 1083.76 847.88 1080.84 C 840.47 1079.27 832.90 1076.96 826.98 1072.06 C 819.79 1065.90 817.59 1056.08 816.66 1047.09 C 816.24 1039.78 815.79 1032.44 816.34 1025.13 C 831.61 1025.12 846.89 1025.09 862.16 1025.14 C 861.74 1031.20 860.63 1038.82 865.61 1043.38 C 871.72 1046.95 879.21 1045.91 886.00 1046.11 C 903.65 1046.56 921.32 1046.58 938.96 1045.76 C 944.11 1045.72 950.01 1045.72 954.03 1041.98 C 957.87 1037.71 957.58 1031.24 956.46 1026.00 C 954.19 1020.77 947.75 1020.35 942.85 1019.86 C 924.97 1019.12 907.08 1018.75 889.17 1018.87 C 889.22 1007.65 889.23 996.42 889.16 985.20 C 904.78 985.08 920.40 985.38 936.01 985.06 C 941.81 984.28 949.53 984.68 952.91 978.87 C 954.52 974.56 954.86 969.39 952.81 965.17 C 951.16 961.68 946.91 961.24 943.58 960.65 C 928.26 958.86 912.81 959.53 897.44 959.56 C 887.43 960.60 876.71 957.90 867.27 962.22 C 860.86 965.58 862.56 973.87 862.37 979.82 C 847.10 979.82 831.84 979.78 816.58 979.84 C 816.63 972.31 816.31 964.76 817.26 957.27 C 817.95 951.25 819.41 945.07 823.22 940.21 C 828.90 932.65 838.19 928.85 847.22 927.10 Z" />
<path fill="#ff001f" opacity="1.00" d=" M 1046.44 927.63 C 1059.55 924.06 1073.26 923.93 1086.75 923.38 C 1092.87 923.21 1099.00 923.40 1105.13 923.31 C 1121.08 923.32 1137.04 923.32 1153.00 923.31 C 1164.21 923.52 1175.74 923.45 1186.43 927.35 C 1192.96 929.82 1199.40 933.89 1202.56 940.37 C 1207.51 950.11 1207.26 961.36 1207.67 972.01 C 1207.45 983.69 1207.62 996.15 1201.63 1006.62 C 1198.00 1013.47 1190.86 1017.52 1183.73 1019.86 C 1173.16 1023.30 1161.98 1024.24 1150.95 1024.80 C 1127.91 1026.45 1104.81 1027.40 1081.82 1029.64 C 1077.67 1030.10 1073.21 1030.94 1070.13 1034.00 C 1067.26 1037.06 1067.54 1041.57 1067.38 1045.47 C 1114.90 1045.53 1162.43 1045.48 1209.96 1045.50 C 1209.93 1057.55 1209.91 1069.60 1209.97 1081.66 C 1147.81 1081.67 1085.65 1081.68 1023.49 1081.65 C 1022.82 1065.71 1022.41 1049.73 1023.64 1033.81 C 1024.43 1025.93 1025.49 1017.66 1030.07 1010.96 C 1033.86 1005.00 1040.16 1001.15 1046.68 998.77 C 1055.50 995.63 1064.91 994.78 1074.18 993.93 C 1095.08 992.39 1115.97 990.61 1136.87 989.02 C 1144.25 988.34 1152.06 988.26 1158.79 984.77 C 1162.69 982.78 1162.88 977.82 1162.83 974.01 C 1162.87 969.37 1162.82 963.42 1158.17 960.87 C 1153.20 958.39 1147.45 958.41 1142.03 958.10 C 1127.01 957.89 1112.00 957.97 1096.98 957.95 C 1089.32 958.38 1081.51 958.37 1074.06 960.40 C 1070.23 961.40 1067.96 965.24 1067.72 969.01 C 1067.24 973.79 1067.59 978.61 1067.51 983.41 C 1052.05 983.37 1036.59 983.41 1021.13 983.39 C 1021.25 973.73 1020.78 963.98 1022.61 954.44 C 1023.38 950.21 1024.67 946.07 1026.55 942.21 C 1030.41 934.46 1038.31 929.79 1046.44 927.63 Z" />
</g>
<g id="#989696ff">
<path fill="#989696" opacity="1.00" d=" M 310.04 587.39 C 319.01 586.33 328.06 587.46 337.04 586.53 C 353.46 586.45 369.89 586.48 386.32 586.53 C 391.31 591.29 397.61 594.31 403.94 596.87 C 398.56 596.79 393.17 596.85 387.81 597.39 C 404.97 598.83 422.27 596.73 439.39 598.56 C 433.13 598.91 426.86 599.00 420.61 599.37 C 408.58 599.39 396.53 598.71 384.51 599.36 C 362.53 598.97 340.54 598.50 318.57 599.47 C 308.25 599.71 297.92 599.69 287.63 600.61 C 274.62 601.12 261.58 601.82 248.66 603.50 C 246.13 603.74 243.62 604.12 241.10 604.41 C 234.23 602.82 229.18 597.43 222.77 594.74 C 244.53 590.59 266.75 589.36 288.82 588.07 C 295.89 587.75 302.96 587.35 310.04 587.39 Z" />
</g>
<g id="#8f8e8eff">
<path fill="#8f8e8e" opacity="1.00" d=" M 386.32 586.53 C 433.61 586.71 481.33 584.68 528.05 593.45 C 548.00 597.77 568.18 606.71 580.85 623.30 C 592.53 638.98 596.82 658.95 597.84 678.13 L 598.35 679.05 C 598.66 693.35 599.30 707.72 598.26 722.02 C 572.05 721.77 545.82 722.57 519.62 721.72 C 522.39 721.35 525.16 720.93 527.97 720.88 C 541.28 720.77 554.60 721.08 567.92 720.69 C 564.84 718.93 561.89 716.97 558.98 714.97 C 554.31 711.48 548.12 713.35 542.76 712.58 C 557.26 711.14 571.96 713.36 586.40 711.30 C 586.37 707.50 586.35 703.71 586.35 699.92 C 586.66 687.62 585.62 675.32 583.84 663.15 C 574.62 665.81 565.48 668.74 556.25 671.37 C 555.03 671.20 553.82 671.03 552.63 670.86 C 552.94 665.90 553.05 660.94 552.96 655.97 C 552.81 642.71 553.26 629.44 552.90 616.18 C 546.88 612.27 540.00 610.14 533.28 607.81 C 524.81 604.88 515.80 604.22 507.00 602.88 C 492.55 600.72 477.97 599.71 463.38 599.52 C 455.40 598.85 447.39 598.76 439.39 598.56 C 422.27 596.73 404.97 598.83 387.81 597.39 C 393.17 596.85 398.56 596.79 403.94 596.87 C 397.61 594.31 391.31 591.29 386.32 586.53 Z" />
</g>
<g id="#9e9c9cff">
<path fill="#9e9c9c" opacity="1.00" d=" M 654.19 592.27 C 707.28 592.35 760.37 592.14 813.46 592.40 C 805.70 593.80 797.81 593.06 789.98 593.26 C 778.98 593.40 767.97 593.00 756.98 593.45 C 764.50 596.54 771.51 600.71 778.88 604.14 C 758.25 603.76 737.61 604.17 716.98 604.06 C 700.06 604.18 683.14 603.98 666.23 604.24 C 665.96 615.58 666.79 626.93 666.10 638.27 C 664.14 633.35 665.01 628.01 664.55 622.87 C 664.11 626.86 663.92 630.87 663.85 634.89 C 660.68 633.10 657.46 631.38 654.23 629.72 C 654.17 617.23 654.25 604.75 654.19 592.27 Z" />
</g>
<g id="#949292ff">
<path fill="#949292" opacity="1.00" d=" M 813.46 592.40 C 863.63 592.09 913.82 592.37 963.99 592.29 C 970.68 592.39 977.39 592.01 984.08 592.59 C 990.15 593.01 996.28 592.18 1002.33 593.08 C 1001.24 594.16 1000.16 595.26 999.09 596.36 C 1002.80 598.98 1006.71 601.29 1010.70 603.47 C 1008.95 604.10 1007.22 604.75 1005.46 605.32 C 989.97 605.12 974.50 604.27 959.00 604.63 C 929.68 603.71 900.32 604.33 870.98 604.15 C 846.32 604.16 821.65 604.14 796.99 604.14 C 791.27 604.21 785.51 603.78 779.83 604.57 L 778.88 604.14 C 771.51 600.71 764.50 596.54 756.98 593.45 C 767.97 593.00 778.98 593.40 789.98 593.26 C 797.81 593.06 805.70 593.80 813.46 592.40 Z" />
<path fill="#949292" opacity="1.00" d=" M 507.00 602.88 C 515.80 604.22 524.81 604.88 533.28 607.81 C 540.00 610.14 546.88 612.27 552.90 616.18 C 553.26 629.44 552.81 642.71 552.96 655.97 C 553.05 660.94 552.94 665.90 552.63 670.86 C 553.82 671.03 555.03 671.20 556.25 671.37 C 539.08 676.63 521.81 681.61 504.61 686.76 C 505.93 684.71 507.29 682.54 507.09 679.99 C 506.81 654.29 507.07 628.58 507.00 602.88 Z" />
</g>
<g id="#8c8b8bff">
<path fill="#8c8b8b" opacity="1.00" d=" M 1002.33 593.08 C 1023.50 593.57 1044.87 595.45 1065.22 601.62 C 1082.96 607.12 1099.72 617.09 1111.18 631.93 C 1121.63 645.33 1127.74 661.63 1130.94 678.20 C 1126.89 675.38 1122.67 672.81 1118.40 670.37 C 1117.90 671.28 1117.42 672.19 1116.95 673.12 C 1116.84 672.70 1116.60 671.86 1116.48 671.43 C 1115.44 668.05 1114.32 664.70 1113.15 661.36 C 1111.85 657.82 1110.35 654.36 1108.57 651.04 C 1107.19 648.53 1105.72 646.09 1104.13 643.72 C 1100.75 638.87 1096.97 634.24 1092.48 630.38 C 1088.89 627.31 1085.07 624.52 1080.99 622.16 C 1075.75 619.08 1070.14 616.68 1064.42 614.64 C 1058.19 612.39 1051.74 610.79 1045.24 609.58 C 1036.43 607.92 1027.52 606.70 1018.57 606.22 C 1014.20 605.87 1009.84 605.46 1005.46 605.32 C 1007.22 604.75 1008.95 604.10 1010.70 603.47 C 1006.71 601.29 1002.80 598.98 999.09 596.36 C 1000.16 595.26 1001.24 594.16 1002.33 593.08 Z" />
</g>
<g id="#a19e9eff">
<path fill="#a19e9e" opacity="1.00" d=" M 185.96 604.98 C 197.38 599.44 209.94 597.14 222.25 594.47 L 222.77 594.74 C 229.18 597.43 234.23 602.82 241.10 604.41 C 229.83 605.85 218.59 607.67 207.56 610.41 C 200.43 612.67 193.18 614.87 186.65 618.60 C 178.13 623.38 170.65 630.12 165.23 638.27 C 161.62 636.23 157.94 634.31 154.20 632.51 C 161.77 620.45 172.97 610.78 185.96 604.98 Z" />
<path fill="#a19e9e" opacity="1.00" d=" M 1036.75 731.20 C 1065.70 726.42 1094.60 721.27 1123.57 716.52 C 1123.70 718.19 1123.91 719.86 1124.12 721.54 C 1123.06 730.50 1124.42 739.48 1123.95 748.45 C 1123.44 750.93 1122.83 753.38 1122.28 755.85 C 1105.87 756.25 1089.45 755.85 1073.04 756.01 C 1062.15 755.89 1051.26 756.20 1040.37 755.83 C 1040.06 753.50 1039.75 751.17 1039.44 748.85 C 1038.88 753.89 1038.68 758.97 1038.99 764.04 C 1039.50 773.53 1038.22 783.04 1039.32 792.51 C 1038.54 801.32 1037.97 810.15 1036.87 818.93 C 1036.47 821.67 1035.94 824.40 1035.41 827.14 C 1032.23 823.87 1028.41 821.33 1024.11 819.82 C 1027.24 801.05 1026.51 781.96 1026.56 763.02 C 1026.00 750.08 1025.55 737.07 1023.00 724.33 C 1023.58 724.20 1024.74 723.94 1025.31 723.81 C 1029.16 725.66 1032.72 728.05 1035.77 731.05 C 1036.02 731.09 1036.50 731.16 1036.75 731.20 Z" />
<path fill="#a19e9e" opacity="1.00" d=" M 492.33 816.13 C 514.20 815.95 536.08 816.11 557.95 816.06 C 573.46 816.26 588.99 815.66 604.48 816.38 C 604.36 822.26 604.86 828.13 604.88 834.01 C 606.36 845.87 604.75 857.77 604.59 869.65 C 600.60 867.55 596.66 865.35 592.82 862.98 C 593.11 853.79 593.25 844.58 592.90 835.39 C 592.89 832.95 592.98 830.53 593.06 828.10 C 567.05 827.68 541.04 828.42 515.03 828.32 C 511.53 828.30 508.04 828.42 504.55 828.57 C 504.24 833.97 503.99 839.41 502.79 844.71 C 499.38 840.69 493.15 839.56 491.73 833.86 C 492.19 827.96 492.32 822.05 492.33 816.13 Z" />
</g>
<g id="#afa9a9ff">
<path fill="#afa9a9" opacity="1.00" d=" M 287.63 600.61 C 297.92 599.69 308.25 599.71 318.57 599.47 C 325.40 600.56 332.32 599.91 339.19 600.47 C 335.86 600.86 332.51 601.12 329.17 601.36 C 328.89 622.43 328.99 643.52 329.17 664.60 C 332.66 664.61 336.14 665.03 339.56 665.79 C 324.05 666.52 308.48 666.53 293.02 668.11 C 293.22 646.19 292.66 624.27 293.21 602.37 C 296.18 602.07 299.14 601.76 302.11 601.46 C 297.28 601.34 292.45 600.98 287.63 600.61 Z" />
</g>
<g id="#a9a4a4ff">
<path fill="#a9a4a4" opacity="1.00" d=" M 318.57 599.47 C 340.54 598.50 362.53 598.97 384.51 599.36 C 388.04 599.86 391.58 600.37 395.14 600.67 C 392.48 600.84 389.83 601.05 387.19 601.27 C 386.87 622.28 386.78 643.31 387.18 664.31 C 390.12 664.78 393.04 665.39 395.95 666.06 C 377.16 665.27 358.35 666.25 339.56 665.79 C 336.14 665.03 332.66 664.61 329.17 664.60 C 328.99 643.52 328.89 622.43 329.17 601.36 C 332.51 601.12 335.86 600.86 339.19 600.47 C 332.32 599.91 325.40 600.56 318.57 599.47 Z" />
</g>
<g id="#a29f9fff">
<path fill="#a29f9f" opacity="1.00" d=" M 384.51 599.36 C 396.53 598.71 408.58 599.39 420.61 599.37 C 427.45 600.53 434.41 599.75 441.28 600.55 C 438.28 600.91 435.27 601.17 432.26 601.41 C 431.82 623.21 432.51 645.04 431.94 666.84 C 419.92 667.61 407.96 665.68 395.95 666.06 C 393.04 665.39 390.12 664.78 387.18 664.31 C 386.78 643.31 386.87 622.28 387.19 601.27 C 389.83 601.05 392.48 600.84 395.14 600.67 C 391.58 600.37 388.04 599.86 384.51 599.36 Z" />
</g>
<g id="#999797ff">
<path fill="#999797" opacity="1.00" d=" M 420.61 599.37 C 426.86 599.00 433.13 598.91 439.39 598.56 C 447.39 598.76 455.40 598.85 463.38 599.52 C 477.97 599.71 492.55 600.72 507.00 602.88 C 507.07 628.58 506.81 654.29 507.09 679.99 C 507.29 682.54 505.93 684.71 504.61 686.76 C 501.16 687.80 497.71 688.83 494.25 689.81 C 496.29 696.68 497.73 703.73 498.19 710.90 C 510.00 711.27 521.82 711.01 533.63 710.89 C 551.22 711.41 568.83 710.46 586.40 711.30 C 571.96 713.36 557.26 711.14 542.76 712.58 C 548.12 713.35 554.31 711.48 558.98 714.97 C 561.89 716.97 564.84 718.93 567.92 720.69 C 554.60 721.08 541.28 720.77 527.97 720.88 C 525.16 720.93 522.39 721.35 519.62 721.72 C 511.09 722.42 502.54 722.02 494.00 721.96 C 491.38 721.91 488.81 722.46 486.33 723.23 C 485.93 713.21 485.94 702.64 481.57 693.37 C 478.11 686.54 470.11 684.23 463.12 683.05 C 446.83 680.75 430.41 679.69 413.98 679.19 C 409.30 679.37 404.65 679.10 400.00 678.61 C 378.03 678.58 356.07 678.59 334.10 678.62 C 339.27 677.03 344.74 677.98 350.05 677.79 C 365.74 677.60 381.44 678.02 397.12 677.45 C 386.38 676.20 375.51 677.92 364.79 676.41 C 370.17 675.88 375.59 675.97 380.99 675.69 C 376.62 673.24 372.55 670.12 367.80 668.45 C 361.20 667.33 354.43 668.72 347.81 667.55 C 361.19 666.72 374.61 667.31 388.01 667.14 C 390.68 667.05 393.32 666.53 395.95 666.06 C 407.96 665.68 419.92 667.61 431.94 666.84 C 432.51 645.04 431.82 623.21 432.26 601.41 C 435.27 601.17 438.28 600.91 441.28 600.55 C 434.41 599.75 427.45 600.53 420.61 599.37 Z" />
<path fill="#999797" opacity="1.00" d=" M 1124.12 721.54 C 1125.01 726.06 1125.24 730.67 1125.66 735.26 C 1126.08 731.60 1126.23 727.92 1126.26 724.24 C 1129.69 725.92 1133.12 727.63 1136.52 729.39 C 1136.20 734.94 1137.08 740.45 1136.95 746.00 C 1136.89 756.99 1137.01 767.98 1136.91 778.97 C 1136.21 786.30 1136.61 793.68 1136.53 801.04 C 1135.79 819.23 1135.33 837.47 1133.16 855.59 L 1132.76 856.07 C 1132.44 856.46 1131.79 857.25 1131.46 857.65 C 1128.40 855.86 1125.39 854.02 1122.43 852.10 C 1122.18 854.10 1121.93 856.10 1121.68 858.12 C 1121.31 857.02 1120.97 855.93 1120.66 854.85 C 1121.60 848.76 1122.28 842.63 1122.47 836.47 C 1123.16 831.15 1123.48 825.80 1123.48 820.45 C 1125.02 806.69 1123.97 792.83 1124.32 779.03 C 1124.19 768.84 1124.47 758.64 1123.95 748.45 C 1124.42 739.48 1123.06 730.50 1124.12 721.54 Z" />
</g>
<g id="#b3adadff">
<path fill="#b3adad" opacity="1.00" d=" M 248.66 603.50 C 261.58 601.82 274.62 601.12 287.63 600.61 C 292.45 600.98 297.28 601.34 302.11 601.46 C 299.14 601.76 296.18 602.07 293.21 602.37 C 292.66 624.27 293.22 646.19 293.02 668.11 C 279.62 669.91 265.83 673.84 255.71 683.28 C 255.15 679.55 254.83 675.78 254.92 672.01 C 255.13 649.84 254.74 627.67 255.12 605.51 C 256.40 605.12 257.68 604.75 258.97 604.39 C 255.53 604.14 252.10 603.76 248.66 603.50 Z" />
</g>
<g id="#b9b2b2ff">
<path fill="#b9b2b2" opacity="1.00" d=" M 241.10 604.41 C 243.62 604.12 246.13 603.74 248.66 603.50 C 252.10 603.76 255.53 604.14 258.97 604.39 C 257.68 604.75 256.40 605.12 255.12 605.51 C 254.74 627.67 255.13 649.84 254.92 672.01 C 254.83 675.78 255.15 679.55 255.71 683.28 C 254.18 685.10 252.84 687.08 251.46 689.02 C 245.02 697.60 242.68 708.39 240.56 718.69 C 238.62 728.35 237.95 738.19 237.70 748.02 C 237.10 754.23 237.35 760.47 237.48 766.70 C 228.06 768.85 218.93 772.05 209.64 774.68 C 209.30 772.12 208.99 769.55 208.94 766.97 C 209.07 718.32 208.87 669.66 209.03 621.00 C 209.05 617.43 209.52 613.60 207.56 610.41 C 218.59 607.67 229.83 605.85 241.10 604.41 Z" />
</g>
<g id="#8d8d8dff">
<path fill="#8d8d8d" opacity="1.00" d=" M 666.23 604.24 C 683.14 603.98 700.06 604.18 716.98 604.06 C 737.61 604.17 758.25 603.76 778.88 604.14 L 779.83 604.57 C 742.04 616.28 703.99 627.16 666.13 638.65 L 666.10 638.27 C 666.79 626.93 665.96 615.58 666.23 604.24 Z" />
</g>
<g id="#91e8baff">
<path fill="#91e8ba" opacity="1.00" d=" M 779.83 604.57 C 785.51 603.78 791.27 604.21 796.99 604.14 C 821.65 604.14 846.32 604.16 870.98 604.15 C 900.32 604.33 929.68 603.71 959.00 604.63 C 974.50 604.27 989.97 605.12 1005.46 605.32 C 1009.84 605.46 1014.20 605.87 1018.57 606.22 C 1010.60 609.17 1002.08 609.90 993.86 611.86 C 982.59 614.35 971.32 616.85 959.99 618.98 C 942.02 623.28 923.84 626.58 905.86 630.80 C 892.96 632.99 880.30 636.37 867.42 638.68 C 853.67 641.52 840.03 644.94 826.20 647.38 C 817.73 649.35 809.27 651.33 800.70 652.82 C 769.50 659.75 738.15 665.94 706.97 672.97 C 693.83 675.06 681.03 678.82 667.89 680.90 C 667.34 682.31 666.78 683.73 666.30 685.18 C 666.14 669.67 666.45 654.15 666.13 638.65 C 703.99 627.16 742.04 616.28 779.83 604.57 Z" />
<path fill="#91e8ba" opacity="1.00" d=" M 556.25 671.37 C 565.48 668.74 574.62 665.81 583.84 663.15 C 585.62 675.32 586.66 687.62 586.35 699.92 C 575.38 701.53 564.63 704.32 553.78 706.58 C 547.00 707.69 540.26 709.04 533.63 710.89 C 521.82 711.01 510.00 711.27 498.19 710.90 C 497.73 703.73 496.29 696.68 494.25 689.81 C 497.71 688.83 501.16 687.80 504.61 686.76 C 521.81 681.61 539.08 676.63 556.25 671.37 Z" />
</g>
<g id="#a6e8a8ff">
<path fill="#a6e8a8" opacity="1.00" d=" M 1018.57 606.22 C 1027.52 606.70 1036.43 607.92 1045.24 609.58 C 1026.23 613.94 1007.11 617.81 988.11 622.20 C 973.67 624.76 959.42 628.19 945.08 631.20 C 934.23 632.98 923.64 635.93 912.84 637.88 C 894.58 642.22 876.09 645.45 857.84 649.78 C 828.21 655.28 798.99 662.74 769.38 668.32 C 765.64 668.98 762.02 670.13 758.39 671.20 C 756.29 671.45 754.20 671.73 752.15 672.18 C 751.97 672.22 751.61 672.29 751.43 672.33 C 745.03 674.43 738.28 675.07 731.80 676.85 C 716.81 680.07 701.81 683.23 686.86 686.63 C 679.94 688.14 672.68 688.49 666.18 691.54 C 666.18 689.41 666.21 687.29 666.30 685.18 C 666.78 683.73 667.34 682.31 667.89 680.90 C 681.03 678.82 693.83 675.06 706.97 672.97 C 738.15 665.94 769.50 659.75 800.70 652.82 C 809.27 651.33 817.73 649.35 826.20 647.38 C 840.03 644.94 853.67 641.52 867.42 638.68 C 880.30 636.37 892.96 632.99 905.86 630.80 C 923.84 626.58 942.02 623.28 959.99 618.98 C 971.32 616.85 982.59 614.35 993.86 611.86 C 1002.08 609.90 1010.60 609.17 1018.57 606.22 Z" />
</g>
<g id="#c0e891ff">
<path fill="#c0e891" opacity="1.00" d=" M 988.11 622.20 C 1007.11 617.81 1026.23 613.94 1045.24 609.58 C 1051.74 610.79 1058.19 612.39 1064.42 614.64 C 1054.20 618.05 1043.46 619.44 1033.05 622.14 C 1008.65 626.60 984.60 632.75 960.22 637.30 C 951.40 638.84 942.83 641.45 934.02 642.98 C 906.21 648.81 878.49 655.03 850.63 660.60 C 838.07 663.74 825.35 666.13 812.63 668.51 C 809.46 669.07 806.43 670.18 803.44 671.33 C 788.43 671.51 773.40 671.67 758.39 671.20 C 762.02 670.13 765.64 668.98 769.38 668.32 C 798.99 662.74 828.21 655.28 857.84 649.78 C 876.09 645.45 894.58 642.22 912.84 637.88 C 923.64 635.93 934.23 632.98 945.08 631.20 C 959.42 628.19 973.67 624.76 988.11 622.20 Z" />
</g>
<g id="#bfb7b7ff">
<path fill="#bfb7b7" opacity="1.00" d=" M 186.65 618.60 C 193.18 614.87 200.43 612.67 207.56 610.41 C 209.52 613.60 209.05 617.43 209.03 621.00 C 208.87 669.66 209.07 718.32 208.94 766.97 C 208.99 769.55 209.30 772.12 209.64 774.68 C 189.65 780.86 169.43 786.37 149.55 792.89 L 149.01 793.13 C 149.39 782.30 148.49 771.45 149.45 760.63 C 150.16 749.76 149.47 738.85 149.99 727.97 C 150.00 719.16 151.21 710.39 150.79 701.58 C 151.92 679.96 153.38 657.10 165.23 638.27 C 170.65 630.12 178.13 623.38 186.65 618.60 Z" />
</g>
<g id="#dfdb92ff">
<path fill="#dfdb92" opacity="1.00" d=" M 1033.05 622.14 C 1043.46 619.44 1054.20 618.05 1064.42 614.64 C 1070.14 616.68 1075.75 619.08 1080.99 622.16 C 1076.02 624.68 1070.42 625.06 1065.04 626.07 C 1034.14 633.16 1003.01 639.13 972.09 646.16 C 959.84 648.24 947.82 651.43 935.59 653.59 C 922.75 656.53 909.90 659.45 896.95 661.86 C 888.30 663.42 879.86 665.91 871.19 667.37 C 865.53 668.36 859.96 669.78 854.44 671.35 C 837.44 671.55 820.44 671.48 803.44 671.33 C 806.43 670.18 809.46 669.07 812.63 668.51 C 825.35 666.13 838.07 663.74 850.63 660.60 C 878.49 655.03 906.21 648.81 934.02 642.98 C 942.83 641.45 951.40 638.84 960.22 637.30 C 984.60 632.75 1008.65 626.60 1033.05 622.14 Z" />
</g>
<g id="#ebc193ff">
<path fill="#ebc193" opacity="1.00" d=" M 1080.99 622.16 C 1085.07 624.52 1088.89 627.31 1092.48 630.38 C 1050.55 639.90 1008.36 648.19 966.39 657.48 C 953.45 659.82 940.67 662.89 927.85 665.75 C 919.33 667.27 910.81 668.83 902.51 671.27 C 886.49 671.49 870.46 671.52 854.44 671.35 C 859.96 669.78 865.53 668.36 871.19 667.37 C 879.86 665.91 888.30 663.42 896.95 661.86 C 909.90 659.45 922.75 656.53 935.59 653.59 C 947.82 651.43 959.84 648.24 972.09 646.16 C 1003.01 639.13 1034.14 633.16 1065.04 626.07 C 1070.42 625.06 1076.02 624.68 1080.99 622.16 Z" />
<path fill="#ebc193" opacity="1.00" d=" M 724.87 698.84 C 733.85 697.30 742.54 694.11 751.72 693.73 C 751.71 696.80 751.68 699.87 751.68 702.95 C 744.36 703.71 737.33 705.95 730.13 707.34 C 719.06 709.14 708.25 712.18 697.25 714.34 C 690.10 715.79 682.90 717.02 675.85 718.92 C 672.70 719.65 669.38 720.91 666.19 719.71 C 666.19 717.12 666.21 714.53 666.23 711.95 C 669.41 710.78 672.62 709.65 675.97 709.04 C 692.39 706.23 708.51 701.97 724.87 698.84 Z" />
</g>
<g id="#aba7a7ff">
<path fill="#aba7a7" opacity="1.00" d=" M 663.85 634.89 C 663.92 630.87 664.11 626.86 664.55 622.87 C 665.01 628.01 664.14 633.35 666.10 638.27 L 666.13 638.65 C 666.45 654.15 666.14 669.67 666.30 685.18 C 666.21 687.29 666.18 689.41 666.18 691.54 C 666.21 695.38 666.28 699.23 666.28 703.08 C 666.27 706.03 666.25 708.99 666.23 711.95 C 666.21 714.53 666.19 717.12 666.19 719.71 C 666.26 725.00 666.21 730.29 666.21 735.58 C 666.21 738.12 666.23 740.67 666.24 743.22 C 666.23 746.57 666.30 749.92 666.32 753.27 C 666.17 758.04 666.20 762.81 666.18 767.58 C 666.18 768.64 666.18 769.70 666.20 770.77 C 666.19 775.37 666.51 780.00 665.89 784.58 C 665.15 787.53 664.68 790.54 664.59 793.59 C 661.64 791.87 658.39 790.53 655.87 788.20 C 654.99 786.26 655.26 784.03 655.17 781.97 C 655.37 770.63 655.06 759.29 655.27 747.96 C 655.37 744.15 654.89 740.37 654.34 736.62 C 654.04 700.99 654.33 665.35 654.23 629.72 C 657.46 631.38 660.68 633.10 663.85 634.89 Z" />
<path fill="#aba7a7" opacity="1.00" d=" M 564.91 929.79 C 572.67 925.02 578.84 917.87 582.93 909.77 C 587.21 910.46 591.49 911.12 595.78 911.76 C 589.04 927.16 576.40 940.50 560.29 945.91 C 556.99 944.35 553.86 941.88 550.02 942.07 C 545.77 942.10 541.50 941.96 537.33 941.01 C 542.53 939.36 547.78 937.82 552.83 935.78 C 556.96 934.00 561.06 932.12 564.91 929.79 Z" />
</g>
<g id="#ea9f92ff">
<path fill="#ea9f92" opacity="1.00" d=" M 966.39 657.48 C 1008.36 648.19 1050.55 639.90 1092.48 630.38 C 1096.97 634.24 1100.75 638.87 1104.13 643.72 C 1084.04 647.40 1064.20 652.27 1044.18 656.26 C 1027.86 659.80 1011.47 663.00 995.19 666.74 C 987.19 668.59 978.91 669.37 971.23 672.44 C 961.58 671.90 951.92 671.82 942.26 671.78 C 929.02 670.92 915.75 671.77 902.51 671.27 C 910.81 668.83 919.33 667.27 927.85 665.75 C 940.67 662.89 953.45 659.82 966.39 657.48 Z" />
</g>
<g id="#a8a4a4ff">
<path fill="#a8a4a4" opacity="1.00" d=" M 154.20 632.51 C 157.94 634.31 161.62 636.23 165.23 638.27 C 153.38 657.10 151.92 679.96 150.79 701.58 C 149.74 697.44 149.70 693.18 149.78 688.94 C 150.16 684.15 144.17 680.49 139.90 682.38 C 141.71 665.13 144.88 647.45 154.20 632.51 Z" />
</g>
<g id="#ea92abff">
<path fill="#ea92ab" opacity="1.00" d=" M 1044.18 656.26 C 1064.20 652.27 1084.04 647.40 1104.13 643.72 C 1105.72 646.09 1107.19 648.53 1108.57 651.04 C 1104.15 652.85 1099.48 653.91 1094.80 654.74 C 1070.85 659.69 1046.95 664.94 1023.01 669.94 C 1014.09 672.43 1004.62 672.69 996.01 676.25 C 987.87 674.32 979.56 673.12 971.23 672.44 C 978.91 669.37 987.19 668.59 995.19 666.74 C 1011.47 663.00 1027.86 659.80 1044.18 656.26 Z" />
</g>
<g id="#e892cbff">
<path fill="#e892cb" opacity="1.00" d=" M 1094.80 654.74 C 1099.48 653.91 1104.15 652.85 1108.57 651.04 C 1110.35 654.36 1111.85 657.82 1113.15 661.36 C 1111.03 663.11 1108.55 664.39 1105.80 664.69 C 1098.52 665.80 1091.32 667.31 1084.19 669.12 C 1073.47 671.65 1062.68 673.84 1051.86 675.82 C 1038.81 678.32 1026.01 682.14 1012.81 683.81 C 1007.66 680.40 1001.92 677.97 996.01 676.25 C 1004.62 672.69 1014.09 672.43 1023.01 669.94 C 1046.95 664.94 1070.85 659.69 1094.80 654.74 Z" />
</g>
<g id="#e792e1ff">
<path fill="#e792e1" opacity="1.00" d=" M 1105.80 664.69 C 1108.55 664.39 1111.03 663.11 1113.15 661.36 C 1114.32 664.70 1115.44 668.05 1116.48 671.43 C 1110.85 673.86 1104.74 674.63 1098.81 675.93 C 1079.89 680.09 1060.92 684.03 1041.97 688.04 C 1035.43 689.36 1028.86 690.54 1022.46 692.41 C 1019.52 689.25 1016.38 686.25 1012.81 683.81 C 1026.01 682.14 1038.81 678.32 1051.86 675.82 C 1062.68 673.84 1073.47 671.65 1084.19 669.12 C 1091.32 667.31 1098.52 665.80 1105.80 664.69 Z" />
</g>
<g id="#a09d9dff">
<path fill="#a09d9d" opacity="1.00" d=" M 293.02 668.11 C 308.48 666.53 324.05 666.52 339.56 665.79 C 358.35 666.25 377.16 665.27 395.95 666.06 C 393.32 666.53 390.68 667.05 388.01 667.14 C 374.61 667.31 361.19 666.72 347.81 667.55 C 354.43 668.72 361.20 667.33 367.80 668.45 C 372.55 670.12 376.62 673.24 380.99 675.69 C 375.59 675.97 370.17 675.88 364.79 676.41 C 375.51 677.92 386.38 676.20 397.12 677.45 C 381.44 678.02 365.74 677.60 350.05 677.79 C 344.74 677.98 339.27 677.03 334.10 678.62 L 332.93 679.03 C 322.29 679.41 311.61 679.12 301.01 680.20 C 290.40 680.83 279.62 682.86 270.19 687.96 C 266.99 685.82 263.96 683.16 260.16 682.17 C 257.12 684.26 254.47 686.86 251.46 689.02 C 252.84 687.08 254.18 685.10 255.71 683.28 C 265.83 673.84 279.62 669.91 293.02 668.11 Z" />
</g>
<g id="#908f8fff">
<path fill="#908f8f" opacity="1.00" d=" M 1118.40 670.37 C 1122.67 672.81 1126.89 675.38 1130.94 678.20 C 1134.81 694.94 1136.10 712.24 1136.52 729.39 C 1133.12 727.63 1129.69 725.92 1126.26 724.24 C 1126.23 727.92 1126.08 731.60 1125.66 735.26 C 1125.24 730.67 1125.01 726.06 1124.12 721.54 C 1123.91 719.86 1123.70 718.19 1123.57 716.52 C 1123.21 711.81 1122.86 707.10 1122.35 702.41 C 1121.84 697.67 1121.11 692.97 1120.31 688.28 C 1119.51 683.67 1118.49 679.11 1117.34 674.59 C 1117.24 674.22 1117.05 673.48 1116.95 673.12 C 1117.42 672.19 1117.90 671.28 1118.40 670.37 Z" />
</g>
<g id="#9d9a9aff">
<path fill="#9d9a9a" opacity="1.00" d=" M 752.15 672.18 C 754.20 671.73 756.29 671.45 758.39 671.20 C 773.40 671.67 788.43 671.51 803.44 671.33 C 820.44 671.48 837.44 671.55 854.44 671.35 C 870.46 671.52 886.49 671.49 902.51 671.27 C 915.75 671.77 929.02 670.92 942.26 671.78 C 933.14 672.76 923.97 671.86 914.85 672.62 C 921.20 673.44 927.62 672.82 934.00 673.14 C 937.91 673.30 941.05 675.88 944.38 677.64 C 948.10 679.63 952.01 681.38 955.32 684.07 C 943.58 683.32 931.79 683.93 920.03 683.74 C 868.12 683.73 816.20 683.78 764.29 683.74 L 764.35 683.05 C 773.61 682.36 782.92 683.37 792.18 682.49 C 789.11 680.94 785.90 679.69 782.84 678.14 C 779.01 676.19 775.71 672.86 771.20 672.62 C 764.87 672.07 758.49 672.26 752.15 672.18 Z" />
</g>
<g id="#bc93e9ff">
<path fill="#bc93e9" opacity="1.00" d=" M 1116.48 671.43 C 1116.60 671.86 1116.84 672.70 1116.95 673.12 C 1117.05 673.48 1117.24 674.22 1117.34 674.59 C 1096.96 679.28 1076.45 683.38 1056.02 687.83 C 1045.49 690.20 1034.82 691.91 1024.41 694.76 C 1023.78 693.95 1023.10 693.16 1022.46 692.41 C 1028.86 690.54 1035.43 689.36 1041.97 688.04 C 1060.92 684.03 1079.89 680.09 1098.81 675.93 C 1104.74 674.63 1110.85 673.86 1116.48 671.43 Z" />
</g>
<g id="#a6a2a2ff">
<path fill="#a6a2a2" opacity="1.00" d=" M 751.43 672.33 C 751.61 672.29 751.97 672.22 752.15 672.18 C 758.49 672.26 764.87 672.07 771.20 672.62 C 775.71 672.86 779.01 676.19 782.84 678.14 C 785.90 679.69 789.11 680.94 792.18 682.49 C 782.92 683.37 773.61 682.36 764.35 683.05 L 764.29 683.74 C 763.99 710.65 764.26 737.58 764.16 764.49 C 760.28 763.25 756.73 761.25 753.46 758.86 C 752.35 765.72 753.46 772.67 752.75 779.55 L 751.79 779.88 C 751.75 775.49 751.70 771.11 751.71 766.74 C 751.72 762.07 751.71 757.40 751.71 752.73 C 751.71 751.68 751.72 750.62 751.74 749.59 C 751.80 744.15 751.67 738.71 751.70 733.27 C 751.71 730.64 751.71 728.02 751.71 725.40 C 751.70 723.14 751.69 720.88 751.70 718.64 C 751.73 713.41 751.69 708.18 751.68 702.95 C 751.68 699.87 751.71 696.80 751.72 693.73 C 751.71 690.81 751.70 687.90 751.72 684.99 C 751.77 680.76 751.67 676.54 751.43 672.33 Z" />
<path fill="#a6a2a2" opacity="1.00" d=" M 592.82 862.98 C 596.66 865.35 600.60 867.55 604.59 869.65 C 603.95 884.00 601.61 898.53 595.78 911.76 C 591.49 911.12 587.21 910.46 582.93 909.77 C 590.12 895.30 592.24 878.96 592.82 862.98 Z" />
</g>
<g id="#979595ff">
<path fill="#979595" opacity="1.00" d=" M 914.85 672.62 C 923.97 671.86 933.14 672.76 942.26 671.78 C 951.92 671.82 961.58 671.90 971.23 672.44 C 979.56 673.12 987.87 674.32 996.01 676.25 C 1001.92 677.97 1007.66 680.40 1012.81 683.81 C 1016.38 686.25 1019.52 689.25 1022.46 692.41 C 1023.10 693.16 1023.78 693.95 1024.41 694.76 C 1027.19 698.81 1029.41 703.24 1031.26 707.80 C 1032.87 712.11 1034.08 716.57 1035.08 721.06 C 1035.75 724.42 1036.25 727.80 1036.75 731.20 C 1036.50 731.16 1036.02 731.09 1035.77 731.05 C 1032.72 728.05 1029.16 725.66 1025.31 723.81 C 1024.74 723.94 1023.58 724.20 1023.00 724.33 C 1020.86 713.99 1017.01 703.27 1008.68 696.29 C 999.66 688.63 987.46 686.52 976.05 685.25 C 969.17 684.33 962.23 684.44 955.32 684.07 C 952.01 681.38 948.10 679.63 944.38 677.64 C 941.05 675.88 937.91 673.30 934.00 673.14 C 927.62 672.82 921.20 673.44 914.85 672.62 Z" />
</g>
<g id="#c6e592ff">
<path fill="#c6e592" opacity="1.00" d=" M 731.80 676.85 C 738.28 675.07 745.03 674.43 751.43 672.33 C 751.67 676.54 751.77 680.76 751.72 684.99 C 735.14 687.86 718.86 692.18 702.31 695.25 C 690.39 698.29 678.27 700.35 666.28 703.08 C 666.28 699.23 666.21 695.38 666.18 691.54 C 672.68 688.49 679.94 688.14 686.86 686.63 C 701.81 683.23 716.81 680.07 731.80 676.85 Z" />
</g>
<g id="#92a1e8ff">
<path fill="#92a1e8" opacity="1.00" d=" M 1056.02 687.83 C 1076.45 683.38 1096.96 679.28 1117.34 674.59 C 1118.49 679.11 1119.51 683.67 1120.31 688.28 C 1112.38 689.09 1104.78 691.58 1097.00 693.17 C 1085.16 695.69 1073.19 697.60 1061.41 700.42 C 1051.36 702.86 1041.05 704.35 1031.26 707.80 C 1029.41 703.24 1027.19 698.81 1024.41 694.76 C 1034.82 691.91 1045.49 690.20 1056.02 687.83 Z" />
<path fill="#92a1e8" opacity="1.00" d=" M 711.03 760.98 C 724.60 758.29 738.05 754.91 751.71 752.73 C 751.71 757.40 751.72 762.07 751.71 766.74 C 736.88 769.93 721.93 772.55 707.20 776.20 C 693.42 778.91 679.64 781.71 665.89 784.58 C 666.51 780.00 666.19 775.37 666.20 770.77 C 681.08 767.22 696.08 764.20 711.03 760.98 Z" />
</g>
<g id="#b0ababff">
<path fill="#b0abab" opacity="1.00" d=" M 139.90 682.38 C 144.17 680.49 150.16 684.15 149.78 688.94 C 149.70 693.18 149.74 697.44 150.79 701.58 C 151.21 710.39 150.00 719.16 149.99 727.97 C 149.47 738.85 150.16 749.76 149.45 760.63 C 148.49 771.45 149.39 782.30 149.01 793.13 C 148.75 793.27 148.23 793.56 147.97 793.70 C 147.82 790.67 147.66 787.64 147.49 784.63 C 144.22 782.61 140.89 780.70 137.48 778.92 C 137.09 746.69 138.04 714.53 139.90 682.38 Z" />
<path fill="#b0abab" opacity="1.00" d=" M 752.75 779.55 C 753.46 772.67 752.35 765.72 753.46 758.86 C 756.73 761.25 760.28 763.25 764.16 764.49 C 764.16 792.50 764.17 820.51 764.16 848.52 C 759.83 847.06 755.92 844.68 752.21 842.07 C 752.08 845.33 751.93 848.60 751.79 851.87 C 738.54 852.20 725.28 851.99 712.03 852.07 C 697.13 851.78 682.23 852.38 667.34 851.89 C 664.76 834.68 667.03 817.23 664.97 799.99 C 664.65 798.03 665.41 796.20 666.27 794.51 C 666.84 798.76 667.05 803.05 667.28 807.34 C 682.83 806.73 698.39 807.27 713.95 807.03 C 726.18 806.82 738.43 807.43 750.66 806.85 C 752.36 798.43 752.15 789.81 751.88 781.27 C 751.10 781.12 749.55 780.83 748.77 780.68 C 749.78 780.43 750.78 780.16 751.79 779.88 L 752.75 779.55 Z" />
<path fill="#b0abab" opacity="1.00" d=" M 790.61 863.75 C 832.28 863.72 873.96 863.73 915.63 863.75 C 921.22 868.30 928.56 869.91 933.96 874.73 C 927.76 874.79 921.45 874.12 915.39 875.79 C 913.25 875.94 911.11 876.06 908.98 876.11 C 880.98 875.99 852.98 876.12 824.98 875.97 C 819.11 875.81 812.65 877.08 807.40 873.73 C 801.82 870.37 795.75 867.79 790.61 863.75 Z" />
</g>
<g id="#a7a3a3ff">
<path fill="#a7a3a3" opacity="1.00" d=" M 251.46 689.02 C 254.47 686.86 257.12 684.26 260.16 682.17 C 263.96 683.16 266.99 685.82 270.19 687.96 C 261.93 692.93 257.40 702.11 255.16 711.17 L 254.77 711.92 C 253.54 716.83 252.83 721.86 251.69 726.80 C 251.34 725.24 250.94 723.71 250.54 722.19 C 247.43 722.20 244.33 722.23 241.23 722.32 C 240.99 721.11 240.76 719.90 240.56 718.69 C 242.68 708.39 245.02 697.60 251.46 689.02 Z" />
</g>
<g id="#e4d993ff">
<path fill="#e4d993" opacity="1.00" d=" M 702.31 695.25 C 718.86 692.18 735.14 687.86 751.72 684.99 C 751.70 687.90 751.71 690.81 751.72 693.73 C 742.54 694.11 733.85 697.30 724.87 698.84 C 708.51 701.97 692.39 706.23 675.97 709.04 C 672.62 709.65 669.41 710.78 666.23 711.95 C 666.25 708.99 666.27 706.03 666.28 703.08 C 678.27 700.35 690.39 698.29 702.31 695.25 Z" />
</g>
<g id="#92c0e6ff">
<path fill="#92c0e6" opacity="1.00" d=" M 1097.00 693.17 C 1104.78 691.58 1112.38 689.09 1120.31 688.28 C 1121.11 692.97 1121.84 697.67 1122.35 702.41 C 1110.99 705.52 1099.33 707.26 1087.83 709.73 C 1070.39 714.15 1052.55 716.76 1035.08 721.06 C 1034.08 716.57 1032.87 712.11 1031.26 707.80 C 1041.05 704.35 1051.36 702.86 1061.41 700.42 C 1073.19 697.60 1085.16 695.69 1097.00 693.17 Z" />
</g>
<g id="#a7e8a7ff">
<path fill="#a7e8a7" opacity="1.00" d=" M 553.78 706.58 C 564.63 704.32 575.38 701.53 586.35 699.92 C 586.35 703.71 586.37 707.50 586.40 711.30 C 568.83 710.46 551.22 711.41 533.63 710.89 C 540.26 709.04 547.00 707.69 553.78 706.58 Z" />
</g>
<g id="#92dde5ff">
<path fill="#92dde5" opacity="1.00" d=" M 1087.83 709.73 C 1099.33 707.26 1110.99 705.52 1122.35 702.41 C 1122.86 707.10 1123.21 711.81 1123.57 716.52 C 1094.60 721.27 1065.70 726.42 1036.75 731.20 C 1036.25 727.80 1035.75 724.42 1035.08 721.06 C 1052.55 716.76 1070.39 714.15 1087.83 709.73 Z" />
</g>
<g id="#ea9e92ff">
<path fill="#ea9e92" opacity="1.00" d=" M 730.13 707.34 C 737.33 705.95 744.36 703.71 751.68 702.95 C 751.69 708.18 751.73 713.41 751.70 718.64 C 744.60 719.17 737.80 721.39 730.84 722.73 C 717.87 725.40 704.97 728.48 691.93 730.83 C 683.35 732.36 674.99 735.43 666.21 735.58 C 666.21 730.29 666.26 725.00 666.19 719.71 C 669.38 720.91 672.70 719.65 675.85 718.92 C 682.90 717.02 690.10 715.79 697.25 714.34 C 708.25 712.18 719.06 709.14 730.13 707.34 Z" />
</g>
<g id="#aea9a9ff">
<path fill="#aea9a9" opacity="1.00" d=" M 237.70 748.02 C 237.95 738.19 238.62 728.35 240.56 718.69 C 240.76 719.90 240.99 721.11 241.23 722.32 C 244.33 722.23 247.43 722.20 250.54 722.19 C 250.94 723.71 251.34 725.24 251.69 726.80 C 251.77 729.54 251.26 732.26 251.01 734.99 C 249.24 753.59 249.92 772.30 249.80 790.97 C 249.63 802.02 250.23 813.08 251.59 824.05 C 248.39 820.70 244.39 818.33 240.25 816.34 C 239.73 817.74 239.21 819.14 238.74 820.58 C 238.38 816.47 237.98 812.36 237.76 808.25 C 237.57 804.98 237.47 801.70 237.44 798.43 C 237.40 794.95 237.39 791.46 237.39 787.99 C 237.38 784.69 237.37 781.39 237.37 778.10 C 237.35 774.30 237.42 770.50 237.48 766.70 C 237.35 760.47 237.10 754.23 237.70 748.02 Z" />
<path fill="#aea9a9" opacity="1.00" d=" M 448.23 870.88 C 453.87 870.15 459.54 869.47 465.12 868.24 C 470.74 869.35 475.12 873.23 480.02 875.92 C 470.40 880.43 459.86 882.09 449.41 883.33 C 428.46 881.87 407.40 884.31 386.47 882.78 C 390.89 881.82 395.42 881.55 399.93 881.78 C 394.39 879.05 388.86 876.18 384.05 872.24 C 400.35 871.89 416.65 872.24 432.95 871.96 C 438.05 871.79 443.29 872.54 448.23 870.88 Z" />
</g>
<g id="#ea92a7ff">
<path fill="#ea92a7" opacity="1.00" d=" M 730.84 722.73 C 737.80 721.39 744.60 719.17 751.70 718.64 C 751.69 720.88 751.70 723.14 751.71 725.40 C 732.37 728.64 713.33 733.50 694.06 737.17 C 684.82 739.35 675.51 741.20 666.24 743.22 C 666.23 740.67 666.21 738.12 666.21 735.58 C 674.99 735.43 683.35 732.36 691.93 730.83 C 704.97 728.48 717.87 725.40 730.84 722.73 Z" />
</g>
<g id="#a3aa96ff">
<path fill="#a3aa96" opacity="1.00" d=" M 486.33 723.23 C 488.81 722.46 491.38 721.91 494.00 721.96 C 502.54 722.02 511.09 722.42 519.62 721.72 C 545.82 722.57 572.05 721.77 598.26 722.02 L 598.45 723.42 C 566.66 723.51 534.87 723.43 503.08 723.46 C 497.50 723.36 491.90 723.68 486.33 723.23 Z" />
</g>
<g id="#e992c3ff">
<path fill="#e992c3" opacity="1.00" d=" M 694.06 737.17 C 713.33 733.50 732.37 728.64 751.71 725.40 C 751.71 728.02 751.71 730.64 751.70 733.27 C 743.81 736.50 735.26 737.22 727.00 739.03 C 709.08 742.82 691.27 747.17 673.22 750.31 C 671.23 750.59 669.22 750.72 667.22 750.85 C 666.90 751.65 666.60 752.45 666.32 753.27 C 666.30 749.92 666.23 746.57 666.24 743.22 C 675.51 741.20 684.82 739.35 694.06 737.17 Z" />
</g>
<g id="#e892dbff">
<path fill="#e892db" opacity="1.00" d=" M 727.00 739.03 C 735.26 737.22 743.81 736.50 751.70 733.27 C 751.67 738.71 751.80 744.15 751.74 749.59 C 737.09 752.53 722.51 755.84 707.87 758.83 C 693.96 761.68 680.17 765.12 666.18 767.58 C 666.20 762.81 666.17 758.04 666.32 753.27 C 666.60 752.45 666.90 751.65 667.22 750.85 C 669.22 750.72 671.23 750.59 673.22 750.31 C 691.27 747.17 709.08 742.82 727.00 739.03 Z" />
</g>
<g id="#b8b1b1ff">
<path fill="#b8b1b1" opacity="1.00" d=" M 654.22 855.71 C 654.28 816.01 654.11 776.31 654.34 736.62 C 654.89 740.37 655.37 744.15 655.27 747.96 C 655.06 759.29 655.37 770.63 655.17 781.97 C 655.26 784.03 654.99 786.26 655.87 788.20 C 658.39 790.53 661.64 791.87 664.59 793.59 C 664.68 790.54 665.15 787.53 665.89 784.58 C 666.23 787.87 666.36 791.19 666.27 794.51 C 665.41 796.20 664.65 798.03 664.97 799.99 C 667.03 817.23 664.76 834.68 667.34 851.89 C 682.23 852.38 697.13 851.78 712.03 852.07 C 725.28 851.99 738.54 852.20 751.79 851.87 C 751.93 848.60 752.08 845.33 752.21 842.07 C 755.92 844.68 759.83 847.06 764.16 848.52 C 764.16 853.58 764.18 858.65 764.12 863.72 C 772.95 863.76 781.78 863.72 790.61 863.75 C 795.75 867.79 801.82 870.37 807.40 873.73 C 812.65 877.08 819.11 875.81 824.98 875.97 C 852.98 876.12 880.98 875.99 908.98 876.11 C 911.11 876.06 913.25 875.94 915.39 875.79 C 928.91 877.02 942.45 875.44 955.98 875.07 C 972.39 874.62 989.19 874.07 1004.81 868.49 C 1010.29 866.14 1015.65 863.23 1019.91 858.97 C 1044.94 859.01 1069.98 859.06 1095.02 858.95 C 1102.49 858.90 1109.97 859.27 1117.44 858.78 C 1117.83 857.54 1118.25 856.32 1118.68 855.11 C 1118.88 857.16 1119.10 859.22 1119.25 861.30 C 1117.31 873.16 1114.02 884.84 1108.78 895.68 C 1102.55 894.57 1096.21 894.96 1089.93 895.02 C 958.97 895.06 828.00 894.94 697.04 895.05 C 687.11 894.93 677.18 895.28 667.27 894.82 C 665.02 882.10 666.35 869.12 665.73 856.27 C 661.90 855.98 658.06 855.78 654.22 855.71 Z" />
</g>
<g id="#a6a3a3ff">
<path fill="#a6a3a3" opacity="1.00" d=" M 1038.99 764.04 C 1038.68 758.97 1038.88 753.89 1039.44 748.85 C 1039.75 751.17 1040.06 753.50 1040.37 755.83 C 1051.26 756.20 1062.15 755.89 1073.04 756.01 C 1089.45 755.85 1105.87 756.25 1122.28 755.85 C 1122.83 753.38 1123.44 750.93 1123.95 748.45 C 1124.47 758.64 1124.19 768.84 1124.32 779.03 C 1123.97 792.83 1125.02 806.69 1123.48 820.45 C 1122.31 807.67 1123.33 794.82 1122.78 782.02 C 1122.34 783.26 1121.91 784.50 1121.50 785.76 C 1111.32 786.31 1101.12 785.90 1090.94 786.02 C 1074.43 785.95 1057.93 786.22 1041.43 785.86 C 1041.07 783.53 1040.72 781.21 1040.39 778.89 C 1040.51 783.46 1040.15 788.02 1039.32 792.51 C 1038.22 783.04 1039.50 773.53 1038.99 764.04 Z" />
</g>
<g id="#bb93e9ff">
<path fill="#bb93e9" opacity="1.00" d=" M 707.87 758.83 C 722.51 755.84 737.09 752.53 751.74 749.59 C 751.72 750.62 751.71 751.68 751.71 752.73 C 738.05 754.91 724.60 758.29 711.03 760.98 C 696.08 764.20 681.08 767.22 666.20 770.77 C 666.18 769.70 666.18 768.64 666.18 767.58 C 680.17 765.12 693.96 761.68 707.87 758.83 Z" />
<path fill="#bb93e9" opacity="1.00" d=" M 247.75 856.28 C 248.23 857.17 248.75 858.02 249.30 858.91 C 225.90 863.99 202.44 868.79 179.05 873.91 C 170.70 875.98 162.05 876.88 153.90 879.70 C 153.75 878.83 153.60 877.97 153.45 877.12 L 153.33 876.41 C 176.60 872.01 199.68 866.62 222.87 861.82 C 231.14 859.84 239.59 858.70 247.75 856.28 Z" />
</g>
<g id="#9de8afff">
<path fill="#9de8af" opacity="1.00" d=" M 209.64 774.68 C 218.93 772.05 228.06 768.85 237.48 766.70 C 237.42 770.50 237.35 774.30 237.37 778.10 C 227.12 780.22 216.82 782.10 206.65 784.58 C 196.03 786.35 185.69 789.41 175.09 791.24 C 166.52 792.98 157.93 794.63 149.48 796.90 C 149.50 795.55 149.52 794.21 149.55 792.89 C 169.43 786.37 189.65 780.86 209.64 774.68 Z" />
</g>
<g id="#92bde7ff">
<path fill="#92bde7" opacity="1.00" d=" M 707.20 776.20 C 721.93 772.55 736.88 769.93 751.71 766.74 C 751.70 771.11 751.75 775.49 751.79 779.88 C 750.78 780.16 749.78 780.43 748.77 780.68 C 721.24 785.10 693.82 790.26 666.27 794.51 C 666.36 791.19 666.23 787.87 665.89 784.58 C 679.64 781.71 693.42 778.91 707.20 776.20 Z" />
</g>
<g id="#b8e898ff">
<path fill="#b8e898" opacity="1.00" d=" M 206.65 784.58 C 216.82 782.10 227.12 780.22 237.37 778.10 C 237.37 781.39 237.38 784.69 237.39 787.99 C 232.41 789.20 227.44 790.53 222.40 791.45 C 208.83 793.85 195.55 797.68 181.95 799.93 C 171.03 801.88 160.35 804.89 149.44 806.88 C 149.43 803.55 149.44 800.22 149.48 796.90 C 157.93 794.63 166.52 792.98 175.09 791.24 C 185.69 789.41 196.03 786.35 206.65 784.58 Z" />
</g>
<g id="#b8b1b2ff">
<path fill="#b8b1b2" opacity="1.00" d=" M 137.48 778.92 C 140.89 780.70 144.22 782.61 147.49 784.63 C 147.66 787.64 147.82 790.67 147.97 793.70 C 148.23 793.56 148.75 793.27 149.01 793.13 L 149.55 792.89 C 149.52 794.21 149.50 795.55 149.48 796.90 C 149.44 800.22 149.43 803.55 149.44 806.88 C 149.45 810.29 149.44 813.70 149.42 817.12 C 149.40 820.71 149.46 824.30 149.58 827.90 C 149.59 828.42 149.63 829.46 149.64 829.98 C 149.24 830.54 148.84 831.12 148.44 831.71 C 148.12 830.30 147.80 828.90 147.49 827.52 C 144.17 825.97 140.84 824.45 137.51 822.95 C 137.65 819.27 136.95 815.63 136.99 811.97 C 137.92 800.98 137.32 789.93 137.48 778.92 Z" />
</g>
<g id="#aca7a7ff">
<path fill="#aca7a7" opacity="1.00" d=" M 1040.39 778.89 C 1040.72 781.21 1041.07 783.53 1041.43 785.86 C 1057.93 786.22 1074.43 785.95 1090.94 786.02 C 1101.12 785.90 1111.32 786.31 1121.50 785.76 C 1121.91 784.50 1122.34 783.26 1122.78 782.02 C 1123.33 794.82 1122.31 807.67 1123.48 820.45 C 1123.48 825.80 1123.16 831.15 1122.47 836.47 C 1121.94 831.28 1121.73 826.07 1121.94 820.87 C 1118.38 821.92 1114.66 822.25 1110.97 822.07 C 1087.07 821.89 1063.16 822.13 1039.26 821.97 C 1038.45 820.94 1037.65 819.93 1036.87 818.93 C 1037.97 810.15 1038.54 801.32 1039.32 792.51 C 1040.15 788.02 1040.51 783.46 1040.39 778.89 Z" />
</g>
<g id="#aba6a6ff">
<path fill="#aba6a6" opacity="1.00" d=" M 666.27 794.51 C 693.82 790.26 721.24 785.10 748.77 780.68 C 749.55 780.83 751.10 781.12 751.88 781.27 C 752.15 789.81 752.36 798.43 750.66 806.85 C 738.43 807.43 726.18 806.82 713.95 807.03 C 698.39 807.27 682.83 806.73 667.28 807.34 C 667.05 803.05 666.84 798.76 666.27 794.51 Z" />
<path fill="#aba6a6" opacity="1.00" d=" M 311.16 883.21 C 324.09 882.87 337.03 883.31 349.97 883.07 C 359.82 883.36 369.71 882.06 379.51 883.43 C 375.35 884.07 371.13 884.40 366.92 884.16 C 368.80 890.27 367.90 896.70 368.05 902.99 C 368.02 918.26 368.16 933.55 367.90 948.83 C 362.22 948.93 356.52 948.89 350.86 949.49 C 368.92 949.98 386.99 949.75 405.05 949.96 C 410.86 949.99 416.67 950.15 422.48 949.75 C 431.71 950.58 440.97 949.79 450.22 950.25 L 451.81 950.94 C 409.56 951.40 367.30 950.65 325.05 950.61 C 319.82 950.66 314.59 950.64 309.37 950.35 C 310.06 948.64 310.86 946.91 310.90 945.04 C 311.18 924.44 310.57 903.81 311.16 883.21 Z" />
</g>
<g id="#d7de92ff">
<path fill="#d7de92" opacity="1.00" d=" M 222.40 791.45 C 227.44 790.53 232.41 789.20 237.39 787.99 C 237.39 791.46 237.40 794.95 237.44 798.43 C 235.44 799.18 233.43 799.91 231.35 800.43 C 211.51 804.30 191.87 809.14 172.03 813.01 C 164.49 814.38 157.08 816.49 149.42 817.12 C 149.44 813.70 149.45 810.29 149.44 806.88 C 160.35 804.89 171.03 801.88 181.95 799.93 C 195.55 797.68 208.83 793.85 222.40 791.45 Z" />
</g>
<g id="#ecca93ff">
<path fill="#ecca93" opacity="1.00" d=" M 231.35 800.43 C 233.43 799.91 235.44 799.18 237.44 798.43 C 237.47 801.70 237.57 804.98 237.76 808.25 C 228.29 812.15 217.95 812.65 208.13 815.21 C 200.45 816.91 192.83 818.88 185.09 820.31 C 173.14 822.30 161.42 825.39 149.58 827.90 C 149.46 824.30 149.40 820.71 149.42 817.12 C 157.08 816.49 164.49 814.38 172.03 813.01 C 191.87 809.14 211.51 804.30 231.35 800.43 Z" />
</g>
<g id="#eaa592ff">
<path fill="#eaa592" opacity="1.00" d=" M 208.13 815.21 C 217.95 812.65 228.29 812.15 237.76 808.25 C 237.98 812.36 238.38 816.47 238.74 820.58 C 238.79 821.50 238.86 822.43 238.95 823.37 C 223.78 825.50 209.03 830.01 193.96 832.77 C 179.63 835.23 165.59 839.08 151.29 841.66 C 150.92 842.51 150.57 843.37 150.22 844.25 C 149.85 839.50 149.73 834.73 149.64 829.98 C 149.63 829.46 149.59 828.42 149.58 827.90 C 161.42 825.39 173.14 822.30 185.09 820.31 C 192.83 818.88 200.45 816.91 208.13 815.21 Z" />
</g>
<g id="#b4aeaeff">
<path fill="#b4aeae" opacity="1.00" d=" M 240.25 816.34 C 244.39 818.33 248.39 820.70 251.59 824.05 C 253.29 835.71 255.55 848.35 263.86 857.29 C 274.95 867.50 290.80 868.67 305.09 869.69 C 312.02 870.50 319.00 870.33 325.96 870.76 C 366.71 870.87 407.47 870.65 448.23 870.88 C 443.29 872.54 438.05 871.79 432.95 871.96 C 416.65 872.24 400.35 871.89 384.05 872.24 C 388.86 876.18 394.39 879.05 399.93 881.78 C 395.42 881.55 390.89 881.82 386.47 882.78 C 384.15 883.01 381.83 883.23 379.51 883.43 C 369.71 882.06 359.82 883.36 349.97 883.07 C 337.03 883.31 324.09 882.87 311.16 883.21 C 310.57 903.81 311.18 924.44 310.90 945.04 C 310.86 946.91 310.06 948.64 309.37 950.35 C 303.45 949.96 297.51 949.80 291.59 950.24 C 281.06 949.35 270.49 949.18 259.99 947.97 C 252.27 947.29 244.61 946.13 236.91 945.35 C 235.37 938.99 236.12 932.43 236.01 925.97 C 235.97 906.78 236.35 887.58 235.77 868.41 C 241.77 867.33 247.79 866.45 253.76 865.24 C 252.25 863.14 250.71 861.07 249.30 858.91 C 248.75 858.02 248.23 857.17 247.75 856.28 C 246.49 853.77 245.37 851.21 244.40 848.60 C 242.61 843.55 241.28 838.35 240.27 833.10 C 239.70 829.87 239.28 826.62 238.95 823.37 C 238.86 822.43 238.79 821.50 238.74 820.58 C 239.21 819.14 239.73 817.74 240.25 816.34 Z" />
</g>
<g id="#b2acacff">
<path fill="#b2acac" opacity="1.00" d=" M 1036.87 818.93 C 1037.65 819.93 1038.45 820.94 1039.26 821.97 C 1063.16 822.13 1087.07 821.89 1110.97 822.07 C 1114.66 822.25 1118.38 821.92 1121.94 820.87 C 1121.73 826.07 1121.94 831.28 1122.47 836.47 C 1122.28 842.63 1121.60 848.76 1120.66 854.85 C 1120.23 857.00 1119.67 859.14 1119.25 861.30 C 1119.10 859.22 1118.88 857.16 1118.68 855.11 C 1118.25 856.32 1117.83 857.54 1117.44 858.78 C 1109.97 859.27 1102.49 858.90 1095.02 858.95 C 1069.98 859.06 1044.94 859.01 1019.91 858.97 C 1028.61 850.58 1033.39 838.88 1035.41 827.14 C 1035.94 824.40 1036.47 821.67 1036.87 818.93 Z" />
<path fill="#b2acac" opacity="1.00" d=" M 498.43 947.39 C 511.52 946.11 524.53 944.05 537.33 941.01 C 541.50 941.96 545.77 942.10 550.02 942.07 C 553.86 941.88 556.99 944.35 560.29 945.91 L 560.91 946.21 C 556.31 947.87 551.75 949.63 547.11 951.15 C 520.92 958.68 493.60 960.99 466.50 962.37 C 468.31 961.72 470.09 961.00 471.88 960.30 C 467.48 957.78 463.03 955.34 458.88 952.41 C 461.28 952.09 463.69 951.78 466.09 951.47 C 461.34 951.12 456.57 951.22 451.81 950.94 L 450.22 950.25 C 466.30 949.56 482.45 949.61 498.43 947.39 Z" />
</g>
<g id="#a5a1a1ff">
<path fill="#a5a1a1" opacity="1.00" d=" M 1024.11 819.82 C 1028.41 821.33 1032.23 823.87 1035.41 827.14 C 1033.39 838.88 1028.61 850.58 1019.91 858.97 C 1015.65 863.23 1010.29 866.14 1004.81 868.49 C 1003.97 868.13 1003.15 867.77 1002.36 867.41 C 1002.63 867.06 1003.17 866.36 1003.44 866.01 C 999.86 863.74 996.27 861.49 992.70 859.24 C 1000.96 857.27 1009.39 853.65 1014.56 846.60 C 1020.12 838.74 1022.54 829.18 1024.11 819.82 Z" />
</g>
<g id="#bcb6b6ff">
<path fill="#bcb6b6" opacity="1.00" d=" M 137.51 822.95 C 140.84 824.45 144.17 825.97 147.49 827.52 C 147.80 828.90 148.12 830.30 148.44 831.71 C 148.84 831.12 149.24 830.54 149.64 829.98 C 149.73 834.73 149.85 839.50 150.22 844.25 C 150.32 846.86 150.53 849.49 150.75 852.11 C 151.27 858.48 151.67 864.86 152.61 871.20 C 152.80 872.93 153.05 874.66 153.33 876.41 L 153.45 877.12 C 149.27 874.51 145.50 870.71 140.33 870.33 L 139.94 870.25 C 138.43 854.53 137.07 838.76 137.51 822.95 Z" />
</g>
<g id="#eb929eff">
<path fill="#eb929e" opacity="1.00" d=" M 193.96 832.77 C 209.03 830.01 223.78 825.50 238.95 823.37 C 239.28 826.62 239.70 829.87 240.27 833.10 C 218.76 837.74 197.22 842.21 175.70 846.79 C 167.49 849.05 159.01 850.08 150.75 852.11 C 150.53 849.49 150.32 846.86 150.22 844.25 C 150.57 843.37 150.92 842.51 151.29 841.66 C 165.59 839.08 179.63 835.23 193.96 832.77 Z" />
</g>
<g id="#949393ff">
<path fill="#949393" opacity="1.00" d=" M 504.55 828.57 C 508.04 828.42 511.53 828.30 515.03 828.32 C 541.04 828.42 567.05 827.68 593.06 828.10 C 592.98 830.53 592.89 832.95 592.90 835.39 C 592.50 833.30 591.98 831.23 591.49 829.17 C 575.62 829.07 559.72 828.88 543.86 829.59 C 546.86 829.86 549.86 830.10 552.87 830.32 C 553.07 865.47 552.99 900.63 552.83 935.78 C 547.78 937.82 542.53 939.36 537.33 941.01 C 524.53 944.05 511.52 946.11 498.43 947.39 C 495.24 947.17 492.07 946.80 488.89 946.49 C 491.21 946.17 493.53 945.86 495.85 945.55 C 496.37 922.69 495.76 899.82 496.08 876.96 C 496.13 873.45 495.96 869.94 495.78 866.45 C 493.98 867.54 492.16 868.59 490.32 869.63 C 493.66 865.78 496.97 861.77 498.97 857.04 C 500.64 853.06 501.71 848.87 502.79 844.71 C 503.99 839.41 504.24 833.97 504.55 828.57 Z" />
</g>
<g id="#8e8e8eff">
<path fill="#8e8e8e" opacity="1.00" d=" M 543.86 829.59 C 559.72 828.88 575.62 829.07 591.49 829.17 C 591.98 831.23 592.50 833.30 592.90 835.39 C 593.25 844.58 593.11 853.79 592.82 862.98 C 592.24 878.96 590.12 895.30 582.93 909.77 C 578.84 917.87 572.67 925.02 564.91 929.79 C 561.06 932.12 556.96 934.00 552.83 935.78 C 552.99 900.63 553.07 865.47 552.87 830.32 C 549.86 830.10 546.86 829.86 543.86 829.59 Z" />
</g>
<g id="#e992caff">
<path fill="#e992ca" opacity="1.00" d=" M 175.70 846.79 C 197.22 842.21 218.76 837.74 240.27 833.10 C 241.28 838.35 242.61 843.55 244.40 848.60 C 226.55 853.23 208.22 855.70 190.36 860.30 C 183.29 862.28 175.91 862.74 168.82 864.65 C 163.65 865.99 158.38 866.87 153.10 867.64 C 152.92 868.81 152.76 870.00 152.61 871.20 C 151.67 864.86 151.27 858.48 150.75 852.11 C 159.01 850.08 167.49 849.05 175.70 846.79 Z" />
</g>
<g id="#a9a5a5ff">
<path fill="#a9a5a5" opacity="1.00" d=" M 491.73 833.86 C 493.15 839.56 499.38 840.69 502.79 844.71 C 501.71 848.87 500.64 853.06 498.97 857.04 C 496.97 861.77 493.66 865.78 490.32 869.63 C 486.88 871.72 483.66 874.17 480.02 875.92 C 475.12 873.23 470.74 869.35 465.12 868.24 C 472.16 866.04 479.58 863.28 484.29 857.28 C 489.62 850.70 490.61 841.95 491.73 833.86 Z" />
</g>
<g id="#e792e3ff">
<path fill="#e792e3" opacity="1.00" d=" M 190.36 860.30 C 208.22 855.70 226.55 853.23 244.40 848.60 C 245.37 851.21 246.49 853.77 247.75 856.28 C 239.59 858.70 231.14 859.84 222.87 861.82 C 199.68 866.62 176.60 872.01 153.33 876.41 C 153.05 874.66 152.80 872.93 152.61 871.20 C 152.76 870.00 152.92 868.81 153.10 867.64 C 158.38 866.87 163.65 865.99 168.82 864.65 C 175.91 862.74 183.29 862.28 190.36 860.30 Z" />
</g>
<g id="#a4a0a0ff">
<path fill="#a4a0a0" opacity="1.00" d=" M 1122.43 852.10 C 1125.39 854.02 1128.40 855.86 1131.46 857.65 C 1131.79 857.25 1132.44 856.46 1132.76 856.07 C 1130.41 874.94 1125.05 893.74 1115.20 910.12 C 1112.34 914.87 1108.98 919.31 1105.13 923.31 C 1099.00 923.40 1092.87 923.21 1086.75 923.38 C 1096.11 915.98 1103.80 906.55 1108.78 895.68 C 1114.02 884.84 1117.31 873.16 1119.25 861.30 C 1119.67 859.14 1120.23 857.00 1120.66 854.85 C 1120.97 855.93 1121.31 857.02 1121.68 858.12 C 1121.93 856.10 1122.18 854.10 1122.43 852.10 Z" />
</g>
<g id="#bdb6b6ff">
<path fill="#bdb6b6" opacity="1.00" d=" M 654.22 855.71 C 658.06 855.78 661.90 855.98 665.73 856.27 C 666.35 869.12 665.02 882.10 667.27 894.82 C 677.18 895.28 687.11 894.93 697.04 895.05 C 828.00 894.94 958.97 895.06 1089.93 895.02 C 1096.21 894.96 1102.55 894.57 1108.78 895.68 C 1103.80 906.55 1096.11 915.98 1086.75 923.38 C 1073.26 923.93 1059.55 924.06 1046.44 927.63 C 1038.31 929.79 1030.41 934.46 1026.55 942.21 C 1016.83 943.12 1007.07 943.74 997.41 945.08 C 994.39 937.16 987.42 931.38 979.67 928.40 C 968.63 924.12 956.61 923.94 944.95 923.59 C 933.97 923.11 922.98 923.39 912.00 923.32 C 890.36 923.20 868.58 923.30 847.22 927.10 C 838.19 928.85 828.90 932.65 823.22 940.21 C 819.41 945.07 817.95 951.25 817.26 957.27 C 762.88 957.27 708.50 957.31 654.13 957.26 C 654.31 923.41 654.18 889.56 654.22 855.71 Z" />
</g>
<g id="#9298e9ff">
<path fill="#9298e9" opacity="1.00" d=" M 179.05 873.91 C 202.44 868.79 225.90 863.99 249.30 858.91 C 250.71 861.07 252.25 863.14 253.76 865.24 C 247.79 866.45 241.77 867.33 235.77 868.41 C 220.14 870.99 204.53 873.75 188.90 876.40 C 177.38 878.38 165.88 880.48 154.33 882.28 C 154.22 881.64 154.01 880.34 153.90 879.70 C 162.05 876.88 170.70 875.98 179.05 873.91 Z" />
</g>
<g id="#aaa6a6ff">
<path fill="#aaa6a6" opacity="1.00" d=" M 937.00 863.60 C 955.57 862.49 974.45 863.46 992.70 859.24 C 996.27 861.49 999.86 863.74 1003.44 866.01 C 1003.17 866.36 1002.63 867.06 1002.36 867.41 C 1003.15 867.77 1003.97 868.13 1004.81 868.49 C 989.19 874.07 972.39 874.62 955.98 875.07 C 942.45 875.44 928.91 877.02 915.39 875.79 C 921.45 874.12 927.76 874.79 933.96 874.73 C 928.56 869.91 921.22 868.30 915.63 863.75 C 922.75 863.64 929.88 863.92 937.00 863.60 Z" />
</g>
<g id="#9b9999ff">
<path fill="#9b9999" opacity="1.00" d=" M 495.78 866.45 C 495.96 869.94 496.13 873.45 496.08 876.96 C 495.76 899.82 496.37 922.69 495.85 945.55 C 493.53 945.86 491.21 946.17 488.89 946.49 C 492.07 946.80 495.24 947.17 498.43 947.39 C 482.45 949.61 466.30 949.56 450.22 950.25 C 440.97 949.79 431.71 950.58 422.48 949.75 C 425.60 949.21 428.74 948.74 431.90 948.44 C 432.20 935.29 431.89 922.14 432.02 908.99 C 431.99 901.10 432.31 893.20 431.81 885.33 C 428.83 885.09 425.85 884.85 422.88 884.58 C 431.71 883.64 440.65 885.10 449.41 883.33 C 459.86 882.09 470.40 880.43 480.02 875.92 C 483.66 874.17 486.88 871.72 490.32 869.63 C 492.16 868.59 493.98 867.54 495.78 866.45 Z" />
</g>
<g id="#bab4b4ff">
<path fill="#bab4b4" opacity="1.00" d=" M 188.90 876.40 C 204.53 873.75 220.14 870.99 235.77 868.41 C 236.35 887.58 235.97 906.78 236.01 925.97 C 236.12 932.43 235.37 938.99 236.91 945.35 C 221.20 942.60 204.92 940.45 190.66 932.84 C 191.62 914.45 190.28 896.01 191.43 877.64 C 190.59 877.21 189.74 876.80 188.90 876.40 Z" />
</g>
<g id="#c1b9b9ff">
<path fill="#c1b9b9" opacity="1.00" d=" M 140.33 870.33 C 145.50 870.71 149.27 874.51 153.45 877.12 C 153.60 877.97 153.75 878.83 153.90 879.70 C 154.01 880.34 154.22 881.64 154.33 882.28 C 165.88 880.48 177.38 878.38 188.90 876.40 C 189.74 876.80 190.59 877.21 191.43 877.64 C 190.28 896.01 191.62 914.45 190.66 932.84 C 204.92 940.45 221.20 942.60 236.91 945.35 C 244.61 946.13 252.27 947.29 259.99 947.97 C 270.49 949.18 281.06 949.35 291.59 950.24 C 288.48 950.95 285.31 951.40 282.12 951.37 C 288.64 954.45 295.28 957.65 300.70 962.52 C 282.10 961.82 263.48 960.98 244.98 958.75 C 227.40 956.48 209.57 954.15 192.90 947.84 C 178.71 942.50 165.63 933.57 156.75 921.17 C 146.03 906.48 142.10 888.09 140.33 870.33 Z" />
</g>
<g id="#a3a0a0ff">
<path fill="#a3a0a0" opacity="1.00" d=" M 379.51 883.43 C 381.83 883.23 384.15 883.01 386.47 882.78 C 407.40 884.31 428.46 881.87 449.41 883.33 C 440.65 885.10 431.71 883.64 422.88 884.58 C 425.85 884.85 428.83 885.09 431.81 885.33 C 432.31 893.20 431.99 901.10 432.02 908.99 C 431.89 922.14 432.20 935.29 431.90 948.44 C 428.74 948.74 425.60 949.21 422.48 949.75 C 416.67 950.15 410.86 949.99 405.05 949.96 C 386.99 949.75 368.92 949.98 350.86 949.49 C 356.52 948.89 362.22 948.93 367.90 948.83 C 368.16 933.55 368.02 918.26 368.05 902.99 C 367.90 896.70 368.80 890.27 366.92 884.16 C 371.13 884.40 375.35 884.07 379.51 883.43 Z" />
</g>
<g id="#afaaaaff">
<path fill="#afaaaa" opacity="1.00" d=" M 997.41 945.08 C 1007.07 943.74 1016.83 943.12 1026.55 942.21 C 1024.67 946.07 1023.38 950.21 1022.61 954.44 C 1015.11 955.48 1007.55 956.04 1000.00 956.36 C 999.51 952.52 998.67 948.73 997.41 945.08 Z" />
</g>
<g id="#bab3b3ff">
<path fill="#bab3b3" opacity="1.00" d=" M 291.59 950.24 C 297.51 949.80 303.45 949.96 309.37 950.35 C 314.59 950.64 319.82 950.66 325.05 950.61 C 367.30 950.65 409.56 951.40 451.81 950.94 C 456.57 951.22 461.34 951.12 466.09 951.47 C 463.69 951.78 461.28 952.09 458.88 952.41 C 463.03 955.34 467.48 957.78 471.88 960.30 C 470.09 961.00 468.31 961.72 466.50 962.37 C 444.36 963.25 422.17 962.81 400.01 962.92 C 374.98 962.92 349.95 962.95 324.92 962.93 C 316.87 962.22 308.77 962.62 300.70 962.52 C 295.28 957.65 288.64 954.45 282.12 951.37 C 285.31 951.40 288.48 950.95 291.59 950.24 Z" />
</g>
</svg>
