<?xml version="1.0" encoding="UTF-8" ?>
<!DOCTYPE svg PUBLIC "-//W3C//DTD SVG 1.1//EN" "http://www.w3.org/Graphics/SVG/1.1/DTD/svg11.dtd">
<svg width="1276pt" height="1276pt" viewBox="0 0 1276 1276" version="1.1" xmlns="http://www.w3.org/2000/svg">
<g id="#ffffffff">
<path fill="#ffffff" opacity="1.00" d=" M 215.49 298.49 C 219.13 296.45 226.08 296.94 226.52 302.11 C 228.71 334.09 230.45 366.10 232.49 398.10 C 232.67 402.38 235.92 405.74 239.81 407.12 C 242.74 408.09 242.61 413.07 239.48 413.63 C 235.67 414.33 231.78 413.27 227.94 413.34 C 216.32 412.10 204.67 414.57 193.06 413.87 C 190.20 413.80 189.47 410.03 191.05 408.12 C 194.31 405.43 199.08 406.78 202.52 404.50 C 204.33 403.31 204.82 401.00 204.96 399.00 C 205.50 391.24 204.44 383.50 204.18 375.76 C 193.13 375.51 182.06 375.72 171.00 375.65 C 166.46 382.53 161.66 389.34 158.40 396.96 C 157.48 398.87 157.16 401.45 158.94 402.99 C 161.63 405.48 165.55 405.63 168.93 406.49 C 171.20 406.98 173.16 409.58 171.75 411.82 C 170.71 413.91 168.07 413.95 166.07 413.88 C 160.38 413.60 154.69 413.31 149.01 412.96 C 144.04 413.49 139.04 413.60 134.06 414.04 C 131.68 414.22 129.14 414.18 127.05 412.88 C 127.22 410.99 126.21 408.30 128.38 407.26 C 132.27 405.14 137.39 406.16 140.80 402.86 C 144.36 398.70 147.85 394.42 150.79 389.78 C 169.98 362.33 189.24 334.92 208.44 307.47 C 210.66 304.38 212.53 300.94 215.49 298.49 M 176.38 367.23 C 185.44 367.24 194.50 367.29 203.56 367.30 C 203.02 354.60 202.39 341.90 202.20 329.18 C 193.39 341.71 185.05 354.59 176.38 367.23 Z" />
<path fill="#ffffff" opacity="1.00" d=" M 637.20 301.21 C 639.71 296.76 646.92 295.91 650.20 299.87 C 651.55 303.39 651.12 307.25 651.48 310.93 C 653.12 336.98 654.61 363.03 656.31 389.07 C 656.64 393.68 656.10 398.58 658.18 402.86 C 660.58 406.59 665.79 405.48 668.94 408.11 C 670.66 410.32 668.97 413.88 666.15 413.83 C 658.75 413.66 651.33 413.07 643.93 412.90 C 635.31 413.45 626.67 413.93 618.03 414.01 C 615.06 414.19 613.46 410.46 615.35 408.30 C 618.32 405.34 623.10 406.78 626.52 404.70 C 628.28 403.84 628.95 401.78 629.22 399.98 C 629.86 391.85 628.85 383.74 628.47 375.63 C 617.40 375.69 606.32 375.61 595.25 375.67 C 590.70 382.94 585.39 389.91 582.39 398.02 C 581.04 400.67 582.95 403.66 585.59 404.48 C 588.84 406.30 593.26 405.33 595.96 408.18 C 597.79 410.87 594.99 414.20 592.03 413.88 C 586.01 413.79 580.00 413.22 573.99 413.14 C 567.96 413.18 561.95 413.89 555.92 413.86 C 552.63 413.78 552.37 409.12 554.49 407.40 C 557.41 404.98 562.19 406.74 564.62 403.55 C 566.96 400.91 569.03 398.04 571.27 395.32 C 593.20 363.92 615.19 332.55 637.20 301.21 M 600.70 367.26 C 609.78 367.18 618.86 367.36 627.94 367.25 C 627.62 354.60 626.62 341.99 626.49 329.33 C 617.62 341.75 609.37 354.67 600.70 367.26 Z" />
<path fill="#ffffff" opacity="1.00" d=" M 531.93 302.02 C 546.07 299.22 560.80 298.37 574.98 301.40 C 577.11 301.73 579.52 303.66 578.62 306.07 C 577.09 311.24 575.17 316.29 573.65 321.47 C 572.76 324.32 571.69 327.32 569.43 329.38 C 567.36 330.99 564.05 330.05 563.28 327.52 C 561.35 321.88 564.10 315.69 562.09 310.03 C 560.92 307.78 558.33 307.07 555.98 306.96 C 541.79 306.98 528.07 312.53 516.61 320.68 C 504.05 329.38 494.63 342.40 490.08 356.97 C 486.96 367.65 485.93 379.38 489.58 390.07 C 492.76 399.31 500.99 407.02 510.85 408.35 C 514.53 408.71 518.42 409.23 522.01 408.02 C 523.89 406.77 524.56 404.50 525.25 402.49 C 527.40 395.33 529.24 388.09 531.43 380.95 C 532.29 378.05 532.88 374.49 531.12 371.84 C 528.28 369.63 524.28 370.22 520.98 369.24 C 517.80 367.49 519.42 362.31 523.06 362.58 C 534.70 362.14 546.36 363.59 558.01 363.02 C 563.01 362.66 568.01 362.21 573.03 362.40 C 574.73 362.24 576.31 362.89 577.70 363.85 C 577.50 365.33 578.06 367.40 576.45 368.29 C 573.67 370.40 569.97 369.75 566.82 370.77 C 563.29 372.27 561.91 376.17 560.76 379.52 C 558.62 386.55 556.93 393.71 554.54 400.65 C 553.12 403.37 550.50 405.20 548.05 406.91 C 535.33 414.86 519.82 417.29 505.05 415.93 C 490.27 414.96 475.29 408.88 465.80 397.18 C 458.07 388.14 455.52 375.46 457.46 363.89 C 459.58 348.91 468.76 335.79 480.14 326.20 C 495.05 314.00 513.24 306.26 531.93 302.02 Z" />
<path fill="#ffffff" opacity="1.00" d=" M 274.10 306.00 C 272.70 303.58 275.48 300.96 277.84 300.81 C 290.98 302.25 304.25 301.02 317.44 301.57 C 318.24 302.11 318.60 302.87 318.50 303.85 C 319.43 327.22 320.45 350.59 321.25 373.96 C 336.41 350.85 351.30 327.55 366.37 304.38 C 367.32 303.12 368.19 301.17 370.11 301.49 C 381.71 301.47 393.32 301.43 404.93 301.51 C 407.69 301.52 408.72 305.04 407.12 307.01 C 404.21 311.05 398.06 308.21 394.85 311.83 C 393.34 313.95 392.87 316.62 392.14 319.08 C 386.60 342.07 381.15 365.08 375.60 388.07 C 375.03 392.63 373.16 397.28 374.13 401.88 C 376.18 406.42 382.61 404.23 385.35 408.01 C 385.66 409.41 385.86 411.48 384.38 412.29 C 381.29 414.26 377.45 413.29 374.00 413.45 C 363.08 412.04 352.01 411.93 341.04 412.72 C 337.70 412.91 334.39 413.64 331.04 413.44 C 327.87 412.97 327.33 408.36 329.79 406.69 C 333.56 404.51 338.81 406.30 342.11 403.08 C 344.42 399.81 344.89 395.66 346.11 391.92 C 351.73 369.98 357.36 348.02 362.77 326.05 C 344.25 353.37 326.19 381.05 307.52 408.28 C 305.16 413.06 295.53 414.41 294.72 407.96 C 293.97 387.00 293.40 366.04 292.47 345.09 C 292.15 338.63 292.52 332.13 291.53 325.73 C 283.91 348.49 274.10 370.59 268.66 394.04 C 268.58 397.03 267.73 400.76 270.20 403.07 C 273.87 404.96 278.17 404.99 282.00 406.37 C 284.32 407.36 284.38 410.87 282.61 412.41 C 280.94 413.44 278.95 413.70 277.04 413.40 C 267.72 412.04 258.28 412.68 248.90 412.86 C 246.79 413.17 244.50 411.32 245.10 409.08 C 245.37 407.00 247.66 406.22 249.35 405.56 C 252.19 404.64 254.56 402.52 255.94 399.88 C 258.46 394.57 260.33 388.99 262.39 383.50 C 269.41 363.66 276.44 343.83 283.47 324.00 C 284.67 320.03 286.32 316.11 286.59 311.94 C 284.21 307.15 276.94 310.29 274.10 306.00 Z" />
<path fill="#ffffff" opacity="1.00" d=" M 457.57 301.92 C 462.72 301.52 467.90 300.99 473.07 301.24 C 475.55 301.80 475.57 305.46 473.99 306.99 C 469.79 310.31 462.09 307.98 459.97 313.99 C 455.40 326.94 452.35 340.39 448.25 353.51 C 444.44 367.31 440.34 381.03 436.49 394.82 C 435.93 397.74 434.96 401.29 436.96 403.88 C 439.74 407.33 445.35 404.49 448.04 408.05 C 449.40 410.41 447.68 413.18 445.05 413.41 C 436.70 413.64 428.33 413.45 419.99 412.91 C 411.29 412.28 402.61 413.39 393.97 414.27 C 392.11 414.20 389.45 413.35 389.62 411.02 C 389.26 407.34 393.74 407.16 396.24 406.46 C 399.64 405.59 404.54 405.29 405.44 401.09 C 412.14 379.57 417.83 357.75 424.24 336.15 C 426.04 329.11 428.42 322.23 429.97 315.13 C 430.68 313.00 429.12 310.56 426.95 310.16 C 424.36 309.23 420.68 310.76 419.02 307.93 C 417.59 305.65 419.89 302.71 422.26 302.42 C 434.03 302.11 445.82 302.76 457.57 301.92 Z" />
</g>
<g id="#ff0000ff">
<path fill="#ff0000" opacity="1.00" d=" M 829.75 345.84 C 840.01 330.18 850.30 314.54 860.69 298.96 C 902.08 299.04 943.47 298.98 984.87 299.00 C 962.02 333.30 939.46 367.80 916.68 402.16 C 912.54 397.70 906.64 395.77 901.83 392.22 C 897.56 389.99 894.28 386.26 889.86 384.31 C 884.30 381.66 879.93 377.05 874.26 374.60 C 871.89 373.54 870.16 371.52 868.04 370.10 C 857.29 363.07 845.52 357.34 835.77 348.97 C 833.58 348.29 831.51 347.30 829.75 345.84 Z" />
<path fill="#ff0000" opacity="1.00" d=" M 935.76 414.40 C 961.02 375.87 986.51 337.50 1011.83 299.01 C 1053.28 298.98 1094.73 299.02 1136.19 298.99 C 1098.03 356.20 1060.41 413.77 1022.44 471.11 C 1018.33 466.51 1012.94 463.30 1007.47 460.59 C 1004.35 459.19 1002.14 456.39 998.98 455.06 C 993.39 452.61 989.20 448.00 983.83 445.20 C 976.85 441.33 970.66 436.23 963.77 432.24 C 954.58 426.07 944.89 420.67 935.76 414.40 Z" />
</g>
<g id="#ff1600ff">
<path fill="#ff1600" opacity="1.00" d=" M 821.19 358.75 C 824.03 354.44 826.86 350.12 829.75 345.84 C 831.51 347.30 833.58 348.29 835.77 348.97 C 845.52 357.34 857.29 363.07 868.04 370.10 C 870.16 371.52 871.89 373.54 874.26 374.60 C 879.93 377.05 884.30 381.66 889.86 384.31 C 894.28 386.26 897.56 389.99 901.83 392.22 C 906.64 395.77 912.54 397.70 916.68 402.16 C 914.03 406.28 911.25 410.34 908.64 414.49 L 908.51 414.43 C 904.10 412.80 900.89 409.19 896.65 407.26 C 893.14 405.62 890.58 402.55 887.15 400.79 C 880.51 397.36 875.02 392.12 868.42 388.61 C 864.02 386.48 860.59 382.77 856.00 381.03 C 852.27 379.62 849.85 376.08 845.99 374.90 C 842.06 373.59 839.98 369.43 835.99 368.31 C 834.30 367.73 833.10 366.34 831.75 365.26 C 828.63 362.49 824.93 360.50 821.19 358.75 Z" />
</g>
<g id="#ff2e00ff">
<path fill="#ff2e00" opacity="1.00" d=" M 821.19 358.75 C 824.93 360.50 828.63 362.49 831.75 365.26 C 833.10 366.34 834.30 367.73 835.99 368.31 C 839.98 369.43 842.06 373.59 845.99 374.90 C 849.85 376.08 852.27 379.62 856.00 381.03 C 860.59 382.77 864.02 386.48 868.42 388.61 C 875.02 392.12 880.51 397.36 887.15 400.79 C 890.58 402.55 893.14 405.62 896.65 407.26 C 900.89 409.19 904.10 412.80 908.51 414.43 C 904.38 421.04 899.96 427.47 895.70 433.99 C 893.50 429.36 888.35 428.17 884.46 425.47 C 881.84 423.73 878.93 422.49 876.36 420.69 C 869.15 414.98 860.90 410.82 853.37 405.58 C 847.52 403.04 843.44 397.88 837.70 395.18 C 832.56 392.57 828.43 388.39 823.25 385.84 C 818.25 383.44 813.86 380.02 809.34 376.85 C 813.15 370.73 817.23 364.78 821.19 358.75 Z" />
<path fill="#ff2e00" opacity="1.00" d=" M 916.01 444.30 C 919.84 438.37 923.75 432.49 927.66 426.61 C 941.17 438.55 958.11 445.63 972.28 456.71 C 979.55 460.03 985.58 465.47 992.45 469.52 C 995.99 471.22 998.59 474.35 1002.30 475.74 C 1006.75 477.60 1009.77 481.63 1014.21 483.53 C 1010.45 489.32 1006.62 495.07 1002.85 500.84 C 1000.28 498.29 996.90 496.96 993.77 495.31 C 991.61 494.19 990.11 492.16 987.91 491.13 C 981.33 488.02 976.06 482.80 969.63 479.42 C 963.22 475.99 958.03 470.62 951.36 467.65 C 947.63 465.85 944.83 462.60 941.00 460.95 C 937.12 459.23 934.44 455.76 930.80 453.71 C 930.46 453.85 929.78 454.13 929.44 454.27 C 928.20 452.88 926.88 451.51 925.09 450.87 C 921.52 449.49 919.09 446.42 916.01 444.30 Z" />
</g>
<g id="#ff4300ff">
<path fill="#ff4300" opacity="1.00" d=" M 809.22 376.77 L 809.34 376.85 C 813.86 380.02 818.25 383.44 823.25 385.84 C 828.43 388.39 832.56 392.57 837.70 395.18 C 843.44 397.88 847.52 403.04 853.37 405.58 C 860.90 410.82 869.15 414.98 876.36 420.69 C 878.93 422.49 881.84 423.73 884.46 425.47 C 888.35 428.17 893.50 429.36 895.70 433.99 C 892.38 439.26 888.66 444.28 885.55 449.68 L 885.13 449.48 C 875.98 446.13 868.87 439.22 860.41 434.62 C 855.40 430.95 849.95 427.96 845.12 424.06 C 840.60 421.68 836.16 419.14 832.18 415.93 C 826.31 413.86 821.93 409.29 816.64 406.22 C 810.00 402.82 804.07 398.22 797.64 394.45 C 801.46 388.53 805.48 382.74 809.22 376.77 Z" />
</g>
<g id="#ff5600ff">
<path fill="#ff5600" opacity="1.00" d=" M 782.32 417.62 C 787.44 409.91 792.52 402.17 797.64 394.45 C 804.07 398.22 810.00 402.82 816.64 406.22 C 821.93 409.29 826.31 413.86 832.18 415.93 C 836.16 419.14 840.60 421.68 845.12 424.06 C 849.95 427.96 855.40 430.95 860.41 434.62 C 868.87 439.22 875.98 446.13 885.13 449.48 C 880.47 457.60 874.97 465.31 869.80 473.10 L 869.09 473.18 C 865.46 470.83 862.14 468.03 858.56 465.63 C 853.30 462.54 848.14 459.31 843.11 455.88 C 839.10 452.76 834.33 450.81 830.37 447.61 C 827.52 445.35 824.17 443.86 821.12 441.91 C 814.86 437.39 808.21 433.42 801.64 429.38 C 799.56 427.71 797.60 425.83 795.08 424.85 C 790.50 422.99 787.06 419.15 782.32 417.62 Z" />
</g>
<g id="#ff1700ff">
<path fill="#ff1700" opacity="1.00" d=" M 927.66 426.61 C 930.35 422.53 932.99 418.42 935.76 414.40 C 944.89 420.67 954.58 426.07 963.77 432.24 C 970.66 436.23 976.85 441.33 983.83 445.20 C 989.20 448.00 993.39 452.61 998.98 455.06 C 1002.14 456.39 1004.35 459.19 1007.47 460.59 C 1012.94 463.30 1018.33 466.51 1022.44 471.11 C 1019.71 475.26 1016.99 479.41 1014.21 483.53 C 1009.77 481.63 1006.75 477.60 1002.30 475.74 C 998.59 474.35 995.99 471.22 992.45 469.52 C 985.58 465.47 979.55 460.03 972.28 456.71 C 958.11 445.63 941.17 438.55 927.66 426.61 Z" />
</g>
<g id="#ff6707ff">
<path fill="#ff6707" opacity="1.00" d=" M 782.32 417.62 C 787.06 419.15 790.50 422.99 795.08 424.85 C 797.60 425.83 799.56 427.71 801.64 429.38 C 808.21 433.42 814.86 437.39 821.12 441.91 C 824.17 443.86 827.52 445.35 830.37 447.61 C 834.33 450.81 839.10 452.76 843.11 455.88 C 848.14 459.31 853.30 462.54 858.56 465.63 C 862.14 468.03 865.46 470.83 869.09 473.18 L 869.24 473.93 C 867.02 477.83 864.28 481.45 861.89 485.26 C 859.13 484.92 856.98 483.15 854.71 481.75 C 848.42 477.93 842.71 473.23 836.21 469.77 C 831.58 467.25 827.50 463.94 823.27 460.85 C 817.51 457.65 811.61 454.67 806.42 450.57 C 799.26 445.21 790.98 441.53 784.01 435.91 C 780.89 433.68 777.10 432.46 774.49 429.53 C 777.06 425.54 779.71 421.60 782.32 417.62 Z" />
</g>
<g id="#ff751cff">
<path fill="#ff751c" opacity="1.00" d=" M 762.99 446.99 C 766.82 441.17 770.64 435.34 774.49 429.53 C 777.10 432.46 780.89 433.68 784.01 435.91 C 790.98 441.53 799.26 445.21 806.42 450.57 C 811.61 454.67 817.51 457.65 823.27 460.85 C 827.50 463.94 831.58 467.25 836.21 469.77 C 842.71 473.23 848.42 477.93 854.71 481.75 C 856.98 483.15 859.13 484.92 861.89 485.26 C 857.98 491.11 854.13 497.01 850.26 502.88 C 848.72 502.54 847.30 501.90 846.19 500.79 C 842.64 497.48 837.99 495.81 834.14 492.94 C 825.83 487.55 817.40 482.33 809.10 476.94 C 804.88 475.07 801.80 471.50 797.79 469.30 C 792.93 466.03 787.91 463.01 782.94 459.92 C 780.76 457.53 777.36 457.21 775.01 455.08 C 771.19 452.10 766.82 449.94 762.99 446.99 Z" />
</g>
<g id="#ff4400ff">
<path fill="#ff4400" opacity="1.00" d=" M 901.91 465.67 C 906.55 458.51 911.26 451.39 916.01 444.30 C 919.09 446.42 921.52 449.49 925.09 450.87 C 926.88 451.51 928.20 452.88 929.44 454.27 C 929.78 454.13 930.46 453.85 930.80 453.71 C 934.44 455.76 937.12 459.23 941.00 460.95 C 944.83 462.60 947.63 465.85 951.36 467.65 C 958.03 470.62 963.22 475.99 969.63 479.42 C 976.06 482.80 981.33 488.02 987.91 491.13 C 990.11 492.16 991.61 494.19 993.77 495.31 C 996.90 496.96 1000.28 498.29 1002.85 500.84 C 998.24 507.80 993.68 514.78 989.02 521.69 C 984.54 518.92 980.19 515.96 975.49 513.57 C 968.53 507.59 960.22 503.58 952.72 498.36 C 944.89 492.30 935.93 487.94 928.14 481.86 C 926.09 480.46 923.50 480.03 921.62 478.36 C 915.45 473.53 908.38 470.05 901.91 465.67 Z" />
</g>
<g id="#ff862cff">
<path fill="#ff862c" opacity="1.00" d=" M 762.99 446.99 C 766.82 449.94 771.19 452.10 775.01 455.08 C 777.36 457.21 780.76 457.53 782.94 459.92 C 787.91 463.01 792.93 466.03 797.79 469.30 C 801.80 471.50 804.88 475.07 809.10 476.94 C 817.40 482.33 825.83 487.55 834.14 492.94 C 837.99 495.81 842.64 497.48 846.19 500.79 C 847.30 501.90 848.72 502.54 850.26 502.88 C 845.78 509.62 841.34 516.39 836.88 523.14 C 833.97 522.72 832.13 520.32 829.71 518.94 C 826.55 516.81 822.97 515.38 820.02 512.95 C 815.62 509.48 810.46 507.21 805.82 504.13 C 799.95 499.90 794.18 495.44 787.56 492.43 C 774.70 484.36 762.65 474.98 749.25 467.77 C 753.80 460.82 758.40 453.91 762.99 446.99 Z" />
</g>
<g id="#ff5a00ff">
<path fill="#ff5a00" opacity="1.00" d=" M 885.88 489.90 C 891.20 481.81 896.56 473.74 901.91 465.67 C 908.38 470.05 915.45 473.53 921.62 478.36 C 923.50 480.03 926.09 480.46 928.14 481.86 C 935.93 487.94 944.89 492.30 952.72 498.36 C 960.22 503.58 968.53 507.59 975.49 513.57 C 980.19 515.96 984.54 518.92 989.02 521.69 C 983.64 529.93 978.23 538.15 972.80 546.36 C 970.76 545.31 968.75 544.05 967.94 541.80 C 967.35 541.93 966.75 542.06 966.19 542.21 C 962.98 539.95 959.53 538.00 956.75 535.20 C 955.18 533.58 952.65 533.58 951.12 531.90 C 949.87 530.46 947.94 530.37 946.22 530.05 C 945.46 528.95 944.68 527.78 943.28 527.53 C 939.99 526.63 937.77 523.90 934.80 522.41 C 929.86 519.85 926.06 515.63 921.23 512.90 C 918.95 511.51 916.45 510.44 914.58 508.49 C 912.40 510.22 910.88 507.29 909.81 505.74 C 909.10 505.65 908.40 505.57 907.71 505.50 C 907.25 504.52 906.78 503.54 906.32 502.57 C 903.67 502.56 901.23 501.51 899.27 499.75 C 896.20 497.07 892.26 495.64 889.31 492.84 C 888.62 492.74 887.95 492.66 887.30 492.58 C 887.76 491.89 888.23 491.20 888.72 490.53 C 887.76 490.31 886.81 490.10 885.88 489.90 Z" />
</g>
<g id="#ff9438ff">
<path fill="#ff9438" opacity="1.00" d=" M 749.25 467.77 C 762.65 474.98 774.70 484.36 787.56 492.43 C 794.18 495.44 799.95 499.90 805.82 504.13 C 810.46 507.21 815.62 509.48 820.02 512.95 C 822.97 515.38 826.55 516.81 829.71 518.94 C 832.13 520.32 833.97 522.72 836.88 523.14 C 833.58 528.14 830.31 533.16 826.99 538.15 C 823.11 536.12 819.60 533.48 815.84 531.28 C 809.09 527.95 803.11 523.32 796.90 519.16 C 791.99 516.95 788.22 512.96 783.41 510.60 C 776.14 506.21 769.46 500.91 761.91 497.03 C 757.58 493.16 751.89 491.39 747.54 487.55 C 745.12 485.47 742.24 484.06 739.31 482.85 C 742.60 477.81 745.95 472.80 749.25 467.77 Z" />
</g>
<g id="#ffa041ff">
<path fill="#ffa041" opacity="1.00" d=" M 728.95 498.59 C 732.36 493.31 735.85 488.09 739.31 482.85 C 742.24 484.06 745.12 485.47 747.54 487.55 C 751.89 491.39 757.58 493.16 761.91 497.03 C 769.46 500.91 776.14 506.21 783.41 510.60 C 788.22 512.96 791.99 516.95 796.90 519.16 C 803.11 523.32 809.09 527.95 815.84 531.28 C 819.60 533.48 823.11 536.12 826.99 538.15 C 823.40 543.57 819.83 549.00 816.22 554.40 C 810.60 549.61 803.71 546.76 797.81 542.36 C 793.31 540.10 789.49 536.79 785.07 534.43 C 776.78 528.59 767.73 523.86 759.71 517.65 C 749.43 511.34 739.61 504.27 728.95 498.59 Z" />
</g>
<g id="#ff6d12ff">
<path fill="#ff6d12" opacity="1.00" d=" M 885.88 489.90 C 886.81 490.10 887.76 490.31 888.72 490.53 C 888.23 491.20 887.76 491.89 887.30 492.58 C 887.95 492.66 888.62 492.74 889.31 492.84 C 892.26 495.64 896.20 497.07 899.27 499.75 C 901.23 501.51 903.67 502.56 906.32 502.57 C 906.78 503.54 907.25 504.52 907.71 505.50 C 908.40 505.57 909.10 505.65 909.81 505.74 C 910.88 507.29 912.40 510.22 914.58 508.49 C 916.45 510.44 918.95 511.51 921.23 512.90 C 926.06 515.63 929.86 519.85 934.80 522.41 C 937.77 523.90 939.99 526.63 943.28 527.53 C 944.68 527.78 945.46 528.95 946.22 530.05 C 947.94 530.37 949.87 530.46 951.12 531.90 C 952.65 533.58 955.18 533.58 956.75 535.20 C 959.53 538.00 962.98 539.95 966.19 542.21 C 966.75 542.06 967.35 541.93 967.94 541.80 C 968.75 544.05 970.76 545.31 972.80 546.36 C 969.38 551.52 966.00 556.70 962.58 561.86 C 955.16 558.05 948.74 552.66 941.64 548.36 C 938.99 546.18 935.64 545.16 933.01 542.97 C 927.32 538.85 921.48 534.94 915.27 531.64 C 910.71 529.30 907.11 525.49 902.41 523.40 C 899.85 522.20 897.85 520.18 895.56 518.59 C 888.71 514.55 881.96 510.29 875.56 505.59 C 878.97 500.34 882.42 495.11 885.88 489.90 Z" />
</g>
<g id="#fdaf4bff">
<path fill="#fdaf4b" opacity="1.00" d=" M 712.85 522.92 C 718.18 514.79 723.58 506.70 728.95 498.59 C 739.61 504.27 749.43 511.34 759.71 517.65 C 767.73 523.86 776.78 528.59 785.07 534.43 C 789.49 536.79 793.31 540.10 797.81 542.36 C 803.71 546.76 810.60 549.61 816.22 554.40 C 810.90 562.48 805.62 570.58 800.26 578.64 C 792.78 574.18 785.61 569.24 777.99 565.02 C 771.56 560.34 764.50 556.64 758.23 551.74 C 751.81 547.93 745.65 543.75 739.61 539.38 C 736.13 536.63 731.64 535.67 728.21 532.86 C 723.36 529.14 718.08 526.06 712.85 522.92 Z" />
</g>
<g id="#ff7d24ff">
<path fill="#ff7d24" opacity="1.00" d=" M 862.22 525.78 C 866.65 519.04 871.10 512.31 875.56 505.59 C 881.96 510.29 888.71 514.55 895.56 518.59 C 897.85 520.18 899.85 522.20 902.41 523.40 C 907.11 525.49 910.71 529.30 915.27 531.64 C 921.48 534.94 927.32 538.85 933.01 542.97 C 935.64 545.16 938.99 546.18 941.64 548.36 C 948.74 552.66 955.16 558.05 962.58 561.86 C 958.36 568.24 954.17 574.64 949.91 580.99 C 943.88 577.87 938.71 573.42 932.76 570.20 C 931.61 569.26 930.67 568.04 929.24 567.53 C 921.26 563.25 913.43 558.60 906.51 552.72 C 902.02 551.65 898.89 548.07 894.81 546.17 C 891.60 544.58 889.19 541.84 886.09 540.11 C 877.85 535.78 871.09 528.92 862.22 525.78 Z" />
</g>
<g id="#fcbf56ff">
<path fill="#fcbf56" opacity="1.00" d=" M 712.85 522.92 C 718.08 526.06 723.36 529.14 728.21 532.86 C 731.64 535.67 736.13 536.63 739.61 539.38 C 745.65 543.75 751.81 547.93 758.23 551.74 C 764.50 556.64 771.56 560.34 777.99 565.02 C 785.61 569.24 792.78 574.18 800.26 578.64 C 795.37 586.08 790.44 593.50 785.57 600.96 C 785.20 599.88 784.74 598.86 784.18 597.91 C 777.37 593.43 769.67 590.11 763.73 584.41 C 757.33 581.46 751.06 577.93 745.99 572.97 C 733.80 566.05 722.49 557.59 710.15 550.87 C 706.27 548.79 703.14 545.48 698.89 544.11 C 703.56 537.06 708.18 529.98 712.85 522.92 Z" />
</g>
<g id="#ff8f34ff">
<path fill="#ff8f34" opacity="1.00" d=" M 862.22 525.78 C 871.09 528.92 877.85 535.78 886.09 540.11 C 889.19 541.84 891.60 544.58 894.81 546.17 C 898.89 548.07 902.02 551.65 906.51 552.72 C 913.43 558.60 921.26 563.25 929.24 567.53 C 930.67 568.04 931.61 569.26 932.76 570.20 C 938.71 573.42 943.88 577.87 949.91 580.99 C 944.75 588.85 939.60 596.72 934.41 604.55 C 928.84 600.33 922.32 597.59 917.01 593.00 C 910.51 589.56 904.81 584.80 898.25 581.49 C 895.16 580.75 894.10 577.19 891.12 576.29 C 887.66 575.02 885.30 571.98 881.92 570.62 C 878.96 569.63 877.42 566.61 874.66 565.32 C 867.46 561.81 860.90 557.22 854.27 552.78 C 852.14 550.89 849.42 550.03 846.76 549.19 C 851.88 541.37 857.10 533.60 862.22 525.78 Z" />
</g>
<g id="#face5eff">
<path fill="#face5e" opacity="1.00" d=" M 683.61 567.30 C 688.65 559.54 693.81 551.85 698.89 544.11 C 703.14 545.48 706.27 548.79 710.15 550.87 C 722.49 557.59 733.80 566.05 745.99 572.97 C 751.06 577.93 757.33 581.46 763.73 584.41 C 769.67 590.11 777.37 593.43 784.18 597.91 C 784.74 598.86 785.20 599.88 785.57 600.96 C 780.56 608.29 775.86 615.88 770.78 623.14 L 770.04 623.23 C 766.66 621.19 763.39 618.96 759.88 617.15 C 756.60 615.55 754.27 612.54 750.94 611.06 C 749.30 610.24 747.37 609.87 746.08 608.50 C 743.97 606.17 740.90 605.23 738.36 603.53 C 736.20 602.10 734.57 599.75 731.87 599.30 C 729.32 596.28 725.35 595.07 722.35 592.60 C 713.65 587.88 705.99 581.52 697.69 576.20 C 692.24 574.63 687.80 570.96 683.61 567.30 Z" />
</g>
<g id="#ff9f40ff">
<path fill="#ff9f40" opacity="1.00" d=" M 846.76 549.19 C 849.42 550.03 852.14 550.89 854.27 552.78 C 860.90 557.22 867.46 561.81 874.66 565.32 C 877.42 566.61 878.96 569.63 881.92 570.62 C 885.30 571.98 887.66 575.02 891.12 576.29 C 894.10 577.19 895.16 580.75 898.25 581.49 C 904.81 584.80 910.51 589.56 917.01 593.00 C 922.32 597.59 928.84 600.33 934.41 604.55 C 930.46 610.52 926.52 616.50 922.56 622.46 C 919.64 618.29 914.10 617.89 910.88 614.11 C 908.86 611.94 906.06 610.83 903.57 609.33 C 896.36 604.52 888.60 600.61 881.74 595.27 C 871.46 589.05 861.16 582.79 851.31 575.87 C 847.84 573.20 843.62 571.64 840.46 568.56 C 839.12 567.04 836.95 567.18 835.15 566.80 C 839.03 560.94 842.86 555.04 846.76 549.19 Z" />
</g>
<g id="#fead49ff">
<path fill="#fead49" opacity="1.00" d=" M 835.15 566.80 C 836.95 567.18 839.12 567.04 840.46 568.56 C 843.62 571.64 847.84 573.20 851.31 575.87 C 861.16 582.79 871.46 589.05 881.74 595.27 C 888.60 600.61 896.36 604.52 903.57 609.33 C 906.06 610.83 908.86 611.94 910.88 614.11 C 914.10 617.89 919.64 618.29 922.56 622.46 C 918.77 628.22 914.99 633.99 911.18 639.73 C 905.82 636.41 899.72 634.39 894.92 630.20 C 891.45 627.05 886.73 625.90 883.28 622.77 C 881.56 621.31 879.79 619.94 877.97 618.64 C 877.38 618.85 876.80 619.07 876.23 619.30 C 871.77 615.11 866.10 612.58 861.51 608.56 C 857.18 605.87 852.88 603.13 848.42 600.67 C 845.01 598.39 841.96 595.60 838.34 593.65 C 834.71 591.71 831.80 588.59 827.87 587.23 C 826.19 586.68 824.73 585.70 823.42 584.55 C 827.32 578.63 831.27 572.74 835.15 566.80 Z" />
</g>
<g id="#f8de68ff">
<path fill="#f8de68" opacity="1.00" d=" M 660.79 601.88 C 668.37 590.34 675.96 578.80 683.61 567.30 C 687.80 570.96 692.24 574.63 697.69 576.20 C 705.99 581.52 713.65 587.88 722.35 592.60 C 725.35 595.07 729.32 596.28 731.87 599.30 C 734.57 599.75 736.20 602.10 738.36 603.53 C 740.90 605.23 743.97 606.17 746.08 608.50 C 747.37 609.87 749.30 610.24 750.94 611.06 C 754.27 612.54 756.60 615.55 759.88 617.15 C 763.39 618.96 766.66 621.19 770.04 623.23 L 770.23 623.93 C 763.24 635.15 755.64 646.04 748.46 657.16 C 744.09 657.38 742.47 652.56 738.59 651.50 C 735.68 650.65 732.95 649.27 731.19 646.70 C 730.41 646.95 729.63 647.22 728.88 647.51 C 728.39 646.85 727.91 646.21 727.44 645.58 C 727.73 645.22 728.31 644.49 728.60 644.13 C 727.56 644.20 726.54 644.28 725.53 644.37 C 725.23 643.95 724.65 643.10 724.36 642.67 C 723.55 642.47 722.75 642.28 721.96 642.09 C 720.29 637.97 715.52 637.27 712.81 634.16 C 711.48 632.24 708.83 632.68 707.11 631.53 C 705.42 628.19 701.10 628.73 698.47 626.57 C 695.61 624.23 692.49 622.20 689.89 619.57 C 689.40 619.76 688.93 619.96 688.46 620.16 C 687.39 618.77 686.53 616.85 684.61 616.56 C 682.83 616.32 681.03 616.58 679.26 616.72 C 680.10 615.58 680.93 614.44 681.77 613.31 C 680.64 613.39 679.52 613.48 678.41 613.56 C 677.30 612.35 676.27 611.05 674.97 610.07 C 673.15 609.20 671.09 609.07 669.26 608.25 C 668.35 607.23 668.12 605.75 667.20 604.73 C 665.24 603.43 662.95 602.75 660.79 601.88 Z" />
</g>
<g id="#fcbb53ff">
<path fill="#fcbb53" opacity="1.00" d=" M 808.86 606.66 C 813.69 599.28 818.56 591.92 823.42 584.55 C 824.73 585.70 826.19 586.68 827.87 587.23 C 831.80 588.59 834.71 591.71 838.34 593.65 C 841.96 595.60 845.01 598.39 848.42 600.67 C 852.88 603.13 857.18 605.87 861.51 608.56 C 866.10 612.58 871.77 615.11 876.23 619.30 C 876.80 619.07 877.38 618.85 877.97 618.64 C 879.79 619.94 881.56 621.31 883.28 622.77 C 886.73 625.90 891.45 627.05 894.92 630.20 C 899.72 634.39 905.82 636.41 911.18 639.73 C 906.15 647.32 901.19 654.95 896.16 662.53 C 891.80 658.09 885.31 656.77 881.40 651.88 C 877.03 651.76 874.71 647.69 871.07 645.93 C 866.69 643.69 863.18 640.08 858.50 638.40 C 856.35 634.54 851.59 634.19 848.50 631.42 C 845.17 629.12 841.89 626.76 838.64 624.35 C 832.90 621.70 827.37 618.51 822.55 614.40 C 817.70 612.24 814.17 607.87 808.86 606.66 Z" />
</g>
<g id="#f6ec70ff">
<path fill="#f6ec70" opacity="1.00" d=" M 625.70 654.98 C 637.46 637.32 649.02 619.54 660.79 601.88 C 662.95 602.75 665.24 603.43 667.20 604.73 C 668.12 605.75 668.35 607.23 669.26 608.25 C 671.09 609.07 673.15 609.20 674.97 610.07 C 676.27 611.05 677.30 612.35 678.41 613.56 C 679.52 613.48 680.64 613.39 681.77 613.31 C 680.93 614.44 680.10 615.58 679.26 616.72 C 681.03 616.58 682.83 616.32 684.61 616.56 C 686.53 616.85 687.39 618.77 688.46 620.16 C 688.93 619.96 689.40 619.76 689.89 619.57 C 692.49 622.20 695.61 624.23 698.47 626.57 C 701.10 628.73 705.42 628.19 707.11 631.53 C 708.83 632.68 711.48 632.24 712.81 634.16 C 715.52 637.27 720.29 637.97 721.96 642.09 C 722.75 642.28 723.55 642.47 724.36 642.67 C 724.65 643.10 725.23 643.95 725.53 644.37 C 726.54 644.28 727.56 644.20 728.60 644.13 C 728.31 644.49 727.73 645.22 727.44 645.58 C 727.91 646.21 728.39 646.85 728.88 647.51 C 729.63 647.22 730.41 646.95 731.19 646.70 C 732.95 649.27 735.68 650.65 738.59 651.50 C 742.47 652.56 744.09 657.38 748.46 657.16 C 743.29 665.00 738.07 672.81 732.98 680.69 C 713.55 678.11 694.25 674.53 675.22 669.85 C 658.46 665.77 641.90 660.86 625.70 654.98 Z" />
</g>
<g id="#006afdff">
<path fill="#006afd" opacity="1.00" d=" M 170.05 606.91 C 211.43 606.93 252.82 606.98 294.20 606.88 C 297.38 611.17 300.14 615.76 303.13 620.19 C 298.63 619.98 294.74 622.34 290.66 623.83 C 284.55 625.50 278.89 628.44 272.69 629.84 C 267.66 632.34 262.35 634.20 257.06 636.07 C 251.45 637.40 246.02 639.43 240.87 642.02 C 237.01 644.12 232.48 644.47 228.62 646.60 C 226.93 647.61 225.02 647.99 223.08 648.07 C 216.61 651.76 209.22 653.15 202.40 656.02 C 191.66 639.62 180.76 623.32 170.05 606.91 Z" />
</g>
<g id="#0972faff">
<path fill="#0972fa" opacity="1.00" d=" M 321.27 606.91 C 344.72 607.05 368.19 606.73 391.62 607.07 C 394.88 608.02 398.71 606.96 401.56 609.06 C 398.99 610.84 395.60 610.21 393.06 612.03 C 390.79 613.83 387.74 613.33 385.25 614.55 C 380.56 617.18 375.02 617.60 370.43 620.48 C 363.75 622.54 357.23 625.17 350.46 626.90 C 346.57 629.41 342.09 630.65 337.63 631.73 C 332.15 623.47 326.73 615.18 321.27 606.91 Z" />
</g>
<g id="#1880f5ff">
<path fill="#1880f5" opacity="1.00" d=" M 391.62 607.07 C 409.64 606.83 427.68 606.85 445.71 607.06 C 449.82 613.27 453.92 619.49 458.03 625.70 C 450.05 624.80 443.23 630.13 435.69 631.80 C 427.42 635.56 418.39 637.31 410.08 641.00 C 404.96 643.43 399.31 644.43 394.33 647.19 C 386.05 648.82 378.80 653.51 370.60 655.46 C 365.76 656.39 361.58 659.14 356.87 660.45 L 356.51 660.57 C 350.43 650.82 343.85 641.39 337.63 631.73 C 342.09 630.65 346.57 629.41 350.46 626.90 C 357.23 625.17 363.75 622.54 370.43 620.48 C 375.02 617.60 380.56 617.18 385.25 614.55 C 387.74 613.33 390.79 613.83 393.06 612.03 C 395.60 610.21 398.99 610.84 401.56 609.06 C 398.71 606.96 394.88 608.02 391.62 607.07 Z" />
</g>
<g id="#facc5dff">
<path fill="#facc5d" opacity="1.00" d=" M 789.08 636.60 C 795.71 626.64 802.24 616.63 808.86 606.66 C 814.17 607.87 817.70 612.24 822.55 614.40 C 827.37 618.51 832.90 621.70 838.64 624.35 C 841.89 626.76 845.17 629.12 848.50 631.42 C 851.59 634.19 856.35 634.54 858.50 638.40 C 863.18 640.08 866.69 643.69 871.07 645.93 C 874.71 647.69 877.03 651.76 881.40 651.88 C 885.31 656.77 891.80 658.09 896.16 662.53 C 892.12 668.70 887.98 674.79 883.99 680.99 C 879.77 681.36 875.57 681.90 871.36 682.28 C 867.67 678.77 862.52 683.31 858.64 680.41 C 854.00 677.39 848.97 674.99 844.77 671.34 C 840.41 669.07 836.63 665.84 832.14 663.83 C 828.93 662.19 826.49 659.39 823.24 657.81 C 817.81 655.06 813.41 650.68 807.83 648.20 C 803.64 646.31 801.28 641.57 796.62 640.59 C 793.77 639.92 791.98 637.21 789.08 636.60 Z" />
</g>
<g id="#0670fbff">
<path fill="#0670fb" opacity="1.00" d=" M 290.66 623.83 C 294.74 622.34 298.63 619.98 303.13 620.19 C 306.78 625.69 310.37 631.23 314.05 636.71 C 312.23 636.58 310.43 636.89 308.81 637.73 C 305.31 639.45 301.35 639.95 297.98 641.93 C 295.00 643.54 291.47 643.71 288.52 645.44 C 282.53 648.50 275.65 649.12 269.75 652.33 C 264.43 653.40 259.91 656.62 254.59 657.69 C 247.19 659.51 240.68 663.78 233.24 665.46 C 226.34 667.36 220.18 671.92 212.77 671.68 C 209.27 666.49 205.85 661.24 202.40 656.02 C 209.22 653.15 216.61 651.76 223.08 648.07 C 225.02 647.99 226.93 647.61 228.62 646.60 C 232.48 644.47 237.01 644.12 240.87 642.02 C 246.02 639.43 251.45 637.40 257.06 636.07 C 262.35 634.20 267.66 632.34 272.69 629.84 C 278.89 628.44 284.55 625.50 290.66 623.83 Z" />
</g>
<g id="#278fefff">
<path fill="#278fef" opacity="1.00" d=" M 435.69 631.80 C 443.23 630.13 450.05 624.80 458.03 625.70 C 460.68 629.77 463.37 633.82 466.05 637.87 C 463.81 637.63 461.27 636.69 459.26 638.19 C 453.91 641.55 447.46 642.24 441.73 644.77 C 429.68 648.90 417.96 653.94 405.80 657.75 C 401.29 659.17 397.00 661.24 392.39 662.38 C 389.11 663.18 386.29 665.18 383.02 666.00 C 376.70 667.65 370.90 670.77 364.67 672.69 C 362.10 668.59 359.06 664.77 356.87 660.45 C 361.58 659.14 365.76 656.39 370.60 655.46 C 378.80 653.51 386.05 648.82 394.33 647.19 C 399.31 644.43 404.96 643.43 410.08 641.00 C 418.39 637.31 427.42 635.56 435.69 631.80 Z" />
<path fill="#278fef" opacity="1.00" d=" M 317.39 668.35 C 321.83 666.10 326.94 665.48 331.13 662.67 C 336.05 670.04 340.92 677.44 345.79 684.85 C 337.06 687.61 328.68 691.32 319.91 693.93 C 315.75 696.18 311.21 697.41 306.77 698.87 C 303.31 701.44 298.66 700.73 295.14 703.14 C 292.67 704.81 289.55 704.72 286.90 705.95 C 279.49 709.13 271.57 710.92 264.24 714.31 C 260.75 716.02 256.82 716.47 253.35 718.22 C 250.60 719.53 247.52 720.80 244.47 719.70 C 240.08 713.21 235.83 706.62 231.50 700.09 C 239.95 696.57 248.68 693.78 257.15 690.30 C 265.39 687.48 273.68 684.73 281.71 681.33 C 287.21 679.98 292.12 677.02 297.65 675.75 C 304.19 673.17 311.03 671.41 317.39 668.35 Z" />
</g>
<g id="#0f78f8ff">
<path fill="#0f78f8" opacity="1.00" d=" M 308.81 637.73 C 310.43 636.89 312.23 636.58 314.05 636.71 C 316.77 641.01 319.82 645.11 322.34 649.54 C 314.48 652.39 306.81 655.79 298.69 657.87 C 295.25 658.54 292.45 661.11 288.91 661.35 C 286.06 661.36 284.68 664.81 281.77 664.66 C 275.62 664.96 270.68 669.13 264.93 670.83 C 257.51 672.95 250.40 675.99 242.96 678.03 C 236.08 681.06 228.94 683.51 221.57 685.01 C 218.64 680.57 215.67 676.14 212.77 671.68 C 220.18 671.92 226.34 667.36 233.24 665.46 C 240.68 663.78 247.19 659.51 254.59 657.69 C 259.91 656.62 264.43 653.40 269.75 652.33 C 275.65 649.12 282.53 648.50 288.52 645.44 C 291.47 643.71 295.00 643.54 297.98 641.93 C 301.35 639.95 305.31 639.45 308.81 637.73 Z" />
</g>
<g id="#3299ecff">
<path fill="#3299ec" opacity="1.00" d=" M 459.26 638.19 C 461.27 636.69 463.81 637.63 466.05 637.87 C 468.54 641.72 471.15 645.49 473.58 649.38 C 471.87 648.90 469.98 648.39 468.33 649.34 C 457.47 653.94 446.33 657.79 435.04 661.15 C 430.82 662.29 427.24 665.01 422.95 665.98 C 414.06 669.35 404.86 671.98 396.32 676.16 C 388.18 678.27 379.97 680.56 372.60 684.71 C 369.94 680.72 367.30 676.71 364.67 672.69 C 370.90 670.77 376.70 667.65 383.02 666.00 C 386.29 665.18 389.11 663.18 392.39 662.38 C 397.00 661.24 401.29 659.17 405.80 657.75 C 417.96 653.94 429.68 648.90 441.73 644.77 C 447.46 642.24 453.91 641.55 459.26 638.19 Z" />
</g>
<g id="#f8db67ff">
<path fill="#f8db67" opacity="1.00" d=" M 789.08 636.60 C 791.98 637.21 793.77 639.92 796.62 640.59 C 801.28 641.57 803.64 646.31 807.83 648.20 C 813.41 650.68 817.81 655.06 823.24 657.81 C 826.49 659.39 828.93 662.19 832.14 663.83 C 836.63 665.84 840.41 669.07 844.77 671.34 C 848.97 674.99 854.00 677.39 858.64 680.41 C 862.52 683.31 867.67 678.77 871.36 682.28 C 858.43 683.73 845.45 684.76 832.45 685.17 C 829.18 683.52 825.46 684.03 821.95 683.94 C 815.95 683.87 809.95 683.90 803.96 683.88 C 799.63 683.85 794.82 683.10 792.07 679.37 C 791.52 679.42 790.42 679.53 789.87 679.58 C 788.02 676.86 785.13 672.90 781.36 674.13 C 778.72 669.95 772.95 669.13 770.75 664.42 C 776.83 655.13 782.96 645.86 789.08 636.60 Z" />
</g>
<g id="#3ea5e7ff">
<path fill="#3ea5e7" opacity="1.00" d=" M 468.33 649.34 C 469.98 648.39 471.87 648.90 473.58 649.38 C 477.13 654.53 480.46 659.83 483.95 665.03 C 479.57 665.81 475.53 667.78 471.20 668.75 C 467.54 670.54 463.75 671.94 459.78 672.88 C 449.15 678.29 437.06 680.00 426.50 685.56 C 414.58 689.35 403.03 694.19 391.18 698.15 C 388.66 699.21 386.23 700.47 383.78 701.66 C 380.01 696.03 376.30 690.38 372.60 684.71 C 379.97 680.56 388.18 678.27 396.32 676.16 C 404.86 671.98 414.06 669.35 422.95 665.98 C 427.24 665.01 430.82 662.29 435.04 661.15 C 446.33 657.79 457.47 653.94 468.33 649.34 Z" />
</g>
<g id="#1981f4ff">
<path fill="#1981f4" opacity="1.00" d=" M 298.69 657.87 C 306.81 655.79 314.48 652.39 322.34 649.54 L 322.57 649.46 C 325.30 653.94 328.33 658.23 331.13 662.67 C 326.94 665.48 321.83 666.10 317.39 668.35 C 311.03 671.41 304.19 673.17 297.65 675.75 C 292.12 677.02 287.21 679.98 281.71 681.33 C 273.68 684.73 265.39 687.48 257.15 690.30 C 248.68 693.78 239.95 696.57 231.50 700.09 C 228.16 695.08 224.87 690.04 221.57 685.01 C 228.94 683.51 236.08 681.06 242.96 678.03 C 250.40 675.99 257.51 672.95 264.93 670.83 C 270.68 669.13 275.62 664.96 281.77 664.66 C 284.68 664.81 286.06 661.36 288.91 661.35 C 292.45 661.11 295.25 658.54 298.69 657.87 Z" />
</g>
<g id="#ded900ff">
<path fill="#ded900" opacity="1.00" d=" M 610.87 677.29 C 615.85 669.88 620.66 662.35 625.70 654.98 C 641.90 660.86 658.46 665.77 675.22 669.85 C 674.01 670.57 672.80 671.30 671.65 672.11 C 672.22 674.20 674.99 673.29 676.00 675.06 C 677.47 676.93 680.21 676.50 681.89 678.06 C 684.13 680.04 686.39 682.01 688.96 683.57 C 692.40 685.65 694.99 688.92 698.77 690.49 C 700.39 689.52 702.00 690.29 703.47 691.15 C 703.17 691.71 702.87 692.29 702.59 692.88 C 705.13 694.01 707.49 695.50 709.57 697.36 C 710.00 697.06 710.86 696.45 711.29 696.15 C 713.02 698.24 714.78 700.31 716.51 702.41 C 717.63 701.04 719.00 699.92 720.65 699.23 C 713.26 710.87 705.55 722.33 697.94 733.83 C 696.36 734.21 694.78 734.61 693.22 735.01 C 690.84 731.89 687.23 730.29 683.71 728.84 C 681.05 727.85 679.54 725.27 677.27 723.72 C 672.36 720.63 666.71 718.61 662.54 714.46 C 656.27 710.80 649.90 707.19 643.89 703.12 C 639.96 698.67 633.68 697.72 629.82 693.22 C 625.62 691.56 622.32 688.34 618.13 686.67 C 614.50 684.86 611.08 681.57 610.87 677.29 Z" />
</g>
<g id="#4db3e2ff">
<path fill="#4db3e2" opacity="1.00" d=" M 471.20 668.75 C 475.53 667.78 479.57 665.81 483.95 665.03 C 487.72 670.74 491.52 676.44 495.28 682.16 C 487.96 683.47 481.03 686.43 474.08 688.98 C 468.33 692.13 461.63 692.61 455.93 695.83 C 449.08 697.04 442.61 699.80 436.48 703.05 C 422.40 707.68 408.31 712.30 394.67 718.13 C 391.00 712.66 387.41 707.14 383.78 701.66 C 386.23 700.47 388.66 699.21 391.18 698.15 C 403.03 694.19 414.58 689.35 426.50 685.56 C 437.06 680.00 449.15 678.29 459.78 672.88 C 463.75 671.94 467.54 670.54 471.20 668.75 Z" />
</g>
<g id="#f7e56dff">
<path fill="#f7e56d" opacity="1.00" d=" M 758.24 683.31 C 762.43 677.03 766.58 670.72 770.75 664.42 C 772.95 669.13 778.72 669.95 781.36 674.13 C 785.13 672.90 788.02 676.86 789.87 679.58 C 790.42 679.53 791.52 679.42 792.07 679.37 C 794.82 683.10 799.63 683.85 803.96 683.88 C 809.95 683.90 815.95 683.87 821.95 683.94 C 825.46 684.03 829.18 683.52 832.45 685.17 C 807.72 686.13 782.86 685.90 758.24 683.31 Z" />
</g>
<g id="#e7d900ff">
<path fill="#e7d900" opacity="1.00" d=" M 675.22 669.85 C 694.25 674.53 713.55 678.11 732.98 680.69 C 728.91 686.89 724.98 693.22 720.65 699.23 C 719.00 699.92 717.63 701.04 716.51 702.41 C 714.78 700.31 713.02 698.24 711.29 696.15 C 710.86 696.45 710.00 697.06 709.57 697.36 C 707.49 695.50 705.13 694.01 702.59 692.88 C 702.87 692.29 703.17 691.71 703.47 691.15 C 702.00 690.29 700.39 689.52 698.77 690.49 C 694.99 688.92 692.40 685.65 688.96 683.57 C 686.39 682.01 684.13 680.04 681.89 678.06 C 680.21 676.50 677.47 676.93 676.00 675.06 C 674.99 673.29 672.22 674.20 671.65 672.11 C 672.80 671.30 674.01 670.57 675.22 669.85 Z" />
</g>
<g id="#d0da00ff">
<path fill="#d0da00" opacity="1.00" d=" M 594.33 702.55 C 599.74 694.07 605.38 685.72 610.87 677.29 C 611.08 681.57 614.50 684.86 618.13 686.67 C 622.32 688.34 625.62 691.56 629.82 693.22 C 633.68 697.72 639.96 698.67 643.89 703.12 C 649.90 707.19 656.27 710.80 662.54 714.46 C 666.71 718.61 672.36 720.63 677.27 723.72 C 679.54 725.27 681.05 727.85 683.71 728.84 C 687.23 730.29 690.84 731.89 693.22 735.01 C 694.78 734.61 696.36 734.21 697.94 733.83 C 692.60 742.09 687.10 750.25 681.70 758.48 L 681.55 758.51 C 679.61 758.45 678.56 760.11 677.44 761.41 C 673.91 756.66 668.12 754.79 663.30 751.77 C 656.27 747.11 649.22 742.43 641.90 738.25 C 641.35 737.44 640.83 736.62 640.33 735.81 C 633.56 734.51 629.30 728.29 622.85 726.28 C 620.23 723.33 616.81 721.41 613.36 719.63 C 609.40 717.70 606.43 714.00 602.03 713.00 C 600.49 709.93 596.62 709.97 594.29 707.77 C 594.30 706.02 594.27 704.28 594.33 702.55 Z" />
</g>
<g id="#ebd900ff">
<path fill="#ebd900" opacity="1.00" d=" M 871.36 682.28 C 875.57 681.90 879.77 681.36 883.99 680.99 C 862.07 714.47 839.95 747.81 817.93 781.22 C 813.74 779.54 811.24 775.09 806.60 774.46 C 806.48 773.69 806.37 772.93 806.27 772.18 C 803.49 771.91 800.44 771.80 798.35 769.67 C 793.76 765.69 789.26 761.31 783.31 759.46 C 780.11 756.90 777.01 753.72 772.57 753.75 C 772.86 753.17 773.17 752.61 773.48 752.05 C 767.95 749.69 762.77 746.59 758.16 742.74 C 755.78 740.55 752.55 739.84 749.76 738.39 C 747.40 737.19 745.90 734.92 744.23 732.97 C 743.80 733.36 742.93 734.15 742.49 734.54 C 742.17 733.52 741.84 732.50 741.54 731.51 C 737.08 731.12 732.35 727.99 731.80 723.28 C 740.62 709.96 749.32 696.56 758.24 683.31 C 782.86 685.90 807.72 686.13 832.45 685.17 C 845.45 684.76 858.43 683.73 871.36 682.28 Z" />
</g>
<g id="#59bedeff">
<path fill="#59bede" opacity="1.00" d=" M 474.08 688.98 C 481.03 686.43 487.96 683.47 495.28 682.16 C 497.87 686.10 500.47 690.03 503.05 693.97 C 498.39 693.76 494.64 696.75 490.21 697.54 C 486.62 698.72 483.45 701.01 479.64 701.59 C 473.75 702.55 468.83 706.49 462.83 706.94 C 460.08 708.09 457.64 709.96 454.70 710.68 C 443.68 713.94 433.15 718.59 422.17 721.97 C 415.69 724.91 408.63 726.46 402.36 729.84 C 399.77 725.95 397.19 722.05 394.67 718.13 C 408.31 712.30 422.40 707.68 436.48 703.05 C 442.61 699.80 449.08 697.04 455.93 695.83 C 461.63 692.61 468.33 692.13 474.08 688.98 Z" />
</g>
<g id="#359ceaff">
<path fill="#359cea" opacity="1.00" d=" M 319.91 693.93 C 328.68 691.32 337.06 687.61 345.79 684.85 C 347.94 688.10 350.10 691.36 352.24 694.63 C 346.55 699.64 338.67 699.73 332.26 703.31 C 328.69 705.25 324.50 705.37 320.84 707.03 C 313.08 711.17 304.20 712.37 296.32 716.25 C 288.33 718.70 280.81 722.40 272.81 724.83 C 266.08 727.50 259.24 729.91 252.11 731.33 C 249.55 727.46 246.97 723.61 244.47 719.70 C 247.52 720.80 250.60 719.53 253.35 718.22 C 256.82 716.47 260.75 716.02 264.24 714.31 C 271.57 710.92 279.49 709.13 286.90 705.95 C 289.55 704.72 292.67 704.81 295.14 703.14 C 298.66 700.73 303.31 701.44 306.77 698.87 C 311.21 697.41 315.75 696.18 319.91 693.93 Z" />
</g>
<g id="#66cad9ff">
<path fill="#66cad9" opacity="1.00" d=" M 490.21 697.54 C 494.64 696.75 498.39 693.76 503.05 693.97 C 507.67 701.02 512.36 708.03 516.98 715.09 C 510.83 717.03 504.70 719.03 498.92 721.94 C 489.94 723.12 482.25 728.38 473.50 730.39 C 460.54 735.56 447.18 739.69 434.37 745.20 C 428.14 746.47 422.26 748.85 416.29 750.96 C 411.65 743.92 406.99 736.88 402.36 729.84 C 408.63 726.46 415.69 724.91 422.17 721.97 C 433.15 718.59 443.68 713.94 454.70 710.68 C 457.64 709.96 460.08 708.09 462.83 706.94 C 468.83 706.49 473.75 702.55 479.64 701.59 C 483.45 701.01 486.62 698.72 490.21 697.54 Z" />
</g>
<g id="#41a7e6ff">
<path fill="#41a7e6" opacity="1.00" d=" M 332.26 703.31 C 338.67 699.73 346.55 699.64 352.24 694.63 C 355.88 700.11 359.51 705.59 363.13 711.09 C 353.88 714.13 344.92 717.91 335.61 720.78 C 328.97 723.73 321.81 725.24 315.12 728.09 C 310.14 729.67 305.59 732.44 300.44 733.51 C 298.69 733.91 296.96 734.45 295.39 735.34 C 290.97 737.72 286.18 739.36 281.28 740.44 C 274.88 742.24 269.15 746.29 262.43 746.94 C 258.99 741.73 255.56 736.53 252.11 731.33 C 259.24 729.91 266.08 727.50 272.81 724.83 C 280.81 722.40 288.33 718.70 296.32 716.25 C 304.20 712.37 313.08 711.17 320.84 707.03 C 324.50 705.37 328.69 705.25 332.26 703.31 Z" />
</g>
<g id="#c4da00ff">
<path fill="#c4da00" opacity="1.00" d=" M 594.33 702.55 C 594.27 704.28 594.30 706.02 594.29 707.77 C 596.62 709.97 600.49 709.93 602.03 713.00 C 606.43 714.00 609.40 717.70 613.36 719.63 C 616.81 721.41 620.23 723.33 622.85 726.28 C 629.30 728.29 633.56 734.51 640.33 735.81 C 640.83 736.62 641.35 737.44 641.90 738.25 C 649.22 742.43 656.27 747.11 663.30 751.77 C 668.12 754.79 673.91 756.66 677.44 761.41 C 678.56 760.11 679.61 758.45 681.55 758.51 C 676.87 766.05 671.85 773.37 666.95 780.77 C 665.51 780.46 664.63 781.57 663.71 782.43 C 659.70 779.74 655.25 777.67 651.76 774.28 C 650.34 772.64 648.15 772.43 646.27 771.68 C 643.26 770.20 641.55 766.80 638.21 765.89 C 634.51 764.98 632.64 761.24 629.24 759.79 C 627.03 758.66 624.55 758.04 622.65 756.40 C 618.87 752.94 613.90 751.27 610.06 747.89 C 604.66 744.67 599.09 741.73 594.14 737.84 C 590.52 736.28 587.53 733.68 584.07 731.84 C 582.52 729.63 580.26 728.31 577.65 727.70 C 583.21 719.31 588.64 710.84 594.33 702.55 Z" />
</g>
<g id="#4eb3e2ff">
<path fill="#4eb3e2" opacity="1.00" d=" M 335.61 720.78 C 344.92 717.91 353.88 714.13 363.13 711.09 C 366.18 715.73 369.25 720.36 372.28 725.02 C 369.82 726.88 367.21 728.72 364.05 729.04 C 360.10 729.41 357.13 732.33 353.39 733.29 C 347.77 734.20 342.70 736.94 337.21 738.36 C 331.29 741.54 324.77 743.28 318.44 745.41 C 313.99 747.67 308.95 748.23 304.46 750.35 C 297.45 753.31 290.30 756.04 282.93 757.98 C 279.43 759.39 276.09 761.23 272.38 762.07 C 269.04 757.04 265.75 751.98 262.43 746.94 C 269.15 746.29 274.88 742.24 281.28 740.44 C 286.18 739.36 290.97 737.72 295.39 735.34 C 296.96 734.45 298.69 733.91 300.44 733.51 C 305.59 732.44 310.14 729.67 315.12 728.09 C 321.81 725.24 328.97 723.73 335.61 720.78 Z" />
</g>
<g id="#75d8d4ff">
<path fill="#75d8d4" opacity="1.00" d=" M 498.92 721.94 C 504.70 719.03 510.83 717.03 516.98 715.09 C 522.10 722.87 527.27 730.61 532.37 738.41 C 527.63 739.62 523.15 741.57 518.69 743.52 C 513.17 744.91 508.10 747.71 502.44 748.60 C 496.56 750.21 491.06 752.98 485.64 755.71 C 480.91 756.81 476.18 758.09 471.58 759.62 C 467.81 762.75 462.34 761.53 458.49 764.60 C 454.93 767.50 450.03 766.93 446.19 769.20 C 441.61 771.59 436.58 773.13 431.50 773.99 C 426.44 766.31 421.35 758.64 416.29 750.96 C 422.26 748.85 428.14 746.47 434.37 745.20 C 447.18 739.69 460.54 735.56 473.50 730.39 C 482.25 728.38 489.94 723.12 498.92 721.94 Z" />
</g>
<g id="#d8d900ff">
<path fill="#d8d900" opacity="1.00" d=" M 704.94 763.98 C 713.88 750.40 722.83 736.83 731.80 723.28 C 732.35 727.99 737.08 731.12 741.54 731.51 C 741.84 732.50 742.17 733.52 742.49 734.54 C 742.93 734.15 743.80 733.36 744.23 732.97 C 745.90 734.92 747.40 737.19 749.76 738.39 C 752.55 739.84 755.78 740.55 758.16 742.74 C 762.77 746.59 767.95 749.69 773.48 752.05 C 773.17 752.61 772.86 753.17 772.57 753.75 C 777.01 753.72 780.11 756.90 783.31 759.46 C 789.26 761.31 793.76 765.69 798.35 769.67 C 800.44 771.80 803.49 771.91 806.27 772.18 C 806.37 772.93 806.48 773.69 806.60 774.46 C 811.24 775.09 813.74 779.54 817.93 781.22 C 810.14 792.94 802.55 804.86 794.55 816.41 C 792.63 816.97 791.08 818.54 789.13 818.85 C 786.27 818.14 784.24 815.75 781.77 814.29 C 777.17 811.62 773.33 807.79 768.44 805.62 C 765.08 804.17 763.12 800.54 759.28 800.08 C 751.32 793.78 742.56 788.52 733.98 783.12 C 729.80 781.18 725.53 779.06 722.68 775.32 C 717.45 774.29 713.88 770.13 709.32 767.73 C 707.60 766.79 706.24 765.39 704.94 763.98 Z" />
</g>
<g id="#5cc0ddff">
<path fill="#5cc0dd" opacity="1.00" d=" M 364.05 729.04 C 367.21 728.72 369.82 726.88 372.28 725.02 C 376.26 731.05 380.27 737.07 384.25 743.11 C 379.37 745.52 374.22 747.39 368.98 748.85 C 362.63 750.25 357.24 754.21 351.00 755.95 C 345.12 757.47 339.52 759.86 333.77 761.75 C 329.42 764.20 324.32 764.60 319.93 766.96 C 316.38 768.07 312.92 769.39 309.65 771.16 C 305.02 772.10 300.89 774.43 296.40 775.80 C 292.91 777.13 289.10 776.92 285.51 777.81 C 284.81 777.76 283.40 777.67 282.70 777.62 C 279.19 772.49 275.83 767.24 272.38 762.07 C 276.09 761.23 279.43 759.39 282.93 757.98 C 290.30 756.04 297.45 753.31 304.46 750.35 C 308.95 748.23 313.99 747.67 318.44 745.41 C 324.77 743.28 331.29 741.54 337.21 738.36 C 342.70 736.94 347.77 734.20 353.39 733.29 C 357.13 732.33 360.10 729.41 364.05 729.04 Z" />
</g>
<g id="#b8da00ff">
<path fill="#b8da00" opacity="1.00" d=" M 565.77 745.73 C 569.68 739.69 573.67 733.70 577.65 727.70 C 580.26 728.31 582.52 729.63 584.07 731.84 C 587.53 733.68 590.52 736.28 594.14 737.84 C 599.09 741.73 604.66 744.67 610.06 747.89 C 613.90 751.27 618.87 752.94 622.65 756.40 C 624.55 758.04 627.03 758.66 629.24 759.79 C 632.64 761.24 634.51 764.98 638.21 765.89 C 641.55 766.80 643.26 770.20 646.27 771.68 C 648.15 772.43 650.34 772.64 651.76 774.28 C 655.25 777.67 659.70 779.74 663.71 782.43 C 664.63 781.57 665.51 780.46 666.95 780.77 C 662.78 787.24 658.58 793.70 654.21 800.05 C 654.12 799.60 653.95 798.70 653.86 798.25 C 652.94 799.16 652.04 800.08 651.14 801.02 C 648.22 798.38 644.55 796.86 641.51 794.39 C 640.07 793.36 638.22 793.18 636.71 792.28 C 633.46 790.28 631.32 786.76 627.63 785.42 C 622.06 783.38 617.98 778.86 612.71 776.27 C 602.40 770.03 592.47 763.19 582.35 756.66 C 576.51 753.49 571.30 749.36 565.77 745.73 Z" />
</g>
<g id="#7de0d1ff">
<path fill="#7de0d1" opacity="1.00" d=" M 518.69 743.52 C 523.15 741.57 527.63 739.62 532.37 738.41 C 538.79 748.02 545.01 757.76 551.51 767.32 C 550.38 769.13 549.14 770.87 547.95 772.64 C 527.99 777.16 507.91 781.22 487.61 783.92 C 472.11 785.90 456.56 787.39 440.97 788.42 C 437.84 783.59 434.67 778.79 431.50 773.99 C 436.58 773.13 441.61 771.59 446.19 769.20 C 450.03 766.93 454.93 767.50 458.49 764.60 C 462.34 761.53 467.81 762.75 471.58 759.62 C 476.18 758.09 480.91 756.81 485.64 755.71 C 491.06 752.98 496.56 750.21 502.44 748.60 C 508.10 747.71 513.17 744.91 518.69 743.52 Z" />
</g>
<g id="#6aced8ff">
<path fill="#6aced8" opacity="1.00" d=" M 368.98 748.85 C 374.22 747.39 379.37 745.52 384.25 743.11 C 388.90 750.15 393.56 757.18 398.17 764.26 C 394.16 768.96 387.92 769.95 382.37 771.79 C 379.09 772.78 376.18 774.72 372.86 775.58 C 364.34 777.63 356.48 781.66 348.03 783.94 C 342.67 786.11 336.67 781.78 331.56 785.12 C 316.11 783.40 300.71 781.07 285.51 777.81 C 289.10 776.92 292.91 777.13 296.40 775.80 C 300.89 774.43 305.02 772.10 309.65 771.16 C 312.92 769.39 316.38 768.07 319.93 766.96 C 324.32 764.60 329.42 764.20 333.77 761.75 C 339.52 759.86 345.12 757.47 351.00 755.95 C 357.24 754.21 362.63 750.25 368.98 748.85 Z" />
</g>
<g id="#a9da00ff">
<path fill="#a9da00" opacity="1.00" d=" M 551.51 767.32 C 556.25 760.11 560.98 752.90 565.77 745.73 C 571.30 749.36 576.51 753.49 582.35 756.66 C 592.47 763.19 602.40 770.03 612.71 776.27 C 617.98 778.86 622.06 783.38 627.63 785.42 C 631.32 786.76 633.46 790.28 636.71 792.28 C 638.22 793.18 640.07 793.36 641.51 794.39 C 644.55 796.86 648.22 798.38 651.14 801.02 C 652.04 800.08 652.94 799.16 653.86 798.25 C 653.95 798.70 654.12 799.60 654.21 800.05 C 646.85 811.43 639.33 822.72 631.85 834.04 C 628.87 833.01 625.68 832.27 623.36 829.99 C 614.89 824.73 606.94 818.62 598.08 813.99 C 590.61 808.17 581.79 804.44 574.39 798.53 C 572.13 796.53 569.01 795.93 566.70 794.09 C 564.45 789.92 559.10 790.00 555.81 787.04 C 552.79 784.05 548.61 782.69 545.66 779.62 C 544.68 780.53 543.82 781.95 542.27 781.33 C 544.19 778.45 546.02 775.51 547.95 772.64 C 549.14 770.87 550.38 769.13 551.51 767.32 Z" />
</g>
<g id="#c5da00ff">
<path fill="#c5da00" opacity="1.00" d=" M 704.94 763.98 C 706.24 765.39 707.60 766.79 709.32 767.73 C 713.88 770.13 717.45 774.29 722.68 775.32 C 725.53 779.06 729.80 781.18 733.98 783.12 C 742.56 788.52 751.32 793.78 759.28 800.08 C 763.12 800.54 765.08 804.17 768.44 805.62 C 773.33 807.79 777.17 811.62 781.77 814.29 C 784.24 815.75 786.27 818.14 789.13 818.85 C 791.08 818.54 792.63 816.97 794.55 816.41 C 786.61 829.04 778.17 841.37 769.98 853.84 C 767.92 854.26 765.63 854.61 763.76 853.43 C 757.48 849.84 751.42 845.82 745.85 841.20 C 745.10 840.72 744.47 839.86 743.53 839.94 C 739.86 840.32 738.00 836.43 735.11 834.90 C 727.33 830.75 720.50 825.01 712.69 820.95 C 709.73 820.41 708.48 817.32 705.88 816.17 C 700.46 813.44 695.50 809.92 690.43 806.62 C 688.19 805.17 685.40 804.50 683.58 802.48 C 683.02 800.77 683.06 798.96 683.09 797.20 C 690.28 786.07 697.66 775.06 704.94 763.98 Z" />
</g>
<g id="#76dad4ff">
<path fill="#76dad4" opacity="1.00" d=" M 382.37 771.79 C 387.92 769.95 394.16 768.96 398.17 764.26 C 403.68 772.57 409.22 780.87 414.62 789.27 C 386.88 789.79 359.11 788.38 331.56 785.12 C 336.67 781.78 342.67 786.11 348.03 783.94 C 356.48 781.66 364.34 777.63 372.86 775.58 C 376.18 774.72 379.09 772.78 382.37 771.79 Z" />
</g>
<g id="#00b481ff">
<path fill="#00b481" opacity="1.00" d=" M 487.61 783.92 C 507.91 781.22 527.99 777.16 547.95 772.64 C 546.02 775.51 544.19 778.45 542.27 781.33 C 539.73 785.09 537.28 788.90 534.72 792.65 C 534.10 790.71 535.16 788.89 535.85 787.15 C 532.87 790.19 528.34 790.47 525.23 793.25 C 518.23 798.82 510.55 803.45 502.89 808.02 C 496.48 813.05 489.44 817.16 482.63 821.60 C 477.77 824.26 473.86 828.52 468.46 830.15 C 464.02 823.34 459.43 816.63 455.10 809.76 C 456.47 810.03 457.83 810.31 459.20 810.62 C 463.62 808.50 467.61 805.69 471.28 802.49 C 476.14 800.61 480.29 797.59 484.03 794.03 C 489.87 791.62 494.19 786.80 499.94 784.25 C 495.80 783.66 491.46 786.28 487.61 783.92 Z" />
<path fill="#00b481" opacity="1.00" d=" M 437.16 828.40 C 437.55 827.38 437.99 826.38 438.64 825.52 C 441.34 829.71 444.42 833.72 446.78 838.10 C 446.95 840.15 447.37 842.18 448.07 844.13 C 442.77 848.66 436.31 851.60 430.85 855.94 C 428.83 857.59 426.59 858.95 424.18 859.97 C 421.36 861.01 419.81 863.90 417.04 865.02 C 411.98 866.95 408.81 871.68 403.93 873.92 C 399.91 875.77 396.74 878.99 392.77 880.94 C 388.57 883.17 385.11 886.53 381.02 888.94 C 375.28 891.75 369.79 895.25 365.34 899.89 C 363.58 898.16 362.82 894.24 359.82 894.60 C 357.26 890.92 354.84 887.15 352.38 883.41 C 357.57 880.81 362.67 877.89 367.22 874.27 C 370.13 872.10 373.80 871.08 376.32 868.37 C 378.19 866.35 381.12 865.97 383.05 864.04 C 385.98 861.10 390.14 859.99 393.21 857.23 C 399.17 852.27 406.57 849.52 412.47 844.48 C 420.82 839.31 429.00 833.86 437.16 828.40 Z" />
</g>
<g id="#00c4a9ff">
<path fill="#00c4a9" opacity="1.00" d=" M 282.70 777.62 C 283.40 777.67 284.81 777.76 285.51 777.81 C 300.71 781.07 316.11 783.40 331.56 785.12 C 359.11 788.38 386.88 789.79 414.62 789.27 L 414.78 789.26 C 416.34 791.94 418.41 794.32 419.74 797.13 C 419.91 798.85 420.22 800.55 420.69 802.23 C 417.99 805.86 413.41 807.09 410.12 810.04 C 405.86 812.56 402.20 816.10 397.42 817.67 C 391.05 823.08 383.24 826.45 376.99 832.03 C 372.18 834.77 367.51 837.73 362.93 840.84 C 358.17 842.81 354.84 846.95 350.29 849.26 C 346.04 851.48 342.22 854.39 338.08 856.78 C 336.61 855.90 335.12 855.08 333.50 854.55 L 333.31 854.48 C 316.45 828.85 299.40 803.35 282.70 777.62 Z" />
</g>
<g id="#99db00ff">
<path fill="#99db00" opacity="1.00" d=" M 542.27 781.33 C 543.82 781.95 544.68 780.53 545.66 779.62 C 548.61 782.69 552.79 784.05 555.81 787.04 C 559.10 790.00 564.45 789.92 566.70 794.09 C 569.01 795.93 572.13 796.53 574.39 798.53 C 581.79 804.44 590.61 808.17 598.08 813.99 C 606.94 818.62 614.89 824.73 623.36 829.99 C 625.68 832.27 628.87 833.01 631.85 834.04 C 628.31 839.38 624.87 844.79 621.22 850.06 C 621.09 849.61 620.84 848.69 620.72 848.24 C 619.75 849.33 618.81 850.44 617.89 851.57 C 615.23 850.48 612.40 849.72 609.92 848.26 C 606.33 845.75 603.39 842.19 599.09 840.85 C 596.44 840.10 594.54 838.11 592.77 836.14 C 590.52 833.42 586.64 833.22 584.12 830.86 C 581.17 827.94 577.01 826.93 573.79 824.39 C 567.74 820.32 561.84 815.97 555.33 812.66 C 550.27 809.35 544.77 806.69 540.19 802.70 C 538.25 801.01 535.88 799.98 533.58 798.91 C 532.48 799.06 531.38 799.25 530.31 799.51 C 531.83 797.25 533.28 794.95 534.72 792.65 C 537.28 788.90 539.73 785.09 542.27 781.33 Z" />
</g>
<g id="#00bb91ff">
<path fill="#00bb91" opacity="1.00" d=" M 440.97 788.42 C 456.56 787.39 472.11 785.90 487.61 783.92 C 491.46 786.28 495.80 783.66 499.94 784.25 C 494.19 786.80 489.87 791.62 484.03 794.03 C 480.29 797.59 476.14 800.61 471.28 802.49 C 467.61 805.69 463.62 808.50 459.20 810.62 C 457.83 810.31 456.47 810.03 455.10 809.76 C 450.31 802.70 445.59 795.59 440.97 788.42 Z" />
</g>
<g id="#00ae70ff">
<path fill="#00ae70" opacity="1.00" d=" M 525.23 793.25 C 528.34 790.47 532.87 790.19 535.85 787.15 C 535.16 788.89 534.10 790.71 534.72 792.65 C 533.28 794.95 531.83 797.25 530.31 799.51 C 522.93 810.46 515.75 821.55 508.44 832.55 C 507.00 834.65 505.59 836.78 504.20 838.92 C 503.66 838.74 502.59 838.39 502.05 838.21 C 496.04 842.20 489.84 845.96 484.22 850.50 C 482.88 848.43 481.22 846.58 478.89 845.64 C 475.14 840.73 471.98 835.27 468.46 830.15 C 473.86 828.52 477.77 824.26 482.63 821.60 C 489.44 817.16 496.48 813.05 502.89 808.02 C 510.55 803.45 518.23 798.82 525.23 793.25 Z" />
</g>
<g id="#00bc94ff">
<path fill="#00bc94" opacity="1.00" d=" M 420.69 802.23 C 420.22 800.55 419.91 798.85 419.74 797.13 C 426.38 806.35 432.34 816.06 438.64 825.52 C 437.99 826.38 437.55 827.38 437.16 828.40 C 429.00 833.86 420.82 839.31 412.47 844.48 C 406.57 849.52 399.17 852.27 393.21 857.23 C 390.14 859.99 385.98 861.10 383.05 864.04 C 381.12 865.97 378.19 866.35 376.32 868.37 C 373.80 871.08 370.13 872.10 367.22 874.27 C 362.67 877.89 357.57 880.81 352.38 883.41 C 346.12 873.77 339.54 864.32 333.50 854.55 C 335.12 855.08 336.61 855.90 338.08 856.78 C 342.22 854.39 346.04 851.48 350.29 849.26 C 354.84 846.95 358.17 842.81 362.93 840.84 C 367.51 837.73 372.18 834.77 376.99 832.03 C 383.24 826.45 391.05 823.08 397.42 817.67 C 402.20 816.10 405.86 812.56 410.12 810.04 C 413.41 807.09 417.99 805.86 420.69 802.23 Z" />
</g>
<g id="#8adb00ff">
<path fill="#8adb00" opacity="1.00" d=" M 530.31 799.51 C 531.38 799.25 532.48 799.06 533.58 798.91 C 535.88 799.98 538.25 801.01 540.19 802.70 C 544.77 806.69 550.27 809.35 555.33 812.66 C 561.84 815.97 567.74 820.32 573.79 824.39 C 577.01 826.93 581.17 827.94 584.12 830.86 C 586.64 833.22 590.52 833.42 592.77 836.14 C 594.54 838.11 596.44 840.10 599.09 840.85 C 603.39 842.19 606.33 845.75 609.92 848.26 C 612.40 849.72 615.23 850.48 617.89 851.57 C 618.81 850.44 619.75 849.33 620.72 848.24 C 620.84 848.69 621.09 849.61 621.22 850.06 C 618.85 854.03 616.10 857.75 613.67 861.68 C 608.48 869.54 603.27 877.39 598.13 885.28 C 596.13 882.96 593.30 881.81 590.75 880.28 C 585.59 875.90 579.45 872.95 573.73 869.41 C 570.36 866.48 566.00 865.16 562.51 862.42 C 558.75 859.99 555.24 857.13 551.14 855.31 C 550.07 854.60 549.38 853.44 548.38 852.67 C 541.71 849.60 536.20 844.57 529.59 841.40 C 524.25 836.94 517.67 834.35 512.55 829.57 C 511.35 830.72 510.53 833.25 508.44 832.55 C 515.75 821.55 522.93 810.46 530.31 799.51 Z" />
</g>
<g id="#b3da00ff">
<path fill="#b3da00" opacity="1.00" d=" M 665.86 823.21 C 671.63 814.56 677.19 805.76 683.09 797.20 C 683.06 798.96 683.02 800.77 683.58 802.48 C 685.40 804.50 688.19 805.17 690.43 806.62 C 695.50 809.92 700.46 813.44 705.88 816.17 C 708.48 817.32 709.73 820.41 712.69 820.95 C 720.50 825.01 727.33 830.75 735.11 834.90 C 738.00 836.43 739.86 840.32 743.53 839.94 C 744.47 839.86 745.10 840.72 745.85 841.20 C 751.42 845.82 757.48 849.84 763.76 853.43 C 765.63 854.61 767.92 854.26 769.98 853.84 C 764.35 862.65 758.45 871.28 752.76 880.05 C 745.94 879.97 741.39 874.19 735.84 871.14 C 731.88 868.30 726.99 866.94 723.52 863.43 C 721.91 861.80 719.33 861.92 717.69 860.39 C 713.02 855.70 706.52 853.67 701.40 849.58 C 696.27 846.74 692.01 842.51 686.56 840.23 C 683.04 838.61 680.78 835.12 677.13 833.72 C 674.18 832.53 671.73 830.43 668.81 829.21 C 666.29 828.41 666.42 825.31 665.86 823.21 Z" />
</g>
<g id="#a3db00ff">
<path fill="#a3db00" opacity="1.00" d=" M 647.82 850.55 C 653.79 841.41 659.85 832.32 665.86 823.21 C 666.42 825.31 666.29 828.41 668.81 829.21 C 671.73 830.43 674.18 832.53 677.13 833.72 C 680.78 835.12 683.04 838.61 686.56 840.23 C 692.01 842.51 696.27 846.74 701.40 849.58 C 706.52 853.67 713.02 855.70 717.69 860.39 C 719.33 861.92 721.91 861.80 723.52 863.43 C 726.99 866.94 731.88 868.30 735.84 871.14 C 741.39 874.19 745.94 879.97 752.76 880.05 C 747.20 888.37 741.78 896.80 736.14 905.07 C 736.08 904.60 735.94 903.67 735.87 903.20 C 734.83 904.35 733.81 905.52 732.81 906.72 C 728.30 903.93 723.22 901.68 719.77 897.53 C 718.98 897.76 718.20 898.01 717.43 898.27 C 714.16 895.64 711.51 892.02 707.40 890.62 C 704.79 889.74 702.98 887.58 700.71 886.13 C 694.36 881.85 687.87 877.77 681.42 873.66 C 675.41 871.38 670.46 867.21 664.94 864.03 C 660.00 861.45 656.08 857.36 651.12 854.83 C 649.36 854.03 648.75 852.07 647.82 850.55 Z" />
</g>
<g id="#77db00ff">
<path fill="#77db00" opacity="1.00" d=" M 512.55 829.57 C 517.67 834.35 524.25 836.94 529.59 841.40 C 536.20 844.57 541.71 849.60 548.38 852.67 C 549.38 853.44 550.07 854.60 551.14 855.31 C 555.24 857.13 558.75 859.99 562.51 862.42 C 566.00 865.16 570.36 866.48 573.73 869.41 C 579.45 872.95 585.59 875.90 590.75 880.28 C 593.30 881.81 596.13 882.96 598.13 885.28 C 589.04 899.10 579.86 912.84 570.80 926.67 C 570.52 924.84 570.18 922.97 568.88 921.57 C 569.04 921.01 569.21 920.47 569.39 919.95 C 567.61 919.68 565.82 919.43 564.05 919.16 C 563.07 917.76 562.08 916.38 561.09 915.02 C 555.78 914.20 552.35 909.49 547.81 907.17 C 545.05 906.75 543.03 904.94 541.09 903.10 C 537.34 901.21 532.86 900.20 530.58 896.31 C 526.00 893.37 521.53 890.20 516.51 887.96 C 516.82 887.23 517.15 886.51 517.47 885.80 C 514.00 886.29 510.99 884.30 509.12 881.51 C 508.39 881.56 507.65 881.61 506.94 881.69 C 505.29 879.00 501.86 878.43 499.64 876.35 C 496.50 873.51 492.43 872.20 488.88 870.03 C 487.92 868.32 488.93 865.98 487.38 864.53 C 488.00 863.53 488.63 862.56 489.28 861.60 C 494.28 854.06 499.26 846.50 504.20 838.92 C 505.59 836.78 507.00 834.65 508.44 832.55 C 510.53 833.25 511.35 830.72 512.55 829.57 Z" />
</g>
<g id="#00a75fff">
<path fill="#00a75f" opacity="1.00" d=" M 484.22 850.50 C 489.84 845.96 496.04 842.20 502.05 838.21 C 502.59 838.39 503.66 838.74 504.20 838.92 C 499.26 846.50 494.28 854.06 489.28 861.60 C 485.78 856.30 482.02 851.16 478.89 845.64 C 481.22 846.58 482.88 848.43 484.22 850.50 Z" />
</g>
<g id="#00ad6dff">
<path fill="#00ad6d" opacity="1.00" d=" M 448.07 844.13 C 447.37 842.18 446.95 840.15 446.78 838.10 C 452.47 845.98 457.61 854.26 462.96 862.38 C 462.56 863.91 462.79 866.11 461.04 866.86 C 457.37 868.77 454.06 871.22 450.77 873.69 C 444.58 877.00 439.28 881.68 433.12 885.04 C 428.34 887.51 424.70 891.66 419.77 893.90 C 408.02 901.77 395.78 908.91 384.50 917.47 C 382.36 919.13 379.99 920.53 377.32 921.14 L 377.23 921.17 C 371.48 912.28 365.53 903.52 359.82 894.60 C 362.82 894.24 363.58 898.16 365.34 899.89 C 369.79 895.25 375.28 891.75 381.02 888.94 C 385.11 886.53 388.57 883.17 392.77 880.94 C 396.74 878.99 399.91 875.77 403.93 873.92 C 408.81 871.68 411.98 866.95 417.04 865.02 C 419.81 863.90 421.36 861.01 424.18 859.97 C 426.59 858.95 428.83 857.59 430.85 855.94 C 436.31 851.60 442.77 848.66 448.07 844.13 Z" />
</g>
<g id="#92db00ff">
<path fill="#92db00" opacity="1.00" d=" M 627.00 881.85 C 634.16 871.58 640.81 860.93 647.82 850.55 C 648.75 852.07 649.36 854.03 651.12 854.83 C 656.08 857.36 660.00 861.45 664.94 864.03 C 670.46 867.21 675.41 871.38 681.42 873.66 C 687.87 877.77 694.36 881.85 700.71 886.13 C 702.98 887.58 704.79 889.74 707.40 890.62 C 711.51 892.02 714.16 895.64 717.43 898.27 C 718.20 898.01 718.98 897.76 719.77 897.53 C 723.22 901.68 728.30 903.93 732.81 906.72 C 733.81 905.52 734.83 904.35 735.87 903.20 C 735.94 903.67 736.08 904.60 736.14 905.07 C 729.55 915.41 722.68 925.58 715.90 935.79 C 713.50 934.99 712.52 937.78 711.11 939.11 C 708.01 936.67 704.90 934.14 701.10 932.91 C 698.82 932.37 697.62 930.35 696.07 928.82 C 689.22 924.77 682.13 921.06 675.78 916.23 C 665.79 911.17 657.20 903.79 647.17 898.82 C 643.67 895.45 639.45 892.85 635.03 890.97 C 632.68 888.52 629.60 887.00 627.29 884.53 C 624.44 888.81 622.07 893.49 618.36 897.13 L 617.73 896.11 C 620.80 891.34 624.11 886.73 627.00 881.85 Z" />
</g>
<g id="#00870bff">
<path fill="#00870b" opacity="1.00" d=" M 598.13 885.28 C 603.27 877.39 608.48 869.54 613.67 861.68 C 618.26 868.30 622.69 875.04 627.00 881.85 C 624.11 886.73 620.80 891.34 617.73 896.11 C 610.52 906.85 603.50 917.72 596.37 928.51 C 585.82 944.21 575.59 960.13 565.04 975.83 C 560.00 969.63 555.99 962.55 551.52 955.90 C 557.99 946.18 564.40 936.43 570.80 926.67 C 579.86 912.84 589.04 899.10 598.13 885.28 Z" />
</g>
<g id="#00a456ff">
<path fill="#00a456" opacity="1.00" d=" M 461.04 866.86 C 462.79 866.11 462.56 863.91 462.96 862.38 C 467.39 868.82 471.59 875.41 475.89 881.94 C 472.61 886.70 469.48 891.57 466.28 896.38 C 466.48 894.93 466.65 893.51 466.82 892.08 C 459.50 896.20 452.49 900.87 445.65 905.74 C 438.76 909.70 432.41 914.45 425.67 918.63 C 421.90 921.72 417.07 923.16 413.44 926.45 C 407.05 931.79 399.74 935.80 393.04 940.69 C 391.89 939.76 390.84 938.05 389.16 939.08 C 385.17 933.12 381.15 927.19 377.32 921.14 C 379.99 920.53 382.36 919.13 384.50 917.47 C 395.78 908.91 408.02 901.77 419.77 893.90 C 424.70 891.66 428.34 887.51 433.12 885.04 C 439.28 881.68 444.58 877.00 450.77 873.69 C 454.06 871.22 457.37 868.77 461.04 866.86 Z" />
</g>
<g id="#60dc00ff">
<path fill="#60dc00" opacity="1.00" d=" M 487.38 864.53 C 488.93 865.98 487.92 868.32 488.88 870.03 C 492.43 872.20 496.50 873.51 499.64 876.35 C 501.86 878.43 505.29 879.00 506.94 881.69 C 507.65 881.61 508.39 881.56 509.12 881.51 C 510.99 884.30 514.00 886.29 517.47 885.80 C 517.15 886.51 516.82 887.23 516.51 887.96 C 521.53 890.20 526.00 893.37 530.58 896.31 C 532.86 900.20 537.34 901.21 541.09 903.10 C 543.03 904.94 545.05 906.75 547.81 907.17 C 552.35 909.49 555.78 914.20 561.09 915.02 C 562.08 916.38 563.07 917.76 564.05 919.16 C 565.82 919.43 567.61 919.68 569.39 919.95 C 569.21 920.47 569.04 921.01 568.88 921.57 C 570.18 922.97 570.52 924.84 570.80 926.67 C 564.40 936.43 557.99 946.18 551.52 955.90 C 547.07 962.44 542.74 969.07 538.42 975.72 C 496.88 975.92 455.32 975.55 413.78 975.91 C 418.89 968.24 423.96 960.54 429.04 952.86 C 441.40 934.00 453.93 915.25 466.28 896.38 C 469.48 891.57 472.61 886.70 475.89 881.94 C 479.69 876.12 483.47 870.28 487.38 864.53 Z" />
</g>
<g id="#7ddb00ff">
<path fill="#7ddb00" opacity="1.00" d=" M 627.29 884.53 C 629.60 887.00 632.68 888.52 635.03 890.97 C 639.45 892.85 643.67 895.45 647.17 898.82 C 657.20 903.79 665.79 911.17 675.78 916.23 C 682.13 921.06 689.22 924.77 696.07 928.82 C 697.62 930.35 698.82 932.37 701.10 932.91 C 704.90 934.14 708.01 936.67 711.11 939.11 C 712.52 937.78 713.50 934.99 715.90 935.79 C 707.41 948.94 698.65 961.91 690.13 975.03 C 685.09 974.60 680.04 974.97 675.00 974.72 C 673.34 974.74 672.26 973.31 671.02 972.45 C 670.11 972.45 669.20 972.47 668.30 972.50 C 667.00 969.86 664.39 968.58 661.75 967.66 C 661.68 966.90 661.61 966.16 661.56 965.42 C 660.23 965.43 658.90 965.49 657.60 965.34 C 655.63 964.08 654.21 962.15 652.23 960.92 C 646.67 957.54 641.59 953.39 635.80 950.39 C 632.21 949.02 630.09 945.28 626.08 944.86 C 622.32 942.25 618.31 940.04 614.60 937.36 C 612.10 935.64 608.99 934.56 607.51 931.72 C 607.18 931.88 606.54 932.19 606.22 932.35 C 603.97 930.94 602.02 929.13 599.87 927.60 C 598.71 927.94 597.55 928.26 596.37 928.51 C 603.50 917.72 610.52 906.85 617.73 896.11 L 618.36 897.13 C 622.07 893.49 624.44 888.81 627.29 884.53 Z" />
</g>
<g id="#009c42ff">
<path fill="#009c42" opacity="1.00" d=" M 445.65 905.74 C 452.49 900.87 459.50 896.20 466.82 892.08 C 466.65 893.51 466.48 894.93 466.28 896.38 C 453.93 915.25 441.40 934.00 429.04 952.86 C 428.49 952.65 427.40 952.23 426.85 952.02 C 420.68 956.16 414.36 960.09 408.41 964.56 C 407.40 963.29 406.38 962.04 405.35 960.81 C 405.25 961.35 405.04 962.44 404.93 962.98 C 399.59 955.06 394.34 947.09 389.16 939.08 C 390.84 938.05 391.89 939.76 393.04 940.69 C 399.74 935.80 407.05 931.79 413.44 926.45 C 417.07 923.16 421.90 921.72 425.67 918.63 C 432.41 914.45 438.76 909.70 445.65 905.74 Z" />
</g>
<g id="#6cdc00ff">
<path fill="#6cdc00" opacity="1.00" d=" M 596.37 928.51 C 597.55 928.26 598.71 927.94 599.87 927.60 C 602.02 929.13 603.97 930.94 606.22 932.35 C 606.54 932.19 607.18 931.88 607.51 931.72 C 608.99 934.56 612.10 935.64 614.60 937.36 C 618.31 940.04 622.32 942.25 626.08 944.86 C 630.09 945.28 632.21 949.02 635.80 950.39 C 641.59 953.39 646.67 957.54 652.23 960.92 C 654.21 962.15 655.63 964.08 657.60 965.34 C 658.90 965.49 660.23 965.43 661.56 965.42 C 661.61 966.16 661.68 966.90 661.75 967.66 C 664.39 968.58 667.00 969.86 668.30 972.50 C 669.20 972.47 670.11 972.45 671.02 972.45 C 672.26 973.31 673.34 974.74 675.00 974.72 C 680.04 974.97 685.09 974.60 690.13 975.03 C 689.84 975.20 689.27 975.55 688.98 975.73 C 647.67 975.87 606.35 975.64 565.04 975.83 C 575.59 960.13 585.82 944.21 596.37 928.51 Z" />
</g>
<g id="#00942fff">
<path fill="#00942f" opacity="1.00" d=" M 408.41 964.56 C 414.36 960.09 420.68 956.16 426.85 952.02 C 427.40 952.23 428.49 952.65 429.04 952.86 C 423.96 960.54 418.89 968.24 413.78 975.91 C 410.33 971.99 407.85 967.29 404.93 962.98 C 405.04 962.44 405.25 961.35 405.35 960.81 C 406.38 962.04 407.40 963.29 408.41 964.56 Z" />
</g>
</svg>
