<?xml version="1.0" encoding="UTF-8" ?>
<!DOCTYPE svg PUBLIC "-//W3C//DTD SVG 1.1//EN" "http://www.w3.org/Graphics/SVG/1.1/DTD/svg11.dtd">
<svg width="1276pt" height="1276pt" viewBox="0 0 1276 1276" version="1.1" xmlns="http://www.w3.org/2000/svg">
<g id="#ffffffff">
<path fill="#ffffff" opacity="1.00" d=" M 229.96 188.00 C 238.11 185.70 246.62 185.36 255.02 185.04 C 322.11 185.07 389.20 185.04 456.29 185.06 C 456.28 226.22 456.29 267.37 456.29 308.53 C 439.23 308.47 422.17 308.53 405.11 308.50 C 405.19 283.61 405.11 258.72 405.15 233.82 C 358.75 233.77 312.35 233.84 265.95 233.79 C 258.61 233.82 250.80 236.16 245.97 242.00 C 239.87 249.14 238.51 258.92 237.82 267.96 C 237.78 371.65 237.81 475.33 237.80 579.02 C 237.58 590.09 238.04 601.94 243.96 611.67 C 248.52 619.15 257.52 622.51 265.96 622.54 C 312.36 622.50 358.76 622.60 405.15 622.48 C 405.07 595.92 405.25 569.35 405.07 542.78 C 422.15 542.73 439.23 542.76 456.31 542.76 C 456.26 585.49 456.29 628.22 456.29 670.94 C 387.18 670.95 318.06 670.93 248.94 670.95 C 232.44 670.49 215.29 665.55 203.15 653.90 C 192.01 643.51 186.21 628.60 184.17 613.75 C 182.62 604.25 183.13 594.60 183.05 585.02 C 183.05 475.00 183.05 364.99 183.05 254.97 C 183.61 238.62 187.37 221.67 197.58 208.51 C 205.50 198.09 217.35 191.12 229.96 188.00 Z" />
<path fill="#ffffff" opacity="1.00" d=" M 484.64 185.06 C 560.75 185.04 636.86 185.07 712.98 185.04 C 728.76 185.01 745.29 187.20 758.78 196.00 C 772.13 204.25 780.65 218.67 784.16 233.71 C 787.84 247.50 786.87 261.85 787.00 275.97 C 786.99 309.30 786.92 342.64 787.07 375.97 C 786.51 394.66 781.70 414.45 768.15 428.11 C 755.42 441.13 736.74 446.05 719.01 446.56 C 673.33 446.63 627.65 446.53 581.97 446.62 C 582.21 505.26 582.03 563.90 582.06 622.54 C 596.75 622.55 611.45 622.47 626.14 622.58 C 625.89 636.38 626.33 650.20 625.98 664.00 C 626.12 666.26 626.14 668.53 626.15 670.81 C 578.99 671.13 531.81 670.86 484.64 670.94 C 484.65 654.79 484.64 638.65 484.64 622.50 C 498.84 622.55 513.04 622.56 527.25 622.50 C 527.20 492.94 527.22 363.38 527.24 233.81 C 513.03 233.79 498.83 233.82 484.63 233.80 C 484.65 217.55 484.64 201.31 484.64 185.06 M 582.03 233.82 C 582.07 288.44 582.20 343.08 581.96 397.71 C 622.64 397.83 663.31 397.70 703.99 397.77 C 711.28 397.92 719.05 395.58 723.90 389.87 C 730.09 382.80 731.53 373.02 732.19 363.99 C 732.20 335.65 732.19 307.32 732.20 278.98 C 732.42 267.42 732.34 255.06 726.25 244.81 C 721.78 237.56 713.26 233.92 704.96 233.80 C 663.98 233.81 623.01 233.79 582.03 233.82 Z" />
<path fill="#ffffff" opacity="1.00" d=" M 866.85 187.94 C 877.96 184.97 889.56 185.02 900.97 185.05 C 964.97 185.07 1028.98 185.02 1092.98 185.08 C 1092.91 226.23 1092.95 267.37 1092.96 308.51 C 1075.76 308.51 1058.57 308.48 1041.38 308.53 C 1041.41 283.62 1041.35 258.72 1041.40 233.81 C 996.93 233.80 952.47 233.81 908.00 233.81 C 899.32 233.38 889.44 234.43 883.27 241.27 C 875.40 249.75 874.73 262.05 874.23 273.01 C 874.23 364.67 874.23 456.33 874.23 547.99 C 874.41 562.33 873.80 576.70 874.65 591.02 C 875.45 599.90 877.40 609.51 884.10 615.93 C 889.59 621.21 897.62 622.69 905.00 622.55 C 950.46 622.54 995.93 622.50 1041.39 622.56 C 1041.32 595.98 1041.50 569.40 1041.30 542.82 C 1058.53 542.68 1075.76 542.78 1092.99 542.77 C 1092.90 585.48 1092.93 628.20 1092.98 670.92 C 1023.65 670.98 954.32 670.92 885.00 670.95 C 871.31 670.40 857.33 667.05 846.01 659.06 C 835.88 652.08 828.53 641.52 824.64 629.92 C 821.62 621.60 820.34 612.77 819.72 603.99 C 819.70 486.99 819.73 369.99 819.70 252.99 C 820.54 237.49 824.28 221.51 833.82 208.94 C 841.79 198.20 853.95 191.05 866.85 187.94 Z" />
</g>
<g id="#ff4864ff">
<path fill="#ff4864" opacity="1.00" d=" M 326.81 769.16 C 336.14 767.89 345.57 768.06 354.97 768.06 C 390.31 768.06 425.65 768.07 461.00 768.06 C 461.00 815.04 461.00 862.02 461.00 909.00 C 369.12 909.00 277.24 909.01 185.37 908.99 C 189.81 874.36 205.85 841.30 230.43 816.48 C 255.88 790.32 290.54 773.31 326.81 769.16 Z" />
<path fill="#ff4864" opacity="1.00" d=" M 185.47 952.01 C 277.32 951.99 369.16 952.00 461.00 952.00 C 461.00 998.65 461.00 1045.29 461.00 1091.94 C 421.96 1091.93 382.93 1091.95 343.90 1091.93 C 312.37 1091.72 281.05 1081.78 254.99 1064.06 C 217.34 1038.77 191.45 996.96 185.47 952.01 Z" />
</g>
<g id="#2dad5fff">
<path fill="#2dad5f" opacity="1.00" d=" M 508.01 768.06 C 591.00 768.06 674.00 768.08 756.99 768.07 C 757.01 815.05 757.00 862.02 757.00 909.00 C 674.00 909.00 591.00 909.00 508.00 909.00 C 508.00 862.02 507.99 815.04 508.01 768.06 Z" />
<path fill="#2dad5f" opacity="1.00" d=" M 508.00 952.00 C 591.00 952.00 674.00 952.00 757.00 952.00 C 757.00 998.64 757.01 1045.29 756.99 1091.93 C 674.00 1091.92 591.00 1091.94 508.01 1091.94 C 507.99 1045.29 508.00 998.65 508.00 952.00 Z" />
</g>
<g id="#48a1ffff">
<path fill="#48a1ff" opacity="1.00" d=" M 803.01 768.07 C 845.68 768.08 888.36 768.07 931.04 768.07 C 972.80 768.29 1014.13 785.73 1043.50 815.41 C 1068.68 840.34 1085.12 873.86 1089.64 908.99 C 994.09 909.01 898.55 909.00 803.00 909.00 C 803.00 862.02 802.99 815.04 803.01 768.07 Z" />
<path fill="#48a1ff" opacity="1.00" d=" M 803.00 952.00 C 898.51 952.00 994.02 951.99 1089.53 952.01 C 1084.71 987.23 1068.01 1020.78 1042.50 1045.58 C 1013.22 1074.66 972.34 1091.70 931.06 1091.93 C 888.37 1091.93 845.69 1091.93 803.00 1091.93 C 802.99 1045.29 803.00 998.64 803.00 952.00 Z" />
</g>
</svg>
