<?xml version="1.0" encoding="UTF-8" ?>
<!DOCTYPE svg PUBLIC "-//W3C//DTD SVG 1.1//EN" "http://www.w3.org/Graphics/SVG/1.1/DTD/svg11.dtd">
<svg width="1276pt" height="1276pt" viewBox="0 0 1276 1276" version="1.1" xmlns="http://www.w3.org/2000/svg">
<g id="#ff4864ff">
<path fill="#ff4864" opacity="1.00" d=" M 161.92 504.90 C 197.04 468.46 247.45 447.52 298.03 448.00 C 342.68 448.01 387.34 448.01 432.00 448.01 C 432.00 502.67 432.00 557.33 432.00 612.00 C 324.54 611.99 217.08 612.02 109.61 611.98 C 115.00 571.93 133.44 533.63 161.92 504.90 Z" />
<path fill="#ff4864" opacity="1.00" d=" M 109.76 663.00 C 217.17 663.00 324.58 663.00 432.00 663.00 C 432.00 717.33 432.00 771.66 432.00 825.99 C 387.67 825.99 343.35 825.99 299.03 826.00 C 281.81 826.15 264.57 824.03 247.95 819.52 C 210.86 809.66 177.03 788.09 152.40 758.67 C 129.50 731.67 114.67 698.03 109.76 663.00 Z" />
</g>
<g id="#2dad5fff">
<path fill="#2dad5f" opacity="1.00" d=" M 486.00 448.01 C 583.00 448.00 680.00 448.03 777.00 448.02 C 777.00 502.68 777.00 557.34 777.00 612.00 C 680.00 612.00 583.00 612.00 486.00 612.00 C 486.00 557.34 486.00 502.67 486.00 448.01 Z" />
<path fill="#2dad5f" opacity="1.00" d=" M 486.00 663.00 C 583.00 663.00 680.00 663.00 777.00 663.00 C 777.00 717.33 777.00 771.65 777.00 825.98 C 680.00 825.97 583.00 826.00 486.00 825.99 C 486.00 771.66 486.00 717.33 486.00 663.00 Z" />
</g>
<g id="#48a1ffff">
<path fill="#48a1ff" opacity="1.00" d=" M 831.00 448.02 C 878.34 448.02 925.68 448.02 973.02 448.02 C 987.06 447.76 1001.15 448.86 1014.93 451.63 C 1056.68 459.84 1095.34 482.70 1122.61 515.35 C 1145.73 542.59 1160.60 576.61 1165.39 611.99 C 1053.92 612.02 942.46 611.99 831.00 612.00 C 831.00 557.34 831.00 502.68 831.00 448.02 Z" />
<path fill="#48a1ff" opacity="1.00" d=" M 831.00 663.00 C 942.42 663.00 1053.83 663.00 1165.24 663.00 C 1159.64 703.15 1140.89 741.46 1112.12 770.08 C 1082.22 800.59 1041.50 820.17 999.06 824.82 C 990.42 825.85 981.71 826.07 973.03 825.98 C 925.69 825.98 878.34 825.98 831.00 825.98 C 831.00 771.65 831.00 717.33 831.00 663.00 Z" />
</g>
</svg>
