<?xml version="1.0" encoding="UTF-8" ?>
<!DOCTYPE svg PUBLIC "-//W3C//DTD SVG 1.1//EN" "http://www.w3.org/Graphics/SVG/1.1/DTD/svg11.dtd">
<svg width="1276pt" height="1276pt" viewBox="0 0 1276 1276" version="1.1" xmlns="http://www.w3.org/2000/svg">
<g id="#d1e19bff">
<path fill="#d1e19b" opacity="1.00" d=" M 262.12 207.17 C 293.33 186.74 330.64 175.64 367.96 176.07 C 541.30 176.06 714.63 176.07 887.97 176.07 C 903.65 176.15 919.44 175.48 934.98 178.03 C 982.31 184.77 1026.58 210.20 1056.47 247.49 C 1062.08 254.40 1067.09 261.77 1071.78 269.33 L 1071.50 269.28 C 1069.09 268.65 1066.61 268.90 1064.19 269.24 C 1060.30 264.26 1057.15 258.75 1053.15 253.85 C 1050.34 250.46 1048.32 246.31 1044.84 243.56 C 1042.21 243.68 1039.57 244.58 1037.00 243.68 C 1035.21 242.93 1033.76 244.40 1032.37 245.27 C 1031.99 244.97 1031.23 244.38 1030.84 244.08 C 1030.49 244.86 1030.13 245.64 1029.82 246.43 C 1005.84 223.81 975.73 207.79 943.61 200.41 C 927.37 196.61 910.64 195.25 893.99 195.59 C 720.98 195.59 547.98 195.59 374.97 195.58 C 350.63 195.32 326.25 199.78 303.62 208.73 C 274.67 220.13 248.71 238.89 228.69 262.70 C 227.45 259.35 231.57 257.47 233.03 254.93 C 231.10 255.35 229.14 256.51 227.13 255.84 C 224.69 255.20 222.17 255.44 219.70 255.68 C 211.41 266.83 204.47 278.89 198.74 291.54 C 197.40 289.23 194.47 288.67 193.21 286.30 C 208.30 254.24 232.40 226.48 262.12 207.17 Z" />
</g>
<g id="#a4c439ff">
<path fill="#a4c439" opacity="1.00" d=" M 303.62 208.73 C 326.25 199.78 350.63 195.32 374.97 195.58 C 547.98 195.59 720.98 195.59 893.99 195.59 C 910.64 195.25 927.37 196.61 943.61 200.41 C 975.73 207.79 1005.84 223.81 1029.82 246.43 C 1046.33 261.95 1059.98 280.43 1070.08 300.71 C 1082.27 325.91 1088.87 353.70 1089.37 381.68 C 1088.95 405.45 1089.37 429.24 1089.29 453.02 C 1089.32 486.84 1089.41 520.65 1089.42 554.47 C 1088.59 564.96 1089.31 575.50 1089.11 586.01 C 1089.09 613.41 1089.42 640.82 1089.18 668.22 C 1076.89 656.71 1065.30 644.47 1053.28 632.67 C 984.59 564.00 915.91 495.32 847.21 426.66 C 814.45 394.03 781.91 361.19 749.05 328.67 C 747.96 327.18 746.96 325.38 745.00 324.97 C 742.22 323.98 739.52 326.20 738.43 328.62 C 729.64 344.73 720.80 360.82 712.00 376.93 C 670.05 358.18 621.03 356.13 577.54 370.82 C 577.48 370.51 577.35 369.90 577.28 369.59 C 563.65 356.39 550.37 342.82 536.83 329.52 L 536.74 330.90 C 535.39 328.81 534.51 325.97 531.92 325.13 C 527.88 323.34 523.04 328.62 525.54 332.43 C 534.41 348.79 543.30 365.16 552.44 381.37 C 524.98 395.77 500.96 417.19 485.15 444.01 C 471.71 466.75 463.94 493.18 464.48 519.67 C 464.86 520.03 465.60 520.74 465.97 521.09 C 471.98 526.94 478.63 532.11 484.32 538.28 C 478.11 538.31 471.90 538.33 465.70 538.27 C 465.63 548.51 465.70 558.76 465.68 569.01 C 459.44 562.73 453.10 556.54 447.16 549.99 C 446.21 548.98 445.05 548.22 443.96 547.42 C 436.47 537.07 423.87 530.37 410.98 531.18 C 391.67 531.36 374.41 548.58 374.27 567.91 C 374.18 621.94 374.24 675.98 374.24 730.01 C 373.96 742.68 380.93 754.78 391.27 761.88 C 392.94 765.02 395.95 767.04 398.40 769.52 C 438.10 808.17 477.78 846.84 517.49 885.48 C 523.27 890.78 528.46 896.72 534.53 901.72 C 534.76 908.79 533.87 916.03 535.87 922.93 C 538.36 932.09 544.41 940.15 552.42 945.22 C 552.40 947.69 555.21 948.74 556.61 950.43 C 600.98 993.44 645.12 1036.67 689.56 1079.61 C 686.21 1080.97 682.52 1080.24 679.01 1080.39 C 575.33 1080.34 471.65 1080.43 367.97 1080.35 C 334.83 1079.53 301.87 1069.85 273.75 1052.26 C 253.24 1039.39 235.16 1022.76 220.73 1003.32 C 218.09 998.70 214.81 994.50 212.04 989.97 C 206.97 981.80 203.02 973.02 198.78 964.41 C 197.48 959.27 195.10 954.48 193.63 949.39 C 189.91 938.13 187.44 926.49 186.02 914.72 C 185.98 910.11 184.90 905.58 184.97 900.97 C 184.99 850.65 184.91 800.32 185.00 750.00 C 185.09 738.88 185.72 727.71 184.75 716.62 C 184.94 688.42 184.92 660.23 185.07 632.03 C 185.05 629.87 184.83 627.72 184.66 625.58 C 184.89 595.37 184.79 565.16 184.94 534.95 C 184.82 524.25 185.30 513.54 184.73 502.85 C 184.32 473.90 184.75 444.92 184.66 415.96 C 184.93 393.30 183.49 370.39 188.15 348.04 C 194.06 316.71 208.44 287.24 228.69 262.70 C 248.71 238.89 274.67 220.13 303.62 208.73 Z" />
<path fill="#a4c439" opacity="1.00" d=" M 552.43 424.56 C 557.91 422.71 564.22 423.59 569.00 426.87 C 574.20 430.39 577.47 436.64 577.27 442.94 C 577.16 449.17 573.72 455.22 568.44 458.52 C 562.51 462.31 554.40 462.40 548.45 458.59 C 542.83 455.18 539.23 448.65 539.50 442.06 C 539.52 434.26 545.03 426.92 552.43 424.56 Z" />
<path fill="#a4c439" opacity="1.00" d=" M 710.23 424.36 C 719.37 421.46 730.01 426.78 733.22 435.81 C 736.26 443.51 733.46 452.99 726.69 457.77 C 720.48 462.45 711.33 462.63 704.96 458.18 C 699.43 454.50 696.13 447.73 696.70 441.10 C 697.17 433.42 702.83 426.44 710.23 424.36 Z" />
</g>
<g id="#ccde90ff">
<path fill="#ccde90" opacity="1.00" d=" M 1032.37 245.27 C 1033.76 244.40 1035.21 242.93 1037.00 243.68 C 1039.57 244.58 1042.21 243.68 1044.84 243.56 C 1048.32 246.31 1050.34 250.46 1053.15 253.85 C 1057.15 258.75 1060.30 264.26 1064.19 269.24 C 1066.61 268.90 1069.09 268.65 1071.50 269.28 C 1081.97 285.97 1089.23 304.64 1093.84 323.78 C 1092.36 324.14 1090.91 324.50 1089.46 324.87 C 1089.83 323.97 1090.22 323.07 1090.61 322.17 C 1089.44 321.91 1088.30 321.65 1087.17 321.38 C 1086.69 322.34 1086.21 323.29 1085.75 324.25 C 1083.64 317.98 1082.41 311.43 1079.80 305.34 C 1077.61 300.22 1075.91 294.90 1073.29 289.98 C 1073.44 291.75 1073.51 293.54 1073.45 295.33 C 1072.53 294.13 1071.65 292.91 1070.80 291.69 C 1069.84 292.19 1068.93 292.73 1068.05 293.33 C 1068.55 293.55 1069.56 294.00 1070.06 294.22 C 1069.79 296.39 1070.72 298.56 1070.08 300.71 C 1059.98 280.43 1046.33 261.95 1029.82 246.43 C 1030.13 245.64 1030.49 244.86 1030.84 244.08 C 1031.23 244.38 1031.99 244.97 1032.37 245.27 Z" />
</g>
<g id="#c7db85ff">
<path fill="#c7db85" opacity="1.00" d=" M 219.70 255.68 C 222.17 255.44 224.69 255.20 227.13 255.84 C 229.14 256.51 231.10 255.35 233.03 254.93 C 231.57 257.47 227.45 259.35 228.69 262.70 C 208.44 287.24 194.06 316.71 188.15 348.04 C 183.49 370.39 184.93 393.30 184.66 415.96 C 184.75 444.92 184.32 473.90 184.73 502.85 L 183.95 502.97 C 183.70 493.00 184.02 483.03 183.67 473.06 C 182.70 462.85 183.60 452.57 182.71 442.35 C 181.44 441.51 180.17 440.67 178.91 439.83 C 177.82 441.09 175.98 442.11 175.95 443.97 C 175.44 452.07 176.60 460.28 175.16 468.32 C 174.99 434.89 175.13 401.45 175.07 368.01 C 174.89 339.87 181.27 311.76 193.21 286.30 C 194.47 288.67 197.40 289.23 198.74 291.54 C 204.47 278.89 211.41 266.83 219.70 255.68 Z" />
</g>
<g id="#c8db87ff">
<path fill="#c8db87" opacity="1.00" d=" M 1073.29 289.98 C 1075.91 294.90 1077.61 300.22 1079.80 305.34 C 1082.41 311.43 1083.64 317.98 1085.75 324.25 C 1086.21 323.29 1086.69 322.34 1087.17 321.38 C 1088.30 321.65 1089.44 321.91 1090.61 322.17 C 1090.22 323.07 1089.83 323.97 1089.46 324.87 C 1090.91 324.50 1092.36 324.14 1093.84 323.78 C 1096.70 336.40 1098.82 349.34 1098.67 362.30 C 1097.40 367.11 1098.42 372.10 1097.78 376.98 C 1097.35 376.05 1096.92 375.13 1096.48 374.22 C 1096.14 375.51 1095.71 376.78 1095.31 378.05 C 1094.66 376.01 1094.02 373.48 1091.28 374.04 C 1091.54 384.02 1090.82 394.01 1091.00 404.00 C 1090.99 408.01 1091.17 412.04 1090.60 416.03 C 1089.23 404.64 1091.08 393.03 1089.37 381.68 C 1088.87 353.70 1082.27 325.91 1070.08 300.71 C 1070.72 298.56 1069.79 296.39 1070.06 294.22 C 1069.56 294.00 1068.55 293.55 1068.05 293.33 C 1068.93 292.73 1069.84 292.19 1070.80 291.69 C 1071.65 292.91 1072.53 294.13 1073.45 295.33 C 1073.51 293.54 1073.44 291.75 1073.29 289.98 Z" />
</g>
<g id="#ffffffff">
<path fill="#ffffff" opacity="1.00" d=" M 525.54 332.43 C 523.04 328.62 527.88 323.34 531.92 325.13 C 534.51 325.97 535.39 328.81 536.74 330.90 C 545.14 346.24 553.57 361.57 561.99 376.90 C 567.06 374.59 572.26 372.59 577.54 370.82 C 621.03 356.13 670.05 358.18 712.00 376.93 C 720.80 360.82 729.64 344.73 738.43 328.62 C 739.52 326.20 742.22 323.98 745.00 324.97 C 746.96 325.38 747.96 327.18 749.05 328.67 C 749.00 330.69 748.50 332.66 747.42 334.37 C 738.71 350.00 730.37 365.83 721.51 381.37 C 749.16 395.96 773.35 417.65 789.12 444.79 C 802.36 467.37 809.69 493.50 809.46 519.71 C 694.47 519.42 579.48 519.63 464.48 519.67 C 463.94 493.18 471.71 466.75 485.15 444.01 C 500.96 417.19 524.98 395.77 552.44 381.37 C 543.30 365.16 534.41 348.79 525.54 332.43 M 552.43 424.56 C 545.03 426.92 539.52 434.26 539.50 442.06 C 539.23 448.65 542.83 455.18 548.45 458.59 C 554.40 462.40 562.51 462.31 568.44 458.52 C 573.72 455.22 577.16 449.17 577.27 442.94 C 577.47 436.64 574.20 430.39 569.00 426.87 C 564.22 423.59 557.91 422.71 552.43 424.56 M 710.23 424.36 C 702.83 426.44 697.17 433.42 696.70 441.10 C 696.13 447.73 699.43 454.50 704.96 458.18 C 711.33 462.63 720.48 462.45 726.69 457.77 C 733.46 452.99 736.26 443.51 733.22 435.81 C 730.01 426.78 719.37 421.46 710.23 424.36 Z" />
<path fill="#ffffff" opacity="1.00" d=" M 374.27 567.91 C 374.41 548.58 391.67 531.36 410.98 531.18 C 423.87 530.37 436.47 537.07 443.96 547.42 C 448.18 553.78 450.84 561.27 450.76 568.97 C 450.78 622.66 450.77 676.35 450.76 730.03 C 450.99 743.12 443.64 755.80 432.53 762.58 C 420.12 770.39 403.44 769.95 391.27 761.88 C 380.93 754.78 373.96 742.68 374.24 730.01 C 374.24 675.98 374.18 621.94 374.27 567.91 Z" />
<path fill="#ffffff" opacity="1.00" d=" M 853.65 531.80 C 861.81 530.32 870.55 531.02 878.03 534.81 C 888.49 539.76 896.41 549.69 898.90 560.99 C 899.98 565.57 899.72 570.30 899.75 574.96 C 899.76 624.31 899.78 673.67 899.79 723.02 C 899.77 726.79 899.90 730.57 899.56 734.34 C 898.23 746.84 890.13 758.28 878.96 763.96 C 871.35 767.85 862.41 769.21 854.03 767.43 C 836.33 764.17 822.39 747.12 823.22 729.05 C 823.21 677.06 823.21 625.06 823.18 573.07 C 823.11 568.03 823.20 562.88 824.82 558.05 C 828.77 544.95 840.27 534.57 853.65 531.80 Z" />
<path fill="#ffffff" opacity="1.00" d=" M 465.70 538.27 C 471.90 538.33 478.11 538.31 484.32 538.28 C 592.33 538.18 700.33 538.34 808.34 538.20 C 808.45 620.80 808.37 703.40 808.43 786.01 C 808.68 796.45 804.80 806.95 797.66 814.60 C 790.15 822.83 779.17 827.89 768.00 827.84 C 758.52 827.86 749.04 827.87 739.57 827.87 C 739.52 854.25 739.56 880.63 739.55 907.01 C 739.64 913.01 739.66 919.16 737.62 924.89 C 732.40 941.28 715.19 952.79 698.03 951.06 C 684.69 950.02 672.32 941.41 666.63 929.31 C 663.48 923.05 662.64 915.93 662.84 909.01 C 662.86 881.96 662.87 854.92 662.84 827.87 C 645.62 827.86 628.41 827.86 611.19 827.87 C 611.14 854.24 611.18 880.61 611.17 906.98 C 611.29 913.26 611.18 919.72 608.92 925.67 C 604.57 938.26 593.20 948.07 580.11 950.51 C 570.65 952.50 560.51 950.43 552.42 945.22 C 544.41 940.15 538.36 932.09 535.87 922.93 C 533.87 916.03 534.76 908.79 534.53 901.72 C 534.49 877.10 534.54 852.48 534.47 827.87 C 524.97 827.86 515.47 827.88 505.97 827.86 C 492.91 827.92 480.21 820.91 472.87 810.17 C 468.20 803.40 465.68 795.18 465.73 786.96 C 465.73 714.31 465.67 641.66 465.68 569.01 C 465.70 558.76 465.63 548.51 465.70 538.27 Z" />
</g>
<g id="#7d962cff">
<path fill="#7d962c" opacity="1.00" d=" M 749.05 328.67 C 781.91 361.19 814.45 394.03 847.21 426.66 C 915.91 495.32 984.59 564.00 1053.28 632.67 C 1065.30 644.47 1076.89 656.71 1089.18 668.22 L 1089.17 668.83 C 1088.85 705.72 1089.26 742.62 1089.38 779.51 C 1088.27 785.96 1089.12 792.50 1089.04 799.00 C 1089.01 828.00 1089.05 857.00 1089.04 886.00 C 1088.81 893.75 1089.74 901.58 1088.38 909.27 C 1088.10 910.97 1088.18 912.69 1088.21 914.42 C 1085.30 932.88 1081.03 951.25 1073.28 968.33 C 1070.65 973.67 1067.91 978.95 1065.40 984.35 C 1051.86 1007.94 1033.53 1028.76 1011.48 1044.72 C 980.75 1067.11 943.01 1079.75 904.98 1080.36 C 848.66 1080.37 792.33 1080.35 736.00 1080.37 C 720.88 1080.55 705.73 1079.99 690.62 1080.64 C 690.26 1080.27 689.90 1079.93 689.56 1079.61 C 645.12 1036.67 600.98 993.44 556.61 950.43 C 555.21 948.74 552.40 947.69 552.42 945.22 C 560.51 950.43 570.65 952.50 580.11 950.51 C 593.20 948.07 604.57 938.26 608.92 925.67 C 611.18 919.72 611.29 913.26 611.17 906.98 C 611.18 880.61 611.14 854.24 611.19 827.87 C 628.41 827.86 645.62 827.86 662.84 827.87 C 662.87 854.92 662.86 881.96 662.84 909.01 C 662.64 915.93 663.48 923.05 666.63 929.31 C 672.32 941.41 684.69 950.02 698.03 951.06 C 715.19 952.79 732.40 941.28 737.62 924.89 C 739.66 919.16 739.64 913.01 739.55 907.01 C 739.56 880.63 739.52 854.25 739.57 827.87 C 749.04 827.87 758.52 827.86 768.00 827.84 C 779.17 827.89 790.15 822.83 797.66 814.60 C 804.80 806.95 808.68 796.45 808.43 786.01 C 808.37 703.40 808.45 620.80 808.34 538.20 C 700.33 538.34 592.33 538.18 484.32 538.28 C 478.63 532.11 471.98 526.94 465.97 521.09 C 579.30 520.88 692.64 521.06 805.97 521.00 C 807.37 521.14 808.54 520.71 809.46 519.71 C 809.69 493.50 802.36 467.37 789.12 444.79 C 773.35 417.65 749.16 395.96 721.51 381.37 C 730.37 365.83 738.71 350.00 747.42 334.37 C 748.50 332.66 749.00 330.69 749.05 328.67 M 853.65 531.80 C 840.27 534.57 828.77 544.95 824.82 558.05 C 823.20 562.88 823.11 568.03 823.18 573.07 C 823.21 625.06 823.21 677.06 823.22 729.05 C 822.39 747.12 836.33 764.17 854.03 767.43 C 862.41 769.21 871.35 767.85 878.96 763.96 C 890.13 758.28 898.23 746.84 899.56 734.34 C 899.90 730.57 899.77 726.79 899.79 723.02 C 899.78 673.67 899.76 624.31 899.75 574.96 C 899.72 570.30 899.98 565.57 898.90 560.99 C 896.41 549.69 888.49 539.76 878.03 534.81 C 870.55 531.02 861.81 530.32 853.65 531.80 Z" />
<path fill="#7d962c" opacity="1.00" d=" M 536.83 329.52 C 550.37 342.82 563.65 356.39 577.28 369.59 C 577.35 369.90 577.48 370.51 577.54 370.82 C 572.26 372.59 567.06 374.59 561.99 376.90 C 553.57 361.57 545.14 346.24 536.74 330.90 L 536.83 329.52 Z" />
<path fill="#7d962c" opacity="1.00" d=" M 443.96 547.42 C 445.05 548.22 446.21 548.98 447.16 549.99 C 453.10 556.54 459.44 562.73 465.68 569.01 C 465.67 641.66 465.73 714.31 465.73 786.96 C 465.68 795.18 468.20 803.40 472.87 810.17 C 480.21 820.91 492.91 827.92 505.97 827.86 C 515.47 827.88 524.97 827.86 534.47 827.87 C 534.54 852.48 534.49 877.10 534.53 901.72 C 528.46 896.72 523.27 890.78 517.49 885.48 C 477.78 846.84 438.10 808.17 398.40 769.52 C 395.95 767.04 392.94 765.02 391.27 761.88 C 403.44 769.95 420.12 770.39 432.53 762.58 C 443.64 755.80 450.99 743.12 450.76 730.03 C 450.77 676.35 450.78 622.66 450.76 568.97 C 450.84 561.27 448.18 553.78 443.96 547.42 Z" />
</g>
<g id="#c2d87bff">
<path fill="#c2d87b" opacity="1.00" d=" M 1098.67 362.30 L 1098.77 361.80 C 1099.12 397.42 1098.90 433.06 1098.86 468.68 C 1098.42 471.01 1097.74 473.28 1097.06 475.56 C 1095.43 475.28 1093.73 474.41 1092.11 475.06 C 1090.81 475.92 1091.27 477.66 1091.09 478.97 C 1091.04 485.99 1091.07 493.01 1090.94 500.04 C 1089.42 518.48 1090.68 537.03 1089.96 555.51 L 1089.42 554.47 C 1089.41 520.65 1089.32 486.84 1089.29 453.02 C 1089.37 429.24 1088.95 405.45 1089.37 381.68 C 1091.08 393.03 1089.23 404.64 1090.60 416.03 C 1091.17 412.04 1090.99 408.01 1091.00 404.00 C 1090.82 394.01 1091.54 384.02 1091.28 374.04 C 1094.02 373.48 1094.66 376.01 1095.31 378.05 C 1095.71 376.78 1096.14 375.51 1096.48 374.22 C 1096.92 375.13 1097.35 376.05 1097.78 376.98 C 1098.42 372.10 1097.40 367.11 1098.67 362.30 Z" />
</g>
<g id="#bcd46eff">
<path fill="#bcd46e" opacity="1.00" d=" M 175.95 443.97 C 175.98 442.11 177.82 441.09 178.91 439.83 C 180.17 440.67 181.44 441.51 182.71 442.35 C 183.60 452.57 182.70 462.85 183.67 473.06 C 184.02 483.03 183.70 493.00 183.95 502.97 C 184.33 518.62 183.83 534.28 183.90 549.94 C 183.70 555.99 184.10 562.07 183.53 568.11 C 182.13 561.15 184.15 553.83 181.95 547.00 C 180.05 546.95 178.15 546.97 176.26 547.07 C 176.21 549.89 175.86 552.71 175.19 555.47 C 175.00 526.43 175.01 497.36 175.16 468.32 C 176.60 460.28 175.44 452.07 175.95 443.97 Z" />
</g>
<g id="#bbd36bff">
<path fill="#bbd36b" opacity="1.00" d=" M 1097.06 475.56 C 1097.74 473.28 1098.42 471.01 1098.86 468.68 C 1098.97 499.64 1099.04 530.62 1098.80 561.57 C 1097.11 567.14 1098.57 572.98 1097.65 578.64 C 1096.26 581.28 1093.35 579.37 1091.16 579.99 C 1090.68 588.02 1091.33 596.09 1090.61 604.12 C 1089.61 587.95 1090.41 571.70 1089.96 555.51 C 1090.68 537.03 1089.42 518.48 1090.94 500.04 C 1091.07 493.01 1091.04 485.99 1091.09 478.97 C 1091.27 477.66 1090.81 475.92 1092.11 475.06 C 1093.73 474.41 1095.43 475.28 1097.06 475.56 Z" />
</g>
<g id="#b5cf5eff">
<path fill="#b5cf5e" opacity="1.00" d=" M 183.95 502.97 L 184.73 502.85 C 185.30 513.54 184.82 524.25 184.94 534.95 C 184.79 565.16 184.89 595.37 184.66 625.58 C 182.91 636.66 184.44 647.99 183.61 659.16 C 182.71 655.68 182.93 652.07 182.29 648.56 C 180.49 649.64 178.52 649.45 176.75 648.43 C 176.18 648.95 175.62 649.48 175.06 650.02 C 175.19 618.50 174.88 586.97 175.19 555.47 C 175.86 552.71 176.21 549.89 176.26 547.07 C 178.15 546.97 180.05 546.95 181.95 547.00 C 184.15 553.83 182.13 561.15 183.53 568.11 C 184.10 562.07 183.70 555.99 183.90 549.94 C 183.83 534.28 184.33 518.62 183.95 502.97 Z" />
</g>
<g id="#708b16ff">
<path fill="#708b16" opacity="1.00" d=" M 464.48 519.67 C 579.48 519.63 694.47 519.42 809.46 519.71 C 808.54 520.71 807.37 521.14 805.97 521.00 C 692.64 521.06 579.30 520.88 465.97 521.09 C 465.60 520.74 464.86 520.03 464.48 519.67 Z" />
</g>
<g id="#b3ce5cff">
<path fill="#b3ce5c" opacity="1.00" d=" M 1089.42 554.47 L 1089.96 555.51 C 1090.41 571.70 1089.61 587.95 1090.61 604.12 C 1091.33 596.09 1090.68 588.02 1091.16 579.99 C 1093.35 579.37 1096.26 581.28 1097.65 578.64 C 1098.57 572.98 1097.11 567.14 1098.80 561.57 C 1099.14 600.45 1098.82 639.35 1098.93 678.25 C 1095.65 675.13 1092.49 671.90 1089.17 668.83 L 1089.18 668.22 C 1089.42 640.82 1089.09 613.41 1089.11 586.01 C 1089.31 575.50 1088.59 564.96 1089.42 554.47 Z" />
</g>
<g id="#aeca50ff">
<path fill="#aeca50" opacity="1.00" d=" M 183.61 659.16 C 184.44 647.99 182.91 636.66 184.66 625.58 C 184.83 627.72 185.05 629.87 185.07 632.03 C 184.92 660.23 184.94 688.42 184.75 716.62 C 183.05 726.18 184.33 736.01 183.90 745.68 C 182.89 744.78 181.88 743.89 180.88 743.00 C 180.71 743.50 180.36 744.50 180.19 745.00 C 179.33 744.97 178.48 744.96 177.63 744.96 C 177.54 743.92 177.45 742.89 177.36 741.87 C 175.83 744.44 175.96 747.57 175.19 750.41 C 174.93 716.95 175.13 683.48 175.06 650.02 C 175.62 649.48 176.18 648.95 176.75 648.43 C 178.52 649.45 180.49 649.64 182.29 648.56 C 182.93 652.07 182.71 655.68 183.61 659.16 Z" />
</g>
<g id="#8aa042ff">
<path fill="#8aa042" opacity="1.00" d=" M 1089.17 668.83 C 1092.49 671.90 1095.65 675.13 1098.93 678.25 C 1098.87 709.37 1099.09 740.52 1098.79 771.64 C 1096.77 778.12 1098.68 784.98 1097.51 791.58 C 1095.65 793.38 1092.74 792.60 1090.42 792.78 C 1090.12 788.35 1090.88 783.78 1089.38 779.51 C 1089.26 742.62 1088.85 705.72 1089.17 668.83 Z" />
</g>
<g id="#a3c043ff">
<path fill="#a3c043" opacity="1.00" d=" M 183.90 745.68 C 184.33 736.01 183.05 726.18 184.75 716.62 C 185.72 727.71 185.09 738.88 185.00 750.00 C 184.91 800.32 184.99 850.65 184.97 900.97 C 184.90 905.58 185.98 910.11 186.02 914.72 C 185.54 915.54 185.05 916.39 184.55 917.22 C 181.54 916.23 178.42 915.18 175.20 915.61 C 174.91 861.73 175.17 807.84 175.03 753.96 C 174.98 752.76 175.03 751.58 175.19 750.41 C 175.96 747.57 175.83 744.44 177.36 741.87 C 177.45 742.89 177.54 743.92 177.63 744.96 C 178.48 744.96 179.33 744.97 180.19 745.00 C 180.36 744.50 180.71 743.50 180.88 743.00 C 181.88 743.89 182.89 744.78 183.90 745.68 Z" />
</g>
<g id="#7f9637ff">
<path fill="#7f9637" opacity="1.00" d=" M 1097.51 791.58 C 1098.68 784.98 1096.77 778.12 1098.79 771.64 C 1099.08 819.14 1098.95 866.67 1098.83 914.19 C 1098.29 912.99 1097.71 911.82 1097.17 910.66 C 1094.55 910.10 1091.98 911.28 1089.38 910.77 C 1088.96 911.97 1088.56 913.19 1088.21 914.42 C 1088.18 912.69 1088.10 910.97 1088.38 909.27 C 1089.74 901.58 1088.81 893.75 1089.04 886.00 C 1089.05 857.00 1089.01 828.00 1089.04 799.00 C 1089.12 792.50 1088.27 785.96 1089.38 779.51 C 1090.88 783.78 1090.12 788.35 1090.42 792.78 C 1092.74 792.60 1095.65 793.38 1097.51 791.58 Z" />
</g>
<g id="#768c31ff">
<path fill="#768c31" opacity="1.00" d=" M 1089.38 910.77 C 1091.98 911.28 1094.55 910.10 1097.17 910.66 C 1097.71 911.82 1098.29 912.99 1098.83 914.19 C 1098.19 939.21 1092.34 964.09 1082.02 986.88 C 1081.96 986.50 1081.82 985.73 1081.76 985.35 C 1079.66 986.79 1077.41 988.15 1074.81 988.32 C 1074.03 987.36 1073.26 986.42 1072.51 985.50 C 1070.77 986.74 1068.95 988.07 1066.71 987.99 C 1066.44 986.71 1066.15 985.43 1065.40 984.35 C 1067.91 978.95 1070.65 973.67 1073.28 968.33 C 1081.03 951.25 1085.30 932.88 1088.21 914.42 C 1088.56 913.19 1088.96 911.97 1089.38 910.77 Z" />
</g>
<g id="#99b53eff">
<path fill="#99b53e" opacity="1.00" d=" M 175.20 915.61 C 178.42 915.18 181.54 916.23 184.55 917.22 C 185.05 916.39 185.54 915.54 186.02 914.72 C 187.44 926.49 189.91 938.13 193.63 949.39 C 195.10 954.48 197.48 959.27 198.78 964.41 C 198.61 965.74 198.53 967.10 198.55 968.46 C 195.04 968.30 191.52 968.34 188.01 968.20 C 187.15 968.93 186.29 969.68 185.44 970.44 C 179.41 952.79 175.86 934.26 175.20 915.61 Z" />
</g>
<g id="#94ae3aff">
<path fill="#94ae3a" opacity="1.00" d=" M 198.55 968.46 C 198.53 967.10 198.61 965.74 198.78 964.41 C 203.02 973.02 206.97 981.80 212.04 989.97 C 214.81 994.50 218.09 998.70 220.73 1003.32 C 221.14 1005.90 221.43 1008.60 219.60 1010.78 C 218.87 1009.60 218.16 1008.42 217.45 1007.26 C 217.09 1008.54 216.74 1009.83 216.40 1011.13 C 215.93 1010.35 215.41 1009.59 214.89 1008.87 C 212.92 1008.59 211.03 1007.94 209.42 1006.76 C 207.82 1007.97 206.21 1009.16 204.58 1010.33 C 196.69 997.84 190.26 984.41 185.44 970.44 C 186.29 969.68 187.15 968.93 188.01 968.20 C 191.52 968.34 195.04 968.30 198.55 968.46 Z" />
</g>
<g id="#6e832bff">
<path fill="#6e832b" opacity="1.00" d=" M 1065.40 984.35 C 1066.15 985.43 1066.44 986.71 1066.71 987.99 C 1068.95 988.07 1070.77 986.74 1072.51 985.50 C 1073.26 986.42 1074.03 987.36 1074.81 988.32 C 1077.41 988.15 1079.66 986.79 1081.76 985.35 C 1081.82 985.73 1081.96 986.50 1082.02 986.88 C 1072.66 1007.80 1059.44 1027.04 1043.20 1043.22 C 1039.54 1043.89 1035.91 1045.84 1032.14 1044.94 C 1030.17 1045.19 1028.62 1047.00 1026.59 1047.07 C 1024.16 1046.65 1021.76 1045.44 1019.27 1046.16 C 1018.97 1045.51 1018.69 1044.88 1018.42 1044.27 C 1018.18 1044.89 1017.70 1046.15 1017.46 1046.77 C 1015.23 1046.98 1013.29 1045.82 1011.48 1044.72 C 1033.53 1028.76 1051.86 1007.94 1065.40 984.35 Z" />
</g>
<g id="#8ca735ff">
<path fill="#8ca735" opacity="1.00" d=" M 219.60 1010.78 C 221.43 1008.60 221.14 1005.90 220.73 1003.32 C 235.16 1022.76 253.24 1039.39 273.75 1052.26 C 272.94 1053.56 274.37 1054.23 275.15 1054.86 C 276.97 1056.09 278.91 1057.13 280.81 1058.25 C 280.31 1059.65 279.66 1061.00 278.84 1062.27 C 278.42 1061.12 279.18 1058.65 277.22 1059.09 C 275.58 1060.73 273.83 1062.26 271.36 1062.20 C 271.74 1061.45 272.12 1060.71 272.51 1059.97 C 269.10 1058.52 265.78 1061.79 262.47 1059.84 C 261.89 1060.65 261.32 1061.46 260.75 1062.30 C 259.77 1061.41 258.79 1060.54 257.81 1059.67 C 257.32 1059.82 256.84 1059.98 256.37 1060.16 C 256.04 1060.01 255.39 1059.70 255.07 1059.55 C 254.63 1060.68 254.19 1061.81 253.76 1062.97 C 234.24 1048.74 217.44 1030.77 204.58 1010.33 C 206.21 1009.16 207.82 1007.97 209.42 1006.76 C 211.03 1007.94 212.92 1008.59 214.89 1008.87 C 215.41 1009.59 215.93 1010.35 216.40 1011.13 C 216.74 1009.83 217.09 1008.54 217.45 1007.26 C 218.16 1008.42 218.87 1009.60 219.60 1010.78 Z" />
</g>
<g id="#647823ff">
<path fill="#647823" opacity="1.00" d=" M 1032.14 1044.94 C 1035.91 1045.84 1039.54 1043.89 1043.20 1043.22 C 1008.09 1079.07 958.27 1100.04 908.07 1099.92 C 842.13 1099.94 776.19 1099.93 710.25 1099.93 C 703.82 1093.37 697.12 1087.11 690.62 1080.64 C 705.73 1079.99 720.88 1080.55 736.00 1080.37 C 792.33 1080.35 848.66 1080.37 904.98 1080.36 C 943.01 1079.75 980.75 1067.11 1011.48 1044.72 C 1013.29 1045.82 1015.23 1046.98 1017.46 1046.77 C 1017.70 1046.15 1018.18 1044.89 1018.42 1044.27 C 1018.69 1044.88 1018.97 1045.51 1019.27 1046.16 C 1021.76 1045.44 1024.16 1046.65 1026.59 1047.07 C 1028.62 1047.00 1030.17 1045.19 1032.14 1044.94 Z" />
</g>
<g id="#839d2eff">
<path fill="#839d2e" opacity="1.00" d=" M 275.15 1054.86 C 274.37 1054.23 272.94 1053.56 273.75 1052.26 C 301.87 1069.85 334.83 1079.53 367.97 1080.35 C 471.65 1080.43 575.33 1080.34 679.01 1080.39 C 682.52 1080.24 686.21 1080.97 689.56 1079.61 C 689.90 1079.93 690.26 1080.27 690.62 1080.64 C 697.12 1087.11 703.82 1093.37 710.25 1099.93 C 597.48 1099.93 484.72 1099.93 371.96 1099.93 C 329.92 1101.05 287.61 1087.96 253.76 1062.97 C 254.19 1061.81 254.63 1060.68 255.07 1059.55 C 255.39 1059.70 256.04 1060.01 256.37 1060.16 C 256.84 1059.98 257.32 1059.82 257.81 1059.67 C 258.79 1060.54 259.77 1061.41 260.75 1062.30 C 261.32 1061.46 261.89 1060.65 262.47 1059.84 C 265.78 1061.79 269.10 1058.52 272.51 1059.97 C 272.12 1060.71 271.74 1061.45 271.36 1062.20 C 273.83 1062.26 275.58 1060.73 277.22 1059.09 C 279.18 1058.65 278.42 1061.12 278.84 1062.27 C 279.66 1061.00 280.31 1059.65 280.81 1058.25 C 278.91 1057.13 276.97 1056.09 275.15 1054.86 Z" />
</g>
</svg>
