<?xml version="1.0" encoding="UTF-8" ?>
<!DOCTYPE svg PUBLIC "-//W3C//DTD SVG 1.1//EN" "http://www.w3.org/Graphics/SVG/1.1/DTD/svg11.dtd">
<svg width="1276pt" height="1276pt" viewBox="0 0 1276 1276" version="1.1" xmlns="http://www.w3.org/2000/svg">
<g id="#a6f34eff">
<path fill="#a6f34e" opacity="1.00" d=" M 465.08 128.04 C 468.87 123.88 476.43 124.91 478.93 129.97 C 493.27 155.77 507.53 181.60 521.85 207.41 C 594.68 174.88 681.35 174.89 754.19 207.40 C 768.52 181.62 782.76 155.79 797.09 130.01 C 799.16 125.92 804.66 124.21 808.71 126.36 C 812.96 128.46 814.74 134.26 812.26 138.34 C 798.13 163.88 784.01 189.43 769.81 214.93 C 803.37 232.22 833.21 256.79 856.43 286.58 C 888.44 327.48 907.04 379.07 906.64 431.15 C 727.54 430.93 548.46 431.08 369.35 431.11 C 369.17 387.02 382.30 343.13 405.97 305.99 C 430.42 267.37 465.67 235.87 506.22 214.93 C 492.15 189.63 478.16 164.28 464.11 138.97 C 461.87 135.62 462.24 130.92 465.08 128.04 M 506.45 286.68 C 498.04 289.41 491.47 297.12 490.18 305.88 C 488.71 314.16 492.06 323.04 498.52 328.40 C 504.81 333.79 513.94 335.52 521.79 332.90 C 533.84 329.18 541.40 315.21 537.59 303.11 C 534.28 290.13 519.07 281.99 506.45 286.68 M 754.36 286.58 C 744.42 289.63 737.21 299.61 737.48 310.01 C 737.39 321.13 745.96 331.55 756.89 333.59 C 765.43 335.47 774.83 332.22 780.40 325.49 C 786.13 318.82 787.77 308.96 784.45 300.82 C 780.13 289.18 766.12 282.45 754.36 286.58 Z" />
<path fill="#a6f34e" opacity="1.00" d=" M 984.66 441.93 C 998.78 440.80 1013.27 444.91 1024.72 453.28 C 1037.27 462.42 1046.17 476.48 1048.72 491.83 C 1049.78 497.17 1049.48 502.62 1049.51 508.03 C 1049.51 590.36 1049.51 672.69 1049.51 755.02 C 1049.24 773.32 1039.75 791.11 1024.98 801.84 C 1009.47 813.49 988.14 816.70 969.84 810.34 C 951.79 804.32 937.14 789.18 931.65 770.97 C 929.12 763.24 928.83 755.02 928.92 746.96 C 928.93 669.64 928.92 592.33 928.93 515.01 C 928.96 507.96 928.67 500.87 929.56 493.86 C 931.64 477.91 940.54 463.02 953.53 453.55 C 962.53 446.83 973.47 442.83 984.66 441.93 Z" />
<path fill="#a6f34e" opacity="1.00" d=" M 275.51 442.83 C 291.10 439.75 307.83 443.32 320.87 452.38 C 333.12 460.70 342.05 473.74 345.43 488.16 C 347.02 494.62 347.16 501.33 347.08 507.95 C 347.07 587.96 347.07 667.97 347.08 747.98 C 347.16 755.03 346.92 762.20 344.96 769.03 C 340.89 784.36 330.40 797.80 316.63 805.64 C 301.69 814.28 282.95 815.94 266.71 810.14 C 247.64 803.55 232.52 786.76 228.06 767.07 C 225.97 759.22 226.56 751.06 226.49 743.05 C 226.49 662.37 226.49 581.68 226.49 501.00 C 226.62 486.20 232.62 471.58 242.79 460.84 C 251.43 451.57 263.05 445.14 275.51 442.83 Z" />
<path fill="#a6f34e" opacity="1.00" d=" M 369.30 452.15 C 548.43 452.11 727.57 452.11 906.70 452.14 C 906.61 582.79 906.70 713.43 906.65 844.07 C 906.28 860.59 899.06 876.76 887.25 888.27 C 875.14 900.27 858.09 907.30 840.99 906.77 C 826.87 906.73 812.75 906.80 798.63 906.73 C 798.63 949.82 798.63 992.90 798.63 1035.98 C 800.31 1059.54 786.74 1083.17 765.58 1093.62 C 747.33 1102.95 724.22 1102.08 706.84 1091.16 C 692.49 1082.40 682.12 1067.44 679.10 1050.89 C 677.81 1044.68 678.18 1038.31 678.14 1032.02 C 678.14 990.27 678.14 948.51 678.14 906.76 C 651.38 906.76 624.62 906.76 597.86 906.76 C 597.87 950.83 597.84 994.91 597.87 1038.98 C 598.25 1052.40 593.70 1065.86 585.50 1076.46 C 574.45 1091.03 556.42 1100.23 538.07 1099.96 C 522.73 1100.36 507.44 1094.24 496.36 1083.68 C 484.40 1072.55 477.29 1056.36 477.36 1040.01 C 477.38 995.58 477.36 951.16 477.37 906.73 C 466.59 906.79 455.82 906.74 445.04 906.76 C 436.29 906.64 427.38 907.41 418.84 905.04 C 395.62 899.62 376.45 880.30 371.11 857.08 C 368.67 847.90 369.46 838.35 369.34 828.97 C 369.31 703.36 369.39 577.75 369.30 452.15 Z" />
</g>
</svg>
