<?xml version="1.0" encoding="UTF-8" ?>
<!DOCTYPE svg PUBLIC "-//W3C//DTD SVG 1.1//EN" "http://www.w3.org/Graphics/SVG/1.1/DTD/svg11.dtd">
<svg width="1276pt" height="1276pt" viewBox="0 0 1276 1276" version="1.1" xmlns="http://www.w3.org/2000/svg">
<g id="#ffffffff">
<path fill="#ffffff" opacity="1.00" d=" M 788.69 173.81 C 799.40 171.00 810.36 169.32 821.39 168.34 C 821.59 168.91 821.99 170.04 822.19 170.61 C 822.05 178.81 824.08 187.01 822.60 195.15 C 822.50 199.08 822.67 203.07 821.78 206.93 C 821.67 210.99 820.74 214.94 820.20 218.95 C 813.71 253.96 797.59 286.83 775.12 314.34 C 763.07 329.57 748.41 342.67 732.16 353.30 C 707.58 369.03 679.36 380.52 649.88 381.23 C 645.51 382.00 641.14 380.73 636.75 381.09 C 631.76 348.12 640.58 314.62 654.95 285.03 C 667.35 259.40 684.71 235.99 706.46 217.55 C 730.34 197.35 758.61 182.35 788.69 173.81 Z" />
<path fill="#ffffff" opacity="1.00" d=" M 766.04 394.82 C 780.46 391.86 795.19 390.05 809.90 390.38 C 842.45 391.58 875.19 397.68 905.02 411.12 C 939.23 426.39 969.70 451.00 990.02 482.61 C 981.10 488.30 972.36 494.34 964.52 501.48 C 949.49 514.83 935.65 529.65 924.23 546.26 C 907.22 571.20 895.63 600.08 892.01 630.12 C 889.95 641.62 890.26 653.35 890.27 664.99 C 891.39 689.92 896.33 714.85 906.32 737.80 C 914.65 756.84 926.00 774.55 939.77 790.13 C 953.75 806.12 970.52 819.50 988.48 830.78 C 996.46 835.91 1005.02 840.01 1013.76 843.68 C 1001.29 883.18 983.54 920.93 961.97 956.26 C 951.89 973.07 940.40 988.98 928.90 1004.84 C 918.02 1020.05 906.14 1034.57 893.04 1047.92 C 880.73 1059.53 867.67 1070.84 852.16 1077.97 C 831.09 1088.00 806.78 1089.52 783.99 1085.86 C 761.64 1082.25 741.27 1071.79 720.37 1063.63 C 680.60 1047.37 634.79 1047.69 594.71 1062.74 C 584.84 1066.42 575.16 1070.59 565.42 1074.61 C 557.09 1078.01 548.80 1081.68 540.04 1083.84 C 528.90 1086.95 517.41 1088.69 505.88 1089.46 C 495.37 1089.09 484.80 1087.75 474.82 1084.31 C 454.42 1077.59 436.85 1064.48 421.35 1049.93 C 396.61 1025.41 376.76 996.57 357.34 967.81 C 321.58 914.93 296.65 855.24 280.43 793.65 C 275.17 772.96 270.50 752.05 268.04 730.83 C 262.58 691.48 261.54 651.34 267.25 611.94 C 274.25 560.81 294.67 511.24 327.74 471.44 C 332.19 466.93 336.05 461.89 340.66 457.54 C 365.89 433.07 396.66 414.24 429.99 403.00 C 459.18 393.89 490.51 390.05 520.79 395.38 C 542.99 398.74 563.66 407.89 584.56 415.64 C 602.10 422.04 619.12 431.00 637.98 432.71 C 648.14 434.12 658.29 431.49 667.96 428.58 C 686.58 422.41 704.53 414.44 723.02 407.92 C 736.85 402.02 751.40 398.12 766.04 394.82 M 480.92 528.32 C 460.52 533.24 441.40 543.01 425.05 556.12 C 396.00 579.38 375.45 612.28 364.32 647.57 L 364.07 647.59 C 352.86 682.46 349.35 719.54 351.84 755.98 C 353.37 776.20 356.68 796.43 363.24 815.65 C 367.84 831.37 375.00 846.39 383.64 860.31 C 389.35 868.94 395.17 877.73 402.82 884.77 C 404.92 888.68 408.92 890.96 411.92 894.09 C 428.54 909.19 449.07 919.91 470.94 924.97 C 485.29 928.64 500.20 928.67 514.91 928.27 C 525.22 927.53 535.54 926.35 545.60 923.86 C 554.54 922.11 563.20 919.00 571.55 915.36 C 577.40 912.82 582.62 909.13 588.12 905.94 L 588.21 905.69 C 595.55 901.21 599.35 892.43 599.23 884.03 C 599.13 847.41 599.36 810.79 599.12 774.18 C 599.38 770.54 599.90 766.93 600.27 763.32 C 601.30 759.23 603.66 755.62 607.22 753.32 C 611.11 751.86 615.10 750.71 619.09 749.57 C 622.49 748.93 625.85 748.01 629.00 746.57 C 631.98 743.35 632.26 737.90 629.45 734.51 C 626.56 732.10 622.57 731.89 618.99 731.69 C 608.31 732.27 597.69 733.57 587.00 734.03 C 567.17 734.84 547.31 733.99 527.53 732.40 C 523.33 732.45 519.11 731.14 514.94 732.14 C 511.66 732.73 507.79 734.02 506.55 737.45 C 505.56 740.58 506.21 744.10 508.22 746.70 C 510.47 748.66 513.40 749.32 516.28 749.71 L 516.08 749.93 C 520.99 750.23 525.91 751.28 530.78 751.43 L 530.28 751.84 C 534.87 752.65 539.80 754.55 542.22 758.81 C 545.35 763.98 545.58 770.13 546.46 775.95 C 546.41 804.64 546.43 833.34 546.44 862.04 C 546.84 871.52 544.48 881.48 538.39 888.93 L 538.45 889.39 C 533.66 893.98 527.88 897.66 521.35 899.15 C 508.89 901.99 495.84 900.62 483.60 897.38 L 483.59 897.11 C 470.72 893.32 459.50 885.30 450.43 875.56 L 450.42 875.23 C 433.45 856.34 425.52 831.53 419.60 807.34 C 419.80 806.15 419.38 804.98 419.22 803.83 C 415.72 787.06 414.07 769.99 413.12 752.91 C 411.29 716.81 412.91 680.24 421.31 644.96 C 422.77 637.92 425.15 631.13 426.82 624.15 L 427.10 623.91 C 432.14 609.27 438.02 594.76 446.64 581.83 L 446.65 581.45 C 453.20 571.63 461.05 562.64 470.41 555.41 C 485.89 543.72 507.51 538.75 525.81 546.54 C 536.29 551.53 544.41 560.41 550.04 570.41 L 550.41 570.48 C 560.85 588.60 566.38 608.91 575.04 627.83 C 576.95 631.57 579.19 635.99 583.62 637.11 C 586.59 637.21 590.28 636.58 591.47 633.41 C 593.33 628.05 593.69 622.23 593.38 616.60 C 594.37 609.43 593.69 602.17 593.90 594.97 C 593.15 585.85 593.71 576.68 593.46 567.54 C 592.86 564.16 593.58 560.63 592.58 557.34 C 592.59 552.49 591.58 547.56 589.14 543.33 L 588.78 543.29 C 587.04 541.25 584.78 539.81 582.41 538.63 C 570.57 532.04 557.25 528.64 543.94 526.65 C 523.04 523.99 501.52 523.12 480.92 528.32 M 714.05 532.79 C 695.16 539.21 677.67 550.82 666.11 567.27 C 658.01 578.93 652.66 592.57 651.06 606.69 C 647.92 624.31 650.13 643.10 657.35 659.55 C 663.12 672.93 672.24 684.76 682.96 694.56 C 683.98 696.28 685.79 697.37 687.23 698.73 C 698.29 708.55 710.40 717.08 722.66 725.31 C 734.75 733.68 747.08 741.70 759.55 749.49 C 779.91 762.88 800.94 777.27 813.86 798.48 L 814.30 798.55 C 817.62 805.09 820.99 811.69 822.58 818.91 C 823.46 821.76 823.50 824.84 824.55 827.64 C 825.98 845.52 822.78 864.00 813.40 879.46 C 807.58 888.17 800.07 895.91 790.69 900.75 C 780.86 906.20 769.51 908.44 758.35 908.20 C 752.15 907.51 745.88 906.85 740.00 904.63 C 726.91 900.28 715.72 891.60 706.59 881.44 C 694.79 867.28 686.64 850.46 680.71 833.11 C 678.70 826.84 677.07 820.46 675.54 814.06 C 674.81 810.84 674.00 807.64 672.95 804.52 L 672.14 804.61 L 672.93 804.51 C 670.67 799.45 664.06 797.23 659.29 800.15 C 655.95 802.38 656.30 806.88 655.54 810.36 C 654.67 816.22 654.16 822.13 654.18 828.06 L 653.77 828.73 C 653.89 842.14 652.78 855.56 653.72 868.96 C 653.73 880.62 653.91 892.33 655.49 903.91 C 656.47 910.17 658.01 917.76 664.68 920.30 L 664.76 920.62 C 666.95 921.82 669.11 923.11 671.55 923.80 L 671.63 924.06 C 681.91 928.27 692.96 930.86 704.04 931.56 C 707.62 932.69 711.58 932.62 715.34 932.70 C 734.09 934.89 753.50 934.64 771.78 929.49 L 771.91 929.58 C 784.87 926.15 797.57 921.31 809.11 914.45 C 818.73 909.37 827.41 902.65 835.60 895.52 C 848.28 883.84 858.99 869.85 865.78 853.95 L 865.72 853.63 C 875.24 832.25 873.74 807.66 867.33 785.64 L 866.99 785.38 C 865.59 779.45 863.10 773.86 860.65 768.32 C 849.90 745.39 832.56 726.22 813.11 710.29 L 812.73 710.38 C 791.08 691.73 763.94 681.65 739.55 667.34 L 739.55 667.00 C 725.86 659.16 713.48 648.74 704.69 635.54 L 704.74 635.05 C 696.70 622.21 694.03 606.68 694.78 591.72 C 696.16 585.37 697.86 579.00 701.17 573.34 C 705.38 566.01 711.57 560.16 718.49 555.41 C 734.83 545.07 755.70 542.36 774.06 548.54 C 779.97 550.73 785.74 553.41 790.91 557.06 C 799.89 563.12 806.86 571.64 812.93 580.47 C 819.21 591.34 823.88 603.11 826.89 615.30 C 828.04 620.19 828.82 625.31 831.22 629.79 C 833.95 634.77 842.38 634.70 844.82 629.47 L 843.99 629.31 L 844.96 629.48 C 847.24 620.31 846.40 610.76 846.27 601.41 C 846.63 591.49 846.54 581.47 846.31 571.54 C 846.64 566.70 846.06 561.87 846.10 557.04 C 845.97 556.87 845.71 556.53 845.59 556.36 C 845.83 553.00 845.48 549.65 844.80 546.37 L 844.55 546.27 C 843.20 541.87 838.64 540.00 834.87 538.13 C 819.39 531.40 802.72 527.76 786.02 525.63 C 761.91 523.26 737.10 524.93 714.05 532.79 Z" />
</g>
<g id="#00516bff">
<path fill="#00516b" opacity="1.00" d=" M 480.92 528.32 C 501.52 523.12 523.04 523.99 543.94 526.65 C 557.25 528.64 570.57 532.04 582.41 538.63 C 584.78 539.81 587.04 541.25 588.78 543.29 C 587.43 543.19 586.09 542.90 584.93 542.22 C 569.97 533.64 552.51 531.19 535.60 529.62 C 510.57 527.96 484.87 530.88 461.69 540.89 C 448.53 546.06 436.51 553.78 425.47 562.56 C 398.11 584.46 378.28 614.82 365.95 647.41 C 365.54 647.45 364.73 647.53 364.32 647.57 C 375.45 612.28 396.00 579.38 425.05 556.12 C 441.40 543.01 460.52 533.24 480.92 528.32 Z" />
</g>
<g id="#00526dff">
<path fill="#00526d" opacity="1.00" d=" M 714.05 532.79 C 737.10 524.93 761.91 523.26 786.02 525.63 C 802.72 527.76 819.39 531.40 834.87 538.13 C 838.64 540.00 843.20 541.87 844.55 546.27 C 839.01 544.04 834.08 540.52 828.37 538.70 C 813.72 533.87 798.40 530.63 782.97 530.16 C 769.95 530.35 756.80 529.36 743.94 531.90 C 718.16 535.77 692.54 546.22 674.38 565.40 C 665.42 575.44 658.13 587.16 654.26 600.11 C 653.60 602.48 652.45 604.67 651.06 606.69 C 652.66 592.57 658.01 578.93 666.11 567.27 C 677.67 550.82 695.16 539.21 714.05 532.79 Z" />
</g>
<g id="#006789ff">
<path fill="#006789" opacity="1.00" d=" M 461.69 540.89 C 484.87 530.88 510.57 527.96 535.60 529.62 C 552.51 531.19 569.97 533.64 584.93 542.22 C 586.09 542.90 587.43 543.19 588.78 543.29 L 589.14 543.33 C 591.58 547.56 592.59 552.49 592.58 557.34 C 584.62 547.40 572.30 542.31 560.17 539.66 C 546.93 536.94 533.25 535.70 519.79 537.46 C 501.65 539.38 483.09 540.38 465.84 546.80 C 447.06 553.62 430.51 565.44 416.18 579.17 C 408.06 587.83 400.53 597.06 393.73 606.79 C 368.32 645.13 356.99 691.39 355.71 736.98 C 355.18 759.17 356.89 781.44 361.56 803.17 C 362.32 807.30 364.13 811.38 363.24 815.65 C 356.68 796.43 353.37 776.20 351.84 755.98 C 349.35 719.54 352.86 682.46 364.07 647.59 L 364.32 647.57 C 364.73 647.53 365.54 647.45 365.95 647.41 C 378.28 614.82 398.11 584.46 425.47 562.56 C 436.51 553.78 448.53 546.06 461.69 540.89 Z" />
</g>
<g id="#00698bff">
<path fill="#00698b" opacity="1.00" d=" M 743.94 531.90 C 756.80 529.36 769.95 530.35 782.97 530.16 C 798.40 530.63 813.72 533.87 828.37 538.70 C 834.08 540.52 839.01 544.04 844.55 546.27 L 844.80 546.37 C 845.48 549.65 845.83 553.00 845.59 556.36 C 840.83 552.37 836.24 547.94 830.32 545.71 C 814.02 539.26 796.44 536.60 778.98 536.11 C 763.31 536.44 747.75 538.67 732.34 541.46 C 722.61 543.66 713.00 546.70 703.98 550.99 C 695.89 555.58 687.74 560.42 681.26 567.19 C 674.85 573.32 669.64 580.62 665.33 588.34 C 656.03 607.15 652.45 628.95 656.39 649.64 C 657.11 652.89 658.08 656.20 657.35 659.55 C 650.13 643.10 647.92 624.31 651.06 606.69 C 652.45 604.67 653.60 602.48 654.26 600.11 C 658.13 587.16 665.42 575.44 674.38 565.40 C 692.54 546.22 718.16 535.77 743.94 531.90 Z" />
</g>
<g id="#0082acff">
<path fill="#0082ac" opacity="1.00" d=" M 732.34 541.46 C 747.75 538.67 763.31 536.44 778.98 536.11 C 796.44 536.60 814.02 539.26 830.32 545.71 C 836.24 547.94 840.83 552.37 845.59 556.36 C 845.71 556.53 845.97 556.87 846.10 557.04 C 846.06 561.87 846.64 566.70 846.31 571.54 C 844.07 566.97 842.54 561.89 838.80 558.25 C 830.17 548.82 816.91 546.26 804.84 544.31 C 794.60 542.90 782.53 541.12 774.06 548.54 C 755.70 542.36 734.83 545.07 718.49 555.41 C 715.42 555.04 712.29 555.23 709.38 556.30 C 701.45 559.01 694.04 563.26 687.73 568.78 C 680.73 575.21 674.02 582.28 669.92 590.96 C 663.34 603.26 660.34 617.20 659.79 631.05 C 659.47 652.43 666.98 673.92 680.83 690.25 C 681.91 691.47 682.37 693.06 682.96 694.56 C 672.24 684.76 663.12 672.93 657.35 659.55 C 658.08 656.20 657.11 652.89 656.39 649.64 C 652.45 628.95 656.03 607.15 665.33 588.34 C 669.64 580.62 674.85 573.32 681.26 567.19 C 687.74 560.42 695.89 555.58 703.98 550.99 C 713.00 546.70 722.61 543.66 732.34 541.46 Z" />
</g>
<g id="#0080aaff">
<path fill="#0080aa" opacity="1.00" d=" M 519.79 537.46 C 533.25 535.70 546.93 536.94 560.17 539.66 C 572.30 542.31 584.62 547.40 592.58 557.34 C 593.58 560.63 592.86 564.16 593.46 567.54 C 591.05 563.93 589.49 559.69 586.22 556.71 C 579.64 549.71 570.41 545.87 561.14 544.00 C 552.65 541.99 543.83 541.96 535.17 542.52 C 531.66 542.73 528.44 544.27 525.81 546.54 C 507.51 538.75 485.89 543.72 470.41 555.41 C 467.29 555.19 464.11 555.18 461.12 556.21 C 445.23 561.18 431.86 571.65 419.73 582.72 C 404.87 598.14 392.45 615.94 383.48 635.40 C 370.71 662.78 363.79 692.68 361.67 722.76 C 359.05 757.23 362.07 792.40 372.70 825.39 C 378.46 842.94 386.44 859.84 397.02 875.01 C 399.09 878.18 402.37 880.78 402.82 884.77 C 395.17 877.73 389.35 868.94 383.64 860.31 C 375.00 846.39 367.84 831.37 363.24 815.65 C 364.13 811.38 362.32 807.30 361.56 803.17 C 356.89 781.44 355.18 759.17 355.71 736.98 C 356.99 691.39 368.32 645.13 393.73 606.79 C 400.53 597.06 408.06 587.83 416.18 579.17 C 430.51 565.44 447.06 553.62 465.84 546.80 C 483.09 540.38 501.65 539.38 519.79 537.46 Z" />
</g>
<g id="#0095c6ff">
<path fill="#0095c6" opacity="1.00" d=" M 525.81 546.54 C 528.44 544.27 531.66 542.73 535.17 542.52 C 543.83 541.96 552.65 541.99 561.14 544.00 C 570.41 545.87 579.64 549.71 586.22 556.71 C 589.49 559.69 591.05 563.93 593.46 567.54 C 593.71 576.68 593.15 585.85 593.90 594.97 C 593.69 602.17 594.37 609.43 593.38 616.60 C 591.73 619.38 590.64 623.55 586.98 624.21 C 583.35 624.91 580.79 621.66 578.79 619.16 C 571.88 609.65 568.95 598.01 563.19 587.86 C 559.85 581.91 556.44 575.91 551.89 570.78 C 551.52 570.71 550.78 570.56 550.41 570.48 L 550.04 570.41 C 544.41 560.41 536.29 551.53 525.81 546.54 M 551.36 551.45 C 548.38 552.62 548.85 556.55 549.94 558.93 C 552.75 564.57 557.34 569.06 560.68 574.37 C 566.86 583.24 570.67 593.45 576.46 602.54 C 578.44 605.12 580.95 608.71 584.72 607.71 C 585.75 606.66 586.34 605.27 586.85 603.92 C 588.88 596.46 588.96 588.63 588.74 580.94 C 588.27 573.49 586.40 565.55 580.80 560.22 C 573.50 552.19 561.72 550.04 551.36 551.45 Z" />
</g>
<g id="#0098caff">
<path fill="#0098ca" opacity="1.00" d=" M 774.06 548.54 C 782.53 541.12 794.60 542.90 804.84 544.31 C 816.91 546.26 830.17 548.82 838.80 558.25 C 842.54 561.89 844.07 566.97 846.31 571.54 C 846.54 581.47 846.63 591.49 846.27 601.41 C 844.60 605.08 844.40 609.58 841.50 612.59 C 838.69 614.06 835.82 611.89 834.15 609.74 C 827.70 601.91 823.44 592.59 817.60 584.34 C 816.46 582.59 814.61 581.58 812.93 580.47 C 806.86 571.64 799.89 563.12 790.91 557.06 C 785.74 553.41 779.97 550.73 774.06 548.54 M 807.39 552.36 C 804.61 552.51 801.26 553.56 801.83 557.05 C 803.97 561.85 808.04 565.57 811.75 569.23 C 819.44 576.30 824.02 586.17 832.35 592.60 C 834.38 593.57 837.23 593.42 838.07 590.96 C 841.83 581.25 840.99 569.16 833.82 561.19 C 826.77 554.61 816.77 552.37 807.39 552.36 Z" />
</g>
<g id="#00ace4ff">
<path fill="#00ace4" opacity="1.00" d=" M 551.36 551.45 C 561.72 550.04 573.50 552.19 580.80 560.22 C 586.40 565.55 588.27 573.49 588.74 580.94 C 588.96 588.63 588.88 596.46 586.85 603.92 C 586.34 605.27 585.75 606.66 584.72 607.71 C 580.95 608.71 578.44 605.12 576.46 602.54 C 570.67 593.45 566.86 583.24 560.68 574.37 C 557.34 569.06 552.75 564.57 549.94 558.93 C 548.85 556.55 548.38 552.62 551.36 551.45 Z" />
</g>
<g id="#00ace5ff">
<path fill="#00ace5" opacity="1.00" d=" M 807.39 552.36 C 816.77 552.37 826.77 554.61 833.82 561.19 C 840.99 569.16 841.83 581.25 838.07 590.96 C 837.23 593.42 834.38 593.57 832.35 592.60 C 824.02 586.17 819.44 576.30 811.75 569.23 C 808.04 565.57 803.97 561.85 801.83 557.05 C 801.26 553.56 804.61 552.51 807.39 552.36 Z" />
<path fill="#00ace5" opacity="1.00" d=" M 697.46 570.46 C 699.28 570.04 699.97 572.42 701.17 573.34 C 697.86 579.00 696.16 585.37 694.78 591.72 C 689.85 605.36 691.21 620.67 695.74 634.26 C 698.68 643.73 704.01 652.20 709.97 660.04 C 719.57 671.62 731.87 680.61 744.77 688.17 C 758.35 696.16 772.50 703.09 786.22 710.83 C 808.44 723.62 828.83 740.24 843.87 761.16 C 859.10 781.44 867.88 806.63 867.80 832.04 C 867.62 837.63 866.73 843.18 865.56 848.64 C 865.11 850.29 865.29 851.99 865.72 853.63 L 865.78 853.95 C 858.99 869.85 848.28 883.84 835.60 895.52 C 833.87 895.09 832.17 894.69 830.45 894.29 C 830.14 887.74 833.19 881.67 834.61 875.40 C 837.61 863.26 839.49 850.51 837.48 838.04 C 835.87 825.22 831.00 812.89 823.91 802.13 C 818.28 792.98 810.36 785.66 802.80 778.16 C 791.61 768.10 779.15 759.60 766.65 751.29 C 744.91 737.29 723.04 723.34 703.01 706.93 C 698.09 702.92 693.91 698.13 689.33 693.76 C 677.87 681.64 669.69 666.38 666.22 650.05 C 662.86 630.82 664.92 610.33 673.93 592.83 C 677.45 586.07 682.72 580.45 688.34 575.38 C 691.00 573.16 694.06 571.28 697.46 570.46 M 674.54 629.94 C 673.66 634.62 674.98 639.29 674.89 644.00 C 676.78 659.22 683.88 673.53 694.02 684.95 C 698.82 691.48 705.39 696.28 711.38 701.63 C 723.76 711.46 736.86 720.38 750.02 729.13 C 760.05 736.14 770.67 742.23 780.70 749.24 C 796.86 759.66 811.81 772.04 824.52 786.49 C 833.89 798.09 841.60 811.33 844.92 826.00 C 847.00 834.22 847.68 842.68 848.89 851.05 C 848.90 852.66 850.18 854.66 852.01 854.29 C 857.10 848.12 857.38 839.68 858.23 832.08 C 858.29 809.64 850.84 787.44 837.88 769.17 C 831.39 758.57 821.88 750.47 813.27 741.68 C 799.79 729.95 784.68 720.13 768.66 712.27 C 749.60 701.79 729.56 692.41 713.28 677.70 C 708.71 672.94 703.58 668.66 699.92 663.12 C 691.53 652.53 686.19 639.80 683.55 626.60 C 682.31 622.85 682.15 618.28 678.99 615.53 C 674.80 618.98 675.11 625.03 674.54 629.94 Z" />
<path fill="#00ace5" opacity="1.00" d=" M 431.75 580.64 C 436.19 577.40 441.02 573.78 446.82 574.03 C 446.75 576.50 446.69 578.97 446.65 581.45 L 446.64 581.83 C 438.02 594.76 432.14 609.27 427.10 623.91 L 426.82 624.15 C 423.51 626.32 423.16 630.58 421.95 634.01 C 414.04 659.27 409.49 685.54 407.94 711.95 C 407.94 720.65 406.47 729.28 406.97 738.00 C 406.48 748.03 408.03 757.98 407.92 768.00 C 410.36 800.39 415.14 833.30 429.04 862.99 C 437.34 879.91 448.62 895.75 463.87 907.10 C 468.32 911.14 473.94 914.04 477.33 919.15 C 475.76 919.78 474.20 920.76 472.45 920.51 C 459.84 919.50 448.33 913.68 437.59 907.41 C 416.42 893.69 400.08 873.30 389.29 850.64 C 385.16 843.01 381.99 834.91 379.38 826.65 C 372.06 805.87 368.58 783.94 367.15 762.02 C 366.68 741.97 366.65 721.81 369.86 701.95 C 373.28 678.56 380.02 655.62 390.31 634.32 C 400.27 613.88 413.75 594.77 431.75 580.64 M 410.31 612.41 C 400.63 625.31 393.72 640.03 388.09 655.07 C 387.54 657.00 387.47 659.03 386.87 660.95 C 381.22 676.78 377.96 693.38 375.81 710.02 C 373.54 725.55 373.74 741.27 373.99 756.93 C 373.44 763.35 375.21 769.61 375.27 776.01 C 377.84 796.72 382.18 817.38 390.27 836.69 C 397.51 853.90 406.97 870.50 420.29 883.73 C 424.50 886.89 428.26 891.68 433.90 891.98 C 433.86 890.26 433.89 888.49 433.03 886.96 C 430.35 881.62 427.61 876.32 424.94 870.99 C 409.22 838.62 403.26 802.52 400.92 766.93 C 401.28 761.26 400.48 755.64 400.08 750.00 C 400.26 739.66 399.47 729.27 400.77 718.98 C 401.19 698.01 404.36 677.15 408.57 656.61 C 409.29 652.70 411.07 649.12 412.25 645.35 C 415.63 631.34 421.22 617.97 425.20 604.13 C 425.62 602.48 426.52 599.42 424.01 599.13 C 418.24 602.09 414.25 607.43 410.31 612.41 Z" />
</g>
<g id="#009accff">
<path fill="#009acc" opacity="1.00" d=" M 461.12 556.21 C 464.11 555.18 467.29 555.19 470.41 555.41 C 461.05 562.64 453.20 571.63 446.65 581.45 C 446.69 578.97 446.75 576.50 446.82 574.03 C 441.02 573.78 436.19 577.40 431.75 580.64 C 413.75 594.77 400.27 613.88 390.31 634.32 C 380.02 655.62 373.28 678.56 369.86 701.95 C 366.65 721.81 366.68 741.97 367.15 762.02 C 368.58 783.94 372.06 805.87 379.38 826.65 C 381.99 834.91 385.16 843.01 389.29 850.64 C 400.08 873.30 416.42 893.69 437.59 907.41 C 448.33 913.68 459.84 919.50 472.45 920.51 C 474.20 920.76 475.76 919.78 477.33 919.15 C 473.94 914.04 468.32 911.14 463.87 907.10 C 448.62 895.75 437.34 879.91 429.04 862.99 C 415.14 833.30 410.36 800.39 407.92 768.00 C 408.03 757.98 406.48 748.03 406.97 738.00 C 406.47 729.28 407.94 720.65 407.94 711.95 C 409.49 685.54 414.04 659.27 421.95 634.01 C 423.16 630.58 423.51 626.32 426.82 624.15 C 425.15 631.13 422.77 637.92 421.31 644.96 C 412.91 680.24 411.29 716.81 413.12 752.91 C 414.07 769.99 415.72 787.06 419.22 803.83 C 419.38 804.98 419.80 806.15 419.60 807.34 C 418.09 811.91 419.99 816.51 420.95 820.99 C 424.13 834.84 428.22 848.61 434.57 861.38 C 441.60 876.02 451.15 889.95 464.42 899.60 C 475.94 908.92 490.41 914.06 505.00 915.92 C 516.94 917.43 529.11 913.75 539.00 907.11 C 548.09 900.28 554.09 889.61 555.39 878.32 C 557.29 859.94 556.64 841.43 556.72 822.98 C 556.68 816.47 556.99 809.95 556.49 803.46 C 555.95 796.41 556.36 789.22 554.50 782.33 C 552.65 774.41 547.86 767.68 544.63 760.32 C 543.09 757.19 545.75 753.55 548.85 752.79 C 555.94 750.29 563.58 750.68 570.97 750.15 C 583.06 750.36 595.66 748.99 607.22 753.32 C 603.66 755.62 601.30 759.23 600.27 763.32 C 599.08 761.06 597.55 758.80 595.02 757.95 C 587.43 754.51 578.93 756.46 570.92 756.08 C 565.70 756.19 559.27 756.21 555.78 760.76 C 554.00 764.96 555.54 769.69 557.28 773.66 C 562.81 787.41 561.95 802.49 562.15 817.00 C 561.47 837.87 563.26 858.84 560.65 879.63 C 559.42 886.35 557.37 893.03 553.95 898.98 C 550.21 905.06 545.37 910.37 540.20 915.27 C 538.89 916.89 536.21 918.97 537.70 921.26 C 540.10 922.70 542.90 923.23 545.60 923.86 C 535.54 926.35 525.22 927.53 514.91 928.27 C 500.20 928.67 485.29 928.64 470.94 924.97 C 449.07 919.91 428.54 909.19 411.92 894.09 C 408.92 890.96 404.92 888.68 402.82 884.77 C 402.37 880.78 399.09 878.18 397.02 875.01 C 386.44 859.84 378.46 842.94 372.70 825.39 C 362.07 792.40 359.05 757.23 361.67 722.76 C 363.79 692.68 370.71 662.78 383.48 635.40 C 392.45 615.94 404.87 598.14 419.73 582.72 C 431.86 571.65 445.23 561.18 461.12 556.21 Z" />
</g>
<g id="#0096c7ff">
<path fill="#0096c7" opacity="1.00" d=" M 709.38 556.30 C 712.29 555.23 715.42 555.04 718.49 555.41 C 711.57 560.16 705.38 566.01 701.17 573.34 C 699.97 572.42 699.28 570.04 697.46 570.46 C 694.06 571.28 691.00 573.16 688.34 575.38 C 682.72 580.45 677.45 586.07 673.93 592.83 C 664.92 610.33 662.86 630.82 666.22 650.05 C 669.69 666.38 677.87 681.64 689.33 693.76 C 693.91 698.13 698.09 702.92 703.01 706.93 C 723.04 723.34 744.91 737.29 766.65 751.29 C 779.15 759.60 791.61 768.10 802.80 778.16 C 810.36 785.66 818.28 792.98 823.91 802.13 C 831.00 812.89 835.87 825.22 837.48 838.04 C 839.49 850.51 837.61 863.26 834.61 875.40 C 833.19 881.67 830.14 887.74 830.45 894.29 C 832.17 894.69 833.87 895.09 835.60 895.52 C 827.41 902.65 818.73 909.37 809.11 914.45 C 814.40 903.80 822.27 894.53 826.32 883.26 C 836.20 860.21 835.99 832.39 823.62 810.30 C 821.40 806.34 818.77 802.63 816.28 798.85 C 815.79 798.77 814.80 798.62 814.30 798.55 L 813.86 798.48 C 800.94 777.27 779.91 762.88 759.55 749.49 C 747.08 741.70 734.75 733.68 722.66 725.31 C 710.40 717.08 698.29 708.55 687.23 698.73 C 685.79 697.37 683.98 696.28 682.96 694.56 C 682.37 693.06 681.91 691.47 680.83 690.25 C 666.98 673.92 659.47 652.43 659.79 631.05 C 660.34 617.20 663.34 603.26 669.92 590.96 C 674.02 582.28 680.73 575.21 687.73 568.78 C 694.04 563.26 701.45 559.01 709.38 556.30 Z" />
</g>
<g id="#0081abff">
<path fill="#0081ab" opacity="1.00" d=" M 550.41 570.48 C 550.78 570.56 551.52 570.71 551.89 570.78 C 556.44 575.91 559.85 581.91 563.19 587.86 C 568.95 598.01 571.88 609.65 578.79 619.16 C 580.79 621.66 583.35 624.91 586.98 624.21 C 590.64 623.55 591.73 619.38 593.38 616.60 C 593.69 622.23 593.33 628.05 591.47 633.41 C 590.28 636.58 586.59 637.21 583.62 637.11 C 579.19 635.99 576.95 631.57 575.04 627.83 C 566.38 608.91 560.85 588.60 550.41 570.48 Z" />
</g>
<g id="#0083aeff">
<path fill="#0083ae" opacity="1.00" d=" M 812.93 580.47 C 814.61 581.58 816.46 582.59 817.60 584.34 C 823.44 592.59 827.70 601.91 834.15 609.74 C 835.82 611.89 838.69 614.06 841.50 612.59 C 844.40 609.58 844.60 605.08 846.27 601.41 C 846.40 610.76 847.24 620.31 844.96 629.48 L 843.99 629.31 C 841.12 628.71 837.88 628.51 835.74 626.24 C 831.97 623.24 831.01 617.92 826.89 615.30 C 823.88 603.11 819.21 591.34 812.93 580.47 Z" />
<path fill="#0083ae" opacity="1.00" d=" M 536.86 747.60 C 547.06 745.08 557.64 745.79 568.05 745.69 C 580.05 745.80 592.04 745.49 604.04 745.69 C 609.34 745.61 614.15 748.03 619.09 749.57 C 615.10 750.71 611.11 751.86 607.22 753.32 C 595.66 748.99 583.06 750.36 570.97 750.15 C 563.58 750.68 555.94 750.29 548.85 752.79 C 545.75 753.55 543.09 757.19 544.63 760.32 C 547.86 767.68 552.65 774.41 554.50 782.33 C 556.36 789.22 555.95 796.41 556.49 803.46 C 556.99 809.95 556.68 816.47 556.72 822.98 C 556.64 841.43 557.29 859.94 555.39 878.32 C 554.09 889.61 548.09 900.28 539.00 907.11 C 529.11 913.75 516.94 917.43 505.00 915.92 C 490.41 914.06 475.94 908.92 464.42 899.60 C 451.15 889.95 441.60 876.02 434.57 861.38 C 428.22 848.61 424.13 834.84 420.95 820.99 C 419.99 816.51 418.09 811.91 419.60 807.34 C 425.52 831.53 433.45 856.34 450.42 875.23 L 450.43 875.56 C 450.42 876.68 450.39 877.89 451.26 878.77 C 460.83 891.57 474.16 901.65 489.39 906.66 C 499.27 909.43 509.76 911.55 519.96 909.19 C 531.03 907.37 541.17 900.11 545.89 889.84 C 551.10 880.04 550.07 868.71 551.08 858.03 C 551.50 842.01 550.75 825.99 551.22 809.98 C 551.20 804.63 550.40 799.34 550.30 794.00 C 550.19 787.78 548.23 781.84 546.46 775.95 C 545.58 770.13 545.35 763.98 542.22 758.81 C 539.80 754.55 534.87 752.65 530.28 751.84 L 530.78 751.43 C 532.66 749.95 534.48 748.22 536.86 747.60 Z" />
<path fill="#0083ae" opacity="1.00" d=" M 814.30 798.55 C 814.80 798.62 815.79 798.77 816.28 798.85 C 818.77 802.63 821.40 806.34 823.62 810.30 C 835.99 832.39 836.20 860.21 826.32 883.26 C 822.27 894.53 814.40 903.80 809.11 914.45 C 797.57 921.31 784.87 926.15 771.91 929.58 L 771.78 929.49 C 769.34 927.51 766.43 926.29 763.40 925.58 C 746.49 921.19 729.56 914.55 716.55 902.55 C 708.00 894.93 701.16 885.52 695.31 875.71 C 689.37 866.11 685.99 855.25 680.64 845.35 C 678.59 841.67 676.91 836.93 672.61 835.41 C 668.47 834.30 666.31 839.13 665.45 842.36 C 662.28 857.36 663.35 872.79 663.27 888.02 C 664.33 896.72 663.64 905.74 666.83 914.08 C 667.79 917.61 670.66 920.24 671.55 923.80 C 669.11 923.11 666.95 921.82 664.76 920.62 L 664.68 920.30 C 663.37 914.16 660.56 908.36 660.51 901.98 C 658.96 891.06 659.80 880.02 659.60 869.03 C 659.76 857.95 658.76 846.65 661.63 835.82 C 663.02 831.71 665.43 826.62 670.35 826.23 C 674.99 825.78 677.67 830.40 680.71 833.11 C 686.64 850.46 694.79 867.28 706.59 881.44 C 706.05 884.72 709.02 886.91 710.81 889.22 C 720.05 900.33 731.87 909.62 745.69 914.23 C 761.27 919.35 779.29 920.15 794.03 912.07 C 801.62 907.65 808.70 901.95 813.59 894.58 C 819.40 886.33 824.20 877.15 826.27 867.21 C 828.53 858.66 828.55 849.75 828.06 840.99 C 827.59 836.41 827.46 831.45 824.55 827.64 C 823.50 824.84 823.46 821.76 822.58 818.91 C 820.99 811.69 817.62 805.09 814.30 798.55 Z" />
</g>
<g id="#0091c0ff">
<path fill="#0091c0" opacity="1.00" d=" M 695.74 634.26 C 691.21 620.67 689.85 605.36 694.78 591.72 C 694.03 606.68 696.70 622.21 704.74 635.05 L 704.69 635.54 C 704.53 636.68 704.35 637.90 704.95 638.98 C 711.07 652.28 721.33 663.25 732.83 672.12 C 754.70 688.27 780.50 697.85 802.87 713.22 C 817.93 723.13 831.33 735.36 843.05 749.01 C 850.03 757.61 856.69 766.58 861.37 776.68 C 863.03 779.68 863.82 783.53 866.99 785.38 L 867.33 785.64 C 873.74 807.66 875.24 832.25 865.72 853.63 C 865.29 851.99 865.11 850.29 865.56 848.64 C 866.73 843.18 867.62 837.63 867.80 832.04 C 867.88 806.63 859.10 781.44 843.87 761.16 C 828.83 740.24 808.44 723.62 786.22 710.83 C 772.50 703.09 758.35 696.16 744.77 688.17 C 731.87 680.61 719.57 671.62 709.97 660.04 C 704.01 652.20 698.68 643.73 695.74 634.26 Z" />
</g>
<g id="#00bdfbff">
<path fill="#00bdfb" opacity="1.00" d=" M 410.31 612.41 C 414.25 607.43 418.24 602.09 424.01 599.13 C 426.52 599.42 425.62 602.48 425.20 604.13 C 421.22 617.97 415.63 631.34 412.25 645.35 C 411.07 649.12 409.29 652.70 408.57 656.61 C 404.36 677.15 401.19 698.01 400.77 718.98 C 399.47 729.27 400.26 739.66 400.08 750.00 C 400.48 755.64 401.28 761.26 400.92 766.93 C 403.26 802.52 409.22 838.62 424.94 870.99 C 427.61 876.32 430.35 881.62 433.03 886.96 C 433.89 888.49 433.86 890.26 433.90 891.98 C 428.26 891.68 424.50 886.89 420.29 883.73 C 406.97 870.50 397.51 853.90 390.27 836.69 C 382.18 817.38 377.84 796.72 375.27 776.01 C 375.21 769.61 373.44 763.35 373.99 756.93 C 373.74 741.27 373.54 725.55 375.81 710.02 C 377.96 693.38 381.22 676.78 386.87 660.95 C 387.47 659.03 387.54 657.00 388.09 655.07 C 393.72 640.03 400.63 625.31 410.31 612.41 Z" />
<path fill="#00bdfb" opacity="1.00" d=" M 674.54 629.94 C 675.11 625.03 674.80 618.98 678.99 615.53 C 682.15 618.28 682.31 622.85 683.55 626.60 C 686.19 639.80 691.53 652.53 699.92 663.12 C 703.58 668.66 708.71 672.94 713.28 677.70 C 729.56 692.41 749.60 701.79 768.66 712.27 C 784.68 720.13 799.79 729.95 813.27 741.68 C 821.88 750.47 831.39 758.57 837.88 769.17 C 850.84 787.44 858.29 809.64 858.23 832.08 C 857.38 839.68 857.10 848.12 852.01 854.29 C 850.18 854.66 848.90 852.66 848.89 851.05 C 847.68 842.68 847.00 834.22 844.92 826.00 C 841.60 811.33 833.89 798.09 824.52 786.49 C 811.81 772.04 796.86 759.66 780.70 749.24 C 770.67 742.23 760.05 736.14 750.02 729.13 C 736.86 720.38 723.76 711.46 711.38 701.63 C 705.39 696.28 698.82 691.48 694.02 684.95 C 683.88 673.53 676.78 659.22 674.89 644.00 C 674.98 639.29 673.66 634.62 674.54 629.94 Z" />
<path fill="#00bdfb" opacity="1.00" d=" M 572.32 764.37 C 576.83 763.25 582.01 763.30 586.04 765.89 C 588.09 766.99 588.83 769.63 588.74 771.82 C 587.86 777.88 586.02 783.83 586.13 790.01 C 586.13 814.34 586.09 838.67 586.10 863.00 C 585.95 869.69 586.63 876.41 585.33 883.03 C 585.47 890.24 584.10 898.44 578.26 903.33 C 575.10 906.29 570.94 907.88 566.82 908.97 C 564.52 909.54 561.15 907.80 561.92 905.03 C 562.97 899.82 565.51 895.05 566.69 889.87 C 568.83 883.11 568.90 875.99 569.79 869.02 C 569.80 844.00 569.91 818.98 569.78 793.96 C 568.75 786.89 568.51 779.64 566.09 772.85 C 564.79 768.69 568.62 765.27 572.32 764.37 Z" />
</g>
<g id="#006f94ff">
<path fill="#006f94" opacity="1.00" d=" M 826.89 615.30 C 831.01 617.92 831.97 623.24 835.74 626.24 C 837.88 628.51 841.12 628.71 843.99 629.31 L 844.82 629.47 C 842.38 634.70 833.95 634.77 831.22 629.79 C 828.82 625.31 828.04 620.19 826.89 615.30 Z" />
</g>
<g id="#007298ff">
<path fill="#007298" opacity="1.00" d=" M 704.95 638.98 C 704.35 637.90 704.53 636.68 704.69 635.54 C 713.48 648.74 725.86 659.16 739.55 667.00 L 739.55 667.34 C 739.54 667.87 739.52 668.93 739.52 669.45 C 759.36 683.03 781.75 692.20 801.99 705.13 C 804.94 707.01 807.69 709.22 810.81 710.85 C 811.29 710.74 812.25 710.50 812.73 710.38 L 813.11 710.29 C 832.56 726.22 849.90 745.39 860.65 768.32 C 863.10 773.86 865.59 779.45 866.99 785.38 C 863.82 783.53 863.03 779.68 861.37 776.68 C 856.69 766.58 850.03 757.61 843.05 749.01 C 831.33 735.36 817.93 723.13 802.87 713.22 C 780.50 697.85 754.70 688.27 732.83 672.12 C 721.33 663.25 711.07 652.28 704.95 638.98 Z" />
</g>
<g id="#005e7dff">
<path fill="#005e7d" opacity="1.00" d=" M 739.52 669.45 C 739.52 668.93 739.54 667.87 739.55 667.34 C 763.94 681.65 791.08 691.73 812.73 710.38 C 812.25 710.50 811.29 710.74 810.81 710.85 C 807.69 709.22 804.94 707.01 801.99 705.13 C 781.75 692.20 759.36 683.03 739.52 669.45 Z" />
</g>
<g id="#00445aff">
<path fill="#00445a" opacity="1.00" d=" M 506.55 737.45 C 507.79 734.02 511.66 732.73 514.94 732.14 C 519.11 731.14 523.33 732.45 527.53 732.40 C 523.93 734.85 519.35 735.23 515.85 737.86 C 512.62 740.14 510.83 743.81 508.22 746.70 C 506.21 744.10 505.56 740.58 506.55 737.45 Z" />
</g>
<g id="#005571ff">
<path fill="#005571" opacity="1.00" d=" M 587.00 734.03 C 597.69 733.57 608.31 732.27 618.99 731.69 C 622.57 731.89 626.56 732.10 629.45 734.51 C 632.26 737.90 631.98 743.35 629.00 746.57 C 622.01 739.60 611.39 738.74 602.05 739.24 C 582.42 740.83 562.67 740.32 543.03 739.21 C 536.73 739.14 530.23 739.81 524.47 742.51 C 521.04 744.01 518.86 747.16 516.28 749.71 C 513.40 749.32 510.47 748.66 508.22 746.70 C 510.83 743.81 512.62 740.14 515.85 737.86 C 519.35 735.23 523.93 734.85 527.53 732.40 C 547.31 733.99 567.17 734.84 587.00 734.03 Z" />
<path fill="#005571" opacity="1.00" d=" M 521.35 899.15 C 527.88 897.66 533.66 893.98 538.45 889.39 C 538.48 889.94 538.53 891.05 538.56 891.60 C 534.35 897.73 527.59 901.78 520.44 903.52 C 508.12 906.41 495.07 903.72 483.65 898.75 C 483.64 898.41 483.61 897.72 483.60 897.38 C 495.84 900.62 508.89 901.99 521.35 899.15 Z" />
</g>
<g id="#006e92ff">
<path fill="#006e92" opacity="1.00" d=" M 524.47 742.51 C 530.23 739.81 536.73 739.14 543.03 739.21 C 562.67 740.32 582.42 740.83 602.05 739.24 C 611.39 738.74 622.01 739.60 629.00 746.57 C 625.85 748.01 622.49 748.93 619.09 749.57 C 614.15 748.03 609.34 745.61 604.04 745.69 C 592.04 745.49 580.05 745.80 568.05 745.69 C 557.64 745.79 547.06 745.08 536.86 747.60 C 534.48 748.22 532.66 749.95 530.78 751.43 C 525.91 751.28 520.99 750.23 516.08 749.93 L 516.28 749.71 C 518.86 747.16 521.04 744.01 524.47 742.51 Z" />
<path fill="#006e92" opacity="1.00" d=" M 662.42 815.47 C 666.29 812.85 671.17 813.05 675.54 814.06 C 677.07 820.46 678.70 826.84 680.71 833.11 C 677.67 830.40 674.99 825.78 670.35 826.23 C 665.43 826.62 663.02 831.71 661.63 835.82 C 658.76 846.65 659.76 857.95 659.60 869.03 C 659.80 880.02 658.96 891.06 660.51 901.98 C 660.56 908.36 663.37 914.16 664.68 920.30 C 658.01 917.76 656.47 910.17 655.49 903.91 C 653.91 892.33 653.73 880.62 653.72 868.96 C 652.78 855.56 653.89 842.14 653.77 828.73 L 654.18 828.06 C 656.85 823.83 658.08 818.44 662.42 815.47 Z" />
</g>
<g id="#00ade6ff">
<path fill="#00ade6" opacity="1.00" d=" M 555.78 760.76 C 559.27 756.21 565.70 756.19 570.92 756.08 C 578.93 756.46 587.43 754.51 595.02 757.95 C 597.55 758.80 599.08 761.06 600.27 763.32 C 599.90 766.93 599.38 770.54 599.12 774.18 C 596.26 776.04 596.03 779.59 595.43 782.63 C 592.85 797.29 594.07 812.22 593.84 827.02 C 593.83 845.67 593.80 864.32 593.86 882.97 C 593.90 888.16 593.33 893.48 591.20 898.28 C 590.10 900.70 588.99 903.13 588.21 905.69 L 588.12 905.94 C 582.62 909.13 577.40 912.82 571.55 915.36 C 563.20 919.00 554.54 922.11 545.60 923.86 C 542.90 923.23 540.10 922.70 537.70 921.26 C 536.21 918.97 538.89 916.89 540.20 915.27 C 545.37 910.37 550.21 905.06 553.95 898.98 C 557.37 893.03 559.42 886.35 560.65 879.63 C 563.26 858.84 561.47 837.87 562.15 817.00 C 561.95 802.49 562.81 787.41 557.28 773.66 C 555.54 769.69 554.00 764.96 555.78 760.76 M 572.32 764.37 C 568.62 765.27 564.79 768.69 566.09 772.85 C 568.51 779.64 568.75 786.89 569.78 793.96 C 569.91 818.98 569.80 844.00 569.79 869.02 C 568.90 875.99 568.83 883.11 566.69 889.87 C 565.51 895.05 562.97 899.82 561.92 905.03 C 561.15 907.80 564.52 909.54 566.82 908.97 C 570.94 907.88 575.10 906.29 578.26 903.33 C 584.10 898.44 585.47 890.24 585.33 883.03 C 586.63 876.41 585.95 869.69 586.10 863.00 C 586.09 838.67 586.13 814.34 586.13 790.01 C 586.02 783.83 587.86 777.88 588.74 771.82 C 588.83 769.63 588.09 766.99 586.04 765.89 C 582.01 763.30 576.83 763.25 572.32 764.37 Z" />
</g>
<g id="#0099cbff">
<path fill="#0099cb" opacity="1.00" d=" M 595.43 782.63 C 596.03 779.59 596.26 776.04 599.12 774.18 C 599.36 810.79 599.13 847.41 599.23 884.03 C 599.35 892.43 595.55 901.21 588.21 905.69 C 588.99 903.13 590.10 900.70 591.20 898.28 C 593.33 893.48 593.90 888.16 593.86 882.97 C 593.80 864.32 593.83 845.67 593.84 827.02 C 594.07 812.22 592.85 797.29 595.43 782.63 Z" />
<path fill="#0099cb" opacity="1.00" d=" M 665.45 842.36 C 666.31 839.13 668.47 834.30 672.61 835.41 C 676.91 836.93 678.59 841.67 680.64 845.35 C 685.99 855.25 689.37 866.11 695.31 875.71 C 701.16 885.52 708.00 894.93 716.55 902.55 C 729.56 914.55 746.49 921.19 763.40 925.58 C 766.43 926.29 769.34 927.51 771.78 929.49 C 753.50 934.64 734.09 934.89 715.34 932.70 C 721.05 931.72 727.06 932.62 732.58 930.57 C 735.18 929.85 735.91 925.94 733.83 924.24 C 728.25 918.30 720.64 914.84 714.78 909.22 C 705.24 901.71 697.92 891.80 691.47 881.61 C 687.00 874.73 684.19 866.59 678.03 860.94 C 675.88 859.06 672.76 860.55 672.05 863.08 C 669.56 870.79 669.76 879.00 669.82 887.00 C 669.63 893.34 670.62 899.62 671.28 905.90 C 672.19 913.58 677.23 920.23 683.60 924.35 C 688.46 927.07 693.86 928.73 699.34 929.59 C 701.07 929.79 702.67 930.47 704.04 931.56 C 692.96 930.86 681.91 928.27 671.63 924.06 L 671.55 923.80 C 670.66 920.24 667.79 917.61 666.83 914.08 C 663.64 905.74 664.33 896.72 663.27 888.02 C 663.35 872.79 662.28 857.36 665.45 842.36 Z" />
</g>
<g id="#00698cff">
<path fill="#00698c" opacity="1.00" d=" M 546.44 862.04 C 546.43 833.34 546.41 804.64 546.46 775.95 C 548.23 781.84 550.19 787.78 550.30 794.00 C 550.40 799.34 551.20 804.63 551.22 809.98 C 550.75 825.99 551.50 842.01 551.08 858.03 C 550.07 868.71 551.10 880.04 545.89 889.84 C 541.17 900.11 531.03 907.37 519.96 909.19 C 509.76 911.55 499.27 909.43 489.39 906.66 C 474.16 901.65 460.83 891.57 451.26 878.77 C 450.39 877.89 450.42 876.68 450.43 875.56 C 459.50 885.30 470.72 893.32 483.59 897.11 L 483.60 897.38 C 483.61 897.72 483.64 898.41 483.65 898.75 C 495.07 903.72 508.12 906.41 520.44 903.52 C 527.59 901.78 534.35 897.73 538.56 891.60 C 538.53 891.05 538.48 889.94 538.45 889.39 L 538.39 888.93 C 544.48 881.48 546.84 871.52 546.44 862.04 Z" />
</g>
<g id="#004156ff">
<path fill="#004156" opacity="1.00" d=" M 659.29 800.15 C 664.06 797.23 670.67 799.45 672.93 804.51 L 672.14 804.61 C 669.34 805.01 666.46 804.99 663.73 805.77 C 660.83 806.98 658.27 808.84 655.54 810.36 C 656.30 806.88 655.95 802.38 659.29 800.15 Z" />
</g>
<g id="#00516cff">
<path fill="#00516c" opacity="1.00" d=" M 663.73 805.77 C 666.46 804.99 669.34 805.01 672.14 804.61 L 672.95 804.52 C 674.00 807.64 674.81 810.84 675.54 814.06 C 671.17 813.05 666.29 812.85 662.42 815.47 C 658.08 818.44 656.85 823.83 654.18 828.06 C 654.16 822.13 654.67 816.22 655.54 810.36 C 658.27 808.84 660.83 806.98 663.73 805.77 Z" />
</g>
<g id="#00688aff">
<path fill="#00688a" opacity="1.00" d=" M 824.55 827.64 C 827.46 831.45 827.59 836.41 828.06 840.99 C 828.55 849.75 828.53 858.66 826.27 867.21 C 824.20 877.15 819.40 886.33 813.59 894.58 C 808.70 901.95 801.62 907.65 794.03 912.07 C 779.29 920.15 761.27 919.35 745.69 914.23 C 731.87 909.62 720.05 900.33 710.81 889.22 C 709.02 886.91 706.05 884.72 706.59 881.44 C 715.72 891.60 726.91 900.28 740.00 904.63 C 745.88 906.85 752.15 907.51 758.35 908.20 C 756.66 908.35 755.06 908.91 753.59 909.70 C 758.95 910.48 764.39 911.86 769.84 911.02 C 775.35 910.23 781.01 909.63 786.08 907.16 C 790.68 904.89 795.57 902.89 799.37 899.35 C 804.86 894.11 810.49 888.66 813.74 881.68 C 813.65 881.13 813.48 880.02 813.40 879.46 C 822.78 864.00 825.98 845.52 824.55 827.64 Z" />
</g>
<g id="#00afe8ff">
<path fill="#00afe8" opacity="1.00" d=" M 672.05 863.08 C 672.76 860.55 675.88 859.06 678.03 860.94 C 684.19 866.59 687.00 874.73 691.47 881.61 C 697.92 891.80 705.24 901.71 714.78 909.22 C 720.64 914.84 728.25 918.30 733.83 924.24 C 735.91 925.94 735.18 929.85 732.58 930.57 C 727.06 932.62 721.05 931.72 715.34 932.70 C 711.58 932.62 707.62 932.69 704.04 931.56 C 702.67 930.47 701.07 929.79 699.34 929.59 C 693.86 928.73 688.46 927.07 683.60 924.35 C 677.23 920.23 672.19 913.58 671.28 905.90 C 670.62 899.62 669.63 893.34 669.82 887.00 C 669.76 879.00 669.56 870.79 672.05 863.08 M 682.19 886.34 C 678.94 888.35 678.58 892.49 678.75 895.95 C 678.65 902.75 679.29 910.58 684.38 915.66 C 690.93 920.86 699.86 921.86 707.95 921.03 C 709.16 920.78 710.68 919.44 710.07 918.10 C 704.13 909.45 695.47 903.12 689.85 894.20 C 687.48 891.54 686.11 886.86 682.19 886.34 Z" />
</g>
<g id="#00536eff">
<path fill="#00536e" opacity="1.00" d=" M 813.40 879.46 C 813.48 880.02 813.65 881.13 813.74 881.68 C 810.49 888.66 804.86 894.11 799.37 899.35 C 795.57 902.89 790.68 904.89 786.08 907.16 C 781.01 909.63 775.35 910.23 769.84 911.02 C 764.39 911.86 758.95 910.48 753.59 909.70 C 755.06 908.91 756.66 908.35 758.35 908.20 C 769.51 908.44 780.86 906.20 790.69 900.75 C 800.07 895.91 807.58 888.17 813.40 879.46 Z" />
</g>
<g id="#00bcfaff">
<path fill="#00bcfa" opacity="1.00" d=" M 682.19 886.34 C 686.11 886.86 687.48 891.54 689.85 894.20 C 695.47 903.12 704.13 909.45 710.07 918.10 C 710.68 919.44 709.16 920.78 707.95 921.03 C 699.86 921.86 690.93 920.86 684.38 915.66 C 679.29 910.58 678.65 902.75 678.75 895.95 C 678.58 892.49 678.94 888.35 682.19 886.34 Z" />
</g>
</svg>
