<?xml version="1.0" encoding="UTF-8" ?>
<!DOCTYPE svg PUBLIC "-//W3C//DTD SVG 1.1//EN" "http://www.w3.org/Graphics/SVG/1.1/DTD/svg11.dtd">
<svg width="1276pt" height="1276pt" viewBox="0 0 1276 1276" version="1.1" xmlns="http://www.w3.org/2000/svg">
<g id="#62b847ff">
<path fill="#62b847" opacity="1.00" d=" M 774.55 178.31 C 789.63 172.69 805.55 169.72 821.54 168.31 C 822.95 174.79 822.24 181.47 823.27 188.01 C 822.84 192.29 822.53 196.58 822.48 200.89 C 819.19 242.46 801.40 282.08 775.21 314.24 C 753.11 342.13 722.50 362.90 688.87 374.28 C 672.13 379.77 654.36 382.28 636.77 381.04 C 633.66 360.71 635.86 339.85 641.43 320.14 C 651.06 287.01 668.38 256.04 692.15 230.97 C 715.02 207.32 743.69 189.55 774.55 178.31 Z" />
<path fill="#62b847" opacity="1.00" d=" M 744.96 400.21 C 761.91 395.26 779.34 391.53 797.02 390.65 C 808.63 389.83 820.26 390.79 831.82 391.96 C 866.28 395.57 900.30 405.91 929.84 424.23 C 953.74 439.09 974.67 458.92 990.11 482.49 C 976.46 491.08 963.76 501.16 952.56 512.78 C 734.93 512.72 517.30 512.73 299.67 512.77 C 308.67 496.66 318.95 481.18 331.38 467.50 C 343.22 453.89 357.12 442.16 371.97 431.95 C 388.08 421.23 405.21 411.87 423.47 405.32 C 444.10 397.62 466.07 393.88 488.02 392.95 C 511.13 392.50 534.33 396.60 555.90 404.93 C 575.48 411.78 594.64 419.74 614.02 427.14 C 627.38 431.65 641.90 435.11 655.93 431.72 C 676.16 427.30 694.85 418.02 714.30 411.16 C 724.58 407.65 734.40 402.85 744.96 400.21 Z" />
</g>
<g id="#f4be1aff">
<path fill="#f4be1a" opacity="1.00" d=" M 299.67 512.77 C 517.30 512.73 734.93 512.72 952.56 512.78 C 920.84 543.34 898.09 584.01 892.30 627.95 L 891.02 628.04 C 682.45 628.23 473.88 628.04 265.30 628.13 C 269.02 587.93 280.11 548.19 299.67 512.77 Z" />
</g>
<g id="#f28020ff">
<path fill="#f28020" opacity="1.00" d=" M 265.30 628.13 C 473.88 628.04 682.45 628.23 891.02 628.04 L 892.34 628.06 C 889.90 641.11 890.12 654.45 890.40 667.67 C 891.75 693.75 897.71 719.65 908.73 743.37 C 695.73 743.37 482.72 743.42 269.71 743.35 C 263.90 705.28 261.43 666.51 265.30 628.13 Z" />
</g>
<g id="#e31f32ff">
<path fill="#e31f32" opacity="1.00" d=" M 269.71 743.35 C 482.72 743.42 695.73 743.37 908.73 743.37 L 908.95 743.37 C 917.81 762.54 930.16 779.99 944.53 795.43 C 958.75 810.23 975.14 822.90 992.77 833.37 C 999.44 837.40 1006.52 840.66 1013.74 843.58 C 1012.24 848.59 1010.41 853.50 1008.96 858.53 L 1008.74 858.53 C 772.93 858.63 537.11 858.58 301.29 858.56 L 301.13 858.56 C 287.16 821.23 276.15 782.71 269.71 743.35 Z" />
</g>
<g id="#944094ff">
<path fill="#944094" opacity="1.00" d=" M 301.29 858.56 C 537.11 858.58 772.93 858.63 1008.74 858.53 C 994.42 899.40 974.39 938.17 950.53 974.27 C 754.30 974.36 558.07 974.20 361.84 974.35 C 336.82 938.55 316.62 899.43 301.29 858.56 Z" />
</g>
<g id="#0d99d5ff">
<path fill="#0d99d5" opacity="1.00" d=" M 361.84 974.35 C 558.07 974.20 754.30 974.36 950.53 974.27 C 928.39 1005.86 906.61 1038.74 876.00 1062.89 C 861.47 1074.71 844.09 1083.38 825.48 1086.19 C 803.51 1089.39 780.64 1087.42 759.86 1079.41 C 739.35 1072.47 720.15 1062.00 699.12 1056.56 C 675.55 1050.75 650.82 1049.94 626.90 1054.00 C 607.80 1057.05 589.78 1064.33 572.09 1071.87 C 561.48 1076.08 551.10 1081.03 540.00 1083.87 C 529.51 1086.68 518.76 1088.54 507.93 1089.30 C 486.65 1089.88 465.61 1082.90 447.97 1071.17 C 430.04 1059.53 414.67 1044.38 401.23 1027.85 C 386.95 1010.90 374.14 992.76 361.84 974.35 Z" />
</g>
</svg>
