<?xml version="1.0" encoding="UTF-8" ?>
<!DOCTYPE svg PUBLIC "-//W3C//DTD SVG 1.1//EN" "http://www.w3.org/Graphics/SVG/1.1/DTD/svg11.dtd">
<svg width="1276pt" height="1276pt" viewBox="0 0 1276 1276" version="1.1" xmlns="http://www.w3.org/2000/svg">
<g id="#00a9d4ff">
<path fill="#00a9d4" opacity="1.00" d=" M 465.02 245.69 C 536.06 231.34 607.08 216.87 678.11 202.45 C 706.12 229.90 733.75 257.75 761.65 285.32 C 690.44 299.70 619.25 314.25 548.04 328.64 C 521.08 302.04 494.33 275.24 467.42 248.58 C 466.54 247.69 465.48 246.89 465.02 245.69 Z" />
<path fill="#00a9d4" opacity="1.00" d=" M 896.15 388.19 C 901.03 387.46 905.93 385.68 910.79 385.61 C 938.53 413.07 966.17 440.64 993.85 468.16 C 923.56 482.40 853.28 496.68 783.00 510.97 C 781.35 511.08 779.50 512.27 778.00 511.10 C 778.01 478.12 777.98 445.14 778.01 412.17 C 817.40 404.19 856.77 396.18 896.15 388.19 Z" />
<path fill="#00a9d4" opacity="1.00" d=" M 787.37 520.26 C 858.95 505.73 930.55 491.26 1002.10 476.62 C 1030.29 503.95 1057.82 532.01 1085.84 559.53 C 1014.20 573.95 942.58 588.54 870.98 603.13 C 842.94 575.69 815.35 547.77 787.37 520.26 Z" />
</g>
<g id="#00f3f9ff">
<path fill="#00f3f9" opacity="1.00" d=" M 456.01 251.32 C 484.01 279.16 512.06 306.94 540.02 334.82 C 539.96 406.66 540.03 478.51 539.99 550.36 C 511.96 522.55 484.01 494.66 456.00 466.83 C 456.01 395.00 455.99 323.16 456.01 251.32 Z" />
<path fill="#00f3f9" opacity="1.00" d=" M 456.01 480.87 C 482.86 507.55 509.72 534.21 536.50 560.97 C 509.69 566.55 482.84 571.95 456.00 577.35 C 456.00 545.19 455.99 513.03 456.01 480.87 Z" />
</g>
<g id="#003b4aff">
<path fill="#003b4a" opacity="1.00" d=" M 552.87 337.85 C 624.57 323.24 696.29 308.76 767.99 294.12 C 768.01 367.42 768.00 440.72 767.99 514.01 C 695.35 528.85 622.68 543.58 550.01 558.28 C 549.99 484.73 550.01 411.18 550.00 337.62 C 550.72 337.68 552.15 337.79 552.87 337.85 Z" />
<path fill="#003b4a" opacity="1.00" d=" M 875.06 612.35 C 947.40 597.81 1019.68 583.00 1092.00 568.37 C 1091.99 641.67 1092.00 714.97 1092.00 788.27 C 1019.67 802.93 947.35 817.69 875.01 832.29 C 875.03 758.98 874.93 685.66 875.06 612.35 Z" />
</g>
<g id="#ff5500ff">
<path fill="#ff5500" opacity="1.00" d=" M 767.52 524.31 C 770.32 523.96 773.14 522.66 775.94 522.99 C 803.73 550.43 831.33 578.06 859.08 605.55 C 786.10 620.27 713.17 635.16 640.21 649.95 C 612.40 622.35 584.64 594.71 556.85 567.09 C 627.07 552.81 697.29 538.57 767.52 524.31 Z" />
<path fill="#ff5500" opacity="1.00" d=" M 325.33 614.10 C 398.54 599.23 471.75 584.34 544.97 569.51 C 572.96 596.99 600.56 624.88 628.54 652.37 C 555.14 667.06 481.85 682.33 408.44 696.87 C 380.87 669.15 353.01 641.71 325.33 614.10 Z" />
<path fill="#ff5500" opacity="1.00" d=" M 417.09 705.41 C 490.40 690.67 563.65 675.61 636.96 660.85 C 665.00 688.71 693.02 716.60 721.06 744.46 C 647.83 759.45 574.56 774.33 501.28 789.08 C 473.24 761.17 445.21 733.24 417.09 705.41 Z" />
<path fill="#ff5500" opacity="1.00" d=" M 397.20 709.50 C 400.01 709.12 402.83 707.90 405.66 708.13 C 433.75 735.87 461.59 763.88 489.74 791.56 C 420.98 805.38 352.27 819.48 283.52 833.36 C 280.02 834.33 276.14 834.23 272.91 836.01 C 244.52 808.31 216.68 780.02 188.36 752.24 C 188.62 752.11 189.16 751.83 189.42 751.69 C 258.68 737.62 327.94 723.57 397.20 709.50 Z" />
</g>
<g id="#632100ff">
<path fill="#632100" opacity="1.00" d=" M 648.56 658.34 C 720.73 643.84 792.84 629.04 865.00 614.47 C 865.00 676.64 865.00 738.82 865.00 801.00 C 864.87 812.17 865.25 823.37 864.81 834.53 C 821.18 843.13 777.61 852.13 734.03 861.00 C 733.94 821.77 734.04 782.53 733.99 743.29 C 705.48 715.01 677.06 686.63 648.56 658.34 Z" />
<path fill="#632100" opacity="1.00" d=" M 504.01 798.76 C 577.32 783.82 650.67 769.05 723.97 754.04 C 724.04 827.00 723.98 899.97 724.00 972.93 C 650.69 987.97 577.32 1002.72 504.00 1017.67 C 504.01 944.70 503.99 871.73 504.01 798.76 Z" />
<path fill="#632100" opacity="1.00" d=" M 283.63 843.49 C 353.75 829.30 423.85 814.97 493.98 800.83 C 494.00 873.80 494.03 946.77 493.97 1019.74 C 420.97 1034.45 348.02 1049.41 275.02 1064.13 C 274.98 994.41 275.01 924.70 275.00 854.98 C 275.64 851.76 275.57 848.49 275.74 845.23 C 278.46 845.11 281.03 844.21 283.63 843.49 Z" />
</g>
<g id="#ff9e00ff">
<path fill="#ff9e00" opacity="1.00" d=" M 323.01 625.79 C 347.69 650.33 372.42 674.82 396.98 699.48 C 372.29 704.26 347.68 709.54 323.00 714.37 C 323.01 684.84 322.99 655.32 323.01 625.79 Z" />
<path fill="#ff9e00" opacity="1.00" d=" M 183.02 760.76 C 210.41 787.85 237.63 815.13 265.00 842.25 C 265.00 914.13 265.01 986.00 264.99 1057.88 C 237.68 1030.80 210.50 1003.59 183.10 976.60 C 182.88 904.66 183.04 832.70 183.02 760.76 Z" />
</g>
</svg>
