<?xml version="1.0" encoding="UTF-8" ?>
<!DOCTYPE svg PUBLIC "-//W3C//DTD SVG 1.1//EN" "http://www.w3.org/Graphics/SVG/1.1/DTD/svg11.dtd">
<svg width="1276pt" height="1276pt" viewBox="0 0 1276 1276" version="1.1" xmlns="http://www.w3.org/2000/svg">
<g id="#00bcffff">
<path fill="#00bcff" opacity="1.00" d=" M 509.01 185.00 C 595.67 185.00 682.33 185.00 768.99 185.01 C 769.01 206.67 768.99 228.33 769.00 249.99 C 812.00 250.01 855.00 249.99 898.00 250.01 C 898.01 271.67 897.98 293.33 898.01 315.00 C 919.67 315.01 941.33 314.99 962.99 315.00 C 963.02 335.33 962.97 355.65 963.02 375.97 C 963.24 377.29 962.07 379.31 963.78 380.02 C 985.10 379.97 1006.60 380.01 1027.99 380.00 C 1028.01 401.67 1028.00 423.33 1027.99 445.00 C 1006.33 444.98 984.67 445.03 963.01 444.98 C 962.99 425.65 963.01 406.32 963.00 386.99 C 963.04 385.16 962.79 383.30 963.26 381.51 C 962.66 380.91 962.07 380.32 961.49 379.74 C 950.71 380.34 939.85 379.83 929.03 380.00 C 897.03 380.01 865.02 379.99 833.02 380.01 C 832.96 401.67 833.03 423.33 832.99 444.99 C 811.66 445.02 790.34 444.97 769.01 445.01 C 768.99 509.67 768.99 574.33 769.01 638.99 C 790.34 639.03 811.66 638.97 832.99 639.02 C 833.03 660.67 832.96 682.33 833.02 703.99 C 876.34 704.00 919.67 704.01 962.99 703.99 C 963.01 682.32 962.99 660.66 963.00 639.00 C 984.66 638.99 1006.33 639.02 1027.99 638.99 C 1028.01 617.33 1027.99 595.67 1028.00 574.01 C 1049.33 573.99 1070.66 574.00 1092.00 574.01 C 1092.00 746.67 1092.01 919.33 1091.99 1092.00 C 1070.66 1092.00 1049.33 1092.01 1028.00 1091.99 C 1027.99 1070.66 1028.01 1049.33 1028.00 1028.01 C 1006.33 1027.98 984.67 1028.01 963.01 1027.99 C 962.99 1006.33 963.01 984.67 962.99 963.00 C 941.33 963.00 919.67 962.99 898.00 963.01 C 897.99 984.67 898.01 1006.33 897.99 1028.00 C 876.33 1028.01 854.67 1027.99 833.01 1028.00 C 832.99 1049.33 833.01 1070.66 833.00 1091.99 C 790.00 1092.01 747.00 1092.00 704.00 1091.99 C 703.99 1049.00 704.01 1006.00 703.99 963.01 C 660.66 963.00 617.33 962.99 574.00 963.01 C 573.99 1006.00 574.01 1049.00 573.99 1092.00 C 531.00 1092.00 488.00 1092.00 445.01 1092.00 C 444.99 1070.67 445.01 1049.34 445.00 1028.01 C 423.33 1027.99 401.67 1028.01 380.01 1028.00 C 379.99 1006.33 380.01 984.67 379.99 963.01 C 358.33 963.00 336.67 962.99 315.00 963.01 C 314.99 984.67 315.01 1006.33 315.00 1027.99 C 293.33 1028.01 271.67 1027.99 250.01 1028.01 C 249.99 1049.33 250.01 1070.66 250.00 1091.99 C 228.33 1092.01 206.67 1092.00 185.01 1092.00 C 184.99 919.33 185.00 746.67 185.01 574.01 C 206.67 573.99 228.33 574.01 249.99 573.99 C 250.01 509.33 249.99 444.67 250.00 380.01 C 271.67 379.99 293.33 380.01 314.99 379.99 C 315.01 358.33 314.99 336.67 315.00 315.01 C 336.67 314.98 358.33 315.01 379.99 314.99 C 380.01 293.33 379.99 271.67 380.01 250.01 C 423.00 249.99 466.00 250.01 509.00 249.99 C 509.01 228.33 508.99 206.67 509.01 185.00 M 380.01 380.01 C 379.98 401.67 380.02 423.33 379.99 444.99 C 358.33 445.03 336.66 444.95 315.00 445.03 C 315.01 509.68 314.98 574.34 315.02 639.00 C 336.67 639.01 358.33 638.99 379.98 639.01 C 380.03 660.67 379.97 682.33 380.01 703.99 C 423.00 704.01 465.99 704.00 508.99 703.99 C 509.00 682.33 509.02 660.66 508.98 639.00 C 530.65 638.99 552.32 639.02 574.00 638.99 C 574.00 595.66 574.01 552.33 573.99 509.00 C 574.01 487.67 574.00 466.34 573.99 445.01 C 552.33 444.98 530.67 445.02 509.01 444.99 C 508.98 423.33 509.03 401.67 508.98 380.01 C 465.99 380.00 423.00 379.99 380.01 380.01 Z" />
</g>
<g id="#ffffffff">
<path fill="#ffffff" opacity="1.00" d=" M 380.01 380.01 C 423.00 379.99 465.99 380.00 508.98 380.01 C 509.03 401.67 508.98 423.33 509.01 444.99 C 530.67 445.02 552.33 444.98 573.99 445.01 C 574.00 466.34 574.01 487.67 573.99 509.00 C 530.99 509.00 488.00 508.99 445.01 509.01 C 444.99 552.33 445.00 595.66 445.01 638.99 C 466.33 639.01 487.65 638.99 508.98 639.00 C 509.02 660.66 509.00 682.33 508.99 703.99 C 465.99 704.00 423.00 704.01 380.01 703.99 C 379.97 682.33 380.03 660.67 379.98 639.01 C 358.33 638.99 336.67 639.01 315.02 639.00 C 314.98 574.34 315.01 509.68 315.00 445.03 C 336.66 444.95 358.33 445.03 379.99 444.99 C 380.02 423.33 379.98 401.67 380.01 380.01 Z" />
<path fill="#ffffff" opacity="1.00" d=" M 833.02 380.01 C 865.02 379.99 897.03 380.01 929.03 380.00 C 939.85 379.83 950.71 380.34 961.49 379.74 C 962.07 380.32 962.66 380.91 963.26 381.51 C 962.79 383.30 963.04 385.16 963.00 386.99 C 963.01 406.32 962.99 425.65 963.01 444.98 C 984.67 445.03 1006.33 444.98 1027.99 445.00 C 1028.00 466.33 1028.00 487.67 1027.99 509.00 C 984.66 509.00 941.33 508.99 898.01 509.01 C 898.00 552.34 897.99 595.66 898.01 638.99 C 919.67 639.01 941.33 638.99 963.00 639.00 C 962.99 660.66 963.01 682.32 962.99 703.99 C 919.67 704.01 876.34 704.00 833.02 703.99 C 832.96 682.33 833.03 660.67 832.99 639.02 C 811.66 638.97 790.34 639.03 769.01 638.99 C 768.99 574.33 768.99 509.67 769.01 445.01 C 790.34 444.97 811.66 445.02 832.99 444.99 C 833.03 423.33 832.96 401.67 833.02 380.01 Z" />
</g>
<g id="#000000ff">
<path fill="#000000" opacity="1.00" d=" M 445.01 509.01 C 488.00 508.99 530.99 509.00 573.99 509.00 C 574.01 552.33 574.00 595.66 574.00 638.99 C 552.32 639.02 530.65 638.99 508.98 639.00 C 487.65 638.99 466.33 639.01 445.01 638.99 C 445.00 595.66 444.99 552.33 445.01 509.01 Z" />
<path fill="#000000" opacity="1.00" d=" M 898.01 509.01 C 941.33 508.99 984.66 509.00 1027.99 509.00 C 1028.01 530.67 1027.99 552.34 1028.00 574.01 C 1027.99 595.67 1028.01 617.33 1027.99 638.99 C 1006.33 639.02 984.66 638.99 963.00 639.00 C 941.33 638.99 919.67 639.01 898.01 638.99 C 897.99 595.66 898.00 552.34 898.01 509.01 Z" />
</g>
</svg>
