<?xml version="1.0" encoding="UTF-8" ?>
<!DOCTYPE svg PUBLIC "-//W3C//DTD SVG 1.1//EN" "http://www.w3.org/Graphics/SVG/1.1/DTD/svg11.dtd">
<svg width="1276pt" height="1276pt" viewBox="0 0 1276 1276" version="1.1" xmlns="http://www.w3.org/2000/svg">
<g id="#2ba4dfff">
<path fill="#2ba4df" opacity="1.00" d=" M 434.00 126.68 C 448.67 129.63 463.34 132.56 478.01 135.54 C 477.99 191.57 478.00 247.60 478.01 303.63 C 477.48 303.60 476.43 303.52 475.91 303.48 C 461.89 302.31 447.79 302.06 433.83 300.33 C 434.23 242.45 433.88 184.56 434.00 126.68 Z" />
<path fill="#2ba4df" opacity="1.00" d=" M 257.82 458.81 L 258.52 458.84 C 272.95 459.15 287.39 459.01 301.82 458.91 C 309.91 503.92 318.42 548.86 326.67 593.84 C 339.97 666.39 354.04 738.79 368.56 811.10 C 353.96 814.61 339.16 817.23 324.46 820.22 C 323.51 819.85 323.00 819.15 322.93 818.11 C 314.08 768.74 304.83 719.42 295.82 670.07 C 282.99 599.68 269.57 529.40 257.82 458.81 Z" />
<path fill="#2ba4df" opacity="1.00" d=" M 567.27 944.32 C 567.70 944.14 568.55 943.80 568.98 943.62 C 569.04 1013.14 568.97 1082.66 569.01 1152.18 C 554.35 1160.45 539.67 1168.68 525.00 1176.93 C 524.94 1105.21 525.11 1033.48 524.92 961.76 C 538.89 955.60 553.20 950.26 567.27 944.32 Z" />
</g>
<g id="#df156eff">
<path fill="#df156e" opacity="1.00" d=" M 506.01 152.06 C 617.00 173.79 728.00 195.50 838.99 217.22 C 839.01 251.82 839.00 286.41 839.00 321.01 C 728.00 314.76 616.99 308.58 505.99 302.30 C 506.02 252.22 505.98 202.14 506.01 152.06 Z" />
<path fill="#df156e" opacity="1.00" d=" M 593.09 946.47 C 727.11 892.35 861.02 837.94 995.00 783.71 C 994.99 821.40 995.02 859.09 994.98 896.77 C 860.98 971.83 727.00 1046.95 593.01 1122.04 C 593.05 1063.51 592.88 1004.99 593.09 946.47 Z" />
</g>
<g id="#467578ff">
<path fill="#467578" opacity="1.00" d=" M 433.09 300.22 L 433.83 300.33 C 447.79 302.06 461.89 302.31 475.91 303.48 C 448.55 327.55 421.53 352.02 394.30 376.24 C 363.48 403.81 332.60 431.31 301.82 458.91 C 287.39 459.01 272.95 459.15 258.52 458.84 C 316.55 405.79 374.90 353.09 433.09 300.22 Z" />
</g>
<g id="#d6f3f4ff">
<path fill="#d6f3f4" opacity="1.00" d=" M 560.22 457.06 C 587.34 456.54 614.46 456.14 641.58 455.88 C 630.75 466.62 619.29 476.72 608.22 487.23 C 553.31 538.34 498.41 589.46 443.51 640.58 C 419.46 662.86 395.64 685.37 371.46 707.51 L 371.30 707.66 C 366.50 680.51 361.35 653.42 356.61 626.26 C 418.37 572.50 479.85 518.41 541.49 464.52 C 544.29 462.19 546.71 459.28 550.04 457.69 C 553.39 457.03 556.83 457.19 560.22 457.06 Z" />
<path fill="#d6f3f4" opacity="1.00" d=" M 674.19 468.33 L 674.32 468.21 C 678.42 478.59 682.75 488.88 686.87 499.25 C 593.92 586.52 500.66 673.46 407.61 760.63 C 401.45 766.57 394.80 772.04 389.11 778.46 C 387.55 778.86 385.99 779.25 384.43 779.65 C 382.53 768.94 380.42 758.26 378.68 747.52 C 398.15 729.73 417.05 711.32 436.30 693.30 C 515.61 618.32 594.86 543.28 674.19 468.33 Z" />
</g>
<g id="#81d9deff">
<path fill="#81d9de" opacity="1.00" d=" M 641.58 455.88 C 650.72 455.81 659.86 455.60 669.01 455.52 C 670.73 459.79 672.49 464.05 674.19 468.33 C 594.86 543.28 515.61 618.32 436.30 693.30 C 417.05 711.32 398.15 729.73 378.68 747.52 C 376.31 734.17 373.77 720.86 371.46 707.51 C 395.64 685.37 419.46 662.86 443.51 640.58 C 498.41 589.46 553.31 538.34 608.22 487.23 C 619.29 476.72 630.75 466.62 641.58 455.88 Z" />
<path fill="#81d9de" opacity="1.00" d=" M 326.50 460.49 C 404.41 459.37 482.32 458.25 560.22 457.06 C 556.83 457.19 553.39 457.03 550.04 457.69 C 546.71 459.28 544.29 462.19 541.49 464.52 C 479.85 518.41 418.37 572.50 356.61 626.26 C 346.63 570.99 336.53 515.75 326.50 460.49 Z" />
<path fill="#81d9de" opacity="1.00" d=" M 407.61 760.63 C 500.66 673.46 593.92 586.52 686.87 499.25 C 702.33 537.75 718.11 576.13 733.69 614.59 C 744.72 641.55 755.52 668.62 766.70 695.52 C 735.72 701.92 704.89 709.10 673.95 715.75 C 671.31 703.32 663.44 692.05 652.48 685.57 C 641.41 678.90 627.47 676.91 615.10 680.83 C 601.93 684.67 590.78 694.69 585.55 707.38 C 581.87 716.29 580.78 726.35 583.10 735.77 C 518.44 750.00 453.78 764.28 389.11 778.46 C 394.80 772.04 401.45 766.57 407.61 760.63 Z" />
<path fill="#81d9de" opacity="1.00" d=" M 368.56 811.10 L 369.21 810.93 C 435.27 855.33 501.23 899.89 567.27 944.32 C 553.20 950.26 538.89 955.60 524.92 961.76 C 458.02 914.69 391.27 867.41 324.46 820.22 C 339.16 817.23 353.96 814.61 368.56 811.10 Z" />
</g>
<g id="#dd4c4aff">
<path fill="#dd4c4a" opacity="1.00" d=" M 615.10 680.83 C 627.47 676.91 641.41 678.90 652.48 685.57 C 663.44 692.05 671.31 703.32 673.95 715.75 C 677.03 730.46 672.68 746.56 662.16 757.38 C 654.10 765.90 642.75 771.26 631.01 771.78 C 620.12 772.44 609.15 769.06 600.43 762.53 C 591.76 756.01 585.53 746.33 583.10 735.77 C 580.78 726.35 581.87 716.29 585.55 707.38 C 590.78 694.69 601.93 684.67 615.10 680.83 M 637.10 687.96 C 631.62 689.44 629.20 696.09 631.33 701.10 C 635.25 712.56 647.67 721.95 660.10 719.35 C 663.07 718.19 665.52 715.26 665.62 712.00 C 666.26 704.73 661.48 698.30 656.21 693.82 C 650.93 689.61 643.98 686.20 637.10 687.96 Z" />
</g>
<g id="#efdbdbff">
<path fill="#efdbdb" opacity="1.00" d=" M 637.10 687.96 C 643.98 686.20 650.93 689.61 656.21 693.82 C 661.48 698.30 666.26 704.73 665.62 712.00 C 665.52 715.26 663.07 718.19 660.10 719.35 C 647.67 721.95 635.25 712.56 631.33 701.10 C 629.20 696.09 631.62 689.44 637.10 687.96 Z" />
</g>
<g id="#ea649fff">
<path fill="#ea649f" opacity="1.00" d=" M 750.62 729.43 C 762.76 725.73 774.79 721.63 786.99 718.15 C 850.17 734.31 913.21 751.08 976.35 767.46 C 842.64 820.65 708.77 873.46 575.00 926.50 C 526.89 894.31 478.67 862.28 430.63 830.01 C 485.59 812.70 540.54 795.35 595.55 778.23 C 591.50 791.41 587.54 804.63 583.31 817.76 L 582.99 817.30 C 581.57 816.14 579.73 816.09 578.00 816.14 C 565.81 816.47 553.58 818.27 542.04 822.28 C 536.83 824.23 531.71 826.79 527.69 830.70 C 524.53 833.79 522.62 838.75 524.43 843.01 C 526.55 848.68 531.70 852.44 536.75 855.36 C 549.99 862.79 565.08 866.07 579.99 868.04 C 594.85 869.98 609.93 869.82 624.78 867.94 C 635.26 866.25 645.96 863.96 655.09 858.27 C 659.01 855.66 662.83 851.97 663.50 847.09 C 664.21 841.33 659.79 836.69 655.65 833.37 C 644.15 824.79 629.83 821.35 616.02 818.51 C 621.04 802.94 625.97 787.34 631.01 771.78 C 642.75 771.26 654.10 765.90 662.16 757.38 C 691.54 747.78 721.15 738.80 750.62 729.43 M 789.82 730.82 C 787.16 731.80 783.64 732.85 782.97 736.01 C 782.66 736.37 782.03 737.10 781.72 737.46 C 778.76 738.68 775.59 739.90 773.54 742.48 C 771.88 744.32 771.93 747.51 773.90 749.13 C 778.18 753.28 784.34 754.60 790.05 755.49 C 800.63 756.29 811.89 756.44 821.58 751.49 C 824.34 750.07 827.59 747.57 826.66 744.01 C 825.69 740.79 822.18 739.45 819.79 737.45 C 821.19 733.73 816.93 731.87 814.17 730.88 C 806.31 728.47 797.70 728.60 789.82 730.82 M 857.76 746.85 C 854.91 747.86 851.23 749.66 851.75 753.31 C 849.21 754.88 846.38 756.08 844.21 758.17 C 842.29 760.00 841.69 763.34 843.48 765.46 C 847.17 770.22 853.31 771.98 858.92 773.31 C 869.84 775.53 881.54 775.57 892.11 771.78 C 895.77 770.24 900.65 767.66 900.50 763.07 C 899.54 759.12 895.72 757.07 892.40 755.37 C 892.14 754.99 891.64 754.24 891.39 753.87 C 891.37 753.34 891.34 752.30 891.32 751.77 C 887.91 747.99 882.94 746.26 878.02 745.58 C 871.28 744.88 864.26 744.70 857.76 746.85 M 725.78 753.38 C 725.76 753.84 725.72 754.77 725.70 755.23 C 725.18 755.82 724.69 756.43 724.22 757.07 C 719.24 758.90 712.00 761.69 712.56 768.14 C 714.14 772.63 719.07 774.48 723.21 775.86 C 733.30 778.74 744.15 778.38 754.32 776.08 C 760.00 774.55 766.43 772.46 769.53 767.05 C 771.22 762.52 766.81 759.86 763.86 757.51 C 764.08 756.82 764.51 755.43 764.72 754.74 C 762.79 750.61 758.07 749.38 753.98 748.60 C 744.42 747.07 734.13 748.22 725.78 753.38 M 798.96 770.54 C 795.38 771.68 791.26 773.89 791.26 778.21 C 787.00 780.26 781.96 782.26 779.97 786.92 C 778.72 789.93 780.64 793.18 782.93 795.10 C 787.21 798.65 792.70 800.34 798.08 801.40 C 810.22 803.12 823.30 803.17 834.45 797.39 C 837.60 795.70 841.13 792.94 840.87 788.96 C 841.00 784.50 836.71 781.95 833.34 780.00 C 833.29 779.49 833.17 778.47 833.11 777.96 L 833.28 776.71 C 831.42 772.13 826.31 770.59 821.93 769.59 C 814.37 768.05 806.33 768.09 798.96 770.54 Z" />
</g>
<g id="#b9d0e2ff">
<path fill="#b9d0e2" opacity="1.00" d=" M 789.82 730.82 C 797.70 728.60 806.31 728.47 814.17 730.88 C 816.93 731.87 821.19 733.73 819.79 737.45 C 819.58 739.46 819.45 741.47 819.40 743.50 C 819.11 742.10 818.80 740.71 818.49 739.33 C 807.12 744.46 793.33 744.39 782.34 738.29 C 782.49 737.72 782.81 736.58 782.97 736.01 C 783.64 732.85 787.16 731.80 789.82 730.82 Z" />
<path fill="#b9d0e2" opacity="1.00" d=" M 857.76 746.85 C 864.26 744.70 871.28 744.88 878.02 745.58 C 882.94 746.26 887.91 747.99 891.32 751.77 C 891.34 752.30 891.37 753.34 891.39 753.87 C 891.49 757.20 891.70 760.55 891.31 763.88 C 890.95 761.28 890.72 758.66 890.52 756.07 C 878.56 762.46 863.28 761.55 851.66 754.81 C 851.68 754.44 851.73 753.69 851.75 753.31 C 851.23 749.66 854.91 747.86 857.76 746.85 Z" />
<path fill="#b9d0e2" opacity="1.00" d=" M 725.78 753.38 C 734.13 748.22 744.42 747.07 753.98 748.60 C 758.07 749.38 762.79 750.61 764.72 754.74 C 764.51 755.43 764.08 756.82 763.86 757.51 C 763.80 757.77 763.67 758.30 763.60 758.56 C 754.40 763.02 743.75 764.51 733.75 762.21 C 731.10 761.64 728.73 760.25 726.49 758.81 C 726.17 757.61 725.87 756.42 725.70 755.23 C 725.72 754.77 725.76 753.84 725.78 753.38 Z" />
<path fill="#b9d0e2" opacity="1.00" d=" M 798.96 770.54 C 806.33 768.09 814.37 768.05 821.93 769.59 C 826.31 770.59 831.42 772.13 833.28 776.71 L 833.11 777.96 C 833.05 778.49 832.94 779.55 832.89 780.07 C 824.66 786.14 813.88 786.57 804.11 785.31 C 799.43 784.64 795.25 782.27 791.23 779.93 C 791.32 781.63 791.42 783.34 791.52 785.06 C 791.24 784.43 790.69 783.18 790.42 782.56 C 790.68 781.09 790.97 779.64 791.26 778.21 C 791.26 773.89 795.38 771.68 798.96 770.54 Z" />
</g>
<g id="#000000ff">
<path fill="#000000" opacity="1.00" d=" M 781.72 737.46 C 782.03 737.10 782.66 736.37 782.97 736.01 C 782.81 736.58 782.49 737.72 782.34 738.29 C 781.79 741.10 780.03 745.00 783.23 746.86 C 789.05 750.61 796.38 750.93 803.11 750.63 C 808.86 750.10 815.41 749.30 819.37 744.59 L 819.40 743.50 C 819.45 741.47 819.58 739.46 819.79 737.45 C 822.18 739.45 825.69 740.79 826.66 744.01 C 827.59 747.57 824.34 750.07 821.58 751.49 C 811.89 756.44 800.63 756.29 790.05 755.49 C 784.34 754.60 778.18 753.28 773.90 749.13 C 771.93 747.51 771.88 744.32 773.54 742.48 C 775.59 739.90 778.76 738.68 781.72 737.46 Z" />
<path fill="#000000" opacity="1.00" d=" M 844.21 758.17 C 846.38 756.08 849.21 754.88 851.75 753.31 C 851.73 753.69 851.68 754.44 851.66 754.81 C 851.55 757.23 851.49 759.66 851.42 762.10 C 856.85 767.37 864.69 768.71 871.97 768.82 C 878.66 768.88 885.88 768.19 891.31 763.88 C 891.70 760.55 891.49 757.20 891.39 753.87 C 891.64 754.24 892.14 754.99 892.40 755.37 C 895.72 757.07 899.54 759.12 900.50 763.07 C 900.65 767.66 895.77 770.24 892.11 771.78 C 881.54 775.57 869.84 775.53 858.92 773.31 C 853.31 771.98 847.17 770.22 843.48 765.46 C 841.69 763.34 842.29 760.00 844.21 758.17 Z" />
<path fill="#000000" opacity="1.00" d=" M 724.22 757.07 C 724.69 756.43 725.18 755.82 725.70 755.23 C 725.87 756.42 726.17 757.61 726.49 758.81 C 725.49 758.84 724.50 758.88 723.52 758.92 C 723.21 761.62 721.04 765.15 723.59 767.37 C 728.12 771.14 734.34 771.74 740.01 771.85 C 746.88 771.80 754.28 771.11 760.04 767.01 C 762.79 765.13 762.74 761.44 763.60 758.56 C 763.67 758.30 763.80 757.77 763.86 757.51 C 766.81 759.86 771.22 762.52 769.53 767.05 C 766.43 772.46 760.00 774.55 754.32 776.08 C 744.15 778.38 733.30 778.74 723.21 775.86 C 719.07 774.48 714.14 772.63 712.56 768.14 C 712.00 761.69 719.24 758.90 724.22 757.07 Z" />
<path fill="#000000" opacity="1.00" d=" M 779.97 786.92 C 781.96 782.26 787.00 780.26 791.26 778.21 C 790.97 779.64 790.68 781.09 790.42 782.56 C 789.67 785.25 788.83 788.58 791.63 790.44 C 799.02 796.06 809.03 796.15 817.88 795.31 C 823.12 794.41 829.09 792.94 832.33 788.35 C 832.91 785.63 832.68 782.82 832.89 780.07 C 832.94 779.55 833.05 778.49 833.11 777.96 C 833.17 778.47 833.29 779.49 833.34 780.00 C 836.71 781.95 841.00 784.50 840.87 788.96 C 841.13 792.94 837.60 795.70 834.45 797.39 C 823.30 803.17 810.22 803.12 798.08 801.40 C 792.70 800.34 787.21 798.65 782.93 795.10 C 780.64 793.18 778.72 789.93 779.97 786.92 Z" />
<path fill="#000000" opacity="1.00" d=" M 542.04 822.28 C 553.58 818.27 565.81 816.47 578.00 816.14 C 579.73 816.09 581.57 816.14 582.99 817.30 L 583.31 817.76 C 581.91 822.95 580.17 828.04 578.56 833.17 C 580.64 835.83 582.79 838.52 585.59 840.50 C 591.88 845.00 600.38 845.98 607.69 843.69 C 611.00 835.50 613.16 826.87 616.02 818.51 C 629.83 821.35 644.15 824.79 655.65 833.37 C 659.79 836.69 664.21 841.33 663.50 847.09 C 662.83 851.97 659.01 855.66 655.09 858.27 C 645.96 863.96 635.26 866.25 624.78 867.94 C 609.93 869.82 594.85 869.98 579.99 868.04 C 565.08 866.07 549.99 862.79 536.75 855.36 C 531.70 852.44 526.55 848.68 524.43 843.01 C 522.62 838.75 524.53 833.79 527.69 830.70 C 531.71 826.79 536.83 824.23 542.04 822.28 Z" />
</g>
<g id="#7c8b98ff">
<path fill="#7c8b98" opacity="1.00" d=" M 782.34 738.29 C 793.33 744.39 807.12 744.46 818.49 739.33 C 818.80 740.71 819.11 742.10 819.40 743.50 L 819.37 744.59 C 815.41 749.30 808.86 750.10 803.11 750.63 C 796.38 750.93 789.05 750.61 783.23 746.86 C 780.03 745.00 781.79 741.10 782.34 738.29 Z" />
<path fill="#7c8b98" opacity="1.00" d=" M 851.66 754.81 C 863.28 761.55 878.56 762.46 890.52 756.07 C 890.72 758.66 890.95 761.28 891.31 763.88 C 885.88 768.19 878.66 768.88 871.97 768.82 C 864.69 768.71 856.85 767.37 851.42 762.10 C 851.49 759.66 851.55 757.23 851.66 754.81 Z" />
<path fill="#7c8b98" opacity="1.00" d=" M 723.52 758.92 C 724.50 758.88 725.49 758.84 726.49 758.81 C 728.73 760.25 731.10 761.64 733.75 762.21 C 743.75 764.51 754.40 763.02 763.60 758.56 C 762.74 761.44 762.79 765.13 760.04 767.01 C 754.28 771.11 746.88 771.80 740.01 771.85 C 734.34 771.74 728.12 771.14 723.59 767.37 C 721.04 765.15 723.21 761.62 723.52 758.92 Z" />
<path fill="#7c8b98" opacity="1.00" d=" M 832.89 780.07 C 832.68 782.82 832.91 785.63 832.33 788.35 C 829.09 792.94 823.12 794.41 817.88 795.31 C 809.03 796.15 799.02 796.06 791.63 790.44 C 788.83 788.58 789.67 785.25 790.42 782.56 C 790.69 783.18 791.24 784.43 791.52 785.06 C 791.42 783.34 791.32 781.63 791.23 779.93 C 795.25 782.27 799.43 784.64 804.11 785.31 C 813.88 786.57 824.66 786.14 832.89 780.07 Z" />
</g>
<g id="#ced0e0ff">
<path fill="#ced0e0" opacity="1.00" d=" M 600.43 762.53 C 609.15 769.06 620.12 772.44 631.01 771.78 C 625.97 787.34 621.04 802.94 616.02 818.51 C 613.16 826.87 611.00 835.50 607.69 843.69 C 600.38 845.98 591.88 845.00 585.59 840.50 C 582.79 838.52 580.64 835.83 578.56 833.17 C 580.17 828.04 581.91 822.95 583.31 817.76 C 587.54 804.63 591.50 791.41 595.55 778.23 C 597.21 773.01 598.82 767.77 600.43 762.53 Z" />
</g>
</svg>
