<?xml version="1.0" encoding="UTF-8" ?>
<!DOCTYPE svg PUBLIC "-//W3C//DTD SVG 1.1//EN" "http://www.w3.org/Graphics/SVG/1.1/DTD/svg11.dtd">
<svg width="1276pt" height="1276pt" viewBox="0 0 1276 1276" version="1.1" xmlns="http://www.w3.org/2000/svg">
<g id="#ffffffff">
<path fill="#ffffff" opacity="1.00" d=" M 287.64 166.93 C 292.73 166.27 297.87 166.02 303.01 166.00 C 521.00 166.00 738.99 166.00 956.98 166.00 C 969.02 166.08 981.16 165.47 993.08 167.62 C 1008.57 170.41 1024.01 174.56 1037.91 182.13 C 1050.44 189.02 1062.08 197.66 1072.09 207.88 C 1083.14 220.04 1092.78 233.72 1099.00 249.00 C 1103.36 259.19 1105.80 270.07 1108.05 280.89 C 1110.63 294.10 1109.90 307.61 1110.00 320.99 C 1110.00 531.00 1110.00 741.02 1110.00 951.03 C 1109.78 963.65 1110.68 976.36 1108.85 988.91 C 1105.98 1007.41 1100.82 1025.88 1090.98 1041.97 C 1082.23 1056.34 1071.39 1069.67 1057.83 1079.78 C 1048.79 1086.73 1039.09 1092.95 1028.53 1097.33 C 1018.55 1101.85 1007.81 1104.33 997.15 1106.65 C 987.57 1108.62 977.77 1109.17 968.02 1109.00 C 747.02 1109.00 526.02 1109.00 305.02 1109.00 C 293.53 1109.20 282.05 1107.73 270.93 1104.86 C 254.60 1101.31 238.93 1094.61 225.27 1084.97 C 216.14 1078.52 207.27 1071.49 200.14 1062.83 C 188.06 1048.83 178.30 1032.63 172.97 1014.85 C 169.06 1001.22 165.93 987.20 166.00 972.95 C 166.00 751.63 166.00 530.32 166.00 309.00 C 165.58 295.58 167.06 282.14 170.56 269.18 C 175.95 244.70 189.41 222.53 206.93 204.83 C 221.75 190.96 239.20 179.54 258.66 173.44 C 268.14 170.60 277.81 168.23 287.64 166.93 M 277.71 206.83 C 263.21 211.08 249.30 218.01 238.00 228.14 C 222.50 241.30 211.73 259.53 206.46 279.08 C 204.32 288.21 203.91 297.64 204.00 306.98 C 204.00 523.31 204.00 739.64 204.00 955.97 C 204.08 968.66 203.40 981.50 206.03 994.01 C 212.41 1020.73 229.91 1044.94 254.11 1058.20 C 296.15 1005.87 337.94 953.34 379.90 900.93 C 562.91 671.92 745.94 442.95 928.95 213.93 C 931.71 210.75 933.94 207.09 937.17 204.32 C 932.44 203.77 927.68 204.06 922.94 204.00 C 716.29 204.00 509.64 204.00 302.99 204.00 C 294.50 204.07 285.94 204.67 277.71 206.83 M 995.94 206.19 C 995.93 248.79 995.93 291.38 995.93 333.98 C 996.11 345.33 995.20 356.65 995.52 368.01 C 995.52 601.64 995.53 835.27 995.52 1068.90 C 1011.27 1064.79 1026.37 1057.40 1038.50 1046.43 C 1053.73 1033.31 1064.33 1015.26 1069.54 995.91 C 1072.02 985.49 1072.09 974.69 1072.00 964.03 C 1072.00 747.70 1072.00 531.36 1072.00 315.02 C 1071.96 305.66 1072.30 296.25 1070.96 286.95 C 1069.83 277.14 1066.13 267.85 1061.93 258.98 C 1049.14 232.73 1024.16 213.25 995.94 206.19 M 927.44 314.44 C 894.53 355.56 861.69 396.73 828.74 437.81 C 792.11 483.80 755.28 529.64 718.63 575.61 C 717.48 576.84 716.57 578.28 715.90 579.83 C 720.95 579.57 725.83 578.08 730.83 577.34 C 745.08 574.79 759.53 573.23 774.01 573.02 C 798.19 572.07 822.31 575.28 846.03 579.88 C 847.55 580.62 849.33 580.47 850.86 581.23 C 852.23 581.41 853.66 581.51 854.94 582.14 C 856.25 582.39 857.61 582.60 858.87 583.14 C 867.10 585.14 875.08 588.01 883.11 590.65 C 884.10 591.06 885.11 591.42 886.15 591.75 C 887.14 592.11 888.15 592.46 889.17 592.80 C 894.13 594.84 899.11 596.86 903.90 599.26 C 907.37 600.58 910.66 602.33 914.06 603.83 C 917.42 605.49 920.70 607.30 923.90 609.26 C 924.93 609.74 925.97 610.22 927.03 610.71 C 930.10 612.60 933.03 614.91 936.52 615.96 C 936.45 549.65 936.51 483.34 936.49 417.03 C 936.36 378.99 936.74 340.93 936.30 302.90 C 933.77 307.05 930.37 310.58 927.44 314.44 M 746.02 633.01 C 716.68 637.65 688.18 648.05 663.10 664.01 C 645.98 674.76 630.74 688.24 617.11 703.11 C 609.78 711.50 602.87 720.24 595.96 728.97 C 505.61 841.94 415.26 954.92 324.93 1067.91 C 323.35 1069.86 321.79 1071.87 319.79 1073.42 C 328.18 1073.86 336.58 1073.52 344.97 1073.63 C 542.15 1073.59 739.32 1073.71 936.50 1073.57 C 936.46 947.02 936.52 820.47 936.47 693.93 C 934.96 688.52 929.54 685.19 925.93 681.09 C 907.12 663.67 883.83 651.70 859.71 643.46 C 839.13 636.54 817.66 631.95 795.94 631.17 C 788.08 629.80 779.96 630.93 771.99 630.53 C 763.33 631.34 754.64 631.73 746.02 633.01 Z" />
</g>
<g id="#009ae0ff">
<path fill="#009ae0" opacity="1.00" d=" M 277.71 206.83 C 285.94 204.67 294.50 204.07 302.99 204.00 C 509.64 204.00 716.29 204.00 922.94 204.00 C 927.68 204.06 932.44 203.77 937.17 204.32 C 933.94 207.09 931.71 210.75 928.95 213.93 C 745.94 442.95 562.91 671.92 379.90 900.93 C 337.94 953.34 296.15 1005.87 254.11 1058.20 C 229.91 1044.94 212.41 1020.73 206.03 994.01 C 203.40 981.50 204.08 968.66 204.00 955.97 C 204.00 739.64 204.00 523.31 204.00 306.98 C 203.91 297.64 204.32 288.21 206.46 279.08 C 211.73 259.53 222.50 241.30 238.00 228.14 C 249.30 218.01 263.21 211.08 277.71 206.83 Z" />
<path fill="#009ae0" opacity="1.00" d=" M 995.94 206.19 C 1024.16 213.25 1049.14 232.73 1061.93 258.98 C 1066.13 267.85 1069.83 277.14 1070.96 286.95 C 1072.30 296.25 1071.96 305.66 1072.00 315.02 C 1072.00 531.36 1072.00 747.70 1072.00 964.03 C 1072.09 974.69 1072.02 985.49 1069.54 995.91 C 1064.33 1015.26 1053.73 1033.31 1038.50 1046.43 C 1026.37 1057.40 1011.27 1064.79 995.52 1068.90 C 995.53 835.27 995.52 601.64 995.52 368.01 C 995.20 356.65 996.11 345.33 995.93 333.98 C 995.93 291.38 995.93 248.79 995.94 206.19 Z" />
</g>
<g id="#ff2700ff">
<path fill="#ff2700" opacity="1.00" d=" M 927.44 314.44 C 930.37 310.58 933.77 307.05 936.30 302.90 C 936.74 340.93 936.36 378.99 936.49 417.03 C 936.51 483.34 936.45 549.65 936.52 615.96 C 933.03 614.91 930.10 612.60 927.03 610.71 C 925.97 610.22 924.93 609.74 923.90 609.26 C 920.70 607.30 917.42 605.49 914.06 603.83 C 910.66 602.33 907.37 600.58 903.90 599.26 C 899.11 596.86 894.13 594.84 889.17 592.80 C 888.15 592.46 887.14 592.11 886.15 591.75 C 885.11 591.42 884.10 591.06 883.11 590.65 C 875.08 588.01 867.10 585.14 858.87 583.14 C 857.61 582.60 856.25 582.39 854.94 582.14 C 853.66 581.51 852.23 581.41 850.86 581.23 C 849.33 580.47 847.55 580.62 846.03 579.88 C 822.31 575.28 798.19 572.07 774.01 573.02 C 759.53 573.23 745.08 574.79 730.83 577.34 C 725.83 578.08 720.95 579.57 715.90 579.83 C 716.57 578.28 717.48 576.84 718.63 575.61 C 755.28 529.64 792.11 483.80 828.74 437.81 C 861.69 396.73 894.53 355.56 927.44 314.44 Z" />
</g>
<g id="#ffce00ff">
<path fill="#ffce00" opacity="1.00" d=" M 746.02 633.01 C 754.64 631.73 763.33 631.34 771.99 630.53 C 779.96 630.93 788.08 629.80 795.94 631.17 C 817.66 631.95 839.13 636.54 859.71 643.46 C 883.83 651.70 907.12 663.67 925.93 681.09 C 929.54 685.19 934.96 688.52 936.47 693.93 C 936.52 820.47 936.46 947.02 936.50 1073.57 C 739.32 1073.71 542.15 1073.59 344.97 1073.63 C 336.58 1073.52 328.18 1073.86 319.79 1073.42 C 321.79 1071.87 323.35 1069.86 324.93 1067.91 C 415.26 954.92 505.61 841.94 595.96 728.97 C 602.87 720.24 609.78 711.50 617.11 703.11 C 630.74 688.24 645.98 674.76 663.10 664.01 C 688.18 648.05 716.68 637.65 746.02 633.01 Z" />
</g>
</svg>
