<?xml version="1.0" encoding="UTF-8" ?>
<!DOCTYPE svg PUBLIC "-//W3C//DTD SVG 1.1//EN" "http://www.w3.org/Graphics/SVG/1.1/DTD/svg11.dtd">
<svg width="1276pt" height="1276pt" viewBox="0 0 1276 1276" version="1.1" xmlns="http://www.w3.org/2000/svg">
<g id="#ffffffff">
<path fill="#ffffff" opacity="1.00" d=" M 298.13 370.17 C 356.38 370.19 414.62 370.20 472.86 370.16 C 475.01 372.22 477.08 374.37 479.22 376.44 C 479.15 419.20 479.25 461.97 479.18 504.73 C 455.13 528.55 431.33 552.62 407.25 576.40 C 392.77 576.30 378.30 576.26 363.83 576.42 C 339.67 552.69 315.90 528.55 291.83 504.73 C 291.77 461.95 291.81 419.16 291.81 376.37 C 293.97 374.35 296.00 372.21 298.13 370.17 M 316.24 394.33 C 315.91 397.00 314.98 399.97 315.93 402.55 C 315.84 404.30 315.80 406.06 315.83 407.83 C 315.84 432.96 315.79 458.10 315.85 483.23 C 315.81 485.78 315.76 488.34 315.90 490.91 C 316.03 491.35 316.28 492.23 316.41 492.67 C 322.15 498.99 328.52 504.72 334.36 510.95 L 334.53 510.91 C 341.81 518.49 349.37 525.79 356.77 533.25 C 363.23 539.46 369.26 546.19 375.99 552.07 C 382.36 552.20 388.74 552.01 395.12 552.15 C 415.32 532.35 435.24 512.25 455.25 492.25 C 455.07 459.88 455.34 427.51 455.11 395.15 C 455.51 394.00 454.79 393.60 452.96 393.95 C 450.95 394.07 448.94 394.15 446.94 394.14 C 408.39 394.15 369.82 394.08 331.27 394.18 C 326.27 393.72 321.26 394.44 316.24 394.33 Z" />
<path fill="#ffffff" opacity="1.00" d=" M 1026.53 397.81 C 1034.27 396.54 1042.14 397.13 1049.95 396.99 C 1061.53 397.06 1072.77 400.23 1083.95 402.96 C 1104.20 408.11 1122.26 419.46 1138.01 432.94 C 1143.33 437.70 1148.29 442.88 1152.69 448.52 C 1159.91 457.92 1166.80 467.72 1171.53 478.66 C 1176.90 490.23 1179.62 502.77 1182.28 515.18 C 1184.44 525.33 1184.08 535.75 1183.92 546.06 C 1183.23 557.46 1180.16 568.52 1177.35 579.54 C 1172.05 598.59 1161.25 615.57 1148.53 630.50 C 1141.65 638.37 1133.65 645.19 1125.06 651.12 C 1111.02 661.64 1094.65 668.93 1077.52 672.65 C 1066.22 675.54 1054.63 677.65 1042.92 677.00 C 1028.32 677.76 1014.07 673.91 1000.09 670.22 C 980.98 664.80 963.98 653.85 948.99 641.06 C 938.37 631.77 929.92 620.33 922.36 608.49 C 911.90 591.68 906.95 572.19 903.74 552.85 C 902.17 537.40 902.52 521.55 906.65 506.48 C 910.10 489.71 916.44 473.42 926.37 459.39 C 933.68 448.60 942.05 438.43 952.21 430.19 C 962.81 421.83 973.96 413.94 986.48 408.71 C 999.23 403.20 1012.91 400.26 1026.53 397.81 M 1008.22 426.32 L 1007.88 426.08 C 992.26 430.86 977.84 439.37 965.57 450.10 L 965.58 450.57 C 958.77 456.65 951.92 463.35 947.39 471.20 C 942.46 477.97 938.31 485.36 935.27 493.16 C 933.24 498.57 931.15 503.98 929.92 509.64 C 929.03 513.94 928.00 518.23 927.56 522.62 C 927.10 526.48 926.87 530.36 927.02 534.25 C 926.97 540.37 926.84 546.50 927.64 552.59 L 927.97 552.72 C 929.03 564.12 932.70 575.14 937.24 585.60 L 937.39 585.55 C 939.01 589.43 941.12 593.06 943.15 596.74 L 943.30 596.72 C 946.88 603.21 951.66 608.91 956.26 614.69 L 956.40 614.66 C 974.11 634.43 998.73 647.87 1024.97 651.95 C 1034.20 653.66 1043.62 652.81 1052.95 652.97 C 1072.51 651.59 1091.63 644.88 1107.99 634.11 C 1137.87 614.63 1157.97 580.71 1159.98 545.03 C 1159.84 536.88 1160.53 528.66 1159.19 520.59 C 1157.41 507.95 1153.46 495.63 1147.70 484.25 C 1144.54 478.06 1140.83 472.14 1136.58 466.64 C 1133.31 462.26 1129.60 458.22 1125.76 454.33 C 1122.84 451.51 1119.85 448.76 1116.67 446.26 C 1111.02 441.72 1104.96 437.65 1098.49 434.40 L 1098.50 434.23 C 1095.84 432.91 1093.18 431.59 1090.44 430.48 L 1090.45 430.31 C 1086.57 428.73 1082.66 427.22 1078.64 426.06 L 1078.69 425.89 C 1071.76 423.71 1064.61 422.44 1057.44 421.43 C 1050.17 420.49 1042.79 421.21 1035.48 421.21 C 1034.11 420.47 1032.37 421.16 1030.91 421.15 C 1023.21 422.19 1015.54 423.69 1008.22 426.32 Z" />
<path fill="#ffffff" opacity="1.00" d=" M 123.84 543.50 C 166.69 543.41 209.53 543.48 252.38 543.47 C 276.27 567.38 300.19 591.25 324.12 615.12 C 324.03 629.72 324.48 644.46 323.90 658.99 C 300.16 682.93 276.18 706.64 252.38 730.53 C 209.55 730.53 166.71 730.56 123.88 730.52 C 121.94 728.54 119.98 726.59 118.01 724.64 C 118.00 666.21 117.99 607.78 118.01 549.35 C 119.97 547.41 121.93 545.48 123.84 543.50 M 142.22 568.35 C 141.17 571.77 140.85 575.46 141.60 578.99 C 141.73 611.28 141.56 643.58 141.68 675.88 C 141.70 682.54 141.63 689.20 141.69 695.86 C 141.69 697.92 141.68 699.99 141.67 702.07 C 141.65 703.54 141.63 705.02 141.59 706.51 C 174.43 706.67 207.27 706.60 240.11 706.54 C 259.97 686.61 279.93 666.77 299.83 646.88 C 299.78 640.30 299.77 633.73 299.84 627.16 C 298.89 626.21 297.94 625.26 297.01 624.32 C 294.69 621.92 292.22 619.68 289.92 617.28 C 284.45 611.76 278.96 606.26 273.41 600.82 C 264.57 591.90 255.72 582.98 246.71 574.23 L 246.83 574.07 C 244.78 572.02 242.68 570.02 240.47 568.14 L 240.88 567.37 C 239.95 567.14 239.01 567.01 238.07 566.97 C 210.71 567.45 183.34 567.09 155.98 567.22 C 151.37 567.27 146.84 568.42 142.22 568.35 Z" />
<path fill="#ffffff" opacity="1.00" d=" M 518.34 543.50 C 561.06 543.42 603.78 543.47 646.50 543.47 C 648.60 545.65 650.79 547.75 652.91 549.91 C 652.63 599.93 652.87 649.96 652.79 699.98 C 652.85 708.02 652.66 716.07 652.90 724.11 C 650.76 726.25 648.60 728.36 646.50 730.53 C 603.76 730.52 561.01 730.57 518.27 730.51 C 494.07 706.85 470.26 682.71 446.26 658.82 C 446.37 644.30 446.24 629.78 446.32 615.26 C 462.44 598.75 478.98 582.60 495.26 566.24 C 503.00 558.71 510.40 550.74 518.34 543.50 M 530.63 567.63 C 523.20 573.84 516.62 580.97 509.72 587.75 C 499.00 598.64 488.01 609.28 477.32 620.19 L 477.61 620.64 C 475.27 622.67 472.84 624.64 470.90 627.07 C 469.95 633.63 469.54 640.40 470.61 646.98 C 471.53 647.87 472.46 648.77 473.39 649.67 C 483.54 659.62 493.50 669.82 503.64 679.75 C 512.46 688.80 521.50 697.64 530.43 706.59 C 563.23 706.56 596.03 706.65 628.83 706.55 C 628.73 662.17 628.79 617.78 628.80 573.40 C 628.83 572.87 628.89 571.81 628.92 571.28 C 628.90 569.99 628.90 568.71 628.91 567.44 C 625.74 566.86 622.50 566.80 619.31 567.20 C 615.57 566.48 611.76 566.67 607.99 566.72 C 584.34 566.72 560.68 566.68 537.03 566.77 C 534.90 566.91 532.58 566.62 530.63 567.63 Z" />
<path fill="#ffffff" opacity="1.00" d=" M 813.56 610.81 C 820.65 609.62 827.86 610.08 835.02 609.99 C 846.28 609.69 857.25 612.63 868.12 615.22 C 880.95 618.33 893.27 623.56 904.43 630.63 C 915.50 637.95 926.31 645.93 935.07 655.99 C 947.87 670.87 958.75 687.81 964.16 706.83 C 967.77 720.62 971.64 734.64 971.00 749.04 C 971.40 759.17 970.20 769.31 967.68 779.13 C 965.50 788.89 962.96 798.63 958.79 807.76 C 953.61 819.83 945.93 830.59 937.81 840.83 C 928.36 852.47 916.33 861.62 903.83 869.74 C 892.82 876.62 880.70 881.74 868.08 884.79 C 857.23 887.37 846.26 890.31 835.01 890.01 C 827.85 889.91 820.65 890.38 813.56 889.19 C 804.91 887.83 796.40 885.70 787.94 883.47 C 773.65 879.38 760.18 872.58 748.31 863.66 C 738.16 856.66 728.95 848.26 721.36 838.54 C 714.33 829.38 707.59 819.86 702.89 809.26 C 697.16 797.14 694.26 783.96 691.56 770.90 C 689.56 761.39 689.98 751.65 690.03 742.01 C 690.47 731.10 693.38 720.52 695.96 709.98 C 700.16 693.76 708.12 678.72 718.31 665.48 C 729.36 649.84 744.66 637.80 760.94 627.99 C 777.00 618.49 795.34 613.96 813.56 610.81 M 808.52 636.06 L 808.03 635.70 C 781.32 641.11 756.51 655.94 739.27 677.08 L 739.42 677.41 C 733.90 684.07 729.01 691.35 725.36 699.22 C 723.41 703.57 721.30 707.89 719.93 712.47 C 718.44 717.01 717.03 721.59 716.09 726.28 C 715.62 728.66 715.19 731.07 714.84 733.49 C 714.25 738.04 713.81 742.63 714.02 747.23 C 713.98 753.35 713.84 759.49 714.64 765.58 L 714.97 765.71 C 716.03 777.14 719.72 788.18 724.27 798.67 L 724.41 798.61 C 726.03 802.47 728.14 806.09 730.15 809.77 L 730.28 809.70 C 733.19 814.83 736.71 819.58 740.42 824.16 C 762.28 850.65 796.49 867.25 831.01 866.00 C 854.63 866.80 878.12 858.78 897.46 845.44 C 928.42 824.07 948.37 786.80 947.00 749.00 C 947.47 730.72 942.67 712.35 934.04 696.29 L 934.19 696.10 C 932.31 692.82 930.39 689.56 928.43 686.33 L 927.94 686.68 L 928.36 686.20 C 926.65 683.84 925.03 681.42 923.16 679.18 C 922.92 678.86 922.42 678.22 922.18 677.90 C 918.42 673.04 914.21 668.49 909.59 664.44 L 909.66 664.31 C 902.48 657.81 894.53 652.19 886.03 647.57 C 880.20 644.44 874.11 641.66 867.71 639.94 L 867.58 639.44 C 861.74 637.80 855.89 636.09 849.86 635.37 L 849.71 635.09 C 845.26 634.40 840.76 634.03 836.26 634.04 C 826.99 634.02 817.51 633.37 808.52 636.06 Z" />
<path fill="#ffffff" opacity="1.00" d=" M 363.58 698.30 C 378.20 698.31 392.81 698.30 407.43 698.30 C 431.33 722.22 455.26 746.10 479.20 769.97 C 479.22 812.68 479.16 855.38 479.23 898.09 C 477.22 900.04 475.26 902.03 473.27 904.01 C 414.78 904.01 356.29 903.96 297.80 904.03 C 295.75 902.08 293.79 900.05 291.77 898.09 C 291.84 855.38 291.78 812.67 291.80 769.97 C 315.75 746.10 339.67 722.21 363.58 698.30 M 373.71 724.69 C 358.87 739.52 344.01 754.34 329.20 769.20 C 326.65 771.64 323.56 773.49 321.31 776.26 L 321.88 776.90 C 319.93 778.60 317.79 780.13 316.15 782.15 C 315.33 783.79 315.83 785.71 315.77 787.48 C 315.81 788.07 315.87 789.23 315.91 789.82 C 315.70 807.87 315.83 825.93 315.84 843.99 L 315.83 844.94 C 315.83 852.85 315.75 860.76 315.86 868.67 C 315.83 871.07 315.81 873.48 315.80 875.90 C 315.81 877.41 315.80 878.93 315.80 880.45 C 362.27 880.47 408.74 880.47 455.21 880.46 C 455.16 847.70 455.23 814.95 455.17 782.19 C 453.76 780.86 452.37 779.51 451.01 778.15 C 449.77 776.85 448.51 775.59 447.24 774.34 C 445.70 772.75 444.14 771.19 442.57 769.64 C 428.31 755.52 414.28 741.16 399.87 727.19 L 399.91 727.02 C 398.51 725.65 397.14 724.26 395.73 722.92 L 395.44 722.17 C 391.33 721.29 387.07 721.96 382.91 721.99 C 379.77 722.31 376.00 722.11 373.71 724.69 Z" />
</g>
<g id="#edf1f5ff">
<path fill="#edf1f5" opacity="1.00" d=" M 316.24 394.33 C 321.26 394.44 326.27 393.72 331.27 394.18 C 330.27 394.56 329.28 394.96 328.30 395.38 C 329.10 396.90 329.55 398.96 331.35 399.63 C 333.51 400.12 335.76 400.03 337.97 400.07 C 366.65 400.00 395.34 400.09 424.03 400.05 C 428.93 400.08 433.85 399.68 438.74 400.21 C 439.87 401.84 440.95 403.52 441.95 405.25 C 441.52 406.00 441.08 406.76 440.63 407.51 C 405.75 407.65 370.87 407.56 335.99 407.55 C 332.70 407.51 329.50 408.63 326.22 408.48 C 322.34 407.46 319.05 404.97 315.93 402.55 C 314.98 399.97 315.91 397.00 316.24 394.33 Z" />
</g>
<g id="#e4eaefff">
<path fill="#e4eaef" opacity="1.00" d=" M 331.27 394.18 C 369.82 394.08 408.39 394.15 446.94 394.14 C 443.01 396.41 443.62 401.56 441.95 405.25 C 440.95 403.52 439.87 401.84 438.74 400.21 C 433.85 399.68 428.93 400.08 424.03 400.05 C 395.34 400.09 366.65 400.00 337.97 400.07 C 335.76 400.03 333.51 400.12 331.35 399.63 C 329.55 398.96 329.10 396.90 328.30 395.38 C 329.28 394.96 330.27 394.56 331.27 394.18 Z" />
</g>
<g id="#c2d0dcff">
<path fill="#c2d0dc" opacity="1.00" d=" M 446.94 394.14 C 448.94 394.15 450.95 394.07 452.96 393.95 C 446.59 396.32 445.54 403.82 441.44 408.44 C 440.40 409.82 438.53 409.63 437.01 409.78 C 404.67 409.76 372.34 409.80 340.00 409.74 C 336.95 409.99 333.29 408.99 330.65 410.68 C 329.23 413.85 330.01 417.57 329.84 420.97 C 329.86 439.99 329.87 459.01 329.87 478.03 C 329.70 479.69 330.29 482.54 327.90 482.77 C 323.89 482.94 320.91 478.82 321.22 475.04 C 321.20 458.05 321.20 441.05 321.19 424.05 C 321.12 419.73 321.56 415.37 320.98 411.07 C 319.63 409.51 317.59 408.81 315.83 407.83 C 315.80 406.06 315.84 404.30 315.93 402.55 C 319.05 404.97 322.34 407.46 326.22 408.48 C 329.50 408.63 332.70 407.51 335.99 407.55 C 370.87 407.56 405.75 407.65 440.63 407.51 C 441.08 406.76 441.52 406.00 441.95 405.25 C 443.62 401.56 443.01 396.41 446.94 394.14 Z" />
</g>
<g id="#afc1d1ff">
<path fill="#afc1d1" opacity="1.00" d=" M 452.96 393.95 C 454.79 393.60 455.51 394.00 455.11 395.15 C 451.76 395.43 451.67 399.49 450.47 401.91 C 446.93 403.30 444.54 406.51 442.56 409.60 C 442.07 414.10 442.61 418.65 442.29 423.16 C 442.11 423.56 441.75 424.34 441.57 424.73 C 424.43 462.06 391.55 491.53 353.03 505.51 C 349.06 505.02 346.82 501.34 344.10 498.87 C 340.00 495.00 336.37 490.63 332.03 487.05 C 326.72 485.56 321.15 484.92 315.85 483.23 C 315.79 458.10 315.84 432.96 315.83 407.83 C 317.59 408.81 319.63 409.51 320.98 411.07 C 321.56 415.37 321.12 419.73 321.19 424.05 C 321.20 441.05 321.20 458.05 321.22 475.04 C 320.91 478.82 323.89 482.94 327.90 482.77 C 330.29 482.54 329.70 479.69 329.87 478.03 C 329.87 459.01 329.86 439.99 329.84 420.97 C 330.01 417.57 329.23 413.85 330.65 410.68 C 333.29 408.99 336.95 409.99 340.00 409.74 C 372.34 409.80 404.67 409.76 437.01 409.78 C 438.53 409.63 440.40 409.82 441.44 408.44 C 445.54 403.82 446.59 396.32 452.96 393.95 Z" />
<path fill="#afc1d1" opacity="1.00" d=" M 620.27 568.56 C 621.89 568.08 623.59 567.94 625.27 567.75 C 621.55 572.86 617.78 577.96 614.25 583.20 C 613.09 589.47 614.03 595.96 613.96 602.32 C 606.95 614.65 597.46 625.43 587.15 635.11 C 567.64 653.20 543.43 666.20 517.57 672.43 C 515.26 671.62 513.22 670.25 511.62 668.41 C 504.20 660.81 496.58 653.40 489.15 645.82 C 484.72 640.60 477.05 641.85 470.94 641.35 C 470.95 638.64 470.97 635.93 471.60 633.29 C 475.33 634.68 478.97 636.30 482.74 637.58 C 497.53 622.78 512.30 607.96 527.10 593.18 C 530.42 589.82 533.88 586.58 536.92 582.96 C 538.51 582.19 540.15 581.40 541.97 581.47 C 565.33 581.32 588.70 581.60 612.05 581.34 C 617.43 579.61 616.56 572.07 620.27 568.56 Z" />
<path fill="#afc1d1" opacity="1.00" d=" M 237.57 581.61 C 238.79 577.16 237.88 572.18 240.47 568.14 C 242.68 570.02 244.78 572.02 246.83 574.07 L 246.71 574.23 C 245.67 575.67 244.17 577.04 244.36 579.00 C 243.84 581.96 246.19 584.07 248.05 585.99 C 255.07 592.87 262.00 599.87 268.99 606.80 C 266.13 613.53 260.70 618.60 256.07 624.09 C 230.41 652.68 193.94 671.11 155.76 675.14 L 155.21 675.21 C 155.57 644.53 155.19 613.84 155.38 583.16 C 156.88 582.67 158.42 582.25 160.01 582.29 C 184.01 582.32 208.01 582.26 232.01 582.36 C 233.89 582.36 235.74 581.99 237.57 581.61 Z" />
<path fill="#afc1d1" opacity="1.00" d=" M 394.69 722.76 L 395.73 722.92 C 397.14 724.26 398.51 725.65 399.91 727.02 L 399.87 727.19 C 399.19 731.19 396.48 736.52 400.24 739.73 C 412.77 752.06 425.13 764.56 437.61 776.93 C 435.61 781.25 432.29 784.69 429.27 788.29 C 404.89 817.74 369.46 837.49 331.71 843.30 C 330.81 843.48 329.91 843.66 329.02 843.84 C 328.52 843.87 327.53 843.94 327.03 843.97 C 327.75 843.29 328.48 842.62 329.21 841.96 C 329.53 831.31 329.24 820.65 329.35 810.00 C 329.29 804.25 329.60 798.48 328.90 792.77 C 331.43 788.17 335.57 784.85 339.18 781.16 C 352.89 767.52 366.52 753.80 380.22 740.15 C 383.19 736.64 388.08 736.95 392.20 736.15 C 394.52 732.06 392.85 727.06 394.69 722.76 Z" />
</g>
<g id="#29262aff">
<path fill="#29262a" opacity="1.00" d=" M 450.47 401.91 C 451.67 399.49 451.76 395.43 455.11 395.15 C 455.34 427.51 455.07 459.88 455.25 492.25 C 435.24 512.25 415.32 532.35 395.12 552.15 C 388.74 552.01 382.36 552.20 375.99 552.07 C 369.26 546.19 363.23 539.46 356.77 533.25 C 349.37 525.79 341.81 518.49 334.53 510.91 C 337.32 510.33 340.09 509.59 342.84 508.79 C 343.71 508.64 345.45 508.34 346.32 508.19 C 353.82 515.50 361.15 523.00 368.58 530.39 C 371.44 533.17 374.07 536.64 378.11 537.69 C 383.07 539.03 389.24 539.04 393.00 534.98 C 407.30 520.62 421.65 506.29 436.00 491.97 C 438.27 489.60 441.08 487.50 442.17 484.28 C 444.08 479.42 443.11 474.10 443.33 469.03 C 443.51 452.95 442.98 436.85 443.60 420.79 C 446.08 414.57 448.65 408.35 450.47 401.91 Z" />
<path fill="#29262a" opacity="1.00" d=" M 616.63 598.49 C 621.37 590.46 624.78 581.78 628.80 573.40 C 628.79 617.78 628.73 662.17 628.83 706.55 C 596.03 706.65 563.23 706.56 530.43 706.59 C 521.50 697.64 512.46 688.80 503.64 679.75 C 503.84 675.69 508.62 674.32 511.95 673.66 C 515.69 678.69 520.61 682.64 524.87 687.20 C 527.06 689.31 529.09 691.95 532.17 692.78 C 536.01 693.88 540.05 693.68 544.00 693.75 C 566.70 693.70 589.40 693.81 612.10 693.71 C 614.28 694.00 616.73 692.40 616.49 690.01 C 616.62 659.51 616.33 628.99 616.63 598.49 Z" />
<path fill="#29262a" opacity="1.00" d=" M 289.68 629.71 C 291.36 627.05 294.36 625.78 297.01 624.32 C 297.94 625.26 298.89 626.21 299.84 627.16 C 299.77 633.73 299.78 640.30 299.83 646.88 C 279.93 666.77 259.97 686.61 240.11 706.54 C 207.27 706.60 174.43 706.67 141.59 706.51 C 141.63 705.02 141.65 703.54 141.67 702.07 C 146.73 697.54 153.05 693.69 160.02 693.60 C 182.36 693.63 204.70 693.65 227.04 693.60 C 230.92 693.77 234.92 692.62 237.60 689.69 C 250.60 676.65 263.63 663.64 276.65 650.62 C 279.28 647.92 282.19 645.47 284.53 642.50 C 287.34 638.72 287.20 633.65 289.68 629.71 Z" />
<path fill="#29262a" opacity="1.00" d=" M 451.01 778.15 C 452.37 779.51 453.76 780.86 455.17 782.19 C 455.23 814.95 455.16 847.70 455.21 880.46 C 408.74 880.47 362.27 880.47 315.80 880.45 C 315.80 878.93 315.81 877.41 315.80 875.90 C 319.10 872.18 324.25 871.02 327.61 867.46 C 328.17 867.43 328.73 867.40 329.30 867.38 C 365.53 867.85 401.79 867.45 438.03 867.59 C 440.25 867.80 443.72 866.92 443.39 864.08 C 443.40 841.40 443.39 818.72 443.39 796.05 C 443.44 792.04 443.49 787.82 445.30 784.16 C 446.86 781.86 449.06 780.10 451.01 778.15 Z" />
</g>
<g id="#737e89ff">
<path fill="#737e89" opacity="1.00" d=" M 442.56 409.60 C 444.54 406.51 446.93 403.30 450.47 401.91 C 448.65 408.35 446.08 414.57 443.60 420.79 C 443.16 421.57 442.73 422.37 442.29 423.16 C 442.61 418.65 442.07 414.10 442.56 409.60 Z" />
</g>
<g id="#4a5a70ff">
<path fill="#4a5a70" opacity="1.00" d=" M 442.29 423.16 C 442.73 422.37 443.16 421.57 443.60 420.79 C 442.98 436.85 443.51 452.95 443.33 469.03 C 443.11 474.10 444.08 479.42 442.17 484.28 C 441.08 487.50 438.27 489.60 436.00 491.97 C 421.65 506.29 407.30 520.62 393.00 534.98 C 389.24 539.04 383.07 539.03 378.11 537.69 C 374.07 536.64 371.44 533.17 368.58 530.39 C 361.15 523.00 353.82 515.50 346.32 508.19 C 345.45 508.34 343.71 508.64 342.84 508.79 C 344.22 508.36 345.60 507.92 346.99 507.51 C 347.70 507.29 349.11 506.85 349.82 506.64 C 357.02 512.94 363.36 520.13 370.27 526.74 C 373.73 529.95 376.61 533.96 380.82 536.26 C 383.75 536.61 387.53 537.28 389.66 534.70 C 405.67 518.37 422.05 502.40 438.11 486.12 C 439.67 484.45 441.34 482.52 441.29 480.09 C 441.64 461.64 441.08 443.18 441.57 424.73 C 441.75 424.34 442.11 423.56 442.29 423.16 Z" />
<path fill="#4a5a70" opacity="1.00" d=" M 315.86 868.67 C 319.80 868.51 323.63 867.25 327.61 867.46 C 324.25 871.02 319.10 872.18 315.80 875.90 C 315.81 873.48 315.83 871.07 315.86 868.67 Z" />
</g>
<g id="#ffd2d7ff">
<path fill="#ffd2d7" opacity="1.00" d=" M 1008.22 426.32 C 1015.54 423.69 1023.21 422.19 1030.91 421.15 C 1032.37 421.16 1034.11 420.47 1035.48 421.21 C 1041.72 427.48 1051.81 427.10 1057.99 433.52 C 1051.76 435.03 1045.33 434.38 1039.00 434.76 C 1032.84 435.16 1026.62 435.77 1020.77 437.86 C 1018.97 438.36 1017.18 438.89 1015.40 439.43 C 1012.52 440.06 1009.62 440.58 1006.75 441.21 C 1015.13 436.21 1025.30 436.39 1034.19 432.78 C 1029.60 430.07 1024.13 429.84 1019.02 428.91 C 1015.41 428.17 1011.20 428.87 1008.22 426.32 Z" />
</g>
<g id="#feb7beff">
<path fill="#feb7be" opacity="1.00" d=" M 1035.48 421.21 C 1042.79 421.21 1050.17 420.49 1057.44 421.43 C 1059.29 429.13 1068.06 431.13 1072.25 437.09 C 1063.48 437.27 1054.80 435.20 1046.01 435.56 C 1037.51 435.23 1029.17 436.91 1020.77 437.86 C 1026.62 435.77 1032.84 435.16 1039.00 434.76 C 1045.33 434.38 1051.76 435.03 1057.99 433.52 C 1051.81 427.10 1041.72 427.48 1035.48 421.21 Z" />
</g>
<g id="#fe95a0ff">
<path fill="#fe95a0" opacity="1.00" d=" M 1057.44 421.43 C 1064.61 422.44 1071.76 423.71 1078.69 425.89 L 1078.64 426.06 C 1078.45 426.80 1078.08 428.29 1077.89 429.03 C 1081.17 435.75 1088.34 439.39 1092.06 445.77 C 1086.82 445.00 1082.01 442.60 1076.81 441.69 C 1063.63 437.85 1049.76 435.61 1036.03 437.07 C 1018.51 438.52 1001.71 445.34 987.32 455.30 C 981.95 458.88 977.38 463.47 972.25 467.35 C 972.52 464.74 974.54 462.98 976.47 461.43 C 983.42 455.90 990.68 450.68 998.63 446.66 C 1004.02 443.79 1009.90 442.04 1015.40 439.43 C 1017.18 438.89 1018.97 438.36 1020.77 437.86 C 1029.17 436.91 1037.51 435.23 1046.01 435.56 C 1054.80 435.20 1063.48 437.27 1072.25 437.09 C 1068.06 431.13 1059.29 429.13 1057.44 421.43 Z" />
</g>
<g id="#7d97b2ff">
<path fill="#7d97b2" opacity="1.00" d=" M 353.03 505.51 C 391.55 491.53 424.43 462.06 441.57 424.73 C 441.08 443.18 441.64 461.64 441.29 480.09 C 441.34 482.52 439.67 484.45 438.11 486.12 C 422.05 502.40 405.67 518.37 389.66 534.70 C 387.53 537.28 383.75 536.61 380.82 536.26 C 376.61 533.96 373.73 529.95 370.27 526.74 C 363.36 520.13 357.02 512.94 349.82 506.64 C 350.89 506.27 351.96 505.89 353.03 505.51 Z" />
<path fill="#7d97b2" opacity="1.00" d=" M 613.96 602.32 L 614.69 601.60 C 614.29 631.36 614.65 661.13 614.51 690.90 C 590.35 691.54 566.16 691.11 542.00 691.15 C 536.20 691.62 532.91 686.28 529.20 682.81 C 525.58 679.48 522.63 675.33 518.36 672.78 L 517.57 672.43 C 543.43 666.20 567.64 653.20 587.15 635.11 C 597.46 625.43 606.95 614.65 613.96 602.32 Z" />
<path fill="#7d97b2" opacity="1.00" d=" M 268.99 606.80 L 269.55 607.40 C 273.95 612.65 279.51 616.83 283.64 622.30 C 286.21 625.37 285.41 629.63 286.16 633.30 C 285.49 636.73 284.01 640.00 281.42 642.41 C 266.39 657.36 251.46 672.41 236.44 687.38 C 234.37 689.34 232.15 691.88 229.01 691.62 C 206.01 691.81 183.01 691.59 160.01 691.72 C 153.83 692.70 147.84 694.69 141.69 695.86 C 141.63 689.20 141.70 682.54 141.68 675.88 C 144.35 676.07 147.03 676.30 149.70 676.18 C 149.48 680.47 149.21 684.78 149.56 689.07 C 149.40 692.44 155.79 692.58 155.41 689.04 C 155.66 684.41 155.27 679.76 155.76 675.14 C 193.94 671.11 230.41 652.68 256.07 624.09 C 260.70 618.60 266.13 613.53 268.99 606.80 Z" />
<path fill="#7d97b2" opacity="1.00" d=" M 437.61 776.93 L 438.13 777.49 C 441.76 780.90 441.88 785.91 441.64 790.55 C 441.21 815.45 441.60 840.38 441.44 865.29 C 424.97 864.55 408.45 865.14 391.96 864.94 C 371.51 864.87 351.06 865.08 330.61 864.84 C 331.66 857.68 330.20 850.40 331.71 843.30 C 369.46 837.49 404.89 817.74 429.27 788.29 C 432.29 784.69 435.61 781.25 437.61 776.93 Z" />
</g>
<g id="#ffeceeff">
<path fill="#ffecee" opacity="1.00" d=" M 965.57 450.10 C 977.84 439.37 992.26 430.86 1007.88 426.08 L 1008.22 426.32 C 1011.20 428.87 1015.41 428.17 1019.02 428.91 C 1024.13 429.84 1029.60 430.07 1034.19 432.78 C 1025.30 436.39 1015.13 436.21 1006.75 441.21 C 995.33 446.25 984.00 452.21 974.91 460.90 C 971.18 464.06 967.74 467.55 964.38 471.09 C 961.38 473.15 958.78 475.70 956.02 478.07 C 956.71 469.93 961.95 463.27 964.95 455.91 C 965.71 454.23 965.63 452.36 965.58 450.57 L 965.57 450.10 Z" />
</g>
<g id="#fe7281ff">
<path fill="#fe7281" opacity="1.00" d=" M 1077.89 429.03 C 1078.08 428.29 1078.45 426.80 1078.64 426.06 C 1082.66 427.22 1086.57 428.73 1090.45 430.31 L 1090.44 430.48 C 1089.58 435.40 1093.27 439.40 1096.10 442.96 C 1099.42 447.25 1104.03 450.70 1106.02 455.89 C 1097.41 453.15 1090.05 447.57 1081.59 444.47 C 1079.82 443.85 1078.29 442.79 1076.81 441.69 C 1082.01 442.60 1086.82 445.00 1092.06 445.77 C 1088.34 439.39 1081.17 435.75 1077.89 429.03 Z" />
<path fill="#fe7281" opacity="1.00" d=" M 946.23 506.80 C 949.72 498.68 953.01 490.23 958.73 483.37 C 958.49 485.55 957.80 487.64 956.56 489.47 C 950.05 500.14 945.67 512.03 943.53 524.34 C 941.80 532.47 942.49 540.83 941.51 549.04 C 939.20 546.07 938.29 542.37 937.36 538.81 C 935.91 532.56 933.37 526.03 927.56 522.62 C 928.00 518.23 929.03 513.94 929.92 509.64 C 936.65 514.44 936.99 523.35 940.06 530.37 C 942.39 525.54 942.79 520.13 944.27 515.04 C 945.04 512.32 945.70 509.57 946.23 506.80 Z" />
</g>
<g id="#fd5768ff">
<path fill="#fd5768" opacity="1.00" d=" M 1096.10 442.96 C 1093.27 439.40 1089.58 435.40 1090.44 430.48 C 1093.18 431.59 1095.84 432.91 1098.50 434.23 L 1098.49 434.40 C 1098.46 436.03 1098.17 437.75 1098.76 439.34 C 1102.34 448.65 1111.10 454.83 1115.02 463.88 C 1112.16 464.62 1109.40 463.65 1107.24 461.77 C 1088.82 447.81 1066.41 437.96 1043.00 438.09 C 1029.64 438.12 1016.70 442.16 1004.67 447.68 C 981.46 458.90 962.33 478.38 951.90 501.98 C 946.29 515.22 942.78 529.56 943.37 544.01 C 943.13 548.10 944.52 552.32 943.18 556.31 C 936.17 550.22 934.55 539.88 927.02 534.25 C 926.87 530.36 927.10 526.48 927.56 522.62 C 933.37 526.03 935.91 532.56 937.36 538.81 C 938.29 542.37 939.20 546.07 941.51 549.04 C 942.49 540.83 941.80 532.47 943.53 524.34 C 945.67 512.03 950.05 500.14 956.56 489.47 C 957.80 487.64 958.49 485.55 958.73 483.37 C 962.67 477.59 966.99 471.99 972.25 467.35 C 977.38 463.47 981.95 458.88 987.32 455.30 C 1001.71 445.34 1018.51 438.52 1036.03 437.07 C 1049.76 435.61 1063.63 437.85 1076.81 441.69 C 1078.29 442.79 1079.82 443.85 1081.59 444.47 C 1090.05 447.57 1097.41 453.15 1106.02 455.89 C 1104.03 450.70 1099.42 447.25 1096.10 442.96 Z" />
<path fill="#fd5768" opacity="1.00" d=" M 729.08 743.67 C 730.28 735.63 731.52 727.39 735.13 720.02 C 735.75 721.24 736.73 722.58 735.97 724.01 C 732.60 733.94 730.41 744.42 730.87 754.96 C 731.03 763.06 733.22 770.93 733.71 778.99 C 728.60 773.25 727.05 765.47 722.96 759.11 C 720.23 754.98 718.30 750.05 714.02 747.23 C 713.81 742.63 714.25 738.04 714.84 733.49 C 724.14 738.67 723.19 750.71 727.40 759.18 C 730.13 754.49 729.10 748.83 729.08 743.67 Z" />
</g>
<g id="#fd4155ff">
<path fill="#fd4155" opacity="1.00" d=" M 1098.76 439.34 C 1098.17 437.75 1098.46 436.03 1098.49 434.40 C 1104.96 437.65 1111.02 441.72 1116.67 446.26 C 1113.16 452.80 1118.53 458.92 1121.34 464.52 C 1121.03 464.79 1120.42 465.34 1120.11 465.61 C 1117.44 465.32 1114.76 465.30 1112.10 465.24 C 1110.80 473.53 1110.30 481.94 1108.27 490.11 C 1100.69 524.91 1080.86 556.83 1053.07 579.09 C 1030.94 596.96 1003.88 608.64 975.69 612.51 L 975.40 612.28 C 973.03 607.59 968.63 604.55 965.15 600.78 C 955.75 590.78 948.31 579.11 941.94 567.00 C 938.68 561.17 934.83 554.65 927.97 552.72 L 927.64 552.59 C 926.84 546.50 926.97 540.37 927.02 534.25 C 934.55 539.88 936.17 550.22 943.18 556.31 C 944.52 552.32 943.13 548.10 943.37 544.01 C 942.78 529.56 946.29 515.22 951.90 501.98 C 962.33 478.38 981.46 458.90 1004.67 447.68 C 1016.70 442.16 1029.64 438.12 1043.00 438.09 C 1066.41 437.96 1088.82 447.81 1107.24 461.77 C 1109.40 463.65 1112.16 464.62 1115.02 463.88 C 1111.10 454.83 1102.34 448.65 1098.76 439.34 Z" />
<path fill="#fd4155" opacity="1.00" d=" M 818.77 650.37 C 826.77 650.67 834.80 649.98 842.80 650.68 C 847.24 651.24 851.61 652.25 856.05 652.88 C 855.45 653.43 854.85 653.98 854.27 654.55 C 873.11 659.40 889.52 670.52 904.13 683.03 C 900.12 719.94 882.75 755.29 855.64 780.71 C 830.20 805.04 796.33 820.16 761.32 823.40 C 757.00 817.84 751.20 813.63 747.05 807.92 C 739.91 799.40 734.20 789.80 728.94 780.04 C 725.66 774.22 721.82 767.66 714.97 765.71 L 714.64 765.58 C 713.84 759.49 713.98 753.35 714.02 747.23 C 718.30 750.05 720.23 754.98 722.96 759.11 C 727.05 765.47 728.60 773.25 733.71 778.99 C 733.22 770.93 731.03 763.06 730.87 754.96 C 730.41 744.42 732.60 733.94 735.97 724.01 C 736.73 722.58 735.75 721.24 735.13 720.02 C 742.86 698.48 757.88 679.73 776.97 667.16 C 778.31 666.31 779.59 665.26 779.99 663.65 C 781.52 663.52 783.00 663.08 784.30 662.23 C 794.88 656.07 806.71 652.31 818.77 650.37 Z" />
</g>
<g id="#feb5bdff">
<path fill="#feb5bd" opacity="1.00" d=" M 1006.75 441.21 C 1009.62 440.58 1012.52 440.06 1015.40 439.43 C 1009.90 442.04 1004.02 443.79 998.63 446.66 C 990.68 450.68 983.42 455.90 976.47 461.43 C 974.54 462.98 972.52 464.74 972.25 467.35 C 966.99 471.99 962.67 477.59 958.73 483.37 C 953.01 490.23 949.72 498.68 946.23 506.80 C 944.41 509.41 943.13 512.32 941.57 515.08 C 939.52 507.80 941.29 498.83 935.27 493.16 C 938.31 485.36 942.46 477.97 947.39 471.20 C 951.10 478.71 946.08 486.85 947.67 494.54 C 952.27 489.32 955.14 482.85 959.63 477.55 C 961.36 475.50 962.94 473.34 964.38 471.09 C 967.74 467.55 971.18 464.06 974.91 460.90 C 984.00 452.21 995.33 446.25 1006.75 441.21 Z" />
</g>
<g id="#df394bff">
<path fill="#df394b" opacity="1.00" d=" M 1121.34 464.52 C 1118.53 458.92 1113.16 452.80 1116.67 446.26 C 1119.85 448.76 1122.84 451.51 1125.76 454.33 C 1123.11 457.37 1124.36 461.25 1124.63 464.83 C 1124.26 465.29 1123.51 466.20 1123.14 466.66 C 1122.38 466.39 1120.87 465.87 1120.11 465.61 C 1120.42 465.34 1121.03 464.79 1121.34 464.52 Z" />
</g>
<g id="#ffd4d8ff">
<path fill="#ffd4d8" opacity="1.00" d=" M 947.39 471.20 C 951.92 463.35 958.77 456.65 965.58 450.57 C 965.63 452.36 965.71 454.23 964.95 455.91 C 961.95 463.27 956.71 469.93 956.02 478.07 C 958.78 475.70 961.38 473.15 964.38 471.09 C 962.94 473.34 961.36 475.50 959.63 477.55 C 955.14 482.85 952.27 489.32 947.67 494.54 C 946.08 486.85 951.10 478.71 947.39 471.20 Z" />
</g>
<g id="#cd3545ff">
<path fill="#cd3545" opacity="1.00" d=" M 1124.63 464.83 C 1124.36 461.25 1123.11 457.37 1125.76 454.33 C 1129.60 458.22 1133.31 462.26 1136.58 466.64 C 1135.02 468.02 1133.50 469.42 1131.98 470.83 C 1132.11 479.04 1137.01 486.14 1138.85 494.00 C 1136.02 486.66 1133.50 479.19 1130.66 471.85 C 1129.95 469.40 1127.33 468.64 1125.32 467.63 C 1124.58 467.29 1123.86 466.95 1123.14 466.66 C 1123.51 466.20 1124.26 465.29 1124.63 464.83 Z" />
</g>
<g id="#fc151bff">
<path fill="#fc151b" opacity="1.00" d=" M 1112.10 465.24 C 1114.76 465.30 1117.44 465.32 1120.11 465.61 C 1120.87 465.87 1122.38 466.39 1123.14 466.66 C 1123.86 466.95 1124.58 467.29 1125.32 467.63 C 1127.97 474.48 1132.09 480.67 1134.63 487.59 C 1143.70 508.58 1147.23 532.19 1142.78 554.74 C 1135.87 587.59 1111.91 616.01 1081.12 629.16 C 1057.59 639.69 1029.91 639.86 1006.10 630.12 C 995.34 626.13 985.65 619.88 976.47 613.10 L 975.69 612.51 C 1003.88 608.64 1030.94 596.96 1053.07 579.09 C 1080.86 556.83 1100.69 524.91 1108.27 490.11 C 1110.30 481.94 1110.80 473.53 1112.10 465.24 Z" />
<path fill="#fc151b" opacity="1.00" d=" M 905.06 675.30 C 905.85 675.12 907.44 674.75 908.23 674.56 L 908.33 675.26 C 912.52 684.37 917.99 692.89 921.59 702.30 C 926.69 714.92 930.65 728.28 930.82 741.98 C 931.60 746.64 931.00 751.32 930.66 756.00 C 930.72 763.97 928.53 771.74 926.15 779.28 C 917.75 804.03 899.51 825.15 876.57 837.56 C 872.51 839.90 867.76 841.12 864.34 844.46 C 853.72 848.54 842.38 851.06 830.96 850.56 C 808.52 851.53 786.42 843.43 768.05 830.89 C 765.38 828.88 762.40 827.15 760.27 824.56 L 759.65 823.62 L 761.32 823.40 C 796.33 820.16 830.20 805.04 855.64 780.71 C 882.75 755.29 900.12 719.94 904.13 683.03 C 904.17 682.54 904.25 681.58 904.29 681.09 C 904.46 679.15 904.75 677.22 905.06 675.30 Z" />
</g>
<g id="#8f1014ff">
<path fill="#8f1014" opacity="1.00" d=" M 1136.58 466.64 C 1140.83 472.14 1144.54 478.06 1147.70 484.25 C 1145.95 485.41 1143.98 486.71 1143.63 488.96 C 1142.73 494.96 1143.85 500.99 1144.93 506.90 C 1147.30 520.13 1146.83 533.64 1146.41 547.01 C 1144.38 564.67 1137.60 581.78 1127.06 596.10 C 1114.61 612.62 1097.70 626.07 1078.12 633.05 C 1060.97 639.66 1042.07 640.48 1024.04 637.70 C 1005.99 634.61 988.83 626.82 974.28 615.74 C 971.39 613.20 967.45 613.39 963.87 613.61 C 965.99 613.45 968.09 613.17 970.22 613.02 C 972.29 612.96 974.37 613.01 976.47 613.10 C 985.65 619.88 995.34 626.13 1006.10 630.12 C 1029.91 639.86 1057.59 639.69 1081.12 629.16 C 1111.91 616.01 1135.87 587.59 1142.78 554.74 C 1147.23 532.19 1143.70 508.58 1134.63 487.59 C 1132.09 480.67 1127.97 474.48 1125.32 467.63 C 1127.33 468.64 1129.95 469.40 1130.66 471.85 C 1133.50 479.19 1136.02 486.66 1138.85 494.00 C 1137.01 486.14 1132.11 479.04 1131.98 470.83 C 1133.50 469.42 1135.02 468.02 1136.58 466.64 Z" />
</g>
<g id="#97a7b4ff">
<path fill="#97a7b4" opacity="1.00" d=" M 315.85 483.23 C 321.15 484.92 326.72 485.56 332.03 487.05 C 336.37 490.63 340.00 495.00 344.10 498.87 C 346.82 501.34 349.06 505.02 353.03 505.51 C 351.96 505.89 350.89 506.27 349.82 506.64 C 349.11 506.85 347.70 507.29 346.99 507.51 C 341.08 502.64 336.26 496.62 330.50 491.59 C 329.76 490.87 328.88 490.53 327.86 490.58 C 323.87 490.39 319.87 490.54 315.90 490.91 C 315.76 488.34 315.81 485.78 315.85 483.23 Z" />
<path fill="#97a7b4" opacity="1.00" d=" M 625.27 567.75 C 626.48 567.64 627.69 567.53 628.91 567.44 C 628.90 568.71 628.90 569.99 628.92 571.28 C 626.41 571.47 625.01 573.76 623.32 575.31 C 621.11 577.72 618.27 579.58 616.52 582.37 C 615.95 587.95 616.65 593.58 616.02 599.17 C 615.57 599.97 615.12 600.78 614.69 601.60 L 613.96 602.32 C 614.03 595.96 613.09 589.47 614.25 583.20 C 617.78 577.96 621.55 572.86 625.27 567.75 Z" />
</g>
<g id="#5d0d11ff">
<path fill="#5d0d11" opacity="1.00" d=" M 1143.63 488.96 C 1143.98 486.71 1145.95 485.41 1147.70 484.25 C 1153.46 495.63 1157.41 507.95 1159.19 520.59 C 1160.53 528.66 1159.84 536.88 1159.98 545.03 C 1157.97 580.71 1137.87 614.63 1107.99 634.11 C 1091.63 644.88 1072.51 651.59 1052.95 652.97 C 1043.62 652.81 1034.20 653.66 1024.97 651.95 C 998.73 647.87 974.11 634.43 956.40 614.66 C 958.81 613.90 961.35 613.72 963.87 613.61 C 967.45 613.39 971.39 613.20 974.28 615.74 C 988.83 626.82 1005.99 634.61 1024.04 637.70 C 1042.07 640.48 1060.97 639.66 1078.12 633.05 C 1097.70 626.07 1114.61 612.62 1127.06 596.10 C 1137.60 581.78 1144.38 564.67 1146.41 547.01 C 1146.83 533.64 1147.30 520.13 1144.93 506.90 C 1143.85 500.99 1142.73 494.96 1143.63 488.96 Z" />
<path fill="#5d0d11" opacity="1.00" d=" M 931.46 714.80 C 930.81 708.66 928.74 701.04 934.04 696.29 C 942.67 712.35 947.47 730.72 947.00 749.00 C 948.37 786.80 928.42 824.07 897.46 845.44 C 878.12 858.78 854.63 866.80 831.01 866.00 C 796.49 867.25 762.28 850.65 740.42 824.16 C 747.04 823.66 753.66 824.04 760.27 824.56 C 762.40 827.15 765.38 828.88 768.05 830.89 C 786.42 843.43 808.52 851.53 830.96 850.56 C 842.38 851.06 853.72 848.54 864.34 844.46 C 867.10 844.75 869.57 843.45 871.95 842.25 C 895.34 831.34 914.86 811.83 924.91 787.97 C 925.02 788.51 925.25 789.59 925.36 790.13 C 936.55 766.79 935.57 739.75 931.46 714.80 Z" />
</g>
<g id="#6b7680ff">
<path fill="#6b7680" opacity="1.00" d=" M 315.90 490.91 C 319.87 490.54 323.87 490.39 327.86 490.58 C 328.88 490.53 329.76 490.87 330.50 491.59 C 336.26 496.62 341.08 502.64 346.99 507.51 C 345.60 507.92 344.22 508.36 342.84 508.79 C 340.09 509.59 337.32 510.33 334.53 510.91 L 334.36 510.95 C 328.52 504.72 322.15 498.99 316.41 492.67 C 316.28 492.23 316.03 491.35 315.90 490.91 Z" />
<path fill="#6b7680" opacity="1.00" d=" M 473.39 649.67 C 477.05 646.46 483.64 646.16 487.00 649.95 C 493.67 656.65 500.38 663.32 507.00 670.08 C 508.28 671.37 509.73 672.49 511.31 673.40 L 511.95 673.66 C 508.62 674.32 503.84 675.69 503.64 679.75 C 493.50 669.82 483.54 659.62 473.39 649.67 Z" />
</g>
<g id="#fe929eff">
<path fill="#fe929e" opacity="1.00" d=" M 935.27 493.16 C 941.29 498.83 939.52 507.80 941.57 515.08 C 943.13 512.32 944.41 509.41 946.23 506.80 C 945.70 509.57 945.04 512.32 944.27 515.04 C 942.79 520.13 942.39 525.54 940.06 530.37 C 936.99 523.35 936.65 514.44 929.92 509.64 C 931.15 503.98 933.24 498.57 935.27 493.16 Z" />
</g>
<g id="#d33647ff">
<path fill="#d33647" opacity="1.00" d=" M 927.97 552.72 C 934.83 554.65 938.68 561.17 941.94 567.00 C 948.31 579.11 955.75 590.78 965.15 600.78 C 968.63 604.55 973.03 607.59 975.40 612.28 C 970.98 611.55 967.70 608.31 964.42 605.55 C 958.58 600.06 953.14 594.15 947.36 588.60 C 944.65 586.36 940.98 583.45 937.39 585.55 L 937.24 585.60 C 932.70 575.14 929.03 564.12 927.97 552.72 Z" />
<path fill="#d33647" opacity="1.00" d=" M 714.97 765.71 C 721.82 767.66 725.66 774.22 728.94 780.04 C 734.20 789.80 739.91 799.40 747.05 807.92 C 751.20 813.63 757.00 817.84 761.32 823.40 L 759.65 823.62 C 759.02 823.52 757.75 823.34 757.12 823.24 C 748.25 816.74 741.53 807.87 733.27 800.69 C 731.48 799.17 729.30 798.28 727.14 797.49 C 726.45 797.77 725.09 798.33 724.41 798.61 L 724.27 798.67 C 719.72 788.18 716.03 777.14 714.97 765.71 Z" />
</g>
<g id="#e9eef2ff">
<path fill="#e9eef2" opacity="1.00" d=" M 142.22 568.35 C 146.84 568.42 151.37 567.27 155.98 567.22 C 183.34 567.09 210.71 567.45 238.07 566.97 C 239.01 567.01 239.95 567.14 240.88 567.37 C 239.03 567.73 237.16 567.95 235.37 568.50 C 232.99 571.68 236.33 575.70 235.21 579.20 C 234.05 580.86 231.78 580.38 230.05 580.61 C 207.70 580.73 185.36 580.62 163.02 580.64 C 159.38 580.56 155.83 581.69 152.20 581.48 C 148.49 580.61 145.49 578.09 142.32 576.13 C 142.14 576.84 141.78 578.27 141.60 578.99 C 140.85 575.46 141.17 571.77 142.22 568.35 Z" />
<path fill="#e9eef2" opacity="1.00" d=" M 619.31 567.20 C 622.50 566.80 625.74 566.86 628.91 567.44 C 627.69 567.53 626.48 567.64 625.27 567.75 C 623.59 567.94 621.89 568.08 620.27 568.56 C 616.56 572.07 617.43 579.61 612.05 581.34 C 588.70 581.60 565.33 581.32 541.97 581.47 C 540.15 581.40 538.51 582.19 536.92 582.96 C 536.58 582.86 535.88 582.66 535.54 582.56 C 535.60 582.15 535.73 581.32 535.79 580.91 C 538.45 579.92 541.10 578.88 543.66 577.63 C 540.32 575.01 537.11 572.11 535.16 568.28 C 542.42 567.49 549.73 567.79 557.02 567.78 C 574.34 567.80 591.67 567.69 609.00 567.79 C 612.44 567.84 615.89 567.62 619.31 567.20 Z" />
</g>
<g id="#f6f8faff">
<path fill="#f6f8fa" opacity="1.00" d=" M 530.63 567.63 C 532.58 566.62 534.90 566.91 537.03 566.77 C 560.68 566.68 584.34 566.72 607.99 566.72 C 611.76 566.67 615.57 566.48 619.31 567.20 C 615.89 567.62 612.44 567.84 609.00 567.79 C 591.67 567.69 574.34 567.80 557.02 567.78 C 549.73 567.79 542.42 567.49 535.16 568.28 C 537.11 572.11 540.32 575.01 543.66 577.63 C 541.10 578.88 538.45 579.92 535.79 580.91 C 531.65 582.39 528.86 585.89 525.86 588.89 C 513.24 601.57 500.49 614.12 487.95 626.88 C 486.67 628.14 485.30 629.29 483.95 630.45 C 480.50 628.18 479.97 623.78 477.61 620.64 L 477.32 620.19 C 488.01 609.28 499.00 598.64 509.72 587.75 C 516.62 580.97 523.20 573.84 530.63 567.63 Z" />
<path fill="#f6f8fa" opacity="1.00" d=" M 373.71 724.69 C 376.00 722.11 379.77 722.31 382.91 721.99 C 387.07 721.96 391.33 721.29 395.44 722.17 L 395.73 722.92 L 394.69 722.76 C 390.20 722.48 385.73 723.09 381.28 723.54 C 383.17 726.62 385.01 729.76 386.32 733.16 C 382.93 735.67 378.37 736.19 375.43 739.36 C 360.97 753.94 346.35 768.36 331.93 782.97 C 330.77 784.10 329.38 784.94 328.03 785.81 C 325.91 782.88 324.35 779.56 321.88 776.90 L 321.31 776.26 C 323.56 773.49 326.65 771.64 329.20 769.20 C 344.01 754.34 358.87 739.52 373.71 724.69 Z" />
</g>
<g id="#c5d2deff">
<path fill="#c5d2de" opacity="1.00" d=" M 235.37 568.50 C 237.16 567.95 239.03 567.73 240.88 567.37 L 240.47 568.14 C 237.88 572.18 238.79 577.16 237.57 581.61 C 235.74 581.99 233.89 582.36 232.01 582.36 C 208.01 582.26 184.01 582.32 160.01 582.29 C 158.42 582.25 156.88 582.67 155.38 583.16 C 155.19 613.84 155.57 644.53 155.21 675.21 L 154.20 675.34 C 153.41 675.14 151.84 674.75 151.06 674.55 C 150.50 669.39 150.81 664.20 150.78 659.02 C 150.81 635.02 150.71 611.02 150.79 587.03 C 151.38 581.87 145.06 580.90 141.60 578.99 C 141.78 578.27 142.14 576.84 142.32 576.13 C 145.49 578.09 148.49 580.61 152.20 581.48 C 155.83 581.69 159.38 580.56 163.02 580.64 C 185.36 580.62 207.70 580.73 230.05 580.61 C 231.78 580.38 234.05 580.86 235.21 579.20 C 236.33 575.70 232.99 571.68 235.37 568.50 Z" />
<path fill="#c5d2de" opacity="1.00" d=" M 315.77 787.48 C 320.46 788.76 324.75 791.31 327.31 795.56 C 327.83 794.61 328.36 793.68 328.90 792.77 C 329.60 798.48 329.29 804.25 329.35 810.00 C 329.24 820.65 329.53 831.31 329.21 841.96 C 328.48 842.62 327.75 843.29 327.03 843.97 C 326.27 843.98 324.73 844.00 323.96 844.01 C 324.12 831.33 323.97 818.65 323.94 805.97 C 323.97 802.41 324.40 798.79 323.55 795.31 C 321.93 792.46 318.53 791.46 315.91 789.82 C 315.87 789.23 315.81 788.07 315.77 787.48 Z" />
</g>
<g id="#6c7781ff">
<path fill="#6c7781" opacity="1.00" d=" M 623.32 575.31 C 625.01 573.76 626.41 571.47 628.92 571.28 C 628.89 571.81 628.83 572.87 628.80 573.40 C 624.78 581.78 621.37 590.46 616.63 598.49 L 616.02 599.17 C 616.65 593.58 615.95 587.95 616.52 582.37 C 618.27 579.58 621.11 577.72 623.32 575.31 Z" />
</g>
<g id="#98a7b5ff">
<path fill="#98a7b5" opacity="1.00" d=" M 244.36 579.00 C 244.17 577.04 245.67 575.67 246.71 574.23 C 255.72 582.98 264.57 591.90 273.41 600.82 C 272.14 603.02 270.86 605.22 269.55 607.40 L 268.99 606.80 C 262.00 599.87 255.07 592.87 248.05 585.99 C 246.19 584.07 243.84 581.96 244.36 579.00 Z" />
</g>
<g id="#b6c6d5ff">
<path fill="#b6c6d5" opacity="1.00" d=" M 141.60 578.99 C 145.06 580.90 151.38 581.87 150.79 587.03 C 150.71 611.02 150.81 635.02 150.78 659.02 C 150.81 664.20 150.50 669.39 151.06 674.55 C 151.84 674.75 153.41 675.14 154.20 675.34 C 152.70 675.60 151.20 675.91 149.70 676.18 C 147.03 676.30 144.35 676.07 141.68 675.88 C 141.56 643.58 141.73 611.28 141.60 578.99 Z" />
<path fill="#b6c6d5" opacity="1.00" d=" M 315.91 789.82 C 318.53 791.46 321.93 792.46 323.55 795.31 C 324.40 798.79 323.97 802.41 323.94 805.97 C 323.97 818.65 324.12 831.33 323.96 844.01 C 321.25 844.00 318.54 844.00 315.84 843.99 C 315.83 825.93 315.70 807.87 315.91 789.82 Z" />
</g>
<g id="#dce4ebff">
<path fill="#dce4eb" opacity="1.00" d=" M 525.86 588.89 C 528.86 585.89 531.65 582.39 535.79 580.91 C 535.73 581.32 535.60 582.15 535.54 582.56 C 535.88 582.66 536.58 582.86 536.92 582.96 C 533.88 586.58 530.42 589.82 527.10 593.18 C 512.30 607.96 497.53 622.78 482.74 637.58 C 478.97 636.30 475.33 634.68 471.60 633.29 C 470.97 635.93 470.95 638.64 470.94 641.35 C 470.89 643.22 470.75 645.09 470.61 646.98 C 469.54 640.40 469.95 633.63 470.90 627.07 C 472.84 624.64 475.27 622.67 477.61 620.64 C 479.97 623.78 480.50 628.18 483.95 630.45 C 485.30 629.29 486.67 628.14 487.95 626.88 C 500.49 614.12 513.24 601.57 525.86 588.89 Z" />
</g>
<g id="#b12d3bff">
<path fill="#b12d3b" opacity="1.00" d=" M 937.39 585.55 C 940.98 583.45 944.65 586.36 947.36 588.60 C 953.14 594.15 958.58 600.06 964.42 605.55 C 967.70 608.31 970.98 611.55 975.40 612.28 L 975.69 612.51 L 976.47 613.10 C 974.37 613.01 972.29 612.96 970.22 613.02 C 963.61 607.54 957.52 601.25 949.86 597.21 C 947.85 595.98 945.48 596.39 943.30 596.72 L 943.15 596.74 C 941.12 593.06 939.01 589.43 937.39 585.55 Z" />
</g>
<g id="#9b2834ff">
<path fill="#9b2834" opacity="1.00" d=" M 943.30 596.72 C 945.48 596.39 947.85 595.98 949.86 597.21 C 957.52 601.25 963.61 607.54 970.22 613.02 C 968.09 613.17 965.99 613.45 963.87 613.61 C 961.35 613.72 958.81 613.90 956.40 614.66 L 956.26 614.69 C 951.66 608.91 946.88 603.21 943.30 596.72 Z" />
</g>
<g id="#3b495eff">
<path fill="#3b495e" opacity="1.00" d=" M 616.02 599.17 L 616.63 598.49 C 616.33 628.99 616.62 659.51 616.49 690.01 C 616.73 692.40 614.28 694.00 612.10 693.71 C 589.40 693.81 566.70 693.70 544.00 693.75 C 540.05 693.68 536.01 693.88 532.17 692.78 C 529.09 691.95 527.06 689.31 524.87 687.20 C 520.61 682.64 515.69 678.69 511.95 673.66 C 512.73 673.69 514.29 673.74 515.07 673.77 C 520.73 678.78 525.74 684.48 531.25 689.65 C 534.33 692.69 539.02 692.39 543.02 692.49 C 566.38 692.33 589.76 692.72 613.10 692.31 C 613.45 691.96 614.16 691.25 614.51 690.90 C 614.65 661.13 614.29 631.36 614.69 601.60 C 615.12 600.78 615.57 599.97 616.02 599.17 Z" />
</g>
<g id="#566b81ff">
<path fill="#566b81" opacity="1.00" d=" M 273.41 600.82 C 278.96 606.26 284.45 611.76 289.92 617.28 C 288.12 622.49 287.72 628.03 286.16 633.30 C 285.41 629.63 286.21 625.37 283.64 622.30 C 279.51 616.83 273.95 612.65 269.55 607.40 C 270.86 605.22 272.14 603.02 273.41 600.82 Z" />
</g>
<g id="#405065ff">
<path fill="#405065" opacity="1.00" d=" M 286.16 633.30 C 287.72 628.03 288.12 622.49 289.92 617.28 C 292.22 619.68 294.69 621.92 297.01 624.32 C 294.36 625.78 291.36 627.05 289.68 629.71 C 287.20 633.65 287.34 638.72 284.53 642.50 C 282.19 645.47 279.28 647.92 276.65 650.62 C 263.63 663.64 250.60 676.65 237.60 689.69 C 234.92 692.62 230.92 693.77 227.04 693.60 C 204.70 693.65 182.36 693.63 160.02 693.60 C 153.05 693.69 146.73 697.54 141.67 702.07 C 141.68 699.99 141.69 697.92 141.69 695.86 C 147.84 694.69 153.83 692.70 160.01 691.72 C 183.01 691.59 206.01 691.81 229.01 691.62 C 232.15 691.88 234.37 689.34 236.44 687.38 C 251.46 672.41 266.39 657.36 281.42 642.41 C 284.01 640.00 285.49 636.73 286.16 633.30 Z" />
</g>
<g id="#fec6ccff">
<path fill="#fec6cc" opacity="1.00" d=" M 808.52 636.06 C 817.51 633.37 826.99 634.02 836.26 634.04 C 839.92 640.22 846.92 642.88 852.00 647.62 C 842.63 648.71 833.16 647.85 823.75 647.79 C 826.86 647.22 829.98 646.60 833.04 645.74 C 825.15 641.90 815.54 641.76 808.52 636.06 Z" />
</g>
<g id="#feaab3ff">
<path fill="#feaab3" opacity="1.00" d=" M 836.26 634.04 C 840.76 634.03 845.26 634.40 849.71 635.09 L 849.86 635.37 C 852.55 642.88 860.74 645.72 865.06 651.93 C 859.27 652.22 853.68 650.57 848.00 649.80 C 840.06 648.61 831.99 648.92 823.99 649.02 C 822.14 648.95 820.40 649.58 818.77 650.37 C 806.71 652.31 794.88 656.07 784.30 662.23 C 783.00 663.08 781.52 663.52 779.99 663.65 C 780.70 662.40 781.43 661.17 782.18 659.96 C 784.79 659.14 787.18 657.77 789.68 656.67 C 800.42 651.79 812.02 648.97 823.75 647.79 C 833.16 647.85 842.63 648.71 852.00 647.62 C 846.92 642.88 839.92 640.22 836.26 634.04 Z" />
</g>
<g id="#ffdee2ff">
<path fill="#ffdee2" opacity="1.00" d=" M 739.27 677.08 C 756.51 655.94 781.32 641.11 808.03 635.70 L 808.52 636.06 C 815.54 641.76 825.15 641.90 833.04 645.74 C 829.98 646.60 826.86 647.22 823.75 647.79 C 812.02 648.97 800.42 651.79 789.68 656.67 C 787.18 657.77 784.79 659.14 782.18 659.96 L 780.78 660.10 C 786.20 656.29 792.43 653.87 798.62 651.63 C 804.02 649.59 810.08 649.38 815.05 646.24 C 809.28 644.20 803.05 644.83 797.06 644.97 C 785.65 645.96 773.30 648.42 765.22 657.25 C 758.05 665.52 750.90 674.23 746.99 684.58 C 748.49 684.20 750.00 683.82 751.52 683.45 C 748.38 687.65 744.92 691.61 742.00 695.97 C 740.70 697.95 739.00 699.61 737.13 701.04 C 737.15 694.43 739.95 688.29 740.63 681.78 C 740.92 680.19 740.04 678.78 739.42 677.41 L 739.27 677.08 Z" />
</g>
<g id="#fe8c98ff">
<path fill="#fe8c98" opacity="1.00" d=" M 849.86 635.37 C 855.89 636.09 861.74 637.80 867.58 639.44 L 867.71 639.94 C 869.38 648.65 877.75 653.54 882.55 660.45 C 879.36 661.00 876.39 659.55 873.52 658.42 C 867.87 656.10 862.11 653.85 856.05 652.88 C 851.61 652.25 847.24 651.24 842.80 650.68 C 834.80 649.98 826.77 650.67 818.77 650.37 C 820.40 649.58 822.14 648.95 823.99 649.02 C 831.99 648.92 840.06 648.61 848.00 649.80 C 853.68 650.57 859.27 652.22 865.06 651.93 C 860.74 645.72 852.55 642.88 849.86 635.37 Z" />
</g>
<g id="#fd6172ff">
<path fill="#fd6172" opacity="1.00" d=" M 867.71 639.94 C 874.11 641.66 880.20 644.44 886.03 647.57 C 884.86 654.24 889.90 659.53 893.61 664.42 C 897.49 669.73 902.55 674.56 904.29 681.09 C 904.25 681.58 904.17 682.54 904.13 683.03 C 889.52 670.52 873.11 659.40 854.27 654.55 C 854.85 653.98 855.45 653.43 856.05 652.88 C 862.11 653.85 867.87 656.10 873.52 658.42 C 876.39 659.55 879.36 661.00 882.55 660.45 C 877.75 653.54 869.38 648.65 867.71 639.94 Z" />
</g>
<g id="#8997a3ff">
<path fill="#8997a3" opacity="1.00" d=" M 470.94 641.35 C 477.05 641.85 484.72 640.60 489.15 645.82 C 496.58 653.40 504.20 660.81 511.62 668.41 C 513.22 670.25 515.26 671.62 517.57 672.43 L 518.36 672.78 C 516.01 672.95 513.65 673.16 511.31 673.40 C 509.73 672.49 508.28 671.37 507.00 670.08 C 500.38 663.32 493.67 656.65 487.00 649.95 C 483.64 646.16 477.05 646.46 473.39 649.67 C 472.46 648.77 471.53 647.87 470.61 646.98 C 470.75 645.09 470.89 643.22 470.94 641.35 Z" />
</g>
<g id="#fff2f4ff">
<path fill="#fff2f4" opacity="1.00" d=" M 765.22 657.25 C 773.30 648.42 785.65 645.96 797.06 644.97 C 803.05 644.83 809.28 644.20 815.05 646.24 C 810.08 649.38 804.02 649.59 798.62 651.63 C 792.43 653.87 786.20 656.29 780.78 660.10 C 769.83 666.19 759.84 674.08 751.52 683.45 C 750.00 683.82 748.49 684.20 746.99 684.58 C 750.90 674.23 758.05 665.52 765.22 657.25 Z" />
</g>
<g id="#f13e51ff">
<path fill="#f13e51" opacity="1.00" d=" M 886.03 647.57 C 894.53 652.19 902.48 657.81 909.66 664.31 L 909.59 664.44 C 907.39 667.45 908.29 671.12 908.23 674.56 C 907.44 674.75 905.85 675.12 905.06 675.30 C 904.75 677.22 904.46 679.15 904.29 681.09 C 902.55 674.56 897.49 669.73 893.61 664.42 C 889.90 659.53 884.86 654.24 886.03 647.57 Z" />
</g>
<g id="#fec0c7ff">
<path fill="#fec0c7" opacity="1.00" d=" M 751.52 683.45 C 759.84 674.08 769.83 666.19 780.78 660.10 L 782.18 659.96 C 781.43 661.17 780.70 662.40 779.99 663.65 C 773.68 666.11 768.19 670.44 763.08 674.83 C 757.48 678.18 753.48 683.48 749.37 688.44 C 744.00 694.92 739.77 702.24 735.85 709.67 C 733.83 713.48 732.99 717.94 730.06 721.23 C 728.24 714.01 731.25 705.01 725.36 699.22 C 729.01 691.35 733.90 684.07 739.42 677.41 C 740.04 678.78 740.92 680.19 740.63 681.78 C 739.95 688.29 737.15 694.43 737.13 701.04 C 739.00 699.61 740.70 697.95 742.00 695.97 C 744.92 691.61 748.38 687.65 751.52 683.45 Z" />
</g>
<g id="#fe8894ff">
<path fill="#fe8894" opacity="1.00" d=" M 763.08 674.83 C 768.19 670.44 773.68 666.11 779.99 663.65 C 779.59 665.26 778.31 666.31 776.97 667.16 C 757.88 679.73 742.86 698.48 735.13 720.02 C 731.52 727.39 730.28 735.63 729.08 743.67 C 728.44 745.12 727.75 746.55 727.06 747.99 C 724.51 740.37 723.10 731.26 716.09 726.28 C 717.03 721.59 718.44 717.01 719.93 712.47 C 726.39 717.68 724.58 726.80 727.90 733.59 C 730.95 729.39 731.56 724.12 733.35 719.37 C 738.58 705.48 746.46 692.56 756.75 681.84 C 759.02 679.65 761.21 677.37 763.08 674.83 Z" />
</g>
<g id="#d53748ff">
<path fill="#d53748" opacity="1.00" d=" M 908.23 674.56 C 908.29 671.12 907.39 667.45 909.59 664.44 C 914.21 668.49 918.42 673.04 922.18 677.90 C 917.63 676.68 913.08 675.23 908.33 675.26 L 908.23 674.56 Z" />
</g>
<g id="#677c95ff">
<path fill="#677c95" opacity="1.00" d=" M 511.31 673.40 C 513.65 673.16 516.01 672.95 518.36 672.78 C 522.63 675.33 525.58 679.48 529.20 682.81 C 532.91 686.28 536.20 691.62 542.00 691.15 C 566.16 691.11 590.35 691.54 614.51 690.90 C 614.16 691.25 613.45 691.96 613.10 692.31 C 589.76 692.72 566.38 692.33 543.02 692.49 C 539.02 692.39 534.33 692.69 531.25 689.65 C 525.74 684.48 520.73 678.78 515.07 673.77 C 514.29 673.74 512.73 673.69 511.95 673.66 L 511.31 673.40 Z" />
</g>
<g id="#a1b3c8ff">
<path fill="#a1b3c8" opacity="1.00" d=" M 154.20 675.34 L 155.21 675.21 L 155.76 675.14 C 155.27 679.76 155.66 684.41 155.41 689.04 C 155.79 692.58 149.40 692.44 149.56 689.07 C 149.21 684.78 149.48 680.47 149.70 676.18 C 151.20 675.91 152.70 675.60 154.20 675.34 Z" />
<path fill="#a1b3c8" opacity="1.00" d=" M 315.84 843.99 C 318.54 844.00 321.25 844.00 323.96 844.01 C 324.73 844.00 326.27 843.98 327.03 843.97 C 327.53 843.94 328.52 843.87 329.02 843.84 C 329.26 850.88 329.68 857.97 328.87 864.99 C 327.31 865.19 325.75 865.11 324.22 864.83 C 323.21 858.33 324.01 851.75 323.71 845.22 C 321.08 845.05 318.45 844.96 315.83 844.94 L 315.84 843.99 Z" />
</g>
<g id="#fea3acff">
<path fill="#fea3ac" opacity="1.00" d=" M 749.37 688.44 C 753.48 683.48 757.48 678.18 763.08 674.83 C 761.21 677.37 759.02 679.65 756.75 681.84 C 746.46 692.56 738.58 705.48 733.35 719.37 C 731.56 724.12 730.95 729.39 727.90 733.59 C 724.58 726.80 726.39 717.68 719.93 712.47 C 721.30 707.89 723.41 703.57 725.36 699.22 C 731.25 705.01 728.24 714.01 730.06 721.23 C 732.99 717.94 733.83 713.48 735.85 709.67 C 739.77 702.24 744.00 694.92 749.37 688.44 Z" />
</g>
<g id="#b41117ff">
<path fill="#b41117" opacity="1.00" d=" M 908.33 675.26 C 913.08 675.23 917.63 676.68 922.18 677.90 C 922.42 678.22 922.92 678.86 923.16 679.18 C 921.66 679.47 919.44 679.22 919.19 681.26 C 918.28 685.63 920.62 689.91 921.73 694.08 C 925.67 704.27 927.85 715.01 931.10 725.41 C 932.89 734.51 932.81 743.81 932.65 753.04 C 932.58 765.09 929.09 776.78 924.91 787.97 C 914.86 811.83 895.34 831.34 871.95 842.25 C 869.57 843.45 867.10 844.75 864.34 844.46 C 867.76 841.12 872.51 839.90 876.57 837.56 C 899.51 825.15 917.75 804.03 926.15 779.28 C 928.53 771.74 930.72 763.97 930.66 756.00 C 931.00 751.32 931.60 746.64 930.82 741.98 C 930.65 728.28 926.69 714.92 921.59 702.30 C 917.99 692.89 912.52 684.37 908.33 675.26 Z" />
</g>
<g id="#941014ff">
<path fill="#941014" opacity="1.00" d=" M 919.19 681.26 C 919.44 679.22 921.66 679.47 923.16 679.18 C 925.03 681.42 926.65 683.84 928.36 686.20 L 927.94 686.68 C 925.80 688.48 924.76 691.17 925.21 693.95 C 926.16 704.61 930.93 714.64 931.10 725.41 C 927.85 715.01 925.67 704.27 921.73 694.08 C 920.62 689.91 918.28 685.63 919.19 681.26 Z" />
</g>
<g id="#790e13ff">
<path fill="#790e13" opacity="1.00" d=" M 925.21 693.95 C 924.76 691.17 925.80 688.48 927.94 686.68 L 928.43 686.33 C 930.39 689.56 932.31 692.82 934.19 696.10 L 934.04 696.29 C 928.74 701.04 930.81 708.66 931.46 714.80 C 935.57 739.75 936.55 766.79 925.36 790.13 C 925.25 789.59 925.02 788.51 924.91 787.97 C 929.09 776.78 932.58 765.09 932.65 753.04 C 932.81 743.81 932.89 734.51 931.10 725.41 C 930.93 714.64 926.16 704.61 925.21 693.95 Z" />
</g>
<g id="#dae2eaff">
<path fill="#dae2ea" opacity="1.00" d=" M 381.28 723.54 C 385.73 723.09 390.20 722.48 394.69 722.76 C 392.85 727.06 394.52 732.06 392.20 736.15 C 388.08 736.95 383.19 736.64 380.22 740.15 C 366.52 753.80 352.89 767.52 339.18 781.16 C 335.57 784.85 331.43 788.17 328.90 792.77 C 328.36 793.68 327.83 794.61 327.31 795.56 C 324.75 791.31 320.46 788.76 315.77 787.48 C 315.83 785.71 315.33 783.79 316.15 782.15 C 317.79 780.13 319.93 778.60 321.88 776.90 C 324.35 779.56 325.91 782.88 328.03 785.81 C 329.38 784.94 330.77 784.10 331.93 782.97 C 346.35 768.36 360.97 753.94 375.43 739.36 C 378.37 736.19 382.93 735.67 386.32 733.16 C 385.01 729.76 383.17 726.62 381.28 723.54 Z" />
</g>
<g id="#fe7180ff">
<path fill="#fe7180" opacity="1.00" d=" M 716.09 726.28 C 723.10 731.26 724.51 740.37 727.06 747.99 C 727.75 746.55 728.44 745.12 729.08 743.67 C 729.10 748.83 730.13 754.49 727.40 759.18 C 723.19 750.71 724.14 738.67 714.84 733.49 C 715.19 731.07 715.62 728.66 716.09 726.28 Z" />
</g>
<g id="#9aaab8ff">
<path fill="#9aaab8" opacity="1.00" d=" M 400.24 739.73 C 396.48 736.52 399.19 731.19 399.87 727.19 C 414.28 741.16 428.31 755.52 442.57 769.64 C 440.95 772.17 439.48 774.80 438.13 777.49 L 437.61 776.93 C 425.13 764.56 412.77 752.06 400.24 739.73 Z" />
</g>
<g id="#586d85ff">
<path fill="#586d85" opacity="1.00" d=" M 438.13 777.49 C 439.48 774.80 440.95 772.17 442.57 769.64 C 444.14 771.19 445.70 772.75 447.24 774.34 C 443.48 779.02 443.73 785.19 441.64 790.55 C 441.88 785.91 441.76 780.90 438.13 777.49 Z" />
</g>
<g id="#425269ff">
<path fill="#425269" opacity="1.00" d=" M 447.24 774.34 C 448.51 775.59 449.77 776.85 451.01 778.15 C 449.06 780.10 446.86 781.86 445.30 784.16 C 443.49 787.82 443.44 792.04 443.39 796.05 C 443.39 818.72 443.40 841.40 443.39 864.08 C 443.72 866.92 440.25 867.80 438.03 867.59 C 401.79 867.45 365.53 867.85 329.30 867.38 C 330.61 866.22 332.12 865.23 333.96 865.58 C 358.31 865.66 382.65 865.59 407.00 865.61 C 418.48 865.42 429.99 866.02 441.44 865.29 C 441.60 840.38 441.21 815.45 441.64 790.55 C 443.73 785.19 443.48 779.02 447.24 774.34 Z" />
</g>
<g id="#b22e3cff">
<path fill="#b22e3c" opacity="1.00" d=" M 724.41 798.61 C 725.09 798.33 726.45 797.77 727.14 797.49 C 729.30 798.28 731.48 799.17 733.27 800.69 C 741.53 807.87 748.25 816.74 757.12 823.24 C 755.49 822.90 753.60 823.02 752.36 821.74 C 746.75 816.88 741.27 811.30 734.09 808.87 C 732.73 808.16 731.47 809.18 730.28 809.70 L 730.15 809.77 C 728.14 806.09 726.03 802.47 724.41 798.61 Z" />
</g>
<g id="#9d2835ff">
<path fill="#9d2835" opacity="1.00" d=" M 730.28 809.70 C 731.47 809.18 732.73 808.16 734.09 808.87 C 741.27 811.30 746.75 816.88 752.36 821.74 C 753.60 823.02 755.49 822.90 757.12 823.24 C 757.75 823.34 759.02 823.52 759.65 823.62 L 760.27 824.56 C 753.66 824.04 747.04 823.66 740.42 824.16 C 736.71 819.58 733.19 814.83 730.28 809.70 Z" />
</g>
<g id="#879eb7ff">
<path fill="#879eb7" opacity="1.00" d=" M 329.02 843.84 C 329.91 843.66 330.81 843.48 331.71 843.30 C 330.20 850.40 331.66 857.68 330.61 864.84 C 351.06 865.08 371.51 864.87 391.96 864.94 C 408.45 865.14 424.97 864.55 441.44 865.29 C 429.99 866.02 418.48 865.42 407.00 865.61 C 382.65 865.59 358.31 865.66 333.96 865.58 C 332.12 865.23 330.61 866.22 329.30 867.38 C 328.73 867.40 328.17 867.43 327.61 867.46 C 323.63 867.25 319.80 868.51 315.86 868.67 C 315.75 860.76 315.83 852.85 315.83 844.94 C 318.45 844.96 321.08 845.05 323.71 845.22 C 324.01 851.75 323.21 858.33 324.22 864.83 C 325.75 865.11 327.31 865.19 328.87 864.99 C 329.68 857.97 329.26 850.88 329.02 843.84 Z" />
</g>
</svg>
