<?xml version="1.0" encoding="UTF-8" ?>
<!DOCTYPE svg PUBLIC "-//W3C//DTD SVG 1.1//EN" "http://www.w3.org/Graphics/SVG/1.1/DTD/svg11.dtd">
<svg width="1276pt" height="1276pt" viewBox="0 0 1276 1276" version="1.1" xmlns="http://www.w3.org/2000/svg">
<g id="#eec21aff">
<path fill="#eec21a" opacity="1.00" d=" M 364.15 284.09 C 417.96 284.06 471.77 284.03 525.58 284.11 C 525.52 290.14 525.54 296.18 525.55 302.22 C 537.47 302.24 549.39 302.22 561.31 302.22 C 561.29 310.28 561.32 318.33 561.29 326.39 C 573.11 326.39 584.94 326.37 596.76 326.40 C 596.66 336.16 596.76 345.92 596.70 355.68 C 597.11 355.62 597.94 355.50 598.35 355.44 L 598.48 356.33 C 601.64 356.24 604.81 356.30 607.98 356.17 C 608.73 356.16 610.22 356.14 610.97 356.13 C 612.81 356.24 614.65 356.29 616.51 356.34 L 616.51 355.59 C 618.22 355.36 619.73 355.74 621.04 356.73 L 621.84 355.80 C 622.38 355.89 623.48 356.08 624.03 356.17 C 626.88 356.29 629.74 356.28 632.61 356.23 C 632.62 368.30 632.57 380.36 632.64 392.43 C 644.56 392.42 656.49 392.35 668.42 392.46 C 668.42 406.37 668.37 420.27 668.45 434.18 C 680.29 434.19 692.14 434.14 703.98 434.20 C 703.90 620.10 703.91 806.00 703.98 991.90 C 644.27 991.92 584.56 992.02 524.85 991.85 C 524.89 982.23 524.84 972.62 524.88 963.00 C 524.85 956.33 524.86 949.67 524.87 943.00 C 524.87 939.99 524.88 936.99 524.86 934.00 C 524.89 931.66 524.88 929.33 524.86 927.00 C 524.88 917.00 524.84 907.01 524.88 897.01 C 524.87 893.67 524.86 890.33 524.87 886.99 C 524.88 885.31 524.87 883.65 524.86 882.00 C 524.88 879.33 524.89 876.66 524.86 874.00 C 524.88 856.00 524.84 838.00 524.88 820.00 C 524.85 814.99 524.86 809.99 524.88 805.00 C 524.85 781.00 524.86 757.00 524.88 733.00 C 524.86 720.00 524.85 707.00 524.88 694.00 C 524.84 686.33 524.87 678.66 524.86 670.99 C 524.88 668.66 524.88 666.33 524.86 664.00 C 524.88 652.00 524.84 640.00 524.88 628.00 C 524.85 620.66 524.85 613.33 524.88 606.00 C 524.84 596.00 524.87 586.01 524.87 576.02 C 525.14 562.69 524.68 549.34 524.88 536.00 C 524.85 526.22 524.85 516.44 524.88 506.66 C 513.04 506.63 501.20 506.68 489.36 506.63 C 489.45 498.60 489.35 490.57 489.42 482.54 C 459.74 482.41 430.06 482.51 400.38 482.49 C 400.45 490.54 400.37 498.59 400.43 506.64 C 388.48 506.69 376.53 506.61 364.59 506.68 C 364.61 522.62 364.62 538.56 364.58 554.50 C 352.78 554.47 340.99 554.55 329.20 554.46 C 329.08 557.63 329.16 560.80 329.11 563.99 C 329.15 567.32 329.13 570.67 329.12 574.01 C 329.15 592.34 329.13 610.67 329.13 629.00 C 329.11 630.66 329.11 632.32 329.13 634.00 C 329.12 643.66 329.15 653.33 329.12 663.00 C 329.25 682.53 328.94 702.07 329.25 721.59 C 341.02 721.39 352.80 721.55 364.58 721.50 C 364.62 737.44 364.60 753.38 364.59 769.31 C 376.53 769.39 388.48 769.31 400.43 769.36 C 400.37 777.41 400.45 785.46 400.38 793.51 C 430.20 793.54 460.02 793.49 489.85 793.53 C 489.78 859.66 489.78 925.78 489.85 991.91 C 447.95 991.95 406.05 991.95 364.15 991.91 C 364.22 985.86 364.19 979.82 364.19 973.79 C 352.26 973.73 340.34 973.83 328.41 973.73 C 328.51 965.70 328.42 957.67 328.47 949.64 C 316.54 949.57 304.60 949.64 292.67 949.61 C 292.75 939.54 292.64 929.48 292.73 919.42 C 280.91 919.38 269.08 919.43 257.25 919.40 C 257.19 914.17 257.49 908.93 257.15 903.72 L 256.06 903.00 L 257.14 902.28 C 257.53 897.67 257.10 893.03 257.34 888.41 L 255.68 888.00 L 257.40 887.58 C 257.41 886.81 257.42 885.25 257.43 884.47 L 256.39 884.56 L 256.61 883.54 C 244.88 883.67 233.14 883.52 221.41 883.62 C 221.36 869.69 221.43 855.75 221.37 841.82 C 209.43 841.77 197.48 841.94 185.54 841.73 C 185.66 825.93 185.54 810.12 185.60 794.32 C 173.80 794.33 162.01 794.25 150.21 794.37 C 149.88 737.93 150.16 681.48 150.07 625.04 C 150.19 577.22 149.83 529.40 150.25 481.59 C 162.03 481.80 173.81 481.64 185.60 481.68 C 185.55 465.87 185.65 450.07 185.54 434.27 C 197.48 434.06 209.43 434.23 221.37 434.18 C 221.43 420.24 221.36 406.31 221.41 392.38 C 233.15 392.48 244.89 392.33 256.64 392.46 L 256.36 391.44 L 257.34 391.53 C 257.29 379.60 257.14 367.66 257.42 355.73 C 258.44 355.72 260.48 355.68 261.50 355.66 L 261.50 356.32 C 264.75 356.17 268.02 356.43 271.27 356.15 L 271.99 355.01 L 272.73 356.13 C 279.33 356.48 285.95 356.11 292.55 356.30 C 292.86 346.34 292.64 336.36 292.67 326.39 C 304.60 326.36 316.54 326.42 328.47 326.36 C 328.42 318.33 328.51 310.30 328.41 302.27 C 340.34 302.17 352.26 302.26 364.19 302.21 C 364.19 296.17 364.22 290.13 364.15 284.09 Z" />
</g>
<g id="#ffffffff">
<path fill="#ffffff" opacity="1.00" d=" M 982.55 284.16 C 1030.35 283.96 1078.17 284.09 1125.98 284.10 C 1125.90 350.22 1125.91 416.35 1125.98 482.47 C 1090.22 482.58 1054.46 482.34 1018.70 482.59 C 1018.78 490.60 1018.66 498.62 1018.77 506.64 C 1006.95 506.67 995.13 506.67 983.31 506.63 C 983.33 522.59 983.32 538.55 983.31 554.51 C 971.39 554.50 959.48 554.47 947.56 554.52 C 947.55 610.17 947.55 665.83 947.56 721.48 C 959.48 721.52 971.39 721.50 983.31 721.49 C 983.32 737.44 983.32 753.40 983.31 769.35 C 994.97 769.33 1006.62 769.37 1018.28 769.33 C 1018.72 769.82 1019.60 770.80 1020.04 771.29 L 1018.67 771.33 C 1018.78 778.69 1018.72 786.06 1018.71 793.42 C 1054.44 793.59 1090.17 793.53 1125.90 793.45 C 1126.01 859.60 1125.85 925.75 1125.98 991.90 C 1078.17 991.91 1030.35 992.04 982.55 991.84 C 982.62 985.81 982.59 979.78 982.58 973.76 C 970.67 973.74 958.76 973.88 946.86 973.69 C 947.12 965.67 946.62 957.62 947.23 949.65 C 935.27 949.56 923.32 949.66 911.37 949.59 C 911.47 939.55 911.34 929.51 911.44 919.47 C 899.49 919.33 887.55 919.45 875.60 919.41 C 875.59 907.45 875.69 895.50 875.55 883.55 C 863.77 883.66 851.99 883.52 840.21 883.63 L 840.61 882.51 L 839.66 882.62 C 839.76 875.89 839.76 869.15 839.67 862.42 L 841.36 862.00 L 839.71 861.61 C 839.66 860.28 839.55 857.64 839.49 856.32 L 840.23 858.78 L 840.31 855.31 L 839.50 855.69 C 840.07 852.54 839.55 849.29 839.65 846.12 L 840.29 846.88 L 840.28 844.14 L 839.61 844.80 C 839.64 844.06 839.71 842.56 839.74 841.81 C 827.67 841.79 815.60 841.93 803.54 841.74 C 803.65 825.93 803.55 810.13 803.60 794.33 C 791.81 794.35 780.02 794.22 768.24 794.39 C 767.84 763.28 768.18 732.14 768.07 701.02 C 768.07 645.99 768.07 590.96 768.07 535.93 C 768.18 517.83 767.84 499.71 768.24 481.61 C 780.02 481.77 791.81 481.66 803.60 481.67 C 803.55 465.87 803.65 450.07 803.54 434.26 C 814.37 434.05 825.20 434.23 836.03 434.17 C 837.70 434.25 839.32 433.76 840.91 433.25 C 839.00 432.12 839.92 429.73 839.71 427.98 C 839.85 417.91 839.51 407.84 839.88 397.78 L 839.91 396.95 C 839.91 396.49 839.92 395.57 839.93 395.11 L 840.12 394.15 L 840.40 393.21 L 840.11 392.38 C 851.92 392.46 863.74 392.35 875.55 392.44 C 875.57 380.50 875.84 368.53 875.42 356.59 L 876.46 356.47 L 876.64 355.58 C 877.37 355.61 878.83 355.69 879.56 355.73 L 879.35 356.32 C 882.74 356.22 886.15 356.23 889.55 356.32 L 890.00 354.67 L 890.44 356.31 C 893.23 356.24 896.03 356.24 898.84 356.31 L 898.16 355.69 C 899.32 355.69 901.64 355.68 902.80 355.68 L 902.22 356.30 C 904.34 356.26 906.49 356.26 908.64 356.30 L 908.34 355.58 C 909.12 355.58 910.70 355.59 911.49 355.59 C 911.28 345.86 911.50 336.13 911.37 326.41 C 923.32 326.35 935.27 326.41 947.22 326.37 C 947.06 322.93 946.53 319.41 947.16 316.00 C 946.63 311.49 946.98 306.87 946.86 302.31 C 958.76 302.11 970.67 302.28 982.57 302.22 C 982.59 296.20 982.62 290.18 982.55 284.16 Z" />
</g>
</svg>
