<?xml version="1.0" encoding="UTF-8" ?>
<!DOCTYPE svg PUBLIC "-//W3C//DTD SVG 1.1//EN" "http://www.w3.org/Graphics/SVG/1.1/DTD/svg11.dtd">
<svg width="1276pt" height="1276pt" viewBox="0 0 1276 1276" version="1.1" xmlns="http://www.w3.org/2000/svg">
<g id="#ed1c24ff">
<path fill="#ed1c24" opacity="1.00" d=" M 750.08 148.59 C 760.72 147.15 771.41 143.96 782.21 145.86 C 786.74 146.55 790.52 150.42 790.60 155.11 C 787.00 158.37 782.29 159.91 778.01 162.04 C 743.95 167.48 709.18 169.01 675.64 177.47 C 674.81 180.48 673.97 184.11 676.53 186.57 C 681.06 190.65 687.52 189.34 693.07 189.62 C 695.54 192.11 698.73 189.79 701.47 189.13 C 700.98 192.00 700.59 195.23 698.30 197.32 C 693.52 202.28 685.44 202.62 681.44 208.48 C 679.41 211.24 680.09 214.81 680.67 217.92 C 667.51 229.58 647.36 225.25 634.06 236.56 C 634.99 237.40 635.94 238.25 636.89 239.10 C 613.93 248.19 591.10 259.09 566.28 261.81 C 567.01 264.88 566.66 268.15 564.72 270.71 C 561.25 275.70 556.03 279.02 551.86 283.35 C 537.81 282.47 525.34 289.94 513.30 296.08 C 510.87 307.21 509.29 318.62 506.86 329.80 C 490.19 411.04 462.19 489.28 438.30 568.53 C 420.38 602.89 407.32 639.59 388.60 673.55 C 377.79 693.23 364.80 711.80 349.16 727.96 C 327.23 756.40 303.91 784.28 275.28 806.26 C 258.12 819.45 238.94 830.47 217.95 836.21 C 198.21 841.78 177.03 842.11 157.10 837.28 C 148.31 835.43 140.30 831.22 131.92 828.14 C 99.72 815.37 66.28 802.45 40.68 778.27 C 29.96 767.87 21.07 755.45 15.42 741.58 C 14.26 738.63 12.24 735.26 14.13 732.16 C 16.26 728.74 20.63 728.08 24.17 726.90 C 24.92 728.18 25.55 729.54 26.06 730.95 C 30.22 733.76 35.23 735.56 38.37 739.66 C 40.11 741.59 40.67 744.18 41.21 746.65 C 59.99 757.69 76.58 772.28 96.23 781.88 C 109.99 788.83 125.65 792.66 141.08 790.79 C 162.47 788.67 182.99 780.60 200.91 768.87 C 227.38 751.56 248.56 727.50 267.21 702.24 C 279.90 684.94 291.42 666.83 302.71 648.61 C 309.43 638.45 313.95 627.07 319.15 616.11 C 355.98 534.94 379.29 448.49 399.43 361.90 C 403.29 345.50 406.82 329.01 410.71 312.61 C 409.54 311.72 408.77 309.97 407.19 309.88 C 343.02 315.71 279.68 329.73 215.12 331.42 C 212.37 327.01 210.78 322.05 208.64 317.36 C 208.00 316.29 207.58 314.56 206.01 314.62 C 201.19 313.92 196.59 316.80 191.74 316.14 C 190.17 315.52 189.27 313.97 188.14 312.81 C 188.64 312.36 189.65 311.46 190.15 311.01 C 189.12 310.21 188.10 309.43 187.09 308.63 C 194.73 308.71 201.27 303.43 204.60 296.86 C 205.01 295.03 205.16 292.84 203.78 291.36 C 200.97 288.07 196.61 286.69 193.59 283.61 C 189.31 282.57 184.06 281.31 182.43 276.61 C 181.66 271.05 182.20 263.65 188.18 261.14 C 194.78 258.78 201.98 261.73 208.71 260.14 C 211.98 259.18 211.88 255.43 211.23 252.75 C 206.21 252.53 200.38 254.18 196.02 250.94 C 192.29 247.72 193.92 242.24 194.60 238.07 C 195.22 234.06 198.80 230.55 203.01 230.85 C 229.72 233.33 256.63 231.76 283.20 228.38 C 321.17 223.44 358.83 215.77 397.13 213.58 C 490.99 200.66 582.16 173.14 676.06 160.46 C 700.71 156.36 725.41 152.56 750.08 148.59 Z" />
<path fill="#ed1c24" opacity="1.00" d=" M 761.11 234.93 C 767.26 232.07 774.33 230.08 781.08 231.92 C 783.92 232.90 787.34 234.61 787.78 237.95 C 789.29 246.30 786.50 254.70 787.37 263.07 C 787.61 265.94 789.06 268.80 791.59 270.29 C 793.93 271.78 796.83 271.56 799.49 271.67 C 805.27 281.83 805.06 294.01 803.67 305.25 C 802.44 315.47 800.29 325.65 800.49 335.99 C 788.95 457.95 786.37 580.51 787.76 702.94 C 787.92 707.00 786.63 710.95 786.73 715.01 C 786.65 717.89 786.52 721.33 783.96 723.19 C 780.79 723.80 777.33 722.16 775.68 719.42 C 771.93 713.80 770.85 706.15 764.63 702.46 C 755.01 717.16 760.31 735.77 755.22 751.82 C 745.63 748.76 744.02 737.62 743.32 729.01 C 744.92 725.67 746.50 721.92 745.37 718.16 C 742.91 708.75 733.62 702.19 733.36 692.03 C 732.88 689.41 734.41 687.08 734.40 684.55 C 728.74 690.35 732.68 699.00 730.92 706.04 C 730.54 708.84 728.39 712.73 725.00 711.31 C 719.64 709.29 718.84 702.66 715.56 698.58 C 716.27 689.17 708.76 681.44 709.49 672.10 C 709.58 667.99 714.18 666.09 714.53 662.09 C 717.13 651.71 710.44 642.45 707.58 632.94 C 705.81 627.81 706.34 622.27 708.16 617.25 C 706.94 581.68 705.76 546.10 704.39 510.53 C 703.64 509.73 702.90 508.95 702.17 508.17 C 670.99 520.95 639.12 532.01 606.85 541.70 C 601.36 543.31 597.37 547.71 592.33 550.19 C 589.58 551.83 586.36 552.20 583.25 552.56 C 550.12 614.31 525.04 679.90 495.13 743.19 C 493.64 745.95 494.56 749.26 493.39 752.14 C 490.05 762.10 478.69 766.88 476.21 777.26 C 475.01 780.27 477.08 783.59 475.38 786.44 C 471.76 794.05 469.58 802.69 463.43 808.80 C 459.95 801.82 465.05 794.78 466.77 788.08 C 468.39 783.68 467.01 778.55 463.18 775.78 C 467.23 765.08 471.68 753.62 469.59 742.00 C 453.98 764.36 445.04 790.32 433.64 814.88 C 428.32 815.88 426.93 808.86 429.14 805.28 C 432.37 798.55 438.18 791.01 434.66 783.27 C 433.58 783.53 431.96 783.04 431.40 784.30 C 424.48 794.95 421.77 807.85 414.12 818.09 C 410.97 822.08 407.11 825.56 402.52 827.81 C 404.62 822.18 404.79 815.97 403.36 810.16 C 401.33 801.25 400.17 791.21 404.87 782.91 C 408.77 775.65 416.07 769.49 415.51 760.53 C 419.14 757.89 417.03 753.10 418.68 749.56 C 419.48 747.93 421.51 747.80 423.06 747.38 C 424.55 741.43 431.02 739.16 433.73 733.95 C 432.93 732.42 431.93 731.03 430.66 729.87 C 437.13 710.63 448.67 693.72 457.27 675.45 C 458.48 672.46 461.25 670.49 462.51 667.53 C 464.98 662.39 465.50 656.06 470.03 652.12 C 473.11 649.96 473.66 646.06 475.12 642.86 C 481.85 626.78 489.89 611.07 500.89 597.44 C 500.33 595.71 499.22 593.82 500.10 592.00 C 501.60 587.95 506.39 586.20 507.56 581.98 C 508.15 579.96 505.72 578.04 506.77 576.09 C 509.28 570.85 513.36 566.50 515.43 561.03 C 510.07 558.60 503.84 560.93 498.55 558.32 C 495.37 556.25 496.14 552.03 496.95 548.93 C 494.70 547.61 492.22 546.79 489.75 546.03 C 497.56 537.99 508.94 534.53 519.89 533.90 C 522.44 528.12 529.77 530.12 534.21 527.42 C 538.24 518.78 545.14 511.91 549.30 503.35 C 551.68 498.57 552.22 492.89 550.41 487.83 C 557.13 483.10 563.75 477.13 566.20 469.01 C 566.93 464.69 566.71 460.20 568.16 456.00 C 573.64 438.80 589.84 427.18 593.84 409.33 C 602.63 402.42 606.07 391.44 610.71 381.73 C 612.31 379.09 613.29 375.42 616.61 374.50 C 620.58 373.32 619.85 368.60 620.71 365.44 C 621.26 362.98 624.23 362.92 626.21 362.34 C 635.49 345.68 639.09 326.42 649.15 310.13 C 652.99 303.58 658.17 297.93 663.92 293.02 C 672.37 281.60 676.95 267.89 680.41 254.27 C 683.80 251.98 688.19 252.76 692.02 253.17 C 693.37 252.94 694.72 252.71 696.09 252.48 C 698.82 256.41 698.09 261.47 700.04 265.68 C 701.36 268.33 704.55 268.20 707.07 268.17 C 709.72 261.24 708.99 253.32 712.81 246.80 C 715.24 242.60 720.49 241.25 725.04 241.49 C 733.98 241.36 743.17 245.26 751.92 242.00 C 755.83 240.80 757.40 236.43 761.11 234.93 M 699.73 358.65 C 697.37 361.99 695.27 365.97 691.18 367.44 C 688.98 366.41 687.63 364.40 686.60 362.29 C 660.79 404.00 638.47 447.72 616.62 491.60 C 614.94 494.65 615.11 498.30 616.38 501.47 C 619.31 501.81 622.76 502.38 625.12 500.14 C 628.73 496.87 628.81 491.55 631.43 487.63 C 638.95 483.15 647.89 479.21 656.72 482.26 C 667.45 466.52 686.94 461.97 703.22 454.34 C 701.77 443.96 703.23 433.44 703.02 423.01 C 703.90 399.25 705.48 375.48 704.54 351.69 C 701.73 353.01 701.32 356.32 699.73 358.65 Z" />
<path fill="#ed1c24" opacity="1.00" d=" M 959.57 270.41 C 986.48 254.90 1017.32 248.38 1047.69 243.54 C 1049.07 246.23 1050.81 248.87 1053.49 250.43 C 1059.31 254.31 1067.15 253.01 1072.80 257.16 C 1075.96 260.33 1074.35 265.21 1073.41 268.97 C 1082.13 271.29 1084.61 280.92 1090.40 286.67 C 1093.44 289.77 1098.09 289.77 1101.91 288.23 C 1106.22 286.34 1111.50 290.29 1110.87 294.94 C 1110.64 300.26 1104.29 301.02 1100.62 303.28 C 1102.57 307.08 1105.35 310.67 1105.71 315.08 C 1105.77 317.80 1104.57 320.92 1101.90 322.04 C 1088.21 328.87 1072.76 330.15 1058.04 333.46 C 1049.17 335.23 1041.03 339.32 1032.77 342.83 C 1008.40 353.88 985.23 367.66 964.26 384.30 C 943.46 400.76 924.87 420.20 910.56 442.59 C 904.24 452.85 898.28 463.47 894.45 474.93 C 886.81 501.82 883.61 530.20 887.02 558.03 C 889.38 575.81 894.65 593.42 904.18 608.73 C 907.14 613.93 912.00 617.59 916.01 621.92 C 933.16 638.49 952.05 654.58 975.17 661.90 C 986.80 665.16 999.04 667.53 1011.13 665.69 C 1028.70 663.50 1044.46 654.20 1057.77 642.94 C 1056.53 638.23 1051.71 635.97 1049.55 631.79 C 1050.25 630.38 1051.07 629.04 1052.04 627.81 C 1047.94 622.47 1045.68 615.81 1046.09 609.06 C 1046.52 596.27 1052.26 583.90 1049.82 570.98 C 1054.47 551.98 1057.39 532.39 1064.96 514.23 C 1052.71 513.83 1042.01 521.42 1029.85 521.79 C 1032.49 520.14 1032.82 515.57 1028.98 515.40 C 1021.41 519.84 1013.08 522.76 1004.98 526.08 C 988.75 532.62 972.15 538.76 957.44 548.41 C 954.41 551.21 949.99 548.07 948.44 545.10 C 949.00 544.07 949.57 543.06 950.17 542.05 C 957.29 540.10 962.76 534.46 965.92 527.96 C 969.66 520.65 971.94 512.06 978.59 506.70 C 982.01 503.85 986.47 502.87 990.79 502.40 C 992.37 496.28 996.76 491.22 1002.44 488.51 C 1010.10 484.72 1018.64 483.30 1026.93 481.52 C 1026.36 478.43 1026.10 474.35 1029.39 472.67 C 1034.78 471.22 1040.54 473.31 1045.88 471.72 C 1064.36 462.21 1085.71 456.89 1100.65 441.60 C 1104.71 436.25 1114.91 435.56 1118.08 442.20 C 1120.45 445.56 1118.84 449.97 1121.00 453.46 C 1128.60 453.03 1132.68 444.90 1140.05 443.56 C 1141.65 444.41 1145.01 444.39 1144.63 446.98 C 1144.32 490.33 1130.21 531.79 1120.45 573.60 C 1114.71 598.24 1110.29 623.48 1111.27 648.87 C 1111.55 660.32 1113.23 671.67 1115.54 682.88 C 1115.21 692.09 1117.07 701.14 1118.62 710.18 C 1116.71 712.27 1113.97 713.06 1111.39 713.94 C 1109.71 711.09 1111.18 707.54 1109.25 704.86 C 1106.22 706.52 1101.67 707.99 1098.99 705.01 C 1095.36 700.70 1095.75 694.29 1091.94 690.10 C 1090.14 688.28 1087.49 688.25 1085.12 688.39 C 1080.10 682.94 1076.74 675.43 1069.67 672.28 C 1067.47 671.10 1064.94 671.20 1062.53 671.23 C 1055.64 678.90 1049.92 687.51 1043.33 695.41 C 1037.41 702.21 1030.68 708.78 1022.03 711.87 C 990.13 721.99 954.35 718.72 924.68 703.32 C 916.75 698.69 907.91 695.84 900.19 690.83 C 868.62 671.54 845.85 640.43 830.92 607.07 C 827.76 596.20 825.98 584.99 824.12 573.84 C 818.70 536.84 818.82 498.81 826.69 462.16 C 831.71 439.28 839.80 416.95 851.83 396.81 C 853.91 393.16 856.74 389.89 857.94 385.79 C 866.20 363.81 887.10 350.15 897.42 329.39 C 898.33 326.72 901.14 325.81 903.20 324.24 C 921.47 310.56 929.83 286.80 950.12 275.45 C 953.93 275.70 959.02 275.13 959.57 270.41 Z" />
</g>
<g id="#ffffffff">
<path fill="#ffffff" opacity="1.00" d=" M 888.65 765.85 C 890.68 761.40 892.83 755.71 898.15 754.46 C 904.24 753.82 910.13 756.07 915.75 758.14 C 923.36 761.26 930.77 764.92 937.85 769.14 C 942.70 772.11 944.35 778.26 944.04 783.64 C 968.68 783.61 993.33 783.65 1017.97 783.62 C 1040.39 784.24 1063.13 790.24 1081.57 803.35 C 1098.03 814.96 1109.59 833.09 1113.50 852.83 C 1116.21 864.67 1115.95 876.97 1115.15 889.03 C 1112.74 910.87 1103.89 931.56 1092.00 949.88 C 1071.26 981.31 1042.60 1006.55 1012.37 1028.57 C 968.62 1059.93 920.66 1084.94 871.52 1106.70 C 869.01 1108.05 865.32 1107.78 863.95 1104.98 C 862.50 1101.64 861.61 1097.20 864.15 1094.15 C 865.82 1092.03 868.88 1092.26 870.89 1090.63 C 872.28 1089.09 871.49 1086.91 871.31 1085.12 C 869.05 1073.36 871.09 1060.32 878.80 1050.87 C 884.27 1043.68 892.46 1039.48 900.19 1035.19 C 932.42 1016.24 963.62 995.36 992.52 971.59 C 1007.74 958.77 1022.60 945.26 1034.64 929.32 C 1041.43 919.96 1047.75 909.64 1049.25 897.96 C 1049.62 890.28 1050.00 882.41 1047.89 874.93 C 1046.03 865.98 1041.02 857.62 1033.57 852.25 C 1025.36 846.30 1015.25 843.56 1005.27 842.64 C 990.83 840.79 976.22 841.76 961.83 843.48 C 951.94 845.30 941.39 847.70 933.95 854.96 C 929.12 859.31 926.76 865.73 925.82 872.02 C 924.16 894.24 918.71 915.98 912.20 937.23 C 906.42 955.76 899.66 974.01 891.52 991.64 C 881.26 1014.20 870.38 1036.54 862.17 1059.95 C 856.74 1075.75 852.00 1092.15 852.30 1109.00 C 852.07 1115.68 851.57 1123.54 846.04 1128.17 C 843.64 1128.14 840.94 1128.64 838.94 1126.99 C 835.84 1124.53 834.39 1120.59 833.48 1116.88 C 832.26 1116.70 830.62 1116.72 830.65 1118.37 C 829.02 1125.79 826.60 1133.53 821.06 1139.00 C 817.18 1142.57 811.11 1142.96 806.50 1140.67 C 800.66 1137.12 797.76 1130.45 796.01 1124.13 C 793.26 1116.36 794.05 1107.99 794.69 1099.95 C 797.71 1077.14 803.65 1054.84 809.91 1032.73 C 825.07 981.09 843.28 930.40 862.55 880.16 C 844.56 888.77 826.74 897.89 807.99 904.77 C 802.70 906.99 796.32 907.69 791.23 904.58 C 783.15 900.18 781.51 888.20 787.21 881.25 C 789.06 878.86 791.72 877.30 794.53 876.30 C 794.52 875.96 794.50 875.29 794.49 874.96 C 787.71 872.78 780.18 870.08 776.52 863.47 C 774.31 857.96 775.78 851.59 778.73 846.63 C 784.11 838.02 792.88 832.38 801.53 827.49 C 826.80 814.16 854.75 807.26 882.26 800.34 C 882.76 788.64 884.72 776.90 888.65 765.85 Z" />
<path fill="#ffffff" opacity="1.00" d=" M 703.35 796.47 C 711.48 795.53 719.95 793.22 728.00 795.93 C 729.71 796.31 731.10 797.39 732.42 798.51 C 733.01 800.79 734.60 803.12 737.10 803.53 C 744.18 804.60 752.15 802.11 758.50 806.40 C 763.87 810.77 763.60 818.71 762.48 824.92 C 760.02 829.91 755.44 834.11 755.33 840.06 C 755.53 847.85 749.34 853.98 742.97 857.53 C 734.86 862.42 725.15 862.19 716.10 863.81 C 692.42 868.42 669.35 877.48 649.78 891.74 C 629.15 906.56 612.99 928.75 609.03 954.21 C 606.74 968.01 607.17 982.30 610.68 995.87 C 614.09 1009.91 621.22 1023.24 631.94 1033.05 C 641.40 1041.54 653.35 1047.04 665.76 1049.50 C 674.36 1051.66 683.25 1051.35 692.03 1051.97 C 714.64 1052.88 736.93 1044.43 754.84 1030.92 C 765.44 1022.91 774.67 1013.15 782.54 1002.46 C 785.58 998.29 791.09 995.87 796.22 996.79 C 798.82 997.57 800.61 1000.25 800.37 1002.97 C 801.04 1008.25 797.57 1012.64 794.40 1016.44 C 792.64 1018.37 792.19 1021.33 793.42 1023.67 C 795.38 1027.84 796.34 1032.60 795.17 1037.14 C 793.78 1046.11 786.86 1052.81 779.96 1058.08 C 756.06 1077.00 726.67 1089.74 696.04 1091.43 C 684.71 1092.49 673.37 1090.93 662.04 1090.29 C 646.99 1088.37 631.98 1085.21 617.89 1079.41 C 599.11 1071.78 582.01 1059.26 570.56 1042.37 C 556.12 1021.57 550.69 995.87 550.13 970.90 C 549.69 949.18 552.32 927.20 559.73 906.70 C 568.25 881.86 583.61 859.52 603.31 842.20 C 624.66 823.36 650.59 810.01 677.92 802.27 C 686.27 799.86 694.82 798.17 703.35 796.47 Z" />
</g>
</svg>
