<?xml version="1.0" encoding="UTF-8" ?>
<!DOCTYPE svg PUBLIC "-//W3C//DTD SVG 1.1//EN" "http://www.w3.org/Graphics/SVG/1.1/DTD/svg11.dtd">
<svg width="1276pt" height="1276pt" viewBox="0 0 1276 1276" version="1.1" xmlns="http://www.w3.org/2000/svg">
<g id="#428e24ff">
<path fill="#428e24" opacity="1.00" d=" M 505.97 224.65 C 526.17 224.58 546.36 224.61 566.56 224.64 C 567.60 279.75 569.17 334.89 567.90 390.02 C 567.20 438.09 565.08 486.14 561.06 534.05 C 557.01 580.66 551.25 627.23 541.26 672.97 C 525.84 745.20 493.01 813.09 449.46 872.50 C 413.04 921.85 368.49 965.71 316.34 998.30 C 264.70 1030.67 204.56 1051.02 143.24 1050.75 C 143.23 1010.66 143.37 970.56 143.17 930.47 C 162.19 929.84 180.29 922.99 197.57 915.55 C 232.54 899.76 264.78 878.46 294.87 854.79 C 338.17 820.37 377.07 780.22 409.06 735.05 C 420.21 719.17 430.76 702.80 439.19 685.29 C 455.71 651.18 466.70 614.68 475.30 577.85 C 485.96 531.46 492.65 484.25 497.35 436.92 C 502.58 382.43 505.21 327.71 505.74 272.98 C 505.78 256.87 506.36 240.76 505.97 224.65 Z" />
<path fill="#428e24" opacity="1.00" d=" M 583.24 224.67 C 619.41 224.62 655.59 224.62 691.76 224.67 C 691.58 422.45 691.74 620.23 691.69 818.01 C 691.73 896.16 691.60 974.32 691.75 1052.47 C 655.58 1052.51 619.42 1052.52 583.25 1052.47 C 583.40 897.98 583.27 743.50 583.31 589.01 C 583.26 467.56 583.42 346.11 583.24 224.67 Z" />
<path fill="#428e24" opacity="1.00" d=" M 707.42 274.94 C 707.57 258.16 708.39 241.41 708.44 224.64 C 728.64 224.61 748.83 224.59 769.02 224.65 C 768.63 321.61 772.49 418.91 787.52 514.82 C 793.79 553.70 801.88 592.38 813.92 629.92 C 823.01 658.09 834.28 685.76 849.96 710.96 C 870.33 743.70 894.56 773.95 921.39 801.61 C 961.18 842.40 1006.33 878.38 1056.63 905.37 C 1074.66 914.80 1093.39 923.26 1113.25 927.99 C 1119.34 929.43 1125.56 930.30 1131.83 930.47 C 1131.63 970.56 1131.77 1010.66 1131.76 1050.75 C 1086.13 1050.88 1040.83 1039.72 999.57 1020.47 C 964.71 1004.29 932.57 982.59 903.56 957.46 C 873.87 931.73 847.39 902.40 824.22 870.70 C 781.75 812.30 749.61 745.79 734.20 675.05 C 726.33 639.76 721.15 603.92 717.20 568.00 C 712.56 524.79 709.82 481.40 708.28 437.97 C 706.38 383.65 706.20 329.28 707.42 274.94 Z" />
</g>
</svg>
