<?xml version="1.0" encoding="UTF-8" ?>
<!DOCTYPE svg PUBLIC "-//W3C//DTD SVG 1.1//EN" "http://www.w3.org/Graphics/SVG/1.1/DTD/svg11.dtd">
<svg width="1276pt" height="1276pt" viewBox="0 0 1276 1276" version="1.1" xmlns="http://www.w3.org/2000/svg">
<g id="#c1ac6dff">
<path fill="#c1ac6d" opacity="1.00" d=" M 505.97 224.65 C 526.16 224.57 546.34 224.64 566.53 224.61 C 567.64 279.71 569.15 334.83 567.90 389.94 C 567.20 438.08 565.08 486.21 561.05 534.19 C 556.93 581.48 551.07 628.73 540.78 675.11 C 525.21 746.52 492.60 813.62 449.51 872.42 C 413.48 921.26 369.51 964.72 318.07 997.21 C 266.03 1030.21 205.24 1051.03 143.24 1050.75 C 143.25 1010.65 143.33 970.54 143.20 930.44 C 162.23 929.87 180.33 922.96 197.63 915.53 C 232.79 899.64 265.19 878.19 295.43 854.34 C 339.43 819.27 378.89 778.30 411.11 732.12 C 421.92 716.56 432.05 700.46 440.16 683.30 C 457.68 646.42 468.98 606.93 477.70 567.14 C 488.42 517.33 494.91 466.71 499.25 415.98 C 503.17 368.43 505.30 320.73 505.74 273.01 C 505.78 256.89 506.38 240.77 505.97 224.65 Z" />
<path fill="#c1ac6d" opacity="1.00" d=" M 583.21 224.71 C 619.40 224.58 655.59 224.61 691.78 224.69 C 691.56 430.81 691.75 636.92 691.69 843.04 C 691.76 912.82 691.53 982.61 691.80 1052.39 C 655.66 1052.68 619.51 1052.34 583.37 1052.56 C 583.24 780.70 583.35 508.84 583.31 236.98 C 583.30 232.89 583.38 228.79 583.21 224.71 Z" />
<path fill="#c1ac6d" opacity="1.00" d=" M 706.81 377.04 C 706.14 326.22 707.38 275.40 708.49 224.60 C 728.67 224.66 748.85 224.56 769.03 224.65 C 768.61 317.00 772.18 409.61 785.42 501.11 C 791.04 538.88 798.26 576.48 808.82 613.21 C 816.17 638.57 825.05 663.58 836.78 687.27 C 846.53 707.02 858.84 725.38 871.78 743.15 C 893.79 773.10 918.96 800.65 946.25 825.85 C 975.25 852.40 1006.66 876.43 1040.56 896.40 C 1059.22 907.27 1078.60 917.08 1099.10 923.99 C 1109.69 927.40 1120.61 930.27 1131.80 930.44 C 1131.67 970.55 1131.76 1010.65 1131.76 1050.76 C 1083.34 1050.90 1035.37 1038.29 992.09 1016.90 C 955.88 999.05 922.72 975.35 893.03 948.06 C 865.48 922.74 840.85 894.29 819.23 863.76 C 791.55 824.54 768.68 781.85 752.14 736.77 C 740.38 705.13 732.84 672.12 727.05 638.93 C 712.32 552.46 708.18 464.61 706.81 377.04 Z" />
</g>
</svg>
