<?xml version="1.0" encoding="UTF-8" ?>
<!DOCTYPE svg PUBLIC "-//W3C//DTD SVG 1.1//EN" "http://www.w3.org/Graphics/SVG/1.1/DTD/svg11.dtd">
<svg width="1276pt" height="1276pt" viewBox="0 0 1276 1276" version="1.1" xmlns="http://www.w3.org/2000/svg">
<g id="#9a1910ff">
<path fill="#9a1910" opacity="1.00" d=" M 302.77 273.94 C 309.60 245.04 316.44 216.15 323.27 187.25 C 326.09 198.32 329.11 209.33 331.91 220.39 C 335.30 233.16 338.58 245.96 342.02 258.72 C 344.22 267.75 346.79 276.68 349.00 285.71 C 347.99 285.09 346.80 284.52 346.69 283.18 C 345.83 280.15 345.11 277.07 343.78 274.21 C 330.12 273.68 316.44 274.17 302.77 273.94 Z" />
<path fill="#9a1910" opacity="1.00" d=" M 674.61 273.45 L 674.89 274.45 C 676.93 282.09 678.94 289.74 680.92 297.40 C 684.28 310.18 687.59 322.97 691.02 335.73 C 692.26 341.18 693.87 346.54 695.19 351.97 C 691.55 350.34 691.98 345.60 690.55 342.42 C 679.83 341.66 669.08 342.36 658.34 342.06 C 663.75 319.19 669.10 296.30 674.61 273.45 Z" />
</g>
<g id="#b7dab3ff">
<path fill="#b7dab3" opacity="1.00" d=" M 323.27 187.25 C 398.42 187.28 473.57 187.24 548.72 187.27 C 551.11 196.29 553.45 205.33 555.83 214.35 C 545.28 215.86 534.59 214.64 523.98 214.84 C 503.32 215.55 482.65 214.66 461.98 215.13 C 447.65 215.20 433.32 214.69 419.00 215.14 C 395.34 215.01 371.68 214.68 348.02 215.13 C 343.34 215.20 338.56 214.40 333.95 215.50 C 333.09 217.05 332.53 218.74 331.91 220.39 C 329.11 209.33 326.09 198.32 323.27 187.25 Z" />
<path fill="#b7dab3" opacity="1.00" d=" M 674.55 273.22 C 749.73 273.33 824.91 273.24 900.09 273.26 C 901.82 279.89 903.54 286.53 905.29 293.15 C 836.86 293.33 768.42 293.18 699.99 293.25 C 694.28 293.30 688.57 292.92 682.88 293.45 C 682.22 294.76 681.56 296.08 680.92 297.40 C 678.94 289.74 676.93 282.09 674.89 274.45 L 674.55 273.22 Z" />
</g>
<g id="#aad3aaff">
<path fill="#aad3aa" opacity="1.00" d=" M 555.83 214.35 C 558.89 226.00 561.98 237.64 564.95 249.32 C 561.97 249.64 558.99 249.98 555.99 250.03 C 533.34 249.61 510.67 249.94 488.01 249.84 C 444.00 249.82 400.00 249.83 355.99 249.85 C 351.49 249.77 346.97 249.72 342.49 250.19 C 342.63 253.04 342.47 255.90 342.02 258.72 C 338.58 245.96 335.30 233.16 331.91 220.39 C 332.53 218.74 333.09 217.05 333.95 215.50 C 338.56 214.40 343.34 215.20 348.02 215.13 C 371.68 214.68 395.34 215.01 419.00 215.14 C 433.32 214.69 447.65 215.20 461.98 215.13 C 482.65 214.66 503.32 215.55 523.98 214.84 C 534.59 214.64 545.28 215.86 555.83 214.35 Z" />
</g>
<g id="#9dcda2ff">
<path fill="#9dcda2" opacity="1.00" d=" M 564.95 249.32 L 565.04 249.31 C 567.57 259.38 570.34 269.38 572.84 279.46 C 567.25 280.02 561.62 279.98 556.01 279.87 C 498.33 279.84 440.64 279.97 382.96 279.90 C 372.11 280.47 361.22 279.23 350.39 280.21 C 350.63 283.38 350.54 286.55 350.19 289.71 C 349.81 288.36 349.42 287.03 349.00 285.71 C 346.79 276.68 344.22 267.75 342.02 258.72 C 342.47 255.90 342.63 253.04 342.49 250.19 C 346.97 249.72 351.49 249.77 355.99 249.85 C 400.00 249.83 444.00 249.82 488.01 249.84 C 510.67 249.94 533.34 249.61 555.99 250.03 C 558.99 249.98 561.97 249.64 564.95 249.32 Z" />
</g>
<g id="#9f1d11ff">
<path fill="#9f1d11" opacity="1.00" d=" M 292.80 316.01 C 296.12 301.98 299.46 287.96 302.77 273.94 C 316.44 274.17 330.12 273.68 343.78 274.21 C 345.11 277.07 345.83 280.15 346.69 283.18 C 346.80 284.52 347.99 285.09 349.00 285.71 C 349.42 287.03 349.81 288.36 350.19 289.71 C 352.28 298.42 354.66 307.06 356.98 315.71 C 357.57 318.37 358.26 321.00 358.94 323.65 C 356.05 322.50 356.13 318.96 355.10 316.49 C 349.43 315.61 343.69 316.11 337.99 316.06 C 322.93 316.03 307.87 316.04 292.80 316.01 Z" />
</g>
<g id="#93c89bff">
<path fill="#93c89b" opacity="1.00" d=" M 572.84 279.46 L 572.91 279.46 C 575.00 288.07 577.70 296.62 579.43 305.27 L 578.99 305.73 C 565.69 306.76 552.35 305.46 539.04 306.11 C 492.69 306.05 446.34 306.25 399.99 305.98 C 385.78 306.12 371.56 305.94 357.35 306.25 C 357.60 309.41 357.58 312.59 356.98 315.71 C 354.66 307.06 352.28 298.42 350.19 289.71 C 350.54 286.55 350.63 283.38 350.39 280.21 C 361.22 279.23 372.11 280.47 382.96 279.90 C 440.64 279.97 498.33 279.84 556.01 279.87 C 561.62 279.98 567.25 280.02 572.84 279.46 Z" />
</g>
<g id="#a9d3a9ff">
<path fill="#a9d3a9" opacity="1.00" d=" M 682.88 293.45 C 688.57 292.92 694.28 293.30 699.99 293.25 C 768.42 293.18 836.86 293.33 905.29 293.15 C 908.03 303.49 910.70 313.83 913.43 324.17 C 890.26 324.27 867.09 324.11 843.93 324.18 C 836.62 323.95 829.31 323.57 822.01 324.12 C 794.37 324.03 766.71 324.36 739.06 324.15 C 729.69 323.55 720.32 324.46 710.95 324.21 C 704.04 324.42 697.12 323.52 690.23 324.26 C 690.95 328.04 692.22 331.90 691.02 335.73 C 687.59 322.97 684.28 310.18 680.92 297.40 C 681.56 296.08 682.22 294.76 682.88 293.45 Z" />
</g>
<g id="#88c293ff">
<path fill="#88c293" opacity="1.00" d=" M 357.35 306.25 C 371.56 305.94 385.78 306.12 399.99 305.98 C 446.34 306.25 492.69 306.05 539.04 306.11 C 552.35 305.46 565.69 306.76 578.99 305.73 L 579.72 305.94 C 582.83 316.57 585.36 327.38 588.27 338.06 C 518.83 338.29 449.38 338.07 379.93 338.19 C 375.21 338.14 370.48 337.70 365.78 338.35 C 365.15 339.67 364.51 340.99 363.88 342.32 C 362.25 336.09 360.67 329.85 358.94 323.65 C 358.26 321.00 357.57 318.37 356.98 315.71 C 357.58 312.59 357.60 309.41 357.35 306.25 Z" />
</g>
<g id="#a52012ff">
<path fill="#a52012" opacity="1.00" d=" M 292.80 316.01 C 307.87 316.04 322.93 316.03 337.99 316.06 C 343.69 316.11 349.43 315.61 355.10 316.49 C 356.13 318.96 356.05 322.50 358.94 323.65 C 360.67 329.85 362.25 336.09 363.88 342.32 C 366.81 353.55 369.77 364.78 372.73 376.00 C 372.42 376.39 371.81 377.17 371.51 377.56 C 370.82 376.15 370.15 374.75 369.48 373.35 C 363.02 372.46 356.50 373.10 350.01 373.02 C 326.45 372.84 302.90 373.14 279.35 372.97 C 283.82 353.98 288.33 335.00 292.80 316.01 Z" />
</g>
<g id="#99cb9fff">
<path fill="#99cb9f" opacity="1.00" d=" M 690.23 324.26 C 697.12 323.52 704.04 324.42 710.95 324.21 C 720.32 324.46 729.69 323.55 739.06 324.15 C 766.71 324.36 794.37 324.03 822.01 324.12 C 829.31 323.57 836.62 323.95 843.93 324.18 C 867.09 324.11 890.26 324.27 913.43 324.17 C 916.42 335.49 919.34 346.83 922.33 358.15 C 907.87 358.59 893.42 357.60 878.97 358.24 C 866.97 357.60 854.97 358.51 842.97 358.20 C 830.31 357.48 817.65 358.52 804.98 358.23 C 783.99 357.69 762.99 358.79 742.00 357.87 C 733.32 357.55 724.65 358.36 715.97 358.25 C 710.38 358.29 704.79 357.62 699.21 358.19 C 699.85 362.06 700.88 365.98 700.01 369.91 C 698.34 363.94 696.85 357.94 695.19 351.97 C 693.87 346.54 692.26 341.18 691.02 335.73 C 692.22 331.90 690.95 328.04 690.23 324.26 Z" />
</g>
<g id="#7bbc8bff">
<path fill="#7bbc8b" opacity="1.00" d=" M 365.78 338.35 C 370.48 337.70 375.21 338.14 379.93 338.19 C 449.38 338.07 518.83 338.29 588.27 338.06 C 591.34 349.72 594.35 361.40 597.44 373.06 C 584.97 373.41 572.51 372.67 560.05 373.13 C 505.38 373.11 450.69 373.17 396.02 373.12 C 388.91 373.06 381.80 372.53 374.71 373.24 C 374.55 375.71 374.25 378.17 373.98 380.63 C 373.57 379.08 373.14 377.54 372.73 376.00 C 369.77 364.78 366.81 353.55 363.88 342.32 C 364.51 340.99 365.15 339.67 365.78 338.35 Z" />
</g>
<g id="#a41f12ff">
<path fill="#a41f12" opacity="1.00" d=" M 658.34 342.06 C 669.08 342.36 679.83 341.66 690.55 342.42 C 691.98 345.60 691.55 350.34 695.19 351.97 C 696.85 357.94 698.34 363.94 700.01 369.91 C 702.06 378.55 704.52 387.08 706.68 395.70 C 708.21 401.75 709.89 407.76 711.41 413.82 C 711.11 414.89 710.80 415.96 710.48 417.03 C 709.74 414.53 708.99 412.04 708.22 409.55 C 702.21 408.34 696.07 409.03 690.00 408.94 C 674.16 409.04 658.34 408.94 642.51 408.95 C 647.76 386.64 653.08 364.36 658.34 342.06 Z" />
</g>
<g id="#88c394ff">
<path fill="#88c394" opacity="1.00" d=" M 699.21 358.19 C 704.79 357.62 710.38 358.29 715.97 358.25 C 724.65 358.36 733.32 357.55 742.00 357.87 C 762.99 358.79 783.99 357.69 804.98 358.23 C 817.65 358.52 830.31 357.48 842.97 358.20 C 854.97 358.51 866.97 357.60 878.97 358.24 C 893.42 357.60 907.87 358.59 922.33 358.15 C 925.55 370.31 928.65 382.50 931.93 394.64 C 932.15 395.64 932.40 396.63 932.66 397.63 C 933.70 401.66 934.77 405.68 935.80 409.71 C 934.78 408.90 933.75 408.00 933.50 406.66 C 932.25 402.52 931.33 398.27 929.62 394.28 C 923.78 393.27 917.86 393.85 911.98 393.78 C 848.65 393.77 785.31 393.78 721.98 393.77 C 716.85 393.84 711.30 392.85 706.68 395.70 C 704.52 387.08 702.06 378.55 700.01 369.91 C 700.88 365.98 699.85 362.06 699.21 358.19 Z" />
</g>
<g id="#96170fff">
<path fill="#96170f" opacity="1.00" d=" M 940.20 359.24 C 1015.38 359.19 1090.57 359.18 1165.75 359.24 C 1162.68 371.64 1159.81 384.08 1156.90 396.51 L 1156.81 396.50 C 1146.23 395.64 1135.61 396.30 1125.01 396.12 C 1066.34 396.13 1007.68 396.10 949.01 396.09 C 943.55 396.14 937.72 394.97 932.66 397.63 C 932.40 396.63 932.15 395.64 931.93 394.64 C 934.51 382.80 937.47 371.05 940.20 359.24 Z" />
</g>
<g id="#ac2414ff">
<path fill="#ac2414" opacity="1.00" d=" M 279.35 372.97 C 302.90 373.14 326.45 372.84 350.01 373.02 C 356.50 373.10 363.02 372.46 369.48 373.35 C 370.15 374.75 370.82 376.15 371.51 377.56 C 371.81 377.17 372.42 376.39 372.73 376.00 C 373.14 377.54 373.57 379.08 373.98 380.63 C 377.15 393.21 380.56 405.73 383.80 418.30 C 385.22 423.85 386.73 429.38 388.12 434.94 C 384.73 433.49 385.11 429.15 383.78 426.25 C 377.52 425.59 371.23 426.11 364.96 426.06 C 332.24 425.87 299.52 426.19 266.80 425.97 C 270.97 408.30 275.17 390.64 279.35 372.97 Z" />
</g>
<g id="#6fb683ff">
<path fill="#6fb683" opacity="1.00" d=" M 374.71 373.24 C 381.80 372.53 388.91 373.06 396.02 373.12 C 450.69 373.17 505.38 373.11 560.05 373.13 C 572.51 372.67 584.97 373.41 597.44 373.06 C 600.88 386.26 604.41 399.44 607.78 412.66 C 601.46 415.17 594.57 413.70 587.98 413.87 C 521.99 413.90 455.98 413.82 389.99 413.96 C 388.52 414.03 387.07 414.21 385.62 414.39 C 385.01 415.69 384.40 416.99 383.80 418.30 C 380.56 405.73 377.15 393.21 373.98 380.63 C 374.25 378.17 374.55 375.71 374.71 373.24 Z" />
</g>
<g id="#79bc8aff">
<path fill="#79bc8a" opacity="1.00" d=" M 706.68 395.70 C 711.30 392.85 716.85 393.84 721.98 393.77 C 785.31 393.78 848.65 393.77 911.98 393.78 C 917.86 393.85 923.78 393.27 929.62 394.28 C 931.33 398.27 932.25 402.52 933.50 406.66 C 933.75 408.00 934.78 408.90 935.80 409.71 C 937.97 417.61 940.01 425.54 942.02 433.48 C 938.87 429.80 938.38 424.83 936.41 420.56 C 931.00 419.41 925.46 419.91 919.98 419.87 C 902.31 419.95 884.65 420.28 866.98 419.87 C 856.66 420.16 846.34 420.26 836.02 420.01 C 806.69 420.14 777.36 420.05 748.03 420.11 C 737.08 420.15 726.12 419.56 715.20 420.20 C 715.88 423.66 716.63 427.20 715.95 430.74 C 714.36 425.12 712.94 419.46 711.41 413.82 C 709.89 407.76 708.21 401.75 706.68 395.70 Z" />
</g>
<g id="#a11d11ff">
<path fill="#a11d11" opacity="1.00" d=" M 932.66 397.63 C 937.72 394.97 943.55 396.14 949.01 396.09 C 1007.68 396.10 1066.34 396.13 1125.01 396.12 C 1135.61 396.30 1146.23 395.64 1156.81 396.50 C 1152.22 416.43 1147.46 436.32 1142.74 456.21 C 1132.51 455.48 1122.26 456.02 1112.02 455.85 C 1064.67 455.91 1017.32 455.80 969.97 455.88 C 963.60 455.95 957.21 455.46 950.87 456.18 C 950.64 457.16 950.43 458.16 950.23 459.17 C 949.90 459.27 949.25 459.48 948.93 459.59 C 948.20 456.84 947.53 454.08 946.76 451.34 C 945.15 445.40 943.73 439.40 942.02 433.48 C 940.01 425.54 937.97 417.61 935.80 409.71 C 934.77 405.68 933.70 401.66 932.66 397.63 Z" />
</g>
<g id="#ac2514ff">
<path fill="#ac2514" opacity="1.00" d=" M 642.51 408.95 C 658.34 408.94 674.16 409.04 690.00 408.94 C 696.07 409.03 702.21 408.34 708.22 409.55 C 708.99 412.04 709.74 414.53 710.48 417.03 C 710.80 415.96 711.11 414.89 711.41 413.82 C 712.94 419.46 714.36 425.12 715.95 430.74 C 717.42 437.10 719.24 443.38 720.84 449.71 C 721.88 453.67 722.93 457.64 723.92 461.62 C 720.74 460.18 720.97 456.07 719.67 453.30 C 713.13 452.54 706.55 453.08 699.99 453.07 C 682.00 453.19 664.01 452.73 646.02 453.06 C 641.67 453.17 637.31 452.96 632.98 452.62 L 632.57 452.20 C 635.34 437.73 639.28 423.37 642.51 408.95 Z" />
</g>
<g id="#63b07bff">
<path fill="#63b07b" opacity="1.00" d=" M 607.78 412.66 L 607.87 412.63 C 610.96 424.85 614.23 437.02 617.40 449.21 C 610.61 448.89 603.82 448.85 597.03 449.11 C 579.00 449.17 560.96 449.23 542.94 448.95 C 524.94 449.60 506.95 448.43 488.96 449.08 C 474.29 448.82 459.62 449.20 444.94 448.93 C 428.17 449.67 411.37 448.14 394.62 449.27 C 394.40 451.74 394.11 454.21 393.91 456.68 C 391.92 449.45 390.11 442.17 388.12 434.94 C 386.73 429.38 385.22 423.85 383.80 418.30 C 384.40 416.99 385.01 415.69 385.62 414.39 C 387.07 414.21 388.52 414.03 389.99 413.96 C 455.98 413.82 521.99 413.90 587.98 413.87 C 594.57 413.70 601.46 415.17 607.78 412.66 Z" />
</g>
<g id="#6db682ff">
<path fill="#6db682" opacity="1.00" d=" M 715.20 420.20 C 726.12 419.56 737.08 420.15 748.03 420.11 C 777.36 420.05 806.69 420.14 836.02 420.01 C 846.34 420.26 856.66 420.16 866.98 419.87 C 884.65 420.28 902.31 419.95 919.98 419.87 C 925.46 419.91 931.00 419.41 936.41 420.56 C 938.38 424.83 938.87 429.80 942.02 433.48 C 943.73 439.40 945.15 445.40 946.76 451.34 C 944.86 449.64 942.68 447.89 939.97 448.11 C 868.65 448.13 797.31 448.19 725.98 448.08 C 724.12 448.07 722.48 448.98 720.84 449.71 C 719.24 443.38 717.42 437.10 715.95 430.74 C 716.63 427.20 715.88 423.66 715.20 420.20 Z" />
</g>
<g id="#b22815ff">
<path fill="#b22815" opacity="1.00" d=" M 254.33 478.77 C 258.47 461.17 262.65 443.57 266.80 425.97 C 299.52 426.19 332.24 425.87 364.96 426.06 C 371.23 426.11 377.52 425.59 383.78 426.25 C 385.11 429.15 384.73 433.49 388.12 434.94 C 390.11 442.17 391.92 449.45 393.91 456.68 C 395.71 463.98 397.71 471.23 399.59 478.51 C 389.07 479.26 378.52 478.89 367.99 479.03 C 336.68 479.07 305.36 478.89 274.04 478.99 C 267.47 479.08 260.90 479.03 254.33 478.77 Z" />
<path fill="#b22815" opacity="1.00" d=" M 958.72 488.18 C 964.10 487.68 969.51 488.01 974.92 487.99 C 1028.36 487.94 1081.80 488.05 1135.25 487.92 C 1132.94 497.59 1130.69 507.26 1128.39 516.93 C 1073.60 517.26 1018.80 516.82 964.00 517.09 C 963.55 515.37 963.11 513.66 962.67 511.96 C 961.06 505.83 959.42 499.71 957.85 493.57 C 958.04 491.75 958.37 489.96 958.72 488.18 Z" />
</g>
<g id="#62b07aff">
<path fill="#62b07a" opacity="1.00" d=" M 720.84 449.71 C 722.48 448.98 724.12 448.07 725.98 448.08 C 797.31 448.19 868.65 448.13 939.97 448.11 C 942.68 447.89 944.86 449.64 946.76 451.34 C 947.53 454.08 948.20 456.84 948.93 459.59 C 950.55 465.85 952.20 472.10 953.85 478.36 C 951.83 476.85 949.78 474.87 947.05 475.13 C 882.38 475.15 817.70 475.19 753.03 475.15 C 744.57 475.31 736.09 474.71 727.67 475.72 C 726.43 471.02 725.24 466.30 723.92 461.62 C 722.93 457.64 721.88 453.67 720.84 449.71 Z" />
</g>
<g id="#56aa72ff">
<path fill="#56aa72" opacity="1.00" d=" M 394.62 449.27 C 411.37 448.14 428.17 449.67 444.94 448.93 C 459.62 449.20 474.29 448.82 488.96 449.08 C 506.95 448.43 524.94 449.60 542.94 448.95 C 560.96 449.23 579.00 449.17 597.03 449.11 C 603.82 448.85 610.61 448.89 617.40 449.21 C 620.13 459.56 622.83 469.93 625.56 480.28 C 626.34 483.32 627.14 486.35 627.94 489.39 C 620.66 490.35 613.32 489.91 606.01 489.95 C 553.04 489.88 500.07 489.93 447.10 489.91 C 432.28 489.99 417.45 489.67 402.63 490.13 C 401.61 486.25 400.60 482.38 399.59 478.51 C 397.71 471.23 395.71 463.98 393.91 456.68 C 394.11 454.21 394.40 451.74 394.62 449.27 Z" />
</g>
<g id="#b42a16ff">
<path fill="#b42a16" opacity="1.00" d=" M 632.27 452.95 L 632.98 452.62 C 637.31 452.96 641.67 453.17 646.02 453.06 C 664.01 452.73 682.00 453.19 699.99 453.07 C 706.55 453.08 713.13 452.54 719.67 453.30 C 720.97 456.07 720.74 460.18 723.92 461.62 C 725.24 466.30 726.43 471.02 727.67 475.72 C 730.38 486.11 733.09 496.50 735.85 506.87 C 733.41 505.65 730.77 504.78 728.03 504.90 C 703.71 505.31 679.38 504.95 655.07 505.06 C 647.38 505.04 639.69 505.26 632.01 504.90 C 630.65 499.72 629.30 494.56 627.94 489.39 C 627.14 486.35 626.34 483.32 625.56 480.28 C 628.02 471.23 629.69 461.96 632.27 452.95 Z" />
</g>
<g id="#ab2414ff">
<path fill="#ab2414" opacity="1.00" d=" M 950.87 456.18 C 957.21 455.46 963.60 455.95 969.97 455.88 C 1017.32 455.80 1064.67 455.91 1112.02 455.85 C 1122.26 456.02 1132.51 455.48 1142.74 456.21 C 1140.25 466.78 1137.74 477.35 1135.25 487.92 C 1081.80 488.05 1028.36 487.94 974.92 487.99 C 969.51 488.01 964.10 487.68 958.72 488.18 C 958.37 489.96 958.04 491.75 957.85 493.57 C 956.51 488.50 955.17 483.43 953.85 478.36 C 952.20 472.10 950.55 465.85 948.93 459.59 C 949.25 459.48 949.90 459.27 950.23 459.17 C 950.43 458.16 950.64 457.16 950.87 456.18 Z" />
</g>
<g id="#55aa72ff">
<path fill="#55aa72" opacity="1.00" d=" M 727.67 475.72 C 736.09 474.71 744.57 475.31 753.03 475.15 C 817.70 475.19 882.38 475.15 947.05 475.13 C 949.78 474.87 951.83 476.85 953.85 478.36 C 955.17 483.43 956.51 488.50 957.85 493.57 C 959.42 499.71 961.06 505.83 962.67 511.96 C 962.47 512.26 962.07 512.85 961.87 513.15 C 960.40 512.15 959.02 510.72 957.10 510.86 C 891.08 510.86 825.05 510.84 759.03 510.88 C 753.34 510.96 747.63 510.49 741.96 511.00 C 739.95 510.87 738.91 512.71 737.65 513.91 C 737.04 511.56 736.45 509.21 735.85 506.87 C 733.09 496.50 730.38 486.11 727.67 475.72 Z" />
</g>
<g id="#b72c16ff">
<path fill="#b72c16" opacity="1.00" d=" M 367.99 479.03 C 378.52 478.89 389.07 479.26 399.59 478.51 C 400.60 482.38 401.61 486.25 402.63 490.13 C 404.46 497.06 406.26 504.01 408.10 510.95 C 408.40 512.10 408.69 513.26 408.98 514.44 C 408.78 516.59 408.44 518.73 408.10 520.87 C 393.10 521.41 378.07 520.88 363.05 521.05 C 336.38 521.04 309.71 521.07 283.04 520.99 C 270.15 521.01 257.25 521.26 244.37 520.85 C 247.65 506.81 251.01 492.79 254.33 478.77 C 260.90 479.03 267.47 479.08 274.04 478.99 C 305.36 478.89 336.68 479.07 367.99 479.03 Z" />
</g>
<g id="#4da66cff">
<path fill="#4da66c" opacity="1.00" d=" M 606.01 489.95 C 613.32 489.91 620.66 490.35 627.94 489.39 C 629.30 494.56 630.65 499.72 632.01 504.90 C 632.48 506.71 632.95 508.52 633.44 510.35 C 625.36 511.58 617.17 510.95 609.04 511.09 C 542.06 511.01 475.07 511.22 408.10 510.95 C 406.26 504.01 404.46 497.06 402.63 490.13 C 417.45 489.67 432.28 489.99 447.10 489.91 C 500.07 489.93 553.04 489.88 606.01 489.95 Z" />
</g>
<g id="#bc2f17ff">
<path fill="#bc2f17" opacity="1.00" d=" M 632.01 504.90 C 639.69 505.26 647.38 505.04 655.07 505.06 C 679.38 504.95 703.71 505.31 728.03 504.90 C 730.77 504.78 733.41 505.65 735.85 506.87 C 736.45 509.21 737.04 511.56 737.65 513.91 C 739.36 520.33 741.02 526.76 742.73 533.18 C 744.76 541.11 746.96 549.01 748.91 556.96 C 748.81 559.23 748.54 561.50 748.24 563.76 C 723.17 564.20 698.09 563.81 673.02 563.94 C 665.28 563.67 657.51 564.48 649.81 563.61 C 648.78 561.58 647.84 559.42 645.98 558.02 C 644.33 552.12 642.83 546.19 641.28 540.27 C 638.65 530.30 636.07 520.32 633.44 510.35 C 632.95 508.52 632.48 506.71 632.01 504.90 Z" />
</g>
<g id="#46a267ff">
<path fill="#46a267" opacity="1.00" d=" M 408.10 510.95 C 475.07 511.22 542.06 511.01 609.04 511.09 C 617.17 510.95 625.36 511.58 633.44 510.35 C 636.07 520.32 638.65 530.30 641.28 540.27 C 638.74 541.66 635.88 542.33 632.99 542.14 C 619.99 541.72 606.99 542.05 594.00 542.03 C 566.32 541.77 538.65 542.28 510.98 541.94 C 490.32 541.91 469.66 542.17 449.00 541.95 C 438.12 542.20 427.22 541.56 416.35 542.45 C 413.89 533.11 411.45 523.77 408.98 514.44 C 408.69 513.26 408.40 512.10 408.10 510.95 Z" />
</g>
<g id="#4aa56bff">
<path fill="#4aa56b" opacity="1.00" d=" M 737.65 513.91 C 738.91 512.71 739.95 510.87 741.96 511.00 C 747.63 510.49 753.34 510.96 759.03 510.88 C 825.05 510.84 891.08 510.86 957.10 510.86 C 959.02 510.72 960.40 512.15 961.87 513.15 C 962.07 512.85 962.47 512.26 962.67 511.96 C 963.11 513.66 963.55 515.37 964.00 517.09 C 965.46 522.72 966.95 528.35 968.43 533.98 C 959.05 532.12 949.45 533.20 939.97 533.05 C 884.30 532.85 828.63 533.10 772.96 532.96 C 762.88 532.87 752.80 533.05 742.73 533.18 C 741.02 526.76 739.36 520.33 737.65 513.91 Z" />
</g>
<g id="#be3018ff">
<path fill="#be3018" opacity="1.00" d=" M 408.10 520.87 C 408.44 518.73 408.78 516.59 408.98 514.44 C 411.45 523.77 413.89 533.11 416.35 542.45 C 418.91 552.20 421.46 561.95 424.02 571.70 C 425.74 578.23 427.44 584.76 429.15 591.30 C 426.43 591.65 423.70 591.98 420.96 592.04 C 356.49 591.96 292.02 592.02 227.54 591.95 C 233.16 568.25 238.75 544.55 244.37 520.85 C 257.25 521.26 270.15 521.01 283.04 520.99 C 309.71 521.07 336.38 521.04 363.05 521.05 C 378.07 520.88 393.10 521.41 408.10 520.87 Z" />
</g>
<g id="#b82d17ff">
<path fill="#b82d17" opacity="1.00" d=" M 964.00 517.09 C 1018.80 516.82 1073.60 517.26 1128.39 516.93 C 1125.39 529.61 1122.40 542.29 1119.40 554.96 C 1072.93 554.91 1026.46 554.94 979.99 555.03 C 977.17 555.23 975.13 553.12 973.05 551.59 C 971.49 545.72 969.96 539.85 968.43 533.98 C 966.95 528.35 965.46 522.72 964.00 517.09 Z" />
</g>
<g id="#42a065ff">
<path fill="#42a065" opacity="1.00" d=" M 742.73 533.18 C 752.80 533.05 762.88 532.87 772.96 532.96 C 828.63 533.10 884.30 532.85 939.97 533.05 C 949.45 533.20 959.05 532.12 968.43 533.98 C 969.96 539.85 971.49 545.72 973.05 551.59 C 973.42 553.02 973.79 554.45 974.18 555.90 C 973.58 557.16 972.99 558.43 972.42 559.70 C 966.66 560.66 960.82 560.08 955.02 560.17 C 889.02 560.24 823.02 560.10 757.02 560.23 C 754.13 560.33 751.21 559.57 749.07 557.57 L 748.91 556.96 C 746.96 549.01 744.76 541.11 742.73 533.18 Z" />
</g>
<g id="#3d9e62ff">
<path fill="#3d9e62" opacity="1.00" d=" M 632.99 542.14 C 635.88 542.33 638.74 541.66 641.28 540.27 C 642.83 546.19 644.33 552.12 645.98 558.02 C 646.70 560.93 647.45 563.84 648.22 566.75 C 647.60 568.40 646.97 570.06 646.37 571.73 C 641.28 572.47 636.14 572.13 631.03 572.11 C 577.68 572.14 524.34 572.16 470.99 572.14 C 455.34 572.00 439.66 572.54 424.02 571.70 C 421.46 561.95 418.91 552.20 416.35 542.45 C 427.22 541.56 438.12 542.20 449.00 541.95 C 469.66 542.17 490.32 541.91 510.98 541.94 C 538.65 542.28 566.32 541.77 594.00 542.03 C 606.99 542.05 619.99 541.72 632.99 542.14 Z" />
</g>
<g id="#c03218ff">
<path fill="#c03218" opacity="1.00" d=" M 973.05 551.59 C 975.13 553.12 977.17 555.23 979.99 555.03 C 1026.46 554.94 1072.93 554.91 1119.40 554.96 C 1116.54 566.88 1113.78 578.82 1110.91 590.74 C 1101.32 589.47 1091.63 590.37 1081.99 590.14 C 1055.67 590.08 1029.35 590.17 1003.03 590.10 C 997.42 590.03 991.79 590.52 986.20 589.86 C 984.82 588.24 983.44 586.65 981.90 585.20 C 979.27 575.44 976.73 565.67 974.18 555.90 C 973.79 554.45 973.42 553.02 973.05 551.59 Z" />
</g>
<g id="#359a5cff">
<path fill="#359a5c" opacity="1.00" d=" M 972.42 559.70 C 972.99 558.43 973.58 557.16 974.18 555.90 C 976.73 565.67 979.27 575.44 981.90 585.20 C 983.31 590.78 984.80 596.35 986.27 601.93 C 984.91 603.61 983.44 605.51 981.00 605.16 C 959.67 605.32 938.34 604.66 917.02 605.17 C 903.03 604.38 889.03 605.30 875.04 604.88 C 864.34 605.32 853.64 604.60 842.94 604.89 C 827.29 605.38 811.63 604.58 795.98 604.94 C 788.31 605.21 780.63 604.97 772.96 605.20 C 769.01 605.31 765.10 604.72 761.25 603.94 C 760.84 602.41 760.39 600.88 759.99 599.36 C 756.48 585.40 752.78 571.48 749.07 557.57 C 751.21 559.57 754.13 560.33 757.02 560.23 C 823.02 560.10 889.02 560.24 955.02 560.17 C 960.82 560.08 966.66 560.66 972.42 559.70 Z" />
</g>
<g id="#c43419ff">
<path fill="#c43419" opacity="1.00" d=" M 645.98 558.02 C 647.84 559.42 648.78 561.58 649.81 563.61 C 657.51 564.48 665.28 563.67 673.02 563.94 C 698.09 563.81 723.17 564.20 748.24 563.76 C 748.54 561.50 748.81 559.23 748.91 556.96 L 749.07 557.57 C 752.78 571.48 756.48 585.40 759.99 599.36 C 758.71 603.17 760.00 607.03 760.89 610.76 C 739.95 611.58 718.97 610.65 698.02 610.98 C 687.00 610.84 675.98 611.18 664.98 611.06 C 662.26 611.28 660.64 608.81 658.87 607.19 C 655.24 593.73 651.78 580.23 648.22 566.75 C 647.45 563.84 646.70 560.93 645.98 558.02 Z" />
</g>
<g id="#33995bff">
<path fill="#33995b" opacity="1.00" d=" M 646.37 571.73 C 646.97 570.06 647.60 568.40 648.22 566.75 C 651.78 580.23 655.24 593.73 658.87 607.19 C 659.93 611.36 661.01 615.54 662.12 619.70 C 661.52 621.35 660.93 623.00 660.36 624.65 C 648.60 625.93 636.76 624.54 624.97 624.94 C 611.96 624.64 598.96 625.37 585.95 625.03 C 576.98 624.63 568.00 625.45 559.03 625.00 C 548.69 624.53 538.34 625.19 528.00 625.10 C 518.35 624.58 508.71 625.34 499.06 625.13 C 486.36 625.34 473.67 624.68 460.97 625.12 C 453.94 624.49 446.82 625.80 439.86 624.42 C 438.84 621.97 438.90 618.47 436.03 617.35 C 433.62 608.69 431.46 599.97 429.15 591.30 C 427.44 584.76 425.74 578.23 424.02 571.70 C 439.66 572.54 455.34 572.00 470.99 572.14 C 524.34 572.16 577.68 572.14 631.03 572.11 C 636.14 572.13 641.28 572.47 646.37 571.73 Z" />
</g>
<g id="#ca381bff">
<path fill="#ca381b" opacity="1.00" d=" M 981.90 585.20 C 983.44 586.65 984.82 588.24 986.20 589.86 C 991.79 590.52 997.42 590.03 1003.03 590.10 C 1029.35 590.17 1055.67 590.08 1081.99 590.14 C 1091.63 590.37 1101.32 589.47 1110.91 590.74 C 1106.18 610.82 1101.46 630.90 1096.68 650.97 C 1069.43 650.79 1042.18 650.98 1014.94 650.89 C 1010.39 650.95 1005.84 651.04 1001.32 650.66 C 999.53 646.93 999.89 641.66 996.08 639.26 C 992.71 626.84 989.51 614.38 986.27 601.93 C 984.80 596.35 983.31 590.78 981.90 585.20 Z" />
</g>
<g id="#c53519ff">
<path fill="#c53519" opacity="1.00" d=" M 420.96 592.04 C 423.70 591.98 426.43 591.65 429.15 591.30 C 431.46 599.97 433.62 608.69 436.03 617.35 C 437.91 624.77 439.87 632.17 441.84 639.57 C 440.98 642.70 440.30 645.87 439.54 649.03 C 371.01 649.04 302.49 648.95 233.97 649.06 C 227.28 649.01 220.56 648.68 213.90 649.59 C 218.46 630.38 222.99 611.16 227.54 591.95 C 292.02 592.02 356.49 591.96 420.96 592.04 Z" />
</g>
<g id="#cc391bff">
<path fill="#cc391b" opacity="1.00" d=" M 760.89 610.76 C 760.00 607.03 758.71 603.17 759.99 599.36 C 760.39 600.88 760.84 602.41 761.25 603.94 C 765.58 620.27 769.82 636.63 774.14 652.97 C 774.78 655.39 775.45 657.82 775.98 660.28 C 774.68 664.45 776.40 668.60 776.98 672.72 C 768.35 673.59 759.69 672.84 751.04 672.92 C 733.01 672.97 714.99 673.06 696.96 672.92 C 690.74 672.83 684.50 673.46 678.31 672.70 C 676.39 668.09 675.58 663.13 673.96 658.43 C 673.47 658.19 672.51 657.72 672.02 657.48 C 668.69 644.90 665.39 632.31 662.12 619.70 C 661.01 615.54 659.93 611.36 658.87 607.19 C 660.64 608.81 662.26 611.28 664.98 611.06 C 675.98 611.18 687.00 610.84 698.02 610.98 C 718.97 610.65 739.95 611.58 760.89 610.76 Z" />
</g>
<g id="#279353ff">
<path fill="#279353" opacity="1.00" d=" M 981.00 605.16 C 983.44 605.51 984.91 603.61 986.27 601.93 C 989.51 614.38 992.71 626.84 996.08 639.26 C 997.05 643.18 998.08 647.09 999.13 651.00 C 997.92 652.68 996.36 654.21 994.09 653.85 C 926.73 653.79 859.37 653.82 792.01 653.81 C 786.04 653.90 780.02 654.12 774.14 652.97 C 769.82 636.63 765.58 620.27 761.25 603.94 C 765.10 604.72 769.01 605.31 772.96 605.20 C 780.63 604.97 788.31 605.21 795.98 604.94 C 811.63 604.58 827.29 605.38 842.94 604.89 C 853.64 604.60 864.34 605.32 875.04 604.88 C 889.03 605.30 903.03 604.38 917.02 605.17 C 938.34 604.66 959.67 605.32 981.00 605.16 Z" />
</g>
<g id="#269352ff">
<path fill="#269352" opacity="1.00" d=" M 436.03 617.35 C 438.90 618.47 438.84 621.97 439.86 624.42 C 446.82 625.80 453.94 624.49 460.97 625.12 C 473.67 624.68 486.36 625.34 499.06 625.13 C 508.71 625.34 518.35 624.58 528.00 625.10 C 538.34 625.19 548.69 624.53 559.03 625.00 C 568.00 625.45 576.98 624.63 585.95 625.03 C 598.96 625.37 611.96 624.64 624.97 624.94 C 636.76 624.54 648.60 625.93 660.36 624.65 C 660.93 623.00 661.52 621.35 662.12 619.70 C 665.39 632.31 668.69 644.90 672.02 657.48 C 672.95 661.09 673.97 664.68 674.80 668.31 C 673.92 672.14 674.73 675.99 675.67 679.72 C 668.44 680.34 661.20 680.00 653.97 679.91 C 586.78 679.99 519.58 679.85 452.39 679.90 C 448.87 666.46 445.33 653.02 441.84 639.57 C 439.87 632.17 437.91 624.77 436.03 617.35 Z" />
</g>
<g id="#d43e1dff">
<path fill="#d43e1d" opacity="1.00" d=" M 996.08 639.26 C 999.89 641.66 999.53 646.93 1001.32 650.66 C 1005.84 651.04 1010.39 650.95 1014.94 650.89 C 1042.18 650.98 1069.43 650.79 1096.68 650.97 C 1092.96 666.63 1089.29 682.30 1085.56 697.96 C 1069.03 698.12 1052.51 698.01 1035.98 697.97 C 1028.51 697.86 1021.00 698.62 1013.57 697.68 C 1012.01 694.55 1012.41 689.80 1008.87 688.11 C 1007.89 684.54 1006.93 680.97 1005.98 677.41 C 1003.80 668.58 1001.35 659.82 999.13 651.00 C 998.08 647.09 997.05 643.18 996.08 639.26 Z" />
</g>
<g id="#cb391bff">
<path fill="#cb391b" opacity="1.00" d=" M 213.90 649.59 C 220.56 648.68 227.28 649.01 233.97 649.06 C 302.49 648.95 371.01 649.04 439.54 649.03 C 433.44 674.72 427.39 700.42 421.31 726.12 C 346.16 725.81 271.00 726.15 195.84 725.95 C 201.85 700.49 207.92 675.05 213.90 649.59 Z" />
</g>
<g id="#1b8e4bff">
<path fill="#1b8e4b" opacity="1.00" d=" M 994.09 653.85 C 996.36 654.21 997.92 652.68 999.13 651.00 C 1001.35 659.82 1003.80 668.58 1005.98 677.41 C 1005.74 680.18 1005.52 682.96 1005.46 685.75 C 995.33 686.62 985.14 685.86 974.99 686.11 C 916.99 686.09 858.99 686.13 800.99 686.10 C 795.07 686.33 788.69 684.74 783.18 687.57 C 780.78 678.47 778.47 669.35 775.98 660.28 C 775.45 657.82 774.78 655.39 774.14 652.97 C 780.02 654.12 786.04 653.90 792.01 653.81 C 859.37 653.82 926.73 653.79 994.09 653.85 Z" />
</g>
<g id="#d53f1dff">
<path fill="#d53f1d" opacity="1.00" d=" M 672.02 657.48 C 672.51 657.72 673.47 658.19 673.96 658.43 C 675.58 663.13 676.39 668.09 678.31 672.70 C 684.50 673.46 690.74 672.83 696.96 672.92 C 714.99 673.06 733.01 672.97 751.04 672.92 C 759.69 672.84 768.35 673.59 776.98 672.72 C 776.40 668.60 774.68 664.45 775.98 660.28 C 778.47 669.35 780.78 678.47 783.18 687.57 C 786.51 700.16 789.80 712.77 793.10 725.37 C 792.47 727.58 792.04 729.85 791.60 732.12 C 760.39 731.84 729.17 731.96 697.96 732.08 C 695.60 732.27 693.65 730.91 691.78 729.72 C 691.67 730.06 691.44 730.74 691.33 731.08 C 689.45 724.20 687.69 717.29 685.85 710.41 C 682.23 696.36 678.56 682.32 674.80 668.31 C 673.97 664.68 672.95 661.09 672.02 657.48 Z" />
</g>
<g id="#1c8e4cff">
<path fill="#1c8e4c" opacity="1.00" d=" M 675.67 679.72 C 674.73 675.99 673.92 672.14 674.80 668.31 C 678.56 682.32 682.23 696.36 685.85 710.41 C 685.77 712.88 685.56 715.35 685.41 717.82 C 679.61 718.38 673.78 717.97 667.97 718.02 C 628.65 718.19 589.34 717.84 550.02 718.09 C 520.80 717.84 491.59 718.31 462.37 718.01 C 459.05 705.30 455.69 692.61 452.39 679.90 C 519.58 679.85 586.78 679.99 653.97 679.91 C 661.20 680.00 668.44 680.34 675.67 679.72 Z" />
</g>
<g id="#128945ff">
<path fill="#128945" opacity="1.00" d=" M 1005.46 685.75 C 1005.52 682.96 1005.74 680.18 1005.98 677.41 C 1006.93 680.97 1007.89 684.54 1008.87 688.11 C 1011.14 697.18 1013.68 706.19 1015.89 715.28 C 1014.31 722.31 1018.67 728.76 1018.93 735.72 C 996.63 736.24 974.32 735.69 952.01 735.93 C 899.98 735.88 847.94 735.83 795.91 736.00 C 794.94 732.46 794.11 728.89 793.10 725.37 C 789.80 712.77 786.51 700.16 783.18 687.57 C 788.69 684.74 795.07 686.33 800.99 686.10 C 858.99 686.13 916.99 686.09 974.99 686.11 C 985.14 685.86 995.33 686.62 1005.46 685.75 Z" />
</g>
<g id="#dd451fff">
<path fill="#dd451f" opacity="1.00" d=" M 1008.87 688.11 C 1012.41 689.80 1012.01 694.55 1013.57 697.68 C 1021.00 698.62 1028.51 697.86 1035.98 697.97 C 1052.51 698.01 1069.03 698.12 1085.56 697.96 C 1080.53 719.25 1075.52 740.54 1070.46 761.82 C 1057.13 761.76 1043.78 762.28 1030.47 761.61 C 1028.95 757.45 1027.93 753.13 1026.46 748.95 C 1026.19 749.49 1025.65 750.58 1025.38 751.12 C 1022.15 739.19 1019.15 727.20 1015.89 715.28 C 1013.68 706.19 1011.14 697.18 1008.87 688.11 Z" />
</g>
<g id="#148a46ff">
<path fill="#148a46" opacity="1.00" d=" M 685.41 717.82 C 685.56 715.35 685.77 712.88 685.85 710.41 C 687.69 717.29 689.45 724.20 691.33 731.08 C 694.15 742.22 697.20 753.29 700.02 764.42 C 699.84 766.40 699.58 768.37 699.34 770.35 C 675.57 769.69 651.78 770.06 628.00 770.09 C 612.69 769.71 597.39 770.24 582.07 770.10 C 554.40 770.14 526.72 769.96 499.04 770.05 C 491.29 769.99 483.49 770.60 475.81 769.32 C 471.37 752.20 466.85 735.11 462.37 718.01 C 491.59 718.31 520.80 717.84 550.02 718.09 C 589.34 717.84 628.65 718.19 667.97 718.02 C 673.78 717.97 679.61 718.38 685.41 717.82 Z" />
</g>
<g id="#0a8540ff">
<path fill="#0a8540" opacity="1.00" d=" M 1018.93 735.72 C 1018.67 728.76 1014.31 722.31 1015.89 715.28 C 1019.15 727.20 1022.15 739.19 1025.38 751.12 C 1026.80 756.76 1028.35 762.38 1029.79 768.03 C 1025.90 768.87 1021.93 769.27 1017.96 769.09 C 946.81 768.93 875.66 769.35 804.52 768.91 C 801.66 757.93 798.77 746.97 795.91 736.00 C 847.94 735.83 899.98 735.88 952.01 735.93 C 974.32 735.69 996.63 736.24 1018.93 735.72 Z" />
</g>
<g id="#d43f1dff">
<path fill="#d43f1d" opacity="1.00" d=" M 195.84 725.95 C 271.00 726.15 346.16 725.81 421.31 726.12 C 414.29 755.71 407.31 785.31 400.30 814.91 C 325.12 815.03 249.94 814.89 174.76 815.07 C 181.79 785.36 188.85 755.66 195.84 725.95 Z" />
</g>
<g id="#dc441fff">
<path fill="#dc441f" opacity="1.00" d=" M 691.78 729.72 C 693.65 730.91 695.60 732.27 697.96 732.08 C 729.17 731.96 760.39 731.84 791.60 732.12 C 787.17 750.42 782.92 768.76 778.56 787.08 C 762.37 787.00 746.18 787.03 729.99 786.96 C 722.79 786.85 715.56 787.54 708.39 786.64 C 707.14 783.98 706.71 780.54 703.91 779.00 C 702.55 774.16 701.32 769.28 700.02 764.42 C 697.20 753.29 694.15 742.22 691.33 731.08 C 691.44 730.74 691.67 730.06 691.78 729.72 Z" />
<path fill="#dc441f" opacity="1.00" d=" M 174.76 815.07 C 249.94 814.89 325.12 815.03 400.30 814.91 C 395.21 836.53 390.02 858.12 385.00 879.76 L 384.90 879.75 C 378.00 878.44 370.97 879.04 364.00 879.01 C 295.88 879.00 227.76 878.99 159.65 879.02 C 164.68 857.70 169.73 836.39 174.76 815.07 Z" />
</g>
<g id="#e74b21ff">
<path fill="#e74b21" opacity="1.00" d=" M 1026.46 748.95 C 1027.93 753.13 1028.95 757.45 1030.47 761.61 C 1043.78 762.28 1057.13 761.76 1070.46 761.82 C 1063.73 790.12 1057.13 818.44 1050.37 846.74 C 1043.58 820.48 1036.63 794.27 1029.79 768.03 C 1028.35 762.38 1026.80 756.76 1025.38 751.12 C 1025.65 750.58 1026.19 749.49 1026.46 748.95 Z" />
</g>
<g id="#0b8540ff">
<path fill="#0b8540" opacity="1.00" d=" M 699.34 770.35 C 699.58 768.37 699.84 766.40 700.02 764.42 C 701.32 769.28 702.55 774.16 703.91 779.00 C 707.01 791.09 710.19 803.15 713.38 815.21 C 714.77 820.72 716.28 826.20 717.69 831.71 C 710.13 832.21 702.55 832.18 694.98 831.98 C 652.33 832.18 609.67 832.06 567.01 832.05 C 542.12 832.27 517.22 831.78 492.33 832.25 C 486.82 811.27 481.32 790.29 475.81 769.32 C 483.49 770.60 491.29 769.99 499.04 770.05 C 526.72 769.96 554.40 770.14 582.07 770.10 C 597.39 770.24 612.69 769.71 628.00 770.09 C 651.78 770.06 675.57 769.69 699.34 770.35 Z" />
</g>
<g id="#02813bff">
<path fill="#02813b" opacity="1.00" d=" M 1017.96 769.09 C 1021.93 769.27 1025.90 768.87 1029.79 768.03 C 1036.63 794.27 1043.58 820.48 1050.37 846.74 C 975.22 846.69 900.07 846.74 824.92 846.71 C 818.14 820.77 811.30 794.85 804.52 768.91 C 875.66 769.35 946.81 768.93 1017.96 769.09 Z" />
<path fill="#02813b" opacity="1.00" d=" M 492.33 832.25 C 517.22 831.78 542.12 832.27 567.01 832.05 C 609.67 832.06 652.33 832.18 694.98 831.98 C 702.55 832.18 710.13 832.21 717.69 831.71 C 726.53 865.33 735.28 898.97 744.14 932.59 C 668.97 932.66 593.80 932.61 518.63 932.61 C 509.88 899.16 501.06 865.72 492.33 832.25 Z" />
</g>
<g id="#e34820ff">
<path fill="#e34820" opacity="1.00" d=" M 703.91 779.00 C 706.71 780.54 707.14 783.98 708.39 786.64 C 715.56 787.54 722.79 786.85 729.99 786.96 C 746.18 787.03 762.37 787.00 778.56 787.08 C 774.15 805.71 769.76 824.35 765.34 842.98 C 757.56 842.96 749.79 843.06 742.02 842.95 C 735.53 842.85 729.02 843.44 722.57 842.66 C 719.59 832.83 717.30 822.81 714.38 812.97 C 714.13 813.53 713.63 814.65 713.38 815.21 C 710.19 803.15 707.01 791.09 703.91 779.00 Z" />
</g>
<g id="#e94c22ff">
<path fill="#e94c22" opacity="1.00" d=" M 714.38 812.97 C 717.30 822.81 719.59 832.83 722.57 842.66 C 729.02 843.44 735.53 842.85 742.02 842.95 C 749.79 843.06 757.56 842.96 765.34 842.98 C 758.25 872.84 751.23 902.73 744.14 932.59 C 735.28 898.97 726.53 865.33 717.69 831.71 C 716.28 826.20 714.77 820.72 713.38 815.21 C 713.63 814.65 714.13 813.53 714.38 812.97 Z" />
</g>
<g id="#e14720ff">
<path fill="#e14720" opacity="1.00" d=" M 159.65 879.02 C 227.76 878.99 295.88 879.00 364.00 879.01 C 370.97 879.04 378.00 878.44 384.90 879.75 C 380.99 896.94 376.76 914.07 372.82 931.26 L 372.71 931.26 C 355.49 930.63 338.26 931.25 321.04 930.97 C 263.15 931.08 205.25 930.99 147.36 930.96 C 151.43 913.64 155.55 896.33 159.65 879.02 Z" />
</g>
<g id="#e64a21ff">
<path fill="#e64a21" opacity="1.00" d=" M 147.36 930.96 C 205.25 930.99 263.15 931.08 321.04 930.97 C 338.26 931.25 355.49 930.63 372.71 931.26 C 368.08 951.53 363.14 971.73 358.42 991.99 C 283.25 992.02 208.08 991.98 132.91 992.05 C 137.74 971.69 142.53 951.32 147.36 930.96 Z" />
</g>
<g id="#ec4e22ff">
<path fill="#ec4e22" opacity="1.00" d=" M 132.91 992.05 C 208.08 991.98 283.25 992.02 358.42 991.99 C 350.80 1024.20 343.17 1056.40 335.57 1088.61 C 260.36 1088.59 185.16 1088.71 109.95 1088.55 C 117.84 1056.44 125.21 1024.21 132.91 992.05 Z" />
</g>
</svg>
