<?xml version="1.0" encoding="UTF-8" ?>
<!DOCTYPE svg PUBLIC "-//W3C//DTD SVG 1.1//EN" "http://www.w3.org/Graphics/SVG/1.1/DTD/svg11.dtd">
<svg width="1276pt" height="1276pt" viewBox="0 0 1276 1276" version="1.1" xmlns="http://www.w3.org/2000/svg">
<g id="#ffffffff">
<path fill="#ffffff" opacity="1.00" d=" M 784.34 169.78 C 787.08 169.64 789.80 169.42 792.55 169.31 L 792.44 168.63 C 801.31 168.55 810.36 167.58 819.13 169.11 C 821.26 169.41 823.40 169.57 825.56 169.70 L 825.39 170.40 C 826.81 170.46 828.23 170.53 829.66 170.61 L 829.37 171.34 C 830.71 171.44 832.06 171.54 833.41 171.65 L 833.42 172.22 C 834.57 172.49 835.70 172.82 836.84 173.19 C 838.39 173.72 839.93 174.31 841.50 174.81 L 841.55 175.62 C 842.04 175.54 843.02 175.39 843.51 175.31 L 843.54 176.14 C 844.90 176.61 846.25 177.15 847.63 177.65 L 847.58 178.57 C 848.04 178.49 848.96 178.33 849.42 178.25 L 849.55 179.04 C 854.41 181.56 858.89 184.80 862.94 188.47 L 863.63 188.28 L 863.56 189.07 C 864.35 189.68 865.15 190.30 865.94 190.94 C 866.90 192.00 867.90 193.04 868.90 194.08 C 870.75 196.27 872.59 198.49 874.35 200.78 C 875.11 201.93 875.92 203.06 876.71 204.21 C 877.50 205.55 878.26 206.91 878.98 208.29 L 879.26 208.36 C 879.96 209.84 880.70 211.31 881.47 212.77 L 881.56 213.23 C 882.20 214.49 882.82 215.77 883.48 217.03 C 883.49 217.26 883.51 217.73 883.52 217.96 C 883.99 219.00 884.46 220.04 884.94 221.10 C 885.25 222.25 885.54 223.42 885.80 224.60 L 886.32 224.50 C 886.43 225.83 886.54 227.17 886.67 228.51 L 887.38 228.43 C 887.44 229.81 887.51 231.19 887.60 232.57 L 888.26 232.51 C 888.30 233.83 888.41 235.17 888.50 236.50 C 888.65 242.62 889.91 248.75 888.96 254.88 C 888.93 257.40 887.68 260.41 889.60 262.52 L 890.14 263.30 L 890.46 263.50 L 891.17 263.44 C 891.72 263.79 892.83 264.50 893.38 264.85 L 893.50 265.24 C 894.48 265.75 895.46 266.25 896.46 266.76 L 896.51 267.19 C 897.38 267.69 898.26 268.20 899.14 268.71 C 900.36 269.59 901.59 270.46 902.83 271.33 C 905.19 272.92 907.51 274.60 909.85 276.24 C 915.25 280.13 920.57 284.12 925.81 288.23 C 927.35 289.43 928.85 290.68 930.43 291.86 L 930.64 292.10 C 932.20 293.30 933.69 294.59 935.16 295.92 C 935.52 296.11 936.24 296.50 936.59 296.70 L 936.63 297.02 C 938.45 298.46 940.16 300.03 941.85 301.63 L 942.18 301.38 C 942.47 301.71 943.06 302.37 943.36 302.70 C 945.57 304.57 947.68 306.56 949.75 308.60 L 950.60 308.55 L 950.45 309.75 L 951.64 309.34 L 951.31 310.53 C 951.63 310.49 952.28 310.40 952.60 310.36 L 952.40 311.51 L 953.24 311.39 C 961.62 319.49 969.92 327.67 977.99 336.08 C 978.86 336.98 979.73 337.88 980.64 338.79 L 980.51 339.65 L 981.76 339.39 L 981.41 340.13 C 981.75 340.49 982.45 341.21 982.79 341.57 L 983.47 341.40 L 983.40 342.25 C 985.43 344.32 987.42 346.43 989.30 348.65 C 989.63 348.94 990.29 349.53 990.63 349.83 L 990.36 350.14 C 991.96 351.82 993.53 353.54 994.97 355.37 L 995.30 355.40 C 995.49 355.76 995.88 356.47 996.08 356.83 C 997.40 358.30 998.69 359.79 999.90 361.37 L 1000.14 361.58 C 1001.30 363.14 1002.56 364.64 1003.77 366.19 C 1007.89 371.43 1011.87 376.77 1015.78 382.18 C 1016.86 383.73 1017.96 385.27 1019.06 386.83 C 1019.59 387.59 1020.12 388.37 1020.66 389.15 C 1021.52 390.38 1022.39 391.62 1023.28 392.84 C 1023.78 393.72 1024.29 394.59 1024.81 395.48 L 1025.16 395.55 C 1025.80 396.68 1026.47 397.79 1027.16 398.91 C 1027.52 399.37 1028.23 400.30 1028.58 400.76 L 1028.45 401.56 L 1029.60 401.60 C 1029.57 402.03 1029.50 402.90 1029.46 403.33 L 1030.63 403.39 L 1030.40 404.57 L 1031.56 404.63 C 1031.53 405.06 1031.46 405.90 1031.42 406.32 L 1032.13 406.47 C 1032.86 407.68 1033.65 408.86 1034.50 410.03 C 1034.50 410.35 1034.51 411.00 1034.51 411.33 L 1035.62 411.40 L 1035.40 412.54 L 1036.15 412.66 C 1036.70 413.86 1037.29 415.06 1037.87 416.28 L 1038.61 416.43 L 1038.43 417.53 L 1039.10 417.69 C 1039.64 418.79 1040.21 419.88 1040.80 421.00 C 1041.59 422.30 1042.38 423.63 1043.19 424.95 C 1043.72 425.97 1044.28 426.99 1044.85 428.03 C 1045.12 428.51 1045.66 429.49 1045.93 429.98 C 1047.58 433.00 1049.21 436.02 1050.79 439.09 C 1051.04 439.58 1051.56 440.57 1051.81 441.07 C 1052.07 441.56 1052.57 442.56 1052.82 443.06 C 1056.30 449.99 1059.66 456.99 1062.77 464.11 C 1063.93 466.71 1065.08 469.32 1066.22 471.94 C 1067.04 473.99 1067.91 476.03 1068.74 478.09 C 1069.42 479.74 1070.08 481.40 1070.70 483.10 C 1071.25 484.39 1071.80 485.69 1072.41 486.98 C 1072.44 487.24 1072.51 487.77 1072.54 488.04 C 1073.09 489.30 1073.62 490.58 1074.17 491.86 C 1074.48 492.85 1074.83 493.85 1075.20 494.84 C 1075.70 496.28 1076.24 497.71 1076.76 499.16 C 1077.13 500.27 1077.47 501.40 1077.80 502.55 L 1078.36 502.52 C 1078.41 503.29 1078.52 504.81 1078.58 505.58 L 1079.36 505.45 C 1079.41 506.23 1079.53 507.80 1079.58 508.58 L 1080.36 508.46 C 1080.41 509.24 1080.51 510.80 1080.56 511.58 L 1081.12 511.54 C 1081.83 514.92 1083.17 518.14 1083.87 521.53 L 1084.14 521.46 C 1084.42 522.65 1084.76 523.84 1085.16 525.02 C 1085.37 526.17 1085.57 527.33 1085.77 528.50 L 1086.18 528.48 C 1086.62 531.01 1087.35 533.49 1088.13 535.95 C 1088.35 537.00 1088.57 538.06 1088.80 539.13 C 1089.18 540.43 1089.52 541.77 1089.86 543.10 C 1090.20 544.45 1090.51 545.82 1090.83 547.19 C 1091.23 548.79 1091.56 550.42 1091.91 552.04 C 1092.62 555.09 1093.36 558.15 1093.80 561.26 L 1094.16 561.83 C 1102.82 606.89 1105.37 653.19 1100.73 698.88 C 1099.73 710.39 1097.86 721.80 1096.20 733.23 L 1095.85 733.79 C 1095.49 737.28 1094.57 740.68 1094.16 744.18 L 1093.80 744.74 C 1093.36 747.84 1092.62 750.90 1091.91 753.96 C 1091.56 755.57 1091.23 757.19 1090.83 758.81 C 1090.51 760.17 1090.20 761.53 1089.86 762.90 C 1089.52 764.22 1089.18 765.54 1088.80 766.87 C 1088.57 767.92 1088.35 768.98 1088.13 770.05 C 1087.35 772.50 1086.62 774.98 1086.18 777.52 L 1085.77 777.50 C 1085.57 778.65 1085.37 779.81 1085.16 780.98 C 1084.76 782.14 1084.42 783.33 1084.14 784.54 L 1083.88 784.49 C 1083.56 785.67 1083.22 786.85 1082.83 788.02 C 1082.59 789.14 1082.37 790.28 1082.19 791.43 L 1081.55 791.44 C 1081.50 792.21 1081.39 793.75 1081.34 794.52 L 1080.55 794.43 C 1080.51 795.20 1080.42 796.75 1080.38 797.53 L 1079.58 797.41 C 1079.53 798.20 1079.41 799.76 1079.36 800.54 L 1078.57 800.43 C 1078.52 801.19 1078.41 802.71 1078.36 803.47 L 1077.81 803.46 C 1077.47 804.58 1077.12 805.71 1076.76 806.84 C 1076.24 808.27 1075.71 809.71 1075.24 811.18 C 1074.73 812.38 1074.27 813.61 1073.79 814.84 C 1073.29 816.28 1072.74 817.71 1072.26 819.16 C 1071.72 820.40 1071.22 821.66 1070.71 822.92 C 1070.08 824.59 1069.41 826.25 1068.74 827.91 C 1063.93 839.80 1058.58 851.47 1052.83 862.93 C 1052.14 864.25 1051.46 865.58 1050.78 866.92 C 1050.08 868.24 1049.39 869.58 1048.71 870.91 C 1047.78 872.61 1046.85 874.31 1045.93 876.02 C 1045.66 876.51 1045.12 877.49 1044.85 877.98 C 1044.28 878.99 1043.72 880.01 1043.18 881.05 C 1042.38 882.36 1041.59 883.68 1040.80 885.00 C 1040.20 886.09 1039.64 887.19 1039.10 888.31 L 1038.42 888.47 L 1038.60 889.58 L 1037.87 889.73 C 1037.30 890.93 1036.70 892.12 1036.15 893.34 L 1035.40 893.45 L 1035.62 894.59 L 1034.52 894.67 C 1034.51 894.99 1034.50 895.65 1034.49 895.98 C 1033.65 897.13 1032.86 898.31 1032.13 899.54 L 1031.42 899.68 C 1031.45 900.11 1031.53 900.95 1031.56 901.37 L 1030.40 901.43 L 1030.63 902.60 L 1029.46 902.67 C 1029.50 903.11 1029.56 903.97 1029.60 904.41 L 1028.45 904.45 L 1028.53 905.17 C 1028.19 905.72 1027.51 906.82 1027.17 907.36 L 1026.76 907.51 C 1026.24 908.49 1025.73 909.47 1025.23 910.46 L 1024.81 910.52 C 1024.29 911.39 1023.79 912.26 1023.29 913.15 C 1022.39 914.36 1021.52 915.59 1020.67 916.84 C 1016.40 923.11 1011.87 929.20 1007.31 935.28 C 1006.12 936.78 1004.92 938.27 1003.78 939.80 C 1002.57 941.34 1001.31 942.84 1000.14 944.42 L 999.90 944.63 C 998.69 946.19 997.40 947.69 996.09 949.16 C 995.89 949.52 995.50 950.24 995.30 950.60 L 994.98 950.62 C 993.54 952.45 991.96 954.16 990.37 955.85 L 990.63 956.16 C 990.30 956.46 989.63 957.06 989.30 957.36 C 987.41 959.56 985.43 961.68 983.39 963.76 L 983.46 964.60 L 982.25 964.42 L 982.58 965.12 C 982.24 965.49 981.54 966.23 981.20 966.59 L 980.47 966.36 L 980.63 967.21 C 979.73 968.09 978.87 969.00 978.00 969.91 C 969.91 978.32 961.61 986.53 953.21 994.63 L 952.37 994.49 L 952.59 995.20 C 952.22 995.54 951.49 996.23 951.12 996.58 L 950.43 996.27 L 950.56 997.47 L 949.77 997.40 C 947.69 999.43 945.57 1001.41 943.36 1003.30 C 943.06 1003.63 942.46 1004.30 942.17 1004.63 L 941.85 1004.37 C 940.16 1005.97 938.44 1007.54 936.62 1008.98 L 936.60 1009.30 C 936.24 1009.50 935.52 1009.89 935.16 1010.08 C 933.69 1011.39 932.20 1012.69 930.65 1013.90 L 930.42 1014.15 C 927.37 1016.52 924.32 1018.91 921.28 1021.31 C 917.47 1024.15 913.68 1027.00 909.82 1029.78 C 907.49 1031.41 905.18 1033.08 902.83 1034.69 C 902.00 1035.24 901.18 1035.81 900.37 1036.39 C 900.07 1036.62 899.46 1037.07 899.16 1037.30 C 898.26 1037.80 897.37 1038.30 896.49 1038.81 L 896.46 1039.15 C 895.32 1039.80 894.19 1040.46 893.09 1041.15 C 892.63 1041.51 891.70 1042.23 891.24 1042.59 L 890.48 1042.44 L 890.38 1043.12 C 889.81 1043.47 888.69 1044.16 888.13 1044.51 L 887.41 1044.42 L 887.40 1045.53 C 887.05 1045.52 886.36 1045.51 886.02 1045.50 C 884.69 1046.50 883.35 1047.50 882.05 1048.54 C 881.70 1048.53 881.00 1048.51 880.65 1048.51 L 880.59 1049.64 L 879.44 1049.40 L 879.34 1050.15 C 878.12 1050.70 876.92 1051.30 875.71 1051.87 L 875.58 1052.57 L 874.79 1052.55 C 873.54 1053.33 872.27 1054.09 871.02 1054.86 C 869.68 1055.61 868.35 1056.38 867.04 1057.17 C 866.01 1057.71 864.99 1058.28 863.99 1058.86 C 863.49 1059.13 862.51 1059.66 862.02 1059.93 C 858.35 1061.94 854.66 1063.92 850.92 1065.80 C 849.95 1066.28 848.99 1066.78 848.04 1067.29 C 846.71 1067.92 845.39 1068.57 844.09 1069.24 C 839.09 1071.63 834.09 1074.02 829.04 1076.31 C 826.02 1077.55 823.06 1078.92 820.06 1080.22 C 818.00 1081.04 815.97 1081.91 813.92 1082.73 C 812.25 1083.41 810.58 1084.08 808.90 1084.70 C 807.59 1085.25 806.29 1085.81 805.01 1086.42 C 804.76 1086.45 804.25 1086.52 803.99 1086.56 C 802.94 1086.99 801.89 1087.41 800.85 1087.83 C 799.61 1088.28 798.38 1088.73 797.17 1089.23 C 795.71 1089.70 794.28 1090.24 792.84 1090.76 C 791.71 1091.12 790.59 1091.47 789.46 1091.80 L 789.48 1092.36 C 788.72 1092.41 787.20 1092.52 786.44 1092.57 L 786.53 1093.36 C 785.75 1093.42 784.20 1093.52 783.42 1093.58 L 783.52 1094.37 C 782.75 1094.41 781.21 1094.51 780.44 1094.56 L 780.49 1095.16 C 779.33 1095.38 778.18 1095.65 777.04 1095.95 C 774.90 1096.73 772.71 1097.40 770.48 1097.85 L 770.54 1098.14 C 769.33 1098.42 768.15 1098.76 766.98 1099.16 C 765.81 1099.37 764.65 1099.58 763.49 1099.78 L 763.53 1100.18 C 760.98 1100.62 758.50 1101.35 756.04 1102.13 C 754.98 1102.34 753.92 1102.57 752.87 1102.80 C 751.55 1103.18 750.22 1103.52 748.90 1103.86 C 747.53 1104.20 746.17 1104.51 744.81 1104.82 C 743.20 1105.23 741.58 1105.56 739.96 1105.92 C 738.57 1106.24 737.19 1106.54 735.81 1106.85 C 734.13 1107.24 732.44 1107.54 730.74 1107.80 L 730.17 1108.16 C 685.10 1116.82 638.79 1119.37 593.10 1114.73 C 577.90 1113.37 562.84 1110.82 547.82 1108.16 L 547.26 1107.80 C 545.56 1107.53 543.86 1107.24 542.19 1106.85 C 540.80 1106.54 539.40 1106.24 538.04 1105.92 C 536.41 1105.56 534.79 1105.23 533.19 1104.82 C 531.82 1104.51 530.45 1104.20 529.11 1103.86 C 527.77 1103.52 526.43 1103.18 525.13 1102.80 C 524.06 1102.57 523.01 1102.34 521.95 1102.13 C 519.49 1101.34 517.01 1100.62 514.48 1100.18 L 514.51 1099.78 C 513.34 1099.58 512.18 1099.37 511.02 1099.15 C 509.84 1098.76 508.65 1098.42 507.46 1098.14 L 507.53 1097.86 C 505.28 1097.41 503.10 1096.73 500.96 1095.95 C 499.81 1095.65 498.66 1095.39 497.51 1095.16 L 497.56 1094.56 C 496.79 1094.51 495.25 1094.41 494.48 1094.36 L 494.57 1093.57 C 493.80 1093.52 492.25 1093.42 491.48 1093.37 L 491.57 1092.58 C 490.80 1092.52 489.28 1092.41 488.52 1092.35 L 488.54 1091.80 C 487.40 1091.47 486.27 1091.12 485.15 1090.75 C 483.70 1090.25 482.27 1089.70 480.83 1089.23 C 479.60 1088.73 478.37 1088.28 477.15 1087.83 C 476.09 1087.41 475.04 1086.99 474.00 1086.56 C 473.75 1086.52 473.24 1086.45 472.98 1086.42 C 471.69 1085.81 470.39 1085.25 469.10 1084.70 C 467.41 1084.08 465.74 1083.42 464.09 1082.74 C 462.44 1082.08 460.81 1081.40 459.19 1080.71 C 456.13 1079.45 453.12 1078.11 450.10 1076.77 C 443.27 1073.80 436.57 1070.53 429.89 1067.25 C 429.40 1066.99 428.41 1066.48 427.92 1066.22 C 427.42 1065.97 426.42 1065.46 425.93 1065.21 C 425.43 1064.96 424.44 1064.45 423.94 1064.19 C 420.61 1062.42 417.28 1060.67 413.99 1058.84 C 412.98 1058.27 411.97 1057.71 410.96 1057.17 C 409.64 1056.38 408.30 1055.62 406.98 1054.86 C 405.71 1054.09 404.45 1053.33 403.21 1052.55 L 402.44 1052.60 L 402.32 1051.86 C 401.08 1051.29 399.87 1050.71 398.65 1050.16 L 398.55 1049.39 L 397.40 1049.64 L 397.35 1048.53 C 397.02 1048.52 396.35 1048.50 396.01 1048.48 C 394.85 1047.64 393.68 1046.85 392.47 1046.12 L 392.32 1045.41 C 391.90 1045.45 391.05 1045.54 390.62 1045.58 L 390.58 1044.40 L 389.41 1044.64 L 389.33 1043.48 C 388.89 1043.50 388.03 1043.56 387.59 1043.59 L 387.56 1042.44 L 386.77 1042.59 C 386.30 1042.23 385.38 1041.51 384.91 1041.16 C 383.79 1040.46 382.67 1039.80 381.55 1039.15 L 381.49 1038.80 C 380.58 1038.28 379.69 1037.77 378.80 1037.27 C 378.51 1037.05 377.92 1036.61 377.63 1036.39 C 376.81 1035.80 375.99 1035.24 375.17 1034.69 C 372.81 1033.07 370.50 1031.40 368.16 1029.77 C 364.31 1026.99 360.52 1024.15 356.73 1021.31 C 355.42 1020.28 354.13 1019.24 352.81 1018.25 C 351.04 1016.90 349.35 1015.46 347.58 1014.14 L 347.36 1013.90 C 345.79 1012.69 344.29 1011.39 342.83 1010.07 C 342.47 1009.88 341.76 1009.49 341.40 1009.29 L 341.37 1008.97 C 339.54 1007.53 337.82 1005.96 336.14 1004.37 L 335.86 1004.60 C 335.51 1004.25 334.81 1003.57 334.46 1003.23 L 334.34 1002.98 C 332.20 1001.23 330.21 999.33 328.26 997.40 L 327.39 997.46 L 327.58 996.79 C 327.22 996.45 326.49 995.76 326.13 995.41 L 325.41 995.75 L 325.63 994.51 L 324.78 994.63 C 323.88 993.73 322.99 992.87 322.09 992.00 C 313.67 983.91 305.46 975.61 297.36 967.20 L 297.50 966.35 L 296.25 966.61 L 296.59 965.87 C 296.25 965.51 295.57 964.79 295.22 964.43 L 294.56 964.63 L 294.60 963.75 C 292.56 961.67 290.57 959.56 288.70 957.35 C 288.36 957.05 287.70 956.46 287.37 956.17 L 287.65 955.85 C 286.10 954.20 284.59 952.54 283.03 950.91 C 282.85 950.53 282.48 949.77 282.29 949.39 L 281.94 949.42 C 280.73 947.85 279.44 946.35 278.22 944.80 C 276.75 942.92 275.21 941.10 273.76 939.21 C 268.06 931.91 262.57 924.46 257.33 916.84 C 256.46 915.59 255.59 914.37 254.72 913.16 C 254.20 912.27 253.69 911.39 253.19 910.52 L 252.85 910.46 C 252.19 909.32 251.51 908.19 250.84 907.09 C 250.48 906.62 249.77 905.69 249.41 905.23 L 249.55 904.44 L 248.41 904.41 C 248.44 903.97 248.50 903.10 248.53 902.67 L 247.36 902.59 L 247.60 901.42 L 246.48 901.38 C 246.49 901.04 246.49 900.36 246.49 900.02 C 245.48 898.69 244.49 897.35 243.47 896.05 C 243.47 895.70 243.48 895.00 243.48 894.65 L 242.36 894.58 L 242.60 893.44 L 241.85 893.35 C 241.29 892.13 240.69 890.93 240.13 889.73 L 239.40 889.58 L 239.58 888.47 L 238.87 888.33 C 238.31 887.11 237.72 885.92 237.17 884.73 L 236.79 884.57 C 236.16 883.37 235.53 882.21 234.88 881.05 C 233.79 879.17 232.74 877.27 231.69 875.38 C 230.90 873.86 230.10 872.37 229.30 870.88 C 228.45 869.27 227.62 867.66 226.77 866.07 C 226.52 865.58 226.02 864.60 225.77 864.11 C 222.25 857.18 218.93 850.15 215.71 843.08 C 214.44 840.05 213.08 837.07 211.78 834.07 C 210.95 832.00 210.08 829.96 209.27 827.91 C 208.57 826.25 207.90 824.59 207.28 822.92 C 206.76 821.64 206.26 820.37 205.74 819.11 C 205.15 817.43 204.51 815.77 203.88 814.12 C 203.52 813.12 203.15 812.13 202.78 811.15 C 202.29 809.71 201.76 808.30 201.26 806.89 C 200.87 805.74 200.52 804.60 200.19 803.45 L 199.64 803.48 C 199.59 802.72 199.48 801.20 199.42 800.44 L 198.63 800.52 C 198.58 799.74 198.48 798.20 198.43 797.42 L 197.64 797.54 C 197.59 796.76 197.49 795.20 197.44 794.42 L 196.84 794.49 C 196.60 793.33 196.34 792.18 196.05 791.05 C 195.26 788.89 194.58 786.70 194.14 784.46 L 193.86 784.54 C 193.56 783.33 193.22 782.14 192.84 780.98 C 192.62 779.81 192.41 778.65 192.23 777.50 L 191.82 777.52 C 191.37 774.98 190.64 772.50 189.86 770.05 C 189.64 768.98 189.42 767.92 189.20 766.87 C 188.80 765.55 188.47 764.22 188.14 762.90 C 187.78 761.53 187.47 760.16 187.17 758.80 C 186.75 757.19 186.43 755.57 186.09 753.96 C 185.38 750.90 184.64 747.85 184.20 744.74 L 183.84 744.17 C 175.18 699.11 172.62 652.80 177.27 607.11 C 178.62 591.91 181.18 576.85 183.84 561.83 L 184.20 561.25 C 184.64 558.14 185.38 555.09 186.09 552.04 C 186.43 550.41 186.75 548.78 187.18 547.18 C 187.47 545.81 187.78 544.45 188.14 543.11 C 188.47 541.77 188.80 540.43 189.20 539.13 C 189.42 538.06 189.64 537.00 189.87 535.95 C 190.64 533.49 191.37 531.01 191.82 528.48 L 192.23 528.51 C 192.41 527.33 192.62 526.17 192.84 525.02 C 193.22 523.84 193.57 522.65 193.86 521.46 L 194.14 521.52 C 194.58 519.28 195.26 517.09 196.05 514.96 C 196.33 513.81 196.60 512.66 196.84 511.51 L 197.44 511.58 C 197.49 510.80 197.59 509.24 197.64 508.45 L 198.43 508.57 C 198.48 507.80 198.58 506.25 198.63 505.47 L 199.42 505.57 C 199.48 504.81 199.59 503.29 199.65 502.52 L 200.20 502.54 C 200.51 501.40 200.86 500.27 201.24 499.16 C 201.74 497.71 202.28 496.29 202.78 494.85 C 203.15 493.85 203.52 492.86 203.88 491.88 C 204.52 490.21 205.15 488.55 205.74 486.89 C 206.26 485.61 206.76 484.34 207.28 483.08 C 207.90 481.40 208.57 479.74 209.26 478.10 C 210.08 476.03 210.95 473.98 211.79 471.93 C 213.09 468.91 214.45 465.92 215.72 462.89 C 217.52 458.92 219.38 454.98 221.25 451.04 C 222.38 448.67 223.56 446.32 224.71 443.97 C 225.20 443.00 225.70 442.03 226.20 441.07 C 226.45 440.57 226.96 439.58 227.21 439.08 C 228.67 436.24 230.20 433.45 231.69 430.63 C 232.18 429.76 232.67 428.89 233.16 428.03 C 233.71 427.00 234.27 425.98 234.83 424.96 C 235.61 423.63 236.37 422.30 237.13 420.96 C 237.77 419.95 238.42 418.94 239.10 417.96 C 239.37 416.99 239.61 416.02 239.84 415.06 C 237.30 412.57 234.89 409.95 232.69 407.15 C 231.74 405.85 230.77 404.58 229.82 403.29 C 229.09 402.25 228.36 401.23 227.61 400.21 L 227.47 399.75 C 226.63 398.46 225.82 397.15 225.04 395.84 C 224.96 395.76 224.80 395.60 224.72 395.52 C 224.11 394.33 223.49 393.16 222.87 391.99 C 222.61 391.50 222.09 390.54 221.83 390.05 C 221.34 388.98 220.84 387.92 220.36 386.86 C 219.80 385.62 219.27 384.39 218.72 383.16 C 218.24 381.71 217.71 380.28 217.24 378.83 C 216.78 377.55 216.36 376.27 215.90 375.00 C 215.19 372.04 214.53 369.06 213.80 366.11 C 211.70 353.08 212.70 339.59 217.14 327.13 C 218.03 324.92 218.94 322.73 219.72 320.48 L 220.09 320.38 C 220.70 318.89 221.40 317.43 222.20 316.02 C 222.77 314.89 223.34 313.76 223.88 312.62 L 224.40 312.64 C 224.87 311.63 225.33 310.62 225.80 309.61 L 226.26 309.58 C 226.49 309.22 226.96 308.49 227.20 308.13 C 227.71 307.35 228.23 306.57 228.75 305.80 C 228.98 305.51 229.44 304.94 229.67 304.65 C 231.48 302.48 233.42 300.41 235.36 298.35 C 236.56 297.20 237.74 296.03 238.91 294.85 C 240.39 293.57 241.85 292.27 243.38 291.04 L 243.48 290.81 C 245.21 289.63 246.88 288.37 248.61 287.20 L 248.73 286.43 C 249.15 286.48 249.98 286.57 250.40 286.62 L 250.50 285.88 C 251.71 285.11 252.88 284.28 254.04 283.44 C 254.37 283.47 255.02 283.53 255.35 283.56 L 255.40 282.71 C 256.47 282.24 257.54 281.77 258.62 281.31 L 258.61 280.44 C 259.07 280.51 259.97 280.65 260.42 280.72 L 260.59 279.89 C 262.19 279.31 263.75 278.65 265.36 278.10 L 265.47 277.72 C 268.70 276.55 271.90 275.28 275.16 274.21 C 276.74 273.69 278.33 273.23 279.90 272.67 C 281.31 272.48 282.74 272.32 284.17 272.18 C 283.35 272.03 282.54 271.89 281.72 271.75 C 283.68 271.62 285.63 271.44 287.59 271.29 L 287.39 270.65 C 289.13 270.56 290.85 270.43 292.60 270.33 L 292.49 269.72 C 296.01 269.61 299.54 269.37 303.01 268.77 C 309.24 268.35 315.49 268.59 321.73 268.73 L 321.40 269.28 C 324.80 269.22 328.19 269.65 331.59 269.73 L 331.34 270.30 C 338.70 270.84 345.90 272.98 352.87 275.32 C 353.52 275.42 354.83 275.61 355.48 275.71 L 355.47 276.28 C 358.00 277.00 360.38 278.20 362.96 278.75 C 365.10 279.24 366.55 277.22 368.18 276.24 C 370.49 274.58 372.82 272.94 375.14 271.29 C 376.24 270.56 377.34 269.85 378.46 269.16 L 378.57 268.76 C 379.54 268.25 380.52 267.74 381.50 267.23 L 381.55 266.76 C 382.53 266.25 383.52 265.74 384.51 265.24 L 384.62 264.84 C 385.17 264.50 386.27 263.81 386.82 263.47 L 387.55 263.55 L 387.58 262.43 C 388.02 262.45 388.90 262.49 389.34 262.51 L 389.42 261.35 L 390.58 261.60 L 390.62 260.47 C 390.96 260.47 391.64 260.49 391.99 260.50 C 393.30 259.48 394.64 258.48 395.95 257.46 C 396.30 257.47 397.00 257.49 397.35 257.50 L 397.41 256.36 L 398.56 256.60 L 398.65 255.85 C 399.87 255.28 401.07 254.69 402.29 254.13 L 402.43 253.38 L 403.54 253.57 L 403.70 252.90 C 404.80 252.35 405.89 251.77 406.99 251.20 C 408.30 250.40 409.63 249.61 410.95 248.82 C 411.97 248.26 412.99 247.70 414.02 247.15 C 414.51 246.88 415.49 246.34 415.98 246.06 C 419.27 244.26 422.59 242.51 425.93 240.78 C 426.42 240.53 427.40 240.02 427.89 239.77 C 430.93 238.24 433.96 236.70 437.04 235.26 C 440.98 233.38 444.93 231.52 448.91 229.72 C 452.34 228.28 455.70 226.69 459.16 225.32 C 460.41 224.76 461.68 224.24 462.94 223.69 C 464.99 222.89 467.02 222.05 469.09 221.31 C 470.39 220.73 471.69 220.17 472.99 219.58 C 473.24 219.55 473.75 219.48 474.00 219.45 C 475.04 219.00 476.09 218.57 477.15 218.17 C 478.37 217.70 479.60 217.25 480.83 216.77 C 482.28 216.28 483.71 215.74 485.16 215.24 C 486.27 214.86 487.40 214.51 488.54 214.20 L 488.52 213.65 C 489.28 213.59 490.81 213.48 491.57 213.43 L 491.47 212.63 C 492.24 212.58 493.79 212.48 494.57 212.42 L 494.48 211.63 C 495.25 211.59 496.79 211.49 497.56 211.44 L 497.53 210.91 C 498.70 210.60 499.87 210.25 501.02 209.86 C 502.15 209.61 503.28 209.39 504.43 209.19 L 504.46 208.55 C 505.23 208.51 506.77 208.42 507.54 208.37 L 507.45 207.86 C 508.65 207.57 509.84 207.23 511.02 206.84 C 512.17 206.62 513.33 206.41 514.50 206.22 L 514.48 205.82 C 517.01 205.37 519.50 204.64 521.96 203.87 C 523.01 203.64 524.07 203.42 525.13 203.20 C 526.44 202.80 527.77 202.47 529.11 202.14 C 530.45 201.78 531.81 201.48 533.18 201.18 C 534.78 200.76 536.41 200.43 538.04 200.08 C 539.41 199.73 540.80 199.45 542.20 199.15 C 543.86 198.74 545.56 198.45 547.27 198.20 L 547.82 197.84 C 606.85 186.39 668.07 185.90 727.13 197.40 C 729.35 198.08 730.85 196.04 732.56 195.06 L 732.28 194.37 L 733.48 194.60 L 733.66 193.48 L 734.13 193.49 C 734.71 193.15 735.87 192.45 736.44 192.11 L 736.47 191.18 L 737.66 191.81 L 737.44 190.41 C 737.96 190.45 739.00 190.51 739.52 190.55 L 739.29 189.56 C 739.68 189.40 740.47 189.07 740.86 188.91 C 741.91 188.08 742.96 187.26 744.02 186.44 L 745.35 186.56 C 745.38 186.33 745.43 185.87 745.46 185.64 C 746.51 185.19 747.57 184.74 748.64 184.29 L 748.54 183.26 C 749.01 183.38 749.96 183.62 750.43 183.74 L 750.53 182.28 C 751.01 182.36 751.97 182.54 752.45 182.62 L 752.43 181.34 C 752.96 181.38 754.01 181.48 754.54 181.53 L 754.48 180.16 C 754.96 180.29 755.92 180.54 756.40 180.67 L 756.50 179.29 C 756.98 179.37 757.95 179.53 758.43 179.61 L 758.57 178.22 C 759.03 178.35 759.94 178.60 760.40 178.72 L 760.58 177.42 C 761.06 177.49 762.04 177.62 762.52 177.69 L 762.46 176.62 C 763.26 176.56 764.85 176.43 765.65 176.37 L 765.51 175.16 C 766.03 175.33 767.07 175.66 767.59 175.83 L 767.39 174.63 C 768.22 174.59 769.87 174.52 770.69 174.48 L 770.46 173.63 C 772.11 173.50 773.77 173.37 775.43 173.25 C 774.47 173.05 773.52 172.85 772.57 172.66 C 774.19 172.58 775.82 172.50 777.45 172.41 L 777.41 171.59 C 778.80 171.51 780.20 171.43 781.62 171.36 L 781.41 170.54 C 782.27 170.55 783.99 170.57 784.85 170.59 L 784.34 169.78 M 783.00 197.24 C 782.50 197.37 781.49 197.61 780.99 197.73 C 777.60 199.08 774.22 200.46 770.86 201.86 C 762.14 206.12 753.96 211.36 746.10 217.05 C 739.87 222.06 733.56 226.97 728.05 232.78 C 716.03 230.83 704.13 228.13 691.97 227.15 C 686.07 226.14 680.11 225.58 674.14 225.39 C 671.08 225.37 667.76 223.74 664.90 225.03 L 665.20 224.48 C 660.13 224.30 655.06 224.33 650.00 224.33 C 645.30 224.40 640.64 223.28 635.96 223.85 C 628.77 224.72 621.53 224.07 614.32 224.44 C 598.53 225.76 582.70 227.04 567.10 229.96 C 531.56 235.74 496.91 246.56 464.00 261.09 C 461.82 261.96 459.56 262.78 457.83 264.42 C 453.16 265.30 448.48 266.19 443.84 267.21 L 445.28 267.37 C 441.02 267.90 437.07 269.67 433.08 271.12 C 411.50 280.47 392.64 295.44 377.00 312.84 C 375.30 312.33 373.63 311.79 371.95 311.25 C 368.43 309.49 364.72 308.21 361.04 306.83 C 359.04 306.21 357.05 305.57 355.07 304.89 C 350.40 303.50 345.75 302.01 340.96 301.11 L 340.14 300.77 C 334.82 299.47 329.37 298.90 324.02 297.79 C 311.99 297.25 299.74 296.63 287.99 299.80 C 284.30 301.11 280.62 302.46 277.08 304.13 C 265.81 309.76 257.21 319.75 251.83 331.01 L 251.71 331.46 C 248.18 336.45 246.94 342.63 245.71 348.51 C 243.38 359.79 245.37 371.66 250.03 382.10 C 251.37 385.05 252.56 388.30 255.32 390.24 C 261.57 400.68 270.56 409.22 279.83 416.98 C 276.87 423.37 272.30 428.83 268.98 435.03 C 252.91 462.30 239.62 491.25 229.94 521.40 C 228.44 525.57 227.06 529.80 226.22 534.16 C 226.08 534.29 225.78 534.55 225.64 534.68 C 224.92 538.34 223.48 541.87 223.21 545.63 C 221.87 547.94 221.44 550.57 221.28 553.21 C 221.14 553.33 220.84 553.56 220.69 553.68 C 218.26 564.82 215.71 575.98 214.36 587.32 C 214.20 587.44 213.87 587.69 213.70 587.81 C 213.03 593.84 212.80 599.94 211.71 605.91 C 210.47 613.22 210.51 620.66 209.54 628.00 C 209.21 645.00 209.28 662.01 209.46 679.01 C 210.56 693.76 211.86 708.51 214.12 723.13 L 214.30 721.89 C 214.40 723.97 214.55 726.08 214.67 728.19 C 214.83 728.34 215.14 728.64 215.30 728.79 C 216.24 734.50 217.03 740.25 218.50 745.86 C 234.35 820.22 270.52 890.10 321.98 946.06 C 328.66 952.74 334.60 960.15 341.85 966.26 C 374.12 997.55 411.60 1023.33 451.95 1043.07 C 469.79 1051.40 487.91 1059.36 506.86 1064.84 C 506.30 1064.94 505.75 1065.06 505.21 1065.18 C 513.28 1066.65 521.01 1069.63 528.97 1071.63 C 555.19 1078.50 582.07 1083.02 609.10 1084.88 C 615.66 1086.12 622.36 1085.56 628.99 1085.82 C 639.68 1086.07 650.38 1085.77 661.07 1085.68 C 666.77 1085.77 672.32 1084.10 678.03 1084.32 C 702.60 1081.96 727.02 1077.76 750.87 1071.36 C 769.51 1066.16 788.10 1060.39 805.70 1052.33 L 806.07 1052.67 C 814.81 1048.45 823.83 1044.85 832.42 1040.34 C 868.07 1022.45 901.15 999.48 930.54 972.53 C 936.25 966.58 942.83 961.51 948.23 955.25 C 954.96 947.83 962.43 941.00 968.17 932.74 C 971.16 930.56 973.18 927.35 975.46 924.49 C 994.16 901.13 1010.55 875.87 1023.94 849.09 C 1028.64 840.28 1032.58 831.09 1036.58 821.95 C 1043.75 804.20 1050.57 786.17 1054.93 767.51 C 1054.93 767.97 1054.92 768.88 1054.92 769.34 C 1056.18 764.63 1057.14 759.86 1058.30 755.13 C 1058.96 752.48 1059.45 749.78 1059.71 747.07 C 1059.87 747.67 1060.05 748.28 1060.23 748.90 C 1060.71 743.54 1062.31 738.36 1062.96 733.02 C 1065.87 718.15 1067.67 703.09 1068.77 687.99 C 1070.05 678.05 1069.40 668.00 1069.69 658.01 C 1069.49 643.25 1070.21 628.39 1067.85 613.76 C 1065.94 585.68 1059.93 557.98 1052.02 531.02 C 1039.03 487.49 1019.03 446.06 993.03 408.82 C 958.40 358.89 913.06 316.46 860.96 285.19 C 859.32 284.13 856.97 283.49 856.59 281.28 C 858.81 276.05 859.85 270.45 861.27 264.98 C 861.64 257.35 862.14 249.62 860.95 242.04 C 860.58 240.71 860.26 239.38 859.93 238.04 C 854.92 221.29 842.30 207.17 826.91 199.13 C 823.10 197.21 819.03 196.00 814.98 194.73 C 804.31 194.12 793.18 193.28 783.00 197.24 Z" />
</g>
<g id="#f52c5bff">
<path fill="#f52c5b" opacity="1.00" d=" M 783.00 197.24 C 793.18 193.28 804.31 194.12 814.98 194.73 C 819.03 196.00 823.10 197.21 826.91 199.13 C 842.30 207.17 854.92 221.29 859.93 238.04 C 860.26 239.38 860.58 240.71 860.95 242.04 C 862.14 249.62 861.64 257.35 861.27 264.98 C 859.85 270.45 858.81 276.05 856.59 281.28 C 850.76 298.18 841.04 313.42 830.47 327.72 C 809.32 355.85 783.72 380.31 756.72 402.74 C 755.01 403.98 753.13 406.02 750.84 404.93 C 717.80 395.58 685.29 383.72 655.10 367.25 C 638.95 358.27 623.22 348.02 610.39 334.59 C 600.60 324.91 592.70 312.92 589.45 299.43 C 585.88 282.15 590.47 263.79 600.46 249.41 C 606.85 240.38 616.13 233.51 626.60 229.95 C 638.61 225.80 651.58 225.13 664.15 226.44 C 683.16 228.44 701.70 234.00 719.11 241.80 C 722.05 238.75 725.01 235.73 728.05 232.78 C 733.56 226.97 739.87 222.06 746.10 217.05 C 753.96 211.36 762.14 206.12 770.86 201.86 C 774.22 200.46 777.60 199.08 780.99 197.73 C 781.49 197.61 782.50 197.37 783.00 197.24 Z" />
<path fill="#f52c5b" opacity="1.00" d=" M 445.28 267.37 C 456.37 265.90 467.62 265.82 478.63 268.00 C 493.39 273.46 505.47 285.02 513.03 298.66 C 520.56 312.28 520.80 328.65 517.11 343.45 C 512.16 361.27 503.19 377.68 492.54 392.70 C 469.85 424.70 441.16 451.90 410.97 476.73 C 391.70 472.08 372.97 465.37 354.50 458.22 C 328.18 447.38 302.16 434.86 279.83 416.98 C 270.56 409.22 261.57 400.68 255.32 390.24 C 252.24 383.84 248.82 377.49 247.34 370.47 C 245.98 364.44 246.16 358.18 246.46 352.05 C 246.85 344.88 250.13 338.37 251.71 331.46 L 251.83 331.01 C 257.21 319.75 265.81 309.76 277.08 304.13 C 280.62 302.46 284.30 301.11 287.99 299.80 C 299.74 296.63 311.99 297.25 324.02 297.79 C 329.37 298.90 334.82 299.47 340.14 300.77 L 340.96 301.11 C 345.75 302.01 350.40 303.50 355.07 304.89 C 357.05 305.57 359.04 306.21 361.04 306.83 C 364.72 308.21 368.43 309.49 371.95 311.25 C 373.63 311.79 375.30 312.33 377.00 312.84 C 392.64 295.44 411.50 280.47 433.08 271.12 C 437.07 269.67 441.02 267.90 445.28 267.37 Z" />
<path fill="#f52c5b" opacity="1.00" d=" M 557.67 684.96 C 595.23 664.38 637.35 652.19 680.06 649.34 C 698.09 649.31 716.23 648.33 734.16 650.62 C 783.43 656.29 831.08 674.83 871.44 703.61 C 876.15 706.74 880.20 710.86 885.41 713.22 C 877.38 728.00 868.53 742.37 858.20 755.67 C 830.44 792.29 793.92 822.16 752.62 842.28 C 722.20 856.84 689.41 866.53 655.87 870.22 C 646.62 871.56 637.25 871.33 627.97 872.26 C 619.30 872.96 610.68 871.33 602.01 871.39 C 569.93 869.14 538.24 861.55 508.60 849.07 C 481.67 837.88 456.73 822.32 434.01 804.12 C 435.51 805.18 438.22 807.12 439.16 804.46 C 466.07 754.34 507.68 712.17 557.67 684.96 Z" />
</g>
<g id="#ffda54ff">
<path fill="#ffda54" opacity="1.00" d=" M 614.32 224.44 C 621.53 224.07 628.77 224.72 635.96 223.85 C 640.64 223.28 645.30 224.40 650.00 224.33 C 655.06 224.33 660.13 224.30 665.20 224.48 L 664.90 225.03 L 664.15 226.44 C 651.58 225.13 638.61 225.80 626.60 229.95 C 616.13 233.51 606.85 240.38 600.46 249.41 C 590.47 263.79 585.88 282.15 589.45 299.43 C 592.70 312.92 600.60 324.91 610.39 334.59 C 623.22 348.02 638.95 358.27 655.10 367.25 C 685.29 383.72 717.80 395.58 750.84 404.93 C 753.13 406.02 755.01 403.98 756.72 402.74 C 783.72 380.31 809.32 355.85 830.47 327.72 C 841.04 313.42 850.76 298.18 856.59 281.28 C 856.97 283.49 859.32 284.13 860.96 285.19 C 913.06 316.46 958.40 358.89 993.03 408.82 C 1019.03 446.06 1039.03 487.49 1052.02 531.02 C 1059.93 557.98 1065.94 585.68 1067.85 613.76 C 1067.85 618.19 1067.69 622.62 1067.65 627.06 C 1067.14 624.70 1066.89 622.26 1065.90 620.06 C 1062.53 617.22 1058.19 615.85 1054.55 613.40 C 1047.97 609.18 1040.92 605.76 1034.30 601.63 C 1030.07 598.32 1024.89 596.62 1020.56 593.49 C 1016.32 590.48 1011.11 589.19 1007.10 585.81 C 998.37 580.61 989.08 576.32 980.66 570.60 C 975.25 567.96 970.46 564.24 964.98 561.73 C 956.41 556.24 947.40 551.49 938.46 546.65 C 932.57 542.36 926.00 539.18 919.83 535.36 C 919.94 541.66 922.58 547.64 922.16 553.99 C 921.70 571.15 922.72 588.35 921.51 605.48 C 920.45 603.85 919.40 602.22 918.36 600.61 C 920.79 572.38 918.67 543.93 913.32 516.15 C 907.08 515.96 901.08 517.74 895.03 518.97 C 859.70 526.23 824.43 533.77 789.09 540.93 C 784.97 541.91 780.83 542.80 776.67 543.57 C 773.27 543.33 769.90 542.84 766.56 542.28 C 777.12 539.43 788.07 538.27 798.63 535.36 C 810.28 532.42 822.22 530.85 833.91 528.02 C 831.17 526.52 828.57 524.82 826.01 523.06 C 822.73 520.77 818.77 519.71 815.49 517.42 C 813.50 516.06 811.56 514.62 809.38 513.58 C 801.92 510.00 794.97 505.49 788.03 501.04 C 781.96 498.62 776.91 494.40 770.97 491.75 C 762.41 486.24 753.37 481.51 744.44 476.62 C 738.36 472.09 731.43 468.94 724.97 465.01 C 717.66 460.50 709.95 456.70 702.59 452.29 C 690.69 445.20 678.64 438.40 666.66 431.45 C 659.23 427.68 652.47 422.72 644.91 419.20 C 638.84 416.39 633.77 411.87 627.66 409.15 C 622.96 407.12 619.38 403.25 614.70 401.20 C 607.79 398.06 601.27 394.15 594.77 390.27 C 587.07 385.65 579.03 381.63 571.60 376.59 C 565.84 374.14 561.08 369.93 555.29 367.57 C 551.48 365.89 548.42 362.93 544.62 361.24 C 540.16 359.26 536.26 356.25 531.85 354.20 C 527.11 352.20 523.57 347.86 518.30 347.10 C 517.88 345.88 517.48 344.67 517.11 343.45 C 520.80 328.65 520.56 312.28 513.03 298.66 C 505.47 285.02 493.39 273.46 478.63 268.00 C 472.12 265.06 464.89 264.38 457.83 264.42 C 459.56 262.78 461.82 261.96 464.00 261.09 C 496.91 246.56 531.56 235.74 567.10 229.96 C 582.70 227.04 598.53 225.76 614.32 224.44 Z" />
</g>
<g id="#ffe154ff">
<path fill="#ffe154" opacity="1.00" d=" M 664.90 225.03 C 667.76 223.74 671.08 225.37 674.14 225.39 C 680.11 225.58 686.07 226.14 691.97 227.15 C 704.13 228.13 716.03 230.83 728.05 232.78 C 725.01 235.73 722.05 238.75 719.11 241.80 C 701.70 234.00 683.16 228.44 664.15 226.44 L 664.90 225.03 Z" />
</g>
<g id="#43434343">
<path fill="#434343" opacity="0.26" d=" M 888.50 236.50 C 890.27 238.94 890.17 242.07 890.26 244.95 C 890.27 250.81 890.35 256.69 889.60 262.52 C 887.68 260.41 888.93 257.40 888.96 254.88 C 889.91 248.75 888.65 242.62 888.50 236.50 Z" />
</g>
<g id="#f86d58ff">
<path fill="#f86d58" opacity="1.00" d=" M 457.83 264.42 C 464.89 264.38 472.12 265.06 478.63 268.00 C 467.62 265.82 456.37 265.90 445.28 267.37 L 443.84 267.21 C 448.48 266.19 453.16 265.30 457.83 264.42 Z" />
</g>
<g id="#faa4b8ff">
<path fill="#faa4b8" opacity="1.00" d=" M 251.71 331.46 C 250.13 338.37 246.85 344.88 246.46 352.05 C 246.16 358.18 245.98 364.44 247.34 370.47 C 248.82 377.49 252.24 383.84 255.32 390.24 C 252.56 388.30 251.37 385.05 250.03 382.10 C 245.37 371.66 243.38 359.79 245.71 348.51 C 246.94 342.63 248.18 336.45 251.71 331.46 Z" />
</g>
<g id="#ffd154ff">
<path fill="#ffd154" opacity="1.00" d=" M 492.54 392.70 C 503.19 377.68 512.16 361.27 517.11 343.45 C 517.48 344.67 517.88 345.88 518.30 347.10 C 523.57 347.86 527.11 352.20 531.85 354.20 C 536.26 356.25 540.16 359.26 544.62 361.24 C 548.42 362.93 551.48 365.89 555.29 367.57 C 561.08 369.93 565.84 374.14 571.60 376.59 C 579.03 381.63 587.07 385.65 594.77 390.27 C 601.27 394.15 607.79 398.06 614.70 401.20 C 619.38 403.25 622.96 407.12 627.66 409.15 C 633.77 411.87 638.84 416.39 644.91 419.20 C 652.47 422.72 659.23 427.68 666.66 431.45 C 678.64 438.40 690.69 445.20 702.59 452.29 C 709.95 456.70 717.66 460.50 724.97 465.01 C 731.43 468.94 738.36 472.09 744.44 476.62 C 753.37 481.51 762.41 486.24 770.97 491.75 C 776.91 494.40 781.96 498.62 788.03 501.04 C 794.97 505.49 801.92 510.00 809.38 513.58 C 811.56 514.62 813.50 516.06 815.49 517.42 C 818.77 519.71 822.73 520.77 826.01 523.06 C 828.57 524.82 831.17 526.52 833.91 528.02 C 822.22 530.85 810.28 532.42 798.63 535.36 C 788.07 538.27 777.12 539.43 766.56 542.28 C 769.90 542.84 773.27 543.33 776.67 543.57 C 751.28 548.97 725.84 554.16 700.44 559.50 C 694.89 559.59 689.51 560.92 684.13 562.13 C 643.16 570.58 602.23 579.23 561.25 587.63 C 559.61 587.08 558.00 586.48 556.40 585.90 C 560.50 585.22 564.61 584.31 568.32 582.34 C 559.71 576.93 550.73 572.14 541.95 567.04 C 537.16 563.22 531.19 561.40 526.32 557.70 C 521.88 555.16 517.02 553.35 513.03 550.05 C 506.62 546.78 500.50 542.98 494.07 539.75 C 486.31 534.82 478.44 530.04 470.30 525.75 C 464.71 521.78 458.40 519.07 452.65 515.37 C 446.36 512.91 441.40 508.16 435.16 505.62 C 416.91 494.00 397.59 484.15 379.14 472.86 C 368.89 466.80 357.33 463.54 346.64 458.43 C 349.25 458.28 351.87 458.15 354.50 458.22 C 372.97 465.37 391.70 472.08 410.97 476.73 C 441.16 451.90 469.85 424.70 492.54 392.70 Z" />
</g>
<g id="#ffc855ff">
<path fill="#ffc855" opacity="1.00" d=" M 279.83 416.98 C 302.16 434.86 328.18 447.38 354.50 458.22 C 351.87 458.15 349.25 458.28 346.64 458.43 C 357.33 463.54 368.89 466.80 379.14 472.86 C 397.59 484.15 416.91 494.00 435.16 505.62 C 441.40 508.16 446.36 512.91 452.65 515.37 C 458.40 519.07 464.71 521.78 470.30 525.75 C 478.44 530.04 486.31 534.82 494.07 539.75 C 500.50 542.98 506.62 546.78 513.03 550.05 C 517.02 553.35 521.88 555.16 526.32 557.70 C 531.19 561.40 537.16 563.22 541.95 567.04 C 550.73 572.14 559.71 576.93 568.32 582.34 C 564.61 584.31 560.50 585.22 556.40 585.90 C 558.00 586.48 559.61 587.08 561.25 587.63 C 492.20 602.21 423.07 616.39 354.00 630.85 C 349.24 631.75 344.42 632.55 339.97 634.53 C 338.28 634.86 336.60 635.18 334.92 635.53 C 333.88 634.59 332.85 633.66 331.82 632.74 C 340.29 629.46 349.69 630.24 358.08 626.80 C 350.00 622.29 341.52 618.49 333.90 613.23 C 328.28 610.67 323.30 606.94 317.66 604.44 C 313.90 602.70 310.83 599.83 307.19 597.89 C 298.50 593.24 290.19 587.92 281.47 583.34 C 263.68 573.23 246.18 562.63 228.25 552.80 C 226.57 551.78 224.96 550.67 223.35 549.57 C 223.28 548.25 223.24 546.93 223.21 545.63 C 223.48 541.87 224.92 538.34 225.64 534.68 C 225.78 534.55 226.08 534.29 226.22 534.16 C 227.06 529.80 228.44 525.57 229.94 521.40 C 239.62 491.25 252.91 462.30 268.98 435.03 C 272.30 428.83 276.87 423.37 279.83 416.98 Z" />
<path fill="#ffc855" opacity="1.00" d=" M 864.33 752.51 C 869.63 755.61 874.92 758.75 880.26 761.79 C 885.65 764.63 890.29 768.74 895.97 771.04 C 899.87 772.58 902.85 775.69 906.65 777.43 C 912.33 779.87 917.26 783.69 922.90 786.25 C 928.64 790.17 934.86 793.29 940.70 797.07 C 945.96 799.35 950.34 803.14 955.54 805.53 C 959.69 807.56 963.36 810.45 967.64 812.24 C 971.69 813.97 974.86 817.22 978.95 818.90 C 984.67 821.19 989.30 825.38 994.72 828.24 C 1004.32 833.90 1014.53 838.60 1023.55 845.18 C 1023.05 846.68 1022.56 848.20 1022.09 849.72 C 1022.55 849.56 1023.48 849.25 1023.94 849.09 C 1010.55 875.87 994.16 901.13 975.46 924.49 C 973.18 927.35 971.16 930.56 968.17 932.74 C 966.20 933.13 964.22 933.40 962.25 933.69 C 935.45 918.64 909.07 902.89 882.22 887.95 C 877.17 885.32 872.98 881.30 867.63 879.23 C 858.12 873.75 848.34 868.73 838.95 863.04 C 832.26 859.43 826.37 854.53 819.39 851.46 C 812.15 846.47 804.22 842.64 796.40 838.67 C 791.66 835.73 787.25 832.01 781.80 830.47 C 777.96 831.69 774.80 834.37 771.26 836.20 C 766.65 838.63 762.17 841.33 757.37 843.35 C 755.72 844.29 754.13 842.60 752.62 842.28 C 793.92 822.16 830.44 792.29 858.20 755.67 C 858.66 756.29 859.58 757.54 860.04 758.16 C 861.46 756.27 862.89 754.39 864.33 752.51 Z" />
</g>
<g id="#212731ff">
<path fill="#212731" opacity="1.00" d=" M 913.32 516.15 C 918.67 543.93 920.79 572.38 918.36 600.61 C 918.21 601.46 917.90 603.16 917.74 604.01 C 917.52 606.96 917.38 609.93 917.22 612.90 C 913.53 637.14 907.97 661.21 898.73 683.98 C 894.86 693.97 890.37 703.72 885.41 713.22 C 880.20 710.86 876.15 706.74 871.44 703.61 C 831.08 674.83 783.43 656.29 734.16 650.62 C 716.23 648.33 698.09 649.31 680.06 649.34 C 637.35 652.19 595.23 664.38 557.67 684.96 C 507.68 712.17 466.07 754.34 439.16 804.46 C 438.22 807.12 435.51 805.18 434.01 804.12 C 427.13 798.00 420.07 792.06 413.58 785.52 C 376.73 748.58 349.74 701.86 336.63 651.33 C 335.34 646.23 333.76 641.16 333.38 635.89 C 333.77 635.80 334.54 635.62 334.92 635.53 C 336.60 635.18 338.28 634.86 339.97 634.53 C 346.33 634.05 352.51 632.39 358.75 631.13 C 464.89 609.04 571.02 586.92 677.16 564.83 C 684.92 563.08 692.85 561.97 700.44 559.50 C 725.84 554.16 751.28 548.97 776.67 543.57 C 780.83 542.80 784.97 541.91 789.09 540.93 C 824.43 533.77 859.70 526.23 895.03 518.97 C 901.08 517.74 907.08 515.96 913.32 516.15 Z" />
</g>
<g id="#ffd454ff">
<path fill="#ffd454" opacity="1.00" d=" M 919.83 535.36 C 926.00 539.18 932.57 542.36 938.46 546.65 C 947.40 551.49 956.41 556.24 964.98 561.73 C 970.46 564.24 975.25 567.96 980.66 570.60 C 989.08 576.32 998.37 580.61 1007.10 585.81 C 1011.11 589.19 1016.32 590.48 1020.56 593.49 C 1024.89 596.62 1030.07 598.32 1034.30 601.63 C 1040.92 605.76 1047.97 609.18 1054.55 613.40 C 1058.19 615.85 1062.53 617.22 1065.90 620.06 C 1066.89 622.26 1067.14 624.70 1067.65 627.06 C 1067.69 622.62 1067.85 618.19 1067.85 613.76 C 1070.21 628.39 1069.49 643.25 1069.69 658.01 C 1069.40 668.00 1070.05 678.05 1068.77 687.99 C 1067.67 703.09 1065.87 718.15 1062.96 733.02 C 1062.31 738.36 1060.71 743.54 1060.23 748.90 C 1060.05 748.28 1059.87 747.67 1059.71 747.07 C 1059.45 749.78 1058.96 752.48 1058.30 755.13 C 1057.14 759.86 1056.18 764.63 1054.92 769.34 C 1054.92 768.88 1054.93 767.97 1054.93 767.51 C 1054.73 764.56 1055.97 761.11 1054.55 758.46 C 1048.39 754.09 1041.59 750.65 1034.94 747.09 C 1030.27 743.52 1024.71 741.44 1019.94 738.06 C 1017.27 736.21 1014.17 735.18 1011.36 733.62 C 1003.18 727.89 993.83 724.10 985.66 718.31 C 981.92 715.47 977.29 714.21 973.47 711.52 C 969.51 708.68 964.86 707.05 960.94 704.17 C 957.73 701.83 954.01 700.41 950.61 698.42 C 936.29 689.34 921.21 681.54 906.68 672.81 C 904.85 678.73 902.58 684.51 900.06 690.19 C 899.60 688.12 899.15 686.04 898.73 683.98 C 907.97 661.21 913.53 637.14 917.22 612.90 C 917.38 609.93 917.52 606.96 917.74 604.01 C 917.90 603.16 918.21 601.46 918.36 600.61 C 919.40 602.22 920.45 603.85 921.51 605.48 C 922.72 588.35 921.70 571.15 922.16 553.99 C 922.58 547.64 919.94 541.66 919.83 535.36 Z" />
</g>
<g id="#ffbf55ff">
<path fill="#ffbf55" opacity="1.00" d=" M 221.28 553.21 C 221.44 550.57 221.87 547.94 223.21 545.63 C 223.24 546.93 223.28 548.25 223.35 549.57 C 224.96 550.67 226.57 551.78 228.25 552.80 C 246.18 562.63 263.68 573.23 281.47 583.34 C 290.19 587.92 298.50 593.24 307.19 597.89 C 310.83 599.83 313.90 602.70 317.66 604.44 C 323.30 606.94 328.28 610.67 333.90 613.23 C 341.52 618.49 350.00 622.29 358.08 626.80 C 349.69 630.24 340.29 629.46 331.82 632.74 C 332.85 633.66 333.88 634.59 334.92 635.53 C 334.54 635.62 333.77 635.80 333.38 635.89 C 333.76 641.16 335.34 646.23 336.63 651.33 C 349.74 701.86 376.73 748.58 413.58 785.52 C 420.07 792.06 427.13 798.00 434.01 804.12 C 456.73 822.32 481.67 837.88 508.60 849.07 C 538.24 861.55 569.93 869.14 602.01 871.39 C 610.68 871.33 619.30 872.96 627.97 872.26 C 637.25 871.33 646.62 871.56 655.87 870.22 C 689.41 866.53 722.20 856.84 752.62 842.28 C 754.13 842.60 755.72 844.29 757.37 843.35 C 762.17 841.33 766.65 838.63 771.26 836.20 C 774.80 834.37 777.96 831.69 781.80 830.47 C 787.25 832.01 791.66 835.73 796.40 838.67 C 804.22 842.64 812.15 846.47 819.39 851.46 C 826.37 854.53 832.26 859.43 838.95 863.04 C 848.34 868.73 858.12 873.75 867.63 879.23 C 872.98 881.30 877.17 885.32 882.22 887.95 C 909.07 902.89 935.45 918.64 962.25 933.69 C 964.22 933.40 966.20 933.13 968.17 932.74 C 962.43 941.00 954.96 947.83 948.23 955.25 C 942.83 961.51 936.25 966.58 930.54 972.53 C 901.15 999.48 868.07 1022.45 832.42 1040.34 C 823.83 1044.85 814.81 1048.45 806.07 1052.67 L 805.70 1052.33 C 800.35 1046.87 793.10 1044.08 786.63 1040.27 C 768.61 1030.06 750.93 1019.27 732.73 1009.39 C 727.05 1006.46 722.12 1002.24 716.31 999.57 C 712.46 998.15 709.32 995.49 705.86 993.38 C 699.40 990.27 693.30 986.50 687.22 982.73 C 683.12 979.57 678.03 978.18 673.89 975.12 C 670.13 972.40 665.60 971.02 661.94 968.16 C 658.57 965.56 654.41 964.37 650.97 961.91 C 645.27 957.79 638.78 955.01 632.85 951.28 C 622.23 944.73 611.06 939.16 600.50 932.51 C 596.13 929.80 591.41 927.70 587.03 925.00 C 575.37 917.89 563.18 911.69 551.67 904.34 C 548.16 902.04 544.16 900.62 540.70 898.24 C 535.98 894.82 530.43 892.83 525.75 889.34 C 515.44 884.54 506.48 877.32 496.10 872.63 C 490.54 868.78 484.19 866.32 478.57 862.58 C 473.60 860.50 469.34 857.25 464.96 854.21 C 455.81 849.37 447.10 843.76 437.85 839.13 C 433.97 836.04 429.51 833.99 425.01 832.00 C 412.78 823.50 399.31 817.03 386.63 809.26 C 374.33 802.69 362.61 795.11 350.29 788.56 C 340.85 782.68 330.85 777.74 321.59 771.58 C 315.82 769.14 311.08 764.89 305.26 762.59 C 301.94 761.17 299.32 758.59 296.11 757.00 C 288.15 753.27 280.91 748.23 273.39 743.74 C 268.78 742.00 264.91 738.94 260.64 736.58 C 254.88 734.10 250.14 729.84 244.36 727.39 C 234.41 721.30 224.30 715.46 214.20 709.62 C 214.19 713.70 214.32 717.79 214.30 721.89 L 214.12 723.13 C 211.86 708.51 210.56 693.76 209.46 679.01 C 209.28 662.01 209.21 645.00 209.54 628.00 C 210.51 620.66 210.47 613.22 211.71 605.91 C 212.80 599.94 213.03 593.84 213.70 587.81 C 213.87 587.69 214.20 587.44 214.36 587.32 C 215.71 575.98 218.26 564.82 220.69 553.68 C 220.84 553.56 221.14 553.33 221.28 553.21 Z" />
</g>
<g id="#b7794bff">
<path fill="#b7794b" opacity="1.00" d=" M 684.13 562.13 C 689.51 560.92 694.89 559.59 700.44 559.50 C 692.85 561.97 684.92 563.08 677.16 564.83 C 571.02 586.92 464.89 609.04 358.75 631.13 C 352.51 632.39 346.33 634.05 339.97 634.53 C 344.42 632.55 349.24 631.75 354.00 630.85 C 423.07 616.39 492.20 602.21 561.25 587.63 C 602.23 579.23 643.16 570.58 684.13 562.13 Z" />
</g>
<g id="#ffce54ff">
<path fill="#ffce54" opacity="1.00" d=" M 906.68 672.81 C 921.21 681.54 936.29 689.34 950.61 698.42 C 954.01 700.41 957.73 701.83 960.94 704.17 C 964.86 707.05 969.51 708.68 973.47 711.52 C 977.29 714.21 981.92 715.47 985.66 718.31 C 993.83 724.10 1003.18 727.89 1011.36 733.62 C 1014.17 735.18 1017.27 736.21 1019.94 738.06 C 1024.71 741.44 1030.27 743.52 1034.94 747.09 C 1041.59 750.65 1048.39 754.09 1054.55 758.46 C 1055.97 761.11 1054.73 764.56 1054.93 767.51 C 1050.57 786.17 1043.75 804.20 1036.58 821.95 C 1032.58 831.09 1028.64 840.28 1023.94 849.09 C 1023.48 849.25 1022.55 849.56 1022.09 849.72 C 1022.56 848.20 1023.05 846.68 1023.55 845.18 C 1014.53 838.60 1004.32 833.90 994.72 828.24 C 989.30 825.38 984.67 821.19 978.95 818.90 C 974.86 817.22 971.69 813.97 967.64 812.24 C 963.36 810.45 959.69 807.56 955.54 805.53 C 950.34 803.14 945.96 799.35 940.70 797.07 C 934.86 793.29 928.64 790.17 922.90 786.25 C 917.26 783.69 912.33 779.87 906.65 777.43 C 902.85 775.69 899.87 772.58 895.97 771.04 C 890.29 768.74 885.65 764.63 880.26 761.79 C 874.92 758.75 869.63 755.61 864.33 752.51 C 862.89 754.39 861.46 756.27 860.04 758.16 C 859.58 757.54 858.66 756.29 858.20 755.67 C 868.53 742.37 877.38 728.00 885.41 713.22 C 890.37 703.72 894.86 693.97 898.73 683.98 C 899.15 686.04 899.60 688.12 900.06 690.19 C 902.58 684.51 904.85 678.73 906.68 672.81 Z" />
</g>
<g id="#ffb855ff">
<path fill="#ffb855" opacity="1.00" d=" M 214.20 709.62 C 224.30 715.46 234.41 721.30 244.36 727.39 C 250.14 729.84 254.88 734.10 260.64 736.58 C 264.91 738.94 268.78 742.00 273.39 743.74 C 280.91 748.23 288.15 753.27 296.11 757.00 C 299.32 758.59 301.94 761.17 305.26 762.59 C 311.08 764.89 315.82 769.14 321.59 771.58 C 330.85 777.74 340.85 782.68 350.29 788.56 C 362.61 795.11 374.33 802.69 386.63 809.26 C 399.31 817.03 412.78 823.50 425.01 832.00 C 429.51 833.99 433.97 836.04 437.85 839.13 C 447.10 843.76 455.81 849.37 464.96 854.21 C 469.34 857.25 473.60 860.50 478.57 862.58 C 484.19 866.32 490.54 868.78 496.10 872.63 C 506.48 877.32 515.44 884.54 525.75 889.34 C 530.43 892.83 535.98 894.82 540.70 898.24 C 544.16 900.62 548.16 902.04 551.67 904.34 C 563.18 911.69 575.37 917.89 587.03 925.00 C 591.41 927.70 596.13 929.80 600.50 932.51 C 611.06 939.16 622.23 944.73 632.85 951.28 C 638.78 955.01 645.27 957.79 650.97 961.91 C 654.41 964.37 658.57 965.56 661.94 968.16 C 665.60 971.02 670.13 972.40 673.89 975.12 C 678.03 978.18 683.12 979.57 687.22 982.73 C 693.30 986.50 699.40 990.27 705.86 993.38 C 709.32 995.49 712.46 998.15 716.31 999.57 C 722.12 1002.24 727.05 1006.46 732.73 1009.39 C 750.93 1019.27 768.61 1030.06 786.63 1040.27 C 793.10 1044.08 800.35 1046.87 805.70 1052.33 C 788.10 1060.39 769.51 1066.16 750.87 1071.36 C 727.02 1077.76 702.60 1081.96 678.03 1084.32 C 672.32 1084.10 666.77 1085.77 661.07 1085.68 C 650.38 1085.77 639.68 1086.07 628.99 1085.82 C 622.36 1085.56 615.66 1086.12 609.10 1084.88 C 582.07 1083.02 555.19 1078.50 528.97 1071.63 C 521.01 1069.63 513.28 1066.65 505.21 1065.18 C 505.75 1065.06 506.30 1064.94 506.86 1064.84 C 487.91 1059.36 469.79 1051.40 451.95 1043.07 C 411.60 1023.33 374.12 997.55 341.85 966.26 C 334.60 960.15 328.66 952.74 321.98 946.06 C 270.52 890.10 234.35 820.22 218.50 745.86 C 217.03 740.25 216.24 734.50 215.30 728.79 C 215.14 728.64 214.83 728.34 214.67 728.19 C 214.55 726.08 214.40 723.97 214.30 721.89 C 214.32 717.79 214.19 713.70 214.20 709.62 Z" />
</g>
</svg>
