<?xml version="1.0" encoding="UTF-8" ?>
<!DOCTYPE svg PUBLIC "-//W3C//DTD SVG 1.1//EN" "http://www.w3.org/Graphics/SVG/1.1/DTD/svg11.dtd">
<svg width="1276pt" height="1276pt" viewBox="0 0 1276 1276" version="1.1" xmlns="http://www.w3.org/2000/svg">
<g id="#ffffffff">
<path fill="#ffffff" opacity="1.00" d=" M 430.98 193.12 C 460.10 186.27 490.53 184.77 520.13 189.30 C 532.97 191.05 545.50 194.45 558.11 197.34 C 586.64 203.38 614.25 214.03 639.01 229.49 C 656.43 218.64 675.28 210.07 694.85 203.88 C 707.98 199.81 721.46 197.05 734.82 193.82 C 757.38 188.28 780.74 185.79 803.97 187.00 C 826.01 187.79 847.49 193.09 868.83 198.24 C 902.58 205.59 934.71 220.09 962.59 240.48 C 977.44 251.11 992.33 261.86 1005.15 274.94 C 1021.34 290.50 1034.08 309.09 1047.02 327.32 C 1060.08 346.99 1070.56 368.39 1077.68 390.92 C 1082.54 406.07 1085.68 421.69 1089.37 437.15 C 1099.80 480.97 1098.40 527.08 1088.37 570.84 C 1083.33 592.33 1078.76 613.98 1071.57 634.88 C 1057.61 676.06 1037.22 714.85 1013.00 750.89 C 993.17 780.29 971.91 808.79 948.57 835.51 C 896.26 895.45 835.51 947.45 771.53 994.51 C 728.09 1025.94 684.34 1057.02 639.00 1085.68 C 605.12 1064.33 572.20 1041.50 539.58 1018.27 C 468.81 968.68 401.06 914.12 342.60 850.26 C 327.20 833.36 312.40 815.91 298.55 797.70 C 274.38 765.76 251.33 732.75 233.02 697.04 C 223.99 679.57 215.98 661.57 209.32 643.06 C 200.92 620.72 195.80 597.37 190.37 574.18 C 181.73 537.58 178.80 499.39 184.00 462.05 C 186.11 445.81 190.37 429.98 194.03 414.05 C 201.13 382.20 214.17 351.63 232.76 324.79 C 242.17 311.69 251.28 298.30 262.08 286.28 C 273.57 273.31 286.48 261.60 300.46 251.36 C 311.70 243.15 322.84 234.71 334.86 227.64 C 349.44 218.92 364.93 211.72 380.98 206.15 C 397.26 200.46 414.24 197.18 430.98 193.12 M 373.06 277.16 C 325.75 302.31 287.33 343.66 265.67 392.67 C 245.47 437.67 239.61 488.35 245.73 537.10 C 251.01 580.18 264.99 621.88 284.13 660.72 C 316.04 725.22 361.40 782.18 411.91 833.07 C 452.63 874.05 497.16 911.08 543.46 945.57 C 574.39 968.64 606.45 990.17 639.00 1010.88 C 721.86 958.30 801.14 899.18 870.17 829.18 C 922.99 775.22 970.16 714.46 1001.29 645.29 C 1019.85 603.90 1032.25 559.36 1034.39 513.93 C 1037.24 459.29 1023.69 403.36 993.30 357.58 C 959.44 305.90 905.12 267.96 844.76 254.55 C 806.67 246.05 766.46 246.77 728.90 257.52 C 696.05 266.64 665.44 283.16 639.00 304.59 C 605.03 276.96 563.91 257.73 520.47 251.36 C 470.25 243.60 417.76 253.13 373.06 277.16 Z" />
<path fill="#ffffff" opacity="1.00" d=" M 404.18 319.20 C 414.86 312.56 427.25 308.10 439.95 308.33 C 447.28 308.23 454.57 309.80 461.41 312.39 C 471.00 316.10 480.31 320.57 489.18 325.79 C 493.62 328.69 497.17 332.90 499.32 337.75 C 500.61 342.03 502.26 346.58 501.00 351.06 C 499.40 358.95 494.69 366.57 487.37 370.30 C 459.26 386.31 434.39 407.99 414.75 433.70 C 406.30 444.60 399.10 456.40 392.39 468.43 C 385.76 476.66 377.02 483.27 367.26 487.36 C 361.55 489.74 354.92 490.31 349.15 487.81 C 343.44 485.39 337.70 482.92 332.37 479.75 C 323.32 473.04 315.71 464.18 311.18 453.82 C 308.81 448.16 308.61 441.76 309.82 435.80 C 311.40 429.85 314.19 424.31 316.81 418.77 C 326.12 399.11 338.23 380.81 352.54 364.43 C 367.78 347.29 384.87 331.66 404.18 319.20 Z" />
</g>
<g id="#f10060ff">
<path fill="#f10060" opacity="1.00" d=" M 373.06 277.16 C 417.76 253.13 470.25 243.60 520.47 251.36 C 563.91 257.73 605.03 276.96 639.00 304.59 C 665.44 283.16 696.05 266.64 728.90 257.52 C 766.46 246.77 806.67 246.05 844.76 254.55 C 881.73 315.91 904.78 386.16 907.63 457.95 C 910.77 527.40 894.92 597.19 864.30 659.45 C 842.08 705.03 812.32 746.74 777.79 783.80 C 721.62 843.99 653.16 891.91 579.60 928.46 C 567.70 934.48 555.45 939.77 543.46 945.57 C 497.16 911.08 452.63 874.05 411.91 833.07 C 361.40 782.18 316.04 725.22 284.13 660.72 C 264.99 621.88 251.01 580.18 245.73 537.10 C 239.61 488.35 245.47 437.67 265.67 392.67 C 287.33 343.66 325.75 302.31 373.06 277.16 M 404.18 319.20 C 384.87 331.66 367.78 347.29 352.54 364.43 C 338.23 380.81 326.12 399.11 316.81 418.77 C 314.19 424.31 311.40 429.85 309.82 435.80 C 308.61 441.76 308.81 448.16 311.18 453.82 C 315.71 464.18 323.32 473.04 332.37 479.75 C 337.70 482.92 343.44 485.39 349.15 487.81 C 354.92 490.31 361.55 489.74 367.26 487.36 C 377.02 483.27 385.76 476.66 392.39 468.43 C 399.10 456.40 406.30 444.60 414.75 433.70 C 434.39 407.99 459.26 386.31 487.37 370.30 C 494.69 366.57 499.40 358.95 501.00 351.06 C 502.26 346.58 500.61 342.03 499.32 337.75 C 497.17 332.90 493.62 328.69 489.18 325.79 C 480.31 320.57 471.00 316.10 461.41 312.39 C 454.57 309.80 447.28 308.23 439.95 308.33 C 427.25 308.10 414.86 312.56 404.18 319.20 Z" />
</g>
<g id="#9f003fff">
<path fill="#9f003f" opacity="1.00" d=" M 844.76 254.55 C 905.12 267.96 959.44 305.90 993.30 357.58 C 1023.69 403.36 1037.24 459.29 1034.39 513.93 C 1032.25 559.36 1019.85 603.90 1001.29 645.29 C 970.16 714.46 922.99 775.22 870.17 829.18 C 801.14 899.18 721.86 958.30 639.00 1010.88 C 606.45 990.17 574.39 968.64 543.46 945.57 C 555.45 939.77 567.70 934.48 579.60 928.46 C 653.16 891.91 721.62 843.99 777.79 783.80 C 812.32 746.74 842.08 705.03 864.30 659.45 C 894.92 597.19 910.77 527.40 907.63 457.95 C 904.78 386.16 881.73 315.91 844.76 254.55 Z" />
</g>
</svg>
