<?xml version="1.0" encoding="UTF-8" ?>
<!DOCTYPE svg PUBLIC "-//W3C//DTD SVG 1.1//EN" "http://www.w3.org/Graphics/SVG/1.1/DTD/svg11.dtd">
<svg width="1276pt" height="1276pt" viewBox="0 0 1276 1276" version="1.1" xmlns="http://www.w3.org/2000/svg">
<g id="#001e68ff">
<path fill="#001e68" opacity="1.00" d=" M 595.98 174.41 C 646.06 169.08 696.94 172.69 746.02 183.85 C 751.50 185.20 757.00 186.52 762.49 187.84 C 762.63 265.99 762.60 344.15 762.51 422.30 C 758.09 420.77 754.19 418.13 749.99 416.14 C 734.88 409.04 719.28 402.84 703.04 398.86 C 688.97 394.98 674.45 393.07 659.96 391.62 C 643.95 391.03 627.78 390.50 611.90 393.01 C 569.70 397.89 529.01 414.47 495.02 439.90 C 485.24 447.01 476.42 455.30 467.56 463.48 C 460.90 470.86 453.97 478.02 447.93 485.93 C 429.27 509.79 415.06 537.09 406.24 566.06 C 401.63 581.35 398.45 597.08 397.03 613.00 C 396.23 616.62 396.73 620.39 395.79 624.00 C 395.49 636.35 395.28 648.75 397.01 661.00 C 397.84 670.37 399.21 679.72 401.22 688.92 C 409.42 726.81 426.75 762.69 451.39 792.63 C 473.33 819.43 500.90 841.58 531.82 857.20 C 566.17 874.25 604.54 883.83 642.98 882.83 C 659.80 883.28 676.58 881.32 693.02 877.87 C 699.39 876.42 705.77 874.95 711.99 872.93 C 717.05 871.47 722.09 869.92 726.99 867.94 C 739.31 863.65 750.92 857.63 762.52 851.72 C 762.65 929.92 762.50 1008.12 762.60 1086.32 C 749.51 1089.76 736.30 1092.79 722.98 1095.15 C 710.59 1097.18 698.18 1099.35 685.61 1099.83 C 687.80 1100.11 690.00 1100.32 692.20 1100.59 C 687.11 1100.35 681.93 1100.01 676.92 1101.11 C 669.22 1101.70 661.51 1101.67 653.80 1101.83 C 629.35 1101.89 604.83 1101.12 580.58 1097.74 C 577.24 1097.31 573.89 1096.93 570.53 1096.72 C 568.18 1096.53 565.82 1096.45 563.47 1096.45 C 564.82 1096.27 566.18 1096.10 567.54 1095.95 C 565.06 1095.69 562.57 1095.47 560.10 1095.20 C 541.54 1091.73 523.12 1087.42 505.06 1081.86 C 504.55 1081.70 503.51 1081.37 502.99 1081.21 C 497.95 1079.57 492.83 1078.15 487.92 1076.14 C 447.52 1062.21 409.19 1042.33 374.26 1017.73 C 353.79 1003.22 334.23 987.32 316.53 969.53 C 268.36 922.93 230.99 865.43 206.96 802.92 C 196.87 776.04 189.02 748.28 184.11 719.98 C 180.91 704.77 179.81 689.22 177.92 673.84 C 177.42 666.91 177.24 659.96 177.25 653.02 C 177.00 626.90 177.73 600.70 181.36 574.80 C 182.54 565.71 184.44 556.72 185.39 547.60 C 188.29 531.51 192.43 515.64 197.23 500.02 C 198.74 494.98 200.27 489.95 202.07 485.01 C 222.45 426.25 254.69 371.57 296.50 325.50 C 303.93 316.65 312.51 308.90 320.55 300.62 C 355.26 267.72 394.86 239.82 437.97 219.01 C 449.98 212.86 462.51 207.81 474.99 202.70 C 475.52 202.56 476.57 202.27 477.10 202.13 C 490.08 196.83 503.55 192.87 516.98 188.92 C 542.86 181.95 569.26 176.71 595.98 174.41 Z" />
<path fill="#001e68" opacity="1.00" d=" M 762.55 434.68 C 886.36 434.53 1010.17 434.71 1133.97 434.61 C 1144.90 434.82 1155.85 434.10 1166.75 435.15 C 1107.32 494.57 1047.89 553.99 988.46 613.41 C 986.09 615.74 983.91 618.30 981.19 620.24 C 908.32 620.15 835.45 620.31 762.58 620.16 C 762.59 558.33 762.64 496.51 762.55 434.68 Z" />
</g>
<g id="#00113c95">
<path fill="#00113c" opacity="0.58" d=" M 761.49 434.16 C 841.00 433.78 920.52 434.14 1000.03 433.94 C 1055.05 433.97 1110.08 434.08 1165.10 433.97 C 1166.18 434.06 1167.17 434.49 1168.06 435.24 L 1166.75 435.15 C 1155.85 434.10 1144.90 434.82 1133.97 434.61 C 1010.17 434.71 886.36 434.53 762.55 434.68 C 762.64 496.51 762.59 558.33 762.58 620.16 C 835.45 620.31 908.32 620.15 981.19 620.24 L 982.45 620.26 C 971.68 621.03 960.84 620.31 950.05 620.58 C 887.21 620.53 824.36 620.62 761.52 620.54 C 761.48 558.41 761.55 496.29 761.49 434.16 Z" />
</g>
<g id="#00113c93">
<path fill="#00113c" opacity="0.58" d=" M 181.06 570.88 C 182.19 563.08 182.83 555.11 185.39 547.60 C 184.44 556.72 182.54 565.71 181.36 574.80 C 177.73 600.70 177.00 626.90 177.25 653.02 C 175.68 650.27 176.14 647.03 176.09 644.02 C 176.29 636.01 175.70 627.98 176.72 620.01 C 177.15 603.57 178.56 587.14 181.06 570.88 Z" />
</g>
<g id="#f20029ff">
<path fill="#f20029" opacity="1.00" d=" M 761.70 654.75 C 762.23 654.48 763.29 653.95 763.82 653.69 C 770.88 653.98 777.99 653.19 785.00 654.14 C 789.61 653.32 794.32 653.86 798.98 653.73 C 826.34 653.71 853.70 653.72 881.06 653.72 C 884.71 653.75 888.38 653.44 892.00 654.14 C 893.63 653.70 895.36 653.60 897.00 654.20 C 902.61 653.17 908.35 653.95 914.02 653.72 C 920.67 653.95 927.38 653.21 934.00 654.15 C 936.64 653.53 939.34 653.55 942.00 654.13 C 949.61 653.21 957.32 653.95 964.98 653.73 C 967.82 653.71 970.66 653.74 973.52 653.65 L 973.54 654.31 C 974.28 654.31 975.74 654.31 976.47 654.31 L 976.51 653.48 C 978.91 653.59 981.58 653.72 983.26 655.73 C 1038.11 710.55 1092.96 765.39 1147.81 820.22 C 1154.22 826.98 1161.40 833.05 1167.28 840.29 C 1032.42 840.43 897.55 840.28 762.69 840.37 C 762.44 839.82 761.94 838.74 761.69 838.20 C 761.74 777.05 761.72 715.90 761.70 654.75 Z" />
</g>
<g id="#000f3685">
<path fill="#000f36" opacity="0.52" d=" M 570.53 1096.72 C 573.89 1096.93 577.24 1097.31 580.58 1097.74 C 604.83 1101.12 629.35 1101.89 653.80 1101.83 L 655.56 1102.13 C 650.15 1103.57 644.52 1102.78 639.01 1103.00 C 634.64 1103.17 630.30 1102.58 625.97 1102.22 C 610.88 1102.04 595.82 1100.74 580.88 1098.68 C 577.41 1098.12 573.77 1098.20 570.53 1096.72 Z" />
</g>
</svg>
