<?xml version="1.0" encoding="UTF-8" ?>
<!DOCTYPE svg PUBLIC "-//W3C//DTD SVG 1.1//EN" "http://www.w3.org/Graphics/SVG/1.1/DTD/svg11.dtd">
<svg width="1276pt" height="1276pt" viewBox="0 0 1276 1276" version="1.1" xmlns="http://www.w3.org/2000/svg">
<g id="#88888888">
<path fill="#888888" opacity="0.53" d=" M 548.05 181.11 C 569.15 176.78 590.51 173.85 612.00 172.64 C 617.12 171.63 622.40 172.01 627.58 172.34 C 623.59 174.01 619.16 172.97 614.98 173.34 C 589.10 174.78 563.30 178.29 538.06 184.26 C 537.89 184.15 537.55 183.92 537.39 183.81 C 537.46 183.54 537.62 183.00 537.69 182.72 C 541.23 183.03 544.61 181.70 548.05 181.11 Z" />
</g>
<g id="#ffffffff">
<path fill="#ffffff" opacity="1.00" d=" M 627.58 172.34 C 641.64 171.58 655.81 172.30 669.88 172.67 C 675.39 174.23 681.54 172.50 686.87 174.45 C 689.04 174.53 691.22 174.54 693.40 174.55 L 693.44 175.38 C 701.30 175.50 709.15 176.86 716.85 178.24 C 718.75 178.42 720.66 178.58 722.59 178.66 L 722.50 179.48 C 724.13 179.53 725.76 179.57 727.42 179.61 L 727.48 180.37 C 731.01 180.44 734.41 181.44 737.86 182.08 C 740.78 182.52 743.55 183.68 746.55 183.65 L 746.54 184.38 C 747.73 184.48 748.93 184.60 750.13 184.74 C 754.27 185.63 758.26 187.19 762.47 187.70 C 762.72 265.76 762.46 343.83 762.60 421.89 C 760.86 421.79 759.18 421.34 757.78 420.31 C 756.00 419.06 754.02 418.17 752.08 417.25 C 751.35 416.89 750.62 416.55 749.90 416.21 C 746.33 414.30 742.57 412.68 738.79 411.25 C 734.41 408.95 729.67 407.46 725.11 405.61 C 723.43 405.03 721.74 404.50 720.15 403.76 C 719.47 403.67 718.11 403.50 717.43 403.42 L 717.48 402.60 C 716.82 402.54 715.50 402.42 714.83 402.36 C 713.70 401.52 712.31 401.32 710.97 401.10 C 708.47 399.96 705.66 399.82 703.14 398.76 C 702.47 398.68 701.12 398.51 700.45 398.43 C 700.47 398.25 700.50 397.88 700.51 397.70 C 698.83 397.60 697.15 397.51 695.49 397.42 L 695.53 396.67 C 693.98 396.51 692.44 396.32 690.92 396.12 C 687.12 394.72 682.93 395.08 679.13 393.76 C 676.13 393.28 672.89 393.85 670.09 392.56 C 656.12 390.91 641.97 391.00 627.91 391.41 C 625.01 392.06 621.76 390.81 619.11 392.34 C 616.91 392.43 614.71 392.45 612.51 392.46 L 612.54 393.33 C 607.56 393.05 602.77 394.52 597.85 394.94 C 594.73 395.67 591.59 396.36 588.40 396.64 L 588.45 397.38 C 586.79 397.45 585.13 397.54 583.48 397.63 L 583.49 398.45 C 582.28 398.53 581.08 398.63 579.89 398.76 C 577.70 399.83 575.22 400.06 573.07 401.19 C 571.84 401.32 570.61 401.44 569.39 401.55 L 569.46 402.38 C 568.80 402.45 567.49 402.59 566.84 402.66 C 563.71 404.28 560.10 404.68 557.00 406.33 C 556.74 406.38 556.24 406.46 555.98 406.50 C 554.01 407.46 551.93 408.12 549.88 408.87 C 548.94 409.30 548.01 409.75 547.10 410.20 C 545.35 410.67 543.68 411.41 542.18 412.41 C 539.29 413.23 536.68 414.73 534.03 416.10 C 531.63 417.28 529.26 418.55 526.81 419.64 C 523.53 421.42 520.31 423.33 517.09 425.23 C 513.96 426.89 511.14 429.06 508.05 430.79 C 505.77 432.34 503.33 433.67 501.26 435.50 L 500.83 435.59 C 498.35 437.54 495.69 439.26 493.26 441.28 C 491.47 442.48 489.79 443.83 488.20 445.28 C 484.37 448.04 481.01 451.39 477.31 454.32 C 475.86 455.87 474.36 457.36 472.83 458.84 C 472.56 459.05 472.02 459.48 471.75 459.69 C 466.39 463.73 462.84 469.59 457.71 473.89 C 455.35 477.39 452.23 480.32 449.71 483.70 C 447.21 486.63 445.13 489.88 442.64 492.82 C 441.19 495.27 439.37 497.47 437.73 499.79 C 436.70 501.46 435.57 503.07 434.62 504.79 C 433.54 506.61 432.15 508.24 431.34 510.21 C 430.79 511.03 430.23 511.84 429.66 512.65 C 428.22 514.93 427.06 517.37 425.90 519.81 C 425.63 520.10 425.09 520.70 424.82 521.00 C 423.62 523.71 422.34 526.40 420.89 529.00 C 419.26 532.30 417.56 535.58 416.32 539.06 C 415.76 540.30 415.27 541.59 414.63 542.80 C 413.54 545.09 412.78 547.52 411.79 549.85 C 411.28 551.28 410.72 552.69 410.21 554.12 C 408.93 557.30 408.26 560.69 406.87 563.84 C 406.66 564.91 406.31 565.94 405.82 566.93 C 405.60 567.98 405.40 569.05 405.21 570.13 C 404.26 572.66 403.71 575.32 402.84 577.88 C 402.61 579.28 402.40 580.68 402.16 582.08 C 399.76 592.39 397.45 602.93 397.36 613.56 L 396.60 613.51 C 396.42 616.81 396.44 620.11 396.43 623.42 L 395.55 623.44 C 395.79 632.33 395.55 641.23 395.68 650.13 C 397.16 653.34 396.15 657.02 396.54 660.45 L 397.39 660.41 C 397.13 663.64 397.53 666.87 397.85 670.09 C 398.88 674.30 398.93 678.72 400.14 682.91 C 400.40 684.76 400.60 686.64 400.69 688.53 L 401.55 688.47 C 401.52 689.23 401.47 690.74 401.44 691.49 L 402.28 691.48 C 402.36 697.01 404.92 702.07 405.78 707.47 L 406.41 707.49 C 406.46 708.15 406.57 709.46 406.62 710.12 C 408.27 713.15 408.69 716.69 410.12 719.83 C 410.32 720.93 410.72 721.95 411.32 722.90 C 412.40 726.78 414.30 730.36 415.66 734.14 C 417.61 737.68 418.86 741.55 420.80 745.10 C 422.17 747.73 423.52 750.37 424.73 753.08 C 426.66 756.00 428.30 759.11 429.86 762.25 L 430.52 762.44 L 430.52 763.19 C 432.29 765.80 433.89 768.54 435.68 771.15 C 438.67 775.54 441.52 780.04 444.74 784.27 C 446.16 786.12 447.82 787.80 449.00 789.83 C 450.46 791.44 451.86 793.11 453.25 794.79 C 457.52 800.74 463.33 805.41 467.89 811.11 C 471.82 813.78 474.55 817.81 478.26 820.75 C 483.55 825.48 489.16 829.84 494.72 834.27 C 496.85 835.73 498.96 837.24 501.07 838.74 C 504.07 840.81 507.15 842.75 510.16 844.82 C 512.02 846.07 513.99 847.18 515.82 848.51 L 516.58 848.42 L 516.70 849.19 C 519.76 850.22 522.31 852.31 525.25 853.62 C 525.72 853.94 526.65 854.58 527.12 854.90 C 529.80 856.14 532.44 857.48 535.08 858.83 C 538.30 860.41 541.75 861.53 544.85 863.40 C 546.31 863.85 547.74 864.41 549.20 864.94 C 551.42 866.04 553.77 866.87 556.10 867.73 C 557.07 868.14 558.07 868.52 559.08 868.87 C 562.27 870.28 565.81 870.76 568.91 872.36 C 569.47 872.41 570.60 872.52 571.16 872.57 C 574.82 874.56 579.10 874.71 582.98 876.11 C 584.64 876.40 586.38 876.55 587.89 877.43 C 589.09 877.49 590.30 877.55 591.53 877.60 L 591.48 878.35 C 593.05 878.49 594.61 878.65 596.19 878.82 C 600.34 880.08 604.73 880.15 608.91 881.20 C 612.41 881.47 615.92 881.80 619.44 881.69 L 619.46 882.53 C 622.78 882.57 626.11 882.57 629.45 882.61 L 629.50 883.43 C 637.83 883.34 646.16 883.31 654.50 883.45 L 654.60 882.57 C 657.98 882.17 661.81 883.48 664.89 881.76 C 665.51 881.72 666.74 881.65 667.36 881.61 L 667.81 882.82 C 669.87 880.33 673.35 882.18 675.87 880.73 C 679.59 880.26 683.41 880.08 686.99 878.89 C 688.82 878.60 690.68 878.42 692.55 878.34 L 692.50 877.57 C 693.69 877.51 694.89 877.44 696.09 877.37 C 700.13 875.67 704.69 875.58 708.71 873.77 C 709.42 873.70 710.84 873.55 711.55 873.48 L 711.46 872.77 C 716.65 872.05 721.42 869.76 726.43 868.37 L 726.49 867.77 C 731.16 866.86 735.51 864.65 739.83 862.71 C 741.95 861.97 743.95 860.92 745.94 859.87 C 746.98 859.54 747.98 859.11 748.94 858.57 C 749.21 858.53 749.74 858.45 750.01 858.41 C 752.24 856.84 754.76 855.72 757.09 854.30 C 758.93 853.40 760.78 852.50 762.41 851.24 C 762.80 929.60 762.42 1007.97 762.60 1086.33 C 757.92 1087.54 753.26 1088.88 748.50 1089.69 L 748.44 1090.30 C 746.76 1090.35 745.11 1090.47 743.45 1090.57 L 743.52 1091.41 C 741.85 1091.49 740.19 1091.58 738.54 1091.66 L 738.53 1092.37 C 735.35 1092.66 732.24 1093.41 729.13 1094.12 C 727.38 1094.29 725.65 1094.50 723.92 1094.75 C 721.60 1095.88 718.93 1095.55 716.44 1095.68 L 716.51 1096.49 C 714.70 1096.62 712.77 1096.35 711.16 1097.34 C 702.87 1097.69 694.75 1099.99 686.43 1099.64 L 686.50 1100.45 C 683.48 1100.45 680.48 1100.47 677.47 1100.56 L 677.56 1101.40 C 670.01 1101.26 662.48 1101.88 654.94 1101.77 C 652.83 1102.98 650.32 1102.36 648.03 1102.51 C 642.01 1102.34 635.96 1102.79 629.97 1102.31 L 629.07 1101.76 C 623.86 1101.55 618.65 1101.83 613.45 1101.56 L 613.54 1100.68 C 607.85 1101.06 602.18 1100.30 596.50 1100.41 L 596.53 1099.61 C 588.12 1099.95 579.91 1097.45 571.52 1097.42 L 571.42 1096.67 C 569.08 1096.58 566.76 1096.36 564.43 1096.36 L 564.51 1095.54 C 562.86 1095.47 561.21 1095.40 559.58 1095.39 L 559.50 1094.62 C 557.62 1094.51 555.76 1094.30 553.90 1094.12 C 552.28 1093.69 550.65 1093.40 549.06 1092.93 C 547.52 1092.69 546.00 1092.50 544.47 1092.33 L 544.49 1091.64 C 542.83 1091.56 541.18 1091.47 539.53 1091.39 L 539.50 1090.57 C 538.28 1090.47 537.07 1090.38 535.87 1090.29 C 531.81 1089.07 527.69 1087.97 523.50 1087.37 L 523.41 1086.73 C 520.80 1086.71 518.40 1085.70 515.92 1085.04 C 513.64 1084.21 511.21 1083.85 508.96 1082.95 C 507.63 1082.65 506.25 1082.52 505.14 1081.70 C 504.58 1081.61 503.47 1081.44 502.91 1081.35 C 499.24 1079.32 494.75 1079.32 491.09 1077.20 C 490.09 1076.60 488.95 1076.42 487.84 1076.26 C 485.20 1075.18 482.47 1074.34 479.81 1073.33 C 478.81 1072.93 477.81 1072.57 476.80 1072.25 C 475.58 1071.69 474.35 1071.20 473.13 1070.71 C 471.00 1070.04 468.93 1069.21 466.87 1068.39 C 465.61 1067.80 464.37 1067.26 463.15 1066.66 C 460.35 1065.67 457.70 1064.34 454.96 1063.26 C 453.98 1062.81 452.99 1062.44 451.98 1062.16 C 449.79 1060.72 447.31 1059.86 445.04 1058.61 C 444.77 1058.61 444.22 1058.60 443.95 1058.60 C 443.43 1058.26 442.41 1057.59 441.89 1057.26 C 439.59 1056.16 437.29 1055.08 435.05 1053.89 C 431.72 1052.23 428.37 1050.59 425.05 1048.92 C 422.16 1047.49 419.55 1045.54 416.51 1044.42 C 415.71 1043.82 414.90 1043.25 414.09 1042.70 C 409.26 1040.36 404.68 1037.49 400.15 1034.63 L 399.73 1034.51 C 397.17 1032.97 394.68 1031.34 392.22 1029.68 C 391.38 1029.19 390.54 1028.71 389.71 1028.25 C 388.51 1027.43 387.32 1026.60 386.16 1025.76 C 385.33 1025.26 384.52 1024.77 383.70 1024.30 C 381.79 1022.88 379.78 1021.61 377.81 1020.31 C 375.50 1018.45 373.02 1016.85 370.57 1015.22 L 370.50 1014.75 C 369.61 1014.25 368.72 1013.75 367.85 1013.25 C 366.54 1012.14 365.18 1011.13 363.80 1010.14 C 363.53 1009.94 363.00 1009.53 362.73 1009.33 C 356.56 1004.87 350.65 1000.09 344.85 995.19 C 342.72 993.28 340.40 991.62 338.31 989.69 C 335.42 987.63 333.18 984.80 330.27 982.75 C 318.96 972.11 307.74 961.24 297.31 949.71 C 297.04 949.47 296.51 948.98 296.24 948.74 C 295.03 947.64 294.02 946.38 293.22 944.98 C 291.80 943.66 290.34 942.35 289.31 940.71 C 287.59 938.74 285.93 936.73 284.30 934.70 C 280.13 929.86 276.10 924.92 272.30 919.79 C 270.58 917.49 268.89 915.17 267.17 912.88 C 262.72 907.22 258.82 901.18 254.73 895.28 C 250.94 889.61 247.28 883.86 243.71 878.05 C 241.95 874.90 240.05 871.84 238.27 868.71 C 237.46 867.52 236.82 866.24 236.27 864.94 C 234.01 861.41 232.01 857.71 230.10 853.99 C 228.57 851.09 227.26 848.08 225.68 845.22 C 224.00 841.88 222.48 838.47 220.64 835.23 C 219.50 832.79 218.62 830.25 217.39 827.87 C 216.77 826.64 216.25 825.35 215.70 824.11 C 214.47 821.40 213.33 818.66 212.31 815.88 C 211.72 814.65 211.17 813.40 210.61 812.18 C 209.48 809.42 208.54 806.60 207.34 803.88 C 205.50 799.17 203.91 794.39 202.34 789.60 L 201.63 789.55 C 201.56 788.87 201.41 787.52 201.33 786.85 C 199.91 783.67 199.00 780.28 198.12 776.93 C 197.75 775.92 197.43 774.90 197.16 773.88 C 196.77 772.88 196.39 771.89 196.03 770.90 C 195.43 768.58 194.76 766.28 194.21 763.95 C 193.27 761.24 192.36 758.49 192.25 755.60 L 191.60 755.57 C 191.45 754.36 191.30 753.16 191.13 751.97 C 189.93 747.56 188.42 743.15 188.26 738.55 L 187.54 738.54 C 187.53 737.30 187.28 736.13 186.79 735.04 C 186.52 733.35 186.31 731.65 186.04 729.97 C 185.58 728.37 185.29 726.72 184.89 725.12 C 184.57 723.27 184.35 721.40 184.36 719.53 L 183.61 719.43 C 183.54 717.77 183.44 716.11 183.36 714.47 L 182.63 714.52 C 182.53 712.05 182.81 709.41 181.68 707.14 C 181.53 704.72 181.31 702.31 180.98 699.92 C 180.30 697.69 180.70 695.30 179.87 693.12 C 179.20 689.51 180.19 685.45 178.58 682.13 C 178.50 679.59 178.52 677.07 178.54 674.54 L 177.61 674.46 C 177.82 667.25 177.06 660.07 177.26 652.85 C 176.12 651.07 176.55 648.94 176.48 646.97 C 176.57 639.30 176.39 631.63 176.55 623.98 C 177.95 618.88 176.92 613.59 177.50 608.41 C 177.77 605.76 177.71 603.10 177.60 600.46 L 178.42 600.48 C 178.53 597.49 178.54 594.49 178.54 591.49 L 179.35 591.42 C 179.38 582.95 180.77 574.46 182.25 566.18 C 182.41 563.94 182.59 561.70 182.64 559.46 L 183.35 559.47 C 183.49 557.67 183.48 555.81 184.24 554.14 C 184.45 552.39 184.66 550.65 184.94 548.92 C 185.42 547.33 185.69 545.69 186.05 544.09 C 186.47 540.52 187.80 537.11 187.75 533.49 L 188.45 533.55 C 188.57 532.33 188.81 531.14 189.17 529.98 C 189.88 526.10 191.03 522.31 191.70 518.43 L 192.39 518.41 C 192.45 517.12 192.51 515.83 192.57 514.55 L 193.26 514.57 C 193.96 509.77 195.90 505.27 196.73 500.50 L 197.51 500.50 C 197.53 499.75 197.59 498.26 197.62 497.51 L 198.25 497.45 C 198.82 494.23 199.81 491.07 201.21 488.12 C 201.28 487.47 201.43 486.17 201.50 485.51 L 202.22 485.50 C 202.81 481.81 204.63 478.47 205.67 474.90 C 206.16 473.82 206.50 472.69 206.70 471.53 L 207.24 471.54 C 207.52 470.38 207.84 469.24 208.19 468.10 C 209.20 466.06 210.06 463.95 210.68 461.76 C 211.52 460.20 212.26 458.59 212.78 456.90 C 214.00 454.29 214.89 451.53 216.43 449.08 C 216.43 448.80 216.44 448.24 216.44 447.95 C 218.41 445.21 219.20 441.88 220.77 438.93 C 222.82 435.41 224.32 431.60 226.28 428.03 C 227.75 424.98 229.36 422.00 230.79 418.93 C 232.40 416.38 233.80 413.72 235.08 411.01 C 236.65 408.32 238.29 405.67 239.71 402.90 C 241.58 400.19 243.24 397.35 244.70 394.42 L 245.17 394.33 C 246.32 391.87 247.89 389.64 249.30 387.34 C 249.94 386.30 250.59 385.29 251.29 384.31 C 253.92 380.27 256.65 376.30 259.31 372.28 C 260.46 370.66 261.66 369.07 262.72 367.39 C 264.86 364.63 266.82 361.74 268.80 358.88 C 270.38 357.00 271.82 355.00 273.49 353.21 L 273.50 352.72 C 276.73 349.39 279.00 345.20 282.52 342.13 C 282.51 341.85 282.51 341.29 282.51 341.01 C 284.94 339.59 285.97 336.80 288.13 335.07 C 291.82 330.13 296.49 326.03 300.20 321.14 C 308.35 312.65 316.80 304.46 325.10 296.12 C 328.71 293.78 331.30 290.27 334.78 287.77 C 336.02 286.40 337.35 285.10 338.98 284.21 C 342.01 281.11 345.56 278.59 348.85 275.76 C 350.19 274.77 351.47 273.70 352.76 272.64 C 354.52 271.41 356.14 270.00 357.79 268.62 C 359.35 267.64 360.77 266.44 362.21 265.29 C 364.46 263.53 366.70 261.74 369.20 260.33 C 371.58 258.26 374.36 256.72 376.77 254.67 C 381.65 251.64 386.38 248.36 391.15 245.17 C 393.48 243.77 395.83 242.40 398.01 240.77 C 400.44 239.66 402.62 238.11 404.92 236.75 C 407.89 235.05 410.76 233.20 413.78 231.59 L 414.47 231.58 C 414.55 231.35 414.71 230.89 414.79 230.67 C 416.89 229.97 418.91 229.01 420.74 227.75 C 429.75 223.19 438.66 218.28 447.96 214.37 C 449.00 213.85 450.03 213.30 450.96 212.58 C 451.23 212.56 451.77 212.51 452.04 212.49 C 454.93 210.77 458.19 209.81 461.23 208.38 C 462.14 207.87 463.10 207.46 464.11 207.16 C 465.08 206.74 466.06 206.35 467.06 205.99 C 468.67 205.30 470.30 204.63 471.93 203.96 C 473.03 203.78 474.01 203.35 474.88 202.67 C 475.89 202.38 476.91 202.08 477.93 201.77 C 480.49 200.54 483.26 199.87 485.87 198.77 C 489.51 197.39 493.24 196.23 496.93 194.97 C 499.07 194.27 501.21 193.52 503.48 193.30 L 503.41 192.60 C 504.09 192.51 505.46 192.34 506.14 192.25 C 509.53 190.53 513.61 190.62 516.87 188.65 C 518.07 188.55 519.28 188.46 520.49 188.40 L 520.58 187.66 C 524.56 187.58 528.10 185.43 532.07 185.22 C 533.74 184.72 535.44 184.31 537.05 183.59 L 537.39 183.81 C 537.55 183.92 537.89 184.15 538.06 184.26 C 563.30 178.29 589.10 174.78 614.98 173.34 C 619.16 172.97 623.59 174.01 627.58 172.34 Z" />
<path fill="#ffffff" opacity="1.00" d=" M 761.66 434.45 C 805.76 434.03 849.88 434.39 893.99 434.27 C 981.30 434.27 1068.61 434.27 1155.92 434.27 C 1159.93 434.37 1163.99 433.92 1167.96 434.72 C 1165.19 436.25 1163.20 438.76 1160.97 440.94 C 1101.10 500.77 1041.27 560.64 981.39 620.46 C 908.49 620.41 835.60 620.39 762.70 620.47 C 762.44 620.18 761.90 619.59 761.63 619.30 C 761.77 614.37 761.76 609.44 761.63 604.51 L 763.17 604.00 L 761.62 603.49 C 761.77 588.83 761.77 574.17 761.63 559.51 L 763.17 559.00 L 761.63 558.49 C 761.78 551.14 761.75 543.79 761.64 536.44 L 763.23 536.03 L 761.62 535.47 C 761.78 508.15 761.77 480.83 761.63 453.51 L 763.16 453.00 L 761.62 452.48 C 761.79 446.47 761.72 440.46 761.66 434.45 Z" />
</g>
<g id="#f20029ff">
<path fill="#f20029" opacity="1.00" d=" M 761.68 654.78 C 762.22 654.51 763.29 653.97 763.83 653.70 C 772.55 654.00 781.33 653.13 790.01 654.25 C 794.55 653.07 799.33 654.01 803.98 653.72 C 807.64 653.97 811.46 653.09 815.01 654.28 C 816.86 653.60 819.49 652.93 821.00 654.63 C 823.71 653.02 828.06 653.33 830.99 654.46 C 831.46 654.28 832.40 653.91 832.87 653.72 C 837.23 653.86 841.68 653.26 845.99 654.15 C 848.27 653.55 850.66 653.69 853.01 653.70 C 863.69 653.78 874.37 653.61 885.06 653.79 C 887.32 654.70 889.65 653.53 891.99 653.70 C 902.34 653.72 912.70 653.74 923.05 653.69 C 924.38 653.65 925.70 653.82 927.01 654.17 C 932.58 653.42 938.43 653.41 944.00 654.18 C 947.55 653.60 951.60 653.07 955.00 654.42 C 957.40 653.03 960.35 653.94 963.00 653.72 C 967.32 654.02 971.80 653.05 976.02 654.27 C 978.18 653.08 981.03 653.48 982.78 655.25 C 1043.84 716.24 1104.83 777.32 1165.93 838.28 C 1166.17 838.80 1166.66 839.85 1166.90 840.37 C 1059.60 840.31 952.30 840.36 845.00 840.34 C 817.53 840.42 790.06 840.20 762.59 840.45 C 761.13 837.49 761.85 834.13 761.71 830.97 C 761.70 776.30 761.75 721.63 761.69 666.97 C 761.91 665.33 761.04 663.13 762.62 662.00 C 760.82 660.14 762.02 657.12 761.68 654.78 Z" />
</g>
</svg>
