<?xml version="1.0" encoding="UTF-8" ?>
<!DOCTYPE svg PUBLIC "-//W3C//DTD SVG 1.1//EN" "http://www.w3.org/Graphics/SVG/1.1/DTD/svg11.dtd">
<svg width="1276pt" height="1276pt" viewBox="0 0 1276 1276" version="1.1" xmlns="http://www.w3.org/2000/svg">
<g id="#008a32ff">
<path fill="#008a32" opacity="1.00" d=" M 758.04 141.16 C 781.01 137.26 805.32 143.87 823.55 158.27 C 826.98 160.49 830.26 162.91 833.08 165.90 C 861.50 192.14 889.75 218.60 918.31 244.70 C 931.72 255.75 944.21 268.64 951.34 284.73 C 954.59 291.98 956.95 299.67 958.16 307.53 C 960.12 346.67 963.08 385.75 966.11 424.81 C 966.70 434.19 968.04 443.57 967.26 452.99 C 964.84 485.34 951.95 517.03 930.20 541.21 C 910.95 562.85 885.21 577.92 857.96 587.18 C 849.06 590.56 839.42 591.26 829.99 591.14 C 815.43 590.63 800.88 588.42 786.97 584.05 C 780.92 582.19 775.38 579.09 769.63 576.53 C 738.53 562.23 707.60 547.54 676.40 533.49 C 670.69 530.40 665.41 526.61 660.27 522.67 C 655.95 524.34 651.50 525.61 647.10 527.04 C 648.82 593.50 651.05 659.95 652.92 726.41 C 660.18 713.67 668.69 701.51 679.45 691.46 C 702.39 669.15 734.18 657.07 765.99 656.34 C 787.18 655.55 808.35 660.03 827.84 668.25 C 859.09 678.68 890.28 689.31 921.62 699.47 C 951.15 710.20 976.63 732.18 990.63 760.41 C 1001.65 782.40 1005.42 807.58 1003.04 831.96 C 999.41 868.36 983.51 902.36 963.51 932.55 C 959.23 939.65 953.23 945.46 947.32 951.19 C 930.23 967.38 909.24 980.15 885.93 984.72 C 883.42 1004.34 878.77 1023.75 871.42 1042.14 C 865.12 1057.84 856.76 1072.86 845.67 1085.70 C 834.47 1098.84 820.21 1109.47 804.14 1115.89 C 787.61 1122.86 769.51 1123.93 751.95 1126.42 C 734.31 1128.69 716.65 1130.78 698.99 1132.81 C 690.16 1133.99 681.21 1134.29 672.51 1136.26 C 660.45 1138.59 648.10 1137.62 635.96 1136.55 C 572.86 1131.00 509.88 1124.22 446.83 1118.16 C 437.39 1117.43 428.19 1114.61 419.94 1109.99 C 404.56 1101.43 392.14 1088.42 381.68 1074.44 C 374.50 1064.92 368.43 1054.62 362.85 1044.11 C 352.69 1034.51 347.12 1021.19 344.11 1007.76 C 341.63 996.39 340.24 984.69 340.75 973.05 C 342.81 961.48 343.94 949.08 339.48 937.91 C 337.23 932.00 332.00 927.41 325.75 926.21 C 318.24 924.80 310.71 922.87 304.04 919.02 C 292.59 912.77 283.94 902.19 278.80 890.32 C 273.71 878.64 271.43 865.76 272.20 853.05 C 277.56 742.68 283.00 632.32 288.48 521.95 C 289.75 498.13 302.38 474.35 323.56 462.55 C 328.31 459.46 334.28 458.48 338.32 454.32 C 344.94 448.60 349.27 440.69 351.63 432.35 C 355.74 417.88 357.59 402.87 359.47 387.98 C 362.78 367.18 374.45 347.88 391.28 335.24 C 395.27 332.43 399.74 330.39 403.99 328.02 C 514.50 268.47 625.04 208.95 735.59 149.46 C 742.52 145.42 750.13 142.54 758.04 141.16 M 762.13 167.66 C 754.25 168.95 747.73 173.82 740.64 177.13 C 749.77 184.42 755.58 195.21 758.20 206.46 C 761.20 258.82 765.18 311.12 768.83 363.43 C 768.88 378.79 764.46 393.97 757.75 407.70 C 748.31 427.01 731.93 443.11 711.74 450.89 C 696.95 456.44 680.51 459.58 664.90 455.73 C 656.02 453.71 648.13 448.80 641.37 442.83 C 648.81 464.44 659.26 485.99 676.70 501.33 C 682.97 507.07 690.72 510.73 698.65 513.60 C 710.43 517.11 723.19 516.23 734.86 512.66 C 760.18 504.77 784.44 492.11 803.51 473.44 C 828.88 448.73 844.01 413.54 843.70 378.06 C 840.06 330.39 836.03 282.73 833.46 234.97 C 833.28 213.29 823.21 191.33 805.57 178.37 C 793.18 169.53 777.30 164.64 762.13 167.66 M 708.21 196.13 C 703.10 197.15 698.25 199.16 693.72 201.70 C 598.64 252.88 503.75 304.42 408.80 355.84 C 396.59 363.88 388.97 377.72 386.26 391.87 C 384.22 406.66 382.56 421.57 378.78 436.05 C 375.44 449.47 369.03 462.33 358.93 471.94 C 354.16 476.22 349.51 481.18 343.11 482.90 C 326.68 488.83 316.47 505.93 315.65 522.91 C 310.23 632.94 304.72 742.96 299.34 852.99 C 298.55 864.36 300.83 876.24 307.12 885.87 C 311.79 893.03 319.60 897.85 328.01 899.17 C 342.16 901.43 355.40 909.99 362.18 922.77 C 370.95 938.96 371.05 958.29 367.86 976.01 C 367.67 988.53 369.65 1001.24 374.05 1013.01 C 376.36 1018.50 379.68 1025.09 386.20 1026.14 C 422.06 1029.14 458.01 1031.03 493.94 1033.20 C 521.31 1034.57 548.67 1036.21 576.07 1036.90 C 591.23 1037.90 606.88 1035.59 620.41 1028.44 C 627.10 1024.79 633.95 1019.77 636.27 1012.15 C 638.01 1006.22 639.84 1000.29 641.09 994.23 C 643.54 973.90 644.32 953.22 649.52 933.33 C 654.31 915.62 663.34 898.42 677.92 886.88 C 686.28 880.34 696.26 875.15 707.05 874.65 C 721.84 872.90 735.87 866.57 747.79 857.77 C 753.18 853.54 758.89 849.24 761.89 842.88 C 771.47 824.52 771.61 802.88 769.14 782.78 C 767.86 770.78 763.68 758.63 755.10 749.87 C 749.61 744.04 742.00 740.36 734.05 739.53 C 719.58 738.15 704.28 741.59 692.80 750.79 C 680.20 760.84 672.01 775.75 668.28 791.27 C 665.85 808.80 664.17 826.43 662.42 844.05 C 661.61 851.86 659.27 859.51 655.41 866.35 C 646.08 882.97 629.59 894.23 612.37 901.53 C 606.47 903.82 600.51 906.65 594.05 906.65 C 560.70 908.70 527.37 910.96 493.99 912.37 C 487.32 912.45 480.66 913.00 474.00 912.70 C 461.63 912.03 449.85 905.40 442.74 895.28 C 433.48 882.19 429.86 865.85 429.58 850.03 C 430.31 722.04 431.11 594.04 431.65 466.06 C 432.73 449.19 436.73 431.77 447.24 418.16 C 452.50 411.30 459.52 405.91 467.37 402.33 C 504.56 384.35 541.45 365.77 578.52 347.57 C 588.02 344.63 598.13 343.83 608.04 344.37 C 619.84 345.16 632.16 349.71 639.31 359.59 C 645.97 368.29 646.26 379.66 648.70 389.92 C 651.12 399.93 651.26 410.95 657.30 419.70 C 661.41 426.01 668.57 430.02 676.07 430.45 C 686.37 431.04 696.72 428.43 706.04 424.13 C 720.86 417.16 731.55 403.31 736.87 388.06 C 740.03 378.77 742.54 368.90 741.28 359.03 C 737.77 309.76 734.08 260.50 731.28 211.18 C 730.18 206.52 727.98 201.90 724.37 198.68 C 719.94 194.90 713.60 194.96 708.21 196.13 M 860.26 227.89 C 862.98 277.29 867.10 326.60 870.81 375.94 C 871.03 404.33 863.08 432.62 849.20 457.32 C 833.66 485.10 809.33 507.41 781.31 522.23 C 770.65 528.12 759.21 532.34 747.94 536.82 C 763.38 543.65 778.49 551.23 793.99 557.94 C 807.49 562.32 821.76 564.66 835.97 564.55 C 844.43 564.63 852.25 561.07 859.96 558.02 C 882.42 548.76 903.05 534.19 917.49 514.47 C 934.00 491.85 942.95 463.10 939.64 435.09 C 936.51 393.65 933.33 352.22 931.06 310.73 C 929.24 299.51 924.08 288.92 916.63 280.36 C 911.66 274.35 905.57 269.45 899.77 264.29 C 886.57 252.19 873.53 239.91 860.26 227.89 M 592.79 371.72 C 587.75 372.14 583.52 375.06 579.08 377.18 C 548.67 392.43 518.21 407.58 487.62 422.45 C 481.15 425.73 473.71 428.04 469.18 434.09 C 461.33 444.23 459.32 457.50 458.64 469.96 C 458.01 596.65 457.40 723.35 456.63 850.04 C 456.98 859.96 458.67 870.35 464.16 878.83 C 466.96 883.12 471.70 886.23 476.95 886.12 C 513.31 884.95 549.63 882.58 585.95 880.33 C 589.58 880.09 593.34 880.17 596.79 878.83 C 605.15 875.82 613.25 871.83 620.24 866.27 C 627.68 860.56 633.48 852.46 635.21 843.12 C 601.11 846.39 567.05 850.18 532.95 853.57 C 527.53 854.30 521.86 851.69 519.10 846.94 C 516.43 842.78 517.49 837.66 517.27 833.02 C 516.60 720.02 516.36 607.02 515.73 494.02 C 515.79 487.69 515.50 481.36 515.78 475.04 C 515.89 469.56 520.17 465.08 525.01 463.07 C 556.94 450.00 588.88 436.96 620.81 423.88 C 623.37 422.77 626.20 423.26 628.90 423.46 C 626.46 418.10 625.04 412.35 624.27 406.53 C 622.62 397.69 620.75 388.90 619.04 380.08 C 618.56 377.11 617.06 374.08 614.11 372.93 C 607.41 370.01 599.84 370.91 592.79 371.72 M 565.06 475.89 C 587.24 484.73 609.41 493.58 631.59 502.44 C 634.55 503.89 637.57 501.67 640.49 501.08 C 630.26 486.95 622.55 471.11 616.75 454.69 C 599.50 461.72 582.29 468.83 565.06 475.89 M 543.13 495.95 C 543.43 605.82 543.89 715.68 544.39 825.54 C 572.46 822.36 600.62 819.86 628.68 816.61 C 625.49 719.93 622.68 623.24 619.69 526.56 C 594.16 516.38 568.67 506.09 543.13 495.95 M 729.85 690.58 C 713.57 697.06 699.11 708.00 688.34 721.82 C 702.02 714.81 717.60 711.75 732.92 712.52 C 744.98 713.14 756.92 717.12 766.71 724.25 C 781.40 734.74 790.67 751.53 794.52 768.93 C 797.92 786.70 798.72 805.05 796.14 822.98 C 794.07 836.69 789.71 850.28 781.88 861.82 C 777.78 868.26 771.73 873.08 765.87 877.82 C 748.67 891.13 727.74 899.87 706.02 901.80 C 700.41 903.04 695.71 906.78 691.67 910.70 C 680.80 921.83 675.70 937.20 673.24 952.25 C 671.18 965.81 669.90 979.48 668.59 993.13 C 667.88 1001.95 665.00 1010.38 662.67 1018.86 C 660.03 1028.51 653.94 1036.96 646.31 1043.33 C 633.52 1054.00 617.35 1059.92 601.07 1062.67 C 587.81 1064.99 574.35 1063.52 561.00 1063.33 C 507.45 1060.94 453.94 1057.75 400.46 1054.14 C 406.87 1063.05 413.82 1071.66 422.19 1078.82 C 429.25 1084.84 437.56 1090.07 446.97 1091.14 C 507.64 1097.02 568.24 1103.55 628.95 1109.04 C 640.76 1109.94 652.68 1111.84 664.52 1110.25 C 669.22 1108.90 674.22 1108.72 678.78 1106.82 C 692.95 1101.76 704.48 1091.35 713.73 1079.74 C 726.38 1063.54 734.98 1044.55 741.41 1025.13 C 747.35 1006.54 751.77 987.37 753.35 967.90 C 754.10 961.94 759.65 957.38 765.46 956.73 C 770.29 956.60 775.14 956.25 779.85 955.02 C 803.94 948.95 824.41 933.03 840.52 914.59 C 858.56 888.32 873.64 859.41 880.60 828.12 C 886.29 802.84 885.65 775.65 875.68 751.51 C 866.09 727.71 847.34 708.04 824.62 696.33 C 818.11 692.71 810.77 691.11 803.89 688.39 C 798.80 686.29 793.33 685.41 787.94 684.44 C 768.50 681.45 748.14 683.09 729.85 690.58 M 887.07 716.42 C 905.62 742.46 913.25 775.34 911.11 807.02 C 908.44 845.90 892.73 882.67 872.36 915.45 C 867.79 922.43 863.73 929.87 857.80 935.83 C 850.23 943.95 841.91 951.35 833.11 958.11 C 846.75 958.30 860.39 958.72 874.04 958.87 C 881.35 958.95 888.48 956.85 895.24 954.21 C 911.52 947.53 925.53 936.20 937.20 923.16 C 942.04 916.82 946.02 909.87 950.11 903.03 C 964.17 878.56 975.00 851.44 976.38 822.97 C 977.44 802.54 972.82 781.59 961.79 764.23 C 950.19 745.80 932.03 731.86 911.62 724.47 C 903.48 721.66 895.16 719.37 887.07 716.42 M 774.29 1007.59 C 766.23 1041.62 753.09 1075.41 730.08 1102.22 C 739.09 1101.03 748.13 1100.09 757.13 1098.82 C 769.61 1096.97 782.45 1095.99 794.15 1090.88 C 814.08 1082.76 829.41 1066.12 839.34 1047.37 C 849.62 1028.21 855.20 1006.91 858.47 985.53 C 831.87 984.78 805.27 984.17 778.68 983.51 C 777.65 991.61 776.09 999.63 774.29 1007.59 Z" />
</g>
</svg>
