<?xml version="1.0" encoding="UTF-8" ?>
<!DOCTYPE svg PUBLIC "-//W3C//DTD SVG 1.1//EN" "http://www.w3.org/Graphics/SVG/1.1/DTD/svg11.dtd">
<svg width="1276pt" height="1276pt" viewBox="0 0 1276 1276" version="1.1" xmlns="http://www.w3.org/2000/svg">
<g id="#ffffffff">
<path fill="#ffffff" opacity="1.00" d=" M 740.20 147.00 C 766.43 134.24 799.15 139.83 822.00 157.11 C 825.11 159.63 828.80 161.40 831.51 164.41 C 860.25 191.04 888.90 217.76 917.78 244.24 C 930.15 254.50 941.90 266.05 949.29 280.52 C 953.73 289.11 956.82 298.44 958.21 308.02 C 959.96 344.02 962.66 379.96 965.43 415.89 C 966.14 429.53 968.53 443.20 966.92 456.87 C 963.75 488.37 950.65 518.99 929.16 542.36 C 910.02 563.40 884.72 578.09 857.94 587.18 C 845.24 591.92 831.39 591.58 818.10 590.37 C 802.26 588.59 786.31 585.27 772.14 577.70 C 742.98 564.24 713.90 550.61 684.72 537.21 C 675.77 533.89 667.77 528.55 660.33 522.66 C 656.00 524.34 651.52 525.59 647.10 527.03 C 648.75 593.61 651.21 660.16 652.81 726.74 C 661.50 710.88 672.75 696.29 686.87 684.89 C 720.08 657.51 767.04 649.97 808.07 661.38 C 817.11 663.63 825.52 667.71 834.40 670.46 C 859.97 679.00 885.52 687.62 911.12 696.09 C 937.74 703.39 962.06 719.30 978.76 741.36 C 989.90 755.93 997.50 773.12 1001.10 791.09 C 1005.72 813.85 1003.95 837.59 997.86 859.90 C 990.21 887.98 976.36 913.99 959.92 937.86 C 940.85 960.52 915.21 978.66 885.98 984.91 C 882.93 1007.22 877.45 1029.35 868.11 1049.90 C 860.55 1066.60 850.32 1082.28 836.91 1094.87 C 824.67 1106.43 809.63 1114.99 793.44 1119.59 C 783.01 1122.69 772.14 1123.65 761.43 1125.22 C 737.01 1128.37 712.58 1131.34 688.11 1134.02 C 676.35 1134.92 664.88 1138.48 652.98 1137.68 C 628.95 1136.40 605.03 1133.57 581.07 1131.47 C 542.70 1127.76 504.36 1123.78 466.00 1120.03 C 453.35 1118.33 440.14 1118.85 428.15 1113.88 C 410.88 1106.92 397.03 1093.68 385.48 1079.40 C 376.78 1068.48 369.35 1056.58 362.94 1044.19 C 349.10 1031.13 343.99 1011.80 341.63 993.52 C 340.96 985.33 339.75 976.97 341.41 968.83 C 342.91 959.95 343.15 950.71 340.87 941.94 C 339.47 936.82 336.81 931.69 332.17 928.82 C 326.99 925.51 320.59 925.66 314.93 923.66 C 301.74 919.70 290.31 910.60 283.23 898.81 C 274.76 884.88 271.14 868.20 272.26 851.98 C 277.61 741.64 283.05 631.31 288.53 520.97 C 289.89 502.46 297.69 484.05 311.49 471.39 C 317.93 465.33 325.71 460.88 333.88 457.62 C 338.30 454.99 341.88 451.09 344.90 446.97 C 351.00 438.19 353.13 427.46 355.18 417.17 C 356.69 408.44 358.17 399.69 359.06 390.87 C 361.42 371.36 371.17 352.92 385.76 339.79 C 388.80 337.08 391.94 334.43 395.57 332.56 C 510.43 270.67 625.29 208.78 740.20 147.00 M 762.09 167.67 C 754.24 168.95 747.75 173.82 740.68 177.10 C 746.02 181.58 750.50 187.09 753.51 193.39 C 756.24 199.21 758.82 205.41 758.55 211.97 C 761.44 262.51 765.33 312.98 768.83 363.47 C 768.87 378.82 764.46 393.98 757.75 407.70 C 748.23 427.18 731.65 443.37 711.25 451.08 C 695.92 456.75 678.78 459.82 662.78 455.17 C 654.70 452.99 647.71 448.24 641.37 442.93 C 645.82 455.66 651.13 468.17 658.40 479.56 C 665.53 490.77 674.49 501.16 685.98 508.06 C 693.20 511.66 700.73 515.13 708.93 515.57 C 724.54 517.22 739.57 511.60 753.73 505.76 C 773.13 497.60 791.30 486.09 805.99 470.94 C 829.89 446.38 844.03 412.29 843.70 377.95 C 839.82 327.64 835.63 277.35 833.00 226.95 C 830.47 207.17 820.12 187.82 803.21 176.75 C 791.20 168.98 776.31 164.80 762.09 167.67 M 708.15 196.14 C 702.81 197.19 697.78 199.39 693.05 202.06 C 599.49 252.40 506.15 303.16 412.70 353.70 C 401.46 359.03 393.79 369.86 389.29 381.15 C 385.88 389.36 385.57 398.31 384.21 406.99 C 382.22 420.81 380.06 434.78 374.95 447.85 C 369.72 461.43 359.83 472.93 347.85 481.03 C 343.28 482.89 338.53 484.48 334.49 487.42 C 323.19 495.10 316.79 508.55 315.70 521.95 C 310.25 632.29 304.74 742.63 299.34 852.98 C 298.55 864.36 300.83 876.26 307.14 885.89 C 311.82 893.06 319.66 897.88 328.09 899.19 C 341.74 901.41 354.59 909.43 361.49 921.58 C 370.37 936.95 371.17 955.69 368.32 972.85 C 367.08 978.78 368.14 984.85 368.69 990.81 C 370.11 1000.49 371.98 1010.43 377.00 1018.97 C 379.23 1022.91 383.12 1026.35 387.88 1026.32 C 443.86 1030.60 499.94 1033.67 556.03 1036.28 C 571.38 1036.35 586.97 1038.65 602.11 1035.08 C 612.78 1032.56 623.56 1028.32 631.38 1020.38 C 636.46 1015.37 637.26 1008.00 639.34 1001.53 C 642.14 992.66 641.95 983.29 643.15 974.16 C 644.83 959.67 645.98 945.00 650.19 930.97 C 654.26 917.02 660.99 903.63 671.09 893.07 C 679.52 884.45 690.20 877.47 702.16 875.18 C 722.97 873.82 742.74 863.96 757.48 849.41 C 762.34 843.64 765.20 836.46 767.25 829.28 C 771.53 812.92 771.15 795.69 768.59 779.09 C 767.24 769.27 763.45 759.66 757.07 752.02 C 751.53 745.32 743.55 740.69 734.89 739.63 C 721.10 738.14 706.48 740.94 695.08 749.11 C 682.87 757.69 674.74 771.00 670.01 784.95 C 667.65 791.39 667.40 798.31 666.54 805.05 C 665.47 813.71 664.63 822.39 663.68 831.06 C 662.72 840.66 662.42 850.56 658.64 859.59 C 653.12 873.58 642.02 884.64 629.51 892.62 C 619.99 898.51 609.71 903.32 598.88 906.21 C 570.96 908.23 543.00 909.84 515.04 911.40 C 502.03 911.99 489.02 912.74 476.00 912.79 C 463.21 912.69 450.71 906.25 443.19 895.90 C 433.58 882.72 429.86 866.09 429.58 850.01 C 430.30 726.34 431.01 602.67 431.62 479.00 C 431.00 462.84 432.89 446.27 439.43 431.35 C 444.60 419.44 453.61 408.98 465.41 403.30 C 502.81 385.14 540.03 366.59 577.28 348.11 C 581.94 345.94 587.16 345.64 592.16 344.77 C 604.01 343.50 616.61 343.95 627.41 349.52 C 636.47 354.07 643.19 362.88 645.26 372.80 C 647.71 384.52 649.90 396.29 652.26 408.03 C 654.24 416.42 659.23 424.75 667.40 428.31 C 676.02 432.02 685.78 430.57 694.59 428.32 C 707.37 425.11 719.02 417.54 726.85 406.91 C 735.77 394.85 740.76 379.97 741.64 365.06 C 738.17 313.85 734.13 262.67 731.32 211.42 C 730.34 206.88 728.22 202.45 724.91 199.16 C 720.49 194.93 713.78 194.89 708.15 196.14 M 860.25 227.91 C 863.00 277.31 867.10 326.62 870.82 375.95 C 871.01 404.81 862.83 433.56 848.50 458.55 C 833.18 485.34 809.66 506.96 782.59 521.54 C 771.51 527.74 759.62 532.27 747.80 536.80 C 763.02 543.47 777.89 550.89 793.09 557.59 C 803.68 561.39 814.88 563.22 826.04 564.27 C 832.98 564.73 840.14 564.98 846.87 562.90 C 868.54 555.78 889.21 544.57 905.47 528.39 C 927.46 506.66 940.64 475.98 940.37 445.01 C 937.06 400.33 933.49 355.67 931.07 310.94 C 929.80 302.73 926.69 294.82 922.22 287.83 C 914.46 275.44 902.17 267.12 891.92 257.02 C 881.31 247.37 870.94 237.46 860.25 227.91 M 584.38 374.48 C 548.68 392.50 512.84 410.25 476.84 427.66 C 471.67 430.39 467.82 435.10 465.24 440.26 C 459.37 452.22 458.36 465.86 458.59 478.98 C 457.99 602.67 457.37 726.35 456.63 850.03 C 456.95 859.72 458.61 869.78 463.73 878.17 C 466.67 883.13 472.13 886.56 478.01 886.14 C 516.40 884.69 554.76 882.39 593.08 879.79 C 601.08 877.88 608.59 874.05 615.53 869.68 C 625.01 863.62 633.16 854.49 635.22 843.13 C 603.47 846.17 571.75 849.65 540.01 852.87 C 535.13 853.24 529.94 854.60 525.27 852.46 C 520.90 850.45 517.46 846.01 517.34 841.11 C 517.09 820.06 517.36 799.00 516.89 777.96 C 516.65 677.65 516.08 577.34 515.68 477.03 C 515.12 470.80 519.48 465.22 525.09 463.02 C 556.99 449.99 588.89 436.95 620.78 423.89 C 623.35 422.75 626.21 423.26 628.93 423.46 C 627.13 419.53 625.81 415.38 625.03 411.13 C 623.52 401.40 621.25 391.81 619.47 382.14 C 618.85 379.28 618.45 375.97 615.97 374.06 C 611.94 371.18 606.74 370.98 601.97 370.92 C 596.02 371.36 589.68 371.35 584.38 374.48 M 565.02 475.92 C 587.95 484.91 610.75 494.23 633.69 503.21 C 635.93 502.43 638.21 501.76 640.49 501.09 C 630.26 486.95 622.56 471.10 616.73 454.68 C 599.49 461.76 582.25 468.81 565.02 475.92 M 543.12 495.96 C 543.42 605.82 543.93 715.67 544.37 825.53 C 572.44 822.40 600.59 819.82 628.66 816.65 C 625.57 719.99 622.57 623.32 619.76 526.66 C 594.25 516.33 568.69 506.13 543.12 495.96 M 729.87 690.57 C 713.59 697.06 699.10 707.98 688.35 721.82 C 703.87 713.89 721.85 710.88 739.12 713.15 C 754.69 715.31 769.30 723.64 779.06 735.97 C 788.48 747.70 794.09 762.25 795.92 777.13 C 798.96 799.69 798.54 823.32 790.56 844.88 C 786.73 854.74 781.51 864.45 773.41 871.47 C 754.74 888.62 730.44 899.74 705.13 901.96 C 698.34 904.13 692.75 909.02 688.33 914.47 C 679.51 925.44 675.30 939.32 673.11 953.03 C 671.15 966.31 669.88 979.67 668.60 993.03 C 667.89 1002.06 664.91 1010.69 662.51 1019.38 C 659.89 1028.58 654.10 1036.66 646.88 1042.85 C 634.02 1053.81 617.62 1059.88 601.11 1062.66 C 587.85 1065.00 574.38 1063.51 561.02 1063.33 C 507.46 1060.94 453.94 1057.78 400.46 1054.13 C 409.08 1066.07 418.74 1077.76 431.43 1085.56 C 437.30 1089.22 444.09 1091.22 450.99 1091.56 C 515.32 1097.74 579.57 1104.79 643.95 1110.36 C 652.25 1110.93 660.81 1111.55 668.90 1109.22 C 684.44 1107.11 697.85 1097.47 708.24 1086.16 C 722.02 1071.12 731.38 1052.59 738.45 1033.60 C 745.20 1015.04 750.00 995.74 752.55 976.15 C 753.30 971.82 752.51 966.97 755.09 963.16 C 757.48 959.39 761.74 956.95 766.18 956.66 C 777.60 956.71 788.67 952.97 798.82 947.99 C 814.84 939.86 828.86 928.09 840.56 914.54 C 858.58 888.27 873.66 859.37 880.61 828.09 C 885.99 804.04 885.72 778.31 877.05 755.05 C 867.12 727.60 845.17 705.03 818.48 693.47 C 809.35 690.63 800.61 686.48 791.10 684.99 C 770.71 681.26 749.15 682.71 729.87 690.57 M 886.98 716.44 C 901.64 736.58 909.29 761.31 911.12 786.02 C 912.80 811.29 908.08 836.67 899.52 860.41 C 892.01 881.26 881.64 901.00 869.71 919.66 C 866.11 925.04 862.88 930.76 858.24 935.35 C 850.55 943.66 842.08 951.23 833.10 958.12 C 844.73 958.26 856.35 958.61 867.98 958.78 C 873.70 958.95 879.52 959.06 885.09 957.48 C 904.32 952.68 920.80 940.43 934.33 926.31 C 939.13 921.57 942.35 915.59 945.97 909.97 C 961.08 885.31 973.12 858.02 975.96 828.98 C 978.09 807.58 974.32 785.28 963.27 766.66 C 953.80 750.55 939.37 737.54 922.68 729.25 C 911.39 723.41 898.86 720.76 886.98 716.44 M 778.67 983.51 C 775.40 1007.58 768.91 1031.22 759.50 1053.61 C 752.10 1071.13 742.52 1087.83 730.07 1102.25 C 739.34 1100.98 748.66 1100.04 757.93 1098.71 C 770.15 1096.94 782.70 1095.87 794.15 1090.87 C 814.14 1082.73 829.50 1066.02 839.43 1047.20 C 849.65 1028.08 855.22 1006.85 858.47 985.53 C 831.87 984.77 805.27 984.18 778.67 983.51 Z" />
</g>
<g id="#0c6d0bff">
<path fill="#0c6d0b" opacity="1.00" d=" M 762.09 167.67 C 776.31 164.80 791.20 168.98 803.21 176.75 C 820.12 187.82 830.47 207.17 833.00 226.95 C 835.63 277.35 839.82 327.64 843.70 377.95 C 844.03 412.29 829.89 446.38 805.99 470.94 C 791.30 486.09 773.13 497.60 753.73 505.76 C 739.57 511.60 724.54 517.22 708.93 515.57 C 700.73 515.13 693.20 511.66 685.98 508.06 C 674.49 501.16 665.53 490.77 658.40 479.56 C 651.13 468.17 645.82 455.66 641.37 442.93 C 647.71 448.24 654.70 452.99 662.78 455.17 C 678.78 459.82 695.92 456.75 711.25 451.08 C 731.65 443.37 748.23 427.18 757.75 407.70 C 764.46 393.98 768.87 378.82 768.83 363.47 C 765.33 312.98 761.44 262.51 758.55 211.97 C 758.82 205.41 756.24 199.21 753.51 193.39 C 750.50 187.09 746.02 181.58 740.68 177.10 C 747.75 173.82 754.24 168.95 762.09 167.67 Z" />
<path fill="#0c6d0b" opacity="1.00" d=" M 584.38 374.48 C 589.68 371.35 596.02 371.36 601.97 370.92 C 606.74 370.98 611.94 371.18 615.97 374.06 C 618.45 375.97 618.85 379.28 619.47 382.14 C 621.25 391.81 623.52 401.40 625.03 411.13 C 625.81 415.38 627.13 419.53 628.93 423.46 C 626.21 423.26 623.35 422.75 620.78 423.89 C 588.89 436.95 556.99 449.99 525.09 463.02 C 519.48 465.22 515.12 470.80 515.68 477.03 C 516.08 577.34 516.65 677.65 516.89 777.96 C 517.36 799.00 517.09 820.06 517.34 841.11 C 517.46 846.01 520.90 850.45 525.27 852.46 C 529.94 854.60 535.13 853.24 540.01 852.87 C 571.75 849.65 603.47 846.17 635.22 843.13 C 633.16 854.49 625.01 863.62 615.53 869.68 C 608.59 874.05 601.08 877.88 593.08 879.79 C 554.76 882.39 516.40 884.69 478.01 886.14 C 472.13 886.56 466.67 883.13 463.73 878.17 C 458.61 869.78 456.95 859.72 456.63 850.03 C 457.37 726.35 457.99 602.67 458.59 478.98 C 458.36 465.86 459.37 452.22 465.24 440.26 C 467.82 435.10 471.67 430.39 476.84 427.66 C 512.84 410.25 548.68 392.50 584.38 374.48 Z" />
<path fill="#0c6d0b" opacity="1.00" d=" M 729.87 690.57 C 749.15 682.71 770.71 681.26 791.10 684.99 C 800.61 686.48 809.35 690.63 818.48 693.47 C 845.17 705.03 867.12 727.60 877.05 755.05 C 885.72 778.31 885.99 804.04 880.61 828.09 C 873.66 859.37 858.58 888.27 840.56 914.54 C 828.86 928.09 814.84 939.86 798.82 947.99 C 788.67 952.97 777.60 956.71 766.18 956.66 C 761.74 956.95 757.48 959.39 755.09 963.16 C 752.51 966.97 753.30 971.82 752.55 976.15 C 750.00 995.74 745.20 1015.04 738.45 1033.60 C 731.38 1052.59 722.02 1071.12 708.24 1086.16 C 697.85 1097.47 684.44 1107.11 668.90 1109.22 C 660.81 1111.55 652.25 1110.93 643.95 1110.36 C 579.57 1104.79 515.32 1097.74 450.99 1091.56 C 444.09 1091.22 437.30 1089.22 431.43 1085.56 C 418.74 1077.76 409.08 1066.07 400.46 1054.13 C 453.94 1057.78 507.46 1060.94 561.02 1063.33 C 574.38 1063.51 587.85 1065.00 601.11 1062.66 C 617.62 1059.88 634.02 1053.81 646.88 1042.85 C 654.10 1036.66 659.89 1028.58 662.51 1019.38 C 664.91 1010.69 667.89 1002.06 668.60 993.03 C 669.88 979.67 671.15 966.31 673.11 953.03 C 675.30 939.32 679.51 925.44 688.33 914.47 C 692.75 909.02 698.34 904.13 705.13 901.96 C 730.44 899.74 754.74 888.62 773.41 871.47 C 781.51 864.45 786.73 854.74 790.56 844.88 C 798.54 823.32 798.96 799.69 795.92 777.13 C 794.09 762.25 788.48 747.70 779.06 735.97 C 769.30 723.64 754.69 715.31 739.12 713.15 C 721.85 710.88 703.87 713.89 688.35 721.82 C 699.10 707.98 713.59 697.06 729.87 690.57 Z" />
</g>
<g id="#228f30ff">
<path fill="#228f30" opacity="1.00" d=" M 708.15 196.14 C 713.78 194.89 720.49 194.93 724.91 199.16 C 728.22 202.45 730.34 206.88 731.32 211.42 C 734.13 262.67 738.17 313.85 741.64 365.06 C 740.76 379.97 735.77 394.85 726.85 406.91 C 719.02 417.54 707.37 425.11 694.59 428.32 C 685.78 430.57 676.02 432.02 667.40 428.31 C 659.23 424.75 654.24 416.42 652.26 408.03 C 649.90 396.29 647.71 384.52 645.26 372.80 C 643.19 362.88 636.47 354.07 627.41 349.52 C 616.61 343.95 604.01 343.50 592.16 344.77 C 587.16 345.64 581.94 345.94 577.28 348.11 C 540.03 366.59 502.81 385.14 465.41 403.30 C 453.61 408.98 444.60 419.44 439.43 431.35 C 432.89 446.27 431.00 462.84 431.62 479.00 C 431.01 602.67 430.30 726.34 429.58 850.01 C 429.86 866.09 433.58 882.72 443.19 895.90 C 450.71 906.25 463.21 912.69 476.00 912.79 C 489.02 912.74 502.03 911.99 515.04 911.40 C 543.00 909.84 570.96 908.23 598.88 906.21 C 609.71 903.32 619.99 898.51 629.51 892.62 C 642.02 884.64 653.12 873.58 658.64 859.59 C 662.42 850.56 662.72 840.66 663.68 831.06 C 664.63 822.39 665.47 813.71 666.54 805.05 C 667.40 798.31 667.65 791.39 670.01 784.95 C 674.74 771.00 682.87 757.69 695.08 749.11 C 706.48 740.94 721.10 738.14 734.89 739.63 C 743.55 740.69 751.53 745.32 757.07 752.02 C 763.45 759.66 767.24 769.27 768.59 779.09 C 771.15 795.69 771.53 812.92 767.25 829.28 C 765.20 836.46 762.34 843.64 757.48 849.41 C 742.74 863.96 722.97 873.82 702.16 875.18 C 690.20 877.47 679.52 884.45 671.09 893.07 C 660.99 903.63 654.26 917.02 650.19 930.97 C 645.98 945.00 644.83 959.67 643.15 974.16 C 641.95 983.29 642.14 992.66 639.34 1001.53 C 637.26 1008.00 636.46 1015.37 631.38 1020.38 C 623.56 1028.32 612.78 1032.56 602.11 1035.08 C 586.97 1038.65 571.38 1036.35 556.03 1036.28 C 499.94 1033.67 443.86 1030.60 387.88 1026.32 C 383.12 1026.35 379.23 1022.91 377.00 1018.97 C 371.98 1010.43 370.11 1000.49 368.69 990.81 C 368.14 984.85 367.08 978.78 368.32 972.85 C 371.17 955.69 370.37 936.95 361.49 921.58 C 354.59 909.43 341.74 901.41 328.09 899.19 C 319.66 897.88 311.82 893.06 307.14 885.89 C 300.83 876.26 298.55 864.36 299.34 852.98 C 304.74 742.63 310.25 632.29 315.70 521.95 C 316.79 508.55 323.19 495.10 334.49 487.42 C 338.53 484.48 343.28 482.89 347.85 481.03 C 359.83 472.93 369.72 461.43 374.95 447.85 C 380.06 434.78 382.22 420.81 384.21 406.99 C 385.57 398.31 385.88 389.36 389.29 381.15 C 393.79 369.86 401.46 359.03 412.70 353.70 C 506.15 303.16 599.49 252.40 693.05 202.06 C 697.78 199.39 702.81 197.19 708.15 196.14 Z" />
</g>
<g id="#115117ff">
<path fill="#115117" opacity="1.00" d=" M 860.25 227.91 C 870.94 237.46 881.31 247.37 891.92 257.02 C 902.17 267.12 914.46 275.44 922.22 287.83 C 926.69 294.82 929.80 302.73 931.07 310.94 C 933.49 355.67 937.06 400.33 940.37 445.01 C 940.64 475.98 927.46 506.66 905.47 528.39 C 889.21 544.57 868.54 555.78 846.87 562.90 C 840.14 564.98 832.98 564.73 826.04 564.27 C 814.88 563.22 803.68 561.39 793.09 557.59 C 777.89 550.89 763.02 543.47 747.80 536.80 C 759.62 532.27 771.51 527.74 782.59 521.54 C 809.66 506.96 833.18 485.34 848.50 458.55 C 862.83 433.56 871.01 404.81 870.82 375.95 C 867.10 326.62 863.00 277.31 860.25 227.91 Z" />
<path fill="#115117" opacity="1.00" d=" M 565.02 475.92 C 582.25 468.81 599.49 461.76 616.73 454.68 C 622.56 471.10 630.26 486.95 640.49 501.09 C 638.21 501.76 635.93 502.43 633.69 503.21 C 610.75 494.23 587.95 484.91 565.02 475.92 Z" />
<path fill="#115117" opacity="1.00" d=" M 543.12 495.96 C 568.69 506.13 594.25 516.33 619.76 526.66 C 622.57 623.32 625.57 719.99 628.66 816.65 C 600.59 819.82 572.44 822.40 544.37 825.53 C 543.93 715.67 543.42 605.82 543.12 495.96 Z" />
<path fill="#115117" opacity="1.00" d=" M 886.98 716.44 C 898.86 720.76 911.39 723.41 922.68 729.25 C 939.37 737.54 953.80 750.55 963.27 766.66 C 974.32 785.28 978.09 807.58 975.96 828.98 C 973.12 858.02 961.08 885.31 945.97 909.97 C 942.35 915.59 939.13 921.57 934.33 926.31 C 920.80 940.43 904.32 952.68 885.09 957.48 C 879.52 959.06 873.70 958.95 867.98 958.78 C 856.35 958.61 844.73 958.26 833.10 958.12 C 842.08 951.23 850.55 943.66 858.24 935.35 C 862.88 930.76 866.11 925.04 869.71 919.66 C 881.64 901.00 892.01 881.26 899.52 860.41 C 908.08 836.67 912.80 811.29 911.12 786.02 C 909.29 761.31 901.64 736.58 886.98 716.44 Z" />
<path fill="#115117" opacity="1.00" d=" M 778.67 983.51 C 805.27 984.18 831.87 984.77 858.47 985.53 C 855.22 1006.85 849.65 1028.08 839.43 1047.20 C 829.50 1066.02 814.14 1082.73 794.15 1090.87 C 782.70 1095.87 770.15 1096.94 757.93 1098.71 C 748.66 1100.04 739.34 1100.98 730.07 1102.25 C 742.52 1087.83 752.10 1071.13 759.50 1053.61 C 768.91 1031.22 775.40 1007.58 778.67 983.51 Z" />
</g>
</svg>
