<?xml version="1.0" encoding="UTF-8" ?>
<!DOCTYPE svg PUBLIC "-//W3C//DTD SVG 1.1//EN" "http://www.w3.org/Graphics/SVG/1.1/DTD/svg11.dtd">
<svg width="1276pt" height="1276pt" viewBox="0 0 1276 1276" version="1.1" xmlns="http://www.w3.org/2000/svg">
<g id="#cd171fff">
<path fill="#cd171f" opacity="1.00" d=" M 748.38 143.62 C 772.67 135.74 800.34 141.32 820.81 156.24 C 824.52 159.17 828.78 161.40 832.03 164.89 C 860.61 191.37 889.10 217.94 917.81 244.26 C 929.44 253.94 940.55 264.69 947.95 278.04 C 953.14 287.35 956.74 297.61 958.22 308.18 C 960.38 353.18 964.15 398.09 967.45 443.02 C 967.66 476.20 955.93 509.33 935.26 535.26 C 914.13 561.74 883.68 579.63 851.48 589.17 C 832.73 593.18 813.23 590.56 794.77 586.27 C 783.13 583.76 772.77 577.76 761.98 573.00 C 733.45 559.86 705.06 546.38 676.41 533.49 C 670.73 530.40 665.42 526.67 660.35 522.68 C 655.98 524.29 651.52 525.62 647.09 527.04 C 648.76 593.59 651.18 660.12 652.83 726.67 C 661.11 711.67 671.59 697.78 684.71 686.67 C 707.62 666.91 737.86 656.63 767.96 656.29 C 788.19 655.84 808.37 660.12 827.00 667.93 C 851.71 676.34 876.52 684.50 901.27 692.84 C 911.09 696.33 921.33 698.69 930.77 703.24 C 958.96 715.96 982.37 739.37 994.11 768.08 C 1003.73 791.16 1005.76 816.96 1001.81 841.53 C 996.17 876.57 979.83 908.97 959.84 937.95 C 947.42 952.63 932.43 965.31 915.36 974.27 C 906.13 979.23 896.10 982.42 885.98 984.90 C 881.10 1020.27 870.09 1056.07 847.09 1084.02 C 830.50 1104.53 806.24 1118.61 780.12 1122.57 C 746.04 1127.57 711.79 1131.29 677.58 1135.26 C 666.29 1137.92 654.58 1138.19 643.07 1137.13 C 583.69 1132.09 524.44 1125.74 465.14 1119.93 C 452.95 1118.35 440.26 1118.75 428.69 1114.08 C 413.42 1108.13 400.80 1097.07 390.08 1084.91 C 381.13 1074.57 373.39 1063.19 366.73 1051.25 C 365.01 1048.31 363.94 1044.92 361.45 1042.51 C 351.70 1033.08 346.89 1019.86 343.92 1006.92 C 341.83 997.41 340.78 987.69 340.59 977.97 C 340.32 971.58 342.45 965.40 342.49 959.03 C 342.74 949.97 342.02 940.07 336.36 932.58 C 332.95 928.04 327.26 926.26 321.88 925.39 C 307.67 922.85 294.45 914.81 286.06 903.01 C 278.42 892.56 274.13 879.93 272.58 867.16 C 271.53 858.80 272.45 850.40 272.69 842.03 C 278.02 735.00 283.17 627.95 288.54 520.92 C 289.92 502.19 297.90 483.58 311.99 470.92 C 318.30 465.10 325.87 460.87 333.78 457.64 C 342.13 452.55 347.93 443.91 350.88 434.69 C 355.00 421.84 356.70 408.39 358.60 395.09 C 360.21 372.86 371.26 351.58 388.47 337.44 C 392.89 333.55 398.32 331.15 403.41 328.33 C 513.47 269.03 623.54 209.74 733.64 150.51 C 738.38 147.89 743.18 145.27 748.38 143.62 M 761.54 167.77 C 753.90 169.20 747.55 173.91 740.63 177.13 C 749.77 184.41 755.59 195.22 758.20 206.48 C 761.19 258.00 764.99 309.48 768.70 360.95 C 769.43 370.93 767.35 380.88 764.61 390.43 C 759.50 407.37 750.33 423.31 737.10 435.20 C 721.86 449.07 701.38 456.54 680.94 457.42 C 666.45 458.05 651.83 452.82 641.37 442.71 C 645.45 454.90 650.57 466.80 657.29 477.79 C 664.61 489.69 673.87 500.80 685.98 508.05 C 689.82 510.01 693.80 511.74 697.81 513.32 C 710.53 517.42 724.45 516.16 736.99 512.00 C 750.20 507.68 763.05 502.15 775.04 495.09 C 799.49 480.87 819.88 459.41 831.59 433.55 C 840.74 413.13 845.65 390.35 842.96 367.97 C 839.21 321.02 835.50 274.06 833.00 227.02 C 830.43 206.51 819.35 186.42 801.37 175.59 C 789.56 168.48 775.20 164.85 761.54 167.77 M 708.17 196.14 C 703.08 197.15 698.25 199.16 693.74 201.69 C 598.64 252.88 503.73 304.43 408.77 355.86 C 396.58 363.90 388.97 377.73 386.27 391.86 C 384.73 403.00 383.41 414.18 381.24 425.22 C 378.22 441.66 372.51 458.38 360.42 470.43 C 355.24 475.29 350.15 480.91 343.09 482.91 C 330.41 487.53 321.04 498.98 317.56 511.85 C 315.05 519.63 315.69 527.88 314.99 535.91 C 309.90 639.27 304.77 742.62 299.65 845.98 C 299.43 852.57 298.70 859.21 299.78 865.77 C 301.21 874.90 304.53 884.18 311.21 890.82 C 315.97 895.59 322.39 898.32 328.98 899.37 C 342.55 901.75 355.15 910.02 361.85 922.18 C 370.49 937.68 371.16 956.36 368.21 973.50 C 367.15 979.01 368.12 984.61 368.61 990.13 C 369.86 999.35 371.66 1008.70 375.92 1017.06 C 378.04 1021.18 381.32 1025.50 386.26 1026.14 C 390.82 1026.58 395.40 1026.83 399.97 1027.29 C 453.91 1031.01 507.89 1034.27 561.92 1036.45 C 575.04 1036.67 588.35 1038.23 601.29 1035.26 C 612.25 1032.79 623.36 1028.52 631.38 1020.38 C 636.45 1015.38 637.26 1008.02 639.33 1001.56 C 642.08 992.95 641.93 983.83 643.06 974.95 C 644.90 958.88 646.17 942.55 651.38 927.13 C 656.39 911.95 664.80 897.48 677.35 887.33 C 685.84 880.56 696.03 875.15 707.08 874.64 C 722.13 872.86 736.39 866.36 748.42 857.29 C 753.15 853.46 758.27 849.72 761.15 844.20 C 769.58 829.38 771.03 811.75 770.31 795.04 C 769.43 784.44 768.70 773.49 764.25 763.67 C 760.50 755.12 754.33 747.32 745.93 743.02 C 737.58 738.75 727.86 738.69 718.78 739.90 C 704.32 741.68 691.03 749.82 682.34 761.43 C 674.23 772.32 668.29 785.26 667.24 798.92 C 665.39 814.19 663.83 829.49 662.33 844.80 C 660.90 858.37 654.23 871.09 644.55 880.60 C 633.06 892.13 618.29 899.88 602.99 905.06 C 597.89 907.04 592.33 906.51 587.00 907.08 C 550.68 909.28 514.38 911.94 478.01 912.81 C 465.03 913.24 452.01 907.30 444.05 897.01 C 433.97 883.99 430.07 867.20 429.58 851.02 C 429.76 824.99 429.65 798.96 430.11 772.94 C 430.45 670.96 431.34 568.98 431.61 467.01 C 432.54 450.55 436.19 433.62 445.89 419.98 C 451.15 412.52 458.39 406.52 466.66 402.68 C 504.11 384.58 541.26 365.85 578.61 347.53 C 588.09 344.62 598.18 343.84 608.06 344.38 C 617.57 345.11 627.31 347.95 634.55 354.40 C 640.16 359.31 643.93 366.15 645.40 373.43 C 647.79 384.98 649.95 396.58 652.29 408.13 C 654.36 417.01 659.96 425.78 668.89 428.92 C 678.17 432.11 688.23 430.19 697.39 427.51 C 710.49 423.66 721.97 414.89 729.32 403.40 C 736.62 391.97 740.91 378.54 741.64 365.01 C 738.14 313.73 734.17 262.46 731.27 211.14 C 730.17 206.49 727.97 201.88 724.35 198.67 C 719.91 194.89 713.56 194.96 708.17 196.14 M 860.29 227.84 C 862.94 277.26 867.12 326.59 870.81 375.94 C 870.93 414.80 856.49 453.60 831.08 483.00 C 809.25 508.45 779.42 525.96 747.87 536.59 C 762.50 543.59 777.25 550.36 791.99 557.14 C 802.20 561.09 813.12 562.89 823.97 564.08 C 832.14 564.80 840.65 565.18 848.51 562.38 C 858.27 559.00 867.81 554.92 876.81 549.83 C 900.39 536.81 920.07 516.37 930.70 491.49 C 937.06 476.55 940.83 460.29 940.32 444.01 C 937.16 402.37 933.94 360.73 931.52 319.04 C 931.97 300.36 921.52 283.15 907.70 271.28 C 891.60 257.12 876.14 242.27 860.29 227.84 M 587.79 372.89 C 551.04 391.15 514.38 409.62 477.38 427.38 C 470.78 430.65 466.34 437.01 463.68 443.69 C 458.23 457.08 458.47 471.77 458.56 485.96 C 457.98 607.66 457.33 729.35 456.64 851.05 C 457.21 861.10 458.93 871.77 465.08 880.05 C 468.22 884.42 473.66 886.63 478.99 886.12 C 514.32 884.79 549.63 882.63 584.92 880.38 C 588.90 880.09 593.04 880.28 596.83 878.82 C 604.96 875.89 612.83 872.03 619.68 866.71 C 627.38 860.95 633.43 852.70 635.23 843.12 C 601.09 846.39 567.00 850.19 532.87 853.57 C 527.44 854.29 521.79 851.64 519.06 846.87 C 516.46 842.73 517.48 837.67 517.27 833.06 C 516.60 715.37 516.31 597.67 515.66 479.98 C 515.67 477.08 515.57 474.11 516.49 471.33 C 518.01 467.51 521.32 464.61 525.07 463.04 C 556.98 449.99 588.90 436.94 620.81 423.88 C 623.38 422.77 626.22 423.27 628.91 423.44 C 626.51 418.23 625.10 412.62 624.34 406.95 C 622.79 398.30 620.87 389.73 619.26 381.10 C 618.79 377.57 617.16 373.80 613.49 372.65 C 605.26 369.78 596.08 370.81 587.79 372.89 M 564.97 475.94 C 587.95 484.85 610.74 494.27 633.71 503.21 C 635.95 502.45 638.22 501.76 640.49 501.08 C 630.25 486.95 622.56 471.09 616.73 454.68 C 599.48 461.77 582.21 468.83 564.97 475.94 M 543.12 495.95 C 543.42 605.81 543.92 715.67 544.36 825.52 C 572.43 822.42 600.56 819.78 628.64 816.68 C 625.58 719.99 622.59 623.30 619.73 526.62 C 594.21 516.35 568.68 506.11 543.12 495.95 M 729.90 690.56 C 713.60 697.04 699.09 707.98 688.34 721.84 C 702.92 714.32 719.69 711.35 735.99 712.75 C 751.51 714.19 766.40 721.60 776.77 733.26 C 787.04 744.85 793.40 759.65 795.59 774.93 C 798.20 792.32 798.58 810.19 795.36 827.53 C 792.66 841.73 787.33 855.76 777.99 866.96 C 758.89 886.71 732.62 899.49 705.22 901.95 C 696.10 904.87 689.24 912.34 684.25 920.23 C 675.61 934.24 673.01 950.84 671.29 966.93 C 669.30 980.25 669.59 993.94 666.01 1007.00 C 663.39 1016.12 661.51 1025.82 655.54 1033.49 C 643.60 1049.53 624.14 1058.00 605.04 1061.94 C 590.56 1065.17 575.70 1063.60 561.03 1063.33 C 507.47 1060.94 453.94 1057.76 400.46 1054.14 C 409.53 1066.64 419.71 1079.01 433.38 1086.67 C 439.31 1090.09 446.14 1091.37 452.90 1091.74 C 515.67 1097.81 578.37 1104.62 641.19 1110.13 C 650.46 1110.85 660.01 1111.74 669.09 1109.20 C 683.57 1107.18 696.25 1098.57 706.26 1088.27 C 719.89 1074.18 729.36 1056.63 736.57 1038.54 C 744.38 1018.48 749.76 997.45 752.55 976.10 C 753.28 971.77 752.53 966.94 755.11 963.13 C 757.67 959.12 762.33 956.64 767.08 956.63 C 777.98 956.56 788.54 952.95 798.28 948.26 C 814.52 940.13 828.73 928.25 840.56 914.54 C 857.46 889.94 871.68 863.05 879.20 834.03 C 885.79 808.68 886.46 781.24 877.53 756.37 C 867.83 728.39 845.68 705.28 818.61 693.53 C 809.08 690.49 799.91 686.21 789.94 684.78 C 769.91 681.33 748.81 682.85 729.90 690.56 M 911.11 807.03 C 908.42 846.11 892.57 883.05 872.03 915.97 C 867.57 922.78 863.60 930.03 857.80 935.83 C 850.21 943.95 841.90 951.38 833.07 958.12 C 847.72 958.23 862.37 958.93 877.02 958.79 C 893.57 957.20 908.63 948.64 921.38 938.36 C 928.88 931.93 936.55 925.31 941.70 916.75 C 952.13 900.65 961.25 883.60 967.65 865.49 C 973.32 849.32 976.88 832.24 976.47 815.05 C 976.22 795.28 970.21 775.44 958.52 759.41 C 947.07 743.52 930.59 731.50 912.28 724.71 C 903.91 721.78 895.36 719.41 887.01 716.44 C 905.68 742.40 913.22 775.37 911.11 807.03 M 760.13 1052.12 C 752.61 1070.16 742.92 1087.48 730.01 1102.24 C 741.71 1100.73 753.45 1099.45 765.12 1097.70 C 776.15 1096.34 787.27 1094.36 797.35 1089.47 C 816.01 1080.84 830.24 1064.73 839.66 1046.75 C 849.74 1027.75 855.25 1006.69 858.47 985.52 C 831.87 984.79 805.27 984.17 778.68 983.51 C 775.47 1007.04 769.19 1030.17 760.13 1052.12 Z" />
</g>
</svg>
