<?xml version="1.0" encoding="UTF-8" ?>
<!DOCTYPE svg PUBLIC "-//W3C//DTD SVG 1.1//EN" "http://www.w3.org/Graphics/SVG/1.1/DTD/svg11.dtd">
<svg width="1276pt" height="1276pt" viewBox="0 0 1276 1276" version="1.1" xmlns="http://www.w3.org/2000/svg">
<g id="#3184d9ff">
<path fill="#3184d9" opacity="1.00" d=" M 231.97 303.02 C 268.77 292.94 307.79 293.07 345.18 299.67 C 388.88 307.52 430.73 324.00 469.32 345.76 C 499.40 362.84 527.76 383.01 553.66 405.95 C 549.44 406.02 545.23 405.99 541.01 406.03 C 540.65 405.72 539.93 405.11 539.56 404.81 C 510.48 380.17 478.65 358.68 444.59 341.53 C 407.20 322.83 366.86 309.25 325.14 304.89 C 289.93 301.22 253.44 304.56 220.59 318.34 C 190.10 330.97 163.57 352.94 145.55 380.59 C 126.48 409.52 116.64 443.75 113.69 478.06 C 109.94 522.23 116.88 566.78 129.93 608.97 C 152.03 679.69 191.35 744.36 240.57 799.47 C 286.45 850.59 341.66 894.03 404.27 922.74 C 432.99 935.87 463.31 945.74 494.53 950.74 C 527.30 955.96 561.33 955.62 593.43 946.60 C 619.92 939.26 644.76 925.65 664.68 906.63 C 683.56 888.86 697.89 866.51 707.18 842.36 C 718.53 813.01 722.78 781.28 722.28 749.94 C 721.51 715.67 715.28 681.64 705.11 648.95 C 703.88 645.14 703.01 641.18 701.11 637.63 C 700.97 625.01 700.83 612.38 701.19 599.77 C 701.74 604.31 700.31 609.16 702.33 613.45 C 716.26 648.25 726.11 684.78 730.39 722.05 C 734.29 756.24 733.36 791.19 725.53 824.78 C 719.21 851.96 708.13 878.19 691.82 900.91 C 668.91 933.14 635.39 957.50 597.83 969.76 C 567.11 980.07 534.21 982.58 502.04 980.01 C 442.92 974.84 386.33 952.72 335.92 922.05 C 271.72 882.69 216.70 829.03 173.64 767.40 C 149.81 733.16 129.76 696.22 114.74 657.28 C 98.61 615.35 88.26 570.94 86.68 525.95 C 85.78 496.73 88.65 467.25 96.78 439.12 C 106.09 406.59 122.88 375.91 146.94 351.95 C 170.24 328.42 200.05 311.63 231.97 303.02 Z" />
</g>
<g id="#06111c21">
<path fill="#06111c" opacity="0.13" d=" M 287.68 406.05 C 288.68 405.39 289.77 405.07 290.97 405.09 C 320.30 405.05 349.63 405.13 378.97 405.08 C 383.04 405.44 387.54 404.18 391.32 406.07 C 356.77 406.02 322.23 406.08 287.68 406.05 Z" />
</g>
<g id="#06111b20">
<path fill="#06111b" opacity="0.13" d=" M 484.48 405.22 C 502.83 404.69 521.21 405.49 539.56 404.81 C 539.93 405.11 540.65 405.72 541.01 406.03 C 522.15 406.09 503.30 406.03 484.44 406.06 L 484.48 405.22 Z" />
<path fill="#06111b" opacity="0.13" d=" M 554.05 405.95 C 555.19 405.11 556.62 405.02 558.00 405.03 C 578.70 405.05 599.39 405.09 620.09 405.06 C 621.86 405.05 623.68 405.21 625.29 406.06 C 601.54 405.98 577.79 406.20 554.05 405.95 Z" />
</g>
<g id="#ff001fff">
<path fill="#ff001f" opacity="1.00" d=" M 247.23 424.30 C 257.70 413.33 272.50 406.54 287.68 406.05 C 322.23 406.08 356.77 406.02 391.32 406.07 C 407.58 406.87 423.29 414.84 433.65 427.38 C 442.45 437.82 447.42 451.38 447.48 465.03 C 447.52 490.14 447.46 515.26 447.52 540.38 C 417.24 540.37 386.97 540.37 356.70 540.38 C 356.76 525.83 356.60 511.27 356.78 496.72 C 345.02 496.60 333.25 496.79 321.48 496.62 C 321.35 555.98 321.52 615.34 321.39 674.69 C 333.17 674.72 344.95 674.69 356.73 674.71 C 356.68 660.17 356.72 645.64 356.70 631.11 C 386.96 631.11 417.23 631.12 447.49 631.10 C 447.49 656.04 447.50 680.97 447.49 705.91 C 447.53 720.59 441.89 735.18 431.97 745.99 C 421.11 758.01 405.18 765.28 388.96 765.44 C 357.66 765.47 326.36 765.44 295.06 765.46 C 274.96 766.88 254.41 757.86 242.46 741.54 C 234.82 731.37 230.56 718.69 230.62 705.97 C 230.62 625.66 230.61 545.36 230.62 465.05 C 230.65 450.01 236.75 435.09 247.23 424.30 Z" />
<path fill="#ff001f" opacity="1.00" d=" M 484.44 406.06 C 503.30 406.03 522.15 406.09 541.01 406.03 C 545.23 405.99 549.44 406.02 553.66 405.95 L 554.05 405.95 C 577.79 406.20 601.54 405.98 625.29 406.06 C 642.29 406.64 659.01 413.01 672.14 423.83 C 690.35 438.51 701.37 461.62 701.28 485.03 C 701.22 523.27 701.41 561.52 701.19 599.77 C 700.83 612.38 700.97 625.01 701.11 637.63 C 701.24 654.42 701.17 671.22 701.16 688.02 C 700.97 711.76 688.97 734.87 670.10 749.17 C 656.72 759.49 639.91 765.24 623.01 765.41 C 576.83 765.46 530.65 765.35 484.47 765.46 C 484.39 645.66 484.44 525.86 484.44 406.06 M 575.19 496.72 C 575.34 556.05 575.29 615.38 575.22 674.71 C 587.01 674.75 598.80 674.77 610.59 674.70 C 610.43 615.34 610.62 555.98 610.49 496.62 C 598.72 496.79 586.96 496.59 575.19 496.72 Z" />
<path fill="#ff001f" opacity="1.00" d=" M 710.77 406.03 C 782.89 405.63 855.02 405.83 927.14 405.93 L 927.62 406.29 C 927.75 436.40 927.55 466.51 927.71 496.61 C 906.65 496.68 885.59 496.61 864.54 496.65 C 864.61 586.26 864.59 675.87 864.54 765.48 C 834.29 765.38 804.03 765.46 773.77 765.44 C 773.87 675.85 773.64 586.26 773.88 496.68 C 752.82 496.49 731.75 496.85 710.69 496.50 C 710.89 466.35 710.73 436.19 710.77 406.03 Z" />
<path fill="#ff001f" opacity="1.00" d=" M 943.06 405.86 C 973.76 405.89 1004.46 405.86 1035.17 405.87 C 1044.83 488.93 1054.63 571.99 1064.33 655.03 C 1070.25 607.53 1075.54 559.94 1081.22 512.40 C 1085.30 476.99 1089.64 441.61 1093.59 406.19 C 1103.67 405.46 1113.83 406.08 1123.94 405.87 C 1144.56 405.86 1165.18 405.90 1185.80 405.85 C 1164.82 525.74 1143.60 645.59 1122.40 765.45 C 1083.87 765.35 1045.33 765.50 1006.80 765.38 C 1005.36 762.79 1005.60 759.28 1004.81 756.36 C 984.24 639.52 963.47 522.72 943.06 405.86 Z" />
</g>
</svg>
