<?xml version="1.0" encoding="UTF-8" ?>
<!DOCTYPE svg PUBLIC "-//W3C//DTD SVG 1.1//EN" "http://www.w3.org/Graphics/SVG/1.1/DTD/svg11.dtd">
<svg width="1276pt" height="1276pt" viewBox="0 0 1276 1276" version="1.1" xmlns="http://www.w3.org/2000/svg">
<g id="#eeec23ff">
<path fill="#eeec23" opacity="1.00" d=" M 673.18 124.19 C 676.98 123.12 681.04 123.73 684.91 122.83 C 705.22 121.78 725.75 121.66 745.83 125.13 C 757.06 126.96 768.21 129.51 778.99 133.15 C 781.77 133.76 784.33 135.07 787.09 135.81 C 789.01 136.59 790.95 137.37 792.90 138.11 C 795.99 139.29 798.97 140.72 801.96 142.15 C 835.23 157.00 863.76 181.46 885.44 210.59 C 907.44 240.16 922.51 274.44 932.21 309.87 C 938.84 334.43 942.89 359.63 945.10 384.94 C 946.82 406.97 946.88 429.09 946.24 451.18 L 945.80 451.90 C 945.84 464.45 943.98 476.88 943.30 489.38 C 943.15 489.45 942.86 489.59 942.71 489.66 C 941.59 505.53 938.66 521.25 935.93 536.92 C 932.87 553.11 929.32 569.21 925.17 585.15 C 922.21 596.09 919.27 607.05 915.82 617.86 C 915.34 619.64 914.78 621.41 914.20 623.17 C 911.01 633.19 907.61 643.15 904.09 653.06 C 902.46 657.18 901.12 661.41 899.38 665.48 C 891.73 666.92 883.97 668.45 876.88 671.78 C 867.17 676.58 858.86 683.87 852.16 692.34 C 874.74 641.88 892.10 589.03 903.41 534.90 C 909.91 502.91 914.45 470.46 915.93 437.84 C 916.64 429.96 916.62 422.00 915.92 414.12 C 914.17 378.24 908.29 342.44 897.22 308.22 C 885.28 271.61 867.00 236.65 841.01 208.02 C 812.01 181.09 775.02 163.06 736.11 156.05 C 727.82 154.33 719.36 153.59 710.96 152.68 C 704.93 152.06 698.95 153.11 692.96 153.57 C 647.27 158.38 603.23 173.77 562.55 194.75 C 511.21 221.44 464.65 256.88 423.45 297.39 C 371.93 350.52 328.57 411.37 293.43 476.44 C 253.61 550.64 224.30 630.81 209.92 713.90 C 206.85 732.12 204.43 750.45 202.91 768.86 C 201.94 782.22 200.85 795.61 201.52 809.01 C 203.35 847.29 209.48 885.56 221.84 921.91 C 232.26 952.64 247.27 982.00 267.62 1007.36 C 270.91 1011.38 274.16 1015.47 277.91 1019.09 C 314.26 1052.43 362.87 1071.25 411.96 1073.46 C 429.10 1072.34 446.18 1069.84 462.90 1065.84 C 469.04 1064.58 475.05 1062.74 481.11 1061.16 C 521.02 1049.38 558.81 1031.13 593.88 1008.85 C 626.57 988.06 657.02 963.85 685.20 937.31 C 695.17 928.55 703.60 918.25 712.92 908.83 C 717.13 919.90 721.59 930.87 725.94 941.88 C 717.70 950.32 709.44 958.77 700.78 966.78 C 671.34 994.51 639.48 1019.76 605.16 1041.19 C 598.72 1045.10 592.29 1049.05 585.72 1052.74 C 582.07 1054.73 578.48 1056.84 574.77 1058.71 C 571.91 1060.24 569.02 1061.72 566.14 1063.21 C 564.07 1064.12 562.07 1065.16 560.08 1066.23 C 557.57 1067.29 555.17 1068.57 552.71 1069.72 C 550.45 1070.76 548.18 1071.78 545.89 1072.74 C 544.01 1073.62 542.09 1074.43 540.18 1075.27 C 537.84 1076.27 535.46 1077.18 533.15 1078.24 C 531.44 1078.79 529.77 1079.46 528.16 1080.24 C 526.44 1080.79 524.76 1081.41 523.11 1082.13 C 522.11 1082.47 521.12 1082.83 520.14 1083.20 C 512.24 1086.12 504.20 1088.62 496.17 1091.15 C 494.05 1091.70 491.94 1092.28 489.82 1092.85 C 488.54 1093.22 487.25 1093.55 485.96 1093.88 C 476.42 1096.39 466.73 1098.33 457.04 1100.12 C 449.03 1101.15 441.06 1102.56 432.97 1102.88 C 420.08 1104.23 407.02 1103.73 394.07 1103.42 C 386.77 1102.56 379.39 1102.24 372.17 1100.87 C 352.04 1097.73 332.41 1091.68 313.91 1083.18 C 289.45 1071.48 267.17 1055.20 248.78 1035.26 C 216.49 1000.59 195.74 956.51 184.12 910.90 C 169.94 856.06 168.74 798.74 173.79 742.60 L 172.89 741.45 C 173.78 741.37 174.23 742.16 174.72 742.79 C 174.02 740.95 174.37 738.98 174.50 737.09 C 178.57 701.31 185.47 665.82 195.11 631.11 C 197.25 623.06 199.61 615.06 202.11 607.11 C 207.12 590.83 212.72 574.74 218.78 558.84 C 219.99 555.96 221.00 553.01 222.15 550.11 C 224.28 544.66 226.62 539.29 228.80 533.85 C 233.77 522.20 238.89 510.62 244.29 499.16 C 247.27 492.64 250.78 486.37 253.82 479.88 C 262.65 462.33 272.23 445.15 282.24 428.25 C 291.38 413.20 300.80 398.33 310.75 383.81 C 314.91 377.95 318.91 371.98 323.23 366.24 C 333.10 352.55 343.44 339.21 354.23 326.22 C 369.51 307.62 385.78 289.85 402.78 272.81 C 436.98 238.76 474.60 208.02 515.74 182.71 C 517.39 181.72 519.04 180.71 520.69 179.71 C 521.53 179.22 522.38 178.74 523.24 178.26 C 530.60 173.83 538.13 169.68 545.75 165.70 C 548.63 164.27 551.45 162.72 554.34 161.30 C 558.58 159.23 562.84 157.16 567.14 155.21 C 570.12 153.84 573.10 152.48 576.14 151.24 C 578.04 150.41 579.95 149.61 581.86 148.79 C 586.64 146.96 591.34 144.93 596.18 143.25 C 597.41 142.75 598.67 142.27 599.92 141.77 C 600.46 141.62 601.54 141.33 602.09 141.18 C 603.31 140.68 604.56 140.21 605.81 139.74 C 609.58 138.54 613.31 137.24 617.12 136.18 C 626.00 133.42 635.00 130.97 644.13 129.14 C 645.76 128.63 647.47 128.37 649.18 128.13 C 657.06 126.24 665.14 125.20 673.18 124.19 Z" />
<path fill="#eeec23" opacity="1.00" d=" M 287.03 615.00 C 441.37 493.65 595.70 372.27 750.08 250.98 C 750.56 251.24 751.51 251.77 751.98 252.03 C 706.99 338.69 661.99 425.34 617.01 512.00 C 701.99 517.02 786.98 521.99 871.97 527.01 C 825.18 566.67 778.34 606.27 731.56 645.94 C 726.67 642.69 721.85 639.33 717.20 635.75 C 714.48 633.64 711.42 631.90 708.02 631.19 C 702.82 630.02 697.46 628.16 692.11 629.56 C 687.35 630.67 682.27 631.29 678.14 634.11 C 671.91 638.10 666.54 643.83 663.82 650.78 C 662.60 655.44 661.14 660.17 661.05 665.03 C 661.50 669.74 662.68 674.39 664.07 678.91 C 666.53 684.61 670.70 689.54 675.70 693.19 C 554.24 796.03 432.83 898.92 311.31 1001.68 C 386.75 889.04 462.46 776.58 538.00 664.00 C 454.34 647.66 370.68 631.35 287.03 615.00 Z" />
<path fill="#eeec23" opacity="1.00" d=" M 839.65 719.42 C 840.47 717.61 841.27 715.79 841.89 713.90 C 841.42 715.94 841.01 718.00 840.59 720.05 C 840.35 719.90 839.88 719.58 839.65 719.42 Z" />
</g>
<g id="#ffffffff">
<path fill="#ffffff" opacity="1.00" d=" M 967.83 542.86 C 972.14 541.77 976.65 540.17 981.12 541.40 C 987.42 542.67 993.50 544.76 999.64 546.67 C 1003.88 548.46 1007.34 551.90 1009.36 556.03 C 1010.03 558.58 1010.72 561.16 1011.11 563.78 C 1009.99 572.04 1005.83 579.35 1002.77 586.98 C 996.47 601.37 990.55 615.94 984.03 630.23 C 989.55 622.81 996.70 616.87 1002.57 609.76 C 1007.66 604.13 1013.28 598.99 1018.12 593.13 C 1022.72 588.50 1027.02 582.30 1034.06 581.58 C 1038.18 579.94 1042.42 581.78 1046.46 582.79 C 1049.71 584.71 1052.58 587.26 1054.92 590.25 C 1057.96 594.24 1061.95 597.52 1064.29 602.02 C 1065.10 604.75 1065.69 607.55 1066.28 610.34 C 1065.84 613.09 1065.18 615.82 1064.38 618.49 C 1060.56 625.12 1053.81 629.15 1048.51 634.43 C 1037.53 643.99 1026.57 653.57 1015.64 663.19 C 1027.92 659.57 1040.27 656.22 1052.58 652.72 C 1060.30 650.66 1067.91 648.06 1075.78 646.62 C 1079.71 647.63 1084.20 647.72 1087.34 650.63 C 1092.92 654.55 1094.27 661.64 1095.01 667.97 C 1094.93 676.11 1095.85 684.68 1092.27 692.27 C 1090.43 695.37 1087.77 697.89 1084.63 699.64 C 1076.94 701.91 1068.95 702.82 1061.09 704.23 C 1033.72 708.83 1006.36 713.40 979.00 718.01 C 976.52 718.58 974.12 717.43 971.75 716.94 C 975.96 730.16 973.46 744.16 969.38 757.06 C 976.45 758.67 982.02 764.17 986.05 769.96 C 989.12 773.90 989.28 779.11 990.53 783.76 C 999.22 785.60 1006.31 791.99 1011.00 799.31 C 1013.79 803.37 1014.23 808.39 1015.43 813.04 C 1016.54 817.20 1015.73 821.52 1014.54 825.57 C 1016.76 828.96 1019.67 831.91 1021.65 835.48 C 1022.38 838.06 1022.96 840.68 1023.51 843.31 C 1023.10 846.09 1022.37 848.83 1021.63 851.55 C 1019.80 854.67 1017.58 857.63 1014.74 859.91 C 1010.30 863.38 1006.70 867.88 1001.74 870.68 C 999.13 871.54 996.42 872.08 993.74 872.65 C 987.86 872.06 981.61 869.88 978.33 864.65 C 972.13 870.47 964.84 875.02 958.32 880.47 C 950.80 886.20 943.23 891.87 935.88 897.81 C 933.06 899.74 930.44 902.30 926.94 902.88 C 921.41 904.02 915.72 905.92 910.07 904.41 C 906.33 903.37 902.33 903.05 898.83 901.31 C 894.07 898.32 889.03 895.19 886.37 890.03 C 883.82 896.29 880.67 902.28 877.97 908.47 C 896.05 917.77 914.04 927.26 932.05 936.69 C 936.15 938.85 939.44 942.20 941.50 946.36 C 960.39 986.81 979.30 1027.24 998.21 1067.68 C 1002.80 1076.38 1005.67 1086.15 1005.97 1096.00 C 1004.96 1104.58 1003.37 1113.65 998.02 1120.72 C 993.46 1127.92 986.48 1133.34 978.87 1136.99 C 969.68 1140.12 959.61 1142.54 950.05 1139.52 C 935.86 1137.19 923.94 1126.69 918.01 1113.85 C 915.18 1104.93 910.32 1096.87 906.50 1088.37 C 893.15 1060.79 879.86 1033.18 866.48 1005.62 C 859.28 1001.54 852.16 997.32 845.03 993.14 C 848.52 999.70 850.44 1007.00 853.27 1013.88 C 855.95 1021.60 859.55 1029.04 861.21 1037.08 C 862.31 1039.88 860.84 1042.68 860.37 1045.45 C 859.46 1051.12 854.56 1054.85 849.92 1057.59 C 820.43 1075.50 790.92 1093.39 761.41 1111.27 C 753.73 1116.00 745.82 1120.38 738.59 1125.79 C 733.18 1129.87 726.35 1130.98 719.90 1132.40 C 714.41 1133.58 708.78 1132.77 703.42 1131.38 C 689.50 1128.93 677.88 1118.50 672.03 1105.89 C 668.85 1096.70 666.46 1086.60 669.48 1077.02 C 671.11 1066.73 677.29 1057.63 685.22 1051.09 C 692.12 1046.00 699.66 1041.84 706.52 1036.69 C 721.62 1026.72 736.37 1016.24 751.53 1006.35 C 742.90 984.90 734.47 963.37 725.94 941.88 C 721.59 930.87 717.13 919.90 712.92 908.83 C 712.39 906.33 711.70 903.86 711.42 901.34 C 712.19 897.11 713.10 892.84 715.03 888.97 C 734.36 846.08 753.48 803.09 772.88 760.23 C 759.60 750.78 746.12 741.62 732.78 732.28 C 713.72 719.29 695.07 705.69 675.70 693.19 C 670.70 689.54 666.53 684.61 664.07 678.91 C 662.68 674.39 661.50 669.74 661.05 665.03 C 661.14 660.17 662.60 655.44 663.82 650.78 C 666.54 643.83 671.91 638.10 678.14 634.11 C 682.27 631.29 687.35 630.67 692.11 629.56 C 697.46 628.16 702.82 630.02 708.02 631.19 C 711.42 631.90 714.48 633.64 717.20 635.75 C 721.85 639.33 726.67 642.69 731.56 645.94 C 767.62 670.39 803.60 694.95 839.65 719.42 C 839.88 719.58 840.35 719.90 840.59 720.05 C 841.01 718.00 841.42 715.94 841.89 713.90 C 843.68 706.04 847.51 698.87 852.16 692.34 C 858.86 683.87 867.17 676.58 876.88 671.78 C 883.97 668.45 891.73 666.92 899.38 665.48 C 909.01 663.96 918.62 666.17 927.87 668.67 C 928.35 668.94 929.31 669.47 929.79 669.73 C 928.85 666.75 928.14 663.70 927.52 660.65 C 928.95 652.61 931.64 644.87 933.80 637.02 C 941.75 609.74 949.70 582.46 957.60 555.17 C 958.82 549.77 962.80 545.11 967.83 542.86 M 974.95 558.98 C 965.08 593.02 955.13 627.05 945.28 661.10 C 946.99 661.84 948.66 662.69 950.19 663.78 C 964.65 630.33 978.96 596.82 993.33 563.34 C 987.23 561.80 981.40 558.48 974.95 558.98 M 965.40 675.94 C 966.37 677.54 967.42 679.11 968.55 680.63 C 995.13 657.07 1021.98 633.81 1048.64 610.34 C 1045.07 606.36 1041.59 602.30 1037.99 598.36 C 1013.79 624.22 989.60 650.08 965.40 675.94 M 679.24 667.17 C 680.00 673.96 685.29 678.99 691.18 681.80 C 725.98 705.74 760.65 729.87 795.32 754.00 C 773.35 803.07 751.23 852.08 729.35 901.20 C 735.43 917.96 742.45 934.47 748.89 951.14 C 757.06 971.76 765.24 992.37 773.40 1013.00 C 751.27 1028.03 729.12 1043.02 706.98 1058.05 C 702.16 1061.46 696.53 1063.94 692.82 1068.70 C 685.19 1077.26 683.85 1090.63 689.51 1100.58 C 695.67 1112.17 710.52 1117.95 722.90 1113.54 C 728.32 1111.99 732.39 1107.92 737.09 1105.02 C 768.40 1086.05 799.70 1067.05 831.01 1048.07 C 835.17 1045.26 840.10 1043.11 843.81 1039.92 C 833.11 1010.77 822.02 981.76 811.23 952.65 C 833.59 965.62 855.86 978.72 878.21 991.69 C 879.14 992.33 880.40 992.78 880.86 993.95 C 897.64 1028.64 914.39 1063.34 931.17 1098.03 C 932.91 1101.68 933.71 1105.74 935.87 1109.21 C 940.24 1116.70 948.26 1121.96 956.91 1122.80 C 963.81 1123.59 971.01 1121.74 976.57 1117.55 C 984.27 1112.04 988.71 1102.37 987.90 1092.94 C 987.45 1085.74 983.78 1079.37 980.81 1072.99 C 962.15 1033.05 943.48 993.12 924.81 953.19 C 901.34 940.92 877.87 928.67 854.41 916.40 C 866.02 891.36 877.72 866.35 889.28 841.28 C 891.89 851.30 895.05 861.16 897.72 871.16 C 898.32 875.20 899.82 879.29 902.89 882.12 C 907.90 887.50 916.54 888.31 922.94 885.14 C 942.34 870.05 961.86 855.09 981.44 840.23 C 985.37 845.20 989.40 850.11 993.45 855.00 C 997.54 851.18 1001.64 847.39 1005.80 843.66 C 1002.18 838.33 997.06 833.94 994.40 828.02 C 1000.59 820.52 998.42 807.98 990.16 802.91 C 984.23 798.82 976.08 799.35 970.11 803.04 C 954.36 815.53 938.29 827.62 922.46 839.99 C 918.34 823.48 914.41 806.91 910.39 790.37 C 910.14 789.30 909.56 787.67 908.13 788.02 C 900.54 788.14 892.89 787.17 885.80 784.38 C 871.09 778.89 859.04 766.77 853.55 752.06 C 852.52 749.02 849.35 747.79 846.98 746.03 C 801.76 715.25 756.50 684.54 711.31 653.72 C 706.80 649.72 701.17 646.26 694.87 647.11 C 685.12 647.65 677.43 657.60 679.24 667.17 M 974.67 693.02 C 975.54 695.41 976.26 697.86 976.80 700.36 C 1010.18 694.81 1043.54 689.09 1076.93 683.62 C 1076.80 677.20 1077.56 670.68 1076.48 664.33 C 1042.56 673.96 1008.61 683.46 974.67 693.02 M 897.56 683.80 C 880.45 686.82 865.52 699.48 859.85 715.92 C 854.51 730.70 856.79 747.96 865.89 760.79 C 872.86 771.00 883.91 778.25 895.96 780.87 C 908.15 783.54 921.30 781.41 931.99 774.94 C 949.57 764.72 959.23 742.93 955.10 723.02 C 952.65 710.54 945.27 699.01 934.73 691.85 C 924.06 684.33 910.37 681.46 897.56 683.80 M 954.51 773.73 C 948.55 775.60 944.49 781.83 945.07 788.03 C 945.36 795.55 952.60 801.74 960.08 800.92 C 967.98 800.62 974.28 792.60 972.80 784.84 C 971.86 776.46 962.36 770.85 954.51 773.73 Z" />
</g>
<g id="#000000ff">
<path fill="#000000" opacity="1.00" d=" M 974.95 558.98 C 981.40 558.48 987.23 561.80 993.33 563.34 C 978.96 596.82 964.65 630.33 950.19 663.78 C 948.66 662.69 946.99 661.84 945.28 661.10 C 955.13 627.05 965.08 593.02 974.95 558.98 Z" />
<path fill="#000000" opacity="1.00" d=" M 965.40 675.94 C 989.60 650.08 1013.79 624.22 1037.99 598.36 C 1041.59 602.30 1045.07 606.36 1048.64 610.34 C 1021.98 633.81 995.13 657.07 968.55 680.63 C 967.42 679.11 966.37 677.54 965.40 675.94 Z" />
<path fill="#000000" opacity="1.00" d=" M 679.24 667.17 C 677.43 657.60 685.12 647.65 694.87 647.11 C 701.17 646.26 706.80 649.72 711.31 653.72 C 756.50 684.54 801.76 715.25 846.98 746.03 C 849.35 747.79 852.52 749.02 853.55 752.06 C 859.04 766.77 871.09 778.89 885.80 784.38 C 892.89 787.17 900.54 788.14 908.13 788.02 C 909.56 787.67 910.14 789.30 910.39 790.37 C 914.41 806.91 918.34 823.48 922.46 839.99 C 938.29 827.62 954.36 815.53 970.11 803.04 C 976.08 799.35 984.23 798.82 990.16 802.91 C 998.42 807.98 1000.59 820.52 994.40 828.02 C 997.06 833.94 1002.18 838.33 1005.80 843.66 C 1001.64 847.39 997.54 851.18 993.45 855.00 C 989.40 850.11 985.37 845.20 981.44 840.23 C 961.86 855.09 942.34 870.05 922.94 885.14 C 916.54 888.31 907.90 887.50 902.89 882.12 C 899.82 879.29 898.32 875.20 897.72 871.16 C 895.05 861.16 891.89 851.30 889.28 841.28 C 877.72 866.35 866.02 891.36 854.41 916.40 C 877.87 928.67 901.34 940.92 924.81 953.19 C 943.48 993.12 962.15 1033.05 980.81 1072.99 C 983.78 1079.37 987.45 1085.74 987.90 1092.94 C 988.71 1102.37 984.27 1112.04 976.57 1117.55 C 971.01 1121.74 963.81 1123.59 956.91 1122.80 C 948.26 1121.96 940.24 1116.70 935.87 1109.21 C 933.71 1105.74 932.91 1101.68 931.17 1098.03 C 914.39 1063.34 897.64 1028.64 880.86 993.95 C 880.40 992.78 879.14 992.33 878.21 991.69 C 855.86 978.72 833.59 965.62 811.23 952.65 C 822.02 981.76 833.11 1010.77 843.81 1039.92 C 840.10 1043.11 835.17 1045.26 831.01 1048.07 C 799.70 1067.05 768.40 1086.05 737.09 1105.02 C 732.39 1107.92 728.32 1111.99 722.90 1113.54 C 710.52 1117.95 695.67 1112.17 689.51 1100.58 C 683.85 1090.63 685.19 1077.26 692.82 1068.70 C 696.53 1063.94 702.16 1061.46 706.98 1058.05 C 729.12 1043.02 751.27 1028.03 773.40 1013.00 C 765.24 992.37 757.06 971.76 748.89 951.14 C 742.45 934.47 735.43 917.96 729.35 901.20 C 751.23 852.08 773.35 803.07 795.32 754.00 C 760.65 729.87 725.98 705.74 691.18 681.80 C 685.29 678.99 680.00 673.96 679.24 667.17 Z" />
<path fill="#000000" opacity="1.00" d=" M 974.67 693.02 C 1008.61 683.46 1042.56 673.96 1076.48 664.33 C 1077.56 670.68 1076.80 677.20 1076.93 683.62 C 1043.54 689.09 1010.18 694.81 976.80 700.36 C 976.26 697.86 975.54 695.41 974.67 693.02 Z" />
<path fill="#000000" opacity="1.00" d=" M 897.56 683.80 C 910.37 681.46 924.06 684.33 934.73 691.85 C 945.27 699.01 952.65 710.54 955.10 723.02 C 959.23 742.93 949.57 764.72 931.99 774.94 C 921.30 781.41 908.15 783.54 895.96 780.87 C 883.91 778.25 872.86 771.00 865.89 760.79 C 856.79 747.96 854.51 730.70 859.85 715.92 C 865.52 699.48 880.45 686.82 897.56 683.80 Z" />
<path fill="#000000" opacity="1.00" d=" M 954.51 773.73 C 962.36 770.85 971.86 776.46 972.80 784.84 C 974.28 792.60 967.98 800.62 960.08 800.92 C 952.60 801.74 945.36 795.55 945.07 788.03 C 944.49 781.83 948.55 775.60 954.51 773.73 Z" />
</g>
</svg>
