<?xml version="1.0" encoding="UTF-8" ?>
<!DOCTYPE svg PUBLIC "-//W3C//DTD SVG 1.1//EN" "http://www.w3.org/Graphics/SVG/1.1/DTD/svg11.dtd">
<svg width="1276pt" height="1276pt" viewBox="0 0 1276 1276" version="1.1" xmlns="http://www.w3.org/2000/svg">
<g id="#3184d9ff">
<path fill="#3184d9" opacity="1.00" d=" M 286.99 192.95 C 342.04 167.69 404.54 162.63 464.10 170.38 C 510.41 176.53 555.56 190.12 598.31 208.82 C 654.13 233.25 706.02 266.24 753.01 304.94 C 759.08 309.73 764.71 315.06 770.84 319.78 C 748.89 320.28 726.92 319.86 704.96 320.00 C 694.84 319.84 684.70 320.34 674.60 319.73 C 675.70 319.55 676.82 319.43 677.95 319.38 C 702.73 319.37 727.51 319.44 752.29 319.36 C 691.13 267.29 621.07 224.68 544.49 199.67 C 496.73 184.26 446.17 175.77 395.92 179.58 C 361.78 182.17 327.86 190.62 297.27 206.19 C 264.62 222.66 236.10 247.20 214.90 276.98 C 191.80 309.24 177.37 347.16 170.35 386.06 C 161.27 435.52 163.62 486.48 172.71 535.75 C 187.74 615.12 220.35 690.48 263.44 758.55 C 301.13 817.81 346.93 871.90 399.14 918.87 C 437.65 953.42 479.81 984.01 525.13 1009.04 C 561.59 1029.12 600.14 1045.59 640.25 1056.82 C 685.21 1069.29 732.41 1075.35 778.96 1070.37 C 802.26 1067.99 825.27 1062.63 847.12 1054.21 C 846.53 1065.34 847.71 1076.57 846.50 1087.65 L 846.44 1088.00 C 837.33 1090.98 828.40 1094.55 819.14 1097.08 C 767.84 1111.74 713.23 1111.85 660.95 1102.64 C 619.90 1095.35 579.97 1082.38 541.92 1065.43 C 450.87 1024.62 370.58 961.85 304.61 887.35 C 251.33 827.02 206.90 758.60 175.50 684.41 C 146.04 614.54 127.80 539.10 128.77 462.99 C 129.61 406.04 141.98 348.31 170.72 298.71 C 197.20 252.48 238.37 214.79 286.99 192.95 Z" />
<path fill="#3184d9" opacity="1.00" d=" M 972.26 574.75 C 972.69 583.47 972.02 592.24 972.58 600.95 C 1003.14 676.81 1020.48 759.19 1014.08 841.18 C 1009.06 840.88 1004.03 840.89 999.02 841.16 C 1006.05 775.45 995.66 708.85 975.51 646.23 C 974.58 643.30 973.95 640.21 972.12 637.68 C 972.01 616.71 971.73 595.71 972.26 574.75 Z" />
<path fill="#3184d9" opacity="1.00" d=" M 983.40 910.46 L 983.72 911.60 C 984.07 913.59 983.76 915.76 984.81 917.60 C 985.03 919.60 984.70 921.80 985.84 923.61 C 985.94 925.19 986.03 926.79 986.17 928.39 C 987.19 930.32 986.79 932.65 987.81 934.60 C 988.02 936.60 987.72 938.77 988.81 940.59 C 988.94 941.96 989.07 943.34 989.22 944.75 C 987.42 950.66 984.37 956.14 981.74 961.72 C 965.47 994.71 942.38 1024.43 913.86 1047.71 C 914.07 1036.64 914.14 1025.55 913.81 1014.49 C 945.91 986.98 969.77 950.38 983.40 910.46 Z" />
</g>
<g id="#ff001fff">
<path fill="#ff001f" opacity="1.00" d=" M 396.48 320.22 C 401.58 319.36 406.78 319.41 411.93 319.38 C 455.28 319.40 498.63 319.37 541.97 319.40 C 561.02 319.18 580.03 326.03 594.60 338.29 C 612.86 353.25 623.79 376.46 624.15 400.02 C 624.19 434.62 624.26 469.22 624.12 503.81 C 582.62 503.88 541.12 503.73 499.62 503.89 C 499.42 483.96 499.50 464.02 499.58 444.09 C 483.47 443.63 467.33 443.99 451.21 443.91 C 451.07 525.39 451.32 606.88 451.09 688.37 C 467.21 688.50 483.34 688.30 499.47 688.47 C 499.54 668.49 499.55 648.51 499.46 628.53 C 541.06 628.52 582.67 628.30 624.25 628.64 C 624.10 657.08 624.23 685.53 624.19 713.97 C 624.11 722.69 624.51 731.42 623.60 740.11 C 621.64 758.97 612.76 777.01 599.05 790.11 C 585.67 803.14 567.66 811.32 549.03 812.73 C 528.69 813.55 508.33 812.88 487.98 813.13 C 459.69 812.93 431.40 813.43 403.12 812.82 C 376.79 811.51 351.81 796.18 338.30 773.62 C 330.55 760.87 326.33 745.95 326.49 731.02 C 326.48 621.34 326.48 511.67 326.49 401.99 C 326.17 383.88 332.28 365.77 343.34 351.44 C 356.12 334.67 375.58 323.15 396.48 320.22 Z" />
<path fill="#ff001f" opacity="1.00" d=" M 674.60 319.73 C 684.70 320.34 694.84 319.84 704.96 320.00 C 726.92 319.86 748.89 320.28 770.84 319.78 C 796.55 319.38 822.28 319.72 848.00 319.61 C 860.65 319.79 873.49 318.83 885.93 321.67 C 917.18 328.01 944.95 349.05 959.73 377.27 C 968.34 393.40 972.69 411.77 972.38 430.05 C 972.30 478.28 972.54 526.52 972.26 574.75 C 971.73 595.71 972.01 616.71 972.12 637.68 C 972.34 659.77 972.41 681.86 972.38 703.95 C 972.41 719.12 969.25 734.29 963.10 748.16 C 949.59 779.13 920.86 802.99 887.82 810.24 C 879.33 812.21 870.63 813.10 861.92 812.87 C 799.53 812.86 737.13 812.87 674.73 812.86 C 674.64 648.48 674.91 484.10 674.60 319.73 M 799.39 444.05 C 799.53 525.53 799.36 607.01 799.48 688.49 C 815.61 688.35 831.75 688.55 847.89 688.39 C 847.64 606.93 847.84 525.47 847.79 444.01 C 831.66 443.83 815.51 443.74 799.39 444.05 Z" />
<path fill="#ff001f" opacity="1.00" d=" M 801.08 841.34 C 854.00 841.26 906.93 841.27 959.85 841.33 C 959.80 863.47 959.78 885.60 959.86 907.74 C 944.45 907.76 929.05 907.74 913.64 907.75 C 913.78 943.33 913.43 978.92 913.81 1014.49 C 914.14 1025.55 914.07 1036.64 913.86 1047.71 C 913.42 1066.68 913.71 1085.67 913.71 1104.66 C 891.55 1104.72 869.38 1104.66 847.22 1104.69 C 846.84 1099.04 848.12 1093.08 846.50 1087.65 C 847.71 1076.57 846.53 1065.34 847.12 1054.21 C 847.41 1005.39 847.15 956.57 847.25 907.74 C 831.86 907.74 816.46 907.76 801.07 907.74 C 801.16 885.60 801.13 863.47 801.08 841.34 Z" />
<path fill="#ff001f" opacity="1.00" d=" M 971.02 841.35 C 980.35 841.21 989.69 841.54 999.02 841.16 C 1004.03 840.89 1009.06 840.88 1014.08 841.18 C 1022.24 841.53 1030.41 841.21 1038.58 841.35 C 1045.71 902.17 1052.70 963.03 1060.00 1023.81 C 1067.18 963.01 1074.31 902.18 1081.39 841.36 C 1103.91 841.31 1126.43 841.32 1148.95 841.35 C 1133.38 929.10 1117.95 1016.88 1102.51 1104.65 C 1074.16 1104.68 1045.81 1104.70 1017.46 1104.64 C 1009.24 1057.51 1000.82 1010.43 992.63 963.30 C 991.49 957.11 990.60 950.88 989.22 944.75 C 989.07 943.34 988.94 941.96 988.81 940.59 C 987.72 938.77 988.02 936.60 987.81 934.60 C 986.79 932.65 987.19 930.32 986.17 928.39 C 986.03 926.79 985.94 925.19 985.84 923.61 C 984.70 921.80 985.03 919.60 984.81 917.60 C 983.76 915.76 984.07 913.59 983.72 911.60 L 983.40 910.46 C 979.14 887.45 975.20 864.37 971.02 841.35 Z" />
</g>
</svg>
