<?xml version="1.0" encoding="UTF-8" ?>
<!DOCTYPE svg PUBLIC "-//W3C//DTD SVG 1.1//EN" "http://www.w3.org/Graphics/SVG/1.1/DTD/svg11.dtd">
<svg width="1276pt" height="1276pt" viewBox="0 0 1276 1276" version="1.1" xmlns="http://www.w3.org/2000/svg">
<g id="#8b8b8bff">
<path fill="#8b8b8b" opacity="1.00" d=" M 425.92 243.40 C 499.43 237.03 573.18 232.94 647.00 233.68 C 724.51 234.64 801.91 239.20 879.09 246.29 C 931.15 251.54 983.30 257.44 1034.47 268.70 C 1050.63 272.57 1066.91 276.37 1082.27 282.84 C 1092.33 286.86 1101.72 293.01 1108.63 301.43 C 1112.86 307.09 1116.73 313.04 1119.72 319.46 C 1121.31 322.78 1123.17 326.00 1124.30 329.53 C 1125.07 331.13 1125.78 332.78 1126.29 334.51 C 1127.06 336.13 1127.79 337.79 1128.33 339.52 C 1128.65 340.50 1128.97 341.48 1129.30 342.48 C 1129.64 343.46 1129.98 344.46 1130.32 345.46 C 1130.64 346.46 1130.96 347.46 1131.27 348.47 C 1131.77 349.84 1132.24 351.24 1132.81 352.62 C 1132.91 353.07 1133.10 353.99 1133.20 354.45 C 1133.58 355.44 1133.96 356.45 1134.33 357.47 C 1134.80 359.18 1135.17 360.92 1135.73 362.62 C 1135.87 363.07 1136.14 363.97 1136.28 364.43 C 1136.69 365.73 1136.99 367.08 1137.30 368.43 C 1137.80 370.15 1138.18 371.90 1138.75 373.60 C 1138.88 374.06 1139.14 374.97 1139.27 375.42 C 1139.68 376.74 1139.99 378.10 1140.33 379.45 C 1140.70 380.76 1140.99 382.09 1141.30 383.42 C 1141.68 384.74 1141.98 386.07 1142.31 387.42 C 1142.69 388.74 1142.99 390.09 1143.34 391.44 C 1143.79 393.05 1144.00 394.71 1144.26 396.37 C 1144.67 397.71 1144.98 399.06 1145.34 400.43 C 1145.79 402.05 1146.00 403.72 1146.28 405.39 C 1146.81 407.01 1147.00 408.70 1147.28 410.39 C 1147.87 412.00 1148.01 413.71 1148.27 415.40 C 1148.92 416.98 1149.01 418.70 1149.26 420.38 C 1149.88 421.97 1150.00 423.68 1150.27 425.37 C 1150.87 426.98 1151.00 428.70 1151.27 430.39 C 1151.95 432.31 1152.01 434.37 1152.22 436.38 C 1153.17 438.24 1152.96 440.36 1153.20 442.38 C 1153.95 443.94 1154.00 445.69 1154.26 447.39 C 1155.12 449.61 1154.98 452.02 1155.17 454.35 C 1156.14 456.20 1155.96 458.34 1156.21 460.37 C 1157.23 462.55 1156.94 465.03 1157.17 467.37 C 1158.33 469.52 1157.91 472.04 1158.16 474.39 C 1159.30 476.54 1158.92 479.03 1159.16 481.37 C 1160.43 483.84 1159.86 486.70 1160.14 489.36 C 1161.29 491.52 1160.91 494.04 1161.17 496.39 C 1162.40 499.22 1161.87 502.38 1162.14 505.38 C 1163.44 508.19 1162.85 511.37 1163.14 514.37 C 1164.67 517.82 1163.71 521.72 1164.12 525.37 C 1165.70 528.45 1164.71 532.05 1165.12 535.37 C 1166.81 539.12 1165.61 543.39 1166.12 547.36 C 1168.26 551.86 1165.78 557.14 1167.74 561.69 C 1168.60 566.98 1167.04 572.56 1168.73 577.70 C 1169.73 585.31 1167.95 593.21 1169.71 600.67 C 1170.31 616.76 1169.88 632.87 1169.98 648.97 C 1169.68 652.84 1170.53 656.92 1169.13 660.64 C 1168.79 667.10 1169.15 673.57 1168.96 680.04 C 1168.94 681.29 1168.67 682.48 1168.13 683.62 C 1167.79 688.84 1168.25 694.09 1167.75 699.31 C 1165.71 704.17 1168.33 709.80 1166.13 714.63 C 1165.55 718.93 1166.88 723.55 1165.12 727.63 C 1164.67 731.27 1165.74 735.22 1164.12 738.65 C 1163.68 742.28 1164.73 746.20 1163.12 749.62 C 1162.79 752.61 1163.57 755.87 1162.12 758.65 C 1161.77 761.95 1162.58 765.49 1161.15 768.62 C 1160.87 771.29 1161.39 774.15 1160.14 776.64 C 1159.84 779.29 1160.48 782.17 1159.15 784.62 C 1158.90 787.29 1159.34 790.12 1158.17 792.63 C 1157.93 794.97 1158.26 797.47 1157.17 799.65 C 1156.92 801.97 1157.27 804.46 1156.18 806.63 C 1155.97 808.97 1156.14 811.42 1155.20 813.65 C 1154.97 815.64 1155.12 817.76 1154.21 819.62 C 1153.96 821.62 1154.12 823.75 1153.20 825.62 C 1152.96 827.62 1153.15 829.75 1152.21 831.62 C 1151.99 833.61 1152.01 835.69 1151.26 837.59 C 1151.00 839.27 1150.95 841.03 1150.23 842.62 C 1150.00 844.62 1149.93 846.67 1149.28 848.61 C 1149.00 850.28 1148.79 851.98 1148.27 853.60 C 1148.00 855.26 1147.81 856.95 1147.35 858.58 C 1147.00 859.92 1146.69 861.28 1146.26 862.60 C 1146.00 864.28 1145.92 866.02 1145.23 867.61 C 1145.05 868.51 1144.90 869.42 1144.76 870.34 C 1144.01 872.35 1143.88 874.51 1143.33 876.58 C 1143.00 877.91 1142.70 879.26 1142.32 880.59 C 1142.00 881.91 1141.71 883.26 1141.32 884.59 C 1141.00 885.92 1140.71 887.27 1140.33 888.60 C 1140.01 889.93 1139.71 891.27 1139.32 892.59 C 1139.00 893.92 1138.70 895.26 1138.33 896.59 C 1138.00 897.92 1137.69 899.26 1137.27 900.59 C 1137.14 901.04 1136.88 901.95 1136.76 902.41 C 1136.18 904.10 1135.79 905.86 1135.24 907.57 C 1135.12 908.03 1134.87 908.95 1134.75 909.41 C 1134.18 911.08 1133.80 912.81 1133.31 914.52 C 1132.97 915.51 1132.64 916.51 1132.30 917.52 C 1131.97 918.51 1131.64 919.51 1131.30 920.52 C 1130.97 921.51 1130.64 922.51 1130.30 923.51 C 1129.97 924.50 1129.65 925.49 1129.32 926.49 C 1128.86 927.89 1128.30 929.25 1127.74 930.62 C 1127.06 932.28 1126.42 933.96 1125.73 935.62 C 1125.06 937.30 1124.41 938.99 1123.67 940.66 C 1123.33 941.56 1123.01 942.49 1122.73 943.43 C 1121.58 945.76 1120.43 948.09 1119.27 950.42 C 1117.99 953.26 1116.37 955.91 1114.74 958.56 C 1111.58 963.68 1108.49 968.96 1104.33 973.35 C 1101.42 977.97 1097.07 981.59 1092.38 984.32 C 1090.64 985.99 1088.65 987.33 1086.44 988.29 C 1084.80 989.08 1083.18 989.89 1081.58 990.73 C 1080.17 991.38 1078.79 992.06 1077.42 992.74 C 1076.48 993.02 1075.56 993.33 1074.67 993.68 C 1073.28 994.28 1071.91 994.86 1070.49 995.33 C 1069.49 995.65 1068.50 995.98 1067.53 996.30 C 1066.52 996.64 1065.51 996.97 1064.52 997.29 C 1063.51 997.64 1062.50 997.98 1061.51 998.32 C 1059.80 998.81 1058.06 999.18 1056.39 999.74 C 1055.94 999.87 1055.03 1000.14 1054.58 1000.27 C 1053.25 1000.68 1051.91 1001.00 1050.59 1001.33 C 1049.26 1001.71 1047.91 1002.00 1046.58 1002.32 C 1045.25 1002.70 1043.91 1003.00 1042.59 1003.32 C 1041.26 1003.71 1039.91 1004.01 1038.59 1004.33 C 1037.25 1004.70 1035.90 1005.00 1034.57 1005.32 C 1033.24 1005.69 1031.90 1006.00 1030.58 1006.33 C 1028.95 1006.84 1027.25 1007.01 1025.59 1007.27 C 1024.26 1007.68 1022.91 1008.00 1021.59 1008.35 C 1019.96 1008.82 1018.27 1009.01 1016.62 1009.27 C 1014.99 1009.81 1013.27 1010.00 1011.60 1010.28 C 1009.99 1010.87 1008.27 1011.01 1006.61 1011.28 C 1004.99 1011.84 1003.27 1012.00 1001.60 1012.28 C 999.69 1013.02 997.62 1013.00 995.63 1013.21 C 993.76 1014.17 991.62 1013.96 989.62 1014.20 C 988.05 1014.96 986.30 1015.00 984.63 1015.26 C 982.41 1016.18 979.97 1015.97 977.64 1016.17 C 976.08 1016.99 974.30 1017.00 972.61 1017.25 C 970.39 1018.16 967.95 1017.97 965.63 1018.17 C 963.77 1019.16 961.62 1018.96 959.62 1019.21 C 957.42 1020.17 954.97 1019.96 952.64 1020.18 C 950.44 1021.20 947.96 1020.95 945.63 1021.18 C 943.11 1022.32 940.30 1021.91 937.64 1022.14 C 935.50 1023.37 932.96 1022.89 930.63 1023.17 C 928.12 1024.33 925.29 1023.91 922.63 1024.14 C 919.85 1025.56 916.62 1024.80 913.64 1025.12 C 911.22 1026.56 908.29 1025.81 905.63 1026.13 C 902.88 1027.63 899.62 1026.77 896.64 1027.12 C 894.21 1028.55 891.28 1027.81 888.62 1028.14 C 885.50 1029.59 881.95 1028.77 878.64 1029.12 C 875.56 1030.70 871.94 1029.71 868.64 1030.12 C 865.54 1031.67 861.95 1030.73 858.64 1031.12 C 855.21 1032.77 851.26 1031.65 847.62 1032.12 C 844.19 1033.73 840.26 1032.67 836.63 1033.12 C 832.87 1034.82 828.60 1033.61 824.63 1034.12 C 820.86 1035.78 816.60 1034.63 812.62 1035.13 C 807.85 1036.91 802.60 1035.51 797.64 1036.12 C 793.23 1037.95 788.26 1036.49 783.63 1037.12 C 778.54 1039.00 772.92 1037.44 767.63 1038.13 C 761.45 1040.42 754.50 1037.62 748.31 1039.74 C 741.34 1040.69 734.09 1038.96 727.29 1040.73 C 720.54 1041.21 713.77 1040.94 707.01 1040.98 C 704.43 1041.06 701.70 1040.59 699.29 1041.72 C 676.88 1042.32 654.45 1041.85 632.03 1042.00 C 619.92 1041.92 607.79 1042.21 595.69 1041.73 C 592.94 1040.48 589.86 1041.12 586.96 1040.99 C 577.54 1040.90 568.11 1041.24 558.70 1040.74 C 556.62 1039.68 554.25 1040.02 552.02 1039.97 C 544.91 1039.95 537.78 1040.19 530.68 1039.72 C 522.82 1037.58 514.22 1040.48 506.37 1038.13 C 500.15 1037.76 493.91 1038.29 487.70 1037.75 C 482.25 1035.99 476.33 1037.63 470.71 1036.79 C 464.55 1034.56 457.55 1037.44 451.37 1035.13 C 447.06 1034.56 442.46 1035.86 438.37 1034.13 C 433.41 1033.46 428.12 1034.98 423.37 1033.12 C 419.06 1032.59 414.48 1033.82 410.37 1032.12 C 406.40 1031.60 402.12 1032.83 398.38 1031.12 C 394.73 1030.67 390.81 1031.73 387.38 1030.12 C 383.74 1029.66 379.80 1030.75 376.38 1029.12 C 373.06 1028.73 369.47 1029.66 366.37 1028.13 C 363.38 1027.77 360.12 1028.61 357.36 1027.12 C 354.04 1026.76 350.48 1027.60 347.36 1026.14 C 344.69 1025.88 341.84 1026.40 339.38 1025.14 C 336.71 1024.82 333.80 1025.53 331.37 1024.14 C 328.70 1023.88 325.84 1024.40 323.37 1023.14 C 320.72 1022.90 317.90 1023.36 315.42 1022.19 C 313.05 1021.96 310.58 1022.14 308.34 1021.19 C 306.33 1020.96 304.19 1021.20 302.37 1020.17 C 300.03 1019.93 297.56 1020.23 295.37 1019.21 C 293.35 1018.97 291.23 1019.09 289.35 1018.21 C 287.34 1017.98 285.24 1018.08 283.36 1017.22 C 281.37 1017.00 279.32 1016.98 277.42 1016.27 C 275.73 1016.00 274.00 1015.90 272.40 1015.27 C 270.70 1015.00 268.98 1014.85 267.36 1014.26 C 265.69 1014.01 263.98 1013.92 262.40 1013.28 C 260.72 1013.01 259.03 1012.82 257.41 1012.34 C 256.05 1012.01 254.69 1011.70 253.37 1011.26 C 251.71 1011.02 250.03 1010.86 248.42 1010.34 C 247.07 1010.00 245.72 1009.70 244.40 1009.28 C 242.72 1009.01 241.04 1008.80 239.40 1008.35 C 238.06 1007.99 236.71 1007.68 235.40 1007.26 C 234.95 1007.13 234.06 1006.88 233.61 1006.75 C 231.89 1006.18 230.13 1005.79 228.42 1005.24 C 227.96 1005.12 227.05 1004.88 226.59 1004.76 C 224.88 1004.18 223.13 1003.79 221.42 1003.24 C 220.97 1003.12 220.06 1002.89 219.60 1002.78 C 218.59 1002.38 217.57 1002.02 216.55 1001.70 C 215.19 1001.20 213.81 1000.76 212.46 1000.28 C 211.46 999.96 210.47 999.65 209.48 999.34 C 208.07 998.87 206.70 998.28 205.35 997.68 C 204.42 997.33 203.48 997.01 202.54 996.73 C 200.22 995.58 197.90 994.42 195.58 993.29 C 193.43 992.26 191.45 990.95 189.42 989.74 C 187.64 988.85 186.07 987.64 184.61 986.32 C 175.77 981.39 170.15 972.60 164.66 964.42 C 162.89 961.99 161.62 959.25 160.29 956.58 C 158.83 954.32 157.72 951.88 156.75 949.39 C 155.33 946.90 154.21 944.27 153.32 941.57 C 152.61 940.15 151.89 938.75 151.15 937.37 C 151.07 936.92 150.89 936.01 150.80 935.56 C 150.41 934.54 150.05 933.51 149.70 932.50 C 148.91 930.86 148.20 929.20 147.68 927.48 C 147.34 926.48 147.02 925.49 146.71 924.50 C 146.35 923.50 146.02 922.50 145.70 921.51 C 145.36 920.50 145.03 919.51 144.70 918.52 C 143.70 915.86 143.17 913.06 142.23 910.39 C 142.12 909.93 141.91 909.01 141.80 908.55 C 141.40 907.54 141.01 906.54 140.64 905.54 C 140.27 904.21 139.99 902.87 139.71 901.55 C 139.20 899.86 138.83 898.14 138.30 896.48 C 137.72 894.50 137.14 892.52 136.69 890.52 C 136.30 889.21 135.99 887.89 135.68 886.58 C 135.29 885.24 135.00 883.88 134.71 882.55 C 133.96 879.89 133.35 877.20 132.71 874.53 C 132.28 872.89 132.00 871.22 131.72 869.57 C 131.31 868.25 130.99 866.91 130.66 865.59 C 130.20 863.95 129.98 862.25 129.74 860.59 C 129.32 859.25 129.00 857.88 128.67 856.53 C 128.27 854.88 128.00 853.19 127.71 851.53 C 127.26 849.90 127.00 848.23 126.71 846.59 C 126.26 844.92 126.00 843.22 125.71 841.54 C 125.26 839.88 125.00 838.18 124.70 836.51 C 124.17 834.57 123.98 832.56 123.76 830.58 C 122.77 826.98 122.22 823.29 121.75 819.60 C 121.13 817.65 120.98 815.59 120.76 813.58 C 120.17 811.62 119.98 809.58 119.75 807.57 C 118.32 798.27 116.52 788.97 115.81 779.57 C 114.87 777.00 115.03 774.24 114.82 771.57 C 111.67 751.31 110.17 730.74 108.53 710.31 C 107.61 705.37 108.47 700.29 107.57 695.35 C 106.43 687.30 107.67 679.11 106.35 671.08 C 106.01 657.06 106.09 643.03 106.33 629.01 C 107.80 616.08 106.31 602.99 107.91 590.06 C 108.15 584.04 107.95 577.99 108.44 571.98 C 109.44 565.36 108.84 558.64 109.47 552.00 C 110.33 546.04 109.87 539.98 110.92 534.04 C 111.06 523.62 112.56 513.30 113.19 502.92 C 117.44 457.65 123.95 412.36 136.80 368.66 C 144.13 344.00 154.50 319.43 172.54 300.62 C 181.20 292.29 192.02 286.60 203.17 282.36 C 224.54 274.32 246.91 269.41 269.18 264.59 C 320.94 254.35 373.42 248.25 425.92 243.40 M 577.32 269.38 C 524.45 270.89 471.64 274.33 418.97 279.09 C 366.71 284.19 314.42 290.23 262.99 301.05 C 243.66 305.59 224.09 310.20 206.25 319.17 C 195.35 324.17 188.84 334.93 183.39 345.09 C 172.21 366.84 165.57 390.61 160.61 414.46 C 154.63 444.35 150.84 474.63 148.07 504.97 C 143.98 550.86 142.11 596.93 141.18 642.98 C 140.85 684.44 144.06 725.86 148.95 767.01 C 154.04 808.15 160.71 849.22 171.69 889.24 C 177.38 908.77 183.69 928.38 193.94 946.05 C 197.71 952.77 203.24 958.62 210.30 961.88 C 230.80 972.14 253.47 976.91 275.84 981.19 C 309.39 987.38 343.31 991.34 377.25 994.73 C 432.39 999.93 487.70 1003.18 543.05 1005.18 C 599.66 1007.19 656.34 1008.41 712.97 1006.26 C 761.78 1004.53 810.53 1001.17 859.17 996.60 C 907.65 991.86 956.10 986.08 1003.99 977.03 C 1025.43 972.79 1047.08 968.26 1067.14 959.32 C 1073.94 956.58 1078.94 950.87 1082.79 944.82 C 1088.59 935.39 1092.96 925.18 1096.85 914.84 C 1104.03 895.06 1109.27 874.63 1113.40 854.01 C 1122.28 809.44 1127.74 764.24 1131.34 718.95 C 1135.10 671.50 1136.55 623.80 1133.63 576.26 C 1130.62 524.53 1124.69 472.92 1114.95 422.01 C 1110.81 401.57 1106.16 381.18 1099.45 361.42 C 1095.50 349.70 1090.90 338.12 1084.57 327.47 C 1082.19 323.36 1078.82 319.76 1074.50 317.71 C 1058.83 309.66 1041.56 305.56 1024.50 301.69 C 969.59 290.42 913.75 284.52 857.98 279.47 C 813.38 275.64 768.70 272.68 723.98 270.87 C 675.13 268.72 626.20 267.82 577.32 269.38 Z" />
</g>
<g id="#ffffffff">
<path fill="#ffffff" opacity="1.00" d=" M 577.32 269.38 C 626.20 267.82 675.13 268.72 723.98 270.87 C 768.70 272.68 813.38 275.64 857.98 279.47 C 913.75 284.52 969.59 290.42 1024.50 301.69 C 1041.56 305.56 1058.83 309.66 1074.50 317.71 C 1078.82 319.76 1082.19 323.36 1084.57 327.47 C 1090.90 338.12 1095.50 349.70 1099.45 361.42 C 1106.16 381.18 1110.81 401.57 1114.95 422.01 C 1124.69 472.92 1130.62 524.53 1133.63 576.26 C 1136.55 623.80 1135.10 671.50 1131.34 718.95 C 1127.74 764.24 1122.28 809.44 1113.40 854.01 C 1109.27 874.63 1104.03 895.06 1096.85 914.84 C 1092.96 925.18 1088.59 935.39 1082.79 944.82 C 1078.94 950.87 1073.94 956.58 1067.14 959.32 C 1047.08 968.26 1025.43 972.79 1003.99 977.03 C 956.10 986.08 907.65 991.86 859.17 996.60 C 810.53 1001.17 761.78 1004.53 712.97 1006.26 C 656.34 1008.41 599.66 1007.19 543.05 1005.18 C 487.70 1003.18 432.39 999.93 377.25 994.73 C 343.31 991.34 309.39 987.38 275.84 981.19 C 253.47 976.91 230.80 972.14 210.30 961.88 C 203.24 958.62 197.71 952.77 193.94 946.05 C 183.69 928.38 177.38 908.77 171.69 889.24 C 160.71 849.22 154.04 808.15 148.95 767.01 C 144.06 725.86 140.85 684.44 141.18 642.98 C 142.11 596.93 143.98 550.86 148.07 504.97 C 150.84 474.63 154.63 444.35 160.61 414.46 C 165.57 390.61 172.21 366.84 183.39 345.09 C 188.84 334.93 195.35 324.17 206.25 319.17 C 224.09 310.20 243.66 305.59 262.99 301.05 C 314.42 290.23 366.71 284.19 418.97 279.09 C 471.64 274.33 524.45 270.89 577.32 269.38 M 459.78 325.48 C 459.88 532.78 459.80 740.10 459.82 947.41 C 513.16 947.37 566.51 947.50 619.86 947.34 C 619.60 868.63 619.83 789.90 619.74 711.18 C 686.79 711.20 753.83 711.17 820.87 711.19 C 820.88 662.75 820.90 614.31 820.85 565.87 C 753.82 565.90 686.78 565.88 619.74 565.88 C 619.71 533.08 619.83 500.27 619.69 467.46 C 686.76 467.34 753.84 467.45 820.91 467.40 C 820.84 420.07 820.88 372.73 820.89 325.39 C 700.52 325.50 580.15 325.33 459.78 325.48 Z" />
</g>
<g id="#ff0000ff">
<path fill="#ff0000" opacity="1.00" d=" M 459.78 325.48 C 580.15 325.33 700.52 325.50 820.89 325.39 C 820.88 372.73 820.84 420.07 820.91 467.40 C 753.84 467.45 686.76 467.34 619.69 467.46 C 619.83 500.27 619.71 533.08 619.74 565.88 C 686.78 565.88 753.82 565.90 820.85 565.87 C 820.90 614.31 820.88 662.75 820.87 711.19 C 753.83 711.17 686.79 711.20 619.74 711.18 C 619.83 789.90 619.60 868.63 619.86 947.34 C 566.51 947.50 513.16 947.37 459.82 947.41 C 459.80 740.10 459.88 532.78 459.78 325.48 Z" />
</g>
</svg>
