<?xml version="1.0" encoding="UTF-8" ?>
<!DOCTYPE svg PUBLIC "-//W3C//DTD SVG 1.1//EN" "http://www.w3.org/Graphics/SVG/1.1/DTD/svg11.dtd">
<svg width="1276pt" height="1276pt" viewBox="0 0 1276 1276" version="1.1" xmlns="http://www.w3.org/2000/svg">
<g id="#ae1f19ff">
<path fill="#ae1f19" opacity="1.00" d=" M 420.02 380.05 C 488.66 380.13 557.32 379.93 625.97 380.15 C 596.16 429.40 566.52 478.75 536.84 528.08 C 530.07 527.99 523.21 527.62 516.48 528.24 C 516.55 534.07 516.54 539.91 516.53 545.74 C 509.36 550.34 505.20 558.96 496.87 561.81 C 491.22 562.29 486.60 557.80 482.73 554.24 C 477.16 548.03 470.54 542.86 463.37 538.64 C 454.99 534.78 445.80 531.43 436.46 532.17 C 435.95 530.78 435.40 529.40 434.84 528.04 C 408.23 528.03 381.61 528.02 355.00 528.05 C 354.36 527.28 353.72 526.52 353.08 525.77 C 351.96 526.87 351.79 528.54 351.18 529.93 C 346.03 529.82 340.84 530.35 335.72 529.57 C 335.81 529.13 335.99 528.27 336.08 527.84 C 334.33 527.90 332.58 527.97 330.83 528.06 C 360.55 478.72 390.25 429.36 420.02 380.05 Z" />
<path fill="#ae1f19" opacity="1.00" d=" M 175.13 786.53 C 178.33 793.00 180.59 800.10 185.44 805.62 C 189.20 809.85 193.07 814.14 197.98 817.07 C 207.37 823.55 218.93 825.49 230.00 826.96 C 234.73 826.92 239.40 827.31 244.07 828.06 C 271.39 828.11 298.71 827.94 326.03 828.12 C 330.06 828.20 333.96 826.81 338.00 827.05 C 342.59 827.25 347.09 826.14 351.63 825.63 C 354.10 825.37 356.19 823.62 358.72 823.69 C 344.87 847.11 330.58 870.26 316.74 893.68 C 303.21 894.29 289.56 893.77 275.99 893.94 C 220.80 893.95 165.61 893.92 110.43 893.96 C 131.95 858.13 153.55 822.33 175.13 786.53 Z" />
</g>
<g id="#197123ff">
<path fill="#197123" opacity="1.00" d=" M 690.25 380.28 C 703.46 379.75 716.76 380.21 730.00 380.06 C 785.52 380.05 841.04 380.07 896.56 380.04 C 866.70 429.22 837.27 478.67 807.39 527.83 C 788.10 527.74 768.82 527.86 749.54 527.77 C 749.61 528.40 749.76 529.65 749.83 530.28 C 749.17 530.29 747.86 530.32 747.20 530.33 C 746.91 531.86 747.07 533.44 747.06 535.01 C 741.68 534.84 736.30 534.91 730.93 534.95 C 730.93 532.64 730.93 530.33 730.89 528.02 C 712.30 527.88 693.71 527.95 675.13 527.97 C 674.99 536.22 675.14 544.46 675.08 552.71 C 669.62 555.51 665.68 561.69 659.02 562.03 C 650.32 561.96 644.28 554.98 637.61 550.44 C 630.44 544.41 621.79 540.33 612.66 538.34 C 610.25 537.96 607.56 536.23 605.34 538.03 C 603.80 535.02 602.40 531.93 600.72 529.00 C 630.60 479.45 660.52 429.92 690.25 380.28 Z" />
<path fill="#197123" opacity="1.00" d=" M 380.97 893.92 C 397.04 867.20 413.17 840.51 429.21 813.77 C 432.98 817.33 436.29 821.51 440.99 823.94 C 446.44 826.78 451.86 829.91 457.91 831.29 C 465.73 833.59 473.97 833.56 481.96 834.97 C 511.29 835.02 540.65 834.91 569.99 835.01 C 583.27 833.73 597.09 832.58 609.01 825.99 C 616.00 822.61 623.48 816.79 631.64 819.73 C 616.88 844.53 601.86 869.19 587.03 893.95 C 518.34 893.93 449.66 893.98 380.97 893.92 Z" />
</g>
<g id="#498cc1ff">
<path fill="#498cc1" opacity="1.00" d=" M 961.02 380.06 C 1029.58 380.03 1098.15 380.10 1166.71 380.02 C 1159.20 393.52 1150.77 406.68 1142.88 420.03 C 1116.47 463.92 1090.03 507.78 1063.62 551.66 C 1060.99 550.80 1059.26 553.34 1056.91 553.88 C 1049.83 556.64 1042.79 551.80 1037.47 547.54 C 1029.88 540.93 1021.10 535.76 1011.66 532.31 C 1005.63 530.53 999.40 529.59 993.21 528.62 C 991.93 528.34 990.64 528.42 989.42 528.78 C 989.07 528.57 988.36 528.17 988.01 527.96 C 964.51 528.03 940.99 528.17 917.49 527.86 C 918.83 530.79 921.34 533.04 923.10 535.75 C 919.33 535.46 915.13 535.20 912.54 538.50 C 902.74 533.24 891.98 529.98 881.07 528.06 C 878.03 527.60 874.95 527.88 871.91 527.87 C 901.68 478.64 931.27 429.30 961.02 380.06 Z" />
<path fill="#498cc1" opacity="1.00" d=" M 885.03 826.04 C 889.75 826.40 894.33 824.77 899.05 824.91 C 885.30 847.88 871.32 870.72 857.70 893.76 C 788.95 894.20 720.17 893.78 651.41 893.97 C 664.93 871.68 678.19 849.17 691.88 827.04 C 695.17 825.57 698.61 826.75 701.98 827.08 C 708.32 827.17 714.69 827.32 720.95 826.12 C 739.28 826.06 757.62 826.06 775.96 826.06 C 785.33 826.27 794.74 825.45 804.01 827.11 C 823.34 826.85 842.68 827.18 862.01 827.01 C 869.62 825.75 877.34 826.02 885.03 826.04 Z" />
</g>
<g id="#ffffffff">
<path fill="#ffffff" opacity="1.00" d=" M 351.18 529.93 C 351.79 528.54 351.96 526.87 353.08 525.77 C 353.72 526.52 354.36 527.28 355.00 528.05 C 381.61 528.02 408.23 528.03 434.84 528.04 C 435.40 529.40 435.95 530.78 436.46 532.17 C 438.49 537.79 440.58 543.38 442.63 548.99 C 444.24 553.26 445.76 557.56 447.35 561.84 C 456.10 585.62 464.90 609.38 473.67 633.15 C 481.68 655.25 489.91 677.28 498.08 699.33 C 503.99 715.06 509.77 730.83 515.55 746.60 C 515.79 747.19 516.26 748.37 516.50 748.96 C 500.41 748.90 484.32 748.98 468.23 748.92 C 460.63 748.74 452.96 749.20 445.39 748.70 C 440.71 734.43 435.96 720.18 431.10 705.99 C 430.73 705.96 429.99 705.89 429.62 705.86 C 415.85 705.92 402.06 705.99 388.29 705.83 C 381.65 696.17 374.85 686.63 368.17 677.01 C 367.28 675.75 366.56 674.32 365.31 673.40 C 357.73 698.62 349.34 723.59 341.66 748.78 C 318.10 749.12 294.51 748.88 270.94 748.90 C 271.85 746.35 272.83 743.83 273.74 741.29 C 277.77 730.29 281.78 719.29 285.82 708.30 C 295.96 680.57 306.11 652.85 316.33 625.15 C 323.49 605.75 330.59 586.33 337.69 566.91 C 338.66 564.26 339.60 561.59 340.61 558.95 C 342.28 554.42 343.87 549.85 345.57 545.33 C 347.44 540.19 349.31 535.06 351.18 529.93 M 392.60 596.35 C 385.94 614.34 379.08 632.30 371.96 650.12 C 386.14 650.72 400.52 650.11 414.78 650.42 C 407.75 632.27 400.30 614.26 393.61 595.99 C 393.36 596.08 392.85 596.26 392.60 596.35 Z" />
<path fill="#ffffff" opacity="1.00" d=" M 128.11 528.16 C 195.68 528.06 263.26 528.25 330.83 528.06 C 332.58 527.97 334.33 527.90 336.08 527.84 C 335.99 528.27 335.81 529.13 335.72 529.57 C 333.41 534.65 331.24 539.80 329.03 544.92 C 327.21 549.15 325.36 553.37 323.57 557.61 C 322.33 560.44 321.10 563.28 319.90 566.13 C 317.38 571.94 314.88 577.76 312.37 583.58 C 307.36 583.72 302.35 583.65 297.34 583.59 C 285.81 583.50 274.27 583.54 262.74 583.57 C 262.76 602.46 262.72 621.36 262.76 640.25 C 262.90 669.40 262.76 698.54 262.83 727.69 C 262.81 734.77 262.79 741.84 262.85 748.92 C 247.88 749.03 232.91 748.92 217.94 748.98 C 211.65 748.95 205.37 748.99 199.09 748.99 C 198.76 748.99 198.10 748.99 197.77 748.98 L 195.43 748.94 C 195.43 748.32 195.43 747.08 195.43 746.46 C 194.78 746.45 193.47 746.43 192.81 746.42 C 192.89 692.15 192.66 637.88 192.92 583.61 C 171.37 583.47 149.81 583.55 128.26 583.57 C 127.92 565.16 128.18 546.62 128.11 528.16 Z" />
<path fill="#ffffff" opacity="1.00" d=" M 516.48 528.24 C 523.21 527.62 530.07 527.99 536.84 528.08 C 557.97 528.23 579.10 528.06 600.23 528.17 L 600.72 529.00 C 602.40 531.93 603.80 535.02 605.34 538.03 C 608.02 543.32 610.61 548.65 613.29 553.95 C 621.93 571.29 630.56 588.64 639.26 605.95 C 649.79 626.98 660.28 648.03 670.78 669.07 C 672.43 671.75 673.16 675.03 675.32 677.34 C 675.02 661.28 675.24 645.22 675.16 629.16 C 675.13 612.34 675.13 595.52 675.11 578.70 C 675.12 570.04 675.11 561.37 675.08 552.71 C 675.14 544.46 674.99 536.22 675.13 527.97 C 693.71 527.95 712.30 527.88 730.89 528.02 C 730.93 530.33 730.93 532.64 730.93 534.95 C 730.91 538.96 730.90 542.96 730.90 546.97 C 730.89 550.30 730.87 553.64 730.88 556.97 C 730.87 560.65 730.84 564.34 730.85 568.02 C 730.84 572.35 730.82 576.68 730.83 581.02 C 730.82 605.60 730.79 630.19 730.83 654.77 C 730.64 686.14 730.73 717.51 730.77 748.88 C 711.95 749.03 693.13 748.87 674.31 748.96 C 666.80 748.97 659.29 748.94 651.78 748.98 C 650.26 748.98 648.75 748.94 647.25 748.89 C 639.74 733.83 632.21 718.77 624.67 703.73 C 607.54 669.36 590.21 635.09 573.18 600.68 C 572.93 600.50 572.43 600.15 572.19 599.98 C 572.75 621.97 572.27 643.99 572.43 665.99 C 572.43 693.64 572.41 721.29 572.43 748.94 C 554.70 749.01 536.97 748.92 519.24 748.98 C 519.25 748.36 519.25 747.10 519.25 746.47 C 518.65 746.50 517.45 746.54 516.85 746.57 C 516.46 720.34 516.61 694.08 516.69 667.85 C 516.69 632.38 516.83 596.90 516.62 561.43 C 516.47 556.20 516.56 550.97 516.53 545.74 C 516.54 539.91 516.55 534.07 516.48 528.24 Z" />
<path fill="#ffffff" opacity="1.00" d=" M 749.83 530.28 C 749.76 529.65 749.61 528.40 749.54 527.77 C 768.82 527.86 788.10 527.74 807.39 527.83 C 828.89 527.95 850.40 527.87 871.91 527.87 C 874.95 527.88 878.03 527.60 881.07 528.06 C 891.98 529.98 902.74 533.24 912.54 538.50 C 917.99 541.28 923.01 544.86 927.61 548.88 C 930.97 551.64 933.81 554.93 936.60 558.24 C 940.69 563.06 943.88 568.56 946.68 574.20 C 949.96 581.13 952.70 588.42 954.06 595.98 C 954.00 620.99 954.17 646.01 954.07 671.02 C 953.88 675.67 954.75 680.49 953.24 685.00 C 949.87 697.33 944.39 709.24 936.18 719.12 C 922.44 736.12 901.31 745.70 880.03 748.86 C 835.74 749.02 791.45 748.90 747.16 748.91 C 747.17 744.40 747.22 739.89 747.14 735.39 C 747.34 699.86 747.17 664.32 747.22 628.78 C 747.08 612.85 747.21 596.91 747.15 580.98 C 747.15 576.66 747.14 572.35 747.13 568.04 C 747.13 564.34 747.12 560.64 747.11 556.95 C 747.10 553.62 747.10 550.30 747.09 546.98 C 747.07 542.99 747.09 539.00 747.06 535.01 C 747.07 533.44 746.91 531.86 747.20 530.33 C 747.86 530.32 749.17 530.29 749.83 530.28 M 803.30 576.43 C 803.19 577.06 802.98 578.32 802.88 578.95 C 802.93 599.98 802.78 621.02 802.89 642.06 C 802.98 661.61 802.58 681.29 803.04 700.80 C 809.38 700.71 815.72 700.68 822.07 700.72 C 827.31 700.84 832.57 700.69 837.82 700.68 C 847.31 700.53 856.98 701.58 866.21 698.80 L 865.79 698.59 C 869.20 698.37 872.36 696.67 875.58 695.58 L 875.82 695.10 C 887.45 690.49 894.65 679.02 898.29 667.51 C 898.36 658.10 898.40 648.68 898.43 639.27 C 898.41 633.56 898.51 627.84 898.51 622.13 C 898.44 618.12 898.60 614.11 898.51 610.10 C 896.36 602.86 892.98 595.84 887.83 590.25 C 881.37 583.23 872.21 579.44 863.03 577.56 C 856.40 575.68 849.47 576.86 842.70 576.46 C 829.57 576.36 816.43 576.42 803.30 576.43 Z" />
<path fill="#ffffff" opacity="1.00" d=" M 917.49 527.86 C 940.99 528.17 964.51 528.03 988.01 527.96 C 988.36 528.17 989.07 528.57 989.42 528.78 C 993.06 534.46 996.73 540.12 1000.43 545.77 C 1004.82 552.36 1009.03 559.07 1013.41 565.67 C 1020.28 576.30 1027.39 586.77 1034.03 597.53 C 1036.64 594.81 1038.24 591.11 1040.53 588.06 C 1043.49 583.56 1046.28 578.96 1049.35 574.54 C 1052.18 570.03 1055.35 565.73 1058.14 561.19 C 1065.18 550.19 1072.41 539.31 1079.44 528.29 C 1105.57 527.97 1131.75 528.15 1157.90 528.20 C 1134.39 559.48 1110.79 590.70 1087.24 621.96 C 1081.14 630.26 1074.64 638.30 1068.76 646.74 C 1068.98 680.76 1068.63 714.80 1069.11 748.82 C 1048.20 749.04 1027.27 749.00 1006.37 748.83 C 1006.54 715.21 1006.25 681.59 1006.45 647.97 C 1006.46 647.72 1006.49 647.23 1006.50 646.98 C 988.00 622.23 969.47 597.51 950.92 572.81 C 946.68 567.06 942.24 561.46 938.06 555.68 C 935.48 552.16 932.77 548.75 930.22 545.22 C 927.84 542.06 925.43 538.94 923.10 535.75 C 921.34 533.04 918.83 530.79 917.49 527.86 Z" />
</g>
<g id="#4380b1ff">
<path fill="#4380b1" opacity="1.00" d=" M 989.42 528.78 C 990.64 528.42 991.93 528.34 993.21 528.62 C 999.40 529.59 1005.63 530.53 1011.66 532.31 C 1021.10 535.76 1029.88 540.93 1037.47 547.54 C 1042.79 551.80 1049.83 556.64 1056.91 553.88 C 1059.26 553.34 1060.99 550.80 1063.62 551.66 C 1061.91 554.91 1059.63 557.84 1058.14 561.19 C 1055.35 565.73 1052.18 570.03 1049.35 574.54 C 1045.76 572.93 1042.16 571.29 1038.92 569.04 C 1030.22 561.65 1022.10 553.06 1011.30 548.71 C 1007.78 547.47 1004.28 545.24 1000.43 545.77 C 996.73 540.12 993.06 534.46 989.42 528.78 Z" />
</g>
<g id="#9c1c16ff">
<path fill="#9c1c16" opacity="1.00" d=" M 329.03 544.92 C 331.24 539.80 333.41 534.65 335.72 529.57 C 340.84 530.35 346.03 529.82 351.18 529.93 C 349.31 535.06 347.44 540.19 345.57 545.33 C 340.07 544.89 334.54 545.16 329.03 544.92 Z" />
<path fill="#9c1c16" opacity="1.00" d=" M 436.46 532.17 C 445.80 531.43 454.99 534.78 463.37 538.64 C 470.54 542.86 477.16 548.03 482.73 554.24 C 486.60 557.80 491.22 562.29 496.87 561.81 C 505.20 558.96 509.36 550.34 516.53 545.74 C 516.56 550.97 516.47 556.20 516.62 561.43 C 509.01 574.63 500.89 587.53 493.18 600.66 C 489.56 598.93 488.30 594.92 486.21 591.81 C 478.83 579.24 473.19 564.66 460.78 556.05 C 455.17 552.80 449.19 549.60 442.63 548.99 C 440.58 543.38 438.49 537.79 436.46 532.17 Z" />
</g>
<g id="#16621eff">
<path fill="#16621e" opacity="1.00" d=" M 730.93 534.95 C 736.30 534.91 741.68 534.84 747.06 535.01 C 747.09 539.00 747.07 542.99 747.09 546.98 C 741.69 547.01 736.29 547.00 730.90 546.97 C 730.90 542.96 730.91 538.96 730.93 534.95 Z" />
</g>
<g id="#407caaff">
<path fill="#407caa" opacity="1.00" d=" M 912.54 538.50 C 915.13 535.20 919.33 535.46 923.10 535.75 C 925.43 538.94 927.84 542.06 930.22 545.22 C 929.18 546.31 928.25 547.50 927.61 548.88 C 923.01 544.86 917.99 541.28 912.54 538.50 Z" />
</g>
<g id="#15601eff">
<path fill="#15601e" opacity="1.00" d=" M 605.34 538.03 C 607.56 536.23 610.25 537.96 612.66 538.34 C 621.79 540.33 630.44 544.41 637.61 550.44 C 644.28 554.98 650.32 561.96 659.02 562.03 C 665.68 561.69 669.62 555.51 675.08 552.71 C 675.11 561.37 675.12 570.04 675.11 578.70 C 671.92 583.56 668.72 589.96 662.06 590.15 C 655.32 589.28 650.15 584.04 645.79 579.21 C 643.32 575.69 640.05 572.86 637.53 569.40 C 631.89 562.12 624.18 556.55 615.44 553.62 C 614.90 553.70 613.82 553.87 613.29 553.95 C 610.61 548.65 608.02 543.32 605.34 538.03 Z" />
</g>
<g id="#841813ff">
<path fill="#841813" opacity="1.00" d=" M 329.03 544.92 C 334.54 545.16 340.07 544.89 345.57 545.33 C 343.87 549.85 342.28 554.42 340.61 558.95 C 335.28 556.58 329.19 558.61 323.57 557.61 C 325.36 553.37 327.21 549.15 329.03 544.92 Z" />
</g>
<g id="#3a6f9aff">
<path fill="#3a6f9a" opacity="1.00" d=" M 1000.43 545.77 C 1004.28 545.24 1007.78 547.47 1011.30 548.71 C 1022.10 553.06 1030.22 561.65 1038.92 569.04 C 1042.16 571.29 1045.76 572.93 1049.35 574.54 C 1046.28 578.96 1043.49 583.56 1040.53 588.06 C 1036.31 584.41 1031.63 581.30 1027.80 577.22 C 1023.87 573.44 1020.28 569.26 1015.76 566.17 C 1015.06 565.61 1014.28 565.45 1013.41 565.67 C 1009.03 559.07 1004.82 552.36 1000.43 545.77 Z" />
</g>
<g id="#3a709aff">
<path fill="#3a709a" opacity="1.00" d=" M 927.61 548.88 C 928.25 547.50 929.18 546.31 930.22 545.22 C 932.77 548.75 935.48 552.16 938.06 555.68 C 937.70 556.32 936.97 557.60 936.60 558.24 C 933.81 554.93 930.97 551.64 927.61 548.88 Z" />
</g>
<g id="#13561bff">
<path fill="#13561b" opacity="1.00" d=" M 730.90 546.97 C 736.29 547.00 741.69 547.01 747.09 546.98 C 747.10 550.30 747.10 553.62 747.11 556.95 C 741.69 557.07 736.28 556.99 730.88 556.97 C 730.87 553.64 730.89 550.30 730.90 546.97 Z" />
</g>
<g id="#861813ff">
<path fill="#861813" opacity="1.00" d=" M 442.63 548.99 C 449.19 549.60 455.17 552.80 460.78 556.05 C 473.19 564.66 478.83 579.24 486.21 591.81 C 488.30 594.92 489.56 598.93 493.18 600.66 C 490.14 605.63 487.14 610.63 484.18 615.64 C 480.09 608.67 477.78 600.80 474.55 593.41 C 469.09 580.83 461.92 567.53 448.87 561.54 C 448.49 561.61 447.73 561.76 447.35 561.84 C 445.76 557.56 444.24 553.26 442.63 548.99 Z" />
</g>
<g id="#125019ff">
<path fill="#125019" opacity="1.00" d=" M 613.29 553.95 C 613.82 553.87 614.90 553.70 615.44 553.62 C 624.18 556.55 631.89 562.12 637.53 569.40 C 640.05 572.86 643.32 575.69 645.79 579.21 C 650.15 584.04 655.32 589.28 662.06 590.15 C 668.72 589.96 671.92 583.56 675.11 578.70 C 675.13 595.52 675.13 612.34 675.16 629.16 C 668.13 631.75 661.09 627.61 655.89 623.15 C 649.81 618.25 645.74 611.47 640.96 605.45 C 640.53 605.57 639.68 605.83 639.26 605.95 C 630.56 588.64 621.93 571.29 613.29 553.95 Z" />
</g>
<g id="#2a516fff">
<path fill="#2a516f" opacity="1.00" d=" M 936.60 558.24 C 936.97 557.60 937.70 556.32 938.06 555.68 C 942.24 561.46 946.68 567.06 950.92 572.81 C 949.50 573.27 948.09 573.74 946.68 574.20 C 943.88 568.56 940.69 563.06 936.60 558.24 Z" />
<path fill="#2a516f" opacity="1.00" d=" M 837.99 617.98 C 845.78 613.40 854.99 611.54 863.96 611.94 C 876.23 611.17 888.22 615.76 898.51 622.13 C 898.51 627.84 898.41 633.56 898.43 639.27 C 895.46 637.37 893.38 634.38 890.33 632.59 C 880.50 626.40 868.39 623.18 856.86 625.68 C 846.87 627.40 836.91 633.31 832.99 643.03 C 826.72 657.12 826.50 672.86 826.97 688.00 C 827.29 691.97 828.23 695.86 828.49 699.84 C 826.34 700.02 824.19 700.11 822.05 700.05 C 819.76 699.98 817.48 699.84 815.21 699.70 C 815.13 692.43 813.38 685.29 814.04 678.01 C 813.35 671.28 815.05 664.72 815.22 658.02 C 816.80 646.92 819.19 634.78 827.70 626.76 C 831.03 623.73 833.71 619.78 837.99 617.98 Z" />
</g>
<g id="#104816ff">
<path fill="#104816" opacity="1.00" d=" M 730.88 556.97 C 736.28 556.99 741.69 557.07 747.11 556.95 C 747.12 560.64 747.13 564.34 747.13 568.04 C 741.70 567.89 736.27 568.06 730.85 568.02 C 730.84 564.34 730.87 560.65 730.88 556.97 Z" />
</g>
<g id="#6f1410ff">
<path fill="#6f1410" opacity="1.00" d=" M 319.90 566.13 C 321.10 563.28 322.33 560.44 323.57 557.61 C 329.19 558.61 335.28 556.58 340.61 558.95 C 339.60 561.59 338.66 564.26 337.69 566.91 C 331.86 565.58 325.81 566.87 319.90 566.13 Z" />
<path fill="#6f1410" opacity="1.00" d=" M 447.35 561.84 C 447.73 561.76 448.49 561.61 448.87 561.54 C 461.92 567.53 469.09 580.83 474.55 593.41 C 477.78 600.80 480.09 608.67 484.18 615.64 C 480.67 621.47 477.14 627.30 473.67 633.15 C 464.90 609.38 456.10 585.62 447.35 561.84 Z" />
</g>
<g id="#326084ff">
<path fill="#326084" opacity="1.00" d=" M 1013.41 565.67 C 1014.28 565.45 1015.06 565.61 1015.76 566.17 C 1020.28 569.26 1023.87 573.44 1027.80 577.22 C 1031.63 581.30 1036.31 584.41 1040.53 588.06 C 1038.24 591.11 1036.64 594.81 1034.03 597.53 C 1027.39 586.77 1020.28 576.30 1013.41 565.67 Z" />
</g>
<g id="#530f0cff">
<path fill="#530f0c" opacity="1.00" d=" M 319.90 566.13 C 325.81 566.87 331.86 565.58 337.69 566.91 C 330.59 586.33 323.49 605.75 316.33 625.15 C 310.73 625.12 304.89 624.28 299.59 626.58 C 293.69 628.29 289.40 632.91 285.30 637.21 C 280.09 642.42 278.33 649.89 276.66 656.82 C 275.66 665.14 273.98 673.60 275.92 681.93 C 276.78 691.43 280.30 700.55 285.82 708.30 C 281.78 719.29 277.77 730.29 273.74 741.29 C 271.52 738.86 268.91 736.79 266.84 734.24 C 265.48 732.06 264.45 729.69 262.83 727.69 C 262.76 698.54 262.90 669.40 262.76 640.25 C 264.34 639.55 264.48 637.68 265.38 636.42 C 276.11 618.85 286.53 601.10 297.34 583.59 C 302.35 583.65 307.36 583.72 312.37 583.58 C 314.88 577.76 317.38 571.94 319.90 566.13 Z" />
</g>
<g id="#0d3c13ff">
<path fill="#0d3c13" opacity="1.00" d=" M 730.85 568.02 C 736.27 568.06 741.70 567.89 747.13 568.04 C 747.14 572.35 747.15 576.66 747.15 580.98 C 741.71 580.92 736.27 581.08 730.83 581.02 C 730.82 576.68 730.84 572.35 730.85 568.02 Z" />
</g>
<g id="#213f57ff">
<path fill="#213f57" opacity="1.00" d=" M 946.68 574.20 C 948.09 573.74 949.50 573.27 950.92 572.81 C 969.47 597.51 988.00 622.23 1006.50 646.98 C 1006.49 647.23 1006.46 647.72 1006.45 647.97 L 1005.26 648.48 C 1005.06 648.93 1004.67 649.81 1004.48 650.26 C 1000.23 648.27 995.56 647.36 990.93 646.92 C 985.36 647.26 980.24 649.87 975.33 652.33 C 967.41 656.23 961.47 663.65 959.09 672.12 C 954.42 688.43 955.89 705.62 952.17 722.10 C 950.04 732.75 944.77 742.49 937.60 750.58 C 922.90 765.40 901.34 771.11 880.97 771.18 C 873.40 772.74 865.63 771.78 857.96 772.03 C 831.96 772.01 805.97 772.08 779.98 772.06 C 773.96 771.89 767.88 772.54 761.95 771.21 C 755.57 770.07 749.32 772.43 742.95 772.06 C 736.91 771.97 730.88 772.15 724.85 771.96 C 731.36 760.83 738.14 749.86 744.75 738.78 C 745.51 737.63 745.93 736.19 747.14 735.39 C 747.22 739.89 747.17 744.40 747.16 748.91 C 791.45 748.90 835.74 749.02 880.03 748.86 C 901.31 745.70 922.44 736.12 936.18 719.12 C 944.39 709.24 949.87 697.33 953.24 685.00 C 954.75 680.49 953.88 675.67 954.07 671.02 C 954.17 646.01 954.00 620.99 954.06 595.98 C 952.70 588.42 949.96 581.13 946.68 574.20 Z" />
</g>
<g id="#23445dff">
<path fill="#23445d" opacity="1.00" d=" M 842.70 576.46 C 849.47 576.86 856.40 575.68 863.03 577.56 C 872.21 579.44 881.37 583.23 887.83 590.25 C 892.98 595.84 896.36 602.86 898.51 610.10 C 898.60 614.11 898.44 618.12 898.51 622.13 C 888.22 615.76 876.23 611.17 863.96 611.94 C 854.99 611.54 845.78 613.40 837.99 617.98 C 833.71 619.78 831.03 623.73 827.70 626.76 C 819.19 634.78 816.80 646.92 815.22 658.02 C 815.05 664.72 813.35 671.28 814.04 678.01 C 813.38 685.29 815.13 692.43 815.21 699.70 C 817.48 699.84 819.76 699.98 822.05 700.05 L 822.07 700.72 C 815.72 700.68 809.38 700.71 803.04 700.80 C 802.58 681.29 802.98 661.61 802.89 642.06 C 816.40 620.36 829.16 598.16 842.70 576.46 Z" />
</g>
<g id="#0b320fff">
<path fill="#0b320f" opacity="1.00" d=" M 730.83 581.02 C 736.27 581.08 741.71 580.92 747.15 580.98 C 747.21 596.91 747.08 612.85 747.22 628.78 L 746.01 629.44 C 743.12 635.79 738.90 641.49 735.48 647.60 C 733.81 649.90 732.90 652.82 730.83 654.77 C 730.79 630.19 730.82 605.60 730.83 581.02 Z" />
</g>
<g id="#4c0e0bff">
<path fill="#4c0e0b" opacity="1.00" d=" M 392.60 596.35 C 392.85 596.26 393.36 596.08 393.61 595.99 C 400.30 614.26 407.75 632.27 414.78 650.42 C 400.52 650.11 386.14 650.72 371.96 650.12 C 379.08 632.30 385.94 614.34 392.60 596.35 Z" />
</g>
<g id="#0b3310ff">
<path fill="#0b3310" opacity="1.00" d=" M 572.19 599.98 C 572.43 600.15 572.93 600.50 573.18 600.68 C 590.21 635.09 607.54 669.36 624.67 703.73 C 620.44 703.67 616.90 700.96 612.82 700.24 C 608.85 699.63 604.49 699.68 601.01 701.93 C 591.61 706.71 584.41 715.64 581.99 725.93 C 580.86 730.21 580.21 734.59 579.85 739.00 C 577.85 746.97 580.59 755.53 577.33 763.29 C 574.88 770.66 567.77 776.25 560.09 777.04 C 537.38 777.11 514.68 777.03 491.97 777.07 C 482.83 776.39 473.91 772.11 467.74 765.31 C 465.83 763.30 463.86 761.36 461.87 759.45 C 463.95 755.91 466.05 752.39 468.23 748.92 C 484.32 748.98 500.41 748.90 516.50 748.96 C 516.26 748.37 515.79 747.19 515.55 746.60 L 516.85 746.57 C 517.45 746.54 518.65 746.50 519.25 746.47 C 519.25 747.10 519.25 748.36 519.24 748.98 C 536.97 748.92 554.70 749.01 572.43 748.94 C 572.41 721.29 572.43 693.64 572.43 665.99 C 572.27 643.99 572.75 621.97 572.19 599.98 Z" />
</g>
<g id="#0e3f13ff">
<path fill="#0e3f13" opacity="1.00" d=" M 639.26 605.95 C 639.68 605.83 640.53 605.57 640.96 605.45 C 645.74 611.47 649.81 618.25 655.89 623.15 C 661.09 627.61 668.13 631.75 675.16 629.16 C 675.24 645.22 675.02 661.28 675.32 677.34 C 673.16 675.03 672.43 671.75 670.78 669.07 C 660.28 648.03 649.79 626.98 639.26 605.95 Z" />
</g>
<g id="#66120fff">
<path fill="#66120f" opacity="1.00" d=" M 299.59 626.58 C 304.89 624.28 310.73 625.12 316.33 625.15 C 306.11 652.85 295.96 680.57 285.82 708.30 C 280.30 700.55 276.78 691.43 275.92 681.93 C 273.98 673.60 275.66 665.14 276.66 656.82 C 278.33 649.89 280.09 642.42 285.30 637.21 C 289.40 632.91 293.69 628.29 299.59 626.58 Z" />
</g>
<g id="#336287ff">
<path fill="#336287" opacity="1.00" d=" M 856.86 625.68 C 868.39 623.18 880.50 626.40 890.33 632.59 C 893.38 634.38 895.46 637.37 898.43 639.27 C 898.40 648.68 898.36 658.10 898.29 667.51 C 896.05 663.56 895.55 658.87 893.03 655.03 C 888.02 644.45 876.77 637.09 865.04 637.14 C 860.42 637.86 855.62 638.85 851.87 641.82 C 847.02 645.82 842.62 650.83 841.11 657.09 C 837.21 670.89 837.25 685.75 840.84 699.63 C 839.83 699.99 838.82 700.34 837.82 700.68 C 832.57 700.69 827.31 700.84 822.07 700.72 L 822.05 700.05 C 824.19 700.11 826.34 700.02 828.49 699.84 C 828.23 695.86 827.29 691.97 826.97 688.00 C 826.50 672.86 826.72 657.12 832.99 643.03 C 836.91 633.31 846.87 627.40 856.86 625.68 Z" />
</g>
<g id="#3e77a4ff">
<path fill="#3e77a4" opacity="1.00" d=" M 851.87 641.82 C 855.62 638.85 860.42 637.86 865.04 637.14 C 876.77 637.09 888.02 644.45 893.03 655.03 C 895.55 658.87 896.05 663.56 898.29 667.51 C 894.65 679.02 887.45 690.49 875.82 695.10 C 877.63 691.38 880.25 687.95 880.80 683.73 C 882.63 674.80 879.83 664.14 871.41 659.52 C 867.83 657.50 863.69 659.40 860.80 661.73 C 857.87 664.79 856.89 669.06 856.03 673.08 C 854.98 680.43 855.65 688.53 860.25 694.64 C 861.52 696.62 863.76 697.56 865.79 698.59 L 866.21 698.80 C 856.98 701.58 847.31 700.53 837.82 700.68 C 838.82 700.34 839.83 699.99 840.84 699.63 C 837.25 685.75 837.21 670.89 841.11 657.09 C 842.62 650.83 847.02 645.82 851.87 641.82 Z" />
</g>
<g id="#254762ff">
<path fill="#254762" opacity="1.00" d=" M 975.33 652.33 C 980.24 649.87 985.36 647.26 990.93 646.92 C 995.56 647.36 1000.23 648.27 1004.48 650.26 C 979.09 691.93 954.13 733.87 928.85 775.60 L 928.64 775.72 C 926.13 775.21 923.92 776.89 921.69 777.73 C 910.89 782.99 898.78 784.24 887.04 785.84 C 880.69 785.99 874.32 785.73 867.97 785.97 C 860.40 787.48 852.65 786.56 844.99 786.84 C 830.99 786.70 816.97 787.06 802.98 786.71 C 795.40 785.21 787.66 786.15 780.00 785.90 C 758.90 785.66 737.78 786.18 716.68 785.71 C 719.10 780.99 722.10 776.51 724.85 771.96 C 730.88 772.15 736.91 771.97 742.95 772.06 C 749.32 772.43 755.57 770.07 761.95 771.21 C 767.88 772.54 773.96 771.89 779.98 772.06 C 805.97 772.08 831.96 772.01 857.96 772.03 C 865.63 771.78 873.40 772.74 880.97 771.18 C 901.34 771.11 922.90 765.40 937.60 750.58 C 944.77 742.49 950.04 732.75 952.17 722.10 C 955.89 705.62 954.42 688.43 959.09 672.12 C 961.47 663.65 967.41 656.23 975.33 652.33 Z" />
</g>
<g id="#4585b7ff">
<path fill="#4585b7" opacity="1.00" d=" M 860.80 661.73 C 863.69 659.40 867.83 657.50 871.41 659.52 C 879.83 664.14 882.63 674.80 880.80 683.73 C 880.25 687.95 877.63 691.38 875.82 695.10 L 875.58 695.58 C 872.36 696.67 869.20 698.37 865.79 698.59 C 863.76 697.56 861.52 696.62 860.25 694.64 C 855.65 688.53 854.98 680.43 856.03 673.08 C 856.89 669.06 857.87 664.79 860.80 661.73 Z" />
</g>
<g id="#0c3811ff">
<path fill="#0c3811" opacity="1.00" d=" M 498.08 699.33 C 504.17 688.77 511.00 678.62 516.69 667.85 C 516.61 694.08 516.46 720.34 516.85 746.57 L 515.55 746.60 C 509.77 730.83 503.99 715.06 498.08 699.33 Z" />
<path fill="#0c3811" opacity="1.00" d=" M 651.78 748.98 C 659.29 748.94 666.80 748.97 674.31 748.96 C 670.69 755.45 666.70 761.72 662.90 768.11 C 658.54 762.17 654.72 755.73 651.78 748.98 Z" />
</g>
<g id="#4f0e0bff">
<path fill="#4f0e0b" opacity="1.00" d=" M 365.31 673.40 C 366.56 674.32 367.28 675.75 368.17 677.01 C 374.85 686.63 381.65 696.17 388.29 705.83 C 402.06 705.99 415.85 705.92 429.62 705.86 C 423.50 717.04 416.41 727.98 409.89 739.05 L 409.83 739.03 C 408.62 738.34 407.33 737.98 405.97 737.94 C 399.38 737.94 392.60 737.90 386.36 740.35 C 377.37 744.40 369.99 751.39 364.41 759.43 C 357.80 768.74 349.39 777.99 337.86 780.77 C 332.39 782.45 326.65 782.14 321.01 782.01 C 295.66 782.10 270.32 781.96 244.97 782.10 C 237.92 782.40 231.24 779.33 225.74 775.15 C 221.77 770.63 218.56 765.11 217.99 759.02 C 217.78 755.67 217.98 752.32 217.94 748.98 C 232.91 748.92 247.88 749.03 262.85 748.92 C 262.79 741.84 262.81 734.77 262.83 727.69 C 264.45 729.69 265.48 732.06 266.84 734.24 C 268.91 736.79 271.52 738.86 273.74 741.29 C 272.83 743.83 271.85 746.35 270.94 748.90 C 294.51 748.88 318.10 749.12 341.66 748.78 C 349.34 723.59 357.73 698.62 365.31 673.40 Z" />
</g>
<g id="#0e4114ff">
<path fill="#0e4114" opacity="1.00" d=" M 601.01 701.93 C 604.49 699.68 608.85 699.63 612.82 700.24 C 616.90 700.96 620.44 703.67 624.67 703.73 C 632.21 718.77 639.74 733.83 647.25 748.89 C 648.75 748.94 650.26 748.98 651.78 748.98 C 654.72 755.73 658.54 762.17 662.90 768.11 C 660.12 772.72 657.33 777.34 654.57 781.97 C 653.26 778.10 650.53 774.99 648.41 771.57 C 642.39 762.75 636.72 753.48 628.75 746.25 C 625.68 742.70 621.52 740.12 616.97 739.00 C 612.40 738.02 608.35 741.31 606.07 744.95 C 602.44 751.24 601.87 758.65 599.40 765.38 C 597.88 769.50 596.86 773.85 594.71 777.72 C 591.99 783.00 587.70 787.36 583.02 790.93 C 575.99 794.70 568.07 797.42 560.00 797.15 C 557.99 797.24 556.03 797.71 554.04 797.94 C 537.39 798.23 520.71 797.75 504.05 798.09 C 499.64 798.41 495.41 796.64 491.01 797.01 C 480.74 797.32 470.78 793.22 462.28 787.73 C 457.98 784.96 454.77 780.92 450.93 777.61 C 454.58 771.56 458.19 765.48 461.87 759.45 C 463.86 761.36 465.83 763.30 467.74 765.31 C 473.91 772.11 482.83 776.39 491.97 777.07 C 514.68 777.03 537.38 777.11 560.09 777.04 C 567.77 776.25 574.88 770.66 577.33 763.29 C 580.59 755.53 577.85 746.97 579.85 739.00 C 580.21 734.59 580.86 730.21 581.99 725.93 C 584.41 715.64 591.61 706.71 601.01 701.93 Z" />
</g>
<g id="#6a130fff">
<path fill="#6a130f" opacity="1.00" d=" M 386.36 740.35 C 392.60 737.90 399.38 737.94 405.97 737.94 C 407.33 737.98 408.62 738.34 409.83 739.03 C 405.84 745.80 401.72 752.54 397.67 759.26 C 394.07 759.19 391.08 761.38 388.13 763.14 C 380.92 767.90 376.45 775.50 370.78 781.81 C 362.88 792.41 350.02 798.59 337.01 799.81 C 332.96 799.64 329.01 800.57 325.00 800.87 C 299.00 800.82 273.00 800.87 247.01 800.87 C 242.72 800.49 238.46 799.78 234.15 799.64 C 223.88 798.13 213.01 793.86 207.16 784.81 C 200.18 774.33 198.94 761.26 199.09 748.99 C 205.37 748.99 211.65 748.95 217.94 748.98 C 217.98 752.32 217.78 755.67 217.99 759.02 C 218.56 765.11 221.77 770.63 225.74 775.15 C 231.24 779.33 237.92 782.40 244.97 782.10 C 270.32 781.96 295.66 782.10 321.01 782.01 C 326.65 782.14 332.39 782.45 337.86 780.77 C 349.39 777.99 357.80 768.74 364.41 759.43 C 369.99 751.39 377.37 744.40 386.36 740.35 Z" />
</g>
<g id="#13571bff">
<path fill="#13571b" opacity="1.00" d=" M 606.07 744.95 C 608.35 741.31 612.40 738.02 616.97 739.00 C 621.52 740.12 625.68 742.70 628.75 746.25 C 636.72 753.48 642.39 762.75 648.41 771.57 C 650.53 774.99 653.26 778.10 654.57 781.97 C 651.14 787.43 647.88 793.00 644.51 798.51 C 637.93 794.08 632.48 787.09 624.11 786.10 C 618.20 787.63 612.84 791.44 609.51 796.58 C 607.41 799.79 604.26 802.03 601.28 804.35 C 591.98 812.65 579.17 815.17 567.13 816.26 C 562.14 817.35 557.01 816.82 551.95 816.91 C 531.63 816.91 511.30 816.89 490.98 816.93 C 482.22 815.71 473.20 815.33 464.87 812.07 C 457.22 809.09 449.67 805.04 444.28 798.69 C 443.13 797.36 441.61 796.47 440.13 795.60 C 443.75 789.62 447.34 783.62 450.93 777.61 C 454.77 780.92 457.98 784.96 462.28 787.73 C 470.78 793.22 480.74 797.32 491.01 797.01 C 495.41 796.64 499.64 798.41 504.05 798.09 C 520.71 797.75 537.39 798.23 554.04 797.94 C 556.03 797.71 557.99 797.24 560.00 797.15 C 568.07 797.42 575.99 794.70 583.02 790.93 C 587.70 787.36 591.99 783.00 594.71 777.72 C 596.86 773.85 597.88 769.50 599.40 765.38 C 601.87 758.65 602.44 751.24 606.07 744.95 Z" />
</g>
<g id="#881814ff">
<path fill="#881814" opacity="1.00" d=" M 197.77 748.98 C 198.10 748.99 198.76 748.99 199.09 748.99 C 198.94 761.26 200.18 774.33 207.16 784.81 C 213.01 793.86 223.88 798.13 234.15 799.64 C 238.46 799.78 242.72 800.49 247.01 800.87 C 273.00 800.87 299.00 800.82 325.00 800.87 C 329.01 800.57 332.96 799.64 337.01 799.81 C 350.02 798.59 362.88 792.41 370.78 781.81 C 376.45 775.50 380.92 767.90 388.13 763.14 C 391.08 761.38 394.07 759.19 397.67 759.26 C 388.65 774.35 379.38 789.29 370.55 804.49 C 367.49 804.12 365.27 806.61 362.63 807.69 C 354.84 811.03 346.53 813.29 338.06 813.91 C 333.00 813.59 328.07 815.15 323.02 814.93 C 297.36 814.91 271.70 814.86 246.04 814.92 C 231.86 813.75 216.77 812.66 204.60 804.44 C 194.22 797.34 189.06 784.95 186.97 772.96 C 186.90 771.61 186.06 770.59 185.25 769.62 C 189.44 762.76 193.44 755.77 197.77 748.98 Z" />
</g>
<g id="#9e1c17ff">
<path fill="#9e1c17" opacity="1.00" d=" M 185.25 769.62 C 186.06 770.59 186.90 771.61 186.97 772.96 C 189.06 784.95 194.22 797.34 204.60 804.44 C 216.77 812.66 231.86 813.75 246.04 814.92 C 271.70 814.86 297.36 814.91 323.02 814.93 C 328.07 815.15 333.00 813.59 338.06 813.91 C 346.53 813.29 354.84 811.03 362.63 807.69 C 365.27 806.61 367.49 804.12 370.55 804.49 C 366.43 810.75 362.74 817.29 358.84 823.69 L 358.72 823.69 C 356.19 823.62 354.10 825.37 351.63 825.63 C 347.09 826.14 342.59 827.25 338.00 827.05 C 333.96 826.81 330.06 828.20 326.03 828.12 C 298.71 827.94 271.39 828.11 244.07 828.06 C 239.40 827.31 234.73 826.92 230.00 826.96 C 218.93 825.49 207.37 823.55 197.98 817.07 C 193.07 814.14 189.20 809.85 185.44 805.62 C 180.59 800.10 178.33 793.00 175.13 786.53 C 178.43 780.86 181.92 775.29 185.25 769.62 Z" />
</g>
<g id="#2c5373ff">
<path fill="#2c5373" opacity="1.00" d=" M 921.69 777.73 C 923.92 776.89 926.13 775.21 928.64 775.72 C 926.81 779.36 924.37 782.66 922.53 786.29 C 917.79 786.64 913.57 789.03 908.99 790.09 C 902.11 791.74 895.09 792.95 888.01 793.17 C 881.11 794.64 874.03 793.88 867.04 794.05 C 832.01 794.06 796.98 794.12 761.95 794.04 C 745.18 793.77 728.39 794.52 711.65 793.73 C 713.28 791.07 714.96 788.44 716.45 785.71 L 716.68 785.71 C 737.78 786.18 758.90 785.66 780.00 785.90 C 787.66 786.15 795.40 785.21 802.98 786.71 C 816.97 787.06 830.99 786.70 844.99 786.84 C 852.65 786.56 860.40 787.48 867.97 785.97 C 874.32 785.73 880.69 785.99 887.04 785.84 C 898.78 784.24 910.89 782.99 921.69 777.73 Z" />
</g>
<g id="#176a21ff">
<path fill="#176a21" opacity="1.00" d=" M 609.51 796.58 C 612.84 791.44 618.20 787.63 624.11 786.10 C 632.48 787.09 637.93 794.08 644.51 798.51 C 640.25 805.60 635.96 812.67 631.71 819.77 L 631.64 819.73 C 623.48 816.79 616.00 822.61 609.01 825.99 C 597.09 832.58 583.27 833.73 569.99 835.01 C 540.65 834.91 511.29 835.02 481.96 834.97 C 473.97 833.56 465.73 833.59 457.91 831.29 C 451.86 829.91 446.44 826.78 440.99 823.94 C 436.29 821.51 432.98 817.33 429.21 813.77 C 432.87 807.72 436.55 801.69 440.13 795.60 C 441.61 796.47 443.13 797.36 444.28 798.69 C 449.67 805.04 457.22 809.09 464.87 812.07 C 473.20 815.33 482.22 815.71 490.98 816.93 C 511.30 816.89 531.63 816.91 551.95 816.91 C 557.01 816.82 562.14 817.35 567.13 816.26 C 579.17 815.17 591.98 812.65 601.28 804.35 C 604.26 802.03 607.41 799.79 609.51 796.58 Z" />
</g>
<g id="#325f83ff">
<path fill="#325f83" opacity="1.00" d=" M 908.99 790.09 C 913.57 789.03 917.79 786.64 922.53 786.29 C 920.15 789.86 917.98 793.57 915.82 797.29 L 915.64 797.31 C 911.00 797.60 906.61 799.28 902.02 799.84 C 896.41 801.15 890.61 800.76 885.00 801.99 C 825.59 802.19 766.19 801.84 706.78 801.99 C 708.34 799.20 710.08 796.52 711.65 793.73 C 728.39 794.52 745.18 793.77 761.95 794.04 C 796.98 794.12 832.01 794.06 867.04 794.05 C 874.03 793.88 881.11 794.64 888.01 793.17 C 895.09 792.95 902.11 791.74 908.99 790.09 Z" />
</g>
<g id="#386c94ff">
<path fill="#386c94" opacity="1.00" d=" M 902.02 799.84 C 906.61 799.28 911.00 797.60 915.64 797.31 C 913.91 800.53 911.88 803.57 910.08 806.74 L 909.86 806.83 C 906.16 806.36 902.64 808.15 898.96 808.21 C 892.69 809.51 886.27 808.89 880.01 810.22 C 820.66 810.15 761.29 810.36 701.95 810.05 C 703.47 807.31 705.15 804.67 706.78 801.99 C 766.19 801.84 825.59 802.19 885.00 801.99 C 890.61 800.76 896.41 801.15 902.02 799.84 Z" />
</g>
<g id="#417cabff">
<path fill="#417cab" opacity="1.00" d=" M 898.96 808.21 C 902.64 808.15 906.16 806.36 909.86 806.83 C 906.39 812.93 902.70 818.91 899.05 824.91 C 894.33 824.77 889.75 826.40 885.03 826.04 C 877.34 826.02 869.62 825.75 862.01 827.01 C 842.68 827.18 823.34 826.85 804.01 827.11 C 794.74 825.45 785.33 826.27 775.96 826.06 C 757.62 826.06 739.28 826.06 720.95 826.12 C 714.69 827.32 708.32 827.17 701.98 827.08 C 698.61 826.75 695.17 825.57 691.88 827.04 C 694.96 821.23 698.61 815.72 701.95 810.05 C 761.29 810.36 820.66 810.15 880.01 810.22 C 886.27 808.89 892.69 809.51 898.96 808.21 Z" />
</g>
</svg>
