<?xml version="1.0" encoding="UTF-8" ?>
<!DOCTYPE svg PUBLIC "-//W3C//DTD SVG 1.1//EN" "http://www.w3.org/Graphics/SVG/1.1/DTD/svg11.dtd">
<svg width="1276pt" height="1276pt" viewBox="0 0 1276 1276" version="1.1" xmlns="http://www.w3.org/2000/svg">
<g id="#bbdf2bff">
<path fill="#bbdf2b" opacity="1.00" d=" M 434.00 126.68 C 448.55 129.61 463.11 132.51 477.65 135.48 L 477.96 135.78 C 478.03 191.70 478.00 247.63 477.98 303.54 C 465.67 302.93 453.38 301.92 441.08 301.21 C 438.63 301.05 436.15 300.95 433.78 300.29 C 434.28 284.19 433.86 268.07 434.00 251.96 C 434.00 210.20 433.99 168.44 434.00 126.68 Z" />
<path fill="#bbdf2b" opacity="1.00" d=" M 257.83 458.79 L 258.61 458.83 C 273.02 459.16 287.44 459.02 301.85 458.90 C 309.58 502.28 317.83 545.57 325.76 588.91 C 335.21 640.33 344.91 691.71 355.06 743.01 C 359.62 765.69 363.78 788.47 368.60 811.10 C 354.03 814.65 339.19 817.11 324.51 820.26 C 323.04 819.94 323.05 818.29 322.67 817.16 C 319.66 798.68 315.98 780.29 312.69 761.85 C 303.69 712.86 294.68 663.87 285.68 614.88 C 276.08 562.90 266.48 510.93 257.83 458.79 Z" />
<path fill="#bbdf2b" opacity="1.00" d=" M 567.24 944.32 C 567.68 944.15 568.54 943.82 568.97 943.66 C 569.05 1013.16 568.95 1082.65 569.02 1152.15 C 554.39 1160.47 539.67 1168.65 525.02 1176.93 C 524.93 1105.19 525.09 1033.46 524.94 961.72 C 538.90 955.59 553.21 950.29 567.24 944.32 Z" />
</g>
<g id="#1588dfff">
<path fill="#1588df" opacity="1.00" d=" M 506.01 152.07 C 616.99 173.77 727.96 195.54 838.96 217.18 C 839.06 251.79 838.97 286.40 839.00 321.01 C 727.99 314.73 616.97 308.65 505.97 302.25 C 506.04 252.19 505.97 202.13 506.01 152.07 Z" />
<path fill="#1588df" opacity="1.00" d=" M 593.13 946.44 C 727.15 892.36 861.02 837.92 994.99 783.72 C 994.98 821.41 995.05 859.10 994.96 896.79 C 860.95 971.83 727.00 1046.96 593.02 1122.03 C 593.06 1063.50 592.84 1004.96 593.13 946.44 Z" />
</g>
<g id="#787446ff">
<path fill="#787446" opacity="1.00" d=" M 433.17 300.13 L 433.78 300.29 C 436.15 300.95 438.63 301.05 441.08 301.21 C 453.38 301.92 465.67 302.93 477.98 303.54 C 477.49 303.58 476.51 303.67 476.02 303.71 C 474.59 304.20 473.61 305.42 472.48 306.36 C 415.63 357.23 358.67 408.00 301.85 458.90 C 287.44 459.02 273.02 459.16 258.61 458.83 C 284.40 434.86 310.71 411.44 336.71 387.69 C 368.86 358.51 401.00 329.31 433.17 300.13 Z" />
</g>
<g id="#f4f2d6ff">
<path fill="#f4f2d6" opacity="1.00" d=" M 560.20 457.10 C 587.29 456.49 614.40 456.16 641.50 455.88 C 636.12 461.69 629.98 466.73 624.31 472.24 C 540.00 550.70 455.74 629.23 371.41 707.67 C 366.38 680.54 361.40 653.39 356.62 626.21 C 415.92 574.70 474.84 522.73 534.03 471.08 C 539.12 466.74 543.95 462.08 549.20 457.94 C 552.67 456.76 556.56 457.66 560.20 457.10 Z" />
<path fill="#f4f2d6" opacity="1.00" d=" M 674.25 468.21 C 678.50 478.51 682.66 488.84 686.85 499.16 C 662.89 522.12 638.41 544.55 614.25 567.31 C 544.87 632.23 475.47 697.12 406.10 762.05 C 400.54 767.51 394.28 772.32 389.35 778.39 C 387.72 778.85 386.07 779.24 384.43 779.64 C 382.54 768.90 380.39 758.20 378.68 747.43 C 382.39 744.58 385.58 741.14 389.04 738.01 C 484.09 648.05 579.22 558.19 674.25 468.21 Z" />
</g>
<g id="#ded681ff">
<path fill="#ded681" opacity="1.00" d=" M 641.50 455.88 C 650.67 455.82 659.84 455.58 669.02 455.54 C 670.76 459.76 672.38 464.04 674.25 468.21 C 579.22 558.19 484.09 648.05 389.04 738.01 C 385.58 741.14 382.39 744.58 378.68 747.43 C 376.23 734.18 373.90 720.91 371.41 707.67 C 455.74 629.23 540.00 550.70 624.31 472.24 C 629.98 466.73 636.12 461.69 641.50 455.88 Z" />
<path fill="#ded681" opacity="1.00" d=" M 326.51 460.48 C 404.41 459.40 482.31 458.20 560.20 457.10 C 556.56 457.66 552.67 456.76 549.20 457.94 C 543.95 462.08 539.12 466.74 534.03 471.08 C 474.84 522.73 415.92 574.70 356.62 626.21 C 346.62 570.96 336.52 515.73 326.51 460.48 Z" />
<path fill="#ded681" opacity="1.00" d=" M 614.25 567.31 C 638.41 544.55 662.89 522.12 686.85 499.16 C 700.82 534.09 715.17 568.86 729.28 603.74 C 741.81 634.37 754.09 665.11 766.78 695.68 C 757.59 696.91 748.60 699.55 739.49 701.34 C 717.64 706.13 695.81 711.00 673.95 715.74 C 671.57 704.48 664.88 694.15 655.45 687.53 C 645.07 680.09 631.49 677.06 618.98 679.83 C 606.16 682.45 594.56 690.75 588.15 702.19 C 582.31 712.20 580.40 724.47 583.08 735.77 C 518.50 749.98 453.94 764.26 389.35 778.39 C 394.28 772.32 400.54 767.51 406.10 762.05 C 475.47 697.12 544.87 632.23 614.25 567.31 Z" />
<path fill="#ded681" opacity="1.00" d=" M 368.60 811.10 L 369.20 810.92 C 435.25 855.32 501.22 899.86 567.24 944.32 C 553.21 950.29 538.90 955.59 524.94 961.72 C 458.00 914.76 391.33 867.40 324.51 820.26 C 339.19 817.11 354.03 814.65 368.60 811.10 Z" />
</g>
<g id="#dd4c4aff">
<path fill="#dd4c4a" opacity="1.00" d=" M 618.98 679.83 C 631.49 677.06 645.07 680.09 655.45 687.53 C 664.88 694.15 671.57 704.48 673.95 715.74 C 677.05 730.47 672.66 746.52 662.18 757.38 C 654.09 765.89 642.71 771.27 630.95 771.79 C 620.07 772.46 609.18 769.02 600.44 762.57 C 591.78 755.99 585.56 746.35 583.08 735.77 C 580.40 724.47 582.31 712.20 588.15 702.19 C 594.56 690.75 606.16 682.45 618.98 679.83 M 637.00 688.00 C 632.46 689.32 629.71 694.43 630.78 698.98 C 632.56 707.51 639.31 714.36 647.04 717.95 C 651.05 720.00 655.71 720.00 660.09 719.41 C 665.46 717.42 666.81 710.88 664.98 705.96 C 662.19 698.18 655.65 692.09 648.09 688.98 C 644.62 687.52 640.64 686.97 637.00 688.00 Z" />
</g>
<g id="#efdbdbff">
<path fill="#efdbdb" opacity="1.00" d=" M 637.00 688.00 C 640.64 686.97 644.62 687.52 648.09 688.98 C 655.65 692.09 662.19 698.18 664.98 705.96 C 666.81 710.88 665.46 717.42 660.09 719.41 C 655.71 720.00 651.05 720.00 647.04 717.95 C 639.31 714.36 632.56 707.51 630.78 698.98 C 629.71 694.43 632.46 689.32 637.00 688.00 Z" />
</g>
<g id="#64b0eaff">
<path fill="#64b0ea" opacity="1.00" d=" M 740.47 732.62 C 755.99 727.80 771.46 722.77 787.01 718.08 C 850.08 734.37 913.07 751.00 976.12 767.39 C 960.27 774.27 943.98 780.20 927.97 786.72 C 810.31 833.31 692.66 879.91 574.99 926.50 C 527.05 894.51 479.17 862.42 431.18 830.52 C 431.23 830.31 431.32 829.91 431.37 829.71 C 470.56 817.45 509.72 805.10 548.90 792.81 C 564.43 788.04 579.83 782.86 595.43 778.36 C 591.80 791.08 587.61 803.63 583.86 816.32 C 575.49 815.79 567.14 816.76 558.87 817.90 C 548.71 820.04 538.08 822.34 529.73 828.89 C 526.09 831.59 523.21 835.96 523.84 840.66 C 524.72 846.23 529.09 850.36 533.55 853.38 C 544.15 860.37 556.58 863.76 568.87 866.36 C 593.73 870.66 619.91 871.17 644.14 863.42 C 650.50 861.05 657.15 858.18 661.29 852.54 C 663.57 849.42 664.38 845.06 662.64 841.51 C 660.01 836.23 655.09 832.61 650.14 829.67 C 639.57 823.86 627.78 820.81 616.02 818.51 C 621.01 802.94 626.03 787.38 630.95 771.79 C 642.71 771.27 654.09 765.89 662.18 757.38 C 688.16 748.83 714.40 740.93 740.47 732.62 M 787.00 731.92 C 785.28 732.77 783.04 733.79 782.86 735.98 C 782.57 736.37 781.97 737.17 781.68 737.56 C 777.49 739.00 771.61 741.66 772.45 747.03 C 775.72 752.74 782.90 754.08 788.84 755.33 C 799.80 756.36 811.52 756.58 821.61 751.48 C 824.06 750.12 827.11 748.10 826.77 744.88 C 826.66 741.98 823.90 740.19 821.66 738.88 C 821.11 738.17 820.56 737.48 820.03 736.80 L 820.61 735.86 C 818.65 731.61 813.59 730.68 809.52 729.65 C 802.00 728.74 794.04 728.84 787.00 731.92 M 853.83 748.82 C 852.21 749.67 851.58 751.45 851.76 753.21 C 848.59 755.63 843.88 756.68 842.53 760.93 C 841.61 765.24 845.74 768.17 849.03 769.97 C 859.57 774.96 871.69 775.52 883.10 774.12 C 889.11 772.86 896.10 771.58 899.80 766.14 C 901.57 763.50 899.68 760.28 897.54 758.53 C 895.70 756.57 892.51 756.30 891.28 753.78 C 891.58 750.98 888.96 749.31 886.78 748.25 C 882.78 746.44 878.45 745.22 874.04 745.23 C 867.20 745.01 859.77 744.90 853.83 748.82 M 737.79 748.74 C 733.35 749.76 727.87 750.70 725.60 755.18 C 724.69 756.36 723.40 757.10 722.15 757.86 C 717.78 759.56 711.90 762.59 712.55 768.14 C 714.25 772.84 719.48 774.67 723.83 776.07 C 733.74 778.70 744.33 778.33 754.29 776.11 C 760.01 774.55 766.40 772.44 769.58 767.03 C 771.00 762.73 767.19 759.34 763.57 757.99 C 763.60 756.90 764.22 756.00 764.74 755.10 C 763.92 753.38 762.90 751.63 761.05 750.90 C 753.91 747.29 745.50 747.56 737.79 748.74 M 800.05 770.09 C 796.30 771.40 790.98 773.37 791.32 778.23 C 786.84 780.27 781.50 782.47 779.74 787.52 C 778.86 791.20 781.69 794.46 784.56 796.35 C 789.72 799.69 795.83 801.30 801.90 801.89 C 813.10 803.07 825.02 802.61 835.09 797.03 C 838.34 795.27 841.62 792.02 840.79 787.97 C 840.36 783.92 836.29 781.93 833.36 779.78 C 833.33 779.29 833.25 778.32 833.21 777.83 C 833.50 774.93 830.67 772.83 828.33 771.69 C 819.48 767.84 809.29 767.80 800.05 770.09 Z" />
</g>
<g id="#b9d0e2ff">
<path fill="#b9d0e2" opacity="1.00" d=" M 787.00 731.92 C 794.04 728.84 802.00 728.74 809.52 729.65 C 813.59 730.68 818.65 731.61 820.61 735.86 L 820.03 736.80 C 818.85 739.54 815.88 740.50 813.28 741.36 C 803.08 744.21 791.84 743.45 782.42 738.47 C 782.53 737.85 782.75 736.60 782.86 735.98 C 783.04 733.79 785.28 732.77 787.00 731.92 Z" />
<path fill="#b9d0e2" opacity="1.00" d=" M 853.83 748.82 C 859.77 744.90 867.20 745.01 874.04 745.23 C 878.45 745.22 882.78 746.44 886.78 748.25 C 888.96 749.31 891.58 750.98 891.28 753.78 C 891.45 757.08 891.88 760.43 891.28 763.72 C 890.61 761.22 890.63 758.62 890.64 756.07 C 878.63 762.39 863.30 761.61 851.67 754.80 C 851.69 754.40 851.74 753.61 851.76 753.21 C 851.58 751.45 852.21 749.67 853.83 748.82 Z" />
<path fill="#b9d0e2" opacity="1.00" d=" M 737.79 748.74 C 745.50 747.56 753.91 747.29 761.05 750.90 C 762.90 751.63 763.92 753.38 764.74 755.10 C 764.22 756.00 763.60 756.90 763.57 757.99 L 763.47 758.57 C 753.62 763.42 741.92 764.72 731.36 761.54 C 728.58 760.54 724.79 758.78 725.60 755.18 C 727.87 750.70 733.35 749.76 737.79 748.74 Z" />
<path fill="#b9d0e2" opacity="1.00" d=" M 800.05 770.09 C 809.29 767.80 819.48 767.84 828.33 771.69 C 830.67 772.83 833.50 774.93 833.21 777.83 C 831.27 783.04 825.04 784.24 820.23 785.30 C 812.93 786.13 805.22 786.40 798.27 783.68 C 795.79 782.68 793.62 781.07 791.18 780.01 C 791.49 781.13 792.09 783.36 792.39 784.48 C 791.70 784.43 791.02 784.35 790.36 784.30 C 790.57 782.24 790.98 780.24 791.32 778.23 C 790.98 773.37 796.30 771.40 800.05 770.09 Z" />
</g>
<g id="#000000ff">
<path fill="#000000" opacity="1.00" d=" M 781.68 737.56 C 781.97 737.17 782.57 736.37 782.86 735.98 C 782.75 736.60 782.53 737.85 782.42 738.47 C 781.65 741.20 780.04 745.01 783.20 746.85 C 789.01 750.58 796.33 750.94 803.05 750.64 C 808.86 750.09 815.43 749.28 819.48 744.58 C 819.58 742.48 819.69 740.38 819.84 738.29 C 820.30 738.44 821.21 738.73 821.66 738.88 C 823.90 740.19 826.66 741.98 826.77 744.88 C 827.11 748.10 824.06 750.12 821.61 751.48 C 811.52 756.58 799.80 756.36 788.84 755.33 C 782.90 754.08 775.72 752.74 772.45 747.03 C 771.61 741.66 777.49 739.00 781.68 737.56 Z" />
<path fill="#000000" opacity="1.00" d=" M 842.53 760.93 C 843.88 756.68 848.59 755.63 851.76 753.21 C 851.74 753.61 851.69 754.40 851.67 754.80 C 851.53 757.17 851.50 759.55 851.49 761.93 C 856.34 767.34 864.07 768.45 870.95 768.80 C 877.90 768.82 885.81 768.63 891.28 763.72 C 891.88 760.43 891.45 757.08 891.28 753.78 C 892.51 756.30 895.70 756.57 897.54 758.53 C 899.68 760.28 901.57 763.50 899.80 766.14 C 896.10 771.58 889.11 772.86 883.10 774.12 C 871.69 775.52 859.57 774.96 849.03 769.97 C 845.74 768.17 841.61 765.24 842.53 760.93 Z" />
<path fill="#000000" opacity="1.00" d=" M 712.55 768.14 C 711.90 762.59 717.78 759.56 722.15 757.86 C 722.80 757.67 724.11 757.29 724.76 757.09 C 724.03 760.19 720.77 763.78 723.12 766.88 C 727.28 770.91 733.48 771.63 739.01 771.83 C 746.19 771.89 753.96 771.30 760.01 767.04 C 762.84 765.22 762.87 761.51 763.47 758.57 L 763.57 757.99 C 767.19 759.34 771.00 762.73 769.58 767.03 C 766.40 772.44 760.01 774.55 754.29 776.11 C 744.33 778.33 733.74 778.70 723.83 776.07 C 719.48 774.67 714.25 772.84 712.55 768.14 Z" />
<path fill="#000000" opacity="1.00" d=" M 779.74 787.52 C 781.50 782.47 786.84 780.27 791.32 778.23 C 790.98 780.24 790.57 782.24 790.36 784.30 C 790.15 784.43 789.73 784.70 789.52 784.83 C 788.72 788.90 792.47 791.63 795.78 792.97 C 804.03 796.36 813.40 796.41 822.01 794.48 C 825.88 793.39 829.96 791.76 832.41 788.39 C 832.82 785.52 832.66 782.60 833.36 779.78 C 836.29 781.93 840.36 783.92 840.79 787.97 C 841.62 792.02 838.34 795.27 835.09 797.03 C 825.02 802.61 813.10 803.07 801.90 801.89 C 795.83 801.30 789.72 799.69 784.56 796.35 C 781.69 794.46 778.86 791.20 779.74 787.52 Z" />
<path fill="#000000" opacity="1.00" d=" M 558.87 817.90 C 567.14 816.76 575.49 815.79 583.86 816.32 C 582.06 821.88 580.44 827.50 578.59 833.05 C 583.12 840.30 591.34 845.25 600.02 844.84 C 602.67 844.58 605.94 845.02 608.07 843.22 C 610.81 835.01 613.38 826.75 616.02 818.51 C 627.78 820.81 639.57 823.86 650.14 829.67 C 655.09 832.61 660.01 836.23 662.64 841.51 C 664.38 845.06 663.57 849.42 661.29 852.54 C 657.15 858.18 650.50 861.05 644.14 863.42 C 619.91 871.17 593.73 870.66 568.87 866.36 C 556.58 863.76 544.15 860.37 533.55 853.38 C 529.09 850.36 524.72 846.23 523.84 840.66 C 523.21 835.96 526.09 831.59 529.73 828.89 C 538.08 822.34 548.71 820.04 558.87 817.90 Z" />
</g>
<g id="#7c8b98ff">
<path fill="#7c8b98" opacity="1.00" d=" M 813.28 741.36 C 815.88 740.50 818.85 739.54 820.03 736.80 C 820.56 737.48 821.11 738.17 821.66 738.88 C 821.21 738.73 820.30 738.44 819.84 738.29 C 819.69 740.38 819.58 742.48 819.48 744.58 C 815.43 749.28 808.86 750.09 803.05 750.64 C 796.33 750.94 789.01 750.58 783.20 746.85 C 780.04 745.01 781.65 741.20 782.42 738.47 C 791.84 743.45 803.08 744.21 813.28 741.36 Z" />
<path fill="#7c8b98" opacity="1.00" d=" M 722.15 757.86 C 723.40 757.10 724.69 756.36 725.60 755.18 C 724.79 758.78 728.58 760.54 731.36 761.54 C 741.92 764.72 753.62 763.42 763.47 758.57 C 762.87 761.51 762.84 765.22 760.01 767.04 C 753.96 771.30 746.19 771.89 739.01 771.83 C 733.48 771.63 727.28 770.91 723.12 766.88 C 720.77 763.78 724.03 760.19 724.76 757.09 C 724.11 757.29 722.80 757.67 722.15 757.86 Z" />
<path fill="#7c8b98" opacity="1.00" d=" M 851.67 754.80 C 863.30 761.61 878.63 762.39 890.64 756.07 C 890.63 758.62 890.61 761.22 891.28 763.72 C 885.81 768.63 877.90 768.82 870.95 768.80 C 864.07 768.45 856.34 767.34 851.49 761.93 C 851.50 759.55 851.53 757.17 851.67 754.80 Z" />
<path fill="#7c8b98" opacity="1.00" d=" M 833.21 777.83 C 833.25 778.32 833.33 779.29 833.36 779.78 C 832.66 782.60 832.82 785.52 832.41 788.39 C 829.96 791.76 825.88 793.39 822.01 794.48 C 813.40 796.41 804.03 796.36 795.78 792.97 C 792.47 791.63 788.72 788.90 789.52 784.83 C 789.73 784.70 790.15 784.43 790.36 784.30 C 791.02 784.35 791.70 784.43 792.39 784.48 C 792.09 783.36 791.49 781.13 791.18 780.01 C 793.62 781.07 795.79 782.68 798.27 783.68 C 805.22 786.40 812.93 786.13 820.23 785.30 C 825.04 784.24 831.27 783.04 833.21 777.83 Z" />
</g>
<g id="#ced0e0ff">
<path fill="#ced0e0" opacity="1.00" d=" M 600.44 762.57 C 609.18 769.02 620.07 772.46 630.95 771.79 C 626.03 787.38 621.01 802.94 616.02 818.51 C 613.38 826.75 610.81 835.01 608.07 843.22 C 605.94 845.02 602.67 844.58 600.02 844.84 C 591.34 845.25 583.12 840.30 578.59 833.05 C 580.44 827.50 582.06 821.88 583.86 816.32 C 587.61 803.63 591.80 791.08 595.43 778.36 C 597.29 773.16 598.72 767.82 600.44 762.57 Z" />
</g>
</svg>
