<?xml version="1.0" encoding="UTF-8" ?>
<!DOCTYPE svg PUBLIC "-//W3C//DTD SVG 1.1//EN" "http://www.w3.org/Graphics/SVG/1.1/DTD/svg11.dtd">
<svg width="1276pt" height="1276pt" viewBox="0 0 1276 1276" version="1.1" xmlns="http://www.w3.org/2000/svg">
<g id="#ffffffff">
<path fill="#ffffff" opacity="1.00" d=" M 633.40 171.59 C 639.28 172.02 645.14 171.02 651.03 171.32 C 653.73 171.53 656.29 170.27 659.01 170.48 C 671.37 170.56 683.74 170.42 696.10 170.54 C 700.77 171.87 705.64 170.95 710.41 171.52 C 713.14 171.80 715.89 171.69 718.64 171.59 L 718.43 172.40 C 721.27 172.82 724.48 171.75 727.09 173.25 C 730.78 173.30 734.46 173.59 738.15 173.85 C 740.31 174.63 742.67 174.39 744.91 174.90 C 747.89 175.42 750.98 175.27 753.89 176.20 C 756.12 176.46 758.38 176.69 760.65 176.64 L 760.53 177.44 C 762.16 177.49 763.79 177.53 765.44 177.57 L 765.45 178.36 C 767.33 178.36 769.20 178.57 771.08 178.82 C 772.65 179.28 774.28 179.61 775.90 179.96 C 777.87 180.25 779.94 180.39 781.79 181.26 C 783.40 181.42 785.03 181.57 786.67 181.65 L 786.47 182.40 C 787.79 182.48 789.11 182.55 790.45 182.62 L 790.37 183.32 C 794.53 183.43 798.41 185.18 802.52 185.69 L 802.56 186.24 C 804.36 186.35 806.25 186.47 807.89 187.35 C 808.92 187.49 809.97 187.65 811.04 187.81 C 811.99 188.43 813.04 188.82 814.20 188.98 C 815.42 189.36 816.63 189.72 817.88 190.10 C 820.09 190.65 822.25 191.45 824.52 191.82 L 824.41 192.40 C 825.08 192.46 826.43 192.59 827.10 192.66 C 830.17 194.28 833.70 194.75 836.82 196.29 C 837.48 196.37 838.80 196.53 839.46 196.61 L 839.38 197.29 C 840.60 197.47 841.79 197.77 842.97 198.21 C 844.58 198.83 846.22 199.44 847.86 200.05 C 848.91 200.35 849.95 200.69 851.00 201.06 C 852.32 201.71 853.68 202.30 855.09 202.78 C 858.39 204.07 861.77 205.16 864.95 206.76 C 868.09 207.87 871.04 209.46 874.18 210.56 C 875.77 211.42 877.38 212.29 879.09 212.93 C 881.42 213.87 883.70 214.97 885.91 216.20 C 886.61 216.56 887.32 216.92 888.04 217.29 C 890.36 218.38 892.63 219.59 894.96 220.69 C 895.66 221.05 896.37 221.41 897.10 221.76 C 899.67 223.13 902.25 224.49 904.93 225.64 C 906.27 226.50 907.61 227.39 909.00 228.19 C 911.73 229.28 914.17 230.95 916.71 232.44 C 918.77 233.74 921.10 234.61 923.03 236.16 C 925.75 237.70 928.45 239.31 931.00 241.14 C 933.78 242.74 936.60 244.38 938.96 246.58 C 939.23 246.58 939.78 246.59 940.05 246.59 C 941.61 247.79 943.19 248.98 944.75 250.20 C 947.98 252.23 951.10 254.43 954.19 256.68 C 955.75 257.81 957.29 258.98 958.84 260.16 C 960.92 261.67 963.00 263.18 965.14 264.64 C 967.90 267.27 971.15 269.30 974.02 271.81 C 979.59 276.28 984.96 280.98 990.38 285.63 C 1018.73 310.82 1043.87 339.58 1065.22 370.98 C 1067.36 374.43 1069.71 377.75 1071.73 381.28 C 1073.17 383.45 1074.49 385.69 1075.72 387.99 C 1077.54 390.90 1079.32 393.85 1080.71 397.00 C 1081.04 397.69 1081.39 398.38 1081.75 399.09 C 1083.33 401.98 1084.61 405.03 1086.17 407.94 C 1086.67 408.99 1087.22 410.02 1087.90 410.99 C 1090.45 413.37 1087.95 416.33 1085.73 417.74 C 1084.16 419.50 1082.50 421.18 1080.73 422.73 C 1077.44 427.60 1072.58 431.07 1068.99 435.68 C 1065.58 440.06 1060.83 443.25 1057.77 447.91 C 1051.48 454.25 1045.54 460.90 1039.20 467.19 C 1036.27 471.51 1032.01 474.64 1028.68 478.61 C 1025.04 483.61 1019.78 487.18 1016.33 492.34 C 1013.36 495.08 1010.62 498.06 1007.78 500.93 C 1005.10 504.54 1001.45 507.28 998.56 510.70 C 994.78 516.13 989.17 519.94 985.33 525.32 C 983.64 526.97 981.99 528.65 980.33 530.33 C 978.81 531.75 977.29 533.21 976.31 535.08 C 974.39 536.89 972.52 538.76 970.71 540.69 C 967.20 543.90 964.55 547.90 960.97 551.04 C 957.56 553.96 955.30 557.91 951.98 560.92 C 947.32 565.30 943.42 570.39 938.69 574.70 C 937.36 575.98 936.05 577.30 935.20 578.96 C 931.83 582.42 928.14 585.60 925.22 589.48 C 921.94 593.42 917.73 596.53 914.72 600.70 C 908.69 607.00 902.84 613.46 896.60 619.56 C 895.57 620.54 894.79 621.72 894.07 622.93 C 887.15 629.27 881.64 636.95 874.47 643.00 C 874.52 643.25 874.62 643.76 874.67 644.02 C 868.37 649.27 863.48 655.91 857.52 661.51 C 856.12 662.85 854.80 664.29 853.72 665.91 C 848.18 671.91 842.35 677.65 836.97 683.80 C 836.27 683.50 834.86 682.89 834.15 682.59 L 833.91 682.37 C 832.28 681.08 830.55 679.93 828.97 678.60 C 828.72 678.57 828.24 678.53 827.99 678.51 C 826.48 677.16 824.90 675.91 823.27 674.72 C 822.44 674.23 821.63 673.74 820.83 673.25 C 818.27 671.36 815.54 669.70 813.09 667.67 C 811.32 666.57 809.59 665.40 807.81 664.35 C 805.37 662.15 802.42 660.65 799.98 658.49 C 799.66 658.47 799.02 658.43 798.70 658.41 L 798.58 657.38 L 797.89 657.40 C 796.26 656.08 794.53 654.88 792.93 653.54 C 792.70 653.52 792.23 653.48 792.00 653.46 C 790.51 652.09 788.83 650.98 787.14 649.92 C 786.85 649.59 786.28 648.93 785.99 648.59 C 785.74 648.57 785.25 648.53 785.00 648.51 C 783.42 647.02 781.39 646.13 779.90 644.56 C 779.60 644.56 778.99 644.56 778.68 644.56 L 778.53 643.48 L 777.81 643.42 C 775.94 641.84 773.88 640.53 771.79 639.30 C 768.60 636.72 765.16 634.47 761.72 632.28 C 760.11 631.12 758.57 629.88 756.98 628.72 C 751.73 625.51 746.88 621.73 741.79 618.30 C 740.12 617.11 738.41 615.97 736.85 614.65 C 736.62 614.62 736.15 614.57 735.91 614.54 C 733.76 612.52 731.15 611.13 728.86 609.30 C 726.61 607.73 724.23 606.36 722.15 604.57 L 721.71 604.48 C 718.28 601.75 714.41 599.62 711.03 596.82 C 707.99 595.00 705.07 592.97 702.30 590.77 C 701.48 590.26 700.66 589.75 699.85 589.26 C 694.91 585.90 690.15 582.28 685.09 579.11 C 676.65 573.01 668.05 567.10 659.43 561.25 C 656.34 559.04 653.26 556.84 650.12 554.71 C 647.69 553.12 645.55 551.06 642.83 549.96 C 643.33 548.26 644.58 547.03 645.87 545.89 C 652.37 539.02 659.52 532.87 666.14 526.13 C 670.00 521.93 673.59 517.44 676.33 512.41 C 678.15 509.61 679.09 506.39 680.28 503.30 C 680.29 501.48 680.30 499.66 680.34 497.85 C 678.99 494.20 677.25 490.45 673.93 488.18 C 672.58 487.34 671.22 486.51 669.69 486.10 L 669.64 485.46 C 666.48 485.53 662.88 484.38 660.05 486.20 C 659.50 486.30 658.40 486.50 657.85 486.60 C 656.91 487.15 655.93 487.61 654.92 487.97 C 652.86 488.74 650.85 489.60 648.89 490.56 C 647.99 491.03 647.10 491.50 646.21 491.98 C 644.01 493.69 641.27 494.51 639.12 496.30 C 636.43 498.21 633.75 500.12 631.23 502.26 C 625.80 506.76 620.67 511.79 616.35 517.39 C 611.94 522.12 608.83 527.84 605.27 533.21 C 604.18 535.47 603.11 537.74 601.98 539.98 C 601.20 541.60 600.40 543.20 599.58 544.80 C 598.74 547.16 597.79 549.48 596.84 551.80 C 596.18 553.63 595.56 555.48 595.22 557.42 L 594.67 557.37 C 593.75 563.09 591.42 568.58 591.27 574.44 L 590.59 574.46 C 590.53 576.15 590.48 577.86 590.43 579.56 L 589.69 579.47 C 589.64 584.01 589.18 588.54 589.25 593.10 C 588.23 596.50 588.07 600.49 589.27 603.86 C 589.09 609.78 589.84 615.67 589.62 621.59 L 590.49 621.51 C 590.51 623.85 590.54 626.18 590.60 628.53 L 591.33 628.44 C 591.34 630.98 591.63 633.50 591.89 636.03 C 592.95 639.89 592.96 643.97 594.15 647.80 C 594.31 648.93 594.49 650.06 594.68 651.21 C 595.49 652.86 595.58 654.69 595.77 656.51 L 596.43 656.40 C 596.54 657.61 596.67 658.83 596.84 660.05 C 597.66 662.29 598.22 664.62 598.88 666.92 C 599.20 668.11 599.48 669.33 599.72 670.56 L 600.42 670.52 C 600.48 671.18 600.61 672.50 600.68 673.15 C 602.30 676.65 603.18 680.45 604.70 684.01 C 605.29 685.28 605.83 686.58 606.43 687.87 C 607.42 690.67 608.63 693.39 610.10 695.99 C 611.85 699.26 613.11 702.83 615.33 705.86 C 615.82 706.92 616.34 707.99 616.85 709.07 C 618.33 710.99 619.55 713.10 620.71 715.23 C 625.35 721.87 630.18 728.39 635.56 734.45 C 639.09 737.94 642.57 741.49 646.08 745.01 C 651.14 749.35 656.41 753.47 661.87 757.33 C 664.53 759.08 667.52 760.35 670.01 762.38 C 673.13 763.66 676.03 765.39 679.09 766.80 C 681.87 768.52 684.99 769.50 688.04 770.65 C 688.97 771.25 690.01 771.64 691.14 771.83 C 692.11 772.20 693.09 772.56 694.09 772.93 C 696.71 773.63 699.36 774.27 701.91 775.23 C 703.17 775.35 704.45 775.51 705.73 775.61 L 705.45 776.36 C 707.15 776.46 708.85 776.56 710.57 776.67 L 710.39 777.37 C 719.74 777.78 729.10 780.14 738.46 778.56 C 740.62 778.33 742.87 778.67 744.97 777.90 C 747.11 777.66 749.27 777.44 751.43 777.29 L 751.45 776.55 C 752.79 776.52 754.14 776.50 755.49 776.49 L 755.42 775.70 C 756.63 775.55 757.85 775.39 759.08 775.22 C 760.34 774.72 761.64 774.29 762.93 773.83 C 764.32 773.33 765.71 772.81 767.12 772.34 C 768.36 771.72 769.63 771.15 770.92 770.63 C 773.17 769.90 774.87 768.08 777.14 767.36 C 779.52 765.71 781.85 764.00 784.25 762.36 C 790.89 756.73 797.33 750.46 801.60 742.80 C 802.17 741.91 802.77 741.04 803.38 740.18 C 804.61 737.47 805.90 734.80 807.25 732.15 C 807.31 731.48 807.43 730.15 807.49 729.48 L 808.17 729.47 C 808.43 728.30 808.76 727.17 809.15 726.06 C 810.29 723.13 811.11 720.09 812.08 717.11 C 812.54 715.90 813.10 714.73 813.74 713.61 C 888.90 713.78 964.07 713.62 1039.23 713.69 C 1039.22 843.29 1039.25 972.89 1039.22 1102.49 C 926.79 1102.52 814.37 1102.49 701.94 1102.51 C 699.31 1102.30 696.43 1103.09 694.01 1101.78 C 686.13 1101.91 678.26 1101.18 670.39 1101.40 L 670.56 1100.58 C 667.65 1100.48 664.75 1100.52 661.86 1100.42 C 657.89 1098.81 653.22 1099.85 649.00 1099.14 C 640.91 1097.99 632.73 1096.86 624.56 1096.30 L 624.48 1095.47 C 622.81 1095.47 621.13 1095.44 619.47 1095.47 L 619.43 1094.70 C 613.34 1094.85 607.55 1092.47 601.49 1092.37 L 601.43 1091.68 C 600.10 1091.64 598.78 1091.62 597.46 1091.61 L 597.47 1090.75 C 595.49 1090.64 593.50 1090.48 591.53 1090.41 L 591.48 1089.67 C 589.64 1089.54 587.80 1089.34 585.98 1089.14 C 584.70 1088.67 583.43 1088.32 582.15 1087.96 C 580.42 1087.74 578.70 1087.45 577.11 1086.78 C 575.51 1086.58 573.94 1086.43 572.37 1086.30 L 572.55 1085.54 C 571.21 1085.46 569.89 1085.39 568.57 1085.33 L 568.65 1084.60 C 567.41 1084.46 566.17 1084.31 564.95 1084.16 C 563.68 1083.70 562.40 1083.34 561.13 1082.99 C 558.53 1082.51 556.05 1081.60 553.45 1081.22 L 553.59 1080.59 C 552.32 1080.49 551.06 1080.39 549.81 1080.30 C 546.75 1078.69 543.26 1078.19 540.01 1077.08 C 538.81 1076.75 537.60 1076.47 536.39 1076.25 L 536.47 1075.58 C 535.34 1075.45 534.22 1075.32 533.11 1075.20 C 530.40 1073.85 527.42 1073.17 524.54 1072.32 L 524.49 1071.80 C 523.26 1071.73 522.11 1071.43 521.03 1070.90 C 516.55 1069.64 512.29 1067.77 507.87 1066.36 C 506.85 1065.90 505.84 1065.49 504.82 1065.11 C 502.93 1064.37 501.03 1063.66 499.12 1063.01 C 498.11 1062.60 497.11 1062.19 496.12 1061.78 C 494.69 1061.23 493.28 1060.64 491.86 1060.11 C 489.56 1059.13 487.24 1058.18 484.90 1057.34 C 483.63 1056.73 482.36 1056.16 481.09 1055.60 C 478.69 1054.50 476.23 1053.52 473.83 1052.42 C 472.55 1051.83 471.26 1051.30 470.01 1050.71 C 468.05 1049.72 466.08 1048.76 464.05 1047.96 C 457.30 1044.76 450.65 1041.31 443.98 1037.93 C 442.25 1037.09 440.53 1036.22 438.86 1035.30 C 436.83 1033.83 434.48 1032.95 432.31 1031.76 C 429.61 1029.91 426.56 1028.69 423.89 1026.81 C 421.26 1025.35 418.67 1023.81 416.14 1022.19 C 415.04 1021.50 413.93 1020.88 412.80 1020.29 C 411.47 1019.44 410.18 1018.56 408.94 1017.62 C 408.72 1017.59 408.27 1017.53 408.04 1017.50 C 403.50 1014.17 398.66 1011.28 393.91 1008.29 C 392.33 1007.12 390.83 1005.87 389.26 1004.74 C 388.15 1004.16 387.12 1003.43 386.13 1002.71 C 381.60 999.64 377.37 996.14 372.71 993.28 L 372.58 992.78 C 370.95 991.70 369.42 990.51 367.84 989.39 C 357.39 981.16 347.22 972.56 337.28 963.72 C 317.44 945.22 298.69 925.44 282.27 903.78 C 279.83 901.09 278.03 897.90 275.61 895.20 C 270.82 888.53 266.42 881.59 261.50 875.02 C 261.51 874.76 261.54 874.25 261.56 873.99 C 259.36 871.62 257.76 868.78 256.12 866.02 C 254.15 863.14 252.70 859.96 250.69 857.12 C 248.94 854.16 247.47 851.05 245.62 848.15 C 244.23 845.36 242.50 842.75 241.33 839.85 C 239.02 835.68 236.72 831.51 234.67 827.20 C 233.88 824.62 232.55 822.27 231.33 819.89 C 230.73 818.64 230.18 817.37 229.66 816.12 C 228.80 814.08 227.81 812.11 226.96 810.08 C 226.54 809.08 226.12 808.09 225.68 807.12 C 224.20 803.37 222.72 799.63 221.32 795.86 C 220.75 794.60 220.21 793.32 219.62 792.08 C 219.09 790.41 218.56 788.74 218.02 787.08 C 217.63 786.10 217.24 785.13 216.83 784.18 C 216.16 782.35 215.54 780.50 215.21 778.59 L 214.58 778.57 C 214.49 777.90 214.31 776.56 214.22 775.89 C 212.51 771.68 211.26 767.30 210.10 762.92 C 208.63 759.40 208.17 755.57 206.85 752.00 C 206.68 750.78 206.54 749.56 206.42 748.35 L 205.59 748.39 C 205.52 747.10 205.45 745.83 205.39 744.56 L 204.65 744.63 C 204.51 743.06 204.32 741.50 204.13 739.96 C 203.23 737.34 202.84 734.59 202.25 731.90 C 201.44 729.84 201.45 727.60 201.32 725.44 L 200.51 725.51 C 200.49 724.16 200.46 722.81 200.45 721.47 L 199.72 721.41 C 199.69 717.23 198.37 713.23 197.95 709.11 C 197.45 706.76 197.80 704.25 196.87 702.02 C 196.55 699.20 196.30 696.38 196.29 693.55 L 195.54 693.55 C 195.85 687.99 194.18 682.60 194.33 677.05 C 192.77 660.77 192.99 644.30 193.15 627.92 C 194.22 622.68 192.46 617.05 194.22 612.02 C 194.08 606.79 194.89 601.59 194.58 596.36 L 195.42 596.43 C 195.09 590.49 196.71 584.73 196.81 578.82 C 197.73 574.25 198.22 569.54 198.65 564.89 C 199.57 562.51 199.56 559.91 199.60 557.41 L 200.42 557.41 C 200.46 555.77 200.49 554.15 200.52 552.52 L 201.31 552.53 C 201.33 550.62 201.52 548.74 201.77 546.86 C 202.88 543.35 203.02 539.61 204.13 536.11 C 204.39 534.60 204.61 533.08 204.73 531.56 L 205.38 531.55 C 205.49 529.82 205.63 528.12 205.72 526.41 L 206.40 526.60 C 206.52 525.40 206.67 524.21 206.84 523.03 C 208.44 519.19 208.32 514.80 210.32 511.13 C 210.43 509.90 210.52 508.67 210.61 507.45 L 211.22 507.51 C 211.83 503.98 212.92 500.55 214.04 497.16 C 214.59 494.78 215.21 492.38 216.34 490.21 C 216.46 489.65 216.69 488.54 216.81 487.99 C 217.22 486.95 217.60 485.91 217.95 484.86 C 218.64 482.61 219.30 480.33 220.30 478.19 C 220.38 477.53 220.55 476.21 220.63 475.55 L 221.40 475.63 C 221.48 474.95 221.64 473.58 221.72 472.89 C 223.73 469.16 224.60 464.93 226.39 461.10 C 227.39 458.32 228.55 455.62 229.64 452.88 C 230.12 451.77 230.52 450.63 230.84 449.47 L 231.26 449.36 C 232.53 445.78 234.34 442.42 235.60 438.85 C 237.19 435.94 238.49 432.89 240.04 429.97 C 240.39 428.96 240.76 427.96 241.14 426.98 C 242.40 424.64 243.58 422.26 244.66 419.83 C 245.57 418.65 246.31 417.35 246.97 416.02 C 247.99 413.97 248.91 411.86 250.09 409.90 C 250.38 409.45 250.96 408.54 251.25 408.09 C 252.73 404.91 254.32 401.72 256.55 398.99 C 256.55 398.74 256.54 398.24 256.54 397.99 C 258.61 395.44 260.05 392.47 261.73 389.66 C 263.20 387.40 264.46 385.00 266.18 382.91 C 266.69 381.90 267.20 380.90 267.72 379.91 C 270.65 376.02 273.02 371.73 276.04 367.90 C 277.92 364.81 280.16 361.96 282.37 359.10 C 283.60 356.86 285.37 354.98 286.72 352.82 C 288.39 351.03 289.83 349.06 291.28 347.09 C 292.87 345.06 294.48 343.06 296.24 341.18 C 297.99 338.59 299.97 336.17 302.19 333.97 C 305.70 329.00 310.47 325.05 314.05 320.12 C 319.82 314.20 325.71 308.39 331.53 302.51 C 333.93 300.22 336.03 297.59 338.82 295.75 C 340.29 294.57 341.60 293.22 342.90 291.87 C 345.29 289.92 347.35 287.59 349.88 285.80 C 352.19 283.75 354.57 281.78 356.80 279.65 C 359.02 278.22 361.01 276.47 362.95 274.69 C 367.05 271.94 370.73 268.62 374.71 265.71 C 379.21 262.65 383.45 259.21 388.04 256.29 C 389.04 255.55 390.06 254.82 391.11 254.13 C 394.77 251.62 398.64 249.37 402.04 246.51 C 402.30 246.53 402.81 246.56 403.07 246.58 C 405.11 244.60 407.68 243.38 410.06 241.88 C 411.27 241.16 412.49 240.43 413.67 239.63 C 416.35 238.44 418.71 236.69 421.22 235.17 C 423.24 234.23 425.27 233.28 427.05 231.91 C 430.86 230.27 434.28 227.88 438.04 226.13 C 441.57 224.15 445.35 222.66 448.83 220.58 C 450.92 219.82 452.98 218.98 454.94 217.90 C 455.63 217.52 456.33 217.14 457.04 216.76 C 459.80 215.78 462.37 214.31 465.15 213.38 C 466.78 212.55 468.42 211.71 470.16 211.12 C 472.41 210.01 474.75 209.10 477.10 208.21 C 478.43 207.69 479.79 207.20 481.02 206.45 C 481.25 206.44 481.71 206.42 481.94 206.41 C 483.14 205.62 484.50 205.17 485.84 204.67 C 487.94 203.95 490.01 203.10 492.11 202.34 C 493.74 201.75 495.43 201.27 496.99 200.48 C 499.61 199.56 502.34 198.89 504.86 197.68 C 505.54 197.60 506.91 197.45 507.60 197.38 L 507.50 196.56 C 508.16 196.49 509.48 196.35 510.14 196.28 C 513.14 194.42 516.91 194.65 519.88 192.72 C 521.11 192.61 522.36 192.51 523.61 192.42 L 523.55 191.60 C 524.66 191.48 525.78 191.34 526.91 191.18 C 527.91 190.62 529.00 190.27 530.16 190.14 C 531.39 189.74 532.63 189.35 533.84 188.85 C 535.10 188.67 536.38 188.50 537.66 188.37 L 537.57 187.68 C 539.23 187.55 540.91 187.39 542.59 187.26 L 542.41 186.48 C 543.11 186.43 544.49 186.33 545.19 186.28 C 550.81 184.42 556.72 183.53 562.51 182.31 L 562.41 181.67 C 564.39 181.57 566.37 181.39 568.36 181.29 L 568.43 180.60 C 571.93 180.34 575.44 179.83 578.82 178.87 C 581.16 178.47 583.72 178.76 585.88 177.59 C 587.09 177.56 588.31 177.54 589.54 177.54 L 589.45 176.69 C 596.95 176.60 604.28 174.64 611.78 174.31 C 616.74 173.16 621.92 173.85 626.85 172.57 C 629.04 172.43 631.25 172.49 633.46 172.48 L 633.40 171.59 M 636.00 198.83 C 628.02 199.76 619.93 199.95 612.02 201.18 C 609.70 201.37 607.36 201.49 605.12 202.13 C 592.67 203.60 580.26 205.50 568.01 208.17 C 555.55 210.69 543.22 213.82 530.98 217.23 C 526.71 218.68 522.27 219.60 518.10 221.31 C 517.56 221.43 516.49 221.67 515.95 221.79 C 507.34 224.91 498.61 227.75 490.11 231.18 C 478.57 235.75 467.28 240.89 456.09 246.23 C 421.28 263.69 388.64 285.63 359.95 312.01 C 355.68 315.40 352.37 319.80 348.12 323.19 C 346.13 324.78 344.32 326.59 342.74 328.59 C 339.23 333.09 334.67 336.61 331.12 341.08 C 302.52 372.91 278.88 409.20 261.24 448.16 C 257.52 455.97 254.31 464.01 251.19 472.08 C 245.16 487.03 240.41 502.48 236.13 518.02 C 234.37 525.01 232.46 531.99 231.11 539.09 C 228.30 549.91 226.78 561.03 224.86 572.04 C 223.23 584.98 221.51 597.93 221.15 610.98 C 220.71 612.28 220.46 613.62 220.42 615.01 C 220.27 631.34 219.87 647.69 220.41 664.02 C 220.46 667.32 220.17 670.68 221.15 673.89 C 221.39 677.60 221.53 681.31 221.81 685.02 C 222.86 692.65 223.73 700.34 224.82 707.99 C 225.97 711.94 226.30 716.08 227.26 720.09 C 229.39 731.94 232.74 743.51 235.76 755.15 C 238.81 764.88 242.17 774.53 245.67 784.13 C 246.09 785.10 246.50 786.08 246.91 787.08 C 248.25 790.42 249.70 793.71 251.10 797.03 C 260.41 819.29 272.14 840.50 285.34 860.69 C 333.57 933.89 404.51 990.82 484.10 1026.76 C 487.33 1028.35 490.70 1029.65 493.99 1031.13 C 497.92 1032.90 502.02 1034.32 505.90 1036.23 C 510.33 1037.60 514.58 1039.48 518.91 1041.15 C 523.37 1042.53 527.65 1044.43 532.12 1045.75 C 555.62 1053.77 579.68 1060.16 604.07 1064.84 C 606.06 1065.31 608.10 1065.61 610.15 1065.85 C 623.59 1069.02 637.51 1070.00 651.08 1072.21 C 660.45 1072.71 669.76 1074.00 679.14 1074.35 C 684.73 1074.89 690.39 1074.17 695.92 1075.37 C 801.57 1075.43 907.23 1075.39 1012.88 1075.39 C 1012.86 975.25 1012.90 875.13 1012.90 774.99 C 1013.08 763.48 1012.38 751.93 1013.26 740.44 C 1009.19 740.01 1005.10 740.23 1001.02 740.20 C 944.88 740.17 888.73 740.26 832.59 740.16 C 822.35 767.11 799.92 789.22 772.75 798.93 C 754.69 805.48 734.96 807.01 716.00 804.81 C 703.29 803.84 690.75 800.72 678.83 796.28 C 677.85 795.88 676.88 795.50 675.92 795.15 C 654.49 786.75 635.30 773.18 619.33 756.74 C 602.59 738.79 589.38 717.63 580.27 694.85 C 578.64 690.21 576.81 685.65 575.15 681.02 C 573.50 675.02 571.64 669.08 570.18 663.03 C 568.31 656.46 567.28 649.68 566.16 642.96 C 564.40 634.34 563.60 625.56 562.98 616.81 C 561.99 611.63 562.97 606.33 562.15 601.15 C 561.47 597.76 562.84 594.40 562.51 590.99 C 562.16 585.25 563.55 579.61 563.72 573.89 C 565.33 566.24 566.80 558.54 568.98 551.02 C 569.36 550.03 569.75 549.04 570.15 548.07 C 578.69 519.93 596.37 494.46 620.00 476.90 C 632.38 467.88 646.58 460.80 661.91 458.84 C 663.88 458.39 666.77 459.46 667.98 457.37 C 668.18 457.61 668.56 458.10 668.76 458.34 C 676.41 458.76 684.26 460.76 690.17 465.90 C 699.17 472.70 705.76 482.80 707.49 494.02 C 708.13 499.41 707.31 504.78 706.21 510.06 C 702.42 522.85 695.26 534.52 686.05 544.12 C 685.22 544.77 684.79 546.27 685.91 546.89 C 728.69 576.44 771.36 606.16 814.08 635.80 C 820.51 639.96 826.47 644.85 833.07 648.75 C 834.45 647.28 835.86 645.83 837.16 644.28 C 840.82 639.59 845.67 636.00 849.14 631.16 C 856.61 623.29 864.31 615.64 871.40 607.43 C 876.70 602.70 880.79 596.83 886.06 592.07 C 893.17 583.80 900.98 576.15 908.45 568.21 C 912.18 563.06 917.38 559.24 921.21 554.16 C 929.68 545.64 937.53 536.54 945.98 528.00 C 949.56 524.88 951.92 520.66 955.53 517.55 C 967.20 505.52 978.33 493.00 990.00 480.97 C 997.49 471.86 1006.53 464.13 1013.96 454.97 C 1019.88 449.50 1024.75 443.06 1030.61 437.54 C 1034.71 432.36 1039.76 428.07 1044.00 423.01 C 1048.41 418.21 1053.79 413.93 1056.73 408.06 C 1049.20 396.10 1041.91 383.94 1033.30 372.70 C 1020.71 355.53 1006.79 339.34 991.51 324.52 C 970.49 302.84 946.65 284.00 921.48 267.37 C 902.47 255.17 882.66 244.15 861.95 235.14 C 858.92 233.89 855.94 232.52 852.94 231.21 C 851.98 230.80 851.03 230.40 850.09 230.00 C 847.42 228.96 844.67 228.14 842.11 226.84 C 827.95 221.59 813.60 216.83 799.00 212.94 C 797.63 212.61 796.29 212.30 794.95 211.92 C 786.37 209.71 777.71 207.82 769.01 206.16 C 761.15 204.08 752.88 203.82 745.03 201.84 C 742.04 201.47 738.94 201.75 736.06 200.76 C 726.02 200.10 716.05 198.64 705.99 198.39 C 703.32 198.30 700.55 198.74 698.00 197.76 C 684.34 197.41 670.66 197.68 657.00 197.61 C 650.07 198.92 642.99 198.12 636.00 198.83 Z" />
</g>
<g id="#034ea2ff">
<path fill="#034ea2" opacity="1.00" d=" M 636.00 198.83 C 642.99 198.12 650.07 198.92 657.00 197.61 C 670.66 197.68 684.34 197.41 698.00 197.76 C 700.55 198.74 703.32 198.30 705.99 198.39 C 716.05 198.64 726.02 200.10 736.06 200.76 C 738.94 201.75 742.04 201.47 745.03 201.84 C 752.88 203.82 761.15 204.08 769.01 206.16 C 777.71 207.82 786.37 209.71 794.95 211.92 C 796.29 212.30 797.63 212.61 799.00 212.94 C 813.60 216.83 827.95 221.59 842.11 226.84 C 844.67 228.14 847.42 228.96 850.09 230.00 C 851.03 230.40 851.98 230.80 852.94 231.21 C 855.94 232.52 858.92 233.89 861.95 235.14 C 882.66 244.15 902.47 255.17 921.48 267.37 C 946.65 284.00 970.49 302.84 991.51 324.52 C 1006.79 339.34 1020.71 355.53 1033.30 372.70 C 1041.91 383.94 1049.20 396.10 1056.73 408.06 C 1053.79 413.93 1048.41 418.21 1044.00 423.01 C 1039.76 428.07 1034.71 432.36 1030.61 437.54 C 1024.75 443.06 1019.88 449.50 1013.96 454.97 C 1006.53 464.13 997.49 471.86 990.00 480.97 C 978.33 493.00 967.20 505.52 955.53 517.55 C 951.92 520.66 949.56 524.88 945.98 528.00 C 937.53 536.54 929.68 545.64 921.21 554.16 C 917.38 559.24 912.18 563.06 908.45 568.21 C 900.98 576.15 893.17 583.80 886.06 592.07 C 880.79 596.83 876.70 602.70 871.40 607.43 C 864.31 615.64 856.61 623.29 849.14 631.16 C 845.67 636.00 840.82 639.59 837.16 644.28 C 835.86 645.83 834.45 647.28 833.07 648.75 C 826.47 644.85 820.51 639.96 814.08 635.80 C 771.36 606.16 728.69 576.44 685.91 546.89 C 684.79 546.27 685.22 544.77 686.05 544.12 C 695.26 534.52 702.42 522.85 706.21 510.06 C 707.31 504.78 708.13 499.41 707.49 494.02 C 705.76 482.80 699.17 472.70 690.17 465.90 C 684.26 460.76 676.41 458.76 668.76 458.34 C 668.56 458.10 668.18 457.61 667.98 457.37 C 666.77 459.46 663.88 458.39 661.91 458.84 C 646.58 460.80 632.38 467.88 620.00 476.90 C 596.37 494.46 578.69 519.93 570.15 548.07 C 569.75 549.04 569.36 550.03 568.98 551.02 C 566.80 558.54 565.33 566.24 563.72 573.89 C 563.55 579.61 562.16 585.25 562.51 590.99 C 562.84 594.40 561.47 597.76 562.15 601.15 C 562.97 606.33 561.99 611.63 562.98 616.81 C 563.60 625.56 564.40 634.34 566.16 642.96 C 567.28 649.68 568.31 656.46 570.18 663.03 C 571.64 669.08 573.50 675.02 575.15 681.02 C 576.81 685.65 578.64 690.21 580.27 694.85 C 589.38 717.63 602.59 738.79 619.33 756.74 C 635.30 773.18 654.49 786.75 675.92 795.15 C 676.88 795.50 677.85 795.88 678.83 796.28 C 690.75 800.72 703.29 803.84 716.00 804.81 C 734.96 807.01 754.69 805.48 772.75 798.93 C 799.92 789.22 822.35 767.11 832.59 740.16 C 888.73 740.26 944.88 740.17 1001.02 740.20 C 1005.10 740.23 1009.19 740.01 1013.26 740.44 C 1012.38 751.93 1013.08 763.48 1012.90 774.99 C 1012.90 875.13 1012.86 975.25 1012.88 1075.39 C 907.23 1075.39 801.57 1075.43 695.92 1075.37 C 690.39 1074.17 684.73 1074.89 679.14 1074.35 C 669.76 1074.00 660.45 1072.71 651.08 1072.21 C 637.51 1070.00 623.59 1069.02 610.15 1065.85 C 608.10 1065.61 606.06 1065.31 604.07 1064.84 C 579.68 1060.16 555.62 1053.77 532.12 1045.75 C 527.65 1044.43 523.37 1042.53 518.91 1041.15 C 514.58 1039.48 510.33 1037.60 505.90 1036.23 C 502.02 1034.32 497.92 1032.90 493.99 1031.13 C 490.70 1029.65 487.33 1028.35 484.10 1026.76 C 404.51 990.82 333.57 933.89 285.34 860.69 C 272.14 840.50 260.41 819.29 251.10 797.03 C 249.70 793.71 248.25 790.42 246.91 787.08 C 246.50 786.08 246.09 785.10 245.67 784.13 C 242.17 774.53 238.81 764.88 235.76 755.15 C 232.74 743.51 229.39 731.94 227.26 720.09 C 226.30 716.08 225.97 711.94 224.82 707.99 C 223.73 700.34 222.86 692.65 221.81 685.02 C 221.53 681.31 221.39 677.60 221.15 673.89 C 220.17 670.68 220.46 667.32 220.41 664.02 C 219.87 647.69 220.27 631.34 220.42 615.01 C 220.46 613.62 220.71 612.28 221.15 610.98 C 221.51 597.93 223.23 584.98 224.86 572.04 C 226.78 561.03 228.30 549.91 231.11 539.09 C 232.46 531.99 234.37 525.01 236.13 518.02 C 240.41 502.48 245.16 487.03 251.19 472.08 C 254.31 464.01 257.52 455.97 261.24 448.16 C 278.88 409.20 302.52 372.91 331.12 341.08 C 334.67 336.61 339.23 333.09 342.74 328.59 C 344.32 326.59 346.13 324.78 348.12 323.19 C 352.37 319.80 355.68 315.40 359.95 312.01 C 388.64 285.63 421.28 263.69 456.09 246.23 C 467.28 240.89 478.57 235.75 490.11 231.18 C 498.61 227.75 507.34 224.91 515.95 221.79 C 516.49 221.67 517.56 221.43 518.10 221.31 C 522.27 219.60 526.71 218.68 530.98 217.23 C 543.22 213.82 555.55 210.69 568.01 208.17 C 580.26 205.50 592.67 203.60 605.12 202.13 C 607.36 201.49 609.70 201.37 612.02 201.18 C 619.93 199.95 628.02 199.76 636.00 198.83 M 603.91 284.84 C 601.68 285.35 599.42 285.69 597.19 286.18 C 591.12 287.42 584.98 288.43 579.04 290.21 C 578.01 290.41 577.00 290.61 575.99 290.81 C 572.07 292.15 567.94 292.71 564.03 294.06 C 547.66 298.64 531.62 304.33 515.95 310.90 C 512.94 312.18 509.97 313.57 506.93 314.78 C 480.54 326.86 455.32 341.60 432.21 359.19 C 387.43 393.17 350.43 437.78 327.21 489.10 C 323.72 496.52 320.85 504.23 317.74 511.81 C 317.62 512.37 317.38 513.48 317.26 514.03 C 315.45 517.88 314.41 522.02 312.84 525.97 C 312.66 527.02 312.47 528.07 312.29 529.14 C 309.82 535.19 308.66 541.70 306.83 547.96 C 304.87 555.88 303.30 563.90 302.09 571.96 C 299.57 582.13 299.38 592.72 297.80 603.02 C 297.43 610.32 297.24 617.63 297.20 624.94 C 296.16 626.45 296.46 628.33 296.41 630.06 C 296.53 635.34 296.07 640.68 297.19 645.90 C 297.20 658.03 299.06 670.04 300.82 682.02 C 302.64 689.69 304.04 697.46 306.10 705.08 C 307.74 710.67 309.22 716.31 311.06 721.85 C 311.43 722.86 311.80 723.88 312.19 724.90 C 313.60 730.46 316.14 735.64 317.82 741.11 C 321.44 749.40 324.60 757.91 328.89 765.89 C 344.74 799.49 366.06 830.36 390.83 857.98 C 397.30 864.58 403.12 871.83 410.15 877.88 C 439.55 906.22 473.31 930.12 509.98 948.16 C 513.30 949.85 516.71 951.40 519.95 953.28 C 520.45 953.40 521.44 953.65 521.94 953.78 C 533.54 959.46 545.67 964.08 557.88 968.28 C 567.06 971.75 576.64 974.10 585.97 977.17 C 586.99 977.35 588.02 977.54 589.06 977.76 C 594.64 979.55 600.43 980.52 606.13 981.87 C 615.62 984.20 625.35 985.41 634.94 987.23 C 636.66 987.40 638.45 987.41 640.07 988.14 C 651.36 989.33 662.66 990.41 673.97 991.30 C 699.97 992.11 725.99 991.47 752.00 991.68 C 809.23 991.68 866.46 991.67 923.68 991.68 C 923.65 933.96 923.75 876.24 923.63 818.52 C 910.09 818.61 896.55 818.43 883.01 818.61 C 878.19 830.51 869.12 840.12 859.84 848.74 C 850.12 857.29 838.78 863.68 827.14 869.20 C 817.38 873.27 807.36 876.91 796.95 878.85 C 785.63 881.94 773.82 883.31 762.11 883.82 C 759.85 884.84 757.35 884.46 754.97 884.51 C 748.65 884.30 742.34 885.16 736.04 884.55 C 731.01 884.10 725.80 885.28 720.91 883.82 C 708.49 883.55 696.20 881.48 684.02 879.22 C 677.09 877.31 669.88 876.27 663.13 873.72 C 654.46 871.69 646.24 868.18 638.01 864.85 C 626.82 860.28 616.20 854.45 605.94 848.08 C 565.67 822.81 534.52 784.65 514.19 741.95 C 512.68 739.03 511.28 736.07 509.85 733.12 C 508.14 729.13 506.57 725.08 504.80 721.12 C 503.11 716.77 501.62 712.35 499.94 708.01 C 499.55 707.03 499.18 706.06 498.80 705.10 C 497.37 700.77 496.18 696.37 494.73 692.05 C 494.61 691.53 494.36 690.48 494.24 689.96 C 492.40 684.76 491.43 679.31 489.78 674.06 C 489.63 673.02 489.48 671.98 489.34 670.96 C 487.45 664.08 486.15 657.03 485.15 649.97 C 484.44 647.37 484.37 644.68 484.12 642.03 C 483.30 640.39 483.39 638.50 483.11 636.75 C 478.54 602.52 480.74 567.50 489.20 534.02 C 489.40 532.96 489.60 531.91 489.80 530.87 C 491.11 527.31 491.75 523.55 493.15 520.03 C 493.74 517.71 494.42 515.40 495.26 513.16 C 497.88 505.36 500.96 497.73 504.24 490.19 C 512.13 472.73 522.05 456.10 534.27 441.29 C 537.76 436.46 542.67 432.88 546.05 427.97 C 546.84 427.44 547.62 426.89 548.38 426.31 C 561.87 412.53 578.30 401.76 595.82 393.79 C 607.09 388.85 618.90 385.35 630.92 382.80 C 632.62 382.53 634.32 382.29 636.03 382.03 C 650.87 379.37 665.96 379.39 680.98 379.80 C 682.85 380.65 684.93 380.39 686.93 380.48 C 693.71 380.61 700.36 382.11 707.10 382.77 C 714.04 384.60 721.21 385.61 727.94 388.22 C 728.46 388.33 729.50 388.55 730.03 388.66 C 740.13 392.39 750.02 396.90 758.84 403.17 C 775.09 413.94 786.78 430.58 793.27 448.82 C 793.55 449.85 793.84 450.89 794.16 451.93 C 797.06 462.34 798.99 473.13 798.64 483.97 C 798.96 495.35 794.09 506.01 788.26 515.50 C 786.88 517.48 787.57 520.02 787.45 522.28 C 795.09 528.10 802.15 534.66 809.83 540.43 C 815.35 544.60 823.24 544.44 829.07 540.96 C 833.66 537.67 837.22 533.18 840.92 528.96 C 844.48 525.15 848.50 521.77 851.67 517.61 C 855.53 513.11 860.26 509.42 863.83 504.65 C 868.02 499.92 872.78 495.73 876.88 490.91 C 883.46 484.77 888.84 477.53 895.48 471.44 C 900.25 465.27 906.45 460.41 911.25 454.26 C 914.97 450.31 919.00 446.65 922.49 442.48 C 926.11 438.33 930.70 435.03 933.73 430.39 C 937.47 426.27 941.78 422.67 945.24 418.30 C 946.51 416.69 948.02 415.28 949.64 414.02 C 950.30 411.01 947.06 409.44 945.71 407.20 C 925.54 384.61 902.81 364.35 878.03 346.94 C 854.60 330.38 829.52 316.01 802.90 305.23 C 799.44 303.43 795.57 302.61 792.17 300.70 C 791.61 300.59 790.49 300.37 789.92 300.25 C 785.16 297.93 779.94 296.78 775.07 294.73 C 774.00 294.53 772.93 294.34 771.88 294.15 C 768.42 292.53 764.58 292.06 761.03 290.71 C 760.52 290.57 759.50 290.30 758.99 290.16 C 757.64 289.74 756.26 289.40 754.92 289.07 C 750.58 288.09 746.24 287.12 741.91 286.13 C 731.38 283.79 720.69 282.08 709.94 281.16 C 701.13 279.41 691.99 279.26 682.99 279.29 C 676.05 278.31 668.95 278.13 662.02 279.26 C 642.49 278.96 623.16 281.80 603.91 284.84 Z" />
</g>
<g id="#ffcb04ff">
<path fill="#ffcb04" opacity="1.00" d=" M 603.91 284.84 C 623.16 281.80 642.49 278.96 662.02 279.26 C 668.95 278.13 676.05 278.31 682.99 279.29 C 691.99 279.26 701.13 279.41 709.94 281.16 C 720.69 282.08 731.38 283.79 741.91 286.13 C 746.24 287.12 750.58 288.09 754.92 289.07 C 756.26 289.40 757.64 289.74 758.99 290.16 C 759.50 290.30 760.52 290.57 761.03 290.71 C 764.58 292.06 768.42 292.53 771.88 294.15 C 772.93 294.34 774.00 294.53 775.07 294.73 C 779.94 296.78 785.16 297.93 789.92 300.25 C 790.49 300.37 791.61 300.59 792.17 300.70 C 795.57 302.61 799.44 303.43 802.90 305.23 C 829.52 316.01 854.60 330.38 878.03 346.94 C 902.81 364.35 925.54 384.61 945.71 407.20 C 947.06 409.44 950.30 411.01 949.64 414.02 C 948.02 415.28 946.51 416.69 945.24 418.30 C 941.78 422.67 937.47 426.27 933.73 430.39 C 930.70 435.03 926.11 438.33 922.49 442.48 C 919.00 446.65 914.97 450.31 911.25 454.26 C 906.45 460.41 900.25 465.27 895.48 471.44 C 888.84 477.53 883.46 484.77 876.88 490.91 C 872.78 495.73 868.02 499.92 863.83 504.65 C 860.26 509.42 855.53 513.11 851.67 517.61 C 848.50 521.77 844.48 525.15 840.92 528.96 C 837.22 533.18 833.66 537.67 829.07 540.96 C 823.24 544.44 815.35 544.60 809.83 540.43 C 802.15 534.66 795.09 528.10 787.45 522.28 C 787.57 520.02 786.88 517.48 788.26 515.50 C 794.09 506.01 798.96 495.35 798.64 483.97 C 798.99 473.13 797.06 462.34 794.16 451.93 C 793.84 450.89 793.55 449.85 793.27 448.82 C 786.78 430.58 775.09 413.94 758.84 403.17 C 750.02 396.90 740.13 392.39 730.03 388.66 C 729.50 388.55 728.46 388.33 727.94 388.22 C 721.21 385.61 714.04 384.60 707.10 382.77 C 700.36 382.11 693.71 380.61 686.93 380.48 C 684.93 380.39 682.85 380.65 680.98 379.80 C 665.96 379.39 650.87 379.37 636.03 382.03 C 634.32 382.29 632.62 382.53 630.92 382.80 C 618.90 385.35 607.09 388.85 595.82 393.79 C 578.30 401.76 561.87 412.53 548.38 426.31 C 547.62 426.89 546.84 427.44 546.05 427.97 C 542.67 432.88 537.76 436.46 534.27 441.29 C 522.05 456.10 512.13 472.73 504.24 490.19 C 500.96 497.73 497.88 505.36 495.26 513.16 C 494.42 515.40 493.74 517.71 493.15 520.03 C 491.75 523.55 491.11 527.31 489.80 530.87 C 489.60 531.91 489.40 532.96 489.20 534.02 C 480.74 567.50 478.54 602.52 483.11 636.75 C 483.39 638.50 483.30 640.39 484.12 642.03 C 484.37 644.68 484.44 647.37 485.15 649.97 C 486.15 657.03 487.45 664.08 489.34 670.96 C 489.48 671.98 489.63 673.02 489.78 674.06 C 491.43 679.31 492.40 684.76 494.24 689.96 C 494.36 690.48 494.61 691.53 494.73 692.05 C 496.18 696.37 497.37 700.77 498.80 705.10 C 499.18 706.06 499.55 707.03 499.94 708.01 C 501.62 712.35 503.11 716.77 504.80 721.12 C 506.57 725.08 508.14 729.13 509.85 733.12 C 511.28 736.07 512.68 739.03 514.19 741.95 C 534.52 784.65 565.67 822.81 605.94 848.08 C 616.20 854.45 626.82 860.28 638.01 864.85 C 646.24 868.18 654.46 871.69 663.13 873.72 C 669.88 876.27 677.09 877.31 684.02 879.22 C 696.20 881.48 708.49 883.55 720.91 883.82 C 725.80 885.28 731.01 884.10 736.04 884.55 C 742.34 885.16 748.65 884.30 754.97 884.51 C 757.35 884.46 759.85 884.84 762.11 883.82 C 773.82 883.31 785.63 881.94 796.95 878.85 C 807.36 876.91 817.38 873.27 827.14 869.20 C 838.78 863.68 850.12 857.29 859.84 848.74 C 869.12 840.12 878.19 830.51 883.01 818.61 C 896.55 818.43 910.09 818.61 923.63 818.52 C 923.75 876.24 923.65 933.96 923.68 991.68 C 866.46 991.67 809.23 991.68 752.00 991.68 C 725.99 991.47 699.97 992.11 673.97 991.30 C 662.66 990.41 651.36 989.33 640.07 988.14 C 638.45 987.41 636.66 987.40 634.94 987.23 C 625.35 985.41 615.62 984.20 606.13 981.87 C 600.43 980.52 594.64 979.55 589.06 977.76 C 588.02 977.54 586.99 977.35 585.97 977.17 C 576.64 974.10 567.06 971.75 557.88 968.28 C 545.67 964.08 533.54 959.46 521.94 953.78 C 521.44 953.65 520.45 953.40 519.95 953.28 C 516.71 951.40 513.30 949.85 509.98 948.16 C 473.31 930.12 439.55 906.22 410.15 877.88 C 403.12 871.83 397.30 864.58 390.83 857.98 C 366.06 830.36 344.74 799.49 328.89 765.89 C 324.60 757.91 321.44 749.40 317.82 741.11 C 316.14 735.64 313.60 730.46 312.19 724.90 C 311.80 723.88 311.43 722.86 311.06 721.85 C 309.22 716.31 307.74 710.67 306.10 705.08 C 304.04 697.46 302.64 689.69 300.82 682.02 C 299.06 670.04 297.20 658.03 297.19 645.90 C 296.07 640.68 296.53 635.34 296.41 630.06 C 296.46 628.33 296.16 626.45 297.20 624.94 C 297.24 617.63 297.43 610.32 297.80 603.02 C 299.38 592.72 299.57 582.13 302.09 571.96 C 303.30 563.90 304.87 555.88 306.83 547.96 C 308.66 541.70 309.82 535.19 312.29 529.14 C 312.47 528.07 312.66 527.02 312.84 525.97 C 314.41 522.02 315.45 517.88 317.26 514.03 C 317.38 513.48 317.62 512.37 317.74 511.81 C 320.85 504.23 323.72 496.52 327.21 489.10 C 350.43 437.78 387.43 393.17 432.21 359.19 C 455.32 341.60 480.54 326.86 506.93 314.78 C 509.97 313.57 512.94 312.18 515.95 310.90 C 531.62 304.33 547.66 298.64 564.03 294.06 C 567.94 292.71 572.07 292.15 575.99 290.81 C 577.00 290.61 578.01 290.41 579.04 290.21 C 584.98 288.43 591.12 287.42 597.19 286.18 C 599.42 285.69 601.68 285.35 603.91 284.84 Z" />
</g>
</svg>
