<?xml version="1.0" encoding="UTF-8" ?>
<!DOCTYPE svg PUBLIC "-//W3C//DTD SVG 1.1//EN" "http://www.w3.org/Graphics/SVG/1.1/DTD/svg11.dtd">
<svg width="1276pt" height="1276pt" viewBox="0 0 1276 1276" version="1.1" xmlns="http://www.w3.org/2000/svg">
<g id="#ffffffff">
<path fill="#ffffff" opacity="1.00" d=" M 969.41 191.22 C 973.37 187.67 978.85 187.12 983.85 186.11 C 1013.92 185.99 1044.00 186.09 1074.07 186.06 C 1080.87 186.66 1088.23 188.59 1092.35 194.51 C 1095.56 197.95 1096.08 202.71 1097.04 207.10 C 1097.55 214.40 1097.40 221.86 1094.81 228.79 C 1092.58 232.95 1089.15 236.33 1085.00 238.56 C 1078.38 240.73 1071.45 241.34 1064.58 242.14 C 1063.66 255.42 1064.11 268.75 1064.00 282.05 C 1064.00 320.38 1064.00 358.70 1064.00 397.02 C 1064.16 412.97 1063.57 428.94 1064.59 444.87 C 1073.92 446.14 1085.27 445.23 1091.91 453.19 C 1095.53 456.96 1096.03 462.28 1097.08 467.15 C 1097.47 474.43 1097.48 481.88 1094.84 488.79 C 1092.73 492.60 1089.78 495.92 1085.98 498.10 C 1077.54 502.02 1068.02 500.86 1058.99 501.00 C 1033.89 500.96 1008.79 501.09 983.70 500.94 C 978.91 499.88 973.63 499.47 969.78 496.10 C 962.43 491.03 961.11 481.22 961.35 472.95 C 960.93 467.97 962.27 463.14 963.58 458.41 C 965.90 453.94 969.43 449.85 974.17 447.94 C 980.65 445.90 987.43 445.52 994.14 444.84 C 995.05 432.57 994.65 420.26 994.75 407.97 C 994.74 368.99 994.74 330.01 994.75 291.03 C 994.56 274.74 995.22 258.42 994.16 242.15 C 987.18 241.31 980.07 240.77 973.41 238.34 C 969.43 236.30 966.11 233.17 964.00 229.21 C 961.47 222.75 961.01 215.75 961.38 208.86 C 962.10 202.37 963.71 195.20 969.41 191.22 M 982.43 207.11 C 982.44 211.34 982.43 215.57 982.43 219.80 C 991.53 221.03 1001.71 220.69 1009.40 226.48 L 1009.72 226.45 C 1013.87 231.34 1014.81 237.81 1015.38 243.97 C 1015.71 249.29 1015.73 254.61 1015.80 259.94 C 1015.79 264.97 1015.78 270.00 1015.80 275.03 C 1015.79 280.00 1015.78 284.97 1015.80 289.94 C 1015.79 294.62 1015.78 299.29 1015.79 303.96 C 1015.79 308.63 1015.78 313.30 1015.80 317.96 C 1015.79 322.31 1015.78 326.66 1015.80 331.00 C 1015.79 335.34 1015.78 339.67 1015.80 344.01 C 1015.79 347.67 1015.79 351.34 1015.80 355.00 C 1015.80 359.70 1015.78 364.40 1015.80 369.10 C 1015.80 376.37 1015.78 383.63 1015.80 390.90 C 1015.80 395.25 1015.79 399.60 1015.80 403.96 C 1015.80 407.95 1015.79 411.95 1015.80 415.96 C 1015.80 420.95 1015.81 425.95 1015.77 430.95 C 1015.77 436.36 1015.55 441.77 1014.94 447.15 C 1014.20 453.02 1012.30 459.69 1006.60 462.58 C 999.12 466.26 990.53 466.12 982.43 467.07 C 982.50 471.37 982.47 475.68 982.46 480.00 C 1013.69 480.00 1044.91 480.00 1076.14 480.00 C 1076.14 475.65 1076.14 471.31 1076.14 466.97 C 1067.89 466.18 1059.10 466.29 1051.59 462.36 C 1046.03 459.26 1044.67 452.60 1043.64 446.89 L 1043.00 446.77 L 1043.30 446.15 C 1043.51 441.09 1042.93 436.04 1043.04 430.98 C 1042.98 425.99 1042.98 421.00 1042.99 416.02 C 1043.00 412.01 1042.99 408.00 1043.00 403.99 C 1042.99 399.62 1043.00 395.26 1043.00 390.89 C 1043.01 383.62 1042.97 376.34 1042.99 369.07 C 1043.01 364.40 1042.98 359.73 1042.99 355.07 C 1043.00 351.37 1043.00 347.67 1043.00 343.98 C 1043.00 339.65 1042.99 335.33 1042.99 331.01 C 1043.00 326.66 1042.99 322.32 1042.99 317.99 C 1043.01 313.32 1042.98 308.65 1042.99 303.98 C 1043.01 299.31 1042.98 294.64 1042.99 289.96 C 1043.01 284.96 1042.98 279.97 1042.99 274.97 C 1043.01 269.96 1042.99 264.96 1042.99 259.96 C 1043.04 254.61 1043.09 249.27 1043.37 243.93 C 1044.01 237.72 1044.86 231.06 1049.36 226.32 C 1057.16 220.89 1067.07 220.92 1076.14 219.81 C 1076.16 215.57 1076.15 211.33 1076.15 207.10 C 1044.91 207.09 1013.67 207.07 982.43 207.11 Z" />
<path fill="#ffffff" opacity="1.00" d=" M 557.04 303.99 C 561.95 303.23 567.00 303.30 571.98 303.13 C 583.94 301.91 596.00 302.76 608.01 302.48 C 619.68 303.28 631.40 303.55 643.02 304.99 C 645.68 305.29 648.35 305.52 651.02 305.78 C 653.94 306.46 656.97 306.39 659.88 307.15 C 665.66 307.76 671.36 308.99 677.10 309.89 C 680.27 310.87 683.63 311.18 686.83 312.13 C 690.98 312.92 695.08 313.94 699.19 314.92 C 708.52 317.27 717.83 319.80 726.93 322.94 C 727.93 323.27 728.95 323.60 729.97 323.93 C 730.96 324.29 731.96 324.67 732.97 325.06 C 733.50 325.19 734.57 325.47 735.11 325.61 C 736.12 326.03 737.13 326.46 738.16 326.90 C 739.18 327.22 740.22 327.54 741.26 327.86 C 742.86 328.57 744.47 329.29 746.13 329.89 C 753.23 332.57 760.18 335.65 767.14 338.69 C 768.76 339.41 770.35 340.23 771.95 341.03 C 773.29 341.71 774.63 342.40 776.00 343.08 C 776.51 343.35 777.54 343.89 778.05 344.15 C 788.77 349.47 799.30 355.23 809.38 361.68 C 850.77 387.60 887.11 421.51 915.89 460.94 C 921.42 468.30 926.45 476.02 931.23 483.89 C 932.18 485.57 933.15 487.25 934.16 488.91 C 937.79 495.40 941.08 502.11 944.23 508.84 C 939.01 513.47 934.88 519.09 929.86 523.90 C 905.72 549.74 881.55 575.53 857.41 601.37 C 854.35 604.96 850.59 607.91 847.83 611.77 C 828.05 632.38 808.84 653.49 789.14 674.18 C 786.37 677.78 782.93 680.78 779.81 684.06 C 777.28 687.67 773.63 690.28 770.93 693.77 C 768.28 697.16 764.69 699.70 762.18 703.22 C 756.55 709.22 750.80 715.13 745.21 721.17 C 741.68 725.63 737.24 729.25 733.64 733.66 C 732.23 734.72 731.19 737.40 729.09 736.63 C 711.49 724.30 693.82 712.08 676.14 699.86 C 665.77 692.55 655.28 685.41 644.88 678.15 C 620.66 661.32 596.41 644.53 572.18 627.72 C 570.25 626.37 568.46 624.79 566.26 623.90 C 566.32 623.54 566.44 622.83 566.49 622.47 C 573.57 614.64 582.00 608.15 588.81 600.08 C 593.94 593.39 600.72 584.61 596.39 575.85 C 594.27 572.39 590.88 570.07 587.10 568.77 C 580.26 568.60 573.95 572.06 568.06 575.17 C 554.92 582.56 543.97 593.66 536.21 606.55 C 527.67 620.22 522.53 636.10 521.25 652.16 C 519.70 660.64 520.66 669.41 520.78 678.02 C 521.78 681.61 521.32 685.44 521.89 689.12 C 523.92 703.97 526.98 718.73 532.08 732.85 C 537.27 746.74 544.25 760.01 553.15 771.88 C 561.88 782.77 571.96 792.66 583.71 800.29 C 585.16 801.14 586.62 801.97 588.05 802.88 C 595.64 807.01 603.48 810.80 611.82 813.16 C 612.85 813.45 613.89 813.75 614.94 814.08 C 616.25 814.37 617.59 814.67 618.88 815.10 C 620.55 815.43 622.23 815.72 623.88 816.20 C 626.22 816.53 628.63 816.47 630.92 817.18 C 637.64 817.74 644.38 817.86 651.10 817.18 C 653.06 816.61 655.11 816.50 657.13 816.20 C 658.74 815.70 660.42 815.43 662.10 815.14 C 663.10 814.79 664.12 814.45 665.15 814.14 C 666.15 813.81 667.17 813.50 668.19 813.19 C 669.45 812.68 670.68 812.11 671.97 811.65 C 677.37 809.54 682.20 806.26 686.86 802.85 C 695.57 795.52 702.62 786.03 706.12 775.12 C 706.31 774.57 706.69 773.45 706.88 772.89 C 707.24 771.88 707.60 770.88 707.97 769.89 C 708.28 768.85 708.60 767.81 708.91 766.79 C 709.48 765.30 710.09 763.84 710.71 762.38 C 774.41 762.44 838.10 762.36 901.80 762.42 C 901.65 872.13 901.84 981.83 901.70 1091.54 C 805.46 1091.45 709.22 1091.52 612.98 1091.50 C 604.41 1090.53 595.74 1091.00 587.17 1089.99 C 577.15 1089.28 567.12 1088.43 557.21 1086.84 C 555.12 1086.65 553.04 1086.46 550.98 1086.15 C 548.66 1085.43 546.23 1085.44 543.85 1085.18 C 541.97 1084.49 539.94 1084.43 538.06 1083.84 C 536.07 1083.55 534.06 1083.37 532.12 1082.86 C 530.45 1082.56 528.73 1082.49 527.17 1081.81 C 525.77 1081.58 524.37 1081.38 522.98 1081.18 C 521.34 1080.57 519.58 1080.39 517.87 1080.15 C 503.52 1076.80 489.15 1073.45 475.12 1068.88 C 474.10 1068.60 473.08 1068.31 472.08 1068.01 C 471.07 1067.65 470.06 1067.29 469.06 1066.96 C 468.03 1066.60 467.01 1066.23 466.01 1065.86 C 465.47 1065.70 464.38 1065.39 463.83 1065.23 C 462.81 1064.84 461.79 1064.48 460.76 1064.16 C 448.42 1059.67 436.04 1055.23 424.12 1049.71 C 423.61 1049.46 422.60 1048.98 422.10 1048.73 C 419.28 1047.73 416.73 1046.14 413.93 1045.11 C 407.69 1041.98 401.44 1038.88 395.21 1035.75 C 374.40 1024.45 354.27 1011.86 335.43 997.50 C 305.76 974.81 279.00 948.20 256.70 918.20 C 254.99 915.93 253.33 913.63 251.68 911.33 C 250.84 910.13 249.98 908.96 249.19 907.75 C 237.00 890.09 226.25 871.40 217.30 851.91 C 216.20 849.29 215.05 846.71 213.80 844.18 C 213.17 842.44 212.44 840.75 211.69 839.08 C 210.52 835.98 209.26 832.92 208.06 829.84 C 204.17 819.77 201.07 809.43 197.93 799.11 C 197.61 797.74 197.32 796.42 196.97 795.08 C 196.62 793.70 196.33 792.33 195.80 791.03 C 195.58 789.97 195.34 788.93 195.10 787.89 C 194.63 786.59 194.41 785.22 194.18 783.88 C 193.67 781.98 193.38 780.04 192.81 778.17 C 191.90 773.41 190.80 768.68 190.10 763.88 C 189.53 761.59 189.31 759.25 189.02 756.93 C 185.13 732.16 184.41 707.01 185.49 682.01 C 186.48 664.31 187.88 646.56 191.18 629.12 C 191.38 627.37 191.60 625.64 191.85 623.92 C 192.36 622.25 192.57 620.53 192.82 618.83 C 193.48 617.24 193.58 615.51 193.81 613.85 C 194.25 612.27 194.67 610.70 195.12 609.14 C 195.40 607.46 195.71 605.78 196.18 604.16 C 196.37 603.08 196.57 602.02 196.79 600.96 C 200.55 586.14 204.80 571.43 210.02 557.06 C 210.39 556.03 210.76 555.01 211.14 554.00 C 211.72 552.62 212.21 551.20 212.71 549.80 C 213.24 548.57 213.77 547.34 214.27 546.10 C 214.78 544.65 215.36 543.24 215.92 541.82 C 219.40 533.46 223.27 525.28 227.03 517.05 C 235.75 500.46 244.93 484.05 255.85 468.79 C 265.18 455.11 275.83 442.39 286.80 430.01 C 298.74 417.67 310.86 405.49 324.18 394.63 C 347.42 375.50 372.92 359.19 399.86 345.79 C 400.98 345.28 402.10 344.77 403.24 344.30 C 406.20 342.94 409.04 341.31 412.09 340.14 C 418.58 337.12 425.26 334.54 431.88 331.83 C 433.55 331.25 435.20 330.60 436.85 329.97 C 437.85 329.59 438.85 329.22 439.86 328.86 C 442.54 327.84 445.23 326.86 447.97 325.98 C 448.97 325.63 449.98 325.29 451.00 324.95 C 451.98 324.61 452.96 324.28 453.95 323.94 C 468.78 319.19 483.88 315.29 499.13 312.12 C 502.74 311.22 506.39 310.46 510.11 310.14 C 511.67 309.43 513.41 309.34 515.06 308.94 C 519.64 308.11 524.29 307.69 528.84 306.77 C 534.23 306.23 539.60 305.42 545.01 305.01 C 548.98 304.33 553.03 304.35 557.04 303.99 M 535.03 329.11 C 513.38 331.69 491.93 336.06 470.98 342.08 C 425.30 355.41 381.86 376.98 344.63 406.73 C 295.44 445.63 257.30 498.17 234.75 556.65 C 221.69 589.34 213.97 624.02 209.80 658.90 C 209.42 666.59 208.25 674.24 208.26 681.96 C 208.40 686.31 207.30 690.60 207.59 694.97 C 207.86 702.97 207.06 711.03 208.16 718.99 C 208.30 729.41 209.60 739.77 210.87 750.10 C 211.33 752.41 211.59 754.77 211.90 757.12 C 213.05 762.04 213.75 767.06 214.83 772.00 C 215.27 773.63 215.63 775.29 215.94 776.96 C 223.34 809.21 235.58 840.33 252.21 868.93 C 280.41 918.03 320.70 959.67 367.39 991.47 C 406.64 1018.18 450.39 1038.16 496.11 1050.91 C 516.71 1056.82 537.81 1061.10 559.05 1063.84 C 567.27 1065.57 575.78 1065.46 583.98 1067.10 C 588.92 1067.67 594.03 1066.93 598.86 1068.19 C 631.91 1069.04 665.00 1068.41 698.07 1068.60 C 758.59 1068.60 819.11 1068.60 879.63 1068.60 C 879.57 973.96 879.62 879.33 879.60 784.69 C 828.68 784.71 777.75 784.69 726.82 784.70 C 717.75 808.72 697.26 827.95 672.81 835.71 C 662.88 839.03 652.40 839.95 642.02 840.55 C 624.97 840.10 607.74 837.42 592.05 830.47 C 577.16 824.35 563.50 815.35 551.84 804.25 C 547.55 801.21 544.71 796.74 541.08 793.04 C 517.24 765.45 504.35 729.87 499.82 694.03 C 498.70 686.07 497.82 677.99 498.10 669.98 C 497.55 667.02 496.94 663.88 498.24 661.01 C 497.81 659.71 497.65 658.38 497.75 657.03 C 498.47 649.65 499.39 642.28 500.84 635.01 C 505.38 614.33 514.61 594.61 528.62 578.64 C 540.88 564.49 556.71 552.90 574.94 547.91 C 584.31 545.66 594.97 545.22 603.43 550.57 C 613.51 557.24 621.49 568.53 620.93 581.04 C 620.40 596.20 611.42 609.46 601.43 620.24 C 643.21 649.39 685.17 678.30 726.96 707.43 C 758.33 673.98 789.67 640.50 820.97 606.98 C 825.24 603.22 828.40 598.44 832.58 594.61 C 853.60 572.26 874.45 549.77 895.49 527.44 C 902.46 519.53 910.26 512.37 916.82 504.10 C 911.28 494.81 905.56 485.62 899.23 476.84 C 855.60 416.71 793.49 369.94 723.09 345.91 C 719.02 344.71 715.11 343.02 710.98 342.03 C 691.44 335.90 671.28 331.79 650.99 329.07 C 648.02 328.43 644.99 328.37 641.98 328.11 C 638.75 327.03 635.26 327.50 631.93 327.07 C 628.71 326.05 625.24 327.00 622.07 325.86 C 593.02 324.80 563.83 324.97 535.03 329.11 Z" />
</g>
<g id="#61caedff">
<path fill="#61caed" opacity="1.00" d=" M 982.43 207.11 C 1013.67 207.07 1044.91 207.09 1076.15 207.10 C 1076.15 211.33 1076.16 215.57 1076.14 219.81 C 1067.07 220.92 1057.16 220.89 1049.36 226.32 C 1036.16 225.93 1022.90 225.52 1009.72 226.45 L 1009.40 226.48 C 1001.71 220.69 991.53 221.03 982.43 219.80 C 982.43 215.57 982.44 211.34 982.43 207.11 Z" />
</g>
<g id="#5ec3e8ff">
<path fill="#5ec3e8" opacity="1.00" d=" M 1009.72 226.45 C 1022.90 225.52 1036.16 225.93 1049.36 226.32 C 1044.86 231.06 1044.01 237.72 1043.37 243.93 C 1034.04 243.97 1024.71 243.90 1015.38 243.97 C 1014.81 237.81 1013.87 231.34 1009.72 226.45 Z" />
</g>
<g id="#5abbe3ff">
<path fill="#5abbe3" opacity="1.00" d=" M 1015.38 243.97 C 1024.71 243.90 1034.04 243.97 1043.37 243.93 C 1043.09 249.27 1043.04 254.61 1042.99 259.96 C 1033.92 260.11 1024.86 259.99 1015.80 259.94 C 1015.73 254.61 1015.71 249.29 1015.38 243.97 Z" />
</g>
<g id="#56b3ddff">
<path fill="#56b3dd" opacity="1.00" d=" M 1015.80 259.94 C 1024.86 259.99 1033.92 260.11 1042.99 259.96 C 1042.99 264.96 1043.01 269.96 1042.99 274.97 C 1033.92 274.89 1024.86 275.14 1015.80 275.03 C 1015.78 270.00 1015.79 264.97 1015.80 259.94 Z" />
</g>
<g id="#52aad8ff">
<path fill="#52aad8" opacity="1.00" d=" M 1015.80 275.03 C 1024.86 275.14 1033.92 274.89 1042.99 274.97 C 1042.98 279.97 1043.01 284.96 1042.99 289.96 C 1033.92 290.03 1024.86 290.06 1015.80 289.94 C 1015.78 284.97 1015.79 280.00 1015.80 275.03 Z" />
</g>
<g id="#4ea1d2ff">
<path fill="#4ea1d2" opacity="1.00" d=" M 1015.80 289.94 C 1024.86 290.06 1033.92 290.03 1042.99 289.96 C 1042.98 294.64 1043.01 299.31 1042.99 303.98 C 1033.92 303.84 1024.86 304.15 1015.79 303.96 C 1015.78 299.29 1015.79 294.62 1015.80 289.94 Z" />
</g>
<g id="#4a98ccff">
<path fill="#4a98cc" opacity="1.00" d=" M 1015.79 303.96 C 1024.86 304.15 1033.92 303.84 1042.99 303.98 C 1042.98 308.65 1043.01 313.32 1042.99 317.99 C 1033.93 317.88 1024.86 318.08 1015.80 317.96 C 1015.78 313.30 1015.79 308.63 1015.79 303.96 Z" />
</g>
<g id="#468fc5ff">
<path fill="#468fc5" opacity="1.00" d=" M 1015.80 317.96 C 1024.86 318.08 1033.93 317.88 1042.99 317.99 C 1042.99 322.32 1043.00 326.66 1042.99 331.01 C 1033.93 330.93 1024.86 331.13 1015.80 331.00 C 1015.78 326.66 1015.79 322.31 1015.80 317.96 Z" />
</g>
<g id="#034ea2ff">
<path fill="#034ea2" opacity="1.00" d=" M 535.03 329.11 C 563.83 324.97 593.02 324.80 622.07 325.86 C 625.24 327.00 628.71 326.05 631.93 327.07 C 635.26 327.50 638.75 327.03 641.98 328.11 C 644.99 328.37 648.02 328.43 650.99 329.07 C 671.28 331.79 691.44 335.90 710.98 342.03 C 715.11 343.02 719.02 344.71 723.09 345.91 C 793.49 369.94 855.60 416.71 899.23 476.84 C 905.56 485.62 911.28 494.81 916.82 504.10 C 910.26 512.37 902.46 519.53 895.49 527.44 C 874.45 549.77 853.60 572.26 832.58 594.61 C 828.40 598.44 825.24 603.22 820.97 606.98 C 789.67 640.50 758.33 673.98 726.96 707.43 C 685.17 678.30 643.21 649.39 601.43 620.24 C 611.42 609.46 620.40 596.20 620.93 581.04 C 621.49 568.53 613.51 557.24 603.43 550.57 C 594.97 545.22 584.31 545.66 574.94 547.91 C 556.71 552.90 540.88 564.49 528.62 578.64 C 514.61 594.61 505.38 614.33 500.84 635.01 C 499.39 642.28 498.47 649.65 497.75 657.03 C 497.65 658.38 497.81 659.71 498.24 661.01 C 496.94 663.88 497.55 667.02 498.10 669.98 C 497.82 677.99 498.70 686.07 499.82 694.03 C 504.35 729.87 517.24 765.45 541.08 793.04 C 544.71 796.74 547.55 801.21 551.84 804.25 C 563.50 815.35 577.16 824.35 592.05 830.47 C 607.74 837.42 624.97 840.10 642.02 840.55 C 652.40 839.95 662.88 839.03 672.81 835.71 C 697.26 827.95 717.75 808.72 726.82 784.70 C 777.75 784.69 828.68 784.71 879.60 784.69 C 879.62 879.33 879.57 973.96 879.63 1068.60 C 819.11 1068.60 758.59 1068.60 698.07 1068.60 C 665.00 1068.41 631.91 1069.04 598.86 1068.19 C 594.03 1066.93 588.92 1067.67 583.98 1067.10 C 575.78 1065.46 567.27 1065.57 559.05 1063.84 C 537.81 1061.10 516.71 1056.82 496.11 1050.91 C 450.39 1038.16 406.64 1018.18 367.39 991.47 C 320.70 959.67 280.41 918.03 252.21 868.93 C 235.58 840.33 223.34 809.21 215.94 776.96 C 215.63 775.29 215.27 773.63 214.83 772.00 C 213.75 767.06 213.05 762.04 211.90 757.12 C 211.59 754.77 211.33 752.41 210.87 750.10 C 209.60 739.77 208.30 729.41 208.16 718.99 C 207.06 711.03 207.86 702.97 207.59 694.97 C 207.30 690.60 208.40 686.31 208.26 681.96 C 208.25 674.24 209.42 666.59 209.80 658.90 C 213.97 624.02 221.69 589.34 234.75 556.65 C 257.30 498.17 295.44 445.63 344.63 406.73 C 381.86 376.98 425.30 355.41 470.98 342.08 C 491.93 336.06 513.38 331.69 535.03 329.11 M 557.03 396.08 C 533.95 398.37 511.08 403.06 488.99 410.14 C 460.48 419.11 433.11 431.78 407.99 448.00 C 359.09 479.20 318.76 524.54 296.09 578.15 C 281.34 612.46 273.70 649.78 273.19 687.09 C 272.07 692.52 272.51 698.25 273.08 703.75 C 274.16 735.75 282.52 767.25 295.40 796.47 C 309.93 829.73 330.29 860.37 354.91 887.01 C 359.66 891.99 364.02 897.38 369.39 901.74 C 408.45 939.54 456.94 967.33 509.01 982.78 C 536.61 991.11 565.28 995.68 594.02 997.42 C 604.33 997.99 614.67 997.61 624.99 997.72 C 684.76 997.66 744.54 997.85 804.32 997.62 C 804.28 948.89 804.27 900.16 804.32 851.43 C 792.80 851.18 781.28 851.38 769.76 851.32 C 759.38 872.43 739.35 887.23 717.86 895.76 C 695.78 904.72 671.68 907.20 648.07 907.41 C 642.73 906.56 637.32 907.17 631.97 906.63 C 615.07 905.60 598.28 902.60 582.09 897.60 C 554.93 889.59 529.69 875.31 508.66 856.36 C 483.58 834.01 464.89 805.22 451.60 774.54 C 437.85 742.12 429.92 707.20 428.79 671.99 C 428.39 640.32 433.87 608.39 446.15 579.11 C 459.33 546.43 481.81 516.66 512.46 498.62 C 530.70 487.72 551.65 481.66 572.79 480.12 C 580.46 479.00 588.27 479.77 596.00 479.58 C 601.28 480.49 606.68 480.16 611.95 481.10 C 624.97 482.68 637.88 485.78 649.88 491.16 C 661.47 496.76 672.65 504.09 680.50 514.47 C 690.25 526.58 696.01 541.65 697.49 557.08 C 698.48 564.69 698.53 572.56 696.25 579.94 C 694.55 585.61 691.56 590.75 688.52 595.78 C 688.51 597.24 688.52 598.71 688.53 600.18 C 694.51 604.96 700.31 609.96 706.27 614.76 C 710.20 618.09 715.98 619.54 720.84 617.47 C 725.83 615.70 728.99 611.18 732.51 607.50 C 749.52 589.50 766.49 571.47 783.45 553.42 C 786.72 550.00 790.28 546.85 793.12 543.04 C 803.64 532.23 813.95 521.22 824.19 510.15 C 824.91 509.24 826.12 508.45 825.98 507.13 C 823.81 503.70 820.77 500.95 818.15 497.88 C 809.13 488.25 799.63 479.07 789.55 470.57 C 759.41 445.17 725.12 424.39 687.91 411.17 C 667.01 403.44 645.09 398.47 622.95 396.08 C 608.72 394.26 594.30 393.92 579.96 394.50 C 576.67 394.59 573.30 394.11 570.10 395.09 C 565.75 395.44 561.33 395.20 557.03 396.08 Z" />
</g>
<g id="#4286c0ff">
<path fill="#4286c0" opacity="1.00" d=" M 1015.80 331.00 C 1024.86 331.13 1033.93 330.93 1042.99 331.01 C 1042.99 335.33 1043.00 339.65 1043.00 343.98 C 1033.93 343.92 1024.86 343.95 1015.80 344.01 C 1015.78 339.67 1015.79 335.34 1015.80 331.00 Z" />
</g>
<g id="#3e7ebaff">
<path fill="#3e7eba" opacity="1.00" d=" M 1015.80 344.01 C 1024.86 343.95 1033.93 343.92 1043.00 343.98 C 1043.00 347.67 1043.00 351.37 1042.99 355.07 C 1033.93 354.95 1024.86 355.07 1015.80 355.00 C 1015.79 351.34 1015.79 347.67 1015.80 344.01 Z" />
</g>
<g id="#3a75b4ff">
<path fill="#3a75b4" opacity="1.00" d=" M 1015.80 355.00 C 1024.86 355.07 1033.93 354.95 1042.99 355.07 C 1042.98 359.73 1043.01 364.40 1042.99 369.07 C 1033.92 369.14 1024.86 369.16 1015.80 369.10 C 1015.78 364.40 1015.80 359.70 1015.80 355.00 Z" />
</g>
<g id="#3469acff">
<path fill="#3469ac" opacity="1.00" d=" M 1015.80 369.10 C 1024.86 369.16 1033.92 369.14 1042.99 369.07 C 1042.97 376.34 1043.01 383.62 1043.00 390.89 C 1033.93 390.87 1024.86 390.86 1015.80 390.90 C 1015.78 383.63 1015.80 376.37 1015.80 369.10 Z" />
</g>
<g id="#2f5ea5ff">
<path fill="#2f5ea5" opacity="1.00" d=" M 1015.80 390.90 C 1024.86 390.86 1033.93 390.87 1043.00 390.89 C 1043.00 395.26 1042.99 399.62 1043.00 403.99 C 1033.93 403.93 1024.87 404.12 1015.80 403.96 C 1015.79 399.60 1015.80 395.25 1015.80 390.90 Z" />
</g>
<g id="#ffcb04ff">
<path fill="#ffcb04" opacity="1.00" d=" M 557.03 396.08 C 561.33 395.20 565.75 395.44 570.10 395.09 C 573.30 394.11 576.67 394.59 579.96 394.50 C 594.30 393.92 608.72 394.26 622.95 396.08 C 645.09 398.47 667.01 403.44 687.91 411.17 C 725.12 424.39 759.41 445.17 789.55 470.57 C 799.63 479.07 809.13 488.25 818.15 497.88 C 820.77 500.95 823.81 503.70 825.98 507.13 C 826.12 508.45 824.91 509.24 824.19 510.15 C 813.95 521.22 803.64 532.23 793.12 543.04 C 790.28 546.85 786.72 550.00 783.45 553.42 C 766.49 571.47 749.52 589.50 732.51 607.50 C 728.99 611.18 725.83 615.70 720.84 617.47 C 715.98 619.54 710.20 618.09 706.27 614.76 C 700.31 609.96 694.51 604.96 688.53 600.18 C 688.52 598.71 688.51 597.24 688.52 595.78 C 691.56 590.75 694.55 585.61 696.25 579.94 C 698.53 572.56 698.48 564.69 697.49 557.08 C 696.01 541.65 690.25 526.58 680.50 514.47 C 672.65 504.09 661.47 496.76 649.88 491.16 C 637.88 485.78 624.97 482.68 611.95 481.10 C 606.68 480.16 601.28 480.49 596.00 479.58 C 588.27 479.77 580.46 479.00 572.79 480.12 C 551.65 481.66 530.70 487.72 512.46 498.62 C 481.81 516.66 459.33 546.43 446.15 579.11 C 433.87 608.39 428.39 640.32 428.79 671.99 C 429.92 707.20 437.85 742.12 451.60 774.54 C 464.89 805.22 483.58 834.01 508.66 856.36 C 529.69 875.31 554.93 889.59 582.09 897.60 C 598.28 902.60 615.07 905.60 631.97 906.63 C 637.32 907.17 642.73 906.56 648.07 907.41 C 671.68 907.20 695.78 904.72 717.86 895.76 C 739.35 887.23 759.38 872.43 769.76 851.32 C 781.28 851.38 792.80 851.18 804.32 851.43 C 804.27 900.16 804.28 948.89 804.32 997.62 C 744.54 997.85 684.76 997.66 624.99 997.72 C 614.67 997.61 604.33 997.99 594.02 997.42 C 565.28 995.68 536.61 991.11 509.01 982.78 C 456.94 967.33 408.45 939.54 369.39 901.74 C 364.02 897.38 359.66 891.99 354.91 887.01 C 330.29 860.37 309.93 829.73 295.40 796.47 C 282.52 767.25 274.16 735.75 273.08 703.75 C 272.51 698.25 272.07 692.52 273.19 687.09 C 273.70 649.78 281.34 612.46 296.09 578.15 C 318.76 524.54 359.09 479.20 407.99 448.00 C 433.11 431.78 460.48 419.11 488.99 410.14 C 511.08 403.06 533.95 398.37 557.03 396.08 Z" />
</g>
<g id="#2b56a0ff">
<path fill="#2b56a0" opacity="1.00" d=" M 1015.80 403.96 C 1024.87 404.12 1033.93 403.93 1043.00 403.99 C 1042.99 408.00 1043.00 412.01 1042.99 416.02 C 1033.93 416.07 1024.86 416.09 1015.80 415.96 C 1015.79 411.95 1015.80 407.95 1015.80 403.96 Z" />
</g>
<g id="#274e9aff">
<path fill="#274e9a" opacity="1.00" d=" M 1015.80 415.96 C 1024.86 416.09 1033.93 416.07 1042.99 416.02 C 1042.98 421.00 1042.98 425.99 1043.04 430.98 C 1033.95 431.07 1024.85 431.00 1015.77 430.95 C 1015.81 425.95 1015.80 420.95 1015.80 415.96 Z" />
</g>
<g id="#244695ff">
<path fill="#244695" opacity="1.00" d=" M 1015.77 430.95 C 1024.85 431.00 1033.95 431.07 1043.04 430.98 C 1042.93 436.04 1043.51 441.09 1043.30 446.15 L 1043.00 446.77 C 1033.67 447.65 1024.29 447.01 1014.94 447.15 C 1015.55 441.77 1015.77 436.36 1015.77 430.95 Z" />
</g>
<g id="#1e398cff">
<path fill="#1e398c" opacity="1.00" d=" M 1014.94 447.15 C 1024.29 447.01 1033.67 447.65 1043.00 446.77 L 1043.64 446.89 C 1044.67 452.60 1046.03 459.26 1051.59 462.36 C 1059.10 466.29 1067.89 466.18 1076.14 466.97 C 1076.14 471.31 1076.14 475.65 1076.14 480.00 C 1044.91 480.00 1013.69 480.00 982.46 480.00 C 982.47 475.68 982.50 471.37 982.43 467.07 C 990.53 466.12 999.12 466.26 1006.60 462.58 C 1012.30 459.69 1014.20 453.02 1014.94 447.15 Z" />
</g>
</svg>
