<?xml version="1.0" encoding="UTF-8" ?>
<!DOCTYPE svg PUBLIC "-//W3C//DTD SVG 1.1//EN" "http://www.w3.org/Graphics/SVG/1.1/DTD/svg11.dtd">
<svg width="1276pt" height="1276pt" viewBox="0 0 1276 1276" version="1.1" xmlns="http://www.w3.org/2000/svg">
<g id="#ffffffff">
<path fill="#ffffff" opacity="1.00" d=" M 783.87 194.88 C 788.02 188.63 795.85 186.80 802.86 186.06 C 893.27 186.04 983.69 186.06 1074.10 186.06 C 1080.91 186.66 1088.28 188.61 1092.39 194.55 C 1095.56 197.96 1096.07 202.68 1097.03 207.04 C 1097.55 214.35 1097.41 221.84 1094.81 228.79 C 1092.59 232.93 1089.17 236.30 1085.05 238.53 C 1078.43 240.74 1071.47 241.33 1064.58 242.14 C 1063.58 257.39 1064.16 272.68 1064.00 287.95 C 1064.00 326.63 1064.00 365.32 1064.00 404.00 C 1064.11 417.62 1063.66 431.27 1064.59 444.87 C 1073.92 446.13 1085.28 445.25 1091.92 453.21 C 1095.53 456.98 1096.02 462.31 1097.08 467.17 C 1097.46 474.44 1097.48 481.89 1094.83 488.79 C 1092.05 493.74 1087.68 498.43 1081.89 499.52 C 1079.31 500.05 1076.77 500.93 1074.13 501.00 C 1029.56 501.02 984.98 500.97 940.40 501.02 C 941.51 503.72 943.45 506.03 944.20 508.88 C 938.99 513.48 934.89 519.09 929.88 523.87 C 882.87 574.14 835.88 624.41 788.79 674.60 C 786.12 678.05 782.80 680.91 779.79 684.04 C 777.32 687.74 773.55 690.29 770.88 693.83 C 768.28 697.22 764.64 699.68 762.22 703.20 C 756.54 709.18 750.82 715.12 745.22 721.16 C 742.25 725.14 738.22 728.15 735.14 732.03 C 733.20 733.49 731.86 737.16 729.09 736.62 C 701.08 717.07 672.97 697.63 644.89 678.17 C 619.15 660.25 593.34 642.41 567.59 624.54 L 566.26 623.97 C 566.32 623.60 566.42 622.85 566.48 622.48 C 573.54 614.65 582.01 608.18 588.77 600.09 C 593.91 593.43 600.75 584.60 596.37 575.88 C 594.31 572.37 590.87 570.06 587.07 568.78 C 580.24 568.60 573.89 572.05 568.03 575.21 C 566.56 576.02 565.08 576.82 563.64 577.67 C 552.65 585.28 542.99 594.98 536.25 606.56 C 527.65 620.19 522.52 636.11 521.27 652.17 C 519.65 660.63 520.70 669.43 520.77 678.04 C 521.83 681.59 521.30 685.44 521.87 689.11 C 523.95 703.96 526.95 718.75 532.11 732.87 C 541.88 759.89 559.47 784.47 583.69 800.28 C 585.14 801.13 586.60 801.98 588.06 802.85 C 592.86 805.51 597.79 807.99 602.89 810.06 C 605.81 811.27 608.81 812.29 611.86 813.17 C 612.88 813.44 613.91 813.76 614.93 814.13 C 616.25 814.38 617.64 814.51 618.85 815.18 C 620.53 815.44 622.25 815.56 623.85 816.23 C 626.19 816.60 628.65 816.33 630.90 817.21 C 637.64 817.71 644.38 817.84 651.12 817.22 C 653.04 816.45 655.14 816.54 657.17 816.25 C 658.72 815.52 660.44 815.44 662.11 815.19 C 663.09 814.77 664.09 814.43 665.13 814.15 C 666.13 813.82 667.15 813.50 668.17 813.20 C 669.42 812.65 670.68 812.14 671.95 811.64 C 677.38 809.57 682.21 806.26 686.86 802.82 C 695.55 795.51 702.71 786.05 706.05 775.11 C 706.45 774.07 706.87 773.04 707.31 772.03 C 707.44 771.49 707.71 770.42 707.85 769.88 C 708.21 768.85 708.56 767.83 708.89 766.80 C 709.47 765.31 710.08 763.84 710.72 762.37 C 774.41 762.45 838.11 762.35 901.80 762.42 C 901.65 872.13 901.84 981.83 901.71 1091.54 C 807.14 1091.46 712.58 1091.52 618.02 1091.51 C 597.72 1090.81 577.31 1089.92 557.21 1086.82 C 555.12 1086.63 553.04 1086.46 550.96 1086.18 C 548.67 1085.31 546.20 1085.46 543.81 1085.24 C 542.06 1084.17 539.87 1084.77 538.11 1083.79 C 536.10 1083.53 534.04 1083.51 532.13 1082.80 C 530.47 1082.48 528.67 1082.69 527.20 1081.77 C 525.79 1081.56 524.37 1081.39 522.97 1081.22 C 521.38 1080.45 519.58 1080.40 517.89 1080.18 C 504.58 1077.03 491.23 1073.95 478.18 1069.84 C 476.12 1069.27 474.10 1068.60 472.08 1067.95 C 471.05 1067.62 470.04 1067.26 469.05 1066.85 C 468.51 1066.72 467.43 1066.44 466.89 1066.30 C 465.88 1065.89 464.86 1065.52 463.84 1065.17 C 462.82 1064.81 461.80 1064.48 460.78 1064.17 C 450.40 1060.42 440.05 1056.59 429.86 1052.34 C 427.60 1051.18 425.26 1050.19 422.94 1049.18 C 419.89 1047.94 417.03 1046.24 413.92 1045.15 C 404.89 1040.54 395.73 1036.18 386.91 1031.18 C 362.48 1017.38 339.13 1001.56 317.83 983.28 C 295.20 963.89 274.47 942.18 256.70 918.21 C 255.00 915.94 253.32 913.65 251.70 911.33 C 250.82 910.14 249.95 908.96 249.19 907.72 C 242.71 898.44 236.69 888.81 231.21 878.92 C 226.01 870.21 221.62 861.06 217.29 851.91 C 216.19 849.28 215.08 846.67 213.76 844.17 C 213.19 842.41 212.47 840.72 211.66 839.08 C 210.60 835.95 209.20 832.94 208.07 829.84 C 204.13 819.78 201.10 809.40 197.90 799.09 C 197.63 797.71 197.41 796.36 196.90 795.08 C 196.62 793.69 196.44 792.29 195.76 791.04 C 195.56 789.97 195.36 788.92 195.16 787.87 C 194.48 786.64 194.44 785.21 194.20 783.89 C 193.56 782.01 193.51 780.00 192.76 778.18 C 192.57 777.07 192.39 775.97 192.23 774.88 C 191.69 773.23 191.41 771.53 191.18 769.84 C 190.66 767.87 190.42 765.87 190.15 763.87 C 189.44 761.62 189.33 759.26 189.06 756.94 C 183.16 719.53 184.31 681.38 188.74 643.88 C 189.75 639.01 189.93 633.95 191.20 629.12 C 191.41 627.37 191.60 625.63 191.79 623.89 C 192.50 622.27 192.58 620.52 192.76 618.80 C 193.63 617.30 193.54 615.50 193.80 613.85 C 194.26 612.28 194.62 610.69 195.19 609.16 C 195.42 607.64 195.59 606.12 195.74 604.61 L 196.31 604.50 C 196.42 603.30 196.56 602.12 196.73 600.95 C 200.49 586.46 204.68 572.07 209.64 557.94 C 210.62 555.21 211.86 552.58 212.68 549.81 C 213.25 548.58 213.76 547.33 214.29 546.11 C 214.77 544.65 215.35 543.24 215.91 541.82 C 219.47 533.49 223.18 525.23 227.08 517.07 C 229.52 512.26 232.10 507.53 234.70 502.81 C 248.97 476.50 266.82 452.23 286.77 429.98 C 296.03 420.84 304.80 411.18 314.76 402.77 C 324.11 394.36 333.99 386.57 344.22 379.27 C 361.75 366.51 380.49 355.47 399.90 345.81 C 400.41 345.55 401.44 345.02 401.96 344.75 C 411.81 340.20 421.76 335.79 431.88 331.81 C 434.58 330.90 437.23 329.85 439.88 328.79 C 441.89 328.19 443.84 327.39 445.79 326.62 C 446.34 326.49 447.43 326.23 447.98 326.10 C 449.28 325.53 450.62 325.07 451.96 324.58 C 464.74 320.37 477.77 316.97 490.85 313.86 C 493.64 313.40 496.36 312.65 499.14 312.15 C 502.76 311.20 506.43 310.43 510.18 310.18 C 511.62 309.22 513.46 309.52 515.04 308.88 C 519.62 308.13 524.30 307.73 528.81 306.73 C 534.23 306.30 539.59 305.37 545.03 305.03 C 580.23 301.23 615.84 301.72 651.02 305.76 C 653.90 306.64 657.00 306.21 659.87 307.18 C 665.68 307.70 671.36 309.03 677.13 309.85 C 680.25 310.99 683.68 311.10 686.87 312.14 C 690.99 312.95 695.08 313.93 699.17 314.91 C 709.53 317.52 719.85 320.39 729.93 323.96 C 730.95 324.28 731.96 324.65 732.97 325.07 C 733.50 325.20 734.57 325.47 735.10 325.60 C 736.11 326.03 737.13 326.44 738.17 326.85 C 739.43 327.31 740.70 327.74 741.97 328.23 C 743.33 328.80 744.71 329.36 746.12 329.86 C 753.20 332.58 760.16 335.61 767.10 338.68 C 768.76 339.37 770.36 340.19 771.92 341.10 C 773.30 341.70 774.68 342.35 775.99 343.14 C 777.38 343.78 778.78 344.47 780.12 345.25 C 791.35 350.79 802.33 356.92 812.73 363.91 C 812.77 333.62 812.73 303.33 812.75 273.03 C 812.69 262.74 812.95 252.42 812.16 242.15 C 805.16 241.33 798.04 240.76 791.38 238.32 C 787.42 236.28 784.10 233.17 782.01 229.22 C 779.21 222.02 778.84 214.13 779.64 206.52 C 780.66 202.52 780.95 198.08 783.87 194.88 M 800.43 207.11 C 800.44 211.34 800.43 215.57 800.44 219.81 C 808.70 220.82 817.50 220.88 825.04 224.83 C 831.73 228.60 832.63 236.97 833.36 243.84 C 833.87 251.53 833.75 259.25 833.80 266.96 C 833.80 273.61 833.77 280.27 833.79 286.92 C 833.80 293.57 833.77 300.22 833.79 306.86 C 833.79 310.90 833.78 314.93 833.80 318.96 C 833.79 322.96 833.78 326.95 833.80 330.95 C 833.79 334.62 833.79 338.28 833.80 341.95 C 833.79 345.62 833.79 349.29 833.80 352.97 C 833.79 357.34 833.79 361.71 833.80 366.08 C 833.77 369.78 833.92 373.48 833.61 377.18 C 834.61 379.54 837.05 380.64 838.95 382.18 C 846.50 388.04 853.99 394.02 860.92 400.62 C 861.10 392.77 860.95 384.92 861.00 377.07 C 861.00 373.36 860.99 369.66 861.00 365.96 C 861.00 361.64 860.98 357.33 860.99 353.02 C 861.00 349.32 860.99 345.62 860.99 341.92 C 861.00 338.26 860.99 334.60 861.00 330.94 C 861.00 326.94 860.99 322.94 860.99 318.94 C 861.00 314.92 860.99 310.91 861.00 306.89 C 861.02 300.24 860.97 293.59 860.99 286.94 C 861.02 280.31 860.97 273.68 860.99 267.06 C 861.02 259.31 860.95 251.55 861.39 243.82 C 862.18 237.16 862.94 229.18 869.15 225.20 C 876.01 221.20 884.26 220.89 891.98 220.08 C 899.87 220.50 908.11 221.13 915.39 224.46 C 922.57 228.00 923.67 236.75 924.36 243.85 C 924.73 249.24 924.73 254.64 924.80 260.04 C 924.79 265.08 924.78 270.13 924.80 275.18 C 924.80 285.71 924.77 296.24 924.79 306.77 C 924.79 310.83 924.78 314.89 924.80 318.95 C 924.79 322.95 924.78 326.96 924.80 330.97 C 924.79 334.65 924.78 338.33 924.80 342.01 C 924.79 345.71 924.79 349.41 924.80 353.12 C 924.80 360.71 924.79 368.31 924.80 375.91 C 924.80 379.91 924.79 383.92 924.80 387.92 C 924.80 392.31 924.79 396.70 924.81 401.10 C 924.81 409.03 924.78 416.97 924.81 424.91 C 924.79 432.99 924.80 441.10 923.67 449.13 C 922.85 453.51 921.41 458.00 917.94 461.02 C 916.57 461.74 917.45 463.15 918.10 463.99 C 921.81 469.20 925.52 474.43 928.74 479.97 C 977.87 480.04 1027.01 479.98 1076.14 480.00 C 1076.14 475.65 1076.14 471.31 1076.14 466.97 C 1068.12 466.25 1059.70 466.22 1052.28 462.75 C 1046.06 459.67 1044.38 452.33 1043.65 446.05 C 1043.18 441.06 1043.05 436.05 1043.04 431.04 C 1042.99 425.99 1042.98 420.94 1042.99 415.89 C 1043.00 411.90 1042.99 407.90 1043.00 403.91 C 1043.00 399.57 1042.98 395.23 1043.00 390.90 C 1043.01 383.63 1042.97 376.36 1042.99 369.09 C 1043.02 364.36 1042.98 359.62 1042.99 354.89 C 1043.00 351.28 1042.99 347.66 1043.00 344.05 C 1043.00 339.71 1042.99 335.36 1043.00 331.02 C 1043.01 326.68 1042.98 322.35 1042.99 318.01 C 1043.01 313.32 1042.98 308.64 1042.99 303.95 C 1043.01 299.29 1042.99 294.62 1043.00 289.96 C 1043.00 284.98 1042.98 280.00 1042.99 275.02 C 1043.01 269.99 1042.99 264.96 1042.99 259.93 C 1043.04 254.54 1043.07 249.15 1043.40 243.77 C 1044.18 237.11 1044.96 229.14 1051.17 225.18 C 1058.71 220.84 1067.74 220.87 1076.14 219.81 C 1076.16 215.57 1076.15 211.33 1076.15 207.10 C 984.24 207.09 892.33 207.07 800.43 207.11 M 882.58 242.15 C 882.19 247.42 882.04 252.72 882.03 258.01 C 881.96 310.68 882.05 363.34 881.98 416.01 C 882.09 417.63 881.67 419.38 882.40 420.91 C 889.42 428.77 896.96 436.25 903.17 444.82 C 903.82 435.87 903.74 426.90 903.74 417.94 C 903.74 369.28 903.74 320.61 903.74 271.95 C 903.70 262.01 903.93 252.06 903.16 242.15 C 896.33 240.85 889.41 240.88 882.58 242.15 M 544.07 328.09 C 464.37 335.81 386.12 367.46 326.85 421.90 C 277.58 466.36 242.03 525.38 223.68 589.05 C 219.24 604.46 215.84 620.15 212.93 635.91 C 210.52 652.56 208.34 669.28 208.15 686.11 C 207.31 690.69 207.67 695.35 207.61 699.98 C 207.33 716.74 208.76 733.47 210.85 750.10 C 211.40 752.40 211.57 754.77 211.86 757.13 C 213.09 762.02 213.74 767.04 214.80 771.97 C 218.78 789.33 223.53 806.56 230.11 823.13 C 236.56 839.08 243.77 854.75 252.57 869.55 C 280.75 918.41 320.93 959.84 367.45 991.50 C 404.95 1017.00 446.54 1036.43 490.06 1049.14 C 512.59 1055.93 535.71 1060.87 559.04 1063.81 C 567.23 1065.64 575.80 1065.40 583.99 1067.11 C 588.92 1067.69 594.05 1066.89 598.86 1068.20 C 606.58 1068.20 614.29 1068.82 622.03 1068.60 C 707.89 1068.60 793.76 1068.60 879.63 1068.60 C 879.57 973.96 879.61 879.33 879.61 784.69 C 828.67 784.71 777.74 784.69 726.80 784.70 C 717.44 809.67 695.63 829.38 669.99 836.57 C 628.98 847.59 583.36 834.09 552.83 805.10 C 549.91 802.71 546.99 800.27 544.80 797.16 C 518.93 769.40 504.64 732.37 500.08 695.06 C 498.62 689.14 498.94 683.01 497.87 677.07 C 498.14 671.73 496.81 666.29 498.12 661.06 C 497.96 652.29 499.12 643.58 500.82 634.99 C 503.84 622.59 507.82 610.28 514.24 599.17 C 524.50 580.88 539.36 564.86 557.87 554.75 C 568.32 549.26 580.14 545.24 592.11 546.60 C 599.03 547.35 605.29 551.02 610.04 556.00 C 617.63 563.08 622.15 573.67 620.73 584.10 C 619.10 598.06 610.79 610.18 601.42 620.23 C 643.20 649.38 685.16 678.29 726.95 707.43 C 782.22 648.53 837.31 589.47 892.57 530.57 C 900.50 521.61 909.28 513.41 916.82 504.10 C 906.69 486.77 895.17 470.23 882.09 454.99 C 872.56 443.60 861.96 433.14 851.29 422.83 C 814.47 388.71 770.59 362.19 723.08 345.91 C 719.00 344.75 715.13 342.96 710.98 342.07 C 705.81 340.15 700.40 339.01 695.12 337.51 C 677.63 333.26 659.90 329.66 641.95 328.13 C 639.12 327.12 636.03 327.44 633.11 326.85 C 629.46 326.16 625.60 327.11 622.08 325.84 C 596.07 325.15 569.89 324.59 544.07 328.09 Z" />
<path fill="#ffffff" opacity="1.00" d=" M 958.43 226.53 C 963.56 222.12 970.66 221.62 977.07 220.62 C 984.15 219.42 991.32 220.58 998.32 221.84 C 1002.93 222.77 1007.88 224.27 1010.87 228.16 C 1014.28 232.68 1014.74 238.55 1015.34 243.99 C 1015.75 249.31 1015.74 254.66 1015.78 260.00 C 1015.80 264.99 1015.78 269.97 1015.79 274.96 C 1015.79 279.99 1015.78 285.02 1015.79 290.05 C 1015.79 294.71 1015.78 299.37 1015.79 304.04 C 1015.79 308.68 1015.79 313.32 1015.80 317.96 C 1015.79 322.29 1015.78 326.62 1015.79 330.96 C 1015.79 335.32 1015.79 339.68 1015.80 344.05 C 1015.79 347.71 1015.79 351.37 1015.80 355.04 C 1015.80 359.72 1015.79 364.40 1015.80 369.08 C 1015.81 376.36 1015.79 383.64 1015.80 390.92 C 1015.80 395.27 1015.80 399.62 1015.80 403.97 C 1015.80 408.00 1015.79 412.02 1015.80 416.05 C 1015.81 421.01 1015.81 425.98 1015.77 430.95 C 1015.73 436.02 1015.63 441.10 1015.03 446.14 C 1014.38 451.64 1013.15 457.82 1008.47 461.37 C 1003.11 465.20 996.25 465.57 989.94 466.40 C 983.36 467.30 976.74 466.41 970.24 465.44 C 965.81 464.65 961.06 463.53 957.84 460.17 C 954.90 457.20 953.78 453.00 953.11 449.01 C 951.84 441.02 952.09 432.91 952.00 424.86 C 952.02 416.93 951.96 409.01 951.99 401.09 C 952.01 396.74 951.99 392.40 952.00 388.06 C 952.00 384.00 951.99 379.95 952.00 375.90 C 952.02 368.30 951.96 360.69 951.99 353.09 C 952.00 349.38 951.99 345.67 952.00 341.97 C 952.00 338.30 951.99 334.63 952.00 330.96 C 952.00 326.96 951.99 322.97 952.00 318.97 C 952.00 314.91 951.99 310.86 952.00 306.80 C 952.03 296.25 951.95 285.70 951.98 275.15 C 952.02 270.08 951.97 265.02 952.00 259.95 C 952.05 254.56 952.03 249.17 952.44 243.79 C 953.08 237.76 953.72 230.92 958.43 226.53 M 973.58 242.15 C 972.89 251.42 973.02 260.73 973.00 270.03 C 973.00 315.03 973.00 360.02 973.00 405.02 C 973.11 418.30 972.67 431.61 973.59 444.87 C 980.41 445.94 987.31 445.91 994.14 444.85 C 994.78 436.92 994.73 428.96 994.75 421.02 C 994.74 382.02 994.75 343.02 994.75 304.03 C 994.50 283.40 995.32 262.75 994.16 242.15 C 987.33 240.90 980.41 240.86 973.58 242.15 Z" />
</g>
<g id="#61c9ecff">
<path fill="#61c9ec" opacity="1.00" d=" M 800.43 207.11 C 892.33 207.07 984.24 207.09 1076.15 207.10 C 1076.15 211.33 1076.16 215.57 1076.14 219.81 C 1067.74 220.87 1058.71 220.84 1051.17 225.18 C 1044.96 229.14 1044.18 237.11 1043.40 243.77 C 1034.04 243.82 1024.68 243.50 1015.34 243.99 C 1014.74 238.55 1014.28 232.68 1010.87 228.16 C 1007.88 224.27 1002.93 222.77 998.32 221.84 C 991.32 220.58 984.15 219.42 977.07 220.62 C 970.66 221.62 963.56 222.12 958.43 226.53 C 953.72 230.92 953.08 237.76 952.44 243.79 C 943.08 243.68 933.71 243.65 924.36 243.85 C 923.67 236.75 922.57 228.00 915.39 224.46 C 908.11 221.13 899.87 220.50 891.98 220.08 C 884.26 220.89 876.01 221.20 869.15 225.20 C 862.94 229.18 862.18 237.16 861.39 243.82 C 852.05 243.70 842.70 243.64 833.36 243.84 C 832.63 236.97 831.73 228.60 825.04 224.83 C 817.50 220.88 808.70 220.82 800.44 219.81 C 800.43 215.57 800.44 211.34 800.43 207.11 Z" />
</g>
<g id="#59b9e2ff">
<path fill="#59b9e2" opacity="1.00" d=" M 833.36 243.84 C 842.70 243.64 852.05 243.70 861.39 243.82 C 860.95 251.55 861.02 259.31 860.99 267.06 C 851.92 266.91 842.86 267.25 833.80 266.96 C 833.75 259.25 833.87 251.53 833.36 243.84 Z" />
</g>
<g id="#5abbe3ff">
<path fill="#5abbe3" opacity="1.00" d=" M 924.36 243.85 C 933.71 243.65 943.08 243.68 952.44 243.79 C 952.03 249.17 952.05 254.56 952.00 259.95 C 942.93 259.97 933.86 260.01 924.80 260.04 C 924.73 254.64 924.73 249.24 924.36 243.85 Z" />
<path fill="#5abbe3" opacity="1.00" d=" M 1015.34 243.99 C 1024.68 243.50 1034.04 243.82 1043.40 243.77 C 1043.07 249.15 1043.04 254.54 1042.99 259.93 C 1033.92 260.01 1024.85 260.13 1015.78 260.00 C 1015.74 254.66 1015.75 249.31 1015.34 243.99 Z" />
</g>
<g id="#56b3ddff">
<path fill="#56b3dd" opacity="1.00" d=" M 924.80 260.04 C 933.86 260.01 942.93 259.97 952.00 259.95 C 951.97 265.02 952.02 270.08 951.98 275.15 C 942.92 275.30 933.86 275.25 924.80 275.18 C 924.78 270.13 924.79 265.08 924.80 260.04 Z" />
<path fill="#56b3dd" opacity="1.00" d=" M 1015.78 260.00 C 1024.85 260.13 1033.92 260.01 1042.99 259.93 C 1042.99 264.96 1043.01 269.99 1042.99 275.02 C 1033.92 275.07 1024.85 275.10 1015.79 274.96 C 1015.78 269.97 1015.80 264.99 1015.78 260.00 Z" />
</g>
<g id="#54aedaff">
<path fill="#54aeda" opacity="1.00" d=" M 833.80 266.96 C 842.86 267.25 851.92 266.91 860.99 267.06 C 860.97 273.68 861.02 280.31 860.99 286.94 C 851.93 287.22 842.86 287.06 833.79 286.92 C 833.77 280.27 833.80 273.61 833.80 266.96 Z" />
</g>
<g id="#50a5d4ff">
<path fill="#50a5d4" opacity="1.00" d=" M 924.80 275.18 C 933.86 275.25 942.92 275.30 951.98 275.15 C 951.95 285.70 952.03 296.25 952.00 306.80 C 942.93 306.59 933.86 306.78 924.79 306.77 C 924.77 296.24 924.80 285.71 924.80 275.18 Z" />
</g>
<g id="#52aad8ff">
<path fill="#52aad8" opacity="1.00" d=" M 1015.79 274.96 C 1024.85 275.10 1033.92 275.07 1042.99 275.02 C 1042.98 280.00 1043.00 284.98 1043.00 289.96 C 1033.93 290.19 1024.86 289.80 1015.79 290.05 C 1015.78 285.02 1015.79 279.99 1015.79 274.96 Z" />
</g>
<g id="#4ea1d2ff">
<path fill="#4ea1d2" opacity="1.00" d=" M 833.79 286.92 C 842.86 287.06 851.93 287.22 860.99 286.94 C 860.97 293.59 861.02 300.24 861.00 306.89 C 851.93 306.89 842.86 306.89 833.79 306.86 C 833.77 300.22 833.80 293.57 833.79 286.92 Z" />
<path fill="#4ea1d2" opacity="1.00" d=" M 1015.79 290.05 C 1024.86 289.80 1033.93 290.19 1043.00 289.96 C 1042.99 294.62 1043.01 299.29 1042.99 303.95 C 1033.92 303.81 1024.86 304.16 1015.79 304.04 C 1015.78 299.37 1015.79 294.71 1015.79 290.05 Z" />
</g>
<g id="#4a98ccff">
<path fill="#4a98cc" opacity="1.00" d=" M 1015.79 304.04 C 1024.86 304.16 1033.92 303.81 1042.99 303.95 C 1042.98 308.64 1043.01 313.32 1042.99 318.01 C 1033.92 318.20 1024.86 317.82 1015.80 317.96 C 1015.79 313.32 1015.79 308.68 1015.79 304.04 Z" />
</g>
<g id="#4997cbff">
<path fill="#4997cb" opacity="1.00" d=" M 833.79 306.86 C 842.86 306.89 851.93 306.89 861.00 306.89 C 860.99 310.91 861.00 314.92 860.99 318.94 C 851.93 318.92 842.86 319.08 833.80 318.96 C 833.78 314.93 833.79 310.90 833.79 306.86 Z" />
<path fill="#4997cb" opacity="1.00" d=" M 924.79 306.77 C 933.86 306.78 942.93 306.59 952.00 306.80 C 951.99 310.86 952.00 314.91 952.00 318.97 C 942.93 318.96 933.86 318.94 924.80 318.95 C 924.78 314.89 924.79 310.83 924.79 306.77 Z" />
</g>
<g id="#468fc5ff">
<path fill="#468fc5" opacity="1.00" d=" M 1015.80 317.96 C 1024.86 317.82 1033.92 318.20 1042.99 318.01 C 1042.98 322.35 1043.01 326.68 1043.00 331.02 C 1033.93 330.77 1024.86 331.25 1015.79 330.96 C 1015.78 326.62 1015.79 322.29 1015.80 317.96 Z" />
<path fill="#468fc5" opacity="1.00" d=" M 833.80 318.96 C 842.86 319.08 851.93 318.92 860.99 318.94 C 860.99 322.94 861.00 326.94 861.00 330.94 C 851.93 330.90 842.86 331.00 833.80 330.95 C 833.78 326.95 833.79 322.96 833.80 318.96 Z" />
<path fill="#468fc5" opacity="1.00" d=" M 924.80 318.95 C 933.86 318.94 942.93 318.96 952.00 318.97 C 951.99 322.97 952.00 326.96 952.00 330.96 C 942.93 330.96 933.86 331.00 924.80 330.97 C 924.78 326.96 924.79 322.95 924.80 318.95 Z" />
</g>
<g id="#034ea2ff">
<path fill="#034ea2" opacity="1.00" d=" M 544.07 328.09 C 569.89 324.59 596.07 325.15 622.08 325.84 C 625.60 327.11 629.46 326.16 633.11 326.85 C 636.03 327.44 639.12 327.12 641.95 328.13 C 659.90 329.66 677.63 333.26 695.12 337.51 C 700.40 339.01 705.81 340.15 710.98 342.07 C 715.13 342.96 719.00 344.75 723.08 345.91 C 770.59 362.19 814.47 388.71 851.29 422.83 C 861.96 433.14 872.56 443.60 882.09 454.99 C 895.17 470.23 906.69 486.77 916.82 504.10 C 909.28 513.41 900.50 521.61 892.57 530.57 C 837.31 589.47 782.22 648.53 726.95 707.43 C 685.16 678.29 643.20 649.38 601.42 620.23 C 610.79 610.18 619.10 598.06 620.73 584.10 C 622.15 573.67 617.63 563.08 610.04 556.00 C 605.29 551.02 599.03 547.35 592.11 546.60 C 580.14 545.24 568.32 549.26 557.87 554.75 C 539.36 564.86 524.50 580.88 514.24 599.17 C 507.82 610.28 503.84 622.59 500.82 634.99 C 499.12 643.58 497.96 652.29 498.12 661.06 C 496.81 666.29 498.14 671.73 497.87 677.07 C 498.94 683.01 498.62 689.14 500.08 695.06 C 504.64 732.37 518.93 769.40 544.80 797.16 C 546.99 800.27 549.91 802.71 552.83 805.10 C 583.36 834.09 628.98 847.59 669.99 836.57 C 695.63 829.38 717.44 809.67 726.80 784.70 C 777.74 784.69 828.67 784.71 879.61 784.69 C 879.61 879.33 879.57 973.96 879.63 1068.60 C 793.76 1068.60 707.89 1068.60 622.03 1068.60 C 614.29 1068.82 606.58 1068.20 598.86 1068.20 C 594.05 1066.89 588.92 1067.69 583.99 1067.11 C 575.80 1065.40 567.23 1065.64 559.04 1063.81 C 535.71 1060.87 512.59 1055.93 490.06 1049.14 C 446.54 1036.43 404.95 1017.00 367.45 991.50 C 320.93 959.84 280.75 918.41 252.57 869.55 C 243.77 854.75 236.56 839.08 230.11 823.13 C 223.53 806.56 218.78 789.33 214.80 771.97 C 213.74 767.04 213.09 762.02 211.86 757.13 C 211.57 754.77 211.40 752.40 210.85 750.10 C 208.76 733.47 207.33 716.74 207.61 699.98 C 207.67 695.35 207.31 690.69 208.15 686.11 C 208.34 669.28 210.52 652.56 212.93 635.91 C 215.84 620.15 219.24 604.46 223.68 589.05 C 242.03 525.38 277.58 466.36 326.85 421.90 C 386.12 367.46 464.37 335.81 544.07 328.09 M 557.03 396.10 C 533.96 398.38 511.04 403.02 488.99 410.19 C 429.13 428.89 373.96 464.44 334.74 513.66 C 295.41 562.33 273.79 624.65 273.23 687.11 C 272.04 692.30 272.51 697.87 273.04 703.16 C 274.08 735.41 282.46 767.17 295.46 796.62 C 308.47 826.34 326.13 853.99 347.34 878.54 C 354.53 886.43 361.32 894.77 369.42 901.76 C 408.47 939.55 456.96 967.36 509.01 982.77 C 538.84 991.76 569.92 996.46 601.00 997.72 C 668.77 997.66 736.55 997.86 804.32 997.62 C 804.27 948.89 804.27 900.16 804.32 851.43 C 792.80 851.17 781.27 851.38 769.75 851.32 C 761.67 867.83 747.40 880.72 731.40 889.41 C 708.37 901.86 681.95 906.84 655.97 907.00 C 649.64 908.31 643.31 906.39 636.94 906.94 C 622.53 906.21 608.11 904.45 594.11 900.88 C 552.53 891.38 514.59 867.47 487.66 834.46 C 465.08 807.01 449.25 774.40 439.53 740.32 C 431.89 713.23 427.82 684.95 429.01 656.79 C 430.47 627.62 436.99 598.61 449.21 572.03 C 462.70 541.94 484.43 514.88 513.17 498.20 C 538.64 483.12 568.99 478.00 598.23 479.80 C 602.75 480.75 607.44 480.04 611.95 481.12 C 628.78 483.16 645.63 487.66 660.13 496.68 C 667.32 501.31 674.42 506.47 679.58 513.39 C 692.60 528.70 698.43 549.13 698.10 569.01 C 697.86 578.72 693.65 587.72 688.52 595.76 C 688.51 597.23 688.51 598.71 688.53 600.19 C 694.53 604.96 700.33 609.98 706.30 614.78 C 710.00 617.88 715.30 619.39 719.97 617.77 C 725.84 616.03 729.42 610.67 733.44 606.44 C 745.78 593.75 757.56 580.54 770.02 567.96 C 776.50 560.17 783.94 553.24 790.84 545.84 C 794.17 541.25 798.69 537.75 802.35 533.45 C 810.15 525.11 818.12 516.94 825.73 508.41 C 826.61 506.74 824.70 505.54 823.90 504.31 C 813.46 492.38 802.11 481.27 790.05 471.00 C 759.79 445.41 725.35 424.45 687.92 411.19 C 667.03 403.44 645.08 398.44 622.93 396.11 C 608.40 394.16 593.64 393.97 578.98 394.51 C 576.01 394.56 572.96 394.13 570.10 395.11 C 565.75 395.45 561.32 395.18 557.03 396.10 Z" />
</g>
<g id="#4287c0ff">
<path fill="#4287c0" opacity="1.00" d=" M 833.80 330.95 C 842.86 331.00 851.93 330.90 861.00 330.94 C 860.99 334.60 861.00 338.26 860.99 341.92 C 851.93 342.03 842.86 342.12 833.80 341.95 C 833.79 338.28 833.79 334.62 833.80 330.95 Z" />
<path fill="#4287c0" opacity="1.00" d=" M 924.80 330.97 C 933.86 331.00 942.93 330.96 952.00 330.96 C 951.99 334.63 952.00 338.30 952.00 341.97 C 942.93 342.12 933.86 341.87 924.80 342.01 C 924.78 338.33 924.79 334.65 924.80 330.97 Z" />
</g>
<g id="#4286c0ff">
<path fill="#4286c0" opacity="1.00" d=" M 1015.79 330.96 C 1024.86 331.25 1033.93 330.77 1043.00 331.02 C 1042.99 335.36 1043.00 339.71 1043.00 344.05 C 1033.93 343.82 1024.86 343.87 1015.80 344.05 C 1015.79 339.68 1015.79 335.32 1015.79 330.96 Z" />
</g>
<g id="#3e7fbbff">
<path fill="#3e7fbb" opacity="1.00" d=" M 833.80 341.95 C 842.86 342.12 851.93 342.03 860.99 341.92 C 860.99 345.62 861.00 349.32 860.99 353.02 C 851.93 353.09 842.86 352.90 833.80 352.97 C 833.79 349.29 833.79 345.62 833.80 341.95 Z" />
<path fill="#3e7fbb" opacity="1.00" d=" M 924.80 342.01 C 933.86 341.87 942.93 342.12 952.00 341.97 C 951.99 345.67 952.00 349.38 951.99 353.09 C 942.92 353.23 933.86 353.25 924.80 353.12 C 924.79 349.41 924.79 345.71 924.80 342.01 Z" />
</g>
<g id="#3e7ebaff">
<path fill="#3e7eba" opacity="1.00" d=" M 1015.80 344.05 C 1024.86 343.87 1033.93 343.82 1043.00 344.05 C 1042.99 347.66 1043.00 351.28 1042.99 354.89 C 1033.93 355.03 1024.86 355.13 1015.80 355.04 C 1015.79 351.37 1015.79 347.71 1015.80 344.05 Z" />
</g>
<g id="#3a77b5ff">
<path fill="#3a77b5" opacity="1.00" d=" M 833.80 352.97 C 842.86 352.90 851.93 353.09 860.99 353.02 C 860.98 357.33 861.00 361.64 861.00 365.96 C 851.93 365.99 842.86 365.87 833.80 366.08 C 833.79 361.71 833.79 357.34 833.80 352.97 Z" />
</g>
<g id="#3973b3ff">
<path fill="#3973b3" opacity="1.00" d=" M 924.80 353.12 C 933.86 353.25 942.92 353.23 951.99 353.09 C 951.96 360.69 952.02 368.30 952.00 375.90 C 942.93 375.86 933.86 375.78 924.80 375.91 C 924.79 368.31 924.80 360.71 924.80 353.12 Z" />
</g>
<g id="#3a75b4ff">
<path fill="#3a75b4" opacity="1.00" d=" M 1015.80 355.04 C 1024.86 355.13 1033.93 355.03 1042.99 354.89 C 1042.98 359.62 1043.02 364.36 1042.99 369.09 C 1033.92 369.15 1024.86 369.18 1015.80 369.08 C 1015.79 364.40 1015.80 359.72 1015.80 355.04 Z" />
</g>
<g id="#376fb0ff">
<path fill="#376fb0" opacity="1.00" d=" M 833.80 366.08 C 842.86 365.87 851.93 365.99 861.00 365.96 C 860.99 369.66 861.00 373.36 861.00 377.07 C 851.87 377.01 842.73 376.81 833.61 377.18 C 833.92 373.48 833.77 369.78 833.80 366.08 Z" />
</g>
<g id="#3469acff">
<path fill="#3469ac" opacity="1.00" d=" M 1015.80 369.08 C 1024.86 369.18 1033.92 369.15 1042.99 369.09 C 1042.97 376.36 1043.01 383.63 1043.00 390.90 C 1033.93 390.77 1024.86 390.83 1015.80 390.92 C 1015.79 383.64 1015.81 376.36 1015.80 369.08 Z" />
</g>
<g id="#3368abff">
<path fill="#3368ab" opacity="1.00" d=" M 924.80 375.91 C 933.86 375.78 942.93 375.86 952.00 375.90 C 951.99 379.95 952.00 384.00 952.00 388.06 C 942.93 387.95 933.87 388.00 924.80 387.92 C 924.79 383.92 924.80 379.91 924.80 375.91 Z" />
</g>
<g id="#3367abff">
<path fill="#3367ab" opacity="1.00" d=" M 833.61 377.18 C 842.73 376.81 851.87 377.01 861.00 377.07 C 860.95 384.92 861.10 392.77 860.92 400.62 C 853.99 394.02 846.50 388.04 838.95 382.18 C 837.05 380.64 834.61 379.54 833.61 377.18 Z" />
</g>
<g id="#3060a6ff">
<path fill="#3060a6" opacity="1.00" d=" M 924.80 387.92 C 933.87 388.00 942.93 387.95 952.00 388.06 C 951.99 392.40 952.01 396.74 951.99 401.09 C 942.93 401.18 933.86 401.22 924.81 401.10 C 924.79 396.70 924.80 392.31 924.80 387.92 Z" />
</g>
<g id="#2f5ea5ff">
<path fill="#2f5ea5" opacity="1.00" d=" M 1015.80 390.92 C 1024.86 390.83 1033.93 390.77 1043.00 390.90 C 1042.98 395.23 1043.00 399.57 1043.00 403.91 C 1033.93 403.95 1024.86 403.86 1015.80 403.97 C 1015.80 399.62 1015.80 395.27 1015.80 390.92 Z" />
</g>
<g id="#ffcb04ff">
<path fill="#ffcb04" opacity="1.00" d=" M 557.03 396.10 C 561.32 395.18 565.75 395.45 570.10 395.11 C 572.96 394.13 576.01 394.56 578.98 394.51 C 593.64 393.97 608.40 394.16 622.93 396.11 C 645.08 398.44 667.03 403.44 687.92 411.19 C 725.35 424.45 759.79 445.41 790.05 471.00 C 802.11 481.27 813.46 492.38 823.90 504.31 C 824.70 505.54 826.61 506.74 825.73 508.41 C 818.12 516.94 810.15 525.11 802.35 533.45 C 798.69 537.75 794.17 541.25 790.84 545.84 C 783.94 553.24 776.50 560.17 770.02 567.96 C 757.56 580.54 745.78 593.75 733.44 606.44 C 729.42 610.67 725.84 616.03 719.97 617.77 C 715.30 619.39 710.00 617.88 706.30 614.78 C 700.33 609.98 694.53 604.96 688.53 600.19 C 688.51 598.71 688.51 597.23 688.52 595.76 C 693.65 587.72 697.86 578.72 698.10 569.01 C 698.43 549.13 692.60 528.70 679.58 513.39 C 674.42 506.47 667.32 501.31 660.13 496.68 C 645.63 487.66 628.78 483.16 611.95 481.12 C 607.44 480.04 602.75 480.75 598.23 479.80 C 568.99 478.00 538.64 483.12 513.17 498.20 C 484.43 514.88 462.70 541.94 449.21 572.03 C 436.99 598.61 430.47 627.62 429.01 656.79 C 427.82 684.95 431.89 713.23 439.53 740.32 C 449.25 774.40 465.08 807.01 487.66 834.46 C 514.59 867.47 552.53 891.38 594.11 900.88 C 608.11 904.45 622.53 906.21 636.94 906.94 C 643.31 906.39 649.64 908.31 655.97 907.00 C 681.95 906.84 708.37 901.86 731.40 889.41 C 747.40 880.72 761.67 867.83 769.75 851.32 C 781.27 851.38 792.80 851.17 804.32 851.43 C 804.27 900.16 804.27 948.89 804.32 997.62 C 736.55 997.86 668.77 997.66 601.00 997.72 C 569.92 996.46 538.84 991.76 509.01 982.77 C 456.96 967.36 408.47 939.55 369.42 901.76 C 361.32 894.77 354.53 886.43 347.34 878.54 C 326.13 853.99 308.47 826.34 295.46 796.62 C 282.46 767.17 274.08 735.41 273.04 703.16 C 272.51 697.87 272.04 692.30 273.23 687.11 C 273.79 624.65 295.41 562.33 334.74 513.66 C 373.96 464.44 429.13 428.89 488.99 410.19 C 511.04 403.02 533.96 398.38 557.03 396.10 Z" />
</g>
<g id="#2a549eff">
<path fill="#2a549e" opacity="1.00" d=" M 924.81 401.10 C 933.86 401.22 942.93 401.18 951.99 401.09 C 951.96 409.01 952.02 416.93 952.00 424.86 C 942.94 425.33 933.87 424.75 924.81 424.91 C 924.78 416.97 924.81 409.03 924.81 401.10 Z" />
</g>
<g id="#2b56a0ff">
<path fill="#2b56a0" opacity="1.00" d=" M 1015.80 403.97 C 1024.86 403.86 1033.93 403.95 1043.00 403.91 C 1042.99 407.90 1043.00 411.90 1042.99 415.89 C 1033.93 416.12 1024.86 416.09 1015.80 416.05 C 1015.79 412.02 1015.80 408.00 1015.80 403.97 Z" />
</g>
<g id="#274e9aff">
<path fill="#274e9a" opacity="1.00" d=" M 1015.80 416.05 C 1024.86 416.09 1033.93 416.12 1042.99 415.89 C 1042.98 420.94 1042.99 425.99 1043.04 431.04 C 1033.95 430.97 1024.86 431.07 1015.77 430.95 C 1015.81 425.98 1015.81 421.01 1015.80 416.05 Z" />
</g>
<g id="#244795ff">
<path fill="#244795" opacity="1.00" d=" M 924.81 424.91 C 933.87 424.75 942.94 425.33 952.00 424.86 C 952.09 432.91 951.84 441.02 953.11 449.01 C 943.30 449.32 933.48 449.13 923.67 449.13 C 924.80 441.10 924.79 432.99 924.81 424.91 Z" />
</g>
<g id="#244695ff">
<path fill="#244695" opacity="1.00" d=" M 1015.77 430.95 C 1024.86 431.07 1033.95 430.97 1043.04 431.04 C 1043.05 436.05 1043.18 441.06 1043.65 446.05 C 1034.11 446.34 1024.57 446.26 1015.03 446.14 C 1015.63 441.10 1015.73 436.02 1015.77 430.95 Z" />
</g>
<g id="#1e3a8cff">
<path fill="#1e3a8c" opacity="1.00" d=" M 1015.03 446.14 C 1024.57 446.26 1034.11 446.34 1043.65 446.05 C 1044.38 452.33 1046.06 459.67 1052.28 462.75 C 1059.70 466.22 1068.12 466.25 1076.14 466.97 C 1076.14 471.31 1076.14 475.65 1076.14 480.00 C 1027.01 479.98 977.87 480.04 928.74 479.97 C 925.52 474.43 921.81 469.20 918.10 463.99 C 917.45 463.15 916.57 461.74 917.94 461.02 C 921.41 458.00 922.85 453.51 923.67 449.13 C 933.48 449.13 943.30 449.32 953.11 449.01 C 953.78 453.00 954.90 457.20 957.84 460.17 C 961.06 463.53 965.81 464.65 970.24 465.44 C 976.74 466.41 983.36 467.30 989.94 466.40 C 996.25 465.57 1003.11 465.20 1008.47 461.37 C 1013.15 457.82 1014.38 451.64 1015.03 446.14 Z" />
</g>
</svg>
