<?xml version="1.0" encoding="UTF-8" ?>
<!DOCTYPE svg PUBLIC "-//W3C//DTD SVG 1.1//EN" "http://www.w3.org/Graphics/SVG/1.1/DTD/svg11.dtd">
<svg width="1276pt" height="1276pt" viewBox="0 0 1276 1276" version="1.1" xmlns="http://www.w3.org/2000/svg">
<g id="#896227ff">
<path fill="#896227" opacity="1.00" d=" M 213.03 147.18 C 240.68 146.86 268.34 147.02 296.00 147.03 C 310.89 146.96 326.18 148.50 339.73 155.13 C 359.43 164.09 375.71 180.96 382.53 201.66 C 386.72 214.97 391.09 228.23 395.04 241.60 C 395.64 244.64 396.15 247.70 396.74 250.75 C 389.31 251.07 381.88 250.98 374.46 250.62 C 369.93 236.42 365.67 222.13 360.83 208.03 C 356.65 198.44 351.53 188.33 342.30 182.67 C 329.19 173.50 313.42 168.47 297.48 167.68 C 276.03 166.77 254.55 167.17 233.09 167.26 C 233.07 199.78 232.96 232.31 233.15 264.83 C 227.03 264.63 220.90 264.84 214.78 264.60 C 214.31 261.81 213.73 259.05 213.14 256.29 C 212.83 219.94 213.06 183.55 213.03 147.18 Z" />
<path fill="#896227" opacity="1.00" d=" M 948.39 151.51 C 961.12 147.17 974.73 147.01 988.03 147.00 C 1014.01 147.05 1039.99 146.85 1065.97 147.18 C 1065.93 183.54 1066.19 219.92 1065.85 256.26 C 1065.20 259.04 1064.64 261.84 1064.25 264.67 C 1058.11 264.80 1051.98 264.62 1045.85 264.89 C 1046.04 232.35 1045.93 199.80 1045.91 167.26 C 1024.94 167.13 1003.96 166.86 983.00 167.57 C 968.26 168.21 953.57 172.13 940.96 179.91 C 936.34 182.87 931.49 185.77 928.17 190.25 C 923.21 196.97 919.13 204.41 916.62 212.40 C 912.60 225.05 908.58 237.69 904.62 250.35 C 897.53 249.55 890.40 250.24 883.30 249.87 C 883.40 247.15 883.51 244.43 883.88 241.74 C 886.69 232.10 889.93 222.58 892.86 212.97 C 895.51 204.62 897.86 196.03 902.41 188.46 C 912.28 170.86 929.35 157.82 948.39 151.51 Z" />
<path fill="#896227" opacity="1.00" d=" M 523.18 1025.77 C 531.75 1024.61 540.42 1025.08 549.04 1025.11 C 611.35 1025.09 673.67 1025.15 735.99 1025.14 C 742.59 1025.21 749.27 1024.45 755.80 1025.80 C 750.48 1041.89 740.76 1056.05 730.06 1069.03 C 725.95 1073.99 720.74 1077.87 715.62 1081.71 C 693.73 1097.91 667.15 1107.78 639.97 1109.56 C 610.04 1107.98 580.89 1096.21 557.67 1077.33 C 550.04 1071.57 544.53 1063.64 538.98 1055.99 C 532.30 1046.73 526.85 1036.59 523.18 1025.77 Z" />
</g>
<g id="#e7d87eff">
<path fill="#e7d87e" opacity="1.00" d=" M 233.09 167.26 C 254.55 167.17 276.03 166.77 297.48 167.68 C 313.42 168.47 329.19 173.50 342.30 182.67 C 351.53 188.33 356.65 198.44 360.83 208.03 C 365.67 222.13 369.93 236.42 374.46 250.62 C 375.93 255.57 377.41 260.52 379.06 265.41 C 371.43 266.54 363.73 265.90 356.06 265.98 C 332.05 266.19 308.03 265.85 284.02 265.98 C 278.82 265.68 273.62 265.93 268.48 266.74 C 256.71 266.86 244.94 266.58 233.16 266.69 C 233.16 266.23 233.15 265.30 233.15 264.83 C 232.96 232.31 233.07 199.78 233.09 167.26 Z" />
<path fill="#e7d87e" opacity="1.00" d=" M 940.96 179.91 C 953.57 172.13 968.26 168.21 983.00 167.57 C 1003.96 166.86 1024.94 167.13 1045.91 167.26 C 1045.93 199.80 1046.04 232.35 1045.85 264.89 C 1045.84 265.34 1045.83 266.25 1045.83 266.70 C 1035.90 266.59 1025.97 266.80 1016.05 266.74 C 1011.29 266.72 1006.17 267.09 1002.35 270.26 C 985.58 269.46 968.77 270.07 951.98 269.87 C 936.32 269.90 920.66 269.75 905.01 269.98 C 902.82 270.14 900.84 269.26 899.02 268.19 C 900.99 262.27 902.88 256.33 904.62 250.35 C 908.58 237.69 912.60 225.05 916.62 212.40 C 919.13 204.41 923.21 196.97 928.17 190.25 C 931.49 185.77 936.34 182.87 940.96 179.91 Z" />
<path fill="#e7d87e" opacity="1.00" d=" M 517.44 1006.50 C 518.92 1013.04 520.86 1019.47 523.18 1025.77 C 526.85 1036.59 532.30 1046.73 538.98 1055.99 C 544.53 1063.64 550.04 1071.57 557.67 1077.33 C 580.89 1096.21 610.04 1107.98 639.97 1109.56 C 667.15 1107.78 693.73 1097.91 715.62 1081.71 C 720.74 1077.87 725.95 1073.99 730.06 1069.03 C 740.76 1056.05 750.48 1041.89 755.80 1025.80 C 758.00 1019.88 759.82 1013.83 761.30 1007.70 C 768.27 1008.34 775.29 1007.82 782.26 1008.42 C 782.40 1009.63 782.56 1010.86 782.70 1012.09 C 778.59 1031.43 771.78 1050.61 759.81 1066.58 C 740.75 1094.68 711.54 1115.69 678.82 1124.78 C 641.52 1135.19 600.09 1130.25 566.62 1110.63 C 551.19 1101.58 537.21 1089.92 526.12 1075.85 C 518.08 1065.58 510.50 1054.73 505.57 1042.59 C 503.01 1035.95 500.43 1029.26 498.94 1022.30 C 499.16 1017.60 497.89 1013.05 496.29 1008.69 C 501.83 1007.62 507.45 1008.30 513.04 1008.15 C 514.70 1008.28 516.11 1007.37 517.44 1006.50 Z" />
</g>
<g id="#916c2fff">
<path fill="#916c2f" opacity="1.00" d=" M 395.04 241.60 C 398.59 252.31 401.86 263.13 405.15 273.91 C 404.98 275.19 404.79 276.47 404.60 277.75 C 397.88 278.26 391.12 278.36 384.42 277.65 C 383.28 274.63 381.87 271.72 380.32 268.89 C 379.88 267.73 379.46 266.58 379.06 265.41 C 377.41 260.52 375.93 255.57 374.46 250.62 C 381.88 250.98 389.31 251.07 396.74 250.75 C 396.15 247.70 395.64 244.64 395.04 241.60 Z" />
</g>
<g id="#916c2eff">
<path fill="#916c2e" opacity="1.00" d=" M 878.13 260.65 C 879.76 254.27 881.75 247.97 883.88 241.74 C 883.51 244.43 883.40 247.15 883.30 249.87 C 890.40 250.24 897.53 249.55 904.62 250.35 C 902.88 256.33 900.99 262.27 899.02 268.19 C 898.95 268.40 898.80 268.83 898.73 269.05 C 897.57 271.02 896.48 273.11 894.79 274.68 C 888.37 275.59 881.85 274.90 875.40 274.87 C 876.32 270.13 877.40 265.42 878.13 260.65 Z" />
</g>
<g id="#967233ff">
<path fill="#967233" opacity="1.00" d=" M 213.14 256.29 C 213.73 259.05 214.31 261.81 214.78 264.60 C 220.90 264.84 227.03 264.63 233.15 264.83 C 233.15 265.30 233.16 266.23 233.16 266.69 C 244.94 266.58 256.71 266.86 268.48 266.74 C 277.47 268.61 283.10 276.54 289.21 282.67 C 292.28 286.34 293.49 291.07 294.98 295.52 C 288.63 295.82 282.27 296.16 275.93 295.75 C 273.42 295.65 271.24 294.28 269.25 292.90 C 266.07 290.20 262.56 287.35 258.14 287.45 C 243.10 287.24 228.06 286.95 213.02 286.86 C 213.05 276.67 212.84 266.47 213.14 256.29 Z" />
<path fill="#967233" opacity="1.00" d=" M 1064.25 264.67 C 1064.64 261.84 1065.20 259.04 1065.85 256.26 C 1066.17 266.45 1065.94 276.66 1065.98 286.86 C 1050.94 286.94 1035.90 287.24 1020.87 287.45 C 1016.45 287.34 1012.95 290.18 1009.78 292.87 C 1007.78 294.30 1005.59 295.71 1003.06 295.76 C 996.72 296.09 990.35 295.78 984.01 295.60 C 985.56 290.71 986.98 285.52 990.61 281.70 C 994.38 277.75 998.20 273.81 1002.35 270.26 C 1006.17 267.09 1011.29 266.72 1016.05 266.74 C 1025.97 266.80 1035.90 266.59 1045.83 266.70 C 1045.83 266.25 1045.84 265.34 1045.85 264.89 C 1051.98 264.62 1058.11 264.80 1064.25 264.67 Z" />
</g>
<g id="#987535ff">
<path fill="#987535" opacity="1.00" d=" M 866.97 295.92 C 870.65 284.15 874.05 272.28 878.13 260.65 C 877.40 265.42 876.32 270.13 875.40 274.87 C 881.85 274.90 888.37 275.59 894.79 274.68 C 896.48 273.11 897.57 271.02 898.73 269.05 C 896.97 275.55 894.75 281.92 892.76 288.35 C 892.62 288.73 892.35 289.49 892.21 289.87 C 891.04 291.82 889.91 293.81 888.44 295.55 C 881.36 296.71 874.11 295.76 866.97 295.92 Z" />
</g>
<g id="#e1cd75ff">
<path fill="#e1cd75" opacity="1.00" d=" M 268.48 266.74 C 273.62 265.93 278.82 265.68 284.02 265.98 C 308.03 265.85 332.05 266.19 356.06 265.98 C 363.73 265.90 371.43 266.54 379.06 265.41 C 379.46 266.58 379.88 267.73 380.32 268.89 C 382.72 278.32 386.11 287.45 388.86 296.78 C 388.49 297.51 387.76 298.97 387.39 299.71 C 360.59 300.25 333.77 299.58 306.97 300.02 C 303.39 300.04 299.82 299.78 296.25 299.50 C 295.84 298.16 295.41 296.84 294.98 295.52 C 293.49 291.07 292.28 286.34 289.21 282.67 C 283.10 276.54 277.47 268.61 268.48 266.74 Z" />
<path fill="#e1cd75" opacity="1.00" d=" M 898.73 269.05 C 898.80 268.83 898.95 268.40 899.02 268.19 C 900.84 269.26 902.82 270.14 905.01 269.98 C 920.66 269.75 936.32 269.90 951.98 269.87 C 968.77 270.07 985.58 269.46 1002.35 270.26 C 998.20 273.81 994.38 277.75 990.61 281.70 C 986.98 285.52 985.56 290.71 984.01 295.60 C 983.88 296.01 983.62 296.82 983.49 297.23 C 953.11 296.40 922.71 297.31 892.34 296.78 C 892.48 293.97 892.57 291.16 892.76 288.35 C 894.75 281.92 896.97 275.55 898.73 269.05 Z" />
<path fill="#e1cd75" opacity="1.00" d=" M 497.48 981.62 C 501.25 980.61 505.22 981.03 509.08 980.57 L 509.40 980.40 C 511.57 987.49 513.68 994.61 516.02 1001.66 C 516.52 1003.25 516.99 1004.87 517.44 1006.50 C 516.11 1007.37 514.70 1008.28 513.04 1008.15 C 507.45 1008.30 501.83 1007.62 496.29 1008.69 C 497.89 1013.05 499.16 1017.60 498.94 1022.30 C 497.58 1019.04 497.08 1015.51 495.86 1012.21 C 495.52 1011.20 495.18 1010.21 494.83 1009.24 C 493.81 1004.80 492.01 1000.57 491.17 996.09 C 490.93 993.49 490.71 990.90 490.39 988.33 C 492.54 985.90 494.53 983.13 497.48 981.62 Z" />
<path fill="#e1cd75" opacity="1.00" d=" M 762.95 1001.79 C 765.23 994.80 767.37 987.76 769.50 980.73 C 776.47 981.25 783.46 980.83 790.44 981.32 C 790.77 982.00 791.43 983.38 791.76 984.06 C 790.74 988.11 789.31 992.04 788.11 996.04 C 786.68 1000.40 785.36 1004.80 784.15 1009.23 C 783.70 1010.61 783.27 1012.00 782.86 1013.41 L 782.70 1012.09 C 782.56 1010.86 782.40 1009.63 782.26 1008.42 C 775.29 1007.82 768.27 1008.34 761.30 1007.70 C 761.79 1005.71 762.34 1003.73 762.95 1001.79 Z" />
</g>
<g id="#997636ff">
<path fill="#997636" opacity="1.00" d=" M 380.32 268.89 C 381.87 271.72 383.28 274.63 384.42 277.65 C 391.12 278.36 397.88 278.26 404.60 277.75 C 404.79 276.47 404.98 275.19 405.15 273.91 C 407.51 281.29 409.87 288.67 412.12 296.08 C 410.98 297.30 410.12 299.28 408.13 299.06 C 401.97 299.42 395.78 298.95 389.62 299.22 C 389.36 298.40 389.11 297.59 388.86 296.78 C 386.11 287.45 382.72 278.32 380.32 268.89 Z" />
</g>
<g id="#dcc46dff">
<path fill="#dcc46d" opacity="1.00" d=" M 892.21 289.87 C 892.35 289.49 892.62 288.73 892.76 288.35 C 892.57 291.16 892.48 293.97 892.34 296.78 C 922.71 297.31 953.11 296.40 983.49 297.23 C 981.97 301.91 980.76 306.68 979.15 311.33 C 978.92 311.99 978.69 312.65 978.47 313.32 C 975.94 316.55 971.63 316.09 967.99 316.09 C 940.77 315.63 913.54 316.37 886.33 315.82 C 886.14 314.13 885.94 312.45 885.83 310.76 C 887.90 303.78 890.22 296.88 892.21 289.87 Z" />
<path fill="#dcc46d" opacity="1.00" d=" M 481.09 964.92 C 483.47 962.99 485.61 960.10 488.96 960.04 C 493.81 959.74 499.01 959.35 503.47 961.71 C 504.29 964.53 505.20 967.34 506.14 970.13 C 507.26 973.57 508.33 977.03 509.08 980.57 C 505.22 981.03 501.25 980.61 497.48 981.62 C 494.53 983.13 492.54 985.90 490.39 988.33 C 490.71 990.90 490.93 993.49 491.17 996.09 L 491.26 997.15 C 487.80 986.43 484.46 975.66 481.09 964.92 Z" />
</g>
<g id="#9f7e3bff">
<path fill="#9f7e3b" opacity="1.00" d=" M 888.44 295.55 C 889.91 293.81 891.04 291.82 892.21 289.87 C 890.22 296.88 887.90 303.78 885.83 310.76 L 885.53 311.77 C 877.98 314.33 869.70 313.58 861.98 312.25 C 863.30 306.70 865.41 301.39 866.97 295.92 C 874.11 295.76 881.36 296.71 888.44 295.55 Z" />
<path fill="#9f7e3b" opacity="1.00" d=" M 269.25 292.90 C 271.24 294.28 273.42 295.65 275.93 295.75 C 282.27 296.16 288.63 295.82 294.98 295.52 C 295.41 296.84 295.84 298.16 296.25 299.50 C 297.38 303.35 298.39 307.24 299.75 311.02 C 299.26 311.55 298.28 312.59 297.80 313.12 C 290.63 312.95 282.52 315.09 276.24 310.62 L 275.85 310.39 C 274.25 304.37 272.85 298.11 269.25 292.90 Z" />
<path fill="#9f7e3b" opacity="1.00" d=" M 1003.06 295.76 C 1005.59 295.71 1007.78 294.30 1009.78 292.87 C 1006.15 298.08 1004.75 304.36 1003.15 310.40 L 1002.75 310.63 C 997.93 314.32 991.63 313.19 985.99 313.32 C 983.52 313.43 981.07 312.98 979.15 311.33 C 980.76 306.68 981.97 301.91 983.49 297.23 C 983.62 296.82 983.88 296.01 984.01 295.60 C 990.35 295.78 996.72 296.09 1003.06 295.76 Z" />
</g>
<g id="#a2823eff">
<path fill="#a2823e" opacity="1.00" d=" M 408.13 299.06 C 410.12 299.28 410.98 297.30 412.12 296.08 C 415.08 305.85 418.28 315.55 421.29 325.30 C 413.54 326.45 405.65 326.14 397.88 325.40 C 397.48 324.07 397.09 322.76 396.67 321.45 C 394.17 314.09 391.89 306.65 389.62 299.22 C 395.78 298.95 401.97 299.42 408.13 299.06 Z" />
</g>
<g id="#dbc26cff">
<path fill="#dbc26c" opacity="1.00" d=" M 388.86 296.78 C 389.11 297.59 389.36 298.40 389.62 299.22 C 391.89 306.65 394.17 314.09 396.67 321.45 C 392.89 323.97 388.19 322.85 383.95 322.96 C 362.63 322.85 341.31 322.94 319.99 322.92 C 314.32 322.78 308.25 324.04 303.01 321.26 C 302.04 317.81 300.93 314.40 299.75 311.02 C 298.39 307.24 297.38 303.35 296.25 299.50 C 299.82 299.78 303.39 300.04 306.97 300.02 C 333.77 299.58 360.59 300.25 387.39 299.71 C 387.76 298.97 388.49 297.51 388.86 296.78 Z" />
</g>
<g id="#aa8c46ff">
<path fill="#aa8c46" opacity="1.00" d=" M 276.24 310.62 C 282.52 315.09 290.63 312.95 297.80 313.12 C 298.28 312.59 299.26 311.55 299.75 311.02 C 300.93 314.40 302.04 317.81 303.01 321.26 C 304.79 327.43 306.84 333.52 308.66 339.68 C 309.61 342.86 310.54 346.05 311.58 349.21 C 303.90 350.14 296.14 349.83 288.45 349.32 L 288.01 349.29 C 284.52 336.29 279.87 323.60 276.24 310.62 Z" />
</g>
<g id="#aa8b45ff">
<path fill="#aa8b45" opacity="1.00" d=" M 985.99 313.32 C 991.63 313.19 997.93 314.32 1002.75 310.63 C 999.14 323.38 994.71 335.90 991.10 348.65 L 990.80 348.60 C 983.81 347.04 976.65 348.05 969.58 347.64 C 969.35 346.97 968.89 345.62 968.66 344.95 C 970.23 340.19 971.78 335.42 973.22 330.62 C 974.88 324.83 976.59 319.05 978.47 313.32 C 978.69 312.65 978.92 311.99 979.15 311.33 C 981.07 312.98 983.52 313.43 985.99 313.32 Z" />
<path fill="#aa8b45" opacity="1.00" d=" M 861.98 312.25 C 869.70 313.58 877.98 314.33 885.53 311.77 C 883.52 318.30 881.41 324.80 879.28 331.29 C 877.50 336.63 875.70 341.97 874.26 347.42 C 866.43 348.52 858.52 348.35 850.66 347.77 C 854.23 335.88 858.37 324.15 861.63 312.18 L 861.98 312.25 Z" />
</g>
<g id="#d8bc67ff">
<path fill="#d8bc67" opacity="1.00" d=" M 885.53 311.77 L 885.83 310.76 C 885.94 312.45 886.14 314.13 886.33 315.82 C 913.54 316.37 940.77 315.63 967.99 316.09 C 971.63 316.09 975.94 316.55 978.47 313.32 C 976.59 319.05 974.88 324.83 973.22 330.62 C 970.62 331.68 967.85 332.32 965.04 332.20 C 943.03 331.98 921.01 332.16 898.99 332.11 C 892.42 331.98 885.76 332.77 879.28 331.29 C 881.41 324.80 883.52 318.30 885.53 311.77 Z" />
</g>
<g id="#d6b964ff">
<path fill="#d6b964" opacity="1.00" d=" M 303.01 321.26 C 308.25 324.04 314.32 322.78 319.99 322.92 C 341.31 322.94 362.63 322.85 383.95 322.96 C 388.19 322.85 392.89 323.97 396.67 321.45 C 397.09 322.76 397.48 324.07 397.88 325.40 C 399.33 330.39 400.86 335.37 402.56 340.30 C 400.04 340.68 397.51 341.05 394.96 341.09 C 372.64 340.72 350.31 341.22 327.98 341.01 C 321.54 340.79 314.84 342.03 308.66 339.68 C 306.84 333.52 304.79 327.43 303.01 321.26 Z" />
<path fill="#d6b964" opacity="1.00" d=" M 611.91 935.61 L 612.23 935.19 C 613.61 939.44 614.48 944.03 617.23 947.68 C 618.98 950.25 621.39 952.28 623.52 954.54 C 616.69 955.28 609.82 955.04 602.97 954.88 C 600.55 954.70 598.22 955.35 596.16 956.59 C 594.39 953.42 593.28 949.96 592.24 946.51 C 592.05 945.88 591.66 944.62 591.46 943.99 C 593.50 941.28 595.31 938.07 598.47 936.53 C 602.67 935.30 607.08 936.38 611.38 936.31 C 611.51 936.13 611.78 935.79 611.91 935.61 Z" />
</g>
<g id="#ad8f48ff">
<path fill="#ad8f48" opacity="1.00" d=" M 397.88 325.40 C 405.65 326.14 413.54 326.45 421.29 325.30 C 423.71 332.93 426.06 340.58 428.45 348.22 C 420.65 349.05 412.36 350.03 404.79 347.53 C 404.09 345.10 403.36 342.69 402.56 340.30 C 400.86 335.37 399.33 330.39 397.88 325.40 Z" />
</g>
<g id="#d3b25fff">
<path fill="#d3b25f" opacity="1.00" d=" M 965.04 332.20 C 967.85 332.32 970.62 331.68 973.22 330.62 C 971.78 335.42 970.23 340.19 968.66 344.95 C 966.84 350.39 965.24 355.90 963.34 361.31 L 963.22 361.66 C 936.16 362.39 909.08 361.65 882.01 362.08 C 878.07 361.95 873.75 362.77 870.27 360.47 C 871.77 356.17 873.11 351.83 874.26 347.42 C 875.70 341.97 877.50 336.63 879.28 331.29 C 885.76 332.77 892.42 331.98 898.99 332.11 C 921.01 332.16 943.03 331.98 965.04 332.20 Z" />
</g>
<g id="#d2b15eff">
<path fill="#d2b15e" opacity="1.00" d=" M 308.66 339.68 C 314.84 342.03 321.54 340.79 327.98 341.01 C 350.31 341.22 372.64 340.72 394.96 341.09 C 397.51 341.05 400.04 340.68 402.56 340.30 C 403.36 342.69 404.09 345.10 404.79 347.53 C 405.91 351.33 407.15 355.08 408.31 358.87 C 408.09 359.60 407.65 361.06 407.43 361.79 C 388.61 362.38 369.77 361.82 350.94 362.04 C 339.22 361.82 327.50 362.42 315.79 361.68 L 315.71 361.43 C 314.39 357.34 312.93 353.29 311.58 349.21 C 310.54 346.05 309.61 342.86 308.66 339.68 Z" />
</g>
<g id="#b5984fff">
<path fill="#b5984f" opacity="1.00" d=" M 963.34 361.31 C 965.24 355.90 966.84 350.39 968.66 344.95 C 968.89 345.62 969.35 346.97 969.58 347.64 C 976.65 348.05 983.81 347.04 990.80 348.60 C 989.22 354.06 987.61 359.51 985.81 364.90 C 985.46 364.26 984.76 362.98 984.40 362.34 C 977.38 361.72 970.26 362.93 963.34 361.31 Z" />
<path fill="#b5984f" opacity="1.00" d=" M 404.79 347.53 C 412.36 350.03 420.65 349.05 428.45 348.22 C 429.81 352.64 431.50 356.98 432.44 361.52 L 432.01 362.05 C 426.67 362.31 421.32 362.30 415.98 362.32 C 413.46 362.43 411.06 361.59 408.81 360.54 C 408.69 360.13 408.44 359.29 408.31 358.87 C 407.15 355.08 405.91 351.33 404.79 347.53 Z" />
</g>
<g id="#b99e53ff">
<path fill="#b99e53" opacity="1.00" d=" M 850.66 347.77 C 858.52 348.35 866.43 348.52 874.26 347.42 C 873.11 351.83 871.77 356.17 870.27 360.47 C 867.90 367.78 865.28 375.01 863.13 382.39 C 857.44 382.97 851.73 382.66 846.04 382.66 C 843.56 382.51 841.33 383.62 839.22 384.75 C 842.84 372.36 846.89 360.11 850.66 347.77 Z" />
<path fill="#b99e53" opacity="1.00" d=" M 484.49 900.90 C 491.26 899.62 498.17 900.22 505.01 900.13 C 527.35 900.11 549.68 900.18 572.02 900.07 C 574.18 900.02 576.24 900.71 578.23 901.50 C 579.94 907.49 581.56 913.51 583.87 919.32 C 584.75 922.11 585.54 924.93 586.37 927.76 C 584.97 925.47 582.88 923.46 579.96 923.93 C 551.13 924.25 522.29 923.89 493.46 924.12 C 493.25 924.87 492.83 926.36 492.62 927.11 C 489.61 918.47 487.32 909.60 484.49 900.90 Z" />
</g>
<g id="#b5994fff">
<path fill="#b5994f" opacity="1.00" d=" M 288.45 349.32 C 296.14 349.83 303.90 350.14 311.58 349.21 C 312.93 353.29 314.39 357.34 315.71 361.43 C 308.76 365.59 300.01 360.42 293.06 364.58 C 291.43 359.52 289.86 354.44 288.45 349.32 Z" />
</g>
<g id="#cfaa59ff">
<path fill="#cfaa59" opacity="1.00" d=" M 408.31 358.87 C 408.44 359.29 408.69 360.13 408.81 360.54 C 411.73 370.61 415.51 380.41 418.21 390.55 C 416.24 389.75 414.20 389.02 412.04 389.05 C 385.04 389.12 358.03 389.11 331.03 389.02 C 328.80 389.10 326.58 389.41 324.38 389.73 C 322.44 384.21 321.24 378.48 319.37 372.95 C 318.09 369.22 316.93 365.45 315.79 361.68 C 327.50 362.42 339.22 361.82 350.94 362.04 C 369.77 361.82 388.61 362.38 407.43 361.79 C 407.65 361.06 408.09 359.60 408.31 358.87 Z" />
<path fill="#cfaa59" opacity="1.00" d=" M 863.13 382.39 C 865.28 375.01 867.90 367.78 870.27 360.47 C 873.75 362.77 878.07 361.95 882.01 362.08 C 909.08 361.65 936.16 362.39 963.22 361.66 C 960.52 369.96 958.08 378.35 955.72 386.75 C 955.38 387.75 955.06 388.75 954.73 389.75 C 948.57 388.38 942.25 389.08 936.00 389.02 C 912.66 388.96 889.31 388.96 865.98 388.98 C 864.12 388.99 862.45 389.83 860.80 390.54 C 861.63 387.84 862.37 385.11 863.13 382.39 Z" />
<path fill="#cfaa59" opacity="1.00" d=" M 800.93 880.28 C 801.09 879.79 801.40 878.81 801.56 878.32 C 809.23 879.77 817.06 878.90 824.82 879.09 C 818.58 898.36 813.00 917.84 806.56 937.04 C 806.84 934.63 807.07 932.22 807.40 929.82 C 800.29 927.93 792.84 928.75 785.63 929.48 C 786.57 926.20 787.48 922.92 788.53 919.68 C 790.72 913.34 792.65 906.92 794.68 900.54 C 796.75 893.78 798.87 887.04 800.93 880.28 Z" />
</g>
<g id="#bfa558ff">
<path fill="#bfa558" opacity="1.00" d=" M 408.81 360.54 C 411.06 361.59 413.46 362.43 415.98 362.32 C 421.32 362.30 426.67 362.31 432.01 362.05 L 432.81 362.11 C 436.28 373.12 439.70 384.22 442.97 395.32 C 435.21 395.22 427.43 394.59 419.67 395.29 C 419.17 393.71 418.68 392.13 418.21 390.55 C 415.51 380.41 411.73 370.61 408.81 360.54 Z" />
</g>
<g id="#bba055ff">
<path fill="#bba055" opacity="1.00" d=" M 315.71 361.43 L 315.79 361.68 C 316.93 365.45 318.09 369.22 319.37 372.95 C 319.15 373.69 318.72 375.18 318.51 375.93 C 311.42 376.63 304.29 375.79 297.21 376.62 C 297.07 376.63 296.78 376.66 296.64 376.67 C 295.76 372.55 294.24 368.61 293.06 364.58 C 300.01 360.42 308.76 365.59 315.71 361.43 Z" />
</g>
<g id="#bda357ff">
<path fill="#bda357" opacity="1.00" d=" M 963.22 361.66 L 963.34 361.31 C 970.26 362.93 977.38 361.72 984.40 362.34 C 984.76 362.98 985.46 364.26 985.81 364.90 C 983.71 372.20 980.97 379.32 979.09 386.69 L 978.84 386.70 C 971.13 387.01 963.42 386.90 955.72 386.75 C 958.08 378.35 960.52 369.96 963.22 361.66 Z" />
</g>
<g id="#c4ac5dff">
<path fill="#c4ac5d" opacity="1.00" d=" M 319.37 372.95 C 321.24 378.48 322.44 384.21 324.38 389.73 C 326.54 395.93 328.36 402.24 330.31 408.51 C 322.64 407.33 314.83 407.49 307.15 408.41 L 306.63 408.46 C 303.88 397.74 299.77 387.40 297.21 376.62 C 304.29 375.79 311.42 376.63 318.51 375.93 C 318.72 375.18 319.15 373.69 319.37 372.95 Z" />
</g>
<g id="#c3ab5dff">
<path fill="#c3ab5d" opacity="1.00" d=" M 846.04 382.66 C 851.73 382.66 857.44 382.97 863.13 382.39 C 862.37 385.11 861.63 387.84 860.80 390.54 C 860.32 392.11 859.84 393.68 859.37 395.25 C 851.59 395.14 843.80 394.83 836.04 395.26 C 836.93 391.71 838.13 388.24 839.22 384.75 C 841.33 383.62 843.56 382.51 846.04 382.66 Z" />
</g>
<g id="#c5ad5eff">
<path fill="#c5ad5e" opacity="1.00" d=" M 954.73 389.75 C 955.06 388.75 955.38 387.75 955.72 386.75 C 963.42 386.90 971.13 387.01 978.84 386.70 C 977.65 391.86 975.48 396.72 974.40 401.91 L 974.09 401.75 C 970.84 399.47 966.78 399.88 963.03 399.87 C 958.91 399.93 954.53 399.39 950.82 401.57 C 952.04 397.60 953.36 393.67 954.73 389.75 Z" />
</g>
<g id="#caa151ff">
<path fill="#caa151" opacity="1.00" d=" M 324.38 389.73 C 326.58 389.41 328.80 389.10 331.03 389.02 C 358.03 389.11 385.04 389.12 412.04 389.05 C 414.20 389.02 416.24 389.75 418.21 390.55 C 418.68 392.13 419.17 393.71 419.67 395.29 C 423.46 407.91 427.59 420.44 431.46 433.04 C 432.06 435.04 432.59 437.06 433.19 439.07 C 431.94 436.78 430.60 434.55 429.33 432.28 C 410.24 431.69 391.11 432.26 372.00 432.07 C 361.18 432.26 350.35 431.60 339.54 432.27 C 339.31 432.98 338.84 434.39 338.60 435.10 C 337.45 431.65 336.39 428.18 335.33 424.71 C 333.72 419.29 331.96 413.92 330.31 408.51 C 328.36 402.24 326.54 395.93 324.38 389.73 Z" />
</g>
<g id="#cba353ff">
<path fill="#cba353" opacity="1.00" d=" M 860.80 390.54 C 862.45 389.83 864.12 388.99 865.98 388.98 C 889.31 388.96 912.66 388.96 936.00 389.02 C 942.25 389.08 948.57 388.38 954.73 389.75 C 953.36 393.67 952.04 397.60 950.82 401.57 C 949.45 406.18 948.05 410.77 946.64 415.36 L 946.57 415.55 C 943.46 413.33 939.51 414.13 935.95 414.05 C 912.98 414.16 890.00 413.99 867.03 414.11 C 862.59 414.14 858.16 414.02 853.74 413.81 C 855.48 407.58 857.45 401.42 859.37 395.25 C 859.84 393.68 860.32 392.11 860.80 390.54 Z" />
<path fill="#cba353" opacity="1.00" d=" M 470.15 855.59 C 471.50 859.08 472.86 862.57 473.77 866.21 C 475.12 871.72 477.25 877.00 478.63 882.50 C 479.17 884.60 479.71 886.71 480.35 888.80 C 475.57 889.20 470.77 888.94 466.00 889.28 C 463.33 889.43 460.55 891.75 460.66 894.57 C 460.61 896.47 460.78 898.37 460.99 900.28 C 457.08 888.64 453.37 876.91 450.00 865.11 C 456.90 862.76 464.22 864.56 471.32 863.93 C 470.87 861.16 470.52 858.37 470.15 855.59 Z" />
<path fill="#cba353" opacity="1.00" d=" M 688.98 863.53 L 689.58 863.57 C 697.09 864.32 704.65 863.93 712.19 864.08 C 710.73 869.53 709.43 875.04 707.36 880.30 C 706.44 882.84 705.62 885.42 704.88 888.04 C 699.91 888.05 694.94 887.85 689.97 888.06 C 687.26 888.14 684.48 888.43 681.86 887.61 C 683.98 879.51 687.04 871.68 688.98 863.53 Z" />
</g>
<g id="#ccb665ff">
<path fill="#ccb665" opacity="1.00" d=" M 419.67 395.29 C 427.43 394.59 435.21 395.22 442.97 395.32 L 443.24 395.33 C 444.64 400.59 446.32 405.78 448.13 410.91 C 449.92 417.44 452.31 423.80 453.91 430.38 C 453.93 430.66 453.96 431.20 453.98 431.47 C 452.43 430.44 451.00 428.94 449.03 428.87 C 444.06 428.56 439.01 428.46 434.08 429.17 C 432.13 429.32 432.23 431.71 431.46 433.04 C 427.59 420.44 423.46 407.91 419.67 395.29 Z" />
</g>
<g id="#cab362ff">
<path fill="#cab362" opacity="1.00" d=" M 836.04 395.26 C 843.80 394.83 851.59 395.14 859.37 395.25 C 857.45 401.42 855.48 407.58 853.74 413.81 C 853.30 415.24 852.83 416.67 852.37 418.09 C 852.00 416.86 851.63 415.63 851.28 414.40 C 844.76 413.31 838.16 414.40 831.61 413.73 C 831.42 413.04 831.03 411.68 830.83 411.00 C 832.66 405.82 834.38 400.60 835.73 395.28 L 836.04 395.26 Z" />
</g>
<g id="#cbb463ff">
<path fill="#cbb463" opacity="1.00" d=" M 950.82 401.57 C 954.53 399.39 958.91 399.93 963.03 399.87 C 966.78 399.88 970.84 399.47 974.09 401.75 C 973.31 405.30 972.06 408.72 971.11 412.23 C 970.19 414.56 969.31 416.92 969.07 419.43 L 968.65 418.61 C 968.06 417.43 967.43 416.29 966.81 415.16 C 960.09 414.69 953.35 414.97 946.64 415.36 C 948.05 410.77 949.45 406.18 950.82 401.57 Z" />
</g>
<g id="#ceb866ff">
<path fill="#ceb866" opacity="1.00" d=" M 307.15 408.41 C 314.83 407.49 322.64 407.33 330.31 408.51 C 331.96 413.92 333.72 419.29 335.33 424.71 C 334.11 423.55 332.91 421.97 331.05 422.06 C 325.45 421.71 319.84 422.07 314.25 422.18 C 313.50 422.93 312.75 423.68 312.01 424.44 C 311.93 424.52 311.77 424.69 311.69 424.77 C 311.00 421.51 309.98 418.35 308.97 415.19 C 308.60 414.18 308.21 413.18 307.82 412.19 C 307.58 410.93 307.36 409.66 307.15 408.41 Z" />
</g>
<g id="#d0bb68ff">
<path fill="#d0bb68" opacity="1.00" d=" M 826.20 426.73 C 827.42 421.40 829.47 416.29 830.83 411.00 C 831.03 411.68 831.42 413.04 831.61 413.73 C 838.16 414.40 844.76 413.31 851.28 414.40 C 851.63 415.63 852.00 416.86 852.37 418.09 C 851.06 421.95 849.78 425.81 848.57 429.70 C 841.18 428.25 833.65 429.09 826.20 429.33 C 826.20 428.68 826.20 427.38 826.20 426.73 Z" />
</g>
<g id="#c79b4cff">
<path fill="#c79b4c" opacity="1.00" d=" M 852.37 418.09 C 852.83 416.67 853.30 415.24 853.74 413.81 C 858.16 414.02 862.59 414.14 867.03 414.11 C 890.00 413.99 912.98 414.16 935.95 414.05 C 939.51 414.13 943.46 413.33 946.57 415.55 C 944.32 421.63 942.45 427.83 940.80 434.09 C 939.35 438.50 937.92 442.92 936.57 447.36 C 934.34 455.04 931.66 462.58 929.30 470.22 C 929.09 468.87 928.87 467.53 928.64 466.20 C 900.46 465.60 872.24 466.33 844.05 465.86 C 841.52 465.80 839.08 466.48 836.73 467.34 C 838.68 461.27 840.37 455.13 842.41 449.10 C 844.61 442.68 846.57 436.18 848.57 429.70 C 849.78 425.81 851.06 421.95 852.37 418.09 Z" />
<path fill="#c79b4c" opacity="1.00" d=" M 809.71 553.70 C 812.94 543.32 816.08 532.92 819.55 522.63 C 819.46 524.68 819.48 526.75 819.50 528.81 C 840.33 529.22 861.18 528.87 882.02 528.99 C 891.73 528.67 901.50 529.63 911.18 528.44 C 908.10 538.90 904.43 549.17 901.42 559.66 C 898.40 560.73 895.22 561.25 892.02 561.13 C 864.47 560.62 836.91 561.33 809.36 560.77 C 809.43 558.40 809.50 556.04 809.71 553.70 Z" />
</g>
<g id="#d1bb69ff">
<path fill="#d1bb69" opacity="1.00" d=" M 946.64 415.36 C 953.35 414.97 960.09 414.69 966.81 415.16 C 967.43 416.29 968.06 417.43 968.65 418.61 C 968.18 422.74 966.27 426.54 965.43 430.61 L 964.99 430.56 C 958.04 429.76 951.03 429.91 944.06 430.03 C 942.94 431.37 941.83 432.70 940.80 434.09 C 942.45 427.83 944.32 421.63 946.57 415.55 L 946.64 415.36 Z" />
</g>
<g id="#d4bf6cff">
<path fill="#d4bf6c" opacity="1.00" d=" M 312.01 424.44 C 312.75 423.68 313.50 422.93 314.25 422.18 C 319.84 422.07 325.45 421.71 331.05 422.06 C 332.91 421.97 334.11 423.55 335.33 424.71 C 336.39 428.18 337.45 431.65 338.60 435.10 C 339.21 436.98 339.80 438.88 340.37 440.79 C 333.41 441.37 326.42 440.67 319.46 441.32 C 319.03 442.36 318.61 443.41 318.22 444.48 C 316.10 437.81 313.71 431.22 312.01 424.44 Z" />
</g>
<g id="#d6c26dff">
<path fill="#d6c26d" opacity="1.00" d=" M 821.03 443.68 C 822.10 437.87 824.30 432.31 826.20 426.73 C 826.20 427.38 826.20 428.68 826.20 429.33 C 833.65 429.09 841.18 428.25 848.57 429.70 C 846.57 436.18 844.61 442.68 842.41 449.10 C 842.16 448.37 841.66 446.93 841.41 446.20 C 834.78 445.58 828.13 446.50 821.51 445.78 C 821.39 445.25 821.15 444.20 821.03 443.68 Z" />
<path fill="#d6c26d" opacity="1.00" d=" M 431.46 433.04 C 432.23 431.71 432.13 429.32 434.08 429.17 C 439.01 428.46 444.06 428.56 449.03 428.87 C 451.00 428.94 452.43 430.44 453.98 431.47 C 453.96 431.20 453.93 430.66 453.91 430.38 L 453.87 429.33 C 455.07 433.88 456.86 438.27 457.95 442.86 C 457.86 443.62 457.68 445.13 457.60 445.89 C 452.39 446.30 447.18 445.77 441.97 446.01 C 439.70 445.89 438.07 447.59 436.44 448.89 C 435.36 445.61 434.30 442.33 433.19 439.07 C 432.59 437.06 432.06 435.04 431.46 433.04 Z" />
</g>
<g id="#d7c26eff">
<path fill="#d7c26e" opacity="1.00" d=" M 940.80 434.09 C 941.83 432.70 942.94 431.37 944.06 430.03 C 951.03 429.91 958.04 429.76 964.99 430.56 C 963.94 436.06 961.47 441.17 960.42 446.68 L 959.98 446.63 C 952.22 446.20 944.08 444.72 936.57 447.36 C 937.92 442.92 939.35 438.50 940.80 434.09 Z" />
</g>
<g id="#c59849ff">
<path fill="#c59849" opacity="1.00" d=" M 339.54 432.27 C 350.35 431.60 361.18 432.26 372.00 432.07 C 391.11 432.26 410.24 431.69 429.33 432.28 C 430.60 434.55 431.94 436.78 433.19 439.07 C 434.30 442.33 435.36 445.61 436.44 448.89 C 439.66 458.64 442.48 468.53 445.74 478.28 C 453.03 501.61 460.17 524.99 467.63 548.27 C 460.49 549.68 453.21 548.69 446.00 549.00 C 423.98 549.10 401.95 548.88 379.93 549.08 C 377.75 549.14 375.72 548.31 373.77 547.48 C 366.04 522.62 358.21 497.78 350.40 472.95 C 347.47 462.10 343.55 451.56 340.37 440.79 C 339.80 438.88 339.21 436.98 338.60 435.10 C 338.84 434.39 339.31 432.98 339.54 432.27 Z" />
</g>
<g id="#dcc972ff">
<path fill="#dcc972" opacity="1.00" d=" M 319.46 441.32 C 326.42 440.67 333.41 441.37 340.37 440.79 C 343.55 451.56 347.47 462.10 350.40 472.95 C 348.98 471.09 347.82 468.08 345.04 468.24 C 338.78 468.17 332.32 467.42 326.22 469.20 L 325.74 469.33 C 323.69 460.92 320.32 452.86 318.22 444.48 C 318.61 443.41 319.03 442.36 319.46 441.32 Z" />
</g>
<g id="#ddca73ff">
<path fill="#ddca73" opacity="1.00" d=" M 457.95 442.86 C 461.34 453.24 464.70 463.66 467.64 474.18 C 465.90 473.17 464.10 472.00 462.00 472.08 C 456.55 471.91 451.09 472.18 445.64 472.17 C 445.64 474.21 445.64 476.24 445.74 478.28 C 442.48 468.53 439.66 458.64 436.44 448.89 C 438.07 447.59 439.70 445.89 441.97 446.01 C 447.18 445.77 452.39 446.30 457.60 445.89 C 457.68 445.13 457.86 443.62 457.95 442.86 Z" />
<path fill="#ddca73" opacity="1.00" d=" M 820.85 442.89 L 821.03 443.68 C 821.15 444.20 821.39 445.25 821.51 445.78 C 828.13 446.50 834.78 445.58 841.41 446.20 C 841.66 446.93 842.16 448.37 842.41 449.10 C 840.37 455.13 838.68 461.27 836.73 467.34 C 835.63 471.01 834.44 474.66 833.27 478.32 C 833.34 476.25 833.34 474.20 833.34 472.14 C 826.38 471.38 818.91 473.77 812.35 470.73 C 814.96 461.38 818.20 452.22 820.85 442.89 Z" />
<path fill="#ddca73" opacity="1.00" d=" M 936.57 447.36 C 944.08 444.72 952.22 446.20 959.98 446.63 C 957.95 455.43 954.41 463.82 952.16 472.56 L 951.85 472.54 C 944.14 471.90 936.39 471.90 928.68 472.52 C 928.83 471.94 929.14 470.79 929.30 470.22 C 931.66 462.58 934.34 455.04 936.57 447.36 Z" />
</g>
<g id="#c49648ff">
<path fill="#c49648" opacity="1.00" d=" M 836.73 467.34 C 839.08 466.48 841.52 465.80 844.05 465.86 C 872.24 466.33 900.46 465.60 928.64 466.20 C 928.87 467.53 929.09 468.87 929.30 470.22 C 929.14 470.79 928.83 471.94 928.68 472.52 C 922.90 491.17 916.94 509.77 911.18 528.44 C 901.50 529.63 891.73 528.67 882.02 528.99 C 861.18 528.87 840.33 529.22 819.50 528.81 C 819.48 526.75 819.46 524.68 819.55 522.63 C 823.97 507.81 828.76 493.11 833.27 478.32 C 834.44 474.66 835.63 471.01 836.73 467.34 Z" />
</g>
<g id="#e7d47aff">
<path fill="#e7d47a" opacity="1.00" d=" M 326.22 469.20 C 332.32 467.42 338.78 468.17 345.04 468.24 C 347.82 468.08 348.98 471.09 350.40 472.95 C 358.21 497.78 366.04 522.62 373.77 547.48 C 376.28 555.54 378.78 563.61 381.34 571.66 C 381.40 573.39 381.41 575.13 381.42 576.87 C 374.09 576.80 366.50 578.06 359.39 575.73 C 359.26 575.69 359.00 575.62 358.87 575.58 C 358.16 571.32 356.55 567.30 355.36 563.17 C 352.14 553.50 349.28 543.71 346.09 534.03 C 344.28 528.36 342.80 522.58 340.72 517.01 C 340.61 516.47 340.41 515.39 340.30 514.85 C 335.48 500.73 331.55 486.28 326.71 472.16 C 326.59 471.42 326.35 469.94 326.22 469.20 Z" />
<path fill="#e7d47a" opacity="1.00" d=" M 810.79 474.96 C 811.60 473.67 811.45 471.85 812.35 470.73 C 818.91 473.77 826.38 471.38 833.34 472.14 C 833.34 474.20 833.34 476.25 833.27 478.32 C 828.76 493.11 823.97 507.81 819.55 522.63 C 816.08 532.92 812.94 543.32 809.71 553.70 C 807.09 561.43 804.81 569.28 802.31 577.06 C 800.87 578.64 799.53 581.03 797.08 580.94 C 790.92 581.20 784.73 580.99 778.60 580.38 L 778.22 579.91 C 780.43 572.30 782.81 564.73 785.17 557.16 C 793.48 530.81 801.65 504.39 810.11 478.09 C 810.32 477.04 810.54 475.99 810.79 474.96 Z" />
<path fill="#e7d47a" opacity="1.00" d=" M 445.64 472.17 C 451.09 472.18 456.55 471.91 462.00 472.08 C 464.10 472.00 465.90 473.17 467.64 474.18 C 467.82 474.29 468.18 474.50 468.36 474.61 C 468.49 475.76 468.65 476.92 468.83 478.08 C 477.42 504.34 485.48 530.81 493.82 557.16 C 496.21 564.86 498.68 572.53 500.86 580.29 C 494.57 579.66 488.25 580.11 481.95 579.86 C 479.84 579.91 478.26 578.39 476.64 577.28 C 473.66 567.60 470.83 557.87 467.63 548.27 C 460.17 524.99 453.03 501.61 445.74 478.28 C 445.64 476.24 445.64 474.21 445.64 472.17 Z" />
<path fill="#e7d47a" opacity="1.00" d=" M 928.68 472.52 C 936.39 471.90 944.14 471.90 951.85 472.54 C 947.73 486.72 943.28 500.83 938.69 514.85 C 938.59 515.40 938.37 516.49 938.27 517.03 C 936.20 522.60 934.71 528.37 932.91 534.03 C 928.69 547.92 923.73 561.62 920.08 575.67 L 919.64 575.78 C 912.47 577.91 904.93 576.68 897.59 576.88 C 897.59 575.15 897.59 573.42 897.68 571.70 C 898.93 567.69 900.25 563.70 901.42 559.66 C 904.43 549.17 908.10 538.90 911.18 528.44 C 916.94 509.77 922.90 491.17 928.68 472.52 Z" />
<path fill="#e7d47a" opacity="1.00" d=" M 422.23 702.62 C 423.99 701.52 425.94 700.76 428.05 700.96 C 455.38 701.12 482.70 700.99 510.03 700.96 C 512.91 700.55 515.01 702.57 516.52 704.75 C 517.76 708.89 519.01 713.04 520.41 717.14 C 522.83 724.29 524.85 731.58 527.26 738.74 C 531.22 751.69 535.55 764.53 539.24 777.57 C 539.60 781.02 540.07 784.47 540.81 787.88 C 514.88 788.29 488.93 787.93 463.00 788.02 C 458.17 788.13 453.16 788.57 448.61 786.62 C 443.86 770.49 438.47 754.56 433.55 738.49 C 429.95 726.48 426.24 714.50 422.23 702.62 Z" />
</g>
<g id="#cba151ff">
<path fill="#cba151" opacity="1.00" d=" M 373.77 547.48 C 375.72 548.31 377.75 549.14 379.93 549.08 C 401.95 548.88 423.98 549.10 446.00 549.00 C 453.21 548.69 460.49 549.68 467.63 548.27 C 470.83 557.87 473.66 567.60 476.64 577.28 C 477.20 579.16 477.79 581.03 478.39 582.91 C 478.16 583.62 477.70 585.05 477.47 585.76 C 462.33 586.64 447.14 585.82 431.98 586.08 C 419.97 586.24 407.96 585.95 395.95 586.19 C 393.38 586.17 390.76 586.32 388.26 585.68 C 386.79 584.86 385.80 583.45 384.77 582.18 C 383.72 578.64 382.54 575.14 381.34 571.66 C 378.78 563.61 376.28 555.54 373.77 547.48 Z" />
<path fill="#cba151" opacity="1.00" d=" M 393.44 684.70 C 401.33 686.16 409.55 683.77 417.28 686.33 C 418.82 691.79 420.46 697.23 422.23 702.62 C 426.24 714.50 429.95 726.48 433.55 738.49 C 425.72 737.52 417.83 737.97 409.97 737.90 C 404.30 720.22 398.76 702.49 393.44 684.70 Z" />
</g>
<g id="#cca352ff">
<path fill="#cca352" opacity="1.00" d=" M 802.31 577.06 C 804.81 569.28 807.09 561.43 809.71 553.70 C 809.50 556.04 809.43 558.40 809.36 560.77 C 836.91 561.33 864.47 560.62 892.02 561.13 C 895.22 561.25 898.40 560.73 901.42 559.66 C 900.25 563.70 898.93 567.69 897.68 571.70 C 896.08 576.30 894.57 580.93 893.25 585.61 C 888.43 587.72 883.10 587.08 878.00 587.08 C 852.45 586.72 826.88 587.47 801.34 586.84 C 801.09 585.48 800.87 584.13 800.68 582.78 C 801.19 580.86 801.72 578.95 802.31 577.06 Z" />
<path fill="#cca352" opacity="1.00" d=" M 514.28 697.63 C 516.91 695.16 520.68 695.83 523.97 695.69 C 528.55 695.78 533.47 695.20 537.63 697.59 L 538.16 697.84 C 539.21 703.16 541.24 708.23 542.76 713.44 C 535.73 714.58 528.62 713.65 521.56 714.21 C 521.27 714.94 520.70 716.40 520.41 717.14 C 519.01 713.04 517.76 708.89 516.52 704.75 C 515.79 702.36 515.06 699.98 514.28 697.63 Z" />
</g>
<g id="#e4cb72ff">
<path fill="#e4cb72" opacity="1.00" d=" M 381.34 571.66 C 382.54 575.14 383.72 578.64 384.77 582.18 C 386.53 588.40 388.37 594.59 390.40 600.73 C 382.69 601.11 374.96 601.26 367.25 600.70 L 366.84 600.68 C 366.56 599.50 366.28 598.34 365.96 597.19 C 363.83 590.02 361.30 582.96 359.39 575.73 C 366.50 578.06 374.09 576.80 381.42 576.87 C 381.41 575.13 381.40 573.39 381.34 571.66 Z" />
<path fill="#e4cb72" opacity="1.00" d=" M 893.25 585.61 C 894.57 580.93 896.08 576.30 897.68 571.70 C 897.59 573.42 897.59 575.15 897.59 576.88 C 904.93 576.68 912.47 577.91 919.64 575.78 C 917.63 582.97 915.19 590.04 913.04 597.19 C 912.71 598.34 912.42 599.50 912.16 600.68 L 911.75 600.70 C 904.04 601.18 896.31 601.17 888.61 600.75 C 890.28 595.74 891.66 590.64 893.25 585.61 Z" />
</g>
<g id="#e3ca72ff">
<path fill="#e3ca72" opacity="1.00" d=" M 476.64 577.28 C 478.26 578.39 479.84 579.91 481.95 579.86 C 488.25 580.11 494.57 579.66 500.86 580.29 L 501.23 580.32 C 503.08 588.15 506.25 595.61 508.01 603.46 C 501.46 606.44 494.03 604.53 487.09 604.86 C 486.01 603.24 484.90 601.64 483.92 599.97 C 482.19 594.25 480.25 588.59 478.39 582.91 C 477.79 581.03 477.20 579.16 476.64 577.28 Z" />
</g>
<g id="#e3ca71ff">
<path fill="#e3ca71" opacity="1.00" d=" M 797.08 580.94 C 799.53 581.03 800.87 578.64 802.31 577.06 C 801.72 578.95 801.19 580.86 800.68 582.78 C 797.78 591.53 794.95 600.30 792.35 609.14 C 786.20 608.73 780.05 609.22 773.91 608.99 C 771.78 609.30 771.07 607.04 769.95 605.75 C 772.63 597.29 775.47 588.86 777.81 580.30 L 778.60 580.38 C 784.73 580.99 790.92 581.20 797.08 580.94 Z" />
<path fill="#e3ca71" opacity="1.00" d=" M 411.47 667.27 C 439.97 666.78 468.48 667.32 496.98 667.01 C 499.82 666.85 502.65 667.34 505.23 668.54 C 508.09 678.28 511.22 687.95 514.28 697.63 C 515.06 699.98 515.79 702.36 516.52 704.75 C 515.01 702.57 512.91 700.55 510.03 700.96 C 482.70 700.99 455.38 701.12 428.05 700.96 C 425.94 700.76 423.99 701.52 422.23 702.62 C 420.46 697.23 418.82 691.79 417.28 686.33 C 415.33 679.98 413.60 673.56 411.47 667.27 Z" />
</g>
<g id="#d3ae5bff">
<path fill="#d3ae5b" opacity="1.00" d=" M 384.77 582.18 C 385.80 583.45 386.79 584.86 388.26 585.68 C 390.76 586.32 393.38 586.17 395.95 586.19 C 407.96 585.95 419.97 586.24 431.98 586.08 C 447.14 585.82 462.33 586.64 477.47 585.76 C 477.70 585.05 478.16 583.62 478.39 582.91 C 480.25 588.59 482.19 594.25 483.92 599.97 C 485.71 607.26 488.04 614.40 490.64 621.44 C 486.57 624.12 481.52 622.71 476.98 622.90 C 452.33 623.02 427.68 622.65 403.04 623.09 C 401.45 623.03 399.85 622.96 398.32 622.55 C 396.81 620.65 396.19 618.23 395.38 615.99 C 393.74 610.90 392.14 605.79 390.40 600.73 C 388.37 594.59 386.53 588.40 384.77 582.18 Z" />
<path fill="#d3ae5b" opacity="1.00" d=" M 500.57 650.20 C 508.02 650.06 515.48 650.38 522.94 650.05 C 527.88 665.88 532.97 681.67 537.63 697.59 C 533.47 695.20 528.55 695.78 523.97 695.69 C 520.68 695.83 516.91 695.16 514.28 697.63 C 511.22 687.95 508.09 678.28 505.23 668.54 C 503.95 663.71 502.52 658.92 500.96 654.17 C 500.79 652.84 500.68 651.52 500.57 650.20 Z" />
<path fill="#d3ae5b" opacity="1.00" d=" M 868.85 663.87 C 876.70 663.78 884.58 664.24 892.41 663.38 C 890.59 669.04 888.67 674.69 887.21 680.46 C 887.12 680.46 886.92 680.45 886.82 680.45 C 879.11 680.07 871.36 679.60 863.67 680.53 C 865.17 674.90 867.11 669.42 868.85 663.87 Z" />
</g>
<g id="#d2ad5aff">
<path fill="#d2ad5a" opacity="1.00" d=" M 792.35 609.14 C 794.95 600.30 797.78 591.53 800.68 582.78 C 800.87 584.13 801.09 585.48 801.34 586.84 C 826.88 587.47 852.45 586.72 878.00 587.08 C 883.10 587.08 888.43 587.72 893.25 585.61 C 891.66 590.64 890.28 595.74 888.61 600.75 C 886.96 605.53 885.34 610.32 883.96 615.18 C 882.12 617.09 879.69 618.42 876.97 618.14 C 848.47 617.61 819.97 618.29 791.48 617.74 C 791.26 617.03 790.82 615.62 790.61 614.91 C 791.23 612.99 791.78 611.06 792.35 609.14 Z" />
<path fill="#d2ad5a" opacity="1.00" d=" M 750.97 665.64 L 751.25 665.65 C 758.46 666.02 765.69 665.56 772.89 666.10 C 772.32 669.53 771.81 672.97 771.18 676.39 C 770.69 678.07 770.23 679.76 769.78 681.45 C 768.82 685.14 767.56 688.74 766.33 692.35 C 766.51 689.96 766.57 687.58 766.64 685.19 C 759.49 684.84 752.30 684.79 745.17 685.47 C 746.71 678.74 749.48 672.38 750.97 665.64 Z" />
</g>
<g id="#dfc36cff">
<path fill="#dfc36c" opacity="1.00" d=" M 483.92 599.97 C 484.90 601.64 486.01 603.24 487.09 604.86 C 494.03 604.53 501.46 606.44 508.01 603.46 L 508.41 603.30 C 510.14 610.38 512.78 617.20 514.80 624.21 C 508.20 623.90 501.59 624.43 495.00 624.04 C 493.12 624.11 491.84 622.65 490.64 621.44 C 488.04 614.40 485.71 607.26 483.92 599.97 Z" />
<path fill="#dfc36c" opacity="1.00" d=" M 781.48 645.33 C 812.17 644.83 842.89 645.21 873.60 645.13 C 872.83 651.57 870.55 657.65 868.85 663.87 C 867.11 669.42 865.17 674.90 863.67 680.53 C 862.97 682.82 862.13 685.07 861.35 687.34 C 861.46 685.30 861.50 683.28 861.54 681.25 C 836.37 680.64 811.18 681.06 786.00 681.07 C 780.59 680.92 775.17 680.87 769.78 681.45 C 770.23 679.76 770.69 678.07 771.18 676.39 C 772.38 673.37 773.61 670.36 774.43 667.21 C 776.35 659.79 779.29 652.68 781.48 645.33 Z" />
</g>
<g id="#e0c56dff">
<path fill="#e0c56d" opacity="1.00" d=" M 367.25 600.70 C 374.96 601.26 382.69 601.11 390.40 600.73 C 392.14 605.79 393.74 610.90 395.38 615.99 C 395.16 616.71 394.71 618.14 394.48 618.86 C 387.16 619.42 379.75 619.55 372.47 618.40 C 370.84 612.47 368.74 606.67 367.25 600.70 Z" />
<path fill="#e0c56d" opacity="1.00" d=" M 883.96 615.18 C 885.34 610.32 886.96 605.53 888.61 600.75 C 896.31 601.17 904.04 601.18 911.75 600.70 C 910.25 606.67 908.17 612.47 906.53 618.40 C 899.18 619.80 891.67 619.33 884.25 618.97 C 884.12 617.70 884.02 616.44 883.96 615.18 Z" />
</g>
<g id="#dec16aff">
<path fill="#dec16a" opacity="1.00" d=" M 762.95 628.60 C 764.94 620.88 767.81 613.43 769.95 605.75 C 771.07 607.04 771.78 609.30 773.91 608.99 C 780.05 609.22 786.20 608.73 792.35 609.14 C 791.78 611.06 791.23 612.99 790.61 614.91 C 788.93 619.42 787.75 624.18 785.29 628.35 C 784.10 630.71 781.10 629.92 778.96 630.17 C 773.62 629.94 767.93 631.08 762.95 628.60 Z" />
<path fill="#dec16a" opacity="1.00" d=" M 406.54 649.03 C 436.99 648.92 467.46 648.89 497.92 649.06 C 498.96 650.74 500.02 652.42 500.96 654.17 C 502.52 658.92 503.95 663.71 505.23 668.54 C 502.65 667.34 499.82 666.85 496.98 667.01 C 468.48 667.32 439.97 666.78 411.47 667.27 C 410.21 663.97 408.95 660.67 407.95 657.29 C 407.41 654.54 406.99 651.78 406.54 649.03 Z" />
</g>
<g id="#d9b863ff">
<path fill="#d9b863" opacity="1.00" d=" M 785.29 628.35 C 787.75 624.18 788.93 619.42 790.61 614.91 C 790.82 615.62 791.26 617.03 791.48 617.74 C 819.97 618.29 848.47 617.61 876.97 618.14 C 879.69 618.42 882.12 617.09 883.96 615.18 C 884.02 616.44 884.12 617.70 884.25 618.97 C 891.67 619.33 899.18 619.80 906.53 618.40 C 901.79 633.38 897.04 648.36 892.41 663.38 C 884.58 664.24 876.70 663.78 868.85 663.87 C 870.55 657.65 872.83 651.57 873.60 645.13 C 842.89 645.21 812.17 644.83 781.48 645.33 C 779.29 652.68 776.35 659.79 774.43 667.21 C 773.61 670.36 772.38 673.37 771.18 676.39 C 771.81 672.97 772.32 669.53 772.89 666.10 C 765.69 665.56 758.46 666.02 751.25 665.65 C 751.84 663.76 752.38 661.87 752.86 659.96 C 756.28 649.52 759.67 639.05 762.63 628.47 C 762.71 628.51 762.87 628.57 762.95 628.60 C 767.93 631.08 773.62 629.94 778.96 630.17 C 781.10 629.92 784.10 630.71 785.29 628.35 Z" />
</g>
<g id="#daba64ff">
<path fill="#daba64" opacity="1.00" d=" M 395.38 615.99 C 396.19 618.23 396.81 620.65 398.32 622.55 C 399.85 622.96 401.45 623.03 403.04 623.09 C 427.68 622.65 452.33 623.02 476.98 622.90 C 481.52 622.71 486.57 624.12 490.64 621.44 C 491.84 622.65 493.12 624.11 495.00 624.04 C 501.59 624.43 508.20 623.90 514.80 624.21 C 517.65 632.78 520.14 641.46 522.94 650.05 C 515.48 650.38 508.02 650.06 500.57 650.20 C 500.68 651.52 500.79 652.84 500.96 654.17 C 500.02 652.42 498.96 650.74 497.92 649.06 C 467.46 648.89 436.99 648.92 406.54 649.03 C 406.99 651.78 407.41 654.54 407.95 657.29 C 407.13 655.61 406.20 653.98 405.30 652.35 C 398.20 651.81 391.08 652.06 383.98 652.33 L 383.28 652.01 C 379.28 640.95 376.21 629.55 372.47 618.40 C 379.75 619.55 387.16 619.42 394.48 618.86 C 394.71 618.14 395.16 616.71 395.38 615.99 Z" />
</g>
<g id="#d4af5cff">
<path fill="#d4af5c" opacity="1.00" d=" M 383.98 652.33 C 391.08 652.06 398.20 651.81 405.30 652.35 C 406.20 653.98 407.13 655.61 407.95 657.29 C 408.95 660.67 410.21 663.97 411.47 667.27 C 413.60 673.56 415.33 679.98 417.28 686.33 C 409.55 683.77 401.33 686.16 393.44 684.70 L 392.97 684.64 C 390.52 673.85 386.06 663.49 383.58 652.77 L 383.98 652.33 Z" />
</g>
<g id="#cea654ff">
<path fill="#cea654" opacity="1.00" d=" M 863.67 680.53 C 871.36 679.60 879.11 680.07 886.82 680.45 C 883.67 691.67 879.99 702.76 876.58 713.92 C 869.25 714.17 861.90 713.42 854.59 714.27 C 853.47 716.61 852.25 718.90 851.05 721.20 C 854.03 709.78 858.06 698.67 861.35 687.34 C 862.13 685.07 862.97 682.82 863.67 680.53 Z" />
<path fill="#cea654" opacity="1.00" d=" M 745.17 685.47 C 752.30 684.79 759.49 684.84 766.64 685.19 C 766.57 687.58 766.51 689.96 766.33 692.35 C 764.77 697.45 763.18 702.55 761.53 707.64 C 753.85 706.34 746.05 707.40 738.32 706.84 C 740.41 699.70 743.03 692.71 744.84 685.49 L 745.17 685.47 Z" />
</g>
<g id="#e6cf75ff">
<path fill="#e6cf75" opacity="1.00" d=" M 769.78 681.45 C 775.17 680.87 780.59 680.92 786.00 681.07 C 811.18 681.06 836.37 680.64 861.54 681.25 C 861.50 683.28 861.46 685.30 861.35 687.34 C 858.06 698.67 854.03 709.78 851.05 721.20 C 850.99 721.37 850.87 721.70 850.80 721.87 C 844.30 720.34 837.60 721.04 830.99 720.95 C 813.32 720.88 795.66 721.08 777.99 720.94 C 771.52 721.04 765.04 720.66 758.59 721.23 C 757.67 724.35 756.38 727.35 754.70 730.13 C 756.56 722.51 759.17 715.11 761.53 707.64 C 763.18 702.55 764.77 697.45 766.33 692.35 C 767.56 688.74 768.82 685.14 769.78 681.45 Z" />
</g>
<g id="#ca9f4fff">
<path fill="#ca9f4f" opacity="1.00" d=" M 730.07 733.10 C 732.74 724.32 735.53 715.58 738.32 706.84 C 746.05 707.40 753.85 706.34 761.53 707.64 C 759.17 715.11 756.56 722.51 754.70 730.13 C 753.83 732.46 752.99 734.80 752.22 737.16 C 752.03 735.82 751.83 734.48 751.62 733.16 C 744.44 732.73 737.25 732.97 730.07 733.10 Z" />
</g>
<g id="#c99d4eff">
<path fill="#c99d4e" opacity="1.00" d=" M 542.76 713.44 C 545.54 722.08 548.34 730.73 550.76 739.48 C 543.26 736.77 535.00 737.87 527.26 738.74 C 524.85 731.58 522.83 724.29 520.41 717.14 C 520.70 716.40 521.27 714.94 521.56 714.21 C 528.62 713.65 535.73 714.58 542.76 713.44 Z" />
</g>
<g id="#c89d4eff">
<path fill="#c89d4e" opacity="1.00" d=" M 854.59 714.27 C 861.90 713.42 869.25 714.17 876.58 713.92 C 874.20 721.97 871.55 729.94 869.02 737.95 C 861.16 738.22 853.28 737.62 845.45 738.50 C 847.09 732.91 848.74 727.32 850.80 721.87 C 850.87 721.70 850.99 721.37 851.05 721.20 C 852.25 718.90 853.47 716.61 854.59 714.27 Z" />
<path fill="#c89d4e" opacity="1.00" d=" M 457.94 817.69 L 458.64 818.11 C 460.53 824.93 462.83 831.63 464.88 838.41 C 466.58 844.15 468.55 849.81 470.15 855.59 C 470.52 858.37 470.87 861.16 471.32 863.93 C 464.22 864.56 456.90 862.76 450.00 865.11 L 449.65 865.21 C 446.88 854.54 442.75 844.28 440.03 833.61 C 447.19 832.43 454.45 833.27 461.66 832.90 C 460.21 827.88 458.54 822.90 457.94 817.69 Z" />
<path fill="#c89d4e" opacity="1.00" d=" M 718.06 834.86 C 719.89 834.85 721.19 833.42 722.49 832.33 C 722.07 833.64 721.67 834.96 721.27 836.29 C 719.24 842.27 717.49 848.35 715.51 854.35 C 714.40 857.59 713.16 860.79 712.19 864.08 C 704.65 863.93 697.09 864.32 689.58 863.57 C 691.70 853.55 695.62 844.02 698.37 834.17 C 704.87 835.15 711.50 835.28 718.06 834.86 Z" />
</g>
<g id="#e7d57bff">
<path fill="#e7d57b" opacity="1.00" d=" M 758.59 721.23 C 765.04 720.66 771.52 721.04 777.99 720.94 C 795.66 721.08 813.32 720.88 830.99 720.95 C 837.60 721.04 844.30 720.34 850.80 721.87 C 848.74 727.32 847.09 732.91 845.45 738.50 C 840.50 754.55 835.14 770.46 830.40 786.57 C 828.06 787.49 825.60 788.20 823.07 788.12 C 794.76 787.73 766.44 788.40 738.14 787.85 C 738.90 784.46 739.39 781.02 739.77 777.57 C 743.61 764.01 748.14 750.65 752.22 737.16 C 752.99 734.80 753.83 732.46 754.70 730.13 C 756.38 727.35 757.67 724.35 758.59 721.23 Z" />
</g>
<g id="#c59749ff">
<path fill="#c59749" opacity="1.00" d=" M 730.07 733.10 C 737.25 732.97 744.44 732.73 751.62 733.16 C 751.83 734.48 752.03 735.82 752.22 737.16 C 748.14 750.65 743.61 764.01 739.77 777.57 C 735.83 789.19 732.34 800.97 728.69 812.69 C 726.49 819.19 724.43 825.74 722.49 832.33 C 721.19 833.42 719.89 834.85 718.06 834.86 C 711.50 835.28 704.87 835.15 698.37 834.17 C 709.09 800.53 719.38 766.75 730.07 733.10 Z" />
<path fill="#c59749" opacity="1.00" d=" M 409.97 737.90 C 417.83 737.97 425.72 737.52 433.55 738.49 C 438.47 754.56 443.86 770.49 448.61 786.62 C 451.64 796.99 455.70 807.11 457.94 817.69 C 458.54 822.90 460.21 827.88 461.66 832.90 C 454.45 833.27 447.19 832.43 440.03 833.61 L 439.80 833.64 C 430.06 801.67 419.81 769.84 409.97 737.90 Z" />
<path fill="#c59749" opacity="1.00" d=" M 527.26 738.74 C 535.00 737.87 543.26 736.77 550.76 739.48 L 551.12 739.60 C 561.08 772.28 571.46 804.82 581.58 837.45 C 574.38 840.54 566.35 838.15 558.79 839.13 C 558.72 838.91 558.58 838.48 558.50 838.26 C 555.57 829.78 553.28 821.11 550.31 812.65 C 546.64 800.94 543.16 789.18 539.24 777.57 C 535.55 764.53 531.22 751.69 527.26 738.74 Z" />
<path fill="#c59749" opacity="1.00" d=" M 845.45 738.50 C 853.28 737.62 861.16 738.22 869.02 737.95 C 859.51 768.81 849.59 799.54 840.21 830.44 L 839.93 830.60 C 838.06 831.65 836.17 832.87 833.98 832.99 C 828.45 833.33 822.90 833.02 817.37 832.88 C 818.74 827.97 820.39 823.12 821.03 818.05 C 821.68 812.63 823.88 807.60 825.40 802.40 C 827.00 797.10 828.73 791.84 830.40 786.57 C 835.14 770.46 840.50 754.55 845.45 738.50 Z" />
</g>
<g id="#e1cf77ff">
<path fill="#e1cf77" opacity="1.00" d=" M 539.24 777.57 C 543.16 789.18 546.64 800.94 550.31 812.65 C 550.36 814.37 550.38 816.12 550.39 817.86 C 519.81 818.14 489.22 817.72 458.64 818.11 L 457.94 817.69 C 455.70 807.11 451.64 796.99 448.61 786.62 C 453.16 788.57 458.17 788.13 463.00 788.02 C 488.93 787.93 514.88 788.29 540.81 787.88 C 540.07 784.47 539.60 781.02 539.24 777.57 Z" />
<path fill="#e1cf77" opacity="1.00" d=" M 728.69 812.69 C 732.34 800.97 735.83 789.19 739.77 777.57 C 739.39 781.02 738.90 784.46 738.14 787.85 C 766.44 788.40 794.76 787.73 823.07 788.12 C 825.60 788.20 828.06 787.49 830.40 786.57 C 828.73 791.84 827.00 797.10 825.40 802.40 C 823.88 807.60 821.68 812.63 821.03 818.05 L 820.30 818.08 C 789.74 817.70 759.17 818.14 728.61 817.88 C 728.61 816.15 728.61 814.41 728.69 812.69 Z" />
</g>
<g id="#dac771ff">
<path fill="#dac771" opacity="1.00" d=" M 550.31 812.65 C 553.28 821.11 555.57 829.78 558.50 838.26 C 551.76 839.72 544.86 839.01 538.03 839.10 C 518.38 839.06 498.72 839.01 479.07 839.12 C 474.33 839.27 469.57 839.15 464.88 838.41 C 462.83 831.63 460.53 824.93 458.64 818.11 C 489.22 817.72 519.81 818.14 550.39 817.86 C 550.38 816.12 550.36 814.37 550.31 812.65 Z" />
</g>
<g id="#dbc771ff">
<path fill="#dbc771" opacity="1.00" d=" M 722.49 832.33 C 724.43 825.74 726.49 819.19 728.69 812.69 C 728.61 814.41 728.61 816.15 728.61 817.88 C 759.17 818.14 789.74 817.70 820.30 818.08 C 818.59 824.55 816.40 830.87 814.38 837.24 C 789.60 836.57 764.82 837.29 740.04 836.99 C 733.78 836.89 727.46 837.48 721.27 836.29 C 721.67 834.96 722.07 833.64 722.49 832.33 Z" />
</g>
<g id="#c89f4fff">
<path fill="#c89f4f" opacity="1.00" d=" M 820.30 818.08 L 821.03 818.05 C 820.39 823.12 818.74 827.97 817.37 832.88 C 822.90 833.02 828.45 833.33 833.98 832.99 C 836.17 832.87 838.06 831.65 839.93 830.60 C 835.28 846.88 829.72 862.88 824.82 879.09 C 817.06 878.90 809.23 879.77 801.56 878.32 C 804.32 870.43 806.68 862.41 809.10 854.41 C 810.87 848.69 812.70 842.99 814.38 837.24 C 816.40 830.87 818.59 824.55 820.30 818.08 Z" />
</g>
<g id="#d5c06cff">
<path fill="#d5c06c" opacity="1.00" d=" M 715.51 854.35 C 717.49 848.35 719.24 842.27 721.27 836.29 C 727.46 837.48 733.78 836.89 740.04 836.99 C 764.82 837.29 789.60 836.57 814.38 837.24 C 812.70 842.99 810.87 848.69 809.10 854.41 C 798.78 855.87 788.34 854.77 777.97 855.11 C 760.30 855.12 742.64 855.05 724.98 855.16 C 721.80 855.21 718.64 854.86 715.51 854.35 Z" />
</g>
<g id="#c89e4fff">
<path fill="#c89e4f" opacity="1.00" d=" M 558.79 839.13 C 566.35 838.15 574.38 840.54 581.58 837.45 C 585.16 848.29 588.48 859.22 591.75 870.15 C 585.34 867.89 578.52 869.56 571.93 868.93 C 570.04 868.93 568.76 867.39 567.46 866.26 C 567.08 865.13 566.71 864.02 566.33 862.91 C 563.48 855.09 561.29 847.06 558.79 839.13 Z" />
</g>
<g id="#d2bd6aff">
<path fill="#d2bd6a" opacity="1.00" d=" M 464.88 838.41 C 469.57 839.15 474.33 839.27 479.07 839.12 C 498.72 839.01 518.38 839.06 538.03 839.10 C 544.86 839.01 551.76 839.72 558.50 838.26 C 558.58 838.48 558.72 838.91 558.79 839.13 C 561.29 847.06 563.48 855.09 566.33 862.91 C 566.10 863.62 565.66 865.04 565.43 865.75 C 546.63 866.08 527.81 865.77 509.01 865.86 C 497.26 866.00 485.50 865.48 473.77 866.21 C 472.86 862.57 471.50 859.08 470.15 855.59 C 468.55 849.81 466.58 844.15 464.88 838.41 Z" />
</g>
<g id="#ccb664ff">
<path fill="#ccb664" opacity="1.00" d=" M 712.19 864.08 C 713.16 860.79 714.40 857.59 715.51 854.35 C 718.64 854.86 721.80 855.21 724.98 855.16 C 742.64 855.05 760.30 855.12 777.97 855.11 C 788.34 854.77 798.78 855.87 809.10 854.41 C 806.68 862.41 804.32 870.43 801.56 878.32 C 801.40 878.81 801.09 879.79 800.93 880.28 C 795.99 881.12 790.98 881.05 785.99 880.90 C 765.33 880.76 744.66 880.96 724.00 880.87 C 718.44 880.93 712.85 881.29 707.36 880.30 C 709.43 875.04 710.73 869.53 712.19 864.08 Z" />
</g>
<g id="#c9b262ff">
<path fill="#c9b262" opacity="1.00" d=" M 566.33 862.91 C 566.71 864.02 567.08 865.13 567.46 866.26 C 568.79 871.83 570.43 877.31 572.33 882.72 C 549.89 883.47 527.44 882.67 505.00 883.04 C 496.21 882.79 487.39 883.45 478.63 882.50 C 477.25 877.00 475.12 871.72 473.77 866.21 C 485.50 865.48 497.26 866.00 509.01 865.86 C 527.81 865.77 546.63 866.08 565.43 865.75 C 565.66 865.04 566.10 863.62 566.33 862.91 Z" />
</g>
<g id="#cba453ff">
<path fill="#cba453" opacity="1.00" d=" M 567.46 866.26 C 568.76 867.39 570.04 868.93 571.93 868.93 C 578.52 869.56 585.34 867.89 591.75 870.15 C 593.83 875.67 595.12 881.46 597.14 887.01 C 596.78 887.49 596.07 888.46 595.72 888.94 C 588.69 889.36 581.55 888.20 574.63 889.92 C 573.87 887.51 573.11 885.11 572.33 882.72 C 570.43 877.31 568.79 871.83 567.46 866.26 Z" />
</g>
<g id="#c3aa5cff">
<path fill="#c3aa5c" opacity="1.00" d=" M 704.88 888.04 C 705.62 885.42 706.44 882.84 707.36 880.30 C 712.85 881.29 718.44 880.93 724.00 880.87 C 744.66 880.96 765.33 880.76 785.99 880.90 C 790.98 881.05 795.99 881.12 800.93 880.28 C 798.87 887.04 796.75 893.78 794.68 900.54 C 790.23 898.00 784.92 899.38 780.07 899.10 C 753.98 898.94 727.88 899.39 701.80 898.87 C 702.91 895.28 703.87 891.65 704.88 888.04 Z" />
</g>
<g id="#c2a95bff">
<path fill="#c2a95b" opacity="1.00" d=" M 478.63 882.50 C 487.39 883.45 496.21 882.79 505.00 883.04 C 527.44 882.67 549.89 883.47 572.33 882.72 C 573.11 885.11 573.87 887.51 574.63 889.92 C 575.82 893.78 577.04 897.63 578.23 901.50 C 576.24 900.71 574.18 900.02 572.02 900.07 C 549.68 900.18 527.35 900.11 505.01 900.13 C 498.17 900.22 491.26 899.62 484.49 900.90 C 483.14 896.85 481.64 892.86 480.35 888.80 C 479.71 886.71 479.17 884.60 478.63 882.50 Z" />
</g>
<g id="#cea958ff">
<path fill="#cea958" opacity="1.00" d=" M 597.14 887.01 C 599.59 895.02 602.03 903.03 604.57 911.02 C 597.45 911.19 590.32 910.71 583.20 911.15 C 583.35 913.87 583.51 916.60 583.87 919.32 C 581.56 913.51 579.94 907.49 578.23 901.50 C 577.04 897.63 575.82 893.78 574.63 889.92 C 581.55 888.20 588.69 889.36 595.72 888.94 C 596.07 888.46 596.78 887.49 597.14 887.01 Z" />
<path fill="#cea958" opacity="1.00" d=" M 681.56 887.54 L 681.86 887.61 C 684.48 888.43 687.26 888.14 689.97 888.06 C 694.94 887.85 699.91 888.05 704.88 888.04 C 703.87 891.65 702.91 895.28 701.80 898.87 C 700.42 903.34 698.86 907.75 697.42 912.21 C 690.70 909.45 683.28 911.88 676.26 910.92 C 675.96 910.56 675.37 909.86 675.07 909.50 C 676.98 902.11 679.69 894.94 681.56 887.54 Z" />
</g>
<g id="#d0ae5cff">
<path fill="#d0ae5c" opacity="1.00" d=" M 460.66 894.57 C 460.55 891.75 463.33 889.43 466.00 889.28 C 470.77 888.94 475.57 889.20 480.35 888.80 C 481.64 892.86 483.14 896.85 484.49 900.90 C 487.32 909.60 489.61 918.47 492.62 927.11 C 494.78 933.28 496.68 939.53 498.44 945.83 C 497.21 944.36 496.18 942.18 494.04 942.01 C 489.37 941.48 484.62 941.52 479.95 942.00 C 477.59 942.06 476.46 944.41 475.01 945.91 C 471.12 933.16 467.02 920.48 463.19 907.71 L 462.83 907.07 C 462.21 904.80 461.37 902.59 460.99 900.28 C 460.78 898.37 460.61 896.47 460.66 894.57 Z" />
</g>
<g id="#baa054ff">
<path fill="#baa054" opacity="1.00" d=" M 701.80 898.87 C 727.88 899.39 753.98 898.94 780.07 899.10 C 784.92 899.38 790.23 898.00 794.68 900.54 C 792.65 906.92 790.72 913.34 788.53 919.68 C 781.07 918.37 773.49 919.43 765.97 919.15 C 742.49 918.85 718.98 919.67 695.51 918.71 C 696.12 916.53 696.74 914.35 697.42 912.21 C 698.86 907.75 700.42 903.34 701.80 898.87 Z" />
</g>
<g id="#d2b05dff">
<path fill="#d2b05d" opacity="1.00" d=" M 674.74 909.12 L 675.07 909.50 C 675.37 909.86 675.96 910.56 676.26 910.92 C 683.28 911.88 690.70 909.45 697.42 912.21 C 696.74 914.35 696.12 916.53 695.51 918.71 C 693.59 925.22 691.37 931.64 689.31 938.11 C 689.11 937.38 688.71 935.92 688.51 935.19 C 682.98 935.00 677.44 934.78 671.91 934.99 C 669.86 934.96 668.02 935.93 666.32 936.96 C 668.92 927.62 672.50 918.55 674.74 909.12 Z" />
</g>
<g id="#d2b05eff">
<path fill="#d2b05e" opacity="1.00" d=" M 583.20 911.15 C 590.32 910.71 597.45 911.19 604.57 911.02 C 606.85 919.26 610.23 927.25 611.91 935.61 C 611.78 935.79 611.51 936.13 611.38 936.31 C 607.08 936.38 602.67 935.30 598.47 936.53 C 595.31 938.07 593.50 941.28 591.46 943.99 C 589.76 938.58 587.98 933.19 586.37 927.76 C 585.54 924.93 584.75 922.11 583.87 919.32 C 583.51 916.60 583.35 913.87 583.20 911.15 Z" />
</g>
<g id="#b1944bff">
<path fill="#b1944b" opacity="1.00" d=" M 689.31 938.11 C 691.37 931.64 693.59 925.22 695.51 918.71 C 718.98 919.67 742.49 918.85 765.97 919.15 C 773.49 919.43 781.07 918.37 788.53 919.68 C 787.48 922.92 786.57 926.20 785.63 929.48 C 784.03 934.81 782.30 940.10 780.66 945.43 C 780.25 946.68 779.84 947.95 779.46 949.23 C 779.21 947.87 778.95 946.53 778.68 945.20 C 768.12 944.39 757.51 945.04 746.93 944.85 C 731.27 945.00 715.62 944.76 699.96 944.87 C 695.51 944.81 690.90 944.54 686.73 946.38 C 687.53 943.60 688.40 940.85 689.31 938.11 Z" />
</g>
<g id="#af914aff">
<path fill="#af914a" opacity="1.00" d=" M 493.46 924.12 C 522.29 923.89 551.13 924.25 579.96 923.93 C 582.88 923.46 584.97 925.47 586.37 927.76 C 587.98 933.19 589.76 938.58 591.46 943.99 C 591.66 944.62 592.05 945.88 592.24 946.51 C 584.19 945.62 576.08 946.23 568.00 946.01 C 545.50 946.19 522.98 945.51 500.49 946.17 C 500.23 946.90 499.72 948.36 499.47 949.09 C 499.12 947.99 498.78 946.90 498.44 945.83 C 496.68 939.53 494.78 933.28 492.62 927.11 C 492.83 926.36 493.25 924.87 493.46 924.12 Z" />
</g>
<g id="#d4b461ff">
<path fill="#d4b461" opacity="1.00" d=" M 785.63 929.48 C 792.84 928.75 800.29 927.93 807.40 929.82 C 807.07 932.22 806.84 934.63 806.56 937.04 C 805.92 939.95 804.75 942.72 804.18 945.65 L 803.88 945.62 C 796.18 945.38 788.08 942.18 780.66 945.43 C 782.30 940.10 784.03 934.81 785.63 929.48 Z" />
</g>
<g id="#d6b864ff">
<path fill="#d6b864" opacity="1.00" d=" M 666.32 936.96 C 668.02 935.93 669.86 934.96 671.91 934.99 C 677.44 934.78 682.98 935.00 688.51 935.19 C 688.71 935.92 689.11 937.38 689.31 938.11 C 688.40 940.85 687.53 943.60 686.73 946.38 C 685.81 949.65 684.79 952.91 683.26 955.96 C 683.05 955.28 682.64 953.93 682.43 953.25 C 674.21 952.72 665.96 953.46 657.76 952.60 C 659.95 949.82 662.58 947.26 663.92 943.92 C 664.92 941.67 665.33 939.21 666.32 936.96 Z" />
</g>
<g id="#d8bb66ff">
<path fill="#d8bb66" opacity="1.00" d=" M 475.01 945.91 C 476.46 944.41 477.59 942.06 479.95 942.00 C 484.62 941.52 489.37 941.48 494.04 942.01 C 496.18 942.18 497.21 944.36 498.44 945.83 C 498.78 946.90 499.12 947.99 499.47 949.09 C 500.80 953.29 502.17 957.49 503.47 961.71 C 499.01 959.35 493.81 959.74 488.96 960.04 C 485.61 960.10 483.47 962.99 481.09 964.92 C 479.46 959.61 477.70 954.35 476.13 949.04 C 475.74 947.99 475.37 946.94 475.01 945.91 Z" />
</g>
<g id="#d8bb67ff">
<path fill="#d8bb67" opacity="1.00" d=" M 780.66 945.43 C 788.08 942.18 796.18 945.38 803.88 945.62 C 803.57 946.76 803.25 947.91 802.92 949.06 C 801.91 952.09 801.04 955.17 799.99 958.19 C 792.77 963.05 783.03 957.16 775.52 961.69 C 776.78 957.52 778.21 953.40 779.46 949.23 C 779.84 947.95 780.25 946.68 780.66 945.43 Z" />
</g>
<g id="#a68641ff">
<path fill="#a68641" opacity="1.00" d=" M 686.73 946.38 C 690.90 944.54 695.51 944.81 699.96 944.87 C 715.62 944.76 731.27 945.00 746.93 944.85 C 757.51 945.04 768.12 944.39 778.68 945.20 C 778.95 946.53 779.21 947.87 779.46 949.23 C 778.21 953.40 776.78 957.52 775.52 961.69 C 774.63 964.72 773.72 967.75 772.69 970.73 C 766.49 969.48 760.18 970.31 753.93 970.20 C 737.62 970.12 721.31 970.22 705.00 970.17 C 693.55 969.98 682.08 970.63 670.65 969.77 C 674.76 965.08 679.78 961.18 683.26 955.96 C 684.79 952.91 685.81 949.65 686.73 946.38 Z" />
</g>
<g id="#a78742ff">
<path fill="#a78742" opacity="1.00" d=" M 500.49 946.17 C 522.98 945.51 545.50 946.19 568.00 946.01 C 576.08 946.23 584.19 945.62 592.24 946.51 C 593.28 949.96 594.39 953.42 596.16 956.59 C 597.44 958.37 598.83 960.09 600.34 961.70 C 586.24 962.45 572.12 961.90 558.01 962.06 C 540.50 962.16 523.00 961.89 505.50 962.17 C 505.67 964.82 505.83 967.48 506.14 970.13 C 505.20 967.34 504.29 964.53 503.47 961.71 C 502.17 957.49 500.80 953.29 499.47 949.09 C 499.72 948.36 500.23 946.90 500.49 946.17 Z" />
</g>
<g id="#dbc16bff">
<path fill="#dbc16b" opacity="1.00" d=" M 657.20 952.58 L 657.76 952.60 C 665.96 953.46 674.21 952.72 682.43 953.25 C 682.64 953.93 683.05 955.28 683.26 955.96 C 679.78 961.18 674.76 965.08 670.65 969.77 C 668.19 972.33 665.64 974.94 662.42 976.55 C 657.04 979.24 650.94 979.90 645.01 980.19 C 636.40 980.43 627.60 980.44 619.29 977.83 C 611.45 974.51 606.47 967.26 600.34 961.70 C 598.83 960.09 597.44 958.37 596.16 956.59 C 598.22 955.35 600.55 954.70 602.97 954.88 C 609.82 955.04 616.69 955.28 623.52 954.54 L 623.89 954.51 C 630.29 958.83 638.64 960.60 646.14 958.47 C 650.16 957.34 654.44 955.90 657.20 952.58 Z" />
</g>
<g id="#dcc36dff">
<path fill="#dcc36d" opacity="1.00" d=" M 775.52 961.69 C 783.03 957.16 792.77 963.05 799.99 958.19 C 797.33 966.84 794.72 975.51 791.76 984.06 C 791.43 983.38 790.77 982.00 790.44 981.32 C 783.46 980.83 776.47 981.25 769.50 980.73 C 770.48 977.37 771.53 974.03 772.69 970.73 C 773.72 967.75 774.63 964.72 775.52 961.69 Z" />
</g>
<g id="#a07f3cff">
<path fill="#a07f3c" opacity="1.00" d=" M 505.50 962.17 C 523.00 961.89 540.50 962.16 558.01 962.06 C 572.12 961.90 586.24 962.45 600.34 961.70 C 606.47 967.26 611.45 974.51 619.29 977.83 C 583.17 978.54 547.01 977.60 510.89 978.32 C 510.52 978.84 509.78 979.88 509.40 980.40 L 509.08 980.57 C 508.33 977.03 507.26 973.57 506.14 970.13 C 505.83 967.48 505.67 964.82 505.50 962.17 Z" />
</g>
<g id="#9a7736ff">
<path fill="#9a7736" opacity="1.00" d=" M 662.42 976.55 C 665.64 974.94 668.19 972.33 670.65 969.77 C 682.08 970.63 693.55 969.98 705.00 970.17 C 721.31 970.22 737.62 970.12 753.93 970.20 C 760.18 970.31 766.49 969.48 772.69 970.73 C 771.53 974.03 770.48 977.37 769.50 980.73 C 767.37 987.76 765.23 994.80 762.95 1001.79 C 758.97 998.62 753.66 1000.12 749.01 999.94 C 677.34 999.94 605.67 999.87 534.01 1000.02 C 528.03 1000.26 521.49 998.50 516.02 1001.66 C 513.68 994.61 511.57 987.49 509.40 980.40 C 509.78 979.88 510.52 978.84 510.89 978.32 C 547.01 977.60 583.17 978.54 619.29 977.83 C 627.60 980.44 636.40 980.43 645.01 980.19 C 650.94 979.90 657.04 979.24 662.42 976.55 Z" />
</g>
<g id="#926d2fff">
<path fill="#926d2f" opacity="1.00" d=" M 516.02 1001.66 C 521.49 998.50 528.03 1000.26 534.01 1000.02 C 605.67 999.87 677.34 999.94 749.01 999.94 C 753.66 1000.12 758.97 998.62 762.95 1001.79 C 762.34 1003.73 761.79 1005.71 761.30 1007.70 C 759.82 1013.83 758.00 1019.88 755.80 1025.80 C 749.27 1024.45 742.59 1025.21 735.99 1025.14 C 673.67 1025.15 611.35 1025.09 549.04 1025.11 C 540.42 1025.08 531.75 1024.61 523.18 1025.77 C 520.86 1019.47 518.92 1013.04 517.44 1006.50 C 516.99 1004.87 516.52 1003.25 516.02 1001.66 Z" />
</g>
</svg>
