<?xml version="1.0" encoding="UTF-8" ?>
<!DOCTYPE svg PUBLIC "-//W3C//DTD SVG 1.1//EN" "http://www.w3.org/Graphics/SVG/1.1/DTD/svg11.dtd">
<svg width="1276pt" height="1276pt" viewBox="0 0 1276 1276" version="1.1" xmlns="http://www.w3.org/2000/svg">
<g id="#f1dd6eff">
<path fill="#f1dd6e" opacity="1.00" d=" M 622.07 182.83 C 682.43 180.42 742.87 189.41 801.04 205.34 C 841.19 216.43 880.43 230.89 918.12 248.63 C 930.47 254.49 942.72 260.59 954.53 267.46 C 950.02 267.89 945.50 268.15 940.98 268.02 C 882.00 268.04 823.02 267.94 764.04 268.01 C 758.49 267.87 752.92 267.80 747.42 268.64 C 713.67 251.74 675.47 245.64 637.99 246.16 C 603.54 246.75 568.30 252.28 537.54 268.56 C 529.38 267.54 521.16 268.15 512.97 268.04 C 454.99 267.95 397.01 268.03 339.03 268.00 C 334.09 268.05 329.04 268.47 324.25 266.98 C 359.90 247.59 397.40 231.69 435.86 218.76 C 495.94 198.60 558.67 185.40 622.07 182.83 Z" />
</g>
<g id="#efd969ff">
<path fill="#efd969" opacity="1.00" d=" M 271.00 302.14 C 287.28 288.36 305.59 277.22 324.25 266.98 C 329.04 268.47 334.09 268.05 339.03 268.00 C 397.01 268.03 454.99 267.95 512.97 268.04 C 521.16 268.15 529.38 267.54 537.54 268.56 C 525.68 274.86 514.75 282.86 505.03 292.12 C 491.81 304.99 481.43 320.58 473.85 337.36 C 467.59 336.83 461.30 336.96 455.02 337.04 C 406.58 336.89 358.14 337.24 309.70 336.90 C 297.88 323.48 279.75 316.38 262.03 316.69 C 262.04 314.80 262.04 312.91 262.00 311.03 C 264.53 307.62 267.89 304.98 271.00 302.14 Z" />
<path fill="#efd969" opacity="1.00" d=" M 747.42 268.64 C 752.92 267.80 758.49 267.87 764.04 268.01 C 823.02 267.94 882.00 268.04 940.98 268.02 C 945.50 268.15 950.02 267.89 954.53 267.46 C 965.47 273.22 975.94 279.90 986.23 286.78 C 996.50 293.88 1006.62 301.39 1015.12 310.61 C 1015.28 312.64 1015.49 314.66 1015.63 316.70 C 1001.71 316.31 987.79 320.84 976.47 328.91 C 977.29 331.74 978.11 334.58 978.88 337.44 L 977.99 337.53 C 971.03 338.31 964.02 337.87 957.04 338.00 C 919.38 338.02 881.72 337.93 844.06 337.97 C 836.51 338.00 828.94 337.65 821.41 338.37 C 813.19 325.05 803.79 312.34 792.51 301.45 C 779.49 288.05 763.95 277.26 747.42 268.64 Z" />
</g>
<g id="#edd462ff">
<path fill="#edd462" opacity="1.00" d=" M 309.70 336.90 C 358.14 337.24 406.58 336.89 455.02 337.04 C 461.30 336.96 467.59 336.83 473.85 337.36 C 463.93 359.66 458.90 383.83 456.65 408.04 C 411.17 407.87 365.69 407.99 320.21 407.96 C 320.22 393.29 320.18 378.62 320.22 363.95 C 320.13 353.99 316.01 344.49 309.70 336.90 Z" />
</g>
<g id="#eed463ff">
<path fill="#eed463" opacity="1.00" d=" M 821.41 338.37 C 828.94 337.65 836.51 338.00 844.06 337.97 C 881.72 337.93 919.38 338.02 957.04 338.00 C 964.02 337.87 971.03 338.31 977.99 337.53 L 978.95 337.44 C 983.60 354.25 988.07 371.11 992.22 388.05 C 951.82 387.97 911.43 388.09 871.04 388.00 C 862.11 388.22 853.18 387.62 844.27 388.36 C 838.34 370.99 830.96 354.08 821.41 338.37 Z" />
</g>
<g id="#eccf5dff">
<path fill="#eccf5d" opacity="1.00" d=" M 844.27 388.36 C 853.18 387.62 862.11 388.22 871.04 388.00 C 911.43 388.09 951.82 387.97 992.22 388.05 C 995.97 403.69 999.49 419.39 1002.34 435.22 C 1003.06 440.64 1004.63 445.95 1004.86 451.43 C 992.61 450.52 980.31 451.15 968.04 451.00 C 931.55 451.04 895.06 450.97 858.58 451.00 C 855.69 429.75 850.95 408.74 844.27 388.36 Z" />
</g>
<g id="#ebce5bff">
<path fill="#ebce5b" opacity="1.00" d=" M 320.21 407.96 C 365.69 407.99 411.17 407.87 456.65 408.04 C 455.00 425.65 455.45 443.34 455.41 461.01 C 410.34 461.04 365.27 461.03 320.21 461.04 C 320.22 443.34 320.19 425.65 320.21 407.96 Z" />
</g>
<g id="#eaca57ff">
<path fill="#eaca57" opacity="1.00" d=" M 858.58 451.00 C 895.06 450.97 931.55 451.04 968.04 451.00 C 980.31 451.15 992.61 450.52 1004.86 451.43 L 1005.30 451.47 C 1006.95 465.89 1009.36 480.32 1009.48 494.85 C 960.46 495.28 911.43 494.87 862.41 495.01 C 861.85 480.30 860.49 465.60 858.58 451.00 Z" />
</g>
<g id="#e9c855ff">
<path fill="#e9c855" opacity="1.00" d=" M 320.21 461.04 C 365.27 461.03 410.34 461.04 455.41 461.01 C 455.42 483.31 455.40 505.62 455.41 527.92 C 410.34 528.03 365.28 527.99 320.21 527.94 C 320.22 505.64 320.19 483.34 320.21 461.04 Z" />
</g>
<g id="#e8c651ff">
<path fill="#e8c651" opacity="1.00" d=" M 862.41 495.01 C 911.43 494.87 960.46 495.28 1009.48 494.85 L 1009.87 494.84 C 1009.90 503.87 1011.04 512.90 1010.09 521.92 C 1010.25 529.47 1009.18 536.96 1009.14 544.50 L 1008.66 544.46 C 994.12 543.42 979.53 544.32 964.97 543.97 C 936.65 543.96 908.34 544.05 880.03 543.99 C 874.74 543.89 869.41 544.53 864.15 543.78 C 863.24 543.01 862.66 541.95 861.99 541.00 C 863.03 525.71 863.05 510.33 862.41 495.01 Z" />
</g>
<g id="#e7c24eff">
<path fill="#e7c24e" opacity="1.00" d=" M 320.21 527.94 C 365.28 527.99 410.34 528.03 455.41 527.92 C 455.42 543.93 455.40 559.93 455.41 575.94 C 410.34 576.26 365.27 575.91 320.20 576.10 C 320.22 560.05 320.19 544.00 320.21 527.94 Z" />
</g>
<g id="#e6c04bff">
<path fill="#e6c04b" opacity="1.00" d=" M 861.99 541.00 C 862.66 541.95 863.24 543.01 864.15 543.78 C 869.41 544.53 874.74 543.89 880.03 543.99 C 908.34 544.05 936.65 543.96 964.97 543.97 C 979.53 544.32 994.12 543.42 1008.66 544.46 C 1007.84 562.92 1004.11 581.09 1001.06 599.27 L 1000.76 599.26 C 989.51 598.66 978.24 599.21 966.98 599.02 C 929.76 598.93 892.54 599.19 855.33 598.89 C 859.01 579.80 861.09 560.41 861.99 541.00 Z" />
</g>
<g id="#e4bc46ff">
<path fill="#e4bc46" opacity="1.00" d=" M 320.20 576.10 C 365.27 575.91 410.34 576.26 455.41 575.94 C 455.42 601.94 455.40 627.94 455.41 653.93 C 410.34 653.89 365.28 653.93 320.21 653.95 C 320.22 628.00 320.19 602.05 320.20 576.10 Z" />
</g>
<g id="#e4ba44ff">
<path fill="#e4ba44" opacity="1.00" d=" M 855.33 598.89 C 892.54 599.19 929.76 598.93 966.98 599.02 C 978.24 599.21 989.51 598.66 1000.76 599.26 C 997.15 617.69 992.19 635.84 986.74 653.80 C 959.50 654.30 932.25 653.80 905.01 654.01 C 883.72 653.97 862.44 654.04 841.16 653.93 C 846.98 635.89 851.79 617.51 855.33 598.89 Z" />
</g>
<g id="#e1b53eff">
<path fill="#e1b53e" opacity="1.00" d=" M 320.21 653.95 C 365.28 653.93 410.34 653.89 455.41 653.93 C 455.42 669.95 455.40 685.97 455.41 702.00 C 410.34 702.04 365.27 701.95 320.21 701.96 C 320.21 685.96 320.19 669.95 320.21 653.95 Z" />
</g>
<g id="#e1b53dff">
<path fill="#e1b53d" opacity="1.00" d=" M 841.16 653.93 C 862.44 654.04 883.72 653.97 905.01 654.01 C 932.25 653.80 959.50 654.30 986.74 653.80 C 980.70 673.35 973.43 692.49 965.81 711.46 L 964.91 711.38 C 954.64 710.36 944.31 711.38 934.02 710.99 C 900.69 710.99 867.36 711.02 834.04 710.95 C 829.06 711.05 824.02 711.29 819.14 710.14 C 827.56 691.85 834.91 673.07 841.16 653.93 Z" />
</g>
<g id="#dfb038ff">
<path fill="#dfb038" opacity="1.00" d=" M 320.21 701.96 C 365.27 701.95 410.34 702.04 455.41 702.00 C 455.42 718.01 455.40 734.03 455.41 750.05 C 410.34 749.95 365.27 749.96 320.21 750.03 C 320.21 734.01 320.19 717.98 320.21 701.96 Z" />
</g>
<g id="#dfae35ff">
<path fill="#dfae35" opacity="1.00" d=" M 779.15 782.54 C 794.12 759.36 807.67 735.24 819.14 710.14 C 824.02 711.29 829.06 711.05 834.04 710.95 C 867.36 711.02 900.69 710.99 934.02 710.99 C 944.31 711.38 954.64 710.36 964.91 711.38 L 965.77 711.50 C 955.24 736.02 943.60 760.07 930.48 783.32 C 919.34 782.55 908.17 783.07 897.01 782.94 C 868.32 782.93 839.63 783.05 810.95 782.95 C 800.35 782.86 789.72 783.56 779.15 782.54 Z" />
</g>
<g id="#deab32ff">
<path fill="#deab32" opacity="1.00" d=" M 320.21 750.03 C 365.27 749.96 410.34 749.95 455.41 750.05 C 455.41 766.68 455.41 783.32 455.41 799.96 C 410.34 800.05 365.28 799.98 320.21 799.97 C 320.21 783.32 320.20 766.68 320.21 750.03 Z" />
</g>
<g id="#dca72cff">
<path fill="#dca72c" opacity="1.00" d=" M 727.15 850.97 C 746.08 829.43 763.40 806.50 779.15 782.54 C 789.72 783.56 800.35 782.86 810.95 782.95 C 839.63 783.05 868.32 782.93 897.01 782.94 C 908.17 783.07 919.34 782.55 930.48 783.32 C 916.91 807.20 902.06 830.38 885.67 852.43 C 875.13 851.69 864.57 852.14 854.02 852.00 C 818.37 852.03 782.72 851.91 747.07 852.01 C 740.42 851.73 733.64 852.87 727.15 850.97 Z" />
</g>
<g id="#dca62cff">
<path fill="#dca62c" opacity="1.00" d=" M 320.21 799.97 C 365.28 799.98 410.34 800.05 455.41 799.96 C 455.41 817.28 455.40 834.61 455.41 851.93 C 410.34 852.17 365.27 851.98 320.21 852.03 C 320.22 834.67 320.19 817.32 320.21 799.97 Z" />
</g>
<g id="#d9a025ff">
<path fill="#d9a025" opacity="1.00" d=" M 657.32 919.12 C 682.22 898.15 705.65 875.42 727.15 850.97 C 733.64 852.87 740.42 851.73 747.07 852.01 C 782.72 851.91 818.37 852.03 854.02 852.00 C 864.57 852.14 875.13 851.69 885.67 852.43 C 868.15 876.26 849.00 898.92 828.31 920.06 C 773.21 919.95 718.09 919.99 662.99 920.03 C 661.07 919.89 659.19 919.49 657.32 919.12 Z" />
<path fill="#d9a025" opacity="1.00" d=" M 320.21 852.03 C 365.27 851.98 410.34 852.17 455.41 851.93 C 455.41 874.30 455.41 896.67 455.41 919.04 C 410.34 919.04 365.27 919.09 320.21 919.02 C 320.21 896.69 320.19 874.35 320.21 852.03 Z" />
</g>
<g id="#d79a1dff">
<path fill="#d79a1d" opacity="1.00" d=" M 320.21 919.02 C 365.27 919.09 410.34 919.04 455.41 919.04 C 455.41 944.03 455.42 969.03 455.40 994.03 C 455.38 998.95 456.14 1003.87 457.76 1008.53 C 449.88 1009.42 441.96 1008.86 434.05 1008.96 C 396.10 1008.99 358.16 1008.96 320.21 1008.97 C 320.21 978.98 320.19 949.00 320.21 919.02 Z" />
<path fill="#d79a1d" opacity="1.00" d=" M 519.48 1008.46 C 568.70 984.19 615.14 954.24 657.32 919.12 C 659.19 919.49 661.07 919.89 662.99 920.03 C 718.09 919.99 773.21 919.95 828.31 920.06 C 795.10 954.21 757.85 984.47 717.38 1009.63 C 707.98 1008.30 698.45 1009.25 689.00 1008.95 C 642.97 1008.98 596.95 1008.93 550.93 1008.99 C 540.44 1008.76 529.93 1009.54 519.48 1008.46 Z" />
</g>
<g id="#d59517ff">
<path fill="#d59517" opacity="1.00" d=" M 320.21 1008.97 C 358.16 1008.96 396.10 1008.99 434.05 1008.96 C 441.96 1008.86 449.88 1009.42 457.76 1008.53 C 460.12 1014.71 463.78 1020.94 469.99 1023.89 C 475.17 1026.69 481.50 1026.08 486.72 1023.69 C 497.76 1018.88 508.67 1013.77 519.48 1008.46 C 529.93 1009.54 540.44 1008.76 550.93 1008.99 C 596.95 1008.93 642.97 1008.98 689.00 1008.95 C 698.45 1009.25 707.98 1008.30 717.38 1009.63 C 697.98 1021.67 677.88 1032.61 657.14 1042.18 C 620.41 1058.56 583.24 1073.93 546.10 1089.37 C 541.66 1090.99 537.42 1093.26 532.86 1094.50 C 447.15 1094.64 361.43 1094.47 275.72 1094.58 C 275.71 1092.16 275.69 1089.74 275.66 1087.34 C 286.63 1087.05 298.39 1086.84 308.08 1081.00 C 315.07 1076.78 318.80 1068.79 319.61 1060.89 C 320.51 1055.98 320.14 1050.98 320.20 1046.03 C 320.21 1033.67 320.19 1021.32 320.21 1008.97 Z" />
</g>
</svg>
