<?xml version="1.0" encoding="UTF-8" ?>
<!DOCTYPE svg PUBLIC "-//W3C//DTD SVG 1.1//EN" "http://www.w3.org/Graphics/SVG/1.1/DTD/svg11.dtd">
<svg width="1276pt" height="1276pt" viewBox="0 0 1276 1276" version="1.1" xmlns="http://www.w3.org/2000/svg">
<g id="#08a5bdff">
<path fill="#08a5bd" opacity="1.00" d=" M 573.68 184.71 C 580.56 182.78 587.99 182.90 594.86 184.82 C 616.61 190.13 638.35 195.45 660.10 200.76 C 651.07 214.02 640.74 226.32 631.29 239.27 C 607.54 270.83 583.62 302.26 559.83 333.80 C 556.92 337.68 558.59 342.82 558.15 347.28 L 557.83 348.11 C 556.90 341.49 557.21 334.75 555.91 328.17 C 555.64 323.11 555.65 318.05 554.60 313.08 C 554.84 304.97 552.95 297.04 553.14 288.93 C 551.58 282.06 552.23 274.93 550.95 268.03 C 550.29 264.02 551.02 259.89 550.12 255.91 C 548.88 250.86 550.00 245.60 548.80 240.55 C 547.76 230.68 547.27 220.62 549.81 210.91 C 550.27 209.95 550.64 208.95 550.92 207.92 C 554.46 197.61 562.36 188.27 573.04 185.13 L 573.68 184.71 Z" />
</g>
<g id="#c202c5ff">
<path fill="#c202c5" opacity="1.00" d=" M 823.75 206.68 C 826.01 199.93 831.14 193.71 838.16 191.68 C 841.72 190.98 845.51 190.94 849.02 191.99 C 865.16 196.55 881.32 201.03 897.47 205.57 C 881.59 220.02 864.99 233.68 848.93 247.95 C 839.96 255.22 831.78 263.44 822.47 270.28 C 822.97 257.80 821.09 245.44 821.31 232.97 C 821.52 224.19 820.13 214.99 823.75 206.68 Z" />
</g>
<g id="#089cbdff">
<path fill="#089cbd" opacity="1.00" d=" M 660.10 200.76 C 690.44 208.16 720.77 215.58 751.11 222.99 C 739.62 238.78 727.76 254.30 715.90 269.81 C 670.62 329.88 625.10 389.76 579.85 449.84 C 576.01 455.26 571.52 460.18 567.70 465.61 L 567.52 465.88 C 567.14 460.51 567.11 455.11 566.16 449.80 C 565.33 445.41 566.10 440.88 565.18 436.50 C 564.02 431.44 564.87 426.21 564.13 421.10 L 565.49 420.79 C 564.32 419.94 563.55 421.14 563.02 422.08 C 564.04 418.49 563.14 414.68 563.29 410.99 C 561.88 403.08 562.26 394.98 560.81 387.06 C 561.25 378.66 558.17 370.26 559.97 361.95 C 559.42 362.87 558.66 364.05 557.51 363.20 L 558.86 362.89 C 558.20 357.71 558.36 352.49 558.15 347.28 C 558.59 342.82 556.92 337.68 559.83 333.80 C 583.62 302.26 607.54 270.83 631.29 239.27 C 640.74 226.32 651.07 214.02 660.10 200.76 Z" />
</g>
<g id="#ba02beff">
<path fill="#ba02be" opacity="1.00" d=" M 897.47 205.57 C 909.76 208.99 922.05 212.42 934.34 215.88 C 930.83 220.20 926.26 223.41 922.12 227.04 C 895.08 250.34 868.19 273.80 841.18 297.13 C 835.32 301.92 830.12 307.54 823.67 311.57 C 823.46 301.38 824.00 291.14 822.69 281.00 C 822.51 277.43 822.49 273.85 822.47 270.28 C 831.78 263.44 839.96 255.22 848.93 247.95 C 864.99 233.68 881.59 220.02 897.47 205.57 Z" />
</g>
<g id="#b202b7ff">
<path fill="#b202b7" opacity="1.00" d=" M 934.34 215.88 C 947.62 219.53 960.88 223.31 974.16 226.99 C 968.65 233.57 961.35 238.27 955.22 244.21 C 912.47 280.94 870.10 318.11 827.33 354.82 C 827.13 353.11 826.95 351.40 826.69 349.70 C 826.40 349.64 825.83 349.53 825.54 349.47 C 825.34 349.43 824.95 349.36 824.75 349.32 C 824.87 336.73 824.82 324.11 823.67 311.57 C 830.12 307.54 835.32 301.92 841.18 297.13 C 868.19 273.80 895.08 250.34 922.12 227.04 C 926.26 223.41 930.83 220.20 934.34 215.88 Z" />
</g>
<g id="#0895bcff">
<path fill="#0895bc" opacity="1.00" d=" M 751.11 222.99 C 765.70 226.54 780.28 230.13 794.88 233.67 L 794.86 234.20 C 794.34 242.08 795.55 250.00 794.73 257.85 C 793.47 260.96 790.85 263.24 788.89 265.90 C 734.24 338.23 679.56 410.55 624.86 482.85 C 612.18 499.80 599.20 516.53 586.60 533.55 C 583.33 537.45 581.09 542.62 576.17 544.75 L 575.91 544.89 C 573.61 537.11 572.93 529.07 572.24 521.03 C 572.24 514.31 570.55 507.72 570.67 500.99 C 570.64 498.98 570.40 496.98 570.01 495.02 C 569.03 490.25 570.10 485.29 568.79 480.57 C 568.10 475.61 568.53 470.56 567.70 465.61 C 571.52 460.18 576.01 455.26 579.85 449.84 C 625.10 389.76 670.62 329.88 715.90 269.81 C 727.76 254.30 739.62 238.78 751.11 222.99 Z" />
</g>
<g id="#ffffffff">
<path fill="#ffffff" opacity="1.00" d=" M 253.19 225.28 C 255.90 223.97 259.08 224.90 261.88 223.85 C 268.73 223.26 275.62 223.58 282.49 223.70 L 282.49 224.34 C 287.12 224.03 291.63 225.17 296.19 225.78 C 298.05 226.59 300.11 226.55 302.09 226.86 C 310.62 228.90 319.40 230.04 327.95 232.07 C 329.91 232.36 331.95 232.45 333.83 233.17 C 337.30 233.48 340.63 234.56 344.09 234.90 C 350.96 236.52 358.01 237.45 364.91 239.02 C 368.55 239.75 372.30 240.12 375.88 241.14 C 379.33 241.47 382.65 242.56 386.11 242.88 C 396.63 245.23 407.34 246.85 417.88 249.15 C 421.34 249.46 424.66 250.55 428.12 250.87 C 438.64 253.22 449.36 254.80 459.87 257.14 C 463.34 257.43 466.64 258.57 470.11 258.87 C 480.61 261.23 491.33 262.76 501.83 265.16 C 503.28 265.34 504.74 265.51 506.20 265.73 C 508.53 266.77 511.29 266.23 513.53 267.59 C 513.57 269.92 513.65 272.24 513.62 274.57 L 514.37 274.39 C 514.36 278.12 514.71 281.84 514.64 285.58 L 515.35 285.44 C 515.36 289.28 515.66 293.11 515.74 296.96 C 508.45 295.69 501.18 294.28 493.86 293.23 C 491.92 292.48 489.83 292.42 487.81 292.19 C 483.91 291.13 479.84 290.70 475.85 290.05 C 470.32 288.77 464.65 288.24 459.13 286.94 C 457.12 286.69 455.09 286.52 453.18 285.86 C 451.15 285.63 449.08 285.58 447.17 284.80 C 445.17 284.52 443.06 284.65 441.20 283.74 C 439.17 283.50 437.09 283.49 435.16 282.77 C 424.11 280.93 413.03 279.12 402.07 276.91 C 400.06 276.61 397.96 276.68 396.07 275.86 C 394.30 275.58 392.52 275.45 390.73 275.43 C 390.59 275.23 390.29 274.84 390.14 274.65 C 388.36 274.58 386.58 274.42 384.83 274.19 C 377.00 272.47 368.99 271.41 361.10 269.92 C 352.25 268.76 343.30 269.40 334.41 269.61 L 334.51 270.32 C 332.63 270.35 330.76 270.48 328.92 270.83 C 326.40 271.79 323.70 272.21 321.21 273.26 C 320.10 273.37 319.09 273.73 318.19 274.32 C 315.23 274.94 312.66 276.58 309.91 277.75 C 309.34 277.97 308.19 278.41 307.62 278.63 L 307.42 279.70 C 306.97 279.65 306.09 279.54 305.65 279.48 C 305.66 279.81 305.68 280.46 305.70 280.79 L 304.48 280.36 L 304.55 281.33 C 303.57 281.73 302.62 282.18 301.69 282.67 C 300.38 283.77 299.14 285.03 297.54 285.70 L 297.57 286.63 L 296.39 286.22 L 296.50 287.28 C 296.14 287.42 295.43 287.71 295.07 287.85 C 292.56 290.75 289.50 293.13 287.22 296.22 C 287.00 296.49 286.54 297.02 286.31 297.29 C 286.05 297.82 285.53 298.89 285.27 299.42 L 284.32 299.44 L 284.67 300.60 L 283.44 300.56 C 283.45 301.01 283.48 301.91 283.49 302.36 L 282.35 302.38 L 282.53 303.54 L 281.58 303.67 C 281.28 304.21 280.69 305.31 280.39 305.86 C 280.43 306.23 280.52 306.99 280.56 307.36 L 279.65 307.40 C 279.31 308.73 278.53 309.85 277.72 310.94 C 277.10 312.40 276.52 313.89 276.26 315.47 L 275.66 315.51 C 275.65 316.73 275.34 317.84 274.73 318.84 C 273.21 323.28 271.53 327.78 271.35 332.52 L 270.67 332.51 C 270.60 335.51 270.33 338.51 270.32 341.52 L 269.67 341.47 C 269.70 347.02 269.45 352.58 269.85 358.12 C 270.69 360.97 270.21 364.03 271.13 366.88 C 271.66 371.88 272.31 376.88 273.17 381.83 C 273.46 384.18 273.51 386.57 274.15 388.86 C 274.44 391.21 274.49 393.60 275.11 395.90 C 275.67 400.90 276.30 405.90 277.16 410.85 C 277.45 413.20 277.49 415.59 278.13 417.88 C 278.44 420.23 278.46 422.62 279.10 424.92 C 279.48 427.55 279.47 430.25 280.17 432.84 C 280.47 435.18 280.52 437.57 281.15 439.87 C 281.45 442.22 281.50 444.60 282.11 446.91 C 282.68 451.90 283.29 456.90 284.16 461.85 C 284.45 464.20 284.52 466.58 285.12 468.89 C 285.39 470.97 285.57 473.06 285.83 475.16 C 286.64 477.99 286.34 481.00 287.18 483.83 C 287.45 486.18 287.53 488.56 288.15 490.87 C 288.44 493.21 288.50 495.59 289.11 497.90 C 289.67 502.89 290.31 507.89 291.16 512.85 C 291.45 515.19 291.53 517.58 292.13 519.88 C 292.39 521.96 292.57 524.06 292.83 526.15 C 293.62 528.98 293.38 531.98 294.17 534.81 C 294.45 537.16 294.54 539.55 295.15 541.86 C 295.43 544.21 295.53 546.59 296.11 548.90 C 296.68 553.89 297.32 558.88 298.16 563.84 C 298.44 566.18 298.54 568.56 299.13 570.87 C 299.39 572.95 299.57 575.05 299.84 577.14 C 300.81 582.34 301.15 587.65 302.14 592.86 C 302.40 594.94 302.58 597.04 302.86 599.13 C 303.82 604.33 304.19 609.63 305.16 614.84 C 305.44 617.18 305.56 619.56 306.13 621.88 C 306.42 624.22 306.54 626.60 307.10 628.91 C 307.68 633.90 308.29 638.90 309.15 643.85 C 309.42 646.20 309.55 648.58 310.11 650.89 C 311.00 658.23 311.99 665.57 313.13 672.87 C 313.42 675.22 313.54 677.59 314.10 679.90 C 314.67 684.89 315.32 689.89 316.15 694.85 C 316.43 697.19 316.56 699.57 317.11 701.89 C 317.38 703.97 317.57 706.06 317.84 708.15 C 320.09 723.03 321.86 738.00 324.11 752.89 C 325.31 763.00 326.54 773.22 330.21 782.79 C 330.45 783.86 330.83 784.89 331.35 785.87 C 331.79 786.94 332.23 788.03 332.68 789.12 C 335.16 794.78 338.18 800.15 341.80 805.17 C 352.57 820.87 368.32 832.85 385.80 840.26 C 387.24 840.76 388.69 841.29 390.16 841.75 C 393.76 843.00 397.43 844.03 401.14 844.92 C 403.08 845.52 405.10 845.62 407.11 845.89 C 410.01 846.85 413.13 846.47 416.13 846.94 C 423.02 847.87 429.96 846.94 436.82 846.26 C 464.50 843.06 492.23 840.17 519.88 836.93 C 540.98 834.89 562.00 832.08 583.10 830.10 C 624.98 825.14 667.04 820.87 708.93 815.92 C 790.31 807.16 871.62 797.87 952.95 788.96 C 961.24 788.28 969.33 785.14 975.87 779.97 C 987.00 771.42 994.25 758.74 998.35 745.49 C 1000.91 737.58 1001.46 729.23 1002.18 721.01 C 1002.16 690.75 1002.12 660.49 1002.10 630.23 C 1013.48 630.22 1024.86 630.22 1036.24 630.19 C 1035.95 671.79 1035.98 713.38 1035.61 754.97 C 1035.26 767.29 1036.30 779.78 1033.91 791.92 C 1033.64 793.58 1033.47 795.29 1033.03 796.93 C 1028.56 816.22 1018.46 835.26 1001.48 846.26 C 990.74 853.60 977.33 853.81 964.95 855.96 C 774.00 886.37 582.97 916.46 391.99 946.79 C 380.81 948.79 369.29 949.31 358.02 947.92 C 353.95 947.64 349.95 946.87 345.95 946.11 C 317.08 939.94 290.51 922.29 274.91 897.06 C 271.58 892.10 269.19 886.59 266.69 881.19 C 266.19 879.74 265.68 878.31 265.19 876.87 C 264.44 874.86 263.74 872.84 263.22 870.78 C 262.11 867.65 261.67 864.34 261.07 861.10 C 234.29 686.39 207.49 511.69 180.71 336.98 C 178.54 325.61 179.25 313.97 179.64 302.48 L 180.34 302.52 C 180.01 298.75 181.48 295.21 181.65 291.50 L 182.33 291.44 C 182.43 290.25 182.57 289.08 182.74 287.91 C 183.23 286.93 183.57 285.89 183.75 284.81 C 184.21 283.58 184.67 282.36 185.16 281.15 C 185.45 280.10 185.82 279.09 186.29 278.12 C 186.72 277.00 187.17 275.89 187.59 274.77 C 188.12 273.85 188.66 272.95 189.21 272.05 C 190.27 269.29 191.59 266.58 193.50 264.31 L 193.47 263.42 L 194.56 263.31 C 194.53 262.95 194.46 262.23 194.43 261.88 C 196.04 259.97 197.91 258.23 198.96 255.92 C 200.70 254.59 201.90 252.71 203.55 251.28 L 203.42 250.57 L 204.50 250.50 L 204.58 249.41 L 205.59 249.67 L 205.47 248.51 L 206.61 248.58 L 206.48 247.45 L 207.63 247.62 L 207.53 246.65 C 209.99 246.09 210.90 243.23 213.22 242.31 C 214.41 241.46 215.56 240.56 216.72 239.67 C 217.93 239.26 218.88 238.42 219.78 237.55 L 220.62 237.62 L 220.69 236.47 C 221.05 236.49 221.79 236.53 222.16 236.55 C 223.48 235.24 225.28 234.62 226.83 233.64 C 228.26 233.10 229.91 232.77 230.91 231.49 C 231.30 231.54 232.09 231.66 232.48 231.71 L 232.54 230.79 C 233.74 230.68 234.85 230.33 235.88 229.73 C 238.85 228.63 241.91 227.81 244.90 226.76 C 246.07 226.58 247.25 226.43 248.43 226.32 L 248.56 225.69 C 250.10 225.62 251.65 225.49 253.19 225.28 Z" />
<path fill="#ffffff" opacity="1.00" d=" M 857.54 914.65 C 862.67 913.89 867.89 911.90 873.10 913.28 C 879.93 915.27 885.36 921.09 887.32 927.87 C 889.09 939.49 887.83 951.28 888.66 962.97 C 889.39 973.30 888.89 983.67 889.37 994.01 C 889.83 1002.82 885.10 1011.05 878.98 1017.04 C 876.44 1019.66 873.14 1021.55 869.58 1022.37 C 783.05 1044.57 696.52 1066.80 609.99 1089.01 C 604.69 1090.29 599.40 1092.28 593.85 1091.55 C 590.70 1091.55 587.96 1089.85 585.10 1088.79 C 581.38 1087.11 578.17 1084.37 575.69 1081.17 C 573.23 1077.88 571.92 1073.98 570.71 1070.17 C 570.92 1062.57 568.83 1055.20 569.32 1047.58 L 568.64 1047.48 C 568.33 1043.94 568.24 1040.40 568.17 1036.87 C 566.43 1030.78 567.45 1024.29 565.81 1018.20 C 565.74 1014.64 565.63 1011.09 565.35 1007.56 L 564.67 1007.46 C 564.63 1002.58 564.25 997.69 564.75 992.84 C 567.90 979.00 578.79 966.32 593.09 963.62 C 681.24 947.29 769.39 930.95 857.54 914.65 Z" />
</g>
<g id="#a902aeff">
<path fill="#a902ae" opacity="1.00" d=" M 974.16 226.99 C 990.32 231.50 1006.47 236.01 1022.62 240.56 C 1019.62 244.25 1015.99 247.33 1012.31 250.32 C 954.44 300.44 896.56 350.54 838.73 400.69 C 835.31 403.86 831.10 406.32 828.42 410.20 C 827.81 415.11 828.23 420.08 828.11 425.02 C 826.89 416.42 827.38 407.61 827.22 398.92 C 826.05 382.47 825.65 365.94 825.54 349.47 C 825.83 349.53 826.40 349.64 826.69 349.70 C 826.95 351.40 827.13 353.11 827.33 354.82 C 870.10 318.11 912.47 280.94 955.22 244.21 C 961.35 238.27 968.65 233.57 974.16 226.99 Z" />
</g>
<g id="#098ebcff">
<path fill="#098ebc" opacity="1.00" d=" M 794.86 234.20 C 795.11 234.24 795.61 234.33 795.86 234.37 C 795.83 253.59 797.50 272.82 797.74 292.06 C 798.57 302.45 798.70 312.90 798.63 323.32 C 799.19 319.95 799.35 316.52 799.60 313.11 C 798.95 324.75 799.54 336.42 799.84 348.07 C 801.05 357.64 799.94 367.43 801.23 377.03 C 801.30 381.59 801.62 386.16 801.42 390.72 C 800.75 394.40 800.90 398.15 800.65 401.87 C 799.82 404.09 798.11 405.85 796.74 407.74 C 760.78 455.44 724.55 502.92 688.71 550.70 C 683.08 557.79 677.66 565.04 672.27 572.31 C 669.55 576.07 666.45 579.55 664.17 583.61 C 665.17 584.04 666.18 584.47 667.21 584.88 C 653.51 584.80 639.80 584.30 626.10 584.00 C 603.01 584.13 583.13 565.95 576.17 544.75 C 581.09 542.62 583.33 537.45 586.60 533.55 C 599.20 516.53 612.18 499.80 624.86 482.85 C 679.56 410.55 734.24 338.23 788.89 265.90 C 790.85 263.24 793.47 260.96 794.73 257.85 C 795.55 250.00 794.34 242.08 794.86 234.20 Z" />
</g>
<g id="#9e02a4ff">
<path fill="#9e02a4" opacity="1.00" d=" M 1022.62 240.56 C 1029.62 242.45 1036.59 244.44 1043.58 246.38 C 1051.56 249.05 1056.69 256.51 1059.92 263.90 C 1061.72 268.67 1063.36 273.58 1063.65 278.72 C 1060.16 280.76 1057.09 283.40 1054.09 286.07 C 992.64 339.31 931.21 392.57 869.70 445.73 C 863.89 451.32 857.03 455.77 851.81 461.95 C 837.12 456.28 828.88 440.09 828.11 425.02 C 828.23 420.08 827.81 415.11 828.42 410.20 C 831.10 406.32 835.31 403.86 838.73 400.69 C 896.56 350.54 954.44 300.44 1012.31 250.32 C 1015.99 247.33 1019.62 244.25 1022.62 240.56 Z" />
</g>
<g id="#920299ff">
<path fill="#920299" opacity="1.00" d=" M 1054.09 286.07 C 1057.09 283.40 1060.16 280.76 1063.65 278.72 C 1064.53 290.76 1063.60 302.86 1063.61 314.93 C 1063.42 324.87 1063.28 334.81 1063.13 344.75 C 1052.77 352.39 1043.63 361.54 1033.66 369.66 C 1000.14 398.83 966.53 427.89 932.92 456.96 C 928.52 461.13 923.33 464.49 919.63 469.36 C 901.44 467.52 883.28 465.49 865.10 463.62 C 860.68 463.00 856.17 462.95 851.81 461.95 C 857.03 455.77 863.89 451.32 869.70 445.73 C 931.21 392.57 992.64 339.31 1054.09 286.07 Z" />
</g>
<g id="#86028eff">
<path fill="#86028e" opacity="1.00" d=" M 1033.66 369.66 C 1043.63 361.54 1052.77 352.39 1063.13 344.75 C 1063.33 369.22 1062.91 393.69 1062.35 418.15 C 1062.11 416.16 1061.80 414.19 1061.51 412.23 C 1044.12 426.91 1027.17 442.11 1009.83 456.86 C 1002.55 463.64 994.45 469.52 987.46 476.63 C 964.86 474.13 942.22 471.89 919.63 469.36 C 923.33 464.49 928.52 461.13 932.92 456.96 C 966.53 427.89 1000.14 398.83 1033.66 369.66 Z" />
</g>
<g id="#0986bcff">
<path fill="#0986bc" opacity="1.00" d=" M 801.42 390.72 C 801.79 394.16 801.60 397.63 801.84 401.08 C 803.16 410.63 801.88 420.41 803.22 429.98 C 803.77 437.76 802.82 445.69 804.59 453.36 C 805.67 458.79 807.63 464.08 810.35 468.90 L 810.39 470.03 C 810.09 472.83 811.97 475.08 812.70 477.65 C 811.28 480.48 808.97 482.71 807.09 485.21 C 796.49 499.24 786.14 513.44 775.29 527.27 C 765.22 540.58 755.43 554.10 745.12 567.22 C 740.29 573.63 735.42 580.02 730.78 586.57 C 709.59 585.93 688.38 585.72 667.21 584.88 C 666.18 584.47 665.17 584.04 664.17 583.61 C 666.45 579.55 669.55 576.07 672.27 572.31 C 677.66 565.04 683.08 557.79 688.71 550.70 C 724.55 502.92 760.78 455.44 796.74 407.74 C 798.11 405.85 799.82 404.09 800.65 401.87 C 800.90 398.15 800.75 394.40 801.42 390.72 Z" />
</g>
<g id="#7c0284ff">
<path fill="#7c0284" opacity="1.00" d=" M 1009.83 456.86 C 1027.17 442.11 1044.12 426.91 1061.51 412.23 C 1061.80 414.19 1062.11 416.16 1062.35 418.15 C 1062.31 430.11 1062.28 442.07 1062.30 454.03 C 1062.16 462.55 1059.96 471.54 1053.90 477.83 C 1050.88 480.90 1046.51 483.06 1042.13 482.40 C 1023.90 480.51 1005.69 478.52 987.46 476.63 C 994.45 469.52 1002.55 463.64 1009.83 456.86 Z" />
</g>
<g id="#354d88ff">
<path fill="#354d88" opacity="1.00" d=" M 1078.85 468.80 C 1083.56 469.32 1088.30 469.73 1092.97 470.56 C 1099.60 473.52 1102.47 481.09 1102.92 487.91 C 1103.11 494.12 1103.00 500.33 1102.83 506.54 C 1096.08 509.49 1090.47 514.36 1084.24 518.20 C 1047.04 543.01 1009.80 567.74 972.65 592.63 C 972.70 594.21 972.73 595.78 972.86 597.37 C 969.84 590.45 969.96 582.80 970.31 575.42 C 971.72 569.11 970.74 562.65 971.30 556.27 C 988.32 544.54 1005.71 533.33 1022.86 521.77 C 1028.89 517.60 1035.30 513.92 1040.90 509.16 C 1036.52 509.02 1032.09 509.36 1027.77 508.45 C 1031.25 508.19 1034.74 507.96 1038.23 507.67 C 1046.17 507.63 1054.10 509.61 1062.06 508.36 C 1069.81 504.62 1075.04 496.98 1077.07 488.76 C 1079.31 482.34 1078.62 475.47 1078.85 468.80 Z" />
</g>
<g id="#097dbcff">
<path fill="#097dbc" opacity="1.00" d=" M 810.39 470.03 C 812.93 473.08 814.99 476.54 817.63 479.54 C 822.91 486.28 831.38 490.56 839.97 490.64 C 859.97 492.54 879.98 494.18 900.00 495.77 C 908.14 497.16 916.47 496.60 924.59 498.15 C 908.70 519.71 892.24 540.83 876.25 562.32 C 870.65 570.01 864.58 577.34 859.03 585.05 C 857.34 587.60 854.24 588.44 851.54 589.45 C 811.29 588.61 771.03 587.51 730.78 586.57 C 735.42 580.02 740.29 573.63 745.12 567.22 C 755.43 554.10 765.22 540.58 775.29 527.27 C 786.14 513.44 796.49 499.24 807.09 485.21 C 808.97 482.71 811.28 480.48 812.70 477.65 C 811.97 475.08 810.09 472.83 810.39 470.03 Z" />
</g>
<g id="#043d5c7e">
<path fill="#043d5c" opacity="0.49" d=" M 817.63 479.54 C 821.46 481.52 824.41 484.86 828.33 486.72 C 833.16 489.29 838.73 489.49 844.07 489.73 C 854.01 490.99 864.05 491.21 873.98 492.58 C 883.52 492.67 892.90 494.74 902.43 494.84 C 918.24 497.16 934.33 496.85 950.03 499.92 C 941.50 500.30 933.09 498.44 924.59 498.15 C 916.47 496.60 908.14 497.16 900.00 495.77 C 879.98 494.18 859.97 492.54 839.97 490.64 C 831.38 490.56 822.91 486.28 817.63 479.54 Z" />
</g>
<g id="#0a75bbff">
<path fill="#0a75bb" opacity="1.00" d=" M 924.59 498.15 C 933.09 498.44 941.50 500.30 950.03 499.92 L 950.83 499.89 C 951.36 516.57 950.85 533.26 951.25 549.95 C 951.62 561.07 948.45 572.62 941.24 581.25 C 936.12 587.43 928.20 591.63 920.06 591.16 C 897.22 590.65 874.38 590.12 851.54 589.45 C 854.24 588.44 857.34 587.60 859.03 585.05 C 864.58 577.34 870.65 570.01 876.25 562.32 C 892.24 540.83 908.70 519.71 924.59 498.15 Z" />
</g>
<g id="#38528fff">
<path fill="#38528f" opacity="1.00" d=" M 969.76 501.48 C 971.86 501.50 973.98 501.58 976.09 501.79 C 979.64 502.89 983.42 502.39 987.08 502.88 C 999.05 504.09 1011.02 504.98 1022.99 506.26 C 1026.29 506.57 1029.70 506.17 1032.93 507.17 C 1034.68 507.36 1036.46 507.51 1038.23 507.67 C 1034.74 507.96 1031.25 508.19 1027.77 508.45 C 1032.09 509.36 1036.52 509.02 1040.90 509.16 C 1035.30 513.92 1028.89 517.60 1022.86 521.77 C 1005.71 533.33 988.32 544.54 971.30 556.27 C 970.74 562.65 971.72 569.11 970.31 575.42 C 969.92 550.78 970.39 526.12 969.76 501.48 Z" />
</g>
<g id="#304780ff">
<path fill="#304780" opacity="1.00" d=" M 1084.24 518.20 C 1090.47 514.36 1096.08 509.49 1102.83 506.54 C 1102.60 519.03 1101.95 531.51 1102.10 544.00 C 1102.26 553.22 1101.69 562.43 1101.48 571.65 C 1086.77 580.68 1072.68 590.71 1058.22 600.15 C 1055.11 602.18 1052.00 604.22 1049.07 606.49 C 1050.10 606.94 1051.15 607.38 1052.21 607.80 C 1029.79 607.64 1007.38 607.04 984.96 606.90 C 979.32 606.82 974.93 602.27 972.86 597.37 C 972.73 595.78 972.70 594.21 972.65 592.63 C 1009.80 567.74 1047.04 543.01 1084.24 518.20 Z" />
</g>
<g id="#2b4078ff">
<path fill="#2b4078" opacity="1.00" d=" M 1058.22 600.15 C 1072.68 590.71 1086.77 580.68 1101.48 571.65 C 1101.27 578.43 1101.20 585.21 1101.15 592.00 C 1100.58 598.67 1097.50 607.06 1090.03 608.32 C 1077.43 608.13 1064.81 608.11 1052.21 607.80 C 1051.15 607.38 1050.10 606.94 1049.07 606.49 C 1052.00 604.22 1055.11 602.18 1058.22 600.15 Z" />
</g>
</svg>
