<?xml version="1.0" encoding="UTF-8" ?>
<!DOCTYPE svg PUBLIC "-//W3C//DTD SVG 1.1//EN" "http://www.w3.org/Graphics/SVG/1.1/DTD/svg11.dtd">
<svg width="1276pt" height="1276pt" viewBox="0 0 1276 1276" version="1.1" xmlns="http://www.w3.org/2000/svg">
<g id="#ffe4c5ff">
<path fill="#ffe4c5" opacity="1.00" d=" M 94.48 295.60 C 165.64 295.25 236.81 295.82 307.97 295.66 C 307.38 297.79 306.80 299.93 306.25 302.07 C 241.52 301.94 176.79 302.02 112.06 302.03 C 106.65 300.28 101.39 298.06 95.86 296.70 C 95.52 296.43 94.83 295.88 94.48 295.60 Z" />
<path fill="#ffe4c5" opacity="1.00" d=" M 419.86 295.84 C 436.89 296.42 453.96 295.87 471.00 296.11 C 504.45 296.19 537.90 296.21 571.35 296.29 C 571.08 297.03 570.53 298.53 570.25 299.27 C 567.88 301.91 564.16 301.15 561.00 301.25 C 514.45 301.15 467.88 301.23 421.33 301.03 C 420.85 299.30 420.37 297.56 419.86 295.84 Z" />
<path fill="#ffe4c5" opacity="1.00" d=" M 664.11 296.34 C 714.33 296.44 764.55 296.59 814.77 296.61 C 814.18 298.77 813.63 300.95 813.07 303.13 C 764.51 302.76 715.94 303.29 667.38 302.86 C 666.88 300.42 665.86 298.13 664.11 296.34 Z" />
<path fill="#ffe4c5" opacity="1.00" d=" M 859.88 297.00 C 904.22 296.52 948.57 297.22 992.92 296.94 C 991.81 298.39 990.70 299.85 989.63 301.32 C 989.56 301.41 989.43 301.58 989.36 301.67 L 989.19 301.89 L 988.54 302.69 C 982.45 301.35 976.19 302.19 970.03 301.98 C 946.35 302.14 922.68 301.98 899.01 301.91 C 890.86 302.15 882.67 301.37 874.56 302.31 L 874.19 302.34 C 873.63 302.18 872.52 301.86 871.96 301.70 L 871.63 301.47 L 871.19 301.35 C 869.28 300.72 867.44 299.95 865.59 299.21 C 865.25 297.54 864.68 297.39 863.88 298.77 C 862.54 298.18 861.19 297.59 859.88 297.00 Z" />
<path fill="#ffe4c5" opacity="1.00" d=" M 1046.07 297.59 C 1057.00 296.81 1068.03 297.40 1079.00 297.21 C 1113.76 297.24 1148.53 297.37 1183.30 297.29 C 1179.80 298.76 1176.22 300.00 1172.69 301.34 C 1172.54 301.39 1172.24 301.50 1172.10 301.55 C 1171.57 301.73 1170.52 302.08 1170.00 302.26 L 1169.56 302.39 L 1169.25 302.56 C 1168.22 302.99 1167.21 303.42 1166.22 303.87 C 1127.92 304.15 1089.62 303.39 1051.32 303.88 C 1051.13 304.49 1050.74 305.73 1050.55 306.35 C 1050.31 302.92 1047.71 300.41 1046.07 297.59 Z" />
<path fill="#ffe4c5" opacity="1.00" d=" M 1044.30 325.01 C 1045.95 320.19 1046.56 314.96 1049.12 310.48 C 1046.19 320.96 1043.34 331.47 1039.94 341.80 C 1040.60 336.03 1042.90 330.62 1044.30 325.01 Z" />
<path fill="#ffe4c5" opacity="1.00" d=" M 129.66 320.99 C 129.59 323.00 129.57 325.01 129.56 327.03 C 129.67 342.02 129.42 357.01 129.61 372.00 C 129.61 373.77 129.57 375.54 129.51 377.31 L 129.42 378.21 C 129.55 371.48 129.29 364.75 129.40 358.02 C 129.57 345.68 129.19 333.32 129.66 320.99 Z" />
<path fill="#ffe4c5" opacity="1.00" d=" M 1037.23 349.64 L 1038.11 348.69 C 1035.45 358.14 1032.73 367.56 1029.93 376.97 C 1029.70 377.58 1029.24 378.80 1029.01 379.41 C 1030.97 369.31 1034.49 359.56 1037.23 349.64 Z" />
<path fill="#ffe4c5" opacity="1.00" d=" M 769.65 391.90 C 769.65 392.41 769.63 393.43 769.62 393.95 C 769.42 401.65 769.62 409.35 769.59 417.06 C 769.52 422.71 769.57 428.37 769.61 434.03 C 769.57 440.34 769.54 446.66 769.58 452.97 C 769.59 458.97 769.56 464.97 769.55 470.97 C 769.51 477.65 769.53 484.34 769.61 491.02 C 769.65 498.36 769.35 505.70 769.59 513.04 C 769.66 518.10 769.45 523.18 769.56 528.25 L 769.48 527.35 C 769.28 521.02 769.63 514.69 769.34 508.37 C 769.50 498.17 769.44 487.98 769.41 477.78 C 769.41 468.83 769.42 459.89 769.46 450.94 C 769.37 441.89 769.49 432.84 769.43 423.79 C 769.62 413.16 769.05 402.52 769.65 391.90 Z" />
<path fill="#ffe4c5" opacity="1.00" d=" M 523.47 446.65 L 523.58 445.59 C 523.58 448.05 523.63 450.51 523.65 452.98 C 523.69 458.99 523.53 465.01 523.59 471.02 C 523.63 477.67 523.59 484.32 523.63 490.98 C 523.45 498.00 523.61 505.02 523.64 512.04 C 523.59 522.69 523.48 533.33 523.66 543.97 C 523.65 553.66 523.43 563.34 523.66 573.02 C 523.60 584.01 523.56 594.99 523.63 605.98 C 523.62 621.30 523.56 636.63 523.69 651.95 C 523.80 653.86 523.26 655.70 522.42 657.40 C 520.79 656.31 519.28 655.05 518.16 653.44 C 519.78 653.51 521.41 653.62 523.04 653.73 C 523.78 648.84 523.31 643.89 523.40 638.97 C 523.37 625.64 523.43 612.31 523.40 598.99 C 523.28 587.14 523.62 575.28 523.26 563.44 C 523.46 552.40 523.51 541.36 523.28 530.33 C 523.40 520.31 523.51 510.28 523.28 500.26 C 523.47 489.94 523.41 479.61 523.33 469.28 C 523.45 461.74 523.36 454.19 523.47 446.65 Z" />
<path fill="#ffe4c5" opacity="1.00" d=" M 114.51 889.75 L 114.62 889.83 C 115.77 890.66 116.93 891.50 118.10 892.34 C 117.95 892.51 117.65 892.83 117.51 892.99 C 116.19 892.40 114.89 891.81 113.59 891.21 L 113.43 891.14 C 113.70 890.79 114.24 890.10 114.51 889.75 Z" />
</g>
<g id="#fd8500ff">
<path fill="#fd8500" opacity="1.00" d=" M 307.97 295.66 C 308.88 296.39 309.79 297.13 310.67 297.91 C 309.37 299.64 307.42 301.31 307.15 303.53 C 312.38 308.12 318.02 312.22 323.49 316.52 C 326.06 318.68 328.61 320.91 331.60 322.49 C 330.80 318.52 326.39 317.62 324.31 314.73 C 324.63 313.08 325.21 311.51 325.60 309.89 C 329.20 312.03 332.12 315.10 335.44 317.64 C 334.36 319.57 333.29 321.51 332.24 323.46 C 333.56 324.64 334.87 325.84 336.24 326.97 C 267.35 327.18 198.45 327.05 129.56 327.03 C 129.57 325.01 129.59 323.00 129.66 320.99 C 129.72 319.71 129.80 318.44 129.83 317.17 C 129.74 316.97 129.55 316.57 129.46 316.37 C 123.94 311.27 117.63 307.10 112.06 302.03 C 176.79 302.02 241.52 301.94 306.25 302.07 C 306.80 299.93 307.38 297.79 307.97 295.66 Z" />
<path fill="#fd8500" opacity="1.00" d=" M 876.60 303.04 C 900.73 302.96 924.86 303.03 948.99 303.01 C 962.17 302.80 975.38 303.43 988.54 302.69 L 989.19 301.89 C 988.82 305.72 990.17 309.36 991.05 313.02 C 992.18 317.65 993.15 322.31 994.35 326.92 C 959.68 327.28 925.00 326.71 890.34 327.19 C 890.10 335.78 890.27 344.38 890.24 352.97 C 890.29 362.97 889.79 372.96 890.04 382.95 C 890.05 389.97 889.65 396.99 889.78 404.02 C 889.76 410.66 889.59 417.31 889.72 423.95 C 889.73 432.64 889.51 441.34 889.65 450.03 C 889.70 461.33 889.47 472.64 889.59 483.94 C 889.68 493.30 889.51 502.66 889.58 512.03 C 889.68 525.00 889.44 537.98 889.61 550.96 C 889.63 558.30 889.51 565.64 889.61 572.99 C 889.56 583.01 889.54 593.03 889.58 603.05 C 889.63 635.35 889.44 667.65 889.67 699.94 C 889.58 699.77 889.41 699.43 889.32 699.26 C 889.59 667.15 889.36 635.03 889.44 602.92 C 889.45 591.95 889.41 580.99 889.44 570.03 C 889.41 561.34 889.48 552.66 889.43 543.98 C 889.41 534.64 889.42 525.30 889.41 515.96 C 889.50 505.29 889.34 494.62 889.42 483.95 C 889.48 472.96 889.32 461.97 889.41 450.97 C 889.43 439.98 889.37 428.98 889.30 417.98 C 889.39 408.00 889.27 398.02 889.12 388.04 C 889.45 378.01 888.78 367.99 888.86 357.96 C 889.28 343.43 887.85 328.82 889.75 314.36 C 885.61 310.31 880.93 306.88 876.60 303.04 Z" />
</g>
<g id="#fff0dfff">
<path fill="#fff0df" opacity="1.00" d=" M 410.53 302.58 C 413.73 300.46 416.27 297.36 419.86 295.84 C 420.37 297.56 420.85 299.30 421.33 301.03 C 467.88 301.23 514.45 301.15 561.00 301.25 C 564.16 301.15 567.88 301.91 570.25 299.27 C 569.91 300.40 569.60 301.54 569.32 302.68 C 540.20 302.85 511.08 302.41 481.95 302.51 C 461.80 302.24 441.63 302.11 421.49 302.42 C 409.29 312.04 397.11 321.69 384.89 331.29 L 383.97 330.80 C 382.13 329.86 380.26 328.96 378.42 328.03 C 389.08 319.49 399.94 311.20 410.53 302.58 Z" />
</g>
<g id="#934e00ff">
<path fill="#934e00" opacity="1.00" d=" M 95.86 296.70 C 101.39 298.06 106.65 300.28 112.06 302.03 C 117.63 307.10 123.94 311.27 129.46 316.37 C 127.73 317.55 125.97 318.70 124.21 319.83 C 119.20 316.52 114.91 312.28 110.11 308.70 C 105.44 304.61 100.14 301.21 95.86 296.70 Z" />
<path fill="#934e00" opacity="1.00" d=" M 859.08 296.65 L 859.88 297.00 C 861.19 297.59 862.54 298.18 863.88 298.77 C 864.31 298.88 865.16 299.10 865.59 299.21 C 867.44 299.95 869.28 300.72 871.19 301.35 C 871.38 301.44 871.77 301.62 871.96 301.70 C 872.52 301.86 873.63 302.18 874.19 302.34 C 874.36 302.41 874.70 302.54 874.87 302.61 C 875.31 302.72 876.17 302.93 876.60 303.04 C 880.93 306.88 885.61 310.31 889.75 314.36 C 887.98 315.66 886.10 316.79 884.11 317.69 C 875.94 310.48 867.31 303.80 859.08 296.65 Z" />
</g>
<g id="#fc8100ff">
<path fill="#fc8100" opacity="1.00" d=" M 570.25 299.27 C 570.53 298.53 571.08 297.03 571.35 296.29 C 573.43 298.08 575.65 299.75 577.40 301.89 C 575.61 303.27 573.80 304.64 571.70 305.52 C 574.33 308.09 577.17 310.44 580.29 312.40 C 580.28 311.58 580.27 309.95 580.26 309.13 C 578.63 308.48 577.01 307.83 575.40 307.18 C 576.31 305.34 577.23 303.51 578.02 301.61 C 581.61 305.83 586.61 308.57 590.30 312.71 C 588.56 314.12 586.82 315.55 584.79 316.52 C 590.14 321.87 596.36 326.21 602.00 331.23 C 602.09 337.49 601.87 343.75 601.98 350.01 C 529.68 349.87 457.38 349.98 385.08 350.02 C 385.16 343.78 385.31 337.52 384.89 331.29 C 397.11 321.69 409.29 312.04 421.49 302.42 C 441.63 302.11 461.80 302.24 481.95 302.51 C 511.08 302.41 540.20 302.85 569.32 302.68 C 569.60 301.54 569.91 300.40 570.25 299.27 Z" />
</g>
<g id="#ffeedcff">
<path fill="#ffeedc" opacity="1.00" d=" M 625.93 328.13 C 638.78 317.69 651.21 306.71 664.11 296.34 C 665.86 298.13 666.88 300.42 667.38 302.86 C 664.40 304.17 662.05 306.46 659.58 308.50 C 650.70 316.12 641.63 323.50 632.76 331.13 C 632.40 331.06 631.66 330.91 631.30 330.83 C 629.46 330.01 627.69 329.06 625.93 328.13 Z" />
</g>
<g id="#fd9827ff">
<path fill="#fd9827" opacity="1.00" d=" M 814.77 296.61 C 815.71 297.26 816.64 297.94 817.59 298.62 C 816.93 300.08 816.29 301.54 815.65 303.01 C 816.63 303.98 817.64 304.95 818.65 305.92 C 819.82 304.68 820.98 303.45 822.17 302.22 L 822.91 302.78 C 822.18 304.17 821.47 305.57 820.76 306.98 C 823.16 308.67 825.35 310.63 827.31 312.81 C 828.58 311.69 829.85 310.58 831.23 309.58 L 832.03 309.67 C 831.20 311.18 830.33 312.68 829.47 314.18 C 831.18 316.46 833.61 315.63 835.69 314.42 C 835.46 316.34 835.51 318.28 835.81 320.20 C 837.20 319.12 838.58 318.02 839.95 316.92 C 839.67 318.53 839.40 320.14 839.15 321.76 C 839.59 322.01 840.48 322.51 840.92 322.77 C 841.76 322.17 842.62 321.58 843.49 320.99 C 843.40 322.21 843.32 323.42 843.25 324.65 C 843.92 325.45 844.59 326.26 845.28 327.07 C 846.65 325.75 848.04 324.44 849.48 323.18 L 849.64 323.84 C 849.22 324.95 848.73 326.03 848.25 327.11 C 848.49 328.53 848.74 329.95 849.02 331.38 C 838.73 323.96 828.84 316.01 818.75 308.33 C 816.68 306.79 814.81 305.01 813.07 303.13 C 813.63 300.95 814.18 298.77 814.77 296.61 Z" />
</g>
<g id="#934d00ff">
<path fill="#934d00" opacity="1.00" d=" M 992.92 296.94 L 993.08 296.73 C 996.51 311.09 999.95 325.44 1003.47 339.78 C 1002.09 339.97 1000.71 340.15 999.35 340.34 C 999.08 341.61 998.84 342.88 998.63 344.16 C 997.19 338.42 995.87 332.64 994.35 326.92 C 993.15 322.31 992.18 317.65 991.05 313.02 C 990.17 309.36 988.82 305.72 989.19 301.89 L 989.36 301.67 C 989.43 301.58 989.56 301.41 989.63 301.32 C 990.70 299.85 991.81 298.39 992.92 296.94 Z" />
</g>
<g id="#924b00ff">
<path fill="#924b00" opacity="1.00" d=" M 1183.30 297.29 C 1183.51 297.21 1183.92 297.05 1184.13 296.97 C 1180.54 301.45 1175.48 304.41 1171.25 308.24 C 1166.59 311.95 1162.26 316.10 1157.31 319.43 C 1157.18 331.27 1157.24 343.13 1157.10 354.98 C 1155.06 354.97 1153.04 354.96 1151.02 354.95 C 1150.99 351.61 1150.99 348.28 1150.98 344.94 C 1150.95 337.30 1151.02 329.66 1150.97 322.02 C 1151.01 319.34 1150.98 316.10 1153.36 314.31 C 1157.68 310.88 1161.94 307.36 1166.22 303.87 C 1167.21 303.42 1168.22 302.99 1169.25 302.56 C 1169.44 302.49 1169.81 302.34 1170.00 302.26 C 1170.52 302.08 1171.57 301.73 1172.10 301.55 C 1172.24 301.50 1172.54 301.39 1172.69 301.34 C 1176.22 300.00 1179.80 298.76 1183.30 297.29 Z" />
</g>
<g id="#fc9929fd">
<path fill="#fc9929" opacity="1.00" d=" M 307.15 303.53 C 307.42 301.31 309.37 299.64 310.67 297.91 C 311.02 298.06 311.73 298.37 312.09 298.52 C 311.29 300.24 310.52 301.98 309.79 303.73 C 310.33 304.02 311.41 304.61 311.95 304.91 C 312.99 303.78 314.03 302.64 315.14 301.59 L 316.06 301.59 C 315.23 303.64 314.42 305.71 313.69 307.81 C 314.44 307.76 315.93 307.66 316.67 307.61 C 317.45 306.62 318.23 305.64 319.02 304.66 C 319.52 304.94 320.51 305.49 321.00 305.76 C 320.09 307.27 319.19 308.77 318.29 310.28 C 319.51 311.19 320.73 312.13 321.93 313.09 C 323.05 311.79 324.18 310.49 325.34 309.23 L 325.60 309.89 C 325.21 311.51 324.63 313.08 324.31 314.73 C 326.39 317.62 330.80 318.52 331.60 322.49 C 328.61 320.91 326.06 318.68 323.49 316.52 C 318.02 312.22 312.38 308.12 307.15 303.53 Z" />
</g>
<g id="#fffdfaff">
<path fill="#fffdfa" opacity="1.00" d=" M 863.88 298.77 C 864.68 297.39 865.25 297.54 865.59 299.21 C 865.16 299.10 864.31 298.88 863.88 298.77 Z" />
</g>
<g id="#feaa51ff">
<path fill="#feaa51" opacity="1.00" d=" M 1032.61 345.06 C 1037.02 329.22 1042.10 313.54 1046.07 297.59 C 1047.71 300.41 1050.31 302.92 1050.55 306.35 C 1050.48 306.64 1050.33 307.23 1050.26 307.52 C 1048.59 307.85 1048.42 308.43 1049.75 309.25 C 1049.59 309.56 1049.28 310.17 1049.12 310.48 C 1046.56 314.96 1045.95 320.19 1044.30 325.01 C 1042.90 330.62 1040.60 336.03 1039.94 341.80 L 1039.92 341.97 C 1037.70 342.72 1036.99 345.66 1038.74 347.27 C 1038.58 347.62 1038.26 348.34 1038.11 348.69 L 1037.23 349.64 C 1036.93 348.33 1036.64 347.03 1036.35 345.74 C 1035.10 345.51 1033.84 345.28 1032.61 345.06 Z" />
</g>
<g id="#f58604fc">
<path fill="#f58604" opacity="1.00" d=" M 312.09 298.52 C 313.11 299.53 314.15 300.54 315.14 301.59 C 314.03 302.64 312.99 303.78 311.95 304.91 C 311.41 304.61 310.33 304.02 309.79 303.73 C 310.52 301.98 311.29 300.24 312.09 298.52 Z" />
</g>
<g id="#fa8600ff">
<path fill="#fa8600" opacity="1.00" d=" M 817.59 298.62 C 819.10 299.82 820.63 301.02 822.17 302.22 C 820.98 303.45 819.82 304.68 818.65 305.92 C 817.64 304.95 816.63 303.98 815.65 303.01 C 816.29 301.54 816.93 300.08 817.59 298.62 Z" />
</g>
<g id="#f28200ff">
<path fill="#f28200" opacity="1.00" d=" M 871.19 301.35 L 871.63 301.47 L 871.96 301.70 C 871.77 301.62 871.38 301.44 871.19 301.35 Z" />
</g>
<g id="#ff9923ff">
<path fill="#ff9923" opacity="1.00" d=" M 989.36 301.67 C 989.43 301.58 989.56 301.41 989.63 301.32 C 989.56 301.41 989.43 301.58 989.36 301.67 Z" />
</g>
<g id="#ff9418ff">
<path fill="#ff9418" opacity="1.00" d=" M 1172.10 301.55 C 1172.24 301.50 1172.54 301.39 1172.69 301.34 C 1172.54 301.39 1172.24 301.50 1172.10 301.55 Z" />
</g>
<g id="#ec7d00ff">
<path fill="#ec7d00" opacity="1.00" d=" M 316.06 301.59 C 317.01 302.64 318.01 303.66 319.02 304.66 C 318.23 305.64 317.45 306.62 316.67 307.61 C 315.93 307.66 314.44 307.76 313.69 307.81 C 314.42 305.71 315.23 303.64 316.06 301.59 Z" />
</g>
<g id="#fe9925ff">
<path fill="#fe9925" opacity="1.00" d=" M 571.70 305.52 C 573.80 304.64 575.61 303.27 577.40 301.89 L 578.02 301.61 C 577.23 303.51 576.31 305.34 575.40 307.18 C 577.01 307.83 578.63 308.48 580.26 309.13 C 580.27 309.95 580.28 311.58 580.29 312.40 C 577.17 310.44 574.33 308.09 571.70 305.52 Z" />
</g>
<g id="#fe961eff">
<path fill="#fe961e" opacity="1.00" d=" M 874.19 302.34 L 874.56 302.31 L 874.87 302.61 C 874.70 302.54 874.36 302.41 874.19 302.34 Z" />
</g>
<g id="#fff0deff">
<path fill="#fff0de" opacity="1.00" d=" M 874.56 302.31 C 882.67 301.37 890.86 302.15 899.01 301.91 C 922.68 301.98 946.35 302.14 970.03 301.98 C 976.19 302.19 982.45 301.35 988.54 302.69 C 975.38 303.43 962.17 302.80 948.99 303.01 C 924.86 303.03 900.73 302.96 876.60 303.04 C 876.17 302.93 875.31 302.72 874.87 302.61 L 874.56 302.31 Z" />
</g>
<g id="#fe9011ff">
<path fill="#fe9011" opacity="1.00" d=" M 1169.56 302.39 L 1170.00 302.26 C 1169.81 302.34 1169.44 302.49 1169.25 302.56 L 1169.56 302.39 Z" />
</g>
<g id="#fc8200ff">
<path fill="#fc8200" opacity="1.00" d=" M 659.58 308.50 C 662.05 306.46 664.40 304.17 667.38 302.86 C 715.94 303.29 764.51 302.76 813.07 303.13 C 814.81 305.01 816.68 306.79 818.75 308.33 C 828.84 316.01 838.73 323.96 849.02 331.38 C 848.74 329.95 848.49 328.53 848.25 327.11 C 848.73 326.03 849.22 324.95 849.64 323.84 C 851.75 325.09 853.64 326.68 855.62 328.13 C 853.68 329.02 851.68 329.81 849.94 331.04 C 848.91 334.54 849.70 338.35 849.51 341.97 C 777.10 342.13 704.69 341.84 632.29 342.12 C 632.25 352.73 632.08 363.35 632.12 373.96 C 632.25 382.95 631.67 391.93 631.84 400.93 C 631.82 407.92 631.68 414.92 631.73 421.92 C 631.78 429.96 631.46 437.99 631.68 446.03 C 631.74 454.37 631.48 462.70 631.63 471.04 C 631.70 479.35 631.47 487.65 631.59 495.96 C 631.63 503.96 631.55 511.96 631.61 519.96 C 631.54 532.62 631.64 545.28 631.57 557.93 C 631.61 568.64 631.51 579.34 631.59 590.04 C 631.67 620.01 631.32 649.99 631.74 679.96 C 630.98 653.00 631.69 625.99 631.37 599.02 C 631.54 585.99 631.35 572.97 631.41 559.94 C 631.54 549.28 631.42 538.62 631.38 527.96 C 631.57 517.29 631.32 506.62 631.40 495.95 C 631.43 486.95 631.39 477.96 631.40 468.97 C 631.40 459.97 631.44 450.97 631.35 441.97 C 631.45 434.00 631.34 426.02 631.31 418.05 C 631.41 408.71 631.19 399.38 631.10 390.04 C 631.27 381.01 630.72 371.99 630.88 362.96 C 631.14 352.25 630.29 341.51 631.30 330.83 C 631.66 330.91 632.40 331.06 632.76 331.13 C 641.63 323.50 650.70 316.12 659.58 308.50 Z" />
<path fill="#fc8200" opacity="1.00" d=" M 1051.32 303.88 C 1089.62 303.39 1127.92 304.15 1166.22 303.87 C 1161.94 307.36 1157.68 310.88 1153.36 314.31 C 1150.98 316.10 1151.01 319.34 1150.97 322.02 C 1151.02 329.66 1150.95 337.30 1150.98 344.94 C 1121.00 345.10 1091.02 344.98 1061.04 344.98 C 1053.95 344.92 1046.85 345.32 1039.78 344.66 C 1039.82 343.99 1039.88 342.64 1039.92 341.97 L 1039.94 341.80 C 1043.34 331.47 1046.19 320.96 1049.12 310.48 C 1049.28 310.17 1049.59 309.56 1049.75 309.25 C 1049.88 308.82 1050.13 307.95 1050.26 307.52 C 1050.33 307.23 1050.48 306.64 1050.55 306.35 C 1050.74 305.73 1051.13 304.49 1051.32 303.88 Z" />
</g>
<g id="#fa8500ff">
<path fill="#fa8500" opacity="1.00" d=" M 822.91 302.78 C 825.66 305.06 828.67 307.06 831.23 309.58 C 829.85 310.58 828.58 311.69 827.31 312.81 C 825.35 310.63 823.16 308.67 820.76 306.98 C 821.47 305.57 822.18 304.17 822.91 302.78 Z" />
</g>
<g id="#f78300ff">
<path fill="#f78300" opacity="1.00" d=" M 321.00 305.76 C 322.35 307.03 323.75 308.26 325.34 309.23 C 324.18 310.49 323.05 311.79 321.93 313.09 C 320.73 312.13 319.51 311.19 318.29 310.28 C 319.19 308.77 320.09 307.27 321.00 305.76 Z" />
</g>
<g id="#ffd09bff">
<path fill="#ffd09b" opacity="1.00" d=" M 1049.75 309.25 C 1048.42 308.43 1048.59 307.85 1050.26 307.52 C 1050.13 307.95 1049.88 308.82 1049.75 309.25 Z" />
</g>
<g id="#fa8300ff">
<path fill="#fa8300" opacity="1.00" d=" M 832.03 309.67 C 837.56 314.50 843.54 318.86 849.48 323.18 C 848.04 324.44 846.65 325.75 845.28 327.07 C 844.59 326.26 843.92 325.45 843.25 324.65 C 843.32 323.42 843.40 322.21 843.49 320.99 C 842.62 321.58 841.76 322.17 840.92 322.77 C 840.48 322.51 839.59 322.01 839.15 321.76 C 839.40 320.14 839.67 318.53 839.95 316.92 C 838.58 318.02 837.20 319.12 835.81 320.20 C 835.51 318.28 835.46 316.34 835.69 314.42 C 833.61 315.63 831.18 316.46 829.47 314.18 C 830.33 312.68 831.20 311.18 832.03 309.67 Z" />
</g>
<g id="#fd9424ff">
<path fill="#fd9424" opacity="1.00" d=" M 584.79 316.52 C 586.82 315.55 588.56 314.12 590.30 312.71 L 590.98 312.57 C 590.22 314.59 589.49 316.62 588.88 318.69 C 590.51 319.66 592.14 320.64 593.77 321.62 C 594.87 320.54 595.97 319.46 597.15 318.46 L 597.95 318.52 C 597.26 320.28 596.49 322.01 596.03 323.85 C 597.04 325.12 598.44 325.99 599.72 326.97 C 600.75 325.62 601.77 324.26 602.86 322.95 C 603.04 323.11 603.41 323.42 603.59 323.58 C 602.87 325.01 602.13 326.44 601.39 327.87 C 601.51 328.48 601.75 329.72 601.87 330.33 L 602.00 331.23 C 596.36 326.21 590.14 321.87 584.79 316.52 Z" />
</g>
<g id="#f07e00ff">
<path fill="#f07e00" opacity="1.00" d=" M 590.98 312.57 C 592.84 314.74 595.12 316.47 597.15 318.46 C 595.97 319.46 594.87 320.54 593.77 321.62 C 592.14 320.64 590.51 319.66 588.88 318.69 C 589.49 316.62 590.22 314.59 590.98 312.57 Z" />
</g>
<g id="#f27a00ff">
<path fill="#f27a00" opacity="1.00" d=" M 889.75 314.36 C 887.85 328.82 889.28 343.43 888.86 357.96 C 887.23 357.95 885.61 357.95 884.00 357.96 C 884.09 344.53 883.84 331.11 884.11 317.69 C 886.10 316.79 887.98 315.66 889.75 314.36 Z" />
</g>
<g id="#f27900ff">
<path fill="#f27900" opacity="1.00" d=" M 129.46 316.37 C 129.55 316.57 129.74 316.97 129.83 317.17 C 129.80 318.44 129.72 319.71 129.66 320.99 C 129.19 333.32 129.57 345.68 129.40 358.02 C 128.13 356.01 126.12 354.91 123.81 354.53 C 123.97 343.05 123.90 331.58 123.90 320.10 L 124.21 319.83 C 125.97 318.70 127.73 317.55 129.46 316.37 Z" />
</g>
<g id="#f69731f8">
<path fill="#f69731" opacity="0.97" d=" M 335.44 317.64 L 335.51 317.50 C 335.93 317.81 336.77 318.41 337.19 318.71 C 335.98 320.75 335.11 322.97 334.96 325.36 C 336.88 324.31 338.69 323.09 340.46 321.80 C 339.89 323.88 339.36 325.97 338.85 328.07 C 337.97 327.70 337.10 327.33 336.24 326.97 C 334.87 325.84 333.56 324.64 332.24 323.46 C 333.29 321.51 334.36 319.57 335.44 317.64 Z" />
</g>
<g id="#f97a00ff">
<path fill="#f97a00" opacity="1.00" d=" M 337.19 318.71 C 339.83 321.01 342.73 323.01 345.29 325.42 C 343.54 326.91 341.72 328.32 339.83 329.63 C 341.87 331.41 344.09 332.97 346.43 334.34 C 345.85 332.50 344.88 330.74 344.71 328.81 C 345.27 327.90 345.87 327.01 346.51 326.16 C 348.61 327.74 350.60 329.48 352.58 331.22 C 350.74 332.17 348.90 333.10 347.06 334.04 C 346.99 346.68 346.95 359.32 346.98 371.95 C 274.52 371.85 202.07 371.84 129.61 372.00 C 129.42 357.01 129.67 342.02 129.56 327.03 C 198.45 327.05 267.35 327.18 336.24 326.97 C 337.10 327.33 337.97 327.70 338.85 328.07 C 339.36 325.97 339.89 323.88 340.46 321.80 C 338.69 323.09 336.88 324.31 334.96 325.36 C 335.11 322.97 335.98 320.75 337.19 318.71 Z" />
</g>
<g id="#f27d00ff">
<path fill="#f27d00" opacity="1.00" d=" M 597.95 318.52 C 599.47 320.11 601.14 321.56 602.86 322.95 C 601.77 324.26 600.75 325.62 599.72 326.97 C 598.44 325.99 597.04 325.12 596.03 323.85 C 596.49 322.01 597.26 320.28 597.95 318.52 Z" />
</g>
<g id="#f07c00ff">
<path fill="#f07c00" opacity="1.00" d=" M 603.59 323.58 C 605.10 324.95 606.65 326.26 608.25 327.54 C 606.12 328.46 603.99 329.39 601.87 330.33 C 601.75 329.72 601.51 328.48 601.39 327.87 C 602.13 326.44 602.87 325.01 603.59 323.58 Z" />
</g>
<g id="#fa9429fc">
<path fill="#fa9429" opacity="1.00" d=" M 339.83 329.63 C 341.72 328.32 343.54 326.91 345.29 325.42 C 345.59 325.60 346.20 325.98 346.51 326.16 C 345.87 327.01 345.27 327.90 344.71 328.81 C 344.88 330.74 345.85 332.50 346.43 334.34 C 344.09 332.97 341.87 331.41 339.83 329.63 Z" />
</g>
<g id="#fa7d00ff">
<path fill="#fa7d00" opacity="1.00" d=" M 890.34 327.19 C 925.00 326.71 959.68 327.28 994.35 326.92 C 995.87 332.64 997.19 338.42 998.63 344.16 C 999.22 346.90 999.90 349.62 1000.57 352.35 C 995.44 353.55 990.15 352.95 984.94 353.04 C 953.37 352.96 921.80 353.13 890.24 352.97 C 890.27 344.38 890.10 335.78 890.34 327.19 Z" />
</g>
<g id="#f37a00ff">
<path fill="#f37a00" opacity="1.00" d=" M 378.33 350.58 C 378.26 343.06 378.42 335.54 378.42 328.03 C 380.26 328.96 382.13 329.86 383.97 330.80 C 383.59 336.80 383.83 342.80 383.81 348.81 C 381.94 349.25 380.01 349.61 378.33 350.58 Z" />
</g>
<g id="#914600ff">
<path fill="#914600" opacity="1.00" d=" M 601.87 330.33 C 603.99 329.39 606.12 328.46 608.25 327.54 C 608.35 342.35 608.26 357.17 608.29 371.98 C 606.19 371.97 604.10 371.97 602.01 371.96 C 601.98 364.65 602.03 357.33 601.98 350.01 C 601.87 343.75 602.09 337.49 602.00 331.23 L 601.87 330.33 Z" />
<path fill="#914600" opacity="1.00" d=" M 352.58 331.22 L 353.00 331.01 C 353.00 345.34 352.99 359.68 353.00 374.02 C 351.00 374.03 349.00 374.04 347.01 374.06 C 347.00 373.53 346.99 372.48 346.98 371.95 C 346.95 359.32 346.99 346.68 347.06 334.04 C 348.90 333.10 350.74 332.17 352.58 331.22 Z" />
</g>
<g id="#f17700ff">
<path fill="#f17700" opacity="1.00" d=" M 625.93 328.13 C 627.69 329.06 629.46 330.01 631.30 330.83 C 630.29 341.51 631.14 352.25 630.88 362.96 C 629.25 362.96 627.62 362.96 626.00 362.97 C 625.97 351.35 626.08 339.74 625.93 328.13 Z" />
</g>
<g id="#8f4300ff">
<path fill="#8f4300" opacity="1.00" d=" M 849.94 331.04 C 851.68 329.81 853.68 329.02 855.62 328.13 C 855.83 353.49 855.64 378.85 855.70 404.21 C 853.96 404.04 852.25 403.89 850.53 403.73 C 850.37 401.03 850.05 398.35 849.62 395.68 C 849.60 395.27 849.56 394.44 849.54 394.03 C 849.33 387.34 849.55 380.66 849.47 373.97 C 849.46 363.30 849.53 352.63 849.51 341.97 C 849.70 338.35 848.91 334.54 849.94 331.04 Z" />
</g>
<g id="#fa8f29ff">
<path fill="#fa8f29" opacity="1.00" d=" M 383.97 330.80 L 384.89 331.29 C 385.31 337.52 385.16 343.78 385.08 350.02 C 384.44 352.64 383.64 355.27 383.69 358.00 C 383.74 366.33 383.65 374.66 383.72 383.00 C 383.67 392.68 383.67 402.36 383.68 412.05 C 383.59 420.02 383.62 427.99 383.68 435.96 C 383.58 441.63 383.57 447.31 383.64 452.98 C 383.61 463.29 383.52 473.61 383.67 483.92 C 383.57 493.29 383.51 502.67 383.64 512.04 C 383.57 521.68 383.51 531.32 383.63 540.96 C 383.62 546.64 383.59 552.33 383.61 558.01 C 383.49 567.67 383.61 577.32 383.60 586.98 C 383.48 597.31 383.58 607.65 383.60 617.98 C 383.50 642.37 383.61 666.76 383.53 691.15 C 383.23 660.44 383.57 629.73 383.38 599.02 C 383.49 587.66 383.44 576.31 383.38 564.95 C 383.51 554.95 383.44 544.95 383.40 534.96 C 383.36 524.62 383.47 514.27 383.39 503.93 C 383.33 493.93 383.52 483.93 383.36 473.93 C 383.37 464.60 383.40 455.28 383.33 445.95 C 383.45 437.61 383.37 429.28 383.32 420.95 C 383.44 409.94 383.30 398.93 383.28 387.92 C 383.28 375.91 383.49 363.89 382.99 351.89 C 381.26 351.76 379.53 351.64 377.81 351.51 L 378.33 350.58 C 380.01 349.61 381.94 349.25 383.81 348.81 C 383.83 342.80 383.59 336.80 383.97 330.80 Z" />
</g>
<g id="#8f4200ff">
<path fill="#8f4200" opacity="1.00" d=" M 999.35 340.34 C 1000.71 340.15 1002.09 339.97 1003.47 339.78 C 1007.12 354.88 1010.73 369.98 1014.37 385.07 C 1015.26 388.69 1015.95 392.36 1017.26 395.86 C 1015.44 396.70 1013.56 397.37 1011.63 397.84 C 1010.40 393.49 1009.38 389.08 1008.37 384.68 C 1005.62 373.94 1003.28 363.10 1000.57 352.35 C 999.90 349.62 999.22 346.90 998.63 344.16 C 998.84 342.88 999.08 341.61 999.35 340.34 Z" />
</g>
<g id="#f87700ff">
<path fill="#f87700" opacity="1.00" d=" M 632.29 342.12 C 704.69 341.84 777.10 342.13 849.51 341.97 C 849.53 352.63 849.46 363.30 849.47 373.97 C 777.02 373.93 704.57 373.95 632.12 373.96 C 632.08 363.35 632.25 352.73 632.29 342.12 Z" />
</g>
<g id="#fcbf83ff">
<path fill="#fcbf83" opacity="1.00" d=" M 1038.74 347.27 C 1036.99 345.66 1037.70 342.72 1039.92 341.97 C 1039.88 342.64 1039.82 343.99 1039.78 344.66 C 1039.52 345.31 1039.00 346.62 1038.74 347.27 Z" />
</g>
<g id="#f99e51ff">
<path fill="#f99e51" opacity="1.00" d=" M 1032.61 345.06 C 1033.84 345.28 1035.10 345.51 1036.35 345.74 C 1036.64 347.03 1036.93 348.33 1037.23 349.64 C 1034.49 359.56 1030.97 369.31 1029.01 379.41 L 1028.96 379.68 C 1026.75 381.40 1027.00 384.25 1027.06 386.75 L 1027.05 387.30 C 1025.42 387.60 1025.31 388.16 1026.71 389.00 C 1026.57 389.35 1026.29 390.05 1026.14 390.40 C 1024.53 390.82 1024.38 391.41 1025.70 392.18 C 1025.55 392.46 1025.26 393.04 1025.11 393.32 C 1023.63 393.52 1022.82 395.90 1024.76 396.07 C 1024.45 396.83 1024.19 397.61 1023.89 398.37 C 1021.95 397.36 1020.02 396.35 1018.10 395.36 C 1022.87 378.58 1027.77 361.82 1032.61 345.06 Z" />
</g>
<g id="#f87500ff">
<path fill="#f87500" opacity="1.00" d=" M 1038.74 347.27 C 1039.00 346.62 1039.52 345.31 1039.78 344.66 C 1046.85 345.32 1053.95 344.92 1061.04 344.98 C 1091.02 344.98 1121.00 345.10 1150.98 344.94 C 1150.99 348.28 1150.99 351.61 1151.02 354.95 C 1151.07 362.31 1150.92 369.67 1150.98 377.03 C 1110.63 376.93 1070.28 377.12 1029.93 376.97 C 1032.73 367.56 1035.45 358.14 1038.11 348.69 C 1038.26 348.34 1038.58 347.62 1038.74 347.27 Z" />
</g>
<g id="#f77300ff">
<path fill="#f77300" opacity="1.00" d=" M 385.08 350.02 C 457.38 349.98 529.68 349.87 601.98 350.01 C 602.03 357.33 601.98 364.65 602.01 371.96 C 602.00 375.63 601.96 379.29 601.99 382.96 C 529.23 383.16 456.48 382.92 383.72 383.00 C 383.65 374.66 383.74 366.33 383.69 358.00 C 383.64 355.27 384.44 352.64 385.08 350.02 Z" />
</g>
<g id="#ee6e00ff">
<path fill="#ee6e00" opacity="1.00" d=" M 377.81 351.51 C 379.53 351.64 381.26 351.76 382.99 351.89 C 383.49 363.89 383.28 375.91 383.28 387.92 C 381.52 387.96 379.76 388.01 378.00 388.06 C 377.90 375.88 378.23 363.68 377.81 351.51 Z" />
<path fill="#ee6e00" opacity="1.00" d=" M 123.81 354.53 C 126.12 354.91 128.13 356.01 129.40 358.02 C 129.29 364.75 129.55 371.48 129.42 378.21 C 129.20 380.21 128.92 382.20 128.75 384.22 C 128.37 383.26 127.97 382.32 127.56 381.38 C 126.29 381.19 125.01 381.01 123.74 380.83 C 123.86 372.06 123.75 363.29 123.81 354.53 Z" />
</g>
<g id="#f77200ff">
<path fill="#f77200" opacity="1.00" d=" M 1000.57 352.35 C 1003.28 363.10 1005.62 373.94 1008.37 384.68 C 1006.74 383.69 1005.00 382.73 1003.04 382.90 C 965.37 383.03 927.70 382.92 890.04 382.95 C 889.79 372.96 890.29 362.97 890.24 352.97 C 921.80 353.13 953.37 352.96 984.94 353.04 C 990.15 352.95 995.44 353.55 1000.57 352.35 Z" />
</g>
<g id="#8e4000ff">
<path fill="#8e4000" opacity="1.00" d=" M 1151.02 354.95 C 1153.04 354.96 1155.06 354.97 1157.10 354.98 C 1157.16 369.34 1157.10 383.71 1157.10 398.08 C 1155.06 398.03 1153.03 397.99 1151.01 397.95 C 1150.97 390.98 1151.03 384.00 1150.98 377.03 C 1150.92 369.67 1151.07 362.31 1151.02 354.95 Z" />
</g>
<g id="#ed6c00ff">
<path fill="#ed6c00" opacity="1.00" d=" M 884.00 357.96 C 885.61 357.95 887.23 357.95 888.86 357.96 C 888.78 367.99 889.45 378.01 889.12 388.04 C 887.40 388.01 885.70 387.98 884.00 387.96 C 884.01 377.96 883.99 367.96 884.00 357.96 Z" />
</g>
<g id="#ec6b00ff">
<path fill="#ec6b00" opacity="1.00" d=" M 626.00 362.97 C 627.62 362.96 629.25 362.96 630.88 362.96 C 630.72 371.99 631.27 381.01 631.10 390.04 C 629.39 390.00 627.69 389.96 626.00 389.93 C 626.01 380.94 625.99 371.96 626.00 362.97 Z" />
</g>
<g id="#f56c00ff">
<path fill="#f56c00" opacity="1.00" d=" M 129.61 372.00 C 202.07 371.84 274.52 371.85 346.98 371.95 C 346.99 372.48 347.00 373.53 347.01 374.06 C 347.10 380.70 346.96 387.34 346.99 393.99 C 319.81 394.02 292.63 394.03 265.45 393.97 C 265.42 392.86 265.39 391.76 265.37 390.67 L 265.36 389.38 C 265.71 386.37 263.14 383.67 260.07 384.01 C 245.37 383.91 230.67 384.06 215.97 383.95 C 213.76 383.98 211.20 383.86 209.60 385.67 C 207.38 387.83 208.08 391.18 207.94 393.96 C 181.98 394.09 156.02 393.95 130.06 394.05 C 129.97 388.47 130.36 382.86 129.51 377.31 C 129.57 375.54 129.61 373.77 129.61 372.00 Z" />
</g>
<g id="#8d3c00ff">
<path fill="#8d3c00" opacity="1.00" d=" M 602.01 371.96 C 604.10 371.97 606.19 371.97 608.29 371.98 C 608.30 385.31 608.29 398.65 608.29 411.98 C 606.18 411.98 604.07 411.98 601.97 411.99 C 601.96 402.31 602.05 392.64 601.99 382.96 C 601.96 379.29 602.00 375.63 602.01 371.96 Z" />
</g>
<g id="#8c3b00ff">
<path fill="#8c3b00" opacity="1.00" d=" M 347.01 374.06 C 349.00 374.04 351.00 374.03 353.00 374.02 C 353.01 388.69 352.99 403.36 353.00 418.03 C 351.00 418.02 349.00 418.03 347.01 418.03 L 347.00 417.03 C 346.94 409.35 347.04 401.67 346.99 393.99 C 346.96 387.34 347.10 380.70 347.01 374.06 Z" />
</g>
<g id="#f46b00ff">
<path fill="#f46b00" opacity="1.00" d=" M 632.12 373.96 C 704.57 373.95 777.02 373.93 849.47 373.97 C 849.55 380.66 849.33 387.34 849.54 394.03 C 822.90 393.96 796.26 394.12 769.62 393.95 C 769.63 393.43 769.65 392.41 769.65 391.90 C 769.66 390.61 769.60 389.34 769.48 388.07 C 767.27 385.11 763.58 384.23 760.07 384.32 C 747.04 384.30 734.01 384.33 720.97 384.30 C 717.51 384.36 712.88 384.52 711.33 388.27 C 710.54 392.43 711.09 396.71 710.99 400.93 C 684.60 400.91 658.22 400.95 631.84 400.93 C 631.67 391.93 632.25 382.95 632.12 373.96 Z" />
</g>
<g id="#f36700ff">
<path fill="#f36700" opacity="1.00" d=" M 1029.93 376.97 C 1070.28 377.12 1110.63 376.93 1150.98 377.03 C 1151.03 384.00 1150.97 390.98 1151.01 397.95 C 1151.00 399.96 1151.01 401.98 1151.02 404.00 C 1063.94 403.96 976.86 403.95 889.78 404.02 C 889.65 396.99 890.05 389.97 890.04 382.95 C 927.70 382.92 965.37 383.03 1003.04 382.90 C 1005.00 382.73 1006.74 383.69 1008.37 384.68 C 1009.38 389.08 1010.40 393.49 1011.63 397.84 C 1013.56 397.37 1015.44 396.70 1017.26 395.86 C 1016.92 397.90 1016.16 399.82 1015.13 401.61 C 1016.79 401.80 1018.46 401.98 1020.16 402.15 C 1021.43 400.92 1022.68 399.67 1023.89 398.37 C 1024.19 397.61 1024.45 396.83 1024.76 396.07 C 1024.85 395.38 1025.02 394.01 1025.11 393.32 C 1025.26 393.04 1025.55 392.46 1025.70 392.18 C 1025.81 391.73 1026.03 390.85 1026.14 390.40 C 1026.29 390.05 1026.57 389.35 1026.71 389.00 C 1026.80 388.58 1026.97 387.73 1027.05 387.30 L 1027.06 386.75 C 1028.00 384.49 1028.81 382.14 1028.96 379.68 L 1029.01 379.41 C 1029.24 378.80 1029.70 377.58 1029.93 376.97 Z" />
</g>
<g id="#f37926ff">
<path fill="#f37926" opacity="1.00" d=" M 129.42 378.21 L 129.51 377.31 C 130.36 382.86 129.97 388.47 130.06 394.05 C 130.15 401.69 129.99 409.33 130.06 416.97 C 130.09 421.83 129.93 426.68 129.81 431.53 L 129.18 430.39 C 128.78 424.62 128.94 418.83 128.91 413.05 C 128.95 403.44 128.93 393.83 128.75 384.22 C 128.92 382.20 129.20 380.21 129.42 378.21 Z" />
</g>
<g id="#fab680ff">
<path fill="#fab680" opacity="1.00" d=" M 1027.06 386.75 C 1027.00 384.25 1026.75 381.40 1028.96 379.68 C 1028.81 382.14 1028.00 384.49 1027.06 386.75 Z" />
</g>
<g id="#ea6200ff">
<path fill="#ea6200" opacity="1.00" d=" M 123.74 380.83 C 125.01 381.01 126.29 381.19 127.56 381.38 C 127.97 382.32 128.37 383.26 128.75 384.22 C 128.93 393.83 128.95 403.44 128.91 413.05 C 128.22 410.58 125.98 409.86 123.66 409.61 C 123.70 400.01 123.80 390.42 123.74 380.83 Z" />
</g>
<g id="#f26400ff">
<path fill="#f26400" opacity="1.00" d=" M 383.72 383.00 C 456.48 382.92 529.23 383.16 601.99 382.96 C 602.05 392.64 601.96 402.31 601.97 411.99 C 601.98 412.74 601.99 414.23 601.99 414.97 C 576.01 414.88 550.03 415.00 524.06 414.95 C 523.44 407.06 525.15 398.95 523.11 391.23 L 522.94 390.45 C 522.40 388.74 522.59 386.32 520.66 385.48 C 517.69 383.95 514.27 383.97 511.02 383.97 C 498.69 384.08 486.36 383.92 474.03 384.03 C 470.53 384.05 466.25 385.29 465.22 389.09 C 464.72 392.69 465.07 396.34 465.01 399.97 C 465.01 403.95 464.96 407.93 464.99 411.92 C 437.88 412.10 410.78 411.81 383.68 412.05 C 383.67 402.36 383.67 392.68 383.72 383.00 Z" />
</g>
<g id="#8e3e00ff">
<path fill="#8e3e00" opacity="1.00" d=" M 209.60 385.67 C 211.20 383.86 213.76 383.98 215.97 383.95 C 230.67 384.06 245.37 383.91 260.07 384.01 C 263.14 383.67 265.71 386.37 265.36 389.38 C 263.59 389.57 261.83 389.77 260.06 389.92 C 244.76 390.12 229.47 389.93 214.17 390.01 C 214.18 398.32 214.17 406.63 214.17 414.94 C 212.11 414.96 210.05 414.98 207.99 415.01 C 207.95 407.99 208.07 400.97 207.94 393.96 C 208.08 391.18 207.38 387.83 209.60 385.67 Z" />
<path fill="#8e3e00" opacity="1.00" d=" M 465.22 389.09 C 466.25 385.29 470.53 384.05 474.03 384.03 C 486.36 383.92 498.69 384.08 511.02 383.97 C 514.27 383.97 517.69 383.95 520.66 385.48 C 522.59 386.32 522.40 388.74 522.94 390.45 C 521.17 390.51 519.40 390.57 517.64 390.60 C 502.15 390.66 486.66 390.47 471.18 390.69 C 471.17 393.80 471.17 396.90 471.17 400.01 C 469.11 399.99 467.06 399.98 465.01 399.97 C 465.07 396.34 464.72 392.69 465.22 389.09 Z" />
</g>
<g id="#8e3d00ff">
<path fill="#8e3d00" opacity="1.00" d=" M 711.33 388.27 C 712.88 384.52 717.51 384.36 720.97 384.30 C 734.01 384.33 747.04 384.30 760.07 384.32 C 763.58 384.23 767.27 385.11 769.48 388.07 C 769.14 388.65 768.47 389.81 768.13 390.39 C 766.70 390.53 765.27 390.67 763.86 390.78 C 748.25 390.84 732.63 390.75 717.02 390.82 C 716.98 395.22 716.98 399.62 717.00 404.02 C 714.99 404.03 713.00 404.04 711.01 404.06 C 711.00 403.27 710.99 401.71 710.99 400.93 C 711.09 396.71 710.54 392.43 711.33 388.27 Z" />
</g>
<g id="#fbc8a1ff">
<path fill="#fbc8a1" opacity="1.00" d=" M 1026.71 389.00 C 1025.31 388.16 1025.42 387.60 1027.05 387.30 C 1026.97 387.73 1026.80 388.58 1026.71 389.00 Z" />
</g>
<g id="#e85e00ff">
<path fill="#e85e00" opacity="1.00" d=" M 378.00 388.06 C 379.76 388.01 381.52 387.96 383.28 387.92 C 383.30 398.93 383.44 409.94 383.32 420.95 C 381.54 420.93 379.77 420.93 378.00 420.92 C 378.01 409.97 377.99 399.01 378.00 388.06 Z" />
<path fill="#e85e00" opacity="1.00" d=" M 260.06 389.92 C 261.83 389.77 263.59 389.57 265.36 389.38 L 265.37 390.67 C 265.20 401.13 265.43 411.60 265.12 422.06 C 263.41 422.03 261.71 422.01 260.00 421.99 C 260.04 411.30 259.92 400.61 260.06 389.92 Z" />
</g>
<g id="#e85d00ff">
<path fill="#e85d00" opacity="1.00" d=" M 769.48 388.07 C 769.60 389.34 769.66 390.61 769.65 391.90 C 769.05 402.52 769.62 413.16 769.43 423.79 C 767.68 422.75 765.78 422.02 763.83 421.51 C 763.84 411.27 763.78 401.02 763.86 390.78 C 765.27 390.67 766.70 390.53 768.13 390.39 C 768.47 389.81 769.14 388.65 769.48 388.07 Z" />
</g>
<g id="#e85f00ff">
<path fill="#e85f00" opacity="1.00" d=" M 884.00 387.96 C 885.70 387.98 887.40 388.01 889.12 388.04 C 889.27 398.02 889.39 408.00 889.30 417.98 C 887.52 417.97 885.76 417.97 884.00 417.97 C 884.01 407.97 883.99 397.96 884.00 387.96 Z" />
<path fill="#e85f00" opacity="1.00" d=" M 626.00 389.93 C 627.69 389.96 629.39 390.00 631.10 390.04 C 631.19 399.38 631.41 408.71 631.31 418.05 C 629.53 418.02 627.77 418.00 626.00 417.98 C 626.01 408.63 625.99 399.28 626.00 389.93 Z" />
</g>
<g id="#fbc49cff">
<path fill="#fbc49c" opacity="1.00" d=" M 1025.70 392.18 C 1024.38 391.41 1024.53 390.82 1026.14 390.40 C 1026.03 390.85 1025.81 391.73 1025.70 392.18 Z" />
</g>
<g id="#e24319ff">
<path fill="#e24319" opacity="1.00" d=" M 265.37 390.67 C 265.39 391.76 265.42 392.86 265.45 393.97 C 265.60 401.66 265.41 409.36 265.67 417.05 C 265.66 422.72 265.41 428.39 265.72 434.06 C 265.91 440.36 265.75 446.67 265.93 452.98 C 266.04 459.01 266.01 465.05 266.10 471.10 C 266.12 477.71 266.01 484.33 266.10 490.94 C 266.08 497.95 265.72 504.96 266.04 511.97 C 266.21 522.62 265.54 533.27 265.79 543.92 C 265.71 554.26 265.69 564.60 265.72 574.94 C 265.66 584.30 265.62 593.67 265.71 603.03 C 265.56 608.89 265.68 614.75 266.09 620.60 C 263.89 619.92 261.81 618.96 259.63 618.26 C 259.72 617.93 259.91 617.26 260.00 616.93 C 261.69 617.41 263.37 617.89 265.06 618.38 C 265.75 606.91 265.16 595.41 265.29 583.93 C 265.39 573.62 265.26 563.32 265.23 553.02 C 265.33 543.34 265.12 533.66 265.19 523.99 C 265.21 514.66 264.78 505.34 264.90 496.02 C 265.01 488.00 264.76 479.98 264.82 471.97 C 265.08 463.98 264.65 456.00 264.83 448.02 C 265.49 439.37 264.52 430.70 265.12 422.06 C 265.43 411.60 265.20 401.13 265.37 390.67 Z" />
</g>
<g id="#e85c00ff">
<path fill="#e85c00" opacity="1.00" d=" M 517.64 390.60 C 519.40 390.57 521.17 390.51 522.94 390.45 L 523.11 391.23 C 522.36 405.90 523.46 420.60 522.84 435.27 C 522.49 433.62 522.05 431.99 521.64 430.36 C 520.28 430.16 518.93 429.96 517.59 429.77 C 517.63 416.71 517.51 403.66 517.64 390.60 Z" />
</g>
<g id="#f1782eff">
<path fill="#f1782e" opacity="1.00" d=" M 523.11 391.23 C 525.15 398.95 523.44 407.06 524.06 414.95 C 524.11 421.30 523.93 427.66 524.04 434.02 C 524.15 437.88 524.06 441.75 523.58 445.59 L 523.47 446.65 C 522.99 442.87 522.79 439.07 522.84 435.27 C 523.46 420.60 522.36 405.90 523.11 391.23 Z" />
</g>
<g id="#fabb8dff">
<path fill="#fabb8d" opacity="1.00" d=" M 1024.76 396.07 C 1022.82 395.90 1023.63 393.52 1025.11 393.32 C 1025.02 394.01 1024.85 395.38 1024.76 396.07 Z" />
</g>
<g id="#f16100ff">
<path fill="#f16100" opacity="1.00" d=" M 130.06 394.05 C 156.02 393.95 181.98 394.09 207.94 393.96 C 208.07 400.97 207.95 407.99 207.99 415.01 C 207.99 415.52 208.00 416.53 208.00 417.03 C 182.02 416.94 156.04 417.04 130.06 416.97 C 129.99 409.33 130.15 401.69 130.06 394.05 Z" />
<path fill="#f16100" opacity="1.00" d=" M 265.45 393.97 C 292.63 394.03 319.81 394.02 346.99 393.99 C 347.04 401.67 346.94 409.35 347.00 417.03 C 319.89 416.99 292.78 416.90 265.67 417.05 C 265.41 409.36 265.60 401.66 265.45 393.97 Z" />
<path fill="#f16100" opacity="1.00" d=" M 769.62 393.95 C 796.26 394.12 822.90 393.96 849.54 394.03 C 849.56 394.44 849.60 395.27 849.62 395.68 C 849.46 402.80 849.49 409.91 849.49 417.03 C 822.85 416.92 796.22 416.98 769.59 417.06 C 769.62 409.35 769.42 401.65 769.62 393.95 Z" />
</g>
<g id="#feeee3ff">
<path fill="#feeee3" opacity="1.00" d=" M 1017.44 395.03 C 1017.60 395.11 1017.93 395.28 1018.10 395.36 C 1020.02 396.35 1021.95 397.36 1023.89 398.37 C 1022.68 399.67 1021.43 400.92 1020.16 402.15 C 1018.46 401.98 1016.79 401.80 1015.13 401.61 C 1016.16 399.82 1016.92 397.90 1017.26 395.86 L 1017.44 395.03 Z" />
</g>
<g id="#8a3200ff">
<path fill="#8a3200" opacity="1.00" d=" M 849.62 395.68 C 850.05 398.35 850.37 401.03 850.53 403.73 C 852.25 403.89 853.96 404.04 855.70 404.21 C 855.72 418.14 855.69 432.06 855.70 445.99 C 853.89 446.09 852.12 446.21 850.33 446.32 C 850.51 450.04 850.36 453.77 849.64 457.43 C 849.57 455.95 849.52 454.47 849.48 452.99 C 849.39 446.69 849.52 440.38 849.47 434.07 C 849.47 428.39 849.51 422.71 849.49 417.03 C 849.49 409.91 849.46 402.80 849.62 395.68 Z" />
</g>
<g id="#8b3500ff">
<path fill="#8b3500" opacity="1.00" d=" M 1151.01 397.95 C 1153.03 397.99 1155.06 398.03 1157.10 398.08 C 1157.00 411.39 1157.09 424.71 1157.06 438.03 C 1155.03 438.01 1153.02 437.99 1151.02 437.97 C 1150.98 433.31 1151.00 428.65 1150.99 424.00 C 1150.97 417.33 1151.02 410.67 1151.02 404.00 C 1151.01 401.98 1151.00 399.96 1151.01 397.95 Z" />
<path fill="#8b3500" opacity="1.00" d=" M 465.01 399.97 C 467.06 399.98 469.11 399.99 471.17 400.01 C 471.18 411.66 471.17 423.31 471.17 434.96 C 469.11 434.98 467.04 435.01 464.98 435.04 C 464.95 427.33 465.04 419.62 464.99 411.92 C 464.96 407.93 465.01 403.95 465.01 399.97 Z" />
</g>
<g id="#f05e00ff">
<path fill="#f05e00" opacity="1.00" d=" M 631.84 400.93 C 658.22 400.95 684.60 400.91 710.99 400.93 C 710.99 401.71 711.00 403.27 711.01 404.06 C 711.06 410.04 710.95 416.03 710.99 422.02 C 684.57 421.99 658.15 422.03 631.73 421.92 C 631.68 414.92 631.82 407.92 631.84 400.93 Z" />
</g>
<g id="#8a3400ff">
<path fill="#8a3400" opacity="1.00" d=" M 711.01 404.06 C 713.00 404.04 714.99 404.03 717.00 404.02 C 717.00 414.69 716.99 425.35 717.00 436.02 C 714.99 436.02 713.00 436.02 711.01 436.03 C 711.00 431.36 711.00 426.69 710.99 422.02 C 710.95 416.03 711.06 410.04 711.01 404.06 Z" />
</g>
<g id="#ef5d00ff">
<path fill="#ef5d00" opacity="1.00" d=" M 889.78 404.02 C 976.86 403.95 1063.94 403.96 1151.02 404.00 C 1151.02 410.67 1150.97 417.33 1150.99 424.00 C 1063.90 424.06 976.81 424.07 889.72 423.95 C 889.59 417.31 889.76 410.66 889.78 404.02 Z" />
</g>
<g id="#e55400ff">
<path fill="#e55400" opacity="1.00" d=" M 123.66 409.61 C 125.98 409.86 128.22 410.58 128.91 413.05 C 128.94 418.83 128.78 424.62 129.18 430.39 C 129.08 433.01 128.92 435.63 128.88 438.26 C 128.44 436.95 127.94 435.66 127.46 434.37 C 126.21 434.17 124.96 433.97 123.72 433.77 C 123.68 425.71 123.67 417.66 123.66 409.61 Z" />
</g>
<g id="#ee5800ff">
<path fill="#ee5800" opacity="1.00" d=" M 383.68 412.05 C 410.78 411.81 437.88 412.10 464.99 411.92 C 465.04 419.62 464.95 427.33 464.98 435.04 L 464.99 436.01 C 437.89 435.91 410.78 435.93 383.68 435.96 C 383.62 427.99 383.59 420.02 383.68 412.05 Z" />
</g>
<g id="#893100ff">
<path fill="#893100" opacity="1.00" d=" M 601.97 411.99 C 604.07 411.98 606.18 411.98 608.29 411.98 C 608.30 425.00 608.29 438.02 608.29 451.04 C 606.19 451.03 604.10 451.03 602.01 451.04 C 601.97 445.36 602.01 439.69 601.99 434.02 C 601.98 427.67 602.06 421.32 601.99 414.97 C 601.99 414.23 601.98 412.74 601.97 411.99 Z" />
</g>
<g id="#882f00ff">
<path fill="#882f00" opacity="1.00" d=" M 207.99 415.01 C 210.05 414.98 212.11 414.96 214.17 414.94 C 214.18 429.63 214.17 444.32 214.17 459.01 C 212.12 459.01 210.07 459.02 208.02 459.04 C 208.00 457.03 207.99 455.02 207.99 453.02 C 207.98 446.68 208.01 440.34 208.00 433.99 C 208.01 428.34 208.07 422.69 208.00 417.03 C 208.00 416.53 207.99 415.52 207.99 415.01 Z" />
</g>
<g id="#ed5700ff">
<path fill="#ed5700" opacity="1.00" d=" M 524.06 414.95 C 550.03 415.00 576.01 414.88 601.99 414.97 C 602.06 421.32 601.98 427.67 601.99 434.02 C 576.01 433.99 550.02 433.97 524.04 434.02 C 523.93 427.66 524.11 421.30 524.06 414.95 Z" />
<path fill="#ed5700" opacity="1.00" d=" M 130.06 416.97 C 156.04 417.04 182.02 416.94 208.00 417.03 C 208.07 422.69 208.01 428.34 208.00 433.99 C 182.00 434.01 156.00 433.97 130.01 434.07 C 129.96 433.43 129.86 432.16 129.81 431.53 C 129.93 426.68 130.09 421.83 130.06 416.97 Z" />
<path fill="#ed5700" opacity="1.00" d=" M 265.67 417.05 C 292.78 416.90 319.89 416.99 347.00 417.03 L 347.01 418.03 C 347.07 423.36 347.00 428.70 347.00 434.03 C 319.90 433.94 292.81 434.01 265.72 434.06 C 265.41 428.39 265.66 422.72 265.67 417.05 Z" />
<path fill="#ed5700" opacity="1.00" d=" M 769.59 417.06 C 796.22 416.98 822.85 416.92 849.49 417.03 C 849.51 422.71 849.47 428.39 849.47 434.07 C 822.85 433.95 796.23 434.06 769.61 434.03 C 769.57 428.37 769.52 422.71 769.59 417.06 Z" />
</g>
<g id="#882e00ff">
<path fill="#882e00" opacity="1.00" d=" M 347.01 418.03 C 349.00 418.03 351.00 418.02 353.00 418.03 C 353.01 431.68 352.99 445.33 353.00 458.99 C 351.00 459.00 349.01 459.02 347.02 459.05 C 347.00 457.03 346.99 455.01 346.99 453.00 C 346.97 446.68 347.02 440.35 347.00 434.03 C 347.00 428.70 347.07 423.36 347.01 418.03 Z" />
</g>
<g id="#e55200ff">
<path fill="#e55200" opacity="1.00" d=" M 626.00 417.98 C 627.77 418.00 629.53 418.02 631.31 418.05 C 631.34 426.02 631.45 434.00 631.35 441.97 C 629.56 441.96 627.78 441.97 626.00 441.97 C 626.01 433.97 625.99 425.98 626.00 417.98 Z" />
</g>
<g id="#e44f00ff">
<path fill="#e44f00" opacity="1.00" d=" M 884.00 417.97 C 885.76 417.97 887.52 417.97 889.30 417.98 C 889.37 428.98 889.43 439.98 889.41 450.97 C 887.59 450.94 885.80 450.93 884.00 450.91 C 884.01 439.93 883.99 428.95 884.00 417.97 Z" />
<path fill="#e44f00" opacity="1.00" d=" M 260.00 421.99 C 261.71 422.01 263.41 422.03 265.12 422.06 C 264.52 430.70 265.49 439.37 264.83 448.02 C 263.22 448.02 261.61 448.03 260.00 448.04 C 260.01 439.36 259.99 430.67 260.00 421.99 Z" />
</g>
<g id="#e45000ff">
<path fill="#e45000" opacity="1.00" d=" M 378.00 420.92 C 379.77 420.93 381.54 420.93 383.32 420.95 C 383.37 429.28 383.45 437.61 383.33 445.95 C 381.55 445.95 379.78 445.96 378.00 445.97 C 378.01 437.62 377.99 429.27 378.00 420.92 Z" />
</g>
<g id="#ec5300ff">
<path fill="#ec5300" opacity="1.00" d=" M 631.73 421.92 C 658.15 422.03 684.57 421.99 710.99 422.02 C 711.00 426.69 711.00 431.36 711.01 436.03 C 711.00 439.37 710.97 442.70 710.99 446.04 C 684.55 445.90 658.12 446.05 631.68 446.03 C 631.46 437.99 631.78 429.96 631.73 421.92 Z" />
</g>
<g id="#e34f00ff">
<path fill="#e34f00" opacity="1.00" d=" M 763.83 421.51 C 765.78 422.02 767.68 422.75 769.43 423.79 C 769.49 432.84 769.37 441.89 769.46 450.94 C 768.05 449.10 766.16 447.80 763.83 447.51 C 763.82 438.84 763.81 430.18 763.83 421.51 Z" />
</g>
<g id="#eb5100ff">
<path fill="#eb5100" opacity="1.00" d=" M 889.72 423.95 C 976.81 424.07 1063.90 424.06 1150.99 424.00 C 1151.00 428.65 1150.98 433.31 1151.02 437.97 C 1151.04 441.96 1151.01 445.94 1151.00 449.94 C 1063.89 450.23 976.77 450.00 889.65 450.03 C 889.51 441.34 889.73 432.64 889.72 423.95 Z" />
</g>
<g id="#e14800ff">
<path fill="#e14800" opacity="1.00" d=" M 517.59 429.77 C 518.93 429.96 520.28 430.16 521.64 430.36 C 522.05 431.99 522.49 433.62 522.84 435.27 C 522.79 439.07 522.99 442.87 523.47 446.65 C 523.36 454.19 523.45 461.74 523.33 469.28 C 522.73 467.98 522.09 466.70 521.46 465.43 C 520.16 465.20 518.87 464.98 517.59 464.77 C 517.60 453.10 517.58 441.44 517.59 429.77 Z" />
</g>
<g id="#eb652fff">
<path fill="#eb652f" opacity="1.00" d=" M 129.18 430.39 L 129.81 431.53 C 129.86 432.16 129.96 433.43 130.01 434.07 C 130.06 440.38 129.68 446.69 130.00 453.00 C 130.18 459.33 129.98 465.67 130.06 472.01 C 130.05 479.99 129.86 487.97 130.09 495.95 C 130.09 497.50 129.84 499.06 129.27 500.52 C 128.77 496.38 128.88 492.20 128.96 488.04 C 129.13 481.11 128.91 474.18 128.84 467.25 C 128.95 457.59 129.04 447.92 128.88 438.26 C 128.92 435.63 129.08 433.01 129.18 430.39 Z" />
</g>
<g id="#e24900ff">
<path fill="#e24900" opacity="1.00" d=" M 123.72 433.77 C 124.96 433.97 126.21 434.17 127.46 434.37 C 127.94 435.66 128.44 436.95 128.88 438.26 C 129.04 447.92 128.95 457.59 128.84 467.25 C 128.49 465.60 128.05 463.97 127.62 462.35 C 126.24 462.18 124.85 462.02 123.47 461.87 C 123.94 452.51 123.62 443.13 123.72 433.77 Z" />
</g>
<g id="#ea4e00ff">
<path fill="#ea4e00" opacity="1.00" d=" M 130.01 434.07 C 156.00 433.97 182.00 434.01 208.00 433.99 C 208.01 440.34 207.98 446.68 207.99 453.02 C 181.99 452.97 156.00 452.90 130.00 453.00 C 129.68 446.69 130.06 440.38 130.01 434.07 Z" />
<path fill="#ea4e00" opacity="1.00" d=" M 265.72 434.06 C 292.81 434.01 319.90 433.94 347.00 434.03 C 347.02 440.35 346.97 446.68 346.99 453.00 C 319.97 452.97 292.95 452.97 265.93 452.98 C 265.75 446.67 265.91 440.36 265.72 434.06 Z" />
<path fill="#ea4e00" opacity="1.00" d=" M 524.04 434.02 C 550.02 433.97 576.01 433.99 601.99 434.02 C 602.01 439.69 601.97 445.36 602.01 451.04 C 602.01 451.52 602.02 452.49 602.02 452.98 C 575.89 453.05 549.77 452.93 523.65 452.98 C 523.63 450.51 523.58 448.05 523.58 445.59 C 524.06 441.75 524.15 437.88 524.04 434.02 Z" />
<path fill="#ea4e00" opacity="1.00" d=" M 769.61 434.03 C 796.23 434.06 822.85 433.95 849.47 434.07 C 849.52 440.38 849.39 446.69 849.48 452.99 C 822.85 452.93 796.21 452.99 769.58 452.97 C 769.54 446.66 769.57 440.34 769.61 434.03 Z" />
</g>
<g id="#872c00ff">
<path fill="#872c00" opacity="1.00" d=" M 464.98 435.04 C 467.04 435.01 469.11 434.98 471.17 434.96 C 471.17 444.97 471.17 454.99 471.17 465.00 C 469.11 465.03 467.06 465.06 465.01 465.09 C 465.00 461.07 465.00 457.05 464.99 453.04 C 464.98 447.36 465.04 441.68 464.99 436.01 L 464.98 435.04 Z" />
</g>
<g id="#ea4d00ff">
<path fill="#ea4d00" opacity="1.00" d=" M 383.68 435.96 C 410.78 435.93 437.89 435.91 464.99 436.01 C 465.04 441.68 464.98 447.36 464.99 453.04 C 437.88 453.07 410.76 453.14 383.64 452.98 C 383.57 447.31 383.58 441.63 383.68 435.96 Z" />
</g>
<g id="#872a00ff">
<path fill="#872a00" opacity="1.00" d=" M 711.01 436.03 C 713.00 436.02 714.99 436.02 717.00 436.02 C 717.01 448.02 716.99 460.02 717.00 472.02 C 714.99 472.02 712.99 472.02 711.00 472.03 L 710.99 470.99 C 710.94 462.67 711.04 454.36 710.99 446.04 C 710.97 442.70 711.00 439.37 711.01 436.03 Z" />
</g>
<g id="#862800ff">
<path fill="#862800" opacity="1.00" d=" M 1151.02 437.97 C 1153.02 437.99 1155.03 438.01 1157.06 438.03 C 1157.05 452.70 1157.02 467.37 1157.03 482.04 C 1155.00 482.02 1152.98 482.02 1150.97 482.02 C 1150.95 471.32 1151.04 460.63 1151.00 449.94 C 1151.01 445.94 1151.04 441.96 1151.02 437.97 Z" />
</g>
<g id="#e04400ff">
<path fill="#e04400" opacity="1.00" d=" M 626.00 441.97 C 627.78 441.97 629.56 441.96 631.35 441.97 C 631.44 450.97 631.40 459.97 631.40 468.97 C 629.59 468.98 627.79 469.01 626.00 469.03 C 626.01 460.01 625.99 450.99 626.00 441.97 Z" />
</g>
<g id="#df4300ff">
<path fill="#df4300" opacity="1.00" d=" M 378.00 445.97 C 379.78 445.96 381.55 445.95 383.33 445.95 C 383.40 455.28 383.37 464.60 383.36 473.93 C 381.57 473.93 379.79 473.95 378.00 473.96 C 378.01 464.63 377.99 455.30 378.00 445.97 Z" />
<path fill="#df4300" opacity="1.00" d=" M 260.00 448.04 C 261.61 448.03 263.22 448.02 264.83 448.02 C 264.65 456.00 265.08 463.98 264.82 471.97 C 263.21 471.96 261.60 471.96 260.00 471.97 C 260.01 463.99 259.99 456.02 260.00 448.04 Z" />
</g>
<g id="#e74600ff">
<path fill="#e74600" opacity="1.00" d=" M 631.68 446.03 C 658.12 446.05 684.55 445.90 710.99 446.04 C 711.04 454.36 710.94 462.67 710.99 470.99 C 684.54 470.99 658.09 470.99 631.63 471.04 C 631.48 462.70 631.74 454.37 631.68 446.03 Z" />
</g>
<g id="#842100ff">
<path fill="#842100" opacity="1.00" d=" M 850.33 446.32 C 852.12 446.21 853.89 446.09 855.70 445.99 C 855.64 459.24 855.85 472.51 855.60 485.76 C 854.12 497.71 855.20 509.79 854.63 521.80 C 853.25 521.82 851.89 521.84 850.54 521.87 C 850.35 519.13 850.01 516.42 849.59 513.72 L 849.55 512.98 C 849.30 505.67 849.56 498.36 849.46 491.05 C 849.46 484.36 849.51 477.66 849.49 470.97 C 849.49 466.46 849.41 461.94 849.64 457.43 C 850.36 453.77 850.51 450.04 850.33 446.32 Z" />
</g>
<g id="#df4200ff">
<path fill="#df4200" opacity="1.00" d=" M 763.83 447.51 C 766.16 447.80 768.05 449.10 769.46 450.94 C 769.42 459.89 769.41 468.83 769.41 477.78 C 767.67 476.75 765.77 476.03 763.84 475.52 C 763.82 466.18 763.81 456.85 763.83 447.51 Z" />
</g>
<g id="#e64200ff">
<path fill="#e64200" opacity="1.00" d=" M 889.65 450.03 C 976.77 450.00 1063.89 450.23 1151.00 449.94 C 1151.04 460.63 1150.95 471.32 1150.97 482.02 C 1150.97 482.50 1150.98 483.47 1150.98 483.95 C 1063.85 483.88 976.72 483.95 889.59 483.94 C 889.47 472.64 889.70 461.33 889.65 450.03 Z" />
</g>
<g id="#852400ff">
<path fill="#852400" opacity="1.00" d=" M 602.01 451.04 C 604.10 451.03 606.19 451.03 608.29 451.04 C 608.30 466.00 608.29 480.96 608.29 495.92 C 606.19 495.95 604.10 495.98 602.02 496.02 C 602.00 494.32 601.99 492.63 601.99 490.95 C 601.97 484.32 602.02 477.69 601.99 471.06 C 601.96 465.03 602.06 459.01 602.02 452.98 C 602.02 452.49 602.01 451.52 602.01 451.04 Z" />
</g>
<g id="#de3f00ff">
<path fill="#de3f00" opacity="1.00" d=" M 884.00 450.91 C 885.80 450.93 887.59 450.94 889.41 450.97 C 889.32 461.97 889.48 472.96 889.42 483.95 C 887.60 483.94 885.80 483.93 884.00 483.94 C 884.01 472.92 883.99 461.92 884.00 450.91 Z" />
</g>
<g id="#e74400ff">
<path fill="#e74400" opacity="1.00" d=" M 130.00 453.00 C 156.00 452.90 181.99 452.97 207.99 453.02 C 207.99 455.02 208.00 457.03 208.02 459.04 C 208.04 463.34 207.99 467.65 207.99 471.95 C 182.01 472.09 156.04 472.02 130.06 472.01 C 129.98 465.67 130.18 459.33 130.00 453.00 Z" />
<path fill="#e74400" opacity="1.00" d=" M 265.93 452.98 C 292.95 452.97 319.97 452.97 346.99 453.00 C 346.99 455.01 347.00 457.03 347.02 459.05 C 347.04 463.04 346.99 467.03 346.99 471.03 C 320.03 470.99 293.06 470.98 266.10 471.10 C 266.01 465.05 266.04 459.01 265.93 452.98 Z" />
<path fill="#e74400" opacity="1.00" d=" M 523.65 452.98 C 549.77 452.93 575.89 453.05 602.02 452.98 C 602.06 459.01 601.96 465.03 601.99 471.06 C 575.85 470.97 549.72 471.07 523.59 471.02 C 523.53 465.01 523.69 458.99 523.65 452.98 Z" />
<path fill="#e74400" opacity="1.00" d=" M 769.58 452.97 C 796.21 452.99 822.85 452.93 849.48 452.99 C 849.52 454.47 849.57 455.95 849.64 457.43 C 849.41 461.94 849.49 466.46 849.49 470.97 C 822.85 471.06 796.20 470.99 769.55 470.97 C 769.56 464.97 769.59 458.97 769.58 452.97 Z" />
</g>
<g id="#e54100ff">
<path fill="#e54100" opacity="1.00" d=" M 383.64 452.98 C 410.76 453.14 437.88 453.07 464.99 453.04 C 465.00 457.05 465.00 461.07 465.01 465.09 C 465.03 471.38 464.93 477.67 464.98 483.97 C 437.88 483.82 410.77 484.11 383.67 483.92 C 383.52 473.61 383.61 463.29 383.64 452.98 Z" />
</g>
<g id="#842200ff">
<path fill="#842200" opacity="1.00" d=" M 208.02 459.04 C 210.07 459.02 212.12 459.01 214.17 459.01 C 214.18 471.99 214.18 484.97 214.17 497.96 C 212.12 497.96 210.06 497.96 208.01 497.97 C 208.00 497.48 208.00 496.48 207.99 495.98 C 207.94 487.97 208.04 479.96 207.99 471.95 C 207.99 467.65 208.04 463.34 208.02 459.04 Z" />
<path fill="#842200" opacity="1.00" d=" M 347.02 459.05 C 349.01 459.02 351.00 459.00 353.00 458.99 C 353.01 472.01 352.99 485.03 353.00 498.05 C 351.00 498.01 349.01 497.97 347.02 497.94 C 347.00 495.62 346.99 493.30 346.99 490.99 C 346.98 484.33 347.02 477.68 346.99 471.03 C 346.99 467.03 347.04 463.04 347.02 459.05 Z" />
<path fill="#842200" opacity="1.00" d=" M 465.01 465.09 C 467.06 465.06 469.11 465.03 471.17 465.00 C 471.18 475.97 471.17 486.95 471.17 497.93 C 469.12 497.95 467.06 497.99 465.02 498.03 C 464.99 493.34 465.01 488.65 464.98 483.97 C 464.93 477.67 465.03 471.38 465.01 465.09 Z" />
</g>
<g id="#dd3b00ff">
<path fill="#dd3b00" opacity="1.00" d=" M 123.47 461.87 C 124.85 462.02 126.24 462.18 127.62 462.35 C 128.05 463.97 128.49 465.60 128.84 467.25 C 128.91 474.18 129.13 481.11 128.96 488.04 C 127.14 488.04 125.33 488.04 123.52 488.06 C 123.50 479.33 123.48 470.60 123.47 461.87 Z" />
</g>
<g id="#db3800ff">
<path fill="#db3800" opacity="1.00" d=" M 517.59 464.77 C 518.87 464.98 520.16 465.20 521.46 465.43 C 522.09 466.70 522.73 467.98 523.33 469.28 C 523.41 479.61 523.47 489.94 523.28 500.26 C 522.71 498.95 522.09 497.66 521.49 496.37 C 520.19 496.18 518.88 495.99 517.59 495.81 C 517.60 485.46 517.58 475.12 517.59 464.77 Z" />
</g>
<g id="#db3700ff">
<path fill="#db3700" opacity="1.00" d=" M 626.00 469.03 C 627.79 469.01 629.59 468.98 631.40 468.97 C 631.39 477.96 631.43 486.95 631.40 495.95 C 629.59 495.97 627.80 496.01 626.00 496.04 C 626.01 487.04 625.99 478.04 626.00 469.03 Z" />
<path fill="#db3700" opacity="1.00" d=" M 260.00 471.97 C 261.60 471.96 263.21 471.96 264.82 471.97 C 264.76 479.98 265.01 488.00 264.90 496.02 C 263.26 496.01 261.63 496.01 260.00 496.02 C 260.01 488.00 259.99 479.99 260.00 471.97 Z" />
</g>
<g id="#e33a00ff">
<path fill="#e33a00" opacity="1.00" d=" M 266.10 471.10 C 293.06 470.98 320.03 470.99 346.99 471.03 C 347.02 477.68 346.98 484.33 346.99 490.99 C 320.03 490.98 293.06 491.06 266.10 490.94 C 266.01 484.33 266.12 477.71 266.10 471.10 Z" />
<path fill="#e33a00" opacity="1.00" d=" M 523.59 471.02 C 549.72 471.07 575.85 470.97 601.99 471.06 C 602.02 477.69 601.97 484.32 601.99 490.95 C 575.87 491.09 549.75 490.97 523.63 490.98 C 523.59 484.32 523.63 477.67 523.59 471.02 Z" />
<path fill="#e33a00" opacity="1.00" d=" M 769.55 470.97 C 796.20 470.99 822.85 471.06 849.49 470.97 C 849.51 477.66 849.46 484.36 849.46 491.05 C 822.85 490.99 796.23 490.97 769.61 491.02 C 769.53 484.34 769.51 477.65 769.55 470.97 Z" />
</g>
<g id="#e33900ff">
<path fill="#e33900" opacity="1.00" d=" M 631.63 471.04 C 658.09 470.99 684.54 470.99 710.99 470.99 L 711.00 472.03 C 711.07 480.02 710.94 488.00 710.98 495.99 C 684.52 496.06 658.05 495.95 631.59 495.96 C 631.47 487.65 631.70 479.35 631.63 471.04 Z" />
<path fill="#e33900" opacity="1.00" d=" M 130.06 472.01 C 156.04 472.02 182.01 472.09 207.99 471.95 C 208.04 479.96 207.94 487.97 207.99 495.98 C 182.02 495.86 156.06 496.05 130.09 495.95 C 129.86 487.97 130.05 479.99 130.06 472.01 Z" />
</g>
<g id="#831f00ff">
<path fill="#831f00" opacity="1.00" d=" M 711.00 472.03 C 712.99 472.02 714.99 472.02 717.00 472.02 C 717.01 485.32 716.99 498.63 717.00 511.94 C 714.99 511.96 712.98 511.98 710.99 512.01 C 711.00 506.67 711.00 501.33 710.98 495.99 C 710.94 488.00 711.07 480.02 711.00 472.03 Z" />
</g>
<g id="#da3400ff">
<path fill="#da3400" opacity="1.00" d=" M 378.00 473.96 C 379.79 473.95 381.57 473.93 383.36 473.93 C 383.52 483.93 383.33 493.93 383.39 503.93 C 381.59 503.97 379.79 504.03 378.00 504.08 C 378.01 494.04 377.99 484.00 378.00 473.96 Z" />
</g>
<g id="#da3300ff">
<path fill="#da3300" opacity="1.00" d=" M 763.84 475.52 C 765.77 476.03 767.67 476.75 769.41 477.78 C 769.44 487.98 769.50 498.17 769.34 508.37 C 768.73 507.00 768.08 505.67 767.44 504.34 C 766.22 504.15 765.02 503.96 763.83 503.78 C 763.83 494.36 763.81 484.94 763.84 475.52 Z" />
</g>
<g id="#821c00ff">
<path fill="#821c00" opacity="1.00" d=" M 1150.97 482.02 C 1152.98 482.02 1155.00 482.02 1157.03 482.04 C 1156.89 491.26 1157.32 500.51 1156.78 509.72 C 1155.93 513.66 1155.73 517.69 1155.78 521.71 C 1154.11 521.86 1152.45 522.01 1150.82 522.17 C 1150.83 517.75 1150.77 513.33 1150.90 508.92 C 1151.07 500.60 1151.02 492.27 1150.98 483.95 C 1150.98 483.47 1150.97 482.50 1150.97 482.02 Z" />
</g>
<g id="#e03200ff">
<path fill="#e03200" opacity="1.00" d=" M 383.67 483.92 C 410.77 484.11 437.88 483.82 464.98 483.97 C 465.01 488.65 464.99 493.34 465.02 498.03 C 465.03 502.67 464.96 507.31 464.99 511.96 C 437.87 512.09 410.76 512.01 383.64 512.04 C 383.51 502.67 383.57 493.29 383.67 483.92 Z" />
<path fill="#e03200" opacity="1.00" d=" M 889.59 483.94 C 976.72 483.95 1063.85 483.88 1150.98 483.95 C 1151.02 492.27 1151.07 500.60 1150.90 508.92 C 1150.26 511.22 1148.39 512.46 1146.00 512.11 C 1060.53 512.01 975.06 512.19 889.58 512.03 C 889.51 502.66 889.68 493.30 889.59 483.94 Z" />
</g>
<g id="#d82f00ff">
<path fill="#d82f00" opacity="1.00" d=" M 884.00 483.94 C 885.80 483.93 887.60 483.94 889.42 483.95 C 889.34 494.62 889.50 505.29 889.41 515.96 C 887.59 515.99 885.80 516.03 884.00 516.06 C 884.01 505.35 883.99 494.64 884.00 483.94 Z" />
</g>
<g id="#7e1000ff">
<path fill="#7e1000" opacity="1.00" d=" M 855.60 485.76 C 855.82 509.70 855.72 533.65 855.64 557.59 C 855.32 559.30 854.92 560.99 854.55 562.70 C 853.15 562.97 851.77 563.25 850.40 563.53 C 850.54 567.45 850.37 571.37 849.68 575.23 C 849.14 561.84 849.64 548.44 849.48 535.04 C 849.48 527.93 849.47 520.82 849.59 513.72 C 850.01 516.42 850.35 519.13 850.54 521.87 C 851.89 521.84 853.25 521.82 854.63 521.80 C 855.20 509.79 854.12 497.71 855.60 485.76 Z" />
<path fill="#7e1000" opacity="1.00" d=" M 1155.78 521.71 C 1155.73 517.69 1155.93 513.66 1156.78 509.72 C 1156.92 524.72 1156.93 539.75 1156.82 554.74 C 1156.39 557.44 1155.98 560.14 1155.66 562.86 C 1154.01 563.01 1152.35 563.14 1150.73 563.29 C 1150.69 559.17 1150.88 555.06 1150.95 550.94 C 1150.64 541.35 1150.77 531.76 1150.82 522.17 C 1152.45 522.01 1154.11 521.86 1155.78 521.71 Z" />
</g>
<g id="#de2d00ff">
<path fill="#de2d00" opacity="1.00" d=" M 123.52 488.06 C 125.33 488.04 127.14 488.04 128.96 488.04 C 128.88 492.20 128.77 496.38 129.27 500.52 C 129.84 499.06 130.09 497.50 130.09 495.95 C 156.06 496.05 182.02 495.86 207.99 495.98 C 208.00 496.48 208.00 497.48 208.01 497.97 C 208.07 505.28 207.97 512.59 207.99 519.90 C 182.01 520.07 156.02 519.87 130.04 519.99 C 129.78 513.81 130.49 507.57 129.43 501.46 C 128.71 508.40 129.07 515.38 128.82 522.34 C 128.41 520.00 127.93 517.69 127.50 515.37 C 126.14 515.20 124.79 515.05 123.43 514.90 C 123.96 505.95 123.27 497.00 123.52 488.06 Z" />
</g>
<g id="#e03000ff">
<path fill="#e03000" opacity="1.00" d=" M 266.10 490.94 C 293.06 491.06 320.03 490.98 346.99 490.99 C 346.99 493.30 347.00 495.62 347.02 497.94 C 347.04 502.64 346.97 507.34 346.99 512.04 C 320.01 512.06 293.02 512.11 266.04 511.97 C 265.72 504.96 266.08 497.95 266.10 490.94 Z" />
<path fill="#e03000" opacity="1.00" d=" M 523.63 490.98 C 549.75 490.97 575.87 491.09 601.99 490.95 C 601.99 492.63 602.00 494.32 602.02 496.02 C 602.06 501.36 601.98 506.71 601.99 512.06 C 575.87 512.01 549.76 512.04 523.64 512.04 C 523.61 505.02 523.45 498.00 523.63 490.98 Z" />
<path fill="#e03000" opacity="1.00" d=" M 769.61 491.02 C 796.23 490.97 822.85 490.99 849.46 491.05 C 849.56 498.36 849.30 505.67 849.55 512.98 C 822.90 512.99 796.25 512.90 769.59 513.04 C 769.35 505.70 769.65 498.36 769.61 491.02 Z" />
</g>
<g id="#d62a00ff">
<path fill="#d62a00" opacity="1.00" d=" M 260.00 496.02 C 261.63 496.01 263.26 496.01 264.90 496.02 C 264.78 505.34 265.21 514.66 265.19 523.99 C 263.46 523.96 261.73 523.95 260.00 523.94 C 260.01 514.63 259.99 505.33 260.00 496.02 Z" />
</g>
<g id="#d62900ff">
<path fill="#d62900" opacity="1.00" d=" M 517.59 495.81 C 518.88 495.99 520.19 496.18 521.49 496.37 C 522.09 497.66 522.71 498.95 523.28 500.26 C 523.51 510.28 523.40 520.31 523.28 530.33 C 522.70 528.99 522.08 527.67 521.47 526.37 C 520.17 526.16 518.88 525.96 517.59 525.76 C 517.59 515.78 517.58 505.79 517.59 495.81 Z" />
<path fill="#d62900" opacity="1.00" d=" M 626.00 496.04 C 627.80 496.01 629.59 495.97 631.40 495.95 C 631.32 506.62 631.57 517.29 631.38 527.96 C 629.57 527.97 627.79 527.98 626.00 528.01 C 626.01 517.35 625.99 506.69 626.00 496.04 Z" />
</g>
<g id="#801700ff">
<path fill="#801700" opacity="1.00" d=" M 602.02 496.02 C 604.10 495.98 606.19 495.95 608.29 495.92 C 608.30 510.95 608.29 525.97 608.29 540.99 C 606.18 541.01 604.08 541.03 601.98 541.05 C 601.97 531.39 602.02 521.72 601.99 512.06 C 601.98 506.71 602.06 501.36 602.02 496.02 Z" />
<path fill="#801700" opacity="1.00" d=" M 208.01 497.97 C 210.06 497.96 212.12 497.96 214.17 497.96 C 214.18 511.00 214.17 524.03 214.18 537.07 C 212.12 537.05 210.07 537.04 208.02 537.03 C 207.98 531.32 208.01 525.61 207.99 519.90 C 207.97 512.59 208.07 505.28 208.01 497.97 Z" />
<path fill="#801700" opacity="1.00" d=" M 347.02 497.94 C 349.01 497.97 351.00 498.01 353.00 498.05 C 353.00 511.02 352.99 524.00 353.00 536.97 C 351.00 536.99 349.00 537.01 347.01 537.04 C 346.96 528.70 347.03 520.37 346.99 512.04 C 346.97 507.34 347.04 502.64 347.02 497.94 Z" />
<path fill="#801700" opacity="1.00" d=" M 465.02 498.03 C 467.06 497.99 469.12 497.95 471.17 497.93 C 471.18 510.94 471.17 523.95 471.18 536.96 C 469.11 536.96 467.05 536.97 464.99 536.99 C 464.98 528.64 465.03 520.30 464.99 511.96 C 464.96 507.31 465.03 502.67 465.02 498.03 Z" />
</g>
<g id="#df2d00ff">
<path fill="#df2d00" opacity="1.00" d=" M 631.59 495.96 C 658.05 495.95 684.52 496.06 710.98 495.99 C 711.00 501.33 711.00 506.67 710.99 512.01 C 710.97 514.70 710.97 517.38 710.99 520.07 C 684.53 520.05 658.07 520.17 631.61 519.96 C 631.55 511.96 631.63 503.96 631.59 495.96 Z" />
</g>
<g id="#e25038ff">
<path fill="#e25038" opacity="1.00" d=" M 129.43 501.46 C 130.49 507.57 129.78 513.81 130.04 519.99 C 130.07 528.00 129.92 536.03 130.02 544.05 C 130.19 553.41 129.75 562.77 130.01 572.13 L 128.92 572.10 C 128.95 568.19 128.97 564.28 128.85 560.37 C 129.21 547.70 128.96 535.01 128.82 522.34 C 129.07 515.38 128.71 508.40 129.43 501.46 Z" />
</g>
<g id="#d42600ff">
<path fill="#d42600" opacity="1.00" d=" M 378.00 504.08 C 379.79 504.03 381.59 503.97 383.39 503.93 C 383.47 514.27 383.36 524.62 383.40 534.96 C 381.60 534.94 379.80 534.93 378.00 534.93 C 378.01 524.65 377.99 514.36 378.00 504.08 Z" />
</g>
<g id="#d42500ff">
<path fill="#d42500" opacity="1.00" d=" M 763.83 503.78 C 765.02 503.96 766.22 504.15 767.44 504.34 C 768.08 505.67 768.73 507.00 769.34 508.37 C 769.63 514.69 769.28 521.02 769.48 527.35 C 769.13 530.45 768.87 533.57 768.92 536.71 C 767.35 535.69 765.61 535.02 763.83 534.53 C 763.81 524.28 763.83 514.03 763.83 503.78 Z" />
</g>
<g id="#da2100ff">
<path fill="#da2100" opacity="1.00" d=" M 1146.00 512.11 C 1148.39 512.46 1150.26 511.22 1150.90 508.92 C 1150.77 513.33 1150.83 517.75 1150.82 522.17 C 1150.77 531.76 1150.64 541.35 1150.95 550.94 C 1098.97 551.11 1046.99 550.85 995.02 551.04 C 987.17 550.71 979.32 551.33 971.49 550.74 C 971.09 550.10 970.29 548.82 969.88 548.19 C 969.73 547.95 969.42 547.49 969.27 547.25 C 967.40 544.22 963.63 543.07 960.32 544.24 C 957.84 545.54 957.70 548.50 957.64 550.96 C 934.96 550.95 912.29 550.88 889.61 550.96 C 889.44 537.98 889.68 525.00 889.58 512.03 C 975.06 512.19 1060.53 512.01 1146.00 512.11 Z" />
<path fill="#da2100" opacity="1.00" d=" M 130.04 519.99 C 156.02 519.87 182.01 520.07 207.99 519.90 C 208.01 525.61 207.98 531.32 208.02 537.03 C 208.02 539.37 208.02 541.71 208.02 544.05 C 182.02 544.01 156.02 544.02 130.02 544.05 C 129.92 536.03 130.07 528.00 130.04 519.99 Z" />
</g>
<g id="#db2300ff">
<path fill="#db2300" opacity="1.00" d=" M 266.04 511.97 C 293.02 512.11 320.01 512.06 346.99 512.04 C 347.03 520.37 346.96 528.70 347.01 537.04 C 347.01 539.34 347.01 541.66 347.01 543.98 C 319.93 543.92 292.86 544.04 265.79 543.92 C 265.54 533.27 266.21 522.62 266.04 511.97 Z" />
<path fill="#db2300" opacity="1.00" d=" M 383.64 512.04 C 410.76 512.01 437.87 512.09 464.99 511.96 C 465.03 520.30 464.98 528.64 464.99 536.99 C 464.98 538.31 464.99 539.64 464.99 540.97 C 437.87 540.94 410.75 540.97 383.63 540.96 C 383.51 531.32 383.57 521.68 383.64 512.04 Z" />
<path fill="#db2300" opacity="1.00" d=" M 523.64 512.04 C 549.76 512.04 575.87 512.01 601.99 512.06 C 602.02 521.72 601.97 531.39 601.98 541.05 C 601.98 541.79 601.99 543.27 601.99 544.01 C 575.88 543.92 549.77 543.98 523.66 543.97 C 523.48 533.33 523.59 522.69 523.64 512.04 Z" />
</g>
<g id="#7f1300ff">
<path fill="#7f1300" opacity="1.00" d=" M 710.99 512.01 C 712.98 511.98 714.99 511.96 717.00 511.94 C 717.01 525.61 716.99 539.28 717.00 552.95 C 714.99 552.97 712.99 553.00 711.00 553.04 C 710.95 542.05 711.04 531.06 710.99 520.07 C 710.97 517.38 710.97 514.70 710.99 512.01 Z" />
</g>
<g id="#dc2500ff">
<path fill="#dc2500" opacity="1.00" d=" M 769.59 513.04 C 796.25 512.90 822.90 512.99 849.55 512.98 L 849.59 513.72 C 849.47 520.82 849.48 527.93 849.48 535.04 C 823.04 535.12 796.59 535.05 770.15 535.05 C 770.05 532.77 769.78 530.51 769.56 528.25 C 769.45 523.18 769.66 518.10 769.59 513.04 Z" />
</g>
<g id="#d21e00ff">
<path fill="#d21e00" opacity="1.00" d=" M 123.43 514.90 C 124.79 515.05 126.14 515.20 127.50 515.37 C 127.93 517.69 128.41 520.00 128.82 522.34 C 128.96 535.01 129.21 547.70 128.85 560.37 C 128.46 557.99 127.98 555.62 127.57 553.25 C 126.18 553.08 124.79 552.90 123.40 552.74 C 123.43 540.13 123.32 527.51 123.43 514.90 Z" />
</g>
<g id="#d32100ff">
<path fill="#d32100" opacity="1.00" d=" M 884.00 516.06 C 885.80 516.03 887.59 515.99 889.41 515.96 C 889.42 525.30 889.41 534.64 889.43 543.98 C 887.60 543.95 885.80 543.94 884.00 543.93 C 884.01 534.64 883.99 525.35 884.00 516.06 Z" />
</g>
<g id="#d91e00ff">
<path fill="#d91e00" opacity="1.00" d=" M 631.61 519.96 C 658.07 520.17 684.53 520.05 710.99 520.07 C 711.04 531.06 710.95 542.05 711.00 553.04 C 710.99 554.68 710.99 556.32 711.00 557.97 C 684.53 557.87 658.05 557.95 631.57 557.93 C 631.64 545.28 631.54 532.62 631.61 519.96 Z" />
</g>
<g id="#d11d00ff">
<path fill="#d11d00" opacity="1.00" d=" M 260.00 523.94 C 261.73 523.95 263.46 523.96 265.19 523.99 C 265.12 533.66 265.33 543.34 265.23 553.02 C 263.48 553.02 261.74 553.03 260.00 553.05 C 260.01 543.35 259.99 533.64 260.00 523.94 Z" />
</g>
<g id="#d11b00ff">
<path fill="#d11b00" opacity="1.00" d=" M 517.59 525.76 C 518.88 525.96 520.17 526.16 521.47 526.37 C 522.08 527.67 522.70 528.99 523.28 530.33 C 523.51 541.36 523.46 552.40 523.26 563.44 C 522.67 561.71 522.01 560.01 521.37 558.31 C 520.10 558.12 518.84 557.94 517.59 557.77 C 517.59 547.10 517.58 536.43 517.59 525.76 Z" />
<path fill="#d11b00" opacity="1.00" d=" M 626.00 528.01 C 627.79 527.98 629.57 527.97 631.38 527.96 C 631.42 538.62 631.54 549.28 631.41 559.94 C 629.60 559.96 627.80 559.99 626.00 560.02 C 626.01 549.35 625.99 538.68 626.00 528.01 Z" />
</g>
<g id="#da3225fe">
<path fill="#da3225" opacity="1.00" d=" M 769.48 527.35 L 769.56 528.25 C 769.78 530.51 770.05 532.77 770.15 535.05 C 770.12 548.35 769.80 561.65 769.93 574.96 C 769.83 584.29 769.86 593.63 769.92 602.96 C 769.86 607.21 769.93 611.45 770.01 615.70 C 769.64 616.27 768.90 617.40 768.53 617.97 C 766.91 617.48 765.31 616.95 763.72 616.40 C 763.73 616.09 763.76 615.49 763.77 615.18 C 765.53 615.22 767.31 615.27 769.09 615.32 C 769.42 601.30 769.05 587.28 768.85 573.27 C 769.36 561.08 768.68 548.89 768.92 536.71 C 768.87 533.57 769.13 530.45 769.48 527.35 Z" />
</g>
<g id="#d01800ff">
<path fill="#d01800" opacity="1.00" d=" M 378.00 534.93 C 379.80 534.93 381.60 534.94 383.40 534.96 C 383.44 544.95 383.51 554.95 383.38 564.95 C 381.58 564.97 379.79 565.01 378.00 565.05 C 378.01 555.01 377.99 544.97 378.00 534.93 Z" />
</g>
<g id="#cf1700ff">
<path fill="#cf1700" opacity="1.00" d=" M 763.83 534.53 C 765.61 535.02 767.35 535.69 768.92 536.71 C 768.68 548.89 769.36 561.08 768.85 573.27 C 768.45 571.61 767.97 569.97 767.52 568.34 C 766.28 568.15 765.05 567.97 763.82 567.79 C 763.83 556.70 763.81 545.62 763.83 534.53 Z" />
</g>
<g id="#d71700ff">
<path fill="#d71700" opacity="1.00" d=" M 770.15 535.05 C 796.59 535.05 823.04 535.12 849.48 535.04 C 849.64 548.44 849.14 561.84 849.68 575.23 C 833.78 574.52 817.84 575.05 801.92 574.94 C 791.26 574.97 780.59 574.80 769.93 574.96 C 769.80 561.65 770.12 548.35 770.15 535.05 Z" />
</g>
<g id="#7c0c00ff">
<path fill="#7c0c00" opacity="1.00" d=" M 208.02 537.03 C 210.07 537.04 212.12 537.05 214.18 537.07 C 214.18 551.71 214.17 566.35 214.18 580.99 C 212.12 580.98 210.06 580.98 208.01 580.99 C 208.00 578.98 207.99 576.97 207.99 574.98 C 207.97 564.67 208.03 554.36 208.02 544.05 C 208.02 541.71 208.02 539.37 208.02 537.03 Z" />
<path fill="#7c0c00" opacity="1.00" d=" M 347.01 537.04 C 349.00 537.01 351.00 536.99 353.00 536.97 C 353.00 552.67 353.00 568.37 353.00 584.07 C 351.00 584.05 349.00 584.04 347.01 584.03 C 347.00 581.02 346.99 578.01 346.99 575.01 C 346.97 564.66 347.04 554.32 347.01 543.98 C 347.01 541.66 347.01 539.34 347.01 537.04 Z" />
</g>
<g id="#7d0d00ff">
<path fill="#7d0d00" opacity="1.00" d=" M 464.99 536.99 C 467.05 536.97 469.11 536.96 471.18 536.96 C 471.18 549.66 471.17 562.35 471.17 575.05 C 469.11 575.03 467.06 575.02 465.01 575.02 C 465.00 569.34 465.00 563.66 464.99 557.98 C 464.98 552.31 465.02 546.64 464.99 540.97 C 464.99 539.64 464.98 538.31 464.99 536.99 Z" />
</g>
<g id="#d81900ff">
<path fill="#d81900" opacity="1.00" d=" M 383.63 540.96 C 410.75 540.97 437.87 540.94 464.99 540.97 C 465.02 546.64 464.98 552.31 464.99 557.98 C 437.86 558.08 410.74 558.05 383.61 558.01 C 383.59 552.33 383.62 546.64 383.63 540.96 Z" />
</g>
<g id="#7c0a00ff">
<path fill="#7c0a00" opacity="1.00" d=" M 601.98 541.05 C 604.08 541.03 606.18 541.01 608.29 540.99 C 608.30 559.33 608.29 577.68 608.29 596.02 C 606.19 595.99 604.09 595.98 602.00 595.97 C 601.99 588.30 602.01 580.64 601.99 572.98 C 601.96 563.32 602.07 553.67 601.99 544.01 C 601.99 543.27 601.98 541.79 601.98 541.05 Z" />
</g>
<g id="#d61500ff">
<path fill="#d61500" opacity="1.00" d=" M 130.02 544.05 C 156.02 544.02 182.02 544.01 208.02 544.05 C 208.03 554.36 207.97 564.67 207.99 574.98 C 182.01 574.90 156.04 574.94 130.07 575.00 C 130.06 574.28 130.03 572.85 130.01 572.13 C 129.75 562.77 130.19 553.41 130.02 544.05 Z" />
<path fill="#d61500" opacity="1.00" d=" M 265.79 543.92 C 292.86 544.04 319.93 543.92 347.01 543.98 C 347.04 554.32 346.97 564.66 346.99 575.01 C 319.90 574.96 292.81 574.95 265.72 574.94 C 265.69 564.60 265.71 554.26 265.79 543.92 Z" />
<path fill="#d61500" opacity="1.00" d=" M 523.66 543.97 C 549.77 543.98 575.88 543.92 601.99 544.01 C 602.07 553.67 601.96 563.32 601.99 572.98 C 575.88 572.95 549.77 573.03 523.66 573.02 C 523.43 563.34 523.65 553.66 523.66 543.97 Z" />
</g>
<g id="#cf1500ff">
<path fill="#cf1500" opacity="1.00" d=" M 884.00 543.93 C 885.80 543.94 887.60 543.95 889.43 543.98 C 889.48 552.66 889.41 561.34 889.44 570.03 C 887.62 569.99 885.81 569.97 884.00 569.94 C 884.01 561.27 883.99 552.60 884.00 543.93 Z" />
</g>
<g id="#780000ff">
<path fill="#780000" opacity="1.00" d=" M 960.32 544.24 C 963.63 543.07 967.40 544.22 969.27 547.25 C 967.71 548.65 966.14 550.04 964.52 551.37 L 963.83 551.95 C 963.84 623.32 963.79 694.68 963.84 766.05 C 964.70 772.23 967.21 778.06 968.70 784.12 C 937.32 759.08 905.72 734.31 874.51 709.07 C 878.00 708.62 882.19 707.29 885.25 709.75 C 909.42 728.85 933.41 748.21 957.68 767.20 C 957.65 710.02 957.79 652.83 957.61 595.65 C 957.75 588.12 957.68 580.58 957.69 573.05 C 957.67 565.69 957.76 558.32 957.64 550.96 C 957.70 548.50 957.84 545.54 960.32 544.24 Z" />
<path fill="#780000" opacity="1.00" d=" M 1155.66 562.86 C 1155.98 560.14 1156.39 557.44 1156.82 554.74 C 1156.84 608.83 1156.74 662.93 1156.73 717.02 C 1156.16 778.66 1156.58 840.33 1156.23 901.97 C 1155.89 906.38 1158.10 910.33 1159.43 914.40 C 1162.05 923.70 1165.20 932.85 1168.04 942.09 C 1153.38 931.09 1139.37 919.24 1124.96 907.91 C 1101.73 889.21 1078.32 870.73 1055.19 851.90 C 1058.59 851.67 1062.01 851.66 1065.42 851.90 C 1093.38 874.85 1121.91 897.11 1149.97 919.94 C 1151.99 921.60 1154.10 923.16 1156.28 924.64 C 1154.97 915.87 1149.43 908.06 1149.98 899.01 C 1150.07 844.03 1150.11 789.05 1150.17 734.07 C 1150.91 710.05 1150.38 686.01 1150.59 661.98 C 1150.59 646.83 1150.77 631.67 1150.44 616.54 C 1150.89 598.79 1150.53 581.03 1150.73 563.29 C 1152.35 563.14 1154.01 563.01 1155.66 562.86 Z" />
<path fill="#780000" opacity="1.00" d=" M 854.55 562.70 C 854.92 560.99 855.32 559.30 855.64 557.59 C 855.77 603.85 855.72 650.12 855.65 696.38 C 819.93 724.01 784.27 751.71 748.62 779.43 C 707.83 747.47 667.00 715.55 626.33 683.44 C 628.02 682.12 629.86 681.00 631.74 679.96 C 670.13 709.64 708.14 739.83 746.37 769.73 C 747.24 770.21 748.46 771.52 749.43 770.43 C 782.75 744.61 816.06 718.75 849.35 692.89 C 849.63 662.93 849.39 632.97 849.48 603.01 C 849.62 593.75 849.25 584.48 849.68 575.23 C 850.37 571.37 850.54 567.45 850.40 563.53 C 851.77 563.25 853.15 562.97 854.55 562.70 Z" />
<path fill="#780000" opacity="1.00" d=" M 347.01 584.03 C 349.00 584.04 351.00 584.05 353.00 584.07 C 353.06 622.38 352.96 660.70 352.88 699.00 C 351.50 699.92 350.11 700.82 348.74 701.74 C 345.80 698.55 346.85 693.95 346.67 690.02 C 347.14 661.03 346.99 632.04 347.00 603.06 C 347.00 596.71 347.05 590.37 347.01 584.03 Z" />
<path fill="#780000" opacity="1.00" d=" M 602.00 595.97 C 604.09 595.98 606.19 595.99 608.29 596.02 C 608.31 624.71 608.28 653.41 608.30 682.10 C 567.29 714.19 526.23 746.21 485.18 778.25 C 484.30 779.34 483.18 778.16 482.41 777.68 C 450.38 752.36 418.37 727.01 386.36 701.68 C 383.53 699.37 380.51 697.28 377.88 694.75 C 379.76 693.76 381.65 692.80 383.54 691.84 C 393.96 699.14 403.61 707.49 413.67 715.28 C 437.13 733.79 460.53 752.37 483.98 770.88 C 523.28 740.15 562.65 709.49 601.95 678.75 C 602.07 654.50 601.98 630.24 601.99 605.99 C 601.98 602.64 602.00 599.30 602.00 595.97 Z" />
<path fill="#780000" opacity="1.00" d=" M 711.01 595.99 C 713.00 596.00 715.00 596.01 717.00 596.03 C 717.02 614.88 716.95 633.72 717.03 652.57 C 715.56 653.21 714.09 653.87 712.65 654.54 C 711.67 653.23 710.83 651.76 711.01 650.07 C 710.96 632.05 711.03 614.02 711.01 595.99 Z" />
<path fill="#780000" opacity="1.00" d=" M 1065.31 611.27 C 1068.22 610.28 1071.41 611.04 1073.65 613.14 C 1072.17 614.72 1070.58 616.19 1068.99 617.66 C 1068.26 618.38 1067.80 619.26 1067.61 620.30 C 1051.09 682.56 1034.70 744.85 1018.06 807.08 C 1017.74 805.97 1017.19 804.86 1017.32 803.71 C 1018.47 796.03 1017.39 788.22 1018.64 780.54 C 1032.90 726.30 1047.43 672.11 1061.66 617.86 C 1062.38 615.46 1063.08 612.73 1065.31 611.27 Z" />
<path fill="#780000" opacity="1.00" d=" M 350.45 708.38 C 353.34 705.82 357.47 706.79 360.95 707.15 L 362.03 707.51 C 279.73 772.43 197.14 836.98 114.72 901.75 C 110.66 905.10 106.07 907.90 102.82 912.13 C 103.46 910.60 104.15 909.08 105.13 907.75 C 109.38 902.94 113.45 897.97 117.51 892.99 C 117.65 892.83 117.95 892.51 118.10 892.34 C 119.46 890.86 120.78 889.34 121.98 887.74 C 122.40 887.30 123.23 886.42 123.65 885.97 C 126.73 884.00 129.65 881.80 132.46 879.47 C 205.13 822.44 277.79 765.41 350.45 708.38 Z" />
</g>
<g id="#af0d00ff">
<path fill="#af0d00" opacity="1.00" d=" M 969.27 547.25 C 969.42 547.49 969.73 547.95 969.88 548.19 C 969.58 551.75 970.48 555.24 971.37 558.67 C 973.75 570.19 977.01 581.53 978.73 593.18 C 978.79 594.72 978.78 596.26 978.80 597.82 C 978.17 596.90 977.54 595.98 976.93 595.07 C 975.81 595.29 974.71 595.52 973.61 595.76 C 970.65 580.95 967.13 566.24 964.52 551.37 C 966.14 550.04 967.71 548.65 969.27 547.25 Z" />
</g>
<g id="#d51000ff">
<path fill="#d51000" opacity="1.00" d=" M 971.37 558.67 C 970.48 555.24 969.58 551.75 969.88 548.19 C 970.29 548.82 971.09 550.10 971.49 550.74 C 979.32 551.33 987.17 550.71 995.02 551.04 C 1046.99 550.85 1098.97 551.11 1150.95 550.94 C 1150.88 555.06 1150.69 559.17 1150.73 563.29 C 1150.53 581.03 1150.89 598.79 1150.44 616.54 L 1150.32 615.50 C 1149.46 608.08 1150.08 600.59 1149.75 593.14 C 1099.18 592.61 1048.59 593.12 998.02 592.92 C 991.87 592.89 985.72 592.83 979.58 593.14 L 978.73 593.18 C 977.01 581.53 973.75 570.19 971.37 558.67 Z" />
</g>
<g id="#d61400ff">
<path fill="#d61400" opacity="1.00" d=" M 889.61 550.96 C 912.29 550.88 934.96 550.95 957.64 550.96 C 957.76 558.32 957.67 565.69 957.69 573.05 C 934.99 572.96 912.30 573.07 889.61 572.99 C 889.51 565.64 889.63 558.30 889.61 550.96 Z" />
</g>
<g id="#cd0e00ff">
<path fill="#cd0e00" opacity="1.00" d=" M 123.40 552.74 C 124.79 552.90 126.18 553.08 127.57 553.25 C 127.98 555.62 128.46 557.99 128.85 560.37 C 128.97 564.28 128.95 568.19 128.92 572.10 C 128.79 582.50 129.21 592.90 128.81 603.30 C 128.47 600.94 128.01 598.60 127.61 596.26 C 126.19 596.10 124.77 595.96 123.36 595.82 C 123.36 581.46 123.37 567.10 123.40 552.74 Z" />
<path fill="#cd0e00" opacity="1.00" d=" M 517.59 557.77 C 518.84 557.94 520.10 558.12 521.37 558.31 C 522.01 560.01 522.67 561.71 523.26 563.44 C 523.62 575.28 523.28 587.14 523.40 598.99 C 522.06 596.95 520.06 595.70 517.60 595.60 C 517.58 582.99 517.59 570.38 517.59 557.77 Z" />
</g>
<g id="#cd1000ff">
<path fill="#cd1000" opacity="1.00" d=" M 260.00 553.05 C 261.74 553.03 263.48 553.02 265.23 553.02 C 265.26 563.32 265.39 573.62 265.29 583.93 C 263.52 583.95 261.76 584.00 260.00 584.04 C 260.00 573.71 260.00 563.38 260.00 553.05 Z" />
</g>
<g id="#7b0900ff">
<path fill="#7b0900" opacity="1.00" d=" M 711.00 553.04 C 712.99 553.00 714.99 552.97 717.00 552.95 C 717.00 567.31 716.99 581.67 717.00 596.03 C 715.00 596.01 713.00 596.00 711.01 595.99 C 711.00 594.01 710.99 592.05 710.99 590.08 C 710.96 579.38 711.04 568.68 711.00 557.97 C 710.99 556.32 710.99 554.68 711.00 553.04 Z" />
</g>
<g id="#d41000ff">
<path fill="#d41000" opacity="1.00" d=" M 383.61 558.01 C 410.74 558.05 437.86 558.08 464.99 557.98 C 465.00 563.66 465.00 569.34 465.01 575.02 C 465.00 579.03 464.97 583.05 464.99 587.06 C 437.86 586.85 410.73 587.03 383.60 586.98 C 383.61 577.32 383.49 567.67 383.61 558.01 Z" />
</g>
<g id="#d40f00ff">
<path fill="#d40f00" opacity="1.00" d=" M 631.57 557.93 C 658.05 557.95 684.53 557.87 711.00 557.97 C 711.04 568.68 710.96 579.38 710.99 590.08 C 684.52 590.07 658.05 590.12 631.59 590.04 C 631.51 579.34 631.61 568.64 631.57 557.93 Z" />
</g>
<g id="#cd0d00ff">
<path fill="#cd0d00" opacity="1.00" d=" M 626.00 560.02 C 627.80 559.99 629.60 559.96 631.41 559.94 C 631.35 572.97 631.54 585.99 631.37 599.02 C 629.57 599.02 627.79 599.03 626.00 599.05 C 626.01 586.04 625.99 573.03 626.00 560.02 Z" />
</g>
<g id="#cc0c00ff">
<path fill="#cc0c00" opacity="1.00" d=" M 378.00 565.05 C 379.79 565.01 381.58 564.97 383.38 564.95 C 383.44 576.31 383.49 587.66 383.38 599.02 C 381.58 599.02 379.79 599.03 378.00 599.05 C 378.00 587.71 377.99 576.38 378.00 565.05 Z" />
</g>
<g id="#cb0900ff">
<path fill="#cb0900" opacity="1.00" d=" M 763.82 567.79 C 765.05 567.97 766.28 568.15 767.52 568.34 C 767.97 569.97 768.45 571.61 768.85 573.27 C 769.05 587.28 769.42 601.30 769.09 615.32 C 767.31 615.27 765.53 615.22 763.77 615.18 C 763.91 599.39 763.78 583.59 763.82 567.79 Z" />
</g>
<g id="#cc0b00ff">
<path fill="#cc0b00" opacity="1.00" d=" M 884.00 569.94 C 885.81 569.97 887.62 569.99 889.44 570.03 C 889.41 580.99 889.45 591.95 889.44 602.92 C 887.62 602.92 885.81 602.94 884.00 602.95 C 884.00 591.95 883.99 580.95 884.00 569.94 Z" />
</g>
<g id="#d8302eff">
<path fill="#d8302e" opacity="1.00" d=" M 128.92 572.10 L 130.01 572.13 C 130.03 572.85 130.06 574.28 130.07 575.00 C 130.16 584.31 129.98 593.62 130.06 602.93 C 130.06 640.95 130.02 678.96 129.96 716.98 C 130.33 731.31 129.47 745.63 129.83 759.96 C 129.71 769.98 130.06 780.02 129.90 790.04 C 128.16 797.19 128.44 804.60 128.94 811.90 C 127.64 806.02 128.45 799.95 128.34 794.00 C 129.17 781.34 128.62 768.66 128.79 755.99 C 128.63 705.09 129.05 654.19 128.81 603.30 C 129.21 592.90 128.79 582.50 128.92 572.10 Z" />
</g>
<g id="#d20a00ff">
<path fill="#d20a00" opacity="1.00" d=" M 523.66 573.02 C 549.77 573.03 575.88 572.95 601.99 572.98 C 602.01 580.64 601.99 588.30 602.00 595.97 C 602.00 599.30 601.98 602.64 601.99 605.99 C 575.87 606.03 549.75 605.96 523.63 605.98 C 523.56 594.99 523.60 584.01 523.66 573.02 Z" />
<path fill="#d20a00" opacity="1.00" d=" M 130.07 575.00 C 156.04 574.94 182.01 574.90 207.99 574.98 C 207.99 576.97 208.00 578.98 208.01 580.99 C 208.03 588.33 208.01 595.67 208.00 603.02 C 182.02 603.05 156.04 603.10 130.06 602.93 C 129.98 593.62 130.16 584.31 130.07 575.00 Z" />
<path fill="#d20a00" opacity="1.00" d=" M 265.72 574.94 C 292.81 574.95 319.90 574.96 346.99 575.01 C 346.99 578.01 347.00 581.02 347.01 584.03 C 347.05 590.37 347.00 596.71 347.00 603.06 C 319.90 602.93 292.81 603.04 265.71 603.03 C 265.62 593.67 265.66 584.30 265.72 574.94 Z" />
<path fill="#d20a00" opacity="1.00" d=" M 769.93 574.96 C 780.59 574.80 791.26 574.97 801.92 574.94 C 817.84 575.05 833.78 574.52 849.68 575.23 C 849.25 584.48 849.62 593.75 849.48 603.01 C 822.96 603.00 796.44 603.08 769.92 602.96 C 769.86 593.63 769.83 584.29 769.93 574.96 Z" />
</g>
<g id="#d30a00ff">
<path fill="#d30a00" opacity="1.00" d=" M 889.61 572.99 C 912.30 573.07 934.99 572.96 957.69 573.05 C 957.68 580.58 957.75 588.12 957.61 595.65 C 957.26 598.04 956.84 600.43 956.44 602.82 C 934.16 603.33 911.87 602.74 889.58 603.05 C 889.54 593.03 889.56 583.01 889.61 572.99 Z" />
</g>
<g id="#7a0400ff">
<path fill="#7a0400" opacity="1.00" d=" M 465.01 575.02 C 467.06 575.02 469.11 575.03 471.17 575.05 C 471.25 589.04 471.03 603.04 471.29 617.03 C 469.42 618.18 467.34 619.04 465.14 618.33 C 464.82 607.91 465.09 597.48 464.99 587.06 C 464.97 583.05 465.00 579.03 465.01 575.02 Z" />
</g>
<g id="#790100ff">
<path fill="#790100" opacity="1.00" d=" M 208.01 580.99 C 210.06 580.98 212.12 580.98 214.18 580.99 C 214.19 605.02 214.14 629.04 214.21 653.07 C 214.10 653.34 213.88 653.89 213.77 654.16 C 212.24 654.38 210.70 654.62 209.17 654.86 C 208.47 652.63 207.90 650.33 207.96 647.98 C 208.03 632.99 207.99 618.01 208.00 603.02 C 208.01 595.67 208.03 588.33 208.01 580.99 Z" />
</g>
<g id="#ca0600ff">
<path fill="#ca0600" opacity="1.00" d=" M 260.00 584.04 C 261.76 584.00 263.52 583.95 265.29 583.93 C 265.16 595.41 265.75 606.91 265.06 618.38 C 263.37 617.89 261.69 617.41 260.00 616.93 C 260.02 605.97 259.99 595.00 260.00 584.04 Z" />
</g>
<g id="#d10600ff">
<path fill="#d10600" opacity="1.00" d=" M 383.60 586.98 C 410.73 587.03 437.86 586.85 464.99 587.06 C 465.09 597.48 464.82 607.91 465.14 618.33 C 461.12 617.71 457.04 618.04 452.99 618.02 C 429.86 617.92 406.73 618.00 383.60 617.98 C 383.58 607.65 383.48 597.31 383.60 586.98 Z" />
</g>
<g id="#cf0000ff">
<path fill="#cf0000" opacity="1.00" d=" M 631.59 590.04 C 658.05 590.12 684.52 590.07 710.99 590.08 C 710.99 592.05 711.00 594.01 711.01 595.99 C 711.03 614.02 710.96 632.05 711.01 650.07 C 710.83 651.76 711.67 653.23 712.65 654.54 C 714.09 653.87 715.56 653.21 717.03 652.57 C 716.80 653.90 716.56 655.23 716.35 656.58 C 714.87 656.62 713.42 656.68 711.95 656.71 C 714.04 657.21 716.10 657.80 718.15 658.50 C 719.90 657.99 721.63 657.34 723.05 656.16 C 737.70 644.75 752.37 633.36 767.02 621.96 C 769.01 620.51 769.84 618.06 770.01 615.70 C 769.93 611.45 769.86 607.21 769.92 602.96 C 796.44 603.08 822.96 603.00 849.48 603.01 C 849.39 632.97 849.63 662.93 849.35 692.89 C 816.06 718.75 782.75 744.61 749.43 770.43 C 748.46 771.52 747.24 770.21 746.37 769.73 C 708.14 739.83 670.13 709.64 631.74 679.96 C 631.32 649.99 631.67 620.01 631.59 590.04 Z" />
<path fill="#cf0000" opacity="1.00" d=" M 957.61 595.65 C 957.79 652.83 957.65 710.02 957.68 767.20 C 933.41 748.21 909.42 728.85 885.25 709.75 C 882.19 707.29 878.00 708.62 874.51 709.07 L 874.07 709.14 L 873.69 707.90 C 877.06 707.91 880.45 707.92 883.83 707.99 C 886.12 705.68 890.08 703.73 889.67 699.94 C 889.44 667.65 889.63 635.35 889.58 603.05 C 911.87 602.74 934.16 603.33 956.44 602.82 C 956.84 600.43 957.26 598.04 957.61 595.65 Z" />
<path fill="#cf0000" opacity="1.00" d=" M 130.06 602.93 C 156.04 603.10 182.02 603.05 208.00 603.02 C 207.99 618.01 208.03 632.99 207.96 647.98 C 207.90 650.33 208.47 652.63 209.17 654.86 C 210.70 654.62 212.24 654.38 213.77 654.16 C 213.20 655.57 212.62 656.99 212.09 658.42 C 214.85 659.30 217.68 658.64 219.90 656.83 C 232.22 647.50 244.45 638.03 256.78 628.71 C 260.05 626.21 263.57 623.92 266.09 620.60 C 265.68 614.75 265.56 608.89 265.71 603.03 C 292.81 603.04 319.90 602.93 347.00 603.06 C 346.99 632.04 347.14 661.03 346.67 690.02 C 346.85 693.95 345.80 698.55 348.74 701.74 C 350.11 700.82 351.50 699.92 352.88 699.00 C 355.65 701.64 358.42 704.28 360.95 707.15 C 357.47 706.79 353.34 705.82 350.45 708.38 C 277.79 765.41 205.13 822.44 132.46 879.47 C 129.65 881.80 126.73 884.00 123.65 885.97 C 125.38 882.57 127.31 879.25 128.57 875.64 C 128.88 874.57 129.03 873.48 129.01 872.38 C 128.86 864.61 127.89 856.69 129.83 849.06 C 130.43 843.08 129.85 837.04 130.04 831.04 C 129.86 825.49 130.59 819.86 129.44 814.39 C 129.29 813.55 129.10 812.71 128.94 811.90 C 128.44 804.60 128.16 797.19 129.90 790.04 C 130.06 780.02 129.71 769.98 129.83 759.96 C 129.47 745.63 130.33 731.31 129.96 716.98 C 130.02 678.96 130.06 640.95 130.06 602.93 Z" />
<path fill="#cf0000" opacity="1.00" d=" M 523.63 605.98 C 549.75 605.96 575.87 606.03 601.99 605.99 C 601.98 630.24 602.07 654.50 601.95 678.75 C 562.65 709.49 523.28 740.15 483.98 770.88 C 460.53 752.37 437.13 733.79 413.67 715.28 C 403.61 707.49 393.96 699.14 383.54 691.84 L 383.53 691.15 C 383.61 666.76 383.50 642.37 383.60 617.98 C 406.73 618.00 429.86 617.92 452.99 618.02 C 457.04 618.04 461.12 617.71 465.14 618.33 C 467.34 619.04 469.42 618.18 471.29 617.03 C 475.39 620.00 479.30 623.24 483.29 626.36 C 482.16 627.60 481.03 628.85 479.90 630.09 C 475.71 627.11 472.45 622.18 467.07 621.38 C 468.25 622.70 469.47 624.03 470.87 625.16 C 482.25 634.07 493.58 643.07 504.96 651.99 C 508.33 654.58 511.43 657.70 515.47 659.26 C 517.92 659.24 520.55 659.25 522.42 657.40 C 523.26 655.70 523.80 653.86 523.69 651.95 C 523.56 636.63 523.62 621.30 523.63 605.98 Z" />
<path fill="#cf0000" opacity="1.00" d=" M 1150.32 615.50 L 1150.44 616.54 C 1150.77 631.67 1150.59 646.83 1150.59 661.98 C 1150.38 686.01 1150.91 710.05 1150.17 734.07 C 1150.11 789.05 1150.07 844.03 1149.98 899.01 C 1149.43 908.06 1154.97 915.87 1156.28 924.64 C 1154.10 923.16 1151.99 921.60 1149.97 919.94 C 1121.91 897.11 1093.38 874.85 1065.42 851.90 C 1069.17 848.38 1075.17 845.63 1074.92 839.64 C 1075.15 772.45 1074.95 705.23 1075.02 638.03 C 1074.89 631.56 1075.45 625.06 1074.54 618.63 C 1074.54 618.43 1074.55 618.03 1074.55 617.83 C 1099.53 618.06 1124.53 618.13 1149.50 617.81 C 1149.70 617.23 1150.12 616.08 1150.32 615.50 Z" />
<path fill="#cf0000" opacity="1.00" d=" M 984.64 618.04 C 1010.31 617.80 1035.99 618.21 1061.66 617.86 C 1047.43 672.11 1032.90 726.30 1018.64 780.54 C 1016.14 775.34 1015.60 769.54 1014.36 763.97 C 1011.36 749.66 1008.26 735.37 1005.37 721.04 C 1004.21 709.78 1001.44 698.78 999.11 687.73 C 994.44 664.47 989.26 641.31 984.64 618.04 Z" />
</g>
<g id="#ab0000ff">
<path fill="#ab0000" opacity="1.00" d=" M 978.73 593.18 L 979.58 593.14 C 980.82 601.52 982.76 609.79 984.64 618.04 C 989.26 641.31 994.44 664.47 999.11 687.73 C 1001.44 698.78 1004.21 709.78 1005.37 721.04 C 1008.26 735.37 1011.36 749.66 1014.36 763.97 C 1015.60 769.54 1016.14 775.34 1018.64 780.54 C 1017.39 788.22 1018.47 796.03 1017.32 803.71 C 1002.51 734.45 988.22 665.07 973.61 595.76 C 974.71 595.52 975.81 595.29 976.93 595.07 C 977.54 595.98 978.17 596.90 978.80 597.82 C 978.78 596.26 978.79 594.72 978.73 593.18 Z" />
</g>
<g id="#d10500ff">
<path fill="#d10500" opacity="1.00" d=" M 979.58 593.14 C 985.72 592.83 991.87 592.89 998.02 592.92 C 1048.59 593.12 1099.18 592.61 1149.75 593.14 C 1150.08 600.59 1149.46 608.08 1150.32 615.50 C 1150.12 616.08 1149.70 617.23 1149.50 617.81 C 1124.53 618.13 1099.53 618.06 1074.55 617.83 C 1074.20 616.27 1073.89 614.71 1073.65 613.14 C 1071.41 611.04 1068.22 610.28 1065.31 611.27 C 1063.08 612.73 1062.38 615.46 1061.66 617.86 C 1035.99 618.21 1010.31 617.80 984.64 618.04 C 982.76 609.79 980.82 601.52 979.58 593.14 Z" />
</g>
<g id="#c80000ff">
<path fill="#c80000" opacity="1.00" d=" M 123.36 595.82 C 124.77 595.96 126.19 596.10 127.61 596.26 C 128.01 598.60 128.47 600.94 128.81 603.30 C 129.05 654.19 128.63 705.09 128.79 755.99 C 128.62 768.66 129.17 781.34 128.34 794.00 C 128.45 799.95 127.64 806.02 128.94 811.90 C 129.10 812.71 129.29 813.55 129.44 814.39 C 127.75 825.43 129.53 836.67 128.60 847.76 C 127.32 849.19 125.07 848.86 123.35 849.35 C 122.84 812.57 123.20 775.80 123.13 739.01 C 123.17 691.28 123.30 643.55 123.36 595.82 Z" />
<path fill="#c80000" opacity="1.00" d=" M 517.60 595.60 C 520.06 595.70 522.06 596.95 523.40 598.99 C 523.43 612.31 523.37 625.64 523.40 638.97 C 523.31 643.89 523.78 648.84 523.04 653.73 C 521.41 653.62 519.78 653.51 518.16 653.44 L 517.82 653.01 C 517.29 633.89 517.73 614.74 517.60 595.60 Z" />
<path fill="#c80000" opacity="1.00" d=" M 378.00 599.05 C 379.79 599.03 381.58 599.02 383.38 599.02 C 383.57 629.73 383.23 660.44 383.53 691.15 L 383.54 691.84 C 381.65 692.80 379.76 693.76 377.88 694.75 C 378.16 662.85 377.92 630.95 378.00 599.05 Z" />
<path fill="#c80000" opacity="1.00" d=" M 626.00 599.05 C 627.79 599.03 629.57 599.02 631.37 599.02 C 631.69 625.99 630.98 653.00 631.74 679.96 C 629.86 681.00 628.02 682.12 626.33 683.44 L 626.05 683.65 C 625.94 655.45 626.03 627.25 626.00 599.05 Z" />
<path fill="#c80000" opacity="1.00" d=" M 884.00 602.95 C 885.81 602.94 887.62 602.92 889.44 602.92 C 889.36 635.03 889.59 667.15 889.32 699.26 C 887.52 699.63 885.73 699.49 883.93 699.34 C 884.09 667.21 883.95 635.08 884.00 602.95 Z" />
<path fill="#c80000" opacity="1.00" d=" M 1073.65 613.14 C 1073.89 614.71 1074.20 616.27 1074.55 617.83 C 1074.55 618.03 1074.54 618.43 1074.54 618.63 C 1073.55 624.03 1074.05 629.53 1073.97 634.98 C 1073.89 703.28 1074.12 771.57 1073.85 839.86 C 1072.07 840.08 1070.28 840.29 1068.53 840.53 C 1068.67 770.33 1068.55 700.13 1068.59 629.94 C 1068.68 625.84 1068.27 621.71 1068.99 617.66 C 1070.58 616.19 1072.17 614.72 1073.65 613.14 Z" />
<path fill="#c80000" opacity="1.00" d=" M 122.80 849.43 C 124.57 849.60 126.34 849.81 128.11 849.99 C 128.32 857.18 128.44 864.39 128.06 871.59 C 126.35 871.55 124.65 871.53 122.95 871.52 C 122.88 864.15 123.15 856.78 122.80 849.43 Z" />
</g>
<g id="#f9e0e0ff">
<path fill="#f9e0e0" opacity="1.00" d=" M 768.53 617.97 C 768.90 617.40 769.64 616.27 770.01 615.70 C 769.84 618.06 769.01 620.51 767.02 621.96 C 752.37 633.36 737.70 644.75 723.05 656.16 C 721.63 657.34 719.90 657.99 718.15 658.50 C 716.10 657.80 714.04 657.21 711.95 656.71 C 713.42 656.68 714.87 656.62 716.35 656.58 C 716.56 655.23 716.80 653.90 717.03 652.57 C 732.62 640.54 748.04 628.29 763.72 616.40 C 765.31 616.95 766.91 617.48 768.53 617.97 Z" />
<path fill="#f9e0e0" opacity="1.00" d=" M 214.21 653.07 C 229.26 641.36 244.54 629.92 259.63 618.26 C 261.81 618.96 263.89 619.92 266.09 620.60 C 263.57 623.92 260.05 626.21 256.78 628.71 C 244.45 638.03 232.22 647.50 219.90 656.83 C 217.68 658.64 214.85 659.30 212.09 658.42 C 212.62 656.99 213.20 655.57 213.77 654.16 C 213.88 653.89 214.10 653.34 214.21 653.07 Z" />
</g>
<g id="#d82e2eff">
<path fill="#d82e2e" opacity="1.00" d=" M 1074.54 618.63 C 1075.45 625.06 1074.89 631.56 1075.02 638.03 C 1074.95 705.23 1075.15 772.45 1074.92 839.64 C 1074.40 840.70 1073.89 841.76 1073.37 842.83 C 1072.71 842.69 1071.39 842.40 1070.73 842.25 C 1070.31 841.83 1069.46 840.99 1069.04 840.57 L 1068.53 840.53 C 1070.28 840.29 1072.07 840.08 1073.85 839.86 C 1074.12 771.57 1073.89 703.28 1073.97 634.98 C 1074.05 629.53 1073.55 624.03 1074.54 618.63 Z" />
</g>
<g id="#d72d2dff">
<path fill="#d72d2d" opacity="1.00" d=" M 467.07 621.38 C 472.45 622.18 475.71 627.11 479.90 630.09 C 481.03 628.85 482.16 627.60 483.29 626.36 L 483.68 626.68 C 483.08 628.08 482.40 629.44 481.92 630.89 C 482.53 632.00 483.29 633.03 484.02 634.09 C 485.26 633.27 486.50 632.45 487.75 631.65 C 487.44 632.77 487.13 633.90 486.82 635.04 C 489.35 637.36 491.87 639.90 495.25 640.94 C 496.23 642.32 497.21 643.72 498.18 645.13 C 499.38 644.35 500.58 643.57 501.78 642.79 C 501.41 643.88 501.06 644.97 500.70 646.07 C 504.70 649.42 508.87 652.56 512.84 655.95 C 514.08 654.79 515.32 653.63 516.58 652.50 C 516.97 654.82 516.67 657.19 515.47 659.26 C 511.43 657.70 508.33 654.58 504.96 651.99 C 493.58 643.07 482.25 634.07 470.87 625.16 C 469.47 624.03 468.25 622.70 467.07 621.38 Z" />
</g>
<g id="#cd0000ff">
<path fill="#cd0000" opacity="1.00" d=" M 483.68 626.68 C 494.62 635.17 505.33 643.95 516.38 652.29 L 516.58 652.50 C 515.32 653.63 514.08 654.79 512.84 655.95 C 508.87 652.56 504.70 649.42 500.70 646.07 C 501.06 644.97 501.41 643.88 501.78 642.79 C 500.58 643.57 499.38 644.35 498.18 645.13 C 497.21 643.72 496.23 642.32 495.25 640.94 C 491.87 639.90 489.35 637.36 486.82 635.04 C 487.13 633.90 487.44 632.77 487.75 631.65 C 486.50 632.45 485.26 633.27 484.02 634.09 C 483.29 633.03 482.53 632.00 481.92 630.89 C 482.40 629.44 483.08 628.08 483.68 626.68 Z" />
</g>
<g id="#fbe9e9ff">
<path fill="#fbe9e9" opacity="1.00" d=" M 516.38 652.29 C 516.74 652.47 517.46 652.83 517.82 653.01 L 518.16 653.44 C 519.28 655.05 520.79 656.31 522.42 657.40 C 520.55 659.25 517.92 659.24 515.47 659.26 C 516.67 657.19 516.97 654.82 516.58 652.50 L 516.38 652.29 Z" />
</g>
<g id="#f7d7d7ff">
<path fill="#f7d7d7" opacity="1.00" d=" M 883.93 699.34 C 885.73 699.49 887.52 699.63 889.32 699.26 C 889.41 699.43 889.58 699.77 889.67 699.94 C 890.08 703.73 886.12 705.68 883.83 707.99 C 880.45 707.92 877.06 707.91 873.69 707.90 C 877.13 705.09 880.41 702.06 883.93 699.34 Z" />
</g>
<g id="#d42b2bfb">
<path fill="#d42b2b" opacity="1.00" d=" M 129.44 814.39 C 130.59 819.86 129.86 825.49 130.04 831.04 C 129.85 837.04 130.43 843.08 129.83 849.06 C 127.89 856.69 128.86 864.61 129.01 872.38 C 128.60 872.98 127.78 874.19 127.37 874.79 C 125.74 874.46 124.11 874.13 122.48 873.81 C 122.60 873.23 122.83 872.09 122.95 871.52 C 124.65 871.53 126.35 871.55 128.06 871.59 C 128.44 864.39 128.32 857.18 128.11 849.99 C 126.34 849.81 124.57 849.60 122.80 849.43 L 123.35 849.35 C 125.07 848.86 127.32 849.19 128.60 847.76 C 129.53 836.67 127.75 825.43 129.44 814.39 Z" />
</g>
<g id="#f8dadaff">
<path fill="#f8dada" opacity="1.00" d=" M 1073.37 842.83 C 1073.89 841.76 1074.40 840.70 1074.92 839.64 C 1075.17 845.63 1069.17 848.38 1065.42 851.90 C 1062.01 851.66 1058.59 851.67 1055.19 851.90 C 1059.90 848.24 1064.19 844.06 1069.04 840.57 C 1069.46 840.99 1070.31 841.83 1070.73 842.25 C 1071.39 842.40 1072.71 842.69 1073.37 842.83 Z" />
</g>
<g id="#e98989ff">
<path fill="#e98989" opacity="1.00" d=" M 1069.04 840.57 C 1069.46 840.99 1070.31 841.83 1070.73 842.25 C 1070.31 841.83 1069.46 840.99 1069.04 840.57 Z" />
</g>
<g id="#e88585ff">
<path fill="#e88585" opacity="1.00" d=" M 127.37 874.79 C 127.78 874.19 128.60 872.98 129.01 872.38 C 129.03 873.48 128.88 874.57 128.57 875.64 C 127.29 876.84 126.20 878.21 125.25 879.69 C 123.71 879.44 122.17 879.16 120.64 878.90 C 121.69 879.86 122.75 880.84 123.80 881.83 C 123.01 883.73 122.42 885.71 121.98 887.74 C 120.78 889.34 119.46 890.86 118.10 892.34 C 116.93 891.50 115.77 890.66 114.62 889.83 C 116.63 884.19 119.82 879.13 122.48 873.81 C 124.11 874.13 125.74 874.46 127.37 874.79 Z" />
</g>
<g id="#eea6a6ff">
<path fill="#eea6a6" opacity="1.00" d=" M 125.25 879.69 C 126.20 878.21 127.29 876.84 128.57 875.64 C 127.31 879.25 125.38 882.57 123.65 885.97 C 123.23 886.42 122.40 887.30 121.98 887.74 C 122.42 885.71 123.01 883.73 123.80 881.83 C 122.75 880.84 121.69 879.86 120.64 878.90 C 122.17 879.16 123.71 879.44 125.25 879.69 Z" />
</g>
<g id="#e98888ff">
<path fill="#e98888" opacity="1.00" d=" M 113.59 891.21 C 114.89 891.81 116.19 892.40 117.51 892.99 C 113.45 897.97 109.38 902.94 105.13 907.75 C 107.78 902.15 110.73 896.70 113.59 891.21 Z" />
</g>
</svg>
