<?xml version="1.0" encoding="UTF-8" ?>
<!DOCTYPE svg PUBLIC "-//W3C//DTD SVG 1.1//EN" "http://www.w3.org/Graphics/SVG/1.1/DTD/svg11.dtd">
<svg width="1276pt" height="1276pt" viewBox="0 0 1276 1276" version="1.1" xmlns="http://www.w3.org/2000/svg">
<g id="#8d2877ff">
<path fill="#8d2877" opacity="1.00" d=" M 518.91 369.98 C 556.79 350.24 599.43 340.52 641.99 339.26 C 677.70 337.97 713.63 342.41 747.76 353.07 C 720.17 369.25 695.39 391.09 678.66 418.59 C 673.51 426.97 669.18 435.84 665.52 444.97 C 643.81 443.86 621.70 445.77 601.07 452.90 C 583.85 458.72 567.92 468.25 554.60 480.62 C 530.85 502.76 516.06 532.93 507.83 564.00 C 502.68 583.33 500.03 603.23 498.85 623.17 C 498.26 630.11 497.47 637.05 497.40 644.02 C 497.45 666.86 495.53 689.91 489.12 711.91 C 483.87 730.04 475.34 747.48 462.62 761.55 C 448.27 777.61 428.54 788.61 407.51 793.00 C 388.18 754.80 377.24 712.62 373.98 670.00 C 370.66 625.85 374.49 580.99 386.62 538.35 C 396.71 503.06 412.84 469.32 435.28 440.20 C 457.61 411.09 486.29 386.81 518.91 369.98 Z" />
<path fill="#8d2877" opacity="1.00" d=" M 851.00 460.80 C 861.43 457.90 872.41 457.06 883.18 457.94 C 883.48 458.06 884.07 458.30 884.37 458.42 C 902.22 485.75 914.70 516.37 922.77 547.94 C 936.15 600.72 937.79 656.46 927.48 709.93 C 920.08 747.88 906.36 784.84 885.26 817.35 C 863.76 814.83 841.45 809.63 824.28 795.72 C 811.95 785.93 804.10 771.34 800.98 756.04 C 798.20 742.97 797.93 729.47 798.49 716.18 C 808.27 680.72 810.39 643.41 806.71 606.90 C 805.11 593.59 803.94 580.23 802.40 566.90 C 801.30 556.31 799.65 545.70 800.36 535.02 C 801.29 516.55 806.44 497.72 817.88 482.91 C 826.12 472.17 837.98 464.40 851.00 460.80 Z" />
<path fill="#8d2877" opacity="1.00" d=" M 588.62 863.61 C 599.02 852.47 608.12 840.17 616.37 827.37 C 628.86 830.28 641.73 831.37 654.53 831.37 C 664.64 852.36 678.44 871.60 695.35 887.65 C 709.82 901.58 726.38 913.27 744.05 922.77 C 744.31 923.01 744.84 923.48 745.11 923.72 C 721.74 930.90 697.48 935.06 673.09 936.45 C 643.56 937.96 613.77 936.23 584.87 929.80 C 565.37 925.61 546.46 919.03 528.26 910.92 C 550.66 898.40 571.30 882.60 588.62 863.61 Z" />
</g>
<g id="#fbbe02ff">
<path fill="#fbbe02" opacity="1.00" d=" M 795.44 354.63 C 821.61 345.37 849.24 340.32 876.96 339.29 C 915.17 338.14 953.79 342.21 990.29 353.88 C 1015.88 362.21 1040.44 374.59 1060.93 392.20 C 1084.51 412.24 1101.74 439.51 1109.84 469.38 C 1114.68 486.77 1116.74 504.85 1116.75 522.88 C 1076.19 522.95 1035.64 522.91 995.09 522.89 C 994.16 507.13 990.69 491.17 982.50 477.49 C 975.32 465.32 964.27 455.66 951.60 449.52 C 933.12 440.38 912.28 437.70 891.92 436.82 C 877.86 436.72 863.57 435.87 849.84 439.47 C 837.52 441.87 826.04 447.61 816.06 455.12 C 802.46 465.30 792.78 480.01 786.84 495.79 C 779.74 514.86 777.48 535.64 779.81 555.83 C 783.52 589.04 787.45 622.39 786.34 655.87 C 761.65 646.30 737.48 634.16 717.76 616.21 C 704.90 604.65 694.33 590.50 687.16 574.74 C 677.93 554.54 674.34 532.09 674.68 509.98 C 674.60 476.14 685.57 442.15 706.66 415.54 C 729.18 386.77 761.29 366.77 795.44 354.63 Z" />
<path fill="#fbbe02" opacity="1.00" d=" M 951.38 583.63 C 973.79 589.72 996.64 594.35 1018.44 602.51 C 1050.14 613.99 1080.73 631.21 1102.74 657.25 C 1115.46 672.26 1124.87 690.06 1130.09 709.04 C 1135.95 729.78 1136.88 751.63 1134.98 773.01 C 1131.93 805.26 1119.51 836.75 1098.66 861.66 C 1074.27 891.23 1039.82 911.05 1003.55 922.36 C 958.88 936.19 911.39 939.20 864.96 935.50 C 823.64 931.74 782.41 920.88 746.46 899.76 C 723.69 886.38 703.34 868.60 688.10 846.96 C 664.75 814.34 654.75 773.63 655.43 733.87 C 696.00 733.87 736.56 733.86 777.13 733.87 C 777.03 750.82 780.12 768.04 787.84 783.24 C 796.68 801.17 812.13 815.30 829.95 824.08 C 853.11 835.62 879.36 839.40 905.01 839.38 C 928.26 838.92 951.94 835.92 973.38 826.48 C 987.89 820.08 1001.40 809.78 1008.40 795.23 C 1017.65 775.77 1016.46 750.61 1002.21 733.82 C 988.93 717.91 969.26 709.49 950.32 702.38 C 956.83 663.18 956.81 622.96 951.38 583.63 Z" />
</g>
<g id="#bc2223ff">
<path fill="#bc2223" opacity="1.00" d=" M 139.01 352.66 C 219.34 352.62 299.67 352.65 380.00 352.64 C 414.29 352.23 448.94 356.50 481.43 367.80 C 445.91 391.58 416.83 424.45 395.76 461.53 C 371.73 457.25 347.25 458.48 322.98 458.31 C 303.49 458.35 284.01 458.23 264.53 458.37 C 264.68 578.15 264.57 697.92 264.58 817.70 C 303.08 817.67 341.57 817.70 380.06 817.69 C 400.20 817.33 420.42 813.33 438.76 804.86 C 456.63 796.70 472.42 784.08 484.40 768.51 C 505.86 740.76 515.03 705.54 517.68 671.07 C 519.11 656.40 518.13 641.65 518.93 626.95 C 520.70 592.63 528.08 557.99 544.77 527.69 C 553.51 511.91 565.29 497.60 580.12 487.20 C 588.52 481.17 597.88 476.62 607.56 473.06 C 627.93 509.81 638.36 551.35 642.34 592.97 C 645.76 630.89 644.74 669.29 638.40 706.85 C 632.66 740.57 622.23 773.71 605.66 803.72 C 590.97 830.43 571.18 854.43 547.12 873.21 C 513.77 899.45 472.72 914.76 430.87 920.38 C 412.05 923.10 393.01 923.62 374.03 923.36 C 295.69 923.35 217.35 923.39 139.01 923.34 C 139.11 733.11 139.10 542.89 139.01 352.66 Z" />
</g>
</svg>
