<?xml version="1.0" encoding="UTF-8" ?>
<!DOCTYPE svg PUBLIC "-//W3C//DTD SVG 1.1//EN" "http://www.w3.org/Graphics/SVG/1.1/DTD/svg11.dtd">
<svg width="1276pt" height="1276pt" viewBox="0 0 1276 1276" version="1.1" xmlns="http://www.w3.org/2000/svg">
<g id="#000000ff">
<path fill="#000000" opacity="1.00" d=" M 246.58 191.00 C 283.79 191.00 321.01 191.00 358.22 191.00 C 358.43 200.26 358.23 209.53 358.40 218.79 C 349.20 218.80 340.00 218.71 330.79 218.86 L 330.43 218.84 C 311.84 218.55 293.24 218.83 274.66 218.70 C 274.69 321.09 274.68 423.48 274.66 525.87 L 275.70 525.80 C 293.92 526.52 312.15 525.49 330.37 525.96 L 330.36 524.72 C 330.24 469.23 330.40 413.74 330.28 358.25 C 339.58 358.04 348.94 358.77 358.22 357.84 L 358.78 357.79 C 358.40 367.27 358.73 376.78 358.60 386.27 C 367.87 386.14 377.14 386.47 386.41 386.07 L 386.56 386.11 C 386.55 404.74 386.49 423.37 386.58 442.00 L 388.12 442.13 C 396.88 442.26 405.63 442.15 414.39 442.17 C 414.36 460.73 414.49 479.30 414.33 497.86 C 423.70 497.93 433.08 497.81 442.45 497.91 C 442.44 507.25 442.41 516.59 442.47 525.94 C 451.72 525.74 460.98 525.84 470.24 525.88 C 470.23 516.57 470.23 507.27 470.23 497.96 C 479.55 497.75 488.87 497.93 498.19 497.90 C 498.13 479.33 498.24 460.76 498.13 442.20 C 506.44 442.12 514.75 442.25 523.06 442.17 C 524.38 442.37 525.31 441.26 526.41 440.74 C 525.87 422.60 526.37 404.43 526.15 386.27 C 535.47 386.28 544.79 386.29 554.11 386.28 C 554.10 376.98 554.11 367.69 554.10 358.40 C 563.39 358.37 572.70 358.36 582.00 358.41 C 581.94 414.28 581.97 470.16 581.98 526.04 C 591.09 525.92 600.20 526.33 609.30 525.77 C 618.75 525.55 628.21 525.66 637.67 525.69 C 637.59 423.51 637.70 321.33 637.61 219.15 L 637.06 218.81 C 628.09 218.69 619.11 218.82 610.14 218.78 C 591.48 218.76 572.82 218.80 554.16 218.76 C 554.29 237.35 554.07 255.95 554.27 274.55 C 545.12 274.11 535.95 274.72 526.80 274.25 C 526.80 255.83 526.61 237.40 526.90 218.97 C 535.70 218.55 544.52 219.28 553.30 218.59 L 554.04 218.52 C 553.76 209.35 553.98 200.17 553.91 191.00 C 590.98 190.99 628.05 191.01 665.12 191.00 C 665.48 239.98 665.19 288.97 665.28 337.96 C 665.32 400.65 665.24 463.33 665.32 526.02 C 683.81 526.51 702.31 526.03 720.80 526.24 C 721.04 535.46 720.85 544.68 720.92 553.91 C 711.89 553.82 702.85 553.90 693.82 553.87 C 684.47 553.87 675.13 553.87 665.79 553.87 C 656.49 553.87 647.19 553.87 637.89 553.87 C 628.62 553.87 619.36 553.87 610.10 553.87 C 600.73 553.87 591.36 553.87 582.00 553.87 C 572.69 553.87 563.39 553.87 554.08 553.87 C 544.87 553.89 535.67 553.85 526.46 553.89 C 526.21 544.59 526.17 535.28 526.46 525.98 C 535.76 526.00 545.07 526.23 554.36 525.88 C 554.10 497.97 554.18 470.06 554.33 442.15 C 545.29 441.57 536.22 442.54 527.21 441.56 C 526.67 442.11 526.12 442.66 525.57 443.19 C 525.99 446.10 526.21 449.04 526.15 451.99 C 525.94 467.35 526.32 482.71 525.95 498.07 C 516.73 498.35 507.50 498.04 498.28 498.22 C 497.76 516.79 498.35 535.38 497.99 553.96 C 507.37 553.91 516.75 553.90 526.14 553.89 C 526.17 563.18 526.32 572.46 526.06 581.74 C 516.75 581.66 507.43 581.72 498.12 581.69 C 498.14 591.05 498.34 600.41 498.02 609.76 C 488.96 609.75 479.88 609.51 470.83 609.82 L 470.35 610.31 C 470.03 619.44 470.36 628.59 470.24 637.73 C 470.25 646.92 470.25 656.10 470.24 665.28 L 470.24 665.59 C 460.96 665.34 451.68 665.65 442.40 665.39 C 442.23 674.80 442.31 684.20 442.37 693.61 C 442.58 702.81 442.19 712.02 442.57 721.22 L 442.58 721.28 C 442.38 730.61 442.56 739.95 442.46 749.28 C 442.48 758.56 442.24 767.86 442.58 777.14 L 442.58 777.29 C 442.38 786.58 442.56 795.88 442.46 805.19 C 442.38 814.42 442.44 823.65 442.42 832.89 C 442.46 842.31 442.30 851.73 442.50 861.16 C 451.77 861.07 461.04 861.15 470.31 861.10 C 470.33 870.36 470.36 879.62 470.28 888.89 C 479.58 888.90 488.88 888.87 498.17 888.90 C 498.17 879.62 498.17 870.35 498.17 861.07 C 498.17 851.76 498.18 842.44 498.16 833.13 C 507.49 833.08 516.83 833.16 526.16 833.09 C 526.23 823.81 526.17 814.52 526.19 805.24 C 526.19 795.90 526.19 786.56 526.19 777.22 C 526.19 767.90 526.19 758.58 526.19 749.26 C 526.19 740.05 526.19 730.84 526.19 721.62 C 526.19 712.30 526.19 702.97 526.19 693.64 C 526.18 684.33 526.20 675.02 526.17 665.71 L 526.17 665.43 C 535.47 665.55 544.77 665.51 554.08 665.46 C 554.11 656.18 554.18 646.91 554.03 637.63 C 563.36 637.56 572.69 637.62 582.02 637.60 C 591.37 637.60 600.71 637.59 610.06 637.60 C 619.37 637.61 628.68 637.57 637.99 637.62 C 638.21 646.98 637.80 656.33 638.02 665.69 C 637.91 674.94 637.95 684.19 637.95 693.44 C 647.25 693.50 656.56 693.56 665.86 693.42 C 665.69 684.19 665.81 674.96 665.78 665.74 C 665.78 656.41 665.78 647.07 665.78 637.74 C 665.78 628.40 665.77 619.07 665.78 609.73 C 675.10 609.69 684.42 609.66 693.74 609.76 C 693.87 600.42 693.75 591.08 693.79 581.75 C 703.10 581.64 712.42 581.72 721.73 581.72 C 721.72 572.45 721.69 563.19 721.74 553.92 C 731.04 553.99 740.36 554.28 749.66 553.75 C 749.64 544.57 749.59 535.39 749.69 526.21 C 740.48 526.12 731.28 526.19 722.07 526.17 C 721.84 516.87 722.30 507.56 721.78 498.26 C 712.49 498.17 703.19 497.98 693.92 498.37 C 694.02 470.30 693.94 442.24 693.94 414.18 C 720.27 414.20 746.60 414.14 772.94 414.21 C 774.27 414.12 775.70 414.35 777.01 413.94 L 777.97 413.41 C 778.02 404.58 778.07 395.75 777.94 386.92 L 777.18 386.58 C 773.50 385.92 769.74 386.10 766.04 386.08 C 751.30 386.23 736.56 386.14 721.83 386.14 C 721.82 376.91 721.77 367.67 721.87 358.44 C 731.44 358.34 741.03 358.63 750.60 358.26 C 759.42 358.16 768.24 358.48 777.05 358.08 L 777.72 358.12 L 777.77 358.27 C 777.40 367.64 777.73 377.02 777.57 386.39 C 805.48 386.26 833.40 386.40 861.32 386.32 C 861.52 395.58 861.34 404.86 861.38 414.13 C 833.47 413.77 805.54 414.15 777.62 413.95 L 777.63 414.93 C 777.68 424.01 777.64 433.09 777.65 442.17 C 787.01 442.20 796.36 442.13 805.72 442.21 C 805.60 451.40 805.73 460.59 805.63 469.78 C 833.53 470.17 861.43 469.73 889.33 470.00 C 889.51 479.29 889.36 488.59 889.42 497.89 C 852.16 497.87 814.91 497.87 777.65 497.89 C 777.68 479.32 777.60 460.75 777.69 442.18 C 759.04 442.14 740.38 442.26 721.73 442.12 C 721.69 460.79 721.74 479.46 721.70 498.13 C 731.03 498.09 740.35 498.08 749.68 498.13 C 749.58 507.45 749.68 516.78 749.62 526.11 C 805.52 526.03 861.42 526.25 917.32 526.00 C 926.63 525.74 935.96 525.90 945.28 525.92 C 945.23 516.54 945.28 507.16 945.25 497.79 C 954.58 497.34 963.94 497.78 973.28 497.56 C 973.00 469.85 973.38 442.13 973.09 414.42 C 963.77 414.56 954.45 414.52 945.13 414.45 C 945.24 405.15 945.12 395.85 945.21 386.55 C 926.55 386.78 907.90 386.09 889.24 386.27 C 889.34 377.05 889.24 367.83 889.31 358.61 C 861.34 358.65 833.38 358.15 805.41 358.42 C 806.03 349.27 805.57 340.09 805.73 330.93 C 833.46 331.13 861.20 330.89 888.94 331.02 C 889.32 340.21 888.41 349.47 889.35 358.61 C 892.19 359.19 895.10 359.03 897.99 359.03 C 913.84 358.85 929.71 359.21 945.57 358.87 C 945.20 367.92 945.20 377.05 945.52 386.07 L 946.08 386.92 C 955.17 387.07 964.27 386.71 973.36 387.00 C 973.30 395.99 973.47 404.98 973.26 413.97 C 982.53 414.44 991.84 414.05 1001.13 414.18 C 1001.31 442.22 1000.86 470.28 1001.34 498.32 C 991.99 498.05 982.62 498.14 973.27 498.26 C 973.45 507.56 973.32 516.86 973.35 526.17 C 963.99 526.22 954.62 526.07 945.26 526.25 C 945.41 535.39 945.35 544.54 945.29 553.68 C 963.99 553.74 982.69 553.68 1001.39 553.71 C 1001.34 563.04 1001.42 572.36 1001.33 581.69 C 1010.60 581.62 1019.87 581.92 1029.13 581.53 C 1029.10 590.94 1028.72 600.38 1029.35 609.77 C 1038.56 609.61 1047.78 609.73 1057.00 609.71 C 1057.00 637.55 1057.00 665.38 1057.00 693.22 C 1047.67 693.28 1038.33 693.38 1029.01 693.17 L 1029.03 692.51 C 1029.44 674.28 1029.10 656.04 1029.21 637.81 C 1029.20 628.43 1029.22 619.04 1029.20 609.66 C 1019.86 609.70 1010.53 609.77 1001.20 609.64 C 1001.34 600.33 1001.23 591.01 1001.26 581.70 C 982.59 581.74 963.92 581.74 945.26 581.70 C 945.39 572.40 945.26 563.09 945.34 553.79 L 943.92 553.79 C 879.18 553.79 814.44 553.80 749.70 553.78 C 749.78 563.11 749.66 572.43 749.78 581.76 C 740.46 581.82 731.14 581.77 721.82 581.78 C 721.81 591.11 721.75 600.43 721.86 609.76 C 712.54 609.82 703.21 609.76 693.89 609.79 C 693.84 646.98 693.94 684.17 693.84 721.36 C 693.81 730.00 693.67 738.65 693.86 747.28 C 694.02 747.58 694.35 748.18 694.51 748.48 C 694.81 748.69 695.39 749.09 695.68 749.29 C 704.37 749.52 713.09 749.39 721.79 749.30 L 721.80 749.53 L 721.86 750.65 C 721.79 759.51 721.82 768.37 721.82 777.24 C 712.56 776.82 703.29 777.08 694.02 777.03 C 693.72 767.79 694.47 758.47 693.71 749.29 C 684.52 748.49 675.21 749.31 665.97 749.12 C 665.99 739.84 666.08 730.56 665.94 721.28 C 656.65 721.23 647.36 721.22 638.08 721.26 L 638.03 722.00 C 637.99 777.60 637.99 833.21 638.01 888.81 C 647.14 888.85 656.27 888.74 665.40 888.87 L 666.05 888.88 C 666.16 879.82 666.06 870.76 666.04 861.70 C 675.32 861.48 684.61 861.49 693.89 861.69 C 693.69 870.84 693.79 879.99 693.84 889.14 C 693.95 917.04 693.66 944.94 693.82 972.84 C 703.13 972.82 712.45 972.71 721.77 972.89 C 721.69 982.19 721.64 991.49 721.79 1000.79 C 731.13 1000.72 740.48 1000.52 749.81 1000.86 C 749.69 1010.03 749.84 1019.21 749.73 1028.38 C 759.08 1028.42 768.44 1028.35 777.80 1028.42 C 777.59 1037.70 777.82 1047.00 777.66 1056.29 C 768.36 1056.22 759.06 1056.10 749.76 1056.37 C 749.46 1047.09 749.78 1037.82 749.58 1028.55 C 740.36 1028.70 731.13 1028.49 721.91 1028.69 C 721.39 1019.35 722.00 1009.99 721.58 1000.64 C 712.34 1000.78 703.11 1000.66 693.88 1000.72 C 693.59 991.39 694.03 982.05 693.64 972.72 C 684.37 972.89 675.10 972.77 665.84 972.81 C 665.70 963.47 665.81 954.13 665.78 944.80 C 665.79 935.52 665.75 926.24 665.81 916.97 C 656.49 916.78 647.17 916.93 637.86 916.88 C 628.61 916.92 619.36 916.78 610.12 916.97 C 610.10 926.25 610.22 935.53 610.06 944.82 C 600.73 944.81 591.41 944.78 582.09 944.83 C 582.12 954.15 582.16 963.47 582.08 972.79 C 572.77 972.86 563.47 972.71 554.16 972.87 C 554.22 982.15 554.19 991.44 554.19 1000.73 C 554.20 1010.02 554.19 1019.31 554.19 1028.61 C 554.16 1037.89 554.28 1047.18 554.12 1056.46 C 563.38 1056.54 572.65 1056.52 581.92 1056.47 C 591.32 1056.42 600.72 1056.42 610.12 1056.47 C 619.39 1056.53 628.65 1056.52 637.92 1056.47 C 647.27 1056.42 656.64 1056.42 666.00 1056.47 C 675.27 1056.53 684.55 1056.52 693.83 1056.47 C 703.15 1056.42 712.46 1056.42 721.78 1056.47 C 730.90 1056.48 740.03 1056.65 749.16 1056.39 C 749.49 1065.58 749.32 1074.79 749.30 1084.00 C 684.17 1083.95 619.04 1084.04 553.91 1083.95 C 553.76 1074.95 554.19 1065.88 553.73 1056.93 L 553.20 1056.05 C 525.75 1055.97 498.29 1055.90 470.84 1056.08 L 470.43 1056.97 C 470.16 1065.96 470.39 1074.98 470.36 1083.99 C 386.57 1083.99 302.79 1084.01 219.00 1083.99 C 219.00 901.33 219.00 718.68 219.00 536.02 C 218.93 532.95 219.37 529.80 218.47 526.81 C 227.28 526.53 236.12 526.99 244.93 526.66 C 247.88 526.62 246.36 522.80 246.64 521.00 C 246.55 411.00 246.68 301.00 246.58 191.00 M 358.50 442.25 C 358.57 470.09 358.60 497.92 358.49 525.76 C 377.09 525.90 395.71 525.93 414.32 525.75 C 414.34 516.61 414.19 507.47 414.40 498.34 C 405.05 497.97 395.68 498.25 386.33 498.19 C 386.52 481.10 386.37 464.00 386.40 446.91 C 386.38 445.38 386.74 443.90 387.03 442.41 C 377.52 442.07 368.01 442.24 358.50 442.25 M 246.67 553.79 C 246.65 702.79 246.68 851.79 246.65 1000.79 C 246.56 1019.36 246.63 1037.92 246.61 1056.49 C 321.18 1056.51 395.76 1056.51 470.33 1056.49 C 470.26 1047.27 470.47 1038.05 470.20 1028.84 C 488.90 1028.18 507.65 1028.98 526.36 1028.44 C 526.16 1009.93 526.34 991.42 526.27 972.91 C 526.25 963.57 526.33 954.24 526.22 944.91 C 535.52 944.71 544.83 944.83 554.13 944.85 C 554.27 935.55 554.18 926.26 554.17 916.97 C 563.42 916.80 572.66 916.89 581.91 916.93 C 581.95 907.58 581.89 898.24 581.93 888.90 C 591.27 888.88 600.61 888.86 609.95 888.92 C 610.00 814.49 609.81 740.06 610.04 665.63 C 591.36 665.64 572.68 665.40 554.00 665.54 C 554.24 730.73 554.05 795.92 554.10 861.11 C 544.79 861.11 535.48 861.12 526.17 861.09 C 526.18 870.35 526.20 879.62 526.16 888.89 C 516.81 888.99 507.45 888.67 498.11 889.06 C 498.21 898.31 498.22 907.57 498.11 916.83 C 488.82 916.89 479.53 916.62 470.25 916.96 C 470.35 926.26 470.45 935.56 470.21 944.86 C 423.58 944.70 376.95 944.93 330.33 944.74 C 330.48 861.01 330.42 777.28 330.36 693.55 L 330.81 693.57 C 358.71 693.52 386.62 693.81 414.50 693.43 C 414.37 684.13 414.29 674.83 414.52 665.54 C 423.81 665.62 433.11 665.65 442.40 665.54 C 442.40 656.30 442.49 647.06 442.35 637.83 C 442.27 628.47 442.34 619.11 442.31 609.75 C 451.63 609.86 460.95 609.69 470.26 609.86 C 470.37 600.55 470.36 591.24 470.26 581.93 C 479.49 581.65 488.73 581.76 497.96 581.89 C 498.64 574.28 498.05 566.62 498.29 558.99 C 498.08 557.38 498.75 555.46 497.80 554.07 C 488.62 553.58 479.40 554.00 470.20 553.88 C 396.17 553.84 322.14 553.95 248.11 553.79 L 246.67 553.79 M 358.26 721.10 C 358.16 767.39 358.22 813.68 358.22 859.98 C 358.37 879.09 357.90 898.24 358.43 917.34 L 358.65 916.60 C 386.51 917.10 414.41 916.65 442.29 916.83 C 442.42 898.36 442.17 879.89 442.42 861.42 C 433.03 861.05 423.62 861.44 414.23 861.22 C 414.41 814.81 414.23 768.41 414.32 722.00 L 414.29 721.00 C 395.61 721.01 376.93 720.82 358.26 721.10 Z" />
<path fill="#000000" opacity="1.00" d=" M 778.04 191.00 C 824.34 191.00 870.64 191.00 916.94 191.00 C 916.96 200.27 917.04 209.55 916.88 218.82 L 916.16 218.81 C 907.42 218.67 898.67 218.92 889.94 218.69 C 882.95 218.12 875.93 218.59 868.94 218.44 C 838.63 218.36 808.32 218.61 778.02 218.30 C 778.00 209.20 777.97 200.10 778.04 191.00 Z" />
<path fill="#000000" opacity="1.00" d=" M 358.40 218.79 C 367.59 218.91 376.77 218.76 385.96 218.86 C 386.06 237.33 385.88 255.80 386.04 274.27 L 386.98 274.45 C 395.97 274.80 405.00 274.47 414.01 274.59 C 414.02 290.06 414.02 305.53 414.01 321.01 C 414.06 324.16 413.64 327.39 414.40 330.49 C 423.60 330.95 432.82 330.44 442.03 330.71 C 442.02 349.23 442.05 367.75 442.01 386.27 C 451.37 386.70 460.76 386.29 470.13 386.49 C 470.19 405.16 470.50 423.85 469.99 442.52 L 469.99 442.57 L 469.63 442.61 C 460.51 442.15 451.37 442.67 442.25 442.33 C 442.05 432.69 442.83 422.98 441.82 413.38 C 442.73 404.46 441.97 395.43 442.22 386.47 C 432.90 386.57 423.58 386.43 414.26 386.55 C 414.21 377.20 414.41 367.85 414.16 358.51 L 414.15 358.15 C 414.26 348.95 414.19 339.75 414.21 330.55 C 404.91 330.59 395.61 330.58 386.32 330.58 C 386.27 321.15 386.55 311.70 386.16 302.28 L 386.16 302.25 L 386.16 301.49 C 386.39 292.56 386.20 283.62 386.28 274.68 C 377.01 274.74 367.74 274.72 358.47 274.71 C 358.48 265.24 358.61 255.77 358.40 246.30 C 358.39 237.13 358.40 227.96 358.40 218.79 Z" />
<path fill="#000000" opacity="1.00" d=" M 721.83 218.85 C 740.27 218.69 758.73 218.73 777.18 218.82 C 777.54 227.93 777.47 237.06 777.26 246.18 C 765.86 246.75 754.44 246.24 743.04 246.43 C 735.96 246.34 728.88 246.61 721.82 246.25 C 721.76 237.12 721.76 227.99 721.83 218.85 Z" />
<path fill="#000000" opacity="1.00" d=" M 917.83 218.87 C 936.31 218.58 954.81 219.01 973.29 218.65 C 973.36 227.83 973.49 237.02 973.21 246.20 C 954.71 246.07 936.21 246.76 917.71 246.30 C 917.72 237.16 917.59 228.01 917.83 218.87 Z" />
<path fill="#000000" opacity="1.00" d=" M 694.02 246.59 C 703.19 246.64 712.36 246.48 721.53 246.69 C 721.27 283.92 721.62 321.17 721.36 358.40 C 712.24 358.21 703.12 358.49 694.01 358.29 C 694.03 321.06 694.00 283.82 694.02 246.59 Z" />
<path fill="#000000" opacity="1.00" d=" M 805.45 246.61 C 833.48 246.77 861.51 246.67 889.54 246.66 C 889.46 255.98 889.58 265.30 889.46 274.62 C 898.76 274.56 908.06 274.59 917.36 274.60 C 917.23 283.90 917.48 293.21 917.21 302.51 C 926.39 302.65 935.59 302.62 944.78 302.52 C 954.37 302.69 963.97 302.51 973.57 302.65 C 973.57 283.99 973.68 265.33 973.70 246.67 C 982.90 246.44 992.11 246.75 1001.31 246.50 C 1000.82 274.39 1001.25 302.30 1001.09 330.20 C 974.06 330.24 947.03 330.21 920.01 330.23 C 910.04 329.96 900.03 330.71 890.10 329.86 C 889.67 327.94 889.64 325.98 889.66 324.03 C 889.75 310.35 889.65 296.66 889.73 282.98 C 889.71 280.54 889.54 278.10 889.29 275.68 L 889.22 274.96 L 889.12 274.26 C 861.36 274.26 833.59 274.50 805.84 274.15 C 805.41 264.97 806.03 255.78 805.45 246.61 Z" />
<path fill="#000000" opacity="1.00" d=" M 498.90 274.78 C 507.96 274.38 517.05 274.62 526.13 274.66 C 526.49 293.25 526.13 311.86 526.31 330.46 C 516.93 330.52 507.55 330.45 498.17 330.49 C 498.39 349.04 498.18 367.59 498.28 386.14 C 489.05 386.39 479.81 386.43 470.59 386.14 C 470.49 367.66 470.52 349.18 470.57 330.70 C 479.53 330.35 488.54 331.15 497.48 330.31 C 497.64 330.13 497.97 329.78 498.13 329.60 C 499.43 326.92 499.13 323.88 499.14 320.99 C 498.90 305.59 499.42 290.17 498.90 274.78 Z" />
<path fill="#000000" opacity="1.00" d=" M 777.99 274.97 C 787.21 274.46 796.46 274.61 805.69 274.88 C 805.66 293.28 805.66 311.68 805.69 330.08 C 796.38 330.49 787.05 330.47 777.75 330.05 C 777.80 311.69 777.38 293.31 777.99 274.97 Z" />
<path fill="#000000" opacity="1.00" d=" M 861.57 414.49 C 870.86 414.17 880.16 414.49 889.45 414.31 C 889.38 423.67 889.42 433.03 889.43 442.39 C 898.72 442.13 908.02 442.38 917.32 442.24 C 917.34 451.53 917.32 460.82 917.32 470.12 C 908.07 470.04 898.82 470.23 889.57 470.00 C 889.22 461.07 889.65 452.13 889.34 443.19 L 889.31 442.55 C 880.15 441.25 870.80 442.35 861.56 442.00 C 861.55 432.83 861.54 423.66 861.57 414.49 Z" />
<path fill="#000000" opacity="1.00" d=" M 777.63 637.71 C 824.29 637.69 870.95 637.69 917.60 637.71 C 917.44 646.86 917.75 656.01 917.44 665.16 C 908.00 665.39 898.55 665.21 889.10 665.32 C 888.90 684.10 888.85 702.89 889.12 721.67 C 907.82 721.91 926.53 721.42 945.23 721.91 C 945.51 731.04 945.21 740.19 945.38 749.33 C 964.08 749.36 982.80 749.08 1001.49 749.47 C 1001.26 758.75 1001.36 768.04 1001.42 777.32 C 1010.70 777.35 1020.00 777.07 1029.28 777.47 C 1028.84 786.62 1028.88 795.84 1029.32 804.99 L 1030.00 805.04 C 1039.01 805.43 1048.04 805.21 1057.06 805.13 C 1056.92 870.19 1057.04 935.25 1057.00 1000.31 C 1047.64 1000.71 1038.26 1000.02 1028.91 1000.69 C 1029.02 1009.78 1028.94 1018.87 1028.98 1027.97 C 1019.70 1028.00 1010.42 1028.02 1001.15 1027.95 C 1001.21 1018.83 1001.19 1009.72 1001.16 1000.61 C 1010.21 1000.54 1019.27 1000.55 1028.34 1000.62 L 1029.24 1000.65 C 1029.17 982.07 1029.23 963.50 1029.21 944.92 C 1029.24 898.33 1029.14 851.75 1029.26 805.16 C 1019.92 805.23 1010.58 805.21 1001.24 805.18 C 1001.30 795.86 1001.33 786.54 1001.23 777.22 C 982.58 777.34 963.93 777.30 945.28 777.24 C 945.36 767.90 945.41 758.56 945.26 749.22 C 926.63 749.38 908.00 749.25 889.37 749.28 C 889.37 777.21 889.51 805.14 889.65 833.06 L 890.44 833.12 C 899.38 833.31 908.33 833.17 917.28 833.17 C 917.43 842.53 917.20 851.89 917.40 861.25 C 926.68 861.13 935.97 861.24 945.26 861.18 C 945.25 870.42 945.25 879.65 945.26 888.89 C 935.93 888.93 926.60 888.79 917.28 888.97 C 917.38 898.25 917.32 907.54 917.32 916.83 C 880.10 916.80 842.88 916.82 805.66 916.81 C 805.69 907.51 805.64 898.21 805.70 888.92 C 796.35 888.85 787.00 888.89 777.65 888.90 C 777.66 879.63 777.63 870.36 777.68 861.10 C 749.76 861.10 721.83 861.17 693.91 861.06 C 694.26 851.95 694.05 842.82 694.05 833.70 C 712.59 833.44 731.13 833.57 749.67 833.65 L 749.67 832.74 C 749.64 823.60 749.59 814.45 749.69 805.31 C 740.33 805.25 730.97 805.29 721.61 805.29 C 722.04 795.94 721.70 786.59 721.82 777.24 C 731.05 777.28 740.28 777.20 749.51 777.28 C 749.21 761.18 749.85 745.09 749.73 728.99 C 749.72 707.86 749.75 686.73 749.71 665.60 C 759.03 665.61 768.36 665.56 777.68 665.63 C 777.61 656.32 777.69 647.01 777.63 637.71 M 777.74 665.62 C 777.55 674.79 777.69 683.97 777.66 693.15 L 777.67 693.81 C 777.64 702.91 777.65 712.00 777.67 721.10 L 777.66 721.76 C 777.65 730.94 777.64 740.11 777.66 749.29 C 777.65 758.61 777.65 767.93 777.66 777.26 C 777.64 786.56 777.65 795.87 777.65 805.18 C 777.66 814.53 777.64 823.87 777.66 833.22 C 777.98 842.43 776.97 851.99 778.16 860.98 C 787.27 861.15 796.42 861.37 805.52 860.82 L 805.56 861.28 C 805.87 870.29 805.48 879.33 805.74 888.35 L 806.19 888.95 C 815.33 889.23 824.52 889.24 833.67 888.91 C 833.54 879.66 833.52 870.41 833.66 861.16 C 842.93 861.26 852.21 861.13 861.48 861.24 C 861.50 851.88 861.53 842.52 861.46 833.17 C 861.30 823.90 861.70 814.63 861.24 805.38 L 861.44 805.01 C 861.57 795.94 861.48 786.86 861.49 777.79 L 861.45 777.02 C 861.35 767.82 861.61 758.62 861.31 749.43 L 861.50 749.16 C 861.49 740.04 861.50 730.92 861.49 721.81 L 861.44 721.11 C 861.44 712.01 861.43 702.90 861.45 693.81 L 861.49 693.16 C 861.51 683.94 861.49 674.72 861.50 665.50 C 852.28 665.52 843.06 665.45 833.84 665.54 L 833.22 665.54 C 824.09 665.57 814.97 665.56 805.85 665.54 L 805.15 665.63 C 796.01 665.57 786.87 665.58 777.74 665.62 M 862.04 861.25 L 862.04 861.66 L 861.00 861.58 C 861.20 870.85 860.71 880.15 861.22 889.42 L 861.87 888.66 C 880.38 888.93 898.91 888.91 917.42 888.67 C 917.27 879.58 917.27 870.49 917.42 861.41 C 898.96 861.08 880.50 861.40 862.04 861.25 Z" />
<path fill="#000000" opacity="1.00" d=" M 917.40 665.57 C 926.77 665.16 936.15 665.47 945.53 665.40 C 945.46 674.72 945.64 684.05 945.42 693.38 C 936.20 693.36 926.96 692.89 917.76 693.63 L 917.26 693.63 C 917.44 684.28 917.21 674.93 917.40 665.57 Z" />
<path fill="#000000" opacity="1.00" d=" M 946.16 693.39 C 973.77 693.42 1001.39 693.30 1029.00 693.44 C 1028.89 702.61 1029.00 711.79 1028.97 720.96 C 1001.33 720.99 973.68 720.95 946.04 720.99 C 946.07 711.79 945.89 702.58 946.16 693.39 Z" />
<path fill="#000000" opacity="1.00" d=" M 945.14 1028.43 C 963.80 1028.37 982.47 1028.35 1001.14 1028.44 C 1001.09 1037.61 1001.17 1046.78 1001.12 1055.96 C 982.51 1056.22 963.88 1055.55 945.29 1056.31 C 945.09 1047.01 945.35 1037.72 945.14 1028.43 Z" />
<path fill="#000000" opacity="1.00" d=" M 778.15 1056.30 C 833.69 1056.48 889.23 1056.39 944.77 1056.34 C 946.07 1065.46 944.97 1074.78 945.37 1083.99 C 889.59 1083.97 833.81 1084.00 778.03 1083.98 C 778.05 1074.75 777.89 1065.52 778.15 1056.30 Z" />
</g>
<g id="#1819199c">
<path fill="#181919" opacity="0.61" d=" M 358.22 191.00 L 359.01 190.99 C 358.76 200.12 358.99 209.25 358.83 218.37 C 368.19 218.50 377.56 218.46 386.92 218.40 C 387.10 237.08 386.97 255.77 386.98 274.45 L 386.04 274.27 C 385.88 255.80 386.06 237.33 385.96 218.86 C 376.77 218.76 367.59 218.91 358.40 218.79 C 358.23 209.53 358.43 200.26 358.22 191.00 Z" />
</g>
<g id="#0e0f0fcf">
<path fill="#0e0f0f" opacity="0.81" d=" M 665.12 191.00 L 666.08 191.00 C 666.03 302.51 666.18 414.03 666.01 525.54 C 684.54 525.68 703.07 525.69 721.61 525.54 C 721.59 516.45 721.28 507.34 721.78 498.26 C 722.30 507.56 721.84 516.87 722.07 526.17 C 722.11 535.30 722.19 544.43 722.02 553.56 C 731.23 553.78 740.45 553.46 749.66 553.75 C 740.36 554.28 731.04 553.99 721.74 553.92 L 720.92 553.91 C 720.85 544.68 721.04 535.46 720.80 526.24 C 702.31 526.03 683.81 526.51 665.32 526.02 C 665.24 463.33 665.32 400.65 665.28 337.96 C 665.19 288.97 665.48 239.98 665.12 191.00 Z" />
</g>
<g id="#383838dc">
<path fill="#383838" opacity="0.86" d=" M 777.04 190.99 L 778.04 191.00 C 777.97 200.10 778.00 209.20 778.02 218.30 C 808.32 218.61 838.63 218.36 868.94 218.44 C 875.93 218.59 882.95 218.12 889.94 218.69 L 889.65 218.86 C 852.34 218.73 815.02 218.81 777.71 218.82 C 777.69 228.06 777.50 237.31 777.84 246.55 C 777.77 246.63 777.63 246.79 777.56 246.87 C 758.99 246.48 740.42 246.80 721.85 246.71 C 721.85 283.95 721.80 321.19 721.87 358.44 L 721.36 358.40 C 721.62 321.17 721.27 283.92 721.53 246.69 C 721.65 237.32 721.61 227.95 721.55 218.58 C 740.08 218.51 758.62 218.64 777.15 218.51 C 777.06 209.34 777.25 200.16 777.04 190.99 M 721.83 218.85 C 721.76 227.99 721.76 237.12 721.82 246.25 C 728.88 246.61 735.96 246.34 743.04 246.43 C 754.44 246.24 765.86 246.75 777.26 246.18 C 777.47 237.06 777.54 227.93 777.18 218.82 C 758.73 218.73 740.27 218.69 721.83 218.85 Z" />
</g>
<g id="#2d2d2dd6">
<path fill="#2d2d2d" opacity="0.84" d=" M 916.94 191.00 L 917.98 190.98 C 917.80 200.16 917.94 209.34 917.90 218.52 C 936.36 218.66 954.83 218.40 973.29 218.65 C 954.81 219.01 936.31 218.58 917.83 218.87 C 917.59 228.01 917.72 237.16 917.71 246.30 C 936.21 246.76 954.71 246.07 973.21 246.20 L 973.70 246.20 L 973.70 246.67 C 973.68 265.33 973.57 283.99 973.57 302.65 C 963.97 302.51 954.37 302.69 944.78 302.52 C 954.24 302.17 963.72 302.41 973.20 302.38 C 973.35 283.95 972.61 265.54 972.85 247.12 C 963.81 247.12 954.78 247.22 945.75 247.10 C 936.15 246.38 926.52 246.98 916.91 246.74 C 917.00 237.43 917.09 228.13 916.88 218.82 C 917.04 209.55 916.96 200.27 916.94 191.00 Z" />
</g>
<g id="#202020d9">
<path fill="#202020" opacity="0.85" d=" M 526.03 218.46 C 535.12 218.67 544.21 218.44 553.30 218.59 C 544.52 219.28 535.70 218.55 526.90 218.97 C 526.61 237.40 526.80 255.83 526.80 274.25 C 535.95 274.72 545.12 274.11 554.27 274.55 C 544.90 274.91 535.51 274.69 526.13 274.66 C 525.64 255.94 525.83 237.18 526.03 218.46 Z" />
</g>
<g id="#eaeaeaff">
<path fill="#eaeaea" opacity="1.00" d=" M 274.66 218.70 C 293.24 218.83 311.84 218.55 330.43 218.84 L 330.43 220.05 C 312.35 219.66 294.25 219.74 276.16 219.99 C 275.82 315.64 276.14 411.30 276.01 506.96 C 275.97 513.21 275.92 519.48 276.42 525.72 L 275.70 525.80 L 274.66 525.87 C 274.68 423.48 274.69 321.09 274.66 218.70 Z" />
<path fill="#eaeaea" opacity="1.00" d=" M 357.10 248.10 C 357.42 247.65 358.07 246.75 358.40 246.30 C 358.61 255.77 358.48 265.24 358.47 274.71 L 357.19 274.66 C 356.77 265.82 356.86 256.93 357.10 248.10 Z" />
</g>
<g id="#8d8e8eff">
<path fill="#8d8e8e" opacity="1.00" d=" M 330.43 218.84 L 330.79 218.86 C 339.66 219.93 348.63 218.92 357.53 219.42 C 357.70 228.46 357.62 237.50 357.58 246.54 C 348.51 246.68 339.44 246.63 330.37 246.60 C 330.49 237.75 330.42 228.90 330.43 220.05 L 330.43 218.84 Z" />
<path fill="#8d8e8e" opacity="1.00" d=" M 610.14 218.78 C 619.11 218.82 628.09 218.69 637.06 218.81 C 637.32 316.55 637.04 414.28 637.20 512.01 C 637.16 516.23 637.50 520.51 636.67 524.68 C 634.87 525.44 632.83 525.13 630.93 525.22 C 624.00 525.03 617.08 525.31 610.15 525.15 C 609.65 478.46 610.14 431.75 609.94 385.05 C 610.08 329.63 609.70 274.20 610.14 218.78 Z" />
<path fill="#8d8e8e" opacity="1.00" d=" M 889.94 218.69 C 898.67 218.92 907.42 218.67 916.16 218.81 C 916.78 228.04 916.64 237.29 916.28 246.54 C 907.41 246.68 898.53 246.67 889.65 246.53 C 889.63 237.25 889.14 227.94 889.94 218.69 Z" />
<path fill="#8d8e8e" opacity="1.00" d=" M 777.91 246.94 C 786.76 246.39 795.64 246.78 804.52 246.71 C 804.68 255.63 804.72 264.55 804.47 273.47 C 795.57 273.66 786.65 273.58 777.75 273.52 C 777.66 264.66 777.43 255.79 777.91 246.94 Z" />
<path fill="#8d8e8e" opacity="1.00" d=" M 945.54 247.72 C 954.44 247.55 963.35 247.54 972.26 247.70 C 972.33 265.62 972.84 283.54 972.51 301.47 C 963.48 301.65 954.44 301.60 945.40 301.51 C 945.26 283.58 945.34 265.64 945.54 247.72 Z" />
<path fill="#8d8e8e" opacity="1.00" d=" M 749.78 274.75 C 758.69 274.61 767.61 274.66 776.53 274.73 C 776.78 293.34 776.48 311.95 776.66 330.55 L 777.24 331.01 L 777.67 331.06 C 786.59 331.88 795.58 331.07 804.53 331.48 C 804.67 340.43 804.70 349.39 804.51 358.34 C 795.58 358.30 786.64 358.64 777.72 358.12 L 777.05 358.08 C 768.29 357.02 759.44 358.20 750.66 357.47 C 749.40 355.92 749.80 353.80 749.68 351.97 C 749.82 326.23 749.61 300.48 749.78 274.75 Z" />
<path fill="#8d8e8e" opacity="1.00" d=" M 358.54 275.47 C 367.55 275.40 376.55 275.32 385.56 275.51 C 386.04 284.17 385.02 292.88 386.16 301.49 L 386.16 302.25 C 376.96 302.82 367.74 302.46 358.53 302.49 C 358.51 293.48 358.47 284.48 358.54 275.47 Z" />
<path fill="#8d8e8e" opacity="1.00" d=" M 302.43 302.43 C 311.81 302.46 321.20 302.50 330.58 302.41 C 330.63 311.72 330.51 321.03 330.64 330.34 C 339.97 330.44 349.30 330.36 358.63 330.36 C 358.69 339.50 358.33 348.66 358.78 357.79 L 358.22 357.84 C 348.69 357.50 339.15 357.77 329.62 357.63 C 329.67 409.76 329.62 461.89 329.66 514.02 C 329.70 517.47 329.63 520.93 329.48 524.38 C 320.98 524.46 312.49 524.28 304.00 524.50 C 312.78 524.79 321.57 524.42 330.36 524.72 L 330.37 525.96 C 312.15 525.49 293.92 526.52 275.70 525.80 L 276.42 525.72 C 285.11 525.24 293.83 525.73 302.54 525.52 C 302.41 451.16 302.62 376.79 302.43 302.43 Z" />
<path fill="#8d8e8e" opacity="1.00" d=" M 554.15 330.35 C 563.40 330.37 572.65 330.48 581.90 330.29 C 582.47 340.83 581.81 351.40 582.41 361.95 C 582.47 416.49 582.41 471.04 582.44 525.58 C 591.39 525.62 600.35 525.31 609.30 525.77 C 600.20 526.33 591.09 525.92 581.98 526.04 C 581.97 470.16 581.94 414.28 582.00 358.41 C 572.70 358.36 563.39 358.37 554.10 358.40 C 554.16 349.05 554.03 339.70 554.15 330.35 Z" />
<path fill="#8d8e8e" opacity="1.00" d=" M 386.47 331.43 C 395.51 331.33 404.56 331.26 413.61 331.48 C 414.00 340.37 413.08 349.30 414.15 358.15 L 414.16 358.51 L 412.88 358.51 C 404.06 358.56 395.24 358.42 386.42 358.59 C 386.47 349.54 386.38 340.49 386.47 331.43 Z" />
<path fill="#8d8e8e" opacity="1.00" d=" M 861.59 359.54 C 870.55 359.25 879.52 359.39 888.49 359.47 C 888.75 368.40 888.73 377.35 888.51 386.29 C 879.67 386.20 870.82 386.49 861.99 386.12 C 861.03 377.30 861.71 368.39 861.59 359.54 Z" />
<path fill="#8d8e8e" opacity="1.00" d=" M 917.40 387.37 C 926.48 387.42 935.56 387.25 944.64 387.46 C 944.77 396.37 944.93 405.29 944.56 414.19 C 935.48 414.02 926.37 414.58 917.31 413.90 C 917.54 405.06 917.35 396.21 917.40 387.37 Z" />
<path fill="#8d8e8e" opacity="1.00" d=" M 414.37 387.43 C 423.43 387.28 432.51 387.25 441.57 387.47 C 441.74 395.29 441.64 403.12 441.67 410.95 C 441.90 412.55 440.98 414.54 439.07 414.23 C 430.87 414.40 422.66 414.26 414.45 414.27 C 414.27 405.32 414.40 396.37 414.37 387.43 Z" />
<path fill="#8d8e8e" opacity="1.00" d=" M 945.51 415.33 C 954.53 415.38 963.56 415.28 972.59 415.40 C 972.93 433.90 972.64 452.42 972.72 470.93 C 972.63 479.51 972.96 488.10 972.56 496.68 C 963.53 496.73 954.51 496.72 945.48 496.70 C 945.38 469.58 945.32 442.45 945.51 415.33 Z" />
<path fill="#8d8e8e" opacity="1.00" d=" M 358.50 442.25 C 368.01 442.24 377.52 442.07 387.03 442.41 C 386.74 443.90 386.38 445.38 386.40 446.91 C 386.37 464.00 386.52 481.10 386.33 498.19 C 386.24 483.81 386.31 469.42 386.29 455.04 C 386.21 450.94 386.76 446.71 385.43 442.75 C 376.50 442.37 367.56 442.62 358.63 442.61 C 358.69 470.29 358.70 497.97 358.63 525.65 C 377.19 525.81 395.75 525.61 414.32 525.75 C 395.71 525.93 377.09 525.90 358.49 525.76 C 358.60 497.92 358.57 470.09 358.50 442.25 Z" />
<path fill="#8d8e8e" opacity="1.00" d=" M 469.63 442.61 L 469.99 442.57 C 470.65 451.75 470.23 460.95 470.29 470.15 C 461.01 470.22 451.72 470.23 442.44 470.14 C 442.31 461.21 442.37 452.28 442.41 443.35 C 451.47 442.84 460.66 444.22 469.63 442.61 Z" />
<path fill="#8d8e8e" opacity="1.00" d=" M 889.34 443.19 C 889.65 452.13 889.22 461.07 889.57 470.00 L 889.33 470.00 C 861.43 469.73 833.53 470.17 805.63 469.78 C 833.55 469.62 861.47 469.76 889.39 469.70 C 889.24 460.87 889.35 452.03 889.34 443.19 Z" />
<path fill="#8d8e8e" opacity="1.00" d=" M 917.35 498.15 C 926.64 497.84 935.96 498.50 945.25 497.79 C 945.28 507.16 945.23 516.54 945.28 525.92 C 935.96 525.90 926.63 525.74 917.32 526.00 C 917.51 516.71 917.41 507.43 917.35 498.15 Z" />
<path fill="#8d8e8e" opacity="1.00" d=" M 1030.00 805.04 C 1039.02 805.15 1048.05 804.69 1057.06 805.13 C 1048.04 805.21 1039.01 805.43 1030.00 805.04 Z" />
</g>
<g id="#cdcdcdff">
<path fill="#cdcdcd" opacity="1.00" d=" M 330.79 218.86 C 340.00 218.71 349.20 218.80 358.40 218.79 C 358.40 227.96 358.39 237.13 358.40 246.30 C 358.07 246.75 357.42 247.65 357.10 248.10 C 356.86 256.93 356.77 265.82 357.19 274.66 L 358.47 274.71 C 367.74 274.72 377.01 274.74 386.28 274.68 C 386.20 283.62 386.39 292.56 386.16 301.49 C 385.02 292.88 386.04 284.17 385.56 275.51 C 376.55 275.32 367.55 275.40 358.54 275.47 C 358.47 284.48 358.51 293.48 358.53 302.49 C 367.74 302.46 376.96 302.82 386.16 302.25 L 386.16 302.28 C 384.46 304.54 384.95 307.44 384.91 310.07 C 385.09 316.88 384.66 323.71 385.15 330.52 C 385.45 330.53 386.03 330.57 386.32 330.58 C 395.61 330.58 404.91 330.59 414.21 330.55 C 414.19 339.75 414.26 348.95 414.15 358.15 C 413.08 349.30 414.00 340.37 413.61 331.48 C 404.56 331.26 395.51 331.33 386.47 331.43 C 386.38 340.49 386.47 349.54 386.42 358.59 C 395.24 358.42 404.06 358.56 412.88 358.51 C 413.15 367.86 412.76 377.21 413.09 386.57 C 413.38 386.56 413.97 386.55 414.26 386.55 C 423.58 386.43 432.90 386.57 442.22 386.47 C 441.97 395.43 442.73 404.46 441.82 413.38 C 440.95 416.18 440.72 419.11 440.90 422.02 C 441.20 428.65 440.62 435.29 441.19 441.91 L 442.25 442.33 C 451.37 442.67 460.51 442.15 469.63 442.61 C 460.66 444.22 451.47 442.84 442.41 443.35 C 442.37 452.28 442.31 461.21 442.44 470.14 C 451.72 470.23 461.01 470.22 470.29 470.15 C 470.23 460.95 470.65 451.75 469.99 442.57 L 469.99 442.52 L 470.59 442.24 L 471.82 441.69 C 472.37 423.80 471.75 405.87 472.11 387.97 C 480.64 387.70 489.18 388.22 497.70 387.72 L 498.14 386.55 L 498.28 386.14 C 498.18 367.59 498.39 349.04 498.17 330.49 C 507.55 330.45 516.93 330.52 526.31 330.46 C 526.13 311.86 526.49 293.25 526.13 274.66 C 535.51 274.69 544.90 274.91 554.27 274.55 C 554.07 255.95 554.29 237.35 554.16 218.76 C 572.82 218.80 591.48 218.76 610.14 218.78 C 609.70 274.20 610.08 329.63 609.94 385.05 C 610.14 431.75 609.65 478.46 610.15 525.15 C 617.08 525.31 624.00 525.03 630.93 525.22 C 632.83 525.13 634.87 525.44 636.67 524.68 C 637.50 520.51 637.16 516.23 637.20 512.01 C 637.04 414.28 637.32 316.55 637.06 218.81 L 637.61 219.15 C 637.70 321.33 637.59 423.51 637.67 525.69 C 628.21 525.66 618.75 525.55 609.30 525.77 C 600.35 525.31 591.39 525.62 582.44 525.58 C 582.41 471.04 582.47 416.49 582.41 361.95 C 581.81 351.40 582.47 340.83 581.90 330.29 C 572.65 330.48 563.40 330.37 554.15 330.35 C 554.03 339.70 554.16 349.05 554.10 358.40 C 554.11 367.69 554.10 376.98 554.11 386.28 C 544.79 386.29 535.47 386.28 526.15 386.27 C 526.37 404.43 525.87 422.60 526.41 440.74 C 525.31 441.26 524.38 442.37 523.06 442.17 C 514.75 442.25 506.44 442.12 498.13 442.20 C 498.24 460.76 498.13 479.33 498.19 497.90 C 488.87 497.93 479.55 497.75 470.23 497.96 L 469.04 498.16 C 468.35 506.65 469.05 515.18 468.70 523.69 C 460.58 523.88 452.46 523.82 444.35 523.71 C 444.12 515.14 444.68 506.55 444.06 498.00 L 442.45 497.91 C 433.08 497.81 423.70 497.93 414.33 497.86 C 414.49 479.30 414.36 460.73 414.39 442.17 C 405.63 442.15 396.88 442.26 388.12 442.13 C 387.77 423.60 388.35 405.04 387.76 386.52 L 386.56 386.11 L 386.41 386.07 C 377.90 383.78 368.93 385.82 360.23 384.90 C 360.05 377.27 360.20 369.64 360.16 362.02 C 360.34 360.42 359.47 359.12 358.78 357.79 C 358.33 348.66 358.69 339.50 358.63 330.36 C 349.30 330.36 339.97 330.44 330.64 330.34 C 330.51 321.03 330.63 311.72 330.58 302.41 C 321.20 302.50 311.81 302.46 302.43 302.43 C 302.62 376.79 302.41 451.16 302.54 525.52 C 293.83 525.73 285.11 525.24 276.42 525.72 C 275.92 519.48 275.97 513.21 276.01 506.96 C 276.14 411.30 275.82 315.64 276.16 219.99 C 294.25 219.74 312.35 219.66 330.43 220.05 C 330.42 228.90 330.49 237.75 330.37 246.60 C 339.44 246.63 348.51 246.68 357.58 246.54 C 357.62 237.50 357.70 228.46 357.53 219.42 C 348.63 218.92 339.66 219.93 330.79 218.86 M 414.37 387.43 C 414.40 396.37 414.27 405.32 414.45 414.27 C 422.66 414.26 430.87 414.40 439.07 414.23 C 440.98 414.54 441.90 412.55 441.67 410.95 C 441.64 403.12 441.74 395.29 441.57 387.47 C 432.51 387.25 423.43 387.28 414.37 387.43 Z" />
<path fill="#cdcdcd" opacity="1.00" d=" M 889.65 218.86 L 889.94 218.69 C 889.14 227.94 889.63 237.25 889.65 246.53 C 898.53 246.67 907.41 246.68 916.28 246.54 C 916.64 237.29 916.78 228.04 916.16 218.81 L 916.88 218.82 C 917.09 228.13 917.00 237.43 916.91 246.74 L 917.16 247.80 C 925.08 248.58 933.05 247.71 940.98 248.25 C 942.64 248.27 944.62 248.74 945.75 247.10 C 954.78 247.22 963.81 247.12 972.85 247.12 C 972.61 265.54 973.35 283.95 973.20 302.38 C 963.72 302.41 954.24 302.17 944.78 302.52 C 935.59 302.62 926.39 302.65 917.21 302.51 C 917.48 293.21 917.23 283.90 917.36 274.60 C 908.06 274.59 898.76 274.56 889.46 274.62 C 889.58 265.30 889.46 255.98 889.54 246.66 C 861.51 246.67 833.48 246.77 805.45 246.61 C 804.98 255.81 805.41 265.04 805.21 274.25 C 795.93 274.46 786.63 274.00 777.37 274.40 C 777.02 293.24 777.34 312.15 777.24 331.01 L 776.66 330.55 C 776.48 311.95 776.78 293.34 776.53 274.73 C 767.61 274.66 758.69 274.61 749.78 274.75 C 749.61 300.48 749.82 326.23 749.68 351.97 C 749.80 353.80 749.40 355.92 750.66 357.47 C 759.44 358.20 768.29 357.02 777.05 358.08 C 768.24 358.48 759.42 358.16 750.60 358.26 C 749.19 357.45 747.74 356.59 746.06 356.75 C 738.39 356.72 730.72 356.94 723.06 356.71 C 722.67 332.83 723.05 308.94 722.89 285.06 C 723.01 272.79 722.63 260.51 723.08 248.24 C 736.74 248.21 750.39 248.20 764.05 248.24 C 768.22 248.22 772.42 248.48 776.59 247.96 L 777.56 246.87 C 777.63 246.79 777.77 246.63 777.84 246.55 L 778.86 245.35 C 779.60 236.98 778.77 228.55 779.24 220.17 C 814.84 220.02 850.44 220.08 886.03 220.14 C 887.35 220.09 888.56 219.67 889.65 218.86 M 777.91 246.94 C 777.43 255.79 777.66 264.66 777.75 273.52 C 786.65 273.58 795.57 273.66 804.47 273.47 C 804.72 264.55 804.68 255.63 804.52 246.71 C 795.64 246.78 786.76 246.39 777.91 246.94 M 945.54 247.72 C 945.34 265.64 945.26 283.58 945.40 301.51 C 954.44 301.60 963.48 301.65 972.51 301.47 C 972.84 283.54 972.33 265.62 972.26 247.70 C 963.35 247.54 954.44 247.55 945.54 247.72 Z" />
<path fill="#cdcdcd" opacity="1.00" d=" M 777.67 331.06 C 786.84 330.56 796.04 330.85 805.23 330.84 C 805.36 340.03 805.03 349.23 805.41 358.42 C 833.38 358.15 861.34 358.65 889.31 358.61 C 889.24 367.83 889.34 377.05 889.24 386.27 C 907.90 386.09 926.55 386.78 945.21 386.55 C 945.12 395.85 945.24 405.15 945.13 414.45 C 954.45 414.52 963.77 414.56 973.09 414.42 C 973.38 442.13 973.00 469.85 973.28 497.56 C 963.94 497.78 954.58 497.34 945.25 497.79 C 935.96 498.50 926.64 497.84 917.35 498.15 C 917.41 507.43 917.51 516.71 917.32 526.00 C 861.42 526.25 805.52 526.03 749.62 526.11 C 749.68 516.78 749.58 507.45 749.68 498.13 C 740.35 498.08 731.03 498.09 721.70 498.13 C 721.74 479.46 721.69 460.79 721.73 442.12 C 740.38 442.26 759.04 442.14 777.69 442.18 C 777.60 460.75 777.68 479.32 777.65 497.89 C 814.91 497.87 852.16 497.87 889.42 497.89 C 889.36 488.59 889.51 479.29 889.33 470.00 L 889.57 470.00 C 898.82 470.23 908.07 470.04 917.32 470.12 C 917.32 460.82 917.34 451.53 917.32 442.24 C 908.02 442.38 898.72 442.13 889.43 442.39 C 889.42 433.03 889.38 423.67 889.45 414.31 C 880.10 414.13 870.73 414.44 861.38 414.13 C 861.34 404.86 861.52 395.58 861.32 386.32 L 860.97 385.01 C 833.72 384.81 806.46 385.06 779.21 384.90 C 778.90 377.59 779.15 370.28 779.14 362.97 C 779.20 361.28 778.86 359.61 777.77 358.27 L 777.72 358.12 C 786.64 358.64 795.58 358.30 804.51 358.34 C 804.70 349.39 804.67 340.43 804.53 331.48 C 795.58 331.07 786.59 331.88 777.67 331.06 M 861.59 359.54 C 861.71 368.39 861.03 377.30 861.99 386.12 C 870.82 386.49 879.67 386.20 888.51 386.29 C 888.73 377.35 888.75 368.40 888.49 359.47 C 879.52 359.39 870.55 359.25 861.59 359.54 M 917.40 387.37 C 917.35 396.21 917.54 405.06 917.31 413.90 C 926.37 414.58 935.48 414.02 944.56 414.19 C 944.93 405.29 944.77 396.37 944.64 387.46 C 935.56 387.25 926.48 387.42 917.40 387.37 M 945.51 415.33 C 945.32 442.45 945.38 469.58 945.48 496.70 C 954.51 496.72 963.53 496.73 972.56 496.68 C 972.96 488.10 972.63 479.51 972.72 470.93 C 972.64 452.42 972.93 433.90 972.59 415.40 C 963.56 415.28 954.53 415.38 945.51 415.33 Z" />
<path fill="#cdcdcd" opacity="1.00" d=" M 329.62 357.63 C 339.15 357.77 348.69 357.50 358.22 357.84 C 348.94 358.77 339.58 358.04 330.28 358.25 C 330.40 413.74 330.24 469.23 330.36 524.72 C 321.57 524.42 312.78 524.79 304.00 524.50 C 312.49 524.28 320.98 524.46 329.48 524.38 C 329.63 520.93 329.70 517.47 329.66 514.02 C 329.62 461.89 329.67 409.76 329.62 357.63 Z" />
</g>
<g id="#e4e4e4ff">
<path fill="#e4e4e4" opacity="1.00" d=" M 777.71 218.82 C 815.02 218.81 852.34 218.73 889.65 218.86 C 888.56 219.67 887.35 220.09 886.03 220.14 C 850.44 220.08 814.84 220.02 779.24 220.17 C 778.77 228.55 779.60 236.98 778.86 245.35 L 777.84 246.55 C 777.50 237.31 777.69 228.06 777.71 218.82 Z" />
<path fill="#e4e4e4" opacity="1.00" d=" M 412.88 358.51 L 414.16 358.51 C 414.41 367.85 414.21 377.20 414.26 386.55 C 413.97 386.55 413.38 386.56 413.09 386.57 C 412.76 377.21 413.15 367.86 412.88 358.51 Z" />
</g>
<g id="#19191974">
<path fill="#191919" opacity="0.45" d=" M 693.04 246.76 L 694.02 246.59 C 694.00 283.82 694.03 321.06 694.01 358.29 C 703.12 358.49 712.24 358.21 721.36 358.40 L 721.87 358.44 C 721.77 367.67 721.82 376.91 721.83 386.14 C 736.56 386.14 751.30 386.23 766.04 386.08 C 769.74 386.10 773.50 385.92 777.18 386.58 C 775.12 386.93 773.04 387.10 770.97 387.04 C 754.42 386.88 737.86 387.19 721.32 386.89 C 721.47 377.57 721.41 368.24 721.37 358.92 C 711.97 358.76 702.57 358.92 693.17 358.81 C 693.00 321.46 693.28 284.11 693.04 246.76 Z" />
</g>
<g id="#e5e5e5ff">
<path fill="#e5e5e5" opacity="1.00" d=" M 721.85 246.71 C 740.42 246.80 758.99 246.48 777.56 246.87 L 776.59 247.96 C 772.42 248.48 768.22 248.22 764.05 248.24 C 750.39 248.20 736.74 248.21 723.08 248.24 C 722.63 260.51 723.01 272.79 722.89 285.06 C 723.05 308.94 722.67 332.83 723.06 356.71 C 730.72 356.94 738.39 356.72 746.06 356.75 C 747.74 356.59 749.19 357.45 750.60 358.26 C 741.03 358.63 731.44 358.34 721.87 358.44 C 721.80 321.19 721.85 283.95 721.85 246.71 Z" />
<path fill="#e5e5e5" opacity="1.00" d=" M 384.91 310.07 C 384.95 307.44 384.46 304.54 386.16 302.28 C 386.55 311.70 386.27 321.15 386.32 330.58 C 386.03 330.57 385.45 330.53 385.15 330.52 C 384.66 323.71 385.09 316.88 384.91 310.07 Z" />
</g>
<g id="#424242fb">
<path fill="#424242" opacity="1.00" d=" M 805.21 274.25 C 805.41 265.04 804.98 255.81 805.45 246.61 C 806.03 255.78 805.41 264.97 805.84 274.15 C 833.59 274.50 861.36 274.26 889.12 274.26 L 889.22 274.96 C 861.37 274.90 833.53 275.07 805.69 274.88 C 796.46 274.61 787.21 274.46 777.99 274.97 C 777.38 293.31 777.80 311.69 777.75 330.05 C 787.05 330.47 796.38 330.49 805.69 330.08 L 805.73 330.93 C 805.57 340.09 806.03 349.27 805.41 358.42 C 805.03 349.23 805.36 340.03 805.23 330.84 C 796.04 330.85 786.84 330.56 777.67 331.06 L 777.24 331.01 C 777.34 312.15 777.02 293.24 777.37 274.40 C 786.63 274.00 795.93 274.46 805.21 274.25 Z" />
</g>
<g id="#e3e3e3ff">
<path fill="#e3e3e3" opacity="1.00" d=" M 916.91 246.74 C 926.52 246.98 936.15 246.38 945.75 247.10 C 944.62 248.74 942.64 248.27 940.98 248.25 C 933.05 247.71 925.08 248.58 917.16 247.80 L 916.91 246.74 Z" />
<path fill="#e3e3e3" opacity="1.00" d=" M 358.78 357.79 C 359.47 359.12 360.34 360.42 360.16 362.02 C 360.20 369.64 360.05 377.27 360.23 384.90 C 368.93 385.82 377.90 383.78 386.41 386.07 C 377.14 386.47 367.87 386.14 358.60 386.27 C 358.73 376.78 358.40 367.27 358.78 357.79 Z" />
</g>
<g id="#0f0f0f88">
<path fill="#0f0f0f" opacity="0.53" d=" M 1001.31 246.50 C 1001.96 249.95 1001.54 253.46 1001.62 256.94 C 1001.62 281.55 1001.57 306.16 1001.67 330.78 C 966.44 331.08 931.21 330.76 895.99 330.93 C 894.01 330.95 892.01 331.09 890.11 330.53 C 889.81 330.47 889.20 330.34 888.90 330.27 C 889.30 312.08 888.57 293.87 889.29 275.68 C 889.54 278.10 889.71 280.54 889.73 282.98 C 889.65 296.66 889.75 310.35 889.66 324.03 C 889.64 325.98 889.67 327.94 890.10 329.86 C 900.03 330.71 910.04 329.96 920.01 330.23 C 947.03 330.21 974.06 330.24 1001.09 330.20 C 1001.25 302.30 1000.82 274.39 1001.31 246.50 Z" />
</g>
<g id="#3f3f3fd9">
<path fill="#3f3f3f" opacity="0.85" d=" M 414.01 274.59 L 414.93 274.75 C 414.68 293.18 414.89 311.61 414.82 330.05 C 424.17 330.23 433.52 330.01 442.88 330.17 C 442.79 348.80 442.86 367.44 442.84 386.08 C 451.85 386.24 460.87 386.11 469.89 386.14 C 469.76 367.46 469.85 348.77 469.84 330.09 C 479.05 330.26 488.27 329.85 497.48 330.31 C 488.54 331.15 479.53 330.35 470.57 330.70 C 470.52 349.18 470.49 367.66 470.59 386.14 C 479.81 386.43 489.05 386.39 498.28 386.14 L 498.14 386.55 C 488.92 386.51 479.70 386.51 470.48 386.52 C 470.56 405.09 470.33 423.67 470.59 442.24 L 469.99 442.52 C 470.50 423.85 470.19 405.16 470.13 386.49 C 460.76 386.29 451.37 386.70 442.01 386.27 C 442.05 367.75 442.02 349.23 442.03 330.71 C 432.82 330.44 423.60 330.95 414.40 330.49 C 413.64 327.39 414.06 324.16 414.01 321.01 C 414.02 305.53 414.02 290.06 414.01 274.59 Z" />
</g>
<g id="#191919ff">
<path fill="#191919" opacity="1.00" d=" M 497.96 274.17 L 498.90 274.78 C 499.42 290.17 498.90 305.59 499.14 320.99 C 499.13 323.88 499.43 326.92 498.13 329.60 C 497.60 311.14 497.94 292.65 497.96 274.17 Z" />
</g>
<g id="#212121ca">
<path fill="#212121" opacity="0.79" d=" M 805.69 330.08 C 818.43 329.90 831.18 330.05 843.93 330.00 C 858.92 330.19 873.94 329.62 888.90 330.27 C 889.20 330.34 889.81 330.47 890.11 330.53 C 889.68 339.67 890.00 348.83 889.92 357.98 C 906.95 358.00 923.98 358.03 941.01 357.97 C 942.48 358.18 944.50 357.46 945.57 358.87 C 929.71 359.21 913.84 358.85 897.99 359.03 C 895.10 359.03 892.19 359.19 889.35 358.61 C 888.41 349.47 889.32 340.21 888.94 331.02 C 861.20 330.89 833.46 331.13 805.73 330.93 L 805.69 330.08 Z" />
</g>
<g id="#e6e6e6ff">
<path fill="#e6e6e6" opacity="1.00" d=" M 777.77 358.27 C 778.86 359.61 779.20 361.28 779.14 362.97 C 779.15 370.28 778.90 377.59 779.21 384.90 C 806.46 385.06 833.72 384.81 860.97 385.01 L 861.32 386.32 C 833.40 386.40 805.48 386.26 777.57 386.39 C 777.73 377.02 777.40 367.64 777.77 358.27 Z" />
<path fill="#e6e6e6" opacity="1.00" d=" M 440.90 422.02 C 440.72 419.11 440.95 416.18 441.82 413.38 C 442.83 422.98 442.05 432.69 442.25 442.33 L 441.19 441.91 C 440.62 435.29 441.20 428.65 440.90 422.02 Z" />
</g>
<g id="#e8e8e8ff">
<path fill="#e8e8e8" opacity="1.00" d=" M 386.56 386.11 L 387.76 386.52 C 388.35 405.04 387.77 423.60 388.12 442.13 L 386.58 442.00 C 386.49 423.37 386.55 404.74 386.56 386.11 Z" />
</g>
<g id="#101111d0">
<path fill="#101111" opacity="0.82" d=" M 945.52 386.07 C 954.79 385.92 964.06 386.09 973.34 386.00 L 973.36 387.00 C 964.27 386.71 955.17 387.07 946.08 386.92 L 945.52 386.07 Z" />
</g>
<g id="#ecececff">
<path fill="#ececec" opacity="1.00" d=" M 470.48 386.52 C 479.70 386.51 488.92 386.51 498.14 386.55 L 497.70 387.72 C 489.18 388.22 480.64 387.70 472.11 387.97 C 471.75 405.87 472.37 423.80 471.82 441.69 L 470.59 442.24 C 470.33 423.67 470.56 405.09 470.48 386.52 Z" />
</g>
<g id="#333333bd">
<path fill="#333333" opacity="0.74" d=" M 777.18 386.58 L 777.94 386.92 C 778.07 395.75 778.02 404.58 777.97 413.41 L 777.01 413.94 C 777.09 404.82 776.79 395.69 777.18 386.58 Z" />
</g>
<g id="#1a1a1a63">
<path fill="#1a1a1a" opacity="0.39" d=" M 693.10 414.17 L 693.94 414.18 C 693.94 442.24 694.02 470.30 693.92 498.37 C 693.72 498.04 693.32 497.38 693.12 497.05 C 692.99 469.43 693.08 441.80 693.10 414.17 Z" />
<path fill="#1a1a1a" opacity="0.39" d=" M 1029.13 581.53 C 1030.60 582.92 1029.75 585.21 1029.97 587.00 C 1029.54 594.58 1030.62 602.26 1029.35 609.77 C 1028.72 600.38 1029.10 590.94 1029.13 581.53 Z" />
</g>
<g id="#2d2e2ea9">
<path fill="#2d2e2e" opacity="0.66" d=" M 777.62 413.95 C 805.54 414.15 833.47 413.77 861.38 414.13 C 870.73 414.44 880.10 414.13 889.45 414.31 C 880.16 414.49 870.86 414.17 861.57 414.49 C 861.54 423.66 861.55 432.83 861.56 442.00 C 870.80 442.35 880.15 441.25 889.31 442.55 C 879.95 443.27 870.54 442.79 861.16 442.84 C 861.20 433.54 861.12 424.25 861.23 414.95 C 833.36 414.86 805.49 414.91 777.63 414.93 L 777.62 413.95 Z" />
</g>
<g id="#0c0d0d5f">
<path fill="#0c0d0d" opacity="0.37" d=" M 1001.13 414.18 L 1001.77 414.13 C 1001.69 439.09 1001.79 464.04 1001.75 489.00 C 1001.67 492.10 1002.09 495.26 1001.34 498.32 C 1000.86 470.28 1001.31 442.22 1001.13 414.18 Z" />
</g>
<g id="#11111198">
<path fill="#111111" opacity="0.60" d=" M 525.57 443.19 C 526.12 442.66 526.67 442.11 527.21 441.56 C 536.22 442.54 545.29 441.57 554.33 442.15 C 554.18 470.06 554.10 497.97 554.36 525.88 C 545.07 526.23 535.76 526.00 526.46 525.98 C 526.17 535.28 526.21 544.59 526.46 553.89 L 526.14 553.89 C 516.75 553.90 507.37 553.91 497.99 553.96 C 498.35 535.38 497.76 516.79 498.28 498.22 C 498.86 516.61 498.34 535.04 498.53 553.45 C 507.67 553.58 516.81 553.71 525.94 553.42 C 525.72 544.10 525.80 534.78 525.87 525.46 C 535.23 525.44 544.60 525.58 553.96 525.39 C 553.78 497.93 553.82 470.46 553.94 443.01 C 544.81 443.00 535.69 443.00 526.56 443.00 C 526.54 461.30 526.49 479.61 526.60 497.91 L 525.95 498.07 C 526.32 482.71 525.94 467.35 526.15 451.99 C 526.21 449.04 525.99 446.10 525.57 443.19 Z" />
</g>
<g id="#d6d6d6ff">
<path fill="#d6d6d6" opacity="1.00" d=" M 442.45 497.91 L 444.06 498.00 C 444.68 506.55 444.12 515.14 444.35 523.71 C 452.46 523.82 460.58 523.88 468.70 523.69 C 469.05 515.18 468.35 506.65 469.04 498.16 L 470.23 497.96 C 470.23 507.27 470.23 516.57 470.24 525.88 C 460.98 525.84 451.72 525.74 442.47 525.94 C 442.41 516.59 442.44 507.25 442.45 497.91 Z" />
</g>
<g id="#1515154a">
<path fill="#151515" opacity="0.29" d=" M 217.95 525.94 C 221.75 524.31 225.94 525.17 229.94 525.00 C 235.25 525.24 240.65 524.54 245.91 525.32 C 245.13 526.54 243.22 525.93 242.00 526.11 C 233.98 525.95 225.96 526.26 217.95 525.94 Z" />
</g>
<g id="#ea2c34ff">
<path fill="#ea2c34" opacity="1.00" d=" M 246.67 553.79 L 248.11 553.79 C 247.83 655.51 248.12 757.24 247.98 858.97 C 248.03 906.23 247.97 953.49 248.03 1000.75 L 246.65 1000.79 C 246.68 851.79 246.65 702.79 246.67 553.79 Z" />
</g>
<g id="#cb262dff">
<path fill="#cb262d" opacity="1.00" d=" M 248.11 553.79 C 322.14 553.95 396.17 553.84 470.20 553.88 C 470.41 563.04 470.25 572.20 470.31 581.37 C 460.97 582.24 451.57 581.16 442.23 581.94 C 442.47 591.21 442.30 600.48 442.31 609.75 C 442.34 619.11 442.27 628.47 442.35 637.83 C 417.91 637.39 393.46 637.78 369.01 637.64 C 356.24 637.74 343.47 637.45 330.70 637.77 C 330.60 656.36 330.35 674.98 330.81 693.57 L 330.36 693.55 C 330.04 693.53 329.41 693.51 329.09 693.49 C 328.84 748.66 329.05 803.83 328.98 859.00 C 329.11 887.55 328.71 916.11 329.21 944.65 L 330.33 944.74 C 376.95 944.93 423.58 944.70 470.21 944.86 C 470.45 935.56 470.35 926.26 470.25 916.96 C 479.53 916.62 488.82 916.89 498.11 916.83 C 498.22 907.57 498.21 898.31 498.11 889.06 C 507.45 888.67 516.81 888.99 526.16 888.89 C 526.20 879.62 526.18 870.35 526.17 861.09 C 535.48 861.12 544.79 861.11 554.10 861.11 C 554.05 795.92 554.24 730.73 554.00 665.54 C 572.68 665.40 591.36 665.64 610.04 665.63 C 609.81 740.06 610.00 814.49 609.95 888.92 C 600.61 888.86 591.27 888.88 581.93 888.90 C 581.89 898.24 581.95 907.58 581.91 916.93 C 572.66 916.89 563.42 916.80 554.17 916.97 C 554.18 926.26 554.27 935.55 554.13 944.85 C 544.83 944.83 535.52 944.71 526.22 944.91 C 526.33 954.24 526.25 963.57 526.27 972.91 C 507.59 972.52 488.89 972.55 470.21 972.90 C 470.32 982.07 470.29 991.25 470.33 1000.43 C 439.91 1000.94 409.47 1000.49 379.04 1000.67 C 335.37 1000.70 291.70 1000.52 248.03 1000.75 C 247.97 953.49 248.03 906.23 247.98 858.97 C 248.12 757.24 247.83 655.51 248.11 553.79 Z" />
</g>
<g id="#922e34ff">
<path fill="#922e34" opacity="1.00" d=" M 470.20 553.88 C 479.40 554.00 488.62 553.58 497.80 554.07 C 498.75 555.46 498.08 557.38 498.29 558.99 C 498.05 566.62 498.64 574.28 497.96 581.89 C 488.73 581.76 479.49 581.65 470.26 581.93 C 470.36 591.24 470.37 600.55 470.26 609.86 C 460.95 609.69 451.63 609.86 442.31 609.75 C 442.30 600.48 442.47 591.21 442.23 581.94 C 451.57 581.16 460.97 582.24 470.31 581.37 C 470.25 572.20 470.41 563.04 470.20 553.88 Z" />
<path fill="#922e34" opacity="1.00" d=" M 330.70 637.77 C 343.47 637.45 356.24 637.74 369.01 637.64 C 393.46 637.78 417.91 637.39 442.35 637.83 C 442.49 647.06 442.40 656.30 442.40 665.54 C 433.11 665.65 423.81 665.62 414.52 665.54 C 414.29 674.83 414.37 684.13 414.50 693.43 C 386.62 693.81 358.71 693.52 330.81 693.57 C 330.35 674.98 330.60 656.36 330.70 637.77 Z" />
<path fill="#922e34" opacity="1.00" d=" M 470.21 972.90 C 488.89 972.55 507.59 972.52 526.27 972.91 C 526.34 991.42 526.16 1009.93 526.36 1028.44 C 507.65 1028.98 488.90 1028.18 470.20 1028.84 C 470.47 1038.05 470.26 1047.27 470.33 1056.49 C 395.76 1056.51 321.18 1056.51 246.61 1056.49 C 246.63 1037.92 246.56 1019.36 246.65 1000.79 L 248.03 1000.75 C 291.70 1000.52 335.37 1000.70 379.04 1000.67 C 409.47 1000.49 439.91 1000.94 470.33 1000.43 C 470.29 991.25 470.32 982.07 470.21 972.90 Z" />
</g>
<g id="#333990ff">
<path fill="#333990" opacity="1.00" d=" M 526.14 553.89 L 526.46 553.89 C 535.67 553.85 544.87 553.89 554.08 553.87 C 554.11 563.09 554.10 572.31 554.09 581.52 C 544.79 582.11 535.45 581.19 526.16 582.00 C 526.14 590.69 526.35 599.39 526.11 608.08 C 526.56 610.05 524.09 609.56 522.99 609.73 C 515.28 609.79 507.56 609.52 499.86 609.74 C 497.79 609.30 498.27 611.82 498.14 613.01 C 498.27 621.23 498.01 629.46 498.32 637.68 C 507.62 637.42 516.92 637.91 526.21 637.39 C 526.16 628.17 526.27 618.95 526.12 609.73 C 535.36 609.67 544.60 609.67 553.84 609.75 C 554.40 600.42 554.01 591.07 554.05 581.73 C 563.37 581.66 572.68 581.68 582.00 581.72 C 581.99 591.06 581.64 600.42 582.17 609.75 C 591.48 609.67 600.80 609.65 610.11 609.74 C 610.13 619.03 610.21 628.31 610.06 637.60 C 600.71 637.59 591.37 637.60 582.02 637.60 C 581.86 628.31 581.90 619.02 581.99 609.73 C 572.66 609.68 563.34 609.66 554.02 609.73 C 554.13 619.03 554.17 628.33 554.03 637.63 C 544.74 637.70 535.45 637.44 526.16 637.76 C 526.19 646.98 526.21 656.20 526.17 665.43 L 526.17 665.71 C 516.82 665.47 507.46 665.50 498.11 665.68 C 498.21 674.89 498.23 684.10 498.13 693.31 C 488.80 693.40 479.48 693.41 470.16 693.28 C 470.37 684.05 470.23 674.82 470.24 665.59 L 470.24 665.28 C 479.53 665.62 488.84 665.49 498.13 665.38 C 498.23 656.16 498.22 646.95 498.13 637.74 C 488.83 637.66 479.53 637.67 470.24 637.73 C 470.36 628.59 470.03 619.44 470.35 610.31 L 470.83 609.82 C 479.88 609.51 488.96 609.75 498.02 609.76 C 498.34 600.41 498.14 591.05 498.12 581.69 C 507.43 581.72 516.75 581.66 526.06 581.74 C 526.32 572.46 526.17 563.18 526.14 553.89 Z" />
<path fill="#333990" opacity="1.00" d=" M 582.00 553.87 C 591.36 553.87 600.73 553.87 610.10 553.87 C 610.16 563.09 610.16 572.30 610.12 581.52 C 600.73 581.82 591.33 581.81 581.94 581.51 C 581.94 572.30 581.86 563.08 582.00 553.87 Z" />
<path fill="#333990" opacity="1.00" d=" M 637.89 553.87 C 647.19 553.87 656.49 553.87 665.79 553.87 C 665.75 563.09 665.71 572.30 665.80 581.52 C 675.10 581.88 684.42 581.65 693.74 581.66 C 693.83 572.40 693.68 563.13 693.82 553.87 C 702.85 553.90 711.89 553.82 720.92 553.91 L 721.74 553.92 C 721.69 563.19 721.72 572.45 721.73 581.72 C 712.42 581.72 703.10 581.64 693.79 581.75 C 693.75 591.08 693.87 600.42 693.74 609.76 C 684.42 609.66 675.10 609.69 665.78 609.73 C 665.77 619.07 665.78 628.40 665.78 637.74 C 656.52 637.47 647.26 637.75 637.99 637.62 C 637.68 628.33 637.87 619.02 637.90 609.73 C 628.69 609.66 619.48 609.69 610.27 609.72 C 609.93 600.40 610.31 591.06 610.06 581.74 C 619.34 581.67 628.61 581.66 637.89 581.75 C 637.84 590.99 637.82 600.24 637.85 609.49 C 647.12 609.93 656.40 609.60 665.68 609.68 C 665.90 600.37 665.64 591.05 665.82 581.74 C 656.49 581.51 647.15 581.97 637.83 581.50 C 637.86 572.29 637.80 563.08 637.89 553.87 Z" />
<path fill="#333990" opacity="1.00" d=" M 638.02 665.69 C 647.27 665.52 656.53 665.46 665.78 665.74 C 665.81 674.96 665.69 684.19 665.86 693.42 C 656.56 693.56 647.25 693.50 637.95 693.44 C 637.95 684.19 637.91 674.94 638.02 665.69 Z" />
<path fill="#333990" opacity="1.00" d=" M 777.74 665.62 C 786.87 665.58 796.01 665.57 805.15 665.63 C 805.43 674.81 805.55 684.00 805.23 693.19 C 796.04 693.42 786.84 693.43 777.66 693.15 C 777.69 683.97 777.55 674.79 777.74 665.62 Z" />
<path fill="#333990" opacity="1.00" d=" M 833.84 665.54 C 843.06 665.45 852.28 665.52 861.50 665.50 C 861.49 674.72 861.51 683.94 861.49 693.16 C 852.26 693.37 843.01 693.48 833.79 693.18 C 833.59 683.97 833.54 674.75 833.84 665.54 Z" />
<path fill="#333990" opacity="1.00" d=" M 442.37 693.61 C 451.65 693.71 460.93 693.50 470.21 693.73 C 470.29 702.91 470.32 712.09 470.18 721.27 C 479.50 721.47 488.83 721.40 498.15 721.31 C 498.17 712.10 498.29 702.89 498.08 693.68 C 507.45 693.50 516.82 693.54 526.19 693.64 C 526.19 702.97 526.19 712.30 526.19 721.62 C 516.86 721.47 507.52 721.36 498.19 721.68 C 498.35 730.88 497.75 740.11 498.58 749.28 C 507.78 749.31 516.99 749.32 526.19 749.26 C 526.19 758.58 526.19 767.90 526.19 777.22 C 516.90 777.41 507.62 777.21 498.33 777.35 C 498.00 784.89 498.30 792.44 498.14 799.99 C 498.29 801.66 497.88 803.59 498.85 805.08 C 507.94 805.62 517.08 805.21 526.19 805.24 C 526.17 814.52 526.23 823.81 526.16 833.09 C 516.83 833.16 507.49 833.08 498.16 833.13 C 498.18 842.44 498.17 851.76 498.17 861.07 C 488.96 861.14 479.75 861.11 470.54 861.09 C 470.06 851.83 470.46 842.54 470.31 833.27 C 479.57 833.05 488.84 833.45 498.09 833.07 C 498.46 823.77 498.24 814.47 498.24 805.18 C 488.99 805.26 479.74 805.23 470.49 805.21 C 469.94 795.97 470.45 786.72 470.22 777.47 C 461.01 777.00 451.79 777.56 442.58 777.14 C 442.24 767.86 442.48 758.56 442.46 749.28 L 444.01 749.29 C 452.70 749.19 461.40 749.54 470.09 749.08 C 470.44 739.90 470.22 730.71 470.24 721.53 C 461.02 721.11 451.79 721.64 442.57 721.22 C 442.19 712.02 442.58 702.81 442.37 693.61 M 470.21 749.20 C 470.27 758.56 470.36 767.93 470.17 777.29 C 479.49 777.24 488.82 777.40 498.15 777.22 C 498.13 767.90 498.40 758.57 498.00 749.26 C 488.73 749.28 479.47 749.39 470.21 749.20 Z" />
<path fill="#333990" opacity="1.00" d=" M 805.76 693.78 C 814.90 693.60 824.06 693.51 833.20 693.80 C 833.37 702.92 833.42 712.04 833.20 721.16 C 824.06 721.29 814.93 721.40 805.80 721.14 C 805.61 712.02 805.67 702.90 805.76 693.78 Z" />
<path fill="#333990" opacity="1.00" d=" M 777.66 721.76 C 786.84 721.58 796.04 721.59 805.23 721.73 C 805.41 730.83 805.50 739.94 805.18 749.04 C 796.36 749.28 787.54 748.91 778.72 749.32 L 777.66 749.29 C 777.64 740.11 777.65 730.94 777.66 721.76 Z" />
<path fill="#333990" opacity="1.00" d=" M 833.80 721.70 C 843.03 721.64 852.27 721.40 861.49 721.81 C 861.50 730.92 861.49 740.04 861.50 749.16 C 852.25 749.41 842.99 749.32 833.74 749.22 C 833.72 740.04 833.53 730.87 833.80 721.70 Z" />
<path fill="#333990" opacity="1.00" d=" M 805.84 749.72 C 814.94 749.62 824.05 749.40 833.15 749.75 C 833.58 758.89 833.18 768.05 833.26 777.20 C 824.09 777.36 814.91 777.33 805.74 777.22 C 805.69 768.05 805.51 758.88 805.84 749.72 Z" />
<path fill="#333990" opacity="1.00" d=" M 777.66 777.26 C 786.86 777.28 796.07 777.46 805.28 777.16 C 805.41 786.43 805.44 795.72 805.25 805.00 C 796.38 805.10 787.51 804.67 778.66 805.23 L 777.65 805.18 C 777.65 795.87 777.64 786.56 777.66 777.26 Z" />
<path fill="#333990" opacity="1.00" d=" M 833.81 777.70 C 843.03 777.55 852.26 777.44 861.49 777.79 C 861.48 786.86 861.57 795.94 861.44 805.01 C 852.20 805.42 842.94 805.20 833.69 805.13 C 833.72 795.98 833.48 786.84 833.81 777.70 Z" />
<path fill="#333990" opacity="1.00" d=" M 442.46 805.19 L 443.95 805.20 C 452.70 805.24 461.45 805.27 470.21 805.16 C 470.31 814.46 470.30 823.77 470.21 833.08 C 460.95 833.05 451.68 833.31 442.42 832.89 C 442.44 823.65 442.38 814.42 442.46 805.19 Z" />
<path fill="#333990" opacity="1.00" d=" M 805.76 805.16 C 814.93 805.26 824.11 805.28 833.29 805.13 C 833.32 814.46 833.30 823.79 833.26 833.12 C 824.08 833.29 814.90 833.27 805.72 833.14 C 805.70 823.81 805.61 814.48 805.76 805.16 Z" />
<path fill="#333990" opacity="1.00" d=" M 777.66 833.22 C 786.87 833.18 796.08 833.35 805.29 833.09 C 805.63 842.33 805.02 851.59 805.52 860.82 C 796.42 861.37 787.27 861.15 778.16 860.98 C 776.97 851.99 777.98 842.43 777.66 833.22 Z" />
<path fill="#333990" opacity="1.00" d=" M 833.72 833.12 C 842.47 833.29 851.23 833.24 860.00 833.18 L 861.46 833.17 C 861.53 842.52 861.50 851.88 861.48 861.24 C 852.21 861.13 842.93 861.26 833.66 861.16 C 833.52 870.41 833.54 879.66 833.67 888.91 C 824.52 889.24 815.33 889.23 806.19 888.95 L 805.74 888.35 C 805.48 879.33 805.87 870.29 805.56 861.28 C 814.83 860.92 824.11 861.18 833.39 861.13 L 833.41 860.21 C 833.96 851.19 833.51 842.15 833.72 833.12 Z" />
<path fill="#333990" opacity="1.00" d=" M 610.12 916.97 C 619.36 916.78 628.61 916.92 637.86 916.88 C 637.59 926.10 638.34 935.39 637.53 944.57 C 629.70 944.98 621.85 944.55 614.01 944.67 C 612.77 944.93 610.12 944.12 610.12 946.09 C 609.68 954.87 610.00 963.69 610.04 972.48 C 602.36 972.93 594.66 972.63 586.98 972.65 C 585.40 972.83 583.54 972.33 582.20 973.33 C 581.51 982.33 582.14 991.39 581.91 1000.42 C 591.31 1000.75 600.74 1000.73 610.14 1000.43 C 610.13 991.21 610.17 981.98 610.11 972.76 C 619.37 972.68 628.64 972.62 637.90 972.76 C 637.80 981.98 637.84 991.21 637.86 1000.43 C 647.22 1000.73 656.60 1000.76 665.96 1000.43 C 665.76 991.29 665.87 982.15 665.89 973.02 C 656.66 972.32 647.40 972.85 638.16 972.73 C 637.81 963.40 638.14 954.07 637.96 944.75 C 647.23 944.69 656.51 944.62 665.78 944.80 C 665.81 954.13 665.70 963.47 665.84 972.81 C 675.10 972.77 684.37 972.89 693.64 972.72 C 694.03 982.05 693.59 991.39 693.88 1000.72 C 703.11 1000.66 712.34 1000.78 721.58 1000.64 C 722.00 1009.99 721.39 1019.35 721.91 1028.69 C 731.13 1028.49 740.36 1028.70 749.58 1028.55 C 749.78 1037.82 749.46 1047.09 749.76 1056.37 C 749.61 1056.37 749.31 1056.38 749.16 1056.39 C 740.03 1056.65 730.90 1056.48 721.78 1056.47 L 721.78 1055.05 C 721.64 1046.24 722.12 1037.41 721.51 1028.62 C 712.28 1028.54 703.06 1028.52 693.83 1028.62 C 693.71 1037.41 693.70 1046.21 693.81 1055.01 L 693.83 1056.47 C 684.55 1056.52 675.27 1056.53 666.00 1056.47 L 665.91 1055.10 C 665.80 1046.28 665.89 1037.46 665.93 1028.65 C 656.57 1028.50 647.22 1028.55 637.86 1028.63 C 637.86 1037.41 637.77 1046.20 637.90 1054.99 L 637.92 1056.47 C 628.65 1056.52 619.39 1056.53 610.12 1056.47 L 610.12 1055.01 C 610.08 1046.22 610.24 1037.43 610.07 1028.64 C 600.70 1028.55 591.32 1028.47 581.96 1028.68 C 581.89 1037.46 581.95 1046.25 581.92 1055.04 L 581.92 1056.47 C 572.65 1056.52 563.38 1056.54 554.12 1056.46 C 554.28 1047.18 554.16 1037.89 554.19 1028.61 C 563.49 1028.20 572.80 1028.57 582.10 1028.39 C 582.05 1019.16 582.17 1009.93 582.04 1000.71 C 572.76 1000.58 563.47 1000.57 554.19 1000.73 C 554.19 991.44 554.22 982.15 554.16 972.87 C 563.47 972.71 572.77 972.86 582.08 972.79 C 582.16 963.47 582.12 954.15 582.09 944.83 C 591.41 944.78 600.73 944.81 610.06 944.82 C 610.22 935.53 610.10 926.25 610.12 916.97 M 610.01 1000.72 C 609.83 1009.93 610.04 1019.16 609.96 1028.38 C 619.30 1028.42 628.65 1028.55 638.00 1028.36 C 637.86 1019.14 638.11 1009.91 638.00 1000.70 C 628.67 1000.60 619.34 1000.56 610.01 1000.72 M 665.81 1000.71 C 665.69 1009.92 665.67 1019.14 665.82 1028.36 C 675.19 1028.50 684.56 1028.46 693.94 1028.36 C 693.72 1019.60 694.10 1010.84 693.77 1002.10 C 693.83 1000.09 691.23 1000.83 690.01 1000.61 C 681.94 1000.72 673.87 1000.49 665.81 1000.71 Z" />
</g>
<g id="#9b2685ff">
<path fill="#9b2685" opacity="1.00" d=" M 554.08 553.87 C 563.39 553.87 572.69 553.87 582.00 553.87 C 581.86 563.08 581.94 572.30 581.94 581.51 C 591.33 581.81 600.73 581.82 610.12 581.52 C 610.16 572.30 610.16 563.09 610.10 553.87 C 619.36 553.87 628.62 553.87 637.89 553.87 C 637.80 563.08 637.86 572.29 637.83 581.50 C 647.15 581.97 656.49 581.51 665.82 581.74 C 665.64 591.05 665.90 600.37 665.68 609.68 C 656.40 609.60 647.12 609.93 637.85 609.49 C 637.82 600.24 637.84 590.99 637.89 581.75 C 628.61 581.66 619.34 581.67 610.06 581.74 C 610.31 591.06 609.93 600.40 610.27 609.72 C 619.48 609.69 628.69 609.66 637.90 609.73 C 637.87 619.02 637.68 628.33 637.99 637.62 C 628.68 637.57 619.37 637.61 610.06 637.60 C 610.21 628.31 610.13 619.03 610.11 609.74 C 600.80 609.65 591.48 609.67 582.17 609.75 C 581.64 600.42 581.99 591.06 582.00 581.72 C 572.68 581.68 563.37 581.66 554.05 581.73 C 554.01 591.07 554.40 600.42 553.84 609.75 C 544.60 609.67 535.36 609.67 526.12 609.73 C 526.27 618.95 526.16 628.17 526.21 637.39 C 516.92 637.91 507.62 637.42 498.32 637.68 C 498.01 629.46 498.27 621.23 498.14 613.01 C 498.27 611.82 497.79 609.30 499.86 609.74 C 507.56 609.52 515.28 609.79 522.99 609.73 C 524.09 609.56 526.56 610.05 526.11 608.08 C 526.35 599.39 526.14 590.69 526.16 582.00 C 535.45 581.19 544.79 582.11 554.09 581.52 C 554.10 572.31 554.11 563.09 554.08 553.87 Z" />
<path fill="#9b2685" opacity="1.00" d=" M 665.79 553.87 C 675.13 553.87 684.47 553.87 693.82 553.87 C 693.68 563.13 693.83 572.40 693.74 581.66 C 684.42 581.65 675.10 581.88 665.80 581.52 C 665.71 572.30 665.75 563.09 665.79 553.87 Z" />
<path fill="#9b2685" opacity="1.00" d=" M 554.02 609.73 C 563.34 609.66 572.66 609.68 581.99 609.73 C 581.90 619.02 581.86 628.31 582.02 637.60 C 572.69 637.62 563.36 637.56 554.03 637.63 C 554.17 628.33 554.13 619.03 554.02 609.73 Z" />
<path fill="#9b2685" opacity="1.00" d=" M 470.24 637.73 C 479.53 637.67 488.83 637.66 498.13 637.74 C 498.22 646.95 498.23 656.16 498.13 665.38 C 488.84 665.49 479.53 665.62 470.24 665.28 C 470.25 656.10 470.25 646.92 470.24 637.73 Z" />
<path fill="#9b2685" opacity="1.00" d=" M 442.37 693.61 C 442.31 684.20 442.23 674.80 442.40 665.39 C 451.68 665.65 460.96 665.34 470.24 665.59 C 470.23 674.82 470.37 684.05 470.16 693.28 C 460.90 693.34 451.60 692.75 442.37 693.61 Z" />
<path fill="#9b2685" opacity="1.00" d=" M 805.82 667.02 C 814.96 666.90 824.10 667.01 833.25 667.01 C 833.39 675.74 833.44 684.49 833.18 693.22 C 824.06 693.42 814.93 693.47 805.82 693.20 C 805.52 684.47 805.72 675.74 805.82 667.02 Z" />
<path fill="#9b2685" opacity="1.00" d=" M 470.21 693.73 C 479.50 693.81 488.79 693.87 498.08 693.68 C 498.29 702.89 498.17 712.10 498.15 721.31 C 488.83 721.40 479.50 721.47 470.18 721.27 C 470.32 712.09 470.29 702.91 470.21 693.73 Z" />
<path fill="#9b2685" opacity="1.00" d=" M 833.75 693.72 C 842.49 693.57 851.23 693.59 859.98 693.77 C 860.07 702.90 859.99 712.03 860.02 721.16 C 851.26 721.42 842.49 721.29 833.74 721.17 C 833.59 712.02 833.57 702.87 833.75 693.72 Z" />
<path fill="#9b2685" opacity="1.00" d=" M 442.57 721.22 C 451.79 721.64 461.02 721.11 470.24 721.53 C 470.22 730.71 470.44 739.90 470.09 749.08 C 461.40 749.54 452.70 749.19 444.01 749.29 C 444.06 742.53 443.90 735.78 444.05 729.03 C 444.00 726.40 444.46 723.45 442.58 721.28 L 442.57 721.22 Z" />
<path fill="#9b2685" opacity="1.00" d=" M 805.86 721.73 C 814.97 721.49 824.10 721.57 833.22 721.69 C 833.39 730.81 833.40 739.93 833.23 749.04 C 824.09 749.25 814.94 749.17 805.81 749.05 C 805.67 739.94 805.52 730.83 805.86 721.73 Z" />
<path fill="#9b2685" opacity="1.00" d=" M 470.21 749.20 C 479.47 749.39 488.73 749.28 498.00 749.26 C 498.40 758.57 498.13 767.90 498.15 777.22 C 488.82 777.40 479.49 777.24 470.17 777.29 C 470.36 767.93 470.27 758.56 470.21 749.20 Z" />
<path fill="#9b2685" opacity="1.00" d=" M 833.74 749.22 C 842.99 749.32 852.25 749.41 861.50 749.16 L 861.31 749.43 C 861.01 749.86 860.40 750.72 860.10 751.15 C 859.86 759.78 860.13 768.42 859.97 777.05 C 851.23 777.15 842.49 777.28 833.76 777.04 C 833.59 767.77 833.59 758.49 833.74 749.22 Z" />
<path fill="#9b2685" opacity="1.00" d=" M 442.58 777.14 C 451.79 777.56 461.01 777.00 470.22 777.47 C 470.45 786.72 469.94 795.97 470.49 805.21 C 479.74 805.23 488.99 805.26 498.24 805.18 C 498.24 814.47 498.46 823.77 498.09 833.07 C 488.84 833.45 479.57 833.05 470.31 833.27 C 470.46 842.54 470.06 851.83 470.54 861.09 C 479.75 861.11 488.96 861.14 498.17 861.07 C 498.17 870.35 498.17 879.62 498.17 888.90 C 488.88 888.87 479.58 888.90 470.28 888.89 C 470.36 879.62 470.33 870.36 470.31 861.10 C 461.04 861.15 451.77 861.07 442.50 861.16 C 442.30 851.73 442.46 842.31 442.42 832.89 C 451.68 833.31 460.95 833.05 470.21 833.08 C 470.30 823.77 470.31 814.46 470.21 805.16 C 461.45 805.27 452.70 805.24 443.95 805.20 C 444.01 797.46 443.99 789.72 444.00 781.98 C 444.10 780.28 443.53 778.66 442.58 777.29 L 442.58 777.14 Z" />
<path fill="#9b2685" opacity="1.00" d=" M 805.74 777.22 C 814.91 777.33 824.09 777.36 833.26 777.20 C 833.32 786.51 833.39 795.82 833.29 805.13 C 824.11 805.28 814.93 805.26 805.76 805.16 C 805.65 795.85 805.67 786.53 805.74 777.22 Z" />
<path fill="#9b2685" opacity="1.00" d=" M 833.69 805.13 C 842.94 805.20 852.20 805.42 861.44 805.01 L 861.24 805.38 C 859.75 807.26 859.92 809.71 859.93 811.98 C 860.04 819.04 859.99 826.11 860.00 833.18 C 851.23 833.24 842.47 833.29 833.72 833.12 C 833.61 823.79 833.62 814.46 833.69 805.13 Z" />
<path fill="#9b2685" opacity="1.00" d=" M 805.72 833.14 C 814.90 833.27 824.08 833.29 833.26 833.12 C 833.37 842.15 833.32 851.18 833.41 860.21 L 833.39 861.13 C 824.11 861.18 814.83 860.92 805.56 861.28 C 805.88 851.90 805.59 842.51 805.72 833.14 Z" />
<path fill="#9b2685" opacity="1.00" d=" M 637.86 916.88 C 647.17 916.93 656.49 916.78 665.81 916.97 C 665.75 926.24 665.79 935.52 665.78 944.80 C 656.51 944.62 647.23 944.69 637.96 944.75 C 638.14 954.07 637.81 963.40 638.16 972.73 C 647.40 972.85 656.66 972.32 665.89 973.02 C 665.87 982.15 665.76 991.29 665.96 1000.43 C 656.60 1000.76 647.22 1000.73 637.86 1000.43 C 637.84 991.21 637.80 981.98 637.90 972.76 C 628.64 972.62 619.37 972.68 610.11 972.76 C 610.17 981.98 610.13 991.21 610.14 1000.43 C 600.74 1000.73 591.31 1000.75 581.91 1000.42 C 582.14 991.39 581.51 982.33 582.20 973.33 C 583.54 972.33 585.40 972.83 586.98 972.65 C 594.66 972.63 602.36 972.93 610.04 972.48 C 610.00 963.69 609.68 954.87 610.12 946.09 C 610.12 944.12 612.77 944.93 614.01 944.67 C 621.85 944.55 629.70 944.98 637.53 944.57 C 638.34 935.39 637.59 926.10 637.86 916.88 Z" />
</g>
<g id="#f3e444ff">
<path fill="#f3e444" opacity="1.00" d=" M 749.70 553.78 C 814.44 553.80 879.18 553.79 943.92 553.79 C 944.13 563.44 943.63 573.11 944.20 582.76 C 962.74 583.57 981.32 582.70 999.87 583.19 C 1000.15 591.98 999.56 600.79 1000.21 609.58 L 1001.20 609.64 C 1010.53 609.77 1019.86 609.70 1029.20 609.66 C 1029.22 619.04 1029.20 628.43 1029.21 637.81 C 1019.88 637.65 1010.54 637.59 1001.22 637.81 C 1001.29 646.57 1001.38 655.33 1001.25 664.09 C 1001.62 666.08 999.10 665.47 997.99 665.65 C 980.77 665.58 963.54 665.56 946.32 665.66 C 946.23 674.65 946.25 683.65 946.33 692.65 C 973.89 692.65 1001.47 692.94 1029.03 692.51 L 1029.01 693.17 L 1029.00 693.44 C 1001.39 693.30 973.77 693.42 946.16 693.39 C 945.98 693.38 945.60 693.38 945.42 693.38 C 945.64 684.05 945.46 674.72 945.53 665.40 C 936.15 665.47 926.77 665.16 917.40 665.57 L 917.44 665.16 C 917.75 656.01 917.44 646.86 917.60 637.71 C 870.95 637.69 824.29 637.69 777.63 637.71 C 777.69 647.01 777.61 656.32 777.68 665.63 C 768.36 665.56 759.03 665.61 749.71 665.60 C 749.75 686.73 749.72 707.86 749.73 728.99 C 749.85 745.09 749.21 761.18 749.51 777.28 C 740.28 777.20 731.05 777.28 721.82 777.24 C 721.82 768.37 721.79 759.51 721.86 750.65 C 722.68 759.31 721.93 768.01 722.28 776.69 C 731.07 776.78 739.85 776.77 748.64 776.70 C 748.78 767.59 748.70 758.49 748.70 749.39 C 739.73 749.34 730.76 749.15 721.80 749.53 L 721.79 749.30 C 721.57 739.98 721.77 730.66 721.71 721.34 C 712.42 721.41 703.13 721.40 693.84 721.36 C 693.94 684.17 693.84 646.98 693.89 609.79 C 703.21 609.76 712.54 609.82 721.86 609.76 C 721.75 600.43 721.81 591.11 721.82 581.78 C 731.14 581.77 740.46 581.82 749.78 581.76 C 749.66 572.43 749.78 563.11 749.70 553.78 M 918.36 637.75 C 918.32 646.72 918.21 655.69 918.42 664.66 C 927.35 664.72 936.28 664.78 945.21 664.64 C 945.30 655.67 945.32 646.70 945.21 637.73 C 936.26 637.68 927.31 637.64 918.36 637.75 Z" />
<path fill="#f3e444" opacity="1.00" d=" M 889.37 749.28 C 908.00 749.25 926.63 749.38 945.26 749.22 C 945.41 758.56 945.36 767.90 945.28 777.24 C 963.93 777.30 982.58 777.34 1001.23 777.22 C 1001.33 786.54 1001.30 795.86 1001.24 805.18 C 1010.58 805.21 1019.92 805.23 1029.26 805.16 C 1029.14 851.75 1029.24 898.33 1029.21 944.92 C 1019.89 944.74 1010.57 944.70 1001.26 944.92 C 1001.25 954.22 1001.43 963.54 1001.17 972.85 C 982.53 972.84 963.89 972.61 945.27 972.96 C 945.31 982.22 945.53 991.50 945.18 1000.77 C 898.71 1000.68 852.24 1000.62 805.78 1000.80 C 805.36 991.54 805.60 982.26 805.67 973.00 C 787.02 972.58 768.36 972.83 749.71 972.87 C 749.59 963.57 749.63 954.27 749.71 944.98 C 740.40 944.59 731.08 944.83 721.78 944.86 C 721.62 926.27 721.72 907.69 721.74 889.11 C 712.43 889.11 703.13 889.10 693.84 889.14 C 693.79 879.99 693.69 870.84 693.89 861.69 L 693.91 861.06 C 721.83 861.17 749.76 861.10 777.68 861.10 C 777.63 870.36 777.66 879.63 777.65 888.90 C 787.00 888.89 796.35 888.85 805.70 888.92 C 805.64 898.21 805.69 907.51 805.66 916.81 C 842.88 916.82 880.10 916.80 917.32 916.83 C 917.32 907.54 917.38 898.25 917.28 888.97 C 926.60 888.79 935.93 888.93 945.26 888.89 C 945.25 879.65 945.25 870.42 945.26 861.18 C 945.20 851.85 945.40 842.51 945.17 833.18 C 935.95 833.27 926.74 833.11 917.53 833.32 C 917.05 824.01 917.48 814.69 917.32 805.37 C 908.32 805.28 899.33 805.31 890.34 805.37 C 890.29 814.61 890.16 823.87 890.44 833.12 L 889.65 833.06 C 889.51 805.14 889.37 777.21 889.37 749.28 Z" />
<path fill="#f3e444" opacity="1.00" d=" M 1000.70 1000.47 C 1009.91 1000.28 1019.13 1000.11 1028.34 1000.62 C 1019.27 1000.55 1010.21 1000.54 1001.16 1000.61 C 1001.19 1009.72 1001.21 1018.83 1001.15 1027.95 L 1001.14 1028.44 C 982.47 1028.35 963.80 1028.37 945.14 1028.43 C 945.35 1037.72 945.09 1047.01 945.29 1056.31 L 944.77 1056.34 C 889.23 1056.39 833.69 1056.48 778.15 1056.30 L 777.66 1056.29 C 777.82 1047.00 777.59 1037.70 777.80 1028.42 C 768.44 1028.35 759.08 1028.42 749.73 1028.38 C 749.84 1019.21 749.69 1010.03 749.81 1000.86 L 750.31 1001.52 C 750.39 1010.23 750.15 1018.95 750.38 1027.66 C 759.64 1027.81 768.91 1027.61 778.17 1027.77 C 778.48 1037.06 778.11 1046.35 778.37 1055.65 C 833.79 1055.75 889.22 1055.76 944.64 1055.65 C 944.87 1046.35 944.55 1037.05 944.81 1027.76 C 963.44 1027.62 982.08 1027.81 1000.71 1027.66 C 1000.85 1018.60 1000.81 1009.53 1000.70 1000.47 Z" />
</g>
<g id="#fffc4cff">
<path fill="#fffc4c" opacity="1.00" d=" M 943.92 553.79 L 945.34 553.79 C 945.26 563.09 945.39 572.40 945.26 581.70 C 963.92 581.74 982.59 581.74 1001.26 581.70 C 1001.23 591.01 1001.34 600.33 1001.20 609.64 L 1000.21 609.58 C 999.56 600.79 1000.15 591.98 999.87 583.19 C 981.32 582.70 962.74 583.57 944.20 582.76 C 943.63 573.11 944.13 563.44 943.92 553.79 Z" />
</g>
<g id="#802d89ff">
<path fill="#802d89" opacity="1.00" d=" M 526.16 637.76 C 535.45 637.44 544.74 637.70 554.03 637.63 C 554.18 646.91 554.11 656.18 554.08 665.46 C 544.77 665.51 535.47 665.55 526.17 665.43 C 526.21 656.20 526.19 646.98 526.16 637.76 Z" />
<path fill="#802d89" opacity="1.00" d=" M 637.99 637.62 C 647.26 637.75 656.52 637.47 665.78 637.74 C 665.78 647.07 665.78 656.41 665.78 665.74 C 656.53 665.46 647.27 665.52 638.02 665.69 C 637.80 656.33 638.21 646.98 637.99 637.62 Z" />
<path fill="#802d89" opacity="1.00" d=" M 498.11 665.68 C 507.46 665.50 516.82 665.47 526.17 665.71 C 526.20 675.02 526.18 684.33 526.19 693.64 C 516.82 693.54 507.45 693.50 498.08 693.68 C 488.79 693.87 479.50 693.81 470.21 693.73 C 460.93 693.50 451.65 693.71 442.37 693.61 C 451.60 692.75 460.90 693.34 470.16 693.28 C 479.48 693.41 488.80 693.40 498.13 693.31 C 498.23 684.10 498.21 674.89 498.11 665.68 Z" />
<path fill="#802d89" opacity="1.00" d=" M 777.67 693.81 C 786.85 693.77 796.03 693.70 805.20 693.86 C 805.35 702.91 805.43 711.97 805.18 721.03 C 796.01 721.10 786.84 721.04 777.67 721.10 C 777.65 712.00 777.64 702.91 777.67 693.81 Z" />
<path fill="#802d89" opacity="1.00" d=" M 498.19 721.68 C 507.52 721.36 516.86 721.47 526.19 721.62 C 526.19 730.84 526.19 740.05 526.19 749.26 C 516.99 749.32 507.78 749.31 498.58 749.28 C 497.75 740.11 498.35 730.88 498.19 721.68 Z" />
<path fill="#802d89" opacity="1.00" d=" M 777.66 749.29 L 778.72 749.32 C 787.51 750.11 796.34 749.33 805.15 749.76 C 805.50 758.89 805.30 768.02 805.28 777.16 C 796.07 777.46 786.86 777.28 777.66 777.26 C 777.65 767.93 777.65 758.61 777.66 749.29 Z" />
<path fill="#802d89" opacity="1.00" d=" M 498.33 777.35 C 507.62 777.21 516.90 777.41 526.19 777.22 C 526.19 786.56 526.19 795.90 526.19 805.24 C 517.08 805.21 507.94 805.62 498.85 805.08 C 497.88 803.59 498.29 801.66 498.14 799.99 C 498.30 792.44 498.00 784.89 498.33 777.35 Z" />
<path fill="#802d89" opacity="1.00" d=" M 777.65 805.18 L 778.66 805.23 C 787.46 806.21 796.33 805.32 805.17 805.79 C 805.62 814.88 805.14 823.99 805.29 833.09 C 796.08 833.35 786.87 833.18 777.66 833.22 C 777.64 823.87 777.66 814.53 777.65 805.18 Z" />
<path fill="#802d89" opacity="1.00" d=" M 554.19 1000.73 C 563.47 1000.57 572.76 1000.58 582.04 1000.71 C 582.17 1009.93 582.05 1019.16 582.10 1028.39 C 572.80 1028.57 563.49 1028.20 554.19 1028.61 C 554.19 1019.31 554.20 1010.02 554.19 1000.73 Z" />
<path fill="#802d89" opacity="1.00" d=" M 610.01 1000.72 C 619.34 1000.56 628.67 1000.60 638.00 1000.70 C 638.11 1009.91 637.86 1019.14 638.00 1028.36 C 628.65 1028.55 619.30 1028.42 609.96 1028.38 C 610.04 1019.16 609.83 1009.93 610.01 1000.72 Z" />
<path fill="#802d89" opacity="1.00" d=" M 665.81 1000.71 C 673.87 1000.49 681.94 1000.72 690.01 1000.61 C 691.23 1000.83 693.83 1000.09 693.77 1002.10 C 694.10 1010.84 693.72 1019.60 693.94 1028.36 C 684.56 1028.46 675.19 1028.50 665.82 1028.36 C 665.67 1019.14 665.69 1009.92 665.81 1000.71 Z" />
<path fill="#802d89" opacity="1.00" d=" M 581.96 1028.68 C 591.32 1028.47 600.70 1028.55 610.07 1028.64 C 610.24 1037.43 610.08 1046.22 610.12 1055.01 C 600.72 1055.04 591.32 1054.92 581.92 1055.04 C 581.95 1046.25 581.89 1037.46 581.96 1028.68 Z" />
<path fill="#802d89" opacity="1.00" d=" M 637.86 1028.63 C 647.22 1028.55 656.57 1028.50 665.93 1028.65 C 665.89 1037.46 665.80 1046.28 665.91 1055.10 C 656.58 1054.88 647.23 1055.04 637.90 1054.99 C 637.77 1046.20 637.86 1037.41 637.86 1028.63 Z" />
<path fill="#802d89" opacity="1.00" d=" M 693.83 1028.62 C 703.06 1028.52 712.28 1028.54 721.51 1028.62 C 722.12 1037.41 721.64 1046.24 721.78 1055.05 C 712.46 1054.94 703.13 1055.04 693.81 1055.01 C 693.70 1046.21 693.71 1037.41 693.83 1028.62 Z" />
</g>
<g id="#999041ff">
<path fill="#999041" opacity="1.00" d=" M 918.36 637.75 C 927.31 637.64 936.26 637.68 945.21 637.73 C 945.32 646.70 945.30 655.67 945.21 664.64 C 936.28 664.78 927.35 664.72 918.42 664.66 C 918.21 655.69 918.32 646.72 918.36 637.75 Z" />
<path fill="#999041" opacity="1.00" d=" M 1001.22 637.81 C 1010.54 637.59 1019.88 637.65 1029.21 637.81 C 1029.10 656.04 1029.44 674.28 1029.03 692.51 C 1001.47 692.94 973.89 692.65 946.33 692.65 C 946.25 683.65 946.23 674.65 946.32 665.66 C 963.54 665.56 980.77 665.58 997.99 665.65 C 999.10 665.47 1001.62 666.08 1001.25 664.09 C 1001.38 655.33 1001.29 646.57 1001.22 637.81 Z" />
<path fill="#999041" opacity="1.00" d=" M 693.84 721.36 C 703.13 721.40 712.42 721.41 721.71 721.34 C 721.77 730.66 721.57 739.98 721.79 749.30 C 713.09 749.39 704.37 749.52 695.68 749.29 C 695.39 749.09 694.81 748.69 694.51 748.48 C 694.35 748.18 694.02 747.58 693.86 747.28 C 693.67 738.65 693.81 730.00 693.84 721.36 Z" />
<path fill="#999041" opacity="1.00" d=" M 721.80 749.53 C 730.76 749.15 739.73 749.34 748.70 749.39 C 748.70 758.49 748.78 767.59 748.64 776.70 C 739.85 776.77 731.07 776.78 722.28 776.69 C 721.93 768.01 722.68 759.31 721.86 750.65 L 721.80 749.53 Z" />
<path fill="#999041" opacity="1.00" d=" M 890.34 805.37 C 899.33 805.31 908.32 805.28 917.32 805.37 C 917.48 814.69 917.05 824.01 917.53 833.32 C 926.74 833.11 935.95 833.27 945.17 833.18 C 945.40 842.51 945.20 851.85 945.26 861.18 C 935.97 861.24 926.68 861.13 917.40 861.25 C 917.20 851.89 917.43 842.53 917.28 833.17 C 908.33 833.17 899.38 833.31 890.44 833.12 C 890.16 823.87 890.29 814.61 890.34 805.37 Z" />
<path fill="#999041" opacity="1.00" d=" M 693.84 889.14 C 703.13 889.10 712.43 889.11 721.74 889.11 C 721.72 907.69 721.62 926.27 721.78 944.86 C 731.08 944.83 740.40 944.59 749.71 944.98 C 749.63 954.27 749.59 963.57 749.71 972.87 C 768.36 972.83 787.02 972.58 805.67 973.00 C 805.60 982.26 805.36 991.54 805.78 1000.80 C 852.24 1000.62 898.71 1000.68 945.18 1000.77 C 945.53 991.50 945.31 982.22 945.27 972.96 C 963.89 972.61 982.53 972.84 1001.17 972.85 C 1001.43 963.54 1001.25 954.22 1001.26 944.92 C 1010.57 944.70 1019.89 944.74 1029.21 944.92 C 1029.23 963.50 1029.17 982.07 1029.24 1000.65 L 1028.34 1000.62 C 1019.13 1000.11 1009.91 1000.28 1000.70 1000.47 C 1000.81 1009.53 1000.85 1018.60 1000.71 1027.66 C 982.08 1027.81 963.44 1027.62 944.81 1027.76 C 944.55 1037.05 944.87 1046.35 944.64 1055.65 C 889.22 1055.76 833.79 1055.75 778.37 1055.65 C 778.11 1046.35 778.48 1037.06 778.17 1027.77 C 768.91 1027.61 759.64 1027.81 750.38 1027.66 C 750.15 1018.95 750.39 1010.23 750.31 1001.52 L 749.81 1000.86 C 740.48 1000.52 731.13 1000.72 721.79 1000.79 C 721.64 991.49 721.69 982.19 721.77 972.89 C 712.45 972.71 703.13 972.82 693.82 972.84 C 693.66 944.94 693.95 917.04 693.84 889.14 Z" />
</g>
<g id="#1a1b1bb2">
<path fill="#1a1b1b" opacity="0.70" d=" M 889.10 665.32 C 898.55 665.21 908.00 665.39 917.44 665.16 L 917.40 665.57 C 908.29 666.29 899.14 665.65 890.01 665.89 C 889.99 684.30 889.99 702.70 890.02 721.11 C 908.31 721.06 926.60 721.20 944.89 721.04 C 944.76 712.00 944.75 702.95 944.89 693.91 C 935.85 693.72 926.79 694.17 917.76 693.63 C 926.96 692.89 936.20 693.36 945.42 693.38 C 945.60 693.38 945.98 693.38 946.16 693.39 C 945.89 702.58 946.07 711.79 946.04 720.99 C 973.68 720.95 1001.33 720.99 1028.97 720.96 C 1029.00 711.79 1028.89 702.61 1029.00 693.44 L 1029.01 693.17 C 1038.33 693.38 1047.67 693.28 1057.00 693.22 L 1056.93 693.91 C 1047.82 693.86 1038.71 693.84 1029.60 693.91 C 1029.57 703.21 1029.55 712.52 1029.63 721.82 C 1001.50 722.17 973.36 722.00 945.23 721.91 C 926.53 721.42 907.82 721.91 889.12 721.67 C 888.85 702.89 888.90 684.10 889.10 665.32 Z" />
</g>
<g id="#62318cff">
<path fill="#62318c" opacity="1.00" d=" M 805.15 665.63 L 805.85 665.54 L 805.82 667.02 C 805.72 675.74 805.52 684.47 805.82 693.20 C 814.93 693.47 824.06 693.42 833.18 693.22 C 833.44 684.49 833.39 675.74 833.25 667.01 L 833.22 665.54 L 833.84 665.54 C 833.54 674.75 833.59 683.97 833.79 693.18 C 843.01 693.48 852.26 693.37 861.49 693.16 L 861.45 693.81 L 859.98 693.77 C 851.23 693.59 842.49 693.57 833.75 693.72 C 833.57 702.87 833.59 712.02 833.74 721.17 C 842.49 721.29 851.26 721.42 860.02 721.16 L 861.44 721.11 L 861.49 721.81 C 852.27 721.40 843.03 721.64 833.80 721.70 C 833.53 730.87 833.72 740.04 833.74 749.22 C 833.59 758.49 833.59 767.77 833.76 777.04 C 842.49 777.28 851.23 777.15 859.97 777.05 L 861.45 777.02 L 861.49 777.79 C 852.26 777.44 843.03 777.55 833.81 777.70 C 833.48 786.84 833.72 795.98 833.69 805.13 C 833.62 814.46 833.61 823.79 833.72 833.12 C 833.51 842.15 833.96 851.19 833.41 860.21 C 833.32 851.18 833.37 842.15 833.26 833.12 C 833.30 823.79 833.32 814.46 833.29 805.13 C 833.39 795.82 833.32 786.51 833.26 777.20 C 833.18 768.05 833.58 758.89 833.15 749.75 C 824.05 749.40 814.94 749.62 805.84 749.72 C 805.51 758.88 805.69 768.05 805.74 777.22 C 805.67 786.53 805.65 795.85 805.76 805.16 C 805.61 814.48 805.70 823.81 805.72 833.14 C 805.59 842.51 805.88 851.90 805.56 861.28 L 805.52 860.82 C 805.02 851.59 805.63 842.33 805.29 833.09 C 805.14 823.99 805.62 814.88 805.17 805.79 C 796.33 805.32 787.46 806.21 778.66 805.23 C 787.51 804.67 796.38 805.10 805.25 805.00 C 805.44 795.72 805.41 786.43 805.28 777.16 C 805.30 768.02 805.50 758.89 805.15 749.76 C 796.34 749.33 787.51 750.11 778.72 749.32 C 787.54 748.91 796.36 749.28 805.18 749.04 C 805.50 739.94 805.41 730.83 805.23 721.73 C 796.04 721.59 786.84 721.58 777.66 721.76 L 777.67 721.10 C 786.84 721.04 796.01 721.10 805.18 721.03 C 805.43 711.97 805.35 702.91 805.20 693.86 C 796.03 693.70 786.85 693.77 777.67 693.81 L 777.66 693.15 C 786.84 693.43 796.04 693.42 805.23 693.19 C 805.55 684.00 805.43 674.81 805.15 665.63 M 805.76 693.78 C 805.67 702.90 805.61 712.02 805.80 721.14 C 814.93 721.40 824.06 721.29 833.20 721.16 C 833.42 712.04 833.37 702.92 833.20 693.80 C 824.06 693.51 814.90 693.60 805.76 693.78 M 805.86 721.73 C 805.52 730.83 805.67 739.94 805.81 749.05 C 814.94 749.17 824.09 749.25 833.23 749.04 C 833.40 739.93 833.39 730.81 833.22 721.69 C 824.10 721.57 814.97 721.49 805.86 721.73 Z" />
</g>
<g id="#b12b97ff">
<path fill="#b12b97" opacity="1.00" d=" M 805.85 665.54 C 814.97 665.56 824.09 665.57 833.22 665.54 L 833.25 667.01 C 824.10 667.01 814.96 666.90 805.82 667.02 L 805.85 665.54 Z" />
<path fill="#b12b97" opacity="1.00" d=" M 859.98 693.77 L 861.45 693.81 C 861.43 702.90 861.44 712.01 861.44 721.11 L 860.02 721.16 C 859.99 712.03 860.07 702.90 859.98 693.77 Z" />
<path fill="#b12b97" opacity="1.00" d=" M 860.10 751.15 C 860.40 750.72 861.01 749.86 861.31 749.43 C 861.61 758.62 861.35 767.82 861.45 777.02 L 859.97 777.05 C 860.13 768.42 859.86 759.78 860.10 751.15 Z" />
<path fill="#b12b97" opacity="1.00" d=" M 859.93 811.98 C 859.92 809.71 859.75 807.26 861.24 805.38 C 861.70 814.63 861.30 823.90 861.46 833.17 L 860.00 833.18 C 859.99 826.11 860.04 819.04 859.93 811.98 Z" />
</g>
<g id="#e52b33ff">
<path fill="#e52b33" opacity="1.00" d=" M 329.09 693.49 C 329.41 693.51 330.04 693.53 330.36 693.55 C 330.42 777.28 330.48 861.01 330.33 944.74 L 329.21 944.65 C 328.71 916.11 329.11 887.55 328.98 859.00 C 329.05 803.83 328.84 748.66 329.09 693.49 Z" />
</g>
<g id="#141515ac">
<path fill="#141515" opacity="0.67" d=" M 358.26 721.10 C 376.93 720.82 395.61 721.01 414.29 721.00 L 414.32 722.00 C 395.84 722.01 377.36 721.98 358.87 722.01 C 358.92 777.33 358.88 832.65 358.90 887.97 C 358.69 897.51 359.27 907.08 358.65 916.60 L 358.43 917.34 C 357.90 898.24 358.37 879.09 358.22 859.98 C 358.22 813.68 358.16 767.39 358.26 721.10 Z" />
</g>
<g id="#22222289">
<path fill="#222222" opacity="0.54" d=" M 638.08 721.26 C 647.36 721.22 656.65 721.23 665.94 721.28 C 666.08 730.56 665.99 739.84 665.97 749.12 C 675.21 749.31 684.52 748.49 693.71 749.29 C 694.47 758.47 693.72 767.79 694.02 777.03 C 703.29 777.08 712.56 776.82 721.82 777.24 C 721.70 786.59 722.04 795.94 721.61 805.29 C 721.26 796.20 721.59 787.09 721.44 778.00 C 712.05 777.97 702.66 778.07 693.28 777.96 C 693.28 768.64 693.28 759.32 693.29 750.00 C 683.94 749.96 674.60 750.08 665.26 749.95 C 665.22 740.64 665.24 731.32 665.27 722.00 C 656.19 722.00 647.11 721.99 638.03 722.00 L 638.08 721.26 Z" />
</g>
<g id="#b22b98ff">
<path fill="#b22b98" opacity="1.00" d=" M 442.58 721.28 C 444.46 723.45 444.00 726.40 444.05 729.03 C 443.90 735.78 444.06 742.53 444.01 749.29 L 442.46 749.28 C 442.56 739.95 442.38 730.61 442.58 721.28 Z" />
<path fill="#b22b98" opacity="1.00" d=" M 442.58 777.29 C 443.53 778.66 444.10 780.28 444.00 781.98 C 443.99 789.72 444.01 797.46 443.95 805.20 L 442.46 805.19 C 442.56 795.88 442.38 786.58 442.58 777.29 Z" />
</g>
<g id="#1a1a1a62">
<path fill="#1a1a1a" opacity="0.38" d=" M 1029.28 777.47 L 1029.68 776.66 C 1030.19 781.42 1029.87 786.22 1029.94 791.00 C 1029.82 795.66 1030.36 800.39 1029.32 804.99 C 1028.88 795.84 1028.84 786.62 1029.28 777.47 Z" />
</g>
<g id="#171717c2">
<path fill="#171717" opacity="0.76" d=" M 693.44 832.81 C 712.18 832.68 730.92 832.80 749.67 832.74 L 749.67 833.65 C 731.13 833.57 712.59 833.44 694.05 833.70 C 694.05 842.82 694.26 851.95 693.91 861.06 L 693.89 861.69 C 684.61 861.49 675.32 861.48 666.04 861.70 C 666.06 870.76 666.16 879.82 666.05 888.88 L 665.40 888.87 C 665.48 879.51 665.44 870.15 665.41 860.80 C 673.60 860.69 681.78 860.75 689.97 860.79 C 691.17 860.56 693.91 861.36 693.47 859.16 C 693.51 850.38 693.45 841.59 693.44 832.81 Z" />
</g>
<g id="#222222b2">
<path fill="#222222" opacity="0.70" d=" M 861.00 861.58 L 862.04 861.66 C 861.83 870.65 862.21 879.66 861.87 888.66 L 861.22 889.42 C 860.71 880.15 861.20 870.85 861.00 861.58 Z" />
</g>
<g id="#1a1a1aa7">
<path fill="#1a1a1a" opacity="0.65" d=" M 1028.91 1000.69 C 1038.26 1000.02 1047.64 1000.71 1057.00 1000.31 L 1057.00 1001.00 C 1047.91 1000.99 1038.83 1001.01 1029.75 1000.99 C 1029.47 1010.29 1029.66 1019.60 1029.66 1028.91 C 1020.30 1029.13 1010.93 1028.93 1001.57 1029.00 C 1001.45 1038.31 1001.46 1047.62 1001.58 1056.93 C 984.40 1057.12 967.23 1056.89 950.05 1057.05 C 948.28 1056.96 946.34 1057.30 944.77 1056.34 L 945.29 1056.31 C 963.88 1055.55 982.51 1056.22 1001.12 1055.96 C 1001.17 1046.78 1001.09 1037.61 1001.14 1028.44 L 1001.15 1027.95 C 1010.42 1028.02 1019.70 1028.00 1028.98 1027.97 C 1028.94 1018.87 1029.02 1009.78 1028.91 1000.69 Z" />
</g>
<g id="#93349dff">
<path fill="#93349d" opacity="1.00" d=" M 581.92 1055.04 C 591.32 1054.92 600.72 1055.04 610.12 1055.01 L 610.12 1056.47 C 600.72 1056.42 591.32 1056.42 581.92 1056.47 L 581.92 1055.04 Z" />
<path fill="#93349d" opacity="1.00" d=" M 637.90 1054.99 C 647.23 1055.04 656.58 1054.88 665.91 1055.10 L 666.00 1056.47 C 656.64 1056.42 647.27 1056.42 637.92 1056.47 L 637.90 1054.99 Z" />
<path fill="#93349d" opacity="1.00" d=" M 693.81 1055.01 C 703.13 1055.04 712.46 1054.94 721.78 1055.05 L 721.78 1056.47 C 712.46 1056.42 703.15 1056.42 693.83 1056.47 L 693.81 1055.01 Z" />
</g>
<g id="#212121cc">
<path fill="#212121" opacity="0.80" d=" M 470.84 1056.08 C 498.29 1055.90 525.75 1055.97 553.20 1056.05 L 553.73 1056.93 C 525.97 1057.07 498.20 1056.99 470.43 1056.97 L 470.84 1056.08 Z" />
</g>
<g id="#303030cd">
<path fill="#303030" opacity="0.80" d=" M 749.16 1056.39 C 749.31 1056.38 749.61 1056.37 749.76 1056.37 C 759.06 1056.10 768.36 1056.22 777.66 1056.29 L 778.15 1056.30 C 777.89 1065.52 778.05 1074.75 778.03 1083.98 C 833.81 1084.00 889.59 1083.97 945.37 1083.99 L 945.28 1085.00 C 889.21 1084.93 833.12 1085.13 777.05 1084.90 C 777.05 1075.58 777.06 1066.26 777.05 1056.95 C 768.06 1056.93 759.08 1056.91 750.09 1056.96 C 750.19 1066.31 750.14 1075.65 750.12 1085.00 C 684.71 1084.99 619.30 1085.01 553.88 1084.99 L 553.91 1083.95 C 619.04 1084.04 684.17 1083.95 749.30 1084.00 C 749.32 1074.79 749.49 1065.58 749.16 1056.39 Z" />
</g>
<g id="#323232cb">
<path fill="#323232" opacity="0.80" d=" M 219.00 1083.99 C 302.79 1084.01 386.57 1083.99 470.36 1083.99 L 470.26 1085.00 C 386.50 1085.00 302.74 1085.00 218.99 1085.00 L 219.00 1083.99 Z" />
</g>
</svg>
