<?xml version="1.0" encoding="UTF-8" ?>
<!DOCTYPE svg PUBLIC "-//W3C//DTD SVG 1.1//EN" "http://www.w3.org/Graphics/SVG/1.1/DTD/svg11.dtd">
<svg width="1276pt" height="1276pt" viewBox="0 0 1276 1276" version="1.1" xmlns="http://www.w3.org/2000/svg">
<g id="#ec2224ff">
<path fill="#ec2224" opacity="1.00" d=" M 820.40 354.45 C 839.54 346.46 860.25 342.19 881.00 342.17 C 981.56 342.07 1082.12 342.25 1182.69 342.08 C 1172.66 359.64 1162.46 377.11 1152.43 394.67 C 1065.63 394.71 978.84 394.67 892.05 394.68 C 885.04 394.73 878.02 394.42 871.05 395.29 C 841.75 398.19 813.98 413.85 796.35 437.43 C 791.17 444.16 787.25 451.70 782.97 459.00 C 742.31 529.41 701.73 599.87 661.03 670.26 C 640.80 670.26 620.58 670.22 600.35 670.28 C 641.29 599.52 682.07 528.67 722.89 457.84 C 730.87 444.14 738.60 430.30 746.76 416.72 C 764.09 389.01 790.23 366.98 820.40 354.45 Z" />
<path fill="#ec2224" opacity="1.00" d=" M 294.51 396.56 C 311.73 379.41 328.90 362.21 346.03 344.98 C 363.22 362.19 380.46 379.36 397.65 396.57 C 388.84 396.57 380.02 396.52 371.21 396.59 C 362.79 388.23 354.41 379.84 346.06 371.41 C 337.66 379.80 329.48 388.49 320.76 396.50 C 312.01 396.67 303.26 396.51 294.51 396.56 Z" />
<path fill="#ec2224" opacity="1.00" d=" M 149.02 406.42 C 203.12 406.33 257.23 406.33 311.33 406.42 C 322.83 418.11 334.53 429.60 346.05 441.27 C 357.74 429.69 369.16 417.78 381.07 406.46 C 414.72 405.87 448.55 416.38 475.75 436.25 C 505.48 457.68 527.35 489.63 536.88 524.99 C 547.39 562.93 542.77 604.65 524.46 639.48 C 517.03 653.20 508.97 666.57 501.30 680.16 C 613.53 680.13 725.76 680.14 837.98 680.16 C 854.65 679.47 871.35 679.96 888.03 679.81 C 904.35 679.96 920.68 679.47 936.99 680.16 C 963.97 680.14 990.96 680.12 1017.95 680.16 C 1056.81 680.35 1095.31 695.80 1123.59 722.44 C 1149.69 746.69 1167.40 779.79 1173.02 814.98 C 1176.98 838.93 1175.16 863.79 1167.90 886.96 C 1162.69 904.47 1153.41 920.32 1144.14 935.93 C 1123.62 935.76 1103.11 935.89 1082.60 935.87 C 1093.01 917.86 1103.48 899.88 1113.76 881.81 C 1123.26 860.32 1124.99 835.57 1118.93 812.90 C 1111.16 783.17 1090.26 757.01 1062.55 743.56 C 1051.45 738.10 1039.37 734.58 1027.06 733.32 C 1018.06 732.21 1008.97 732.74 999.93 732.62 C 941.96 732.52 884.00 733.02 826.03 732.62 C 721.68 732.62 617.34 732.62 513.00 732.62 C 504.65 732.53 496.13 733.20 488.00 730.86 C 472.61 726.92 459.37 715.55 453.20 700.91 C 446.69 686.21 447.61 668.56 455.51 654.58 C 462.27 642.67 469.15 630.83 475.95 618.94 C 485.01 602.88 490.03 584.49 489.87 566.02 C 490.00 531.58 472.07 497.81 443.88 478.15 C 426.19 465.65 404.59 459.05 382.96 458.95 C 315.09 458.86 247.21 459.00 179.34 458.88 C 169.26 441.37 159.25 423.83 149.02 406.42 Z" />
<path fill="#ec2224" opacity="1.00" d=" M 811.13 443.09 C 828.11 422.48 854.35 410.05 881.04 409.81 C 968.60 409.71 1056.15 409.82 1143.71 409.76 C 1139.11 417.56 1134.67 425.46 1130.10 433.28 C 1047.40 433.28 964.71 433.27 882.02 433.29 C 864.21 433.02 846.43 440.20 833.83 452.79 C 825.31 460.78 820.36 471.50 814.47 481.37 C 778.08 544.33 741.92 607.42 705.39 670.30 C 696.43 670.20 687.47 670.25 678.51 670.27 C 717.81 602.29 756.94 534.21 796.23 466.22 C 800.82 458.28 805.14 450.10 811.13 443.09 Z" />
<path fill="#ec2224" opacity="1.00" d=" M 835.85 474.72 C 845.05 458.54 863.34 448.18 881.94 448.47 C 961.80 448.49 1041.67 448.40 1121.53 448.52 C 1098.80 487.34 1076.58 526.47 1054.02 565.39 C 984.13 565.35 914.24 565.38 844.35 565.37 C 824.15 600.32 803.97 635.28 783.79 670.25 C 763.57 670.26 743.34 670.23 723.12 670.27 C 760.70 605.09 798.25 539.89 835.85 474.72 Z" />
<path fill="#ec2224" opacity="1.00" d=" M 86.36 483.72 C 101.68 473.71 117.26 464.07 132.78 454.37 C 136.49 461.03 140.38 467.59 144.20 474.19 C 222.47 474.17 300.74 474.19 379.01 474.18 C 402.44 473.24 426.19 481.54 443.56 497.37 C 459.27 511.46 470.01 531.02 473.34 551.87 C 476.49 570.51 473.28 590.04 464.91 606.94 C 457.81 620.30 449.89 633.22 442.50 646.42 C 435.00 659.52 432.01 675.19 434.38 690.11 C 436.46 704.48 443.45 718.05 453.80 728.21 C 466.41 740.74 484.13 748.01 501.93 747.72 C 642.30 747.73 782.67 747.76 923.05 747.61 C 954.02 747.85 984.99 747.65 1015.97 747.74 C 1032.14 748.00 1048.29 752.35 1062.17 760.74 C 1080.00 771.38 1093.86 788.35 1101.13 807.77 C 1109.07 828.53 1108.96 852.23 1100.81 872.92 C 1097.76 881.06 1093.13 888.46 1088.83 895.98 C 1081.17 909.27 1073.47 922.53 1065.83 935.83 C 1056.81 935.87 1047.78 935.87 1038.77 935.83 C 1049.02 918.36 1059.02 900.73 1069.19 883.21 C 1073.64 875.36 1078.66 867.69 1081.19 858.94 C 1086.86 841.14 1084.49 821.08 1075.08 804.98 C 1065.91 789.02 1049.96 777.12 1032.02 773.00 C 1025.80 771.42 1019.37 771.11 1012.99 771.24 C 952.32 771.15 891.65 771.53 830.98 771.25 C 727.00 771.25 623.01 771.25 519.03 771.25 C 508.40 771.17 497.69 771.72 487.18 769.80 C 469.31 766.76 452.36 758.27 439.39 745.60 C 425.38 732.12 415.77 714.15 412.32 695.03 C 409.04 677.20 411.42 658.43 418.82 641.90 C 426.11 626.91 435.21 612.88 443.24 598.27 C 452.72 581.43 454.40 560.47 447.79 542.32 C 441.07 523.38 425.45 507.87 406.44 501.33 C 398.90 498.69 390.91 497.40 382.94 497.51 C 307.86 497.52 232.79 497.47 157.72 497.53 C 160.67 502.55 163.68 507.55 166.22 512.79 C 139.61 503.08 113.05 493.21 86.36 483.72 Z" />
<path fill="#ec2224" opacity="1.00" d=" M 210.41 512.68 C 267.94 512.74 325.46 512.69 382.98 512.71 C 389.73 512.73 396.52 513.76 402.83 516.21 C 416.76 521.40 428.11 532.88 433.26 546.81 C 438.71 561.08 437.43 577.68 429.92 590.96 C 423.16 602.86 416.28 614.69 409.49 626.57 C 400.18 643.07 395.23 662.05 395.58 681.00 C 396.16 713.95 412.89 746.15 439.46 765.63 C 457.66 779.21 480.33 786.44 503.01 786.43 C 586.68 786.45 670.35 786.43 754.03 786.44 C 810.03 786.56 866.02 786.18 922.02 786.27 C 953.34 786.60 984.67 786.37 1016.00 786.44 C 1024.79 786.32 1033.62 788.40 1041.38 792.56 C 1055.21 799.75 1065.32 813.50 1068.24 828.79 C 1070.84 841.14 1068.44 854.33 1062.21 865.26 C 1048.69 888.79 1034.99 912.21 1021.55 935.79 C 1001.28 935.94 981.01 935.82 960.74 935.84 C 979.45 903.64 998.00 871.34 1016.63 839.09 C 964.39 839.00 912.17 839.28 859.93 839.23 C 740.93 838.91 621.92 839.26 502.92 839.04 C 466.47 839.10 430.06 826.47 401.99 803.12 C 375.26 781.20 355.97 750.45 347.72 716.89 C 338.19 678.98 343.56 637.65 362.38 603.40 C 369.55 590.67 376.80 577.99 384.23 565.41 C 336.45 565.34 288.68 565.35 240.90 565.41 C 230.67 547.87 220.67 530.21 210.41 512.68 Z" />
<path fill="#ec2224" opacity="1.00" d=" M 447.08 935.89 C 463.92 906.81 480.56 877.61 497.54 848.62 C 517.72 848.75 537.90 848.64 558.09 848.67 C 541.28 877.70 524.53 906.76 507.78 935.83 C 487.55 935.91 467.31 935.80 447.08 935.89 Z" />
<path fill="#ec2224" opacity="1.00" d=" M 525.34 935.93 C 542.09 906.81 558.85 877.69 575.73 848.64 C 584.72 848.70 593.71 848.67 602.70 848.65 C 585.74 877.69 569.17 906.95 552.16 935.95 C 543.22 935.77 534.27 935.83 525.34 935.93 Z" />
<path fill="#ec2224" opacity="1.00" d=" M 620.11 848.69 C 640.33 848.65 660.56 848.70 680.79 848.66 C 664.06 877.70 647.29 906.73 630.63 935.82 C 610.38 935.90 590.14 935.85 569.89 935.84 C 586.67 906.81 603.36 877.73 620.11 848.69 Z" />
</g>
</svg>
