<?xml version="1.0" encoding="UTF-8" ?>
<!DOCTYPE svg PUBLIC "-//W3C//DTD SVG 1.1//EN" "http://www.w3.org/Graphics/SVG/1.1/DTD/svg11.dtd">
<svg width="1276pt" height="1276pt" viewBox="0 0 1276 1276" version="1.1" xmlns="http://www.w3.org/2000/svg">
<g id="#3e61b1ff">
<path fill="#3e61b1" opacity="1.00" d=" M 587.66 233.05 C 598.39 231.63 609.21 232.39 619.99 232.35 C 639.41 232.87 658.78 234.33 678.13 236.04 C 693.86 236.74 709.57 238.41 725.08 241.20 C 737.24 243.86 749.62 245.41 761.68 248.52 C 783.85 253.80 805.58 260.74 827.22 267.82 C 846.73 274.98 865.35 284.36 883.52 294.39 C 897.52 302.22 911.31 310.43 924.56 319.49 C 939.93 329.75 953.05 342.95 965.59 356.42 C 973.40 364.46 979.75 373.74 986.23 382.86 C 997.72 399.40 1009.74 415.62 1019.85 433.07 C 1032.04 453.65 1043.11 474.87 1053.80 496.26 C 1058.66 506.30 1063.61 516.33 1067.38 526.85 C 1071.07 536.49 1073.27 546.63 1075.22 556.75 C 1078.18 574.95 1082.86 592.82 1086.65 610.87 C 1087.57 615.55 1089.12 620.18 1088.94 625.02 C 1089.21 634.93 1088.70 645.26 1084.28 654.34 C 1082.02 658.82 1078.39 662.99 1073.46 664.52 C 1059.63 668.68 1043.67 664.78 1033.43 654.56 C 1026.81 648.25 1023.36 639.48 1020.88 630.87 C 1017.33 617.45 1015.18 603.66 1010.77 590.48 C 1008.32 582.53 1004.42 575.13 1001.94 567.20 C 993.95 543.16 989.19 517.48 974.96 496.04 C 955.56 460.97 930.21 429.76 905.39 398.48 C 889.64 379.90 870.81 364.06 850.81 350.26 C 835.91 341.13 819.92 333.92 803.80 327.23 C 781.83 318.29 758.96 311.76 735.89 306.38 C 722.71 303.24 709.16 302.30 695.82 300.05 C 676.35 296.98 656.80 294.34 637.10 293.31 C 613.17 290.85 588.95 291.00 565.09 294.16 C 544.11 299.09 522.18 300.73 502.15 309.20 C 482.43 317.49 463.28 327.12 444.72 337.76 C 412.75 355.62 383.43 377.91 356.08 402.17 C 350.30 407.36 344.99 413.04 339.86 418.86 C 327.64 432.17 316.02 446.15 306.61 461.62 C 295.83 478.84 287.84 497.56 278.54 515.58 C 271.79 529.90 263.86 544.09 261.41 559.93 C 259.12 570.15 257.07 580.42 255.42 590.76 C 253.69 601.51 252.03 612.37 252.47 623.28 C 252.71 634.53 252.42 645.77 252.21 657.02 C 251.16 668.04 252.45 679.09 252.95 690.11 C 253.26 705.66 258.10 720.56 261.71 735.55 C 265.29 754.18 270.48 772.48 276.50 790.46 C 279.30 798.86 282.40 807.22 286.99 814.82 C 302.09 847.29 322.41 877.83 349.44 901.59 C 371.75 921.57 398.22 936.25 425.48 948.32 C 440.72 954.43 456.52 958.93 472.26 963.53 C 482.42 966.09 492.33 969.76 502.78 971.05 C 533.26 975.75 564.15 977.71 594.98 977.14 C 620.40 975.76 646.10 973.40 670.47 965.58 C 689.13 959.02 707.29 951.12 725.46 943.31 C 736.67 938.94 746.68 932.16 756.98 926.06 C 764.31 921.80 770.90 916.44 778.19 912.14 C 783.89 908.61 789.87 905.38 794.80 900.78 C 799.97 895.95 805.40 891.39 810.43 886.41 C 819.57 876.96 826.06 865.42 834.21 855.17 C 840.51 847.55 844.37 838.34 848.24 829.33 C 853.73 816.10 860.22 803.07 862.87 788.87 C 864.25 778.98 864.34 768.97 865.23 759.03 C 865.20 749.67 864.91 740.23 863.18 731.01 C 860.36 715.14 860.62 698.94 858.24 683.02 C 856.66 671.87 853.58 661.02 851.03 650.07 C 846.55 631.94 841.52 613.94 836.02 596.09 C 828.61 567.82 810.62 543.97 792.08 521.98 C 781.20 508.49 767.72 497.39 753.70 487.32 C 735.86 474.67 716.57 463.99 696.19 456.04 C 688.92 453.67 681.52 451.74 674.12 449.85 C 662.81 447.37 651.59 444.17 639.97 443.57 C 633.26 443.41 626.58 442.29 619.87 442.88 C 604.36 444.18 588.65 444.41 573.49 448.31 C 553.25 451.87 533.66 458.83 515.67 468.76 C 506.31 473.91 497.36 479.77 488.16 485.20 C 476.23 492.08 464.78 500.19 455.66 510.61 C 448.82 518.96 443.98 528.74 437.20 537.15 C 425.23 553.39 415.13 571.08 407.79 589.89 C 401.30 605.79 398.70 623.00 397.76 640.06 C 397.05 660.09 398.99 680.15 402.61 699.84 C 405.36 710.11 406.93 720.68 410.07 730.84 C 417.24 747.04 424.40 763.54 435.63 777.44 C 445.27 789.33 455.75 800.92 468.81 809.15 C 479.40 816.01 490.85 821.55 502.86 825.44 C 515.96 831.91 530.71 834.04 545.16 834.92 C 558.80 836.44 572.49 834.53 586.04 833.03 C 603.26 829.96 620.37 825.64 636.29 818.26 C 647.86 812.68 660.20 808.75 671.40 802.41 C 677.89 798.78 683.44 793.80 689.02 788.94 C 694.20 784.15 699.60 779.49 703.79 773.77 C 706.55 769.34 707.87 764.21 709.32 759.25 C 712.19 748.78 713.88 737.89 713.30 727.02 C 712.74 710.13 715.56 692.82 710.67 676.34 C 706.03 659.57 700.45 642.71 690.90 628.03 C 681.20 614.85 666.94 605.95 652.79 598.21 C 641.79 591.89 629.20 589.25 616.91 586.63 C 605.32 584.29 593.25 581.83 581.51 584.63 C 568.08 587.69 555.67 595.40 547.32 606.39 C 538.49 617.16 530.60 629.76 529.69 644.01 C 529.00 651.88 532.20 659.28 534.63 666.59 C 538.35 676.41 543.47 686.59 552.78 692.20 C 559.94 696.90 568.77 697.41 577.07 697.46 C 590.50 700.07 604.16 698.40 617.69 697.89 C 621.70 697.74 626.00 697.50 629.71 699.29 C 639.62 704.94 645.14 717.35 642.66 728.50 C 641.22 733.72 640.41 739.40 636.76 743.67 C 630.30 751.59 619.61 753.89 609.97 755.07 C 601.67 755.82 593.37 757.18 585.03 756.68 C 572.53 756.06 560.11 754.21 547.94 751.33 C 539.93 749.44 531.84 747.39 524.54 743.49 C 515.14 737.82 507.35 729.98 499.12 722.81 C 493.31 717.75 489.47 710.95 485.62 704.38 C 480.08 694.67 474.89 684.51 472.75 673.44 C 470.66 663.07 468.85 652.49 469.51 641.88 C 469.89 634.32 472.30 627.10 473.97 619.77 C 477.15 603.34 484.89 588.10 494.38 574.45 C 496.88 570.65 500.33 567.65 503.49 564.44 C 515.90 552.35 529.12 540.45 545.16 533.42 C 552.72 529.89 561.01 528.32 569.21 527.06 C 580.72 525.42 592.40 524.95 604.01 525.70 C 618.01 527.17 632.07 528.47 645.87 531.29 C 656.23 533.38 666.02 537.43 675.94 540.92 C 691.30 546.43 705.78 554.40 718.74 564.28 C 728.82 572.47 737.76 582.02 745.51 592.42 C 749.23 597.54 752.95 602.75 755.46 608.60 C 768.80 636.84 777.14 667.50 779.07 698.71 C 780.07 716.78 779.44 734.95 777.02 752.90 C 776.45 759.53 775.36 766.13 773.29 772.46 C 768.10 787.85 760.67 802.67 749.98 814.99 C 743.12 823.14 734.68 829.69 726.48 836.40 C 717.75 843.36 707.88 848.63 698.24 854.18 C 678.74 864.59 658.79 874.55 637.42 880.54 C 618.46 888.17 597.76 888.35 577.93 892.20 C 561.97 894.25 545.83 893.28 529.88 891.66 C 510.61 889.49 491.32 885.93 473.17 878.93 C 444.77 867.74 419.01 850.14 397.60 828.45 C 388.52 819.14 381.73 807.95 375.13 796.83 C 363.46 778.88 356.63 758.30 351.62 737.62 C 349.95 731.44 349.18 725.04 347.04 719.00 C 344.36 711.77 343.50 704.06 342.26 696.50 C 341.14 688.67 339.58 680.91 338.74 673.04 C 337.89 650.63 339.14 628.16 342.66 606.00 C 344.61 592.93 347.41 579.96 351.52 567.39 C 353.65 560.65 357.50 554.66 360.24 548.18 C 363.73 540.84 366.75 533.21 371.31 526.44 C 380.60 513.03 388.96 498.93 399.69 486.57 C 409.20 474.91 418.45 462.70 430.68 453.71 C 446.15 441.10 462.54 429.58 479.95 419.81 C 494.28 411.52 509.19 404.29 524.07 397.06 C 545.18 387.85 567.81 381.01 591.05 381.34 C 603.06 381.13 615.04 382.22 627.05 382.16 C 651.08 382.66 674.43 388.89 698.08 392.47 C 715.64 395.49 732.42 401.62 749.49 406.54 C 764.43 411.18 777.38 420.22 790.51 428.44 C 803.66 437.07 816.14 446.70 827.92 457.11 C 840.03 466.21 850.80 477.05 859.76 489.26 C 865.84 497.31 871.29 505.82 876.78 514.27 C 882.29 522.53 885.84 531.86 890.23 540.72 C 895.48 552.78 901.36 564.72 904.31 577.62 C 907.02 588.63 910.63 599.42 912.69 610.59 C 917.87 637.99 924.05 665.22 927.67 692.89 C 929.41 705.16 930.58 717.51 931.85 729.84 C 933.20 741.92 932.08 754.07 931.39 766.15 C 930.24 779.51 928.72 792.85 926.48 806.08 C 924.83 816.03 921.40 825.57 917.96 835.02 C 901.79 879.08 873.22 918.23 837.17 948.14 C 828.44 955.48 819.71 962.89 810.04 969.00 C 796.22 977.68 782.25 986.14 768.01 994.11 C 748.05 1005.16 727.09 1014.30 705.84 1022.57 C 693.80 1026.52 681.73 1030.43 669.48 1033.70 C 662.65 1035.23 655.94 1037.56 648.90 1037.92 C 621.67 1040.47 594.34 1042.45 566.97 1041.77 C 521.00 1040.52 475.90 1029.90 431.94 1017.08 C 419.70 1013.69 408.12 1008.41 396.42 1003.56 C 384.67 998.28 372.59 993.51 361.81 986.37 C 351.98 979.89 342.18 973.32 332.98 965.96 C 323.73 959.74 315.39 952.31 307.13 944.87 C 288.08 926.85 269.96 907.70 254.47 886.50 C 245.22 869.93 235.10 853.77 227.31 836.42 C 225.63 831.72 223.53 827.20 221.47 822.66 C 213.72 804.74 208.05 786.01 201.71 767.58 C 197.47 742.83 188.15 719.13 185.70 694.04 C 185.76 684.99 184.76 675.99 183.38 667.05 C 182.58 662.05 183.89 657.06 183.83 652.05 C 183.89 636.65 183.29 621.10 186.10 605.88 C 188.29 593.50 193.15 581.70 194.41 569.14 C 195.04 560.22 199.24 552.16 201.88 543.75 C 204.62 537.03 206.17 529.90 209.31 523.35 C 213.58 512.52 216.67 501.21 221.85 490.75 C 232.91 469.03 243.22 446.87 256.26 426.23 C 268.83 406.04 284.80 388.28 300.33 370.37 C 311.01 358.34 325.53 350.90 337.46 340.32 C 344.31 334.21 350.71 327.31 359.07 323.22 C 362.87 321.49 366.05 318.76 369.46 316.41 C 383.10 307.16 398.29 300.43 411.63 290.69 C 438.14 276.87 465.36 264.39 493.02 253.03 C 509.00 247.37 525.78 244.57 542.19 240.47 C 545.27 239.74 548.25 238.50 551.42 238.10 C 563.59 237.12 575.54 234.46 587.66 233.05 Z" />
</g>
</svg>
