<?xml version="1.0" encoding="UTF-8" ?>
<!DOCTYPE svg PUBLIC "-//W3C//DTD SVG 1.1//EN" "http://www.w3.org/Graphics/SVG/1.1/DTD/svg11.dtd">
<svg width="1276pt" height="1276pt" viewBox="0 0 1276 1276" version="1.1" xmlns="http://www.w3.org/2000/svg">
<g id="#00a041ff">
<path fill="#00a041" opacity="1.00" d=" M 605.50 129.79 C 624.40 127.00 643.92 128.23 662.24 133.67 C 694.78 143.10 722.89 163.62 746.74 187.17 C 775.61 216.26 799.04 250.31 818.96 286.01 C 855.06 351.19 880.22 422.00 897.76 494.28 C 909.17 542.21 916.95 591.03 920.48 640.19 C 723.50 640.20 526.52 640.19 329.55 640.19 C 330.55 635.52 330.21 630.69 330.77 625.97 C 338.89 536.95 359.82 449.04 393.15 366.08 C 408.46 328.38 426.44 291.66 448.28 257.28 C 464.77 231.43 483.42 206.78 505.37 185.31 C 519.13 171.85 534.21 159.60 550.87 149.86 C 567.67 139.99 586.17 132.67 605.50 129.79 Z" />
<path fill="#00a041" opacity="1.00" d=" M 320.42 696.20 C 523.50 696.28 726.58 696.21 929.66 696.24 C 929.56 740.75 917.93 785.28 895.85 823.97 C 877.14 856.83 851.16 885.28 821.10 908.11 C 789.28 932.38 753.11 950.78 715.07 963.09 C 694.93 969.64 674.18 974.33 653.16 976.92 C 653.27 990.40 653.15 1003.89 653.22 1017.37 C 694.58 1029.70 735.54 1043.39 776.18 1057.93 C 815.70 1072.26 854.92 1087.49 893.27 1104.73 C 922.92 1118.00 952.11 1132.41 979.92 1149.23 C 960.89 1156.84 941.67 1163.95 922.61 1171.46 C 909.15 1176.46 895.90 1181.98 882.37 1186.78 C 814.36 1142.32 741.41 1105.88 666.83 1073.85 C 583.77 1038.52 498.32 1008.91 411.42 984.56 C 373.05 973.90 334.42 964.17 295.42 956.14 C 295.39 948.51 295.50 940.88 295.35 933.25 C 397.12 949.49 497.63 972.87 596.82 1000.70 C 596.89 992.76 596.77 984.83 596.89 976.90 C 568.54 973.44 540.74 966.01 514.17 955.64 C 459.06 934.02 408.21 899.16 372.45 851.55 C 338.78 807.26 320.59 751.75 320.42 696.20 Z" />
</g>
</svg>
