<?xml version="1.0" encoding="UTF-8" ?>
<!DOCTYPE svg PUBLIC "-//W3C//DTD SVG 1.1//EN" "http://www.w3.org/Graphics/SVG/1.1/DTD/svg11.dtd">
<svg width="1276pt" height="1276pt" viewBox="0 0 1276 1276" version="1.1" xmlns="http://www.w3.org/2000/svg">
<g id="#e6eef9ff">
<path fill="#e6eef9" opacity="1.00" d=" M 410.47 185.22 C 419.55 180.00 431.27 179.86 440.53 184.71 C 450.91 189.98 457.93 201.29 457.77 212.96 C 457.76 232.94 457.79 252.91 457.78 272.88 C 471.91 272.88 486.05 272.87 500.19 272.88 C 500.18 252.57 500.33 232.27 500.31 211.96 C 500.40 195.40 515.44 180.83 531.98 181.21 C 548.61 180.65 563.88 195.30 563.89 211.95 C 563.75 232.26 564.22 252.55 564.09 272.86 C 578.21 272.92 592.33 272.84 606.46 272.90 C 606.49 252.58 606.41 232.27 606.50 211.96 C 606.70 197.20 618.55 183.76 633.12 181.58 C 642.77 179.99 653.06 183.03 660.12 189.83 C 666.78 195.95 670.47 205.00 670.24 214.02 C 670.10 233.63 670.42 253.24 670.30 272.85 C 684.38 272.90 698.47 272.89 712.56 272.85 C 712.47 252.59 712.72 232.32 712.66 212.06 C 712.79 195.28 728.17 180.47 744.98 181.21 C 761.14 180.98 775.69 195.01 776.32 211.10 C 776.40 231.68 776.40 252.27 776.36 272.85 C 790.50 272.89 804.65 272.90 818.80 272.85 C 818.71 252.56 818.87 232.28 818.87 211.99 C 819.16 198.31 829.25 185.67 842.48 182.25 C 851.45 179.86 861.51 181.52 869.05 187.02 C 877.40 192.81 882.68 202.80 882.58 212.99 C 882.54 232.95 882.67 252.92 882.66 272.89 C 895.77 273.00 909.02 272.24 921.97 274.77 C 948.94 279.86 973.40 296.59 988.03 319.79 C 997.38 334.45 1002.85 351.56 1003.66 368.93 C 1003.84 377.36 1003.71 385.80 1003.74 394.23 C 1022.84 394.19 1041.93 394.24 1061.03 394.21 C 1068.39 393.80 1075.96 395.57 1081.99 399.94 C 1092.74 407.26 1098.07 421.55 1094.57 434.11 C 1091.20 447.66 1078.03 458.07 1064.00 457.83 C 1043.92 457.81 1023.84 457.91 1003.76 457.88 C 1003.72 472.00 1003.77 486.12 1003.74 500.24 C 1022.47 500.19 1041.20 500.46 1059.94 500.35 C 1067.64 499.89 1075.63 501.48 1081.95 506.08 C 1092.90 513.54 1098.23 528.18 1094.41 540.91 C 1090.90 553.87 1078.47 563.67 1065.05 564.06 C 1044.61 564.17 1024.17 564.11 1003.74 564.16 C 1003.73 578.27 1003.79 592.38 1003.71 606.49 C 1024.14 606.53 1044.57 606.59 1064.99 606.60 C 1081.38 606.84 1095.82 621.58 1095.60 638.00 C 1096.26 654.70 1081.71 670.01 1065.01 670.27 C 1044.58 670.25 1024.14 670.39 1003.71 670.43 C 1003.77 684.48 1003.77 698.54 1003.71 712.60 C 1024.11 712.66 1044.50 712.72 1064.90 712.75 C 1081.60 712.99 1096.22 728.25 1095.60 744.97 C 1095.83 761.41 1081.37 776.22 1064.94 776.43 C 1044.53 776.43 1024.13 776.52 1003.73 776.49 C 1003.76 790.60 1003.74 804.71 1003.74 818.82 C 1017.82 818.68 1031.90 819.05 1045.98 818.92 C 1056.37 819.47 1067.44 817.23 1077.18 821.95 C 1088.90 827.23 1096.62 840.16 1095.53 853.01 C 1094.81 865.93 1085.32 877.72 1072.92 881.35 C 1067.46 883.14 1061.66 882.60 1056.02 882.67 C 1038.59 882.64 1021.16 882.74 1003.73 882.73 C 1003.57 896.79 1004.66 911.08 1001.36 924.90 C 994.10 958.94 967.86 988.05 934.75 998.80 C 918.07 1004.72 900.12 1004.38 882.69 1003.90 C 882.59 1024.50 882.64 1045.11 882.54 1065.72 C 881.95 1082.27 866.60 1096.48 850.04 1095.68 C 833.68 1095.73 819.16 1081.29 818.88 1064.98 C 818.89 1044.71 818.67 1024.43 818.83 1004.16 C 804.71 1003.80 790.55 1004.22 776.42 1004.12 C 776.50 1024.08 776.39 1044.04 776.43 1064.00 C 776.45 1072.97 772.37 1081.81 765.62 1087.70 C 757.77 1094.78 746.28 1097.44 736.12 1094.57 C 722.70 1091.02 712.54 1077.94 712.69 1064.01 C 712.78 1044.05 712.53 1024.09 712.61 1004.13 C 698.51 1004.04 684.41 1004.08 670.31 1004.12 C 670.45 1020.08 670.13 1036.05 670.23 1052.01 C 670.07 1060.23 671.16 1068.89 667.55 1076.58 C 662.29 1089.02 648.53 1097.16 635.07 1095.53 C 622.50 1094.39 611.29 1084.97 607.79 1072.88 C 605.93 1067.07 606.61 1060.93 606.49 1054.95 C 606.56 1038.03 606.34 1021.11 606.54 1004.19 C 592.40 1004.05 578.21 1004.01 564.09 1004.16 C 564.25 1020.75 564.03 1037.35 564.10 1053.95 C 564.01 1060.44 564.62 1067.12 562.57 1073.40 C 559.68 1082.55 552.49 1090.24 543.48 1093.62 C 533.64 1097.43 521.86 1095.94 513.41 1089.55 C 505.04 1083.58 499.97 1073.31 500.33 1063.03 C 500.48 1043.41 500.10 1023.80 500.28 1004.19 C 486.13 1004.01 471.87 1003.96 457.72 1004.19 C 457.86 1021.47 457.72 1038.76 457.77 1056.04 C 457.68 1061.52 458.23 1067.13 456.63 1072.46 C 453.97 1081.98 446.67 1090.04 437.43 1093.57 C 428.07 1097.23 416.94 1096.13 408.58 1090.49 C 399.81 1084.83 394.00 1074.61 394.16 1064.11 C 394.18 1044.12 394.12 1024.13 394.14 1004.14 C 378.43 1003.95 362.39 1004.93 347.13 1000.43 C 313.66 991.61 285.97 964.27 276.66 930.94 C 271.82 915.33 272.67 898.86 272.76 882.74 C 252.50 882.69 232.24 882.67 211.98 882.66 C 196.86 882.56 183.12 870.11 181.38 855.13 C 179.98 845.22 183.54 834.77 190.86 827.93 C 196.90 821.89 205.46 818.82 213.93 818.92 C 233.54 819.10 253.14 818.77 272.75 818.79 C 272.69 804.74 272.64 790.68 272.78 776.64 C 252.55 776.58 232.33 776.49 212.10 776.50 C 196.63 776.44 182.59 763.45 181.28 748.05 C 180.11 738.15 183.99 727.91 191.38 721.24 C 197.17 715.81 205.06 712.77 212.99 712.78 C 232.91 712.82 252.82 712.72 272.74 712.72 C 272.66 698.61 272.71 684.50 272.72 670.39 C 252.79 670.47 232.86 670.19 212.93 670.30 C 202.06 670.39 191.47 664.42 185.82 655.16 C 178.85 644.22 179.68 628.97 187.83 618.87 C 193.74 611.22 203.30 606.48 213.00 606.57 C 232.93 606.63 252.85 606.52 272.78 606.48 C 272.64 592.39 272.67 578.30 272.77 564.21 C 252.15 564.03 231.52 564.31 210.90 564.07 C 195.33 563.37 181.63 549.66 181.16 534.04 C 180.09 520.31 189.21 506.74 202.18 502.28 C 208.51 499.80 215.40 500.51 222.04 500.42 C 238.95 500.49 255.85 500.27 272.76 500.29 C 272.51 486.13 272.99 471.95 272.51 457.81 C 252.34 458.01 232.16 457.72 211.98 457.81 C 195.33 457.87 180.59 442.64 181.12 426.01 C 180.67 409.74 194.76 394.85 211.00 394.27 C 231.58 394.14 252.17 394.28 272.75 394.19 C 272.67 386.49 272.69 378.79 272.74 371.09 C 273.34 345.76 284.01 320.82 301.95 302.91 C 317.14 287.43 337.49 277.16 358.94 274.03 C 370.60 272.36 382.41 273.05 394.14 272.83 C 394.11 252.89 394.18 232.94 394.16 212.99 C 393.89 201.65 400.59 190.65 410.47 185.22 M 372.21 380.23 C 361.91 392.30 356.09 408.12 356.25 424.01 C 356.27 464.87 356.19 505.73 356.29 546.59 C 356.18 648.72 356.27 750.85 356.24 852.97 C 356.00 872.68 365.11 892.22 380.28 904.79 C 390.66 913.59 403.79 918.89 417.30 920.33 C 417.00 920.70 416.42 921.43 416.13 921.80 C 441.07 922.28 466.04 921.84 491.00 921.98 C 612.67 922.03 734.33 921.99 856.00 922.00 C 857.69 921.91 859.51 922.14 861.08 921.32 C 860.49 921.09 859.32 920.62 858.73 920.39 C 873.24 918.92 887.36 913.02 898.13 903.10 C 912.18 890.53 920.38 871.83 920.29 852.99 C 920.29 750.89 920.30 648.79 920.29 546.68 C 920.28 508.79 920.29 470.90 920.28 433.00 C 920.24 427.01 920.53 420.99 919.69 415.04 C 917.71 399.56 910.11 384.87 898.59 374.34 C 886.37 362.91 869.71 356.44 852.99 356.48 C 709.67 356.48 566.36 356.48 423.04 356.48 C 403.72 356.53 384.64 365.43 372.21 380.23 Z" />
<path fill="#e6eef9" opacity="1.00" d=" M 486.73 519.00 C 487.12 501.72 502.75 486.70 520.04 486.96 C 598.70 486.88 677.36 486.90 756.02 486.95 C 769.90 486.73 783.20 496.05 787.77 509.14 C 790.26 515.47 789.71 522.37 789.75 529.02 C 789.76 562.15 789.72 595.28 789.77 628.41 C 789.69 671.61 789.83 714.82 789.70 758.02 C 789.36 775.47 773.42 790.48 756.02 790.07 C 679.69 790.15 603.35 790.07 527.02 790.11 C 520.46 790.21 513.67 790.20 507.55 787.51 C 495.36 782.65 486.75 770.13 486.69 756.99 C 486.62 714.10 486.71 671.21 486.65 628.32 C 486.74 591.88 486.56 555.44 486.73 519.00 M 536.31 512.34 C 522.79 513.90 511.68 526.41 511.83 540.04 C 511.76 605.36 511.90 670.68 511.85 736.00 C 511.54 747.13 518.42 757.98 528.64 762.41 C 533.43 764.69 538.82 765.00 544.04 764.85 C 606.70 764.84 669.36 764.84 732.02 764.85 C 737.28 764.98 742.73 764.77 747.60 762.53 C 757.91 758.15 764.96 747.23 764.58 736.01 C 764.52 670.65 764.70 605.28 764.60 539.92 C 764.67 528.21 756.47 517.16 745.38 513.55 C 739.49 511.43 733.15 512.35 727.04 512.16 C 663.46 512.28 599.87 511.91 536.31 512.34 Z" />
</g>
<g id="#abb4c4ff">
<path fill="#abb4c4" opacity="1.00" d=" M 372.21 380.23 C 384.64 365.43 403.72 356.53 423.04 356.48 C 566.36 356.48 709.67 356.48 852.99 356.48 C 869.71 356.44 886.37 362.91 898.59 374.34 C 910.11 384.87 917.71 399.56 919.69 415.04 C 920.53 420.99 920.24 427.01 920.28 433.00 C 920.29 470.90 920.28 508.79 920.29 546.68 C 882.42 581.76 837.94 609.81 789.77 628.41 C 789.72 595.28 789.76 562.15 789.75 529.02 C 789.71 522.37 790.26 515.47 787.77 509.14 C 783.20 496.05 769.90 486.73 756.02 486.95 C 677.36 486.90 598.70 486.88 520.04 486.96 C 502.75 486.70 487.12 501.72 486.73 519.00 C 486.56 555.44 486.74 591.88 486.65 628.32 C 456.39 616.80 427.71 601.22 401.11 582.80 C 385.39 571.75 370.15 559.92 356.29 546.59 C 356.19 505.73 356.27 464.87 356.25 424.01 C 356.09 408.12 361.91 392.30 372.21 380.23 Z" />
</g>
<g id="#ffc400ff">
<path fill="#ffc400" opacity="1.00" d=" M 536.31 512.34 C 599.87 511.91 663.46 512.28 727.04 512.16 C 733.15 512.35 739.49 511.43 745.38 513.55 C 756.47 517.16 764.67 528.21 764.60 539.92 C 764.70 605.28 764.52 670.65 764.58 736.01 C 764.96 747.23 757.91 758.15 747.60 762.53 C 742.73 764.77 737.28 764.98 732.02 764.85 C 669.36 764.84 606.70 764.84 544.04 764.85 C 538.82 765.00 533.43 764.69 528.64 762.41 C 518.42 757.98 511.54 747.13 511.85 736.00 C 511.90 670.68 511.76 605.36 511.83 540.04 C 511.68 526.41 522.79 513.90 536.31 512.34 Z" />
</g>
<g id="#707b8fff">
<path fill="#707b8f" opacity="1.00" d=" M 356.29 546.59 C 370.15 559.92 385.39 571.75 401.11 582.80 C 427.71 601.22 456.39 616.80 486.65 628.32 C 486.71 671.21 486.62 714.10 486.69 756.99 C 486.75 770.13 495.36 782.65 507.55 787.51 C 513.67 790.20 520.46 790.21 527.02 790.11 C 603.35 790.07 679.69 790.15 756.02 790.07 C 773.42 790.48 789.36 775.47 789.70 758.02 C 789.83 714.82 789.69 671.61 789.77 628.41 C 837.94 609.81 882.42 581.76 920.29 546.68 C 920.30 648.79 920.29 750.89 920.29 852.99 C 920.38 871.83 912.18 890.53 898.13 903.10 C 887.36 913.02 873.24 918.92 858.73 920.39 C 806.14 920.83 753.55 920.46 700.96 920.58 C 634.30 920.58 567.64 920.58 500.97 920.58 C 473.08 920.42 445.18 920.91 417.30 920.33 C 403.79 918.89 390.66 913.59 380.28 904.79 C 365.11 892.22 356.00 872.68 356.24 852.97 C 356.27 750.85 356.18 648.72 356.29 546.59 Z" />
</g>
<g id="#f9ffffff">
<path fill="#f9ffff" opacity="1.00" d=" M 416.13 921.80 C 416.42 921.43 417.00 920.70 417.30 920.33 C 445.18 920.91 473.08 920.42 500.97 920.58 C 567.64 920.58 634.30 920.58 700.96 920.58 C 753.55 920.46 806.14 920.83 858.73 920.39 C 859.32 920.62 860.49 921.09 861.08 921.32 C 859.51 922.14 857.69 921.91 856.00 922.00 C 734.33 921.99 612.67 922.03 491.00 921.98 C 466.04 921.84 441.07 922.28 416.13 921.80 Z" />
</g>
</svg>
