<?xml version="1.0" encoding="UTF-8" ?>
<!DOCTYPE svg PUBLIC "-//W3C//DTD SVG 1.1//EN" "http://www.w3.org/Graphics/SVG/1.1/DTD/svg11.dtd">
<svg width="1276pt" height="1276pt" viewBox="0 0 1276 1276" version="1.1" xmlns="http://www.w3.org/2000/svg">
<g id="#f06d41ff">
<path fill="#f06d41" opacity="1.00" d=" M 180.63 257.96 L 181.27 258.61 C 185.43 263.15 189.93 267.35 194.18 271.80 C 196.41 273.94 195.87 277.26 196.07 280.05 C 195.99 290.76 196.36 301.46 196.03 312.16 C 192.30 305.48 186.25 300.49 180.49 295.62 C 180.57 283.07 180.27 270.51 180.63 257.96 Z" />
</g>
<g id="#f58643ff">
<path fill="#f58643" opacity="1.00" d=" M 181.27 258.61 C 231.02 258.31 280.78 258.54 330.53 258.49 C 332.21 261.04 334.36 263.33 335.63 266.14 C 336.23 268.65 336.17 271.27 336.33 273.84 C 345.55 274.14 354.77 273.97 363.99 273.97 C 370.26 274.09 376.48 275.16 382.76 275.00 C 385.44 278.04 388.30 280.95 391.44 283.52 C 395.32 286.66 398.17 290.81 401.71 294.30 C 405.32 298.05 409.60 301.11 412.94 305.13 C 418.69 312.00 425.90 317.45 431.76 324.22 C 456.46 348.85 481.04 373.60 505.70 398.26 C 510.91 404.73 517.87 409.45 523.12 415.88 C 527.93 422.07 534.87 426.15 539.64 432.40 C 544.13 438.55 551.03 442.32 555.61 448.40 C 558.33 452.00 561.60 455.12 565.17 457.87 C 570.97 462.39 574.48 469.16 580.45 473.50 C 584.10 476.22 587.23 479.56 589.86 483.27 C 571.80 477.26 554.11 470.18 535.94 464.54 C 516.07 457.00 495.84 450.45 475.91 443.07 C 427.34 426.09 378.96 408.58 330.37 391.67 C 292.65 378.45 255.04 364.88 217.31 351.67 C 210.44 349.20 203.60 346.63 196.59 344.60 C 195.74 333.81 196.28 322.97 196.03 312.16 C 196.36 301.46 195.99 290.76 196.07 280.05 C 195.87 277.26 196.41 273.94 194.18 271.80 C 189.93 267.35 185.43 263.15 181.27 258.61 Z" />
</g>
<g id="#f6904bff">
<path fill="#f6904b" opacity="1.00" d=" M 330.53 258.49 C 393.34 258.47 456.16 258.47 518.98 258.48 C 518.82 263.55 518.83 268.63 519.14 273.69 C 552.43 273.87 585.73 274.01 619.02 273.92 C 652.32 273.91 685.63 274.43 718.93 274.18 C 719.66 274.16 721.12 274.12 721.85 274.10 L 720.45 274.67 C 715.70 275.57 710.86 275.28 706.06 275.28 C 688.97 275.26 671.89 275.27 654.80 275.25 C 564.12 275.51 473.44 274.68 382.76 275.00 C 376.48 275.16 370.26 274.09 363.99 273.97 C 354.77 273.97 345.55 274.14 336.33 273.84 C 336.17 271.27 336.23 268.65 335.63 266.14 C 334.36 263.33 332.21 261.04 330.53 258.49 Z" />
</g>
<g id="#f79954ff">
<path fill="#f79954" opacity="1.00" d=" M 518.98 258.48 C 552.30 258.48 585.63 258.47 618.95 258.48 C 619.01 263.63 619.04 268.77 619.02 273.92 C 585.73 274.01 552.43 273.87 519.14 273.69 C 518.83 268.63 518.82 263.55 518.98 258.48 Z" />
</g>
<g id="#f8a05dff">
<path fill="#f8a05d" opacity="1.00" d=" M 618.95 258.48 C 652.31 258.48 685.67 258.47 719.02 258.48 C 719.02 263.71 718.98 268.95 718.93 274.18 C 685.63 274.43 652.32 273.91 619.02 273.92 C 619.04 268.77 619.01 263.63 618.95 258.48 Z" />
</g>
<g id="#f8a563ff">
<path fill="#f8a563" opacity="1.00" d=" M 719.02 258.48 C 734.35 258.48 749.69 258.47 765.02 258.48 C 765.14 263.57 765.14 268.66 764.88 273.75 C 750.54 274.05 736.17 273.28 721.85 274.10 C 721.12 274.12 719.66 274.16 718.93 274.18 C 718.98 268.95 719.02 263.71 719.02 258.48 Z" />
</g>
<g id="#f9ab6cff">
<path fill="#f9ab6c" opacity="1.00" d=" M 765.02 258.48 C 801.01 258.48 837.00 258.47 873.00 258.48 C 872.90 263.53 872.89 268.59 873.14 273.64 C 883.86 274.25 894.70 272.85 905.34 274.64 C 843.71 274.91 782.08 274.26 720.45 274.67 L 721.85 274.10 C 736.17 273.28 750.54 274.05 764.88 273.75 C 765.14 268.66 765.14 263.57 765.02 258.48 Z" />
</g>
<g id="#fab174ff">
<path fill="#fab174" opacity="1.00" d=" M 873.00 258.48 C 885.85 258.74 898.86 257.76 911.60 259.42 C 913.12 261.21 914.88 262.95 915.68 265.21 C 916.16 268.05 915.84 270.96 916.23 273.81 C 917.28 274.97 918.83 275.51 920.22 276.19 C 915.26 275.60 910.27 275.37 905.34 274.64 C 894.70 272.85 883.86 274.25 873.14 273.64 C 872.89 268.59 872.90 263.53 873.00 258.48 Z" />
</g>
<g id="#fab47bff">
<path fill="#fab47b" opacity="1.00" d=" M 911.60 259.42 C 924.60 260.04 937.44 262.77 949.97 266.24 C 961.76 269.57 973.26 274.03 984.16 279.67 C 984.05 284.58 983.99 289.49 983.88 294.41 C 982.32 294.63 980.75 294.86 979.21 295.11 C 960.67 285.79 940.78 279.14 920.22 276.19 C 918.83 275.51 917.28 274.97 916.23 273.81 C 915.84 270.96 916.16 268.05 915.68 265.21 C 914.88 262.95 913.12 261.21 911.60 259.42 Z" />
</g>
<g id="#f68d45ff">
<path fill="#f68d45" opacity="1.00" d=" M 382.76 275.00 C 473.44 274.68 564.12 275.51 654.80 275.25 C 658.40 279.33 662.63 282.76 666.64 286.40 C 670.63 290.71 674.22 295.42 678.85 299.11 C 683.74 302.89 687.29 308.02 691.71 312.30 C 695.04 315.64 698.85 318.50 701.94 322.10 C 707.79 328.89 714.70 334.66 720.76 341.26 C 734.55 355.11 748.46 368.85 762.19 382.76 C 767.64 388.67 773.91 393.77 779.16 399.87 C 783.93 405.73 790.44 409.88 795.12 415.85 C 799.44 421.51 805.67 425.27 810.17 430.78 C 816.10 438.52 824.72 443.62 830.34 451.66 C 832.78 454.54 835.92 456.67 838.70 459.18 C 843.71 463.56 847.01 469.59 852.43 473.54 C 856.29 476.35 859.47 479.92 862.38 483.68 C 866.27 488.77 872.11 491.88 876.09 496.89 C 879.03 500.56 882.15 504.13 885.88 507.04 C 892.38 511.88 896.36 519.26 902.91 524.06 C 908.00 527.64 911.25 533.05 915.75 537.25 C 917.54 539.02 919.26 540.86 920.97 542.73 C 914.95 542.80 908.98 543.67 902.98 543.74 C 861.66 543.76 820.35 543.81 779.04 543.75 C 773.57 543.61 768.11 543.77 762.66 544.13 C 755.08 542.05 747.80 539.05 740.38 536.48 C 721.53 529.89 702.82 522.91 683.88 516.58 C 652.56 505.43 621.20 494.37 589.86 483.27 C 587.23 479.56 584.10 476.22 580.45 473.50 C 574.48 469.16 570.97 462.39 565.17 457.87 C 561.60 455.12 558.33 452.00 555.61 448.40 C 551.03 442.32 544.13 438.55 539.64 432.40 C 534.87 426.15 527.93 422.07 523.12 415.88 C 517.87 409.45 510.91 404.73 505.70 398.26 C 481.04 373.60 456.46 348.85 431.76 324.22 C 425.90 317.45 418.69 312.00 412.94 305.13 C 409.60 301.11 405.32 298.05 401.71 294.30 C 398.17 290.81 395.32 286.66 391.44 283.52 C 388.30 280.95 385.44 278.04 382.76 275.00 Z" />
</g>
<g id="#f79646ff">
<path fill="#f79646" opacity="1.00" d=" M 654.80 275.25 C 671.89 275.27 688.97 275.26 706.06 275.28 C 710.86 275.28 715.70 275.57 720.45 274.67 C 782.08 274.26 843.71 274.91 905.34 274.64 C 910.27 275.37 915.26 275.60 920.22 276.19 C 940.78 279.14 960.67 285.79 979.21 295.11 C 993.62 302.89 1007.10 312.37 1019.14 323.50 C 1034.85 338.12 1047.73 355.60 1057.70 374.57 C 1069.64 398.24 1076.46 424.45 1077.47 450.94 C 1077.67 482.30 1077.27 513.66 1077.68 545.02 C 1046.12 544.83 1014.56 544.80 982.99 544.73 C 970.83 544.95 958.65 544.17 946.52 545.10 C 933.03 544.35 919.50 544.92 906.00 544.74 C 895.84 544.98 885.65 544.17 875.53 545.25 C 858.70 544.27 841.83 544.93 824.98 544.73 C 804.96 544.65 784.93 544.76 764.91 544.61 C 764.35 544.49 763.23 544.25 762.66 544.13 C 768.11 543.77 773.57 543.61 779.04 543.75 C 820.35 543.81 861.66 543.76 902.98 543.74 C 908.98 543.67 914.95 542.80 920.97 542.73 C 919.26 540.86 917.54 539.02 915.75 537.25 C 911.25 533.05 908.00 527.64 902.91 524.06 C 896.36 519.26 892.38 511.88 885.88 507.04 C 882.15 504.13 879.03 500.56 876.09 496.89 C 872.11 491.88 866.27 488.77 862.38 483.68 C 859.47 479.92 856.29 476.35 852.43 473.54 C 847.01 469.59 843.71 463.56 838.70 459.18 C 835.92 456.67 832.78 454.54 830.34 451.66 C 824.72 443.62 816.10 438.52 810.17 430.78 C 805.67 425.27 799.44 421.51 795.12 415.85 C 790.44 409.88 783.93 405.73 779.16 399.87 C 773.91 393.77 767.64 388.67 762.19 382.76 C 748.46 368.85 734.55 355.11 720.76 341.26 C 714.70 334.66 707.79 328.89 701.94 322.10 C 698.85 318.50 695.04 315.64 691.71 312.30 C 687.29 308.02 683.74 302.89 678.85 299.11 C 674.22 295.42 670.63 290.71 666.64 286.40 C 662.63 282.76 658.40 279.33 654.80 275.25 Z" />
</g>
<g id="#fbb983ff">
<path fill="#fbb983" opacity="1.00" d=" M 984.16 279.67 C 996.94 285.98 1008.91 293.90 1020.00 302.84 C 1019.87 309.73 1020.61 316.70 1019.14 323.50 C 1007.10 312.37 993.62 302.89 979.21 295.11 C 980.75 294.86 982.32 294.63 983.88 294.41 C 983.99 289.49 984.05 284.58 984.16 279.67 Z" />
</g>
<g id="#eb6234ff">
<path fill="#eb6234" opacity="1.00" d=" M 180.49 295.62 C 186.25 300.49 192.30 305.48 196.03 312.16 C 196.28 322.97 195.74 333.81 196.59 344.60 C 194.76 345.64 192.91 346.66 191.07 347.67 C 187.83 343.71 184.71 339.56 180.50 336.55 C 180.46 322.91 180.46 309.26 180.49 295.62 Z" />
</g>
<g id="#fbbc88ff">
<path fill="#fbbc88" opacity="1.00" d=" M 1020.00 302.84 C 1037.24 316.76 1051.95 333.71 1063.70 352.49 C 1061.90 353.99 1059.05 355.16 1059.11 357.92 C 1058.77 363.48 1059.62 369.19 1057.70 374.57 C 1047.73 355.60 1034.85 338.12 1019.14 323.50 C 1020.61 316.70 1019.87 309.73 1020.00 302.84 Z" />
</g>
<g id="#e85b2bff">
<path fill="#e85b2b" opacity="1.00" d=" M 180.50 336.55 C 184.71 339.56 187.83 343.71 191.07 347.67 C 192.91 346.66 194.76 345.64 196.59 344.60 C 203.60 346.63 210.44 349.20 217.31 351.67 C 255.04 364.88 292.65 378.45 330.37 391.67 C 329.88 392.14 328.90 393.09 328.41 393.56 C 334.32 402.29 343.31 408.05 350.40 415.70 C 293.73 395.94 237.27 375.60 180.58 355.90 C 180.37 349.45 180.50 343.00 180.50 336.55 Z" />
<path fill="#e85b2b" opacity="1.00" d=" M 764.91 544.61 C 784.93 544.76 804.96 544.65 824.98 544.73 C 841.83 544.93 858.70 544.27 875.53 545.25 C 881.33 546.53 887.29 545.88 893.16 546.51 C 883.86 547.50 874.49 546.86 865.16 547.13 C 864.91 551.65 864.84 556.17 864.94 560.69 C 830.64 560.74 796.33 560.61 762.03 560.74 C 763.10 555.38 764.03 550.00 764.91 544.61 Z" />
<path fill="#e85b2b" opacity="1.00" d=" M 484.72 722.30 C 487.30 728.14 484.92 734.62 486.50 740.58 C 490.44 745.71 495.14 750.29 500.29 754.21 C 500.40 790.06 500.62 825.91 500.33 861.76 L 499.86 861.46 C 494.61 858.13 489.69 854.31 484.57 850.80 C 484.42 825.19 484.54 799.59 484.50 773.98 C 484.64 756.76 484.21 739.52 484.72 722.30 Z" />
</g>
<g id="#fbbf8eff">
<path fill="#fbbf8e" opacity="1.00" d=" M 1059.11 357.92 C 1059.05 355.16 1061.90 353.99 1063.70 352.49 C 1075.32 371.46 1084.02 392.26 1088.74 414.02 C 1091.57 426.81 1093.00 439.86 1093.53 452.94 C 1093.52 488.93 1093.51 524.93 1093.54 560.93 L 1093.30 560.71 C 1088.31 555.27 1083.07 550.05 1077.68 545.02 C 1077.27 513.66 1077.67 482.30 1077.47 450.94 C 1076.46 424.45 1069.64 398.24 1057.70 374.57 C 1059.62 369.19 1058.77 363.48 1059.11 357.92 Z" />
</g>
<g id="#eb6335ff">
<path fill="#eb6335" opacity="1.00" d=" M 330.37 391.67 C 378.96 408.58 427.34 426.09 475.91 443.07 C 495.84 450.45 516.07 457.00 535.94 464.54 C 541.51 474.02 552.40 478.92 557.49 488.68 C 544.91 484.87 532.68 479.92 520.21 475.77 C 463.63 455.68 406.95 435.84 350.40 415.70 C 343.31 408.05 334.32 402.29 328.41 393.56 C 328.90 393.09 329.88 392.14 330.37 391.67 Z" />
</g>
<g id="#ef6b3eff">
<path fill="#ef6b3e" opacity="1.00" d=" M 535.94 464.54 C 554.11 470.18 571.80 477.26 589.86 483.27 C 621.20 494.37 652.56 505.43 683.88 516.58 C 685.40 520.03 687.92 522.87 691.00 525.02 C 697.05 529.49 701.49 535.63 706.21 541.39 C 656.65 524.01 607.17 506.42 557.64 488.97 L 557.49 488.68 C 552.40 478.92 541.51 474.02 535.94 464.54 Z" />
</g>
<g id="#ef6a40ff">
<path fill="#ef6a40" opacity="1.00" d=" M 484.50 489.28 C 485.06 489.52 486.17 490.02 486.73 490.27 C 490.06 498.33 496.66 504.42 500.83 512.02 C 500.27 533.66 500.88 555.32 500.67 576.97 C 500.88 610.60 500.70 644.22 500.98 677.85 C 501.09 683.04 500.98 688.24 500.39 693.40 C 499.30 684.64 499.93 675.81 499.78 667.02 C 499.64 665.44 499.82 663.64 498.70 662.38 C 495.04 658.00 491.02 653.95 487.33 649.60 C 485.50 647.54 486.13 644.55 486.03 642.03 C 486.27 638.39 486.16 634.68 484.71 631.27 C 484.22 617.87 484.65 604.41 484.50 590.98 C 484.51 557.08 484.49 523.18 484.50 489.28 Z" />
</g>
<g id="#f6955dff">
<path fill="#f6955d" opacity="1.00" d=" M 486.73 490.27 C 503.86 495.58 520.52 502.30 537.58 507.84 L 537.85 508.28 C 542.00 515.51 548.36 521.11 554.71 526.37 C 556.56 527.86 557.40 530.14 558.37 532.23 C 539.03 525.96 520.06 518.61 500.83 512.02 C 496.66 504.42 490.06 498.33 486.73 490.27 Z" />
</g>
<g id="#f79f66ff">
<path fill="#f79f66" opacity="1.00" d=" M 537.85 508.28 C 560.71 515.85 583.31 524.23 606.06 532.16 C 605.60 532.51 604.68 533.19 604.22 533.54 C 610.18 540.03 616.77 545.92 622.73 552.42 C 622.21 552.90 621.17 553.87 620.65 554.35 C 599.87 547.03 579.08 539.73 558.37 532.23 C 557.40 530.14 556.56 527.86 554.71 526.37 C 548.36 521.11 542.00 515.51 537.85 508.28 Z" />
</g>
<g id="#f58342ff">
<path fill="#f58342" opacity="1.00" d=" M 500.83 512.02 C 520.06 518.61 539.03 525.96 558.37 532.23 C 579.08 539.73 599.87 547.03 620.65 554.35 C 634.09 559.00 647.41 564.03 660.91 568.51 C 671.88 572.44 682.84 576.41 693.85 580.22 C 702.58 583.12 711.17 586.44 719.88 589.39 L 719.91 589.72 C 719.27 609.82 719.84 629.94 719.68 650.05 C 719.70 673.02 719.73 696.00 719.75 718.97 C 719.69 723.83 719.68 728.70 720.15 733.55 C 719.20 749.00 719.97 764.50 719.79 779.98 C 719.65 793.11 720.24 806.22 720.21 819.35 L 720.13 820.30 C 724.91 820.37 729.70 820.48 734.48 820.17 C 756.46 820.63 778.46 820.16 800.45 820.52 L 800.45 820.98 C 799.73 831.98 800.32 843.02 800.17 854.04 C 800.28 902.98 800.43 951.92 800.37 1000.86 L 799.25 1001.31 C 798.50 993.04 799.87 984.64 798.58 976.46 C 795.00 971.75 790.23 968.09 786.25 963.72 C 780.28 957.36 773.75 951.56 767.82 945.18 C 762.58 938.76 755.61 934.07 750.42 927.60 C 745.98 922.02 739.80 918.19 735.29 912.68 C 730.23 905.76 722.56 901.43 717.49 894.53 C 713.42 888.94 707.13 885.59 702.84 880.21 C 699.75 876.31 696.47 872.53 692.47 869.55 C 686.32 865.01 682.72 857.94 676.54 853.45 C 673.10 850.92 670.24 847.72 667.63 844.37 C 663.12 838.50 656.37 834.88 652.01 828.88 C 647.35 822.56 640.28 818.65 635.57 812.39 C 630.72 806.27 624.16 801.82 619.15 795.85 C 613.24 789.11 606.15 783.53 600.28 776.76 C 584.87 761.49 569.58 746.10 554.31 730.70 C 547.27 724.39 541.33 716.99 534.26 710.72 C 531.50 708.15 528.85 705.45 526.37 702.61 C 521.78 697.21 515.86 693.14 511.35 687.66 C 508.33 683.95 504.93 680.56 500.98 677.85 C 500.70 644.22 500.88 610.60 500.67 576.97 C 500.88 555.32 500.27 533.66 500.83 512.02 Z" />
</g>
<g id="#f17045ff">
<path fill="#f17045" opacity="1.00" d=" M 683.88 516.58 C 702.82 522.91 721.53 529.89 740.38 536.48 C 747.80 539.05 755.08 542.05 762.66 544.13 C 763.23 544.25 764.35 544.49 764.91 544.61 C 764.03 550.00 763.10 555.38 762.03 560.74 L 760.61 560.70 C 742.50 554.21 724.32 547.88 706.21 541.39 C 701.49 535.63 697.05 529.49 691.00 525.02 C 687.92 522.87 685.40 520.03 683.88 516.58 Z" />
</g>
<g id="#f8a86dff">
<path fill="#f8a86d" opacity="1.00" d=" M 606.06 532.16 C 617.20 535.98 628.22 540.16 639.43 543.80 L 639.52 544.10 C 640.13 547.97 643.80 550.07 646.25 552.75 C 651.22 557.92 656.84 562.54 660.91 568.51 C 647.41 564.03 634.09 559.00 620.65 554.35 C 621.17 553.87 622.21 552.90 622.73 552.42 C 616.77 545.92 610.18 540.03 604.22 533.54 C 604.68 533.19 605.60 532.51 606.06 532.16 Z" />
</g>
<g id="#faad73ff">
<path fill="#faad73" opacity="1.00" d=" M 646.25 552.75 C 643.80 550.07 640.13 547.97 639.52 544.10 C 651.80 548.14 663.93 552.61 676.12 556.93 L 676.26 557.20 C 677.96 561.39 681.70 564.09 684.76 567.23 C 688.44 570.92 692.22 574.52 695.73 578.38 C 695.26 578.84 694.32 579.76 693.85 580.22 C 682.84 576.41 671.88 572.44 660.91 568.51 C 656.84 562.54 651.22 557.92 646.25 552.75 Z" />
</g>
<g id="#ec6337ff">
<path fill="#ec6337" opacity="1.00" d=" M 875.53 545.25 C 885.65 544.17 895.84 544.98 906.00 544.74 C 919.50 544.92 933.03 544.35 946.52 545.10 C 953.91 546.59 961.46 545.73 968.94 546.02 C 976.34 546.28 983.78 545.56 991.16 546.53 C 987.81 546.89 984.47 547.09 981.12 547.24 C 980.95 551.39 980.85 555.53 980.81 559.69 C 967.55 559.87 954.29 559.81 941.03 559.81 C 938.19 559.84 935.39 560.26 932.60 560.62 C 910.05 560.80 887.49 560.62 864.94 560.69 C 864.84 556.17 864.91 551.65 865.16 547.13 C 874.49 546.86 883.86 547.50 893.16 546.51 C 887.29 545.88 881.33 546.53 875.53 545.25 Z" />
</g>
<g id="#f06a42ff">
<path fill="#f06a42" opacity="1.00" d=" M 946.52 545.10 C 958.65 544.17 970.83 544.95 982.99 544.73 C 1014.56 544.80 1046.12 544.83 1077.68 545.02 C 1083.07 550.05 1088.31 555.27 1093.30 560.71 C 1039.73 560.67 986.16 560.77 932.60 560.62 C 935.39 560.26 938.19 559.84 941.03 559.81 C 954.29 559.81 967.55 559.87 980.81 559.69 C 980.85 555.53 980.95 551.39 981.12 547.24 C 984.47 547.09 987.81 546.89 991.16 546.53 C 983.78 545.56 976.34 546.28 968.94 546.02 C 961.46 545.73 953.91 546.59 946.52 545.10 Z" />
</g>
<g id="#fab37bff">
<path fill="#fab37b" opacity="1.00" d=" M 676.26 557.20 C 696.12 563.52 715.57 571.11 735.34 577.73 C 730.30 581.77 725.02 585.48 719.88 589.39 C 711.17 586.44 702.58 583.12 693.85 580.22 C 694.32 579.76 695.26 578.84 695.73 578.38 C 692.22 574.52 688.44 570.92 684.76 567.23 C 681.70 564.09 677.96 561.39 676.26 557.20 Z" />
</g>
<g id="#5522115d">
<path fill="#552211" opacity="0.36" d=" M 760.61 560.70 L 762.03 560.74 C 796.33 560.61 830.64 560.74 864.94 560.69 C 887.49 560.62 910.05 560.80 932.60 560.62 C 986.16 560.77 1039.73 560.67 1093.30 560.71 L 1093.54 560.93 L 1093.91 561.29 C 983.60 561.51 873.29 561.29 762.99 561.38 C 762.14 561.32 761.35 561.09 760.61 560.70 Z" />
</g>
<g id="#fbba87ff">
<path fill="#fbba87" opacity="1.00" d=" M 719.88 589.39 C 725.02 585.48 730.30 581.77 735.34 577.73 C 735.40 606.60 735.36 635.48 735.35 664.35 C 730.62 660.62 726.78 655.92 722.22 652.00 C 722.13 655.74 721.98 659.48 721.60 663.21 C 720.76 657.51 721.11 651.74 720.98 646.00 C 720.77 633.67 720.92 621.33 720.79 609.00 C 720.64 602.57 721.28 596.07 719.91 589.72 L 719.88 589.39 Z" />
</g>
<g id="#fbbc8aff">
<path fill="#fbbc8a" opacity="1.00" d=" M 941.80 587.55 C 992.37 587.28 1042.96 587.49 1093.54 587.43 C 1093.46 620.68 1093.62 653.94 1093.44 687.19 C 1091.98 677.66 1093.63 667.95 1092.42 658.45 C 1088.03 652.47 1082.51 647.44 1077.50 641.99 C 1077.65 629.06 1077.45 616.12 1077.55 603.19 C 1047.84 602.87 1018.12 603.43 988.42 602.80 C 980.64 601.42 972.72 602.56 964.90 601.57 C 966.90 601.22 968.91 600.89 970.92 600.55 C 967.35 596.60 963.25 593.20 959.20 589.77 C 957.31 587.88 954.48 588.35 952.08 588.26 C 948.63 588.35 945.20 588.05 941.80 587.55 Z" />
</g>
<g id="#f06a41ff">
<path fill="#f06a41" opacity="1.00" d=" M 761.78 587.03 C 762.14 587.17 762.85 587.46 763.20 587.60 C 767.87 592.89 773.11 597.62 777.83 602.87 C 777.62 622.92 777.69 642.98 777.74 663.03 C 777.72 672.13 778.06 681.24 777.58 690.34 C 776.41 683.23 777.27 676.01 776.49 668.87 C 776.08 671.55 775.83 674.25 775.63 676.96 C 770.58 672.55 766.26 667.44 761.74 662.52 C 761.74 637.36 761.64 612.19 761.78 587.03 Z" />
</g>
<g id="#f79c5aff">
<path fill="#f79c5a" opacity="1.00" d=" M 763.20 587.60 C 784.95 587.24 806.72 587.49 828.48 587.45 C 831.80 592.13 836.80 595.14 840.70 599.28 C 843.26 602.43 847.60 602.35 851.29 602.87 C 826.82 603.69 802.31 602.40 777.83 602.87 C 773.11 597.62 767.87 592.89 763.20 587.60 Z" />
</g>
<g id="#f9a668ff">
<path fill="#f9a668" opacity="1.00" d=" M 828.48 587.45 C 838.18 587.42 847.90 587.41 857.61 587.45 C 860.53 592.09 864.94 595.41 868.65 599.37 C 871.41 602.98 876.49 601.87 880.44 602.76 C 870.73 603.39 861.01 602.96 851.29 602.87 C 847.60 602.35 843.26 602.43 840.70 599.28 C 836.80 595.14 831.80 592.13 828.48 587.45 Z" />
</g>
<g id="#f9ab70ff">
<path fill="#f9ab70" opacity="1.00" d=" M 857.61 587.45 C 868.29 587.42 878.97 587.41 889.65 587.45 C 892.56 592.08 896.91 595.46 900.69 599.33 C 903.72 603.19 909.17 601.70 913.42 602.73 C 902.44 603.34 891.42 603.12 880.44 602.76 C 876.49 601.87 871.41 602.98 868.65 599.37 C 864.94 595.41 860.53 592.09 857.61 587.45 Z" />
</g>
<g id="#f9b37bff">
<path fill="#f9b37b" opacity="1.00" d=" M 889.65 587.45 C 907.03 587.50 924.42 587.26 941.80 587.55 C 945.20 588.05 948.63 588.35 952.08 588.26 C 954.48 588.35 957.31 587.88 959.20 589.77 C 963.25 593.20 967.35 596.60 970.92 600.55 C 968.91 600.89 966.90 601.22 964.90 601.57 C 972.72 602.56 980.64 601.42 988.42 602.80 C 963.43 603.42 938.41 603.07 913.42 602.73 C 909.17 601.70 903.72 603.19 900.69 599.33 C 896.91 595.46 892.56 592.08 889.65 587.45 Z" />
</g>
<g id="#f9b17bff">
<path fill="#f9b17b" opacity="1.00" d=" M 719.91 589.72 C 721.28 596.07 720.64 602.57 720.79 609.00 C 720.92 621.33 720.77 633.67 720.98 646.00 C 721.11 651.74 720.76 657.51 721.60 663.21 C 721.98 659.48 722.13 655.74 722.22 652.00 C 726.78 655.92 730.62 660.62 735.35 664.35 C 735.39 690.71 735.36 717.06 735.36 743.41 C 731.23 739.01 727.53 734.06 722.29 730.89 C 722.08 734.61 721.85 738.33 721.61 742.06 C 721.18 739.20 720.66 736.38 720.15 733.55 C 719.68 728.70 719.69 723.83 719.75 718.97 C 719.73 696.00 719.70 673.02 719.68 650.05 C 719.84 629.94 719.27 609.82 719.91 589.72 Z" />
</g>
<g id="#f68e45ff">
<path fill="#f68e45" opacity="1.00" d=" M 777.83 602.87 C 802.31 602.40 826.82 603.69 851.29 602.87 C 861.01 602.96 870.73 603.39 880.44 602.76 C 891.42 603.12 902.44 603.34 913.42 602.73 C 938.41 603.07 963.43 603.42 988.42 602.80 C 1018.12 603.43 1047.84 602.87 1077.55 603.19 C 1077.45 616.12 1077.65 629.06 1077.50 641.99 C 1077.48 660.54 1077.54 679.09 1077.60 697.64 C 1077.45 711.76 1077.65 725.88 1077.59 740.00 C 1077.68 747.47 1077.31 754.97 1078.02 762.43 C 1052.34 762.75 1026.65 762.45 1000.97 762.51 C 993.20 762.62 985.42 762.20 977.67 762.80 C 967.17 762.27 956.66 762.56 946.16 762.55 C 946.28 762.17 946.51 761.43 946.63 761.05 C 933.42 760.90 920.22 761.04 907.01 760.96 C 900.58 760.87 894.13 761.26 887.72 760.59 C 894.77 759.38 901.93 760.41 909.03 759.83 C 905.36 755.19 900.72 751.53 896.29 747.68 C 891.91 743.05 888.13 737.82 883.10 733.84 C 877.10 729.19 873.08 722.57 867.19 717.80 C 861.43 713.24 857.23 707.12 851.74 702.28 C 847.65 698.70 843.92 694.76 840.29 690.73 C 824.66 675.36 809.27 659.74 793.81 644.19 C 788.69 639.39 783.72 634.41 779.24 629.00 C 779.01 671.33 779.02 713.67 779.10 755.99 C 779.02 757.85 778.51 759.65 778.00 761.44 C 777.60 737.74 777.91 714.04 777.58 690.34 C 778.06 681.24 777.72 672.13 777.74 663.03 C 777.69 642.98 777.62 622.92 777.83 602.87 Z" />
</g>
<g id="#f58944ff">
<path fill="#f58944" opacity="1.00" d=" M 779.24 629.00 C 783.72 634.41 788.69 639.39 793.81 644.19 C 809.27 659.74 824.66 675.36 840.29 690.73 C 843.92 694.76 847.65 698.70 851.74 702.28 C 857.23 707.12 861.43 713.24 867.19 717.80 C 873.08 722.57 877.10 729.19 883.10 733.84 C 888.13 737.82 891.91 743.05 896.29 747.68 C 900.72 751.53 905.36 755.19 909.03 759.83 C 901.93 760.41 894.77 759.38 887.72 760.59 C 894.13 761.26 900.58 760.87 907.01 760.96 C 920.22 761.04 933.42 760.90 946.63 761.05 C 946.51 761.43 946.28 762.17 946.16 762.55 C 918.43 762.49 890.71 762.52 862.98 762.45 C 854.89 762.57 846.79 762.13 838.71 762.71 C 818.39 762.21 798.04 762.42 777.70 762.50 L 778.00 761.44 C 778.51 759.65 779.02 757.85 779.10 755.99 C 779.02 713.67 779.01 671.33 779.24 629.00 Z" />
</g>
<g id="#eb6235ff">
<path fill="#eb6235" opacity="1.00" d=" M 484.71 631.27 C 486.16 634.68 486.27 638.39 486.03 642.03 C 486.13 644.55 485.50 647.54 487.33 649.60 C 491.02 653.95 495.04 658.00 498.70 662.38 C 499.82 663.64 499.64 665.44 499.78 667.02 C 499.93 675.81 499.30 684.64 500.39 693.40 C 500.19 713.67 500.63 733.94 500.29 754.21 C 495.14 750.29 490.44 745.71 486.50 740.58 C 484.92 734.62 487.30 728.14 484.72 722.30 C 484.21 705.24 484.65 688.10 484.50 671.00 C 484.64 657.76 484.22 644.50 484.71 631.27 Z" />
<path fill="#eb6235" opacity="1.00" d=" M 838.71 762.71 C 846.79 762.13 854.89 762.57 862.98 762.45 C 890.71 762.52 918.43 762.49 946.16 762.55 C 956.66 762.56 967.17 762.27 977.67 762.80 C 974.23 764.05 970.58 764.40 966.94 764.32 C 971.50 767.81 975.14 772.25 978.79 776.64 C 975.89 776.79 973.04 777.27 970.30 778.17 C 942.22 778.66 914.08 778.23 885.97 778.37 C 878.88 778.21 871.75 778.68 864.69 778.16 C 854.72 774.98 843.93 778.54 833.90 776.18 C 829.71 772.46 826.64 767.58 821.99 764.31 C 827.56 763.82 833.49 765.28 838.71 762.71 Z" />
</g>
<g id="#f9b178ff">
<path fill="#f9b178" opacity="1.00" d=" M 1077.50 641.99 C 1082.51 647.44 1088.03 652.47 1092.42 658.45 C 1093.63 667.95 1091.98 677.66 1093.44 687.19 C 1093.64 695.95 1093.47 704.71 1093.50 713.48 C 1087.35 709.04 1083.85 701.97 1077.60 697.64 C 1077.54 679.09 1077.48 660.54 1077.50 641.99 Z" />
</g>
<g id="#eb6135ff">
<path fill="#eb6135" opacity="1.00" d=" M 761.74 662.52 C 766.26 667.44 770.58 672.55 775.63 676.96 C 775.83 674.25 776.08 671.55 776.49 668.87 C 777.27 676.01 776.41 683.23 777.58 690.34 C 777.91 714.04 777.60 737.74 778.00 761.44 L 777.70 762.50 C 775.82 751.39 777.79 740.01 776.43 728.84 C 775.87 733.85 775.89 738.91 775.78 743.95 C 770.67 739.90 766.85 734.52 761.75 730.47 C 761.70 707.82 761.71 685.17 761.74 662.52 Z" />
</g>
<g id="#f47d41ff">
<path fill="#f47d41" opacity="1.00" d=" M 500.98 677.85 C 504.93 680.56 508.33 683.95 511.35 687.66 C 515.86 693.14 521.78 697.21 526.37 702.61 C 528.85 705.45 531.50 708.15 534.26 710.72 C 541.33 716.99 547.27 724.39 554.31 730.70 C 569.58 746.10 584.87 761.49 600.28 776.76 C 606.15 783.53 613.24 789.11 619.15 795.85 C 624.16 801.82 630.72 806.27 635.57 812.39 C 640.28 818.65 647.35 822.56 652.01 828.88 C 656.37 834.88 663.12 838.50 667.63 844.37 C 670.24 847.72 673.10 850.92 676.54 853.45 C 682.72 857.94 686.32 865.01 692.47 869.55 C 696.47 872.53 699.75 876.31 702.84 880.21 C 707.13 885.59 713.42 888.94 717.49 894.53 C 722.56 901.43 730.23 905.76 735.29 912.68 C 739.80 918.19 745.98 922.02 750.42 927.60 C 755.61 934.07 762.58 938.76 767.82 945.18 C 773.75 951.56 780.28 957.36 786.25 963.72 C 790.23 968.09 795.00 971.75 798.58 976.46 C 799.87 984.64 798.50 993.04 799.25 1001.31 C 775.52 1001.04 751.77 1001.18 728.03 1001.09 C 700.79 1001.21 673.56 1000.67 646.31 1000.80 C 643.58 1000.15 640.54 999.51 638.78 997.11 C 634.03 990.89 627.14 986.81 622.37 980.61 C 618.03 974.64 611.39 970.97 606.87 965.18 C 604.23 961.82 601.37 958.63 597.94 956.08 C 591.26 951.08 587.27 943.39 580.47 938.54 C 574.48 934.20 571.02 927.33 565.09 922.93 C 561.24 920.12 558.05 916.58 555.17 912.81 C 551.26 907.69 545.43 904.55 541.41 899.55 C 538.44 895.91 535.32 892.36 531.65 889.41 C 525.22 884.49 520.98 877.39 514.67 872.33 C 509.77 868.53 506.32 863.28 501.62 859.27 C 501.27 860.15 500.93 861.04 500.59 861.95 L 500.33 861.76 C 500.62 825.91 500.40 790.06 500.29 754.21 C 500.63 733.94 500.19 713.67 500.39 693.40 C 500.98 688.24 501.09 683.04 500.98 677.85 Z" />
</g>
<g id="#f8a96bff">
<path fill="#f8a96b" opacity="1.00" d=" M 1077.60 697.64 C 1083.85 701.97 1087.35 709.04 1093.50 713.48 C 1093.49 734.86 1093.64 756.25 1093.42 777.64 C 1088.39 772.47 1083.38 767.26 1078.02 762.43 C 1077.31 754.97 1077.68 747.47 1077.59 740.00 C 1077.65 725.88 1077.45 711.76 1077.60 697.64 Z" />
</g>
<g id="#e85a2bff">
<path fill="#e85a2b" opacity="1.00" d=" M 776.43 728.84 C 777.79 740.01 775.82 751.39 777.70 762.50 C 798.04 762.42 818.39 762.21 838.71 762.71 C 833.49 765.28 827.56 763.82 821.99 764.31 C 826.64 767.58 829.71 772.46 833.90 776.18 C 843.93 778.54 854.72 774.98 864.69 778.16 C 830.38 778.69 796.05 778.18 761.73 778.41 C 761.72 762.43 761.69 746.45 761.75 730.47 C 766.85 734.52 770.67 739.90 775.78 743.95 C 775.89 738.91 775.87 733.85 776.43 728.84 Z" />
</g>
<g id="#f9a96fff">
<path fill="#f9a96f" opacity="1.00" d=" M 722.29 730.89 C 727.53 734.06 731.23 739.01 735.36 743.41 C 735.31 763.76 735.50 784.11 735.26 804.45 L 734.78 804.93 C 729.89 809.71 725.13 814.61 720.21 819.35 C 720.24 806.22 719.65 793.11 719.79 779.98 C 719.97 764.50 719.20 749.00 720.15 733.55 C 720.66 736.38 721.18 739.20 721.61 742.06 C 721.85 738.33 722.08 734.61 722.29 730.89 Z" />
</g>
<g id="#f06b42ff">
<path fill="#f06b42" opacity="1.00" d=" M 977.67 762.80 C 985.42 762.20 993.20 762.62 1000.97 762.51 C 1026.65 762.45 1052.34 762.75 1078.02 762.43 C 1083.38 767.26 1088.39 772.47 1093.42 777.64 L 1093.99 778.25 C 1061.32 778.54 1028.64 778.29 995.96 778.37 C 987.41 778.25 978.84 778.62 970.30 778.17 C 973.04 777.27 975.89 776.79 978.79 776.64 C 975.14 772.25 971.50 767.81 966.94 764.32 C 970.58 764.40 974.23 764.05 977.67 762.80 Z" />
</g>
<g id="#fbbd8cff">
<path fill="#fbbd8c" opacity="1.00" d=" M 735.26 804.45 C 754.14 804.19 773.04 804.41 791.92 804.33 C 800.27 804.50 808.64 803.97 816.97 804.62 L 816.21 805.44 C 811.02 810.52 806.13 815.95 800.45 820.52 C 778.46 820.16 756.46 820.63 734.48 820.17 C 745.35 817.53 756.68 819.80 767.74 818.60 C 766.21 814.31 765.44 809.82 764.74 805.35 C 754.76 804.95 744.76 805.35 734.78 804.93 L 735.26 804.45 Z" />
</g>
<g id="#fab783ff">
<path fill="#fab783" opacity="1.00" d=" M 720.21 819.35 C 725.13 814.61 729.89 809.71 734.78 804.93 C 744.76 805.35 754.76 804.95 764.74 805.35 C 765.44 809.82 766.21 814.31 767.74 818.60 C 756.68 819.80 745.35 817.53 734.48 820.17 C 729.70 820.48 724.91 820.37 720.13 820.30 L 720.21 819.35 Z" />
</g>
<g id="#f9a970ff">
<path fill="#f9a970" opacity="1.00" d=" M 800.45 820.52 C 806.13 815.95 811.02 810.52 816.21 805.44 C 816.45 832.78 816.26 860.14 816.30 887.49 C 811.70 882.59 807.39 877.41 802.28 873.04 C 801.79 882.39 802.78 891.81 801.49 901.11 C 800.79 885.75 801.20 870.35 800.98 854.98 C 800.75 843.65 801.27 832.29 800.45 820.98 L 800.45 820.52 Z" />
</g>
<g id="#f79f63ff">
<path fill="#f79f63" opacity="1.00" d=" M 800.45 820.98 C 801.27 832.29 800.75 843.65 800.98 854.98 C 801.20 870.35 800.79 885.75 801.49 901.11 C 802.78 891.81 801.79 882.39 802.28 873.04 C 807.39 877.41 811.70 882.59 816.30 887.49 C 816.30 930.49 816.39 973.48 816.24 1016.47 C 810.80 1011.42 805.85 1005.87 800.37 1000.86 C 800.43 951.92 800.28 902.98 800.17 854.04 C 800.32 843.02 799.73 831.98 800.45 820.98 Z" />
</g>
<g id="#f58547ff">
<path fill="#f58547" opacity="1.00" d=" M 406.84 878.44 C 432.61 869.14 458.45 860.01 484.15 850.51 L 484.57 850.80 C 489.69 854.31 494.61 858.13 499.86 861.46 C 494.21 864.86 487.80 866.53 481.62 868.69 C 459.78 876.41 438.07 884.50 416.13 891.95 C 412.65 888.18 409.04 884.53 405.37 880.95 C 405.86 880.10 406.35 879.26 406.84 878.44 Z" />
</g>
<g id="#f3763fff">
<path fill="#f3763f" opacity="1.00" d=" M 501.62 859.27 C 506.32 863.28 509.77 868.53 514.67 872.33 C 520.98 877.39 525.22 884.49 531.65 889.41 C 535.32 892.36 538.44 895.91 541.41 899.55 C 545.43 904.55 551.26 907.69 555.17 912.81 C 558.05 916.58 561.24 920.12 565.09 922.93 C 571.02 927.33 574.48 934.20 580.47 938.54 C 587.27 943.39 591.26 951.08 597.94 956.08 C 601.37 958.63 604.23 961.82 606.87 965.18 C 611.39 970.97 618.03 974.64 622.37 980.61 C 627.14 986.81 634.03 990.89 638.78 997.11 C 640.54 999.51 643.58 1000.15 646.31 1000.80 C 642.02 1000.75 637.74 1001.12 633.47 1001.44 C 597.98 1000.90 562.48 1001.36 526.98 1001.00 C 521.80 1000.78 516.59 1000.74 511.46 1001.61 C 470.73 1001.65 429.99 1001.51 389.25 1001.52 C 388.80 992.14 388.86 982.75 388.90 973.38 C 389.48 952.95 388.81 932.49 388.97 912.05 C 389.02 908.47 388.91 904.89 388.74 901.33 C 384.35 898.12 379.81 895.13 375.45 891.88 C 375.53 891.32 375.70 890.20 375.78 889.64 C 386.12 885.86 396.50 882.22 406.84 878.44 C 406.35 879.26 405.86 880.10 405.37 880.95 C 409.04 884.53 412.65 888.18 416.13 891.95 C 438.07 884.50 459.78 876.41 481.62 868.69 C 487.80 866.53 494.21 864.86 499.86 861.46 L 500.33 861.76 L 500.59 861.95 C 500.93 861.04 501.27 860.15 501.62 859.27 Z" />
</g>
<g id="#ffffffff">
<path fill="#ffffff" opacity="1.00" d=" M 983.43 871.49 C 985.63 869.92 988.65 871.38 990.84 869.79 C 997.21 869.61 1003.59 869.37 1009.97 869.64 C 1012.15 869.79 1014.56 869.27 1016.55 870.48 C 1017.90 870.66 1019.29 870.80 1020.54 871.47 C 1024.39 871.57 1027.76 873.79 1031.59 873.93 L 1031.03 875.06 C 1029.52 878.16 1028.08 881.42 1025.33 883.66 C 1015.61 880.12 1005.00 879.60 994.79 880.75 C 977.24 882.35 960.17 888.10 945.00 897.03 C 929.81 905.95 916.51 917.81 904.82 930.92 C 895.40 941.69 887.16 953.56 881.04 966.51 C 877.86 964.96 874.67 963.41 871.66 961.56 C 876.61 950.45 883.75 940.56 890.68 930.64 C 890.78 930.49 890.99 930.20 891.09 930.05 C 892.68 928.62 894.13 927.05 895.07 925.11 C 902.04 918.05 909.06 911.04 916.09 904.05 C 919.02 902.71 920.75 899.79 923.62 898.39 C 924.54 897.55 925.47 896.72 926.44 895.92 C 927.46 895.48 928.37 894.86 929.16 894.06 C 930.28 893.60 931.32 892.96 932.11 892.02 C 933.28 891.66 934.25 890.93 935.13 890.08 C 936.65 889.24 938.14 888.33 939.60 887.38 C 940.54 886.89 941.50 886.40 942.47 885.93 C 944.72 884.64 946.83 882.95 949.45 882.42 L 949.52 881.45 C 950.00 881.53 950.95 881.70 951.43 881.78 L 951.54 880.40 C 952.09 880.54 953.18 880.83 953.72 880.98 L 953.54 879.88 C 955.32 879.37 957.07 878.64 958.97 878.66 L 958.23 877.66 C 959.08 877.65 960.78 877.61 961.63 877.60 L 961.32 876.61 C 962.13 876.61 963.76 876.62 964.57 876.62 L 964.42 875.83 C 966.62 875.40 968.76 874.62 971.04 874.53 L 970.31 873.72 C 971.67 873.66 973.04 873.59 974.42 873.51 C 976.07 872.50 978.14 872.78 979.82 871.82 C 981.01 871.69 982.21 871.57 983.43 871.49 Z" />
<path fill="#ffffff" opacity="1.00" d=" M 1089.36 877.77 C 1090.84 877.55 1092.56 877.81 1093.84 876.78 C 1109.90 876.61 1125.96 876.78 1142.02 876.69 C 1144.49 876.51 1146.78 877.64 1149.21 877.91 C 1150.12 878.66 1151.03 879.43 1151.97 880.21 L 1151.90 880.27 C 1147.81 882.74 1145.57 888.81 1140.06 888.06 C 1124.71 888.01 1109.36 888.06 1094.01 887.99 C 1084.77 901.93 1076.15 916.28 1067.15 930.38 C 1067.28 923.02 1068.32 915.70 1068.29 908.34 C 1069.91 905.73 1071.41 903.05 1073.06 900.47 C 1073.99 899.25 1074.75 897.93 1075.55 896.63 C 1076.32 895.20 1077.23 893.87 1078.06 892.48 C 1078.73 891.48 1079.43 890.50 1080.08 889.49 C 1080.99 888.25 1081.74 886.92 1082.52 885.61 C 1083.85 882.90 1086.09 880.84 1088.08 878.63 C 1088.42 878.68 1089.11 878.78 1089.45 878.84 L 1089.36 877.77 Z" />
<path fill="#ffffff" opacity="1.00" d=" M 1023.48 977.58 C 1024.53 975.82 1025.82 974.21 1026.83 972.42 C 1030.58 973.18 1034.34 973.93 1038.10 974.70 C 1036.94 976.73 1035.78 978.77 1034.49 980.74 C 1024.65 995.54 1014.22 1010.05 1001.92 1022.93 C 991.27 1034.11 979.42 1044.48 965.57 1051.51 C 955.19 1056.78 942.53 1059.07 931.50 1054.41 C 933.15 1051.19 934.78 1047.98 936.40 1044.76 C 940.08 1046.36 944.19 1045.54 948.08 1045.69 C 952.25 1045.88 955.87 1043.46 959.78 1042.38 L 959.59 1042.03 C 962.05 1041.16 964.28 1039.79 966.51 1038.45 C 968.19 1037.57 969.69 1036.40 971.34 1035.47 C 971.43 1035.31 971.61 1034.99 971.70 1034.82 C 972.64 1034.26 973.57 1033.67 974.51 1033.10 C 978.81 1029.58 983.27 1026.22 987.06 1022.13 C 1000.22 1009.82 1011.45 995.62 1021.42 980.62 C 1022.04 979.57 1022.74 978.56 1023.48 977.58 Z" />
<path fill="#ffffff" opacity="1.00" d=" M 1120.95 1057.04 C 1122.50 1053.86 1124.07 1050.69 1125.77 1047.60 C 1127.13 1047.54 1128.40 1047.86 1129.57 1048.57 C 1137.06 1048.88 1144.56 1048.50 1152.05 1048.68 L 1151.29 1047.43 C 1153.68 1048.05 1156.10 1048.64 1158.48 1049.38 C 1159.44 1050.14 1160.35 1050.93 1161.28 1051.78 C 1157.27 1052.97 1155.65 1057.52 1151.95 1059.00 C 1141.65 1060.31 1130.87 1060.49 1120.95 1057.04 Z" />
</g>
<g id="#efefefff">
<path fill="#efefef" opacity="1.00" d=" M 1031.03 875.06 C 1033.75 874.23 1036.02 876.63 1038.44 877.53 C 1040.05 878.45 1041.43 879.87 1043.39 880.08 L 1043.15 880.66 C 1041.84 883.95 1040.36 887.16 1038.82 890.35 C 1034.65 887.51 1030.06 885.37 1025.33 883.66 C 1028.08 881.42 1029.52 878.16 1031.03 875.06 Z" />
<path fill="#efefef" opacity="1.00" d=" M 1114.81 1054.12 C 1116.40 1050.86 1118.03 1047.62 1119.92 1044.53 C 1120.75 1045.09 1121.60 1045.66 1122.47 1046.23 C 1123.67 1046.54 1124.89 1046.77 1126.14 1046.90 L 1125.77 1047.60 C 1124.07 1050.69 1122.50 1053.86 1120.95 1057.04 C 1118.83 1056.21 1116.78 1055.21 1114.81 1054.12 Z" />
</g>
<g id="#c0c0c0ff">
<path fill="#c0c0c0" opacity="1.00" d=" M 994.79 880.75 C 1005.00 879.60 1015.61 880.12 1025.33 883.66 C 1030.06 885.37 1034.65 887.51 1038.82 890.35 C 1040.97 891.87 1043.00 893.57 1044.89 895.42 C 1047.09 897.61 1049.38 899.72 1051.84 901.64 C 1054.23 899.46 1056.51 897.16 1058.88 894.95 L 1059.64 895.00 C 1062.69 899.32 1066.22 903.41 1068.29 908.34 C 1068.32 915.70 1067.28 923.02 1067.15 930.38 C 1076.15 916.28 1084.77 901.93 1094.01 887.99 C 1109.36 888.06 1124.71 888.01 1140.06 888.06 C 1145.57 888.81 1147.81 882.74 1151.90 880.27 C 1153.40 881.72 1154.07 883.70 1154.95 885.56 L 1154.95 885.92 C 1154.96 886.49 1154.97 887.64 1154.98 888.21 C 1150.98 888.71 1145.26 886.57 1142.98 891.02 C 1123.86 921.18 1104.97 951.50 1085.41 981.37 C 1068.45 980.38 1051.45 981.68 1034.49 980.74 C 1035.78 978.77 1036.94 976.73 1038.10 974.70 C 1034.34 973.93 1030.58 973.18 1026.83 972.42 C 1026.82 971.53 1026.81 970.66 1026.81 969.80 C 1026.12 968.14 1025.90 966.36 1025.62 964.63 C 1024.74 960.59 1023.72 956.58 1022.64 952.59 C 1022.25 951.25 1021.97 949.90 1021.70 948.57 C 1021.30 947.57 1020.96 946.56 1020.67 945.56 C 1020.33 944.54 1020.00 943.54 1019.67 942.55 C 1019.33 941.53 1019.00 940.52 1018.68 939.52 C 1018.29 938.52 1017.97 937.50 1017.72 936.48 C 1016.76 934.56 1016.11 932.52 1015.28 930.57 C 1013.77 927.40 1012.21 924.25 1010.24 921.36 C 1010.13 921.11 1009.92 920.60 1009.81 920.34 C 1012.22 917.90 1014.79 915.61 1017.23 913.18 C 1012.94 907.62 1007.02 902.99 999.95 901.77 C 990.09 900.58 979.97 903.33 971.71 908.74 C 962.30 914.81 954.77 923.29 947.85 931.99 C 933.70 950.91 922.25 972.21 916.49 995.23 C 914.93 1001.75 914.07 1008.42 913.85 1015.12 C 913.76 1017.41 913.72 1019.71 913.82 1022.02 C 899.68 1022.02 885.53 1021.90 871.39 1022.00 C 871.09 1019.53 870.64 1017.09 870.24 1014.66 C 870.21 1014.19 870.13 1013.26 870.10 1012.80 C 869.95 1008.30 870.53 1003.82 871.01 999.36 C 871.71 993.29 873.32 987.37 875.08 981.54 C 876.69 976.39 878.77 971.40 881.04 966.51 C 887.16 953.56 895.40 941.69 904.82 930.92 C 916.51 917.81 929.81 905.95 945.00 897.03 C 960.17 888.10 977.24 882.35 994.79 880.75 Z" />
</g>
<g id="#e1e1e1ff">
<path fill="#e1e1e1" opacity="1.00" d=" M 1043.15 880.66 C 1045.03 881.71 1046.74 883.05 1048.63 884.13 C 1049.96 885.29 1051.19 886.58 1052.46 887.84 C 1049.98 890.40 1047.46 892.93 1044.89 895.42 C 1043.00 893.57 1040.97 891.87 1038.82 890.35 C 1040.36 887.16 1041.84 883.95 1043.15 880.66 Z" />
</g>
<g id="#05050552">
<path fill="#050505" opacity="0.32" d=" M 1154.95 885.92 C 1157.72 890.09 1154.86 894.79 1152.44 898.34 C 1135.44 925.07 1118.61 951.91 1101.51 978.57 C 1099.62 981.30 1098.25 984.59 1095.33 986.42 C 1097.18 982.13 1100.13 978.47 1102.64 974.56 C 1120.08 946.87 1137.94 919.43 1154.98 891.48 C 1154.97 890.38 1154.97 889.29 1154.98 888.21 C 1154.97 887.64 1154.96 886.49 1154.95 885.92 Z" />
</g>
<g id="#d3d3d3ff">
<path fill="#d3d3d3" opacity="1.00" d=" M 1052.46 887.84 C 1054.70 890.11 1056.95 892.38 1059.26 894.59 L 1058.88 894.95 C 1056.51 897.16 1054.23 899.46 1051.84 901.64 C 1049.38 899.72 1047.09 897.61 1044.89 895.42 C 1047.46 892.93 1049.98 890.40 1052.46 887.84 Z" />
<path fill="#d3d3d3" opacity="1.00" d=" M 859.89 1013.05 C 863.29 1012.90 866.69 1012.82 870.10 1012.80 C 870.13 1013.26 870.21 1014.19 870.24 1014.66 C 870.18 1017.36 869.94 1020.06 869.73 1022.77 C 867.22 1022.75 864.72 1022.68 862.23 1022.63 C 861.85 1022.98 861.09 1023.68 860.71 1024.02 C 859.15 1020.66 860.46 1016.65 859.89 1013.05 Z" />
</g>
<g id="#a4a4a4ff">
<path fill="#a4a4a4" opacity="1.00" d=" M 1142.98 891.02 C 1145.26 886.57 1150.98 888.71 1154.98 888.21 C 1154.97 889.29 1154.97 890.38 1154.98 891.48 C 1137.94 919.43 1120.08 946.87 1102.64 974.56 C 1100.13 978.47 1097.18 982.13 1095.33 986.42 L 1094.65 986.33 C 1091.06 985.86 1087.49 985.33 1083.93 984.72 C 1084.39 983.58 1084.86 982.46 1085.41 981.37 C 1104.97 951.50 1123.86 921.18 1142.98 891.02 Z" />
<path fill="#a4a4a4" opacity="1.00" d=" M 909.82 1084.04 C 911.14 1080.76 913.04 1077.70 915.70 1075.35 C 921.92 1077.70 928.50 1078.97 935.08 1079.78 C 935.06 1083.24 935.04 1086.72 935.04 1090.20 C 932.77 1090.06 930.50 1089.91 928.29 1089.41 C 926.63 1089.07 924.98 1088.76 923.35 1088.38 C 922.00 1088.05 920.66 1087.72 919.36 1087.33 C 918.02 1087.03 916.68 1086.73 915.39 1086.38 C 914.37 1086.01 913.37 1085.65 912.39 1085.29 C 911.83 1085.16 910.70 1084.92 910.14 1084.79 L 909.82 1084.04 Z" />
</g>
<g id="#ef693fff">
<path fill="#ef693f" opacity="1.00" d=" M 373.36 890.62 C 373.97 890.37 375.18 889.88 375.78 889.64 C 375.70 890.20 375.53 891.32 375.45 891.88 C 379.81 895.13 384.35 898.12 388.74 901.33 C 388.91 904.89 389.02 908.47 388.97 912.05 C 388.81 932.49 389.48 952.95 388.90 973.38 C 388.26 970.86 387.59 968.20 385.73 966.29 C 381.83 962.23 378.53 957.42 373.47 954.67 C 373.38 933.32 373.56 911.97 373.36 890.62 Z" />
</g>
<g id="#a0a0a0ff">
<path fill="#a0a0a0" opacity="1.00" d=" M 971.71 908.74 C 979.97 903.33 990.09 900.58 999.95 901.77 C 1000.68 902.54 1001.43 903.33 1002.18 904.12 C 1001.10 906.79 1000.00 909.45 998.89 912.10 C 996.16 911.95 993.42 912.02 990.71 912.19 C 989.35 912.61 987.99 912.99 986.64 913.37 C 985.60 913.67 984.56 913.95 983.53 914.23 C 980.27 915.79 977.11 917.64 974.46 920.12 C 974.31 920.19 974.01 920.33 973.86 920.40 C 966.30 926.40 959.66 933.62 954.05 941.49 C 951.10 940.16 948.12 938.48 946.95 935.28 C 949.67 936.17 952.36 937.17 955.10 938.07 C 952.82 935.88 950.39 933.87 947.85 931.99 C 954.77 923.29 962.30 914.81 971.71 908.74 Z" />
<path fill="#a0a0a0" opacity="1.00" d=" M 1010.83 1062.88 C 1026.73 1052.97 1040.70 1040.37 1054.33 1027.60 C 1053.49 1033.69 1051.77 1039.61 1050.31 1045.57 L 1050.15 1046.18 C 1036.66 1057.24 1023.43 1069.13 1007.56 1076.74 C 1004.54 1078.19 1001.39 1079.33 998.40 1080.82 C 997.94 1080.89 997.02 1081.03 996.56 1081.10 C 995.54 1081.66 994.54 1082.22 993.54 1082.77 C 992.50 1083.05 991.47 1083.35 990.47 1083.69 C 984.17 1085.60 977.84 1087.37 971.38 1088.64 C 969.67 1088.97 967.96 1089.31 966.30 1089.79 C 956.42 1090.44 946.52 1090.27 936.64 1090.31 C 936.24 1090.28 935.44 1090.23 935.04 1090.20 C 935.04 1086.72 935.06 1083.24 935.08 1079.78 C 946.41 1080.27 957.88 1080.59 969.07 1078.44 C 983.76 1075.76 997.88 1070.26 1010.83 1062.88 Z" />
<path fill="#a0a0a0" opacity="1.00" d=" M 1151.70 1061.68 C 1154.78 1058.01 1160.01 1059.78 1164.15 1059.38 C 1163.89 1060.47 1163.61 1061.56 1163.30 1062.65 C 1163.20 1063.12 1163.01 1064.06 1162.91 1064.54 C 1155.16 1075.54 1143.39 1083.48 1130.59 1087.42 C 1129.26 1087.75 1127.92 1088.03 1126.61 1088.32 C 1125.29 1088.73 1123.97 1089.09 1122.67 1089.46 C 1116.16 1090.58 1109.50 1089.97 1102.94 1089.92 C 1102.96 1086.72 1103.03 1083.53 1103.13 1080.34 C 1103.91 1080.19 1105.48 1079.88 1106.26 1079.73 C 1115.70 1080.26 1125.40 1079.08 1133.97 1074.90 C 1140.76 1071.81 1146.61 1067.07 1151.70 1061.68 Z" />
</g>
<g id="#aeaeaeff">
<path fill="#aeaeae" opacity="1.00" d=" M 999.95 901.77 C 1007.02 902.99 1012.94 907.62 1017.23 913.18 C 1014.79 915.61 1012.22 917.90 1009.81 920.34 C 1008.63 919.15 1007.48 917.96 1006.30 916.81 C 1004.34 914.53 1001.68 913.09 998.89 912.10 C 1000.00 909.45 1001.10 906.79 1002.18 904.12 C 1001.43 903.33 1000.68 902.54 999.95 901.77 Z" />
<path fill="#aeaeae" opacity="1.00" d=" M 1064.46 1069.99 C 1066.26 1067.32 1068.20 1063.48 1071.99 1063.75 C 1076.89 1066.42 1080.56 1070.93 1085.57 1073.51 C 1083.00 1075.67 1081.55 1078.70 1080.05 1081.62 C 1079.74 1081.80 1079.14 1082.16 1078.83 1082.34 C 1073.87 1078.41 1068.62 1074.82 1064.46 1069.99 Z" />
</g>
<g id="#01010155">
<path fill="#010101" opacity="0.33" d=" M 990.71 912.19 C 993.42 912.02 996.16 911.95 998.89 912.10 C 1001.68 913.09 1004.34 914.53 1006.30 916.81 C 1001.71 914.04 996.27 912.58 990.94 913.68 C 984.87 914.20 980.09 918.30 974.46 920.12 C 977.11 917.64 980.27 915.79 983.53 914.23 C 984.56 913.95 985.60 913.67 986.64 913.37 C 987.99 912.99 989.35 912.61 990.71 912.19 Z" />
</g>
<g id="#02020249">
<path fill="#020202" opacity="0.29" d=" M 954.05 941.49 C 959.66 933.62 966.30 926.40 973.86 920.40 C 973.15 922.35 971.78 923.92 970.22 925.25 C 960.07 934.32 952.24 945.62 945.36 957.28 C 937.62 970.50 930.88 984.51 927.43 999.52 C 925.10 1009.41 924.99 1019.69 925.89 1029.78 L 925.06 1030.39 C 925.00 1027.49 925.02 1024.60 924.83 1021.72 C 923.74 1019.44 923.99 1016.87 923.87 1014.45 C 924.15 1014.28 924.70 1013.93 924.97 1013.76 C 924.65 1008.51 925.58 1003.37 926.14 998.19 L 926.73 997.92 C 927.01 996.42 927.27 994.94 927.60 993.46 C 927.95 992.46 928.32 991.47 928.71 990.50 C 929.02 989.48 929.34 988.48 929.66 987.48 C 930.01 986.44 930.40 985.43 930.83 984.44 C 930.89 983.96 931.02 983.01 931.09 982.53 C 931.69 981.51 932.31 980.51 932.93 979.51 C 932.98 979.03 933.07 978.08 933.12 977.60 C 939.25 965.09 945.91 952.82 954.05 941.49 Z" />
</g>
<g id="#2e2e2e2e">
<path fill="#2e2e2e" opacity="0.18" d=" M 885.42 935.52 C 886.94 933.73 887.97 930.78 890.68 930.64 C 883.75 940.56 876.61 950.45 871.66 961.56 C 869.22 966.50 867.37 971.70 865.54 976.90 L 865.30 977.26 C 863.84 982.23 862.64 987.27 861.63 992.35 C 861.13 994.75 860.85 997.20 860.30 999.60 L 860.18 1000.25 C 859.89 1004.17 860.00 1008.13 859.88 1012.07 L 859.89 1013.05 C 860.46 1016.65 859.15 1020.66 860.71 1024.02 C 860.94 1026.72 861.52 1029.38 862.16 1032.02 C 860.43 1030.10 860.79 1027.11 859.02 1025.45 C 859.12 1024.27 859.25 1023.10 859.42 1021.94 C 857.23 1009.60 858.82 996.97 861.85 984.93 C 865.95 966.95 874.62 950.35 885.42 935.52 Z" />
</g>
<g id="#a6a6a6ff">
<path fill="#a6a6a6" opacity="1.00" d=" M 916.49 995.23 C 922.25 972.21 933.70 950.91 947.85 931.99 C 950.39 933.87 952.82 935.88 955.10 938.07 C 952.36 937.17 949.67 936.17 946.95 935.28 C 948.12 938.48 951.10 940.16 954.05 941.49 C 945.91 952.82 939.25 965.09 933.12 977.60 C 933.07 978.08 932.98 979.03 932.93 979.51 C 932.31 980.51 931.69 981.51 931.09 982.53 C 931.02 983.01 930.89 983.96 930.83 984.44 C 930.40 985.43 930.01 986.44 929.66 987.48 C 929.34 988.48 929.02 989.48 928.71 990.50 C 928.32 991.47 927.95 992.46 927.60 993.46 C 927.27 994.94 927.01 996.42 926.73 997.92 L 926.14 998.19 C 922.77 997.78 919.58 996.57 916.49 995.23 Z" />
<path fill="#a6a6a6" opacity="1.00" d=" M 1080.05 1081.62 C 1081.55 1078.70 1083.00 1075.67 1085.57 1073.51 C 1091.80 1077.35 1099.11 1078.73 1106.26 1079.73 C 1105.48 1079.88 1103.91 1080.19 1103.13 1080.34 C 1103.03 1083.53 1102.96 1086.72 1102.94 1089.92 C 1102.61 1089.86 1101.94 1089.75 1101.61 1089.69 C 1099.94 1089.30 1098.26 1088.97 1096.60 1088.68 C 1095.24 1088.30 1093.89 1088.00 1092.55 1087.70 C 1091.53 1087.34 1090.53 1086.99 1089.53 1086.68 C 1088.51 1086.34 1087.50 1086.02 1086.50 1085.72 C 1084.22 1084.56 1081.91 1083.48 1079.51 1082.63 L 1080.05 1081.62 Z" />
</g>
<g id="#e95d2dff">
<path fill="#e95d2d" opacity="1.00" d=" M 373.47 954.67 C 378.53 957.42 381.83 962.23 385.73 966.29 C 387.59 968.20 388.26 970.86 388.90 973.38 C 388.86 982.75 388.80 992.14 389.25 1001.52 C 429.99 1001.51 470.73 1001.65 511.46 1001.61 C 515.54 1002.19 519.68 1002.07 523.77 1002.54 C 528.63 1006.77 533.78 1010.81 537.98 1015.75 C 529.84 1016.47 521.60 1015.18 513.54 1016.79 C 466.86 1017.16 420.15 1016.83 373.45 1016.94 C 373.48 996.18 373.40 975.43 373.47 954.67 Z" />
</g>
<g id="#f8f8f8ff">
<path fill="#f8f8f8" opacity="1.00" d=" M 865.54 976.90 C 867.37 971.70 869.22 966.50 871.66 961.56 C 874.67 963.41 877.86 964.96 881.04 966.51 C 878.77 971.40 876.69 976.39 875.08 981.54 C 871.72 980.39 868.58 978.72 865.54 976.90 Z" />
</g>
<g id="#edededff">
<path fill="#ededed" opacity="1.00" d=" M 865.30 977.26 L 865.54 976.90 C 868.58 978.72 871.72 980.39 875.08 981.54 C 873.32 987.37 871.71 993.29 871.01 999.36 C 867.42 999.88 863.80 1000.14 860.18 1000.25 L 860.30 999.60 C 860.85 997.20 861.13 994.75 861.63 992.35 C 862.64 987.27 863.84 982.23 865.30 977.26 Z" />
</g>
<g id="#bcbcbcff">
<path fill="#bcbcbc" opacity="1.00" d=" M 1001.92 1022.93 C 1014.22 1010.05 1024.65 995.54 1034.49 980.74 C 1051.45 981.68 1068.45 980.38 1085.41 981.37 C 1084.86 982.46 1084.39 983.58 1083.93 984.72 C 1087.49 985.33 1091.06 985.86 1094.65 986.33 C 1094.94 986.85 1095.52 987.90 1095.81 988.42 C 1096.24 990.44 1096.87 992.42 1097.30 994.46 C 1097.65 995.45 1097.99 996.45 1098.34 997.46 C 1098.68 998.44 1099.01 999.44 1099.31 1000.46 C 1099.68 1001.43 1100.01 1002.43 1100.32 1003.46 C 1100.68 1004.44 1101.02 1005.44 1101.33 1006.47 C 1102.82 1011.53 1104.56 1016.52 1106.27 1021.51 C 1106.63 1022.48 1107.00 1023.46 1107.37 1024.46 C 1107.65 1025.48 1107.95 1026.51 1108.27 1027.55 C 1108.53 1028.04 1109.06 1029.04 1109.33 1029.54 C 1110.21 1033.81 1113.52 1036.93 1115.15 1040.74 C 1112.94 1043.35 1110.42 1045.67 1107.93 1048.00 C 1110.01 1050.26 1112.18 1052.48 1114.81 1054.12 C 1116.78 1055.21 1118.83 1056.21 1120.95 1057.04 C 1130.87 1060.49 1141.65 1060.31 1151.95 1059.00 C 1155.65 1057.52 1157.27 1052.97 1161.28 1051.78 L 1161.67 1051.59 C 1162.22 1053.18 1162.76 1054.80 1163.33 1056.42 L 1163.92 1057.44 C 1163.98 1057.93 1164.09 1058.90 1164.15 1059.38 C 1160.01 1059.78 1154.78 1058.01 1151.70 1061.68 C 1146.61 1067.07 1140.76 1071.81 1133.97 1074.90 C 1125.40 1079.08 1115.70 1080.26 1106.26 1079.73 C 1099.11 1078.73 1091.80 1077.35 1085.57 1073.51 C 1080.56 1070.93 1076.89 1066.42 1071.99 1063.75 C 1068.20 1063.48 1066.26 1067.32 1064.46 1069.99 C 1064.14 1069.63 1063.50 1068.92 1063.18 1068.56 C 1063.06 1068.27 1062.83 1067.69 1062.71 1067.40 C 1061.89 1066.46 1061.08 1065.55 1060.29 1064.64 C 1059.45 1063.22 1058.56 1061.85 1057.69 1060.49 C 1056.57 1058.86 1055.56 1057.18 1054.68 1055.45 C 1054.44 1054.94 1053.97 1053.92 1053.73 1053.41 C 1053.46 1052.92 1052.92 1051.93 1052.65 1051.44 C 1052.27 1050.12 1051.71 1048.87 1051.31 1047.59 C 1051.06 1047.09 1050.56 1046.08 1050.31 1045.57 C 1051.77 1039.61 1053.49 1033.69 1054.33 1027.60 C 1040.70 1040.37 1026.73 1052.97 1010.83 1062.88 C 997.88 1070.26 983.76 1075.76 969.07 1078.44 C 957.88 1080.59 946.41 1080.27 935.08 1079.78 C 928.50 1078.97 921.92 1077.70 915.70 1075.35 C 908.76 1072.69 901.93 1069.53 896.01 1064.99 C 891.59 1061.70 887.98 1057.51 883.92 1053.83 C 881.38 1056.00 878.88 1058.24 876.79 1060.86 L 876.49 1061.24 C 875.74 1060.35 875.01 1059.48 874.28 1058.62 C 872.88 1056.13 871.13 1053.87 869.67 1051.44 C 868.98 1050.10 868.37 1048.75 867.72 1047.43 C 867.48 1046.93 866.98 1045.91 866.73 1045.40 C 866.45 1044.91 865.90 1043.93 865.62 1043.44 C 865.30 1042.45 864.98 1041.46 864.66 1040.50 C 864.34 1039.49 864.01 1038.51 863.65 1037.55 C 863.48 1036.90 863.15 1035.62 862.99 1034.98 C 865.84 1033.44 868.96 1032.37 871.58 1030.44 C 872.02 1027.64 871.65 1024.79 871.39 1022.00 C 885.53 1021.90 899.68 1022.02 913.82 1022.02 C 914.24 1026.42 915.36 1030.72 916.47 1035.00 C 919.56 1033.93 922.50 1032.44 925.06 1030.39 L 925.89 1029.78 C 925.95 1030.44 926.08 1031.77 926.14 1032.43 C 927.03 1034.09 927.79 1035.82 928.63 1037.53 C 929.65 1038.92 930.72 1040.31 931.95 1041.56 C 929.21 1043.86 926.63 1046.35 924.21 1049.00 C 926.40 1051.08 928.71 1053.13 931.50 1054.41 C 942.53 1059.07 955.19 1056.78 965.57 1051.51 C 979.42 1044.48 991.27 1034.11 1001.92 1022.93 Z" />
</g>
<g id="#acacacff">
<path fill="#acacac" opacity="1.00" d=" M 913.85 1015.12 C 914.07 1008.42 914.93 1001.75 916.49 995.23 C 919.58 996.57 922.77 997.78 926.14 998.19 C 925.58 1003.37 924.65 1008.51 924.97 1013.76 C 924.70 1013.93 924.15 1014.28 923.87 1014.45 C 920.56 1015.04 917.19 1015.10 913.85 1015.12 Z" />
<path fill="#acacac" opacity="1.00" d=" M 876.79 1060.86 C 878.88 1058.24 881.38 1056.00 883.92 1053.83 C 887.98 1057.51 891.59 1061.70 896.01 1064.99 C 901.93 1069.53 908.76 1072.69 915.70 1075.35 C 913.04 1077.70 911.14 1080.76 909.82 1084.04 C 909.39 1084.03 908.52 1084.01 908.09 1084.00 C 906.48 1083.38 904.96 1082.56 903.44 1081.83 C 902.10 1081.12 900.75 1080.47 899.42 1079.85 C 895.52 1077.80 891.99 1075.19 888.36 1072.75 C 884.43 1068.85 879.32 1065.99 876.79 1060.86 Z" />
</g>
<g id="#dfdfdfff">
<path fill="#dfdfdf" opacity="1.00" d=" M 860.18 1000.25 C 863.80 1000.14 867.42 999.88 871.01 999.36 C 870.53 1003.82 869.95 1008.30 870.10 1012.80 C 866.69 1012.82 863.29 1012.90 859.89 1013.05 L 859.88 1012.07 C 860.00 1008.13 859.89 1004.17 860.18 1000.25 Z" />
</g>
<g id="#ed6638ff">
<path fill="#ed6638" opacity="1.00" d=" M 511.46 1001.61 C 516.59 1000.74 521.80 1000.78 526.98 1001.00 C 562.48 1001.36 597.98 1000.90 633.47 1001.44 C 640.22 1002.78 647.10 1002.10 653.93 1002.23 C 664.30 1002.28 674.67 1002.27 685.04 1002.29 C 686.88 1002.11 688.50 1002.99 689.78 1004.26 C 693.75 1007.94 698.44 1010.99 701.29 1015.72 C 692.03 1016.52 682.64 1014.94 673.47 1016.79 C 649.99 1017.17 626.49 1016.84 603.00 1016.94 C 573.18 1016.85 543.36 1017.13 513.54 1016.79 C 521.60 1015.18 529.84 1016.47 537.98 1015.75 C 533.78 1010.81 528.63 1006.77 523.77 1002.54 C 519.68 1002.07 515.54 1002.19 511.46 1001.61 Z" />
</g>
<g id="#f06f43ff">
<path fill="#f06f43" opacity="1.00" d=" M 633.47 1001.44 C 637.74 1001.12 642.02 1000.75 646.31 1000.80 C 673.56 1000.67 700.79 1001.21 728.03 1001.09 C 751.77 1001.18 775.52 1001.04 799.25 1001.31 L 800.37 1000.86 C 805.85 1005.87 810.80 1011.42 816.24 1016.47 L 816.70 1016.91 C 768.96 1016.91 721.21 1017.11 673.47 1016.79 C 682.64 1014.94 692.03 1016.52 701.29 1015.72 C 698.44 1010.99 693.75 1007.94 689.78 1004.26 C 688.50 1002.99 686.88 1002.11 685.04 1002.29 C 674.67 1002.27 664.30 1002.28 653.93 1002.23 C 647.10 1002.10 640.22 1002.78 633.47 1001.44 Z" />
</g>
<g id="#c7c7c7ff">
<path fill="#c7c7c7" opacity="1.00" d=" M 870.24 1014.66 C 870.64 1017.09 871.09 1019.53 871.39 1022.00 C 871.65 1024.79 872.02 1027.64 871.58 1030.44 C 868.96 1032.37 865.84 1033.44 862.99 1034.98 C 862.67 1033.99 862.39 1033.00 862.16 1032.02 C 861.52 1029.38 860.94 1026.72 860.71 1024.02 C 861.09 1023.68 861.85 1022.98 862.23 1022.63 C 864.72 1022.68 867.22 1022.75 869.73 1022.77 C 869.94 1020.06 870.18 1017.36 870.24 1014.66 Z" />
</g>
<g id="#b2b2b2ff">
<path fill="#b2b2b2" opacity="1.00" d=" M 913.85 1015.12 C 917.19 1015.10 920.56 1015.04 923.87 1014.45 C 923.99 1016.87 923.74 1019.44 924.83 1021.72 C 925.02 1024.60 925.00 1027.49 925.06 1030.39 C 922.50 1032.44 919.56 1033.93 916.47 1035.00 C 915.36 1030.72 914.24 1026.42 913.82 1022.02 C 913.72 1019.71 913.76 1017.41 913.85 1015.12 Z" />
</g>
<g id="#dbdbdbff">
<path fill="#dbdbdb" opacity="1.00" d=" M 1115.15 1040.74 C 1116.72 1041.98 1117.98 1044.08 1120.24 1044.00 L 1119.92 1044.53 C 1118.03 1047.62 1116.40 1050.86 1114.81 1054.12 C 1112.18 1052.48 1110.01 1050.26 1107.93 1048.00 C 1110.42 1045.67 1112.94 1043.35 1115.15 1040.74 Z" />
</g>
<g id="#e3e3e3ff">
<path fill="#e3e3e3" opacity="1.00" d=" M 924.21 1049.00 C 926.63 1046.35 929.21 1043.86 931.95 1041.56 C 933.29 1042.79 934.80 1043.85 936.40 1044.76 C 934.78 1047.98 933.15 1051.19 931.50 1054.41 C 928.71 1053.13 926.40 1051.08 924.21 1049.00 Z" />
</g>
<g id="#0707076c">
<path fill="#070707" opacity="0.42" d=" M 1007.56 1076.74 C 1023.43 1069.13 1036.66 1057.24 1050.15 1046.18 C 1048.78 1049.59 1045.39 1051.42 1042.80 1053.81 C 1031.28 1063.17 1019.57 1072.70 1005.89 1078.75 C 992.46 1084.99 978.04 1089.31 963.33 1091.02 C 954.43 1090.71 945.45 1091.85 936.64 1090.31 C 946.52 1090.27 956.42 1090.44 966.30 1089.79 C 967.96 1089.31 969.67 1088.97 971.38 1088.64 C 977.84 1087.37 984.17 1085.60 990.47 1083.69 C 991.47 1083.35 992.50 1083.05 993.54 1082.77 C 994.54 1082.22 995.54 1081.66 996.56 1081.10 C 997.02 1081.03 997.94 1080.89 998.40 1080.82 C 1001.39 1079.33 1004.54 1078.19 1007.56 1076.74 Z" />
</g>
<g id="#0202025a">
<path fill="#020202" opacity="0.35" d=" M 1163.92 1057.44 C 1165.86 1060.43 1164.62 1064.14 1162.77 1066.84 C 1150.99 1082.02 1132.20 1091.31 1113.01 1091.65 C 1104.90 1091.93 1096.87 1090.24 1089.18 1087.82 C 1085.74 1086.57 1082.04 1085.42 1079.51 1082.63 C 1081.91 1083.48 1084.22 1084.56 1086.50 1085.72 C 1087.50 1086.02 1088.51 1086.34 1089.53 1086.68 C 1090.53 1086.99 1091.53 1087.34 1092.55 1087.70 C 1093.89 1088.00 1095.24 1088.30 1096.60 1088.68 C 1098.26 1088.97 1099.94 1089.30 1101.61 1089.69 C 1101.94 1089.75 1102.61 1089.86 1102.94 1089.92 C 1109.50 1089.97 1116.16 1090.58 1122.67 1089.46 C 1123.97 1089.09 1125.29 1088.73 1126.61 1088.32 C 1127.92 1088.03 1129.26 1087.75 1130.59 1087.42 C 1143.39 1083.48 1155.16 1075.54 1162.91 1064.54 C 1163.01 1064.06 1163.20 1063.12 1163.30 1062.65 C 1163.61 1061.56 1163.89 1060.47 1164.15 1059.38 C 1164.09 1058.90 1163.98 1057.93 1163.92 1057.44 Z" />
</g>
<g id="#0202022d">
<path fill="#020202" opacity="0.18" d=" M 1063.18 1068.56 C 1063.50 1068.92 1064.14 1069.63 1064.46 1069.99 C 1068.62 1074.82 1073.87 1078.41 1078.83 1082.34 C 1074.67 1081.30 1071.46 1078.34 1068.33 1075.59 C 1066.18 1073.61 1063.80 1071.56 1063.18 1068.56 Z" />
</g>
<g id="#0000004d">
<path fill="#000000" opacity="0.30" d=" M 906.47 1084.01 L 908.09 1084.00 C 908.52 1084.01 909.39 1084.03 909.82 1084.04 L 910.14 1084.79 C 910.70 1084.92 911.83 1085.16 912.39 1085.29 C 913.37 1085.65 914.37 1086.01 915.39 1086.38 C 916.68 1086.73 918.02 1087.03 919.36 1087.33 C 920.66 1087.72 922.00 1088.05 923.35 1088.38 C 924.98 1088.76 926.63 1089.07 928.29 1089.41 C 930.50 1089.91 932.77 1090.06 935.04 1090.20 C 935.44 1090.23 936.24 1090.28 936.64 1090.31 C 945.45 1091.85 954.43 1090.71 963.33 1091.02 C 957.01 1092.62 950.42 1091.60 943.99 1091.89 C 936.80 1092.15 929.64 1091.21 922.69 1089.46 C 917.17 1088.03 911.43 1086.94 906.47 1084.01 Z" />
</g>
</svg>
