<?xml version="1.0" encoding="UTF-8" ?>
<!DOCTYPE svg PUBLIC "-//W3C//DTD SVG 1.1//EN" "http://www.w3.org/Graphics/SVG/1.1/DTD/svg11.dtd">
<svg width="1276pt" height="1276pt" viewBox="0 0 1276 1276" version="1.1" xmlns="http://www.w3.org/2000/svg">
<g id="#ffffffff">
<path fill="#ffffff" opacity="1.00" d=" M 314.04 212.17 C 317.24 211.25 320.65 211.25 323.96 211.00 C 530.64 211.00 737.32 211.00 943.99 211.00 C 950.00 211.03 956.15 210.70 962.01 212.21 C 962.69 212.24 964.04 212.29 964.72 212.32 L 964.56 213.21 C 966.62 213.32 968.67 213.48 970.76 213.62 L 970.40 214.29 C 971.59 214.44 972.80 214.60 974.01 214.79 C 975.93 215.63 977.94 216.26 979.92 216.99 C 980.95 217.49 981.99 218.02 983.02 218.58 C 983.35 218.55 984.00 218.49 984.33 218.46 L 984.49 219.33 C 986.62 220.25 988.72 221.26 990.82 222.29 C 993.23 224.00 995.81 225.50 998.05 227.48 C 998.38 227.43 999.05 227.32 999.38 227.27 L 999.28 228.52 L 1000.07 228.58 C 1001.37 229.74 1002.70 230.86 1003.99 232.06 C 1005.60 233.60 1007.33 235.01 1009.00 236.50 L 1009.81 236.54 C 1009.75 236.86 1009.63 237.51 1009.57 237.83 C 1011.15 239.23 1012.65 240.72 1014.04 242.32 L 1014.69 242.47 L 1014.43 243.12 C 1015.43 244.32 1016.36 245.58 1017.33 246.84 C 1018.27 248.21 1019.26 249.56 1020.26 250.92 C 1020.97 252.54 1021.76 254.13 1022.58 255.71 L 1023.53 255.59 C 1023.50 255.94 1023.44 256.65 1023.42 257.00 C 1025.48 260.23 1026.47 263.97 1027.81 267.53 L 1028.44 267.32 C 1028.45 268.15 1028.48 269.81 1028.49 270.65 L 1029.34 270.29 C 1029.46 271.99 1029.63 273.68 1029.77 275.39 L 1030.34 275.32 C 1031.15 278.81 1031.17 282.47 1032.26 285.88 C 1032.43 377.96 1032.26 470.03 1032.35 562.11 C 1032.08 563.66 1032.82 564.65 1034.39 564.90 L 1034.33 565.68 L 1035.15 565.61 C 1035.60 565.93 1036.51 566.57 1036.97 566.89 C 1038.72 568.11 1040.44 569.41 1042.12 570.76 C 1043.52 571.75 1044.91 572.76 1046.35 573.72 L 1046.49 574.52 L 1047.65 574.47 L 1047.58 575.14 C 1049.30 576.10 1050.75 577.46 1052.14 578.88 C 1057.89 583.48 1062.83 589.03 1067.96 594.30 L 1068.00 594.51 C 1069.06 595.78 1070.21 596.98 1071.42 598.15 C 1071.36 598.47 1071.25 599.12 1071.20 599.44 L 1072.53 599.31 L 1072.51 600.01 C 1073.67 601.29 1074.80 602.63 1075.90 603.99 C 1076.80 605.38 1077.79 606.71 1078.73 608.09 C 1079.16 608.58 1080.01 609.56 1080.44 610.05 C 1080.42 610.37 1080.38 610.99 1080.36 611.31 L 1081.50 611.50 L 1081.33 612.66 L 1082.64 612.70 C 1082.56 613.12 1082.41 613.98 1082.33 614.40 L 1083.17 614.40 C 1084.47 616.67 1085.85 618.90 1086.96 621.29 L 1087.67 621.34 L 1087.38 622.57 L 1088.21 622.52 C 1089.13 624.76 1090.18 626.97 1091.49 629.02 C 1091.46 629.36 1091.40 630.03 1091.37 630.37 L 1092.68 630.61 C 1092.66 630.94 1092.60 631.61 1092.57 631.94 C 1093.91 634.01 1094.97 636.24 1095.83 638.55 L 1096.38 638.39 C 1096.43 639.22 1096.53 640.87 1096.59 641.69 L 1097.25 641.50 C 1098.11 644.02 1098.96 646.56 1099.93 649.06 C 1100.36 650.34 1100.82 651.67 1101.42 652.92 C 1101.48 653.62 1101.60 655.04 1101.66 655.75 L 1102.19 655.21 C 1102.44 656.51 1102.76 657.79 1103.15 659.07 C 1103.77 661.68 1104.30 664.32 1105.17 666.87 C 1105.37 668.74 1105.57 670.63 1105.73 672.53 L 1106.47 672.35 C 1106.54 674.79 1106.71 677.25 1106.74 679.70 L 1107.65 679.37 C 1107.66 681.40 1107.67 683.42 1107.69 685.46 L 1108.51 685.30 C 1108.80 697.82 1109.96 710.59 1107.84 722.99 C 1107.64 725.52 1107.43 728.06 1107.31 730.62 L 1106.60 730.23 C 1106.49 732.67 1106.34 735.13 1106.25 737.59 C 1106.07 737.53 1105.72 737.42 1105.55 737.37 C 1105.35 738.27 1104.95 740.08 1104.75 740.98 C 1103.96 744.53 1103.00 748.04 1102.29 751.61 C 1102.11 751.54 1101.74 751.40 1101.55 751.33 C 1101.54 752.15 1101.52 753.79 1101.52 754.61 C 1101.34 754.58 1100.99 754.53 1100.81 754.50 C 1100.06 758.34 1098.32 761.88 1097.27 765.64 L 1096.61 765.39 C 1096.53 766.21 1096.37 767.83 1096.30 768.64 L 1095.74 768.45 C 1094.84 770.65 1093.83 772.81 1092.89 775.00 C 1092.68 775.52 1092.25 776.57 1092.03 777.09 C 1090.32 780.07 1088.58 783.04 1087.13 786.17 C 1086.91 786.23 1086.46 786.36 1086.23 786.42 L 1086.61 787.52 C 1086.41 787.60 1086.02 787.74 1085.83 787.82 C 1084.94 789.72 1083.80 791.50 1082.47 793.12 C 1082.54 793.43 1082.67 794.06 1082.74 794.37 L 1081.85 794.31 C 1080.80 795.91 1079.76 797.51 1078.56 799.01 L 1078.72 799.68 L 1077.44 799.60 C 1077.51 800.06 1077.65 800.98 1077.71 801.44 L 1076.90 801.37 C 1075.61 803.39 1074.10 805.26 1072.37 806.93 C 1072.40 807.16 1072.46 807.62 1072.49 807.85 C 1071.61 808.53 1070.76 809.23 1069.93 809.95 C 1069.39 810.85 1068.86 811.76 1068.33 812.67 L 1067.89 812.51 C 1067.53 812.85 1066.80 813.52 1066.44 813.86 L 1066.66 814.19 C 1065.20 815.49 1063.75 816.80 1062.27 818.07 C 1062.38 818.29 1062.59 818.74 1062.69 818.96 C 1061.04 820.22 1059.44 821.54 1057.81 822.82 C 1057.56 823.05 1057.08 823.51 1056.83 823.75 C 1055.59 825.03 1054.36 826.32 1053.17 827.64 L 1052.43 827.42 L 1052.40 828.10 C 1050.68 829.44 1049.06 830.90 1047.34 832.23 C 1047.06 832.49 1046.50 833.01 1046.22 833.28 C 1045.36 833.82 1044.52 834.35 1043.67 834.89 L 1043.70 835.26 C 1042.01 836.30 1040.43 837.47 1038.81 838.60 C 1037.15 839.82 1035.50 841.06 1033.93 842.39 C 1033.56 842.40 1032.82 842.42 1032.45 842.43 C 1032.16 861.86 1032.43 881.30 1032.31 900.73 L 1033.50 900.32 L 1033.33 901.43 C 1035.75 901.46 1038.20 901.51 1040.64 901.54 L 1040.12 902.29 C 1045.42 902.46 1050.47 904.23 1055.56 905.59 L 1055.45 906.43 C 1056.23 906.47 1057.81 906.56 1058.60 906.60 L 1058.47 907.25 C 1060.85 907.85 1063.07 908.94 1065.19 910.18 C 1065.42 910.22 1065.88 910.32 1066.12 910.37 C 1067.01 911.01 1067.92 911.66 1068.85 912.30 C 1070.55 913.19 1072.19 914.22 1073.82 915.27 C 1076.68 917.30 1079.59 919.30 1082.01 921.89 C 1083.44 922.93 1084.78 924.11 1086.01 925.41 L 1086.35 925.36 C 1086.55 925.74 1086.95 926.51 1087.14 926.89 C 1088.48 928.40 1089.89 929.85 1091.40 931.23 C 1091.38 931.44 1091.33 931.86 1091.31 932.07 C 1092.19 932.98 1093.08 933.93 1093.98 934.87 C 1094.97 936.43 1095.93 938.00 1096.85 939.63 L 1097.55 939.64 C 1097.57 939.94 1097.62 940.55 1097.64 940.85 C 1099.09 943.12 1100.18 945.62 1101.55 947.96 C 1101.53 948.32 1101.51 949.03 1101.49 949.39 L 1102.75 949.52 C 1102.72 949.86 1102.67 950.56 1102.64 950.91 C 1103.58 952.84 1104.32 954.87 1105.21 956.85 C 1105.35 958.04 1105.50 959.25 1105.67 960.47 L 1106.58 960.40 C 1106.53 961.20 1106.45 962.79 1106.41 963.59 L 1107.34 963.32 C 1107.50 965.38 1107.66 967.43 1107.75 969.52 L 1108.44 969.46 C 1109.23 978.20 1109.18 986.99 1108.46 995.73 L 1107.74 995.53 C 1107.62 997.62 1107.45 999.73 1107.35 1001.85 L 1106.78 1001.37 C 1106.48 1003.66 1105.72 1005.84 1105.03 1008.04 C 1104.34 1009.99 1103.72 1011.96 1103.02 1013.92 C 1102.49 1014.95 1101.96 1015.98 1101.41 1017.01 C 1101.44 1017.33 1101.50 1017.98 1101.52 1018.31 L 1100.68 1018.49 C 1099.63 1020.90 1098.43 1023.24 1097.22 1025.58 L 1096.31 1025.55 C 1096.35 1025.89 1096.44 1026.55 1096.49 1026.88 C 1094.99 1028.77 1093.53 1030.70 1092.17 1032.69 L 1091.14 1032.62 C 1091.24 1032.93 1091.45 1033.56 1091.56 1033.88 C 1090.17 1035.08 1088.86 1036.38 1087.71 1037.82 C 1086.04 1040.03 1084.03 1041.96 1081.91 1043.73 C 1080.30 1044.97 1078.76 1046.29 1077.24 1047.62 L 1076.41 1047.46 L 1076.46 1048.23 C 1074.59 1049.54 1072.72 1050.85 1070.73 1051.96 L 1070.63 1052.63 L 1069.45 1052.26 C 1069.38 1052.50 1069.24 1052.97 1069.17 1053.20 C 1066.40 1054.54 1063.58 1055.81 1060.96 1057.43 C 1060.75 1057.46 1060.33 1057.51 1060.12 1057.54 C 1059.02 1058.25 1057.82 1058.73 1056.53 1058.96 L 1056.50 1059.24 C 1053.47 1060.23 1050.45 1061.29 1047.30 1061.81 L 1047.71 1062.40 C 1046.22 1062.45 1044.75 1062.50 1043.29 1062.57 L 1043.67 1063.31 C 1037.12 1064.19 1030.57 1063.19 1024.01 1063.39 C 924.76 1063.54 825.47 1063.26 726.25 1063.53 C 822.50 1063.64 918.79 1063.54 1015.05 1063.58 C 1022.28 1063.79 1029.61 1062.93 1036.76 1064.26 C 1013.20 1064.82 989.59 1064.34 966.01 1064.50 C 885.43 1064.46 804.85 1064.58 724.27 1064.45 C 724.81 1060.96 724.22 1057.47 724.07 1053.99 C 723.60 1052.02 723.46 1050.02 723.07 1048.06 C 722.76 1046.47 722.52 1044.90 722.31 1043.33 L 721.66 1043.63 C 721.59 1042.15 721.52 1040.68 721.45 1039.23 L 720.55 1039.64 C 720.51 1038.81 720.42 1037.15 720.38 1036.31 L 719.88 1036.56 C 719.34 1034.69 718.72 1032.86 718.02 1031.06 C 717.53 1030.02 717.02 1029.00 716.51 1028.01 C 716.52 1027.65 716.55 1026.94 716.56 1026.59 L 715.28 1026.44 C 715.31 1026.09 715.38 1025.39 715.41 1025.04 C 714.29 1023.38 713.27 1021.66 712.29 1019.94 C 712.00 1019.36 711.43 1018.21 711.14 1017.63 L 710.72 1017.53 C 709.79 1015.99 708.77 1014.51 707.79 1013.02 C 706.97 1011.94 706.14 1010.90 705.34 1009.84 C 701.21 1004.94 696.71 1000.23 691.60 996.36 C 690.67 995.60 689.75 994.87 688.84 994.13 C 688.55 993.92 687.97 993.50 687.68 993.28 C 685.43 991.72 683.12 990.24 680.68 989.02 L 680.67 988.67 C 677.71 987.40 674.77 986.09 672.03 984.42 C 671.67 984.44 670.95 984.50 670.60 984.52 L 670.60 983.72 C 666.87 982.56 663.21 981.14 659.36 980.38 C 659.44 980.22 659.58 979.89 659.65 979.73 C 657.91 979.63 656.16 979.48 654.44 979.41 L 654.73 978.68 C 652.11 978.56 649.50 978.30 646.90 978.11 C 643.05 976.94 638.94 977.78 634.98 977.52 C 630.35 977.22 625.86 978.69 621.24 978.69 L 621.59 979.48 C 620.15 979.47 618.72 979.48 617.29 979.50 L 617.54 980.27 C 616.33 980.40 615.13 980.56 613.94 980.75 C 611.23 981.96 608.35 982.74 605.50 983.52 L 605.34 984.12 C 603.55 984.76 601.78 985.47 600.02 986.19 C 598.41 986.98 596.81 987.78 595.23 988.63 L 595.41 989.59 C 595.05 989.54 594.33 989.42 593.96 989.36 C 592.19 990.59 590.37 991.75 588.51 992.85 L 588.44 993.17 C 587.23 993.99 586.06 994.86 584.85 995.68 C 582.72 997.22 580.92 999.15 578.84 1000.75 C 577.89 1001.64 576.97 1002.55 576.07 1003.50 L 575.81 1003.52 C 575.45 1003.84 574.73 1004.47 574.37 1004.79 L 574.63 1005.17 C 573.11 1006.81 571.58 1008.43 570.08 1010.10 C 569.90 1010.40 569.52 1011.00 569.33 1011.30 C 568.21 1012.70 567.16 1014.17 566.18 1015.67 L 565.33 1015.64 C 565.42 1016.07 565.60 1016.94 565.69 1017.38 L 564.38 1017.37 L 564.71 1018.61 L 563.92 1018.62 C 563.26 1020.08 562.52 1021.51 561.64 1022.87 C 561.08 1024.01 560.56 1025.18 560.09 1026.37 L 559.16 1026.56 C 559.27 1027.02 559.51 1027.93 559.62 1028.39 L 558.81 1028.47 C 557.40 1032.10 555.75 1035.70 555.14 1039.59 L 554.31 1039.39 C 554.35 1040.17 554.44 1041.74 554.48 1042.52 L 553.75 1042.53 C 553.17 1045.66 552.63 1048.80 551.96 1051.91 C 551.56 1055.88 551.23 1059.86 551.41 1063.86 L 550.11 1063.21 L 550.89 1064.52 C 448.26 1064.49 345.63 1064.50 243.00 1064.51 C 241.63 1064.62 240.34 1064.37 239.14 1063.75 C 237.55 1063.70 235.96 1063.67 234.38 1063.68 C 234.42 1063.44 234.52 1062.97 234.57 1062.74 C 232.51 1062.65 230.46 1062.51 228.42 1062.46 C 228.42 1062.29 228.42 1061.93 228.43 1061.75 C 224.33 1061.18 220.45 1059.70 216.58 1058.32 L 216.49 1057.79 C 213.37 1056.90 210.39 1055.47 207.80 1053.52 L 206.59 1053.77 L 206.66 1052.46 C 206.47 1052.50 206.08 1052.56 205.88 1052.60 C 204.56 1051.72 203.20 1050.89 201.91 1049.99 C 200.84 1049.30 199.77 1048.65 198.70 1048.03 L 198.71 1047.30 L 198.05 1047.31 C 194.39 1044.57 191.36 1041.16 188.06 1038.03 C 186.87 1036.70 185.73 1035.34 184.57 1034.02 L 184.47 1033.18 L 183.16 1033.40 C 183.25 1033.09 183.44 1032.46 183.53 1032.15 C 182.31 1030.79 181.20 1029.36 180.12 1027.91 C 179.92 1027.52 179.52 1026.75 179.32 1026.36 L 178.92 1026.29 C 177.54 1023.48 176.07 1020.71 174.46 1018.03 C 174.49 1017.68 174.54 1016.96 174.56 1016.61 L 173.65 1016.54 C 172.87 1013.99 172.02 1011.45 170.79 1009.10 C 170.74 1008.42 170.63 1007.06 170.58 1006.38 L 169.65 1006.63 C 169.59 1005.18 169.54 1003.75 169.48 1002.33 C 169.30 1002.37 168.92 1002.45 168.73 1002.48 C 168.56 1000.91 168.37 999.35 168.17 997.81 C 166.37 992.42 167.17 986.64 167.00 981.07 C 166.85 976.77 167.10 972.50 167.59 968.25 L 168.25 968.47 C 168.36 966.34 168.54 964.23 168.65 962.12 L 169.46 962.66 C 169.48 961.81 169.54 960.12 169.57 959.27 L 170.19 959.58 C 170.45 958.04 170.78 956.51 171.25 955.04 C 172.07 952.87 172.91 950.71 173.70 948.54 L 174.64 948.40 C 174.61 948.05 174.54 947.36 174.51 947.02 C 175.79 944.93 176.87 942.73 178.28 940.74 C 178.30 940.42 178.32 939.78 178.34 939.46 L 179.54 939.40 C 179.49 938.94 179.39 938.02 179.34 937.56 L 180.21 937.67 C 180.72 936.76 181.23 935.88 181.75 935.01 C 182.48 934.04 183.19 933.10 183.90 932.15 C 185.40 930.42 186.80 928.62 188.39 926.98 L 188.44 926.76 C 188.77 926.42 189.43 925.73 189.76 925.39 L 190.01 925.45 C 191.13 924.26 192.27 923.12 193.45 922.01 L 193.38 921.64 C 193.72 921.44 194.40 921.03 194.74 920.83 C 196.26 919.54 197.78 918.24 199.50 917.22 L 199.42 916.53 L 200.62 916.61 L 200.69 915.39 C 201.12 915.47 201.97 915.64 202.40 915.73 L 202.36 914.81 C 203.81 913.99 205.26 913.16 206.71 912.36 L 206.59 911.51 C 206.95 911.54 207.68 911.59 208.04 911.62 C 211.03 909.80 214.18 908.25 217.48 907.10 L 217.24 906.59 C 218.10 906.52 219.82 906.38 220.68 906.32 L 220.40 905.59 C 223.48 904.73 226.54 903.76 229.71 903.28 L 229.59 902.75 C 231.66 902.59 233.73 902.39 235.80 902.33 L 235.41 901.55 C 237.86 901.51 240.30 901.46 242.75 901.37 C 242.64 900.90 242.41 899.96 242.29 899.49 L 243.38 899.84 C 243.31 880.96 243.29 862.09 243.39 843.21 L 243.11 843.25 C 240.68 840.79 237.56 839.21 234.74 837.28 C 234.29 836.94 233.39 836.28 232.94 835.94 C 231.98 835.10 231.03 834.25 230.10 833.41 L 229.34 833.67 L 229.37 832.92 C 227.47 831.58 225.66 830.11 223.96 828.53 L 223.68 828.67 C 223.46 828.34 223.04 827.67 222.82 827.34 C 221.46 826.31 220.09 825.28 218.81 824.16 C 218.48 823.91 217.81 823.40 217.48 823.15 L 217.66 822.82 C 216.48 821.69 215.32 820.54 214.19 819.37 L 213.91 819.46 C 213.58 819.12 212.90 818.42 212.56 818.08 L 212.59 817.83 C 211.28 816.57 210.07 815.22 208.96 813.80 L 208.66 813.63 C 208.41 813.32 207.90 812.68 207.64 812.36 C 206.87 811.45 206.11 810.55 205.38 809.64 C 203.77 807.84 202.18 806.04 200.84 804.04 C 198.88 801.55 196.96 799.01 195.31 796.31 L 194.45 796.33 C 194.51 795.90 194.62 795.03 194.67 794.60 L 193.33 794.41 C 193.38 793.96 193.49 793.07 193.55 792.62 L 192.55 792.76 C 191.77 791.27 191.00 789.81 190.29 788.31 L 189.43 788.36 C 189.50 787.92 189.64 787.04 189.71 786.60 L 188.34 786.37 C 188.38 785.94 188.46 785.06 188.51 784.63 L 187.67 784.65 C 186.92 782.89 186.09 781.17 185.35 779.41 L 184.51 779.38 C 184.57 778.90 184.67 777.94 184.73 777.46 L 183.92 777.33 C 182.73 774.30 181.03 771.49 180.12 768.37 L 179.27 768.40 C 179.35 768.09 179.52 767.46 179.60 767.15 C 178.72 766.03 178.21 764.76 178.05 763.35 L 177.64 763.58 C 176.82 760.84 175.91 758.12 175.20 755.35 L 174.59 755.73 C 174.57 754.89 174.52 753.22 174.49 752.38 L 173.55 752.73 C 173.47 751.30 173.38 749.87 173.30 748.45 L 172.75 748.56 C 172.17 746.08 171.65 743.59 170.84 741.19 C 170.75 740.45 170.58 738.97 170.50 738.23 L 169.75 738.74 C 169.65 736.22 169.48 733.70 169.37 731.19 L 168.69 731.75 C 168.57 729.44 168.37 727.15 168.15 724.87 C 166.51 718.42 167.13 711.62 167.00 705.01 C 167.16 697.37 166.44 689.53 168.14 682.04 C 168.35 679.79 168.54 677.55 168.66 675.31 L 169.40 675.60 C 169.46 673.84 169.54 672.10 169.60 670.36 L 170.32 670.89 C 170.44 669.17 170.62 667.44 170.81 665.74 C 171.64 663.34 172.12 660.83 172.71 658.37 L 173.28 658.57 C 173.36 657.10 173.44 655.65 173.53 654.20 L 174.44 654.63 C 174.48 653.79 174.55 652.11 174.58 651.28 L 175.15 651.58 C 175.80 648.81 176.78 646.14 177.75 643.48 L 178.34 643.54 C 178.41 642.71 178.56 641.04 178.63 640.20 L 179.74 640.50 C 179.68 640.15 179.55 639.46 179.49 639.12 C 181.15 636.05 182.46 632.80 183.85 629.60 L 184.72 629.48 C 184.65 629.03 184.51 628.11 184.44 627.65 L 185.31 627.49 C 186.06 625.72 186.88 624.00 187.68 622.27 L 188.58 622.36 C 188.53 622.02 188.44 621.35 188.40 621.01 C 188.81 620.45 189.63 619.32 190.04 618.76 L 190.28 618.52 C 191.10 616.97 192.03 615.48 192.97 614.01 C 194.90 611.10 196.90 608.25 198.84 605.37 L 199.10 605.49 C 200.11 603.98 201.15 602.49 202.18 601.00 C 205.52 596.93 209.00 593.02 212.63 589.22 L 212.39 588.70 C 212.74 588.49 213.43 588.06 213.78 587.85 C 214.82 586.71 215.86 585.58 216.88 584.43 L 217.68 584.50 L 217.52 583.20 C 217.87 583.26 218.58 583.38 218.93 583.44 C 221.52 579.89 225.40 577.69 228.20 574.37 C 228.37 574.44 228.70 574.60 228.87 574.67 C 230.18 573.41 231.57 572.24 232.99 571.11 C 234.37 570.20 235.69 569.21 237.05 568.28 C 238.77 567.12 240.41 565.83 241.95 564.43 C 242.30 564.42 242.99 564.40 243.34 564.39 C 243.32 474.27 243.34 384.14 243.33 294.02 C 243.33 290.65 243.71 287.31 243.77 283.95 C 244.81 280.43 244.88 276.68 246.16 273.22 C 246.26 272.50 246.45 271.06 246.55 270.34 L 247.41 270.67 C 247.41 269.85 247.43 268.21 247.43 267.38 L 248.18 267.45 C 248.44 266.31 248.72 265.17 249.03 264.05 C 250.08 261.90 251.10 259.73 251.77 257.44 L 252.66 257.36 C 252.60 257.04 252.48 256.39 252.42 256.07 C 254.23 253.87 255.47 251.29 256.83 248.80 L 257.62 248.64 L 257.46 247.48 L 258.20 247.33 C 258.94 246.09 259.75 244.89 260.55 243.68 C 262.25 241.85 263.91 239.98 265.46 238.02 L 265.45 237.78 C 265.78 237.41 266.45 236.69 266.79 236.32 L 267.05 236.56 C 268.07 235.39 269.11 234.25 270.15 233.10 C 270.51 232.86 271.23 232.39 271.60 232.15 L 271.54 231.79 C 273.30 230.69 274.89 229.36 276.57 228.14 L 276.64 227.78 C 278.56 226.51 280.48 225.25 282.48 224.11 L 282.39 223.25 L 283.46 223.76 C 283.54 223.53 283.69 223.07 283.76 222.84 C 286.59 221.53 289.33 220.02 292.02 218.44 C 292.26 218.47 292.74 218.51 292.98 218.54 C 295.77 216.78 299.00 216.03 302.03 214.80 C 302.71 214.71 304.07 214.53 304.75 214.44 L 304.49 213.61 C 305.86 213.55 307.24 213.49 308.63 213.44 L 308.14 212.68 C 310.10 212.56 312.07 212.37 314.04 212.17 M 319.96 241.75 C 315.74 242.82 311.53 243.93 307.45 245.46 C 287.43 253.37 272.98 274.27 273.80 295.95 C 273.85 377.62 273.81 459.29 273.82 540.96 C 273.65 554.21 274.15 567.48 273.59 580.71 C 265.75 586.57 256.88 591.02 249.29 597.28 C 220.87 619.07 202.14 652.64 197.84 688.13 C 196.04 706.97 197.58 726.20 203.50 744.23 C 209.25 762.12 218.79 778.77 231.22 792.85 C 243.07 806.64 258.39 816.65 273.77 826.04 C 273.72 860.77 274.13 895.52 273.56 930.24 C 262.66 929.91 251.88 931.56 241.00 931.76 C 229.40 933.99 218.32 939.54 210.39 948.42 C 199.89 959.73 195.34 975.86 197.71 991.05 C 201.63 1014.02 222.37 1033.38 245.99 1033.75 C 313.65 1033.80 381.31 1033.76 448.97 1033.77 C 474.33 1033.63 499.71 1034.06 525.07 1033.56 C 525.47 1030.92 526.15 1028.35 527.05 1025.85 C 538.98 990.78 568.52 962.29 604.12 951.92 C 615.39 948.22 627.28 947.38 639.03 946.78 C 649.14 947.71 659.39 948.14 669.17 951.16 C 708.26 961.83 741.05 994.16 750.88 1033.64 C 781.93 1033.96 812.99 1033.68 844.04 1033.77 C 903.37 1033.77 962.70 1033.77 1022.03 1033.78 C 1028.06 1033.73 1034.26 1034.16 1040.10 1032.28 C 1052.94 1028.97 1064.29 1020.41 1071.11 1009.05 C 1074.87 1003.27 1076.65 996.55 1078.20 989.92 C 1081.45 968.50 1069.26 946.27 1049.96 936.74 C 1041.67 932.43 1032.21 931.25 1022.99 931.25 C 1016.19 930.20 1009.30 930.32 1002.44 930.23 C 1002.00 924.84 1002.21 919.43 1002.18 914.03 C 1002.16 885.67 1002.20 857.32 1002.16 828.97 C 1002.29 827.71 1001.85 826.02 1003.27 825.34 C 1007.84 822.21 1012.57 819.31 1017.24 816.33 C 1031.64 806.75 1044.36 794.62 1054.29 780.44 C 1066.60 762.86 1074.66 742.31 1077.44 721.02 C 1077.68 717.55 1077.68 714.06 1078.27 710.62 C 1079.34 704.11 1078.47 697.52 1078.19 691.00 C 1076.93 683.73 1076.09 676.38 1074.21 669.23 C 1068.64 648.76 1058.32 629.58 1044.13 613.80 C 1032.32 600.47 1017.61 590.19 1002.30 581.30 C 1002.03 487.53 1002.24 393.75 1002.19 299.97 C 1002.62 288.55 1000.18 276.89 994.03 267.17 C 986.57 255.37 974.63 246.42 961.06 243.02 C 951.47 241.34 941.73 240.99 932.00 241.25 C 738.01 241.25 544.01 241.25 350.02 241.25 C 340.00 241.30 329.97 241.00 319.96 241.75 Z" />
</g>
<g id="#fdbc1aff">
<path fill="#fdbc1a" opacity="1.00" d=" M 319.96 241.75 C 329.97 241.00 340.00 241.30 350.02 241.25 C 544.01 241.25 738.01 241.25 932.00 241.25 C 941.73 240.99 951.47 241.34 961.06 243.02 C 974.63 246.42 986.57 255.37 994.03 267.17 C 1000.18 276.89 1002.62 288.55 1002.19 299.97 C 1002.24 393.75 1002.03 487.53 1002.30 581.30 C 1017.61 590.19 1032.32 600.47 1044.13 613.80 C 1058.32 629.58 1068.64 648.76 1074.21 669.23 C 1076.09 676.38 1076.93 683.73 1078.19 691.00 C 1078.47 697.52 1079.34 704.11 1078.27 710.62 C 1077.68 714.06 1077.68 717.55 1077.44 721.02 C 1074.66 742.31 1066.60 762.86 1054.29 780.44 C 1044.36 794.62 1031.64 806.75 1017.24 816.33 C 1012.57 819.31 1007.84 822.21 1003.27 825.34 C 1001.85 826.02 1002.29 827.71 1002.16 828.97 C 1002.20 857.32 1002.16 885.67 1002.18 914.03 C 1002.21 919.43 1002.00 924.84 1002.44 930.23 C 1009.30 930.32 1016.19 930.20 1022.99 931.25 C 1032.21 931.25 1041.67 932.43 1049.96 936.74 C 1069.26 946.27 1081.45 968.50 1078.20 989.92 C 1076.65 996.55 1074.87 1003.27 1071.11 1009.05 C 1064.29 1020.41 1052.94 1028.97 1040.10 1032.28 C 1034.26 1034.16 1028.06 1033.73 1022.03 1033.78 C 962.70 1033.77 903.37 1033.77 844.04 1033.77 C 812.99 1033.68 781.93 1033.96 750.88 1033.64 C 741.05 994.16 708.26 961.83 669.17 951.16 C 659.39 948.14 649.14 947.71 639.03 946.78 C 627.28 947.38 615.39 948.22 604.12 951.92 C 568.52 962.29 538.98 990.78 527.05 1025.85 C 526.15 1028.35 525.47 1030.92 525.07 1033.56 C 499.71 1034.06 474.33 1033.63 448.97 1033.77 C 381.31 1033.76 313.65 1033.80 245.99 1033.75 C 222.37 1033.38 201.63 1014.02 197.71 991.05 C 195.34 975.86 199.89 959.73 210.39 948.42 C 218.32 939.54 229.40 933.99 241.00 931.76 C 251.88 931.56 262.66 929.91 273.56 930.24 C 274.13 895.52 273.72 860.77 273.77 826.04 C 258.39 816.65 243.07 806.64 231.22 792.85 C 218.79 778.77 209.25 762.12 203.50 744.23 C 197.58 726.20 196.04 706.97 197.84 688.13 C 202.14 652.64 220.87 619.07 249.29 597.28 C 256.88 591.02 265.75 586.57 273.59 580.71 C 274.15 567.48 273.65 554.21 273.82 540.96 C 273.81 459.29 273.85 377.62 273.80 295.95 C 272.98 274.27 287.43 253.37 307.45 245.46 C 311.53 243.93 315.74 242.82 319.96 241.75 M 432.99 374.08 C 430.54 374.40 428.08 374.51 425.62 374.59 L 425.59 375.29 C 419.60 375.82 413.77 377.45 408.02 379.15 C 407.05 379.45 406.08 379.77 405.12 380.10 C 397.20 382.49 389.48 385.57 382.09 389.29 C 367.03 396.65 353.25 406.51 340.99 417.91 C 320.66 437.42 305.26 462.09 297.00 489.05 C 296.57 490.36 296.15 491.69 295.71 493.01 C 295.51 494.02 295.31 495.03 295.12 496.05 C 292.58 505.85 290.45 515.83 290.24 525.98 C 289.35 532.64 289.30 539.40 289.80 546.09 C 290.67 551.02 290.01 556.13 291.29 561.00 C 291.48 562.96 291.66 564.93 291.94 566.89 C 293.47 572.22 294.11 577.77 295.78 583.08 C 296.20 584.37 296.58 585.66 296.99 586.97 C 298.37 590.99 299.49 595.11 301.29 598.97 C 301.42 599.45 301.69 600.40 301.83 600.87 C 304.26 606.73 307.35 612.28 310.05 618.01 C 326.40 647.48 351.68 672.07 382.08 686.75 C 389.38 690.59 397.16 693.44 404.97 696.06 C 405.97 696.39 406.96 696.74 407.96 697.10 C 413.26 698.65 418.71 699.60 424.02 701.11 C 434.93 702.93 445.98 703.71 457.02 704.12 C 461.99 703.40 467.05 703.74 472.00 702.98 C 476.75 702.60 481.53 702.23 486.12 700.85 C 487.75 700.57 489.38 700.34 491.02 700.10 C 494.98 698.96 499.05 698.26 502.96 696.95 C 508.42 695.32 513.81 693.44 519.08 691.27 C 522.38 689.73 525.77 688.41 529.07 686.86 C 539.94 681.11 550.53 674.75 559.99 666.84 C 561.21 665.84 562.43 664.85 563.66 663.86 C 569.66 658.45 575.47 652.74 580.81 646.67 C 590.19 635.95 598.05 623.90 604.33 611.13 C 606.17 607.51 607.82 603.79 609.32 600.02 C 611.13 595.79 612.52 591.40 613.97 587.03 C 616.11 579.80 617.74 572.42 619.22 565.03 C 621.85 547.13 621.85 528.88 619.22 510.98 C 618.64 508.67 618.29 506.33 617.79 504.01 C 616.46 498.97 615.68 493.77 613.74 488.91 C 613.64 488.38 613.44 487.31 613.33 486.78 C 611.78 482.88 610.59 478.84 608.85 475.02 C 607.33 471.29 605.79 467.57 603.85 464.04 C 599.53 455.39 594.65 446.96 588.63 439.38 L 588.33 438.44 C 586.77 436.67 585.29 434.86 583.83 433.03 C 566.43 411.55 543.42 394.92 517.95 384.31 C 513.70 382.58 509.29 381.30 505.00 379.69 C 504.30 379.54 503.60 379.40 502.91 379.26 C 497.48 377.02 491.58 376.55 485.97 374.94 C 477.03 373.54 468.02 372.18 458.94 372.55 C 452.61 372.76 446.23 372.05 439.94 373.01 C 437.61 373.26 435.22 373.31 432.99 374.08 M 797.96 374.00 C 789.56 375.01 781.12 376.40 773.11 379.20 C 772.58 379.33 771.52 379.58 770.99 379.71 C 766.30 381.44 761.47 382.75 756.90 384.77 C 753.90 386.10 750.85 387.30 747.88 388.68 C 739.02 393.22 730.36 398.18 722.38 404.15 C 715.11 409.21 708.78 415.42 702.19 421.27 C 698.88 425.30 695.15 428.95 691.90 433.03 C 684.35 442.31 677.73 452.35 672.32 463.03 C 670.40 466.69 668.75 470.49 667.22 474.34 L 666.79 474.51 C 665.18 479.32 663.41 484.07 661.71 488.85 C 659.86 495.59 658.35 502.42 656.81 509.24 C 653.54 530.29 653.45 552.05 658.19 572.88 C 659.12 577.69 660.50 582.40 661.71 587.16 C 663.39 591.93 665.18 596.68 666.79 601.49 L 667.21 601.66 C 668.57 605.54 670.37 609.25 672.33 612.87 C 674.81 618.43 678.13 623.54 681.27 628.75 C 686.31 636.25 691.82 643.46 698.02 650.06 C 703.12 656.62 709.85 661.59 716.00 667.11 C 725.53 674.86 735.98 681.49 747.03 686.87 C 750.56 688.81 754.33 690.26 758.07 691.75 C 761.89 693.65 766.06 694.64 769.97 696.30 C 770.58 696.36 771.80 696.49 772.42 696.55 L 772.42 697.20 C 782.87 699.50 793.26 702.38 804.00 702.98 C 811.96 703.50 819.99 704.74 827.97 703.56 C 833.71 703.65 839.36 702.65 845.08 702.22 C 846.79 701.62 848.61 701.49 850.42 701.35 L 850.40 700.72 C 856.36 700.08 862.31 698.83 867.94 696.74 C 868.95 696.55 869.97 696.37 871.00 696.20 C 879.16 693.19 887.26 690.01 895.10 686.23 C 897.44 684.91 899.79 683.58 902.19 682.35 C 931.27 665.70 955.39 640.20 969.78 609.89 C 971.28 606.64 972.83 603.42 974.17 600.11 C 975.65 596.47 976.85 592.73 978.05 588.99 C 978.37 587.93 978.71 586.88 979.06 585.83 C 979.43 584.58 979.83 583.34 980.26 582.11 C 981.84 576.16 982.86 570.08 984.12 564.06 C 986.67 548.98 985.64 533.60 985.34 518.39 L 984.58 518.41 C 984.53 516.24 984.49 514.06 983.96 511.96 C 982.93 505.89 981.83 499.82 980.26 493.87 C 979.82 492.64 979.42 491.39 979.05 490.16 C 978.70 489.10 978.37 488.05 978.05 487.00 C 976.85 483.26 975.54 479.56 974.11 475.90 C 966.94 458.91 957.46 442.79 945.19 428.96 C 925.26 406.04 898.94 388.91 870.01 379.72 C 869.51 379.61 868.50 379.38 867.99 379.27 C 864.09 377.87 860.05 376.94 855.99 376.19 C 851.73 375.15 847.39 374.49 843.04 374.01 C 837.42 372.89 831.67 372.41 825.96 372.54 C 816.61 372.70 807.14 371.90 797.96 374.00 Z" />
<path fill="#fdbc1a" opacity="1.00" d=" M 418.13 408.20 C 424.35 405.98 430.96 404.85 437.54 404.30 L 437.50 403.62 C 449.49 403.03 461.50 403.11 473.49 403.59 L 473.45 404.32 C 475.59 404.42 477.72 404.60 479.86 404.83 C 482.71 405.66 485.64 406.24 488.58 406.73 C 494.82 408.73 501.15 410.51 507.21 413.03 C 508.10 413.44 509.00 413.85 509.90 414.27 C 539.90 427.32 564.71 451.80 578.30 481.55 C 581.26 487.98 584.42 494.60 584.99 501.75 C 575.43 496.87 564.07 496.68 553.97 499.95 C 553.00 500.35 552.03 500.75 551.08 501.16 C 543.04 504.89 536.30 511.27 531.86 518.90 C 531.19 520.57 530.46 522.22 529.70 523.85 C 526.62 532.91 526.52 542.96 529.53 552.05 C 530.14 553.33 530.71 554.62 531.30 555.92 C 533.93 561.84 538.80 566.23 543.49 570.53 C 550.70 576.04 559.95 578.71 568.99 578.35 C 574.54 578.48 579.78 576.42 585.06 575.02 C 584.25 581.28 581.53 587.03 579.18 592.82 C 576.02 599.10 572.93 605.41 569.22 611.38 C 554.45 633.62 533.49 651.82 508.91 662.39 C 508.69 662.45 508.27 662.56 508.05 662.61 C 503.19 664.73 498.24 666.74 493.07 667.98 C 489.11 669.30 485.01 670.07 480.91 670.81 C 478.47 671.47 475.94 671.65 473.43 671.70 L 473.45 672.48 C 459.27 672.75 444.96 673.62 430.91 671.18 C 426.29 669.94 421.51 669.36 417.00 667.71 C 416.49 667.60 415.47 667.39 414.95 667.29 C 413.94 666.85 412.93 666.44 411.92 666.04 C 408.47 664.97 405.13 663.63 401.79 662.28 C 390.46 657.13 379.63 650.82 370.02 642.86 C 352.22 628.41 338.38 609.26 329.67 588.09 C 328.39 584.40 327.03 580.74 325.91 577.00 C 325.51 575.67 325.12 574.36 324.71 573.06 C 323.00 566.14 321.56 559.11 321.17 551.99 C 319.79 547.46 320.69 542.67 320.46 538.03 C 320.68 533.36 319.82 528.56 321.16 524.01 C 321.57 516.77 323.06 509.66 324.77 502.63 C 325.17 501.42 325.58 500.22 325.98 499.02 C 326.27 497.95 326.55 496.89 326.84 495.83 C 327.94 492.92 328.96 489.98 330.04 487.06 C 331.89 483.00 333.88 479.00 335.89 475.03 C 339.98 466.75 345.32 459.13 351.18 452.02 C 355.47 447.28 359.32 442.08 364.42 438.15 C 373.01 430.26 382.58 423.43 392.95 418.09 C 395.63 416.68 398.36 415.37 401.16 414.22 C 405.59 411.99 410.39 410.66 414.96 408.76 C 416.01 408.57 417.06 408.38 418.13 408.20 Z" />
<path fill="#fdbc1a" opacity="1.00" d=" M 782.96 408.14 C 789.26 406.00 795.90 404.75 802.54 404.30 L 802.51 403.60 C 814.50 403.06 826.51 403.06 838.50 403.62 L 838.46 404.30 C 845.08 404.79 851.67 406.10 857.97 408.20 C 858.47 408.33 859.47 408.57 859.97 408.70 C 878.65 414.48 896.07 424.28 910.58 437.43 C 914.48 441.23 918.27 445.14 922.14 448.97 C 932.28 460.93 940.65 474.37 946.47 488.94 C 948.08 493.88 949.65 498.84 951.24 503.80 C 953.07 511.41 954.63 519.12 954.83 526.98 C 956.39 533.98 955.21 541.32 955.47 548.47 L 954.66 548.48 C 954.86 556.85 952.97 565.09 950.99 573.18 C 950.56 574.40 950.18 575.65 949.76 576.88 C 948.35 581.34 947.00 585.82 945.16 590.13 C 941.19 599.63 936.08 608.65 930.05 617.01 C 923.47 626.23 915.35 634.22 907.00 641.82 C 897.19 649.78 886.51 656.86 874.85 661.80 C 871.39 663.52 867.73 664.77 864.09 666.03 C 863.07 666.43 862.06 666.84 861.06 667.28 C 860.03 667.45 859.01 667.63 858.01 667.83 C 853.82 669.39 849.39 670.07 845.09 671.19 C 831.04 673.59 816.73 672.77 802.55 672.48 L 802.57 671.69 C 795.81 671.79 789.39 669.51 782.84 668.22 C 777.89 666.40 772.80 664.96 767.97 662.83 C 760.94 659.77 754.15 656.18 747.60 652.21 C 735.88 644.32 724.85 635.20 716.03 624.09 C 710.22 617.32 705.40 609.77 701.06 602.00 C 699.30 598.38 697.54 594.78 695.72 591.20 C 693.93 585.51 691.04 580.13 690.18 574.19 C 700.94 579.60 714.22 579.80 725.09 574.62 L 725.89 574.47 C 734.46 570.13 741.31 562.85 745.43 554.21 C 745.53 553.67 745.75 552.59 745.85 552.05 C 749.55 543.20 749.34 532.83 745.86 523.95 C 745.76 523.41 745.54 522.34 745.43 521.80 C 741.03 513.00 734.06 505.36 725.01 501.25 C 724.01 500.80 723.01 500.36 722.02 499.93 C 711.62 496.60 700.04 496.94 690.16 501.80 C 691.21 495.61 694.03 489.90 696.11 484.02 C 697.82 480.71 699.44 477.35 701.06 474.00 C 710.15 457.45 722.53 442.78 737.40 431.15 C 746.61 424.24 756.46 418.17 767.04 413.59 C 767.27 413.54 767.72 413.43 767.95 413.38 C 771.82 411.62 775.87 410.32 779.81 408.73 C 780.85 408.53 781.90 408.33 782.96 408.14 Z" />
</g>
<g id="#000000ff">
<path fill="#000000" opacity="1.00" d=" M 432.99 374.08 C 435.22 373.31 437.61 373.26 439.94 373.01 C 446.23 372.05 452.61 372.76 458.94 372.55 C 468.02 372.18 477.03 373.54 485.97 374.94 C 491.58 376.55 497.48 377.02 502.91 379.26 C 503.60 379.40 504.30 379.54 505.00 379.69 C 509.29 381.30 513.70 382.58 517.95 384.31 C 543.42 394.92 566.43 411.55 583.83 433.03 C 585.29 434.86 586.77 436.67 588.33 438.44 L 588.63 439.38 C 594.65 446.96 599.53 455.39 603.85 464.04 C 605.79 467.57 607.33 471.29 608.85 475.02 C 610.59 478.84 611.78 482.88 613.33 486.78 C 613.44 487.31 613.64 488.38 613.74 488.91 C 615.68 493.77 616.46 498.97 617.79 504.01 C 618.29 506.33 618.64 508.67 619.22 510.98 C 621.85 528.88 621.85 547.13 619.22 565.03 C 617.74 572.42 616.11 579.80 613.97 587.03 C 612.52 591.40 611.13 595.79 609.32 600.02 C 607.82 603.79 606.17 607.51 604.33 611.13 C 598.05 623.90 590.19 635.95 580.81 646.67 C 575.47 652.74 569.66 658.45 563.66 663.86 C 562.43 664.85 561.21 665.84 559.99 666.84 C 550.53 674.75 539.94 681.11 529.07 686.86 C 525.77 688.41 522.38 689.73 519.08 691.27 C 513.81 693.44 508.42 695.32 502.96 696.95 C 499.05 698.26 494.98 698.96 491.02 700.10 C 489.38 700.34 487.75 700.57 486.12 700.85 C 481.53 702.23 476.75 702.60 472.00 702.98 C 467.05 703.74 461.99 703.40 457.02 704.12 C 445.98 703.71 434.93 702.93 424.02 701.11 C 418.71 699.60 413.26 698.65 407.96 697.10 C 406.96 696.74 405.97 696.39 404.97 696.06 C 397.16 693.44 389.38 690.59 382.08 686.75 C 351.68 672.07 326.40 647.48 310.05 618.01 C 307.35 612.28 304.26 606.73 301.83 600.87 C 301.69 600.40 301.42 599.45 301.29 598.97 C 299.49 595.11 298.37 590.99 296.99 586.97 C 296.58 585.66 296.20 584.37 295.78 583.08 C 294.11 577.77 293.47 572.22 291.94 566.89 C 291.66 564.93 291.48 562.96 291.29 561.00 C 290.01 556.13 290.67 551.02 289.80 546.09 C 289.30 539.40 289.35 532.64 290.24 525.98 C 290.45 515.83 292.58 505.85 295.12 496.05 C 295.31 495.03 295.51 494.02 295.71 493.01 C 296.15 491.69 296.57 490.36 297.00 489.05 C 305.26 462.09 320.66 437.42 340.99 417.91 C 353.25 406.51 367.03 396.65 382.09 389.29 C 389.48 385.57 397.20 382.49 405.12 380.10 C 406.08 379.77 407.05 379.45 408.02 379.15 C 413.77 377.45 419.60 375.82 425.59 375.29 L 425.62 374.59 C 428.08 374.51 430.54 374.40 432.99 374.08 M 418.13 408.20 C 417.06 408.38 416.01 408.57 414.96 408.76 C 410.39 410.66 405.59 411.99 401.16 414.22 C 398.36 415.37 395.63 416.68 392.95 418.09 C 382.58 423.43 373.01 430.26 364.42 438.15 C 359.32 442.08 355.47 447.28 351.18 452.02 C 345.32 459.13 339.98 466.75 335.89 475.03 C 333.88 479.00 331.89 483.00 330.04 487.06 C 328.96 489.98 327.94 492.92 326.84 495.83 C 326.55 496.89 326.27 497.95 325.98 499.02 C 325.58 500.22 325.17 501.42 324.77 502.63 C 323.06 509.66 321.57 516.77 321.16 524.01 C 319.82 528.56 320.68 533.36 320.46 538.03 C 320.69 542.67 319.79 547.46 321.17 551.99 C 321.56 559.11 323.00 566.14 324.71 573.06 C 325.12 574.36 325.51 575.67 325.91 577.00 C 327.03 580.74 328.39 584.40 329.67 588.09 C 338.38 609.26 352.22 628.41 370.02 642.86 C 379.63 650.82 390.46 657.13 401.79 662.28 C 405.13 663.63 408.47 664.97 411.92 666.04 C 412.93 666.44 413.94 666.85 414.95 667.29 C 415.47 667.39 416.49 667.60 417.00 667.71 C 421.51 669.36 426.29 669.94 430.91 671.18 C 444.96 673.62 459.27 672.75 473.45 672.48 L 473.43 671.70 C 475.94 671.65 478.47 671.47 480.91 670.81 C 485.01 670.07 489.11 669.30 493.07 667.98 C 498.24 666.74 503.19 664.73 508.05 662.61 C 508.27 662.56 508.69 662.45 508.91 662.39 C 533.49 651.82 554.45 633.62 569.22 611.38 C 572.93 605.41 576.02 599.10 579.18 592.82 C 581.53 587.03 584.25 581.28 585.06 575.02 C 579.78 576.42 574.54 578.48 568.99 578.35 C 559.95 578.71 550.70 576.04 543.49 570.53 C 538.80 566.23 533.93 561.84 531.30 555.92 C 530.71 554.62 530.14 553.33 529.53 552.05 C 526.52 542.96 526.62 532.91 529.70 523.85 C 530.46 522.22 531.19 520.57 531.86 518.90 C 536.30 511.27 543.04 504.89 551.08 501.16 C 552.03 500.75 553.00 500.35 553.97 499.95 C 564.07 496.68 575.43 496.87 584.99 501.75 C 584.42 494.60 581.26 487.98 578.30 481.55 C 564.71 451.80 539.90 427.32 509.90 414.27 C 509.00 413.85 508.10 413.44 507.21 413.03 C 501.15 410.51 494.82 408.73 488.58 406.73 C 485.64 406.24 482.71 405.66 479.86 404.83 C 477.72 404.60 475.59 404.42 473.45 404.32 L 473.49 403.59 C 461.50 403.11 449.49 403.03 437.50 403.62 L 437.54 404.30 C 430.96 404.85 424.35 405.98 418.13 408.20 Z" />
<path fill="#000000" opacity="1.00" d=" M 797.96 374.00 C 807.14 371.90 816.61 372.70 825.96 372.54 C 831.67 372.41 837.42 372.89 843.04 374.01 C 847.39 374.49 851.73 375.15 855.99 376.19 C 860.05 376.94 864.09 377.87 867.99 379.27 C 868.50 379.38 869.51 379.61 870.01 379.72 C 898.94 388.91 925.26 406.04 945.19 428.96 C 957.46 442.79 966.94 458.91 974.11 475.90 C 975.54 479.56 976.85 483.26 978.05 487.00 C 978.37 488.05 978.70 489.10 979.05 490.16 C 979.42 491.39 979.82 492.64 980.26 493.87 C 981.83 499.82 982.93 505.89 983.96 511.96 C 984.49 514.06 984.53 516.24 984.58 518.41 L 985.34 518.39 C 985.64 533.60 986.67 548.98 984.12 564.06 C 982.86 570.08 981.84 576.16 980.26 582.11 C 979.83 583.34 979.43 584.58 979.06 585.83 C 978.71 586.88 978.37 587.93 978.05 588.99 C 976.85 592.73 975.65 596.47 974.17 600.11 C 972.83 603.42 971.28 606.64 969.78 609.89 C 955.39 640.20 931.27 665.70 902.19 682.35 C 899.79 683.58 897.44 684.91 895.10 686.23 C 887.26 690.01 879.16 693.19 871.00 696.20 C 869.97 696.37 868.95 696.55 867.94 696.74 C 862.31 698.83 856.36 700.08 850.40 700.72 L 850.42 701.35 C 848.61 701.49 846.79 701.62 845.08 702.22 C 839.36 702.65 833.71 703.65 827.97 703.56 C 819.99 704.74 811.96 703.50 804.00 702.98 C 793.26 702.38 782.87 699.50 772.42 697.20 L 772.42 696.55 C 771.80 696.49 770.58 696.36 769.97 696.30 C 766.06 694.64 761.89 693.65 758.07 691.75 C 754.33 690.26 750.56 688.81 747.03 686.87 C 735.98 681.49 725.53 674.86 716.00 667.11 C 709.85 661.59 703.12 656.62 698.02 650.06 C 691.82 643.46 686.31 636.25 681.27 628.75 C 678.13 623.54 674.81 618.43 672.33 612.87 C 670.37 609.25 668.57 605.54 667.21 601.66 L 666.79 601.49 C 665.18 596.68 663.39 591.93 661.71 587.16 C 660.50 582.40 659.12 577.69 658.19 572.88 C 653.45 552.05 653.54 530.29 656.81 509.24 C 658.35 502.42 659.86 495.59 661.71 488.85 C 663.41 484.07 665.18 479.32 666.79 474.51 L 667.22 474.34 C 668.75 470.49 670.40 466.69 672.32 463.03 C 677.73 452.35 684.35 442.31 691.90 433.03 C 695.15 428.95 698.88 425.30 702.19 421.27 C 708.78 415.42 715.11 409.21 722.38 404.15 C 730.36 398.18 739.02 393.22 747.88 388.68 C 750.85 387.30 753.90 386.10 756.90 384.77 C 761.47 382.75 766.30 381.44 770.99 379.71 C 771.52 379.58 772.58 379.33 773.11 379.20 C 781.12 376.40 789.56 375.01 797.96 374.00 M 782.96 408.14 C 781.90 408.33 780.85 408.53 779.81 408.73 C 775.87 410.32 771.82 411.62 767.95 413.38 C 767.72 413.43 767.27 413.54 767.04 413.59 C 756.46 418.17 746.61 424.24 737.40 431.15 C 722.53 442.78 710.15 457.45 701.06 474.00 C 699.44 477.35 697.82 480.71 696.11 484.02 C 694.03 489.90 691.21 495.61 690.16 501.80 C 700.04 496.94 711.62 496.60 722.02 499.93 C 723.01 500.36 724.01 500.80 725.01 501.25 C 734.06 505.36 741.03 513.00 745.43 521.80 C 745.54 522.34 745.76 523.41 745.86 523.95 C 749.34 532.83 749.55 543.20 745.85 552.05 C 745.75 552.59 745.53 553.67 745.43 554.21 C 741.31 562.85 734.46 570.13 725.89 574.47 L 725.09 574.62 C 714.22 579.80 700.94 579.60 690.18 574.19 C 691.04 580.13 693.93 585.51 695.72 591.20 C 697.54 594.78 699.30 598.38 701.06 602.00 C 705.40 609.77 710.22 617.32 716.03 624.09 C 724.85 635.20 735.88 644.32 747.60 652.21 C 754.15 656.18 760.94 659.77 767.97 662.83 C 772.80 664.96 777.89 666.40 782.84 668.22 C 789.39 669.51 795.81 671.79 802.57 671.69 L 802.55 672.48 C 816.73 672.77 831.04 673.59 845.09 671.19 C 849.39 670.07 853.82 669.39 858.01 667.83 C 859.01 667.63 860.03 667.45 861.06 667.28 C 862.06 666.84 863.07 666.43 864.09 666.03 C 867.73 664.77 871.39 663.52 874.85 661.80 C 886.51 656.86 897.19 649.78 907.00 641.82 C 915.35 634.22 923.47 626.23 930.05 617.01 C 936.08 608.65 941.19 599.63 945.16 590.13 C 947.00 585.82 948.35 581.34 949.76 576.88 C 950.18 575.65 950.56 574.40 950.99 573.18 C 952.97 565.09 954.86 556.85 954.66 548.48 L 955.47 548.47 C 955.21 541.32 956.39 533.98 954.83 526.98 C 954.63 519.12 953.07 511.41 951.24 503.80 C 949.65 498.84 948.08 493.88 946.47 488.94 C 940.65 474.37 932.28 460.93 922.14 448.97 C 918.27 445.14 914.48 441.23 910.58 437.43 C 896.07 424.28 878.65 414.48 859.97 408.70 C 859.47 408.57 858.47 408.33 857.97 408.20 C 851.67 406.10 845.08 404.79 838.46 404.30 L 838.50 403.62 C 826.51 403.06 814.50 403.06 802.51 403.60 L 802.54 404.30 C 795.90 404.75 789.26 406.00 782.96 408.14 Z" />
</g>
</svg>
