<?xml version="1.0" encoding="UTF-8" ?>
<!DOCTYPE svg PUBLIC "-//W3C//DTD SVG 1.1//EN" "http://www.w3.org/Graphics/SVG/1.1/DTD/svg11.dtd">
<svg width="1276pt" height="1276pt" viewBox="0 0 1276 1276" version="1.1" xmlns="http://www.w3.org/2000/svg">
<g id="#e81c24ff">
<path fill="#e81c24" opacity="1.00" d=" M 220.95 217.96 C 242.59 196.80 272.77 184.76 303.03 185.00 C 526.37 185.00 749.71 184.99 973.05 185.01 C 989.39 184.91 1005.71 188.35 1020.69 194.87 C 1004.28 200.17 987.24 203.27 970.56 207.61 C 889.03 227.40 807.47 247.09 725.95 266.93 C 713.76 269.51 701.81 273.14 689.60 275.62 C 647.81 285.99 605.92 295.89 564.11 306.18 C 550.86 308.95 537.88 312.85 524.63 315.64 C 411.44 343.17 298.19 370.48 185.00 398.03 C 185.01 370.67 184.99 343.31 185.00 315.94 C 185.05 305.92 184.64 295.83 186.18 285.89 C 189.79 260.23 202.18 235.85 220.95 217.96 Z" />
</g>
<g id="#dd1b22ff">
<path fill="#dd1b22" opacity="1.00" d=" M 1020.69 194.87 C 1046.20 206.00 1067.43 226.51 1079.43 251.63 C 1039.40 261.67 999.20 270.98 959.17 281.02 C 959.19 272.22 959.33 263.42 959.18 254.62 C 939.77 254.05 920.42 256.21 901.31 259.46 C 866.48 265.40 832.26 275.75 800.75 291.87 C 767.01 308.89 736.01 331.55 710.21 359.22 C 696.99 361.32 684.25 365.62 671.15 368.29 C 606.83 383.97 542.44 399.43 478.13 415.15 C 464.05 418.19 450.22 422.27 436.11 425.16 C 420.44 429.37 404.52 432.55 388.86 436.78 C 372.63 440.38 356.59 444.81 340.36 448.37 C 330.20 450.92 320.07 453.61 309.82 455.82 C 268.25 466.05 226.61 476.01 185.00 486.14 C 185.02 456.77 184.99 427.40 185.00 398.03 C 298.19 370.48 411.44 343.17 524.63 315.64 C 537.88 312.85 550.86 308.95 564.11 306.18 C 605.92 295.89 647.81 285.99 689.60 275.62 C 701.81 273.14 713.76 269.51 725.95 266.93 C 807.47 247.09 889.03 227.40 970.56 207.61 C 987.24 203.27 1004.28 200.17 1020.69 194.87 Z" />
</g>
<g id="#d31a21ff">
<path fill="#d31a21" opacity="1.00" d=" M 959.17 281.02 C 999.20 270.98 1039.40 261.67 1079.43 251.63 C 1086.81 266.98 1090.80 283.96 1090.98 300.99 C 1091.03 309.56 1090.97 318.13 1090.99 326.70 C 1063.99 332.90 1037.10 339.55 1010.20 346.16 C 993.13 349.90 976.34 354.77 959.19 358.17 C 959.23 332.45 959.09 306.73 959.17 281.02 Z" />
</g>
<g id="#800000ff">
<path fill="#800000" opacity="1.00" d=" M 901.31 259.46 C 920.42 256.21 939.77 254.05 959.18 254.62 C 959.33 263.42 959.19 272.22 959.17 281.02 C 959.09 306.73 959.23 332.45 959.19 358.17 C 959.00 371.17 959.40 384.18 959.01 397.18 C 958.99 351.81 958.99 306.43 959.01 261.05 C 941.58 260.71 924.15 262.10 906.95 264.93 C 879.27 269.39 851.87 276.20 825.87 286.80 C 799.90 297.25 775.30 311.05 752.78 327.65 C 726.21 347.14 702.72 370.90 684.08 398.10 C 664.90 425.33 647.47 453.82 632.50 483.59 C 614.81 518.39 600.19 554.65 586.43 591.15 C 570.73 632.48 554.59 673.72 535.29 713.53 C 518.62 747.73 498.86 780.89 472.49 808.57 C 462.16 819.55 451.10 829.91 439.00 838.92 C 425.82 848.77 410.98 856.34 395.26 861.18 C 374.24 867.78 352.21 870.02 330.38 872.15 C 330.40 870.08 330.44 868.02 330.49 865.98 C 345.78 863.83 361.29 862.92 376.41 859.54 C 400.27 855.00 423.40 845.38 442.32 829.99 C 454.13 821.04 464.59 810.48 474.81 799.80 C 495.44 777.52 512.30 751.95 526.29 725.06 C 546.44 686.71 562.84 646.53 578.44 606.15 C 587.51 582.46 596.36 558.68 606.11 535.25 C 619.65 502.48 635.11 470.47 653.05 439.86 C 662.95 423.11 673.62 406.82 684.82 390.92 C 692.54 379.78 701.07 369.23 710.21 359.22 C 736.01 331.55 767.01 308.89 800.75 291.87 C 832.26 275.75 866.48 265.40 901.31 259.46 Z" />
<path fill="#800000" opacity="1.00" d=" M 762.18 563.02 C 759.94 561.62 761.29 558.73 761.91 556.80 C 762.45 556.94 763.55 557.22 764.09 557.35 C 768.61 558.69 773.35 558.75 778.02 558.89 C 810.77 559.35 843.52 558.76 876.27 559.09 C 876.23 561.21 876.19 563.34 876.16 565.47 C 859.44 565.45 842.71 565.49 825.99 565.46 C 809.00 565.51 792.00 565.71 775.02 565.27 C 770.71 564.92 766.06 565.18 762.18 563.02 Z" />
</g>
<g id="#fcfcfcff">
<path fill="#fcfcfc" opacity="1.00" d=" M 906.95 264.93 C 924.15 262.10 941.58 260.71 959.01 261.05 C 958.99 306.43 958.99 351.81 959.01 397.18 C 958.98 399.15 959.02 401.13 959.08 403.11 C 943.45 404.34 927.78 405.88 912.53 409.68 C 893.28 414.43 874.71 422.18 858.07 433.01 C 846.61 440.64 836.40 449.98 826.82 459.83 C 826.46 457.58 826.10 455.32 826.01 453.05 C 825.95 397.64 826.20 342.21 825.87 286.80 C 851.87 276.20 879.27 269.39 906.95 264.93 Z" />
</g>
<g id="#f8f8f8ff">
<path fill="#f8f8f8" opacity="1.00" d=" M 752.78 327.65 C 775.30 311.05 799.90 297.25 825.87 286.80 C 826.20 342.21 825.95 397.64 826.01 453.05 C 826.10 455.32 826.46 457.58 826.82 459.83 C 799.85 488.13 778.07 521.23 761.91 556.80 C 761.29 558.73 759.94 561.62 762.18 563.02 C 766.06 565.18 770.71 564.92 775.02 565.27 C 792.00 565.71 809.00 565.51 825.99 565.46 C 826.11 613.21 825.81 660.96 826.13 708.70 C 830.24 708.66 834.34 709.04 838.41 709.70 C 809.95 710.01 781.48 710.03 753.01 710.21 C 752.93 592.47 753.04 474.73 752.96 356.99 C 752.95 347.21 753.24 337.42 752.78 327.65 Z" />
</g>
<g id="#ca1920ff">
<path fill="#ca1920" opacity="1.00" d=" M 1010.20 346.16 C 1037.10 339.55 1063.99 332.90 1090.99 326.70 C 1091.01 343.14 1090.99 359.58 1091.00 376.03 C 1079.91 378.31 1069.02 381.43 1058.00 383.97 C 1043.14 387.20 1028.52 391.43 1013.65 394.60 C 996.16 399.21 978.41 402.76 961.00 407.66 C 960.47 408.94 959.95 410.22 959.39 411.48 C 959.21 411.51 958.85 411.55 958.66 411.57 C 959.00 408.76 959.17 405.93 959.08 403.11 C 959.02 401.13 958.98 399.15 959.01 397.18 C 959.40 384.18 959.00 371.17 959.19 358.17 C 976.34 354.77 993.13 349.90 1010.20 346.16 Z" />
</g>
<g id="#f4f4f4ff">
<path fill="#f4f4f4" opacity="1.00" d=" M 684.08 398.10 C 702.72 370.90 726.21 347.14 752.78 327.65 C 753.24 337.42 752.95 347.21 752.96 356.99 C 753.04 474.73 752.93 592.47 753.01 710.21 C 735.11 710.31 717.20 710.44 699.30 710.47 C 679.94 754.11 658.96 797.13 633.98 837.87 C 632.53 832.37 633.06 826.67 633.01 821.06 C 633.04 711.05 632.99 601.04 633.05 491.04 C 632.97 488.54 632.73 486.06 632.50 483.59 C 647.47 453.82 664.90 425.33 684.08 398.10 Z" />
</g>
<g id="#d11a21ff">
<path fill="#d11a21" opacity="1.00" d=" M 671.15 368.29 C 684.25 365.62 696.99 361.32 710.21 359.22 C 701.07 369.23 692.54 379.78 684.82 390.92 C 673.62 406.82 662.95 423.11 653.05 439.86 C 610.76 449.74 568.63 460.36 526.38 470.41 C 412.60 498.08 298.77 525.49 185.00 553.20 C 185.01 530.84 184.99 508.49 185.00 486.14 C 226.61 476.01 268.25 466.05 309.82 455.82 C 320.07 453.61 330.20 450.92 340.36 448.37 C 356.59 444.81 372.63 440.38 388.86 436.78 C 404.52 432.55 420.44 429.37 436.11 425.16 C 450.22 422.27 464.05 418.19 478.13 415.15 C 542.44 399.43 606.83 383.97 671.15 368.29 Z" />
</g>
<g id="#c2191fff">
<path fill="#c2191f" opacity="1.00" d=" M 1058.00 383.97 C 1069.02 381.43 1079.91 378.31 1091.00 376.03 C 1091.01 397.07 1090.99 418.11 1091.00 439.15 C 1080.39 441.94 1069.78 444.70 1059.07 447.06 C 984.27 465.30 909.41 483.33 834.59 501.52 C 822.98 504.07 811.51 507.20 799.98 510.06 C 797.52 510.61 794.99 510.73 792.49 510.89 C 801.44 497.59 811.41 484.98 822.20 473.13 C 834.42 459.96 847.66 447.45 863.15 438.17 C 874.47 431.56 886.40 425.93 898.89 421.91 C 918.16 415.46 938.45 412.72 958.66 411.57 C 958.85 411.55 959.21 411.51 959.39 411.48 C 959.95 410.22 960.47 408.94 961.00 407.66 C 978.41 402.76 996.16 399.21 1013.65 394.60 C 1028.52 391.43 1043.14 387.20 1058.00 383.97 Z" />
</g>
<g id="#ff0000ff">
<path fill="#ff0000" opacity="1.00" d=" M 912.53 409.68 C 927.78 405.88 943.45 404.34 959.08 403.11 C 959.17 405.93 959.00 408.76 958.66 411.57 C 938.45 412.72 918.16 415.46 898.89 421.91 C 886.40 425.93 874.47 431.56 863.15 438.17 C 847.66 447.45 834.42 459.96 822.20 473.13 C 811.41 484.98 801.44 497.59 792.49 510.89 C 782.34 525.60 773.49 541.17 765.73 557.26 C 765.32 557.29 764.50 557.33 764.09 557.35 C 763.55 557.22 762.45 556.94 761.91 556.80 C 778.07 521.23 799.85 488.13 826.82 459.83 C 836.40 449.98 846.61 440.64 858.07 433.01 C 874.71 422.18 893.28 414.43 912.53 409.68 Z" />
<path fill="#ff0000" opacity="1.00" d=" M 699.30 710.47 C 717.20 710.44 735.11 710.31 753.01 710.21 C 781.48 710.03 809.95 710.01 838.41 709.70 C 851.05 709.85 863.70 709.44 876.34 709.68 C 876.31 712.40 876.29 715.13 876.32 717.86 C 859.67 717.94 843.02 717.95 826.38 718.23 C 785.25 718.08 744.12 718.71 703.00 718.70 C 701.30 718.67 699.11 718.56 698.60 720.64 C 694.28 730.07 690.06 739.56 685.69 748.97 C 673.12 776.19 659.29 802.82 644.41 828.85 C 632.08 850.35 618.76 871.30 604.33 891.45 C 584.89 918.30 561.43 942.26 534.65 961.83 C 508.26 980.74 478.69 995.05 447.71 1004.67 C 418.60 1013.65 388.43 1019.15 358.08 1021.54 C 348.92 1022.40 339.73 1022.16 330.55 1022.44 C 330.53 1019.62 330.45 1016.81 330.39 1014.00 C 367.32 1014.54 404.21 1008.69 439.72 998.76 C 474.46 988.86 507.75 973.34 536.83 951.81 C 559.33 935.30 579.23 915.38 596.42 893.43 C 610.13 875.75 622.43 857.01 633.98 837.87 C 658.96 797.13 679.94 754.11 699.30 710.47 Z" />
</g>
<g id="#b9181dff">
<path fill="#b9181d" opacity="1.00" d=" M 1059.07 447.06 C 1069.78 444.70 1080.39 441.94 1091.00 439.15 C 1091.01 462.76 1090.99 486.37 1091.00 509.98 C 1079.37 512.41 1067.93 515.66 1056.37 518.37 C 1045.04 520.68 1033.96 524.02 1022.67 526.51 C 1012.06 528.76 1001.64 531.80 991.05 534.11 C 978.92 536.79 966.99 540.29 954.84 542.84 C 929.11 549.07 903.44 555.50 877.66 561.46 C 877.18 560.66 876.72 559.87 876.27 559.09 C 843.52 558.76 810.77 559.35 778.02 558.89 C 773.35 558.75 768.61 558.69 764.09 557.35 C 764.50 557.33 765.32 557.29 765.73 557.26 C 773.49 541.17 782.34 525.60 792.49 510.89 C 794.99 510.73 797.52 510.61 799.98 510.06 C 811.51 507.20 822.98 504.07 834.59 501.52 C 909.41 483.33 984.27 465.30 1059.07 447.06 Z" />
</g>
<g id="#c7191fff">
<path fill="#c7191f" opacity="1.00" d=" M 526.38 470.41 C 568.63 460.36 610.76 449.74 653.05 439.86 C 635.11 470.47 619.65 502.48 606.11 535.25 C 596.35 538.88 585.95 540.14 575.98 542.99 C 503.63 560.70 431.18 577.97 358.84 595.69 C 347.94 597.92 337.31 601.24 326.40 603.44 C 279.30 615.01 232.11 626.25 185.00 637.82 C 185.02 609.61 184.99 581.40 185.00 553.20 C 298.77 525.49 412.60 498.08 526.38 470.41 Z" />
</g>
<g id="#f0f0f0ff">
<path fill="#f0f0f0" opacity="1.00" d=" M 586.43 591.15 C 600.19 554.65 614.81 518.39 632.50 483.59 C 632.73 486.06 632.97 488.54 633.05 491.04 C 632.99 601.04 633.04 711.05 633.01 821.06 C 633.06 826.67 632.53 832.37 633.98 837.87 C 622.43 857.01 610.13 875.75 596.42 893.43 C 579.23 915.38 559.33 935.30 536.83 951.81 C 535.33 945.63 536.09 939.26 536.02 932.98 C 536.06 862.32 535.99 791.65 536.04 720.99 C 535.97 718.48 535.65 716.00 535.29 713.53 C 554.59 673.72 570.73 632.48 586.43 591.15 Z" />
</g>
<g id="#ae171cff">
<path fill="#ae171c" opacity="1.00" d=" M 1056.37 518.37 C 1067.93 515.66 1079.37 512.41 1091.00 509.98 C 1091.01 535.89 1090.99 561.80 1090.99 587.72 C 1079.56 590.27 1068.13 592.82 1056.80 595.80 C 996.94 610.21 937.11 624.79 877.26 639.29 C 876.87 657.21 877.22 675.13 876.94 693.04 C 876.87 696.30 877.00 699.56 877.18 702.81 C 877.36 705.13 877.13 707.48 876.34 709.68 C 875.77 681.48 876.26 653.26 876.10 625.05 C 876.13 605.19 876.03 585.33 876.16 565.47 C 876.19 563.34 876.23 561.21 876.27 559.09 C 876.72 559.87 877.18 560.66 877.66 561.46 C 903.44 555.50 929.11 549.07 954.84 542.84 C 966.99 540.29 978.92 536.79 991.05 534.11 C 1001.64 531.80 1012.06 528.76 1022.67 526.51 C 1033.96 524.02 1045.04 520.68 1056.37 518.37 Z" />
</g>
<g id="#bc181eff">
<path fill="#bc181e" opacity="1.00" d=" M 575.98 542.99 C 585.95 540.14 596.35 538.88 606.11 535.25 C 596.36 558.68 587.51 582.46 578.44 606.15 C 563.49 609.39 548.64 613.07 533.82 616.86 C 521.41 619.47 509.18 622.88 496.83 625.72 C 392.88 650.84 288.98 676.22 185.00 701.22 C 185.01 680.09 184.99 658.95 185.00 637.82 C 232.11 626.25 279.30 615.01 326.40 603.44 C 337.31 601.24 347.94 597.92 358.84 595.69 C 431.18 577.97 503.63 560.70 575.98 542.99 Z" />
</g>
<g id="#fbfbfbff">
<path fill="#fbfbfb" opacity="1.00" d=" M 825.99 565.46 C 842.71 565.49 859.44 565.45 876.16 565.47 C 876.03 585.33 876.13 605.19 876.10 625.05 C 876.26 653.26 875.77 681.48 876.34 709.68 C 863.70 709.44 851.05 709.85 838.41 709.70 C 834.34 709.04 830.24 708.66 826.13 708.70 C 825.81 660.96 826.11 613.21 825.99 565.46 Z" />
</g>
<g id="#a4161bff">
<path fill="#a4161b" opacity="1.00" d=" M 1056.80 595.80 C 1068.13 592.82 1079.56 590.27 1090.99 587.72 C 1091.01 608.80 1090.98 629.89 1091.00 650.98 C 1019.73 668.27 948.43 685.47 877.18 702.81 C 877.00 699.56 876.87 696.30 876.94 693.04 C 877.22 675.13 876.87 657.21 877.26 639.29 C 937.11 624.79 996.94 610.21 1056.80 595.80 Z" />
</g>
<g id="#b0171cff">
<path fill="#b0171c" opacity="1.00" d=" M 533.82 616.86 C 548.64 613.07 563.49 609.39 578.44 606.15 C 562.84 646.53 546.44 686.71 526.29 725.06 C 515.33 726.10 504.88 729.85 494.16 732.17 C 480.88 734.93 467.87 738.83 454.60 741.64 C 445.47 743.69 436.47 746.27 427.35 748.37 C 416.02 750.67 404.93 753.97 393.65 756.49 C 382.01 759.01 370.56 762.28 358.95 764.90 C 338.30 769.86 317.65 774.81 297.05 779.99 C 290.28 781.51 283.50 782.98 276.79 784.77 C 265.04 787.91 253.10 790.25 241.35 793.37 C 231.22 796.13 220.89 798.04 210.75 800.78 C 202.23 803.11 193.51 804.62 185.00 807.01 C 185.02 771.75 184.99 736.49 185.00 701.22 C 288.98 676.22 392.88 650.84 496.83 625.72 C 509.18 622.88 521.41 619.47 533.82 616.86 Z" />
</g>
<g id="#9a1619ff">
<path fill="#9a1619" opacity="1.00" d=" M 877.18 702.81 C 948.43 685.47 1019.73 668.27 1091.00 650.98 C 1091.01 674.59 1090.99 698.21 1091.00 721.83 C 1072.99 725.36 1055.35 730.50 1037.44 734.44 C 908.99 765.77 780.42 796.63 651.98 827.98 C 649.48 828.49 646.94 828.66 644.41 828.85 C 659.29 802.82 673.12 776.19 685.69 748.97 C 695.05 747.44 704.11 744.54 713.35 742.42 C 728.76 739.07 743.95 734.77 759.37 731.41 C 774.57 727.40 789.96 724.19 805.16 720.17 C 812.11 718.25 819.41 720.10 826.38 718.23 C 843.02 717.95 859.67 717.94 876.32 717.86 C 876.29 715.13 876.31 712.40 876.34 709.68 C 877.13 707.48 877.36 705.13 877.18 702.81 Z" />
</g>
<g id="#ecececff">
<path fill="#ececec" opacity="1.00" d=" M 535.29 713.53 C 535.65 716.00 535.97 718.48 536.04 720.99 C 535.99 791.65 536.06 862.32 536.02 932.98 C 536.09 939.26 535.33 945.63 536.83 951.81 C 507.75 973.34 474.46 988.86 439.72 998.76 C 438.74 993.88 438.88 988.90 439.02 983.96 C 439.01 935.62 438.94 887.27 439.00 838.92 C 451.10 829.91 462.16 819.55 472.49 808.57 C 498.86 780.89 518.62 747.73 535.29 713.53 Z" />
</g>
<g id="#a1161aff">
<path fill="#a1161a" opacity="1.00" d=" M 703.00 718.70 C 744.12 718.71 785.25 718.08 826.38 718.23 C 819.41 720.10 812.11 718.25 805.16 720.17 C 789.96 724.19 774.57 727.40 759.37 731.41 C 743.95 734.77 728.76 739.07 713.35 742.42 C 704.11 744.54 695.05 747.44 685.69 748.97 C 690.06 739.56 694.28 730.07 698.60 720.64 C 699.11 718.56 701.30 718.67 703.00 718.70 Z" />
</g>
<g id="#8e1417ff">
<path fill="#8e1417" opacity="1.00" d=" M 1037.44 734.44 C 1055.35 730.50 1072.99 725.36 1091.00 721.83 C 1091.01 756.93 1090.98 792.02 1091.00 827.11 C 1078.84 830.55 1066.42 832.96 1054.21 836.19 C 947.92 861.86 841.68 887.72 735.39 913.38 C 718.70 917.82 701.74 921.15 685.13 925.89 C 683.95 924.92 682.77 923.96 681.60 923.01 C 659.61 927.98 637.79 933.67 615.81 938.74 C 612.15 939.60 608.51 940.53 604.90 941.62 C 604.66 942.86 604.42 944.12 604.18 945.39 C 580.92 950.53 557.95 956.87 534.65 961.83 C 561.43 942.26 584.89 918.30 604.33 891.45 C 618.76 871.30 632.08 850.35 644.41 828.85 C 646.94 828.66 649.48 828.49 651.98 827.98 C 780.42 796.63 908.99 765.77 1037.44 734.44 Z" />
</g>
<g id="#a3161aff">
<path fill="#a3161a" opacity="1.00" d=" M 494.16 732.17 C 504.88 729.85 515.33 726.10 526.29 725.06 C 512.30 751.95 495.44 777.52 474.81 799.80 C 464.59 810.48 454.13 821.04 442.32 829.99 C 439.59 830.16 436.85 830.40 434.19 831.09 C 424.55 833.61 414.89 836.12 405.15 838.23 C 336.01 855.18 266.79 871.79 197.60 888.56 C 193.39 889.60 189.19 890.66 185.00 891.80 C 185.02 863.54 184.99 835.28 185.00 807.01 C 193.51 804.62 202.23 803.11 210.75 800.78 C 220.89 798.04 231.22 796.13 241.35 793.37 C 253.10 790.25 265.04 787.91 276.79 784.77 C 283.50 782.98 290.28 781.51 297.05 779.99 C 317.65 774.81 338.30 769.86 358.95 764.90 C 370.56 762.28 382.01 759.01 393.65 756.49 C 404.93 753.97 416.02 750.67 427.35 748.37 C 436.47 746.27 445.47 743.69 454.60 741.64 C 467.87 738.83 480.88 734.93 494.16 732.17 Z" />
</g>
<g id="#821316ff">
<path fill="#821316" opacity="1.00" d=" M 1054.21 836.19 C 1066.42 832.96 1078.84 830.55 1091.00 827.11 C 1091.01 846.03 1090.99 864.94 1091.00 883.86 C 1082.05 885.86 1073.09 887.84 1064.23 890.19 C 841.20 944.16 618.23 998.31 395.21 1052.28 C 390.13 1053.49 385.03 1054.62 379.99 1055.99 C 372.93 1057.49 370.50 1066.26 363.20 1067.29 C 348.81 1070.22 334.70 1074.31 320.36 1077.39 C 309.62 1079.97 298.98 1082.97 288.16 1085.17 C 285.45 1085.74 282.86 1086.73 280.34 1087.84 C 256.49 1083.40 234.15 1071.19 217.48 1053.56 C 229.18 1049.52 241.45 1047.60 253.38 1044.40 C 268.60 1040.52 283.94 1037.14 299.15 1033.19 C 312.84 1030.30 326.30 1026.39 339.98 1023.41 C 336.81 1023.42 333.65 1023.08 330.55 1022.44 C 339.73 1022.16 348.92 1022.40 358.08 1021.54 C 388.43 1019.15 418.60 1013.65 447.71 1004.67 C 478.69 995.05 508.26 980.74 534.65 961.83 C 557.95 956.87 580.92 950.53 604.18 945.39 C 604.42 944.12 604.66 942.86 604.90 941.62 C 608.51 940.53 612.15 939.60 615.81 938.74 C 637.79 933.67 659.61 927.98 681.60 923.01 C 682.77 923.96 683.95 924.92 685.13 925.89 C 701.74 921.15 718.70 917.82 735.39 913.38 C 841.68 887.72 947.92 861.86 1054.21 836.19 Z" />
</g>
<g id="#9a1519ff">
<path fill="#9a1519" opacity="1.00" d=" M 434.19 831.09 C 436.85 830.40 439.59 830.16 442.32 829.99 C 423.40 845.38 400.27 855.00 376.41 859.54 C 361.29 862.92 345.78 863.83 330.49 865.98 C 330.44 868.02 330.40 870.08 330.38 872.15 C 330.33 881.03 330.38 889.92 330.36 898.82 C 281.89 910.50 233.43 922.22 185.00 934.06 C 185.01 919.97 184.99 905.89 185.00 891.80 C 189.19 890.66 193.39 889.60 197.60 888.56 C 266.79 871.79 336.01 855.18 405.15 838.23 C 414.89 836.12 424.55 833.61 434.19 831.09 Z" />
</g>
<g id="#e7e7e7ff">
<path fill="#e7e7e7" opacity="1.00" d=" M 395.26 861.18 C 410.98 856.34 425.82 848.77 439.00 838.92 C 438.94 887.27 439.01 935.62 439.02 983.96 C 438.88 988.90 438.74 993.88 439.72 998.76 C 404.21 1008.69 367.32 1014.54 330.39 1014.00 C 330.30 995.59 330.38 977.18 330.35 958.77 C 330.36 938.79 330.35 918.80 330.36 898.82 C 330.38 889.92 330.33 881.03 330.38 872.15 C 352.21 870.02 374.24 867.78 395.26 861.18 Z" />
</g>
<g id="#7c1315ff">
<path fill="#7c1315" opacity="1.00" d=" M 1064.23 890.19 C 1073.09 887.84 1082.05 885.86 1091.00 883.86 C 1091.00 913.59 1091.01 943.33 1090.99 973.08 C 1090.93 991.99 1086.19 1010.87 1077.29 1027.57 C 1060.78 1059.18 1029.07 1082.25 993.90 1088.21 C 982.07 1090.49 969.98 1089.94 958.00 1090.00 C 746.00 1090.00 534.00 1090.00 322.01 1090.00 C 308.11 1089.83 294.03 1090.81 280.34 1087.84 C 282.86 1086.73 285.45 1085.74 288.16 1085.17 C 298.98 1082.97 309.62 1079.97 320.36 1077.39 C 334.70 1074.31 348.81 1070.22 363.20 1067.29 C 370.50 1066.26 372.93 1057.49 379.99 1055.99 C 385.03 1054.62 390.13 1053.49 395.21 1052.28 C 618.23 998.31 841.20 944.16 1064.23 890.19 Z" />
</g>
<g id="#921518ff">
<path fill="#921518" opacity="1.00" d=" M 185.00 934.06 C 233.43 922.22 281.89 910.50 330.36 898.82 C 330.35 918.80 330.36 938.79 330.35 958.77 C 291.00 968.29 251.63 977.73 212.30 987.37 C 203.75 989.08 195.41 991.73 186.81 993.26 C 184.39 980.30 185.10 967.09 185.00 953.99 C 185.00 947.34 185.00 940.70 185.00 934.06 Z" />
</g>
<g id="#8a1417ff">
<path fill="#8a1417" opacity="1.00" d=" M 212.30 987.37 C 251.63 977.73 291.00 968.29 330.35 958.77 C 330.38 977.18 330.30 995.59 330.39 1014.00 C 330.45 1016.81 330.53 1019.62 330.55 1022.44 C 333.65 1023.08 336.81 1023.42 339.98 1023.41 C 326.30 1026.39 312.84 1030.30 299.15 1033.19 C 283.94 1037.14 268.60 1040.52 253.38 1044.40 C 241.45 1047.60 229.18 1049.52 217.48 1053.56 C 201.59 1037.08 190.90 1015.76 186.81 993.26 C 195.41 991.73 203.75 989.08 212.30 987.37 Z" />
</g>
</svg>
