<?xml version="1.0" encoding="UTF-8" ?>
<!DOCTYPE svg PUBLIC "-//W3C//DTD SVG 1.1//EN" "http://www.w3.org/Graphics/SVG/1.1/DTD/svg11.dtd">
<svg width="1276pt" height="1276pt" viewBox="0 0 1276 1276" version="1.1" xmlns="http://www.w3.org/2000/svg">
<g id="#ffffffff">
<path fill="#ffffff" opacity="1.00" d=" M 277.80 185.07 C 381.93 185.11 486.06 185.07 590.19 185.09 C 590.18 221.78 590.18 258.48 590.19 295.17 C 568.48 295.17 546.77 295.17 525.07 295.18 C 525.12 276.08 525.08 256.98 525.09 237.88 C 480.25 237.86 435.41 237.88 390.57 237.87 C 390.56 259.88 390.58 281.88 390.56 303.89 C 422.33 303.88 454.10 303.91 485.87 303.87 C 486.21 321.50 486.02 339.13 486.04 356.76 C 454.21 356.81 422.38 356.78 390.55 356.77 C 390.54 374.38 390.64 392.00 390.50 409.61 C 402.11 409.73 413.71 409.62 425.32 409.66 C 425.27 424.33 425.27 439.00 425.32 453.67 C 374.69 453.70 324.06 453.69 273.43 453.68 C 273.49 439.01 273.51 424.34 273.42 409.67 C 285.02 409.64 296.61 409.67 308.21 409.65 C 308.17 352.39 308.20 295.13 308.19 237.87 C 298.06 237.87 287.93 237.85 277.80 237.89 C 277.79 220.28 277.80 202.68 277.80 185.07 Z" />
<path fill="#ffffff" opacity="1.00" d=" M 616.16 185.09 C 654.72 185.09 693.28 185.06 731.84 185.11 C 756.36 236.31 780.80 287.54 805.43 338.69 C 831.02 287.49 856.59 236.29 882.19 185.10 C 923.65 185.07 965.10 185.10 1006.55 185.08 C 1006.50 201.23 1006.56 217.38 1006.52 233.52 C 996.38 233.42 986.25 233.45 976.12 233.50 C 976.28 290.75 976.18 348.00 976.13 405.25 C 984.83 405.30 993.52 405.29 1002.22 405.33 C 1002.20 421.44 1002.17 437.55 1002.24 453.65 C 955.94 453.71 909.64 453.70 863.35 453.66 C 863.44 437.55 863.45 421.43 863.34 405.32 C 872.04 405.27 880.74 405.25 889.44 405.28 C 889.39 370.92 889.27 336.55 889.34 302.19 C 863.92 352.52 839.36 403.34 814.08 453.76 C 802.08 453.58 790.08 453.74 778.09 453.68 C 751.69 401.87 725.23 350.08 698.80 298.28 C 698.25 333.94 698.70 369.60 698.55 405.26 C 707.25 405.31 715.95 405.24 724.65 405.38 C 724.51 421.47 724.56 437.57 724.62 453.67 C 688.47 453.71 652.31 453.68 616.15 453.68 C 616.21 437.56 616.22 421.43 616.14 405.30 C 626.26 405.29 636.38 405.24 646.51 405.33 C 646.54 348.05 646.44 290.76 646.56 233.48 C 636.40 233.41 626.25 233.55 616.09 233.42 C 616.30 217.31 616.16 201.20 616.16 185.09 Z" />
<path fill="#ffffff" opacity="1.00" d=" M 359.40 563.20 C 544.25 563.19 729.11 563.21 913.96 563.20 C 913.96 600.36 913.97 637.52 913.96 674.68 C 890.51 681.61 868.51 693.26 849.49 708.61 C 831.19 723.20 815.46 740.78 801.61 759.59 C 787.58 778.16 776.74 798.89 766.86 819.90 C 733.48 892.40 720.03 972.92 721.07 1052.40 C 659.05 1052.36 597.03 1052.67 535.01 1052.20 C 545.66 981.79 561.07 911.38 590.13 846.06 C 602.89 822.07 618.45 799.63 635.57 778.55 C 648.56 762.69 662.57 747.63 677.77 733.86 C 688.64 723.91 700.43 715.05 712.03 706.00 C 725.94 695.25 740.71 685.54 756.59 677.94 C 670.39 677.92 584.19 677.78 497.99 677.81 C 485.38 678.88 473.94 686.47 466.70 696.67 C 457.29 709.91 453.72 726.62 454.64 742.67 C 422.89 742.72 391.15 742.59 359.40 742.60 C 359.40 682.80 359.41 623.00 359.40 563.20 Z" />
</g>
<g id="#fafafafa">
<path fill="#fafafa" opacity="0.98" d=" M 274.00 520.82 C 516.65 520.83 759.29 520.82 1001.94 520.83 C 1001.94 711.22 1001.94 901.62 1001.94 1092.01 C 759.29 1092.02 516.65 1092.02 274.00 1092.02 C 274.00 901.62 274.00 711.22 274.00 520.82 M 292.91 539.73 C 292.90 717.52 292.90 895.32 292.90 1073.11 C 522.95 1073.12 752.99 1073.12 983.03 1073.12 C 983.04 895.32 983.04 717.52 983.03 539.73 C 752.99 539.72 522.95 539.73 292.91 539.73 Z" />
</g>
</svg>
