<?xml version="1.0" encoding="UTF-8" ?>
<!DOCTYPE svg PUBLIC "-//W3C//DTD SVG 1.1//EN" "http://www.w3.org/Graphics/SVG/1.1/DTD/svg11.dtd">
<svg width="1276pt" height="1276pt" viewBox="0 0 1276 1276" version="1.1" xmlns="http://www.w3.org/2000/svg">
<g id="#33cc66ff">
<path fill="#33cc66" opacity="1.00" d=" M 137.63 314.10 C 281.28 314.06 424.93 314.10 568.58 314.08 C 568.59 364.63 568.57 415.17 568.59 465.71 C 538.63 465.68 508.66 465.76 478.70 465.67 C 478.74 439.48 478.72 413.30 478.71 387.12 C 476.81 386.95 474.91 386.82 473.01 386.74 C 467.02 387.70 461.01 386.36 455.02 387.01 C 439.01 386.97 423.03 387.08 407.00 386.82 C 394.37 386.86 381.74 386.74 369.11 386.88 C 360.08 387.61 351.04 386.67 342.00 386.88 C 336.36 386.45 330.73 387.49 325.10 386.90 C 320.06 386.73 315.00 386.68 309.96 387.03 C 304.46 387.55 298.94 386.36 293.45 387.23 C 293.45 417.57 293.37 447.91 293.49 478.25 C 337.26 478.23 381.03 478.24 424.79 478.25 C 424.79 490.83 424.73 503.41 424.82 516.00 C 424.74 527.58 424.77 539.16 424.81 550.74 C 417.58 551.62 410.27 551.24 403.01 551.05 C 396.35 551.23 389.68 551.37 383.02 551.04 C 370.02 551.40 357.01 551.18 344.01 551.20 C 337.34 551.16 330.66 551.46 324.01 551.01 C 319.67 551.42 315.33 551.15 311.00 550.89 C 307.00 551.17 302.98 551.49 298.99 550.93 C 297.12 551.10 295.26 551.23 293.39 551.35 C 293.47 575.47 293.42 599.58 293.42 623.70 C 308.97 623.67 324.53 623.72 340.08 623.67 C 340.39 623.99 341.00 624.63 341.31 624.95 C 341.29 644.45 341.21 663.95 341.35 683.45 L 340.39 683.57 L 340.82 684.75 C 271.03 684.56 201.24 684.82 131.45 684.62 C 131.45 664.61 131.55 644.59 131.40 624.58 C 132.02 624.36 133.26 623.91 133.88 623.68 C 149.08 623.71 164.28 623.67 179.48 623.70 C 179.45 544.72 179.56 465.75 179.43 386.77 C 168.58 387.12 157.73 386.65 146.88 386.89 C 143.78 387.19 140.67 387.19 137.59 386.72 C 137.68 362.52 137.60 338.31 137.63 314.10 Z" />
<path fill="#33cc66" opacity="1.00" d=" M 604.50 314.15 C 657.82 314.02 711.14 314.10 764.46 314.11 C 764.48 314.36 764.53 314.86 764.56 315.11 C 766.15 317.99 767.46 321.02 768.94 323.97 C 769.97 326.09 770.95 328.25 771.82 330.45 L 772.27 330.53 C 773.07 332.52 773.92 334.48 774.73 336.48 L 775.16 336.56 C 777.42 342.32 780.57 347.68 782.85 353.44 L 783.31 353.47 C 784.10 355.48 784.94 357.47 785.73 359.49 L 786.18 359.57 C 788.37 365.35 791.64 370.64 793.88 376.41 L 794.32 376.46 C 795.11 378.49 795.96 380.49 796.75 382.52 L 797.20 382.55 C 799.37 388.34 802.63 393.62 804.90 399.36 L 805.34 399.49 C 806.11 401.49 806.94 403.48 807.73 405.49 L 808.21 405.56 C 809.10 407.72 810.06 409.86 811.05 411.99 C 812.78 415.39 814.48 418.81 815.90 422.36 L 816.33 422.54 C 817.12 424.51 817.96 426.48 818.76 428.46 L 819.19 428.55 C 820.09 430.79 821.12 432.97 822.31 435.08 C 822.37 435.32 822.48 435.80 822.54 436.04 C 824.11 438.97 825.45 442.01 826.93 445.00 C 827.94 447.12 828.90 449.28 829.80 451.47 L 830.23 451.55 C 831.13 453.69 832.10 455.82 833.14 457.91 C 834.73 461.27 836.28 464.65 837.95 467.98 C 838.97 470.10 839.96 472.25 840.87 474.44 L 841.31 474.45 C 842.09 476.48 842.92 478.50 843.71 480.54 L 844.62 480.57 C 844.59 480.92 844.52 481.63 844.49 481.99 C 847.05 487.08 849.75 492.13 851.86 497.44 L 852.29 497.48 C 853.08 499.49 853.93 501.48 854.73 503.49 L 855.16 503.52 C 857.37 509.32 860.68 514.62 862.88 520.44 L 863.39 520.47 C 863.86 521.92 864.35 523.36 864.84 524.82 C 865.53 524.67 866.24 524.52 866.96 524.37 C 867.83 522.06 868.82 519.79 869.77 517.52 L 870.24 517.50 C 871.17 515.26 872.22 513.07 873.41 510.96 C 873.46 510.73 873.55 510.27 873.60 510.04 C 874.84 507.96 875.92 505.78 876.85 503.54 L 877.69 503.44 C 877.66 503.10 877.60 502.41 877.57 502.07 C 878.86 499.98 879.98 497.78 880.87 495.49 L 881.20 495.46 C 882.11 493.22 883.20 491.05 884.43 488.96 C 884.48 488.74 884.56 488.29 884.61 488.06 C 885.84 485.98 886.91 483.80 887.84 481.56 L 888.25 481.45 C 889.20 479.23 890.25 477.04 891.48 474.95 C 891.44 474.61 891.37 473.93 891.33 473.59 L 892.19 473.47 C 893.12 471.23 894.22 469.06 895.47 466.97 C 895.51 466.74 895.58 466.29 895.62 466.06 C 896.85 463.97 897.91 461.78 898.85 459.55 L 899.24 459.50 C 900.16 457.26 901.19 455.07 902.41 452.97 C 902.46 452.74 902.56 452.29 902.61 452.06 C 903.83 449.97 904.92 447.79 905.85 445.55 L 906.71 445.43 C 906.67 445.09 906.58 444.39 906.53 444.04 C 907.51 442.44 908.45 440.80 909.44 439.20 C 909.45 438.76 909.47 437.87 909.47 437.43 L 910.18 437.44 C 911.14 435.20 912.24 433.04 913.44 430.92 C 913.47 430.71 913.55 430.27 913.59 430.05 C 914.82 428.00 915.90 425.86 916.84 423.66 C 917.06 423.58 917.49 423.44 917.70 423.37 C 917.68 423.05 917.62 422.41 917.60 422.09 C 918.82 419.99 919.89 417.80 920.82 415.56 L 921.20 415.44 C 922.14 413.20 923.24 411.03 924.46 408.92 C 924.49 408.71 924.57 408.28 924.61 408.06 C 925.90 405.96 926.99 403.74 927.87 401.43 L 928.21 401.43 C 929.16 399.21 930.23 397.05 931.44 394.97 C 931.47 394.74 931.54 394.28 931.57 394.05 C 932.91 391.72 934.16 389.33 935.51 387.00 C 935.55 386.77 935.63 386.32 935.68 386.09 C 936.83 383.98 937.88 381.81 938.81 379.59 L 939.21 379.41 C 940.17 377.20 941.26 375.04 942.45 372.94 C 942.48 372.72 942.55 372.28 942.59 372.06 C 943.86 370.02 944.93 367.87 945.85 365.65 C 946.06 365.58 946.49 365.43 946.71 365.36 C 946.67 365.04 946.60 364.40 946.57 364.08 C 947.83 362.00 948.92 359.82 949.84 357.58 L 950.20 357.46 C 951.14 355.23 952.24 353.07 953.44 350.96 C 953.49 350.72 953.60 350.22 953.66 349.98 C 954.89 347.93 955.93 345.78 956.83 343.57 L 957.22 343.43 C 958.18 341.21 959.25 339.04 960.49 336.96 C 960.46 336.62 960.39 335.94 960.36 335.60 L 961.21 335.48 C 962.15 333.24 963.24 331.07 964.50 328.99 C 964.53 328.76 964.60 328.30 964.64 328.07 C 965.82 325.97 966.88 323.81 967.84 321.60 L 968.23 321.46 C 969.15 319.28 970.17 317.13 971.40 315.10 C 971.43 314.85 971.49 314.35 971.52 314.10 C 1028.87 314.14 1086.23 313.95 1143.58 314.20 C 1143.51 336.32 1143.48 358.44 1143.59 380.56 C 1129.56 380.68 1115.52 380.57 1101.49 380.62 C 1101.34 459.60 1101.50 538.58 1101.38 617.56 C 1113.23 617.60 1125.08 617.68 1136.94 617.57 C 1137.92 627.33 1137.11 637.21 1137.37 647.02 C 1137.36 659.57 1137.40 672.13 1137.35 684.68 C 1073.43 684.62 1009.50 684.82 945.58 684.59 C 945.58 662.52 945.71 640.45 945.51 618.38 L 946.65 618.69 L 946.43 617.56 C 958.15 617.68 969.87 617.55 981.58 617.60 C 981.55 570.76 981.40 523.92 981.54 477.08 C 981.16 477.20 980.40 477.43 980.02 477.55 C 979.44 479.05 978.80 480.54 978.17 482.02 C 977.07 484.10 976.09 486.24 975.20 488.42 L 974.79 488.56 C 973.85 490.78 972.80 492.96 971.59 495.05 C 971.55 495.28 971.48 495.74 971.44 495.97 C 970.19 498.05 969.12 500.23 968.20 502.48 L 967.81 502.54 C 966.89 504.78 965.87 506.98 964.68 509.08 C 964.62 509.32 964.52 509.79 964.46 510.02 C 963.25 512.11 962.19 514.28 961.27 516.52 L 960.88 516.55 C 959.79 519.14 958.57 521.67 957.34 524.19 C 956.16 526.43 955.05 528.72 953.94 531.01 C 949.97 538.99 946.02 546.98 942.07 554.96 C 940.70 557.63 939.41 560.34 938.05 563.01 C 937.00 565.11 936.02 567.25 935.15 569.43 L 934.76 569.48 C 933.80 571.70 932.73 573.87 931.53 575.96 C 931.48 576.20 931.36 576.67 931.31 576.91 C 930.13 579.00 929.08 581.16 928.15 583.38 L 927.76 583.51 C 926.82 585.75 925.79 587.96 924.54 590.05 C 924.57 590.39 924.64 591.07 924.67 591.41 L 923.75 591.50 C 922.91 593.50 922.03 595.48 921.22 597.49 L 920.44 597.40 C 920.45 597.82 920.46 598.66 920.47 599.08 C 919.46 600.72 918.51 602.39 917.52 604.03 C 917.57 604.39 917.67 605.10 917.72 605.45 L 916.87 605.54 C 915.97 607.80 914.90 609.99 913.63 612.07 C 913.59 612.30 913.50 612.75 913.45 612.98 C 912.26 615.09 911.22 617.28 910.28 619.53 L 909.86 619.58 C 904.00 632.56 897.30 645.16 891.05 657.97 C 889.99 660.07 889.01 662.21 888.14 664.41 L 887.72 664.47 C 886.50 667.11 885.24 669.72 884.13 672.41 L 883.74 672.51 C 882.81 674.74 881.75 676.92 880.53 679.01 C 880.49 679.24 880.39 679.69 880.34 679.92 C 879.53 681.44 878.77 682.99 878.05 684.56 C 862.01 684.83 845.96 684.64 829.93 684.67 C 828.11 685.05 827.39 683.20 826.36 682.17 C 826.45 681.77 826.62 680.96 826.71 680.55 L 825.84 680.47 C 824.91 678.22 823.81 676.04 822.54 673.97 C 822.51 673.74 822.44 673.28 822.40 673.04 C 821.08 670.79 819.88 668.48 818.65 666.19 C 816.61 662.00 814.43 657.89 812.39 653.72 C 811.19 651.42 810.01 649.12 808.70 646.89 C 808.65 646.65 808.55 646.16 808.50 645.92 C 807.19 643.65 806.03 641.31 804.84 638.99 C 803.56 636.52 802.33 634.03 801.22 631.49 L 800.36 631.41 C 800.38 631.07 800.41 630.39 800.42 630.04 C 799.13 627.98 798.07 625.78 797.17 623.54 L 796.78 623.44 C 795.82 621.25 794.74 619.12 793.53 617.07 C 793.48 616.82 793.37 616.33 793.32 616.09 C 790.99 612.14 788.98 608.02 786.94 603.93 C 785.56 601.27 784.25 598.59 782.84 595.95 C 781.56 593.52 780.34 591.07 779.23 588.57 L 778.84 588.42 C 777.92 586.19 776.84 584.04 775.59 581.99 C 775.54 581.76 775.43 581.28 775.38 581.04 C 774.15 578.97 773.07 576.82 772.13 574.62 L 771.72 574.52 C 770.50 571.89 769.23 569.30 768.12 566.63 L 767.70 566.49 C 765.79 562.20 763.45 558.12 761.40 553.90 C 760.17 551.52 758.96 549.13 757.63 546.81 L 757.51 546.05 C 756.27 543.95 755.15 541.78 754.19 539.54 L 753.34 539.39 C 753.37 539.06 753.44 538.39 753.48 538.06 C 752.17 536.00 751.05 533.83 750.15 531.58 L 749.76 531.46 C 748.58 528.84 747.29 526.28 746.12 523.66 L 745.73 523.53 C 744.61 520.99 743.34 518.53 742.05 516.09 C 740.04 512.00 737.96 507.95 735.83 503.92 C 734.60 501.49 733.38 499.07 732.25 496.60 C 732.15 496.53 731.94 496.39 731.84 496.31 C 730.90 494.12 729.82 492.00 728.64 489.94 C 728.60 489.70 728.50 489.23 728.46 489.00 C 727.07 486.67 725.80 484.29 724.47 481.94 L 724.40 481.16 C 722.99 478.75 721.75 476.26 720.37 473.84 C 720.46 473.21 720.62 471.95 720.70 471.32 C 719.95 471.70 719.21 472.09 718.49 472.50 C 718.40 520.86 718.48 569.22 718.43 617.57 C 730.14 617.59 741.85 617.67 753.56 617.58 L 753.35 618.71 L 754.51 618.39 C 754.31 640.45 754.45 662.52 754.44 684.59 C 704.46 684.78 654.49 684.69 604.52 684.63 C 604.57 662.61 604.47 640.57 604.56 618.55 C 604.80 618.33 605.27 617.89 605.51 617.67 C 619.18 617.48 632.86 617.71 646.54 617.56 C 646.50 538.82 646.40 460.08 646.59 381.34 L 645.40 381.65 L 645.62 380.55 C 631.91 380.67 618.19 380.62 604.48 380.58 C 604.57 358.44 604.53 336.29 604.50 314.15 Z" />
<path fill="#33cc66" opacity="1.00" d=" M 364.81 776.12 C 383.79 767.31 405.63 764.97 426.09 769.25 C 456.75 775.45 483.53 797.43 495.89 826.11 C 501.13 837.91 503.71 850.75 504.18 863.62 C 490.48 863.61 476.78 863.59 463.08 863.63 C 462.48 849.43 456.69 835.44 446.60 825.37 C 436.09 814.51 421.08 808.18 405.97 808.27 C 392.24 808.12 378.58 813.26 368.27 822.30 C 356.34 832.56 349.11 847.91 348.59 863.62 C 334.89 863.58 321.18 863.63 307.47 863.60 C 307.94 846.92 312.43 830.31 320.93 815.91 C 331.02 798.58 346.56 784.46 364.81 776.12 Z" />
<path fill="#33cc66" opacity="1.00" d=" M 142.29 773.79 C 199.44 773.80 256.59 773.81 313.75 773.79 C 313.72 786.47 313.70 799.16 313.76 811.85 C 292.61 811.87 271.46 811.87 250.31 811.85 C 250.33 829.10 250.28 846.35 250.34 863.60 C 235.25 863.61 220.16 863.59 205.08 863.61 C 205.17 846.36 205.09 829.11 205.12 811.86 C 184.17 811.86 163.23 811.88 142.29 811.85 C 142.34 799.17 142.34 786.48 142.29 773.79 Z" />
<path fill="#33cc66" opacity="1.00" d=" M 502.71 774.12 C 516.42 774.16 530.12 774.10 543.83 774.15 C 550.77 803.97 557.56 833.82 564.60 863.61 C 551.14 863.61 537.68 863.60 524.22 863.62 C 517.02 833.79 509.95 803.94 502.71 774.12 Z" />
<path fill="#33cc66" opacity="1.00" d=" M 600.31 774.16 C 614.71 774.11 629.11 774.13 643.52 774.15 C 650.82 803.96 657.90 833.83 665.35 863.60 C 652.32 863.63 639.29 863.59 626.26 863.62 C 624.85 858.37 623.72 853.05 622.21 847.83 C 620.91 853.07 619.73 858.35 618.45 863.61 C 605.19 863.61 591.94 863.60 578.68 863.61 C 586.01 833.82 593.10 803.98 600.31 774.16 Z" />
<path fill="#33cc66" opacity="1.00" d=" M 701.17 774.15 C 714.72 774.12 728.26 774.15 741.80 774.13 C 734.52 803.95 727.33 833.79 720.10 863.62 C 706.62 863.59 693.14 863.64 679.67 863.59 C 687.02 833.82 693.96 803.95 701.17 774.15 Z" />
<path fill="#33cc66" opacity="1.00" d=" M 760.70 774.13 C 783.81 774.15 806.92 774.13 830.03 774.14 C 835.56 774.06 841.38 775.63 845.41 779.61 C 848.91 783.07 849.87 788.08 851.69 792.49 C 860.84 816.27 870.25 839.96 879.74 863.61 C 865.69 863.61 851.64 863.61 837.59 863.61 C 831.36 847.78 825.15 831.95 818.87 816.14 C 813.16 816.13 807.45 816.14 801.75 816.13 C 801.79 831.96 801.69 847.78 801.80 863.61 C 788.09 863.61 774.38 863.62 760.68 863.60 C 760.74 833.78 760.70 803.95 760.70 774.13 Z" />
<path fill="#33cc66" opacity="1.00" d=" M 902.40 774.12 C 915.64 774.15 928.89 774.12 942.14 774.14 C 942.13 800.75 942.14 827.35 942.14 853.95 C 942.10 857.14 942.34 860.36 941.92 863.54 C 928.73 863.70 915.54 863.56 902.35 863.60 C 902.47 833.77 902.38 803.95 902.40 774.12 Z" />
<path fill="#33cc66" opacity="1.00" d=" M 989.05 776.91 C 996.35 774.04 1004.30 773.98 1012.03 774.13 C 1049.90 774.14 1087.78 774.13 1125.65 774.14 C 1125.62 787.34 1125.59 800.54 1125.67 813.74 C 1086.09 813.77 1046.52 813.76 1006.94 813.75 C 1003.04 813.13 999.90 817.37 1000.88 820.97 C 1002.15 824.12 1005.95 824.88 1008.99 824.82 C 1026.31 824.83 1043.63 824.82 1060.95 824.82 C 1072.67 824.94 1084.77 823.88 1096.00 828.02 C 1112.84 833.70 1125.67 847.69 1132.88 863.60 C 1090.90 863.62 1048.92 863.61 1006.93 863.61 C 997.26 863.57 987.29 862.06 978.77 857.24 C 970.83 852.84 965.13 845.00 962.75 836.31 C 960.41 827.44 959.81 817.94 961.97 808.97 C 965.18 794.82 975.13 781.82 989.05 776.91 Z" />
<path fill="#33cc66" opacity="1.00" d=" M 205.12 876.00 C 220.18 876.00 235.25 876.00 250.31 876.00 C 250.32 903.07 250.31 930.13 250.32 957.20 C 235.25 957.17 220.17 957.19 205.10 957.20 C 205.14 930.13 205.11 903.07 205.12 876.00 Z" />
<path fill="#33cc66" opacity="1.00" d=" M 308.08 876.03 C 321.88 875.96 335.68 876.02 349.49 876.00 C 352.19 889.96 360.10 902.85 371.55 911.33 C 385.44 921.89 404.32 925.40 421.10 920.66 C 441.82 915.17 458.31 897.06 462.12 876.01 C 475.94 876.00 489.76 875.98 503.59 876.02 C 500.46 906.37 482.28 934.62 455.98 950.06 C 427.88 967.08 391.10 968.35 361.86 953.43 C 332.35 938.94 311.33 908.76 308.08 876.03 Z" />
<path fill="#33cc66" opacity="1.00" d=" M 527.18 876.00 C 540.60 876.02 554.01 875.97 567.43 876.02 C 568.80 881.83 569.95 887.70 571.65 893.42 C 572.93 887.59 574.35 881.80 575.76 876.00 C 588.99 876.00 602.23 875.99 615.46 876.00 C 608.96 902.94 602.44 929.88 596.00 956.83 C 579.52 956.86 563.03 956.85 546.55 956.83 C 540.11 929.88 533.63 902.94 527.18 876.00 Z" />
<path fill="#33cc66" opacity="1.00" d=" M 629.32 876.00 C 642.30 875.99 655.28 876.01 668.26 875.99 C 669.72 881.77 670.99 887.60 672.59 893.35 C 674.12 887.60 675.37 881.77 676.79 875.99 C 690.22 876.02 703.65 875.97 717.09 876.02 C 710.58 902.95 704.00 929.85 697.55 956.80 C 681.52 956.89 665.49 956.84 649.46 956.82 C 642.76 929.88 636.03 902.94 629.32 876.00 Z" />
<path fill="#33cc66" opacity="1.00" d=" M 760.71 876.00 C 774.39 876.00 788.08 875.99 801.76 876.01 C 801.77 902.95 801.71 929.89 801.79 956.83 C 788.09 956.87 774.40 956.83 760.70 956.86 C 760.72 929.90 760.70 902.95 760.71 876.00 Z" />
<path fill="#33cc66" opacity="1.00" d=" M 842.52 876.00 C 856.57 876.01 870.62 875.97 884.67 876.03 C 888.85 886.59 893.06 897.14 897.40 907.65 C 898.28 910.06 899.94 912.11 902.34 913.13 C 902.48 900.75 902.37 888.38 902.40 876.00 C 915.65 876.00 928.89 875.99 942.14 876.01 C 942.14 902.95 942.13 929.89 942.15 956.84 C 925.42 956.83 908.70 956.89 891.98 956.80 C 885.91 956.75 879.29 955.75 874.83 951.25 C 869.60 946.08 867.82 938.68 864.88 932.17 C 857.34 913.48 849.95 894.73 842.52 876.00 Z" />
<path fill="#33cc66" opacity="1.00" d=" M 1092.56 875.99 C 1107.37 876.02 1122.19 875.97 1137.00 876.02 C 1144.93 908.65 1123.09 944.76 1091.07 954.06 C 1080.04 957.65 1068.35 956.75 1056.95 956.85 C 1024.85 956.85 992.75 956.84 960.65 956.85 C 960.64 943.34 960.71 929.83 960.61 916.33 C 996.73 916.25 1032.85 916.34 1068.97 916.29 C 1081.95 916.12 1094.80 906.23 1096.55 893.05 C 1097.41 887.07 1095.61 881.09 1092.56 875.99 Z" />
</g>
</svg>
