<?xml version="1.0" encoding="UTF-8" ?>
<!DOCTYPE svg PUBLIC "-//W3C//DTD SVG 1.1//EN" "http://www.w3.org/Graphics/SVG/1.1/DTD/svg11.dtd">
<svg width="1276pt" height="1276pt" viewBox="0 0 1276 1276" version="1.1" xmlns="http://www.w3.org/2000/svg">
<g id="#232021ff">
<path fill="#232021" opacity="1.00" d=" M 709.95 276.10 C 727.13 270.64 745.01 267.66 762.96 266.33 C 769.64 266.79 776.42 265.63 783.00 267.21 C 790.34 268.37 797.85 268.61 805.07 270.52 C 812.50 272.48 820.16 273.72 827.29 276.66 C 836.28 279.88 845.27 283.15 854.03 286.94 C 858.59 290.28 864.13 291.91 868.48 295.57 C 876.81 300.69 884.54 306.71 891.86 313.16 C 894.67 316.33 897.26 319.75 900.71 322.29 C 905.30 325.75 908.21 330.81 912.41 334.66 C 917.35 339.16 920.65 345.04 924.73 350.26 C 929.49 356.39 933.44 363.12 936.71 370.15 C 948.24 392.08 953.72 416.56 956.95 440.94 C 957.17 450.31 957.44 459.69 956.98 469.07 C 954.59 490.28 949.59 511.22 941.87 531.13 C 936.89 543.09 929.92 554.05 923.16 565.05 C 914.10 577.49 903.89 589.14 892.15 599.11 C 888.51 602.53 884.42 605.40 880.78 608.81 C 875.91 613.13 870.04 616.01 864.70 619.66 C 861.10 621.56 857.78 624.03 853.92 625.39 C 858.89 626.83 864.06 627.79 868.73 630.12 C 877.58 634.07 886.95 636.61 896.01 640.00 C 903.62 642.02 910.39 646.37 918.06 648.23 C 925.06 651.17 932.08 654.15 939.12 657.04 C 947.30 659.29 954.64 663.68 962.59 666.58 C 966.41 668.64 970.99 668.84 974.59 671.39 C 980.01 674.82 986.46 675.91 992.19 678.69 C 1009.26 686.58 1026.72 693.65 1044.03 701.03 C 1054.42 704.67 1064.06 709.97 1073.58 715.43 C 1088.29 723.76 1101.76 734.31 1113.31 746.67 C 1119.24 753.81 1125.49 760.78 1130.26 768.79 C 1133.21 773.45 1136.17 778.11 1139.00 782.86 C 1141.84 789.35 1145.08 795.68 1147.29 802.44 C 1150.50 813.53 1153.86 824.60 1155.97 835.97 C 1157.74 847.26 1158.39 858.69 1157.92 870.11 C 1155.85 888.83 1152.40 907.64 1145.03 925.05 C 1142.43 932.57 1137.98 939.23 1134.20 946.18 C 1127.67 958.17 1118.75 968.59 1109.85 978.83 C 1100.86 986.63 1091.91 994.56 1081.85 1000.98 C 1076.72 1004.18 1072.03 1008.19 1066.30 1010.30 C 1060.26 1012.87 1054.67 1016.59 1048.15 1017.92 C 1038.00 1021.45 1027.46 1023.60 1017.01 1025.99 C 1007.28 1028.07 997.30 1027.95 987.44 1028.69 C 977.19 1028.13 966.93 1027.02 956.96 1024.45 C 944.77 1021.85 932.72 1018.55 921.24 1013.69 C 912.14 1008.94 903.18 1003.90 894.46 998.50 C 878.80 987.14 862.78 976.27 847.45 964.46 C 843.28 961.14 838.29 959.09 834.08 955.84 C 829.96 953.04 826.79 949.04 822.42 946.59 C 814.05 941.87 807.15 935.09 799.15 929.84 C 791.78 925.00 785.27 919.03 777.95 914.14 C 768.92 907.55 760.36 900.35 751.46 893.60 C 742.35 886.72 734.02 878.84 724.56 872.43 C 720.79 869.89 717.98 866.25 714.46 863.42 C 709.09 859.20 703.41 855.30 698.62 850.39 C 694.63 846.30 689.69 843.33 685.40 839.60 C 678.21 834.19 671.93 827.74 664.96 822.06 C 660.22 817.74 654.26 814.75 650.45 809.48 C 642.21 801.74 632.91 795.16 625.15 786.91 C 619.76 781.22 613.57 776.41 607.66 771.29 C 598.74 762.92 590.70 753.58 581.19 745.86 C 575.09 739.63 568.49 733.85 563.09 726.98 C 554.92 718.13 545.63 710.31 538.10 700.88 C 533.57 696.72 530.17 691.54 525.66 687.37 C 523.17 685.00 521.10 682.24 519.05 679.50 C 516.80 684.58 513.18 688.89 511.03 694.01 C 507.13 700.69 502.17 706.72 498.83 713.73 C 494.34 721.76 488.29 728.86 484.18 737.11 C 480.95 743.39 476.05 748.63 473.04 755.03 C 465.93 766.56 457.62 777.36 451.27 789.35 C 447.97 794.36 444.02 798.98 441.43 804.45 C 439.34 809.08 435.86 812.86 433.14 817.11 C 427.37 828.75 417.64 837.66 409.84 847.88 C 406.31 852.99 401.10 856.43 396.79 860.80 C 385.43 870.10 373.34 878.65 360.07 884.98 C 353.63 887.42 347.70 891.04 341.04 892.92 C 330.49 895.89 319.72 897.96 309.05 900.41 C 301.75 901.37 294.41 902.14 287.03 901.92 C 273.34 902.36 259.90 899.26 246.56 896.63 C 239.78 895.51 233.56 892.51 226.94 890.80 C 224.55 890.08 222.40 888.77 220.09 887.85 C 211.66 884.96 204.07 880.13 196.49 875.52 C 184.17 866.33 171.57 857.20 161.38 845.60 C 158.07 840.94 154.05 836.85 150.87 832.10 C 145.61 824.82 141.16 817.02 136.53 809.36 C 129.40 794.00 124.32 777.70 121.53 761.01 C 116.94 738.86 118.34 715.73 123.96 693.91 C 127.02 681.16 131.37 668.73 137.07 656.92 C 145.26 640.40 157.55 626.42 169.58 612.62 C 174.96 607.31 180.41 602.06 185.80 596.76 C 189.15 592.73 193.73 589.94 196.79 585.66 C 199.42 582.33 203.44 580.45 205.93 576.99 C 208.09 573.79 211.47 571.82 214.12 569.11 C 220.07 563.07 226.15 557.18 232.12 551.17 C 235.66 547.65 239.01 543.90 243.04 540.92 C 246.14 538.73 247.83 535.15 250.83 532.86 C 256.83 528.21 261.46 522.06 267.44 517.40 C 270.09 515.36 271.66 512.26 274.44 510.36 C 279.93 505.56 285.75 501.11 290.63 495.66 C 296.65 489.98 303.29 484.99 309.33 479.32 C 315.22 472.86 322.67 468.10 328.74 461.84 C 339.85 452.22 351.43 443.13 362.25 433.16 C 380.94 418.63 398.21 402.30 417.51 388.53 C 426.73 381.03 436.37 374.06 445.72 366.73 C 462.14 355.58 477.36 342.75 494.22 332.26 C 507.30 322.45 521.46 314.27 534.86 304.95 C 540.35 301.58 546.16 298.79 551.95 296.01 C 557.88 292.27 564.89 291.00 571.60 289.37 C 579.59 287.49 588.07 285.86 596.14 288.27 C 606.35 291.04 617.61 292.03 626.26 298.69 C 632.36 303.25 638.94 307.33 643.96 313.17 C 649.34 307.33 656.42 303.57 662.52 298.61 C 666.30 295.51 670.83 293.62 674.93 291.02 C 678.51 289.23 681.73 286.71 685.57 285.43 C 693.69 282.32 701.48 278.23 709.95 276.10 M 754.45 302.66 C 730.20 304.98 706.47 312.85 685.82 325.81 C 661.71 340.89 641.87 362.71 629.30 388.24 C 611.36 423.84 608.16 466.50 620.51 504.40 C 630.15 534.50 649.32 561.46 674.68 580.33 C 701.85 600.84 735.95 611.80 769.96 611.21 C 784.27 610.47 798.71 608.97 812.37 604.39 C 841.52 595.53 867.92 577.81 887.16 554.18 C 906.01 531.14 918.13 502.58 921.21 472.94 C 925.36 436.89 915.99 399.48 895.49 369.56 C 886.85 358.30 876.95 348.04 866.58 338.38 C 858.44 330.51 848.75 324.45 838.71 319.31 C 823.59 311.28 806.97 306.23 790.06 303.73 C 778.30 301.77 766.31 302.10 754.45 302.66 M 571.94 325.76 C 568.26 327.06 565.21 329.65 561.47 330.79 C 533.13 348.23 505.67 367.07 478.83 386.72 C 473.64 390.59 468.43 394.42 463.23 398.27 C 461.89 399.27 460.57 400.28 459.24 401.29 C 453.17 405.89 447.13 410.53 441.14 415.24 C 436.61 418.74 432.13 422.30 427.59 425.78 C 422.43 429.92 417.33 434.11 412.18 438.24 C 410.71 439.41 409.28 440.60 407.82 441.77 C 405.98 443.23 404.19 444.75 402.38 446.24 C 365.86 476.26 330.44 507.60 295.85 539.82 C 262.05 570.97 229.53 603.48 196.54 635.48 C 189.15 643.54 181.56 651.53 175.70 660.83 C 155.83 690.74 149.01 728.96 157.39 763.88 C 164.95 796.83 185.67 826.57 214.11 844.88 C 243.78 864.47 281.51 871.22 316.15 863.19 C 334.84 858.87 352.66 850.63 367.82 838.82 C 382.83 827.46 394.65 812.48 404.56 796.61 C 433.02 752.14 461.40 707.60 488.18 662.09 C 498.85 643.74 509.54 625.41 519.73 606.79 C 523.93 599.23 528.14 591.68 532.21 584.05 C 532.89 582.76 533.58 581.47 534.27 580.18 C 538.69 571.69 543.34 563.31 547.65 554.76 C 548.22 553.63 548.78 552.49 549.35 551.37 C 550.27 549.57 551.20 547.78 552.12 546.00 C 553.32 543.60 554.53 541.21 555.79 538.85 C 556.46 537.53 557.13 536.21 557.80 534.89 C 558.90 532.60 560.08 530.35 561.24 528.09 C 561.70 526.91 562.19 525.75 562.67 524.59 L 563.27 524.35 C 563.69 523.08 564.15 521.82 564.60 520.56 L 565.20 520.33 C 565.66 519.15 566.15 517.98 566.63 516.82 C 568.92 512.29 571.11 507.71 573.29 503.14 C 573.94 501.79 574.60 500.45 575.27 499.12 C 575.74 498.03 576.22 496.95 576.71 495.88 C 578.60 491.98 580.36 488.03 582.21 484.11 C 583.99 480.02 585.97 476.02 587.78 471.94 C 589.42 468.25 591.13 464.59 592.68 460.86 C 593.74 458.56 594.77 456.25 595.71 453.90 C 596.56 451.91 597.46 449.95 598.41 448.01 C 598.45 447.75 598.52 447.23 598.56 446.97 C 599.53 445.06 600.42 443.10 601.23 441.11 C 603.77 435.03 606.33 428.95 608.81 422.84 C 609.46 421.19 610.12 419.54 610.79 417.90 C 611.45 416.21 612.12 414.53 612.77 412.84 C 613.27 411.61 613.76 410.38 614.27 409.16 C 614.77 407.73 615.32 406.32 615.85 404.90 C 616.50 403.23 617.14 401.55 617.76 399.88 C 618.24 398.63 618.72 397.38 619.22 396.15 C 619.71 394.72 620.23 393.31 620.73 391.89 C 623.62 385.28 625.26 378.28 627.13 371.35 C 628.79 362.18 627.64 352.36 623.05 344.16 C 617.26 333.20 606.18 325.24 593.93 323.30 C 586.57 321.79 578.88 323.08 571.94 325.76 M 551.37 594.41 C 542.70 600.65 536.76 610.50 535.24 621.07 C 533.15 633.04 537.37 645.57 545.33 654.60 C 548.31 659.45 552.50 663.33 556.21 667.60 C 569.68 682.83 583.97 697.29 598.14 711.87 C 598.80 712.53 599.46 713.20 600.14 713.88 C 601.13 714.87 602.13 715.87 603.13 716.88 C 613.79 727.21 624.43 737.58 635.26 747.74 C 652.16 763.55 669.35 779.05 686.85 794.20 C 748.19 847.43 812.93 896.60 878.76 944.12 C 895.15 955.51 910.59 968.39 928.26 977.83 C 945.41 986.84 964.51 992.20 983.88 993.02 C 1025.57 995.40 1067.66 976.27 1093.60 943.59 C 1117.62 913.96 1127.70 873.65 1120.48 836.20 C 1114.36 802.90 1094.86 772.30 1067.20 752.77 C 1051.21 741.16 1032.54 734.29 1014.51 726.63 C 994.75 718.24 974.94 710.00 955.09 701.83 C 946.38 698.24 937.68 694.62 928.89 691.24 C 922.64 688.74 916.37 686.33 910.14 683.79 C 901.46 680.51 892.81 677.13 884.16 673.77 C 882.71 673.26 881.28 672.73 879.86 672.23 C 878.61 671.73 877.37 671.27 876.15 670.78 C 874.69 670.27 873.24 669.74 871.80 669.24 C 867.95 667.67 864.03 666.26 860.13 664.81 C 857.70 663.94 855.28 663.05 852.84 662.23 C 832.42 654.68 811.86 647.57 791.19 640.75 C 786.18 639.06 781.14 637.46 776.14 635.73 C 775.58 635.60 774.45 635.34 773.89 635.21 C 772.63 634.73 771.36 634.28 770.12 633.83 C 766.75 632.93 763.43 631.87 760.15 630.72 C 759.59 630.59 758.47 630.32 757.91 630.18 C 755.90 629.46 753.87 628.79 751.84 628.17 C 749.53 627.44 747.22 626.73 744.89 626.12 C 743.62 625.69 742.33 625.29 741.08 624.87 C 739.01 624.33 736.97 623.70 734.91 623.13 C 733.89 622.82 732.87 622.52 731.86 622.25 C 730.28 621.74 728.70 621.28 727.14 620.78 C 726.57 620.65 725.44 620.39 724.87 620.26 C 722.55 619.47 720.22 618.75 717.86 618.17 C 716.28 617.68 714.69 617.22 713.14 616.71 C 712.57 616.60 711.43 616.37 710.87 616.25 C 709.28 615.74 707.70 615.30 706.13 614.81 C 704.01 614.32 701.93 613.71 699.84 613.19 C 698.26 612.72 696.67 612.28 695.12 611.80 C 693.00 611.32 690.91 610.75 688.81 610.24 C 687.22 609.76 685.63 609.34 684.06 608.87 C 681.41 608.20 678.77 607.51 676.14 606.82 C 674.79 606.49 673.44 606.17 672.12 605.82 C 670.77 605.50 669.44 605.16 668.12 604.81 C 665.43 604.25 662.78 603.53 660.14 602.81 C 659.05 602.60 657.98 602.39 656.91 602.18 C 649.92 600.36 642.87 598.82 635.85 597.19 C 631.19 596.18 626.56 595.03 621.87 594.16 C 620.22 593.76 618.55 593.45 616.90 593.15 C 614.97 592.66 613.01 592.33 611.09 591.88 C 609.41 591.57 607.73 591.28 606.07 590.91 C 600.97 590.12 595.96 588.77 590.82 588.22 L 590.11 587.67 C 587.10 587.48 584.06 587.51 581.08 586.99 C 570.70 585.32 559.82 588.24 551.37 594.41 Z" />
</g>
<g id="#3a484bff">
<path fill="#3a484b" opacity="1.00" d=" M 754.45 302.66 C 766.31 302.10 778.30 301.77 790.06 303.73 C 806.97 306.23 823.59 311.28 838.71 319.31 C 848.75 324.45 858.44 330.51 866.58 338.38 C 876.95 348.04 886.85 358.30 895.49 369.56 C 915.99 399.48 925.36 436.89 921.21 472.94 C 918.13 502.58 906.01 531.14 887.16 554.18 C 867.92 577.81 841.52 595.53 812.37 604.39 C 798.71 608.97 784.27 610.47 769.96 611.21 C 735.95 611.80 701.85 600.84 674.68 580.33 C 649.32 561.46 630.15 534.50 620.51 504.40 C 608.16 466.50 611.36 423.84 629.30 388.24 C 641.87 362.71 661.71 340.89 685.82 325.81 C 706.47 312.85 730.20 304.98 754.45 302.66 M 692.17 347.18 C 678.29 356.76 666.24 368.97 656.92 383.03 C 636.97 412.66 629.70 450.50 637.52 485.38 C 644.77 519.35 666.06 550.05 695.39 568.68 C 725.33 588.21 763.37 594.55 798.08 586.13 C 829.78 578.56 858.92 559.15 876.97 531.88 C 867.30 536.90 857.62 542.05 847.10 545.09 C 823.55 552.60 797.89 553.34 773.98 547.03 C 742.16 539.08 713.73 518.57 695.94 491.04 C 673.42 457.03 668.15 412.38 682.05 374.04 C 685.45 363.74 690.88 354.33 696.17 344.92 C 694.80 345.63 693.45 346.35 692.17 347.18 M 802.25 385.92 C 801.31 399.12 808.35 412.51 819.76 419.22 C 827.18 424.12 836.50 425.27 845.19 424.24 C 851.13 422.88 856.96 420.65 861.76 416.80 C 870.47 410.00 876.05 399.12 875.86 388.00 C 876.25 378.73 872.55 369.51 866.31 362.71 C 857.81 353.37 844.28 348.69 831.89 351.54 C 815.72 354.45 802.67 369.46 802.25 385.92 M 776.23 436.98 C 777.19 442.15 781.20 446.19 785.87 448.33 C 795.04 451.95 806.49 445.00 806.82 434.98 C 808.06 426.09 799.99 417.51 791.03 418.26 C 781.61 417.85 773.92 428.00 776.23 436.98 Z" />
</g>
<g id="#ffffffff">
<path fill="#ffffff" opacity="1.00" d=" M 571.94 325.76 C 578.88 323.08 586.57 321.79 593.93 323.30 C 606.18 325.24 617.26 333.20 623.05 344.16 C 627.64 352.36 628.79 362.18 627.13 371.35 C 625.26 378.28 623.62 385.28 620.73 391.89 C 620.23 393.31 619.71 394.72 619.22 396.15 C 618.72 397.38 618.24 398.63 617.76 399.88 C 617.14 401.55 616.50 403.23 615.85 404.90 C 615.32 406.32 614.77 407.73 614.27 409.16 C 613.76 410.38 613.27 411.61 612.77 412.84 C 612.12 414.53 611.45 416.21 610.79 417.90 C 610.12 419.54 609.46 421.19 608.81 422.84 C 606.33 428.95 603.77 435.03 601.23 441.11 C 600.42 443.10 599.53 445.06 598.56 446.97 C 598.52 447.23 598.45 447.75 598.41 448.01 C 597.46 449.95 596.56 451.91 595.71 453.90 C 594.77 456.25 593.74 458.56 592.68 460.86 C 591.13 464.59 589.42 468.25 587.78 471.94 C 585.97 476.02 583.99 480.02 582.21 484.11 C 580.36 488.03 578.60 491.98 576.71 495.88 C 576.22 496.95 575.74 498.03 575.27 499.12 C 574.60 500.45 573.94 501.79 573.29 503.14 C 571.11 507.71 568.92 512.29 566.63 516.82 C 566.15 517.98 565.66 519.15 565.20 520.33 L 564.60 520.56 C 564.15 521.82 563.69 523.08 563.27 524.35 L 562.67 524.59 C 562.19 525.75 561.70 526.91 561.24 528.09 C 560.08 530.35 558.90 532.60 557.80 534.89 C 557.13 536.21 556.46 537.53 555.79 538.85 C 554.53 541.21 553.32 543.60 552.12 546.00 C 551.20 547.78 550.27 549.57 549.35 551.37 C 548.78 552.49 548.22 553.63 547.65 554.76 C 543.34 563.31 538.69 571.69 534.27 580.18 C 533.58 581.47 532.89 582.76 532.21 584.05 C 528.14 591.68 523.93 599.23 519.73 606.79 C 509.54 625.41 498.85 643.74 488.18 662.09 C 461.40 707.60 433.02 752.14 404.56 796.61 C 394.65 812.48 382.83 827.46 367.82 838.82 C 352.66 850.63 334.84 858.87 316.15 863.19 C 281.51 871.22 243.78 864.47 214.11 844.88 C 185.67 826.57 164.95 796.83 157.39 763.88 C 149.01 728.96 155.83 690.74 175.70 660.83 C 181.56 651.53 189.15 643.54 196.54 635.48 C 229.53 603.48 262.05 570.97 295.85 539.82 C 330.44 507.60 365.86 476.26 402.38 446.24 C 404.19 444.75 405.98 443.23 407.82 441.77 C 409.28 440.60 410.71 439.41 412.18 438.24 C 417.33 434.11 422.43 429.92 427.59 425.78 C 432.13 422.30 436.61 418.74 441.14 415.24 C 447.13 410.53 453.17 405.89 459.24 401.29 C 460.57 400.28 461.89 399.27 463.23 398.27 C 468.43 394.42 473.64 390.59 478.83 386.72 C 505.67 367.07 533.13 348.23 561.47 330.79 C 565.21 329.65 568.26 327.06 571.94 325.76 M 579.75 346.76 C 574.79 348.91 570.17 351.75 565.70 354.77 C 548.64 365.86 532.05 377.65 515.62 389.65 C 486.17 411.33 457.15 433.62 428.86 456.79 C 398.64 481.86 368.86 507.45 338.98 532.92 C 333.18 537.71 327.96 543.14 322.36 548.15 C 291.07 576.83 261.29 607.10 230.76 636.59 C 226.38 640.93 221.80 645.08 217.68 649.67 C 205.88 663.40 196.41 679.28 190.79 696.54 C 181.94 723.00 181.88 752.96 193.15 778.64 C 201.33 799.45 218.23 816.21 237.90 826.42 C 263.51 839.46 294.28 839.55 321.13 830.27 C 322.39 829.76 323.66 829.28 324.93 828.80 C 352.33 818.18 375.57 797.91 390.65 772.79 C 408.95 744.04 427.28 715.31 445.52 686.53 C 454.00 672.31 462.69 658.23 471.08 643.97 C 490.85 607.71 510.73 571.51 530.01 534.99 C 539.93 516.32 549.01 497.23 558.31 478.25 C 573.69 445.50 588.94 412.64 601.83 378.80 C 603.82 372.75 606.39 366.44 605.12 359.95 C 604.38 353.44 599.03 348.23 593.12 346.08 L 593.10 345.68 C 588.65 345.41 583.95 344.91 579.75 346.76 Z" />
<path fill="#ffffff" opacity="1.00" d=" M 802.25 385.92 C 802.67 369.46 815.72 354.45 831.89 351.54 C 844.28 348.69 857.81 353.37 866.31 362.71 C 872.55 369.51 876.25 378.73 875.86 388.00 C 876.05 399.12 870.47 410.00 861.76 416.80 C 856.96 420.65 851.13 422.88 845.19 424.24 C 836.50 425.27 827.18 424.12 819.76 419.22 C 808.35 412.51 801.31 399.12 802.25 385.92 Z" />
<path fill="#ffffff" opacity="1.00" d=" M 776.23 436.98 C 773.92 428.00 781.61 417.85 791.03 418.26 C 799.99 417.51 808.06 426.09 806.82 434.98 C 806.49 445.00 795.04 451.95 785.87 448.33 C 781.20 446.19 777.19 442.15 776.23 436.98 Z" />
<path fill="#ffffff" opacity="1.00" d=" M 551.37 594.41 C 559.82 588.24 570.70 585.32 581.08 586.99 C 584.06 587.51 587.10 587.48 590.11 587.67 L 590.82 588.22 C 595.96 588.77 600.97 590.12 606.07 590.91 C 607.73 591.28 609.41 591.57 611.09 591.88 C 613.01 592.33 614.97 592.66 616.90 593.15 C 618.55 593.45 620.22 593.76 621.87 594.16 C 626.56 595.03 631.19 596.18 635.85 597.19 C 642.87 598.82 649.92 600.36 656.91 602.18 C 657.98 602.39 659.05 602.60 660.14 602.81 C 662.78 603.53 665.43 604.25 668.12 604.81 C 669.44 605.16 670.77 605.50 672.12 605.82 C 673.44 606.17 674.79 606.49 676.14 606.82 C 678.77 607.51 681.41 608.20 684.06 608.87 C 685.63 609.34 687.22 609.76 688.81 610.24 C 690.91 610.75 693.00 611.32 695.12 611.80 C 696.67 612.28 698.26 612.72 699.84 613.19 C 701.93 613.71 704.01 614.32 706.13 614.81 C 707.70 615.30 709.28 615.74 710.87 616.25 C 711.43 616.37 712.57 616.60 713.14 616.71 C 714.69 617.22 716.28 617.68 717.86 618.17 C 720.22 618.75 722.55 619.47 724.87 620.26 C 725.44 620.39 726.57 620.65 727.14 620.78 C 728.70 621.28 730.28 621.74 731.86 622.25 C 732.87 622.52 733.89 622.82 734.91 623.13 C 736.97 623.70 739.01 624.33 741.08 624.87 C 742.33 625.29 743.62 625.69 744.89 626.12 C 747.22 626.73 749.53 627.44 751.84 628.17 C 753.87 628.79 755.90 629.46 757.91 630.18 C 758.47 630.32 759.59 630.59 760.15 630.72 C 763.43 631.87 766.75 632.93 770.12 633.83 C 771.36 634.28 772.63 634.73 773.89 635.21 C 774.45 635.34 775.58 635.60 776.14 635.73 C 781.14 637.46 786.18 639.06 791.19 640.75 C 811.86 647.57 832.42 654.68 852.84 662.23 C 855.28 663.05 857.70 663.94 860.13 664.81 C 864.03 666.26 867.95 667.67 871.80 669.24 C 873.24 669.74 874.69 670.27 876.15 670.78 C 877.37 671.27 878.61 671.73 879.86 672.23 C 881.28 672.73 882.71 673.26 884.16 673.77 C 892.81 677.13 901.46 680.51 910.14 683.79 C 916.37 686.33 922.64 688.74 928.89 691.24 C 937.68 694.62 946.38 698.24 955.09 701.83 C 974.94 710.00 994.75 718.24 1014.51 726.63 C 1032.54 734.29 1051.21 741.16 1067.20 752.77 C 1094.86 772.30 1114.36 802.90 1120.48 836.20 C 1127.70 873.65 1117.62 913.96 1093.60 943.59 C 1067.66 976.27 1025.57 995.40 983.88 993.02 C 964.51 992.20 945.41 986.84 928.26 977.83 C 910.59 968.39 895.15 955.51 878.76 944.12 C 812.93 896.60 748.19 847.43 686.85 794.20 C 669.35 779.05 652.16 763.55 635.26 747.74 C 624.43 737.58 613.79 727.21 603.13 716.88 C 602.13 715.87 601.13 714.87 600.14 713.88 C 599.46 713.20 598.80 712.53 598.14 711.87 C 583.97 697.29 569.68 682.83 556.21 667.60 C 552.50 663.33 548.31 659.45 545.33 654.60 C 537.37 645.57 533.15 633.04 535.24 621.07 C 536.76 610.50 542.70 600.65 551.37 594.41 M 572.03 609.49 C 568.54 610.03 565.53 611.93 562.57 613.72 C 560.70 616.24 559.04 618.94 557.76 621.80 C 556.04 627.62 557.69 634.03 561.14 638.90 C 565.85 645.44 571.45 651.26 577.01 657.09 C 602.65 684.06 629.71 709.66 657.09 734.85 C 694.83 769.59 734.72 801.87 773.97 834.87 C 786.58 845.78 800.01 855.66 813.27 865.76 C 829.45 878.40 846.31 890.13 862.85 902.29 C 879.29 914.20 895.73 926.12 912.18 938.02 C 945.04 961.78 989.53 969.92 1028.10 956.31 C 1046.58 949.68 1063.46 937.95 1075.03 921.96 C 1087.36 905.02 1094.67 884.04 1093.57 862.96 C 1093.43 851.05 1091.01 839.21 1087.05 828.00 C 1074.39 793.10 1045.39 765.03 1010.88 751.84 C 991.64 743.72 972.39 735.63 953.13 727.57 C 936.24 720.50 919.45 713.21 902.34 706.69 C 888.59 701.43 875.05 695.62 861.06 691.04 C 820.11 677.15 779.32 662.79 738.06 649.83 C 734.03 648.72 730.09 647.32 726.02 646.41 C 725.76 646.22 725.25 645.85 725.00 645.67 C 720.26 644.89 715.83 642.99 711.20 641.83 C 708.80 641.21 706.43 640.52 704.09 639.77 C 703.54 639.63 702.43 639.36 701.88 639.23 C 664.87 628.51 627.63 618.47 589.87 610.77 C 584.01 609.68 577.98 608.51 572.03 609.49 Z" />
<path fill="#ffffff" opacity="1.00" d=" M 273.99 676.03 C 291.54 673.41 310.05 678.79 323.52 690.33 C 334.09 699.19 341.55 711.63 344.48 725.10 C 347.67 739.91 345.51 755.90 338.08 769.16 C 329.78 784.52 314.71 795.94 297.77 800.07 C 285.49 802.93 272.29 802.32 260.47 797.79 C 244.69 792.01 231.58 779.50 224.84 764.12 C 218.18 749.29 217.73 731.86 223.40 716.64 C 231.14 695.16 251.35 678.95 273.99 676.03 M 230.33 739.01 C 230.29 757.36 240.78 775.29 256.84 784.17 C 269.77 791.65 285.94 793.15 300.00 788.09 C 313.49 783.47 324.63 773.01 330.61 760.12 C 315.27 771.04 294.06 773.14 277.10 764.79 C 261.20 757.39 249.81 741.38 247.78 723.99 C 246.50 714.57 248.27 705.01 251.78 696.25 C 238.37 706.02 230.05 722.40 230.33 739.01 Z" />
<path fill="#ffffff" opacity="1.00" d=" M 988.69 800.95 C 1006.88 798.93 1025.90 805.16 1039.08 817.92 C 1051.65 829.66 1059.04 846.79 1058.77 864.00 C 1058.90 882.82 1049.87 901.46 1035.06 913.08 C 1023.82 922.07 1009.41 927.13 994.99 926.76 C 973.95 926.92 953.51 915.26 942.38 897.50 C 931.77 880.95 929.57 859.39 936.79 841.08 C 944.83 819.37 965.73 803.43 988.69 800.95 M 950.94 839.95 C 941.17 856.19 941.73 878.08 952.43 893.75 C 962.29 909.03 980.98 918.12 999.05 916.84 C 1016.70 914.77 1034.06 903.96 1040.92 887.13 C 1024.94 900.01 1001.12 901.82 983.46 891.32 C 967.40 882.05 956.97 863.59 958.16 844.97 C 958.05 838.72 960.28 832.86 961.76 826.89 C 957.62 830.75 953.74 834.99 950.94 839.95 Z" />
</g>
<g id="#cd0009ff">
<path fill="#cd0009" opacity="1.00" d=" M 579.75 346.76 C 583.95 344.91 588.65 345.41 593.10 345.68 L 593.12 346.08 C 593.62 350.63 591.60 354.89 590.12 359.08 C 575.85 395.84 559.28 431.65 542.17 467.15 C 516.76 520.39 487.70 571.77 459.58 623.59 C 450.53 638.83 441.36 654.01 432.13 669.14 C 415.78 694.79 399.53 720.51 383.11 746.12 C 377.96 754.21 373.15 762.58 366.74 769.77 C 343.44 797.27 308.46 816.11 271.97 815.77 C 247.42 816.30 222.73 807.00 204.75 790.25 C 200.70 786.55 197.51 782.01 193.15 778.64 C 181.88 752.96 181.94 723.00 190.79 696.54 C 196.41 679.28 205.88 663.40 217.68 649.67 C 221.80 645.08 226.38 640.93 230.76 636.59 C 261.29 607.10 291.07 576.83 322.36 548.15 C 327.96 543.14 333.18 537.71 338.98 532.92 C 368.86 507.45 398.64 481.86 428.86 456.79 C 457.15 433.62 486.17 411.33 515.62 389.65 C 532.05 377.65 548.64 365.86 565.70 354.77 C 570.17 351.75 574.79 348.91 579.75 346.76 M 273.99 676.03 C 251.35 678.95 231.14 695.16 223.40 716.64 C 217.73 731.86 218.18 749.29 224.84 764.12 C 231.58 779.50 244.69 792.01 260.47 797.79 C 272.29 802.32 285.49 802.93 297.77 800.07 C 314.71 795.94 329.78 784.52 338.08 769.16 C 345.51 755.90 347.67 739.91 344.48 725.10 C 341.55 711.63 334.09 699.19 323.52 690.33 C 310.05 678.79 291.54 673.41 273.99 676.03 Z" />
<path fill="#cd0009" opacity="1.00" d=" M 572.03 609.49 C 577.98 608.51 584.01 609.68 589.87 610.77 C 627.63 618.47 664.87 628.51 701.88 639.23 C 702.43 639.36 703.54 639.63 704.09 639.77 C 706.43 640.52 708.80 641.21 711.20 641.83 C 715.83 642.99 720.26 644.89 725.00 645.67 C 725.25 645.85 725.76 646.22 726.02 646.41 C 730.09 647.32 734.03 648.72 738.06 649.83 C 779.32 662.79 820.11 677.15 861.06 691.04 C 875.05 695.62 888.59 701.43 902.34 706.69 C 919.45 713.21 936.24 720.50 953.13 727.57 C 972.39 735.63 991.64 743.72 1010.88 751.84 C 1045.39 765.03 1074.39 793.10 1087.05 828.00 C 1091.01 839.21 1093.43 851.05 1093.57 862.96 C 1090.89 878.52 1082.97 892.89 1072.64 904.71 C 1060.11 919.22 1043.00 929.36 1024.69 934.74 C 988.82 945.29 948.87 937.46 918.07 916.82 C 888.29 895.31 858.57 873.72 828.87 852.10 C 815.48 841.83 801.95 831.73 788.66 821.33 C 771.76 807.23 754.82 793.17 737.97 779.01 C 715.71 760.30 693.31 741.74 671.89 722.07 C 643.70 696.66 616.07 670.62 589.42 643.60 C 580.26 633.83 570.54 624.52 562.57 613.72 C 565.53 611.93 568.54 610.03 572.03 609.49 M 988.69 800.95 C 965.73 803.43 944.83 819.37 936.79 841.08 C 929.57 859.39 931.77 880.95 942.38 897.50 C 953.51 915.26 973.95 926.92 994.99 926.76 C 1009.41 927.13 1023.82 922.07 1035.06 913.08 C 1049.87 901.46 1058.90 882.82 1058.77 864.00 C 1059.04 846.79 1051.65 829.66 1039.08 817.92 C 1025.90 805.16 1006.88 798.93 988.69 800.95 Z" />
</g>
<g id="#657278ff">
<path fill="#657278" opacity="1.00" d=" M 692.17 347.18 C 693.45 346.35 694.80 345.63 696.17 344.92 C 690.88 354.33 685.45 363.74 682.05 374.04 C 668.15 412.38 673.42 457.03 695.94 491.04 C 713.73 518.57 742.16 539.08 773.98 547.03 C 797.89 553.34 823.55 552.60 847.10 545.09 C 857.62 542.05 867.30 536.90 876.97 531.88 C 858.92 559.15 829.78 578.56 798.08 586.13 C 763.37 594.55 725.33 588.21 695.39 568.68 C 666.06 550.05 644.77 519.35 637.52 485.38 C 629.70 450.50 636.97 412.66 656.92 383.03 C 666.24 368.97 678.29 356.76 692.17 347.18 Z" />
</g>
<g id="#8d0006ff">
<path fill="#8d0006" opacity="1.00" d=" M 593.12 346.08 C 599.03 348.23 604.38 353.44 605.12 359.95 C 606.39 366.44 603.82 372.75 601.83 378.80 C 588.94 412.64 573.69 445.50 558.31 478.25 C 549.01 497.23 539.93 516.32 530.01 534.99 C 510.73 571.51 490.85 607.71 471.08 643.97 C 462.69 658.23 454.00 672.31 445.52 686.53 C 427.28 715.31 408.95 744.04 390.65 772.79 C 375.57 797.91 352.33 818.18 324.93 828.80 C 323.66 829.28 322.39 829.76 321.13 830.27 C 294.28 839.55 263.51 839.46 237.90 826.42 C 218.23 816.21 201.33 799.45 193.15 778.64 C 197.51 782.01 200.70 786.55 204.75 790.25 C 222.73 807.00 247.42 816.30 271.97 815.77 C 308.46 816.11 343.44 797.27 366.74 769.77 C 373.15 762.58 377.96 754.21 383.11 746.12 C 399.53 720.51 415.78 694.79 432.13 669.14 C 441.36 654.01 450.53 638.83 459.58 623.59 C 487.70 571.77 516.76 520.39 542.17 467.15 C 559.28 431.65 575.85 395.84 590.12 359.08 C 591.60 354.89 593.62 350.63 593.12 346.08 Z" />
<path fill="#8d0006" opacity="1.00" d=" M 557.76 621.80 C 559.04 618.94 560.70 616.24 562.57 613.72 C 570.54 624.52 580.26 633.83 589.42 643.60 C 616.07 670.62 643.70 696.66 671.89 722.07 C 693.31 741.74 715.71 760.30 737.97 779.01 C 754.82 793.17 771.76 807.23 788.66 821.33 C 801.95 831.73 815.48 841.83 828.87 852.10 C 858.57 873.72 888.29 895.31 918.07 916.82 C 948.87 937.46 988.82 945.29 1024.69 934.74 C 1043.00 929.36 1060.11 919.22 1072.64 904.71 C 1082.97 892.89 1090.89 878.52 1093.57 862.96 C 1094.67 884.04 1087.36 905.02 1075.03 921.96 C 1063.46 937.95 1046.58 949.68 1028.10 956.31 C 989.53 969.92 945.04 961.78 912.18 938.02 C 895.73 926.12 879.29 914.20 862.85 902.29 C 846.31 890.13 829.45 878.40 813.27 865.76 C 800.01 855.66 786.58 845.78 773.97 834.87 C 734.72 801.87 694.83 769.59 657.09 734.85 C 629.71 709.66 602.65 684.06 577.01 657.09 C 571.45 651.26 565.85 645.44 561.14 638.90 C 557.69 634.03 556.04 627.62 557.76 621.80 Z" />
</g>
<g id="#797979ff">
<path fill="#797979" opacity="1.00" d=" M 230.33 739.01 C 230.05 722.40 238.37 706.02 251.78 696.25 C 248.27 705.01 246.50 714.57 247.78 723.99 C 249.81 741.38 261.20 757.39 277.10 764.79 C 294.06 773.14 315.27 771.04 330.61 760.12 C 324.63 773.01 313.49 783.47 300.00 788.09 C 285.94 793.15 269.77 791.65 256.84 784.17 C 240.78 775.29 230.29 757.36 230.33 739.01 Z" />
<path fill="#797979" opacity="1.00" d=" M 950.94 839.95 C 953.74 834.99 957.62 830.75 961.76 826.89 C 960.28 832.86 958.05 838.72 958.16 844.97 C 956.97 863.59 967.40 882.05 983.46 891.32 C 1001.12 901.82 1024.94 900.01 1040.92 887.13 C 1034.06 903.96 1016.70 914.77 999.05 916.84 C 980.98 918.12 962.29 909.03 952.43 893.75 C 941.73 878.08 941.17 856.19 950.94 839.95 Z" />
</g>
</svg>
