<?xml version="1.0" encoding="UTF-8" ?>
<!DOCTYPE svg PUBLIC "-//W3C//DTD SVG 1.1//EN" "http://www.w3.org/Graphics/SVG/1.1/DTD/svg11.dtd">
<svg width="1276pt" height="1276pt" viewBox="0 0 1276 1276" version="1.1" xmlns="http://www.w3.org/2000/svg">
<g id="#00000086">
<path fill="#000000" opacity="0.53" d=" M 824.90 302.18 C 834.44 299.70 844.26 297.33 854.19 298.17 C 843.96 299.42 833.63 300.47 823.76 303.58 C 820.50 304.61 817.20 305.51 813.90 306.38 C 817.12 303.99 821.15 303.34 824.90 302.18 Z" />
</g>
<g id="#000000ff">
<path fill="#000000" opacity="1.00" d=" M 854.19 298.17 C 857.39 297.98 860.61 297.98 863.82 298.17 C 873.02 299.10 882.11 300.74 891.22 302.27 C 930.58 312.08 964.23 342.46 977.88 380.68 C 978.85 384.96 980.25 389.11 981.86 393.19 C 982.39 394.82 982.67 396.53 982.89 398.24 C 983.69 405.57 985.04 412.84 985.82 420.17 C 986.00 422.70 986.01 425.24 985.89 427.77 C 985.09 437.66 983.30 447.42 981.73 457.20 C 971.52 498.53 938.53 533.20 897.92 545.85 L 897.28 546.27 C 894.89 546.85 892.52 547.53 890.11 547.98 C 883.73 548.90 877.41 550.13 871.11 551.43 C 865.49 552.03 859.82 552.01 854.19 551.83 C 844.22 550.65 834.17 549.55 824.51 546.69 C 818.51 545.09 812.82 542.56 806.93 540.67 C 793.69 535.17 781.85 526.67 771.35 516.99 C 748.94 495.60 734.74 465.90 732.32 435.01 C 731.97 426.65 731.88 418.24 732.75 409.91 C 734.13 400.79 736.04 391.70 739.13 382.99 C 751.20 348.15 779.23 319.09 813.90 306.38 C 817.20 305.51 820.50 304.61 823.76 303.58 C 833.63 300.47 843.96 299.42 854.19 298.17 M 835.96 312.87 C 832.25 313.79 828.53 314.70 824.86 315.76 C 820.90 317.12 816.93 318.45 813.10 320.12 C 780.30 334.06 754.75 364.06 746.90 398.91 C 746.59 400.59 746.19 402.26 745.82 403.94 C 741.80 426.89 744.77 451.03 754.80 472.11 C 765.86 495.34 784.96 514.58 808.12 525.81 C 811.10 527.22 814.11 528.58 817.19 529.78 C 818.17 530.15 819.16 530.52 820.17 530.89 C 822.40 531.67 824.68 532.33 826.93 533.08 C 828.24 533.47 829.57 533.83 830.91 534.18 C 844.34 537.63 858.27 538.16 872.05 537.16 C 877.70 536.09 883.45 535.53 888.98 533.87 C 890.00 533.62 891.02 533.37 892.06 533.12 C 898.50 531.12 904.83 528.75 910.91 525.81 C 933.34 514.85 952.06 496.45 963.19 474.08 C 966.99 466.38 969.85 458.26 971.96 449.94 C 972.24 448.26 972.56 446.58 972.98 444.93 C 975.43 431.16 975.43 416.89 972.95 403.12 C 972.55 401.45 972.18 399.78 971.83 398.11 C 971.59 397.05 971.36 395.99 971.15 394.94 C 970.11 391.62 969.05 388.32 967.93 385.04 C 967.53 384.04 967.14 383.06 966.76 382.08 C 955.71 354.45 933.19 331.85 905.92 320.12 C 902.07 318.45 898.10 317.11 894.16 315.69 C 893.60 315.55 892.47 315.27 891.90 315.13 C 888.98 314.30 886.04 313.56 883.09 312.86 C 879.09 312.25 875.12 311.28 871.06 311.27 C 861.35 311.10 851.61 310.80 841.94 311.77 C 839.96 312.25 837.97 312.64 835.96 312.87 Z" />
</g>
<g id="#00000088">
<path fill="#000000" opacity="0.53" d=" M 863.82 298.17 C 871.66 297.39 879.42 299.05 887.07 300.57 C 888.56 300.81 889.85 301.64 891.22 302.27 C 882.11 300.74 873.02 299.10 863.82 298.17 Z" />
</g>
<g id="#b6b8b9ff">
<path fill="#b6b8b9" opacity="1.00" d=" M 835.96 312.87 C 837.97 312.64 839.96 312.25 841.94 311.77 C 851.61 310.80 861.35 311.10 871.06 311.27 C 875.12 311.28 879.09 312.25 883.09 312.86 C 886.04 313.56 888.98 314.30 891.90 315.13 C 892.47 315.27 893.60 315.55 894.16 315.69 C 898.10 317.11 902.07 318.45 905.92 320.12 C 933.19 331.85 955.71 354.45 966.76 382.08 C 967.14 383.06 967.53 384.04 967.93 385.04 C 969.05 388.32 970.11 391.62 971.15 394.94 C 971.36 395.99 971.59 397.05 971.83 398.11 C 972.18 399.78 972.55 401.45 972.95 403.12 C 975.43 416.89 975.43 431.16 972.98 444.93 C 972.56 446.58 972.24 448.26 971.96 449.94 C 969.85 458.26 966.99 466.38 963.19 474.08 C 952.06 496.45 933.34 514.85 910.91 525.81 C 904.83 528.75 898.50 531.12 892.06 533.12 C 891.02 533.37 890.00 533.62 888.98 533.87 C 883.45 535.53 877.70 536.09 872.05 537.16 C 858.27 538.16 844.34 537.63 830.91 534.18 C 829.57 533.83 828.24 533.47 826.93 533.08 C 824.68 532.33 822.40 531.67 820.17 530.89 C 819.16 530.52 818.17 530.15 817.19 529.78 C 814.11 528.58 811.10 527.22 808.12 525.81 C 784.96 514.58 765.86 495.34 754.80 472.11 C 744.77 451.03 741.80 426.89 745.82 403.94 C 746.19 402.26 746.59 400.59 746.90 398.91 C 754.75 364.06 780.30 334.06 813.10 320.12 C 816.93 318.45 820.90 317.12 824.86 315.76 C 828.53 314.70 832.25 313.79 835.96 312.87 M 807.93 335.40 C 801.65 337.62 795.87 341.40 791.61 346.54 C 789.58 349.13 787.65 352.62 789.06 355.95 C 790.44 359.69 792.47 363.78 796.35 365.45 C 801.63 367.02 806.34 363.58 811.10 361.91 C 837.79 351.67 867.25 348.00 895.52 352.57 C 895.56 360.19 896.43 368.14 893.49 375.38 C 890.82 383.15 883.83 388.48 876.46 391.48 C 867.96 394.95 859.00 397.34 849.91 398.58 C 862.30 397.85 875.03 395.36 887.25 398.78 C 895.90 401.28 902.03 408.76 905.21 416.89 C 908.74 425.58 911.06 434.70 912.38 443.98 C 911.48 430.99 908.19 417.53 912.38 404.79 C 915.36 395.28 924.45 389.42 933.45 386.41 C 940.82 384.06 948.21 381.47 955.98 380.86 C 945.66 380.88 935.34 383.65 925.01 381.91 C 916.56 381.00 908.41 376.35 904.17 368.84 C 901.38 363.74 898.30 358.34 898.22 352.38 C 908.77 354.61 919.25 357.35 929.11 361.81 C 924.57 356.08 918.72 351.57 912.95 347.15 C 895.44 334.27 873.77 326.86 851.97 327.36 C 836.94 326.98 821.98 330.21 807.93 335.40 M 754.69 419.03 C 754.57 421.35 754.46 423.69 754.56 426.03 C 755.87 443.52 760.33 461.21 770.19 475.93 C 779.64 490.79 792.79 503.33 808.23 511.83 C 823.97 520.70 841.98 524.90 859.96 525.38 C 880.97 524.65 902.25 518.95 919.41 506.46 C 934.09 495.96 945.47 481.20 952.88 464.80 C 954.93 459.92 957.32 455.06 957.91 449.72 C 951.04 462.95 939.88 473.60 927.10 481.09 C 915.72 487.82 902.99 492.00 890.05 494.51 C 869.07 498.29 846.69 498.11 826.83 489.56 C 794.88 476.27 770.96 448.88 754.69 419.03 Z" />
</g>
<g id="#c1ac6dff">
<path fill="#c1ac6d" opacity="1.00" d=" M 462.54 344.40 C 505.44 327.35 551.73 317.77 598.01 319.70 C 636.01 321.39 674.53 331.09 706.22 352.76 C 718.56 361.18 729.75 371.35 739.13 382.99 C 736.04 391.70 734.13 400.79 732.75 409.91 C 731.88 418.24 731.97 426.65 732.32 435.01 C 734.74 465.90 748.94 495.60 771.35 516.99 L 771.91 517.77 C 768.59 543.35 759.80 567.97 748.72 591.18 C 725.14 590.60 701.56 591.14 677.98 590.94 C 666.82 590.74 655.65 591.42 644.51 590.63 C 655.15 573.16 664.89 555.03 671.86 535.75 C 680.15 513.11 685.30 489.17 685.63 465.01 C 685.92 443.92 682.42 422.38 672.72 403.47 C 664.92 388.05 652.64 374.86 637.55 366.37 C 622.20 357.53 604.51 353.57 586.96 352.53 C 564.40 351.41 541.78 354.74 520.02 360.60 C 479.41 371.12 440.73 389.66 407.86 415.82 C 377.20 440.05 351.80 470.66 332.65 504.67 C 317.52 531.17 305.99 560.35 303.39 590.97 C 282.94 590.89 262.49 591.09 242.04 590.87 C 238.03 590.80 234.02 591.09 230.03 591.54 C 236.29 553.58 254.72 518.78 277.21 488.00 C 300.33 456.31 328.24 428.23 359.12 404.09 C 390.64 379.60 425.42 359.17 462.54 344.40 Z" />
<path fill="#c1ac6d" opacity="1.00" d=" M 574.81 401.85 C 597.79 394.07 622.75 395.41 646.27 399.85 C 632.38 403.89 619.50 411.05 608.47 420.38 C 593.29 433.04 581.07 448.81 570.24 465.25 C 546.83 501.42 529.78 541.19 513.69 581.01 L 513.03 581.32 C 487.83 580.48 462.60 581.42 437.39 580.82 C 453.91 547.17 471.06 513.73 491.06 481.98 C 501.68 465.31 513.17 449.09 526.73 434.66 C 540.11 420.45 556.15 408.17 574.81 401.85 Z" />
</g>
<g id="#ffffffff">
<path fill="#ffffff" opacity="1.00" d=" M 807.93 335.40 C 821.98 330.21 836.94 326.98 851.97 327.36 C 873.77 326.86 895.44 334.27 912.95 347.15 C 918.72 351.57 924.57 356.08 929.11 361.81 C 919.25 357.35 908.77 354.61 898.22 352.38 C 898.30 358.34 901.38 363.74 904.17 368.84 C 908.41 376.35 916.56 381.00 925.01 381.91 C 935.34 383.65 945.66 380.88 955.98 380.86 C 948.21 381.47 940.82 384.06 933.45 386.41 C 924.45 389.42 915.36 395.28 912.38 404.79 C 908.19 417.53 911.48 430.99 912.38 443.98 C 911.06 434.70 908.74 425.58 905.21 416.89 C 902.03 408.76 895.90 401.28 887.25 398.78 C 875.03 395.36 862.30 397.85 849.91 398.58 C 859.00 397.34 867.96 394.95 876.46 391.48 C 883.83 388.48 890.82 383.15 893.49 375.38 C 896.43 368.14 895.56 360.19 895.52 352.57 C 867.25 348.00 837.79 351.67 811.10 361.91 C 806.34 363.58 801.63 367.02 796.35 365.45 C 792.47 363.78 790.44 359.69 789.06 355.95 C 787.65 352.62 789.58 349.13 791.61 346.54 C 795.87 341.40 801.65 337.62 807.93 335.40 Z" />
</g>
<g id="#00000080">
<path fill="#000000" opacity="0.50" d=" M 977.88 380.68 C 980.61 384.22 981.39 388.85 981.86 393.19 C 980.25 389.11 978.85 384.96 977.88 380.68 Z" />
</g>
<g id="#0000008f">
<path fill="#000000" opacity="0.56" d=" M 982.96 395.63 C 984.86 403.65 986.58 411.89 985.82 420.17 C 985.04 412.84 983.69 405.57 982.89 398.24 C 982.91 397.59 982.94 396.28 982.96 395.63 Z" />
</g>
<g id="#5f5f61ff">
<path fill="#5f5f61" opacity="1.00" d=" M 754.69 419.03 C 770.96 448.88 794.88 476.27 826.83 489.56 C 846.69 498.11 869.07 498.29 890.05 494.51 C 902.99 492.00 915.72 487.82 927.10 481.09 C 939.88 473.60 951.04 462.95 957.91 449.72 C 957.32 455.06 954.93 459.92 952.88 464.80 C 945.47 481.20 934.09 495.96 919.41 506.46 C 902.25 518.95 880.97 524.65 859.96 525.38 C 841.98 524.90 823.97 520.70 808.23 511.83 C 792.79 503.33 779.64 490.79 770.19 475.93 C 760.33 461.21 755.87 443.52 754.56 426.03 C 754.46 423.69 754.57 421.35 754.69 419.03 Z" />
</g>
<g id="#00000094">
<path fill="#000000" opacity="0.58" d=" M 981.73 457.20 C 983.30 447.42 985.09 437.66 985.89 427.77 C 986.56 436.47 985.11 445.12 983.24 453.58 C 982.89 454.84 982.20 455.98 981.73 457.20 Z" />
</g>
<g id="#00000084">
<path fill="#000000" opacity="0.52" d=" M 806.93 540.67 C 812.82 542.56 818.51 545.09 824.51 546.69 C 834.17 549.55 844.22 550.65 854.19 551.83 C 843.52 552.69 832.98 550.02 822.77 547.23 C 817.47 545.25 811.32 544.28 806.93 540.67 Z" />
</g>
<g id="#0000007c">
<path fill="#000000" opacity="0.49" d=" M 871.11 551.43 C 877.41 550.13 883.73 548.90 890.11 547.98 L 891.33 548.04 C 884.86 550.17 877.95 551.85 871.11 551.43 Z" />
</g>
<g id="#c3af72ff">
<path fill="#c3af72" opacity="1.00" d=" M 425.72 604.99 C 429.50 596.88 433.46 588.86 437.39 580.82 C 462.60 581.42 487.83 580.48 513.03 581.32 L 513.35 581.64 C 510.87 589.56 507.42 597.14 504.74 605.00 C 478.40 605.08 452.06 605.10 425.72 604.99 Z" />
</g>
<g id="#c5b175ff">
<path fill="#c5b175" opacity="1.00" d=" M 230.03 591.54 C 234.02 591.09 238.03 590.80 242.04 590.87 C 262.49 591.09 282.94 590.89 303.39 590.97 C 302.96 599.93 302.78 609.01 304.53 617.85 C 304.90 619.92 305.36 622.00 305.38 624.13 L 305.11 624.72 C 279.90 625.48 254.65 624.57 229.43 625.21 C 229.27 626.92 229.11 628.63 229.01 630.36 C 227.41 617.48 227.99 604.34 230.03 591.54 Z" />
</g>
<g id="#c4b074ff">
<path fill="#c4b074" opacity="1.00" d=" M 644.33 590.62 L 644.51 590.63 C 655.65 591.42 666.82 590.74 677.98 590.94 C 701.56 591.14 725.14 590.60 748.72 591.18 C 744.22 600.56 739.26 609.72 733.83 618.59 C 727.58 617.76 721.28 617.86 715.00 618.00 C 689.67 617.96 664.34 617.99 639.01 618.00 C 634.45 618.05 629.91 617.87 625.37 617.56 C 632.13 608.90 638.65 600.03 644.33 590.62 Z" />
</g>
<g id="#c6b379ff">
<path fill="#c6b379" opacity="1.00" d=" M 425.72 604.99 C 452.06 605.10 478.40 605.08 504.74 605.00 C 500.34 616.79 496.12 628.66 492.09 640.59 L 491.96 640.58 C 482.66 639.52 473.31 640.16 463.98 640.08 C 445.78 639.85 427.57 640.43 409.38 639.74 C 414.74 628.12 420.18 616.53 425.72 604.99 Z" />
</g>
<g id="#c7b47bff">
<path fill="#c7b47b" opacity="1.00" d=" M 601.62 643.62 C 610.09 635.46 618.03 626.75 625.37 617.56 C 629.91 617.87 634.45 618.05 639.01 618.00 C 664.34 617.99 689.67 617.96 715.00 618.00 C 721.28 617.86 727.58 617.76 733.83 618.59 C 728.30 627.56 722.33 636.27 715.81 644.56 C 709.56 643.77 703.26 643.94 696.99 644.03 C 673.99 643.88 650.98 644.08 627.98 643.99 C 619.19 644.00 610.39 644.26 601.62 643.62 Z" />
</g>
<g id="#c8b57dff">
<path fill="#c8b57d" opacity="1.00" d=" M 229.43 625.21 C 254.65 624.57 279.90 625.48 305.11 624.72 L 305.75 624.83 C 308.83 634.80 313.45 644.62 321.21 651.86 C 294.81 652.16 268.40 652.14 242.00 651.96 C 239.30 652.03 236.62 652.30 233.95 652.58 L 233.82 652.59 C 231.64 645.33 229.62 637.94 229.01 630.36 C 229.11 628.63 229.27 626.92 229.43 625.21 Z" />
</g>
<g id="#cab882ff">
<path fill="#cab882" opacity="1.00" d=" M 1019.12 636.18 C 1030.95 632.13 1045.46 632.31 1055.44 640.66 C 1063.23 647.18 1066.51 657.38 1067.99 667.10 C 1041.31 667.13 1014.64 667.08 987.97 667.12 C 984.43 667.08 980.91 666.83 977.40 666.58 C 989.27 654.06 1002.61 642.03 1019.12 636.18 Z" />
<path fill="#cab882" opacity="1.00" d=" M 572.72 667.62 C 582.87 660.27 592.65 652.38 601.62 643.62 C 610.39 644.26 619.19 644.00 627.98 643.99 C 650.98 644.08 673.99 643.88 696.99 644.03 C 703.26 643.94 709.56 643.77 715.81 644.56 C 709.22 652.94 702.19 660.99 694.59 668.47 C 684.74 667.73 674.86 668.12 664.99 668.07 C 637.66 668.04 610.34 668.06 583.01 668.08 C 579.57 668.05 576.15 667.84 572.72 667.62 Z" />
</g>
<g id="#cab983ff">
<path fill="#cab983" opacity="1.00" d=" M 391.44 679.07 C 397.33 665.92 403.31 652.81 409.38 639.74 C 427.57 640.43 445.78 639.85 463.98 640.08 C 473.31 640.16 482.66 639.52 491.96 640.58 C 487.65 653.60 483.18 666.57 479.05 679.65 L 478.92 679.64 C 475.63 679.20 472.33 678.85 469.01 678.85 C 443.15 679.08 417.30 678.73 391.44 679.07 Z" />
</g>
<g id="#ccba86ff">
<path fill="#ccba86" opacity="1.00" d=" M 770.60 648.14 C 793.28 648.17 815.97 647.98 838.64 648.16 C 833.60 661.45 828.54 674.73 823.53 688.03 C 807.02 688.12 790.51 688.02 774.00 687.96 C 767.67 688.10 761.32 688.29 755.00 687.69 L 754.71 687.40 C 759.77 674.22 765.43 661.28 770.60 648.14 Z" />
</g>
<g id="#cbb984ff">
<path fill="#cbb984" opacity="1.00" d=" M 893.71 672.11 C 896.08 663.86 899.23 655.79 902.44 647.82 C 924.65 648.55 946.89 647.73 969.11 648.18 C 965.97 656.54 962.78 664.88 959.85 673.32 L 959.69 673.31 C 937.77 672.46 915.81 673.63 893.90 672.72 L 893.71 672.11 Z" />
</g>
<g id="#ccbb87ff">
<path fill="#ccbb87" opacity="1.00" d=" M 233.95 652.58 C 236.62 652.30 239.30 652.03 242.00 651.96 C 268.40 652.14 294.81 652.16 321.21 651.86 C 327.06 657.16 334.31 660.64 341.94 662.57 C 331.96 675.59 319.63 687.68 303.90 693.31 C 291.81 697.93 277.89 697.53 266.22 691.84 C 250.31 684.30 239.55 668.87 233.95 652.58 Z" />
</g>
<g id="#cebe8cff">
<path fill="#cebe8c" opacity="1.00" d=" M 949.50 701.11 C 958.39 689.29 967.19 677.32 977.40 666.58 C 980.91 666.83 984.43 667.08 987.97 667.12 C 1014.64 667.08 1041.31 667.13 1067.99 667.10 C 1069.48 679.08 1068.44 691.21 1066.40 703.06 C 1052.25 702.74 1038.11 703.18 1023.97 702.95 C 1011.97 703.12 999.95 702.42 987.99 703.47 L 987.13 703.30 C 984.89 701.87 982.81 699.93 980.03 699.72 C 975.56 698.91 971.52 701.42 967.95 703.74 C 955.72 702.11 943.35 703.22 931.07 703.06 C 915.02 702.90 898.95 703.45 882.92 702.73 L 882.65 702.28 C 885.87 692.38 889.50 682.54 893.30 672.84 L 893.90 672.72 C 915.81 673.63 937.77 672.46 959.69 673.31 C 956.44 682.63 952.77 691.80 949.50 701.11 Z" />
</g>
<g id="#cebd8bff">
<path fill="#cebd8b" opacity="1.00" d=" M 523.56 695.26 C 540.77 687.64 557.36 678.53 572.72 667.62 C 576.15 667.84 579.57 668.05 583.01 668.08 C 610.34 668.06 637.66 668.04 664.99 668.07 C 674.86 668.12 684.74 667.73 694.59 668.47 C 684.21 678.90 672.89 688.37 660.87 696.85 C 658.25 696.52 655.63 696.21 652.99 696.14 C 612.67 696.14 572.35 696.15 532.02 696.16 C 529.18 696.08 526.36 695.68 523.56 695.26 Z" />
</g>
<g id="#cfbf8eff">
<path fill="#cfbf8e" opacity="1.00" d=" M 391.44 679.07 C 417.30 678.73 443.15 679.08 469.01 678.85 C 472.33 678.85 475.63 679.20 478.92 679.64 C 476.57 687.71 473.61 695.59 471.22 703.65 L 471.09 703.64 C 463.44 702.59 455.72 703.12 448.03 703.06 C 425.56 703.05 403.08 703.11 380.61 702.91 C 384.22 694.97 387.80 687.00 391.44 679.07 Z" />
</g>
<g id="#d1c293ff">
<path fill="#d1c293" opacity="1.00" d=" M 754.35 688.02 L 755.00 687.69 C 761.32 688.29 767.67 688.10 774.00 687.96 C 790.51 688.02 807.02 688.12 823.53 688.03 C 818.78 700.30 814.23 712.64 809.49 724.92 C 795.33 725.08 781.17 725.10 767.02 724.92 C 757.79 725.01 748.57 725.23 739.35 724.87 C 744.23 712.54 749.35 700.30 754.35 688.02 Z" />
</g>
<g id="#d3c497ff">
<path fill="#d3c497" opacity="1.00" d=" M 467.80 713.87 C 486.85 709.19 505.51 702.95 523.56 695.26 C 526.36 695.68 529.18 696.08 532.02 696.16 C 572.35 696.15 612.67 696.14 652.99 696.14 C 655.63 696.21 658.25 696.52 660.87 696.85 C 637.25 713.59 611.02 726.42 583.77 736.09 C 577.01 734.04 569.93 735.10 563.01 735.05 C 529.01 734.92 495.01 735.01 461.01 735.08 C 448.68 734.79 436.34 734.89 424.01 735.10 C 405.07 734.88 386.12 734.80 367.18 734.99 L 366.05 735.04 C 370.90 724.33 375.77 713.63 380.61 702.91 C 403.08 703.11 425.56 703.05 448.03 703.06 C 455.72 703.12 463.44 702.59 471.09 703.64 C 470.06 707.07 468.90 710.46 467.80 713.87 Z" />
<path fill="#d3c497" opacity="1.00" d=" M 882.31 703.00 L 882.92 702.73 C 898.95 703.45 915.02 702.90 931.07 703.06 C 943.35 703.22 955.72 702.11 967.95 703.74 C 957.66 712.29 950.60 723.86 943.72 735.15 L 943.09 735.30 C 930.75 734.50 918.38 735.08 906.03 734.92 C 894.17 735.11 882.32 734.77 870.47 734.96 C 874.64 724.39 878.12 713.56 882.31 703.00 Z" />
<path fill="#d3c497" opacity="1.00" d=" M 987.99 703.47 C 999.95 702.42 1011.97 703.12 1023.97 702.95 C 1038.11 703.18 1052.25 702.74 1066.40 703.06 C 1064.84 712.32 1062.44 721.39 1059.93 730.43 L 1059.74 730.42 C 1037.04 729.71 1014.31 730.28 991.60 730.09 C 992.81 721.16 992.74 711.40 987.68 703.58 L 987.99 703.47 Z" />
</g>
<g id="#d4c599ff">
<path fill="#d4c599" opacity="1.00" d=" M 1131.43 709.10 C 1132.34 706.39 1135.86 705.76 1138.24 706.79 C 1141.36 708.43 1142.76 712.75 1141.13 715.89 C 1137.67 723.99 1134.52 732.23 1130.77 740.19 L 1130.19 740.19 C 1126.52 739.21 1122.73 738.92 1118.97 738.70 C 1123.27 728.90 1127.34 718.99 1131.43 709.10 Z" />
</g>
<g id="#d7c9a0ff">
<path fill="#d7c9a0" opacity="1.00" d=" M 739.28 724.87 L 739.35 724.87 C 748.57 725.23 757.79 725.01 767.02 724.92 C 781.17 725.10 795.33 725.08 809.49 724.92 C 805.23 736.25 800.90 747.56 796.63 758.89 C 772.88 758.98 749.13 758.91 725.38 758.87 C 730.01 747.53 734.65 736.20 739.28 724.87 Z" />
</g>
<g id="#d7caa2ff">
<path fill="#d7caa2" opacity="1.00" d=" M 991.60 730.09 C 1014.31 730.28 1037.04 729.71 1059.74 730.42 C 1056.70 741.20 1052.82 751.77 1048.75 762.19 L 1048.13 762.28 C 1026.59 761.60 1005.03 762.47 983.48 761.93 C 987.01 751.55 990.31 741.01 991.60 730.09 Z" />
<path fill="#d7caa2" opacity="1.00" d=" M 870.47 734.96 C 882.32 734.77 894.17 735.11 906.03 734.92 C 918.38 735.08 930.75 734.50 943.09 735.30 L 943.25 735.86 C 938.92 743.56 934.90 751.45 930.77 759.26 L 930.16 759.31 C 920.14 758.56 910.08 759.02 900.05 759.01 C 886.60 759.12 873.16 758.88 859.72 758.88 C 863.40 750.95 866.93 742.96 870.47 734.96 Z" />
</g>
<g id="#d8cba4ff">
<path fill="#d8cba4" opacity="1.00" d=" M 318.97 746.02 C 334.80 741.35 351.11 738.64 367.18 734.99 C 386.12 734.80 405.07 734.88 424.01 735.10 C 436.34 734.89 448.68 734.79 461.01 735.08 C 495.01 735.01 529.01 734.92 563.01 735.05 C 569.93 735.10 577.01 734.04 583.77 736.09 C 540.24 751.60 494.48 759.52 448.80 765.60 C 448.09 767.35 447.39 769.11 446.67 770.87 C 394.10 770.86 341.53 770.87 288.97 770.86 C 280.81 770.82 272.64 771.15 264.50 770.42 C 280.86 758.83 299.79 751.47 318.97 746.02 Z" />
</g>
<g id="#d9cca6ff">
<path fill="#d9cca6" opacity="1.00" d=" M 1102.59 774.69 C 1108.21 762.76 1113.73 750.80 1118.97 738.70 C 1122.73 738.92 1126.52 739.21 1130.19 740.19 L 1130.37 740.86 C 1125.80 753.04 1120.12 764.80 1114.98 776.75 C 1110.88 775.88 1106.75 775.19 1102.59 774.69 Z" />
</g>
<g id="#dbcfabff">
<path fill="#dbcfab" opacity="1.00" d=" M 715.92 782.07 C 719.00 774.31 722.26 766.61 725.38 758.87 C 749.13 758.91 772.88 758.98 796.63 758.89 C 793.67 766.64 790.70 774.38 787.85 782.17 L 787.70 782.17 C 763.78 781.89 739.85 782.23 715.92 782.07 Z" />
<path fill="#dbcfab" opacity="1.00" d=" M 859.72 758.88 C 873.16 758.88 886.60 759.12 900.05 759.01 C 910.08 759.02 920.14 758.56 930.16 759.31 L 930.33 759.90 C 927.27 767.62 923.22 774.93 920.19 782.68 L 920.04 782.67 C 896.28 781.02 872.41 782.70 848.61 781.86 C 852.43 774.25 856.13 766.60 859.72 758.88 Z" />
</g>
<g id="#ddd2afff">
<path fill="#ddd2af" opacity="1.00" d=" M 983.48 761.93 C 1005.03 762.47 1026.59 761.60 1048.13 762.28 L 1048.35 762.89 C 1044.32 776.06 1039.08 788.86 1034.62 801.89 C 1012.76 801.79 990.90 801.86 969.05 801.90 C 974.01 788.63 978.93 775.34 983.48 761.93 Z" />
<path fill="#ddd2af" opacity="1.00" d=" M 231.00 808.76 C 238.75 793.45 250.53 780.32 264.50 770.42 C 272.64 771.15 280.81 770.82 288.97 770.86 C 341.53 770.87 394.10 770.86 446.67 770.87 C 443.56 778.79 440.20 786.61 437.03 794.50 L 436.94 794.49 C 428.98 793.61 420.97 793.99 412.99 793.95 C 397.64 793.92 382.30 793.98 366.96 793.93 C 357.06 793.82 347.14 794.26 337.26 793.63 C 339.79 788.66 342.29 783.67 344.85 778.71 C 321.11 782.19 297.27 785.58 274.09 791.96 C 259.18 795.97 244.54 801.28 231.00 808.76 Z" />
</g>
<g id="#ded3b1ff">
<path fill="#ded3b1" opacity="1.00" d=" M 1102.59 774.69 C 1106.75 775.19 1110.88 775.88 1114.98 776.75 C 1111.97 783.37 1108.98 790.00 1105.96 796.62 L 1105.88 796.61 C 1101.57 795.72 1097.22 795.08 1092.85 794.60 C 1096.12 787.97 1099.41 781.35 1102.59 774.69 Z" />
</g>
<g id="#e0d6b6ff">
<path fill="#e0d6b6" opacity="1.00" d=" M 715.92 782.07 C 739.85 782.23 763.78 781.89 787.70 782.17 C 783.63 793.41 779.22 804.52 775.08 815.74 L 774.97 815.72 C 766.37 814.26 757.64 815.38 748.99 814.91 C 733.48 815.09 717.98 814.86 702.48 814.89 C 706.96 803.95 711.40 793.00 715.92 782.07 Z" />
</g>
<g id="#dfd5b5ff">
<path fill="#dfd5b5" opacity="1.00" d=" M 848.61 781.86 C 872.41 782.70 896.28 781.02 920.04 782.67 C 916.52 790.68 914.20 799.18 910.77 807.21 L 910.13 807.30 C 885.31 806.67 860.45 807.22 835.62 806.86 C 840.04 798.57 844.47 790.29 848.61 781.86 Z" />
</g>
<g id="#e1d7b8ff">
<path fill="#e1d7b8" opacity="1.00" d=" M 326.71 814.11 C 329.90 807.13 333.88 800.53 337.26 793.63 C 347.14 794.26 357.06 793.82 366.96 793.93 C 382.30 793.98 397.64 793.92 412.99 793.95 C 420.97 793.99 428.98 793.61 436.94 794.49 C 433.88 801.39 431.18 808.47 427.76 815.20 L 427.10 815.33 C 401.42 814.93 375.72 815.26 350.03 815.17 C 342.32 815.09 334.58 815.47 326.89 814.69 L 326.71 814.11 Z" />
</g>
<g id="#e1d7b9ff">
<path fill="#e1d7b9" opacity="1.00" d=" M 1081.65 816.31 C 1085.45 809.11 1089.18 801.87 1092.85 794.60 C 1097.22 795.08 1101.57 795.72 1105.88 796.61 C 1102.58 803.79 1099.36 811.03 1095.71 818.04 L 1095.06 818.28 C 1090.61 817.44 1086.13 816.86 1081.65 816.31 Z" />
</g>
<g id="#e3d9bdff">
<path fill="#e3d9bd" opacity="1.00" d=" M 969.05 801.90 C 990.90 801.86 1012.76 801.79 1034.62 801.89 C 1031.37 810.77 1028.15 819.65 1025.03 828.57 L 1024.92 828.56 C 1014.97 827.47 1004.95 828.11 994.98 828.04 C 983.16 828.04 971.33 828.18 959.52 827.97 C 962.63 819.26 965.93 810.61 969.05 801.90 Z" />
</g>
<g id="#e3dabeff">
<path fill="#e3dabe" opacity="1.00" d=" M 835.62 806.86 C 860.45 807.22 885.31 806.67 910.13 807.30 L 910.38 807.90 C 908.36 815.48 905.18 822.75 902.67 830.20 C 875.98 829.71 849.27 830.37 822.59 829.81 C 827.06 822.24 831.38 814.57 835.62 806.86 Z" />
</g>
<g id="#e6dec5ff">
<path fill="#e6dec5" opacity="1.00" d=" M 326.24 814.82 L 326.89 814.69 C 334.58 815.47 342.32 815.09 350.03 815.17 C 375.72 815.26 401.42 814.93 427.10 815.33 L 427.31 815.90 C 421.64 829.78 414.61 843.10 407.91 856.51 C 399.98 855.45 391.98 855.95 384.01 855.89 C 356.90 855.86 329.78 855.90 302.66 855.83 C 310.99 842.43 318.59 828.60 326.24 814.82 Z" />
</g>
<g id="#e5ddc2ff">
<path fill="#e5ddc2" opacity="1.00" d=" M 702.48 814.89 C 717.98 814.86 733.48 815.09 748.99 814.91 C 757.64 815.38 766.37 814.26 774.97 815.72 C 771.66 824.91 768.06 834.00 764.66 843.16 L 764.57 843.16 C 740.05 842.86 715.52 843.39 691.00 842.94 C 694.83 833.59 698.67 824.25 702.48 814.89 Z" />
</g>
<g id="#e5dcc2ff">
<path fill="#e5dcc2" opacity="1.00" d=" M 1069.41 838.49 C 1073.56 831.13 1077.66 823.75 1081.65 816.31 C 1086.13 816.86 1090.61 817.44 1095.06 818.28 L 1095.34 818.69 C 1092.31 825.89 1088.58 832.78 1085.14 839.79 C 1079.90 839.23 1074.65 838.85 1069.41 838.49 Z" />
</g>
<g id="#e7dfc7ff">
<path fill="#e7dfc7" opacity="1.00" d=" M 959.52 827.97 C 971.33 828.18 983.16 828.04 994.98 828.04 C 1004.95 828.11 1014.97 827.47 1024.92 828.56 C 1021.67 837.93 1018.19 847.20 1014.92 856.56 L 1014.79 856.55 C 1005.25 855.33 995.62 856.18 986.04 856.03 C 973.93 856.03 961.82 856.24 949.72 855.79 C 952.81 846.45 956.24 837.24 959.52 827.97 Z" />
</g>
<g id="#e8e0c8ff">
<path fill="#e8e0c8" opacity="1.00" d=" M 822.59 829.81 C 849.27 830.37 875.98 829.71 902.67 830.20 C 899.54 839.02 896.24 847.78 893.23 856.65 L 893.10 856.63 C 883.12 855.35 873.06 856.32 863.04 855.98 C 850.96 856.05 838.88 855.95 826.81 855.97 C 827.51 853.85 828.21 851.74 828.81 849.60 C 824.52 857.28 820.48 865.10 815.96 872.65 C 809.06 871.29 802.02 871.72 795.05 871.85 C 804.93 858.32 814.05 844.23 822.59 829.81 Z" />
</g>
<g id="#e9e2ccff">
<path fill="#e9e2cc" opacity="1.00" d=" M 154.08 839.17 C 168.86 831.19 186.62 828.52 202.99 832.60 C 218.19 836.13 232.09 845.84 239.78 859.54 C 243.64 866.04 245.77 873.38 247.14 880.77 C 233.25 871.15 217.74 862.67 200.64 861.05 C 188.52 859.59 175.48 863.98 168.07 874.00 C 152.59 873.70 137.11 874.04 121.64 873.79 C 128.66 859.36 139.84 846.76 154.08 839.17 Z" />
</g>
<g id="#e8e1caff">
<path fill="#e8e1ca" opacity="1.00" d=" M 1056.61 859.91 C 1061.00 852.84 1065.25 845.69 1069.41 838.49 C 1074.65 838.85 1079.90 839.23 1085.14 839.79 C 1081.50 847.05 1077.82 854.29 1073.97 861.44 C 1068.40 859.39 1062.42 859.92 1056.61 859.91 Z" />
</g>
<g id="#eae3cfff">
<path fill="#eae3cf" opacity="1.00" d=" M 691.00 842.94 C 715.52 843.39 740.05 842.86 764.57 843.16 C 760.07 855.49 755.67 867.86 750.71 880.01 L 750.10 880.28 C 726.01 879.55 701.88 880.36 677.79 879.84 C 681.37 867.26 685.88 854.97 691.00 842.94 Z" />
</g>
<g id="#ece5d2ff">
<path fill="#ece5d2" opacity="1.00" d=" M 302.66 855.83 C 329.78 855.90 356.90 855.86 384.01 855.89 C 391.98 855.95 399.98 855.45 407.91 856.51 C 402.76 866.32 397.47 876.06 391.86 885.61 C 382.63 884.32 373.32 885.14 364.05 884.95 C 350.38 885.20 336.72 884.86 323.05 884.91 C 309.89 884.96 296.71 885.32 283.56 884.55 C 290.28 875.22 296.65 865.63 302.66 855.83 Z" />
<path fill="#ece5d2" opacity="1.00" d=" M 1056.61 859.91 C 1062.42 859.92 1068.40 859.39 1073.97 861.44 C 1070.36 868.27 1066.66 875.05 1062.86 881.77 C 1056.54 880.27 1050.05 879.88 1043.60 879.56 C 1048.12 873.14 1052.43 866.56 1056.61 859.91 Z" />
</g>
<g id="#ebe5d0ff">
<path fill="#ebe5d0" opacity="1.00" d=" M 826.81 855.97 C 838.88 855.95 850.96 856.05 863.04 855.98 C 873.06 856.32 883.12 855.35 893.10 856.63 C 890.67 863.44 888.37 870.31 885.72 877.04 L 885.08 877.32 C 863.15 876.36 841.16 877.54 819.22 876.75 C 821.63 869.78 824.18 862.86 826.81 855.97 Z" />
</g>
<g id="#ece6d3ff">
<path fill="#ece6d3" opacity="1.00" d=" M 949.72 855.79 C 961.82 856.24 973.93 856.03 986.04 856.03 C 995.62 856.18 1005.25 855.33 1014.79 856.55 C 1011.05 867.92 1005.96 878.96 1004.35 890.93 C 993.23 891.35 982.09 891.08 970.96 891.13 C 960.16 891.05 949.35 891.38 938.56 890.92 C 941.90 879.09 945.76 867.42 949.72 855.79 Z" />
</g>
<g id="#eee8d7ff">
<path fill="#eee8d7" opacity="1.00" d=" M 795.05 871.85 C 802.02 871.72 809.06 871.29 815.96 872.65 C 811.78 879.98 807.42 887.21 802.96 894.37 L 802.07 894.31 C 794.03 893.58 785.95 894.42 777.93 893.61 L 777.75 893.11 C 783.70 886.21 789.67 879.24 795.05 871.85 Z" />
</g>
<g id="#efe9d9ff">
<path fill="#efe9d9" opacity="1.00" d=" M 121.64 873.79 C 137.11 874.04 152.59 873.70 168.07 874.00 C 161.85 883.24 158.18 894.87 160.14 906.03 C 144.04 906.51 127.92 905.61 111.85 906.52 C 113.59 895.24 116.75 884.13 121.64 873.79 Z" />
<path fill="#efe9d9" opacity="1.00" d=" M 819.14 876.75 L 819.22 876.75 C 841.16 877.54 863.15 876.36 885.08 877.32 L 885.40 877.62 C 883.11 885.20 880.12 892.56 877.52 900.04 C 855.26 900.06 833.00 900.26 810.74 899.94 C 813.58 892.22 816.37 884.49 819.14 876.75 Z" />
<path fill="#efe9d9" opacity="1.00" d=" M 1027.58 899.84 C 1033.39 893.46 1038.64 886.61 1043.60 879.56 C 1050.05 879.88 1056.54 880.27 1062.86 881.77 C 1059.29 888.11 1055.61 894.41 1051.83 900.63 C 1043.78 899.51 1035.66 900.38 1027.58 899.84 Z" />
</g>
<g id="#f0ebdcff">
<path fill="#f0ebdc" opacity="1.00" d=" M 671.42 912.05 C 672.43 901.12 675.05 890.43 677.79 879.84 C 701.88 880.36 726.01 879.55 750.10 880.28 L 750.37 880.70 C 748.02 888.37 744.28 895.90 744.44 904.10 C 744.36 906.54 745.72 909.04 748.04 909.99 C 751.33 911.28 755.03 910.44 758.11 908.95 C 765.59 905.45 771.31 899.31 777.20 893.72 L 777.93 893.61 C 785.95 894.42 794.03 893.58 802.07 894.31 L 802.96 894.37 C 799.09 900.54 795.12 906.64 791.02 912.66 C 785.39 911.81 779.70 911.93 774.04 912.10 C 739.83 912.06 705.63 912.09 671.42 912.05 Z" />
<path fill="#f0ebdc" opacity="1.00" d=" M 258.73 913.95 C 267.81 904.86 275.99 894.92 283.56 884.55 C 296.71 885.32 309.89 884.96 323.05 884.91 C 336.72 884.86 350.38 885.20 364.05 884.95 C 373.32 885.14 382.63 884.32 391.86 885.61 C 386.21 895.27 380.30 904.76 374.07 914.06 C 335.62 913.88 297.18 914.10 258.73 913.95 Z" />
</g>
<g id="#f3eee2ff">
<path fill="#f3eee2" opacity="1.00" d=" M 938.56 890.92 C 949.35 891.38 960.16 891.05 970.96 891.13 C 982.09 891.08 993.23 891.35 1004.35 890.93 C 1003.83 896.11 1003.38 901.67 1005.66 906.53 C 1007.10 909.58 1010.74 911.50 1014.04 910.31 C 1019.52 908.32 1023.54 903.85 1027.58 899.84 C 1035.66 900.38 1043.78 899.51 1051.83 900.63 C 1044.43 912.76 1036.67 924.68 1028.13 936.04 C 1003.75 935.69 979.37 935.99 955.00 935.91 C 947.37 935.81 939.74 936.23 932.13 935.70 L 931.88 935.69 C 930.99 920.46 934.02 905.38 938.56 890.92 Z" />
</g>
<g id="#f3efe2ff">
<path fill="#f3efe2" opacity="1.00" d=" M 797.69 935.91 C 802.07 923.93 806.42 911.94 810.74 899.94 C 833.00 900.26 855.26 900.06 877.52 900.04 C 873.24 911.99 868.90 923.91 864.66 935.87 C 842.33 935.92 820.01 936.21 797.69 935.91 Z" />
</g>
<g id="#f5f1e7ff">
<path fill="#f5f1e7" opacity="1.00" d=" M 111.85 906.52 C 127.92 905.61 144.04 906.51 160.14 906.03 C 163.11 919.79 173.92 930.97 186.94 935.84 C 199.26 940.38 213.21 940.79 225.61 936.29 C 238.30 931.71 249.12 923.22 258.73 913.95 C 297.18 914.10 335.62 913.88 374.07 914.06 C 366.52 925.28 358.52 936.20 349.96 946.68 C 343.35 945.66 336.65 945.91 329.99 946.03 C 264.33 945.93 198.68 946.06 133.02 946.02 C 126.35 945.85 119.66 945.69 113.04 946.59 L 112.82 946.61 C 110.66 933.36 110.10 919.85 111.85 906.52 Z" />
<path fill="#f5f1e7" opacity="1.00" d=" M 671.42 912.05 C 705.63 912.09 739.83 912.06 774.04 912.10 C 779.70 911.93 785.39 911.81 791.02 912.66 C 781.19 926.94 770.77 940.89 758.70 953.38 C 747.49 952.39 736.22 953.09 724.98 952.91 C 708.07 953.02 691.16 952.54 674.26 953.15 C 669.99 939.93 669.90 925.74 671.42 912.05 Z" />
</g>
<g id="#f8f5eeff">
<path fill="#f8f5ee" opacity="1.00" d=" M 797.69 935.91 C 820.01 936.21 842.33 935.92 864.66 935.87 C 860.11 948.26 855.73 960.71 851.21 973.11 C 828.89 973.11 806.57 973.11 784.25 973.11 C 788.64 960.68 793.30 948.34 797.69 935.91 Z" />
</g>
<g id="#f8f5edff">
<path fill="#f8f5ed" opacity="1.00" d=" M 932.13 935.70 C 939.74 936.23 947.37 935.81 955.00 935.91 C 979.37 935.99 1003.75 935.69 1028.13 936.04 C 1019.01 948.11 1009.10 959.80 997.10 969.12 C 990.06 974.48 982.01 979.03 973.11 980.13 C 962.88 981.15 952.20 977.37 945.18 969.80 C 936.65 960.62 932.92 947.97 932.13 935.70 Z" />
</g>
<g id="#f9f7f0ff">
<path fill="#f9f7f0" opacity="1.00" d=" M 113.04 946.59 C 119.66 945.69 126.35 945.85 133.02 946.02 C 198.68 946.06 264.33 945.93 329.99 946.03 C 336.65 945.91 343.35 945.66 349.96 946.68 C 339.38 959.45 328.09 971.69 315.54 982.55 C 310.39 981.92 305.19 981.81 300.01 981.96 C 259.66 981.94 219.31 982.00 178.96 981.94 C 161.01 982.20 143.05 981.66 125.10 982.17 C 119.34 971.01 115.06 959.00 113.04 946.59 Z" />
<path fill="#f9f7f0" opacity="1.00" d=" M 674.26 953.15 C 691.16 952.54 708.07 953.02 724.98 952.91 C 736.22 953.09 747.49 952.39 758.70 953.38 C 750.71 961.59 742.03 969.33 731.90 974.81 C 724.63 978.70 716.31 981.16 708.00 980.08 C 698.56 979.30 689.10 975.45 682.81 968.19 C 678.87 963.88 676.26 958.58 674.26 953.15 Z" />
</g>
<g id="#fdfcfaff">
<path fill="#fdfcfa" opacity="1.00" d=" M 125.10 982.17 C 143.05 981.66 161.01 982.20 178.96 981.94 C 219.31 982.00 259.66 981.94 300.01 981.96 C 305.19 981.81 310.39 981.92 315.54 982.55 C 295.05 1000.57 271.24 1015.34 244.92 1023.04 C 230.08 1027.55 214.51 1029.54 199.01 1029.38 C 182.05 1029.14 165.09 1023.78 151.49 1013.54 C 140.41 1005.30 131.62 994.28 125.10 982.17 Z" />
</g>
</svg>
