<?xml version="1.0" encoding="UTF-8" ?>
<!DOCTYPE svg PUBLIC "-//W3C//DTD SVG 1.1//EN" "http://www.w3.org/Graphics/SVG/1.1/DTD/svg11.dtd">
<svg width="1276pt" height="1276pt" viewBox="0 0 1276 1276" version="1.1" xmlns="http://www.w3.org/2000/svg">
<g id="#2f308eff">
<path fill="#2f308e" opacity="1.00" d=" M 435.31 326.32 C 470.64 316.46 507.31 310.90 544.03 311.42 C 574.90 311.00 605.72 314.94 635.82 321.58 C 642.91 322.93 649.76 325.70 657.00 326.06 C 737.68 326.05 818.37 326.06 899.05 326.06 C 917.04 326.34 935.11 325.20 953.02 327.34 C 981.60 330.33 1009.37 340.57 1032.89 357.10 C 1069.55 382.93 1099.04 419.53 1114.02 462.00 C 1132.27 510.26 1130.86 565.16 1111.98 613.02 C 1107.39 622.93 1102.97 632.98 1096.85 642.07 C 1103.05 650.76 1105.67 661.19 1109.04 671.15 C 1121.73 715.01 1119.79 762.93 1103.76 805.67 C 1100.74 813.23 1097.92 820.88 1094.11 828.08 C 1085.16 844.50 1074.82 860.27 1062.15 874.09 C 1022.99 918.04 964.93 944.47 906.04 944.92 C 794.33 944.97 682.63 944.93 570.93 944.94 C 569.68 945.11 568.78 944.64 568.24 943.54 C 556.18 948.16 543.53 950.94 530.99 953.87 C 505.34 959.17 479.31 963.19 453.08 963.56 C 419.15 964.36 384.94 960.65 352.45 950.58 C 313.61 938.39 277.22 918.28 246.42 891.66 C 202.49 853.98 170.47 802.00 158.96 745.10 C 154.40 722.38 152.93 699.14 153.05 676.01 C 152.35 629.60 160.34 582.88 177.76 539.80 C 192.15 504.21 213.20 471.36 239.30 443.23 C 263.24 417.19 291.37 395.19 321.52 376.77 C 357.07 355.17 395.23 337.63 435.31 326.32 M 501.79 395.82 C 461.17 401.09 421.84 414.62 385.76 433.85 C 355.80 449.79 327.36 469.23 303.84 493.83 C 276.16 522.35 255.70 557.86 245.31 596.25 C 234.99 633.46 233.37 672.69 237.48 710.96 C 239.74 732.45 246.36 753.42 256.53 772.48 C 272.17 801.78 296.09 826.27 323.99 844.10 C 357.33 865.46 396.33 877.66 435.81 879.92 C 475.41 882.50 515.48 874.79 551.73 858.81 C 565.19 853.08 577.67 845.42 590.25 838.03 C 600.11 773.09 610.71 708.26 620.54 643.33 L 621.39 642.38 C 610.95 641.53 600.45 642.22 589.99 642.00 C 557.01 642.00 524.02 642.00 491.04 642.00 C 474.44 642.20 457.82 641.60 441.25 642.30 L 442.51 643.40 L 441.80 643.37 C 439.57 656.49 437.78 669.68 435.57 682.80 C 433.27 699.29 430.13 715.68 428.19 732.21 C 453.00 732.09 477.80 732.21 502.60 732.14 C 499.84 747.06 497.12 761.99 494.48 776.94 C 494.53 778.49 493.09 779.16 491.85 779.60 C 478.89 784.52 465.02 786.53 451.22 787.05 C 431.45 787.43 411.44 783.82 393.41 775.53 C 374.26 766.69 357.76 751.88 347.68 733.29 C 338.47 716.47 333.18 697.58 331.69 678.50 C 333.30 676.66 333.04 674.17 333.06 671.93 C 332.97 667.41 333.11 662.89 332.86 658.38 L 331.61 659.38 C 333.58 625.81 349.18 594.21 371.24 569.27 C 386.11 552.26 403.56 537.42 423.19 526.19 C 459.47 505.37 501.06 494.71 542.68 492.59 C 577.13 491.19 612.64 494.92 644.26 509.45 C 649.77 477.58 654.64 445.60 659.45 413.63 C 609.16 395.90 554.79 388.71 501.79 395.82 M 750.27 410.11 C 749.91 413.12 749.55 416.15 748.99 419.14 C 724.57 571.39 700.40 723.68 675.90 875.92 C 747.60 875.92 819.30 875.90 891.00 875.92 C 901.40 876.13 911.79 874.58 921.84 871.91 C 957.60 861.86 989.33 839.29 1012.26 810.25 C 1026.41 792.05 1037.09 770.67 1040.46 747.70 C 1044.23 725.17 1039.91 701.65 1029.63 681.36 C 1020.81 664.46 1008.60 649.39 994.34 636.79 C 1007.51 623.19 1019.37 608.22 1028.76 591.75 C 1038.63 574.47 1045.10 555.15 1046.60 535.26 C 1046.88 535.84 1047.45 537.00 1047.73 537.58 C 1048.17 530.94 1048.49 524.16 1047.12 517.60 L 1046.31 519.07 C 1044.59 504.87 1040.52 490.89 1033.56 478.35 C 1020.95 455.27 1000.93 436.67 977.90 424.22 C 963.72 416.60 948.14 411.10 931.98 410.21 C 921.67 409.89 911.33 410.59 901.05 409.67 C 883.03 409.65 865.00 409.67 846.98 409.67 C 830.32 409.85 813.64 409.21 797.01 410.17 C 781.43 410.09 765.85 410.21 750.27 410.11 Z" />
<path fill="#2f308e" opacity="1.00" d=" M 833.64 509.27 C 854.78 509.37 875.91 509.28 897.05 509.31 C 907.29 509.54 917.92 511.69 926.37 517.78 C 933.22 522.60 938.12 530.06 939.90 538.24 C 942.44 548.84 939.92 560.18 934.62 569.54 C 927.28 582.27 914.33 591.43 900.02 594.53 C 890.18 596.94 880.00 596.16 869.98 596.28 C 852.97 596.29 835.97 596.25 818.97 596.30 C 823.56 567.24 828.91 538.31 833.64 509.27 Z" />
<path fill="#2f308e" opacity="1.00" d=" M 804.12 692.36 C 831.07 692.20 858.04 692.36 885.00 692.29 C 896.39 692.03 907.96 694.48 917.93 700.08 C 929.26 706.49 937.88 718.09 939.36 731.19 C 940.85 742.71 936.78 754.54 929.42 763.40 C 916.57 778.62 895.90 785.22 876.48 785.07 C 872.40 783.97 868.18 783.77 863.98 783.96 C 841.30 784.09 818.61 783.90 795.93 784.07 C 793.59 784.26 791.41 783.43 789.53 782.13 C 794.64 752.25 798.86 722.21 804.12 692.36 Z" />
</g>
<g id="#ffffffff">
<path fill="#ffffff" opacity="1.00" d=" M 501.79 395.82 C 554.79 388.71 609.16 395.90 659.45 413.63 C 654.64 445.60 649.77 477.58 644.26 509.45 C 612.64 494.92 577.13 491.19 542.68 492.59 C 501.06 494.71 459.47 505.37 423.19 526.19 C 403.56 537.42 386.11 552.26 371.24 569.27 C 349.18 594.21 333.58 625.81 331.61 659.38 C 331.41 665.74 331.41 672.13 331.69 678.50 C 333.18 697.58 338.47 716.47 347.68 733.29 C 357.76 751.88 374.26 766.69 393.41 775.53 C 411.44 783.82 431.45 787.43 451.22 787.05 C 465.02 786.53 478.89 784.52 491.85 779.60 C 493.09 779.16 494.53 778.49 494.48 776.94 C 497.12 761.99 499.84 747.06 502.60 732.14 C 477.80 732.21 453.00 732.09 428.19 732.21 C 430.13 715.68 433.27 699.29 435.57 682.80 C 437.78 669.68 439.57 656.49 441.80 643.37 L 442.51 643.40 C 495.00 643.60 547.50 643.43 600.00 643.49 C 606.85 643.38 613.70 643.71 620.54 643.33 C 610.71 708.26 600.11 773.09 590.25 838.03 C 577.67 845.42 565.19 853.08 551.73 858.81 C 515.48 874.79 475.41 882.50 435.81 879.92 C 396.33 877.66 357.33 865.46 323.99 844.10 C 296.09 826.27 272.17 801.78 256.53 772.48 C 246.36 753.42 239.74 732.45 237.48 710.96 C 233.37 672.69 234.99 633.46 245.31 596.25 C 255.70 557.86 276.16 522.35 303.84 493.83 C 327.36 469.23 355.80 449.79 385.76 433.85 C 421.84 414.62 461.17 401.09 501.79 395.82 Z" />
<path fill="#ffffff" opacity="1.00" d=" M 750.27 410.11 C 765.85 410.21 781.43 410.09 797.01 410.17 C 813.64 409.21 830.32 409.85 846.98 409.67 C 865.00 409.67 883.03 409.65 901.05 409.67 C 911.33 410.59 921.67 409.89 931.98 410.21 C 948.14 411.10 963.72 416.60 977.90 424.22 C 1000.93 436.67 1020.95 455.27 1033.56 478.35 C 1040.52 490.89 1044.59 504.87 1046.31 519.07 C 1046.70 524.46 1046.66 529.86 1046.60 535.26 C 1045.10 555.15 1038.63 574.47 1028.76 591.75 C 1019.37 608.22 1007.51 623.19 994.34 636.79 C 1008.60 649.39 1020.81 664.46 1029.63 681.36 C 1039.91 701.65 1044.23 725.17 1040.46 747.70 C 1037.09 770.67 1026.41 792.05 1012.26 810.25 C 989.33 839.29 957.60 861.86 921.84 871.91 C 911.79 874.58 901.40 876.13 891.00 875.92 C 819.30 875.90 747.60 875.92 675.90 875.92 C 700.40 723.68 724.57 571.39 748.99 419.14 C 749.55 416.15 749.91 413.12 750.27 410.11 M 833.64 509.27 C 828.91 538.31 823.56 567.24 818.97 596.30 C 835.97 596.25 852.97 596.29 869.98 596.28 C 880.00 596.16 890.18 596.94 900.02 594.53 C 914.33 591.43 927.28 582.27 934.62 569.54 C 939.92 560.18 942.44 548.84 939.90 538.24 C 938.12 530.06 933.22 522.60 926.37 517.78 C 917.92 511.69 907.29 509.54 897.05 509.31 C 875.91 509.28 854.78 509.37 833.64 509.27 M 804.12 692.36 C 798.86 722.21 794.64 752.25 789.53 782.13 C 789.46 782.96 789.31 784.64 789.24 785.48 C 809.16 785.35 829.09 785.46 849.02 785.42 C 858.17 785.22 867.36 785.84 876.48 785.07 C 895.90 785.22 916.57 778.62 929.42 763.40 C 936.78 754.54 940.85 742.71 939.36 731.19 C 937.88 718.09 929.26 706.49 917.93 700.08 C 907.96 694.48 896.39 692.03 885.00 692.29 C 858.04 692.36 831.07 692.20 804.12 692.36 Z" />
</g>
<g id="#151780ff">
<path fill="#151780" opacity="1.00" d=" M 1046.31 519.07 L 1047.12 517.60 C 1048.49 524.16 1048.17 530.94 1047.73 537.58 C 1047.45 537.00 1046.88 535.84 1046.60 535.26 C 1046.66 529.86 1046.70 524.46 1046.31 519.07 Z" />
</g>
<g id="#11137eff">
<path fill="#11137e" opacity="1.00" d=" M 441.25 642.30 C 457.82 641.60 474.44 642.20 491.04 642.00 C 524.02 642.00 557.01 642.00 589.99 642.00 C 600.45 642.22 610.95 641.53 621.39 642.38 L 620.54 643.33 C 613.70 643.71 606.85 643.38 600.00 643.49 C 547.50 643.43 495.00 643.60 442.51 643.40 L 441.25 642.30 Z" />
<path fill="#11137e" opacity="1.00" d=" M 331.61 659.38 L 332.86 658.38 C 333.11 662.89 332.97 667.41 333.06 671.93 C 333.04 674.17 333.30 676.66 331.69 678.50 C 331.41 672.13 331.41 665.74 331.61 659.38 Z" />
</g>
<g id="#10127dff">
<path fill="#10127d" opacity="1.00" d=" M 789.53 782.13 C 791.41 783.43 793.59 784.26 795.93 784.07 C 818.61 783.90 841.30 784.09 863.98 783.96 C 868.18 783.77 872.40 783.97 876.48 785.07 C 867.36 785.84 858.17 785.22 849.02 785.42 C 829.09 785.46 809.16 785.35 789.24 785.48 C 789.31 784.64 789.46 782.96 789.53 782.13 Z" />
</g>
</svg>
