<?xml version="1.0" encoding="UTF-8" ?>
<!DOCTYPE svg PUBLIC "-//W3C//DTD SVG 1.1//EN" "http://www.w3.org/Graphics/SVG/1.1/DTD/svg11.dtd">
<svg width="1276pt" height="1276pt" viewBox="0 0 1276 1276" version="1.1" xmlns="http://www.w3.org/2000/svg">
<g id="#502f8eff">
<path fill="#502f8e" opacity="1.00" d=" M 333.97 326.98 C 366.25 318.41 400.52 318.04 433.11 325.12 C 447.18 328.01 460.78 332.69 474.27 337.54 C 475.94 334.04 477.49 330.48 478.99 326.91 C 521.73 326.90 564.47 326.89 607.21 326.92 C 610.27 346.00 613.36 365.09 616.76 384.12 C 622.75 365.08 629.28 346.20 635.06 327.11 C 653.05 326.64 671.07 327.03 689.07 326.90 C 824.25 326.90 959.43 326.91 1094.61 326.90 C 1076.82 437.98 1059.01 549.05 1041.19 660.12 C 981.57 660.14 921.96 660.08 862.34 660.15 C 827.70 714.90 793.11 769.68 758.48 824.45 C 757.42 826.22 756.01 827.91 755.70 830.02 C 753.30 845.36 751.03 860.72 748.61 876.06 C 833.04 876.11 917.48 875.98 1001.92 876.13 C 1009.87 890.20 1018.22 904.05 1026.17 918.13 C 1033.40 904.98 1040.30 891.66 1047.33 878.40 C 1047.91 877.34 1048.44 875.76 1050.00 876.09 C 1081.87 876.08 1113.75 875.98 1145.62 876.14 C 1124.94 911.00 1104.69 946.12 1084.13 981.06 C 1073.03 1000.22 1061.67 1019.24 1050.70 1038.47 C 1033.90 1038.67 1017.10 1038.62 1000.30 1038.49 C 994.78 1029.26 989.00 1020.18 983.39 1011.01 C 972.40 1022.73 957.65 1030.33 942.17 1034.18 C 929.07 1037.52 915.49 1038.84 901.99 1038.58 C 845.98 1038.45 789.99 1038.87 733.99 1038.76 C 703.10 1038.59 672.21 1038.58 641.33 1038.53 C 660.26 1009.73 678.41 980.42 697.29 951.58 C 665.37 951.65 633.45 951.58 601.53 951.61 C 602.66 945.20 603.61 938.75 604.74 932.34 C 582.79 947.10 556.75 956.19 530.20 956.70 C 501.47 957.80 472.52 948.77 449.42 931.67 C 442.06 926.34 435.42 920.11 429.11 913.59 C 419.52 923.50 408.10 931.53 396.00 938.08 C 379.42 946.71 360.82 952.33 341.99 951.61 C 288.67 951.58 235.35 951.66 182.03 951.56 C 199.57 843.37 216.68 735.10 234.21 626.91 C 211.61 608.08 194.23 582.56 187.02 553.89 C 182.82 537.97 182.26 521.37 182.40 505.00 C 182.94 480.38 187.90 455.71 198.21 433.27 C 211.22 404.38 233.06 379.96 259.01 362.02 C 281.84 346.34 307.16 334.08 333.97 326.98 M 364.24 364.55 C 337.64 368.03 312.28 378.43 289.74 392.78 C 269.17 405.74 251.20 423.48 240.13 445.29 C 227.24 469.93 223.69 498.59 226.31 526.03 C 227.46 545.93 236.01 565.03 249.11 579.93 C 272.79 606.75 309.56 620.24 344.96 618.23 C 366.42 617.12 387.34 610.31 405.89 599.57 C 403.53 604.94 401.14 610.30 398.80 615.67 C 416.50 615.74 434.19 615.64 451.89 615.72 C 463.00 591.35 473.84 566.86 484.91 542.48 C 504.24 542.56 523.56 542.39 542.89 542.56 C 546.94 566.96 551.52 591.26 555.54 615.66 C 584.24 615.75 612.95 615.67 641.66 615.69 C 656.22 570.20 670.57 524.63 685.10 479.12 C 694.27 524.65 703.77 570.13 712.85 615.69 C 724.21 615.71 735.58 615.69 746.95 615.70 C 768.73 565.32 790.31 514.86 812.19 464.53 C 812.86 489.18 814.41 513.81 815.31 538.46 C 814.29 539.41 813.76 540.57 813.71 541.94 C 813.44 547.33 813.92 552.73 814.46 558.09 C 815.05 563.54 814.58 569.06 815.36 574.50 L 816.71 573.21 C 817.58 587.37 818.13 601.56 818.71 615.74 C 835.64 615.64 852.57 615.71 869.51 615.70 C 866.49 546.48 863.52 477.26 860.52 408.03 C 859.97 395.26 859.18 382.49 859.15 369.70 C 838.78 369.66 818.43 369.71 798.07 369.68 C 786.79 396.23 775.52 422.79 764.26 449.35 C 756.44 467.33 749.25 485.59 741.06 503.39 C 733.07 458.80 724.80 414.26 716.64 369.70 C 699.96 369.65 683.28 369.72 666.61 369.67 C 645.06 435.43 623.93 501.33 602.47 567.12 C 591.12 501.36 580.60 435.44 569.39 369.66 C 548.60 369.72 527.82 369.68 507.04 369.67 C 475.80 440.30 445.01 511.14 413.60 581.68 C 418.34 552.51 422.59 523.25 427.53 494.12 C 426.13 493.35 424.57 492.90 422.97 492.96 C 394.98 493.03 366.98 493.01 338.99 492.97 C 336.82 492.98 334.66 493.18 332.53 493.56 L 333.67 493.95 C 330.93 509.49 328.56 525.12 326.36 540.75 L 325.39 541.73 C 337.94 542.91 350.58 541.71 363.16 542.37 C 363.46 543.98 363.76 545.58 364.07 547.20 C 363.04 553.17 361.90 559.13 360.77 565.09 C 340.69 572.40 316.72 570.41 299.14 557.84 C 285.65 548.25 278.46 532.02 276.45 515.98 C 274.12 498.95 278.78 481.44 288.02 467.08 C 299.22 449.77 315.58 435.86 334.41 427.47 C 353.39 419.10 374.22 414.77 394.97 415.29 C 410.24 415.04 425.54 418.02 439.58 424.05 C 442.50 407.31 445.07 390.51 447.53 373.69 C 420.92 364.44 392.23 360.69 364.24 364.55 M 904.02 420.91 C 893.77 485.85 883.23 550.75 873.03 615.69 C 919.99 615.69 966.95 615.71 1013.91 615.68 C 1016.81 597.98 1019.46 580.23 1022.48 562.55 C 993.13 562.52 963.78 562.50 934.44 562.56 C 936.83 548.18 939.05 533.78 941.37 519.39 C 966.86 519.39 992.36 519.37 1017.86 519.41 C 1020.65 501.73 1023.30 484.03 1026.38 466.41 C 1000.63 465.95 974.85 466.35 949.09 466.21 C 951.22 451.73 953.36 437.25 955.80 422.82 C 985.05 422.90 1014.30 422.80 1043.55 422.87 C 1046.42 405.16 1049.19 387.43 1052.03 369.71 C 1005.49 369.61 958.94 369.78 912.40 369.63 C 909.26 386.66 906.92 403.84 904.02 420.91 M 282.61 661.44 C 283.15 661.69 284.23 662.18 284.76 662.43 C 279.57 662.93 274.34 662.71 269.13 662.70 C 256.17 744.09 243.14 825.47 230.20 906.87 C 267.80 906.83 305.40 906.85 343.00 906.86 C 354.78 906.79 366.32 903.11 376.58 897.47 C 391.97 888.91 405.41 876.36 413.78 860.77 C 420.80 848.00 423.43 832.79 420.27 818.50 C 416.98 803.95 407.92 791.29 396.97 781.43 C 409.51 768.21 420.55 752.39 423.45 734.03 C 426.39 717.65 420.89 700.41 410.16 687.89 C 400.03 675.97 386.18 666.89 370.82 663.55 C 365.99 662.29 360.99 662.97 356.08 662.45 L 357.40 661.36 C 352.29 660.76 347.15 661.02 342.03 661.01 C 327.68 660.99 313.34 661.00 299.00 661.01 C 293.53 661.03 288.05 660.73 282.61 661.44 M 532.54 661.84 C 503.66 665.40 478.00 682.84 460.38 705.47 C 434.31 739.14 423.94 784.32 432.31 826.03 C 436.08 843.85 443.23 861.15 454.48 875.58 C 463.47 887.39 475.18 897.23 488.66 903.54 C 504.49 911.24 522.69 913.49 540.02 910.81 C 557.10 908.00 573.25 900.44 586.85 889.81 C 610.72 871.22 627.06 844.05 634.77 814.98 C 643.62 781.12 641.30 743.56 624.55 712.45 C 614.55 693.91 599.13 677.93 579.84 669.12 C 565.15 662.28 548.59 659.96 532.54 661.84 M 610.98 661.37 C 630.76 704.63 650.72 747.82 670.33 791.15 C 664.47 829.89 658.12 868.58 652.21 907.32 C 669.14 907.31 686.08 907.31 703.02 907.32 C 708.19 873.25 713.08 839.13 718.54 805.11 C 722.13 798.09 726.91 791.72 730.98 784.96 C 757.06 743.75 783.25 702.61 809.29 661.38 C 789.51 661.20 769.74 661.38 749.97 661.29 C 733.40 687.84 717.07 714.54 700.32 740.98 C 689.95 714.41 679.60 687.83 669.16 661.29 C 649.76 661.37 630.37 661.21 610.98 661.37 M 757.82 903.29 C 736.55 939.03 715.34 974.80 694.01 1010.51 C 719.48 1010.68 744.95 1010.55 770.42 1010.57 C 770.35 1002.61 770.43 994.65 770.37 986.69 C 760.20 986.70 750.02 986.71 739.85 986.69 C 746.06 975.09 752.56 963.64 758.96 952.13 C 762.93 945.40 766.14 938.19 770.68 931.82 C 785.22 958.17 800.09 984.35 814.85 1010.58 C 843.54 1010.59 872.24 1010.57 900.93 1010.59 C 911.69 1010.76 922.50 1010.03 933.00 1007.62 C 945.43 1004.89 957.66 998.82 965.38 988.41 C 972.19 979.17 974.77 967.34 974.52 956.02 C 974.57 950.94 974.26 945.68 972.11 941.00 C 976.15 944.86 978.19 950.20 981.32 954.76 C 992.60 973.37 1003.91 991.96 1015.20 1010.57 C 1022.15 1010.58 1029.11 1010.61 1036.07 1010.55 C 1052.98 981.33 1069.98 952.16 1086.95 922.96 C 1090.64 916.21 1095.06 909.83 1098.26 902.82 C 1094.50 902.71 1090.75 902.81 1087.01 902.87 C 1079.67 903.17 1072.34 902.67 1065.02 903.28 C 1052.26 926.49 1039.41 949.64 1026.66 972.86 C 1012.67 949.62 999.47 925.89 985.34 902.74 C 980.57 903.59 975.76 902.45 970.97 902.93 C 964.00 902.85 957.03 902.81 950.07 902.79 C 952.73 908.10 955.91 913.16 959.41 917.96 C 955.93 915.65 952.62 913.08 948.93 911.12 C 940.58 906.76 931.29 904.57 921.98 903.55 C 908.34 902.59 894.66 902.72 881.00 902.87 C 876.63 902.52 872.29 903.25 867.94 903.12 C 862.63 902.65 857.30 902.90 851.98 902.80 C 847.56 902.86 843.09 902.39 838.76 903.42 C 839.55 909.25 839.08 915.14 839.20 921.01 C 839.29 944.26 839.01 967.51 839.34 990.75 C 838.97 990.65 838.25 990.44 837.89 990.34 C 832.26 980.02 825.82 970.17 819.85 960.05 C 808.46 941.12 796.97 922.25 785.60 903.31 C 776.34 903.25 767.08 903.28 757.82 903.29 Z" />
<path fill="#502f8e" opacity="1.00" d=" M 526.00 447.83 C 529.06 461.77 531.43 475.87 534.29 489.86 C 533.45 490.87 532.62 491.89 531.79 492.91 C 523.19 493.18 514.59 492.70 506.00 492.98 C 512.40 477.82 519.37 462.90 526.00 447.83 Z" />
<path fill="#502f8e" opacity="1.00" d=" M 533.30 711.20 C 541.03 708.67 549.56 708.88 557.14 711.87 C 568.66 716.21 576.93 726.44 581.70 737.49 C 585.40 746.39 587.91 755.96 588.06 765.62 C 586.67 769.77 586.68 774.15 588.09 778.30 C 587.83 789.57 585.07 800.73 581.27 811.32 C 575.06 828.01 564.99 843.85 550.28 854.27 C 540.47 861.05 527.90 865.52 516.00 862.21 C 505.64 859.83 497.23 852.30 491.56 843.57 C 483.28 830.37 480.34 814.50 480.45 799.10 C 480.99 777.66 487.31 756.20 499.38 738.40 C 507.73 726.40 519.02 715.54 533.30 711.20 Z" />
<path fill="#502f8e" opacity="1.00" d=" M 312.82 714.84 C 323.87 714.84 334.92 714.83 345.97 714.83 C 352.55 714.93 359.67 716.76 364.09 721.97 C 369.20 727.57 369.90 736.15 366.93 742.95 C 363.94 750.52 357.27 756.43 349.47 758.67 C 344.82 760.31 339.82 759.79 334.99 759.86 C 325.04 759.89 315.09 759.76 305.15 759.94 C 307.72 744.91 310.28 729.87 312.82 714.84 Z" />
<path fill="#502f8e" opacity="1.00" d=" M 289.67 859.10 C 291.91 842.98 294.98 826.99 297.08 810.85 C 299.30 811.69 301.65 812.20 304.04 812.10 C 311.04 811.96 318.03 812.00 325.03 811.99 C 331.36 811.94 337.80 812.61 344.01 810.94 C 355.32 811.29 367.49 819.85 367.85 831.94 C 368.80 841.13 362.84 849.77 355.03 854.09 C 346.87 858.83 337.16 859.39 327.94 859.10 C 315.18 859.09 302.43 859.09 289.67 859.10 Z" />
<path fill="#502f8e" opacity="1.00" d=" M 870.48 927.56 C 884.98 927.66 899.49 927.55 913.99 927.61 C 922.37 928.06 931.60 930.01 937.14 936.87 C 942.86 943.85 943.17 953.56 942.21 962.13 C 941.44 968.88 938.10 975.56 932.21 979.22 C 924.66 983.85 915.56 984.37 906.98 985.23 C 894.81 985.64 882.63 985.29 870.45 985.45 C 870.45 966.15 870.40 946.85 870.48 927.56 Z" />
</g>
<g id="#ffffffff">
<path fill="#ffffff" opacity="1.00" d=" M 364.24 364.55 C 392.23 360.69 420.92 364.44 447.53 373.69 C 445.07 390.51 442.50 407.31 439.58 424.05 C 425.54 418.02 410.24 415.04 394.97 415.29 C 374.22 414.77 353.39 419.10 334.41 427.47 C 315.58 435.86 299.22 449.77 288.02 467.08 C 278.78 481.44 274.12 498.95 276.45 515.98 C 278.46 532.02 285.65 548.25 299.14 557.84 C 316.72 570.41 340.69 572.40 360.77 565.09 C 361.90 559.13 363.04 553.17 364.07 547.20 C 364.45 544.99 364.84 542.77 365.28 540.58 C 352.31 540.72 339.33 540.37 326.36 540.75 C 328.56 525.12 330.93 509.49 333.67 493.95 C 346.75 494.67 359.91 494.05 373.03 494.26 C 391.20 494.17 409.37 494.44 427.53 494.12 C 422.59 523.25 418.34 552.51 413.60 581.68 C 445.01 511.14 475.80 440.30 507.04 369.67 C 527.82 369.68 548.60 369.72 569.39 369.66 C 580.60 435.44 591.12 501.36 602.47 567.12 C 623.93 501.33 645.06 435.43 666.61 369.67 C 683.28 369.72 699.96 369.65 716.64 369.70 C 724.80 414.26 733.07 458.80 741.06 503.39 C 749.25 485.59 756.44 467.33 764.26 449.35 C 775.52 422.79 786.79 396.23 798.07 369.68 C 818.43 369.71 838.78 369.66 859.15 369.70 C 859.18 382.49 859.97 395.26 860.52 408.03 C 863.52 477.26 866.49 546.48 869.51 615.70 C 852.57 615.71 835.64 615.64 818.71 615.74 C 818.13 601.56 817.58 587.37 816.71 573.21 C 816.43 561.62 815.62 550.05 815.31 538.46 C 814.41 513.81 812.86 489.18 812.19 464.53 C 790.31 514.86 768.73 565.32 746.95 615.70 C 735.58 615.69 724.21 615.71 712.85 615.69 C 703.77 570.13 694.27 524.65 685.10 479.12 C 670.57 524.63 656.22 570.20 641.66 615.69 C 612.95 615.67 584.24 615.75 555.54 615.66 C 551.52 591.26 546.94 566.96 542.89 542.56 C 523.56 542.39 504.24 542.56 484.91 542.48 C 473.84 566.86 463.00 591.35 451.89 615.72 C 434.19 615.64 416.50 615.74 398.80 615.67 C 401.14 610.30 403.53 604.94 405.89 599.57 C 387.34 610.31 366.42 617.12 344.96 618.23 C 309.56 620.24 272.79 606.75 249.11 579.93 C 236.01 565.03 227.46 545.93 226.31 526.03 C 223.69 498.59 227.24 469.93 240.13 445.29 C 251.20 423.48 269.17 405.74 289.74 392.78 C 312.28 378.43 337.64 368.03 364.24 364.55 M 526.00 447.83 C 519.37 462.90 512.40 477.82 506.00 492.98 C 505.71 493.28 505.11 493.87 504.82 494.17 C 514.87 494.36 524.92 494.22 534.98 494.24 C 534.74 492.78 534.51 491.31 534.29 489.86 C 531.43 475.87 529.06 461.77 526.00 447.83 Z" />
<path fill="#ffffff" opacity="1.00" d=" M 904.02 420.91 C 906.92 403.84 909.26 386.66 912.40 369.63 C 958.94 369.78 1005.49 369.61 1052.03 369.71 C 1049.19 387.43 1046.42 405.16 1043.55 422.87 C 1014.30 422.80 985.05 422.90 955.80 422.82 C 953.36 437.25 951.22 451.73 949.09 466.21 C 974.85 466.35 1000.63 465.95 1026.38 466.41 C 1023.30 484.03 1020.65 501.73 1017.86 519.41 C 992.36 519.37 966.86 519.39 941.37 519.39 C 939.05 533.78 936.83 548.18 934.44 562.56 C 963.78 562.50 993.13 562.52 1022.48 562.55 C 1019.46 580.23 1016.81 597.98 1013.91 615.68 C 966.95 615.71 919.99 615.69 873.03 615.69 C 883.23 550.75 893.77 485.85 904.02 420.91 Z" />
<path fill="#ffffff" opacity="1.00" d=" M 532.54 661.84 C 548.59 659.96 565.15 662.28 579.84 669.12 C 599.13 677.93 614.55 693.91 624.55 712.45 C 641.30 743.56 643.62 781.12 634.77 814.98 C 627.06 844.05 610.72 871.22 586.85 889.81 C 573.25 900.44 557.10 908.00 540.02 910.81 C 522.69 913.49 504.49 911.24 488.66 903.54 C 475.18 897.23 463.47 887.39 454.48 875.58 C 443.23 861.15 436.08 843.85 432.31 826.03 C 423.94 784.32 434.31 739.14 460.38 705.47 C 478.00 682.84 503.66 665.40 532.54 661.84 M 533.30 711.20 C 519.02 715.54 507.73 726.40 499.38 738.40 C 487.31 756.20 480.99 777.66 480.45 799.10 C 480.34 814.50 483.28 830.37 491.56 843.57 C 497.23 852.30 505.64 859.83 516.00 862.21 C 527.90 865.52 540.47 861.05 550.28 854.27 C 564.99 843.85 575.06 828.01 581.27 811.32 C 585.07 800.73 587.83 789.57 588.09 778.30 C 588.57 774.09 588.60 769.82 588.06 765.62 C 587.91 755.96 585.40 746.39 581.70 737.49 C 576.93 726.44 568.66 716.21 557.14 711.87 C 549.56 708.88 541.03 708.67 533.30 711.20 Z" />
<path fill="#ffffff" opacity="1.00" d=" M 610.98 661.37 C 630.37 661.21 649.76 661.37 669.16 661.29 C 679.60 687.83 689.95 714.41 700.32 740.98 C 717.07 714.54 733.40 687.84 749.97 661.29 C 769.74 661.38 789.51 661.20 809.29 661.38 C 783.25 702.61 757.06 743.75 730.98 784.96 C 726.91 791.72 722.13 798.09 718.54 805.11 C 713.08 839.13 708.19 873.25 703.02 907.32 C 686.08 907.31 669.14 907.31 652.21 907.32 C 658.12 868.58 664.47 829.89 670.33 791.15 C 650.72 747.82 630.76 704.63 610.98 661.37 Z" />
<path fill="#ffffff" opacity="1.00" d=" M 284.76 662.43 C 308.54 662.32 332.31 662.28 356.08 662.45 C 360.99 662.97 365.99 662.29 370.82 663.55 C 386.18 666.89 400.03 675.97 410.16 687.89 C 420.89 700.41 426.39 717.65 423.45 734.03 C 420.55 752.39 409.51 768.21 396.97 781.43 C 407.92 791.29 416.98 803.95 420.27 818.50 C 423.43 832.79 420.80 848.00 413.78 860.77 C 405.41 876.36 391.97 888.91 376.58 897.47 C 366.32 903.11 354.78 906.79 343.00 906.86 C 305.40 906.85 267.80 906.83 230.20 906.87 C 243.14 825.47 256.17 744.09 269.13 662.70 C 274.34 662.71 279.57 662.93 284.76 662.43 M 312.82 714.84 C 310.28 729.87 307.72 744.91 305.15 759.94 C 315.09 759.76 325.04 759.89 334.99 759.86 C 339.82 759.79 344.82 760.31 349.47 758.67 C 357.27 756.43 363.94 750.52 366.93 742.95 C 369.90 736.15 369.20 727.57 364.09 721.97 C 359.67 716.76 352.55 714.93 345.97 714.83 C 334.92 714.83 323.87 714.84 312.82 714.84 M 289.67 859.10 C 302.43 859.09 315.18 859.09 327.94 859.10 C 337.16 859.39 346.87 858.83 355.03 854.09 C 362.84 849.77 368.80 841.13 367.85 831.94 C 367.49 819.85 355.32 811.29 344.01 810.94 C 340.02 810.28 335.98 810.58 331.96 810.54 C 320.34 810.73 308.68 810.15 297.08 810.85 C 294.98 826.99 291.91 842.98 289.67 859.10 Z" />
<path fill="#ffffff" opacity="1.00" d=" M 757.82 903.29 C 767.08 903.28 776.34 903.25 785.60 903.31 C 796.97 922.25 808.46 941.12 819.85 960.05 C 825.82 970.17 832.26 980.02 837.89 990.34 C 838.25 990.44 838.97 990.65 839.34 990.75 C 839.01 967.51 839.29 944.26 839.20 921.01 C 839.08 915.14 839.55 909.25 838.76 903.42 C 843.09 902.39 847.56 902.86 851.98 902.80 C 857.30 902.90 862.63 902.65 867.94 903.12 C 872.29 903.25 876.63 902.52 881.00 902.87 C 894.66 902.72 908.34 902.59 921.98 903.55 C 931.29 904.57 940.58 906.76 948.93 911.12 C 952.62 913.08 955.93 915.65 959.41 917.96 C 955.91 913.16 952.73 908.10 950.07 902.79 C 957.03 902.81 964.00 902.85 970.97 902.93 C 975.76 902.45 980.57 903.59 985.34 902.74 C 999.47 925.89 1012.67 949.62 1026.66 972.86 C 1039.41 949.64 1052.26 926.49 1065.02 903.28 C 1072.34 902.67 1079.67 903.17 1087.01 902.87 C 1090.75 902.81 1094.50 902.71 1098.26 902.82 C 1095.06 909.83 1090.64 916.21 1086.95 922.96 C 1069.98 952.16 1052.98 981.33 1036.07 1010.55 C 1029.11 1010.61 1022.15 1010.58 1015.20 1010.57 C 1003.91 991.96 992.60 973.37 981.32 954.76 C 978.19 950.20 976.15 944.86 972.11 941.00 C 974.26 945.68 974.57 950.94 974.52 956.02 C 974.77 967.34 972.19 979.17 965.38 988.41 C 957.66 998.82 945.43 1004.89 933.00 1007.62 C 922.50 1010.03 911.69 1010.76 900.93 1010.59 C 872.24 1010.57 843.54 1010.59 814.85 1010.58 C 800.09 984.35 785.22 958.17 770.68 931.82 C 766.14 938.19 762.93 945.40 758.96 952.13 C 752.56 963.64 746.06 975.09 739.85 986.69 C 750.02 986.71 760.20 986.70 770.37 986.69 C 770.43 994.65 770.35 1002.61 770.42 1010.57 C 744.95 1010.55 719.48 1010.68 694.01 1010.51 C 715.34 974.80 736.55 939.03 757.82 903.29 M 870.48 927.56 C 870.40 946.85 870.45 966.15 870.45 985.45 C 882.63 985.29 894.81 985.64 906.98 985.23 C 915.56 984.37 924.66 983.85 932.21 979.22 C 938.10 975.56 941.44 968.88 942.21 962.13 C 943.17 953.56 942.86 943.85 937.14 936.87 C 931.60 930.01 922.37 928.06 913.99 927.61 C 899.49 927.55 884.98 927.66 870.48 927.56 Z" />
</g>
<g id="#3e1b83ff">
<path fill="#3e1b83" opacity="1.00" d=" M 531.79 492.91 C 532.62 491.89 533.45 490.87 534.29 489.86 C 534.51 491.31 534.74 492.78 534.98 494.24 C 524.92 494.22 514.87 494.36 504.82 494.17 C 505.11 493.87 505.71 493.28 506.00 492.98 C 514.59 492.70 523.19 493.18 531.79 492.91 Z" />
</g>
<g id="#3c1881ff">
<path fill="#3c1881" opacity="1.00" d=" M 332.53 493.56 C 334.66 493.18 336.82 492.98 338.99 492.97 C 366.98 493.01 394.98 493.03 422.97 492.96 C 424.57 492.90 426.13 493.35 427.53 494.12 C 409.37 494.44 391.20 494.17 373.03 494.26 C 359.91 494.05 346.75 494.67 333.67 493.95 L 332.53 493.56 Z" />
</g>
<g id="#482589ff">
<path fill="#482589" opacity="1.00" d=" M 813.71 541.94 C 813.76 540.57 814.29 539.41 815.31 538.46 C 815.62 550.05 816.43 561.62 816.71 573.21 L 815.36 574.50 C 814.58 569.06 815.05 563.54 814.46 558.09 C 813.92 552.73 813.44 547.33 813.71 541.94 Z" />
</g>
<g id="#431f86ff">
<path fill="#431f86" opacity="1.00" d=" M 326.36 540.75 C 339.33 540.37 352.31 540.72 365.28 540.58 C 364.84 542.77 364.45 544.99 364.07 547.20 C 363.76 545.58 363.46 543.98 363.16 542.37 C 350.58 541.71 337.94 542.91 325.39 541.73 L 326.36 540.75 Z" />
</g>
<g id="#38127eff">
<path fill="#38127e" opacity="1.00" d=" M 282.61 661.44 C 288.05 660.73 293.53 661.03 299.00 661.01 C 313.34 661.00 327.68 660.99 342.03 661.01 C 347.15 661.02 352.29 660.76 357.40 661.36 L 356.08 662.45 C 332.31 662.28 308.54 662.32 284.76 662.43 C 284.23 662.18 283.15 661.69 282.61 661.44 Z" />
</g>
<g id="#36107dff">
<path fill="#36107d" opacity="1.00" d=" M 588.09 778.30 C 586.68 774.15 586.67 769.77 588.06 765.62 C 588.60 769.82 588.57 774.09 588.09 778.30 Z" />
<path fill="#36107d" opacity="1.00" d=" M 297.08 810.85 C 308.68 810.15 320.34 810.73 331.96 810.54 C 335.98 810.58 340.02 810.28 344.01 810.94 C 337.80 812.61 331.36 811.94 325.03 811.99 C 318.03 812.00 311.04 811.96 304.04 812.10 C 301.65 812.20 299.30 811.69 297.08 810.85 Z" />
</g>
</svg>
