<?xml version="1.0" encoding="UTF-8" ?>
<!DOCTYPE svg PUBLIC "-//W3C//DTD SVG 1.1//EN" "http://www.w3.org/Graphics/SVG/1.1/DTD/svg11.dtd">
<svg width="1276pt" height="1276pt" viewBox="0 0 1276 1276" version="1.1" xmlns="http://www.w3.org/2000/svg">
<g id="#502f8eff">
<path fill="#502f8e" opacity="1.00" d=" M 467.12 232.72 C 523.91 221.41 583.07 223.20 639.38 236.41 C 645.25 237.61 650.97 239.89 657.01 240.06 C 744.35 240.05 831.69 240.06 919.02 240.06 C 937.72 239.69 956.60 240.62 974.82 245.12 C 1001.50 251.13 1026.20 264.41 1047.09 281.93 C 1063.52 295.69 1078.33 311.50 1090.38 329.26 C 1093.00 331.20 1094.16 334.41 1095.96 337.02 C 1106.83 354.70 1114.50 374.16 1120.20 394.06 C 1130.86 434.99 1128.77 478.96 1114.67 518.82 C 1112.88 524.69 1109.95 530.08 1107.51 535.68 C 1105.33 542.92 1100.99 549.19 1097.20 555.64 C 1103.28 564.12 1105.66 574.39 1109.02 584.09 C 1122.51 630.65 1119.50 681.77 1100.67 726.44 C 1097.82 732.43 1096.05 738.89 1092.60 744.61 C 1074.79 778.05 1048.27 806.96 1015.88 826.72 C 1024.87 827.48 1033.93 826.86 1042.95 827.06 C 1070.80 827.06 1098.65 827.06 1126.51 827.06 C 1083.59 901.64 1040.84 976.32 997.99 1050.94 C 973.75 1050.93 949.52 1050.96 925.28 1050.93 C 917.00 1037.56 908.65 1024.22 900.51 1010.77 C 890.06 1021.76 877.47 1030.67 863.51 1036.67 C 839.19 1047.33 812.35 1050.79 785.98 1050.93 C 661.28 1050.94 536.58 1050.96 411.87 1050.92 C 447.58 990.67 483.42 930.50 519.16 870.27 C 496.02 874.45 472.64 877.62 449.08 877.62 C 407.67 878.29 365.85 871.68 327.56 855.56 C 290.03 839.99 255.53 816.91 227.34 787.61 C 201.33 760.47 180.73 727.99 168.26 692.47 C 156.35 659.77 152.83 624.65 153.06 590.05 C 152.32 542.05 160.88 493.72 179.57 449.43 C 197.06 407.88 223.81 370.38 256.74 339.67 C 279.92 317.86 306.07 299.36 333.68 283.59 C 375.15 259.86 420.14 241.87 467.12 232.72 M 472.98 314.98 C 434.01 323.78 396.92 339.96 362.98 360.91 C 343.85 372.57 325.88 386.21 309.77 401.80 C 285.51 425.41 265.93 453.98 253.56 485.55 C 238.89 522.39 234.01 562.55 235.71 601.99 C 236.60 622.96 239.04 644.14 246.50 663.90 C 258.63 697.77 281.80 727.14 310.45 748.65 C 344.38 774.32 385.82 789.55 428.11 793.35 C 469.99 797.40 512.75 789.92 551.23 773.03 C 564.86 767.26 577.52 759.52 590.25 752.03 C 600.22 687.15 610.47 622.31 620.70 557.47 L 620.86 556.20 C 611.23 555.73 601.57 556.15 591.93 556.01 C 557.30 555.98 522.67 556.03 488.05 555.99 C 472.58 556.15 457.10 555.66 441.65 556.25 L 442.46 557.48 L 441.73 557.47 C 437.23 586.42 432.72 615.37 428.22 644.31 C 427.88 645.71 428.43 646.32 429.86 646.16 C 454.09 646.13 478.32 646.23 502.55 646.11 C 499.96 660.91 497.11 675.67 494.58 690.48 C 494.42 691.71 493.91 693.02 492.55 693.31 C 479.94 698.20 466.39 700.47 452.91 700.91 C 449.55 701.35 446.16 701.29 442.81 700.86 C 425.32 700.48 407.93 696.32 392.09 688.92 C 373.50 679.99 357.50 665.44 347.66 647.25 C 338.45 630.40 333.15 611.48 331.68 592.36 C 331.96 592.00 332.52 591.29 332.80 590.93 C 333.27 584.95 332.94 578.93 332.98 572.93 L 331.59 572.97 C 333.44 545.33 344.28 518.77 360.61 496.56 C 372.62 480.15 387.16 465.61 403.32 453.28 C 436.97 428.26 477.80 414.23 519.10 408.69 C 557.50 403.95 597.47 405.65 634.07 419.10 C 637.57 420.25 640.75 422.30 644.40 423.00 C 649.74 391.26 654.70 359.46 659.45 327.63 C 644.53 322.47 629.34 318.01 613.89 314.80 C 567.65 304.66 519.16 304.41 472.98 314.98 M 750.26 324.10 C 744.26 364.09 737.50 403.96 731.30 443.92 C 712.75 559.24 694.51 674.61 675.91 789.92 C 746.95 789.91 817.99 789.91 889.03 789.91 C 900.11 790.26 911.21 788.77 921.91 785.89 C 956.94 776.05 988.07 754.14 1010.89 725.99 C 1025.71 707.43 1036.95 685.47 1040.45 661.80 C 1044.27 639.00 1039.84 615.17 1029.29 594.71 C 1020.49 578.08 1008.42 563.23 994.35 550.79 C 1004.97 539.80 1014.75 527.94 1023.07 515.11 C 1035.15 496.68 1043.78 475.71 1046.18 453.70 L 1047.56 453.82 C 1048.34 446.52 1048.53 439.06 1047.35 431.79 L 1046.26 432.86 C 1044.82 421.46 1042.08 410.18 1037.22 399.73 C 1026.22 375.48 1006.87 355.59 984.25 341.84 C 968.41 332.35 950.68 325.27 932.08 324.22 C 921.73 323.87 911.34 324.62 901.01 323.66 C 869.67 323.66 838.32 323.68 806.98 323.66 C 803.97 323.67 800.99 324.19 797.99 324.16 C 782.08 324.10 766.17 324.20 750.26 324.10 M 481.89 1009.50 C 481.53 1009.67 480.79 1010.01 480.43 1010.18 C 481.79 1012.61 484.69 1011.97 487.03 1012.09 C 522.13 1011.83 557.24 1012.32 592.33 1011.82 L 591.78 1010.66 C 592.04 999.03 591.74 987.40 591.92 975.78 C 577.09 975.81 562.26 975.65 547.43 975.86 C 562.19 949.02 577.23 922.32 591.98 895.47 C 613.36 933.87 634.96 972.14 656.47 1010.47 C 695.34 1010.59 734.20 1010.10 773.07 1010.27 C 790.11 1010.43 807.30 1010.31 824.06 1006.78 C 840.67 1003.36 857.28 996.65 869.19 984.18 C 879.73 973.42 885.37 958.69 886.95 943.88 C 888.17 931.92 887.90 919.59 884.34 908.03 C 905.48 941.90 925.72 976.36 946.73 1010.33 C 956.75 1010.15 966.77 1010.42 976.78 1010.18 C 1006.71 958.23 1036.97 906.46 1067.05 854.59 C 1051.02 854.56 1035.00 854.59 1018.97 854.58 C 1000.31 888.40 981.63 922.22 963.03 956.09 C 943.37 922.21 923.52 888.45 903.82 854.61 C 886.57 854.52 869.32 854.62 852.08 854.56 C 856.53 861.80 860.98 869.05 865.36 876.34 C 861.13 873.35 857.21 869.91 852.60 867.47 C 833.94 857.06 812.08 854.11 790.98 854.58 C 757.80 854.54 724.61 854.65 691.43 854.52 C 691.33 897.41 691.40 940.29 691.40 983.18 C 665.37 940.46 639.63 897.54 613.77 854.72 C 600.51 854.66 587.25 854.73 573.99 854.69 C 543.26 906.27 512.72 957.97 481.89 1009.50 Z" />
<path fill="#502f8e" opacity="1.00" d=" M 833.55 423.37 C 854.05 423.23 874.54 423.37 895.04 423.30 C 905.64 423.28 916.71 425.17 925.62 431.26 C 932.46 435.81 937.49 442.94 939.58 450.88 C 943.61 465.88 937.93 482.39 927.23 493.28 C 916.76 504.61 901.17 510.00 885.99 510.28 C 863.65 510.29 841.31 510.25 818.97 510.30 C 823.50 481.27 829.01 452.40 833.55 423.37 Z" />
<path fill="#502f8e" opacity="1.00" d=" M 804.20 606.36 C 831.13 606.21 858.06 606.36 884.98 606.29 C 894.13 606.08 903.36 607.59 911.82 611.13 C 922.60 615.40 931.92 623.78 936.49 634.53 C 941.40 645.68 940.42 658.97 934.62 669.61 C 927.60 682.89 914.16 691.73 899.99 695.82 C 892.16 697.82 884.03 699.58 875.93 699.04 C 871.78 697.49 867.34 697.99 863.02 698.00 C 840.34 698.01 817.65 697.97 794.96 698.04 C 792.89 698.25 791.14 697.18 789.54 696.04 C 792.85 676.69 795.74 657.28 798.91 637.91 C 800.81 627.42 801.86 616.72 804.20 606.36 Z" />
<path fill="#502f8e" opacity="1.00" d=" M 738.11 889.91 C 752.05 890.24 766.01 890.00 779.96 890.09 C 792.68 890.28 805.78 888.97 818.04 893.16 C 826.14 895.69 833.40 901.25 837.15 908.96 C 841.76 918.18 841.89 928.84 841.03 938.90 C 840.05 948.00 836.56 957.40 829.04 963.08 C 819.84 970.03 807.95 972.14 796.75 972.98 C 791.44 970.67 785.62 971.96 780.05 971.83 C 766.14 971.82 752.23 971.86 738.32 971.73 C 738.22 944.46 738.56 917.18 738.11 889.91 Z" />
</g>
<g id="#ffffffff">
<path fill="#ffffff" opacity="1.00" d=" M 472.98 314.98 C 519.16 304.41 567.65 304.66 613.89 314.80 C 629.34 318.01 644.53 322.47 659.45 327.63 C 654.70 359.46 649.74 391.26 644.40 423.00 C 640.75 422.30 637.57 420.25 634.07 419.10 C 597.47 405.65 557.50 403.95 519.10 408.69 C 477.80 414.23 436.97 428.26 403.32 453.28 C 387.16 465.61 372.62 480.15 360.61 496.56 C 344.28 518.77 333.44 545.33 331.59 572.97 C 331.46 579.43 331.38 585.90 331.68 592.36 C 333.15 611.48 338.45 630.40 347.66 647.25 C 357.50 665.44 373.50 679.99 392.09 688.92 C 407.93 696.32 425.32 700.48 442.81 700.86 C 446.16 701.29 449.55 701.35 452.91 700.91 C 466.39 700.47 479.94 698.20 492.55 693.31 C 493.91 693.02 494.42 691.71 494.58 690.48 C 497.11 675.67 499.96 660.91 502.55 646.11 C 478.32 646.23 454.09 646.13 429.86 646.16 C 428.43 646.32 427.88 645.71 428.22 644.31 C 432.72 615.37 437.23 586.42 441.73 557.47 L 442.46 557.48 C 501.87 557.48 561.29 557.51 620.70 557.47 C 610.47 622.31 600.22 687.15 590.25 752.03 C 577.52 759.52 564.86 767.26 551.23 773.03 C 512.75 789.92 469.99 797.40 428.11 793.35 C 385.82 789.55 344.38 774.32 310.45 748.65 C 281.80 727.14 258.63 697.77 246.50 663.90 C 239.04 644.14 236.60 622.96 235.71 601.99 C 234.01 562.55 238.89 522.39 253.56 485.55 C 265.93 453.98 285.51 425.41 309.77 401.80 C 325.88 386.21 343.85 372.57 362.98 360.91 C 396.92 339.96 434.01 323.78 472.98 314.98 Z" />
<path fill="#ffffff" opacity="1.00" d=" M 750.26 324.10 C 766.17 324.20 782.08 324.10 797.99 324.16 C 800.99 324.19 803.97 323.67 806.98 323.66 C 838.32 323.68 869.67 323.66 901.01 323.66 C 911.34 324.62 921.73 323.87 932.08 324.22 C 950.68 325.27 968.41 332.35 984.25 341.84 C 1006.87 355.59 1026.22 375.48 1037.22 399.73 C 1042.08 410.18 1044.82 421.46 1046.26 432.86 C 1046.75 439.79 1046.89 446.78 1046.18 453.70 C 1043.78 475.71 1035.15 496.68 1023.07 515.11 C 1014.75 527.94 1004.97 539.80 994.35 550.79 C 1008.42 563.23 1020.49 578.08 1029.29 594.71 C 1039.84 615.17 1044.27 639.00 1040.45 661.80 C 1036.95 685.47 1025.71 707.43 1010.89 725.99 C 988.07 754.14 956.94 776.05 921.91 785.89 C 911.21 788.77 900.11 790.26 889.03 789.91 C 817.99 789.91 746.95 789.91 675.91 789.92 C 694.51 674.61 712.75 559.24 731.30 443.92 C 737.50 403.96 744.26 364.09 750.26 324.10 M 833.55 423.37 C 829.01 452.40 823.50 481.27 818.97 510.30 C 841.31 510.25 863.65 510.29 885.99 510.28 C 901.17 510.00 916.76 504.61 927.23 493.28 C 937.93 482.39 943.61 465.88 939.58 450.88 C 937.49 442.94 932.46 435.81 925.62 431.26 C 916.71 425.17 905.64 423.28 895.04 423.30 C 874.54 423.37 854.05 423.23 833.55 423.37 M 804.20 606.36 C 801.86 616.72 800.81 627.42 798.91 637.91 C 795.74 657.28 792.85 676.69 789.54 696.04 C 789.47 696.90 789.31 698.62 789.24 699.48 C 814.49 699.34 839.75 699.46 865.01 699.42 C 868.64 699.37 872.31 699.68 875.93 699.04 C 884.03 699.58 892.16 697.82 899.99 695.82 C 914.16 691.73 927.60 682.89 934.62 669.61 C 940.42 658.97 941.40 645.68 936.49 634.53 C 931.92 623.78 922.60 615.40 911.82 611.13 C 903.36 607.59 894.13 606.08 884.98 606.29 C 858.06 606.36 831.13 606.21 804.20 606.36 Z" />
<path fill="#ffffff" opacity="1.00" d=" M 481.89 1009.50 C 512.72 957.97 543.26 906.27 573.99 854.69 C 587.25 854.73 600.51 854.66 613.77 854.72 C 639.63 897.54 665.37 940.46 691.40 983.18 C 691.40 940.29 691.33 897.41 691.43 854.52 C 724.61 854.65 757.80 854.54 790.98 854.58 C 812.08 854.11 833.94 857.06 852.60 867.47 C 857.21 869.91 861.13 873.35 865.36 876.34 C 860.98 869.05 856.53 861.80 852.08 854.56 C 869.32 854.62 886.57 854.52 903.82 854.61 C 923.52 888.45 943.37 922.21 963.03 956.09 C 981.63 922.22 1000.31 888.40 1018.97 854.58 C 1035.00 854.59 1051.02 854.56 1067.05 854.59 C 1036.97 906.46 1006.71 958.23 976.78 1010.18 C 966.77 1010.42 956.75 1010.15 946.73 1010.33 C 925.72 976.36 905.48 941.90 884.34 908.03 C 887.90 919.59 888.17 931.92 886.95 943.88 C 885.37 958.69 879.73 973.42 869.19 984.18 C 857.28 996.65 840.67 1003.36 824.06 1006.78 C 807.30 1010.31 790.11 1010.43 773.07 1010.27 C 734.20 1010.10 695.34 1010.59 656.47 1010.47 C 634.96 972.14 613.36 933.87 591.98 895.47 C 577.23 922.32 562.19 949.02 547.43 975.86 C 562.26 975.65 577.09 975.81 591.92 975.78 C 591.74 987.40 592.04 999.03 591.78 1010.66 C 554.93 1010.41 518.07 1010.62 481.23 1010.56 L 481.89 1009.50 M 736.55 889.87 C 736.49 917.86 736.44 945.86 736.57 973.85 C 756.62 973.23 776.74 974.57 796.75 972.98 C 807.95 972.14 819.84 970.03 829.04 963.08 C 836.56 957.40 840.05 948.00 841.03 938.90 C 841.89 928.84 841.76 918.18 837.15 908.96 C 833.40 901.25 826.14 895.69 818.04 893.16 C 805.78 888.97 792.68 890.28 779.96 890.09 C 766.01 890.00 752.05 890.24 738.11 889.91 L 736.55 889.87 Z" />
</g>
<g id="#3b1681ff">
<path fill="#3b1681" opacity="1.00" d=" M 1046.26 432.86 L 1047.35 431.79 C 1048.53 439.06 1048.34 446.52 1047.56 453.82 L 1046.18 453.70 C 1046.89 446.78 1046.75 439.79 1046.26 432.86 Z" />
</g>
<g id="#37117eff">
<path fill="#37117e" opacity="1.00" d=" M 441.65 556.25 C 457.10 555.66 472.58 556.15 488.05 555.99 C 522.67 556.03 557.30 555.98 591.93 556.01 C 601.57 556.15 611.23 555.73 620.86 556.20 L 620.70 557.47 C 561.29 557.51 501.87 557.48 442.46 557.48 L 441.65 556.25 Z" />
<path fill="#37117e" opacity="1.00" d=" M 331.59 572.97 L 332.98 572.93 C 332.94 578.93 333.27 584.95 332.80 590.93 C 332.52 591.29 331.96 592.00 331.68 592.36 C 331.38 585.90 331.46 579.43 331.59 572.97 Z" />
</g>
<g id="#36107dff">
<path fill="#36107d" opacity="1.00" d=" M 789.54 696.04 C 791.14 697.18 792.89 698.25 794.96 698.04 C 817.65 697.97 840.34 698.01 863.02 698.00 C 867.34 697.99 871.78 697.49 875.93 699.04 C 872.31 699.68 868.64 699.37 865.01 699.42 C 839.75 699.46 814.49 699.34 789.24 699.48 C 789.31 698.62 789.47 696.90 789.54 696.04 Z" />
</g>
<g id="#49288aff">
<path fill="#49288a" opacity="1.00" d=" M 736.55 889.87 L 738.11 889.91 C 738.56 917.18 738.22 944.46 738.32 971.73 C 752.23 971.86 766.14 971.82 780.05 971.83 C 785.62 971.96 791.44 970.67 796.75 972.98 C 776.74 974.57 756.62 973.23 736.57 973.85 C 736.44 945.86 736.49 917.86 736.55 889.87 Z" />
</g>
<g id="#35107dff">
<path fill="#35107d" opacity="1.00" d=" M 480.43 1010.18 C 480.79 1010.01 481.53 1009.67 481.89 1009.50 L 481.23 1010.56 C 518.07 1010.62 554.93 1010.41 591.78 1010.66 L 592.33 1011.82 C 557.24 1012.32 522.13 1011.83 487.03 1012.09 C 484.69 1011.97 481.79 1012.61 480.43 1010.18 Z" />
</g>
</svg>
