<?xml version="1.0" encoding="UTF-8" ?>
<!DOCTYPE svg PUBLIC "-//W3C//DTD SVG 1.1//EN" "http://www.w3.org/Graphics/SVG/1.1/DTD/svg11.dtd">
<svg width="1276pt" height="1276pt" viewBox="0 0 1276 1276" version="1.1" xmlns="http://www.w3.org/2000/svg">
<g id="#2f308eff">
<path fill="#2f308e" opacity="1.00" d=" M 503.85 191.22 C 551.05 186.63 599.01 190.22 645.00 201.80 C 648.96 202.68 652.87 204.10 656.98 204.06 C 738.00 204.05 819.01 204.06 900.02 204.06 C 920.34 204.28 940.81 203.04 960.96 206.39 C 989.63 210.61 1016.99 222.51 1039.91 240.21 C 1059.39 255.24 1076.78 273.15 1090.55 293.57 C 1096.97 303.04 1102.37 313.15 1107.38 323.43 C 1115.13 341.52 1121.76 360.28 1124.42 379.87 C 1130.19 415.70 1126.04 452.91 1113.55 486.92 C 1108.87 498.37 1103.65 509.69 1096.85 520.06 C 1103.02 528.73 1105.66 539.12 1109.01 549.06 C 1122.00 593.88 1119.72 642.95 1102.71 686.41 C 1099.99 693.03 1097.50 699.75 1094.11 706.07 C 1085.15 722.51 1074.80 738.31 1062.11 752.13 C 1022.94 796.07 964.88 822.48 906.00 822.92 C 794.33 822.98 682.67 822.92 571.01 822.95 C 569.70 823.16 568.78 822.68 568.27 821.51 C 552.98 827.29 536.89 830.53 520.96 833.99 C 506.71 836.26 492.51 839.04 478.11 840.17 C 436.93 843.77 394.85 841.20 355.09 829.39 C 315.01 817.23 277.46 796.63 245.83 769.15 C 202.19 731.50 170.39 679.69 158.94 623.01 C 154.40 600.31 152.94 577.08 153.05 553.97 C 152.31 504.54 161.43 454.74 181.31 409.38 C 198.90 369.22 225.17 333.00 257.25 303.18 C 282.27 279.77 310.67 260.15 340.68 243.69 C 390.94 215.77 446.53 196.94 503.85 191.22 M 460.19 282.15 C 420.26 292.92 382.60 311.24 348.38 334.34 C 316.41 356.21 288.31 384.30 268.86 417.97 C 245.08 458.58 234.85 506.13 235.48 552.92 C 235.44 569.14 236.61 585.40 239.27 601.41 C 246.42 640.71 268.32 676.56 298.26 702.71 C 328.49 729.37 366.33 746.95 405.88 754.26 C 453.31 763.31 503.22 757.36 547.62 738.57 C 562.57 732.58 576.37 724.21 590.22 716.08 C 600.15 651.14 610.66 586.29 620.56 521.35 L 621.27 520.33 C 613.88 519.64 606.46 520.14 599.05 519.99 C 546.65 520.08 494.24 519.84 441.84 520.12 L 441.84 521.46 C 437.37 548.61 433.33 575.83 429.06 603.01 C 428.62 605.40 428.07 607.82 428.39 610.26 C 453.11 609.98 477.83 610.30 502.55 610.10 C 499.92 625.06 497.08 639.99 494.48 654.96 C 494.19 657.67 490.79 657.73 488.85 658.72 C 457.61 668.72 422.60 666.96 392.75 653.23 C 373.91 644.35 357.68 629.71 347.72 611.36 C 338.47 594.49 333.17 575.54 331.68 556.40 C 331.97 556.03 332.53 555.28 332.82 554.91 C 333.33 548.92 332.91 542.89 332.91 536.89 L 331.59 536.99 C 333.68 504.82 348.10 474.41 368.83 450.06 C 382.68 433.76 398.77 419.24 416.97 407.94 C 454.82 384.45 499.20 372.72 543.48 370.53 C 577.67 369.29 612.89 373.00 644.26 387.46 C 649.77 355.59 654.64 323.61 659.45 291.63 C 642.35 285.67 624.86 280.81 607.07 277.39 C 558.61 267.78 507.90 269.12 460.19 282.15 M 750.27 288.10 C 746.42 314.46 741.87 340.72 737.83 367.05 C 717.11 495.99 696.69 624.99 675.90 753.92 C 748.95 753.91 822.01 753.91 895.06 753.92 C 916.48 753.36 937.23 746.12 955.93 735.99 C 974.94 725.58 992.06 711.74 1006.34 695.45 C 1020.28 679.35 1031.55 660.62 1037.37 640.04 C 1043.46 619.17 1043.27 596.53 1036.45 575.86 C 1028.62 552.01 1012.91 531.38 994.35 514.79 C 1005.65 503.10 1016.00 490.43 1024.64 476.64 C 1036.70 457.68 1044.88 436.02 1046.57 413.51 C 1046.86 413.94 1047.45 414.81 1047.74 415.24 C 1048.35 408.83 1048.28 402.33 1047.45 395.94 L 1046.26 396.88 C 1044.84 385.45 1042.05 374.13 1037.19 363.66 C 1026.27 339.63 1007.15 319.90 984.79 306.17 C 968.77 296.48 950.80 289.26 931.94 288.21 C 923.63 287.98 915.32 288.30 907.02 288.08 C 901.36 287.44 895.67 287.71 890.00 287.67 C 863.01 287.65 836.03 287.70 809.04 287.65 C 789.48 288.60 769.86 287.99 750.27 288.10 Z" />
<path fill="#2f308e" opacity="1.00" d=" M 833.67 387.25 C 855.13 387.41 876.60 387.24 898.06 387.34 C 909.29 387.71 921.07 390.59 929.56 398.36 C 936.81 404.78 940.61 414.40 940.95 423.97 C 940.97 436.75 935.51 449.39 926.29 458.23 C 915.87 468.96 900.75 473.98 886.02 474.28 C 863.67 474.29 841.32 474.25 818.97 474.30 C 823.58 445.24 828.88 416.29 833.67 387.25 Z" />
<path fill="#2f308e" opacity="1.00" d=" M 803.92 570.30 C 830.61 570.29 857.30 570.31 883.99 570.29 C 899.36 569.86 915.76 573.98 927.03 584.97 C 934.70 592.14 939.41 602.43 939.64 612.95 C 939.95 624.91 934.66 636.77 926.03 644.97 C 915.79 655.33 901.43 660.57 887.23 662.47 C 883.50 662.81 879.73 663.60 876.00 663.05 C 871.16 661.28 866.00 662.07 860.99 662.00 C 838.97 662.03 816.94 661.93 794.91 662.06 C 792.83 662.30 791.11 661.19 789.54 660.01 C 794.53 630.14 799.13 600.20 803.92 570.30 Z" />
</g>
<g id="#ffffffff">
<path fill="#ffffff" opacity="1.00" d=" M 460.19 282.15 C 507.90 269.12 558.61 267.78 607.07 277.39 C 624.86 280.81 642.35 285.67 659.45 291.63 C 654.64 323.61 649.77 355.59 644.26 387.46 C 612.89 373.00 577.67 369.29 543.48 370.53 C 499.20 372.72 454.82 384.45 416.97 407.94 C 398.77 419.24 382.68 433.76 368.83 450.06 C 348.10 474.41 333.68 504.82 331.59 536.99 C 331.46 543.46 331.38 549.94 331.68 556.40 C 333.17 575.54 338.47 594.49 347.72 611.36 C 357.68 629.71 373.91 644.35 392.75 653.23 C 422.60 666.96 457.61 668.72 488.85 658.72 C 490.79 657.73 494.19 657.67 494.48 654.96 C 497.08 639.99 499.92 625.06 502.55 610.10 C 477.83 610.30 453.11 609.98 428.39 610.26 C 428.07 607.82 428.62 605.40 429.06 603.01 C 433.33 575.83 437.37 548.61 441.84 521.46 C 498.56 521.53 555.28 521.46 612.00 521.49 C 614.85 521.49 617.71 521.57 620.56 521.35 C 610.66 586.29 600.15 651.14 590.22 716.08 C 576.37 724.21 562.57 732.58 547.62 738.57 C 503.22 757.36 453.31 763.31 405.88 754.26 C 366.33 746.95 328.49 729.37 298.26 702.71 C 268.32 676.56 246.42 640.71 239.27 601.41 C 236.61 585.40 235.44 569.14 235.48 552.92 C 234.85 506.13 245.08 458.58 268.86 417.97 C 288.31 384.30 316.41 356.21 348.38 334.34 C 382.60 311.24 420.26 292.92 460.19 282.15 Z" />
<path fill="#ffffff" opacity="1.00" d=" M 750.27 288.10 C 769.86 287.99 789.48 288.60 809.04 287.65 C 836.03 287.70 863.01 287.65 890.00 287.67 C 895.67 287.71 901.36 287.44 907.02 288.08 C 915.32 288.30 923.63 287.98 931.94 288.21 C 950.80 289.26 968.77 296.48 984.79 306.17 C 1007.15 319.90 1026.27 339.63 1037.19 363.66 C 1042.05 374.13 1044.84 385.45 1046.26 396.88 C 1046.75 402.41 1046.66 407.96 1046.57 413.51 C 1044.88 436.02 1036.70 457.68 1024.64 476.64 C 1016.00 490.43 1005.65 503.10 994.35 514.79 C 1012.91 531.38 1028.62 552.01 1036.45 575.86 C 1043.27 596.53 1043.46 619.17 1037.37 640.04 C 1031.55 660.62 1020.28 679.35 1006.34 695.45 C 992.06 711.74 974.94 725.58 955.93 735.99 C 937.23 746.12 916.48 753.36 895.06 753.92 C 822.01 753.91 748.95 753.91 675.90 753.92 C 696.69 624.99 717.11 495.99 737.83 367.05 C 741.87 340.72 746.42 314.46 750.27 288.10 M 833.67 387.25 C 828.88 416.29 823.58 445.24 818.97 474.30 C 841.32 474.25 863.67 474.29 886.02 474.28 C 900.75 473.98 915.87 468.96 926.29 458.23 C 935.51 449.39 940.97 436.75 940.95 423.97 C 940.61 414.40 936.81 404.78 929.56 398.36 C 921.07 390.59 909.29 387.71 898.06 387.34 C 876.60 387.24 855.13 387.41 833.67 387.25 M 803.92 570.30 C 799.13 600.20 794.53 630.14 789.54 660.01 C 789.46 660.88 789.32 662.61 789.24 663.48 C 808.83 663.34 828.43 663.46 848.02 663.42 C 857.34 663.20 866.71 663.89 876.00 663.05 C 879.73 663.60 883.50 662.81 887.23 662.47 C 901.43 660.57 915.79 655.33 926.03 644.97 C 934.66 636.77 939.95 624.91 939.64 612.95 C 939.41 602.43 934.70 592.14 927.03 584.97 C 915.76 573.98 899.36 569.86 883.99 570.29 C 857.30 570.31 830.61 570.29 803.92 570.30 Z" />
</g>
<g id="#151780ff">
<path fill="#151780" opacity="1.00" d=" M 1046.26 396.88 L 1047.45 395.94 C 1048.28 402.33 1048.35 408.83 1047.74 415.24 C 1047.45 414.81 1046.86 413.94 1046.57 413.51 C 1046.66 407.96 1046.75 402.41 1046.26 396.88 Z" />
</g>
<g id="#11137eff">
<path fill="#11137e" opacity="1.00" d=" M 441.84 520.12 C 494.24 519.84 546.65 520.08 599.05 519.99 C 606.46 520.14 613.88 519.64 621.27 520.33 L 620.56 521.35 C 617.71 521.57 614.85 521.49 612.00 521.49 C 555.28 521.46 498.56 521.53 441.84 521.46 L 441.84 520.12 Z" />
<path fill="#11137e" opacity="1.00" d=" M 331.59 536.99 L 332.91 536.89 C 332.91 542.89 333.33 548.92 332.82 554.91 C 332.53 555.28 331.97 556.03 331.68 556.40 C 331.38 549.94 331.46 543.46 331.59 536.99 Z" />
</g>
<g id="#10127dff">
<path fill="#10127d" opacity="1.00" d=" M 789.54 660.01 C 791.11 661.19 792.83 662.30 794.91 662.06 C 816.94 661.93 838.97 662.03 860.99 662.00 C 866.00 662.07 871.16 661.28 876.00 663.05 C 866.71 663.89 857.34 663.20 848.02 663.42 C 828.43 663.46 808.83 663.34 789.24 663.48 C 789.32 662.61 789.46 660.88 789.54 660.01 Z" />
</g>
<g id="#af003cff">
<path fill="#af003c" opacity="1.00" d=" M 304.61 860.65 C 319.49 851.26 337.72 847.77 355.10 849.77 C 364.09 850.92 372.95 853.17 381.38 856.50 C 390.16 860.04 397.50 866.79 401.87 875.17 C 406.56 885.13 406.36 896.98 402.19 907.08 C 398.61 914.17 392.06 919.92 384.17 921.57 C 376.48 923.54 368.02 922.01 361.55 917.42 C 355.72 913.76 352.74 907.07 351.46 900.55 C 344.76 897.57 337.32 899.93 331.29 903.33 C 320.76 908.95 311.47 916.68 303.83 925.83 C 293.33 937.06 285.97 950.77 279.55 964.62 C 274.86 976.78 271.23 989.88 272.80 1003.02 C 274.12 1012.04 277.54 1021.21 284.59 1027.32 C 291.76 1034.50 302.16 1036.45 311.86 1037.39 C 330.89 1038.99 350.02 1037.71 368.98 1035.87 C 375.16 1035.58 381.44 1036.07 387.42 1037.77 C 396.16 1040.54 402.40 1048.98 403.99 1057.82 C 405.42 1069.31 397.13 1079.19 387.97 1084.92 C 382.54 1088.12 376.09 1087.49 370.06 1087.70 C 354.72 1088.58 339.36 1088.71 324.01 1089.17 C 311.28 1088.97 298.50 1087.87 286.10 1084.89 C 270.39 1081.38 255.46 1073.32 244.88 1061.05 C 235.63 1051.64 229.91 1039.40 225.92 1026.98 C 223.41 1019.22 222.88 1011.04 222.79 1002.94 C 220.40 977.74 227.94 952.35 241.19 931.02 C 248.72 920.28 255.12 908.70 263.76 898.75 C 275.17 883.96 288.51 870.32 304.61 860.65 Z" />
</g>
<g id="#7cb000ff">
<path fill="#7cb000" opacity="1.00" d=" M 572.29 857.19 C 578.91 853.53 587.32 853.30 593.93 857.11 C 604.75 862.34 611.77 872.96 615.58 884.04 C 621.36 897.57 621.72 912.54 622.54 927.01 C 623.57 944.32 622.91 961.67 623.10 978.99 C 624.24 993.64 624.06 1008.47 626.90 1022.94 C 636.79 1020.77 646.22 1017.03 655.78 1013.75 C 665.53 1011.56 675.78 1009.60 685.74 1011.62 C 692.81 1013.51 700.07 1016.39 704.89 1022.15 C 712.91 1031.66 713.81 1046.16 708.26 1057.08 C 704.68 1062.72 698.06 1064.77 691.96 1066.37 C 678.13 1070.56 663.09 1069.00 649.60 1074.51 C 638.67 1078.48 628.53 1084.74 616.99 1086.89 C 608.56 1088.43 599.01 1089.31 591.37 1084.66 C 584.04 1080.17 581.85 1071.21 581.26 1063.20 C 579.58 1044.04 575.93 1025.09 575.13 1005.85 C 573.83 987.32 572.78 968.77 571.66 950.23 C 571.56 939.76 571.28 929.09 567.91 919.07 C 564.94 910.67 562.16 902.21 559.11 893.85 C 556.58 888.33 556.37 881.92 557.76 876.07 C 560.33 868.48 564.70 860.67 572.29 857.19 Z" />
</g>
<g id="#009a8dff">
<path fill="#009a8d" opacity="1.00" d=" M 923.02 858.96 C 945.66 856.12 969.34 858.19 990.26 867.77 C 999.17 871.37 1007.23 876.65 1015.34 881.73 C 1019.60 884.65 1024.12 887.38 1027.40 891.47 C 1031.35 896.50 1034.70 902.37 1035.19 908.89 C 1036.60 922.47 1031.41 935.83 1024.10 947.04 C 1011.99 965.25 992.55 976.48 973.94 986.99 C 997.00 1006.00 1020.26 1024.77 1043.49 1043.57 C 1047.99 1046.99 1051.34 1052.16 1051.86 1057.86 C 1052.78 1066.24 1049.14 1074.54 1043.63 1080.70 C 1039.09 1085.56 1033.61 1090.07 1026.89 1091.28 C 1023.32 1091.75 1019.67 1091.99 1016.11 1091.47 C 1012.68 1090.95 1009.94 1088.72 1007.25 1086.75 C 997.91 1079.78 988.82 1072.50 980.05 1064.84 C 963.51 1051.11 947.13 1037.19 930.22 1023.92 C 930.11 1038.24 931.10 1052.72 928.64 1066.91 C 927.39 1074.13 923.43 1081.29 916.73 1084.73 C 910.77 1087.58 903.75 1088.57 897.41 1086.44 C 887.31 1084.23 878.31 1076.95 874.99 1067.02 C 872.27 1061.01 872.64 1054.29 873.06 1047.88 C 873.65 1042.09 876.29 1036.83 878.17 1031.42 C 880.25 1020.74 879.22 1009.81 879.35 999.02 C 879.24 982.89 878.04 966.79 875.72 950.84 C 875.00 947.23 874.57 943.55 873.38 940.07 L 873.25 939.58 C 872.12 934.40 871.12 929.19 869.55 924.13 C 865.81 913.41 865.13 900.86 870.55 890.58 C 872.22 887.10 875.17 884.53 877.72 881.72 C 889.50 869.05 906.09 861.58 923.02 858.96 M 927.62 913.41 C 928.31 925.07 929.44 936.70 930.11 948.37 C 942.01 946.29 953.75 942.86 964.70 937.74 C 970.43 934.83 976.70 931.90 980.22 926.25 C 981.05 924.85 982.12 922.88 980.76 921.46 C 978.46 918.68 974.88 917.52 971.53 916.59 C 957.27 912.57 942.27 913.47 927.62 913.41 Z" />
</g>
<g id="#4c4fb6ff">
<path fill="#4c4fb6" opacity="1.00" d=" M 447.64 898.59 C 463.82 890.03 482.81 886.53 500.91 889.72 C 513.37 892.13 525.39 896.94 535.98 903.96 C 546.03 909.96 554.05 918.68 561.19 927.82 C 565.17 933.17 568.30 939.07 571.00 945.15 C 571.14 946.84 571.23 948.56 571.66 950.23 C 572.78 968.77 573.83 987.32 575.13 1005.85 C 570.17 1027.81 555.62 1046.69 537.58 1059.70 C 521.34 1071.48 501.83 1078.01 482.04 1080.47 C 454.49 1083.31 425.22 1076.11 403.99 1057.82 C 402.40 1048.98 396.16 1040.54 387.42 1037.77 C 379.40 1024.40 377.14 1008.17 379.50 992.89 C 383.68 971.99 390.92 951.14 404.26 934.25 C 415.66 919.20 430.50 906.62 447.64 898.59 M 484.58 939.90 C 473.28 941.64 462.67 946.75 453.69 953.73 C 446.84 959.40 441.77 966.95 438.07 974.97 C 434.30 984.83 433.54 996.31 437.83 1006.14 C 441.80 1014.59 447.90 1022.33 456.27 1026.76 C 468.52 1032.97 483.49 1034.45 496.36 1029.22 C 507.13 1025.36 515.33 1016.58 521.15 1007.01 C 527.15 993.36 524.23 977.80 519.85 964.13 C 516.27 955.52 511.77 946.45 503.39 941.60 C 497.80 938.02 490.79 939.10 484.58 939.90 Z" />
</g>
<g id="#d9aa00ff">
<path fill="#d9aa00" opacity="1.00" d=" M 699.59 940.56 C 716.78 912.32 749.18 894.58 782.06 893.69 C 817.61 891.36 854.70 908.68 873.25 939.58 L 873.38 940.07 C 874.86 953.34 876.17 966.64 877.03 979.97 C 878.03 989.29 878.74 998.65 879.13 1008.01 C 877.28 1014.49 872.91 1019.83 869.48 1025.53 C 857.84 1043.50 840.24 1056.84 821.23 1066.23 C 804.28 1074.26 785.74 1079.08 766.99 1079.87 C 749.11 1080.65 730.58 1075.67 716.57 1064.28 C 713.59 1062.13 710.89 1059.63 708.26 1057.08 C 713.81 1046.16 712.91 1031.66 704.89 1022.15 C 700.07 1016.39 692.81 1013.51 685.74 1011.62 L 685.30 1011.50 C 680.31 987.20 686.23 961.26 699.59 940.56 M 773.50 944.68 C 760.95 947.22 749.11 954.21 741.75 964.82 C 737.61 971.07 734.31 978.37 734.62 986.03 C 734.68 992.23 736.92 998.12 739.06 1003.86 C 743.69 1015.38 754.87 1022.99 766.53 1026.19 C 782.45 1030.38 799.64 1025.27 812.66 1015.73 C 827.18 1005.75 834.74 986.86 831.63 969.60 C 828.50 959.77 820.51 951.91 811.16 947.81 C 803.97 944.19 795.74 944.63 787.96 943.91 C 783.12 943.45 778.25 943.78 773.50 944.68 Z" />
</g>
</svg>
