<?xml version="1.0" encoding="UTF-8" ?>
<!DOCTYPE svg PUBLIC "-//W3C//DTD SVG 1.1//EN" "http://www.w3.org/Graphics/SVG/1.1/DTD/svg11.dtd">
<svg width="1276pt" height="1276pt" viewBox="0 0 1276 1276" version="1.1" xmlns="http://www.w3.org/2000/svg">
<g id="#8d9dd1ff">
<path fill="#8d9dd1" opacity="1.00" d=" M 582.72 176.52 C 600.78 166.00 618.96 155.68 637.00 145.12 C 655.07 155.67 673.26 166.03 691.35 176.55 C 687.59 176.91 683.82 177.19 680.05 177.15 C 652.69 177.01 625.32 177.16 597.95 177.11 C 592.86 177.23 587.77 177.21 582.72 176.52 Z" />
</g>
<g id="#96a5d5ff">
<path fill="#96a5d5" opacity="1.00" d=" M 522.31 211.39 C 542.44 199.74 562.58 188.13 582.72 176.52 C 587.77 177.21 592.86 177.23 597.95 177.11 C 625.32 177.16 652.69 177.01 680.05 177.15 C 683.82 177.19 687.59 176.91 691.35 176.55 C 711.33 188.12 731.40 199.55 751.31 211.23 C 749.19 211.56 747.10 212.00 744.97 212.09 C 675.97 212.04 606.97 212.07 537.97 212.07 C 533.01 212.15 528.04 212.23 523.14 211.49 L 522.31 211.39 Z" />
</g>
<g id="#9facd9ff">
<path fill="#9facd9" opacity="1.00" d=" M 465.37 244.28 C 484.26 233.23 503.33 222.47 522.19 211.38 L 523.14 211.49 C 528.04 212.23 533.01 212.15 537.97 212.07 C 606.97 212.07 675.97 212.04 744.97 212.09 C 747.10 212.00 749.19 211.56 751.31 211.23 C 770.67 222.23 789.92 233.48 809.23 244.59 C 803.83 245.24 798.39 245.20 792.97 245.12 C 687.96 245.11 582.95 245.10 477.94 245.13 C 473.73 245.29 469.50 245.13 465.37 244.28 Z" />
</g>
<g id="#aab5dcff">
<path fill="#aab5dc" opacity="1.00" d=" M 385.57 290.37 C 412.12 274.92 438.76 259.62 465.37 244.28 C 469.50 245.13 473.73 245.29 477.94 245.13 C 582.95 245.10 687.96 245.11 792.97 245.12 C 798.39 245.20 803.83 245.24 809.23 244.59 C 835.63 259.85 862.06 275.07 888.46 290.34 C 886.28 290.67 884.10 290.99 881.92 291.10 C 809.95 291.05 737.97 291.14 666.00 291.08 C 661.32 291.00 656.62 291.45 651.97 290.89 C 646.70 290.03 642.83 285.92 637.95 284.11 C 632.73 283.86 629.08 288.26 625.24 291.12 C 547.18 290.74 469.09 291.12 391.03 290.95 C 389.19 290.83 387.38 290.56 385.57 290.37 Z" />
</g>
<g id="#b3bde0ff">
<path fill="#b3bde0" opacity="1.00" d=" M 625.24 291.12 C 629.08 288.26 632.73 283.86 637.95 284.11 C 642.83 285.92 646.70 290.03 651.97 290.89 C 656.62 291.45 661.32 291.00 666.00 291.08 C 737.97 291.14 809.95 291.05 881.92 291.10 C 884.10 290.99 886.28 290.67 888.46 290.34 C 909.32 302.36 930.15 314.44 951.03 326.43 C 945.69 328.32 941.08 331.69 935.98 334.07 C 926.12 339.06 916.63 344.75 906.94 350.06 C 898.06 353.69 890.55 359.78 882.01 364.06 C 874.63 368.44 866.97 372.28 859.55 376.57 C 849.70 381.97 840.24 388.08 830.20 393.14 C 829.09 393.74 827.79 394.07 826.70 393.27 C 820.45 389.86 813.98 386.87 807.91 383.15 C 797.03 376.57 785.76 370.67 774.74 364.34 C 765.46 359.80 757.28 353.29 747.67 349.38 C 735.30 341.86 722.35 335.36 709.72 328.28 C 703.68 324.49 697.09 321.72 690.97 318.08 C 672.86 307.59 654.06 298.34 636.18 287.45 C 617.44 297.58 599.04 308.32 580.27 318.41 L 579.95 316.90 C 595.00 308.22 610.28 299.94 625.24 291.12 Z" />
</g>
<g id="#c6d0e8ff">
<path fill="#c6d0e8" opacity="1.00" d=" M 636.18 287.45 C 654.06 298.34 672.86 307.59 690.97 318.08 C 697.09 321.72 703.68 324.49 709.72 328.28 C 722.35 335.36 735.30 341.86 747.67 349.38 C 757.28 353.29 765.46 359.80 774.74 364.34 C 785.76 370.67 797.03 376.57 807.91 383.15 C 813.98 386.87 820.45 389.86 826.70 393.27 C 827.79 394.07 829.09 393.74 830.20 393.14 C 840.24 388.08 849.70 381.97 859.55 376.57 C 866.97 372.28 874.63 368.44 882.01 364.06 C 890.55 359.78 898.06 353.69 906.94 350.06 C 916.63 344.75 926.12 339.06 935.98 334.07 C 941.08 331.69 945.69 328.32 951.03 326.43 C 952.85 327.50 954.70 328.55 956.52 329.64 C 948.14 334.48 939.80 339.39 931.37 344.14 C 926.82 344.38 923.25 347.38 919.43 349.49 C 904.18 358.22 889.02 367.10 873.73 375.78 C 872.67 376.49 870.87 377.15 871.29 378.82 C 865.35 382.34 859.38 385.80 853.35 389.17 C 848.57 389.49 844.86 392.78 840.80 394.94 C 837.16 396.94 833.70 399.41 829.72 400.66 C 826.87 400.96 824.13 399.73 821.31 399.57 C 807.68 391.91 794.21 383.98 780.63 376.24 C 771.99 371.16 763.29 366.21 754.59 361.23 C 746.65 356.52 738.59 352.00 730.61 347.37 C 725.91 344.60 721.16 341.91 716.44 339.19 C 700.21 329.72 683.87 320.42 667.58 311.04 C 657.86 305.12 647.75 299.84 638.10 293.81 C 637.73 293.39 636.99 292.55 636.62 292.13 C 611.50 306.02 586.84 320.78 561.83 334.87 C 551.23 340.08 540.79 345.73 531.39 352.93 L 532.82 353.51 C 530.52 354.94 528.19 356.32 525.79 357.57 C 524.21 356.76 522.70 357.57 521.35 358.36 C 503.41 368.77 485.43 379.10 467.46 389.46 C 462.83 392.30 457.87 394.60 453.50 397.84 L 454.85 398.49 C 452.54 399.90 450.25 401.34 447.82 402.54 C 444.93 401.63 442.61 403.91 440.23 405.14 C 408.50 423.47 376.76 441.79 344.96 460.01 C 343.78 460.53 342.93 461.34 343.52 462.74 C 342.07 463.65 340.60 464.51 339.13 465.38 L 337.60 466.32 C 331.66 462.68 325.68 459.11 319.61 455.70 C 319.83 455.12 320.27 453.96 320.49 453.39 C 327.01 452.86 333.56 453.53 340.09 453.19 C 345.35 452.96 349.62 449.50 354.12 447.17 C 363.87 442.03 372.98 435.76 382.86 430.83 C 393.63 424.57 404.56 418.58 415.24 412.18 C 424.09 407.02 432.75 401.54 441.93 396.97 C 453.75 389.14 466.80 383.41 478.66 375.62 C 492.15 368.25 505.36 360.39 518.74 352.81 C 533.98 343.95 549.49 335.57 564.87 326.94 C 569.84 323.80 575.12 321.22 580.27 318.41 C 599.04 308.32 617.44 297.58 636.18 287.45 Z" />
</g>
<g id="#afb9dfff">
<path fill="#afb9df" opacity="1.00" d=" M 333.61 320.35 C 350.90 310.31 368.21 300.29 385.57 290.37 C 387.38 290.56 389.19 290.83 391.03 290.95 C 469.09 291.12 547.18 290.74 625.24 291.12 C 610.28 299.94 595.00 308.22 579.95 316.90 C 576.54 318.31 573.36 320.40 569.74 321.21 C 496.50 320.95 423.24 321.15 349.99 321.11 C 344.52 321.16 339.02 321.31 333.61 320.35 Z" />
</g>
<g id="#edf3fdff">
<path fill="#edf3fd" opacity="1.00" d=" M 561.83 334.87 C 586.84 320.78 611.50 306.02 636.62 292.13 C 636.99 292.55 637.73 293.39 638.10 293.81 L 637.16 293.27 C 602.39 313.37 567.57 333.38 532.82 353.51 L 531.39 352.93 C 540.79 345.73 551.23 340.08 561.83 334.87 Z" />
<path fill="#edf3fd" opacity="1.00" d=" M 919.43 349.49 C 923.25 347.38 926.82 344.38 931.37 344.14 C 930.85 344.43 929.81 345.03 929.29 345.32 C 918.29 351.59 907.33 357.94 896.40 364.33 C 888.25 368.91 880.18 373.64 872.11 378.34 L 871.29 378.82 C 870.87 377.15 872.67 376.49 873.73 375.78 C 889.02 367.10 904.18 358.22 919.43 349.49 Z" />
<path fill="#edf3fd" opacity="1.00" d=" M 657.70 951.56 C 665.35 947.18 672.95 942.72 680.61 938.35 L 680.67 939.17 C 681.43 945.02 680.45 950.92 681.11 956.79 C 684.27 955.63 687.17 952.74 690.75 953.63 C 681.37 959.06 671.99 964.49 662.61 969.93 C 661.15 969.74 659.69 969.55 658.25 969.35 C 657.95 963.42 658.28 957.47 657.70 951.56 Z" />
</g>
<g id="#202d76ff">
<path fill="#202d76" opacity="1.00" d=" M 532.82 353.51 C 567.57 333.38 602.39 313.37 637.16 293.27 C 636.63 300.30 636.85 307.37 636.96 314.42 C 543.36 368.76 449.44 422.60 355.83 476.93 C 353.83 480.83 355.32 485.46 354.76 489.68 C 349.92 490.06 345.05 490.08 340.21 489.71 C 340.29 481.58 339.49 473.50 339.13 465.38 C 340.60 464.51 342.07 463.65 343.52 462.74 C 378.24 442.60 413.03 422.56 447.82 402.54 C 450.25 401.34 452.54 399.90 454.85 398.49 C 478.46 384.79 502.11 371.14 525.79 357.57 C 528.19 356.32 530.52 354.94 532.82 353.51 Z" />
</g>
<g id="#6b79b7ff">
<path fill="#6b79b7" opacity="1.00" d=" M 637.16 293.27 L 638.10 293.81 C 647.75 299.84 657.86 305.12 667.58 311.04 C 667.84 313.49 670.43 314.42 671.71 316.25 C 672.78 322.25 672.17 328.42 671.58 334.45 C 660.06 327.74 648.45 321.18 636.96 314.42 C 636.85 307.37 636.63 300.30 637.16 293.27 Z" />
</g>
<g id="#5e6daaff">
<path fill="#5e6daa" opacity="1.00" d=" M 671.71 316.25 C 670.43 314.42 667.84 313.49 667.58 311.04 C 683.87 320.42 700.21 329.72 716.44 339.19 C 716.28 341.95 719.53 342.81 721.17 344.47 C 720.90 350.61 720.53 356.76 720.92 362.92 C 704.48 353.43 688.02 343.96 671.58 334.45 C 672.17 328.42 672.78 322.25 671.71 316.25 Z" />
</g>
<g id="#b8c1e1ff">
<path fill="#b8c1e1" opacity="1.00" d=" M 569.74 321.21 C 573.36 320.40 576.54 318.31 579.95 316.90 L 580.27 318.41 C 575.12 321.22 569.84 323.80 564.87 326.94 C 549.49 335.57 533.98 343.95 518.74 352.81 C 505.36 360.39 492.15 368.25 478.66 375.62 C 466.80 383.41 453.75 389.14 441.93 396.97 C 432.75 401.54 424.09 407.02 415.24 412.18 C 392.17 411.66 369.08 412.21 346.01 411.95 C 317.00 412.05 287.99 411.89 258.98 412.01 C 254.44 411.97 249.81 411.58 245.38 412.83 C 233.42 406.01 221.57 399.01 209.59 392.23 L 209.55 391.88 C 250.95 368.11 292.23 344.14 333.61 320.35 C 339.02 321.31 344.52 321.16 349.99 321.11 C 423.24 321.15 496.50 320.95 569.74 321.21 Z" />
</g>
<g id="#191f41ff">
<path fill="#191f41" opacity="1.00" d=" M 931.37 344.14 C 939.80 339.39 948.14 334.48 956.52 329.64 C 956.36 336.71 956.52 343.79 956.43 350.86 C 949.93 354.59 943.47 358.38 936.95 362.08 C 936.65 355.85 936.86 349.61 936.85 343.37 C 934.44 344.40 932.03 346.13 929.29 345.32 C 929.81 345.03 930.85 344.43 931.37 344.14 Z" />
</g>
<g id="#5466a0ff">
<path fill="#5466a0" opacity="1.00" d=" M 721.17 344.47 C 719.53 342.81 716.28 341.95 716.44 339.19 C 721.16 341.91 725.91 344.60 730.61 347.37 C 729.84 348.66 731.27 349.31 732.02 349.96 C 734.82 351.89 737.95 353.32 740.68 355.37 C 741.47 361.67 741.03 368.03 740.76 374.35 C 734.10 370.61 727.53 366.73 720.92 362.92 C 720.53 356.76 720.90 350.61 721.17 344.47 Z" />
</g>
<g id="#172052ff">
<path fill="#172052" opacity="1.00" d=" M 929.29 345.32 C 932.03 346.13 934.44 344.40 936.85 343.37 C 936.86 349.61 936.65 355.85 936.95 362.08 C 926.68 368.05 916.40 374.00 906.09 379.91 C 905.96 373.70 906.25 367.48 905.90 361.28 C 902.84 362.61 899.87 364.59 896.40 364.33 C 907.33 357.94 918.29 351.59 929.29 345.32 Z" />
</g>
<g id="#4d5f9aff">
<path fill="#4d5f9a" opacity="1.00" d=" M 732.02 349.96 C 731.27 349.31 729.84 348.66 730.61 347.37 C 738.59 352.00 746.65 356.52 754.59 361.23 C 754.69 361.72 754.89 362.70 754.99 363.19 C 758.27 365.95 762.90 366.90 765.76 370.17 C 766.58 376.38 765.71 382.67 765.95 388.92 C 757.56 384.04 749.11 379.29 740.76 374.35 C 741.03 368.03 741.47 361.67 740.68 355.37 C 737.95 353.32 734.82 351.89 732.02 349.96 Z" />
</g>
<g id="#f4f9ffff">
<path fill="#f4f9ff" opacity="1.00" d=" M 521.35 358.36 C 522.70 357.57 524.21 356.76 525.79 357.57 C 502.11 371.14 478.46 384.79 454.85 398.49 L 453.50 397.84 C 457.87 394.60 462.83 392.30 467.46 389.46 C 485.43 379.10 503.41 368.77 521.35 358.36 Z" />
<path fill="#f4f9ff" opacity="1.00" d=" M 840.80 394.94 C 844.86 392.78 848.57 389.49 853.35 389.17 C 848.93 391.61 844.57 394.18 840.20 396.70 C 836.16 399.01 832.16 401.37 828.14 403.70 C 825.95 402.17 823.65 400.82 821.31 399.57 C 824.13 399.73 826.87 400.96 829.72 400.66 C 833.70 399.41 837.16 396.94 840.80 394.94 Z" />
<path fill="#f4f9ff" opacity="1.00" d=" M 440.23 405.14 C 442.61 403.91 444.93 401.63 447.82 402.54 C 413.03 422.56 378.24 442.60 343.52 462.74 C 342.93 461.34 343.78 460.53 344.96 460.01 C 376.76 441.79 408.50 423.47 440.23 405.14 Z" />
<path fill="#f4f9ff" opacity="1.00" d=" M 337.55 811.99 C 342.97 808.90 348.34 805.69 353.81 802.68 C 354.27 804.27 354.78 806.00 356.54 806.61 C 364.79 810.75 372.14 816.41 380.36 820.62 C 390.23 826.84 400.66 832.12 410.40 838.53 C 419.20 844.20 428.65 848.78 437.21 854.81 C 450.67 862.53 463.66 871.02 476.97 878.97 C 481.29 881.67 485.26 884.89 489.80 887.23 C 494.08 889.43 497.29 893.18 501.51 895.49 C 504.64 897.25 507.75 899.05 510.70 901.12 C 509.96 901.60 509.23 902.09 508.51 902.60 C 513.69 905.48 518.64 908.76 523.86 911.58 C 521.23 911.76 518.60 912.01 515.99 912.35 C 517.84 914.12 521.96 914.71 521.46 917.92 C 481.85 895.11 442.33 872.16 402.69 849.41 C 383.54 838.45 364.42 827.43 345.37 816.29 C 342.89 814.64 340.25 813.24 337.55 811.99 Z" />
</g>
<g id="#142264ff">
<path fill="#142264" opacity="1.00" d=" M 896.40 364.33 C 899.87 364.59 902.84 362.61 905.90 361.28 C 906.25 367.48 905.96 373.70 906.09 379.91 C 896.72 385.34 887.35 390.78 877.94 396.15 C 877.76 389.98 877.91 383.82 877.85 377.66 C 875.97 378.17 874.05 378.57 872.11 378.34 C 880.18 373.64 888.25 368.91 896.40 364.33 Z" />
</g>
<g id="#465993ff">
<path fill="#465993" opacity="1.00" d=" M 754.99 363.19 C 754.89 362.70 754.69 361.72 754.59 361.23 C 763.29 366.21 771.99 371.16 780.63 376.24 C 780.63 376.68 780.65 377.57 780.66 378.01 C 782.82 379.72 785.52 380.63 787.63 382.44 C 788.83 388.67 788.07 395.14 787.58 401.43 C 780.39 397.22 773.13 393.13 765.95 388.92 C 765.71 382.67 766.58 376.38 765.76 370.17 C 762.90 366.90 758.27 365.95 754.99 363.19 Z" />
</g>
<g id="#3d528aff">
<path fill="#3d528a" opacity="1.00" d=" M 780.66 378.01 C 780.65 377.57 780.63 376.68 780.63 376.24 C 794.21 383.98 807.68 391.91 821.31 399.57 C 823.65 400.82 825.95 402.17 828.14 403.70 C 828.46 410.70 828.14 417.70 828.41 424.70 L 828.43 425.06 C 814.88 417.07 801.18 409.33 787.58 401.43 C 788.07 395.14 788.83 388.67 787.63 382.44 C 785.52 380.63 782.82 379.72 780.66 378.01 Z" />
</g>
<g id="#11237aff">
<path fill="#11237a" opacity="1.00" d=" M 872.11 378.34 C 874.05 378.57 875.97 378.17 877.85 377.66 C 877.91 383.82 877.76 389.98 877.94 396.15 C 865.76 403.23 853.54 410.24 841.35 417.31 C 840.84 410.45 842.08 403.42 840.20 396.70 C 844.57 394.18 848.93 391.61 853.35 389.17 C 859.38 385.80 865.35 382.34 871.29 378.82 L 872.11 378.34 Z" />
<path fill="#11237a" opacity="1.00" d=" M 937.35 626.40 C 937.80 628.57 938.32 630.75 938.30 632.99 C 938.20 643.00 938.27 653.01 937.80 663.02 C 937.37 712.51 938.02 762.02 937.68 811.51 L 936.58 811.65 C 936.53 794.99 936.50 778.33 936.50 761.67 C 936.59 752.59 936.48 743.51 936.48 734.44 C 936.64 725.47 936.50 716.49 936.47 707.52 C 936.62 702.51 936.50 697.49 936.48 692.48 C 936.63 687.15 936.50 681.82 936.50 676.49 C 936.60 674.07 936.57 671.64 936.56 669.23 C 936.98 658.15 936.83 647.07 936.70 636.00 C 936.65 632.79 936.55 629.53 937.35 626.40 Z" />
</g>
<g id="#bcc3e3ff">
<path fill="#bcc3e3" opacity="1.00" d=" M 930.45 448.40 C 968.95 425.95 1007.70 403.90 1046.19 381.44 C 1052.39 384.95 1058.56 388.53 1064.72 392.12 C 1031.44 411.50 998.04 430.66 964.69 449.92 C 953.39 447.79 941.77 450.27 930.45 448.40 Z" />
</g>
<g id="#4062beff">
<path fill="#4062be" opacity="1.00" d=" M 209.42 885.84 C 209.61 721.19 209.34 556.53 209.55 391.88 L 209.59 392.23 C 209.73 395.32 209.94 398.42 210.54 401.46 C 215.30 404.49 220.47 406.78 225.36 409.58 C 233.16 414.08 240.92 418.66 248.82 422.97 C 250.89 424.63 252.89 426.37 254.92 428.07 C 253.00 427.50 251.06 426.97 249.12 426.48 C 248.83 574.99 249.07 723.52 248.99 872.03 C 248.72 884.06 249.41 896.11 248.65 908.12 L 248.38 908.60 C 235.52 900.80 222.26 893.66 209.42 885.84 Z" />
</g>
<g id="#3755a5ff">
<path fill="#3755a5" opacity="1.00" d=" M 209.59 392.23 C 221.57 399.01 233.42 406.01 245.38 412.83 C 270.12 427.12 294.85 441.43 319.61 455.70 C 325.68 459.11 331.66 462.68 337.60 466.32 C 337.56 466.81 337.47 467.81 337.43 468.31 C 335.16 469.05 332.88 468.52 330.93 467.23 C 322.50 462.15 313.53 458.07 305.15 452.91 C 294.02 447.06 283.11 440.80 271.98 434.94 C 266.35 431.47 260.13 429.11 254.62 425.44 C 252.86 424.26 250.83 423.60 248.82 422.97 C 240.92 418.66 233.16 414.08 225.36 409.58 C 220.47 406.78 215.30 404.49 210.54 401.46 C 209.94 398.42 209.73 395.32 209.59 392.23 Z" />
</g>
<g id="#203b83ff">
<path fill="#203b83" opacity="1.00" d=" M 964.69 449.92 C 998.04 430.66 1031.44 411.50 1064.72 392.12 C 1064.67 395.28 1064.71 398.45 1064.69 401.63 C 1059.92 405.16 1055.66 409.30 1051.69 413.69 C 1047.61 418.26 1042.83 422.14 1038.64 426.61 C 1035.56 429.88 1032.52 433.19 1029.21 436.22 C 1023.81 441.15 1019.13 446.81 1013.67 451.69 C 1008.91 455.91 1004.94 460.93 1000.18 465.16 C 995.04 469.70 990.82 475.16 985.68 479.70 C 980.74 484.09 976.63 489.30 971.69 493.68 C 966.78 498.09 962.67 503.30 957.71 507.64 C 952.92 511.89 948.88 516.88 944.23 521.28 C 940.65 524.69 936.99 528.02 933.68 531.70 C 929.29 536.65 924.03 540.74 919.66 545.72 C 915.29 550.65 910.08 554.74 905.69 559.67 C 901.30 564.61 896.09 568.74 891.69 573.66 C 887.02 578.98 881.42 583.37 876.74 588.68 C 872.10 593.72 866.75 598.05 862.25 603.23 C 857.15 608.81 851.20 613.53 846.21 619.22 C 842.14 623.82 837.25 627.59 833.17 632.19 C 828.13 637.80 822.16 642.49 817.26 648.23 C 812.13 653.44 806.62 658.27 801.77 663.75 C 794.10 670.76 787.30 678.62 779.62 685.61 C 773.84 691.83 767.69 697.68 761.63 703.61 C 756.40 709.69 750.05 714.66 744.76 720.69 C 740.65 725.26 735.75 729.04 731.70 733.67 C 727.37 738.68 722.02 742.68 717.66 747.67 C 713.31 752.66 708.09 756.79 703.65 761.70 C 698.45 767.50 692.30 772.35 687.16 778.20 C 682.82 783.17 677.61 787.27 673.16 792.12 C 668.33 797.62 662.54 802.16 657.75 807.71 C 651.96 813.61 645.73 819.09 640.28 825.32 C 639.03 826.55 639.33 828.44 639.18 830.05 C 639.12 839.03 639.19 848.02 638.90 857.01 C 638.76 860.27 639.01 863.54 639.49 866.78 C 638.70 867.30 637.90 867.81 637.13 868.37 C 637.44 837.16 636.98 805.93 637.24 774.72 C 639.12 784.09 636.76 793.83 638.69 803.14 C 639.62 792.79 638.75 782.35 639.25 771.98 C 639.16 770.44 640.20 769.28 641.19 768.27 C 659.13 750.16 677.32 732.30 695.17 714.11 C 700.51 709.47 704.91 703.89 710.15 699.16 C 716.18 693.83 721.16 687.46 727.27 682.21 C 745.30 663.93 763.71 646.03 781.59 627.60 C 784.90 624.57 788.21 621.54 791.15 618.16 C 795.20 613.53 800.10 609.76 804.21 605.20 C 809.22 599.56 815.12 594.81 820.19 589.22 C 836.19 573.19 852.39 557.35 868.12 541.06 C 871.01 538.31 874.05 535.71 876.72 532.73 C 881.87 526.88 887.96 521.97 893.20 516.19 C 910.50 498.83 928.01 481.68 945.06 464.07 C 946.72 461.97 950.71 461.32 950.51 458.15 C 955.19 455.33 959.97 452.68 964.69 449.92 Z" />
</g>
<g id="#102489ff">
<path fill="#102489" opacity="1.00" d=" M 828.14 403.70 C 832.16 401.37 836.16 399.01 840.20 396.70 C 842.08 403.42 840.84 410.45 841.35 417.31 C 837.03 419.76 832.78 422.33 828.41 424.70 C 828.14 417.70 828.46 410.70 828.14 403.70 Z" />
</g>
<g id="#29428cff">
<path fill="#29428c" opacity="1.00" d=" M 1051.69 413.69 C 1055.66 409.30 1059.92 405.16 1064.69 401.63 C 1064.67 420.94 1064.72 440.25 1064.69 459.57 C 1058.06 464.56 1052.78 471.03 1046.78 476.71 C 980.58 542.88 914.40 609.08 848.21 675.27 C 847.26 676.26 846.87 677.60 846.35 678.84 C 843.05 681.15 839.30 682.85 835.91 685.07 C 835.30 686.10 835.75 687.43 835.62 688.59 C 828.22 694.47 822.09 701.74 815.25 708.24 C 772.39 751.03 729.64 793.93 686.74 836.68 C 685.54 837.81 684.91 839.36 684.31 840.86 C 669.48 849.65 654.47 858.21 639.49 866.78 C 639.01 863.54 638.76 860.27 638.90 857.01 C 639.19 848.02 639.12 839.03 639.18 830.05 C 639.33 828.44 639.03 826.55 640.28 825.32 C 645.73 819.09 651.96 813.61 657.75 807.71 C 662.54 802.16 668.33 797.62 673.16 792.12 C 677.61 787.27 682.82 783.17 687.16 778.20 C 692.30 772.35 698.45 767.50 703.65 761.70 C 708.09 756.79 713.31 752.66 717.66 747.67 C 722.02 742.68 727.37 738.68 731.70 733.67 C 735.75 729.04 740.65 725.26 744.76 720.69 C 750.05 714.66 756.40 709.69 761.63 703.61 C 767.69 697.68 773.84 691.83 779.62 685.61 C 787.30 678.62 794.10 670.76 801.77 663.75 C 806.62 658.27 812.13 653.44 817.26 648.23 C 822.16 642.49 828.13 637.80 833.17 632.19 C 837.25 627.59 842.14 623.82 846.21 619.22 C 851.20 613.53 857.15 608.81 862.25 603.23 C 866.75 598.05 872.10 593.72 876.74 588.68 C 881.42 583.37 887.02 578.98 891.69 573.66 C 896.09 568.74 901.30 564.61 905.69 559.67 C 910.08 554.74 915.29 550.65 919.66 545.72 C 924.03 540.74 929.29 536.65 933.68 531.70 C 936.99 528.02 940.65 524.69 944.23 521.28 C 948.88 516.88 952.92 511.89 957.71 507.64 C 962.67 503.30 966.78 498.09 971.69 493.68 C 976.63 489.30 980.74 484.09 985.68 479.70 C 990.82 475.16 995.04 469.70 1000.18 465.16 C 1004.94 460.93 1008.91 455.91 1013.67 451.69 C 1019.13 446.81 1023.81 441.15 1029.21 436.22 C 1032.52 433.19 1035.56 429.88 1038.64 426.61 C 1042.83 422.14 1047.61 418.26 1051.69 413.69 Z" />
<path fill="#29428c" opacity="1.00" d=" M 346.43 818.47 C 345.72 817.91 345.37 817.18 345.37 816.29 C 364.42 827.43 383.54 838.45 402.69 849.41 C 398.81 850.05 395.86 846.84 392.61 845.31 C 382.66 839.92 373.26 833.42 362.84 828.98 C 357.45 825.36 351.99 821.84 346.43 818.47 Z" />
</g>
<g id="#979fc7ff">
<path fill="#979fc7" opacity="1.00" d=" M 471.35 505.51 C 526.43 473.38 581.86 441.80 637.00 409.75 C 638.18 410.44 639.37 411.14 640.57 411.85 C 623.56 422.28 605.98 431.74 588.70 441.70 C 577.66 448.59 565.94 454.27 554.69 460.79 C 538.10 469.74 521.82 479.26 505.21 488.18 C 495.78 493.42 486.33 498.64 476.99 504.04 C 475.30 505.12 473.31 505.41 471.35 505.51 Z" />
</g>
<g id="#bcc3e4ff">
<path fill="#bcc3e4" opacity="1.00" d=" M 245.38 412.83 C 249.81 411.58 254.44 411.97 258.98 412.01 C 287.99 411.89 317.00 412.05 346.01 411.95 C 369.08 412.21 392.17 411.66 415.24 412.18 C 404.56 418.58 393.63 424.57 382.86 430.83 C 372.98 435.76 363.87 442.03 354.12 447.17 C 349.62 449.50 345.35 452.96 340.09 453.19 C 333.56 453.53 327.01 452.86 320.49 453.39 C 320.27 453.96 319.83 455.12 319.61 455.70 C 294.85 441.43 270.12 427.12 245.38 412.83 Z" />
</g>
<g id="#acb3d5ff">
<path fill="#acb3d5" opacity="1.00" d=" M 640.57 411.85 C 642.45 412.93 644.34 413.99 646.21 415.12 C 635.24 421.17 624.52 427.67 613.42 433.49 C 602.57 439.16 592.54 446.30 581.33 451.28 C 557.98 463.90 534.72 476.68 511.42 489.40 C 488.31 501.42 465.87 514.72 442.73 526.69 C 441.32 525.84 439.92 524.99 438.52 524.18 C 449.62 518.26 460.31 511.54 471.35 505.51 C 473.31 505.41 475.30 505.12 476.99 504.04 C 486.33 498.64 495.78 493.42 505.21 488.18 C 521.82 479.26 538.10 469.74 554.69 460.79 C 565.94 454.27 577.66 448.59 588.70 441.70 C 605.98 431.74 623.56 422.28 640.57 411.85 Z" />
</g>
<g id="#bdc4e4ff">
<path fill="#bdc4e4" opacity="1.00" d=" M 646.21 415.12 C 673.09 430.53 699.85 446.15 726.76 461.52 L 725.88 461.61 C 722.95 461.88 720.02 462.25 717.08 462.23 C 674.18 461.96 631.28 462.37 588.39 461.99 C 588.88 461.07 589.38 460.15 589.89 459.24 C 585.24 461.70 579.93 461.72 575.00 463.15 C 561.17 468.92 547.43 475.01 534.33 482.30 C 530.55 484.15 526.59 485.68 523.15 488.13 C 518.32 491.53 512.88 493.86 507.72 496.69 C 487.42 507.63 466.38 517.20 446.51 528.91 C 445.24 528.17 443.97 527.43 442.73 526.69 C 465.87 514.72 488.31 501.42 511.42 489.40 C 534.72 476.68 557.98 463.90 581.33 451.28 C 592.54 446.30 602.57 439.16 613.42 433.49 C 624.52 427.67 635.24 421.17 646.21 415.12 Z" />
</g>
<g id="#466ac1ff">
<path fill="#466ac1" opacity="1.00" d=" M 248.82 422.97 C 250.83 423.60 252.86 424.26 254.62 425.44 C 260.13 429.11 266.35 431.47 271.98 434.94 C 283.11 440.80 294.02 447.06 305.15 452.91 C 313.53 458.07 322.50 462.15 330.93 467.23 C 332.88 468.52 335.16 469.05 337.43 468.31 C 336.95 470.30 336.35 472.27 335.25 474.02 C 328.85 471.22 323.13 467.14 316.87 464.06 C 312.24 461.84 308.34 458.09 303.21 457.00 C 302.59 472.66 303.15 488.36 302.95 504.04 C 302.96 649.36 302.96 794.67 302.94 939.98 C 284.82 929.58 266.81 918.98 248.61 908.70 L 248.65 908.12 C 249.41 896.11 248.72 884.06 248.99 872.03 C 249.07 723.52 248.83 574.99 249.12 426.48 C 251.06 426.97 253.00 427.50 254.92 428.07 C 252.89 426.37 250.89 424.63 248.82 422.97 Z" />
</g>
<g id="#c3c9e7ff">
<path fill="#c3c9e7" opacity="1.00" d=" M 866.64 485.18 C 887.90 472.90 909.13 460.57 930.45 448.40 C 941.77 450.27 953.39 447.79 964.69 449.92 C 959.97 452.68 955.19 455.33 950.51 458.15 C 940.91 463.63 931.40 469.25 921.79 474.68 C 919.44 473.65 917.31 475.32 915.35 476.37 C 910.30 479.39 905.14 482.21 900.02 485.11 C 896.38 487.29 891.96 486.01 887.97 486.21 C 881.07 485.88 874.05 487.07 867.27 485.42 L 866.64 485.18 Z" />
</g>
<g id="#4e71c2ff">
<path fill="#4e71c2" opacity="1.00" d=" M 303.21 457.00 C 308.34 458.09 312.24 461.84 316.87 464.06 C 323.13 467.14 328.85 471.22 335.25 474.02 C 336.35 472.27 336.95 470.30 337.43 468.31 C 337.72 496.03 337.35 523.76 337.59 551.48 C 337.55 600.44 337.44 649.41 337.59 698.37 C 337.49 736.24 337.48 774.12 337.55 811.99 C 340.25 813.24 342.89 814.64 345.37 816.29 C 345.37 817.18 345.72 817.91 346.43 818.47 C 346.93 822.28 347.06 826.14 346.99 829.99 C 346.80 875.10 347.24 920.21 346.81 965.32 C 332.20 956.85 317.57 948.42 302.94 939.98 C 302.96 794.67 302.96 649.36 302.95 504.04 C 303.15 488.36 302.59 472.66 303.21 457.00 Z" />
</g>
<g id="#c8cfe9ff">
<path fill="#c8cfe9" opacity="1.00" d=" M 575.00 463.15 C 579.93 461.72 585.24 461.70 589.89 459.24 C 589.38 460.15 588.88 461.07 588.39 461.99 C 631.28 462.37 674.18 461.96 717.08 462.23 C 720.02 462.25 722.95 461.88 725.88 461.61 L 726.70 461.63 C 751.36 475.79 776.06 489.91 800.58 504.32 C 789.09 505.76 777.50 504.57 765.96 504.99 C 684.97 504.86 603.98 505.08 522.98 504.95 C 517.59 504.95 512.15 504.59 506.82 505.56 C 502.14 506.29 498.64 509.97 494.01 510.84 C 490.92 511.43 488.02 512.70 485.38 514.40 C 481.91 516.57 477.68 516.99 474.23 519.20 C 471.65 520.79 468.89 522.06 466.09 523.22 C 460.29 525.68 454.86 529.44 448.43 530.03 C 447.95 529.75 446.99 529.19 446.51 528.91 C 466.38 517.20 487.42 507.63 507.72 496.69 C 512.88 493.86 518.32 491.53 523.15 488.13 C 526.59 485.68 530.55 484.15 534.33 482.30 C 547.43 475.01 561.17 468.92 575.00 463.15 Z" />
</g>
<g id="#17357bff">
<path fill="#17357b" opacity="1.00" d=" M 921.79 474.68 C 931.40 469.25 940.91 463.63 950.51 458.15 C 950.71 461.32 946.72 461.97 945.06 464.07 C 928.01 481.68 910.50 498.83 893.20 516.19 C 887.96 521.97 881.87 526.88 876.72 532.73 C 874.05 535.71 871.01 538.31 868.12 541.06 C 852.39 557.35 836.19 573.19 820.19 589.22 C 815.12 594.81 809.22 599.56 804.21 605.20 C 800.10 609.76 795.20 613.53 791.15 618.16 C 788.21 621.54 784.90 624.57 781.59 627.60 C 763.71 646.03 745.30 663.93 727.27 682.21 C 721.16 687.46 716.18 693.83 710.15 699.16 C 704.91 703.89 700.51 709.47 695.17 714.11 C 677.32 732.30 659.13 750.16 641.19 768.27 C 640.20 769.28 639.16 770.44 639.25 771.98 C 638.75 782.35 639.62 792.79 638.69 803.14 C 636.76 793.83 639.12 784.09 637.24 774.72 C 637.10 731.80 637.21 688.88 637.12 645.97 C 637.10 644.30 637.10 642.65 637.08 641.00 C 637.06 640.53 637.02 639.60 637.00 639.13 C 666.16 622.29 695.30 605.43 724.47 588.61 C 742.28 578.34 760.10 568.06 777.89 557.75 C 790.58 550.51 803.20 543.15 815.85 535.84 C 851.19 515.50 886.47 495.06 921.79 474.68 Z" />
</g>
<g id="#364d97ff">
<path fill="#364d97" opacity="1.00" d=" M 1046.78 476.71 C 1052.78 471.03 1058.06 464.56 1064.69 459.57 C 1064.67 475.91 1064.72 492.24 1064.69 508.58 C 1057.62 513.82 1052.21 520.87 1045.68 526.71 C 1012.28 560.30 978.71 593.75 945.20 627.22 C 943.10 629.42 942.68 632.57 941.86 635.37 C 941.76 631.60 941.62 627.84 941.52 624.08 C 940.16 624.78 937.99 624.88 937.35 626.40 C 936.55 629.53 936.65 632.79 936.70 636.00 C 936.83 647.07 936.98 658.15 936.56 669.23 C 936.32 663.65 936.31 658.08 936.06 652.51 C 936.33 644.08 936.69 635.61 936.01 627.19 C 930.08 630.69 924.17 634.21 918.16 637.56 C 894.17 651.22 870.39 665.27 846.35 678.84 C 846.87 677.60 847.26 676.26 848.21 675.27 C 914.40 609.08 980.58 542.88 1046.78 476.71 Z" />
<path fill="#364d97" opacity="1.00" d=" M 815.25 708.24 C 822.09 701.74 828.22 694.47 835.62 688.59 C 835.52 710.33 835.92 732.11 835.45 753.83 C 784.96 782.64 734.79 812.02 684.31 840.86 C 684.91 839.36 685.54 837.81 686.74 836.68 C 729.64 793.93 772.39 751.03 815.25 708.24 Z" />
</g>
<g id="#1d286aff">
<path fill="#1d286a" opacity="1.00" d=" M 337.60 466.32 L 339.13 465.38 C 339.49 473.50 340.29 481.58 340.21 489.71 C 345.05 490.08 349.92 490.06 354.76 489.68 C 355.32 485.46 353.83 480.83 355.83 476.93 C 355.92 528.42 355.92 579.92 355.81 631.41 C 353.59 621.16 355.64 610.57 354.69 600.19 C 349.87 599.70 345.01 600.36 340.19 599.75 C 339.72 595.18 340.25 590.57 339.75 586.00 C 338.54 576.02 339.30 565.94 339.11 555.92 C 339.16 554.29 338.21 552.90 337.59 551.48 C 337.35 523.76 337.72 496.03 337.43 468.31 C 337.47 467.81 337.56 466.81 337.60 466.32 Z" />
</g>
<g id="#d2d6edff">
<path fill="#d2d6ed" opacity="1.00" d=" M 915.35 476.37 C 917.31 475.32 919.44 473.65 921.79 474.68 C 886.47 495.06 851.19 515.50 815.85 535.84 C 813.41 534.54 811.26 536.64 808.96 537.20 C 790.02 536.68 771.01 537.06 752.05 536.93 C 695.37 536.93 638.69 536.94 582.01 536.91 C 543.11 537.06 504.16 536.70 465.29 537.10 C 462.95 536.49 460.73 535.08 458.23 535.66 C 454.93 533.84 451.71 531.89 448.43 530.03 C 454.86 529.44 460.29 525.68 466.09 523.22 C 468.89 522.06 471.65 520.79 474.23 519.20 C 477.68 516.99 481.91 516.57 485.38 514.40 C 488.02 512.70 490.92 511.43 494.01 510.84 C 498.64 509.97 502.14 506.29 506.82 505.56 C 512.15 504.59 517.59 504.95 522.98 504.95 C 603.98 505.08 684.97 504.86 765.96 504.99 C 777.50 504.57 789.09 505.76 800.58 504.32 C 806.11 507.36 811.66 510.49 817.06 513.81 C 833.47 504.24 850.01 494.88 866.39 485.25 L 867.27 485.42 C 874.05 487.07 881.07 485.88 887.97 486.21 C 891.96 486.01 896.38 487.29 900.02 485.11 C 905.14 482.21 910.30 479.39 915.35 476.37 Z" />
</g>
<g id="#4255a2ff">
<path fill="#4255a2" opacity="1.00" d=" M 1045.68 526.71 C 1052.21 520.87 1057.62 513.82 1064.69 508.58 C 1064.68 521.57 1064.72 534.56 1064.69 547.55 C 1056.43 553.60 1050.27 561.89 1042.58 568.58 C 1029.74 582.08 1016.18 594.89 1003.20 608.27 C 995.87 614.91 989.44 622.44 982.07 629.05 C 975.61 636.27 968.19 642.52 961.72 649.74 C 955.70 655.38 949.96 661.31 944.26 667.27 C 942.68 668.75 942.09 670.87 942.15 672.99 C 942.08 701.37 941.83 729.75 941.92 758.13 C 941.92 772.74 941.77 787.35 941.90 801.97 C 941.83 805.13 942.42 808.72 940.19 811.35 C 939.23 800.94 939.96 790.46 939.76 780.03 C 939.59 751.33 940.48 722.66 940.15 693.96 C 940.40 674.43 940.31 654.86 941.86 635.37 C 942.68 632.57 943.10 629.42 945.20 627.22 C 978.71 593.75 1012.28 560.30 1045.68 526.71 Z" />
</g>
<g id="#4b6baaff">
<path fill="#4b6baa" opacity="1.00" d=" M 438.52 524.18 C 439.92 524.99 441.32 525.84 442.73 526.69 C 443.97 527.43 445.24 528.17 446.51 528.91 C 446.99 529.19 447.95 529.75 448.43 530.03 C 451.71 531.89 454.93 533.84 458.23 535.66 C 469.24 542.03 480.22 548.45 491.27 554.74 C 512.58 567.05 533.82 579.46 555.19 591.66 C 582.41 607.57 609.84 623.13 637.00 639.13 C 637.02 639.60 637.06 640.53 637.08 641.00 C 632.28 638.35 627.21 636.27 622.29 633.87 C 591.22 616.59 560.30 599.02 529.10 581.96 C 512.36 572.30 495.20 563.37 478.50 553.63 C 465.01 546.55 451.95 538.70 438.37 531.78 C 438.33 529.24 438.28 526.70 438.52 524.18 Z" />
</g>
<g id="#6287c9ff">
<path fill="#6287c9" opacity="1.00" d=" M 438.44 753.72 C 438.26 679.74 438.41 605.76 438.37 531.78 C 451.95 538.70 465.01 546.55 478.50 553.63 C 495.20 563.37 512.36 572.30 529.10 581.96 C 560.30 599.02 591.22 616.59 622.29 633.87 C 627.21 636.27 632.28 638.35 637.08 641.00 C 637.10 642.65 637.10 644.30 637.12 645.97 C 635.52 645.45 633.92 644.93 632.37 644.32 C 627.81 642.27 623.07 640.61 618.78 638.04 C 607.84 631.68 596.68 625.72 585.73 619.39 C 582.07 615.68 577.26 613.67 572.76 611.24 C 560.20 603.22 546.71 596.80 533.87 589.26 C 521.98 582.38 509.90 575.82 497.84 569.24 C 494.69 567.41 491.71 565.26 488.30 563.94 C 487.67 578.61 488.18 593.32 488.02 608.01 C 487.92 666.07 488.04 724.13 487.96 782.20 C 471.42 772.77 455.04 763.05 438.44 753.72 Z" />
</g>
<g id="#dadcefff">
<path fill="#dadcef" opacity="1.00" d=" M 458.23 535.66 C 460.73 535.08 462.95 536.49 465.29 537.10 C 504.16 536.70 543.11 537.06 582.01 536.91 C 638.69 536.94 695.37 536.93 752.05 536.93 C 771.01 537.06 790.02 536.68 808.96 537.20 C 811.26 536.64 813.41 534.54 815.85 535.84 C 803.20 543.15 790.58 550.51 777.89 557.75 C 775.96 557.46 774.06 557.78 772.17 558.05 C 684.46 557.95 596.71 558.07 509.00 558.01 C 506.76 558.07 504.54 558.28 502.32 558.25 C 498.26 558.26 495.49 553.17 491.27 554.74 C 480.22 548.45 469.24 542.03 458.23 535.66 Z" />
</g>
<g id="#4a5dabff">
<path fill="#4a5dab" opacity="1.00" d=" M 1042.58 568.58 C 1050.27 561.89 1056.43 553.60 1064.69 547.55 C 1064.68 576.91 1064.71 606.28 1064.68 635.65 C 1058.88 639.78 1054.39 645.36 1049.28 650.26 C 1020.76 678.73 992.26 707.23 963.77 735.74 C 956.57 743.29 948.64 750.14 941.92 758.13 C 941.83 729.75 942.08 701.37 942.15 672.99 C 942.09 670.87 942.68 668.75 944.26 667.27 C 949.96 661.31 955.70 655.38 961.72 649.74 C 968.19 642.52 975.61 636.27 982.07 629.05 C 989.44 622.44 995.87 614.91 1003.20 608.27 C 1016.18 594.89 1029.74 582.08 1042.58 568.58 Z" />
</g>
<g id="#1a235fff">
<path fill="#1a235f" opacity="1.00" d=" M 337.59 551.48 C 338.21 552.90 339.16 554.29 339.11 555.92 C 339.30 565.94 338.54 576.02 339.75 586.00 C 340.25 590.57 339.72 595.18 340.19 599.75 C 345.01 600.36 349.87 599.70 354.69 600.19 C 355.64 610.57 353.59 621.16 355.81 631.41 C 355.96 688.08 355.87 744.77 355.83 801.45 L 355.34 801.35 C 354.23 776.00 355.42 750.58 354.73 725.22 C 349.90 724.76 345.04 725.21 340.21 724.73 C 340.07 717.48 339.65 710.24 339.09 703.01 C 339.13 701.31 338.27 699.84 337.59 698.37 C 337.44 649.41 337.55 600.44 337.59 551.48 Z" />
</g>
<g id="#e1e3f3ff">
<path fill="#e1e3f3" opacity="1.00" d=" M 491.27 554.74 C 495.49 553.17 498.26 558.26 502.32 558.25 C 504.54 558.28 506.76 558.07 509.00 558.01 C 596.71 558.07 684.46 557.95 772.17 558.05 C 774.06 557.78 775.96 557.46 777.89 557.75 C 760.10 568.06 742.28 578.34 724.47 588.61 C 724.22 588.30 723.72 587.68 723.47 587.36 C 719.38 588.62 716.27 591.95 712.20 593.15 C 686.81 592.58 661.38 593.08 635.98 592.87 C 611.57 593.14 587.12 592.43 562.73 593.25 C 560.17 592.81 557.90 590.72 555.19 591.66 C 533.82 579.46 512.58 567.05 491.27 554.74 Z" />
</g>
<g id="#688eccff">
<path fill="#688ecc" opacity="1.00" d=" M 488.30 563.94 C 491.71 565.26 494.69 567.41 497.84 569.24 C 509.90 575.82 521.98 582.38 533.87 589.26 C 532.93 590.30 531.91 591.44 532.06 592.97 C 531.94 649.98 532.14 707.01 532.03 764.03 C 531.87 778.49 532.57 792.98 531.64 807.42 C 517.06 799.04 502.51 790.62 487.96 782.20 C 488.04 724.13 487.92 666.07 488.02 608.01 C 488.18 593.32 487.67 578.61 488.30 563.94 Z" />
</g>
<g id="#ececf7ff">
<path fill="#ececf7" opacity="1.00" d=" M 712.20 593.15 C 716.27 591.95 719.38 588.62 723.47 587.36 C 723.72 587.68 724.22 588.30 724.47 588.61 C 695.30 605.43 666.16 622.29 637.00 639.13 C 609.84 623.13 582.41 607.57 555.19 591.66 C 557.90 590.72 560.17 592.81 562.73 593.25 C 587.12 592.43 611.57 593.14 635.98 592.87 C 661.38 593.08 686.81 592.58 712.20 593.15 Z" />
</g>
<g id="#7096cfff">
<path fill="#7096cf" opacity="1.00" d=" M 532.06 592.97 C 531.91 591.44 532.93 590.30 533.87 589.26 C 546.71 596.80 560.20 603.22 572.76 611.24 C 577.26 613.67 582.07 615.68 585.73 619.39 C 586.30 636.93 585.85 654.49 585.99 672.04 C 586.04 717.03 585.88 762.03 586.03 807.03 C 585.73 817.34 586.31 827.67 585.66 837.97 L 585.59 838.58 C 567.60 828.20 549.61 817.82 531.64 807.42 C 532.57 792.98 531.87 778.49 532.03 764.03 C 532.14 707.01 531.94 649.98 532.06 592.97 Z" />
</g>
<g id="#769dd1ff">
<path fill="#769dd1" opacity="1.00" d=" M 585.99 672.04 C 585.85 654.49 586.30 636.93 585.73 619.39 C 596.68 625.72 607.84 631.68 618.78 638.04 C 623.07 640.61 627.81 642.27 632.37 644.32 C 631.03 644.71 629.70 645.10 628.38 645.50 C 627.85 660.65 628.40 675.83 628.19 691.00 C 628.21 741.65 628.15 792.30 628.19 842.96 C 628.08 849.31 628.57 855.69 627.65 862.01 L 627.53 862.77 C 613.52 854.81 599.65 846.60 585.62 838.66 L 585.66 837.97 C 586.31 827.67 585.73 817.34 586.03 807.03 C 585.88 762.03 586.04 717.03 585.99 672.04 Z" />
<path fill="#769dd1" opacity="1.00" d=" M 586.24 967.46 C 587.66 967.40 589.07 967.33 590.51 967.29 C 600.08 972.79 609.80 978.04 619.43 983.45 C 624.23 986.20 629.52 987.93 634.42 990.49 C 632.08 990.44 629.75 990.47 627.41 990.45 C 628.84 999.89 627.91 1009.45 628.21 1018.95 C 628.17 1047.96 628.21 1076.97 628.18 1105.98 C 628.10 1113.11 628.58 1120.27 627.56 1127.36 C 613.63 1119.35 599.72 1111.31 585.82 1103.27 C 586.24 1082.84 585.86 1062.41 586.03 1041.99 C 586.16 1017.15 585.66 992.29 586.24 967.46 Z" />
</g>
<g id="#2f448fff">
<path fill="#2f448f" opacity="1.00" d=" M 937.35 626.40 C 937.99 624.88 940.16 624.78 941.52 624.08 C 941.62 627.84 941.76 631.60 941.86 635.37 C 940.31 654.86 940.40 674.43 940.15 693.96 C 940.48 722.66 939.59 751.33 939.76 780.03 C 939.96 790.46 939.23 800.94 940.19 811.35 C 938.49 814.62 935.03 815.75 931.85 817.04 C 908.71 830.58 885.28 843.62 862.26 857.38 C 828.78 876.55 795.49 896.06 762.01 915.25 C 752.71 920.89 743.05 925.93 734.00 931.97 C 709.92 945.17 685.87 958.42 661.99 971.98 C 660.77 972.43 659.26 973.82 658.06 972.49 C 659.58 971.63 661.09 970.78 662.61 969.93 C 671.99 964.49 681.37 959.06 690.75 953.63 C 697.12 950.02 703.43 946.31 709.77 942.66 C 716.10 939.09 722.34 935.37 728.65 931.78 C 733.32 929.12 737.93 926.38 742.60 923.73 C 746.58 921.47 750.49 919.09 754.50 916.89 C 759.09 914.19 763.69 911.50 768.34 908.89 C 773.46 905.92 778.55 902.90 783.71 900.00 C 788.18 897.44 792.60 894.80 797.09 892.26 C 801.89 889.52 806.64 886.67 811.48 883.98 C 815.95 881.37 820.41 878.74 824.91 876.18 C 828.92 873.92 832.87 871.54 836.89 869.27 C 840.95 867.00 844.92 864.59 848.96 862.30 C 855.99 858.36 862.86 854.15 869.88 850.20 C 878.22 845.48 886.46 840.58 894.71 835.70 C 901.26 832.42 907.39 828.38 913.80 824.84 C 921.16 820.45 928.80 816.52 935.92 811.73 C 936.08 811.71 936.42 811.67 936.58 811.65 L 937.68 811.51 C 938.02 762.02 937.37 712.51 937.80 663.02 C 938.27 653.01 938.20 643.00 938.30 632.99 C 938.32 630.75 937.80 628.57 937.35 626.40 Z" />
</g>
<g id="#536cabff">
<path fill="#536cab" opacity="1.00" d=" M 918.16 637.56 C 924.17 634.21 930.08 630.69 936.01 627.19 C 936.69 635.61 936.33 644.08 936.06 652.51 C 934.91 655.82 934.81 659.36 933.90 662.72 C 929.03 663.04 924.15 662.57 919.30 663.18 C 918.36 670.59 918.92 678.08 918.49 685.53 L 918.14 684.58 C 918.05 668.91 918.10 653.23 918.16 637.56 Z" />
</g>
<g id="#4b61afff">
<path fill="#4b61af" opacity="1.00" d=" M 1049.28 650.26 C 1054.39 645.36 1058.88 639.78 1064.68 635.65 C 1064.69 668.30 1064.71 700.95 1064.69 733.60 C 1058.43 738.34 1053.37 744.40 1047.71 749.79 C 934.54 862.95 821.39 976.14 708.20 1089.27 C 707.24 1090.19 706.88 1091.50 706.46 1092.73 C 683.41 1106.25 660.14 1119.40 637.09 1132.92 C 637.33 1085.88 637.09 1038.83 637.12 991.79 C 637.09 989.32 636.76 986.89 636.31 984.48 C 637.93 984.44 639.21 983.31 640.60 982.60 C 646.42 979.24 652.17 975.73 658.06 972.49 C 659.26 973.82 660.77 972.43 661.99 971.98 C 685.87 958.42 709.92 945.17 734.00 931.97 C 743.05 925.93 752.71 920.89 762.01 915.25 C 795.49 896.06 828.78 876.55 862.26 857.38 C 885.28 843.62 908.71 830.58 931.85 817.04 C 935.03 815.75 938.49 814.62 940.19 811.35 C 942.42 808.72 941.83 805.13 941.90 801.97 C 941.77 787.35 941.92 772.74 941.92 758.13 C 948.64 750.14 956.57 743.29 963.77 735.74 C 992.26 707.23 1020.76 678.73 1049.28 650.26 Z" />
</g>
<g id="#89abd2ff">
<path fill="#89abd2" opacity="1.00" d=" M 628.38 645.50 C 629.70 645.10 631.03 644.71 632.37 644.32 C 633.92 644.93 635.52 645.45 637.12 645.97 C 637.21 688.88 637.10 731.80 637.24 774.72 C 636.98 805.93 637.44 837.16 637.13 868.37 C 633.95 866.50 630.74 864.68 627.57 862.82 L 627.65 862.01 C 628.57 855.69 628.08 849.31 628.19 842.96 C 628.15 792.30 628.21 741.65 628.19 691.00 C 628.40 675.83 627.85 660.65 628.38 645.50 Z" />
<path fill="#89abd2" opacity="1.00" d=" M 627.41 990.45 C 629.75 990.47 632.08 990.44 634.42 990.49 C 635.32 990.91 636.22 991.34 637.12 991.79 C 637.09 1038.83 637.33 1085.88 637.09 1132.92 C 633.89 1131.09 630.73 1129.21 627.56 1127.36 C 628.58 1120.27 628.10 1113.11 628.18 1105.98 C 628.21 1076.97 628.17 1047.96 628.21 1018.95 C 627.91 1009.45 628.84 999.89 627.41 990.45 Z" />
</g>
<g id="#5f79b7ff">
<path fill="#5f79b7" opacity="1.00" d=" M 933.90 662.72 C 934.81 659.36 934.91 655.82 936.06 652.51 C 936.31 658.08 936.32 663.65 936.56 669.23 C 936.57 671.64 936.60 674.07 936.50 676.49 C 934.62 679.61 935.08 683.37 933.82 686.69 C 929.55 686.97 925.26 687.16 921.00 686.75 C 920.02 686.63 919.19 686.22 918.49 685.53 C 918.92 678.08 918.36 670.59 919.30 663.18 C 924.15 662.57 929.03 663.04 933.90 662.72 Z" />
</g>
<g id="#6a83bfff">
<path fill="#6a83bf" opacity="1.00" d=" M 933.82 686.69 C 935.08 683.37 934.62 679.61 936.50 676.49 C 936.50 681.82 936.63 687.15 936.48 692.48 C 933.97 696.48 935.55 701.45 933.69 705.68 C 928.90 706.35 924.06 705.65 919.27 706.26 C 918.60 712.16 918.98 718.10 918.89 724.02 C 918.64 725.12 918.40 726.21 918.18 727.32 C 917.98 713.08 918.17 698.83 918.14 684.58 L 918.49 685.53 C 919.19 686.22 920.02 686.63 921.00 686.75 C 925.26 687.16 929.55 686.97 933.82 686.69 Z" />
</g>
<g id="#728cc7ff">
<path fill="#728cc7" opacity="1.00" d=" M 933.69 705.68 C 935.55 701.45 933.97 696.48 936.48 692.48 C 936.50 697.49 936.62 702.51 936.47 707.52 C 933.58 712.24 936.12 718.08 934.06 723.00 C 933.78 723.21 933.22 723.62 932.93 723.82 C 928.28 724.47 923.56 723.97 918.89 724.02 C 918.98 718.10 918.60 712.16 919.27 706.26 C 924.06 705.65 928.90 706.35 933.69 705.68 Z" />
</g>
<g id="#171f58ff">
<path fill="#171f58" opacity="1.00" d=" M 337.59 698.37 C 338.27 699.84 339.13 701.31 339.09 703.01 C 339.65 710.24 340.07 717.48 340.21 724.73 C 345.04 725.21 349.90 724.76 354.73 725.22 C 355.42 750.58 354.23 776.00 355.34 801.35 L 355.41 801.92 C 355.01 802.11 354.21 802.49 353.81 802.68 C 348.34 805.69 342.97 808.90 337.55 811.99 C 337.48 774.12 337.49 736.24 337.59 698.37 Z" />
</g>
<g id="#7b94cfff">
<path fill="#7b94cf" opacity="1.00" d=" M 934.06 723.00 C 936.12 718.08 933.58 712.24 936.47 707.52 C 936.50 716.49 936.64 725.47 936.48 734.44 C 935.76 736.17 935.19 737.97 934.90 739.83 C 934.41 740.75 933.91 741.67 933.41 742.59 C 928.73 743.25 924.00 742.66 919.32 743.21 C 918.62 748.42 918.89 753.68 918.88 758.93 C 918.86 761.44 918.76 763.96 918.72 766.49 L 918.23 765.40 C 917.94 752.74 918.13 740.01 918.18 727.32 C 918.40 726.21 918.64 725.12 918.89 724.02 C 923.56 723.97 928.28 724.47 932.93 723.82 C 933.22 723.62 933.78 723.21 934.06 723.00 Z" />
</g>
<g id="#4e66b4ff">
<path fill="#4e66b4" opacity="1.00" d=" M 1047.71 749.79 C 1053.37 744.40 1058.43 738.34 1064.69 733.60 C 1064.69 784.39 1064.72 835.19 1064.69 885.98 C 945.28 954.90 825.92 1023.91 706.46 1092.73 C 706.88 1091.50 707.24 1090.19 708.20 1089.27 C 821.39 976.14 934.54 862.95 1047.71 749.79 Z" />
</g>
<g id="#8ca5dbff">
<path fill="#8ca5db" opacity="1.00" d=" M 934.90 739.83 C 935.19 737.97 935.76 736.17 936.48 734.44 C 936.48 743.51 936.59 752.59 936.50 761.67 C 935.28 766.04 935.05 770.58 935.12 775.11 C 930.78 778.82 924.47 776.68 919.29 776.75 C 919.03 773.33 919.00 769.90 918.72 766.49 C 918.76 763.96 918.86 761.44 918.88 758.93 C 923.82 758.87 928.80 759.42 933.72 758.69 C 935.67 752.61 935.00 746.11 934.90 739.83 Z" />
</g>
<g id="#839cd5ff">
<path fill="#839cd5" opacity="1.00" d=" M 933.41 742.59 C 933.91 741.67 934.41 740.75 934.90 739.83 C 935.00 746.11 935.67 752.61 933.72 758.69 C 928.80 759.42 923.82 758.87 918.88 758.93 C 918.89 753.68 918.62 748.42 919.32 743.21 C 924.00 742.66 928.73 743.25 933.41 742.59 Z" />
</g>
<g id="#9cb5e9ff">
<path fill="#9cb5e9" opacity="1.00" d=" M 936.50 761.67 C 936.50 778.33 936.53 794.99 936.58 811.65 C 936.42 811.67 936.08 811.71 935.92 811.73 C 930.42 808.01 924.50 804.98 918.79 801.61 C 918.93 799.80 919.10 798.01 919.28 796.23 C 924.07 795.62 928.91 796.11 933.72 795.75 C 935.86 789.09 934.66 781.97 935.12 775.11 C 935.05 770.58 935.28 766.04 936.50 761.67 Z" />
</g>
<g id="#94aee3ff">
<path fill="#94aee3" opacity="1.00" d=" M 918.23 765.40 L 918.72 766.49 C 919.00 769.90 919.03 773.33 919.29 776.75 C 924.47 776.68 930.78 778.82 935.12 775.11 C 934.66 781.97 935.86 789.09 933.72 795.75 C 928.91 796.11 924.07 795.62 919.28 796.23 C 919.10 798.01 918.93 799.80 918.79 801.61 L 918.13 801.19 C 918.12 789.27 918.04 777.33 918.23 765.40 Z" />
</g>
<g id="#cbd1eaff">
<path fill="#cbd1ea" opacity="1.00" d=" M 355.34 801.35 L 355.83 801.45 C 384.29 817.37 412.43 834.05 440.77 850.27 C 499.09 883.94 557.41 917.61 615.74 951.28 C 623.00 955.25 629.95 959.89 637.37 963.49 C 637.19 965.04 636.98 966.58 636.85 968.15 C 580.59 934.59 523.82 901.85 467.40 868.54 C 454.16 861.25 441.65 852.73 428.31 845.62 C 407.33 833.30 386.25 821.16 365.30 808.81 C 361.85 806.76 357.71 805.42 355.41 801.92 L 355.34 801.35 Z" />
</g>
<g id="#e8eeffff">
<path fill="#e8eeff" opacity="1.00" d=" M 353.81 802.68 C 354.21 802.49 355.01 802.11 355.41 801.92 C 357.71 805.42 361.85 806.76 365.30 808.81 C 386.25 821.16 407.33 833.30 428.31 845.62 C 441.65 852.73 454.16 861.25 467.40 868.54 C 523.82 901.85 580.59 934.59 636.85 968.15 C 637.33 973.60 637.27 979.08 636.31 984.48 C 635.21 983.67 634.10 982.96 632.93 982.31 C 595.76 960.88 558.58 939.45 521.46 917.92 C 521.96 914.71 517.84 914.12 515.99 912.35 C 518.60 912.01 521.23 911.76 523.86 911.58 C 518.64 908.76 513.69 905.48 508.51 902.60 C 509.23 902.09 509.96 901.60 510.70 901.12 C 507.75 899.05 504.64 897.25 501.51 895.49 C 497.29 893.18 494.08 889.43 489.80 887.23 C 485.26 884.89 481.29 881.67 476.97 878.97 C 463.66 871.02 450.67 862.53 437.21 854.81 C 428.65 848.78 419.20 844.20 410.40 838.53 C 400.66 832.12 390.23 826.84 380.36 820.62 C 372.14 816.41 364.79 810.75 356.54 806.61 C 354.78 806.00 354.27 804.27 353.81 802.68 Z" />
</g>
<g id="#4f68acff">
<path fill="#4f68ac" opacity="1.00" d=" M 888.63 818.18 C 898.53 812.63 908.32 806.89 918.13 801.19 L 918.79 801.61 C 924.50 804.98 930.42 808.01 935.92 811.73 C 928.80 816.52 921.16 820.45 913.80 824.84 C 907.39 828.38 901.26 832.42 894.71 835.70 C 892.86 835.75 891.02 835.94 889.22 836.29 C 889.12 830.47 889.66 824.60 888.71 818.83 L 888.63 818.18 Z" />
</g>
<g id="#5477c4ff">
<path fill="#5477c4" opacity="1.00" d=" M 346.43 818.47 C 351.99 821.84 357.45 825.36 362.84 828.98 C 368.90 834.58 376.27 838.46 382.87 843.37 C 382.45 845.23 382.02 847.10 381.95 849.03 C 382.05 891.68 381.93 934.34 382.02 976.99 C 382.00 979.77 381.76 982.55 381.51 985.33 C 369.94 978.67 358.40 971.95 346.81 965.32 C 347.24 920.21 346.80 875.10 346.99 829.99 C 347.06 826.14 346.93 822.28 346.43 818.47 Z" />
</g>
<g id="#6179b5ff">
<path fill="#6179b5" opacity="1.00" d=" M 867.60 830.26 C 874.65 826.43 881.59 822.41 888.45 818.26 L 888.71 818.83 C 889.66 824.60 889.12 830.47 889.22 836.29 C 891.02 835.94 892.86 835.75 894.71 835.70 C 886.46 840.58 878.22 845.48 869.88 850.20 C 868.85 848.63 867.63 846.99 867.88 845.01 C 868.04 840.18 868.25 835.35 867.63 830.54 L 867.60 830.26 Z" />
</g>
<g id="#4666a9ff">
<path fill="#4666a9" opacity="1.00" d=" M 362.84 828.98 C 373.26 833.42 382.66 839.92 392.61 845.31 C 395.86 846.84 398.81 850.05 402.69 849.41 C 442.33 872.16 481.85 895.11 521.46 917.92 C 558.58 939.45 595.76 960.88 632.93 982.31 C 631.32 983.34 629.66 982.58 628.19 981.78 C 601.08 966.26 574.01 950.64 546.88 935.16 C 538.61 931.69 531.05 926.86 523.01 922.94 C 485.30 902.04 447.71 880.94 410.00 860.04 C 407.70 858.82 405.25 857.95 402.85 857.00 C 396.33 852.25 389.43 848.05 382.87 843.37 C 376.27 838.46 368.90 834.58 362.84 828.98 Z" />
</g>
<g id="#6f84bdff">
<path fill="#6f84bd" opacity="1.00" d=" M 847.34 842.12 C 854.08 838.21 860.77 834.23 867.63 830.54 C 868.25 835.35 868.04 840.18 867.88 845.01 C 867.63 846.99 868.85 848.63 869.88 850.20 C 862.86 854.15 855.99 858.36 848.96 862.30 C 847.10 855.68 849.10 848.75 847.34 842.12 Z" />
</g>
<g id="#798dc2ff">
<path fill="#798dc2" opacity="1.00" d=" M 835.23 849.09 C 839.27 846.77 843.28 844.41 847.34 842.12 C 849.10 848.75 847.10 855.68 848.96 862.30 C 844.92 864.59 840.95 867.00 836.89 869.27 C 834.94 862.66 836.84 855.74 835.23 849.09 Z" />
</g>
<g id="#597cc7ff">
<path fill="#597cc7" opacity="1.00" d=" M 381.95 849.03 C 382.02 847.10 382.45 845.23 382.87 843.37 C 389.43 848.05 396.33 852.25 402.85 857.00 C 407.34 861.16 413.06 863.55 417.82 867.36 C 417.49 868.86 417.13 870.38 417.01 871.94 C 417.01 911.29 417.07 950.66 416.98 990.02 C 417.13 995.21 417.12 1000.41 416.65 1005.60 C 404.91 998.88 393.23 992.07 381.51 985.33 C 381.76 982.55 382.00 979.77 382.02 976.99 C 381.93 934.34 382.05 891.68 381.95 849.03 Z" />
</g>
<g id="#8296c7ff">
<path fill="#8296c7" opacity="1.00" d=" M 822.59 856.25 C 826.89 854.03 831.01 851.46 835.23 849.09 C 836.84 855.74 834.94 862.66 836.89 869.27 C 832.87 871.54 828.92 873.92 824.91 876.18 C 824.12 874.87 822.97 873.63 822.98 872.02 C 822.74 866.87 823.15 861.70 822.61 856.56 L 822.59 856.25 Z" />
</g>
<g id="#5c7ebaff">
<path fill="#5c7eba" opacity="1.00" d=" M 402.85 857.00 C 405.25 857.95 407.70 858.82 410.00 860.04 C 447.71 880.94 485.30 902.04 523.01 922.94 C 531.05 926.86 538.61 931.69 546.88 935.16 C 574.01 950.64 601.08 966.26 628.19 981.78 C 629.66 982.58 631.32 983.34 632.93 982.31 C 634.10 982.96 635.21 983.67 636.31 984.48 C 636.76 986.89 637.09 989.32 637.12 991.79 C 636.22 991.34 635.32 990.91 634.42 990.49 C 629.52 987.93 624.23 986.20 619.43 983.45 C 609.80 978.04 600.08 972.79 590.51 967.29 C 576.63 958.81 561.88 951.79 548.26 942.89 C 541.13 936.83 532.22 933.54 524.34 928.64 C 513.68 923.14 503.46 916.88 492.90 911.20 C 481.94 904.79 470.69 898.90 459.85 892.29 C 453.14 888.18 446.13 884.60 439.24 880.83 C 434.78 878.42 431.06 874.88 426.63 872.45 C 423.66 870.80 420.62 869.28 417.82 867.36 C 413.06 863.55 407.34 861.16 402.85 857.00 Z" />
</g>
<g id="#8c9dccff">
<path fill="#8c9dcc" opacity="1.00" d=" M 807.32 865.22 C 812.38 862.28 817.41 859.24 822.61 856.56 C 823.15 861.70 822.74 866.87 822.98 872.02 C 822.97 873.63 824.12 874.87 824.91 876.18 C 820.41 878.74 815.95 881.37 811.48 883.98 C 810.23 883.79 807.97 883.82 808.04 882.05 C 807.62 876.44 808.53 870.77 807.32 865.22 Z" />
</g>
<g id="#94a6d0ff">
<path fill="#94a6d0" opacity="1.00" d=" M 794.42 872.57 C 798.78 870.24 803.00 867.65 807.32 865.22 C 808.53 870.77 807.62 876.44 808.04 882.05 C 807.97 883.82 810.23 883.79 811.48 883.98 C 806.64 886.67 801.89 889.52 797.09 892.26 C 796.22 890.95 794.88 889.77 794.97 888.08 C 794.88 882.95 795.41 877.79 794.43 872.72 L 794.42 872.57 Z" />
</g>
<g id="#5e83c8ff">
<path fill="#5e83c8" opacity="1.00" d=" M 417.01 871.94 C 417.13 870.38 417.49 868.86 417.82 867.36 C 420.62 869.28 423.66 870.80 426.63 872.45 C 431.06 874.88 434.78 878.42 439.24 880.83 C 446.13 884.60 453.14 888.18 459.85 892.29 C 458.91 893.32 457.73 894.35 457.96 895.92 C 457.94 940.42 458.12 984.93 457.88 1029.42 C 444.14 1021.47 430.38 1013.57 416.65 1005.60 C 417.12 1000.41 417.13 995.21 416.98 990.02 C 417.07 950.66 417.01 911.29 417.01 871.94 Z" />
</g>
<g id="#9daed5ff">
<path fill="#9daed5" opacity="1.00" d=" M 779.59 881.17 C 784.58 878.43 789.41 875.40 794.43 872.72 C 795.41 877.79 794.88 882.95 794.97 888.08 C 794.88 889.77 796.22 890.95 797.09 892.26 C 792.60 894.80 788.18 897.44 783.71 900.00 C 782.45 899.95 781.27 899.58 780.15 899.08 C 779.72 893.40 780.37 887.69 779.66 882.03 L 779.59 881.17 Z" />
</g>
<g id="#a7b7daff">
<path fill="#a7b7da" opacity="1.00" d=" M 764.25 890.04 C 769.37 887.10 774.47 884.15 779.59 881.21 L 779.66 882.03 C 780.37 887.69 779.72 893.40 780.15 899.08 C 781.27 899.58 782.45 899.95 783.71 900.00 C 778.55 902.90 773.46 905.92 768.34 908.89 C 767.25 908.63 766.18 908.39 765.12 908.17 C 764.39 902.13 765.74 896.00 764.25 890.04 Z" />
</g>
<g id="#b1bfdfff">
<path fill="#b1bfdf" opacity="1.00" d=" M 750.24 898.15 C 754.89 895.41 759.62 892.81 764.25 890.04 C 765.74 896.00 764.39 902.13 765.12 908.17 C 766.18 908.39 767.25 908.63 768.34 908.89 C 763.69 911.50 759.09 914.19 754.50 916.89 C 753.33 916.72 752.20 916.45 751.09 916.12 C 750.75 910.12 751.72 904.05 750.24 898.15 Z" />
</g>
<g id="#6388cbff">
<path fill="#6388cb" opacity="1.00" d=" M 457.96 895.92 C 457.73 894.35 458.91 893.32 459.85 892.29 C 470.69 898.90 481.94 904.79 492.90 911.20 C 491.64 912.50 490.76 914.10 490.95 915.98 C 491.07 949.31 491.04 982.64 491.05 1015.97 C 490.91 1026.79 491.30 1037.61 490.85 1048.43 C 479.83 1042.15 468.89 1035.73 457.88 1029.42 C 458.12 984.93 457.94 940.42 457.96 895.92 Z" />
</g>
<g id="#bac7e4ff">
<path fill="#bac7e4" opacity="1.00" d=" M 737.77 905.29 C 741.99 903.03 746.06 900.50 750.24 898.15 C 751.72 904.05 750.75 910.12 751.09 916.12 C 752.20 916.45 753.33 916.72 754.50 916.89 C 750.49 919.09 746.58 921.47 742.60 923.73 C 741.07 923.52 739.56 923.32 738.05 923.12 C 737.74 917.21 738.22 911.30 737.77 905.40 L 737.77 905.29 Z" />
</g>
<g id="#c3cfe8ff">
<path fill="#c3cfe8" opacity="1.00" d=" M 723.44 913.55 C 728.29 910.95 732.93 907.99 737.77 905.40 C 738.22 911.30 737.74 917.21 738.05 923.12 C 739.56 923.32 741.07 923.52 742.60 923.73 C 737.93 926.38 733.32 929.12 728.65 931.78 C 727.11 931.62 725.58 931.47 724.06 931.32 C 723.58 925.45 724.23 919.55 723.46 913.71 L 723.44 913.55 Z" />
</g>
<g id="#6a8fccff">
<path fill="#6a8fcc" opacity="1.00" d=" M 490.95 915.98 C 490.76 914.10 491.64 912.50 492.90 911.20 C 503.46 916.88 513.68 923.14 524.34 928.64 C 532.22 933.54 541.13 936.83 548.26 942.89 C 545.45 945.13 547.24 948.94 547.01 951.96 C 546.98 976.31 546.96 1000.68 547.05 1025.04 C 546.68 1043.57 547.48 1062.13 546.73 1080.65 C 528.05 1070.01 509.47 1059.18 490.85 1048.43 C 491.30 1037.61 490.91 1026.79 491.05 1015.97 C 491.04 982.64 491.07 949.31 490.95 915.98 Z" />
</g>
<g id="#cfd9eeff">
<path fill="#cfd9ee" opacity="1.00" d=" M 702.03 925.99 C 709.16 921.88 716.23 917.66 723.46 913.71 C 724.23 919.55 723.58 925.45 724.06 931.32 C 725.58 931.47 727.11 931.62 728.65 931.78 C 722.34 935.37 716.10 939.09 709.77 942.66 C 707.01 941.66 704.59 943.72 702.15 944.66 C 701.60 938.45 701.86 932.21 702.03 925.99 Z" />
</g>
<g id="#dee7f6ff">
<path fill="#dee7f6" opacity="1.00" d=" M 680.60 938.31 C 687.76 934.23 694.88 930.09 702.03 925.99 C 701.86 932.21 701.60 938.45 702.15 944.66 C 704.59 943.72 707.01 941.66 709.77 942.66 C 703.43 946.31 697.12 950.02 690.75 953.63 C 687.17 952.74 684.27 955.63 681.11 956.79 C 680.45 950.92 681.43 945.02 680.67 939.17 L 680.60 938.31 Z" />
</g>
<g id="#7097cfff">
<path fill="#7097cf" opacity="1.00" d=" M 547.01 951.96 C 547.24 948.94 545.45 945.13 548.26 942.89 C 561.88 951.79 576.63 958.81 590.51 967.29 C 589.07 967.33 587.66 967.40 586.24 967.46 C 585.66 992.29 586.16 1017.15 586.03 1041.99 C 585.86 1062.41 586.24 1082.84 585.82 1103.27 C 572.77 1095.80 559.80 1088.18 546.72 1080.76 L 546.73 1080.65 C 547.48 1062.13 546.68 1043.57 547.05 1025.04 C 546.96 1000.68 546.98 976.31 547.01 951.96 Z" />
</g>
<g id="#fbffffff">
<path fill="#fbffff" opacity="1.00" d=" M 637.37 963.49 C 643.97 959.24 650.95 955.58 657.70 951.56 C 658.28 957.47 657.95 963.42 658.25 969.35 C 659.69 969.55 661.15 969.74 662.61 969.93 C 661.09 970.78 659.58 971.63 658.06 972.49 C 652.17 975.73 646.42 979.24 640.60 982.60 C 639.21 983.31 637.93 984.44 636.31 984.48 C 637.27 979.08 637.33 973.60 636.85 968.15 C 636.98 966.58 637.19 965.04 637.37 963.49 Z" />
</g>
</svg>
