<?xml version="1.0" encoding="UTF-8" ?>
<!DOCTYPE svg PUBLIC "-//W3C//DTD SVG 1.1//EN" "http://www.w3.org/Graphics/SVG/1.1/DTD/svg11.dtd">
<svg width="1276pt" height="1276pt" viewBox="0 0 1276 1276" version="1.1" xmlns="http://www.w3.org/2000/svg">
<g id="#ffffffff">
<path fill="#ffffff" opacity="1.00" d=" M 909.48 340.29 C 925.58 326.60 946.87 319.14 968.02 320.06 C 998.27 320.70 1027.23 338.99 1041.15 365.80 C 1045.44 373.56 1047.66 382.18 1050.61 390.49 C 1079.79 477.59 1108.80 564.76 1138.13 651.81 C 993.09 651.89 848.04 651.81 702.99 651.85 C 677.14 651.94 651.40 641.38 633.15 623.05 C 633.25 632.64 633.17 642.24 633.22 651.84 C 581.14 651.84 529.07 651.83 476.99 651.84 C 458.80 652.23 440.60 647.29 424.92 638.11 C 407.99 628.23 394.08 613.38 385.10 595.98 C 365.49 628.98 328.57 651.16 290.04 651.83 C 239.39 651.83 188.75 651.87 138.10 651.81 C 138.23 607.17 138.15 562.52 138.14 517.88 C 148.44 517.81 158.74 518.00 169.04 517.79 C 149.74 497.59 138.64 469.89 138.19 441.99 C 137.73 420.59 143.60 399.14 154.73 380.87 C 169.50 356.38 193.58 337.61 221.07 329.59 C 231.40 326.48 242.18 325.03 252.96 324.94 C 302.40 324.94 351.84 324.94 401.29 324.94 C 401.21 335.53 401.44 346.14 401.15 356.73 C 414.48 343.07 431.34 332.68 449.95 328.08 C 459.39 325.60 469.20 324.80 478.95 324.93 C 529.71 324.94 580.48 324.93 631.25 324.94 C 631.16 334.55 631.44 344.18 631.08 353.79 C 650.59 335.43 677.04 324.32 703.97 324.93 C 754.04 325.02 804.11 324.80 854.18 325.04 C 854.16 355.69 854.18 386.34 854.17 417.00 C 854.03 433.05 854.48 449.12 853.89 465.17 C 855.39 462.36 856.29 459.30 857.23 456.27 C 866.04 430.14 874.86 404.01 883.67 377.88 C 888.62 363.30 897.69 350.19 909.48 340.29 M 936.94 348.89 C 924.06 354.86 913.40 365.47 907.44 378.36 C 905.28 382.91 904.07 387.81 902.41 392.54 C 878.66 462.07 854.97 531.61 831.22 601.14 C 831.03 549.05 831.19 496.94 831.14 444.85 C 794.45 444.85 757.77 444.85 721.08 444.85 C 721.14 457.93 721.11 471.02 721.10 484.11 C 745.05 484.13 769.01 484.07 792.96 484.14 C 792.87 519.34 792.88 554.54 792.96 589.74 C 762.29 589.76 731.62 589.78 700.96 589.73 C 681.39 589.15 664.32 571.59 664.21 552.03 C 664.21 509.34 664.15 466.64 664.24 423.95 C 664.73 404.31 682.42 387.22 702.01 387.13 C 745.40 387.12 788.78 387.13 832.17 387.13 C 832.17 374.04 832.16 360.95 832.17 347.87 C 788.46 347.90 744.74 347.80 701.03 347.92 C 677.04 348.08 653.60 360.14 639.43 379.47 C 629.70 392.53 624.10 408.71 624.11 425.03 C 624.12 465.03 624.11 505.03 624.11 545.03 C 624.13 549.67 623.96 554.33 624.45 558.96 C 626.19 576.63 634.32 593.57 646.93 606.07 C 658.43 617.72 673.74 625.51 689.92 628.02 C 697.23 629.22 704.66 628.85 712.04 628.90 C 762.38 628.93 812.73 628.85 863.08 628.95 C 890.25 550.37 917.26 471.73 944.42 393.15 C 947.18 385.42 954.71 379.75 962.88 379.19 C 970.04 378.44 977.53 381.33 982.07 386.97 C 985.54 391.06 986.66 396.44 988.41 401.38 C 1009.64 464.14 1030.58 527.00 1051.96 589.72 C 1017.26 589.81 982.56 589.73 947.86 589.75 C 947.87 602.81 947.86 615.87 947.86 628.92 C 1000.61 628.88 1053.35 628.90 1106.10 628.91 C 1078.51 547.42 1051.12 465.86 1023.48 384.39 C 1017.08 367.91 1003.84 354.10 987.40 347.48 C 971.36 340.92 952.60 341.52 936.94 348.89 M 188.46 374.40 C 171.27 391.19 161.22 415.00 161.19 439.03 C 160.90 457.23 166.20 475.46 176.24 490.64 C 188.41 509.31 207.63 523.23 229.19 528.89 C 247.74 534.05 267.16 531.00 286.11 532.12 C 291.47 532.48 291.42 541.61 286.06 541.79 C 244.44 541.90 202.80 541.80 161.17 541.84 C 161.22 554.86 161.23 567.87 161.16 580.88 C 203.13 580.89 245.09 580.88 287.06 580.89 C 301.64 580.91 315.63 572.61 323.36 560.38 C 330.06 550.08 332.04 536.88 328.61 525.08 C 324.51 510.50 312.47 498.46 297.86 494.45 C 289.11 491.95 279.93 493.17 270.98 492.89 C 260.61 492.61 249.99 493.91 239.91 490.85 C 221.47 485.68 206.50 469.86 202.49 451.12 C 198.88 435.36 203.37 418.14 213.91 405.94 C 223.74 394.30 238.71 386.99 254.02 387.12 C 295.43 387.14 336.84 387.11 378.26 387.13 C 378.25 374.04 378.25 360.95 378.26 347.86 C 336.16 347.91 294.06 347.79 251.96 347.92 C 228.43 348.16 205.10 357.72 188.46 374.40 M 413.29 378.41 C 403.07 391.64 397.20 408.23 397.14 424.97 C 397.15 467.33 397.15 509.68 397.15 552.04 C 397.23 570.70 404.56 589.14 417.03 602.98 C 428.41 615.74 444.08 624.62 460.92 627.66 C 469.18 629.31 477.63 628.84 485.99 628.90 C 527.08 628.93 568.16 628.86 609.24 628.94 C 609.25 615.88 609.22 602.81 609.26 589.75 C 564.51 589.77 519.76 589.74 475.02 589.77 C 462.88 589.95 450.97 583.73 443.85 573.96 C 438.75 567.12 436.06 558.57 436.20 550.04 C 436.21 508.68 436.18 467.32 436.22 425.95 C 436.14 414.61 441.41 403.41 450.17 396.21 C 457.06 390.45 465.97 387.03 474.99 387.12 C 519.74 387.14 564.49 387.11 609.24 387.13 C 609.24 374.04 609.24 360.95 609.25 347.86 C 564.18 347.91 519.12 347.80 474.06 347.92 C 450.53 348.09 427.52 359.69 413.29 378.41 M 952.45 397.37 C 925.95 474.55 899.49 551.75 872.91 628.91 C 888.30 628.92 903.69 628.86 919.08 628.94 C 927.25 604.85 935.35 580.73 943.50 556.62 C 944.64 553.28 945.47 549.80 947.21 546.70 C 946.68 558.08 947.02 569.48 946.92 580.86 C 977.67 580.90 1008.42 580.89 1039.17 580.87 C 1018.39 519.88 997.98 458.74 977.34 397.70 C 975.99 393.67 973.09 389.91 968.96 388.52 C 962.23 386.16 954.67 390.91 952.45 397.37 M 212.17 424.08 C 207.45 435.80 208.33 449.58 214.40 460.65 C 221.38 473.69 235.15 482.98 249.99 483.88 C 257.65 484.36 265.33 483.99 273.00 484.11 C 281.67 484.28 290.55 483.32 298.98 485.90 C 317.72 490.95 333.01 506.97 336.96 526.01 C 340.14 540.19 336.79 555.57 328.31 567.34 C 318.76 580.86 302.62 589.73 285.98 589.77 C 244.37 589.75 202.76 589.75 161.14 589.77 C 161.26 602.81 161.20 615.86 161.17 628.91 C 203.09 628.90 245.01 628.91 286.93 628.91 C 304.80 628.92 322.63 623.47 337.47 613.50 C 352.69 603.37 364.73 588.56 371.55 571.61 C 379.66 551.61 380.43 528.77 373.74 508.26 C 368.43 491.81 358.32 476.93 344.98 465.94 C 329.88 453.35 310.61 445.91 290.98 445.01 C 278.33 444.53 265.66 445.15 253.02 444.71 C 248.27 444.32 248.01 436.39 252.96 436.16 C 294.72 435.99 336.49 436.13 378.25 436.09 C 378.26 422.69 378.25 409.29 378.25 395.88 C 336.16 395.92 294.06 395.84 251.96 395.92 C 234.61 396.22 218.38 407.97 212.17 424.08 M 448.50 411.66 C 445.03 417.86 444.90 425.12 445.07 432.03 C 445.08 449.39 445.08 466.75 445.06 484.11 C 490.46 484.11 535.85 484.11 581.25 484.11 C 581.25 471.02 581.24 457.93 581.25 444.84 C 548.79 444.79 516.33 444.98 483.87 444.75 C 484.63 440.33 488.05 436.01 492.88 436.12 C 531.32 436.04 569.76 436.11 608.20 436.09 C 608.21 422.69 608.20 409.29 608.21 395.89 C 563.82 395.90 519.43 395.87 475.04 395.90 C 464.19 395.78 453.39 401.86 448.50 411.66 M 679.71 405.50 C 674.39 411.30 671.86 419.20 671.95 427.00 C 671.89 467.67 671.93 508.34 671.93 549.02 C 671.87 555.42 673.15 561.97 676.69 567.40 C 681.78 575.62 691.25 580.84 700.90 580.88 C 728.33 580.91 755.77 580.85 783.21 580.91 C 783.20 551.57 783.20 522.23 783.21 492.89 C 762.50 492.89 741.80 492.89 721.09 492.89 C 721.11 505.90 721.14 518.91 721.07 531.92 C 728.69 531.94 736.31 531.92 743.93 531.93 C 743.94 534.88 743.95 537.83 743.99 540.79 C 736.29 540.78 728.60 540.85 720.92 540.78 C 716.28 540.88 712.07 536.71 712.18 532.07 C 712.06 503.39 712.19 474.71 712.11 446.03 C 712.00 443.09 712.40 439.84 714.72 437.76 C 717.06 435.15 720.75 434.88 724.04 434.91 C 760.08 434.97 796.12 434.89 832.17 434.95 C 832.17 421.93 832.17 408.91 832.17 395.89 C 788.78 395.90 745.39 395.88 702.00 395.89 C 693.68 395.90 685.30 399.25 679.71 405.50 M 445.03 493.81 C 445.15 513.21 445.01 532.61 445.10 552.02 C 444.73 565.15 454.09 577.81 466.92 580.94 C 471.82 582.31 476.95 581.85 481.98 581.92 C 524.40 581.94 566.82 581.88 609.24 581.95 C 609.24 568.92 609.24 555.90 609.25 542.87 C 571.16 542.88 533.07 542.87 494.98 542.88 C 489.43 543.12 484.75 538.48 483.88 533.17 C 516.33 532.92 548.79 533.14 581.25 533.06 C 581.25 519.97 581.24 506.89 581.25 493.80 C 535.85 493.82 490.44 493.80 445.03 493.81 Z" />
<path fill="#ffffff" opacity="1.00" d=" M 963.71 497.59 C 965.28 499.56 965.54 502.17 966.39 504.48 C 969.93 515.27 973.32 526.11 976.99 536.85 C 968.01 536.88 959.02 536.98 950.03 536.79 C 954.75 523.78 959.40 510.74 963.71 497.59 Z" />
<path fill="#ffffff" opacity="1.00" d=" M 249.78 681.00 C 251.42 680.18 252.97 678.84 254.92 679.05 C 508.62 679.04 762.31 679.06 1016.01 679.04 C 1018.36 679.21 1021.00 678.49 1023.13 679.85 C 1060.41 700.53 1097.74 721.10 1135.00 741.80 C 1134.91 784.21 1134.93 826.63 1134.99 869.04 C 1098.97 888.98 1062.94 908.89 1026.93 928.85 C 1024.41 930.09 1022.04 932.24 1019.06 931.96 C 766.03 931.94 513.01 931.95 259.98 931.96 C 257.35 931.78 254.44 932.53 252.07 931.07 C 214.73 910.36 177.36 889.72 140.01 869.04 C 140.08 826.62 140.07 784.20 140.01 741.78 C 176.58 721.49 213.20 701.29 249.78 681.00 M 255.58 695.48 C 222.20 714.03 188.76 732.44 155.38 750.98 C 155.42 787.24 155.44 823.49 155.37 859.74 C 178.19 872.60 201.20 885.12 224.08 897.88 C 235.48 903.97 246.60 910.67 258.13 916.48 C 510.42 916.72 762.73 916.49 1015.03 916.60 C 1017.39 916.84 1019.32 915.30 1021.30 914.29 C 1054.03 896.05 1086.90 878.05 1119.61 859.78 C 1119.59 823.53 1119.55 787.27 1119.64 751.02 C 1087.59 733.16 1055.45 715.49 1023.37 697.69 C 1020.96 696.57 1018.80 694.49 1016.04 694.42 C 765.71 694.42 515.38 694.43 265.04 694.41 C 261.90 694.63 258.39 693.65 255.58 695.48 Z" />
<path fill="#ffffff" opacity="1.00" d=" M 309.12 731.32 C 365.91 731.33 422.70 731.43 479.49 731.27 L 480.05 731.27 C 466.43 738.70 452.45 745.48 438.74 752.75 C 436.96 753.67 435.15 754.83 433.06 754.62 C 391.75 754.59 350.44 754.59 309.13 754.61 C 309.24 788.54 309.23 822.47 309.14 856.39 C 346.81 856.42 384.48 856.39 422.15 856.41 C 422.14 841.28 422.15 826.16 422.15 811.03 L 422.15 809.67 C 402.51 809.77 382.87 809.46 363.24 809.84 C 374.71 803.26 386.76 797.70 398.41 791.43 C 402.57 789.71 406.27 786.15 411.05 786.62 C 433.99 786.70 456.93 786.60 479.87 786.68 C 479.70 807.75 479.83 828.82 479.81 849.89 C 460.79 859.63 441.87 869.59 422.76 879.15 C 412.22 879.76 401.58 879.21 391.00 879.40 C 344.43 879.50 297.85 879.21 251.28 879.54 C 251.65 850.03 251.34 820.51 251.44 790.99 C 251.29 781.09 251.74 771.18 251.22 761.30 C 270.33 750.97 289.78 741.24 309.12 731.32 Z" />
<path fill="#ffffff" opacity="1.00" d=" M 579.60 731.35 C 627.25 731.27 674.90 731.49 722.55 731.24 L 723.24 731.23 C 720.10 733.56 716.40 734.92 712.99 736.76 C 702.90 742.10 692.65 747.10 682.60 752.51 C 680.53 753.56 678.40 754.86 675.98 754.62 C 643.91 754.57 611.83 754.62 579.76 754.59 C 579.76 766.72 579.81 778.85 579.74 790.99 L 579.72 792.39 C 616.95 792.74 654.20 792.38 691.43 792.57 C 677.27 800.09 662.92 807.26 648.71 814.70 C 646.40 816.14 643.59 815.70 641.02 815.77 C 620.60 815.71 600.18 815.77 579.76 815.74 C 579.77 829.30 579.78 842.85 579.76 856.41 C 627.60 856.40 675.43 856.39 723.27 856.41 C 708.54 864.12 693.76 871.76 678.88 879.16 C 653.32 879.73 627.66 879.24 602.07 879.40 C 575.43 879.49 548.79 879.23 522.16 879.53 C 522.57 852.67 522.22 825.80 522.34 798.94 C 522.13 786.41 522.76 773.85 522.03 761.35 C 524.84 759.23 528.12 757.89 531.22 756.26 C 547.34 747.93 563.47 739.64 579.60 731.35 Z" />
<path fill="#ffffff" opacity="1.00" d=" M 776.71 731.37 C 798.36 731.26 820.01 731.47 841.65 731.27 C 876.71 749.77 912.20 767.48 947.29 785.92 C 947.20 767.73 947.33 749.54 947.22 731.35 C 966.53 731.28 985.85 731.48 1005.17 731.25 C 1004.56 756.49 1005.08 781.78 1004.91 807.04 C 1004.95 831.15 1004.82 855.27 1004.97 879.38 C 985.71 879.41 966.46 879.41 947.20 879.38 C 947.38 858.80 947.13 838.21 947.33 817.63 C 910.61 798.58 873.78 779.74 837.04 760.73 C 836.53 760.47 835.51 759.97 835.00 759.71 L 834.25 759.34 C 834.41 799.36 834.25 839.38 834.33 879.41 C 815.08 879.40 795.83 879.38 776.57 879.42 C 776.53 830.07 776.76 780.72 776.46 731.37 L 776.71 731.37 Z" />
</g>
<g id="#034693ff">
<path fill="#034693" opacity="1.00" d=" M 936.94 348.89 C 952.60 341.52 971.36 340.92 987.40 347.48 C 1003.84 354.10 1017.08 367.91 1023.48 384.39 C 1051.12 465.86 1078.51 547.42 1106.10 628.91 C 1053.35 628.90 1000.61 628.88 947.86 628.92 C 947.86 615.87 947.87 602.81 947.86 589.75 C 982.56 589.73 1017.26 589.81 1051.96 589.72 C 1030.58 527.00 1009.64 464.14 988.41 401.38 C 986.66 396.44 985.54 391.06 982.07 386.97 C 977.53 381.33 970.04 378.44 962.88 379.19 C 954.71 379.75 947.18 385.42 944.42 393.15 C 917.26 471.73 890.25 550.37 863.08 628.95 C 812.73 628.85 762.38 628.93 712.04 628.90 C 704.66 628.85 697.23 629.22 689.92 628.02 C 673.74 625.51 658.43 617.72 646.93 606.07 C 634.32 593.57 626.19 576.63 624.45 558.96 C 623.96 554.33 624.13 549.67 624.11 545.03 C 624.11 505.03 624.12 465.03 624.11 425.03 C 624.10 408.71 629.70 392.53 639.43 379.47 C 653.60 360.14 677.04 348.08 701.03 347.92 C 744.74 347.80 788.46 347.90 832.17 347.87 C 832.16 360.95 832.17 374.04 832.17 387.13 C 788.78 387.13 745.40 387.12 702.01 387.13 C 682.42 387.22 664.73 404.31 664.24 423.95 C 664.15 466.64 664.21 509.34 664.21 552.03 C 664.32 571.59 681.39 589.15 700.96 589.73 C 731.62 589.78 762.29 589.76 792.96 589.74 C 792.88 554.54 792.87 519.34 792.96 484.14 C 769.01 484.07 745.05 484.13 721.10 484.11 C 721.11 471.02 721.14 457.93 721.08 444.85 C 757.77 444.85 794.45 444.85 831.14 444.85 C 831.19 496.94 831.03 549.05 831.22 601.14 C 854.97 531.61 878.66 462.07 902.41 392.54 C 904.07 387.81 905.28 382.91 907.44 378.36 C 913.40 365.47 924.06 354.86 936.94 348.89 Z" />
<path fill="#034693" opacity="1.00" d=" M 188.46 374.40 C 205.10 357.72 228.43 348.16 251.96 347.92 C 294.06 347.79 336.16 347.91 378.26 347.86 C 378.25 360.95 378.25 374.04 378.26 387.13 C 336.84 387.11 295.43 387.14 254.02 387.12 C 238.71 386.99 223.74 394.30 213.91 405.94 C 203.37 418.14 198.88 435.36 202.49 451.12 C 206.50 469.86 221.47 485.68 239.91 490.85 C 249.99 493.91 260.61 492.61 270.98 492.89 C 279.93 493.17 289.11 491.95 297.86 494.45 C 312.47 498.46 324.51 510.50 328.61 525.08 C 332.04 536.88 330.06 550.08 323.36 560.38 C 315.63 572.61 301.64 580.91 287.06 580.89 C 245.09 580.88 203.13 580.89 161.16 580.88 C 161.23 567.87 161.22 554.86 161.17 541.84 C 202.80 541.80 244.44 541.90 286.06 541.79 C 291.42 541.61 291.47 532.48 286.11 532.12 C 267.16 531.00 247.74 534.05 229.19 528.89 C 207.63 523.23 188.41 509.31 176.24 490.64 C 166.20 475.46 160.90 457.23 161.19 439.03 C 161.22 415.00 171.27 391.19 188.46 374.40 M 162.49 428.70 C 161.85 436.14 161.52 443.77 162.67 451.18 C 163.12 443.71 163.43 436.13 162.49 428.70 Z" />
<path fill="#034693" opacity="1.00" d=" M 413.29 378.41 C 427.52 359.69 450.53 348.09 474.06 347.92 C 519.12 347.80 564.18 347.91 609.25 347.86 C 609.24 360.95 609.24 374.04 609.24 387.13 C 564.49 387.11 519.74 387.14 474.99 387.12 C 465.97 387.03 457.06 390.45 450.17 396.21 C 441.41 403.41 436.14 414.61 436.22 425.95 C 436.18 467.32 436.21 508.68 436.20 550.04 C 436.06 558.57 438.75 567.12 443.85 573.96 C 450.97 583.73 462.88 589.95 475.02 589.77 C 519.76 589.74 564.51 589.77 609.26 589.75 C 609.22 602.81 609.25 615.88 609.24 628.94 C 568.16 628.86 527.08 628.93 485.99 628.90 C 477.63 628.84 469.18 629.31 460.92 627.66 C 444.08 624.62 428.41 615.74 417.03 602.98 C 404.56 589.14 397.23 570.70 397.15 552.04 C 397.15 509.68 397.15 467.33 397.14 424.97 C 397.20 408.23 403.07 391.64 413.29 378.41 Z" />
<path fill="#034693" opacity="1.00" d=" M 952.45 397.37 C 954.67 390.91 962.23 386.16 968.96 388.52 C 973.09 389.91 975.99 393.67 977.34 397.70 C 997.98 458.74 1018.39 519.88 1039.17 580.87 C 1008.42 580.89 977.67 580.90 946.92 580.86 C 947.02 569.48 946.68 558.08 947.21 546.70 C 945.47 549.80 944.64 553.28 943.50 556.62 C 935.35 580.73 927.25 604.85 919.08 628.94 C 903.69 628.86 888.30 628.92 872.91 628.91 C 899.49 551.75 925.95 474.55 952.45 397.37 M 963.71 497.59 C 959.40 510.74 954.75 523.78 950.03 536.79 C 959.02 536.98 968.01 536.88 976.99 536.85 C 973.32 526.11 969.93 515.27 966.39 504.48 C 965.54 502.17 965.28 499.56 963.71 497.59 Z" />
<path fill="#034693" opacity="1.00" d=" M 212.17 424.08 C 218.38 407.97 234.61 396.22 251.96 395.92 C 294.06 395.84 336.16 395.92 378.25 395.88 C 378.25 409.29 378.26 422.69 378.25 436.09 C 336.49 436.13 294.72 435.99 252.96 436.16 C 248.01 436.39 248.27 444.32 253.02 444.71 C 265.66 445.15 278.33 444.53 290.98 445.01 C 310.61 445.91 329.88 453.35 344.98 465.94 C 358.32 476.93 368.43 491.81 373.74 508.26 C 380.43 528.77 379.66 551.61 371.55 571.61 C 364.73 588.56 352.69 603.37 337.47 613.50 C 322.63 623.47 304.80 628.92 286.93 628.91 C 245.01 628.91 203.09 628.90 161.17 628.91 C 161.20 615.86 161.26 602.81 161.14 589.77 C 202.76 589.75 244.37 589.75 285.98 589.77 C 302.62 589.73 318.76 580.86 328.31 567.34 C 336.79 555.57 340.14 540.19 336.96 526.01 C 333.01 506.97 317.72 490.95 298.98 485.90 C 290.55 483.32 281.67 484.28 273.00 484.11 C 265.33 483.99 257.65 484.36 249.99 483.88 C 235.15 482.98 221.38 473.69 214.40 460.65 C 208.33 449.58 207.45 435.80 212.17 424.08 Z" />
<path fill="#034693" opacity="1.00" d=" M 448.50 411.66 C 453.39 401.86 464.19 395.78 475.04 395.90 C 519.43 395.87 563.82 395.90 608.21 395.89 C 608.20 409.29 608.21 422.69 608.20 436.09 C 569.76 436.11 531.32 436.04 492.88 436.12 C 488.05 436.01 484.63 440.33 483.87 444.75 C 516.33 444.98 548.79 444.79 581.25 444.84 C 581.24 457.93 581.25 471.02 581.25 484.11 C 535.85 484.11 490.46 484.11 445.06 484.11 C 445.08 466.75 445.08 449.39 445.07 432.03 C 444.90 425.12 445.03 417.86 448.50 411.66 Z" />
<path fill="#034693" opacity="1.00" d=" M 679.71 405.50 C 685.30 399.25 693.68 395.90 702.00 395.89 C 745.39 395.88 788.78 395.90 832.17 395.89 C 832.17 408.91 832.17 421.93 832.17 434.95 C 796.12 434.89 760.08 434.97 724.04 434.91 C 720.75 434.88 717.06 435.15 714.72 437.76 C 712.40 439.84 712.00 443.09 712.11 446.03 C 712.19 474.71 712.06 503.39 712.18 532.07 C 712.07 536.71 716.28 540.88 720.92 540.78 C 728.60 540.85 736.29 540.78 743.99 540.79 C 743.95 537.83 743.94 534.88 743.93 531.93 C 736.31 531.92 728.69 531.94 721.07 531.92 C 721.14 518.91 721.11 505.90 721.09 492.89 C 741.80 492.89 762.50 492.89 783.21 492.89 C 783.20 522.23 783.20 551.57 783.21 580.91 C 755.77 580.85 728.33 580.91 700.90 580.88 C 691.25 580.84 681.78 575.62 676.69 567.40 C 673.15 561.97 671.87 555.42 671.93 549.02 C 671.93 508.34 671.89 467.67 671.95 427.00 C 671.86 419.20 674.39 411.30 679.71 405.50 Z" />
<path fill="#034693" opacity="1.00" d=" M 445.03 493.81 C 490.44 493.80 535.85 493.82 581.25 493.80 C 581.24 506.89 581.25 519.97 581.25 533.06 C 548.79 533.14 516.33 532.92 483.88 533.17 C 484.75 538.48 489.43 543.12 494.98 542.88 C 533.07 542.87 571.16 542.88 609.25 542.87 C 609.24 555.90 609.24 568.92 609.24 581.95 C 566.82 581.88 524.40 581.94 481.98 581.92 C 476.95 581.85 471.82 582.31 466.92 580.94 C 454.09 577.81 444.73 565.15 445.10 552.02 C 445.01 532.61 445.15 513.21 445.03 493.81 Z" />
<path fill="#034693" opacity="1.00" d=" M 255.58 695.48 C 258.39 693.65 261.90 694.63 265.04 694.41 C 515.38 694.43 765.71 694.42 1016.04 694.42 C 1018.80 694.49 1020.96 696.57 1023.37 697.69 C 1055.45 715.49 1087.59 733.16 1119.64 751.02 C 1119.55 787.27 1119.59 823.53 1119.61 859.78 C 1086.90 878.05 1054.03 896.05 1021.30 914.29 C 1019.32 915.30 1017.39 916.84 1015.03 916.60 C 762.73 916.49 510.42 916.72 258.13 916.48 C 246.60 910.67 235.48 903.97 224.08 897.88 C 201.20 885.12 178.19 872.60 155.37 859.74 C 155.44 823.49 155.42 787.24 155.38 750.98 C 188.76 732.44 222.20 714.03 255.58 695.48 M 307.68 730.49 L 309.12 731.32 C 289.78 741.24 270.33 750.97 251.22 761.30 L 250.25 760.44 C 249.75 768.26 250.10 776.10 249.99 783.93 C 249.96 813.94 250.08 843.95 249.94 873.96 C 250.00 875.88 249.77 878.04 251.28 879.54 C 297.85 879.21 344.43 879.50 391.00 879.40 C 401.58 879.21 412.22 879.76 422.76 879.15 C 441.87 869.59 460.79 859.63 479.81 849.89 C 479.83 828.82 479.70 807.75 479.87 786.68 C 456.93 786.60 433.99 786.70 411.05 786.62 C 406.27 786.15 402.57 789.71 398.41 791.43 C 386.76 797.70 374.71 803.26 363.24 809.84 C 365.88 811.43 369.05 810.98 371.99 811.06 C 388.71 810.95 405.43 811.00 422.15 811.03 C 422.15 826.16 422.14 841.28 422.15 856.41 C 384.48 856.39 346.81 856.42 309.14 856.39 C 309.23 822.47 309.24 788.54 309.13 754.61 C 350.44 754.59 391.75 754.59 433.06 754.62 C 435.15 754.83 436.96 753.67 438.74 752.75 C 452.45 745.48 466.43 738.70 480.05 731.27 L 479.49 731.27 C 478.22 730.18 476.58 729.96 474.99 729.97 C 420.98 730.03 366.97 730.00 312.97 729.98 C 311.19 730.02 309.43 730.23 307.68 730.49 M 577.74 730.31 C 578.21 730.57 579.13 731.09 579.60 731.35 C 563.47 739.64 547.34 747.93 531.22 756.26 C 528.12 757.89 524.84 759.23 522.03 761.35 L 521.33 760.39 C 520.72 765.56 521.05 770.77 521.03 775.96 C 520.94 808.62 521.04 841.29 520.95 873.95 C 521.01 875.85 520.77 877.98 522.16 879.53 C 548.79 879.23 575.43 879.49 602.07 879.40 C 627.66 879.24 653.32 879.73 678.88 879.16 C 693.76 871.76 708.54 864.12 723.27 856.41 C 675.43 856.39 627.60 856.40 579.76 856.41 C 579.78 842.85 579.77 829.30 579.76 815.74 C 600.18 815.77 620.60 815.71 641.02 815.77 C 643.59 815.70 646.40 816.14 648.71 814.70 C 662.92 807.26 677.27 800.09 691.43 792.57 C 654.20 792.38 616.95 792.74 579.72 792.39 C 585.77 791.60 591.88 792.02 597.96 791.94 C 624.28 791.99 650.61 791.89 676.94 791.95 C 681.72 791.94 686.52 792.15 691.29 791.56 C 686.90 790.64 682.41 790.99 677.97 791.00 C 645.23 790.98 612.48 790.99 579.74 790.99 C 579.81 778.85 579.76 766.72 579.76 754.59 C 611.83 754.62 643.91 754.57 675.98 754.62 C 678.40 754.86 680.53 753.56 682.60 752.51 C 692.65 747.10 702.90 742.10 712.99 736.76 C 716.40 734.92 720.10 733.56 723.24 731.23 L 722.55 731.24 C 721.27 730.10 719.60 729.92 717.99 729.95 C 684.98 730.03 651.97 729.99 618.97 730.00 C 605.23 730.21 591.46 729.56 577.74 730.31 M 776.71 731.37 L 776.46 731.37 C 776.76 780.72 776.53 830.07 776.57 879.42 C 795.83 879.38 815.08 879.40 834.33 879.41 C 834.25 839.38 834.41 799.36 834.25 759.34 L 835.00 759.71 C 835.09 788.79 834.98 817.88 835.03 846.97 C 835.19 857.81 834.63 868.69 835.32 879.52 C 835.74 878.06 836.10 876.56 836.08 875.04 C 835.94 840.37 836.09 805.68 835.98 771.01 C 835.86 767.54 835.90 764.03 837.04 760.73 C 873.78 779.74 910.61 798.58 947.33 817.63 C 947.13 838.21 947.38 858.80 947.20 879.38 C 966.46 879.41 985.71 879.41 1004.97 879.38 C 1004.82 855.27 1004.95 831.15 1004.91 807.04 C 1005.08 781.78 1004.56 756.49 1005.17 731.25 C 1004.85 730.99 1004.21 730.47 1003.89 730.21 C 998.94 729.68 993.95 730.16 988.99 730.02 C 975.08 730.16 961.15 729.71 947.25 730.20 L 947.22 731.35 C 947.33 749.54 947.20 767.73 947.29 785.92 C 912.20 767.48 876.71 749.77 841.65 731.27 L 843.36 731.15 C 842.98 730.92 842.23 730.47 841.86 730.25 C 835.26 729.62 828.59 730.26 821.96 729.98 C 807.33 730.17 792.67 729.64 778.06 730.23 C 777.73 730.52 777.05 731.09 776.71 731.37 M 775.33 730.67 C 774.53 744.76 775.22 758.91 775.00 773.02 C 775.00 805.02 775.00 837.01 775.00 869.01 C 775.04 872.52 774.54 876.13 775.63 879.56 C 776.33 869.05 775.78 858.51 775.94 847.99 C 775.97 812.32 775.93 776.64 775.94 740.96 C 775.90 737.53 776.32 734.01 775.33 730.67 M 406.59 785.58 C 411.05 786.17 415.56 785.94 420.05 785.94 C 435.04 785.93 450.04 785.99 465.04 785.91 C 470.12 785.88 475.22 786.26 480.28 785.56 C 478.50 785.24 476.71 784.97 474.91 784.95 C 453.60 785.02 432.28 785.01 410.97 784.95 C 409.48 784.97 408.03 785.26 406.59 785.58 Z" />
</g>
<g id="#002a83ff">
<path fill="#002a83" opacity="1.00" d=" M 162.49 428.70 C 163.43 436.13 163.12 443.71 162.67 451.18 C 161.52 443.77 161.85 436.14 162.49 428.70 Z" />
<path fill="#002a83" opacity="1.00" d=" M 406.59 785.58 C 408.03 785.26 409.48 784.97 410.97 784.95 C 432.28 785.01 453.60 785.02 474.91 784.95 C 476.71 784.97 478.50 785.24 480.28 785.56 C 475.22 786.26 470.12 785.88 465.04 785.91 C 450.04 785.99 435.04 785.93 420.05 785.94 C 415.56 785.94 411.05 786.17 406.59 785.58 Z" />
</g>
<g id="#002c84ff">
<path fill="#002c84" opacity="1.00" d=" M 307.68 730.49 C 309.43 730.23 311.19 730.02 312.97 729.98 C 366.97 730.00 420.98 730.03 474.99 729.97 C 476.58 729.96 478.22 730.18 479.49 731.27 C 422.70 731.43 365.91 731.33 309.12 731.32 L 307.68 730.49 Z" />
<path fill="#002c84" opacity="1.00" d=" M 577.74 730.31 C 591.46 729.56 605.23 730.21 618.97 730.00 C 651.97 729.99 684.98 730.03 717.99 729.95 C 719.60 729.92 721.27 730.10 722.55 731.24 C 674.90 731.49 627.25 731.27 579.60 731.35 C 579.13 731.09 578.21 730.57 577.74 730.31 Z" />
<path fill="#002c84" opacity="1.00" d=" M 776.71 731.37 C 777.05 731.09 777.73 730.52 778.06 730.23 C 792.67 729.64 807.33 730.17 821.96 729.98 C 828.59 730.26 835.26 729.62 841.86 730.25 C 842.23 730.47 842.98 730.92 843.36 731.15 L 841.65 731.27 C 820.01 731.47 798.36 731.26 776.71 731.37 Z" />
<path fill="#002c84" opacity="1.00" d=" M 947.25 730.20 C 961.15 729.71 975.08 730.16 988.99 730.02 C 993.95 730.16 998.94 729.68 1003.89 730.21 C 1004.21 730.47 1004.85 730.99 1005.17 731.25 C 985.85 731.48 966.53 731.28 947.22 731.35 L 947.25 730.20 Z" />
<path fill="#002c84" opacity="1.00" d=" M 521.33 760.39 L 522.03 761.35 C 522.76 773.85 522.13 786.41 522.34 798.94 C 522.22 825.80 522.57 852.67 522.16 879.53 C 520.77 877.98 521.01 875.85 520.95 873.95 C 521.04 841.29 520.94 808.62 521.03 775.96 C 521.05 770.77 520.72 765.56 521.33 760.39 Z" />
</g>
<g id="#002881ff">
<path fill="#002881" opacity="1.00" d=" M 775.33 730.67 C 776.32 734.01 775.90 737.53 775.94 740.96 C 775.93 776.64 775.97 812.32 775.94 847.99 C 775.78 858.51 776.33 869.05 775.63 879.56 C 774.54 876.13 775.04 872.52 775.00 869.01 C 775.00 837.01 775.00 805.02 775.00 773.02 C 775.22 758.91 774.53 744.76 775.33 730.67 Z" />
</g>
<g id="#012d84ff">
<path fill="#012d84" opacity="1.00" d=" M 835.00 759.71 C 835.51 759.97 836.53 760.47 837.04 760.73 C 835.90 764.03 835.86 767.54 835.98 771.01 C 836.09 805.68 835.94 840.37 836.08 875.04 C 836.10 876.56 835.74 878.06 835.32 879.52 C 834.63 868.69 835.19 857.81 835.03 846.97 C 834.98 817.88 835.09 788.79 835.00 759.71 Z" />
</g>
<g id="#002680ff">
<path fill="#002680" opacity="1.00" d=" M 250.25 760.44 L 251.22 761.30 C 251.74 771.18 251.29 781.09 251.44 790.99 C 251.34 820.51 251.65 850.03 251.28 879.54 C 249.77 878.04 250.00 875.88 249.94 873.96 C 250.08 843.95 249.96 813.94 249.99 783.93 C 250.10 776.10 249.75 768.26 250.25 760.44 Z" />
<path fill="#002680" opacity="1.00" d=" M 579.74 790.99 C 612.48 790.99 645.23 790.98 677.97 791.00 C 682.41 790.99 686.90 790.64 691.29 791.56 C 686.52 792.15 681.72 791.94 676.94 791.95 C 650.61 791.89 624.28 791.99 597.96 791.94 C 591.88 792.02 585.77 791.60 579.72 792.39 L 579.74 790.99 Z" />
</g>
<g id="#002d85ff">
<path fill="#002d85" opacity="1.00" d=" M 363.24 809.84 C 382.87 809.46 402.51 809.77 422.15 809.67 L 422.15 811.03 C 405.43 811.00 388.71 810.95 371.99 811.06 C 369.05 810.98 365.88 811.43 363.24 809.84 Z" />
</g>
</svg>
