<?xml version="1.0" encoding="UTF-8" ?>
<!DOCTYPE svg PUBLIC "-//W3C//DTD SVG 1.1//EN" "http://www.w3.org/Graphics/SVG/1.1/DTD/svg11.dtd">
<svg width="1276pt" height="1276pt" viewBox="0 0 1276 1276" version="1.1" xmlns="http://www.w3.org/2000/svg">
<g id="#e8362dff">
<path fill="#e8362d" opacity="1.00" d=" M 200.15 357.19 C 227.16 342.70 258.81 337.26 289.14 341.48 C 316.14 345.12 342.00 356.62 362.89 374.09 C 369.02 379.07 374.45 384.82 379.89 390.52 C 363.05 407.09 346.53 423.97 329.72 440.57 C 319.47 427.48 305.16 417.52 289.05 413.19 C 272.51 408.78 254.45 409.90 238.71 416.72 C 220.95 424.29 206.30 438.86 198.67 456.60 C 192.12 471.54 190.70 488.61 194.33 504.49 C 198.61 523.21 210.27 540.11 226.25 550.76 C 240.99 560.80 259.35 565.26 277.07 563.34 C 301.09 561.07 323.14 546.37 335.31 525.66 C 303.85 525.64 272.39 525.66 240.93 525.65 C 240.90 502.12 240.92 478.59 240.92 455.06 C 298.12 455.15 355.33 454.86 412.53 455.22 C 415.16 469.59 417.17 484.32 415.35 498.92 C 412.84 534.52 396.39 568.89 370.50 593.42 C 344.62 618.52 309.10 633.45 273.04 634.15 C 236.16 635.47 199.10 621.92 171.60 597.35 C 146.13 574.96 128.84 543.47 123.76 509.94 C 119.32 481.46 123.33 451.66 135.51 425.51 C 148.82 396.49 171.91 372.09 200.15 357.19 Z" />
<path fill="#e8362d" opacity="1.00" d=" M 531.56 345.71 C 537.52 344.79 543.60 344.70 549.56 345.63 C 572.26 347.31 594.63 357.00 610.31 373.69 C 626.68 390.83 634.47 414.94 634.10 438.38 C 610.80 438.48 587.49 438.37 564.18 438.41 C 563.51 432.14 561.66 425.53 556.64 421.33 C 548.45 414.09 535.11 413.72 526.43 420.32 C 520.74 424.44 517.95 431.58 517.89 438.45 C 494.53 438.32 471.16 438.48 447.79 438.38 C 447.49 422.74 450.78 406.93 457.90 392.96 C 471.62 365.38 501.26 347.88 531.56 345.71 Z" />
<path fill="#e8362d" opacity="1.00" d=" M 722.87 348.82 C 729.66 346.42 736.86 345.57 744.00 344.98 C 757.54 345.27 771.16 348.82 782.54 356.31 C 797.82 366.02 808.65 381.65 814.44 398.63 C 818.49 410.69 820.54 423.42 820.43 436.15 C 821.26 417.27 824.76 397.99 834.66 381.61 C 843.69 366.16 858.27 353.83 875.43 348.45 C 881.74 346.35 888.39 345.60 894.98 344.99 C 911.23 345.08 927.55 350.41 940.17 360.79 C 954.55 372.38 963.99 389.28 968.35 407.07 C 971.85 420.42 972.25 434.30 972.04 448.02 C 972.04 512.96 972.04 577.89 972.03 642.83 C 948.59 642.83 925.15 642.83 901.71 642.83 C 901.70 576.21 901.70 509.59 901.71 442.97 C 901.76 436.87 901.60 430.29 897.86 425.14 C 890.04 413.42 871.10 412.44 861.66 422.68 C 857.21 427.23 855.72 433.79 855.80 439.98 C 855.75 507.59 855.79 575.21 855.78 642.83 C 832.30 642.83 808.82 642.83 785.34 642.83 C 785.33 574.57 785.36 506.31 785.32 438.05 C 785.46 431.92 783.04 425.72 778.48 421.57 C 772.00 415.56 762.07 414.18 753.89 417.11 C 747.03 419.53 741.50 425.64 740.19 432.85 C 739.26 438.18 739.55 443.62 739.51 449.02 C 739.52 513.62 739.51 578.22 739.52 642.82 C 716.06 642.83 692.61 642.83 669.15 642.83 C 669.14 573.90 669.17 504.98 669.14 436.05 C 669.66 416.85 673.61 397.27 683.76 380.73 C 692.63 366.05 706.51 354.26 722.87 348.82 Z" />
<path fill="#e8362d" opacity="1.00" d=" M 1007.02 344.99 C 1056.22 344.98 1105.41 345.00 1154.61 345.01 C 1154.59 368.56 1154.60 392.10 1154.60 415.65 C 1128.89 415.65 1103.17 415.65 1077.46 415.65 C 1077.42 430.09 1077.50 444.52 1077.42 458.96 C 1103.15 459.11 1128.88 458.97 1154.61 459.03 C 1154.58 482.44 1154.61 505.85 1154.59 529.26 C 1128.88 529.26 1103.16 529.26 1077.45 529.26 C 1077.46 543.62 1077.44 557.97 1077.46 572.33 C 1103.18 572.32 1128.89 572.32 1154.60 572.32 C 1154.60 595.82 1154.60 619.32 1154.60 642.81 C 1124.40 642.82 1094.19 642.82 1063.99 642.82 C 1054.34 642.86 1044.68 640.41 1036.26 635.68 C 1020.29 626.94 1009.09 610.07 1007.40 591.93 C 1006.65 583.98 1007.17 575.98 1007.02 568.01 C 1007.02 493.67 1007.02 419.33 1007.02 344.99 Z" />
<path fill="#e8362d" opacity="1.00" d=" M 447.64 438.55 C 471.09 438.66 494.53 438.50 517.97 438.62 C 517.97 455.87 517.97 473.12 517.97 490.37 C 533.31 490.39 548.64 490.38 563.98 490.38 C 563.98 473.11 563.98 455.84 563.97 438.57 C 587.35 438.57 610.73 438.64 634.11 438.56 C 634.11 506.65 634.12 574.74 634.11 642.83 C 610.73 642.83 587.36 642.83 563.98 642.82 C 563.97 615.55 563.98 588.27 563.98 560.99 C 548.64 561.00 533.31 560.96 517.97 561.01 C 517.97 588.28 517.98 615.56 517.97 642.83 C 494.53 642.83 471.09 642.83 447.65 642.83 C 447.64 574.74 447.66 506.64 447.64 438.55 Z" />
<path fill="#e8362d" opacity="1.00" d=" M 1010.13 724.15 C 1027.05 708.09 1050.68 699.39 1073.97 700.55 C 1094.07 701.53 1113.86 709.61 1128.62 723.34 C 1142.26 735.51 1151.53 752.23 1155.40 770.04 C 1157.38 781.31 1157.45 792.91 1155.64 804.20 C 1151.09 828.66 1135.47 850.52 1114.17 863.25 C 1126.19 875.11 1138.06 887.10 1150.03 899.01 C 1137.75 911.45 1125.43 923.87 1112.92 936.08 C 1092.36 915.66 1071.96 895.09 1051.44 874.63 C 1049.36 872.69 1049.44 869.58 1048.55 867.08 C 1043.79 850.22 1039.93 833.13 1035.00 816.33 C 1034.83 855.19 1034.86 894.04 1034.85 932.90 C 1017.39 932.89 999.94 932.91 982.48 932.89 C 982.51 883.60 982.45 834.30 982.51 785.01 C 983.24 762.13 993.30 739.70 1010.13 724.15 M 1062.53 753.80 C 1057.46 755.07 1052.39 756.96 1048.41 760.46 C 1035.42 770.00 1030.91 789.34 1038.69 803.54 C 1045.71 818.52 1064.49 826.50 1080.17 821.24 C 1088.32 818.70 1095.51 813.19 1099.82 805.78 C 1108.35 791.81 1105.35 771.85 1092.57 761.43 C 1084.48 754.30 1073.01 751.68 1062.53 753.80 Z" />
<path fill="#e8362d" opacity="1.00" d=" M 166.93 712.09 C 177.41 709.65 188.44 711.58 198.22 715.73 C 212.60 722.37 223.42 735.53 228.32 750.47 C 231.57 759.33 232.74 768.77 233.53 778.12 C 233.33 762.95 237.27 747.52 245.77 734.85 C 253.90 722.99 266.67 714.08 281.01 711.87 C 302.46 707.69 325.21 719.46 335.65 738.36 C 342.74 749.92 345.32 763.61 346.11 776.98 C 346.13 828.95 346.12 880.92 346.12 932.90 C 328.61 932.90 311.11 932.90 293.60 932.90 C 293.57 881.91 293.64 830.92 293.57 779.93 C 293.90 771.02 285.81 763.36 277.04 763.48 C 269.96 763.11 262.76 767.59 260.41 774.35 C 259.35 777.11 259.38 780.11 259.34 783.03 C 259.35 832.98 259.35 882.94 259.34 932.90 C 241.84 932.90 224.34 932.90 206.83 932.90 C 206.82 882.92 206.83 832.94 206.83 782.96 C 207.09 777.65 206.02 771.83 201.89 768.14 C 195.15 761.64 183.27 761.97 176.98 768.94 C 173.12 772.50 172.92 778.13 172.80 783.01 C 172.81 832.97 172.80 882.93 172.81 932.89 C 155.21 932.90 137.62 932.89 120.02 932.90 C 120.01 882.95 120.04 833.00 120.01 783.05 C 120.01 767.48 122.79 751.48 130.86 737.97 C 138.61 724.88 151.81 714.76 166.93 712.09 Z" />
<path fill="#e8362d" opacity="1.00" d=" M 384.75 738.77 C 399.94 717.25 428.51 707.69 453.99 712.12 C 468.20 714.20 481.85 720.64 492.06 730.82 C 505.23 743.64 511.49 762.29 511.46 780.43 C 493.98 780.41 476.49 780.47 459.02 780.33 C 458.25 776.19 457.66 771.54 454.30 768.60 C 448.34 762.43 437.76 761.71 431.04 767.05 C 426.56 770.13 424.67 775.78 424.66 781.02 C 424.70 793.75 424.66 806.48 424.68 819.21 C 436.08 819.21 447.48 819.21 458.89 819.21 C 458.88 806.29 458.91 793.37 458.87 780.46 C 476.39 780.81 493.92 780.42 511.45 780.55 C 511.45 831.33 511.45 882.12 511.45 932.90 C 493.93 932.89 476.41 932.90 458.89 932.90 C 458.88 912.59 458.89 892.30 458.89 872.00 C 447.48 871.98 436.08 871.99 424.68 871.99 C 424.68 892.29 424.67 912.59 424.68 932.89 C 407.20 932.91 389.72 932.89 372.24 932.90 C 372.23 882.20 372.20 831.50 372.25 780.80 C 372.32 765.99 375.84 750.83 384.75 738.77 M 374.05 780.04 L 374.05 780.98 C 389.01 781.08 403.98 780.90 418.95 781.06 C 420.85 781.09 422.80 781.01 424.57 780.24 C 407.75 779.72 390.89 780.08 374.05 780.04 Z" />
<path fill="#e8362d" opacity="1.00" d=" M 632.40 715.49 C 640.29 712.61 648.66 710.93 657.08 710.99 C 666.89 711.02 676.70 710.98 686.51 711.02 C 686.49 728.51 686.51 746.01 686.50 763.51 C 680.00 763.52 673.50 763.48 667.00 763.51 C 657.92 763.31 649.10 769.06 645.43 777.33 C 643.08 782.05 643.16 787.43 642.25 792.52 C 636.66 823.58 632.03 854.80 626.47 885.87 C 623.42 897.22 617.35 907.75 608.75 915.80 C 597.15 926.92 581.05 933.25 564.97 932.93 C 553.72 932.93 542.47 932.93 531.23 932.93 C 531.23 915.43 531.22 897.92 531.23 880.42 C 539.46 880.37 547.70 880.52 555.93 880.36 C 566.58 880.18 575.91 871.38 577.57 860.99 C 582.60 830.72 587.53 800.43 592.60 770.16 C 593.60 763.65 594.87 757.17 597.17 750.99 C 603.32 734.93 616.50 721.91 632.40 715.49 Z" />
<path fill="#e8362d" opacity="1.00" d=" M 706.30 711.01 C 746.39 711.03 786.47 710.92 826.56 711.06 C 826.44 728.54 826.54 746.03 826.51 763.51 C 815.22 763.52 803.93 763.51 792.64 763.52 C 792.64 819.98 792.64 876.43 792.64 932.89 C 775.15 932.90 757.66 932.89 740.17 932.89 C 740.17 876.44 740.17 819.98 740.17 763.52 C 728.89 763.51 717.60 763.52 706.31 763.52 C 706.30 746.01 706.31 728.51 706.30 711.01 Z" />
<path fill="#e8362d" opacity="1.00" d=" M 846.39 710.97 C 883.10 710.89 919.81 710.92 956.52 711.02 C 956.47 728.50 956.52 745.99 956.50 763.47 C 937.25 763.48 918.01 763.46 898.78 763.48 C 898.79 774.21 898.77 784.94 898.78 795.67 C 918.00 795.66 937.22 795.66 956.43 795.67 C 956.44 813.21 956.44 830.74 956.43 848.28 C 937.22 848.28 918.00 848.28 898.79 848.28 C 898.77 858.98 898.78 869.68 898.78 880.38 C 918.02 880.39 937.26 880.37 956.50 880.39 C 956.49 897.89 956.50 915.39 956.50 932.89 C 934.66 932.89 912.81 932.87 890.97 932.89 C 885.34 933.04 879.63 932.49 874.36 930.39 C 858.99 925.15 847.69 910.27 846.59 894.08 C 846.12 884.05 846.51 874.00 846.39 863.97 C 846.39 812.97 846.39 761.97 846.39 710.97 Z" />
</g>
<g id="#cc2f27e1">
<path fill="#cc2f27" opacity="0.88" d=" M 374.05 780.04 C 390.89 780.08 407.75 779.72 424.57 780.24 C 422.80 781.01 420.85 781.09 418.95 781.06 C 403.98 780.90 389.01 781.08 374.05 780.98 L 374.05 780.04 Z" />
</g>
</svg>
