<?xml version="1.0" encoding="UTF-8" ?>
<!DOCTYPE svg PUBLIC "-//W3C//DTD SVG 1.1//EN" "http://www.w3.org/Graphics/SVG/1.1/DTD/svg11.dtd">
<svg width="1276pt" height="1276pt" viewBox="0 0 1276 1276" version="1.1" xmlns="http://www.w3.org/2000/svg">
<g id="#c0214eff">
<path fill="#c0214e" opacity="1.00" d=" M 615.86 185.05 C 780.76 185.08 945.66 185.08 1110.56 185.05 C 1068.35 271.87 1026.23 358.74 984.07 445.59 C 976.62 434.15 967.73 423.41 956.41 415.61 C 948.11 410.35 938.88 406.14 928.99 405.24 C 923.18 404.67 917.35 405.09 911.54 405.34 C 906.46 402.99 900.48 402.04 895.15 404.17 C 886.35 407.50 880.42 415.31 875.42 422.90 C 871.38 423.99 869.32 427.80 866.69 430.68 C 860.35 437.65 855.68 445.90 851.00 454.02 C 845.66 464.09 842.25 475.04 837.32 485.30 C 835.76 488.18 833.81 491.79 830.13 492.06 C 827.51 490.71 825.70 488.25 824.31 485.72 C 820.19 478.13 818.05 469.66 814.03 462.02 C 810.83 455.88 807.97 449.56 804.34 443.65 C 795.17 429.18 782.71 416.08 766.62 409.47 C 756.25 405.02 744.67 404.01 733.57 405.63 C 728.13 402.69 721.37 401.99 715.68 404.62 C 707.31 408.34 701.64 415.97 696.76 423.41 C 693.49 424.18 691.44 426.99 689.34 429.37 C 683.01 436.93 677.34 445.10 673.03 454.00 C 664.15 471.03 657.38 489.17 652.86 507.84 C 646.55 532.24 642.54 557.17 639.49 582.16 C 638.62 588.83 637.91 595.54 636.41 602.11 C 635.39 606.29 633.86 610.63 630.67 613.66 C 627.97 615.70 623.89 615.92 621.09 613.96 C 615.91 610.55 611.90 605.04 611.06 598.82 C 610.68 595.08 611.82 591.43 612.70 587.85 C 622.40 553.82 632.98 520.04 643.06 486.13 C 645.28 478.92 645.72 471.36 646.66 463.92 C 647.83 449.44 644.05 433.94 633.76 423.27 C 626.32 416.16 616.82 411.24 606.64 409.52 C 595.03 407.58 583.00 406.26 571.42 409.15 C 562.81 409.47 554.20 409.11 545.59 409.34 C 544.85 413.06 544.06 416.77 543.25 420.48 C 538.43 423.09 535.08 427.52 531.26 431.30 C 527.85 434.82 524.81 439.29 519.90 440.76 C 517.34 441.13 515.39 438.94 513.81 437.26 C 508.93 431.43 505.15 424.63 499.15 419.79 C 538.08 341.56 576.90 263.27 615.86 185.05 Z" />
<path fill="#c0214e" opacity="1.00" d=" M 664.51 940.40 C 667.40 936.78 668.99 931.35 673.99 930.09 C 676.56 930.83 678.44 932.87 680.29 934.69 C 686.45 941.31 693.38 947.48 701.63 951.37 C 711.61 956.59 722.97 957.87 733.98 959.29 L 734.25 959.86 C 713.36 1003.98 691.51 1047.71 670.52 1091.80 C 564.67 1092.11 458.82 1091.85 352.97 1091.94 C 290.34 1091.94 227.72 1091.93 165.09 1091.94 C 187.20 1047.58 209.10 1003.10 231.35 958.83 L 232.00 958.58 C 241.98 957.85 251.92 956.49 261.94 956.98 C 270.99 956.28 279.92 958.26 288.97 957.98 C 295.29 958.76 301.64 958.99 308.00 959.02 C 318.60 960.66 329.32 959.67 339.99 959.97 C 346.37 960.20 352.66 958.90 359.02 958.77 C 368.99 958.33 378.91 955.95 388.90 957.24 C 396.27 957.99 403.64 958.64 411.03 959.12 C 424.62 960.77 438.34 959.58 451.99 959.92 C 467.73 960.38 483.55 959.23 498.96 955.88 C 506.10 954.33 513.47 953.20 520.78 954.24 C 530.90 955.64 540.77 958.84 551.05 959.00 C 563.64 960.57 576.35 959.78 589.00 959.91 C 596.34 959.79 603.70 960.33 611.03 959.78 C 619.76 958.74 628.66 958.67 637.17 956.21 C 647.58 954.00 658.22 949.39 664.51 940.40 Z" />
</g>
<g id="#f7db17ff">
<path fill="#f7db17" opacity="1.00" d=" M 186.74 404.77 C 194.25 401.95 203.05 402.85 209.80 407.20 C 216.83 411.54 221.65 418.53 225.56 425.63 C 230.43 418.70 235.27 411.74 240.15 404.82 C 241.67 404.86 243.19 404.97 244.72 404.98 C 244.67 452.39 244.58 499.82 244.76 547.23 C 243.18 547.24 241.60 547.26 240.02 547.31 C 236.10 522.88 230.96 498.62 224.24 474.80 C 220.53 461.98 216.48 449.21 210.91 437.06 C 208.29 431.65 205.60 426.09 201.35 421.75 C 199.45 419.91 196.72 418.04 193.97 419.05 C 189.99 420.18 187.24 423.57 185.10 426.91 C 180.74 434.03 178.24 442.11 176.23 450.17 C 170.91 472.02 169.98 494.63 170.22 517.03 C 170.23 600.70 170.21 684.37 170.23 768.05 C 170.58 790.61 172.42 813.56 179.90 835.02 C 182.54 841.73 185.52 849.22 191.97 853.11 C 195.77 855.45 200.58 853.46 202.86 849.96 C 207.38 843.54 208.98 835.65 210.60 828.12 C 213.12 814.87 214.39 801.41 215.35 787.98 C 215.43 734.24 215.28 680.50 215.43 626.77 C 207.94 621.43 200.37 616.19 192.83 610.92 C 192.82 609.34 192.82 607.76 192.82 606.19 C 212.59 606.20 232.36 606.20 252.12 606.19 C 252.12 693.38 252.12 780.58 252.12 867.77 C 250.52 867.75 248.92 867.74 247.32 867.74 C 242.74 852.83 238.15 837.93 233.56 823.03 C 232.80 820.64 232.32 818.13 231.05 815.95 C 228.36 826.44 225.21 836.85 221.10 846.88 C 217.79 854.61 213.60 862.66 206.17 867.16 C 198.27 871.67 188.18 869.99 180.79 865.23 C 170.18 858.52 163.00 847.75 157.02 836.97 C 146.22 816.78 139.53 794.70 134.27 772.51 C 124.68 730.73 120.69 687.81 120.18 645.01 C 119.71 593.33 123.85 541.28 136.57 491.07 C 142.58 468.44 150.07 445.75 163.01 426.04 C 169.03 417.24 176.52 408.65 186.74 404.77 Z" />
<path fill="#f7db17" opacity="1.00" d=" M 715.68 404.62 C 721.37 401.99 728.13 402.69 733.57 405.63 C 740.86 409.97 746.15 416.88 750.55 424.00 C 752.70 427.60 754.64 431.32 756.46 435.10 C 758.59 439.66 760.48 444.33 762.30 449.03 C 765.76 458.50 768.61 468.17 771.24 477.90 C 780.85 516.20 785.33 555.61 787.41 594.98 C 789.16 632.90 788.63 670.95 785.24 708.77 C 782.27 740.76 777.54 772.71 768.83 803.69 C 764.05 820.10 758.36 836.51 749.16 851.03 C 743.81 859.11 736.87 867.53 726.89 869.58 C 718.49 871.25 710.65 866.34 705.07 860.53 C 693.06 846.82 686.44 829.46 680.75 812.40 C 671.19 781.41 665.91 749.28 662.53 717.08 C 658.30 674.96 657.44 632.49 659.85 590.22 C 662.30 548.06 667.45 505.76 679.32 465.13 C 683.67 450.68 689.03 436.42 696.76 423.41 C 701.64 415.97 707.31 408.34 715.68 404.62 M 721.35 419.45 C 715.28 422.81 712.81 429.95 710.71 436.15 C 707.78 444.61 705.97 453.47 704.84 462.35 C 703.02 473.59 702.13 485.02 701.96 496.40 C 701.49 504.58 701.87 512.79 701.75 520.99 C 701.71 600.01 701.71 679.03 701.72 758.05 C 701.50 775.03 702.09 792.06 704.45 808.90 C 706.24 820.98 708.45 833.22 713.60 844.38 C 715.60 848.39 718.25 852.95 722.94 854.09 C 728.24 854.06 731.00 848.72 733.37 844.76 L 733.26 844.61 C 737.76 835.45 739.76 825.32 741.57 815.36 C 744.27 798.71 745.43 781.81 745.22 764.95 C 745.24 677.86 745.19 590.77 745.26 503.68 C 745.22 485.58 743.73 467.42 740.10 449.66 C 739.22 445.75 738.19 441.88 737.08 438.04 C 735.75 433.82 734.04 429.74 732.00 425.82 C 729.72 422.39 726.05 417.44 721.35 419.45 Z" />
<path fill="#f7db17" opacity="1.00" d=" M 895.15 404.17 C 900.48 402.04 906.46 402.99 911.54 405.34 C 919.12 409.91 924.65 417.05 929.19 424.51 C 933.11 431.16 936.29 438.22 939.21 445.36 C 946.63 464.60 951.64 484.69 955.44 504.93 C 965.16 557.63 967.83 611.44 966.22 664.95 C 964.42 711.05 959.73 757.37 947.55 802.00 C 942.47 819.75 936.41 837.59 926.05 853.04 C 920.91 860.32 914.27 867.78 905.10 869.51 C 896.57 871.12 888.53 866.04 883.06 859.94 C 873.64 849.38 867.84 836.21 862.89 823.11 C 852.66 794.97 847.17 765.37 843.10 735.79 C 836.45 685.09 835.50 633.73 838.59 582.73 C 839.84 563.64 841.84 544.60 844.53 525.66 C 849.57 494.75 855.76 463.57 868.93 434.96 C 870.88 430.82 873.06 426.81 875.42 422.90 C 880.42 415.31 886.35 407.50 895.15 404.17 M 895.21 423.23 C 891.22 428.74 888.95 435.31 887.32 441.86 L 887.16 441.93 C 885.09 450.32 883.21 458.81 882.52 467.44 C 880.05 484.90 879.72 502.70 880.09 520.33 C 879.73 537.53 880.03 554.76 879.93 571.98 C 880.07 601.28 879.65 630.59 880.13 659.88 C 879.59 664.21 880.03 668.61 879.90 672.98 C 879.90 704.96 879.89 736.94 879.90 768.93 C 880.52 792.80 881.87 817.19 889.92 839.89 C 892.33 845.55 895.09 853.13 902.01 854.24 C 906.89 853.41 909.61 848.71 911.69 844.68 C 916.79 833.80 919.01 821.85 920.81 810.04 C 924.58 784.85 923.62 759.33 923.75 733.95 C 923.66 679.26 923.93 624.57 923.62 569.89 C 923.59 547.24 923.83 524.56 923.53 501.90 C 923.46 486.09 922.21 470.26 919.41 454.69 C 918.57 450.04 917.44 445.46 916.26 440.89 C 915.16 437.06 913.78 433.31 912.27 429.63 C 910.19 425.73 908.12 421.15 903.76 419.37 C 900.41 417.89 897.13 420.71 895.21 423.23 Z" />
<path fill="#f7db17" opacity="1.00" d=" M 1075.53 403.71 C 1082.17 401.93 1089.19 404.42 1094.34 408.69 C 1102.18 415.12 1107.43 424.05 1111.96 432.99 C 1120.47 450.58 1125.91 469.48 1130.30 488.48 C 1140.60 534.55 1144.43 581.85 1144.94 628.98 C 1145.26 676.36 1142.20 723.91 1133.25 770.50 C 1129.40 790.06 1124.52 809.49 1117.20 828.07 C 1112.95 838.56 1108.00 848.96 1100.80 857.78 C 1096.56 862.96 1091.15 867.63 1084.52 869.29 C 1078.87 870.70 1072.84 869.11 1068.13 865.83 C 1061.07 860.91 1056.00 853.72 1051.75 846.35 C 1042.31 829.45 1036.58 810.78 1031.83 792.11 C 1020.77 746.60 1016.54 699.69 1015.48 652.96 C 1014.63 601.47 1017.70 549.71 1027.72 499.12 C 1033.01 473.99 1039.49 448.65 1052.06 426.05 C 1057.59 416.76 1064.59 406.81 1075.53 403.71 M 1077.42 419.55 C 1073.59 421.68 1071.51 425.80 1069.67 429.59 C 1064.92 440.48 1062.74 452.28 1061.02 463.98 C 1057.48 488.47 1058.35 513.28 1058.24 537.95 C 1058.24 594.31 1058.24 650.67 1058.24 707.03 C 1058.42 732.35 1057.83 757.69 1058.66 783.00 C 1059.84 802.67 1061.71 822.70 1068.77 841.26 C 1071.07 846.43 1073.81 853.02 1080.02 854.24 C 1084.73 853.76 1087.48 849.38 1089.54 845.61 C 1093.89 836.91 1096.08 827.34 1097.88 817.84 C 1100.20 804.72 1101.44 791.42 1101.81 778.10 C 1102.43 754.72 1101.94 731.32 1102.10 707.94 C 1102.10 652.29 1102.10 596.65 1102.10 541.01 C 1101.99 512.64 1103.08 484.03 1098.03 455.97 C 1095.92 445.12 1093.68 433.90 1087.78 424.37 C 1085.71 421.02 1081.54 417.18 1077.42 419.55 Z" />
<path fill="#f7db17" opacity="1.00" d=" M 545.59 409.34 C 554.20 409.11 562.81 409.47 571.42 409.15 C 578.18 409.42 584.94 409.09 591.70 409.41 C 589.71 415.52 587.92 421.69 586.08 427.84 C 585.22 430.77 584.35 433.70 583.48 436.62 C 582.25 440.70 581.02 444.77 579.81 448.85 C 578.52 453.24 577.19 457.61 575.90 462.00 C 561.76 509.84 547.46 557.63 533.45 605.51 C 522.66 641.04 512.41 676.74 501.68 712.29 C 505.82 712.29 509.97 712.30 514.12 712.31 C 525.48 712.32 536.84 712.33 548.20 712.32 C 548.16 684.90 548.25 657.47 548.15 630.05 C 549.87 628.83 551.59 627.61 553.32 626.40 C 557.63 623.39 561.92 620.33 566.22 617.30 C 570.46 614.34 574.66 611.33 578.88 608.34 C 580.95 606.87 583.04 605.43 585.13 603.98 C 585.09 616.05 584.93 628.13 585.08 640.20 C 584.99 646.89 584.87 653.57 585.06 660.26 C 584.81 677.61 585.01 694.97 584.95 712.33 C 591.38 712.35 597.82 712.30 604.25 712.30 C 608.27 712.30 612.28 712.28 616.30 712.23 C 616.45 712.97 616.61 713.72 616.78 714.48 C 616.63 719.84 616.62 725.20 616.66 730.57 C 614.41 730.57 612.16 730.58 609.92 730.59 C 601.59 730.58 593.27 730.52 584.94 730.56 C 584.92 769.78 585.01 808.99 584.90 848.21 C 591.08 852.72 597.45 856.98 603.69 861.41 C 604.46 861.95 605.24 862.50 606.03 863.07 C 606.01 864.65 605.98 866.24 606.03 867.85 C 591.78 867.81 577.53 867.81 563.28 867.85 C 559.26 867.84 555.24 867.86 551.23 867.87 C 548.55 867.87 545.87 867.88 543.19 867.89 C 538.50 867.88 533.82 867.95 529.13 867.89 C 528.61 867.89 527.57 867.87 527.04 867.87 C 527.04 866.25 527.04 864.64 527.05 863.04 C 528.75 861.83 530.45 860.62 532.16 859.42 C 535.89 856.81 539.64 854.23 543.37 851.62 C 544.97 850.49 546.56 849.35 548.17 848.23 C 548.04 836.93 548.21 825.63 548.09 814.34 C 548.16 805.98 548.14 797.61 548.16 789.26 C 548.16 781.51 548.18 773.76 548.19 766.02 C 548.20 754.20 548.17 742.38 548.20 730.57 C 538.48 730.56 528.76 730.56 519.05 730.56 C 511.74 730.55 504.44 730.59 497.14 730.61 C 493.74 730.60 490.36 730.61 486.97 730.64 C 484.62 730.66 482.26 730.66 479.91 730.64 C 479.32 730.63 478.12 730.62 477.52 730.61 C 497.99 634.23 518.44 537.86 538.82 441.46 C 540.35 434.48 541.79 427.48 543.25 420.48 C 544.06 416.77 544.85 413.06 545.59 409.34 Z" />
<path fill="#f7db17" opacity="1.00" d=" M 292.45 409.54 C 318.80 409.49 345.14 409.50 371.49 409.53 C 371.47 411.07 371.47 412.61 371.48 414.16 C 364.68 418.95 357.87 423.73 351.03 428.45 C 361.45 475.46 371.88 522.46 382.31 569.46 C 383.55 573.27 383.40 577.55 385.20 581.14 C 397.36 529.70 409.91 478.34 422.32 426.95 C 416.24 422.70 410.11 418.52 404.11 414.16 C 404.08 412.63 404.08 411.10 404.10 409.57 C 423.19 409.43 442.27 409.54 461.36 409.52 C 461.35 411.07 461.36 412.62 461.37 414.18 C 454.36 419.19 447.21 424.01 440.23 429.06 C 425.01 492.78 409.51 556.44 394.20 620.14 C 393.68 623.47 395.14 626.73 395.71 629.99 C 400.04 648.47 403.92 667.05 408.20 685.54 C 418.20 731.42 428.52 777.25 438.65 823.11 C 440.73 831.51 442.01 840.15 444.53 848.41 C 450.01 852.77 456.03 856.45 461.71 860.57 C 462.89 861.40 464.08 862.23 465.27 863.07 C 465.26 864.65 465.26 866.25 465.27 867.85 C 464.67 867.85 463.48 867.85 462.88 867.85 C 457.89 867.84 452.90 867.82 447.91 867.83 C 441.30 867.82 434.69 867.82 428.08 867.83 C 423.37 867.83 418.67 867.84 413.96 867.85 C 409.39 867.85 404.82 867.86 400.25 867.88 C 395.57 867.89 390.89 867.90 386.22 867.86 C 386.20 866.27 386.17 864.68 386.15 863.11 C 389.36 860.80 392.62 858.55 395.87 856.28 C 399.40 853.78 402.97 851.32 406.55 848.88 C 403.92 837.16 401.45 825.42 398.72 813.73 C 396.31 802.54 393.84 791.37 391.36 780.20 C 386.68 759.21 382.10 738.21 377.35 717.24 C 374.93 705.97 372.38 694.73 369.84 683.49 C 369.61 682.37 369.40 681.27 369.20 680.17 C 368.78 677.81 368.29 675.49 367.79 673.16 C 365.60 680.70 363.94 688.39 362.15 696.04 C 349.75 747.62 337.35 799.19 324.81 850.74 C 326.87 852.19 328.94 853.64 331.02 855.09 C 334.80 857.73 338.56 860.40 342.37 863.02 C 342.36 864.62 342.37 866.22 342.38 867.84 C 336.59 867.83 330.80 867.84 325.02 867.85 C 311.70 867.86 298.38 867.91 285.06 867.85 C 285.05 866.24 285.04 864.64 285.04 863.05 C 286.33 862.13 287.62 861.22 288.92 860.31 C 292.70 857.66 296.48 854.99 300.29 852.36 C 302.48 850.83 304.66 849.29 306.85 847.77 C 313.10 821.39 319.59 795.07 325.83 768.69 C 336.87 724.85 347.07 680.81 357.84 636.91 C 358.10 635.32 358.90 633.74 358.57 632.13 C 348.87 588.41 339.17 544.70 329.47 500.98 C 324.03 476.96 319.01 452.81 313.31 428.88 C 306.49 423.79 299.35 419.13 292.46 414.15 C 292.46 412.61 292.46 411.07 292.45 409.54 Z" />
</g>
<g id="#b11e48ff">
<path fill="#b11e48" opacity="1.00" d=" M 733.57 405.63 C 744.67 404.01 756.25 405.02 766.62 409.47 C 782.71 416.08 795.17 429.18 804.34 443.65 C 807.97 449.56 810.83 455.88 814.03 462.02 C 818.05 469.66 820.19 478.13 824.31 485.72 C 825.70 488.25 827.51 490.71 830.13 492.06 C 833.81 491.79 835.76 488.18 837.32 485.30 C 842.25 475.04 845.66 464.09 851.00 454.02 C 855.68 445.90 860.35 437.65 866.69 430.68 C 869.32 427.80 871.38 423.99 875.42 422.90 C 873.06 426.81 870.88 430.82 868.93 434.96 C 855.76 463.57 849.57 494.75 844.53 525.66 C 840.32 531.55 839.45 539.84 833.04 544.05 C 830.02 546.02 826.54 543.63 824.94 540.98 C 818.69 531.65 816.40 520.48 813.19 509.89 C 809.41 496.54 805.38 483.19 799.41 470.64 C 792.69 456.59 784.38 442.70 771.89 433.04 C 765.56 428.60 758.49 424.34 750.55 424.00 C 746.15 416.88 740.86 409.97 733.57 405.63 Z" />
</g>
<g id="#b21f48ff">
<path fill="#b21f48" opacity="1.00" d=" M 911.54 405.34 C 917.35 405.09 923.18 404.67 928.99 405.24 C 938.88 406.14 948.11 410.35 956.41 415.61 C 967.73 423.41 976.62 434.15 984.07 445.59 C 981.03 451.93 977.92 458.22 974.87 464.55 C 967.64 452.50 960.07 439.93 948.06 432.02 C 942.37 428.40 936.14 424.59 929.19 424.51 C 924.65 417.05 919.12 409.91 911.54 405.34 Z" />
</g>
<g id="#ad1e46ff">
<path fill="#ad1e46" opacity="1.00" d=" M 571.42 409.15 C 583.00 406.26 595.03 407.58 606.64 409.52 C 616.82 411.24 626.32 416.16 633.76 423.27 C 644.05 433.94 647.83 449.44 646.66 463.92 C 645.72 471.36 645.28 478.92 643.06 486.13 C 632.98 520.04 622.40 553.82 612.70 587.85 C 611.82 591.43 610.68 595.08 611.06 598.82 C 611.90 605.04 615.91 610.55 621.09 613.96 C 623.89 615.92 627.97 615.70 630.67 613.66 C 633.86 610.63 635.39 606.29 636.41 602.11 C 637.91 595.54 638.62 588.83 639.49 582.16 C 642.54 557.17 646.55 532.24 652.86 507.84 C 657.38 489.17 664.15 471.03 673.03 454.00 C 677.34 445.10 683.01 436.93 689.34 429.37 C 691.44 426.99 693.49 424.18 696.76 423.41 C 689.03 436.42 683.67 450.68 679.32 465.13 C 667.45 505.76 662.30 548.06 659.85 590.22 C 659.44 589.68 658.62 588.59 658.21 588.05 C 657.04 605.04 655.09 621.98 654.22 638.99 C 654.02 646.68 652.29 654.29 652.98 662.00 C 653.64 669.35 650.97 676.59 652.21 683.91 C 653.42 692.16 653.08 700.60 651.71 708.81 C 650.96 712.97 649.70 717.48 646.24 720.21 C 642.62 722.30 637.83 720.80 635.22 717.76 C 630.17 712.87 628.50 705.77 627.73 699.03 C 625.79 687.22 628.72 675.06 625.61 663.38 C 623.21 653.52 619.22 643.40 611.62 636.39 C 604.15 630.34 594.93 625.29 590.98 616.03 C 586.98 607.05 590.01 597.17 592.24 588.16 C 602.47 553.13 613.07 518.20 623.25 483.15 C 626.06 471.36 626.88 458.41 622.00 447.04 C 615.95 433.51 599.96 427.94 586.08 427.84 C 587.92 421.69 589.71 415.52 591.70 409.41 C 584.94 409.09 578.18 409.42 571.42 409.15 Z" />
</g>
<g id="#a61d44ff">
<path fill="#a61d44" opacity="1.00" d=" M 721.35 419.45 C 726.05 417.44 729.72 422.39 732.00 425.82 C 724.26 427.76 717.06 431.34 710.71 436.15 C 712.81 429.95 715.28 422.81 721.35 419.45 Z" />
</g>
<g id="#a31c42ff">
<path fill="#a31c42" opacity="1.00" d=" M 895.21 423.23 C 897.13 420.71 900.41 417.89 903.76 419.37 C 908.12 421.15 910.19 425.73 912.27 429.63 C 906.20 431.26 900.04 433.19 895.03 437.11 C 892.66 439.00 890.20 440.84 887.32 441.86 C 888.95 435.31 891.22 428.74 895.21 423.23 Z" />
</g>
<g id="#b8204bff">
<path fill="#b8204b" opacity="1.00" d=" M 499.15 419.79 C 505.15 424.63 508.93 431.43 513.81 437.26 C 515.39 438.94 517.34 441.13 519.90 440.76 C 524.81 439.29 527.85 434.82 531.26 431.30 C 535.08 427.52 538.43 423.09 543.25 420.48 C 541.79 427.48 540.35 434.48 538.82 441.46 C 536.41 441.43 535.52 443.84 534.43 445.53 C 525.53 461.06 521.97 478.88 519.44 496.40 C 515.65 517.50 510.63 538.36 506.42 559.38 C 497.00 603.11 487.93 646.92 478.52 690.66 C 476.31 698.56 474.85 707.11 469.75 713.78 C 468.03 716.56 463.74 716.86 461.69 714.30 C 458.78 710.85 457.36 706.44 455.78 702.29 C 451.59 689.29 449.74 675.65 448.98 662.06 C 450.09 641.76 455.64 622.09 460.37 602.42 C 463.02 589.95 466.64 577.71 469.22 565.22 C 473.36 549.20 476.92 533.05 481.00 517.02 C 483.71 504.24 489.94 492.63 496.23 481.31 C 500.48 472.83 504.24 463.68 504.14 454.04 C 503.77 445.25 499.99 436.67 493.92 430.32 C 495.64 426.80 497.40 423.30 499.15 419.79 Z" />
<path fill="#b8204b" opacity="1.00" d=" M 481.01 809.93 C 481.35 804.67 485.35 799.03 491.00 798.93 C 497.80 798.69 504.43 800.64 511.04 801.99 C 522.24 804.48 532.63 814.05 532.99 826.02 C 533.02 837.15 533.48 848.33 532.16 859.42 C 530.45 860.62 528.75 861.83 527.05 863.04 C 527.04 864.64 527.04 866.25 527.04 867.87 C 527.57 867.87 528.61 867.89 529.13 867.89 C 527.08 874.68 523.76 881.02 520.04 887.03 C 518.28 889.66 515.11 892.92 511.66 891.39 C 507.08 888.99 504.75 884.08 502.05 879.93 C 497.22 872.17 492.59 864.23 489.24 855.71 C 485.83 846.46 483.75 836.80 481.70 827.18 C 480.67 821.50 480.70 815.67 481.01 809.93 Z" />
<path fill="#b8204b" opacity="1.00" d=" M 642.83 809.83 C 645.44 807.80 649.30 807.91 651.71 810.22 C 656.97 815.29 658.47 822.79 660.37 829.56 C 662.74 840.21 665.85 850.66 668.87 861.14 C 672.74 873.77 678.58 885.67 684.72 897.33 C 693.27 911.91 704.94 925.51 720.71 932.43 C 728.35 936.20 737.03 936.52 745.35 937.42 C 741.69 944.63 738.46 952.08 734.64 959.18 L 733.98 959.29 C 722.97 957.87 711.61 956.59 701.63 951.37 C 693.38 947.48 686.45 941.31 680.29 934.69 C 678.44 932.87 676.56 930.83 673.99 930.09 C 668.99 931.35 667.40 936.78 664.51 940.40 C 658.22 949.39 647.58 954.00 637.17 956.21 C 628.66 958.67 619.76 958.74 611.03 959.78 C 603.70 960.33 596.34 959.79 589.00 959.91 C 576.35 959.78 563.64 960.57 551.05 959.00 C 540.77 958.84 530.90 955.64 520.78 954.24 C 513.47 953.20 506.10 954.33 498.96 955.88 C 483.55 959.23 467.73 960.38 451.99 959.92 C 438.34 959.58 424.62 960.77 411.03 959.12 C 403.64 958.64 396.27 957.99 388.90 957.24 C 378.91 955.95 368.99 958.33 359.02 958.77 C 352.66 958.90 346.37 960.20 339.99 959.97 C 329.32 959.67 318.60 960.66 308.00 959.02 C 301.64 958.99 295.29 958.76 288.97 957.98 C 279.92 958.26 270.99 956.28 261.94 956.98 C 251.92 956.49 241.98 957.85 232.00 958.58 L 231.76 958.11 C 235.21 950.27 239.39 942.75 243.05 935.00 C 250.94 933.35 259.02 934.32 267.01 934.10 C 279.40 933.71 291.68 935.66 303.92 937.32 C 317.12 938.82 330.46 939.98 343.71 938.65 C 351.91 937.19 360.17 935.84 368.11 933.27 C 373.84 931.40 379.93 930.19 385.97 930.92 C 391.51 931.49 396.79 933.36 402.13 934.81 C 413.57 937.67 425.24 939.62 437.03 940.11 C 453.12 940.40 469.68 939.76 484.88 933.91 C 495.11 929.48 501.95 920.09 511.28 914.33 C 514.12 912.23 517.58 914.23 520.01 916.00 C 524.99 920.01 529.53 924.55 534.63 928.44 C 539.83 932.38 545.83 935.27 552.20 936.75 C 566.19 940.10 580.68 940.54 594.99 939.98 C 607.75 938.82 621.32 937.71 632.13 930.12 C 637.99 925.20 643.68 919.27 645.62 911.65 C 646.81 906.92 647.56 901.98 646.93 897.11 C 645.55 887.95 642.60 879.15 639.72 870.39 C 635.42 856.06 634.02 840.85 635.78 825.99 C 636.58 820.18 637.55 813.38 642.83 809.83 Z" />
</g>
<g id="#9c1b3fff">
<path fill="#9c1b3f" opacity="1.00" d=" M 750.55 424.00 C 758.49 424.34 765.56 428.60 771.89 433.04 C 784.38 442.70 792.69 456.59 799.41 470.64 C 805.38 483.19 809.41 496.54 813.19 509.89 C 816.40 520.48 818.69 531.65 824.94 540.98 C 826.54 543.63 830.02 546.02 833.04 544.05 C 839.45 539.84 840.32 531.55 844.53 525.66 C 841.84 544.60 839.84 563.64 838.59 582.73 C 836.24 585.40 833.68 587.86 831.04 590.24 C 829.22 589.05 827.14 588.12 825.91 586.25 C 822.23 580.95 820.28 574.72 818.37 568.63 C 811.47 546.89 808.17 524.23 801.53 502.42 C 796.37 485.57 790.05 468.74 779.52 454.43 C 773.59 446.27 766.05 438.75 756.46 435.10 C 754.64 431.32 752.70 427.60 750.55 424.00 Z" />
</g>
<g id="#971a3dff">
<path fill="#971a3d" opacity="1.00" d=" M 929.19 424.51 C 936.14 424.59 942.37 428.40 948.06 432.02 C 960.07 439.93 967.64 452.50 974.87 464.55 C 972.26 469.96 969.72 475.41 966.96 480.75 C 962.03 473.33 958.71 464.92 953.05 457.98 C 949.15 453.13 945.48 447.31 939.21 445.36 C 936.29 438.22 933.11 431.16 929.19 424.51 Z" />
</g>
<g id="#92193bff">
<path fill="#92193b" opacity="1.00" d=" M 710.71 436.15 C 717.06 431.34 724.26 427.76 732.00 425.82 C 734.04 429.74 735.75 433.82 737.08 438.04 C 730.97 439.69 724.79 441.76 719.85 445.87 C 714.17 450.69 709.27 456.37 704.84 462.35 C 705.97 453.47 707.78 444.61 710.71 436.15 Z" />
<path fill="#92193b" opacity="1.00" d=" M 586.08 427.84 C 599.96 427.94 615.95 433.51 622.00 447.04 C 626.88 458.41 626.06 471.36 623.25 483.15 C 613.07 518.20 602.47 553.13 592.24 588.16 C 590.01 597.17 586.98 607.05 590.98 616.03 C 594.93 625.29 604.15 630.34 611.62 636.39 C 619.22 643.40 623.21 653.52 625.61 663.38 C 628.72 675.06 625.79 687.22 627.73 699.03 C 628.50 705.77 630.17 712.87 635.22 717.76 C 637.83 720.80 642.62 722.30 646.24 720.21 C 649.70 717.48 650.96 712.97 651.71 708.81 C 653.08 700.60 653.42 692.16 652.21 683.91 C 650.97 676.59 653.64 669.35 652.98 662.00 C 652.29 654.29 654.02 646.68 654.22 638.99 C 655.09 621.98 657.04 605.04 658.21 588.05 C 658.62 588.59 659.44 589.68 659.85 590.22 C 657.44 632.49 658.30 674.96 662.53 717.08 C 665.91 749.28 671.19 781.41 680.75 812.40 C 679.43 816.86 681.64 821.25 682.38 825.62 C 688.19 849.73 695.10 874.53 710.36 894.56 C 717.63 904.79 728.99 913.26 742.00 913.29 C 747.88 913.49 752.96 909.94 758.72 909.50 C 756.82 914.31 754.27 918.84 752.16 923.58 L 751.92 923.58 C 746.97 923.26 742.05 924.80 737.12 923.87 C 724.17 922.14 712.37 914.72 704.42 904.48 C 689.28 885.76 681.38 862.45 675.40 839.45 C 671.45 824.25 668.79 808.64 662.90 794.03 C 660.77 789.62 657.70 783.95 652.04 784.11 C 645.40 783.63 639.62 787.76 635.00 792.06 C 625.97 801.55 622.72 815.23 623.14 828.03 C 623.47 839.21 622.31 850.53 624.57 861.59 C 626.95 873.85 632.74 885.40 633.19 898.04 C 633.03 907.19 628.58 916.87 620.01 920.96 C 605.84 928.26 589.45 927.42 574.00 927.15 C 563.64 926.36 552.90 923.96 544.43 917.66 C 538.77 912.50 535.81 904.60 535.95 897.01 C 536.79 886.98 540.58 877.54 543.19 867.89 C 545.87 867.88 548.55 867.87 551.23 867.87 C 548.97 879.13 543.95 890.48 546.85 902.13 C 549.52 911.32 558.70 916.78 567.67 918.34 C 581.35 920.83 595.88 920.73 609.12 916.15 C 617.55 913.56 623.58 904.88 622.98 896.07 C 623.69 886.09 619.77 876.73 617.73 867.15 C 615.81 859.93 615.97 852.42 615.12 845.06 C 614.50 836.36 614.74 827.61 615.76 818.96 C 616.43 809.24 619.05 799.52 624.19 791.18 C 629.64 782.17 639.06 776.24 643.71 766.67 C 645.79 762.40 647.11 756.94 644.35 752.67 C 640.64 745.89 633.78 741.91 628.69 736.32 C 622.27 730.68 619.65 722.24 616.78 714.48 C 616.61 713.72 616.45 712.97 616.30 712.23 C 614.17 702.32 613.81 692.14 614.15 682.04 C 614.46 670.40 611.69 658.11 603.78 649.23 C 598.73 644.23 592.34 640.89 586.35 637.18 C 585.91 638.17 585.48 639.18 585.08 640.20 C 584.93 628.13 585.09 616.05 585.13 603.98 C 583.04 605.43 580.95 606.87 578.88 608.34 C 579.33 598.43 582.94 589.11 585.45 579.62 C 594.03 550.79 602.59 521.95 611.08 493.09 C 614.84 481.60 617.73 469.18 614.79 457.15 C 612.95 448.95 606.43 442.26 598.61 439.46 C 593.75 437.69 588.56 437.28 583.48 436.62 C 584.35 433.70 585.22 430.77 586.08 427.84 Z" />
</g>
<g id="#8c1839ff">
<path fill="#8c1839" opacity="1.00" d=" M 895.03 437.11 C 900.04 433.19 906.20 431.26 912.27 429.63 C 913.78 433.31 915.16 437.06 916.26 440.89 C 904.47 442.11 895.55 450.75 888.59 459.61 C 886.66 462.29 884.59 464.87 882.52 467.44 C 883.21 458.81 885.09 450.32 887.16 441.93 L 887.32 441.86 C 890.20 440.84 892.66 439.00 895.03 437.11 Z" />
</g>
<g id="#a91d45ff">
<path fill="#a91d45" opacity="1.00" d=" M 488.01 442.20 C 489.95 438.22 491.91 434.26 493.92 430.32 C 499.99 436.67 503.77 445.25 504.14 454.04 C 504.24 463.68 500.48 472.83 496.23 481.31 C 489.94 492.63 483.71 504.24 481.00 517.02 C 476.92 533.05 473.36 549.20 469.22 565.22 C 466.64 577.71 463.02 589.95 460.37 602.42 C 455.64 622.09 450.09 641.76 448.98 662.06 C 449.74 675.65 451.59 689.29 455.78 702.29 C 457.36 706.44 458.78 710.85 461.69 714.30 C 463.74 716.86 468.03 716.56 469.75 713.78 C 474.85 707.11 476.31 698.56 478.52 690.66 C 487.93 646.92 497.00 603.11 506.42 559.38 C 510.63 538.36 515.65 517.50 519.44 496.40 C 521.97 478.88 525.53 461.06 534.43 445.53 C 535.52 443.84 536.41 441.43 538.82 441.46 C 518.44 537.86 497.99 634.23 477.52 730.61 C 478.12 730.62 479.32 730.63 479.91 730.64 C 477.48 737.95 475.00 745.25 472.64 752.59 C 471.93 755.08 470.47 757.23 469.00 759.33 C 466.68 758.39 464.29 757.32 462.98 755.06 C 452.29 740.13 448.90 721.68 444.77 704.18 C 442.34 693.57 440.13 682.86 439.17 672.01 C 438.98 665.33 438.93 658.64 439.32 651.98 C 441.44 632.15 447.43 613.04 451.71 593.63 C 453.79 584.45 456.41 575.40 458.35 566.18 C 460.88 554.61 464.27 543.25 466.66 531.65 C 469.36 520.90 471.64 510.00 475.77 499.68 C 480.10 487.47 488.39 476.87 490.92 463.99 C 492.79 456.68 491.60 448.79 488.01 442.20 Z" />
</g>
<g id="#881737ff">
<path fill="#881737" opacity="1.00" d=" M 756.46 435.10 C 766.05 438.75 773.59 446.27 779.52 454.43 C 790.05 468.74 796.37 485.57 801.53 502.42 C 808.17 524.23 811.47 546.89 818.37 568.63 C 820.28 574.72 822.23 580.95 825.91 586.25 C 827.14 588.12 829.22 589.05 831.04 590.24 C 833.68 587.86 836.24 585.40 838.59 582.73 C 835.50 633.73 836.45 685.09 843.10 735.79 C 829.95 763.58 816.35 791.19 802.89 818.84 C 802.59 817.62 802.40 816.40 802.32 815.18 C 807.84 785.13 813.47 755.07 818.97 725.00 C 820.92 712.04 822.95 699.08 823.92 686.01 C 823.88 679.34 824.06 672.66 823.86 666.00 C 820.72 630.14 812.53 595.02 806.33 559.63 C 803.57 543.33 800.20 527.11 795.70 511.19 C 791.41 494.14 784.43 477.75 775.15 462.82 C 771.47 457.75 768.00 452.04 762.30 449.03 C 760.48 444.33 758.59 439.66 756.46 435.10 Z" />
</g>
<g id="#821635ff">
<path fill="#821635" opacity="1.00" d=" M 579.81 448.85 C 581.02 444.77 582.25 440.70 583.48 436.62 C 588.56 437.28 593.75 437.69 598.61 439.46 C 606.43 442.26 612.95 448.95 614.79 457.15 C 617.73 469.18 614.84 481.60 611.08 493.09 C 602.59 521.95 594.03 550.79 585.45 579.62 C 582.94 589.11 579.33 598.43 578.88 608.34 C 574.66 611.33 570.46 614.34 566.22 617.30 C 566.72 608.66 568.48 600.17 570.90 591.88 C 580.10 560.81 589.37 529.75 598.52 498.66 C 601.11 489.91 604.34 481.19 604.88 472.01 C 604.54 464.18 601.58 455.56 594.30 451.61 C 590.06 448.66 584.76 448.63 579.81 448.85 Z" />
</g>
<g id="#7a1532ff">
<path fill="#7a1532" opacity="1.00" d=" M 719.85 445.87 C 724.79 441.76 730.97 439.69 737.08 438.04 C 738.19 441.88 739.22 445.75 740.10 449.66 C 728.93 451.07 720.48 459.56 714.74 468.65 C 708.94 477.14 706.53 487.28 701.96 496.40 C 702.13 485.02 703.02 473.59 704.84 462.35 C 709.27 456.37 714.17 450.69 719.85 445.87 Z" />
</g>
<g id="#73142fff">
<path fill="#73142f" opacity="1.00" d=" M 888.59 459.61 C 895.55 450.75 904.47 442.11 916.26 440.89 C 917.44 445.46 918.57 450.04 919.41 454.69 C 915.13 455.38 910.67 456.33 907.31 459.26 C 902.43 463.49 898.00 468.42 895.23 474.31 C 891.41 482.32 889.32 491.01 886.36 499.36 C 884.24 506.34 880.84 512.97 880.09 520.33 C 879.72 502.70 880.05 484.90 882.52 467.44 C 884.59 464.87 886.66 462.29 888.59 459.61 Z" />
</g>
<g id="#991a3eff">
<path fill="#991a3e" opacity="1.00" d=" M 481.32 455.67 C 483.49 451.15 485.73 446.66 488.01 442.20 C 491.60 448.79 492.79 456.68 490.92 463.99 C 488.39 476.87 480.10 487.47 475.77 499.68 C 471.64 510.00 469.36 520.90 466.66 531.65 C 464.27 543.25 460.88 554.61 458.35 566.18 C 456.41 575.40 453.79 584.45 451.71 593.63 C 447.43 613.04 441.44 632.15 439.32 651.98 C 438.93 658.64 438.98 665.33 439.17 672.01 C 440.13 682.86 442.34 693.57 444.77 704.18 C 448.90 721.68 452.29 740.13 462.98 755.06 C 464.29 757.32 466.68 758.39 469.00 759.33 C 470.47 757.23 471.93 755.08 472.64 752.59 C 475.00 745.25 477.48 737.95 479.91 730.64 C 482.26 730.66 484.62 730.66 486.97 730.64 C 484.36 741.17 482.79 752.26 484.95 763.01 C 486.31 770.09 491.14 776.08 497.30 779.65 C 507.07 785.39 518.68 786.36 528.87 791.10 C 533.23 793.15 537.62 795.62 540.59 799.53 C 544.06 803.91 545.94 809.24 548.09 814.34 C 548.21 825.63 548.04 836.93 548.17 848.23 C 546.56 849.35 544.97 850.49 543.37 851.62 C 541.94 837.78 545.44 823.04 538.97 810.06 C 533.66 799.87 522.62 794.77 511.99 792.04 C 503.83 790.19 495.93 787.28 488.44 783.58 C 484.51 781.64 481.19 778.71 477.33 776.69 C 475.30 775.51 472.01 775.45 470.98 777.95 C 466.34 788.36 468.57 799.92 469.33 810.85 C 470.29 819.88 472.34 828.73 474.34 837.58 C 476.63 848.91 480.42 859.96 485.60 870.30 C 489.64 878.06 493.82 885.92 495.44 894.61 C 497.63 904.21 494.25 915.19 486.21 921.13 C 477.54 927.89 466.16 929.27 455.59 930.60 C 435.94 932.25 415.51 930.15 397.66 921.29 C 391.93 918.76 385.89 914.78 379.37 916.40 C 372.16 918.25 365.92 922.53 358.88 924.84 C 349.58 927.96 339.88 930.56 329.99 930.11 C 319.20 929.71 308.49 928.15 297.87 926.32 C 291.61 925.36 285.41 923.73 279.04 923.96 C 268.67 924.36 258.22 923.20 247.95 925.15 C 248.96 923.07 249.98 921.01 251.02 918.96 C 257.01 918.70 262.92 917.41 268.94 917.60 C 274.60 917.74 280.27 917.57 285.93 917.61 C 291.47 917.64 296.71 919.68 302.15 920.46 C 312.40 921.98 322.60 924.35 333.00 924.55 C 345.19 923.69 357.72 920.13 367.20 912.13 C 372.63 907.54 376.93 900.51 375.51 893.16 C 374.16 885.93 372.20 878.82 371.23 871.52 C 369.98 865.46 371.71 859.32 373.62 853.60 C 375.44 849.43 378.04 844.71 382.84 843.60 C 385.76 842.66 388.55 844.57 390.46 846.61 C 393.19 849.22 394.63 852.78 395.87 856.28 C 392.62 858.55 389.36 860.80 386.15 863.11 C 386.17 864.68 386.20 866.27 386.22 867.86 C 390.89 867.90 395.57 867.89 400.25 867.88 C 399.91 876.11 397.38 884.01 396.30 892.14 C 394.63 901.01 399.89 910.11 407.46 914.56 C 420.03 922.49 435.50 923.40 449.96 922.81 C 458.50 922.15 467.43 921.36 475.01 916.98 C 483.00 912.88 487.06 903.07 485.62 894.39 C 484.20 885.61 480.25 877.54 476.33 869.65 C 469.22 854.02 465.95 837.06 462.54 820.34 C 459.66 806.06 457.60 791.64 454.66 777.38 C 450.24 759.22 444.43 741.41 440.88 723.03 C 437.49 707.54 433.56 692.14 431.46 676.41 C 429.44 659.50 431.86 642.44 435.84 625.98 C 443.65 593.71 451.21 561.39 459.13 529.14 C 461.78 516.80 465.13 504.58 469.81 492.85 C 472.38 486.27 476.38 480.34 478.65 473.64 C 480.59 467.88 482.87 461.82 481.32 455.67 Z" />
</g>
<g id="#791531ff">
<path fill="#791531" opacity="1.00" d=" M 939.21 445.36 C 945.48 447.31 949.15 453.13 953.05 457.98 C 958.71 464.92 962.03 473.33 966.96 480.75 L 967.05 480.88 C 963.14 488.88 959.16 496.84 955.44 504.93 C 951.64 484.69 946.63 464.60 939.21 445.36 Z" />
</g>
<g id="#6e132dff">
<path fill="#6e132d" opacity="1.00" d=" M 579.81 448.85 C 584.76 448.63 590.06 448.66 594.30 451.61 C 601.58 455.56 604.54 464.18 604.88 472.01 C 604.34 481.19 601.11 489.91 598.52 498.66 C 589.37 529.75 580.10 560.81 570.90 591.88 C 568.48 600.17 566.72 608.66 566.22 617.30 C 561.92 620.33 557.63 623.39 553.32 626.40 C 552.50 616.93 554.85 607.60 557.55 598.60 C 559.85 590.08 563.18 581.88 565.52 573.37 C 574.23 546.24 582.35 518.92 590.50 491.61 C 592.25 485.57 594.79 479.44 593.98 473.04 C 593.40 468.13 590.40 463.26 585.70 461.39 C 582.47 460.41 579.11 461.47 575.90 462.00 C 577.19 457.61 578.52 453.24 579.81 448.85 Z" />
<path fill="#6e132d" opacity="1.00" d=" M 422.63 573.80 C 430.82 557.06 438.99 540.27 447.61 523.74 C 447.42 528.82 445.76 533.64 444.62 538.54 C 443.02 546.65 440.95 554.65 439.68 562.82 C 436.46 580.41 432.26 597.79 428.21 615.19 C 424.15 631.11 420.39 647.39 420.86 663.93 C 420.67 674.52 422.52 685.03 424.55 695.39 C 432.82 733.30 441.45 771.14 449.86 809.02 C 453.23 826.33 457.32 843.50 461.71 860.57 C 456.03 856.45 450.01 852.77 444.53 848.41 C 442.01 840.15 440.73 831.51 438.65 823.11 C 428.52 777.25 418.20 731.42 408.20 685.54 C 409.94 680.43 407.94 675.19 408.04 670.00 C 408.08 664.34 408.07 658.68 408.17 653.02 C 409.83 626.08 421.20 600.76 422.63 573.80 Z" />
</g>
<g id="#781531ff">
<path fill="#781531" opacity="1.00" d=" M 762.30 449.03 C 768.00 452.04 771.47 457.75 775.15 462.82 C 784.43 477.75 791.41 494.14 795.70 511.19 C 800.20 527.11 803.57 543.33 806.33 559.63 C 812.53 595.02 820.72 630.14 823.86 666.00 C 824.06 672.66 823.88 679.34 823.92 686.01 C 822.95 699.08 820.92 712.04 818.97 725.00 C 813.47 755.07 807.84 785.13 802.32 815.18 C 802.40 816.40 802.59 817.62 802.89 818.84 C 788.43 849.11 773.54 879.19 759.05 909.45 L 758.72 909.50 C 752.96 909.94 747.88 913.49 742.00 913.29 C 728.99 913.26 717.63 904.79 710.36 894.56 C 695.10 874.53 688.19 849.73 682.38 825.62 C 681.64 821.25 679.43 816.86 680.75 812.40 C 686.44 829.46 693.06 846.82 705.07 860.53 C 706.81 868.42 710.77 875.52 714.35 882.68 C 716.81 887.62 720.84 891.47 724.76 895.26 C 729.19 899.92 735.48 902.64 741.97 902.00 C 748.97 902.61 755.22 898.73 759.82 893.80 C 767.81 886.73 772.09 876.68 775.97 866.98 C 783.27 849.11 790.00 830.90 793.84 811.94 C 800.32 782.06 802.94 751.53 806.35 721.19 C 806.94 711.77 808.26 702.39 807.89 692.93 C 808.50 684.45 809.60 675.92 808.46 667.43 C 807.68 662.32 807.89 657.15 807.91 652.01 C 806.81 636.44 805.35 620.89 803.48 605.38 C 801.23 584.94 798.75 564.49 794.55 544.34 C 790.92 525.51 784.65 507.32 777.40 489.61 C 775.60 485.60 774.89 480.77 771.24 477.90 C 768.61 468.17 765.76 458.50 762.30 449.03 Z" />
</g>
<g id="#651129ff">
<path fill="#651129" opacity="1.00" d=" M 714.74 468.65 C 720.48 459.56 728.93 451.07 740.10 449.66 C 743.73 467.42 745.22 485.58 745.26 503.68 C 742.63 503.20 739.62 502.45 737.38 504.41 C 729.25 510.56 725.31 520.70 723.50 530.43 C 722.08 536.76 722.23 543.26 721.59 549.68 C 720.61 557.74 721.35 565.87 721.08 573.96 C 721.16 648.63 721.05 723.30 721.12 797.97 C 722.31 808.31 721.89 818.91 725.04 828.96 C 726.47 834.77 729.59 839.95 733.26 844.61 L 733.37 844.76 C 731.00 848.72 728.24 854.06 722.94 854.09 C 718.25 852.95 715.60 848.39 713.60 844.38 C 708.45 833.22 706.24 820.98 704.45 808.90 C 702.09 792.06 701.50 775.03 701.72 758.05 C 701.71 679.03 701.71 600.01 701.75 520.99 C 701.87 512.79 701.49 504.58 701.96 496.40 C 706.53 487.28 708.94 477.14 714.74 468.65 Z" />
<path fill="#651129" opacity="1.00" d=" M 907.31 459.26 C 910.67 456.33 915.13 455.38 919.41 454.69 C 922.21 470.26 923.46 486.09 923.53 501.90 C 921.16 502.02 918.76 501.91 916.46 502.51 C 913.95 503.39 912.15 505.50 910.53 507.52 C 907.24 511.79 904.18 516.39 902.67 521.62 C 899.79 531.79 898.53 542.41 899.06 552.97 C 899.58 560.66 897.85 568.25 898.01 575.93 C 898.07 585.28 898.07 594.62 898.07 603.97 C 898.14 609.83 897.62 615.75 898.72 621.56 C 892.57 634.35 886.36 647.12 880.13 659.88 C 879.65 630.59 880.07 601.28 879.93 571.98 C 880.03 554.76 879.73 537.53 880.09 520.33 C 880.84 512.97 884.24 506.34 886.36 499.36 C 889.32 491.01 891.41 482.32 895.23 474.31 C 898.00 468.42 902.43 463.49 907.31 459.26 Z" />
<path fill="#651129" opacity="1.00" d=" M 586.30 654.15 C 592.83 658.40 598.88 664.32 600.94 672.07 C 604.55 685.22 601.94 698.97 604.25 712.30 C 597.82 712.30 591.38 712.35 584.95 712.33 C 585.01 694.97 584.81 677.61 585.06 660.26 C 585.39 658.20 585.86 656.17 586.30 654.15 Z" />
</g>
<g id="#841736ff">
<path fill="#841736" opacity="1.00" d=" M 447.61 523.74 C 458.56 500.94 470.02 478.33 481.32 455.67 C 482.87 461.82 480.59 467.88 478.65 473.64 C 476.38 480.34 472.38 486.27 469.81 492.85 C 465.13 504.58 461.78 516.80 459.13 529.14 C 451.21 561.39 443.65 593.71 435.84 625.98 C 431.86 642.44 429.44 659.50 431.46 676.41 C 433.56 692.14 437.49 707.54 440.88 723.03 C 444.43 741.41 450.24 759.22 454.66 777.38 C 457.60 791.64 459.66 806.06 462.54 820.34 C 465.95 837.06 469.22 854.02 476.33 869.65 C 480.25 877.54 484.20 885.61 485.62 894.39 C 487.06 903.07 483.00 912.88 475.01 916.98 C 467.43 921.36 458.50 922.15 449.96 922.81 C 435.50 923.40 420.03 922.49 407.46 914.56 C 399.89 910.11 394.63 901.01 396.30 892.14 C 397.38 884.01 399.91 876.11 400.25 867.88 C 404.82 867.86 409.39 867.85 413.96 867.85 C 413.03 877.41 411.28 887.52 415.34 896.65 C 418.86 905.59 428.84 910.19 438.00 910.25 C 444.49 910.19 451.23 910.89 457.43 908.56 C 464.05 906.30 469.77 900.20 469.95 892.96 C 469.89 884.08 465.78 876.03 462.88 867.85 C 463.48 867.85 464.67 867.85 465.27 867.85 C 465.26 866.25 465.26 864.65 465.27 863.07 C 464.08 862.23 462.89 861.40 461.71 860.57 C 457.32 843.50 453.23 826.33 449.86 809.02 C 441.45 771.14 432.82 733.30 424.55 695.39 C 422.52 685.03 420.67 674.52 420.86 663.93 C 420.39 647.39 424.15 631.11 428.21 615.19 C 432.26 597.79 436.46 580.41 439.68 562.82 C 440.95 554.65 443.02 546.65 444.62 538.54 C 445.76 533.64 447.42 528.82 447.61 523.74 Z" />
<path fill="#841736" opacity="1.00" d=" M 370.75 813.71 C 374.82 809.68 379.55 804.51 385.84 805.30 C 391.32 805.96 394.45 810.87 398.72 813.73 C 401.45 825.42 403.92 837.16 406.55 848.88 C 402.97 851.32 399.40 853.78 395.87 856.28 C 394.63 852.78 393.19 849.22 390.46 846.61 C 388.55 844.57 385.76 842.66 382.84 843.60 C 378.04 844.71 375.44 849.43 373.62 853.60 C 371.71 859.32 369.98 865.46 371.23 871.52 C 372.20 878.82 374.16 885.93 375.51 893.16 C 376.93 900.51 372.63 907.54 367.20 912.13 C 357.72 920.13 345.19 923.69 333.00 924.55 C 322.60 924.35 312.40 921.98 302.15 920.46 C 296.71 919.68 291.47 917.64 285.93 917.61 C 280.27 917.57 274.60 917.74 268.94 917.60 C 262.92 917.41 257.01 918.70 251.02 918.96 C 253.26 914.35 255.56 909.78 257.84 905.20 C 264.27 904.21 270.68 902.50 276.40 899.34 C 280.15 897.29 283.30 893.60 283.31 889.14 C 283.74 880.44 280.79 872.05 278.42 863.81 C 280.78 859.04 283.12 854.26 285.54 849.53 C 286.79 853.08 287.92 856.68 288.92 860.31 C 287.62 861.22 286.33 862.13 285.04 863.05 C 285.04 864.64 285.05 866.24 285.06 867.85 C 298.38 867.91 311.70 867.86 325.02 867.85 C 320.30 875.09 314.79 882.12 312.49 890.60 C 311.27 894.65 313.39 898.94 316.15 901.86 C 319.75 905.04 324.34 907.07 329.02 908.05 C 335.81 909.34 342.84 906.40 347.36 901.33 C 352.94 895.79 353.95 887.43 354.09 879.95 C 352.82 871.35 353.13 862.66 353.23 854.00 C 353.37 848.91 354.81 843.99 356.19 839.14 C 358.95 829.68 363.53 820.55 370.75 813.71 Z" />
</g>
<g id="#611127ff">
<path fill="#611127" opacity="1.00" d=" M 575.90 462.00 C 579.11 461.47 582.47 460.41 585.70 461.39 C 590.40 463.26 593.40 468.13 593.98 473.04 C 594.79 479.44 592.25 485.57 590.50 491.61 C 582.35 518.92 574.23 546.24 565.52 573.37 C 563.18 581.88 559.85 590.08 557.55 598.60 C 554.85 607.60 552.50 616.93 553.32 626.40 C 551.59 627.61 549.87 628.83 548.15 630.05 C 548.25 657.47 548.16 684.90 548.20 712.32 C 536.84 712.33 525.48 712.32 514.12 712.31 C 517.06 701.42 517.29 690.05 519.26 678.98 C 522.00 660.07 526.84 641.56 531.08 622.96 C 532.22 617.20 534.34 611.46 533.45 605.51 C 547.46 557.63 561.76 509.84 575.90 462.00 Z" />
<path fill="#611127" opacity="1.00" d=" M 584.94 730.56 C 593.27 730.52 601.59 730.58 609.92 730.59 C 613.90 740.58 621.85 749.12 622.61 760.25 C 623.09 769.54 617.70 777.63 613.29 785.37 C 604.06 801.20 602.66 820.10 602.77 838.03 C 602.47 845.85 604.51 853.57 603.69 861.41 C 597.45 856.98 591.08 852.72 584.90 848.21 C 585.01 808.99 584.92 769.78 584.94 730.56 Z" />
</g>
<g id="#661129ff">
<path fill="#661129" opacity="1.00" d=" M 771.24 477.90 C 774.89 480.77 775.60 485.60 777.40 489.61 C 784.65 507.32 790.92 525.51 794.55 544.34 C 798.75 564.49 801.23 584.94 803.48 605.38 C 805.35 620.89 806.81 636.44 807.91 652.01 C 807.89 657.15 807.68 662.32 808.46 667.43 C 809.60 675.92 808.50 684.45 807.89 692.93 C 808.26 702.39 806.94 711.77 806.35 721.19 C 802.94 751.53 800.32 782.06 793.84 811.94 C 790.00 830.90 783.27 849.11 775.97 866.98 C 772.09 876.68 767.81 886.73 759.82 893.80 C 755.22 898.73 748.97 902.61 741.97 902.00 C 735.48 902.64 729.19 899.92 724.76 895.26 C 720.84 891.47 716.81 887.62 714.35 882.68 C 710.77 875.52 706.81 868.42 705.07 860.53 C 710.65 866.34 718.49 871.25 726.89 869.58 C 736.87 867.53 743.81 859.11 749.16 851.03 C 758.36 836.51 764.05 820.10 768.83 803.69 C 777.54 772.71 782.27 740.76 785.24 708.77 C 788.63 670.95 789.16 632.90 787.41 594.98 C 785.33 555.61 780.85 516.20 771.24 477.90 Z" />
</g>
<g id="#72142eff">
<path fill="#72142e" opacity="1.00" d=" M 916.46 502.51 C 918.76 501.91 921.16 502.02 923.53 501.90 C 923.83 524.56 923.59 547.24 923.62 569.89 C 915.64 587.26 906.99 604.32 898.72 621.56 C 897.62 615.75 898.14 609.83 898.07 603.97 C 898.07 594.62 898.07 585.28 898.01 575.93 C 897.85 568.25 899.58 560.66 899.06 552.97 C 898.53 542.41 899.79 531.79 902.67 521.62 C 904.18 516.39 907.24 511.79 910.53 507.52 C 912.15 505.50 913.95 503.39 916.46 502.51 Z" />
</g>
<g id="#75142fff">
<path fill="#75142f" opacity="1.00" d=" M 737.38 504.41 C 739.62 502.45 742.63 503.20 745.26 503.68 C 745.19 590.77 745.24 677.86 745.22 764.95 C 745.43 781.81 744.27 798.71 741.57 815.36 C 739.76 825.32 737.76 835.45 733.26 844.61 C 729.59 839.95 726.47 834.77 725.04 828.96 C 721.89 818.91 722.31 808.31 721.12 797.97 C 721.05 723.30 721.16 648.63 721.08 573.96 C 721.35 565.87 720.61 557.74 721.59 549.68 C 722.23 543.26 722.08 536.76 723.50 530.43 C 725.31 520.70 729.25 510.56 737.38 504.41 Z" />
</g>
<g id="#5f1027ff">
<path fill="#5f1027" opacity="1.00" d=" M 396.69 625.64 C 405.43 608.40 413.77 590.97 422.63 573.80 C 421.20 600.76 409.83 626.08 408.17 653.02 C 408.07 658.68 408.08 664.34 408.04 670.00 C 407.94 675.19 409.94 680.43 408.20 685.54 C 403.92 667.05 400.04 648.47 395.71 629.99 C 395.83 628.49 395.91 626.95 396.69 625.64 Z" />
</g>
<g id="#71132eff">
<path fill="#71132e" opacity="1.00" d=" M 501.68 712.29 C 512.41 676.74 522.66 641.04 533.45 605.51 C 534.34 611.46 532.22 617.20 531.08 622.96 C 526.84 641.56 522.00 660.07 519.26 678.98 C 517.29 690.05 517.06 701.42 514.12 712.31 C 509.97 712.30 505.82 712.29 501.68 712.29 Z" />
</g>
<g id="#7b1532ff">
<path fill="#7b1532" opacity="1.00" d=" M 586.35 637.18 C 592.34 640.89 598.73 644.23 603.78 649.23 C 611.69 658.11 614.46 670.40 614.15 682.04 C 613.81 692.14 614.17 702.32 616.30 712.23 C 612.28 712.28 608.27 712.30 604.25 712.30 C 601.94 698.97 604.55 685.22 600.94 672.07 C 598.88 664.32 592.83 658.40 586.30 654.15 C 585.86 656.17 585.39 658.20 585.06 660.26 C 584.87 653.57 584.99 646.89 585.08 640.20 C 585.48 639.18 585.91 638.17 586.35 637.18 Z" />
</g>
<g id="#7c1532ff">
<path fill="#7c1532" opacity="1.00" d=" M 369.20 680.17 C 369.40 681.27 369.61 682.37 369.84 683.49 C 369.30 685.02 368.75 686.56 368.42 688.15 C 365.31 710.13 358.53 731.38 354.29 753.14 C 350.27 773.47 347.35 794.02 342.27 814.13 C 338.56 827.79 336.59 841.99 331.02 855.09 C 328.94 853.64 326.87 852.19 324.81 850.74 C 337.35 799.19 349.75 747.62 362.15 696.04 C 363.93 690.50 367.59 685.77 369.20 680.17 Z" />
<path fill="#7c1532" opacity="1.00" d=" M 616.78 714.48 C 619.65 722.24 622.27 730.68 628.69 736.32 C 633.78 741.91 640.64 745.89 644.35 752.67 C 647.11 756.94 645.79 762.40 643.71 766.67 C 639.06 776.24 629.64 782.17 624.19 791.18 C 619.05 799.52 616.43 809.24 615.76 818.96 C 614.74 827.61 614.50 836.36 615.12 845.06 C 615.97 852.42 615.81 859.93 617.73 867.15 C 619.77 876.73 623.69 886.09 622.98 896.07 C 623.58 904.88 617.55 913.56 609.12 916.15 C 595.88 920.73 581.35 920.83 567.67 918.34 C 558.70 916.78 549.52 911.32 546.85 902.13 C 543.95 890.48 548.97 879.13 551.23 867.87 C 555.24 867.86 559.26 867.84 563.28 867.85 C 562.22 876.71 558.38 885.78 561.46 894.66 C 563.41 901.34 570.21 905.11 576.64 906.43 C 583.66 907.69 591.15 907.47 597.84 904.83 C 604.90 902.02 609.22 894.41 609.09 886.97 C 609.21 880.43 606.39 874.32 606.03 867.85 C 605.98 866.24 606.01 864.65 606.03 863.07 C 605.24 862.50 604.46 861.95 603.69 861.41 C 604.51 853.57 602.47 845.85 602.77 838.03 C 602.66 820.10 604.06 801.20 613.29 785.37 C 617.70 777.63 623.09 769.54 622.61 760.25 C 621.85 749.12 613.90 740.58 609.92 730.59 C 612.16 730.58 614.41 730.57 616.66 730.57 C 616.62 725.20 616.63 719.84 616.78 714.48 Z" />
</g>
<g id="#6f132dff">
<path fill="#6f132d" opacity="1.00" d=" M 368.42 688.15 C 368.75 686.56 369.30 685.02 369.84 683.49 C 372.38 694.73 374.93 705.97 377.35 717.24 C 375.87 720.11 374.83 723.18 374.24 726.36 C 371.31 739.98 367.36 753.84 369.13 767.90 C 369.86 772.81 373.49 778.28 379.00 778.12 C 383.19 778.25 387.38 778.78 391.36 780.20 C 393.84 791.37 396.31 802.54 398.72 813.73 C 394.45 810.87 391.32 805.96 385.84 805.30 C 379.55 804.51 374.82 809.68 370.75 813.71 C 363.53 820.55 358.95 829.68 356.19 839.14 C 354.81 843.99 353.37 848.91 353.23 854.00 C 353.13 862.66 352.82 871.35 354.09 879.95 C 353.95 887.43 352.94 895.79 347.36 901.33 C 342.84 906.40 335.81 909.34 329.02 908.05 C 324.34 907.07 319.75 905.04 316.15 901.86 C 313.39 898.94 311.27 894.65 312.49 890.60 C 314.79 882.12 320.30 875.09 325.02 867.85 C 330.80 867.84 336.59 867.83 342.38 867.84 C 342.37 866.22 342.36 864.62 342.37 863.02 C 338.56 860.40 334.80 857.73 331.02 855.09 C 336.59 841.99 338.56 827.79 342.27 814.13 C 347.35 794.02 350.27 773.47 354.29 753.14 C 358.53 731.38 365.31 710.13 368.42 688.15 Z" />
<path fill="#6f132d" opacity="1.00" d=" M 497.14 730.61 C 504.44 730.59 511.74 730.55 519.05 730.56 C 517.12 734.63 514.68 738.58 513.90 743.08 C 513.62 747.09 515.59 750.92 517.93 754.06 C 522.03 758.90 528.51 760.80 534.60 761.55 C 539.38 762.11 543.90 763.88 548.19 766.02 C 548.18 773.76 548.16 781.51 548.16 789.26 C 543.84 786.25 539.50 783.08 534.40 781.56 C 524.35 778.45 513.76 776.10 504.98 770.03 C 500.67 767.18 498.04 762.48 496.48 757.67 C 493.51 748.84 495.23 739.46 497.14 730.61 Z" />
</g>
<g id="#5d1026ff">
<path fill="#5d1026" opacity="1.00" d=" M 374.24 726.36 C 374.83 723.18 375.87 720.11 377.35 717.24 C 382.10 738.21 386.68 759.21 391.36 780.20 C 387.38 778.78 383.19 778.25 379.00 778.12 C 373.49 778.28 369.86 772.81 369.13 767.90 C 367.36 753.84 371.31 739.98 374.24 726.36 Z" />
<path fill="#5d1026" opacity="1.00" d=" M 428.08 867.83 C 434.69 867.82 441.30 867.82 447.91 867.83 C 450.66 874.36 455.17 881.69 452.01 888.89 C 449.89 893.91 443.82 894.79 439.02 894.17 C 433.78 893.94 429.99 889.30 428.38 884.68 C 426.36 879.24 427.85 873.42 428.08 867.83 Z" />
</g>
<g id="#891838ff">
<path fill="#891838" opacity="1.00" d=" M 486.97 730.64 C 490.36 730.61 493.74 730.60 497.14 730.61 C 495.23 739.46 493.51 748.84 496.48 757.67 C 498.04 762.48 500.67 767.18 504.98 770.03 C 513.76 776.10 524.35 778.45 534.40 781.56 C 539.50 783.08 543.84 786.25 548.16 789.26 C 548.14 797.61 548.16 805.98 548.09 814.34 C 545.94 809.24 544.06 803.91 540.59 799.53 C 537.62 795.62 533.23 793.15 528.87 791.10 C 518.68 786.36 507.07 785.39 497.30 779.65 C 491.14 776.08 486.31 770.09 484.95 763.01 C 482.79 752.26 484.36 741.17 486.97 730.64 Z" />
</g>
<g id="#601027ff">
<path fill="#601027" opacity="1.00" d=" M 519.05 730.56 C 528.76 730.56 538.48 730.56 548.20 730.57 C 548.17 742.38 548.20 754.20 548.19 766.02 C 543.90 763.88 539.38 762.11 534.60 761.55 C 528.51 760.80 522.03 758.90 517.93 754.06 C 515.59 750.92 513.62 747.09 513.90 743.08 C 514.68 738.58 517.12 734.63 519.05 730.56 Z" />
</g>
<g id="#a11c41ff">
<path fill="#a11c41" opacity="1.00" d=" M 292.34 835.86 C 303.52 813.47 314.48 790.98 325.83 768.69 C 319.59 795.07 313.10 821.39 306.85 847.77 C 304.66 849.29 302.48 850.83 300.29 852.36 C 294.58 848.75 294.12 841.71 292.34 835.86 Z" />
</g>
<g id="#a61c43ff">
<path fill="#a61c43" opacity="1.00" d=" M 470.98 777.95 C 472.01 775.45 475.30 775.51 477.33 776.69 C 481.19 778.71 484.51 781.64 488.44 783.58 C 495.93 787.28 503.83 790.19 511.99 792.04 C 522.62 794.77 533.66 799.87 538.97 810.06 C 545.44 823.04 541.94 837.78 543.37 851.62 C 539.64 854.23 535.89 856.81 532.16 859.42 C 533.48 848.33 533.02 837.15 532.99 826.02 C 532.63 814.05 522.24 804.48 511.04 801.99 C 504.43 800.64 497.80 798.69 491.00 798.93 C 485.35 799.03 481.35 804.67 481.01 809.93 C 480.70 815.67 480.67 821.50 481.70 827.18 C 483.75 836.80 485.83 846.46 489.24 855.71 C 492.59 864.23 497.22 872.17 502.05 879.93 C 504.75 884.08 507.08 888.99 511.66 891.39 C 515.11 892.92 518.28 889.66 520.04 887.03 C 523.76 881.02 527.08 874.68 529.13 867.89 C 533.82 867.95 538.50 867.88 543.19 867.89 C 540.58 877.54 536.79 886.98 535.95 897.01 C 535.81 904.60 538.77 912.50 544.43 917.66 C 552.90 923.96 563.64 926.36 574.00 927.15 C 589.45 927.42 605.84 928.26 620.01 920.96 C 628.58 916.87 633.03 907.19 633.19 898.04 C 632.74 885.40 626.95 873.85 624.57 861.59 C 622.31 850.53 623.47 839.21 623.14 828.03 C 622.72 815.23 625.97 801.55 635.00 792.06 C 639.62 787.76 645.40 783.63 652.04 784.11 C 657.70 783.95 660.77 789.62 662.90 794.03 C 668.79 808.64 671.45 824.25 675.40 839.45 C 681.38 862.45 689.28 885.76 704.42 904.48 C 712.37 914.72 724.17 922.14 737.12 923.87 C 742.05 924.80 746.97 923.26 751.92 923.58 C 749.94 928.29 747.55 932.81 745.35 937.42 C 737.03 936.52 728.35 936.20 720.71 932.43 C 704.94 925.51 693.27 911.91 684.72 897.33 C 678.58 885.67 672.74 873.77 668.87 861.14 C 665.85 850.66 662.74 840.21 660.37 829.56 C 658.47 822.79 656.97 815.29 651.71 810.22 C 649.30 807.91 645.44 807.80 642.83 809.83 C 637.55 813.38 636.58 820.18 635.78 825.99 C 634.02 840.85 635.42 856.06 639.72 870.39 C 642.60 879.15 645.55 887.95 646.93 897.11 C 647.56 901.98 646.81 906.92 645.62 911.65 C 643.68 919.27 637.99 925.20 632.13 930.12 C 621.32 937.71 607.75 938.82 594.99 939.98 C 580.68 940.54 566.19 940.10 552.20 936.75 C 545.83 935.27 539.83 932.38 534.63 928.44 C 529.53 924.55 524.99 920.01 520.01 916.00 C 517.58 914.23 514.12 912.23 511.28 914.33 C 501.95 920.09 495.11 929.48 484.88 933.91 C 469.68 939.76 453.12 940.40 437.03 940.11 C 425.24 939.62 413.57 937.67 402.13 934.81 C 396.79 933.36 391.51 931.49 385.97 930.92 C 379.93 930.19 373.84 931.40 368.11 933.27 C 360.17 935.84 351.91 937.19 343.71 938.65 C 330.46 939.98 317.12 938.82 303.92 937.32 C 291.68 935.66 279.40 933.71 267.01 934.10 C 259.02 934.32 250.94 933.35 243.05 935.00 C 244.69 931.71 246.32 928.43 247.95 925.15 C 258.22 923.20 268.67 924.36 279.04 923.96 C 285.41 923.73 291.61 925.36 297.87 926.32 C 308.49 928.15 319.20 929.71 329.99 930.11 C 339.88 930.56 349.58 927.96 358.88 924.84 C 365.92 922.53 372.16 918.25 379.37 916.40 C 385.89 914.78 391.93 918.76 397.66 921.29 C 415.51 930.15 435.94 932.25 455.59 930.60 C 466.16 929.27 477.54 927.89 486.21 921.13 C 494.25 915.19 497.63 904.21 495.44 894.61 C 493.82 885.92 489.64 878.06 485.60 870.30 C 480.42 859.96 476.63 848.91 474.34 837.58 C 472.34 828.73 470.29 819.88 469.33 810.85 C 468.57 799.92 466.34 788.36 470.98 777.95 Z" />
</g>
<g id="#94193cff">
<path fill="#94193c" opacity="1.00" d=" M 285.54 849.53 C 287.78 844.96 290.04 840.39 292.34 835.86 C 294.12 841.71 294.58 848.75 300.29 852.36 C 296.48 854.99 292.70 857.66 288.92 860.31 C 287.92 856.68 286.79 853.08 285.54 849.53 Z" />
</g>
<g id="#771430ff">
<path fill="#771430" opacity="1.00" d=" M 257.84 905.20 C 264.66 891.38 271.52 877.58 278.42 863.81 C 280.79 872.05 283.74 880.44 283.31 889.14 C 283.30 893.60 280.15 897.29 276.40 899.34 C 270.68 902.50 264.27 904.21 257.84 905.20 Z" />
</g>
<g id="#6c132cff">
<path fill="#6c132c" opacity="1.00" d=" M 413.96 867.85 C 418.67 867.84 423.37 867.83 428.08 867.83 C 427.85 873.42 426.36 879.24 428.38 884.68 C 429.99 889.30 433.78 893.94 439.02 894.17 C 443.82 894.79 449.89 893.91 452.01 888.89 C 455.17 881.69 450.66 874.36 447.91 867.83 C 452.90 867.82 457.89 867.84 462.88 867.85 C 465.78 876.03 469.89 884.08 469.95 892.96 C 469.77 900.20 464.05 906.30 457.43 908.56 C 451.23 910.89 444.49 910.19 438.00 910.25 C 428.84 910.19 418.86 905.59 415.34 896.65 C 411.28 887.52 413.03 877.41 413.96 867.85 Z" />
</g>
<g id="#641129ff">
<path fill="#641129" opacity="1.00" d=" M 563.28 867.85 C 577.53 867.81 591.78 867.81 606.03 867.85 C 606.39 874.32 609.21 880.43 609.09 886.97 C 609.22 894.41 604.90 902.02 597.84 904.83 C 591.15 907.47 583.66 907.69 576.64 906.43 C 570.21 905.11 563.41 901.34 561.46 894.66 C 558.38 885.78 562.22 876.71 563.28 867.85 Z" />
</g>
</svg>
