<?xml version="1.0" encoding="UTF-8" ?>
<!DOCTYPE svg PUBLIC "-//W3C//DTD SVG 1.1//EN" "http://www.w3.org/Graphics/SVG/1.1/DTD/svg11.dtd">
<svg width="1276pt" height="1276pt" viewBox="0 0 1276 1276" version="1.1" xmlns="http://www.w3.org/2000/svg">
<g id="#f58219ff">
<path fill="#f58219" opacity="1.00" d=" M 736.14 63.03 C 742.13 70.87 747.81 79.02 751.93 88.03 C 753.13 90.61 754.18 93.25 755.31 95.86 C 759.07 106.35 762.30 117.25 762.65 128.46 L 763.35 128.55 C 763.57 136.85 763.57 145.16 763.35 153.46 L 762.67 153.54 C 762.55 160.09 761.47 166.63 759.77 172.94 C 759.59 173.97 759.41 175.00 759.24 176.03 C 758.76 177.36 758.42 178.73 758.12 180.11 C 756.90 184.75 755.31 189.29 753.71 193.81 C 752.93 195.89 752.12 197.96 751.31 200.03 C 750.74 201.29 750.19 202.55 749.67 203.83 C 749.09 205.19 748.49 206.55 747.85 207.89 C 746.29 211.35 744.68 214.79 742.83 218.10 C 725.67 250.85 701.07 279.03 674.49 304.45 C 659.74 318.48 644.08 331.52 628.10 344.11 C 599.07 367.86 571.13 395.07 555.61 429.83 C 554.69 432.19 553.78 434.56 552.88 436.93 C 552.53 437.94 552.17 438.94 551.80 439.94 C 550.38 445.04 548.57 450.13 548.32 455.47 L 547.62 455.53 C 547.71 462.76 546.02 469.90 546.65 477.14 C 547.64 480.84 547.36 484.71 547.60 488.50 L 548.29 488.56 C 548.54 493.16 549.88 497.60 551.02 502.04 C 551.68 504.03 552.34 506.03 552.87 508.07 C 553.60 510.03 554.32 512.00 555.07 513.96 C 555.44 514.94 555.83 515.93 556.23 516.92 C 557.47 519.97 558.88 522.95 560.24 525.96 C 561.66 529.04 563.36 531.98 564.83 535.04 C 565.95 537.01 567.05 538.99 568.20 540.95 C 569.49 543.25 570.81 545.53 572.22 547.77 C 575.10 552.54 578.13 557.22 581.24 561.85 C 595.08 582.62 610.25 602.54 622.75 624.18 C 625.93 629.96 629.23 635.72 631.61 641.89 C 616.23 627.80 600.62 613.92 585.87 599.15 C 577.95 592.06 570.95 584.05 563.43 576.56 C 545.20 557.55 528.11 537.23 514.23 514.77 C 512.88 512.48 511.58 510.17 510.26 507.88 C 508.62 505.02 507.20 502.04 505.61 499.16 C 504.83 497.41 504.05 495.67 503.27 493.93 C 502.51 492.27 501.79 490.59 501.13 488.90 C 500.46 487.24 499.84 485.58 499.26 483.91 C 497.42 479.06 496.19 474.03 494.88 469.02 C 492.74 459.16 493.10 449.02 493.43 439.00 C 493.95 433.85 495.30 428.82 496.67 423.85 C 498.34 418.75 500.41 413.79 502.89 409.03 C 510.93 394.34 521.52 381.15 532.94 368.96 C 559.63 340.39 591.16 317.05 621.55 292.64 C 651.16 268.93 680.99 244.73 704.30 214.53 C 714.48 201.44 723.34 187.23 729.67 171.88 C 730.22 170.63 730.76 169.37 731.34 168.13 C 732.24 165.41 733.12 162.68 734.27 160.06 C 734.37 159.52 734.57 158.45 734.67 157.91 C 736.42 154.12 736.78 149.90 738.19 146.00 C 738.37 144.69 738.54 143.38 738.74 142.07 C 739.46 140.12 739.66 138.04 739.93 135.98 C 742.09 124.46 741.80 112.66 741.55 100.99 C 741.48 93.45 739.91 86.03 739.32 78.53 L 738.64 78.51 C 738.54 76.98 738.41 75.45 738.28 73.93 C 737.11 70.40 736.47 66.72 736.14 63.03 Z" />
<path fill="#f58219" opacity="1.00" d=" M 865.56 280.59 C 866.28 280.02 867.02 279.46 867.78 278.92 C 866.98 279.69 866.22 280.52 865.30 281.14 C 858.13 285.38 850.85 289.40 843.77 293.77 C 810.89 313.57 778.36 334.25 748.61 358.58 C 732.39 371.93 716.86 386.57 705.28 404.25 C 703.91 406.52 702.57 408.81 701.28 411.14 C 699.81 414.08 698.32 417.02 697.27 420.15 C 692.77 430.48 692.75 441.99 693.78 453.02 C 694.60 455.99 695.11 459.06 696.16 461.97 C 696.29 462.49 696.54 463.53 696.67 464.05 C 697.07 465.06 697.48 466.07 697.88 467.09 C 698.90 469.73 699.97 472.37 701.21 474.93 C 708.44 490.23 718.46 503.96 728.00 517.87 C 733.16 525.49 738.81 532.80 743.25 540.89 C 744.05 542.63 744.88 544.38 745.69 546.13 C 748.15 551.97 750.40 558.06 750.72 564.45 L 751.40 564.49 C 752.05 575.09 751.66 585.94 747.83 595.98 C 747.69 596.49 747.42 597.50 747.28 598.01 C 746.71 599.27 746.17 600.55 745.64 601.85 C 744.89 603.61 744.10 605.35 743.29 607.09 C 729.89 632.85 707.23 652.30 683.47 668.27 C 677.68 671.69 672.30 676.13 665.93 678.37 C 666.37 678.14 667.25 677.70 667.69 677.47 C 678.16 667.25 687.29 655.53 693.32 642.12 C 694.64 638.78 695.89 635.40 696.84 631.93 C 697.36 630.34 697.61 628.67 697.93 627.04 C 699.92 617.50 699.56 607.44 696.79 598.10 C 695.99 595.35 695.04 592.66 693.94 590.03 C 687.72 575.26 675.59 564.39 666.41 551.58 C 660.88 544.03 655.59 536.27 651.14 528.03 C 649.98 526.06 648.91 524.05 647.86 522.04 C 646.31 518.65 644.55 515.37 643.19 511.90 C 641.89 509.05 640.81 506.11 639.84 503.13 C 639.46 502.11 639.07 501.09 638.67 500.09 C 638.54 499.57 638.28 498.52 638.15 497.99 C 637.28 495.37 636.71 492.65 635.76 490.06 C 635.60 488.53 635.48 487.02 635.38 485.50 L 634.65 485.49 C 633.31 474.08 632.23 462.39 634.11 450.98 C 634.32 447.57 635.17 444.27 635.86 440.94 C 636.96 437.32 637.73 433.59 639.23 430.10 C 640.50 426.32 642.14 422.69 643.77 419.05 C 658.77 388.89 684.59 365.75 712.20 347.26 C 718.66 342.88 725.29 338.77 732.02 334.82 C 734.32 333.46 736.65 332.15 738.99 330.83 C 743.38 328.61 747.58 326.03 752.00 323.86 C 752.67 323.55 753.33 323.24 754.01 322.93 C 756.71 321.57 759.42 320.23 762.06 318.76 C 765.67 317.08 769.35 315.52 772.87 313.66 C 775.89 312.36 778.93 311.12 781.88 309.66 C 784.59 308.58 787.22 307.35 789.94 306.30 C 792.34 305.26 794.75 304.26 797.19 303.32 C 798.42 302.78 799.64 302.24 800.88 301.70 C 803.94 300.60 806.97 299.44 810.01 298.28 C 811.00 297.87 811.99 297.48 813.00 297.10 C 816.66 295.72 820.37 294.50 824.02 293.11 C 825.01 292.74 826.01 292.38 827.02 292.04 C 831.06 290.79 835.00 289.21 839.09 288.10 C 841.38 287.37 843.69 286.68 845.97 285.92 C 851.44 284.22 856.87 282.32 862.51 281.21 L 862.51 280.40 C 863.28 280.45 864.80 280.54 865.56 280.59 Z" />
</g>
<g id="#ec0300ff">
<path fill="#ec0300" opacity="1.00" d=" M 887.89 641.74 C 898.22 637.76 909.03 635.26 919.97 633.77 C 927.63 633.28 935.34 633.28 943.00 633.78 C 948.32 634.93 953.79 635.40 959.01 637.06 C 963.73 638.50 968.45 640.02 972.87 642.25 C 990.32 650.11 1005.28 664.20 1012.82 681.93 C 1014.89 686.41 1015.97 691.23 1017.26 695.97 C 1018.17 702.59 1019.15 709.34 1017.92 716.00 C 1017.65 718.33 1017.58 720.71 1016.89 722.98 C 1013.35 740.87 1003.30 756.81 991.01 770.01 C 976.39 785.52 958.59 797.71 939.87 807.73 C 936.98 809.31 934.01 810.74 931.11 812.29 C 929.09 813.18 927.09 814.14 925.13 815.15 C 923.47 815.82 921.83 816.56 920.23 817.34 C 917.47 818.52 914.71 819.72 911.92 820.86 C 908.65 822.33 905.26 823.53 901.93 824.87 C 899.01 826.12 895.95 826.99 893.04 828.25 C 892.52 828.37 891.50 828.61 890.98 828.73 C 887.10 830.43 883.03 831.63 878.99 832.84 C 874.73 834.46 870.30 835.49 865.96 836.85 C 864.68 837.26 863.36 837.59 862.08 837.97 C 858.69 838.88 855.35 839.96 851.91 840.63 C 852.89 839.02 853.89 837.42 854.86 835.80 C 886.98 818.70 918.62 799.39 943.89 772.85 C 956.15 759.67 966.88 744.49 971.99 727.04 C 975.25 715.34 975.80 702.55 971.88 690.95 C 971.74 690.45 971.45 689.45 971.30 688.95 C 970.87 687.87 970.46 686.81 970.06 685.75 C 964.06 672.13 953.04 661.05 939.91 654.20 C 932.75 650.46 924.97 648.18 917.05 646.76 C 911.35 646.33 905.62 646.33 899.92 646.75 C 895.31 648.00 890.54 648.66 886.04 650.28 C 885.52 650.40 884.47 650.65 883.94 650.78 C 880.67 652.04 877.21 652.85 874.13 654.57 C 877.37 649.04 882.15 644.60 887.89 641.74 Z" />
<path fill="#ec0300" opacity="1.00" d=" M 468.98 645.76 C 471.70 645.46 474.43 645.37 477.17 645.19 C 487.28 643.83 497.55 643.62 507.76 643.57 C 507.70 644.00 507.59 644.87 507.54 645.30 C 506.35 645.41 505.18 645.54 504.01 645.69 C 497.69 647.55 491.27 649.11 484.91 650.85 C 482.33 651.65 479.71 652.35 477.13 653.13 C 475.07 653.69 473.04 654.31 470.99 654.89 C 468.68 655.67 466.34 656.36 464.01 657.09 C 458.97 658.64 453.96 660.31 448.99 662.09 C 444.28 663.56 439.67 665.36 435.13 667.30 C 431.71 668.42 428.38 669.81 425.14 671.36 C 422.43 672.59 419.73 673.82 417.13 675.26 C 411.38 678.40 404.94 681.88 402.12 688.13 C 401.92 688.79 401.73 689.46 401.54 690.14 C 402.70 692.66 404.51 694.80 406.83 696.34 C 415.01 700.39 424.00 702.38 432.97 703.79 C 442.20 705.56 451.60 706.30 460.94 707.31 C 464.61 707.67 468.39 707.17 471.98 708.22 C 478.30 708.85 484.74 708.06 491.01 709.17 C 521.33 710.08 551.66 709.76 581.99 709.38 C 584.98 709.35 588.02 709.51 590.98 708.82 C 601.64 708.17 612.41 709.08 623.00 707.73 C 635.07 707.47 647.10 706.55 659.16 706.09 C 664.73 705.28 670.43 705.97 675.96 704.83 C 681.11 704.53 686.27 704.42 691.43 704.33 L 691.53 703.64 C 695.35 703.59 699.18 703.48 702.99 703.13 C 709.62 702.01 716.40 702.00 723.02 700.86 C 726.33 700.44 729.77 700.87 732.97 699.76 C 750.56 698.17 768.03 695.54 785.55 693.31 C 788.66 692.64 791.94 692.84 794.96 691.77 C 796.99 691.55 799.02 691.40 801.07 691.21 C 805.37 690.27 809.77 689.77 814.15 689.23 L 814.82 688.82 C 821.27 688.32 827.59 686.82 834.01 686.06 C 838.17 685.31 842.35 684.59 846.58 684.22 C 846.81 685.54 847.36 685.95 848.23 685.43 L 849.81 684.55 L 852.35 683.36 C 850.15 684.41 848.96 687.70 846.05 686.62 C 839.94 689.56 833.87 692.58 827.85 695.69 C 821.00 699.12 814.41 703.03 807.82 706.92 C 801.03 709.18 793.87 710.16 787.03 712.26 C 785.69 712.44 784.34 712.60 783.02 712.81 C 779.74 713.86 776.32 714.27 772.99 715.04 C 769.69 715.74 766.39 716.44 763.04 716.88 C 748.48 719.92 733.68 721.79 719.02 724.20 C 716.08 724.53 713.12 724.57 710.19 724.25 C 711.38 724.62 714.36 724.46 713.37 726.55 L 712.93 725.16 C 703.96 725.98 694.97 726.89 686.07 728.18 C 682.72 728.60 679.26 728.17 676.02 729.23 C 659.53 730.29 643.10 732.50 626.56 732.65 L 626.42 733.33 C 619.62 733.66 612.75 733.18 606.02 734.19 C 568.69 735.84 531.31 735.99 493.95 735.20 C 485.00 734.27 475.91 735.13 467.01 733.84 C 461.67 733.50 456.31 733.62 450.98 733.21 C 446.42 732.05 441.65 732.71 437.01 732.13 C 430.05 731.06 422.94 731.16 416.02 729.83 C 412.70 729.48 409.28 729.76 406.08 728.71 C 397.34 727.81 388.62 726.53 380.00 724.87 C 374.99 724.07 370.06 722.91 365.09 721.95 C 363.70 721.58 362.33 721.27 361.00 720.77 C 359.99 720.56 358.98 720.37 357.98 720.19 C 355.37 719.33 352.71 718.68 350.09 717.90 C 349.06 717.56 348.03 717.22 347.02 716.88 C 346.03 716.51 345.04 716.14 344.06 715.78 C 341.31 714.70 338.64 713.44 335.97 712.21 C 331.31 709.41 325.25 705.60 325.73 699.37 C 326.72 694.30 331.04 690.79 335.10 688.05 C 340.62 684.21 346.86 681.64 352.85 678.67 C 355.89 677.43 358.91 676.13 361.87 674.73 C 364.23 673.82 366.58 672.88 368.89 671.86 C 370.30 671.29 371.72 670.72 373.16 670.20 C 375.11 669.41 377.07 668.65 379.01 667.84 C 379.53 667.72 380.57 667.49 381.09 667.37 C 382.08 666.95 383.09 666.55 384.10 666.17 C 388.03 664.73 391.98 663.33 395.97 662.06 C 396.99 661.73 398.01 661.42 399.04 661.12 C 402.35 660.10 405.67 659.11 408.98 658.08 C 412.92 656.79 417.03 656.14 420.95 654.78 C 421.95 654.59 422.96 654.40 423.97 654.21 C 428.54 652.68 433.39 652.27 437.98 650.82 C 439.33 650.62 440.69 650.45 442.05 650.26 C 443.95 649.51 446.00 649.37 448.01 649.10 C 452.27 648.02 456.71 647.88 460.97 646.80 C 463.64 646.53 466.41 646.69 468.98 645.76 Z" />
<path fill="#ec0300" opacity="1.00" d=" M 449.26 770.13 C 454.15 768.51 458.90 766.52 463.80 764.94 C 462.00 766.88 460.18 768.84 458.64 771.00 C 455.97 774.21 454.07 777.93 452.62 781.82 C 452.59 783.60 452.58 785.39 452.59 787.19 C 454.81 793.10 460.35 796.71 466.06 798.78 C 467.04 799.14 468.04 799.51 469.05 799.87 C 470.35 800.26 471.67 800.59 473.00 800.97 C 476.60 801.92 480.33 802.31 483.94 803.25 C 486.01 803.42 488.09 803.55 490.17 803.76 C 501.70 805.36 513.47 805.56 525.01 807.17 C 529.03 807.48 533.07 807.36 537.09 807.74 C 544.30 809.19 551.78 808.04 559.04 809.19 C 578.70 809.92 598.39 809.86 618.06 809.54 C 622.04 809.41 626.06 809.59 629.99 808.85 C 635.47 808.64 640.95 808.47 646.44 808.35 L 646.56 807.66 C 650.71 807.59 654.87 807.51 659.02 807.18 C 671.00 805.79 683.05 804.64 695.04 803.19 C 710.35 800.82 725.75 798.80 740.97 795.86 C 751.76 794.31 762.37 791.53 773.17 790.19 C 782.44 799.88 793.83 807.48 806.10 812.84 C 808.63 813.97 811.21 815.00 813.91 815.71 C 813.71 816.05 813.33 816.73 813.14 817.07 C 810.43 817.60 807.76 818.29 805.14 819.14 C 797.76 821.14 790.42 823.29 782.94 824.85 C 778.72 826.29 774.24 826.77 770.01 828.17 C 760.67 830.06 751.39 832.28 742.01 833.94 C 736.06 835.24 729.99 835.90 724.07 837.31 C 722.68 837.49 721.29 837.65 719.93 837.84 C 715.33 838.85 710.59 839.07 706.01 840.16 C 703.66 840.39 701.24 840.32 699.03 841.26 C 696.67 841.47 694.32 841.61 691.98 841.83 C 686.36 842.92 680.62 843.19 674.97 844.08 C 671.35 844.73 667.55 844.02 664.04 845.24 C 661.02 845.51 657.98 845.53 654.96 845.82 C 649.43 847.02 643.69 846.29 638.11 847.20 C 628.72 847.56 619.38 848.46 609.99 848.46 C 581.38 848.84 552.71 848.95 524.24 845.98 C 520.19 845.37 516.08 845.29 511.99 845.33 C 511.84 845.08 511.54 844.59 511.38 844.34 C 504.90 844.06 498.40 843.07 492.02 841.86 C 490.34 841.63 488.67 841.45 487.01 841.20 C 485.08 840.44 482.98 840.38 480.96 840.16 C 477.68 839.23 474.31 838.73 471.02 837.89 C 469.33 837.59 467.63 837.37 466.02 836.76 C 465.02 836.54 464.03 836.33 463.04 836.14 C 455.56 834.20 448.24 831.74 440.91 829.33 C 439.63 828.76 438.37 828.24 437.11 827.70 C 427.96 823.65 418.09 819.07 412.50 810.37 C 408.58 804.60 410.10 796.61 414.61 791.62 C 422.88 781.97 434.67 776.30 446.09 771.27 C 447.14 770.86 448.19 770.48 449.26 770.13 Z" />
<path fill="#ec0300" opacity="1.00" d=" M 492.18 877.30 C 491.51 878.22 490.84 879.16 490.02 879.97 C 486.66 882.39 483.58 885.34 481.73 889.10 C 481.03 891.41 481.36 893.86 481.42 896.25 C 483.89 899.40 487.20 901.67 490.83 903.30 C 493.81 904.36 496.82 905.31 499.87 906.16 C 510.76 908.82 522.01 909.33 533.02 911.20 C 535.68 911.46 538.36 911.53 541.03 911.78 C 548.19 913.17 555.58 913.19 562.82 914.08 C 567.19 914.68 571.66 914.13 575.97 915.20 C 597.29 915.91 618.65 915.97 639.97 915.17 C 652.65 913.89 665.41 912.67 678.09 911.21 C 684.95 909.59 692.09 909.46 698.96 907.79 C 701.27 907.55 703.63 907.44 705.85 906.69 C 707.25 906.49 708.64 906.31 710.06 906.14 C 713.97 905.18 718.01 904.82 721.92 903.79 C 723.93 903.56 726.00 903.46 727.92 902.74 C 731.66 902.15 735.39 901.51 739.09 900.70 C 745.62 904.62 752.18 908.52 759.04 911.86 C 764.27 914.71 769.62 917.37 775.08 919.77 C 779.27 921.83 783.68 923.39 787.93 925.34 C 790.02 926.14 792.11 926.95 794.23 927.74 C 795.23 928.19 796.25 928.63 797.28 929.08 C 794.05 930.10 791.01 931.59 787.85 932.76 C 783.96 934.36 780.01 935.78 776.11 937.32 C 773.39 938.23 770.65 939.11 768.00 940.21 C 767.49 940.34 766.48 940.61 765.97 940.74 C 762.98 941.89 759.90 942.76 756.84 943.68 C 755.24 944.19 753.65 944.69 752.09 945.26 C 748.73 946.13 745.39 947.11 742.07 948.11 C 740.70 948.40 739.34 948.71 738.03 949.18 C 732.99 950.38 728.00 951.74 722.93 952.79 C 721.33 953.34 719.65 953.59 718.01 953.89 C 713.29 955.02 708.53 955.93 703.75 956.72 C 697.27 958.26 690.63 958.95 684.08 960.12 C 665.81 962.54 647.44 964.47 628.99 964.79 C 626.05 965.58 623.00 965.33 620.00 965.37 C 611.33 965.33 602.66 965.59 594.00 965.19 C 587.72 964.10 581.28 964.77 574.95 964.11 C 567.66 963.26 560.28 963.10 553.04 961.82 C 542.30 960.71 531.61 958.90 521.03 956.73 C 511.93 954.91 502.98 952.46 494.06 949.93 C 493.03 949.53 492.01 949.13 491.00 948.73 C 490.49 948.59 489.48 948.33 488.97 948.20 C 486.30 947.17 483.57 946.33 480.91 945.29 C 479.66 944.70 478.38 944.16 477.12 943.65 C 464.37 938.33 450.77 931.62 443.62 919.19 C 442.00 915.34 441.93 911.06 442.93 907.05 C 445.77 900.94 450.93 896.28 456.54 892.73 C 466.51 886.33 477.85 882.56 489.03 878.87 C 490.21 878.60 491.26 878.08 492.18 877.30 Z" />
</g>
<g id="#6b010074">
<path fill="#6b0100" opacity="0.45" d=" M 449.04 769.38 C 454.70 767.38 460.16 764.74 466.04 763.39 C 464.43 766.62 461.44 768.84 458.64 771.00 C 460.18 768.84 462.00 766.88 463.80 764.94 C 458.90 766.52 454.15 768.51 449.26 770.13 L 449.04 769.38 Z" />
</g>
<g id="#ffffffff">
<path fill="#ffffff" opacity="1.00" d=" M 359.53 956.71 C 366.70 956.19 373.83 955.39 381.00 954.85 C 386.13 955.41 391.31 955.18 396.45 955.66 L 396.51 956.29 C 398.21 956.34 399.93 956.46 401.64 956.56 L 401.44 957.28 C 403.04 957.39 404.69 957.60 406.03 958.59 C 406.35 958.58 406.98 958.54 407.30 958.53 L 407.50 959.60 L 408.56 959.29 C 408.50 959.76 408.38 960.71 408.32 961.18 C 404.00 961.15 399.69 961.50 395.38 961.65 L 395.55 962.31 C 393.33 962.40 391.12 962.59 388.92 962.84 C 386.98 963.34 385.00 963.65 383.07 964.19 C 381.78 964.31 380.50 964.43 379.22 964.54 L 379.65 965.25 C 377.59 965.37 375.54 965.54 373.49 965.67 C 373.49 965.85 373.50 966.21 373.50 966.39 C 371.96 966.48 370.42 966.61 368.89 966.77 C 367.30 967.29 365.68 967.70 364.09 968.19 C 362.89 968.35 361.69 968.51 360.50 968.68 L 360.57 969.39 C 359.19 969.45 357.81 969.53 356.44 969.62 L 356.65 970.44 C 355.96 970.51 354.59 970.63 353.90 970.69 C 352.61 971.22 351.31 971.71 350.03 972.25 C 349.39 972.34 348.11 972.51 347.47 972.60 L 347.50 973.38 C 346.72 973.41 345.15 973.47 344.37 973.51 L 344.47 974.32 C 343.82 974.42 342.52 974.61 341.87 974.70 C 340.29 975.47 338.64 976.12 336.96 976.65 C 335.67 977.21 334.38 977.76 333.10 978.36 C 331.01 979.10 329.00 980.04 327.01 981.04 C 323.48 982.74 320.05 984.65 316.75 986.77 C 313.66 989.04 310.49 991.51 308.67 994.97 C 307.94 997.65 308.15 1000.74 310.23 1002.80 C 310.48 1003.03 310.99 1003.49 311.25 1003.71 C 312.77 1004.99 314.46 1006.08 316.33 1006.80 L 316.57 1007.32 C 319.03 1008.19 321.45 1009.17 323.84 1010.22 C 325.29 1010.69 326.70 1011.26 328.15 1011.77 C 331.53 1012.97 334.95 1014.07 338.47 1014.81 L 338.37 1015.49 C 339.17 1015.51 340.77 1015.55 341.57 1015.57 L 341.49 1016.33 C 342.69 1016.46 343.88 1016.62 345.08 1016.81 C 347.55 1017.65 350.08 1018.35 352.68 1018.65 L 352.47 1019.32 C 354.18 1019.41 355.88 1019.52 357.59 1019.63 L 357.45 1020.33 C 358.99 1020.46 360.53 1020.63 362.07 1020.83 C 363.67 1021.33 365.31 1021.70 366.93 1022.19 C 368.48 1022.36 370.02 1022.51 371.59 1022.67 L 371.41 1023.34 C 373.46 1023.40 375.53 1023.55 377.59 1023.64 L 377.41 1024.37 C 379.42 1024.48 381.42 1024.64 383.44 1024.76 L 383.53 1025.30 C 387.57 1025.59 391.54 1026.58 395.61 1026.68 L 395.41 1027.32 C 397.80 1027.38 400.20 1027.54 402.60 1027.62 L 402.36 1028.35 C 405.07 1028.44 407.78 1028.64 410.51 1028.71 L 410.55 1029.26 C 416.23 1029.42 421.80 1030.78 427.50 1030.72 L 427.41 1031.32 C 430.84 1031.35 434.26 1031.60 437.68 1031.69 L 437.30 1032.37 C 441.05 1032.44 444.80 1032.71 448.56 1032.70 L 448.46 1033.29 C 456.84 1033.42 465.15 1034.77 473.54 1034.70 L 473.45 1035.30 C 479.53 1035.26 485.61 1035.70 491.70 1035.68 L 491.27 1036.37 C 497.51 1036.38 503.75 1036.66 510.00 1036.71 C 520.91 1038.15 531.99 1037.12 542.93 1038.13 C 574.98 1038.67 607.03 1038.66 639.08 1038.14 C 646.05 1037.50 653.09 1037.66 660.09 1037.62 C 666.09 1038.18 672.09 1037.37 678.09 1037.22 C 703.10 1036.57 728.05 1034.85 752.98 1033.02 C 756.40 1032.88 759.93 1032.88 763.18 1031.62 C 766.31 1031.44 769.44 1031.32 772.58 1031.33 L 772.48 1030.70 C 779.51 1030.68 786.44 1029.38 793.47 1029.28 L 793.48 1028.71 C 796.88 1028.68 800.27 1028.40 803.67 1028.32 L 803.31 1027.64 C 806.41 1027.58 809.50 1027.37 812.61 1027.33 L 812.42 1026.70 C 818.27 1026.44 824.11 1025.73 829.88 1024.81 C 832.12 1024.58 834.37 1024.42 836.64 1024.34 L 836.33 1023.66 C 839.08 1023.57 841.82 1023.38 844.58 1023.32 L 844.39 1022.67 C 848.93 1022.50 853.41 1021.62 857.88 1020.84 C 861.85 1020.69 865.64 1019.27 869.63 1019.33 L 869.40 1018.68 C 871.29 1018.55 873.18 1018.36 875.08 1018.18 C 877.00 1017.65 878.98 1017.36 880.91 1016.86 C 882.45 1016.63 884.03 1016.46 885.60 1016.32 L 885.41 1015.61 C 887.13 1015.55 888.88 1015.49 890.62 1015.47 C 890.58 1015.26 890.49 1014.83 890.45 1014.61 C 891.99 1014.52 893.53 1014.37 895.09 1014.24 C 897.84 1013.25 900.71 1012.66 903.62 1012.34 L 903.46 1011.70 C 905.14 1011.57 906.85 1011.45 908.56 1011.34 L 908.32 1010.55 C 909.02 1010.49 910.41 1010.37 911.10 1010.31 C 913.52 1009.36 916.04 1008.72 918.61 1008.30 L 918.51 1007.64 C 919.30 1007.61 920.86 1007.56 921.64 1007.53 L 921.54 1006.69 C 922.19 1006.60 923.51 1006.42 924.16 1006.33 C 926.44 1005.38 928.84 1004.73 931.06 1003.61 C 931.30 1003.61 931.77 1003.60 932.01 1003.59 C 933.26 1002.86 934.58 1002.23 935.91 1001.63 C 938.06 1000.86 940.14 999.88 941.99 998.52 C 942.23 998.50 942.72 998.47 942.96 998.45 C 944.95 996.93 947.10 995.64 949.16 994.22 C 949.45 994.00 950.03 993.57 950.32 993.35 C 953.52 990.86 956.16 987.71 958.01 984.10 C 959.12 980.16 959.13 975.83 957.96 971.92 C 957.07 970.38 956.22 968.84 955.36 967.31 L 954.52 967.30 C 954.50 966.78 954.46 965.74 954.44 965.22 C 954.69 965.19 955.17 965.14 955.42 965.12 L 955.56 966.10 C 957.05 966.61 958.44 967.39 959.83 968.16 C 960.84 968.87 961.86 969.57 962.90 970.29 C 964.41 971.42 965.84 972.67 967.25 973.95 C 968.67 975.58 970.19 977.23 970.75 979.41 L 971.41 979.40 C 971.53 980.62 971.67 981.85 971.84 983.10 C 972.01 983.94 972.35 985.62 972.53 986.45 L 971.79 986.45 C 971.58 988.01 971.58 989.76 970.43 991.01 C 970.43 991.25 970.42 991.73 970.41 991.96 C 969.16 993.55 967.93 995.16 966.66 996.73 C 966.36 996.99 965.76 997.52 965.46 997.78 L 965.53 998.54 L 964.79 998.47 C 964.53 998.77 964.01 999.36 963.75 999.66 C 961.09 1002.08 958.20 1004.23 955.24 1006.28 C 954.40 1006.75 953.56 1007.24 952.74 1007.74 C 951.02 1008.85 949.25 1009.86 947.40 1010.72 L 947.27 1011.13 C 944.76 1012.21 942.34 1013.46 939.87 1014.61 C 936.97 1016.14 933.95 1017.43 930.90 1018.64 C 929.78 1019.11 928.64 1019.50 927.47 1019.82 L 927.49 1020.28 C 925.66 1020.79 923.87 1021.43 922.09 1022.07 C 921.03 1022.51 919.98 1022.98 918.96 1023.50 C 918.72 1023.50 918.25 1023.49 918.02 1023.49 C 916.75 1024.19 915.35 1024.58 913.98 1025.00 C 912.17 1025.65 910.34 1026.26 908.47 1026.67 L 908.46 1027.13 C 906.13 1027.59 903.91 1028.43 901.59 1028.91 L 901.53 1029.31 C 899.49 1029.75 897.49 1030.30 895.46 1030.72 L 895.51 1031.34 C 894.13 1031.41 892.76 1031.51 891.41 1031.61 L 891.69 1032.25 C 886.54 1033.12 881.67 1035.29 876.45 1035.76 L 876.67 1036.47 C 875.27 1036.52 873.87 1036.58 872.49 1036.66 L 872.56 1037.29 C 868.74 1037.79 865.11 1039.25 861.27 1039.60 L 861.39 1040.24 C 859.41 1040.38 857.42 1040.55 855.46 1040.69 L 855.56 1041.32 C 852.36 1041.61 849.21 1042.32 846.15 1043.26 C 844.85 1043.36 843.57 1043.47 842.29 1043.56 L 842.59 1044.29 C 840.53 1044.39 838.47 1044.55 836.42 1044.66 L 836.57 1045.35 C 834.99 1045.47 833.41 1045.62 831.85 1045.80 C 829.92 1046.27 827.96 1046.59 826.06 1047.14 C 824.19 1047.37 822.33 1047.56 820.47 1047.71 L 820.62 1048.38 C 818.52 1048.43 816.44 1048.56 814.36 1048.64 L 814.65 1049.33 C 812.72 1049.44 810.79 1049.60 808.89 1049.81 C 806.64 1050.38 804.34 1050.58 802.10 1051.15 C 800.20 1051.37 798.30 1051.54 796.40 1051.67 L 796.58 1052.32 C 794.15 1052.37 791.75 1052.53 789.35 1052.61 L 789.54 1053.33 C 786.86 1053.46 784.19 1053.66 781.52 1053.73 L 781.44 1054.27 C 776.43 1054.46 771.53 1055.76 766.51 1055.73 L 766.59 1056.34 C 763.49 1056.37 760.41 1056.60 757.32 1056.70 L 757.73 1057.39 C 754.97 1057.46 752.23 1057.65 749.49 1057.71 L 749.44 1058.27 C 739.35 1058.65 729.39 1060.55 719.30 1060.63 L 719.69 1061.33 C 715.27 1061.40 710.86 1061.74 706.44 1061.70 L 706.52 1062.30 C 697.15 1062.41 687.85 1063.77 678.47 1063.70 L 678.53 1064.30 C 672.44 1064.18 666.37 1064.65 660.29 1064.59 L 660.61 1065.28 C 650.53 1065.40 640.46 1065.73 630.38 1065.67 L 630.58 1066.30 C 599.18 1066.76 567.77 1066.78 536.37 1066.33 L 536.62 1065.69 C 526.19 1065.81 515.76 1065.42 505.33 1065.34 L 505.69 1064.65 C 498.27 1064.68 490.86 1064.20 483.45 1064.31 L 483.52 1063.72 C 474.13 1063.74 464.84 1062.29 455.45 1062.30 L 455.57 1061.68 C 449.21 1061.80 442.85 1061.13 436.50 1061.59 C 438.70 1061.32 440.90 1061.13 443.10 1060.89 C 438.22 1060.58 433.33 1060.32 428.43 1060.30 L 428.57 1059.69 C 421.21 1059.65 413.94 1058.36 406.58 1058.25 L 406.52 1057.68 C 404.09 1057.66 401.66 1057.53 399.24 1057.51 L 399.42 1056.81 C 395.41 1056.68 391.42 1056.37 387.41 1056.33 L 387.52 1055.70 C 384.64 1055.60 381.78 1055.39 378.92 1055.11 C 376.14 1054.52 373.30 1054.41 370.48 1054.31 L 370.49 1053.74 C 367.79 1053.67 365.10 1053.45 362.41 1053.33 L 362.66 1052.64 C 359.57 1052.59 356.49 1052.37 353.41 1052.32 L 353.58 1051.67 C 351.34 1051.57 349.10 1051.39 346.87 1051.16 C 344.28 1050.57 341.60 1050.54 339.03 1049.88 C 336.48 1049.61 333.92 1049.43 331.36 1049.31 L 331.67 1048.64 C 329.24 1048.55 326.82 1048.41 324.40 1048.34 L 324.64 1047.66 C 322.40 1047.54 320.17 1047.36 317.95 1047.13 C 315.68 1046.56 313.33 1046.45 311.08 1045.85 C 309.19 1045.60 307.29 1045.43 305.39 1045.33 L 305.60 1044.68 C 303.19 1044.59 300.78 1044.44 298.37 1044.37 L 298.60 1043.68 C 296.68 1043.56 294.77 1043.39 292.87 1043.21 C 290.96 1042.64 288.98 1042.34 287.04 1041.89 C 285.22 1041.62 283.38 1041.41 281.55 1041.26 L 281.56 1040.59 C 280.15 1040.53 278.74 1040.49 277.33 1040.46 L 277.61 1039.76 C 273.79 1039.50 270.24 1037.99 266.51 1037.25 L 266.52 1036.62 C 265.73 1036.59 264.16 1036.51 263.37 1036.48 L 263.55 1035.79 C 262.36 1035.47 261.18 1035.13 260.02 1034.77 C 258.26 1034.01 256.52 1033.22 254.79 1032.41 C 251.56 1030.65 248.44 1028.70 245.85 1026.08 C 244.74 1024.80 243.69 1023.48 242.76 1022.08 C 241.36 1019.08 241.53 1015.77 241.72 1012.57 L 242.37 1012.49 C 242.90 1009.99 244.37 1007.89 245.76 1005.81 C 247.98 1003.01 250.53 1000.50 253.27 998.22 C 254.54 997.23 255.79 996.23 257.06 995.26 C 259.62 993.29 262.39 991.62 265.03 989.79 C 266.56 988.93 268.09 988.10 269.65 987.32 C 269.68 987.09 269.73 986.65 269.76 986.42 L 270.97 986.61 C 273.57 984.79 276.45 983.44 279.37 982.23 L 279.60 981.72 C 281.49 981.05 283.31 980.20 285.15 979.42 C 286.44 978.77 287.74 978.14 288.99 977.42 C 289.24 977.42 289.75 977.41 290.00 977.40 C 292.25 976.13 294.66 975.19 297.10 974.33 C 298.08 973.89 299.07 973.50 300.08 973.15 C 301.73 972.48 303.39 971.84 305.05 971.21 C 306.22 970.85 307.40 970.54 308.59 970.27 L 308.41 969.65 C 309.09 969.57 310.43 969.41 311.11 969.34 C 312.07 968.89 313.05 968.48 314.05 968.11 C 315.35 967.71 316.67 967.32 317.97 966.91 C 320.14 966.27 322.28 965.51 324.54 965.20 L 324.42 964.71 C 326.97 964.34 329.46 963.66 331.88 962.79 C 333.08 962.60 334.29 962.45 335.50 962.31 L 335.40 961.58 C 336.80 961.52 338.20 961.47 339.61 961.43 L 339.49 960.74 C 342.69 960.39 345.83 959.65 348.95 958.86 C 350.52 958.64 352.09 958.48 353.67 958.36 L 353.42 957.69 C 355.48 957.61 357.55 957.49 359.63 957.44 C 359.60 957.26 359.55 956.89 359.53 956.71 Z" />
<path fill="#ffffff" opacity="1.00" d=" M 1008.72 1027.81 C 1012.50 1025.26 1014.86 1021.10 1018.73 1018.76 C 1018.48 1019.78 1017.96 1021.81 1017.71 1022.83 C 1017.64 1023.54 1017.49 1024.95 1017.42 1025.66 L 1016.64 1025.46 C 1016.58 1026.14 1016.46 1027.49 1016.39 1028.17 C 1015.32 1030.17 1014.40 1032.25 1013.45 1034.32 C 1011.40 1037.90 1008.86 1041.13 1006.35 1044.38 C 1004.13 1046.83 1001.79 1049.17 999.30 1051.34 C 999.01 1051.55 998.42 1051.98 998.13 1052.19 C 996.50 1053.56 994.86 1054.90 993.19 1056.22 C 991.14 1057.58 989.08 1058.93 987.18 1060.50 L 986.38 1060.36 L 986.19 1061.12 C 984.57 1061.96 982.98 1062.86 981.38 1063.71 L 981.26 1064.08 C 977.82 1065.67 974.55 1067.62 971.18 1069.33 C 969.15 1070.28 967.12 1071.20 965.08 1072.09 C 963.37 1072.74 961.71 1073.51 960.08 1074.33 C 957.91 1075.18 955.76 1076.06 953.53 1076.74 L 953.58 1077.40 C 952.80 1077.45 951.24 1077.55 950.45 1077.60 L 950.52 1078.22 C 949.35 1078.56 948.21 1078.94 947.09 1079.36 C 945.56 1079.84 944.04 1080.33 942.51 1080.75 L 942.53 1081.41 C 941.74 1081.45 940.17 1081.52 939.39 1081.55 L 939.55 1082.22 C 936.46 1082.80 933.52 1083.94 930.48 1084.69 L 930.48 1085.32 C 929.11 1085.40 927.76 1085.50 926.42 1085.61 L 926.66 1086.40 C 925.96 1086.48 924.58 1086.62 923.89 1086.69 C 920.11 1088.00 916.22 1088.98 912.31 1089.72 L 912.57 1090.25 C 908.01 1090.82 903.53 1092.00 899.13 1093.28 C 897.88 1093.40 896.64 1093.51 895.41 1093.63 L 895.69 1094.38 C 893.93 1094.46 892.18 1094.56 890.46 1094.67 L 890.53 1095.29 C 887.33 1095.65 884.13 1096.21 881.06 1097.19 C 879.49 1097.35 877.93 1097.50 876.38 1097.62 L 876.57 1098.34 C 874.51 1098.42 872.45 1098.55 870.42 1098.66 L 870.55 1099.30 C 866.69 1099.56 862.89 1100.36 859.11 1101.18 C 856.75 1101.42 854.32 1101.40 852.12 1102.35 C 850.53 1102.46 848.94 1102.53 847.38 1102.62 L 847.49 1103.27 C 845.28 1103.40 843.07 1103.59 840.88 1103.84 C 838.30 1104.43 835.63 1104.49 833.06 1105.12 C 830.69 1105.38 828.24 1105.31 826.00 1106.19 C 823.13 1106.46 820.27 1106.62 817.40 1106.67 L 817.67 1107.39 C 815.07 1107.45 812.48 1107.60 809.90 1107.81 C 806.70 1108.74 803.31 1108.36 800.08 1109.12 C 797.19 1109.41 794.30 1109.59 791.41 1109.69 L 791.58 1110.32 C 787.51 1110.33 783.46 1110.64 779.40 1110.68 L 779.67 1111.38 C 775.94 1111.42 772.21 1111.71 768.48 1111.69 L 768.42 1112.25 C 759.06 1112.35 749.79 1113.77 740.43 1113.68 L 740.58 1114.31 C 733.19 1114.27 725.81 1114.75 718.43 1114.74 L 718.73 1115.43 C 711.27 1115.39 703.81 1115.84 696.35 1115.69 L 696.69 1116.37 C 657.90 1117.09 619.10 1117.11 580.31 1116.37 L 580.64 1115.69 C 572.19 1115.83 563.74 1115.37 555.30 1115.35 L 555.68 1114.66 C 548.92 1114.70 542.17 1114.23 535.41 1114.30 L 535.63 1113.67 C 526.23 1113.66 516.90 1112.31 507.51 1112.28 L 507.52 1111.71 C 502.53 1111.68 497.55 1111.10 492.56 1111.47 C 495.45 1111.11 498.34 1110.78 501.23 1110.43 C 495.96 1110.92 490.69 1110.38 485.42 1110.32 L 485.56 1109.68 C 482.66 1109.58 479.77 1109.38 476.89 1109.12 C 473.97 1108.46 470.91 1108.72 468.04 1107.86 C 465.82 1107.58 463.59 1107.42 461.36 1107.34 L 461.61 1106.66 C 458.87 1106.57 456.14 1106.41 453.41 1106.35 L 453.58 1105.67 C 451.67 1105.54 449.78 1105.37 447.89 1105.16 C 445.65 1104.59 443.33 1104.38 441.10 1103.82 C 439.53 1103.62 437.97 1103.46 436.41 1103.36 L 436.58 1102.68 C 434.25 1102.54 431.94 1102.36 429.63 1102.21 L 429.71 1101.47 C 429.00 1101.42 427.58 1101.31 426.87 1101.26 C 423.83 1100.30 420.70 1099.62 417.53 1099.27 L 417.57 1098.60 C 415.77 1098.48 413.98 1098.37 412.18 1098.29 L 414.96 1097.89 C 413.29 1097.65 411.62 1097.40 409.95 1097.15 C 407.88 1096.25 405.70 1095.62 403.48 1095.27 L 403.54 1094.61 C 402.75 1094.58 401.16 1094.52 400.36 1094.49 L 400.54 1093.64 C 399.87 1093.56 398.53 1093.40 397.86 1093.32 C 396.27 1092.51 394.60 1091.87 392.91 1091.35 C 391.65 1090.77 390.39 1090.22 389.16 1089.63 C 387.50 1088.85 385.88 1088.04 384.25 1087.25 L 384.80 1086.58 C 383.96 1086.43 382.27 1086.14 381.43 1086.00 C 382.82 1085.75 384.22 1085.57 385.62 1085.41 L 385.27 1086.34 C 387.68 1086.45 390.10 1086.64 392.52 1086.71 L 392.52 1087.27 C 396.88 1087.40 401.10 1088.67 405.47 1088.74 L 405.46 1089.31 C 408.18 1089.35 410.90 1089.55 413.63 1089.64 L 413.41 1090.35 C 418.69 1090.24 423.84 1091.46 429.08 1091.86 C 433.01 1092.59 437.08 1092.21 440.97 1093.22 C 444.18 1093.40 447.39 1093.59 450.61 1093.67 L 450.35 1094.35 C 453.77 1094.41 457.19 1094.65 460.63 1094.62 L 460.57 1095.22 C 465.09 1095.36 469.60 1095.58 474.11 1095.87 C 478.53 1096.63 483.03 1096.54 487.50 1096.72 L 487.52 1097.27 C 493.56 1097.17 499.59 1097.66 505.63 1097.65 L 505.35 1098.34 C 513.11 1098.39 520.87 1098.73 528.63 1098.67 L 528.39 1099.33 C 539.90 1099.67 551.46 1099.41 562.94 1100.14 C 579.64 1100.50 596.34 1100.43 613.04 1100.36 C 618.36 1100.06 623.77 1100.78 629.02 1099.76 C 629.77 1099.88 631.27 1100.13 632.02 1100.25 C 641.20 1099.33 650.51 1099.68 659.75 1099.47 L 659.47 1098.77 C 668.54 1098.84 677.62 1098.39 686.70 1098.37 L 686.33 1097.69 C 697.54 1097.67 708.73 1096.92 719.88 1095.88 C 724.73 1095.57 729.59 1095.37 734.45 1095.23 L 734.38 1094.63 C 738.73 1094.64 743.08 1094.29 747.44 1094.18 L 747.14 1093.50 C 749.92 1093.45 752.71 1093.30 755.51 1093.30 L 755.53 1092.72 C 761.90 1092.72 768.18 1091.48 774.55 1091.31 L 774.45 1090.70 C 777.21 1090.65 779.97 1090.48 782.75 1090.44 L 782.39 1089.74 C 791.28 1089.28 800.20 1088.27 808.97 1086.76 C 811.19 1086.55 813.42 1086.40 815.66 1086.33 L 815.34 1085.62 C 817.75 1085.53 820.15 1085.37 822.57 1085.32 L 822.47 1084.72 C 828.62 1084.57 834.57 1082.65 840.72 1082.42 L 840.46 1081.73 C 842.83 1081.60 845.19 1081.42 847.58 1081.34 L 847.50 1080.71 C 849.36 1080.55 851.24 1080.37 853.11 1080.12 C 854.86 1079.67 856.67 1079.45 858.48 1079.29 L 858.55 1078.77 C 860.55 1078.63 862.56 1078.46 864.58 1078.32 L 864.35 1077.60 C 866.10 1077.53 867.83 1077.41 869.60 1077.36 L 869.41 1076.66 C 870.98 1076.52 872.53 1076.34 874.12 1076.19 C 876.01 1075.67 877.95 1075.34 879.85 1074.81 C 881.41 1074.60 882.99 1074.44 884.58 1074.31 L 884.38 1073.67 C 886.52 1073.47 888.82 1073.63 890.76 1072.53 C 891.34 1072.45 892.50 1072.29 893.08 1072.20 C 894.68 1071.70 896.30 1071.29 897.92 1070.83 C 899.42 1070.62 900.92 1070.42 902.45 1070.26 L 902.44 1069.57 C 903.82 1069.51 905.20 1069.45 906.60 1069.41 L 906.36 1068.63 C 907.61 1068.51 908.86 1068.39 910.13 1068.28 C 913.91 1067.03 917.75 1065.93 921.68 1065.29 L 921.46 1064.70 C 922.67 1064.55 923.90 1064.41 925.13 1064.28 C 927.50 1063.34 930.00 1062.75 932.52 1062.29 L 932.51 1061.63 C 933.30 1061.60 934.86 1061.55 935.65 1061.52 L 935.47 1060.66 C 936.79 1060.53 938.13 1060.41 939.47 1060.32 L 939.48 1059.72 C 941.69 1059.30 943.87 1058.69 945.93 1057.76 C 946.61 1057.68 947.96 1057.52 948.63 1057.43 L 948.47 1056.63 C 949.13 1056.56 950.44 1056.41 951.10 1056.34 C 952.33 1055.73 953.60 1055.22 954.89 1054.74 C 956.99 1054.14 959.13 1053.58 961.03 1052.46 C 961.27 1052.48 961.74 1052.51 961.98 1052.53 C 963.55 1051.54 965.29 1050.85 967.09 1050.35 C 968.42 1049.77 969.75 1049.17 971.02 1048.45 C 971.26 1048.47 971.73 1048.51 971.97 1048.53 C 974.54 1047.01 977.43 1046.15 979.99 1044.60 C 980.24 1044.57 980.76 1044.50 981.02 1044.47 C 983.62 1042.91 986.44 1041.74 989.13 1040.32 C 991.60 1038.91 994.11 1037.59 996.63 1036.27 L 996.77 1035.86 C 998.54 1034.95 1000.26 1033.93 1001.89 1032.78 C 1002.66 1032.24 1003.44 1031.72 1004.24 1031.22 C 1005.75 1030.11 1007.24 1028.96 1008.72 1027.81 Z" />
</g>
<g id="#80808080">
<path fill="#808080" opacity="0.50" d=" M 747.02 1032.49 C 752.42 1032.45 757.77 1031.14 763.18 1031.62 C 759.93 1032.88 756.40 1032.88 752.98 1033.02 C 728.05 1034.85 703.10 1036.57 678.09 1037.22 C 672.09 1037.37 666.09 1038.18 660.09 1037.62 C 662.85 1036.21 666.02 1036.75 669.00 1036.58 C 683.03 1036.47 697.01 1035.21 711.02 1034.90 C 717.01 1034.69 722.96 1033.78 728.97 1033.76 C 735.01 1033.80 740.97 1032.51 747.02 1032.49 Z" />
</g>
</svg>
