<?xml version="1.0" encoding="UTF-8" ?>
<!DOCTYPE svg PUBLIC "-//W3C//DTD SVG 1.1//EN" "http://www.w3.org/Graphics/SVG/1.1/DTD/svg11.dtd">
<svg width="1276pt" height="1276pt" viewBox="0 0 1276 1276" version="1.1" xmlns="http://www.w3.org/2000/svg">
<g id="#2c9cc8ff">
<path fill="#2c9cc8" opacity="1.00" d=" M 630.43 213.59 C 637.22 211.51 644.84 212.17 651.11 215.53 C 655.98 217.80 659.84 221.63 663.78 225.19 C 693.47 254.82 723.13 284.50 752.82 314.14 C 765.96 327.35 779.28 340.39 792.22 353.79 C 799.24 360.40 806.41 368.02 807.88 377.96 C 809.77 388.01 804.64 397.81 797.83 404.86 C 787.37 415.39 776.84 425.85 766.35 436.35 C 715.42 487.77 664.05 538.75 612.91 589.97 C 574.41 628.44 535.92 666.93 497.41 705.39 C 494.38 708.30 490.38 711.17 485.94 710.35 C 481.02 708.76 478.74 703.60 477.72 698.93 C 476.42 691.70 476.77 684.31 476.73 677.00 C 476.74 614.33 476.61 551.66 476.75 488.99 C 476.89 453.33 476.71 417.67 476.54 382.01 C 476.34 374.44 477.61 366.73 480.92 359.88 C 483.63 354.58 487.68 350.11 492.11 346.18 C 497.21 341.94 501.73 337.09 506.40 332.39 C 520.68 317.69 535.35 303.36 549.80 288.82 C 571.53 267.21 592.78 245.12 614.73 223.73 C 619.28 219.44 624.42 215.56 630.43 213.59 Z" />
<path fill="#2c9cc8" opacity="1.00" d=" M 890.48 470.76 C 901.88 468.05 913.22 474.04 920.78 482.26 C 965.02 526.67 1009.56 570.79 1053.74 615.25 C 1057.83 619.59 1061.84 624.19 1064.25 629.73 C 1066.91 634.67 1065.52 640.48 1065.73 645.83 C 1063.27 654.85 1056.53 661.73 1050.22 668.27 C 1008.73 709.76 967.20 751.21 925.69 792.68 C 919.91 798.37 914.20 804.70 906.41 807.61 C 899.63 810.42 891.73 810.18 885.08 807.12 C 877.68 803.97 872.13 797.98 866.59 792.37 C 831.92 757.73 797.25 723.08 762.58 688.43 C 754.30 680.08 745.87 671.87 737.69 663.42 C 731.80 657.34 726.66 649.70 726.51 640.94 C 725.94 631.55 731.19 623.00 737.53 616.52 C 781.89 572.23 826.21 527.90 870.54 483.57 C 875.97 477.77 882.52 472.45 890.48 470.76 Z" />
<path fill="#2c9cc8" opacity="1.00" d=" M 356.44 482.66 C 360.72 480.76 365.52 483.65 367.47 487.54 C 370.03 492.58 369.79 498.44 370.18 503.94 C 370.19 594.65 370.19 685.36 370.19 776.07 C 370.00 782.02 369.62 788.28 366.52 793.55 C 365.00 796.10 362.20 798.41 359.03 797.65 C 354.71 796.72 351.92 792.97 348.90 790.08 C 306.31 747.38 263.63 704.77 221.01 662.10 C 216.57 657.76 211.87 653.17 210.04 647.05 C 207.62 639.20 209.98 630.41 215.56 624.47 C 229.56 609.83 244.27 595.88 258.14 581.12 C 287.69 551.67 316.87 521.87 346.30 492.32 C 349.69 489.12 352.63 485.38 356.44 482.66 Z" />
<path fill="#2c9cc8" opacity="1.00" d=" M 633.48 726.76 C 640.96 724.63 649.14 726.11 655.70 730.20 C 660.91 733.18 664.87 737.77 669.12 741.92 C 712.46 785.24 755.81 828.55 799.15 871.87 C 805.68 878.49 810.88 887.31 810.39 896.90 C 809.90 905.52 805.07 913.16 799.12 919.14 C 758.26 959.97 717.47 1000.88 676.61 1041.71 C 667.36 1050.37 659.05 1061.69 646.15 1064.86 C 641.88 1064.82 637.54 1065.22 633.30 1064.64 C 625.97 1062.15 620.00 1056.87 614.51 1051.59 C 570.07 1006.97 525.43 962.54 481.00 917.92 C 474.66 911.25 469.80 902.27 470.90 892.82 C 471.88 883.51 477.90 875.74 484.49 869.51 C 527.02 827.00 569.54 784.49 612.07 741.98 C 618.19 735.69 624.72 729.07 633.48 726.76 Z" />
</g>
</svg>
