<?xml version="1.0" encoding="UTF-8" ?>
<!DOCTYPE svg PUBLIC "-//W3C//DTD SVG 1.1//EN" "http://www.w3.org/Graphics/SVG/1.1/DTD/svg11.dtd">
<svg width="1276pt" height="1276pt" viewBox="0 0 1276 1276" version="1.1" xmlns="http://www.w3.org/2000/svg">
<g id="#ffffffff">
<path fill="#ffffff" opacity="1.00" d=" M 623.92 162.87 C 638.68 156.86 656.82 160.50 667.89 172.04 C 798.08 302.18 928.31 432.30 1058.51 562.43 C 1071.73 575.58 1084.77 588.94 1098.32 601.74 C 1099.62 603.07 1100.91 604.43 1102.30 605.69 C 1107.57 611.27 1112.48 617.55 1114.86 624.95 C 1118.75 636.39 1117.26 649.58 1110.72 659.77 C 1106.89 665.77 1101.29 670.27 1096.44 675.39 C 1092.91 678.88 1089.48 682.46 1085.92 685.91 C 1085.27 686.56 1084.63 687.21 1084.00 687.87 C 1082.63 689.17 1081.33 690.52 1080.01 691.84 C 1075.67 696.18 1071.32 700.51 1066.99 704.86 C 1066.30 705.52 1065.63 706.19 1064.96 706.87 C 1060.66 711.21 1056.32 715.51 1052.00 719.82 C 1047.69 724.20 1043.30 728.48 1038.98 732.84 C 1036.61 735.21 1034.25 737.60 1031.85 739.96 C 1031.21 740.58 1030.58 741.22 1029.96 741.86 C 1028.61 743.15 1027.31 744.50 1025.99 745.83 C 1022.93 748.83 1019.96 751.91 1016.89 754.90 C 1015.58 756.22 1014.28 757.54 1012.95 758.84 C 1005.59 766.20 998.25 773.60 990.84 780.92 C 990.20 781.55 989.57 782.19 988.95 782.83 C 985.23 786.51 981.57 790.26 977.84 793.93 C 977.20 794.55 976.57 795.19 975.95 795.83 C 971.56 800.14 967.27 804.55 962.88 808.86 C 961.58 810.19 960.28 811.50 958.95 812.78 C 955.93 815.83 952.91 818.87 949.85 821.88 C 949.20 822.54 948.55 823.21 947.92 823.89 C 947.22 824.53 946.54 825.19 945.87 825.85 C 944.41 827.38 942.90 828.86 941.40 830.35 C 939.88 831.85 938.38 833.39 936.85 834.89 C 936.20 835.54 935.55 836.19 934.91 836.85 C 933.56 838.14 932.27 839.47 930.96 840.78 C 927.90 843.77 924.94 846.86 921.88 849.84 C 917.54 854.16 913.23 858.52 908.88 862.83 C 904.53 867.16 900.22 871.53 895.84 875.84 C 895.18 876.50 894.53 877.18 893.89 877.86 C 893.21 878.49 892.54 879.13 891.87 879.78 C 891.20 880.46 890.54 881.15 889.88 881.84 C 889.02 882.67 888.17 883.49 887.35 884.35 C 885.84 885.85 884.35 887.36 882.83 888.86 C 882.17 889.51 881.51 890.17 880.86 890.84 C 879.54 892.13 878.25 893.45 876.93 894.74 C 876.05 895.59 875.18 896.44 874.34 897.34 C 872.16 899.48 870.02 901.67 867.86 903.83 C 867.18 904.49 866.51 905.16 865.85 905.84 C 864.35 907.37 862.76 908.81 861.30 910.37 C 857.12 914.50 853.02 918.71 848.82 922.81 C 845.03 926.69 841.13 930.46 837.32 934.32 C 835.97 935.64 834.64 936.96 833.33 938.32 C 831.16 940.49 828.99 942.66 826.83 944.83 C 826.16 945.46 825.50 946.11 824.85 946.76 C 823.36 948.29 821.79 949.75 820.31 951.30 C 818.97 952.63 817.63 953.95 816.32 955.32 C 812.00 959.66 807.62 963.95 803.31 968.31 C 800.95 970.63 798.63 972.99 796.29 975.34 C 792.76 978.80 789.28 982.31 785.78 985.80 C 783.62 987.97 781.44 990.11 779.30 992.30 C 776.45 995.09 773.67 997.95 770.82 1000.75 C 769.33 1002.27 767.77 1003.73 766.29 1005.27 C 764.94 1006.59 763.60 1007.92 762.29 1009.29 C 759.28 1012.30 756.25 1015.28 753.26 1018.31 C 751.91 1019.62 750.56 1020.92 749.28 1022.29 C 747.77 1023.78 746.26 1025.27 744.76 1026.78 C 743.93 1027.61 743.10 1028.44 742.29 1029.29 C 740.93 1030.60 739.60 1031.94 738.28 1033.29 C 736.08 1035.42 733.94 1037.60 731.77 1039.75 C 730.44 1041.10 729.11 1042.43 727.75 1043.75 C 726.91 1044.58 726.08 1045.42 725.28 1046.28 C 719.58 1051.92 713.92 1057.59 708.26 1063.25 C 702.44 1069.10 696.57 1074.90 690.75 1080.74 C 688.58 1082.90 686.41 1085.08 684.25 1087.26 C 683.07 1088.38 681.93 1089.53 680.88 1090.78 C 677.28 1094.85 673.19 1098.47 669.43 1102.40 C 664.98 1107.12 659.64 1111.12 653.51 1113.35 C 641.06 1118.12 626.23 1116.36 615.42 1108.49 C 612.45 1106.17 609.25 1104.11 606.70 1101.31 C 605.43 1099.91 604.07 1098.62 602.73 1097.31 C 576.98 1070.75 550.47 1044.89 524.39 1018.62 C 434.49 928.80 344.58 838.97 254.67 749.16 C 227.17 721.73 199.79 694.16 172.09 666.94 C 162.85 658.02 158.48 644.57 160.46 631.91 C 161.76 621.74 167.69 612.90 174.69 605.70 C 178.70 602.02 182.12 597.71 186.54 594.49 C 198.40 582.76 210.12 570.89 221.98 559.15 C 225.62 555.42 229.33 551.75 233.04 548.08 C 233.69 547.41 234.34 546.76 235.00 546.11 C 238.69 542.44 242.34 538.71 246.06 535.07 C 251.69 529.41 257.34 523.76 263.01 518.14 C 271.65 509.44 280.32 500.80 289.00 492.15 C 290.35 490.82 291.66 489.47 293.00 488.14 C 295.35 485.78 297.69 483.40 300.09 481.09 C 300.72 480.43 301.35 479.78 301.99 479.15 C 309.38 471.81 316.70 464.40 324.10 457.09 C 327.38 453.73 330.74 450.45 334.05 447.13 C 337.02 444.12 340.01 441.15 343.01 438.18 C 344.36 436.85 345.67 435.49 347.02 434.17 C 350.00 431.15 353.02 428.16 356.03 425.17 C 357.56 423.65 359.04 422.09 360.59 420.60 C 362.74 418.44 364.89 416.27 367.06 414.14 C 367.74 413.46 368.42 412.78 369.10 412.11 C 370.40 410.79 371.70 409.48 373.02 408.18 C 373.70 407.49 374.38 406.80 375.07 406.12 C 379.38 401.81 383.69 397.49 388.03 393.21 C 395.35 385.84 402.71 378.51 410.06 371.18 C 411.58 369.66 413.08 368.11 414.63 366.61 C 417.46 363.77 420.29 360.92 423.15 358.11 C 424.42 356.78 425.72 355.48 427.05 354.20 C 427.73 353.51 428.41 352.83 429.09 352.15 C 433.39 347.82 437.72 343.53 442.04 339.22 C 445.04 336.22 448.01 333.19 451.05 330.23 C 454.75 326.53 458.44 322.82 462.14 319.12 C 462.79 318.46 463.45 317.81 464.11 317.17 C 468.46 312.85 472.75 308.46 477.14 304.18 C 477.79 303.50 478.44 302.82 479.11 302.16 C 479.77 301.49 480.44 300.84 481.11 300.19 C 481.78 299.50 482.45 298.82 483.13 298.14 C 485.47 295.80 487.80 293.45 490.18 291.15 C 490.80 290.49 491.44 289.83 492.09 289.18 C 493.46 287.88 494.78 286.52 496.11 285.18 C 498.49 282.84 500.80 280.46 503.19 278.13 C 503.82 277.48 504.46 276.83 505.12 276.19 C 509.48 271.87 513.78 267.49 518.16 263.19 C 522.48 258.85 526.78 254.49 531.18 250.22 C 531.81 249.53 532.46 248.85 533.11 248.19 C 533.78 247.53 534.46 246.87 535.16 246.22 C 535.80 245.54 536.46 244.87 537.13 244.21 C 539.48 241.86 541.80 239.50 544.18 237.19 C 546.13 235.17 548.15 233.22 550.13 231.23 C 563.82 217.57 577.48 203.88 591.18 190.23 C 595.00 186.36 598.89 182.54 602.73 178.68 C 608.85 172.32 615.61 166.18 623.92 162.87 M 616.89 221.81 C 608.98 228.94 601.74 236.77 594.12 244.20 C 581.31 256.71 569.07 269.78 556.30 282.33 C 536.98 301.65 517.59 320.91 498.45 340.40 C 493.60 345.23 487.89 349.27 483.96 354.97 C 478.25 362.69 476.34 372.59 476.53 382.04 C 476.55 398.01 476.74 413.98 476.75 429.95 C 476.84 451.29 476.77 472.63 476.74 493.97 C 476.72 512.66 476.66 531.36 476.69 550.05 C 476.70 568.72 476.70 587.39 476.71 606.07 C 476.73 629.36 476.71 652.66 476.73 675.96 C 476.85 683.96 476.22 692.10 477.98 699.98 C 479.09 704.57 481.85 709.78 487.01 710.49 C 492.68 710.64 496.76 706.07 500.44 702.38 C 509.11 693.67 517.84 685.02 526.51 676.30 C 549.86 653.01 573.18 629.68 596.50 606.35 C 615.21 587.70 633.88 569.02 652.54 550.33 C 671.22 531.72 689.87 513.06 708.50 494.40 C 722.18 480.77 735.84 467.14 749.46 453.46 C 756.59 445.60 764.62 438.61 771.67 430.68 L 772.12 430.75 C 777.00 425.42 782.36 420.56 787.36 415.34 C 793.72 408.69 801.27 402.79 805.34 394.31 C 809.26 386.72 809.14 377.31 805.22 369.74 C 800.57 360.21 791.60 354.01 784.81 346.14 C 744.66 305.97 704.46 265.84 664.28 225.69 C 657.88 219.40 650.31 213.20 640.98 212.53 C 631.96 211.45 623.36 215.88 616.89 221.81 M 873.50 480.60 C 855.88 498.33 838.13 515.92 820.50 533.64 C 801.17 552.96 781.81 572.25 762.52 591.61 C 754.21 599.90 745.88 608.17 737.59 616.47 C 731.12 622.97 726.06 631.58 726.40 641.03 C 726.88 648.17 730.10 654.89 734.84 660.19 C 739.25 665.40 744.28 670.03 749.06 674.90 C 761.22 687.05 773.35 699.24 785.55 711.35 C 807.53 733.36 829.52 755.36 851.55 777.32 C 858.70 784.52 865.89 791.68 873.08 798.85 C 879.92 805.44 889.16 810.55 898.96 809.46 C 907.99 808.66 915.50 802.95 921.66 796.71 C 927.90 790.29 934.53 784.24 940.50 777.57 L 940.97 777.63 C 962.56 755.38 985.04 733.97 1006.51 711.62 L 1006.98 711.68 C 1021.85 696.34 1037.23 681.49 1052.18 666.24 C 1057.53 660.67 1062.75 654.66 1065.39 647.28 C 1066.06 642.60 1066.02 637.79 1065.54 633.10 C 1062.99 624.73 1056.70 618.32 1050.80 612.15 C 1043.93 605.40 1037.17 598.56 1030.33 591.78 C 1011.01 572.42 991.64 553.11 972.28 533.80 C 954.63 516.06 936.84 498.46 919.20 480.72 C 913.05 474.67 904.86 469.92 896.00 470.19 C 887.37 470.09 879.51 474.74 873.50 480.60 M 354.34 484.30 C 332.95 505.61 311.82 527.18 290.55 548.62 C 269.28 569.75 248.44 591.30 227.28 612.55 C 220.68 619.78 211.49 625.95 209.51 636.17 C 207.80 644.21 211.17 652.40 216.93 657.99 C 225.41 666.52 233.91 675.02 242.44 683.50 C 269.01 710.19 295.73 736.74 322.25 763.47 L 322.49 763.44 C 331.14 772.45 340.12 781.14 348.87 790.05 C 351.70 792.77 354.28 796.13 358.14 797.43 C 361.25 798.61 364.48 796.76 366.13 794.13 C 368.76 789.87 370.05 784.71 369.78 779.72 C 370.70 770.18 369.95 760.55 370.19 750.97 C 370.03 733.51 370.50 716.00 369.96 698.57 C 370.47 691.06 370.06 683.52 370.19 676.01 C 370.03 662.20 370.50 648.36 369.97 634.58 C 370.47 623.06 370.05 611.51 370.19 599.99 C 370.04 588.16 370.48 576.30 369.97 564.49 C 370.47 550.35 370.05 536.19 370.19 522.04 C 370.01 512.20 370.78 502.28 369.16 492.52 C 368.45 488.28 365.98 483.87 361.69 482.46 C 359.11 481.55 356.15 482.24 354.34 484.30 M 613.55 740.52 C 595.54 758.53 577.49 776.51 559.50 794.55 C 534.14 819.88 508.77 845.21 483.45 870.58 C 476.72 877.01 470.91 885.43 470.77 895.07 C 470.57 904.30 475.74 912.66 482.05 919.01 C 526.34 963.38 570.72 1007.66 614.99 1052.04 C 619.58 1056.55 624.62 1060.69 630.42 1063.56 C 634.29 1065.63 638.82 1064.73 643.03 1064.93 C 648.45 1065.42 653.17 1062.30 657.54 1059.54 C 663.47 1055.24 668.40 1049.78 673.62 1044.69 C 715.49 1002.86 757.28 960.96 799.14 919.13 C 805.52 912.73 810.60 904.29 810.44 894.99 C 810.12 885.60 804.73 877.31 798.21 870.91 C 772.85 845.60 747.52 820.26 722.16 794.94 C 702.50 775.26 682.80 755.60 663.11 735.95 C 656.07 728.99 645.93 724.19 635.89 726.27 C 626.81 727.73 619.67 734.09 613.55 740.52 Z" />
</g>
<g id="#f9ab1fff">
<path fill="#f9ab1f" opacity="1.00" d=" M 616.89 221.81 C 623.36 215.88 631.96 211.45 640.98 212.53 C 650.31 213.20 657.88 219.40 664.28 225.69 C 704.46 265.84 744.66 305.97 784.81 346.14 C 791.60 354.01 800.57 360.21 805.22 369.74 C 809.14 377.31 809.26 386.72 805.34 394.31 C 801.27 402.79 793.72 408.69 787.36 415.34 C 782.36 420.56 777.00 425.42 772.12 430.75 L 771.67 430.68 C 769.78 430.35 767.90 430.05 766.00 429.96 C 669.59 429.99 573.17 429.96 476.75 429.95 C 476.74 413.98 476.55 398.01 476.53 382.04 C 476.34 372.59 478.25 362.69 483.96 354.97 C 487.89 349.27 493.60 345.23 498.45 340.40 C 517.59 320.91 536.98 301.65 556.30 282.33 C 569.07 269.78 581.31 256.71 594.12 244.20 C 601.74 236.77 608.98 228.94 616.89 221.81 Z" />
</g>
<g id="#f6a21dff">
<path fill="#f6a21d" opacity="1.00" d=" M 476.75 429.95 C 573.17 429.96 669.59 429.99 766.00 429.96 C 767.90 430.05 769.78 430.35 771.67 430.68 C 764.62 438.61 756.59 445.60 749.46 453.46 C 735.84 467.14 722.18 480.77 708.50 494.40 C 701.69 493.73 694.85 493.99 688.03 494.00 C 617.60 493.91 547.17 494.09 476.74 493.97 C 476.77 472.63 476.84 451.29 476.75 429.95 Z" />
</g>
<g id="#f39c1cff">
<path fill="#f39c1c" opacity="1.00" d=" M 873.50 480.60 C 879.51 474.74 887.37 470.09 896.00 470.19 C 904.86 469.92 913.05 474.67 919.20 480.72 C 936.84 498.46 954.63 516.06 972.28 533.80 C 932.88 534.30 893.47 533.86 854.06 534.03 C 842.87 533.87 831.67 534.46 820.50 533.64 C 838.13 515.92 855.88 498.33 873.50 480.60 Z" />
</g>
<g id="#f39a1bff">
<path fill="#f39a1b" opacity="1.00" d=" M 354.34 484.30 C 356.15 482.24 359.11 481.55 361.69 482.46 C 365.98 483.87 368.45 488.28 369.16 492.52 C 370.78 502.28 370.01 512.20 370.19 522.04 C 370.05 536.19 370.47 550.35 369.97 564.49 C 368.60 559.50 368.95 554.30 368.81 549.19 C 351.56 548.87 334.31 549.16 317.05 549.03 C 308.22 548.91 299.36 549.50 290.55 548.62 C 311.82 527.18 332.95 505.61 354.34 484.30 Z" />
</g>
<g id="#f39b1bff">
<path fill="#f39b1b" opacity="1.00" d=" M 476.74 493.97 C 547.17 494.09 617.60 493.91 688.03 494.00 C 694.85 493.99 701.69 493.73 708.50 494.40 C 689.87 513.06 671.22 531.72 652.54 550.33 C 647.37 549.92 642.19 549.88 637.01 549.97 C 583.57 550.11 530.13 549.87 476.69 550.05 C 476.66 531.36 476.72 512.66 476.74 493.97 Z" />
</g>
<g id="#f1951aff">
<path fill="#f1951a" opacity="1.00" d=" M 762.52 591.61 C 781.81 572.25 801.17 552.96 820.50 533.64 C 831.67 534.46 842.87 533.87 854.06 534.03 C 893.47 533.86 932.88 534.30 972.28 533.80 C 991.64 553.11 1011.01 572.42 1030.33 591.78 C 1004.88 592.27 979.43 591.86 953.97 592.01 C 892.67 591.93 831.36 592.05 770.05 591.97 C 767.53 591.92 765.02 591.76 762.52 591.61 Z" />
</g>
<g id="#f09219ff">
<path fill="#f09219" opacity="1.00" d=" M 227.28 612.55 C 248.44 591.30 269.28 569.75 290.55 548.62 C 299.36 549.50 308.22 548.91 317.05 549.03 C 334.31 549.16 351.56 548.87 368.81 549.19 C 368.95 554.30 368.60 559.50 369.97 564.49 C 370.48 576.30 370.04 588.16 370.19 599.99 C 370.05 611.51 370.47 623.06 369.97 634.58 C 368.14 628.50 369.34 622.16 369.03 615.96 C 369.10 614.71 368.69 612.79 367.04 613.01 C 325.38 612.96 283.70 613.01 242.03 613.04 C 237.11 613.12 232.18 612.99 227.28 612.55 Z" />
</g>
<g id="#f0941aff">
<path fill="#f0941a" opacity="1.00" d=" M 476.69 550.05 C 530.13 549.87 583.57 550.11 637.01 549.97 C 642.19 549.88 647.37 549.92 652.54 550.33 C 633.88 569.02 615.21 587.70 596.50 606.35 C 579.69 605.53 562.84 606.23 546.02 605.99 C 522.91 606.06 499.81 605.89 476.71 606.07 C 476.70 587.39 476.70 568.72 476.69 550.05 Z" />
</g>
<g id="#ee8e18ff">
<path fill="#ee8e18" opacity="1.00" d=" M 737.59 616.47 C 745.88 608.17 754.21 599.90 762.52 591.61 C 765.02 591.76 767.53 591.92 770.05 591.97 C 831.36 592.05 892.67 591.93 953.97 592.01 C 979.43 591.86 1004.88 592.27 1030.33 591.78 C 1037.17 598.56 1043.93 605.40 1050.80 612.15 C 1056.70 618.32 1062.99 624.73 1065.54 633.10 C 1066.02 637.79 1066.06 642.60 1065.39 647.28 C 1065.16 645.22 1064.87 643.19 1064.60 641.15 C 1009.74 640.80 954.86 641.16 900.00 641.02 C 842.13 641.01 784.26 641.02 726.40 641.03 C 726.06 631.58 731.12 622.97 737.59 616.47 Z" />
</g>
<g id="#ed8b18ff">
<path fill="#ed8b18" opacity="1.00" d=" M 476.71 606.07 C 499.81 605.89 522.91 606.06 546.02 605.99 C 562.84 606.23 579.69 605.53 596.50 606.35 C 573.18 629.68 549.86 653.01 526.51 676.30 C 509.93 675.54 493.32 676.14 476.73 675.96 C 476.71 652.66 476.73 629.36 476.71 606.07 Z" />
</g>
<g id="#ec8a17ff">
<path fill="#ec8a17" opacity="1.00" d=" M 209.51 636.17 C 211.49 625.95 220.68 619.78 227.28 612.55 C 232.18 612.99 237.11 613.12 242.03 613.04 C 283.70 613.01 325.38 612.96 367.04 613.01 C 368.69 612.79 369.10 614.71 369.03 615.96 C 369.34 622.16 368.14 628.50 369.97 634.58 C 370.50 648.36 370.03 662.20 370.19 676.01 C 370.06 683.52 370.47 691.06 369.96 698.57 C 368.55 693.54 369.11 688.30 368.86 683.16 C 330.24 682.61 291.61 683.26 252.98 682.91 C 249.46 682.86 245.94 683.13 242.44 683.50 C 233.91 675.02 225.41 666.52 216.93 657.99 C 211.17 652.40 207.80 644.21 209.51 636.17 Z" />
</g>
<g id="#eb8616ff">
<path fill="#eb8616" opacity="1.00" d=" M 726.40 641.03 C 784.26 641.02 842.13 641.01 900.00 641.02 C 954.86 641.16 1009.74 640.80 1064.60 641.15 C 1064.87 643.19 1065.16 645.22 1065.39 647.28 C 1062.75 654.66 1057.53 660.67 1052.18 666.24 C 1037.23 681.49 1021.85 696.34 1006.98 711.68 L 1006.51 711.62 C 1001.38 710.71 996.16 710.91 990.99 710.96 C 932.33 711.00 873.67 710.91 815.01 711.02 C 805.19 710.99 795.35 710.70 785.55 711.35 C 773.35 699.24 761.22 687.05 749.06 674.90 C 744.28 670.03 739.25 665.40 734.84 660.19 C 730.10 654.89 726.88 648.17 726.40 641.03 Z" />
</g>
<g id="#ea8416ff">
<path fill="#ea8416" opacity="1.00" d=" M 476.73 675.96 C 493.32 676.14 509.93 675.54 526.51 676.30 C 517.84 685.02 509.11 693.67 500.44 702.38 C 496.76 706.07 492.68 710.64 487.01 710.49 C 481.85 709.78 479.09 704.57 477.98 699.98 C 476.22 692.10 476.85 683.96 476.73 675.96 Z" />
</g>
<g id="#e98015ff">
<path fill="#e98015" opacity="1.00" d=" M 242.44 683.50 C 245.94 683.13 249.46 682.86 252.98 682.91 C 291.61 683.26 330.24 682.61 368.86 683.16 C 369.11 688.30 368.55 693.54 369.96 698.57 C 370.50 716.00 370.03 733.51 370.19 750.97 C 369.95 760.55 370.70 770.18 369.78 779.72 C 368.68 774.24 369.15 768.65 368.93 763.12 C 360.97 762.66 353.00 763.06 345.03 762.93 C 337.52 763.07 329.97 762.47 322.49 763.44 L 322.25 763.47 C 295.73 736.74 269.01 710.19 242.44 683.50 Z" />
</g>
<g id="#e77d14ff">
<path fill="#e77d14" opacity="1.00" d=" M 785.55 711.35 C 795.35 710.70 805.19 710.99 815.01 711.02 C 873.67 710.91 932.33 711.00 990.99 710.96 C 996.16 710.91 1001.38 710.71 1006.51 711.62 C 985.04 733.97 962.56 755.38 940.97 777.63 L 940.50 777.57 C 929.71 776.18 918.81 777.42 907.99 776.96 C 889.17 777.14 870.34 776.52 851.55 777.32 C 829.52 755.36 807.53 733.36 785.55 711.35 Z" />
</g>
<g id="#e67813ff">
<path fill="#e67813" opacity="1.00" d=" M 613.55 740.52 C 619.67 734.09 626.81 727.73 635.89 726.27 C 645.93 724.19 656.07 728.99 663.11 735.95 C 682.80 755.60 702.50 775.26 722.16 794.94 C 678.77 795.16 635.38 794.98 591.99 795.03 C 581.16 794.72 570.30 795.59 559.50 794.55 C 577.49 776.51 595.54 758.53 613.55 740.52 Z" />
<path fill="#e67813" opacity="1.00" d=" M 322.49 763.44 C 329.97 762.47 337.52 763.07 345.03 762.93 C 353.00 763.06 360.97 762.66 368.93 763.12 C 369.15 768.65 368.68 774.24 369.78 779.72 C 370.05 784.71 368.76 789.87 366.13 794.13 C 364.48 796.76 361.25 798.61 358.14 797.43 C 354.28 796.13 351.70 792.77 348.87 790.05 C 340.12 781.14 331.14 772.45 322.49 763.44 Z" />
</g>
<g id="#e57613ff">
<path fill="#e57613" opacity="1.00" d=" M 851.55 777.32 C 870.34 776.52 889.17 777.14 907.99 776.96 C 918.81 777.42 929.71 776.18 940.50 777.57 C 934.53 784.24 927.90 790.29 921.66 796.71 C 915.50 802.95 907.99 808.66 898.96 809.46 C 889.16 810.55 879.92 805.44 873.08 798.85 C 865.89 791.68 858.70 784.52 851.55 777.32 Z" />
</g>
<g id="#e37112ff">
<path fill="#e37112" opacity="1.00" d=" M 483.45 870.58 C 508.77 845.21 534.14 819.88 559.50 794.55 C 570.30 795.59 581.16 794.72 591.99 795.03 C 635.38 794.98 678.77 795.16 722.16 794.94 C 747.52 820.26 772.85 845.60 798.21 870.91 C 697.81 871.20 597.41 870.89 497.01 871.04 C 492.48 871.10 487.95 870.99 483.45 870.58 Z" />
</g>
<g id="#e06910ff">
<path fill="#e06910" opacity="1.00" d=" M 470.77 895.07 C 470.91 885.43 476.72 877.01 483.45 870.58 C 487.95 870.99 492.48 871.10 497.01 871.04 C 597.41 870.89 697.81 871.20 798.21 870.91 C 804.73 877.31 810.12 885.60 810.44 894.99 C 810.60 904.29 805.52 912.73 799.14 919.13 C 757.28 960.96 715.49 1002.86 673.62 1044.69 C 668.40 1049.78 663.47 1055.24 657.54 1059.54 C 653.17 1062.30 648.45 1065.42 643.03 1064.93 C 638.82 1064.73 634.29 1065.63 630.42 1063.56 C 624.62 1060.69 619.58 1056.55 614.99 1052.04 C 570.72 1007.66 526.34 963.38 482.05 919.01 C 475.74 912.66 470.57 904.30 470.77 895.07 Z" />
</g>
</svg>
