<?xml version="1.0" encoding="UTF-8" ?>
<!DOCTYPE svg PUBLIC "-//W3C//DTD SVG 1.1//EN" "http://www.w3.org/Graphics/SVG/1.1/DTD/svg11.dtd">
<svg width="1276pt" height="1276pt" viewBox="0 0 1276 1276" version="1.1" xmlns="http://www.w3.org/2000/svg">
<g id="#d1d1d1ff">
<path fill="#d1d1d1" opacity="1.00" d=" M 505.10 197.18 C 560.55 183.54 618.52 181.01 675.09 188.31 C 676.10 189.35 677.11 190.44 677.57 191.86 C 629.96 185.49 581.34 186.22 534.06 194.90 C 478.86 204.96 425.40 225.35 378.07 255.59 C 377.19 254.34 376.32 253.10 375.45 251.85 C 415.34 226.77 459.32 208.28 505.10 197.18 Z" />
<path fill="#d1d1d1" opacity="1.00" d=" M 767.19 629.89 C 769.06 629.97 770.94 630.01 772.83 630.01 C 768.71 634.54 764.58 639.13 759.57 642.69 C 749.55 650.06 737.42 654.42 725.08 655.68 C 718.80 655.70 712.48 655.78 706.23 655.12 C 712.37 652.57 719.38 654.58 725.38 651.46 C 741.30 649.57 756.60 642.00 767.19 629.89 Z" />
</g>
<g id="#767676ff">
<path fill="#767676" opacity="1.00" d=" M 534.06 194.90 C 581.34 186.22 629.96 185.49 677.57 191.86 C 682.74 192.66 687.91 193.52 693.07 194.45 C 705.91 196.07 718.42 199.50 731.02 202.38 C 752.72 208.05 774.08 215.03 794.82 223.56 C 823.64 235.76 851.72 250.04 877.62 267.67 C 889.07 276.10 900.89 284.02 911.93 293.01 C 916.65 296.62 921.03 300.68 925.87 304.15 C 925.99 303.34 926.25 301.74 926.37 300.93 C 961.22 330.61 991.85 365.24 1017.08 403.43 C 1016.89 404.05 1016.50 405.31 1016.31 405.94 C 1058.52 470.64 1084.80 545.86 1090.87 622.95 C 1094.89 673.55 1090.26 724.89 1076.64 773.82 C 1058.11 841.19 1022.56 903.84 973.91 954.02 C 941.64 987.37 903.90 1015.44 862.59 1036.59 C 855.84 1040.50 848.48 1043.14 841.56 1046.71 C 831.60 1051.32 821.33 1055.27 811.02 1059.01 C 801.04 1062.77 790.66 1065.25 780.58 1068.71 C 772.50 1070.54 764.58 1073.04 756.41 1074.47 C 750.13 1076.51 743.46 1076.59 737.08 1078.21 C 728.55 1080.35 719.79 1081.43 711.01 1081.73 C 696.70 1084.16 682.14 1084.29 667.67 1084.80 C 662.50 1085.37 657.31 1085.13 652.14 1084.76 C 568.55 1083.80 485.75 1058.91 414.33 1015.75 C 346.46 974.94 288.82 917.26 248.14 849.30 C 237.37 831.23 227.83 812.45 219.34 793.20 C 213.63 777.92 207.23 762.86 202.64 747.18 C 200.24 739.96 198.08 732.67 196.27 725.28 C 194.18 716.71 191.56 708.24 190.35 699.49 C 189.39 691.92 187.86 684.44 186.53 676.93 C 183.64 655.85 180.95 634.65 181.26 613.33 C 181.88 610.51 178.21 610.88 176.46 610.39 C 176.81 577.56 180.73 544.75 188.40 512.80 C 189.84 512.54 191.28 512.30 192.72 512.06 C 191.08 521.05 189.28 530.01 187.67 539.01 C 187.15 541.82 187.05 544.68 187.11 547.53 C 190.94 541.26 189.18 533.44 191.70 526.70 C 194.34 514.68 197.08 502.65 200.82 490.91 C 202.42 485.30 204.52 479.84 205.84 474.16 C 213.00 453.67 221.51 433.64 231.62 414.43 C 234.67 409.03 237.65 403.60 240.55 398.12 C 246.60 388.13 252.83 378.25 259.52 368.67 C 273.93 348.24 290.18 329.12 307.93 311.52 C 329.12 290.33 352.87 271.78 378.07 255.59 C 425.40 225.35 478.86 204.96 534.06 194.90 M 594.55 201.01 C 590.18 200.91 585.81 201.61 581.45 201.77 C 574.83 202.39 568.23 203.15 561.64 204.04 C 557.28 204.61 552.94 205.26 548.61 206.00 C 546.22 206.37 543.83 206.80 541.46 207.26 C 535.88 208.25 530.34 209.42 524.81 210.63 C 516.46 212.46 508.23 214.75 499.98 216.97 C 493.84 218.81 487.72 220.72 481.65 222.79 C 475.19 224.92 468.81 227.30 462.50 229.83 C 452.39 233.68 442.53 238.18 432.80 242.90 C 428.12 245.04 423.61 247.50 419.07 249.91 C 405.84 256.85 393.13 264.74 380.78 273.15 C 375.47 276.86 370.14 280.54 365.06 284.55 C 361.55 287.11 358.16 289.82 354.78 292.53 C 349.81 296.54 344.95 300.67 340.13 304.85 C 335.14 309.64 329.87 314.13 325.06 319.10 C 321.64 322.58 318.11 325.96 314.81 329.57 C 302.97 342.34 291.69 355.68 281.62 369.91 C 272.67 382.23 264.29 395.06 257.22 408.56 L 256.92 408.70 C 253.30 414.91 250.11 421.37 246.79 427.75 C 241.63 438.38 236.99 449.24 232.55 460.19 C 228.14 472.05 224.06 484.05 220.56 496.21 C 211.26 529.01 206.20 562.96 205.03 597.02 C 202.56 677.89 223.62 759.09 263.82 829.21 C 264.79 830.85 265.62 832.57 266.38 834.33 C 272.05 842.79 277.05 851.71 282.89 860.07 C 294.39 877.08 307.27 893.12 320.78 908.57 L 320.73 908.61 C 322.91 910.63 324.92 912.84 326.95 915.03 C 346.99 937.02 369.58 956.54 393.33 974.40 C 419.17 993.35 446.98 1009.57 476.07 1022.98 C 524.17 1044.62 575.84 1058.50 628.45 1062.85 C 640.07 1063.56 651.68 1064.80 663.34 1064.39 C 672.07 1064.27 680.87 1064.84 689.54 1063.51 C 696.81 1063.29 704.18 1063.08 711.30 1061.57 C 715.93 1062.03 720.41 1060.30 725.05 1060.35 C 733.71 1058.73 742.67 1058.14 751.10 1055.57 C 754.99 1055.38 758.78 1054.31 762.56 1053.39 C 768.09 1051.92 773.74 1050.97 779.20 1049.27 C 789.76 1046.01 800.62 1043.52 810.79 1039.13 C 815.47 1038.13 819.79 1035.77 824.36 1034.31 C 829.15 1032.20 834.08 1030.37 838.75 1028.00 C 844.42 1025.77 849.92 1023.14 855.31 1020.32 C 858.70 1018.64 862.13 1017.05 865.43 1015.20 C 870.08 1012.72 874.69 1010.16 879.25 1007.53 C 882.71 1005.45 886.19 1003.43 889.62 1001.30 C 895.04 997.88 900.45 994.43 905.71 990.76 C 912.71 985.91 919.58 980.86 926.29 975.62 C 932.77 970.47 939.15 965.20 945.33 959.70 C 951.69 953.83 958.16 948.07 964.14 941.81 C 968.67 937.27 973.02 932.55 977.36 927.82 L 977.27 927.53 C 982.56 922.17 987.25 916.25 992.02 910.43 C 996.93 904.23 1001.71 897.93 1006.32 891.51 C 1010.08 885.93 1013.85 880.35 1017.54 874.73 C 1020.48 869.98 1023.39 865.21 1026.19 860.38 C 1028.77 855.82 1031.35 851.25 1033.78 846.61 C 1036.21 841.92 1038.61 837.21 1040.87 832.43 C 1046.11 821.41 1050.87 810.17 1055.15 798.75 C 1073.60 748.74 1082.24 695.18 1080.56 641.91 C 1078.24 555.76 1049.02 470.90 999.74 400.33 C 963.73 348.42 916.95 304.08 863.39 270.60 C 793.52 226.83 711.82 201.75 629.31 200.25 C 617.72 199.75 606.10 200.19 594.55 201.01 Z" />
<path fill="#767676" opacity="1.00" d=" M 663.40 378.14 C 665.77 377.95 668.15 377.82 670.53 377.68 C 675.05 377.42 679.59 377.31 684.13 377.36 C 690.95 377.52 697.77 377.96 704.56 378.61 C 713.40 379.60 722.21 380.96 730.89 382.97 C 739.37 384.77 747.66 387.33 755.86 390.14 C 817.87 411.56 869.90 460.02 895.58 520.40 C 907.60 548.55 913.89 579.12 913.73 609.74 C 913.29 623.12 912.17 636.51 909.36 649.62 C 907.94 656.25 906.25 662.82 904.26 669.31 C 902.70 674.17 901.02 679.01 899.09 683.74 C 897.02 688.82 894.86 693.86 892.36 698.74 C 889.12 705.07 885.74 711.35 881.81 717.29 C 877.75 723.56 873.42 729.66 868.64 735.40 C 864.25 740.77 859.53 745.87 854.63 750.77 C 849.50 755.65 844.33 760.50 838.72 764.83 C 832.15 769.93 825.39 774.80 818.23 779.03 C 810.62 783.62 802.73 787.73 794.57 791.25 C 787.00 794.53 779.24 797.40 771.32 799.71 C 764.45 801.77 757.49 803.46 750.44 804.74 C 744.61 805.91 738.72 806.82 732.80 807.36 C 729.66 807.60 726.53 807.95 723.39 808.09 C 717.18 808.23 710.96 808.55 704.75 808.37 C 697.80 808.41 690.90 807.58 684.00 806.84 C 678.12 806.18 672.32 805.01 666.49 804.03 C 656.65 802.04 646.99 799.25 637.46 796.11 C 626.79 792.31 616.29 787.96 606.28 782.66 C 593.13 775.70 580.50 767.74 568.78 758.57 C 557.02 749.57 546.28 739.27 536.52 728.16 C 527.36 717.59 519.07 706.32 511.74 694.42 C 509.76 691.33 508.00 688.12 506.22 684.92 C 484.91 645.98 475.21 600.58 479.82 556.35 C 480.55 550.17 481.45 544.00 482.70 537.90 C 484.30 530.05 486.16 522.24 488.65 514.62 C 491.25 507.13 494.03 499.69 497.34 492.48 C 499.65 487.81 501.91 483.10 504.45 478.55 C 507.80 472.93 511.11 467.28 514.97 461.99 C 523.54 449.53 533.84 438.33 545.04 428.19 C 549.34 424.36 553.88 420.79 558.45 417.30 C 566.85 411.05 575.79 405.54 585.05 400.66 C 591.01 397.54 597.15 394.79 603.37 392.25 C 609.54 389.76 615.86 387.65 622.23 385.76 C 630.45 383.35 638.84 381.51 647.29 380.14 C 652.63 379.27 658.01 378.63 663.40 378.14 M 656.64 395.59 C 653.02 396.10 649.42 396.78 645.84 397.50 C 642.39 398.21 638.97 399.01 635.58 399.91 C 631.21 401.09 626.90 402.46 622.59 403.81 C 618.94 405.17 615.30 406.55 611.69 408.00 C 608.01 409.47 604.44 411.21 600.87 412.93 C 597.04 414.79 593.31 416.84 589.62 418.96 C 585.24 421.53 580.95 424.28 576.78 427.18 C 572.06 430.58 567.37 434.06 563.01 437.91 C 560.10 440.52 557.11 443.04 554.33 445.80 C 551.49 448.64 548.72 451.56 546.03 454.54 C 543.94 456.94 541.83 459.32 539.91 461.85 C 537.57 464.82 535.20 467.77 533.04 470.88 C 528.92 476.93 525.02 483.13 521.62 489.61 C 518.02 496.17 515.07 503.05 512.39 510.03 C 510.43 514.67 508.81 519.50 507.69 524.41 L 507.53 523.91 C 495.19 566.19 498.36 612.42 514.92 653.11 C 519.14 663.90 524.75 674.05 530.24 684.23 L 530.40 684.11 C 536.92 694.88 544.50 704.98 552.68 714.54 C 561.87 724.47 571.60 733.90 582.14 742.40 C 592.71 750.52 603.88 757.88 615.72 764.00 L 615.57 764.22 C 617.04 764.78 618.52 765.35 619.95 766.05 C 636.08 774.14 653.28 780.07 670.93 783.77 C 676.38 784.69 681.91 786.36 687.40 786.30 C 691.59 786.87 695.82 787.90 700.07 787.42 C 712.08 787.86 724.27 788.54 736.20 786.60 C 744.36 785.65 752.56 784.32 760.50 782.14 C 764.85 781.24 769.04 779.74 773.29 778.47 C 778.02 777.04 782.56 775.07 787.18 773.31 C 789.57 772.24 791.95 771.14 794.34 770.06 C 796.39 769.12 798.40 768.10 800.40 767.04 C 807.59 763.35 814.53 759.16 821.16 754.52 C 824.30 752.23 827.49 749.99 830.51 747.52 C 832.89 745.43 835.52 743.60 837.72 741.31 C 840.27 739.07 842.81 736.82 845.14 734.35 C 847.07 732.33 849.00 730.32 850.93 728.29 C 854.79 724.17 858.24 719.71 861.71 715.26 C 863.92 712.35 866.01 709.35 868.00 706.29 C 869.68 703.63 871.36 700.98 873.00 698.29 C 876.70 691.94 879.94 685.33 882.93 678.62 C 895.85 648.69 900.49 615.38 896.91 583.02 C 893.71 552.77 883.36 523.37 867.54 497.41 C 849.63 467.90 824.49 442.85 795.06 424.84 C 759.19 402.81 716.67 391.44 674.56 393.79 C 668.56 394.06 662.59 394.80 656.64 395.59 Z" />
<path fill="#767676" opacity="1.00" d=" M 690.35 477.09 C 694.02 476.72 697.70 476.48 701.40 476.39 C 705.48 476.38 709.56 476.78 713.64 477.04 C 720.68 477.67 727.55 479.46 734.37 481.27 C 750.49 486.19 765.51 494.71 778.09 505.93 C 802.43 527.31 817.44 559.28 817.15 591.79 C 816.88 600.24 815.86 608.69 813.67 616.87 C 812.71 620.14 811.70 623.39 810.50 626.59 C 809.07 630.22 807.50 633.80 805.72 637.28 C 803.09 642.24 800.10 647.01 796.67 651.46 C 794.82 653.83 792.85 656.12 790.78 658.31 C 788.62 660.54 786.41 662.73 784.09 664.80 C 781.10 667.41 777.98 669.89 774.69 672.14 C 771.75 674.10 768.72 675.95 765.61 677.63 C 758.28 681.51 750.49 684.52 742.43 686.49 C 740.21 687.01 737.98 687.46 735.74 687.86 C 732.26 688.46 728.76 688.95 725.26 689.26 C 720.15 689.59 715.02 689.46 709.91 689.32 C 704.19 688.96 698.55 687.83 692.94 686.72 C 682.57 684.32 672.49 680.55 663.19 675.37 C 657.12 671.89 651.27 668.02 645.79 663.66 C 640.32 659.36 635.22 654.56 630.73 649.25 C 626.47 644.27 622.64 638.95 619.14 633.42 C 613.85 625.07 609.97 615.92 606.94 606.54 C 603.08 593.32 601.43 579.36 602.76 565.63 C 603.27 560.38 604.11 555.15 605.53 550.06 C 606.42 546.71 607.37 543.37 608.56 540.10 C 610.00 536.31 611.63 532.59 613.48 528.98 C 615.57 525.00 617.97 521.19 620.52 517.49 C 624.14 512.34 628.29 507.58 632.89 503.29 C 636.37 500.05 640.05 497.02 643.94 494.28 C 647.10 492.08 650.42 490.12 653.81 488.28 C 657.21 486.45 660.75 484.89 664.32 483.43 C 669.35 481.42 674.59 479.99 679.87 478.80 C 683.32 478.04 686.82 477.45 690.35 477.09 M 679.64 511.49 C 662.68 518.06 648.38 531.79 641.85 548.86 C 633.79 568.22 635.71 590.84 644.92 609.46 C 647.44 615.56 651.64 620.76 656.00 625.64 C 656.59 625.11 657.77 624.05 658.36 623.51 C 662.85 629.18 668.35 633.96 674.22 638.15 C 673.44 639.36 672.67 640.58 671.90 641.81 C 675.81 644.35 679.85 647.44 684.30 648.63 C 686.83 649.78 689.34 651.28 692.17 651.58 C 696.72 653.08 701.41 655.04 706.23 655.12 C 712.48 655.78 718.80 655.70 725.08 655.68 C 737.42 654.42 749.55 650.06 759.57 642.69 C 764.58 639.13 768.71 634.54 772.83 630.01 C 775.32 626.78 777.55 623.35 779.45 619.74 C 781.62 616.04 783.12 611.95 784.39 607.86 C 786.38 602.18 786.99 596.18 787.62 590.23 C 787.32 589.92 786.73 589.29 786.43 588.98 C 786.10 590.82 785.78 592.66 785.47 594.51 C 784.81 594.73 783.49 595.17 782.82 595.38 C 783.47 591.31 783.49 587.17 783.20 583.07 C 783.88 579.41 785.74 575.80 785.00 572.00 C 784.34 564.65 781.63 557.70 778.59 551.05 L 778.15 551.40 C 771.17 536.21 758.51 524.01 743.95 516.06 C 733.69 510.97 722.55 507.00 710.98 506.90 C 700.35 505.69 689.62 507.91 679.64 511.49 Z" />
</g>
<g id="#c5c5c5ff">
<path fill="#c5c5c5" opacity="1.00" d=" M 675.09 188.31 C 695.06 191.16 714.91 194.95 734.40 200.18 C 733.27 200.91 732.14 201.64 731.02 202.38 C 718.42 199.50 705.91 196.07 693.07 194.45 C 687.91 193.52 682.74 192.66 677.57 191.86 C 677.11 190.44 676.10 189.35 675.09 188.31 Z" />
</g>
<g id="#e9feffff">
<path fill="#e9feff" opacity="1.00" d=" M 594.55 201.01 C 606.10 200.19 617.72 199.75 629.31 200.25 C 626.26 200.53 623.22 200.90 620.17 201.06 C 621.55 201.87 623.12 202.48 624.17 203.74 C 630.53 212.17 636.86 220.64 642.67 229.48 C 649.68 239.41 657.37 248.87 664.06 259.03 C 675.10 273.38 684.98 288.60 696.25 302.78 C 700.10 307.44 702.39 313.14 706.28 317.75 C 710.17 322.30 713.12 327.56 716.91 332.19 C 724.70 342.14 731.48 352.82 739.27 362.77 C 745.58 371.12 751.09 380.03 757.51 388.29 C 756.95 388.90 756.40 389.52 755.86 390.14 C 747.66 387.33 739.37 384.77 730.89 382.97 C 731.85 382.45 732.82 381.93 733.80 381.42 C 732.26 376.98 728.36 374.05 726.10 370.04 C 722.28 363.63 717.36 357.99 713.14 351.87 C 703.34 338.30 693.60 324.68 683.68 311.21 C 675.90 301.24 669.49 290.28 661.49 280.49 C 658.33 276.57 656.17 271.96 652.90 268.12 C 648.88 263.40 645.40 258.27 641.73 253.30 C 638.30 248.66 635.76 243.39 631.90 239.06 C 627.93 234.61 625.14 229.29 621.31 224.72 C 615.50 217.47 610.76 209.43 604.95 202.18 C 601.44 202.19 597.96 201.78 594.55 201.01 Z" />
</g>
<g id="#bcbcbcff">
<path fill="#bcbcbc" opacity="1.00" d=" M 734.40 200.18 C 755.50 205.75 776.21 212.79 796.34 221.21 C 795.96 221.79 795.20 222.97 794.82 223.56 C 774.08 215.03 752.72 208.05 731.02 202.38 C 732.14 201.64 733.27 200.91 734.40 200.18 Z" />
</g>
<g id="#dcfdfbff">
<path fill="#dcfdfb" opacity="1.00" d=" M 581.45 201.77 C 585.81 201.61 590.18 200.91 594.55 201.01 C 597.96 201.78 601.44 202.19 604.95 202.18 C 610.76 209.43 615.50 217.47 621.31 224.72 C 625.14 229.29 627.93 234.61 631.90 239.06 C 635.76 243.39 638.30 248.66 641.73 253.30 C 645.40 258.27 648.88 263.40 652.90 268.12 C 656.17 271.96 658.33 276.57 661.49 280.49 C 669.49 290.28 675.90 301.24 683.68 311.21 C 693.60 324.68 703.34 338.30 713.14 351.87 C 717.36 357.99 722.28 363.63 726.10 370.04 C 728.36 374.05 732.26 376.98 733.80 381.42 C 732.82 381.93 731.85 382.45 730.89 382.97 C 722.21 380.96 713.40 379.60 704.56 378.61 C 704.49 374.87 701.55 372.30 699.52 369.49 C 695.02 363.56 691.21 357.16 686.67 351.27 C 680.54 343.33 675.34 334.71 669.29 326.71 C 661.09 316.18 653.71 305.05 645.60 294.44 C 636.95 282.99 629.47 270.67 620.34 259.59 C 611.87 247.21 603.01 235.11 594.06 223.09 C 591.39 219.07 588.89 214.93 585.87 211.16 C 583.78 208.36 580.80 205.61 581.45 201.77 Z" />
</g>
<g id="#ffffffff">
<path fill="#ffffff" opacity="1.00" d=" M 620.17 201.06 C 623.22 200.90 626.26 200.53 629.31 200.25 C 711.82 201.75 793.52 226.83 863.39 270.60 C 916.95 304.08 963.73 348.42 999.74 400.33 C 1049.02 470.90 1078.24 555.76 1080.56 641.91 C 1082.24 695.18 1073.60 748.74 1055.15 798.75 C 1052.44 794.45 1049.97 790.00 1046.97 785.91 C 1041.40 778.97 1036.26 771.66 1031.80 763.97 C 1029.66 760.80 1026.51 758.46 1024.55 755.15 C 1021.15 749.68 1016.88 744.83 1013.58 739.30 C 1010.77 734.56 1006.53 730.94 1003.51 726.36 C 1001.21 722.96 998.73 719.69 996.60 716.19 C 993.45 710.87 988.94 706.54 985.76 701.23 C 980.42 692.71 973.79 685.11 968.28 676.72 C 964.93 671.71 961.25 666.94 957.48 662.25 C 948.59 649.58 939.77 636.85 930.28 624.59 C 926.05 617.41 920.20 611.40 915.90 604.27 C 915.31 606.14 914.57 607.96 913.73 609.74 C 913.89 579.12 907.60 548.55 895.58 520.40 C 869.90 460.02 817.87 411.56 755.86 390.14 C 756.40 389.52 756.95 388.90 757.51 388.29 C 751.09 380.03 745.58 371.12 739.27 362.77 C 731.48 352.82 724.70 342.14 716.91 332.19 C 713.12 327.56 710.17 322.30 706.28 317.75 C 702.39 313.14 700.10 307.44 696.25 302.78 C 684.98 288.60 675.10 273.38 664.06 259.03 C 657.37 248.87 649.68 239.41 642.67 229.48 C 636.86 220.64 630.53 212.17 624.17 203.74 C 623.12 202.48 621.55 201.87 620.17 201.06 Z" />
<path fill="#ffffff" opacity="1.00" d=" M 674.56 393.79 C 716.67 391.44 759.19 402.81 795.06 424.84 C 824.49 442.85 849.63 467.90 867.54 497.41 C 883.36 523.37 893.71 552.77 896.91 583.02 C 900.49 615.38 895.85 648.69 882.93 678.62 C 875.78 668.55 868.72 658.43 861.57 648.36 C 847.33 629.33 833.87 609.77 819.98 590.47 C 819.03 590.90 818.08 591.34 817.15 591.79 C 817.44 559.28 802.43 527.31 778.09 505.93 C 765.51 494.71 750.49 486.19 734.37 481.27 C 735.44 477.13 731.68 474.43 729.63 471.41 C 723.16 461.96 715.96 453.04 709.57 443.54 C 703.91 435.23 697.59 427.39 692.11 418.96 C 686.58 410.34 678.99 403.12 674.56 393.79 Z" />
<path fill="#ffffff" opacity="1.00" d=" M 608.35 639.55 C 611.97 637.56 615.57 635.51 619.14 633.42 C 622.64 638.95 626.47 644.27 630.73 649.25 C 628.35 651.43 625.90 653.54 623.40 655.58 C 621.36 657.26 619.34 658.96 617.31 660.66 C 614.87 662.70 612.43 664.74 610.00 666.79 C 607.42 668.95 604.85 671.10 602.29 673.28 C 585.69 686.95 569.42 701.04 552.68 714.54 C 544.50 704.98 536.92 694.88 530.40 684.11 C 534.40 681.01 539.04 678.93 543.36 676.34 C 560.56 666.63 577.74 656.87 594.92 647.14 C 599.45 644.71 603.83 642.01 608.35 639.55 Z" />
<path fill="#ffffff" opacity="1.00" d=" M 637.19 674.30 C 640.08 670.77 642.89 667.18 645.79 663.66 C 651.27 668.02 657.12 671.89 663.19 675.37 C 661.76 678.04 660.34 680.72 658.94 683.41 C 656.04 688.91 653.11 694.38 650.18 699.86 C 647.44 705.11 644.63 710.32 641.84 715.55 C 634.47 729.60 626.89 743.54 619.51 757.59 C 618.38 759.80 617.12 761.95 615.72 764.00 C 603.88 757.88 592.71 750.52 582.14 742.40 C 586.32 736.26 591.38 730.78 595.99 724.96 C 603.50 715.69 610.99 706.40 618.57 697.18 C 620.85 694.39 623.08 691.57 625.36 688.78 C 627.36 686.31 629.37 683.84 631.39 681.38 C 633.33 679.02 635.27 676.66 637.19 674.30 Z" />
<path fill="#ffffff" opacity="1.00" d=" M 482.24 710.93 C 492.14 705.53 501.72 699.58 511.74 694.42 C 519.07 706.32 527.36 717.59 536.52 728.16 C 528.56 735.19 520.19 741.73 512.16 748.68 C 506.23 753.66 500.22 758.54 494.34 763.56 C 489.24 767.82 484.15 772.09 479.06 776.35 C 473.56 781.07 467.87 785.55 462.41 790.32 C 432.79 815.06 403.17 839.79 373.61 864.61 C 355.87 879.10 338.63 894.22 320.78 908.57 C 307.27 893.12 294.39 877.08 282.89 860.07 C 277.05 851.71 272.05 842.79 266.38 834.33 C 267.03 833.36 267.58 832.27 268.71 831.77 C 315.01 805.59 361.29 779.35 407.61 753.18 C 415.40 748.82 423.08 744.27 430.92 740.00 C 440.30 734.74 449.61 729.32 459.00 724.08 C 466.80 719.78 474.45 715.24 482.24 710.93 Z" />
<path fill="#ffffff" opacity="1.00" d=" M 542.08 791.24 C 551.06 780.42 559.59 769.21 568.78 758.57 C 580.50 767.74 593.13 775.70 606.28 782.66 C 600.06 793.95 594.08 805.38 588.02 816.75 C 582.64 827.09 577.03 837.31 571.61 847.64 C 567.40 855.63 563.13 863.60 558.87 871.57 C 554.95 879.21 550.71 886.68 546.79 894.33 C 523.92 937.34 501.18 980.44 478.03 1023.31 C 477.54 1023.22 476.56 1023.06 476.07 1022.98 C 446.98 1009.57 419.17 993.35 393.33 974.40 C 411.77 950.88 431.00 927.98 449.75 904.70 C 466.65 883.96 483.46 863.15 500.39 842.43 C 505.21 836.69 509.75 830.72 514.60 825.01 C 518.85 819.80 522.98 814.49 527.30 809.35 C 532.28 803.35 537.05 797.19 542.08 791.24 Z" />
</g>
<g id="#e2ffdeff">
<path fill="#e2ffde" opacity="1.00" d=" M 561.64 204.04 C 568.23 203.15 574.83 202.39 581.45 201.77 C 580.80 205.61 583.78 208.36 585.87 211.16 C 588.89 214.93 591.39 219.07 594.06 223.09 C 603.01 235.11 611.87 247.21 620.34 259.59 C 629.47 270.67 636.95 282.99 645.60 294.44 C 653.71 305.05 661.09 316.18 669.29 326.71 C 675.34 334.71 680.54 343.33 686.67 351.27 C 691.21 357.16 695.02 363.56 699.52 369.49 C 701.55 372.30 704.49 374.87 704.56 378.61 C 697.77 377.96 690.95 377.52 684.13 377.36 C 684.58 376.65 685.04 375.95 685.50 375.24 C 673.98 359.23 662.17 343.42 650.83 327.27 C 646.06 320.64 641.62 313.78 636.56 307.37 C 631.32 300.84 627.24 293.48 621.87 287.04 C 610.36 270.92 598.70 254.91 587.08 238.86 C 583.06 232.37 578.10 226.54 573.86 220.20 C 569.60 214.95 566.23 209.03 561.64 204.04 Z" />
</g>
<g id="#ebffc1ff">
<path fill="#ebffc1" opacity="1.00" d=" M 548.61 206.00 C 552.94 205.26 557.28 204.61 561.64 204.04 C 566.23 209.03 569.60 214.95 573.86 220.20 C 578.10 226.54 583.06 232.37 587.08 238.86 C 598.70 254.91 610.36 270.92 621.87 287.04 C 627.24 293.48 631.32 300.84 636.56 307.37 C 641.62 313.78 646.06 320.64 650.83 327.27 C 662.17 343.42 673.98 359.23 685.50 375.24 C 685.04 375.95 684.58 376.65 684.13 377.36 C 679.59 377.31 675.05 377.42 670.53 377.68 C 667.42 370.48 661.73 364.93 657.66 358.32 C 652.62 351.09 647.34 344.03 642.02 337.01 C 637.89 330.57 633.27 324.47 628.71 318.34 C 615.13 299.00 601.16 279.93 587.23 260.83 C 584.05 256.58 581.53 251.87 578.23 247.70 C 571.76 240.06 566.80 231.31 560.44 223.58 C 556.48 217.74 552.04 212.19 548.61 206.00 Z" />
</g>
<g id="#f2ffaeff">
<path fill="#f2ffae" opacity="1.00" d=" M 541.46 207.26 C 543.83 206.80 546.22 206.37 548.61 206.00 C 552.04 212.19 556.48 217.74 560.44 223.58 C 566.80 231.31 571.76 240.06 578.23 247.70 C 581.53 251.87 584.05 256.58 587.23 260.83 C 601.16 279.93 615.13 299.00 628.71 318.34 C 633.27 324.47 637.89 330.57 642.02 337.01 C 647.34 344.03 652.62 351.09 657.66 358.32 C 661.73 364.93 667.42 370.48 670.53 377.68 C 668.15 377.82 665.77 377.95 663.40 378.14 C 662.27 375.53 660.99 372.97 659.31 370.68 C 641.29 345.39 622.83 320.43 604.82 295.14 C 594.65 281.28 585.20 266.89 574.76 253.22 C 570.02 247.22 565.94 240.74 561.37 234.61 C 554.49 225.67 548.59 216.02 541.46 207.26 Z" />
</g>
<g id="#f8ff9bff">
<path fill="#f8ff9b" opacity="1.00" d=" M 524.81 210.63 C 530.34 209.42 535.88 208.25 541.46 207.26 C 548.59 216.02 554.49 225.67 561.37 234.61 C 565.94 240.74 570.02 247.22 574.76 253.22 C 585.20 266.89 594.65 281.28 604.82 295.14 C 622.83 320.43 641.29 345.39 659.31 370.68 C 660.99 372.97 662.27 375.53 663.40 378.14 C 658.01 378.63 652.63 379.27 647.29 380.14 C 637.47 364.70 626.09 350.33 615.59 335.36 C 610.00 328.26 605.21 320.57 599.59 313.48 C 595.87 307.89 591.31 302.89 587.96 297.06 C 585.44 292.65 581.90 288.97 579.02 284.82 C 576.40 281.12 574.08 277.22 571.36 273.59 C 562.69 262.50 555.01 250.67 546.41 239.53 C 544.70 237.23 543.37 234.69 541.67 232.39 C 535.81 225.31 531.66 216.90 524.81 210.63 Z" />
</g>
<g id="#fffa86ff">
<path fill="#fffa86" opacity="1.00" d=" M 499.98 216.97 C 508.23 214.75 516.46 212.46 524.81 210.63 C 531.66 216.90 535.81 225.31 541.67 232.39 C 543.37 234.69 544.70 237.23 546.41 239.53 C 555.01 250.67 562.69 262.50 571.36 273.59 C 574.08 277.22 576.40 281.12 579.02 284.82 C 581.90 288.97 585.44 292.65 587.96 297.06 C 591.31 302.89 595.87 307.89 599.59 313.48 C 605.21 320.57 610.00 328.26 615.59 335.36 C 626.09 350.33 637.47 364.70 647.29 380.14 C 638.84 381.51 630.45 383.35 622.23 385.76 C 609.06 366.37 594.79 347.73 581.75 328.24 C 578.89 324.46 575.75 320.91 573.03 317.03 C 562.50 301.34 550.70 286.53 540.23 270.80 C 537.40 266.32 533.74 262.46 530.84 258.04 C 525.11 249.25 518.35 241.18 512.55 232.44 C 508.57 227.14 505.49 220.92 499.98 216.97 Z" />
</g>
<g id="#ffe37eff">
<path fill="#ffe37e" opacity="1.00" d=" M 481.65 222.79 C 487.72 220.72 493.84 218.81 499.98 216.97 C 505.49 220.92 508.57 227.14 512.55 232.44 C 518.35 241.18 525.11 249.25 530.84 258.04 C 533.74 262.46 537.40 266.32 540.23 270.80 C 550.70 286.53 562.50 301.34 573.03 317.03 C 575.75 320.91 578.89 324.46 581.75 328.24 C 594.79 347.73 609.06 366.37 622.23 385.76 C 615.86 387.65 609.54 389.76 603.37 392.25 C 598.41 386.85 594.89 380.37 590.18 374.78 C 587.90 371.97 585.94 368.93 584.04 365.87 C 581.16 361.18 577.22 357.27 574.16 352.71 C 564.07 337.61 552.95 323.26 542.77 308.23 C 537.25 301.32 532.74 293.67 527.27 286.73 C 519.20 276.63 512.12 265.81 504.78 255.19 C 499.36 248.55 494.96 241.18 489.58 234.53 C 486.85 230.67 484.42 226.61 481.65 222.79 Z" />
</g>
<g id="#aaaaaaff">
<path fill="#aaaaaa" opacity="1.00" d=" M 796.34 221.21 C 824.35 232.73 851.16 247.12 876.54 263.64 C 876.89 264.98 877.26 266.32 877.62 267.67 C 851.72 250.04 823.64 235.76 794.82 223.56 C 795.20 222.97 795.96 221.79 796.34 221.21 Z" />
</g>
<g id="#ffca7eff">
<path fill="#ffca7e" opacity="1.00" d=" M 462.50 229.83 C 468.81 227.30 475.19 224.92 481.65 222.79 C 484.42 226.61 486.85 230.67 489.58 234.53 C 494.96 241.18 499.36 248.55 504.78 255.19 C 512.12 265.81 519.20 276.63 527.27 286.73 C 532.74 293.67 537.25 301.32 542.77 308.23 C 552.95 323.26 564.07 337.61 574.16 352.71 C 577.22 357.27 581.16 361.18 584.04 365.87 C 585.94 368.93 587.90 371.97 590.18 374.78 C 594.89 380.37 598.41 386.85 603.37 392.25 C 597.15 394.79 591.01 397.54 585.05 400.66 C 573.92 386.42 564.25 371.11 553.32 356.71 C 541.12 339.58 528.65 322.64 516.58 305.42 C 510.45 298.03 505.81 289.57 499.84 282.06 C 496.99 278.57 494.76 274.63 491.93 271.13 C 487.94 266.33 484.99 260.79 481.01 255.98 C 475.05 247.11 468.41 238.74 462.50 229.83 Z" />
</g>
<g id="#ffae7dff">
<path fill="#ffae7d" opacity="1.00" d=" M 432.80 242.90 C 442.53 238.18 452.39 233.68 462.50 229.83 C 468.41 238.74 475.05 247.11 481.01 255.98 C 484.99 260.79 487.94 266.33 491.93 271.13 C 494.76 274.63 496.99 278.57 499.84 282.06 C 505.81 289.57 510.45 298.03 516.58 305.42 C 528.65 322.64 541.12 339.58 553.32 356.71 C 564.25 371.11 573.92 386.42 585.05 400.66 C 575.79 405.54 566.85 411.05 558.45 417.30 C 555.43 412.49 551.68 408.23 548.33 403.66 C 539.74 390.44 529.78 378.21 521.08 365.07 C 512.98 354.38 505.52 343.24 497.68 332.37 C 491.22 324.03 485.03 315.49 479.36 306.61 C 470.96 295.61 463.34 284.06 455.06 272.98 C 450.86 268.29 448.46 262.35 444.31 257.64 C 440.42 252.76 437.38 247.22 432.80 242.90 Z" />
</g>
<g id="#ff937bff">
<path fill="#ff937b" opacity="1.00" d=" M 419.07 249.91 C 423.61 247.50 428.12 245.04 432.80 242.90 C 437.38 247.22 440.42 252.76 444.31 257.64 C 448.46 262.35 450.86 268.29 455.06 272.98 C 463.34 284.06 470.96 295.61 479.36 306.61 C 485.03 315.49 491.22 324.03 497.68 332.37 C 505.52 343.24 512.98 354.38 521.08 365.07 C 529.78 378.21 539.74 390.44 548.33 403.66 C 551.68 408.23 555.43 412.49 558.45 417.30 C 553.88 420.79 549.34 424.36 545.04 428.19 C 543.28 422.74 539.09 418.70 535.96 414.06 C 531.24 407.42 526.48 400.82 521.99 394.02 C 516.72 387.24 511.48 380.41 506.72 373.26 C 502.99 366.25 497.36 360.58 492.92 354.05 C 487.25 345.50 481.25 337.16 475.06 328.99 C 471.91 323.27 467.16 318.69 463.84 313.09 C 462.57 311.07 461.09 309.20 459.61 307.34 C 455.98 302.86 453.55 297.54 449.81 293.14 C 445.40 288.11 442.36 282.08 438.05 276.97 C 435.13 273.49 432.17 269.99 430.07 265.92 C 427.05 260.13 421.70 255.95 419.07 249.91 Z" />
</g>
<g id="#fe7e7bff">
<path fill="#fe7e7b" opacity="1.00" d=" M 380.78 273.15 C 393.13 264.74 405.84 256.85 419.07 249.91 C 421.70 255.95 427.05 260.13 430.07 265.92 C 432.17 269.99 435.13 273.49 438.05 276.97 C 442.36 282.08 445.40 288.11 449.81 293.14 C 453.55 297.54 455.98 302.86 459.61 307.34 C 461.09 309.20 462.57 311.07 463.84 313.09 C 467.16 318.69 471.91 323.27 475.06 328.99 C 481.25 337.16 487.25 345.50 492.92 354.05 C 497.36 360.58 502.99 366.25 506.72 373.26 C 511.48 380.41 516.72 387.24 521.99 394.02 C 526.48 400.82 531.24 407.42 535.96 414.06 C 539.09 418.70 543.28 422.74 545.04 428.19 C 533.84 438.33 523.54 449.53 514.97 461.99 C 502.87 444.83 490.19 428.07 478.39 410.70 C 475.81 406.35 472.05 402.85 469.61 398.43 C 467.76 395.02 465.07 392.23 462.71 389.21 C 456.87 380.46 450.52 372.06 444.50 363.43 C 441.19 359.34 438.98 354.51 435.65 350.45 C 432.34 346.36 429.02 342.26 426.25 337.77 C 421.41 329.82 415.21 322.83 409.92 315.20 C 403.32 304.59 395.45 294.86 388.27 284.65 C 385.36 281.10 382.44 277.48 380.78 273.15 Z" />
</g>
<g id="#bfbfbfff">
<path fill="#bfbfbf" opacity="1.00" d=" M 304.37 307.87 C 325.99 286.75 349.83 267.89 375.45 251.85 C 376.32 253.10 377.19 254.34 378.07 255.59 C 352.87 271.78 329.12 290.33 307.93 311.52 C 306.74 310.30 305.55 309.08 304.37 307.87 Z" />
</g>
<g id="#848484ff">
<path fill="#848484" opacity="1.00" d=" M 876.54 263.64 C 893.95 274.94 910.54 287.50 926.37 300.93 C 926.25 301.74 925.99 303.34 925.87 304.15 C 921.03 300.68 916.65 296.62 911.93 293.01 C 900.89 284.02 889.07 276.10 877.62 267.67 C 877.26 266.32 876.89 264.98 876.54 263.64 Z" />
</g>
<g id="#f58894ff">
<path fill="#f58894" opacity="1.00" d=" M 365.06 284.55 C 370.14 280.54 375.47 276.86 380.78 273.15 C 382.44 277.48 385.36 281.10 388.27 284.65 C 395.45 294.86 403.32 304.59 409.92 315.20 C 415.21 322.83 421.41 329.82 426.25 337.77 C 429.02 342.26 432.34 346.36 435.65 350.45 C 438.98 354.51 441.19 359.34 444.50 363.43 C 450.52 372.06 456.87 380.46 462.71 389.21 C 465.07 392.23 467.76 395.02 469.61 398.43 C 472.05 402.85 475.81 406.35 478.39 410.70 C 490.19 428.07 502.87 444.83 514.97 461.99 C 511.11 467.28 507.80 472.93 504.45 478.55 C 499.18 472.67 495.17 465.85 490.63 459.43 C 486.85 455.42 484.49 450.36 480.85 446.25 C 478.30 443.21 476.61 439.56 474.06 436.52 C 467.42 428.15 462.19 418.77 455.56 410.39 C 453.35 407.59 451.39 404.61 449.48 401.60 C 446.93 397.49 443.34 394.15 440.76 390.06 C 435.83 382.44 430.05 375.41 425.16 367.77 C 420.87 361.19 415.81 355.18 411.22 348.82 C 400.31 332.52 388.50 316.86 377.19 300.83 C 372.91 295.58 369.62 289.59 365.06 284.55 Z" />
</g>
<g id="#ef95a7ff">
<path fill="#ef95a7" opacity="1.00" d=" M 354.78 292.53 C 358.16 289.82 361.55 287.11 365.06 284.55 C 369.62 289.59 372.91 295.58 377.19 300.83 C 388.50 316.86 400.31 332.52 411.22 348.82 C 415.81 355.18 420.87 361.19 425.16 367.77 C 430.05 375.41 435.83 382.44 440.76 390.06 C 443.34 394.15 446.93 397.49 449.48 401.60 C 451.39 404.61 453.35 407.59 455.56 410.39 C 462.19 418.77 467.42 428.15 474.06 436.52 C 476.61 439.56 478.30 443.21 480.85 446.25 C 484.49 450.36 486.85 455.42 490.63 459.43 C 495.17 465.85 499.18 472.67 504.45 478.55 C 501.91 483.10 499.65 487.81 497.34 492.48 C 490.32 484.42 484.93 475.11 478.15 466.87 C 475.85 462.36 472.69 458.45 469.41 454.64 C 464.46 446.65 458.37 439.46 453.44 431.46 C 449.34 427.41 447.21 421.95 443.37 417.71 C 440.82 414.78 438.72 411.51 436.72 408.19 C 434.14 403.90 430.84 400.12 427.78 396.19 C 425.24 393.00 423.43 389.31 421.02 386.04 C 412.09 374.48 404.18 362.18 395.52 350.42 C 388.76 340.35 381.19 330.86 374.19 320.96 C 368.08 311.24 360.05 302.76 354.78 292.53 Z" />
</g>
<g id="#e8a1b9ff">
<path fill="#e8a1b9" opacity="1.00" d=" M 340.13 304.85 C 344.95 300.67 349.81 296.54 354.78 292.53 C 360.05 302.76 368.08 311.24 374.19 320.96 C 381.19 330.86 388.76 340.35 395.52 350.42 C 404.18 362.18 412.09 374.48 421.02 386.04 C 423.43 389.31 425.24 393.00 427.78 396.19 C 430.84 400.12 434.14 403.90 436.72 408.19 C 438.72 411.51 440.82 414.78 443.37 417.71 C 447.21 421.95 449.34 427.41 453.44 431.46 C 458.37 439.46 464.46 446.65 469.41 454.64 C 472.69 458.45 475.85 462.36 478.15 466.87 C 484.93 475.11 490.32 484.42 497.34 492.48 C 494.03 499.69 491.25 507.13 488.65 514.62 C 483.63 510.62 481.52 504.35 477.45 499.55 C 471.97 492.88 467.85 485.23 462.28 478.64 C 459.75 475.43 457.71 471.87 455.36 468.54 C 452.54 464.39 448.82 460.87 446.65 456.30 C 444.98 452.83 442.14 450.19 439.78 447.23 C 435.53 441.42 431.54 435.45 427.66 429.41 C 423.26 424.92 420.58 419.19 416.74 414.27 C 413.81 409.95 410.25 406.09 407.30 401.79 C 401.08 391.19 392.99 381.87 386.27 371.60 C 379.27 362.87 373.53 353.22 366.56 344.46 C 358.04 332.57 349.72 320.55 341.35 308.55 C 340.64 307.44 340.48 306.09 340.13 304.85 Z" />
</g>
<g id="#e1aed0ff">
<path fill="#e1aed0" opacity="1.00" d=" M 325.06 319.10 C 329.87 314.13 335.14 309.64 340.13 304.85 C 340.48 306.09 340.64 307.44 341.35 308.55 C 349.72 320.55 358.04 332.57 366.56 344.46 C 373.53 353.22 379.27 362.87 386.27 371.60 C 392.99 381.87 401.08 391.19 407.30 401.79 C 410.25 406.09 413.81 409.95 416.74 414.27 C 420.58 419.19 423.26 424.92 427.66 429.41 C 431.54 435.45 435.53 441.42 439.78 447.23 C 442.14 450.19 444.98 452.83 446.65 456.30 C 448.82 460.87 452.54 464.39 455.36 468.54 C 457.71 471.87 459.75 475.43 462.28 478.64 C 467.85 485.23 471.97 492.88 477.45 499.55 C 481.52 504.35 483.63 510.62 488.65 514.62 C 486.16 522.24 484.30 530.05 482.70 537.90 C 480.56 534.86 477.19 532.92 475.30 529.67 C 472.43 524.98 469.24 520.52 465.77 516.27 C 461.24 509.47 456.37 502.91 451.83 496.13 C 447.61 491.54 444.86 485.89 440.97 481.04 C 435.72 474.24 431.64 466.60 426.04 460.06 C 422.09 455.67 419.35 450.40 415.86 445.67 C 412.41 440.06 408.06 435.10 404.24 429.76 C 396.33 418.93 389.12 407.61 381.08 396.89 C 373.95 387.91 368.01 378.09 361.05 368.99 C 354.52 358.94 346.82 349.71 340.42 339.58 C 335.33 332.74 330.79 325.44 325.06 319.10 Z" />
</g>
<g id="#aeaeaeff">
<path fill="#aeaeae" opacity="1.00" d=" M 256.07 364.12 C 270.57 344.08 286.59 325.09 304.37 307.87 C 305.55 309.08 306.74 310.30 307.93 311.52 C 290.18 329.12 273.93 348.24 259.52 368.67 C 259.82 367.00 260.07 365.33 260.32 363.66 C 258.90 363.80 257.48 363.97 256.07 364.12 Z" />
</g>
<g id="#dabae6ff">
<path fill="#dabae6" opacity="1.00" d=" M 314.81 329.57 C 318.11 325.96 321.64 322.58 325.06 319.10 C 330.79 325.44 335.33 332.74 340.42 339.58 C 346.82 349.71 354.52 358.94 361.05 368.99 C 368.01 378.09 373.95 387.91 381.08 396.89 C 389.12 407.61 396.33 418.93 404.24 429.76 C 408.06 435.10 412.41 440.06 415.86 445.67 C 419.35 450.40 422.09 455.67 426.04 460.06 C 431.64 466.60 435.72 474.24 440.97 481.04 C 444.86 485.89 447.61 491.54 451.83 496.13 C 456.37 502.91 461.24 509.47 465.77 516.27 C 469.24 520.52 472.43 524.98 475.30 529.67 C 477.19 532.92 480.56 534.86 482.70 537.90 C 481.45 544.00 480.55 550.17 479.82 556.35 C 479.50 555.83 478.86 554.80 478.54 554.28 C 478.28 554.96 477.75 556.33 477.49 557.01 C 475.85 555.48 474.23 553.91 473.00 552.04 C 467.84 543.97 462.16 536.26 456.24 528.74 C 452.99 524.76 451.28 519.73 447.65 516.03 C 442.26 510.01 438.89 502.49 433.58 496.41 C 429.61 491.89 427.57 485.96 423.14 481.79 C 419.65 478.73 418.39 474.10 415.51 470.58 C 412.73 467.22 410.49 463.48 407.82 460.05 C 401.18 452.19 396.89 442.63 389.98 434.97 C 382.84 424.25 375.02 414.01 367.27 403.74 C 356.16 386.70 343.60 370.66 332.45 353.64 C 329.89 349.56 326.25 346.29 323.76 342.16 C 321.01 337.80 317.85 333.72 314.81 329.57 Z" />
</g>
<g id="#cdc9f9ff">
<path fill="#cdc9f9" opacity="1.00" d=" M 281.62 369.91 C 291.69 355.68 302.97 342.34 314.81 329.57 C 317.85 333.72 321.01 337.80 323.76 342.16 C 326.25 346.29 329.89 349.56 332.45 353.64 C 343.60 370.66 356.16 386.70 367.27 403.74 C 375.02 414.01 382.84 424.25 389.98 434.97 C 396.89 442.63 401.18 452.19 407.82 460.05 C 410.49 463.48 412.73 467.22 415.51 470.58 C 418.39 474.10 419.65 478.73 423.14 481.79 C 427.57 485.96 429.61 491.89 433.58 496.41 C 438.89 502.49 442.26 510.01 447.65 516.03 C 451.28 519.73 452.99 524.76 456.24 528.74 C 462.16 536.26 467.84 543.97 473.00 552.04 C 474.23 553.91 475.85 555.48 477.49 557.01 C 477.75 556.33 478.28 554.96 478.54 554.28 C 478.86 554.80 479.50 555.83 479.82 556.35 C 475.21 600.58 484.91 645.98 506.22 684.92 C 506.12 685.47 505.90 686.56 505.79 687.11 C 503.38 684.86 501.26 682.31 499.54 679.49 C 495.06 672.45 489.49 666.17 484.93 659.20 C 482.19 653.18 477.15 648.75 473.68 643.20 C 469.50 638.56 466.99 632.75 462.87 628.08 C 459.62 623.97 456.99 619.41 453.59 615.41 C 450.02 611.38 448.74 605.88 445.02 601.95 C 440.01 596.45 436.90 589.56 431.91 584.04 C 427.71 579.47 424.70 574.00 420.89 569.13 C 414.66 560.87 409.24 552.05 403.44 543.50 C 401.04 539.95 397.76 537.12 395.30 533.62 C 392.50 529.69 390.40 525.33 387.69 521.34 C 384.59 516.51 380.36 512.51 377.46 507.54 C 373.69 501.13 368.55 495.69 364.65 489.36 C 352.71 473.22 341.19 456.76 329.87 440.15 C 326.51 435.81 323.82 430.98 320.15 426.88 C 314.04 418.85 308.69 410.27 302.94 401.98 C 299.62 397.30 295.83 392.97 292.81 388.08 C 289.72 382.98 285.26 378.87 282.18 373.76 C 281.42 372.63 281.65 371.19 281.62 369.91 Z" />
<path fill="#cdc9f9" opacity="1.00" d=" M 663.19 675.37 C 672.49 680.55 682.57 684.32 692.94 686.72 C 695.80 691.44 698.97 695.97 702.46 700.24 C 713.63 716.14 724.84 731.99 736.37 747.62 C 744.17 759.30 753.07 770.21 760.50 782.14 C 752.56 784.32 744.36 785.65 736.20 786.60 C 733.78 786.44 731.39 786.18 728.99 785.94 C 729.80 785.43 730.62 784.92 731.45 784.42 C 726.05 776.58 720.11 769.14 714.92 761.17 C 708.83 754.65 705.06 746.45 699.47 739.56 C 694.84 734.09 691.36 727.78 686.69 722.34 C 682.69 715.81 678.03 709.72 673.47 703.57 C 669.90 699.33 667.55 694.23 663.96 690.00 C 662.22 687.85 660.56 685.64 658.94 683.41 C 660.34 680.72 661.76 678.04 663.19 675.37 Z" />
</g>
<g id="#a2a2a2ff">
<path fill="#a2a2a2" opacity="1.00" d=" M 256.07 364.12 C 257.48 363.97 258.90 363.80 260.32 363.66 C 260.07 365.33 259.82 367.00 259.52 368.67 C 252.83 378.25 246.60 388.13 240.55 398.12 C 239.94 395.51 241.39 393.26 242.62 391.10 C 241.87 389.95 241.13 388.80 240.39 387.66 C 245.37 379.65 250.64 371.82 256.07 364.12 Z" />
</g>
<g id="#c5c7eeff">
<path fill="#c5c7ee" opacity="1.00" d=" M 257.22 408.56 C 264.29 395.06 272.67 382.23 281.62 369.91 C 281.65 371.19 281.42 372.63 282.18 373.76 C 285.26 378.87 289.72 382.98 292.81 388.08 C 295.83 392.97 299.62 397.30 302.94 401.98 C 308.69 410.27 314.04 418.85 320.15 426.88 C 323.82 430.98 326.51 435.81 329.87 440.15 C 341.19 456.76 352.71 473.22 364.65 489.36 C 368.55 495.69 373.69 501.13 377.46 507.54 C 380.36 512.51 384.59 516.51 387.69 521.34 C 390.40 525.33 392.50 529.69 395.30 533.62 C 397.76 537.12 401.04 539.95 403.44 543.50 C 409.24 552.05 414.66 560.87 420.89 569.13 C 424.70 574.00 427.71 579.47 431.91 584.04 C 436.90 589.56 440.01 596.45 445.02 601.95 C 448.74 605.88 450.02 611.38 453.59 615.41 C 456.99 619.41 459.62 623.97 462.87 628.08 C 466.99 632.75 469.50 638.56 473.68 643.20 C 477.15 648.75 482.19 653.18 484.93 659.20 C 489.49 666.17 495.06 672.45 499.54 679.49 C 501.26 682.31 503.38 684.86 505.79 687.11 C 505.90 686.56 506.12 685.47 506.22 684.92 C 508.00 688.12 509.76 691.33 511.74 694.42 C 501.72 699.58 492.14 705.53 482.24 710.93 C 478.63 706.05 474.11 701.80 471.79 696.08 C 468.45 692.36 465.47 688.37 462.94 684.05 C 457.94 677.63 454.20 670.28 448.56 664.36 C 445.65 661.41 444.46 657.32 441.93 654.10 C 439.60 651.07 437.24 648.05 435.19 644.82 C 431.39 638.79 426.06 633.87 422.59 627.62 C 420.45 623.81 417.47 620.59 414.97 617.03 C 410.36 610.89 406.94 603.96 402.18 597.93 C 398.59 593.17 395.45 588.08 391.34 583.74 C 388.06 580.14 386.24 575.55 383.29 571.72 C 374.45 560.77 367.59 548.37 358.57 537.56 C 352.66 529.68 347.67 521.15 341.58 513.42 C 337.47 508.10 334.65 501.87 330.00 496.96 C 327.69 494.48 326.29 491.36 324.52 488.51 C 319.49 480.98 313.44 474.19 308.31 466.75 C 305.28 460.94 301.02 455.96 297.52 450.46 C 291.35 443.75 287.26 435.51 281.56 428.44 C 277.60 423.53 274.60 417.95 270.79 412.96 C 267.63 409.71 265.63 405.60 262.72 402.17 C 261.11 404.44 260.12 407.63 257.22 408.56 Z" />
</g>
<g id="#979797ff">
<path fill="#979797" opacity="1.00" d=" M 212.25 441.43 C 220.41 422.90 229.74 404.88 240.39 387.66 C 241.13 388.80 241.87 389.95 242.62 391.10 C 241.39 393.26 239.94 395.51 240.55 398.12 C 237.65 403.60 234.67 409.03 231.62 414.43 C 221.51 433.64 213.00 453.67 205.84 474.16 C 204.46 469.80 207.39 465.85 208.59 461.83 C 210.64 455.26 213.80 449.10 215.77 442.50 C 215.06 442.29 213.63 441.85 212.92 441.64 L 212.25 441.43 Z" />
</g>
<g id="#dcfdfeff">
<path fill="#dcfdfe" opacity="1.00" d=" M 656.64 395.59 C 662.59 394.80 668.56 394.06 674.56 393.79 C 678.99 403.12 686.58 410.34 692.11 418.96 C 697.59 427.39 703.91 435.23 709.57 443.54 C 715.96 453.04 723.16 461.96 729.63 471.41 C 731.68 474.43 735.44 477.13 734.37 481.27 C 727.55 479.46 720.68 477.67 713.64 477.04 C 713.47 475.99 713.55 474.88 713.11 473.90 C 702.60 459.70 692.56 445.12 682.21 430.79 C 673.35 419.29 665.48 407.09 656.64 395.59 Z" />
</g>
<g id="#e4ffd8ff">
<path fill="#e4ffd8" opacity="1.00" d=" M 645.84 397.50 C 649.42 396.78 653.02 396.10 656.64 395.59 C 665.48 407.09 673.35 419.29 682.21 430.79 C 692.56 445.12 702.60 459.70 713.11 473.90 C 713.55 474.88 713.47 475.99 713.64 477.04 C 709.56 476.78 705.48 476.38 701.40 476.39 C 698.03 469.21 692.53 463.40 688.04 456.95 C 678.01 442.67 667.62 428.65 657.64 414.35 C 653.32 409.01 649.41 403.36 645.84 397.50 Z" />
<path fill="#e4ffd8" opacity="1.00" d=" M 813.67 616.87 C 815.56 617.64 817.22 618.87 818.38 620.59 C 832.33 640.57 847.02 660.04 860.91 680.07 C 864.93 686.16 870.38 691.34 873.00 698.29 C 871.36 700.98 869.68 703.63 868.00 706.29 C 860.78 696.11 853.66 685.87 845.99 676.02 C 838.51 664.91 830.26 654.35 822.78 643.24 C 818.53 637.80 814.77 632.01 810.50 626.59 C 811.70 623.39 812.71 620.14 813.67 616.87 Z" />
</g>
<g id="#f1ffafff">
<path fill="#f1ffaf" opacity="1.00" d=" M 635.58 399.91 C 638.97 399.01 642.39 398.21 645.84 397.50 C 649.41 403.36 653.32 409.01 657.64 414.35 C 667.62 428.65 678.01 442.67 688.04 456.95 C 692.53 463.40 698.03 469.21 701.40 476.39 C 697.70 476.48 694.02 476.72 690.35 477.09 C 681.10 462.45 669.89 449.17 660.42 434.67 C 655.81 427.38 650.05 420.93 645.29 413.75 C 642.04 409.14 638.33 404.85 635.58 399.91 Z" />
</g>
<g id="#fcff8fff">
<path fill="#fcff8f" opacity="1.00" d=" M 622.59 403.81 C 626.90 402.46 631.21 401.09 635.58 399.91 C 638.33 404.85 642.04 409.14 645.29 413.75 C 650.05 420.93 655.81 427.38 660.42 434.67 C 669.89 449.17 681.10 462.45 690.35 477.09 C 686.82 477.45 683.32 478.04 679.87 478.80 C 674.63 471.81 669.07 465.04 664.46 457.60 C 655.49 446.09 647.59 433.79 638.79 422.15 C 635.18 417.39 631.83 412.46 628.39 407.60 C 627.08 405.54 624.67 404.79 622.59 403.81 Z" />
</g>
<g id="#bfc1dcff">
<path fill="#bfc1dc" opacity="1.00" d=" M 262.72 402.17 C 265.63 405.60 267.63 409.71 270.79 412.96 C 274.60 417.95 277.60 423.53 281.56 428.44 C 287.26 435.51 291.35 443.75 297.52 450.46 C 301.02 455.96 305.28 460.94 308.31 466.75 C 313.44 474.19 319.49 480.98 324.52 488.51 C 326.29 491.36 327.69 494.48 330.00 496.96 C 334.65 501.87 337.47 508.10 341.58 513.42 C 347.67 521.15 352.66 529.68 358.57 537.56 C 367.59 548.37 374.45 560.77 383.29 571.72 C 386.24 575.55 388.06 580.14 391.34 583.74 C 395.45 588.08 398.59 593.17 402.18 597.93 C 406.94 603.96 410.36 610.89 414.97 617.03 C 417.47 620.59 420.45 623.81 422.59 627.62 C 426.06 633.87 431.39 638.79 435.19 644.82 C 437.24 648.05 439.60 651.07 441.93 654.10 C 444.46 657.32 445.65 661.41 448.56 664.36 C 454.20 670.28 457.94 677.63 462.94 684.05 C 465.47 688.37 468.45 692.36 471.79 696.08 C 474.11 701.80 478.63 706.05 482.24 710.93 C 474.45 715.24 466.80 719.78 459.00 724.08 C 453.61 720.43 452.38 713.55 447.81 709.16 C 443.39 704.68 441.30 698.56 437.10 693.92 C 433.48 689.72 430.67 684.93 427.47 680.43 C 425.07 676.90 422.15 673.75 419.93 670.10 C 417.03 665.03 412.68 661.00 410.06 655.75 C 405.97 650.77 403.13 644.93 398.98 640.00 C 390.17 629.24 382.47 617.66 375.20 605.84 C 370.22 599.10 365.34 592.30 360.47 585.49 C 355.82 580.34 351.68 574.77 348.08 568.84 C 341.12 559.69 335.32 549.71 328.38 540.56 C 324.48 535.98 321.73 530.61 318.20 525.78 C 315.57 522.19 313.73 517.95 310.12 515.18 C 305.13 509.55 302.18 502.44 297.42 496.63 C 294.47 492.86 292.11 488.66 288.85 485.14 C 284.96 480.82 282.99 475.19 279.16 470.84 C 273.81 464.99 270.54 457.63 265.40 451.61 C 261.55 447.27 259.15 441.92 255.54 437.42 C 252.79 434.04 250.91 429.73 246.79 427.75 C 250.11 421.37 253.30 414.91 256.92 408.70 L 257.22 408.56 C 260.12 407.63 261.11 404.44 262.72 402.17 Z" />
</g>
<g id="#ffed80ff">
<path fill="#ffed80" opacity="1.00" d=" M 611.69 408.00 C 615.30 406.55 618.94 405.17 622.59 403.81 C 624.67 404.79 627.08 405.54 628.39 407.60 C 631.83 412.46 635.18 417.39 638.79 422.15 C 647.59 433.79 655.49 446.09 664.46 457.60 C 669.07 465.04 674.63 471.81 679.87 478.80 C 674.59 479.99 669.35 481.42 664.32 483.43 C 661.93 477.36 657.57 472.42 653.90 467.12 C 639.77 447.46 625.53 427.87 611.69 408.00 Z" />
</g>
<g id="#4b4b4bff">
<path fill="#4b4b4b" opacity="1.00" d=" M 1017.08 403.43 C 1052.57 456.78 1076.98 517.47 1088.31 580.51 C 1089.87 591.64 1091.40 602.78 1092.96 613.91 C 1098.21 664.53 1094.74 716.11 1082.42 765.52 C 1063.26 843.54 1021.37 915.83 962.99 971.05 C 917.74 1014.20 862.77 1046.92 803.53 1066.83 C 790.87 1071.12 778.03 1075.00 764.95 1077.78 C 749.92 1081.92 734.40 1084.25 719.04 1086.56 C 706.72 1087.81 694.47 1089.69 682.07 1089.65 C 673.09 1090.81 664.01 1090.45 654.98 1090.52 C 648.99 1090.37 642.97 1090.72 637.03 1089.81 C 631.68 1089.33 626.29 1089.61 620.94 1089.15 C 602.19 1087.20 583.46 1084.82 564.95 1081.09 C 543.95 1076.77 523.26 1071.00 502.96 1064.12 C 459.79 1049.05 418.69 1028.05 381.31 1001.70 C 325.34 962.25 277.58 911.07 242.61 852.15 C 244.45 851.19 246.29 850.24 248.14 849.30 C 288.82 917.26 346.46 974.94 414.33 1015.75 C 485.75 1058.91 568.55 1083.80 652.14 1084.76 C 657.31 1085.13 662.50 1085.37 667.67 1084.80 C 682.14 1084.29 696.70 1084.16 711.01 1081.73 C 719.79 1081.43 728.55 1080.35 737.08 1078.21 C 743.46 1076.59 750.13 1076.51 756.41 1074.47 C 764.58 1073.04 772.50 1070.54 780.58 1068.71 C 790.66 1065.25 801.04 1062.77 811.02 1059.01 C 821.33 1055.27 831.60 1051.32 841.56 1046.71 C 848.48 1043.14 855.84 1040.50 862.59 1036.59 C 903.90 1015.44 941.64 987.37 973.91 954.02 C 1022.56 903.84 1058.11 841.19 1076.64 773.82 C 1090.26 724.89 1094.89 673.55 1090.87 622.95 C 1084.80 545.86 1058.52 470.64 1016.31 405.94 C 1016.50 405.31 1016.89 404.05 1017.08 403.43 Z" />
<path fill="#4b4b4b" opacity="1.00" d=" M 679.64 511.49 C 689.62 507.91 700.35 505.69 710.98 506.90 C 722.55 507.00 733.69 510.97 743.95 516.06 C 758.51 524.01 771.17 536.21 778.15 551.40 C 777.27 552.08 776.41 552.78 775.55 553.48 C 769.08 540.68 759.17 529.60 746.93 522.08 C 730.79 511.86 710.64 507.91 691.92 512.08 C 674.68 515.78 659.00 526.73 650.10 542.03 C 638.43 561.38 638.18 586.37 647.69 606.63 C 646.76 607.57 645.84 608.51 644.92 609.46 C 635.71 590.84 633.79 568.22 641.85 548.86 C 648.38 531.79 662.68 518.06 679.64 511.49 Z" />
</g>
<g id="#ffcd7eff">
<path fill="#ffcd7e" opacity="1.00" d=" M 600.87 412.93 C 604.44 411.21 608.01 409.47 611.69 408.00 C 625.53 427.87 639.77 447.46 653.90 467.12 C 657.57 472.42 661.93 477.36 664.32 483.43 C 660.75 484.89 657.21 486.45 653.81 488.28 C 653.03 483.52 649.23 480.25 646.63 476.45 C 638.64 465.40 631.09 454.03 622.91 443.12 C 618.54 437.71 614.66 431.94 610.87 426.12 C 607.59 421.68 604.03 417.46 600.87 412.93 Z" />
</g>
<g id="#ffb27eff">
<path fill="#ffb27e" opacity="1.00" d=" M 589.62 418.96 C 593.31 416.84 597.04 414.79 600.87 412.93 C 604.03 417.46 607.59 421.68 610.87 426.12 C 614.66 431.94 618.54 437.71 622.91 443.12 C 631.09 454.03 638.64 465.40 646.63 476.45 C 649.23 480.25 653.03 483.52 653.81 488.28 C 650.42 490.12 647.10 492.08 643.94 494.28 C 639.98 488.24 635.50 482.58 631.32 476.69 C 625.14 469.38 620.83 460.72 614.63 453.43 C 611.00 449.22 608.40 444.29 605.17 439.80 C 599.73 433.04 595.13 425.66 589.62 418.96 Z" />
</g>
<g id="#ff917bff">
<path fill="#ff917b" opacity="1.00" d=" M 576.78 427.18 C 580.95 424.28 585.24 421.53 589.62 418.96 C 595.13 425.66 599.73 433.04 605.17 439.80 C 608.40 444.29 611.00 449.22 614.63 453.43 C 620.83 460.72 625.14 469.38 631.32 476.69 C 635.50 482.58 639.98 488.24 643.94 494.28 C 640.05 497.02 636.37 500.05 632.89 503.29 C 627.94 498.35 624.03 492.57 620.33 486.69 C 614.27 481.13 611.27 473.22 606.01 467.00 C 603.26 463.66 601.29 459.76 598.57 456.40 C 590.76 447.07 584.56 436.53 576.78 427.18 Z" />
</g>
<g id="#fd7d7dff">
<path fill="#fd7d7d" opacity="1.00" d=" M 563.01 437.91 C 567.37 434.06 572.06 430.58 576.78 427.18 C 584.56 436.53 590.76 447.07 598.57 456.40 C 601.29 459.76 603.26 463.66 606.01 467.00 C 611.27 473.22 614.27 481.13 620.33 486.69 C 624.03 492.57 627.94 498.35 632.89 503.29 C 628.29 507.58 624.14 512.34 620.52 517.49 C 615.38 512.41 611.95 505.98 607.66 500.25 C 602.33 494.08 598.50 486.82 593.37 480.51 C 589.05 474.20 584.27 468.23 580.17 461.77 C 574.42 453.84 568.53 446.01 563.01 437.91 Z" />
</g>
<g id="#babbcaff">
<path fill="#babbca" opacity="1.00" d=" M 232.55 460.19 C 236.99 449.24 241.63 438.38 246.79 427.75 C 250.91 429.73 252.79 434.04 255.54 437.42 C 259.15 441.92 261.55 447.27 265.40 451.61 C 270.54 457.63 273.81 464.99 279.16 470.84 C 282.99 475.19 284.96 480.82 288.85 485.14 C 292.11 488.66 294.47 492.86 297.42 496.63 C 302.18 502.44 305.13 509.55 310.12 515.18 C 313.73 517.95 315.57 522.19 318.20 525.78 C 321.73 530.61 324.48 535.98 328.38 540.56 C 335.32 549.71 341.12 559.69 348.08 568.84 C 351.68 574.77 355.82 580.34 360.47 585.49 C 365.34 592.30 370.22 599.10 375.20 605.84 C 382.47 617.66 390.17 629.24 398.98 640.00 C 403.13 644.93 405.97 650.77 410.06 655.75 C 412.68 661.00 417.03 665.03 419.93 670.10 C 422.15 673.75 425.07 676.90 427.47 680.43 C 430.67 684.93 433.48 689.72 437.10 693.92 C 441.30 698.56 443.39 704.68 447.81 709.16 C 452.38 713.55 453.61 720.43 459.00 724.08 C 449.61 729.32 440.30 734.74 430.92 740.00 C 423.87 731.54 417.94 722.24 411.85 713.09 C 410.13 710.50 408.00 708.25 405.97 705.94 C 402.20 701.85 400.73 696.24 397.01 692.12 C 392.25 686.71 388.64 680.43 384.14 674.83 C 381.19 671.03 379.27 666.54 376.15 662.87 C 371.73 657.79 369.08 651.47 364.51 646.51 C 356.03 634.67 346.84 623.33 339.11 610.96 C 334.53 603.31 328.93 596.35 324.11 588.86 C 321.27 584.46 317.31 580.90 314.68 576.35 C 310.38 569.14 304.54 563.06 300.08 555.98 C 296.17 550.63 293.57 544.39 289.05 539.50 C 281.57 532.42 278.18 522.22 271.01 514.90 C 266.32 509.73 264.26 502.67 259.27 497.72 C 256.82 495.34 255.15 492.35 253.50 489.40 C 251.52 485.88 248.14 483.38 246.28 479.78 C 244.89 477.21 243.65 474.51 241.59 472.40 C 238.00 468.77 235.69 464.17 232.55 460.19 Z" />
</g>
<g id="#f38c9bff">
<path fill="#f38c9b" opacity="1.00" d=" M 554.33 445.80 C 557.11 443.04 560.10 440.52 563.01 437.91 C 568.53 446.01 574.42 453.84 580.17 461.77 C 584.27 468.23 589.05 474.20 593.37 480.51 C 598.50 486.82 602.33 494.08 607.66 500.25 C 611.95 505.98 615.38 512.41 620.52 517.49 C 617.97 521.19 615.57 525.00 613.48 528.98 C 609.52 520.84 603.12 514.32 598.27 506.76 C 589.81 494.90 581.36 483.02 572.91 471.15 C 566.60 462.77 560.98 453.92 554.33 445.80 Z" />
</g>
<g id="#838383ff">
<path fill="#838383" opacity="1.00" d=" M 212.08 441.39 L 212.92 441.64 C 213.63 441.85 215.06 442.29 215.77 442.50 C 213.80 449.10 210.64 455.26 208.59 461.83 C 207.39 465.85 204.46 469.80 205.84 474.16 C 204.52 479.84 202.42 485.30 200.82 490.91 C 197.08 502.65 194.34 514.68 191.70 526.70 C 189.18 533.44 190.94 541.26 187.11 547.53 C 187.05 544.68 187.15 541.82 187.67 539.01 C 189.28 530.01 191.08 521.05 192.72 512.06 C 191.28 512.30 189.84 512.54 188.40 512.80 C 194.19 488.35 202.40 464.55 212.08 441.39 Z" />
</g>
<g id="#e9a0b7ff">
<path fill="#e9a0b7" opacity="1.00" d=" M 546.03 454.54 C 548.72 451.56 551.49 448.64 554.33 445.80 C 560.98 453.92 566.60 462.77 572.91 471.15 C 581.36 483.02 589.81 494.90 598.27 506.76 C 603.12 514.32 609.52 520.84 613.48 528.98 C 611.63 532.59 610.00 536.31 608.56 540.10 C 604.83 536.19 601.66 531.81 598.73 527.28 C 580.93 503.20 564.16 478.38 546.03 454.54 Z" />
</g>
<g id="#e0b0d4ff">
<path fill="#e0b0d4" opacity="1.00" d=" M 539.91 461.85 C 541.83 459.32 543.94 456.94 546.03 454.54 C 564.16 478.38 580.93 503.20 598.73 527.28 C 601.66 531.81 604.83 536.19 608.56 540.10 C 607.37 543.37 606.42 546.71 605.53 550.06 C 604.22 550.13 602.63 550.57 601.92 549.08 C 595.23 540.34 588.97 531.26 582.65 522.26 C 571.96 507.62 561.58 492.75 550.94 478.08 C 547.34 472.61 543.07 467.60 539.91 461.85 Z" />
</g>
<g id="#b5b5baff">
<path fill="#b5b5ba" opacity="1.00" d=" M 220.56 496.21 C 224.06 484.05 228.14 472.05 232.55 460.19 C 235.69 464.17 238.00 468.77 241.59 472.40 C 243.65 474.51 244.89 477.21 246.28 479.78 C 248.14 483.38 251.52 485.88 253.50 489.40 C 255.15 492.35 256.82 495.34 259.27 497.72 C 264.26 502.67 266.32 509.73 271.01 514.90 C 278.18 522.22 281.57 532.42 289.05 539.50 C 293.57 544.39 296.17 550.63 300.08 555.98 C 304.54 563.06 310.38 569.14 314.68 576.35 C 317.31 580.90 321.27 584.46 324.11 588.86 C 328.93 596.35 334.53 603.31 339.11 610.96 C 346.84 623.33 356.03 634.67 364.51 646.51 C 369.08 651.47 371.73 657.79 376.15 662.87 C 379.27 666.54 381.19 671.03 384.14 674.83 C 388.64 680.43 392.25 686.71 397.01 692.12 C 400.73 696.24 402.20 701.85 405.97 705.94 C 408.00 708.25 410.13 710.50 411.85 713.09 C 417.94 722.24 423.87 731.54 430.92 740.00 C 423.08 744.27 415.40 748.82 407.61 753.18 C 405.44 752.61 402.99 752.32 401.38 750.60 C 398.89 748.11 397.77 744.69 396.09 741.68 C 394.53 738.78 392.09 736.52 390.04 733.99 C 387.68 731.19 386.05 727.86 383.71 725.05 C 381.17 721.98 378.16 719.16 376.71 715.37 C 374.50 709.14 369.01 705.01 365.67 699.47 C 361.24 692.26 354.79 686.46 351.18 678.75 C 345.99 670.48 338.76 663.62 334.08 655.01 C 323.79 639.39 311.96 624.82 302.09 608.92 C 296.01 600.90 290.47 592.51 284.72 584.26 C 279.20 578.26 274.90 571.33 270.41 564.56 C 267.63 559.80 263.38 556.08 260.93 551.10 C 257.19 543.51 250.48 538.02 246.41 530.64 C 242.02 524.71 238.46 518.16 233.45 512.70 C 230.67 509.29 229.02 505.13 226.45 501.58 C 224.87 499.36 221.76 498.76 220.56 496.21 Z" />
</g>
<g id="#d7c1f0ff">
<path fill="#d7c1f0" opacity="1.00" d=" M 533.04 470.88 C 535.20 467.77 537.57 464.82 539.91 461.85 C 543.07 467.60 547.34 472.61 550.94 478.08 C 561.58 492.75 571.96 507.62 582.65 522.26 C 588.97 531.26 595.23 540.34 601.92 549.08 C 602.63 550.57 604.22 550.13 605.53 550.06 C 604.11 555.15 603.27 560.38 602.76 565.63 C 601.91 565.87 601.06 566.12 600.22 566.37 C 592.62 556.41 586.10 545.63 578.12 535.94 C 573.11 528.91 568.42 521.66 563.29 514.72 C 556.04 505.51 549.96 495.47 543.02 486.04 C 539.53 481.13 534.70 476.85 533.04 470.88 Z" />
</g>
<g id="#ccc9faff">
<path fill="#ccc9fa" opacity="1.00" d=" M 533.04 470.88 C 534.70 476.85 539.53 481.13 543.02 486.04 C 549.96 495.47 556.04 505.51 563.29 514.72 C 568.42 521.66 573.11 528.91 578.12 535.94 C 586.10 545.63 592.62 556.41 600.22 566.37 C 601.06 566.12 601.91 565.87 602.76 565.63 C 601.43 579.36 603.08 593.32 606.94 606.54 C 605.59 606.50 604.81 605.62 604.41 604.43 C 601.98 598.92 597.54 594.69 594.41 589.60 C 592.15 585.93 589.15 582.81 586.61 579.33 C 575.27 563.07 564.20 546.60 552.24 530.79 C 549.02 526.05 546.02 521.14 542.28 516.77 C 539.65 513.69 537.08 510.51 535.35 506.82 C 533.90 503.68 530.88 501.69 529.21 498.69 C 526.89 495.52 525.24 491.53 521.62 489.61 C 525.02 483.13 528.92 476.93 533.04 470.88 Z" />
</g>
<g id="#c3c5e9ff">
<path fill="#c3c5e9" opacity="1.00" d=" M 512.39 510.03 C 515.07 503.05 518.02 496.17 521.62 489.61 C 525.24 491.53 526.89 495.52 529.21 498.69 C 530.88 501.69 533.90 503.68 535.35 506.82 C 537.08 510.51 539.65 513.69 542.28 516.77 C 546.02 521.14 549.02 526.05 552.24 530.79 C 564.20 546.60 575.27 563.07 586.61 579.33 C 589.15 582.81 592.15 585.93 594.41 589.60 C 597.54 594.69 601.98 598.92 604.41 604.43 C 604.81 605.62 605.59 606.50 606.94 606.54 C 609.97 615.92 613.85 625.07 619.14 633.42 C 615.57 635.51 611.97 637.56 608.35 639.55 C 604.35 636.10 602.41 631.02 598.85 627.19 C 593.37 618.77 587.28 610.79 581.45 602.63 C 570.77 586.41 558.41 571.40 547.82 555.13 C 542.68 548.84 538.67 541.74 533.41 535.55 C 529.10 529.83 525.47 523.63 520.99 518.03 C 518.53 514.91 517.16 509.99 512.39 510.03 Z" />
<path fill="#c3c5e9" opacity="1.00" d=" M 630.73 649.25 C 635.22 654.56 640.32 659.36 645.79 663.66 C 642.89 667.18 640.08 670.77 637.19 674.30 C 632.14 668.44 627.70 662.03 623.40 655.58 C 625.90 653.54 628.35 651.43 630.73 649.25 Z" />
</g>
<g id="#b3b3b3ff">
<path fill="#b3b3b3" opacity="1.00" d=" M 205.03 597.02 C 206.20 562.96 211.26 529.01 220.56 496.21 C 221.76 498.76 224.87 499.36 226.45 501.58 C 229.02 505.13 230.67 509.29 233.45 512.70 C 238.46 518.16 242.02 524.71 246.41 530.64 C 250.48 538.02 257.19 543.51 260.93 551.10 C 263.38 556.08 267.63 559.80 270.41 564.56 C 274.90 571.33 279.20 578.26 284.72 584.26 C 290.47 592.51 296.01 600.90 302.09 608.92 C 311.96 624.82 323.79 639.39 334.08 655.01 C 338.76 663.62 345.99 670.48 351.18 678.75 C 354.79 686.46 361.24 692.26 365.67 699.47 C 369.01 705.01 374.50 709.14 376.71 715.37 C 378.16 719.16 381.17 721.98 383.71 725.05 C 386.05 727.86 387.68 731.19 390.04 733.99 C 392.09 736.52 394.53 738.78 396.09 741.68 C 397.77 744.69 398.89 748.11 401.38 750.60 C 402.99 752.32 405.44 752.61 407.61 753.18 C 361.29 779.35 315.01 805.59 268.71 831.77 C 267.58 832.27 267.03 833.36 266.38 834.33 C 265.62 832.57 264.79 830.85 263.82 829.21 C 223.62 759.09 202.56 677.89 205.03 597.02 Z" />
<path fill="#b3b3b3" opacity="1.00" d=" M 507.53 523.91 L 507.69 524.41 C 509.22 530.13 513.46 534.44 516.97 539.00 C 521.95 544.54 525.28 551.26 529.83 557.12 C 533.79 561.92 536.83 567.37 540.81 572.16 C 543.44 575.86 545.47 579.97 548.52 583.38 C 552.46 587.86 554.91 593.43 559.00 597.79 C 567.37 608.04 573.52 619.90 581.83 630.20 C 586.27 635.79 590.09 641.88 594.92 647.14 C 577.74 656.87 560.56 666.63 543.36 676.34 C 539.04 678.93 534.40 681.01 530.40 684.11 L 530.24 684.23 C 524.75 674.05 519.14 663.90 514.92 653.11 C 498.36 612.42 495.19 566.19 507.53 523.91 Z" />
<path fill="#b3b3b3" opacity="1.00" d=" M 552.68 714.54 C 569.42 701.04 585.69 686.95 602.29 673.28 C 606.47 682.02 612.77 689.47 618.57 697.18 C 610.99 706.40 603.50 715.69 595.99 724.96 C 591.38 730.78 586.32 736.26 582.14 742.40 C 571.60 733.90 561.87 724.47 552.68 714.54 Z" />
<path fill="#b3b3b3" opacity="1.00" d=" M 373.61 864.61 C 403.17 839.79 432.79 815.06 462.41 790.32 C 463.24 795.50 468.17 798.23 470.07 802.91 C 477.60 814.02 486.22 824.44 492.88 836.11 C 494.83 838.79 497.72 840.56 500.39 842.43 C 483.46 863.15 466.65 883.96 449.75 904.70 C 431.00 927.98 411.77 950.88 393.33 974.40 C 369.58 956.54 346.99 937.02 326.95 915.03 C 324.92 912.84 322.91 910.63 320.73 908.61 L 320.78 908.57 C 338.63 894.22 355.87 879.10 373.61 864.61 Z" />
<path fill="#b3b3b3" opacity="1.00" d=" M 478.03 1023.31 C 501.18 980.44 523.92 937.34 546.79 894.33 C 546.52 898.67 549.06 902.06 551.70 905.20 C 555.00 911.09 559.49 916.16 563.09 921.86 C 566.43 927.08 570.79 931.57 573.92 936.93 C 577.09 942.36 581.45 946.96 584.67 952.35 C 587.62 957.21 590.94 961.84 594.78 966.04 C 597.68 969.12 598.93 973.26 601.41 976.64 C 605.42 982.23 610.25 987.26 613.54 993.36 C 616.17 998.26 620.10 1002.25 623.24 1006.80 C 628.08 1013.92 633.99 1020.28 638.02 1027.94 C 642.42 1033.87 646.25 1040.21 651.05 1045.85 C 655.34 1051.88 660.57 1057.43 663.34 1064.39 C 651.68 1064.80 640.07 1063.56 628.45 1062.85 C 575.84 1058.50 524.17 1044.62 476.07 1022.98 C 476.56 1023.06 477.54 1023.22 478.03 1023.31 Z" />
</g>
<g id="#bbbdd0ff">
<path fill="#bbbdd0" opacity="1.00" d=" M 507.69 524.41 C 508.81 519.50 510.43 514.67 512.39 510.03 C 517.16 509.99 518.53 514.91 520.99 518.03 C 525.47 523.63 529.10 529.83 533.41 535.55 C 538.67 541.74 542.68 548.84 547.82 555.13 C 558.41 571.40 570.77 586.41 581.45 602.63 C 587.28 610.79 593.37 618.77 598.85 627.19 C 602.41 631.02 604.35 636.10 608.35 639.55 C 603.83 642.01 599.45 644.71 594.92 647.14 C 590.09 641.88 586.27 635.79 581.83 630.20 C 573.52 619.90 567.37 608.04 559.00 597.79 C 554.91 593.43 552.46 587.86 548.52 583.38 C 545.47 579.97 543.44 575.86 540.81 572.16 C 536.83 567.37 533.79 561.92 529.83 557.12 C 525.28 551.26 521.95 544.54 516.97 539.00 C 513.46 534.44 509.22 530.13 507.69 524.41 Z" />
<path fill="#bbbdd0" opacity="1.00" d=" M 479.06 776.35 C 484.15 772.09 489.24 767.82 494.34 763.56 C 498.99 771.49 504.96 778.55 509.59 786.48 C 511.06 788.58 513.28 790.04 514.68 792.20 C 515.99 794.25 517.13 796.42 518.65 798.34 C 521.60 801.98 523.22 806.69 527.30 809.35 C 522.98 814.49 518.85 819.80 514.60 825.01 C 511.50 825.84 508.17 824.44 507.14 821.26 C 505.94 817.38 502.09 815.36 500.40 811.80 C 498.53 807.75 495.20 804.66 493.03 800.79 C 488.49 794.70 484.37 788.31 479.68 782.33 C 478.05 780.65 478.82 778.35 479.06 776.35 Z" />
</g>
<g id="#5e5e5eff">
<path fill="#5e5e5e" opacity="1.00" d=" M 778.15 551.40 L 778.59 551.05 C 781.63 557.70 784.34 564.65 785.00 572.00 C 785.74 575.80 783.88 579.41 783.20 583.07 C 782.98 572.79 780.21 562.63 775.55 553.48 C 776.41 552.78 777.27 552.08 778.15 551.40 Z" />
</g>
<g id="#949494ff">
<path fill="#949494" opacity="1.00" d=" M 786.43 588.98 C 786.73 589.29 787.32 589.92 787.62 590.23 C 786.99 596.18 786.38 602.18 784.39 607.86 C 784.25 607.55 783.96 606.93 783.82 606.62 C 782.75 606.31 781.65 606.04 780.59 605.78 C 781.58 602.37 782.28 598.89 782.82 595.38 C 783.49 595.17 784.81 594.73 785.47 594.51 C 785.78 592.66 786.10 590.82 786.43 588.98 Z" />
</g>
<g id="#ddfdffff">
<path fill="#ddfdff" opacity="1.00" d=" M 817.15 591.79 C 818.08 591.34 819.03 590.90 819.98 590.47 C 833.87 609.77 847.33 629.33 861.57 648.36 C 868.72 658.43 875.78 668.55 882.93 678.62 C 879.94 685.33 876.70 691.94 873.00 698.29 C 870.38 691.34 864.93 686.16 860.91 680.07 C 847.02 660.04 832.33 640.57 818.38 620.59 C 817.22 618.87 815.56 617.64 813.67 616.87 C 815.86 608.69 816.88 600.24 817.15 591.79 Z" />
</g>
<g id="#e1fdffff">
<path fill="#e1fdff" opacity="1.00" d=" M 915.90 604.27 C 920.20 611.40 926.05 617.41 930.28 624.59 C 939.77 636.85 948.59 649.58 957.48 662.25 C 961.25 666.94 964.93 671.71 968.28 676.72 C 973.79 685.11 980.42 692.71 985.76 701.23 C 988.94 706.54 993.45 710.87 996.60 716.19 C 998.73 719.69 1001.21 722.96 1003.51 726.36 C 1006.53 730.94 1010.77 734.56 1013.58 739.30 C 1016.88 744.83 1021.15 749.68 1024.55 755.15 C 1026.51 758.46 1029.66 760.80 1031.80 763.97 C 1036.26 771.66 1041.40 778.97 1046.97 785.91 C 1049.97 790.00 1052.44 794.45 1055.15 798.75 C 1050.87 810.17 1046.11 821.41 1040.87 832.43 C 1037.88 827.72 1035.14 822.81 1031.45 818.59 C 1026.27 812.61 1022.02 805.92 1017.69 799.33 C 1011.88 792.03 1006.37 784.48 1001.36 776.62 C 992.14 763.84 983.05 750.96 973.65 738.32 C 966.51 728.49 959.92 718.24 952.02 709.00 C 947.34 703.47 944.44 696.71 939.66 691.28 C 933.79 684.65 930.01 676.50 924.09 669.91 C 918.49 663.64 915.49 655.46 909.36 649.62 C 912.17 636.51 913.29 623.12 913.73 609.74 C 914.57 607.96 915.31 606.14 915.90 604.27 Z" />
</g>
<g id="#a9a9a9ff">
<path fill="#a9a9a9" opacity="1.00" d=" M 780.59 605.78 C 781.65 606.04 782.75 606.31 783.82 606.62 C 783.96 606.93 784.25 607.55 784.39 607.86 C 783.12 611.95 781.62 616.04 779.45 619.74 C 777.78 619.91 776.09 619.92 774.41 619.94 C 776.98 615.46 779.09 610.72 780.59 605.78 Z" />
</g>
<g id="#5f5f5fff">
<path fill="#5f5f5f" opacity="1.00" d=" M 647.69 606.63 C 650.50 612.69 654.10 618.37 658.36 623.51 C 657.77 624.05 656.59 625.11 656.00 625.64 C 651.64 620.76 647.44 615.56 644.92 609.46 C 645.84 608.51 646.76 607.57 647.69 606.63 Z" />
</g>
<g id="#656565ff">
<path fill="#656565" opacity="1.00" d=" M 176.46 610.39 C 178.21 610.88 181.88 610.51 181.26 613.33 C 180.95 634.65 183.64 655.85 186.53 676.93 C 187.86 684.44 189.39 691.92 190.35 699.49 C 189.06 698.38 187.91 697.15 187.12 695.65 C 185.97 695.74 184.82 695.83 183.68 695.95 C 178.77 667.71 176.00 639.07 176.46 610.39 Z" />
</g>
<g id="#bdbdbdff">
<path fill="#bdbdbd" opacity="1.00" d=" M 774.41 619.94 C 776.09 619.92 777.78 619.91 779.45 619.74 C 777.55 623.35 775.32 626.78 772.83 630.01 C 770.94 630.01 769.06 629.97 767.19 629.89 C 769.86 626.77 772.30 623.46 774.41 619.94 Z" />
</g>
<g id="#f1ffb0ff">
<path fill="#f1ffb0" opacity="1.00" d=" M 805.72 637.28 C 807.50 633.80 809.07 630.22 810.50 626.59 C 814.77 632.01 818.53 637.80 822.78 643.24 C 830.26 654.35 838.51 664.91 845.99 676.02 C 853.66 685.87 860.78 696.11 868.00 706.29 C 866.01 709.35 863.92 712.35 861.71 715.26 C 854.34 703.46 845.55 692.64 837.86 681.06 C 830.06 671.42 823.63 660.78 815.97 651.04 C 812.46 646.51 809.63 641.49 805.72 637.28 Z" />
</g>
<g id="#929292ff">
<path fill="#929292" opacity="1.00" d=" M 674.22 638.15 C 678.90 641.44 684.00 644.13 689.29 646.32 C 687.64 647.12 686.00 647.93 684.30 648.63 C 679.85 647.44 675.81 644.35 671.90 641.81 C 672.67 640.58 673.44 639.36 674.22 638.15 Z" />
</g>
<g id="#fdfe8bff">
<path fill="#fdfe8b" opacity="1.00" d=" M 796.67 651.46 C 800.10 647.01 803.09 642.24 805.72 637.28 C 809.63 641.49 812.46 646.51 815.97 651.04 C 823.63 660.78 830.06 671.42 837.86 681.06 C 845.55 692.64 854.34 703.46 861.71 715.26 C 858.24 719.71 854.79 724.17 850.93 728.29 C 850.55 723.05 846.01 719.76 843.57 715.47 C 840.23 709.93 835.75 705.22 832.16 699.86 C 825.72 690.36 818.82 681.18 812.25 671.78 C 806.63 665.32 802.98 657.33 796.67 651.46 Z" />
</g>
<g id="#a4a4a4ff">
<path fill="#a4a4a4" opacity="1.00" d=" M 689.29 646.32 C 693.18 647.90 697.23 649.03 701.26 650.22 C 698.34 651.27 695.24 651.53 692.17 651.58 C 689.34 651.28 686.83 649.78 684.30 648.63 C 686.00 647.93 687.64 647.12 689.29 646.32 Z" />
</g>
<g id="#b7b7b7ff">
<path fill="#b7b7b7" opacity="1.00" d=" M 701.26 650.22 C 709.19 651.83 717.33 652.03 725.38 651.46 C 719.38 654.58 712.37 652.57 706.23 655.12 C 701.41 655.04 696.72 653.08 692.17 651.58 C 695.24 651.53 698.34 651.27 701.26 650.22 Z" />
</g>
<g id="#deffeaff">
<path fill="#deffea" opacity="1.00" d=" M 904.26 669.31 C 906.25 662.82 907.94 656.25 909.36 649.62 C 915.49 655.46 918.49 663.64 924.09 669.91 C 930.01 676.50 933.79 684.65 939.66 691.28 C 944.44 696.71 947.34 703.47 952.02 709.00 C 959.92 718.24 966.51 728.49 973.65 738.32 C 983.05 750.96 992.14 763.84 1001.36 776.62 C 1006.37 784.48 1011.88 792.03 1017.69 799.33 C 1022.02 805.92 1026.27 812.61 1031.45 818.59 C 1035.14 822.81 1037.88 827.72 1040.87 832.43 C 1038.61 837.21 1036.21 841.92 1033.78 846.61 C 1027.34 839.37 1022.48 830.97 1016.55 823.35 C 1012.88 817.44 1007.99 812.43 1004.39 806.47 C 997.20 795.79 989.02 785.81 982.02 774.99 C 977.22 769.05 972.90 762.77 968.49 756.55 C 964.63 750.78 959.94 745.61 956.36 739.66 C 948.24 728.42 940.04 717.26 932.16 705.86 C 926.27 698.60 921.42 690.62 915.83 683.15 C 912.18 678.39 909.30 672.78 904.26 669.31 Z" />
</g>
<g id="#ffe77fff">
<path fill="#ffe77f" opacity="1.00" d=" M 790.78 658.31 C 792.85 656.12 794.82 653.83 796.67 651.46 C 802.98 657.33 806.63 665.32 812.25 671.78 C 818.82 681.18 825.72 690.36 832.16 699.86 C 835.75 705.22 840.23 709.93 843.57 715.47 C 846.01 719.76 850.55 723.05 850.93 728.29 C 849.00 730.32 847.07 732.33 845.14 734.35 C 839.79 725.41 833.18 717.32 827.33 708.72 C 820.76 699.29 813.31 690.49 807.21 680.75 C 803.63 675.11 799.13 670.13 795.42 664.59 C 793.98 662.41 792.54 660.23 790.78 658.31 Z" />
</g>
<g id="#bec0daff">
<path fill="#bec0da" opacity="1.00" d=" M 617.31 660.66 C 619.34 658.96 621.36 657.26 623.40 655.58 C 627.70 662.03 632.14 668.44 637.19 674.30 C 635.27 676.66 633.33 679.02 631.39 681.38 C 628.17 677.29 625.51 672.79 622.20 668.77 C 620.18 666.32 618.67 663.51 617.31 660.66 Z" />
</g>
<g id="#ffd17eff">
<path fill="#ffd17e" opacity="1.00" d=" M 784.09 664.80 C 786.41 662.73 788.62 660.54 790.78 658.31 C 792.54 660.23 793.98 662.41 795.42 664.59 C 799.13 670.13 803.63 675.11 807.21 680.75 C 813.31 690.49 820.76 699.29 827.33 708.72 C 833.18 717.32 839.79 725.41 845.14 734.35 C 842.81 736.82 840.27 739.07 837.72 741.31 C 838.07 739.76 838.55 737.97 837.37 736.63 C 832.17 729.22 826.18 722.36 821.37 714.68 C 810.56 699.50 799.40 684.58 788.76 669.28 C 787.53 667.47 785.90 666.00 784.09 664.80 Z" />
</g>
<g id="#babccdff">
<path fill="#babccd" opacity="1.00" d=" M 610.00 666.79 C 612.43 664.74 614.87 662.70 617.31 660.66 C 618.67 663.51 620.18 666.32 622.20 668.77 C 625.51 672.79 628.17 677.29 631.39 681.38 C 629.37 683.84 627.36 686.31 625.36 688.78 C 620.32 681.39 615.46 673.88 610.00 666.79 Z" />
</g>
<g id="#ffb87eff">
<path fill="#ffb87e" opacity="1.00" d=" M 774.69 672.14 C 777.98 669.89 781.10 667.41 784.09 664.80 C 785.90 666.00 787.53 667.47 788.76 669.28 C 799.40 684.58 810.56 699.50 821.37 714.68 C 826.18 722.36 832.17 729.22 837.37 736.63 C 838.55 737.97 838.07 739.76 837.72 741.31 C 835.52 743.60 832.89 745.43 830.51 747.52 C 825.75 742.50 821.97 736.66 817.89 731.10 C 807.03 716.60 797.08 701.43 786.18 686.95 C 782.46 681.93 779.15 676.56 774.69 672.14 Z" />
</g>
<g id="#b7b7bfff">
<path fill="#b7b7bf" opacity="1.00" d=" M 602.29 673.28 C 604.85 671.10 607.42 668.95 610.00 666.79 C 615.46 673.88 620.32 681.39 625.36 688.78 C 623.08 691.57 620.85 694.39 618.57 697.18 C 612.77 689.47 606.47 682.02 602.29 673.28 Z" />
</g>
<g id="#e7ffcfff">
<path fill="#e7ffcf" opacity="1.00" d=" M 904.26 669.31 C 909.30 672.78 912.18 678.39 915.83 683.15 C 921.42 690.62 926.27 698.60 932.16 705.86 C 940.04 717.26 948.24 728.42 956.36 739.66 C 959.94 745.61 964.63 750.78 968.49 756.55 C 972.90 762.77 977.22 769.05 982.02 774.99 C 989.02 785.81 997.20 795.79 1004.39 806.47 C 1007.99 812.43 1012.88 817.44 1016.55 823.35 C 1022.48 830.97 1027.34 839.37 1033.78 846.61 C 1031.35 851.25 1028.77 855.82 1026.19 860.38 C 1020.43 851.99 1014.60 843.66 1008.38 835.62 C 1004.08 829.33 999.78 823.04 994.96 817.14 C 985.30 802.58 974.38 788.91 964.49 774.52 C 952.44 757.29 939.93 740.40 927.73 723.29 C 922.96 716.10 917.63 709.33 912.68 702.28 C 907.93 696.26 904.08 689.58 899.09 683.74 C 901.02 679.01 902.70 674.17 904.26 669.31 Z" />
</g>
<g id="#ff9d7bff">
<path fill="#ff9d7b" opacity="1.00" d=" M 765.61 677.63 C 768.72 675.95 771.75 674.10 774.69 672.14 C 779.15 676.56 782.46 681.93 786.18 686.95 C 797.08 701.43 807.03 716.60 817.89 731.10 C 821.97 736.66 825.75 742.50 830.51 747.52 C 827.49 749.99 824.30 752.23 821.16 754.52 C 802.59 728.93 784.52 702.98 765.61 677.63 Z" />
</g>
<g id="#ff7e7bff">
<path fill="#ff7e7b" opacity="1.00" d=" M 742.43 686.49 C 750.49 684.52 758.28 681.51 765.61 677.63 C 784.52 702.98 802.59 728.93 821.16 754.52 C 814.53 759.16 807.59 763.35 800.40 767.04 C 793.96 758.91 788.24 750.28 782.09 741.94 C 776.47 733.04 769.22 725.29 763.80 716.25 C 762.00 713.14 759.66 710.43 757.41 707.66 C 752.37 700.63 747.49 693.50 742.43 686.49 Z" />
</g>
<g id="#c3c5e7ff">
<path fill="#c3c5e7" opacity="1.00" d=" M 650.18 699.86 C 653.11 694.38 656.04 688.91 658.94 683.41 C 660.56 685.64 662.22 687.85 663.96 690.00 C 667.55 694.23 669.90 699.33 673.47 703.57 C 678.03 709.72 682.69 715.81 686.69 722.34 C 691.36 727.78 694.84 734.09 699.47 739.56 C 705.06 746.45 708.83 754.65 714.92 761.17 C 720.11 769.14 726.05 776.58 731.45 784.42 C 730.62 784.92 729.80 785.43 728.99 785.94 C 731.39 786.18 733.78 786.44 736.20 786.60 C 724.27 788.54 712.08 787.86 700.07 787.42 C 703.67 786.38 707.39 785.90 711.12 785.62 C 704.91 776.90 698.95 768.02 692.62 759.39 C 685.55 750.09 679.39 740.12 672.02 731.05 C 665.18 720.35 657.14 710.48 650.18 699.86 Z" />
</g>
<g id="#f0ffb1ff">
<path fill="#f0ffb1" opacity="1.00" d=" M 899.09 683.74 C 904.08 689.58 907.93 696.26 912.68 702.28 C 917.63 709.33 922.96 716.10 927.73 723.29 C 939.93 740.40 952.44 757.29 964.49 774.52 C 974.38 788.91 985.30 802.58 994.96 817.14 C 999.78 823.04 1004.08 829.33 1008.38 835.62 C 1014.60 843.66 1020.43 851.99 1026.19 860.38 C 1023.39 865.21 1020.48 869.98 1017.54 874.73 C 1014.96 869.73 1011.07 865.61 1008.15 860.84 C 1003.64 853.21 997.51 846.73 992.73 839.28 C 987.52 830.97 981.04 823.60 975.47 815.55 C 964.67 799.75 952.88 784.64 942.08 768.83 C 934.48 757.56 926.16 746.79 918.43 735.61 C 910.79 726.12 904.54 715.60 896.98 706.04 C 895.14 703.80 893.59 701.36 892.36 698.74 C 894.86 693.86 897.02 688.82 899.09 683.74 Z" />
</g>
<g id="#dcb9e3ff">
<path fill="#dcb9e3" opacity="1.00" d=" M 692.94 686.72 C 698.55 687.83 704.19 688.96 709.91 689.32 C 716.25 700.28 724.54 709.91 731.48 720.46 C 740.00 733.18 749.63 745.11 758.26 757.75 C 762.81 764.98 768.37 771.49 773.29 778.47 C 769.04 779.74 764.85 781.24 760.50 782.14 C 753.07 770.21 744.17 759.30 736.37 747.62 C 724.84 731.99 713.63 716.14 702.46 700.24 C 698.97 695.97 695.80 691.44 692.94 686.72 Z" />
</g>
<g id="#f68692ff">
<path fill="#f68692" opacity="1.00" d=" M 735.74 687.86 C 737.98 687.46 740.21 687.01 742.43 686.49 C 747.49 693.50 752.37 700.63 757.41 707.66 C 759.66 710.43 762.00 713.14 763.80 716.25 C 769.22 725.29 776.47 733.04 782.09 741.94 C 788.24 750.28 793.96 758.91 800.40 767.04 C 798.40 768.10 796.39 769.12 794.34 770.06 C 790.51 765.06 787.33 759.59 783.25 754.78 C 778.54 749.29 775.42 742.68 770.98 737.00 C 762.38 726.12 754.99 714.35 746.65 703.27 C 743.00 698.14 739.00 693.26 735.74 687.86 Z" />
</g>
<g id="#f094a5ff">
<path fill="#f094a5" opacity="1.00" d=" M 725.26 689.26 C 728.76 688.95 732.26 688.46 735.74 687.86 C 739.00 693.26 743.00 698.14 746.65 703.27 C 754.99 714.35 762.38 726.12 770.98 737.00 C 775.42 742.68 778.54 749.29 783.25 754.78 C 787.33 759.59 790.51 765.06 794.34 770.06 C 791.95 771.14 789.57 772.24 787.18 773.31 C 781.43 769.44 778.24 763.14 774.31 757.66 C 761.31 739.05 747.76 720.83 734.63 702.31 C 731.76 697.78 728.58 693.46 725.26 689.26 Z" />
</g>
<g id="#e6a5bfff">
<path fill="#e6a5bf" opacity="1.00" d=" M 709.91 689.32 C 715.02 689.46 720.15 689.59 725.26 689.26 C 728.58 693.46 731.76 697.78 734.63 702.31 C 747.76 720.83 761.31 739.05 774.31 757.66 C 778.24 763.14 781.43 769.44 787.18 773.31 C 782.56 775.07 778.02 777.04 773.29 778.47 C 768.37 771.49 762.81 764.98 758.26 757.75 C 749.63 745.11 740.00 733.18 731.48 720.46 C 724.54 709.91 716.25 700.28 709.91 689.32 Z" />
</g>
<g id="#5b5b5bff">
<path fill="#5b5b5b" opacity="1.00" d=" M 183.68 695.95 C 184.82 695.83 185.97 695.74 187.12 695.65 C 187.91 697.15 189.06 698.38 190.35 699.49 C 191.56 708.24 194.18 716.71 196.27 725.28 C 198.08 732.67 200.24 739.96 202.64 747.18 C 207.23 762.86 213.63 777.92 219.34 793.20 C 214.79 789.64 215.27 783.04 210.94 779.41 C 212.39 776.33 210.15 773.69 208.10 771.62 C 208.00 769.84 207.89 768.04 207.77 766.27 C 206.11 766.63 204.45 766.98 202.79 767.35 C 194.51 744.11 188.27 720.18 183.68 695.95 Z" />
</g>
<g id="#faff95ff">
<path fill="#faff95" opacity="1.00" d=" M 881.81 717.29 C 885.74 711.35 889.12 705.07 892.36 698.74 C 893.59 701.36 895.14 703.80 896.98 706.04 C 904.54 715.60 910.79 726.12 918.43 735.61 C 926.16 746.79 934.48 757.56 942.08 768.83 C 952.88 784.64 964.67 799.75 975.47 815.55 C 981.04 823.60 987.52 830.97 992.73 839.28 C 997.51 846.73 1003.64 853.21 1008.15 860.84 C 1011.07 865.61 1014.96 869.73 1017.54 874.73 C 1013.85 880.35 1010.08 885.93 1006.32 891.51 C 1004.92 886.55 1001.15 882.85 998.45 878.61 C 992.92 871.34 987.37 864.05 982.75 856.16 C 979.80 852.47 976.31 849.21 974.04 845.02 C 968.42 837.00 963.17 828.70 956.90 821.17 C 947.59 807.79 937.94 794.65 928.85 781.13 C 926.43 778.19 923.84 775.37 922.00 772.01 C 918.69 766.18 913.27 761.85 910.31 755.78 C 908.20 751.42 903.99 748.60 901.80 744.30 C 898.74 738.81 894.21 734.34 891.11 728.88 C 888.61 724.57 885.57 720.57 881.81 717.29 Z" />
</g>
<g id="#bbbccfff">
<path fill="#bbbccf" opacity="1.00" d=" M 650.18 699.86 C 657.14 710.48 665.18 720.35 672.02 731.05 C 679.39 740.12 685.55 750.09 692.62 759.39 C 698.95 768.02 704.91 776.90 711.12 785.62 C 707.39 785.90 703.67 786.38 700.07 787.42 C 695.82 787.90 691.59 786.87 687.40 786.30 C 688.80 785.64 690.20 784.96 691.61 784.28 C 687.20 779.94 684.14 774.52 680.34 769.69 C 677.34 765.92 675.09 761.64 672.12 757.86 C 661.14 744.39 652.87 728.98 641.84 715.55 C 644.63 710.32 647.44 705.11 650.18 699.86 Z" />
</g>
<g id="#b3b3b4ff">
<path fill="#b3b3b4" opacity="1.00" d=" M 619.51 757.59 C 626.89 743.54 634.47 729.60 641.84 715.55 C 652.87 728.98 661.14 744.39 672.12 757.86 C 675.09 761.64 677.34 765.92 680.34 769.69 C 684.14 774.52 687.20 779.94 691.61 784.28 C 690.20 784.96 688.80 785.64 687.40 786.30 C 681.91 786.36 676.38 784.69 670.93 783.77 C 653.28 780.07 636.08 774.14 619.95 766.05 C 618.52 765.35 617.04 764.78 615.57 764.22 L 615.72 764.00 C 617.12 761.95 618.38 759.80 619.51 757.59 Z" />
</g>
<g id="#fff683ff">
<path fill="#fff683" opacity="1.00" d=" M 868.64 735.40 C 873.42 729.66 877.75 723.56 881.81 717.29 C 885.57 720.57 888.61 724.57 891.11 728.88 C 894.21 734.34 898.74 738.81 901.80 744.30 C 903.99 748.60 908.20 751.42 910.31 755.78 C 913.27 761.85 918.69 766.18 922.00 772.01 C 923.84 775.37 926.43 778.19 928.85 781.13 C 937.94 794.65 947.59 807.79 956.90 821.17 C 963.17 828.70 968.42 837.00 974.04 845.02 C 976.31 849.21 979.80 852.47 982.75 856.16 C 987.37 864.05 992.92 871.34 998.45 878.61 C 1001.15 882.85 1004.92 886.55 1006.32 891.51 C 1001.71 897.93 996.93 904.23 992.02 910.43 C 991.67 908.71 991.52 906.90 990.68 905.33 C 985.95 897.24 979.46 890.40 974.40 882.53 C 971.09 878.10 968.50 873.19 965.08 868.85 C 957.18 859.85 951.41 849.28 944.39 839.63 C 940.96 834.43 936.01 830.41 932.99 824.93 C 930.70 820.91 927.97 817.17 924.94 813.70 C 921.26 809.60 919.61 804.13 915.85 800.10 C 913.08 797.07 911.36 793.29 908.74 790.17 C 901.86 781.63 896.26 772.16 889.55 763.50 C 882.45 754.23 875.99 744.48 868.64 735.40 Z" />
</g>
<g id="#c6c7efff">
<path fill="#c6c7ef" opacity="1.00" d=" M 536.52 728.16 C 546.28 739.27 557.02 749.57 568.78 758.57 C 559.59 769.21 551.06 780.42 542.08 791.24 C 538.44 789.39 536.24 785.93 534.26 782.52 C 528.68 774.84 523.79 766.64 517.75 759.30 C 515.84 756.97 514.19 754.46 512.65 751.89 C 512.87 751.00 513.11 750.12 513.33 749.24 C 513.04 749.10 512.45 748.82 512.16 748.68 C 520.19 741.73 528.56 735.19 536.52 728.16 Z" />
</g>
<g id="#ffde7eff">
<path fill="#ffde7e" opacity="1.00" d=" M 854.63 750.77 C 859.53 745.87 864.25 740.77 868.64 735.40 C 875.99 744.48 882.45 754.23 889.55 763.50 C 896.26 772.16 901.86 781.63 908.74 790.17 C 911.36 793.29 913.08 797.07 915.85 800.10 C 919.61 804.13 921.26 809.60 924.94 813.70 C 927.97 817.17 930.70 820.91 932.99 824.93 C 936.01 830.41 940.96 834.43 944.39 839.63 C 951.41 849.28 957.18 859.85 965.08 868.85 C 968.50 873.19 971.09 878.10 974.40 882.53 C 979.46 890.40 985.95 897.24 990.68 905.33 C 991.52 906.90 991.67 908.71 992.02 910.43 C 987.25 916.25 982.56 922.17 977.27 927.53 C 977.20 927.27 977.06 926.75 976.99 926.49 C 978.58 922.07 974.96 918.66 972.55 915.42 C 966.35 907.54 961.18 898.91 954.80 891.18 C 946.98 880.36 939.66 869.21 931.41 858.71 C 926.06 850.78 920.14 843.26 914.74 835.37 C 910.27 827.41 904.23 820.52 899.11 812.99 C 892.80 805.17 887.84 796.39 881.38 788.69 C 875.33 780.04 869.30 771.38 863.28 762.71 C 860.24 758.84 857.20 754.97 854.63 750.77 Z" />
</g>
<g id="#c0c2dfff">
<path fill="#c0c2df" opacity="1.00" d=" M 494.34 763.56 C 500.22 758.54 506.23 753.66 512.16 748.68 C 512.45 748.82 513.04 749.10 513.33 749.24 C 513.11 750.12 512.87 751.00 512.65 751.89 C 514.19 754.46 515.84 756.97 517.75 759.30 C 523.79 766.64 528.68 774.84 534.26 782.52 C 536.24 785.93 538.44 789.39 542.08 791.24 C 537.05 797.19 532.28 803.35 527.30 809.35 C 523.22 806.69 521.60 801.98 518.65 798.34 C 517.13 796.42 515.99 794.25 514.68 792.20 C 513.28 790.04 511.06 788.58 509.59 786.48 C 504.96 778.55 498.99 771.49 494.34 763.56 Z" />
</g>
<g id="#ffc47eff">
<path fill="#ffc47e" opacity="1.00" d=" M 838.72 764.83 C 844.33 760.50 849.50 755.65 854.63 750.77 C 857.20 754.97 860.24 758.84 863.28 762.71 C 869.30 771.38 875.33 780.04 881.38 788.69 C 887.84 796.39 892.80 805.17 899.11 812.99 C 904.23 820.52 910.27 827.41 914.74 835.37 C 920.14 843.26 926.06 850.78 931.41 858.71 C 939.66 869.21 946.98 880.36 954.80 891.18 C 961.18 898.91 966.35 907.54 972.55 915.42 C 974.96 918.66 978.58 922.07 976.99 926.49 C 977.06 926.75 977.20 927.27 977.27 927.53 L 977.36 927.82 C 973.02 932.55 968.67 937.27 964.14 941.81 C 963.52 938.79 962.46 935.84 960.56 933.39 C 956.31 927.60 952.73 921.34 948.24 915.73 C 943.47 910.04 940.01 903.41 935.33 897.64 C 925.17 884.68 916.26 870.82 906.47 857.58 C 903.41 853.34 900.04 849.30 897.49 844.71 C 894.98 840.00 890.47 836.79 887.89 832.13 C 884.96 826.86 880.53 822.66 877.50 817.46 C 872.94 811.61 869.28 805.12 864.46 799.48 C 858.20 791.86 853.28 783.29 847.55 775.30 C 845.25 771.30 842.32 767.71 838.72 764.83 Z" />
</g>
<g id="#ffab7cff">
<path fill="#ffab7c" opacity="1.00" d=" M 818.23 779.03 C 825.39 774.80 832.15 769.93 838.72 764.83 C 842.32 767.71 845.25 771.30 847.55 775.30 C 853.28 783.29 858.20 791.86 864.46 799.48 C 869.28 805.12 872.94 811.61 877.50 817.46 C 880.53 822.66 884.96 826.86 887.89 832.13 C 890.47 836.79 894.98 840.00 897.49 844.71 C 900.04 849.30 903.41 853.34 906.47 857.58 C 916.26 870.82 925.17 884.68 935.33 897.64 C 940.01 903.41 943.47 910.04 948.24 915.73 C 952.73 921.34 956.31 927.60 960.56 933.39 C 962.46 935.84 963.52 938.79 964.14 941.81 C 958.16 948.07 951.69 953.83 945.33 959.70 C 944.02 955.15 940.62 951.75 938.03 947.93 C 935.41 944.22 933.19 940.23 930.14 936.85 C 926.32 932.87 923.78 927.92 920.41 923.59 C 914.54 914.63 908.16 906.03 901.69 897.50 C 895.34 887.31 887.72 877.99 881.10 867.98 C 877.28 861.60 872.26 856.09 867.89 850.11 C 854.66 831.36 841.64 812.46 827.94 794.04 C 824.53 789.14 819.27 785.24 818.23 779.03 Z" />
</g>
<g id="#505050ff">
<path fill="#505050" opacity="1.00" d=" M 202.79 767.35 C 204.45 766.98 206.11 766.63 207.77 766.27 C 207.89 768.04 208.00 769.84 208.10 771.62 C 210.15 773.69 212.39 776.33 210.94 779.41 C 215.27 783.04 214.79 789.64 219.34 793.20 C 227.83 812.45 237.37 831.23 248.14 849.30 C 246.29 850.24 244.45 851.19 242.61 852.15 C 226.57 825.30 213.17 796.85 202.79 767.35 Z" />
</g>
<g id="#b8b9c4ff">
<path fill="#b8b9c4" opacity="1.00" d=" M 462.41 790.32 C 467.87 785.55 473.56 781.07 479.06 776.35 C 478.82 778.35 478.05 780.65 479.68 782.33 C 484.37 788.31 488.49 794.70 493.03 800.79 C 495.20 804.66 498.53 807.75 500.40 811.80 C 502.09 815.36 505.94 817.38 507.14 821.26 C 508.17 824.44 511.50 825.84 514.60 825.01 C 509.75 830.72 505.21 836.69 500.39 842.43 C 497.72 840.56 494.83 838.79 492.88 836.11 C 486.22 824.44 477.60 814.02 470.07 802.91 C 468.17 798.23 463.24 795.50 462.41 790.32 Z" />
</g>
<g id="#ff8e7bff">
<path fill="#ff8e7b" opacity="1.00" d=" M 794.57 791.25 C 802.73 787.73 810.62 783.62 818.23 779.03 C 819.27 785.24 824.53 789.14 827.94 794.04 C 841.64 812.46 854.66 831.36 867.89 850.11 C 872.26 856.09 877.28 861.60 881.10 867.98 C 887.72 877.99 895.34 887.31 901.69 897.50 C 908.16 906.03 914.54 914.63 920.41 923.59 C 923.78 927.92 926.32 932.87 930.14 936.85 C 933.19 940.23 935.41 944.22 938.03 947.93 C 940.62 951.75 944.02 955.15 945.33 959.70 C 939.15 965.20 932.77 970.47 926.29 975.62 C 922.00 965.31 913.43 957.70 907.75 948.23 C 903.21 942.14 899.55 935.40 894.40 929.79 C 890.21 925.06 887.48 919.29 883.68 914.29 C 879.61 908.98 876.03 903.34 871.87 898.11 C 866.04 889.94 860.90 881.27 854.53 873.50 C 844.56 858.58 832.89 844.85 823.48 829.54 C 820.16 824.87 816.49 820.47 813.16 815.81 C 808.40 810.13 804.91 803.52 800.07 797.92 C 798.22 795.70 796.39 793.47 794.57 791.25 Z" />
</g>
<g id="#ccc9f9ff">
<path fill="#ccc9f9" opacity="1.00" d=" M 606.28 782.66 C 616.29 787.96 626.79 792.31 637.46 796.11 C 635.61 796.28 633.78 796.56 631.95 796.83 C 633.48 800.18 635.39 803.38 637.97 806.04 C 641.68 809.81 643.54 814.92 647.10 818.82 C 652.16 824.63 655.19 831.89 660.42 837.56 C 663.56 840.93 665.03 845.43 667.99 848.94 C 671.79 853.52 675.64 858.10 678.74 863.20 C 683.17 870.56 688.77 877.10 693.59 884.20 C 700.12 895.46 709.06 905.05 716.10 915.98 C 721.56 924.40 727.38 932.59 733.47 940.57 C 742.75 952.41 750.73 965.19 759.96 977.06 C 767.68 988.59 776.22 999.53 783.96 1011.06 C 786.67 1014.97 789.22 1018.99 792.16 1022.74 C 795.72 1027.28 798.41 1032.44 802.13 1036.87 C 804.05 1039.66 807.93 1038.39 810.79 1039.13 C 800.62 1043.52 789.76 1046.01 779.20 1049.27 C 773.74 1050.97 768.09 1051.92 762.56 1053.39 C 758.78 1054.31 754.99 1055.38 751.10 1055.57 C 750.58 1055.34 749.55 1054.88 749.03 1054.64 C 750.53 1053.87 752.05 1053.13 753.58 1052.40 C 750.17 1049.36 747.49 1045.65 745.13 1041.77 C 735.93 1028.99 726.99 1016.02 717.90 1003.18 C 713.28 994.71 707.17 987.23 701.44 979.52 C 694.92 968.87 686.20 959.74 680.05 948.86 C 675.16 940.63 667.92 934.09 663.14 925.81 C 658.59 916.75 650.91 909.81 645.76 901.14 C 641.92 894.50 636.59 888.90 632.60 882.37 C 629.77 877.65 625.60 873.88 623.00 869.01 C 619.79 863.10 614.80 858.43 611.47 852.61 C 608.36 847.16 603.81 842.74 600.68 837.32 C 598.96 834.17 596.25 831.77 594.24 828.86 C 592.33 824.69 588.54 821.54 588.02 816.75 C 594.08 805.38 600.06 793.95 606.28 782.66 Z" />
</g>
<g id="#fe7d7bff">
<path fill="#fe7d7b" opacity="1.00" d=" M 771.32 799.71 C 779.24 797.40 787.00 794.53 794.57 791.25 C 796.39 793.47 798.22 795.70 800.07 797.92 C 804.91 803.52 808.40 810.13 813.16 815.81 C 816.49 820.47 820.16 824.87 823.48 829.54 C 832.89 844.85 844.56 858.58 854.53 873.50 C 860.90 881.27 866.04 889.94 871.87 898.11 C 876.03 903.34 879.61 908.98 883.68 914.29 C 887.48 919.29 890.21 925.06 894.40 929.79 C 899.55 935.40 903.21 942.14 907.75 948.23 C 913.43 957.70 922.00 965.31 926.29 975.62 C 919.58 980.86 912.71 985.91 905.71 990.76 C 900.75 986.64 898.31 980.50 894.60 975.39 C 887.86 965.55 879.84 956.65 873.41 946.60 C 867.93 939.03 862.82 931.22 857.26 923.72 C 851.81 915.00 845.01 907.29 839.22 898.83 C 834.81 893.13 830.87 887.10 826.45 881.42 C 818.97 871.78 812.92 861.15 805.63 851.37 C 801.53 844.89 796.61 838.99 792.40 832.59 C 786.16 823.54 778.43 815.50 773.19 805.78 C 772.07 803.92 771.62 801.81 771.32 799.71 Z" />
</g>
<g id="#d6c1f1ff">
<path fill="#d6c1f1" opacity="1.00" d=" M 631.95 796.83 C 633.78 796.56 635.61 796.28 637.46 796.11 C 646.99 799.25 656.65 802.04 666.49 804.03 C 664.39 804.45 662.31 804.99 660.24 805.52 C 664.46 811.98 669.65 817.73 673.76 824.27 C 680.22 833.49 686.91 842.55 693.27 851.85 C 697.59 857.28 701.51 863.00 705.11 868.93 C 710.11 875.90 715.77 882.41 720.29 889.74 C 724.33 896.51 729.76 902.29 734.12 908.84 C 737.77 914.49 741.99 919.75 745.52 925.48 C 751.74 933.08 756.74 941.57 762.69 949.39 C 768.49 958.76 775.66 967.16 781.75 976.34 C 789.41 987.28 796.98 998.30 805.25 1008.79 C 808.16 1012.90 810.69 1017.29 813.97 1021.14 C 817.68 1025.36 819.29 1031.33 824.36 1034.31 C 819.79 1035.77 815.47 1038.13 810.79 1039.13 C 807.93 1038.39 804.05 1039.66 802.13 1036.87 C 798.41 1032.44 795.72 1027.28 792.16 1022.74 C 789.22 1018.99 786.67 1014.97 783.96 1011.06 C 776.22 999.53 767.68 988.59 759.96 977.06 C 750.73 965.19 742.75 952.41 733.47 940.57 C 727.38 932.59 721.56 924.40 716.10 915.98 C 709.06 905.05 700.12 895.46 693.59 884.20 C 688.77 877.10 683.17 870.56 678.74 863.20 C 675.64 858.10 671.79 853.52 667.99 848.94 C 665.03 845.43 663.56 840.93 660.42 837.56 C 655.19 831.89 652.16 824.63 647.10 818.82 C 643.54 814.92 641.68 809.81 637.97 806.04 C 635.39 803.38 633.48 800.18 631.95 796.83 Z" />
</g>
<g id="#f9818aff">
<path fill="#f9818a" opacity="1.00" d=" M 750.44 804.74 C 757.49 803.46 764.45 801.77 771.32 799.71 C 771.62 801.81 772.07 803.92 773.19 805.78 C 778.43 815.50 786.16 823.54 792.40 832.59 C 796.61 838.99 801.53 844.89 805.63 851.37 C 812.92 861.15 818.97 871.78 826.45 881.42 C 830.87 887.10 834.81 893.13 839.22 898.83 C 845.01 907.29 851.81 915.00 857.26 923.72 C 862.82 931.22 867.93 939.03 873.41 946.60 C 879.84 956.65 887.86 965.55 894.60 975.39 C 898.31 980.50 900.75 986.64 905.71 990.76 C 900.45 994.43 895.04 997.88 889.62 1001.30 C 884.66 996.73 881.66 990.64 877.69 985.30 C 867.17 972.27 858.87 957.63 848.51 944.48 C 845.63 940.62 843.41 936.30 840.34 932.58 C 834.55 925.63 829.32 918.22 824.41 910.63 C 809.65 891.21 796.35 870.73 781.80 851.17 C 775.73 841.15 767.42 832.72 761.46 822.61 C 758.82 817.98 755.35 813.94 752.12 809.73 C 750.90 808.33 750.59 806.51 750.44 804.74 Z" />
</g>
<g id="#ddb6ddff">
<path fill="#ddb6dd" opacity="1.00" d=" M 666.49 804.03 C 672.32 805.01 678.12 806.18 684.00 806.84 C 686.95 811.58 689.93 816.31 693.10 820.93 C 697.27 827.36 702.73 832.88 706.39 839.67 C 713.01 848.99 720.15 857.94 726.47 867.47 C 730.80 872.63 733.85 878.70 738.10 883.92 C 739.40 885.58 740.63 887.32 741.78 889.11 C 745.07 894.44 749.75 898.76 752.76 904.29 C 756.77 911.39 762.32 917.43 766.96 924.10 C 778.61 941.89 791.85 958.56 803.77 976.15 C 808.64 983.28 814.06 990.02 818.64 997.35 C 826.41 1006.35 831.44 1017.60 840.41 1025.57 C 839.86 1026.37 839.31 1027.18 838.75 1028.00 C 834.08 1030.37 829.15 1032.20 824.36 1034.31 C 819.29 1031.33 817.68 1025.36 813.97 1021.14 C 810.69 1017.29 808.16 1012.90 805.25 1008.79 C 796.98 998.30 789.41 987.28 781.75 976.34 C 775.66 967.16 768.49 958.76 762.69 949.39 C 756.74 941.57 751.74 933.08 745.52 925.48 C 741.99 919.75 737.77 914.49 734.12 908.84 C 729.76 902.29 724.33 896.51 720.29 889.74 C 715.77 882.41 710.11 875.90 705.11 868.93 C 701.51 863.00 697.59 857.28 693.27 851.85 C 686.91 842.55 680.22 833.49 673.76 824.27 C 669.65 817.73 664.46 811.98 660.24 805.52 C 662.31 804.99 664.39 804.45 666.49 804.03 Z" />
</g>
<g id="#f38c9aff">
<path fill="#f38c9a" opacity="1.00" d=" M 732.80 807.36 C 738.72 806.82 744.61 805.91 750.44 804.74 C 750.59 806.51 750.90 808.33 752.12 809.73 C 755.35 813.94 758.82 817.98 761.46 822.61 C 767.42 832.72 775.73 841.15 781.80 851.17 C 796.35 870.73 809.65 891.21 824.41 910.63 C 829.32 918.22 834.55 925.63 840.34 932.58 C 843.41 936.30 845.63 940.62 848.51 944.48 C 858.87 957.63 867.17 972.27 877.69 985.30 C 881.66 990.64 884.66 996.73 889.62 1001.30 C 886.19 1003.43 882.71 1005.45 879.25 1007.53 C 875.91 1003.84 873.42 999.53 870.58 995.49 C 857.37 978.80 846.34 960.51 833.27 943.72 C 823.31 929.73 813.45 915.65 803.31 901.80 C 799.61 897.36 796.89 892.22 793.29 887.72 C 788.11 881.12 784.08 873.72 778.82 867.18 C 775.63 863.26 773.25 858.77 770.14 854.80 C 762.62 845.79 756.51 835.74 749.71 826.19 C 745.64 820.91 741.49 815.67 737.99 809.98 C 737.12 807.88 734.69 807.80 732.80 807.36 Z" />
</g>
<g id="#e4aac8ff">
<path fill="#e4aac8" opacity="1.00" d=" M 684.00 806.84 C 690.90 807.58 697.80 808.41 704.75 808.37 C 706.46 813.52 710.04 817.64 713.03 822.07 C 717.61 828.48 722.14 834.93 726.95 841.17 C 734.01 853.07 743.09 863.57 750.74 875.09 C 753.57 879.88 757.61 883.81 760.33 888.69 C 763.26 893.93 767.66 898.10 770.92 903.12 C 774.96 909.62 780.32 915.17 784.25 921.75 C 789.21 930.28 795.89 937.61 801.08 945.99 C 812.19 960.34 822.25 975.47 832.74 990.27 C 835.90 996.01 840.90 1000.41 843.94 1006.22 C 847.55 1011.04 850.77 1016.27 855.31 1020.32 C 849.92 1023.14 844.42 1025.77 838.75 1028.00 C 839.31 1027.18 839.86 1026.37 840.41 1025.57 C 831.44 1017.60 826.41 1006.35 818.64 997.35 C 814.06 990.02 808.64 983.28 803.77 976.15 C 791.85 958.56 778.61 941.89 766.96 924.10 C 762.32 917.43 756.77 911.39 752.76 904.29 C 749.75 898.76 745.07 894.44 741.78 889.11 C 740.63 887.32 739.40 885.58 738.10 883.92 C 733.85 878.70 730.80 872.63 726.47 867.47 C 720.15 857.94 713.01 848.99 706.39 839.67 C 702.73 832.88 697.27 827.36 693.10 820.93 C 689.93 816.31 686.95 811.58 684.00 806.84 Z" />
</g>
<g id="#e9a0b8ff">
<path fill="#e9a0b8" opacity="1.00" d=" M 704.75 808.37 C 710.96 808.55 717.18 808.23 723.39 808.09 C 723.37 808.46 723.32 809.20 723.30 809.57 C 722.27 809.92 721.25 810.28 720.25 810.65 C 726.31 819.88 733.32 828.49 739.38 837.75 C 754.92 858.59 769.09 880.44 784.99 901.03 C 802.54 926.72 821.12 951.67 838.74 977.31 C 844.57 984.59 849.58 992.48 854.99 1000.07 C 858.66 1004.97 862.30 1009.92 865.43 1015.20 C 862.13 1017.05 858.70 1018.64 855.31 1020.32 C 850.77 1016.27 847.55 1011.04 843.94 1006.22 C 840.90 1000.41 835.90 996.01 832.74 990.27 C 822.25 975.47 812.19 960.34 801.08 945.99 C 795.89 937.61 789.21 930.28 784.25 921.75 C 780.32 915.17 774.96 909.62 770.92 903.12 C 767.66 898.10 763.26 893.93 760.33 888.69 C 757.61 883.81 753.57 879.88 750.74 875.09 C 743.09 863.57 734.01 853.07 726.95 841.17 C 722.14 834.93 717.61 828.48 713.03 822.07 C 710.04 817.64 706.46 813.52 704.75 808.37 Z" />
</g>
<g id="#ee97a9ff">
<path fill="#ee97a9" opacity="1.00" d=" M 723.39 808.09 C 726.53 807.95 729.66 807.60 732.80 807.36 C 734.69 807.80 737.12 807.88 737.99 809.98 C 741.49 815.67 745.64 820.91 749.71 826.19 C 756.51 835.74 762.62 845.79 770.14 854.80 C 773.25 858.77 775.63 863.26 778.82 867.18 C 784.08 873.72 788.11 881.12 793.29 887.72 C 796.89 892.22 799.61 897.36 803.31 901.80 C 813.45 915.65 823.31 929.73 833.27 943.72 C 846.34 960.51 857.37 978.80 870.58 995.49 C 873.42 999.53 875.91 1003.84 879.25 1007.53 C 874.69 1010.16 870.08 1012.72 865.43 1015.20 C 862.30 1009.92 858.66 1004.97 854.99 1000.07 C 849.58 992.48 844.57 984.59 838.74 977.31 C 821.12 951.67 802.54 926.72 784.99 901.03 C 769.09 880.44 754.92 858.59 739.38 837.75 C 733.32 828.49 726.31 819.88 720.25 810.65 C 721.25 810.28 722.27 809.92 723.30 809.57 C 723.32 809.20 723.37 808.46 723.39 808.09 Z" />
</g>
<g id="#c4c5eaff">
<path fill="#c4c5ea" opacity="1.00" d=" M 588.02 816.75 C 588.54 821.54 592.33 824.69 594.24 828.86 C 596.25 831.77 598.96 834.17 600.68 837.32 C 603.81 842.74 608.36 847.16 611.47 852.61 C 614.80 858.43 619.79 863.10 623.00 869.01 C 625.60 873.88 629.77 877.65 632.60 882.37 C 636.59 888.90 641.92 894.50 645.76 901.14 C 650.91 909.81 658.59 916.75 663.14 925.81 C 667.92 934.09 675.16 940.63 680.05 948.86 C 686.20 959.74 694.92 968.87 701.44 979.52 C 707.17 987.23 713.28 994.71 717.90 1003.18 C 726.99 1016.02 735.93 1028.99 745.13 1041.77 C 747.49 1045.65 750.17 1049.36 753.58 1052.40 C 752.05 1053.13 750.53 1053.87 749.03 1054.64 C 749.55 1054.88 750.58 1055.34 751.10 1055.57 C 742.67 1058.14 733.71 1058.73 725.05 1060.35 C 720.41 1060.30 715.93 1062.03 711.30 1061.57 C 708.82 1061.23 706.35 1060.83 703.88 1060.47 C 709.81 1059.96 715.73 1059.30 721.65 1058.63 C 719.10 1054.82 715.88 1051.50 713.58 1047.54 C 710.40 1041.86 705.89 1037.11 702.38 1031.65 C 697.90 1024.82 692.55 1018.63 688.22 1011.71 C 682.12 1003.47 675.75 995.40 670.40 986.64 C 667.57 982.17 663.94 978.27 661.16 973.77 C 658.18 968.90 653.99 964.91 651.22 959.91 C 647.36 952.96 642.16 946.92 637.43 940.59 C 634.97 937.29 633.44 933.38 630.76 930.24 C 623.35 921.20 617.35 911.11 610.13 901.92 C 608.10 898.95 606.45 895.72 604.07 893.00 C 599.68 887.86 596.57 881.79 592.31 876.55 C 588.29 871.83 585.60 866.18 581.56 861.48 C 578.46 856.70 575.18 852.07 571.61 847.64 C 577.03 837.31 582.64 827.09 588.02 816.75 Z" />
</g>
<g id="#bec0d9ff">
<path fill="#bec0d9" opacity="1.00" d=" M 558.87 871.57 C 563.13 863.60 567.40 855.63 571.61 847.64 C 575.18 852.07 578.46 856.70 581.56 861.48 C 585.60 866.18 588.29 871.83 592.31 876.55 C 596.57 881.79 599.68 887.86 604.07 893.00 C 606.45 895.72 608.10 898.95 610.13 901.92 C 617.35 911.11 623.35 921.20 630.76 930.24 C 633.44 933.38 634.97 937.29 637.43 940.59 C 642.16 946.92 647.36 952.96 651.22 959.91 C 653.99 964.91 658.18 968.90 661.16 973.77 C 663.94 978.27 667.57 982.17 670.40 986.64 C 675.75 995.40 682.12 1003.47 688.22 1011.71 C 692.55 1018.63 697.90 1024.82 702.38 1031.65 C 705.89 1037.11 710.40 1041.86 713.58 1047.54 C 715.88 1051.50 719.10 1054.82 721.65 1058.63 C 715.73 1059.30 709.81 1059.96 703.88 1060.47 C 706.35 1060.83 708.82 1061.23 711.30 1061.57 C 704.18 1063.08 696.81 1063.29 689.54 1063.51 C 689.57 1062.97 689.61 1061.91 689.63 1061.37 C 690.59 1061.10 691.56 1060.84 692.55 1060.60 C 689.61 1058.45 687.18 1055.73 685.25 1052.67 C 680.29 1045.98 675.83 1038.92 670.56 1032.46 C 666.55 1027.66 663.74 1022.00 659.69 1017.23 C 655.52 1012.52 653.72 1006.24 649.36 1001.67 C 643.97 994.36 637.69 987.61 633.58 979.44 C 631.42 975.39 627.81 972.41 625.42 968.53 C 622.80 964.26 619.21 960.68 616.73 956.33 C 612.90 949.36 607.07 943.79 603.20 936.84 C 600.56 931.95 596.29 928.24 593.46 923.50 C 590.71 917.85 585.97 913.53 582.77 908.16 C 578.64 901.37 573.27 895.46 569.09 888.71 C 565.48 883.13 560.22 878.33 558.87 871.57 Z" />
</g>
<g id="#b9bbc9ff">
<path fill="#b9bbc9" opacity="1.00" d=" M 546.79 894.33 C 550.71 886.68 554.95 879.21 558.87 871.57 C 560.22 878.33 565.48 883.13 569.09 888.71 C 573.27 895.46 578.64 901.37 582.77 908.16 C 585.97 913.53 590.71 917.85 593.46 923.50 C 596.29 928.24 600.56 931.95 603.20 936.84 C 607.07 943.79 612.90 949.36 616.73 956.33 C 619.21 960.68 622.80 964.26 625.42 968.53 C 627.81 972.41 631.42 975.39 633.58 979.44 C 637.69 987.61 643.97 994.36 649.36 1001.67 C 653.72 1006.24 655.52 1012.52 659.69 1017.23 C 663.74 1022.00 666.55 1027.66 670.56 1032.46 C 675.83 1038.92 680.29 1045.98 685.25 1052.67 C 687.18 1055.73 689.61 1058.45 692.55 1060.60 C 691.56 1060.84 690.59 1061.10 689.63 1061.37 C 689.61 1061.91 689.57 1062.97 689.54 1063.51 C 680.87 1064.84 672.07 1064.27 663.34 1064.39 C 660.57 1057.43 655.34 1051.88 651.05 1045.85 C 646.25 1040.21 642.42 1033.87 638.02 1027.94 C 633.99 1020.28 628.08 1013.92 623.24 1006.80 C 620.10 1002.25 616.17 998.26 613.54 993.36 C 610.25 987.26 605.42 982.23 601.41 976.64 C 598.93 973.26 597.68 969.12 594.78 966.04 C 590.94 961.84 587.62 957.21 584.67 952.35 C 581.45 946.96 577.09 942.36 573.92 936.93 C 570.79 931.57 566.43 927.08 563.09 921.86 C 559.49 916.16 555.00 911.09 551.70 905.20 C 549.06 902.06 546.52 898.67 546.79 894.33 Z" />
</g>
</svg>
