<?xml version="1.0" encoding="UTF-8" ?>
<!DOCTYPE svg PUBLIC "-//W3C//DTD SVG 1.1//EN" "http://www.w3.org/Graphics/SVG/1.1/DTD/svg11.dtd">
<svg width="1276pt" height="1276pt" viewBox="0 0 1276 1276" version="1.1" xmlns="http://www.w3.org/2000/svg">
<g id="#c1ac6dff">
<path fill="#c1ac6d" opacity="1.00" d=" M 129.00 437.06 C 142.02 437.06 155.04 437.06 168.06 437.06 C 168.06 452.71 168.06 468.35 168.06 484.00 C 155.04 484.00 142.02 484.00 129.00 484.00 C 129.00 468.35 129.00 452.71 129.00 437.06 Z" />
<path fill="#c1ac6d" opacity="1.00" d=" M 174.94 437.06 C 187.96 437.06 200.98 437.06 213.99 437.06 C 214.01 452.70 214.00 468.35 214.00 484.00 C 200.98 484.00 187.96 484.00 174.94 484.00 C 174.94 468.35 174.94 452.71 174.94 437.06 Z" />
<path fill="#c1ac6d" opacity="1.00" d=" M 519.94 437.06 C 532.96 437.06 545.98 437.06 559.00 437.06 C 559.00 452.71 559.00 468.35 559.00 484.00 C 545.98 484.00 532.96 484.00 519.94 484.00 C 519.94 468.35 519.94 452.71 519.94 437.06 Z" />
<path fill="#c1ac6d" opacity="1.00" d=" M 565.88 437.07 C 578.90 437.06 591.92 437.06 604.94 437.06 C 604.94 452.71 604.93 468.35 604.94 484.00 C 591.92 484.00 578.90 484.00 565.88 484.00 C 565.87 468.35 565.87 452.71 565.88 437.07 Z" />
<path fill="#c1ac6d" opacity="1.00" d=" M 611.88 437.06 C 624.88 437.06 637.88 437.06 650.88 437.07 C 650.88 452.71 650.87 468.35 650.88 483.99 C 637.88 484.01 624.88 484.00 611.88 484.00 C 611.87 468.35 611.87 452.71 611.88 437.06 Z" />
<path fill="#c1ac6d" opacity="1.00" d=" M 658.50 437.06 C 671.52 437.07 684.55 437.05 697.57 437.07 C 697.57 452.70 697.53 468.33 697.59 483.96 C 684.56 484.05 671.53 483.97 658.50 484.00 C 658.50 468.35 658.50 452.71 658.50 437.06 Z" />
<path fill="#c1ac6d" opacity="1.00" d=" M 704.43 437.07 C 717.45 437.05 730.47 437.07 743.49 437.06 C 743.50 452.71 743.50 468.35 743.50 484.00 C 730.47 483.98 717.44 484.05 704.42 483.96 C 704.46 468.33 704.43 452.70 704.43 437.07 Z" />
<path fill="#c1ac6d" opacity="1.00" d=" M 818.00 437.06 C 831.02 437.06 844.04 437.06 857.06 437.06 C 857.06 452.71 857.06 468.35 857.06 484.00 C 844.04 484.00 831.02 484.00 818.00 484.00 C 818.00 468.35 818.00 452.71 818.00 437.06 Z" />
<path fill="#c1ac6d" opacity="1.00" d=" M 863.94 437.06 C 876.96 437.06 889.98 437.06 903.00 437.06 C 903.00 452.71 903.00 468.35 903.00 484.00 C 889.98 484.00 876.96 484.00 863.94 484.00 C 863.94 468.35 863.94 452.71 863.94 437.06 Z" />
<path fill="#c1ac6d" opacity="1.00" d=" M 909.88 437.06 C 922.90 437.06 935.92 437.06 948.94 437.06 C 948.94 452.71 948.93 468.35 948.94 484.00 C 935.92 484.00 922.90 484.00 909.88 484.00 C 909.87 468.35 909.87 452.71 909.88 437.06 Z" />
<path fill="#c1ac6d" opacity="1.00" d=" M 955.88 437.07 C 968.88 437.06 981.88 437.06 994.88 437.07 C 994.88 452.71 994.87 468.35 994.88 484.00 C 981.88 484.00 968.88 484.00 955.88 484.00 C 955.87 468.35 955.87 452.71 955.88 437.07 Z" />
<path fill="#c1ac6d" opacity="1.00" d=" M 1002.51 437.06 C 1015.53 437.07 1028.55 437.04 1041.57 437.07 C 1041.56 452.71 1041.55 468.35 1041.57 483.98 C 1028.55 484.02 1015.52 483.99 1002.50 484.00 C 1002.50 468.35 1002.49 452.71 1002.51 437.06 Z" />
<path fill="#c1ac6d" opacity="1.00" d=" M 1048.43 437.07 C 1061.45 437.05 1074.47 437.07 1087.50 437.06 C 1087.50 452.71 1087.50 468.35 1087.50 484.00 C 1074.47 483.99 1061.45 484.02 1048.43 483.99 C 1048.44 468.35 1048.44 452.71 1048.43 437.07 Z" />
<path fill="#c1ac6d" opacity="1.00" d=" M 129.01 492.30 C 142.03 492.32 155.04 492.30 168.05 492.31 C 168.07 507.96 168.06 523.60 168.06 539.25 C 155.04 539.25 142.02 539.25 129.00 539.25 C 129.00 523.60 128.99 507.95 129.01 492.30 Z" />
<path fill="#c1ac6d" opacity="1.00" d=" M 174.95 492.31 C 187.96 492.30 200.97 492.32 213.99 492.30 C 214.01 507.95 214.00 523.60 214.00 539.25 C 200.98 539.25 187.96 539.25 174.94 539.25 C 174.94 523.60 174.93 507.96 174.95 492.31 Z" />
<path fill="#c1ac6d" opacity="1.00" d=" M 474.01 492.31 C 487.02 492.32 500.04 492.30 513.05 492.31 C 513.07 507.96 513.06 523.60 513.06 539.25 C 500.04 539.25 487.02 539.25 474.00 539.25 C 474.00 523.60 473.99 507.95 474.01 492.31 Z" />
<path fill="#c1ac6d" opacity="1.00" d=" M 519.95 492.31 C 532.96 492.31 545.97 492.32 558.99 492.30 C 559.01 507.95 559.00 523.60 559.00 539.25 C 545.98 539.25 532.96 539.25 519.94 539.25 C 519.94 523.60 519.93 507.96 519.95 492.31 Z" />
<path fill="#c1ac6d" opacity="1.00" d=" M 704.44 492.32 C 717.46 492.31 730.48 492.29 743.51 492.33 C 743.49 507.97 743.51 523.61 743.49 539.25 C 730.48 539.25 717.46 539.25 704.45 539.25 C 704.42 523.61 704.44 507.96 704.44 492.32 Z" />
<path fill="#c1ac6d" opacity="1.00" d=" M 750.44 492.32 C 763.44 492.31 776.44 492.29 789.44 492.33 C 789.42 507.97 789.45 523.61 789.43 539.25 C 776.44 539.26 763.44 539.24 750.45 539.25 C 750.42 523.61 750.44 507.96 750.44 492.32 Z" />
<path fill="#c1ac6d" opacity="1.00" d=" M 818.01 492.31 C 831.02 492.32 844.04 492.30 857.05 492.31 C 857.07 507.96 857.06 523.60 857.06 539.25 C 844.04 539.25 831.02 539.25 818.00 539.25 C 818.00 523.60 817.99 507.95 818.01 492.31 Z" />
<path fill="#c1ac6d" opacity="1.00" d=" M 863.95 492.31 C 876.96 492.30 889.97 492.32 902.99 492.31 C 903.01 507.95 903.00 523.60 903.00 539.25 C 889.98 539.25 876.96 539.25 863.94 539.25 C 863.94 523.60 863.93 507.96 863.95 492.31 Z" />
<path fill="#c1ac6d" opacity="1.00" d=" M 1048.44 492.32 C 1061.46 492.31 1074.48 492.30 1087.50 492.32 C 1087.49 507.96 1087.51 523.60 1087.49 539.25 C 1074.48 539.25 1061.46 539.24 1048.45 539.25 C 1048.42 523.61 1048.44 507.96 1048.44 492.32 Z" />
<path fill="#c1ac6d" opacity="1.00" d=" M 1094.44 492.32 C 1107.44 492.31 1120.44 492.29 1133.44 492.33 C 1133.42 507.97 1133.45 523.60 1133.43 539.24 C 1120.44 539.26 1107.44 539.24 1094.45 539.25 C 1094.42 523.61 1094.44 507.96 1094.44 492.32 Z" />
<path fill="#c1ac6d" opacity="1.00" d=" M 129.00 547.57 C 142.02 547.56 155.04 547.56 168.06 547.57 C 168.06 563.21 168.06 578.85 168.06 594.49 C 155.04 594.50 142.02 594.50 129.00 594.50 C 129.00 578.85 129.00 563.21 129.00 547.57 Z" />
<path fill="#c1ac6d" opacity="1.00" d=" M 174.94 547.57 C 187.96 547.56 200.98 547.56 214.00 547.57 C 214.00 563.21 214.00 578.85 214.00 594.50 C 200.98 594.50 187.96 594.50 174.94 594.49 C 174.94 578.85 174.93 563.21 174.94 547.57 Z" />
<path fill="#c1ac6d" opacity="1.00" d=" M 474.00 547.57 C 487.02 547.56 500.04 547.56 513.06 547.57 C 513.07 563.21 513.06 578.85 513.06 594.49 C 500.04 594.50 487.02 594.50 474.00 594.50 C 474.00 578.85 474.00 563.21 474.00 547.57 Z" />
<path fill="#c1ac6d" opacity="1.00" d=" M 519.94 547.57 C 532.96 547.56 545.98 547.56 559.00 547.57 C 559.00 563.21 559.00 578.85 559.00 594.50 C 545.98 594.50 532.96 594.50 519.94 594.50 C 519.94 578.85 519.94 563.21 519.94 547.57 Z" />
<path fill="#c1ac6d" opacity="1.00" d=" M 818.00 547.57 C 831.02 547.56 844.04 547.56 857.06 547.57 C 857.06 563.21 857.06 578.85 857.06 594.49 C 844.04 594.50 831.02 594.50 818.00 594.50 C 818.00 578.85 818.00 563.21 818.00 547.57 Z" />
<path fill="#c1ac6d" opacity="1.00" d=" M 863.94 547.57 C 876.96 547.56 889.98 547.56 903.00 547.57 C 903.00 563.21 903.00 578.85 903.00 594.50 C 889.98 594.50 876.96 594.50 863.94 594.49 C 863.94 578.85 863.93 563.21 863.94 547.57 Z" />
<path fill="#c1ac6d" opacity="1.00" d=" M 1048.45 594.50 C 1048.43 578.85 1048.43 563.21 1048.45 547.56 C 1061.46 547.57 1074.48 547.56 1087.50 547.57 C 1087.50 563.21 1087.50 578.85 1087.50 594.50 C 1074.48 594.50 1061.46 594.49 1048.45 594.50 Z" />
<path fill="#c1ac6d" opacity="1.00" d=" M 1094.45 594.50 C 1094.43 578.85 1094.43 563.21 1094.45 547.56 C 1107.44 547.57 1120.44 547.56 1133.43 547.57 C 1133.44 563.21 1133.44 578.85 1133.43 594.50 C 1120.44 594.51 1107.44 594.49 1094.45 594.50 Z" />
<path fill="#c1ac6d" opacity="1.00" d=" M 129.00 602.82 C 142.02 602.81 155.04 602.81 168.06 602.82 C 168.06 618.46 168.06 634.10 168.06 649.75 C 155.04 649.76 142.02 649.74 129.01 649.76 C 128.99 634.11 129.00 618.46 129.00 602.82 Z" />
<path fill="#c1ac6d" opacity="1.00" d=" M 174.94 602.82 C 187.96 602.81 200.98 602.81 214.00 602.81 C 214.00 618.46 214.01 634.11 213.99 649.76 C 200.97 649.74 187.96 649.76 174.94 649.75 C 174.94 634.10 174.94 618.46 174.94 602.82 Z" />
<path fill="#c1ac6d" opacity="1.00" d=" M 474.00 602.82 C 487.02 602.81 500.04 602.81 513.06 602.82 C 513.06 618.46 513.06 634.10 513.06 649.75 C 500.04 649.76 487.02 649.74 474.01 649.76 C 473.99 634.11 474.00 618.46 474.00 602.82 Z" />
<path fill="#c1ac6d" opacity="1.00" d=" M 519.94 602.82 C 532.96 602.81 545.98 602.81 559.00 602.82 C 559.00 618.46 559.01 634.11 558.99 649.76 C 545.97 649.74 532.96 649.76 519.94 649.75 C 519.93 634.10 519.93 618.46 519.94 602.82 Z" />
<path fill="#c1ac6d" opacity="1.00" d=" M 818.00 602.82 C 831.02 602.81 844.04 602.81 857.06 602.82 C 857.06 618.46 857.06 634.10 857.06 649.75 C 844.04 649.76 831.02 649.74 818.01 649.76 C 817.99 634.11 818.00 618.46 818.00 602.82 Z" />
<path fill="#c1ac6d" opacity="1.00" d=" M 863.94 602.82 C 876.96 602.81 889.98 602.81 903.00 602.82 C 903.00 618.46 903.01 634.11 902.99 649.76 C 889.97 649.74 876.96 649.76 863.94 649.75 C 863.93 634.10 863.93 618.46 863.94 602.82 Z" />
<path fill="#c1ac6d" opacity="1.00" d=" M 1048.44 649.74 C 1048.45 634.10 1048.42 618.45 1048.45 602.81 C 1061.46 602.82 1074.48 602.81 1087.49 602.82 C 1087.51 618.45 1087.48 634.09 1087.51 649.73 C 1074.48 649.77 1061.46 649.75 1048.44 649.74 Z" />
<path fill="#c1ac6d" opacity="1.00" d=" M 1094.44 649.74 C 1094.45 634.10 1094.42 618.45 1094.45 602.81 C 1107.44 602.82 1120.44 602.81 1133.43 602.82 C 1133.41 618.47 1133.51 634.13 1133.38 649.79 C 1120.40 649.70 1107.42 649.78 1094.44 649.74 Z" />
<path fill="#c1ac6d" opacity="1.00" d=" M 129.00 658.94 C 142.02 658.94 155.04 658.93 168.06 658.94 C 168.06 674.59 168.06 690.23 168.06 705.87 C 155.04 705.88 142.02 705.87 129.01 705.88 C 128.99 690.23 129.00 674.59 129.00 658.94 Z" />
<path fill="#c1ac6d" opacity="1.00" d=" M 174.94 658.94 C 187.96 658.93 200.98 658.94 214.00 658.94 C 214.00 674.59 214.00 690.23 213.99 705.88 C 200.98 705.87 187.96 705.88 174.94 705.87 C 174.93 690.23 174.94 674.59 174.94 658.94 Z" />
<path fill="#c1ac6d" opacity="1.00" d=" M 474.00 658.94 C 487.02 658.94 500.04 658.93 513.06 658.94 C 513.06 674.59 513.06 690.23 513.06 705.87 C 500.04 705.88 487.02 705.87 474.01 705.88 C 473.99 690.23 474.00 674.59 474.00 658.94 Z" />
<path fill="#c1ac6d" opacity="1.00" d=" M 519.94 658.94 C 532.96 658.93 545.98 658.94 559.00 658.94 C 559.00 674.59 559.00 690.23 558.99 705.88 C 545.98 705.87 532.96 705.88 519.94 705.87 C 519.94 690.23 519.94 674.59 519.94 658.94 Z" />
<path fill="#c1ac6d" opacity="1.00" d=" M 818.00 658.94 C 831.02 658.94 844.04 658.93 857.06 658.94 C 857.06 674.59 857.06 690.23 857.06 705.87 C 844.04 705.88 831.02 705.87 818.01 705.88 C 817.99 690.23 818.00 674.59 818.00 658.94 Z" />
<path fill="#c1ac6d" opacity="1.00" d=" M 863.94 658.94 C 876.96 658.93 889.98 658.94 903.00 658.94 C 903.00 674.59 903.00 690.23 902.99 705.88 C 889.98 705.87 876.96 705.88 863.94 705.87 C 863.93 690.23 863.94 674.59 863.94 658.94 Z" />
<path fill="#c1ac6d" opacity="1.00" d=" M 1048.40 659.03 C 1061.43 658.82 1074.46 658.99 1087.49 658.94 C 1087.50 674.59 1087.50 690.23 1087.49 705.88 C 1074.47 705.87 1061.45 705.89 1048.43 705.87 C 1048.41 690.25 1048.49 674.64 1048.40 659.03 Z" />
<path fill="#c1ac6d" opacity="1.00" d=" M 1094.41 659.01 C 1107.41 658.85 1120.42 658.98 1133.43 658.94 C 1133.44 674.59 1133.44 690.23 1133.43 705.88 C 1120.43 705.87 1107.43 705.89 1094.43 705.87 C 1094.42 690.25 1094.47 674.63 1094.41 659.01 Z" />
<path fill="#c1ac6d" opacity="1.00" d=" M 129.01 714.18 C 142.02 714.19 155.04 714.18 168.06 714.19 C 168.07 729.83 168.06 745.48 168.06 761.12 C 155.04 761.13 142.02 761.12 129.00 761.12 C 129.00 745.47 128.99 729.83 129.01 714.18 Z" />
<path fill="#c1ac6d" opacity="1.00" d=" M 174.94 714.19 C 187.96 714.18 200.98 714.19 213.99 714.18 C 214.01 729.83 214.00 745.47 214.00 761.12 C 200.98 761.12 187.96 761.13 174.94 761.12 C 174.94 745.48 174.93 729.83 174.94 714.19 Z" />
<path fill="#c1ac6d" opacity="1.00" d=" M 474.01 714.18 C 487.02 714.19 500.04 714.18 513.05 714.19 C 513.07 729.83 513.06 745.47 513.06 761.12 C 500.04 761.13 487.02 761.12 474.00 761.12 C 474.00 745.47 473.99 729.83 474.01 714.18 Z" />
<path fill="#c1ac6d" opacity="1.00" d=" M 519.94 714.19 C 532.96 714.18 545.98 714.19 558.99 714.18 C 559.01 729.83 559.00 745.47 559.00 761.12 C 545.98 761.12 532.96 761.13 519.94 761.12 C 519.94 745.48 519.93 729.83 519.94 714.19 Z" />
<path fill="#c1ac6d" opacity="1.00" d=" M 704.44 714.19 C 717.45 714.17 730.47 714.19 743.49 714.18 C 743.51 729.83 743.50 745.47 743.49 761.12 C 730.47 761.12 717.45 761.14 704.44 761.11 C 704.44 745.47 704.44 729.83 704.44 714.19 Z" />
<path fill="#c1ac6d" opacity="1.00" d=" M 750.43 714.19 C 763.43 714.17 776.43 714.19 789.43 714.19 C 789.44 729.83 789.44 745.47 789.43 761.12 C 776.43 761.12 763.43 761.14 750.44 761.11 C 750.44 745.47 750.44 729.83 750.43 714.19 Z" />
<path fill="#c1ac6d" opacity="1.00" d=" M 818.01 714.18 C 831.02 714.19 844.04 714.18 857.05 714.19 C 857.06 729.83 857.06 745.48 857.06 761.12 C 844.04 761.13 831.02 761.12 818.00 761.12 C 818.00 745.47 817.99 729.83 818.01 714.18 Z" />
<path fill="#c1ac6d" opacity="1.00" d=" M 863.95 714.19 C 876.96 714.18 889.97 714.19 902.99 714.18 C 903.01 729.83 903.00 745.47 903.00 761.12 C 889.98 761.12 876.96 761.13 863.94 761.12 C 863.94 745.47 863.93 729.83 863.95 714.19 Z" />
<path fill="#c1ac6d" opacity="1.00" d=" M 1048.43 714.20 C 1061.45 714.17 1074.47 714.20 1087.49 714.18 C 1087.51 729.83 1087.50 745.47 1087.49 761.12 C 1074.53 760.92 1061.25 761.54 1048.48 760.81 C 1048.37 745.27 1048.47 729.73 1048.43 714.20 Z" />
<path fill="#c1ac6d" opacity="1.00" d=" M 1094.43 714.20 C 1107.43 714.17 1120.43 714.19 1133.43 714.18 C 1133.44 729.83 1133.44 745.47 1133.43 761.12 C 1120.45 761.14 1107.47 761.09 1094.49 761.15 C 1094.36 745.50 1094.47 729.84 1094.43 714.20 Z" />
<path fill="#c1ac6d" opacity="1.00" d=" M 129.02 769.43 C 142.02 769.45 155.02 769.43 168.03 769.43 C 168.10 785.08 168.05 800.72 168.06 816.37 C 155.04 816.38 142.02 816.37 129.00 816.37 C 129.01 800.72 128.98 785.08 129.02 769.43 Z" />
<path fill="#c1ac6d" opacity="1.00" d=" M 175.00 769.42 C 187.99 769.46 200.99 769.44 213.98 769.42 C 214.03 785.07 213.99 800.72 214.00 816.37 C 200.98 816.37 187.96 816.38 174.94 816.37 C 174.98 800.72 174.85 785.06 175.00 769.42 Z" />
<path fill="#c1ac6d" opacity="1.00" d=" M 220.80 769.57 C 233.83 769.25 246.89 769.53 259.93 769.43 C 259.95 785.08 259.93 800.72 259.94 816.37 C 246.92 816.38 233.90 816.38 220.88 816.37 C 220.82 800.77 220.98 785.17 220.80 769.57 Z" />
<path fill="#c1ac6d" opacity="1.00" d=" M 266.80 769.56 C 279.82 769.27 292.85 769.52 305.87 769.43 C 305.89 785.08 305.87 800.72 305.88 816.37 C 292.88 816.38 279.88 816.38 266.88 816.37 C 266.82 800.76 266.97 785.16 266.80 769.56 Z" />
<path fill="#c1ac6d" opacity="1.00" d=" M 313.50 769.45 C 326.52 769.43 339.54 769.44 352.56 769.44 C 352.56 785.09 352.58 800.73 352.55 816.38 C 339.53 816.37 326.52 816.38 313.50 816.37 C 313.49 800.73 313.50 785.09 313.50 769.45 Z" />
<path fill="#c1ac6d" opacity="1.00" d=" M 359.44 769.44 C 372.46 769.44 385.48 769.43 398.50 769.45 C 398.49 785.09 398.51 800.73 398.50 816.37 C 385.48 816.38 372.46 816.37 359.45 816.38 C 359.42 800.73 359.44 785.09 359.44 769.44 Z" />
<path fill="#c1ac6d" opacity="1.00" d=" M 405.44 769.44 C 418.44 769.44 431.44 769.42 444.44 769.45 C 444.43 785.09 444.44 800.73 444.43 816.37 C 431.44 816.38 418.44 816.37 405.45 816.38 C 405.43 800.73 405.44 785.08 405.44 769.44 Z" />
<path fill="#c1ac6d" opacity="1.00" d=" M 520.01 769.41 C 533.00 769.47 545.99 769.43 558.99 769.43 C 559.02 785.08 558.99 800.72 559.00 816.37 C 545.98 816.37 532.96 816.38 519.94 816.37 C 519.98 800.72 519.84 785.06 520.01 769.41 Z" />
<path fill="#c1ac6d" opacity="1.00" d=" M 565.83 769.53 C 578.86 769.31 591.89 769.51 604.92 769.43 C 604.95 785.08 604.93 800.72 604.94 816.37 C 591.92 816.37 578.90 816.38 565.88 816.37 C 565.84 800.75 565.94 785.14 565.83 769.53 Z" />
<path fill="#c1ac6d" opacity="1.00" d=" M 611.96 769.40 C 624.93 769.49 637.90 769.41 650.87 769.43 C 650.89 785.08 650.87 800.72 650.88 816.37 C 637.88 816.38 624.88 816.38 611.88 816.37 C 611.93 800.71 611.76 785.05 611.96 769.40 Z" />
<path fill="#c1ac6d" opacity="1.00" d=" M 658.50 769.45 C 671.52 769.42 684.54 769.44 697.56 769.44 C 697.56 785.09 697.58 800.73 697.55 816.38 C 684.53 816.37 671.52 816.38 658.50 816.37 C 658.49 800.73 658.50 785.09 658.50 769.45 Z" />
<path fill="#c1ac6d" opacity="1.00" d=" M 704.44 769.44 C 717.46 769.44 730.48 769.42 743.50 769.45 C 743.49 785.09 743.51 800.73 743.49 816.37 C 730.48 816.38 717.46 816.37 704.45 816.38 C 704.42 800.73 704.44 785.08 704.44 769.44 Z" />
<path fill="#c1ac6d" opacity="1.00" d=" M 818.08 769.39 C 831.07 769.50 844.06 769.40 857.05 769.44 C 857.08 785.08 857.06 800.72 857.06 816.37 C 844.04 816.38 831.02 816.37 818.00 816.37 C 818.05 800.71 817.89 785.04 818.08 769.39 Z" />
<path fill="#c1ac6d" opacity="1.00" d=" M 863.96 769.44 C 876.97 769.43 889.97 769.45 902.98 769.43 C 903.02 785.08 902.99 800.72 903.00 816.37 C 889.98 816.37 876.96 816.38 863.94 816.37 C 863.94 800.72 863.91 785.08 863.96 769.44 Z" />
<path fill="#c1ac6d" opacity="1.00" d=" M 909.83 769.53 C 922.85 769.31 935.89 769.50 948.93 769.43 C 948.95 785.08 948.93 800.72 948.94 816.37 C 935.92 816.37 922.90 816.38 909.88 816.37 C 909.84 800.75 909.94 785.14 909.83 769.53 Z" />
<path fill="#c1ac6d" opacity="1.00" d=" M 955.81 769.55 C 968.82 769.28 981.85 769.52 994.87 769.43 C 994.89 785.08 994.87 800.72 994.88 816.37 C 981.88 816.38 968.88 816.38 955.88 816.37 C 955.83 800.76 955.96 785.16 955.81 769.55 Z" />
<path fill="#c1ac6d" opacity="1.00" d=" M 1002.50 769.45 C 1015.52 769.42 1028.54 769.44 1041.56 769.44 C 1041.56 785.09 1041.58 800.73 1041.55 816.38 C 1028.53 816.37 1015.52 816.38 1002.51 816.37 C 1002.49 800.73 1002.51 785.09 1002.50 769.45 Z" />
<path fill="#c1ac6d" opacity="1.00" d=" M 1048.44 769.44 C 1061.46 769.44 1074.48 769.42 1087.50 769.45 C 1087.49 785.09 1087.51 800.73 1087.50 816.37 C 1074.48 816.38 1061.46 816.37 1048.45 816.38 C 1048.42 800.73 1048.44 785.08 1048.44 769.44 Z" />
</g>
</svg>
