<?xml version="1.0" encoding="UTF-8" ?>
<!DOCTYPE svg PUBLIC "-//W3C//DTD SVG 1.1//EN" "http://www.w3.org/Graphics/SVG/1.1/DTD/svg11.dtd">
<svg width="1276pt" height="1276pt" viewBox="0 0 1276 1276" version="1.1" xmlns="http://www.w3.org/2000/svg">
<g id="#ffffffff">
<path fill="#ffffff" opacity="1.00" d=" M 136.01 271.09 C 163.89 271.03 191.76 271.01 219.63 271.10 C 233.54 285.26 247.90 299.06 261.62 313.36 C 261.55 334.07 261.72 354.78 261.53 375.48 C 275.79 375.51 290.07 375.64 304.33 375.42 C 303.83 351.24 304.45 327.02 304.01 302.84 C 314.56 292.19 325.07 281.42 335.89 271.09 C 370.29 271.03 404.70 271.02 439.10 271.09 C 449.45 280.69 459.10 291.18 469.36 300.94 C 468.96 291.00 469.36 281.05 469.14 271.11 C 569.96 270.98 670.79 271.07 771.61 271.06 C 782.23 281.63 792.75 292.31 803.43 302.82 C 802.92 292.26 803.41 281.68 803.16 271.11 C 858.51 270.98 913.86 271.07 969.21 271.06 C 969.02 281.62 969.56 292.20 968.91 302.73 C 979.95 292.59 990.22 281.52 1000.99 271.04 C 1045.99 271.09 1090.98 271.00 1135.98 271.09 C 1135.94 316.37 1135.89 361.65 1136.01 406.93 C 1125.70 417.29 1115.35 427.61 1105.01 437.95 C 931.44 437.94 757.86 437.98 584.29 437.92 C 573.89 427.69 563.78 417.15 553.22 407.08 C 543.20 417.51 532.76 427.54 522.64 437.88 C 393.77 438.02 264.89 437.95 136.02 437.91 C 136.07 382.30 136.08 326.70 136.01 271.09 M 158.02 292.08 C 158.07 333.69 158.08 375.30 158.02 416.91 C 199.36 416.96 240.71 417.01 282.06 416.89 C 282.10 410.01 281.89 403.14 281.99 396.27 C 254.48 396.30 226.96 396.17 199.44 396.33 C 199.32 361.58 199.39 326.83 199.41 292.08 C 185.62 292.04 171.82 292.02 158.02 292.08 M 344.35 292.11 C 337.48 299.03 330.59 305.94 323.71 312.85 C 323.82 340.52 323.64 368.20 323.80 395.87 C 330.90 402.84 337.80 410.02 344.93 416.97 C 372.94 416.92 400.95 416.97 428.96 416.95 C 435.82 409.88 443.23 403.19 449.66 395.81 C 449.62 368.31 449.54 340.80 449.69 313.30 C 442.73 306.19 435.65 299.20 428.66 292.11 C 400.56 292.01 372.45 292.02 344.35 292.11 M 490.47 292.08 C 490.52 333.69 490.52 375.31 490.47 416.92 C 498.00 416.99 505.53 416.91 513.07 416.97 C 526.67 403.60 539.89 389.84 553.54 376.52 C 566.68 390.03 580.02 403.35 593.39 416.63 C 600.86 417.37 608.68 416.75 616.29 416.94 C 616.24 375.31 616.26 333.69 616.28 292.07 C 602.13 292.03 587.98 292.05 573.83 292.06 C 573.91 312.90 573.76 333.74 573.90 354.58 C 566.78 347.84 560.15 340.57 553.00 333.88 C 546.37 341.03 539.32 347.76 532.48 354.69 C 532.99 333.85 532.46 312.98 532.75 292.13 C 518.66 291.97 504.56 292.06 490.47 292.08 M 656.94 292.11 C 657.03 333.70 657.01 375.30 656.95 416.89 C 671.19 416.98 685.44 417.01 699.68 416.87 C 699.46 399.89 699.83 382.90 699.50 365.92 C 716.64 382.65 733.24 399.98 750.35 416.77 C 761.04 417.18 771.80 416.86 782.53 416.93 C 782.47 410.21 782.51 403.49 782.52 396.77 C 781.89 395.38 780.54 394.51 779.56 393.40 C 766.98 380.78 754.41 368.13 741.85 355.49 C 748.10 355.64 754.36 355.53 760.62 355.57 C 767.90 348.22 775.25 340.92 782.52 333.56 C 782.52 326.62 782.43 319.68 782.57 312.75 C 775.75 305.81 768.86 298.93 761.98 292.05 C 726.97 292.10 691.95 291.97 656.94 292.11 M 823.29 292.16 C 823.45 333.73 823.42 375.29 823.31 416.86 C 865.43 417.03 907.55 416.97 949.67 416.89 C 949.59 410.00 949.58 403.11 949.68 396.22 C 921.73 396.09 893.78 396.17 865.83 396.18 C 865.84 382.51 865.87 368.84 865.82 355.17 C 879.79 355.16 893.77 355.12 907.75 355.19 C 907.83 347.99 907.51 340.78 907.93 333.60 C 893.84 333.33 879.74 333.64 865.65 333.44 C 865.77 326.77 865.84 320.09 865.61 313.43 C 893.58 313.09 921.58 313.27 949.56 313.34 C 949.74 306.27 949.50 299.20 949.68 292.13 C 907.55 292.03 865.42 291.95 823.29 292.16 M 990.44 312.45 C 990.56 319.76 990.47 327.07 990.49 334.37 C 996.69 340.56 1002.85 346.80 1009.04 353.00 C 1009.89 353.71 1010.52 354.83 1011.67 355.15 C 1032.34 355.21 1053.01 355.06 1073.68 355.22 C 1073.41 368.90 1073.90 382.60 1073.44 396.26 C 1045.79 396.02 1018.13 396.21 990.47 396.17 C 990.50 403.09 990.52 410.00 990.47 416.92 C 1018.99 416.98 1047.52 416.93 1076.04 416.95 C 1082.55 416.77 1089.19 417.30 1095.64 416.69 C 1102.17 410.26 1108.70 403.80 1115.04 397.17 C 1114.87 382.73 1114.92 368.29 1115.02 353.85 C 1108.25 347.03 1101.52 340.15 1094.64 333.45 C 1074.07 333.56 1053.50 333.47 1032.94 333.50 C 1033.03 326.75 1033.09 320.01 1033.02 313.27 C 1060.35 313.25 1087.68 313.28 1115.01 313.25 C 1114.89 306.19 1114.95 299.14 1114.98 292.08 C 1080.25 291.99 1045.52 292.11 1010.79 292.02 C 1003.95 298.77 997.15 305.57 990.44 312.45 Z" />
<path fill="#ffffff" opacity="1.00" d=" M 365.92 313.23 C 379.83 313.40 393.74 313.05 407.64 313.41 C 407.35 340.90 407.53 368.39 407.55 395.88 C 393.65 396.13 379.72 396.08 365.81 395.90 C 365.94 368.35 365.72 340.79 365.92 313.23 Z" />
<path fill="#ffffff" opacity="1.00" d=" M 699.21 313.30 C 713.10 313.23 726.99 313.25 740.88 313.29 C 740.93 320.00 740.63 326.72 741.02 333.43 C 727.04 333.52 713.05 333.59 699.07 333.39 C 699.48 326.70 699.19 320.00 699.21 313.30 Z" />
</g>
<g id="#000000ff">
<path fill="#000000" opacity="1.00" d=" M 158.02 292.08 C 171.82 292.02 185.62 292.04 199.41 292.08 C 199.39 326.83 199.32 361.58 199.44 396.33 C 226.96 396.17 254.48 396.30 281.99 396.27 C 281.89 403.14 282.10 410.01 282.06 416.89 C 240.71 417.01 199.36 416.96 158.02 416.91 C 158.08 375.30 158.07 333.69 158.02 292.08 Z" />
<path fill="#000000" opacity="1.00" d=" M 344.35 292.11 C 372.45 292.02 400.56 292.01 428.66 292.11 C 435.65 299.20 442.73 306.19 449.69 313.30 C 449.54 340.80 449.62 368.31 449.66 395.81 C 443.23 403.19 435.82 409.88 428.96 416.95 C 400.95 416.97 372.94 416.92 344.93 416.97 C 337.80 410.02 330.90 402.84 323.80 395.87 C 323.64 368.20 323.82 340.52 323.71 312.85 C 330.59 305.94 337.48 299.03 344.35 292.11 M 365.92 313.23 C 365.72 340.79 365.94 368.35 365.81 395.90 C 379.72 396.08 393.65 396.13 407.55 395.88 C 407.53 368.39 407.35 340.90 407.64 313.41 C 393.74 313.05 379.83 313.40 365.92 313.23 Z" />
<path fill="#000000" opacity="1.00" d=" M 490.47 292.08 C 504.56 292.06 518.66 291.97 532.75 292.13 C 532.46 312.98 532.99 333.85 532.48 354.69 C 539.32 347.76 546.37 341.03 553.00 333.88 C 560.15 340.57 566.78 347.84 573.90 354.58 C 573.76 333.74 573.91 312.90 573.83 292.06 C 587.98 292.05 602.13 292.03 616.28 292.07 C 616.26 333.69 616.24 375.31 616.29 416.94 C 608.68 416.75 600.86 417.37 593.39 416.63 C 580.02 403.35 566.68 390.03 553.54 376.52 C 539.89 389.84 526.67 403.60 513.07 416.97 C 505.53 416.91 498.00 416.99 490.47 416.92 C 490.52 375.31 490.52 333.69 490.47 292.08 Z" />
<path fill="#000000" opacity="1.00" d=" M 656.94 292.11 C 691.95 291.97 726.97 292.10 761.98 292.05 C 768.86 298.93 775.75 305.81 782.57 312.75 C 782.43 319.68 782.52 326.62 782.52 333.56 C 775.25 340.92 767.90 348.22 760.62 355.57 C 754.36 355.53 748.10 355.64 741.85 355.49 C 754.41 368.13 766.98 380.78 779.56 393.40 C 780.54 394.51 781.89 395.38 782.52 396.77 C 782.51 403.49 782.47 410.21 782.53 416.93 C 771.80 416.86 761.04 417.18 750.35 416.77 C 733.24 399.98 716.64 382.65 699.50 365.92 C 699.83 382.90 699.46 399.89 699.68 416.87 C 685.44 417.01 671.19 416.98 656.95 416.89 C 657.01 375.30 657.03 333.70 656.94 292.11 M 699.21 313.30 C 699.19 320.00 699.48 326.70 699.07 333.39 C 713.05 333.59 727.04 333.52 741.02 333.43 C 740.63 326.72 740.93 320.00 740.88 313.29 C 726.99 313.25 713.10 313.23 699.21 313.30 Z" />
<path fill="#000000" opacity="1.00" d=" M 823.29 292.16 C 865.42 291.95 907.55 292.03 949.68 292.13 C 949.50 299.20 949.74 306.27 949.56 313.34 C 921.58 313.27 893.58 313.09 865.61 313.43 C 865.84 320.09 865.77 326.77 865.65 333.44 C 879.74 333.64 893.84 333.33 907.93 333.60 C 907.51 340.78 907.83 347.99 907.75 355.19 C 893.77 355.12 879.79 355.16 865.82 355.17 C 865.87 368.84 865.84 382.51 865.83 396.18 C 893.78 396.17 921.73 396.09 949.68 396.22 C 949.58 403.11 949.59 410.00 949.67 416.89 C 907.55 416.97 865.43 417.03 823.31 416.86 C 823.42 375.29 823.45 333.73 823.29 292.16 Z" />
<path fill="#000000" opacity="1.00" d=" M 990.44 312.45 C 997.15 305.57 1003.95 298.77 1010.79 292.02 C 1045.52 292.11 1080.25 291.99 1114.98 292.08 C 1114.95 299.14 1114.89 306.19 1115.01 313.25 C 1087.68 313.28 1060.35 313.25 1033.02 313.27 C 1033.09 320.01 1033.03 326.75 1032.94 333.50 C 1053.50 333.47 1074.07 333.56 1094.64 333.45 C 1101.52 340.15 1108.25 347.03 1115.02 353.85 C 1114.92 368.29 1114.87 382.73 1115.04 397.17 C 1108.70 403.80 1102.17 410.26 1095.64 416.69 C 1089.19 417.30 1082.55 416.77 1076.04 416.95 C 1047.52 416.93 1018.99 416.98 990.47 416.92 C 990.52 410.00 990.50 403.09 990.47 396.17 C 1018.13 396.21 1045.79 396.02 1073.44 396.26 C 1073.90 382.60 1073.41 368.90 1073.68 355.22 C 1053.01 355.06 1032.34 355.21 1011.67 355.15 C 1010.52 354.83 1009.89 353.71 1009.04 353.00 C 1002.85 346.80 996.69 340.56 990.49 334.37 C 990.47 327.07 990.56 319.76 990.44 312.45 Z" />
<path fill="#000000" opacity="1.00" d=" M 202.04 569.06 C 242.69 569.00 283.34 569.15 323.99 568.99 C 339.86 584.60 355.61 600.34 371.46 615.98 C 398.49 642.63 425.31 669.51 452.35 696.14 C 452.06 653.81 452.32 611.48 452.23 569.15 C 477.17 568.92 502.11 569.12 527.05 569.05 C 543.42 569.19 559.87 568.78 576.20 569.25 C 576.46 587.74 576.25 606.25 576.31 624.75 C 576.30 658.03 576.31 691.32 576.32 724.61 C 576.27 753.39 576.35 782.16 576.29 810.94 C 576.30 849.56 576.32 888.18 576.29 926.80 C 576.32 932.15 576.25 937.51 576.33 942.87 C 535.01 943.00 493.70 943.00 452.39 942.87 C 452.52 922.26 452.43 901.65 452.44 881.04 C 450.52 879.29 448.73 877.43 446.92 875.59 C 406.49 835.62 366.25 795.46 325.82 755.50 C 325.90 797.29 325.86 839.08 325.85 880.87 C 325.90 901.56 325.83 922.25 325.88 942.95 C 284.60 942.94 243.32 942.95 202.04 942.94 C 202.06 934.79 202.06 926.65 202.04 918.50 C 202.04 882.15 202.09 845.79 202.02 809.43 C 202.11 779.17 202.00 748.90 202.07 718.63 C 202.03 682.84 202.06 647.05 202.06 611.26 C 202.04 597.19 202.08 583.13 202.04 569.06 Z" />
<path fill="#000000" opacity="1.00" d=" M 704.63 569.04 C 744.79 569.07 784.95 569.04 825.11 569.06 C 826.73 568.78 827.68 570.26 828.72 571.21 C 849.52 592.01 870.66 612.49 891.27 633.48 C 913.21 612.37 934.51 590.56 956.34 569.32 C 965.85 568.68 975.48 569.24 985.04 569.05 C 1016.35 569.05 1047.65 569.05 1078.96 569.06 C 1078.93 586.40 1078.95 603.75 1078.94 621.10 C 1078.92 624.06 1078.93 627.02 1079.00 629.99 C 1047.57 661.35 1015.93 692.50 984.43 723.81 C 986.78 725.81 988.93 728.02 991.10 730.23 C 1020.35 759.25 1049.50 788.37 1078.89 817.26 C 1078.99 821.57 1078.91 825.90 1078.91 830.22 C 1078.99 862.57 1078.93 894.93 1078.94 927.28 C 1078.95 932.49 1078.94 937.71 1078.96 942.93 C 1037.68 942.96 996.40 942.94 955.13 942.95 C 955.16 930.94 955.11 918.93 955.15 906.93 C 955.15 886.59 955.08 866.26 955.19 845.92 C 933.93 824.64 912.43 803.60 891.26 782.23 C 871.32 802.29 851.07 822.05 831.05 842.03 C 829.62 843.58 827.74 844.84 826.78 846.76 C 826.75 867.19 826.80 887.63 826.76 908.06 C 826.80 919.69 826.75 931.32 826.78 942.95 C 786.09 942.90 745.39 943.03 704.69 942.89 C 704.72 937.13 704.70 931.38 704.69 925.63 C 704.72 889.72 704.65 853.80 704.75 817.88 C 705.91 816.79 707.09 815.72 708.23 814.61 C 737.19 785.69 766.28 756.89 795.32 728.05 C 796.46 726.93 797.65 725.86 798.86 724.81 C 767.60 693.61 736.36 662.38 704.79 631.51 C 704.48 610.69 704.82 589.86 704.63 569.04 Z" />
</g>
<g id="#ff8500ff">
<path fill="#ff8500" opacity="1.00" d=" M 139.04 507.07 C 472.35 507.04 805.65 507.05 1138.96 507.07 C 1138.89 557.18 1139.03 607.30 1138.87 657.41 C 1137.41 653.06 1138.10 648.44 1138.00 643.95 C 1137.95 636.69 1138.14 629.41 1137.80 622.16 C 1136.48 621.79 1135.13 621.62 1133.79 621.60 C 1133.39 620.74 1133.03 619.90 1132.62 619.08 C 1132.39 619.63 1131.95 620.71 1131.73 621.26 C 1127.88 619.91 1123.70 620.88 1119.72 620.60 C 1119.46 619.83 1119.23 619.08 1119.00 618.34 C 1116.67 620.75 1113.23 621.03 1110.07 620.88 C 1109.49 621.07 1108.94 621.27 1108.40 621.49 C 1107.99 620.66 1107.60 619.84 1107.22 619.03 C 1106.53 619.52 1105.86 620.02 1105.20 620.54 C 1104.43 619.66 1103.66 618.80 1102.92 617.95 C 1102.12 619.17 1101.37 620.44 1100.44 621.57 C 1098.85 622.21 1097.09 621.68 1095.45 621.66 C 1094.79 622.32 1094.15 622.99 1093.52 623.67 C 1092.58 622.46 1091.67 621.25 1090.75 620.06 C 1090.10 620.66 1089.46 621.27 1088.83 621.89 C 1089.80 622.95 1090.78 624.01 1091.75 625.08 C 1087.26 624.42 1083.46 621.55 1078.94 621.10 C 1078.95 603.75 1078.93 586.40 1078.96 569.06 C 1047.65 569.05 1016.35 569.05 985.04 569.05 C 975.48 569.24 965.85 568.68 956.34 569.32 C 934.51 590.56 913.21 612.37 891.27 633.48 C 870.66 612.49 849.52 592.01 828.72 571.21 C 827.68 570.26 826.73 568.78 825.11 569.06 C 784.95 569.04 744.79 569.07 704.63 569.04 C 704.82 589.86 704.48 610.69 704.79 631.51 C 704.58 631.31 704.17 630.92 703.96 630.73 C 703.66 628.04 703.74 625.34 703.79 622.65 C 701.95 622.52 700.20 621.94 698.42 621.52 C 695.95 621.82 694.42 624.44 691.89 624.46 C 692.42 623.67 692.97 622.89 693.53 622.13 C 693.34 621.65 692.96 620.69 692.78 620.21 C 691.83 621.52 690.89 622.83 689.96 624.14 C 687.04 623.36 684.61 621.51 681.85 620.39 C 681.59 622.13 681.20 623.87 680.17 625.34 C 679.20 624.93 678.24 624.52 677.28 624.13 C 677.51 623.77 677.96 623.04 678.19 622.68 C 678.02 622.24 677.87 621.80 677.72 621.38 C 677.97 621.01 678.47 620.29 678.72 619.93 C 676.01 619.67 673.95 621.45 671.70 622.61 C 669.93 622.51 668.67 620.96 667.00 620.54 C 665.40 621.32 664.10 622.59 662.57 623.49 C 658.76 624.69 654.39 623.11 652.57 619.46 C 652.19 620.08 651.83 620.71 651.47 621.34 C 648.87 621.56 646.85 623.45 644.28 623.75 C 642.44 624.24 640.40 623.52 638.78 624.78 C 638.69 621.11 633.86 618.35 630.89 620.73 C 632.27 621.66 633.72 622.52 635.23 623.25 C 633.51 623.55 631.81 623.94 630.13 624.39 C 628.55 621.91 625.65 620.66 622.82 621.55 C 621.64 622.33 620.83 623.54 619.89 624.57 C 618.91 623.88 617.92 623.20 616.94 622.53 C 614.40 623.51 611.67 623.25 609.02 623.39 C 608.39 624.13 608.02 625.06 607.58 625.92 C 606.98 624.44 606.37 622.98 605.76 621.52 C 602.75 621.60 599.60 621.85 596.89 620.28 C 595.68 621.85 594.54 623.95 592.43 624.31 C 590.55 624.02 588.71 623.50 586.83 623.27 C 586.62 622.50 586.41 621.74 586.21 620.99 C 585.33 621.36 584.46 621.73 583.60 622.11 C 583.60 622.90 583.62 623.70 583.64 624.51 C 581.19 624.42 578.74 624.50 576.31 624.75 C 576.25 606.25 576.46 587.74 576.20 569.25 C 559.87 568.78 543.42 569.19 527.05 569.05 C 502.11 569.12 477.17 568.92 452.23 569.15 L 451.27 569.45 C 450.45 583.54 451.38 597.70 450.79 611.81 C 448.52 613.64 446.59 611.20 444.87 609.89 C 443.00 611.72 441.55 613.90 440.09 616.06 C 438.84 614.81 437.60 613.57 436.34 612.36 C 435.45 613.24 434.57 614.13 433.70 615.04 C 434.54 610.99 429.64 610.60 427.09 612.20 C 425.02 611.40 422.96 612.08 421.04 612.93 C 419.02 612.01 417.03 611.04 415.04 610.09 C 413.60 610.98 412.22 612.03 410.62 612.63 C 408.64 612.58 406.55 612.19 404.89 613.58 C 402.32 613.10 399.91 611.95 399.30 609.17 C 399.14 609.79 398.81 611.02 398.65 611.64 C 395.60 609.26 391.52 609.51 388.29 607.53 C 388.13 609.06 389.11 611.26 387.61 612.30 C 385.77 612.74 383.32 612.46 383.15 614.97 C 381.80 613.49 380.38 612.08 378.93 610.71 C 376.93 611.79 377.48 613.98 377.62 615.85 C 375.58 616.38 373.52 615.94 371.46 615.98 C 355.61 600.34 339.86 584.60 323.99 568.99 C 283.34 569.15 242.69 569.00 202.04 569.06 C 202.08 583.13 202.04 597.19 202.06 611.26 C 201.63 611.31 200.79 611.41 200.36 611.46 C 197.93 607.50 192.42 610.09 191.31 613.79 C 191.00 612.80 190.68 611.82 190.35 610.85 C 187.29 610.61 184.21 609.03 181.16 610.12 C 178.51 610.91 175.24 609.68 173.55 612.53 C 172.87 609.41 168.91 609.85 167.80 612.41 C 165.40 610.09 162.76 612.83 160.22 613.35 C 158.91 613.41 157.66 612.91 156.39 612.64 C 157.38 611.68 158.37 610.73 159.35 609.76 C 157.00 608.44 154.72 610.44 152.35 610.48 C 150.20 610.11 148.22 609.13 146.17 608.43 C 145.79 609.80 145.40 611.18 145.01 612.57 C 144.30 612.15 143.59 611.74 142.89 611.34 C 141.95 611.80 141.02 612.26 140.09 612.74 C 139.43 604.71 141.04 596.51 139.18 588.62 C 138.89 561.45 139.15 534.25 139.04 507.07 Z" />
</g>
<g id="#ff7d00ff">
<path fill="#ff7d00" opacity="1.00" d=" M 451.27 569.45 L 452.23 569.15 C 452.32 611.48 452.06 653.81 452.35 696.14 C 425.31 669.51 398.49 642.63 371.46 615.98 C 373.52 615.94 375.58 616.38 377.62 615.85 C 377.48 613.98 376.93 611.79 378.93 610.71 C 380.38 612.08 381.80 613.49 383.15 614.97 C 383.32 612.46 385.77 612.74 387.61 612.30 C 389.11 611.26 388.13 609.06 388.29 607.53 C 391.52 609.51 395.60 609.26 398.65 611.64 C 398.81 611.02 399.14 609.79 399.30 609.17 C 399.91 611.95 402.32 613.10 404.89 613.58 C 406.55 612.19 408.64 612.58 410.62 612.63 C 412.22 612.03 413.60 610.98 415.04 610.09 C 417.03 611.04 419.02 612.01 421.04 612.93 C 422.96 612.08 425.02 611.40 427.09 612.20 C 429.64 610.60 434.54 610.99 433.70 615.04 C 434.57 614.13 435.45 613.24 436.34 612.36 C 437.60 613.57 438.84 614.81 440.09 616.06 C 441.55 613.90 443.00 611.72 444.87 609.89 C 446.59 611.20 448.52 613.64 450.79 611.81 C 451.38 597.70 450.45 583.54 451.27 569.45 Z" />
</g>
<g id="#ff7900ff">
<path fill="#ff7900" opacity="1.00" d=" M 139.18 588.62 C 141.04 596.51 139.43 604.71 140.09 612.74 C 141.02 612.26 141.95 611.80 142.89 611.34 C 143.59 611.74 144.30 612.15 145.01 612.57 C 145.40 611.18 145.79 609.80 146.17 608.43 C 148.22 609.13 150.20 610.11 152.35 610.48 C 154.72 610.44 157.00 608.44 159.35 609.76 C 158.37 610.73 157.38 611.68 156.39 612.64 C 157.66 612.91 158.91 613.41 160.22 613.35 C 162.76 612.83 165.40 610.09 167.80 612.41 C 168.91 609.85 172.87 609.41 173.55 612.53 C 175.24 609.68 178.51 610.91 181.16 610.12 C 184.21 609.03 187.29 610.61 190.35 610.85 C 190.68 611.82 191.00 612.80 191.31 613.79 C 192.42 610.09 197.93 607.50 200.36 611.46 C 200.79 611.41 201.63 611.31 202.06 611.26 C 202.06 647.05 202.03 682.84 202.07 718.63 C 200.70 720.02 199.96 722.85 197.61 722.73 C 194.78 722.19 192.35 720.43 189.52 719.89 C 188.35 720.51 187.33 722.16 185.81 721.50 C 184.95 720.87 184.26 720.04 183.51 719.31 C 182.49 719.98 181.47 720.67 180.46 721.37 C 180.77 721.76 181.38 722.54 181.69 722.93 C 180.27 722.92 178.85 722.92 177.43 722.95 C 178.58 721.65 179.40 720.13 178.10 718.58 C 177.79 719.40 177.49 720.23 177.21 721.06 C 176.33 719.99 175.46 718.92 174.58 717.87 C 174.62 718.68 174.66 719.49 174.70 720.32 C 171.72 720.35 169.01 722.36 166.07 721.97 C 163.62 720.75 161.08 719.30 158.27 720.30 C 158.72 721.09 159.16 721.88 159.61 722.68 C 156.52 722.58 153.43 722.79 150.34 722.70 C 148.53 722.66 147.43 720.92 145.80 720.38 C 143.33 719.37 143.02 723.36 140.46 722.61 C 139.19 716.30 141.08 709.76 139.19 703.55 C 138.97 665.26 138.97 626.92 139.18 588.62 Z" />
</g>
<g id="#ff7800ff">
<path fill="#ff7800" opacity="1.00" d=" M 1100.44 621.57 C 1101.37 620.44 1102.12 619.17 1102.92 617.95 C 1103.66 618.80 1104.43 619.66 1105.20 620.54 C 1105.86 620.02 1106.53 619.52 1107.22 619.03 C 1107.60 619.84 1107.99 620.66 1108.40 621.49 C 1108.94 621.27 1109.49 621.07 1110.07 620.88 C 1113.23 621.03 1116.67 620.75 1119.00 618.34 C 1119.23 619.08 1119.46 619.83 1119.72 620.60 C 1123.70 620.88 1127.88 619.91 1131.73 621.26 C 1131.95 620.71 1132.39 619.63 1132.62 619.08 C 1133.03 619.90 1133.39 620.74 1133.79 621.60 C 1135.13 621.62 1136.48 621.79 1137.80 622.16 C 1138.14 629.41 1137.95 636.69 1138.00 643.95 C 1138.10 648.44 1137.41 653.06 1138.87 657.41 C 1139.44 658.69 1138.18 659.65 1137.42 660.47 C 1116.61 680.99 1096.04 701.76 1075.07 722.12 C 1076.03 723.66 1077.46 724.81 1078.78 726.06 C 1077.82 726.98 1076.91 727.93 1075.98 728.87 C 1075.22 728.00 1074.47 727.13 1073.74 726.27 C 1072.79 727.38 1071.85 728.51 1070.91 729.64 C 1067.59 728.03 1063.91 728.88 1060.48 727.96 C 1059.06 728.47 1057.72 729.15 1056.34 729.72 C 1055.59 728.85 1054.84 727.99 1054.12 727.15 C 1052.60 730.17 1048.04 730.38 1045.60 728.40 C 1043.53 726.12 1040.64 729.46 1038.35 727.65 C 1035.68 725.99 1032.54 726.34 1030.00 728.05 C 1029.11 727.57 1028.24 727.11 1027.38 726.65 C 1026.01 728.27 1024.35 730.20 1021.97 729.82 C 1018.78 729.09 1015.30 728.80 1012.69 726.64 C 1005.64 728.61 998.11 728.06 991.10 730.23 C 988.93 728.02 986.78 725.81 984.43 723.81 C 1015.93 692.50 1047.57 661.35 1079.00 629.99 C 1078.93 627.02 1078.92 624.06 1078.94 621.10 C 1083.46 621.55 1087.26 624.42 1091.75 625.08 C 1090.78 624.01 1089.80 622.95 1088.83 621.89 C 1089.46 621.27 1090.10 620.66 1090.75 620.06 C 1091.67 621.25 1092.58 622.46 1093.52 623.67 C 1094.15 622.99 1094.79 622.32 1095.45 621.66 C 1097.09 621.68 1098.85 622.21 1100.44 621.57 Z" />
</g>
<g id="#ff7700ff">
<path fill="#ff7700" opacity="1.00" d=" M 630.89 620.73 C 633.86 618.35 638.69 621.11 638.78 624.78 C 640.40 623.52 642.44 624.24 644.28 623.75 C 646.85 623.45 648.87 621.56 651.47 621.34 C 651.83 620.71 652.19 620.08 652.57 619.46 C 654.39 623.11 658.76 624.69 662.57 623.49 C 664.10 622.59 665.40 621.32 667.00 620.54 C 668.67 620.96 669.93 622.51 671.70 622.61 C 673.95 621.45 676.01 619.67 678.72 619.93 C 678.47 620.29 677.97 621.01 677.72 621.38 C 677.87 621.80 678.02 622.24 678.19 622.68 C 677.96 623.04 677.51 623.77 677.28 624.13 C 678.24 624.52 679.20 624.93 680.17 625.34 C 681.20 623.87 681.59 622.13 681.85 620.39 C 684.61 621.51 687.04 623.36 689.96 624.14 C 690.89 622.83 691.83 621.52 692.78 620.21 C 692.96 620.69 693.34 621.65 693.53 622.13 C 692.97 622.89 692.42 623.67 691.89 624.46 C 694.42 624.44 695.95 621.82 698.42 621.52 C 700.20 621.94 701.95 622.52 703.79 622.65 C 703.74 625.34 703.66 628.04 703.96 630.73 C 704.17 630.92 704.58 631.31 704.79 631.51 C 736.36 662.38 767.60 693.61 798.86 724.81 C 797.65 725.86 796.46 726.93 795.32 728.05 C 791.51 725.95 788.24 730.08 784.36 728.64 C 778.70 727.28 772.67 730.30 767.31 727.58 C 765.13 728.45 762.81 728.67 760.53 728.10 C 760.86 728.89 761.21 729.71 761.56 730.52 C 758.67 730.71 756.70 728.66 755.67 726.18 C 753.43 726.94 751.51 728.46 751.17 730.92 C 750.21 730.58 749.27 730.25 748.34 729.93 C 748.75 729.35 749.18 728.77 749.62 728.21 C 747.59 728.37 745.62 727.95 743.65 727.62 C 742.85 728.17 742.44 729.07 741.94 729.87 C 740.53 729.13 739.15 728.37 737.79 727.58 C 737.27 727.87 736.76 728.16 736.25 728.47 C 736.12 728.01 735.87 727.09 735.74 726.62 C 735.19 726.86 734.65 727.11 734.12 727.36 C 733.03 726.96 731.95 726.55 730.88 726.17 C 730.49 726.37 729.72 726.78 729.34 726.98 C 729.78 727.96 730.23 728.96 730.70 729.96 C 730.31 730.25 729.53 730.84 729.15 731.13 C 728.50 729.27 727.55 727.50 725.59 726.81 C 725.60 727.81 725.63 728.82 725.68 729.83 C 724.70 728.85 723.72 727.89 722.75 726.94 C 722.62 727.47 722.36 728.54 722.22 729.08 C 720.88 728.55 719.55 728.04 718.23 727.52 C 717.42 728.15 716.62 728.80 715.83 729.45 C 714.60 728.63 713.36 727.83 712.10 727.10 C 710.26 727.99 708.32 728.62 706.34 729.03 C 706.37 728.18 706.41 727.35 706.47 726.52 C 705.21 726.28 704.01 725.86 702.87 725.31 C 701.43 729.20 697.12 727.49 694.35 726.35 C 694.70 727.97 695.12 729.57 695.63 731.15 C 693.62 729.27 691.52 726.93 688.47 727.64 C 688.55 726.80 688.65 725.98 688.77 725.16 C 687.91 725.90 687.13 726.78 686.13 727.34 C 680.67 729.01 674.65 727.45 669.36 729.79 C 668.06 729.13 666.84 727.12 665.22 728.06 C 664.13 728.46 663.11 729.01 662.09 729.53 C 662.00 728.50 661.93 727.48 661.86 726.47 C 658.63 729.62 654.05 726.78 650.25 728.15 C 647.46 729.40 644.45 727.79 641.62 728.76 C 640.26 729.23 638.82 728.93 637.42 729.02 C 636.51 729.54 636.17 730.63 635.59 731.45 C 632.87 729.98 630.68 727.71 628.02 726.18 C 626.57 727.00 625.27 728.06 623.82 728.89 C 621.92 729.28 620.17 728.21 618.44 727.65 C 617.93 728.23 617.42 728.82 616.93 729.42 C 613.27 727.26 608.81 728.02 605.52 730.51 C 605.02 729.66 604.54 728.83 604.05 728.01 C 603.75 728.61 603.46 729.23 603.17 729.86 C 602.80 729.87 602.06 729.89 601.68 729.90 C 601.41 728.91 601.95 727.48 600.97 726.87 C 599.86 727.53 599.51 728.80 599.08 729.94 C 597.22 729.13 595.45 727.91 593.46 727.55 C 592.48 728.63 591.77 729.93 591.03 731.19 C 590.30 726.13 584.15 725.32 580.33 727.43 C 579.14 726.28 577.79 725.31 576.32 724.61 C 576.31 691.32 576.30 658.03 576.31 624.75 C 578.74 624.50 581.19 624.42 583.64 624.51 C 583.62 623.70 583.60 622.90 583.60 622.11 C 584.46 621.73 585.33 621.36 586.21 620.99 C 586.41 621.74 586.62 622.50 586.83 623.27 C 588.71 623.50 590.55 624.02 592.43 624.31 C 594.54 623.95 595.68 621.85 596.89 620.28 C 599.60 621.85 602.75 621.60 605.76 621.52 C 606.37 622.98 606.98 624.44 607.58 625.92 C 608.02 625.06 608.39 624.13 609.02 623.39 C 611.67 623.25 614.40 623.51 616.94 622.53 C 617.92 623.20 618.91 623.88 619.89 624.57 C 620.83 623.54 621.64 622.33 622.82 621.55 C 625.65 620.66 628.55 621.91 630.13 624.39 C 631.81 623.94 633.51 623.55 635.23 623.25 C 633.72 622.52 632.27 621.66 630.89 620.73 Z" />
</g>
<g id="#ff6c00ff">
<path fill="#ff6c00" opacity="1.00" d=" M 139.19 703.55 C 141.08 709.76 139.19 716.30 140.46 722.61 C 143.02 723.36 143.33 719.37 145.80 720.38 C 147.43 720.92 148.53 722.66 150.34 722.70 C 153.43 722.79 156.52 722.58 159.61 722.68 C 159.16 721.88 158.72 721.09 158.27 720.30 C 161.08 719.30 163.62 720.75 166.07 721.97 C 169.01 722.36 171.72 720.35 174.70 720.32 C 174.66 719.49 174.62 718.68 174.58 717.87 C 175.46 718.92 176.33 719.99 177.21 721.06 C 177.49 720.23 177.79 719.40 178.10 718.58 C 179.40 720.13 178.58 721.65 177.43 722.95 C 178.85 722.92 180.27 722.92 181.69 722.93 C 181.38 722.54 180.77 721.76 180.46 721.37 C 181.47 720.67 182.49 719.98 183.51 719.31 C 184.26 720.04 184.95 720.87 185.81 721.50 C 187.33 722.16 188.35 720.51 189.52 719.89 C 192.35 720.43 194.78 722.19 197.61 722.73 C 199.96 722.85 200.70 720.02 202.07 718.63 C 202.00 748.90 202.11 779.17 202.02 809.43 C 199.89 810.85 200.86 814.16 198.10 815.10 C 196.14 811.94 192.58 808.89 188.68 810.76 C 186.04 812.59 182.25 812.06 180.29 814.87 C 180.35 813.89 180.40 812.92 180.46 811.97 C 177.56 811.70 174.99 813.15 172.41 814.23 C 172.92 813.17 173.43 812.11 173.92 811.05 C 172.47 811.91 171.11 812.91 169.85 814.04 C 169.85 812.23 168.95 810.60 167.02 810.36 C 166.35 811.76 165.67 813.16 164.99 814.57 C 162.26 813.38 159.20 814.35 156.35 813.60 C 155.53 812.71 154.71 811.83 153.90 810.96 C 152.11 811.44 151.31 812.95 150.96 814.64 C 150.66 814.42 150.05 813.98 149.75 813.76 C 149.26 813.90 148.78 814.04 148.30 814.20 C 146.63 812.77 144.85 811.26 142.53 811.27 C 142.36 812.40 142.42 813.67 141.69 814.64 C 140.08 816.93 139.83 819.77 139.17 822.42 C 139.01 782.80 138.94 743.17 139.19 703.55 Z" />
<path fill="#ff6c00" opacity="1.00" d=" M 991.10 730.23 C 998.11 728.06 1005.64 728.61 1012.69 726.64 C 1015.30 728.80 1018.78 729.09 1021.97 729.82 C 1024.35 730.20 1026.01 728.27 1027.38 726.65 C 1028.24 727.11 1029.11 727.57 1030.00 728.05 C 1032.54 726.34 1035.68 725.99 1038.35 727.65 C 1040.64 729.46 1043.53 726.12 1045.60 728.40 C 1048.04 730.38 1052.60 730.17 1054.12 727.15 C 1054.84 727.99 1055.59 728.85 1056.34 729.72 C 1057.72 729.15 1059.06 728.47 1060.48 727.96 C 1063.91 728.88 1067.59 728.03 1070.91 729.64 C 1071.85 728.51 1072.79 727.38 1073.74 726.27 C 1074.47 727.13 1075.22 728.00 1075.98 728.87 C 1076.91 727.93 1077.82 726.98 1078.78 726.06 C 1098.68 745.84 1118.49 765.73 1138.54 785.36 C 1137.34 799.48 1138.52 813.70 1137.71 827.85 C 1136.29 827.68 1134.89 827.52 1133.50 827.37 C 1133.29 827.92 1132.87 829.01 1132.66 829.56 C 1131.79 829.14 1130.93 828.73 1130.08 828.33 C 1128.94 829.18 1127.83 830.08 1126.72 830.96 C 1126.23 830.30 1125.76 829.65 1125.31 829.01 C 1125.74 828.31 1126.19 827.62 1126.65 826.94 C 1123.70 826.25 1120.82 827.13 1118.75 829.33 C 1116.37 828.08 1113.72 828.14 1111.14 828.31 C 1108.63 827.18 1105.79 827.74 1103.29 826.66 C 1102.80 827.55 1102.31 828.45 1101.85 829.36 C 1097.34 826.76 1092.17 828.36 1087.34 828.81 C 1087.80 827.80 1088.26 826.80 1088.73 825.82 C 1087.39 826.63 1086.07 827.47 1084.75 828.29 C 1083.25 828.00 1081.73 827.93 1080.24 827.65 C 1079.77 828.49 1079.33 829.35 1078.91 830.22 C 1078.91 825.90 1078.99 821.57 1078.89 817.26 C 1049.50 788.37 1020.35 759.25 991.10 730.23 Z" />
</g>
<g id="#ff6d00ff">
<path fill="#ff6d00" opacity="1.00" d=" M 576.32 724.61 C 577.79 725.31 579.14 726.28 580.33 727.43 C 584.15 725.32 590.30 726.13 591.03 731.19 C 591.77 729.93 592.48 728.63 593.46 727.55 C 595.45 727.91 597.22 729.13 599.08 729.94 C 599.51 728.80 599.86 727.53 600.97 726.87 C 601.95 727.48 601.41 728.91 601.68 729.90 C 602.06 729.89 602.80 729.87 603.17 729.86 C 603.46 729.23 603.75 728.61 604.05 728.01 C 604.54 728.83 605.02 729.66 605.52 730.51 C 608.81 728.02 613.27 727.26 616.93 729.42 C 617.42 728.82 617.93 728.23 618.44 727.65 C 620.17 728.21 621.92 729.28 623.82 728.89 C 625.27 728.06 626.57 727.00 628.02 726.18 C 630.68 727.71 632.87 729.98 635.59 731.45 C 636.17 730.63 636.51 729.54 637.42 729.02 C 638.82 728.93 640.26 729.23 641.62 728.76 C 644.45 727.79 647.46 729.40 650.25 728.15 C 654.05 726.78 658.63 729.62 661.86 726.47 C 661.93 727.48 662.00 728.50 662.09 729.53 C 663.11 729.01 664.13 728.46 665.22 728.06 C 666.84 727.12 668.06 729.13 669.36 729.79 C 674.65 727.45 680.67 729.01 686.13 727.34 C 687.13 726.78 687.91 725.90 688.77 725.16 C 688.65 725.98 688.55 726.80 688.47 727.64 C 691.52 726.93 693.62 729.27 695.63 731.15 C 695.12 729.57 694.70 727.97 694.35 726.35 C 697.12 727.49 701.43 729.20 702.87 725.31 C 704.01 725.86 705.21 726.28 706.47 726.52 C 706.41 727.35 706.37 728.18 706.34 729.03 C 708.32 728.62 710.26 727.99 712.10 727.10 C 713.36 727.83 714.60 728.63 715.83 729.45 C 716.62 728.80 717.42 728.15 718.23 727.52 C 719.55 728.04 720.88 728.55 722.22 729.08 C 722.36 728.54 722.62 727.47 722.75 726.94 C 723.72 727.89 724.70 728.85 725.68 729.83 C 725.63 728.82 725.60 727.81 725.59 726.81 C 727.55 727.50 728.50 729.27 729.15 731.13 C 729.53 730.84 730.31 730.25 730.70 729.96 C 730.23 728.96 729.78 727.96 729.34 726.98 C 729.72 726.78 730.49 726.37 730.88 726.17 C 731.95 726.55 733.03 726.96 734.12 727.36 C 734.65 727.11 735.19 726.86 735.74 726.62 C 735.87 727.09 736.12 728.01 736.25 728.47 C 736.76 728.16 737.27 727.87 737.79 727.58 C 739.15 728.37 740.53 729.13 741.94 729.87 C 742.44 729.07 742.85 728.17 743.65 727.62 C 745.62 727.95 747.59 728.37 749.62 728.21 C 749.18 728.77 748.75 729.35 748.34 729.93 C 749.27 730.25 750.21 730.58 751.17 730.92 C 751.51 728.46 753.43 726.94 755.67 726.18 C 756.70 728.66 758.67 730.71 761.56 730.52 C 761.21 729.71 760.86 728.89 760.53 728.10 C 762.81 728.67 765.13 728.45 767.31 727.58 C 772.67 730.30 778.70 727.28 784.36 728.64 C 788.24 730.08 791.51 725.95 795.32 728.05 C 766.28 756.89 737.19 785.69 708.23 814.61 C 706.13 813.50 704.12 812.22 701.94 811.31 C 700.11 811.71 698.61 812.94 697.02 813.86 C 695.67 813.04 695.29 811.66 695.31 810.17 C 693.60 810.69 691.91 811.22 690.20 811.74 C 690.06 813.13 689.93 814.52 689.83 815.94 C 689.13 814.81 688.66 813.15 686.99 813.60 C 684.18 813.97 681.77 812.61 680.24 810.28 C 680.40 811.78 680.56 813.29 680.77 814.81 C 679.23 813.85 677.43 811.27 675.60 813.11 C 674.25 814.48 672.41 814.21 670.74 813.69 C 670.09 814.05 669.45 814.44 668.81 814.83 C 667.70 814.02 666.60 813.22 665.50 812.44 C 664.31 813.64 662.98 814.79 661.19 814.79 C 660.83 813.88 660.48 812.98 660.14 812.09 C 657.81 812.37 655.96 813.93 653.77 814.57 C 650.15 814.02 646.80 811.82 643.03 812.20 C 641.51 812.78 640.32 813.95 639.03 814.90 C 637.50 813.52 636.14 810.15 633.63 811.60 C 631.73 812.41 631.58 814.68 630.88 816.36 C 630.01 814.99 629.50 813.47 629.10 811.92 C 628.61 812.83 628.11 813.72 627.63 814.64 C 627.14 812.44 623.72 811.05 622.96 813.80 C 620.97 810.46 616.50 812.72 614.64 809.41 C 614.24 810.05 613.84 810.69 613.46 811.35 C 610.55 811.68 607.86 813.14 604.95 813.32 C 601.84 812.87 597.77 809.16 595.68 813.27 C 592.43 812.59 589.36 811.31 586.34 809.99 C 586.89 811.58 587.40 813.19 587.88 814.82 C 587.36 814.84 586.31 814.88 585.79 814.90 C 585.66 812.98 585.24 811.07 583.41 810.08 C 581.43 812.06 578.72 811.64 576.29 810.94 C 576.35 782.16 576.27 753.39 576.32 724.61 Z" />
</g>
<g id="#ff6300ff">
<path fill="#ff6300" opacity="1.00" d=" M 325.82 755.50 C 366.25 795.46 406.49 835.62 446.92 875.59 C 446.19 878.47 443.78 880.02 441.14 880.90 C 439.72 879.18 438.00 877.78 436.25 876.44 C 435.94 877.96 435.63 879.50 435.32 881.04 C 433.28 880.26 431.21 879.36 428.98 879.52 C 426.64 879.66 424.32 878.37 422.05 879.46 C 421.49 878.94 420.95 878.43 420.40 877.94 C 420.77 877.24 421.15 876.54 421.52 875.86 C 420.94 876.00 419.79 876.27 419.21 876.40 C 419.30 877.54 419.39 878.70 419.50 879.87 C 417.57 878.70 415.39 878.12 413.20 877.68 C 411.66 879.72 409.22 880.43 406.81 880.86 C 406.56 880.08 406.32 879.32 406.08 878.57 C 401.76 880.20 396.37 880.26 392.43 877.64 C 391.54 878.67 390.70 879.79 389.63 880.66 C 388.33 880.80 387.22 879.72 386.04 879.30 C 384.46 879.89 382.90 880.59 381.24 880.92 C 380.39 880.05 379.70 879.06 378.95 878.13 C 378.04 879.07 377.14 880.02 376.24 880.98 C 375.86 880.69 375.10 880.12 374.72 879.84 C 372.15 880.76 369.60 879.22 367.00 879.44 C 364.33 879.38 361.86 880.45 359.33 881.07 C 357.23 880.52 355.08 880.62 352.96 881.00 C 350.82 881.53 349.32 879.60 347.74 878.55 C 347.05 878.99 346.38 879.45 345.70 879.92 C 344.86 879.48 344.02 879.06 343.18 878.64 C 342.54 879.27 341.91 879.91 341.28 880.57 C 340.25 879.15 339.22 877.74 338.20 876.33 C 337.22 877.05 336.24 877.78 335.27 878.52 C 336.93 879.09 338.63 879.69 339.97 880.88 C 337.52 881.12 335.23 880.24 333.04 879.30 C 332.34 879.82 331.64 880.35 330.95 880.89 C 330.67 880.31 330.38 879.75 330.10 879.19 C 328.67 879.71 327.25 880.27 325.85 880.87 C 325.86 839.08 325.90 797.29 325.82 755.50 Z" />
</g>
<g id="#ff6100ff">
<path fill="#ff6100" opacity="1.00" d=" M 831.05 842.03 C 851.07 822.05 871.32 802.29 891.26 782.23 C 912.43 803.60 933.93 824.64 955.19 845.92 C 955.08 866.26 955.15 886.59 955.15 906.93 C 954.44 907.59 953.74 908.26 953.05 908.94 C 952.49 908.44 951.95 907.96 951.42 907.50 C 950.92 908.40 950.43 909.31 949.96 910.23 C 949.84 907.73 949.01 905.33 946.81 903.94 C 945.95 906.06 945.62 909.39 942.71 909.52 C 939.26 909.36 935.23 910.19 932.59 907.39 C 931.48 908.14 930.39 908.90 929.30 909.67 C 928.73 908.98 928.16 908.29 927.61 907.62 C 927.06 907.94 926.52 908.28 926.00 908.62 C 925.46 908.24 924.93 907.87 924.42 907.51 C 923.79 908.71 923.14 909.90 922.37 911.02 C 922.58 908.94 922.82 906.79 921.44 905.05 C 920.77 906.58 920.15 908.14 919.55 909.71 C 918.77 908.00 918.04 906.19 916.44 905.11 C 915.52 906.15 914.61 907.20 913.72 908.26 C 912.36 907.03 911.20 904.64 909.01 905.39 C 906.90 906.99 904.87 908.73 902.35 909.65 C 902.16 909.05 901.77 907.86 901.58 907.26 C 900.93 907.99 900.28 908.70 899.67 909.45 C 899.37 909.23 898.79 908.78 898.50 908.56 C 897.90 909.17 897.31 909.78 896.74 910.42 C 893.87 910.16 890.99 910.02 888.12 909.92 C 886.48 907.63 884.16 906.02 882.01 904.29 C 881.33 906.50 881.15 909.81 878.23 910.08 C 878.42 907.69 878.40 905.28 877.77 902.96 C 876.93 904.90 876.18 906.87 875.45 908.86 C 874.88 907.53 874.33 906.22 873.77 904.91 C 871.62 905.94 872.79 908.66 872.71 910.51 C 869.53 910.75 866.24 910.48 863.54 908.60 C 863.07 908.97 862.12 909.71 861.65 910.08 C 861.15 908.28 861.00 906.32 859.84 904.82 C 859.65 905.61 859.49 906.42 859.34 907.24 C 858.25 908.30 857.32 909.52 856.49 910.80 C 854.80 909.33 853.21 907.76 851.84 905.99 C 851.38 905.80 850.45 905.43 849.98 905.24 C 850.56 906.18 851.15 907.12 851.75 908.08 C 850.68 908.99 849.72 910.40 848.16 910.37 C 846.94 909.08 846.05 907.56 845.10 906.10 C 843.94 907.26 842.82 908.48 841.57 909.56 C 839.94 909.28 840.93 906.99 840.52 905.89 C 838.53 906.11 838.48 907.82 838.52 909.45 C 836.97 909.79 835.42 910.13 833.88 910.47 C 833.57 909.35 833.28 908.24 832.99 907.13 C 832.23 907.97 831.48 908.82 830.74 909.68 C 829.40 909.15 828.07 908.59 826.76 908.06 C 826.80 887.63 826.75 867.19 826.78 846.76 C 827.74 844.84 829.62 843.58 831.05 842.03 Z" />
</g>
<g id="#ff5f00ff">
<path fill="#ff5f00" opacity="1.00" d=" M 1138.54 785.36 C 1139.12 786.82 1138.91 788.43 1138.97 789.99 C 1138.85 829.86 1139.11 869.76 1138.83 909.62 C 1136.38 915.47 1139.91 922.40 1136.45 927.86 C 1135.69 927.01 1134.97 926.20 1134.24 925.38 C 1134.02 926.54 1133.81 927.72 1133.61 928.90 C 1131.31 927.29 1129.70 924.80 1126.81 924.09 C 1125.06 925.90 1123.19 927.60 1121.09 928.99 C 1120.37 928.09 1119.70 927.18 1119.01 926.29 C 1116.76 927.76 1114.09 927.17 1111.64 927.65 C 1110.07 929.63 1111.82 931.70 1112.66 933.55 C 1110.26 934.52 1110.39 931.45 1109.91 929.99 C 1109.81 927.61 1107.78 926.30 1106.13 924.97 C 1106.19 926.65 1106.29 928.35 1106.39 930.05 C 1105.04 929.16 1103.72 928.27 1102.42 927.37 C 1102.17 928.02 1101.68 929.30 1101.43 929.95 C 1098.18 929.45 1095.11 927.73 1091.73 928.31 C 1089.53 928.18 1088.75 930.57 1087.58 931.97 C 1086.57 930.46 1085.65 928.90 1084.82 927.32 C 1082.85 927.39 1080.89 927.39 1078.94 927.28 C 1078.93 894.93 1078.99 862.57 1078.91 830.22 C 1079.33 829.35 1079.77 828.49 1080.24 827.65 C 1081.73 827.93 1083.25 828.00 1084.75 828.29 C 1086.07 827.47 1087.39 826.63 1088.73 825.82 C 1088.26 826.80 1087.80 827.80 1087.34 828.81 C 1092.17 828.36 1097.34 826.76 1101.85 829.36 C 1102.31 828.45 1102.80 827.55 1103.29 826.66 C 1105.79 827.74 1108.63 827.18 1111.14 828.31 C 1113.72 828.14 1116.37 828.08 1118.75 829.33 C 1120.82 827.13 1123.70 826.25 1126.65 826.94 C 1126.19 827.62 1125.74 828.31 1125.31 829.01 C 1125.76 829.65 1126.23 830.30 1126.72 830.96 C 1127.83 830.08 1128.94 829.18 1130.08 828.33 C 1130.93 828.73 1131.79 829.14 1132.66 829.56 C 1132.87 829.01 1133.29 827.92 1133.50 827.37 C 1134.89 827.52 1136.29 827.68 1137.71 827.85 C 1138.52 813.70 1137.34 799.48 1138.54 785.36 Z" />
<path fill="#ff5f00" opacity="1.00" d=" M 613.46 811.35 C 613.84 810.69 614.24 810.05 614.64 809.41 C 616.50 812.72 620.97 810.46 622.96 813.80 C 623.72 811.05 627.14 812.44 627.63 814.64 C 628.11 813.72 628.61 812.83 629.10 811.92 C 629.50 813.47 630.01 814.99 630.88 816.36 C 631.58 814.68 631.73 812.41 633.63 811.60 C 636.14 810.15 637.50 813.52 639.03 814.90 C 640.32 813.95 641.51 812.78 643.03 812.20 C 646.80 811.82 650.15 814.02 653.77 814.57 C 655.96 813.93 657.81 812.37 660.14 812.09 C 660.48 812.98 660.83 813.88 661.19 814.79 C 662.98 814.79 664.31 813.64 665.50 812.44 C 666.60 813.22 667.70 814.02 668.81 814.83 C 669.45 814.44 670.09 814.05 670.74 813.69 C 672.41 814.21 674.25 814.48 675.60 813.11 C 677.43 811.27 679.23 813.85 680.77 814.81 C 680.56 813.29 680.40 811.78 680.24 810.28 C 681.77 812.61 684.18 813.97 686.99 813.60 C 688.66 813.15 689.13 814.81 689.83 815.94 C 689.93 814.52 690.06 813.13 690.20 811.74 C 691.91 811.22 693.60 810.69 695.31 810.17 C 695.29 811.66 695.67 813.04 697.02 813.86 C 698.61 812.94 700.11 811.71 701.94 811.31 C 704.12 812.22 706.13 813.50 708.23 814.61 C 707.09 815.72 705.91 816.79 704.75 817.88 C 704.65 853.80 704.72 889.72 704.69 925.63 C 702.40 925.72 701.89 927.50 701.73 929.41 C 699.72 927.73 696.94 928.04 696.06 930.72 C 693.33 931.01 692.29 928.54 691.57 926.37 C 690.85 927.77 690.50 930.03 688.44 929.39 C 689.02 927.93 689.50 926.44 689.78 924.91 C 686.37 925.28 686.35 929.26 685.51 931.81 C 684.87 930.60 684.21 929.40 683.58 928.22 C 683.29 928.96 683.02 929.71 682.76 930.47 C 682.23 930.14 681.70 929.82 681.19 929.52 C 680.11 929.97 679.03 930.43 677.97 930.91 C 676.87 930.13 675.82 929.31 674.74 928.55 C 674.08 928.91 673.43 929.29 672.78 929.69 C 673.33 928.46 673.87 927.26 674.43 926.06 C 672.88 925.83 671.20 924.83 669.68 925.64 C 668.63 926.87 667.99 928.38 667.25 929.81 C 666.63 929.01 666.03 928.23 665.44 927.45 C 665.12 927.77 664.49 928.40 664.18 928.72 C 664.00 927.47 663.83 926.24 663.67 925.03 C 663.14 926.44 662.61 927.86 662.08 929.29 C 661.15 928.30 660.23 927.31 659.32 926.34 C 658.76 927.85 658.22 929.37 657.68 930.89 C 656.97 929.69 656.27 928.49 655.59 927.30 C 654.54 929.37 653.17 931.36 650.55 931.11 C 650.61 929.97 650.68 928.84 650.77 927.73 C 649.84 927.21 648.89 926.74 647.93 926.32 C 647.73 927.10 647.53 927.88 647.35 928.69 C 645.30 928.34 643.22 928.36 641.18 928.69 C 640.74 928.41 639.86 927.86 639.43 927.59 C 637.70 929.01 635.69 930.66 633.30 930.31 C 630.61 929.08 628.24 927.05 625.19 926.80 C 624.30 927.78 623.42 928.77 622.53 929.77 C 621.29 928.64 620.31 927.14 618.80 926.40 C 614.92 925.62 612.85 930.56 609.03 930.59 C 606.62 931.23 604.66 929.68 603.07 928.10 C 601.92 929.17 600.75 930.23 599.52 931.22 C 599.63 929.92 599.75 928.62 599.89 927.34 C 599.39 927.69 598.90 928.05 598.42 928.42 C 598.00 928.05 597.14 927.31 596.71 926.93 C 595.05 928.38 593.94 930.30 592.94 932.24 C 589.85 931.67 590.67 928.28 590.86 926.06 C 589.86 927.54 588.80 928.99 587.73 930.43 C 586.93 929.59 586.31 928.61 585.82 927.59 C 583.23 927.44 581.56 929.84 579.56 931.10 C 579.65 929.82 579.74 928.56 579.85 927.30 C 578.96 927.18 577.18 926.93 576.29 926.80 C 576.32 888.18 576.30 849.56 576.29 810.94 C 578.72 811.64 581.43 812.06 583.41 810.08 C 585.24 811.07 585.66 812.98 585.79 814.90 C 586.31 814.88 587.36 814.84 587.88 814.82 C 587.40 813.19 586.89 811.58 586.34 809.99 C 589.36 811.31 592.43 812.59 595.68 813.27 C 597.77 809.16 601.84 812.87 604.95 813.32 C 607.86 813.14 610.55 811.68 613.46 811.35 Z" />
</g>
<g id="#ff6000ff">
<path fill="#ff6000" opacity="1.00" d=" M 167.02 810.36 C 168.95 810.60 169.85 812.23 169.85 814.04 C 171.11 812.91 172.47 811.91 173.92 811.05 C 173.43 812.11 172.92 813.17 172.41 814.23 C 174.99 813.15 177.56 811.70 180.46 811.97 C 180.40 812.92 180.35 813.89 180.29 814.87 C 182.25 812.06 186.04 812.59 188.68 810.76 C 192.58 808.89 196.14 811.94 198.10 815.10 C 200.86 814.16 199.89 810.85 202.02 809.43 C 202.09 845.79 202.04 882.15 202.04 918.50 C 200.90 919.45 200.01 920.66 199.19 921.90 C 198.55 920.55 198.71 919.06 198.90 917.65 C 197.52 918.71 196.08 917.89 194.76 917.22 C 194.56 917.69 194.35 918.17 194.16 918.66 C 193.45 918.43 192.80 917.82 192.03 918.08 C 189.43 918.62 186.77 918.47 184.14 918.64 C 185.04 917.74 185.94 916.85 186.83 915.96 C 186.19 916.03 184.93 916.19 184.30 916.26 C 183.44 917.42 182.59 918.58 181.74 919.75 C 180.61 919.00 179.49 918.27 178.37 917.55 C 179.23 916.84 180.09 916.14 180.96 915.45 C 179.77 915.42 178.58 915.41 177.40 915.41 C 176.92 916.92 176.45 918.46 175.95 919.99 C 174.95 919.05 173.94 918.12 172.95 917.20 C 171.94 917.69 170.94 918.20 169.94 918.73 C 169.03 918.02 168.48 917.01 168.05 915.97 C 164.52 914.93 162.38 918.97 159.10 918.59 C 158.45 917.67 158.75 916.47 158.63 915.44 C 155.53 917.11 151.99 917.46 148.56 917.98 C 145.86 918.11 144.15 915.58 142.68 913.70 C 142.40 916.05 142.67 918.41 142.97 920.77 C 142.10 919.91 141.24 919.07 140.38 918.24 C 140.04 920.29 139.60 922.34 139.16 924.40 C 139.00 890.41 138.97 856.40 139.17 822.42 C 139.83 819.77 140.08 816.93 141.69 814.64 C 142.42 813.67 142.36 812.40 142.53 811.27 C 144.85 811.26 146.63 812.77 148.30 814.20 C 148.78 814.04 149.26 813.90 149.75 813.76 C 150.05 813.98 150.66 814.42 150.96 814.64 C 151.31 812.95 152.11 811.44 153.90 810.96 C 154.71 811.83 155.53 812.71 156.35 813.60 C 159.20 814.35 162.26 813.38 164.99 814.57 C 165.67 813.16 166.35 811.76 167.02 810.36 Z" />
</g>
<g id="#ff5700ff">
<path fill="#ff5700" opacity="1.00" d=" M 338.20 876.33 C 339.22 877.74 340.25 879.15 341.28 880.57 C 341.91 879.91 342.54 879.27 343.18 878.64 C 344.02 879.06 344.86 879.48 345.70 879.92 C 346.38 879.45 347.05 878.99 347.74 878.55 C 349.32 879.60 350.82 881.53 352.96 881.00 C 355.08 880.62 357.23 880.52 359.33 881.07 C 361.86 880.45 364.33 879.38 367.00 879.44 C 369.60 879.22 372.15 880.76 374.72 879.84 C 375.10 880.12 375.86 880.69 376.24 880.98 C 377.14 880.02 378.04 879.07 378.95 878.13 C 379.70 879.06 380.39 880.05 381.24 880.92 C 382.90 880.59 384.46 879.89 386.04 879.30 C 387.22 879.72 388.33 880.80 389.63 880.66 C 390.70 879.79 391.54 878.67 392.43 877.64 C 396.37 880.26 401.76 880.20 406.08 878.57 C 406.32 879.32 406.56 880.08 406.81 880.86 C 409.22 880.43 411.66 879.72 413.20 877.68 C 415.39 878.12 417.57 878.70 419.50 879.87 C 419.39 878.70 419.30 877.54 419.21 876.40 C 419.79 876.27 420.94 876.00 421.52 875.86 C 421.15 876.54 420.77 877.24 420.40 877.94 C 420.95 878.43 421.49 878.94 422.05 879.46 C 424.32 878.37 426.64 879.66 428.98 879.52 C 431.21 879.36 433.28 880.26 435.32 881.04 C 435.63 879.50 435.94 877.96 436.25 876.44 C 438.00 877.78 439.72 879.18 441.14 880.90 C 443.78 880.02 446.19 878.47 446.92 875.59 C 448.73 877.43 450.52 879.29 452.44 881.04 C 452.43 901.65 452.52 922.26 452.39 942.87 C 493.70 943.00 535.01 943.00 576.33 942.87 C 576.25 937.51 576.32 932.15 576.29 926.80 C 577.18 926.93 578.96 927.18 579.85 927.30 C 579.74 928.56 579.65 929.82 579.56 931.10 C 581.56 929.84 583.23 927.44 585.82 927.59 C 586.31 928.61 586.93 929.59 587.73 930.43 C 588.80 928.99 589.86 927.54 590.86 926.06 C 590.67 928.28 589.85 931.67 592.94 932.24 C 593.94 930.30 595.05 928.38 596.71 926.93 C 597.14 927.31 598.00 928.05 598.42 928.42 C 598.90 928.05 599.39 927.69 599.89 927.34 C 599.75 928.62 599.63 929.92 599.52 931.22 C 600.75 930.23 601.92 929.17 603.07 928.10 C 604.66 929.68 606.62 931.23 609.03 930.59 C 612.85 930.56 614.92 925.62 618.80 926.40 C 620.31 927.14 621.29 928.64 622.53 929.77 C 623.42 928.77 624.30 927.78 625.19 926.80 C 628.24 927.05 630.61 929.08 633.30 930.31 C 635.69 930.66 637.70 929.01 639.43 927.59 C 639.86 927.86 640.74 928.41 641.18 928.69 C 643.22 928.36 645.30 928.34 647.35 928.69 C 647.53 927.88 647.73 927.10 647.93 926.32 C 648.89 926.74 649.84 927.21 650.77 927.73 C 650.68 928.84 650.61 929.97 650.55 931.11 C 653.17 931.36 654.54 929.37 655.59 927.30 C 656.27 928.49 656.97 929.69 657.68 930.89 C 658.22 929.37 658.76 927.85 659.32 926.34 C 660.23 927.31 661.15 928.30 662.08 929.29 C 662.61 927.86 663.14 926.44 663.67 925.03 C 663.83 926.24 664.00 927.47 664.18 928.72 C 664.49 928.40 665.12 927.77 665.44 927.45 C 666.03 928.23 666.63 929.01 667.25 929.81 C 667.99 928.38 668.63 926.87 669.68 925.64 C 671.20 924.83 672.88 925.83 674.43 926.06 C 673.87 927.26 673.33 928.46 672.78 929.69 C 673.43 929.29 674.08 928.91 674.74 928.55 C 675.82 929.31 676.87 930.13 677.97 930.91 C 679.03 930.43 680.11 929.97 681.19 929.52 C 681.70 929.82 682.23 930.14 682.76 930.47 C 683.02 929.71 683.29 928.96 683.58 928.22 C 684.21 929.40 684.87 930.60 685.51 931.81 C 686.35 929.26 686.37 925.28 689.78 924.91 C 689.50 926.44 689.02 927.93 688.44 929.39 C 690.50 930.03 690.85 927.77 691.57 926.37 C 692.29 928.54 693.33 931.01 696.06 930.72 C 696.94 928.04 699.72 927.73 701.73 929.41 C 701.89 927.50 702.40 925.72 704.69 925.63 C 704.70 931.38 704.72 937.13 704.69 942.89 C 745.39 943.03 786.09 942.90 826.78 942.95 C 826.75 931.32 826.80 919.69 826.76 908.06 C 828.07 908.59 829.40 909.15 830.74 909.68 C 831.48 908.82 832.23 907.97 832.99 907.13 C 833.28 908.24 833.57 909.35 833.88 910.47 C 835.42 910.13 836.97 909.79 838.52 909.45 C 838.48 907.82 838.53 906.11 840.52 905.89 C 840.93 906.99 839.94 909.28 841.57 909.56 C 842.82 908.48 843.94 907.26 845.10 906.10 C 846.05 907.56 846.94 909.08 848.16 910.37 C 849.72 910.40 850.68 908.99 851.75 908.08 C 851.15 907.12 850.56 906.18 849.98 905.24 C 850.45 905.43 851.38 905.80 851.84 905.99 C 853.21 907.76 854.80 909.33 856.49 910.80 C 857.32 909.52 858.25 908.30 859.34 907.24 C 859.49 906.42 859.65 905.61 859.84 904.82 C 861.00 906.32 861.15 908.28 861.65 910.08 C 862.12 909.71 863.07 908.97 863.54 908.60 C 866.24 910.48 869.53 910.75 872.71 910.51 C 872.79 908.66 871.62 905.94 873.77 904.91 C 874.33 906.22 874.88 907.53 875.45 908.86 C 876.18 906.87 876.93 904.90 877.77 902.96 C 878.40 905.28 878.42 907.69 878.23 910.08 C 881.15 909.81 881.33 906.50 882.01 904.29 C 884.16 906.02 886.48 907.63 888.12 909.92 C 890.99 910.02 893.87 910.16 896.74 910.42 C 897.31 909.78 897.90 909.17 898.50 908.56 C 898.79 908.78 899.37 909.23 899.67 909.45 C 900.28 908.70 900.93 907.99 901.58 907.26 C 901.77 907.86 902.16 909.05 902.35 909.65 C 904.87 908.73 906.90 906.99 909.01 905.39 C 911.20 904.64 912.36 907.03 913.72 908.26 C 914.61 907.20 915.52 906.15 916.44 905.11 C 918.04 906.19 918.77 908.00 919.55 909.71 C 920.15 908.14 920.77 906.58 921.44 905.05 C 922.82 906.79 922.58 908.94 922.37 911.02 C 923.14 909.90 923.79 908.71 924.42 907.51 C 924.93 907.87 925.46 908.24 926.00 908.62 C 926.52 908.28 927.06 907.94 927.61 907.62 C 928.16 908.29 928.73 908.98 929.30 909.67 C 930.39 908.90 931.48 908.14 932.59 907.39 C 935.23 910.19 939.26 909.36 942.71 909.52 C 945.62 909.39 945.95 906.06 946.81 903.94 C 949.01 905.33 949.84 907.73 949.96 910.23 C 950.43 909.31 950.92 908.40 951.42 907.50 C 951.95 907.96 952.49 908.44 953.05 908.94 C 953.74 908.26 954.44 907.59 955.15 906.93 C 955.11 918.93 955.16 930.94 955.13 942.95 C 996.40 942.94 1037.68 942.96 1078.96 942.93 C 1078.94 937.71 1078.95 932.49 1078.94 927.28 C 1080.89 927.39 1082.85 927.39 1084.82 927.32 C 1085.65 928.90 1086.57 930.46 1087.58 931.97 C 1088.75 930.57 1089.53 928.18 1091.73 928.31 C 1095.11 927.73 1098.18 929.45 1101.43 929.95 C 1101.68 929.30 1102.17 928.02 1102.42 927.37 C 1103.72 928.27 1105.04 929.16 1106.39 930.05 C 1106.29 928.35 1106.19 926.65 1106.13 924.97 C 1107.78 926.30 1109.81 927.61 1109.91 929.99 C 1110.39 931.45 1110.26 934.52 1112.66 933.55 C 1111.82 931.70 1110.07 929.63 1111.64 927.65 C 1114.09 927.17 1116.76 927.76 1119.01 926.29 C 1119.70 927.18 1120.37 928.09 1121.09 928.99 C 1123.19 927.60 1125.06 925.90 1126.81 924.09 C 1129.70 924.80 1131.31 927.29 1133.61 928.90 C 1133.81 927.72 1134.02 926.54 1134.24 925.38 C 1134.97 926.20 1135.69 927.01 1136.45 927.86 C 1139.91 922.40 1136.38 915.47 1138.83 909.62 C 1139.11 941.05 1138.85 972.49 1138.96 1003.93 C 805.65 1003.95 472.35 1003.95 139.04 1003.93 C 139.14 977.42 138.90 950.89 139.16 924.40 C 139.60 922.34 140.04 920.29 140.38 918.24 C 141.24 919.07 142.10 919.91 142.97 920.77 C 142.67 918.41 142.40 916.05 142.68 913.70 C 144.15 915.58 145.86 918.11 148.56 917.98 C 151.99 917.46 155.53 917.11 158.63 915.44 C 158.75 916.47 158.45 917.67 159.10 918.59 C 162.38 918.97 164.52 914.93 168.05 915.97 C 168.48 917.01 169.03 918.02 169.94 918.73 C 170.94 918.20 171.94 917.69 172.95 917.20 C 173.94 918.12 174.95 919.05 175.95 919.99 C 176.45 918.46 176.92 916.92 177.40 915.41 C 178.58 915.41 179.77 915.42 180.96 915.45 C 180.09 916.14 179.23 916.84 178.37 917.55 C 179.49 918.27 180.61 919.00 181.74 919.75 C 182.59 918.58 183.44 917.42 184.30 916.26 C 184.93 916.19 186.19 916.03 186.83 915.96 C 185.94 916.85 185.04 917.74 184.14 918.64 C 186.77 918.47 189.43 918.62 192.03 918.08 C 192.80 917.82 193.45 918.43 194.16 918.66 C 194.35 918.17 194.56 917.69 194.76 917.22 C 196.08 917.89 197.52 918.71 198.90 917.65 C 198.71 919.06 198.55 920.55 199.19 921.90 C 200.01 920.66 200.90 919.45 202.04 918.50 C 202.06 926.65 202.06 934.79 202.04 942.94 C 243.32 942.95 284.60 942.94 325.88 942.95 C 325.83 922.25 325.90 901.56 325.85 880.87 C 327.25 880.27 328.67 879.71 330.10 879.19 C 330.38 879.75 330.67 880.31 330.95 880.89 C 331.64 880.35 332.34 879.82 333.04 879.30 C 335.23 880.24 337.52 881.12 339.97 880.88 C 338.63 879.69 336.93 879.09 335.27 878.52 C 336.24 877.78 337.22 877.05 338.20 876.33 Z" />
</g>
</svg>
