<?xml version="1.0" encoding="UTF-8" ?>
<!DOCTYPE svg PUBLIC "-//W3C//DTD SVG 1.1//EN" "http://www.w3.org/Graphics/SVG/1.1/DTD/svg11.dtd">
<svg width="1276pt" height="1276pt" viewBox="0 0 1276 1276" version="1.1" xmlns="http://www.w3.org/2000/svg">
<g id="#ff8500ff">
<path fill="#ff8500" opacity="1.00" d=" M 76.00 357.00 C 451.00 357.00 826.00 357.00 1201.00 357.00 C 1201.01 404.66 1200.98 452.31 1201.00 499.97 C 1200.09 499.42 1199.21 498.89 1198.33 498.36 C 1197.29 499.15 1196.28 499.96 1195.28 500.78 C 1195.67 498.96 1195.87 497.11 1195.81 495.25 C 1193.91 495.71 1192.38 496.87 1191.35 498.50 C 1190.60 497.55 1189.88 496.63 1189.16 495.71 C 1186.93 496.21 1184.67 495.56 1182.45 495.47 C 1182.33 497.03 1182.28 498.60 1182.31 500.17 C 1181.37 499.29 1180.44 498.41 1179.50 497.56 C 1179.92 497.09 1180.74 496.16 1181.15 495.70 C 1180.61 495.46 1179.55 494.98 1179.02 494.74 C 1178.11 496.05 1177.22 497.36 1176.33 498.68 C 1175.47 497.93 1174.63 497.19 1173.80 496.46 C 1172.57 497.68 1171.28 498.88 1169.54 499.26 C 1169.58 498.21 1169.63 497.17 1169.71 496.13 C 1168.91 496.50 1168.12 496.87 1167.35 497.25 C 1167.14 498.32 1166.95 499.40 1166.77 500.48 C 1163.69 499.14 1160.25 497.73 1159.31 494.14 C 1158.96 495.75 1158.62 497.37 1158.28 498.99 C 1155.88 499.13 1153.70 498.19 1151.66 497.08 C 1151.59 497.51 1151.47 498.36 1151.41 498.79 C 1149.25 498.20 1147.35 498.85 1146.04 500.65 C 1144.94 499.78 1143.87 498.90 1142.72 498.15 C 1141.84 498.53 1141.00 498.96 1140.18 499.43 C 1139.45 498.28 1138.73 497.13 1138.03 495.99 C 1135.61 497.33 1132.77 498.60 1130.13 496.93 C 1131.37 495.56 1130.92 493.61 1131.04 491.95 C 1130.96 470.30 1131.03 448.65 1131.00 427.00 C 1086.34 426.98 1041.68 427.04 997.02 426.97 C 995.59 427.11 993.83 426.56 992.80 427.85 C 968.75 451.90 944.70 475.96 920.63 500.00 C 896.38 475.64 872.01 451.40 847.75 427.03 C 802.17 426.95 756.59 427.02 711.00 426.99 C 710.97 449.35 711.03 471.71 710.96 494.08 C 710.91 495.42 711.09 496.75 711.48 498.06 C 710.39 497.99 709.31 497.84 708.24 497.68 C 707.19 498.38 706.16 499.09 705.13 499.81 C 702.13 498.18 698.38 498.82 695.94 496.05 C 694.89 496.84 693.85 497.63 692.81 498.43 C 690.89 497.36 688.85 497.84 686.97 498.72 C 685.02 497.30 684.93 494.65 683.29 492.99 C 683.36 494.93 683.56 496.87 683.76 498.81 C 683.39 499.09 682.65 499.65 682.28 499.94 C 682.07 497.97 681.86 496.00 681.65 494.04 C 680.67 495.79 679.44 497.38 677.97 498.74 C 677.09 497.90 676.22 497.07 675.35 496.24 C 674.88 496.49 673.94 496.98 673.47 497.23 C 673.61 498.36 673.76 499.48 673.93 500.62 C 672.71 500.03 671.49 499.44 670.27 498.87 C 670.59 498.48 671.23 497.72 671.55 497.34 C 670.97 497.02 670.40 496.70 669.84 496.39 C 669.09 496.72 668.35 497.05 667.62 497.40 C 666.73 496.56 665.85 495.73 664.97 494.91 C 664.53 495.18 663.64 495.73 663.20 496.00 C 664.62 497.31 666.08 498.71 666.09 500.80 C 663.18 500.16 660.65 498.56 658.42 496.64 C 657.56 497.52 656.70 498.41 655.84 499.29 C 654.80 498.25 655.83 497.28 656.39 496.36 C 655.45 495.49 654.52 494.64 653.60 493.78 C 653.66 495.53 653.77 497.33 653.04 498.99 C 650.83 498.56 649.31 497.07 648.36 495.10 C 647.72 495.54 647.08 495.98 646.46 496.43 C 646.84 496.88 647.59 497.78 647.97 498.22 C 647.76 498.53 647.33 499.13 647.12 499.43 C 644.78 498.81 642.40 498.37 640.09 497.66 C 639.47 498.35 638.86 499.05 638.26 499.76 C 637.30 498.29 636.60 495.98 634.41 496.24 C 632.51 495.90 631.83 497.86 630.87 499.03 C 630.29 497.86 629.70 496.71 629.13 495.56 C 628.17 495.49 627.21 495.42 626.26 495.36 C 626.43 496.46 626.60 497.56 626.79 498.67 C 625.15 497.90 623.52 497.14 621.88 496.40 C 621.30 497.49 620.70 498.58 620.13 499.69 C 618.09 497.93 615.53 497.22 612.89 497.75 C 612.36 496.66 611.78 495.61 611.10 494.63 C 608.91 496.16 607.33 498.30 606.36 500.78 C 605.87 499.17 605.37 497.58 604.89 495.98 C 603.11 495.18 601.28 494.50 599.44 493.91 C 599.85 494.65 600.27 495.40 600.70 496.15 C 599.56 497.71 597.82 498.73 595.88 498.81 C 593.70 498.34 591.92 496.92 590.07 495.78 C 588.15 496.30 586.25 496.86 584.35 497.45 C 583.29 496.37 582.24 495.31 581.19 494.25 C 580.88 496.05 580.57 497.86 580.25 499.66 C 577.13 499.26 575.01 496.75 572.68 494.91 C 572.28 496.65 572.80 499.13 570.91 500.09 C 568.51 500.22 567.93 497.49 566.99 495.83 C 567.03 472.89 566.99 449.94 567.00 427.00 C 536.65 427.00 506.30 427.00 475.95 427.00 C 459.89 427.15 443.74 426.69 427.73 427.23 C 427.54 440.18 427.69 453.14 427.66 466.09 C 425.91 465.05 424.10 464.11 422.24 463.28 C 421.52 465.06 420.48 466.67 419.18 468.07 C 416.25 465.17 411.80 465.58 408.65 463.05 C 408.58 464.24 408.51 465.44 408.44 466.64 C 407.06 466.58 405.69 466.40 404.35 466.12 C 404.75 465.42 405.16 464.72 405.58 464.03 C 404.79 463.78 404.01 463.54 403.23 463.31 C 401.85 464.78 400.66 466.63 398.61 467.18 C 398.61 466.34 398.63 465.51 398.65 464.68 C 396.10 463.46 393.27 463.04 390.49 463.54 C 390.35 464.67 390.21 465.80 390.09 466.94 C 389.05 465.78 388.21 463.29 386.22 464.20 C 382.71 465.26 378.75 468.41 375.18 465.83 C 374.20 464.27 373.75 462.46 373.16 460.75 C 372.06 462.06 370.91 463.34 369.71 464.57 C 369.33 464.31 368.57 463.79 368.19 463.53 C 367.57 465.11 366.86 466.65 366.08 468.16 C 364.82 467.62 363.57 467.09 362.32 466.56 C 361.33 466.87 360.34 467.18 359.36 467.50 C 358.08 465.80 356.81 464.10 355.58 462.37 C 354.64 464.77 352.42 466.48 349.78 466.31 C 347.03 465.85 344.43 464.04 341.56 465.02 C 341.60 465.94 341.65 466.86 341.70 467.79 C 340.28 466.71 338.92 465.53 337.34 464.72 C 334.16 464.78 330.98 465.06 327.85 464.33 C 326.94 465.70 326.41 467.27 325.73 468.76 C 311.85 454.80 297.90 440.90 283.97 426.98 C 238.32 427.01 192.66 427.00 147.01 426.99 C 146.99 434.59 147.00 442.18 147.00 449.78 C 146.53 449.67 145.60 449.44 145.14 449.33 C 144.33 450.66 143.53 452.01 142.72 453.36 C 140.37 453.15 138.03 453.44 135.85 454.35 C 135.32 454.12 134.81 453.90 134.29 453.69 C 133.80 454.28 133.30 454.87 132.81 455.48 C 131.59 455.11 130.36 454.75 129.13 454.39 C 129.73 453.32 130.89 452.33 130.56 450.99 C 127.52 453.04 123.53 452.05 120.72 454.65 C 120.34 453.97 119.96 453.31 119.58 452.66 C 116.70 454.05 113.88 451.06 111.13 450.37 C 110.30 451.33 109.47 452.29 108.64 453.26 C 107.53 452.36 106.34 451.58 105.04 451.02 C 106.01 450.37 106.99 449.72 107.96 449.07 C 107.25 449.05 105.83 449.01 105.12 448.99 C 103.85 451.57 100.67 454.06 98.11 451.50 C 97.60 452.90 97.09 454.30 96.61 455.71 C 96.07 454.76 95.54 453.82 94.96 452.91 C 94.78 453.41 94.40 454.40 94.22 454.90 C 93.23 453.98 92.24 453.07 91.24 452.16 C 89.81 452.99 88.49 454.21 86.81 454.49 C 85.50 454.12 84.57 452.89 83.26 452.53 C 81.41 452.41 79.57 452.74 77.73 452.90 C 77.64 451.54 77.61 450.05 76.05 449.54 C 75.94 418.70 76.03 387.85 76.00 357.00 Z" />
</g>
<g id="#000000ff">
<path fill="#000000" opacity="1.00" d=" M 147.01 426.99 C 192.66 427.00 238.32 427.01 283.97 426.98 C 297.90 440.90 311.85 454.80 325.73 468.76 C 359.83 502.76 393.80 536.88 427.92 570.86 C 427.29 556.27 427.82 541.64 427.65 527.03 C 427.65 506.72 427.64 486.41 427.66 466.09 C 427.69 453.14 427.54 440.18 427.73 427.23 C 443.74 426.69 459.89 427.15 475.95 427.00 C 506.30 427.00 536.65 427.00 567.00 427.00 C 566.99 449.94 567.03 472.89 566.99 495.83 C 567.00 539.27 567.02 582.71 566.99 626.16 C 567.02 647.12 566.99 668.09 567.01 689.05 C 566.97 708.97 567.03 728.90 566.99 748.82 C 567.01 782.54 566.99 816.27 567.00 850.00 C 520.67 850.00 474.33 850.01 428.00 849.99 C 428.01 826.67 427.98 803.35 428.01 780.02 C 417.59 769.56 407.14 759.12 396.68 748.69 C 359.79 711.69 322.72 674.87 285.91 637.78 C 286.11 674.89 285.96 712.01 285.99 749.12 C 286.01 782.75 286.00 816.37 285.99 850.00 C 239.66 850.00 193.33 850.01 147.00 849.99 C 147.01 829.63 146.98 809.27 147.02 788.91 C 146.98 765.60 147.00 742.30 147.01 719.00 C 146.97 681.90 147.01 644.80 147.00 607.70 C 146.98 585.26 147.03 562.83 146.98 540.39 C 147.01 510.19 146.99 479.98 147.00 449.78 C 147.00 442.18 146.99 434.59 147.01 426.99 Z" />
<path fill="#000000" opacity="1.00" d=" M 711.00 426.99 C 756.59 427.02 802.17 426.95 847.75 427.03 C 872.01 451.40 896.38 475.64 920.63 500.00 C 944.70 475.96 968.75 451.90 992.80 427.85 C 993.83 426.56 995.59 427.11 997.02 426.97 C 1041.68 427.04 1086.34 426.98 1131.00 427.00 C 1131.03 448.65 1130.96 470.30 1131.04 491.95 C 1130.92 493.61 1131.37 495.56 1130.13 496.93 C 1094.99 531.87 1060.07 567.03 1024.96 602.00 C 1027.06 604.01 1029.11 606.10 1031.16 608.18 C 1064.46 641.44 1097.73 674.73 1131.01 708.01 C 1131.00 712.26 1131.01 716.51 1131.00 720.76 C 1130.98 743.82 1131.03 766.89 1130.98 789.95 C 1131.02 809.97 1131.00 829.99 1130.99 850.00 C 1084.66 849.99 1038.33 850.01 992.00 850.00 C 992.01 830.01 991.99 810.02 992.00 790.03 C 991.99 773.36 991.99 756.68 992.00 740.01 C 968.15 716.07 944.16 692.27 920.37 668.28 C 896.27 692.49 871.98 716.53 847.95 740.81 C 848.06 757.10 847.98 773.38 848.00 789.67 C 848.00 809.78 848.00 829.89 848.00 850.00 C 802.33 850.01 756.67 849.99 711.00 850.00 C 711.00 816.89 710.99 783.78 711.00 750.67 C 711.00 737.07 710.99 723.48 711.01 709.88 C 710.75 708.50 712.04 707.68 712.82 706.79 C 719.38 700.35 725.82 693.79 732.36 687.33 C 753.35 666.26 774.42 645.26 795.44 624.23 C 802.54 617.16 809.54 610.00 816.72 603.01 C 781.55 568.13 746.80 532.79 711.48 498.06 C 711.09 496.75 710.91 495.42 710.96 494.08 C 711.03 471.71 710.97 449.35 711.00 426.99 Z" />
</g>
<g id="#ff7e00ff">
<path fill="#ff7e00" opacity="1.00" d=" M 98.11 451.50 C 100.67 454.06 103.85 451.57 105.12 448.99 C 105.83 449.01 107.25 449.05 107.96 449.07 C 106.99 449.72 106.01 450.37 105.04 451.02 C 106.34 451.58 107.53 452.36 108.64 453.26 C 109.47 452.29 110.30 451.33 111.13 450.37 C 113.88 451.06 116.70 454.05 119.58 452.66 C 119.96 453.31 120.34 453.97 120.72 454.65 C 123.53 452.05 127.52 453.04 130.56 450.99 C 130.89 452.33 129.73 453.32 129.13 454.39 C 130.36 454.75 131.59 455.11 132.81 455.48 C 133.30 454.87 133.80 454.28 134.29 453.69 C 134.81 453.90 135.32 454.12 135.85 454.35 C 138.03 453.44 140.37 453.15 142.72 453.36 C 143.53 452.01 144.33 450.66 145.14 449.33 C 145.60 449.44 146.53 449.67 147.00 449.78 C 146.99 479.98 147.01 510.19 146.98 540.39 C 145.55 538.71 144.66 536.49 142.91 535.14 C 140.81 535.10 139.10 536.75 137.28 537.64 C 137.33 536.79 137.38 535.96 137.43 535.13 C 137.17 534.87 136.66 534.34 136.40 534.08 C 135.83 535.94 135.26 537.80 134.70 539.67 C 134.09 538.93 133.47 538.18 132.85 537.45 C 132.52 537.69 131.85 538.16 131.52 538.40 C 130.74 537.62 129.97 536.86 129.19 536.10 C 129.39 537.25 129.60 538.42 129.80 539.59 C 128.65 539.16 127.50 538.73 126.35 538.31 C 126.38 537.51 126.40 536.71 126.42 535.92 C 124.24 536.33 123.24 538.10 122.63 540.05 C 121.39 538.96 121.36 537.33 121.24 535.82 C 120.24 536.44 119.20 536.98 118.21 537.60 C 117.37 536.63 116.52 535.67 115.68 534.72 C 114.52 535.30 113.33 535.81 112.12 536.26 C 111.50 535.23 110.89 534.20 110.28 533.19 C 110.10 534.28 109.91 535.38 109.73 536.49 C 107.95 535.70 106.24 534.78 104.57 533.79 C 104.31 533.88 103.78 534.07 103.51 534.16 C 102.99 533.88 102.48 533.62 101.97 533.36 C 101.57 534.84 101.17 536.33 100.78 537.84 C 100.24 536.91 99.70 535.99 99.16 535.09 C 98.20 536.64 96.84 537.86 95.32 538.86 C 95.42 537.51 95.53 536.17 95.60 534.83 C 94.71 535.49 94.11 536.42 93.51 537.35 C 93.13 537.11 92.76 536.88 92.38 536.66 C 91.81 537.08 91.24 537.51 90.67 537.95 C 90.60 536.67 90.43 535.40 90.15 534.17 C 88.84 534.50 87.53 534.83 86.22 535.18 C 87.14 535.78 88.05 536.39 88.96 537.01 C 88.69 537.47 88.16 538.40 87.89 538.86 C 86.52 537.50 85.15 536.14 83.78 534.80 C 83.72 535.73 83.67 536.66 83.63 537.61 C 81.87 536.94 80.10 536.33 78.30 535.79 C 78.84 536.81 79.39 537.84 79.92 538.89 C 78.00 538.28 76.80 536.66 76.01 534.90 C 76.03 506.45 75.94 477.99 76.05 449.54 C 77.61 450.05 77.64 451.54 77.73 452.90 C 79.57 452.74 81.41 452.41 83.26 452.53 C 84.57 452.89 85.50 454.12 86.81 454.49 C 88.49 454.21 89.81 452.99 91.24 452.16 C 92.24 453.07 93.23 453.98 94.22 454.90 C 94.40 454.40 94.78 453.41 94.96 452.91 C 95.54 453.82 96.07 454.76 96.61 455.71 C 97.09 454.30 97.60 452.90 98.11 451.50 Z" />
<path fill="#ff7e00" opacity="1.00" d=" M 369.71 464.57 C 370.91 463.34 372.06 462.06 373.16 460.75 C 373.75 462.46 374.20 464.27 375.18 465.83 C 378.75 468.41 382.71 465.26 386.22 464.20 C 388.21 463.29 389.05 465.78 390.09 466.94 C 390.21 465.80 390.35 464.67 390.49 463.54 C 393.27 463.04 396.10 463.46 398.65 464.68 C 398.63 465.51 398.61 466.34 398.61 467.18 C 400.66 466.63 401.85 464.78 403.23 463.31 C 404.01 463.54 404.79 463.78 405.58 464.03 C 405.16 464.72 404.75 465.42 404.35 466.12 C 405.69 466.40 407.06 466.58 408.44 466.64 C 408.51 465.44 408.58 464.24 408.65 463.05 C 411.80 465.58 416.25 465.17 419.18 468.07 C 420.48 466.67 421.52 465.06 422.24 463.28 C 424.10 464.11 425.91 465.05 427.66 466.09 C 427.64 486.41 427.65 506.72 427.65 527.03 C 427.82 541.64 427.29 556.27 427.92 570.86 C 393.80 536.88 359.83 502.76 325.73 468.76 C 326.41 467.27 326.94 465.70 327.85 464.33 C 330.98 465.06 334.16 464.78 337.34 464.72 C 338.92 465.53 340.28 466.71 341.70 467.79 C 341.65 466.86 341.60 465.94 341.56 465.02 C 344.43 464.04 347.03 465.85 349.78 466.31 C 352.42 466.48 354.64 464.77 355.58 462.37 C 356.81 464.10 358.08 465.80 359.36 467.50 C 360.34 467.18 361.33 466.87 362.32 466.56 C 363.57 467.09 364.82 467.62 366.08 468.16 C 366.86 466.65 367.57 465.11 368.19 463.53 C 368.57 463.79 369.33 464.31 369.71 464.57 Z" />
</g>
<g id="#ff7600ff">
<path fill="#ff7600" opacity="1.00" d=" M 683.29 492.99 C 684.93 494.65 685.02 497.30 686.97 498.72 C 688.85 497.84 690.89 497.36 692.81 498.43 C 693.85 497.63 694.89 496.84 695.94 496.05 C 698.38 498.82 702.13 498.18 705.13 499.81 C 706.16 499.09 707.19 498.38 708.24 497.68 C 709.31 497.84 710.39 497.99 711.48 498.06 C 746.80 532.79 781.55 568.13 816.72 603.01 C 809.54 610.00 802.54 617.16 795.44 624.23 C 793.59 624.61 791.76 625.06 789.94 625.54 C 788.74 625.10 787.61 624.34 786.33 624.29 C 784.40 625.04 782.93 626.55 781.36 627.83 C 781.38 626.85 781.42 625.89 781.46 624.93 C 780.39 625.36 779.33 625.80 778.28 626.25 C 777.88 626.09 777.07 625.77 776.66 625.61 C 775.98 626.04 775.30 626.48 774.64 626.94 C 774.29 625.48 773.95 624.02 773.64 622.58 C 770.86 624.68 767.30 624.61 764.08 623.80 C 761.81 623.08 760.13 625.26 758.07 625.72 C 757.00 625.31 755.99 624.77 754.98 624.28 C 754.44 624.59 753.91 624.91 753.39 625.25 C 753.02 624.98 752.29 624.45 751.93 624.18 C 750.77 624.63 749.63 625.10 748.50 625.56 C 747.85 624.31 747.20 623.06 746.56 621.83 C 745.12 623.90 745.02 626.45 744.86 628.88 C 744.14 625.79 740.62 626.79 738.58 625.37 C 737.57 624.29 736.96 622.91 736.16 621.69 C 734.82 622.93 733.59 624.30 732.17 625.45 C 729.67 625.93 727.30 624.67 725.18 623.53 C 724.48 625.06 723.77 626.60 723.04 628.12 C 722.84 626.77 722.67 625.42 722.51 624.08 C 721.47 624.10 720.45 624.13 719.44 624.15 C 719.88 624.94 720.34 625.74 720.82 626.55 C 718.97 626.69 717.13 626.76 715.29 626.80 C 716.18 625.86 717.08 624.94 717.96 624.00 C 715.23 624.29 713.14 626.05 710.90 627.43 C 710.20 627.10 709.51 626.76 708.85 626.41 C 708.09 626.50 707.35 626.61 706.62 626.73 C 706.68 625.54 706.76 624.35 706.76 623.17 C 704.62 622.46 704.69 625.72 704.20 627.06 C 702.32 625.62 700.21 625.42 698.33 626.98 C 698.75 626.02 699.18 625.07 699.60 624.12 C 699.16 623.96 698.28 623.62 697.84 623.46 C 697.20 623.85 696.58 624.26 695.96 624.67 C 695.19 624.10 694.43 623.55 693.68 623.00 C 693.59 623.53 693.42 624.60 693.34 625.14 C 690.82 624.92 688.71 623.47 686.39 622.64 C 685.15 622.87 684.00 623.55 682.73 623.57 C 681.69 623.02 680.90 622.12 680.03 621.38 C 679.48 622.42 678.93 623.47 678.40 624.53 C 677.98 624.11 677.14 623.27 676.71 622.85 C 676.61 624.51 676.54 626.19 676.51 627.87 C 676.01 627.87 675.02 627.88 674.52 627.88 C 674.53 626.65 674.55 625.42 674.58 624.20 C 672.08 626.35 667.67 624.59 666.05 627.69 C 664.13 627.88 662.22 627.66 660.36 627.20 C 660.68 626.57 661.01 625.95 661.35 625.34 C 660.89 625.13 659.96 624.70 659.50 624.49 C 659.18 623.34 658.87 622.19 658.56 621.06 C 656.98 622.91 655.73 625.41 657.46 627.65 C 656.72 628.02 655.98 628.40 655.25 628.79 C 654.73 626.88 654.24 624.96 653.77 623.04 C 651.67 623.82 650.56 625.74 649.61 627.63 C 648.95 626.11 648.11 624.63 646.43 624.12 C 646.40 623.26 646.39 622.41 646.39 621.57 C 645.37 621.32 644.37 621.09 643.37 620.86 C 643.86 621.77 644.37 622.69 644.88 623.61 C 641.27 622.85 638.17 626.22 634.68 624.83 C 634.14 625.02 633.62 625.23 633.10 625.45 C 630.97 624.26 628.58 622.26 626.33 624.35 C 626.81 625.28 627.29 626.21 627.78 627.15 C 626.60 626.66 625.43 626.20 624.27 625.71 C 623.66 625.94 623.06 626.18 622.47 626.43 C 621.86 625.79 621.25 625.16 620.65 624.54 C 618.74 624.55 617.38 623.29 616.08 622.08 C 615.61 623.94 615.54 625.86 615.83 627.76 C 614.51 626.41 613.44 623.82 611.18 624.30 C 608.45 624.72 605.52 625.25 603.11 623.53 C 602.97 624.65 602.84 625.79 602.71 626.93 C 602.30 626.04 601.90 625.16 601.52 624.28 C 599.23 624.59 596.76 626.49 594.85 624.25 C 594.24 625.48 593.45 626.61 592.61 627.70 C 592.08 626.81 591.57 625.92 591.06 625.05 C 589.82 625.26 588.59 625.49 587.36 625.72 C 586.61 625.10 585.86 624.49 585.13 623.89 C 586.05 623.26 586.98 622.65 587.92 622.04 C 586.49 622.06 585.08 622.10 583.68 622.14 C 583.32 623.73 583.00 625.33 582.71 626.94 C 582.21 625.84 582.10 624.47 581.26 623.60 C 578.25 623.26 574.34 622.36 572.42 625.43 C 571.81 624.10 570.98 622.92 569.86 621.98 C 568.84 623.33 567.83 624.69 566.99 626.16 C 567.02 582.71 567.00 539.27 566.99 495.83 C 567.93 497.49 568.51 500.22 570.91 500.09 C 572.80 499.13 572.28 496.65 572.68 494.91 C 575.01 496.75 577.13 499.26 580.25 499.66 C 580.57 497.86 580.88 496.05 581.19 494.25 C 582.24 495.31 583.29 496.37 584.35 497.45 C 586.25 496.86 588.15 496.30 590.07 495.78 C 591.92 496.92 593.70 498.34 595.88 498.81 C 597.82 498.73 599.56 497.71 600.70 496.15 C 600.27 495.40 599.85 494.65 599.44 493.91 C 601.28 494.50 603.11 495.18 604.89 495.98 C 605.37 497.58 605.87 499.17 606.36 500.78 C 607.33 498.30 608.91 496.16 611.10 494.63 C 611.78 495.61 612.36 496.66 612.89 497.75 C 615.53 497.22 618.09 497.93 620.13 499.69 C 620.70 498.58 621.30 497.49 621.88 496.40 C 623.52 497.14 625.15 497.90 626.79 498.67 C 626.60 497.56 626.43 496.46 626.26 495.36 C 627.21 495.42 628.17 495.49 629.13 495.56 C 629.70 496.71 630.29 497.86 630.87 499.03 C 631.83 497.86 632.51 495.90 634.41 496.24 C 636.60 495.98 637.30 498.29 638.26 499.76 C 638.86 499.05 639.47 498.35 640.09 497.66 C 642.40 498.37 644.78 498.81 647.12 499.43 C 647.33 499.13 647.76 498.53 647.97 498.22 C 647.59 497.78 646.84 496.88 646.46 496.43 C 647.08 495.98 647.72 495.54 648.36 495.10 C 649.31 497.07 650.83 498.56 653.04 498.99 C 653.77 497.33 653.66 495.53 653.60 493.78 C 654.52 494.64 655.45 495.49 656.39 496.36 C 655.83 497.28 654.80 498.25 655.84 499.29 C 656.70 498.41 657.56 497.52 658.42 496.64 C 660.65 498.56 663.18 500.16 666.09 500.80 C 666.08 498.71 664.62 497.31 663.20 496.00 C 663.64 495.73 664.53 495.18 664.97 494.91 C 665.85 495.73 666.73 496.56 667.62 497.40 C 668.35 497.05 669.09 496.72 669.84 496.39 C 670.40 496.70 670.97 497.02 671.55 497.34 C 671.23 497.72 670.59 498.48 670.27 498.87 C 671.49 499.44 672.71 500.03 673.93 500.62 C 673.76 499.48 673.61 498.36 673.47 497.23 C 673.94 496.98 674.88 496.49 675.35 496.24 C 676.22 497.07 677.09 497.90 677.97 498.74 C 679.44 497.38 680.67 495.79 681.65 494.04 C 681.86 496.00 682.07 497.97 682.28 499.94 C 682.65 499.65 683.39 499.09 683.76 498.81 C 683.56 496.87 683.36 494.93 683.29 492.99 Z" />
<path fill="#ff7600" opacity="1.00" d=" M 101.97 533.36 C 102.48 533.62 102.99 533.88 103.51 534.16 C 103.78 534.07 104.31 533.88 104.57 533.79 C 106.24 534.78 107.95 535.70 109.73 536.49 C 109.91 535.38 110.10 534.28 110.28 533.19 C 110.89 534.20 111.50 535.23 112.12 536.26 C 113.33 535.81 114.52 535.30 115.68 534.72 C 116.52 535.67 117.37 536.63 118.21 537.60 C 119.20 536.98 120.24 536.44 121.24 535.82 C 121.36 537.33 121.39 538.96 122.63 540.05 C 123.24 538.10 124.24 536.33 126.42 535.92 C 126.40 536.71 126.38 537.51 126.35 538.31 C 127.50 538.73 128.65 539.16 129.80 539.59 C 129.60 538.42 129.39 537.25 129.19 536.10 C 129.97 536.86 130.74 537.62 131.52 538.40 C 131.85 538.16 132.52 537.69 132.85 537.45 C 133.47 538.18 134.09 538.93 134.70 539.67 C 135.26 537.80 135.83 535.94 136.40 534.08 C 136.66 534.34 137.17 534.87 137.43 535.13 C 137.38 535.96 137.33 536.79 137.28 537.64 C 139.10 536.75 140.81 535.10 142.91 535.14 C 144.66 536.49 145.55 538.71 146.98 540.39 C 147.03 562.83 146.98 585.26 147.00 607.70 C 145.70 607.88 144.29 608.35 143.12 607.45 C 142.39 608.87 141.87 610.39 141.45 611.95 C 140.97 609.98 140.44 608.04 139.91 606.10 C 139.28 606.15 138.02 606.25 137.40 606.30 C 136.16 607.37 134.91 608.44 133.67 609.50 C 130.94 606.39 126.40 606.79 123.18 604.39 C 121.98 606.09 120.77 607.79 119.54 609.47 C 119.10 609.28 118.23 608.88 117.79 608.69 C 117.29 608.89 116.80 609.10 116.30 609.32 C 114.67 607.86 113.01 606.44 111.31 605.09 C 108.62 608.01 104.63 607.10 101.30 608.47 C 100.98 607.26 100.66 606.07 100.32 604.89 C 99.80 606.25 99.55 607.68 99.35 609.12 C 98.35 608.36 97.39 607.54 96.49 606.68 C 95.85 606.92 95.21 607.17 94.58 607.43 C 93.73 607.06 92.88 606.69 92.03 606.34 C 91.51 607.44 90.98 608.55 90.46 609.67 C 89.48 607.26 87.64 605.57 85.04 605.12 C 83.96 606.85 82.84 608.56 81.70 610.26 C 81.64 609.18 81.59 608.11 81.53 607.05 C 80.06 607.39 78.62 607.88 77.23 608.49 C 76.80 607.57 76.40 606.65 76.00 605.73 C 76.00 582.12 75.99 558.51 76.01 534.90 C 76.80 536.66 78.00 538.28 79.92 538.89 C 79.39 537.84 78.84 536.81 78.30 535.79 C 80.10 536.33 81.87 536.94 83.63 537.61 C 83.67 536.66 83.72 535.73 83.78 534.80 C 85.15 536.14 86.52 537.50 87.89 538.86 C 88.16 538.40 88.69 537.47 88.96 537.01 C 88.05 536.39 87.14 535.78 86.22 535.18 C 87.53 534.83 88.84 534.50 90.15 534.17 C 90.43 535.40 90.60 536.67 90.67 537.95 C 91.24 537.51 91.81 537.08 92.38 536.66 C 92.76 536.88 93.13 537.11 93.51 537.35 C 94.11 536.42 94.71 535.49 95.60 534.83 C 95.53 536.17 95.42 537.51 95.32 538.86 C 96.84 537.86 98.20 536.64 99.16 535.09 C 99.70 535.99 100.24 536.91 100.78 537.84 C 101.17 536.33 101.57 534.84 101.97 533.36 Z" />
</g>
<g id="#ff7800ff">
<path fill="#ff7800" opacity="1.00" d=" M 1158.28 498.99 C 1158.62 497.37 1158.96 495.75 1159.31 494.14 C 1160.25 497.73 1163.69 499.14 1166.77 500.48 C 1166.95 499.40 1167.14 498.32 1167.35 497.25 C 1168.12 496.87 1168.91 496.50 1169.71 496.13 C 1169.63 497.17 1169.58 498.21 1169.54 499.26 C 1171.28 498.88 1172.57 497.68 1173.80 496.46 C 1174.63 497.19 1175.47 497.93 1176.33 498.68 C 1177.22 497.36 1178.11 496.05 1179.02 494.74 C 1179.55 494.98 1180.61 495.46 1181.15 495.70 C 1180.74 496.16 1179.92 497.09 1179.50 497.56 C 1180.44 498.41 1181.37 499.29 1182.31 500.17 C 1182.28 498.60 1182.33 497.03 1182.45 495.47 C 1184.67 495.56 1186.93 496.21 1189.16 495.71 C 1189.88 496.63 1190.60 497.55 1191.35 498.50 C 1192.38 496.87 1193.91 495.71 1195.81 495.25 C 1195.87 497.11 1195.67 498.96 1195.28 500.78 C 1196.28 499.96 1197.29 499.15 1198.33 498.36 C 1199.21 498.89 1200.09 499.42 1201.00 499.97 C 1200.99 509.64 1201.00 519.33 1201.00 529.01 C 1176.98 553.00 1153.01 577.03 1128.97 601.00 C 1131.48 603.53 1134.10 605.96 1136.48 608.63 C 1134.65 608.31 1132.85 607.91 1131.09 607.39 C 1130.49 607.72 1129.92 608.06 1129.36 608.41 C 1128.85 607.28 1128.36 606.15 1127.88 605.04 C 1126.83 606.40 1125.91 607.90 1124.65 609.08 C 1122.74 609.21 1120.93 608.05 1119.00 608.45 C 1116.71 608.49 1113.39 609.69 1112.50 606.66 C 1111.33 607.73 1110.30 609.09 1108.78 609.65 C 1106.71 609.60 1106.33 607.11 1105.06 605.91 C 1104.49 607.90 1102.75 608.90 1100.97 609.63 C 1100.27 609.16 1099.59 608.70 1098.92 608.24 C 1098.07 608.67 1097.24 609.11 1096.43 609.55 C 1096.11 608.81 1095.82 608.08 1095.55 607.35 C 1094.97 608.76 1094.01 610.83 1092.11 609.81 C 1088.57 608.01 1085.37 604.73 1081.04 605.44 C 1080.73 606.86 1080.55 608.31 1080.49 609.77 C 1080.08 609.81 1079.26 609.89 1078.85 609.93 C 1078.70 607.88 1077.57 606.22 1075.55 605.68 C 1074.09 608.10 1071.34 607.67 1068.97 607.39 C 1069.52 608.24 1070.09 609.09 1070.67 609.96 C 1069.61 609.93 1068.57 609.92 1067.54 609.91 C 1067.59 608.68 1067.66 607.46 1067.73 606.24 C 1066.72 607.41 1065.74 608.60 1064.76 609.79 C 1062.22 608.99 1060.18 607.30 1058.41 605.38 C 1057.39 606.17 1056.69 607.67 1055.25 607.69 C 1053.87 607.45 1052.62 606.78 1051.27 606.49 C 1049.40 607.26 1047.83 609.08 1045.64 608.63 C 1042.61 608.11 1039.17 609.40 1036.52 607.45 C 1034.86 606.14 1032.84 607.81 1031.16 608.18 C 1029.11 606.10 1027.06 604.01 1024.96 602.00 C 1060.07 567.03 1094.99 531.87 1130.13 496.93 C 1132.77 498.60 1135.61 497.33 1138.03 495.99 C 1138.73 497.13 1139.45 498.28 1140.18 499.43 C 1141.00 498.96 1141.84 498.53 1142.72 498.15 C 1143.87 498.90 1144.94 499.78 1146.04 500.65 C 1147.35 498.85 1149.25 498.20 1151.41 498.79 C 1151.47 498.36 1151.59 497.51 1151.66 497.08 C 1153.70 498.19 1155.88 499.13 1158.28 498.99 Z" />
</g>
<g id="#ff6b00ff">
<path fill="#ff6b00" opacity="1.00" d=" M 123.18 604.39 C 126.40 606.79 130.94 606.39 133.67 609.50 C 134.91 608.44 136.16 607.37 137.40 606.30 C 138.02 606.25 139.28 606.15 139.91 606.10 C 140.44 608.04 140.97 609.98 141.45 611.95 C 141.87 610.39 142.39 608.87 143.12 607.45 C 144.29 608.35 145.70 607.88 147.00 607.70 C 147.01 644.80 146.97 681.90 147.01 719.00 C 146.34 719.63 145.66 720.26 144.99 720.90 C 143.05 720.76 141.11 720.72 139.20 721.09 C 137.36 721.63 135.86 720.09 134.30 719.40 C 133.30 720.69 132.37 722.06 131.17 723.19 C 129.99 723.81 129.12 722.55 128.42 721.82 C 127.69 721.96 126.96 722.12 126.23 722.29 C 126.05 721.78 125.70 720.76 125.53 720.26 C 123.04 719.96 120.69 720.81 118.48 721.84 C 118.63 720.63 118.79 719.42 118.95 718.23 C 117.66 719.39 116.63 721.19 114.78 721.47 C 113.51 721.22 112.31 720.70 111.10 720.29 C 110.36 720.81 109.63 721.34 108.90 721.88 C 107.66 720.64 106.43 719.41 105.18 718.20 C 102.79 719.88 100.02 719.66 97.45 718.55 C 97.23 718.95 96.78 719.74 96.55 720.13 C 95.23 720.61 93.93 721.14 92.65 721.73 C 91.70 721.02 90.76 720.31 89.81 719.62 C 87.66 720.58 85.35 720.34 83.07 720.23 C 80.63 720.51 77.94 724.00 75.95 721.09 C 76.08 682.64 75.96 644.19 76.00 605.73 C 76.40 606.65 76.80 607.57 77.23 608.49 C 78.62 607.88 80.06 607.39 81.53 607.05 C 81.59 608.11 81.64 609.18 81.70 610.26 C 82.84 608.56 83.96 606.85 85.04 605.12 C 87.64 605.57 89.48 607.26 90.46 609.67 C 90.98 608.55 91.51 607.44 92.03 606.34 C 92.88 606.69 93.73 607.06 94.58 607.43 C 95.21 607.17 95.85 606.92 96.49 606.68 C 97.39 607.54 98.35 608.36 99.35 609.12 C 99.55 607.68 99.80 606.25 100.32 604.89 C 100.66 606.07 100.98 607.26 101.30 608.47 C 104.63 607.10 108.62 608.01 111.31 605.09 C 113.01 606.44 114.67 607.86 116.30 609.32 C 116.80 609.10 117.29 608.89 117.79 608.69 C 118.23 608.88 119.10 609.28 119.54 609.47 C 120.77 607.79 121.98 606.09 123.18 604.39 Z" />
<path fill="#ff6b00" opacity="1.00" d=" M 1058.41 605.38 C 1060.18 607.30 1062.22 608.99 1064.76 609.79 C 1065.74 608.60 1066.72 607.41 1067.73 606.24 C 1067.66 607.46 1067.59 608.68 1067.54 609.91 C 1068.57 609.92 1069.61 609.93 1070.67 609.96 C 1070.09 609.09 1069.52 608.24 1068.97 607.39 C 1071.34 607.67 1074.09 608.10 1075.55 605.68 C 1077.57 606.22 1078.70 607.88 1078.85 609.93 C 1079.26 609.89 1080.08 609.81 1080.49 609.77 C 1080.55 608.31 1080.73 606.86 1081.04 605.44 C 1085.37 604.73 1088.57 608.01 1092.11 609.81 C 1094.01 610.83 1094.97 608.76 1095.55 607.35 C 1095.82 608.08 1096.11 608.81 1096.43 609.55 C 1097.24 609.11 1098.07 608.67 1098.92 608.24 C 1099.59 608.70 1100.27 609.16 1100.97 609.63 C 1102.75 608.90 1104.49 607.90 1105.06 605.91 C 1106.33 607.11 1106.71 609.60 1108.78 609.65 C 1110.30 609.09 1111.33 607.73 1112.50 606.66 C 1113.39 609.69 1116.71 608.49 1119.00 608.45 C 1120.93 608.05 1122.74 609.21 1124.65 609.08 C 1125.91 607.90 1126.83 606.40 1127.88 605.04 C 1128.36 606.15 1128.85 607.28 1129.36 608.41 C 1129.92 608.06 1130.49 607.72 1131.09 607.39 C 1132.85 607.91 1134.65 608.31 1136.48 608.63 C 1158.11 629.92 1179.48 651.57 1201.00 673.01 C 1200.99 689.05 1201.00 705.09 1201.00 721.13 C 1197.83 721.39 1194.95 720.31 1192.79 718.00 C 1192.23 718.15 1191.12 718.45 1190.56 718.60 C 1190.46 719.59 1190.39 720.61 1190.33 721.62 C 1189.67 721.62 1189.02 721.64 1188.40 721.66 C 1188.20 722.15 1187.82 723.15 1187.63 723.64 C 1186.89 722.98 1186.16 722.32 1185.45 721.68 C 1185.83 721.13 1186.23 720.59 1186.63 720.06 C 1183.89 719.91 1181.23 720.51 1178.59 721.11 C 1175.49 720.45 1172.25 720.29 1169.22 721.33 C 1168.67 720.75 1168.14 720.17 1167.64 719.63 C 1164.96 721.06 1162.03 719.44 1159.32 720.55 C 1158.00 721.10 1156.73 720.20 1155.52 719.82 C 1155.30 719.88 1154.85 719.99 1154.62 720.05 C 1152.71 719.78 1151.11 721.24 1149.25 721.30 C 1147.34 721.42 1145.45 721.46 1143.57 721.57 C 1143.28 721.02 1142.70 719.93 1142.42 719.38 C 1140.94 720.48 1139.28 721.28 1137.41 721.18 C 1136.84 720.76 1136.29 720.36 1135.75 719.97 C 1135.35 720.80 1134.97 721.64 1134.60 722.49 C 1133.97 721.83 1133.35 721.17 1132.76 720.53 C 1132.32 720.59 1131.44 720.70 1131.00 720.76 C 1131.01 716.51 1131.00 712.26 1131.01 708.01 C 1097.73 674.73 1064.46 641.44 1031.16 608.18 C 1032.84 607.81 1034.86 606.14 1036.52 607.45 C 1039.17 609.40 1042.61 608.11 1045.64 608.63 C 1047.83 609.08 1049.40 607.26 1051.27 606.49 C 1052.62 606.78 1053.87 607.45 1055.25 607.69 C 1056.69 607.67 1057.39 606.17 1058.41 605.38 Z" />
</g>
<g id="#ff6c00ff">
<path fill="#ff6c00" opacity="1.00" d=" M 643.37 620.86 C 644.37 621.09 645.37 621.32 646.39 621.57 C 646.39 622.41 646.40 623.26 646.43 624.12 C 648.11 624.63 648.95 626.11 649.61 627.63 C 650.56 625.74 651.67 623.82 653.77 623.04 C 654.24 624.96 654.73 626.88 655.25 628.79 C 655.98 628.40 656.72 628.02 657.46 627.65 C 655.73 625.41 656.98 622.91 658.56 621.06 C 658.87 622.19 659.18 623.34 659.50 624.49 C 659.96 624.70 660.89 625.13 661.35 625.34 C 661.01 625.95 660.68 626.57 660.36 627.20 C 662.22 627.66 664.13 627.88 666.05 627.69 C 667.67 624.59 672.08 626.35 674.58 624.20 C 674.55 625.42 674.53 626.65 674.52 627.88 C 675.02 627.88 676.01 627.87 676.51 627.87 C 676.54 626.19 676.61 624.51 676.71 622.85 C 677.14 623.27 677.98 624.11 678.40 624.53 C 678.93 623.47 679.48 622.42 680.03 621.38 C 680.90 622.12 681.69 623.02 682.73 623.57 C 684.00 623.55 685.15 622.87 686.39 622.64 C 688.71 623.47 690.82 624.92 693.34 625.14 C 693.42 624.60 693.59 623.53 693.68 623.00 C 694.43 623.55 695.19 624.10 695.96 624.67 C 696.58 624.26 697.20 623.85 697.84 623.46 C 698.28 623.62 699.16 623.96 699.60 624.12 C 699.18 625.07 698.75 626.02 698.33 626.98 C 700.21 625.42 702.32 625.62 704.20 627.06 C 704.69 625.72 704.62 622.46 706.76 623.17 C 706.76 624.35 706.68 625.54 706.62 626.73 C 707.35 626.61 708.09 626.50 708.85 626.41 C 709.51 626.76 710.20 627.10 710.90 627.43 C 713.14 626.05 715.23 624.29 717.96 624.00 C 717.08 624.94 716.18 625.86 715.29 626.80 C 717.13 626.76 718.97 626.69 720.82 626.55 C 720.34 625.74 719.88 624.94 719.44 624.15 C 720.45 624.13 721.47 624.10 722.51 624.08 C 722.67 625.42 722.84 626.77 723.04 628.12 C 723.77 626.60 724.48 625.06 725.18 623.53 C 727.30 624.67 729.67 625.93 732.17 625.45 C 733.59 624.30 734.82 622.93 736.16 621.69 C 736.96 622.91 737.57 624.29 738.58 625.37 C 740.62 626.79 744.14 625.79 744.86 628.88 C 745.02 626.45 745.12 623.90 746.56 621.83 C 747.20 623.06 747.85 624.31 748.50 625.56 C 749.63 625.10 750.77 624.63 751.93 624.18 C 752.29 624.45 753.02 624.98 753.39 625.25 C 753.91 624.91 754.44 624.59 754.98 624.28 C 755.99 624.77 757.00 625.31 758.07 625.72 C 760.13 625.26 761.81 623.08 764.08 623.80 C 767.30 624.61 770.86 624.68 773.64 622.58 C 773.95 624.02 774.29 625.48 774.64 626.94 C 775.30 626.48 775.98 626.04 776.66 625.61 C 777.07 625.77 777.88 626.09 778.28 626.25 C 779.33 625.80 780.39 625.36 781.46 624.93 C 781.42 625.89 781.38 626.85 781.36 627.83 C 782.93 626.55 784.40 625.04 786.33 624.29 C 787.61 624.34 788.74 625.10 789.94 625.54 C 791.76 625.06 793.59 624.61 795.44 624.23 C 774.42 645.26 753.35 666.26 732.36 687.33 C 731.30 686.39 730.35 685.30 729.14 684.60 C 727.89 684.83 726.70 685.25 725.52 685.65 C 725.32 686.08 724.94 686.93 724.74 687.35 C 722.99 686.90 721.13 686.38 720.38 684.55 C 719.54 685.51 718.91 686.72 717.82 687.44 C 715.85 687.12 714.31 685.70 712.66 684.72 C 711.57 685.51 710.47 686.28 709.33 686.98 C 709.15 687.42 708.78 688.30 708.60 688.74 C 707.79 687.19 707.40 685.17 705.76 684.28 C 704.06 683.46 702.13 683.57 700.31 683.47 C 700.09 684.92 699.88 686.38 699.70 687.86 C 698.95 686.09 698.07 684.38 697.04 682.77 C 695.50 684.17 694.07 685.69 692.73 687.28 C 691.58 686.29 690.44 685.30 689.33 684.28 C 689.19 684.92 688.91 686.18 688.77 686.81 C 688.34 686.00 687.87 685.24 687.36 684.51 C 684.21 684.21 681.09 684.89 678.05 685.61 C 677.30 685.32 676.55 685.04 675.82 684.77 C 673.21 685.42 670.59 686.24 667.89 686.25 C 665.91 686.21 664.94 684.36 663.83 683.05 C 663.44 683.11 662.68 683.23 662.29 683.29 C 662.76 683.81 663.70 684.86 664.18 685.38 C 662.04 686.85 660.50 685.08 660.02 683.06 C 658.90 684.36 657.63 685.53 656.13 686.39 C 655.49 685.31 654.87 684.25 654.24 683.20 C 654.07 684.66 653.91 686.14 653.78 687.63 C 652.32 683.94 647.93 685.18 645.16 686.44 C 644.99 685.33 644.84 684.23 644.69 683.14 C 644.05 684.19 643.41 685.24 642.78 686.30 C 641.56 685.99 640.32 685.83 639.09 686.16 C 636.97 684.28 634.15 684.39 631.51 684.44 C 631.24 685.04 630.69 686.25 630.41 686.85 C 630.16 685.62 629.91 684.38 629.69 683.17 C 629.05 684.66 628.21 686.06 627.09 687.25 C 625.96 686.13 624.83 685.02 623.71 683.91 C 623.67 684.74 623.63 685.58 623.62 686.43 C 620.65 687.20 617.87 685.41 614.90 685.49 C 614.32 684.55 613.55 683.78 612.60 683.25 C 611.57 684.44 611.11 686.68 609.23 686.73 C 606.66 686.86 604.60 684.95 602.36 683.97 C 601.72 684.38 601.09 684.79 600.47 685.22 C 600.17 685.11 599.56 684.87 599.26 684.76 C 598.12 685.00 596.98 685.25 595.85 685.51 C 595.39 686.30 595.33 687.57 594.20 687.70 C 592.21 687.06 591.98 684.81 591.27 683.17 C 590.34 684.67 589.46 686.21 588.67 687.79 C 587.94 686.46 587.20 685.17 586.42 683.90 C 586.19 685.17 585.97 686.46 585.77 687.75 C 585.16 687.02 584.56 686.28 583.97 685.57 C 582.32 686.73 580.45 686.66 578.90 685.37 C 578.24 685.82 577.60 686.28 576.96 686.75 C 576.35 684.99 575.87 683.12 574.61 681.71 C 574.65 683.09 574.75 684.48 574.87 685.88 C 574.12 684.98 573.37 684.09 572.64 683.22 C 570.93 685.31 569.25 687.49 567.01 689.05 C 566.99 668.09 567.02 647.12 566.99 626.16 C 567.83 624.69 568.84 623.33 569.86 621.98 C 570.98 622.92 571.81 624.10 572.42 625.43 C 574.34 622.36 578.25 623.26 581.26 623.60 C 582.10 624.47 582.21 625.84 582.71 626.94 C 583.00 625.33 583.32 623.73 583.68 622.14 C 585.08 622.10 586.49 622.06 587.92 622.04 C 586.98 622.65 586.05 623.26 585.13 623.89 C 585.86 624.49 586.61 625.10 587.36 625.72 C 588.59 625.49 589.82 625.26 591.06 625.05 C 591.57 625.92 592.08 626.81 592.61 627.70 C 593.45 626.61 594.24 625.48 594.85 624.25 C 596.76 626.49 599.23 624.59 601.52 624.28 C 601.90 625.16 602.30 626.04 602.71 626.93 C 602.84 625.79 602.97 624.65 603.11 623.53 C 605.52 625.25 608.45 624.72 611.18 624.30 C 613.44 623.82 614.51 626.41 615.83 627.76 C 615.54 625.86 615.61 623.94 616.08 622.08 C 617.38 623.29 618.74 624.55 620.65 624.54 C 621.25 625.16 621.86 625.79 622.47 626.43 C 623.06 626.18 623.66 625.94 624.27 625.71 C 625.43 626.20 626.60 626.66 627.78 627.15 C 627.29 626.21 626.81 625.28 626.33 624.35 C 628.58 622.26 630.97 624.26 633.10 625.45 C 633.62 625.23 634.14 625.02 634.68 624.83 C 638.17 626.22 641.27 622.85 644.88 623.61 C 644.37 622.69 643.86 621.77 643.37 620.86 Z" />
</g>
<g id="#ff6500ff">
<path fill="#ff6500" opacity="1.00" d=" M 285.91 637.78 C 322.72 674.87 359.79 711.69 396.68 748.69 C 393.99 749.04 391.84 747.15 389.25 746.86 C 389.86 747.65 390.47 748.44 391.10 749.23 C 390.90 749.72 390.51 750.70 390.31 751.18 C 389.62 750.62 388.94 750.07 388.27 749.52 C 387.19 750.24 386.49 752.55 384.96 751.83 C 384.00 749.99 383.11 748.08 381.64 746.59 C 380.65 747.09 379.87 748.65 378.63 748.21 C 376.52 747.43 374.47 748.68 372.51 749.33 C 371.95 748.98 371.41 748.65 370.86 748.33 C 369.92 748.83 368.97 749.33 368.03 749.85 C 366.35 747.79 364.04 746.59 361.39 746.46 C 360.91 747.75 360.44 749.05 359.97 750.36 C 359.05 749.94 358.11 749.86 357.18 750.27 C 356.80 750.09 356.03 749.73 355.65 749.55 C 355.09 750.44 354.54 751.34 353.99 752.26 C 353.23 749.97 352.43 747.69 351.62 745.42 C 351.05 745.88 350.48 746.36 349.92 746.84 C 348.69 746.88 347.20 746.02 346.17 747.00 C 344.87 748.64 344.48 750.78 343.85 752.73 C 340.83 749.60 336.45 748.27 332.31 747.55 C 330.27 748.28 328.20 748.55 326.21 747.47 C 326.49 748.73 326.76 750.00 327.04 751.29 C 325.84 751.68 324.36 753.04 323.14 751.96 C 321.00 750.81 321.32 748.13 320.69 746.13 C 320.19 747.83 319.81 749.65 318.59 751.01 C 318.32 750.37 317.80 749.09 317.54 748.44 C 316.60 748.77 315.66 749.10 314.72 749.46 C 313.62 749.05 312.52 748.65 311.43 748.26 C 311.17 749.48 310.92 750.72 310.67 751.96 C 310.31 751.11 309.95 750.28 309.60 749.45 C 308.78 749.81 307.97 750.19 307.17 750.57 C 306.83 749.87 306.52 749.17 306.14 748.51 C 303.80 748.60 301.36 749.16 299.33 747.62 C 298.68 748.38 298.91 750.71 297.57 750.38 C 296.41 749.34 295.36 748.21 294.26 747.13 C 293.10 747.75 291.96 748.43 290.73 748.90 C 289.18 749.42 289.02 747.14 288.33 746.31 C 287.55 747.24 286.77 748.17 285.99 749.12 C 285.96 712.01 286.11 674.89 285.91 637.78 Z" />
<path fill="#ff6500" opacity="1.00" d=" M 574.61 681.71 C 575.87 683.12 576.35 684.99 576.96 686.75 C 577.60 686.28 578.24 685.82 578.90 685.37 C 580.45 686.66 582.32 686.73 583.97 685.57 C 584.56 686.28 585.16 687.02 585.77 687.75 C 585.97 686.46 586.19 685.17 586.42 683.90 C 587.20 685.17 587.94 686.46 588.67 687.79 C 589.46 686.21 590.34 684.67 591.27 683.17 C 591.98 684.81 592.21 687.06 594.20 687.70 C 595.33 687.57 595.39 686.30 595.85 685.51 C 596.98 685.25 598.12 685.00 599.26 684.76 C 599.56 684.87 600.17 685.11 600.47 685.22 C 601.09 684.79 601.72 684.38 602.36 683.97 C 604.60 684.95 606.66 686.86 609.23 686.73 C 611.11 686.68 611.57 684.44 612.60 683.25 C 613.55 683.78 614.32 684.55 614.90 685.49 C 617.87 685.41 620.65 687.20 623.62 686.43 C 623.63 685.58 623.67 684.74 623.71 683.91 C 624.83 685.02 625.96 686.13 627.09 687.25 C 628.21 686.06 629.05 684.66 629.69 683.17 C 629.91 684.38 630.16 685.62 630.41 686.85 C 630.69 686.25 631.24 685.04 631.51 684.44 C 634.15 684.39 636.97 684.28 639.09 686.16 C 640.32 685.83 641.56 685.99 642.78 686.30 C 643.41 685.24 644.05 684.19 644.69 683.14 C 644.84 684.23 644.99 685.33 645.16 686.44 C 647.93 685.18 652.32 683.94 653.78 687.63 C 653.91 686.14 654.07 684.66 654.24 683.20 C 654.87 684.25 655.49 685.31 656.13 686.39 C 657.63 685.53 658.90 684.36 660.02 683.06 C 660.50 685.08 662.04 686.85 664.18 685.38 C 663.70 684.86 662.76 683.81 662.29 683.29 C 662.68 683.23 663.44 683.11 663.83 683.05 C 664.94 684.36 665.91 686.21 667.89 686.25 C 670.59 686.24 673.21 685.42 675.82 684.77 C 676.55 685.04 677.30 685.32 678.05 685.61 C 681.09 684.89 684.21 684.21 687.36 684.51 C 687.87 685.24 688.34 686.00 688.77 686.81 C 688.91 686.18 689.19 684.92 689.33 684.28 C 690.44 685.30 691.58 686.29 692.73 687.28 C 694.07 685.69 695.50 684.17 697.04 682.77 C 698.07 684.38 698.95 686.09 699.70 687.86 C 699.88 686.38 700.09 684.92 700.31 683.47 C 702.13 683.57 704.06 683.46 705.76 684.28 C 707.40 685.17 707.79 687.19 708.60 688.74 C 708.78 688.30 709.15 687.42 709.33 686.98 C 710.47 686.28 711.57 685.51 712.66 684.72 C 714.31 685.70 715.85 687.12 717.82 687.44 C 718.91 686.72 719.54 685.51 720.38 684.55 C 721.13 686.38 722.99 686.90 724.74 687.35 C 724.94 686.93 725.32 686.08 725.52 685.65 C 726.70 685.25 727.89 684.83 729.14 684.60 C 730.35 685.30 731.30 686.39 732.36 687.33 C 725.82 693.79 719.38 700.35 712.82 706.79 C 712.04 707.68 710.75 708.50 711.01 709.88 C 710.99 723.48 711.00 737.07 711.00 750.67 C 709.45 750.60 707.89 750.60 706.34 750.63 C 706.35 749.80 706.37 748.98 706.39 748.17 C 705.70 747.84 705.01 747.53 704.33 747.22 C 704.16 748.35 704.00 749.49 703.85 750.64 C 702.48 749.89 701.17 748.93 699.64 748.61 C 698.58 749.07 697.64 749.75 696.61 750.25 C 694.95 750.03 693.44 749.18 691.80 748.95 C 688.85 749.18 685.92 749.76 682.95 749.76 C 684.13 748.11 686.18 747.86 688.00 747.33 C 685.34 746.87 682.11 746.89 681.73 750.28 C 679.17 748.94 676.11 749.12 674.47 751.77 C 674.11 751.15 673.76 750.53 673.42 749.92 C 673.79 749.28 674.16 748.64 674.54 748.01 C 673.83 747.82 673.13 747.64 672.43 747.47 C 672.18 748.11 671.67 749.38 671.41 750.01 C 670.18 748.89 670.31 747.23 670.25 745.73 C 668.56 747.08 669.49 749.36 669.40 751.20 C 667.43 749.61 665.61 747.84 663.90 745.98 C 662.00 747.58 660.28 749.40 658.25 750.82 C 654.92 748.75 649.94 746.77 647.05 750.64 C 645.81 748.97 644.50 747.37 643.13 745.82 C 642.11 746.58 640.52 746.85 640.00 748.14 C 640.44 749.08 640.96 749.99 641.57 750.86 C 640.55 751.53 639.52 752.18 638.46 752.79 C 637.08 751.07 636.12 748.99 637.90 747.16 C 636.42 747.97 634.92 748.73 633.42 749.49 C 632.65 749.13 631.89 748.79 631.13 748.46 C 630.13 749.55 629.13 750.66 628.13 751.77 C 626.94 750.28 625.81 748.76 624.73 747.22 C 624.25 748.08 623.77 748.94 623.31 749.82 C 623.10 749.15 622.67 747.80 622.46 747.13 C 620.91 748.14 620.48 749.77 620.66 751.54 C 619.58 751.53 618.51 751.52 617.44 751.52 C 617.68 749.56 616.34 748.31 614.83 747.35 C 614.09 748.15 613.34 748.94 612.62 749.76 C 610.49 749.30 608.70 748.11 607.31 746.46 C 604.58 747.31 602.69 749.48 600.72 751.42 C 600.21 749.83 600.17 748.18 600.26 746.55 C 595.55 747.84 590.93 749.37 586.25 750.71 C 585.77 749.75 585.30 748.81 584.84 747.87 C 586.24 747.27 587.65 746.68 589.05 746.04 C 587.62 745.43 586.09 745.39 584.58 745.55 C 584.36 747.17 584.15 748.80 583.95 750.45 C 581.88 749.56 579.67 749.12 577.48 748.68 C 577.08 749.01 576.27 749.67 575.87 750.00 C 574.23 749.43 572.71 748.60 571.31 747.60 C 570.39 748.99 569.48 750.37 568.56 751.76 C 568.02 750.78 567.48 749.80 566.99 748.82 C 567.03 728.90 566.97 708.97 567.01 689.05 C 569.25 687.49 570.93 685.31 572.64 683.22 C 573.37 684.09 574.12 684.98 574.87 685.88 C 574.75 684.48 574.65 683.09 574.61 681.71 Z" />
</g>
<g id="#ff6200ff">
<path fill="#ff6200" opacity="1.00" d=" M 847.95 740.81 C 871.98 716.53 896.27 692.49 920.37 668.28 C 944.16 692.27 968.15 716.07 992.00 740.01 C 991.99 756.68 991.99 773.36 992.00 790.03 C 990.14 789.56 988.18 789.12 986.48 790.29 C 985.12 789.31 983.96 787.63 982.14 787.62 C 980.71 788.38 979.55 789.55 978.33 790.58 C 977.68 789.06 977.01 787.54 976.33 786.06 C 976.33 787.56 976.34 789.08 976.41 790.60 C 972.86 792.33 969.93 789.59 967.40 787.42 C 966.70 788.12 966.02 788.84 965.36 789.57 C 964.85 788.42 964.35 787.29 963.87 786.16 C 962.77 787.53 961.69 788.91 960.64 790.31 C 957.52 789.79 954.36 787.98 951.27 789.58 C 949.77 790.24 949.10 788.52 948.53 787.53 C 947.23 788.63 946.16 790.72 944.22 790.56 C 942.72 790.43 942.55 788.76 941.97 787.72 C 941.71 787.57 941.19 787.29 940.94 787.15 C 940.23 789.09 938.50 790.22 936.79 791.21 C 936.37 789.92 935.95 788.63 935.56 787.36 C 934.53 788.40 933.51 789.44 932.51 790.49 C 931.94 789.45 931.47 788.38 930.77 787.45 C 927.93 787.05 924.94 789.74 922.42 787.56 C 920.50 786.12 916.67 785.42 916.23 788.64 C 917.07 789.39 917.93 790.16 918.80 790.94 C 917.39 790.95 916.00 790.97 914.62 791.00 C 914.58 790.23 914.55 789.47 914.53 788.72 C 913.25 787.87 912.17 786.82 911.49 785.45 C 910.96 786.52 910.42 787.59 909.89 788.68 C 908.21 788.60 906.54 788.57 904.87 788.60 C 905.91 789.71 906.98 790.84 908.02 792.00 C 906.46 791.76 904.94 791.43 903.44 791.01 C 903.58 789.70 903.71 788.40 903.86 787.11 C 902.81 788.36 901.76 789.62 900.73 790.89 C 898.42 789.73 896.44 788.08 894.51 786.40 C 893.46 787.16 892.66 788.45 891.31 788.69 C 889.88 788.59 888.66 787.66 887.26 787.45 C 885.45 788.29 883.88 790.05 881.69 789.61 C 878.27 789.18 874.43 790.56 871.63 787.92 C 869.52 788.07 867.43 789.89 865.23 788.68 C 863.86 789.43 862.67 790.78 861.07 790.93 C 858.80 790.07 857.33 788.00 855.66 786.37 C 854.97 787.01 854.29 787.67 853.63 788.34 C 854.47 789.32 855.45 790.26 855.93 791.52 C 853.35 790.62 850.68 790.08 848.00 789.67 C 847.98 773.38 848.06 757.10 847.95 740.81 Z" />
</g>
<g id="#ff6100ff">
<path fill="#ff6100" opacity="1.00" d=" M 97.45 718.55 C 100.02 719.66 102.79 719.88 105.18 718.20 C 106.43 719.41 107.66 720.64 108.90 721.88 C 109.63 721.34 110.36 720.81 111.10 720.29 C 112.31 720.70 113.51 721.22 114.78 721.47 C 116.63 721.19 117.66 719.39 118.95 718.23 C 118.79 719.42 118.63 720.63 118.48 721.84 C 120.69 720.81 123.04 719.96 125.53 720.26 C 125.70 720.76 126.05 721.78 126.23 722.29 C 126.96 722.12 127.69 721.96 128.42 721.82 C 129.12 722.55 129.99 723.81 131.17 723.19 C 132.37 722.06 133.30 720.69 134.30 719.40 C 135.86 720.09 137.36 721.63 139.20 721.09 C 141.11 720.72 143.05 720.76 144.99 720.90 C 145.66 720.26 146.34 719.63 147.01 719.00 C 147.00 742.30 146.98 765.60 147.02 788.91 C 144.58 786.54 141.21 788.70 138.44 787.43 C 135.05 785.48 131.15 789.73 128.05 786.51 C 127.52 787.14 127.00 787.80 126.48 788.46 C 126.24 788.23 125.77 787.76 125.53 787.53 C 124.97 788.20 124.40 788.88 123.84 789.58 C 122.70 788.91 121.58 788.22 120.47 787.52 C 119.58 789.53 117.94 790.96 115.99 791.92 C 115.60 789.61 118.09 788.82 119.19 787.22 C 116.43 787.51 114.46 789.42 112.73 791.41 C 109.87 789.17 106.20 787.99 102.63 787.78 C 99.46 789.13 95.70 790.65 92.46 788.56 C 92.22 789.15 91.98 789.75 91.73 790.37 C 90.26 789.69 88.74 789.14 87.14 788.83 C 85.92 787.09 84.43 785.57 82.23 785.25 C 81.99 785.51 81.52 786.05 81.28 786.32 C 82.58 786.99 83.87 787.70 85.15 788.43 C 82.86 788.56 80.56 788.64 78.27 788.86 C 78.74 788.20 79.22 787.56 79.69 786.92 C 78.46 787.21 77.23 787.52 76.00 787.84 C 75.97 765.59 76.07 743.34 75.95 721.09 C 77.94 724.00 80.63 720.51 83.07 720.23 C 85.35 720.34 87.66 720.58 89.81 719.62 C 90.76 720.31 91.70 721.02 92.65 721.73 C 93.93 721.14 95.23 720.61 96.55 720.13 C 96.78 719.74 97.23 718.95 97.45 718.55 Z" />
<path fill="#ff6100" opacity="1.00" d=" M 1190.56 718.60 C 1191.12 718.45 1192.23 718.15 1192.79 718.00 C 1194.95 720.31 1197.83 721.39 1201.00 721.13 C 1201.01 743.45 1200.98 765.78 1201.01 788.11 C 1198.81 788.46 1196.59 788.63 1194.38 788.52 C 1194.15 789.10 1193.70 790.28 1193.47 790.87 C 1192.66 788.80 1191.76 786.77 1190.48 784.96 C 1189.65 786.09 1188.84 787.23 1188.04 788.38 C 1185.87 787.69 1183.56 788.21 1181.35 788.14 C 1182.21 789.07 1183.08 790.01 1183.98 790.96 C 1181.62 790.07 1179.15 789.64 1176.71 789.12 C 1175.29 788.10 1174.04 786.87 1172.64 785.85 C 1172.63 786.87 1172.65 787.90 1172.68 788.93 C 1171.77 787.95 1170.87 786.97 1169.99 786.01 C 1169.33 786.95 1168.69 787.91 1168.07 788.88 C 1167.13 788.36 1166.22 787.86 1165.32 787.37 C 1165.10 788.44 1164.89 789.53 1164.69 790.63 C 1163.64 790.57 1162.59 790.51 1161.56 790.47 C 1161.61 789.46 1161.67 788.47 1161.75 787.48 C 1159.88 788.66 1157.75 788.15 1155.78 787.63 C 1155.18 787.92 1154.59 788.23 1154.03 788.55 C 1154.17 787.41 1154.34 786.28 1154.52 785.16 C 1153.74 784.84 1152.99 784.53 1152.24 784.23 C 1152.69 786.45 1152.92 788.70 1152.99 790.97 C 1152.30 789.96 1151.63 788.94 1150.99 787.94 C 1150.63 788.67 1150.29 789.41 1149.95 790.16 C 1149.41 789.20 1148.88 788.25 1148.37 787.31 C 1148.18 787.94 1147.79 789.20 1147.60 789.82 C 1147.20 788.93 1146.81 788.05 1146.44 787.19 C 1145.99 788.42 1145.57 789.66 1145.14 790.91 C 1143.03 789.53 1140.81 788.16 1138.23 788.01 C 1138.40 789.19 1138.59 790.39 1138.81 791.60 C 1136.29 790.10 1133.35 791.91 1130.98 789.95 C 1131.03 766.89 1130.98 743.82 1131.00 720.76 C 1131.44 720.70 1132.32 720.59 1132.76 720.53 C 1133.35 721.17 1133.97 721.83 1134.60 722.49 C 1134.97 721.64 1135.35 720.80 1135.75 719.97 C 1136.29 720.36 1136.84 720.76 1137.41 721.18 C 1139.28 721.28 1140.94 720.48 1142.42 719.38 C 1142.70 719.93 1143.28 721.02 1143.57 721.57 C 1145.45 721.46 1147.34 721.42 1149.25 721.30 C 1151.11 721.24 1152.71 719.78 1154.62 720.05 C 1154.85 719.99 1155.30 719.88 1155.52 719.82 C 1156.73 720.20 1158.00 721.10 1159.32 720.55 C 1162.03 719.44 1164.96 721.06 1167.64 719.63 C 1168.14 720.17 1168.67 720.75 1169.22 721.33 C 1172.25 720.29 1175.49 720.45 1178.59 721.11 C 1181.23 720.51 1183.89 719.91 1186.63 720.06 C 1186.23 720.59 1185.83 721.13 1185.45 721.68 C 1186.16 722.32 1186.89 722.98 1187.63 723.64 C 1187.82 723.15 1188.20 722.15 1188.40 721.66 C 1189.02 721.64 1189.67 721.62 1190.33 721.62 C 1190.39 720.61 1190.46 719.59 1190.56 718.60 Z" />
</g>
<g id="#ff5700ff">
<path fill="#ff5700" opacity="1.00" d=" M 349.92 746.84 C 350.48 746.36 351.05 745.88 351.62 745.42 C 352.43 747.69 353.23 749.97 353.99 752.26 C 354.54 751.34 355.09 750.44 355.65 749.55 C 356.03 749.73 356.80 750.09 357.18 750.27 C 358.11 749.86 359.05 749.94 359.97 750.36 C 360.44 749.05 360.91 747.75 361.39 746.46 C 364.04 746.59 366.35 747.79 368.03 749.85 C 368.97 749.33 369.92 748.83 370.86 748.33 C 371.41 748.65 371.95 748.98 372.51 749.33 C 374.47 748.68 376.52 747.43 378.63 748.21 C 379.87 748.65 380.65 747.09 381.64 746.59 C 383.11 748.08 384.00 749.99 384.96 751.83 C 386.49 752.55 387.19 750.24 388.27 749.52 C 388.94 750.07 389.62 750.62 390.31 751.18 C 390.51 750.70 390.90 749.72 391.10 749.23 C 390.47 748.44 389.86 747.65 389.25 746.86 C 391.84 747.15 393.99 749.04 396.68 748.69 C 407.14 759.12 417.59 769.56 428.01 780.02 C 427.98 803.35 428.01 826.67 428.00 849.99 C 474.33 850.01 520.67 850.00 567.00 850.00 C 566.99 816.27 567.01 782.54 566.99 748.82 C 567.48 749.80 568.02 750.78 568.56 751.76 C 569.48 750.37 570.39 748.99 571.31 747.60 C 572.71 748.60 574.23 749.43 575.87 750.00 C 576.27 749.67 577.08 749.01 577.48 748.68 C 579.67 749.12 581.88 749.56 583.95 750.45 C 584.15 748.80 584.36 747.17 584.58 745.55 C 586.09 745.39 587.62 745.43 589.05 746.04 C 587.65 746.68 586.24 747.27 584.84 747.87 C 585.30 748.81 585.77 749.75 586.25 750.71 C 590.93 749.37 595.55 747.84 600.26 746.55 C 600.17 748.18 600.21 749.83 600.72 751.42 C 602.69 749.48 604.58 747.31 607.31 746.46 C 608.70 748.11 610.49 749.30 612.62 749.76 C 613.34 748.94 614.09 748.15 614.83 747.35 C 616.34 748.31 617.68 749.56 617.44 751.52 C 618.51 751.52 619.58 751.53 620.66 751.54 C 620.48 749.77 620.91 748.14 622.46 747.13 C 622.67 747.80 623.10 749.15 623.31 749.82 C 623.77 748.94 624.25 748.08 624.73 747.22 C 625.81 748.76 626.94 750.28 628.13 751.77 C 629.13 750.66 630.13 749.55 631.13 748.46 C 631.89 748.79 632.65 749.13 633.42 749.49 C 634.92 748.73 636.42 747.97 637.90 747.16 C 636.12 748.99 637.08 751.07 638.46 752.79 C 639.52 752.18 640.55 751.53 641.57 750.86 C 640.96 749.99 640.44 749.08 640.00 748.14 C 640.52 746.85 642.11 746.58 643.13 745.82 C 644.50 747.37 645.81 748.97 647.05 750.64 C 649.94 746.77 654.92 748.75 658.25 750.82 C 660.28 749.40 662.00 747.58 663.90 745.98 C 665.61 747.84 667.43 749.61 669.40 751.20 C 669.49 749.36 668.56 747.08 670.25 745.73 C 670.31 747.23 670.18 748.89 671.41 750.01 C 671.67 749.38 672.18 748.11 672.43 747.47 C 673.13 747.64 673.83 747.82 674.54 748.01 C 674.16 748.64 673.79 749.28 673.42 749.92 C 673.76 750.53 674.11 751.15 674.47 751.77 C 676.11 749.12 679.17 748.94 681.73 750.28 C 682.11 746.89 685.34 746.87 688.00 747.33 C 686.18 747.86 684.13 748.11 682.95 749.76 C 685.92 749.76 688.85 749.18 691.80 748.95 C 693.44 749.18 694.95 750.03 696.61 750.25 C 697.64 749.75 698.58 749.07 699.64 748.61 C 701.17 748.93 702.48 749.89 703.85 750.64 C 704.00 749.49 704.16 748.35 704.33 747.22 C 705.01 747.53 705.70 747.84 706.39 748.17 C 706.37 748.98 706.35 749.80 706.34 750.63 C 707.89 750.60 709.45 750.60 711.00 750.67 C 710.99 783.78 711.00 816.89 711.00 850.00 C 756.67 849.99 802.33 850.01 848.00 850.00 C 848.00 829.89 848.00 809.78 848.00 789.67 C 850.68 790.08 853.35 790.62 855.93 791.52 C 855.45 790.26 854.47 789.32 853.63 788.34 C 854.29 787.67 854.97 787.01 855.66 786.37 C 857.33 788.00 858.80 790.07 861.07 790.93 C 862.67 790.78 863.86 789.43 865.23 788.68 C 867.43 789.89 869.52 788.07 871.63 787.92 C 874.43 790.56 878.27 789.18 881.69 789.61 C 883.88 790.05 885.45 788.29 887.26 787.45 C 888.66 787.66 889.88 788.59 891.31 788.69 C 892.66 788.45 893.46 787.16 894.51 786.40 C 896.44 788.08 898.42 789.73 900.73 790.89 C 901.76 789.62 902.81 788.36 903.86 787.11 C 903.71 788.40 903.58 789.70 903.44 791.01 C 904.94 791.43 906.46 791.76 908.02 792.00 C 906.98 790.84 905.91 789.71 904.87 788.60 C 906.54 788.57 908.21 788.60 909.89 788.68 C 910.42 787.59 910.96 786.52 911.49 785.45 C 912.17 786.82 913.25 787.87 914.53 788.72 C 914.55 789.47 914.58 790.23 914.62 791.00 C 916.00 790.97 917.39 790.95 918.80 790.94 C 917.93 790.16 917.07 789.39 916.23 788.64 C 916.67 785.42 920.50 786.12 922.42 787.56 C 924.94 789.74 927.93 787.05 930.77 787.45 C 931.47 788.38 931.94 789.45 932.51 790.49 C 933.51 789.44 934.53 788.40 935.56 787.36 C 935.95 788.63 936.37 789.92 936.79 791.21 C 938.50 790.22 940.23 789.09 940.94 787.15 C 941.19 787.29 941.71 787.57 941.97 787.72 C 942.55 788.76 942.72 790.43 944.22 790.56 C 946.16 790.72 947.23 788.63 948.53 787.53 C 949.10 788.52 949.77 790.24 951.27 789.58 C 954.36 787.98 957.52 789.79 960.64 790.31 C 961.69 788.91 962.77 787.53 963.87 786.16 C 964.35 787.29 964.85 788.42 965.36 789.57 C 966.02 788.84 966.70 788.12 967.40 787.42 C 969.93 789.59 972.86 792.33 976.41 790.60 C 976.34 789.08 976.33 787.56 976.33 786.06 C 977.01 787.54 977.68 789.06 978.33 790.58 C 979.55 789.55 980.71 788.38 982.14 787.62 C 983.96 787.63 985.12 789.31 986.48 790.29 C 988.18 789.12 990.14 789.56 992.00 790.03 C 991.99 810.02 992.01 830.01 992.00 850.00 C 1038.33 850.01 1084.66 849.99 1130.99 850.00 C 1131.00 829.99 1131.02 809.97 1130.98 789.95 C 1133.35 791.91 1136.29 790.10 1138.81 791.60 C 1138.59 790.39 1138.40 789.19 1138.23 788.01 C 1140.81 788.16 1143.03 789.53 1145.14 790.91 C 1145.57 789.66 1145.99 788.42 1146.44 787.19 C 1146.81 788.05 1147.20 788.93 1147.60 789.82 C 1147.79 789.20 1148.18 787.94 1148.37 787.31 C 1148.88 788.25 1149.41 789.20 1149.95 790.16 C 1150.29 789.41 1150.63 788.67 1150.99 787.94 C 1151.63 788.94 1152.30 789.96 1152.99 790.97 C 1152.92 788.70 1152.69 786.45 1152.24 784.23 C 1152.99 784.53 1153.74 784.84 1154.52 785.16 C 1154.34 786.28 1154.17 787.41 1154.03 788.55 C 1154.59 788.23 1155.18 787.92 1155.78 787.63 C 1157.75 788.15 1159.88 788.66 1161.75 787.48 C 1161.67 788.47 1161.61 789.46 1161.56 790.47 C 1162.59 790.51 1163.64 790.57 1164.69 790.63 C 1164.89 789.53 1165.10 788.44 1165.32 787.37 C 1166.22 787.86 1167.13 788.36 1168.07 788.88 C 1168.69 787.91 1169.33 786.95 1169.99 786.01 C 1170.87 786.97 1171.77 787.95 1172.68 788.93 C 1172.65 787.90 1172.63 786.87 1172.64 785.85 C 1174.04 786.87 1175.29 788.10 1176.71 789.12 C 1179.15 789.64 1181.62 790.07 1183.98 790.96 C 1183.08 790.01 1182.21 789.07 1181.35 788.14 C 1183.56 788.21 1185.87 787.69 1188.04 788.38 C 1188.84 787.23 1189.65 786.09 1190.48 784.96 C 1191.76 786.77 1192.66 788.80 1193.47 790.87 C 1193.70 790.28 1194.15 789.10 1194.38 788.52 C 1196.59 788.63 1198.81 788.46 1201.01 788.11 C 1200.99 832.07 1201.01 876.04 1201.00 920.00 C 826.00 920.00 451.00 920.00 76.01 920.00 C 75.99 875.95 76.00 831.89 76.00 787.84 C 77.23 787.52 78.46 787.21 79.69 786.92 C 79.22 787.56 78.74 788.20 78.27 788.86 C 80.56 788.64 82.86 788.56 85.15 788.43 C 83.87 787.70 82.58 786.99 81.28 786.32 C 81.52 786.05 81.99 785.51 82.23 785.25 C 84.43 785.57 85.92 787.09 87.14 788.83 C 88.74 789.14 90.26 789.69 91.73 790.37 C 91.98 789.75 92.22 789.15 92.46 788.56 C 95.70 790.65 99.46 789.13 102.63 787.78 C 106.20 787.99 109.87 789.17 112.73 791.41 C 114.46 789.42 116.43 787.51 119.19 787.22 C 118.09 788.82 115.60 789.61 115.99 791.92 C 117.94 790.96 119.58 789.53 120.47 787.52 C 121.58 788.22 122.70 788.91 123.84 789.58 C 124.40 788.88 124.97 788.20 125.53 787.53 C 125.77 787.76 126.24 788.23 126.48 788.46 C 127.00 787.80 127.52 787.14 128.05 786.51 C 131.15 789.73 135.05 785.48 138.44 787.43 C 141.21 788.70 144.58 786.54 147.02 788.91 C 146.98 809.27 147.01 829.63 147.00 849.99 C 193.33 850.01 239.66 850.00 285.99 850.00 C 286.00 816.37 286.01 782.75 285.99 749.12 C 286.77 748.17 287.55 747.24 288.33 746.31 C 289.02 747.14 289.18 749.42 290.73 748.90 C 291.96 748.43 293.10 747.75 294.26 747.13 C 295.36 748.21 296.41 749.34 297.57 750.38 C 298.91 750.71 298.68 748.38 299.33 747.62 C 301.36 749.16 303.80 748.60 306.14 748.51 C 306.52 749.17 306.83 749.87 307.17 750.57 C 307.97 750.19 308.78 749.81 309.60 749.45 C 309.95 750.28 310.31 751.11 310.67 751.96 C 310.92 750.72 311.17 749.48 311.43 748.26 C 312.52 748.65 313.62 749.05 314.72 749.46 C 315.66 749.10 316.60 748.77 317.54 748.44 C 317.80 749.09 318.32 750.37 318.59 751.01 C 319.81 749.65 320.19 747.83 320.69 746.13 C 321.32 748.13 321.00 750.81 323.14 751.96 C 324.36 753.04 325.84 751.68 327.04 751.29 C 326.76 750.00 326.49 748.73 326.21 747.47 C 328.20 748.55 330.27 748.28 332.31 747.55 C 336.45 748.27 340.83 749.60 343.85 752.73 C 344.48 750.78 344.87 748.64 346.17 747.00 C 347.20 746.02 348.69 746.88 349.92 746.84 Z" />
</g>
</svg>
