<?xml version="1.0" encoding="UTF-8" ?>
<!DOCTYPE svg PUBLIC "-//W3C//DTD SVG 1.1//EN" "http://www.w3.org/Graphics/SVG/1.1/DTD/svg11.dtd">
<svg width="1276pt" height="1276pt" viewBox="0 0 1276 1276" version="1.1" xmlns="http://www.w3.org/2000/svg">
<g id="#94477dff">
<path fill="#94477d" opacity="1.00" d=" M 641.00 185.42 C 644.34 184.82 647.73 184.67 651.12 184.74 C 655.74 186.07 660.89 185.09 665.69 186.02 C 671.02 187.23 676.73 185.50 681.91 187.17 C 688.28 187.40 694.52 188.74 700.82 189.53 C 704.66 189.26 708.35 190.48 712.15 190.82 C 717.30 192.20 722.75 192.60 727.86 194.27 C 736.77 194.83 745.29 197.96 753.90 200.14 C 757.02 200.33 760.06 201.13 762.97 202.27 C 764.79 202.79 766.60 203.33 768.44 203.85 C 772.97 205.36 777.43 207.16 782.14 208.02 C 788.30 210.38 794.57 212.46 800.63 215.10 C 810.73 218.13 820.01 223.26 829.83 227.04 C 842.22 233.21 854.76 239.12 866.53 246.44 C 873.50 249.88 879.83 254.42 886.40 258.56 C 903.31 269.32 919.15 281.69 934.54 294.49 C 938.26 298.49 942.82 301.53 946.70 305.36 C 950.91 309.37 955.01 313.50 959.13 317.61 C 956.47 321.10 954.17 324.91 950.81 327.79 C 910.19 368.25 869.79 408.91 829.13 449.33 C 802.10 427.83 767.57 415.80 732.99 416.50 C 698.83 416.87 665.32 429.97 639.00 451.57 C 612.42 429.76 578.51 416.62 544.01 416.49 C 504.89 415.95 465.99 431.73 437.93 458.90 C 414.30 481.40 398.53 511.74 392.92 543.82 C 385.86 583.32 393.53 624.22 409.25 660.75 C 429.13 706.94 460.49 747.28 495.71 782.79 C 436.80 841.91 377.60 900.74 318.76 959.92 C 313.68 954.80 308.52 949.75 303.57 944.51 C 300.95 941.45 298.53 938.23 295.64 935.42 C 265.73 900.66 240.87 861.46 222.76 819.32 C 217.40 807.88 213.50 795.87 208.96 784.09 C 206.59 775.00 203.15 766.22 200.77 757.13 C 199.14 747.48 195.37 738.26 194.35 728.49 C 192.70 718.96 189.92 709.56 189.58 699.85 C 188.55 692.19 187.30 684.55 186.58 676.85 C 186.95 664.90 184.17 652.97 185.52 641.02 C 185.39 631.68 185.24 622.33 185.69 612.99 C 187.79 600.43 187.26 587.53 189.60 574.99 C 191.57 568.81 191.59 562.27 192.87 555.95 C 194.56 547.82 195.14 539.35 198.41 531.64 C 201.52 518.36 204.98 505.14 209.18 492.16 C 210.18 489.50 211.87 487.16 212.73 484.44 C 218.23 468.28 224.76 452.50 232.10 437.10 C 233.58 433.75 236.18 431.08 237.78 427.80 C 254.60 394.79 275.69 363.94 300.31 336.29 C 309.05 326.09 319.08 317.05 328.45 307.44 C 354.80 282.69 384.44 261.42 416.02 243.83 C 422.19 240.37 428.85 237.76 434.50 233.42 C 446.85 227.04 459.79 221.84 472.74 216.80 C 474.19 216.28 475.65 215.75 477.11 215.22 C 478.13 214.85 479.16 214.48 480.19 214.12 C 481.37 213.65 482.55 213.21 483.75 212.78 C 494.39 207.97 505.67 204.59 517.07 201.99 C 521.75 200.43 526.56 199.41 531.40 198.48 C 542.70 193.73 555.19 193.62 567.00 190.85 C 571.53 191.24 575.47 188.43 579.96 188.60 C 584.98 188.35 589.92 187.41 594.96 187.31 C 600.23 186.12 605.80 187.35 610.98 185.77 C 620.96 184.98 631.00 185.46 641.00 185.42 Z" />
</g>
<g id="#6b9941ff">
<path fill="#6b9941" opacity="1.00" d=" M 959.13 317.61 C 999.86 358.18 1032.79 406.57 1055.47 459.38 C 1059.73 468.29 1062.63 477.73 1066.32 486.87 C 1069.12 493.41 1070.46 500.42 1072.91 507.08 C 1076.16 516.13 1077.75 525.62 1080.44 534.84 C 1082.60 541.72 1083.04 548.93 1084.75 555.92 C 1086.11 562.55 1087.71 569.18 1087.89 575.99 C 1089.06 583.97 1090.30 591.95 1091.10 599.99 C 1090.86 610.01 1092.64 619.95 1092.66 629.97 C 1091.83 640.95 1092.79 651.98 1092.20 662.98 C 1090.25 674.90 1090.52 687.06 1088.79 699.01 C 1085.01 714.21 1085.00 730.31 1079.51 745.08 C 1076.76 757.66 1073.38 770.09 1069.59 782.38 C 1068.73 785.59 1066.69 788.29 1065.64 791.42 C 1060.16 807.76 1053.65 823.76 1046.25 839.33 C 1044.84 842.06 1042.77 844.38 1041.38 847.13 C 1030.79 868.23 1018.48 888.46 1004.64 907.58 C 995.82 919.93 986.17 931.66 975.57 942.51 C 960.42 958.37 944.81 973.81 928.51 988.47 C 903.45 1008.95 876.18 1026.76 847.23 1041.24 C 843.43 1043.42 840.04 1046.33 835.83 1047.75 C 831.10 1050.31 825.94 1051.90 821.14 1054.31 C 811.79 1058.31 802.20 1061.72 792.60 1065.09 C 789.54 1065.81 787.08 1067.90 784.13 1068.90 C 779.50 1070.46 774.82 1071.85 770.12 1073.19 C 763.64 1074.32 757.56 1077.14 751.00 1077.84 C 744.88 1079.04 739.31 1082.18 733.04 1082.65 C 730.69 1083.12 728.36 1083.66 725.98 1083.87 C 721.07 1085.10 716.03 1085.57 711.06 1086.40 C 705.67 1086.77 700.55 1088.61 695.18 1089.13 C 691.09 1089.53 686.96 1089.91 682.86 1089.51 C 684.29 1089.82 685.73 1090.15 687.18 1090.49 C 681.47 1090.06 675.74 1090.68 670.03 1090.81 C 658.51 1093.31 646.66 1091.96 634.98 1092.28 C 630.30 1092.73 625.59 1092.37 620.91 1092.18 C 616.41 1090.92 611.56 1092.19 607.10 1090.78 C 597.26 1091.20 587.60 1089.23 577.87 1088.13 C 575.34 1087.14 572.57 1087.80 569.96 1087.34 C 566.24 1086.65 562.54 1085.84 558.82 1085.18 C 553.86 1084.39 549.08 1082.60 544.03 1082.45 C 538.66 1081.37 533.40 1079.77 528.09 1078.44 C 522.76 1076.71 517.13 1076.23 511.88 1074.22 C 503.19 1071.11 494.14 1069.15 485.60 1065.61 C 481.12 1063.94 476.75 1061.96 472.16 1060.61 C 464.55 1057.96 457.52 1053.87 449.94 1051.17 C 401.40 1028.62 356.59 997.85 318.76 959.92 C 377.60 900.74 436.80 841.91 495.71 782.79 C 538.62 825.89 587.75 862.31 639.00 894.83 C 680.84 868.30 721.16 839.17 757.97 805.96 C 795.58 771.88 829.96 733.44 854.85 688.98 C 871.33 659.38 883.39 626.89 886.79 593.03 C 890.15 560.23 884.68 526.22 868.97 497.05 C 859.15 478.64 845.49 462.29 829.13 449.33 C 869.79 408.91 910.19 368.25 950.81 327.79 C 954.17 324.91 956.47 321.10 959.13 317.61 Z" />
</g>
<g id="#ffffffff">
<path fill="#ffffff" opacity="1.00" d=" M 437.93 458.90 C 465.99 431.73 504.89 415.95 544.01 416.49 C 578.51 416.62 612.42 429.76 639.00 451.57 C 665.32 429.97 698.83 416.87 732.99 416.50 C 767.57 415.80 802.10 427.83 829.13 449.33 C 845.49 462.29 859.15 478.64 868.97 497.05 C 884.68 526.22 890.15 560.23 886.79 593.03 C 883.39 626.89 871.33 659.38 854.85 688.98 C 829.96 733.44 795.58 771.88 757.97 805.96 C 721.16 839.17 680.84 868.30 639.00 894.83 C 587.75 862.31 538.62 825.89 495.71 782.79 C 460.49 747.28 429.13 706.94 409.25 660.75 C 393.53 624.22 385.86 583.32 392.92 543.82 C 398.53 511.74 414.30 481.40 437.93 458.90 Z" />
</g>
</svg>
