<?xml version="1.0" encoding="UTF-8" ?>
<!DOCTYPE svg PUBLIC "-//W3C//DTD SVG 1.1//EN" "http://www.w3.org/Graphics/SVG/1.1/DTD/svg11.dtd">
<svg width="1276pt" height="1276pt" viewBox="0 0 1276 1276" version="1.1" xmlns="http://www.w3.org/2000/svg">
<g id="#8e695aff">
<path fill="#8e695a" opacity="1.00" d=" M 418.58 258.48 C 480.49 222.79 551.57 203.23 623.02 202.31 C 687.93 201.12 752.94 215.37 811.61 243.12 C 814.74 236.72 817.96 230.02 823.37 225.20 C 826.48 222.11 831.32 222.59 835.08 224.07 C 840.65 226.37 844.30 231.39 848.36 235.60 C 853.24 240.62 858.43 245.40 863.85 249.82 C 874.52 246.30 885.85 245.33 897.02 244.87 C 916.85 244.65 936.72 248.37 955.07 255.92 C 966.79 260.65 977.61 267.27 988.63 273.40 C 1000.06 280.08 1011.52 286.84 1022.01 294.96 C 1037.85 306.95 1049.56 325.08 1052.05 344.96 C 1053.89 357.63 1054.02 370.48 1053.77 383.27 C 1052.78 372.66 1052.01 361.80 1048.25 351.72 C 1044.31 342.62 1039.13 333.96 1032.36 326.68 C 1024.61 318.54 1015.21 312.22 1005.80 306.19 C 992.68 298.12 979.37 290.32 965.69 283.25 C 934.89 267.63 898.36 263.04 864.87 271.80 C 863.54 272.33 862.52 271.09 861.57 270.42 C 854.88 264.78 848.69 258.58 842.81 252.11 C 838.67 247.61 832.21 243.90 826.00 245.93 C 820.22 249.14 817.03 255.35 813.99 260.95 C 812.91 262.69 812.14 266.66 809.39 264.66 C 736.62 230.28 653.85 217.73 574.12 228.33 C 534.11 233.52 494.87 244.56 458.01 260.95 C 392.82 289.75 335.22 335.33 291.85 391.85 C 284.98 400.82 278.21 409.91 272.37 419.58 C 270.94 421.62 269.54 423.69 268.20 425.79 C 264.16 424.83 259.97 425.14 255.92 424.32 C 293.64 355.57 350.55 297.49 418.58 258.48 Z" />
</g>
<g id="#794d3bff">
<path fill="#794d3b" opacity="1.00" d=" M 574.12 228.33 C 653.85 217.73 736.62 230.28 809.39 264.66 C 812.14 266.66 812.91 262.69 813.99 260.95 C 817.03 255.35 820.22 249.14 826.00 245.93 C 832.21 243.90 838.67 247.61 842.81 252.11 C 848.69 258.58 854.88 264.78 861.57 270.42 C 862.52 271.09 863.54 272.33 864.87 271.80 C 898.36 263.04 934.89 267.63 965.69 283.25 C 979.37 290.32 992.68 298.12 1005.80 306.19 C 1015.21 312.22 1024.61 318.54 1032.36 326.68 C 1039.13 333.96 1044.31 342.62 1048.25 351.72 C 1052.01 361.80 1052.78 372.66 1053.77 383.27 C 1053.70 385.61 1053.75 387.97 1053.41 390.29 C 1048.05 389.73 1042.71 392.23 1039.53 396.52 C 1032.23 405.90 1033.09 421.04 1042.25 428.89 C 1046.07 432.30 1051.41 432.73 1056.29 432.24 C 1052.33 436.02 1048.14 439.69 1043.26 442.25 C 1043.16 442.30 1042.97 442.40 1042.88 442.46 C 1036.50 443.37 1030.53 440.48 1024.64 438.54 C 1016.14 435.28 1007.50 432.38 999.04 429.00 C 984.54 423.15 973.15 412.14 961.01 402.66 C 967.99 388.99 963.50 370.89 951.02 362.00 C 939.62 353.26 922.47 353.79 911.56 363.10 C 900.15 353.54 886.70 346.59 872.43 342.41 C 852.50 336.38 831.70 334.01 811.01 332.42 C 794.51 331.03 777.92 331.67 761.39 332.20 C 756.41 329.64 750.53 331.28 745.17 331.18 C 745.41 331.59 745.89 332.41 746.13 332.82 C 730.48 334.19 714.77 335.50 699.29 338.30 C 659.99 344.80 622.21 358.15 585.58 373.50 C 567.12 380.98 549.46 390.30 532.22 400.23 C 522.48 406.08 512.59 411.79 503.58 418.74 C 503.15 418.56 502.28 418.21 501.85 418.03 C 498.52 420.09 496.29 423.40 493.64 426.19 C 489.68 424.28 485.25 425.12 481.03 425.06 C 411.17 424.91 341.30 425.21 271.44 424.91 C 271.93 423.16 272.55 421.42 272.37 419.58 C 278.21 409.91 284.98 400.82 291.85 391.85 C 335.22 335.33 392.82 289.75 458.01 260.95 C 494.87 244.56 534.11 233.52 574.12 228.33 Z" />
</g>
<g id="#6a3925ff">
<path fill="#6a3925" opacity="1.00" d=" M 745.17 331.18 C 750.53 331.28 756.41 329.64 761.39 332.20 C 756.30 332.33 751.21 332.59 746.13 332.82 C 745.89 332.41 745.41 331.59 745.17 331.18 Z" />
</g>
<g id="#ffffffff">
<path fill="#ffffff" opacity="1.00" d=" M 746.13 332.82 C 751.21 332.59 756.30 332.33 761.39 332.20 C 777.92 331.67 794.51 331.03 811.01 332.42 C 831.70 334.01 852.50 336.38 872.43 342.41 C 886.70 346.59 900.15 353.54 911.56 363.10 C 904.20 369.13 899.74 378.50 899.69 388.00 C 899.54 397.46 903.76 406.87 910.93 413.05 C 917.15 418.63 925.66 421.47 934.00 420.88 C 945.47 420.40 956.10 412.96 961.01 402.66 C 973.15 412.14 984.54 423.15 999.04 429.00 C 1007.50 432.38 1016.14 435.28 1024.64 438.54 C 1030.53 440.48 1036.50 443.37 1042.88 442.46 C 1040.64 445.58 1037.98 448.41 1034.90 450.71 C 1034.16 447.87 1037.58 446.48 1038.87 444.39 C 1029.59 442.82 1020.97 438.87 1012.11 435.89 C 1006.36 433.74 1000.42 431.97 995.04 428.99 C 992.49 427.70 989.96 426.02 987.01 426.03 C 825.33 426.04 663.65 426.06 501.97 426.01 C 500.40 426.22 498.35 425.76 497.30 427.25 C 494.43 430.65 492.35 434.63 489.65 438.15 C 489.26 438.15 488.47 438.17 488.07 438.18 C 491.71 430.64 497.17 424.08 503.58 418.74 C 512.59 411.79 522.48 406.08 532.22 400.23 C 549.46 390.30 567.12 380.98 585.58 373.50 C 622.21 358.15 659.99 344.80 699.29 338.30 C 714.77 335.50 730.48 334.19 746.13 332.82 Z" />
</g>
<g id="#3f3f3fff">
<path fill="#3f3f3f" opacity="1.00" d=" M 911.56 363.10 C 922.47 353.79 939.62 353.26 951.02 362.00 C 963.50 370.89 967.99 388.99 961.01 402.66 C 956.10 412.96 945.47 420.40 934.00 420.88 C 925.66 421.47 917.15 418.63 910.93 413.05 C 903.76 406.87 899.54 397.46 899.69 388.00 C 899.74 378.50 904.20 369.13 911.56 363.10 Z" />
<path fill="#3f3f3f" opacity="1.00" d=" M 1039.53 396.52 C 1042.71 392.23 1048.05 389.73 1053.41 390.29 C 1059.43 391.41 1064.19 396.17 1066.34 401.76 C 1070.33 411.44 1067.84 424.36 1058.68 430.22 C 1057.84 430.84 1057.05 431.54 1056.29 432.24 C 1051.41 432.73 1046.07 432.30 1042.25 428.89 C 1033.09 421.04 1032.23 405.90 1039.53 396.52 Z" />
<path fill="#3f3f3f" opacity="1.00" d=" M 1042.88 442.46 C 1042.97 442.40 1043.16 442.30 1043.26 442.25 C 1053.99 448.21 1064.75 455.77 1070.39 467.03 C 1077.93 482.60 1065.69 502.56 1049.08 504.97 C 1044.17 505.81 1039.24 504.19 1034.77 502.26 C 1028.20 499.19 1022.26 494.71 1017.66 489.10 C 1010.27 480.53 1007.71 467.46 1013.51 457.39 C 1016.57 453.68 1021.73 453.75 1026.08 454.32 C 1029.46 454.89 1032.25 452.43 1034.90 450.71 C 1037.98 448.41 1040.64 445.58 1042.88 442.46 Z" />
</g>
<g id="#724938ff">
<path fill="#724938" opacity="1.00" d=" M 493.64 426.19 C 496.29 423.40 498.52 420.09 501.85 418.03 C 502.28 418.21 503.15 418.56 503.58 418.74 C 497.17 424.08 491.71 430.64 488.07 438.18 C 484.25 446.50 481.30 455.84 483.13 465.06 C 485.50 482.65 498.45 498.29 515.34 503.79 C 521.81 506.26 528.81 505.87 535.55 506.93 C 542.73 508.46 549.52 511.50 555.60 515.60 C 576.16 530.13 589.27 552.84 598.26 575.89 C 600.49 582.16 602.59 588.54 603.42 595.17 C 604.15 600.66 603.03 606.15 602.47 611.60 C 600.11 621.41 596.07 631.46 587.84 637.80 C 578.69 645.13 566.04 646.05 554.93 643.70 C 543.60 641.45 533.71 634.09 527.21 624.68 C 523.75 618.78 520.21 612.91 515.94 607.56 C 504.34 592.48 488.19 581.33 470.57 574.42 C 451.20 566.93 430.57 563.15 409.98 560.93 C 399.67 560.29 388.28 560.37 379.51 566.60 C 377.24 565.37 375.47 567.72 374.30 569.35 C 370.33 575.98 369.19 583.92 365.72 590.72 C 361.51 591.41 357.23 590.95 352.99 590.97 C 305.99 591.07 258.99 590.90 211.99 591.02 C 211.30 590.96 209.92 590.82 209.22 590.76 C 208.67 585.32 212.62 579.79 210.01 574.60 C 212.81 557.35 217.48 540.44 222.75 523.80 C 233.65 489.36 249.24 456.50 268.20 425.79 C 269.54 423.69 270.94 421.62 272.37 419.58 C 272.55 421.42 271.93 423.16 271.44 424.91 C 341.30 425.21 411.17 424.91 481.03 425.06 C 485.25 425.12 489.68 424.28 493.64 426.19 Z" />
</g>
<g id="#8a6658ff">
<path fill="#8a6658" opacity="1.00" d=" M 255.92 424.32 C 259.97 425.14 264.16 424.83 268.20 425.79 C 249.24 456.50 233.65 489.36 222.75 523.80 C 217.48 540.44 212.81 557.35 210.01 574.60 C 205.31 597.16 203.16 620.19 202.28 643.19 C 200.50 567.21 219.08 490.83 255.92 424.32 Z" />
</g>
<g id="#fbfbfaff">
<path fill="#fbfbfa" opacity="1.00" d=" M 497.30 427.25 C 498.35 425.76 500.40 426.22 501.97 426.01 C 663.65 426.06 825.33 426.04 987.01 426.03 C 989.96 426.02 992.49 427.70 995.04 428.99 C 1000.42 431.97 1006.36 433.74 1012.11 435.89 C 1020.97 438.87 1029.59 442.82 1038.87 444.39 C 1037.58 446.48 1034.16 447.87 1034.90 450.71 C 1032.25 452.43 1029.46 454.89 1026.08 454.32 C 1021.73 453.75 1016.57 453.68 1013.51 457.39 C 1007.71 467.46 1010.27 480.53 1017.66 489.10 C 1017.25 489.21 1016.42 489.44 1016.01 489.55 C 1014.10 487.80 1013.31 485.20 1011.61 483.30 C 1008.08 482.69 1004.49 483.01 1000.95 482.97 C 939.30 483.01 877.66 482.99 816.01 482.98 C 811.66 483.02 807.26 482.59 802.96 483.44 C 816.90 487.48 830.82 491.62 844.57 496.26 C 844.42 496.66 844.13 497.45 843.98 497.85 C 808.60 486.56 772.78 476.22 736.09 470.21 C 697.53 463.27 657.62 462.05 619.07 469.72 C 599.19 473.71 579.58 479.89 561.78 489.75 C 552.75 495.02 544.00 500.77 535.55 506.93 C 528.81 505.87 521.81 506.26 515.34 503.79 C 498.45 498.29 485.50 482.65 483.13 465.06 C 481.30 455.84 484.25 446.50 488.07 438.18 C 488.47 438.17 489.26 438.15 489.65 438.15 C 492.35 434.63 494.43 430.65 497.30 427.25 Z" />
</g>
<g id="#fcfcfbff">
<path fill="#fcfcfb" opacity="1.00" d=" M 1056.29 432.24 C 1057.05 431.54 1057.84 430.84 1058.68 430.22 C 1064.26 440.89 1068.73 452.23 1071.07 464.07 C 1070.83 465.05 1070.60 466.04 1070.39 467.03 C 1064.75 455.77 1053.99 448.21 1043.26 442.25 C 1048.14 439.69 1052.33 436.02 1056.29 432.24 Z" />
</g>
<g id="#f6f4f3ff">
<path fill="#f6f4f3" opacity="1.00" d=" M 1071.07 464.07 C 1075.51 484.73 1071.93 507.67 1058.70 524.54 C 1046.56 540.42 1027.41 550.23 1007.66 552.21 C 993.92 553.52 980.21 550.72 967.02 547.09 C 937.41 538.33 910.46 522.82 881.87 511.41 C 869.47 506.28 856.79 501.83 843.98 497.85 C 844.13 497.45 844.42 496.66 844.57 496.26 C 830.82 491.62 816.90 487.48 802.96 483.44 C 807.26 482.59 811.66 483.02 816.01 482.98 C 877.66 482.99 939.30 483.01 1000.95 482.97 C 1004.49 483.01 1008.08 482.69 1011.61 483.30 C 1013.31 485.20 1014.10 487.80 1016.01 489.55 C 1016.42 489.44 1017.25 489.21 1017.66 489.10 C 1022.26 494.71 1028.20 499.19 1034.77 502.26 C 1039.24 504.19 1044.17 505.81 1049.08 504.97 C 1065.69 502.56 1077.93 482.60 1070.39 467.03 C 1070.60 466.04 1070.83 465.05 1071.07 464.07 Z" />
</g>
<g id="#d78801ff">
<path fill="#d78801" opacity="1.00" d=" M 619.07 469.72 C 657.62 462.05 697.53 463.27 736.09 470.21 C 735.44 470.69 734.80 471.19 734.20 471.71 C 758.94 475.58 783.29 481.62 807.31 488.65 C 811.31 489.54 813.10 493.58 815.52 496.45 C 818.94 501.60 822.95 506.39 825.71 511.95 C 822.28 511.71 818.84 509.29 815.48 510.92 C 795.45 505.41 775.45 499.72 755.06 495.73 C 733.05 491.44 710.84 487.49 688.38 486.94 C 663.45 485.65 638.32 487.49 613.93 492.81 C 593.55 497.48 573.26 504.19 555.60 515.60 C 549.52 511.50 542.73 508.46 535.55 506.93 C 544.00 500.77 552.75 495.02 561.78 489.75 C 579.58 479.89 599.19 473.71 619.07 469.72 Z" />
</g>
<g id="#d77c01ff">
<path fill="#d77c01" opacity="1.00" d=" M 736.09 470.21 C 772.78 476.22 808.60 486.56 843.98 497.85 C 856.79 501.83 869.47 506.28 881.87 511.41 L 881.38 512.47 C 884.68 514.85 888.73 515.81 892.39 517.53 C 905.35 523.36 918.31 529.29 931.11 535.40 C 931.87 542.55 936.13 548.75 936.59 555.98 C 931.48 554.13 926.70 551.49 921.66 549.52 C 921.07 549.61 919.90 549.80 919.31 549.89 C 896.71 539.92 874.35 528.99 850.52 522.17 C 839.02 517.88 827.10 514.83 815.48 510.92 C 818.84 509.29 822.28 511.71 825.71 511.95 C 822.95 506.39 818.94 501.60 815.52 496.45 C 813.10 493.58 811.31 489.54 807.31 488.65 C 783.29 481.62 758.94 475.58 734.20 471.71 C 734.80 471.19 735.44 470.69 736.09 470.21 Z" />
</g>
<g id="#ffa801ff">
<path fill="#ffa801" opacity="1.00" d=" M 613.93 492.81 C 638.32 487.49 663.45 485.65 688.38 486.94 C 686.98 487.54 685.56 488.25 684.00 488.16 C 676.95 488.29 669.85 487.64 662.85 488.67 C 658.53 489.38 654.10 488.52 649.84 489.54 C 678.98 491.94 707.17 503.67 729.67 522.31 C 736.20 527.04 741.50 533.16 747.25 538.77 C 753.54 546.21 760.02 553.59 764.89 562.08 C 776.19 579.47 783.79 599.01 788.71 619.08 C 790.11 628.07 792.50 636.92 793.02 646.04 C 793.18 655.38 792.80 664.72 793.06 674.06 C 793.50 683.64 791.25 693.06 789.41 702.40 C 786.77 716.19 782.39 729.64 776.28 742.29 C 765.32 766.51 749.11 788.71 727.86 804.90 C 719.30 811.98 709.90 818.07 699.81 822.72 C 689.04 828.53 677.14 831.54 665.34 834.41 C 653.12 836.15 640.75 838.18 628.39 836.62 C 623.94 835.97 619.47 835.42 615.00 834.92 C 609.52 834.37 604.36 832.33 599.02 831.15 C 586.18 827.91 574.39 821.73 563.15 814.89 C 533.02 796.05 510.17 766.61 497.36 733.65 C 492.63 722.77 490.29 711.07 487.37 699.62 C 486.02 694.72 486.22 689.60 485.44 684.62 C 484.55 673.70 482.84 662.67 484.64 651.75 C 485.22 645.30 485.78 638.85 486.39 632.41 C 487.79 624.99 489.97 617.73 491.39 610.32 C 490.36 609.05 488.08 608.37 488.67 606.37 C 498.71 612.27 507.41 620.12 515.33 628.60 C 517.10 631.13 519.09 633.51 520.89 636.03 C 525.13 641.85 527.85 648.77 533.18 653.77 C 540.12 661.32 549.81 665.83 559.88 667.32 C 559.49 676.31 562.27 685.04 564.57 693.63 C 567.56 702.54 571.41 711.32 577.18 718.81 C 581.47 723.86 585.05 729.63 590.55 733.52 C 599.23 741.33 609.88 746.61 621.02 749.86 C 626.98 750.77 632.91 752.28 638.99 752.12 C 644.43 752.23 649.71 750.80 655.06 750.05 C 659.27 749.58 662.96 747.36 666.94 746.09 C 675.64 743.35 682.16 736.67 689.42 731.51 C 706.78 715.53 716.03 692.24 717.95 669.01 C 719.28 646.56 712.58 623.77 699.43 605.54 C 689.15 592.36 675.08 581.77 658.91 577.10 C 655.40 575.80 651.74 574.93 647.99 574.93 C 644.04 574.90 640.13 573.46 636.18 574.26 C 631.81 575.05 627.29 574.67 623.01 575.92 C 618.01 577.39 612.97 578.90 608.35 581.34 C 606.54 582.11 604.56 583.54 602.55 582.63 C 601.52 580.29 600.95 577.78 599.92 575.46 C 599.50 575.57 598.67 575.78 598.26 575.89 C 589.27 552.84 576.16 530.13 555.60 515.60 C 573.26 504.19 593.55 497.48 613.93 492.81 Z" />
</g>
<g id="#ff9e01ff">
<path fill="#ff9e01" opacity="1.00" d=" M 688.38 486.94 C 710.84 487.49 733.05 491.44 755.06 495.73 C 775.45 499.72 795.45 505.41 815.48 510.92 C 827.10 514.83 839.02 517.88 850.52 522.17 C 846.62 523.52 843.04 520.72 839.27 520.13 C 845.64 530.78 850.50 542.25 855.46 553.60 C 859.35 562.80 861.69 572.54 865.13 581.90 C 866.34 586.16 866.87 590.59 868.26 594.82 C 870.14 600.15 870.12 605.89 871.55 611.34 C 874.47 623.37 874.17 635.82 875.85 648.02 C 876.30 655.65 875.67 663.31 875.98 670.95 C 876.34 676.34 875.09 681.65 874.86 687.02 C 873.82 694.73 874.09 702.57 872.25 710.17 C 870.44 717.34 870.17 724.82 867.77 731.84 C 863.16 752.77 855.59 773.00 846.06 792.19 C 832.10 820.53 813.21 846.49 790.22 868.17 C 785.45 871.73 781.56 876.28 776.79 879.82 C 760.58 892.66 742.64 903.16 723.95 911.92 C 716.67 914.62 709.44 917.44 702.13 920.06 C 688.36 923.76 674.44 927.34 660.16 928.38 C 654.45 929.31 648.61 928.57 642.93 929.75 C 636.58 930.97 630.32 928.64 623.96 928.98 C 620.28 929.05 616.69 928.09 613.02 928.03 C 605.18 927.92 597.72 925.19 590.04 923.99 C 580.69 922.55 571.94 918.83 563.01 915.91 C 535.98 905.54 510.79 890.17 489.49 870.55 C 485.01 867.36 482.16 862.24 477.08 859.90 C 475.10 857.65 474.17 854.60 471.91 852.56 C 471.49 852.64 470.63 852.79 470.21 852.86 C 447.33 815.09 434.28 771.51 432.11 727.44 C 432.51 725.97 432.91 724.50 433.10 723.00 C 436.29 683.02 446.96 643.40 466.07 608.04 C 468.02 604.66 469.70 601.09 472.13 598.02 C 478.03 599.84 483.38 603.21 488.67 606.37 C 488.08 608.37 490.36 609.05 491.39 610.32 C 489.97 617.73 487.79 624.99 486.39 632.41 C 485.78 638.85 485.22 645.30 484.64 651.75 C 482.84 662.67 484.55 673.70 485.44 684.62 C 486.22 689.60 486.02 694.72 487.37 699.62 C 490.29 711.07 492.63 722.77 497.36 733.65 C 510.17 766.61 533.02 796.05 563.15 814.89 C 574.39 821.73 586.18 827.91 599.02 831.15 C 604.36 832.33 609.52 834.37 615.00 834.92 C 619.47 835.42 623.94 835.97 628.39 836.62 C 640.75 838.18 653.12 836.15 665.34 834.41 C 677.14 831.54 689.04 828.53 699.81 822.72 C 709.90 818.07 719.30 811.98 727.86 804.90 C 749.11 788.71 765.32 766.51 776.28 742.29 C 782.39 729.64 786.77 716.19 789.41 702.40 C 791.25 693.06 793.50 683.64 793.06 674.06 C 792.80 664.72 793.18 655.38 793.02 646.04 C 792.50 636.92 790.11 628.07 788.71 619.08 C 783.79 599.01 776.19 579.47 764.89 562.08 C 760.02 553.59 753.54 546.21 747.25 538.77 C 741.50 533.16 736.20 527.04 729.67 522.31 C 707.17 503.67 678.98 491.94 649.84 489.54 C 654.10 488.52 658.53 489.38 662.85 488.67 C 669.85 487.64 676.95 488.29 684.00 488.16 C 685.56 488.25 686.98 487.54 688.38 486.94 Z" />
</g>
<g id="#d77202ff">
<path fill="#d77202" opacity="1.00" d=" M 881.38 512.47 L 881.87 511.41 C 910.46 522.82 937.41 538.33 967.02 547.09 C 980.21 550.72 993.92 553.52 1007.66 552.21 C 1010.24 559.12 1012.69 566.14 1014.57 573.27 C 999.14 576.31 983.35 573.57 968.39 569.51 C 957.80 566.56 947.63 562.37 937.44 558.32 C 931.41 555.49 925.27 552.88 919.31 549.89 C 919.90 549.80 921.07 549.61 921.66 549.52 C 926.70 551.49 931.48 554.13 936.59 555.98 C 936.13 548.75 931.87 542.55 931.11 535.40 C 918.31 529.29 905.35 523.36 892.39 517.53 C 888.73 515.81 884.68 514.85 881.38 512.47 Z" />
</g>
<g id="#ff9301ff">
<path fill="#ff9301" opacity="1.00" d=" M 839.27 520.13 C 843.04 520.72 846.62 523.52 850.52 522.17 C 874.35 528.99 896.71 539.92 919.31 549.89 C 925.27 552.88 931.41 555.49 937.44 558.32 C 934.97 559.21 932.66 557.92 930.40 557.10 C 931.67 565.19 934.63 572.88 936.07 580.94 C 937.19 586.76 938.48 592.55 939.57 598.38 C 941.28 613.53 944.67 628.63 943.95 643.96 C 944.03 649.99 945.51 655.93 944.99 661.99 C 945.53 668.72 943.70 675.32 943.98 682.03 C 944.63 695.82 941.56 709.38 940.00 723.01 C 939.36 729.21 937.77 735.25 936.51 741.34 C 934.62 752.49 931.04 763.25 928.24 774.18 C 919.27 803.17 906.96 831.19 891.08 857.08 C 870.78 890.89 843.99 920.60 813.37 945.38 C 795.58 958.86 776.52 970.71 756.41 980.42 C 750.69 983.21 744.20 983.66 737.94 983.92 C 732.95 983.94 728.04 985.11 723.04 984.96 C 716.86 984.86 710.52 984.60 704.61 986.72 C 657.76 985.25 611.22 972.58 570.36 949.55 C 529.46 926.58 494.38 893.12 470.21 852.86 C 470.63 852.79 471.49 852.64 471.91 852.56 C 474.17 854.60 475.10 857.65 477.08 859.90 C 482.16 862.24 485.01 867.36 489.49 870.55 C 510.79 890.17 535.98 905.54 563.01 915.91 C 571.94 918.83 580.69 922.55 590.04 923.99 C 597.72 925.19 605.18 927.92 613.02 928.03 C 616.69 928.09 620.28 929.05 623.96 928.98 C 630.32 928.64 636.58 930.97 642.93 929.75 C 648.61 928.57 654.45 929.31 660.16 928.38 C 674.44 927.34 688.36 923.76 702.13 920.06 C 709.44 917.44 716.67 914.62 723.95 911.92 C 742.64 903.16 760.58 892.66 776.79 879.82 C 781.56 876.28 785.45 871.73 790.22 868.17 C 813.21 846.49 832.10 820.53 846.06 792.19 C 855.59 773.00 863.16 752.77 867.77 731.84 C 870.17 724.82 870.44 717.34 872.25 710.17 C 874.09 702.57 873.82 694.73 874.86 687.02 C 875.09 681.65 876.34 676.34 875.98 670.95 C 875.67 663.31 876.30 655.65 875.85 648.02 C 874.17 635.82 874.47 623.37 871.55 611.34 C 870.12 605.89 870.14 600.15 868.26 594.82 C 866.87 590.59 866.34 586.16 865.13 581.90 C 861.69 572.54 859.35 562.80 855.46 553.60 C 850.50 542.25 845.64 530.78 839.27 520.13 Z" />
</g>
<g id="#ff8802ff">
<path fill="#ff8802" opacity="1.00" d=" M 930.40 557.10 C 932.66 557.92 934.97 559.21 937.44 558.32 C 947.63 562.37 957.80 566.56 968.39 569.51 C 983.35 573.57 999.14 576.31 1014.57 573.27 L 1014.68 573.26 C 1040.72 660.06 1034.92 756.06 998.04 838.91 C 990.61 855.67 982.02 872.00 972.19 887.44 C 957.62 894.65 945.50 905.80 933.67 916.76 C 925.38 923.21 917.01 929.59 907.95 934.93 C 872.40 956.45 832.43 969.73 791.91 978.21 C 763.21 983.96 733.93 987.78 704.61 986.72 C 710.52 984.60 716.86 984.86 723.04 984.96 C 728.04 985.11 732.95 983.94 737.94 983.92 C 744.20 983.66 750.69 983.21 756.41 980.42 C 776.52 970.71 795.58 958.86 813.37 945.38 C 843.99 920.60 870.78 890.89 891.08 857.08 C 906.96 831.19 919.27 803.17 928.24 774.18 C 931.04 763.25 934.62 752.49 936.51 741.34 C 937.77 735.25 939.36 729.21 940.00 723.01 C 941.56 709.38 944.63 695.82 943.98 682.03 C 943.70 675.32 945.53 668.72 944.99 661.99 C 945.51 655.93 944.03 649.99 943.95 643.96 C 944.67 628.63 941.28 613.53 939.57 598.38 C 938.48 592.55 937.19 586.76 936.07 580.94 C 934.63 572.88 931.67 565.19 930.40 557.10 Z" />
</g>
<g id="#eeeae9ff">
<path fill="#eeeae9" opacity="1.00" d=" M 379.51 566.60 C 388.28 560.37 399.67 560.29 409.98 560.93 C 430.57 563.15 451.20 566.93 470.57 574.42 C 455.96 596.73 445.33 621.61 439.07 647.52 C 438.16 646.52 437.84 645.40 438.11 644.15 C 439.02 639.10 441.35 634.39 441.84 629.26 C 434.90 628.56 427.93 629.07 420.97 629.03 C 405.33 628.81 389.68 629.09 374.03 628.92 C 369.78 628.81 365.49 629.34 361.27 628.70 C 360.61 626.74 360.23 624.72 359.92 622.69 C 363.34 605.57 368.20 588.73 374.64 572.49 C 375.60 570.07 377.59 568.27 379.51 566.60 Z" />
</g>
<g id="#6d4535ff">
<path fill="#6d4535" opacity="1.00" d=" M 374.30 569.35 C 375.47 567.72 377.24 565.37 379.51 566.60 C 377.59 568.27 375.60 570.07 374.64 572.49 C 368.20 588.73 363.34 605.57 359.92 622.69 C 354.59 649.24 353.17 676.47 354.65 703.48 C 354.79 708.22 355.42 712.93 355.70 717.66 C 352.22 722.53 355.61 728.39 355.58 733.74 C 334.73 734.35 313.84 733.80 292.98 734.01 C 266.53 733.91 240.08 734.08 213.63 733.96 C 206.69 704.21 202.82 673.74 202.28 643.19 C 203.16 620.19 205.31 597.16 210.01 574.60 C 212.62 579.79 208.67 585.32 209.22 590.76 C 209.92 590.82 211.30 590.96 211.99 591.02 C 258.99 590.90 305.99 591.07 352.99 590.97 C 357.23 590.95 361.51 591.41 365.72 590.72 C 369.19 583.92 370.33 575.98 374.30 569.35 Z" />
</g>
<g id="#d78701ff">
<path fill="#d78701" opacity="1.00" d=" M 470.57 574.42 C 488.19 581.33 504.34 592.48 515.94 607.56 C 512.19 610.79 511.90 616.23 510.55 620.71 C 512.18 623.31 515.45 625.19 515.33 628.60 C 507.41 620.12 498.71 612.27 488.67 606.37 C 483.38 603.21 478.03 599.84 472.13 598.02 C 469.70 601.09 468.02 604.66 466.07 608.04 C 446.96 643.40 436.29 683.02 433.10 723.00 C 432.91 724.50 432.51 725.97 432.11 727.44 C 431.42 718.09 431.64 708.70 431.84 699.34 C 432.71 681.89 434.94 664.50 439.07 647.52 C 445.33 621.61 455.96 596.73 470.57 574.42 Z" />
</g>
<g id="#ffb200ff">
<path fill="#ffb200" opacity="1.00" d=" M 623.01 575.92 C 627.29 574.67 631.81 575.05 636.18 574.26 C 640.13 573.46 644.04 574.90 647.99 574.93 C 651.74 574.93 655.40 575.80 658.91 577.10 C 675.08 581.77 689.15 592.36 699.43 605.54 C 712.58 623.77 719.28 646.56 717.95 669.01 C 716.03 692.24 706.78 715.53 689.42 731.51 C 682.16 736.67 675.64 743.35 666.94 746.09 C 662.96 747.36 659.27 749.58 655.06 750.05 C 649.71 750.80 644.43 752.23 638.99 752.12 C 632.91 752.28 626.98 750.77 621.02 749.86 C 609.88 746.61 599.23 741.33 590.55 733.52 C 585.05 729.63 581.47 723.86 577.18 718.81 C 571.41 711.32 567.56 702.54 564.57 693.63 C 562.27 685.04 559.49 676.31 559.88 667.32 C 569.83 668.63 580.56 666.98 588.59 660.61 C 597.69 653.50 601.87 641.98 603.60 630.92 C 604.34 624.53 605.50 617.60 602.47 611.60 C 603.03 606.15 604.15 600.66 603.42 595.17 C 602.59 588.54 600.49 582.16 598.26 575.89 C 598.67 575.78 599.50 575.57 599.92 575.46 C 600.95 577.78 601.52 580.29 602.55 582.63 C 604.56 583.54 606.54 582.11 608.35 581.34 C 612.97 578.90 618.01 577.39 623.01 575.92 Z" />
</g>
<g id="#d79300ff">
<path fill="#d79300" opacity="1.00" d=" M 510.55 620.71 C 511.90 616.23 512.19 610.79 515.94 607.56 C 520.21 612.91 523.75 618.78 527.21 624.68 C 533.71 634.09 543.60 641.45 554.93 643.70 C 566.04 646.05 578.69 645.13 587.84 637.80 C 596.07 631.46 600.11 621.41 602.47 611.60 C 605.50 617.60 604.34 624.53 603.60 630.92 C 601.87 641.98 597.69 653.50 588.59 660.61 C 580.56 666.98 569.83 668.63 559.88 667.32 C 549.81 665.83 540.12 661.32 533.18 653.77 C 527.85 648.77 525.13 641.85 520.89 636.03 C 519.09 633.51 517.10 631.13 515.33 628.60 C 515.45 625.19 512.18 623.31 510.55 620.71 Z" />
</g>
<g id="#e8e3e2ff">
<path fill="#e8e3e2" opacity="1.00" d=" M 359.92 622.69 C 360.23 624.72 360.61 626.74 361.27 628.70 C 365.49 629.34 369.78 628.81 374.03 628.92 C 389.68 629.09 405.33 628.81 420.97 629.03 C 427.93 629.07 434.90 628.56 441.84 629.26 C 441.35 634.39 439.02 639.10 438.11 644.15 C 437.84 645.40 438.16 646.52 439.07 647.52 C 434.94 664.50 432.71 681.89 431.84 699.34 C 431.20 698.53 430.60 697.71 430.05 696.87 C 430.47 689.99 431.35 683.14 431.76 676.28 C 427.20 675.63 422.60 676.07 418.02 676.01 C 400.65 675.94 383.29 676.01 365.92 675.96 C 362.73 675.95 359.51 675.75 356.34 676.19 C 355.52 684.70 356.64 693.29 356.04 701.80 C 355.69 702.22 354.99 703.06 354.65 703.48 C 353.17 676.47 354.59 649.24 359.92 622.69 Z" />
</g>
<g id="#e5dfddff">
<path fill="#e5dfdd" opacity="1.00" d=" M 356.34 676.19 C 359.51 675.75 362.73 675.95 365.92 675.96 C 383.29 676.01 400.65 675.94 418.02 676.01 C 422.60 676.07 427.20 675.63 431.76 676.28 C 431.35 683.14 430.47 689.99 430.05 696.87 C 430.60 697.71 431.20 698.53 431.84 699.34 C 431.64 708.70 431.42 718.09 432.11 727.44 C 434.28 771.51 447.33 815.09 470.21 852.86 C 494.38 893.12 529.46 926.58 570.36 949.55 C 611.22 972.58 657.76 985.25 704.61 986.72 C 733.93 987.78 763.21 983.96 791.91 978.21 C 832.43 969.73 872.40 956.45 907.95 934.93 C 908.36 935.41 908.76 935.92 909.16 936.47 C 908.97 937.54 908.69 938.60 908.58 939.70 C 874.87 966.45 835.18 985.01 794.03 997.11 C 746.51 1010.80 696.39 1016.50 647.09 1011.53 C 605.04 1007.11 563.91 994.33 526.71 974.22 C 480.46 949.16 440.38 912.88 410.87 869.34 C 380.29 824.38 361.16 771.75 355.70 717.66 C 355.42 712.93 354.79 708.22 354.65 703.48 C 354.99 703.06 355.69 702.22 356.04 701.80 C 356.64 693.29 355.52 684.70 356.34 676.19 Z" />
</g>
<g id="#674132ff">
<path fill="#674132" opacity="1.00" d=" M 355.58 733.74 C 355.61 728.39 352.22 722.53 355.70 717.66 C 361.16 771.75 380.29 824.38 410.87 869.34 C 409.26 871.67 412.04 873.69 412.77 875.84 C 372.54 876.20 332.29 875.85 292.05 875.98 C 287.22 876.09 282.34 875.60 277.54 876.32 C 277.26 877.01 276.70 878.40 276.43 879.10 C 247.01 835.02 225.60 785.58 213.63 733.96 C 240.08 734.08 266.53 733.91 292.98 734.01 C 313.84 733.80 334.73 734.35 355.58 733.74 Z" />
</g>
<g id="#613e2fff">
<path fill="#613e2f" opacity="1.00" d=" M 412.77 875.84 C 412.04 873.69 409.26 871.67 410.87 869.34 C 440.38 912.88 480.46 949.16 526.71 974.22 C 525.85 976.20 527.95 977.02 529.32 977.78 C 536.16 981.17 543.02 984.54 549.97 987.72 C 517.66 988.42 485.30 987.75 452.97 988.04 C 436.31 987.91 419.66 988.00 403.00 987.99 C 395.20 988.17 387.38 987.56 379.60 988.39 C 339.30 958.22 304.23 921.06 276.43 879.10 C 276.70 878.40 277.26 877.01 277.54 876.32 C 282.34 875.60 287.22 876.09 292.05 875.98 C 332.29 875.85 372.54 876.20 412.77 875.84 Z" />
</g>
<g id="#5e3c2eff">
<path fill="#5e3c2e" opacity="1.00" d=" M 933.67 916.76 C 945.50 905.80 957.62 894.65 972.19 887.44 C 957.34 925.36 931.78 958.54 901.04 985.00 C 870.19 1011.53 834.14 1031.68 796.09 1045.87 C 752.90 1061.98 707.05 1070.64 661.02 1072.39 C 637.69 1072.95 614.27 1072.87 591.02 1070.70 C 514.69 1063.71 440.81 1034.39 379.60 988.39 C 387.38 987.56 395.20 988.17 403.00 987.99 C 419.66 988.00 436.31 987.91 452.97 988.04 C 485.30 987.75 517.66 988.42 549.97 987.72 C 543.02 984.54 536.16 981.17 529.32 977.78 C 527.95 977.02 525.85 976.20 526.71 974.22 C 563.91 994.33 605.04 1007.11 647.09 1011.53 C 696.39 1016.50 746.51 1010.80 794.03 997.11 C 835.18 985.01 874.87 966.45 908.58 939.70 C 917.38 932.59 926.20 925.27 933.67 916.76 Z" />
</g>
<g id="#e6e2e4ff">
<path fill="#e6e2e4" opacity="1.00" d=" M 907.95 934.93 C 917.01 929.59 925.38 923.21 933.67 916.76 C 926.20 925.27 917.38 932.59 908.58 939.70 C 908.69 938.60 908.97 937.54 909.16 936.47 C 908.76 935.92 908.36 935.41 907.95 934.93 Z" />
</g>
</svg>
