<?xml version="1.0" encoding="UTF-8" ?>
<!DOCTYPE svg PUBLIC "-//W3C//DTD SVG 1.1//EN" "http://www.w3.org/Graphics/SVG/1.1/DTD/svg11.dtd">
<svg width="1276pt" height="1276pt" viewBox="0 0 1276 1276" version="1.1" xmlns="http://www.w3.org/2000/svg">
<g id="#626871ff">
<path fill="#626871" opacity="1.00" d=" M 807.07 172.14 C 811.83 171.31 817.11 170.08 821.65 172.38 C 825.10 174.17 826.18 178.22 826.90 181.74 C 824.36 182.65 821.67 183.06 818.99 182.84 C 816.38 180.65 812.93 181.65 809.88 181.89 C 791.41 183.89 773.79 190.72 757.55 199.52 C 738.78 209.76 721.54 222.71 705.94 237.31 L 704.51 237.23 C 705.52 235.89 706.56 234.56 707.61 233.25 C 704.98 232.39 702.48 231.21 700.15 229.73 C 713.95 216.34 729.60 204.92 746.24 195.33 C 765.17 184.57 785.55 175.96 807.07 172.14 Z" />
</g>
<g id="#d4d7dfff">
<path fill="#d4d7df" opacity="1.00" d=" M 809.88 181.89 C 812.93 181.65 816.38 180.65 818.99 182.84 C 818.75 186.01 818.54 189.19 818.38 192.37 C 818.14 192.79 817.66 193.65 817.42 194.07 C 816.87 193.92 815.77 193.60 815.22 193.45 C 804.56 204.14 789.65 208.11 776.34 214.29 C 769.89 217.71 762.56 219.29 756.56 223.57 C 750.78 227.63 743.91 229.90 738.41 234.40 C 730.52 240.98 721.79 246.44 713.68 252.72 C 707.97 257.15 701.44 260.36 695.76 264.82 C 690.29 269.00 684.74 273.09 679.39 277.43 C 675.70 280.37 672.74 284.09 669.13 287.12 L 668.60 285.79 C 669.34 284.47 670.07 283.13 670.81 281.81 C 673.79 276.56 677.13 271.54 680.42 266.48 C 687.75 255.79 696.73 246.38 705.94 237.31 C 721.54 222.71 738.78 209.76 757.55 199.52 C 773.79 190.72 791.41 183.89 809.88 181.89 Z" />
</g>
<g id="#9ea4afff">
<path fill="#9ea4af" opacity="1.00" d=" M 818.99 182.84 C 821.67 183.06 824.36 182.65 826.90 181.74 C 827.81 197.46 824.20 213.09 819.85 228.10 C 808.46 265.48 785.82 298.85 757.34 325.37 C 755.62 326.84 754.18 328.69 752.21 329.82 C 747.67 330.81 744.08 333.87 740.26 336.30 C 729.83 343.12 718.97 349.24 707.83 354.82 C 699.10 359.05 690.07 362.61 680.85 365.60 C 666.49 370.22 651.29 371.95 636.27 370.62 C 635.17 362.29 636.90 353.93 638.80 345.85 C 644.04 324.72 651.79 304.30 659.83 284.10 C 661.78 285.47 663.63 287.03 665.20 288.85 C 665.67 288.70 666.60 288.40 667.07 288.25 C 665.21 291.95 663.52 295.74 661.71 299.46 C 660.21 302.66 659.10 306.01 657.77 309.28 C 656.30 312.65 655.08 316.12 654.04 319.64 C 651.80 326.65 649.40 333.63 647.96 340.85 C 647.20 344.69 646.33 348.51 645.62 352.36 C 645.25 354.36 644.90 356.37 644.64 358.39 C 644.93 361.30 646.60 364.52 649.87 364.71 C 656.27 365.06 662.53 363.19 668.74 361.85 C 703.05 353.23 735.56 336.62 761.96 312.99 C 774.65 300.66 785.42 286.43 794.57 271.32 C 798.14 266.03 800.90 260.24 803.72 254.52 C 804.83 252.23 805.84 249.88 806.84 247.52 C 807.76 245.39 808.61 243.23 809.35 241.03 C 814.72 225.38 818.51 208.98 818.38 192.37 C 818.54 189.19 818.75 186.01 818.99 182.84 Z" />
</g>
<g id="#b3bac7ff">
<path fill="#b3bac7" opacity="1.00" d=" M 815.22 193.45 C 815.77 193.60 816.87 193.92 817.42 194.07 C 811.63 205.19 799.10 210.01 787.92 213.84 C 756.44 225.93 728.55 245.46 702.14 266.11 C 690.72 275.32 679.42 284.70 668.45 294.46 C 666.41 296.39 664.41 298.48 661.71 299.46 C 663.52 295.74 665.21 291.95 667.07 288.25 C 667.57 287.42 668.08 286.60 668.60 285.79 L 669.13 287.12 C 672.74 284.09 675.70 280.37 679.39 277.43 C 684.74 273.09 690.29 269.00 695.76 264.82 C 701.44 260.36 707.97 257.15 713.68 252.72 C 721.79 246.44 730.52 240.98 738.41 234.40 C 743.91 229.90 750.78 227.63 756.56 223.57 C 762.56 219.29 769.89 217.71 776.34 214.29 C 789.65 208.11 804.56 204.14 815.22 193.45 Z" />
</g>
<g id="#959fb1ff">
<path fill="#959fb1" opacity="1.00" d=" M 818.38 192.37 C 818.51 208.98 814.72 225.38 809.35 241.03 C 807.13 241.23 804.91 241.74 803.14 243.16 C 800.12 245.41 796.42 247.23 794.78 250.82 C 789.77 252.92 783.74 250.64 779.40 254.42 C 773.52 258.77 768.23 263.95 761.79 267.52 C 755.04 270.57 748.11 273.18 741.32 276.13 C 734.35 280.03 726.35 281.45 719.30 285.18 C 713.05 288.66 705.91 289.98 699.61 293.36 C 693.64 296.55 686.87 297.67 680.91 300.82 C 675.14 303.61 669.02 305.56 663.23 308.30 C 661.54 309.20 659.65 309.47 657.77 309.28 C 659.10 306.01 660.21 302.66 661.71 299.46 C 664.41 298.48 666.41 296.39 668.45 294.46 C 679.42 284.70 690.72 275.32 702.14 266.11 C 728.55 245.46 756.44 225.93 787.92 213.84 C 799.10 210.01 811.63 205.19 817.42 194.07 C 817.66 193.65 818.14 192.79 818.38 192.37 Z" />
</g>
<g id="#777d86ff">
<path fill="#777d86" opacity="1.00" d=" M 678.69 253.82 C 685.13 245.20 692.39 237.18 700.15 229.73 C 702.48 231.21 704.98 232.39 707.61 233.25 C 706.56 234.56 705.52 235.89 704.51 237.23 L 705.94 237.31 C 696.73 246.38 687.75 255.79 680.42 266.48 C 680.44 262.94 683.23 260.38 684.75 257.41 C 682.73 256.21 680.70 255.02 678.69 253.82 Z" />
</g>
<g id="#aeb7c8ff">
<path fill="#aeb7c8" opacity="1.00" d=" M 803.14 243.16 C 804.91 241.74 807.13 241.23 809.35 241.03 C 808.61 243.23 807.76 245.39 806.84 247.52 C 803.08 248.27 800.55 251.39 797.65 253.61 C 789.28 260.19 782.76 268.94 773.68 274.63 C 768.97 277.84 765.14 282.09 761.08 286.03 C 756.52 289.56 751.54 292.51 746.89 295.92 C 742.02 299.06 737.75 303.15 732.41 305.55 C 727.36 307.84 723.29 311.71 718.59 314.57 C 709.97 319.36 703.33 327.08 694.34 331.27 C 686.77 334.23 679.09 336.88 671.35 339.34 C 664.18 341.47 656.68 341.85 649.42 343.49 C 648.92 342.61 648.44 341.73 647.96 340.85 C 649.40 333.63 651.80 326.65 654.04 319.64 C 654.54 320.64 655.04 321.65 655.55 322.65 C 660.75 321.25 665.57 318.86 670.36 316.46 C 681.48 312.57 692.15 307.54 703.15 303.32 C 711.05 300.27 718.65 296.47 726.64 293.64 C 734.20 290.80 741.28 286.91 748.60 283.54 C 756.14 279.90 762.37 273.64 770.60 271.51 C 775.89 267.09 782.11 263.84 786.83 258.74 C 789.34 255.95 793.14 254.36 794.78 250.82 C 796.42 247.23 800.12 245.41 803.14 243.16 Z" />
</g>
<g id="#bec7d7ff">
<path fill="#bec7d7" opacity="1.00" d=" M 797.65 253.61 C 800.55 251.39 803.08 248.27 806.84 247.52 C 805.84 249.88 804.83 252.23 803.72 254.52 C 801.86 254.32 801.16 256.15 800.24 257.35 C 797.94 260.97 794.54 263.66 791.92 267.01 C 788.21 271.53 784.94 276.60 780.12 280.03 C 768.75 286.64 760.17 296.98 749.16 304.08 C 736.11 313.33 723.08 322.92 708.32 329.31 C 692.30 338.26 675.08 345.27 657.19 349.42 C 653.35 350.52 649.83 353.79 645.62 352.36 C 646.33 348.51 647.20 344.69 647.96 340.85 C 648.44 341.73 648.92 342.61 649.42 343.49 C 656.68 341.85 664.18 341.47 671.35 339.34 C 679.09 336.88 686.77 334.23 694.34 331.27 C 703.33 327.08 709.97 319.36 718.59 314.57 C 723.29 311.71 727.36 307.84 732.41 305.55 C 737.75 303.15 742.02 299.06 746.89 295.92 C 751.54 292.51 756.52 289.56 761.08 286.03 C 765.14 282.09 768.97 277.84 773.68 274.63 C 782.76 268.94 789.28 260.19 797.65 253.61 Z" />
</g>
<g id="#a4aebfff">
<path fill="#a4aebf" opacity="1.00" d=" M 779.40 254.42 C 783.74 250.64 789.77 252.92 794.78 250.82 C 793.14 254.36 789.34 255.95 786.83 258.74 C 782.11 263.84 775.89 267.09 770.60 271.51 C 762.37 273.64 756.14 279.90 748.60 283.54 C 741.28 286.91 734.20 290.80 726.64 293.64 C 718.65 296.47 711.05 300.27 703.15 303.32 C 692.15 307.54 681.48 312.57 670.36 316.46 C 665.57 318.86 660.75 321.25 655.55 322.65 C 655.04 321.65 654.54 320.64 654.04 319.64 C 655.08 316.12 656.30 312.65 657.77 309.28 C 659.65 309.47 661.54 309.20 663.23 308.30 C 669.02 305.56 675.14 303.61 680.91 300.82 C 686.87 297.67 693.64 296.55 699.61 293.36 C 705.91 289.98 713.05 288.66 719.30 285.18 C 726.35 281.45 734.35 280.03 741.32 276.13 C 748.11 273.18 755.04 270.57 761.79 267.52 C 768.23 263.95 773.52 258.77 779.40 254.42 Z" />
</g>
<g id="#868c95ff">
<path fill="#868c95" opacity="1.00" d=" M 669.09 267.68 C 672.10 262.93 675.28 258.29 678.69 253.82 C 680.70 255.02 682.73 256.21 684.75 257.41 C 683.23 260.38 680.44 262.94 680.42 266.48 C 677.13 271.54 673.79 276.56 670.81 281.81 C 670.42 277.44 674.15 274.20 675.69 270.38 C 673.50 269.43 671.31 268.53 669.09 267.68 Z" />
</g>
<g id="#cdd6e5ff">
<path fill="#cdd6e5" opacity="1.00" d=" M 800.24 257.35 C 801.16 256.15 801.86 254.32 803.72 254.52 C 800.90 260.24 798.14 266.03 794.57 271.32 C 792.22 271.84 791.28 274.23 790.02 276.00 C 785.67 282.78 780.67 289.94 772.95 293.11 C 766.03 296.90 761.62 303.71 755.70 308.72 C 751.54 312.36 747.01 315.53 742.40 318.58 C 738.42 321.18 735.20 324.89 730.84 326.90 C 726.02 329.11 721.32 331.58 716.34 333.39 C 712.15 334.85 709.22 338.36 705.42 340.49 C 695.06 346.46 683.56 350.04 672.12 353.30 C 663.21 355.91 654.09 359.49 644.64 358.39 C 644.90 356.37 645.25 354.36 645.62 352.36 C 649.83 353.79 653.35 350.52 657.19 349.42 C 675.08 345.27 692.30 338.26 708.32 329.31 C 723.08 322.92 736.11 313.33 749.16 304.08 C 760.17 296.98 768.75 286.64 780.12 280.03 C 784.94 276.60 788.21 271.53 791.92 267.01 C 794.54 263.66 797.94 260.97 800.24 257.35 Z" />
</g>
<g id="#91979fff">
<path fill="#91979f" opacity="1.00" d=" M 669.09 267.68 C 671.31 268.53 673.50 269.43 675.69 270.38 C 674.15 274.20 670.42 277.44 670.81 281.81 C 670.07 283.13 669.34 284.47 668.60 285.79 C 668.08 286.60 667.57 287.42 667.07 288.25 C 666.60 288.40 665.67 288.70 665.20 288.85 C 663.63 287.03 661.78 285.47 659.83 284.10 C 662.75 278.53 665.79 273.03 669.09 267.68 Z" />
</g>
<g id="#e5edf2ff">
<path fill="#e5edf2" opacity="1.00" d=" M 790.02 276.00 C 791.28 274.23 792.22 271.84 794.57 271.32 C 785.42 286.43 774.65 300.66 761.96 312.99 C 735.56 336.62 703.05 353.23 668.74 361.85 C 662.53 363.19 656.27 365.06 649.87 364.71 C 646.60 364.52 644.93 361.30 644.64 358.39 C 654.09 359.49 663.21 355.91 672.12 353.30 C 683.56 350.04 695.06 346.46 705.42 340.49 C 709.22 338.36 712.15 334.85 716.34 333.39 C 721.32 331.58 726.02 329.11 730.84 326.90 C 735.20 324.89 738.42 321.18 742.40 318.58 C 747.01 315.53 751.54 312.36 755.70 308.72 C 761.62 303.71 766.03 296.90 772.95 293.11 C 780.67 289.94 785.67 282.78 790.02 276.00 Z" />
</g>
<g id="#d4d6dbff">
<path fill="#d4d6db" opacity="1.00" d=" M 740.26 336.30 C 744.08 333.87 747.67 330.81 752.21 329.82 C 738.85 342.13 723.86 352.57 708.43 362.12 C 707.80 360.55 707.18 358.99 706.56 357.43 C 707.75 356.65 708.95 355.88 710.15 355.09 C 709.57 355.02 708.41 354.89 707.83 354.82 C 718.97 349.24 729.83 343.12 740.26 336.30 Z" />
</g>
<g id="#dddfe3ff">
<path fill="#dddfe3" opacity="1.00" d=" M 680.85 365.60 C 690.07 362.61 699.10 359.05 707.83 354.82 C 708.41 354.89 709.57 355.02 710.15 355.09 C 708.95 355.88 707.75 356.65 706.56 357.43 C 707.18 358.99 707.80 360.55 708.43 362.12 C 699.39 367.10 689.63 370.79 679.71 373.57 C 679.28 371.82 678.87 370.07 678.45 368.33 C 680.00 367.64 681.56 366.96 683.11 366.26 C 682.54 366.09 681.41 365.76 680.85 365.60 Z" />
</g>
<g id="#e8eaedff">
<path fill="#e8eaed" opacity="1.00" d=" M 636.27 370.62 C 651.29 371.95 666.49 370.22 680.85 365.60 C 681.41 365.76 682.54 366.09 683.11 366.26 C 681.56 366.96 680.00 367.64 678.45 368.33 C 678.87 370.07 679.28 371.82 679.71 373.57 L 679.76 373.77 C 669.49 376.65 658.90 379.04 648.16 378.50 C 643.48 377.48 637.97 375.64 636.27 370.62 Z" />
</g>
<g id="#3e4056ff">
<path fill="#3e4056" opacity="1.00" d=" M 447.00 401.00 C 460.40 397.15 474.05 393.76 488.06 393.42 C 522.29 391.21 556.66 398.55 588.14 411.84 C 599.53 416.55 610.59 422.01 621.62 427.50 C 634.07 434.16 648.71 434.47 662.45 433.24 C 686.74 430.25 709.95 422.03 732.94 414.00 C 769.01 401.85 806.58 391.62 844.98 392.82 C 860.69 393.42 876.35 395.83 891.41 400.37 C 897.62 402.33 903.95 404.16 909.69 407.34 C 932.75 419.95 954.38 435.40 973.13 453.87 C 975.68 456.46 978.22 459.10 980.50 461.97 C 978.53 461.47 976.63 460.78 974.98 459.61 C 960.71 450.01 945.33 442.14 929.62 435.19 C 888.24 417.11 842.19 406.40 796.98 412.90 C 788.20 413.95 779.77 416.67 771.13 418.43 C 769.26 418.81 767.54 419.65 765.91 420.60 C 775.24 419.27 784.64 418.46 793.97 417.02 C 795.63 416.73 797.44 416.65 798.69 418.06 C 763.43 422.66 730.46 436.72 697.72 449.85 C 684.37 454.58 670.66 458.78 656.49 460.06 C 652.47 458.65 648.18 459.13 644.01 459.05 C 641.78 458.97 639.55 459.27 637.47 460.08 C 622.07 458.71 608.19 451.27 594.78 444.14 C 585.49 438.37 575.12 434.70 564.92 430.93 C 548.53 425.00 531.49 420.96 514.20 418.80 C 512.19 415.37 507.47 417.20 504.44 418.03 C 476.03 416.42 447.53 423.12 422.01 435.43 C 416.84 437.80 411.80 440.46 406.80 443.18 C 377.03 459.54 351.15 483.29 333.42 512.37 C 315.62 541.01 305.98 573.89 300.33 606.92 C 298.70 611.95 298.40 617.20 298.10 622.44 C 295.07 616.14 298.58 609.55 299.34 603.18 C 302.33 588.40 305.14 573.55 309.91 559.21 C 307.84 559.74 305.77 560.25 303.67 560.65 C 303.38 560.02 302.79 558.76 302.50 558.13 C 299.65 563.98 297.74 570.23 295.39 576.29 C 293.27 583.30 290.19 590.06 289.05 597.33 C 286.40 604.59 284.90 612.19 282.68 619.58 C 282.39 617.71 282.26 615.83 282.28 613.94 C 279.74 614.38 275.57 613.29 274.67 616.60 C 273.57 621.01 273.57 625.62 272.50 630.05 C 272.20 628.64 271.93 627.23 271.69 625.83 C 272.37 620.59 273.26 615.37 274.36 610.21 C 276.24 601.35 277.87 592.41 280.55 583.75 C 283.71 573.33 286.43 562.74 290.65 552.68 C 291.55 550.51 292.23 548.26 292.88 546.01 C 289.74 545.68 286.61 545.32 283.49 544.92 C 298.33 509.25 322.28 477.63 351.78 452.79 C 379.59 429.35 412.12 411.40 447.00 401.00 Z" />
</g>
<g id="#5a5e73ff">
<path fill="#5a5e73" opacity="1.00" d=" M 796.98 412.90 C 842.19 406.40 888.24 417.11 929.62 435.19 C 928.85 436.69 930.50 437.09 931.33 437.72 C 933.12 438.74 935.00 439.58 936.87 440.49 C 934.51 440.95 932.07 441.93 929.68 441.17 C 927.12 440.20 924.59 441.52 922.23 442.40 C 926.40 445.29 930.86 447.91 934.26 451.75 L 932.99 452.40 C 922.31 443.83 910.62 436.39 897.82 431.44 C 879.55 423.92 860.19 419.02 840.56 416.92 C 831.22 416.03 821.81 416.49 812.46 416.91 C 807.83 416.72 803.27 417.63 798.69 418.06 C 797.44 416.65 795.63 416.73 793.97 417.02 C 784.64 418.46 775.24 419.27 765.91 420.60 C 767.54 419.65 769.26 418.81 771.13 418.43 C 779.77 416.67 788.20 413.95 796.98 412.90 Z" />
</g>
<g id="#282a42ff">
<path fill="#282a42" opacity="1.00" d=" M 504.44 418.03 C 507.47 417.20 512.19 415.37 514.20 418.80 C 510.95 418.47 507.69 418.29 504.44 418.03 Z" />
</g>
<g id="#d7dbe2ff">
<path fill="#d7dbe2" opacity="1.00" d=" M 798.69 418.06 C 803.27 417.63 807.83 416.72 812.46 416.91 C 817.45 418.74 822.83 417.90 828.02 418.06 C 832.21 417.94 836.61 418.73 840.56 416.92 C 860.19 419.02 879.55 423.92 897.82 431.44 C 910.62 436.39 922.31 443.83 932.99 452.40 C 937.27 456.04 941.54 459.83 944.82 464.44 C 943.50 465.21 942.53 464.13 941.77 463.30 C 936.36 456.97 929.84 451.61 922.84 447.13 C 922.28 449.08 921.41 450.91 920.23 452.56 C 919.55 452.29 918.88 452.02 918.22 451.76 C 915.74 453.29 913.05 454.55 910.09 454.71 C 908.37 454.69 907.14 455.98 905.84 456.88 C 904.70 455.89 903.58 454.90 902.47 453.91 C 902.60 455.07 902.73 456.24 902.89 457.42 C 898.60 455.75 895.11 459.93 891.49 461.53 C 890.91 460.80 890.35 460.09 889.80 459.37 C 889.07 460.05 888.34 460.73 887.62 461.41 C 883.04 461.09 879.80 466.74 875.03 464.82 C 873.37 465.33 871.75 465.94 870.14 466.58 C 869.43 466.21 868.72 465.85 868.02 465.49 C 867.50 466.45 866.97 467.42 866.47 468.40 C 865.27 468.15 864.06 467.92 862.88 467.70 C 860.32 469.74 856.92 469.73 854.04 471.07 C 852.77 471.90 851.44 471.24 850.21 470.76 C 850.01 471.24 849.62 472.18 849.42 472.65 C 847.17 472.95 844.88 473.03 842.70 473.63 C 840.72 474.62 839.29 476.60 837.00 476.97 C 833.85 477.64 830.74 478.48 828.04 480.26 C 824.58 479.48 821.53 481.36 819.03 483.58 C 818.09 483.11 817.18 482.59 816.27 482.10 C 813.94 484.73 810.38 485.78 807.04 484.69 C 806.56 485.18 806.09 485.67 805.64 486.18 C 805.12 485.97 804.60 485.77 804.10 485.57 C 803.14 486.79 802.23 488.07 801.13 489.16 C 799.68 489.44 798.19 489.21 796.74 489.20 C 796.61 489.62 796.34 490.46 796.21 490.89 C 794.27 490.48 792.34 490.03 790.43 489.55 C 789.95 490.52 789.49 491.50 789.04 492.49 C 788.45 492.24 787.86 492.01 787.29 491.78 C 783.25 493.72 778.85 495.48 774.31 495.03 C 768.59 497.75 762.61 500.34 756.15 500.44 C 753.66 502.92 749.71 502.31 746.65 503.68 C 738.30 506.70 729.47 508.05 721.11 511.04 C 693.31 518.12 665.50 525.24 637.82 532.82 C 614.03 538.81 590.30 545.12 566.63 551.54 C 558.99 554.11 550.86 555.08 543.41 558.20 C 541.55 559.56 539.12 559.30 537.03 560.04 C 530.88 562.26 524.14 562.46 518.15 565.19 C 514.17 567.24 509.44 566.36 505.46 568.37 C 499.87 571.19 493.53 571.67 487.61 573.50 C 480.53 574.60 474.03 577.77 466.98 579.01 C 453.93 582.52 440.73 585.52 427.81 589.47 C 419.77 590.50 412.38 594.10 404.57 596.01 C 399.67 595.87 395.52 598.59 391.01 600.02 C 387.52 601.31 383.62 601.34 380.44 603.44 C 378.65 604.89 376.35 602.85 374.50 604.06 C 372.77 605.08 371.39 606.59 369.66 607.62 C 367.90 608.05 366.15 607.34 364.49 606.85 C 360.93 612.28 353.67 610.57 348.51 613.21 C 348.09 612.99 347.24 612.55 346.82 612.33 C 344.11 615.71 339.52 617.68 335.35 615.85 C 334.55 617.04 333.70 618.21 332.97 619.45 C 331.13 618.02 328.63 618.65 326.47 618.54 C 326.35 619.45 326.23 620.36 326.11 621.28 C 325.57 620.33 325.02 619.39 324.49 618.45 C 322.72 620.20 320.67 621.87 318.04 621.82 C 314.01 621.78 310.87 626.33 306.79 624.61 C 304.80 626.27 302.41 627.20 300.01 628.06 C 298.44 631.99 300.10 636.47 298.81 640.48 C 298.34 640.75 297.40 641.31 296.93 641.59 C 297.39 635.20 297.65 628.82 298.10 622.44 C 298.40 617.20 298.70 611.95 300.33 606.92 C 305.98 573.89 315.62 541.01 333.42 512.37 C 351.15 483.29 377.03 459.54 406.80 443.18 L 406.91 444.55 C 412.55 442.07 418.18 439.42 423.42 436.17 L 422.01 435.43 C 447.53 423.12 476.03 416.42 504.44 418.03 C 507.69 418.29 510.95 418.47 514.20 418.80 C 531.49 420.96 548.53 425.00 564.92 430.93 C 575.12 434.70 585.49 438.37 594.78 444.14 C 608.19 451.27 622.07 458.71 637.47 460.08 C 643.78 460.74 650.17 460.70 656.49 460.06 C 670.66 458.78 684.37 454.58 697.72 449.85 C 730.46 436.72 763.43 422.66 798.69 418.06 Z" />
</g>
<g id="#edf1f5ff">
<path fill="#edf1f5" opacity="1.00" d=" M 812.46 416.91 C 821.81 416.49 831.22 416.03 840.56 416.92 C 836.61 418.73 832.21 417.94 828.02 418.06 C 822.83 417.90 817.45 418.74 812.46 416.91 Z" />
</g>
<g id="#e8ecf0ff">
<path fill="#e8ecf0" opacity="1.00" d=" M 406.80 443.18 C 411.80 440.46 416.84 437.80 422.01 435.43 L 423.42 436.17 C 418.18 439.42 412.55 442.07 406.91 444.55 L 406.80 443.18 Z" />
</g>
<g id="#61667bff">
<path fill="#61667b" opacity="1.00" d=" M 931.33 437.72 C 930.50 437.09 928.85 436.69 929.62 435.19 C 945.33 442.14 960.71 450.01 974.98 459.61 C 974.64 460.42 974.32 461.24 974.01 462.06 C 966.54 463.90 958.77 464.63 951.56 467.39 C 949.90 467.78 949.21 469.42 948.29 470.65 C 947.88 469.81 947.47 468.98 947.06 468.16 C 946.38 466.86 945.64 465.62 944.82 464.44 C 941.54 459.83 937.27 456.04 932.99 452.40 L 934.26 451.75 C 930.86 447.91 926.40 445.29 922.23 442.40 C 924.59 441.52 927.12 440.20 929.68 441.17 C 932.07 441.93 934.51 440.95 936.87 440.49 C 935.00 439.58 933.12 438.74 931.33 437.72 Z" />
</g>
<g id="#d0d4dcff">
<path fill="#d0d4dc" opacity="1.00" d=" M 922.84 447.13 C 929.84 451.61 936.36 456.97 941.77 463.30 C 942.53 464.13 943.50 465.21 944.82 464.44 C 945.64 465.62 946.38 466.86 947.06 468.16 C 947.91 470.95 945.67 473.10 944.03 475.02 C 937.61 482.02 931.04 488.89 924.68 495.95 C 917.29 503.91 910.14 512.09 903.00 520.28 C 902.60 519.81 901.79 518.86 901.39 518.39 C 892.44 521.95 883.17 524.54 873.86 526.96 C 868.87 528.06 864.37 531.47 859.09 530.95 C 852.60 534.26 845.06 534.75 838.52 537.96 C 832.90 539.39 827.18 540.55 821.78 542.72 C 818.71 543.44 815.44 543.40 812.70 545.18 C 806.18 547.47 799.44 549.23 792.66 550.52 C 789.43 551.81 786.21 553.16 782.73 553.59 C 762.85 559.30 742.73 564.19 722.84 569.88 C 713.13 571.73 703.65 574.55 694.17 577.29 C 676.87 580.92 660.14 586.75 642.83 590.36 C 642.70 590.65 642.43 591.23 642.29 591.51 C 637.05 591.62 631.98 593.19 627.16 595.14 C 623.96 596.51 620.44 596.65 617.09 597.43 C 614.16 598.05 611.79 600.01 609.03 601.04 C 606.38 601.88 603.54 601.25 600.86 601.86 C 598.09 602.67 595.93 604.82 593.17 605.59 C 591.86 605.51 590.64 604.99 589.41 604.63 C 589.34 605.45 589.29 606.29 589.24 607.13 C 588.26 607.55 587.29 607.98 586.31 608.41 C 586.00 607.74 585.70 607.07 585.41 606.42 C 582.99 609.09 579.33 609.72 575.97 610.40 C 573.18 610.84 570.70 612.30 567.98 613.02 C 561.47 614.86 554.54 615.31 548.51 618.63 C 543.44 619.65 538.78 621.86 533.94 623.62 C 533.02 623.19 532.11 622.77 531.20 622.36 C 530.63 623.62 530.06 624.88 529.49 626.15 C 529.01 625.78 528.06 625.04 527.59 624.68 C 526.83 625.31 526.10 625.97 525.35 626.61 C 524.34 626.18 523.39 625.63 522.33 625.40 C 519.48 626.39 517.39 629.43 514.08 628.78 C 511.35 628.43 509.20 630.33 507.05 631.67 C 506.72 631.45 506.07 631.01 505.74 630.80 C 497.40 633.34 489.38 636.81 480.91 638.92 C 477.89 639.67 474.61 639.24 471.81 640.83 C 465.18 643.29 458.19 644.62 451.35 646.41 C 446.31 647.88 440.93 648.37 436.34 651.12 C 426.47 652.22 417.24 656.16 407.76 658.85 C 404.04 659.28 400.68 661.08 396.95 661.40 C 392.55 663.26 387.87 664.28 383.34 665.79 C 378.04 666.71 373.25 669.39 367.87 670.02 C 349.74 676.23 331.00 680.50 312.54 685.62 C 307.75 687.75 302.30 688.03 297.81 690.85 C 297.16 681.25 297.72 671.63 297.50 662.03 C 297.26 657.22 298.26 652.26 296.71 647.60 C 296.68 645.58 296.75 643.58 296.93 641.59 C 297.40 641.31 298.34 640.75 298.81 640.48 C 300.10 636.47 298.44 631.99 300.01 628.06 C 302.41 627.20 304.80 626.27 306.79 624.61 C 310.87 626.33 314.01 621.78 318.04 621.82 C 320.67 621.87 322.72 620.20 324.49 618.45 C 325.02 619.39 325.57 620.33 326.11 621.28 C 326.23 620.36 326.35 619.45 326.47 618.54 C 328.63 618.65 331.13 618.02 332.97 619.45 C 333.70 618.21 334.55 617.04 335.35 615.85 C 339.52 617.68 344.11 615.71 346.82 612.33 C 347.24 612.55 348.09 612.99 348.51 613.21 C 353.67 610.57 360.93 612.28 364.49 606.85 C 366.15 607.34 367.90 608.05 369.66 607.62 C 371.39 606.59 372.77 605.08 374.50 604.06 C 376.35 602.85 378.65 604.89 380.44 603.44 C 383.62 601.34 387.52 601.31 391.01 600.02 C 395.52 598.59 399.67 595.87 404.57 596.01 C 412.38 594.10 419.77 590.50 427.81 589.47 C 440.73 585.52 453.93 582.52 466.98 579.01 C 474.03 577.77 480.53 574.60 487.61 573.50 C 493.53 571.67 499.87 571.19 505.46 568.37 C 509.44 566.36 514.17 567.24 518.15 565.19 C 524.14 562.46 530.88 562.26 537.03 560.04 C 539.12 559.30 541.55 559.56 543.41 558.20 C 550.86 555.08 558.99 554.11 566.63 551.54 C 590.30 545.12 614.03 538.81 637.82 532.82 C 665.50 525.24 693.31 518.12 721.11 511.04 C 729.47 508.05 738.30 506.70 746.65 503.68 C 749.71 502.31 753.66 502.92 756.15 500.44 C 762.61 500.34 768.59 497.75 774.31 495.03 C 778.85 495.48 783.25 493.72 787.29 491.78 C 787.86 492.01 788.45 492.24 789.04 492.49 C 789.49 491.50 789.95 490.52 790.43 489.55 C 792.34 490.03 794.27 490.48 796.21 490.89 C 796.34 490.46 796.61 489.62 796.74 489.20 C 798.19 489.21 799.68 489.44 801.13 489.16 C 802.23 488.07 803.14 486.79 804.10 485.57 C 804.60 485.77 805.12 485.97 805.64 486.18 C 806.09 485.67 806.56 485.18 807.04 484.69 C 810.38 485.78 813.94 484.73 816.27 482.10 C 817.18 482.59 818.09 483.11 819.03 483.58 C 821.53 481.36 824.58 479.48 828.04 480.26 C 830.74 478.48 833.85 477.64 837.00 476.97 C 839.29 476.60 840.72 474.62 842.70 473.63 C 844.88 473.03 847.17 472.95 849.42 472.65 C 849.62 472.18 850.01 471.24 850.21 470.76 C 851.44 471.24 852.77 471.90 854.04 471.07 C 856.92 469.73 860.32 469.74 862.88 467.70 C 864.06 467.92 865.27 468.15 866.47 468.40 C 866.97 467.42 867.50 466.45 868.02 465.49 C 868.72 465.85 869.43 466.21 870.14 466.58 C 871.75 465.94 873.37 465.33 875.03 464.82 C 879.80 466.74 883.04 461.09 887.62 461.41 C 888.34 460.73 889.07 460.05 889.80 459.37 C 890.35 460.09 890.91 460.80 891.49 461.53 C 895.11 459.93 898.60 455.75 902.89 457.42 C 902.73 456.24 902.60 455.07 902.47 453.91 C 903.58 454.90 904.70 455.89 905.84 456.88 C 907.14 455.98 908.37 454.69 910.09 454.71 C 913.05 454.55 915.74 453.29 918.22 451.76 C 918.88 452.02 919.55 452.29 920.23 452.56 C 921.41 450.91 922.28 449.08 922.84 447.13 Z" />
</g>
<g id="#2b2d45ff">
<path fill="#2b2d45" opacity="1.00" d=" M 637.47 460.08 C 639.55 459.27 641.78 458.97 644.01 459.05 C 648.18 459.13 652.47 458.65 656.49 460.06 C 650.17 460.70 643.78 460.74 637.47 460.08 Z" />
</g>
<g id="#6f778cff">
<path fill="#6f778c" opacity="1.00" d=" M 974.01 462.06 C 974.32 461.24 974.64 460.42 974.98 459.61 C 976.63 460.78 978.53 461.47 980.50 461.97 C 981.31 462.88 982.12 463.83 982.93 464.77 C 972.35 467.48 961.37 468.52 951.05 472.19 C 946.37 473.67 943.87 478.28 940.34 481.35 C 934.94 486.31 930.68 492.37 925.13 497.16 L 924.68 495.95 C 931.04 488.89 937.61 482.02 944.03 475.02 C 945.67 473.10 947.91 470.95 947.06 468.16 C 947.47 468.98 947.88 469.81 948.29 470.65 C 949.21 469.42 949.90 467.78 951.56 467.39 C 958.77 464.63 966.54 463.90 974.01 462.06 Z" />
</g>
<g id="#7c8598ff">
<path fill="#7c8598" opacity="1.00" d=" M 951.05 472.19 C 961.37 468.52 972.35 467.48 982.93 464.77 C 986.72 469.52 990.01 474.65 992.73 480.08 C 986.27 485.22 980.17 490.81 973.64 495.84 C 976.70 490.02 981.89 485.27 983.58 478.79 C 982.43 476.48 979.22 476.92 977.53 478.32 C 968.93 485.29 960.72 492.74 953.00 500.68 C 954.19 495.25 959.64 492.55 962.79 488.36 C 961.63 487.70 960.49 487.04 959.35 486.39 C 957.09 488.22 955.39 491.55 952.11 491.41 C 958.30 485.37 964.85 479.69 970.81 473.42 C 959.39 477.27 949.55 484.67 940.68 492.65 C 934.83 498.10 929.20 503.85 924.46 510.29 C 917.66 518.50 911.81 527.46 906.46 536.67 C 905.87 532.99 908.85 530.21 909.97 526.94 C 904.74 527.50 900.71 531.38 895.53 532.11 C 890.63 535.96 887.52 541.69 882.83 545.80 C 882.12 546.44 881.29 546.70 880.33 546.58 C 888.00 537.92 895.35 528.96 903.00 520.28 C 910.14 512.09 917.29 503.91 924.68 495.95 L 925.13 497.16 C 930.68 492.37 934.94 486.31 940.34 481.35 C 943.87 478.28 946.37 473.67 951.05 472.19 Z" />
</g>
<g id="#a4b3cbff">
<path fill="#a4b3cb" opacity="1.00" d=" M 940.68 492.65 C 949.55 484.67 959.39 477.27 970.81 473.42 C 964.85 479.69 958.30 485.37 952.11 491.41 C 944.03 498.28 937.48 506.70 930.37 514.51 C 930.06 514.79 929.78 515.07 929.53 515.38 C 927.27 515.73 925.73 517.56 924.03 518.91 C 923.38 518.03 922.75 517.16 922.12 516.29 C 923.26 514.44 924.23 512.47 924.46 510.29 C 929.20 503.85 934.83 498.10 940.68 492.65 Z" />
</g>
<g id="#e8eeedff">
<path fill="#e8eeed" opacity="1.00" d=" M 977.53 478.32 C 979.22 476.92 982.43 476.48 983.58 478.79 C 981.89 485.27 976.70 490.02 973.64 495.84 C 966.58 503.05 958.28 509.03 951.45 516.52 C 934.99 534.42 921.37 554.89 910.99 576.88 C 905.32 589.18 900.41 601.91 897.42 615.16 C 894.08 614.67 889.67 614.64 888.06 611.01 C 889.01 605.37 893.19 600.19 892.09 594.31 C 892.55 592.74 893.06 591.18 893.57 589.62 C 899.00 574.71 906.99 560.92 915.47 547.56 C 920.34 540.00 925.88 532.92 931.18 525.67 C 938.06 517.00 945.51 508.82 953.00 500.68 C 960.72 492.74 968.93 485.29 977.53 478.32 Z" />
</g>
<g id="#949daaff">
<path fill="#949daa" opacity="1.00" d=" M 959.35 486.39 C 960.49 487.04 961.63 487.70 962.79 488.36 C 959.64 492.55 954.19 495.25 953.00 500.68 C 945.51 508.82 938.06 517.00 931.18 525.67 C 931.59 521.77 934.65 519.12 936.81 516.12 C 935.78 515.27 934.77 514.41 933.76 513.57 C 932.62 513.88 931.50 514.22 930.37 514.51 C 937.48 506.70 944.03 498.28 952.11 491.41 C 955.39 491.55 957.09 488.22 959.35 486.39 Z" />
</g>
<g id="#b1c0d7ff">
<path fill="#b1c0d7" opacity="1.00" d=" M 906.46 536.67 C 911.81 527.46 917.66 518.50 924.46 510.29 C 924.23 512.47 923.26 514.44 922.12 516.29 C 922.75 517.16 923.38 518.03 924.03 518.91 C 925.73 517.56 927.27 515.73 929.53 515.38 C 922.45 523.59 916.68 532.81 910.48 541.68 C 907.26 546.20 904.34 550.95 902.24 556.10 C 901.70 555.21 901.18 554.32 900.67 553.44 C 901.37 551.45 902.01 549.38 901.36 547.28 C 902.77 543.61 904.86 540.26 906.46 536.67 Z" />
</g>
<g id="#a5aebcff">
<path fill="#a5aebc" opacity="1.00" d=" M 933.76 513.57 C 934.77 514.41 935.78 515.27 936.81 516.12 C 934.65 519.12 931.59 521.77 931.18 525.67 C 925.88 532.92 920.34 540.00 915.47 547.56 C 914.81 545.14 916.48 543.17 917.62 541.22 C 916.59 540.64 915.59 540.08 914.58 539.52 C 913.30 540.40 912.02 541.34 910.48 541.68 C 916.68 532.81 922.45 523.59 929.53 515.38 C 929.78 515.07 930.06 514.79 930.37 514.51 C 931.50 514.22 932.62 513.88 933.76 513.57 Z" />
</g>
<g id="#c5cbd4ff">
<path fill="#c5cbd4" opacity="1.00" d=" M 873.86 526.96 C 883.17 524.54 892.44 521.95 901.39 518.39 C 901.79 518.86 902.60 519.81 903.00 520.28 C 895.35 528.96 888.00 537.92 880.33 546.58 C 862.10 566.30 842.46 584.74 821.37 601.38 C 809.02 610.82 796.49 620.10 782.94 627.76 C 771.57 634.52 759.06 638.95 746.82 643.82 C 731.87 649.52 716.64 654.44 701.31 659.02 C 679.74 664.90 658.11 670.63 636.25 675.38 C 619.20 678.99 602.25 683.06 585.05 685.90 C 552.44 691.81 519.67 696.84 487.10 702.99 C 462.59 707.38 437.99 711.62 413.86 717.85 C 397.19 722.64 380.52 727.67 364.58 734.59 C 351.50 740.59 338.92 748.41 329.59 759.53 C 323.81 766.26 319.74 774.26 316.60 782.52 C 316.39 779.44 317.42 776.10 315.67 773.31 C 311.02 763.49 310.50 751.73 303.45 743.08 C 303.03 745.20 302.56 747.33 302.12 749.46 C 299.27 733.16 297.92 716.66 296.86 700.17 C 295.92 684.05 296.09 667.89 296.40 651.76 C 296.51 650.37 296.62 648.98 296.71 647.60 C 298.26 652.26 297.26 657.22 297.50 662.03 C 297.72 671.63 297.16 681.25 297.81 690.85 C 302.30 688.03 307.75 687.75 312.54 685.62 C 331.00 680.50 349.74 676.23 367.87 670.02 C 373.25 669.39 378.04 666.71 383.34 665.79 C 387.87 664.28 392.55 663.26 396.95 661.40 C 400.68 661.08 404.04 659.28 407.76 658.85 C 417.24 656.16 426.47 652.22 436.34 651.12 C 440.93 648.37 446.31 647.88 451.35 646.41 C 458.19 644.62 465.18 643.29 471.81 640.83 C 474.61 639.24 477.89 639.67 480.91 638.92 C 489.38 636.81 497.40 633.34 505.74 630.80 C 506.07 631.01 506.72 631.45 507.05 631.67 C 509.20 630.33 511.35 628.43 514.08 628.78 C 517.39 629.43 519.48 626.39 522.33 625.40 C 523.39 625.63 524.34 626.18 525.35 626.61 C 526.10 625.97 526.83 625.31 527.59 624.68 C 528.06 625.04 529.01 625.78 529.49 626.15 C 530.06 624.88 530.63 623.62 531.20 622.36 C 532.11 622.77 533.02 623.19 533.94 623.62 C 538.78 621.86 543.44 619.65 548.51 618.63 C 554.54 615.31 561.47 614.86 567.98 613.02 C 570.70 612.30 573.18 610.84 575.97 610.40 C 579.33 609.72 582.99 609.09 585.41 606.42 C 585.70 607.07 586.00 607.74 586.31 608.41 C 587.29 607.98 588.26 607.55 589.24 607.13 C 589.29 606.29 589.34 605.45 589.41 604.63 C 590.64 604.99 591.86 605.51 593.17 605.59 C 595.93 604.82 598.09 602.67 600.86 601.86 C 603.54 601.25 606.38 601.88 609.03 601.04 C 611.79 600.01 614.16 598.05 617.09 597.43 C 620.44 596.65 623.96 596.51 627.16 595.14 C 631.98 593.19 637.05 591.62 642.29 591.51 C 642.43 591.23 642.70 590.65 642.83 590.36 C 660.14 586.75 676.87 580.92 694.17 577.29 C 703.65 574.55 713.13 571.73 722.84 569.88 C 742.73 564.19 762.85 559.30 782.73 553.59 C 786.21 553.16 789.43 551.81 792.66 550.52 C 799.44 549.23 806.18 547.47 812.70 545.18 C 815.44 543.40 818.71 543.44 821.78 542.72 C 827.18 540.55 832.90 539.39 838.52 537.96 C 845.06 534.75 852.60 534.26 859.09 530.95 C 864.37 531.47 868.87 528.06 873.86 526.96 Z" />
</g>
<g id="#8791a5ff">
<path fill="#8791a5" opacity="1.00" d=" M 895.53 532.11 C 900.71 531.38 904.74 527.50 909.97 526.94 C 908.85 530.21 905.87 532.99 906.46 536.67 C 904.86 540.26 902.77 543.61 901.36 547.28 C 897.10 556.64 893.26 566.26 891.04 576.32 C 890.41 575.31 889.78 574.31 889.17 573.31 C 883.52 575.05 878.50 578.39 872.73 579.74 C 867.76 581.03 863.54 584.20 858.63 585.67 C 851.23 587.77 844.34 591.23 837.41 594.49 C 835.41 595.57 833.10 595.55 830.95 596.11 C 828.14 597.75 826.08 600.50 823.10 601.86 C 822.66 601.74 821.80 601.50 821.37 601.38 C 842.46 584.74 862.10 566.30 880.33 546.58 C 881.29 546.70 882.12 546.44 882.83 545.80 C 887.52 541.69 890.63 535.96 895.53 532.11 Z" />
</g>
<g id="#b6bfceff">
<path fill="#b6bfce" opacity="1.00" d=" M 914.58 539.52 C 915.59 540.08 916.59 540.64 917.62 541.22 C 916.48 543.17 914.81 545.14 915.47 547.56 C 906.99 560.92 899.00 574.71 893.57 589.62 C 892.86 585.07 894.45 580.69 895.48 576.33 C 897.24 569.44 899.20 562.55 902.24 556.10 C 904.34 550.95 907.26 546.20 910.48 541.68 C 912.02 541.34 913.30 540.40 914.58 539.52 Z" />
</g>
<g id="#4c4d61ff">
<path fill="#4c4d61" opacity="1.00" d=" M 283.49 544.92 C 286.61 545.32 289.74 545.68 292.88 546.01 C 292.23 548.26 291.55 550.51 290.65 552.68 C 286.43 562.74 283.71 573.33 280.55 583.75 C 277.91 581.90 274.56 583.11 271.59 582.52 C 274.81 569.78 278.42 557.06 283.49 544.92 Z" />
</g>
<g id="#cad7edff">
<path fill="#cad7ed" opacity="1.00" d=" M 901.36 547.28 C 902.01 549.38 901.37 551.45 900.67 553.44 C 901.18 554.32 901.70 555.21 902.24 556.10 C 899.20 562.55 897.24 569.44 895.48 576.33 C 894.45 580.69 892.86 585.07 893.57 589.62 C 893.06 591.18 892.55 592.74 892.09 594.31 C 890.94 597.13 890.02 600.03 889.11 602.93 C 888.25 594.02 889.13 585.04 891.04 576.32 C 893.26 566.26 897.10 556.64 901.36 547.28 Z" />
</g>
<g id="#4b4e64ff">
<path fill="#4b4e64" opacity="1.00" d=" M 295.39 576.29 C 297.74 570.23 299.65 563.98 302.50 558.13 C 302.79 558.76 303.38 560.02 303.67 560.65 C 305.77 560.25 307.84 559.74 309.91 559.21 C 305.14 573.55 302.33 588.40 299.34 603.18 C 296.01 603.75 292.65 604.13 289.27 603.98 C 289.56 601.76 289.64 599.50 289.05 597.33 C 290.19 590.06 293.27 583.30 295.39 576.29 Z" />
</g>
<g id="#95a2b5ff">
<path fill="#95a2b5" opacity="1.00" d=" M 872.73 579.74 C 878.50 578.39 883.52 575.05 889.17 573.31 C 889.78 574.31 890.41 575.31 891.04 576.32 C 889.13 585.04 888.25 594.02 889.11 602.93 C 886.94 608.46 885.07 614.13 884.40 620.08 C 881.94 632.58 880.84 645.27 880.12 657.97 C 879.39 665.70 879.82 673.45 880.78 681.14 C 878.37 679.37 878.40 676.20 877.63 673.59 C 874.99 673.60 872.37 673.34 869.78 672.89 C 869.55 672.10 869.32 671.31 869.11 670.54 C 865.85 670.89 862.56 670.75 859.37 669.99 C 854.81 669.01 850.14 669.71 845.54 669.34 C 846.73 667.40 847.95 665.47 849.23 663.58 C 845.97 664.80 842.63 663.25 839.34 663.11 C 836.05 662.90 832.76 662.25 830.02 660.32 C 825.58 662.49 820.92 664.18 816.16 665.48 C 817.08 665.85 818.00 666.23 818.94 666.62 C 816.29 667.31 813.65 668.02 811.00 668.70 C 809.89 665.56 806.61 667.35 804.19 667.02 C 800.05 666.52 795.89 666.27 791.77 665.71 C 794.81 663.37 798.80 662.96 802.09 661.05 C 805.21 659.28 808.60 658.13 811.96 656.90 C 813.21 656.58 813.54 655.16 814.19 654.22 C 811.10 654.23 808.01 654.37 804.93 654.21 C 806.65 651.98 808.44 649.81 810.15 647.57 C 808.00 647.44 805.84 647.47 803.71 647.70 C 799.33 648.56 795.38 644.52 790.97 646.41 C 787.78 644.93 784.37 646.53 781.09 645.65 C 782.33 644.49 783.59 643.36 784.86 642.22 C 782.30 641.27 779.57 640.40 776.88 641.28 C 776.61 640.49 776.35 639.70 776.12 638.94 C 769.78 641.36 763.57 644.67 756.63 644.85 C 748.90 646.34 741.62 649.56 734.28 652.33 C 730.65 653.37 726.78 653.16 723.17 654.30 C 717.32 656.07 711.62 658.32 705.68 659.78 C 704.15 660.41 702.68 659.60 701.31 659.02 C 716.64 654.44 731.87 649.52 746.82 643.82 C 759.06 638.95 771.57 634.52 782.94 627.76 C 796.49 620.10 809.02 610.82 821.37 601.38 C 821.80 601.50 822.66 601.74 823.10 601.86 C 826.08 600.50 828.14 597.75 830.95 596.11 C 833.10 595.55 835.41 595.57 837.41 594.49 C 844.34 591.23 851.23 587.77 858.63 585.67 C 863.54 584.20 867.76 581.03 872.73 579.74 Z" />
</g>
<g id="#535466ff">
<path fill="#535466" opacity="1.00" d=" M 271.48 582.51 L 271.59 582.52 C 274.56 583.11 277.91 581.90 280.55 583.75 C 277.87 592.41 276.24 601.35 274.36 610.21 C 274.13 608.81 273.87 607.43 273.61 606.05 C 273.23 607.27 272.85 608.48 272.49 609.71 C 270.22 610.17 267.80 610.81 265.65 609.59 C 267.20 600.48 269.46 591.52 271.48 582.51 Z" />
</g>
<g id="#eeece8ff">
<path fill="#eeece8" opacity="1.00" d=" M 892.09 594.31 C 893.19 600.19 889.01 605.37 888.06 611.01 C 889.67 614.64 894.08 614.67 897.42 615.16 C 894.12 630.21 891.67 645.57 892.26 661.04 C 892.25 666.51 893.25 671.96 893.48 677.39 C 890.42 685.27 892.22 693.96 893.32 702.07 C 891.17 704.49 887.37 704.18 885.62 707.04 C 883.60 698.48 882.18 689.81 880.78 681.14 C 879.82 673.45 879.39 665.70 880.12 657.97 C 880.84 645.27 881.94 632.58 884.40 620.08 C 885.07 614.13 886.94 608.46 889.11 602.93 C 890.02 600.03 890.94 597.13 892.09 594.31 Z" />
</g>
<g id="#50556aff">
<path fill="#50556a" opacity="1.00" d=" M 289.05 597.33 C 289.64 599.50 289.56 601.76 289.27 603.98 C 292.65 604.13 296.01 603.75 299.34 603.18 C 298.58 609.55 295.07 616.14 298.10 622.44 C 297.65 628.82 297.39 635.20 296.93 641.59 C 296.75 643.58 296.68 645.58 296.71 647.60 C 296.62 648.98 296.51 650.37 296.40 651.76 C 296.12 653.87 295.72 655.96 295.35 658.07 C 294.85 654.32 294.58 650.55 294.72 646.78 C 295.01 642.57 295.03 638.35 294.81 634.15 C 289.78 634.74 285.15 636.83 280.67 639.08 C 280.88 636.84 281.00 634.55 280.10 632.45 C 280.80 628.13 282.17 623.94 282.68 619.58 C 284.90 612.19 286.40 604.59 289.05 597.33 Z" />
</g>
<g id="#5a5b6cff">
<path fill="#5a5b6c" opacity="1.00" d=" M 272.49 609.71 C 272.85 608.48 273.23 607.27 273.61 606.05 C 273.87 607.43 274.13 608.81 274.36 610.21 C 273.26 615.37 272.37 620.59 271.69 625.83 C 271.25 628.65 270.69 631.45 270.27 634.29 C 270.14 632.60 269.96 630.93 269.81 629.26 C 268.30 632.59 264.74 633.74 261.65 635.13 C 262.58 626.55 264.23 618.07 265.52 609.55 L 265.65 609.59 C 267.80 610.81 270.22 610.17 272.49 609.71 Z" />
</g>
<g id="#46485bff">
<path fill="#46485b" opacity="1.00" d=" M 274.67 616.60 C 275.57 613.29 279.74 614.38 282.28 613.94 C 282.26 615.83 282.39 617.71 282.68 619.58 C 282.17 623.94 280.80 628.13 280.10 632.45 C 277.31 644.88 274.59 657.34 272.92 669.98 C 272.47 673.63 272.39 677.39 270.99 680.85 C 270.05 677.78 269.47 674.62 269.06 671.45 C 269.39 664.47 269.64 657.44 268.89 650.49 C 269.09 645.06 269.51 639.66 270.27 634.29 C 270.69 631.45 271.25 628.65 271.69 625.83 C 271.93 627.23 272.20 628.64 272.50 630.05 C 273.57 625.62 273.57 621.01 274.67 616.60 Z" />
</g>
<g id="#616472ff">
<path fill="#616472" opacity="1.00" d=" M 261.65 635.13 C 264.74 633.74 268.30 632.59 269.81 629.26 C 269.96 630.93 270.14 632.60 270.27 634.29 C 269.51 639.66 269.09 645.06 268.89 650.49 C 268.40 652.58 267.94 654.69 267.56 656.82 C 264.88 657.08 262.22 657.37 259.55 657.70 C 260.07 650.16 260.72 642.63 261.65 635.13 Z" />
</g>
<g id="#565b70ff">
<path fill="#565b70" opacity="1.00" d=" M 280.10 632.45 C 281.00 634.55 280.88 636.84 280.67 639.08 C 285.15 636.83 289.78 634.74 294.81 634.15 C 295.03 638.35 295.01 642.57 294.72 646.78 C 291.45 652.49 288.26 658.24 284.91 663.91 C 282.85 667.79 279.44 671.03 274.94 671.72 C 274.27 671.13 273.59 670.55 272.92 669.98 C 274.59 657.34 277.31 644.88 280.10 632.45 Z" />
</g>
<g id="#a0aabcff">
<path fill="#a0aabc" opacity="1.00" d=" M 756.63 644.85 C 763.57 644.67 769.78 641.36 776.12 638.94 C 776.35 639.70 776.61 640.49 776.88 641.28 C 779.57 640.40 782.30 641.27 784.86 642.22 C 783.59 643.36 782.33 644.49 781.09 645.65 C 784.37 646.53 787.78 644.93 790.97 646.41 C 795.38 644.52 799.33 648.56 803.71 647.70 C 805.84 647.47 808.00 647.44 810.15 647.57 C 808.44 649.81 806.65 651.98 804.93 654.21 C 808.01 654.37 811.10 654.23 814.19 654.22 C 813.54 655.16 813.21 656.58 811.96 656.90 C 808.60 658.13 805.21 659.28 802.09 661.05 C 798.80 662.96 794.81 663.37 791.77 665.71 C 795.89 666.27 800.05 666.52 804.19 667.02 C 806.61 667.35 809.89 665.56 811.00 668.70 C 813.65 668.02 816.29 667.31 818.94 666.62 C 818.00 666.23 817.08 665.85 816.16 665.48 C 820.92 664.18 825.58 662.49 830.02 660.32 C 832.76 662.25 836.05 662.90 839.34 663.11 C 842.63 663.25 845.97 664.80 849.23 663.58 C 847.95 665.47 846.73 667.40 845.54 669.34 C 850.14 669.71 854.81 669.01 859.37 669.99 C 862.56 670.75 865.85 670.89 869.11 670.54 C 869.32 671.31 869.55 672.10 869.78 672.89 C 872.37 673.34 874.99 673.60 877.63 673.59 C 878.40 676.20 878.37 679.37 880.78 681.14 C 882.18 689.81 883.60 698.48 885.62 707.04 C 887.00 713.55 889.22 719.83 890.83 726.28 C 889.98 729.18 891.41 731.94 892.34 734.63 C 895.06 742.23 898.44 749.58 901.76 756.94 C 900.66 758.27 899.57 759.61 898.50 760.98 C 895.69 754.78 893.81 748.20 890.90 742.05 C 888.29 743.38 885.88 745.59 882.80 745.56 C 878.49 745.86 874.28 744.43 869.98 744.85 C 866.68 745.09 863.54 743.46 860.24 743.74 C 853.65 744.95 847.00 741.87 840.42 743.40 C 838.42 744.29 836.69 745.69 834.68 746.56 C 831.26 747.07 827.80 746.36 824.37 746.63 C 816.91 747.23 809.60 748.91 802.30 750.47 C 792.06 751.20 782.24 754.86 771.95 755.13 C 767.71 755.32 763.80 757.20 759.61 757.68 C 750.77 758.66 741.96 759.95 733.07 760.20 C 726.67 761.52 720.18 760.45 713.72 760.65 C 711.49 760.80 710.21 758.78 708.89 757.36 C 705.16 757.06 701.19 755.61 697.64 757.50 C 694.35 758.56 691.58 761.93 687.88 761.17 C 683.52 760.42 679.09 760.08 674.67 760.39 C 670.67 760.60 667.82 763.94 664.04 764.84 C 659.68 765.48 655.33 764.04 650.96 764.48 C 647.36 764.96 644.51 767.45 641.65 769.48 C 635.78 768.55 629.24 766.68 623.62 769.52 C 620.90 770.83 617.73 769.64 614.98 770.92 C 611.64 772.43 607.91 771.25 604.49 772.38 C 600.57 773.62 596.28 771.67 592.50 773.60 C 588.73 775.25 584.64 777.04 580.46 775.99 C 575.70 774.99 571.04 776.66 566.96 778.98 C 562.03 781.91 556.18 777.19 551.32 780.24 C 549.20 781.25 547.32 782.76 545.08 783.50 C 541.92 783.25 538.81 782.08 535.62 782.62 C 531.94 782.99 529.06 785.56 525.64 786.65 C 523.40 786.86 521.21 786.18 518.99 786.11 C 515.34 785.94 513.23 790.72 509.55 790.04 C 504.03 788.84 498.93 792.12 493.87 793.75 C 491.57 794.80 488.91 793.27 486.73 794.68 C 484.17 796.00 481.58 797.53 478.61 797.52 C 475.94 797.51 473.86 799.30 471.65 800.54 C 468.55 802.66 464.41 799.96 461.36 802.39 C 457.16 805.25 451.80 805.58 447.77 808.75 C 445.00 811.37 440.83 809.68 437.81 811.77 C 432.76 815.02 426.82 816.43 421.76 819.68 C 413.11 822.04 405.35 826.72 397.02 829.97 C 391.50 831.71 386.82 835.24 381.50 837.43 C 377.21 839.48 372.09 840.29 368.81 844.01 C 372.85 843.03 377.04 842.75 381.01 841.53 C 381.25 841.88 381.73 842.58 381.97 842.93 C 377.94 845.14 373.25 845.88 369.45 848.56 C 366.58 850.50 363.22 851.47 360.20 853.14 C 354.82 856.36 348.53 857.80 343.45 861.58 C 340.07 865.35 338.73 870.33 337.83 875.21 C 336.54 874.64 335.27 874.07 334.00 873.49 C 333.94 873.90 333.81 874.73 333.75 875.14 C 332.55 871.76 331.62 868.30 330.42 864.93 C 322.98 842.13 317.74 818.69 312.46 795.33 C 314.17 791.17 315.58 786.89 316.60 782.52 C 319.74 774.26 323.81 766.26 329.59 759.53 C 338.92 748.41 351.50 740.59 364.58 734.59 C 380.52 727.67 397.19 722.64 413.86 717.85 C 437.99 711.62 462.59 707.38 487.10 702.99 C 519.67 696.84 552.44 691.81 585.05 685.90 C 602.25 683.06 619.20 678.99 636.25 675.38 C 658.11 670.63 679.74 664.90 701.31 659.02 C 702.68 659.60 704.15 660.41 705.68 659.78 C 711.62 658.32 717.32 656.07 723.17 654.30 C 726.78 653.16 730.65 653.37 734.28 652.33 C 741.62 649.56 748.90 646.34 756.63 644.85 Z" />
</g>
<g id="#61677bff">
<path fill="#61677b" opacity="1.00" d=" M 284.91 663.91 C 288.26 658.24 291.45 652.49 294.72 646.78 C 294.58 650.55 294.85 654.32 295.35 658.07 C 295.72 655.96 296.12 653.87 296.40 651.76 C 296.09 667.89 295.92 684.05 296.86 700.17 C 296.43 700.27 295.58 700.49 295.16 700.59 C 294.33 694.41 295.40 688.07 293.77 682.00 C 288.11 691.36 283.53 701.39 279.54 711.57 C 277.15 716.97 279.39 723.09 277.01 728.48 C 276.34 717.00 275.23 705.52 275.37 694.01 C 275.40 692.90 275.17 691.85 274.80 690.83 C 273.57 695.10 273.71 699.58 273.45 703.99 C 273.19 709.61 272.69 715.23 272.59 720.87 C 271.96 730.76 272.25 740.66 271.99 750.56 C 270.24 742.06 270.20 733.30 269.24 724.68 C 269.16 717.94 268.60 711.21 267.94 704.51 C 268.20 700.37 267.96 696.22 267.97 692.08 C 268.62 685.23 266.74 678.05 269.06 671.45 C 269.47 674.62 270.05 677.78 270.99 680.85 C 272.39 677.39 272.47 673.63 272.92 669.98 C 273.59 670.55 274.27 671.13 274.94 671.72 C 279.44 671.03 282.85 667.79 284.91 663.91 Z" />
</g>
<g id="#6a6e7bff">
<path fill="#6a6e7b" opacity="1.00" d=" M 267.56 656.82 C 267.94 654.69 268.40 652.58 268.89 650.49 C 269.64 657.44 269.39 664.47 269.06 671.45 C 266.74 678.05 268.62 685.23 267.97 692.08 C 265.41 692.47 262.86 692.87 260.30 693.28 C 259.94 695.67 259.56 698.07 259.32 700.50 C 258.70 686.25 258.87 671.95 259.55 657.70 C 262.22 657.37 264.88 657.08 267.56 656.82 Z" />
</g>
<g id="#c9cbceff">
<path fill="#c9cbce" opacity="1.00" d=" M 893.48 677.39 C 896.60 695.31 901.56 712.88 908.10 729.84 C 908.40 731.12 909.50 732.39 909.17 733.75 C 907.74 734.61 906.29 735.41 904.85 736.22 C 903.28 733.79 903.64 729.03 900.26 728.49 C 897.25 719.88 895.06 711.01 893.32 702.07 C 892.22 693.96 890.42 685.27 893.48 677.39 Z" />
</g>
<g id="#737b8fff">
<path fill="#737b8f" opacity="1.00" d=" M 279.54 711.57 C 283.53 701.39 288.11 691.36 293.77 682.00 C 295.40 688.07 294.33 694.41 295.16 700.59 C 295.58 700.49 296.43 700.27 296.86 700.17 C 297.92 716.66 299.27 733.16 302.12 749.46 C 302.56 753.97 303.48 758.41 304.36 762.86 C 304.18 763.69 303.82 765.35 303.64 766.18 C 302.75 763.58 302.03 760.92 301.53 758.22 C 298.45 767.25 289.29 773.04 287.64 782.68 C 286.73 786.64 288.14 791.04 285.91 794.67 C 283.42 782.48 281.32 770.21 279.72 757.87 C 278.66 748.09 277.50 738.31 277.01 728.48 C 279.39 723.09 277.15 716.97 279.54 711.57 Z" />
</g>
<g id="#b9bdc4ff">
<path fill="#b9bdc4" opacity="1.00" d=" M 274.80 690.83 C 275.17 691.85 275.40 692.90 275.37 694.01 C 275.23 705.52 276.34 717.00 277.01 728.48 C 277.50 738.31 278.66 748.09 279.72 757.87 L 278.54 758.94 C 278.11 755.86 277.91 752.68 276.46 749.87 C 272.85 758.43 276.87 767.91 273.97 776.52 C 272.65 758.00 272.44 739.43 272.59 720.87 C 272.69 715.23 273.19 709.61 273.45 703.99 C 273.71 699.58 273.57 695.10 274.80 690.83 Z" />
</g>
<g id="#757985ff">
<path fill="#757985" opacity="1.00" d=" M 260.30 693.28 C 262.86 692.87 265.41 692.47 267.97 692.08 C 267.96 696.22 268.20 700.37 267.94 704.51 C 267.40 706.54 266.88 708.59 266.45 710.67 C 264.26 711.21 262.07 711.72 259.86 712.21 C 259.59 708.30 259.39 704.40 259.32 700.50 C 259.56 698.07 259.94 695.67 260.30 693.28 Z" />
</g>
<g id="#ede8eeff">
<path fill="#ede8ee" opacity="1.00" d=" M 885.62 707.04 C 887.37 704.18 891.17 704.49 893.32 702.07 C 895.06 711.01 897.25 719.88 900.26 728.49 C 906.55 747.81 914.83 766.65 926.45 783.39 C 934.57 795.39 944.17 806.40 955.07 815.95 C 958.40 819.03 962.08 821.84 964.55 825.71 C 955.47 820.64 947.18 814.22 939.50 807.24 C 931.61 799.67 924.91 790.99 918.44 782.22 C 906.61 765.01 897.47 746.07 890.83 726.28 C 889.22 719.83 887.00 713.55 885.62 707.04 Z" />
</g>
<g id="#7d808dff">
<path fill="#7d808d" opacity="1.00" d=" M 266.45 710.67 C 266.88 708.59 267.40 706.54 267.94 704.51 C 268.60 711.21 269.16 717.94 269.24 724.68 C 268.64 725.99 268.05 727.32 267.23 728.52 C 265.46 729.38 263.48 729.68 261.59 730.18 C 260.73 724.21 260.51 718.19 259.86 712.21 C 262.07 711.72 264.26 711.21 266.45 710.67 Z" />
</g>
<g id="#91939eff">
<path fill="#91939e" opacity="1.00" d=" M 271.99 750.56 C 272.25 740.66 271.96 730.76 272.59 720.87 C 272.44 739.43 272.65 758.00 273.97 776.52 C 274.06 780.49 275.14 784.41 274.65 788.40 C 273.34 784.94 272.49 781.33 271.33 777.83 C 271.25 778.67 271.09 780.35 271.02 781.19 C 268.44 772.25 266.53 763.13 264.92 753.98 C 265.03 752.61 265.17 751.26 265.33 749.91 C 266.68 754.00 269.56 757.25 271.82 760.84 C 272.15 757.42 272.34 753.98 271.99 750.56 Z" />
</g>
<g id="#888a96ff">
<path fill="#888a96" opacity="1.00" d=" M 267.23 728.52 C 268.05 727.32 268.64 725.99 269.24 724.68 C 270.20 733.30 270.24 742.06 271.99 750.56 C 272.34 753.98 272.15 757.42 271.82 760.84 C 269.56 757.25 266.68 754.00 265.33 749.91 C 265.17 751.26 265.03 752.61 264.92 753.98 C 263.43 746.10 262.44 738.14 261.59 730.18 C 263.48 729.68 265.46 729.38 267.23 728.52 Z" />
</g>
<g id="#96a1b3ff">
<path fill="#96a1b3" opacity="1.00" d=" M 892.34 734.63 C 891.41 731.94 889.98 729.18 890.83 726.28 C 897.47 746.07 906.61 765.01 918.44 782.22 C 918.37 783.44 918.30 784.78 919.20 785.77 C 921.76 789.49 924.55 793.07 927.52 796.49 C 925.50 797.37 923.77 798.73 922.40 800.44 C 920.64 798.29 919.67 794.60 916.48 794.37 C 912.01 788.02 908.73 780.96 904.60 774.41 C 902.84 769.81 900.70 765.37 898.50 760.98 C 899.57 759.61 900.66 758.27 901.76 756.94 C 898.44 749.58 895.06 742.23 892.34 734.63 Z" />
</g>
<g id="#bdc0c5ff">
<path fill="#bdc0c5" opacity="1.00" d=" M 900.26 728.49 C 903.64 729.03 903.28 733.79 904.85 736.22 C 906.29 735.41 907.74 734.61 909.17 733.75 L 909.57 733.50 C 917.21 755.74 928.95 776.59 944.74 794.08 L 944.29 794.34 C 942.59 795.35 940.95 796.45 939.31 797.55 C 935.97 793.88 933.03 789.88 930.08 785.91 C 929.13 784.75 928.20 783.15 926.45 783.39 C 914.83 766.65 906.55 747.81 900.26 728.49 Z" />
</g>
<g id="#a7b2c4ff">
<path fill="#a7b2c4" opacity="1.00" d=" M 882.80 745.56 C 885.88 745.59 888.29 743.38 890.90 742.05 C 893.81 748.20 895.69 754.78 898.50 760.98 C 900.70 765.37 902.84 769.81 904.60 774.41 C 904.41 776.53 905.03 778.55 905.83 780.49 C 903.13 780.38 900.31 779.87 897.68 780.68 C 894.47 781.93 891.68 783.99 888.71 785.69 C 882.66 784.27 876.40 784.87 870.32 783.70 C 865.30 782.77 860.19 783.32 855.13 783.17 C 853.46 784.12 851.86 785.49 849.84 785.52 C 846.92 785.81 844.20 784.41 841.34 784.27 C 838.49 784.66 835.82 785.91 832.95 786.14 C 829.28 786.63 825.65 785.26 821.98 785.90 C 818.70 785.96 815.55 787.00 812.35 787.39 C 806.44 786.05 800.35 785.73 794.32 785.42 C 791.08 786.28 788.43 788.60 785.14 789.33 C 781.64 790.27 778.13 788.96 774.64 788.72 C 768.67 788.23 762.70 787.64 756.72 787.33 C 752.32 786.96 749.37 791.41 745.01 791.16 C 742.00 791.31 739.16 790.24 736.22 789.87 C 732.95 790.25 729.69 790.90 726.39 790.53 C 723.12 790.07 720.68 792.70 717.84 793.79 C 716.77 793.43 715.78 792.90 714.78 792.43 C 706.33 794.68 697.59 795.57 688.87 795.72 C 685.38 795.68 683.09 799.05 679.73 799.37 C 673.34 799.73 666.84 800.44 660.80 802.64 C 653.66 805.77 645.52 805.24 638.39 808.45 C 631.61 811.68 623.82 811.12 616.87 813.90 C 612.26 815.93 607.14 815.81 602.39 817.31 C 595.23 820.19 587.47 820.93 580.18 823.42 C 572.76 825.77 565.09 827.18 557.65 829.46 C 549.18 830.93 541.19 834.21 532.75 835.72 C 519.49 839.72 505.97 842.76 492.62 846.45 C 485.91 848.78 478.83 849.78 472.12 852.11 C 467.63 853.16 463.24 855.29 458.53 854.97 C 452.76 858.50 445.72 858.62 439.78 861.72 C 436.34 863.30 432.20 862.72 429.05 865.04 C 425.04 867.68 420.10 868.31 416.21 871.17 C 412.88 873.68 408.14 872.17 404.97 875.00 C 401.72 877.62 397.31 877.65 393.82 879.82 C 390.74 881.82 386.92 881.97 383.77 883.83 C 376.65 887.70 368.50 889.20 361.55 893.38 C 356.86 893.03 353.76 897.04 349.36 897.78 C 347.63 898.23 345.98 898.91 344.35 899.62 C 343.67 898.05 342.99 896.51 342.30 894.97 C 342.15 895.53 341.85 896.64 341.70 897.20 C 338.67 889.99 336.41 882.49 333.75 875.14 C 333.81 874.73 333.94 873.90 334.00 873.49 C 335.27 874.07 336.54 874.64 337.83 875.21 C 338.73 870.33 340.07 865.35 343.45 861.58 C 348.53 857.80 354.82 856.36 360.20 853.14 C 363.22 851.47 366.58 850.50 369.45 848.56 C 373.25 845.88 377.94 845.14 381.97 842.93 C 381.73 842.58 381.25 841.88 381.01 841.53 C 377.04 842.75 372.85 843.03 368.81 844.01 C 372.09 840.29 377.21 839.48 381.50 837.43 C 386.82 835.24 391.50 831.71 397.02 829.97 C 405.35 826.72 413.11 822.04 421.76 819.68 C 426.82 816.43 432.76 815.02 437.81 811.77 C 440.83 809.68 445.00 811.37 447.77 808.75 C 451.80 805.58 457.16 805.25 461.36 802.39 C 464.41 799.96 468.55 802.66 471.65 800.54 C 473.86 799.30 475.94 797.51 478.61 797.52 C 481.58 797.53 484.17 796.00 486.73 794.68 C 488.91 793.27 491.57 794.80 493.87 793.75 C 498.93 792.12 504.03 788.84 509.55 790.04 C 513.23 790.72 515.34 785.94 518.99 786.11 C 521.21 786.18 523.40 786.86 525.64 786.65 C 529.06 785.56 531.94 782.99 535.62 782.62 C 538.81 782.08 541.92 783.25 545.08 783.50 C 547.32 782.76 549.20 781.25 551.32 780.24 C 556.18 777.19 562.03 781.91 566.96 778.98 C 571.04 776.66 575.70 774.99 580.46 775.99 C 584.64 777.04 588.73 775.25 592.50 773.60 C 596.28 771.67 600.57 773.62 604.49 772.38 C 607.91 771.25 611.64 772.43 614.98 770.92 C 617.73 769.64 620.90 770.83 623.62 769.52 C 629.24 766.68 635.78 768.55 641.65 769.48 C 644.51 767.45 647.36 764.96 650.96 764.48 C 655.33 764.04 659.68 765.48 664.04 764.84 C 667.82 763.94 670.67 760.60 674.67 760.39 C 679.09 760.08 683.52 760.42 687.88 761.17 C 691.58 761.93 694.35 758.56 697.64 757.50 C 701.19 755.61 705.16 757.06 708.89 757.36 C 710.21 758.78 711.49 760.80 713.72 760.65 C 720.18 760.45 726.67 761.52 733.07 760.20 C 741.96 759.95 750.77 758.66 759.61 757.68 C 763.80 757.20 767.71 755.32 771.95 755.13 C 782.24 754.86 792.06 751.20 802.30 750.47 C 809.60 748.91 816.91 747.23 824.37 746.63 C 827.80 746.36 831.26 747.07 834.68 746.56 C 836.69 745.69 838.42 744.29 840.42 743.40 C 847.00 741.87 853.65 744.95 860.24 743.74 C 863.54 743.46 866.68 745.09 869.98 744.85 C 874.28 744.43 878.49 745.86 882.80 745.56 Z" />
</g>
<g id="#b8bec8ff">
<path fill="#b8bec8" opacity="1.00" d=" M 303.45 743.08 C 310.50 751.73 311.02 763.49 315.67 773.31 C 317.42 776.10 316.39 779.44 316.60 782.52 C 315.58 786.89 314.17 791.17 312.46 795.33 C 309.26 784.64 306.75 773.75 304.36 762.86 C 303.48 758.41 302.56 753.97 302.12 749.46 C 302.56 747.33 303.03 745.20 303.45 743.08 Z" />
</g>
<g id="#adb1baff">
<path fill="#adb1ba" opacity="1.00" d=" M 276.46 749.87 C 277.91 752.68 278.11 755.86 278.54 758.94 L 279.72 757.87 C 281.32 770.21 283.42 782.48 285.91 794.67 C 289.25 811.93 294.37 828.87 300.69 845.28 C 304.50 855.52 309.36 865.32 313.67 875.34 C 313.10 879.92 316.77 883.48 318.00 887.68 C 315.17 886.52 311.43 886.18 309.82 883.26 C 305.51 875.21 302.80 866.38 298.16 858.52 C 298.11 859.12 298.01 860.33 297.96 860.93 C 286.49 835.27 278.46 808.24 271.02 781.19 C 271.09 780.35 271.25 778.67 271.33 777.83 C 272.49 781.33 273.34 784.94 274.65 788.40 C 275.14 784.41 274.06 780.49 273.97 776.52 C 276.87 767.91 272.85 758.43 276.46 749.87 Z" />
</g>
<g id="#858fa3ff">
<path fill="#858fa3" opacity="1.00" d=" M 287.64 782.68 C 289.29 773.04 298.45 767.25 301.53 758.22 C 302.03 760.92 302.75 763.58 303.64 766.18 C 303.82 765.35 304.18 763.69 304.36 762.86 C 306.75 773.75 309.26 784.64 312.46 795.33 C 317.74 818.69 322.98 842.13 330.42 864.93 C 327.37 867.45 328.08 871.83 326.14 875.03 C 324.50 878.86 320.84 881.10 318.00 883.95 C 316.65 881.03 315.14 878.19 313.67 875.34 C 309.36 865.32 304.50 855.52 300.69 845.28 C 294.37 828.87 289.25 811.93 285.91 794.67 C 288.14 791.04 286.73 786.64 287.64 782.68 Z" />
</g>
<g id="#acb8c9ff">
<path fill="#acb8c9" opacity="1.00" d=" M 905.83 780.49 C 905.03 778.55 904.41 776.53 904.60 774.41 C 908.73 780.96 912.01 788.02 916.48 794.37 C 919.88 799.71 923.61 804.84 927.26 810.02 C 924.53 812.53 920.57 813.12 917.13 811.91 C 911.65 810.07 905.86 811.00 900.25 810.10 C 895.68 810.65 891.29 808.90 886.71 809.18 C 880.45 807.81 874.02 808.14 867.71 807.26 C 864.59 806.94 861.15 806.48 858.45 808.43 C 854.55 811.06 849.59 812.07 845.02 810.91 C 840.81 809.79 836.45 809.21 832.10 809.35 C 829.45 810.35 827.28 812.52 824.40 812.90 C 821.79 813.17 819.17 812.86 816.57 813.17 C 813.16 813.78 810.13 811.48 806.76 811.50 C 801.92 811.04 798.62 816.15 793.81 815.80 C 788.68 815.35 783.52 815.17 778.38 815.54 C 774.98 815.88 772.38 818.95 768.86 818.66 C 762.69 818.44 756.30 817.27 750.31 819.32 C 744.13 822.79 736.72 821.70 729.99 820.99 C 728.60 820.79 727.43 821.67 726.23 822.18 C 722.37 824.26 718.01 825.56 713.61 825.52 C 710.02 825.51 706.44 823.63 702.88 824.82 C 699.13 825.88 696.21 829.63 692.02 828.97 C 688.75 828.81 685.63 827.50 682.36 827.43 C 679.02 827.82 676.86 830.65 674.16 832.30 C 670.75 832.64 667.33 831.99 663.94 831.83 C 663.33 830.65 662.74 829.48 662.14 828.31 C 659.12 829.34 656.52 831.77 653.19 831.68 C 646.00 831.77 638.62 831.16 631.65 833.33 C 628.80 834.06 625.80 833.29 622.95 834.05 C 619.25 835.05 615.27 834.16 611.71 835.75 C 608.74 837.03 605.60 837.80 602.36 837.66 C 599.45 837.48 597.73 840.49 595.00 840.93 C 591.36 841.61 587.64 841.64 583.98 842.07 C 581.36 842.19 579.31 844.01 576.87 844.71 C 573.34 845.37 569.69 844.87 566.19 845.68 C 563.99 846.45 562.29 848.20 560.17 849.15 C 557.01 849.73 553.76 848.98 550.59 849.59 C 546.42 850.12 543.38 853.34 539.55 854.77 C 536.57 856.25 533.17 856.21 530.05 857.16 C 520.78 862.82 509.40 862.95 499.79 867.83 C 497.60 868.92 495.51 870.68 492.93 870.57 C 490.47 870.50 487.91 870.29 485.67 871.56 C 480.46 874.13 474.53 874.68 469.33 877.27 C 465.48 879.12 460.89 878.80 457.34 881.33 C 454.79 883.38 451.40 882.69 448.46 883.54 C 445.31 885.10 442.66 887.89 438.95 888.03 C 434.06 888.39 430.25 891.96 425.41 892.53 C 418.92 894.91 412.88 898.61 406.04 900.04 C 403.74 900.41 401.74 901.60 399.78 902.78 C 397.29 904.31 394.25 904.40 391.69 905.77 C 384.26 910.09 375.74 912.04 368.18 916.09 C 365.21 917.58 361.85 918.20 359.02 920.00 C 357.47 920.77 355.60 922.43 353.83 921.25 C 352.48 919.35 351.60 917.19 350.59 915.12 C 350.39 915.61 350.00 916.60 349.80 917.10 C 346.94 910.53 344.14 903.93 341.70 897.20 C 341.85 896.64 342.15 895.53 342.30 894.97 C 342.99 896.51 343.67 898.05 344.35 899.62 C 345.98 898.91 347.63 898.23 349.36 897.78 C 353.76 897.04 356.86 893.03 361.55 893.38 C 368.50 889.20 376.65 887.70 383.77 883.83 C 386.92 881.97 390.74 881.82 393.82 879.82 C 397.31 877.65 401.72 877.62 404.97 875.00 C 408.14 872.17 412.88 873.68 416.21 871.17 C 420.10 868.31 425.04 867.68 429.05 865.04 C 432.20 862.72 436.34 863.30 439.78 861.72 C 445.72 858.62 452.76 858.50 458.53 854.97 C 463.24 855.29 467.63 853.16 472.12 852.11 C 478.83 849.78 485.91 848.78 492.62 846.45 C 505.97 842.76 519.49 839.72 532.75 835.72 C 541.19 834.21 549.18 830.93 557.65 829.46 C 565.09 827.18 572.76 825.77 580.18 823.42 C 587.47 820.93 595.23 820.19 602.39 817.31 C 607.14 815.81 612.26 815.93 616.87 813.90 C 623.82 811.12 631.61 811.68 638.39 808.45 C 645.52 805.24 653.66 805.77 660.80 802.64 C 666.84 800.44 673.34 799.73 679.73 799.37 C 683.09 799.05 685.38 795.68 688.87 795.72 C 697.59 795.57 706.33 794.68 714.78 792.43 C 715.78 792.90 716.77 793.43 717.84 793.79 C 720.68 792.70 723.12 790.07 726.39 790.53 C 729.69 790.90 732.95 790.25 736.22 789.87 C 739.16 790.24 742.00 791.31 745.01 791.16 C 749.37 791.41 752.32 786.96 756.72 787.33 C 762.70 787.64 768.67 788.23 774.64 788.72 C 778.13 788.96 781.64 790.27 785.14 789.33 C 788.43 788.60 791.08 786.28 794.32 785.42 C 800.35 785.73 806.44 786.05 812.35 787.39 C 815.55 787.00 818.70 785.96 821.98 785.90 C 825.65 785.26 829.28 786.63 832.95 786.14 C 835.82 785.91 838.49 784.66 841.34 784.27 C 844.20 784.41 846.92 785.81 849.84 785.52 C 851.86 785.49 853.46 784.12 855.13 783.17 C 860.19 783.32 865.30 782.77 870.32 783.70 C 876.40 784.87 882.66 784.27 888.71 785.69 C 891.68 783.99 894.47 781.93 897.68 780.68 C 900.31 779.87 903.13 780.38 905.83 780.49 Z" />
</g>
<g id="#8693a8ff">
<path fill="#8693a8" opacity="1.00" d=" M 919.20 785.77 C 918.30 784.78 918.37 783.44 918.44 782.22 C 924.91 790.99 931.61 799.67 939.50 807.24 C 939.12 809.01 940.74 810.08 941.83 811.17 C 947.29 815.87 953.00 820.29 958.88 824.47 C 956.05 827.88 952.37 830.41 949.34 833.62 C 946.40 831.07 944.08 827.70 940.40 826.14 C 935.58 821.14 931.46 815.53 927.26 810.02 C 923.61 804.84 919.88 799.71 916.48 794.37 C 919.67 794.60 920.64 798.29 922.40 800.44 C 923.77 798.73 925.50 797.37 927.52 796.49 C 924.55 793.07 921.76 789.49 919.20 785.77 Z" />
</g>
<g id="#afb3bbff">
<path fill="#afb3bb" opacity="1.00" d=" M 926.45 783.39 C 928.20 783.15 929.13 784.75 930.08 785.91 C 933.03 789.88 935.97 793.88 939.31 797.55 C 940.95 796.45 942.59 795.35 944.29 794.34 C 946.34 794.98 947.51 797.50 949.16 798.91 C 965.84 816.44 984.98 831.80 1006.02 843.76 L 1005.42 843.85 C 1003.28 844.16 1001.18 844.54 999.07 844.92 C 986.81 839.97 975.58 832.87 964.55 825.71 C 962.08 821.84 958.40 819.03 955.07 815.95 C 944.17 806.40 934.57 795.39 926.45 783.39 Z" />
</g>
<g id="#b3becfff">
<path fill="#b3becf" opacity="1.00" d=" M 858.45 808.43 C 861.15 806.48 864.59 806.94 867.71 807.26 C 874.02 808.14 880.45 807.81 886.71 809.18 C 891.29 808.90 895.68 810.65 900.25 810.10 C 905.86 811.00 911.65 810.07 917.13 811.91 C 920.57 813.12 924.53 812.53 927.26 810.02 C 931.46 815.53 935.58 821.14 940.40 826.14 C 943.32 829.61 946.47 832.88 949.40 836.35 C 949.50 837.48 949.31 838.84 950.31 839.69 C 953.43 843.22 957.18 846.17 960.05 849.95 C 955.32 850.38 950.70 849.09 946.00 849.06 C 943.22 848.98 940.43 849.05 937.69 848.56 C 932.59 847.39 927.29 848.09 922.18 846.89 C 914.50 846.29 906.84 845.21 899.12 845.24 C 896.59 845.33 894.30 844.00 891.82 843.73 C 883.08 843.33 874.30 843.02 865.64 841.69 C 862.11 841.55 858.57 841.71 855.08 841.13 C 849.99 840.33 844.76 840.88 839.74 839.55 C 833.37 837.88 826.77 838.61 820.31 837.75 C 816.38 837.43 813.72 841.32 810.04 841.92 C 804.32 841.59 798.61 840.43 792.87 840.85 C 788.73 841.06 785.59 844.19 781.80 845.32 C 776.39 843.32 769.98 842.21 764.89 845.76 C 762.64 845.41 760.28 845.02 758.18 846.16 C 754.70 848.00 750.87 846.32 747.20 846.45 C 744.52 846.78 742.69 849.57 739.88 849.46 C 735.22 849.51 730.63 848.62 726.01 848.18 C 719.67 847.43 713.24 847.80 706.97 848.93 C 702.76 849.91 698.38 849.04 694.22 850.30 C 690.77 851.26 687.35 849.77 683.90 849.79 C 680.29 850.15 676.71 850.76 673.15 851.37 C 671.44 851.40 670.73 853.08 669.76 854.19 C 673.55 855.41 677.52 854.47 681.40 854.35 C 688.69 853.94 695.88 852.14 703.21 852.41 C 702.40 854.09 701.14 855.47 699.77 856.73 C 694.80 855.77 689.59 855.42 684.68 856.87 C 674.70 858.95 664.90 862.19 654.63 862.50 C 649.84 862.57 644.93 862.58 640.43 864.43 C 637.27 865.85 633.64 864.94 630.54 866.54 C 627.86 867.82 624.59 866.21 622.12 868.13 C 616.66 871.41 610.13 871.49 603.97 871.85 C 600.10 871.92 598.01 876.29 594.06 876.16 C 589.68 876.42 585.90 878.88 581.69 879.87 C 578.68 880.79 575.55 881.11 572.47 881.63 C 569.77 882.80 567.51 884.87 564.61 885.57 C 559.98 886.71 555.27 887.72 551.00 889.93 C 548.18 891.43 544.97 891.43 541.90 891.88 C 538.95 892.23 536.85 894.68 534.03 895.38 C 528.06 896.60 522.91 900.08 517.24 902.13 C 514.74 902.96 512.06 903.34 509.75 904.69 C 505.50 907.43 500.08 906.86 495.89 909.83 C 488.99 911.13 483.58 916.26 476.70 917.68 C 474.64 917.98 472.92 919.15 471.23 920.29 C 469.29 921.78 466.65 921.50 464.55 922.66 C 461.41 924.41 457.80 925.02 454.68 926.82 C 453.25 927.65 451.69 928.26 450.02 927.97 C 444.01 929.95 438.35 932.72 432.80 935.75 C 428.53 939.03 422.83 939.26 418.46 942.37 C 413.97 943.98 409.25 945.22 404.49 945.60 C 398.66 950.11 391.05 950.94 384.83 954.77 C 381.35 955.85 377.28 955.24 374.56 958.24 C 373.35 956.98 372.17 955.48 370.28 955.35 C 361.55 943.74 356.03 930.13 349.80 917.10 C 350.00 916.60 350.39 915.61 350.59 915.12 C 351.60 917.19 352.48 919.35 353.83 921.25 C 355.60 922.43 357.47 920.77 359.02 920.00 C 361.85 918.20 365.21 917.58 368.18 916.09 C 375.74 912.04 384.26 910.09 391.69 905.77 C 394.25 904.40 397.29 904.31 399.78 902.78 C 401.74 901.60 403.74 900.41 406.04 900.04 C 412.88 898.61 418.92 894.91 425.41 892.53 C 430.25 891.96 434.06 888.39 438.95 888.03 C 442.66 887.89 445.31 885.10 448.46 883.54 C 451.40 882.69 454.79 883.38 457.34 881.33 C 460.89 878.80 465.48 879.12 469.33 877.27 C 474.53 874.68 480.46 874.13 485.67 871.56 C 487.91 870.29 490.47 870.50 492.93 870.57 C 495.51 870.68 497.60 868.92 499.79 867.83 C 509.40 862.95 520.78 862.82 530.05 857.16 C 533.17 856.21 536.57 856.25 539.55 854.77 C 543.38 853.34 546.42 850.12 550.59 849.59 C 553.76 848.98 557.01 849.73 560.17 849.15 C 562.29 848.20 563.99 846.45 566.19 845.68 C 569.69 844.87 573.34 845.37 576.87 844.71 C 579.31 844.01 581.36 842.19 583.98 842.07 C 587.64 841.64 591.36 841.61 595.00 840.93 C 597.73 840.49 599.45 837.48 602.36 837.66 C 605.60 837.80 608.74 837.03 611.71 835.75 C 615.27 834.16 619.25 835.05 622.95 834.05 C 625.80 833.29 628.80 834.06 631.65 833.33 C 638.62 831.16 646.00 831.77 653.19 831.68 C 656.52 831.77 659.12 829.34 662.14 828.31 C 662.74 829.48 663.33 830.65 663.94 831.83 C 667.33 831.99 670.75 832.64 674.16 832.30 C 676.86 830.65 679.02 827.82 682.36 827.43 C 685.63 827.50 688.75 828.81 692.02 828.97 C 696.21 829.63 699.13 825.88 702.88 824.82 C 706.44 823.63 710.02 825.51 713.61 825.52 C 718.01 825.56 722.37 824.26 726.23 822.18 C 727.43 821.67 728.60 820.79 729.99 820.99 C 736.72 821.70 744.13 822.79 750.31 819.32 C 756.30 817.27 762.69 818.44 768.86 818.66 C 772.38 818.95 774.98 815.88 778.38 815.54 C 783.52 815.17 788.68 815.35 793.81 815.80 C 798.62 816.15 801.92 811.04 806.76 811.50 C 810.13 811.48 813.16 813.78 816.57 813.17 C 819.17 812.86 821.79 813.17 824.40 812.90 C 827.28 812.52 829.45 810.35 832.10 809.35 C 836.45 809.21 840.81 809.79 845.02 810.91 C 849.59 812.07 854.55 811.06 858.45 808.43 Z" />
</g>
<g id="#75849cff">
<path fill="#75849c" opacity="1.00" d=" M 941.83 811.17 C 940.74 810.08 939.12 809.01 939.50 807.24 C 947.18 814.22 955.47 820.64 964.55 825.71 C 975.58 832.87 986.81 839.97 999.07 844.92 C 997.13 858.24 991.37 870.57 986.92 883.16 C 986.23 882.03 985.56 880.93 984.91 879.83 C 980.11 883.88 975.93 888.65 970.76 892.24 C 970.95 892.79 971.16 893.34 971.39 893.91 C 969.73 895.36 968.02 896.75 966.23 898.04 C 967.45 891.43 970.28 885.27 971.76 878.74 C 972.16 877.26 971.55 875.81 971.25 874.40 C 972.02 869.56 973.53 864.80 973.61 859.87 C 970.04 855.61 965.40 852.39 961.55 848.40 C 957.45 844.43 953.47 840.34 949.40 836.35 C 946.47 832.88 943.32 829.61 940.40 826.14 C 944.08 827.70 946.40 831.07 949.34 833.62 C 952.37 830.41 956.05 827.88 958.88 824.47 C 953.00 820.29 947.29 815.87 941.83 811.17 Z" />
</g>
<g id="#bbc5d5ff">
<path fill="#bbc5d5" opacity="1.00" d=" M 810.04 841.92 C 813.72 841.32 816.38 837.43 820.31 837.75 C 826.77 838.61 833.37 837.88 839.74 839.55 C 844.76 840.88 849.99 840.33 855.08 841.13 C 858.57 841.71 862.11 841.55 865.64 841.69 C 874.30 843.02 883.08 843.33 891.82 843.73 C 894.30 844.00 896.59 845.33 899.12 845.24 C 906.84 845.21 914.50 846.29 922.18 846.89 C 927.29 848.09 932.59 847.39 937.69 848.56 C 940.43 849.05 943.22 848.98 946.00 849.06 C 950.70 849.09 955.32 850.38 960.05 849.95 C 957.18 846.17 953.43 843.22 950.31 839.69 C 949.31 838.84 949.50 837.48 949.40 836.35 C 953.47 840.34 957.45 844.43 961.55 848.40 C 965.40 852.39 970.04 855.61 973.61 859.87 C 973.53 864.80 972.02 869.56 971.25 874.40 C 969.69 879.69 968.30 885.03 966.46 890.24 C 966.35 889.74 966.14 888.73 966.03 888.23 C 964.99 888.97 963.96 889.72 962.95 890.48 C 953.23 888.98 943.34 888.76 933.58 887.48 C 924.44 887.30 915.43 885.28 906.29 885.33 C 903.86 885.08 901.43 884.59 898.99 884.99 C 895.69 885.56 892.66 883.53 889.39 883.57 C 882.61 883.61 875.90 882.45 869.21 881.57 C 857.36 882.26 845.80 878.79 833.99 878.61 C 824.35 877.18 814.54 877.71 804.95 875.90 C 799.73 874.95 794.39 875.84 789.21 874.67 C 783.64 874.80 778.21 873.40 772.67 873.29 C 766.88 873.07 761.17 872.06 755.39 871.73 C 749.82 870.76 744.19 872.08 738.61 871.40 C 734.05 870.81 729.55 871.95 725.02 872.05 C 720.62 872.07 716.32 874.07 711.96 872.73 C 706.30 872.91 700.47 872.79 695.04 874.60 C 695.18 875.04 695.46 875.92 695.60 876.36 C 697.09 876.34 698.57 876.32 700.07 876.34 C 694.94 880.79 687.99 877.28 682.11 879.10 C 678.88 879.91 675.58 880.25 672.28 880.55 C 666.86 881.34 661.63 883.07 656.31 884.27 C 651.76 884.60 647.28 885.55 642.71 885.57 C 640.43 885.60 638.92 887.72 636.83 888.31 C 633.50 888.65 630.08 887.71 626.81 888.65 C 624.99 889.37 623.58 890.78 621.88 891.71 C 619.28 892.57 616.48 892.07 613.85 892.71 C 611.60 893.84 609.71 895.87 607.02 895.91 C 599.82 896.61 593.31 900.11 586.17 901.12 C 579.99 903.45 573.47 904.75 567.37 907.32 C 561.11 909.54 554.89 911.99 548.38 913.38 C 545.63 913.81 543.77 916.00 541.49 917.37 C 531.69 921.69 521.27 924.60 511.83 929.74 C 504.82 931.58 497.16 932.68 491.37 937.39 C 488.95 938.99 485.69 938.45 483.39 940.29 C 480.52 942.47 477.44 944.45 473.90 945.30 C 469.11 946.46 464.84 949.08 460.00 950.11 C 456.93 950.40 455.67 954.17 452.63 954.33 C 448.08 954.51 444.50 957.67 440.56 959.57 C 438.15 960.99 435.26 960.98 432.66 961.90 C 430.72 962.78 429.06 964.20 427.07 964.99 C 420.38 967.21 414.02 970.31 407.61 973.21 C 405.68 973.79 403.44 973.39 401.81 974.80 C 397.56 977.68 392.40 978.58 387.37 978.72 C 381.40 971.13 375.75 963.30 370.28 955.35 C 372.17 955.48 373.35 956.98 374.56 958.24 C 377.28 955.24 381.35 955.85 384.83 954.77 C 391.05 950.94 398.66 950.11 404.49 945.60 C 409.25 945.22 413.97 943.98 418.46 942.37 C 422.83 939.26 428.53 939.03 432.80 935.75 C 438.35 932.72 444.01 929.95 450.02 927.97 C 451.69 928.26 453.25 927.65 454.68 926.82 C 457.80 925.02 461.41 924.41 464.55 922.66 C 466.65 921.50 469.29 921.78 471.23 920.29 C 472.92 919.15 474.64 917.98 476.70 917.68 C 483.58 916.26 488.99 911.13 495.89 909.83 C 500.08 906.86 505.50 907.43 509.75 904.69 C 512.06 903.34 514.74 902.96 517.24 902.13 C 522.91 900.08 528.06 896.60 534.03 895.38 C 536.85 894.68 538.95 892.23 541.90 891.88 C 544.97 891.43 548.18 891.43 551.00 889.93 C 555.27 887.72 559.98 886.71 564.61 885.57 C 567.51 884.87 569.77 882.80 572.47 881.63 C 575.55 881.11 578.68 880.79 581.69 879.87 C 585.90 878.88 589.68 876.42 594.06 876.16 C 598.01 876.29 600.10 871.92 603.97 871.85 C 610.13 871.49 616.66 871.41 622.12 868.13 C 624.59 866.21 627.86 867.82 630.54 866.54 C 633.64 864.94 637.27 865.85 640.43 864.43 C 644.93 862.58 649.84 862.57 654.63 862.50 C 664.90 862.19 674.70 858.95 684.68 856.87 C 689.59 855.42 694.80 855.77 699.77 856.73 C 701.14 855.47 702.40 854.09 703.21 852.41 C 695.88 852.14 688.69 853.94 681.40 854.35 C 677.52 854.47 673.55 855.41 669.76 854.19 C 670.73 853.08 671.44 851.40 673.15 851.37 C 676.71 850.76 680.29 850.15 683.90 849.79 C 687.35 849.77 690.77 851.26 694.22 850.30 C 698.38 849.04 702.76 849.91 706.97 848.93 C 713.24 847.80 719.67 847.43 726.01 848.18 C 730.63 848.62 735.22 849.51 739.88 849.46 C 742.69 849.57 744.52 846.78 747.20 846.45 C 750.87 846.32 754.70 848.00 758.18 846.16 C 760.28 845.02 762.64 845.41 764.89 845.76 C 769.98 842.21 776.39 843.32 781.80 845.32 C 785.59 844.19 788.73 841.06 792.87 840.85 C 798.61 840.43 804.32 841.59 810.04 841.92 Z" />
</g>
<g id="#657490ff">
<path fill="#657490" opacity="1.00" d=" M 999.07 844.92 C 1001.18 844.54 1003.28 844.16 1005.42 843.85 L 1006.83 843.65 C 1002.23 862.86 994.96 881.33 987.55 899.61 C 971.60 937.43 951.59 973.78 925.94 1005.93 C 907.65 1028.63 886.17 1049.40 860.33 1063.31 C 855.68 1065.70 851.01 1068.08 846.24 1070.23 C 837.94 1073.60 829.30 1076.23 820.37 1077.20 C 800.68 1079.05 780.88 1076.10 761.82 1071.26 C 749.99 1068.28 738.73 1063.56 727.20 1059.69 C 713.41 1055.28 699.26 1051.99 684.97 1049.76 C 659.96 1047.78 634.82 1050.95 610.36 1056.09 C 588.94 1060.80 568.34 1068.53 547.04 1073.70 C 546.59 1073.36 545.67 1072.69 545.21 1072.35 C 553.80 1070.61 562.12 1067.82 570.59 1065.59 C 571.88 1065.22 573.07 1064.59 574.24 1063.95 C 568.23 1063.92 562.60 1067.50 556.56 1066.21 C 578.58 1061.30 600.29 1055.14 622.11 1049.43 C 653.27 1043.17 685.80 1043.22 716.82 1050.28 C 735.02 1055.34 752.82 1061.88 771.41 1065.47 C 784.95 1068.13 798.79 1069.62 812.60 1068.94 C 822.64 1069.73 832.04 1065.44 841.40 1062.48 C 860.68 1056.52 877.23 1044.31 892.27 1031.20 C 898.32 1025.28 904.25 1019.22 910.25 1013.24 C 921.34 1000.46 931.61 986.96 940.76 972.73 C 947.18 962.13 953.63 951.54 959.77 940.77 C 964.08 933.53 967.24 925.69 971.22 918.28 C 976.65 906.66 982.41 895.17 986.92 883.16 C 991.37 870.57 997.13 858.24 999.07 844.92 Z" />
<path fill="#657490" opacity="1.00" d=" M 670.07 1041.55 C 670.39 1041.25 671.02 1040.66 671.34 1040.36 C 678.76 1040.56 686.14 1041.33 693.52 1042.00 C 690.55 1042.65 687.49 1042.75 684.50 1042.18 C 679.74 1041.29 674.88 1041.52 670.07 1041.55 Z" />
</g>
<g id="#d9dfe6ff">
<path fill="#d9dfe6" opacity="1.00" d=" M 1006.83 843.65 C 1009.93 847.04 1008.49 852.00 1008.45 856.14 C 1007.42 862.49 1006.48 868.89 1004.75 875.10 C 982.85 946.18 941.57 1011.41 885.79 1060.73 C 881.18 1064.89 877.01 1069.58 871.69 1072.88 C 871.42 1072.41 870.88 1071.47 870.62 1071.00 C 870.51 1066.94 870.45 1062.81 871.58 1058.88 C 863.98 1062.88 856.89 1068.06 848.65 1070.71 C 848.05 1070.59 846.84 1070.35 846.24 1070.23 C 851.01 1068.08 855.68 1065.70 860.33 1063.31 C 886.17 1049.40 907.65 1028.63 925.94 1005.93 C 951.59 973.78 971.60 937.43 987.55 899.61 C 994.96 881.33 1002.23 862.86 1006.83 843.65 Z" />
</g>
<g id="#b8bcc3ff">
<path fill="#b8bcc3" opacity="1.00" d=" M 298.16 858.52 C 302.80 866.38 305.51 875.21 309.82 883.26 C 311.43 886.18 315.17 886.52 318.00 887.68 C 316.77 883.48 313.10 879.92 313.67 875.34 C 315.14 878.19 316.65 881.03 318.00 883.95 C 330.73 912.07 346.81 938.53 363.57 964.40 C 378.72 987.53 395.06 1009.90 412.44 1031.40 C 412.46 1032.53 412.24 1033.86 413.28 1034.68 C 420.07 1041.89 426.15 1049.74 433.01 1056.89 C 432.18 1058.28 431.36 1059.68 430.54 1061.10 C 413.44 1045.85 398.72 1028.13 385.25 1009.65 C 370.45 988.71 355.67 967.72 342.10 945.96 C 325.01 918.94 310.30 890.41 297.96 860.93 C 298.01 860.33 298.11 859.12 298.16 858.52 Z" />
</g>
<g id="#939fb1ff">
<path fill="#939fb1" opacity="1.00" d=" M 330.42 864.93 C 331.62 868.30 332.55 871.76 333.75 875.14 C 336.41 882.49 338.67 889.99 341.70 897.20 C 344.14 903.93 346.94 910.53 349.80 917.10 C 356.03 930.13 361.55 943.74 370.28 955.35 C 375.75 963.30 381.40 971.13 387.37 978.72 C 391.29 983.65 395.02 988.74 399.29 993.39 C 407.47 1003.50 416.19 1013.16 425.18 1022.56 C 436.13 1034.40 448.22 1045.50 462.19 1053.69 C 474.96 1061.49 490.05 1065.19 504.98 1064.78 C 548.76 1064.71 590.24 1048.71 633.06 1041.92 C 645.74 1040.46 658.59 1039.27 671.34 1040.36 C 671.02 1040.66 670.39 1041.25 670.07 1041.55 C 674.88 1041.52 679.74 1041.29 684.50 1042.18 C 687.49 1042.75 690.55 1042.65 693.52 1042.00 C 694.38 1042.06 695.25 1042.14 696.12 1042.25 C 695.59 1042.65 694.52 1043.45 693.99 1043.85 C 699.99 1044.46 705.93 1045.58 711.90 1046.48 C 714.79 1046.86 717.43 1048.18 719.90 1049.71 C 719.13 1049.85 717.59 1050.13 716.82 1050.28 C 685.80 1043.22 653.27 1043.17 622.11 1049.43 C 600.29 1055.14 578.58 1061.30 556.56 1066.21 C 534.65 1070.21 512.22 1073.67 489.94 1070.81 C 471.52 1068.81 453.53 1062.86 437.66 1053.30 C 433.43 1051.00 429.84 1047.66 425.41 1045.71 C 420.91 1041.10 416.63 1036.29 412.44 1031.40 C 395.06 1009.90 378.72 987.53 363.57 964.40 C 346.81 938.53 330.73 912.07 318.00 883.95 C 320.84 881.10 324.50 878.86 326.14 875.03 C 328.08 871.83 327.37 867.45 330.42 864.93 Z" />
</g>
<g id="#c2ccdbff">
<path fill="#c2ccdb" opacity="1.00" d=" M 725.02 872.05 C 729.55 871.95 734.05 870.81 738.61 871.40 C 744.19 872.08 749.82 870.76 755.39 871.73 C 761.17 872.06 766.88 873.07 772.67 873.29 C 778.21 873.40 783.64 874.80 789.21 874.67 C 794.39 875.84 799.73 874.95 804.95 875.90 C 814.54 877.71 824.35 877.18 833.99 878.61 C 845.80 878.79 857.36 882.26 869.21 881.57 C 875.90 882.45 882.61 883.61 889.39 883.57 C 892.66 883.53 895.69 885.56 898.99 884.99 C 901.43 884.59 903.86 885.08 906.29 885.33 C 915.43 885.28 924.44 887.30 933.58 887.48 C 943.34 888.76 953.23 888.98 962.95 890.48 C 963.96 889.72 964.99 888.97 966.03 888.23 C 966.14 888.73 966.35 889.74 966.46 890.24 C 962.43 902.48 957.68 914.48 952.16 926.13 C 952.09 925.57 951.94 924.46 951.86 923.90 C 951.03 925.08 950.21 926.28 949.41 927.50 C 943.08 927.13 936.72 927.12 930.46 926.03 C 926.34 925.25 922.11 925.72 917.98 925.05 C 912.23 924.18 906.40 923.96 900.62 923.47 C 897.08 922.94 893.59 921.78 889.97 922.18 C 885.35 922.69 880.90 920.95 876.29 921.23 C 871.44 920.34 866.53 920.42 861.64 920.24 C 856.57 919.06 851.34 919.84 846.27 918.77 C 840.22 917.78 834.12 916.97 827.98 917.37 C 822.27 917.55 817.60 914.16 813.63 910.46 C 810.81 910.82 807.90 910.95 805.26 909.72 C 801.94 908.09 797.92 909.22 794.77 907.18 C 792.37 905.80 790.22 903.61 787.30 903.51 C 783.18 903.17 779.29 901.51 775.15 901.36 C 773.09 901.24 770.99 900.96 769.15 899.98 C 761.82 896.17 753.81 892.63 745.36 893.27 C 739.91 892.61 734.44 891.87 728.94 892.17 C 719.43 893.44 709.90 894.60 700.33 895.40 C 696.24 895.81 692.10 895.28 688.04 895.99 C 684.42 896.53 680.96 897.76 677.36 898.33 C 673.63 898.94 669.88 897.77 666.15 898.23 C 663.29 898.94 661.37 901.67 658.42 902.17 C 654.33 902.84 650.76 905.22 646.63 905.73 C 643.11 906.69 639.11 905.92 635.97 908.04 C 632.88 910.29 628.76 908.77 625.44 910.53 C 620.39 912.78 614.91 913.72 609.83 915.85 C 606.10 917.36 601.83 917.18 598.36 919.37 C 596.52 920.53 594.45 921.26 592.29 921.50 C 586.66 922.06 581.83 925.31 576.40 926.62 C 570.95 928.92 565.02 929.98 559.85 932.90 C 556.80 934.69 552.99 934.16 549.98 936.06 C 545.58 938.56 540.50 939.44 536.15 942.05 C 530.46 944.01 525.03 946.62 519.34 948.58 C 514.14 952.05 508.22 954.25 502.40 956.43 C 498.61 957.22 495.46 959.71 491.68 960.47 C 488.63 960.92 486.55 963.45 483.85 964.70 C 476.16 968.46 467.38 969.81 460.52 975.21 C 459.74 975.01 458.96 974.82 458.20 974.65 C 455.87 976.31 453.48 977.89 450.99 979.32 C 450.11 979.00 449.23 978.65 448.33 978.46 C 445.68 979.94 443.27 981.94 440.17 982.40 C 437.23 982.87 434.97 984.83 432.84 986.75 C 431.42 986.71 430.01 986.56 428.61 986.77 C 426.82 987.76 425.39 989.27 423.62 990.30 C 420.72 991.53 417.35 991.11 414.55 992.67 C 411.39 994.27 408.17 995.75 405.06 997.47 C 403.35 995.84 401.81 993.67 399.29 993.39 C 395.02 988.74 391.29 983.65 387.37 978.72 C 392.40 978.58 397.56 977.68 401.81 974.80 C 403.44 973.39 405.68 973.79 407.61 973.21 C 414.02 970.31 420.38 967.21 427.07 964.99 C 429.06 964.20 430.72 962.78 432.66 961.90 C 435.26 960.98 438.15 960.99 440.56 959.57 C 444.50 957.67 448.08 954.51 452.63 954.33 C 455.67 954.17 456.93 950.40 460.00 950.11 C 464.84 949.08 469.11 946.46 473.90 945.30 C 477.44 944.45 480.52 942.47 483.39 940.29 C 485.69 938.45 488.95 938.99 491.37 937.39 C 497.16 932.68 504.82 931.58 511.83 929.74 C 521.27 924.60 531.69 921.69 541.49 917.37 C 543.77 916.00 545.63 913.81 548.38 913.38 C 554.89 911.99 561.11 909.54 567.37 907.32 C 573.47 904.75 579.99 903.45 586.17 901.12 C 593.31 900.11 599.82 896.61 607.02 895.91 C 609.71 895.87 611.60 893.84 613.85 892.71 C 616.48 892.07 619.28 892.57 621.88 891.71 C 623.58 890.78 624.99 889.37 626.81 888.65 C 630.08 887.71 633.50 888.65 636.83 888.31 C 638.92 887.72 640.43 885.60 642.71 885.57 C 647.28 885.55 651.76 884.60 656.31 884.27 C 661.63 883.07 666.86 881.34 672.28 880.55 C 675.58 880.25 678.88 879.91 682.11 879.10 C 687.99 877.28 694.94 880.79 700.07 876.34 C 698.57 876.32 697.09 876.34 695.60 876.36 C 695.46 875.92 695.18 875.04 695.04 874.60 C 700.47 872.79 706.30 872.91 711.96 872.73 C 716.32 874.07 720.62 872.07 725.02 872.05 Z" />
</g>
<g id="#6b7c97ff">
<path fill="#6b7c97" opacity="1.00" d=" M 971.25 874.40 C 971.55 875.81 972.16 877.26 971.76 878.74 C 970.28 885.27 967.45 891.43 966.23 898.04 C 968.02 896.75 969.73 895.36 971.39 893.91 C 971.16 893.34 970.95 892.79 970.76 892.24 C 975.93 888.65 980.11 883.88 984.91 879.83 C 985.56 880.93 986.23 882.03 986.92 883.16 C 982.41 895.17 976.65 906.66 971.22 918.28 C 967.24 925.69 964.08 933.53 959.77 940.77 C 953.63 951.54 947.18 962.13 940.76 972.73 C 931.61 986.96 921.34 1000.46 910.25 1013.24 C 904.25 1019.22 898.32 1025.28 892.27 1031.20 C 877.23 1044.31 860.68 1056.52 841.40 1062.48 C 832.04 1065.44 822.64 1069.73 812.60 1068.94 C 810.49 1068.19 808.31 1067.70 806.10 1067.49 C 807.37 1066.47 808.62 1065.43 809.88 1064.41 C 803.91 1062.86 797.56 1064.26 791.71 1062.35 C 793.53 1061.96 795.37 1061.63 797.23 1061.42 C 805.32 1061.95 813.53 1062.03 821.51 1060.35 C 830.57 1058.57 839.09 1054.67 846.93 1049.87 C 857.08 1043.97 866.73 1037.19 875.72 1029.64 C 890.25 1017.70 903.02 1003.75 914.49 988.89 C 929.41 969.51 941.86 948.29 952.16 926.13 C 957.68 914.48 962.43 902.48 966.46 890.24 C 968.30 885.03 969.69 879.69 971.25 874.40 Z" />
</g>
<g id="#ccd6e3ff">
<path fill="#ccd6e3" opacity="1.00" d=" M 700.33 895.40 C 709.90 894.60 719.43 893.44 728.94 892.17 C 734.44 891.87 739.91 892.61 745.36 893.27 C 753.81 892.63 761.82 896.17 769.15 899.98 C 770.99 900.96 773.09 901.24 775.15 901.36 C 779.29 901.51 783.18 903.17 787.30 903.51 C 790.22 903.61 792.37 905.80 794.77 907.18 C 797.92 909.22 801.94 908.09 805.26 909.72 C 807.90 910.95 810.81 910.82 813.63 910.46 C 817.60 914.16 822.27 917.55 827.98 917.37 C 834.12 916.97 840.22 917.78 846.27 918.77 C 851.34 919.84 856.57 919.06 861.64 920.24 C 866.53 920.42 871.44 920.34 876.29 921.23 C 880.90 920.95 885.35 922.69 889.97 922.18 C 893.59 921.78 897.08 922.94 900.62 923.47 C 906.40 923.96 912.23 924.18 917.98 925.05 C 922.11 925.72 926.34 925.25 930.46 926.03 C 936.72 927.12 943.08 927.13 949.41 927.50 C 950.21 926.28 951.03 925.08 951.86 923.90 C 951.94 924.46 952.09 925.57 952.16 926.13 C 941.86 948.29 929.41 969.51 914.49 988.89 L 913.88 987.84 C 912.81 988.62 911.77 989.44 910.75 990.28 C 907.85 989.46 904.90 988.77 901.87 988.71 C 892.55 988.28 883.32 986.57 873.99 986.36 C 871.39 985.89 868.82 985.16 866.15 985.33 C 863.03 985.86 861.31 982.13 858.23 982.47 C 855.32 982.59 853.16 980.05 850.24 980.19 C 846.86 980.19 843.29 979.57 841.53 976.32 C 834.08 974.98 824.59 975.74 819.80 968.69 C 814.53 968.45 809.48 966.57 804.15 966.72 C 800.38 966.84 799.92 961.34 796.30 961.37 C 790.55 961.41 784.83 960.64 779.19 959.54 C 776.12 958.92 774.25 956.11 771.63 954.68 C 768.89 954.05 766.06 953.97 763.35 953.23 C 759.23 952.04 754.86 952.57 750.74 951.49 C 748.27 950.85 746.38 949.06 744.23 947.84 C 736.64 944.30 728.13 944.80 720.00 943.92 C 715.73 943.70 712.38 940.60 708.22 939.91 C 703.51 938.98 699.14 936.50 694.26 936.49 C 691.25 936.48 688.28 936.10 685.35 935.45 C 681.68 934.50 678.59 937.21 675.24 938.14 C 670.55 939.25 665.51 938.87 661.11 941.10 C 657.31 942.92 652.86 942.27 649.07 944.12 C 646.42 945.33 643.59 945.97 640.81 946.78 C 636.80 947.96 633.30 950.47 629.16 951.24 C 626.40 951.70 623.82 952.78 621.53 954.37 C 618.18 954.27 614.94 955.17 611.67 955.75 C 607.78 956.22 604.75 959.06 600.95 959.87 C 595.95 960.91 592.50 965.02 587.90 966.93 C 584.81 968.45 581.09 968.16 578.22 970.17 C 576.61 971.15 575.03 972.31 573.09 972.51 C 569.63 972.80 567.32 975.88 563.96 976.48 C 561.33 977.05 558.87 978.18 556.63 979.65 C 553.40 981.86 549.33 982.12 545.99 984.09 C 543.35 985.80 539.87 985.17 537.46 987.37 C 534.38 989.80 530.20 989.78 527.00 992.00 C 524.49 993.73 521.21 993.80 518.82 995.74 C 515.48 998.45 511.05 998.93 507.24 1000.73 C 503.43 1002.55 498.80 1002.61 495.63 1005.66 C 493.05 1008.19 488.89 1006.82 486.20 1009.20 C 482.74 1012.06 478.07 1012.21 474.17 1014.18 C 472.17 1015.34 469.77 1015.13 467.67 1015.88 C 463.35 1020.17 456.62 1019.35 451.56 1022.33 C 445.73 1024.62 439.98 1027.07 434.23 1029.53 C 431.21 1027.33 429.26 1022.67 425.18 1022.56 C 416.19 1013.16 407.47 1003.50 399.29 993.39 C 401.81 993.67 403.35 995.84 405.06 997.47 C 408.17 995.75 411.39 994.27 414.55 992.67 C 417.35 991.11 420.72 991.53 423.62 990.30 C 425.39 989.27 426.82 987.76 428.61 986.77 C 430.01 986.56 431.42 986.71 432.84 986.75 C 434.97 984.83 437.23 982.87 440.17 982.40 C 443.27 981.94 445.68 979.94 448.33 978.46 C 449.23 978.65 450.11 979.00 450.99 979.32 C 453.48 977.89 455.87 976.31 458.20 974.65 C 458.96 974.82 459.74 975.01 460.52 975.21 C 467.38 969.81 476.16 968.46 483.85 964.70 C 486.55 963.45 488.63 960.92 491.68 960.47 C 495.46 959.71 498.61 957.22 502.40 956.43 C 508.22 954.25 514.14 952.05 519.34 948.58 C 525.03 946.62 530.46 944.01 536.15 942.05 C 540.50 939.44 545.58 938.56 549.98 936.06 C 552.99 934.16 556.80 934.69 559.85 932.90 C 565.02 929.98 570.95 928.92 576.40 926.62 C 581.83 925.31 586.66 922.06 592.29 921.50 C 594.45 921.26 596.52 920.53 598.36 919.37 C 601.83 917.18 606.10 917.36 609.83 915.85 C 614.91 913.72 620.39 912.78 625.44 910.53 C 628.76 908.77 632.88 910.29 635.97 908.04 C 639.11 905.92 643.11 906.69 646.63 905.73 C 650.76 905.22 654.33 902.84 658.42 902.17 C 661.37 901.67 663.29 898.94 666.15 898.23 C 669.88 897.77 673.63 898.94 677.36 898.33 C 680.96 897.76 684.42 896.53 688.04 895.99 C 692.10 895.28 696.24 895.81 700.33 895.40 Z" />
</g>
<g id="#d9e0ecff">
<path fill="#d9e0ec" opacity="1.00" d=" M 675.24 938.14 C 678.59 937.21 681.68 934.50 685.35 935.45 C 688.28 936.10 691.25 936.48 694.26 936.49 C 699.14 936.50 703.51 938.98 708.22 939.91 C 712.38 940.60 715.73 943.70 720.00 943.92 C 728.13 944.80 736.64 944.30 744.23 947.84 C 746.38 949.06 748.27 950.85 750.74 951.49 C 754.86 952.57 759.23 952.04 763.35 953.23 C 766.06 953.97 768.89 954.05 771.63 954.68 C 774.25 956.11 776.12 958.92 779.19 959.54 C 784.83 960.64 790.55 961.41 796.30 961.37 C 799.92 961.34 800.38 966.84 804.15 966.72 C 809.48 966.57 814.53 968.45 819.80 968.69 C 824.59 975.74 834.08 974.98 841.53 976.32 C 843.29 979.57 846.86 980.19 850.24 980.19 C 853.16 980.05 855.32 982.59 858.23 982.47 C 861.31 982.13 863.03 985.86 866.15 985.33 C 868.82 985.16 871.39 985.89 873.99 986.36 C 883.32 986.57 892.55 988.28 901.87 988.71 C 904.90 988.77 907.85 989.46 910.75 990.28 C 911.77 989.44 912.81 988.62 913.88 987.84 L 914.49 988.89 C 903.02 1003.75 890.25 1017.70 875.72 1029.64 C 873.23 1028.18 871.46 1031.23 869.53 1032.34 C 862.45 1031.13 854.95 1031.77 848.20 1028.94 C 841.68 1027.02 834.76 1027.96 828.16 1026.56 C 824.97 1025.83 821.71 1026.77 818.53 1026.25 C 813.07 1024.52 807.25 1025.34 801.66 1024.36 C 799.69 1022.88 798.69 1020.50 797.33 1018.52 C 789.14 1018.94 781.16 1016.53 772.97 1016.85 C 770.17 1017.00 767.29 1016.69 764.95 1015.01 C 757.72 1010.28 748.76 1014.01 740.98 1011.22 C 737.60 1010.70 735.64 1007.58 732.65 1006.34 C 726.59 1005.36 720.41 1005.60 714.37 1004.56 C 713.50 1004.78 712.66 1005.04 711.84 1005.36 C 707.43 1002.91 703.50 999.14 698.29 998.51 C 690.85 997.70 683.45 996.40 675.97 996.26 C 670.68 996.63 665.74 994.42 660.65 993.39 C 649.29 991.08 637.63 989.48 626.04 990.81 C 619.07 991.92 612.05 990.62 605.09 991.03 C 602.51 992.28 600.15 994.05 597.30 994.63 C 593.21 995.31 590.43 998.70 586.68 1000.15 C 579.71 1002.46 573.27 1006.15 567.17 1010.20 C 564.64 1012.05 561.20 1010.88 558.59 1012.54 C 555.52 1014.33 552.37 1016.01 548.94 1017.00 C 544.56 1018.22 541.17 1022.27 536.30 1021.60 C 532.19 1025.79 526.09 1026.26 521.27 1029.27 C 516.54 1031.95 511.43 1033.87 506.79 1036.72 C 504.35 1038.39 501.32 1036.93 498.65 1037.71 C 495.96 1038.54 493.96 1040.62 491.88 1042.40 C 491.27 1042.15 490.66 1041.91 490.07 1041.69 C 486.76 1043.72 483.23 1045.61 480.75 1048.68 C 479.54 1050.62 477.13 1050.68 475.19 1051.39 C 472.92 1052.07 471.59 1054.21 469.99 1055.81 C 467.50 1054.76 465.03 1052.66 462.19 1053.69 C 448.22 1045.50 436.13 1034.40 425.18 1022.56 C 429.26 1022.67 431.21 1027.33 434.23 1029.53 C 439.98 1027.07 445.73 1024.62 451.56 1022.33 C 456.62 1019.35 463.35 1020.17 467.67 1015.88 C 469.77 1015.13 472.17 1015.34 474.17 1014.18 C 478.07 1012.21 482.74 1012.06 486.20 1009.20 C 488.89 1006.82 493.05 1008.19 495.63 1005.66 C 498.80 1002.61 503.43 1002.55 507.24 1000.73 C 511.05 998.93 515.48 998.45 518.82 995.74 C 521.21 993.80 524.49 993.73 527.00 992.00 C 530.20 989.78 534.38 989.80 537.46 987.37 C 539.87 985.17 543.35 985.80 545.99 984.09 C 549.33 982.12 553.40 981.86 556.63 979.65 C 558.87 978.18 561.33 977.05 563.96 976.48 C 567.32 975.88 569.63 972.80 573.09 972.51 C 575.03 972.31 576.61 971.15 578.22 970.17 C 581.09 968.16 584.81 968.45 587.90 966.93 C 592.50 965.02 595.95 960.91 600.95 959.87 C 604.75 959.06 607.78 956.22 611.67 955.75 C 614.94 955.17 618.18 954.27 621.53 954.37 C 623.82 952.78 626.40 951.70 629.16 951.24 C 633.30 950.47 636.80 947.96 640.81 946.78 C 643.59 945.97 646.42 945.33 649.07 944.12 C 652.86 942.27 657.31 942.92 661.11 941.10 C 665.51 938.87 670.55 939.25 675.24 938.14 Z" />
</g>
<g id="#e0e7f1ff">
<path fill="#e0e7f1" opacity="1.00" d=" M 605.09 991.03 C 612.05 990.62 619.07 991.92 626.04 990.81 C 637.63 989.48 649.29 991.08 660.65 993.39 C 665.74 994.42 670.68 996.63 675.97 996.26 C 683.45 996.40 690.85 997.70 698.29 998.51 C 703.50 999.14 707.43 1002.91 711.84 1005.36 C 712.66 1005.04 713.50 1004.78 714.37 1004.56 C 720.41 1005.60 726.59 1005.36 732.65 1006.34 C 735.64 1007.58 737.60 1010.70 740.98 1011.22 C 748.76 1014.01 757.72 1010.28 764.95 1015.01 C 767.29 1016.69 770.17 1017.00 772.97 1016.85 C 781.16 1016.53 789.14 1018.94 797.33 1018.52 C 798.69 1020.50 799.69 1022.88 801.66 1024.36 C 807.25 1025.34 813.07 1024.52 818.53 1026.25 C 821.71 1026.77 824.97 1025.83 828.16 1026.56 C 834.76 1027.96 841.68 1027.02 848.20 1028.94 C 854.95 1031.77 862.45 1031.13 869.53 1032.34 C 871.46 1031.23 873.23 1028.18 875.72 1029.64 C 866.73 1037.19 857.08 1043.97 846.93 1049.87 C 839.09 1054.67 830.57 1058.57 821.51 1060.35 C 813.53 1062.03 805.32 1061.95 797.23 1061.42 C 786.37 1060.41 775.58 1058.71 764.90 1056.55 C 742.33 1050.27 719.36 1045.28 696.12 1042.25 C 695.25 1042.14 694.38 1042.06 693.52 1042.00 C 686.14 1041.33 678.76 1040.56 671.34 1040.36 C 658.59 1039.27 645.74 1040.46 633.06 1041.92 C 590.24 1048.71 548.76 1064.71 504.98 1064.78 C 490.05 1065.19 474.96 1061.49 462.19 1053.69 C 465.03 1052.66 467.50 1054.76 469.99 1055.81 C 471.59 1054.21 472.92 1052.07 475.19 1051.39 C 477.13 1050.68 479.54 1050.62 480.75 1048.68 C 483.23 1045.61 486.76 1043.72 490.07 1041.69 C 490.66 1041.91 491.27 1042.15 491.88 1042.40 C 493.96 1040.62 495.96 1038.54 498.65 1037.71 C 501.32 1036.93 504.35 1038.39 506.79 1036.72 C 511.43 1033.87 516.54 1031.95 521.27 1029.27 C 526.09 1026.26 532.19 1025.79 536.30 1021.60 C 541.17 1022.27 544.56 1018.22 548.94 1017.00 C 552.37 1016.01 555.52 1014.33 558.59 1012.54 C 561.20 1010.88 564.64 1012.05 567.17 1010.20 C 573.27 1006.15 579.71 1002.46 586.68 1000.15 C 590.43 998.70 593.21 995.31 597.30 994.63 C 600.15 994.05 602.51 992.28 605.09 991.03 Z" />
</g>
<g id="#18191923">
<path fill="#181919" opacity="0.14" d=" M 972.17 993.13 C 973.57 992.65 974.03 993.12 973.55 994.53 C 972.12 994.99 971.66 994.53 972.17 993.13 Z" />
</g>
<g id="#c2c7ceff">
<path fill="#c2c7ce" opacity="1.00" d=" M 413.28 1034.68 C 412.24 1033.86 412.46 1032.53 412.44 1031.40 C 416.63 1036.29 420.91 1041.10 425.41 1045.71 C 430.26 1053.20 437.85 1058.11 445.19 1062.87 C 458.15 1071.04 472.73 1076.81 487.97 1078.81 C 507.75 1081.53 527.84 1078.62 547.04 1073.70 C 568.34 1068.53 588.94 1060.80 610.36 1056.09 C 612.09 1057.03 614.03 1057.39 615.98 1056.86 C 626.21 1054.76 636.59 1053.51 646.94 1052.30 C 649.25 1051.77 650.47 1054.04 651.72 1055.52 C 651.09 1056.59 650.47 1057.67 649.85 1058.77 C 637.09 1059.98 624.45 1062.34 612.02 1065.47 C 603.00 1067.94 593.81 1070.21 585.53 1074.69 C 564.31 1085.21 540.91 1093.02 516.94 1091.94 C 506.72 1092.28 496.48 1091.63 486.51 1089.25 C 475.53 1086.79 464.45 1083.89 454.57 1078.34 C 445.87 1073.63 438.01 1067.54 430.54 1061.10 C 431.36 1059.68 432.18 1058.28 433.01 1056.89 C 426.15 1049.74 420.07 1041.89 413.28 1034.68 Z" />
</g>
<g id="#7a89a2ff">
<path fill="#7a89a2" opacity="1.00" d=" M 693.99 1043.85 C 694.52 1043.45 695.59 1042.65 696.12 1042.25 C 719.36 1045.28 742.33 1050.27 764.90 1056.55 C 775.58 1058.71 786.37 1060.41 797.23 1061.42 C 795.37 1061.63 793.53 1061.96 791.71 1062.35 C 797.56 1064.26 803.91 1062.86 809.88 1064.41 C 808.62 1065.43 807.37 1066.47 806.10 1067.49 C 808.31 1067.70 810.49 1068.19 812.60 1068.94 C 798.79 1069.62 784.95 1068.13 771.41 1065.47 C 752.82 1061.88 735.02 1055.34 716.82 1050.28 C 717.59 1050.13 719.13 1049.85 719.90 1049.71 C 717.43 1048.18 714.79 1046.86 711.90 1046.48 C 705.93 1045.58 699.99 1044.46 693.99 1043.85 Z" />
</g>
<g id="#757d8eff">
<path fill="#757d8e" opacity="1.00" d=" M 425.41 1045.71 C 429.84 1047.66 433.43 1051.00 437.66 1053.30 C 453.53 1062.86 471.52 1068.81 489.94 1070.81 C 512.22 1073.67 534.65 1070.21 556.56 1066.21 C 562.60 1067.50 568.23 1063.92 574.24 1063.95 C 573.07 1064.59 571.88 1065.22 570.59 1065.59 C 562.12 1067.82 553.80 1070.61 545.21 1072.35 C 545.67 1072.69 546.59 1073.36 547.04 1073.70 C 527.84 1078.62 507.75 1081.53 487.97 1078.81 C 472.73 1076.81 458.15 1071.04 445.19 1062.87 C 437.85 1058.11 430.26 1053.20 425.41 1045.71 Z" />
</g>
<g id="#cfd4dbff">
<path fill="#cfd4db" opacity="1.00" d=" M 610.36 1056.09 C 634.82 1050.95 659.96 1047.78 684.97 1049.76 C 699.26 1051.99 713.41 1055.28 727.20 1059.69 C 738.73 1063.56 749.99 1068.28 761.82 1071.26 C 780.88 1076.10 800.68 1079.05 820.37 1077.20 C 820.23 1078.96 818.53 1079.73 817.38 1080.79 C 818.27 1083.94 818.08 1087.23 818.21 1090.47 C 812.16 1091.03 806.09 1091.32 800.03 1091.27 C 795.95 1091.21 791.74 1091.63 787.84 1090.18 C 765.93 1082.51 744.73 1072.84 722.39 1066.43 C 714.68 1063.97 707.02 1061.27 699.00 1060.02 C 682.76 1057.38 666.20 1057.16 649.85 1058.77 C 650.47 1057.67 651.09 1056.59 651.72 1055.52 C 650.47 1054.04 649.25 1051.77 646.94 1052.30 C 636.59 1053.51 626.21 1054.76 615.98 1056.86 C 614.03 1057.39 612.09 1057.03 610.36 1056.09 Z" />
</g>
<g id="#d3d9e0ff">
<path fill="#d3d9e0" opacity="1.00" d=" M 848.65 1070.71 C 856.89 1068.06 863.98 1062.88 871.58 1058.88 C 870.45 1062.81 870.51 1066.94 870.62 1071.00 C 870.88 1071.47 871.42 1072.41 871.69 1072.88 C 855.93 1083.65 837.04 1088.73 818.21 1090.47 C 818.08 1087.23 818.27 1083.94 817.38 1080.79 C 818.53 1079.73 820.23 1078.96 820.37 1077.20 C 829.30 1076.23 837.94 1073.60 846.24 1070.23 C 846.84 1070.35 848.05 1070.59 848.65 1070.71 Z" />
</g>
</svg>
