<?xml version="1.0" encoding="UTF-8" ?>
<!DOCTYPE svg PUBLIC "-//W3C//DTD SVG 1.1//EN" "http://www.w3.org/Graphics/SVG/1.1/DTD/svg11.dtd">
<svg width="1276pt" height="1276pt" viewBox="0 0 1276 1276" version="1.1" xmlns="http://www.w3.org/2000/svg">
<g id="#ffffffff">
<path fill="#ffffff" opacity="1.00" d=" M 788.64 173.82 C 799.36 170.99 810.33 169.35 821.36 168.33 C 821.57 168.89 821.98 170.02 822.19 170.59 C 822.09 178.79 824.03 186.98 822.61 195.14 C 822.48 199.07 822.67 203.06 821.78 206.91 C 821.68 210.97 820.74 214.93 820.20 218.94 C 813.63 254.41 797.17 287.66 774.26 315.40 C 758.58 334.89 738.67 350.86 716.51 362.41 C 692.18 375.43 664.44 383.08 636.74 381.09 C 631.43 345.61 641.92 309.71 658.29 278.42 C 670.40 255.37 686.61 234.36 706.50 217.51 C 730.36 197.35 758.60 182.35 788.64 173.82 Z" />
<path fill="#ffffff" opacity="1.00" d=" M 737.64 402.32 C 757.29 396.42 777.44 391.39 798.03 390.65 C 809.25 389.79 820.50 390.87 831.68 391.96 C 869.48 395.85 906.84 407.95 938.20 429.73 C 953.64 440.37 967.60 453.16 979.34 467.79 C 983.13 472.54 987.06 477.27 990.03 482.60 C 971.07 494.17 954.70 509.46 940.02 526.02 C 914.34 555.02 896.68 591.53 892.01 630.12 C 889.86 642.28 890.23 654.68 890.33 666.98 C 890.82 669.88 890.36 672.88 891.11 675.74 C 891.38 678.78 891.43 681.87 892.04 684.88 C 892.56 689.27 893.20 693.67 894.15 698.00 C 901.96 740.34 925.15 779.29 957.33 807.68 C 974.24 822.29 992.90 835.29 1013.74 843.62 C 1000.93 884.50 982.31 923.43 959.79 959.83 C 949.60 976.42 938.09 992.14 926.69 1007.91 C 916.56 1021.83 905.53 1035.11 893.52 1047.45 C 880.00 1060.35 865.38 1072.74 847.89 1079.89 C 827.84 1088.16 805.40 1089.25 784.16 1085.90 C 775.43 1084.65 766.95 1082.14 758.73 1078.99 C 738.55 1072.11 719.63 1061.80 698.90 1056.50 C 668.04 1048.96 635.20 1049.91 604.83 1059.27 C 585.90 1065.31 568.01 1074.05 549.42 1080.98 C 535.73 1085.70 521.37 1088.38 506.93 1089.39 C 489.40 1089.47 471.92 1084.88 456.61 1076.35 C 435.57 1064.67 417.78 1047.94 402.57 1029.47 C 386.16 1010.21 371.84 989.32 357.74 968.36 C 328.81 925.84 307.01 878.73 291.09 829.91 C 282.00 802.18 274.85 773.79 269.96 745.02 C 269.35 740.28 268.42 735.60 268.04 730.84 C 262.40 689.88 261.37 648.02 268.05 607.11 C 273.60 570.08 286.33 534.03 305.92 502.09 C 316.36 484.68 329.12 468.63 343.75 454.57 C 368.20 431.76 397.52 414.08 429.18 403.26 C 459.68 393.52 492.53 389.89 524.14 395.89 C 545.01 399.72 564.60 408.20 584.39 415.57 C 601.67 421.90 618.44 430.62 636.97 432.64 C 650.55 434.49 663.93 430.10 676.57 425.63 C 696.92 417.84 717.25 409.98 737.64 402.32 Z" />
</g>
</svg>
