<?xml version="1.0" encoding="UTF-8" ?>
<!DOCTYPE svg PUBLIC "-//W3C//DTD SVG 1.1//EN" "http://www.w3.org/Graphics/SVG/1.1/DTD/svg11.dtd">
<svg width="1276pt" height="1276pt" viewBox="0 0 1276 1276" version="1.1" xmlns="http://www.w3.org/2000/svg">
<g id="#ffffffff">
<path fill="#ffffff" opacity="1.00" d=" M 187.90 283.47 C 204.17 283.31 220.45 283.50 236.73 283.38 C 236.72 300.16 236.70 316.94 236.74 333.73 C 220.45 333.64 204.17 333.85 187.89 333.63 C 187.95 316.91 187.92 300.19 187.90 283.47 Z" />
<path fill="#ffffff" opacity="1.00" d=" M 298.87 283.40 C 319.36 283.39 339.85 283.42 360.35 283.39 C 360.31 330.47 360.28 377.56 360.36 424.64 C 326.76 424.70 293.17 424.68 259.58 424.66 C 269.89 411.48 279.82 397.99 290.14 384.82 C 297.35 384.39 304.63 384.80 311.87 384.63 C 311.96 368.78 311.41 352.89 312.16 337.06 C 288.79 366.11 265.83 395.50 242.59 424.67 C 223.90 424.67 205.22 424.68 186.53 424.67 C 224.04 377.63 261.46 330.51 298.87 283.40 Z" />
<path fill="#ffffff" opacity="1.00" d=" M 371.48 282.52 C 419.66 282.54 467.83 282.49 516.01 282.55 C 524.85 282.71 531.28 291.57 531.16 299.96 C 531.15 336.66 531.19 373.36 531.14 410.06 C 531.04 416.40 526.88 422.48 520.90 424.66 C 518.09 425.81 515.00 425.54 512.04 425.57 C 465.19 425.54 418.33 425.59 371.48 425.55 C 371.55 412.06 371.50 398.58 371.50 385.09 C 408.78 385.00 446.05 384.78 483.33 384.91 C 483.34 365.44 483.30 345.98 483.35 326.51 C 462.02 326.47 440.69 326.60 419.37 326.45 C 419.29 342.82 419.31 359.19 419.36 375.57 C 403.39 375.57 387.42 375.62 371.46 375.54 C 371.56 344.53 371.52 313.53 371.48 282.52 Z" />
<path fill="#ffffff" opacity="1.00" d=" M 543.46 283.43 C 559.13 283.38 574.81 283.39 590.49 283.42 C 590.35 312.19 590.52 340.95 590.40 369.72 C 614.18 341.03 637.65 312.06 661.43 283.36 C 679.95 283.52 698.49 283.25 717.02 283.49 C 680.33 330.40 644.03 377.63 607.50 424.67 C 586.15 424.64 564.80 424.75 543.45 424.61 C 543.56 377.55 543.55 330.49 543.46 283.43 Z" />
<path fill="#ffffff" opacity="1.00" d=" M 561.20 563.33 C 649.74 474.52 738.19 385.62 826.89 296.98 C 826.60 387.27 827.00 477.56 826.69 567.84 C 827.03 567.64 827.69 567.23 828.02 567.02 C 917.76 476.92 1007.59 386.86 1097.32 296.73 C 1097.30 316.98 1097.44 337.23 1097.25 357.47 C 1096.67 381.98 1097.16 406.51 1097.00 431.02 C 1097.08 513.55 1096.85 596.08 1097.11 678.60 C 1095.03 673.28 1095.84 667.54 1095.78 661.98 C 1095.79 565.67 1095.78 469.36 1095.80 373.05 C 1096.13 365.49 1092.25 356.64 1084.40 354.56 C 1080.55 353.41 1075.71 352.33 1072.62 355.69 C 1050.53 378.10 1028.18 400.26 1006.01 422.60 C 996.26 432.52 986.31 442.24 976.61 452.21 C 959.94 468.85 943.26 485.48 926.72 502.24 C 914.08 514.87 901.38 527.44 888.89 540.21 C 877.14 551.85 865.41 563.53 853.84 575.35 C 844.06 584.98 834.38 594.72 824.72 604.48 C 823.09 601.20 821.42 597.77 821.52 594.01 C 821.57 524.27 821.56 454.52 821.53 384.77 C 821.23 377.31 820.95 368.46 814.81 363.22 C 811.54 360.13 806.87 360.36 802.71 360.32 C 802.70 358.75 802.70 357.18 802.71 355.62 C 779.64 378.75 756.52 401.83 733.52 425.02 C 723.86 434.77 714.07 444.40 704.49 454.22 C 688.20 470.53 671.85 486.78 655.68 503.21 C 642.03 516.85 628.32 530.44 614.81 544.22 C 601.12 557.82 587.44 571.45 573.92 585.22 C 557.17 601.79 540.61 618.54 523.96 635.19 C 513.10 646.13 502.17 656.99 491.33 667.94 C 479.02 680.28 466.69 692.59 454.42 704.97 C 445.78 713.69 437.03 722.30 428.46 731.09 C 418.93 740.53 409.50 750.07 400.02 759.57 C 391.91 767.80 383.64 775.89 375.58 784.18 C 366.58 793.12 357.61 802.09 348.71 811.13 C 340.37 819.44 332.02 827.75 323.77 836.15 C 311.11 848.82 298.38 861.44 285.83 874.23 C 268.92 890.99 252.16 907.90 235.35 924.76 C 234.14 925.97 232.91 927.15 231.69 928.38 C 235.95 928.40 240.20 928.41 244.46 928.53 L 245.38 928.58 C 243.11 929.09 240.84 929.62 238.53 929.93 C 236.04 930.12 233.55 930.16 231.06 930.24 C 229.48 934.70 231.40 939.36 233.52 943.29 C 237.14 948.54 243.92 950.68 250.06 950.79 C 296.36 950.79 342.67 950.78 388.98 950.80 C 408.14 950.72 427.32 951.04 446.48 950.45 C 445.83 951.07 445.19 951.70 444.56 952.35 C 356.04 952.33 267.52 952.30 179.00 952.55 C 177.04 952.54 175.09 952.52 173.14 952.41 C 196.89 929.12 220.15 905.32 243.70 881.83 C 349.47 775.59 455.42 669.55 561.20 563.33 Z" />
<path fill="#ffffff" opacity="1.00" d=" M 1095.71 697.99 C 1095.68 695.72 1096.48 693.57 1097.14 691.45 C 1096.81 722.96 1097.09 754.49 1097.00 786.00 C 1097.00 841.39 1096.99 896.78 1097.01 952.17 C 1066.01 952.15 1035.02 952.17 1004.02 952.16 C 980.12 952.34 956.19 951.80 932.30 952.45 C 923.40 952.64 914.51 952.51 905.62 952.50 C 905.70 896.66 905.63 840.82 905.65 784.98 C 905.57 777.17 905.83 769.37 905.91 761.57 C 906.98 761.67 908.28 762.22 909.20 761.35 C 912.53 758.64 915.20 755.11 919.19 753.26 C 922.50 758.11 921.51 764.41 922.18 769.97 C 922.27 812.66 922.15 855.35 922.23 898.04 C 922.05 907.56 922.75 917.12 921.43 926.60 C 926.44 930.72 925.34 937.98 929.09 942.87 C 932.82 947.74 938.71 951.19 944.98 950.78 C 995.22 950.73 1045.45 950.88 1095.69 950.73 C 1095.98 920.83 1095.68 890.92 1095.79 861.02 C 1095.68 806.67 1095.95 752.33 1095.71 697.99 Z" />
<path fill="#ffffff" opacity="1.00" d=" M 702.35 696.57 C 705.16 696.36 705.90 699.78 705.86 701.97 C 706.01 771.96 705.82 841.97 705.95 911.96 C 706.14 919.37 706.92 927.86 713.37 932.67 C 718.81 937.28 726.24 935.63 732.58 934.39 C 717.55 949.33 702.78 964.55 687.59 979.31 C 687.53 918.21 687.58 857.10 687.56 796.00 C 687.63 766.98 687.38 737.95 687.79 708.94 C 693.31 705.62 696.50 699.35 702.35 696.57 Z" />
</g>
<g id="#f5f5f5ff">
<path fill="#f5f5f5" opacity="1.00" d=" M 1072.62 355.69 C 1075.71 352.33 1080.55 353.41 1084.40 354.56 C 1092.25 356.64 1096.13 365.49 1095.80 373.05 C 1095.78 469.36 1095.79 565.67 1095.78 661.98 C 1095.84 667.54 1095.03 673.28 1097.11 678.60 C 1097.12 682.88 1097.23 687.17 1097.14 691.45 C 1096.48 693.57 1095.68 695.72 1095.71 697.99 C 1095.95 752.33 1095.68 806.67 1095.79 861.02 C 1095.68 890.92 1095.98 920.83 1095.69 950.73 C 1045.45 950.88 995.22 950.73 944.98 950.78 C 938.71 951.19 932.82 947.74 929.09 942.87 C 925.34 937.98 926.44 930.72 921.43 926.60 C 922.75 917.12 922.05 907.56 922.23 898.04 C 922.15 855.35 922.27 812.66 922.18 769.97 C 921.51 764.41 922.50 758.11 919.19 753.26 C 915.20 755.11 912.53 758.64 909.20 761.35 C 908.28 762.22 906.98 761.67 905.91 761.57 L 904.91 761.38 C 847.61 819.19 790.01 876.71 732.58 934.39 C 726.24 935.63 718.81 937.28 713.37 932.67 C 706.92 927.86 706.14 919.37 705.95 911.96 C 705.82 841.97 706.01 771.96 705.86 701.97 C 705.90 699.78 705.16 696.36 702.35 696.57 C 696.50 699.35 693.31 705.62 687.79 708.94 C 687.46 709.11 686.80 709.44 686.47 709.61 C 606.59 790.00 526.47 870.16 446.48 950.45 C 427.32 951.04 408.14 950.72 388.98 950.80 C 342.67 950.78 296.36 950.79 250.06 950.79 C 243.92 950.68 237.14 948.54 233.52 943.29 C 231.40 939.36 229.48 934.70 231.06 930.24 C 233.55 930.16 236.04 930.12 238.53 929.93 C 239.24 933.78 239.37 938.57 243.05 940.93 C 248.64 944.54 255.55 945.13 262.03 945.42 C 317.36 945.41 372.70 945.41 428.03 945.42 C 436.92 945.12 446.53 943.51 453.30 937.25 C 458.93 932.93 463.32 927.33 468.55 922.59 C 540.81 849.52 613.79 777.11 686.10 704.07 C 690.55 699.19 695.47 694.80 700.16 690.16 C 701.73 688.72 703.33 687.12 705.42 686.46 C 707.04 686.37 708.62 686.88 710.20 687.20 C 710.81 684.41 711.38 681.61 711.74 678.79 L 711.78 679.59 C 711.78 706.82 711.77 734.06 711.79 761.29 C 711.85 786.43 711.71 811.57 711.84 836.71 C 711.80 864.74 711.72 892.76 711.88 920.78 C 712.68 920.06 713.46 919.32 714.24 918.58 C 713.49 926.37 723.05 930.98 729.45 927.53 C 737.84 923.75 743.74 916.45 750.27 910.25 C 757.97 902.32 765.97 894.68 773.55 886.63 C 800.58 860.31 826.78 833.18 853.37 806.41 C 869.30 790.67 884.99 774.69 900.87 758.90 C 907.29 752.65 913.30 745.95 920.09 740.09 C 922.41 737.82 925.65 737.24 928.72 736.68 C 929.36 746.76 929.11 756.88 929.15 766.98 C 929.15 813.98 929.11 860.98 929.10 907.99 C 929.34 914.79 928.43 921.68 929.74 928.42 C 932.25 928.44 934.78 928.54 937.30 928.52 C 935.26 929.21 933.26 929.99 931.27 930.77 C 931.83 937.02 936.83 941.79 941.98 944.77 C 948.05 947.05 954.67 946.29 961.01 946.39 C 1004.47 946.39 1047.93 946.32 1091.39 946.43 C 1091.30 760.96 1091.36 575.49 1091.36 390.03 C 1091.84 381.59 1090.72 373.02 1087.50 365.19 C 1084.69 360.64 1078.74 358.71 1073.74 360.53 C 1073.40 359.66 1073.08 358.79 1072.78 357.92 C 1072.74 357.36 1072.66 356.25 1072.62 355.69 Z" />
</g>
<g id="#61beefff">
<path fill="#61beef" opacity="1.00" d=" M 733.52 425.02 C 756.52 401.83 779.64 378.75 802.71 355.62 C 802.70 357.18 802.70 358.75 802.71 360.32 C 802.70 363.02 802.70 365.73 802.73 368.45 C 802.73 370.02 802.76 371.61 802.78 373.20 C 802.77 374.82 802.80 376.47 802.81 378.10 C 802.78 381.91 802.74 385.72 802.75 389.53 C 802.65 412.45 802.85 435.39 802.53 458.31 L 802.19 459.71 C 801.30 448.58 802.10 437.38 800.59 426.29 C 786.72 425.64 772.84 426.31 758.97 425.95 C 750.48 425.73 741.86 427.06 733.52 425.02 Z" />
<path fill="#61beef" opacity="1.00" d=" M 1072.62 355.69 C 1072.66 356.25 1072.74 357.36 1072.78 357.92 C 1072.79 361.73 1072.73 365.54 1072.80 369.35 C 1072.81 371.96 1072.84 374.56 1072.85 377.17 C 1072.83 381.46 1072.81 385.74 1072.83 390.03 C 1072.77 408.14 1072.80 426.25 1072.73 444.36 C 1071.01 438.46 1070.87 432.31 1070.63 426.22 C 1049.37 425.52 1028.08 426.45 1006.82 425.88 C 1006.54 424.78 1006.26 423.68 1006.01 422.60 C 1028.18 400.26 1050.53 378.10 1072.62 355.69 Z" />
</g>
<g id="#dfdfdfff">
<path fill="#dfdfdf" opacity="1.00" d=" M 1072.78 357.92 C 1073.08 358.79 1073.40 359.66 1073.74 360.53 C 1078.74 358.71 1084.69 360.64 1087.50 365.19 C 1090.72 373.02 1091.84 381.59 1091.36 390.03 C 1091.36 575.49 1091.30 760.96 1091.39 946.43 C 1047.93 946.32 1004.47 946.39 961.01 946.39 C 954.67 946.29 948.05 947.05 941.98 944.77 C 936.83 941.79 931.83 937.02 931.27 930.77 C 933.26 929.99 935.26 929.21 937.30 928.52 C 937.90 928.50 939.08 928.47 939.68 928.46 C 938.24 930.09 937.62 932.77 939.64 934.27 C 943.44 937.34 947.76 940.87 952.97 940.51 C 997.15 940.49 1041.33 940.61 1085.51 940.45 C 1085.34 755.98 1085.48 571.50 1085.44 387.02 C 1085.31 380.98 1083.07 375.30 1080.98 369.72 C 1078.25 369.57 1075.52 369.45 1072.80 369.35 C 1072.73 365.54 1072.79 361.73 1072.78 357.92 Z" />
<path fill="#dfdfdf" opacity="1.00" d=" M 683.68 701.71 C 692.01 692.68 700.17 682.76 711.68 677.66 L 711.74 678.79 C 711.38 681.61 710.81 684.41 710.20 687.20 C 708.62 686.88 707.04 686.37 705.42 686.46 C 703.33 687.12 701.73 688.72 700.16 690.16 C 695.47 694.80 690.55 699.19 686.10 704.07 C 613.79 777.11 540.81 849.52 468.55 922.59 C 463.32 927.33 458.93 932.93 453.30 937.25 C 446.53 943.51 436.92 945.12 428.03 945.42 C 372.70 945.41 317.36 945.41 262.03 945.42 C 255.55 945.13 248.64 944.54 243.05 940.93 C 239.37 938.57 239.24 933.78 238.53 929.93 C 240.84 929.62 243.11 929.09 245.38 928.58 C 246.50 928.64 247.62 928.72 248.74 928.83 C 248.57 929.07 248.23 929.54 248.05 929.78 C 246.57 929.98 245.08 930.18 243.59 930.37 C 243.92 932.67 244.08 935.27 245.93 936.96 C 249.84 940.89 255.69 941.77 261.00 941.72 C 317.33 941.77 373.65 941.75 429.98 941.76 C 440.50 942.35 449.77 936.04 456.89 928.91 C 532.48 853.17 608.02 777.39 683.68 701.71 Z" />
</g>
<g id="#27272762">
<path fill="#272727" opacity="0.38" d=" M 1097.25 357.47 C 1098.03 360.59 1097.85 363.82 1097.83 367.00 C 1097.85 467.02 1097.83 567.04 1097.85 667.06 C 1097.98 672.71 1097.37 678.36 1097.96 684.00 C 1097.68 688.31 1097.40 692.62 1097.83 696.95 C 1097.88 781.65 1097.79 866.36 1097.87 951.07 C 1098.14 952.73 1096.32 953.27 1095.03 953.02 C 1042.35 952.98 989.66 952.99 936.97 953.02 C 935.39 952.93 933.83 952.74 932.30 952.45 C 956.19 951.80 980.12 952.34 1004.02 952.16 C 1035.02 952.17 1066.01 952.15 1097.01 952.17 C 1096.99 896.78 1097.00 841.39 1097.00 786.00 C 1097.09 754.49 1096.81 722.96 1097.14 691.45 C 1097.23 687.17 1097.12 682.88 1097.11 678.60 C 1096.85 596.08 1097.08 513.55 1097.00 431.02 C 1097.16 406.51 1096.67 381.98 1097.25 357.47 Z" />
</g>
<g id="#e2e2e2ff">
<path fill="#e2e2e2" opacity="1.00" d=" M 802.71 360.32 C 806.87 360.36 811.54 360.13 814.81 363.22 C 820.95 368.46 821.23 377.31 821.53 384.77 C 821.56 454.52 821.57 524.27 821.52 594.01 C 821.42 597.77 823.09 601.20 824.72 604.48 C 822.13 607.16 819.43 609.73 816.81 612.38 C 815.63 607.00 815.41 601.48 815.58 596.00 C 815.61 529.67 815.59 463.33 815.59 397.00 C 815.48 389.20 816.15 381.29 814.18 373.65 C 813.69 373.77 813.22 373.90 812.76 374.03 C 811.96 372.29 812.26 369.47 809.98 368.95 C 807.63 368.24 805.14 368.51 802.73 368.45 C 802.70 365.73 802.70 363.02 802.71 360.32 Z" />
</g>
<g id="#bdbdbdff">
<path fill="#bdbdbd" opacity="1.00" d=" M 802.73 368.45 C 805.14 368.51 807.63 368.24 809.98 368.95 C 812.26 369.47 811.96 372.29 812.76 374.03 C 813.22 373.90 813.69 373.77 814.18 373.65 C 816.15 381.29 815.48 389.20 815.59 397.00 C 815.59 463.33 815.61 529.67 815.58 596.00 C 815.41 601.48 815.63 607.00 816.81 612.38 C 815.46 613.72 814.12 615.07 812.78 616.42 C 811.90 598.28 812.47 580.10 812.31 561.94 C 812.32 509.28 812.31 456.62 812.33 403.97 C 812.30 395.81 812.49 387.46 810.47 379.51 C 809.61 375.82 806.42 373.58 802.78 373.20 C 802.76 371.61 802.73 370.02 802.73 368.45 Z" />
</g>
<g id="#b1b1b1ff">
<path fill="#b1b1b1" opacity="1.00" d=" M 1072.80 369.35 C 1075.52 369.45 1078.25 369.57 1080.98 369.72 C 1083.07 375.30 1085.31 380.98 1085.44 387.02 C 1085.48 571.50 1085.34 755.98 1085.51 940.45 C 1041.33 940.61 997.15 940.49 952.97 940.51 C 947.76 940.87 943.44 937.34 939.64 934.27 C 937.62 932.77 938.24 930.09 939.68 928.46 C 941.02 928.44 942.38 928.44 943.75 928.46 C 945.49 934.48 952.83 934.91 958.03 935.47 C 998.83 935.53 1039.63 935.50 1080.43 935.49 C 1080.38 758.01 1080.43 580.53 1080.41 403.05 C 1080.37 395.78 1080.92 388.29 1078.70 381.25 C 1077.89 378.65 1075.41 377.34 1072.85 377.17 C 1072.84 374.56 1072.81 371.96 1072.80 369.35 Z" />
</g>
<g id="#a1a1a1ff">
<path fill="#a1a1a1" opacity="1.00" d=" M 802.78 373.20 C 806.42 373.58 809.61 375.82 810.47 379.51 C 812.49 387.46 812.30 395.81 812.33 403.97 C 812.31 456.62 812.32 509.28 812.31 561.94 C 812.47 580.10 811.90 598.28 812.78 616.42 C 811.99 617.18 811.22 617.96 810.45 618.75 C 808.38 611.35 808.54 603.62 808.63 596.01 C 808.63 527.34 808.64 458.67 808.62 390.00 C 808.62 385.57 808.02 379.29 802.81 378.10 C 802.80 376.47 802.77 374.82 802.78 373.20 Z" />
</g>
<g id="#858585ff">
<path fill="#858585" opacity="1.00" d=" M 1072.85 377.17 C 1075.41 377.34 1077.89 378.65 1078.70 381.25 C 1080.92 388.29 1080.37 395.78 1080.41 403.05 C 1080.43 580.53 1080.38 758.01 1080.43 935.49 C 1039.63 935.50 998.83 935.53 958.03 935.47 C 952.83 934.91 945.49 934.48 943.75 928.46 C 945.69 928.45 947.64 928.46 949.60 928.52 C 956.02 932.62 963.76 931.38 970.96 931.48 C 999.64 931.49 1028.31 931.48 1056.99 931.48 C 1063.39 931.43 1069.81 931.69 1076.22 931.28 C 1076.67 908.52 1076.28 885.75 1076.41 863.00 C 1076.41 717.99 1076.41 572.99 1076.41 427.99 C 1076.12 414.12 1077.36 400.15 1074.93 386.41 C 1074.19 387.60 1073.48 388.80 1072.83 390.03 C 1072.81 385.74 1072.83 381.46 1072.85 377.17 Z" />
</g>
<g id="#807f7fff">
<path fill="#807f7f" opacity="1.00" d=" M 802.81 378.10 C 808.02 379.29 808.62 385.57 808.62 390.00 C 808.64 458.67 808.63 527.34 808.63 596.01 C 808.54 603.62 808.38 611.35 810.45 618.75 C 809.25 619.95 808.06 621.17 806.88 622.39 C 805.33 617.40 805.34 612.16 805.44 606.99 C 805.45 543.33 805.45 479.67 805.45 416.00 C 805.32 407.16 805.79 398.30 805.10 389.48 C 804.51 389.49 803.34 389.51 802.75 389.53 C 802.74 385.72 802.78 381.91 802.81 378.10 Z" />
</g>
<g id="#6b6764ff">
<path fill="#6b6764" opacity="1.00" d=" M 1072.83 390.03 C 1073.48 388.80 1074.19 387.60 1074.93 386.41 C 1077.36 400.15 1076.12 414.12 1076.41 427.99 C 1076.41 572.99 1076.41 717.99 1076.41 863.00 C 1076.28 885.75 1076.67 908.52 1076.22 931.28 C 1069.81 931.69 1063.39 931.43 1056.99 931.48 C 1028.31 931.48 999.64 931.49 970.96 931.48 C 963.76 931.38 956.02 932.62 949.60 928.52 C 990.85 928.38 1032.10 928.52 1073.35 928.45 C 1073.32 914.15 1073.37 899.85 1073.29 885.55 C 1073.41 873.26 1073.32 860.96 1073.30 848.66 C 1073.38 842.41 1073.31 836.16 1073.32 829.92 C 1073.04 816.65 1073.90 803.33 1072.89 790.10 C 1072.53 777.61 1073.09 765.10 1072.66 752.62 C 1072.78 743.28 1073.05 733.92 1072.64 724.59 C 1072.63 709.26 1073.22 693.94 1073.02 678.61 C 1073.07 673.52 1072.87 668.44 1072.73 663.36 C 1072.58 640.00 1073.16 616.62 1072.56 593.26 C 1072.91 577.19 1072.65 561.11 1072.78 545.03 C 1072.69 536.44 1073.05 527.84 1072.56 519.26 C 1072.85 494.29 1072.77 469.32 1072.73 444.36 C 1072.80 426.25 1072.77 408.14 1072.83 390.03 Z" />
</g>
<g id="#636667ff">
<path fill="#636667" opacity="1.00" d=" M 802.75 389.53 C 803.34 389.51 804.51 389.49 805.10 389.48 C 805.79 398.30 805.32 407.16 805.45 416.00 C 805.45 479.67 805.45 543.33 805.44 606.99 C 805.34 612.16 805.33 617.40 806.88 622.39 C 805.48 623.82 804.09 625.25 802.71 626.68 C 802.66 624.97 802.61 623.28 802.54 621.58 C 802.71 608.24 802.84 594.89 802.58 581.56 C 802.67 567.36 802.84 553.15 802.59 538.95 C 802.61 512.07 803.01 485.18 802.53 458.31 C 802.85 435.39 802.65 412.45 802.75 389.53 Z" />
</g>
<g id="#5bb6e6ff">
<path fill="#5bb6e6" opacity="1.00" d=" M 976.61 452.21 C 986.31 442.24 996.26 432.52 1006.01 422.60 C 1006.26 423.68 1006.54 424.78 1006.82 425.88 C 1028.08 426.45 1049.37 425.52 1070.63 426.22 C 1070.87 432.31 1071.01 438.46 1072.73 444.36 C 1072.77 469.32 1072.85 494.29 1072.56 519.26 L 1072.29 520.61 C 1071.85 509.07 1072.17 497.51 1071.16 486.00 C 1070.60 477.44 1071.24 468.86 1070.61 460.30 C 1037.78 459.83 1004.93 460.51 972.11 459.96 C 974.02 457.66 976.36 455.38 976.61 452.21 Z" />
<path fill="#5bb6e6" opacity="1.00" d=" M 704.49 454.22 C 714.07 444.40 723.86 434.77 733.52 425.02 C 741.86 427.06 750.48 425.73 758.97 425.95 C 772.84 426.31 786.72 425.64 800.59 426.29 C 802.10 437.38 801.30 448.58 802.19 459.71 C 801.62 469.84 802.26 480.02 801.49 490.15 C 800.37 480.24 801.30 470.25 800.67 460.31 C 768.00 459.82 735.32 460.47 702.65 460.01 C 703.33 458.10 703.97 456.17 704.49 454.22 Z" />
</g>
<g id="#56adddff">
<path fill="#56addd" opacity="1.00" d=" M 926.72 502.24 C 943.26 485.48 959.94 468.85 976.61 452.21 C 976.36 455.38 974.02 457.66 972.11 459.96 C 1004.93 460.51 1037.78 459.83 1070.61 460.30 C 1071.24 468.86 1070.60 477.44 1071.16 486.00 C 1072.17 497.51 1071.85 509.07 1072.29 520.61 C 1071.49 526.40 1072.00 532.26 1071.44 538.08 C 1070.74 529.13 1071.10 520.15 1070.63 511.20 C 1057.11 510.54 1043.55 511.00 1030.01 511.07 C 993.71 510.62 957.39 511.22 921.09 510.81 C 923.29 508.20 926.36 505.89 926.72 502.24 Z" />
<path fill="#56addd" opacity="1.00" d=" M 655.68 503.21 C 671.85 486.78 688.20 470.53 704.49 454.22 C 703.97 456.17 703.33 458.10 702.65 460.01 C 735.32 460.47 768.00 459.82 800.67 460.31 C 801.30 470.25 800.37 480.24 801.49 490.15 C 802.26 480.02 801.62 469.84 802.19 459.71 L 802.53 458.31 C 803.01 485.18 802.61 512.07 802.59 538.95 C 799.50 530.08 801.77 520.49 800.66 511.31 C 789.81 510.46 778.92 511.34 768.05 511.11 C 741.71 511.06 715.37 510.79 689.03 511.07 C 676.41 510.67 663.79 511.60 651.18 510.81 C 653.08 508.55 655.49 506.36 655.68 503.21 Z" />
</g>
<g id="#50a4d3ff">
<path fill="#50a4d3" opacity="1.00" d=" M 888.89 540.21 C 901.38 527.44 914.08 514.87 926.72 502.24 C 926.36 505.89 923.29 508.20 921.09 510.81 C 957.39 511.22 993.71 510.62 1030.01 511.07 C 1043.55 511.00 1057.11 510.54 1070.63 511.20 C 1071.10 520.15 1070.74 529.13 1071.44 538.08 C 1072.00 532.26 1071.49 526.40 1072.29 520.61 L 1072.56 519.26 C 1073.05 527.84 1072.69 536.44 1072.78 545.03 C 1072.65 561.11 1072.91 577.19 1072.56 593.26 L 1072.31 594.56 C 1070.89 579.17 1071.05 563.71 1070.69 548.28 C 1010.48 547.90 950.26 548.25 890.06 548.13 C 888.09 548.08 886.14 548.01 884.20 547.95 C 886.24 545.69 887.97 543.15 888.89 540.21 Z" />
</g>
<g id="#4fa3d2ff">
<path fill="#4fa3d2" opacity="1.00" d=" M 614.81 544.22 C 628.32 530.44 642.03 516.85 655.68 503.21 C 655.49 506.36 653.08 508.55 651.18 510.81 C 663.79 511.60 676.41 510.67 689.03 511.07 C 715.37 510.79 741.71 511.06 768.05 511.11 C 778.92 511.34 789.81 510.46 800.66 511.31 C 801.77 520.49 799.50 530.08 802.59 538.95 C 802.84 553.15 802.67 567.36 802.58 581.56 C 799.77 574.76 801.53 567.27 800.72 560.16 C 734.52 559.53 668.26 560.33 602.06 559.80 C 605.89 554.23 613.07 551.11 614.81 544.22 Z" />
</g>
<g id="#4a9bc9ff">
<path fill="#4a9bc9" opacity="1.00" d=" M 853.84 575.35 C 865.41 563.53 877.14 551.85 888.89 540.21 C 887.97 543.15 886.24 545.69 884.20 547.95 C 886.14 548.01 888.09 548.08 890.06 548.13 C 950.26 548.25 1010.48 547.90 1070.69 548.28 C 1071.05 563.71 1070.89 579.17 1072.31 594.56 C 1071.23 603.39 1072.25 612.31 1071.42 621.16 C 1070.82 614.84 1071.19 608.49 1070.78 602.17 C 1059.85 601.45 1048.89 602.11 1037.96 601.88 C 974.28 601.91 910.60 601.85 846.93 601.90 C 841.29 601.91 835.66 601.98 830.04 601.77 C 834.63 596.77 839.54 592.09 844.29 587.24 C 847.79 583.56 852.35 580.48 853.84 575.35 Z" />
</g>
<g id="#499ac8ff">
<path fill="#499ac8" opacity="1.00" d=" M 573.92 585.22 C 587.44 571.45 601.12 557.82 614.81 544.22 C 613.07 551.11 605.89 554.23 602.06 559.80 C 668.26 560.33 734.52 559.53 800.72 560.16 C 801.53 567.27 799.77 574.76 802.58 581.56 C 802.84 594.89 802.71 608.24 802.54 621.58 C 799.32 613.52 801.83 604.62 800.70 596.20 C 794.83 595.70 788.94 596.06 783.06 596.07 C 716.70 596.02 650.34 596.16 583.99 596.01 C 578.00 596.02 572.00 596.35 566.02 595.83 C 568.78 592.37 572.87 589.78 573.92 585.22 Z" />
</g>
<g id="#4492c0ff">
<path fill="#4492c0" opacity="1.00" d=" M 824.72 604.48 C 834.38 594.72 844.06 584.98 853.84 575.35 C 852.35 580.48 847.79 583.56 844.29 587.24 C 839.54 592.09 834.63 596.77 830.04 601.77 C 835.66 601.98 841.29 601.91 846.93 601.90 C 910.60 601.85 974.28 601.91 1037.96 601.88 C 1048.89 602.11 1059.85 601.45 1070.78 602.17 C 1071.19 608.49 1070.82 614.84 1071.42 621.16 C 1072.25 612.31 1071.23 603.39 1072.31 594.56 L 1072.56 593.26 C 1073.16 616.62 1072.58 640.00 1072.73 663.36 C 1071.47 655.36 1071.10 647.29 1070.74 639.21 C 1060.17 638.53 1049.58 639.22 1039.01 638.96 C 867.28 638.90 695.55 638.97 523.83 638.97 C 523.87 637.70 523.91 636.44 523.96 635.19 C 540.61 618.54 557.17 601.79 573.92 585.22 C 572.87 589.78 568.78 592.37 566.02 595.83 C 572.00 596.35 578.00 596.02 583.99 596.01 C 650.34 596.16 716.70 596.02 783.06 596.07 C 788.94 596.06 794.83 595.70 800.70 596.20 C 801.83 604.62 799.32 613.52 802.54 621.58 C 802.61 623.28 802.66 624.97 802.71 626.68 C 804.09 625.25 805.48 623.82 806.88 622.39 C 808.06 621.17 809.25 619.95 810.45 618.75 C 811.22 617.96 811.99 617.18 812.78 616.42 C 814.12 615.07 815.46 613.72 816.81 612.38 C 819.43 609.73 822.13 607.16 824.72 604.48 Z" />
</g>
<g id="#3f8ab8ff">
<path fill="#3f8ab8" opacity="1.00" d=" M 491.33 667.94 C 502.17 656.99 513.10 646.13 523.96 635.19 C 523.91 636.44 523.87 637.70 523.83 638.97 C 695.55 638.97 867.28 638.90 1039.01 638.96 C 1049.58 639.22 1060.17 638.53 1070.74 639.21 C 1071.10 647.29 1071.47 655.36 1072.73 663.36 C 1072.87 668.44 1073.07 673.52 1073.02 678.61 C 1070.79 675.96 1070.80 672.46 1070.58 669.21 C 1021.05 668.69 971.48 669.18 921.94 669.05 C 852.24 669.06 782.55 668.94 712.85 669.06 C 712.45 662.51 713.03 655.92 712.23 649.40 C 704.81 656.44 697.75 663.86 690.50 671.08 C 689.42 669.66 687.93 668.71 686.08 668.97 C 623.74 669.12 561.39 668.96 499.05 669.07 C 496.43 669.02 493.87 668.50 491.33 667.94 Z" />
</g>
<g id="#525252ff">
<path fill="#525252" opacity="1.00" d=" M 690.50 671.08 C 697.75 663.86 704.81 656.44 712.23 649.40 C 712.05 651.93 711.90 654.48 711.84 657.03 C 703.30 661.37 697.07 668.77 690.32 675.33 C 643.89 721.91 597.35 768.36 550.93 814.94 C 515.58 850.59 480.50 886.53 444.63 921.67 C 443.05 923.55 440.54 923.89 438.29 924.39 C 445.68 916.24 453.76 908.75 461.39 900.83 C 475.18 887.00 489.02 873.23 502.75 859.35 C 512.63 849.36 522.71 839.58 532.44 829.47 C 542.73 819.29 553.04 809.13 563.08 798.72 C 572.52 789.45 581.93 780.14 591.11 770.61 C 599.41 762.50 607.64 754.31 615.71 745.97 C 627.89 733.97 639.92 721.81 651.99 709.70 C 664.79 696.78 677.68 683.97 690.50 671.08 Z" />
</g>
<g id="#377daaff">
<path fill="#377daa" opacity="1.00" d=" M 712.23 649.40 C 713.03 655.92 712.45 662.51 712.85 669.06 C 712.82 679.33 713.99 689.53 714.35 699.79 C 730.21 700.32 746.09 699.85 761.96 699.97 C 817.56 700.17 873.16 699.72 928.76 700.17 C 926.86 702.37 924.70 704.60 924.28 707.62 C 912.13 720.09 899.80 732.39 887.38 744.58 C 888.86 741.48 891.05 738.83 893.27 736.24 C 882.51 735.56 871.72 736.11 860.96 735.92 C 812.06 736.00 763.17 735.92 714.28 735.90 C 714.01 734.47 713.69 733.07 713.36 731.67 C 712.53 741.54 712.97 751.46 712.92 761.35 L 711.79 761.29 C 711.77 734.06 711.78 706.82 711.78 679.59 C 712.21 675.78 712.34 671.94 712.05 668.13 C 711.95 666.39 711.86 664.66 711.83 662.95 C 711.79 660.97 711.79 659.00 711.84 657.03 C 711.90 654.48 712.05 651.93 712.23 649.40 Z" />
</g>
<g id="#6d6969ff">
<path fill="#6d6969" opacity="1.00" d=" M 690.32 675.33 C 697.07 668.77 703.30 661.37 711.84 657.03 C 711.79 659.00 711.79 660.97 711.83 662.95 C 702.62 666.79 696.42 674.77 689.42 681.50 C 677.42 693.47 665.48 705.48 653.49 717.45 C 644.72 726.37 635.65 734.99 627.22 744.23 C 588.15 783.48 548.84 822.50 510.00 861.97 C 490.10 882.08 469.95 901.95 450.13 922.15 C 446.75 925.19 443.08 928.01 438.94 929.95 C 434.30 932.21 429.00 931.52 424.01 931.64 C 408.36 931.77 392.70 931.34 377.05 931.94 C 366.37 931.36 355.67 931.76 344.97 931.62 C 337.30 931.34 329.65 932.70 321.99 931.69 C 303.72 931.51 285.44 931.78 267.17 931.56 C 264.67 931.82 262.75 930.27 261.20 928.51 C 318.80 928.38 376.40 928.59 433.99 928.42 C 435.44 927.08 436.90 925.77 438.29 924.39 C 440.54 923.89 443.05 923.55 444.63 921.67 C 480.50 886.53 515.58 850.59 550.93 814.94 C 597.35 768.36 643.89 721.91 690.32 675.33 Z" />
</g>
<g id="#898989ff">
<path fill="#898989" opacity="1.00" d=" M 689.42 681.50 C 696.42 674.77 702.62 666.79 711.83 662.95 C 711.86 664.66 711.95 666.39 712.05 668.13 C 706.19 670.40 701.64 674.86 697.22 679.16 C 616.29 760.28 535.66 841.67 454.64 922.70 C 451.04 926.05 447.59 929.71 443.28 932.15 C 438.24 934.58 432.56 935.35 427.02 935.51 C 375.34 935.51 323.65 935.47 271.96 935.52 C 265.74 935.60 259.03 935.22 253.90 931.27 C 254.54 930.31 255.18 929.37 255.82 928.43 C 257.61 928.48 259.41 928.52 261.20 928.51 C 262.75 930.27 264.67 931.82 267.17 931.56 C 285.44 931.78 303.72 931.51 321.99 931.69 C 329.65 932.70 337.30 931.34 344.97 931.62 C 355.67 931.76 366.37 931.36 377.05 931.94 C 392.70 931.34 408.36 931.77 424.01 931.64 C 429.00 931.52 434.30 932.21 438.94 929.95 C 443.08 928.01 446.75 925.19 450.13 922.15 C 469.95 901.95 490.10 882.08 510.00 861.97 C 548.84 822.50 588.15 783.48 627.22 744.23 C 635.65 734.99 644.72 726.37 653.49 717.45 C 665.48 705.48 677.42 693.47 689.42 681.50 Z" />
</g>
<g id="#3b84b1ff">
<path fill="#3b84b1" opacity="1.00" d=" M 454.42 704.97 C 466.69 692.59 479.02 680.28 491.33 667.94 C 493.87 668.50 496.43 669.02 499.05 669.07 C 561.39 668.96 623.74 669.12 686.08 668.97 C 687.93 668.71 689.42 669.66 690.50 671.08 C 677.68 683.97 664.79 696.78 651.99 709.70 C 652.08 708.47 652.17 707.26 652.27 706.05 C 588.85 705.77 525.41 705.97 461.99 705.98 C 459.43 705.87 456.92 705.43 454.42 704.97 Z" />
<path fill="#3b84b1" opacity="1.00" d=" M 712.85 669.06 C 782.55 668.94 852.24 669.06 921.94 669.05 C 971.48 669.18 1021.05 668.69 1070.58 669.21 C 1070.80 672.46 1070.79 675.96 1073.02 678.61 C 1073.22 693.94 1072.63 709.26 1072.64 724.59 C 1071.40 721.56 1070.84 718.34 1070.62 715.10 C 1048.43 714.48 1026.22 714.99 1004.02 714.85 C 986.01 714.79 968.01 714.90 950.01 714.85 C 943.73 714.67 937.45 714.81 931.21 715.39 C 931.17 710.79 931.14 706.20 930.85 701.62 C 930.62 701.81 930.16 702.20 929.93 702.39 C 927.96 704.04 926.07 705.78 924.28 707.62 C 924.70 704.60 926.86 702.37 928.76 700.17 C 873.16 699.72 817.56 700.17 761.96 699.97 C 746.09 699.85 730.21 700.32 714.35 699.79 C 713.99 689.53 712.82 679.33 712.85 669.06 Z" />
</g>
<g id="#adadadff">
<path fill="#adadad" opacity="1.00" d=" M 697.22 679.16 C 701.64 674.86 706.19 670.40 712.05 668.13 C 712.34 671.94 712.21 675.78 711.78 679.59 L 711.74 678.79 L 711.68 677.66 C 711.50 676.37 711.31 675.09 711.12 673.82 C 703.72 676.08 698.96 682.46 693.61 687.60 C 648.66 732.63 603.69 777.65 558.73 822.68 C 547.49 834.77 535.69 846.31 524.00 857.97 C 501.95 880.25 479.70 902.34 457.58 924.56 C 451.15 931.55 443.02 938.30 433.06 938.57 C 377.03 938.84 321.00 938.65 264.98 938.66 C 260.30 938.62 255.27 938.40 251.23 935.78 C 249.20 934.45 248.70 931.92 248.05 929.78 C 248.23 929.54 248.57 929.07 248.74 928.83 C 247.62 928.72 246.50 928.64 245.38 928.58 L 244.46 928.53 C 247.80 928.40 251.14 928.29 254.49 928.36 C 254.82 928.38 255.49 928.42 255.82 928.43 C 255.18 929.37 254.54 930.31 253.90 931.27 C 259.03 935.22 265.74 935.60 271.96 935.52 C 323.65 935.47 375.34 935.51 427.02 935.51 C 432.56 935.35 438.24 934.58 443.28 932.15 C 447.59 929.71 451.04 926.05 454.64 922.70 C 535.66 841.67 616.29 760.28 697.22 679.16 Z" />
</g>
<g id="#c7c7c7ff">
<path fill="#c7c7c7" opacity="1.00" d=" M 693.61 687.60 C 698.96 682.46 703.72 676.08 711.12 673.82 C 711.31 675.09 711.50 676.37 711.68 677.66 C 700.17 682.76 692.01 692.68 683.68 701.71 C 608.02 777.39 532.48 853.17 456.89 928.91 C 449.77 936.04 440.50 942.35 429.98 941.76 C 373.65 941.75 317.33 941.77 261.00 941.72 C 255.69 941.77 249.84 940.89 245.93 936.96 C 244.08 935.27 243.92 932.67 243.59 930.37 C 245.08 930.18 246.57 929.98 248.05 929.78 C 248.70 931.92 249.20 934.45 251.23 935.78 C 255.27 938.40 260.30 938.62 264.98 938.66 C 321.00 938.65 377.03 938.84 433.06 938.57 C 443.02 938.30 451.15 931.55 457.58 924.56 C 479.70 902.34 501.95 880.25 524.00 857.97 C 535.69 846.31 547.49 834.77 558.73 822.68 C 603.69 777.65 648.66 732.63 693.61 687.60 Z" />
</g>
<g id="#357ba7ff">
<path fill="#357ba7" opacity="1.00" d=" M 929.93 702.39 C 930.16 702.20 930.62 701.81 930.85 701.62 C 931.14 706.20 931.17 710.79 931.21 715.39 C 937.45 714.81 943.73 714.67 950.01 714.85 C 968.01 714.90 986.01 714.79 1004.02 714.85 C 1026.22 714.99 1048.43 714.48 1070.62 715.10 C 1070.84 718.34 1071.40 721.56 1072.64 724.59 C 1073.05 733.92 1072.78 743.28 1072.66 752.62 C 1070.93 749.41 1070.76 745.76 1070.70 742.21 C 1041.48 741.85 1012.25 742.13 983.02 742.07 C 966.11 741.83 949.18 742.42 932.28 741.80 C 932.06 733.39 932.13 724.93 930.27 716.68 C 930.16 715.09 930.13 713.49 930.15 711.92 C 930.17 708.73 930.11 705.56 929.93 702.39 Z" />
</g>
<g id="#585959ff">
<path fill="#585959" opacity="1.00" d=" M 924.28 707.62 C 926.07 705.78 927.96 704.04 929.93 702.39 C 930.11 705.56 930.17 708.73 930.15 711.92 C 922.98 714.10 918.38 720.22 913.15 725.14 C 885.10 753.44 856.72 781.41 828.55 809.57 C 802.39 836.08 776.16 862.52 749.78 888.80 C 745.04 893.38 740.78 898.55 735.32 902.31 C 733.64 903.67 731.43 903.43 729.43 903.43 C 735.10 897.52 741.01 891.86 746.68 885.97 C 756.37 876.36 765.98 866.66 775.61 857.00 C 785.86 846.58 796.29 836.34 806.51 825.90 C 818.51 813.86 830.57 801.89 842.50 789.79 C 852.79 779.45 863.13 769.18 873.38 758.81 C 878.03 754.06 882.91 749.51 887.38 744.58 C 899.80 732.39 912.13 720.09 924.28 707.62 Z" />
</g>
<g id="#377da9ff">
<path fill="#377da9" opacity="1.00" d=" M 428.46 731.09 C 437.03 722.30 445.78 713.69 454.42 704.97 C 456.92 705.43 459.43 705.87 461.99 705.98 C 525.41 705.97 588.85 705.77 652.27 706.05 C 652.17 707.26 652.08 708.47 651.99 709.70 C 639.92 721.81 627.89 733.97 615.71 745.97 C 616.50 741.72 620.53 739.36 623.02 736.16 C 601.03 735.59 579.03 736.14 557.04 735.97 C 523.35 735.88 489.66 736.04 455.97 735.94 C 446.13 736.14 436.25 735.44 426.44 736.48 C 427.24 734.73 427.98 732.95 428.46 731.09 Z" />
</g>
<g id="#737373ff">
<path fill="#737373" opacity="1.00" d=" M 913.15 725.14 C 918.38 720.22 922.98 714.10 930.15 711.92 C 930.13 713.49 930.16 715.09 930.27 716.68 C 922.22 720.34 916.56 727.30 910.37 733.34 C 858.76 785.07 807.17 836.83 755.55 888.55 C 748.91 895.27 742.40 902.18 735.12 908.20 C 732.88 910.34 729.85 910.93 726.86 910.65 C 726.18 909.75 725.52 908.85 724.86 907.97 C 726.38 906.45 727.91 904.94 729.43 903.43 C 731.43 903.43 733.64 903.67 735.32 902.31 C 740.78 898.55 745.04 893.38 749.78 888.80 C 776.16 862.52 802.39 836.08 828.55 809.57 C 856.72 781.41 885.10 753.44 913.15 725.14 Z" />
</g>
<g id="#9a9a9aff">
<path fill="#9a9a9a" opacity="1.00" d=" M 910.37 733.34 C 916.56 727.30 922.22 720.34 930.27 716.68 C 930.23 720.16 930.23 723.64 930.22 727.13 C 929.84 726.02 929.44 724.92 929.03 723.83 C 922.27 726.70 917.48 732.44 912.38 737.47 C 856.76 793.15 801.17 848.87 745.59 904.59 C 740.41 909.67 735.57 915.74 728.52 918.24 C 724.52 919.72 721.78 915.88 719.23 913.53 C 721.08 911.65 722.99 909.83 724.86 907.97 C 725.52 908.85 726.18 909.75 726.86 910.65 C 729.85 910.93 732.88 910.34 735.12 908.20 C 742.40 902.18 748.91 895.27 755.55 888.55 C 807.17 836.83 858.76 785.07 910.37 733.34 Z" />
</g>
<g id="#3174a1ff">
<path fill="#3174a1" opacity="1.00" d=" M 930.27 716.68 C 932.13 724.93 932.06 733.39 932.28 741.80 C 949.18 742.42 966.11 741.83 983.02 742.07 C 1012.25 742.13 1041.48 741.85 1070.70 742.21 C 1070.76 745.76 1070.93 749.41 1072.66 752.62 C 1073.09 765.10 1072.53 777.61 1072.89 790.10 C 1070.03 787.21 1070.93 782.94 1070.65 779.30 C 1024.34 778.85 978.02 779.28 931.71 779.08 C 931.70 776.64 931.62 774.21 931.51 771.78 C 930.98 782.29 931.83 792.86 930.32 803.32 C 929.95 780.31 930.33 757.29 930.20 734.28 C 930.20 731.89 930.28 729.51 930.22 727.13 C 930.23 723.64 930.23 720.16 930.27 716.68 Z" />
</g>
<g id="#bfbfbfff">
<path fill="#bfbfbf" opacity="1.00" d=" M 912.38 737.47 C 917.48 732.44 922.27 726.70 929.03 723.83 C 929.44 724.92 929.84 726.02 930.22 727.13 C 930.28 729.51 930.20 731.89 930.20 734.28 C 929.75 732.54 929.21 730.84 928.70 729.15 C 921.01 732.04 915.98 738.76 910.23 744.24 C 883.38 771.05 856.58 797.91 829.84 824.83 C 803.73 851.37 777.17 877.46 751.09 904.04 C 744.79 909.74 739.48 916.58 732.34 921.30 C 728.97 923.47 724.26 924.63 720.72 922.20 C 718.42 920.84 717.90 918.07 717.03 915.78 C 717.75 915.02 718.48 914.27 719.23 913.53 C 721.78 915.88 724.52 919.72 728.52 918.24 C 735.57 915.74 740.41 909.67 745.59 904.59 C 801.17 848.87 856.76 793.15 912.38 737.47 Z" />
</g>
<g id="#dadadaff">
<path fill="#dadada" opacity="1.00" d=" M 910.23 744.24 C 915.98 738.76 921.01 732.04 928.70 729.15 C 929.21 730.84 929.75 732.54 930.20 734.28 C 930.33 757.29 929.95 780.31 930.32 803.32 C 930.24 832.88 930.26 862.44 930.21 891.99 C 929.94 904.13 930.73 916.31 929.74 928.42 C 928.43 921.68 929.34 914.79 929.10 907.99 C 929.11 860.98 929.15 813.98 929.15 766.98 C 929.11 756.88 929.36 746.76 928.72 736.68 C 925.65 737.24 922.41 737.82 920.09 740.09 C 913.30 745.95 907.29 752.65 900.87 758.90 C 884.99 774.69 869.30 790.67 853.37 806.41 C 826.78 833.18 800.58 860.31 773.55 886.63 C 765.97 894.68 757.97 902.32 750.27 910.25 C 743.74 916.45 737.84 923.75 729.45 927.53 C 723.05 930.98 713.49 926.37 714.24 918.58 C 715.18 917.65 716.11 916.72 717.03 915.78 C 717.90 918.07 718.42 920.84 720.72 922.20 C 724.26 924.63 728.97 923.47 732.34 921.30 C 739.48 916.58 744.79 909.74 751.09 904.04 C 777.17 877.46 803.73 851.37 829.84 824.83 C 856.58 797.91 883.38 771.05 910.23 744.24 Z" />
</g>
<g id="#3376a3ff">
<path fill="#3376a3" opacity="1.00" d=" M 400.02 759.57 C 409.50 750.07 418.93 740.53 428.46 731.09 C 427.98 732.95 427.24 734.73 426.44 736.48 C 436.25 735.44 446.13 736.14 455.97 735.94 C 489.66 736.04 523.35 735.88 557.04 735.97 C 579.03 736.14 601.03 735.59 623.02 736.16 C 620.53 739.36 616.50 741.72 615.71 745.97 C 607.64 754.31 599.41 762.50 591.11 770.61 C 592.23 767.87 593.84 765.37 595.77 763.13 C 586.51 762.73 577.25 763.08 567.99 763.01 C 514.32 763.01 460.65 762.86 406.97 763.05 C 404.92 763.03 402.88 762.96 400.84 762.89 C 400.56 761.78 400.29 760.66 400.02 759.57 Z" />
</g>
<g id="#30729eff">
<path fill="#30729e" opacity="1.00" d=" M 713.36 731.67 C 713.69 733.07 714.01 734.47 714.28 735.90 C 714.29 743.21 713.93 750.52 714.34 757.83 C 765.24 758.30 816.17 757.82 867.07 758.04 C 869.18 758.17 871.28 758.49 873.38 758.81 C 863.13 769.18 852.79 779.45 842.50 789.79 C 840.18 788.60 837.67 787.70 835.03 787.90 C 823.35 788.29 811.68 787.91 800.00 787.95 C 771.35 787.92 742.71 788.16 714.06 788.03 C 713.50 779.14 713.24 770.25 712.92 761.35 C 712.97 751.46 712.53 741.54 713.36 731.67 Z" />
</g>
<g id="#3377a3ff">
<path fill="#3377a3" opacity="1.00" d=" M 714.28 735.90 C 763.17 735.92 812.06 736.00 860.96 735.92 C 871.72 736.11 882.51 735.56 893.27 736.24 C 891.05 738.83 888.86 741.48 887.38 744.58 C 882.91 749.51 878.03 754.06 873.38 758.81 C 871.28 758.49 869.18 758.17 867.07 758.04 C 816.17 757.82 765.24 758.30 714.34 757.83 C 713.93 750.52 714.29 743.21 714.28 735.90 Z" />
</g>
<g id="#2f719dff">
<path fill="#2f719d" opacity="1.00" d=" M 375.58 784.18 C 383.64 775.89 391.91 767.80 400.02 759.57 C 400.29 760.66 400.56 761.78 400.84 762.89 C 402.88 762.96 404.92 763.03 406.97 763.05 C 460.65 762.86 514.32 763.01 567.99 763.01 C 577.25 763.08 586.51 762.73 595.77 763.13 C 593.84 765.37 592.23 767.87 591.11 770.61 C 581.93 780.14 572.52 789.45 563.08 798.72 C 564.10 795.87 565.77 793.35 567.80 791.13 C 502.63 790.75 437.46 791.19 372.29 790.97 C 373.81 788.93 375.43 786.82 375.58 784.18 Z" />
</g>
<g id="#27648fff">
<path fill="#27648f" opacity="1.00" d=" M 711.79 761.29 L 712.92 761.35 C 713.24 770.25 713.50 779.14 714.06 788.03 C 713.93 800.28 714.04 812.54 714.30 824.79 C 736.86 825.16 759.44 824.78 782.01 824.93 C 790.18 825.12 798.44 824.23 806.51 825.90 C 796.29 836.34 785.86 846.58 775.61 857.00 C 773.85 854.49 770.63 854.98 767.97 854.91 C 750.01 855.05 732.06 854.97 714.10 854.92 C 714.28 848.77 714.02 842.54 711.84 836.71 C 711.71 811.57 711.85 786.43 711.79 761.29 Z" />
<path fill="#27648f" opacity="1.00" d=" M 323.77 836.15 C 332.02 827.75 340.37 819.44 348.71 811.13 C 348.18 815.88 343.77 818.43 340.94 821.79 C 378.95 822.38 416.98 821.81 455.00 822.03 C 482.25 822.14 509.50 821.74 536.75 822.15 C 535.21 824.52 533.84 827.00 532.44 829.47 C 522.71 839.58 512.63 849.36 502.75 859.35 C 503.11 857.98 503.37 856.59 503.66 855.22 C 496.79 854.65 489.90 855.27 483.02 855.14 C 431.69 855.06 380.35 855.15 329.02 855.09 C 322.02 855.06 315.02 855.36 308.03 854.89 C 312.09 849.98 316.85 845.75 321.31 841.23 C 322.75 839.90 323.21 837.94 323.77 836.15 Z" />
</g>
<g id="#1d547fff">
<path fill="#1d547f" opacity="1.00" d=" M 930.32 803.32 C 931.83 792.86 930.98 782.29 931.51 771.78 C 931.62 774.21 931.70 776.64 931.71 779.08 C 931.47 796.02 931.51 812.97 931.74 829.91 C 931.63 838.29 931.87 846.67 931.96 855.05 C 932.05 867.28 931.92 879.53 932.31 891.76 C 941.86 892.42 951.44 891.93 961.01 892.09 C 990.36 892.13 1019.70 891.82 1049.05 892.08 C 1056.49 891.98 1063.96 892.42 1071.40 891.75 C 1072.04 889.68 1072.72 887.63 1073.29 885.55 C 1073.37 899.85 1073.32 914.15 1073.35 928.45 C 1032.10 928.52 990.85 928.38 949.60 928.52 C 947.64 928.46 945.69 928.45 943.75 928.46 C 942.38 928.44 941.02 928.44 939.68 928.46 C 939.08 928.47 937.90 928.50 937.30 928.52 C 934.78 928.54 932.25 928.44 929.74 928.42 C 930.73 916.31 929.94 904.13 930.21 891.99 C 930.26 862.44 930.24 832.88 930.32 803.32 Z" />
</g>
<g id="#2b6b96ff">
<path fill="#2b6b96" opacity="1.00" d=" M 931.71 779.08 C 978.02 779.28 1024.34 778.85 1070.65 779.30 C 1070.93 782.94 1070.03 787.21 1072.89 790.10 C 1073.90 803.33 1073.04 816.65 1073.32 829.92 C 1026.13 829.85 978.94 829.87 931.74 829.91 C 931.51 812.97 931.47 796.02 931.71 779.08 Z" />
<path fill="#2b6b96" opacity="1.00" d=" M 714.06 788.03 C 742.71 788.16 771.35 787.92 800.00 787.95 C 811.68 787.91 823.35 788.29 835.03 787.90 C 837.67 787.70 840.18 788.60 842.50 789.79 C 830.57 801.89 818.51 813.86 806.51 825.90 C 798.44 824.23 790.18 825.12 782.01 824.93 C 759.44 824.78 736.86 825.16 714.30 824.79 C 714.04 812.54 713.93 800.28 714.06 788.03 Z" />
</g>
<g id="#2b6a96ff">
<path fill="#2b6a96" opacity="1.00" d=" M 348.71 811.13 C 357.61 802.09 366.58 793.12 375.58 784.18 C 375.43 786.82 373.81 788.93 372.29 790.97 C 437.46 791.19 502.63 790.75 567.80 791.13 C 565.77 793.35 564.10 795.87 563.08 798.72 C 553.04 809.13 542.73 819.29 532.44 829.47 C 533.84 827.00 535.21 824.52 536.75 822.15 C 509.50 821.74 482.25 822.14 455.00 822.03 C 416.98 821.81 378.95 822.38 340.94 821.79 C 343.77 818.43 348.18 815.88 348.71 811.13 Z" />
</g>
<g id="#26638eff">
<path fill="#26638e" opacity="1.00" d=" M 931.74 829.91 C 978.94 829.87 1026.13 829.85 1073.32 829.92 C 1073.31 836.16 1073.38 842.41 1073.30 848.66 C 1072.75 850.74 1072.08 852.78 1071.45 854.84 C 1060.98 855.50 1050.48 854.84 1039.99 855.08 C 1003.98 855.05 967.97 855.12 931.96 855.05 C 931.87 846.67 931.63 838.29 931.74 829.91 Z" />
</g>
<g id="#215b86ff">
<path fill="#215b86" opacity="1.00" d=" M 285.83 874.23 C 298.38 861.44 311.11 848.82 323.77 836.15 C 323.21 837.94 322.75 839.90 321.31 841.23 C 316.85 845.75 312.09 849.98 308.03 854.89 C 315.02 855.36 322.02 855.06 329.02 855.09 C 380.35 855.15 431.69 855.06 483.02 855.14 C 489.90 855.27 496.79 854.65 503.66 855.22 C 503.37 856.59 503.11 857.98 502.75 859.35 C 489.02 873.23 475.18 887.00 461.39 900.83 C 454.00 899.34 446.45 900.03 438.98 899.94 C 380.34 899.88 321.69 900.02 263.05 899.85 C 269.51 892.74 276.51 886.14 283.27 879.31 C 284.67 877.94 285.13 875.98 285.83 874.23 Z" />
</g>
<g id="#1f5882ff">
<path fill="#1f5882" opacity="1.00" d=" M 711.84 836.71 C 714.02 842.54 714.28 848.77 714.10 854.92 C 713.96 865.20 713.93 875.48 714.33 885.76 C 725.10 886.36 735.90 885.64 746.68 885.97 C 741.01 891.86 735.10 897.52 729.43 903.43 C 727.91 904.94 726.38 906.45 724.86 907.97 C 722.99 909.83 721.08 911.65 719.23 913.53 C 718.48 914.27 717.75 915.02 717.03 915.78 C 716.11 916.72 715.18 917.65 714.24 918.58 C 713.46 919.32 712.68 920.06 711.88 920.78 C 711.72 892.76 711.80 864.74 711.84 836.71 Z" />
</g>
<g id="#225c87ff">
<path fill="#225c87" opacity="1.00" d=" M 1071.45 854.84 C 1072.08 852.78 1072.75 850.74 1073.30 848.66 C 1073.32 860.96 1073.41 873.26 1073.29 885.55 C 1072.72 887.63 1072.04 889.68 1071.40 891.75 C 1063.96 892.42 1056.49 891.98 1049.05 892.08 C 1019.70 891.82 990.36 892.13 961.01 892.09 C 951.44 891.93 941.86 892.42 932.31 891.76 C 931.92 879.53 932.05 867.28 931.96 855.05 C 967.97 855.12 1003.98 855.05 1039.99 855.08 C 1050.48 854.84 1060.98 855.50 1071.45 854.84 Z" />
</g>
<g id="#235d88ff">
<path fill="#235d88" opacity="1.00" d=" M 714.10 854.92 C 732.06 854.97 750.01 855.05 767.97 854.91 C 770.63 854.98 773.85 854.49 775.61 857.00 C 765.98 866.66 756.37 876.36 746.68 885.97 C 735.90 885.64 725.10 886.36 714.33 885.76 C 713.93 875.48 713.96 865.20 714.10 854.92 Z" />
</g>
<g id="#1d547eff">
<path fill="#1d547e" opacity="1.00" d=" M 235.35 924.76 C 252.16 907.90 268.92 890.99 285.83 874.23 C 285.13 875.98 284.67 877.94 283.27 879.31 C 276.51 886.14 269.51 892.74 263.05 899.85 C 321.69 900.02 380.34 899.88 438.98 899.94 C 446.45 900.03 454.00 899.34 461.39 900.83 C 453.76 908.75 445.68 916.24 438.29 924.39 C 436.90 925.77 435.44 927.08 433.99 928.42 C 376.40 928.59 318.80 928.38 261.20 928.51 C 259.41 928.52 257.61 928.48 255.82 928.43 C 255.49 928.42 254.82 928.38 254.49 928.36 C 249.17 925.45 243.03 927.50 237.35 926.56 C 236.57 926.10 235.99 925.35 235.35 924.76 Z" />
</g>
<g id="#0b4574ff">
<path fill="#0b4574" opacity="1.00" d=" M 231.69 928.38 C 232.91 927.15 234.14 925.97 235.35 924.76 C 235.99 925.35 236.57 926.10 237.35 926.56 C 243.03 927.50 249.17 925.45 254.49 928.36 C 251.14 928.29 247.80 928.40 244.46 928.53 C 240.20 928.41 235.95 928.40 231.69 928.38 Z" />
</g>
</svg>
