<?xml version="1.0" encoding="UTF-8" ?>
<!DOCTYPE svg PUBLIC "-//W3C//DTD SVG 1.1//EN" "http://www.w3.org/Graphics/SVG/1.1/DTD/svg11.dtd">
<svg width="1276pt" height="1276pt" viewBox="0 0 1276 1276" version="1.1" xmlns="http://www.w3.org/2000/svg">
<g id="#ffffffff">
<path fill="#ffffff" opacity="1.00" d=" M 215.35 294.59 C 229.11 284.45 247.11 279.76 263.99 282.99 C 274.69 284.96 284.47 291.82 289.49 301.54 C 295.07 312.35 295.78 325.13 293.80 336.96 C 290.79 353.18 280.35 366.63 269.70 378.70 C 263.98 385.22 257.72 391.23 251.81 397.56 C 266.74 397.56 281.68 397.56 296.62 397.56 C 296.66 406.69 296.57 415.83 296.66 424.96 C 269.56 425.16 242.46 425.07 215.36 425.00 C 215.40 415.86 215.35 406.71 215.38 397.56 C 225.77 386.87 236.16 376.17 245.91 364.89 C 251.95 357.76 257.94 350.44 262.13 342.03 C 265.44 335.30 267.29 327.37 265.10 320.00 C 263.38 313.88 257.36 309.46 251.05 309.42 C 241.10 309.36 231.88 313.93 223.76 319.28 C 220.95 311.05 218.17 302.81 215.35 294.59 Z" />
<path fill="#ffffff" opacity="1.00" d=" M 358.58 282.81 C 369.75 280.62 382.18 282.47 391.19 289.79 C 402.06 298.39 407.64 311.85 410.41 325.08 C 413.72 341.46 413.95 358.37 412.21 374.95 C 410.48 389.17 406.60 403.93 396.89 414.90 C 390.17 422.61 380.12 426.98 369.97 427.31 C 360.34 427.89 350.25 425.55 342.67 419.37 C 335.19 413.41 330.35 404.76 327.28 395.84 C 322.72 382.39 321.64 368.04 321.69 353.93 C 321.92 337.99 323.68 321.64 330.38 307.00 C 335.58 295.33 345.69 285.21 358.58 282.81 M 363.08 310.27 C 358.12 312.66 355.80 318.15 354.14 323.08 C 350.58 335.01 350.42 347.61 350.51 359.96 C 350.87 370.49 351.35 381.42 355.75 391.18 C 357.86 396.00 362.40 400.48 368.05 399.94 C 373.78 399.74 377.69 394.72 379.73 389.86 C 383.94 379.78 384.18 368.64 384.48 357.89 C 384.48 347.15 384.20 336.27 381.60 325.80 C 380.29 320.91 378.46 315.87 374.70 312.33 C 371.69 309.41 366.91 308.55 363.08 310.27 Z" />
<path fill="#ffffff" opacity="1.00" d=" M 563.73 282.78 C 574.35 280.76 586.09 282.29 594.94 288.85 C 604.71 295.93 610.57 307.13 613.79 318.52 C 618.07 333.93 618.75 350.11 617.98 366.00 C 617.08 380.71 614.50 395.88 606.63 408.59 C 601.56 416.88 593.53 423.53 584.02 425.93 C 571.29 429.15 556.54 427.31 546.46 418.37 C 536.04 409.17 531.17 395.40 528.78 382.06 C 526.13 366.21 526.08 349.95 528.02 334.01 C 529.97 319.94 533.89 305.36 543.50 294.48 C 548.76 288.55 555.91 284.28 563.73 282.78 M 568.10 310.26 C 564.33 311.98 562.11 315.76 560.50 319.40 C 556.79 328.42 556.06 338.31 555.61 347.95 C 555.29 359.18 555.39 370.52 557.62 381.57 C 558.97 387.37 560.81 393.63 565.55 397.59 C 570.01 401.33 577.27 400.48 580.92 396.00 C 586.47 389.37 587.86 380.43 588.77 372.11 C 589.92 358.05 589.89 343.77 587.52 329.84 C 586.25 323.80 584.57 317.42 580.21 312.82 C 577.21 309.56 572.15 308.43 568.10 310.26 Z" />
<path fill="#ffffff" opacity="1.00" d=" M 463.36 284.39 C 472.91 284.18 482.47 284.38 492.03 284.30 C 492.10 331.22 492.05 378.14 492.06 425.06 C 482.47 425.04 472.88 425.12 463.30 425.02 C 463.32 389.00 463.31 352.99 463.31 316.97 C 456.44 321.23 449.79 325.83 442.92 330.06 C 439.79 321.30 436.58 312.57 433.42 303.83 C 443.41 297.37 453.27 290.69 463.36 284.39 Z" />
<path fill="#ffffff" opacity="1.00" d=" M 586.20 538.23 C 666.39 457.79 746.54 377.31 826.84 296.99 C 826.69 387.32 826.90 477.65 826.74 567.98 C 828.98 566.53 830.60 564.37 832.47 562.51 C 920.76 473.96 1009.03 385.40 1097.25 296.80 C 1097.39 317.05 1097.41 337.35 1097.24 357.62 C 1096.68 381.74 1097.16 405.89 1097.00 430.03 C 1097.07 512.86 1096.85 595.70 1097.11 678.53 C 1095.12 674.99 1095.92 670.86 1095.82 667.00 C 1095.89 569.66 1095.78 472.31 1095.88 374.97 C 1096.39 368.79 1094.69 362.20 1090.14 357.80 C 1087.55 354.69 1083.27 354.36 1079.61 353.50 C 1076.98 352.77 1074.35 353.90 1072.49 355.72 C 1050.60 378.18 1028.19 400.15 1006.16 422.47 C 996.32 432.45 986.29 442.24 976.53 452.30 C 959.84 468.94 943.15 485.60 926.59 502.38 C 913.93 514.97 901.30 527.60 888.74 540.30 C 877.07 551.97 865.33 563.57 853.80 575.38 C 844.07 584.96 834.45 594.65 824.85 604.36 C 823.37 601.41 821.53 598.41 821.69 594.99 C 821.71 529.33 821.72 463.68 821.70 398.02 C 821.77 391.01 821.57 383.99 820.96 377.01 C 820.43 371.48 818.53 365.51 813.60 362.37 C 810.46 360.01 806.41 360.30 802.71 360.35 C 802.70 358.81 802.71 357.28 802.72 355.75 C 779.54 378.67 756.59 401.84 733.60 424.95 C 723.91 434.73 714.06 444.37 704.47 454.26 C 688.11 470.58 671.75 486.90 655.53 503.35 C 641.91 516.96 628.24 530.52 614.76 544.27 C 601.06 557.89 587.36 571.53 573.82 585.30 C 557.22 601.80 540.68 618.36 524.22 635.00 C 513.25 645.89 502.35 656.85 491.45 667.82 C 479.14 680.17 466.79 692.48 454.52 704.88 C 445.82 713.64 437.03 722.32 428.39 731.14 C 418.97 740.52 409.59 749.95 400.22 759.38 C 391.94 767.73 383.59 776.00 375.34 784.38 C 366.49 793.30 357.51 802.11 348.75 811.12 C 340.36 819.40 332.04 827.75 323.77 836.15 C 311.05 848.85 298.33 861.55 285.69 874.33 C 269.01 890.97 252.36 907.66 235.74 924.38 C 234.41 925.72 233.04 927.02 231.69 928.37 C 236.16 928.44 240.62 928.40 245.09 928.45 L 245.24 928.46 C 243.09 929.14 240.91 929.81 238.65 930.00 C 236.15 930.04 233.64 930.07 231.14 930.16 C 229.33 934.44 231.46 938.98 233.26 942.88 C 237.00 948.68 244.46 950.92 251.05 950.86 C 300.38 950.82 349.70 950.82 399.03 950.85 C 414.93 950.60 430.85 951.41 446.72 950.19 C 445.99 950.90 445.26 951.62 444.54 952.36 C 359.68 952.34 274.83 952.27 189.98 952.53 C 184.37 952.43 178.75 952.75 173.15 952.36 C 198.45 927.60 223.19 902.25 248.26 877.25 C 360.85 764.19 473.62 651.30 586.20 538.23 Z" />
<path fill="#ffffff" opacity="1.00" d=" M 1095.85 704.04 C 1096.06 699.84 1094.90 695.30 1097.12 691.47 C 1096.86 778.37 1097.05 865.28 1097.02 952.18 C 1067.67 952.13 1038.32 952.18 1008.97 952.16 C 983.49 952.33 957.98 951.82 932.52 952.43 C 923.55 952.65 914.58 952.51 905.61 952.49 C 905.84 888.85 905.34 825.19 905.88 761.55 C 906.55 761.81 907.23 762.08 907.92 762.36 C 911.95 759.75 914.59 755.41 919.05 753.40 C 921.51 755.16 921.11 758.30 921.43 760.97 C 921.68 763.99 922.11 767.00 922.16 770.04 C 922.13 814.38 922.15 858.72 922.14 903.06 C 922.05 910.72 922.65 918.43 921.34 926.04 C 920.93 927.84 923.22 928.38 924.25 929.41 C 925.49 933.75 926.20 938.39 928.66 942.28 C 932.24 947.10 937.75 951.10 944.01 950.82 C 994.59 950.81 1045.17 950.94 1095.74 950.76 C 1095.98 868.52 1095.75 786.28 1095.85 704.04 Z" />
<path fill="#ffffff" opacity="1.00" d=" M 687.86 709.07 C 693.30 705.23 696.89 699.21 702.89 696.09 C 705.35 697.52 706.15 700.25 705.94 702.97 C 705.97 764.96 705.94 826.95 705.94 888.95 C 706.14 899.21 705.42 909.51 706.58 919.74 C 707.11 926.90 712.28 934.09 719.56 935.55 C 723.93 936.75 728.20 934.58 732.56 934.35 C 717.71 949.41 702.68 964.30 687.80 979.34 C 687.25 955.59 687.72 931.78 687.56 908.01 C 687.56 870.68 687.56 833.35 687.56 796.02 C 687.68 767.04 687.28 738.05 687.86 709.07 Z" />
</g>
<g id="#f5f5f5ff">
<path fill="#f5f5f5" opacity="1.00" d=" M 1072.49 355.72 C 1074.35 353.90 1076.98 352.77 1079.61 353.50 C 1083.27 354.36 1087.55 354.69 1090.14 357.80 C 1094.69 362.20 1096.39 368.79 1095.88 374.97 C 1095.78 472.31 1095.89 569.66 1095.82 667.00 C 1095.92 670.86 1095.12 674.99 1097.11 678.53 C 1097.45 682.83 1097.45 687.17 1097.12 691.47 C 1094.90 695.30 1096.06 699.84 1095.85 704.04 C 1095.75 786.28 1095.98 868.52 1095.74 950.76 C 1045.17 950.94 994.59 950.81 944.01 950.82 C 937.75 951.10 932.24 947.10 928.66 942.28 C 926.20 938.39 925.49 933.75 924.25 929.41 C 923.22 928.38 920.93 927.84 921.34 926.04 C 922.65 918.43 922.05 910.72 922.14 903.06 C 922.15 858.72 922.13 814.38 922.16 770.04 C 922.11 767.00 921.68 763.99 921.43 760.97 C 921.11 758.30 921.51 755.16 919.05 753.40 C 914.59 755.41 911.95 759.75 907.92 762.36 C 907.23 762.08 906.55 761.81 905.88 761.55 L 905.01 761.18 C 879.21 787.64 852.86 813.58 826.85 839.84 C 795.41 871.33 764.05 902.90 732.56 934.35 C 728.20 934.58 723.93 936.75 719.56 935.55 C 712.28 934.09 707.11 926.90 706.58 919.74 C 705.42 909.51 706.14 899.21 705.94 888.95 C 705.94 826.95 705.97 764.96 705.94 702.97 C 706.15 700.25 705.35 697.52 702.89 696.09 C 696.89 699.21 693.30 705.23 687.86 709.07 C 687.51 709.19 686.82 709.43 686.47 709.56 C 639.10 757.48 591.34 805.03 543.82 852.82 C 511.45 885.27 479.11 917.76 446.72 950.19 C 430.85 951.41 414.93 950.60 399.03 950.85 C 349.70 950.82 300.38 950.82 251.05 950.86 C 244.46 950.92 237.00 948.68 233.26 942.88 C 231.46 938.98 229.33 934.44 231.14 930.16 C 233.64 930.07 236.15 930.04 238.65 930.00 C 239.31 933.83 239.38 938.67 243.12 940.94 C 248.66 944.50 255.50 945.04 261.92 945.29 C 316.30 945.29 370.68 945.26 425.06 945.29 C 434.16 945.37 444.17 944.54 451.55 938.63 C 456.16 934.55 461.19 930.88 464.86 925.87 C 468.39 922.71 472.10 919.73 474.90 915.85 C 479.76 911.74 483.64 906.64 488.43 902.46 C 553.94 836.36 620.08 770.76 685.56 704.62 C 688.63 701.68 691.16 698.19 694.57 695.59 C 698.28 692.68 700.87 688.32 705.34 686.44 C 706.96 685.66 708.50 686.92 709.99 687.43 C 710.71 684.60 711.34 681.73 711.68 678.83 L 711.73 679.49 C 711.88 706.53 711.67 733.58 711.84 760.63 C 711.78 785.96 711.76 811.29 711.83 836.62 C 711.82 864.67 711.69 892.72 711.90 920.76 C 712.70 920.01 713.50 919.27 714.31 918.55 C 713.87 922.59 716.43 926.39 720.21 927.78 C 723.63 928.96 727.57 928.69 730.72 926.84 C 735.70 923.92 740.55 920.56 744.22 916.05 C 752.57 908.14 760.34 899.66 768.74 891.81 C 771.40 888.43 774.45 885.43 777.74 882.69 C 782.17 877.82 787.23 873.60 791.56 868.64 C 796.04 865.10 799.20 860.24 803.67 856.71 C 807.03 854.05 809.22 850.24 812.61 847.61 C 815.41 845.42 817.49 842.50 820.05 840.06 C 824.71 836.06 828.31 831.01 832.95 826.97 C 860.08 799.45 887.53 772.21 914.80 744.81 C 917.40 742.41 920.00 739.97 922.94 737.99 C 924.82 737.28 926.89 737.20 928.86 736.77 C 929.60 760.17 929.08 783.59 929.24 806.99 C 929.21 843.00 929.24 879.01 929.21 915.02 C 929.23 919.46 928.79 923.95 929.74 928.34 C 931.79 928.62 934.03 928.52 935.86 929.68 C 934.29 929.90 932.73 930.09 931.17 930.30 C 930.99 935.72 934.84 940.00 938.94 943.03 C 942.60 946.74 948.21 946.42 953.03 946.73 C 999.24 946.73 1045.45 946.82 1091.67 946.68 C 1091.65 760.46 1091.63 574.23 1091.67 388.01 C 1092.12 379.95 1090.55 371.81 1087.46 364.40 C 1084.34 360.73 1078.62 357.87 1074.01 360.53 C 1073.58 359.61 1073.18 358.69 1072.80 357.77 C 1072.72 357.26 1072.56 356.23 1072.49 355.72 Z" />
</g>
<g id="#61beefff">
<path fill="#61beef" opacity="1.00" d=" M 733.60 424.95 C 756.59 401.84 779.54 378.67 802.72 355.75 C 802.71 357.28 802.70 358.81 802.71 360.35 C 802.69 363.09 802.70 365.83 802.73 368.57 C 802.73 370.21 802.76 371.86 802.78 373.51 C 802.77 375.26 802.78 377.02 802.79 378.78 C 802.78 382.44 802.74 386.10 802.75 389.77 C 802.76 412.84 802.61 435.92 802.71 458.99 L 801.92 459.09 C 801.74 448.12 801.92 437.14 800.63 426.23 C 780.43 425.68 760.22 426.08 740.01 426.10 C 737.81 426.11 735.68 425.56 733.60 424.95 Z" />
<path fill="#61beef" opacity="1.00" d=" M 1072.49 355.72 C 1072.56 356.23 1072.72 357.26 1072.80 357.77 C 1072.81 361.07 1072.72 364.37 1072.78 367.68 L 1072.82 369.09 C 1072.84 371.86 1072.83 374.63 1072.85 377.40 C 1072.83 381.66 1072.81 385.91 1072.83 390.17 C 1072.76 408.21 1072.81 426.25 1072.72 444.29 C 1070.87 438.44 1070.82 432.29 1070.80 426.21 C 1049.44 425.57 1028.05 426.43 1006.69 425.84 C 1006.50 424.71 1006.32 423.58 1006.16 422.47 C 1028.19 400.15 1050.60 378.18 1072.49 355.72 Z" />
</g>
<g id="#e6e6e6ff">
<path fill="#e6e6e6" opacity="1.00" d=" M 1072.80 357.77 C 1073.18 358.69 1073.58 359.61 1074.01 360.53 C 1078.62 357.87 1084.34 360.73 1087.46 364.40 C 1090.55 371.81 1092.12 379.95 1091.67 388.01 C 1091.63 574.23 1091.65 760.46 1091.67 946.68 C 1045.45 946.82 999.24 946.73 953.03 946.73 C 948.21 946.42 942.60 946.74 938.94 943.03 C 934.84 940.00 930.99 935.72 931.17 930.30 C 932.73 930.09 934.29 929.90 935.86 929.68 C 937.11 932.65 938.23 936.03 941.17 937.79 C 945.05 940.19 949.33 942.48 954.03 942.42 C 992.34 942.42 1030.66 942.44 1068.98 942.41 C 1075.05 942.39 1081.13 942.61 1087.20 942.19 C 1087.69 918.81 1087.26 895.42 1087.41 872.04 C 1087.39 711.01 1087.42 549.98 1087.40 388.96 C 1087.32 382.18 1085.95 374.92 1081.55 369.55 C 1079.48 366.71 1075.77 367.63 1072.78 367.68 C 1072.72 364.37 1072.81 361.07 1072.80 357.77 Z" />
</g>
<g id="#27272762">
<path fill="#272727" opacity="0.38" d=" M 1097.24 357.62 C 1098.05 360.34 1097.83 363.20 1097.83 366.01 C 1097.84 453.68 1097.83 541.34 1097.84 629.01 C 1097.65 647.34 1098.27 665.69 1097.39 684.01 C 1098.27 708.32 1097.66 732.66 1097.84 756.98 C 1097.76 822.24 1098.00 887.50 1097.72 952.76 C 1072.51 953.36 1047.26 952.84 1022.04 953.02 C 995.38 953.01 968.72 953.03 942.06 953.01 C 938.86 953.01 935.63 953.25 932.52 952.43 C 957.98 951.82 983.49 952.33 1008.97 952.16 C 1038.32 952.18 1067.67 952.13 1097.02 952.18 C 1097.05 865.28 1096.86 778.37 1097.12 691.47 C 1097.45 687.17 1097.45 682.83 1097.11 678.53 C 1096.85 595.70 1097.07 512.86 1097.00 430.03 C 1097.16 405.89 1096.68 381.74 1097.24 357.62 Z" />
</g>
<g id="#e2e2e2ff">
<path fill="#e2e2e2" opacity="1.00" d=" M 802.71 360.35 C 806.41 360.30 810.46 360.01 813.60 362.37 C 818.53 365.51 820.43 371.48 820.96 377.01 C 821.57 383.99 821.77 391.01 821.70 398.02 C 821.72 463.68 821.71 529.33 821.69 594.99 C 821.53 598.41 823.37 601.41 824.85 604.36 C 822.24 607.07 819.50 609.64 816.86 612.32 C 814.94 606.39 815.60 600.12 815.52 594.00 C 815.51 524.34 815.52 454.68 815.50 385.02 C 815.62 381.01 815.06 377.03 813.93 373.20 C 813.44 373.63 812.96 374.07 812.49 374.51 C 812.18 372.80 811.89 371.09 811.61 369.38 C 808.69 368.70 805.71 368.44 802.73 368.57 C 802.70 365.83 802.69 363.09 802.71 360.35 Z" />
</g>
<g id="#cdcdcdff">
<path fill="#cdcdcd" opacity="1.00" d=" M 1072.78 367.68 C 1075.77 367.63 1079.48 366.71 1081.55 369.55 C 1085.95 374.92 1087.32 382.18 1087.40 388.96 C 1087.42 549.98 1087.39 711.01 1087.41 872.04 C 1087.26 895.42 1087.69 918.81 1087.20 942.19 C 1081.13 942.61 1075.05 942.39 1068.98 942.41 C 1030.66 942.44 992.34 942.42 954.03 942.42 C 949.33 942.48 945.05 940.19 941.17 937.79 C 938.23 936.03 937.11 932.65 935.86 929.68 C 934.03 928.52 931.79 928.62 929.74 928.34 C 933.87 928.28 938.04 928.82 942.15 928.04 C 942.28 928.20 942.56 928.51 942.70 928.67 C 941.16 929.25 939.63 929.81 938.11 930.42 C 941.67 936.47 949.04 940.11 956.03 939.61 C 995.01 939.53 1033.98 939.63 1072.96 939.57 C 1076.86 939.48 1080.79 939.46 1084.61 940.40 C 1084.39 755.27 1084.61 570.14 1084.49 385.01 C 1084.24 380.37 1083.30 375.43 1080.36 371.70 C 1078.18 370.08 1075.34 369.87 1072.82 369.09 L 1072.78 367.68 Z" />
</g>
<g id="#bdbdbdff">
<path fill="#bdbdbd" opacity="1.00" d=" M 802.73 368.57 C 805.71 368.44 808.69 368.70 811.61 369.38 C 811.89 371.09 812.18 372.80 812.49 374.51 C 812.96 374.07 813.44 373.63 813.93 373.20 C 815.06 377.03 815.62 381.01 815.50 385.02 C 815.52 454.68 815.51 524.34 815.52 594.00 C 815.60 600.12 814.94 606.39 816.86 612.32 C 815.49 613.69 814.12 615.06 812.76 616.43 C 811.34 587.65 812.80 558.80 811.92 530.00 C 812.69 502.33 811.65 474.65 812.20 446.99 C 812.19 430.98 812.18 414.98 812.21 398.97 C 811.91 391.76 812.59 384.12 809.60 377.37 C 808.55 374.54 805.39 373.94 802.78 373.51 C 802.76 371.86 802.73 370.21 802.73 368.57 Z" />
</g>
<g id="#b1b1b1ff">
<path fill="#b1b1b1" opacity="1.00" d=" M 1072.82 369.09 C 1075.34 369.87 1078.18 370.08 1080.36 371.70 C 1083.30 375.43 1084.24 380.37 1084.49 385.01 C 1084.61 570.14 1084.39 755.27 1084.61 940.40 C 1080.79 939.46 1076.86 939.48 1072.96 939.57 C 1033.98 939.63 995.01 939.53 956.03 939.61 C 949.04 940.11 941.67 936.47 938.11 930.42 C 939.63 929.81 941.16 929.25 942.70 928.67 L 942.82 928.78 C 946.58 934.36 953.86 935.27 960.04 935.48 C 1000.09 935.32 1040.14 935.67 1080.19 935.30 C 1080.59 886.22 1080.24 837.11 1080.36 788.02 C 1080.36 662.67 1080.36 537.31 1080.36 411.96 C 1080.08 402.31 1081.19 392.52 1079.16 382.99 C 1078.56 380.01 1076.22 376.89 1072.85 377.40 C 1072.83 374.63 1072.84 371.86 1072.82 369.09 Z" />
</g>
<g id="#a1a1a1ff">
<path fill="#a1a1a1" opacity="1.00" d=" M 802.78 373.51 C 805.39 373.94 808.55 374.54 809.60 377.37 C 812.59 384.12 811.91 391.76 812.21 398.97 C 812.18 414.98 812.19 430.98 812.20 446.99 C 811.65 474.65 812.69 502.33 811.92 530.00 C 812.80 558.80 811.34 587.65 812.76 616.43 C 812.01 617.15 811.28 617.88 810.57 618.62 C 808.41 612.35 808.83 605.58 808.73 599.05 C 808.74 530.04 808.75 461.03 808.71 392.02 C 808.77 387.27 808.50 382.02 805.00 378.41 C 804.45 378.50 803.34 378.68 802.79 378.78 C 802.78 377.02 802.77 375.26 802.78 373.51 Z" />
</g>
<g id="#858585ff">
<path fill="#858585" opacity="1.00" d=" M 1072.85 377.40 C 1076.22 376.89 1078.56 380.01 1079.16 382.99 C 1081.19 392.52 1080.08 402.31 1080.36 411.96 C 1080.36 537.31 1080.36 662.67 1080.36 788.02 C 1080.24 837.11 1080.59 886.22 1080.19 935.30 C 1040.14 935.67 1000.09 935.32 960.04 935.48 C 953.86 935.27 946.58 934.36 942.82 928.78 C 945.10 928.59 947.40 928.35 949.70 928.48 C 952.87 930.23 956.31 931.68 960.02 931.41 C 998.74 931.22 1037.47 931.64 1076.18 931.21 C 1076.43 757.80 1076.23 584.37 1076.29 410.96 C 1076.08 402.89 1077.01 394.51 1074.44 386.72 C 1073.85 387.85 1073.32 389.00 1072.83 390.17 C 1072.81 385.91 1072.83 381.66 1072.85 377.40 Z" />
</g>
<g id="#807f7fff">
<path fill="#807f7f" opacity="1.00" d=" M 802.79 378.78 C 803.34 378.68 804.45 378.50 805.00 378.41 C 808.50 382.02 808.77 387.27 808.71 392.02 C 808.75 461.03 808.74 530.04 808.73 599.05 C 808.83 605.58 808.41 612.35 810.57 618.62 C 809.38 619.83 808.20 621.05 807.02 622.26 C 804.81 617.10 805.47 611.43 805.38 605.98 C 805.32 536.32 805.43 466.66 805.38 397.01 C 805.34 394.40 805.11 391.80 804.86 389.21 C 804.33 389.35 803.28 389.63 802.75 389.77 C 802.74 386.10 802.78 382.44 802.79 378.78 Z" />
</g>
<g id="#6b6764ff">
<path fill="#6b6764" opacity="1.00" d=" M 1074.44 386.72 C 1077.01 394.51 1076.08 402.89 1076.29 410.96 C 1076.23 584.37 1076.43 757.80 1076.18 931.21 C 1037.47 931.64 998.74 931.22 960.02 931.41 C 956.31 931.68 952.87 930.23 949.70 928.48 C 990.90 928.36 1032.11 928.56 1073.31 928.39 C 1073.29 914.09 1073.53 899.78 1073.15 885.49 C 1073.50 873.16 1073.41 860.82 1073.15 848.50 C 1073.51 842.32 1073.28 836.14 1073.32 829.97 C 1073.34 818.29 1073.27 806.62 1073.37 794.96 C 1073.37 793.25 1073.11 791.58 1072.81 789.92 C 1072.54 777.51 1073.00 765.08 1072.62 752.66 C 1072.79 743.29 1072.91 733.91 1072.61 724.54 C 1072.79 709.23 1072.88 693.92 1072.66 678.62 C 1072.76 673.53 1072.86 668.45 1072.67 663.37 C 1072.72 640.41 1073.00 617.43 1072.66 594.47 C 1072.65 569.81 1073.01 545.13 1072.63 520.48 C 1072.75 495.09 1072.83 469.69 1072.72 444.29 C 1072.81 426.25 1072.76 408.21 1072.83 390.17 C 1073.32 389.00 1073.85 387.85 1074.44 386.72 Z" />
</g>
<g id="#636667ff">
<path fill="#636667" opacity="1.00" d=" M 802.75 389.77 C 803.28 389.63 804.33 389.35 804.86 389.21 C 805.11 391.80 805.34 394.40 805.38 397.01 C 805.43 466.66 805.32 536.32 805.38 605.98 C 805.47 611.43 804.81 617.10 807.02 622.26 C 805.54 623.76 804.05 625.23 802.56 626.70 C 802.57 624.99 802.59 623.30 802.55 621.60 C 802.69 608.26 802.85 594.91 802.57 581.57 C 802.69 567.33 802.84 553.07 802.59 538.83 C 802.73 512.22 802.77 485.60 802.71 458.99 C 802.61 435.92 802.76 412.84 802.75 389.77 Z" />
</g>
<g id="#5bb6e6ff">
<path fill="#5bb6e6" opacity="1.00" d=" M 976.53 452.30 C 986.29 442.24 996.32 432.45 1006.16 422.47 C 1006.32 423.58 1006.50 424.71 1006.69 425.84 C 1028.05 426.43 1049.44 425.57 1070.80 426.21 C 1070.82 432.29 1070.87 438.44 1072.72 444.29 C 1072.83 469.69 1072.75 495.09 1072.63 520.48 L 1072.21 519.38 C 1071.70 508.24 1072.38 497.05 1071.12 485.95 C 1070.72 477.36 1071.14 468.76 1070.72 460.18 C 1037.82 459.87 1004.90 460.39 972.01 459.92 C 973.69 457.51 977.08 455.64 976.53 452.30 Z" />
<path fill="#5bb6e6" opacity="1.00" d=" M 704.47 454.26 C 714.06 444.37 723.91 434.73 733.60 424.95 C 735.68 425.56 737.81 426.11 740.01 426.10 C 760.22 426.08 780.43 425.68 800.63 426.23 C 801.92 437.14 801.74 448.12 801.92 459.09 C 801.79 469.41 802.27 479.77 801.42 490.07 C 800.48 480.14 801.21 470.16 800.76 460.21 C 767.92 459.80 735.06 460.44 702.21 459.91 C 703.39 458.20 704.95 456.51 704.47 454.26 Z" />
</g>
<g id="#56adddff">
<path fill="#56addd" opacity="1.00" d=" M 926.59 502.38 C 943.15 485.60 959.84 468.94 976.53 452.30 C 977.08 455.64 973.69 457.51 972.01 459.92 C 1004.90 460.39 1037.82 459.87 1070.72 460.18 C 1071.14 468.76 1070.72 477.36 1071.12 485.95 C 1072.38 497.05 1071.70 508.24 1072.21 519.38 C 1071.49 525.59 1072.13 531.84 1071.49 538.05 C 1070.64 529.11 1071.19 520.09 1070.66 511.13 C 1020.77 510.64 970.87 511.31 920.98 510.79 C 922.83 508.03 927.10 506.15 926.59 502.38 Z" />
<path fill="#56addd" opacity="1.00" d=" M 655.53 503.35 C 671.75 486.90 688.11 470.58 704.47 454.26 C 704.95 456.51 703.39 458.20 702.21 459.91 C 735.06 460.44 767.92 459.80 800.76 460.21 C 801.21 470.16 800.48 480.14 801.42 490.07 C 802.27 479.77 801.79 469.41 801.92 459.09 L 802.71 458.99 C 802.77 485.60 802.73 512.22 802.59 538.83 C 800.52 535.94 801.11 532.36 801.04 529.04 C 800.95 523.09 800.95 517.15 800.79 511.21 C 750.88 510.62 700.94 511.42 651.03 510.86 C 652.66 508.49 656.22 506.66 655.53 503.35 Z" />
</g>
<g id="#50a4d3ff">
<path fill="#50a4d3" opacity="1.00" d=" M 888.74 540.30 C 901.30 527.60 913.93 514.97 926.59 502.38 C 927.10 506.15 922.83 508.03 920.98 510.79 C 970.87 511.31 1020.77 510.64 1070.66 511.13 C 1071.19 520.09 1070.64 529.11 1071.49 538.05 C 1072.13 531.84 1071.49 525.59 1072.21 519.38 L 1072.63 520.48 C 1073.01 545.13 1072.65 569.81 1072.66 594.47 L 1072.11 593.42 C 1072.04 586.91 1070.96 580.46 1071.04 573.95 C 1070.96 565.35 1071.09 556.75 1070.74 548.17 C 1010.83 547.95 950.91 548.16 890.99 548.09 C 888.68 548.06 886.38 547.96 884.09 547.85 C 885.91 545.52 888.74 543.55 888.74 540.30 Z" />
</g>
<g id="#4fa3d2ff">
<path fill="#4fa3d2" opacity="1.00" d=" M 614.76 544.27 C 628.24 530.52 641.91 516.96 655.53 503.35 C 656.22 506.66 652.66 508.49 651.03 510.86 C 700.94 511.42 750.88 510.62 800.79 511.21 C 800.95 517.15 800.95 523.09 801.04 529.04 C 801.11 532.36 800.52 535.94 802.59 538.83 C 802.84 553.07 802.69 567.33 802.57 581.57 C 801.81 580.11 800.89 578.67 801.05 576.96 C 800.92 571.36 801.24 565.75 800.80 560.16 C 777.85 559.67 754.89 560.20 731.93 559.94 C 699.62 560.04 667.31 559.95 634.99 559.97 C 624.01 559.86 613.01 560.27 602.04 559.77 C 605.43 555.58 609.69 552.21 613.28 548.20 C 614.35 547.17 614.34 545.58 614.76 544.27 Z" />
</g>
<g id="#4a9bc9ff">
<path fill="#4a9bc9" opacity="1.00" d=" M 853.80 575.38 C 865.33 563.57 877.07 551.97 888.74 540.30 C 888.74 543.55 885.91 545.52 884.09 547.85 C 886.38 547.96 888.68 548.06 890.99 548.09 C 950.91 548.16 1010.83 547.95 1070.74 548.17 C 1071.09 556.75 1070.96 565.35 1071.04 573.95 C 1070.96 580.46 1072.04 586.91 1072.11 593.42 C 1071.48 602.63 1072.28 611.89 1071.42 621.09 C 1070.64 614.81 1071.38 608.49 1070.79 602.21 C 1059.89 601.55 1048.95 602.11 1038.04 601.93 C 968.71 601.86 899.38 602.12 830.06 601.81 C 835.72 595.55 841.88 589.77 847.78 583.74 C 850.11 581.22 853.50 579.14 853.80 575.38 Z" />
</g>
<g id="#499ac8ff">
<path fill="#499ac8" opacity="1.00" d=" M 573.82 585.30 C 587.36 571.53 601.06 557.89 614.76 544.27 C 614.34 545.58 614.35 547.17 613.28 548.20 C 609.69 552.21 605.43 555.58 602.04 559.77 C 613.01 560.27 624.01 559.86 634.99 559.97 C 667.31 559.95 699.62 560.04 731.93 559.94 C 754.89 560.20 777.85 559.67 800.80 560.16 C 801.24 565.75 800.92 571.36 801.05 576.96 C 800.89 578.67 801.81 580.11 802.57 581.57 C 802.85 594.91 802.69 608.26 802.55 621.60 C 800.55 619.18 801.11 615.97 801.02 613.08 C 801.00 607.44 800.97 601.80 800.75 596.17 C 752.81 595.88 704.87 596.11 656.93 596.07 C 626.61 595.80 596.27 596.35 565.96 595.81 C 568.45 592.20 573.36 590.05 573.82 585.30 Z" />
</g>
<g id="#4492c0ff">
<path fill="#4492c0" opacity="1.00" d=" M 824.85 604.36 C 834.45 594.65 844.07 584.96 853.80 575.38 C 853.50 579.14 850.11 581.22 847.78 583.74 C 841.88 589.77 835.72 595.55 830.06 601.81 C 899.38 602.12 968.71 601.86 1038.04 601.93 C 1048.95 602.11 1059.89 601.55 1070.79 602.21 C 1071.38 608.49 1070.64 614.81 1071.42 621.09 C 1072.28 611.89 1071.48 602.63 1072.11 593.42 L 1072.66 594.47 C 1073.00 617.43 1072.72 640.41 1072.67 663.37 C 1071.48 655.35 1071.03 647.24 1070.78 639.15 C 1044.89 638.73 1018.98 639.13 993.08 638.99 C 836.57 638.90 680.07 639.07 523.56 638.91 C 523.86 637.62 524.08 636.31 524.22 635.00 C 540.68 618.36 557.22 601.80 573.82 585.30 C 573.36 590.05 568.45 592.20 565.96 595.81 C 596.27 596.35 626.61 595.80 656.93 596.07 C 704.87 596.11 752.81 595.88 800.75 596.17 C 800.97 601.80 801.00 607.44 801.02 613.08 C 801.11 615.97 800.55 619.18 802.55 621.60 C 802.59 623.30 802.57 624.99 802.56 626.70 C 804.05 625.23 805.54 623.76 807.02 622.26 C 808.20 621.05 809.38 619.83 810.57 618.62 C 811.28 617.88 812.01 617.15 812.76 616.43 C 814.12 615.06 815.49 613.69 816.86 612.32 C 819.50 609.64 822.24 607.07 824.85 604.36 Z" />
</g>
<g id="#3f8ab8ff">
<path fill="#3f8ab8" opacity="1.00" d=" M 491.45 667.82 C 502.35 656.85 513.25 645.89 524.22 635.00 C 524.08 636.31 523.86 637.62 523.56 638.91 C 680.07 639.07 836.57 638.90 993.08 638.99 C 1018.98 639.13 1044.89 638.73 1070.78 639.15 C 1071.03 647.24 1071.48 655.35 1072.67 663.37 C 1072.86 668.45 1072.76 673.53 1072.66 678.62 C 1070.14 676.07 1071.01 672.31 1070.74 669.10 C 951.49 668.84 832.23 669.17 712.97 668.95 C 712.53 662.46 713.11 655.92 712.24 649.47 C 704.59 656.54 697.49 664.20 690.05 671.50 C 689.80 670.70 689.55 669.90 689.31 669.12 C 634.56 668.85 579.80 669.17 525.05 668.97 C 516.36 669.10 507.67 668.87 498.98 669.09 C 496.40 669.22 493.85 668.74 491.45 667.82 Z" />
</g>
<g id="#525252ff">
<path fill="#525252" opacity="1.00" d=" M 690.05 671.50 C 697.49 664.20 704.59 656.54 712.24 649.47 C 712.03 651.96 711.87 654.46 711.84 656.97 C 702.58 661.57 696.06 669.74 688.78 676.77 C 640.83 724.84 592.81 772.84 544.82 820.86 C 541.16 824.22 538.22 828.29 534.38 831.46 C 531.25 834.03 529.21 837.65 526.04 840.19 C 521.77 843.53 518.77 848.15 514.60 851.61 C 502.02 864.37 489.48 877.17 476.67 889.71 C 468.19 898.55 459.43 907.13 450.67 915.68 C 446.47 918.45 444.30 924.64 438.47 924.21 C 445.74 916.11 453.84 908.80 461.32 900.88 C 475.08 887.09 488.96 873.42 502.56 859.47 C 512.55 849.53 522.67 839.69 532.36 829.47 C 542.77 819.38 553.01 809.08 563.09 798.66 C 572.54 789.42 581.96 780.13 591.09 770.57 C 599.45 762.50 607.67 754.28 615.75 745.92 C 627.84 733.98 639.87 721.98 651.75 709.83 C 664.59 697.12 677.31 684.30 690.05 671.50 Z" />
</g>
<g id="#377daaff">
<path fill="#377daa" opacity="1.00" d=" M 712.24 649.47 C 713.11 655.92 712.53 662.46 712.97 668.95 C 713.22 674.84 712.75 680.77 713.54 686.64 C 714.15 691.01 714.13 695.44 714.20 699.85 C 780.11 700.24 846.03 699.85 911.94 700.03 C 917.62 700.06 923.31 699.83 928.99 700.19 C 927.29 702.50 923.93 704.27 924.41 707.54 C 912.23 719.98 899.88 732.27 887.51 744.52 C 888.21 741.04 891.59 739.19 893.25 736.23 C 879.84 735.52 866.38 736.22 852.95 735.95 C 806.69 735.93 760.44 735.97 714.18 735.95 C 714.05 734.52 713.86 733.10 713.63 731.70 C 712.43 735.67 712.77 739.85 712.75 743.95 C 712.78 749.81 712.61 755.67 712.85 761.54 L 711.84 760.63 C 711.67 733.58 711.88 706.53 711.73 679.49 C 712.38 675.82 712.27 672.09 711.96 668.39 C 711.87 666.59 711.84 664.79 711.83 662.99 C 711.82 660.98 711.81 658.97 711.84 656.97 C 711.87 654.46 712.03 651.96 712.24 649.47 Z" />
</g>
<g id="#6d6969ff">
<path fill="#6d6969" opacity="1.00" d=" M 688.78 676.77 C 696.06 669.74 702.58 661.57 711.84 656.97 C 711.81 658.97 711.82 660.98 711.83 662.99 C 708.10 665.14 704.01 666.81 700.86 669.82 C 680.72 690.01 660.56 710.20 640.41 730.38 C 633.37 737.01 627.34 744.59 620.29 751.22 C 587.28 784.23 554.24 817.22 521.33 850.32 C 517.29 855.57 511.89 859.49 507.62 864.53 C 502.71 868.31 499.32 873.61 494.47 877.45 C 491.80 879.80 489.89 882.90 487.07 885.11 C 484.87 886.86 482.86 888.85 481.13 891.07 C 478.62 894.24 475.08 896.37 472.57 899.55 C 469.75 903.09 465.83 905.54 463.07 909.13 C 460.57 912.29 457.16 914.54 454.55 917.59 C 450.44 922.50 445.33 926.63 439.64 929.57 C 434.55 932.41 428.57 931.57 422.99 932.04 C 405.69 931.54 388.38 931.85 371.07 931.77 C 357.70 931.95 344.32 931.58 330.95 931.86 C 325.31 932.46 319.68 931.54 314.04 931.92 C 308.71 932.31 303.37 931.41 298.04 931.92 C 292.05 932.50 286.06 931.54 280.06 931.79 C 274.97 931.71 269.82 932.10 264.78 931.26 C 263.10 931.20 262.29 929.66 261.40 928.51 C 318.93 928.34 376.47 928.59 434.00 928.40 C 435.50 927.01 437.02 925.65 438.47 924.21 C 444.30 924.64 446.47 918.45 450.67 915.68 C 459.43 907.13 468.19 898.55 476.67 889.71 C 489.48 877.17 502.02 864.37 514.60 851.61 C 518.77 848.15 521.77 843.53 526.04 840.19 C 529.21 837.65 531.25 834.03 534.38 831.46 C 538.22 828.29 541.16 824.22 544.82 820.86 C 592.81 772.84 640.83 724.84 688.78 676.77 Z" />
</g>
<g id="#898989ff">
<path fill="#898989" opacity="1.00" d=" M 700.86 669.82 C 704.01 666.81 708.10 665.14 711.83 662.99 C 711.84 664.79 711.87 666.59 711.96 668.39 C 707.08 669.79 703.49 673.53 699.75 676.74 C 678.84 697.46 658.18 718.44 637.30 739.20 C 626.12 750.08 615.55 761.54 604.40 772.41 C 600.76 777.11 595.60 780.30 592.07 785.11 C 586.83 789.54 582.56 794.93 577.36 799.40 C 574.35 803.35 570.36 806.33 566.91 809.86 C 563.67 814.30 558.81 817.14 555.55 821.55 C 522.29 855.28 488.63 888.65 455.21 922.24 C 451.68 925.69 448.11 929.18 443.95 931.87 C 438.73 934.56 432.73 935.37 426.92 935.42 C 374.62 935.42 322.32 935.43 270.03 935.42 C 264.51 935.25 258.36 935.00 254.05 931.09 C 254.65 930.20 255.26 929.33 255.88 928.47 C 257.71 928.47 259.55 928.51 261.40 928.51 C 262.29 929.66 263.10 931.20 264.78 931.26 C 269.82 932.10 274.97 931.71 280.06 931.79 C 286.06 931.54 292.05 932.50 298.04 931.92 C 303.37 931.41 308.71 932.31 314.04 931.92 C 319.68 931.54 325.31 932.46 330.95 931.86 C 344.32 931.58 357.70 931.95 371.07 931.77 C 388.38 931.85 405.69 931.54 422.99 932.04 C 428.57 931.57 434.55 932.41 439.64 929.57 C 445.33 926.63 450.44 922.50 454.55 917.59 C 457.16 914.54 460.57 912.29 463.07 909.13 C 465.83 905.54 469.75 903.09 472.57 899.55 C 475.08 896.37 478.62 894.24 481.13 891.07 C 482.86 888.85 484.87 886.86 487.07 885.11 C 489.89 882.90 491.80 879.80 494.47 877.45 C 499.32 873.61 502.71 868.31 507.62 864.53 C 511.89 859.49 517.29 855.57 521.33 850.32 C 554.24 817.22 587.28 784.23 620.29 751.22 C 627.34 744.59 633.37 737.01 640.41 730.38 C 660.56 710.20 680.72 690.01 700.86 669.82 Z" />
</g>
<g id="#3b84b1ff">
<path fill="#3b84b1" opacity="1.00" d=" M 454.52 704.88 C 466.79 692.48 479.14 680.17 491.45 667.82 C 493.85 668.74 496.40 669.22 498.98 669.09 C 507.67 668.87 516.36 669.10 525.05 668.97 C 579.80 669.17 634.56 668.85 689.31 669.12 C 689.55 669.90 689.80 670.70 690.05 671.50 C 677.31 684.30 664.59 697.12 651.75 709.83 C 651.95 708.55 652.16 707.29 652.38 706.03 C 587.92 705.90 523.45 706.00 458.99 705.93 C 457.45 705.82 455.98 705.29 454.52 704.88 Z" />
<path fill="#3b84b1" opacity="1.00" d=" M 712.97 668.95 C 832.23 669.17 951.49 668.84 1070.74 669.10 C 1071.01 672.31 1070.14 676.07 1072.66 678.62 C 1072.88 693.92 1072.79 709.23 1072.61 724.54 C 1070.67 721.75 1071.10 718.26 1070.83 715.07 C 1030.22 714.68 989.58 715.02 948.96 714.89 C 943.03 714.90 937.07 714.62 931.18 715.44 C 931.08 710.88 931.15 706.31 930.89 701.76 C 930.58 701.92 929.98 702.24 929.68 702.41 C 927.82 704.02 926.12 705.79 924.41 707.54 C 923.93 704.27 927.29 702.50 928.99 700.19 C 923.31 699.83 917.62 700.06 911.94 700.03 C 846.03 699.85 780.11 700.24 714.20 699.85 C 714.13 695.44 714.15 691.01 713.54 686.64 C 712.75 680.77 713.22 674.84 712.97 668.95 Z" />
</g>
<g id="#adadadff">
<path fill="#adadad" opacity="1.00" d=" M 699.75 676.74 C 703.49 673.53 707.08 669.79 711.96 668.39 C 712.27 672.09 712.38 675.82 711.73 679.49 L 711.68 678.83 L 711.57 677.72 C 711.39 676.46 711.22 675.21 711.03 673.97 C 707.26 675.10 703.93 677.27 701.24 680.11 C 659.07 722.30 616.91 764.51 574.74 806.71 C 557.69 823.35 541.74 841.03 524.57 857.54 C 501.21 881.20 477.61 904.63 454.12 928.17 C 447.97 934.71 439.17 939.24 430.03 938.77 C 375.69 938.85 321.35 938.83 267.00 938.77 C 261.86 938.77 256.39 938.68 251.77 936.14 C 249.37 934.76 248.63 931.93 247.62 929.57 C 248.08 929.33 249.00 928.85 249.46 928.61 C 251.60 928.46 253.74 928.43 255.88 928.47 C 255.26 929.33 254.65 930.20 254.05 931.09 C 258.36 935.00 264.51 935.25 270.03 935.42 C 322.32 935.43 374.62 935.42 426.92 935.42 C 432.73 935.37 438.73 934.56 443.95 931.87 C 448.11 929.18 451.68 925.69 455.21 922.24 C 488.63 888.65 522.29 855.28 555.55 821.55 C 558.81 817.14 563.67 814.30 566.91 809.86 C 570.36 806.33 574.35 803.35 577.36 799.40 C 582.56 794.93 586.83 789.54 592.07 785.11 C 595.60 780.30 600.76 777.11 604.40 772.41 C 615.55 761.54 626.12 750.08 637.30 739.20 C 658.18 718.44 678.84 697.46 699.75 676.74 Z" />
</g>
<g id="#c7c7c7ff">
<path fill="#c7c7c7" opacity="1.00" d=" M 701.24 680.11 C 703.93 677.27 707.26 675.10 711.03 673.97 C 711.22 675.21 711.39 676.46 711.57 677.72 C 701.13 682.53 692.89 691.00 685.71 699.75 C 618.70 766.73 551.77 833.79 484.81 900.82 C 474.56 911.23 464.19 921.53 453.78 931.78 C 447.66 936.98 440.35 941.85 432.01 941.79 C 375.35 941.98 318.71 941.89 262.06 941.84 C 256.65 941.83 250.71 941.26 246.49 937.50 C 244.41 935.89 243.10 932.79 244.20 930.30 C 245.33 930.03 246.47 929.78 247.62 929.57 C 248.63 931.93 249.37 934.76 251.77 936.14 C 256.39 938.68 261.86 938.77 267.00 938.77 C 321.35 938.83 375.69 938.85 430.03 938.77 C 439.17 939.24 447.97 934.71 454.12 928.17 C 477.61 904.63 501.21 881.20 524.57 857.54 C 541.74 841.03 557.69 823.35 574.74 806.71 C 616.91 764.51 659.07 722.30 701.24 680.11 Z" />
</g>
<g id="#dfdfdfff">
<path fill="#dfdfdf" opacity="1.00" d=" M 685.71 699.75 C 692.89 691.00 701.13 682.53 711.57 677.72 L 711.68 678.83 C 711.34 681.73 710.71 684.60 709.99 687.43 C 708.50 686.92 706.96 685.66 705.34 686.44 C 700.87 688.32 698.28 692.68 694.57 695.59 C 691.16 698.19 688.63 701.68 685.56 704.62 C 620.08 770.76 553.94 836.36 488.43 902.46 C 483.64 906.64 479.76 911.74 474.90 915.85 C 472.10 919.73 468.39 922.71 464.86 925.87 C 461.19 930.88 456.16 934.55 451.55 938.63 C 444.17 944.54 434.16 945.37 425.06 945.29 C 370.68 945.26 316.30 945.29 261.92 945.29 C 255.50 945.04 248.66 944.50 243.12 940.94 C 239.38 938.67 239.31 933.83 238.65 930.00 C 240.91 929.81 243.09 929.14 245.24 928.46 C 246.65 928.46 248.05 928.51 249.46 928.61 C 249.00 928.85 248.08 929.33 247.62 929.57 C 246.47 929.78 245.33 930.03 244.20 930.30 C 243.10 932.79 244.41 935.89 246.49 937.50 C 250.71 941.26 256.65 941.83 262.06 941.84 C 318.71 941.89 375.35 941.98 432.01 941.79 C 440.35 941.85 447.66 936.98 453.78 931.78 C 464.19 921.53 474.56 911.23 484.81 900.82 C 551.77 833.79 618.70 766.73 685.71 699.75 Z" />
</g>
<g id="#357ba7ff">
<path fill="#357ba7" opacity="1.00" d=" M 929.68 702.41 C 929.98 702.24 930.58 701.92 930.89 701.76 C 931.15 706.31 931.08 710.88 931.18 715.44 C 937.07 714.62 943.03 714.90 948.96 714.89 C 989.58 715.02 1030.22 714.68 1070.83 715.07 C 1071.10 718.26 1070.67 721.75 1072.61 724.54 C 1072.91 733.91 1072.79 743.29 1072.62 752.66 C 1070.14 749.72 1071.17 745.69 1070.85 742.19 C 1024.65 741.67 978.43 742.35 932.23 741.87 C 932.02 733.41 932.20 724.89 930.34 716.57 C 930.18 715.05 930.11 713.52 930.11 712.00 C 930.21 708.79 930.30 705.56 929.68 702.41 Z" />
</g>
<g id="#585959ff">
<path fill="#585959" opacity="1.00" d=" M 924.41 707.54 C 926.12 705.79 927.82 704.02 929.68 702.41 C 930.30 705.56 930.21 708.79 930.11 712.00 C 927.32 713.05 924.37 714.02 922.23 716.18 C 908.68 729.66 895.21 743.22 881.69 756.73 C 873.41 764.75 865.62 773.27 857.01 780.95 C 853.56 785.53 848.64 788.63 845.12 793.12 C 842.53 796.23 838.87 798.24 836.56 801.60 C 834.08 805.14 830.13 807.21 827.53 810.64 C 824.57 814.64 819.97 816.99 817.10 821.08 C 794.77 844.04 771.89 866.50 749.31 889.23 C 744.23 893.88 739.99 899.60 733.96 903.08 C 732.64 904.04 731.03 903.39 729.60 903.25 C 735.17 897.39 741.09 891.87 746.62 885.97 C 756.21 876.54 765.68 866.99 775.13 857.43 C 785.55 846.92 796.10 836.55 806.43 825.95 C 818.37 814.04 830.30 802.11 842.18 790.13 C 852.52 779.67 863.00 769.34 873.32 758.85 C 878.06 754.09 882.90 749.42 887.51 744.52 C 899.88 732.27 912.23 719.98 924.41 707.54 Z" />
</g>
<g id="#377da9ff">
<path fill="#377da9" opacity="1.00" d=" M 428.39 731.14 C 437.03 722.32 445.82 713.64 454.52 704.88 C 455.98 705.29 457.45 705.82 458.99 705.93 C 523.45 706.00 587.92 705.90 652.38 706.03 C 652.16 707.29 651.95 708.55 651.75 709.83 C 639.87 721.98 627.84 733.98 615.75 745.92 C 615.74 744.77 615.72 743.52 616.73 742.76 C 618.82 740.57 621.06 738.52 623.02 736.21 C 600.37 735.65 577.69 736.10 555.03 735.98 C 527.01 735.88 498.99 736.03 470.98 735.95 C 456.04 736.37 441.05 735.31 426.15 736.49 C 427.24 734.86 428.78 733.28 428.39 731.14 Z" />
</g>
<g id="#737373ff">
<path fill="#737373" opacity="1.00" d=" M 922.23 716.18 C 924.37 714.02 927.32 713.05 930.11 712.00 C 930.11 713.52 930.18 715.05 930.34 716.57 C 921.65 720.21 916.08 728.10 909.33 734.27 C 858.67 784.97 808.01 835.69 757.44 886.47 C 754.44 889.18 752.17 892.61 749.02 895.17 C 742.95 900.13 738.25 906.89 731.10 910.45 C 728.59 911.54 726.28 909.97 724.83 908.00 C 726.41 906.40 728.00 904.83 729.60 903.25 C 731.03 903.39 732.64 904.04 733.96 903.08 C 739.99 899.60 744.23 893.88 749.31 889.23 C 771.89 866.50 794.77 844.04 817.10 821.08 C 819.97 816.99 824.57 814.64 827.53 810.64 C 830.13 807.21 834.08 805.14 836.56 801.60 C 838.87 798.24 842.53 796.23 845.12 793.12 C 848.64 788.63 853.56 785.53 857.01 780.95 C 865.62 773.27 873.41 764.75 881.69 756.73 C 895.21 743.22 908.68 729.66 922.23 716.18 Z" />
</g>
<g id="#9a9a9aff">
<path fill="#9a9a9a" opacity="1.00" d=" M 909.33 734.27 C 916.08 728.10 921.65 720.21 930.34 716.57 C 930.22 720.09 930.22 723.61 930.23 727.13 C 929.78 726.08 929.32 725.04 928.86 724.02 C 921.45 727.43 916.26 733.97 910.52 739.53 C 856.07 794.06 801.65 848.64 747.17 903.15 C 741.35 908.58 736.34 915.53 728.62 918.35 C 724.60 919.66 721.53 916.27 719.21 913.55 C 721.06 911.67 722.97 909.87 724.83 908.00 C 726.28 909.97 728.59 911.54 731.10 910.45 C 738.25 906.89 742.95 900.13 749.02 895.17 C 752.17 892.61 754.44 889.18 757.44 886.47 C 808.01 835.69 858.67 784.97 909.33 734.27 Z" />
</g>
<g id="#3174a1ff">
<path fill="#3174a1" opacity="1.00" d=" M 930.34 716.57 C 932.20 724.89 932.02 733.41 932.23 741.87 C 978.43 742.35 1024.65 741.67 1070.85 742.19 C 1071.17 745.69 1070.14 749.72 1072.62 752.66 C 1073.00 765.08 1072.54 777.51 1072.81 789.92 C 1069.48 787.53 1071.49 782.64 1070.76 779.15 C 1024.42 778.92 978.07 779.18 931.72 779.03 C 931.71 776.70 931.62 774.37 931.51 772.06 C 930.83 782.50 931.68 793.02 930.34 803.42 C 929.91 780.39 930.36 757.34 930.20 734.30 C 930.20 731.90 930.27 729.52 930.23 727.13 C 930.22 723.61 930.22 720.09 930.34 716.57 Z" />
</g>
<g id="#bfbfbfff">
<path fill="#bfbfbf" opacity="1.00" d=" M 910.52 739.53 C 916.26 733.97 921.45 727.43 928.86 724.02 C 929.32 725.04 929.78 726.08 930.23 727.13 C 930.27 729.52 930.20 731.90 930.20 734.30 C 929.73 732.59 929.19 730.91 928.67 729.23 C 921.30 731.66 916.65 738.11 911.28 743.26 C 895.59 758.92 879.88 774.55 864.25 790.26 C 851.35 803.33 838.06 816.04 825.49 829.43 C 823.03 831.65 820.49 833.80 818.46 836.44 C 815.95 839.62 812.38 841.74 809.87 844.93 C 807.23 848.27 803.65 850.67 800.85 853.87 C 797.29 858.01 792.81 861.23 789.46 865.57 C 785.99 868.76 782.51 871.92 779.54 875.60 C 774.49 879.53 770.85 884.88 765.79 888.79 C 761.29 894.26 755.84 898.81 751.15 904.11 C 746.01 907.97 742.49 913.48 737.31 917.30 C 733.48 921.19 727.80 925.03 722.15 922.88 C 718.93 921.94 717.89 918.56 717.12 915.70 C 717.81 914.97 718.50 914.25 719.21 913.55 C 721.53 916.27 724.60 919.66 728.62 918.35 C 736.34 915.53 741.35 908.58 747.17 903.15 C 801.65 848.64 856.07 794.06 910.52 739.53 Z" />
</g>
<g id="#dadadaff">
<path fill="#dadada" opacity="1.00" d=" M 911.28 743.26 C 916.65 738.11 921.30 731.66 928.67 729.23 C 929.19 730.91 929.73 732.59 930.20 734.30 C 930.36 757.34 929.91 780.39 930.34 803.42 C 930.21 833.93 930.27 864.44 930.21 894.96 C 929.94 906.08 930.73 917.26 929.74 928.34 C 928.79 923.95 929.23 919.46 929.21 915.02 C 929.24 879.01 929.21 843.00 929.24 806.99 C 929.08 783.59 929.60 760.17 928.86 736.77 C 926.89 737.20 924.82 737.28 922.94 737.99 C 920.00 739.97 917.40 742.41 914.80 744.81 C 887.53 772.21 860.08 799.45 832.95 826.97 C 828.31 831.01 824.71 836.06 820.05 840.06 C 817.49 842.50 815.41 845.42 812.61 847.61 C 809.22 850.24 807.03 854.05 803.67 856.71 C 799.20 860.24 796.04 865.10 791.56 868.64 C 787.23 873.60 782.17 877.82 777.74 882.69 C 774.45 885.43 771.40 888.43 768.74 891.81 C 760.34 899.66 752.57 908.14 744.22 916.05 C 740.55 920.56 735.70 923.92 730.72 926.84 C 727.57 928.69 723.63 928.96 720.21 927.78 C 716.43 926.39 713.87 922.59 714.31 918.55 C 715.26 917.61 716.18 916.64 717.12 915.70 C 717.89 918.56 718.93 921.94 722.15 922.88 C 727.80 925.03 733.48 921.19 737.31 917.30 C 742.49 913.48 746.01 907.97 751.15 904.11 C 755.84 898.81 761.29 894.26 765.79 888.79 C 770.85 884.88 774.49 879.53 779.54 875.60 C 782.51 871.92 785.99 868.76 789.46 865.57 C 792.81 861.23 797.29 858.01 800.85 853.87 C 803.65 850.67 807.23 848.27 809.87 844.93 C 812.38 841.74 815.95 839.62 818.46 836.44 C 820.49 833.80 823.03 831.65 825.49 829.43 C 838.06 816.04 851.35 803.33 864.25 790.26 C 879.88 774.55 895.59 758.92 911.28 743.26 Z" />
</g>
<g id="#3376a3ff">
<path fill="#3376a3" opacity="1.00" d=" M 400.22 759.38 C 409.59 749.95 418.97 740.52 428.39 731.14 C 428.78 733.28 427.24 734.86 426.15 736.49 C 441.05 735.31 456.04 736.37 470.98 735.95 C 498.99 736.03 527.01 735.88 555.03 735.98 C 577.69 736.10 600.37 735.65 623.02 736.21 C 621.06 738.52 618.82 740.57 616.73 742.76 C 615.72 743.52 615.74 744.77 615.75 745.92 C 607.67 754.28 599.45 762.50 591.09 770.57 C 591.49 767.43 593.98 765.39 595.95 763.18 C 530.86 762.71 465.75 763.19 400.65 762.91 C 400.51 761.73 400.35 760.55 400.22 759.38 Z" />
</g>
<g id="#30729eff">
<path fill="#30729e" opacity="1.00" d=" M 712.75 743.95 C 712.77 739.85 712.43 735.67 713.63 731.70 C 713.86 733.10 714.05 734.52 714.18 735.95 C 714.20 743.23 714.04 750.51 714.23 757.80 C 734.48 758.37 754.77 757.81 775.03 758.01 C 802.35 757.98 829.66 757.99 856.98 758.00 C 862.42 758.13 867.98 757.40 873.32 758.85 C 863.00 769.34 852.52 779.67 842.18 790.13 C 841.41 789.44 840.66 788.76 839.93 788.09 C 797.98 787.97 756.03 787.96 714.08 788.04 C 714.19 783.33 713.23 778.69 713.18 774.00 C 713.14 769.84 713.30 765.67 712.85 761.54 C 712.61 755.67 712.78 749.81 712.75 743.95 Z" />
</g>
<g id="#3377a3ff">
<path fill="#3377a3" opacity="1.00" d=" M 714.18 735.95 C 760.44 735.97 806.69 735.93 852.95 735.95 C 866.38 736.22 879.84 735.52 893.25 736.23 C 891.59 739.19 888.21 741.04 887.51 744.52 C 882.90 749.42 878.06 754.09 873.32 758.85 C 867.98 757.40 862.42 758.13 856.98 758.00 C 829.66 757.99 802.35 757.98 775.03 758.01 C 754.77 757.81 734.48 758.37 714.23 757.80 C 714.04 750.51 714.20 743.23 714.18 735.95 Z" />
</g>
<g id="#2f719dff">
<path fill="#2f719d" opacity="1.00" d=" M 375.34 784.38 C 383.59 776.00 391.94 767.73 400.22 759.38 C 400.35 760.55 400.51 761.73 400.65 762.91 C 465.75 763.19 530.86 762.71 595.95 763.18 C 593.98 765.39 591.49 767.43 591.09 770.57 C 581.96 780.13 572.54 789.42 563.09 798.66 C 563.50 795.50 566.08 793.48 567.98 791.18 C 523.99 790.74 479.99 791.14 435.99 790.96 C 414.68 790.91 393.36 791.28 372.06 790.82 C 373.35 788.82 376.86 787.09 375.34 784.38 Z" />
</g>
<g id="#27648fff">
<path fill="#27648f" opacity="1.00" d=" M 711.84 760.63 L 712.85 761.54 C 713.30 765.67 713.14 769.84 713.18 774.00 C 713.23 778.69 714.19 783.33 714.08 788.04 C 713.97 800.30 713.95 812.58 714.35 824.84 C 739.56 825.20 764.80 824.83 790.03 824.96 C 795.50 825.07 801.09 824.35 806.43 825.95 C 796.10 836.55 785.55 846.92 775.13 857.43 C 774.86 856.67 774.60 855.93 774.33 855.20 C 754.26 854.70 734.18 855.19 714.11 854.98 C 713.91 848.85 714.52 842.29 711.83 836.62 C 711.76 811.29 711.78 785.96 711.84 760.63 Z" />
<path fill="#27648f" opacity="1.00" d=" M 323.77 836.15 C 332.04 827.75 340.36 819.40 348.75 811.12 C 348.57 815.97 343.48 818.15 340.99 821.77 C 355.31 822.28 369.66 821.91 383.99 822.04 C 416.68 821.97 449.36 822.08 482.05 821.97 C 500.34 822.08 518.63 821.74 536.92 822.21 C 535.18 824.49 533.45 826.80 532.36 829.47 C 522.67 839.69 512.55 849.53 502.56 859.47 C 503.00 858.06 503.36 856.63 503.75 855.22 C 465.86 854.81 427.96 855.21 390.06 855.05 C 362.70 854.91 335.33 855.40 307.97 854.82 C 312.46 849.70 317.56 845.18 322.24 840.25 C 323.46 839.23 323.61 837.60 323.77 836.15 Z" />
</g>
<g id="#1d547fff">
<path fill="#1d547f" opacity="1.00" d=" M 930.34 803.42 C 931.68 793.02 930.83 782.50 931.51 772.06 C 931.62 774.37 931.71 776.70 931.72 779.03 C 931.69 796.02 931.54 813.01 931.84 830.00 C 931.63 838.32 931.94 846.65 932.02 854.98 C 931.89 867.27 932.10 879.57 932.25 891.86 C 962.48 892.25 992.72 891.92 1022.95 892.04 C 1039.16 891.94 1055.38 892.21 1071.59 891.89 C 1071.86 889.69 1072.36 887.55 1073.15 885.49 C 1073.53 899.78 1073.29 914.09 1073.31 928.39 C 1032.11 928.56 990.90 928.36 949.70 928.48 C 947.40 928.35 945.10 928.59 942.82 928.78 L 942.70 928.67 C 942.56 928.51 942.28 928.20 942.15 928.04 C 938.04 928.82 933.87 928.28 929.74 928.34 C 930.73 917.26 929.94 906.08 930.21 894.96 C 930.27 864.44 930.21 833.93 930.34 803.42 Z" />
</g>
<g id="#2b6b96ff">
<path fill="#2b6b96" opacity="1.00" d=" M 931.72 779.03 C 978.07 779.18 1024.42 778.92 1070.76 779.15 C 1071.49 782.64 1069.48 787.53 1072.81 789.92 C 1073.11 791.58 1073.37 793.25 1073.37 794.96 C 1073.27 806.62 1073.34 818.29 1073.32 829.97 C 1026.16 829.87 979.00 829.90 931.84 830.00 C 931.54 813.01 931.69 796.02 931.72 779.03 Z" />
<path fill="#2b6b96" opacity="1.00" d=" M 714.08 788.04 C 756.03 787.96 797.98 787.97 839.93 788.09 C 840.66 788.76 841.41 789.44 842.18 790.13 C 830.30 802.11 818.37 814.04 806.43 825.95 C 801.09 824.35 795.50 825.07 790.03 824.96 C 764.80 824.83 739.56 825.20 714.35 824.84 C 713.95 812.58 713.97 800.30 714.08 788.04 Z" />
</g>
<g id="#2b6a96ff">
<path fill="#2b6a96" opacity="1.00" d=" M 348.75 811.12 C 357.51 802.11 366.49 793.30 375.34 784.38 C 376.86 787.09 373.35 788.82 372.06 790.82 C 393.36 791.28 414.68 790.91 435.99 790.96 C 479.99 791.14 523.99 790.74 567.98 791.18 C 566.08 793.48 563.50 795.50 563.09 798.66 C 553.01 809.08 542.77 819.38 532.36 829.47 C 533.45 826.80 535.18 824.49 536.92 822.21 C 518.63 821.74 500.34 822.08 482.05 821.97 C 449.36 822.08 416.68 821.97 383.99 822.04 C 369.66 821.91 355.31 822.28 340.99 821.77 C 343.48 818.15 348.57 815.97 348.75 811.12 Z" />
</g>
<g id="#26638eff">
<path fill="#26638e" opacity="1.00" d=" M 931.84 830.00 C 979.00 829.90 1026.16 829.87 1073.32 829.97 C 1073.28 836.14 1073.51 842.32 1073.15 848.50 C 1072.43 850.56 1071.89 852.69 1071.50 854.86 C 1045.01 855.28 1018.50 854.94 992.01 855.02 C 972.01 855.00 952.01 855.13 932.02 854.98 C 931.94 846.65 931.63 838.32 931.84 830.00 Z" />
</g>
<g id="#215b86ff">
<path fill="#215b86" opacity="1.00" d=" M 285.69 874.33 C 298.33 861.55 311.05 848.85 323.77 836.15 C 323.61 837.60 323.46 839.23 322.24 840.25 C 317.56 845.18 312.46 849.70 307.97 854.82 C 335.33 855.40 362.70 854.91 390.06 855.05 C 427.96 855.21 465.86 854.81 503.75 855.22 C 503.36 856.63 503.00 858.06 502.56 859.47 C 488.96 873.42 475.08 887.09 461.32 900.88 C 456.02 899.31 450.47 900.10 445.05 899.98 C 384.40 899.86 323.75 900.16 263.11 899.82 C 269.75 892.27 277.26 885.55 284.22 878.31 C 285.40 877.32 285.46 875.70 285.69 874.33 Z" />
</g>
<g id="#1f5882ff">
<path fill="#1f5882" opacity="1.00" d=" M 711.83 836.62 C 714.52 842.29 713.91 848.85 714.11 854.98 C 713.89 865.26 714.11 875.55 714.26 885.84 C 725.05 886.27 735.85 885.68 746.62 885.97 C 741.09 891.87 735.17 897.39 729.60 903.25 C 728.00 904.83 726.41 906.40 724.83 908.00 C 722.97 909.87 721.06 911.67 719.21 913.55 C 718.50 914.25 717.81 914.97 717.12 915.70 C 716.18 916.64 715.26 917.61 714.31 918.55 C 713.50 919.27 712.70 920.01 711.90 920.76 C 711.69 892.72 711.82 864.67 711.83 836.62 Z" />
</g>
<g id="#225c87ff">
<path fill="#225c87" opacity="1.00" d=" M 1071.50 854.86 C 1071.89 852.69 1072.43 850.56 1073.15 848.50 C 1073.41 860.82 1073.50 873.16 1073.15 885.49 C 1072.36 887.55 1071.86 889.69 1071.59 891.89 C 1055.38 892.21 1039.16 891.94 1022.95 892.04 C 992.72 891.92 962.48 892.25 932.25 891.86 C 932.10 879.57 931.89 867.27 932.02 854.98 C 952.01 855.13 972.01 855.00 992.01 855.02 C 1018.50 854.94 1045.01 855.28 1071.50 854.86 Z" />
</g>
<g id="#235d88ff">
<path fill="#235d88" opacity="1.00" d=" M 714.11 854.98 C 734.18 855.19 754.26 854.70 774.33 855.20 C 774.60 855.93 774.86 856.67 775.13 857.43 C 765.68 866.99 756.21 876.54 746.62 885.97 C 735.85 885.68 725.05 886.27 714.26 885.84 C 714.11 875.55 713.89 865.26 714.11 854.98 Z" />
</g>
<g id="#1d547eff">
<path fill="#1d547e" opacity="1.00" d=" M 235.74 924.38 C 252.36 907.66 269.01 890.97 285.69 874.33 C 285.46 875.70 285.40 877.32 284.22 878.31 C 277.26 885.55 269.75 892.27 263.11 899.82 C 323.75 900.16 384.40 899.86 445.05 899.98 C 450.47 900.10 456.02 899.31 461.32 900.88 C 453.84 908.80 445.74 916.11 438.47 924.21 C 437.02 925.65 435.50 927.01 434.00 928.40 C 376.47 928.59 318.93 928.34 261.40 928.51 C 259.55 928.51 257.71 928.47 255.88 928.47 C 253.74 928.43 251.60 928.46 249.46 928.61 C 248.05 928.51 246.65 928.46 245.24 928.46 L 245.09 928.45 C 248.16 928.09 251.22 927.73 254.29 927.33 C 248.45 926.41 242.53 926.91 236.65 926.64 C 236.34 925.88 236.03 925.12 235.74 924.38 Z" />
</g>
<g id="#0b4574ff">
<path fill="#0b4574" opacity="1.00" d=" M 231.69 928.37 C 233.04 927.02 234.41 925.72 235.74 924.38 C 236.03 925.12 236.34 925.88 236.65 926.64 C 242.53 926.91 248.45 926.41 254.29 927.33 C 251.22 927.73 248.16 928.09 245.09 928.45 C 240.62 928.40 236.16 928.44 231.69 928.37 Z" />
</g>
</svg>
