<?xml version="1.0" encoding="UTF-8" ?>
<!DOCTYPE svg PUBLIC "-//W3C//DTD SVG 1.1//EN" "http://www.w3.org/Graphics/SVG/1.1/DTD/svg11.dtd">
<svg width="1276pt" height="1276pt" viewBox="0 0 1276 1276" version="1.1" xmlns="http://www.w3.org/2000/svg">
<g id="#d93b03ff">
<path fill="#d93b03" opacity="1.00" d=" M 463.81 249.86 C 465.42 247.08 469.45 249.10 468.99 251.96 C 468.97 303.78 469.03 355.60 468.95 407.42 C 504.82 407.53 540.70 407.35 576.58 407.51 C 579.11 407.31 579.92 410.70 578.25 412.20 C 560.04 430.41 541.79 448.58 523.55 466.77 C 522.64 467.72 521.27 467.83 520.05 467.81 C 503.01 467.81 485.97 467.78 468.93 467.82 C 469.07 493.56 468.93 519.29 469.02 545.04 C 469.31 546.79 467.80 548.76 465.94 548.51 C 447.62 548.53 429.29 548.56 410.97 548.49 C 409.13 548.67 408.03 546.61 408.25 545.01 C 408.29 519.27 408.24 493.54 408.27 467.81 C 356.16 467.76 304.04 467.88 251.92 467.75 C 249.55 467.99 248.08 464.79 249.94 463.24 C 321.17 392.06 392.51 320.98 463.81 249.86 M 461.92 259.11 C 393.96 326.93 325.96 394.72 258.05 462.59 C 308.67 462.63 359.30 462.57 409.92 462.61 C 411.84 462.34 413.92 463.86 413.53 465.92 C 413.52 491.70 413.54 517.47 413.52 543.25 C 430.20 543.81 446.95 543.20 463.66 543.55 C 463.79 517.72 463.69 491.87 463.72 466.03 C 463.36 464.07 464.99 462.33 466.98 462.61 C 484.82 462.53 502.67 462.71 520.51 462.55 C 536.86 446.21 553.19 429.84 569.62 413.58 C 569.54 413.36 569.37 412.92 569.29 412.70 C 535.17 412.65 501.05 412.69 466.93 412.68 C 464.89 413.00 463.37 410.94 463.72 409.04 C 463.75 358.59 463.66 308.14 463.77 257.68 C 463.31 258.04 462.38 258.75 461.92 259.11 Z" />
<path fill="#d93b03" opacity="1.00" d=" M 409.30 362.17 C 411.03 360.53 414.03 362.68 413.53 364.88 C 413.54 379.58 413.49 394.29 413.55 408.99 C 413.91 411.01 412.14 413.03 410.06 412.68 C 395.33 412.68 380.60 412.68 365.87 412.68 C 363.06 413.25 360.99 409.18 363.65 407.59 C 378.87 392.45 393.95 377.17 409.30 362.17 M 371.31 407.51 C 383.64 407.36 395.97 407.51 408.30 407.43 C 408.30 395.05 408.13 382.66 408.39 370.28 C 396.10 382.76 383.44 394.92 371.31 407.51 Z" />
</g>
<g id="#f57a01ff">
<path fill="#f57a01" opacity="1.00" d=" M 461.92 259.11 C 462.38 258.75 463.31 258.04 463.77 257.68 C 463.66 308.14 463.75 358.59 463.72 409.04 C 463.37 410.94 464.89 413.00 466.93 412.68 C 501.05 412.69 535.17 412.65 569.29 412.70 C 569.37 412.92 569.54 413.36 569.62 413.58 C 553.19 429.84 536.86 446.21 520.51 462.55 C 502.67 462.71 484.82 462.53 466.98 462.61 C 464.99 462.33 463.36 464.07 463.72 466.03 C 463.69 491.87 463.79 517.72 463.66 543.55 C 446.95 543.20 430.20 543.81 413.52 543.25 C 413.54 517.47 413.52 491.70 413.53 465.92 C 413.92 463.86 411.84 462.34 409.92 462.61 C 359.30 462.57 308.67 462.63 258.05 462.59 C 325.96 394.72 393.96 326.93 461.92 259.11 M 409.30 362.17 C 393.95 377.17 378.87 392.45 363.65 407.59 C 360.99 409.18 363.06 413.25 365.87 412.68 C 380.60 412.68 395.33 412.68 410.06 412.68 C 412.14 413.03 413.91 411.01 413.55 408.99 C 413.49 394.29 413.54 379.58 413.53 364.88 C 414.03 362.68 411.03 360.53 409.30 362.17 Z" />
</g>
<g id="#ffffffff">
<path fill="#ffffff" opacity="1.00" d=" M 819.36 304.39 C 821.88 301.96 824.19 299.31 826.84 297.02 C 826.68 387.34 826.92 477.66 826.73 567.98 C 829.04 566.56 830.61 564.31 832.52 562.45 C 911.91 482.89 991.20 403.22 1070.56 323.63 C 1079.37 314.68 1088.40 305.95 1097.07 296.87 C 1097.68 303.54 1097.16 310.33 1097.34 317.06 C 1097.26 330.61 1097.48 344.17 1097.23 357.72 C 1096.70 384.15 1097.15 410.60 1097.00 437.04 C 1097.00 502.02 1097.00 566.99 1097.00 631.97 C 1097.09 647.47 1096.81 662.97 1097.14 678.46 C 1095.36 675.58 1095.81 672.15 1095.82 668.94 C 1095.88 569.29 1095.83 469.64 1095.81 369.99 C 1095.29 364.32 1092.22 358.86 1087.53 355.62 C 1082.81 354.13 1076.58 351.36 1072.54 355.72 C 1050.59 378.13 1028.23 400.15 1006.16 422.45 C 996.24 432.49 986.21 442.41 976.30 452.45 C 959.73 469.13 943.04 485.68 926.53 502.41 C 913.88 515.03 901.23 527.67 888.66 540.38 C 877.01 552.04 865.29 563.64 853.75 575.42 C 844.05 585.01 834.42 594.68 824.82 604.38 C 823.33 601.44 821.64 598.41 821.69 595.01 C 821.66 526.69 821.74 458.36 821.66 390.04 C 820.97 381.51 822.17 371.74 816.34 364.69 C 813.03 360.60 807.60 359.99 802.71 360.34 C 802.71 358.78 802.72 357.23 802.73 355.68 C 779.61 378.66 756.62 401.78 733.64 424.90 C 723.89 434.73 714.02 444.45 704.34 454.36 C 688.03 470.69 671.67 486.98 655.45 503.41 C 641.85 517.01 628.23 530.59 614.71 544.26 C 601.05 557.94 587.34 571.56 573.78 585.33 C 557.18 601.86 540.61 618.43 524.13 635.08 C 513.21 645.93 502.35 656.85 491.49 667.78 C 479.18 680.13 466.82 692.45 454.55 704.85 C 445.80 713.64 437.00 722.37 428.31 731.20 C 418.91 740.60 409.53 750.01 400.16 759.44 C 391.92 767.77 383.57 775.98 375.38 784.35 C 366.46 793.26 357.54 802.17 348.68 811.14 C 340.34 819.48 331.99 827.80 323.71 836.20 C 311.01 848.90 298.30 861.59 285.65 874.36 C 269.00 891.00 252.35 907.66 235.76 924.37 C 234.42 925.72 233.03 927.02 231.67 928.38 C 236.19 928.37 240.70 928.49 245.22 928.48 L 244.47 928.73 C 242.61 929.40 240.69 929.91 238.71 930.06 C 235.81 930.26 230.54 928.71 230.30 933.08 C 230.97 938.39 232.65 944.56 237.68 947.38 C 241.10 949.33 244.99 950.63 248.95 950.84 C 309.95 950.84 370.95 950.82 431.96 950.85 C 436.80 951.14 441.59 950.12 446.43 950.37 C 445.83 951.03 445.21 951.70 444.57 952.35 C 366.02 952.41 287.46 952.17 208.92 952.53 C 197.00 952.37 185.04 952.85 173.15 952.30 C 185.36 940.80 196.90 928.59 208.84 916.82 C 310.63 814.58 412.54 712.47 514.40 610.31 C 615.99 508.28 717.69 406.34 819.36 304.39 Z" />
<path fill="#ffffff" opacity="1.00" d=" M 1095.77 696.00 C 1095.55 694.32 1096.41 692.88 1097.16 691.47 C 1096.79 721.64 1097.10 751.83 1097.00 782.01 C 1097.01 838.74 1096.98 895.46 1097.02 952.18 C 1066.02 952.14 1035.02 952.17 1004.03 952.16 C 980.21 952.33 956.38 951.83 932.59 952.42 C 923.59 952.64 914.59 952.54 905.59 952.47 C 905.86 888.82 905.32 825.17 905.88 761.53 C 906.54 761.77 907.22 762.02 907.91 762.28 C 911.58 760.24 913.69 756.32 917.33 754.27 C 918.68 753.28 920.93 754.38 920.91 756.09 C 921.64 762.70 922.58 769.33 922.15 776.01 C 922.11 820.36 922.15 864.70 922.16 909.05 C 922.25 914.74 922.30 920.44 921.36 926.07 C 921.01 928.13 924.12 928.43 924.59 930.23 C 925.62 934.55 926.45 939.13 929.07 942.83 C 932.67 947.33 937.97 951.10 943.98 950.80 C 994.57 950.81 1045.16 951.00 1095.74 950.70 C 1096.04 920.14 1095.69 889.56 1095.86 858.99 C 1095.73 804.66 1095.95 750.33 1095.77 696.00 Z" />
<path fill="#ffffff" opacity="1.00" d=" M 687.86 709.10 C 693.28 705.25 696.85 699.17 702.91 696.16 C 705.47 697.49 706.09 700.32 705.98 702.99 C 705.96 765.68 705.92 828.38 705.96 891.08 C 706.28 901.70 705.19 912.42 707.06 922.95 C 708.79 928.89 713.30 934.43 719.65 935.56 C 724.01 936.83 728.21 934.47 732.56 934.35 C 717.73 949.40 702.70 964.26 687.86 979.30 C 687.18 972.93 687.75 966.42 687.56 959.99 C 687.56 893.67 687.56 827.34 687.56 761.02 C 687.59 743.71 687.42 726.40 687.86 709.10 Z" />
</g>
<g id="#f5f5f5ff">
<path fill="#f5f5f5" opacity="1.00" d=" M 1072.54 355.72 C 1076.58 351.36 1082.81 354.13 1087.53 355.62 C 1092.22 358.86 1095.29 364.32 1095.81 369.99 C 1095.83 469.64 1095.88 569.29 1095.82 668.94 C 1095.81 672.15 1095.36 675.58 1097.14 678.46 C 1097.44 682.78 1097.42 687.14 1097.16 691.47 C 1096.41 692.88 1095.55 694.32 1095.77 696.00 C 1095.95 750.33 1095.73 804.66 1095.86 858.99 C 1095.69 889.56 1096.04 920.14 1095.74 950.70 C 1045.16 951.00 994.57 950.81 943.98 950.80 C 937.97 951.10 932.67 947.33 929.07 942.83 C 926.45 939.13 925.62 934.55 924.59 930.23 C 924.12 928.43 921.01 928.13 921.36 926.07 C 922.30 920.44 922.25 914.74 922.16 909.05 C 922.15 864.70 922.11 820.36 922.15 776.01 C 922.58 769.33 921.64 762.70 920.91 756.09 C 920.93 754.38 918.68 753.28 917.33 754.27 C 913.69 756.32 911.58 760.24 907.91 762.28 C 907.22 762.02 906.54 761.77 905.88 761.53 L 904.99 761.18 C 879.72 787.15 853.86 812.56 828.37 838.31 C 796.42 870.31 764.55 902.40 732.56 934.35 C 728.21 934.47 724.01 936.83 719.65 935.56 C 713.30 934.43 708.79 928.89 707.06 922.95 C 705.19 912.42 706.28 901.70 705.96 891.08 C 705.92 828.38 705.96 765.68 705.98 702.99 C 706.09 700.32 705.47 697.49 702.91 696.16 C 696.85 699.17 693.28 705.25 687.86 709.10 C 687.51 709.21 686.80 709.42 686.44 709.52 C 662.29 734.30 637.60 758.58 613.25 783.18 C 557.62 838.88 502.16 894.79 446.43 950.37 C 441.59 950.12 436.80 951.14 431.96 950.85 C 370.95 950.82 309.95 950.84 248.95 950.84 C 244.99 950.63 241.10 949.33 237.68 947.38 C 232.65 944.56 230.97 938.39 230.30 933.08 C 230.54 928.71 235.81 930.26 238.71 930.06 C 239.21 933.90 239.40 938.71 243.16 940.93 C 249.32 944.81 256.90 945.31 264.00 945.32 C 318.67 945.25 373.34 945.29 428.01 945.29 C 433.93 945.38 439.85 944.30 445.41 942.29 C 450.66 940.32 454.35 935.97 458.63 932.57 C 462.21 929.86 464.24 925.60 467.98 923.07 C 471.95 920.33 474.07 915.76 478.00 912.97 C 491.49 899.14 505.36 885.65 518.86 871.81 C 525.61 864.58 533.09 858.10 539.77 850.81 C 579.76 810.81 619.76 770.81 659.69 730.76 C 670.39 719.46 681.93 708.91 692.40 697.35 C 696.99 694.35 699.79 689.25 704.65 686.66 C 706.48 685.46 708.37 686.72 710.01 687.62 C 710.77 684.69 711.41 681.72 711.69 678.72 L 711.77 679.50 C 711.81 706.81 711.72 734.12 711.83 761.43 C 711.82 786.50 711.71 811.58 711.87 836.65 C 711.77 864.67 711.72 892.70 711.89 920.72 C 712.68 920.02 713.47 919.32 714.25 918.62 C 713.35 925.71 721.75 930.21 727.88 928.04 C 734.87 925.32 740.64 920.18 745.57 914.65 C 749.92 911.32 752.91 906.62 757.26 903.29 C 760.21 900.89 762.14 897.48 765.16 895.14 C 769.65 891.63 772.52 886.51 777.24 883.23 C 781.79 878.15 787.09 873.82 791.52 868.61 C 796.33 865.06 799.43 859.79 804.24 856.24 C 807.21 853.87 809.06 850.41 812.09 848.09 C 816.31 844.98 819.01 840.33 823.20 837.17 C 827.95 831.27 833.92 826.54 838.87 820.84 C 861.71 798.05 884.46 775.14 907.31 752.34 C 912.04 747.72 916.40 742.71 921.77 738.78 C 923.66 736.84 926.60 737.80 928.86 736.61 C 929.60 758.73 929.08 780.88 929.22 803.02 C 929.21 841.69 929.22 880.35 929.19 919.01 C 929.18 922.13 928.90 925.32 929.73 928.38 C 931.95 928.45 934.17 928.48 936.41 928.58 C 934.75 929.32 933.07 930.01 931.41 930.73 C 931.22 937.35 937.21 941.53 941.89 945.14 C 948.08 947.00 954.63 946.52 961.02 946.54 C 1004.54 946.48 1048.06 946.58 1091.57 946.52 C 1091.45 760.01 1091.52 573.49 1091.53 386.98 C 1092.21 379.93 1090.13 373.14 1088.25 366.45 C 1086.55 361.69 1080.99 359.41 1076.25 359.43 C 1075.80 359.80 1074.89 360.54 1074.44 360.90 C 1073.84 359.90 1073.27 358.91 1072.77 357.88 C 1072.71 357.34 1072.60 356.26 1072.54 355.72 Z" />
</g>
<g id="#61beefff">
<path fill="#61beef" opacity="1.00" d=" M 733.64 424.90 C 756.62 401.78 779.61 378.66 802.73 355.68 C 802.72 357.23 802.71 358.78 802.71 360.34 C 802.69 363.10 802.69 365.85 802.73 368.61 C 802.72 370.23 802.75 371.86 802.77 373.49 C 802.76 375.24 802.77 376.99 802.79 378.75 C 802.77 382.41 802.74 386.08 802.75 389.75 C 802.76 412.82 802.61 435.89 802.71 458.96 L 801.91 459.08 C 801.69 448.09 801.86 437.11 800.70 426.17 C 783.13 425.82 765.55 426.15 747.98 425.97 C 743.19 425.76 738.18 426.90 733.64 424.90 Z" />
<path fill="#61beef" opacity="1.00" d=" M 1072.54 355.72 C 1072.60 356.26 1072.71 357.34 1072.77 357.88 C 1072.77 361.69 1072.73 365.50 1072.81 369.31 C 1072.83 372.08 1072.84 374.86 1072.85 377.63 C 1072.85 381.78 1072.81 385.93 1072.80 390.08 C 1072.80 408.17 1072.79 426.27 1072.72 444.36 C 1070.75 438.51 1070.93 432.29 1070.77 426.20 C 1049.43 425.61 1028.06 426.42 1006.72 425.91 C 1006.51 424.76 1006.31 423.60 1006.16 422.45 C 1028.23 400.15 1050.59 378.13 1072.54 355.72 Z" />
</g>
<g id="#dfdfdfff">
<path fill="#dfdfdf" opacity="1.00" d=" M 1072.77 357.88 C 1073.27 358.91 1073.84 359.90 1074.44 360.90 C 1074.89 360.54 1075.80 359.80 1076.25 359.43 C 1080.99 359.41 1086.55 361.69 1088.25 366.45 C 1090.13 373.14 1092.21 379.93 1091.53 386.98 C 1091.52 573.49 1091.45 760.01 1091.57 946.52 C 1048.06 946.58 1004.54 946.48 961.02 946.54 C 954.63 946.52 948.08 947.00 941.89 945.14 C 937.21 941.53 931.22 937.35 931.41 930.73 C 933.07 930.01 934.75 929.32 936.41 928.58 C 937.60 928.52 938.81 928.49 940.02 928.47 C 939.26 929.37 938.49 930.27 937.73 931.17 C 939.02 933.11 940.01 935.63 942.38 936.50 C 944.47 937.29 946.34 938.52 947.72 940.32 C 988.48 940.84 1029.26 940.40 1070.03 940.54 C 1075.16 940.37 1080.32 940.92 1085.43 940.29 C 1085.38 911.87 1085.41 883.46 1085.41 855.05 C 1085.21 845.35 1085.92 835.62 1084.80 825.97 C 1085.89 818.67 1085.24 811.28 1085.41 803.93 C 1085.40 769.63 1085.41 735.33 1085.41 701.03 C 1085.61 696.67 1085.26 692.34 1084.88 688.01 C 1085.84 680.68 1085.25 673.28 1085.41 665.92 C 1085.41 631.62 1085.41 597.32 1085.40 563.02 C 1085.27 555.02 1085.79 546.99 1084.98 539.01 C 1085.82 529.05 1085.24 519.03 1085.41 509.04 C 1085.40 475.69 1085.41 442.34 1085.41 408.99 C 1085.19 398.67 1086.12 388.23 1083.91 378.07 C 1083.03 375.25 1081.95 372.49 1081.07 369.68 C 1078.31 369.50 1075.56 369.38 1072.81 369.31 C 1072.73 365.50 1072.77 361.69 1072.77 357.88 Z" />
<path fill="#dfdfdf" opacity="1.00" d=" M 685.26 700.22 C 692.56 691.25 700.95 682.65 711.57 677.65 L 711.69 678.72 C 711.41 681.72 710.77 684.69 710.01 687.62 C 708.37 686.72 706.48 685.46 704.65 686.66 C 699.79 689.25 696.99 694.35 692.40 697.35 C 681.93 708.91 670.39 719.46 659.69 730.76 C 619.76 770.81 579.76 810.81 539.77 850.81 C 533.09 858.10 525.61 864.58 518.86 871.81 C 505.36 885.65 491.49 899.14 478.00 912.97 C 474.07 915.76 471.95 920.33 467.98 923.07 C 464.24 925.60 462.21 929.86 458.63 932.57 C 454.35 935.97 450.66 940.32 445.41 942.29 C 439.85 944.30 433.93 945.38 428.01 945.29 C 373.34 945.29 318.67 945.25 264.00 945.32 C 256.90 945.31 249.32 944.81 243.16 940.93 C 239.40 938.71 239.21 933.90 238.71 930.06 C 240.69 929.91 242.61 929.40 244.47 928.73 C 245.94 928.77 247.41 928.85 248.88 928.98 C 248.65 929.21 248.21 929.65 247.98 929.88 C 246.64 930.00 245.29 930.11 243.95 930.20 C 243.20 933.73 245.25 937.09 248.27 938.80 C 254.47 942.68 262.09 941.68 269.05 941.85 C 322.70 941.94 376.35 941.83 430.01 941.82 C 436.02 942.16 441.95 940.31 446.87 936.91 C 453.31 933.22 458.02 927.40 463.32 922.36 C 537.28 848.30 611.21 774.20 685.26 700.22 Z" />
</g>
<g id="#27272762">
<path fill="#272727" opacity="0.38" d=" M 1097.23 357.72 C 1097.71 359.10 1097.88 360.56 1097.85 362.03 C 1097.80 466.36 1097.89 570.70 1097.81 675.03 C 1096.76 684.68 1098.09 694.33 1097.84 704.00 C 1097.84 763.01 1097.84 822.02 1097.84 881.03 C 1097.74 904.93 1098.03 928.83 1097.70 952.72 C 1088.15 953.38 1078.55 952.83 1068.98 953.01 C 1024.97 953.02 980.96 952.98 936.96 953.03 C 935.46 953.03 934.00 952.82 932.59 952.42 C 956.38 951.83 980.21 952.33 1004.03 952.16 C 1035.02 952.17 1066.02 952.14 1097.02 952.18 C 1096.98 895.46 1097.01 838.74 1097.00 782.01 C 1097.10 751.83 1096.79 721.64 1097.16 691.47 C 1097.42 687.14 1097.44 682.78 1097.14 678.46 C 1096.81 662.97 1097.09 647.47 1097.00 631.97 C 1097.00 566.99 1097.00 502.02 1097.00 437.04 C 1097.15 410.60 1096.70 384.15 1097.23 357.72 Z" />
</g>
<g id="#e2e2e2ff">
<path fill="#e2e2e2" opacity="1.00" d=" M 802.71 360.34 C 807.60 359.99 813.03 360.60 816.34 364.69 C 822.17 371.74 820.97 381.51 821.66 390.04 C 821.74 458.36 821.66 526.69 821.69 595.01 C 821.64 598.41 823.33 601.44 824.82 604.38 C 822.25 607.09 819.49 609.62 816.89 612.30 C 814.93 606.37 815.62 600.09 815.53 593.97 C 815.51 523.97 815.56 453.97 815.50 383.96 C 815.60 380.28 815.03 376.61 813.64 373.19 C 813.38 373.56 812.84 374.30 812.58 374.67 C 812.26 372.90 811.90 371.15 811.51 369.42 C 808.67 368.49 805.68 368.41 802.73 368.61 C 802.69 365.85 802.69 363.10 802.71 360.34 Z" />
</g>
<g id="#bdbdbdff">
<path fill="#bdbdbd" opacity="1.00" d=" M 802.73 368.61 C 805.68 368.41 808.67 368.49 811.51 369.42 C 811.90 371.15 812.26 372.90 812.58 374.67 C 812.84 374.30 813.38 373.56 813.64 373.19 C 815.03 376.61 815.60 380.28 815.50 383.96 C 815.56 453.97 815.51 523.97 815.53 593.97 C 815.62 600.09 814.93 606.37 816.89 612.30 C 815.55 613.69 814.15 615.01 812.80 616.39 C 812.16 607.62 811.76 598.79 812.17 590.01 C 812.19 524.70 812.21 459.39 812.19 394.08 C 811.79 388.25 812.03 382.04 809.21 376.73 C 807.98 374.34 805.15 373.86 802.77 373.49 C 802.75 371.86 802.72 370.23 802.73 368.61 Z" />
</g>
<g id="#b1b1b1ff">
<path fill="#b1b1b1" opacity="1.00" d=" M 1072.81 369.31 C 1075.56 369.38 1078.31 369.50 1081.07 369.68 C 1081.95 372.49 1083.03 375.25 1083.91 378.07 C 1086.12 388.23 1085.19 398.67 1085.41 408.99 C 1085.41 442.34 1085.40 475.69 1085.41 509.04 C 1085.24 519.03 1085.82 529.05 1084.98 539.01 C 1085.79 546.99 1085.27 555.02 1085.40 563.02 C 1085.41 597.32 1085.41 631.62 1085.41 665.92 C 1085.25 673.28 1085.84 680.68 1084.88 688.01 C 1085.26 692.34 1085.61 696.67 1085.41 701.03 C 1085.41 735.33 1085.40 769.63 1085.41 803.93 C 1085.24 811.28 1085.89 818.67 1084.80 825.97 C 1085.92 835.62 1085.21 845.35 1085.41 855.05 C 1085.41 883.46 1085.38 911.87 1085.43 940.29 C 1080.32 940.92 1075.16 940.37 1070.03 940.54 C 1029.26 940.40 988.48 940.84 947.72 940.32 C 946.34 938.52 944.47 937.29 942.38 936.50 C 940.01 935.63 939.02 933.11 937.73 931.17 C 938.49 930.27 939.26 929.37 940.02 928.47 C 940.72 928.46 942.11 928.44 942.80 928.43 C 945.98 934.12 953.09 935.14 958.99 935.48 C 991.33 935.47 1023.67 935.48 1056.00 935.47 C 1064.02 935.33 1072.06 935.77 1080.08 935.26 C 1080.79 925.87 1080.19 916.43 1080.38 907.02 C 1080.38 737.67 1080.38 568.32 1080.39 398.96 C 1080.60 393.61 1080.12 388.25 1079.21 382.98 C 1078.85 380.66 1077.15 378.95 1075.52 377.43 C 1074.62 377.45 1073.73 377.52 1072.85 377.63 C 1072.84 374.86 1072.83 372.08 1072.81 369.31 Z" />
</g>
<g id="#a1a1a1ff">
<path fill="#a1a1a1" opacity="1.00" d=" M 802.77 373.49 C 805.15 373.86 807.98 374.34 809.21 376.73 C 812.03 382.04 811.79 388.25 812.19 394.08 C 812.21 459.39 812.19 524.70 812.17 590.01 C 811.76 598.79 812.16 607.62 812.80 616.39 C 812.06 617.11 811.34 617.85 810.62 618.59 C 808.37 612.66 808.77 606.18 808.71 599.96 C 808.73 531.33 808.73 462.69 808.71 394.06 C 808.68 388.71 809.06 382.52 804.93 378.41 C 804.39 378.50 803.32 378.67 802.79 378.75 C 802.77 376.99 802.76 375.24 802.77 373.49 Z" />
</g>
<g id="#868585ff">
<path fill="#868585" opacity="1.00" d=" M 1072.85 377.63 C 1073.73 377.52 1074.62 377.45 1075.52 377.43 C 1077.15 378.95 1078.85 380.66 1079.21 382.98 C 1080.12 388.25 1080.60 393.61 1080.39 398.96 C 1080.38 568.32 1080.38 737.67 1080.38 907.02 C 1080.19 916.43 1080.79 925.87 1080.08 935.26 C 1072.06 935.77 1064.02 935.33 1056.00 935.47 C 1023.67 935.48 991.33 935.47 958.99 935.48 C 953.09 935.14 945.98 934.12 942.80 928.43 C 945.07 928.39 947.35 928.41 949.64 928.51 C 952.58 930.00 955.64 931.58 959.06 931.40 C 987.69 931.38 1016.33 931.42 1044.96 931.40 C 1055.35 931.27 1065.76 931.74 1076.14 931.16 C 1076.56 907.45 1076.19 883.71 1076.32 859.99 C 1076.31 712.00 1076.31 564.00 1076.31 416.00 C 1076.23 406.23 1076.88 396.35 1074.81 386.72 C 1074.09 387.81 1073.39 388.92 1072.80 390.08 C 1072.81 385.93 1072.85 381.78 1072.85 377.63 Z" />
</g>
<g id="#807f7fff">
<path fill="#807f7f" opacity="1.00" d=" M 802.79 378.75 C 803.32 378.67 804.39 378.50 804.93 378.41 C 809.06 382.52 808.68 388.71 808.71 394.06 C 808.73 462.69 808.73 531.33 808.71 599.96 C 808.77 606.18 808.37 612.66 810.62 618.59 C 809.41 619.79 808.22 621.02 807.03 622.24 C 804.78 617.11 805.43 611.44 805.35 606.00 C 805.39 543.00 805.40 480.00 805.38 417.00 C 805.27 407.79 805.83 398.54 804.90 389.35 C 804.37 389.45 803.29 389.65 802.75 389.75 C 802.74 386.08 802.77 382.41 802.79 378.75 Z" />
</g>
<g id="#6b6764ff">
<path fill="#6b6764" opacity="1.00" d=" M 1072.80 390.08 C 1073.39 388.92 1074.09 387.81 1074.81 386.72 C 1076.88 396.35 1076.23 406.23 1076.31 416.00 C 1076.31 564.00 1076.31 712.00 1076.32 859.99 C 1076.19 883.71 1076.56 907.45 1076.14 931.16 C 1065.76 931.74 1055.35 931.27 1044.96 931.40 C 1016.33 931.42 987.69 931.38 959.06 931.40 C 955.64 931.58 952.58 930.00 949.64 928.51 C 990.87 928.35 1032.09 928.58 1073.31 928.40 C 1073.31 914.12 1073.48 899.84 1073.20 885.57 C 1073.45 873.22 1073.41 860.85 1073.19 848.50 C 1073.47 842.31 1073.29 836.12 1073.31 829.94 C 1073.04 816.53 1073.90 803.06 1072.88 789.71 C 1072.54 777.33 1073.02 764.92 1072.69 752.54 C 1072.81 743.18 1072.92 733.82 1072.69 724.47 C 1072.81 709.13 1072.86 693.79 1072.75 678.45 C 1072.75 673.44 1072.91 668.44 1072.70 663.45 C 1072.69 640.13 1073.00 616.80 1072.68 593.49 C 1072.67 568.84 1072.95 544.18 1072.68 519.54 C 1072.69 494.48 1072.86 469.42 1072.72 444.36 C 1072.79 426.27 1072.80 408.17 1072.80 390.08 Z" />
</g>
<g id="#636667ff">
<path fill="#636667" opacity="1.00" d=" M 802.75 389.75 C 803.29 389.65 804.37 389.45 804.90 389.35 C 805.83 398.54 805.27 407.79 805.38 417.00 C 805.40 480.00 805.39 543.00 805.35 606.00 C 805.43 611.44 804.78 617.11 807.03 622.24 C 805.57 623.77 804.08 625.26 802.57 626.73 C 802.60 624.99 802.65 623.25 802.62 621.52 C 802.68 608.19 802.86 594.85 802.62 581.53 C 802.67 567.30 802.84 553.07 802.63 538.84 C 802.68 512.21 802.80 485.58 802.71 458.96 C 802.61 435.89 802.76 412.82 802.75 389.75 Z" />
</g>
<g id="#5bb6e6ff">
<path fill="#5bb6e6" opacity="1.00" d=" M 976.30 452.45 C 986.21 442.41 996.24 432.49 1006.16 422.45 C 1006.31 423.60 1006.51 424.76 1006.72 425.91 C 1028.06 426.42 1049.43 425.61 1070.77 426.20 C 1070.93 432.29 1070.75 438.51 1072.72 444.36 C 1072.86 469.42 1072.69 494.48 1072.68 519.54 L 1072.12 520.30 C 1071.85 508.87 1072.42 497.39 1071.07 486.02 C 1070.75 477.43 1071.09 468.84 1070.71 460.26 C 1044.18 459.88 1017.64 460.20 991.10 460.11 C 984.73 460.00 978.35 460.37 971.99 459.84 C 973.47 458.07 975.02 456.35 976.60 454.65 C 976.53 454.10 976.38 453.00 976.30 452.45 Z" />
<path fill="#5bb6e6" opacity="1.00" d=" M 704.34 454.36 C 714.02 444.45 723.89 434.73 733.64 424.90 C 738.18 426.90 743.19 425.76 747.98 425.97 C 765.55 426.15 783.13 425.82 800.70 426.17 C 801.86 437.11 801.69 448.09 801.91 459.08 C 802.10 465.72 801.83 472.36 801.86 479.00 C 801.80 482.66 802.16 486.39 801.36 490.01 C 800.58 480.12 801.12 470.17 800.73 460.26 C 767.88 459.76 735.01 460.47 702.16 459.89 C 703.24 458.20 705.19 456.58 704.34 454.36 Z" />
</g>
<g id="#56adddff">
<path fill="#56addd" opacity="1.00" d=" M 926.53 502.41 C 943.04 485.68 959.73 469.13 976.30 452.45 C 976.38 453.00 976.53 454.10 976.60 454.65 C 975.02 456.35 973.47 458.07 971.99 459.84 C 978.35 460.37 984.73 460.00 991.10 460.11 C 1017.64 460.20 1044.18 459.88 1070.71 460.26 C 1071.09 468.84 1070.75 477.43 1071.07 486.02 C 1072.42 497.39 1071.85 508.87 1072.12 520.30 C 1071.54 526.24 1072.02 532.21 1071.55 538.16 C 1070.54 529.21 1071.22 520.18 1070.69 511.20 C 1060.48 510.54 1050.24 511.21 1040.02 510.97 C 1003.71 510.91 967.39 511.08 931.08 510.95 C 927.72 511.06 924.36 511.07 921.05 510.55 C 922.84 507.91 927.34 506.11 926.53 502.41 Z" />
<path fill="#56addd" opacity="1.00" d=" M 655.45 503.41 C 671.67 486.98 688.03 470.69 704.34 454.36 C 705.19 456.58 703.24 458.20 702.16 459.89 C 735.01 460.47 767.88 459.76 800.73 460.26 C 801.12 470.17 800.58 480.12 801.36 490.01 C 802.16 486.39 801.80 482.66 801.86 479.00 C 801.83 472.36 802.10 465.72 801.91 459.08 L 802.71 458.96 C 802.80 485.58 802.68 512.21 802.63 538.84 C 800.49 535.95 801.18 532.27 801.05 528.93 C 800.94 523.03 801.02 517.13 800.75 511.23 C 776.84 510.67 752.91 511.09 728.99 511.03 C 707.00 511.10 685.01 510.95 663.01 511.06 C 659.01 511.14 655.01 511.17 651.03 510.78 C 652.53 508.38 656.45 506.67 655.45 503.41 Z" />
</g>
<g id="#50a4d3ff">
<path fill="#50a4d3" opacity="1.00" d=" M 888.66 540.38 C 901.23 527.67 913.88 515.03 926.53 502.41 C 927.34 506.11 922.84 507.91 921.05 510.55 C 924.36 511.07 927.72 511.06 931.08 510.95 C 967.39 511.08 1003.71 510.91 1040.02 510.97 C 1050.24 511.21 1060.48 510.54 1070.69 511.20 C 1071.22 520.18 1070.54 529.21 1071.55 538.16 C 1072.02 532.21 1071.54 526.24 1072.12 520.30 L 1072.68 519.54 C 1072.95 544.18 1072.67 568.84 1072.68 593.49 L 1072.03 594.42 C 1072.42 587.91 1070.89 581.49 1071.10 574.99 C 1071.04 566.08 1071.06 557.16 1070.68 548.26 C 1013.44 547.85 956.18 548.18 898.93 548.08 C 893.99 548.03 889.03 548.36 884.10 547.90 C 885.65 545.39 889.03 543.72 888.66 540.38 Z" />
</g>
<g id="#4fa3d2ff">
<path fill="#4fa3d2" opacity="1.00" d=" M 614.71 544.26 C 628.23 530.59 641.85 517.01 655.45 503.41 C 656.45 506.67 652.53 508.38 651.03 510.78 C 655.01 511.17 659.01 511.14 663.01 511.06 C 685.01 510.95 707.00 511.10 728.99 511.03 C 752.91 511.09 776.84 510.67 800.75 511.23 C 801.02 517.13 800.94 523.03 801.05 528.93 C 801.18 532.27 800.49 535.95 802.63 538.84 C 802.84 553.07 802.67 567.30 802.62 581.53 C 800.53 579.12 801.08 575.86 801.01 572.94 C 801.06 568.67 801.16 564.40 800.78 560.14 C 739.88 559.75 678.97 560.08 618.07 559.99 C 612.72 559.95 607.36 560.30 602.02 559.80 C 605.46 555.70 609.54 552.21 613.20 548.32 C 614.42 547.31 614.66 545.75 614.71 544.26 Z" />
</g>
<g id="#4a9bc9ff">
<path fill="#4a9bc9" opacity="1.00" d=" M 853.75 575.42 C 865.29 563.64 877.01 552.04 888.66 540.38 C 889.03 543.72 885.65 545.39 884.10 547.90 C 889.03 548.36 893.99 548.03 898.93 548.08 C 956.18 548.18 1013.44 547.85 1070.68 548.26 C 1071.06 557.16 1071.04 566.08 1071.10 574.99 C 1070.89 581.49 1072.42 587.91 1072.03 594.42 C 1071.51 603.29 1072.35 612.21 1071.38 621.06 C 1070.73 614.79 1071.29 608.49 1070.82 602.22 C 1060.90 601.52 1050.93 602.22 1040.99 601.96 C 977.33 601.91 913.65 601.95 849.99 601.94 C 843.35 601.83 836.71 602.09 830.08 601.76 C 837.24 594.04 844.89 586.79 852.23 579.25 C 853.39 578.31 853.36 576.72 853.75 575.42 Z" />
</g>
<g id="#499ac8ff">
<path fill="#499ac8" opacity="1.00" d=" M 573.78 585.33 C 587.34 571.56 601.05 557.94 614.71 544.26 C 614.66 545.75 614.42 547.31 613.20 548.32 C 609.54 552.21 605.46 555.70 602.02 559.80 C 607.36 560.30 612.72 559.95 618.07 559.99 C 678.97 560.08 739.88 559.75 800.78 560.14 C 801.16 564.40 801.06 568.67 801.01 572.94 C 801.08 575.86 800.53 579.12 802.62 581.53 C 802.86 594.85 802.68 608.19 802.62 621.52 C 801.56 620.23 800.85 618.71 801.02 617.03 C 800.91 610.08 801.08 603.14 800.74 596.20 C 731.85 595.76 662.95 596.20 594.06 596.02 C 584.73 595.91 575.39 596.36 566.08 595.77 C 568.43 592.11 573.39 590.04 573.78 585.33 Z" />
</g>
<g id="#4492c0ff">
<path fill="#4492c0" opacity="1.00" d=" M 824.82 604.38 C 834.42 594.68 844.05 585.01 853.75 575.42 C 853.36 576.72 853.39 578.31 852.23 579.25 C 844.89 586.79 837.24 594.04 830.08 601.76 C 836.71 602.09 843.35 601.83 849.99 601.94 C 913.65 601.95 977.33 601.91 1040.99 601.96 C 1050.93 602.22 1060.90 601.52 1070.82 602.22 C 1071.29 608.49 1070.73 614.79 1071.38 621.06 C 1072.35 612.21 1071.51 603.29 1072.03 594.42 L 1072.68 593.49 C 1073.00 616.80 1072.69 640.13 1072.70 663.45 C 1071.58 655.43 1070.98 647.35 1070.77 639.26 C 1060.52 638.57 1050.23 639.11 1039.97 638.98 C 867.85 638.96 695.73 639.00 523.61 638.94 C 523.91 637.67 524.18 636.39 524.13 635.08 C 540.61 618.43 557.18 601.86 573.78 585.33 C 573.39 590.04 568.43 592.11 566.08 595.77 C 575.39 596.36 584.73 595.91 594.06 596.02 C 662.95 596.20 731.85 595.76 800.74 596.20 C 801.08 603.14 800.91 610.08 801.02 617.03 C 800.85 618.71 801.56 620.23 802.62 621.52 C 802.65 623.25 802.60 624.99 802.57 626.73 C 804.08 625.26 805.57 623.77 807.03 622.24 C 808.22 621.02 809.41 619.79 810.62 618.59 C 811.34 617.85 812.06 617.11 812.80 616.39 C 814.15 615.01 815.55 613.69 816.89 612.30 C 819.49 609.62 822.25 607.09 824.82 604.38 Z" />
</g>
<g id="#3f8ab8ff">
<path fill="#3f8ab8" opacity="1.00" d=" M 491.49 667.78 C 502.35 656.85 513.21 645.93 524.13 635.08 C 524.18 636.39 523.91 637.67 523.61 638.94 C 695.73 639.00 867.85 638.96 1039.97 638.98 C 1050.23 639.11 1060.52 638.57 1070.77 639.26 C 1070.98 647.35 1071.58 655.43 1072.70 663.45 C 1072.91 668.44 1072.75 673.44 1072.75 678.45 C 1070.06 676.12 1071.15 672.29 1070.76 669.19 C 1013.50 668.83 956.22 669.07 898.96 669.01 C 836.97 669.08 774.98 668.95 713.00 669.05 C 712.44 662.56 713.19 656.00 712.23 649.55 C 704.50 656.52 697.49 664.26 690.03 671.52 C 689.78 670.71 689.53 669.90 689.27 669.11 C 627.86 668.88 566.44 669.09 505.03 669.01 C 500.51 668.86 495.74 669.76 491.49 667.78 Z" />
</g>
<g id="#525252ff">
<path fill="#525252" opacity="1.00" d=" M 690.03 671.52 C 697.49 664.26 704.50 656.52 712.23 649.55 C 712.00 652.03 711.86 654.53 711.83 657.03 C 706.77 659.62 702.29 663.17 698.35 667.25 C 645.86 719.79 593.30 772.27 540.88 824.88 C 537.36 829.37 532.47 832.52 529.18 837.20 C 525.92 840.63 521.91 843.31 519.13 847.21 C 493.76 872.44 468.79 898.22 443.05 923.08 C 441.71 923.93 440.04 923.85 438.55 924.18 C 445.74 916.03 453.89 908.78 461.33 900.86 C 475.09 887.11 488.93 873.42 502.53 859.51 C 512.53 849.53 522.67 839.68 532.42 829.45 C 542.82 819.31 553.07 809.00 563.21 798.60 C 572.61 789.33 582.03 780.07 591.16 770.54 C 599.51 762.44 607.73 754.19 615.84 745.85 C 627.89 733.89 639.95 721.93 651.81 709.77 C 664.61 697.09 677.32 684.30 690.03 671.52 Z" />
</g>
<g id="#377daaff">
<path fill="#377daa" opacity="1.00" d=" M 712.23 649.55 C 713.19 656.00 712.44 662.56 713.00 669.05 C 712.61 679.33 714.09 689.50 714.24 699.76 C 727.48 700.24 740.74 699.94 754.00 700.03 C 808.01 699.98 862.03 700.01 916.04 700.03 C 920.31 700.12 924.63 699.47 928.86 700.41 C 927.34 702.65 923.62 704.32 924.51 707.48 C 912.24 719.91 899.89 732.25 887.50 744.56 C 887.83 741.08 891.27 739.26 893.34 736.83 C 890.82 735.40 887.81 736.03 885.06 735.93 C 828.14 735.93 771.22 736.02 714.29 735.93 C 714.16 734.51 713.82 733.16 713.37 731.84 C 712.07 741.39 712.99 751.09 712.83 760.71 L 711.83 761.43 C 711.72 734.12 711.81 706.81 711.77 679.50 C 712.48 675.81 712.20 672.07 711.89 668.37 C 711.83 666.54 711.82 664.71 711.83 662.90 C 711.84 660.93 711.82 658.98 711.83 657.03 C 711.86 654.53 712.00 652.03 712.23 649.55 Z" />
</g>
<g id="#6d6969ff">
<path fill="#6d6969" opacity="1.00" d=" M 698.35 667.25 C 702.29 663.17 706.77 659.62 711.83 657.03 C 711.82 658.98 711.84 660.93 711.83 662.90 C 707.55 665.53 702.67 667.46 699.33 671.37 C 677.69 693.06 656.03 714.73 634.36 736.38 C 625.72 746.37 615.96 755.29 606.75 764.73 C 578.12 793.42 549.44 822.07 520.84 850.78 C 517.05 856.03 511.55 859.58 507.53 864.63 C 502.75 868.16 499.67 873.39 494.96 876.98 C 491.84 879.50 489.85 883.15 486.59 885.53 C 482.74 888.35 480.38 892.66 476.55 895.50 C 473.15 898.09 471.08 901.99 467.60 904.50 C 464.14 907.04 462.12 911.00 458.71 913.60 C 455.08 916.32 452.71 920.34 449.09 923.08 C 444.20 927.16 438.68 931.37 432.05 931.65 C 424.01 931.79 415.98 932.20 407.95 931.71 C 398.97 932.36 389.98 931.48 381.00 932.08 C 375.34 931.95 369.67 932.19 364.02 931.76 C 359.66 931.47 355.32 932.43 350.97 932.06 C 340.01 931.19 329.01 932.28 318.04 931.76 C 304.02 931.91 289.99 931.40 275.99 932.13 C 272.28 931.91 268.56 931.76 264.87 931.34 C 263.11 931.34 262.16 929.76 261.34 928.49 C 318.89 928.37 376.44 928.64 433.98 928.36 C 435.54 927.00 437.06 925.61 438.55 924.18 C 440.04 923.85 441.71 923.93 443.05 923.08 C 468.79 898.22 493.76 872.44 519.13 847.21 C 521.91 843.31 525.92 840.63 529.18 837.20 C 532.47 832.52 537.36 829.37 540.88 824.88 C 593.30 772.27 645.86 719.79 698.35 667.25 Z" />
</g>
<g id="#898989ff">
<path fill="#898989" opacity="1.00" d=" M 699.33 671.37 C 702.67 667.46 707.55 665.53 711.83 662.90 C 711.82 664.71 711.83 666.54 711.89 668.37 C 706.80 669.86 703.12 673.87 699.22 677.22 C 679.39 697.07 659.55 716.93 639.73 736.78 C 629.45 747.13 619.01 757.31 609.10 767.96 C 605.17 770.75 602.76 775.06 599.02 778.04 C 594.72 781.40 591.73 786.11 587.34 789.39 C 584.15 793.19 580.47 796.49 576.85 799.86 C 573.77 804.46 568.79 807.20 565.48 811.58 C 562.68 815.13 558.54 817.32 555.99 821.11 C 522.72 854.77 489.13 888.19 455.71 921.73 C 452.01 925.33 448.27 929.00 443.94 931.85 C 436.33 935.94 427.42 935.48 419.05 935.44 C 369.03 935.43 319.00 935.45 268.98 935.43 C 263.81 935.13 258.05 934.78 254.06 931.05 C 254.68 930.16 255.32 929.31 255.99 928.48 C 257.77 928.49 259.55 928.49 261.34 928.49 C 262.16 929.76 263.11 931.34 264.87 931.34 C 268.56 931.76 272.28 931.91 275.99 932.13 C 289.99 931.40 304.02 931.91 318.04 931.76 C 329.01 932.28 340.01 931.19 350.97 932.06 C 355.32 932.43 359.66 931.47 364.02 931.76 C 369.67 932.19 375.34 931.95 381.00 932.08 C 389.98 931.48 398.97 932.36 407.95 931.71 C 415.98 932.20 424.01 931.79 432.05 931.65 C 438.68 931.37 444.20 927.16 449.09 923.08 C 452.71 920.34 455.08 916.32 458.71 913.60 C 462.12 911.00 464.14 907.04 467.60 904.50 C 471.08 901.99 473.15 898.09 476.55 895.50 C 480.38 892.66 482.74 888.35 486.59 885.53 C 489.85 883.15 491.84 879.50 494.96 876.98 C 499.67 873.39 502.75 868.16 507.53 864.63 C 511.55 859.58 517.05 856.03 520.84 850.78 C 549.44 822.07 578.12 793.42 606.75 764.73 C 615.96 755.29 625.72 746.37 634.36 736.38 C 656.03 714.73 677.69 693.06 699.33 671.37 Z" />
</g>
<g id="#3b84b1ff">
<path fill="#3b84b1" opacity="1.00" d=" M 454.55 704.85 C 466.82 692.45 479.18 680.13 491.49 667.78 C 495.74 669.76 500.51 668.86 505.03 669.01 C 566.44 669.09 627.86 668.88 689.27 669.11 C 689.53 669.90 689.78 670.71 690.03 671.52 C 677.32 684.30 664.61 697.09 651.81 709.77 C 651.95 708.51 652.17 707.28 652.40 706.05 C 587.93 705.87 523.46 706.00 458.99 705.96 C 457.44 705.89 456.00 705.28 454.55 704.85 Z" />
<path fill="#3b84b1" opacity="1.00" d=" M 713.00 669.05 C 774.98 668.95 836.97 669.08 898.96 669.01 C 956.22 669.07 1013.50 668.83 1070.76 669.19 C 1071.15 672.29 1070.06 676.12 1072.75 678.45 C 1072.86 693.79 1072.81 709.13 1072.69 724.47 C 1070.19 722.01 1071.32 718.25 1070.83 715.14 C 1048.91 714.57 1026.95 715.06 1005.02 714.89 C 986.34 714.85 967.67 714.89 948.99 714.91 C 943.06 714.94 937.09 714.52 931.21 715.45 C 931.01 710.92 931.17 706.38 930.90 701.86 C 930.59 701.98 929.96 702.24 929.65 702.36 C 927.85 703.98 926.21 705.76 924.51 707.48 C 923.62 704.32 927.34 702.65 928.86 700.41 C 924.63 699.47 920.31 700.12 916.04 700.03 C 862.03 700.01 808.01 699.98 754.00 700.03 C 740.74 699.94 727.48 700.24 714.24 699.76 C 714.09 689.50 712.61 679.33 713.00 669.05 Z" />
</g>
<g id="#adadadff">
<path fill="#adadad" opacity="1.00" d=" M 699.22 677.22 C 703.12 673.87 706.80 669.86 711.89 668.37 C 712.20 672.07 712.48 675.81 711.77 679.50 L 711.69 678.72 L 711.57 677.65 C 711.39 676.44 711.17 675.25 710.91 674.07 C 707.35 675.00 704.25 677.07 701.66 679.65 C 658.68 722.69 615.67 765.71 572.71 808.77 C 565.88 815.60 558.83 822.22 552.46 829.49 C 519.55 862.89 486.23 895.94 453.11 929.17 C 446.84 935.48 437.97 939.40 428.98 938.76 C 375.30 938.85 321.62 938.80 267.93 938.78 C 262.70 938.77 257.22 938.76 252.37 936.54 C 249.82 935.27 248.59 932.51 247.98 929.88 C 248.21 929.65 248.65 929.21 248.88 928.98 C 247.41 928.85 245.94 928.77 244.47 928.73 L 245.22 928.48 C 248.26 928.23 251.31 928.34 254.36 928.41 C 254.77 928.43 255.58 928.47 255.99 928.48 C 255.32 929.31 254.68 930.16 254.06 931.05 C 258.05 934.78 263.81 935.13 268.98 935.43 C 319.00 935.45 369.03 935.43 419.05 935.44 C 427.42 935.48 436.33 935.94 443.94 931.85 C 448.27 929.00 452.01 925.33 455.71 921.73 C 489.13 888.19 522.72 854.77 555.99 821.11 C 558.54 817.32 562.68 815.13 565.48 811.58 C 568.79 807.20 573.77 804.46 576.85 799.86 C 580.47 796.49 584.15 793.19 587.34 789.39 C 591.73 786.11 594.72 781.40 599.02 778.04 C 602.76 775.06 605.17 770.75 609.10 767.96 C 619.01 757.31 629.45 747.13 639.73 736.78 C 659.55 716.93 679.39 697.07 699.22 677.22 Z" />
</g>
<g id="#c7c7c7ff">
<path fill="#c7c7c7" opacity="1.00" d=" M 701.66 679.65 C 704.25 677.07 707.35 675.00 710.91 674.07 C 711.17 675.25 711.39 676.44 711.57 677.65 C 700.95 682.65 692.56 691.25 685.26 700.22 C 611.21 774.20 537.28 848.30 463.32 922.36 C 458.02 927.40 453.31 933.22 446.87 936.91 C 441.95 940.31 436.02 942.16 430.01 941.82 C 376.35 941.83 322.70 941.94 269.05 941.85 C 262.09 941.68 254.47 942.68 248.27 938.80 C 245.25 937.09 243.20 933.73 243.95 930.20 C 245.29 930.11 246.64 930.00 247.98 929.88 C 248.59 932.51 249.82 935.27 252.37 936.54 C 257.22 938.76 262.70 938.77 267.93 938.78 C 321.62 938.80 375.30 938.85 428.98 938.76 C 437.97 939.40 446.84 935.48 453.11 929.17 C 486.23 895.94 519.55 862.89 552.46 829.49 C 558.83 822.22 565.88 815.60 572.71 808.77 C 615.67 765.71 658.68 722.69 701.66 679.65 Z" />
</g>
<g id="#357ba7ff">
<path fill="#357ba7" opacity="1.00" d=" M 929.65 702.36 C 929.96 702.24 930.59 701.98 930.90 701.86 C 931.17 706.38 931.01 710.92 931.21 715.45 C 937.09 714.52 943.06 714.94 948.99 714.91 C 967.67 714.89 986.34 714.85 1005.02 714.89 C 1026.95 715.06 1048.91 714.57 1070.83 715.14 C 1071.32 718.25 1070.19 722.01 1072.69 724.47 C 1072.92 733.82 1072.81 743.18 1072.69 752.54 C 1069.92 749.84 1071.27 745.66 1070.76 742.23 C 1032.19 741.73 993.59 742.22 955.01 741.99 C 947.42 741.89 939.81 742.39 932.24 741.76 C 931.97 733.37 932.24 724.91 930.31 716.68 C 930.12 715.11 930.03 713.54 930.01 711.98 C 930.09 708.76 930.50 705.50 929.65 702.36 Z" />
</g>
<g id="#585959ff">
<path fill="#585959" opacity="1.00" d=" M 924.51 707.48 C 926.21 705.76 927.85 703.98 929.65 702.36 C 930.50 705.50 930.09 708.76 930.01 711.98 C 927.27 713.03 924.39 714.04 922.29 716.20 C 901.82 736.40 881.62 756.89 861.23 777.18 C 856.94 780.25 854.24 784.96 849.98 788.05 C 846.67 790.41 844.83 794.21 841.56 796.61 C 837.84 799.19 835.72 803.39 832.12 806.11 C 828.45 808.79 826.24 812.95 822.54 815.59 C 818.98 818.03 816.95 821.99 813.63 824.68 C 809.94 827.65 807.25 831.60 803.76 834.78 C 784.40 854.08 765.11 873.45 745.78 892.78 C 742.07 896.42 738.63 900.53 734.00 903.05 C 732.67 903.98 731.07 903.42 729.64 903.22 C 735.18 897.40 741.04 891.89 746.56 886.05 C 756.17 876.56 765.69 866.99 775.17 857.39 C 785.56 846.88 796.12 836.54 806.42 825.95 C 818.41 814.02 830.36 802.05 842.27 790.04 C 852.60 779.62 863.02 769.29 873.33 758.85 C 878.07 754.10 882.87 749.42 887.50 744.56 C 899.89 732.25 912.24 719.91 924.51 707.48 Z" />
</g>
<g id="#377da9ff">
<path fill="#377da9" opacity="1.00" d=" M 428.31 731.20 C 437.00 722.37 445.80 713.64 454.55 704.85 C 456.00 705.28 457.44 705.89 458.99 705.96 C 523.46 706.00 587.93 705.87 652.40 706.05 C 652.17 707.28 651.95 708.51 651.81 709.77 C 639.95 721.93 627.89 733.89 615.84 745.85 C 615.65 744.68 615.67 743.46 616.75 742.73 C 618.87 740.59 621.12 738.56 622.99 736.18 C 606.68 735.67 590.35 736.08 574.03 735.97 C 531.00 735.98 487.98 735.97 444.95 735.97 C 438.66 736.04 432.35 735.62 426.11 736.47 C 427.21 734.89 429.03 733.35 428.31 731.20 Z" />
</g>
<g id="#737373ff">
<path fill="#737373" opacity="1.00" d=" M 922.29 716.20 C 924.39 714.04 927.27 713.03 930.01 711.98 C 930.03 713.54 930.12 715.11 930.31 716.68 C 922.85 719.56 917.79 725.93 912.25 731.36 C 860.57 783.01 808.99 834.79 757.40 886.52 C 754.76 888.82 752.78 891.77 750.21 894.14 C 743.85 899.18 739.06 906.07 731.95 910.19 C 729.35 911.48 726.21 910.58 724.86 907.98 C 726.43 906.37 728.03 904.79 729.64 903.22 C 731.07 903.42 732.67 903.98 734.00 903.05 C 738.63 900.53 742.07 896.42 745.78 892.78 C 765.11 873.45 784.40 854.08 803.76 834.78 C 807.25 831.60 809.94 827.65 813.63 824.68 C 816.95 821.99 818.98 818.03 822.54 815.59 C 826.24 812.95 828.45 808.79 832.12 806.11 C 835.72 803.39 837.84 799.19 841.56 796.61 C 844.83 794.21 846.67 790.41 849.98 788.05 C 854.24 784.96 856.94 780.25 861.23 777.18 C 881.62 756.89 901.82 736.40 922.29 716.20 Z" />
</g>
<g id="#9a9a9aff">
<path fill="#9a9a9a" opacity="1.00" d=" M 912.25 731.36 C 917.79 725.93 922.85 719.56 930.31 716.68 C 930.21 720.18 930.25 723.70 930.26 727.21 C 929.79 726.16 929.32 725.13 928.84 724.12 C 921.53 727.15 916.65 733.70 911.04 738.99 C 856.45 793.72 801.78 848.39 747.21 903.17 C 743.10 907.06 739.32 911.34 734.90 914.90 C 732.30 916.74 729.42 918.91 726.05 918.54 C 722.97 918.36 721.15 915.53 719.24 913.50 C 721.09 911.64 723.01 909.85 724.86 907.98 C 726.21 910.58 729.35 911.48 731.95 910.19 C 739.06 906.07 743.85 899.18 750.21 894.14 C 752.78 891.77 754.76 888.82 757.40 886.52 C 808.99 834.79 860.57 783.01 912.25 731.36 Z" />
</g>
<g id="#3174a1ff">
<path fill="#3174a1" opacity="1.00" d=" M 930.31 716.68 C 932.24 724.91 931.97 733.37 932.24 741.76 C 939.81 742.39 947.42 741.89 955.01 741.99 C 993.59 742.22 1032.19 741.73 1070.76 742.23 C 1071.27 745.66 1069.92 749.84 1072.69 752.54 C 1073.02 764.92 1072.54 777.33 1072.88 789.71 L 1071.27 789.18 C 1070.85 785.85 1070.93 782.49 1070.81 779.15 C 1024.44 778.99 978.05 779.12 931.68 779.06 C 931.62 776.88 931.95 774.69 932.42 772.58 C 931.79 772.58 931.17 772.58 930.57 772.58 C 931.78 777.64 931.21 782.86 931.13 788.00 C 930.83 793.13 931.23 798.31 930.33 803.40 C 929.92 780.39 930.37 757.38 930.18 734.37 C 930.20 731.98 930.28 729.59 930.26 727.21 C 930.25 723.70 930.21 720.18 930.31 716.68 Z" />
</g>
<g id="#bfbfbfff">
<path fill="#bfbfbf" opacity="1.00" d=" M 911.04 738.99 C 916.65 733.70 921.53 727.15 928.84 724.12 C 929.32 725.13 929.79 726.16 930.26 727.21 C 930.28 729.59 930.20 731.98 930.18 734.37 C 929.71 732.64 929.21 730.93 928.69 729.24 C 921.30 731.68 916.65 738.13 911.24 743.27 C 880.54 773.87 849.90 804.62 819.36 835.31 C 816.79 839.06 812.66 841.27 809.93 844.87 C 807.24 848.54 803.15 850.82 800.37 854.41 C 797.40 858.07 793.30 860.62 790.48 864.42 C 788.02 867.63 784.30 869.58 781.93 872.88 C 779.28 876.57 775.13 878.77 772.47 882.45 C 769.97 885.95 765.92 887.91 763.43 891.43 C 760.80 895.13 756.80 897.51 754.02 901.08 C 751.30 904.68 747.20 906.89 744.47 910.48 C 741.74 914.04 737.94 916.53 734.73 919.63 C 731.10 922.85 725.29 925.01 720.82 922.25 C 718.42 920.91 717.88 918.08 717.12 915.70 C 717.81 914.95 718.51 914.22 719.24 913.50 C 721.15 915.53 722.97 918.36 726.05 918.54 C 729.42 918.91 732.30 916.74 734.90 914.90 C 739.32 911.34 743.10 907.06 747.21 903.17 C 801.78 848.39 856.45 793.72 911.04 738.99 Z" />
</g>
<g id="#dadadaff">
<path fill="#dadada" opacity="1.00" d=" M 911.24 743.27 C 916.65 738.13 921.30 731.68 928.69 729.24 C 929.21 730.93 929.71 732.64 930.18 734.37 C 930.37 757.38 929.92 780.39 930.33 803.40 C 930.21 841.28 930.26 879.16 930.18 917.04 C 930.13 920.82 930.47 924.64 929.73 928.38 C 928.90 925.32 929.18 922.13 929.19 919.01 C 929.22 880.35 929.21 841.69 929.22 803.02 C 929.08 780.88 929.60 758.73 928.86 736.61 C 926.60 737.80 923.66 736.84 921.77 738.78 C 916.40 742.71 912.04 747.72 907.31 752.34 C 884.46 775.14 861.71 798.05 838.87 820.84 C 833.92 826.54 827.95 831.27 823.20 837.17 C 819.01 840.33 816.31 844.98 812.09 848.09 C 809.06 850.41 807.21 853.87 804.24 856.24 C 799.43 859.79 796.33 865.06 791.52 868.61 C 787.09 873.82 781.79 878.15 777.24 883.23 C 772.52 886.51 769.65 891.63 765.16 895.14 C 762.14 897.48 760.21 900.89 757.26 903.29 C 752.91 906.62 749.92 911.32 745.57 914.65 C 740.64 920.18 734.87 925.32 727.88 928.04 C 721.75 930.21 713.35 925.71 714.25 918.62 C 715.24 917.67 716.18 916.68 717.12 915.70 C 717.88 918.08 718.42 920.91 720.82 922.25 C 725.29 925.01 731.10 922.85 734.73 919.63 C 737.94 916.53 741.74 914.04 744.47 910.48 C 747.20 906.89 751.30 904.68 754.02 901.08 C 756.80 897.51 760.80 895.13 763.43 891.43 C 765.92 887.91 769.97 885.95 772.47 882.45 C 775.13 878.77 779.28 876.57 781.93 872.88 C 784.30 869.58 788.02 867.63 790.48 864.42 C 793.30 860.62 797.40 858.07 800.37 854.41 C 803.15 850.82 807.24 848.54 809.93 844.87 C 812.66 841.27 816.79 839.06 819.36 835.31 C 849.90 804.62 880.54 773.87 911.24 743.27 Z" />
</g>
<g id="#3376a3ff">
<path fill="#3376a3" opacity="1.00" d=" M 400.16 759.44 C 409.53 750.01 418.91 740.60 428.31 731.20 C 429.03 733.35 427.21 734.89 426.11 736.47 C 432.35 735.62 438.66 736.04 444.95 735.97 C 487.98 735.97 531.00 735.98 574.03 735.97 C 590.35 736.08 606.68 735.67 622.99 736.18 C 621.12 738.56 618.87 740.59 616.75 742.73 C 615.67 743.46 615.65 744.68 615.84 745.85 C 607.73 754.19 599.51 762.44 591.16 770.54 C 591.44 767.38 594.12 765.44 595.95 763.14 C 549.63 762.76 503.29 763.16 456.97 762.97 C 438.23 762.90 419.49 763.18 400.76 762.84 C 400.55 761.70 400.34 760.56 400.16 759.44 Z" />
</g>
<g id="#30729eff">
<path fill="#30729e" opacity="1.00" d=" M 713.37 731.84 C 713.82 733.16 714.16 734.51 714.29 735.93 C 714.13 743.24 714.10 750.57 714.27 757.88 C 762.17 758.18 810.08 757.91 857.98 758.01 C 863.09 758.11 868.31 757.50 873.33 758.85 C 863.02 769.29 852.60 779.62 842.27 790.04 C 841.20 789.36 840.39 788.08 839.04 788.08 C 797.40 787.95 755.74 788.08 714.09 787.95 C 714.22 782.95 713.05 778.02 713.16 773.02 C 713.24 768.91 713.19 764.80 712.83 760.71 C 712.99 751.09 712.07 741.39 713.37 731.84 Z" />
</g>
<g id="#3377a3ff">
<path fill="#3377a3" opacity="1.00" d=" M 714.29 735.93 C 771.22 736.02 828.14 735.93 885.06 735.93 C 887.81 736.03 890.82 735.40 893.34 736.83 C 891.27 739.26 887.83 741.08 887.50 744.56 C 882.87 749.42 878.07 754.10 873.33 758.85 C 868.31 757.50 863.09 758.11 857.98 758.01 C 810.08 757.91 762.17 758.18 714.27 757.88 C 714.10 750.57 714.13 743.24 714.29 735.93 Z" />
</g>
<g id="#2f719dff">
<path fill="#2f719d" opacity="1.00" d=" M 375.38 784.35 C 383.57 775.98 391.92 767.77 400.16 759.44 C 400.34 760.56 400.55 761.70 400.76 762.84 C 419.49 763.18 438.23 762.90 456.97 762.97 C 503.29 763.16 549.63 762.76 595.95 763.14 C 594.12 765.44 591.44 767.38 591.16 770.54 C 582.03 780.07 572.61 789.33 563.21 798.60 C 563.19 795.32 566.13 793.45 567.97 791.15 C 522.66 790.78 477.34 791.15 432.03 790.95 C 412.07 790.91 392.09 791.24 372.13 790.82 C 373.37 788.77 376.63 787.09 375.38 784.35 Z" />
</g>
<g id="#27648fff">
<path fill="#27648f" opacity="1.00" d=" M 711.83 761.43 L 712.83 760.71 C 713.19 764.80 713.24 768.91 713.16 773.02 C 713.05 778.02 714.22 782.95 714.09 787.95 C 713.84 800.24 714.03 812.54 714.33 824.82 C 743.53 825.26 772.76 824.77 801.97 825.01 C 803.47 825.14 804.94 825.57 806.42 825.95 C 796.12 836.54 785.56 846.88 775.17 857.39 C 774.87 856.62 774.57 855.86 774.28 855.11 C 754.22 854.88 734.16 855.12 714.10 854.97 C 714.00 848.85 714.38 842.36 711.87 836.65 C 711.71 811.58 711.82 786.50 711.83 761.43 Z" />
<path fill="#27648f" opacity="1.00" d=" M 323.71 836.20 C 331.99 827.80 340.34 819.48 348.68 811.14 C 348.90 816.07 343.31 818.01 341.06 821.80 C 365.35 822.30 389.65 821.87 413.95 822.02 C 454.91 822.15 495.88 821.73 536.83 822.21 C 535.35 824.62 533.33 826.73 532.42 829.45 C 522.67 839.68 512.53 849.53 502.53 859.51 C 502.88 858.06 503.54 856.70 503.76 855.24 C 485.50 854.81 467.23 855.18 448.97 855.09 C 402.00 854.94 355.02 855.31 308.06 854.86 C 312.45 849.67 317.48 845.09 322.26 840.28 C 323.53 839.28 323.71 837.68 323.71 836.20 Z" />
</g>
<g id="#1d547fff">
<path fill="#1d547f" opacity="1.00" d=" M 930.57 772.58 C 931.17 772.58 931.79 772.58 932.42 772.58 C 931.95 774.69 931.62 776.88 931.68 779.06 C 931.70 796.02 931.56 812.97 931.85 829.93 C 931.59 838.29 931.97 846.66 932.01 855.03 C 931.90 867.27 932.03 879.52 932.29 891.76 C 956.52 892.37 980.79 891.82 1005.04 892.03 C 1027.23 891.85 1049.44 892.41 1071.61 891.81 C 1071.90 889.67 1072.43 887.58 1073.20 885.57 C 1073.48 899.84 1073.31 914.12 1073.31 928.40 C 1032.09 928.58 990.87 928.35 949.64 928.51 C 947.35 928.41 945.07 928.39 942.80 928.43 C 942.11 928.44 940.72 928.46 940.02 928.47 C 938.81 928.49 937.60 928.52 936.41 928.58 C 934.17 928.48 931.95 928.45 929.73 928.38 C 930.47 924.64 930.13 920.82 930.18 917.04 C 930.26 879.16 930.21 841.28 930.33 803.40 C 931.23 798.31 930.83 793.13 931.13 788.00 C 931.21 782.86 931.78 777.64 930.57 772.58 Z" />
</g>
<g id="#2b6b96ff">
<path fill="#2b6b96" opacity="1.00" d=" M 931.68 779.06 C 978.05 779.12 1024.44 778.99 1070.81 779.15 C 1070.93 782.49 1070.85 785.85 1071.27 789.18 L 1072.88 789.71 C 1073.90 803.06 1073.04 816.53 1073.31 829.94 C 1026.16 829.90 979.00 829.93 931.85 829.93 C 931.56 812.97 931.70 796.02 931.68 779.06 Z" />
<path fill="#2b6b96" opacity="1.00" d=" M 714.09 787.95 C 755.74 788.08 797.40 787.95 839.04 788.08 C 840.39 788.08 841.20 789.36 842.27 790.04 C 830.36 802.05 818.41 814.02 806.42 825.95 C 804.94 825.57 803.47 825.14 801.97 825.01 C 772.76 824.77 743.53 825.26 714.33 824.82 C 714.03 812.54 713.84 800.24 714.09 787.95 Z" />
</g>
<g id="#2b6a96ff">
<path fill="#2b6a96" opacity="1.00" d=" M 348.68 811.14 C 357.54 802.17 366.46 793.26 375.38 784.35 C 376.63 787.09 373.37 788.77 372.13 790.82 C 392.09 791.24 412.07 790.91 432.03 790.95 C 477.34 791.15 522.66 790.78 567.97 791.15 C 566.13 793.45 563.19 795.32 563.21 798.60 C 553.07 809.00 542.82 819.31 532.42 829.45 C 533.33 826.73 535.35 824.62 536.83 822.21 C 495.88 821.73 454.91 822.15 413.95 822.02 C 389.65 821.87 365.35 822.30 341.06 821.80 C 343.31 818.01 348.90 816.07 348.68 811.14 Z" />
</g>
<g id="#26638eff">
<path fill="#26638e" opacity="1.00" d=" M 931.85 829.93 C 979.00 829.93 1026.16 829.90 1073.31 829.94 C 1073.29 836.12 1073.47 842.31 1073.19 848.50 C 1072.48 850.55 1071.92 852.65 1071.54 854.80 C 1046.05 855.41 1020.52 854.85 995.02 855.05 C 974.01 855.05 953.01 855.05 932.01 855.03 C 931.97 846.66 931.59 838.29 931.85 829.93 Z" />
</g>
<g id="#215b86ff">
<path fill="#215b86" opacity="1.00" d=" M 285.65 874.36 C 298.30 861.59 311.01 848.90 323.71 836.20 C 323.71 837.68 323.53 839.28 322.26 840.28 C 317.48 845.09 312.45 849.67 308.06 854.86 C 355.02 855.31 402.00 854.94 448.97 855.09 C 467.23 855.18 485.50 854.81 503.76 855.24 C 503.54 856.70 502.88 858.06 502.53 859.51 C 488.93 873.42 475.09 887.11 461.33 900.86 C 459.56 900.43 457.78 899.98 455.96 899.94 C 412.99 899.97 370.02 899.98 327.05 899.95 C 305.75 899.90 284.44 900.18 263.15 899.77 C 269.89 892.29 277.24 885.38 284.32 878.24 C 285.53 877.30 285.58 875.73 285.65 874.36 Z" />
</g>
<g id="#1f5882ff">
<path fill="#1f5882" opacity="1.00" d=" M 711.87 836.65 C 714.38 842.36 714.00 848.85 714.10 854.97 C 713.93 865.23 713.98 875.51 714.30 885.77 C 721.17 886.25 728.06 885.80 734.95 886.01 C 738.82 886.15 742.72 885.25 746.56 886.05 C 741.04 891.89 735.18 897.40 729.64 903.22 C 728.03 904.79 726.43 906.37 724.86 907.98 C 723.01 909.85 721.09 911.64 719.24 913.50 C 718.51 914.22 717.81 914.95 717.12 915.70 C 716.18 916.68 715.24 917.67 714.25 918.62 C 713.47 919.32 712.68 920.02 711.89 920.72 C 711.72 892.70 711.77 864.67 711.87 836.65 Z" />
</g>
<g id="#225c87ff">
<path fill="#225c87" opacity="1.00" d=" M 1071.54 854.80 C 1071.92 852.65 1072.48 850.55 1073.19 848.50 C 1073.41 860.85 1073.45 873.22 1073.20 885.57 C 1072.43 887.58 1071.90 889.67 1071.61 891.81 C 1049.44 892.41 1027.23 891.85 1005.04 892.03 C 980.79 891.82 956.52 892.37 932.29 891.76 C 932.03 879.52 931.90 867.27 932.01 855.03 C 953.01 855.05 974.01 855.05 995.02 855.05 C 1020.52 854.85 1046.05 855.41 1071.54 854.80 Z" />
</g>
<g id="#235d88ff">
<path fill="#235d88" opacity="1.00" d=" M 714.10 854.97 C 734.16 855.12 754.22 854.88 774.28 855.11 C 774.57 855.86 774.87 856.62 775.17 857.39 C 765.69 866.99 756.17 876.56 746.56 886.05 C 742.72 885.25 738.82 886.15 734.95 886.01 C 728.06 885.80 721.17 886.25 714.30 885.77 C 713.98 875.51 713.93 865.23 714.10 854.97 Z" />
</g>
<g id="#1d547eff">
<path fill="#1d547e" opacity="1.00" d=" M 235.76 924.37 C 252.35 907.66 269.00 891.00 285.65 874.36 C 285.58 875.73 285.53 877.30 284.32 878.24 C 277.24 885.38 269.89 892.29 263.15 899.77 C 284.44 900.18 305.75 899.90 327.05 899.95 C 370.02 899.98 412.99 899.97 455.96 899.94 C 457.78 899.98 459.56 900.43 461.33 900.86 C 453.89 908.78 445.74 916.03 438.55 924.18 C 437.06 925.61 435.54 927.00 433.98 928.36 C 376.44 928.64 318.89 928.37 261.34 928.49 C 259.55 928.49 257.77 928.49 255.99 928.48 C 255.58 928.47 254.77 928.43 254.36 928.41 C 253.45 927.42 252.35 926.90 251.07 926.85 C 246.28 926.58 241.47 926.81 236.68 926.70 C 236.36 925.91 236.06 925.14 235.76 924.37 Z" />
</g>
<g id="#0b4574ff">
<path fill="#0b4574" opacity="1.00" d=" M 231.67 928.38 C 233.03 927.02 234.42 925.72 235.76 924.37 C 236.06 925.14 236.36 925.91 236.68 926.70 C 241.47 926.81 246.28 926.58 251.07 926.85 C 252.35 926.90 253.45 927.42 254.36 928.41 C 251.31 928.34 248.26 928.23 245.22 928.48 C 240.70 928.49 236.19 928.37 231.67 928.38 Z" />
</g>
</svg>
