<?xml version="1.0" encoding="UTF-8" ?>
<!DOCTYPE svg PUBLIC "-//W3C//DTD SVG 1.1//EN" "http://www.w3.org/Graphics/SVG/1.1/DTD/svg11.dtd">
<svg width="1276pt" height="1276pt" viewBox="0 0 1276 1276" version="1.1" xmlns="http://www.w3.org/2000/svg">
<g id="#ffffffff">
<path fill="#ffffff" opacity="1.00" d=" M 215.35 294.56 C 228.88 284.65 246.43 279.94 263.05 282.81 C 273.13 284.48 282.56 290.30 288.02 299.01 C 294.49 309.32 295.64 322.09 294.28 333.94 C 292.58 347.97 284.87 360.34 276.14 371.12 C 268.56 380.47 260.13 389.09 251.58 397.56 C 266.60 397.56 281.61 397.56 296.62 397.56 C 296.64 406.72 296.62 415.89 296.63 425.06 C 269.54 425.06 242.46 425.08 215.37 425.05 C 215.38 415.88 215.35 406.72 215.38 397.56 C 227.37 385.18 239.48 372.86 250.39 359.51 C 256.48 351.84 262.57 343.72 265.09 334.10 C 266.41 328.76 266.59 322.85 264.23 317.77 C 261.74 312.43 255.81 309.11 249.97 309.41 C 240.41 309.72 231.60 314.12 223.76 319.28 C 220.95 311.04 218.15 302.80 215.35 294.56 Z" />
<path fill="#ffffff" opacity="1.00" d=" M 358.67 282.79 C 369.58 280.69 381.68 282.39 390.61 289.35 C 400.72 297.02 406.45 309.03 409.48 321.09 C 413.49 337.40 413.91 354.42 412.61 371.10 C 411.23 385.73 407.88 400.90 398.70 412.75 C 393.19 419.91 385.06 425.01 376.14 426.59 C 363.93 428.85 350.24 426.56 340.93 417.90 C 330.39 408.21 325.70 393.94 323.46 380.18 C 321.01 363.59 321.07 346.60 323.61 330.03 C 325.89 316.64 330.23 302.83 339.97 292.93 C 345.02 287.81 351.59 284.17 358.67 282.79 M 363.17 310.23 C 357.53 312.98 355.21 319.43 353.55 325.07 C 350.06 339.06 350.16 353.67 350.86 367.98 C 351.61 377.01 352.55 386.59 357.60 394.38 C 360.33 398.78 366.00 401.21 370.99 399.37 C 376.14 397.55 378.91 392.29 380.68 387.47 C 384.02 377.69 384.27 367.22 384.49 357.00 C 384.44 346.30 384.14 335.46 381.40 325.06 C 380.10 320.42 378.27 315.66 374.67 312.31 C 371.69 309.43 366.97 308.57 363.17 310.23 Z" />
<path fill="#ffffff" opacity="1.00" d=" M 475.55 282.81 C 486.25 280.73 498.10 282.27 507.01 288.90 C 516.74 295.98 522.58 307.15 525.79 318.52 C 530.08 333.94 530.75 350.14 529.98 366.05 C 529.07 380.75 526.49 395.91 518.62 408.61 C 513.40 417.17 504.98 423.92 495.11 426.16 C 483.33 428.83 469.99 427.38 460.23 419.81 C 451.36 412.99 446.11 402.55 443.07 391.99 C 439.54 379.66 438.64 366.75 438.69 353.98 C 438.90 338.55 440.57 322.79 446.71 308.48 C 451.79 296.21 462.09 285.32 475.55 282.81 M 480.19 310.22 C 474.29 313.12 471.99 319.94 470.35 325.85 C 467.09 339.59 467.16 353.88 467.85 367.91 C 468.60 376.97 469.54 386.60 474.62 394.42 C 477.23 398.54 482.41 401.00 487.22 399.59 C 492.57 398.21 495.59 392.94 497.44 388.14 C 501.02 378.18 501.26 367.44 501.49 356.97 C 501.44 346.30 501.13 335.49 498.42 325.11 C 497.11 320.45 495.28 315.67 491.67 312.30 C 488.69 309.43 483.98 308.57 480.19 310.22 Z" />
<path fill="#ffffff" opacity="1.00" d=" M 591.60 282.80 C 602.29 280.74 614.12 282.28 623.01 288.90 C 632.73 295.97 638.57 307.12 641.78 318.48 C 646.07 333.89 646.75 350.08 645.98 365.98 C 645.08 380.67 642.51 395.83 634.66 408.54 C 629.46 417.11 621.05 423.89 611.17 426.15 C 599.35 428.84 585.95 427.39 576.17 419.77 C 566.77 412.50 561.47 401.22 558.50 389.97 C 554.52 374.31 554.14 357.96 555.20 341.92 C 556.40 327.44 559.25 312.57 567.17 300.15 C 572.65 291.50 581.43 284.74 591.60 282.80 M 596.21 310.21 C 591.35 312.45 588.99 317.74 587.32 322.51 C 583.74 333.95 583.50 346.09 583.48 357.98 C 583.74 368.73 584.13 379.82 588.18 389.93 C 590.14 394.84 594.16 399.87 599.91 399.95 C 605.28 400.34 609.63 396.26 611.83 391.73 C 616.43 382.56 616.93 372.05 617.39 361.99 C 617.65 350.81 617.44 339.51 615.24 328.51 C 613.98 322.91 612.26 317.07 608.21 312.82 C 605.24 309.59 600.24 308.45 596.21 310.21 Z" />
<path fill="#ffffff" opacity="1.00" d=" M 560.75 563.78 C 649.43 474.81 738.05 385.79 826.87 296.97 C 826.67 387.36 826.89 477.74 826.77 568.12 C 906.18 488.76 985.31 409.07 1064.62 329.59 C 1075.45 318.63 1086.47 307.85 1097.19 296.78 C 1097.46 317.01 1097.37 337.28 1097.24 357.52 C 1096.68 384.00 1097.16 410.50 1097.00 436.99 C 1097.06 517.51 1096.87 598.04 1097.10 678.56 C 1096.54 676.74 1095.82 674.93 1095.80 673.02 C 1095.82 575.99 1095.83 478.96 1095.79 381.94 C 1095.71 374.54 1096.91 366.25 1092.05 359.97 C 1089.07 355.20 1083.20 353.81 1077.99 353.33 C 1075.88 353.10 1074.12 354.43 1072.60 355.68 C 1050.57 378.11 1028.20 400.21 1006.07 422.54 C 996.28 432.49 986.30 442.25 976.56 452.25 C 959.81 468.94 943.13 485.70 926.44 502.45 C 913.96 515.07 901.27 527.49 888.90 540.21 C 877.13 551.84 865.41 563.53 853.84 575.36 C 844.08 584.95 834.43 594.67 824.80 604.40 C 823.20 601.14 821.50 597.74 821.58 594.01 C 821.60 525.06 821.65 456.11 821.56 387.17 C 820.75 379.19 821.78 369.64 815.31 363.68 C 812.04 360.23 807.11 360.21 802.71 360.34 C 802.70 358.78 802.71 357.23 802.72 355.69 C 779.56 378.72 756.53 401.87 733.50 425.04 C 723.86 434.78 714.07 444.38 704.52 454.20 C 688.19 470.52 671.84 486.81 655.63 503.25 C 642.02 516.86 628.34 530.40 614.88 544.16 C 601.11 557.78 587.45 571.52 573.81 585.27 C 557.16 601.86 540.59 618.53 523.99 635.16 C 513.14 646.08 502.22 656.94 491.39 667.88 C 479.09 680.22 466.75 692.53 454.48 704.91 C 445.81 713.66 437.01 722.29 428.43 731.13 C 418.95 740.50 409.58 749.98 400.17 759.42 C 391.98 767.72 383.65 775.88 375.52 784.24 C 366.58 793.17 357.58 802.04 348.78 811.11 C 340.40 819.39 332.03 827.69 323.83 836.14 C 311.06 848.77 298.40 861.51 285.76 874.26 C 269.02 890.95 252.33 907.69 235.67 924.45 C 234.35 925.76 233.02 927.05 231.69 928.38 C 236.10 928.51 240.52 928.23 244.92 928.49 L 245.03 928.49 C 242.93 929.14 240.81 929.76 238.61 929.92 C 235.92 930.49 231.29 928.76 230.40 932.35 C 230.23 936.16 231.72 939.93 233.49 943.26 C 237.10 948.50 243.86 950.72 250.00 950.81 C 311.00 950.85 372.01 950.77 433.01 950.83 C 437.55 950.76 442.08 950.40 446.62 950.32 C 445.92 950.98 445.23 951.66 444.55 952.35 C 360.38 952.35 276.21 952.25 192.05 952.53 C 185.74 952.46 179.43 952.69 173.13 952.41 C 196.91 929.10 220.18 905.27 243.77 881.76 C 349.36 775.70 455.14 669.82 560.75 563.78 Z" />
<path fill="#ffffff" opacity="1.00" d=" M 1095.78 696.99 C 1095.86 695.06 1096.58 693.25 1097.13 691.42 C 1096.83 778.34 1097.08 865.26 1097.01 952.18 C 1053.01 952.14 1009.01 952.17 965.01 952.16 C 954.13 952.32 943.24 951.83 932.38 952.44 C 923.46 952.64 914.53 952.50 905.62 952.50 C 905.70 896.35 905.63 840.20 905.65 784.05 C 905.59 776.52 905.81 769.01 905.93 761.49 C 906.35 761.56 907.19 761.69 907.61 761.76 L 907.74 762.84 C 911.37 759.46 914.66 755.58 919.15 753.29 C 921.59 756.06 921.31 759.90 921.74 763.35 C 922.74 775.20 921.93 787.11 922.19 798.99 C 922.14 831.35 922.20 863.70 922.18 896.06 C 921.99 906.28 922.77 916.55 921.34 926.71 C 926.30 930.24 925.27 937.01 928.36 941.72 C 931.53 946.63 936.89 950.63 942.93 950.71 C 951.30 951.03 959.69 950.74 968.07 950.81 C 1010.61 950.78 1053.15 950.93 1095.68 950.73 C 1095.97 921.51 1095.77 892.28 1095.82 863.06 C 1095.77 807.70 1095.89 752.34 1095.78 696.99 Z" />
<path fill="#ffffff" opacity="1.00" d=" M 687.80 708.96 C 693.30 705.18 697.03 699.28 702.97 696.03 C 705.65 697.83 706.05 701.02 705.93 704.02 C 705.95 766.00 705.94 827.98 705.92 889.96 C 706.08 900.08 705.40 910.26 706.64 920.34 C 707.36 926.79 711.63 933.13 718.00 935.12 C 722.77 936.89 727.78 934.97 732.59 934.36 C 717.66 949.39 702.67 964.36 687.74 979.38 C 687.33 923.26 687.68 867.11 687.56 810.98 C 687.66 776.97 687.34 742.96 687.80 708.96 Z" />
</g>
<g id="#f5f5f5ff">
<path fill="#f5f5f5" opacity="1.00" d=" M 1072.60 355.68 C 1074.12 354.43 1075.88 353.10 1077.99 353.33 C 1083.20 353.81 1089.07 355.20 1092.05 359.97 C 1096.91 366.25 1095.71 374.54 1095.79 381.94 C 1095.83 478.96 1095.82 575.99 1095.80 673.02 C 1095.82 674.93 1096.54 676.74 1097.10 678.56 C 1097.13 682.84 1097.17 687.13 1097.13 691.42 C 1096.58 693.25 1095.86 695.06 1095.78 696.99 C 1095.89 752.34 1095.77 807.70 1095.82 863.06 C 1095.77 892.28 1095.97 921.51 1095.68 950.73 C 1053.15 950.93 1010.61 950.78 968.07 950.81 C 959.69 950.74 951.30 951.03 942.93 950.71 C 936.89 950.63 931.53 946.63 928.36 941.72 C 925.27 937.01 926.30 930.24 921.34 926.71 C 922.77 916.55 921.99 906.28 922.18 896.06 C 922.20 863.70 922.14 831.35 922.19 798.99 C 921.93 787.11 922.74 775.20 921.74 763.35 C 921.31 759.90 921.59 756.06 919.15 753.29 C 914.66 755.58 911.37 759.46 907.74 762.84 L 907.61 761.76 C 907.19 761.69 906.35 761.56 905.93 761.49 L 904.98 761.31 C 847.67 819.14 790.05 876.68 732.59 934.36 C 727.78 934.97 722.77 936.89 718.00 935.12 C 711.63 933.13 707.36 926.79 706.64 920.34 C 705.40 910.26 706.08 900.08 705.92 889.96 C 705.94 827.98 705.95 766.00 705.93 704.02 C 706.05 701.02 705.65 697.83 702.97 696.03 C 697.03 699.28 693.30 705.18 687.80 708.96 C 687.47 709.12 686.80 709.45 686.47 709.61 C 606.64 789.96 526.55 870.07 446.62 950.32 C 442.08 950.40 437.55 950.76 433.01 950.83 C 372.01 950.77 311.00 950.85 250.00 950.81 C 243.86 950.72 237.10 948.50 233.49 943.26 C 231.72 939.93 230.23 936.16 230.40 932.35 C 231.29 928.76 235.92 930.49 238.61 929.92 C 239.36 933.75 239.33 938.63 243.09 940.94 C 248.66 944.52 255.53 945.09 261.99 945.37 C 315.65 945.33 369.31 945.35 422.97 945.36 C 431.90 945.54 441.43 945.02 449.29 940.32 C 454.78 936.22 460.04 931.70 464.45 926.42 C 467.57 923.22 471.19 920.54 473.97 917.01 C 544.68 845.72 615.92 774.91 686.61 703.57 C 691.67 697.97 697.32 692.94 702.86 687.83 C 704.85 685.73 707.70 686.47 710.12 687.22 C 710.70 684.59 711.33 681.97 711.76 679.31 L 711.88 678.48 C 711.70 705.87 711.73 733.27 711.87 760.66 C 711.70 786.05 711.85 811.43 711.78 836.82 L 713.54 836.72 L 711.80 837.18 C 711.86 865.04 711.67 892.91 711.89 920.77 C 712.68 920.04 713.46 919.31 714.24 918.59 C 713.44 926.04 722.36 930.59 728.67 927.82 C 738.66 923.43 745.54 914.56 753.20 907.14 C 758.13 902.41 762.79 897.41 767.77 892.73 C 775.34 884.36 783.89 876.95 791.60 868.72 C 796.30 864.70 799.97 859.66 804.77 855.75 C 837.49 822.19 870.66 789.02 903.83 755.88 C 909.52 750.23 914.93 744.24 921.21 739.23 C 923.29 737.36 926.19 737.27 928.82 736.81 C 929.42 746.85 929.12 756.91 929.19 766.96 C 929.17 813.97 929.15 860.99 929.14 908.00 C 929.39 914.76 928.46 921.60 929.74 928.30 C 931.75 928.61 933.77 928.95 935.74 929.56 C 934.17 929.83 932.62 930.12 931.07 930.40 C 931.38 936.94 936.53 941.83 941.82 944.98 C 945.96 946.70 950.56 946.59 954.97 946.70 C 1000.52 946.64 1046.07 946.74 1091.62 946.66 C 1091.57 761.11 1091.59 575.57 1091.61 390.02 C 1092.01 382.56 1091.23 375.08 1088.84 367.98 C 1087.49 361.62 1079.87 358.04 1073.94 360.21 C 1073.53 359.42 1073.14 358.62 1072.78 357.83 C 1072.74 357.29 1072.64 356.22 1072.60 355.68 Z" />
</g>
<g id="#61beefff">
<path fill="#61beef" opacity="1.00" d=" M 733.50 425.04 C 756.53 401.87 779.56 378.72 802.72 355.69 C 802.71 357.23 802.70 358.78 802.71 360.34 C 802.70 363.05 802.70 365.76 802.73 368.47 C 802.73 370.06 802.76 371.67 802.78 373.27 C 802.77 375.01 802.79 376.76 802.79 378.51 C 802.78 382.21 802.74 385.91 802.75 389.61 C 802.65 412.51 802.84 435.42 802.54 458.31 L 802.14 459.67 C 801.50 448.51 802.01 437.29 800.60 426.17 C 780.39 425.74 760.16 426.24 739.95 426.04 C 737.77 425.92 735.63 425.48 733.50 425.04 Z" />
<path fill="#61beef" opacity="1.00" d=" M 1072.60 355.68 C 1072.64 356.22 1072.74 357.29 1072.78 357.83 C 1072.81 361.07 1072.73 364.31 1072.78 367.56 L 1072.81 369.05 C 1072.83 371.80 1072.82 374.55 1072.85 377.30 C 1072.84 381.57 1072.81 385.85 1072.82 390.12 C 1072.78 408.18 1072.79 426.24 1072.73 444.30 C 1070.93 438.43 1070.84 432.27 1070.70 426.19 C 1049.39 425.68 1028.05 426.38 1006.75 425.87 C 1006.52 424.75 1006.28 423.64 1006.07 422.54 C 1028.20 400.21 1050.57 378.11 1072.60 355.68 Z" />
</g>
<g id="#e6e6e6ff">
<path fill="#e6e6e6" opacity="1.00" d=" M 1072.78 357.83 C 1073.14 358.62 1073.53 359.42 1073.94 360.21 C 1079.87 358.04 1087.49 361.62 1088.84 367.98 C 1091.23 375.08 1092.01 382.56 1091.61 390.02 C 1091.59 575.57 1091.57 761.11 1091.62 946.66 C 1046.07 946.74 1000.52 946.64 954.97 946.70 C 950.56 946.59 945.96 946.70 941.82 944.98 C 936.53 941.83 931.38 936.94 931.07 930.40 C 932.62 930.12 934.17 929.83 935.74 929.56 C 937.05 932.33 937.85 935.67 940.57 937.48 C 945.07 940.64 950.44 942.81 956.03 942.52 C 999.79 942.31 1043.55 942.74 1087.30 942.30 C 1087.74 918.18 1087.33 894.05 1087.47 869.93 C 1087.46 710.26 1087.48 550.60 1087.47 390.94 C 1087.49 383.51 1086.56 375.37 1081.63 369.46 C 1079.52 366.63 1075.79 367.55 1072.78 367.56 C 1072.73 364.31 1072.81 361.07 1072.78 357.83 Z" />
</g>
<g id="#27272762">
<path fill="#272727" opacity="0.38" d=" M 1097.24 357.52 C 1097.95 360.27 1097.87 363.13 1097.84 365.95 C 1097.84 558.99 1097.83 751.94 1097.84 944.96 C 1097.73 947.48 1098.21 950.09 1097.56 952.56 C 1096.16 953.27 1094.49 952.90 1093.01 953.04 C 1043.35 952.96 993.68 953.03 944.02 953.00 C 940.13 952.95 936.20 953.33 932.38 952.44 C 943.24 951.83 954.13 952.32 965.01 952.16 C 1009.01 952.17 1053.01 952.14 1097.01 952.18 C 1097.08 865.26 1096.83 778.34 1097.13 691.42 C 1097.17 687.13 1097.13 682.84 1097.10 678.56 C 1096.87 598.04 1097.06 517.51 1097.00 436.99 C 1097.16 410.50 1096.68 384.00 1097.24 357.52 Z" />
</g>
<g id="#e2e2e2ff">
<path fill="#e2e2e2" opacity="1.00" d=" M 802.71 360.34 C 807.11 360.21 812.04 360.23 815.31 363.68 C 821.78 369.64 820.75 379.19 821.56 387.17 C 821.65 456.11 821.60 525.06 821.58 594.01 C 821.50 597.74 823.20 601.14 824.80 604.40 C 822.19 607.10 819.47 609.69 816.83 612.35 C 814.99 605.36 815.67 598.10 815.58 590.97 C 815.57 522.29 815.59 453.61 815.57 384.93 C 815.64 381.00 814.93 377.13 813.84 373.37 C 813.54 373.62 812.94 374.13 812.64 374.38 C 812.02 372.53 812.51 369.47 810.03 369.03 C 807.66 368.30 805.15 368.53 802.73 368.47 C 802.70 365.76 802.70 363.05 802.71 360.34 Z" />
</g>
<g id="#cdcdcdff">
<path fill="#cdcdcd" opacity="1.00" d=" M 1072.78 367.56 C 1075.79 367.55 1079.52 366.63 1081.63 369.46 C 1086.56 375.37 1087.49 383.51 1087.47 390.94 C 1087.48 550.60 1087.46 710.26 1087.47 869.93 C 1087.33 894.05 1087.74 918.18 1087.30 942.30 C 1043.55 942.74 999.79 942.31 956.03 942.52 C 950.44 942.81 945.07 940.64 940.57 937.48 C 937.85 935.67 937.05 932.33 935.74 929.56 C 933.77 928.95 931.75 928.61 929.74 928.30 C 934.12 928.37 938.51 928.51 942.90 928.51 C 941.18 929.14 939.51 929.90 937.85 930.66 C 941.93 935.83 948.13 939.91 954.95 939.54 C 993.28 939.51 1031.63 939.54 1069.97 939.52 C 1074.85 939.42 1079.77 939.34 1084.60 940.28 C 1084.21 891.85 1084.55 843.41 1084.43 794.98 C 1084.44 661.99 1084.44 528.99 1084.43 396.00 C 1084.34 388.43 1085.31 380.27 1081.43 373.39 C 1079.91 370.07 1075.77 370.21 1072.81 369.05 L 1072.78 367.56 Z" />
</g>
<g id="#bdbdbdff">
<path fill="#bdbdbd" opacity="1.00" d=" M 802.73 368.47 C 805.15 368.53 807.66 368.30 810.03 369.03 C 812.51 369.47 812.02 372.53 812.64 374.38 C 812.94 374.13 813.54 373.62 813.84 373.37 C 814.93 377.13 815.64 381.00 815.57 384.93 C 815.59 453.61 815.57 522.29 815.58 590.97 C 815.67 598.10 814.99 605.36 816.83 612.35 C 815.48 613.70 814.13 615.06 812.78 616.41 C 812.33 607.29 811.74 598.15 812.25 589.02 C 812.19 567.35 812.36 545.68 812.24 524.01 C 811.59 516.00 812.59 507.99 812.21 499.98 C 812.13 485.32 812.62 470.65 811.98 456.00 C 811.91 445.01 812.46 434.03 812.28 423.05 C 812.08 409.90 812.86 396.70 811.39 383.60 C 810.92 380.58 810.16 377.32 807.93 375.11 C 806.37 374.11 804.49 373.84 802.78 373.27 C 802.76 371.67 802.73 370.06 802.73 368.47 Z" />
</g>
<g id="#b1b1b1ff">
<path fill="#b1b1b1" opacity="1.00" d=" M 1072.81 369.05 C 1075.77 370.21 1079.91 370.07 1081.43 373.39 C 1085.31 380.27 1084.34 388.43 1084.43 396.00 C 1084.44 528.99 1084.44 661.99 1084.43 794.98 C 1084.55 843.41 1084.21 891.85 1084.60 940.28 C 1079.77 939.34 1074.85 939.42 1069.97 939.52 C 1031.63 939.54 993.28 939.51 954.95 939.54 C 948.13 939.91 941.93 935.83 937.85 930.66 C 939.51 929.90 941.18 929.14 942.90 928.51 L 943.63 928.48 C 945.78 934.66 953.50 934.93 958.98 935.49 C 999.46 935.48 1039.94 935.56 1080.41 935.45 C 1080.41 754.96 1080.40 574.46 1080.42 393.97 C 1080.19 389.74 1079.99 385.43 1078.75 381.37 C 1077.84 378.84 1075.52 377.20 1072.85 377.30 C 1072.82 374.55 1072.83 371.80 1072.81 369.05 Z" />
</g>
<g id="#a1a1a1ff">
<path fill="#a1a1a1" opacity="1.00" d=" M 802.78 373.27 C 804.49 373.84 806.37 374.11 807.93 375.11 C 810.16 377.32 810.92 380.58 811.39 383.60 C 812.86 396.70 812.08 409.90 812.28 423.05 C 812.46 434.03 811.91 445.01 811.98 456.00 C 812.62 470.65 812.13 485.32 812.21 499.98 C 812.59 507.99 811.59 516.00 812.24 524.01 C 812.36 545.68 812.19 567.35 812.25 589.02 C 811.74 598.15 812.33 607.29 812.78 616.41 C 812.01 617.17 811.24 617.93 810.49 618.70 C 808.28 611.32 808.62 603.56 808.66 595.95 C 808.66 527.64 808.66 459.32 808.65 391.00 C 808.82 386.68 808.08 382.26 805.45 378.73 C 804.55 378.66 803.67 378.58 802.79 378.51 C 802.79 376.76 802.77 375.01 802.78 373.27 Z" />
</g>
<g id="#858585ff">
<path fill="#858585" opacity="1.00" d=" M 1072.85 377.30 C 1075.52 377.20 1077.84 378.84 1078.75 381.37 C 1079.99 385.43 1080.19 389.74 1080.42 393.97 C 1080.40 574.46 1080.41 754.96 1080.41 935.45 C 1039.94 935.56 999.46 935.48 958.98 935.49 C 953.50 934.93 945.78 934.66 943.63 928.48 C 945.62 928.43 947.63 928.44 949.64 928.51 C 952.61 929.89 955.63 931.52 959.02 931.45 C 996.68 931.49 1034.34 931.39 1072.00 931.50 C 1073.33 931.52 1074.64 931.33 1075.93 930.94 C 1076.75 927.01 1076.32 922.97 1076.38 919.00 C 1076.36 746.33 1076.38 573.67 1076.37 401.00 C 1076.25 396.16 1075.64 391.36 1074.83 386.60 C 1074.12 387.76 1073.44 388.92 1072.82 390.12 C 1072.81 385.85 1072.84 381.57 1072.85 377.30 Z" />
</g>
<g id="#807f7fff">
<path fill="#807f7f" opacity="1.00" d=" M 802.79 378.51 C 803.67 378.58 804.55 378.66 805.45 378.73 C 808.08 382.26 808.82 386.68 808.65 391.00 C 808.66 459.32 808.66 527.64 808.66 595.95 C 808.62 603.56 808.28 611.32 810.49 618.70 C 809.29 619.91 808.10 621.13 806.91 622.36 C 804.85 616.42 805.49 610.08 805.41 603.92 C 805.41 538.94 805.43 473.96 805.43 408.98 C 805.38 402.43 805.66 395.86 804.98 389.33 C 804.42 389.40 803.31 389.54 802.75 389.61 C 802.74 385.91 802.78 382.21 802.79 378.51 Z" />
</g>
<g id="#6b6764ff">
<path fill="#6b6764" opacity="1.00" d=" M 1072.82 390.12 C 1073.44 388.92 1074.12 387.76 1074.83 386.60 C 1075.64 391.36 1076.25 396.16 1076.37 401.00 C 1076.38 573.67 1076.36 746.33 1076.38 919.00 C 1076.32 922.97 1076.75 927.01 1075.93 930.94 C 1074.64 931.33 1073.33 931.52 1072.00 931.50 C 1034.34 931.39 996.68 931.49 959.02 931.45 C 955.63 931.52 952.61 929.89 949.64 928.51 C 990.88 928.39 1032.12 928.53 1073.35 928.44 C 1073.31 914.17 1073.40 899.91 1073.27 885.65 C 1073.41 873.30 1073.35 860.96 1073.27 848.61 C 1073.39 842.40 1073.31 836.19 1073.32 829.98 C 1073.02 816.70 1073.92 803.36 1072.87 790.12 C 1072.57 777.63 1073.09 765.12 1072.66 752.64 C 1072.81 743.30 1072.99 733.95 1072.64 724.62 C 1072.80 709.31 1072.95 693.98 1072.66 678.66 C 1072.76 673.56 1072.88 668.45 1072.71 663.35 C 1072.61 639.99 1073.14 616.62 1072.58 593.28 C 1072.83 568.71 1072.85 544.13 1072.70 519.56 C 1072.66 494.47 1072.86 469.39 1072.73 444.30 C 1072.79 426.24 1072.78 408.18 1072.82 390.12 Z" />
</g>
<g id="#636667ff">
<path fill="#636667" opacity="1.00" d=" M 802.75 389.61 C 803.31 389.54 804.42 389.40 804.98 389.33 C 805.66 395.86 805.38 402.43 805.43 408.98 C 805.43 473.96 805.41 538.94 805.41 603.92 C 805.49 610.08 804.85 616.42 806.91 622.36 C 805.50 623.79 804.09 625.23 802.69 626.68 C 802.64 624.99 802.60 623.31 802.53 621.64 C 802.71 608.31 802.86 594.97 802.56 581.65 C 802.69 567.40 802.84 553.14 802.58 538.89 C 802.63 512.03 802.99 485.16 802.54 458.31 C 802.84 435.42 802.65 412.51 802.75 389.61 Z" />
</g>
<g id="#5bb6e6ff">
<path fill="#5bb6e6" opacity="1.00" d=" M 976.56 452.25 C 986.30 442.25 996.28 432.49 1006.07 422.54 C 1006.28 423.64 1006.52 424.75 1006.75 425.87 C 1028.05 426.38 1049.39 425.68 1070.70 426.19 C 1070.84 432.27 1070.93 438.43 1072.73 444.30 C 1072.86 469.39 1072.66 494.47 1072.70 519.56 L 1072.01 520.34 C 1072.10 508.55 1072.14 496.74 1071.07 484.99 C 1070.80 476.74 1071.02 468.49 1070.64 460.25 C 1037.78 459.82 1004.90 460.45 972.05 459.92 C 973.88 457.60 976.75 455.54 976.56 452.25 Z" />
<path fill="#5bb6e6" opacity="1.00" d=" M 704.52 454.20 C 714.07 444.38 723.86 434.78 733.50 425.04 C 735.63 425.48 737.77 425.92 739.95 426.04 C 760.16 426.24 780.39 425.74 800.60 426.17 C 802.01 437.29 801.50 448.51 802.14 459.67 C 801.60 469.79 802.25 479.94 801.47 490.05 C 800.39 480.15 801.27 470.18 800.72 460.25 C 767.98 459.86 735.23 460.37 702.49 460.03 C 703.47 458.20 704.36 456.30 704.52 454.20 Z" />
</g>
<g id="#56adddff">
<path fill="#56addd" opacity="1.00" d=" M 926.44 502.45 C 943.13 485.70 959.81 468.94 976.56 452.25 C 976.75 455.54 973.88 457.60 972.05 459.92 C 1004.90 460.45 1037.78 459.82 1070.64 460.25 C 1071.02 468.49 1070.80 476.74 1071.07 484.99 C 1072.14 496.74 1072.10 508.55 1072.01 520.34 C 1071.65 526.26 1072.04 532.19 1071.46 538.10 C 1070.74 529.14 1071.15 520.14 1070.67 511.18 C 1044.79 510.56 1018.88 511.18 992.99 510.91 C 969.00 510.91 945.01 511.03 921.03 510.88 C 922.86 508.81 924.71 506.76 926.56 504.71 C 926.53 504.15 926.47 503.02 926.44 502.45 Z" />
<path fill="#56addd" opacity="1.00" d=" M 655.63 503.25 C 671.84 486.81 688.19 470.52 704.52 454.20 C 704.36 456.30 703.47 458.20 702.49 460.03 C 735.23 460.37 767.98 459.86 800.72 460.25 C 801.27 470.18 800.39 480.15 801.47 490.05 C 802.25 479.94 801.60 469.79 802.14 459.67 L 802.54 458.31 C 802.99 485.16 802.63 512.03 802.58 538.89 C 801.88 536.96 801.02 535.04 801.07 532.95 C 800.93 525.71 801.11 518.47 800.69 511.23 C 783.83 510.70 766.93 511.25 750.05 511.06 C 717.06 510.97 684.06 511.19 651.08 510.83 C 652.91 508.54 655.85 506.53 655.63 503.25 Z" />
</g>
<g id="#50a4d3ff">
<path fill="#50a4d3" opacity="1.00" d=" M 888.90 540.21 C 901.27 527.49 913.96 515.07 926.44 502.45 C 926.47 503.02 926.53 504.15 926.56 504.71 C 924.71 506.76 922.86 508.81 921.03 510.88 C 945.01 511.03 969.00 510.91 992.99 510.91 C 1018.88 511.18 1044.79 510.56 1070.67 511.18 C 1071.15 520.14 1070.74 529.14 1071.46 538.10 C 1072.04 532.19 1071.65 526.26 1072.01 520.34 L 1072.70 519.56 C 1072.85 544.13 1072.83 568.71 1072.58 593.28 L 1072.28 594.49 C 1070.81 579.11 1071.13 563.67 1070.71 548.25 C 1008.50 547.82 946.28 548.41 884.08 547.95 C 886.18 545.71 888.12 543.25 888.90 540.21 Z" />
</g>
<g id="#4fa3d2ff">
<path fill="#4fa3d2" opacity="1.00" d=" M 614.88 544.16 C 628.34 530.40 642.02 516.86 655.63 503.25 C 655.85 506.53 652.91 508.54 651.08 510.83 C 684.06 511.19 717.06 510.97 750.05 511.06 C 766.93 511.25 783.83 510.70 800.69 511.23 C 801.11 518.47 800.93 525.71 801.07 532.95 C 801.02 535.04 801.88 536.96 802.58 538.89 C 802.84 553.14 802.69 567.40 802.56 581.65 C 799.47 574.93 801.92 567.29 800.74 560.19 C 774.50 559.66 748.24 560.06 721.99 559.97 C 695.99 559.77 670.00 560.12 644.00 559.90 C 630.00 560.07 616.01 560.14 602.01 559.82 C 605.18 556.06 608.83 552.77 612.30 549.31 C 613.84 548.00 614.31 546.00 614.88 544.16 Z" />
</g>
<g id="#4a9bc9ff">
<path fill="#4a9bc9" opacity="1.00" d=" M 853.84 575.36 C 865.41 563.53 877.13 551.84 888.90 540.21 C 888.12 543.25 886.18 545.71 884.08 547.95 C 946.28 548.41 1008.50 547.82 1070.71 548.25 C 1071.13 563.67 1070.81 579.11 1072.28 594.49 C 1071.26 603.32 1072.24 612.23 1071.47 621.09 C 1070.73 614.80 1071.24 608.48 1070.81 602.18 C 1047.54 601.51 1024.24 602.12 1000.96 601.93 C 943.99 601.86 887.01 602.00 830.04 601.84 C 836.83 594.39 844.18 587.47 851.25 580.28 C 852.64 578.96 853.15 577.07 853.84 575.36 Z" />
</g>
<g id="#499ac8ff">
<path fill="#499ac8" opacity="1.00" d=" M 573.81 585.27 C 587.45 571.52 601.11 557.78 614.88 544.16 C 614.31 546.00 613.84 548.00 612.30 549.31 C 608.83 552.77 605.18 556.06 602.01 559.82 C 616.01 560.14 630.00 560.07 644.00 559.90 C 670.00 560.12 695.99 559.77 721.99 559.97 C 748.24 560.06 774.50 559.66 800.74 560.19 C 801.92 567.29 799.47 574.93 802.56 581.65 C 802.86 594.97 802.71 608.31 802.53 621.64 C 801.81 619.81 800.89 617.99 800.96 615.98 C 800.84 609.38 801.17 602.77 800.69 596.18 C 728.16 595.88 655.61 596.14 583.07 596.06 C 577.40 595.99 571.71 596.22 566.05 595.80 C 568.60 592.25 573.24 589.98 573.81 585.27 Z" />
</g>
<g id="#4492c0ff">
<path fill="#4492c0" opacity="1.00" d=" M 824.80 604.40 C 834.43 594.67 844.08 584.95 853.84 575.36 C 853.15 577.07 852.64 578.96 851.25 580.28 C 844.18 587.47 836.83 594.39 830.04 601.84 C 887.01 602.00 943.99 601.86 1000.96 601.93 C 1024.24 602.12 1047.54 601.51 1070.81 602.18 C 1071.24 608.48 1070.73 614.80 1071.47 621.09 C 1072.24 612.23 1071.26 603.32 1072.28 594.49 L 1072.58 593.28 C 1073.14 616.62 1072.61 639.99 1072.71 663.35 C 1071.50 655.34 1071.09 647.24 1070.75 639.15 C 1056.18 638.63 1041.58 639.29 1027.00 638.96 C 859.25 638.97 691.50 638.96 523.75 638.97 C 523.83 637.69 523.90 636.42 523.99 635.16 C 540.59 618.53 557.16 601.86 573.81 585.27 C 573.24 589.98 568.60 592.25 566.05 595.80 C 571.71 596.22 577.40 595.99 583.07 596.06 C 655.61 596.14 728.16 595.88 800.69 596.18 C 801.17 602.77 800.84 609.38 800.96 615.98 C 800.89 617.99 801.81 619.81 802.53 621.64 C 802.60 623.31 802.64 624.99 802.69 626.68 C 804.09 625.23 805.50 623.79 806.91 622.36 C 808.10 621.13 809.29 619.91 810.49 618.70 C 811.24 617.93 812.01 617.17 812.78 616.41 C 814.13 615.06 815.48 613.70 816.83 612.35 C 819.47 609.69 822.19 607.10 824.80 604.40 Z" />
</g>
<g id="#3f8ab8ff">
<path fill="#3f8ab8" opacity="1.00" d=" M 491.39 667.88 C 502.22 656.94 513.14 646.08 523.99 635.16 C 523.90 636.42 523.83 637.69 523.75 638.97 C 691.50 638.96 859.25 638.97 1027.00 638.96 C 1041.58 639.29 1056.18 638.63 1070.75 639.15 C 1071.09 647.24 1071.50 655.34 1072.71 663.35 C 1072.88 668.45 1072.76 673.56 1072.66 678.66 C 1070.84 675.82 1070.75 672.44 1070.63 669.19 C 1021.75 668.79 972.87 669.18 923.99 669.00 C 853.64 669.09 783.29 668.95 712.94 669.02 C 712.52 662.49 713.14 655.92 712.24 649.42 C 704.68 656.52 697.57 664.08 690.19 671.37 C 689.83 670.65 689.48 669.93 689.14 669.22 C 665.11 668.70 641.07 669.20 617.03 668.98 C 577.67 669.07 538.31 668.98 498.95 669.10 C 496.37 669.10 493.86 668.52 491.39 667.88 Z" />
</g>
<g id="#525252ff">
<path fill="#525252" opacity="1.00" d=" M 690.19 671.37 C 697.57 664.08 704.68 656.52 712.24 649.42 C 712.04 651.95 711.89 654.48 711.84 657.03 C 703.08 661.47 696.73 669.09 689.81 675.81 C 643.17 722.52 596.50 769.21 549.86 815.91 C 525.32 840.68 501.04 865.70 476.20 890.18 C 465.64 901.31 454.47 911.86 443.58 922.65 C 442.15 923.79 440.14 923.71 438.45 924.21 C 445.80 916.14 453.82 908.70 461.38 900.83 C 475.11 887.04 488.96 873.37 502.58 859.47 C 512.55 849.49 522.65 839.64 532.42 829.46 C 542.74 819.30 553.05 809.13 563.10 798.70 C 572.52 789.46 581.91 780.17 591.05 770.66 C 599.38 762.56 607.59 754.34 615.68 746.01 C 627.80 734.02 639.85 721.96 651.81 709.81 C 664.62 697.02 677.43 684.21 690.19 671.37 Z" />
</g>
<g id="#377daaff">
<path fill="#377daa" opacity="1.00" d=" M 712.24 649.42 C 713.14 655.92 712.52 662.49 712.94 669.02 C 712.66 679.33 714.08 689.56 714.29 699.86 C 779.86 700.26 845.46 699.81 911.04 700.03 C 916.98 700.05 922.94 699.70 928.87 700.32 C 927.03 702.49 924.28 704.43 924.35 707.59 C 912.16 720.06 899.77 732.35 887.39 744.64 C 888.51 741.33 891.32 739.05 893.24 736.23 C 880.85 735.51 868.42 736.15 856.01 735.93 C 808.75 735.94 761.47 735.97 714.20 735.91 C 713.95 734.52 713.65 733.15 713.34 731.79 C 712.37 741.79 712.98 751.86 712.82 761.89 L 711.87 760.66 C 711.73 733.27 711.70 705.87 711.88 678.48 C 712.30 675.06 712.23 671.60 711.98 668.18 C 711.88 666.43 711.83 664.69 711.82 662.96 C 711.80 660.98 711.80 659.00 711.84 657.03 C 711.89 654.48 712.04 651.95 712.24 649.42 Z" />
</g>
<g id="#6d6969ff">
<path fill="#6d6969" opacity="1.00" d=" M 689.81 675.81 C 696.73 669.09 703.08 661.47 711.84 657.03 C 711.80 659.00 711.80 660.98 711.82 662.96 C 707.82 665.12 703.66 667.16 700.39 670.37 C 679.24 691.57 658.11 712.79 636.91 733.94 C 617.07 755.05 596.11 775.08 575.80 795.74 C 559.24 812.20 542.84 828.83 526.32 845.32 C 521.66 849.69 517.76 854.80 512.94 859.02 C 494.52 877.57 476.04 896.07 457.58 914.59 C 450.95 921.30 444.23 929.15 434.59 931.29 C 425.76 932.23 416.83 931.16 407.99 932.09 C 392.34 931.31 376.65 931.85 360.98 931.65 C 356.63 931.52 352.30 932.06 347.95 932.15 C 333.32 931.30 318.64 931.66 304.00 931.93 C 291.44 931.30 278.86 932.02 266.30 931.51 C 264.06 931.65 262.47 930.07 261.12 928.51 C 318.73 928.40 376.35 928.57 433.96 928.43 C 435.47 927.03 437.01 925.67 438.45 924.21 C 440.14 923.71 442.15 923.79 443.58 922.65 C 454.47 911.86 465.64 901.31 476.20 890.18 C 501.04 865.70 525.32 840.68 549.86 815.91 C 596.50 769.21 643.17 722.52 689.81 675.81 Z" />
</g>
<g id="#898989ff">
<path fill="#898989" opacity="1.00" d=" M 700.39 670.37 C 703.66 667.16 707.82 665.12 711.82 662.96 C 711.83 664.69 711.88 666.43 711.98 668.18 C 706.54 670.17 702.36 674.30 698.23 678.19 C 676.08 700.39 653.95 722.60 631.74 744.73 C 601.31 775.99 570.11 806.44 539.60 837.63 C 517.11 860.13 494.68 882.69 472.18 905.18 C 463.09 913.74 455.13 923.55 445.11 931.08 C 436.78 936.27 426.47 935.44 417.07 935.48 C 368.05 935.49 319.03 935.47 270.01 935.49 C 264.47 935.50 258.76 934.67 254.07 931.54 C 254.64 930.51 255.21 929.47 255.80 928.46 C 257.57 928.46 259.35 928.50 261.12 928.51 C 262.47 930.07 264.06 931.65 266.30 931.51 C 278.86 932.02 291.44 931.30 304.00 931.93 C 318.64 931.66 333.32 931.30 347.95 932.15 C 352.30 932.06 356.63 931.52 360.98 931.65 C 376.65 931.85 392.34 931.31 407.99 932.09 C 416.83 931.16 425.76 932.23 434.59 931.29 C 444.23 929.15 450.95 921.30 457.58 914.59 C 476.04 896.07 494.52 877.57 512.94 859.02 C 517.76 854.80 521.66 849.69 526.32 845.32 C 542.84 828.83 559.24 812.20 575.80 795.74 C 596.11 775.08 617.07 755.05 636.91 733.94 C 658.11 712.79 679.24 691.57 700.39 670.37 Z" />
</g>
<g id="#3b84b1ff">
<path fill="#3b84b1" opacity="1.00" d=" M 454.48 704.91 C 466.75 692.53 479.09 680.22 491.39 667.88 C 493.86 668.52 496.37 669.10 498.95 669.10 C 538.31 668.98 577.67 669.07 617.03 668.98 C 641.07 669.20 665.11 668.70 689.14 669.22 C 689.48 669.93 689.83 670.65 690.19 671.37 C 677.43 684.21 664.62 697.02 651.81 709.81 C 652.04 708.55 652.23 707.29 652.42 706.03 C 588.62 705.85 524.81 705.95 461.02 705.97 C 458.80 705.88 456.63 705.40 454.48 704.91 Z" />
<path fill="#3b84b1" opacity="1.00" d=" M 712.94 669.02 C 783.29 668.95 853.64 669.09 923.99 669.00 C 972.87 669.18 1021.75 668.79 1070.63 669.19 C 1070.75 672.44 1070.84 675.82 1072.66 678.66 C 1072.95 693.98 1072.80 709.31 1072.64 724.62 C 1071.16 721.67 1070.89 718.38 1070.77 715.14 C 1059.85 714.49 1048.90 715.01 1037.97 714.85 C 1007.29 714.86 976.61 714.90 945.93 714.85 C 941.01 714.75 936.10 714.97 931.21 715.39 C 931.17 710.74 931.27 706.06 930.52 701.46 C 930.35 701.64 930.01 702.01 929.84 702.19 C 928.03 704.01 926.16 705.78 924.35 707.59 C 924.28 704.43 927.03 702.49 928.87 700.32 C 922.94 699.70 916.98 700.05 911.04 700.03 C 845.46 699.81 779.86 700.26 714.29 699.86 C 714.08 689.56 712.66 679.33 712.94 669.02 Z" />
</g>
<g id="#adadadff">
<path fill="#adadad" opacity="1.00" d=" M 698.23 678.19 C 702.36 674.30 706.54 670.17 711.98 668.18 C 712.23 671.60 712.30 675.06 711.88 678.48 L 711.76 679.31 L 711.59 677.73 C 711.42 676.43 711.26 675.13 711.09 673.85 C 707.35 675.20 703.88 677.25 701.14 680.13 C 657.32 723.99 613.52 767.87 569.70 811.72 C 559.00 822.02 549.18 833.17 538.52 843.51 C 510.29 871.95 481.89 900.22 453.64 928.63 C 447.70 934.57 439.57 938.98 430.99 938.67 C 376.66 938.81 322.33 938.74 268.00 938.71 C 262.77 938.67 257.29 938.81 252.43 936.57 C 249.58 935.30 248.77 932.00 247.50 929.47 C 248.03 929.25 249.07 928.82 249.59 928.61 C 251.66 928.49 253.72 928.43 255.80 928.46 C 255.21 929.47 254.64 930.51 254.07 931.54 C 258.76 934.67 264.47 935.50 270.01 935.49 C 319.03 935.47 368.05 935.49 417.07 935.48 C 426.47 935.44 436.78 936.27 445.11 931.08 C 455.13 923.55 463.09 913.74 472.18 905.18 C 494.68 882.69 517.11 860.13 539.60 837.63 C 570.11 806.44 601.31 775.99 631.74 744.73 C 653.95 722.60 676.08 700.39 698.23 678.19 Z" />
</g>
<g id="#c7c7c7ff">
<path fill="#c7c7c7" opacity="1.00" d=" M 701.14 680.13 C 703.88 677.25 707.35 675.20 711.09 673.85 C 711.26 675.13 711.42 676.43 711.59 677.73 C 703.50 681.35 696.87 687.41 690.84 693.78 C 680.30 705.88 668.35 716.66 657.24 728.22 C 593.89 791.53 530.68 854.95 467.41 918.31 C 459.36 926.01 452.19 935.21 441.71 939.73 C 436.19 942.33 429.96 941.68 424.05 941.79 C 370.38 941.85 316.71 941.75 263.03 941.79 C 257.10 941.82 250.44 941.38 245.96 936.99 C 244.05 935.31 243.96 932.64 243.89 930.31 C 245.10 930.05 246.30 929.77 247.50 929.47 C 248.77 932.00 249.58 935.30 252.43 936.57 C 257.29 938.81 262.77 938.67 268.00 938.71 C 322.33 938.74 376.66 938.81 430.99 938.67 C 439.57 938.98 447.70 934.57 453.64 928.63 C 481.89 900.22 510.29 871.95 538.52 843.51 C 549.18 833.17 559.00 822.02 569.70 811.72 C 613.52 767.87 657.32 723.99 701.14 680.13 Z" />
</g>
<g id="#dfdfdfff">
<path fill="#dfdfdf" opacity="1.00" d=" M 690.84 693.78 C 696.87 687.41 703.50 681.35 711.59 677.73 L 711.76 679.31 C 711.33 681.97 710.70 684.59 710.12 687.22 C 707.70 686.47 704.85 685.73 702.86 687.83 C 697.32 692.94 691.67 697.97 686.61 703.57 C 615.92 774.91 544.68 845.72 473.97 917.01 C 471.19 920.54 467.57 923.22 464.45 926.42 C 460.04 931.70 454.78 936.22 449.29 940.32 C 441.43 945.02 431.90 945.54 422.97 945.36 C 369.31 945.35 315.65 945.33 261.99 945.37 C 255.53 945.09 248.66 944.52 243.09 940.94 C 239.33 938.63 239.36 933.75 238.61 929.92 C 240.81 929.76 242.93 929.14 245.03 928.49 C 246.54 928.54 248.07 928.58 249.59 928.61 C 249.07 928.82 248.03 929.25 247.50 929.47 C 246.30 929.77 245.10 930.05 243.89 930.31 C 243.96 932.64 244.05 935.31 245.96 936.99 C 250.44 941.38 257.10 941.82 263.03 941.79 C 316.71 941.75 370.38 941.85 424.05 941.79 C 429.96 941.68 436.19 942.33 441.71 939.73 C 452.19 935.21 459.36 926.01 467.41 918.31 C 530.68 854.95 593.89 791.53 657.24 728.22 C 668.35 716.66 680.30 705.88 690.84 693.78 Z" />
</g>
<g id="#357ba7ff">
<path fill="#357ba7" opacity="1.00" d=" M 929.84 702.19 C 930.01 702.01 930.35 701.64 930.52 701.46 C 931.27 706.06 931.17 710.74 931.21 715.39 C 936.10 714.97 941.01 714.75 945.93 714.85 C 976.61 714.90 1007.29 714.86 1037.97 714.85 C 1048.90 715.01 1059.85 714.49 1070.77 715.14 C 1070.89 718.38 1071.16 721.67 1072.64 724.62 C 1072.99 733.95 1072.81 743.30 1072.66 752.64 C 1070.79 749.45 1070.81 745.73 1070.68 742.16 C 1045.80 741.83 1020.92 742.22 996.05 742.00 C 974.76 741.95 953.46 742.31 932.18 741.77 C 932.17 733.33 932.04 724.85 930.28 716.57 C 930.16 715.02 930.14 713.47 930.16 711.93 C 930.22 708.68 930.03 705.43 929.84 702.19 Z" />
</g>
<g id="#585959ff">
<path fill="#585959" opacity="1.00" d=" M 924.35 707.59 C 926.16 705.78 928.03 704.01 929.84 702.19 C 930.03 705.43 930.22 708.68 930.16 711.93 C 927.14 713.10 924.03 714.32 921.75 716.70 C 901.42 736.72 881.49 757.13 861.14 777.12 C 826.39 811.35 792.47 846.45 757.74 880.75 C 751.58 886.91 745.53 893.19 739.23 899.22 C 736.56 901.68 733.38 904.28 729.49 903.38 C 735.12 897.50 741.01 891.87 746.65 885.99 C 756.27 876.48 765.78 866.86 775.32 857.27 C 785.66 846.79 796.17 836.47 806.46 825.94 C 818.47 813.92 830.51 801.93 842.45 789.85 C 852.75 779.48 863.12 769.20 873.39 758.80 C 878.06 754.08 882.84 749.48 887.39 744.64 C 899.77 732.35 912.16 720.06 924.35 707.59 Z" />
</g>
<g id="#377da9ff">
<path fill="#377da9" opacity="1.00" d=" M 428.43 731.13 C 437.01 722.29 445.81 713.66 454.48 704.91 C 456.63 705.40 458.80 705.88 461.02 705.97 C 524.81 705.95 588.62 705.85 652.42 706.03 C 652.23 707.29 652.04 708.55 651.81 709.81 C 639.85 721.96 627.80 734.02 615.68 746.01 C 616.12 741.63 620.56 739.42 623.03 736.22 C 610.35 735.58 597.65 736.17 584.96 735.95 C 540.99 735.93 497.02 736.01 453.05 735.94 C 444.12 736.22 435.17 735.46 426.28 736.47 C 427.33 734.84 428.37 733.13 428.43 731.13 Z" />
</g>
<g id="#737373ff">
<path fill="#737373" opacity="1.00" d=" M 921.75 716.70 C 924.03 714.32 927.14 713.10 930.16 711.93 C 930.14 713.47 930.16 715.02 930.28 716.57 C 921.95 720.32 916.26 727.69 909.80 733.84 C 853.65 790.03 797.64 846.37 741.49 902.53 C 738.34 905.49 735.14 908.61 731.19 910.46 C 728.63 911.49 726.35 909.98 724.70 908.14 C 726.28 906.54 727.89 904.96 729.49 903.38 C 733.38 904.28 736.56 901.68 739.23 899.22 C 745.53 893.19 751.58 886.91 757.74 880.75 C 792.47 846.45 826.39 811.35 861.14 777.12 C 881.49 757.13 901.42 736.72 921.75 716.70 Z" />
</g>
<g id="#9a9a9aff">
<path fill="#9a9a9a" opacity="1.00" d=" M 909.80 733.84 C 916.26 727.69 921.95 720.32 930.28 716.57 C 930.24 720.05 930.22 723.55 930.22 727.04 C 929.79 725.99 929.37 724.96 928.93 723.94 C 921.81 727.05 916.83 733.21 911.40 738.52 C 854.12 795.87 796.88 853.27 739.64 910.65 C 736.20 913.87 732.52 917.40 727.79 918.47 C 724.04 919.20 721.54 915.86 719.20 913.56 C 721.01 911.72 722.87 909.95 724.70 908.14 C 726.35 909.98 728.63 911.49 731.19 910.46 C 735.14 908.61 738.34 905.49 741.49 902.53 C 797.64 846.37 853.65 790.03 909.80 733.84 Z" />
</g>
<g id="#3174a1ff">
<path fill="#3174a1" opacity="1.00" d=" M 930.28 716.57 C 932.04 724.85 932.17 733.33 932.18 741.77 C 953.46 742.31 974.76 741.95 996.05 742.00 C 1020.92 742.22 1045.80 741.83 1070.68 742.16 C 1070.81 745.73 1070.79 749.45 1072.66 752.64 C 1073.09 765.12 1072.57 777.63 1072.87 790.12 C 1069.83 787.33 1071.14 782.88 1070.73 779.25 C 1024.40 778.90 978.06 779.25 931.73 779.05 C 931.72 776.67 931.63 774.30 931.51 771.93 C 931.06 782.38 931.57 792.88 930.33 803.30 C 929.93 780.28 930.34 757.26 930.20 734.24 C 930.20 731.83 930.27 729.44 930.22 727.04 C 930.22 723.55 930.24 720.05 930.28 716.57 Z" />
</g>
<g id="#bfbfbfff">
<path fill="#bfbfbf" opacity="1.00" d=" M 911.40 738.52 C 916.83 733.21 921.81 727.05 928.93 723.94 C 929.37 724.96 929.79 725.99 930.22 727.04 C 930.27 729.44 930.20 731.83 930.20 734.24 C 929.74 732.54 929.20 730.88 928.69 729.21 C 921.57 731.62 916.91 737.71 911.71 742.75 C 885.28 769.30 858.72 795.73 832.29 822.29 C 812.08 843.09 791.28 863.28 770.98 884.00 C 762.62 891.98 754.95 900.66 746.39 908.45 C 742.27 913.01 737.87 917.34 732.90 920.98 C 729.45 923.42 724.57 924.57 720.76 922.23 C 718.43 920.92 718.00 918.03 717.04 915.78 C 717.75 915.03 718.47 914.29 719.20 913.56 C 721.54 915.86 724.04 919.20 727.79 918.47 C 732.52 917.40 736.20 913.87 739.64 910.65 C 796.88 853.27 854.12 795.87 911.40 738.52 Z" />
</g>
<g id="#dadadaff">
<path fill="#dadada" opacity="1.00" d=" M 911.71 742.75 C 916.91 737.71 921.57 731.62 928.69 729.21 C 929.20 730.88 929.74 732.54 930.20 734.24 C 930.34 757.26 929.93 780.28 930.33 803.30 C 930.22 833.87 930.26 864.44 930.21 895.01 C 929.94 906.10 930.72 917.24 929.74 928.30 C 928.46 921.60 929.39 914.76 929.14 908.00 C 929.15 860.99 929.17 813.97 929.19 766.96 C 929.12 756.91 929.42 746.85 928.82 736.81 C 926.19 737.27 923.29 737.36 921.21 739.23 C 914.93 744.24 909.52 750.23 903.83 755.88 C 870.66 789.02 837.49 822.19 804.77 855.75 C 799.97 859.66 796.30 864.70 791.60 868.72 C 783.89 876.95 775.34 884.36 767.77 892.73 C 762.79 897.41 758.13 902.41 753.20 907.14 C 745.54 914.56 738.66 923.43 728.67 927.82 C 722.36 930.59 713.44 926.04 714.24 918.59 C 715.19 917.66 716.11 916.71 717.04 915.78 C 718.00 918.03 718.43 920.92 720.76 922.23 C 724.57 924.57 729.45 923.42 732.90 920.98 C 737.87 917.34 742.27 913.01 746.39 908.45 C 754.95 900.66 762.62 891.98 770.98 884.00 C 791.28 863.28 812.08 843.09 832.29 822.29 C 858.72 795.73 885.28 769.30 911.71 742.75 Z" />
</g>
<g id="#3376a3ff">
<path fill="#3376a3" opacity="1.00" d=" M 400.17 759.42 C 409.58 749.98 418.95 740.50 428.43 731.13 C 428.37 733.13 427.33 734.84 426.28 736.47 C 435.17 735.46 444.12 736.22 453.05 735.94 C 497.02 736.01 540.99 735.93 584.96 735.95 C 597.65 736.17 610.35 735.58 623.03 736.22 C 620.56 739.42 616.12 741.63 615.68 746.01 C 607.59 754.34 599.38 762.56 591.05 770.66 C 592.10 767.84 593.79 765.35 595.81 763.14 C 535.55 762.77 475.27 763.08 415.01 762.98 C 410.15 763.06 405.28 763.25 400.44 762.66 C 400.35 761.57 400.26 760.49 400.17 759.42 Z" />
</g>
<g id="#30729eff">
<path fill="#30729e" opacity="1.00" d=" M 713.34 731.79 C 713.65 733.15 713.95 734.52 714.20 735.91 C 714.21 743.21 714.00 750.51 714.29 757.81 C 729.21 758.35 744.15 757.78 759.07 758.01 C 794.37 757.99 829.68 758.06 864.98 757.93 C 867.79 757.94 870.60 758.33 873.39 758.80 C 863.12 769.20 852.75 779.48 842.45 789.85 C 840.74 788.95 839.02 787.83 837.01 787.94 C 796.03 788.11 755.04 787.93 714.06 788.04 C 713.41 779.33 713.35 770.60 712.82 761.89 C 712.98 751.86 712.37 741.79 713.34 731.79 Z" />
</g>
<g id="#3377a3ff">
<path fill="#3377a3" opacity="1.00" d=" M 714.20 735.91 C 761.47 735.97 808.75 735.94 856.01 735.93 C 868.42 736.15 880.85 735.51 893.24 736.23 C 891.32 739.05 888.51 741.33 887.39 744.64 C 882.84 749.48 878.06 754.08 873.39 758.80 C 870.60 758.33 867.79 757.94 864.98 757.93 C 829.68 758.06 794.37 757.99 759.07 758.01 C 744.15 757.78 729.21 758.35 714.29 757.81 C 714.00 750.51 714.21 743.21 714.20 735.91 Z" />
</g>
<g id="#2f719dff">
<path fill="#2f719d" opacity="1.00" d=" M 375.52 784.24 C 383.65 775.88 391.98 767.72 400.17 759.42 C 400.26 760.49 400.35 761.57 400.44 762.66 C 405.28 763.25 410.15 763.06 415.01 762.98 C 475.27 763.08 535.55 762.77 595.81 763.14 C 593.79 765.35 592.10 767.84 591.05 770.66 C 581.91 780.17 572.52 789.46 563.10 798.70 C 563.93 795.78 565.76 793.37 567.81 791.21 C 552.21 790.59 536.58 791.27 520.97 791.01 C 471.38 791.03 421.79 791.00 372.20 790.92 C 373.70 788.93 375.90 786.99 375.52 784.24 Z" />
</g>
<g id="#27648fff">
<path fill="#27648f" opacity="1.00" d=" M 711.87 760.66 L 712.82 761.89 C 713.35 770.60 713.41 779.33 714.06 788.04 C 713.91 800.29 714.05 812.55 714.27 824.80 C 737.83 825.18 761.40 824.84 784.96 824.95 C 792.13 825.16 799.41 824.16 806.46 825.94 C 796.17 836.47 785.66 846.79 775.32 857.27 C 774.93 856.56 774.55 855.87 774.18 855.18 C 754.16 854.73 734.12 855.02 714.09 855.03 C 714.23 849.48 713.87 843.94 712.75 838.51 C 712.95 838.06 713.34 837.16 713.54 836.72 L 711.78 836.82 C 711.85 811.43 711.70 786.05 711.87 760.66 Z" />
<path fill="#27648f" opacity="1.00" d=" M 323.83 836.14 C 332.03 827.69 340.40 819.39 348.78 811.11 C 348.22 815.85 343.77 818.36 341.02 821.79 C 355.35 822.38 369.69 821.83 384.03 822.01 C 434.96 822.14 485.90 821.84 536.84 822.11 C 535.21 824.46 533.78 826.95 532.42 829.46 C 522.65 839.64 512.55 849.49 502.58 859.47 C 503.15 858.16 503.63 856.79 504.15 855.47 C 499.13 854.58 494.03 855.16 488.98 855.10 C 438.63 855.12 388.28 855.05 337.93 855.07 C 327.96 854.97 317.97 855.37 308.01 854.86 C 312.21 849.81 317.21 845.52 321.74 840.79 C 323.04 839.58 323.27 837.72 323.83 836.14 Z" />
</g>
<g id="#1d547fff">
<path fill="#1d547f" opacity="1.00" d=" M 931.51 771.93 C 931.63 774.30 931.72 776.67 931.73 779.05 C 931.43 796.01 931.62 812.98 931.78 829.95 C 931.66 838.30 931.97 846.66 931.95 855.03 C 932.01 867.31 931.94 879.60 932.30 891.88 C 962.54 892.19 992.80 891.95 1023.05 892.06 C 1039.16 891.91 1055.30 892.44 1071.41 891.76 C 1072.03 889.72 1072.71 887.70 1073.27 885.65 C 1073.40 899.91 1073.31 914.17 1073.35 928.44 C 1032.12 928.53 990.88 928.39 949.64 928.51 C 947.63 928.44 945.62 928.43 943.63 928.48 L 942.90 928.51 C 938.51 928.51 934.12 928.37 929.74 928.30 C 930.72 917.24 929.94 906.10 930.21 895.01 C 930.26 864.44 930.22 833.87 930.33 803.30 C 931.57 792.88 931.06 782.38 931.51 771.93 Z" />
</g>
<g id="#2b6b96ff">
<path fill="#2b6b96" opacity="1.00" d=" M 931.73 779.05 C 978.06 779.25 1024.40 778.90 1070.73 779.25 C 1071.14 782.88 1069.83 787.33 1072.87 790.12 C 1073.92 803.36 1073.02 816.70 1073.32 829.98 C 1026.14 829.84 978.96 829.88 931.78 829.95 C 931.62 812.98 931.43 796.01 931.73 779.05 Z" />
<path fill="#2b6b96" opacity="1.00" d=" M 714.06 788.04 C 755.04 787.93 796.03 788.11 837.01 787.94 C 839.02 787.83 840.74 788.95 842.45 789.85 C 830.51 801.93 818.47 813.92 806.46 825.94 C 799.41 824.16 792.13 825.16 784.96 824.95 C 761.40 824.84 737.83 825.18 714.27 824.80 C 714.05 812.55 713.91 800.29 714.06 788.04 Z" />
</g>
<g id="#2b6a96ff">
<path fill="#2b6a96" opacity="1.00" d=" M 348.78 811.11 C 357.58 802.04 366.58 793.17 375.52 784.24 C 375.90 786.99 373.70 788.93 372.20 790.92 C 421.79 791.00 471.38 791.03 520.97 791.01 C 536.58 791.27 552.21 790.59 567.81 791.21 C 565.76 793.37 563.93 795.78 563.10 798.70 C 553.05 809.13 542.74 819.30 532.42 829.46 C 533.78 826.95 535.21 824.46 536.84 822.11 C 485.90 821.84 434.96 822.14 384.03 822.01 C 369.69 821.83 355.35 822.38 341.02 821.79 C 343.77 818.36 348.22 815.85 348.78 811.11 Z" />
</g>
<g id="#26638eff">
<path fill="#26638e" opacity="1.00" d=" M 931.78 829.95 C 978.96 829.88 1026.14 829.84 1073.32 829.98 C 1073.31 836.19 1073.39 842.40 1073.27 848.61 C 1072.74 850.69 1072.09 852.74 1071.50 854.81 C 1043.34 855.41 1015.15 854.81 986.98 855.07 C 968.63 855.00 950.29 855.14 931.95 855.03 C 931.97 846.66 931.66 838.30 931.78 829.95 Z" />
</g>
<g id="#215b86ff">
<path fill="#215b86" opacity="1.00" d=" M 285.76 874.26 C 298.40 861.51 311.06 848.77 323.83 836.14 C 323.27 837.72 323.04 839.58 321.74 840.79 C 317.21 845.52 312.21 849.81 308.01 854.86 C 317.97 855.37 327.96 854.97 337.93 855.07 C 388.28 855.05 438.63 855.12 488.98 855.10 C 494.03 855.16 499.13 854.58 504.15 855.47 C 503.63 856.79 503.15 858.16 502.58 859.47 C 488.96 873.37 475.11 887.04 461.38 900.83 C 456.34 899.73 451.16 899.82 446.04 899.95 C 397.36 899.94 348.69 899.94 300.02 899.94 C 287.72 899.82 275.42 900.20 263.12 899.79 C 269.70 892.50 276.87 885.77 283.78 878.79 C 285.06 877.62 285.32 875.84 285.76 874.26 Z" />
</g>
<g id="#1f5882ff">
<path fill="#1f5882" opacity="1.00" d=" M 713.54 836.72 C 713.34 837.16 712.95 838.06 712.75 838.51 C 713.87 843.94 714.23 849.48 714.09 855.03 C 713.92 865.28 714.09 875.53 714.23 885.78 C 725.03 886.36 735.85 885.65 746.65 885.99 C 741.01 891.87 735.12 897.50 729.49 903.38 C 727.89 904.96 726.28 906.54 724.70 908.14 C 722.87 909.95 721.01 911.72 719.20 913.56 C 718.47 914.29 717.75 915.03 717.04 915.78 C 716.11 916.71 715.19 917.66 714.24 918.59 C 713.46 919.31 712.68 920.04 711.89 920.77 C 711.67 892.91 711.86 865.04 711.80 837.18 L 713.54 836.72 Z" />
</g>
<g id="#225c87ff">
<path fill="#225c87" opacity="1.00" d=" M 1071.50 854.81 C 1072.09 852.74 1072.74 850.69 1073.27 848.61 C 1073.35 860.96 1073.41 873.30 1073.27 885.65 C 1072.71 887.70 1072.03 889.72 1071.41 891.76 C 1055.30 892.44 1039.16 891.91 1023.05 892.06 C 992.80 891.95 962.54 892.19 932.30 891.88 C 931.94 879.60 932.01 867.31 931.95 855.03 C 950.29 855.14 968.63 855.00 986.98 855.07 C 1015.15 854.81 1043.34 855.41 1071.50 854.81 Z" />
</g>
<g id="#235d88ff">
<path fill="#235d88" opacity="1.00" d=" M 714.09 855.03 C 734.12 855.02 754.16 854.73 774.18 855.18 C 774.55 855.87 774.93 856.56 775.32 857.27 C 765.78 866.86 756.27 876.48 746.65 885.99 C 735.85 885.65 725.03 886.36 714.23 885.78 C 714.09 875.53 713.92 865.28 714.09 855.03 Z" />
</g>
<g id="#1d547eff">
<path fill="#1d547e" opacity="1.00" d=" M 235.67 924.45 C 252.33 907.69 269.02 890.95 285.76 874.26 C 285.32 875.84 285.06 877.62 283.78 878.79 C 276.87 885.77 269.70 892.50 263.12 899.79 C 275.42 900.20 287.72 899.82 300.02 899.94 C 348.69 899.94 397.36 899.94 446.04 899.95 C 451.16 899.82 456.34 899.73 461.38 900.83 C 453.82 908.70 445.80 916.14 438.45 924.21 C 437.01 925.67 435.47 927.03 433.96 928.43 C 376.35 928.57 318.73 928.40 261.12 928.51 C 259.35 928.50 257.57 928.46 255.80 928.46 C 253.72 928.43 251.66 928.49 249.59 928.61 C 248.07 928.58 246.54 928.54 245.03 928.49 L 244.92 928.49 C 248.09 928.11 251.26 927.73 254.42 927.37 C 248.57 926.46 242.64 926.89 236.75 926.62 C 236.39 925.88 236.03 925.16 235.67 924.45 Z" />
</g>
<g id="#0b4574ff">
<path fill="#0b4574" opacity="1.00" d=" M 231.69 928.38 C 233.02 927.05 234.35 925.76 235.67 924.45 C 236.03 925.16 236.39 925.88 236.75 926.62 C 242.64 926.89 248.57 926.46 254.42 927.37 C 251.26 927.73 248.09 928.11 244.92 928.49 C 240.52 928.23 236.10 928.51 231.69 928.38 Z" />
</g>
</svg>
