<?xml version="1.0" encoding="UTF-8" ?>
<!DOCTYPE svg PUBLIC "-//W3C//DTD SVG 1.1//EN" "http://www.w3.org/Graphics/SVG/1.1/DTD/svg11.dtd">
<svg width="1276pt" height="1276pt" viewBox="0 0 1276 1276" version="1.1" xmlns="http://www.w3.org/2000/svg">
<g id="#ffd200ff">
<path fill="#ffd200" opacity="1.00" d=" M 615.86 187.81 C 662.01 177.71 710.67 178.77 756.13 191.84 C 759.70 192.96 763.31 193.95 766.85 195.19 C 767.85 195.51 768.85 195.84 769.85 196.18 C 773.53 197.49 777.22 198.75 780.85 200.22 C 784.64 201.64 788.35 203.25 792.10 204.81 C 829.53 221.27 863.41 245.82 890.47 276.50 C 915.05 304.23 934.13 336.83 946.21 371.86 C 946.52 372.85 946.86 373.84 947.21 374.83 C 949.29 381.20 951.18 387.63 952.89 394.12 C 953.24 395.43 953.54 396.76 953.85 398.09 C 954.65 401.07 955.33 404.09 955.87 407.13 C 956.31 408.77 956.60 410.45 956.86 412.14 C 957.35 414.09 957.62 416.08 957.89 418.08 C 962.95 447.06 962.90 476.88 958.84 505.98 C 954.13 536.51 944.76 566.36 930.62 593.84 C 919.37 615.93 905.09 636.43 888.56 654.88 C 873.17 672.00 855.48 686.93 836.58 700.01 C 842.79 701.62 848.24 705.31 853.93 708.19 C 896.44 731.34 934.06 766.27 953.80 811.07 C 954.89 813.38 955.86 815.74 956.74 818.15 C 958.49 822.26 959.83 826.54 961.22 830.79 C 972.44 867.88 969.54 908.90 953.31 944.08 C 933.22 988.61 895.58 1023.19 853.13 1046.26 C 847.21 1049.41 841.24 1052.45 835.14 1055.24 C 832.15 1056.58 829.16 1057.92 826.17 1059.26 C 816.49 1063.11 806.78 1066.98 796.73 1069.80 L 796.16 1070.19 C 793.81 1070.72 791.50 1071.43 789.22 1072.20 C 784.19 1073.54 779.15 1074.84 774.13 1076.17 C 773.03 1076.38 771.94 1076.59 770.86 1076.83 C 768.97 1077.32 767.04 1077.68 765.15 1078.15 C 762.07 1078.75 759.01 1079.42 755.91 1079.87 C 753.98 1080.41 751.98 1080.61 750.00 1080.89 C 748.37 1081.52 746.60 1081.60 744.91 1081.86 C 742.66 1082.58 740.28 1082.56 737.97 1082.87 C 696.70 1089.44 654.81 1092.45 612.99 1091.89 C 571.12 1091.53 529.24 1087.73 488.11 1079.84 C 486.41 1079.62 484.71 1079.35 483.07 1078.87 C 481.66 1078.62 480.26 1078.40 478.86 1078.18 C 476.94 1077.57 474.93 1077.37 472.95 1077.13 C 469.33 1076.13 465.57 1075.77 461.88 1075.11 C 460.22 1074.64 458.51 1074.39 456.82 1074.17 C 438.30 1070.47 420.16 1064.87 402.87 1057.25 C 395.11 1053.76 387.49 1049.96 380.07 1045.80 C 335.72 1021.01 298.92 984.01 271.38 941.54 C 261.08 925.72 252.03 909.08 244.22 891.89 C 242.83 888.92 241.48 885.94 240.23 882.92 C 236.15 873.38 232.47 863.67 229.16 853.84 C 225.35 842.66 222.02 831.32 219.17 819.86 C 217.07 812.01 215.55 804.03 213.85 796.10 C 206.65 758.45 204.66 719.91 206.92 681.67 C 207.09 680.47 207.33 679.30 207.64 678.15 C 216.83 684.18 226.34 689.72 236.08 694.82 C 238.96 696.39 241.97 697.69 244.84 699.29 C 245.91 699.77 247.00 700.28 248.08 700.79 C 251.68 702.58 255.38 704.19 259.07 705.80 C 261.01 706.64 262.96 707.46 264.91 708.29 C 279.30 714.12 294.06 719.02 309.10 722.88 C 310.43 723.23 311.76 723.54 313.10 723.87 C 319.64 725.52 326.26 726.81 332.86 728.16 C 336.86 728.84 340.90 729.33 344.88 730.18 C 346.95 730.42 349.03 730.59 351.11 730.83 C 354.30 731.84 357.72 731.21 360.93 732.15 C 378.86 733.57 396.97 734.38 414.91 732.87 C 419.22 732.42 423.63 732.82 427.88 731.84 C 430.87 731.48 433.93 731.61 436.87 730.83 C 438.94 730.58 441.03 730.41 443.11 730.17 C 445.06 729.55 447.11 729.42 449.14 729.20 C 451.08 728.64 453.10 728.40 455.10 728.15 C 456.75 727.69 458.45 727.40 460.15 727.17 C 481.86 722.62 503.32 716.52 523.74 707.82 C 525.31 707.21 526.90 706.65 528.53 706.21 C 528.47 705.88 528.36 705.22 528.30 704.89 C 507.01 692.27 488.06 675.91 471.03 658.00 C 454.09 639.67 439.40 619.21 427.78 597.10 C 427.11 595.77 426.43 594.46 425.72 593.17 C 424.76 591.14 423.79 589.13 422.75 587.15 C 421.08 583.49 419.39 579.83 417.77 576.15 C 413.38 565.57 409.34 554.83 406.21 543.81 C 392.36 496.53 391.38 445.67 402.82 397.79 C 405.47 387.44 408.47 377.17 412.23 367.16 C 413.60 362.69 415.99 358.57 416.92 353.97 C 403.27 343.17 392.25 329.24 383.75 314.10 C 382.37 311.45 381.04 308.79 379.70 306.14 C 365.67 275.96 363.07 240.73 372.56 208.85 C 372.79 208.38 373.23 207.46 373.45 206.99 C 373.49 206.24 373.57 204.73 373.61 203.98 C 374.45 211.62 376.69 219.06 380.21 225.90 C 391.14 247.00 410.93 262.00 431.95 272.17 C 434.66 273.36 437.32 274.67 440.07 275.77 C 441.71 276.49 443.36 277.17 445.06 277.76 C 446.31 278.25 447.57 278.73 448.84 279.23 C 452.89 280.46 456.83 282.15 461.05 282.76 C 482.04 256.96 508.24 235.55 536.92 218.78 C 540.55 216.72 544.23 214.76 547.92 212.80 C 548.43 212.55 549.44 212.05 549.95 211.80 C 550.44 211.55 551.42 211.04 551.91 210.78 C 552.98 210.26 554.05 209.74 555.13 209.23 C 558.75 207.45 562.41 205.75 566.13 204.19 C 569.67 202.61 573.30 201.26 576.87 199.77 C 579.29 198.92 581.70 198.02 584.13 197.17 C 585.36 196.70 586.61 196.26 587.87 195.81 C 588.86 195.49 589.86 195.17 590.87 194.84 C 591.87 194.52 592.87 194.19 593.88 193.86 C 600.93 191.75 608.00 189.58 615.24 188.21 L 615.86 187.81 M 828.63 413.91 C 808.52 417.49 791.07 432.70 784.85 452.16 C 779.86 467.34 781.50 484.67 789.62 498.48 C 796.63 510.72 808.37 520.17 821.84 524.37 C 836.61 528.99 853.31 527.44 866.79 519.77 C 875.95 514.66 883.64 506.99 888.75 497.83 C 897.24 482.91 898.27 464.05 891.69 448.22 C 885.91 434.12 874.23 422.60 860.06 417.01 C 850.15 412.96 839.13 412.21 828.63 413.91 M 629.99 805.06 C 621.90 809.45 614.78 815.37 606.67 819.70 C 594.44 826.12 582.49 833.33 569.15 837.24 C 549.68 842.94 529.29 845.13 509.04 844.91 C 486.08 844.82 463.05 841.25 441.38 833.58 C 431.14 830.10 421.60 824.96 412.19 819.71 C 410.31 856.56 424.53 892.99 447.75 921.25 C 467.33 945.25 492.82 964.05 520.66 977.41 C 570.12 1001.25 626.75 1008.63 680.96 1001.25 C 692.01 1000.53 703.11 999.22 713.62 995.55 C 742.32 986.09 766.31 963.54 777.47 935.45 C 788.62 907.99 787.31 875.74 773.78 849.35 C 762.52 826.82 742.76 808.78 719.38 799.46 C 690.74 787.86 656.94 789.92 629.99 805.06 Z" />
</g>
<g id="#000000ff">
<path fill="#000000" opacity="1.00" d=" M 828.63 413.91 C 839.13 412.21 850.15 412.96 860.06 417.01 C 874.23 422.60 885.91 434.12 891.69 448.22 C 898.27 464.05 897.24 482.91 888.75 497.83 C 883.64 506.99 875.95 514.66 866.79 519.77 C 853.31 527.44 836.61 528.99 821.84 524.37 C 808.37 520.17 796.63 510.72 789.62 498.48 C 781.50 484.67 779.86 467.34 784.85 452.16 C 791.07 432.70 808.52 417.49 828.63 413.91 M 830.78 449.88 C 829.46 459.52 835.58 469.30 844.84 472.29 C 851.63 474.08 859.44 472.78 864.57 467.75 C 870.45 462.63 872.36 454.09 870.28 446.72 C 867.82 439.55 861.46 434.22 854.06 432.78 C 852.00 432.71 849.95 432.70 847.91 432.77 C 839.29 434.27 832.25 441.22 830.78 449.88 Z" />
</g>
<g id="#ffffffff">
<path fill="#ffffff" opacity="1.00" d=" M 830.78 449.88 C 832.25 441.22 839.29 434.27 847.91 432.77 C 849.95 432.70 852.00 432.71 854.06 432.78 C 861.46 434.22 867.82 439.55 870.28 446.72 C 872.36 454.09 870.45 462.63 864.57 467.75 C 859.44 472.78 851.63 474.08 844.84 472.29 C 835.58 469.30 829.46 459.52 830.78 449.88 Z" />
</g>
<g id="#d83e3eff">
<path fill="#d83e3e" opacity="1.00" d=" M 958.84 505.98 C 970.26 517.07 984.64 525.25 1000.20 528.80 L 1000.84 529.20 C 1002.53 529.43 1004.21 529.74 1005.89 530.17 C 1019.24 532.52 1033.05 531.79 1046.13 528.20 C 1050.10 527.31 1053.79 524.75 1057.99 525.27 C 1064.47 525.28 1070.49 531.41 1069.71 537.99 C 1068.41 558.12 1059.43 577.17 1046.73 592.63 C 1025.31 618.49 994.72 635.36 962.86 644.82 L 962.30 645.21 C 938.37 652.03 913.45 655.48 888.56 654.88 C 905.09 636.43 919.37 615.93 930.62 593.84 C 944.76 566.36 954.13 536.51 958.84 505.98 Z" />
</g>
<g id="#f58a00ff">
<path fill="#f58a00" opacity="1.00" d=" M 629.99 805.06 C 656.94 789.92 690.74 787.86 719.38 799.46 C 742.76 808.78 762.52 826.82 773.78 849.35 C 787.31 875.74 788.62 907.99 777.47 935.45 C 766.31 963.54 742.32 986.09 713.62 995.55 C 703.11 999.22 692.01 1000.53 680.96 1001.25 C 626.75 1008.63 570.12 1001.25 520.66 977.41 C 492.82 964.05 467.33 945.25 447.75 921.25 C 424.53 892.99 410.31 856.56 412.19 819.71 C 421.60 824.96 431.14 830.10 441.38 833.58 C 463.05 841.25 486.08 844.82 509.04 844.91 C 529.29 845.13 549.68 842.94 569.15 837.24 C 582.49 833.33 594.44 826.12 606.67 819.70 C 614.78 815.37 621.90 809.45 629.99 805.06 Z" />
</g>
</svg>
