<?xml version="1.0" encoding="UTF-8" ?>
<!DOCTYPE svg PUBLIC "-//W3C//DTD SVG 1.1//EN" "http://www.w3.org/Graphics/SVG/1.1/DTD/svg11.dtd">
<svg width="1276pt" height="1276pt" viewBox="0 0 1276 1276" version="1.1" xmlns="http://www.w3.org/2000/svg">
<g id="#eea900ff">
<path fill="#eea900" opacity="1.00" d=" M 987.71 306.92 C 1013.50 299.92 1040.16 294.91 1066.98 296.38 C 1074.77 296.13 1082.35 298.09 1090.05 298.88 C 1091.40 299.12 1092.67 299.69 1093.95 300.23 C 1096.86 300.78 1099.89 301.17 1102.56 302.58 C 1106.41 304.57 1110.92 304.92 1114.60 307.29 C 1119.41 310.57 1125.01 312.63 1129.47 316.44 C 1136.60 322.98 1143.06 330.29 1148.42 338.35 C 1151.92 343.47 1153.21 349.65 1155.72 355.24 C 1157.68 359.65 1157.47 364.60 1158.92 369.16 C 1162.20 389.73 1159.54 410.78 1154.60 430.88 C 1144.62 469.36 1125.92 504.99 1104.16 538.04 C 1085.75 565.72 1064.78 591.64 1042.19 616.00 C 1043.72 611.85 1043.94 607.40 1043.97 603.03 C 1044.04 546.03 1043.98 489.02 1044.00 432.01 C 1043.88 424.62 1044.49 417.05 1042.22 409.89 C 1041.28 407.53 1040.28 405.20 1039.24 402.90 C 1035.77 396.93 1031.21 391.68 1025.55 387.71 C 1023.16 386.26 1020.71 384.92 1018.20 383.71 C 1016.73 383.23 1015.29 382.70 1013.85 382.20 C 1009.74 380.57 1005.34 379.92 1000.94 380.01 C 959.29 379.99 917.64 380.01 875.99 380.00 C 863.34 379.79 850.66 380.44 838.04 379.64 C 841.77 377.96 844.99 375.41 848.43 373.24 C 886.09 348.74 926.21 327.74 968.70 312.95 C 975.01 310.87 981.37 308.93 987.71 306.92 Z" />
<path fill="#eea900" opacity="1.00" d=" M 762.26 439.24 C 785.19 419.02 809.08 399.77 834.51 382.77 C 834.55 470.56 834.50 558.35 834.53 646.14 C 881.69 646.14 928.86 646.14 976.02 646.14 C 985.53 646.00 995.06 646.42 1004.56 645.92 C 1007.69 645.35 1011.53 645.79 1013.95 643.36 C 1014.38 643.37 1015.24 643.41 1015.68 643.43 C 1015.08 643.81 1014.49 644.20 1013.91 644.59 C 984.33 673.17 952.17 699.06 918.16 722.18 C 881.66 746.83 842.85 768.31 801.67 784.09 C 766.10 797.54 728.28 807.26 690.05 805.91 C 684.35 805.54 678.67 805.03 673.00 804.26 C 664.51 802.59 655.89 800.83 647.97 797.12 C 645.34 796.23 642.60 795.52 640.27 793.98 C 634.12 789.74 627.04 786.70 621.92 781.10 C 664.41 740.54 706.79 699.86 749.19 659.21 C 759.43 649.82 769.03 639.76 779.37 630.47 C 792.65 617.26 806.55 604.69 819.77 591.42 C 812.43 596.60 804.99 601.62 797.61 606.75 C 794.54 609.03 791.28 611.03 788.26 613.36 L 787.53 613.67 C 770.31 625.85 752.86 637.73 735.56 649.80 C 732.24 652.16 728.85 654.42 725.53 656.78 C 695.52 677.54 665.54 698.36 635.55 719.16 C 632.20 721.54 628.73 723.77 625.41 726.20 C 622.02 728.57 618.57 730.85 615.21 733.25 C 612.10 735.48 608.92 737.62 605.71 739.70 C 603.85 741.13 601.93 742.50 599.92 743.73 C 672.98 673.96 746.38 604.48 819.42 534.68 C 819.35 534.60 819.20 534.43 819.13 534.35 C 817.96 535.20 816.81 536.06 815.64 536.90 L 815.51 537.28 C 812.25 539.01 809.24 541.13 806.24 543.25 C 795.99 550.24 785.71 557.19 775.47 564.20 C 761.72 573.55 747.99 582.91 734.25 592.26 C 716.35 604.45 698.44 616.63 680.55 628.82 C 677.65 630.83 674.70 632.75 671.81 634.75 C 654.95 646.26 638.09 657.76 621.20 669.20 C 617.37 671.98 613.32 674.42 609.51 677.20 C 605.96 679.73 602.10 681.81 598.83 684.71 C 605.01 676.99 613.04 671.04 619.98 664.05 C 684.85 603.23 749.85 542.57 814.66 481.69 C 814.92 481.44 815.43 480.93 815.69 480.68 C 817.08 479.49 818.44 478.27 819.78 477.01 C 818.40 477.93 817.05 478.89 815.68 479.82 C 814.88 480.32 814.10 480.83 813.34 481.35 C 810.31 483.20 807.35 485.15 804.46 487.20 C 787.08 498.81 769.77 510.51 752.43 522.16 C 731.72 536.00 711.12 549.99 690.40 563.81 C 686.83 566.43 682.96 568.63 679.43 571.31 L 678.67 571.62 C 668.62 578.62 658.34 585.32 648.19 592.20 C 641.74 596.46 635.45 600.97 628.88 605.06 C 628.38 605.65 627.89 606.24 627.40 606.83 C 628.44 604.00 630.20 601.52 632.44 599.52 C 692.48 543.47 752.32 487.20 812.40 431.20 L 812.46 430.79 C 812.78 430.44 813.42 429.75 813.75 429.40 L 814.19 429.43 C 815.44 428.25 816.72 427.10 817.97 425.90 C 804.48 434.16 791.66 443.49 778.47 452.21 C 775.19 454.43 771.90 456.62 768.59 458.80 C 750.38 471.27 731.98 483.47 713.74 495.91 C 706.61 500.94 698.95 505.26 692.33 510.98 C 713.87 485.43 737.38 461.55 762.26 439.24 Z" />
<path fill="#eea900" opacity="1.00" d=" M 904.49 591.32 C 904.47 538.82 904.41 486.32 904.52 433.82 C 925.48 433.88 946.44 433.83 967.40 433.85 C 967.40 486.33 967.40 538.82 967.40 591.31 C 946.43 591.32 925.46 591.30 904.49 591.32 Z" />
</g>
<g id="#379de9ff">
<path fill="#379de9" opacity="1.00" d=" M 544.88 473.49 C 560.09 471.25 575.53 470.77 590.87 471.78 C 597.59 472.88 604.53 473.10 611.03 475.23 C 617.61 476.31 623.48 479.55 629.85 481.39 C 637.38 485.96 645.80 489.50 651.61 496.40 C 597.31 548.20 543.27 600.26 488.98 652.07 C 477.31 663.79 464.73 674.59 453.44 686.69 C 495.18 657.27 537.36 628.45 579.26 599.24 C 582.34 597.05 585.55 595.04 588.54 592.71 L 589.28 592.39 C 609.57 578.05 630.15 564.12 650.47 549.82 C 657.80 544.61 665.49 539.90 672.52 534.28 C 666.42 540.96 659.80 547.14 653.16 553.27 C 591.75 611.82 530.18 670.24 468.77 728.81 C 463.08 733.80 457.80 739.25 452.43 744.59 C 454.10 743.45 455.74 742.29 457.44 741.20 L 457.56 740.78 C 465.10 736.29 472.10 730.96 479.45 726.18 C 485.80 721.86 492.11 717.47 498.53 713.23 C 502.54 710.29 506.78 707.69 510.82 704.79 C 538.08 686.28 565.28 667.70 592.54 649.19 C 610.14 637.16 627.78 625.20 645.39 613.18 C 654.96 606.49 664.88 600.29 674.22 593.29 C 669.64 599.00 663.97 603.71 658.63 608.67 C 592.14 671.17 525.30 733.27 458.91 795.88 C 457.14 797.70 455.15 799.29 453.19 800.90 C 462.81 794.96 472.04 788.42 481.47 782.20 C 491.37 775.53 501.26 768.85 511.20 762.24 C 518.29 757.36 525.48 752.65 532.59 747.80 C 535.97 745.43 539.54 743.32 542.86 740.85 C 556.84 731.62 570.70 722.19 584.61 712.83 C 602.01 701.19 619.37 689.48 636.76 677.81 C 639.88 675.64 643.16 673.68 646.08 671.23 C 644.59 674.49 642.17 677.13 639.53 679.50 C 579.17 735.85 518.89 792.32 458.64 848.79 C 456.79 850.38 454.04 851.10 453.33 853.72 C 456.69 854.32 457.72 850.37 460.19 849.02 C 482.08 834.32 503.89 819.50 525.78 804.79 C 529.64 802.02 533.71 799.55 537.58 796.78 C 550.36 788.22 563.08 779.57 575.83 770.98 C 577.22 769.98 578.51 768.86 579.84 767.79 C 560.43 791.53 538.55 813.16 516.03 833.94 C 490.87 856.71 464.13 877.74 436.11 896.89 C 435.64 864.19 436.04 831.47 435.91 798.76 C 413.78 798.75 391.66 798.76 369.54 798.76 C 369.49 813.56 369.62 828.37 369.48 843.18 C 347.76 843.11 326.04 843.19 304.32 843.14 C 304.33 791.85 304.32 740.55 304.32 689.26 C 326.06 689.26 347.80 689.26 369.54 689.26 C 369.53 703.63 369.54 718.00 369.54 732.37 C 391.66 732.37 413.78 732.37 435.91 732.37 C 435.90 699.72 435.93 667.07 435.89 634.42 C 380.92 634.45 325.94 634.42 270.96 634.43 C 268.64 634.43 266.28 634.45 264.05 635.19 C 262.98 635.35 261.91 635.52 260.85 635.69 C 258.23 636.55 255.64 637.53 253.22 638.86 C 304.19 589.31 361.78 546.14 425.28 513.93 C 463.01 495.07 503.00 479.74 544.88 473.49 Z" />
<path fill="#379de9" opacity="1.00" d=" M 175.06 731.15 C 192.23 706.38 211.31 682.93 231.94 660.97 C 227.74 669.71 229.34 679.64 229.00 689.00 C 229.03 745.67 228.94 802.34 229.04 859.00 C 228.74 866.25 231.17 873.22 234.65 879.48 C 235.23 880.16 235.82 880.86 236.41 881.56 L 236.59 882.48 C 240.42 886.94 244.58 891.17 249.62 894.28 C 251.67 895.30 253.73 896.33 255.80 897.32 C 260.37 898.97 265.15 899.99 270.03 899.95 C 323.77 900.15 377.52 899.80 431.25 900.13 C 404.55 917.86 376.66 933.88 347.50 947.23 C 315.93 961.65 282.80 973.16 248.43 978.57 C 239.33 979.85 230.15 980.97 220.96 981.11 C 216.01 981.37 210.96 981.63 206.05 980.82 C 197.92 980.86 189.96 979.07 181.97 977.91 C 177.57 976.39 172.85 975.82 168.67 973.72 C 164.87 971.93 160.56 971.32 157.07 968.88 C 153.11 966.09 148.68 964.05 144.80 961.16 C 135.00 954.19 127.25 944.45 122.54 933.40 C 121.34 930.57 120.41 927.63 119.05 924.89 C 116.60 920.20 116.73 914.75 115.11 909.80 C 110.48 882.11 115.96 853.78 124.78 827.43 C 136.59 793.04 154.51 761.04 175.06 731.15 Z" />
</g>
</svg>
