<?xml version="1.0" encoding="UTF-8" ?>
<!DOCTYPE svg PUBLIC "-//W3C//DTD SVG 1.1//EN" "http://www.w3.org/Graphics/SVG/1.1/DTD/svg11.dtd">
<svg width="1276pt" height="1276pt" viewBox="0 0 1276 1276" version="1.1" xmlns="http://www.w3.org/2000/svg">
<g id="#ffffffff">
<path fill="#ffffff" opacity="1.00" d=" M 470.94 286.94 C 507.69 267.08 549.16 255.89 590.94 255.06 C 708.42 255.08 825.91 255.06 943.39 255.07 C 943.37 356.69 943.37 458.31 943.39 559.93 C 917.58 560.01 891.77 559.77 865.96 560.05 C 901.03 595.78 926.26 641.19 937.31 690.07 C 939.62 699.75 940.97 709.60 942.60 719.40 C 944.17 734.49 944.10 749.69 943.80 764.85 C 943.33 777.05 941.36 789.13 939.67 801.19 C 927.77 811.23 916.32 821.85 905.44 833.01 C 901.19 834.28 897.60 837.11 893.34 838.30 C 886.35 839.86 879.22 838.18 872.43 836.49 C 892.16 791.07 895.46 738.86 881.93 691.25 C 867.70 640.47 833.85 595.58 789.02 567.83 C 755.34 546.72 715.68 535.50 675.97 535.36 C 650.64 535.38 625.32 535.36 599.99 535.37 C 594.48 535.64 589.08 531.57 588.52 525.94 C 587.24 519.90 592.98 514.07 598.98 514.59 C 696.00 514.66 793.02 514.54 890.03 514.65 C 890.29 483.38 890.08 452.11 890.14 420.83 C 793.43 420.81 696.71 420.85 599.99 420.81 C 581.15 420.46 562.17 425.28 545.96 434.95 C 516.30 452.11 495.97 484.66 494.57 519.02 C 492.79 551.10 507.65 583.25 532.54 603.39 C 547.68 615.91 566.47 623.98 586.00 626.20 C 595.98 627.18 606.01 626.85 616.03 626.91 C 635.69 626.90 655.35 626.91 675.01 626.90 C 709.61 627.39 743.33 643.82 765.83 669.97 C 788.11 695.36 799.47 730.25 795.45 763.89 C 792.42 792.74 778.38 819.99 757.45 839.96 C 744.06 844.53 731.00 850.09 718.33 856.37 C 707.78 861.47 697.84 867.70 687.58 873.33 C 675.09 874.76 662.50 873.92 649.97 874.14 C 560.71 874.15 471.45 874.13 382.19 874.16 C 382.27 904.67 382.23 935.19 382.21 965.71 C 444.86 965.67 507.52 965.70 570.17 965.70 C 562.80 976.37 554.08 986.02 546.58 996.59 C 541.26 1003.27 536.62 1010.45 532.01 1017.62 C 536.03 1018.05 540.07 1018.19 544.11 1018.13 C 544.01 1018.31 543.81 1018.67 543.71 1018.86 C 471.91 1019.01 400.10 1018.94 328.29 1018.89 C 328.36 914.65 328.38 810.41 328.28 706.17 C 352.44 706.10 376.59 706.10 400.74 706.17 C 374.40 678.25 354.24 644.53 342.16 608.08 C 328.64 567.97 324.99 524.60 331.57 482.79 C 338.10 440.50 355.24 399.99 380.59 365.55 C 404.45 333.14 435.50 306.04 470.94 286.94 M 509.92 327.04 C 475.91 342.00 446.01 366.07 424.00 395.98 C 400.56 427.59 386.23 465.84 383.00 505.05 C 379.27 547.39 388.19 590.82 408.81 628.02 C 426.68 660.42 453.02 688.14 484.65 707.37 C 518.76 728.42 558.94 739.47 599.02 738.91 C 623.02 738.91 647.02 738.92 671.02 738.91 C 675.20 738.81 679.87 740.19 682.13 744.01 C 686.52 750.53 682.72 762.22 673.99 762.12 C 576.73 762.15 479.46 762.13 382.20 762.14 C 382.20 792.51 382.35 822.88 382.12 853.25 C 450.05 853.55 517.99 853.29 585.92 853.38 C 618.20 853.23 650.50 853.69 682.76 853.15 C 700.10 852.04 716.94 845.85 731.37 836.28 C 755.54 820.31 772.69 793.89 776.76 765.15 C 780.54 739.65 774.11 712.87 759.12 691.88 C 741.78 667.07 713.05 649.78 682.67 648.07 C 679.17 647.43 675.61 647.72 672.09 647.68 C 646.84 647.65 621.58 647.74 596.32 647.63 C 586.82 647.06 577.31 645.88 568.12 643.31 C 533.77 634.11 504.01 609.35 488.55 577.35 C 479.03 558.14 474.80 536.36 476.42 514.99 C 477.92 493.70 485.25 472.89 497.25 455.26 C 516.60 426.37 548.43 406.05 582.95 401.35 C 592.23 399.78 601.66 400.33 611.03 400.24 C 704.07 400.23 797.11 400.25 890.15 400.23 C 890.14 370.19 890.15 340.15 890.14 310.11 L 890.20 308.63 C 794.15 308.57 698.09 308.62 602.04 308.60 C 598.79 308.62 595.51 308.38 592.31 309.04 C 588.86 308.41 585.36 309.04 581.91 309.24 C 557.12 310.92 532.63 316.98 509.92 327.04 Z" />
</g>
<g id="#034693ff">
<path fill="#034693" opacity="1.00" d=" M 509.92 327.04 C 532.63 316.98 557.12 310.92 581.91 309.24 C 585.36 309.04 588.86 308.41 592.31 309.04 C 594.16 309.49 596.02 310.01 597.96 310.05 C 652.31 309.89 706.66 310.08 761.01 310.00 C 804.05 310.10 847.10 309.81 890.14 310.11 C 890.15 340.15 890.14 370.19 890.15 400.23 C 797.11 400.25 704.07 400.23 611.03 400.24 C 601.66 400.33 592.23 399.78 582.95 401.35 C 548.43 406.05 516.60 426.37 497.25 455.26 C 485.25 472.89 477.92 493.70 476.42 514.99 C 474.80 536.36 479.03 558.14 488.55 577.35 C 504.01 609.35 533.77 634.11 568.12 643.31 C 577.31 645.88 586.82 647.06 596.32 647.63 C 594.14 647.84 591.98 648.20 589.83 648.57 C 596.51 649.25 603.23 649.00 609.94 649.01 C 628.97 648.95 648.01 649.08 667.05 648.98 C 672.26 648.87 677.60 649.71 682.67 648.07 C 713.05 649.78 741.78 667.07 759.12 691.88 C 774.11 712.87 780.54 739.65 776.76 765.15 C 772.69 793.89 755.54 820.31 731.37 836.28 C 716.94 845.85 700.10 852.04 682.76 853.15 C 681.25 852.48 679.68 851.90 678.02 851.96 C 580.69 852.01 483.37 852.06 386.05 851.94 C 384.55 851.80 383.24 852.23 382.12 853.25 C 382.35 822.88 382.20 792.51 382.20 762.14 C 479.46 762.13 576.73 762.15 673.99 762.12 C 682.72 762.22 686.52 750.53 682.13 744.01 C 679.87 740.19 675.20 738.81 671.02 738.91 C 647.02 738.92 623.02 738.91 599.02 738.91 C 558.94 739.47 518.76 728.42 484.65 707.37 C 453.02 688.14 426.68 660.42 408.81 628.02 C 388.19 590.82 379.27 547.39 383.00 505.05 C 386.23 465.84 400.56 427.59 424.00 395.98 C 446.01 366.07 475.91 342.00 509.92 327.04 Z" />
<path fill="#034693" opacity="1.00" d=" M 545.96 434.95 C 562.17 425.28 581.15 420.46 599.99 420.81 C 696.71 420.85 793.43 420.81 890.14 420.83 C 890.08 452.11 890.29 483.38 890.03 514.65 C 793.02 514.54 696.00 514.66 598.98 514.59 C 592.98 514.07 587.24 519.90 588.52 525.94 C 589.08 531.57 594.48 535.64 599.99 535.37 C 625.32 535.36 650.64 535.38 675.97 535.36 C 715.68 535.50 755.34 546.72 789.02 567.83 C 833.85 595.58 867.70 640.47 881.93 691.25 C 895.46 738.86 892.16 791.07 872.43 836.49 C 871.72 838.09 870.99 839.70 870.26 841.30 C 866.86 840.64 863.54 839.54 860.10 839.21 C 858.27 839.72 857.00 841.32 855.51 842.40 C 844.27 833.84 829.85 830.71 815.99 830.14 C 796.03 829.45 776.36 833.96 757.45 839.96 C 778.38 819.99 792.42 792.74 795.45 763.89 C 799.47 730.25 788.11 695.36 765.83 669.97 C 743.33 643.82 709.61 627.39 675.01 626.90 C 655.35 626.91 635.69 626.90 616.03 626.91 C 606.01 626.85 595.98 627.18 586.00 626.20 C 566.47 623.98 547.68 615.91 532.54 603.39 C 507.65 583.25 492.79 551.10 494.57 519.02 C 495.97 484.66 516.30 452.11 545.96 434.95 Z" />
<path fill="#034693" opacity="1.00" d=" M 649.97 874.14 C 662.50 873.92 675.09 874.76 687.58 873.33 C 683.24 876.46 678.73 879.34 674.25 882.26 C 655.31 894.97 637.44 909.23 620.58 924.59 C 617.05 927.92 613.06 930.87 610.38 935.00 C 601.78 937.71 595.25 945.31 593.38 954.07 L 593.28 952.29 C 588.65 956.36 584.95 961.30 580.78 965.80 C 577.24 965.68 573.70 965.67 570.17 965.70 C 507.52 965.70 444.86 965.67 382.21 965.71 C 382.23 935.19 382.27 904.67 382.19 874.16 C 471.45 874.13 560.71 874.15 649.97 874.14 Z" />
</g>
<g id="#002982ff">
<path fill="#002982" opacity="1.00" d=" M 592.31 309.04 C 595.51 308.38 598.79 308.62 602.04 308.60 C 698.09 308.62 794.15 308.57 890.20 308.63 L 890.14 310.11 C 847.10 309.81 804.05 310.10 761.01 310.00 C 706.66 310.08 652.31 309.89 597.96 310.05 C 596.02 310.01 594.16 309.49 592.31 309.04 Z" />
<path fill="#002982" opacity="1.00" d=" M 382.12 853.25 C 383.24 852.23 384.55 851.80 386.05 851.94 C 483.37 852.06 580.69 852.01 678.02 851.96 C 679.68 851.90 681.25 852.48 682.76 853.15 C 650.50 853.69 618.20 853.23 585.92 853.38 C 517.99 853.29 450.05 853.55 382.12 853.25 Z" />
</g>
<g id="#002c84ff">
<path fill="#002c84" opacity="1.00" d=" M 589.83 648.57 C 591.98 648.20 594.14 647.84 596.32 647.63 C 621.58 647.74 646.84 647.65 672.09 647.68 C 675.61 647.72 679.17 647.43 682.67 648.07 C 677.60 649.71 672.26 648.87 667.05 648.98 C 648.01 649.08 628.97 648.95 609.94 649.01 C 603.23 649.00 596.51 649.25 589.83 648.57 Z" />
</g>
<g id="#eea900ff">
<path fill="#eea900" opacity="1.00" d=" M 1100.00 720.51 C 1118.18 718.24 1137.53 718.97 1154.09 727.57 C 1164.49 733.49 1172.77 742.99 1177.16 754.13 C 1182.45 768.82 1181.70 784.94 1178.47 800.02 C 1173.85 821.18 1164.57 841.03 1153.65 859.63 C 1140.30 882.18 1123.93 902.78 1106.32 922.13 C 1107.28 918.50 1106.99 914.71 1107.01 911.00 C 1106.95 872.30 1107.07 833.60 1106.95 794.91 C 1105.44 781.88 1092.61 772.53 1080.02 772.01 C 1046.23 771.98 1012.44 772.02 978.65 771.99 C 993.77 761.54 1009.76 752.35 1026.22 744.19 C 1049.57 733.02 1074.21 723.88 1100.00 720.51 Z" />
<path fill="#eea900" opacity="1.00" d=" M 939.67 801.19 C 951.24 791.84 962.92 782.57 975.25 774.20 C 975.33 829.76 975.27 885.32 975.27 940.89 C 1009.85 940.92 1044.42 940.88 1079.00 940.91 C 1082.65 940.91 1086.32 940.38 1089.77 939.11 C 1062.80 964.57 1033.35 987.58 1001.07 1005.97 C 980.71 1017.44 959.44 1027.52 937.02 1034.28 C 917.03 1040.19 895.94 1044.01 875.08 1041.27 C 862.67 1039.47 850.15 1035.08 841.04 1026.13 C 880.46 988.52 919.64 950.66 959.01 912.99 C 961.03 911.03 963.06 909.06 964.88 906.91 C 918.96 938.93 872.83 970.68 827.02 1002.86 C 827.10 1001.55 828.07 1000.80 829.27 1000.53 C 870.02 961.48 910.97 922.64 951.75 883.62 C 956.48 879.15 961.35 874.80 965.79 870.02 C 947.36 882.50 929.01 895.10 910.60 907.62 C 897.83 916.48 884.78 924.95 872.20 934.08 C 856.88 944.06 842.09 954.84 826.72 964.74 C 830.99 959.68 836.26 955.60 840.95 950.95 C 852.73 939.73 864.75 928.76 876.49 917.51 C 883.81 910.70 891.14 903.90 898.31 896.93 C 900.50 894.97 902.72 893.02 904.87 891.01 C 925.03 872.10 945.31 853.33 965.25 834.20 C 949.74 844.69 934.05 854.95 918.73 865.72 C 909.65 871.94 900.46 877.99 891.38 884.20 C 889.12 885.68 886.87 887.16 884.63 888.67 C 881.49 890.75 878.38 892.87 875.26 894.97 C 869.04 899.06 862.90 903.25 856.72 907.40 C 852.73 909.97 848.94 912.83 844.83 915.21 C 849.70 907.76 857.37 902.73 863.48 896.36 C 867.06 892.95 870.63 889.53 874.21 886.12 C 877.25 883.28 880.33 880.49 883.32 877.60 C 885.24 875.75 887.16 873.90 889.11 872.08 C 891.55 869.77 894.02 867.49 896.47 865.18 C 901.83 860.11 907.32 855.16 912.53 849.93 C 918.91 844.36 924.77 838.22 931.23 832.74 C 942.59 822.32 953.96 811.90 964.88 801.03 C 955.00 808.15 944.60 814.51 934.79 821.72 C 918.65 832.92 902.13 843.59 886.08 854.94 C 888.32 851.97 890.65 849.06 893.19 846.34 C 897.29 841.91 901.24 837.35 905.44 833.01 C 916.32 821.85 927.77 811.23 939.67 801.19 Z" />
<path fill="#eea900" opacity="1.00" d=" M 1019.40 905.00 C 1019.42 872.17 1019.30 839.34 1019.47 806.51 C 1032.71 806.60 1045.96 806.50 1059.20 806.56 C 1059.20 839.77 1059.21 872.98 1059.20 906.19 C 1046.08 906.13 1032.96 906.31 1019.85 906.11 C 1019.74 905.83 1019.51 905.28 1019.40 905.00 Z" />
</g>
<g id="#000000ff">
<path fill="#000000" opacity="1.00" d=" M 975.21 772.07 C 976.34 772.02 977.49 771.99 978.65 771.99 C 1012.44 772.02 1046.23 771.98 1080.02 772.01 C 1092.61 772.53 1105.44 781.88 1106.95 794.91 C 1107.07 833.60 1106.95 872.30 1107.01 911.00 C 1106.99 914.71 1107.28 918.50 1106.32 922.13 C 1103.69 929.86 1097.51 936.41 1089.77 939.11 C 1086.32 940.38 1082.65 940.91 1079.00 940.91 C 1044.42 940.88 1009.85 940.92 975.27 940.89 C 975.27 885.32 975.33 829.76 975.25 774.20 C 975.24 773.67 975.22 772.60 975.21 772.07 M 1019.40 905.00 C 1019.51 905.28 1019.74 905.83 1019.85 906.11 C 1032.96 906.31 1046.08 906.13 1059.20 906.19 C 1059.21 872.98 1059.20 839.77 1059.20 806.56 C 1045.96 806.50 1032.71 806.60 1019.47 806.51 C 1019.30 839.34 1019.42 872.17 1019.40 905.00 Z" />
<path fill="#000000" opacity="1.00" d=" M 610.38 935.00 C 617.03 932.65 624.12 933.57 631.02 933.41 C 661.88 933.41 692.73 933.41 723.59 933.42 C 723.55 954.07 723.68 974.73 723.52 995.39 C 709.55 995.32 695.58 995.39 681.61 995.35 C 681.61 986.30 681.58 977.25 681.64 968.21 C 667.88 968.12 654.12 968.16 640.36 968.18 C 640.47 1000.63 640.22 1033.08 640.49 1065.52 C 654.17 1065.39 667.86 1065.45 681.54 1065.49 C 681.67 1056.16 681.60 1046.84 681.58 1037.51 C 695.58 1037.37 709.58 1037.49 723.59 1037.45 C 723.67 1058.17 723.45 1078.89 723.69 1099.61 C 723.70 1099.91 723.72 1100.50 723.73 1100.80 C 723.18 1100.84 722.08 1100.93 721.53 1100.98 C 687.34 1101.05 653.15 1100.94 618.97 1101.03 C 607.04 1101.95 596.08 1092.31 593.46 1081.01 C 592.56 1074.03 593.17 1066.96 593.00 1059.95 C 593.00 1029.29 593.00 998.64 593.00 967.98 C 592.95 963.33 592.96 958.69 593.38 954.07 C 595.25 945.31 601.78 937.71 610.38 935.00 Z" />
</g>
<g id="#e1e1e1ff">
<path fill="#e1e1e1" opacity="1.00" d=" M 886.08 854.94 C 902.13 843.59 918.65 832.92 934.79 821.72 C 933.59 825.39 932.86 829.22 931.23 832.74 C 924.77 838.22 918.91 844.36 912.53 849.93 C 906.73 852.02 902.08 856.64 895.86 857.69 C 885.20 860.41 874.64 855.93 864.64 852.73 C 866.32 849.41 868.01 846.09 869.59 842.73 C 877.19 845.31 885.13 846.93 893.19 846.34 C 890.65 849.06 888.32 851.97 886.08 854.94 Z" />
</g>
<g id="#379de9ff">
<path fill="#379de9" opacity="1.00" d=" M 757.45 839.96 C 776.36 833.96 796.03 829.45 815.99 830.14 C 829.85 830.71 844.27 833.84 855.51 842.40 C 856.97 843.55 858.38 844.78 859.81 846.01 C 857.51 848.36 855.24 850.73 852.84 852.98 C 849.75 855.82 846.69 858.70 843.68 861.62 C 838.72 866.40 833.70 871.13 828.79 875.97 C 802.21 901.22 775.86 926.71 749.39 952.07 C 744.85 956.31 740.25 960.50 736.05 965.08 C 743.95 960.01 751.66 954.61 759.19 949.01 C 783.26 932.60 807.16 915.92 830.99 899.17 C 837.32 895.14 843.35 890.68 849.52 886.40 C 853.39 883.73 857.23 881.02 861.07 878.30 C 863.42 876.62 865.74 874.89 868.10 873.23 C 869.67 872.14 871.31 871.14 872.98 870.20 C 872.13 871.20 871.24 872.17 870.37 873.15 C 867.68 875.75 864.91 878.26 862.25 880.89 C 858.50 884.38 854.77 887.90 851.04 891.40 C 812.40 928.26 773.62 964.97 735.17 1002.02 C 765.52 981.88 795.38 960.99 825.56 940.59 C 839.78 930.88 854.00 921.18 868.20 911.44 C 870.02 910.22 871.90 909.09 873.82 908.01 C 872.60 909.26 871.37 910.49 870.12 911.70 C 844.15 935.84 818.39 960.19 792.52 984.42 C 786.33 990.32 779.92 995.98 773.90 1002.05 C 760.46 1014.04 747.72 1026.80 734.32 1038.84 C 775.16 1011.90 815.41 984.05 856.23 957.08 C 852.09 962.92 846.13 967.15 841.09 972.17 C 812.42 999.17 783.66 1026.07 754.95 1053.02 C 748.73 1059.09 742.07 1064.70 736.07 1070.98 C 762.14 1053.57 788.12 1036.01 813.96 1018.27 C 809.52 1024.59 803.91 1030.00 798.75 1035.73 C 776.06 1059.59 750.93 1081.11 723.69 1099.61 C 723.45 1078.89 723.67 1058.17 723.59 1037.45 C 709.58 1037.49 695.58 1037.37 681.58 1037.51 C 681.60 1046.84 681.67 1056.16 681.54 1065.49 C 667.86 1065.45 654.17 1065.39 640.49 1065.52 C 640.22 1033.08 640.47 1000.63 640.36 968.18 C 654.12 968.16 667.88 968.12 681.64 968.21 C 681.58 977.25 681.61 986.30 681.61 995.35 C 695.58 995.39 709.55 995.32 723.52 995.39 C 723.68 974.73 723.55 954.07 723.59 933.42 C 692.73 933.41 661.88 933.41 631.02 933.41 C 624.12 933.57 617.03 932.65 610.38 935.00 C 613.06 930.87 617.05 927.92 620.58 924.59 C 637.44 909.23 655.31 894.97 674.25 882.26 C 678.73 879.34 683.24 876.46 687.58 873.33 C 697.84 867.70 707.78 861.47 718.33 856.37 C 731.00 850.09 744.06 844.53 757.45 839.96 Z" />
<path fill="#379de9" opacity="1.00" d=" M 580.78 965.80 C 584.95 961.30 588.65 956.36 593.28 952.29 L 593.38 954.07 C 592.96 958.69 592.95 963.33 593.00 967.98 C 593.00 998.64 593.00 1029.29 593.00 1059.95 C 593.17 1066.96 592.56 1074.03 593.46 1081.01 C 596.08 1092.31 607.04 1101.95 618.97 1101.03 C 653.15 1100.94 687.34 1101.05 721.53 1100.98 C 706.38 1111.48 690.27 1120.53 673.74 1128.65 C 653.74 1138.28 632.77 1146.28 610.87 1150.30 C 589.34 1154.52 565.69 1154.89 545.85 1144.34 C 540.88 1141.02 535.94 1137.47 531.94 1133.02 C 528.59 1128.36 525.84 1123.25 523.61 1117.98 C 517.16 1099.06 520.09 1078.46 525.80 1059.73 C 530.24 1045.48 536.64 1031.96 543.71 1018.86 C 543.81 1018.67 544.01 1018.31 544.11 1018.13 C 554.49 999.48 567.20 982.23 580.78 965.80 Z" />
</g>
<g id="#f2f2f2ff">
<path fill="#f2f2f2" opacity="1.00" d=" M 893.34 838.30 C 897.60 837.11 901.19 834.28 905.44 833.01 C 901.24 837.35 897.29 841.91 893.19 846.34 C 885.13 846.93 877.19 845.31 869.59 842.73 C 869.76 842.37 870.10 841.66 870.26 841.30 C 870.99 839.70 871.72 838.09 872.43 836.49 C 879.22 838.18 886.35 839.86 893.34 838.30 Z" />
</g>
<g id="#033f85ff">
<path fill="#033f85" opacity="1.00" d=" M 855.51 842.40 C 857.00 841.32 858.27 839.72 860.10 839.21 C 863.54 839.54 866.86 840.64 870.26 841.30 C 870.10 841.66 869.76 842.37 869.59 842.73 C 868.01 846.09 866.32 849.41 864.64 852.73 L 864.53 852.70 C 860.68 851.75 856.42 850.51 852.84 852.98 C 855.24 850.73 857.51 848.36 859.81 846.01 C 858.38 844.78 856.97 843.55 855.51 842.40 Z" />
</g>
<g id="#d0d0d0ff">
<path fill="#d0d0d0" opacity="1.00" d=" M 895.86 857.69 C 902.08 856.64 906.73 852.02 912.53 849.93 C 907.32 855.16 901.83 860.11 896.47 865.18 C 890.97 864.82 885.34 865.59 879.99 864.03 C 873.79 862.23 867.50 860.64 861.54 858.12 C 862.56 856.32 863.54 854.51 864.53 852.70 L 864.64 852.73 C 874.64 855.93 885.20 860.41 895.86 857.69 Z" />
</g>
<g id="#023671ff">
<path fill="#023671" opacity="1.00" d=" M 852.84 852.98 C 856.42 850.51 860.68 851.75 864.53 852.70 C 863.54 854.51 862.56 856.32 861.54 858.12 C 860.58 859.78 859.60 861.42 858.61 863.07 C 858.24 863.64 857.88 864.22 857.53 864.82 C 852.89 863.84 848.27 862.79 843.68 861.62 C 846.69 858.70 849.75 855.82 852.84 852.98 Z" />
</g>
<g id="#c0c0c0ff">
<path fill="#c0c0c0" opacity="1.00" d=" M 858.61 863.07 C 859.60 861.42 860.58 859.78 861.54 858.12 C 867.50 860.64 873.79 862.23 879.99 864.03 C 885.34 865.59 890.97 864.82 896.47 865.18 C 894.02 867.49 891.55 869.77 889.11 872.08 C 878.58 870.50 868.50 866.90 858.61 863.07 Z" />
</g>
<g id="#022b59ff">
<path fill="#022b59" opacity="1.00" d=" M 828.79 875.97 C 833.70 871.13 838.72 866.40 843.68 861.62 C 848.27 862.79 852.89 863.84 857.53 864.82 C 856.81 865.91 856.10 867.02 855.40 868.13 C 853.83 870.52 852.24 872.88 850.59 875.22 C 849.93 876.12 849.27 877.02 848.62 877.94 C 842.07 876.72 835.45 875.93 828.79 875.97 Z" />
</g>
<g id="#afafafff">
<path fill="#afafaf" opacity="1.00" d=" M 857.53 864.82 C 857.88 864.22 858.24 863.64 858.61 863.07 C 868.50 866.90 878.58 870.50 889.11 872.08 C 887.16 873.90 885.24 875.75 883.32 877.60 C 878.81 876.79 874.13 875.97 870.37 873.15 C 871.24 872.17 872.13 871.20 872.98 870.20 C 871.31 871.14 869.67 872.14 868.10 873.23 C 863.77 871.77 859.47 870.21 855.40 868.13 C 856.10 867.02 856.81 865.91 857.53 864.82 Z" />
</g>
<g id="#a0a0a0ff">
<path fill="#a0a0a0" opacity="1.00" d=" M 891.38 884.20 C 900.46 877.99 909.65 871.94 918.73 865.72 C 916.27 870.45 913.95 875.26 911.33 879.92 C 904.84 881.79 898.34 886.44 891.38 884.20 Z" />
</g>
<g id="#9d9d9dff">
<path fill="#9d9d9d" opacity="1.00" d=" M 850.59 875.22 C 852.24 872.88 853.83 870.52 855.40 868.13 C 859.47 870.21 863.77 871.77 868.10 873.23 C 865.74 874.89 863.42 876.62 861.07 878.30 C 857.46 877.70 853.95 876.65 850.59 875.22 Z" />
</g>
<g id="#9b9b9bff">
<path fill="#9b9b9b" opacity="1.00" d=" M 862.25 880.89 C 864.91 878.26 867.68 875.75 870.37 873.15 C 874.13 875.97 878.81 876.79 883.32 877.60 C 880.33 880.49 877.25 883.28 874.21 886.12 C 870.20 884.42 866.09 882.93 862.25 880.89 Z" />
</g>
<g id="#898989ff">
<path fill="#898989" opacity="1.00" d=" M 848.62 877.94 C 849.27 877.02 849.93 876.12 850.59 875.22 C 853.95 876.65 857.46 877.70 861.07 878.30 C 857.23 881.02 853.39 883.73 849.52 886.40 C 847.41 885.92 845.33 885.46 843.24 885.00 C 845.10 882.69 846.87 880.32 848.62 877.94 Z" />
</g>
<g id="#011f41ff">
<path fill="#011f41" opacity="1.00" d=" M 749.39 952.07 C 775.86 926.71 802.21 901.22 828.79 875.97 C 835.45 875.93 842.07 876.72 848.62 877.94 C 846.87 880.32 845.10 882.69 843.24 885.00 C 839.28 889.82 835.29 894.64 830.99 899.17 C 807.16 915.92 783.26 932.60 759.19 949.01 C 756.00 950.27 752.72 951.28 749.39 952.07 Z" />
</g>
<g id="#919191ff">
<path fill="#919191" opacity="1.00" d=" M 891.38 884.20 C 898.34 886.44 904.84 881.79 911.33 879.92 C 909.58 883.12 907.86 886.33 905.92 889.42 C 898.79 890.66 891.58 891.53 884.33 890.94 C 884.41 890.37 884.55 889.24 884.63 888.67 C 886.87 887.16 889.12 885.68 891.38 884.20 Z" />
</g>
<g id="#848484ff">
<path fill="#848484" opacity="1.00" d=" M 851.04 891.40 C 854.77 887.90 858.50 884.38 862.25 880.89 C 866.09 882.93 870.20 884.42 874.21 886.12 C 870.63 889.53 867.06 892.95 863.48 896.36 C 859.42 894.50 855.33 892.65 851.04 891.40 Z" />
</g>
<g id="#7b7b7bff">
<path fill="#7b7b7b" opacity="1.00" d=" M 830.99 899.17 C 835.29 894.64 839.28 889.82 843.24 885.00 C 845.33 885.46 847.41 885.92 849.52 886.40 C 843.35 890.68 837.32 895.14 830.99 899.17 Z" />
</g>
<g id="#868686ff">
<path fill="#868686" opacity="1.00" d=" M 875.26 894.97 C 878.38 892.87 881.49 890.75 884.63 888.67 C 884.55 889.24 884.41 890.37 884.33 890.94 C 891.58 891.53 898.79 890.66 905.92 889.42 C 905.66 889.82 905.13 890.61 904.87 891.01 C 902.72 893.02 900.50 894.97 898.31 896.93 C 893.26 900.26 887.23 898.56 881.81 897.36 C 879.53 896.83 877.38 895.90 875.26 894.97 Z" />
</g>
<g id="#707070ff">
<path fill="#707070" opacity="1.00" d=" M 735.17 1002.02 C 773.62 964.97 812.40 928.26 851.04 891.40 C 855.33 892.65 859.42 894.50 863.48 896.36 C 857.37 902.73 849.70 907.76 844.83 915.21 C 848.94 912.83 852.73 909.97 856.72 907.40 C 861.05 906.67 864.42 909.99 868.20 911.44 C 854.00 921.18 839.78 930.88 825.56 940.59 C 795.38 960.99 765.52 981.88 735.17 1002.02 Z" />
<path fill="#707070" opacity="1.00" d=" M 792.52 984.42 C 818.39 960.19 844.15 935.84 870.12 911.70 C 872.58 912.66 875.07 913.55 877.60 914.37 C 877.23 915.41 876.86 916.45 876.49 917.51 C 864.75 928.76 852.73 939.73 840.95 950.95 C 836.26 955.60 830.99 959.68 826.72 964.74 C 842.09 954.84 856.88 944.06 872.20 934.08 C 861.64 946.25 849.34 956.85 836.59 966.66 C 817.40 981.17 796.29 993.20 773.90 1002.05 C 779.92 995.98 786.33 990.32 792.52 984.42 Z" />
<path fill="#707070" opacity="1.00" d=" M 749.39 952.07 C 752.72 951.28 756.00 950.27 759.19 949.01 C 751.66 954.61 743.95 960.01 736.05 965.08 C 740.25 960.50 744.85 956.31 749.39 952.07 Z" />
</g>
<g id="#777777ff">
<path fill="#777777" opacity="1.00" d=" M 856.72 907.40 C 862.90 903.25 869.04 899.06 875.26 894.97 C 877.38 895.90 879.53 896.83 881.81 897.36 C 887.23 898.56 893.26 900.26 898.31 896.93 C 891.14 903.90 883.81 910.70 876.49 917.51 C 876.86 916.45 877.23 915.41 877.60 914.37 C 875.07 913.55 872.58 912.66 870.12 911.70 C 871.37 910.49 872.60 909.26 873.82 908.01 C 871.90 909.09 870.02 910.22 868.20 911.44 C 864.42 909.99 861.05 906.67 856.72 907.40 Z" />
</g>
<g id="#f7f7f7ff">
<path fill="#f7f7f7" opacity="1.00" d=" M 570.17 965.70 C 573.70 965.67 577.24 965.68 580.78 965.80 C 567.20 982.23 554.49 999.48 544.11 1018.13 C 540.07 1018.19 536.03 1018.05 532.01 1017.62 C 536.62 1010.45 541.26 1003.27 546.58 996.59 C 554.08 986.02 562.80 976.37 570.17 965.70 Z" />
</g>
</svg>
