<?xml version="1.0" encoding="UTF-8" ?>
<!DOCTYPE svg PUBLIC "-//W3C//DTD SVG 1.1//EN" "http://www.w3.org/Graphics/SVG/1.1/DTD/svg11.dtd">
<svg width="1276pt" height="1276pt" viewBox="0 0 1276 1276" version="1.1" xmlns="http://www.w3.org/2000/svg">
<g id="#ffffffff">
<path fill="#ffffff" opacity="1.00" d=" M 422.50 320.34 C 469.40 279.67 530.75 255.66 592.93 255.06 C 709.75 255.08 826.57 255.05 943.40 255.07 C 943.37 356.69 943.37 458.31 943.39 559.93 C 917.60 559.92 891.80 559.96 866.00 559.91 C 875.14 569.86 884.33 579.85 892.07 590.97 C 914.29 621.27 930.00 656.28 937.97 692.99 C 940.13 702.25 941.07 711.73 943.03 721.03 C 944.14 742.79 944.91 764.74 941.80 786.38 C 939.12 806.76 934.06 826.80 926.88 846.05 C 907.26 846.06 887.65 846.04 868.03 846.06 C 887.57 806.34 894.44 760.58 887.51 716.88 C 882.74 686.04 871.18 656.23 853.69 630.39 C 836.67 604.88 814.01 583.19 787.90 567.14 C 754.76 546.65 715.93 535.70 677.00 535.36 C 651.32 535.38 625.64 535.35 599.96 535.38 C 594.45 535.63 589.07 531.54 588.52 525.93 C 587.32 520.28 592.36 514.59 598.02 514.62 C 691.36 514.59 784.70 514.62 878.04 514.61 C 882.10 514.60 886.17 514.71 890.23 514.48 C 890.03 483.26 890.20 452.05 890.15 420.83 C 794.09 420.82 698.04 420.83 601.98 420.83 C 593.10 420.59 584.19 421.34 575.52 423.26 C 543.20 430.30 515.25 453.93 502.49 484.38 C 492.83 506.95 491.80 533.11 499.85 556.32 C 512.01 593.17 546.37 621.54 584.96 626.09 C 596.28 627.30 607.67 626.81 619.03 626.91 C 637.67 626.90 656.32 626.92 674.97 626.89 C 708.95 627.38 742.10 643.21 764.58 668.56 C 783.19 689.18 794.58 716.21 796.05 743.97 C 797.67 772.06 788.94 800.54 772.21 823.14 C 766.04 831.63 758.66 839.16 750.70 845.99 C 738.13 846.13 725.56 846.03 712.99 846.04 C 739.32 835.39 760.81 813.54 771.01 787.04 C 781.57 760.07 779.74 728.54 765.96 703.04 C 749.87 672.21 717.47 650.25 682.63 647.90 C 653.87 647.31 625.09 647.98 596.32 647.56 C 562.76 646.59 530.15 631.06 507.86 606.02 C 493.65 590.24 483.54 570.78 478.94 550.04 C 470.66 513.87 480.49 474.38 504.21 445.93 C 526.41 418.59 560.62 401.15 595.93 400.25 C 694.00 400.23 792.07 400.25 890.14 400.24 C 890.15 370.15 890.14 340.07 890.15 309.99 L 890.16 308.62 C 804.79 308.59 719.42 308.61 634.05 308.61 C 620.15 308.75 606.24 308.31 592.35 308.84 C 552.97 309.39 513.89 321.44 480.77 342.71 C 451.31 361.64 426.58 387.87 409.50 418.44 C 389.65 453.67 380.34 494.64 382.47 535.00 C 384.39 575.74 398.26 615.84 422.03 649.00 C 454.44 694.86 505.60 726.91 561.03 735.99 C 582.48 739.96 604.34 738.73 626.02 738.91 C 640.33 738.90 654.64 738.94 668.94 738.89 C 673.50 738.71 678.88 739.32 681.71 743.40 C 686.70 749.80 683.05 762.11 674.09 762.12 C 576.80 762.15 479.50 762.13 382.21 762.13 C 382.21 792.55 382.33 822.97 382.15 853.38 C 431.74 853.44 481.34 853.39 530.93 853.41 C 547.08 853.20 563.27 853.84 579.40 853.08 C 568.15 858.04 557.88 865.23 549.37 874.11 C 493.65 874.19 437.93 874.12 382.21 874.14 C 382.24 904.66 382.26 935.18 382.20 965.70 C 429.82 965.69 477.44 965.69 525.06 965.70 C 525.05 983.44 525.07 1001.19 525.04 1018.93 C 459.46 1018.91 393.88 1018.97 328.30 1018.90 C 328.35 914.66 328.38 810.41 328.29 706.17 C 352.52 706.14 376.74 706.03 400.97 706.22 C 353.26 656.46 326.87 587.20 328.45 518.38 C 329.18 480.20 338.32 442.18 355.08 407.85 C 371.21 374.45 394.38 344.51 422.50 320.34 Z" />
<path fill="#ffffff" opacity="1.00" d=" M 607.64 912.65 C 613.37 908.86 620.20 907.33 626.99 907.07 C 684.66 907.08 742.34 907.09 800.02 907.06 C 806.48 907.20 813.01 908.49 818.67 911.76 C 829.54 917.80 836.06 929.86 836.45 942.14 C 754.88 942.11 673.30 942.09 591.72 942.15 C 591.15 930.42 597.80 918.87 607.64 912.65 M 617.10 913.08 C 611.02 914.52 605.36 917.77 601.13 922.38 C 599.34 924.44 597.74 926.68 596.53 929.14 C 595.01 932.52 594.10 936.14 593.96 939.85 C 673.94 939.83 753.93 939.85 833.91 939.84 C 833.57 937.79 833.78 935.38 832.58 933.65 C 831.73 928.97 828.92 925.00 825.93 921.43 L 825.66 921.43 C 821.61 917.46 816.41 914.28 810.82 913.28 C 805.04 911.63 798.96 911.75 793.02 911.80 C 739.33 911.78 685.64 911.81 631.95 911.78 C 626.97 911.64 621.98 912.10 617.10 913.08 Z" />
<path fill="#ffffff" opacity="1.00" d=" M 886.24 907.08 C 957.47 907.08 1028.70 907.08 1099.93 907.08 C 1108.70 906.66 1117.82 907.71 1125.39 912.50 C 1131.75 916.77 1137.01 922.87 1139.61 930.15 C 1141.21 933.95 1141.24 938.12 1141.98 942.13 C 1056.73 942.06 971.49 942.21 886.25 942.06 C 886.29 931.74 886.26 921.42 886.26 911.10 C 886.25 909.75 886.24 908.41 886.24 907.08 M 888.47 911.77 C 888.50 917.00 888.47 922.23 888.68 927.46 C 888.39 929.35 888.54 931.28 888.55 933.21 C 888.40 935.43 888.52 937.66 888.58 939.90 C 972.19 939.84 1055.81 939.73 1139.42 939.95 C 1139.24 936.85 1138.54 933.82 1137.35 930.96 C 1136.54 928.71 1135.28 926.67 1134.04 924.66 L 1133.67 924.53 C 1127.07 915.11 1115.09 911.44 1104.03 911.77 C 1032.18 911.79 960.33 911.78 888.47 911.77 Z" />
<path fill="#ffffff" opacity="1.00" d=" M 591.59 951.49 C 612.12 951.53 632.64 951.50 653.17 951.51 C 653.15 971.03 653.20 990.55 653.14 1010.07 C 653.15 1012.86 655.26 1015.16 657.46 1016.64 C 659.93 1018.37 663.13 1017.78 665.98 1017.90 C 722.80 1017.85 779.62 1017.91 836.45 1017.87 C 836.17 1029.06 830.75 1040.15 821.47 1046.57 C 815.28 1050.98 807.63 1053.13 800.06 1052.94 C 744.04 1052.89 688.02 1052.95 632.00 1052.91 C 620.99 1052.33 610.18 1047.40 602.75 1039.20 C 595.47 1031.38 591.27 1020.67 591.57 1009.96 C 591.59 990.47 591.54 970.98 591.59 951.49 M 593.86 954.83 C 593.87 957.43 593.59 960.08 594.11 962.67 C 593.78 966.72 593.57 970.84 594.14 974.88 C 593.84 978.49 593.32 982.29 594.60 985.79 C 613.21 985.48 631.83 985.88 650.44 985.58 C 650.56 982.75 650.57 979.94 650.55 977.13 C 650.48 973.52 650.63 969.91 650.55 966.31 C 650.52 962.46 650.60 958.62 650.59 954.79 C 631.68 954.80 612.77 954.72 593.86 954.83 M 593.64 987.51 L 593.87 989.26 C 593.85 990.99 593.83 992.72 593.80 994.49 C 593.80 996.47 593.94 998.46 594.23 1000.44 C 594.14 1001.17 593.95 1002.63 593.86 1003.35 C 593.85 1004.13 593.85 1005.67 593.85 1006.45 C 593.83 1007.76 593.82 1009.09 593.81 1010.44 C 593.70 1013.55 594.24 1016.64 594.80 1019.70 C 595.68 1023.23 597.14 1026.57 598.70 1029.86 C 601.73 1035.22 606.01 1039.78 610.93 1043.46 C 617.68 1048.08 625.83 1050.74 634.04 1050.66 C 690.02 1050.64 746.00 1050.66 801.98 1050.65 C 809.93 1050.63 817.76 1047.35 823.56 1041.95 C 826.70 1038.98 829.28 1035.44 831.14 1031.54 C 832.44 1027.82 833.77 1024.05 834.00 1020.09 C 776.68 1019.93 719.34 1020.06 662.01 1020.03 C 659.76 1020.23 657.81 1018.98 655.72 1018.46 C 652.86 1016.12 650.81 1012.77 650.77 1009.00 L 650.38 1009.55 C 650.50 1007.44 650.57 1005.34 650.59 1003.24 C 650.58 1002.59 650.55 1001.28 650.54 1000.63 C 650.55 999.69 650.56 997.82 650.56 996.88 L 650.38 996.53 C 650.46 993.47 650.46 990.42 650.59 987.39 L 650.54 987.39 L 649.74 986.73 C 631.83 986.42 613.89 986.76 595.98 986.57 C 595.00 986.41 594.22 986.72 593.64 987.51 Z" />
<path fill="#ffffff" opacity="1.00" d=" M 886.22 951.52 C 906.74 951.50 927.26 951.50 947.79 951.53 C 947.67 983.30 947.77 1015.07 947.74 1046.85 C 947.73 1048.86 947.74 1050.88 947.76 1052.92 C 927.26 1052.92 906.75 1052.92 886.24 1052.92 C 886.24 1050.90 886.26 1048.89 886.27 1046.90 C 886.23 1015.10 886.33 983.31 886.22 951.52 M 888.51 954.79 C 888.48 958.96 888.47 963.14 888.66 967.32 C 888.29 971.00 888.57 974.71 888.72 978.41 C 888.29 980.76 888.57 983.16 888.62 985.55 C 907.55 985.77 926.49 985.77 945.42 985.55 C 945.42 983.14 945.67 980.70 945.28 978.33 C 945.42 974.67 945.72 971.00 945.35 967.37 C 945.54 963.18 945.52 958.98 945.51 954.80 C 926.51 954.76 907.51 954.77 888.51 954.79 M 888.33 987.46 L 888.53 989.44 C 888.51 991.16 888.49 992.86 888.51 994.61 C 888.50 995.97 888.50 997.34 888.52 998.74 C 888.51 1000.28 888.51 1001.83 888.53 1003.39 C 888.52 1005.19 888.52 1006.99 888.54 1008.81 C 888.52 1010.49 888.50 1012.18 888.46 1013.88 C 888.51 1016.86 888.56 1019.85 888.49 1022.85 C 888.51 1026.98 888.54 1031.11 888.61 1035.25 C 888.23 1040.35 888.67 1045.49 888.54 1050.62 C 907.51 1050.67 926.47 1050.62 945.44 1050.64 C 945.34 1045.53 945.78 1040.40 945.39 1035.32 C 945.45 1031.16 945.48 1027.01 945.51 1022.86 C 945.44 1019.85 945.49 1016.84 945.54 1013.84 C 945.48 1012.16 945.45 1010.48 945.46 1008.83 C 945.46 1007.00 945.47 1005.19 945.48 1003.39 C 945.47 1001.83 945.47 1000.29 945.49 998.76 C 945.47 997.36 945.48 995.98 945.49 994.60 C 945.47 992.86 945.48 991.16 945.47 989.45 L 945.66 987.44 C 945.39 987.25 944.84 986.87 944.57 986.68 C 927.05 986.49 909.51 986.72 891.99 986.58 C 890.75 986.70 889.14 986.17 888.33 987.46 Z" />
<path fill="#ffffff" opacity="1.00" d=" M 1080.44 1008.10 C 1080.37 989.23 1080.48 970.36 1080.38 951.50 C 1100.91 951.54 1121.45 951.48 1141.98 951.53 C 1141.85 968.01 1141.96 984.49 1141.92 1000.97 C 1141.97 1009.31 1142.00 1017.95 1138.82 1025.81 C 1135.51 1034.44 1129.31 1041.91 1121.40 1046.71 C 1114.13 1051.19 1105.50 1053.22 1096.99 1052.93 C 1050.24 1052.95 1003.49 1052.85 956.74 1052.98 C 956.95 1041.28 956.74 1029.57 956.83 1017.87 C 992.88 1017.90 1028.94 1017.86 1064.99 1017.89 C 1067.82 1017.83 1070.71 1018.11 1073.53 1017.57 C 1077.68 1016.55 1080.51 1012.27 1080.44 1008.10 M 1082.42 954.76 C 1082.48 962.35 1082.24 969.96 1082.82 977.54 C 1082.10 980.17 1082.56 982.93 1082.62 985.62 C 1101.51 985.65 1120.41 985.72 1139.31 985.58 C 1139.33 983.20 1139.59 980.79 1139.05 978.46 C 1139.61 970.58 1139.31 962.66 1139.41 954.77 C 1120.41 954.75 1101.41 954.79 1082.42 954.76 M 1082.48 987.39 L 1082.41 987.38 C 1082.54 990.41 1082.48 993.45 1082.66 996.49 C 1082.59 997.17 1082.45 998.53 1082.37 999.21 C 1082.42 1000.56 1082.45 1001.92 1082.47 1003.30 C 1082.44 1005.19 1082.44 1007.09 1082.45 1009.00 C 1082.44 1009.72 1082.41 1011.16 1082.39 1011.87 L 1082.17 1011.88 C 1081.26 1014.54 1079.42 1016.68 1077.38 1018.57 C 1075.28 1019.20 1073.25 1020.26 1071.00 1020.11 C 1033.70 1020.08 996.40 1020.11 959.10 1020.09 C 959.14 1021.60 959.19 1023.13 959.31 1024.67 C 958.44 1033.31 959.44 1042.00 959.23 1050.67 C 1003.52 1050.58 1047.80 1050.66 1092.09 1050.63 C 1097.38 1050.59 1102.77 1050.96 1107.97 1049.70 C 1116.62 1047.76 1124.76 1042.95 1130.29 1035.99 C 1132.68 1032.94 1134.79 1029.68 1136.34 1026.13 C 1137.00 1024.15 1137.70 1022.19 1138.33 1020.22 C 1138.66 1018.15 1139.04 1016.10 1139.45 1014.06 C 1139.38 1012.34 1139.36 1010.63 1139.37 1008.94 C 1139.37 1007.05 1139.38 1005.18 1139.37 1003.31 C 1139.39 1002.47 1139.42 1000.77 1139.43 999.92 C 1139.43 998.72 1139.34 997.55 1139.18 996.41 C 1139.40 993.40 1139.26 990.38 1139.46 987.38 L 1139.36 987.39 L 1138.65 986.73 C 1121.45 986.44 1104.22 986.74 1087.02 986.59 C 1085.51 986.74 1083.61 986.06 1082.48 987.39 Z" />
</g>
<g id="#034693ff">
<path fill="#034693" opacity="1.00" d=" M 480.77 342.71 C 513.89 321.44 552.97 309.39 592.35 308.84 C 593.88 309.31 595.40 309.98 597.04 310.02 C 694.74 309.98 792.45 310.03 890.15 309.99 C 890.14 340.07 890.15 370.15 890.14 400.24 C 792.07 400.25 694.00 400.23 595.93 400.25 C 560.62 401.15 526.41 418.59 504.21 445.93 C 480.49 474.38 470.66 513.87 478.94 550.04 C 483.54 570.78 493.65 590.24 507.86 606.02 C 530.15 631.06 562.76 646.59 596.32 647.56 C 594.11 647.80 591.93 648.19 589.76 648.61 C 598.50 649.29 607.28 648.91 616.05 649.01 C 636.35 649.06 656.66 648.94 676.97 649.06 C 678.92 649.13 680.79 648.51 682.63 647.90 C 717.47 650.25 749.87 672.21 765.96 703.04 C 779.74 728.54 781.57 760.07 771.01 787.04 C 760.81 813.54 739.32 835.39 712.99 846.04 C 683.66 846.07 654.34 846.04 625.01 846.05 C 616.84 846.10 608.58 845.69 600.50 847.30 C 593.35 848.74 586.21 850.43 579.40 853.08 C 563.27 853.84 547.08 853.20 530.93 853.41 C 481.34 853.39 431.74 853.44 382.15 853.38 C 382.33 822.97 382.21 792.55 382.21 762.13 C 479.50 762.13 576.80 762.15 674.09 762.12 C 683.05 762.11 686.70 749.80 681.71 743.40 C 678.88 739.32 673.50 738.71 668.94 738.89 C 654.64 738.94 640.33 738.90 626.02 738.91 C 604.34 738.73 582.48 739.96 561.03 735.99 C 505.60 726.91 454.44 694.86 422.03 649.00 C 398.26 615.84 384.39 575.74 382.47 535.00 C 380.34 494.64 389.65 453.67 409.50 418.44 C 426.58 387.87 451.31 361.64 480.77 342.71 Z" />
<path fill="#034693" opacity="1.00" d=" M 575.52 423.26 C 584.19 421.34 593.10 420.59 601.98 420.83 C 698.04 420.83 794.09 420.82 890.15 420.83 C 890.20 452.05 890.03 483.26 890.23 514.48 C 886.17 514.71 882.10 514.60 878.04 514.61 C 784.70 514.62 691.36 514.59 598.02 514.62 C 592.36 514.59 587.32 520.28 588.52 525.93 C 589.07 531.54 594.45 535.63 599.96 535.38 C 625.64 535.35 651.32 535.38 677.00 535.36 C 715.93 535.70 754.76 546.65 787.90 567.14 C 814.01 583.19 836.67 604.88 853.69 630.39 C 871.18 656.23 882.74 686.04 887.51 716.88 C 894.44 760.58 887.57 806.34 868.03 846.06 C 828.92 846.00 789.81 846.14 750.70 845.99 C 758.66 839.16 766.04 831.63 772.21 823.14 C 788.94 800.54 797.67 772.06 796.05 743.97 C 794.58 716.21 783.19 689.18 764.58 668.56 C 742.10 643.21 708.95 627.38 674.97 626.89 C 656.32 626.92 637.67 626.90 619.03 626.91 C 607.67 626.81 596.28 627.30 584.96 626.09 C 546.37 621.54 512.01 593.17 499.85 556.32 C 491.80 533.11 492.83 506.95 502.49 484.38 C 515.25 453.93 543.20 430.30 575.52 423.26 Z" />
<path fill="#034693" opacity="1.00" d=" M 382.21 874.14 C 437.93 874.12 493.65 874.19 549.37 874.11 C 544.50 879.45 540.17 885.31 536.51 891.54 C 530.45 901.91 527.49 913.74 525.64 925.51 C 524.47 938.87 525.30 952.31 525.06 965.70 C 477.44 965.69 429.82 965.69 382.20 965.70 C 382.26 935.18 382.24 904.66 382.21 874.14 Z" />
</g>
<g id="#002982ff">
<path fill="#002982" opacity="1.00" d=" M 592.35 308.84 C 606.24 308.31 620.15 308.75 634.05 308.61 C 719.42 308.61 804.79 308.59 890.16 308.62 L 890.15 309.99 C 792.45 310.03 694.74 309.98 597.04 310.02 C 595.40 309.98 593.88 309.31 592.35 308.84 Z" />
</g>
<g id="#002c84ff">
<path fill="#002c84" opacity="1.00" d=" M 589.76 648.61 C 591.93 648.19 594.11 647.80 596.32 647.56 C 625.09 647.98 653.87 647.31 682.63 647.90 C 680.79 648.51 678.92 649.13 676.97 649.06 C 656.66 648.94 636.35 649.06 616.05 649.01 C 607.28 648.91 598.50 649.29 589.76 648.61 Z" />
</g>
<g id="#000000ff">
<path fill="#000000" opacity="1.00" d=" M 600.50 847.30 C 608.58 845.69 616.84 846.10 625.01 846.05 C 654.34 846.04 683.66 846.07 712.99 846.04 C 725.56 846.03 738.13 846.13 750.70 845.99 C 789.81 846.14 828.92 846.00 868.03 846.06 C 887.65 846.04 907.26 846.06 926.88 846.05 C 984.22 846.06 1041.57 846.05 1098.91 846.06 C 1109.57 846.29 1120.30 845.48 1130.92 846.72 C 1138.94 848.02 1146.92 849.85 1154.54 852.72 C 1180.77 863.52 1201.77 887.37 1207.40 915.40 C 1210.74 926.99 1209.83 939.13 1209.95 951.03 C 1209.94 969.01 1209.94 986.99 1209.94 1004.96 C 1209.81 1014.64 1210.55 1024.44 1208.47 1033.97 C 1206.69 1041.66 1205.01 1049.47 1201.51 1056.59 C 1192.78 1075.04 1177.62 1090.33 1159.24 1099.19 C 1151.65 1102.99 1143.31 1104.84 1135.07 1106.59 C 1126.14 1108.46 1116.98 1107.84 1107.93 1107.94 C 948.95 1107.95 789.97 1107.94 630.99 1107.94 C 620.36 1107.73 609.58 1108.71 599.10 1106.42 C 591.36 1104.75 583.53 1102.98 576.37 1099.48 C 555.63 1089.66 538.77 1071.67 530.81 1050.10 C 527.61 1040.02 524.97 1029.58 525.04 1018.93 C 525.07 1001.19 525.05 983.44 525.06 965.70 C 525.30 952.31 524.47 938.87 525.64 925.51 C 527.49 913.74 530.45 901.91 536.51 891.54 C 540.17 885.31 544.50 879.45 549.37 874.11 C 557.88 865.23 568.15 858.04 579.40 853.08 C 586.21 850.43 593.35 848.74 600.50 847.30 M 596.66 864.43 C 586.90 866.14 578.04 871.20 570.05 876.89 C 555.33 888.01 545.08 904.87 542.03 923.08 C 540.64 930.97 541.08 939.01 541.00 946.99 C 541.08 953.76 540.84 960.55 541.15 967.32 C 541.04 973.89 540.85 980.49 541.25 987.07 C 541.03 988.27 540.93 989.50 540.97 990.76 C 541.11 994.26 540.98 997.77 541.03 1001.29 C 540.94 1003.56 540.96 1005.85 541.11 1008.14 C 541.12 1010.17 541.08 1012.21 541.05 1014.26 C 541.07 1018.83 540.83 1023.43 541.51 1027.98 C 541.68 1029.38 541.91 1030.78 542.19 1032.19 L 542.46 1031.64 C 542.97 1037.70 545.12 1043.65 547.72 1049.15 C 556.75 1069.32 575.45 1084.78 596.95 1089.88 C 604.79 1091.97 612.94 1092.03 621.00 1091.94 C 782.32 1091.94 943.64 1091.94 1104.96 1091.94 C 1111.33 1091.89 1117.72 1092.03 1124.10 1091.86 C 1143.71 1091.16 1162.62 1081.84 1175.65 1067.25 C 1179.15 1063.08 1182.45 1058.72 1184.99 1053.89 C 1189.51 1045.54 1192.45 1036.34 1193.56 1026.91 C 1193.93 1022.80 1194.06 1018.66 1193.93 1014.54 C 1193.94 1012.14 1194.06 1009.74 1193.81 1007.36 C 1194.30 1000.49 1193.70 993.59 1193.91 986.71 C 1194.03 975.15 1193.90 963.60 1193.93 952.05 C 1193.78 939.35 1194.85 926.35 1190.93 914.06 L 1190.75 914.18 C 1183.69 888.87 1161.54 869.00 1135.96 863.57 C 1124.80 861.15 1113.32 862.34 1102.00 862.05 C 939.65 862.06 777.30 862.05 614.95 862.06 C 608.81 862.16 602.52 862.52 596.66 864.43 Z" />
<path fill="#000000" opacity="1.00" d=" M 586.71 907.14 C 594.21 899.16 605.10 894.72 616.03 894.91 C 783.68 894.90 951.33 894.90 1118.98 894.91 C 1129.41 894.73 1139.82 898.75 1147.27 906.10 C 1154.52 913.08 1158.83 922.98 1158.99 933.05 C 1159.21 947.47 1158.72 961.90 1159.10 976.33 C 1159.01 979.71 1159.03 983.10 1159.05 986.50 C 1159.04 987.93 1159.05 989.37 1159.07 990.82 C 1159.10 994.59 1159.01 998.36 1158.98 1002.14 C 1158.94 1004.40 1159.00 1006.67 1159.08 1008.95 C 1159.09 1010.61 1159.09 1012.29 1159.11 1013.97 C 1159.13 1018.39 1159.12 1022.82 1158.85 1027.25 C 1158.63 1030.03 1158.08 1032.78 1157.31 1035.48 C 1155.81 1040.38 1153.15 1044.83 1150.04 1048.88 C 1145.67 1054.43 1139.48 1058.27 1132.95 1060.75 C 1124.96 1063.81 1116.27 1062.67 1107.94 1062.89 C 951.95 1062.89 795.97 1062.89 639.99 1062.89 C 629.40 1062.64 618.76 1063.44 608.20 1062.36 C 594.82 1060.03 583.08 1050.26 578.39 1037.52 C 577.31 1034.57 576.52 1031.52 576.23 1028.41 C 575.87 1023.67 575.88 1018.92 575.91 1014.18 C 575.90 1012.53 575.89 1010.90 575.87 1009.27 C 576.22 1001.87 575.59 994.47 575.90 987.07 C 576.20 973.37 575.93 959.66 576.02 945.96 C 576.15 937.48 575.25 928.71 578.28 920.60 C 579.10 918.56 580.02 916.57 581.06 914.65 C 582.71 911.98 584.54 909.41 586.71 907.14 M 607.64 912.65 C 597.80 918.87 591.15 930.42 591.72 942.15 C 592.14 945.25 592.00 948.39 591.59 951.49 C 591.54 970.98 591.59 990.47 591.57 1009.96 C 591.27 1020.67 595.47 1031.38 602.75 1039.20 C 610.18 1047.40 620.99 1052.33 632.00 1052.91 C 688.02 1052.95 744.04 1052.89 800.06 1052.94 C 807.63 1053.13 815.28 1050.98 821.47 1046.57 C 826.95 1047.33 832.48 1046.84 837.99 1046.92 C 854.08 1046.89 870.17 1047.05 886.27 1046.90 C 886.26 1048.89 886.24 1050.90 886.24 1052.92 C 906.75 1052.92 927.26 1052.92 947.76 1052.92 C 947.74 1050.88 947.73 1048.86 947.74 1046.85 C 950.41 1046.87 953.10 1046.96 955.79 1047.13 C 955.92 1049.09 956.09 1051.09 956.74 1052.98 C 1003.49 1052.85 1050.24 1052.95 1096.99 1052.93 C 1105.50 1053.22 1114.13 1051.19 1121.40 1046.71 C 1133.50 1046.70 1143.99 1034.97 1143.03 1022.97 C 1142.76 992.63 1142.92 962.28 1142.99 931.94 C 1142.31 922.79 1135.01 912.94 1125.39 912.50 C 1117.82 907.71 1108.70 906.66 1099.93 907.08 C 1028.70 907.08 957.47 907.08 886.24 907.08 C 886.24 908.41 886.25 909.75 886.26 911.10 C 866.49 910.82 846.71 911.08 826.93 910.99 C 824.16 911.04 821.27 910.64 818.67 911.76 C 813.01 908.49 806.48 907.20 800.02 907.06 C 742.34 907.09 684.66 907.08 626.99 907.07 C 620.20 907.33 613.37 908.86 607.64 912.65 Z" />
</g>
<g id="#cecbd5ff">
<path fill="#cecbd5" opacity="1.00" d=" M 596.66 864.43 C 602.52 862.52 608.81 862.16 614.95 862.06 C 777.30 862.05 939.65 862.06 1102.00 862.05 C 1113.32 862.34 1124.80 861.15 1135.96 863.57 C 1135.67 864.71 1135.39 865.86 1135.13 867.02 C 1121.57 864.49 1107.75 865.36 1094.04 865.23 C 936.69 865.22 779.35 865.24 622.00 865.22 C 612.27 865.00 602.55 865.95 593.01 867.84 C 594.22 866.69 595.42 865.54 596.66 864.43 Z" />
</g>
<g id="#f8f7f9ff">
<path fill="#f8f7f9" opacity="1.00" d=" M 1135.96 863.57 C 1161.54 869.00 1183.69 888.87 1190.75 914.18 C 1189.77 914.90 1188.80 915.62 1187.84 916.36 C 1187.72 915.97 1187.49 915.18 1187.38 914.79 C 1184.89 906.68 1180.84 899.04 1175.55 892.42 C 1172.04 888.06 1168.28 883.85 1163.70 880.61 C 1155.37 874.03 1145.59 869.04 1135.13 867.02 C 1135.39 865.86 1135.67 864.71 1135.96 863.57 Z" />
</g>
<g id="#9790a7ff">
<path fill="#9790a7" opacity="1.00" d=" M 570.05 876.89 C 578.04 871.20 586.90 866.14 596.66 864.43 C 595.42 865.54 594.22 866.69 593.01 867.84 C 602.55 865.95 612.27 865.00 622.00 865.22 C 779.35 865.24 936.69 865.22 1094.04 865.23 C 1107.75 865.36 1121.57 864.49 1135.13 867.02 C 1145.59 869.04 1155.37 874.03 1163.70 880.61 C 1160.28 880.40 1157.50 877.81 1154.02 878.06 C 1028.32 878.03 902.62 878.16 776.92 878.00 C 764.62 877.56 752.32 878.39 740.02 877.91 C 725.35 878.44 710.68 877.73 696.01 878.08 C 680.67 878.28 665.32 877.63 649.98 878.11 C 633.32 878.09 616.65 877.64 599.99 878.14 C 592.16 877.78 584.20 879.00 576.50 877.15 C 574.56 877.68 572.91 878.98 571.20 879.99 C 570.81 878.95 570.42 877.91 570.05 876.89 Z" />
</g>
<g id="#a69db5ff">
<path fill="#a69db5" opacity="1.00" d=" M 571.20 879.99 C 572.91 878.98 574.56 877.68 576.50 877.15 C 584.20 879.00 592.16 877.78 599.99 878.14 C 616.65 877.64 633.32 878.09 649.98 878.11 C 665.32 877.63 680.67 878.28 696.01 878.08 C 710.68 877.73 725.35 878.44 740.02 877.91 C 752.32 878.39 764.62 877.56 776.92 878.00 C 902.62 878.16 1028.32 878.03 1154.02 878.06 C 1157.50 877.81 1160.28 880.40 1163.70 880.61 C 1168.28 883.85 1172.04 888.06 1175.55 892.42 C 1162.41 891.07 1149.18 892.15 1136.01 891.68 C 1130.99 891.32 1126.12 889.71 1121.06 889.75 C 956.38 889.75 791.70 889.77 627.02 889.74 C 621.43 889.83 615.83 889.54 610.25 889.87 C 609.85 890.32 609.04 891.21 608.63 891.65 L 608.57 891.65 C 604.77 890.37 600.86 891.85 597.00 891.78 C 586.68 891.76 576.36 891.70 566.05 891.79 C 564.09 891.93 562.32 891.10 560.68 890.17 C 563.75 886.37 566.98 882.57 571.20 879.99 Z" />
</g>
<g id="#8b8491ff">
<path fill="#8b8491" opacity="1.00" d=" M 542.03 923.08 C 545.08 904.87 555.33 888.01 570.05 876.89 C 570.42 877.91 570.81 878.95 571.20 879.99 C 566.98 882.57 563.75 886.37 560.68 890.17 C 556.34 895.56 552.57 901.45 549.90 907.85 C 547.49 913.98 545.56 920.34 544.90 926.92 C 543.47 937.05 544.55 947.30 544.00 957.48 C 542.37 952.73 542.85 947.69 542.58 942.78 C 541.07 950.88 542.43 959.18 541.15 967.32 C 540.84 960.55 541.08 953.76 541.00 946.99 C 541.08 939.01 540.64 930.97 542.03 923.08 Z" />
<path fill="#8b8491" opacity="1.00" d=" M 1147.27 906.10 C 1148.66 905.76 1150.07 905.44 1151.48 905.12 C 1153.24 907.10 1154.86 909.21 1156.36 911.40 C 1158.54 915.14 1159.99 919.24 1161.30 923.36 C 1161.53 924.22 1162.01 925.96 1162.24 926.83 C 1162.48 935.74 1162.34 944.67 1162.10 953.58 C 1159.45 947.38 1161.29 940.49 1160.53 933.99 C 1159.55 948.08 1160.59 962.28 1159.10 976.33 C 1158.72 961.90 1159.21 947.47 1158.99 933.05 C 1158.83 922.98 1154.52 913.08 1147.27 906.10 Z" />
</g>
<g id="#b5abc2ff">
<path fill="#b5abc2" opacity="1.00" d=" M 549.90 907.85 C 552.57 901.45 556.34 895.56 560.68 890.17 C 562.32 891.10 564.09 891.93 566.05 891.79 C 576.36 891.70 586.68 891.76 597.00 891.78 C 600.86 891.85 604.77 890.37 608.57 891.65 C 603.90 893.13 599.07 894.31 594.80 896.80 C 590.49 899.11 586.91 902.49 583.57 906.01 C 581.23 908.25 579.58 911.43 581.06 914.65 C 580.02 916.57 579.10 918.56 578.28 920.60 C 575.36 916.46 578.17 912.07 580.05 908.21 C 578.27 909.62 576.47 911.45 573.99 911.22 C 566.99 911.17 559.97 911.41 552.98 911.13 C 551.24 911.14 550.86 908.92 549.90 907.85 Z" />
</g>
<g id="#b6acc3ff">
<path fill="#b6acc3" opacity="1.00" d=" M 608.63 891.65 C 609.04 891.21 609.85 890.32 610.25 889.87 C 615.83 889.54 621.43 889.83 627.02 889.74 C 791.70 889.77 956.38 889.75 1121.06 889.75 C 1126.12 889.71 1130.99 891.32 1136.01 891.68 C 1149.18 892.15 1162.41 891.07 1175.55 892.42 C 1180.84 899.04 1184.89 906.68 1187.38 914.79 C 1187.29 915.22 1187.11 916.09 1187.02 916.52 C 1185.47 915.43 1184.04 913.84 1182.01 913.97 C 1175.66 913.63 1169.31 914.08 1162.97 913.91 C 1160.50 913.94 1158.52 912.33 1156.36 911.40 C 1154.86 909.21 1153.24 907.10 1151.48 905.12 C 1144.37 897.47 1134.39 892.42 1123.95 891.64 C 952.18 891.64 780.40 891.61 608.63 891.65 Z" />
</g>
<g id="#817a8cff">
<path fill="#817a8c" opacity="1.00" d=" M 594.80 896.80 C 599.07 894.31 603.90 893.13 608.57 891.65 L 608.63 891.65 C 780.40 891.61 952.18 891.64 1123.95 891.64 C 1134.39 892.42 1144.37 897.47 1151.48 905.12 C 1150.07 905.44 1148.66 905.76 1147.27 906.10 C 1139.82 898.75 1129.41 894.73 1118.98 894.91 C 951.33 894.90 783.68 894.90 616.03 894.91 C 605.10 894.72 594.21 899.16 586.71 907.14 C 585.65 906.75 584.61 906.38 583.57 906.01 C 586.91 902.49 590.49 899.11 594.80 896.80 Z" />
<path fill="#817a8c" opacity="1.00" d=" M 617.10 913.08 C 621.98 912.10 626.97 911.64 631.95 911.78 C 685.64 911.81 739.33 911.78 793.02 911.80 C 798.96 911.75 805.04 911.63 810.82 913.28 C 806.38 914.90 801.65 914.17 797.05 914.20 C 741.37 914.23 685.68 914.22 629.99 914.22 C 625.69 914.14 621.14 915.03 617.10 913.08 Z" />
</g>
<g id="#978fa0ff">
<path fill="#978fa0" opacity="1.00" d=" M 581.06 914.65 C 579.58 911.43 581.23 908.25 583.57 906.01 C 584.61 906.38 585.65 906.75 586.71 907.14 C 584.54 909.41 582.71 911.98 581.06 914.65 Z" />
</g>
<g id="#c4bacaff">
<path fill="#c4baca" opacity="1.00" d=" M 549.90 907.85 C 550.86 908.92 551.24 911.14 552.98 911.13 C 559.97 911.41 566.99 911.17 573.99 911.22 C 576.47 911.45 578.27 909.62 580.05 908.21 C 578.17 912.07 575.36 916.46 578.28 920.60 C 575.25 928.71 576.15 937.48 576.02 945.96 C 575.93 959.66 576.20 973.37 575.90 987.07 C 575.47 986.97 574.62 986.76 574.19 986.65 C 575.82 984.79 575.41 982.23 575.47 979.98 C 575.25 966.97 575.38 953.96 575.22 940.95 C 575.10 936.79 574.90 932.58 573.61 928.59 C 572.46 933.87 572.60 939.30 572.67 944.68 C 572.41 945.90 572.16 947.13 571.91 948.38 C 571.11 946.24 571.33 942.17 568.03 942.75 C 560.68 942.72 553.34 942.74 545.99 942.88 C 545.96 940.56 545.77 938.25 545.56 935.96 C 543.63 952.01 545.36 968.22 544.17 984.32 C 543.67 975.37 544.42 966.42 544.00 957.48 C 544.55 947.30 543.47 937.05 544.90 926.92 C 545.56 920.34 547.49 913.98 549.90 907.85 Z" />
</g>
<g id="#0e0708ff">
<path fill="#0e0708" opacity="1.00" d=" M 818.67 911.76 C 821.27 910.64 824.16 911.04 826.93 910.99 C 846.71 911.08 866.49 910.82 886.26 911.10 C 886.26 921.42 886.29 931.74 886.25 942.06 C 971.49 942.21 1056.73 942.06 1141.98 942.13 C 1141.24 938.12 1141.21 933.95 1139.61 930.15 C 1137.01 922.87 1131.75 916.77 1125.39 912.50 C 1135.01 912.94 1142.31 922.79 1142.99 931.94 C 1142.92 962.28 1142.76 992.63 1143.03 1022.97 C 1143.99 1034.97 1133.50 1046.70 1121.40 1046.71 C 1129.31 1041.91 1135.51 1034.44 1138.82 1025.81 C 1142.00 1017.95 1141.97 1009.31 1141.92 1000.97 C 1141.96 984.49 1141.85 968.01 1141.98 951.53 C 1121.45 951.48 1100.91 951.54 1080.38 951.50 C 1080.48 970.36 1080.37 989.23 1080.44 1008.10 C 1080.51 1012.27 1077.68 1016.55 1073.53 1017.57 C 1070.71 1018.11 1067.82 1017.83 1064.99 1017.89 C 1028.94 1017.86 992.88 1017.90 956.83 1017.87 C 956.74 1029.57 956.95 1041.28 956.74 1052.98 C 956.09 1051.09 955.92 1049.09 955.79 1047.13 C 953.10 1046.96 950.41 1046.87 947.74 1046.85 C 947.77 1015.07 947.67 983.30 947.79 951.53 C 927.26 951.50 906.74 951.50 886.22 951.52 C 886.33 983.31 886.23 1015.10 886.27 1046.90 C 870.17 1047.05 854.08 1046.89 837.99 1046.92 C 832.48 1046.84 826.95 1047.33 821.47 1046.57 C 830.75 1040.15 836.17 1029.06 836.45 1017.87 C 779.62 1017.91 722.80 1017.85 665.98 1017.90 C 663.13 1017.78 659.93 1018.37 657.46 1016.64 C 655.26 1015.16 653.15 1012.86 653.14 1010.07 C 653.20 990.55 653.15 971.03 653.17 951.51 C 632.64 951.50 612.12 951.53 591.59 951.49 C 592.00 948.39 592.14 945.25 591.72 942.15 C 673.30 942.09 754.88 942.11 836.45 942.14 C 836.06 929.86 829.54 917.80 818.67 911.76 Z" />
</g>
<g id="#c0b6c8ff">
<path fill="#c0b6c8" opacity="1.00" d=" M 1156.36 911.40 C 1158.52 912.33 1160.50 913.94 1162.97 913.91 C 1169.31 914.08 1175.66 913.63 1182.01 913.97 C 1184.04 913.84 1185.47 915.43 1187.02 916.52 C 1187.11 916.09 1187.29 915.22 1187.38 914.79 C 1187.49 915.18 1187.72 915.97 1187.84 916.36 C 1188.90 920.29 1189.54 924.32 1190.06 928.37 C 1182.00 925.54 1173.35 927.89 1165.07 926.78 C 1163.70 925.74 1162.69 924.34 1161.30 923.36 C 1159.99 919.24 1158.54 915.14 1156.36 911.40 Z" />
</g>
<g id="#8c879cff">
<path fill="#8c879c" opacity="1.00" d=" M 888.47 911.77 C 960.33 911.78 1032.18 911.79 1104.03 911.77 C 1115.09 911.44 1127.07 915.11 1133.67 924.53 C 1130.14 923.71 1128.02 919.66 1124.08 920.26 C 1046.27 920.35 968.45 920.16 890.64 920.35 C 889.98 922.71 889.28 925.07 888.68 927.46 C 888.47 922.23 888.50 917.00 888.47 911.77 Z" />
</g>
<g id="#8f899fff">
<path fill="#8f899f" opacity="1.00" d=" M 601.13 922.38 C 605.36 917.77 611.02 914.52 617.10 913.08 C 621.14 915.03 625.69 914.14 629.99 914.22 C 685.68 914.22 741.37 914.23 797.05 914.20 C 801.65 914.17 806.38 914.90 810.82 913.28 C 816.41 914.28 821.61 917.46 825.66 921.43 C 800.43 920.89 775.19 921.29 749.96 921.20 C 703.29 921.14 656.61 921.26 609.94 921.13 C 606.95 921.15 604.06 921.91 601.13 922.38 Z" />
</g>
<g id="#e9e3e8ff">
<path fill="#e9e3e8" opacity="1.00" d=" M 1190.75 914.18 L 1190.93 914.06 C 1194.85 926.35 1193.78 939.35 1193.93 952.05 C 1193.90 963.60 1194.03 975.15 1193.91 986.71 C 1192.79 986.55 1191.66 986.37 1190.57 986.25 C 1190.25 975.06 1191.47 963.86 1190.70 952.68 C 1190.73 945.71 1191.60 938.70 1190.45 931.78 C 1190.32 930.63 1190.19 929.49 1190.06 928.37 C 1189.54 924.32 1188.90 920.29 1187.84 916.36 C 1188.80 915.62 1189.77 914.90 1190.75 914.18 Z" />
</g>
<g id="#9f97aeff">
<path fill="#9f97ae" opacity="1.00" d=" M 890.64 920.35 C 968.45 920.16 1046.27 920.35 1124.08 920.26 C 1128.02 919.66 1130.14 923.71 1133.67 924.53 L 1134.04 924.66 C 1135.28 926.67 1136.54 928.71 1137.35 930.96 C 1137.26 931.37 1137.09 932.18 1137.01 932.58 C 1135.73 931.70 1134.65 930.24 1133.00 930.23 C 1109.68 929.43 1086.35 930.22 1063.03 929.83 C 1036.69 930.07 1010.34 929.66 984.00 930.07 C 959.66 929.98 935.29 929.63 910.94 930.00 C 904.93 930.56 898.92 929.66 892.92 929.89 C 890.74 929.70 889.61 931.68 888.55 933.21 C 888.54 931.28 888.39 929.35 888.68 927.46 C 889.28 925.07 889.98 922.71 890.64 920.35 Z" />
<path fill="#9f97ae" opacity="1.00" d=" M 601.13 922.38 C 604.06 921.91 606.95 921.15 609.94 921.13 C 656.61 921.26 703.29 921.14 749.96 921.20 C 775.19 921.29 800.43 920.89 825.66 921.43 L 825.93 921.43 C 828.92 925.00 831.73 928.97 832.58 933.65 C 831.24 932.50 829.94 931.30 828.70 930.06 C 821.47 929.42 814.22 930.09 806.98 929.95 C 794.32 929.58 781.67 930.17 769.02 929.97 C 755.01 930.01 741.00 929.58 726.99 930.08 C 713.01 929.33 699.01 930.52 685.03 929.88 C 676.67 929.50 668.31 930.48 659.96 929.88 C 646.98 929.87 633.99 929.61 621.02 930.10 C 613.07 929.84 605.11 929.42 597.20 930.52 C 597.04 930.17 596.70 929.48 596.53 929.14 C 597.74 926.68 599.34 924.44 601.13 922.38 Z" />
</g>
<g id="#c9bfccff">
<path fill="#c9bfcc" opacity="1.00" d=" M 1161.30 923.36 C 1162.69 924.34 1163.70 925.74 1165.07 926.78 C 1173.35 927.89 1182.00 925.54 1190.06 928.37 C 1190.19 929.49 1190.32 930.63 1190.45 931.78 C 1190.08 937.22 1190.00 942.68 1189.66 948.13 C 1189.22 946.50 1188.80 944.87 1188.41 943.26 C 1180.39 942.67 1172.34 943.60 1164.33 942.82 C 1163.75 937.47 1163.92 932.00 1162.24 926.83 C 1162.01 925.96 1161.53 924.22 1161.30 923.36 Z" />
</g>
<g id="#d4cad2ff">
<path fill="#d4cad2" opacity="1.00" d=" M 1162.24 926.83 C 1163.92 932.00 1163.75 937.47 1164.33 942.82 C 1172.34 943.60 1180.39 942.67 1188.41 943.26 C 1188.80 944.87 1189.22 946.50 1189.66 948.13 C 1190.00 942.68 1190.08 937.22 1190.45 931.78 C 1191.60 938.70 1190.73 945.71 1190.70 952.68 C 1189.77 958.44 1189.82 964.28 1189.67 970.09 C 1189.28 968.46 1188.90 966.82 1188.54 965.20 C 1180.54 964.39 1172.50 965.31 1164.49 964.73 C 1164.22 961.30 1163.78 957.86 1162.45 954.67 C 1162.36 954.40 1162.19 953.85 1162.10 953.58 C 1162.34 944.67 1162.48 935.74 1162.24 926.83 Z" />
<path fill="#d4cad2" opacity="1.00" d=" M 594.11 962.67 C 594.51 963.67 594.97 964.70 595.43 965.72 C 595.74 965.11 596.36 963.89 596.67 963.28 C 600.12 962.92 603.60 962.91 607.07 963.04 C 620.66 963.19 634.25 962.95 647.83 963.18 C 648.73 964.21 649.63 965.24 650.55 966.31 C 650.63 969.91 650.48 973.52 650.55 977.13 C 649.65 976.13 648.83 975.10 647.83 974.25 C 643.60 973.51 639.30 974.10 635.04 974.05 C 622.43 974.01 609.81 973.97 597.20 974.02 C 596.57 974.88 595.95 975.75 595.33 976.64 C 594.92 976.04 594.52 975.46 594.14 974.88 C 593.57 970.84 593.78 966.72 594.11 962.67 Z" />
<path fill="#d4cad2" opacity="1.00" d=" M 890.65 963.31 C 897.41 962.79 904.20 963.22 910.98 963.11 C 921.77 963.24 932.58 962.77 943.36 963.33 C 944.03 964.66 944.71 965.99 945.35 967.37 C 945.72 971.00 945.42 974.67 945.28 978.33 C 944.66 976.95 944.00 975.62 943.35 974.29 C 934.58 973.60 925.76 974.15 916.97 974.05 C 908.17 974.42 899.36 973.39 890.59 974.29 C 889.94 975.64 889.29 977.01 888.72 978.41 C 888.57 974.71 888.29 971.00 888.66 967.32 C 889.27 965.95 889.96 964.63 890.65 963.31 Z" />
</g>
<g id="#f2ededff">
<path fill="#f2eded" opacity="1.00" d=" M 573.61 928.59 C 574.90 932.58 575.10 936.79 575.22 940.95 C 575.38 953.96 575.25 966.97 575.47 979.98 C 575.41 982.23 575.82 984.79 574.19 986.65 L 572.69 986.33 C 571.65 972.46 574.30 958.52 572.67 944.68 C 572.60 939.30 572.46 933.87 573.61 928.59 Z" />
</g>
<g id="#b1a7c0ff">
<path fill="#b1a7c0" opacity="1.00" d=" M 593.96 939.85 C 594.10 936.14 595.01 932.52 596.53 929.14 C 596.70 929.48 597.04 930.17 597.20 930.52 C 605.11 929.42 613.07 929.84 621.02 930.10 C 633.99 929.61 646.98 929.87 659.96 929.88 C 668.31 930.48 676.67 929.50 685.03 929.88 C 699.01 930.52 713.01 929.33 726.99 930.08 C 741.00 929.58 755.01 930.01 769.02 929.97 C 781.67 930.17 794.32 929.58 806.98 929.95 C 814.22 930.09 821.47 929.42 828.70 930.06 C 829.94 931.30 831.24 932.50 832.58 933.65 C 833.78 935.38 833.57 937.79 833.91 939.84 C 753.93 939.85 673.94 939.83 593.96 939.85 Z" />
<path fill="#b1a7c0" opacity="1.00" d=" M 888.55 933.21 C 889.61 931.68 890.74 929.70 892.92 929.89 C 898.92 929.66 904.93 930.56 910.94 930.00 C 935.29 929.63 959.66 929.98 984.00 930.07 C 1010.34 929.66 1036.69 930.07 1063.03 929.83 C 1086.35 930.22 1109.68 929.43 1133.00 930.23 C 1134.65 930.24 1135.73 931.70 1137.01 932.58 C 1137.09 932.18 1137.26 931.37 1137.35 930.96 C 1138.54 933.82 1139.24 936.85 1139.42 939.95 C 1055.81 939.73 972.19 939.84 888.58 939.90 C 888.52 937.66 888.40 935.43 888.55 933.21 Z" />
</g>
<g id="#a3998eff">
<path fill="#a3998e" opacity="1.00" d=" M 1159.10 976.33 C 1160.59 962.28 1159.55 948.08 1160.53 933.99 C 1161.29 940.49 1159.45 947.38 1162.10 953.58 C 1162.19 953.85 1162.36 954.40 1162.45 954.67 C 1162.26 965.08 1162.24 975.50 1162.20 985.91 C 1171.65 986.18 1181.14 985.50 1190.57 986.25 C 1191.66 986.37 1192.79 986.55 1193.91 986.71 C 1193.70 993.59 1194.30 1000.49 1193.81 1007.36 C 1192.78 1004.68 1191.55 1002.06 1190.67 999.33 C 1190.67 996.42 1190.69 993.51 1190.69 990.61 C 1190.67 989.51 1190.67 988.42 1190.68 987.35 C 1180.15 986.97 1169.47 988.30 1159.05 986.50 C 1159.03 983.10 1159.01 979.71 1159.10 976.33 Z" />
</g>
<g id="#ddd3d6ff">
<path fill="#ddd3d6" opacity="1.00" d=" M 544.17 984.32 C 545.36 968.22 543.63 952.01 545.56 935.96 C 545.77 938.25 545.96 940.56 545.99 942.88 C 545.96 946.22 545.99 949.58 546.23 952.92 C 554.29 953.70 562.41 952.88 570.49 953.31 C 570.75 955.60 571.04 957.89 571.39 960.19 C 572.31 956.31 572.14 952.31 571.91 948.38 C 572.16 947.13 572.41 945.90 572.67 944.68 C 574.30 958.52 571.65 972.46 572.69 986.33 C 563.23 985.44 553.67 986.26 544.17 985.94 C 544.17 985.54 544.17 984.72 544.17 984.32 Z" />
</g>
<g id="#a39a9dff">
<path fill="#a39a9d" opacity="1.00" d=" M 541.15 967.32 C 542.43 959.18 541.07 950.88 542.58 942.78 C 542.85 947.69 542.37 952.73 544.00 957.48 C 544.42 966.42 543.67 975.37 544.17 984.32 C 544.17 984.72 544.17 985.54 544.17 985.94 C 553.67 986.26 563.23 985.44 572.69 986.33 L 574.19 986.65 C 574.62 986.76 575.47 986.97 575.90 987.07 C 575.59 994.47 576.22 1001.87 575.87 1009.27 C 574.72 1006.04 573.50 1002.83 572.64 999.52 C 572.64 996.45 572.69 993.40 572.67 990.35 C 572.67 989.59 572.66 988.08 572.65 987.32 C 564.45 987.39 556.26 987.31 548.06 987.38 C 545.77 987.48 543.51 986.41 541.25 987.07 C 540.85 980.49 541.04 973.89 541.15 967.32 Z" />
</g>
<g id="#d1c7d0ff">
<path fill="#d1c7d0" opacity="1.00" d=" M 545.99 942.88 C 553.34 942.74 560.68 942.72 568.03 942.75 C 571.33 942.17 571.11 946.24 571.91 948.38 C 572.14 952.31 572.31 956.31 571.39 960.19 C 571.04 957.89 570.75 955.60 570.49 953.31 C 562.41 952.88 554.29 953.70 546.23 952.92 C 545.99 949.58 545.96 946.22 545.99 942.88 Z" />
</g>
<g id="#e0d6d8ff">
<path fill="#e0d6d8" opacity="1.00" d=" M 1189.67 970.09 C 1189.82 964.28 1189.77 958.44 1190.70 952.68 C 1191.47 963.86 1190.25 975.06 1190.57 986.25 C 1181.14 985.50 1171.65 986.18 1162.20 985.91 C 1162.24 975.50 1162.26 965.08 1162.45 954.67 C 1163.78 957.86 1164.22 961.30 1164.49 964.73 C 1172.50 965.31 1180.54 964.39 1188.54 965.20 C 1188.90 966.82 1189.28 968.46 1189.67 970.09 Z" />
</g>
<g id="#cac0cdff">
<path fill="#cac0cd" opacity="1.00" d=" M 593.86 954.83 C 612.77 954.72 631.68 954.80 650.59 954.79 C 650.60 958.62 650.52 962.46 650.55 966.31 C 649.63 965.24 648.73 964.21 647.83 963.18 C 634.25 962.95 620.66 963.19 607.07 963.04 C 603.60 962.91 600.12 962.92 596.67 963.28 C 596.36 963.89 595.74 965.11 595.43 965.72 C 594.97 964.70 594.51 963.67 594.11 962.67 C 593.59 960.08 593.87 957.43 593.86 954.83 Z" />
</g>
<g id="#cbc1cdff">
<path fill="#cbc1cd" opacity="1.00" d=" M 888.51 954.79 C 907.51 954.77 926.51 954.76 945.51 954.80 C 945.52 958.98 945.54 963.18 945.35 967.37 C 944.71 965.99 944.03 964.66 943.36 963.33 C 932.58 962.77 921.77 963.24 910.98 963.11 C 904.20 963.22 897.41 962.79 890.65 963.31 C 889.96 964.63 889.27 965.95 888.66 967.32 C 888.47 963.14 888.48 958.96 888.51 954.79 Z" />
</g>
<g id="#cdc3ceff">
<path fill="#cdc3ce" opacity="1.00" d=" M 1082.42 954.76 C 1101.41 954.79 1120.41 954.75 1139.41 954.77 C 1139.31 962.66 1139.61 970.58 1139.05 978.46 C 1138.23 975.11 1137.76 971.69 1137.56 968.26 C 1119.88 968.05 1102.18 968.09 1084.50 968.26 C 1084.26 971.40 1083.74 974.52 1082.82 977.54 C 1082.24 969.96 1082.48 962.35 1082.42 954.76 Z" />
</g>
<g id="#dcd2d6ff">
<path fill="#dcd2d6" opacity="1.00" d=" M 1084.50 968.26 C 1102.18 968.09 1119.88 968.05 1137.56 968.26 C 1137.76 971.69 1138.23 975.11 1139.05 978.46 C 1139.59 980.79 1139.33 983.20 1139.31 985.58 C 1120.41 985.72 1101.51 985.65 1082.62 985.62 C 1082.56 982.93 1082.10 980.17 1082.82 977.54 C 1083.74 974.52 1084.26 971.40 1084.50 968.26 Z" />
</g>
<g id="#dfd5d8ff">
<path fill="#dfd5d8" opacity="1.00" d=" M 595.33 976.64 C 595.95 975.75 596.57 974.88 597.20 974.02 C 609.81 973.97 622.43 974.01 635.04 974.05 C 639.30 974.10 643.60 973.51 647.83 974.25 C 648.83 975.10 649.65 976.13 650.55 977.13 C 650.57 979.94 650.56 982.75 650.44 985.58 C 631.83 985.88 613.21 985.48 594.60 985.79 C 593.32 982.29 593.84 978.49 594.14 974.88 C 594.52 975.46 594.92 976.04 595.33 976.64 Z" />
<path fill="#dfd5d8" opacity="1.00" d=" M 890.59 974.29 C 899.36 973.39 908.17 974.42 916.97 974.05 C 925.76 974.15 934.58 973.60 943.35 974.29 C 944.00 975.62 944.66 976.95 945.28 978.33 C 945.67 980.70 945.42 983.14 945.42 985.55 C 926.49 985.77 907.55 985.77 888.62 985.55 C 888.57 983.16 888.29 980.76 888.72 978.41 C 889.29 977.01 889.94 975.64 890.59 974.29 Z" />
</g>
<g id="#a79e9bff">
<path fill="#a79e9b" opacity="1.00" d=" M 593.64 987.51 C 594.22 986.72 595.00 986.41 595.98 986.57 C 613.89 986.76 631.83 986.42 649.74 986.73 L 650.54 987.39 C 631.59 987.79 612.61 987.56 593.64 987.51 Z" />
<path fill="#a79e9b" opacity="1.00" d=" M 888.33 987.46 C 889.14 986.17 890.75 986.70 891.99 986.58 C 909.51 986.72 927.05 986.49 944.57 986.68 C 944.84 986.87 945.39 987.25 945.66 987.44 C 926.56 987.72 907.44 987.68 888.33 987.46 Z" />
</g>
<g id="#a79e9aff">
<path fill="#a79e9a" opacity="1.00" d=" M 1082.48 987.39 C 1083.61 986.06 1085.51 986.74 1087.02 986.59 C 1104.22 986.74 1121.45 986.44 1138.65 986.73 L 1139.36 987.39 C 1120.41 987.72 1101.43 987.72 1082.48 987.39 Z" />
</g>
<g id="#221910ff">
<path fill="#221910" opacity="1.00" d=" M 541.25 987.07 C 543.51 986.41 545.77 987.48 548.06 987.38 C 556.26 987.31 564.45 987.39 572.65 987.32 C 572.66 988.08 572.67 989.59 572.67 990.35 C 563.08 990.40 553.48 990.04 543.90 990.48 C 543.16 990.55 541.70 990.69 540.97 990.76 C 540.93 989.50 541.03 988.27 541.25 987.07 Z" />
<path fill="#221910" opacity="1.00" d=" M 650.54 987.39 L 650.59 987.39 C 650.46 990.42 650.46 993.47 650.38 996.53 C 650.14 996.05 649.67 995.09 649.43 994.61 C 649.26 992.83 649.18 991.08 649.10 989.32 C 630.69 989.27 612.28 989.42 593.87 989.26 L 593.64 987.51 C 612.61 987.56 631.59 987.79 650.54 987.39 Z" />
<path fill="#221910" opacity="1.00" d=" M 1082.41 987.38 L 1082.48 987.39 C 1101.43 987.72 1120.41 987.72 1139.36 987.39 L 1139.46 987.38 C 1139.26 990.38 1139.40 993.40 1139.18 996.41 C 1139.02 995.91 1138.71 994.91 1138.55 994.41 C 1138.29 992.70 1138.16 991.01 1138.03 989.32 C 1119.99 989.34 1101.96 989.30 1083.92 989.33 C 1083.79 991.03 1083.65 992.72 1083.45 994.43 C 1083.25 994.94 1082.86 995.98 1082.66 996.49 C 1082.48 993.45 1082.54 990.41 1082.41 987.38 Z" />
<path fill="#221910" opacity="1.00" d=" M 1159.05 986.50 C 1169.47 988.30 1180.15 986.97 1190.68 987.35 C 1190.67 988.42 1190.67 989.51 1190.69 990.61 C 1185.48 990.13 1180.24 990.28 1175.02 990.32 C 1170.66 990.39 1166.27 989.73 1161.94 990.39 C 1161.22 990.49 1159.79 990.71 1159.07 990.82 C 1159.05 989.37 1159.04 987.93 1159.05 986.50 Z" />
</g>
<g id="#1f150cff">
<path fill="#1f150c" opacity="1.00" d=" M 888.33 987.46 C 907.44 987.68 926.56 987.72 945.66 987.44 L 945.47 989.45 C 926.49 989.19 907.51 989.21 888.53 989.44 L 888.33 987.46 Z" />
</g>
<g id="#563f31ff">
<path fill="#563f31" opacity="1.00" d=" M 593.87 989.26 C 612.28 989.42 630.69 989.27 649.10 989.32 C 649.18 991.08 649.26 992.83 649.43 994.61 C 630.89 994.60 612.33 994.86 593.80 994.49 C 593.83 992.72 593.85 990.99 593.87 989.26 Z" />
<path fill="#563f31" opacity="1.00" d=" M 888.53 989.44 C 907.51 989.21 926.49 989.19 945.47 989.45 C 945.48 991.16 945.47 992.86 945.49 994.60 C 926.50 994.46 907.50 994.45 888.51 994.61 C 888.49 992.86 888.51 991.16 888.53 989.44 Z" />
<path fill="#563f31" opacity="1.00" d=" M 1083.92 989.33 C 1101.96 989.30 1119.99 989.34 1138.03 989.32 C 1138.16 991.01 1138.29 992.70 1138.55 994.41 C 1120.18 994.63 1101.81 994.58 1083.45 994.43 C 1083.65 992.72 1083.79 991.03 1083.92 989.33 Z" />
</g>
<g id="#553f32ff">
<path fill="#553f32" opacity="1.00" d=" M 543.90 990.48 C 553.48 990.04 563.08 990.40 572.67 990.35 C 572.69 993.40 572.64 996.45 572.64 999.52 C 572.60 1002.00 572.58 1004.50 572.60 1007.00 L 572.56 1007.47 C 572.19 1004.82 571.74 1002.20 571.26 999.59 C 562.50 999.25 553.74 999.62 544.99 999.38 C 544.25 1001.60 543.85 1003.89 543.66 1006.23 C 542.79 1006.84 541.95 1007.48 541.11 1008.14 C 540.96 1005.85 540.94 1003.56 541.03 1001.29 C 545.03 999.10 544.34 994.29 543.90 990.48 Z" />
<path fill="#553f32" opacity="1.00" d=" M 1161.94 990.39 C 1166.27 989.73 1170.66 990.39 1175.02 990.32 C 1180.24 990.28 1185.48 990.13 1190.69 990.61 C 1190.69 993.51 1190.67 996.42 1190.67 999.33 C 1190.56 1000.04 1190.36 1001.45 1190.25 1002.16 C 1189.53 1000.99 1188.82 999.85 1188.13 998.71 C 1179.71 998.67 1171.29 998.50 1162.89 998.83 C 1162.17 1001.28 1161.87 1003.82 1161.69 1006.37 C 1161.16 1007.51 1159.96 1008.12 1159.08 1008.95 C 1159.00 1006.67 1158.94 1004.40 1158.98 1002.14 C 1162.42 999.15 1162.68 994.60 1161.94 990.39 Z" />
</g>
<g id="#3e2e25ff">
<path fill="#3e2e25" opacity="1.00" d=" M 540.97 990.76 C 541.70 990.69 543.16 990.55 543.90 990.48 C 544.34 994.29 545.03 999.10 541.03 1001.29 C 540.98 997.77 541.11 994.26 540.97 990.76 Z" />
</g>
<g id="#3e2e24ff">
<path fill="#3e2e24" opacity="1.00" d=" M 1159.07 990.82 C 1159.79 990.71 1161.22 990.49 1161.94 990.39 C 1162.68 994.60 1162.42 999.15 1158.98 1002.14 C 1159.01 998.36 1159.10 994.59 1159.07 990.82 Z" />
</g>
<g id="#896f5bff">
<path fill="#896f5b" opacity="1.00" d=" M 593.80 994.49 C 612.33 994.86 630.89 994.60 649.43 994.61 C 649.67 995.09 650.14 996.05 650.38 996.53 L 650.56 996.88 C 650.56 997.82 650.55 999.69 650.54 1000.63 C 645.82 999.03 640.82 999.69 635.95 999.61 C 624.31 999.58 612.68 999.64 601.04 999.56 C 598.73 999.52 596.43 999.77 594.23 1000.44 C 593.94 998.46 593.80 996.47 593.80 994.49 Z" />
</g>
<g id="#7e6350ff">
<path fill="#7e6350" opacity="1.00" d=" M 888.51 994.61 C 907.50 994.45 926.50 994.46 945.49 994.60 C 945.48 995.98 945.47 997.36 945.49 998.76 C 926.50 998.48 907.50 998.53 888.52 998.74 C 888.50 997.34 888.50 995.97 888.51 994.61 Z" />
</g>
<g id="#7f6451ff">
<path fill="#7f6451" opacity="1.00" d=" M 1083.45 994.43 C 1101.81 994.58 1120.18 994.63 1138.55 994.41 C 1138.71 994.91 1139.02 995.91 1139.18 996.41 C 1139.34 997.55 1139.43 998.72 1139.43 999.92 C 1138.02 999.23 1136.60 998.45 1134.99 998.59 C 1121.34 998.62 1107.68 998.63 1094.03 998.61 C 1090.13 998.53 1086.21 998.48 1082.37 999.21 C 1082.45 998.53 1082.59 997.17 1082.66 996.49 C 1082.86 995.98 1083.25 994.94 1083.45 994.43 Z" />
</g>
<g id="#b49b79ff">
<path fill="#b49b79" opacity="1.00" d=" M 888.52 998.74 C 907.50 998.53 926.50 998.48 945.49 998.76 C 945.47 1000.29 945.47 1001.83 945.48 1003.39 C 926.50 1003.62 907.51 1003.61 888.53 1003.39 C 888.51 1001.83 888.51 1000.28 888.52 998.74 Z" />
<path fill="#b49b79" opacity="1.00" d=" M 1082.37 999.21 C 1086.21 998.48 1090.13 998.53 1094.03 998.61 C 1107.68 998.63 1121.34 998.62 1134.99 998.59 C 1136.60 998.45 1138.02 999.23 1139.43 999.92 C 1139.42 1000.77 1139.39 1002.47 1139.37 1003.31 C 1120.41 1003.66 1101.43 1003.68 1082.47 1003.30 C 1082.45 1001.92 1082.42 1000.56 1082.37 999.21 Z" />
</g>
<g id="#7c624eff">
<path fill="#7c624e" opacity="1.00" d=" M 544.99 999.38 C 553.74 999.62 562.50 999.25 571.26 999.59 C 571.74 1002.20 572.19 1004.82 572.56 1007.47 C 571.66 1006.55 570.77 1005.64 569.89 1004.75 C 564.25 1004.46 558.61 1004.76 552.97 1004.62 C 549.81 1004.61 546.36 1004.24 543.66 1006.23 C 543.85 1003.89 544.25 1001.60 544.99 999.38 Z" />
</g>
<g id="#715543ff">
<path fill="#715543" opacity="1.00" d=" M 1162.89 998.83 C 1171.29 998.50 1179.71 998.67 1188.13 998.71 C 1188.82 999.85 1189.53 1000.99 1190.25 1002.16 C 1190.17 1002.70 1190.00 1003.80 1189.91 1004.34 C 1181.27 1002.04 1172.15 1004.74 1163.44 1002.67 C 1162.86 1003.90 1162.28 1005.13 1161.69 1006.37 C 1161.87 1003.82 1162.17 1001.28 1162.89 998.83 Z" />
</g>
<g id="#dfd1baff">
<path fill="#dfd1ba" opacity="1.00" d=" M 572.64 999.52 C 573.50 1002.83 574.72 1006.04 575.87 1009.27 C 575.89 1010.90 575.90 1012.53 575.91 1014.18 C 574.92 1014.35 573.93 1014.53 572.95 1014.71 C 572.79 1012.14 572.67 1009.56 572.60 1007.00 C 572.58 1004.50 572.60 1002.00 572.64 999.52 Z" />
</g>
<g id="#cab286ff">
<path fill="#cab286" opacity="1.00" d=" M 594.23 1000.44 C 596.43 999.77 598.73 999.52 601.04 999.56 C 612.68 999.64 624.31 999.58 635.95 999.61 C 640.82 999.69 645.82 999.03 650.54 1000.63 C 650.55 1001.28 650.58 1002.59 650.59 1003.24 C 631.68 1003.57 612.77 1003.35 593.86 1003.35 C 593.95 1002.63 594.14 1001.17 594.23 1000.44 Z" />
</g>
<g id="#947965ff">
<path fill="#947965" opacity="1.00" d=" M 1190.25 1002.16 C 1190.36 1001.45 1190.56 1000.04 1190.67 999.33 C 1191.02 1001.83 1191.18 1004.38 1190.88 1006.91 C 1190.60 1007.76 1190.31 1008.61 1190.03 1009.48 C 1180.85 1009.48 1171.68 1009.36 1162.51 1009.49 C 1162.40 1010.93 1162.29 1012.38 1162.21 1013.85 C 1171.66 1014.53 1181.27 1014.67 1190.72 1013.64 C 1190.74 1014.19 1190.77 1015.30 1190.79 1015.86 L 1190.17 1015.85 C 1180.99 1015.75 1171.77 1016.79 1162.62 1015.72 C 1161.42 1015.14 1160.27 1014.56 1159.11 1013.97 C 1159.09 1012.29 1159.09 1010.61 1159.08 1008.95 C 1159.96 1008.12 1161.16 1007.51 1161.69 1006.37 C 1162.28 1005.13 1162.86 1003.90 1163.44 1002.67 C 1172.15 1004.74 1181.27 1002.04 1189.91 1004.34 C 1190.00 1003.80 1190.17 1002.70 1190.25 1002.16 Z" />
<path fill="#947965" opacity="1.00" d=" M 543.66 1006.23 C 546.36 1004.24 549.81 1004.61 552.97 1004.62 C 558.61 1004.76 564.25 1004.46 569.89 1004.75 C 570.77 1005.64 571.66 1006.55 572.56 1007.47 C 572.47 1007.98 572.29 1009.01 572.19 1009.52 C 562.94 1009.40 553.68 1009.45 544.42 1009.43 C 544.35 1010.84 544.24 1012.27 544.34 1013.72 C 546.28 1014.99 548.82 1013.99 551.00 1014.01 C 555.35 1013.35 559.69 1014.58 564.05 1014.28 C 567.02 1014.14 570.16 1013.21 572.95 1014.71 C 572.83 1017.34 572.69 1019.98 572.60 1022.63 L 572.56 1023.44 L 572.53 1022.02 C 572.42 1019.93 572.29 1017.84 572.20 1015.76 C 563.01 1016.18 553.74 1016.44 544.59 1015.68 C 543.40 1015.21 542.22 1014.74 541.05 1014.26 C 541.08 1012.21 541.12 1010.17 541.11 1008.14 C 541.95 1007.48 542.79 1006.84 543.66 1006.23 Z" />
</g>
<g id="#d8cab4ff">
<path fill="#d8cab4" opacity="1.00" d=" M 1190.67 999.33 C 1191.55 1002.06 1192.78 1004.68 1193.81 1007.36 C 1194.06 1009.74 1193.94 1012.14 1193.93 1014.54 C 1193.16 1015.28 1192.41 1016.04 1191.68 1016.81 C 1191.46 1018.60 1191.24 1020.43 1190.76 1022.19 C 1190.88 1020.07 1190.85 1017.96 1190.79 1015.86 C 1190.77 1015.30 1190.74 1014.19 1190.72 1013.64 C 1190.66 1011.39 1190.73 1009.14 1190.88 1006.91 C 1191.18 1004.38 1191.02 1001.83 1190.67 999.33 Z" />
</g>
<g id="#735a49ff">
<path fill="#735a49" opacity="1.00" d=" M 593.86 1003.35 C 612.77 1003.35 631.68 1003.57 650.59 1003.24 C 650.57 1005.34 650.50 1007.44 650.38 1009.55 C 649.69 1008.54 649.00 1007.55 648.30 1006.58 C 630.15 1006.34 612.00 1006.69 593.85 1006.45 C 593.85 1005.67 593.85 1004.13 593.86 1003.35 Z" />
<path fill="#735a49" opacity="1.00" d=" M 888.53 1003.39 C 907.51 1003.61 926.50 1003.62 945.48 1003.39 C 945.47 1005.19 945.46 1007.00 945.46 1008.83 C 939.15 1006.83 932.50 1007.78 926.02 1007.63 C 921.97 1007.51 917.94 1007.74 913.92 1008.08 C 905.49 1007.80 896.82 1006.55 888.54 1008.81 C 888.52 1006.99 888.52 1005.19 888.53 1003.39 Z" />
<path fill="#735a49" opacity="1.00" d=" M 1082.47 1003.30 C 1101.43 1003.68 1120.41 1003.66 1139.37 1003.31 C 1139.38 1005.18 1139.37 1007.05 1139.37 1008.94 C 1135.33 1007.90 1131.14 1007.06 1127.00 1007.97 C 1123.34 1008.81 1119.69 1007.78 1116.04 1007.71 C 1104.89 1008.69 1093.36 1005.79 1082.45 1009.00 C 1082.44 1007.09 1082.44 1005.19 1082.47 1003.30 Z" />
</g>
<g id="#937259ff">
<path fill="#937259" opacity="1.00" d=" M 593.85 1006.45 C 612.00 1006.69 630.15 1006.34 648.30 1006.58 C 649.00 1007.55 649.69 1008.54 650.38 1009.55 C 650.19 1009.82 649.82 1010.35 649.63 1010.61 C 631.02 1010.46 612.41 1010.77 593.81 1010.44 C 593.82 1009.09 593.83 1007.76 593.85 1006.45 Z" />
</g>
<g id="#c7af84ff">
<path fill="#c7af84" opacity="1.00" d=" M 572.56 1007.47 L 572.60 1007.00 C 572.67 1009.56 572.79 1012.14 572.95 1014.71 C 570.16 1013.21 567.02 1014.14 564.05 1014.28 C 559.69 1014.58 555.35 1013.35 551.00 1014.01 C 548.82 1013.99 546.28 1014.99 544.34 1013.72 C 544.24 1012.27 544.35 1010.84 544.42 1009.43 C 553.68 1009.45 562.94 1009.40 572.19 1009.52 C 572.29 1009.01 572.47 1007.98 572.56 1007.47 Z" />
<path fill="#c7af84" opacity="1.00" d=" M 1190.03 1009.48 C 1190.31 1008.61 1190.60 1007.76 1190.88 1006.91 C 1190.73 1009.14 1190.66 1011.39 1190.72 1013.64 C 1181.27 1014.67 1171.66 1014.53 1162.21 1013.85 C 1162.29 1012.38 1162.40 1010.93 1162.51 1009.49 C 1171.68 1009.36 1180.85 1009.48 1190.03 1009.48 Z" />
</g>
<g id="#a78362ff">
<path fill="#a78362" opacity="1.00" d=" M 888.54 1008.81 C 896.82 1006.55 905.49 1007.80 913.92 1008.08 C 917.94 1007.74 921.97 1007.51 926.02 1007.63 C 932.50 1007.78 939.15 1006.83 945.46 1008.83 C 945.45 1010.48 945.48 1012.16 945.54 1013.84 C 943.83 1012.89 942.00 1012.10 940.01 1012.27 C 924.66 1012.34 909.30 1012.33 893.95 1012.25 C 891.95 1012.07 890.13 1012.90 888.46 1013.88 C 888.50 1012.18 888.52 1010.49 888.54 1008.81 Z" />
</g>
<g id="#a78363ff">
<path fill="#a78363" opacity="1.00" d=" M 1082.45 1009.00 C 1093.36 1005.79 1104.89 1008.69 1116.04 1007.71 C 1119.69 1007.78 1123.34 1008.81 1127.00 1007.97 C 1131.14 1007.06 1135.33 1007.90 1139.37 1008.94 C 1139.36 1010.63 1139.38 1012.34 1139.45 1014.06 C 1137.86 1012.81 1136.13 1011.53 1134.00 1011.77 C 1116.80 1011.86 1099.59 1011.67 1082.39 1011.87 C 1082.41 1011.16 1082.44 1009.72 1082.45 1009.00 Z" />
</g>
<g id="#bb9774ff">
<path fill="#bb9774" opacity="1.00" d=" M 650.38 1009.55 L 650.77 1009.00 C 650.81 1012.77 652.86 1016.12 655.72 1018.46 C 635.44 1019.63 615.03 1017.52 594.80 1019.70 C 594.24 1016.64 593.70 1013.55 593.81 1010.44 C 612.41 1010.77 631.02 1010.46 649.63 1010.61 C 649.82 1010.35 650.19 1009.82 650.38 1009.55 Z" />
<path fill="#bb9774" opacity="1.00" d=" M 1082.17 1011.88 L 1082.39 1011.87 C 1099.59 1011.67 1116.80 1011.86 1134.00 1011.77 C 1136.13 1011.53 1137.86 1012.81 1139.45 1014.06 C 1139.04 1016.10 1138.66 1018.15 1138.33 1020.22 C 1137.63 1019.26 1136.95 1018.31 1136.29 1017.38 C 1124.22 1016.90 1112.12 1017.32 1100.05 1017.20 C 1092.49 1017.42 1084.74 1016.31 1077.38 1018.57 C 1079.42 1016.68 1081.26 1014.54 1082.17 1011.88 Z" />
</g>
<g id="#bf9e7aff">
<path fill="#bf9e7a" opacity="1.00" d=" M 888.46 1013.88 C 890.13 1012.90 891.95 1012.07 893.95 1012.25 C 909.30 1012.33 924.66 1012.34 940.01 1012.27 C 942.00 1012.10 943.83 1012.89 945.54 1013.84 C 945.49 1016.84 945.44 1019.85 945.51 1022.86 C 942.15 1020.44 937.89 1021.37 934.04 1021.26 C 920.01 1021.50 905.98 1020.81 891.96 1021.35 C 890.67 1021.46 889.61 1022.31 888.49 1022.85 C 888.56 1019.85 888.51 1016.86 888.46 1013.88 Z" />
</g>
<g id="#b6a69bff">
<path fill="#b6a69b" opacity="1.00" d=" M 572.95 1014.71 C 573.93 1014.53 574.92 1014.35 575.91 1014.18 C 575.88 1018.92 575.87 1023.67 576.23 1028.41 C 575.05 1027.16 573.87 1025.93 572.74 1024.66 C 572.71 1024.16 572.63 1023.14 572.60 1022.63 C 572.69 1019.98 572.83 1017.34 572.95 1014.71 Z" />
</g>
<g id="#5d4839ff">
<path fill="#5d4839" opacity="1.00" d=" M 1159.11 1013.97 C 1160.27 1014.56 1161.42 1015.14 1162.62 1015.72 C 1162.47 1017.74 1162.27 1019.74 1162.03 1021.77 C 1161.85 1023.01 1161.69 1024.27 1161.54 1025.55 C 1160.62 1026.10 1159.73 1026.67 1158.85 1027.25 C 1159.12 1022.82 1159.13 1018.39 1159.11 1013.97 Z" />
</g>
<g id="#594638ff">
<path fill="#594638" opacity="1.00" d=" M 541.05 1014.26 C 542.22 1014.74 543.40 1015.21 544.59 1015.68 C 544.28 1018.21 544.34 1020.92 543.05 1023.21 C 542.18 1024.66 541.64 1026.27 541.51 1027.98 C 540.83 1023.43 541.07 1018.83 541.05 1014.26 Z" />
</g>
<g id="#b3a194ff">
<path fill="#b3a194" opacity="1.00" d=" M 1191.68 1016.81 C 1192.41 1016.04 1193.16 1015.28 1193.93 1014.54 C 1194.06 1018.66 1193.93 1022.80 1193.56 1026.91 C 1192.34 1026.58 1191.13 1026.26 1189.93 1025.94 C 1190.01 1025.51 1190.18 1024.64 1190.26 1024.21 C 1190.39 1023.70 1190.64 1022.69 1190.76 1022.19 C 1191.24 1020.43 1191.46 1018.60 1191.68 1016.81 Z" />
</g>
<g id="#745947ff">
<path fill="#745947" opacity="1.00" d=" M 544.59 1015.68 C 553.74 1016.44 563.01 1016.18 572.20 1015.76 C 572.29 1017.84 572.42 1019.93 572.53 1022.02 C 570.90 1020.90 569.09 1019.99 567.05 1020.22 C 559.74 1020.35 552.43 1020.23 545.11 1020.23 C 545.03 1021.51 544.96 1022.80 544.90 1024.11 C 544.83 1025.76 544.81 1027.43 544.82 1029.11 C 544.82 1029.72 544.83 1030.93 544.83 1031.54 C 544.21 1031.18 543.61 1030.84 543.01 1030.52 C 542.87 1030.80 542.60 1031.36 542.46 1031.64 L 542.19 1032.19 C 541.91 1030.78 541.68 1029.38 541.51 1027.98 C 541.64 1026.27 542.18 1024.66 543.05 1023.21 C 544.34 1020.92 544.28 1018.21 544.59 1015.68 Z" />
</g>
<g id="#745948ff">
<path fill="#745948" opacity="1.00" d=" M 1162.62 1015.72 C 1171.77 1016.79 1180.99 1015.75 1190.17 1015.85 C 1190.11 1017.65 1190.07 1019.46 1190.05 1021.28 C 1187.16 1020.09 1184.05 1019.64 1180.95 1019.93 C 1175.62 1020.29 1170.28 1019.81 1164.97 1020.18 C 1163.75 1020.14 1162.95 1021.16 1162.03 1021.77 C 1162.27 1019.74 1162.47 1017.74 1162.62 1015.72 Z" />
</g>
<g id="#856752ff">
<path fill="#856752" opacity="1.00" d=" M 1190.17 1015.85 L 1190.79 1015.86 C 1190.85 1017.96 1190.88 1020.07 1190.76 1022.19 C 1190.64 1022.69 1190.39 1023.70 1190.26 1024.21 C 1181.19 1024.13 1172.10 1024.17 1163.06 1023.54 C 1162.68 1025.70 1162.35 1027.88 1161.97 1030.05 C 1161.51 1032.50 1160.84 1034.91 1160.09 1037.30 C 1159.39 1036.85 1158.01 1035.93 1157.31 1035.48 C 1158.08 1032.78 1158.63 1030.03 1158.85 1027.25 C 1159.73 1026.67 1160.62 1026.10 1161.54 1025.55 C 1161.69 1024.27 1161.85 1023.01 1162.03 1021.77 C 1162.95 1021.16 1163.75 1020.14 1164.97 1020.18 C 1170.28 1019.81 1175.62 1020.29 1180.95 1019.93 C 1184.05 1019.64 1187.16 1020.09 1190.05 1021.28 C 1190.07 1019.46 1190.11 1017.65 1190.17 1015.85 Z" />
</g>
<g id="#c7a986ff">
<path fill="#c7a986" opacity="1.00" d=" M 1077.38 1018.57 C 1084.74 1016.31 1092.49 1017.42 1100.05 1017.20 C 1112.12 1017.32 1124.22 1016.90 1136.29 1017.38 C 1136.95 1018.31 1137.63 1019.26 1138.33 1020.22 C 1137.70 1022.19 1137.00 1024.15 1136.34 1026.13 C 1135.00 1025.24 1133.77 1023.84 1132.03 1023.96 C 1110.34 1024.54 1088.62 1023.93 1066.92 1024.22 C 1032.60 1024.14 998.27 1024.24 963.95 1024.21 C 961.78 1023.86 960.67 1025.79 959.50 1027.21 C 959.45 1026.57 959.35 1025.30 959.31 1024.67 C 959.19 1023.13 959.14 1021.60 959.10 1020.09 C 996.40 1020.11 1033.70 1020.08 1071.00 1020.11 C 1073.25 1020.26 1075.28 1019.20 1077.38 1018.57 Z" />
</g>
<g id="#cdb28eff">
<path fill="#cdb28e" opacity="1.00" d=" M 594.80 1019.70 C 615.03 1017.52 635.44 1019.63 655.72 1018.46 C 657.81 1018.98 659.76 1020.23 662.01 1020.03 C 719.34 1020.06 776.68 1019.93 834.00 1020.09 C 833.77 1024.05 832.44 1027.82 831.14 1031.54 C 830.55 1030.48 829.98 1029.42 829.42 1028.38 C 754.27 1028.12 679.12 1028.40 603.98 1028.24 C 602.04 1028.05 600.29 1028.85 598.70 1029.86 C 597.14 1026.57 595.68 1023.23 594.80 1019.70 Z" />
</g>
<g id="#8a6c55ff">
<path fill="#8a6c55" opacity="1.00" d=" M 545.11 1020.23 C 552.43 1020.23 559.74 1020.35 567.05 1020.22 C 569.09 1019.99 570.90 1020.90 572.53 1022.02 L 572.56 1023.44 C 572.52 1024.04 572.44 1025.25 572.40 1025.85 C 569.70 1023.76 566.20 1024.23 563.02 1024.22 C 556.98 1024.30 550.94 1024.37 544.90 1024.11 C 544.96 1022.80 545.03 1021.51 545.11 1020.23 Z" />
</g>
<g id="#d2b995ff">
<path fill="#d2b995" opacity="1.00" d=" M 888.49 1022.85 C 889.61 1022.31 890.67 1021.46 891.96 1021.35 C 905.98 1020.81 920.01 1021.50 934.04 1021.26 C 937.89 1021.37 942.15 1020.44 945.51 1022.86 C 945.48 1027.01 945.45 1031.16 945.39 1035.32 C 944.72 1034.32 944.05 1033.35 943.38 1032.40 C 925.77 1032.28 908.15 1032.29 890.53 1032.41 C 889.87 1033.34 889.23 1034.28 888.61 1035.25 C 888.54 1031.11 888.51 1026.98 888.49 1022.85 Z" />
</g>
<g id="#bd9976ff">
<path fill="#bd9976" opacity="1.00" d=" M 572.56 1023.44 L 572.60 1022.63 C 572.63 1023.14 572.71 1024.16 572.74 1024.66 C 572.90 1029.80 573.49 1034.99 575.43 1039.80 C 576.10 1041.36 576.85 1042.89 577.66 1044.41 C 568.29 1040.64 558.02 1044.36 548.44 1041.76 C 546.86 1037.72 546.23 1033.43 545.62 1029.17 C 554.41 1029.51 563.21 1029.01 572.00 1029.53 C 572.13 1028.29 572.26 1027.07 572.40 1025.85 C 572.44 1025.25 572.52 1024.04 572.56 1023.44 Z" />
</g>
<g id="#a17e61ff">
<path fill="#a17e61" opacity="1.00" d=" M 1163.06 1023.54 C 1172.10 1024.17 1181.19 1024.13 1190.26 1024.21 C 1190.18 1024.64 1190.01 1025.51 1189.93 1025.94 C 1189.69 1027.52 1189.54 1029.12 1189.33 1030.72 C 1186.26 1028.65 1182.45 1029.29 1178.98 1029.25 C 1173.75 1029.46 1168.53 1029.22 1163.34 1028.62 C 1163.00 1028.98 1162.32 1029.70 1161.97 1030.05 C 1162.35 1027.88 1162.68 1025.70 1163.06 1023.54 Z" />
<path fill="#a17e61" opacity="1.00" d=" M 544.90 1024.11 C 550.94 1024.37 556.98 1024.30 563.02 1024.22 C 566.20 1024.23 569.70 1023.76 572.40 1025.85 C 572.26 1027.07 572.13 1028.29 572.00 1029.53 C 563.21 1029.01 554.41 1029.51 545.62 1029.17 L 544.82 1029.11 C 544.81 1027.43 544.83 1025.76 544.90 1024.11 Z" />
</g>
<g id="#d6be9aff">
<path fill="#d6be9a" opacity="1.00" d=" M 959.50 1027.21 C 960.67 1025.79 961.78 1023.86 963.95 1024.21 C 998.27 1024.24 1032.60 1024.14 1066.92 1024.22 C 1088.62 1023.93 1110.34 1024.54 1132.03 1023.96 C 1133.77 1023.84 1135.00 1025.24 1136.34 1026.13 C 1134.79 1029.68 1132.68 1032.94 1130.29 1035.99 C 1128.94 1035.17 1127.69 1033.98 1126.05 1033.91 C 1120.69 1033.31 1115.33 1034.22 1109.97 1034.18 C 1099.99 1033.73 1090.00 1034.71 1080.03 1033.94 C 1063.03 1034.23 1046.00 1034.55 1029.01 1033.79 C 1019.66 1033.55 1010.33 1034.47 1000.98 1034.24 C 989.65 1033.91 978.31 1033.84 966.98 1033.73 C 964.50 1033.54 962.18 1034.45 959.99 1035.46 C 959.88 1032.70 959.73 1029.95 959.50 1027.21 Z" />
<path fill="#d6be9a" opacity="1.00" d=" M 1150.04 1048.88 C 1150.13 1049.64 1150.31 1051.16 1150.39 1051.92 C 1150.85 1051.73 1151.76 1051.36 1152.22 1051.17 C 1161.66 1053.09 1171.31 1053.21 1180.89 1052.60 C 1180.72 1053.88 1180.54 1055.16 1180.37 1056.46 C 1178.72 1058.71 1176.85 1060.76 1175.00 1062.84 C 1171.37 1063.54 1167.75 1064.59 1164.02 1064.34 C 1156.68 1064.02 1149.33 1064.65 1142.02 1063.94 C 1139.00 1063.54 1135.99 1065.04 1133.04 1063.91 C 1134.17 1063.53 1135.38 1063.22 1136.55 1062.86 C 1135.33 1062.14 1134.13 1061.44 1132.95 1060.75 C 1139.48 1058.27 1145.67 1054.43 1150.04 1048.88 Z" />
</g>
<g id="#eee5dcff">
<path fill="#eee5dc" opacity="1.00" d=" M 572.74 1024.66 C 573.87 1025.93 575.05 1027.16 576.23 1028.41 C 576.52 1031.52 577.31 1034.57 578.39 1037.52 C 577.39 1038.26 576.41 1039.03 575.43 1039.80 C 573.49 1034.99 572.90 1029.80 572.74 1024.66 Z" />
</g>
<g id="#e6d4b0ff">
<path fill="#e6d4b0" opacity="1.00" d=" M 959.31 1024.67 C 959.35 1025.30 959.45 1026.57 959.50 1027.21 C 959.73 1029.95 959.88 1032.70 959.99 1035.46 C 962.18 1034.45 964.50 1033.54 966.98 1033.73 C 978.31 1033.84 989.65 1033.91 1000.98 1034.24 C 1010.33 1034.47 1019.66 1033.55 1029.01 1033.79 C 1046.00 1034.55 1063.03 1034.23 1080.03 1033.94 C 1090.00 1034.71 1099.99 1033.73 1109.97 1034.18 C 1115.33 1034.22 1120.69 1033.31 1126.05 1033.91 C 1127.69 1033.98 1128.94 1035.17 1130.29 1035.99 C 1124.76 1042.95 1116.62 1047.76 1107.97 1049.70 C 1102.77 1050.96 1097.38 1050.59 1092.09 1050.63 C 1047.80 1050.66 1003.52 1050.58 959.23 1050.67 C 959.44 1042.00 958.44 1033.31 959.31 1024.67 Z" />
</g>
<g id="#c9ad8aff">
<path fill="#c9ad8a" opacity="1.00" d=" M 1189.93 1025.94 C 1191.13 1026.26 1192.34 1026.58 1193.56 1026.91 C 1192.45 1036.34 1189.51 1045.54 1184.99 1053.89 C 1184.44 1053.80 1183.36 1053.64 1182.82 1053.56 C 1181.98 1054.51 1181.15 1055.46 1180.37 1056.46 C 1180.54 1055.16 1180.72 1053.88 1180.89 1052.60 C 1171.31 1053.21 1161.66 1053.09 1152.22 1051.17 C 1154.57 1047.95 1156.97 1044.71 1158.75 1041.12 C 1167.71 1042.60 1176.83 1041.01 1185.81 1042.39 C 1187.74 1038.77 1188.78 1034.76 1189.33 1030.72 C 1189.54 1029.12 1189.69 1027.52 1189.93 1025.94 Z" />
</g>
<g id="#decaa6ff">
<path fill="#decaa6" opacity="1.00" d=" M 598.70 1029.86 C 600.29 1028.85 602.04 1028.05 603.98 1028.24 C 679.12 1028.40 754.27 1028.12 829.42 1028.38 C 829.98 1029.42 830.55 1030.48 831.14 1031.54 C 829.28 1035.44 826.70 1038.98 823.56 1041.95 C 818.88 1040.30 813.90 1040.76 809.05 1040.78 C 754.68 1040.76 700.32 1040.77 645.95 1040.77 C 634.54 1040.98 623.10 1040.35 611.70 1041.06 C 611.44 1041.85 611.18 1042.65 610.93 1043.46 C 606.01 1039.78 601.73 1035.22 598.70 1029.86 Z" />
</g>
<g id="#bc9976ff">
<path fill="#bc9976" opacity="1.00" d=" M 1163.34 1028.62 C 1168.53 1029.22 1173.75 1029.46 1178.98 1029.25 C 1182.45 1029.29 1186.26 1028.65 1189.33 1030.72 C 1188.78 1034.76 1187.74 1038.77 1185.81 1042.39 C 1176.83 1041.01 1167.71 1042.60 1158.75 1041.12 C 1159.21 1039.84 1159.66 1038.58 1160.09 1037.30 C 1160.84 1034.91 1161.51 1032.50 1161.97 1030.05 C 1162.32 1029.70 1163.00 1028.98 1163.34 1028.62 Z" />
</g>
<g id="#8c755bff">
<path fill="#8c755b" opacity="1.00" d=" M 544.82 1029.11 L 545.62 1029.17 C 546.23 1033.43 546.86 1037.72 548.44 1041.76 C 549.62 1044.93 550.98 1048.04 552.44 1051.11 C 552.09 1051.23 551.39 1051.49 551.04 1051.61 C 550.18 1050.13 549.33 1048.67 548.47 1047.21 C 548.28 1047.70 547.91 1048.67 547.72 1049.15 C 545.12 1043.65 542.97 1037.70 542.46 1031.64 C 542.60 1031.36 542.87 1030.80 543.01 1030.52 C 543.61 1030.84 544.21 1031.18 544.83 1031.54 C 544.83 1030.93 544.82 1029.72 544.82 1029.11 Z" />
</g>
<g id="#e5d4b0ff">
<path fill="#e5d4b0" opacity="1.00" d=" M 890.53 1032.41 C 908.15 1032.29 925.77 1032.28 943.38 1032.40 C 944.05 1033.35 944.72 1034.32 945.39 1035.32 C 945.78 1040.40 945.34 1045.53 945.44 1050.64 C 926.47 1050.62 907.51 1050.67 888.54 1050.62 C 888.67 1045.49 888.23 1040.35 888.61 1035.25 C 889.23 1034.28 889.87 1033.34 890.53 1032.41 Z" />
</g>
<g id="#907a60ff">
<path fill="#907a60" opacity="1.00" d=" M 1150.04 1048.88 C 1153.15 1044.83 1155.81 1040.38 1157.31 1035.48 C 1158.01 1035.93 1159.39 1036.85 1160.09 1037.30 C 1159.66 1038.58 1159.21 1039.84 1158.75 1041.12 C 1156.97 1044.71 1154.57 1047.95 1152.22 1051.17 C 1151.76 1051.36 1150.85 1051.73 1150.39 1051.92 C 1150.31 1051.16 1150.13 1049.64 1150.04 1048.88 Z" />
</g>
<g id="#fcfaf8ff">
<path fill="#fcfaf8" opacity="1.00" d=" M 575.43 1039.80 C 576.41 1039.03 577.39 1038.26 578.39 1037.52 C 583.08 1050.26 594.82 1060.03 608.20 1062.36 C 608.30 1062.99 608.50 1064.24 608.60 1064.87 C 607.33 1064.94 606.07 1065.01 604.82 1065.09 C 598.26 1063.52 592.39 1060.13 586.99 1056.20 C 583.34 1052.74 580.09 1048.83 577.66 1044.41 C 576.85 1042.89 576.10 1041.36 575.43 1039.80 Z" />
</g>
<g id="#cbaf8bff">
<path fill="#cbaf8b" opacity="1.00" d=" M 548.44 1041.76 C 558.02 1044.36 568.29 1040.64 577.66 1044.41 C 580.09 1048.83 583.34 1052.74 586.99 1056.20 C 583.85 1055.71 581.26 1053.30 577.99 1053.58 C 570.70 1053.50 563.41 1053.92 556.14 1053.45 C 555.31 1052.59 554.51 1051.75 553.68 1050.96 C 553.51 1050.95 553.18 1050.93 553.02 1050.92 L 552.44 1051.11 C 550.98 1048.04 549.62 1044.93 548.44 1041.76 Z" />
</g>
<g id="#e7d6b2ff">
<path fill="#e7d6b2" opacity="1.00" d=" M 611.70 1041.06 C 623.10 1040.35 634.54 1040.98 645.95 1040.77 C 700.32 1040.77 754.68 1040.76 809.05 1040.78 C 813.90 1040.76 818.88 1040.30 823.56 1041.95 C 817.76 1047.35 809.93 1050.63 801.98 1050.65 C 746.00 1050.66 690.02 1050.64 634.04 1050.66 C 625.83 1050.74 617.68 1048.08 610.93 1043.46 C 611.18 1042.65 611.44 1041.85 611.70 1041.06 Z" />
</g>
<g id="#a6987eff">
<path fill="#a6987e" opacity="1.00" d=" M 548.47 1047.21 C 549.33 1048.67 550.18 1050.13 551.04 1051.61 C 551.39 1051.49 552.09 1051.23 552.44 1051.11 L 553.02 1050.92 C 563.29 1071.30 584.25 1085.89 607.01 1088.07 C 615.28 1089.19 623.63 1088.69 631.95 1088.79 C 787.94 1088.79 943.93 1088.79 1099.92 1088.79 C 1112.50 1088.68 1125.26 1089.54 1137.61 1086.58 C 1151.05 1083.24 1163.45 1075.81 1172.76 1065.55 C 1173.48 1065.98 1174.92 1066.83 1175.65 1067.25 C 1162.62 1081.84 1143.71 1091.16 1124.10 1091.86 C 1117.72 1092.03 1111.33 1091.89 1104.96 1091.94 C 943.64 1091.94 782.32 1091.94 621.00 1091.94 C 612.94 1092.03 604.79 1091.97 596.95 1089.88 C 575.45 1084.78 556.75 1069.32 547.72 1049.15 C 547.91 1048.67 548.28 1047.70 548.47 1047.21 Z" />
</g>
<g id="#e2cfacff">
<path fill="#e2cfac" opacity="1.00" d=" M 553.02 1050.92 C 553.18 1050.93 553.51 1050.95 553.68 1050.96 C 554.51 1051.75 555.31 1052.59 556.14 1053.45 C 563.41 1053.92 570.70 1053.50 577.99 1053.58 C 581.26 1053.30 583.85 1055.71 586.99 1056.20 C 592.39 1060.13 598.26 1063.52 604.82 1065.09 C 610.06 1066.72 615.61 1065.95 621.01 1066.06 C 786.01 1066.06 951.00 1066.00 1116.00 1066.09 C 1121.78 1066.47 1127.48 1065.41 1133.04 1063.91 C 1135.99 1065.04 1139.00 1063.54 1142.02 1063.94 C 1149.33 1064.65 1156.68 1064.02 1164.02 1064.34 C 1167.75 1064.59 1171.37 1063.54 1175.00 1062.84 C 1174.24 1063.73 1173.49 1064.64 1172.76 1065.55 C 1163.45 1075.81 1151.05 1083.24 1137.61 1086.58 C 1125.26 1089.54 1112.50 1088.68 1099.92 1088.79 C 943.93 1088.79 787.94 1088.79 631.95 1088.79 C 623.63 1088.69 615.28 1089.19 607.01 1088.07 C 584.25 1085.89 563.29 1071.30 553.02 1050.92 Z" />
</g>
<g id="#b09e81ff">
<path fill="#b09e81" opacity="1.00" d=" M 1182.82 1053.56 C 1183.36 1053.64 1184.44 1053.80 1184.99 1053.89 C 1182.45 1058.72 1179.15 1063.08 1175.65 1067.25 C 1174.92 1066.83 1173.48 1065.98 1172.76 1065.55 C 1173.49 1064.64 1174.24 1063.73 1175.00 1062.84 C 1176.85 1060.76 1178.72 1058.71 1180.37 1056.46 C 1181.15 1055.46 1181.98 1054.51 1182.82 1053.56 Z" />
</g>
<g id="#efe6d6ff">
<path fill="#efe6d6" opacity="1.00" d=" M 1107.94 1062.89 C 1116.27 1062.67 1124.96 1063.81 1132.95 1060.75 C 1134.13 1061.44 1135.33 1062.14 1136.55 1062.86 C 1135.38 1063.22 1134.17 1063.53 1133.04 1063.91 C 1127.48 1065.41 1121.78 1066.47 1116.00 1066.09 C 951.00 1066.00 786.01 1066.06 621.01 1066.06 C 615.61 1065.95 610.06 1066.72 604.82 1065.09 C 606.07 1065.01 607.33 1064.94 608.60 1064.87 C 608.50 1064.24 608.30 1062.99 608.20 1062.36 C 618.76 1063.44 629.40 1062.64 639.99 1062.89 C 795.97 1062.89 951.95 1062.89 1107.94 1062.89 Z" />
</g>
</svg>
