<?xml version="1.0" encoding="UTF-8" ?>
<!DOCTYPE svg PUBLIC "-//W3C//DTD SVG 1.1//EN" "http://www.w3.org/Graphics/SVG/1.1/DTD/svg11.dtd">
<svg width="1276pt" height="1276pt" viewBox="0 0 1276 1276" version="1.1" xmlns="http://www.w3.org/2000/svg">
<g id="#ffffffff">
<path fill="#ffffff" opacity="1.00" d=" M 494.97 255.95 C 496.26 255.49 497.58 254.96 498.99 255.05 C 594.98 255.06 690.98 255.05 786.97 255.06 C 826.39 254.30 865.61 265.29 899.94 284.42 C 924.98 298.06 947.46 316.23 966.45 337.44 C 985.28 358.51 1000.29 382.87 1011.34 408.85 C 1021.58 432.66 1027.78 458.15 1030.08 483.95 C 1031.34 495.26 1030.86 506.65 1030.95 518.01 C 1030.95 604.33 1030.94 690.65 1030.95 776.97 C 1029.93 799.68 1026.16 822.32 1019.15 843.96 C 1005.83 884.62 982.69 922.18 951.57 951.63 C 922.64 978.85 887.33 999.48 849.08 1010.40 C 827.63 1016.56 805.26 1019.00 783.00 1018.95 C 653.75 1018.94 524.51 1019.00 395.26 1018.79 C 395.41 1010.98 395.20 1003.16 395.40 995.35 C 374.13 1015.51 342.36 1023.64 314.03 1016.12 C 283.30 1008.40 257.89 982.90 250.37 952.11 C 246.89 939.35 247.91 926.04 247.77 912.98 C 247.77 881.28 247.78 849.58 247.77 817.88 C 255.86 817.97 263.95 817.67 272.03 818.06 C 260.92 807.13 252.61 793.18 249.48 777.84 C 247.14 767.72 247.88 757.30 247.77 747.01 C 247.78 712.11 247.76 677.20 247.78 642.30 C 255.15 642.34 262.53 642.29 269.90 642.34 C 256.21 628.16 247.90 608.74 247.76 588.97 C 247.78 550.00 247.77 511.03 247.77 472.06 C 283.47 472.11 319.17 471.95 354.87 472.17 C 332.02 463.96 308.82 456.70 285.89 448.69 C 270.59 442.85 257.76 430.96 250.62 416.23 C 242.82 400.49 241.87 381.54 247.86 365.05 C 254.43 346.59 269.70 331.47 288.29 325.23 C 341.25 307.54 394.22 289.86 447.18 272.15 C 463.13 266.80 479.14 261.64 494.97 255.95 M 477.01 280.72 C 416.05 301.28 355.09 321.83 294.13 342.38 C 282.83 346.48 273.13 354.82 267.36 365.37 C 262.22 374.63 260.44 385.63 262.16 396.07 C 264.27 409.73 272.65 422.37 284.66 429.30 C 288.66 431.77 293.15 433.22 297.61 434.61 C 340.61 449.24 383.61 463.88 426.62 478.52 C 437.15 482.28 447.93 485.43 458.33 489.54 L 457.61 489.83 C 448.41 489.39 439.20 489.70 429.99 489.61 C 399.84 489.60 369.69 489.63 339.53 489.59 C 339.61 517.65 339.56 545.70 339.56 573.76 C 349.53 573.69 359.50 573.68 369.47 573.76 C 369.41 555.44 369.54 537.12 369.40 518.79 C 396.42 518.57 423.46 518.77 450.48 518.70 C 450.38 542.13 450.54 565.57 450.40 589.00 C 449.95 603.86 436.73 616.67 421.95 617.10 C 389.96 617.26 357.97 617.11 325.99 617.17 C 317.56 617.31 309.10 613.89 303.40 607.64 C 298.72 602.87 296.22 596.44 295.26 589.91 C 295.43 556.22 295.26 522.51 295.34 488.81 L 293.88 488.82 C 284.41 488.79 274.93 488.87 265.46 488.78 C 265.38 522.54 265.45 556.30 265.43 590.06 C 265.75 614.78 283.45 637.88 307.05 645.03 C 317.34 648.61 328.33 647.64 339.02 647.75 C 366.35 647.75 393.69 647.74 421.02 647.76 C 436.18 647.83 451.26 641.70 462.09 631.09 C 472.31 621.32 479.12 607.72 480.04 593.57 C 480.54 589.71 480.33 585.82 480.36 581.96 C 480.36 543.62 480.36 505.28 480.36 466.94 C 480.48 465.31 479.62 464.39 477.77 464.19 C 419.21 444.22 360.75 423.92 302.21 403.87 C 298.91 402.79 295.64 401.25 293.36 398.55 C 287.65 392.36 287.85 381.78 293.72 375.77 C 297.41 371.75 302.97 370.76 307.89 369.01 C 355.39 352.95 402.99 337.13 450.47 320.99 C 450.47 347.48 450.38 373.96 450.51 400.44 C 460.47 400.37 470.43 400.40 480.39 400.43 C 480.33 360.13 480.34 319.83 480.39 279.53 C 479.26 279.93 478.13 280.33 477.01 280.72 M 527.97 301.28 C 527.95 331.71 527.92 362.15 527.98 392.59 C 610.01 392.57 692.03 392.59 774.06 392.58 C 793.65 392.10 813.67 396.21 830.69 406.17 C 841.54 412.20 851.54 419.94 859.64 429.37 C 878.41 450.30 888.56 478.12 890.04 506.01 C 889.96 588.67 890.03 671.32 890.01 753.98 C 889.80 760.51 890.51 767.09 889.48 773.57 C 886.87 804.68 872.40 835.12 848.39 855.38 C 833.65 867.55 815.92 876.54 796.91 879.48 C 786.37 881.55 775.61 880.83 764.94 880.95 C 685.81 880.93 606.68 880.99 527.55 880.92 C 527.44 911.40 527.48 941.88 527.53 972.36 C 609.68 972.28 691.83 972.35 773.99 972.33 C 785.01 972.21 796.07 972.80 807.05 971.42 C 848.54 966.98 887.52 947.12 917.87 918.85 C 943.72 894.61 962.69 863.42 973.78 829.85 C 980.82 807.64 983.96 784.23 983.51 760.96 C 983.51 683.97 983.51 606.98 983.51 529.98 C 983.31 516.59 984.04 503.17 982.78 489.81 C 978.44 434.23 950.46 381.00 907.39 345.65 C 877.23 321.14 840.00 304.35 800.96 301.72 C 792.67 300.97 784.34 301.37 776.03 301.28 C 693.34 301.28 610.65 301.27 527.97 301.28 M 303.12 378.06 C 299.28 379.34 296.09 382.79 295.88 386.94 C 295.91 391.63 299.40 396.02 303.89 397.29 C 362.30 417.17 420.59 437.47 479.07 457.18 L 480.28 458.15 C 480.56 446.30 480.18 434.44 480.48 422.59 C 473.56 419.97 466.46 417.82 459.47 415.39 C 454.11 413.73 448.94 411.47 443.44 410.31 C 443.02 409.44 441.80 409.49 441.06 409.09 C 433.21 406.66 425.53 403.71 417.60 401.54 C 426.30 400.72 435.06 401.45 443.79 401.20 C 443.71 377.70 443.72 354.19 443.79 330.69 C 396.92 346.55 350.00 362.26 303.12 378.06 M 528.00 417.12 C 528.00 447.40 528.00 477.68 528.00 507.96 C 606.99 507.93 685.98 507.97 764.96 507.94 C 769.43 507.75 772.86 511.32 775.57 514.43 C 780.09 520.47 778.63 528.31 778.86 535.33 C 710.92 535.62 642.96 535.38 575.02 535.44 C 574.99 565.49 574.99 595.53 575.01 625.57 C 671.51 625.46 768.00 625.72 864.49 625.45 C 864.34 588.96 864.50 552.48 864.41 516.00 C 863.80 503.15 860.77 490.52 856.46 478.43 C 849.63 461.23 838.62 445.37 823.46 434.52 C 808.25 422.91 789.08 416.89 769.99 417.11 C 689.33 417.14 608.67 417.12 528.00 417.12 M 302.04 488.82 C 302.14 521.90 302.04 554.98 302.08 588.05 C 301.96 594.78 304.85 601.54 310.04 605.88 C 314.42 609.63 320.24 611.29 325.94 611.25 C 357.29 611.24 388.64 611.24 419.99 611.25 C 424.93 611.24 429.95 610.03 434.02 607.17 C 440.28 602.99 443.83 595.44 443.73 587.99 C 443.80 567.43 443.67 546.86 443.79 526.30 C 421.29 526.31 398.79 526.32 376.29 526.29 C 376.35 542.11 376.35 557.93 376.29 573.76 C 386.28 573.75 396.27 573.71 406.27 573.78 C 406.24 567.93 406.31 562.08 406.19 556.24 C 408.50 556.20 410.81 556.19 413.13 556.19 C 413.03 562.13 413.32 568.08 413.01 574.01 C 412.92 577.57 409.57 580.68 406.00 580.43 C 383.69 580.44 361.37 580.45 339.05 580.43 C 334.58 580.77 331.28 576.21 332.11 572.01 C 332.19 544.28 332.12 516.55 332.15 488.82 C 322.11 488.82 312.07 488.81 302.04 488.82 M 574.90 647.78 C 574.89 678.25 574.89 708.73 574.90 739.21 C 642.79 739.23 710.68 739.18 778.57 739.23 C 778.28 745.54 779.70 752.45 776.09 758.10 C 772.99 763.79 766.30 766.59 760.01 766.06 C 682.49 766.01 604.97 766.03 527.46 766.05 C 527.47 796.26 527.50 826.47 527.44 856.68 C 604.61 856.73 681.79 856.68 758.97 856.70 C 766.67 856.54 774.43 857.21 782.07 855.92 C 797.30 854.38 811.83 848.12 824.04 839.00 C 841.55 825.94 853.85 806.67 859.79 785.76 C 863.16 774.17 865.06 762.10 864.64 750.01 C 864.67 715.95 864.56 681.89 864.69 647.82 C 768.09 647.70 671.50 647.80 574.90 647.78 M 265.38 659.18 C 265.49 694.11 265.38 729.05 265.44 763.99 C 265.97 781.30 274.75 798.08 288.46 808.61 C 298.79 816.72 311.89 821.15 325.02 821.15 C 357.33 821.12 389.64 821.15 421.95 821.14 C 440.22 820.89 458.04 811.63 468.79 796.85 C 475.15 788.08 479.51 777.53 480.04 766.66 C 480.62 762.13 480.28 757.55 480.36 753.00 C 480.42 721.78 480.24 690.56 480.45 659.35 C 470.44 658.96 460.43 659.28 450.42 659.17 C 450.51 692.79 450.41 726.40 450.47 760.02 C 451.30 773.44 441.86 786.47 428.93 790.01 C 424.75 791.34 420.32 791.30 415.98 791.25 C 385.31 791.20 354.65 791.30 323.99 791.21 C 309.09 790.91 295.78 777.90 295.38 762.96 C 295.32 728.35 295.37 693.74 295.35 659.13 C 285.36 659.23 275.37 659.14 265.38 659.18 M 414.42 659.16 C 414.48 688.44 414.44 717.72 414.44 747.00 C 414.46 751.11 410.78 753.95 407.11 754.87 C 407.00 730.10 407.07 705.32 407.08 680.54 C 397.06 680.52 387.03 680.49 377.01 680.56 C 377.19 715.16 377.17 749.78 377.02 784.38 C 392.34 784.42 407.67 784.43 423.00 784.39 C 433.32 784.19 442.46 776.00 444.17 765.89 C 444.21 765.21 444.29 763.87 444.33 763.19 C 444.81 728.53 444.34 693.85 444.57 659.18 C 434.52 659.17 424.47 659.19 414.42 659.16 M 302.06 659.87 C 302.11 693.57 302.07 727.28 302.08 760.99 C 301.93 766.81 303.92 772.70 307.85 777.04 C 312.14 781.94 318.66 784.53 325.12 784.53 C 339.93 784.58 354.74 784.55 369.54 784.54 C 369.43 749.87 369.45 715.19 369.54 680.52 C 359.52 680.52 349.51 680.52 339.50 680.52 C 339.62 705.29 339.50 730.06 339.57 754.84 C 336.26 754.10 332.75 751.83 332.86 748.04 C 332.81 718.65 332.82 689.26 332.86 659.87 C 322.59 659.86 312.32 659.86 302.06 659.87 M 265.42 933.00 C 265.75 950.82 273.33 968.38 286.04 980.87 C 296.94 991.85 311.63 998.97 326.99 1000.77 C 342.34 1002.71 358.33 999.53 371.66 991.66 C 387.48 982.41 399.40 966.75 403.97 949.00 C 407.88 934.75 405.53 919.85 406.42 905.32 C 407.31 901.66 413.78 902.13 413.68 906.03 C 413.66 937.78 413.70 969.54 413.66 1001.29 C 423.70 1001.26 433.75 1001.29 443.80 1001.27 C 443.67 969.51 443.78 937.76 443.75 906.00 C 443.99 892.16 434.66 878.95 421.72 874.22 C 411.88 870.50 400.28 871.76 391.55 877.65 C 384.07 882.50 378.73 890.42 376.89 899.12 C 376.82 899.79 376.67 901.12 376.59 901.79 C 375.71 913.34 377.13 925.00 375.74 936.52 C 373.42 951.68 361.67 964.75 346.96 968.96 C 336.65 972.15 325.11 970.60 315.81 965.20 C 302.45 957.68 294.18 942.29 295.34 926.99 C 295.39 896.49 295.30 865.99 295.39 835.49 C 285.39 835.50 275.40 835.54 265.41 835.47 C 265.44 867.98 265.42 900.49 265.42 933.00 M 301.98 835.53 C 302.21 864.02 302.01 892.52 302.08 921.01 C 302.23 927.00 301.55 933.12 303.05 939.00 C 306.46 953.36 320.16 964.52 334.98 964.67 C 351.10 965.38 366.68 952.69 368.91 936.68 C 369.79 932.50 369.36 928.21 369.44 923.98 C 369.37 917.72 369.57 911.45 369.38 905.20 C 370.14 890.06 379.73 875.81 393.65 869.72 C 403.14 865.36 414.38 865.00 424.12 868.79 C 436.71 873.54 446.67 884.82 449.51 898.01 C 450.92 903.92 450.35 910.02 450.45 916.04 C 450.51 944.45 450.34 972.87 450.53 1001.29 C 460.48 1001.23 470.43 1001.26 480.38 1001.27 C 480.33 978.85 480.37 956.42 480.36 934.00 C 480.18 922.74 480.73 911.45 480.07 900.22 C 478.57 867.44 450.31 838.46 417.61 835.99 C 412.58 835.33 407.46 835.32 402.44 835.98 C 370.04 838.40 341.94 866.84 339.99 899.27 C 339.02 910.17 339.96 921.15 339.46 932.08 C 337.75 934.47 333.29 934.60 332.90 931.20 C 332.82 899.33 332.72 867.43 332.96 835.55 C 322.63 835.46 312.31 835.50 301.98 835.53 Z" />
<path fill="#ffffff" opacity="1.00" d=" M 379.77 388.07 C 389.88 384.95 399.90 381.58 409.97 378.37 C 409.79 385.15 409.78 391.94 409.98 398.72 C 399.91 395.18 389.78 391.80 379.77 388.07 Z" />
</g>
<g id="#012a82ff">
<path fill="#012a82" opacity="1.00" d=" M 477.01 280.72 C 478.13 280.33 479.26 279.93 480.39 279.53 C 480.34 319.83 480.33 360.13 480.39 400.43 C 470.43 400.40 460.47 400.37 450.51 400.44 C 451.08 395.66 451.14 390.84 451.05 386.04 C 451.00 370.69 451.06 355.35 451.05 340.00 C 451.15 333.52 450.70 327.01 451.45 320.56 C 451.71 322.37 451.94 324.20 452.05 326.04 C 452.09 350.32 451.86 374.61 452.16 398.89 C 461.06 399.06 469.96 399.02 478.86 398.89 C 479.18 361.26 478.83 323.62 479.02 285.99 C 479.21 283.97 478.12 282.28 477.01 280.72 Z" />
</g>
<g id="#034693ff">
<path fill="#034693" opacity="1.00" d=" M 294.13 342.38 C 355.09 321.83 416.05 301.28 477.01 280.72 C 478.12 282.28 479.21 283.97 479.02 285.99 C 478.83 323.62 479.18 361.26 478.86 398.89 C 469.96 399.02 461.06 399.06 452.16 398.89 C 451.86 374.61 452.09 350.32 452.05 326.04 C 451.94 324.20 451.71 322.37 451.45 320.56 C 450.70 327.01 451.15 333.52 451.05 340.00 C 451.06 355.35 451.00 370.69 451.05 386.04 C 451.14 390.84 451.08 395.66 450.51 400.44 C 450.38 373.96 450.47 347.48 450.47 320.99 C 402.99 337.13 355.39 352.95 307.89 369.01 C 302.97 370.76 297.41 371.75 293.72 375.77 C 287.85 381.78 287.65 392.36 293.36 398.55 C 295.64 401.25 298.91 402.79 302.21 403.87 C 360.75 423.92 419.21 444.22 477.77 464.19 C 479.63 470.29 478.93 476.70 478.99 482.98 C 478.93 514.65 479.03 546.32 478.97 577.99 C 478.87 583.20 478.55 588.49 480.04 593.57 C 479.12 607.72 472.31 621.32 462.09 631.09 C 451.26 641.70 436.18 647.83 421.02 647.76 C 393.69 647.74 366.35 647.75 339.02 647.75 C 328.33 647.64 317.34 648.61 307.05 645.03 C 283.45 637.88 265.75 614.78 265.43 590.06 C 265.45 556.30 265.38 522.54 265.46 488.78 C 274.93 488.87 284.41 488.79 293.88 488.82 C 294.12 518.20 293.88 547.59 293.99 576.97 C 294.03 582.77 293.67 588.59 294.47 594.36 C 294.76 592.88 295.02 591.39 295.26 589.91 C 296.22 596.44 298.72 602.87 303.40 607.64 C 309.10 613.89 317.56 617.31 325.99 617.17 C 357.97 617.11 389.96 617.26 421.95 617.10 C 436.73 616.67 449.95 603.86 450.40 589.00 C 450.54 565.57 450.38 542.13 450.48 518.70 C 423.46 518.77 396.42 518.57 369.40 518.79 L 368.06 518.94 C 367.39 536.55 368.14 554.20 367.73 571.83 C 358.90 571.95 350.06 572.00 341.23 571.81 C 341.07 544.95 341.00 518.08 341.24 491.22 C 378.49 490.99 415.75 491.16 452.99 491.12 C 454.62 491.08 456.12 490.42 457.61 489.83 L 458.33 489.54 C 447.93 485.43 437.15 482.28 426.62 478.52 C 383.61 463.88 340.61 449.24 297.61 434.61 C 293.15 433.22 288.66 431.77 284.66 429.30 C 272.65 422.37 264.27 409.73 262.16 396.07 C 260.44 385.63 262.22 374.63 267.36 365.37 C 273.13 354.82 282.83 346.48 294.13 342.38 M 370.02 517.05 L 370.03 517.95 C 395.04 518.06 420.05 517.88 445.06 518.05 C 446.89 518.11 448.70 517.77 450.48 517.34 C 445.66 516.75 440.80 517.03 435.97 517.00 C 413.99 517.02 392.00 516.95 370.02 517.05 M 451.26 518.57 C 450.77 540.05 451.22 561.57 451.05 583.06 C 450.99 586.42 451.06 589.79 451.46 593.13 C 452.37 588.14 451.96 583.06 452.01 578.02 C 452.03 560.69 451.98 543.36 452.04 526.03 C 451.94 523.53 452.50 520.85 451.26 518.57 Z" />
<path fill="#034693" opacity="1.00" d=" M 303.12 378.06 C 350.00 362.26 396.92 346.55 443.79 330.69 C 443.72 354.19 443.71 377.70 443.79 401.20 C 435.06 401.45 426.30 400.72 417.60 401.54 C 425.53 403.71 433.21 406.66 441.06 409.09 C 441.80 409.49 443.02 409.44 443.44 410.31 C 443.63 410.68 444.02 411.42 444.21 411.79 C 455.57 416.00 467.19 419.56 478.68 423.43 C 479.23 434.67 478.45 445.94 479.07 457.18 C 420.59 437.47 362.30 417.17 303.89 397.29 C 299.40 396.02 295.91 391.63 295.88 386.94 C 296.09 382.79 299.28 379.34 303.12 378.06 M 379.77 388.07 C 389.78 391.80 399.91 395.18 409.98 398.72 C 409.78 391.94 409.79 385.15 409.97 378.37 C 399.90 381.58 389.88 384.95 379.77 388.07 Z" />
<path fill="#034693" opacity="1.00" d=" M 302.04 488.82 C 312.07 488.81 322.11 488.82 332.15 488.82 C 332.12 516.55 332.19 544.28 332.11 572.01 C 331.28 576.21 334.58 580.77 339.05 580.43 C 361.37 580.45 383.69 580.44 406.00 580.43 C 409.57 580.68 412.92 577.57 413.01 574.01 C 413.32 568.08 413.03 562.13 413.13 556.19 C 410.81 556.19 408.50 556.20 406.19 556.24 C 406.31 562.08 406.24 567.93 406.27 573.78 C 396.27 573.71 386.28 573.75 376.29 573.76 C 376.35 557.93 376.35 542.11 376.29 526.29 C 398.79 526.32 421.29 526.31 443.79 526.30 C 443.67 546.86 443.80 567.43 443.73 587.99 C 443.83 595.44 440.28 602.99 434.02 607.17 C 429.95 610.03 424.93 611.24 419.99 611.25 C 388.64 611.24 357.29 611.24 325.94 611.25 C 320.24 611.29 314.42 609.63 310.04 605.88 C 304.85 601.54 301.96 594.78 302.08 588.05 C 302.04 554.98 302.14 521.90 302.04 488.82 M 336.53 581.42 C 338.00 581.71 339.47 582.08 340.99 582.05 C 359.33 581.96 377.67 582.02 396.02 582.01 C 400.41 581.97 404.84 582.26 409.20 581.59 C 407.81 581.36 406.45 580.91 405.04 581.00 C 387.04 581.07 369.03 581.00 351.03 581.05 C 346.19 581.09 341.34 580.76 336.53 581.42 Z" />
<path fill="#034693" opacity="1.00" d=" M 265.38 659.18 C 275.37 659.14 285.36 659.23 295.35 659.13 C 295.37 693.74 295.32 728.35 295.38 762.96 C 295.78 777.90 309.09 790.91 323.99 791.21 C 354.65 791.30 385.31 791.20 415.98 791.25 C 420.32 791.30 424.75 791.34 428.93 790.01 C 441.86 786.47 451.30 773.44 450.47 760.02 C 450.41 726.40 450.51 692.79 450.42 659.17 C 460.43 659.28 470.44 658.96 480.45 659.35 C 470.70 660.83 460.80 659.95 450.99 659.91 C 451.10 689.61 451.00 719.32 451.04 749.03 C 451.08 755.12 450.76 761.23 451.44 767.31 C 451.71 765.21 451.94 763.10 452.03 761.00 C 452.08 727.66 451.90 694.32 452.11 660.98 C 461.03 660.83 469.95 660.75 478.87 660.98 C 479.14 689.99 478.86 719.00 478.99 748.00 C 479.14 754.22 478.26 760.58 480.04 766.66 C 479.51 777.53 475.15 788.08 468.79 796.85 C 458.04 811.63 440.22 820.89 421.95 821.14 C 389.64 821.15 357.33 821.12 325.02 821.15 C 311.89 821.15 298.79 816.72 288.46 808.61 C 274.75 798.08 265.97 781.30 265.44 763.99 C 265.38 729.05 265.49 694.11 265.38 659.18 M 320.90 792.41 C 322.58 792.70 324.27 792.98 325.99 793.04 C 354.01 792.95 382.02 793.04 410.04 793.00 C 414.80 792.94 419.62 793.41 424.31 792.37 C 419.22 791.78 414.09 792.04 408.98 792.00 C 383.66 792.06 358.33 791.96 333.01 792.01 C 328.96 791.97 324.91 791.84 320.90 792.41 Z" />
<path fill="#034693" opacity="1.00" d=" M 414.42 659.16 C 424.47 659.19 434.52 659.17 444.57 659.18 C 444.34 693.85 444.81 728.53 444.33 763.19 C 443.63 752.79 444.10 742.37 443.97 731.96 C 444.01 707.97 443.92 683.98 444.02 660.00 C 434.34 660.19 424.66 660.28 414.98 659.97 C 415.04 683.98 415.01 708.00 415.02 732.02 C 415.05 737.85 414.73 743.71 415.43 749.52 C 415.68 747.69 415.91 745.84 416.01 744.00 C 416.09 716.30 415.87 688.59 416.11 660.89 C 425.04 660.72 433.97 660.67 442.89 660.92 C 443.11 693.94 442.94 726.97 442.97 759.99 C 443.05 762.00 443.60 763.95 444.17 765.89 C 442.46 776.00 433.32 784.19 423.00 784.39 C 407.67 784.43 392.34 784.42 377.02 784.38 C 377.17 749.78 377.19 715.16 377.01 680.56 C 387.03 680.49 397.06 680.52 407.08 680.54 C 407.07 705.32 407.00 730.10 407.11 754.87 C 410.78 753.95 414.46 751.11 414.44 747.00 C 414.44 717.72 414.48 688.44 414.42 659.16 Z" />
<path fill="#034693" opacity="1.00" d=" M 302.06 659.87 C 312.32 659.86 322.59 659.86 332.86 659.87 C 332.82 689.26 332.81 718.65 332.86 748.04 C 332.75 751.83 336.26 754.10 339.57 754.84 C 339.50 730.06 339.62 705.29 339.50 680.52 C 349.51 680.52 359.52 680.52 369.54 680.52 C 369.45 715.19 369.43 749.87 369.54 784.54 C 354.74 784.55 339.93 784.58 325.12 784.53 C 318.66 784.53 312.14 781.94 307.85 777.04 C 303.92 772.70 301.93 766.81 302.08 760.99 C 302.07 727.28 302.11 693.57 302.06 659.87 Z" />
<path fill="#034693" opacity="1.00" d=" M 265.42 933.00 C 265.42 900.49 265.44 867.98 265.41 835.47 C 275.40 835.54 285.39 835.50 295.39 835.49 C 295.30 865.99 295.39 896.49 295.34 926.99 C 294.18 942.29 302.45 957.68 315.81 965.20 C 325.11 970.60 336.65 972.15 346.96 968.96 C 361.67 964.75 373.42 951.68 375.74 936.52 C 377.13 925.00 375.71 913.34 376.59 901.79 C 377.70 912.92 376.30 924.13 377.44 935.26 C 378.44 928.54 377.88 921.75 378.00 915.00 C 377.90 909.70 378.74 904.22 376.89 899.12 C 378.73 890.42 384.07 882.50 391.55 877.65 C 400.28 871.76 411.88 870.50 421.72 874.22 C 434.66 878.95 443.99 892.16 443.75 906.00 C 443.78 937.76 443.67 969.51 443.80 1001.27 C 433.75 1001.29 423.70 1001.26 413.66 1001.29 C 413.70 969.54 413.66 937.78 413.68 906.03 C 413.78 902.13 407.31 901.66 406.42 905.32 C 405.53 919.85 407.88 934.75 403.97 949.00 C 399.40 966.75 387.48 982.41 371.66 991.66 C 358.33 999.53 342.34 1002.71 326.99 1000.77 C 311.63 998.97 296.94 991.85 286.04 980.87 C 273.33 968.38 265.75 950.82 265.42 933.00 Z" />
<path fill="#034693" opacity="1.00" d=" M 301.98 835.53 C 312.31 835.50 322.63 835.46 332.96 835.55 C 332.72 867.43 332.82 899.33 332.90 931.20 C 333.29 934.60 337.75 934.47 339.46 932.08 C 339.83 931.74 340.56 931.05 340.93 930.70 C 341.33 923.48 340.82 916.25 341.11 909.03 C 341.27 905.73 340.80 902.45 339.99 899.27 C 341.94 866.84 370.04 838.40 402.44 835.98 C 407.40 837.53 412.64 837.47 417.61 835.99 C 450.31 838.46 478.57 867.44 480.07 900.22 C 478.14 906.33 479.13 912.77 478.98 919.06 C 478.93 946.05 479.11 973.04 478.86 1000.03 C 469.97 1000.37 461.05 1000.45 452.16 1000.00 C 451.82 973.68 452.15 947.36 452.03 921.04 C 451.92 914.24 452.42 907.41 451.55 900.65 C 450.60 907.06 451.13 913.56 451.02 920.02 C 451.04 940.33 451.00 960.64 451.03 980.95 C 450.94 987.73 451.34 994.54 450.53 1001.29 C 450.34 972.87 450.51 944.45 450.45 916.04 C 450.35 910.02 450.92 903.92 449.51 898.01 C 446.67 884.82 436.71 873.54 424.12 868.79 C 414.38 865.00 403.14 865.36 393.65 869.72 C 379.73 875.81 370.14 890.06 369.38 905.20 C 369.09 903.68 368.77 902.17 368.42 900.69 C 367.55 908.77 368.20 916.91 367.92 925.02 C 367.72 928.93 368.13 932.84 368.91 936.68 C 366.68 952.69 351.10 965.38 334.98 964.67 C 320.16 964.52 306.46 953.36 303.05 939.00 C 301.55 933.12 302.23 927.00 302.08 921.01 C 302.01 892.52 302.21 864.02 301.98 835.53 Z" />
</g>
<g id="#eea900ff">
<path fill="#eea900" opacity="1.00" d=" M 527.97 301.28 C 610.65 301.27 693.34 301.28 776.03 301.28 C 784.34 301.37 792.67 300.97 800.96 301.72 C 840.00 304.35 877.23 321.14 907.39 345.65 C 950.46 381.00 978.44 434.23 982.78 489.81 C 984.04 503.17 983.31 516.59 983.51 529.98 C 983.51 606.98 983.51 683.97 983.51 760.96 C 983.96 784.23 980.82 807.64 973.78 829.85 C 962.69 863.42 943.72 894.61 917.87 918.85 C 887.52 947.12 848.54 966.98 807.05 971.42 C 796.07 972.80 785.01 972.21 773.99 972.33 C 691.83 972.35 609.68 972.28 527.53 972.36 C 527.48 941.88 527.44 911.40 527.55 880.92 C 606.68 880.99 685.81 880.93 764.94 880.95 C 775.61 880.83 786.37 881.55 796.91 879.48 C 815.92 876.54 833.65 867.55 848.39 855.38 C 872.40 835.12 886.87 804.68 889.48 773.57 C 890.51 767.09 889.80 760.51 890.01 753.98 C 890.03 671.32 889.96 588.67 890.04 506.01 C 888.56 478.12 878.41 450.30 859.64 429.37 C 851.54 419.94 841.54 412.20 830.69 406.17 C 813.67 396.21 793.65 392.10 774.06 392.58 C 692.03 392.59 610.01 392.57 527.98 392.59 C 527.92 362.15 527.95 331.71 527.97 301.28 Z" />
<path fill="#eea900" opacity="1.00" d=" M 528.00 417.12 C 608.67 417.12 689.33 417.14 769.99 417.11 C 789.08 416.89 808.25 422.91 823.46 434.52 C 838.62 445.37 849.63 461.23 856.46 478.43 C 860.77 490.52 863.80 503.15 864.41 516.00 C 864.50 552.48 864.34 588.96 864.49 625.45 C 768.00 625.72 671.51 625.46 575.01 625.57 C 574.99 595.53 574.99 565.49 575.02 535.44 C 642.96 535.38 710.92 535.62 778.86 535.33 C 778.63 528.31 780.09 520.47 775.57 514.43 C 772.86 511.32 769.43 507.75 764.96 507.94 C 685.98 507.97 606.99 507.93 528.00 507.96 C 528.00 477.68 528.00 447.40 528.00 417.12 Z" />
<path fill="#eea900" opacity="1.00" d=" M 574.90 647.78 C 671.50 647.80 768.09 647.70 864.69 647.82 C 864.56 681.89 864.67 715.95 864.64 750.01 C 865.06 762.10 863.16 774.17 859.79 785.76 C 853.85 806.67 841.55 825.94 824.04 839.00 C 811.83 848.12 797.30 854.38 782.07 855.92 C 774.43 857.21 766.67 856.54 758.97 856.70 C 681.79 856.68 604.61 856.73 527.44 856.68 C 527.50 826.47 527.47 796.26 527.46 766.05 C 604.97 766.03 682.49 766.01 760.01 766.06 C 766.30 766.59 772.99 763.79 776.09 758.10 C 779.70 752.45 778.28 745.54 778.57 739.23 C 710.68 739.18 642.79 739.23 574.90 739.21 C 574.89 708.73 574.89 678.25 574.90 647.78 Z" />
</g>
<g id="#093589ff">
<path fill="#093589" opacity="1.00" d=" M 444.21 411.79 C 444.02 411.42 443.63 410.68 443.44 410.31 C 448.94 411.47 454.11 413.73 459.47 415.39 C 466.46 417.82 473.56 419.97 480.48 422.59 C 480.18 434.44 480.56 446.30 480.28 458.15 L 479.07 457.18 C 478.45 445.94 479.23 434.67 478.68 423.43 C 467.19 419.56 455.57 416.00 444.21 411.79 Z" />
</g>
<g id="#002a82ff">
<path fill="#002a82" opacity="1.00" d=" M 478.99 482.98 C 478.93 476.70 479.63 470.29 477.77 464.19 C 479.62 464.39 480.48 465.31 480.36 466.94 C 480.36 505.28 480.36 543.62 480.36 581.96 C 480.33 585.82 480.54 589.71 480.04 593.57 C 478.55 588.49 478.87 583.20 478.97 577.99 C 479.03 546.32 478.93 514.65 478.99 482.98 Z" />
<path fill="#002a82" opacity="1.00" d=" M 450.99 659.91 C 460.80 659.95 470.70 660.83 480.45 659.35 C 480.24 690.56 480.42 721.78 480.36 753.00 C 480.28 757.55 480.62 762.13 480.04 766.66 C 478.26 760.58 479.14 754.22 478.99 748.00 C 478.86 719.00 479.14 689.99 478.87 660.98 C 469.95 660.75 461.03 660.83 452.11 660.98 C 451.90 694.32 452.08 727.66 452.03 761.00 C 451.94 763.10 451.71 765.21 451.44 767.31 C 450.76 761.23 451.08 755.12 451.04 749.03 C 451.00 719.32 451.10 689.61 450.99 659.91 Z" />
<path fill="#002a82" opacity="1.00" d=" M 376.89 899.12 C 378.74 904.22 377.90 909.70 378.00 915.00 C 377.88 921.75 378.44 928.54 377.44 935.26 C 376.30 924.13 377.70 912.92 376.59 901.79 C 376.67 901.12 376.82 899.79 376.89 899.12 Z" />
</g>
<g id="#002c84ff">
<path fill="#002c84" opacity="1.00" d=" M 293.88 488.82 L 295.34 488.81 C 295.26 522.51 295.43 556.22 295.26 589.91 C 295.02 591.39 294.76 592.88 294.47 594.36 C 293.67 588.59 294.03 582.77 293.99 576.97 C 293.88 547.59 294.12 518.20 293.88 488.82 Z" />
<path fill="#002c84" opacity="1.00" d=" M 320.90 792.41 C 324.91 791.84 328.96 791.97 333.01 792.01 C 358.33 791.96 383.66 792.06 408.98 792.00 C 414.09 792.04 419.22 791.78 424.31 792.37 C 419.62 793.41 414.80 792.94 410.04 793.00 C 382.02 793.04 354.01 792.95 325.99 793.04 C 324.27 792.98 322.58 792.70 320.90 792.41 Z" />
</g>
<g id="#063187ff">
<path fill="#063187" opacity="1.00" d=" M 339.53 489.59 C 369.69 489.63 399.84 489.60 429.99 489.61 C 439.20 489.70 448.41 489.39 457.61 489.83 C 456.12 490.42 454.62 491.08 452.99 491.12 C 415.75 491.16 378.49 490.99 341.24 491.22 C 341.00 518.08 341.07 544.95 341.23 571.81 C 350.06 572.00 358.90 571.95 367.73 571.83 C 368.14 554.20 367.39 536.55 368.06 518.94 L 369.40 518.79 C 369.54 537.12 369.41 555.44 369.47 573.76 C 359.50 573.68 349.53 573.69 339.56 573.76 C 339.56 545.70 339.61 517.65 339.53 489.59 Z" />
</g>
<g id="#002a83ff">
<path fill="#002a83" opacity="1.00" d=" M 370.02 517.05 C 392.00 516.95 413.99 517.02 435.97 517.00 C 440.80 517.03 445.66 516.75 450.48 517.34 C 448.70 517.77 446.89 518.11 445.06 518.05 C 420.05 517.88 395.04 518.06 370.03 517.95 L 370.02 517.05 Z" />
<path fill="#002a83" opacity="1.00" d=" M 402.44 835.98 C 407.46 835.32 412.58 835.33 417.61 835.99 C 412.64 837.47 407.40 837.53 402.44 835.98 Z" />
<path fill="#002a83" opacity="1.00" d=" M 339.99 899.27 C 340.80 902.45 341.27 905.73 341.11 909.03 C 340.82 916.25 341.33 923.48 340.93 930.70 C 340.56 931.05 339.83 931.74 339.46 932.08 C 339.96 921.15 339.02 910.17 339.99 899.27 Z" />
<path fill="#002a83" opacity="1.00" d=" M 451.02 920.02 C 451.13 913.56 450.60 907.06 451.55 900.65 C 452.42 907.41 451.92 914.24 452.03 921.04 C 452.15 947.36 451.82 973.68 452.16 1000.00 C 461.05 1000.45 469.97 1000.37 478.86 1000.03 C 479.11 973.04 478.93 946.05 478.98 919.06 C 479.13 912.77 478.14 906.33 480.07 900.22 C 480.73 911.45 480.18 922.74 480.36 934.00 C 480.37 956.42 480.33 978.85 480.38 1001.27 C 470.43 1001.26 460.48 1001.23 450.53 1001.29 C 451.34 994.54 450.94 987.73 451.03 980.95 C 451.00 960.64 451.04 940.33 451.02 920.02 Z" />
</g>
<g id="#002882ff">
<path fill="#002882" opacity="1.00" d=" M 451.26 518.57 C 452.50 520.85 451.94 523.53 452.04 526.03 C 451.98 543.36 452.03 560.69 452.01 578.02 C 451.96 583.06 452.37 588.14 451.46 593.13 C 451.06 589.79 450.99 586.42 451.05 583.06 C 451.22 561.57 450.77 540.05 451.26 518.57 Z" />
</g>
<g id="#00247fff">
<path fill="#00247f" opacity="1.00" d=" M 336.53 581.42 C 341.34 580.76 346.19 581.09 351.03 581.05 C 369.03 581.00 387.04 581.07 405.04 581.00 C 406.45 580.91 407.81 581.36 409.20 581.59 C 404.84 582.26 400.41 581.97 396.02 582.01 C 377.67 582.02 359.33 581.96 340.99 582.05 C 339.47 582.08 338.00 581.71 336.53 581.42 Z" />
</g>
<g id="#002580ff">
<path fill="#002580" opacity="1.00" d=" M 414.98 659.97 C 424.66 660.28 434.34 660.19 444.02 660.00 C 443.92 683.98 444.01 707.97 443.97 731.96 C 444.10 742.37 443.63 752.79 444.33 763.19 C 444.29 763.87 444.21 765.21 444.17 765.89 C 443.60 763.95 443.05 762.00 442.97 759.99 C 442.94 726.97 443.11 693.94 442.89 660.92 C 433.97 660.67 425.04 660.72 416.11 660.89 C 415.87 688.59 416.09 716.30 416.01 744.00 C 415.91 745.84 415.68 747.69 415.43 749.52 C 414.73 743.71 415.05 737.85 415.02 732.02 C 415.01 708.00 415.04 683.98 414.98 659.97 Z" />
</g>
<g id="#002681ff">
<path fill="#002681" opacity="1.00" d=" M 367.92 925.02 C 368.20 916.91 367.55 908.77 368.42 900.69 C 368.77 902.17 369.09 903.68 369.38 905.20 C 369.57 911.45 369.37 917.72 369.44 923.98 C 369.36 928.21 369.79 932.50 368.91 936.68 C 368.13 932.84 367.72 928.93 367.92 925.02 Z" />
</g>
</svg>
