<?xml version="1.0" encoding="UTF-8" ?>
<!DOCTYPE svg PUBLIC "-//W3C//DTD SVG 1.1//EN" "http://www.w3.org/Graphics/SVG/1.1/DTD/svg11.dtd">
<svg width="1276pt" height="1276pt" viewBox="0 0 1276 1276" version="1.1" xmlns="http://www.w3.org/2000/svg">
<g id="#ffffffff">
<path fill="#ffffff" opacity="1.00" d=" M 389.00 255.00 C 489.99 255.02 590.97 255.02 691.96 255.02 C 700.98 254.88 710.01 255.14 719.01 255.89 C 733.63 257.63 747.87 261.57 762.19 264.86 C 782.77 270.36 802.37 279.34 820.24 290.92 C 836.35 301.73 852.24 313.18 865.82 327.14 C 876.86 338.30 886.15 351.01 895.23 363.78 C 903.09 375.33 910.19 387.43 915.82 400.24 C 924.06 417.66 928.93 436.41 933.26 455.12 C 936.39 470.90 939.33 486.85 939.18 502.99 C 939.10 505.33 940.02 507.57 940.00 509.91 C 939.87 526.57 940.43 543.26 938.89 559.87 C 935.03 585.36 929.71 610.89 919.88 634.82 C 912.29 653.68 901.76 671.21 889.71 687.54 C 882.42 697.53 874.72 707.29 865.86 715.96 C 890.57 715.94 915.29 715.96 940.00 715.95 C 940.00 816.97 940.00 917.98 940.00 1019.00 C 756.33 1018.97 572.67 1018.97 389.00 1019.00 C 389.00 992.32 389.01 965.63 388.99 938.95 C 389.90 926.32 389.27 913.64 389.45 900.99 C 389.18 885.32 390.41 869.67 389.50 854.02 C 389.50 826.03 389.52 798.04 389.49 770.06 C 390.13 756.39 389.58 742.70 389.89 729.02 C 391.83 703.22 397.61 677.80 405.52 653.19 C 412.28 634.01 421.61 615.80 433.03 598.97 C 442.86 584.93 453.07 570.98 465.46 559.05 C 439.97 558.94 414.49 559.03 389.00 559.00 C 389.00 457.67 389.00 356.33 389.00 255.00 M 435.63 301.14 C 435.69 331.37 435.68 361.61 435.64 391.84 C 517.40 392.03 599.18 391.88 680.94 391.92 C 691.70 391.83 702.54 392.18 713.09 394.46 C 729.95 397.97 745.58 406.25 758.86 417.08 C 785.20 439.20 800.18 473.46 800.54 507.65 C 800.75 507.92 801.15 508.45 801.35 508.72 C 801.33 518.47 801.42 528.22 801.30 537.97 C 799.96 576.80 779.45 615.57 745.46 635.35 C 729.20 645.43 710.05 650.37 690.99 650.43 C 679.66 650.40 668.33 650.49 657.01 650.47 C 650.61 650.54 644.18 650.21 637.82 651.09 C 612.02 653.30 588.12 668.41 573.58 689.61 C 561.26 707.26 554.97 728.64 553.60 749.99 C 553.04 785.58 553.50 821.18 553.29 856.78 C 666.86 856.83 780.42 856.83 893.99 856.78 C 893.91 826.47 893.92 796.15 893.99 765.84 C 808.85 765.82 723.71 765.84 638.58 765.83 C 638.60 759.97 637.97 753.57 641.42 748.45 C 643.62 745.37 646.63 742.43 650.43 741.55 C 658.28 741.29 666.15 741.56 674.01 741.43 C 692.04 741.16 710.20 742.40 728.05 739.23 C 781.12 730.22 829.05 697.27 858.56 652.52 C 876.60 625.09 888.88 593.62 892.50 560.90 C 894.76 543.34 893.65 525.60 893.99 507.96 C 893.76 507.60 893.29 506.89 893.06 506.53 C 893.66 446.57 866.19 387.16 820.87 348.04 C 791.96 323.35 756.07 306.02 718.04 301.98 C 706.42 300.65 694.71 301.15 683.04 301.05 C 600.57 301.11 518.10 300.94 435.63 301.14 M 435.66 416.44 C 435.73 446.73 435.71 477.03 435.67 507.32 C 514.12 507.39 592.57 507.33 671.02 507.35 C 674.85 507.51 678.94 506.63 682.54 508.35 C 686.86 510.17 690.16 514.21 690.91 518.87 C 692.51 526.65 686.02 534.89 678.08 535.13 C 662.38 535.12 646.68 535.14 630.98 535.13 C 608.87 534.85 586.74 539.02 566.18 547.13 C 532.04 560.50 501.73 583.39 479.47 612.51 C 453.41 646.73 437.49 688.86 436.01 731.95 C 435.49 768.61 435.50 805.29 435.54 841.97 C 435.37 856.30 436.43 870.66 435.49 884.98 C 435.49 914.30 435.50 943.61 435.48 972.93 C 588.31 972.96 741.13 972.95 893.96 972.93 C 893.94 942.66 893.91 912.39 893.98 882.11 C 772.17 882.06 650.36 882.11 528.55 882.09 C 528.96 849.74 528.79 817.37 528.82 785.02 C 528.97 768.36 528.10 751.71 528.72 735.05 C 531.09 698.20 550.59 661.88 582.42 642.35 C 598.19 632.22 616.72 626.73 635.44 626.21 C 651.71 625.98 667.99 626.33 684.26 625.99 C 699.39 625.53 714.64 621.86 727.54 613.73 C 744.53 603.91 757.50 588.18 765.71 570.50 C 771.93 558.12 776.51 544.76 777.65 530.89 C 779.85 510.24 775.35 488.99 765.32 470.84 C 756.47 455.34 745.47 440.45 730.13 430.85 C 715.52 420.80 697.65 416.23 680.03 416.36 C 598.57 416.40 517.11 416.26 435.66 416.44 Z" />
</g>
<g id="#000000ff">
<path fill="#000000" opacity="1.00" d=" M 435.63 301.14 C 518.10 300.94 600.57 301.11 683.04 301.05 C 694.71 301.15 706.42 300.65 718.04 301.98 C 756.07 306.02 791.96 323.35 820.87 348.04 C 866.19 387.16 893.66 446.57 893.06 506.53 C 893.29 506.89 893.76 507.60 893.99 507.96 C 893.65 525.60 894.76 543.34 892.50 560.90 C 888.88 593.62 876.60 625.09 858.56 652.52 C 829.05 697.27 781.12 730.22 728.05 739.23 C 710.20 742.40 692.04 741.16 674.01 741.43 C 666.15 741.56 658.28 741.29 650.43 741.55 C 646.63 742.43 643.62 745.37 641.42 748.45 C 637.97 753.57 638.60 759.97 638.58 765.83 C 723.71 765.84 808.85 765.82 893.99 765.84 C 893.92 796.15 893.91 826.47 893.99 856.78 C 780.42 856.83 666.86 856.83 553.29 856.78 C 553.50 821.18 553.04 785.58 553.60 749.99 C 554.97 728.64 561.26 707.26 573.58 689.61 C 588.12 668.41 612.02 653.30 637.82 651.09 C 644.18 650.21 650.61 650.54 657.01 650.47 C 668.33 650.49 679.66 650.40 690.99 650.43 C 710.05 650.37 729.20 645.43 745.46 635.35 C 779.45 615.57 799.96 576.80 801.30 537.97 C 801.42 528.22 801.33 518.47 801.35 508.72 C 801.15 508.45 800.75 507.92 800.54 507.65 C 800.18 473.46 785.20 439.20 758.86 417.08 C 745.58 406.25 729.95 397.97 713.09 394.46 C 702.54 392.18 691.70 391.83 680.94 391.92 C 599.18 391.88 517.40 392.03 435.64 391.84 C 435.68 361.61 435.69 331.37 435.63 301.14 Z" />
<path fill="#000000" opacity="1.00" d=" M 435.66 416.44 C 517.11 416.26 598.57 416.40 680.03 416.36 C 697.65 416.23 715.52 420.80 730.13 430.85 C 745.47 440.45 756.47 455.34 765.32 470.84 C 775.35 488.99 779.85 510.24 777.65 530.89 C 776.51 544.76 771.93 558.12 765.71 570.50 C 757.50 588.18 744.53 603.91 727.54 613.73 C 714.64 621.86 699.39 625.53 684.26 625.99 C 667.99 626.33 651.71 625.98 635.44 626.21 C 616.72 626.73 598.19 632.22 582.42 642.35 C 550.59 661.88 531.09 698.20 528.72 735.05 C 528.10 751.71 528.97 768.36 528.82 785.02 C 528.79 817.37 528.96 849.74 528.55 882.09 C 650.36 882.11 772.17 882.06 893.98 882.11 C 893.91 912.39 893.94 942.66 893.96 972.93 C 741.13 972.95 588.31 972.96 435.48 972.93 C 435.50 943.61 435.49 914.30 435.49 884.98 C 436.43 870.66 435.37 856.30 435.54 841.97 C 435.50 805.29 435.49 768.61 436.01 731.95 C 437.49 688.86 453.41 646.73 479.47 612.51 C 501.73 583.39 532.04 560.50 566.18 547.13 C 586.74 539.02 608.87 534.85 630.98 535.13 C 646.68 535.14 662.38 535.12 678.08 535.13 C 686.02 534.89 692.51 526.65 690.91 518.87 C 690.16 514.21 686.86 510.17 682.54 508.35 C 678.94 506.63 674.85 507.51 671.02 507.35 C 592.57 507.33 514.12 507.39 435.67 507.32 C 435.71 477.03 435.73 446.73 435.66 416.44 Z" />
</g>
</svg>
