<?xml version="1.0" encoding="UTF-8" ?>
<!DOCTYPE svg PUBLIC "-//W3C//DTD SVG 1.1//EN" "http://www.w3.org/Graphics/SVG/1.1/DTD/svg11.dtd">
<svg width="1276pt" height="1276pt" viewBox="0 0 1276 1276" version="1.1" xmlns="http://www.w3.org/2000/svg">
<g id="#ffffffff">
<path fill="#ffffff" opacity="1.00" d=" M 476.45 258.66 C 484.91 256.76 493.27 254.23 501.95 253.46 C 513.25 252.41 524.78 252.86 535.84 255.60 C 545.04 257.89 554.34 259.81 563.47 262.36 C 578.17 266.85 590.03 276.98 602.35 285.70 C 608.19 290.97 614.14 296.34 618.60 302.86 C 624.25 295.86 630.19 288.95 637.57 283.70 C 648.88 275.59 659.95 266.46 673.51 262.37 C 682.65 259.81 691.97 257.89 701.19 255.61 C 711.25 253.09 721.73 252.52 732.06 253.21 C 743.31 253.93 754.10 257.43 765.06 259.82 C 774.04 261.71 782.88 264.53 790.92 269.02 C 798.67 273.33 805.62 278.88 812.83 284.01 C 826.25 293.62 835.81 307.33 845.09 320.73 C 851.71 330.34 856.93 340.91 860.51 352.03 C 897.59 477.59 934.56 603.19 971.66 728.75 C 953.23 729.21 934.77 728.21 916.37 729.23 C 882.12 613.21 847.91 497.17 813.69 381.13 C 808.98 364.20 800.70 348.14 788.88 335.08 C 778.37 323.13 764.36 314.32 749.02 310.10 C 735.34 306.45 720.85 306.11 706.91 308.43 C 690.31 311.29 675.02 320.28 663.82 332.78 C 651.82 345.71 643.89 361.69 636.53 377.55 C 630.37 391.84 624.55 406.27 618.52 420.61 C 611.24 403.45 604.40 386.10 596.87 369.05 C 589.25 352.48 579.37 336.51 565.14 324.82 C 554.04 315.73 540.48 309.51 526.18 307.82 C 507.93 305.63 488.63 307.42 472.22 316.22 C 453.92 325.61 440.12 342.17 431.47 360.58 C 424.49 374.45 421.02 389.66 416.49 404.42 C 361.18 591.94 305.86 779.47 250.55 966.99 C 275.41 967.01 300.26 967.00 325.12 966.99 C 378.88 782.86 432.62 598.72 486.37 414.58 C 488.67 406.54 496.43 401.71 503.74 398.74 C 517.23 393.27 534.04 401.53 538.60 415.17 C 565.25 500.89 591.85 586.63 618.52 672.35 C 644.51 588.76 670.46 505.17 696.44 421.58 C 697.87 417.18 698.80 412.45 701.70 408.73 C 706.73 402.12 714.55 397.39 722.96 397.08 C 730.47 396.65 737.65 400.01 743.49 404.49 C 747.01 407.17 749.82 410.87 750.88 415.22 C 781.98 522.09 813.36 628.88 844.33 735.78 C 838.63 738.88 834.22 743.68 829.05 747.50 C 799.34 643.66 769.63 539.81 739.94 435.96 C 738.89 432.60 738.39 428.81 735.87 426.15 C 733.45 423.60 730.30 421.69 726.89 420.82 C 722.22 419.66 717.52 422.06 714.20 425.20 C 711.07 428.03 710.42 432.38 709.19 436.20 C 678.97 536.35 648.76 636.51 618.51 736.66 C 587.73 634.68 556.97 532.69 526.19 430.70 C 524.81 425.91 520.47 422.54 515.89 421.01 C 510.95 419.44 505.80 421.96 502.13 425.18 C 498.63 428.11 498.11 432.88 496.82 436.97 C 446.29 613.65 395.73 790.32 345.20 966.99 C 370.05 967.00 394.91 967.00 419.77 966.99 C 450.73 853.98 481.72 740.98 512.69 627.97 C 547.97 741.01 583.23 854.06 618.51 967.11 C 653.83 854.08 689.04 741.02 724.37 627.99 C 756.28 740.99 788.17 854.00 820.08 967.00 C 826.40 967.00 832.73 967.03 839.05 967.02 C 839.50 967.02 840.38 967.01 840.82 967.01 C 840.63 972.03 841.25 977.18 840.02 982.11 C 836.42 993.42 827.98 1002.51 824.78 1013.99 C 808.43 1014.00 792.07 1014.00 775.72 1014.00 C 760.67 958.65 745.67 903.28 730.60 847.93 C 728.89 836.58 724.74 825.75 721.93 814.64 C 703.89 872.45 685.89 930.27 667.84 988.07 C 663.98 996.37 661.89 1005.36 658.91 1014.00 C 631.74 1013.95 604.57 1014.09 577.41 1013.93 C 571.08 993.18 564.07 972.66 557.81 951.88 C 548.79 922.98 539.77 894.07 530.76 865.17 C 525.67 849.44 521.20 833.49 515.75 817.91 C 497.84 883.25 480.13 948.64 462.28 1014.00 C 368.69 1014.00 275.10 1014.00 181.50 1014.00 C 185.79 999.49 190.10 984.99 194.41 970.50 C 199.07 955.46 202.79 940.15 207.44 925.11 C 263.28 736.02 319.03 546.90 374.82 357.79 C 377.86 347.79 381.95 338.10 387.04 328.98 C 391.36 321.24 396.80 314.22 401.92 307.01 C 408.61 297.53 416.84 289.06 426.36 282.40 C 435.26 276.03 443.98 269.13 454.23 265.02 C 461.31 261.88 468.97 260.51 476.45 258.66 Z" />
<path fill="#ffffff" opacity="1.00" d=" M 844.98 734.02 C 869.24 734.01 893.51 734.00 917.77 734.02 C 936.24 734.13 954.70 734.07 973.17 734.06 C 987.46 734.26 1001.77 733.74 1016.06 734.35 C 1052.86 737.48 1087.10 758.59 1108.30 788.55 C 1120.67 806.17 1129.13 826.68 1131.89 848.09 C 1133.34 857.65 1132.83 867.35 1132.92 877.00 C 1132.91 920.34 1132.93 963.68 1132.91 1007.02 C 1131.81 1045.65 1112.37 1083.17 1081.97 1106.92 C 1065.91 1119.37 1047.04 1128.40 1026.98 1132.04 C 1015.15 1134.35 1003.04 1133.87 991.05 1133.92 C 942.38 1133.91 893.71 1133.94 845.04 1133.90 C 845.14 1093.93 845.04 1053.95 845.09 1013.97 C 845.15 1009.50 845.05 1005.03 845.03 1000.57 C 845.61 992.78 844.73 984.98 845.14 977.19 C 848.33 977.07 851.53 977.01 854.73 977.05 C 858.51 977.07 862.30 977.13 866.10 977.10 C 867.33 977.08 868.58 977.04 869.84 977.00 C 869.91 973.67 869.84 970.35 869.69 967.04 C 869.54 960.86 869.70 954.68 869.63 948.51 C 869.69 929.29 869.63 910.06 869.73 890.84 C 863.72 890.84 857.72 890.86 851.71 890.88 C 849.47 890.87 847.24 890.88 845.02 890.88 C 845.04 864.60 845.02 838.31 845.03 812.02 C 845.06 808.27 845.14 804.51 844.59 800.80 C 845.76 789.77 844.80 778.63 844.95 767.55 C 845.51 761.27 844.64 754.99 844.90 748.71 C 845.12 745.01 845.08 741.30 844.77 737.61 C 844.82 736.72 844.93 734.92 844.98 734.02 M 870.06 758.26 C 870.20 774.21 869.98 790.17 870.17 806.13 C 914.11 806.10 958.06 806.12 1002.00 806.12 C 1014.95 806.11 1027.67 811.13 1037.50 819.47 C 1051.08 830.89 1058.68 848.46 1059.34 866.03 C 1059.30 906.68 1059.33 947.34 1059.32 987.99 C 1059.22 995.83 1059.79 1003.73 1058.29 1011.48 C 1056.38 1021.46 1052.42 1031.15 1046.18 1039.22 C 1036.08 1052.57 1019.91 1061.37 1003.08 1061.70 C 958.64 1061.72 914.20 1061.69 869.76 1061.72 C 869.76 1077.66 869.81 1093.60 869.74 1109.55 C 916.50 1109.57 963.26 1109.58 1010.02 1109.54 C 1044.34 1108.04 1076.21 1086.67 1093.14 1057.17 C 1103.09 1040.24 1108.36 1020.65 1108.24 1001.02 C 1108.22 956.00 1108.21 910.98 1108.24 865.95 C 1108.14 851.37 1105.30 836.77 1099.51 823.36 C 1087.36 794.08 1061.81 770.57 1031.27 761.74 C 1021.47 758.81 1011.18 757.95 1000.99 758.24 C 957.34 758.25 913.70 758.22 870.06 758.26 M 870.12 818.84 C 870.05 834.69 870.26 850.55 870.01 866.40 C 911.37 866.51 952.73 866.40 994.09 866.45 C 996.27 866.39 997.97 868.11 999.34 869.62 C 1001.86 872.77 1001.22 877.03 1001.22 880.78 C 965.69 880.77 930.17 880.80 894.64 880.77 C 894.64 896.48 894.63 912.19 894.65 927.90 C 901.78 928.14 908.93 928.23 916.08 927.91 C 935.06 928.22 954.04 928.02 973.03 928.05 C 997.31 927.85 1021.60 928.34 1045.89 927.93 C 1045.79 908.63 1045.92 889.32 1045.83 870.02 C 1044.93 854.76 1038.54 839.33 1026.51 829.52 C 1018.32 822.62 1007.70 818.89 997.01 818.83 C 954.71 818.85 912.42 818.83 870.12 818.84 M 894.57 939.63 C 894.58 955.58 894.62 971.54 894.54 987.49 C 930.08 987.56 965.61 987.47 1001.15 987.54 C 1001.08 990.68 1001.56 994.08 1000.00 996.98 C 998.53 999.86 995.34 1001.77 992.09 1001.56 C 951.31 1001.53 910.52 1001.56 869.74 1001.54 C 869.79 1017.40 869.74 1033.25 869.77 1049.10 C 906.18 1049.10 942.59 1049.10 979.00 1049.10 C 988.95 1048.81 999.11 1050.04 1008.87 1047.52 C 1025.48 1043.29 1038.49 1029.18 1043.17 1012.93 C 1047.06 1001.70 1046.00 989.71 1046.13 978.05 C 1046.13 965.25 1046.11 952.45 1046.14 939.65 C 995.61 939.60 945.09 939.64 894.57 939.63 Z" />
</g>
<g id="#034693ff">
<path fill="#034693" opacity="1.00" d=" M 472.22 316.22 C 488.63 307.42 507.93 305.63 526.18 307.82 C 540.48 309.51 554.04 315.73 565.14 324.82 C 579.37 336.51 589.25 352.48 596.87 369.05 C 604.40 386.10 611.24 403.45 618.52 420.61 C 624.55 406.27 630.37 391.84 636.53 377.55 C 643.89 361.69 651.82 345.71 663.82 332.78 C 675.02 320.28 690.31 311.29 706.91 308.43 C 720.85 306.11 735.34 306.45 749.02 310.10 C 764.36 314.32 778.37 323.13 788.88 335.08 C 800.70 348.14 808.98 364.20 813.69 381.13 C 847.91 497.17 882.12 613.21 916.37 729.23 C 916.83 730.82 917.30 732.42 917.77 734.02 C 893.51 734.00 869.24 734.01 844.98 734.02 C 844.93 734.92 844.82 736.72 844.77 737.61 C 844.66 737.16 844.44 736.24 844.33 735.78 C 813.36 628.88 781.98 522.09 750.88 415.22 C 749.82 410.87 747.01 407.17 743.49 404.49 C 737.65 400.01 730.47 396.65 722.96 397.08 C 714.55 397.39 706.73 402.12 701.70 408.73 C 698.80 412.45 697.87 417.18 696.44 421.58 C 670.46 505.17 644.51 588.76 618.52 672.35 C 591.85 586.63 565.25 500.89 538.60 415.17 C 534.04 401.53 517.23 393.27 503.74 398.74 C 496.43 401.71 488.67 406.54 486.37 414.58 C 432.62 598.72 378.88 782.86 325.12 966.99 C 300.26 967.00 275.41 967.01 250.55 966.99 C 305.86 779.47 361.18 591.94 416.49 404.42 C 421.02 389.66 424.49 374.45 431.47 360.58 C 440.12 342.17 453.92 325.61 472.22 316.22 Z" />
<path fill="#034693" opacity="1.00" d=" M 502.13 425.18 C 505.80 421.96 510.95 419.44 515.89 421.01 C 520.47 422.54 524.81 425.91 526.19 430.70 C 556.97 532.69 587.73 634.68 618.51 736.66 C 648.76 636.51 678.97 536.35 709.19 436.20 C 710.42 432.38 711.07 428.03 714.20 425.20 C 717.52 422.06 722.22 419.66 726.89 420.82 C 730.30 421.69 733.45 423.60 735.87 426.15 C 738.39 428.81 738.89 432.60 739.94 435.96 C 769.63 539.81 799.34 643.66 829.05 747.50 C 829.71 749.83 830.37 752.16 831.04 754.49 C 824.06 763.53 821.55 775.07 820.41 786.20 C 819.98 793.46 818.62 800.67 819.06 807.97 C 819.16 836.31 819.03 864.65 819.11 893.00 C 818.71 902.73 819.91 912.42 820.79 922.09 C 822.02 932.85 825.71 943.31 831.72 952.33 C 834.70 956.94 837.12 961.88 839.05 967.02 C 832.73 967.03 826.40 967.00 820.08 967.00 C 788.17 854.00 756.28 740.99 724.37 627.99 C 689.04 741.02 653.83 854.08 618.51 967.11 C 583.23 854.06 547.97 741.01 512.69 627.97 C 481.72 740.98 450.73 853.98 419.77 966.99 C 394.91 967.00 370.05 967.00 345.20 966.99 C 395.73 790.32 446.29 613.65 496.82 436.97 C 498.11 432.88 498.63 428.11 502.13 425.18 Z" />
</g>
<g id="#f6f6f6ff">
<path fill="#f6f6f6" opacity="1.00" d=" M 916.37 729.23 C 934.77 728.21 953.23 729.21 971.66 728.75 C 972.15 730.51 972.66 732.28 973.17 734.06 C 954.70 734.07 936.24 734.13 917.77 734.02 C 917.30 732.42 916.83 730.82 916.37 729.23 Z" />
</g>
<g id="#f7f7f7ff">
<path fill="#f7f7f7" opacity="1.00" d=" M 829.05 747.50 C 834.22 743.68 838.63 738.88 844.33 735.78 C 844.44 736.24 844.66 737.16 844.77 737.61 C 845.08 741.30 845.12 745.01 844.90 748.71 C 840.43 752.53 837.32 757.60 833.09 761.64 C 832.41 759.25 831.72 756.87 831.04 754.49 C 830.37 752.16 829.71 749.83 829.05 747.50 Z" />
</g>
<g id="#e9e9e9ff">
<path fill="#e9e9e9" opacity="1.00" d=" M 833.09 761.64 C 837.32 757.60 840.43 752.53 844.90 748.71 C 844.64 754.99 845.51 761.27 844.95 767.55 C 842.54 771.51 840.86 775.88 838.28 779.73 C 836.58 773.69 834.77 767.68 833.09 761.64 Z" />
</g>
<g id="#034187ff">
<path fill="#034187" opacity="1.00" d=" M 820.41 786.20 C 821.55 775.07 824.06 763.53 831.04 754.49 C 831.72 756.87 832.41 759.25 833.09 761.64 C 834.77 767.68 836.58 773.69 838.28 779.73 C 839.18 782.99 840.13 786.22 841.06 789.48 C 839.32 794.80 838.79 800.41 838.78 805.98 C 838.78 835.31 838.77 864.63 838.77 893.95 C 838.42 906.15 840.08 918.47 843.94 930.06 C 848.08 942.92 856.46 953.96 860.09 967.01 C 857.69 967.00 855.29 966.99 852.90 967.02 C 848.87 967.04 844.84 966.97 840.82 967.01 C 840.38 967.01 839.50 967.02 839.05 967.02 C 837.12 961.88 834.70 956.94 831.72 952.33 C 825.71 943.31 822.02 932.85 820.79 922.09 C 819.91 912.42 818.71 902.73 819.11 893.00 C 819.03 864.65 819.16 836.31 819.06 807.97 C 818.62 800.67 819.98 793.46 820.41 786.20 Z" />
</g>
<g id="#eea900ff">
<path fill="#eea900" opacity="1.00" d=" M 870.06 758.26 C 913.70 758.22 957.34 758.25 1000.99 758.24 C 1011.18 757.95 1021.47 758.81 1031.27 761.74 C 1061.81 770.57 1087.36 794.08 1099.51 823.36 C 1105.30 836.77 1108.14 851.37 1108.24 865.95 C 1108.21 910.98 1108.22 956.00 1108.24 1001.02 C 1108.36 1020.65 1103.09 1040.24 1093.14 1057.17 C 1076.21 1086.67 1044.34 1108.04 1010.02 1109.54 C 963.26 1109.58 916.50 1109.57 869.74 1109.55 C 869.81 1093.60 869.76 1077.66 869.76 1061.72 C 914.20 1061.69 958.64 1061.72 1003.08 1061.70 C 1019.91 1061.37 1036.08 1052.57 1046.18 1039.22 C 1052.42 1031.15 1056.38 1021.46 1058.29 1011.48 C 1059.79 1003.73 1059.22 995.83 1059.32 987.99 C 1059.33 947.34 1059.30 906.68 1059.34 866.03 C 1058.68 848.46 1051.08 830.89 1037.50 819.47 C 1027.67 811.13 1014.95 806.11 1002.00 806.12 C 958.06 806.12 914.11 806.10 870.17 806.13 C 869.98 790.17 870.20 774.21 870.06 758.26 Z" />
<path fill="#eea900" opacity="1.00" d=" M 870.12 818.84 C 912.42 818.83 954.71 818.85 997.01 818.83 C 1007.70 818.89 1018.32 822.62 1026.51 829.52 C 1038.54 839.33 1044.93 854.76 1045.83 870.02 C 1045.92 889.32 1045.79 908.63 1045.89 927.93 C 1021.60 928.34 997.31 927.85 973.03 928.05 C 954.04 928.02 935.06 928.22 916.08 927.91 C 908.93 928.23 901.78 928.14 894.65 927.90 C 894.63 912.19 894.64 896.48 894.64 880.77 C 930.17 880.80 965.69 880.77 1001.22 880.78 C 1001.22 877.03 1001.86 872.77 999.34 869.62 C 997.97 868.11 996.27 866.39 994.09 866.45 C 952.73 866.40 911.37 866.51 870.01 866.40 C 870.26 850.55 870.05 834.69 870.12 818.84 Z" />
<path fill="#eea900" opacity="1.00" d=" M 894.57 939.63 C 945.09 939.64 995.61 939.60 1046.14 939.65 C 1046.11 952.45 1046.13 965.25 1046.13 978.05 C 1046.00 989.71 1047.06 1001.70 1043.17 1012.93 C 1038.49 1029.18 1025.48 1043.29 1008.87 1047.52 C 999.11 1050.04 988.95 1048.81 979.00 1049.10 C 942.59 1049.10 906.18 1049.10 869.77 1049.10 C 869.74 1033.25 869.79 1017.40 869.74 1001.54 C 910.52 1001.56 951.31 1001.53 992.09 1001.56 C 995.34 1001.77 998.53 999.86 1000.00 996.98 C 1001.56 994.08 1001.08 990.68 1001.15 987.54 C 965.61 987.47 930.08 987.56 894.54 987.49 C 894.62 971.54 894.58 955.58 894.57 939.63 Z" />
</g>
<g id="#d6d6d6ff">
<path fill="#d6d6d6" opacity="1.00" d=" M 838.28 779.73 C 840.86 775.88 842.54 771.51 844.95 767.55 C 844.80 778.63 845.76 789.77 844.59 800.80 C 843.16 797.10 842.14 793.28 841.06 789.48 C 840.13 786.22 839.18 782.99 838.28 779.73 Z" />
</g>
<g id="#023774ff">
<path fill="#023774" opacity="1.00" d=" M 838.78 805.98 C 838.79 800.41 839.32 794.80 841.06 789.48 C 842.14 793.28 843.16 797.10 844.59 800.80 C 845.14 804.51 845.06 808.27 845.03 812.02 C 845.02 838.31 845.04 864.60 845.02 890.88 C 847.24 890.88 849.47 890.87 851.71 890.88 C 852.31 904.36 853.34 918.30 859.30 930.65 C 862.36 936.80 865.24 943.15 869.63 948.51 C 869.70 954.68 869.54 960.86 869.69 967.04 C 867.38 967.01 865.08 967.00 862.78 967.01 C 862.11 967.01 860.76 967.01 860.09 967.01 C 856.46 953.96 848.08 942.92 843.94 930.06 C 840.08 918.47 838.42 906.15 838.77 893.95 C 838.77 864.63 838.78 835.31 838.78 805.98 Z" />
</g>
<g id="#022b5bff">
<path fill="#022b5b" opacity="1.00" d=" M 851.71 890.88 C 857.72 890.86 863.72 890.84 869.73 890.84 C 869.63 910.06 869.69 929.29 869.63 948.51 C 865.24 943.15 862.36 936.80 859.30 930.65 C 853.34 918.30 852.31 904.36 851.71 890.88 Z" />
</g>
<g id="#f0f0f0ff">
<path fill="#f0f0f0" opacity="1.00" d=" M 840.82 967.01 C 844.84 966.97 848.87 967.04 852.90 967.02 C 853.25 970.40 853.87 973.75 854.73 977.05 C 851.53 977.01 848.33 977.07 845.14 977.19 C 844.73 984.98 845.61 992.78 845.03 1000.57 C 842.21 1004.79 840.00 1009.37 837.91 1013.99 C 833.53 1013.96 829.15 1014.03 824.78 1013.99 C 827.98 1002.51 836.42 993.42 840.02 982.11 C 841.25 977.18 840.63 972.03 840.82 967.01 Z" />
</g>
<g id="#dbdbdbff">
<path fill="#dbdbdb" opacity="1.00" d=" M 852.90 967.02 C 855.29 966.99 857.69 967.00 860.09 967.01 C 860.76 967.01 862.11 967.01 862.78 967.01 C 862.79 970.60 861.54 975.77 866.10 977.10 C 862.30 977.13 858.51 977.07 854.73 977.05 C 853.87 973.75 853.25 970.40 852.90 967.02 Z" />
</g>
<g id="#c8c8c8ff">
<path fill="#c8c8c8" opacity="1.00" d=" M 862.78 967.01 C 865.08 967.00 867.38 967.01 869.69 967.04 C 869.84 970.35 869.91 973.67 869.84 977.00 C 868.58 977.04 867.33 977.08 866.10 977.10 C 861.54 975.77 862.79 970.60 862.78 967.01 Z" />
</g>
<g id="#e0e0e0ff">
<path fill="#e0e0e0" opacity="1.00" d=" M 837.91 1013.99 C 840.00 1009.37 842.21 1004.79 845.03 1000.57 C 845.05 1005.03 845.15 1009.50 845.09 1013.97 C 842.69 1013.98 840.30 1014.00 837.91 1013.99 Z" />
</g>
</svg>
