<?xml version="1.0" encoding="UTF-8" ?>
<!DOCTYPE svg PUBLIC "-//W3C//DTD SVG 1.1//EN" "http://www.w3.org/Graphics/SVG/1.1/DTD/svg11.dtd">
<svg width="1276pt" height="1276pt" viewBox="0 0 1276 1276" version="1.1" xmlns="http://www.w3.org/2000/svg">
<g id="#ffff00ff">
<path fill="#ffff00" opacity="1.00" d=" M 638.01 185.38 C 797.97 243.50 958.00 301.74 1117.97 359.96 C 1117.95 432.17 1117.91 504.39 1117.99 576.60 C 1087.43 565.53 1056.84 554.51 1026.37 543.22 C 1026.62 606.37 1026.36 669.54 1026.50 732.70 C 1056.97 721.54 1087.43 710.35 1118.00 699.46 C 1117.90 771.65 1117.96 843.85 1117.97 916.04 C 1034.29 946.53 950.58 976.93 866.90 1007.41 C 790.84 1034.99 714.87 1062.83 638.77 1090.29 C 639.24 1026.20 638.74 962.10 638.98 898.00 C 638.47 890.22 639.49 882.41 638.73 874.64 L 638.67 873.84 C 695.83 852.73 753.21 832.18 810.42 811.20 C 810.42 695.72 810.39 580.24 810.44 464.76 C 753.19 443.99 695.99 423.07 638.72 402.35 C 639.14 336.23 638.78 270.10 638.89 203.98 C 638.65 197.99 639.66 191.85 637.87 186.02 L 638.01 185.38 M 666.48 227.29 C 666.57 278.59 666.49 329.89 666.52 381.20 C 807.20 432.31 947.85 483.52 1088.50 534.72 C 1088.49 483.41 1088.42 432.10 1088.54 380.79 C 1023.43 356.93 958.21 333.36 893.07 309.59 C 817.52 282.21 742.09 254.47 666.48 227.29 M 814.20 465.36 C 813.88 465.65 813.23 466.23 812.90 466.52 C 817.44 468.06 821.80 470.08 826.39 471.51 C 839.55 475.61 852.08 481.48 865.37 485.17 L 864.93 484.08 C 855.25 480.24 845.52 476.50 835.58 473.39 C 828.51 470.56 821.40 467.82 814.20 465.36 M 865.63 484.65 L 866.17 485.72 C 872.42 488.18 878.65 490.94 885.24 492.40 L 884.95 491.27 C 878.59 488.87 872.34 485.85 865.63 484.65 M 886.23 492.22 C 885.76 493.78 889.43 494.88 889.78 493.35 C 888.96 492.42 887.41 491.58 886.23 492.22 M 890.95 493.67 L 890.83 494.79 C 898.91 497.62 906.76 501.17 915.07 503.31 L 915.14 502.20 C 907.07 499.37 899.24 495.84 890.95 493.67 M 915.54 502.78 C 915.96 504.35 917.88 504.39 919.10 505.06 C 926.14 507.56 932.93 510.99 940.33 512.30 L 939.91 511.26 C 931.85 508.27 923.95 504.65 915.54 502.78 M 941.24 512.23 C 941.79 512.77 941.79 512.77 941.24 512.23 M 942.58 512.69 L 943.18 513.64 C 954.85 518.80 967.26 522.05 979.00 527.04 C 983.45 528.57 987.79 530.53 992.44 531.42 L 991.98 530.30 C 985.07 527.19 977.83 524.88 970.68 522.43 C 961.25 519.36 952.34 514.66 942.58 512.69 M 993.31 531.20 C 993.17 532.61 995.68 533.35 996.78 532.75 C 997.02 531.21 994.41 530.54 993.31 531.20 M 997.71 532.61 L 998.15 533.70 C 1006.07 536.94 1014.08 540.16 1022.40 542.23 L 1021.94 541.25 C 1013.93 538.24 1006.11 534.44 997.71 532.61 M 1023.21 542.06 C 1023.38 545.28 1026.28 540.57 1023.21 542.06 Z" />
</g>
<g id="#3094bfff">
<path fill="#3094bf" opacity="1.00" d=" M 156.08 360.07 C 316.62 301.95 477.04 243.46 637.59 185.37 L 637.51 186.24 C 637.18 188.21 638.26 190.07 638.32 192.04 C 638.32 248.68 638.32 305.33 638.32 361.98 C 638.21 375.39 638.55 388.80 638.15 402.20 C 580.18 422.77 522.44 444.07 464.56 464.93 C 464.52 580.38 464.53 695.83 464.55 811.28 C 392.30 785.03 320.03 758.82 247.78 732.57 C 247.85 669.56 247.70 606.56 247.86 543.55 C 217.17 554.37 186.72 565.86 156.01 576.61 C 156.13 504.43 156.00 432.25 156.08 360.07 Z" />
</g>
<g id="#ffffffff">
<path fill="#ffffff" opacity="1.00" d=" M 637.51 186.24 L 637.87 186.02 C 639.66 191.85 638.65 197.99 638.89 203.98 C 638.78 270.10 639.14 336.23 638.72 402.35 L 638.15 402.20 C 638.55 388.80 638.21 375.39 638.32 361.98 C 638.32 305.33 638.32 248.68 638.32 192.04 C 638.26 190.07 637.18 188.21 637.51 186.24 Z" />
<path fill="#ffffff" opacity="1.00" d=" M 156.01 699.38 C 186.68 710.21 217.18 721.55 247.78 732.57 C 320.03 758.82 392.30 785.03 464.55 811.28 C 522.28 832.29 580.09 853.09 637.76 874.26 L 638.67 873.84 L 638.73 874.64 C 638.80 880.43 638.98 886.23 638.42 892.00 C 639.12 899.31 638.63 906.66 638.80 914.00 C 638.10 925.31 639.12 936.62 638.78 947.97 C 638.11 954.64 639.13 961.32 638.80 968.02 C 638.06 977.35 639.47 986.73 638.46 996.07 C 639.15 1010.02 638.60 1024.03 638.80 1038.01 C 638.22 1050.62 639.38 1063.30 638.47 1075.93 C 639.33 1080.97 638.25 1086.03 638.50 1091.08 C 477.70 1032.67 316.82 974.52 156.01 916.15 C 156.08 843.89 156.09 771.63 156.01 699.38 Z" />
</g>
<g id="#000000ff">
<path fill="#000000" opacity="1.00" d=" M 666.48 227.29 C 742.09 254.47 817.52 282.21 893.07 309.59 C 958.21 333.36 1023.43 356.93 1088.54 380.79 C 1088.42 432.10 1088.49 483.41 1088.50 534.72 C 947.85 483.52 807.20 432.31 666.52 381.20 C 666.49 329.89 666.57 278.59 666.48 227.29 Z" />
</g>
<g id="#d9d900d9">
<path fill="#d9d900" opacity="0.85" d=" M 814.20 465.36 C 821.40 467.82 828.51 470.56 835.58 473.39 C 845.52 476.50 855.25 480.24 864.93 484.08 L 865.37 485.17 C 852.08 481.48 839.55 475.61 826.39 471.51 C 821.80 470.08 817.44 468.06 812.90 466.52 C 813.23 466.23 813.88 465.65 814.20 465.36 Z" />
</g>
<g id="#d8d800d8">
<path fill="#d8d800" opacity="0.85" d=" M 865.63 484.65 C 872.34 485.85 878.59 488.87 884.95 491.27 L 885.24 492.40 C 878.65 490.94 872.42 488.18 866.17 485.72 L 865.63 484.65 Z" />
<path fill="#d8d800" opacity="0.85" d=" M 915.54 502.78 C 923.95 504.65 931.85 508.27 939.91 511.26 L 940.33 512.30 C 932.93 510.99 926.14 507.56 919.10 505.06 C 917.88 504.39 915.96 504.35 915.54 502.78 Z" />
<path fill="#d8d800" opacity="0.85" d=" M 942.58 512.69 C 952.34 514.66 961.25 519.36 970.68 522.43 C 977.83 524.88 985.07 527.19 991.98 530.30 L 992.44 531.42 C 987.79 530.53 983.45 528.57 979.00 527.04 C 967.26 522.05 954.85 518.80 943.18 513.64 L 942.58 512.69 Z" />
<path fill="#d8d800" opacity="0.85" d=" M 997.71 532.61 C 1006.11 534.44 1013.93 538.24 1021.94 541.25 L 1022.40 542.23 C 1014.08 540.16 1006.07 536.94 998.15 533.70 L 997.71 532.61 Z" />
</g>
<g id="#d2d200d2">
<path fill="#d2d200" opacity="0.82" d=" M 886.23 492.22 C 887.41 491.58 888.96 492.42 889.78 493.35 C 889.43 494.88 885.76 493.78 886.23 492.22 Z" />
<path fill="#d2d200" opacity="0.82" d=" M 993.31 531.20 C 994.41 530.54 997.02 531.21 996.78 532.75 C 995.68 533.35 993.17 532.61 993.31 531.20 Z" />
</g>
<g id="#d7d700d7">
<path fill="#d7d700" opacity="0.84" d=" M 890.95 493.67 C 899.24 495.84 907.07 499.37 915.14 502.20 L 915.07 503.31 C 906.76 501.17 898.91 497.62 890.83 494.79 L 890.95 493.67 Z" />
</g>
<g id="#b8b800b8">
<path fill="#b8b800" opacity="0.72" d=" M 941.24 512.23 C 941.79 512.77 941.79 512.77 941.24 512.23 Z" />
</g>
<g id="#c6c600c6">
<path fill="#c6c600" opacity="0.78" d=" M 1023.21 542.06 C 1026.28 540.57 1023.38 545.28 1023.21 542.06 Z" />
</g>
</svg>
