<?xml version="1.0" encoding="UTF-8" ?>
<!DOCTYPE svg PUBLIC "-//W3C//DTD SVG 1.1//EN" "http://www.w3.org/Graphics/SVG/1.1/DTD/svg11.dtd">
<svg width="1276pt" height="1276pt" viewBox="0 0 1276 1276" version="1.1" xmlns="http://www.w3.org/2000/svg">
<g id="#3094bfff">
<path fill="#3094bf" opacity="1.00" d=" M 608.00 196.05 C 617.53 192.36 627.36 189.39 636.75 185.34 C 637.39 186.48 637.82 187.69 638.05 188.98 C 637.74 203.33 638.16 217.67 637.89 232.02 C 638.71 241.36 637.25 250.72 638.19 260.07 C 637.63 284.37 638.22 308.72 637.91 333.02 C 638.44 345.01 637.57 357.01 638.13 369.01 C 637.38 380.23 638.69 391.53 637.20 402.71 C 635.15 402.75 633.34 403.83 631.45 404.44 C 575.83 424.59 520.22 444.77 464.59 464.90 C 464.47 580.36 464.55 695.82 464.55 811.28 C 392.30 785.03 320.03 758.82 247.78 732.57 C 247.86 669.57 247.69 606.57 247.87 543.58 C 217.16 554.32 186.73 565.90 156.01 576.59 C 156.13 504.42 156.00 432.24 156.07 360.07 C 306.75 305.49 457.35 250.69 608.00 196.05 Z" />
<path fill="#3094bf" opacity="1.00" d=" M 812.16 464.85 C 884.36 491.00 956.57 517.12 1028.75 543.31 C 1028.78 606.41 1028.81 669.50 1028.74 732.60 C 1059.60 721.88 1090.17 710.25 1120.99 699.39 C 1120.91 771.64 1120.91 843.88 1120.99 916.12 C 1000.36 960.06 879.56 1003.58 758.87 1047.38 C 719.19 1061.83 679.37 1075.97 639.78 1090.66 C 640.30 1066.79 639.83 1042.90 640.01 1019.02 C 639.92 970.59 640.16 922.15 639.88 873.73 C 685.29 857.58 730.51 840.86 775.87 824.55 C 787.95 820.03 800.17 815.88 812.21 811.23 C 812.12 695.77 812.22 580.31 812.16 464.85 Z" />
</g>
<g id="#ffffffff">
<path fill="#ffffff" opacity="1.00" d=" M 638.09 186.91 C 638.77 186.40 639.47 185.91 640.18 185.43 C 674.49 198.37 709.13 210.52 743.57 223.16 C 869.36 268.75 995.11 314.48 1120.92 360.02 C 1121.01 432.21 1120.86 504.40 1121.00 576.60 C 1090.19 565.69 1059.52 554.34 1028.75 543.31 C 956.57 517.12 884.36 491.00 812.16 464.85 C 754.77 444.08 697.41 423.25 640.01 402.53 L 638.77 402.54 C 638.60 400.71 638.39 398.89 638.26 397.06 C 638.10 327.01 638.48 256.95 638.09 186.91 Z" />
<path fill="#ffffff" opacity="1.00" d=" M 156.00 699.41 C 186.69 710.17 217.17 721.57 247.78 732.57 C 320.03 758.82 392.30 785.03 464.55 811.28 C 497.87 823.34 531.16 835.50 564.49 847.53 C 589.17 856.69 614.07 865.28 638.66 874.68 C 638.17 903.12 638.59 931.60 638.45 960.05 C 638.51 1003.49 638.33 1046.94 638.53 1090.38 L 638.56 1091.05 C 477.71 1032.76 316.86 974.48 156.02 916.16 C 156.07 843.91 156.10 771.66 156.00 699.41 Z" />
</g>
<g id="#1285b6ff">
<path fill="#1285b6" opacity="1.00" d=" M 638.66 874.68 L 639.88 873.73 C 640.16 922.15 639.92 970.59 640.01 1019.02 C 639.83 1042.90 640.30 1066.79 639.78 1090.66 L 638.53 1090.38 C 638.33 1046.94 638.51 1003.49 638.45 960.05 C 638.59 931.60 638.17 903.12 638.66 874.68 Z" />
</g>
</svg>
