<?xml version="1.0" encoding="UTF-8" ?>
<!DOCTYPE svg PUBLIC "-//W3C//DTD SVG 1.1//EN" "http://www.w3.org/Graphics/SVG/1.1/DTD/svg11.dtd">
<svg width="1276pt" height="1276pt" viewBox="0 0 1276 1276" version="1.1" xmlns="http://www.w3.org/2000/svg">
<g id="#ffffffff">
<path fill="#ffffff" opacity="1.00" d=" M 163.01 440.08 C 479.99 440.04 796.97 440.02 1113.95 440.09 C 1113.82 521.31 1113.93 602.53 1113.89 683.75 C 1119.59 683.87 1125.32 683.47 1131.01 683.95 C 1135.03 684.26 1138.72 686.99 1139.86 690.92 C 1141.07 694.48 1140.63 698.27 1140.70 701.96 C 1140.69 768.33 1140.69 834.71 1140.70 901.09 C 1140.56 904.37 1139.84 908.01 1137.09 910.14 C 1133.76 912.92 1129.06 913.05 1124.93 913.02 C 1113.28 912.98 1101.63 913.02 1089.98 913.00 C 1086.39 912.89 1082.44 911.91 1080.18 908.90 C 1078.16 906.43 1077.70 903.11 1077.73 900.03 C 1077.77 878.65 1077.73 857.27 1077.75 835.89 C 772.83 835.88 467.92 835.92 163.01 835.87 C 163.08 703.94 163.08 572.01 163.01 440.08 M 172.18 449.31 C 172.37 465.21 172.21 481.12 172.26 497.03 C 172.23 606.96 172.34 716.89 172.21 826.82 C 474.06 826.88 775.90 826.83 1077.75 826.84 C 1077.81 804.68 1077.60 782.52 1077.86 760.37 C 1073.88 763.17 1069.66 765.61 1065.65 768.37 C 1062.31 770.64 1057.98 772.35 1054.02 770.72 C 1050.39 769.72 1048.37 766.17 1047.23 762.84 C 1042.97 751.04 1038.58 739.29 1034.38 727.47 C 1032.39 722.64 1034.17 716.36 1038.82 713.73 C 1053.17 704.46 1067.47 695.10 1081.79 685.79 C 1088.96 682.11 1097.36 684.39 1105.08 683.72 C 1104.98 605.58 1104.96 527.43 1105.07 449.29 C 794.11 449.25 483.14 449.22 172.18 449.31 M 1043.30 722.81 C 1047.91 735.78 1052.85 748.64 1057.34 761.66 C 1067.58 755.25 1077.64 748.56 1087.81 742.06 C 1087.86 795.70 1087.82 849.35 1087.83 903.00 C 1102.07 903.00 1116.30 903.00 1130.54 903.00 C 1130.53 833.27 1130.54 763.54 1130.53 693.82 C 1116.30 693.85 1102.08 693.83 1087.85 693.83 C 1073.01 703.50 1058.16 713.18 1043.30 722.81 Z" />
</g>
<g id="#000000ff">
<path fill="#000000" opacity="1.00" d=" M 172.18 449.31 C 483.14 449.22 794.11 449.25 1105.07 449.29 C 1104.96 527.43 1104.98 605.58 1105.08 683.72 C 1097.36 684.39 1088.96 682.11 1081.79 685.79 C 1067.47 695.10 1053.17 704.46 1038.82 713.73 C 1034.17 716.36 1032.39 722.64 1034.38 727.47 C 1038.58 739.29 1042.97 751.04 1047.23 762.84 C 1048.37 766.17 1050.39 769.72 1054.02 770.72 C 1057.98 772.35 1062.31 770.64 1065.65 768.37 C 1069.66 765.61 1073.88 763.17 1077.86 760.37 C 1077.60 782.52 1077.81 804.68 1077.75 826.84 C 775.90 826.83 474.06 826.88 172.21 826.82 C 172.34 716.89 172.23 606.96 172.26 497.03 C 172.21 481.12 172.37 465.21 172.18 449.31 M 318.25 505.58 C 310.85 533.74 302.65 561.69 295.24 589.85 C 285.91 625.27 275.53 660.43 266.39 695.89 C 259.44 720.79 252.74 745.76 245.68 770.62 C 269.44 770.62 293.20 770.62 316.97 770.62 C 321.91 752.44 326.64 734.20 331.78 716.07 C 337.50 694.65 343.99 673.43 349.12 651.86 C 350.52 655.04 351.17 658.47 352.18 661.79 C 357.57 681.50 363.08 701.19 368.45 720.91 C 373.22 737.41 377.15 754.13 381.97 770.63 C 402.62 770.60 423.28 770.63 443.93 770.62 C 450.04 749.31 455.38 727.81 461.38 706.48 C 466.62 688.33 471.10 669.96 476.72 651.93 C 486.94 691.64 498.60 730.97 508.95 770.64 C 565.30 770.66 621.65 770.80 678.00 770.74 C 693.17 770.58 708.83 771.60 723.41 766.58 C 737.01 762.44 749.01 754.01 758.42 743.46 C 768.24 732.07 774.11 717.76 776.74 703.06 C 780.26 683.19 776.83 662.29 767.56 644.42 C 761.56 633.61 752.94 624.32 742.82 617.25 C 733.12 611.27 722.33 607.00 711.06 605.17 C 700.80 603.36 690.36 603.92 680.00 603.84 C 664.99 603.85 649.99 603.83 634.98 603.85 C 630.56 604.00 625.94 602.43 623.05 598.97 C 617.96 593.29 618.13 583.85 623.31 578.29 C 626.25 574.99 630.74 573.54 635.07 573.61 C 692.39 573.61 749.70 573.65 807.01 573.59 C 821.45 593.72 835.64 614.01 850.19 634.06 C 836.51 652.49 823.56 671.43 810.10 690.02 C 803.56 699.18 797.01 708.31 790.61 717.56 C 777.71 735.10 765.54 753.17 752.60 770.68 C 780.64 770.57 808.69 770.60 836.73 770.66 C 841.68 764.25 846.32 757.60 850.81 750.86 C 858.70 740.04 866.38 729.07 874.28 718.26 C 879.78 709.53 886.40 701.57 892.05 692.95 C 898.85 702.47 905.53 712.08 912.30 721.64 C 924.24 737.77 935.41 754.44 947.30 770.60 C 975.38 770.70 1003.47 770.49 1031.56 770.71 C 1024.53 761.23 1017.88 751.47 1010.84 742.01 C 1004.21 731.80 996.69 722.23 989.77 712.23 C 983.45 703.53 977.43 694.63 971.16 685.90 C 958.47 668.82 946.79 651.02 933.93 634.07 C 946.55 616.89 958.60 599.30 971.11 582.04 C 977.86 572.77 984.32 563.31 990.96 553.97 C 1002.81 538.01 1013.83 521.44 1025.67 505.47 C 997.54 505.58 969.42 505.39 941.29 505.57 C 929.49 522.27 917.80 539.04 905.70 555.53 C 901.30 562.08 896.82 568.58 892.05 574.88 C 882.49 561.73 873.31 548.32 863.81 535.13 C 856.60 525.42 849.81 515.43 842.86 505.55 C 779.91 505.43 716.96 505.53 654.01 505.50 C 642.99 505.64 631.93 505.08 620.94 506.12 C 605.76 508.08 590.88 514.04 579.31 524.20 C 567.63 533.63 559.51 546.95 555.14 561.22 C 548.87 581.06 549.51 603.10 557.32 622.42 C 562.43 636.84 572.68 649.12 585.00 658.02 C 598.80 667.29 615.41 672.04 631.98 672.26 C 653.25 672.31 674.52 672.18 695.79 672.32 C 703.86 672.45 710.40 680.25 709.63 688.18 C 709.55 695.92 702.71 702.70 694.91 702.48 C 650.37 702.51 605.83 702.51 561.29 702.48 C 554.39 675.22 546.46 648.22 539.15 621.06 C 534.24 604.00 530.16 586.73 525.19 569.69 C 519.44 548.31 513.23 527.05 507.66 505.62 C 486.86 505.39 466.04 505.47 445.23 505.58 C 439.81 526.14 433.94 546.58 428.38 567.11 C 423.63 586.16 418.00 604.98 413.00 623.97 C 408.30 606.92 403.37 589.93 399.11 572.76 C 392.97 550.38 386.60 528.05 380.68 505.60 C 359.87 505.42 339.06 505.45 318.25 505.58 Z" />
<path fill="#000000" opacity="1.00" d=" M 1043.30 722.81 C 1058.16 713.18 1073.01 703.50 1087.85 693.83 C 1102.08 693.83 1116.30 693.85 1130.53 693.82 C 1130.54 763.54 1130.53 833.27 1130.54 903.00 C 1116.30 903.00 1102.07 903.00 1087.83 903.00 C 1087.82 849.35 1087.86 795.70 1087.81 742.06 C 1077.64 748.56 1067.58 755.25 1057.34 761.66 C 1052.85 748.64 1047.91 735.78 1043.30 722.81 Z" />
</g>
<g id="#fffffaff">
<path fill="#fffffa" opacity="1.00" d=" M 318.25 505.58 C 339.06 505.45 359.87 505.42 380.68 505.60 C 386.60 528.05 392.97 550.38 399.11 572.76 C 403.37 589.93 408.30 606.92 413.00 623.97 C 418.00 604.98 423.63 586.16 428.38 567.11 C 433.94 546.58 439.81 526.14 445.23 505.58 C 466.04 505.47 486.86 505.39 507.66 505.62 C 513.23 527.05 519.44 548.31 525.19 569.69 C 530.16 586.73 534.24 604.00 539.15 621.06 C 546.46 648.22 554.39 675.22 561.29 702.48 C 605.83 702.51 650.37 702.51 694.91 702.48 C 702.71 702.70 709.55 695.92 709.63 688.18 C 710.40 680.25 703.86 672.45 695.79 672.32 C 674.52 672.18 653.25 672.31 631.98 672.26 C 615.41 672.04 598.80 667.29 585.00 658.02 C 572.68 649.12 562.43 636.84 557.32 622.42 C 549.51 603.10 548.87 581.06 555.14 561.22 C 559.51 546.95 567.63 533.63 579.31 524.20 C 590.88 514.04 605.76 508.08 620.94 506.12 C 631.93 505.08 642.99 505.64 654.01 505.50 C 716.96 505.53 779.91 505.43 842.86 505.55 C 849.81 515.43 856.60 525.42 863.81 535.13 C 873.31 548.32 882.49 561.73 892.05 574.88 C 896.82 568.58 901.30 562.08 905.70 555.53 C 917.80 539.04 929.49 522.27 941.29 505.57 C 969.42 505.39 997.54 505.58 1025.67 505.47 C 1013.83 521.44 1002.81 538.01 990.96 553.97 C 984.32 563.31 977.86 572.77 971.11 582.04 C 958.60 599.30 946.55 616.89 933.93 634.07 C 946.79 651.02 958.47 668.82 971.16 685.90 C 977.43 694.63 983.45 703.53 989.77 712.23 C 996.69 722.23 1004.21 731.80 1010.84 742.01 C 1017.88 751.47 1024.53 761.23 1031.56 770.71 C 1003.47 770.49 975.38 770.70 947.30 770.60 C 935.41 754.44 924.24 737.77 912.30 721.64 C 905.53 712.08 898.85 702.47 892.05 692.95 C 886.40 701.57 879.78 709.53 874.28 718.26 C 866.38 729.07 858.70 740.04 850.81 750.86 C 846.32 757.60 841.68 764.25 836.73 770.66 C 808.69 770.60 780.64 770.57 752.60 770.68 C 765.54 753.17 777.71 735.10 790.61 717.56 C 797.01 708.31 803.56 699.18 810.10 690.02 C 823.56 671.43 836.51 652.49 850.19 634.06 C 835.64 614.01 821.45 593.72 807.01 573.59 C 749.70 573.65 692.39 573.61 635.07 573.61 C 630.74 573.54 626.25 574.99 623.31 578.29 C 618.13 583.85 617.96 593.29 623.05 598.97 C 625.94 602.43 630.56 604.00 634.98 603.85 C 649.99 603.83 664.99 603.85 680.00 603.84 C 690.36 603.92 700.80 603.36 711.06 605.17 C 722.33 607.00 733.12 611.27 742.82 617.25 C 752.94 624.32 761.56 633.61 767.56 644.42 C 776.83 662.29 780.26 683.19 776.74 703.06 C 774.11 717.76 768.24 732.07 758.42 743.46 C 749.01 754.01 737.01 762.44 723.41 766.58 C 708.83 771.60 693.17 770.58 678.00 770.74 C 621.65 770.80 565.30 770.66 508.95 770.64 C 498.60 730.97 486.94 691.64 476.72 651.93 C 471.10 669.96 466.62 688.33 461.38 706.48 C 455.38 727.81 450.04 749.31 443.93 770.62 C 423.28 770.63 402.62 770.60 381.97 770.63 C 377.15 754.13 373.22 737.41 368.45 720.91 C 363.08 701.19 357.57 681.50 352.18 661.79 C 351.17 658.47 350.52 655.04 349.12 651.86 C 343.99 673.43 337.50 694.65 331.78 716.07 C 326.64 734.20 321.91 752.44 316.97 770.62 C 293.20 770.62 269.44 770.62 245.68 770.62 C 252.74 745.76 259.44 720.79 266.39 695.89 C 275.53 660.43 285.91 625.27 295.24 589.85 C 302.65 561.69 310.85 533.74 318.25 505.58 Z" />
</g>
</svg>
