<?xml version="1.0" encoding="UTF-8" ?>
<!DOCTYPE svg PUBLIC "-//W3C//DTD SVG 1.1//EN" "http://www.w3.org/Graphics/SVG/1.1/DTD/svg11.dtd">
<svg width="1276pt" height="1276pt" viewBox="0 0 1276 1276" version="1.1" xmlns="http://www.w3.org/2000/svg">
<g id="#ffffffff">
<path fill="#ffffff" opacity="1.00" d=" M 163.01 440.08 C 479.99 440.04 796.97 440.01 1113.95 440.09 C 1113.81 520.82 1113.93 601.55 1113.89 682.27 C 1131.13 685.44 1147.08 695.70 1156.23 710.76 C 1161.83 719.27 1164.50 729.27 1166.34 739.18 C 1170.15 760.96 1165.86 783.87 1155.28 803.21 C 1146.15 819.75 1133.83 834.27 1120.96 848.00 C 1119.34 849.62 1117.99 851.63 1115.82 852.56 C 1128.87 851.83 1141.98 852.46 1155.06 852.23 C 1159.33 852.03 1164.05 852.52 1167.37 855.53 C 1170.23 858.57 1170.46 863.05 1170.40 867.01 C 1170.36 878.33 1170.38 889.65 1170.39 900.98 C 1170.30 904.39 1169.41 908.24 1166.46 910.34 C 1164.12 912.25 1161.02 912.88 1158.09 913.00 C 1119.38 913.01 1080.68 912.99 1041.97 913.02 C 1038.52 912.94 1034.68 912.39 1032.14 909.83 C 1029.60 907.28 1029.03 903.46 1029.04 900.02 C 1029.08 887.99 1029.03 875.97 1029.06 863.94 C 1029.11 860.30 1030.33 856.64 1033.03 854.10 C 1038.97 848.09 1044.79 841.97 1050.63 835.87 C 754.76 835.91 458.89 835.90 163.01 835.87 C 163.08 703.94 163.08 572.01 163.01 440.08 M 172.19 449.30 C 172.32 575.13 172.29 700.97 172.20 826.81 C 467.84 826.91 763.48 826.78 1059.11 826.87 C 1065.08 820.57 1070.93 814.15 1076.64 807.61 C 1085.97 796.66 1095.46 785.45 1101.40 772.22 C 1104.47 765.79 1105.34 758.48 1104.34 751.47 C 1103.41 746.08 1098.67 741.31 1093.08 741.12 C 1082.39 740.52 1072.24 744.95 1063.19 750.21 C 1060.33 751.75 1057.77 754.01 1054.53 754.73 C 1049.72 756.37 1043.91 753.68 1042.24 748.83 C 1038.05 736.95 1034.03 725.00 1030.04 713.05 C 1028.34 708.74 1030.07 703.49 1033.65 700.66 C 1037.68 697.58 1042.10 695.04 1046.55 692.62 C 1064.49 683.57 1084.97 678.80 1105.07 680.71 C 1104.93 603.57 1105.02 526.43 1105.05 449.29 C 794.10 449.25 483.15 449.24 172.19 449.30 M 1039.17 709.02 C 1043.28 721.22 1047.48 733.39 1051.62 745.57 C 1063.61 737.62 1077.34 730.94 1092.04 731.04 C 1101.73 730.82 1111.03 737.73 1113.53 747.11 C 1116.76 758.37 1113.77 770.42 1108.55 780.60 C 1101.72 793.80 1092.00 805.19 1082.39 816.42 C 1068.45 832.16 1053.83 847.26 1039.14 862.29 C 1039.14 875.86 1039.14 889.43 1039.14 903.00 C 1079.51 903.00 1119.89 903.00 1160.26 903.00 C 1160.27 889.46 1160.24 875.93 1160.28 862.40 C 1137.80 862.37 1115.32 862.46 1092.84 862.35 C 1107.90 847.22 1123.11 832.09 1135.82 814.87 C 1146.53 800.56 1155.09 784.05 1157.04 766.05 C 1158.62 748.66 1156.86 729.98 1147.05 715.06 C 1138.53 701.92 1123.90 693.50 1108.53 691.34 C 1084.27 687.76 1058.91 694.65 1039.17 709.02 Z" />
</g>
<g id="#000000ff">
<path fill="#000000" opacity="1.00" d=" M 172.19 449.30 C 483.15 449.24 794.10 449.25 1105.05 449.29 C 1105.02 526.43 1104.93 603.57 1105.07 680.71 C 1084.97 678.80 1064.49 683.57 1046.55 692.62 C 1042.10 695.04 1037.68 697.58 1033.65 700.66 C 1030.07 703.49 1028.34 708.74 1030.04 713.05 C 1034.03 725.00 1038.05 736.95 1042.24 748.83 C 1043.91 753.68 1049.72 756.37 1054.53 754.73 C 1057.77 754.01 1060.33 751.75 1063.19 750.21 C 1072.24 744.95 1082.39 740.52 1093.08 741.12 C 1098.67 741.31 1103.41 746.08 1104.34 751.47 C 1105.34 758.48 1104.47 765.79 1101.40 772.22 C 1095.46 785.45 1085.97 796.66 1076.64 807.61 C 1070.93 814.15 1065.08 820.57 1059.11 826.87 C 763.48 826.78 467.84 826.91 172.20 826.81 C 172.29 700.97 172.32 575.13 172.19 449.30 M 318.24 505.59 C 310.25 536.10 301.26 566.34 293.42 596.88 C 284.30 630.51 274.65 663.99 265.89 697.71 C 259.09 721.99 252.59 746.36 245.68 770.61 C 269.44 770.63 293.19 770.60 316.95 770.63 C 319.68 761.91 321.45 752.95 324.04 744.20 C 327.85 730.26 331.68 716.33 335.58 702.41 C 340.01 685.54 345.23 668.87 349.11 651.87 C 350.53 655.01 351.15 658.44 352.17 661.73 C 357.62 681.68 363.19 701.59 368.63 721.54 C 373.34 737.84 377.19 754.36 381.99 770.63 C 402.63 770.60 423.28 770.63 443.92 770.62 C 450.04 749.33 455.37 727.84 461.37 706.52 C 466.61 688.35 471.10 669.94 476.73 651.89 C 486.92 691.62 498.59 730.98 508.98 770.65 C 563.64 770.64 618.30 770.81 672.96 770.74 C 684.64 770.63 696.37 771.13 708.02 769.90 C 733.16 767.36 756.52 751.56 768.12 729.08 C 777.27 711.05 780.29 689.95 776.46 670.08 C 773.54 655.34 767.48 640.96 757.14 629.87 C 741.84 612.20 718.04 603.77 695.05 603.83 C 675.01 603.86 654.97 603.82 634.93 603.85 C 630.99 603.95 626.92 602.77 624.04 600.01 C 618.24 594.68 617.76 584.87 622.79 578.88 C 625.68 575.24 630.41 573.54 634.96 573.62 C 692.31 573.60 749.66 573.66 807.00 573.59 C 821.45 593.71 835.63 614.01 850.19 634.05 C 839.60 648.58 829.01 663.12 818.86 677.96 C 805.50 695.98 792.97 714.59 779.70 732.67 C 770.67 745.34 761.89 758.20 752.59 770.68 C 780.63 770.58 808.67 770.59 836.72 770.67 C 841.68 764.26 846.32 757.59 850.82 750.85 C 858.71 740.05 866.36 729.08 874.26 718.29 C 879.77 709.54 886.39 701.58 892.05 692.95 C 898.85 702.46 905.51 712.06 912.27 721.60 C 924.24 737.74 935.39 754.46 947.34 770.62 C 975.41 770.68 1003.48 770.50 1031.55 770.71 C 1022.17 757.67 1012.66 744.72 1003.61 731.45 C 992.57 716.42 981.92 701.11 971.15 685.89 C 958.46 668.81 946.79 651.01 933.93 634.07 C 939.35 626.78 944.42 619.24 949.90 611.99 C 962.74 593.23 976.40 575.05 989.29 556.32 C 1001.66 539.55 1013.31 522.26 1025.65 505.46 C 997.54 505.58 969.43 505.40 941.32 505.55 C 931.13 519.94 921.03 534.39 910.71 548.69 C 904.19 557.20 898.64 566.41 892.06 574.88 C 882.36 561.54 873.04 547.94 863.41 534.56 C 856.34 525.07 849.69 515.28 842.92 505.58 C 793.28 505.39 743.64 505.55 693.99 505.50 C 672.34 505.57 650.69 505.35 629.04 505.61 C 602.38 505.82 576.15 520.49 562.77 543.69 C 552.33 561.90 548.64 583.84 552.24 604.50 C 555.00 619.75 561.14 634.70 571.76 646.19 C 584.64 661.01 603.65 669.60 622.99 671.67 C 629.96 672.56 636.98 672.19 643.98 672.26 C 660.68 672.26 677.38 672.26 694.08 672.26 C 697.51 672.21 701.03 673.08 703.81 675.17 C 708.87 678.94 710.87 686.01 708.99 691.98 C 707.34 698.21 701.20 702.59 694.81 702.48 C 650.30 702.51 605.80 702.51 561.29 702.48 C 556.10 681.59 550.00 660.95 544.42 640.16 C 537.29 615.26 531.01 590.14 523.96 565.22 C 518.60 545.33 512.84 525.54 507.64 505.60 C 486.84 505.42 466.02 505.44 445.22 505.59 C 439.89 525.92 434.06 546.11 428.57 566.39 C 423.75 585.66 418.10 604.72 412.99 623.93 C 408.27 606.89 403.36 589.88 399.10 572.73 C 392.97 550.35 386.59 528.05 380.69 505.62 C 359.88 505.41 339.05 505.45 318.24 505.59 Z" />
<path fill="#000000" opacity="1.00" d=" M 1039.17 709.02 C 1058.91 694.65 1084.27 687.76 1108.53 691.34 C 1123.90 693.50 1138.53 701.92 1147.05 715.06 C 1156.86 729.98 1158.62 748.66 1157.04 766.05 C 1155.09 784.05 1146.53 800.56 1135.82 814.87 C 1123.11 832.09 1107.90 847.22 1092.84 862.35 C 1115.32 862.46 1137.80 862.37 1160.28 862.40 C 1160.24 875.93 1160.27 889.46 1160.26 903.00 C 1119.89 903.00 1079.51 903.00 1039.14 903.00 C 1039.14 889.43 1039.14 875.86 1039.14 862.29 C 1053.83 847.26 1068.45 832.16 1082.39 816.42 C 1092.00 805.19 1101.72 793.80 1108.55 780.60 C 1113.77 770.42 1116.76 758.37 1113.53 747.11 C 1111.03 737.73 1101.73 730.82 1092.04 731.04 C 1077.34 730.94 1063.61 737.62 1051.62 745.57 C 1047.48 733.39 1043.28 721.22 1039.17 709.02 Z" />
</g>
<g id="#fffffaff">
<path fill="#fffffa" opacity="1.00" d=" M 318.24 505.59 C 339.05 505.45 359.88 505.41 380.69 505.62 C 386.59 528.05 392.97 550.35 399.10 572.73 C 403.36 589.88 408.27 606.89 412.99 623.93 C 418.10 604.72 423.75 585.66 428.57 566.39 C 434.06 546.11 439.89 525.92 445.22 505.59 C 466.02 505.44 486.84 505.42 507.64 505.60 C 512.84 525.54 518.60 545.33 523.96 565.22 C 531.01 590.14 537.29 615.26 544.42 640.16 C 550.00 660.95 556.10 681.59 561.29 702.48 C 605.80 702.51 650.30 702.51 694.81 702.48 C 701.20 702.59 707.34 698.21 708.99 691.98 C 710.87 686.01 708.87 678.94 703.81 675.17 C 701.03 673.08 697.51 672.21 694.08 672.26 C 677.38 672.26 660.68 672.26 643.98 672.26 C 636.98 672.19 629.96 672.56 622.99 671.67 C 603.65 669.60 584.64 661.01 571.76 646.19 C 561.14 634.70 555.00 619.75 552.24 604.50 C 548.64 583.84 552.33 561.90 562.77 543.69 C 576.15 520.49 602.38 505.82 629.04 505.61 C 650.69 505.35 672.34 505.57 693.99 505.50 C 743.64 505.55 793.28 505.39 842.92 505.58 C 849.69 515.28 856.34 525.07 863.41 534.56 C 873.04 547.94 882.36 561.54 892.06 574.88 C 898.64 566.41 904.19 557.20 910.71 548.69 C 921.03 534.39 931.13 519.94 941.32 505.55 C 969.43 505.40 997.54 505.58 1025.65 505.46 C 1013.31 522.26 1001.66 539.55 989.29 556.32 C 976.40 575.05 962.74 593.23 949.90 611.99 C 944.42 619.24 939.35 626.78 933.93 634.07 C 946.79 651.01 958.46 668.81 971.15 685.89 C 981.92 701.11 992.57 716.42 1003.61 731.45 C 1012.66 744.72 1022.17 757.67 1031.55 770.71 C 1003.48 770.50 975.41 770.68 947.34 770.62 C 935.39 754.46 924.24 737.74 912.27 721.60 C 905.51 712.06 898.85 702.46 892.05 692.95 C 886.39 701.58 879.77 709.54 874.26 718.29 C 866.36 729.08 858.71 740.05 850.82 750.85 C 846.32 757.59 841.68 764.26 836.72 770.67 C 808.67 770.59 780.63 770.58 752.59 770.68 C 761.89 758.20 770.67 745.34 779.70 732.67 C 792.97 714.59 805.50 695.98 818.86 677.96 C 829.01 663.12 839.60 648.58 850.19 634.05 C 835.63 614.01 821.45 593.71 807.00 573.59 C 749.66 573.66 692.31 573.60 634.96 573.62 C 630.41 573.54 625.68 575.24 622.79 578.88 C 617.76 584.87 618.24 594.68 624.04 600.01 C 626.92 602.77 630.99 603.95 634.93 603.85 C 654.97 603.82 675.01 603.86 695.05 603.83 C 718.04 603.77 741.84 612.20 757.14 629.87 C 767.48 640.96 773.54 655.34 776.46 670.08 C 780.29 689.95 777.27 711.05 768.12 729.08 C 756.52 751.56 733.16 767.36 708.02 769.90 C 696.37 771.13 684.64 770.63 672.96 770.74 C 618.30 770.81 563.64 770.64 508.98 770.65 C 498.59 730.98 486.92 691.62 476.73 651.89 C 471.10 669.94 466.61 688.35 461.37 706.52 C 455.37 727.84 450.04 749.33 443.92 770.62 C 423.28 770.63 402.63 770.60 381.99 770.63 C 377.19 754.36 373.34 737.84 368.63 721.54 C 363.19 701.59 357.62 681.68 352.17 661.73 C 351.15 658.44 350.53 655.01 349.11 651.87 C 345.23 668.87 340.01 685.54 335.58 702.41 C 331.68 716.33 327.85 730.26 324.04 744.20 C 321.45 752.95 319.68 761.91 316.95 770.63 C 293.19 770.60 269.44 770.63 245.68 770.61 C 252.59 746.36 259.09 721.99 265.89 697.71 C 274.65 663.99 284.30 630.51 293.42 596.88 C 301.26 566.34 310.25 536.10 318.24 505.59 Z" />
</g>
</svg>
