<?xml version="1.0" encoding="UTF-8" ?>
<!DOCTYPE svg PUBLIC "-//W3C//DTD SVG 1.1//EN" "http://www.w3.org/Graphics/SVG/1.1/DTD/svg11.dtd">
<svg width="1276pt" height="1276pt" viewBox="0 0 1276 1276" version="1.1" xmlns="http://www.w3.org/2000/svg">
<g id="#ffffffff">
<path fill="#ffffff" opacity="1.00" d=" M 163.01 440.08 C 479.99 440.04 796.97 440.03 1113.94 440.08 C 1113.86 572.01 1113.85 703.94 1113.95 835.86 C 796.97 835.91 479.99 835.90 163.01 835.87 C 163.08 703.94 163.08 572.01 163.01 440.08 M 172.21 449.28 C 172.29 575.12 172.31 700.97 172.20 826.81 C 483.16 826.86 794.12 826.86 1105.07 826.82 C 1104.89 700.98 1105.04 575.13 1105.04 449.28 C 794.10 449.24 483.16 449.26 172.21 449.28 Z" />
<path fill="#ffffff" opacity="1.00" d=" M 702.63 463.42 C 833.36 463.39 964.08 463.43 1094.80 463.40 C 1094.75 580.16 1094.68 696.93 1094.83 813.69 C 964.11 813.77 833.38 813.70 702.66 813.72 C 702.67 696.96 702.71 580.19 702.63 463.42 M 785.91 494.19 C 785.91 590.44 785.91 686.68 785.91 782.92 C 807.01 782.94 828.12 782.93 849.23 782.93 C 849.21 744.95 849.24 706.97 849.21 668.99 C 882.22 668.85 915.24 668.97 948.26 668.93 C 948.23 706.92 948.32 744.91 948.21 782.90 C 969.32 782.95 990.43 782.95 1011.54 782.90 C 1011.48 744.89 1011.46 706.88 1011.55 668.88 C 985.23 647.83 958.96 626.72 932.59 605.74 C 953.65 605.75 974.72 605.79 995.78 605.72 C 995.62 585.50 995.76 565.28 995.71 545.07 C 993.18 542.32 989.91 540.33 987.09 537.87 C 968.90 523.38 950.87 508.67 932.57 494.33 C 883.70 494.01 834.79 494.28 785.91 494.19 Z" />
<path fill="#ffffff" opacity="1.00" d=" M 247.96 505.18 C 260.38 505.18 272.80 505.19 285.22 505.18 C 291.70 528.59 297.90 552.08 304.49 575.46 C 311.26 552.13 317.33 528.58 323.85 505.18 C 336.26 505.19 348.67 505.18 361.08 505.18 C 371.84 544.47 382.49 583.78 393.29 623.06 C 419.54 623.10 445.80 623.09 472.06 623.07 C 475.97 623.29 480.01 621.05 481.20 617.19 C 483.22 612.11 479.67 605.36 473.95 605.19 C 460.63 604.97 447.29 605.42 433.97 604.96 C 421.99 604.59 409.92 600.16 401.40 591.58 C 389.05 579.44 384.52 560.69 387.98 543.96 C 390.49 531.15 398.07 519.14 409.35 512.33 C 417.58 507.27 427.33 504.98 436.95 505.17 C 478.43 505.25 519.92 505.08 561.41 505.26 C 571.13 519.14 580.97 532.95 590.84 546.73 C 600.52 532.77 610.43 518.97 620.32 505.16 C 637.08 505.19 653.84 505.23 670.61 505.14 C 652.32 530.77 634.21 556.53 615.85 582.10 C 635.36 609.38 654.74 636.76 674.14 664.13 C 657.40 663.63 640.65 664.14 623.91 663.87 C 612.53 648.69 601.87 632.92 590.73 617.54 C 579.76 633.02 568.80 648.51 557.75 663.94 C 540.94 664.03 524.12 663.69 507.31 664.12 C 526.77 636.78 546.14 609.38 565.65 582.07 C 556.94 570.19 548.61 558.04 539.95 546.12 C 505.60 546.17 471.24 546.12 436.89 546.15 C 432.83 545.91 428.92 548.86 428.12 552.86 C 426.62 557.89 430.49 563.92 435.91 564.00 C 448.95 564.26 462.01 563.94 475.06 564.15 C 487.77 564.37 500.61 569.29 509.33 578.71 C 529.06 599.50 526.83 637.33 503.51 654.57 C 495.08 660.88 484.48 663.92 474.02 663.93 C 436.64 663.93 399.27 663.93 361.89 663.93 C 355.27 640.29 349.24 616.47 342.31 592.92 C 336.11 616.65 329.43 640.24 323.05 663.92 C 310.70 663.93 298.35 663.94 286.00 663.92 C 279.54 640.28 273.14 616.63 266.64 593.01 C 259.93 616.59 253.71 640.31 247.15 663.93 C 232.96 664.02 218.76 663.73 204.57 664.09 C 219.09 611.13 233.49 558.15 247.96 505.18 Z" />
<path fill="#ffffff" opacity="1.00" d=" M 849.11 557.57 C 876.86 557.45 904.62 557.53 932.38 557.52 C 932.29 573.56 932.34 589.59 932.36 605.62 C 904.63 605.62 876.90 605.63 849.17 605.61 C 849.22 589.60 849.34 573.58 849.11 557.57 Z" />
<path fill="#ffffff" opacity="1.00" d=" M 225.87 687.66 C 236.90 687.68 247.93 687.63 258.96 687.69 C 258.75 694.88 258.92 702.08 258.85 709.28 C 269.09 709.29 279.33 709.26 289.57 709.29 C 289.49 713.99 289.49 718.69 289.56 723.40 C 279.39 723.42 269.22 723.31 259.06 723.44 C 258.61 733.27 258.96 743.17 258.88 753.02 C 258.67 755.88 260.97 758.81 263.95 758.77 C 272.47 758.89 281.00 758.77 289.53 758.82 C 289.51 763.49 289.47 768.17 289.58 772.86 C 272.70 772.99 255.81 772.95 238.93 772.88 C 231.79 772.66 225.74 766.09 225.89 758.99 C 225.89 747.12 225.84 735.25 225.92 723.39 C 218.79 723.39 211.67 723.39 204.54 723.39 C 204.61 718.68 204.58 713.97 204.57 709.26 C 211.70 709.29 218.82 709.29 225.95 709.26 C 225.80 702.06 225.92 694.86 225.87 687.66 Z" />
<path fill="#ffffff" opacity="1.00" d=" M 487.18 687.69 C 498.25 687.63 509.32 687.67 520.39 687.67 C 520.32 694.88 520.36 702.09 520.36 709.31 C 530.90 709.27 541.44 709.24 551.98 709.31 C 559.57 709.74 565.70 715.67 568.59 722.37 C 572.21 730.05 571.94 738.73 571.66 747.01 C 571.21 754.41 568.76 762.01 563.47 767.39 C 559.99 770.98 555.05 773.18 550.01 772.94 C 529.08 772.89 508.14 772.98 487.21 772.89 C 487.27 744.49 487.34 716.09 487.18 687.69 M 520.30 723.40 C 520.38 735.19 520.40 746.98 520.29 758.78 C 526.44 758.84 532.58 758.83 538.73 758.78 C 538.62 746.98 538.64 735.19 538.72 723.39 C 532.58 723.39 526.44 723.38 520.30 723.40 Z" />
<path fill="#ffffff" opacity="1.00" d=" M 305.74 709.25 C 316.75 709.32 327.75 709.25 338.76 709.28 C 338.64 725.79 338.75 742.30 338.70 758.82 C 344.87 758.81 351.04 758.81 357.21 758.81 C 357.15 742.31 357.28 725.80 357.14 709.29 C 368.20 709.28 379.26 709.24 390.33 709.31 C 390.24 730.51 390.30 751.72 390.30 772.93 C 366.51 772.91 342.72 772.98 318.94 772.89 C 311.77 772.75 305.48 766.18 305.72 759.00 C 305.75 742.41 305.71 725.83 305.74 709.25 Z" />
<path fill="#ffffff" opacity="1.00" d=" M 411.40 729.24 C 411.73 718.58 421.27 709.23 431.96 709.28 C 446.09 709.29 460.22 709.24 474.34 709.31 C 474.27 714.01 474.28 718.70 474.33 723.40 C 464.35 723.39 454.38 723.39 444.41 723.40 C 444.53 739.90 444.40 756.41 444.47 772.92 C 433.42 772.92 422.37 772.97 411.31 772.89 C 411.45 758.34 411.26 743.79 411.40 729.24 Z" />
<path fill="#ffffff" opacity="1.00" d=" M 609.23 709.32 C 623.81 709.21 638.39 709.32 652.98 709.27 C 658.36 709.17 663.49 711.99 666.88 716.07 C 671.27 721.32 673.45 728.14 673.86 734.91 C 674.01 743.06 674.58 751.59 671.12 759.22 C 668.18 766.52 661.38 773.09 653.09 772.93 C 638.71 772.92 624.34 772.95 609.96 772.91 C 604.56 772.88 599.58 769.81 596.27 765.70 C 592.03 760.40 590.01 753.62 589.61 746.93 C 589.47 738.78 589.03 730.24 592.57 722.66 C 595.47 715.89 601.55 709.80 609.23 709.32 M 622.50 723.42 C 622.62 735.22 622.52 747.03 622.55 758.83 C 628.72 758.78 634.89 758.85 641.06 758.79 C 640.90 746.99 641.23 735.18 640.97 723.38 C 634.81 723.41 628.65 723.36 622.50 723.42 Z" />
</g>
<g id="#000000ff">
<path fill="#000000" opacity="1.00" d=" M 172.21 449.28 C 483.16 449.26 794.10 449.24 1105.04 449.28 C 1105.04 575.13 1104.89 700.98 1105.07 826.82 C 794.12 826.86 483.16 826.86 172.20 826.81 C 172.31 700.97 172.29 575.12 172.21 449.28 M 702.63 463.42 C 702.71 580.19 702.67 696.96 702.66 813.72 C 833.38 813.70 964.11 813.77 1094.83 813.69 C 1094.68 696.93 1094.75 580.16 1094.80 463.40 C 964.08 463.43 833.36 463.39 702.63 463.42 M 247.96 505.18 C 233.49 558.15 219.09 611.13 204.57 664.09 C 218.76 663.73 232.96 664.02 247.15 663.93 C 253.71 640.31 259.93 616.59 266.64 593.01 C 273.14 616.63 279.54 640.28 286.00 663.92 C 298.35 663.94 310.70 663.93 323.05 663.92 C 329.43 640.24 336.11 616.65 342.31 592.92 C 349.24 616.47 355.27 640.29 361.89 663.93 C 399.27 663.93 436.64 663.93 474.02 663.93 C 484.48 663.92 495.08 660.88 503.51 654.57 C 526.83 637.33 529.06 599.50 509.33 578.71 C 500.61 569.29 487.77 564.37 475.06 564.15 C 462.01 563.94 448.95 564.26 435.91 564.00 C 430.49 563.92 426.62 557.89 428.12 552.86 C 428.92 548.86 432.83 545.91 436.89 546.15 C 471.24 546.12 505.60 546.17 539.95 546.12 C 548.61 558.04 556.94 570.19 565.65 582.07 C 546.14 609.38 526.77 636.78 507.31 664.12 C 524.12 663.69 540.94 664.03 557.75 663.94 C 568.80 648.51 579.76 633.02 590.73 617.54 C 601.87 632.92 612.53 648.69 623.91 663.87 C 640.65 664.14 657.40 663.63 674.14 664.13 C 654.74 636.76 635.36 609.38 615.85 582.10 C 634.21 556.53 652.32 530.77 670.61 505.14 C 653.84 505.23 637.08 505.19 620.32 505.16 C 610.43 518.97 600.52 532.77 590.84 546.73 C 580.97 532.95 571.13 519.14 561.41 505.26 C 519.92 505.08 478.43 505.25 436.95 505.17 C 427.33 504.98 417.58 507.27 409.35 512.33 C 398.07 519.14 390.49 531.15 387.98 543.96 C 384.52 560.69 389.05 579.44 401.40 591.58 C 409.92 600.16 421.99 604.59 433.97 604.96 C 447.29 605.42 460.63 604.97 473.95 605.19 C 479.67 605.36 483.22 612.11 481.20 617.19 C 480.01 621.05 475.97 623.29 472.06 623.07 C 445.80 623.09 419.54 623.10 393.29 623.06 C 382.49 583.78 371.84 544.47 361.08 505.18 C 348.67 505.18 336.26 505.19 323.85 505.18 C 317.33 528.58 311.26 552.13 304.49 575.46 C 297.90 552.08 291.70 528.59 285.22 505.18 C 272.80 505.19 260.38 505.18 247.96 505.18 M 225.87 687.66 C 225.92 694.86 225.80 702.06 225.95 709.26 C 218.82 709.29 211.70 709.29 204.57 709.26 C 204.58 713.97 204.61 718.68 204.54 723.39 C 211.67 723.39 218.79 723.39 225.92 723.39 C 225.84 735.25 225.89 747.12 225.89 758.99 C 225.74 766.09 231.79 772.66 238.93 772.88 C 255.81 772.95 272.70 772.99 289.58 772.86 C 289.47 768.17 289.51 763.49 289.53 758.82 C 281.00 758.77 272.47 758.89 263.95 758.77 C 260.97 758.81 258.67 755.88 258.88 753.02 C 258.96 743.17 258.61 733.27 259.06 723.44 C 269.22 723.31 279.39 723.42 289.56 723.40 C 289.49 718.69 289.49 713.99 289.57 709.29 C 279.33 709.26 269.09 709.29 258.85 709.28 C 258.92 702.08 258.75 694.88 258.96 687.69 C 247.93 687.63 236.90 687.68 225.87 687.66 M 487.18 687.69 C 487.34 716.09 487.27 744.49 487.21 772.89 C 508.14 772.98 529.08 772.89 550.01 772.94 C 555.05 773.18 559.99 770.98 563.47 767.39 C 568.76 762.01 571.21 754.41 571.66 747.01 C 571.94 738.73 572.21 730.05 568.59 722.37 C 565.70 715.67 559.57 709.74 551.98 709.31 C 541.44 709.24 530.90 709.27 520.36 709.31 C 520.36 702.09 520.32 694.88 520.39 687.67 C 509.32 687.67 498.25 687.63 487.18 687.69 M 305.74 709.25 C 305.71 725.83 305.75 742.41 305.72 759.00 C 305.48 766.18 311.77 772.75 318.94 772.89 C 342.72 772.98 366.51 772.91 390.30 772.93 C 390.30 751.72 390.24 730.51 390.33 709.31 C 379.26 709.24 368.20 709.28 357.14 709.29 C 357.28 725.80 357.15 742.31 357.21 758.81 C 351.04 758.81 344.87 758.81 338.70 758.82 C 338.75 742.30 338.64 725.79 338.76 709.28 C 327.75 709.25 316.75 709.32 305.74 709.25 M 411.40 729.24 C 411.26 743.79 411.45 758.34 411.31 772.89 C 422.37 772.97 433.42 772.92 444.47 772.92 C 444.40 756.41 444.53 739.90 444.41 723.40 C 454.38 723.39 464.35 723.39 474.33 723.40 C 474.28 718.70 474.27 714.01 474.34 709.31 C 460.22 709.24 446.09 709.29 431.96 709.28 C 421.27 709.23 411.73 718.58 411.40 729.24 M 609.23 709.32 C 601.55 709.80 595.47 715.89 592.57 722.66 C 589.03 730.24 589.47 738.78 589.61 746.93 C 590.01 753.62 592.03 760.40 596.27 765.70 C 599.58 769.81 604.56 772.88 609.96 772.91 C 624.34 772.95 638.71 772.92 653.09 772.93 C 661.38 773.09 668.18 766.52 671.12 759.22 C 674.58 751.59 674.01 743.06 673.86 734.91 C 673.45 728.14 671.27 721.32 666.88 716.07 C 663.49 711.99 658.36 709.17 652.98 709.27 C 638.39 709.32 623.81 709.21 609.23 709.32 Z" />
<path fill="#000000" opacity="1.00" d=" M 785.91 494.19 C 834.79 494.28 883.70 494.01 932.57 494.33 C 950.87 508.67 968.90 523.38 987.09 537.87 C 989.91 540.33 993.18 542.32 995.71 545.07 C 995.76 565.28 995.62 585.50 995.78 605.72 C 974.72 605.79 953.65 605.75 932.59 605.74 C 958.96 626.72 985.23 647.83 1011.55 668.88 C 1011.46 706.88 1011.48 744.89 1011.54 782.90 C 990.43 782.95 969.32 782.95 948.21 782.90 C 948.32 744.91 948.23 706.92 948.26 668.93 C 915.24 668.97 882.22 668.85 849.21 668.99 C 849.24 706.97 849.21 744.95 849.23 782.93 C 828.12 782.93 807.01 782.94 785.91 782.92 C 785.91 686.68 785.91 590.44 785.91 494.19 M 849.11 557.57 C 849.34 573.58 849.22 589.60 849.17 605.61 C 876.90 605.63 904.63 605.62 932.36 605.62 C 932.34 589.59 932.29 573.56 932.38 557.52 C 904.62 557.53 876.86 557.45 849.11 557.57 Z" />
<path fill="#000000" opacity="1.00" d=" M 520.30 723.40 C 526.44 723.38 532.58 723.39 538.72 723.39 C 538.64 735.19 538.62 746.98 538.73 758.78 C 532.58 758.83 526.44 758.84 520.29 758.78 C 520.40 746.98 520.38 735.19 520.30 723.40 Z" />
<path fill="#000000" opacity="1.00" d=" M 622.50 723.42 C 628.65 723.36 634.81 723.41 640.97 723.38 C 641.23 735.18 640.90 746.99 641.06 758.79 C 634.89 758.85 628.72 758.78 622.55 758.83 C 622.52 747.03 622.62 735.22 622.50 723.42 Z" />
</g>
</svg>
