<?xml version="1.0" encoding="UTF-8" ?>
<!DOCTYPE svg PUBLIC "-//W3C//DTD SVG 1.1//EN" "http://www.w3.org/Graphics/SVG/1.1/DTD/svg11.dtd">
<svg width="1276pt" height="1276pt" viewBox="0 0 1276 1276" version="1.1" xmlns="http://www.w3.org/2000/svg">
<g id="#334fa2ff">
<path fill="#334fa2" opacity="1.00" d=" M 137.57 390.76 C 143.01 390.00 148.52 390.00 154.00 390.00 C 185.69 390.03 217.37 389.95 249.06 390.04 C 261.31 390.14 274.48 392.63 283.72 401.27 C 292.64 409.56 295.76 422.17 295.98 433.96 C 296.03 478.63 295.98 523.30 296.01 567.97 C 296.00 577.94 294.32 588.32 288.73 596.78 C 284.19 603.79 276.87 608.68 268.95 611.11 C 260.91 613.73 252.37 614.05 243.98 614.00 C 212.32 613.98 180.65 614.03 148.99 613.98 C 137.73 613.94 125.85 612.16 116.53 605.41 C 108.88 599.98 104.19 591.22 102.37 582.15 C 100.60 574.23 101.05 566.07 101.00 558.01 C 101.00 517.00 101.00 475.99 101.00 434.98 C 101.11 424.02 103.47 412.41 110.78 403.88 C 117.43 396.01 127.58 392.09 137.57 390.76 M 162.42 431.63 C 158.60 432.95 157.32 437.28 157.51 440.95 C 157.48 481.29 157.52 521.63 157.49 561.97 C 157.53 564.86 157.53 568.13 159.59 570.42 C 161.67 572.84 165.08 573.17 168.07 573.19 C 188.36 573.18 208.65 573.18 228.94 573.19 C 231.92 573.17 235.31 572.84 237.39 570.44 C 239.24 568.42 239.45 565.54 239.50 562.95 C 239.51 522.62 239.48 482.29 239.51 441.96 C 239.47 439.10 239.45 435.88 237.44 433.61 C 235.38 431.19 231.99 430.82 229.02 430.81 C 208.69 430.82 188.35 430.82 168.02 430.81 C 166.13 430.85 164.20 430.93 162.42 431.63 Z" />
<path fill="#334fa2" opacity="1.00" d=" M 333.00 390.00 C 350.00 390.00 367.00 390.00 384.00 390.00 C 384.00 409.00 384.00 428.00 384.00 447.00 C 400.04 447.00 416.08 446.99 432.12 447.00 C 432.12 458.92 432.13 470.83 432.12 482.75 C 416.08 482.75 400.04 482.75 384.00 482.75 C 384.04 512.55 383.91 542.35 384.07 572.15 C 383.89 575.44 386.71 578.29 390.01 578.17 C 404.04 578.36 418.08 578.19 432.12 578.25 C 432.13 590.18 432.12 602.12 432.12 614.06 C 415.77 614.07 399.42 614.05 383.08 614.06 C 372.70 614.12 361.85 614.20 352.25 609.67 C 345.17 606.49 339.44 600.53 336.53 593.34 C 333.26 585.67 332.90 577.18 333.00 568.96 C 333.01 509.31 333.00 449.65 333.00 390.00 Z" />
<path fill="#334fa2" opacity="1.00" d=" M 461.00 390.00 C 478.00 390.00 495.00 390.00 512.00 390.00 C 512.00 409.00 512.00 428.00 512.00 447.00 C 534.00 447.01 555.99 446.98 577.99 447.01 C 588.85 447.13 600.53 449.50 608.56 457.35 C 616.43 464.98 618.92 476.39 618.98 486.99 C 619.03 529.33 618.99 571.66 619.00 614.00 C 602.00 614.00 585.00 614.00 568.00 614.00 C 568.01 572.99 567.98 531.97 568.02 490.96 C 567.97 488.78 568.00 486.31 566.40 484.61 C 564.79 482.87 562.26 482.76 560.06 482.74 C 544.04 482.76 528.02 482.74 512.00 482.75 C 511.99 526.50 512.00 570.25 512.00 614.00 C 495.00 614.00 478.00 614.00 461.00 614.00 C 461.00 539.33 461.00 464.67 461.00 390.00 Z" />
<path fill="#334fa2" opacity="1.00" d=" M 840.00 390.00 C 857.00 390.00 874.00 390.00 891.00 390.00 C 891.00 464.67 891.00 539.33 891.00 614.00 C 874.00 614.00 857.00 614.00 840.00 614.00 C 840.00 539.33 840.00 464.67 840.00 390.00 Z" />
<path fill="#334fa2" opacity="1.00" d=" M 925.00 390.00 C 942.00 390.00 959.00 390.00 976.00 390.00 C 976.00 464.67 976.00 539.33 976.00 614.00 C 959.00 614.00 942.00 614.00 925.00 614.00 C 925.00 539.33 925.00 464.67 925.00 390.00 Z" />
<path fill="#334fa2" opacity="1.00" d=" M 663.42 457.38 C 671.44 449.50 683.15 447.13 694.02 447.01 C 717.67 446.99 741.32 446.99 764.97 447.01 C 775.85 447.13 787.57 449.50 795.60 457.39 C 803.44 465.02 805.91 476.40 805.97 486.98 C 806.03 506.65 805.98 526.33 806.00 546.00 C 772.00 546.00 738.00 546.00 704.00 546.00 C 704.00 554.02 704.01 562.03 703.98 570.05 C 704.02 572.23 704.00 574.72 705.62 576.41 C 707.26 578.11 709.76 578.23 711.99 578.26 C 741.42 578.24 770.86 578.26 800.31 578.25 C 800.32 590.18 800.31 602.12 800.31 614.06 C 765.20 614.04 730.10 614.11 694.99 614.02 C 683.81 613.96 671.68 611.74 663.40 603.62 C 655.56 595.99 653.07 584.60 653.02 574.02 C 652.98 545.00 652.98 515.98 653.03 486.96 C 653.09 476.39 655.57 465.00 663.42 457.38 M 704.06 488.95 C 703.89 496.04 704.05 503.15 704.00 510.25 C 721.00 510.25 738.00 510.25 755.00 510.25 C 755.00 503.83 754.99 497.42 755.01 491.01 C 754.96 488.79 754.99 486.27 753.33 484.57 C 751.42 482.62 748.48 482.77 745.99 482.73 C 733.99 482.83 722.00 482.62 710.01 482.83 C 706.67 482.72 703.88 485.63 704.06 488.95 Z" />
<path fill="#334fa2" opacity="1.00" d=" M 1041.56 447.75 C 1051.65 446.40 1061.87 447.23 1072.02 447.00 C 1090.33 447.01 1108.64 446.98 1126.95 447.01 C 1137.85 447.13 1149.61 449.51 1157.64 457.43 C 1165.45 465.06 1167.92 476.42 1167.98 486.98 C 1168.04 514.98 1167.98 542.97 1168.00 570.97 C 1168.09 580.22 1167.08 589.95 1162.08 597.98 C 1158.07 604.66 1151.28 609.31 1143.90 611.54 C 1134.24 614.62 1123.98 613.98 1113.99 614.06 C 1093.66 614.05 1073.33 614.09 1052.99 614.04 C 1043.03 614.00 1032.51 612.60 1024.16 606.74 C 1017.66 602.29 1013.43 595.12 1011.61 587.55 C 1009.29 578.21 1010.18 568.51 1010.00 558.99 C 1010.00 538.67 1010.00 518.35 1010.00 498.02 C 1009.94 486.39 1009.38 473.88 1015.61 463.52 C 1020.88 454.23 1031.27 449.14 1041.56 447.75 M 1064.33 483.42 C 1061.73 484.41 1060.91 487.40 1061.01 489.93 C 1060.98 515.61 1061.03 541.29 1060.99 566.98 C 1061.04 569.49 1060.75 572.08 1061.49 574.53 C 1062.32 577.27 1065.37 578.33 1068.00 578.23 C 1081.64 578.28 1095.29 578.22 1108.93 578.26 C 1111.16 578.23 1113.74 578.16 1115.39 576.41 C 1117.24 574.40 1116.93 571.48 1117.02 568.97 C 1116.93 542.30 1117.09 515.62 1116.94 488.96 C 1117.15 485.62 1114.34 482.68 1110.99 482.83 C 1097.66 482.63 1084.33 482.83 1071.00 482.73 C 1068.76 482.79 1066.42 482.55 1064.33 483.42 Z" />
<path fill="#334fa2" opacity="1.00" d=" M 124.58 674.79 C 127.34 674.14 130.20 674.01 133.03 674.00 C 463.68 674.00 794.33 674.00 1124.97 674.00 C 1132.01 674.18 1139.12 673.55 1146.12 674.52 C 1159.97 676.86 1171.00 689.84 1170.97 703.90 C 1171.04 754.95 1170.98 805.99 1171.00 857.03 C 1170.92 861.73 1171.52 866.60 1169.76 871.09 C 1167.05 880.63 1159.34 888.55 1149.88 891.51 C 1144.79 893.29 1139.31 892.97 1134.01 893.00 C 800.00 893.00 465.98 893.01 131.97 893.00 C 115.68 893.66 100.80 879.27 101.03 862.96 C 100.99 809.95 100.95 756.93 101.05 703.92 C 100.98 690.31 111.32 677.67 124.58 674.79 M 440.00 713.00 C 440.00 758.33 440.00 803.67 440.00 849.00 C 447.44 849.00 454.88 849.00 462.33 849.00 C 462.33 803.67 462.33 758.33 462.33 713.00 C 454.89 712.99 447.44 713.00 440.00 713.00 M 485.00 713.00 C 485.00 751.00 484.99 788.99 485.01 826.99 C 484.99 833.03 486.67 839.50 491.32 843.66 C 495.83 847.74 502.13 848.99 508.05 849.04 C 518.06 849.17 528.08 849.06 538.09 849.09 C 538.08 843.87 538.16 838.66 538.03 833.45 C 530.38 833.50 522.73 833.45 515.08 833.49 C 512.98 833.37 510.49 833.70 508.86 832.08 C 507.15 830.56 507.42 828.06 507.32 826.01 C 507.35 805.84 507.32 785.68 507.34 765.51 C 517.59 765.51 527.85 765.58 538.11 765.48 C 538.07 760.28 538.11 755.10 538.09 749.91 C 527.83 749.90 517.58 749.91 507.32 749.90 C 507.34 737.60 507.33 725.30 507.33 713.00 C 499.89 712.99 492.44 713.00 485.00 713.00 M 557.00 713.00 C 557.00 719.88 556.99 726.76 557.01 733.65 C 564.45 733.62 571.89 733.68 579.34 733.61 C 579.32 726.74 579.34 719.87 579.33 713.00 C 571.88 712.99 564.44 713.00 557.00 713.00 M 711.00 713.00 C 711.00 719.88 710.98 726.77 711.01 733.65 C 718.45 733.62 725.89 733.68 733.34 733.61 C 733.32 726.74 733.33 719.87 733.33 713.00 C 725.88 712.99 718.44 713.00 711.00 713.00 M 856.00 713.00 C 856.00 719.88 855.99 726.76 856.01 733.65 C 863.45 733.62 870.89 733.68 878.34 733.61 C 878.32 726.74 878.33 719.87 878.33 713.00 C 870.88 712.99 863.44 713.00 856.00 713.00 M 166.00 749.91 C 165.99 782.94 166.00 815.97 166.00 849.00 C 173.44 849.00 180.89 849.00 188.33 849.00 C 188.34 821.17 188.32 793.34 188.34 765.51 C 198.55 765.61 208.78 765.38 218.99 765.62 C 222.41 765.41 224.29 768.91 223.98 771.94 C 224.03 797.62 223.98 823.31 224.00 849.00 C 231.44 849.00 238.89 849.00 246.33 849.00 C 246.34 821.17 246.32 793.34 246.34 765.51 C 255.91 765.54 265.49 765.53 275.07 765.51 C 277.10 765.61 279.48 765.35 281.07 766.89 C 282.84 768.39 282.58 770.93 282.68 773.01 C 282.65 798.34 282.67 823.67 282.67 849.00 C 290.11 849.00 297.55 849.00 305.00 849.00 C 304.99 823.32 305.02 797.63 304.99 771.95 C 305.02 765.70 303.14 758.97 298.14 754.87 C 293.12 750.69 286.31 749.88 280.01 749.92 C 242.01 749.88 204.01 749.91 166.00 749.91 M 327.00 750.00 C 327.01 775.67 326.99 801.33 327.01 827.00 C 326.99 833.04 328.68 839.53 333.35 843.68 C 338.10 847.97 344.78 849.07 350.97 849.06 C 373.31 849.14 395.65 849.07 418.00 849.09 C 418.00 816.06 418.00 783.03 418.00 750.00 C 410.55 750.00 403.11 749.99 395.67 750.00 C 395.66 777.83 395.68 805.66 395.66 833.49 C 381.79 833.37 367.91 833.65 354.04 833.36 C 351.13 833.42 349.14 830.62 349.37 827.89 C 349.27 801.93 349.36 775.97 349.33 750.00 C 341.89 749.99 334.44 750.00 327.00 750.00 M 557.00 750.00 C 557.00 783.00 557.00 816.00 557.00 849.00 C 564.44 849.00 571.88 849.00 579.33 849.00 C 579.33 816.00 579.33 783.00 579.33 750.00 C 571.89 749.99 564.44 750.00 557.00 750.00 M 592.45 750.00 C 605.89 783.01 619.26 816.05 632.75 849.03 C 640.79 848.96 648.84 849.02 656.88 849.00 C 670.32 816.01 683.73 783.02 697.13 750.02 C 689.56 750.01 681.99 749.94 674.42 750.06 C 664.61 774.37 654.68 798.65 644.78 822.93 C 634.92 798.61 625.00 774.31 615.11 750.00 C 607.55 750.00 600.00 750.00 592.45 750.00 M 711.00 750.00 C 711.00 783.00 711.00 816.00 711.00 849.00 C 718.44 849.00 725.88 849.00 733.33 849.00 C 733.33 816.00 733.33 783.00 733.33 750.00 C 725.88 749.99 718.44 750.00 711.00 750.00 M 759.68 755.70 C 754.80 760.38 753.60 767.51 753.66 773.99 C 753.71 781.39 752.98 789.44 757.07 796.01 C 760.75 802.11 768.11 804.74 774.94 804.92 C 785.32 805.11 795.70 804.94 806.09 805.00 C 808.14 805.04 810.64 805.16 811.95 807.04 C 813.39 809.39 812.88 812.31 813.02 814.95 C 812.80 819.94 813.41 824.98 812.64 829.93 C 812.15 832.55 809.28 833.63 806.89 833.46 C 789.15 833.51 771.41 833.43 753.67 833.49 C 753.66 838.69 753.66 843.89 753.67 849.09 C 770.79 849.11 787.91 849.08 805.03 849.10 C 812.92 849.10 821.77 849.55 828.27 844.24 C 834.29 839.46 835.54 831.23 835.35 824.00 C 835.02 815.61 836.59 806.47 832.17 798.85 C 828.56 792.42 820.91 789.81 813.93 789.51 C 802.96 789.23 791.98 789.58 781.01 789.35 C 778.13 789.51 775.99 786.83 776.09 784.10 C 775.96 779.39 775.81 774.65 776.20 769.96 C 776.33 767.02 779.26 765.23 782.01 765.55 C 797.51 765.48 813.01 765.56 828.52 765.52 C 828.52 760.31 828.54 755.11 828.51 749.91 C 811.68 749.92 794.86 749.87 778.03 749.93 C 771.56 749.89 764.51 751.02 759.68 755.70 M 856.00 750.00 C 856.00 783.00 856.00 816.00 856.00 849.00 C 863.44 849.00 870.88 849.00 878.33 849.00 C 878.33 816.00 878.33 783.00 878.33 750.00 C 870.88 749.99 863.44 750.00 856.00 750.00 M 917.46 750.57 C 912.85 751.48 908.28 753.63 905.37 757.44 C 901.93 761.81 900.91 767.56 901.00 773.01 C 901.01 791.01 900.98 809.01 901.01 827.02 C 900.99 833.05 902.69 839.53 907.34 843.67 C 912.12 848.00 918.85 849.07 925.08 849.06 C 938.39 849.14 951.70 849.07 965.02 849.10 C 971.50 849.14 978.47 848.87 983.98 845.02 C 989.81 841.06 992.08 833.69 991.99 826.94 C 991.98 808.26 992.05 789.59 991.96 770.92 C 991.90 764.03 988.99 756.65 982.72 753.19 C 974.57 748.58 964.87 750.24 955.94 749.91 C 943.12 750.22 930.22 749.20 917.46 750.57 M 1014.00 749.91 C 1014.00 782.94 1014.00 815.97 1014.00 849.00 C 1021.44 849.00 1028.88 849.00 1036.33 849.00 C 1036.34 821.17 1036.32 793.34 1036.33 765.51 C 1049.87 765.58 1063.40 765.45 1076.94 765.56 C 1080.08 765.17 1082.92 767.80 1082.62 770.98 C 1082.74 796.98 1082.63 822.99 1082.67 849.00 C 1090.11 849.00 1097.55 849.00 1105.00 849.00 C 1105.00 826.01 1105.00 803.03 1105.00 780.05 C 1104.98 772.80 1105.70 764.87 1101.44 758.55 C 1097.30 752.15 1089.24 749.93 1082.01 749.97 C 1059.34 749.82 1036.67 749.94 1014.00 749.91 Z" />
<path fill="#334fa2" opacity="1.00" d=" M 926.14 766.06 C 933.30 764.87 940.69 765.83 947.95 765.53 C 953.96 765.68 960.01 765.19 966.00 765.79 C 968.82 766.30 969.83 769.35 969.66 771.88 C 969.65 790.56 969.72 809.24 969.63 827.92 C 969.84 830.65 967.83 833.43 964.92 833.36 C 953.62 833.64 942.31 833.37 931.00 833.49 C 928.92 833.37 926.47 833.66 924.86 832.07 C 923.17 830.57 923.41 828.10 923.32 826.07 C 923.35 808.01 923.31 789.96 923.34 771.90 C 923.26 769.65 923.81 766.99 926.14 766.06 Z" />
</g>
<g id="#ffffffff">
<path fill="#ffffff" opacity="1.00" d=" M 440.00 713.00 C 447.44 713.00 454.89 712.99 462.33 713.00 C 462.33 758.33 462.33 803.67 462.33 849.00 C 454.88 849.00 447.44 849.00 440.00 849.00 C 440.00 803.67 440.00 758.33 440.00 713.00 Z" />
<path fill="#ffffff" opacity="1.00" d=" M 485.00 713.00 C 492.44 713.00 499.89 712.99 507.33 713.00 C 507.33 725.30 507.34 737.60 507.32 749.90 C 517.58 749.91 527.83 749.90 538.09 749.91 C 538.11 755.10 538.07 760.28 538.11 765.48 C 527.85 765.58 517.59 765.51 507.34 765.51 C 507.32 785.68 507.35 805.84 507.32 826.01 C 507.42 828.06 507.15 830.56 508.86 832.08 C 510.49 833.70 512.98 833.37 515.08 833.49 C 522.73 833.45 530.38 833.50 538.03 833.45 C 538.16 838.66 538.08 843.87 538.09 849.09 C 528.08 849.06 518.06 849.17 508.05 849.04 C 502.13 848.99 495.83 847.74 491.32 843.66 C 486.67 839.50 484.99 833.03 485.01 826.99 C 484.99 788.99 485.00 751.00 485.00 713.00 Z" />
<path fill="#ffffff" opacity="1.00" d=" M 557.00 713.00 C 564.44 713.00 571.88 712.99 579.33 713.00 C 579.34 719.87 579.32 726.74 579.34 733.61 C 571.89 733.68 564.45 733.62 557.01 733.65 C 556.99 726.76 557.00 719.88 557.00 713.00 Z" />
<path fill="#ffffff" opacity="1.00" d=" M 711.00 713.00 C 718.44 713.00 725.88 712.99 733.33 713.00 C 733.33 719.87 733.32 726.74 733.34 733.61 C 725.89 733.68 718.45 733.62 711.01 733.65 C 710.98 726.77 711.00 719.88 711.00 713.00 Z" />
<path fill="#ffffff" opacity="1.00" d=" M 856.00 713.00 C 863.44 713.00 870.88 712.99 878.33 713.00 C 878.33 719.87 878.32 726.74 878.34 733.61 C 870.89 733.68 863.45 733.62 856.01 733.65 C 855.99 726.76 856.00 719.88 856.00 713.00 Z" />
<path fill="#ffffff" opacity="1.00" d=" M 166.00 749.91 C 204.01 749.91 242.01 749.88 280.01 749.92 C 286.31 749.88 293.12 750.69 298.14 754.87 C 303.14 758.97 305.02 765.70 304.99 771.95 C 305.02 797.63 304.99 823.32 305.00 849.00 C 297.55 849.00 290.11 849.00 282.67 849.00 C 282.67 823.67 282.65 798.34 282.68 773.01 C 282.58 770.93 282.84 768.39 281.07 766.89 C 279.48 765.35 277.10 765.61 275.07 765.51 C 265.49 765.53 255.91 765.54 246.34 765.51 C 246.32 793.34 246.34 821.17 246.33 849.00 C 238.89 849.00 231.44 849.00 224.00 849.00 C 223.98 823.31 224.03 797.62 223.98 771.94 C 224.29 768.91 222.41 765.41 218.99 765.62 C 208.78 765.38 198.55 765.61 188.34 765.51 C 188.32 793.34 188.34 821.17 188.33 849.00 C 180.89 849.00 173.44 849.00 166.00 849.00 C 166.00 815.97 165.99 782.94 166.00 749.91 Z" />
<path fill="#ffffff" opacity="1.00" d=" M 327.00 750.00 C 334.44 750.00 341.89 749.99 349.33 750.00 C 349.36 775.97 349.27 801.93 349.37 827.89 C 349.14 830.62 351.13 833.42 354.04 833.36 C 367.91 833.65 381.79 833.37 395.66 833.49 C 395.68 805.66 395.66 777.83 395.67 750.00 C 403.11 749.99 410.55 750.00 418.00 750.00 C 418.00 783.03 418.00 816.06 418.00 849.09 C 395.65 849.07 373.31 849.14 350.97 849.06 C 344.78 849.07 338.10 847.97 333.35 843.68 C 328.68 839.53 326.99 833.04 327.01 827.00 C 326.99 801.33 327.01 775.67 327.00 750.00 Z" />
<path fill="#ffffff" opacity="1.00" d=" M 557.00 750.00 C 564.44 750.00 571.89 749.99 579.33 750.00 C 579.33 783.00 579.33 816.00 579.33 849.00 C 571.88 849.00 564.44 849.00 557.00 849.00 C 557.00 816.00 557.00 783.00 557.00 750.00 Z" />
<path fill="#ffffff" opacity="1.00" d=" M 592.45 750.00 C 600.00 750.00 607.55 750.00 615.11 750.00 C 625.00 774.31 634.92 798.61 644.78 822.93 C 654.68 798.65 664.61 774.37 674.42 750.06 C 681.99 749.94 689.56 750.01 697.13 750.02 C 683.73 783.02 670.32 816.01 656.88 849.00 C 648.84 849.02 640.79 848.96 632.75 849.03 C 619.26 816.05 605.89 783.01 592.45 750.00 Z" />
<path fill="#ffffff" opacity="1.00" d=" M 711.00 750.00 C 718.44 750.00 725.88 749.99 733.33 750.00 C 733.33 783.00 733.33 816.00 733.33 849.00 C 725.88 849.00 718.44 849.00 711.00 849.00 C 711.00 816.00 711.00 783.00 711.00 750.00 Z" />
<path fill="#ffffff" opacity="1.00" d=" M 759.68 755.70 C 764.51 751.02 771.56 749.89 778.03 749.93 C 794.86 749.87 811.68 749.92 828.51 749.91 C 828.54 755.11 828.52 760.31 828.52 765.52 C 813.01 765.56 797.51 765.48 782.01 765.55 C 779.26 765.23 776.33 767.02 776.20 769.96 C 775.81 774.65 775.96 779.39 776.09 784.10 C 775.99 786.83 778.13 789.51 781.01 789.35 C 791.98 789.58 802.96 789.23 813.93 789.51 C 820.91 789.81 828.56 792.42 832.17 798.85 C 836.59 806.47 835.02 815.61 835.35 824.00 C 835.54 831.23 834.29 839.46 828.27 844.24 C 821.77 849.55 812.92 849.10 805.03 849.10 C 787.91 849.08 770.79 849.11 753.67 849.09 C 753.66 843.89 753.66 838.69 753.67 833.49 C 771.41 833.43 789.15 833.51 806.89 833.46 C 809.28 833.63 812.15 832.55 812.64 829.93 C 813.41 824.98 812.80 819.94 813.02 814.95 C 812.88 812.31 813.39 809.39 811.95 807.04 C 810.64 805.16 808.14 805.04 806.09 805.00 C 795.70 804.94 785.32 805.11 774.94 804.92 C 768.11 804.74 760.75 802.11 757.07 796.01 C 752.98 789.44 753.71 781.39 753.66 773.99 C 753.60 767.51 754.80 760.38 759.68 755.70 Z" />
<path fill="#ffffff" opacity="1.00" d=" M 856.00 750.00 C 863.44 750.00 870.88 749.99 878.33 750.00 C 878.33 783.00 878.33 816.00 878.33 849.00 C 870.88 849.00 863.44 849.00 856.00 849.00 C 856.00 816.00 856.00 783.00 856.00 750.00 Z" />
<path fill="#ffffff" opacity="1.00" d=" M 917.46 750.57 C 930.22 749.20 943.12 750.22 955.94 749.91 C 964.87 750.24 974.57 748.58 982.72 753.19 C 988.99 756.65 991.90 764.03 991.96 770.92 C 992.05 789.59 991.98 808.26 991.99 826.94 C 992.08 833.69 989.81 841.06 983.98 845.02 C 978.47 848.87 971.50 849.14 965.02 849.10 C 951.70 849.07 938.39 849.14 925.08 849.06 C 918.85 849.07 912.12 848.00 907.34 843.67 C 902.69 839.53 900.99 833.05 901.01 827.02 C 900.98 809.01 901.01 791.01 901.00 773.01 C 900.91 767.56 901.93 761.81 905.37 757.44 C 908.28 753.63 912.85 751.48 917.46 750.57 M 926.14 766.06 C 923.81 766.99 923.26 769.65 923.34 771.90 C 923.31 789.96 923.35 808.01 923.32 826.07 C 923.41 828.10 923.17 830.57 924.86 832.07 C 926.47 833.66 928.92 833.37 931.00 833.49 C 942.31 833.37 953.62 833.64 964.92 833.36 C 967.83 833.43 969.84 830.65 969.63 827.92 C 969.72 809.24 969.65 790.56 969.66 771.88 C 969.83 769.35 968.82 766.30 966.00 765.79 C 960.01 765.19 953.96 765.68 947.95 765.53 C 940.69 765.83 933.30 764.87 926.14 766.06 Z" />
<path fill="#ffffff" opacity="1.00" d=" M 1014.00 749.91 C 1036.67 749.94 1059.34 749.82 1082.01 749.97 C 1089.24 749.93 1097.30 752.15 1101.44 758.55 C 1105.70 764.87 1104.98 772.80 1105.00 780.05 C 1105.00 803.03 1105.00 826.01 1105.00 849.00 C 1097.55 849.00 1090.11 849.00 1082.67 849.00 C 1082.63 822.99 1082.74 796.98 1082.62 770.98 C 1082.92 767.80 1080.08 765.17 1076.94 765.56 C 1063.40 765.45 1049.87 765.58 1036.33 765.51 C 1036.32 793.34 1036.34 821.17 1036.33 849.00 C 1028.88 849.00 1021.44 849.00 1014.00 849.00 C 1014.00 815.97 1014.00 782.94 1014.00 749.91 Z" />
</g>
</svg>
