<?xml version="1.0" encoding="UTF-8" ?>
<!DOCTYPE svg PUBLIC "-//W3C//DTD SVG 1.1//EN" "http://www.w3.org/Graphics/SVG/1.1/DTD/svg11.dtd">
<svg width="1276pt" height="1276pt" viewBox="0 0 1276 1276" version="1.1" xmlns="http://www.w3.org/2000/svg">
<g id="#cd171fff">
<path fill="#cd171f" opacity="1.00" d=" M 224.02 498.62 C 267.03 496.56 310.44 496.05 353.06 503.11 C 373.12 506.51 393.17 511.42 411.51 520.42 C 423.17 526.38 434.66 534.34 440.85 546.23 C 447.41 558.56 446.24 574.20 439.00 585.98 C 431.83 597.73 420.07 605.78 407.95 611.81 C 395.90 617.45 383.19 621.90 370.03 624.04 C 374.66 624.99 379.42 625.03 384.04 626.07 C 401.10 629.69 417.56 636.80 431.29 647.64 C 441.35 655.84 450.26 666.17 454.17 678.77 C 458.55 692.47 456.97 708.06 449.44 720.39 C 440.66 734.93 426.27 745.01 411.37 752.55 C 388.35 763.79 363.16 769.85 337.91 773.43 C 318.07 776.25 298.01 777.20 277.99 776.93 C 231.22 776.85 184.28 773.84 138.28 765.02 C 138.47 749.48 138.21 733.95 138.41 718.42 C 179.21 730.22 221.41 738.32 264.00 738.54 C 284.74 738.37 305.72 736.29 325.46 729.60 C 336.26 725.77 347.05 720.57 354.76 711.84 C 361.24 704.71 364.11 694.14 360.83 684.90 C 357.44 674.60 347.96 667.99 338.51 663.68 C 321.35 656.15 302.58 653.36 284.08 651.40 C 253.75 648.18 223.23 649.26 192.80 648.90 C 192.82 635.89 192.79 622.87 192.81 609.86 C 220.55 609.53 248.35 610.87 276.00 608.19 C 292.99 606.41 310.22 604.01 326.10 597.41 C 335.13 593.51 344.53 587.71 348.09 578.02 C 350.72 571.63 349.73 563.94 345.33 558.56 C 338.89 550.36 329.03 545.86 319.46 542.39 C 300.37 535.87 280.06 534.20 260.03 533.85 C 243.63 534.33 227.20 534.92 210.92 537.13 C 188.47 539.86 166.41 544.93 144.44 550.12 C 144.44 535.76 144.51 521.40 144.40 507.04 C 170.70 502.41 197.38 500.25 224.02 498.62 Z" />
</g>
<g id="#ffffffff">
<path fill="#ffffff" opacity="1.00" d=" M 483.42 499.22 C 538.93 499.20 594.44 499.22 649.96 499.21 C 672.57 498.94 695.17 501.11 717.48 504.70 C 736.51 508.06 755.69 512.23 773.15 520.78 C 788.73 528.38 803.52 537.87 816.05 549.91 C 828.82 562.20 839.10 577.20 845.29 593.85 C 854.06 617.40 855.13 643.53 849.47 667.93 C 843.33 693.95 827.54 717.17 806.63 733.63 C 788.67 747.76 768.00 758.71 745.83 764.45 C 716.85 772.09 686.86 775.20 656.98 776.16 C 599.14 776.14 541.31 776.13 483.48 776.17 C 483.40 683.85 483.51 591.54 483.42 499.22 M 573.21 536.67 C 573.26 603.64 573.31 670.62 573.18 737.60 C 583.11 737.64 593.04 737.61 602.96 737.62 C 618.31 737.47 633.70 738.15 649.00 736.59 C 666.15 735.09 683.24 731.57 699.22 725.06 C 715.66 718.34 730.94 707.86 741.47 693.39 C 753.07 677.83 758.43 658.20 758.38 638.94 C 758.80 621.81 755.06 604.38 746.54 589.43 C 737.96 574.19 724.33 562.21 708.92 554.17 C 689.80 544.14 668.32 539.47 646.93 537.63 C 622.40 535.89 597.78 536.94 573.21 536.67 Z" />
<path fill="#ffffff" opacity="1.00" d=" M 900.13 519.07 C 924.26 506.90 951.31 502.18 977.99 499.72 C 1003.04 497.88 1028.22 498.20 1053.29 499.61 C 1071.10 500.75 1088.69 503.92 1106.24 507.03 C 1106.42 521.54 1106.21 536.06 1106.36 550.58 C 1084.94 546.30 1063.90 540.06 1042.20 537.27 C 1031.20 535.56 1020.06 535.30 1008.97 534.76 C 993.40 535.34 977.34 536.20 962.92 542.69 C 956.20 545.80 949.47 550.47 946.79 557.70 C 944.31 563.80 946.19 570.89 950.06 575.98 C 955.36 582.90 963.14 587.20 970.74 591.14 C 991.47 600.98 1013.41 607.91 1034.90 615.87 C 1054.83 623.33 1074.83 630.92 1093.48 641.27 C 1105.69 648.18 1117.62 656.44 1125.84 668.03 C 1139.39 687.06 1139.25 715.07 1124.66 733.51 C 1115.26 745.59 1101.81 753.76 1087.86 759.60 C 1066.93 768.15 1044.47 772.25 1022.06 774.53 C 996.20 777.19 970.16 776.94 944.22 776.21 C 916.88 775.31 889.63 772.42 862.63 768.10 C 862.54 752.47 862.65 736.83 862.57 721.20 C 884.89 729.55 908.65 733.12 932.18 736.16 C 956.62 738.57 981.46 741.14 1005.90 737.39 C 1016.82 735.42 1028.10 732.06 1036.36 724.30 C 1041.98 719.18 1045.44 711.63 1044.92 703.98 C 1045.27 696.90 1040.98 690.59 1035.81 686.16 C 1028.48 679.98 1019.78 675.72 1011.10 671.79 C 991.63 663.14 971.35 656.49 951.55 648.64 C 930.96 640.46 910.16 632.04 891.85 619.35 C 882.28 612.65 873.55 604.30 868.19 593.79 C 861.40 580.07 860.93 563.22 867.66 549.39 C 874.29 535.68 886.86 525.92 900.13 519.07 Z" />
</g>
</svg>
