<?xml version="1.0" encoding="UTF-8" ?>
<!DOCTYPE svg PUBLIC "-//W3C//DTD SVG 1.1//EN" "http://www.w3.org/Graphics/SVG/1.1/DTD/svg11.dtd">
<svg width="1276pt" height="1276pt" viewBox="0 0 1276 1276" version="1.1" xmlns="http://www.w3.org/2000/svg">
<g id="#ffa623ff">
<path fill="#ffa623" opacity="1.00" d=" M 514.03 232.51 C 555.61 215.95 597.28 199.58 638.98 183.29 C 680.37 199.96 722.01 216.03 763.43 232.65 C 721.89 249.12 680.33 265.55 638.81 282.08 C 597.19 265.62 555.65 248.96 514.03 232.51 Z" />
<path fill="#ffa623" opacity="1.00" d=" M 192.48 358.34 C 234.59 341.58 276.82 325.12 318.99 308.49 C 359.45 324.50 399.98 340.36 440.47 356.33 C 442.10 356.98 443.75 357.57 445.45 358.08 C 445.31 358.24 445.02 358.55 444.88 358.70 C 402.82 375.07 360.90 391.83 318.87 408.28 C 276.76 391.57 234.56 375.11 192.48 358.34 Z" />
<path fill="#ffa623" opacity="1.00" d=" M 942.99 314.62 C 948.33 312.74 953.50 309.97 958.95 308.71 C 1000.95 325.21 1042.98 341.66 1084.92 358.31 C 1042.91 375.19 1000.66 391.51 958.61 408.30 C 926.38 395.63 894.17 382.89 861.95 370.19 C 852.05 366.19 842.00 362.54 832.20 358.31 C 869.05 343.56 906.07 329.20 942.99 314.62 Z" />
<path fill="#ffa623" opacity="1.00" d=" M 536.12 469.60 C 570.40 456.22 604.62 442.67 638.95 429.40 C 671.54 442.38 704.26 455.02 736.91 467.86 C 748.75 472.68 760.84 476.93 772.56 482.03 C 727.85 499.44 683.26 517.17 638.50 534.40 C 605.75 521.44 572.91 508.71 540.13 495.81 C 528.34 491.36 516.76 486.35 504.85 482.25 C 504.85 482.15 504.84 481.95 504.84 481.85 C 515.26 477.75 525.70 473.70 536.12 469.60 Z" />
</g>
<g id="#23b057ff">
<path fill="#23b057" opacity="1.00" d=" M 445.78 357.42 C 468.49 315.77 491.28 274.15 514.03 232.51 C 555.65 248.96 597.19 265.62 638.81 282.08 C 604.57 344.58 570.20 407.01 536.12 469.60 C 525.70 473.70 515.26 477.75 504.84 481.85 C 485.25 440.75 465.36 399.79 445.66 358.75 C 445.69 358.42 445.75 357.75 445.78 357.42 Z" />
<path fill="#23b057" opacity="1.00" d=" M 192.35 358.29 L 192.48 358.34 C 234.56 375.11 276.76 391.57 318.87 408.28 C 380.87 527.58 442.65 647.01 504.78 766.24 C 504.94 671.58 504.80 576.91 504.85 482.25 C 516.76 486.35 528.34 491.36 540.13 495.81 C 572.91 508.71 605.75 521.44 638.50 534.40 C 638.99 551.93 638.59 569.48 638.71 587.01 C 638.76 756.28 638.65 925.54 638.76 1094.81 C 594.44 1075.65 550.13 1056.46 505.81 1037.30 C 504.10 1036.56 503.74 1034.49 502.86 1033.05 C 481.15 989.79 459.24 946.64 437.61 903.34 C 404.06 837.16 370.87 770.80 337.39 704.59 C 331.25 692.68 325.60 680.50 319.13 668.77 C 319.03 764.83 319.16 860.89 319.05 956.96 C 276.78 938.95 234.60 920.71 192.37 902.62 C 192.43 721.18 192.46 539.73 192.35 358.29 Z" />
<path fill="#23b057" opacity="1.00" d=" M 832.04 358.24 L 832.20 358.31 C 842.00 362.54 852.05 366.19 861.95 370.19 C 894.17 382.89 926.38 395.63 958.61 408.30 C 958.44 523.27 958.63 638.25 958.52 753.23 C 953.90 747.83 950.38 741.57 946.20 735.83 C 888.33 651.23 830.43 566.64 772.56 482.03 C 760.84 476.93 748.75 472.68 736.91 467.86 C 745.79 457.76 754.51 447.53 763.38 437.42 C 786.24 411.00 809.21 384.68 832.04 358.24 Z" />
</g>
<g id="#354ea2ff">
<path fill="#354ea2" opacity="1.00" d=" M 638.81 282.08 C 680.33 265.55 721.89 249.12 763.43 232.65 C 763.31 300.90 763.41 369.16 763.38 437.42 C 754.51 447.53 745.79 457.76 736.91 467.86 C 704.26 455.02 671.54 442.38 638.95 429.40 C 604.62 442.67 570.40 456.22 536.12 469.60 C 570.20 407.01 604.57 344.58 638.81 282.08 Z" />
<path fill="#354ea2" opacity="1.00" d=" M 1084.92 358.31 L 1085.03 358.27 C 1084.77 539.77 1085.14 721.29 1084.84 902.80 C 1047.00 918.84 1009.30 935.23 971.50 951.38 C 967.53 953.13 963.48 954.71 959.62 956.71 C 959.12 956.41 958.13 955.83 957.63 955.53 C 897.33 875.08 837.04 794.62 776.75 714.16 C 775.36 712.33 774.22 710.25 772.34 708.89 L 771.22 709.25 C 770.67 752.82 771.21 796.43 770.97 840.01 C 770.90 842.02 771.14 844.04 771.56 846.02 C 771.77 845.85 772.18 845.50 772.39 845.33 L 772.80 845.31 C 772.41 909.11 772.65 972.94 772.68 1036.75 C 728.12 1056.28 683.37 1075.38 638.76 1094.81 C 638.65 925.54 638.76 756.28 638.71 587.01 C 638.59 569.48 638.99 551.93 638.50 534.40 C 683.26 517.17 727.85 499.44 772.56 482.03 C 830.43 566.64 888.33 651.23 946.20 735.83 C 950.38 741.57 953.90 747.83 958.52 753.23 C 958.63 638.25 958.44 523.27 958.61 408.30 C 1000.66 391.51 1042.91 375.19 1084.92 358.31 Z" />
<path fill="#354ea2" opacity="1.00" d=" M 319.13 668.77 C 325.60 680.50 331.25 692.68 337.39 704.59 C 370.87 770.80 404.06 837.16 437.61 903.34 C 398.02 921.05 358.55 939.05 319.05 956.96 C 319.16 860.89 319.03 764.83 319.13 668.77 Z" />
</g>
<g id="#f01b25ff">
<path fill="#f01b25" opacity="1.00" d=" M 318.87 408.28 C 360.90 391.83 402.82 375.07 444.88 358.70 L 445.66 358.75 C 465.36 399.79 485.25 440.75 504.84 481.85 C 504.84 481.95 504.85 482.15 504.85 482.25 C 504.80 576.91 504.94 671.58 504.78 766.24 C 442.65 647.01 380.87 527.58 318.87 408.28 Z" />
<path fill="#f01b25" opacity="1.00" d=" M 772.34 708.89 C 774.22 710.25 775.36 712.33 776.75 714.16 C 837.04 794.62 897.33 875.08 957.63 955.53 C 958.13 955.83 959.12 956.41 959.62 956.71 C 955.50 956.57 951.94 954.05 948.07 952.86 C 902.70 935.05 857.32 917.22 811.95 899.40 C 810.89 899.03 810.07 898.38 809.51 897.44 C 798.74 881.93 787.92 866.45 777.10 850.97 C 775.98 849.14 774.12 847.55 774.07 845.28 C 773.75 845.29 773.12 845.30 772.80 845.31 L 772.39 845.33 C 772.42 799.85 772.53 754.37 772.34 708.89 Z" />
</g>
<g id="#1d55b2ff">
<path fill="#1d55b2" opacity="1.00" d=" M 771.22 709.25 L 772.34 708.89 C 772.53 754.37 772.42 799.85 772.39 845.33 C 772.18 845.50 771.77 845.85 771.56 846.02 C 771.14 844.04 770.90 842.02 770.97 840.01 C 771.21 796.43 770.67 752.82 771.22 709.25 Z" />
</g>
</svg>
