<?xml version="1.0" encoding="UTF-8" ?>
<!DOCTYPE svg PUBLIC "-//W3C//DTD SVG 1.1//EN" "http://www.w3.org/Graphics/SVG/1.1/DTD/svg11.dtd">
<svg width="1276pt" height="1276pt" viewBox="0 0 1276 1276" version="1.1" xmlns="http://www.w3.org/2000/svg">
<g id="#f36418ff">
<path fill="#f36418" opacity="1.00" d=" M 660.37 518.65 C 671.02 518.05 681.71 517.73 692.37 518.49 C 696.82 518.88 701.09 520.40 705.56 520.70 L 705.47 521.34 C 706.66 521.43 707.84 521.54 709.04 521.66 C 711.01 522.50 713.07 523.13 715.14 523.69 C 716.10 524.03 717.06 524.36 718.05 524.69 C 719.44 525.18 720.82 525.77 722.08 526.59 C 722.30 526.53 722.73 526.42 722.95 526.37 C 725.40 528.24 728.67 528.55 731.00 530.62 C 731.22 530.58 731.67 530.50 731.89 530.46 C 733.25 531.53 734.82 532.31 736.10 533.52 C 736.42 533.48 737.05 533.38 737.37 533.33 L 737.65 534.68 C 738.08 534.60 738.93 534.44 739.36 534.37 L 739.21 535.29 C 740.17 535.73 741.13 536.18 742.10 536.64 C 746.95 540.17 751.81 543.68 756.22 547.77 C 756.47 547.98 756.99 548.39 757.24 548.59 C 759.48 550.58 761.58 552.73 763.64 554.91 L 763.45 555.53 L 764.57 555.40 L 764.38 556.09 C 766.53 558.19 768.50 560.48 770.37 562.85 C 773.72 567.38 777.17 571.99 779.66 577.01 C 782.24 580.36 783.39 584.51 785.64 588.05 C 785.59 588.27 785.50 588.70 785.46 588.92 C 786.77 590.52 787.35 592.52 787.77 594.52 L 788.27 594.45 C 788.52 595.62 788.81 596.79 789.14 597.96 C 789.52 598.94 789.91 599.93 790.29 600.93 L 790.37 601.64 C 790.69 606.21 792.29 610.54 793.05 615.04 C 797.63 641.03 793.42 668.51 780.97 691.82 C 778.98 695.90 776.04 699.43 774.13 703.57 C 773.77 704.15 773.04 705.33 772.68 705.92 C 771.89 706.93 771.12 707.97 770.38 709.03 C 766.81 713.28 763.26 717.55 759.23 721.38 C 758.96 721.68 758.43 722.28 758.17 722.58 L 757.90 722.39 C 754.33 726.11 750.20 729.24 746.12 732.37 C 744.17 733.61 742.26 734.90 740.40 736.24 C 740.19 736.33 739.77 736.50 739.56 736.59 C 735.32 738.14 731.54 740.63 727.47 742.56 C 698.76 756.13 664.39 756.97 634.95 745.16 C 631.27 743.65 627.74 741.77 623.94 740.55 C 623.43 740.27 622.42 739.70 621.91 739.42 L 621.18 739.60 C 612.58 733.84 603.63 728.18 596.46 720.53 C 589.99 714.49 584.61 707.38 579.65 700.14 C 579.30 698.93 578.58 697.88 577.66 697.05 C 577.16 696.05 576.72 695.03 576.29 694.03 C 574.33 691.27 573.13 688.10 571.59 685.13 C 571.06 683.73 570.48 682.37 569.67 681.15 C 569.45 680.36 569.25 679.58 569.06 678.81 C 567.99 673.67 566.03 668.78 564.87 663.66 C 559.27 639.77 561.00 614.14 570.22 591.36 C 572.65 584.67 576.66 578.74 579.52 572.25 C 586.17 561.24 595.22 551.86 604.97 543.56 C 605.99 542.81 607.01 542.06 608.05 541.32 C 613.78 537.05 619.74 532.83 626.40 530.18 L 626.49 529.65 C 628.10 529.14 629.71 528.54 631.05 527.45 C 631.27 527.48 631.71 527.55 631.94 527.58 C 633.29 526.85 634.66 526.14 636.04 525.43 C 636.24 525.42 636.64 525.41 636.84 525.41 C 638.03 524.95 639.24 524.53 640.47 524.16 L 640.51 523.52 C 641.26 523.51 642.77 523.48 643.52 523.47 L 643.49 522.77 C 647.59 522.16 651.44 520.29 655.64 520.30 L 655.38 519.63 C 657.12 519.55 658.86 519.45 660.61 519.38 L 660.37 518.65 M 663.61 555.30 C 661.02 555.48 658.50 556.06 656.00 556.70 C 653.98 557.42 651.95 558.08 649.90 558.68 C 647.29 560.06 644.32 560.70 642.00 562.58 C 641.67 562.54 640.99 562.45 640.66 562.41 L 640.46 563.33 C 634.02 566.13 628.45 570.73 623.19 575.37 C 622.93 575.67 622.42 576.27 622.16 576.57 L 621.47 576.42 L 621.50 577.49 L 620.45 577.48 L 620.49 578.54 L 619.39 578.45 L 619.59 579.17 C 619.29 579.42 618.68 579.90 618.38 580.15 C 614.58 584.10 611.66 588.73 608.35 593.06 C 608.42 593.38 608.58 594.00 608.66 594.32 L 607.67 594.25 C 607.46 595.81 606.63 597.07 605.40 598.03 C 605.48 598.36 605.65 599.04 605.74 599.38 L 604.74 599.59 C 604.13 601.86 602.88 603.90 602.22 606.17 C 601.87 607.11 601.51 608.05 601.14 608.99 C 600.80 609.97 600.49 610.97 600.20 611.98 C 599.25 614.76 598.44 617.60 598.29 620.55 L 597.62 620.41 C 597.01 630.80 597.01 641.23 597.63 651.62 L 598.27 651.43 C 598.48 654.39 599.17 657.31 600.32 660.06 C 600.38 660.67 600.51 661.90 600.57 662.52 L 601.22 662.44 C 601.50 663.59 601.80 664.74 602.12 665.89 C 602.75 667.68 603.35 669.53 604.59 671.02 C 604.52 671.36 604.38 672.03 604.31 672.37 L 605.28 672.55 C 605.70 673.71 606.18 674.86 606.66 676.03 C 614.51 689.89 626.06 701.62 640.10 709.24 C 640.60 709.54 641.59 710.14 642.08 710.44 C 642.31 710.42 642.77 710.39 643.00 710.37 C 644.74 711.76 646.96 712.27 648.94 713.24 C 651.60 714.15 654.21 715.21 656.92 715.98 C 658.64 716.31 660.32 716.74 662.01 717.25 C 671.10 719.13 680.42 718.68 689.65 718.36 L 689.36 717.67 C 691.22 717.57 693.10 717.47 694.98 717.29 C 696.62 716.66 698.33 716.23 700.08 715.95 C 701.08 715.55 702.08 715.14 703.09 714.73 C 703.58 714.66 704.57 714.50 705.06 714.43 C 706.39 713.75 707.74 713.10 709.10 712.45 C 709.31 712.48 709.73 712.55 709.94 712.58 C 712.93 710.72 716.56 709.95 719.15 707.43 C 719.34 707.49 719.74 707.61 719.93 707.66 C 721.04 706.72 722.19 705.80 723.45 705.05 C 731.63 699.80 738.65 692.91 744.39 685.08 C 744.52 684.82 744.78 684.32 744.91 684.06 L 745.61 684.76 C 753.44 673.16 759.03 659.91 760.55 645.92 C 762.78 629.30 759.24 612.20 751.66 597.32 L 750.84 597.94 C 750.29 596.46 749.53 595.06 748.45 593.91 C 748.50 593.69 748.60 593.25 748.65 593.03 C 744.94 588.48 741.92 583.32 737.61 579.25 C 737.31 578.98 736.72 578.43 736.42 578.16 L 736.50 577.49 L 735.81 577.59 C 735.55 577.28 735.02 576.68 734.76 576.38 C 730.69 572.03 725.43 569.08 720.96 565.29 C 720.75 565.37 720.31 565.53 720.09 565.61 C 719.09 563.96 717.08 563.86 715.91 562.42 C 715.69 562.48 715.26 562.60 715.05 562.66 C 712.75 561.07 710.17 559.94 707.47 559.26 L 707.52 558.55 C 706.78 558.52 705.29 558.48 704.55 558.45 L 704.55 557.55 C 703.94 557.50 702.71 557.38 702.10 557.33 C 700.42 556.72 698.71 556.21 697.01 555.75 C 685.99 553.31 674.62 554.21 663.44 554.64 L 663.61 555.30 Z" />
</g>
<g id="#ffffffff">
<path fill="#ffffff" opacity="1.00" d=" M 1138.28 520.34 C 1150.16 520.29 1162.04 520.38 1173.92 520.29 C 1173.91 594.37 1174.00 668.45 1173.88 742.52 C 1162.05 742.37 1150.21 742.49 1138.39 742.46 C 1138.23 668.42 1138.45 594.38 1138.28 520.34 Z" />
<path fill="#ffffff" opacity="1.00" d=" M 264.61 523.41 C 271.94 523.23 279.28 523.29 286.61 523.37 L 287.00 521.42 L 287.39 523.37 C 291.77 523.26 296.15 523.29 300.54 523.35 C 300.43 594.99 300.50 666.64 300.50 738.28 C 298.69 737.53 297.16 736.32 295.63 735.13 L 295.68 734.75 C 295.29 734.52 294.51 734.07 294.12 733.85 C 292.68 732.62 291.28 731.35 289.87 730.11 C 289.48 729.90 288.70 729.47 288.32 729.25 L 288.37 728.89 C 286.93 727.87 285.56 726.75 284.24 725.60 C 283.99 725.42 283.50 725.06 283.25 724.88 C 281.74 723.65 280.27 722.37 278.82 721.08 C 278.46 720.87 277.75 720.46 277.40 720.25 L 277.40 719.85 C 276.14 718.95 274.91 718.01 273.65 717.12 L 273.67 716.75 C 273.29 716.52 272.54 716.08 272.16 715.85 C 270.71 714.62 269.32 713.33 267.88 712.10 C 267.49 711.89 266.71 711.47 266.32 711.26 L 266.42 710.84 C 265.15 709.95 263.92 709.01 262.66 708.13 L 262.55 707.77 C 262.21 707.43 261.52 706.76 261.18 706.43 L 260.85 706.66 C 259.54 705.36 258.15 704.14 256.61 703.13 L 256.58 702.39 L 255.88 702.65 C 254.20 701.08 252.50 699.54 250.76 698.05 C 250.41 697.87 249.70 697.50 249.34 697.32 L 249.37 696.87 C 248.11 695.97 246.88 695.03 245.61 694.15 L 245.54 693.39 L 244.41 693.61 L 244.44 692.81 C 243.17 691.93 241.93 691.00 240.66 690.13 L 240.58 689.76 C 240.23 689.44 239.52 688.78 239.17 688.46 L 238.84 688.68 C 237.56 687.35 236.18 686.12 234.66 685.09 L 234.66 684.76 C 234.27 684.53 233.49 684.08 233.11 683.86 C 231.64 682.60 230.22 681.30 228.78 680.04 C 228.42 679.86 227.70 679.50 227.33 679.33 L 227.37 678.88 C 226.11 677.97 224.89 677.03 223.64 676.14 L 223.63 675.70 C 223.28 675.52 222.57 675.16 222.21 674.98 C 220.78 673.68 219.34 672.39 217.88 671.14 C 217.50 670.92 216.74 670.47 216.36 670.25 L 216.37 669.88 C 215.11 668.97 213.90 668.00 212.65 667.10 L 212.65 666.74 C 212.27 666.53 211.53 666.11 211.15 665.90 C 209.69 664.62 208.28 663.30 206.82 662.04 C 206.45 661.86 205.71 661.50 205.34 661.32 L 205.39 660.87 C 204.13 659.97 202.91 659.02 201.65 658.13 L 201.58 657.76 C 201.22 657.44 200.51 656.82 200.16 656.50 L 199.83 656.66 C 198.52 655.37 197.14 654.15 195.62 653.11 L 195.54 652.41 L 194.83 652.61 C 193.26 651.21 191.74 649.75 190.18 648.34 L 189.85 648.50 C 189.49 648.19 188.76 647.57 188.39 647.26 L 188.36 646.89 C 187.09 645.99 185.86 645.04 184.59 644.16 L 184.58 643.39 L 183.46 643.60 L 183.39 642.85 C 182.12 641.95 180.90 641.01 179.64 640.12 L 179.60 639.76 C 179.24 639.44 178.51 638.81 178.14 638.50 L 177.82 638.65 C 176.53 637.35 175.16 636.12 173.65 635.10 L 173.61 634.76 C 173.23 634.54 172.49 634.10 172.12 633.88 C 170.64 632.62 169.22 631.31 167.78 630.03 C 167.42 629.85 166.70 629.51 166.34 629.34 L 166.36 628.88 C 165.10 627.98 163.88 627.03 162.62 626.14 L 162.68 625.74 C 162.29 625.52 161.50 625.10 161.10 624.89 C 159.68 623.64 158.30 622.37 156.89 621.13 C 156.50 620.91 155.72 620.48 155.33 620.26 L 155.35 619.90 C 154.10 618.99 152.89 618.04 151.64 617.14 L 151.59 616.74 C 151.24 616.53 150.54 616.10 150.19 615.88 C 148.69 614.65 147.24 613.34 145.79 612.05 C 145.44 611.86 144.73 611.48 144.38 611.28 L 144.37 610.86 C 143.11 609.96 141.89 609.02 140.63 608.13 L 140.60 607.38 L 139.47 607.55 L 139.44 606.82 C 136.94 605.42 135.31 602.83 132.54 601.87 C 132.52 648.19 132.45 694.51 132.58 740.83 L 131.41 740.28 L 131.74 741.39 C 121.58 741.30 111.43 741.30 101.27 741.39 C 100.89 674.28 101.22 607.16 101.11 540.04 C 101.26 534.81 100.70 529.54 101.55 524.36 C 102.15 525.11 103.33 526.63 103.93 527.38 C 105.09 528.19 106.21 529.04 107.36 529.87 L 107.46 530.24 C 107.80 530.57 108.48 531.23 108.82 531.56 L 109.15 531.36 C 110.46 532.63 111.85 533.86 113.36 534.92 L 113.41 535.24 C 113.77 535.55 114.51 536.18 114.87 536.49 L 115.60 536.36 L 115.65 537.09 C 117.08 538.12 118.46 539.22 119.80 540.39 C 120.04 540.69 120.51 541.31 120.75 541.62 L 121.15 541.33 C 122.45 542.62 123.84 543.84 125.35 544.90 L 125.40 545.23 C 125.76 545.56 126.49 546.21 126.85 546.53 L 127.57 546.37 L 127.64 547.08 C 129.16 548.13 130.55 549.35 131.86 550.66 L 132.18 550.44 C 132.52 550.77 133.20 551.44 133.54 551.77 L 133.64 552.14 C 134.89 553.03 136.10 553.98 137.35 554.88 L 137.43 555.24 C 137.79 555.55 138.49 556.18 138.84 556.50 L 139.17 556.34 C 140.74 557.76 142.27 559.23 143.85 560.64 L 144.15 560.47 C 144.51 560.80 145.23 561.44 145.59 561.77 L 145.66 562.10 C 147.08 563.13 148.46 564.23 149.80 565.38 C 150.04 565.68 150.53 566.28 150.77 566.58 L 151.15 566.35 C 152.45 567.64 153.84 568.85 155.35 569.90 L 155.40 570.24 C 155.77 570.55 156.50 571.19 156.86 571.50 L 157.57 571.36 L 157.65 572.09 C 159.08 573.16 160.49 574.26 161.86 575.41 C 162.10 575.70 162.57 576.29 162.80 576.58 L 163.56 576.31 L 163.64 577.12 C 164.90 578.02 166.11 578.97 167.37 579.88 L 167.43 580.25 C 167.78 580.55 168.49 581.17 168.85 581.48 L 169.18 581.37 C 170.49 582.64 171.86 583.86 173.36 584.91 L 173.47 585.21 C 173.81 585.54 174.51 586.19 174.86 586.52 L 175.60 586.32 L 175.65 587.09 C 177.07 588.13 178.45 589.22 179.79 590.37 C 180.03 590.67 180.52 591.26 180.76 591.56 L 181.15 591.36 C 182.46 592.64 183.85 593.86 185.38 594.90 L 185.41 595.21 C 185.78 595.53 186.52 596.16 186.89 596.48 L 187.60 596.36 L 187.67 597.08 C 189.06 598.14 190.43 599.24 191.82 600.32 C 192.06 600.63 192.53 601.26 192.76 601.57 L 193.17 601.33 C 194.45 602.64 195.83 603.86 197.34 604.91 L 197.40 605.24 C 197.77 605.55 198.50 606.17 198.87 606.48 L 199.58 606.34 L 199.66 607.07 C 201.08 608.14 202.47 609.26 203.84 610.42 C 204.08 610.70 204.57 611.28 204.82 611.57 L 205.57 611.30 L 205.65 612.13 C 206.90 613.02 208.11 613.96 209.36 614.87 L 209.43 615.23 C 209.79 615.54 210.50 616.17 210.86 616.48 L 211.18 616.34 C 212.47 617.63 213.83 618.87 215.35 619.91 L 215.33 620.27 C 215.72 620.47 216.48 620.89 216.86 621.09 C 218.47 622.58 220.10 624.03 221.82 625.39 C 222.06 625.69 222.53 626.28 222.76 626.57 L 223.16 626.34 C 224.47 627.63 225.85 628.85 227.37 629.90 L 227.39 630.24 C 227.76 630.55 228.51 631.15 228.88 631.45 L 229.21 631.35 C 230.66 632.74 232.13 634.10 233.69 635.39 C 233.98 635.56 234.55 635.92 234.84 636.09 C 236.31 637.46 237.81 638.80 239.45 639.97 L 239.39 640.28 C 239.75 640.57 240.49 641.14 240.86 641.43 L 241.18 641.35 C 242.50 642.63 243.87 643.87 245.37 644.93 L 245.36 645.33 C 245.71 645.50 246.42 645.84 246.78 646.01 C 248.26 647.42 249.79 648.77 251.46 649.96 L 251.42 650.27 C 251.78 650.58 252.48 651.19 252.84 651.49 L 253.17 651.35 C 254.47 652.64 255.85 653.87 257.38 654.90 L 257.40 655.63 L 258.15 655.41 C 260.47 657.41 262.43 659.99 265.37 661.12 C 265.43 639.88 265.21 618.65 265.34 597.41 L 263.61 597.00 L 265.34 596.59 C 265.29 594.52 265.28 592.46 265.34 590.41 L 263.62 590.00 L 265.35 589.59 C 265.26 586.15 265.23 582.70 265.34 579.27 L 264.69 579.71 C 264.73 577.48 264.73 575.26 264.70 573.05 L 265.29 573.98 C 265.30 572.76 265.30 570.31 265.30 569.09 L 264.68 569.90 C 264.77 554.40 264.69 538.90 264.61 523.41 Z" />
<path fill="#ffffff" opacity="1.00" d=" M 1068.47 523.77 C 1069.01 523.66 1070.07 523.46 1070.61 523.35 C 1070.42 596.39 1070.64 669.42 1070.50 742.45 C 1058.13 742.46 1045.77 742.45 1033.40 742.46 C 1033.33 729.97 1033.26 717.48 1033.35 704.99 L 1032.67 705.96 C 1032.76 679.08 1032.45 652.20 1032.66 625.32 C 1032.09 625.42 1030.96 625.61 1030.39 625.71 C 1030.45 626.12 1030.57 626.93 1030.63 627.34 L 1029.43 627.41 L 1029.60 628.58 L 1028.87 628.65 C 1027.96 629.90 1027.01 631.12 1026.12 632.38 L 1025.31 632.44 L 1025.64 633.58 L 1024.85 633.55 C 1023.94 634.82 1022.99 636.06 1022.10 637.33 L 1021.32 637.41 L 1021.48 638.13 C 1021.16 638.48 1020.52 639.18 1020.20 639.53 L 1019.85 639.62 C 1018.95 640.87 1018.00 642.09 1017.12 643.35 L 1016.32 643.40 L 1016.52 644.14 C 1016.20 644.50 1015.55 645.21 1015.23 645.57 L 1014.87 645.65 C 1013.96 646.90 1013.00 648.12 1012.12 649.38 L 1011.78 649.43 C 1011.45 649.77 1010.79 650.44 1010.46 650.78 L 1010.66 651.17 C 1009.34 652.49 1008.11 653.91 1007.10 655.48 L 1006.31 655.40 L 1006.66 656.55 L 1005.83 656.57 C 1004.93 657.84 1004.00 659.08 1003.12 660.37 L 1002.75 660.41 C 1002.44 660.77 1001.81 661.49 1001.50 661.85 L 1001.65 662.56 L 1000.87 662.65 C 999.96 663.89 999.00 665.11 998.12 666.37 L 997.73 666.38 C 997.54 666.74 997.15 667.45 996.96 667.81 C 995.66 669.27 994.33 670.71 993.02 672.17 C 992.84 672.53 992.46 673.26 992.27 673.63 L 991.84 673.59 C 990.94 674.85 990.00 676.08 989.11 677.35 L 988.31 677.42 L 988.56 678.16 C 988.22 678.51 987.56 679.20 987.23 679.55 L 986.89 679.67 C 985.97 680.91 985.01 682.12 984.12 683.37 L 983.68 683.35 C 983.50 683.72 983.13 684.45 982.95 684.81 C 981.66 686.29 980.33 687.73 979.00 689.17 C 978.82 689.53 978.45 690.27 978.27 690.64 L 977.86 690.59 C 976.84 692.04 975.75 693.43 974.62 694.79 C 974.31 695.03 973.71 695.52 973.40 695.77 L 973.68 696.54 L 972.88 696.64 C 971.96 697.90 971.01 699.12 970.13 700.39 L 969.72 700.36 C 969.53 700.71 969.16 701.43 968.98 701.79 C 967.68 703.23 966.36 704.65 965.07 706.11 C 964.87 706.50 964.46 707.28 964.26 707.67 L 963.84 707.59 C 962.94 708.86 961.99 710.10 961.12 711.39 L 960.29 711.47 L 960.61 712.25 C 960.29 712.48 959.67 712.94 959.35 713.17 C 958.22 714.54 957.14 715.95 956.10 717.39 L 955.34 717.41 L 955.62 718.56 L 954.82 718.59 C 953.91 719.84 952.96 721.05 952.07 722.31 L 951.36 722.41 L 951.47 723.60 C 950.45 723.67 949.43 723.74 948.42 723.82 L 948.52 722.94 C 948.20 722.55 947.56 721.77 947.23 721.38 L 946.93 721.34 C 945.86 719.83 944.62 718.46 943.34 717.18 L 943.47 716.85 C 943.16 716.49 942.54 715.78 942.23 715.42 L 941.87 715.36 C 940.96 714.10 940.01 712.88 939.12 711.64 L 938.28 711.60 L 938.53 710.86 C 938.20 710.52 937.52 709.84 937.19 709.50 L 936.84 709.36 C 935.94 708.10 934.99 706.88 934.11 705.63 L 933.31 705.57 L 933.53 704.84 C 933.20 704.49 932.55 703.80 932.22 703.46 L 931.83 703.39 C 930.93 702.12 929.99 700.89 929.11 699.64 L 928.31 699.54 L 928.61 698.71 C 928.30 698.39 927.67 697.74 927.36 697.41 L 926.95 697.47 C 925.78 695.82 924.45 694.31 923.10 692.83 C 922.90 692.46 922.49 691.73 922.28 691.36 L 921.87 691.35 C 920.94 690.10 919.98 688.89 919.08 687.64 L 918.32 687.57 L 918.48 686.86 C 918.16 686.51 917.53 685.81 917.21 685.45 L 916.85 685.38 C 915.94 684.12 914.98 682.90 914.09 681.65 L 913.29 681.58 L 913.52 680.84 C 913.20 680.50 912.56 679.81 912.24 679.46 L 911.95 679.46 C 910.77 677.79 909.41 676.26 908.00 674.81 C 907.84 674.44 907.52 673.71 907.36 673.34 L 906.93 673.46 C 905.81 671.74 904.45 670.22 902.95 668.85 C 902.80 668.47 902.49 667.72 902.34 667.35 L 901.95 667.51 C 900.80 665.82 899.44 664.29 898.04 662.83 C 897.84 662.47 897.46 661.74 897.26 661.38 L 896.85 661.40 C 895.94 660.13 894.98 658.91 894.09 657.65 L 893.31 657.58 L 893.49 656.85 C 893.19 656.48 892.57 655.74 892.27 655.38 L 891.96 655.54 C 890.80 653.85 889.45 652.31 888.02 650.86 C 887.84 650.49 887.49 649.74 887.31 649.37 L 886.96 649.47 C 885.76 647.82 884.42 646.29 883.02 644.83 C 882.84 644.46 882.47 643.72 882.29 643.35 L 881.84 643.42 C 880.93 642.14 879.98 640.91 879.09 639.64 L 878.31 639.59 L 878.53 638.82 C 878.22 638.46 877.60 637.75 877.29 637.39 L 876.97 637.53 C 875.79 635.90 874.47 634.39 873.14 632.90 C 872.91 632.52 872.46 631.76 872.23 631.39 L 871.84 631.37 C 870.93 630.11 869.98 628.88 869.10 627.62 L 868.34 627.63 L 868.61 626.54 C 868.04 626.47 866.92 626.33 866.36 626.26 C 866.68 664.99 866.44 703.73 866.47 742.46 C 854.82 742.44 843.17 742.47 831.52 742.44 C 831.43 670.30 831.58 598.15 831.45 526.01 C 832.41 526.57 833.30 527.27 834.05 528.14 L 834.67 528.36 L 834.56 529.09 C 834.87 529.46 835.50 530.19 835.81 530.56 L 836.12 530.52 C 837.48 532.64 839.45 534.29 840.86 536.39 L 841.63 536.44 L 841.38 537.59 L 842.14 537.57 C 843.53 539.65 845.39 541.35 846.87 543.38 L 847.24 543.38 C 847.44 543.75 847.84 544.49 848.04 544.86 C 849.45 546.30 850.80 547.81 851.98 549.46 L 852.80 549.46 L 852.34 550.24 C 852.69 550.57 853.37 551.21 853.72 551.53 L 854.05 551.52 C 855.40 553.47 857.01 555.20 858.70 556.87 L 858.45 557.19 C 858.75 557.54 859.37 558.25 859.67 558.61 L 860.02 558.54 C 861.30 560.20 862.67 561.81 863.97 563.48 L 864.26 563.45 C 864.59 563.80 865.23 564.50 865.56 564.85 L 865.29 565.55 L 866.13 565.61 C 867.02 566.86 867.99 568.08 868.90 569.34 L 869.67 569.42 L 869.53 570.14 C 869.84 570.52 870.47 571.27 870.78 571.65 L 871.53 571.35 L 871.35 572.17 C 872.64 573.45 873.87 574.82 874.92 576.34 L 875.67 576.39 L 875.48 577.13 C 875.81 577.49 876.47 578.21 876.81 578.57 L 877.14 578.59 C 878.54 580.66 880.46 582.32 881.86 584.41 L 882.62 584.41 L 882.33 585.54 L 883.05 585.53 C 884.41 587.48 886.03 589.21 887.73 590.87 L 887.31 591.38 L 888.38 591.57 L 888.55 592.61 L 889.02 592.55 C 890.32 594.19 891.69 595.79 892.97 597.47 L 893.79 597.45 L 893.35 598.28 C 893.67 598.61 894.29 599.27 894.61 599.61 L 895.03 599.54 C 896.30 601.21 897.67 602.82 898.97 604.48 L 899.28 604.44 C 899.61 604.78 900.26 605.46 900.58 605.80 L 900.30 606.51 L 901.09 606.66 C 902.36 608.48 903.93 610.08 905.37 611.78 C 905.67 612.03 906.26 612.53 906.56 612.78 L 906.34 613.16 C 907.64 614.45 908.87 615.83 909.90 617.36 L 910.72 617.45 L 910.44 618.18 C 910.77 618.53 911.44 619.22 911.77 619.57 L 912.52 619.42 L 912.34 620.62 L 913.08 620.63 C 914.12 622.14 915.34 623.53 916.64 624.85 L 916.42 625.27 C 916.73 625.61 917.34 626.30 917.65 626.64 L 918.51 626.40 L 918.33 627.60 L 919.09 627.64 C 919.99 628.88 920.96 630.09 921.89 631.34 L 922.66 631.48 L 922.46 632.20 C 922.76 632.56 923.35 633.27 923.65 633.63 L 924.01 633.52 C 925.31 635.19 926.68 636.79 927.98 638.48 L 928.42 638.36 C 928.71 638.70 929.30 639.38 929.59 639.72 L 929.27 640.53 L 930.03 640.59 C 931.21 642.22 932.57 643.71 934.02 645.13 C 934.20 645.51 934.56 646.27 934.73 646.65 L 935.14 646.57 C 936.51 648.67 938.46 650.30 939.88 652.38 L 940.62 652.43 L 940.42 653.57 L 941.17 653.56 C 942.06 654.82 943.01 656.04 943.94 657.31 L 944.68 657.32 L 944.50 658.50 L 945.73 658.38 L 945.49 659.13 C 945.83 659.49 946.49 660.21 946.83 660.57 L 947.53 660.39 L 947.34 661.60 L 948.14 661.63 C 948.24 664.41 952.77 664.37 952.77 661.57 L 953.62 661.60 L 953.39 660.42 L 954.13 660.41 C 955.01 659.20 955.97 658.05 957.00 656.96 C 957.62 656.18 958.24 655.39 958.86 654.61 L 959.24 654.60 C 959.42 654.24 959.80 653.52 959.98 653.16 C 961.32 651.71 962.67 650.27 964.01 648.82 C 964.18 648.46 964.50 647.73 964.67 647.37 L 965.02 647.49 C 966.32 645.84 967.69 644.24 968.96 642.56 L 969.76 642.55 L 969.36 641.42 L 970.14 641.47 C 971.50 639.34 973.46 637.70 974.87 635.61 L 975.26 635.67 C 975.47 635.28 975.90 634.51 976.12 634.12 C 977.57 632.50 979.02 630.88 980.38 629.18 C 980.69 628.94 981.31 628.46 981.62 628.22 L 981.27 627.47 L 982.12 627.37 C 983.01 626.11 983.96 624.89 984.87 623.64 L 985.71 623.58 L 985.43 622.78 C 985.74 622.44 986.36 621.75 986.66 621.41 L 987.05 621.48 C 988.38 619.62 989.90 617.91 991.41 616.19 C 991.69 615.94 992.25 615.44 992.53 615.19 L 992.32 614.41 L 993.12 614.35 C 994.01 613.09 994.96 611.87 995.87 610.62 L 996.73 610.54 L 996.40 609.82 C 996.74 609.48 997.41 608.81 997.74 608.47 L 998.05 608.44 C 999.32 606.77 1000.68 605.17 1001.95 603.49 L 1002.28 603.59 C 1002.60 603.24 1003.23 602.53 1003.55 602.18 L 1003.28 601.42 L 1004.09 601.36 C 1004.98 600.10 1005.94 598.88 1006.85 597.64 L 1007.22 597.52 C 1007.55 597.18 1008.22 596.51 1008.55 596.17 L 1008.30 595.86 C 1009.97 594.17 1011.61 592.43 1012.96 590.46 L 1013.31 590.63 C 1013.48 590.27 1013.81 589.54 1013.97 589.18 C 1015.32 587.75 1016.66 586.30 1017.99 584.84 C 1018.17 584.48 1018.54 583.76 1018.72 583.40 L 1019.13 583.42 C 1020.04 582.17 1021.01 580.96 1021.96 579.73 L 1022.66 579.67 L 1022.53 578.53 L 1023.69 578.57 L 1023.47 577.80 C 1023.77 577.46 1024.38 576.76 1024.69 576.41 L 1025.04 576.46 C 1026.31 574.77 1027.68 573.17 1028.97 571.49 L 1029.34 571.67 C 1029.51 571.31 1029.84 570.58 1030.00 570.22 C 1031.41 568.75 1032.76 567.22 1033.93 565.55 L 1034.22 565.48 C 1034.56 565.15 1035.25 564.49 1035.60 564.16 L 1035.27 563.47 L 1036.14 563.39 C 1037.03 562.12 1037.97 560.90 1038.88 559.64 L 1039.69 559.59 L 1039.51 558.86 C 1039.82 558.50 1040.44 557.78 1040.75 557.42 L 1041.03 557.52 C 1042.37 555.66 1043.93 553.99 1045.34 552.19 C 1045.65 551.94 1046.25 551.45 1046.56 551.20 L 1046.30 550.43 L 1047.13 550.36 C 1048.02 549.10 1048.97 547.88 1049.88 546.63 L 1050.70 546.60 L 1050.48 545.86 C 1050.81 545.52 1051.45 544.83 1051.77 544.49 L 1052.04 544.45 C 1053.21 542.79 1054.56 541.28 1056.00 539.85 C 1056.18 539.47 1056.54 538.71 1056.71 538.33 L 1057.15 538.42 C 1058.05 537.15 1059.01 535.94 1059.94 534.70 L 1060.70 534.64 L 1060.51 533.45 L 1061.33 533.63 C 1061.66 533.28 1062.31 532.59 1062.64 532.24 L 1062.28 531.47 L 1063.11 531.36 C 1064.01 530.12 1064.98 528.92 1065.92 527.69 L 1066.66 527.62 L 1066.54 526.92 C 1066.86 526.54 1067.49 525.77 1067.81 525.39 L 1068.60 525.31 C 1068.57 524.92 1068.50 524.15 1068.47 523.77 Z" />
<path fill="#ffffff" opacity="1.00" d=" M 440.35 527.10 C 440.74 526.54 441.54 525.42 441.94 524.86 C 442.44 525.44 443.44 526.60 443.94 527.17 C 443.68 527.43 443.17 527.95 442.92 528.20 L 444.52 528.29 L 444.32 529.59 L 445.52 529.66 C 445.45 530.11 445.30 531.00 445.23 531.44 L 446.53 531.65 C 446.47 532.09 446.36 532.99 446.31 533.44 L 447.61 533.62 C 447.57 533.97 447.49 534.65 447.45 534.99 C 448.64 536.21 449.52 537.70 449.83 539.40 L 450.70 539.42 L 450.36 540.69 L 451.60 540.63 C 451.54 540.98 451.41 541.69 451.34 542.04 C 452.08 543.00 452.83 543.98 453.57 544.96 C 453.53 545.31 453.44 546.00 453.40 546.35 L 454.74 546.59 C 454.66 547.04 454.51 547.92 454.43 548.36 L 455.67 548.36 L 455.34 549.60 L 456.54 549.68 C 456.48 550.11 456.35 550.97 456.29 551.41 L 457.60 551.62 C 457.53 552.07 457.38 552.97 457.30 553.42 L 458.66 553.62 C 458.61 553.96 458.51 554.64 458.46 554.98 C 459.64 556.21 460.44 557.73 460.84 559.39 L 461.69 559.37 L 461.37 560.62 L 462.20 560.57 C 462.60 562.22 463.43 563.71 464.57 564.97 C 464.54 565.32 464.47 566.01 464.44 566.36 L 465.77 566.58 C 465.68 567.03 465.50 567.92 465.41 568.37 L 466.64 568.32 L 466.35 569.57 L 467.51 569.67 C 467.45 570.10 467.34 570.96 467.28 571.39 L 468.62 571.64 C 468.55 572.08 468.42 572.96 468.35 573.41 L 469.66 573.58 C 469.61 574.02 469.51 574.90 469.46 575.34 L 470.74 575.60 C 470.66 576.04 470.50 576.90 470.42 577.34 L 471.66 577.39 L 471.35 578.70 L 472.64 578.62 C 472.53 579.06 472.33 579.95 472.23 580.40 L 473.57 580.63 C 473.52 581.06 473.43 581.92 473.38 582.35 L 474.13 582.62 C 474.49 583.23 475.20 584.44 475.56 585.05 C 475.53 585.38 475.46 586.03 475.43 586.36 L 476.28 586.23 C 476.47 587.81 477.39 589.01 478.54 590.06 C 478.47 590.39 478.31 591.04 478.24 591.37 L 479.62 591.60 C 479.56 592.05 479.44 592.95 479.39 593.40 L 480.71 593.63 C 480.65 593.95 480.54 594.58 480.48 594.90 C 481.54 595.99 482.53 597.17 482.72 598.76 L 483.64 598.63 C 483.56 599.06 483.39 599.92 483.31 600.35 L 484.61 600.63 C 484.55 601.07 484.44 601.94 484.38 602.38 L 485.64 602.60 C 485.58 603.04 485.47 603.93 485.41 604.37 L 486.76 604.61 C 486.65 605.06 486.45 605.95 486.35 606.40 L 487.61 606.27 L 487.34 607.56 L 488.54 607.67 C 488.47 608.10 488.33 608.96 488.27 609.39 L 489.59 609.63 C 489.53 610.08 489.40 610.96 489.34 611.41 L 490.66 611.58 C 490.60 612.03 490.48 612.92 490.42 613.37 L 491.73 613.62 C 491.66 614.05 491.51 614.90 491.44 615.32 L 492.34 615.29 C 492.81 616.43 493.28 617.57 493.76 618.73 L 494.61 618.64 C 494.55 618.98 494.44 619.67 494.38 620.01 C 495.13 620.99 495.89 621.97 496.65 622.97 C 496.59 623.31 496.46 624.01 496.40 624.36 L 497.63 624.34 L 497.31 625.62 L 498.53 625.65 C 498.50 625.98 498.46 626.65 498.43 626.98 C 498.77 627.59 499.45 628.81 499.79 629.42 L 500.61 629.63 C 500.53 630.07 500.39 630.96 500.32 631.40 L 501.68 631.60 C 501.62 631.95 501.52 632.65 501.47 633.00 C 502.18 633.92 502.90 634.86 503.62 635.80 L 503.38 636.71 L 504.62 636.61 C 504.53 637.06 504.35 637.95 504.26 638.40 L 505.59 638.63 C 505.55 638.98 505.46 639.68 505.41 640.03 C 506.16 641.00 506.90 641.98 507.65 642.96 C 507.58 643.32 507.44 644.02 507.37 644.38 L 508.62 644.28 L 508.41 645.14 C 509.40 646.43 510.32 647.83 510.70 649.45 L 511.64 649.60 C 511.58 650.05 511.46 650.94 511.39 651.39 L 512.73 651.59 C 512.65 652.02 512.50 652.89 512.43 653.33 L 513.71 653.56 C 513.66 654.01 513.56 654.89 513.50 655.33 L 514.69 655.43 L 514.38 656.69 L 515.66 656.60 C 515.58 656.96 515.42 657.66 515.33 658.02 C 516.09 658.99 516.86 659.96 517.64 660.94 C 517.58 661.28 517.47 661.98 517.41 662.32 L 518.71 662.56 C 518.65 663.01 518.54 663.91 518.48 664.36 L 519.73 664.38 L 519.34 665.63 L 520.55 665.66 C 520.48 666.09 520.35 666.94 520.29 667.37 L 521.57 667.63 C 521.51 668.07 521.38 668.95 521.32 669.39 L 522.65 669.60 C 522.59 670.04 522.48 670.92 522.43 671.36 L 523.72 671.59 C 523.66 672.01 523.56 672.86 523.50 673.28 L 524.60 673.44 L 524.42 674.63 L 525.60 674.64 C 525.51 675.08 525.32 675.96 525.23 676.40 L 526.60 676.62 C 526.55 677.06 526.44 677.95 526.38 678.39 L 527.27 678.56 C 527.76 679.83 528.31 681.10 528.81 682.39 L 529.76 682.59 C 529.68 683.03 529.52 683.91 529.44 684.34 L 530.70 684.30 L 530.39 685.56 L 531.61 685.64 C 531.54 686.07 531.38 686.94 531.30 687.38 L 532.62 687.61 C 532.56 688.06 532.44 688.94 532.39 689.39 L 533.70 689.56 C 533.63 690.01 533.49 690.90 533.42 691.35 L 534.76 691.59 C 534.68 692.03 534.53 692.90 534.46 693.34 L 535.64 693.40 L 535.33 694.65 L 536.58 694.64 C 536.52 694.99 536.41 695.67 536.36 696.01 C 537.85 697.92 539.13 700.05 539.84 702.39 L 540.67 702.40 L 540.35 703.67 L 541.18 703.59 C 541.66 704.88 542.20 706.16 542.70 707.47 L 543.62 707.60 C 543.56 708.04 543.44 708.92 543.39 709.36 L 544.75 709.60 C 544.67 710.04 544.51 710.92 544.43 711.36 L 545.63 711.36 L 545.36 712.61 L 546.58 712.65 C 546.49 713.09 546.32 713.97 546.24 714.41 L 547.60 714.62 C 547.53 715.07 547.39 715.97 547.32 716.43 L 548.66 716.61 C 548.59 717.04 548.45 717.91 548.38 718.34 L 549.18 718.59 C 549.53 719.20 550.23 720.41 550.58 721.01 C 550.55 721.35 550.49 722.03 550.46 722.36 L 551.66 722.33 L 551.38 723.57 L 552.18 723.62 C 552.67 724.89 553.22 726.15 553.73 727.44 L 554.66 727.60 C 554.60 728.04 554.47 728.92 554.40 729.37 L 555.75 729.60 C 555.67 730.03 555.51 730.91 555.43 731.35 L 556.64 731.37 L 556.36 732.60 L 557.55 732.65 C 557.48 733.08 557.33 733.95 557.26 734.39 L 558.62 734.62 C 558.56 735.07 558.43 735.96 558.37 736.41 L 559.68 736.61 C 559.61 737.04 559.49 737.91 559.43 738.35 L 560.66 738.44 L 560.22 739.62 L 561.35 739.51 C 561.42 740.26 561.56 741.76 561.63 742.51 C 547.57 742.38 533.51 742.49 519.45 742.45 L 519.64 741.25 L 518.37 741.43 C 518.46 740.97 518.64 740.06 518.74 739.61 L 517.42 739.34 C 517.48 738.90 517.59 738.03 517.64 737.60 L 516.41 737.34 C 516.47 736.90 516.59 736.03 516.64 735.60 L 515.34 735.41 C 515.42 734.96 515.57 734.06 515.65 733.61 L 514.31 733.41 C 514.38 732.96 514.51 732.06 514.58 731.62 L 513.29 731.41 C 513.37 730.97 513.52 730.09 513.59 729.65 L 512.32 729.43 C 512.38 728.98 512.51 728.09 512.57 727.64 L 511.23 727.41 C 511.33 726.97 511.51 726.10 511.60 725.66 L 510.67 725.64 C 510.21 724.50 509.75 723.37 509.31 722.24 L 508.40 722.34 C 508.50 721.91 508.69 721.04 508.78 720.61 L 507.90 720.35 C 507.57 719.73 506.91 718.48 506.58 717.86 C 506.59 717.55 506.61 716.91 506.62 716.59 L 505.44 716.32 C 505.50 715.89 505.63 715.02 505.69 714.58 L 504.39 714.38 C 504.46 713.93 504.62 713.02 504.69 712.57 L 503.39 712.40 C 503.41 712.06 503.44 711.39 503.46 711.05 C 503.12 710.45 502.45 709.23 502.11 708.63 L 501.32 708.39 C 501.39 707.95 501.54 707.07 501.62 706.63 L 500.27 706.44 C 500.35 705.99 500.51 705.09 500.59 704.64 L 499.26 704.42 C 499.34 703.98 499.49 703.10 499.57 702.66 L 498.30 702.44 C 498.36 702.00 498.48 701.10 498.54 700.65 L 497.21 700.43 C 497.31 699.97 497.50 699.05 497.60 698.59 L 496.35 698.72 L 496.53 697.93 C 496.19 697.31 495.51 696.06 495.18 695.44 C 459.56 695.32 423.95 695.44 388.33 695.38 L 388.48 696.50 L 387.27 696.59 C 387.34 697.01 387.46 697.85 387.53 698.28 L 386.34 698.41 L 386.65 699.68 L 385.80 699.57 C 385.47 701.25 384.52 702.70 383.43 704.00 C 383.47 704.33 383.55 705.01 383.60 705.34 L 382.30 705.59 C 382.36 706.03 382.49 706.93 382.56 707.37 L 381.23 707.56 C 381.31 708.01 381.48 708.89 381.57 709.34 L 380.33 709.38 L 380.67 710.62 L 379.45 710.64 C 379.52 711.08 379.68 711.97 379.76 712.41 L 378.41 712.64 C 378.45 712.99 378.54 713.69 378.59 714.04 C 377.84 715.01 377.10 715.99 376.37 716.98 C 376.43 717.33 376.54 718.02 376.60 718.37 L 375.36 718.33 L 375.72 719.60 L 374.88 719.62 C 374.46 720.84 373.88 721.99 373.35 723.18 C 373.07 723.74 372.51 724.88 372.24 725.44 L 371.37 725.62 C 371.42 726.06 371.53 726.93 371.58 727.36 L 370.27 727.64 C 370.34 728.07 370.48 728.93 370.55 729.36 L 369.37 729.41 L 369.67 730.65 L 368.44 730.65 C 368.52 731.09 368.68 731.99 368.76 732.43 L 367.44 732.65 C 367.50 733.09 367.63 733.97 367.69 734.42 L 366.45 734.65 C 366.46 734.97 366.49 735.63 366.50 735.96 C 366.17 736.57 365.50 737.78 365.16 738.39 L 364.29 738.62 C 364.37 739.06 364.54 739.94 364.62 740.38 L 363.80 740.36 C 363.50 740.75 362.89 741.53 362.59 741.92 L 362.66 742.51 C 349.77 742.40 336.88 742.46 323.99 742.48 C 324.23 741.25 324.45 740.02 324.94 738.88 C 325.25 738.43 325.88 737.53 326.19 737.07 C 326.85 735.69 327.56 734.32 328.55 733.15 L 328.36 732.32 L 329.19 732.42 C 329.72 731.14 330.29 729.89 330.82 728.63 L 331.63 728.55 L 331.34 727.33 L 332.56 727.37 C 332.51 727.02 332.39 726.32 332.34 725.97 C 333.09 724.98 333.86 724.01 334.62 723.04 C 334.58 722.71 334.51 722.04 334.47 721.70 L 335.64 721.58 L 335.34 720.33 L 336.57 720.37 C 336.51 719.93 336.39 719.07 336.33 718.64 L 337.64 718.35 C 337.58 717.93 337.47 717.09 337.41 716.67 L 338.32 716.66 C 338.80 715.53 339.28 714.40 339.78 713.28 L 340.22 713.42 C 340.74 712.14 341.31 710.90 341.83 709.63 L 342.63 709.56 L 342.33 708.38 C 342.66 708.36 343.32 708.31 343.66 708.29 L 343.37 707.05 C 343.72 706.57 344.41 705.59 344.75 705.11 C 345.65 703.93 346.47 702.72 346.75 701.26 L 347.68 701.39 C 347.60 701.04 347.45 700.34 347.38 699.99 C 347.80 699.52 348.63 698.57 349.04 698.10 C 349.35 697.18 349.66 696.27 349.96 695.37 C 341.81 695.40 333.66 695.40 325.51 695.38 C 325.45 684.40 325.50 673.43 325.48 662.45 C 339.20 662.44 352.92 662.36 366.64 662.49 L 366.57 661.87 C 366.87 661.49 367.45 660.73 367.75 660.35 L 368.59 660.36 C 368.51 659.92 368.36 659.03 368.28 658.59 L 369.25 658.45 C 369.60 656.28 371.43 654.71 371.78 652.56 L 372.65 652.68 L 372.36 651.44 L 373.14 651.35 C 373.62 650.06 374.16 648.79 374.66 647.52 L 375.62 647.37 C 375.56 646.93 375.43 646.05 375.36 645.61 L 376.31 645.49 C 376.80 644.18 377.34 642.90 377.83 641.61 L 378.69 641.57 L 378.34 640.30 L 379.60 640.38 C 379.52 639.94 379.36 639.05 379.27 638.60 L 380.58 638.37 C 380.52 637.93 380.41 637.05 380.35 636.61 L 381.61 636.37 C 381.55 635.93 381.42 635.05 381.36 634.60 L 382.67 634.44 C 382.61 633.99 382.48 633.09 382.41 632.63 L 383.75 632.39 C 383.67 631.96 383.50 631.09 383.42 630.66 L 384.60 630.60 L 384.35 629.40 L 385.52 629.35 C 385.45 628.90 385.33 628.02 385.27 627.57 L 386.60 627.35 C 386.54 626.92 386.43 626.06 386.37 625.63 L 387.18 625.39 C 387.52 624.78 388.19 623.58 388.52 622.97 C 388.51 622.65 388.48 622.00 388.47 621.67 L 389.70 621.40 C 389.64 620.96 389.51 620.09 389.45 619.65 L 390.67 619.67 L 390.37 618.44 L 391.16 618.34 C 391.65 617.05 392.20 615.80 392.71 614.53 L 393.67 614.40 C 393.60 613.96 393.46 613.07 393.39 612.62 L 394.70 612.43 C 394.64 611.99 394.51 611.10 394.45 610.66 L 395.72 610.40 C 395.66 609.97 395.52 609.10 395.45 608.67 L 396.67 608.63 L 396.30 607.36 L 397.53 607.37 C 397.50 607.03 397.45 606.35 397.42 606.01 C 397.73 605.50 398.35 604.49 398.66 603.98 C 399.26 602.93 399.91 601.94 400.64 600.99 C 400.57 600.65 400.43 599.96 400.36 599.62 L 401.28 599.72 C 401.75 598.58 402.21 597.43 402.68 596.30 L 403.60 596.34 C 403.51 595.91 403.34 595.05 403.26 594.62 L 404.57 594.37 C 404.54 594.03 404.48 593.34 404.45 592.99 C 405.62 591.75 406.42 590.25 406.83 588.61 L 407.66 588.61 L 407.33 587.35 L 408.54 587.34 C 408.51 587.01 408.44 586.35 408.41 586.01 C 408.76 585.41 409.45 584.19 409.79 583.58 L 410.59 583.34 C 410.52 582.90 410.39 582.02 410.32 581.58 L 411.66 581.40 C 411.59 580.96 411.47 580.06 411.40 579.62 L 412.70 579.40 C 412.64 578.97 412.51 578.12 412.45 577.70 L 413.63 577.59 L 413.33 576.35 L 414.57 576.36 C 414.49 575.91 414.33 575.02 414.25 574.58 L 415.59 574.36 C 415.55 574.02 415.47 573.33 415.43 572.98 C 416.52 571.69 417.35 570.20 417.77 568.57 L 418.73 568.39 C 418.65 567.95 418.49 567.08 418.41 566.65 L 419.62 566.66 L 419.36 565.44 L 420.14 565.35 C 420.63 564.05 421.18 562.78 421.69 561.50 L 422.66 561.40 C 422.59 560.95 422.44 560.07 422.37 559.63 L 423.22 559.44 C 423.55 558.82 424.22 557.58 424.55 556.96 C 424.53 556.64 424.51 556.00 424.49 555.68 L 425.66 555.63 L 425.30 554.37 L 426.16 554.39 C 426.65 553.09 427.19 551.82 427.68 550.53 L 428.64 550.38 C 428.57 549.94 428.43 549.05 428.37 548.61 L 429.69 548.44 C 429.62 547.99 429.50 547.09 429.44 546.64 L 430.76 546.41 C 430.68 545.98 430.53 545.12 430.46 544.69 L 431.61 544.57 L 431.35 543.35 L 432.56 543.34 C 432.51 543.00 432.40 542.32 432.34 541.98 C 433.81 540.05 435.11 537.93 435.78 535.59 L 436.27 535.67 C 436.74 534.53 437.22 533.39 437.70 532.26 L 438.58 532.32 C 438.50 531.90 438.34 531.05 438.26 530.63 L 439.54 530.39 C 439.50 529.94 439.41 529.03 439.37 528.58 L 440.81 528.31 C 440.69 528.01 440.46 527.40 440.35 527.10 M 439.45 594.03 C 439.48 594.36 439.54 595.02 439.57 595.35 L 438.29 595.63 C 438.36 596.06 438.49 596.90 438.56 597.33 L 437.69 597.30 C 437.22 598.44 436.75 599.58 436.28 600.73 L 435.81 600.59 C 435.36 602.71 433.79 604.37 433.27 606.46 L 432.30 606.59 C 432.37 607.03 432.50 607.91 432.57 608.36 L 431.24 608.62 C 431.32 609.05 431.47 609.91 431.55 610.34 L 430.67 610.26 C 430.21 611.41 429.76 612.57 429.31 613.73 L 428.36 613.62 C 428.44 613.98 428.59 614.69 428.66 615.04 C 427.91 616.02 427.17 617.00 426.43 617.99 C 426.48 618.33 426.59 619.02 426.64 619.37 L 425.31 619.57 C 425.37 620.02 425.50 620.92 425.57 621.36 L 424.24 621.58 C 424.32 622.02 424.47 622.91 424.55 623.35 L 423.34 623.42 L 423.66 624.65 L 422.42 624.63 C 422.51 625.08 422.69 625.97 422.78 626.42 L 421.76 626.55 C 421.20 628.95 419.74 631.01 418.35 633.01 C 418.42 633.35 418.56 634.04 418.63 634.38 L 417.41 634.28 L 417.63 635.16 C 416.91 636.13 416.20 637.11 415.50 638.10 C 415.56 638.42 415.69 639.08 415.76 639.40 L 414.42 639.63 C 414.48 640.07 414.60 640.97 414.66 641.41 L 413.73 641.56 C 413.29 643.20 412.46 644.70 411.35 645.99 C 411.40 646.33 411.51 647.02 411.56 647.37 L 410.32 647.32 L 410.68 648.58 L 409.49 648.70 C 409.54 649.13 409.66 649.99 409.72 650.42 L 408.45 650.66 C 408.52 651.11 408.65 651.99 408.72 652.44 L 407.38 652.63 C 407.45 653.07 407.59 653.95 407.66 654.39 L 406.77 654.55 C 406.26 656.11 405.41 657.53 404.67 659.00 C 404.17 659.62 403.17 660.86 402.67 661.48 C 428.29 661.82 453.91 661.51 479.53 661.64 C 479.48 661.08 479.38 659.96 479.33 659.40 L 478.23 659.68 L 478.66 658.44 L 477.44 658.31 C 477.50 657.89 477.62 657.04 477.68 656.62 L 476.43 656.37 C 476.48 655.93 476.59 655.05 476.64 654.60 L 475.34 654.41 C 475.41 653.96 475.53 653.06 475.59 652.61 L 474.23 652.40 C 474.32 651.97 474.49 651.10 474.57 650.67 L 473.65 650.72 C 473.16 649.56 472.69 648.41 472.24 647.26 L 471.35 647.37 C 471.45 646.94 471.64 646.07 471.74 645.63 L 470.44 645.35 C 470.49 644.92 470.60 644.04 470.66 643.61 L 469.40 643.36 C 469.46 642.92 469.59 642.03 469.66 641.59 L 468.32 641.41 C 468.39 640.97 468.52 640.08 468.59 639.64 L 467.26 639.41 C 467.33 638.98 467.46 638.11 467.52 637.68 L 466.35 637.59 L 466.64 636.36 L 465.42 636.35 C 465.51 635.91 465.68 635.02 465.76 634.58 L 464.41 634.37 C 464.45 634.02 464.54 633.32 464.58 632.97 C 463.47 631.68 462.67 630.18 462.23 628.56 L 461.26 628.38 C 461.35 627.94 461.55 627.06 461.64 626.63 L 460.68 626.76 C 460.21 625.59 459.74 624.43 459.26 623.29 L 458.40 623.34 C 458.49 622.90 458.68 622.04 458.77 621.60 L 457.40 621.38 C 457.46 620.93 457.60 620.03 457.67 619.57 L 456.36 619.37 C 456.42 618.94 456.55 618.07 456.62 617.63 L 455.85 617.40 C 455.49 616.79 454.77 615.56 454.41 614.95 C 454.47 614.62 454.57 613.95 454.62 613.61 L 453.67 613.74 C 453.19 612.59 452.72 611.45 452.26 610.32 L 451.40 610.32 C 451.49 609.89 451.66 609.03 451.75 608.60 L 450.40 608.38 C 450.46 607.93 450.59 607.04 450.65 606.59 L 449.73 606.45 C 449.28 605.28 448.78 604.14 448.31 603.01 C 447.36 601.89 446.60 600.68 446.23 599.26 L 445.46 599.29 C 445.51 598.87 445.62 598.03 445.67 597.62 L 444.42 597.34 C 444.49 596.90 444.61 596.02 444.68 595.58 L 443.34 595.37 C 443.43 594.93 443.60 594.04 443.68 593.59 L 442.42 593.42 C 442.46 592.96 442.54 592.04 442.58 591.58 L 440.83 591.62 C 440.49 592.23 439.80 593.43 439.45 594.03 Z" />
</g>
<g id="#80340c87">
<path fill="#80340c" opacity="0.53" d=" M 572.92 582.81 C 574.93 579.19 576.32 575.03 579.52 572.25 C 576.66 578.74 572.65 584.67 570.22 591.36 C 561.00 614.14 559.27 639.77 564.87 663.66 C 566.03 668.78 567.99 673.67 569.06 678.81 C 567.97 677.17 567.07 675.41 566.49 673.54 C 556.53 644.04 558.85 610.60 572.92 582.81 Z" />
</g>
<g id="#953d0e9d">
<path fill="#953d0e" opacity="0.62" d=" M 750.84 597.94 L 751.66 597.32 C 759.24 612.20 762.78 629.30 760.55 645.92 C 759.03 659.91 753.44 673.16 745.61 684.76 L 744.91 684.06 C 746.89 680.31 749.40 676.86 751.21 673.02 C 759.01 657.61 761.35 639.76 758.83 622.76 C 757.51 614.11 754.44 605.87 750.84 597.94 Z" />
</g>
<g id="#6c2c0a72">
<path fill="#6c2c0a" opacity="0.45" d=" M 790.37 601.64 C 790.89 602.37 791.35 603.15 791.74 603.99 C 801.43 638.01 794.88 676.43 773.88 704.98 L 774.13 703.57 C 776.04 699.43 778.98 695.90 780.97 691.82 C 793.42 668.51 797.63 641.03 793.05 615.04 C 792.29 610.54 790.69 606.21 790.37 601.64 Z" />
</g>
<g id="#86370d8d">
<path fill="#86370d" opacity="0.55" d=" M 727.47 742.56 C 731.54 740.63 735.32 738.14 739.56 736.59 C 736.49 739.73 732.28 741.24 728.47 743.24 C 712.46 750.82 694.74 755.09 676.99 754.72 C 659.95 754.72 643.08 750.34 627.70 743.16 C 626.28 742.54 625.04 741.61 623.94 740.55 C 627.74 741.77 631.27 743.65 634.95 745.16 C 664.39 756.97 698.76 756.13 727.47 742.56 Z" />
</g>
</svg>
