<?xml version="1.0" encoding="UTF-8" ?>
<!DOCTYPE svg PUBLIC "-//W3C//DTD SVG 1.1//EN" "http://www.w3.org/Graphics/SVG/1.1/DTD/svg11.dtd">
<svg width="1276pt" height="1276pt" viewBox="0 0 1276 1276" version="1.1" xmlns="http://www.w3.org/2000/svg">
<g id="#f36418ff">
<path fill="#f36418" opacity="1.00" d=" M 469.86 217.66 C 516.91 203.81 565.84 195.98 614.93 195.82 C 657.98 195.68 701.23 199.91 742.92 210.88 C 776.90 219.79 809.79 233.47 839.16 252.87 C 866.99 271.02 891.29 294.91 908.57 323.40 C 931.66 360.45 940.89 404.70 940.27 448.00 C 989.82 448.01 1039.38 448.00 1088.94 448.00 C 1098.47 448.07 1108.15 447.49 1117.49 449.79 C 1136.59 453.99 1153.62 466.41 1163.65 483.17 C 1170.49 494.52 1174.10 507.78 1174.00 521.03 C 1174.00 599.04 1174.00 677.05 1174.00 755.05 C 1174.14 773.04 1167.34 791.04 1155.10 804.25 C 1141.77 819.16 1121.98 827.95 1102.00 827.99 C 982.35 828.02 862.70 827.99 743.05 828.00 C 723.65 828.07 704.24 827.86 684.84 828.10 C 617.84 827.87 550.83 828.05 483.82 828.01 C 380.56 827.98 277.30 828.02 174.04 827.99 C 154.04 827.96 134.23 819.16 120.90 804.25 C 108.64 791.02 101.85 772.99 102.00 754.99 C 102.00 677.01 102.00 599.04 102.00 521.07 C 101.83 503.03 108.64 484.97 120.92 471.73 C 134.47 456.57 154.71 447.78 175.03 448.00 C 377.10 448.00 579.17 448.01 781.24 448.00 C 781.21 426.46 775.91 404.79 764.78 386.26 C 749.13 359.17 722.95 339.51 694.35 327.71 C 658.06 312.59 617.77 309.72 578.95 313.42 C 539.85 317.21 501.72 328.28 465.68 343.71 C 438.42 355.39 412.26 369.55 387.15 385.31 C 368.56 351.47 349.95 317.64 331.39 283.79 C 373.02 253.51 420.57 232.06 469.86 217.66 M 189.68 505.90 C 181.78 507.72 174.45 511.96 169.05 518.01 C 163.50 524.07 160.31 531.97 158.86 539.96 C 158.82 604.96 158.90 669.96 158.82 734.96 C 160.37 749.33 169.91 762.86 183.56 768.15 C 193.82 772.52 205.18 770.80 216.01 771.15 C 502.98 771.15 789.96 771.14 1076.94 771.15 C 1087.73 771.18 1098.53 766.85 1106.00 759.00 C 1112.11 752.83 1115.60 744.50 1117.14 736.07 C 1117.16 670.73 1117.15 605.38 1117.14 540.04 C 1115.67 531.56 1112.10 523.20 1106.00 517.00 C 1098.55 509.18 1087.80 504.85 1077.04 504.85 C 787.69 504.86 498.33 504.85 208.98 504.85 C 202.54 504.90 196.01 504.47 189.68 505.90 Z" />
<path fill="#f36418" opacity="1.00" d=" M 591.11 585.18 C 608.15 559.04 638.58 541.60 670.00 542.05 C 675.35 541.98 680.71 542.23 686.05 542.77 C 700.31 545.32 714.18 550.63 726.07 558.98 C 749.16 575.07 764.87 601.74 766.72 629.92 C 766.84 630.44 767.09 631.47 767.21 631.99 C 768.29 654.40 761.85 677.29 748.35 695.33 C 734.62 714.10 713.83 727.46 691.09 732.31 C 679.56 734.58 667.65 734.05 656.00 733.20 C 638.97 730.19 622.61 722.88 609.47 711.57 C 595.34 699.65 584.70 683.60 579.46 665.86 C 571.25 639.00 575.54 608.60 591.11 585.18 M 617.92 597.99 C 607.82 611.28 603.04 628.48 604.82 645.07 C 606.38 658.40 611.65 671.40 620.44 681.61 C 631.21 694.70 647.21 703.10 663.98 705.20 C 679.24 706.78 695.03 703.11 707.86 694.64 C 723.36 684.76 734.27 668.13 737.46 650.05 C 739.13 641.76 738.70 633.20 737.31 624.91 C 736.90 623.60 736.59 622.24 736.38 620.90 C 732.07 605.26 722.09 591.19 708.50 582.26 C 700.56 576.89 691.41 573.54 682.04 571.77 C 676.06 571.16 670.04 571.14 664.05 571.47 C 645.88 573.39 628.76 583.30 617.92 597.99 Z" />
<path fill="#f36418" opacity="1.00" d=" M 319.18 963.22 C 343.01 944.03 366.80 924.80 390.52 905.48 C 394.67 906.17 398.87 906.23 403.06 906.11 C 460.37 906.08 517.68 906.05 574.99 906.11 C 580.12 906.16 585.36 905.45 590.41 906.74 C 582.91 913.54 574.80 919.63 567.01 926.10 C 550.17 939.76 533.27 953.35 516.33 966.89 C 661.28 966.86 806.24 966.88 951.19 966.88 C 951.18 1005.58 951.19 1044.29 951.19 1083.00 C 740.52 1083.00 529.85 1083.00 319.18 1083.00 C 319.18 1043.07 319.19 1003.15 319.18 963.22 Z" />
</g>
<g id="#000000ff">
<path fill="#000000" opacity="1.00" d=" M 189.68 505.90 C 196.01 504.47 202.54 504.90 208.98 504.85 C 498.33 504.85 787.69 504.86 1077.04 504.85 C 1087.80 504.85 1098.55 509.18 1106.00 517.00 C 1112.10 523.20 1115.67 531.56 1117.14 540.04 C 1117.15 605.38 1117.16 670.73 1117.14 736.07 C 1115.60 744.50 1112.11 752.83 1106.00 759.00 C 1098.53 766.85 1087.73 771.18 1076.94 771.15 C 789.96 771.14 502.98 771.15 216.01 771.15 C 205.18 770.80 193.82 772.52 183.56 768.15 C 169.91 762.86 160.37 749.33 158.82 734.96 C 158.90 669.96 158.82 604.96 158.86 539.96 C 160.31 531.97 163.50 524.07 169.05 518.01 C 174.45 511.96 181.78 507.72 189.68 505.90 M 591.11 585.18 C 575.54 608.60 571.25 639.00 579.46 665.86 C 584.70 683.60 595.34 699.65 609.47 711.57 C 622.61 722.88 638.97 730.19 656.00 733.20 C 667.65 734.05 679.56 734.58 691.09 732.31 C 713.83 727.46 734.62 714.10 748.35 695.33 C 761.85 677.29 768.29 654.40 767.21 631.99 C 767.09 631.47 766.84 630.44 766.72 629.92 C 764.87 601.74 749.16 575.07 726.07 558.98 C 714.18 550.63 700.31 545.32 686.05 542.77 C 680.71 542.23 675.35 541.98 670.00 542.05 C 638.58 541.60 608.15 559.04 591.11 585.18 M 1047.55 543.65 C 1047.59 603.96 1047.58 664.28 1047.55 724.59 C 1057.33 724.76 1067.12 724.52 1076.90 724.73 C 1076.98 674.15 1076.91 623.57 1076.93 573.00 C 1076.75 563.13 1077.31 553.24 1076.64 543.40 C 1066.95 543.88 1057.24 543.43 1047.55 543.65 M 333.19 546.32 C 333.32 583.92 333.45 621.52 333.35 659.12 C 325.87 652.39 317.92 646.23 310.25 639.73 C 273.23 609.12 236.35 578.32 199.25 547.81 C 198.98 551.54 199.13 555.28 199.11 559.02 C 199.11 613.90 199.08 668.78 199.12 723.66 C 207.64 723.59 216.17 723.65 224.69 723.63 C 224.64 685.79 224.67 647.95 224.67 610.12 C 225.73 610.76 226.76 611.45 227.77 612.20 C 242.23 624.13 256.77 635.97 271.35 647.75 C 274.95 650.80 278.63 653.76 282.30 656.74 C 308.94 678.59 335.82 700.15 362.32 722.17 C 362.35 663.58 362.24 604.98 362.38 546.39 C 352.65 546.20 342.92 546.33 333.19 546.32 M 969.46 572.55 C 953.55 591.29 937.68 610.06 921.74 628.79 C 918.07 633.11 914.45 637.47 910.73 641.75 C 905.23 648.44 899.45 654.90 894.01 661.63 C 892.45 659.33 890.51 657.35 888.74 655.24 C 882.77 648.21 876.75 641.22 870.74 634.23 C 862.94 625.05 855.04 615.96 847.26 606.78 C 835.02 592.65 822.95 578.38 810.72 564.25 C 807.35 560.27 803.99 556.29 800.54 552.39 C 799.40 551.01 798.52 549.08 796.46 549.10 C 796.84 564.72 796.52 580.36 796.63 596.00 C 796.61 638.86 796.66 681.72 796.60 724.59 C 806.22 724.71 815.84 724.64 825.46 724.63 C 825.33 693.11 825.60 661.59 825.33 630.07 C 825.78 630.22 826.68 630.51 827.13 630.65 C 838.09 644.68 849.93 658.04 861.27 671.79 C 868.05 679.97 874.96 688.04 881.72 696.23 C 883.48 698.49 885.47 700.54 887.27 702.78 C 889.15 705.14 891.15 707.43 893.05 709.79 C 894.31 709.76 895.38 709.05 895.68 707.79 C 900.64 702.05 905.31 696.07 910.27 690.33 C 913.52 686.23 916.89 682.23 920.26 678.22 C 929.28 667.25 938.32 656.29 947.42 645.39 C 951.45 640.04 956.41 635.37 959.88 629.63 C 960.29 629.57 961.11 629.44 961.52 629.37 C 961.28 661.10 961.67 692.83 961.61 724.56 C 971.89 724.73 982.17 724.64 992.46 724.62 C 992.37 665.05 992.55 605.47 992.37 545.90 C 984.40 554.47 977.16 563.72 969.46 572.55 M 476.92 548.63 C 476.66 549.72 476.27 550.77 475.76 551.78 C 470.87 560.54 466.02 569.33 461.27 578.18 C 460.75 579.06 460.23 579.94 459.72 580.83 C 458.81 582.59 457.85 584.32 456.84 586.02 C 456.59 586.52 456.10 587.51 455.86 588.00 C 455.17 589.26 454.42 590.49 453.68 591.74 C 452.08 594.77 450.47 597.81 448.81 600.82 C 447.59 602.93 446.39 605.05 445.28 607.22 C 444.45 608.77 443.58 610.29 442.70 611.82 C 441.81 613.56 440.87 615.29 439.81 616.95 C 439.23 618.30 438.54 619.62 437.75 620.87 C 436.63 622.98 435.43 625.05 434.31 627.17 C 434.04 627.67 433.51 628.67 433.24 629.18 C 432.36 630.68 431.49 632.20 430.64 633.73 C 429.75 635.49 428.76 637.21 427.81 638.95 C 427.19 640.28 426.47 641.57 425.68 642.81 C 424.55 644.93 423.40 647.04 422.26 649.16 C 421.99 649.63 421.45 650.57 421.18 651.04 C 419.29 653.69 418.45 657.27 416.13 659.45 C 404.97 659.65 393.78 659.43 382.61 659.54 C 382.60 668.49 382.62 677.44 382.60 686.39 C 389.35 686.44 396.09 686.44 402.84 686.38 C 402.07 688.84 400.38 690.87 399.23 693.16 C 396.65 697.30 394.29 701.57 391.77 705.75 C 390.81 707.48 389.82 709.20 388.78 710.89 C 386.46 714.86 384.27 718.94 381.64 722.71 C 381.53 723.21 381.30 724.19 381.19 724.69 C 391.85 724.51 402.52 724.83 413.18 724.53 C 413.33 724.34 413.65 723.95 413.80 723.76 C 414.27 722.87 414.75 721.99 415.26 721.13 C 417.05 717.69 418.95 714.32 420.76 710.89 C 421.28 710.01 421.80 709.13 422.34 708.26 C 422.59 707.77 423.08 706.77 423.33 706.27 C 424.14 704.79 424.94 703.29 425.76 701.82 C 428.13 698.03 429.81 693.84 432.31 690.13 C 432.89 688.97 433.42 687.80 433.84 686.59 C 462.21 686.17 490.61 686.58 518.99 686.39 C 520.17 686.41 522.06 686.19 522.33 687.82 C 524.67 692.65 527.21 697.38 529.71 702.13 C 530.39 703.44 531.05 704.78 531.73 706.11 C 531.99 706.61 532.52 707.60 532.79 708.10 C 535.27 712.41 537.27 716.98 539.76 721.29 C 540.34 722.23 540.70 723.26 540.85 724.37 C 551.89 725.02 562.98 724.45 574.04 724.66 C 573.86 722.48 574.31 719.95 572.79 718.16 C 571.55 716.09 570.42 713.95 569.32 711.81 C 568.44 710.29 567.53 708.78 566.68 707.24 C 566.14 706.11 565.49 705.03 564.86 703.97 C 564.59 703.48 564.06 702.51 563.79 702.02 C 562.02 698.58 559.97 695.29 558.29 691.82 C 557.74 690.95 557.20 690.09 556.66 689.24 C 556.21 688.39 555.76 687.55 555.33 686.72 C 555.06 686.24 554.52 685.29 554.25 684.82 C 553.99 684.33 553.47 683.35 553.21 682.86 C 551.64 679.73 549.54 676.87 548.31 673.60 L 547.61 673.39 C 546.62 670.06 544.39 667.24 542.76 664.21 C 541.71 661.99 540.45 659.90 539.31 657.75 C 533.62 647.92 528.49 637.73 522.56 628.06 C 522.53 627.77 522.47 627.19 522.43 626.91 C 521.77 626.06 521.16 625.19 520.59 624.30 C 519.42 621.87 518.15 619.50 516.78 617.19 C 515.91 615.70 515.09 614.20 514.29 612.69 C 513.78 611.81 513.29 610.94 512.81 610.06 C 511.11 606.51 508.69 603.33 507.30 599.64 L 506.68 599.43 C 505.58 596.31 503.28 593.77 502.30 590.62 L 501.68 590.40 C 501.15 588.71 500.18 587.23 499.35 585.70 C 498.81 584.82 498.29 583.95 497.78 583.09 C 496.42 580.27 494.73 577.63 493.31 574.85 C 492.41 573.32 491.53 571.78 490.68 570.23 C 489.81 568.45 488.83 566.72 487.80 565.05 C 485.82 561.40 483.90 557.72 481.78 554.15 C 480.75 552.33 479.49 550.60 479.19 548.49 C 478.43 548.52 477.67 548.57 476.92 548.63 Z" />
<path fill="#000000" opacity="1.00" d=" M 617.92 597.99 C 628.76 583.30 645.88 573.39 664.05 571.47 C 670.04 571.14 676.06 571.16 682.04 571.77 C 691.41 573.54 700.56 576.89 708.50 582.26 C 722.09 591.19 732.07 605.26 736.38 620.90 C 736.59 622.24 736.90 623.60 737.31 624.91 C 738.70 633.20 739.13 641.76 737.46 650.05 C 734.27 668.13 723.36 684.76 707.86 694.64 C 695.03 703.11 679.24 706.78 663.98 705.20 C 647.21 703.10 631.21 694.70 620.44 681.61 C 611.65 671.40 606.38 658.40 604.82 645.07 C 603.04 628.48 607.82 611.28 617.92 597.99 Z" />
<path fill="#000000" opacity="1.00" d=" M 477.56 602.54 C 477.63 602.14 477.79 601.33 477.87 600.93 C 478.60 603.09 479.69 605.10 480.72 607.14 C 482.53 610.07 484.11 613.13 485.69 616.19 C 486.20 617.07 486.72 617.95 487.24 618.84 C 487.49 619.33 488.00 620.31 488.25 620.79 C 488.51 621.28 489.04 622.24 489.31 622.73 C 490.43 624.89 491.73 626.97 492.72 629.22 C 493.24 630.09 493.77 630.96 494.31 631.83 C 497.65 638.35 501.34 644.68 504.73 651.18 C 504.99 651.66 505.52 652.63 505.78 653.11 C 506.85 655.13 508.44 656.98 508.70 659.34 C 488.43 659.12 468.15 659.41 447.88 659.20 C 447.43 658.97 446.52 658.52 446.07 658.30 C 448.99 654.94 450.55 650.70 452.77 646.90 C 453.60 645.33 454.47 643.79 455.35 642.26 C 455.77 641.41 456.21 640.57 456.64 639.74 C 459.26 634.65 462.46 629.83 464.66 624.56 L 465.32 624.41 C 465.79 622.93 466.52 621.56 467.32 620.24 C 468.91 617.20 470.45 614.13 472.23 611.21 C 472.91 609.87 473.62 608.54 474.36 607.24 C 475.21 605.68 476.15 604.15 476.56 602.41 L 477.56 602.54 Z" />
</g>
<g id="#ffffffff">
<path fill="#ffffff" opacity="1.00" d=" M 1047.55 543.65 C 1057.24 543.43 1066.95 543.88 1076.64 543.40 C 1077.31 553.24 1076.75 563.13 1076.93 573.00 C 1076.91 623.57 1076.98 674.15 1076.90 724.73 C 1067.12 724.52 1057.33 724.76 1047.55 724.59 C 1047.58 664.28 1047.59 603.96 1047.55 543.65 Z" />
<path fill="#ffffff" opacity="1.00" d=" M 333.19 546.32 C 342.92 546.33 352.65 546.20 362.38 546.39 C 362.24 604.98 362.35 663.58 362.32 722.17 C 335.82 700.15 308.94 678.59 282.30 656.74 C 278.63 653.76 274.95 650.80 271.35 647.75 C 256.77 635.97 242.23 624.13 227.77 612.20 C 226.76 611.45 225.73 610.76 224.67 610.12 C 224.67 647.95 224.64 685.79 224.69 723.63 C 216.17 723.65 207.64 723.59 199.12 723.66 C 199.08 668.78 199.11 613.90 199.11 559.02 C 199.13 555.28 198.98 551.54 199.25 547.81 C 236.35 578.32 273.23 609.12 310.25 639.73 C 317.92 646.23 325.87 652.39 333.35 659.12 C 333.45 621.52 333.32 583.92 333.19 546.32 Z" />
<path fill="#ffffff" opacity="1.00" d=" M 969.46 572.55 C 977.16 563.72 984.40 554.47 992.37 545.90 C 992.55 605.47 992.37 665.05 992.46 724.62 C 982.17 724.64 971.89 724.73 961.61 724.56 C 961.67 692.83 961.28 661.10 961.52 629.37 C 961.11 629.44 960.29 629.57 959.88 629.63 C 956.41 635.37 951.45 640.04 947.42 645.39 C 938.32 656.29 929.28 667.25 920.26 678.22 C 916.89 682.23 913.52 686.23 910.27 690.33 C 905.31 696.07 900.64 702.05 895.68 707.79 C 895.38 709.05 894.31 709.76 893.05 709.79 C 891.15 707.43 889.15 705.14 887.27 702.78 C 885.47 700.54 883.48 698.49 881.72 696.23 C 874.96 688.04 868.05 679.97 861.27 671.79 C 849.93 658.04 838.09 644.68 827.13 630.65 C 826.68 630.51 825.78 630.22 825.33 630.07 C 825.60 661.59 825.33 693.11 825.46 724.63 C 815.84 724.64 806.22 724.71 796.60 724.59 C 796.66 681.72 796.61 638.86 796.63 596.00 C 796.52 580.36 796.84 564.72 796.46 549.10 C 798.52 549.08 799.40 551.01 800.54 552.39 C 803.99 556.29 807.35 560.27 810.72 564.25 C 822.95 578.38 835.02 592.65 847.26 606.78 C 855.04 615.96 862.94 625.05 870.74 634.23 C 876.75 641.22 882.77 648.21 888.74 655.24 C 890.51 657.35 892.45 659.33 894.01 661.63 C 899.45 654.90 905.23 648.44 910.73 641.75 C 914.45 637.47 918.07 633.11 921.74 628.79 C 937.68 610.06 953.55 591.29 969.46 572.55 Z" />
<path fill="#ffffff" opacity="1.00" d=" M 476.92 548.63 C 477.67 548.57 478.43 548.52 479.19 548.49 C 479.49 550.60 480.75 552.33 481.78 554.15 C 483.90 557.72 485.82 561.40 487.80 565.05 C 488.83 566.72 489.81 568.45 490.68 570.23 C 491.53 571.78 492.41 573.32 493.31 574.85 C 494.73 577.63 496.42 580.27 497.78 583.09 C 498.29 583.95 498.81 584.82 499.35 585.70 C 500.18 587.23 501.15 588.71 501.68 590.40 L 502.30 590.62 C 503.28 593.77 505.58 596.31 506.68 599.43 L 507.30 599.64 C 508.69 603.33 511.11 606.51 512.81 610.06 C 513.29 610.94 513.78 611.81 514.29 612.69 C 515.09 614.20 515.91 615.70 516.78 617.19 C 518.15 619.50 519.42 621.87 520.59 624.30 C 521.16 625.19 521.77 626.06 522.43 626.91 C 522.47 627.19 522.53 627.77 522.56 628.06 C 528.49 637.73 533.62 647.92 539.31 657.75 C 540.45 659.90 541.71 661.99 542.76 664.21 C 544.39 667.24 546.62 670.06 547.61 673.39 L 548.31 673.60 C 549.54 676.87 551.64 679.73 553.21 682.86 C 553.47 683.35 553.99 684.33 554.25 684.82 C 554.52 685.29 555.06 686.24 555.33 686.72 C 555.76 687.55 556.21 688.39 556.66 689.24 C 557.20 690.09 557.74 690.95 558.29 691.82 C 559.97 695.29 562.02 698.58 563.79 702.02 C 564.06 702.51 564.59 703.48 564.86 703.97 C 565.49 705.03 566.14 706.11 566.68 707.24 C 567.53 708.78 568.44 710.29 569.32 711.81 C 570.42 713.95 571.55 716.09 572.79 718.16 C 574.31 719.95 573.86 722.48 574.04 724.66 C 562.98 724.45 551.89 725.02 540.85 724.37 C 540.70 723.26 540.34 722.23 539.76 721.29 C 537.27 716.98 535.27 712.41 532.79 708.10 C 532.52 707.60 531.99 706.61 531.73 706.11 C 531.05 704.78 530.39 703.44 529.71 702.13 C 527.21 697.38 524.67 692.65 522.33 687.82 C 522.06 686.19 520.17 686.41 518.99 686.39 C 490.61 686.58 462.21 686.17 433.84 686.59 C 433.42 687.80 432.89 688.97 432.31 690.13 C 429.81 693.84 428.13 698.03 425.76 701.82 C 424.94 703.29 424.14 704.79 423.33 706.27 C 423.08 706.77 422.59 707.77 422.34 708.26 C 421.80 709.13 421.28 710.01 420.76 710.89 C 418.95 714.32 417.05 717.69 415.26 721.13 C 414.75 721.99 414.27 722.87 413.80 723.76 C 413.65 723.95 413.33 724.34 413.18 724.53 C 402.52 724.83 391.85 724.51 381.19 724.69 C 381.30 724.19 381.53 723.21 381.64 722.71 C 384.27 718.94 386.46 714.86 388.78 710.89 C 389.82 709.20 390.81 707.48 391.77 705.75 C 394.29 701.57 396.65 697.30 399.23 693.16 C 400.38 690.87 402.07 688.84 402.84 686.38 C 396.09 686.44 389.35 686.44 382.60 686.39 C 382.62 677.44 382.60 668.49 382.61 659.54 C 393.78 659.43 404.97 659.65 416.13 659.45 C 418.45 657.27 419.29 653.69 421.18 651.04 C 421.45 650.57 421.99 649.63 422.26 649.16 C 423.40 647.04 424.55 644.93 425.68 642.81 C 426.47 641.57 427.19 640.28 427.81 638.95 C 428.76 637.21 429.75 635.49 430.64 633.73 C 431.49 632.20 432.36 630.68 433.24 629.18 C 433.51 628.67 434.04 627.67 434.31 627.17 C 435.43 625.05 436.63 622.98 437.75 620.87 C 438.54 619.62 439.23 618.30 439.81 616.95 C 440.87 615.29 441.81 613.56 442.70 611.82 C 443.58 610.29 444.45 608.77 445.28 607.22 C 446.39 605.05 447.59 602.93 448.81 600.82 C 450.47 597.81 452.08 594.77 453.68 591.74 C 454.42 590.49 455.17 589.26 455.86 588.00 C 456.10 587.51 456.59 586.52 456.84 586.02 C 457.85 584.32 458.81 582.59 459.72 580.83 C 460.23 579.94 460.75 579.06 461.27 578.18 C 466.02 569.33 470.87 560.54 475.76 551.78 C 476.27 550.77 476.66 549.72 476.92 548.63 M 477.56 602.54 L 476.56 602.41 C 476.15 604.15 475.21 605.68 474.36 607.24 C 473.62 608.54 472.91 609.87 472.23 611.21 C 470.45 614.13 468.91 617.20 467.32 620.24 C 466.52 621.56 465.79 622.93 465.32 624.41 L 464.66 624.56 C 462.46 629.83 459.26 634.65 456.64 639.74 C 456.21 640.57 455.77 641.41 455.35 642.26 C 454.47 643.79 453.60 645.33 452.77 646.90 C 450.55 650.70 448.99 654.94 446.07 658.30 C 446.52 658.52 447.43 658.97 447.88 659.20 C 468.15 659.41 488.43 659.12 508.70 659.34 C 508.44 656.98 506.85 655.13 505.78 653.11 C 505.52 652.63 504.99 651.66 504.73 651.18 C 501.34 644.68 497.65 638.35 494.31 631.83 C 493.77 630.96 493.24 630.09 492.72 629.22 C 491.73 626.97 490.43 624.89 489.31 622.73 C 489.04 622.24 488.51 621.28 488.25 620.79 C 488.00 620.31 487.49 619.33 487.24 618.84 C 486.72 617.95 486.20 617.07 485.69 616.19 C 484.11 613.13 482.53 610.07 480.72 607.14 C 479.69 605.10 478.60 603.09 477.87 600.93 C 477.79 601.33 477.63 602.14 477.56 602.54 Z" />
</g>
<g id="#6c2c0bff">
<path fill="#6c2c0b" opacity="1.00" d=" M 483.82 828.01 C 550.83 828.05 617.84 827.87 684.84 828.10 C 675.24 837.30 664.31 845.07 654.77 854.32 L 654.83 853.49 C 639.91 852.65 624.93 853.34 609.99 853.12 C 564.32 853.10 518.65 853.13 472.99 853.11 C 466.86 853.09 460.69 853.45 454.61 852.54 C 464.30 844.31 474.15 836.27 483.82 828.01 Z" />
</g>
<g id="#82350dff">
<path fill="#82350d" opacity="1.00" d=" M 433.85 869.76 C 440.75 864.00 447.69 858.29 454.61 852.54 C 460.69 853.45 466.86 853.09 472.99 853.11 C 518.65 853.13 564.32 853.10 609.99 853.12 C 624.93 853.34 639.91 852.65 654.83 853.49 C 648.55 859.65 641.27 864.69 634.86 870.71 L 634.36 870.62 C 626.67 869.05 618.81 870.28 611.04 869.95 C 551.97 869.63 492.91 870.25 433.85 869.76 Z" />
</g>
<g id="#a24310ff">
<path fill="#a24310" opacity="1.00" d=" M 417.57 883.36 C 422.86 878.66 428.45 874.32 433.85 869.76 C 492.91 870.25 551.97 869.63 611.04 869.95 C 618.81 870.28 626.67 869.05 634.36 870.62 C 629.23 875.69 623.16 879.70 617.98 884.73 L 617.34 884.57 C 613.67 883.44 609.81 883.62 606.03 883.69 C 545.36 883.73 484.69 883.64 424.02 883.74 C 421.86 883.68 419.72 883.53 417.57 883.36 Z" />
</g>
<g id="#c35013ff">
<path fill="#c35013" opacity="1.00" d=" M 417.37 883.34 L 417.57 883.36 C 419.72 883.53 421.86 883.68 424.02 883.74 C 484.69 883.64 545.36 883.73 606.03 883.69 C 609.81 883.62 613.67 883.44 617.34 884.57 C 614.43 887.71 610.91 890.19 607.62 892.91 C 603.50 891.78 599.22 892.08 595.01 892.14 C 535.01 892.15 475.00 892.13 415.00 892.16 C 412.50 892.11 410.01 891.82 407.53 891.52 C 410.77 888.74 414.16 886.15 417.37 883.34 Z" />
</g>
<g id="#d95915ff">
<path fill="#d95915" opacity="1.00" d=" M 390.52 905.48 C 396.14 900.76 401.86 896.16 407.53 891.52 C 410.01 891.82 412.50 892.11 415.00 892.16 C 475.00 892.13 535.01 892.15 595.01 892.14 C 599.22 892.08 603.50 891.78 607.62 892.91 C 602.16 897.68 596.28 901.95 590.95 906.85 L 590.41 906.74 C 585.36 905.45 580.12 906.16 574.99 906.11 C 517.68 906.05 460.37 906.08 403.06 906.11 C 398.87 906.23 394.67 906.17 390.52 905.48 Z" />
</g>
</svg>
