<?xml version="1.0" encoding="UTF-8" ?>
<!DOCTYPE svg PUBLIC "-//W3C//DTD SVG 1.1//EN" "http://www.w3.org/Graphics/SVG/1.1/DTD/svg11.dtd">
<svg width="1276pt" height="1276pt" viewBox="0 0 1276 1276" version="1.1" xmlns="http://www.w3.org/2000/svg">
<g id="#f36418ff">
<path fill="#f36418" opacity="1.00" d=" M 660.35 402.66 C 672.41 401.84 684.51 401.89 696.57 402.68 L 696.38 403.30 C 699.46 403.59 702.47 404.41 705.56 404.73 L 705.46 405.32 C 706.67 405.43 707.88 405.56 709.10 405.69 C 712.07 406.76 715.09 407.72 718.12 408.65 C 719.44 409.24 720.77 409.85 722.08 410.51 C 722.30 410.50 722.74 410.47 722.96 410.45 C 725.57 411.97 728.48 412.88 731.03 414.52 C 731.25 414.52 731.70 414.51 731.92 414.51 C 733.33 415.47 734.72 416.45 736.10 417.47 C 736.42 417.44 737.07 417.39 737.39 417.36 L 737.63 418.65 C 737.95 418.61 738.60 418.53 738.92 418.49 C 740.14 419.56 741.45 420.56 742.90 421.34 C 746.24 423.57 749.48 425.99 752.57 428.58 C 756.42 432.16 760.86 435.21 763.92 439.56 L 764.14 439.38 C 766.02 442.01 768.37 444.24 770.34 446.80 C 773.77 451.33 777.02 456.01 779.78 460.99 C 782.03 464.50 783.53 468.40 785.55 472.03 C 785.55 472.25 785.56 472.69 785.56 472.91 C 786.57 474.65 787.37 476.52 787.80 478.50 L 788.25 478.45 C 788.53 479.62 788.83 480.79 789.16 481.96 C 789.50 482.94 789.86 483.93 790.23 484.92 C 790.80 487.13 791.42 489.34 791.78 491.61 L 792.23 491.41 C 792.51 494.60 793.48 497.67 793.69 500.87 C 795.10 513.69 795.11 526.61 793.61 539.43 C 793.38 542.48 792.50 545.45 792.21 548.50 L 791.76 548.42 C 791.32 550.80 790.66 553.14 790.21 555.52 L 789.62 555.51 C 789.54 556.13 789.38 557.35 789.31 557.97 C 788.89 559.13 788.51 560.31 788.17 561.51 L 787.73 561.44 C 787.34 563.44 786.60 565.35 785.50 567.08 C 785.54 567.40 785.62 568.06 785.66 568.38 L 784.35 568.61 C 784.40 568.95 784.51 569.64 784.56 569.98 C 783.20 572.26 782.11 574.70 780.78 577.01 C 779.59 579.35 778.21 581.59 776.76 583.79 C 771.90 591.82 765.61 598.86 759.15 605.63 L 758.51 605.38 C 758.50 605.75 758.48 606.49 758.47 606.87 L 758.03 606.30 C 754.59 609.74 750.85 612.85 746.92 615.71 C 744.41 617.42 742.02 619.34 739.30 620.70 C 734.71 622.51 730.55 625.20 726.06 627.21 C 696.94 640.48 662.26 640.79 632.83 628.30 C 629.21 626.71 625.77 624.74 622.01 623.49 C 617.27 621.39 613.16 618.15 608.88 615.29 C 599.32 608.16 590.93 599.53 583.72 590.05 C 583.61 589.83 583.40 589.39 583.29 589.18 C 581.19 584.61 577.98 580.68 575.77 576.18 C 557.72 543.19 556.99 501.47 573.61 467.77 C 575.51 463.96 577.85 460.37 579.40 456.39 C 579.49 456.20 579.66 455.80 579.74 455.60 C 586.47 445.35 594.77 436.20 604.12 428.29 C 606.72 426.22 609.37 424.22 612.10 422.33 C 616.15 419.48 620.45 417.01 624.83 414.68 C 626.20 414.01 627.58 413.33 628.97 412.67 C 629.49 412.37 630.53 411.78 631.05 411.49 C 631.27 411.51 631.73 411.55 631.95 411.57 C 633.29 410.85 634.65 410.16 636.00 409.46 C 636.22 409.43 636.65 409.39 636.87 409.37 C 638.06 408.93 639.27 408.53 640.49 408.15 L 640.49 407.52 C 641.25 407.51 642.78 407.48 643.54 407.47 L 643.49 406.78 C 647.56 406.09 651.43 404.41 655.60 404.27 L 655.43 403.62 C 657.15 403.55 658.88 403.45 660.61 403.39 L 660.35 402.66 M 663.59 439.28 C 661.00 439.49 658.48 440.09 655.97 440.70 C 653.94 441.40 651.91 442.08 649.87 442.73 C 647.21 443.91 644.47 444.94 641.99 446.48 C 641.75 446.50 641.28 446.55 641.04 446.57 C 633.12 451.01 625.86 456.52 619.39 462.87 L 619.51 463.08 C 615.20 467.22 611.92 472.23 608.42 477.03 C 608.46 477.35 608.55 478.00 608.59 478.32 L 607.76 478.37 C 607.27 479.75 606.38 480.92 605.51 482.08 C 605.56 482.41 605.65 483.07 605.70 483.40 L 604.79 483.58 C 603.91 485.89 602.91 488.17 602.26 490.56 L 601.55 490.51 C 601.53 491.27 601.49 492.78 601.47 493.53 L 600.59 493.50 C 600.52 494.14 600.38 495.42 600.31 496.06 C 599.16 498.75 598.46 501.61 598.28 504.54 L 597.63 504.41 C 597.49 508.08 597.22 511.75 597.21 515.43 L 596.49 515.28 C 596.57 518.08 596.56 520.89 596.48 523.70 L 597.20 523.62 C 597.19 527.62 597.47 531.61 597.63 535.61 L 598.28 535.45 C 598.47 538.39 599.15 541.28 600.30 544.00 C 600.37 544.64 600.51 545.90 600.57 546.53 L 601.45 546.43 C 601.47 547.20 601.51 548.72 601.53 549.49 L 602.23 549.49 C 602.60 551.48 603.43 553.34 604.52 555.06 C 604.47 555.38 604.37 556.03 604.33 556.36 L 605.26 556.56 C 605.72 557.72 606.21 558.88 606.70 560.05 C 609.31 564.17 611.75 568.43 614.96 572.14 C 622.13 581.57 631.85 588.64 642.07 594.44 C 642.29 594.44 642.74 594.44 642.97 594.44 C 644.87 595.53 646.87 596.43 648.92 597.23 C 651.58 598.18 654.24 599.18 656.97 599.97 C 658.65 600.36 660.32 600.77 661.98 601.31 C 663.85 601.49 665.71 601.60 667.60 601.70 L 667.35 602.38 C 674.78 602.72 682.22 602.69 689.65 602.36 L 689.36 601.68 C 691.23 601.58 693.12 601.46 694.99 601.27 C 696.63 600.70 698.33 600.29 700.04 599.93 C 701.05 599.55 702.06 599.17 703.07 598.78 C 703.57 598.68 704.57 598.47 705.07 598.37 C 706.34 597.77 707.63 597.22 708.94 596.69 C 712.50 595.34 716.07 593.87 719.12 591.55 C 719.34 591.55 719.77 591.56 719.98 591.56 C 729.46 585.29 738.43 577.93 744.79 568.40 C 745.30 568.00 746.31 567.20 746.82 566.80 C 761.56 545.14 765.41 516.41 756.20 491.79 C 754.62 488.18 753.76 483.97 750.67 481.29 C 750.14 480.05 749.27 478.99 748.52 477.91 C 748.54 477.69 748.56 477.24 748.57 477.01 C 741.28 466.24 732.20 456.55 721.05 449.69 C 719.25 448.78 717.51 447.76 715.92 446.52 C 715.69 446.53 715.24 446.56 715.02 446.57 C 712.68 445.09 710.14 444.00 707.49 443.24 L 707.55 442.55 C 706.80 442.53 705.29 442.47 704.54 442.45 L 704.57 441.74 C 703.36 441.45 702.16 441.15 700.97 440.83 C 699.65 440.49 698.32 440.16 697.03 439.80 C 692.14 438.45 687.06 438.64 682.13 437.64 C 679.37 437.57 676.62 437.57 673.88 437.65 C 670.48 438.57 666.93 438.52 663.45 438.62 L 663.59 439.28 Z" />
</g>
<g id="#ffffffff">
<path fill="#ffffff" opacity="1.00" d=" M 1138.28 404.34 C 1150.16 404.29 1162.04 404.38 1173.92 404.29 C 1173.91 478.37 1174.00 552.45 1173.88 626.52 C 1162.05 626.37 1150.21 626.49 1138.39 626.46 C 1138.23 552.42 1138.44 478.38 1138.28 404.34 Z" />
<path fill="#ffffff" opacity="1.00" d=" M 264.61 407.41 C 272.28 407.23 279.95 407.29 287.62 407.37 L 288.00 405.33 L 288.38 407.37 C 292.43 407.27 296.48 407.29 300.54 407.35 C 300.43 479.01 300.50 550.66 300.50 622.32 C 298.70 621.52 297.16 620.32 295.63 619.13 L 295.65 618.72 C 295.26 618.50 294.48 618.06 294.09 617.84 C 292.67 616.60 291.27 615.35 289.88 614.10 C 289.50 613.90 288.73 613.48 288.35 613.28 L 288.36 612.91 C 286.93 611.86 285.57 610.73 284.22 609.59 C 283.97 609.41 283.47 609.04 283.22 608.86 C 281.73 607.63 280.27 606.36 278.83 605.08 C 278.47 604.88 277.74 604.46 277.38 604.26 L 277.40 603.91 C 275.97 602.89 274.63 601.76 273.32 600.61 C 273.03 600.41 272.43 600.01 272.14 599.80 C 270.68 598.58 269.26 597.32 267.86 596.06 C 267.48 595.86 266.73 595.47 266.35 595.28 L 266.41 594.89 C 264.98 593.86 263.62 592.75 262.26 591.65 C 262.00 591.33 261.47 590.69 261.21 590.37 L 260.88 590.66 C 259.52 589.38 258.13 588.16 256.62 587.09 L 256.59 586.38 L 255.88 586.65 C 254.21 585.09 252.52 583.57 250.79 582.09 C 250.44 581.90 249.73 581.52 249.38 581.33 L 249.36 580.93 C 247.85 579.86 246.45 578.65 245.12 577.39 L 244.39 577.66 L 244.47 576.85 C 243.18 575.95 241.93 575.00 240.66 574.11 L 240.60 573.77 C 240.24 573.44 239.52 572.79 239.16 572.46 L 238.83 572.67 C 237.37 571.26 235.88 569.91 234.33 568.60 C 234.02 568.41 233.39 568.02 233.08 567.83 C 231.65 566.58 230.23 565.32 228.81 564.08 C 228.45 563.89 227.73 563.52 227.37 563.34 L 227.36 562.90 C 226.11 561.98 224.89 561.02 223.63 560.12 L 223.60 559.68 C 223.25 559.50 222.55 559.13 222.20 558.95 C 220.76 557.68 219.33 556.41 217.90 555.15 C 217.60 554.96 216.98 554.58 216.68 554.39 C 215.22 553.12 213.78 551.84 212.31 550.59 C 212.02 550.41 211.42 550.04 211.12 549.85 C 209.69 548.60 208.28 547.33 206.86 546.08 C 206.49 545.89 205.74 545.52 205.37 545.34 L 205.37 544.93 C 203.94 543.87 202.58 542.72 201.25 541.55 C 200.99 541.39 200.49 541.07 200.23 540.92 C 198.78 539.68 197.36 538.42 195.94 537.16 C 195.63 536.97 194.99 536.59 194.67 536.40 C 193.04 534.96 191.43 533.51 189.79 532.08 C 189.43 531.89 188.70 531.51 188.34 531.33 L 188.36 530.90 C 187.08 529.99 185.84 529.03 184.57 528.13 L 184.56 527.35 L 183.47 527.62 L 183.40 526.87 C 182.13 525.96 180.90 525.01 179.64 524.11 L 179.63 523.67 C 179.27 523.48 178.56 523.10 178.21 522.91 C 176.72 521.56 175.23 520.24 173.62 519.05 L 173.57 518.72 C 173.22 518.52 172.50 518.12 172.15 517.92 C 170.70 516.63 169.26 515.35 167.79 514.09 C 167.52 513.93 166.99 513.60 166.72 513.44 C 165.41 512.26 164.06 511.12 162.64 510.09 L 162.65 509.71 C 162.26 509.51 161.48 509.10 161.10 508.90 C 159.70 507.65 158.31 506.39 156.92 505.14 C 156.53 504.92 155.75 504.49 155.36 504.28 L 155.33 503.94 C 153.91 502.88 152.55 501.73 151.22 500.58 C 150.95 500.40 150.43 500.04 150.17 499.86 C 148.70 498.62 147.25 497.35 145.79 496.11 C 145.53 495.94 145.00 495.58 144.74 495.41 C 143.16 494.11 141.64 492.76 140.17 491.35 L 139.45 491.57 L 139.42 490.87 C 137.02 489.32 135.24 486.93 132.56 485.82 C 132.42 532.33 132.63 578.83 132.45 625.33 C 122.05 625.37 111.65 625.27 101.26 625.39 C 100.90 554.93 101.24 484.46 101.09 414.00 C 101.04 412.14 101.26 410.28 101.51 408.45 C 102.03 409.07 103.07 410.31 103.60 410.92 L 103.66 411.10 C 105.06 412.13 106.41 413.24 107.76 414.35 C 108.02 414.67 108.53 415.31 108.79 415.63 L 109.11 415.34 C 110.47 416.60 111.86 417.84 113.34 418.95 L 113.40 419.24 C 113.77 419.55 114.50 420.18 114.87 420.49 L 115.56 420.33 L 115.65 421.07 C 117.07 422.11 118.43 423.23 119.78 424.37 C 120.03 424.69 120.54 425.34 120.79 425.67 L 121.13 425.31 C 122.63 426.73 124.17 428.10 125.76 429.43 C 126.02 429.72 126.55 430.29 126.82 430.58 L 127.16 430.34 C 128.73 431.79 130.31 433.23 131.88 434.68 L 132.23 434.38 C 132.48 434.70 132.99 435.34 133.25 435.66 C 134.59 436.77 135.94 437.88 137.34 438.92 L 137.40 439.23 C 137.76 439.55 138.49 440.19 138.85 440.51 L 139.18 440.34 C 140.73 441.79 142.30 443.22 143.87 444.66 L 144.13 444.43 C 144.49 444.77 145.21 445.43 145.57 445.76 L 145.67 446.07 C 147.07 447.11 148.42 448.24 149.77 449.36 C 150.02 449.67 150.54 450.30 150.79 450.61 L 151.12 450.34 C 152.46 451.61 153.85 452.84 155.35 453.93 L 155.40 454.24 C 155.76 454.55 156.49 455.18 156.85 455.49 L 157.18 455.36 C 158.65 456.78 160.17 458.14 161.81 459.38 C 162.06 459.69 162.56 460.30 162.81 460.60 L 163.13 460.31 C 164.60 461.72 166.12 463.08 167.71 464.36 C 167.99 464.65 168.54 465.23 168.81 465.52 L 169.18 465.37 C 170.65 466.75 172.16 468.10 173.76 469.35 C 174.02 469.65 174.55 470.25 174.81 470.55 L 175.56 470.29 L 175.66 471.07 C 177.06 472.11 178.41 473.23 179.77 474.34 C 180.02 474.65 180.52 475.27 180.77 475.58 L 181.12 475.35 C 182.47 476.62 183.86 477.84 185.37 478.94 L 185.39 479.30 C 185.74 479.49 186.45 479.87 186.80 480.06 C 188.28 481.43 189.79 482.77 191.41 483.97 L 191.43 484.28 C 191.77 484.60 192.45 485.25 192.78 485.57 L 193.16 485.34 C 194.47 486.63 195.84 487.86 197.33 488.94 L 197.39 489.24 C 197.76 489.55 198.50 490.17 198.88 490.48 L 199.19 490.35 C 200.65 491.76 202.16 493.12 203.77 494.37 C 204.04 494.68 204.57 495.30 204.83 495.61 L 205.14 495.30 C 206.60 496.73 208.12 498.09 209.73 499.36 C 210.00 499.65 210.53 500.22 210.80 500.51 L 211.19 500.35 C 212.65 501.73 214.14 503.08 215.66 504.41 C 215.97 504.59 216.59 504.96 216.90 505.14 C 218.48 506.59 220.09 508.02 221.77 509.36 C 222.03 509.67 222.54 510.29 222.80 510.60 L 223.15 510.35 C 224.49 511.62 225.87 512.85 227.37 513.94 L 227.36 514.35 C 227.72 514.51 228.44 514.84 228.80 515.01 C 230.26 516.41 231.76 517.76 233.39 518.97 L 233.40 519.30 C 233.76 519.49 234.48 519.87 234.84 520.06 C 236.30 521.43 237.80 522.78 239.41 523.99 L 239.39 524.27 C 239.76 524.57 240.49 525.15 240.86 525.45 L 241.19 525.35 C 242.69 526.74 244.20 528.13 245.75 529.48 C 246.01 529.63 246.53 529.94 246.79 530.09 C 248.30 531.43 249.82 532.76 251.44 533.97 L 251.42 534.24 C 251.78 534.55 252.49 535.17 252.85 535.48 L 253.16 535.35 C 254.50 536.63 255.88 537.87 257.40 538.95 L 257.46 539.69 L 258.55 539.39 L 258.60 540.11 C 260.96 541.66 262.63 544.17 265.37 545.13 C 265.43 523.22 265.21 501.31 265.34 479.40 L 263.54 479.00 L 265.35 478.60 C 265.26 473.77 265.25 468.94 265.32 464.11 L 264.71 464.89 C 264.71 463.74 264.69 461.45 264.69 460.31 L 265.32 460.70 C 265.32 459.60 265.31 457.38 265.30 456.27 L 264.66 456.67 C 264.67 455.85 264.70 454.21 264.71 453.39 L 266.62 453.00 L 264.67 452.62 C 264.77 437.55 264.68 422.48 264.61 407.41 Z" />
<path fill="#ffffff" opacity="1.00" d=" M 1068.49 407.76 C 1069.02 407.66 1070.08 407.46 1070.61 407.35 C 1070.42 480.39 1070.65 553.42 1070.50 626.45 C 1058.13 626.46 1045.77 626.45 1033.40 626.46 C 1033.33 616.45 1033.28 606.44 1033.36 596.43 L 1031.52 596.00 L 1033.37 595.57 C 1033.27 592.73 1033.28 589.89 1033.33 587.05 L 1032.66 588.01 C 1032.66 586.76 1032.66 584.28 1032.66 583.03 L 1033.33 583.87 C 1033.33 582.97 1033.31 581.17 1033.31 580.27 L 1032.62 580.74 C 1032.79 556.94 1032.42 533.12 1032.66 509.32 C 1032.09 509.42 1030.96 509.61 1030.39 509.71 C 1030.45 510.12 1030.57 510.95 1030.63 511.36 L 1029.42 511.38 L 1029.65 512.52 L 1028.92 512.65 C 1027.89 514.07 1026.76 515.41 1025.59 516.71 C 1025.41 516.99 1025.05 517.57 1024.87 517.85 C 1023.62 519.31 1022.34 520.74 1021.05 522.15 C 1020.86 522.53 1020.48 523.28 1020.29 523.65 L 1019.89 523.56 C 1018.97 524.84 1018.01 526.08 1017.11 527.36 L 1016.30 527.42 L 1016.51 528.14 C 1016.19 528.50 1015.54 529.23 1015.22 529.59 L 1014.93 529.67 C 1013.86 531.06 1012.73 532.40 1011.61 533.74 C 1011.42 534.01 1011.03 534.55 1010.84 534.82 C 1009.61 536.28 1008.35 537.72 1007.09 539.15 C 1006.88 539.52 1006.47 540.26 1006.26 540.62 L 1005.85 540.57 C 1004.94 541.84 1003.99 543.08 1003.11 544.37 L 1002.75 544.41 C 1002.43 544.78 1001.80 545.50 1001.48 545.87 L 1001.65 546.15 C 1000.35 547.47 999.13 548.85 998.06 550.35 L 997.72 550.39 C 997.52 550.76 997.13 551.49 996.94 551.85 C 995.63 553.28 994.34 554.72 993.04 556.15 C 992.85 556.52 992.46 557.27 992.27 557.64 L 991.87 557.57 C 990.96 558.84 990.00 560.07 989.10 561.34 L 988.77 561.41 C 988.44 561.77 987.77 562.49 987.44 562.86 L 987.68 563.54 L 986.90 563.64 C 985.97 564.90 985.00 566.13 984.09 567.40 L 983.65 567.36 C 983.47 567.74 983.10 568.50 982.92 568.87 C 981.62 570.31 980.32 571.75 979.00 573.15 C 978.82 573.53 978.46 574.28 978.28 574.65 L 977.89 574.58 C 976.86 576.01 975.75 577.39 974.65 578.77 C 974.32 579.02 973.68 579.53 973.36 579.78 L 973.67 580.12 C 972.37 581.45 971.13 582.85 970.08 584.39 L 969.71 584.37 C 969.52 584.73 969.14 585.46 968.95 585.82 C 967.64 587.26 966.34 588.71 965.02 590.14 C 964.84 590.52 964.47 591.27 964.29 591.65 L 963.90 591.60 C 962.82 593.13 961.59 594.54 960.32 595.91 L 960.65 596.25 C 960.32 596.48 959.65 596.96 959.32 597.19 C 958.22 598.58 957.11 599.97 956.08 601.41 L 955.29 601.45 L 955.67 602.57 L 954.86 602.55 C 953.94 603.81 952.97 605.04 952.06 606.32 L 951.35 606.42 L 951.48 607.60 C 950.44 607.67 949.41 607.74 948.39 607.83 L 948.56 606.97 C 948.23 606.58 947.58 605.78 947.26 605.39 L 946.98 605.49 C 945.75 603.77 944.35 602.20 943.08 600.54 L 942.31 600.58 L 942.76 599.48 L 941.90 599.41 C 940.98 598.13 940.02 596.90 939.10 595.64 L 938.27 595.58 L 938.56 594.81 C 938.24 594.55 937.61 594.03 937.29 593.77 C 936.19 592.39 935.09 591.04 934.07 589.63 L 933.27 589.53 L 933.54 588.85 C 933.21 588.50 932.54 587.79 932.21 587.44 L 931.90 587.38 C 930.82 585.87 929.60 584.47 928.34 583.13 L 928.63 582.79 C 928.29 582.45 927.62 581.77 927.29 581.43 L 926.97 581.46 C 925.77 579.85 924.46 578.35 923.16 576.85 C 922.98 576.56 922.60 575.99 922.41 575.71 C 921.22 574.40 920.07 573.07 919.04 571.66 L 918.32 571.56 L 918.46 570.87 C 918.15 570.51 917.54 569.77 917.23 569.41 L 916.97 569.46 C 915.76 567.83 914.43 566.32 913.08 564.83 C 912.89 564.47 912.50 563.74 912.30 563.38 L 911.97 563.43 C 910.76 561.82 909.43 560.32 908.07 558.86 C 907.89 558.49 907.54 557.74 907.36 557.37 L 906.98 557.42 C 905.77 555.79 904.42 554.28 903.01 552.84 C 902.83 552.46 902.47 551.71 902.29 551.34 L 901.96 551.48 C 900.78 549.82 899.45 548.31 898.06 546.85 C 897.86 546.48 897.47 545.73 897.27 545.35 L 896.96 545.47 C 895.76 543.83 894.42 542.30 893.05 540.82 C 892.86 540.44 892.50 539.70 892.31 539.33 L 891.97 539.51 C 890.78 537.85 889.44 536.33 888.05 534.86 C 887.86 534.49 887.47 533.74 887.28 533.36 L 886.96 533.45 C 885.76 531.82 884.43 530.31 883.03 528.86 C 882.86 528.49 882.50 527.73 882.32 527.35 L 881.89 527.46 C 880.96 526.18 879.98 524.93 879.08 523.65 L 878.29 523.56 L 878.50 522.86 C 878.18 522.50 877.53 521.76 877.21 521.40 L 876.96 521.50 C 875.78 519.89 874.47 518.39 873.15 516.91 C 872.95 516.61 872.55 516.02 872.35 515.72 C 871.19 514.40 870.06 513.05 869.05 511.63 L 868.32 511.61 L 868.62 510.54 C 868.05 510.47 866.92 510.33 866.36 510.25 C 866.67 548.98 866.45 587.73 866.47 626.46 C 854.82 626.44 843.17 626.48 831.53 626.44 C 831.44 554.28 831.55 482.11 831.47 409.95 C 832.60 410.78 833.68 411.68 834.75 412.62 L 834.60 413.09 C 834.91 413.49 835.53 414.27 835.84 414.66 L 836.09 414.52 C 837.71 416.82 839.68 418.85 841.65 420.86 L 841.31 421.61 L 842.10 421.54 C 843.54 423.62 845.39 425.37 846.90 427.40 L 847.24 427.37 C 847.44 427.75 847.86 428.50 848.06 428.88 C 849.45 430.32 850.80 431.82 851.99 433.45 L 852.83 433.48 L 852.38 434.18 C 852.73 434.52 853.44 435.20 853.79 435.54 L 854.05 435.53 C 855.39 437.48 857.04 439.19 858.70 440.88 L 858.43 441.15 C 858.75 441.51 859.38 442.23 859.70 442.59 L 860.02 442.55 C 861.29 444.21 862.68 445.80 863.97 447.46 L 864.26 447.46 C 864.60 447.81 865.27 448.52 865.61 448.87 L 865.22 449.54 L 866.09 449.56 C 867.00 450.84 867.98 452.07 868.92 453.35 L 869.67 453.44 L 869.48 454.69 L 870.22 454.35 C 870.53 454.73 871.16 455.49 871.48 455.88 L 871.27 456.58 L 872.49 456.49 L 872.30 457.65 L 873.04 457.69 C 873.96 458.95 874.93 460.18 875.86 461.46 L 876.63 461.45 L 876.33 462.57 L 877.09 462.57 C 878.58 464.61 880.42 466.37 881.90 468.43 L 882.64 468.39 L 882.29 469.51 L 883.04 469.54 C 884.41 471.48 886.06 473.18 887.72 474.88 L 887.31 475.27 C 887.64 475.60 888.30 476.27 888.64 476.61 L 889.02 476.56 C 890.30 478.21 891.68 479.79 892.98 481.44 L 893.80 481.46 L 893.37 482.21 C 893.69 482.56 894.34 483.26 894.67 483.61 L 895.03 483.56 C 896.30 485.22 897.68 486.80 898.96 488.46 L 899.23 488.45 C 899.57 488.80 900.26 489.49 900.60 489.83 L 900.29 490.11 C 902.02 491.94 903.75 493.79 905.34 495.77 C 905.65 496.03 906.27 496.54 906.58 496.80 L 906.32 497.14 C 907.78 498.72 909.23 500.31 910.71 501.88 L 910.38 502.16 C 910.73 502.51 911.42 503.21 911.77 503.56 L 912.46 503.36 L 912.34 504.18 C 913.81 505.73 915.25 507.32 916.71 508.91 L 916.32 509.26 C 916.65 509.61 917.32 510.29 917.65 510.63 L 918.46 510.35 L 918.33 511.19 C 919.79 512.74 921.24 514.32 922.70 515.89 L 922.41 516.13 C 922.74 516.49 923.40 517.22 923.73 517.58 L 924.02 517.55 C 925.30 519.21 926.70 520.78 927.98 522.46 L 928.34 522.37 C 928.64 522.73 929.26 523.45 929.56 523.81 L 929.27 524.54 L 930.02 524.61 C 931.31 526.24 932.70 527.79 933.98 529.45 L 934.77 529.49 L 934.33 530.62 L 935.10 530.54 C 936.70 532.85 938.71 534.83 940.65 536.85 L 940.38 537.60 L 941.14 537.54 C 942.05 538.81 943.01 540.04 943.95 541.31 L 944.70 541.37 L 944.54 542.54 L 945.78 542.42 L 945.51 543.15 C 945.85 543.51 946.52 544.25 946.85 544.61 L 947.54 544.35 L 947.30 545.55 L 948.11 545.64 C 948.31 548.41 952.69 548.36 952.81 545.57 L 953.66 545.58 L 953.36 544.42 L 954.10 544.44 C 954.71 543.62 955.35 542.82 956.01 542.03 C 957.02 540.91 957.98 539.75 958.89 538.54 L 959.64 538.58 L 959.22 537.47 L 960.01 537.46 C 961.22 535.84 962.56 534.33 963.95 532.86 C 964.14 532.48 964.52 531.73 964.71 531.35 L 965.04 531.48 C 966.31 529.81 967.70 528.23 968.98 526.57 L 969.79 526.52 L 969.34 525.37 L 970.10 525.50 C 971.55 523.41 973.40 521.64 974.91 519.60 L 975.30 519.62 C 975.50 519.26 975.89 518.52 976.09 518.15 C 977.42 516.66 978.75 515.17 979.98 513.59 L 980.24 513.49 C 980.59 513.16 981.29 512.50 981.64 512.17 L 981.30 511.89 C 982.59 510.56 983.83 509.17 984.93 507.66 L 985.74 507.56 L 985.45 506.83 C 985.77 506.48 986.40 505.76 986.72 505.40 L 987.03 505.48 C 988.35 503.63 989.89 501.94 991.42 500.26 C 991.60 499.99 991.95 499.46 992.13 499.19 C 993.45 497.68 994.77 496.17 995.98 494.56 L 996.30 494.56 C 996.64 494.22 997.32 493.52 997.66 493.17 L 997.22 492.48 L 998.04 492.45 C 999.31 490.77 1000.68 489.18 1001.95 487.51 L 1002.19 487.62 C 1002.50 487.25 1003.13 486.51 1003.44 486.14 L 1003.34 485.82 C 1004.64 484.47 1005.89 483.07 1006.97 481.54 L 1007.24 481.55 C 1007.57 481.20 1008.22 480.50 1008.55 480.15 L 1008.21 479.46 L 1009.45 479.55 L 1009.31 478.38 L 1010.04 478.30 C 1010.96 477.05 1011.94 475.84 1012.87 474.58 L 1013.23 474.63 C 1013.43 474.26 1013.82 473.52 1014.01 473.15 C 1015.34 471.73 1016.63 470.29 1017.99 468.89 C 1018.18 468.50 1018.56 467.72 1018.75 467.33 L 1019.10 467.43 C 1020.02 466.19 1021.00 464.99 1021.96 463.77 L 1022.61 463.70 L 1022.54 462.57 L 1023.69 462.52 L 1023.55 461.84 C 1023.85 461.48 1024.45 460.75 1024.76 460.39 L 1025.04 460.45 C 1026.30 458.77 1027.68 457.18 1028.96 455.52 L 1029.32 455.63 C 1029.51 455.27 1029.89 454.55 1030.08 454.19 C 1031.43 452.69 1032.76 451.17 1033.97 449.54 L 1034.77 449.49 L 1034.35 448.76 C 1034.68 448.52 1035.33 448.03 1035.66 447.78 C 1036.76 446.42 1037.87 445.07 1038.92 443.66 L 1039.70 443.57 L 1039.52 442.87 C 1039.83 442.50 1040.47 441.76 1040.79 441.39 L 1041.04 441.50 C 1042.30 439.82 1043.67 438.24 1044.96 436.59 L 1045.20 436.52 C 1045.54 436.18 1046.20 435.49 1046.53 435.15 L 1046.32 434.85 C 1047.62 433.54 1048.86 432.16 1049.94 430.64 L 1050.74 430.56 L 1050.46 429.86 C 1050.80 429.52 1051.46 428.82 1051.79 428.47 L 1052.04 428.43 C 1053.32 426.77 1054.69 425.19 1055.96 423.52 L 1056.33 423.64 C 1056.52 423.25 1056.89 422.48 1057.08 422.09 C 1058.46 420.66 1059.79 419.18 1060.99 417.58 L 1061.79 417.54 L 1061.34 416.79 C 1061.68 416.45 1062.36 415.77 1062.70 415.43 L 1063.02 415.42 C 1064.18 413.81 1065.52 412.34 1066.92 410.93 C 1067.12 410.54 1067.53 409.75 1067.73 409.35 L 1068.58 409.32 C 1068.56 408.93 1068.51 408.15 1068.49 407.76 Z" />
<path fill="#ffffff" opacity="1.00" d=" M 440.33 411.08 C 440.74 410.55 441.55 409.49 441.96 408.96 C 442.43 409.50 443.38 410.58 443.85 411.12 C 443.65 411.40 443.26 411.97 443.06 412.26 L 444.57 412.32 L 444.28 413.57 L 445.49 413.64 C 445.43 414.10 445.32 415.02 445.26 415.48 L 446.51 415.63 C 446.47 416.08 446.37 416.99 446.32 417.45 L 447.60 417.63 C 447.57 417.96 447.52 418.63 447.49 418.96 C 448.67 420.49 449.59 422.21 450.57 423.89 L 450.39 424.75 L 451.59 424.60 C 451.53 424.96 451.41 425.68 451.35 426.05 C 452.09 427.01 452.83 427.98 453.58 428.96 C 453.53 429.31 453.44 430.01 453.39 430.36 L 454.70 430.55 C 454.64 431.01 454.53 431.93 454.47 432.39 L 455.70 432.40 L 455.35 433.66 L 456.51 433.64 C 456.47 434.09 456.37 434.98 456.32 435.43 L 457.62 435.62 C 457.54 436.07 457.37 436.96 457.29 437.41 L 458.65 437.62 C 458.61 437.96 458.52 438.63 458.48 438.97 C 459.62 440.24 460.37 441.76 460.90 443.38 L 461.72 443.40 L 461.38 444.67 L 462.15 444.58 C 462.66 446.19 463.46 447.69 464.56 448.98 C 464.53 449.33 464.46 450.02 464.43 450.36 L 465.72 450.54 C 465.66 451.01 465.53 451.93 465.46 452.40 L 466.67 452.34 L 466.33 453.57 L 467.46 453.63 C 467.43 454.08 467.37 454.98 467.33 455.43 L 468.65 455.65 C 468.57 456.08 468.40 456.95 468.32 457.38 L 469.66 457.59 C 469.61 458.03 469.50 458.91 469.45 459.35 L 470.69 459.56 C 470.64 460.01 470.53 460.92 470.48 461.37 L 471.71 461.45 L 471.37 462.79 L 472.62 462.56 C 472.53 463.03 472.34 463.95 472.25 464.41 L 473.58 464.64 C 473.52 465.07 473.42 465.93 473.36 466.36 L 474.60 466.62 C 474.55 467.05 474.45 467.91 474.39 468.35 L 475.69 468.61 C 475.63 469.05 475.49 469.94 475.43 470.39 L 476.28 470.29 C 476.76 471.40 477.23 472.52 477.72 473.64 L 478.57 473.64 C 478.50 474.08 478.35 474.96 478.28 475.40 L 479.64 475.61 C 479.57 476.06 479.43 476.94 479.36 477.39 L 480.68 477.61 C 480.63 478.04 480.51 478.90 480.45 479.33 L 481.57 479.41 L 481.31 480.61 L 482.48 480.62 C 482.43 481.10 482.34 482.05 482.30 482.52 L 483.56 482.58 C 483.51 483.04 483.42 483.94 483.37 484.39 L 484.63 484.65 C 484.57 485.08 484.43 485.93 484.36 486.36 L 485.65 486.61 C 485.58 487.05 485.46 487.92 485.40 488.36 L 486.73 488.60 C 486.64 489.06 486.46 489.98 486.37 490.44 L 487.61 490.21 L 487.31 491.54 L 488.50 491.63 C 488.45 492.08 488.36 492.98 488.31 493.43 L 489.60 493.64 C 489.53 494.08 489.40 494.96 489.33 495.40 L 490.67 495.59 C 490.61 496.03 490.47 496.92 490.41 497.36 L 491.70 497.60 C 491.64 498.04 491.52 498.91 491.46 499.35 L 492.60 499.34 L 492.28 500.59 L 493.47 500.60 C 493.44 501.09 493.37 502.07 493.33 502.55 L 494.19 502.55 C 494.61 504.20 495.50 505.68 496.59 506.99 C 496.55 507.35 496.47 508.06 496.43 508.42 L 497.65 508.30 L 497.26 509.59 L 498.14 509.57 C 498.62 510.88 499.17 512.18 499.68 513.49 L 500.63 513.64 C 500.55 514.08 500.38 514.94 500.29 515.38 L 501.67 515.60 C 501.62 515.95 501.52 516.65 501.47 516.99 C 502.19 517.93 502.91 518.88 503.63 519.83 L 503.38 520.76 L 504.61 520.57 C 504.53 521.03 504.36 521.95 504.28 522.41 L 505.61 522.64 C 505.56 522.99 505.46 523.68 505.41 524.02 C 506.15 524.99 506.89 525.97 507.64 526.95 C 507.58 527.31 507.45 528.04 507.38 528.40 L 508.16 528.27 C 508.75 529.64 509.55 530.88 510.44 532.08 C 510.42 532.40 510.37 533.03 510.35 533.35 L 511.65 533.62 C 511.58 534.06 511.45 534.93 511.38 535.37 L 512.73 535.59 C 512.65 536.03 512.49 536.92 512.41 537.36 L 513.29 537.35 C 513.76 538.48 514.24 539.60 514.73 540.74 L 515.65 540.59 C 515.56 541.03 515.37 541.92 515.27 542.37 L 516.14 542.61 C 516.49 543.21 517.20 544.43 517.55 545.03 C 517.52 545.37 517.46 546.04 517.43 546.37 L 518.28 546.34 C 518.75 547.44 519.23 548.56 519.70 549.67 L 520.52 549.65 C 520.47 550.09 520.37 550.96 520.32 551.40 L 521.59 551.63 C 521.52 552.07 521.37 552.94 521.30 553.38 L 522.66 553.61 C 522.60 554.04 522.48 554.91 522.42 555.34 L 523.27 555.50 C 523.57 556.10 524.18 557.30 524.48 557.90 L 524.44 558.66 L 525.58 558.60 C 525.50 559.05 525.34 559.97 525.26 560.43 L 526.61 560.62 C 526.55 561.06 526.43 561.94 526.37 562.38 L 527.26 562.54 C 527.76 563.85 528.32 565.14 528.83 566.47 L 529.71 566.52 C 529.65 566.99 529.55 567.94 529.50 568.42 L 530.76 568.34 L 530.39 569.61 L 531.62 569.62 C 531.54 570.06 531.38 570.93 531.30 571.37 L 532.62 571.62 C 532.56 572.06 532.44 572.95 532.38 573.39 L 533.70 573.56 C 533.63 574.01 533.49 574.90 533.42 575.35 L 534.73 575.57 C 534.67 576.02 534.55 576.92 534.49 577.38 L 535.64 577.37 L 535.30 578.64 L 536.54 578.61 C 536.48 579.07 536.36 579.97 536.30 580.42 L 537.17 580.59 C 538.00 582.55 539.15 584.37 539.90 586.38 L 540.70 586.42 L 540.34 587.72 L 541.15 587.56 C 541.59 589.21 542.41 590.72 543.54 592.01 C 543.50 592.35 543.41 593.02 543.37 593.36 L 544.70 593.56 C 544.65 594.02 544.53 594.93 544.48 595.39 L 545.65 595.39 L 545.38 596.67 L 546.56 596.61 C 546.48 597.07 546.34 597.98 546.26 598.43 L 547.61 598.62 C 547.54 599.07 547.39 599.97 547.32 600.42 L 548.66 600.61 C 548.60 600.96 548.48 601.65 548.42 601.99 C 549.16 602.96 549.90 603.94 550.65 604.92 C 550.60 605.28 550.50 606.01 550.45 606.37 L 551.69 606.37 L 551.38 607.60 L 552.15 607.61 C 552.66 608.89 553.23 610.16 553.75 611.47 L 554.67 611.60 C 554.60 612.05 554.47 612.94 554.40 613.38 L 555.72 613.57 C 555.66 614.02 555.53 614.92 555.46 615.37 L 556.64 615.37 L 556.38 616.64 L 557.52 616.61 C 557.47 617.06 557.35 617.97 557.29 618.42 L 558.64 618.62 C 558.57 619.06 558.42 619.95 558.35 620.39 L 559.67 620.61 C 559.61 621.05 559.49 621.92 559.43 622.36 L 560.67 622.42 L 560.17 623.61 L 561.33 623.47 C 561.41 624.23 561.56 625.75 561.64 626.51 C 547.57 626.38 533.50 626.49 519.43 626.45 L 519.68 625.27 L 518.40 625.45 C 518.48 624.98 518.63 624.04 518.71 623.57 L 517.42 623.37 C 517.48 622.93 517.59 622.05 517.64 621.61 L 516.41 621.34 C 516.47 620.90 516.59 620.04 516.64 619.61 L 515.32 619.39 C 515.41 618.95 515.58 618.07 515.67 617.63 L 514.32 617.41 C 514.38 616.96 514.51 616.06 514.58 615.61 L 513.30 615.42 C 513.37 614.98 513.51 614.09 513.58 613.65 L 512.32 613.43 C 512.38 612.98 512.51 612.08 512.58 611.64 L 511.24 611.42 C 511.33 610.97 511.51 610.07 511.60 609.63 L 510.69 609.68 C 510.23 608.55 509.78 607.42 509.32 606.30 L 508.46 606.38 C 508.53 605.92 508.66 605.00 508.73 604.54 L 507.50 604.36 C 507.51 604.02 507.52 603.35 507.53 603.01 C 507.19 602.40 506.53 601.17 506.19 600.56 L 505.45 600.31 C 505.51 599.88 505.62 599.01 505.68 598.58 L 504.38 598.37 C 504.46 597.93 504.62 597.03 504.70 596.58 L 503.39 596.40 C 503.41 596.06 503.45 595.39 503.47 595.05 C 503.12 594.45 502.44 593.23 502.10 592.62 L 501.32 592.39 C 501.39 591.95 501.54 591.07 501.62 590.63 L 500.28 590.44 C 500.35 589.99 500.51 589.08 500.58 588.63 L 499.28 588.44 C 499.35 587.99 499.48 587.09 499.55 586.64 L 498.31 586.45 C 498.36 585.99 498.48 585.07 498.54 584.62 L 497.27 584.50 C 497.34 584.02 497.47 583.04 497.54 582.56 L 496.33 582.69 L 496.51 581.90 C 496.18 581.28 495.50 580.05 495.16 579.44 C 459.55 579.32 423.93 579.44 388.32 579.38 L 388.50 580.51 L 387.35 580.52 C 387.38 580.97 387.43 581.87 387.46 582.32 L 386.32 582.44 L 386.65 583.72 L 385.85 583.57 C 385.39 585.22 384.52 586.70 383.45 588.02 C 383.48 588.35 383.56 589.01 383.60 589.34 L 382.30 589.58 C 382.36 590.03 382.49 590.94 382.56 591.39 L 381.28 591.52 C 381.34 591.99 381.46 592.92 381.52 593.39 L 380.32 593.36 L 380.70 594.61 L 379.49 594.60 C 379.55 595.07 379.65 595.99 379.71 596.46 L 378.40 596.64 C 378.44 596.98 378.51 597.65 378.55 597.99 C 377.47 599.29 376.61 600.78 376.16 602.42 L 375.72 602.30 C 375.24 603.40 374.77 604.50 374.30 605.61 L 373.89 605.66 C 373.37 606.94 372.80 608.19 372.29 609.48 L 371.35 609.63 C 371.41 610.06 371.54 610.92 371.60 611.35 L 370.29 611.63 C 370.35 612.07 370.48 612.95 370.55 613.39 L 369.39 613.34 L 369.71 614.61 L 368.51 614.60 C 368.55 615.08 368.64 616.03 368.69 616.51 L 367.43 616.62 C 367.50 617.07 367.63 617.96 367.70 618.40 L 366.79 618.56 C 366.30 619.86 365.75 621.15 365.25 622.46 L 364.29 622.61 C 364.37 623.06 364.54 623.96 364.62 624.41 L 363.83 624.30 C 363.52 624.71 362.91 625.52 362.61 625.92 L 362.66 626.51 C 349.76 626.40 336.86 626.47 323.96 626.47 C 324.23 625.27 324.50 624.08 324.86 622.91 C 325.20 622.45 325.87 621.54 326.20 621.09 C 326.81 619.67 327.61 618.36 328.55 617.15 L 328.34 616.31 L 329.17 616.47 C 329.70 615.16 330.30 613.89 330.84 612.61 L 331.61 612.62 L 331.31 611.37 L 332.53 611.39 C 332.47 610.94 332.36 610.03 332.31 609.57 L 333.56 609.37 C 333.55 609.04 333.54 608.38 333.54 608.06 C 333.89 607.47 334.59 606.30 334.94 605.71 L 335.62 605.61 L 335.33 604.36 L 336.07 604.35 C 336.43 603.74 337.14 602.53 337.50 601.92 C 337.49 601.61 337.47 600.98 337.46 600.67 L 338.28 600.61 C 338.77 599.50 339.25 598.41 339.74 597.32 L 340.20 597.43 C 340.73 596.15 341.31 594.89 341.85 593.62 L 342.61 593.61 L 342.30 592.35 L 343.12 592.44 C 343.63 591.28 344.19 590.14 344.76 589.01 C 345.53 587.83 346.27 586.63 346.83 585.34 L 347.68 585.38 C 347.60 585.03 347.45 584.33 347.37 583.99 C 347.80 583.50 348.67 582.53 349.10 582.05 C 349.38 581.15 349.66 580.25 349.93 579.36 C 341.79 579.41 333.65 579.40 325.51 579.38 C 325.45 568.40 325.50 557.43 325.48 546.45 C 339.21 546.44 352.93 546.36 366.65 546.49 L 366.61 545.90 C 366.91 545.51 367.51 544.72 367.80 544.32 L 368.59 544.39 C 368.51 543.94 368.36 543.04 368.29 542.58 L 369.20 542.44 C 369.85 540.37 371.19 538.62 371.87 536.57 L 372.64 536.74 L 372.39 535.83 C 373.08 534.87 373.79 533.91 374.50 532.96 C 374.45 532.62 374.35 531.95 374.30 531.62 L 375.63 531.37 C 375.56 530.93 375.42 530.06 375.35 529.62 L 376.29 529.49 C 376.80 528.18 377.36 526.90 377.86 525.59 L 378.68 525.58 L 378.36 524.27 L 379.60 524.40 C 379.52 523.95 379.36 523.05 379.28 522.60 L 380.59 522.36 C 380.53 521.93 380.41 521.05 380.34 520.62 L 381.62 520.37 C 381.55 519.93 381.42 519.05 381.35 518.60 L 382.68 518.43 C 382.61 517.98 382.47 517.08 382.40 516.63 L 383.73 516.41 C 383.66 515.97 383.51 515.08 383.43 514.64 L 384.57 514.66 L 384.33 513.44 L 385.45 513.37 C 385.42 512.89 385.38 511.94 385.36 511.47 L 386.62 511.37 C 386.55 510.94 386.42 510.07 386.35 509.64 L 387.28 509.46 C 387.77 508.15 388.32 506.86 388.81 505.56 L 389.69 505.41 C 389.63 504.97 389.52 504.08 389.46 503.63 L 390.68 503.65 L 390.39 502.42 L 391.03 502.27 C 391.39 501.69 392.09 500.51 392.44 499.92 C 392.43 499.59 392.40 498.93 392.38 498.60 L 393.67 498.40 C 393.60 497.96 393.45 497.07 393.38 496.63 L 394.70 496.43 C 394.64 495.98 394.51 495.09 394.45 494.65 L 395.70 494.42 C 395.64 493.98 395.52 493.08 395.46 492.64 L 396.66 492.68 L 396.27 491.39 L 397.07 491.37 C 397.40 490.75 398.06 489.51 398.39 488.89 C 398.41 488.66 398.43 488.19 398.45 487.96 C 399.17 486.98 399.90 486.00 400.65 485.03 C 400.58 484.67 400.44 483.96 400.38 483.60 L 401.29 483.71 C 401.75 482.58 402.22 481.44 402.70 480.31 L 403.58 480.36 C 403.50 479.92 403.35 479.04 403.28 478.60 L 404.58 478.37 C 404.55 478.03 404.50 477.35 404.47 477.01 C 405.58 475.73 406.40 474.23 406.88 472.61 L 407.65 472.66 L 407.30 471.38 L 408.52 471.38 C 408.47 470.92 408.36 470.00 408.31 469.55 L 409.53 469.33 C 409.49 468.90 409.39 468.03 409.34 467.60 L 410.61 467.35 C 410.53 466.91 410.38 466.03 410.31 465.59 L 411.66 465.40 C 411.60 464.95 411.46 464.07 411.40 463.62 L 412.69 463.41 C 412.63 462.97 412.52 462.11 412.46 461.67 L 413.61 461.63 L 413.30 460.38 L 414.53 460.38 C 414.47 459.92 414.35 459.00 414.30 458.54 L 415.60 458.36 C 415.56 458.02 415.48 457.34 415.44 457.00 C 416.49 455.67 417.30 454.18 417.81 452.56 L 418.72 452.40 C 418.64 451.95 418.50 451.06 418.42 450.61 L 419.61 450.71 L 419.36 449.47 L 420.02 449.28 C 420.37 448.68 421.07 447.48 421.42 446.88 C 421.41 446.56 421.38 445.92 421.37 445.60 L 422.67 445.38 C 422.59 444.94 422.43 444.06 422.36 443.62 L 423.67 443.42 C 423.61 442.98 423.50 442.10 423.45 441.66 L 424.68 441.40 C 424.63 440.96 424.52 440.09 424.46 439.65 L 425.66 439.68 L 425.29 438.41 L 426.05 438.34 C 426.39 437.73 427.07 436.50 427.41 435.89 C 427.41 435.57 427.39 434.94 427.39 434.62 L 428.65 434.37 C 428.57 433.93 428.43 433.05 428.36 432.61 L 429.69 432.44 C 429.62 431.99 429.50 431.09 429.44 430.64 L 430.73 430.43 C 430.67 429.99 430.54 429.10 430.48 428.65 L 431.60 428.61 L 431.32 427.37 L 432.52 427.37 C 432.46 426.92 432.35 426.00 432.29 425.54 L 433.18 425.43 C 433.90 423.41 435.17 421.63 435.82 419.59 L 436.28 419.67 C 436.75 418.55 437.23 417.43 437.72 416.32 L 438.55 416.33 C 438.49 415.90 438.35 415.03 438.29 414.60 L 439.55 414.39 C 439.50 413.94 439.41 413.04 439.37 412.58 L 440.81 412.31 C 440.69 412.00 440.45 411.39 440.33 411.08 M 440.02 476.39 C 439.68 477.71 439.16 478.97 438.46 480.15 C 438.48 480.44 438.53 481.02 438.55 481.32 L 437.72 481.34 C 437.24 482.45 436.77 483.57 436.30 484.69 L 435.86 484.61 C 435.21 486.65 433.97 488.43 433.22 490.44 L 432.26 490.62 C 432.35 491.06 432.53 491.94 432.62 492.38 L 431.78 492.37 C 430.94 494.14 430.05 495.89 429.23 497.67 L 428.39 497.61 C 428.45 497.98 428.58 498.70 428.65 499.06 C 427.90 500.03 427.16 501.01 426.43 501.99 C 426.48 502.34 426.59 503.02 426.64 503.36 L 425.30 503.58 C 425.37 504.03 425.51 504.92 425.58 505.37 L 424.29 505.54 C 424.34 506.00 424.45 506.93 424.51 507.39 L 423.33 507.40 L 423.69 508.65 L 422.46 508.59 C 422.53 509.06 422.66 510.00 422.73 510.47 L 421.85 510.58 C 421.01 512.87 419.84 515.03 418.39 516.99 C 418.44 517.34 418.54 518.06 418.59 518.41 L 417.72 518.24 C 417.24 519.36 416.77 520.49 416.31 521.63 L 415.43 521.66 C 415.51 522.10 415.66 522.98 415.73 523.42 L 414.41 523.63 C 414.47 524.08 414.60 524.96 414.67 525.41 L 413.72 525.54 C 413.22 526.83 412.67 528.10 412.18 529.40 L 411.32 529.56 C 411.37 530.02 411.46 530.94 411.50 531.41 L 410.27 531.35 L 410.69 532.61 L 409.53 532.65 C 409.57 533.11 409.63 534.02 409.67 534.47 L 408.44 534.64 C 408.51 535.09 408.65 535.99 408.72 536.44 L 407.38 536.63 C 407.43 536.97 407.52 537.65 407.56 537.99 C 406.42 539.28 405.66 540.81 405.12 542.44 L 404.31 542.40 L 404.89 543.75 C 404.63 543.58 404.10 543.24 403.83 543.08 C 403.67 543.93 403.52 544.79 403.37 545.65 C 428.75 545.60 454.14 545.61 479.52 545.64 C 479.48 545.09 479.38 543.97 479.33 543.42 L 478.21 543.61 L 478.64 542.38 L 477.46 542.32 C 477.48 542.00 477.53 541.36 477.55 541.04 C 477.21 540.41 476.52 539.16 476.17 538.54 L 475.34 538.40 C 475.40 537.94 475.53 537.04 475.59 536.59 L 474.25 536.43 C 474.33 535.99 474.48 535.09 474.55 534.65 L 473.69 534.67 C 473.21 533.53 472.74 532.41 472.27 531.28 L 471.39 531.46 C 471.47 530.99 471.62 530.07 471.70 529.61 L 470.43 529.35 C 470.49 528.91 470.61 528.05 470.66 527.61 L 469.39 527.35 C 469.46 526.91 469.60 526.04 469.67 525.60 L 468.31 525.40 C 468.38 524.96 468.53 524.07 468.60 523.63 L 467.32 523.47 C 467.36 523.01 467.43 522.10 467.46 521.64 L 466.32 521.57 L 466.65 520.34 L 465.46 520.39 C 465.53 519.93 465.66 519.00 465.72 518.54 L 464.41 518.38 C 464.45 518.03 464.52 517.33 464.56 516.97 C 463.50 515.66 462.69 514.16 462.22 512.55 L 461.28 512.40 C 461.36 511.95 461.53 511.05 461.62 510.61 L 460.71 510.72 C 460.23 509.58 459.75 508.44 459.27 507.31 L 458.43 507.36 C 458.50 506.92 458.66 506.02 458.74 505.58 L 457.39 505.39 C 457.46 504.94 457.60 504.04 457.68 503.58 L 456.35 503.37 C 456.42 502.94 456.57 502.07 456.64 501.63 L 455.38 501.39 C 455.43 500.95 455.53 500.08 455.58 499.64 L 454.27 499.40 C 454.36 498.95 454.54 498.05 454.63 497.60 L 453.70 497.72 C 453.22 496.59 452.75 495.46 452.28 494.34 L 451.43 494.34 C 451.50 493.90 451.65 493.02 451.72 492.58 L 450.38 492.37 C 450.46 491.93 450.60 491.05 450.67 490.61 L 449.75 490.44 C 449.27 489.27 448.74 488.11 448.24 486.97 C 447.42 485.81 446.72 484.57 446.19 483.26 L 445.94 483.28 C 445.58 482.68 444.87 481.48 444.52 480.87 C 444.57 480.55 444.67 479.90 444.73 479.57 L 443.59 479.58 C 443.50 478.80 443.32 477.23 443.23 476.44 C 442.15 476.40 441.09 476.38 440.02 476.39 Z" />
<path fill="#ffffff" opacity="1.00" d=" M 156.00 721.16 C 170.82 718.41 185.96 718.03 201.00 718.17 C 214.31 718.27 227.63 717.84 240.93 718.63 C 251.46 719.19 262.30 719.75 272.13 723.93 C 277.67 726.25 282.73 730.35 284.96 736.07 C 288.19 744.09 288.23 752.93 288.19 761.45 C 276.04 761.48 263.90 761.44 251.75 761.46 C 251.66 758.30 252.11 754.70 249.92 752.09 C 247.70 749.72 244.32 749.10 241.24 748.75 C 226.85 747.78 212.43 748.14 198.03 748.11 C 190.36 748.60 182.48 747.84 175.02 750.05 C 171.92 750.88 169.05 752.98 167.92 756.07 C 164.92 763.67 165.75 772.02 165.64 780.02 C 165.76 788.15 165.01 796.51 167.35 804.42 C 168.36 808.09 171.30 811.10 175.00 812.06 C 182.49 814.17 190.34 813.11 198.01 813.41 C 205.98 813.80 213.97 813.74 221.94 813.39 C 229.78 813.10 237.76 814.17 245.47 812.29 C 248.19 811.54 251.27 810.21 252.22 807.29 C 253.31 803.61 253.14 799.71 253.19 795.93 C 237.07 795.92 220.95 795.93 204.84 795.92 C 204.86 788.03 204.80 780.14 204.87 772.24 C 232.73 772.43 260.59 772.25 288.45 772.33 C 288.43 784.55 288.09 796.76 287.45 808.97 C 287.02 815.59 286.33 822.67 282.20 828.16 C 277.84 834.50 270.32 837.64 263.02 839.10 C 244.93 842.73 226.38 842.17 208.03 842.20 C 199.70 842.13 191.36 842.42 183.04 841.85 C 169.63 841.40 155.32 841.52 143.28 834.77 C 135.91 830.69 131.85 822.58 130.77 814.47 C 128.25 797.07 128.86 779.40 129.44 761.89 C 129.97 751.82 130.61 741.03 136.53 732.46 C 141.01 726.06 148.44 722.43 156.00 721.16 Z" />
<path fill="#ffffff" opacity="1.00" d=" M 779.57 718.77 C 793.71 717.85 807.91 717.38 822.06 718.16 C 836.86 718.17 851.66 718.12 866.44 718.76 C 876.69 719.63 887.91 720.94 895.96 728.01 C 903.30 735.24 904.52 746.11 905.33 755.86 C 906.53 773.27 906.38 790.75 905.11 808.14 C 904.25 816.66 902.57 825.94 896.11 832.13 C 890.88 837.50 883.30 839.49 876.09 840.39 C 857.49 842.98 838.68 842.02 819.97 842.20 C 810.32 842.08 800.67 842.49 791.04 841.87 C 778.76 841.75 765.73 841.37 754.76 835.20 C 746.65 830.51 743.39 820.91 742.39 812.09 C 741.41 802.76 740.71 793.36 741.05 783.98 C 740.96 770.60 740.78 757.08 743.27 743.87 C 744.78 736.02 748.83 728.02 756.25 724.30 C 763.35 720.31 771.63 719.62 779.57 718.77 M 800.26 749.30 C 793.54 749.81 785.19 749.75 780.83 755.80 C 776.59 763.08 777.88 771.91 777.65 779.98 C 777.92 787.87 776.45 796.37 780.33 803.65 C 781.76 806.63 784.85 808.27 787.94 809.04 C 798.41 811.77 809.32 811.09 820.02 811.17 C 827.37 811.10 834.72 811.37 842.05 810.84 C 849.23 810.79 856.91 811.04 863.39 807.45 C 868.63 804.23 869.27 797.44 869.68 791.89 C 869.63 781.74 870.25 771.48 868.28 761.47 C 867.51 757.34 865.30 753.04 861.11 751.58 C 855.03 749.39 848.43 749.57 842.06 749.21 C 828.13 749.23 814.19 749.08 800.26 749.30 Z" />
<path fill="#ffffff" opacity="1.00" d=" M 317.63 719.75 C 345.41 719.77 373.19 719.75 400.97 719.76 C 414.81 719.80 428.68 719.42 442.48 720.80 C 451.71 721.92 461.47 724.94 467.47 732.50 C 474.44 741.34 475.63 753.10 476.23 763.95 C 476.12 778.31 476.80 792.74 475.09 807.04 C 473.59 816.65 470.25 827.21 461.59 832.70 C 450.79 839.17 437.77 839.76 425.52 840.44 C 389.76 840.58 354.00 840.49 318.24 840.49 L 317.58 840.48 C 317.71 800.24 317.61 759.99 317.63 719.75 M 353.44 809.89 C 376.58 809.63 399.74 810.43 422.87 809.29 C 428.19 808.81 434.92 807.94 437.55 802.54 C 440.78 795.51 440.41 787.55 440.41 780.00 C 440.38 772.49 440.67 764.57 437.49 757.59 C 435.72 753.62 431.55 751.53 427.48 750.77 C 420.06 749.49 412.50 749.77 405.00 749.75 C 387.81 749.75 370.62 749.76 353.43 749.75 C 353.48 769.79 353.46 789.84 353.44 809.89 Z" />
<path fill="#ffffff" opacity="1.00" d=" M 566.18 840.44 C 566.44 800.17 566.11 759.90 566.34 719.64 C 590.23 719.91 614.13 719.68 638.03 719.76 C 649.01 719.88 660.01 719.44 670.98 720.11 C 681.48 720.45 692.71 718.75 702.45 723.68 C 709.81 727.24 714.16 735.10 715.15 743.01 C 716.32 752.31 716.04 761.73 715.55 771.07 C 714.98 777.32 713.23 784.07 708.17 788.23 C 704.06 791.86 698.44 792.55 693.35 793.93 C 698.55 794.56 704.17 795.15 708.33 798.67 C 712.61 802.13 714.05 807.84 714.47 813.10 C 715.14 822.20 714.57 831.33 714.89 840.44 C 702.86 840.54 690.82 840.43 678.79 840.50 C 679.56 834.65 678.89 828.76 678.51 822.91 C 678.03 818.79 677.33 813.91 673.44 811.57 C 669.98 809.62 665.83 809.82 662.00 809.66 C 642.20 809.67 622.40 809.66 602.59 809.66 C 602.75 819.90 602.41 830.16 602.79 840.41 C 590.58 840.55 578.38 840.48 566.18 840.44 M 602.84 749.76 C 602.85 759.73 602.84 769.71 602.84 779.68 C 622.56 779.67 642.27 779.73 661.99 779.65 C 666.55 779.30 671.48 779.92 675.64 777.68 C 679.49 775.20 679.60 770.07 679.65 765.99 C 679.58 761.57 680.10 756.56 677.15 752.87 C 674.57 750.10 670.46 749.99 666.95 749.77 C 645.58 749.73 624.21 749.76 602.84 749.76 Z" />
<path fill="#ffffff" opacity="1.00" d=" M 935.84 719.76 C 957.88 719.75 979.93 719.76 1001.97 719.75 C 1013.87 746.02 1025.98 772.20 1037.77 798.53 C 1050.16 772.43 1061.91 746.01 1074.01 719.76 C 1095.96 719.75 1117.92 719.77 1139.87 719.75 C 1139.88 759.98 1139.72 800.21 1139.95 840.44 C 1127.99 840.50 1116.04 840.50 1104.08 840.44 C 1104.38 810.33 1104.46 780.23 1104.97 750.13 C 1102.76 750.11 1100.57 750.11 1098.39 750.13 C 1083.29 780.24 1068.28 810.40 1053.11 840.48 C 1043.02 840.48 1032.93 840.48 1022.85 840.48 C 1007.91 810.30 992.68 780.27 977.68 750.12 C 975.39 750.11 973.11 750.11 970.84 750.12 C 970.58 764.43 971.45 778.71 971.20 793.03 C 971.56 808.83 971.35 824.64 971.77 840.44 C 959.79 840.52 947.80 840.47 935.82 840.47 C 935.86 800.23 935.83 759.99 935.84 719.76 Z" />
<path fill="#ffffff" opacity="1.00" d=" M 490.12 784.78 C 510.01 784.79 529.90 784.79 549.79 784.78 C 549.76 792.89 549.77 801.01 549.79 809.12 C 529.90 809.13 510.02 809.12 490.13 809.13 C 490.14 801.01 490.15 792.89 490.12 784.78 Z" />
</g>
<g id="#80340c87">
<path fill="#80340c" opacity="0.53" d=" M 572.26 468.16 C 574.41 464.12 575.99 459.60 579.40 456.39 C 577.85 460.37 575.51 463.96 573.61 467.77 C 556.99 501.47 557.72 543.19 575.77 576.18 C 577.98 580.68 581.19 584.61 583.29 589.18 C 582.17 588.17 581.08 587.13 580.27 585.88 C 571.38 572.31 565.16 556.99 562.23 541.04 C 557.92 516.49 561.22 490.57 572.26 468.16 Z" />
</g>
<g id="#953d0e9d">
<path fill="#953d0e" opacity="0.62" d=" M 750.67 481.29 C 753.76 483.97 754.62 488.18 756.20 491.79 C 765.41 516.41 761.56 545.14 746.82 566.80 C 746.31 567.20 745.30 568.00 744.79 568.40 C 745.57 566.95 746.35 565.51 747.21 564.11 C 755.85 550.46 760.34 534.18 759.71 518.03 C 759.96 505.21 755.77 492.87 750.67 481.29 Z" />
</g>
<g id="#6c2c0a72">
<path fill="#6c2c0a" opacity="0.45" d=" M 793.69 500.87 L 794.03 499.27 C 797.07 513.10 796.83 527.58 793.98 541.43 C 793.89 540.93 793.70 539.93 793.61 539.43 C 795.11 526.61 795.10 513.69 793.69 500.87 Z" />
</g>
<g id="#86370d8d">
<path fill="#86370d" opacity="0.55" d=" M 726.06 627.21 C 730.55 625.20 734.71 622.51 739.30 620.70 C 738.20 621.84 736.98 622.87 735.59 623.62 C 718.03 633.27 698.09 638.95 677.99 638.72 C 659.87 638.87 641.90 634.14 625.70 626.18 C 624.29 625.54 623.05 624.60 622.01 623.49 C 625.77 624.74 629.21 626.71 632.83 628.30 C 662.26 640.79 696.94 640.48 726.06 627.21 Z" />
</g>
<g id="#f05100ff">
<path fill="#f05100" opacity="1.00" d=" M 102.03 687.32 C 460.01 687.31 817.99 687.31 1175.97 687.32 C 1175.92 749.18 1175.91 811.05 1175.98 872.91 C 817.99 872.96 460.01 872.96 102.02 872.91 C 102.09 811.05 102.08 749.18 102.03 687.32 M 156.00 721.16 C 148.44 722.43 141.01 726.06 136.53 732.46 C 130.61 741.03 129.97 751.82 129.44 761.89 C 128.86 779.40 128.25 797.07 130.77 814.47 C 131.85 822.58 135.91 830.69 143.28 834.77 C 155.32 841.52 169.63 841.40 183.04 841.85 C 191.36 842.42 199.70 842.13 208.03 842.20 C 226.38 842.17 244.93 842.73 263.02 839.10 C 270.32 837.64 277.84 834.50 282.20 828.16 C 286.33 822.67 287.02 815.59 287.45 808.97 C 288.09 796.76 288.43 784.55 288.45 772.33 C 260.59 772.25 232.73 772.43 204.87 772.24 C 204.80 780.14 204.86 788.03 204.84 795.92 C 220.95 795.93 237.07 795.92 253.19 795.93 C 253.14 799.71 253.31 803.61 252.22 807.29 C 251.27 810.21 248.19 811.54 245.47 812.29 C 237.76 814.17 229.78 813.10 221.94 813.39 C 213.97 813.74 205.98 813.80 198.01 813.41 C 190.34 813.11 182.49 814.17 175.00 812.06 C 171.30 811.10 168.36 808.09 167.35 804.42 C 165.01 796.51 165.76 788.15 165.64 780.02 C 165.75 772.02 164.92 763.67 167.92 756.07 C 169.05 752.98 171.92 750.88 175.02 750.05 C 182.48 747.84 190.36 748.60 198.03 748.11 C 212.43 748.14 226.85 747.78 241.24 748.75 C 244.32 749.10 247.70 749.72 249.92 752.09 C 252.11 754.70 251.66 758.30 251.75 761.46 C 263.90 761.44 276.04 761.48 288.19 761.45 C 288.23 752.93 288.19 744.09 284.96 736.07 C 282.73 730.35 277.67 726.25 272.13 723.93 C 262.30 719.75 251.46 719.19 240.93 718.63 C 227.63 717.84 214.31 718.27 201.00 718.17 C 185.96 718.03 170.82 718.41 156.00 721.16 M 779.57 718.77 C 771.63 719.62 763.35 720.31 756.25 724.30 C 748.83 728.02 744.78 736.02 743.27 743.87 C 740.78 757.08 740.96 770.60 741.05 783.98 C 740.71 793.36 741.41 802.76 742.39 812.09 C 743.39 820.91 746.65 830.51 754.76 835.20 C 765.73 841.37 778.76 841.75 791.04 841.87 C 800.67 842.49 810.32 842.08 819.97 842.20 C 838.68 842.02 857.49 842.98 876.09 840.39 C 883.30 839.49 890.88 837.50 896.11 832.13 C 902.57 825.94 904.25 816.66 905.11 808.14 C 906.38 790.75 906.53 773.27 905.33 755.86 C 904.52 746.11 903.30 735.24 895.96 728.01 C 887.91 720.94 876.69 719.63 866.44 718.76 C 851.66 718.12 836.86 718.17 822.06 718.16 C 807.91 717.38 793.71 717.85 779.57 718.77 M 317.63 719.75 C 317.61 759.99 317.71 800.24 317.58 840.48 L 318.24 840.49 L 318.10 841.84 C 331.07 842.23 344.04 841.90 357.02 842.01 C 382.05 841.86 407.09 842.41 432.12 841.65 C 429.93 841.17 427.74 840.66 425.52 840.44 C 437.77 839.76 450.79 839.17 461.59 832.70 C 470.25 827.21 473.59 816.65 475.09 807.04 C 476.80 792.74 476.12 778.31 476.23 763.95 C 475.63 753.10 474.44 741.34 467.47 732.50 C 461.47 724.94 451.71 721.92 442.48 720.80 C 428.68 719.42 414.81 719.80 400.97 719.76 C 373.19 719.75 345.41 719.77 317.63 719.75 M 566.18 840.44 C 578.38 840.48 590.58 840.55 602.79 840.41 C 602.41 830.16 602.75 819.90 602.59 809.66 C 622.40 809.66 642.20 809.67 662.00 809.66 C 665.83 809.82 669.98 809.62 673.44 811.57 C 677.33 813.91 678.03 818.79 678.51 822.91 C 678.89 828.76 679.56 834.65 678.79 840.50 C 690.82 840.43 702.86 840.54 714.89 840.44 C 714.57 831.33 715.14 822.20 714.47 813.10 C 714.05 807.84 712.61 802.13 708.33 798.67 C 704.17 795.15 698.55 794.56 693.35 793.93 C 698.44 792.55 704.06 791.86 708.17 788.23 C 713.23 784.07 714.98 777.32 715.55 771.07 C 716.04 761.73 716.32 752.31 715.15 743.01 C 714.16 735.10 709.81 727.24 702.45 723.68 C 692.71 718.75 681.48 720.45 670.98 720.11 C 660.01 719.44 649.01 719.88 638.03 719.76 C 614.13 719.68 590.23 719.91 566.34 719.64 C 566.11 759.90 566.44 800.17 566.18 840.44 M 935.84 719.76 C 935.83 759.99 935.86 800.23 935.82 840.47 C 947.80 840.47 959.79 840.52 971.77 840.44 C 971.35 824.64 971.56 808.83 971.20 793.03 C 971.45 778.71 970.58 764.43 970.84 750.12 C 973.11 750.11 975.39 750.11 977.68 750.12 C 992.68 780.27 1007.91 810.30 1022.85 840.48 C 1032.93 840.48 1043.02 840.48 1053.11 840.48 C 1068.28 810.40 1083.29 780.24 1098.39 750.13 C 1100.57 750.11 1102.76 750.11 1104.97 750.13 C 1104.46 780.23 1104.38 810.33 1104.08 840.44 C 1116.04 840.50 1127.99 840.50 1139.95 840.44 C 1139.72 800.21 1139.88 759.98 1139.87 719.75 C 1117.92 719.77 1095.96 719.75 1074.01 719.76 C 1061.91 746.01 1050.16 772.43 1037.77 798.53 C 1025.98 772.20 1013.87 746.02 1001.97 719.75 C 979.93 719.76 957.88 719.75 935.84 719.76 M 490.12 784.78 C 490.15 792.89 490.14 801.01 490.13 809.13 C 510.02 809.12 529.90 809.13 549.79 809.12 C 549.77 801.01 549.76 792.89 549.79 784.78 C 529.90 784.79 510.01 784.79 490.12 784.78 Z" />
<path fill="#f05100" opacity="1.00" d=" M 800.26 749.30 C 814.19 749.08 828.13 749.23 842.06 749.21 C 848.43 749.57 855.03 749.39 861.11 751.58 C 865.30 753.04 867.51 757.34 868.28 761.47 C 870.25 771.48 869.63 781.74 869.68 791.89 C 869.27 797.44 868.63 804.23 863.39 807.45 C 856.91 811.04 849.23 810.79 842.05 810.84 C 834.72 811.37 827.37 811.10 820.02 811.17 C 809.32 811.09 798.41 811.77 787.94 809.04 C 784.85 808.27 781.76 806.63 780.33 803.65 C 776.45 796.37 777.92 787.87 777.65 779.98 C 777.88 771.91 776.59 763.08 780.83 755.80 C 785.19 749.75 793.54 749.81 800.26 749.30 Z" />
<path fill="#f05100" opacity="1.00" d=" M 353.44 809.89 C 353.46 789.84 353.48 769.79 353.43 749.75 C 370.62 749.76 387.81 749.75 405.00 749.75 C 412.50 749.77 420.06 749.49 427.48 750.77 C 431.55 751.53 435.72 753.62 437.49 757.59 C 440.67 764.57 440.38 772.49 440.41 780.00 C 440.41 787.55 440.78 795.51 437.55 802.54 C 434.92 807.94 428.19 808.81 422.87 809.29 C 399.74 810.43 376.58 809.63 353.44 809.89 Z" />
<path fill="#f05100" opacity="1.00" d=" M 602.84 749.76 C 624.21 749.76 645.58 749.73 666.95 749.77 C 670.46 749.99 674.57 750.10 677.15 752.87 C 680.10 756.56 679.58 761.57 679.65 765.99 C 679.60 770.07 679.49 775.20 675.64 777.68 C 671.48 779.92 666.55 779.30 661.99 779.65 C 642.27 779.73 622.56 779.67 602.84 779.68 C 602.84 769.71 602.85 759.73 602.84 749.76 Z" />
</g>
<g id="#ee3600ff">
<path fill="#ee3600" opacity="1.00" d=" M 318.24 840.49 C 354.00 840.49 389.76 840.58 425.52 840.44 C 427.74 840.66 429.93 841.17 432.12 841.65 C 407.09 842.41 382.05 841.86 357.02 842.01 C 344.04 841.90 331.07 842.23 318.10 841.84 L 318.24 840.49 Z" />
</g>
</svg>
