<?xml version="1.0" encoding="UTF-8" ?>
<!DOCTYPE svg PUBLIC "-//W3C//DTD SVG 1.1//EN" "http://www.w3.org/Graphics/SVG/1.1/DTD/svg11.dtd">
<svg width="1276pt" height="1276pt" viewBox="0 0 1276 1276" version="1.1" xmlns="http://www.w3.org/2000/svg">
<g id="#f36418ff">
<path fill="#f36418" opacity="1.00" d=" M 468.22 218.15 C 514.51 204.38 562.64 196.39 610.97 195.85 C 654.51 195.42 698.28 199.43 740.52 210.25 C 774.18 218.86 806.83 232.09 836.12 250.89 C 864.40 268.83 889.28 292.50 907.08 320.99 C 924.34 348.06 934.61 379.26 938.30 411.08 C 944.41 466.12 936.38 523.09 913.12 573.51 C 909.20 569.85 905.72 565.79 902.34 561.65 C 897.57 555.81 892.16 550.55 886.84 545.23 C 877.73 535.94 864.79 531.00 851.95 530.22 C 846.93 529.79 841.80 532.27 836.93 530.43 C 835.14 528.19 833.06 526.20 830.60 524.73 C 830.55 527.39 830.55 530.06 830.59 532.72 C 825.82 535.40 821.19 538.41 817.34 542.33 C 813.52 546.01 809.58 550.55 803.96 551.08 C 797.49 550.75 792.22 546.43 787.13 542.88 C 779.97 537.54 771.86 533.76 764.19 529.25 C 770.12 514.25 775.30 498.89 778.09 482.97 C 782.37 458.83 783.00 433.43 775.41 409.88 C 766.43 381.81 746.58 357.89 721.86 342.15 C 687.75 319.92 646.33 311.49 606.04 311.98 C 565.66 312.30 525.65 320.96 487.85 334.89 C 452.53 347.88 419.00 365.35 387.14 385.29 C 368.55 351.46 349.97 317.63 331.39 283.80 C 372.54 253.84 419.52 232.55 468.22 218.15 Z" />
<path fill="#f36418" opacity="1.00" d=" M 660.40 518.65 C 673.78 518.00 687.33 517.27 700.58 519.71 L 700.45 520.36 C 702.14 520.42 703.85 520.51 705.55 520.58 L 705.51 521.33 C 706.67 521.43 707.85 521.55 709.03 521.68 C 712.04 522.74 715.09 523.72 718.15 524.67 C 719.45 525.26 720.76 525.86 722.05 526.49 C 722.28 526.49 722.73 526.48 722.96 526.47 C 725.60 527.90 728.44 528.93 731.02 530.50 C 731.25 530.50 731.72 530.52 731.96 530.53 C 733.33 531.50 734.71 532.46 736.09 533.45 C 736.41 533.43 737.06 533.38 737.38 533.36 L 737.63 534.65 C 737.95 534.62 738.58 534.55 738.89 534.51 C 740.16 535.52 741.48 536.48 742.86 537.35 C 747.33 540.23 751.43 543.62 755.54 546.98 C 758.10 549.05 760.57 551.23 762.91 553.55 C 770.18 561.18 776.18 569.90 781.36 579.06 C 785.37 586.08 788.13 593.73 790.84 601.33 C 792.85 608.59 794.15 616.01 795.36 623.44 C 796.28 637.02 795.85 650.77 792.47 664.02 C 784.95 696.12 763.26 724.53 734.40 740.42 C 719.54 748.51 702.92 753.56 686.01 754.59 C 655.45 756.45 624.06 745.92 601.32 725.34 C 595.06 719.27 588.88 713.09 583.72 706.04 C 583.61 705.82 583.40 705.40 583.29 705.18 C 581.01 700.41 577.74 696.21 575.39 691.48 C 557.83 658.82 557.12 617.81 573.27 584.47 C 575.25 580.56 577.48 576.78 579.24 572.76 C 590.50 554.57 607.00 539.37 626.33 530.11 L 626.55 529.72 C 628.07 529.05 629.58 528.35 631.06 527.58 C 631.29 527.56 631.76 527.54 632.00 527.53 C 633.31 526.83 634.65 526.15 635.99 525.46 C 636.21 525.44 636.67 525.39 636.89 525.37 C 638.07 524.94 639.25 524.53 640.45 524.15 L 640.53 523.52 C 641.27 523.51 642.76 523.48 643.51 523.47 L 643.52 522.78 C 647.57 522.07 651.44 520.41 655.60 520.27 L 655.43 519.62 C 657.13 519.55 658.84 519.46 660.56 519.39 L 660.40 518.65 M 663.59 555.43 C 661.90 555.49 660.20 555.57 658.53 555.65 L 658.53 556.47 C 657.89 556.51 656.61 556.58 655.98 556.62 C 653.95 557.37 651.93 558.08 649.88 558.74 C 647.19 559.87 644.48 560.96 641.98 562.48 C 641.75 562.50 641.27 562.55 641.03 562.57 C 633.07 567.15 625.47 572.52 619.19 579.27 C 618.97 579.51 618.54 580.00 618.32 580.25 C 614.58 584.17 611.59 588.68 608.42 593.04 C 608.47 593.36 608.56 594.00 608.61 594.32 L 607.79 594.37 C 607.22 595.71 606.39 596.91 605.53 598.08 C 605.57 598.41 605.66 599.07 605.70 599.40 L 604.78 599.61 C 603.87 601.89 602.96 604.17 602.26 606.53 L 601.62 606.53 C 601.55 607.15 601.40 608.41 601.33 609.04 C 600.91 610.01 600.50 610.99 600.11 611.99 C 599.27 614.78 598.51 617.61 598.26 620.53 L 597.62 620.42 C 597.01 630.80 597.01 641.21 597.63 651.60 L 598.25 651.46 C 598.48 654.39 599.22 657.26 600.27 660.01 C 600.35 660.64 600.51 661.88 600.59 662.51 L 601.22 662.47 C 601.49 663.61 601.78 664.76 602.09 665.91 C 602.78 667.66 603.55 669.39 604.50 671.04 C 604.46 671.37 604.38 672.03 604.35 672.36 L 605.20 672.61 C 607.92 678.91 611.96 684.56 616.32 689.84 C 619.53 693.92 623.51 697.26 627.21 700.88 L 627.64 700.51 C 630.86 702.95 634.02 705.59 637.73 707.26 C 643.09 711.16 649.54 713.19 655.77 715.26 C 665.29 719.26 675.88 718.43 685.95 718.08 C 692.75 717.93 699.28 715.83 705.65 713.63 C 720.54 708.14 734.31 698.75 743.42 685.60 C 743.47 685.40 743.56 684.99 743.61 684.78 C 748.30 679.25 752.30 672.85 753.99 665.74 C 756.89 659.94 758.24 653.41 759.23 647.04 C 759.55 637.25 760.74 627.09 757.60 617.62 C 754.72 602.80 746.86 589.01 736.22 578.35 L 736.69 577.65 L 735.51 577.62 L 735.52 576.89 C 730.97 572.69 725.98 569.04 720.97 565.43 C 720.75 565.44 720.32 565.45 720.10 565.46 C 718.72 564.45 717.33 563.49 715.94 562.52 C 715.72 562.53 715.26 562.55 715.03 562.56 C 712.68 561.11 710.14 560.01 707.51 559.23 L 707.52 558.55 C 706.78 558.52 705.30 558.48 704.56 558.45 L 704.54 557.57 C 703.91 557.50 702.67 557.37 702.05 557.30 C 700.40 556.72 698.73 556.25 697.08 555.75 C 686.04 553.33 674.66 554.19 663.46 554.64 L 663.59 555.43 Z" />
<path fill="#f36418" opacity="1.00" d=" M 319.18 963.22 C 381.94 912.73 444.36 861.81 505.73 809.64 C 513.51 816.96 523.31 821.81 533.61 824.43 C 545.15 827.64 557.21 826.89 569.05 826.92 C 581.69 826.69 593.36 821.06 605.79 819.61 C 619.89 818.58 632.46 826.17 645.36 830.58 C 654.60 833.74 664.33 835.01 673.68 837.76 C 621.97 881.67 569.34 924.47 516.39 966.87 C 661.32 966.88 806.25 966.87 951.19 966.88 C 951.19 1005.58 951.19 1044.29 951.19 1083.00 C 740.52 1083.00 529.85 1083.00 319.18 1083.00 C 319.19 1043.07 319.19 1003.14 319.18 963.22 Z" />
</g>
<g id="#ffffffff">
<path fill="#ffffff" opacity="1.00" d=" M 1138.28 520.34 C 1150.16 520.29 1162.04 520.38 1173.92 520.29 C 1173.92 594.37 1174.00 668.45 1173.88 742.52 C 1162.04 742.37 1150.21 742.49 1138.39 742.46 C 1138.23 668.42 1138.45 594.38 1138.28 520.34 Z" />
<path fill="#ffffff" opacity="1.00" d=" M 264.61 523.41 C 276.58 523.21 288.56 523.31 300.54 523.35 C 300.43 595.01 300.50 666.67 300.50 738.33 C 298.72 737.52 297.18 736.33 295.66 735.15 L 295.62 734.71 C 295.25 734.50 294.53 734.08 294.16 733.87 C 292.70 732.62 291.26 731.35 289.82 730.08 C 289.46 729.89 288.75 729.49 288.39 729.29 L 288.33 728.89 C 286.94 727.85 285.60 726.76 284.25 725.69 C 283.99 725.38 283.46 724.75 283.20 724.44 L 282.43 724.67 L 282.32 723.89 C 281.06 722.99 279.84 722.05 278.59 721.17 L 278.56 720.36 L 277.45 720.62 L 277.38 719.84 C 276.13 718.95 274.92 718.01 273.67 717.13 L 273.55 716.38 L 272.84 716.50 C 272.48 716.19 271.76 715.58 271.41 715.27 L 271.27 714.93 C 269.85 713.82 268.48 712.65 267.14 711.45 L 266.42 711.65 L 266.40 710.85 C 265.15 709.95 263.93 709.01 262.69 708.13 L 262.55 707.74 C 262.21 707.42 261.52 706.77 261.18 706.44 L 260.83 706.59 C 259.48 705.38 258.11 704.19 256.68 703.09 L 256.59 702.87 C 254.53 701.43 252.64 699.77 250.79 698.09 C 250.44 697.90 249.74 697.52 249.38 697.33 L 249.29 696.94 C 247.86 695.82 246.49 694.64 245.15 693.44 L 244.41 693.63 L 244.42 692.82 C 243.16 691.93 241.94 691.01 240.69 690.13 L 240.58 689.74 C 240.22 689.42 239.52 688.78 239.17 688.46 L 238.82 688.61 C 237.50 687.38 236.15 686.18 234.75 685.06 L 234.59 684.72 C 234.23 684.51 233.50 684.09 233.14 683.88 C 231.69 682.61 230.25 681.34 228.80 680.08 C 228.44 679.90 227.73 679.52 227.37 679.33 L 227.34 678.88 C 226.10 677.97 224.90 677.03 223.66 676.13 L 223.60 675.69 C 223.25 675.50 222.55 675.12 222.19 674.93 C 220.74 673.65 219.29 672.37 217.85 671.10 C 217.49 670.89 216.77 670.49 216.42 670.29 L 216.33 669.88 C 215.10 668.96 213.91 668.01 212.69 667.11 L 212.58 666.70 C 212.23 666.50 211.53 666.11 211.19 665.91 C 209.73 664.63 208.29 663.34 206.84 662.06 C 206.48 661.88 205.74 661.51 205.38 661.33 L 205.37 660.87 C 204.12 659.97 202.91 659.02 201.67 658.13 L 201.62 657.68 C 201.26 657.49 200.55 657.10 200.19 656.90 C 198.73 655.64 197.29 654.36 195.86 653.07 C 195.50 652.88 194.78 652.50 194.42 652.31 L 194.35 651.97 C 192.79 650.73 191.29 649.41 189.79 648.11 C 189.43 647.91 188.71 647.52 188.35 647.33 L 188.34 646.89 C 187.08 645.98 185.86 645.04 184.60 644.16 L 184.57 643.37 L 183.48 643.61 L 183.37 642.85 C 182.12 641.96 180.91 641.02 179.67 640.13 L 179.62 639.68 C 179.27 639.48 178.58 639.09 178.23 638.89 C 176.72 637.58 175.22 636.26 173.65 635.04 L 173.56 634.71 C 173.21 634.52 172.50 634.12 172.14 633.92 C 170.70 632.63 169.25 631.35 167.80 630.08 C 167.44 629.89 166.73 629.52 166.37 629.34 L 166.33 628.88 C 165.09 627.98 163.89 627.03 162.65 626.15 L 162.61 625.69 C 162.25 625.50 161.52 625.12 161.15 624.92 C 159.71 623.66 158.29 622.38 156.86 621.11 C 156.49 620.91 155.75 620.50 155.38 620.29 L 155.28 619.94 C 153.92 618.87 152.60 617.76 151.28 616.66 C 151.01 616.46 150.47 616.08 150.19 615.89 C 148.71 614.63 147.26 613.36 145.80 612.09 C 145.45 611.89 144.75 611.48 144.40 611.28 L 144.34 610.86 C 143.10 609.97 141.91 609.03 140.68 608.14 L 140.56 607.74 C 140.21 607.42 139.51 606.79 139.16 606.47 L 138.42 606.66 L 138.29 605.96 C 136.46 604.50 134.74 602.81 132.54 601.91 C 132.44 648.12 132.62 694.34 132.45 740.54 C 132.22 740.73 131.77 741.11 131.54 741.30 C 121.45 741.43 111.36 741.24 101.27 741.39 C 100.90 674.25 101.21 607.08 101.11 539.93 C 101.26 534.77 100.71 529.56 101.53 524.44 C 102.13 525.16 103.32 526.61 103.92 527.33 C 105.06 528.17 106.18 529.03 107.34 529.87 L 107.46 530.26 C 107.80 530.58 108.48 531.22 108.82 531.55 L 109.18 531.42 C 110.52 532.62 111.88 533.81 113.29 534.94 L 113.42 535.26 C 113.78 535.56 114.50 536.18 114.85 536.49 L 115.57 536.36 L 115.73 537.04 C 117.15 538.17 118.51 539.37 119.84 540.62 L 120.21 540.41 C 120.48 540.72 121.01 541.35 121.28 541.66 C 122.61 542.74 123.94 543.84 125.30 544.90 L 125.44 545.27 C 125.79 545.58 126.49 546.22 126.84 546.53 L 127.54 546.36 L 127.73 547.04 C 129.14 548.17 130.50 549.37 131.84 550.60 L 132.18 550.45 C 132.52 550.78 133.20 551.42 133.54 551.74 L 133.66 552.14 C 134.90 553.03 136.09 553.97 137.33 554.88 L 137.43 555.26 C 137.78 555.57 138.48 556.18 138.83 556.49 L 139.22 556.38 C 140.74 557.79 142.27 559.19 143.80 560.61 L 144.16 560.48 C 144.51 560.80 145.22 561.43 145.57 561.74 L 145.72 562.08 C 147.07 563.13 148.39 564.23 149.72 565.33 C 149.99 565.64 150.52 566.25 150.79 566.56 L 151.18 566.41 C 152.51 567.62 153.87 568.81 155.29 569.93 L 155.43 570.26 C 155.78 570.57 156.49 571.19 156.84 571.50 L 157.56 571.37 L 157.70 572.09 C 159.08 573.15 160.42 574.26 161.78 575.36 C 162.03 575.65 162.54 576.24 162.80 576.54 L 163.56 576.32 L 163.67 577.12 C 164.90 578.02 166.10 578.97 167.34 579.88 L 167.44 580.26 C 167.79 580.56 168.49 581.17 168.83 581.47 L 169.21 581.42 C 170.54 582.62 171.88 583.82 173.29 584.94 L 173.48 585.24 C 173.82 585.55 174.51 586.19 174.85 586.50 L 175.58 586.33 L 175.69 587.08 C 177.06 588.12 178.39 589.22 179.73 590.32 C 179.99 590.63 180.51 591.24 180.78 591.55 L 181.17 591.42 C 182.52 592.62 183.88 593.82 185.31 594.94 L 185.40 595.30 C 185.75 595.49 186.44 595.88 186.79 596.07 C 188.28 597.41 189.79 598.74 191.38 599.97 L 191.47 600.23 C 191.82 600.55 192.51 601.19 192.85 601.51 L 193.19 601.39 C 194.51 602.62 195.86 603.82 197.27 604.95 L 197.38 605.32 C 197.74 605.51 198.45 605.89 198.80 606.08 C 200.43 607.53 202.06 608.98 203.73 610.38 C 204.00 610.67 204.55 611.24 204.82 611.53 L 205.57 611.31 L 205.66 612.13 C 206.90 613.02 208.11 613.96 209.35 614.87 L 209.38 615.29 C 209.73 615.50 210.41 615.92 210.76 616.13 C 212.28 617.41 213.79 618.73 215.36 619.97 L 215.40 620.32 C 215.76 620.51 216.46 620.89 216.82 621.08 C 218.44 622.54 220.07 623.99 221.75 625.38 C 222.01 625.68 222.53 626.27 222.79 626.56 L 223.18 626.40 C 224.52 627.61 225.88 628.81 227.30 629.94 L 227.38 630.33 C 227.73 630.51 228.44 630.87 228.79 631.05 C 230.27 632.40 231.77 633.74 233.36 634.97 L 233.41 635.30 C 233.77 635.50 234.48 635.88 234.83 636.08 C 236.30 637.43 237.80 638.76 239.38 639.99 L 239.37 640.35 C 239.72 640.53 240.43 640.88 240.78 641.06 C 242.28 642.39 243.78 643.73 245.37 644.97 L 245.39 645.33 C 245.74 645.52 246.45 645.91 246.81 646.10 C 248.31 647.42 249.81 648.75 251.41 649.97 L 251.44 650.26 C 251.79 650.56 252.50 651.17 252.85 651.48 L 253.19 651.41 C 254.53 652.62 255.89 653.82 257.32 654.94 L 257.43 655.64 L 258.18 655.44 C 260.50 657.41 262.43 660.01 265.37 661.14 C 265.42 634.91 265.21 608.67 265.33 582.44 L 263.62 582.00 L 265.32 581.56 C 265.27 579.47 265.27 577.38 265.32 575.30 L 264.66 575.65 C 264.67 574.83 264.70 573.20 264.71 572.38 L 266.23 572.14 L 263.87 570.95 L 265.36 570.46 L 265.28 568.13 L 264.65 568.85 C 264.73 566.36 264.74 563.87 264.67 561.39 L 266.54 561.00 L 264.67 560.61 C 264.75 548.21 264.68 535.81 264.61 523.41 Z" />
<path fill="#ffffff" opacity="1.00" d=" M 1068.48 523.76 C 1069.01 523.66 1070.07 523.46 1070.61 523.36 C 1070.43 596.39 1070.64 669.42 1070.49 742.45 C 1058.13 742.46 1045.77 742.45 1033.40 742.46 C 1033.33 733.45 1033.30 724.44 1033.36 715.44 L 1031.55 715.00 L 1033.35 714.57 C 1033.29 712.51 1033.29 710.46 1033.35 708.43 L 1031.56 708.01 L 1033.34 707.55 C 1033.35 706.76 1033.37 705.16 1033.38 704.37 L 1032.64 704.70 C 1032.80 678.24 1032.43 651.78 1032.66 625.32 C 1032.10 625.42 1030.97 625.60 1030.41 625.70 C 1030.46 626.11 1030.56 626.94 1030.61 627.36 L 1029.41 627.42 L 1029.62 628.56 L 1028.88 628.67 C 1027.97 629.90 1027.01 631.10 1026.11 632.34 L 1025.67 632.39 C 1025.48 632.75 1025.11 633.48 1024.93 633.84 C 1023.63 635.28 1022.34 636.74 1021.04 638.18 C 1020.85 638.53 1020.48 639.25 1020.29 639.60 L 1019.85 639.62 C 1018.95 640.87 1018.01 642.08 1017.12 643.33 L 1016.32 643.41 L 1016.51 644.16 C 1016.19 644.51 1015.57 645.21 1015.25 645.56 L 1014.87 645.68 C 1013.95 646.91 1013.00 648.11 1012.12 649.36 L 1011.70 649.41 C 1011.50 649.76 1011.10 650.46 1010.90 650.80 C 1009.63 652.26 1008.35 653.72 1007.08 655.17 C 1006.87 655.52 1006.47 656.24 1006.27 656.59 L 1005.83 656.59 C 1004.93 657.85 1004.00 659.07 1003.12 660.34 L 1002.74 660.41 C 1002.43 660.77 1001.81 661.49 1001.51 661.85 L 1001.65 662.55 L 1000.87 662.67 C 999.96 663.90 999.00 665.10 998.11 666.35 L 997.70 666.42 C 997.52 666.77 997.14 667.48 996.95 667.83 C 995.64 669.26 994.35 670.71 993.05 672.15 C 992.86 672.51 992.47 673.24 992.28 673.60 L 991.84 673.62 C 990.94 674.86 990.00 676.07 989.11 677.32 L 988.74 677.43 C 988.42 677.78 987.78 678.49 987.45 678.84 L 987.67 679.55 L 986.89 679.67 C 985.97 680.90 985.02 682.11 984.12 683.35 L 983.68 683.38 C 983.49 683.75 983.11 684.48 982.93 684.85 C 981.63 686.29 980.33 687.74 979.01 689.17 C 978.83 689.53 978.47 690.24 978.29 690.60 L 977.88 690.63 C 976.84 692.02 975.75 693.36 974.67 694.71 C 974.36 694.98 973.73 695.52 973.41 695.79 L 973.68 696.54 L 972.88 696.66 C 971.97 697.90 971.02 699.11 970.13 700.37 L 969.70 700.40 C 969.51 700.75 969.13 701.46 968.94 701.81 C 967.64 703.26 966.34 704.71 965.02 706.15 C 964.84 706.52 964.48 707.25 964.30 707.62 L 963.84 707.61 C 962.94 708.87 961.99 710.09 961.12 711.36 L 960.28 711.48 L 960.59 712.22 C 960.27 712.48 959.63 712.99 959.31 713.25 C 958.22 714.60 957.12 715.95 956.09 717.35 L 955.68 717.38 C 955.50 717.74 955.14 718.46 954.96 718.81 C 953.66 720.21 952.39 721.62 951.18 723.09 C 950.45 725.01 949.57 725.09 948.55 723.30 C 948.26 723.03 947.69 722.48 947.40 722.20 L 947.72 721.44 L 946.98 721.33 C 945.85 719.88 944.63 718.52 943.39 717.19 L 943.42 716.83 C 943.12 716.47 942.53 715.75 942.23 715.39 L 941.87 715.36 C 940.96 714.10 940.01 712.89 939.12 711.66 L 938.29 711.59 L 938.50 710.85 C 938.18 710.51 937.53 709.83 937.20 709.49 L 936.84 709.34 C 935.94 708.09 934.99 706.88 934.11 705.64 L 933.31 705.56 L 933.52 704.84 C 933.20 704.49 932.56 703.80 932.23 703.46 L 931.83 703.37 C 930.93 702.11 929.99 700.90 929.10 699.66 L 928.31 699.54 L 928.55 698.85 C 928.22 698.50 927.57 697.81 927.24 697.46 L 926.96 697.42 C 925.74 695.82 924.42 694.32 923.12 692.81 C 922.92 692.46 922.52 691.76 922.32 691.41 L 921.97 691.37 C 920.73 689.78 919.39 688.27 918.05 686.80 C 917.87 686.44 917.51 685.73 917.34 685.37 L 916.97 685.44 C 915.75 683.82 914.41 682.30 913.06 680.80 C 912.87 680.44 912.49 679.72 912.30 679.36 L 911.49 679.60 L 911.70 678.39 L 910.89 678.38 C 910.63 677.90 910.12 676.94 909.86 676.46 C 907.63 672.41 904.09 669.32 901.30 665.68 C 890.68 653.13 880.55 640.15 869.31 628.14 C 869.01 627.73 868.40 626.92 868.09 626.51 C 867.66 626.42 866.78 626.23 866.35 626.14 C 866.49 633.75 866.51 641.37 866.37 648.99 C 866.22 679.88 866.23 710.79 866.37 741.69 C 860.62 742.63 854.78 742.09 848.99 742.21 C 843.20 742.11 837.37 742.61 831.63 741.67 C 831.91 724.28 831.48 706.87 831.85 689.48 C 832.69 676.69 832.00 663.84 832.22 651.03 C 832.21 622.02 832.24 593.01 832.21 564.00 C 831.87 551.49 832.83 538.94 831.65 526.45 C 844.05 539.79 855.01 554.42 867.56 567.63 C 877.50 579.48 887.54 591.25 897.69 602.93 C 898.01 603.31 898.66 604.08 898.99 604.46 L 899.26 604.45 C 899.58 604.80 900.24 605.50 900.57 605.85 L 900.28 606.52 L 901.04 606.64 C 902.30 608.26 903.67 609.80 904.95 611.42 L 905.24 611.46 C 905.56 611.81 906.19 612.51 906.50 612.86 L 906.41 613.18 C 907.62 614.51 908.82 615.87 909.95 617.30 L 910.71 617.45 L 910.41 618.21 C 910.73 618.46 911.37 618.97 911.69 619.23 C 912.80 620.55 913.91 621.88 915.00 623.25 L 915.68 623.40 L 915.53 624.55 L 916.77 624.45 L 916.44 625.15 C 916.77 625.50 917.43 626.20 917.76 626.55 L 918.05 626.52 C 919.31 628.17 920.68 629.73 921.96 631.38 L 922.71 631.48 L 922.46 632.14 C 922.77 632.50 923.40 633.23 923.72 633.59 L 924.04 633.58 C 925.31 635.21 926.69 636.78 927.96 638.44 L 928.27 638.41 C 928.58 638.78 929.21 639.50 929.52 639.86 L 929.28 640.54 L 930.01 640.64 C 931.25 642.21 932.60 643.70 934.01 645.15 C 934.19 645.52 934.55 646.25 934.72 646.62 L 935.10 646.62 C 936.63 648.57 938.33 650.38 939.90 652.30 L 940.29 652.42 C 940.50 652.77 940.92 653.48 941.14 653.83 C 942.43 655.32 943.75 656.80 944.98 658.37 L 945.74 658.44 L 945.49 659.14 C 945.83 659.49 946.50 660.20 946.83 660.56 L 947.54 660.40 L 947.34 661.60 L 948.12 661.64 C 948.29 664.41 952.74 664.36 952.79 661.57 L 953.64 661.59 L 953.36 660.44 L 954.17 660.44 C 955.07 659.17 956.02 657.94 956.95 656.69 L 957.72 656.63 L 957.54 655.47 L 958.73 655.58 L 958.50 654.85 C 958.81 654.49 959.42 653.78 959.73 653.42 L 960.02 653.42 C 961.25 651.82 962.58 650.32 963.95 648.84 C 964.13 648.48 964.51 647.75 964.69 647.39 L 965.06 647.46 C 966.31 645.80 967.68 644.24 968.97 642.61 L 969.25 642.56 C 969.58 642.21 970.24 641.50 970.57 641.15 L 970.23 640.43 L 971.01 640.38 C 972.24 638.79 973.58 637.29 974.97 635.82 C 975.16 635.47 975.54 634.77 975.73 634.42 L 976.07 634.46 C 977.30 632.80 978.66 631.23 979.95 629.60 L 980.24 629.50 C 980.57 629.16 981.24 628.49 981.58 628.15 L 981.27 627.47 L 982.12 627.35 C 983.00 626.10 983.96 624.90 984.87 623.67 L 985.71 623.58 L 985.50 622.87 C 985.81 622.51 986.44 621.80 986.75 621.44 L 987.04 621.44 C 988.39 619.65 989.88 617.96 991.35 616.26 C 991.64 615.99 992.22 615.46 992.50 615.19 L 992.33 614.43 L 993.03 614.27 C 994.17 612.84 995.38 611.48 996.64 610.15 L 996.41 609.85 C 996.75 609.51 997.42 608.82 997.76 608.48 L 998.06 608.42 C 999.32 606.76 1000.68 605.18 1001.94 603.53 L 1002.31 603.62 C 1002.49 603.26 1002.86 602.55 1003.05 602.20 C 1004.41 600.71 1005.74 599.19 1006.96 597.59 L 1007.25 597.55 C 1007.57 597.20 1008.21 596.49 1008.53 596.14 L 1008.29 595.46 L 1009.03 595.38 C 1010.31 593.74 1011.68 592.18 1012.93 590.53 L 1013.27 590.60 C 1013.46 590.24 1013.84 589.51 1014.03 589.15 C 1015.34 587.73 1016.63 586.29 1017.94 584.87 C 1018.12 584.58 1018.48 583.98 1018.66 583.69 C 1019.94 582.18 1021.28 580.71 1022.65 579.28 L 1022.58 578.49 L 1023.72 578.56 L 1023.53 577.86 C 1023.84 577.50 1024.45 576.79 1024.76 576.43 L 1025.05 576.44 C 1026.30 574.77 1027.67 573.19 1028.94 571.54 L 1029.33 571.61 C 1029.52 571.26 1029.90 570.57 1030.09 570.22 C 1031.40 568.70 1032.73 567.18 1033.96 565.59 L 1034.23 565.51 C 1034.56 565.17 1035.23 564.49 1035.56 564.15 L 1035.29 563.46 L 1036.14 563.37 C 1037.03 562.12 1037.97 560.91 1038.88 559.67 L 1039.69 559.58 L 1039.51 558.87 C 1039.83 558.51 1040.45 557.79 1040.76 557.43 L 1041.05 557.48 C 1042.30 555.81 1043.67 554.24 1044.95 552.59 L 1045.23 552.52 C 1045.55 552.17 1046.18 551.48 1046.50 551.14 L 1046.30 550.44 L 1047.12 550.34 C 1048.02 549.09 1048.97 547.89 1049.89 546.65 L 1050.71 546.58 L 1050.48 545.87 C 1050.80 545.52 1051.45 544.83 1051.77 544.48 L 1052.05 544.41 C 1053.32 542.77 1054.69 541.20 1055.94 539.54 L 1056.33 539.62 C 1056.51 539.25 1056.87 538.53 1057.05 538.16 C 1058.41 536.69 1059.75 535.20 1060.99 533.62 L 1061.77 533.55 L 1061.40 532.85 C 1061.74 532.50 1062.42 531.81 1062.76 531.46 L 1063.01 531.37 C 1064.23 529.79 1065.58 528.31 1066.95 526.85 C 1067.14 526.48 1067.52 525.75 1067.71 525.38 L 1068.59 525.31 C 1068.56 524.93 1068.51 524.15 1068.48 523.76 Z" />
<path fill="#ffffff" opacity="1.00" d=" M 440.34 527.06 C 440.75 526.53 441.57 525.48 441.97 524.95 C 442.42 525.48 443.30 526.52 443.75 527.04 C 443.62 527.36 443.37 528.00 443.24 528.32 L 444.30 528.35 C 444.77 529.46 445.24 530.58 445.71 531.71 L 446.59 531.63 C 446.50 532.07 446.34 532.96 446.26 533.40 L 447.56 533.61 C 447.55 533.95 447.54 534.63 447.54 534.96 C 448.58 536.27 449.32 537.77 449.94 539.33 L 450.72 539.46 L 450.35 540.71 L 451.59 540.62 C 451.53 540.98 451.42 541.72 451.37 542.09 C 452.09 543.03 452.82 543.96 453.55 544.91 C 453.51 545.27 453.45 546.00 453.41 546.36 L 454.73 546.58 C 454.66 547.03 454.51 547.93 454.44 548.37 L 455.67 548.35 L 455.33 549.60 L 456.53 549.67 C 456.47 550.11 456.36 550.98 456.30 551.41 L 457.61 551.63 C 457.53 552.07 457.37 552.97 457.30 553.42 L 458.62 553.61 C 458.60 553.95 458.56 554.62 458.54 554.96 C 459.52 556.30 460.29 557.78 460.94 559.32 L 461.71 559.42 L 461.39 560.67 L 462.10 560.65 C 462.77 562.16 463.54 563.64 464.50 565.00 C 464.49 565.34 464.47 566.02 464.46 566.36 L 465.75 566.57 C 465.67 567.02 465.52 567.92 465.44 568.37 L 466.67 568.35 L 466.33 569.57 L 467.49 569.66 C 467.44 570.09 467.35 570.96 467.30 571.40 L 468.63 571.64 C 468.55 572.08 468.41 572.96 468.34 573.40 L 469.65 573.59 C 469.61 574.03 469.51 574.91 469.46 575.34 L 470.73 575.59 C 470.66 576.03 470.51 576.91 470.43 577.35 L 471.67 577.39 L 471.34 578.68 L 472.62 578.61 C 472.53 579.06 472.34 579.96 472.24 580.40 L 473.57 580.64 C 473.52 581.07 473.42 581.94 473.37 582.37 L 474.60 582.62 C 474.55 583.05 474.45 583.91 474.39 584.34 L 475.71 584.62 C 475.63 585.05 475.48 585.93 475.41 586.36 L 476.18 586.31 C 476.73 587.68 477.54 588.91 478.44 590.10 C 478.40 590.42 478.33 591.07 478.29 591.39 L 479.62 591.61 C 479.56 592.05 479.44 592.94 479.38 593.39 L 480.67 593.62 C 480.65 593.94 480.60 594.57 480.57 594.88 C 481.46 596.04 482.30 597.27 482.80 598.67 L 483.61 598.62 C 483.54 599.06 483.41 599.93 483.34 600.37 L 484.63 600.65 C 484.56 601.08 484.43 601.93 484.37 602.36 L 485.64 602.61 C 485.58 603.05 485.46 603.93 485.41 604.37 L 486.73 604.60 C 486.64 605.05 486.47 605.96 486.38 606.41 L 487.64 606.30 L 487.33 607.57 L 488.54 607.65 C 488.47 608.09 488.34 608.96 488.27 609.40 L 489.59 609.64 C 489.53 610.08 489.40 610.97 489.34 611.41 L 490.67 611.59 C 490.61 612.03 490.47 612.91 490.41 613.36 L 491.72 613.62 C 491.65 614.05 491.52 614.90 491.45 615.33 L 492.30 615.34 C 492.76 616.43 493.23 617.54 493.70 618.65 L 494.12 618.65 C 494.78 620.16 495.56 621.64 496.54 623.01 C 496.51 623.35 496.47 624.03 496.44 624.37 L 497.65 624.34 L 497.30 625.61 L 498.50 625.64 C 498.49 625.98 498.46 626.67 498.45 627.02 C 498.79 627.62 499.46 628.81 499.79 629.41 L 500.61 629.65 C 500.54 630.08 500.38 630.95 500.31 631.39 L 501.65 631.59 C 501.61 631.96 501.54 632.69 501.50 633.05 C 502.19 633.94 502.88 634.83 503.58 635.73 L 503.36 636.68 L 504.61 636.60 C 504.52 637.05 504.36 637.95 504.28 638.41 L 505.59 638.64 C 505.55 639.00 505.47 639.72 505.44 640.08 C 506.16 641.02 506.89 641.96 507.63 642.91 C 507.57 643.28 507.45 644.02 507.39 644.38 L 508.60 644.28 L 508.39 645.21 C 509.08 646.14 509.78 647.07 510.49 648.00 C 510.46 648.34 510.38 649.02 510.35 649.36 L 511.64 649.60 C 511.58 650.05 511.45 650.94 511.39 651.38 L 512.74 651.60 C 512.65 652.03 512.49 652.91 512.41 653.35 L 513.30 653.37 C 513.76 654.48 514.23 655.59 514.71 656.71 L 515.65 656.59 C 515.56 657.04 515.37 657.92 515.27 658.36 L 516.15 658.63 C 516.50 659.23 517.20 660.42 517.54 661.01 C 517.51 661.35 517.46 662.03 517.43 662.36 L 518.29 662.34 C 518.76 663.45 519.23 664.56 519.71 665.68 L 520.54 665.67 C 520.48 666.09 520.36 666.95 520.30 667.38 L 521.58 667.63 C 521.51 668.07 521.38 668.95 521.31 669.39 L 522.65 669.60 C 522.59 670.04 522.48 670.92 522.43 671.36 L 523.70 671.58 C 523.66 672.01 523.56 672.86 523.52 673.28 L 524.62 673.46 L 524.42 674.65 L 525.60 674.62 C 525.51 675.07 525.33 675.95 525.24 676.40 L 526.60 676.62 C 526.55 677.07 526.43 677.95 526.38 678.40 L 527.58 678.63 C 527.57 678.95 527.56 679.61 527.55 679.93 C 527.89 680.53 528.57 681.73 528.90 682.33 L 529.73 682.59 C 529.66 683.03 529.52 683.91 529.45 684.35 L 530.72 684.32 L 530.38 685.56 L 531.61 685.63 C 531.54 686.07 531.38 686.94 531.31 687.38 L 532.62 687.61 C 532.56 688.06 532.44 688.95 532.39 689.39 L 533.70 689.56 C 533.63 690.01 533.49 690.90 533.42 691.35 L 534.75 691.58 C 534.68 692.02 534.54 692.89 534.47 693.33 L 535.33 693.37 C 535.80 694.45 536.27 695.54 536.74 696.63 L 537.18 696.61 C 538.08 698.51 539.05 700.39 539.91 702.32 L 540.68 702.41 L 540.35 703.67 L 541.55 703.64 C 541.51 704.01 541.43 704.73 541.38 705.09 C 542.10 706.03 542.82 706.97 543.55 707.91 C 543.51 708.28 543.43 709.00 543.39 709.36 L 544.73 709.59 C 544.66 710.03 544.52 710.92 544.45 711.37 L 545.65 711.38 L 545.36 712.63 L 546.57 712.64 C 546.49 713.08 546.33 713.97 546.25 714.41 L 547.60 714.62 C 547.53 715.07 547.39 715.97 547.32 716.42 L 548.64 716.61 C 548.59 716.97 548.50 717.69 548.45 718.05 C 549.17 718.99 549.91 719.93 550.65 720.89 C 550.60 721.26 550.49 721.99 550.44 722.36 L 551.67 722.33 L 551.38 723.55 L 552.17 723.67 C 552.67 724.91 553.22 726.14 553.73 727.41 L 554.66 727.61 C 554.60 728.05 554.47 728.93 554.40 729.37 L 555.74 729.58 C 555.66 730.03 555.52 730.91 555.45 731.36 L 556.65 731.39 L 556.35 732.60 L 557.54 732.64 C 557.47 733.08 557.34 733.97 557.28 734.41 L 558.63 734.62 C 558.56 735.06 558.43 735.96 558.36 736.40 L 559.67 736.61 C 559.61 737.04 559.49 737.91 559.43 738.35 L 560.66 738.43 L 560.21 739.62 L 561.34 739.50 C 561.42 740.25 561.56 741.76 561.63 742.51 C 547.57 742.38 533.50 742.49 519.43 742.45 L 519.69 741.29 L 518.40 741.43 C 518.48 740.97 518.63 740.05 518.71 739.59 L 517.47 739.35 C 517.48 739.01 517.49 738.34 517.49 738.00 C 517.17 737.40 516.51 736.19 516.19 735.59 L 515.34 735.38 C 515.42 734.94 515.58 734.06 515.66 733.62 L 514.32 733.41 C 514.38 732.96 514.51 732.06 514.57 731.61 L 513.29 731.41 C 513.37 730.97 513.52 730.10 513.59 729.66 L 512.32 729.42 C 512.38 728.97 512.51 728.08 512.57 727.64 L 511.27 727.44 C 511.34 726.99 511.49 726.10 511.56 725.65 L 510.29 725.46 C 510.33 725.02 510.41 724.13 510.45 723.69 L 509.37 723.54 L 509.62 722.34 L 508.43 722.36 C 508.51 721.92 508.67 721.04 508.75 720.60 L 507.90 720.33 C 507.57 719.72 506.92 718.50 506.59 717.89 C 506.59 717.56 506.60 716.91 506.61 716.59 L 505.44 716.32 C 505.50 715.89 505.62 715.01 505.68 714.58 L 504.38 714.38 C 504.46 713.93 504.62 713.02 504.70 712.57 L 503.40 712.41 C 503.42 712.06 503.44 711.37 503.45 711.03 C 503.12 710.43 502.44 709.24 502.11 708.65 L 501.32 708.38 C 501.40 707.94 501.54 707.06 501.62 706.63 L 500.28 706.45 C 500.35 705.99 500.51 705.09 500.58 704.64 L 499.27 704.43 C 499.34 703.98 499.49 703.10 499.56 702.65 L 498.30 702.45 C 498.36 702.00 498.48 701.10 498.54 700.65 L 497.22 700.44 C 497.31 699.98 497.50 699.06 497.59 698.60 L 496.34 698.68 L 496.50 697.87 C 496.17 697.26 495.50 696.05 495.17 695.44 C 459.55 695.32 423.94 695.44 388.32 695.38 L 388.50 696.50 L 387.35 696.54 C 387.38 696.98 387.43 697.87 387.46 698.32 L 386.31 698.45 L 386.63 699.71 L 385.44 699.64 C 385.48 700.00 385.57 700.72 385.62 701.09 C 384.87 702.02 384.14 702.97 383.41 703.93 C 383.46 704.28 383.55 704.98 383.60 705.34 L 382.31 705.58 C 382.37 706.03 382.49 706.94 382.55 707.39 L 381.24 707.55 C 381.32 708.00 381.48 708.90 381.56 709.35 L 380.33 709.37 L 380.68 710.61 L 379.46 710.63 C 379.53 711.08 379.67 711.97 379.75 712.42 L 378.44 712.64 C 378.45 712.97 378.47 713.65 378.48 713.99 C 377.54 715.34 376.76 716.81 376.09 718.33 L 375.71 718.32 C 375.23 719.41 374.76 720.51 374.30 721.61 L 373.86 721.72 C 373.36 722.96 372.81 724.19 372.31 725.44 L 371.36 725.63 C 371.42 726.06 371.53 726.92 371.59 727.36 L 370.27 727.65 C 370.34 728.08 370.49 728.93 370.56 729.36 L 369.69 729.35 C 369.21 730.45 368.74 731.56 368.28 732.67 L 367.40 732.63 C 367.48 733.07 367.64 733.95 367.72 734.40 L 366.46 734.64 C 366.47 734.98 366.49 735.66 366.50 735.99 C 366.16 736.59 365.50 737.78 365.16 738.37 L 364.31 738.62 C 364.38 739.06 364.53 739.94 364.60 740.38 L 363.78 740.37 C 363.49 740.75 362.91 741.52 362.62 741.90 L 362.65 742.51 C 349.50 742.37 336.35 742.51 323.21 742.44 C 323.47 741.82 324.01 740.58 324.27 739.96 C 324.61 739.51 325.29 738.62 325.63 738.17 L 325.42 737.42 L 326.21 737.38 C 326.72 736.13 327.29 734.91 327.82 733.69 L 328.64 733.58 L 328.36 732.36 L 329.19 732.36 C 329.72 731.11 330.29 729.90 330.83 728.67 L 331.63 728.57 L 331.31 727.36 L 332.54 727.38 C 332.48 726.94 332.35 726.04 332.29 725.59 L 333.55 725.36 C 333.55 725.03 333.54 724.36 333.54 724.03 C 333.89 723.46 334.59 722.32 334.93 721.75 L 335.63 721.56 L 335.33 720.35 L 336.56 720.37 C 336.51 719.93 336.40 719.06 336.34 718.63 L 337.63 718.36 C 337.58 717.93 337.47 717.08 337.42 716.65 L 338.62 716.57 L 338.28 715.35 L 339.50 715.38 C 339.48 715.03 339.45 714.33 339.43 713.98 C 340.39 712.63 341.20 711.19 341.93 709.72 L 342.62 709.54 L 342.34 708.32 L 343.18 708.38 C 343.70 707.11 344.27 705.88 344.80 704.63 L 345.61 704.55 L 345.30 703.35 L 346.53 703.37 C 346.47 702.92 346.34 702.02 346.28 701.57 L 347.60 701.35 C 347.56 700.99 347.46 700.27 347.42 699.91 C 347.83 699.47 348.65 698.57 349.06 698.12 C 349.36 697.20 349.66 696.29 349.96 695.38 C 341.81 695.38 333.66 695.41 325.51 695.38 C 325.45 684.40 325.50 673.43 325.48 662.45 C 339.20 662.44 352.92 662.36 366.64 662.49 L 366.62 661.91 C 366.91 661.52 367.49 660.75 367.78 660.36 L 368.58 660.38 C 368.51 659.93 368.37 659.04 368.30 658.59 L 369.13 658.37 C 369.79 656.83 370.56 655.33 371.55 653.99 C 371.52 653.65 371.48 652.96 371.46 652.62 L 372.63 652.71 L 372.40 651.79 C 373.09 650.85 373.78 649.92 374.48 649.00 C 374.44 648.66 374.35 647.97 374.31 647.62 L 375.62 647.37 C 375.56 646.93 375.43 646.06 375.36 645.62 L 376.31 645.46 C 376.80 644.18 377.34 642.92 377.84 641.66 L 378.68 641.57 L 378.33 640.31 L 379.59 640.39 C 379.51 639.94 379.36 639.05 379.28 638.60 L 380.59 638.37 C 380.53 637.93 380.41 637.06 380.35 636.62 L 381.62 636.37 C 381.55 635.93 381.42 635.05 381.35 634.61 L 382.68 634.43 C 382.61 633.98 382.48 633.08 382.41 632.63 L 383.74 632.40 C 383.66 631.96 383.50 631.09 383.42 630.66 L 384.31 630.66 C 384.78 629.55 385.25 628.45 385.72 627.36 L 386.61 627.37 C 386.57 627.01 386.47 626.29 386.43 625.94 C 387.15 624.99 387.86 624.05 388.59 623.12 C 388.55 622.76 388.48 622.03 388.45 621.67 L 389.71 621.39 C 389.64 620.96 389.51 620.09 389.44 619.66 L 390.66 619.67 L 390.38 618.45 L 391.16 618.30 C 391.65 617.04 392.20 615.80 392.70 614.56 L 393.66 614.40 C 393.59 613.95 393.46 613.07 393.39 612.62 L 394.70 612.43 C 394.64 611.99 394.51 611.10 394.44 610.66 L 395.71 610.41 C 395.65 609.97 395.52 609.10 395.46 608.67 L 396.68 608.60 L 396.31 607.33 L 397.51 607.39 C 397.49 607.04 397.45 606.34 397.43 605.99 C 397.75 605.47 398.39 604.42 398.71 603.90 C 399.32 602.92 399.95 601.96 400.59 601.02 C 400.55 600.67 400.45 599.96 400.41 599.61 L 401.33 599.67 C 401.78 598.55 402.24 597.43 402.70 596.33 L 403.58 596.35 C 403.51 595.92 403.35 595.05 403.27 594.61 L 404.55 594.37 C 404.54 594.03 404.53 593.36 404.53 593.03 C 405.51 591.68 406.28 590.21 406.94 588.69 L 407.65 588.60 L 407.31 587.36 L 408.51 587.35 C 408.49 587.01 408.45 586.32 408.43 585.98 C 408.77 585.38 409.45 584.19 409.80 583.59 L 410.60 583.33 C 410.53 582.89 410.38 582.02 410.31 581.59 L 411.66 581.40 C 411.59 580.96 411.47 580.07 411.40 579.62 L 412.69 579.40 C 412.63 578.97 412.52 578.12 412.46 577.69 L 413.63 577.59 L 413.32 576.35 L 414.56 576.36 C 414.49 575.91 414.34 575.02 414.26 574.57 L 415.56 574.37 C 415.54 574.03 415.52 573.35 415.51 573.01 C 416.40 571.61 417.18 570.15 417.86 568.64 L 418.71 568.38 C 418.64 567.94 418.50 567.07 418.43 566.63 L 419.63 566.65 L 419.37 565.45 L 420.03 565.25 C 420.38 564.67 421.06 563.50 421.40 562.92 C 421.40 562.58 421.39 561.91 421.39 561.58 L 422.66 561.39 C 422.59 560.95 422.44 560.08 422.37 559.64 L 423.22 559.43 C 423.55 558.83 424.20 557.61 424.53 557.00 C 424.53 556.67 424.52 556.00 424.52 555.67 L 425.68 555.61 L 425.31 554.36 L 426.15 554.35 C 426.64 553.07 427.18 551.82 427.69 550.56 L 428.64 550.37 C 428.57 549.93 428.43 549.05 428.36 548.62 L 429.68 548.44 C 429.62 547.99 429.50 547.09 429.44 546.64 L 430.75 546.41 C 430.68 545.98 430.53 545.11 430.46 544.68 L 431.61 544.58 L 431.33 543.37 L 432.55 543.35 C 432.48 542.91 432.34 542.03 432.27 541.59 L 433.17 541.37 C 434.05 539.46 435.00 537.57 435.84 535.64 L 436.67 535.49 C 436.63 535.02 436.55 534.09 436.51 533.62 L 437.72 533.60 L 437.39 532.35 L 438.57 532.34 C 438.50 531.91 438.34 531.05 438.27 530.63 L 439.54 530.39 C 439.50 529.94 439.42 529.03 439.37 528.58 L 440.81 528.31 C 440.69 528.00 440.46 527.37 440.34 527.06 M 440.06 592.40 C 439.65 593.65 439.16 594.89 438.59 596.09 C 438.51 596.28 438.35 596.67 438.27 596.86 C 437.97 597.46 437.37 598.68 437.07 599.28 L 436.30 599.41 L 436.68 600.64 L 435.90 600.65 C 435.07 602.59 434.10 604.49 433.22 606.42 L 432.30 606.60 C 432.37 607.04 432.51 607.91 432.58 608.35 L 431.28 608.58 C 431.34 609.03 431.45 609.91 431.51 610.36 L 430.68 610.33 C 430.22 611.43 429.77 612.55 429.33 613.67 L 428.40 613.62 C 428.45 613.99 428.57 614.73 428.63 615.10 C 427.90 616.04 427.18 616.98 426.46 617.93 C 426.50 618.29 426.58 619.02 426.62 619.38 L 425.31 619.57 C 425.37 620.02 425.51 620.92 425.57 621.37 L 424.26 621.57 C 424.33 622.02 424.47 622.91 424.54 623.36 L 423.34 623.42 L 423.66 624.66 L 422.42 624.62 C 422.51 625.07 422.68 625.97 422.77 626.42 L 421.85 626.62 C 420.97 628.87 419.82 631.03 418.41 633.00 C 418.45 633.35 418.54 634.05 418.58 634.41 L 417.38 634.28 L 417.59 635.22 C 416.91 636.15 416.22 637.08 415.54 638.02 C 415.58 638.37 415.66 639.08 415.70 639.43 L 414.41 639.64 C 414.47 640.08 414.60 640.96 414.66 641.40 L 413.70 641.59 C 413.21 642.84 412.67 644.09 412.20 645.36 L 411.29 645.61 C 411.35 646.06 411.48 646.95 411.54 647.40 L 410.29 647.33 L 410.70 648.58 L 409.51 648.68 C 409.56 649.12 409.65 650.00 409.69 650.44 L 408.45 650.66 C 408.52 651.10 408.65 651.99 408.72 652.44 L 407.41 652.63 C 407.43 652.97 407.48 653.64 407.51 653.98 C 406.63 655.26 405.87 656.61 405.16 657.99 C 404.43 659.15 403.69 660.31 402.94 661.48 C 428.47 661.83 454.00 661.50 479.53 661.64 C 479.48 661.08 479.38 659.95 479.32 659.39 L 478.23 659.73 L 478.69 658.50 L 477.45 658.30 C 477.51 657.88 477.61 657.03 477.66 656.60 L 476.42 656.36 C 476.48 655.92 476.59 655.05 476.64 654.61 L 475.34 654.40 C 475.40 653.95 475.53 653.05 475.60 652.60 L 474.26 652.43 C 474.33 651.99 474.47 651.10 474.54 650.66 L 473.66 650.63 C 473.19 649.52 472.73 648.40 472.27 647.30 L 471.38 647.38 C 471.46 646.94 471.63 646.06 471.72 645.62 L 470.43 645.34 C 470.49 644.91 470.61 644.05 470.66 643.61 L 469.39 643.35 C 469.46 642.91 469.59 642.03 469.66 641.59 L 468.33 641.42 C 468.39 640.97 468.52 640.08 468.58 639.63 L 467.28 639.42 C 467.33 638.98 467.45 638.11 467.51 637.67 L 466.33 637.59 L 466.66 636.38 L 465.45 636.37 C 465.52 635.92 465.66 635.01 465.73 634.55 L 464.43 634.37 C 464.45 634.03 464.49 633.35 464.51 633.00 C 463.59 631.61 462.83 630.13 462.15 628.62 L 461.29 628.38 C 461.37 627.94 461.54 627.06 461.62 626.62 L 460.69 626.69 C 460.22 625.57 459.75 624.45 459.28 623.34 L 458.42 623.34 C 458.50 622.90 458.67 622.03 458.75 621.59 L 457.39 621.38 C 457.46 620.93 457.60 620.03 457.67 619.57 L 456.36 619.38 C 456.42 618.94 456.56 618.06 456.63 617.63 L 455.38 617.39 C 455.43 616.96 455.53 616.09 455.59 615.66 L 454.27 615.40 C 454.36 614.95 454.54 614.06 454.63 613.61 L 453.67 613.69 C 453.20 612.57 452.74 611.46 452.29 610.36 L 451.42 610.33 C 451.50 609.89 451.65 609.02 451.73 608.58 L 450.40 608.38 C 450.46 607.93 450.59 607.05 450.65 606.60 L 449.71 606.42 C 449.22 605.15 448.69 603.91 448.21 602.66 L 447.74 602.62 C 447.25 601.53 446.77 600.45 446.30 599.37 L 445.93 599.21 C 445.58 598.63 444.87 597.48 444.52 596.91 C 444.57 596.57 444.66 595.90 444.71 595.56 L 443.60 595.58 C 443.50 594.79 443.31 593.22 443.22 592.44 C 442.16 592.40 441.11 592.38 440.06 592.40 Z" />
</g>
<g id="#ad7c61ff">
<path fill="#ad7c61" opacity="1.00" d=" M 830.60 524.73 C 833.06 526.20 835.14 528.19 836.93 530.43 C 840.03 534.26 843.27 537.98 846.52 541.69 C 848.98 544.56 851.34 547.52 853.88 550.34 C 857.51 554.56 860.93 558.97 864.86 562.93 C 865.81 564.46 866.64 566.05 867.56 567.63 C 855.01 554.42 844.05 539.79 831.65 526.45 C 832.83 538.94 831.87 551.49 832.21 564.00 C 832.24 593.01 832.21 622.02 832.22 651.03 C 832.00 663.84 832.69 676.69 831.85 689.48 C 831.54 689.86 830.91 690.61 830.60 690.98 C 830.74 679.87 830.63 668.75 830.65 657.64 C 830.82 645.84 830.60 634.05 830.68 622.25 C 830.68 613.39 830.62 604.54 830.64 595.68 C 830.61 586.56 830.67 577.45 830.54 568.34 C 830.57 556.47 830.70 544.59 830.59 532.72 C 830.55 530.06 830.55 527.39 830.60 524.73 Z" />
</g>
<g id="#de5b16ff">
<path fill="#de5b16" opacity="1.00" d=" M 763.89 529.07 L 764.19 529.25 C 771.86 533.76 779.97 537.54 787.13 542.88 C 792.22 546.43 797.49 550.75 803.96 551.08 C 809.58 550.55 813.52 546.01 817.34 542.33 C 821.19 538.41 825.82 535.40 830.59 532.72 C 830.70 544.59 830.57 556.47 830.54 568.34 C 825.72 573.52 823.56 581.71 816.32 584.20 C 809.05 586.10 802.38 581.19 796.91 577.04 C 787.36 569.18 778.40 560.41 767.50 554.40 C 766.08 553.69 764.43 553.72 762.91 553.55 C 760.57 551.23 758.10 549.05 755.54 546.98 C 758.57 541.13 761.61 535.26 763.89 529.07 Z" />
</g>
<g id="#e55e17ff">
<path fill="#e55e17" opacity="1.00" d=" M 836.93 530.43 C 841.80 532.27 846.93 529.79 851.95 530.22 C 864.79 531.00 877.73 535.94 886.84 545.23 C 892.16 550.55 897.57 555.81 902.34 561.65 C 905.72 565.79 909.20 569.85 913.12 573.51 C 911.76 576.46 910.32 579.39 908.88 582.30 C 900.85 574.26 894.13 565.03 885.80 557.28 C 876.04 546.61 861.13 539.48 846.52 541.69 C 843.27 537.98 840.03 534.26 836.93 530.43 Z" />
<path fill="#e55e17" opacity="1.00" d=" M 683.60 643.78 C 688.39 638.48 693.16 633.16 697.82 627.75 C 701.33 628.36 704.86 628.91 708.34 629.77 C 718.37 632.24 727.17 638.39 733.64 646.37 C 742.44 656.99 744.78 671.37 743.61 684.78 C 743.56 684.99 743.47 685.40 743.42 685.60 C 734.31 698.75 720.54 708.14 705.65 713.63 C 699.28 715.83 692.75 717.93 685.95 718.08 C 675.88 718.43 665.29 719.26 655.77 715.26 C 657.59 715.28 659.42 715.24 661.25 715.20 C 657.78 710.81 653.95 706.65 651.23 701.74 C 648.14 696.29 646.56 690.19 644.52 684.33 C 651.41 677.58 658.13 670.68 664.85 663.76 C 664.05 671.65 662.84 679.86 665.36 687.58 C 667.38 693.82 670.40 700.29 676.16 703.90 C 684.76 709.39 695.76 711.48 705.65 708.60 C 712.73 706.85 720.02 703.37 723.62 696.67 C 729.94 686.69 730.72 673.96 727.18 662.86 C 724.59 654.66 718.02 647.91 709.92 645.06 C 701.54 641.70 692.33 642.92 683.60 643.78 Z" />
</g>
<g id="#d75915ff">
<path fill="#d75915" opacity="1.00" d=" M 846.52 541.69 C 861.13 539.48 876.04 546.61 885.80 557.28 C 894.13 565.03 900.85 574.26 908.88 582.30 C 907.59 584.85 906.26 587.38 904.94 589.92 C 901.09 586.12 897.68 581.92 894.14 577.85 C 887.36 570.61 881.49 562.16 872.60 557.30 C 866.94 553.57 860.19 552.45 853.88 550.34 C 851.34 547.52 848.98 544.56 846.52 541.69 Z" />
</g>
<g id="#c65214ff">
<path fill="#c65214" opacity="1.00" d=" M 853.88 550.34 C 860.19 552.45 866.94 553.57 872.60 557.30 C 881.49 562.16 887.36 570.61 894.14 577.85 C 897.68 581.92 901.09 586.12 904.94 589.92 C 903.71 592.19 902.45 594.44 901.20 596.71 C 892.27 587.35 884.60 576.73 874.59 568.45 C 871.64 566.11 868.15 564.67 864.86 562.93 C 860.93 558.97 857.51 554.56 853.88 550.34 Z" />
</g>
<g id="#c04f13ff">
<path fill="#c04f13" opacity="1.00" d=" M 762.91 553.55 C 764.43 553.72 766.08 553.69 767.50 554.40 C 778.40 560.41 787.36 569.18 796.91 577.04 C 802.38 581.19 809.05 586.10 816.32 584.20 C 823.56 581.71 825.72 573.52 830.54 568.34 C 830.67 577.45 830.61 586.56 830.64 595.68 C 827.92 598.82 825.58 603.44 820.96 603.83 C 814.87 604.26 809.64 600.42 804.90 597.12 C 796.82 591.28 790.52 583.47 783.18 576.81 C 782.72 577.38 781.82 578.50 781.36 579.06 C 776.18 569.90 770.18 561.18 762.91 553.55 Z" />
</g>
<g id="#b44a12ff">
<path fill="#b44a12" opacity="1.00" d=" M 864.86 562.93 C 868.15 564.67 871.64 566.11 874.59 568.45 C 884.60 576.73 892.27 587.35 901.20 596.71 C 900.02 598.77 898.84 600.84 897.69 602.93 C 887.54 591.25 877.50 579.48 867.56 567.63 C 866.64 566.05 865.81 564.46 864.86 562.93 Z" />
</g>
<g id="#80340c87">
<path fill="#80340c" opacity="0.53" d=" M 572.61 583.44 C 574.63 579.79 575.96 575.54 579.24 572.76 C 577.48 576.78 575.25 580.56 573.27 584.47 C 557.12 617.81 557.83 658.82 575.39 691.48 C 577.74 696.21 581.01 700.41 583.29 705.18 C 581.97 704.02 580.77 702.74 579.86 701.25 C 571.39 688.15 565.40 673.44 562.43 658.12 C 557.76 632.99 561.15 606.35 572.61 583.44 Z" />
</g>
<g id="#aa4611ff">
<path fill="#aa4611" opacity="1.00" d=" M 781.36 579.06 C 781.82 578.50 782.72 577.38 783.18 576.81 C 790.52 583.47 796.82 591.28 804.90 597.12 C 809.64 600.42 814.87 604.26 820.96 603.83 C 825.58 603.44 827.92 598.82 830.64 595.68 C 830.62 604.54 830.68 613.39 830.68 622.25 C 827.94 623.03 824.94 624.38 822.16 622.97 C 813.42 619.33 806.76 612.36 800.22 605.76 C 796.71 602.42 793.42 598.86 790.38 595.10 C 790.50 597.17 790.62 599.25 790.84 601.33 C 788.13 593.73 785.37 586.08 781.36 579.06 Z" />
</g>
<g id="#7d330cff">
<path fill="#7d330c" opacity="1.00" d=" M 721.57 598.56 C 726.60 591.93 731.57 585.26 736.22 578.35 C 746.86 589.01 754.72 602.80 757.60 617.62 C 757.35 619.08 757.09 620.56 756.81 622.03 C 752.30 617.88 748.07 613.38 742.97 609.92 C 736.38 605.18 728.91 601.92 721.57 598.56 Z" />
<path fill="#7d330c" opacity="1.00" d=" M 796.34 618.91 C 803.46 627.10 809.76 635.96 816.93 644.12 C 821.26 648.85 824.70 654.69 830.65 657.64 C 830.63 668.75 830.74 679.87 830.60 690.98 C 830.42 691.18 830.06 691.58 829.88 691.78 C 799.44 725.13 766.59 756.18 733.17 786.52 L 732.41 786.55 C 724.07 786.71 716.27 790.34 707.93 790.64 C 694.93 791.11 681.68 791.41 669.01 787.94 C 659.12 785.15 649.28 781.77 640.39 776.52 C 626.55 768.51 612.69 759.97 597.16 755.65 C 591.67 754.01 585.34 755.05 581.24 759.22 C 574.77 765.48 568.88 773.12 559.93 775.92 C 555.34 777.63 550.36 776.77 545.93 774.99 C 564.57 758.64 583.22 742.29 601.32 725.34 C 624.06 745.92 655.45 756.45 686.01 754.59 C 702.92 753.56 719.54 748.51 734.40 740.42 C 763.26 724.53 784.95 696.12 792.47 664.02 C 795.85 650.77 796.28 637.02 795.36 623.44 C 795.66 621.92 795.99 620.41 796.34 618.91 Z" />
</g>
<g id="#943d0fff">
<path fill="#943d0f" opacity="1.00" d=" M 790.38 595.10 C 793.42 598.86 796.71 602.42 800.22 605.76 C 806.76 612.36 813.42 619.33 822.16 622.97 C 824.94 624.38 827.94 623.03 830.68 622.25 C 830.60 634.05 830.82 645.84 830.65 657.64 C 824.70 654.69 821.26 648.85 816.93 644.12 C 809.76 635.96 803.46 627.10 796.34 618.91 C 795.99 620.41 795.66 621.92 795.36 623.44 C 794.15 616.01 792.85 608.59 790.84 601.33 C 790.62 599.25 790.50 597.17 790.38 595.10 Z" />
<path fill="#943d0f" opacity="1.00" d=" M 715.42 606.47 C 717.48 603.84 719.54 601.22 721.57 598.56 C 728.91 601.92 736.38 605.18 742.97 609.92 C 748.07 613.38 752.30 617.88 756.81 622.03 C 757.09 620.56 757.35 619.08 757.60 617.62 C 760.74 627.09 759.55 637.25 759.23 647.04 C 758.89 643.23 757.93 639.42 755.72 636.25 C 748.97 626.18 739.67 617.84 728.92 612.22 C 724.54 610.03 719.92 608.39 715.42 606.47 Z" />
<path fill="#943d0f" opacity="1.00" d=" M 581.24 759.22 C 585.34 755.05 591.67 754.01 597.16 755.65 C 612.69 759.97 626.55 768.51 640.39 776.52 C 649.28 781.77 659.12 785.15 669.01 787.94 C 681.68 791.41 694.93 791.11 707.93 790.64 C 716.27 790.34 724.07 786.71 732.41 786.55 C 727.60 791.68 722.05 796.05 716.76 800.66 C 710.49 799.67 704.27 801.31 698.00 801.25 C 679.05 801.44 660.12 797.10 643.00 789.02 C 636.00 785.85 629.71 781.32 622.58 778.42 C 615.07 775.28 607.27 771.99 598.98 772.18 C 593.67 772.21 588.85 774.77 584.45 777.48 C 578.13 781.46 571.63 785.40 564.36 787.37 C 555.12 789.56 544.97 788.01 537.04 782.71 C 539.98 780.11 542.95 777.55 545.93 774.99 C 550.36 776.77 555.34 777.63 559.93 775.92 C 568.88 773.12 574.77 765.48 581.24 759.22 Z" />
</g>
<g id="#b34a12ff">
<path fill="#b34a12" opacity="1.00" d=" M 704.94 619.33 C 708.47 615.07 712.00 610.81 715.42 606.47 C 719.92 608.39 724.54 610.03 728.92 612.22 C 739.67 617.84 748.97 626.18 755.72 636.25 C 757.93 639.42 758.89 643.23 759.23 647.04 C 758.24 653.41 756.89 659.94 753.99 665.74 C 753.74 666.13 753.24 666.91 752.99 667.31 C 749.63 652.13 741.26 637.60 728.11 628.92 C 721.40 623.68 713.23 620.84 704.94 619.33 Z" />
</g>
<g id="#d15615ff">
<path fill="#d15615" opacity="1.00" d=" M 697.82 627.75 C 700.20 624.95 702.59 622.16 704.94 619.33 C 713.23 620.84 721.40 623.68 728.11 628.92 C 741.26 637.60 749.63 652.13 752.99 667.31 C 753.24 666.91 753.74 666.13 753.99 665.74 C 752.30 672.85 748.30 679.25 743.61 684.78 C 744.78 671.37 742.44 656.99 733.64 646.37 C 727.17 638.39 718.37 632.24 708.34 629.77 C 704.86 628.91 701.33 628.36 697.82 627.75 Z" />
</g>
<g id="#702e0bff">
<path fill="#702e0b" opacity="1.00" d=" M 866.35 626.14 C 866.78 626.23 867.66 626.42 868.09 626.51 C 868.40 626.92 869.01 627.73 869.31 628.14 C 871.41 630.88 873.53 633.62 875.64 636.37 C 873.01 639.94 870.26 643.42 867.64 646.99 C 867.19 647.63 866.76 648.30 866.37 648.99 C 866.51 641.37 866.49 633.75 866.35 626.14 Z" />
</g>
<g id="#87848296">
<path fill="#878482" opacity="0.59" d=" M 869.31 628.14 C 880.55 640.15 890.68 653.13 901.30 665.68 C 904.09 669.32 907.63 672.41 909.86 676.46 L 910.25 677.72 C 898.47 664.15 887.08 650.23 875.64 636.37 C 873.53 633.62 871.41 630.88 869.31 628.14 Z" />
</g>
<g id="#f26418ff">
<path fill="#f26418" opacity="1.00" d=" M 683.60 643.78 C 692.33 642.92 701.54 641.70 709.92 645.06 C 718.02 647.91 724.59 654.66 727.18 662.86 C 730.72 673.96 729.94 686.69 723.62 696.67 C 720.02 703.37 712.73 706.85 705.65 708.60 C 695.76 711.48 684.76 709.39 676.16 703.90 C 670.40 700.29 667.38 693.82 665.36 687.58 C 662.84 679.86 664.05 671.65 664.85 663.76 C 671.19 657.19 677.45 650.53 683.60 643.78 Z" />
</g>
<g id="#4e4e4e4e">
<path fill="#4e4e4e" opacity="0.31" d=" M 866.37 648.99 C 866.76 648.30 867.19 647.63 867.64 646.99 C 867.16 678.89 867.58 710.81 867.43 742.72 C 861.01 743.78 854.48 743.00 848.02 743.23 C 842.19 742.98 836.28 743.86 830.53 742.64 C 830.61 728.78 830.53 714.92 830.58 701.06 C 830.55 697.96 830.93 694.76 829.88 691.78 C 830.06 691.58 830.42 691.18 830.60 690.98 C 830.91 690.61 831.54 689.86 831.85 689.48 C 831.48 706.87 831.91 724.28 831.63 741.67 C 837.37 742.61 843.20 742.11 848.99 742.21 C 854.78 742.09 860.62 742.63 866.37 741.69 C 866.23 710.79 866.22 679.88 866.37 648.99 Z" />
</g>
<g id="#c45113ff">
<path fill="#c45113" opacity="1.00" d=" M 635.62 693.03 C 638.60 690.14 641.55 687.22 644.52 684.33 C 646.56 690.19 648.14 696.29 651.23 701.74 C 653.95 706.65 657.78 710.81 661.25 715.20 C 659.42 715.24 657.59 715.28 655.77 715.26 C 649.54 713.19 643.09 711.16 637.73 707.26 C 639.10 707.50 640.49 707.71 641.88 707.93 C 639.50 703.09 637.24 698.18 635.62 693.03 Z" />
</g>
<g id="#ac4711ff">
<path fill="#ac4711" opacity="1.00" d=" M 627.64 700.51 C 630.42 698.15 633.01 695.57 635.62 693.03 C 637.24 698.18 639.50 703.09 641.88 707.93 C 640.49 707.71 639.10 707.50 637.73 707.26 C 634.02 705.59 630.86 702.95 627.64 700.51 Z" />
</g>
<g id="#ad4711ff">
<path fill="#ad4711" opacity="1.00" d=" M 584.45 777.48 C 588.85 774.77 593.67 772.21 598.98 772.18 C 607.27 771.99 615.07 775.28 622.58 778.42 C 629.71 781.32 636.00 785.85 643.00 789.02 C 660.12 797.10 679.05 801.44 698.00 801.25 C 704.27 801.31 710.49 799.67 716.76 800.66 C 712.58 804.41 708.35 808.09 704.07 811.72 C 696.79 810.25 689.34 810.95 682.00 810.10 C 667.84 808.68 654.04 804.57 641.02 798.92 C 629.49 793.45 617.99 786.78 604.99 785.83 C 595.62 785.29 587.72 791.13 579.29 794.24 C 568.85 797.99 557.27 800.36 546.31 797.50 C 540.20 795.90 533.94 793.91 529.25 789.48 C 531.82 787.20 534.44 784.96 537.04 782.71 C 544.97 788.01 555.12 789.56 564.36 787.37 C 571.63 785.40 578.13 781.46 584.45 777.48 Z" />
</g>
<g id="#c95314ff">
<path fill="#c95314" opacity="1.00" d=" M 579.29 794.24 C 587.72 791.13 595.62 785.29 604.99 785.83 C 617.99 786.78 629.49 793.45 641.02 798.92 C 654.04 804.57 667.84 808.68 682.00 810.10 C 689.34 810.95 696.79 810.25 704.07 811.72 C 699.89 815.40 695.66 819.03 691.43 822.64 C 674.12 821.55 656.90 817.93 640.97 810.99 C 631.13 806.97 621.67 801.44 610.98 800.07 C 603.67 799.09 596.29 800.71 589.58 803.58 C 579.60 807.78 568.91 810.58 558.04 810.78 C 544.31 810.62 530.72 805.94 519.80 797.61 C 522.94 794.88 526.12 792.21 529.25 789.48 C 533.94 793.91 540.20 795.90 546.31 797.50 C 557.27 800.36 568.85 797.99 579.29 794.24 Z" />
</g>
<g id="#e45e16ff">
<path fill="#e45e16" opacity="1.00" d=" M 505.73 809.64 C 510.40 805.61 515.13 801.63 519.80 797.61 C 530.72 805.94 544.31 810.62 558.04 810.78 C 568.91 810.58 579.60 807.78 589.58 803.58 C 596.29 800.71 603.67 799.09 610.98 800.07 C 621.67 801.44 631.13 806.97 640.97 810.99 C 656.90 817.93 674.12 821.55 691.43 822.64 C 685.47 827.63 679.65 832.78 673.68 837.76 C 664.33 835.01 654.60 833.74 645.36 830.58 C 632.46 826.17 619.89 818.58 605.79 819.61 C 593.36 821.06 581.69 826.69 569.05 826.92 C 557.21 826.89 545.15 827.64 533.61 824.43 C 523.31 821.81 513.51 816.96 505.73 809.64 Z" />
</g>
</svg>
