<?xml version="1.0" encoding="UTF-8" ?>
<!DOCTYPE svg PUBLIC "-//W3C//DTD SVG 1.1//EN" "http://www.w3.org/Graphics/SVG/1.1/DTD/svg11.dtd">
<svg width="1276pt" height="1276pt" viewBox="0 0 1276 1276" version="1.1" xmlns="http://www.w3.org/2000/svg">
<g id="#ffffffff">
<path fill="#ffffff" opacity="1.00" d=" M 939.11 476.85 C 964.96 474.04 991.01 474.02 1016.96 474.74 C 1038.82 475.26 1060.67 477.27 1082.20 481.17 C 1088.55 482.14 1094.82 483.59 1101.20 484.49 C 1101.14 501.56 1101.17 518.63 1101.18 535.69 C 1078.60 531.37 1056.46 524.97 1033.74 521.36 C 1009.79 517.58 985.37 516.13 961.23 518.76 C 948.49 520.51 935.54 523.37 924.49 530.25 C 917.73 534.65 911.61 541.34 910.96 549.74 C 910.52 557.92 914.91 565.72 920.98 570.97 C 931.66 580.27 944.95 585.70 957.85 591.13 C 997.79 606.95 1039.32 618.92 1077.83 638.22 C 1095.40 647.34 1112.99 658.17 1124.61 674.62 C 1135.62 689.78 1138.32 709.86 1134.29 727.89 C 1130.30 745.25 1117.96 759.49 1103.45 769.24 C 1084.13 782.16 1061.57 789.24 1038.99 793.98 C 1006.79 800.55 973.81 802.34 941.01 801.94 C 898.07 802.36 855.15 798.83 812.76 792.02 C 812.71 773.61 812.74 755.19 812.74 736.77 C 836.49 745.86 861.83 749.87 886.90 753.41 C 909.16 756.20 931.56 758.22 954.01 757.85 C 966.81 758.15 979.67 756.93 992.09 753.81 C 1002.51 750.94 1013.06 746.58 1020.46 738.40 C 1027.20 731.15 1030.28 720.52 1027.97 710.84 C 1025.99 702.69 1019.56 696.63 1013.01 691.89 C 999.12 682.44 983.34 676.36 967.84 670.12 C 935.93 657.99 903.50 646.99 872.81 631.92 C 857.96 624.22 843.16 615.70 831.46 603.56 C 822.10 594.15 815.38 581.89 813.57 568.66 C 812.43 557.40 813.03 545.58 818.18 535.29 C 825.47 519.38 839.70 507.95 854.80 499.83 C 880.82 486.09 910.12 480.17 939.11 476.85 Z" />
<path fill="#ffffff" opacity="1.00" d=" M 173.41 475.56 C 214.30 475.39 255.19 475.54 296.08 475.48 C 304.93 475.36 314.05 478.20 320.43 484.53 C 326.98 490.43 330.68 499.19 330.80 507.97 C 330.79 538.01 330.83 568.05 330.78 598.09 C 330.61 615.56 314.46 630.77 296.99 629.80 C 255.97 629.77 214.96 629.79 173.94 629.79 C 156.77 630.33 140.87 615.32 141.05 598.02 C 141.08 567.33 141.03 536.64 141.07 505.95 C 141.91 489.46 156.92 475.42 173.41 475.56 M 172.22 503.22 C 170.03 504.18 168.48 506.58 168.73 509.00 C 168.75 538.34 168.74 567.68 168.73 597.02 C 168.76 600.16 171.79 602.90 174.89 602.82 C 215.30 602.83 255.71 602.80 296.12 602.83 C 299.55 603.18 302.88 600.26 303.04 596.83 C 303.05 567.84 302.94 538.84 303.13 509.82 C 303.53 505.85 300.03 502.14 296.02 502.50 C 255.99 502.49 215.96 502.54 175.93 502.48 C 174.62 502.38 173.39 502.62 172.22 503.22 Z" />
<path fill="#ffffff" opacity="1.00" d=" M 363.73 475.20 C 422.82 475.17 481.92 475.20 541.02 475.19 C 556.33 475.26 571.65 474.89 586.95 475.76 C 609.79 477.23 632.60 479.78 655.04 484.37 C 673.37 488.18 691.71 492.97 708.46 501.53 C 727.07 510.56 744.51 522.20 759.33 536.67 C 771.59 548.90 781.89 563.19 789.01 579.01 C 801.00 605.79 804.02 636.21 798.96 665.02 C 794.67 690.20 783.04 713.99 765.96 732.96 C 746.17 755.04 720.25 770.98 692.87 781.93 C 662.11 792.83 629.50 797.32 597.12 800.15 C 582.40 800.99 567.71 801.76 552.96 801.60 C 489.88 801.58 426.80 801.63 363.72 801.58 C 363.77 692.78 363.75 583.99 363.73 475.20 M 470.16 519.54 C 470.25 598.40 470.19 677.26 470.19 756.12 C 491.80 756.12 513.42 756.12 535.03 756.12 C 564.67 755.73 594.79 751.83 622.21 740.00 C 638.64 732.75 654.12 722.53 665.60 708.57 C 675.64 696.65 682.57 682.26 686.10 667.11 C 690.61 647.71 690.38 627.29 685.75 607.94 C 681.42 590.46 672.51 574.05 659.74 561.30 C 646.00 547.20 628.31 537.52 609.84 531.09 C 589.62 524.15 568.30 520.92 547.00 519.89 C 521.40 519.10 495.77 519.72 470.16 519.54 Z" />
</g>
<g id="#929497ff">
<path fill="#929497" opacity="1.00" d=" M 165.56 648.79 C 172.26 647.14 179.17 647.67 185.99 647.60 C 222.66 647.60 259.32 647.61 295.99 647.59 C 302.92 647.67 310.07 649.08 315.86 653.08 C 324.90 658.81 330.64 669.23 330.79 679.92 C 330.81 709.60 330.79 739.29 330.80 768.98 C 330.81 777.82 327.19 786.63 320.68 792.66 C 314.54 798.91 305.76 801.94 297.10 801.91 C 256.04 801.94 214.97 802.00 173.91 801.88 C 159.56 802.17 145.99 791.91 142.21 778.12 C 140.66 773.22 141.10 768.06 141.06 763.01 C 141.06 734.98 141.06 706.96 141.06 678.93 C 141.38 664.96 152.01 652.02 165.56 648.79 M 171.51 675.65 C 169.79 676.80 168.54 678.83 168.73 680.95 C 168.75 710.32 168.72 739.70 168.75 769.07 C 168.66 772.24 171.61 775.29 174.86 774.87 C 215.57 774.87 256.28 774.87 296.99 774.87 C 300.55 775.07 303.30 771.42 303.12 768.07 C 303.07 740.34 303.05 712.62 303.07 684.90 C 302.80 681.91 303.55 678.18 300.80 676.11 C 298.63 674.18 295.62 674.68 292.97 674.64 C 253.62 674.68 214.28 674.63 174.94 674.66 C 173.69 674.63 172.55 674.96 171.51 675.65 Z" />
</g>
</svg>
