<?xml version="1.0" encoding="UTF-8" ?>
<!DOCTYPE svg PUBLIC "-//W3C//DTD SVG 1.1//EN" "http://www.w3.org/Graphics/SVG/1.1/DTD/svg11.dtd">
<svg width="1276pt" height="1276pt" viewBox="0 0 1276 1276" version="1.1" xmlns="http://www.w3.org/2000/svg">
<g id="#c2ac6dff">
<path fill="#c2ac6d" opacity="1.00" d=" M 930.18 212.23 C 963.13 210.98 996.71 219.29 1024.42 237.41 C 1047.53 252.39 1066.27 273.97 1077.93 298.91 C 1089.85 324.05 1094.66 352.23 1093.49 379.92 C 1092.55 404.89 1086.37 429.79 1074.58 451.88 C 1065.77 468.44 1053.87 483.40 1039.52 495.49 C 1019.21 512.79 994.17 524.26 967.99 529.10 C 935.82 534.92 901.80 532.20 871.55 519.49 C 841.04 506.89 814.97 483.86 798.91 455.01 C 784.79 429.83 777.80 400.78 778.33 371.95 C 777.60 331.98 791.47 291.36 818.67 261.74 C 846.76 230.53 888.45 213.08 930.18 212.23 M 926.50 233.75 C 909.16 235.99 893.86 246.83 884.06 261.04 C 871.31 279.29 865.42 301.31 861.99 323.04 C 859.78 338.27 858.65 353.67 858.77 369.06 C 858.48 396.94 860.64 425.21 869.04 451.94 C 873.82 466.66 880.80 481.06 891.66 492.29 C 899.56 500.43 909.60 506.63 920.70 509.24 C 937.29 513.19 955.67 510.65 969.85 500.90 C 984.29 491.21 993.72 475.80 999.93 459.87 C 1010.59 431.91 1012.79 401.65 1013.22 372.00 C 1012.73 342.61 1010.59 312.62 1000.11 284.87 C 994.11 268.85 984.59 253.58 970.41 243.62 C 957.78 234.75 941.69 231.53 926.50 233.75 Z" />
<path fill="#c2ac6d" opacity="1.00" d=" M 182.37 215.26 C 215.10 215.30 247.84 215.27 280.58 215.28 C 333.96 280.57 387.10 346.07 440.53 411.32 C 440.57 361.20 440.51 311.08 440.56 260.96 C 441.42 247.13 431.96 233.37 418.75 229.19 C 412.29 227.29 405.45 228.50 398.82 228.17 C 398.81 223.87 398.81 219.58 398.80 215.28 C 430.26 215.29 461.72 215.27 493.18 215.29 C 493.19 220.07 493.15 224.86 493.23 229.64 C 485.76 230.25 478.28 232.58 472.53 237.53 C 466.08 243.02 462.13 251.45 462.27 259.94 C 462.32 349.74 462.24 439.54 462.31 529.35 C 458.32 529.21 454.26 529.72 450.32 529.09 C 381.18 444.97 312.25 360.65 243.09 276.55 C 243.21 337.37 243.10 398.19 243.14 459.01 C 243.33 469.03 242.50 479.15 244.29 489.07 C 245.77 497.27 251.38 504.63 259.08 507.91 C 268.55 511.89 279.02 512.31 289.14 512.29 C 289.13 516.58 289.14 520.87 289.13 525.17 C 253.56 525.18 217.98 525.13 182.41 525.19 C 182.33 520.92 182.40 516.64 182.30 512.37 C 192.39 512.34 202.77 509.94 211.06 503.98 C 216.83 499.85 220.93 493.21 221.39 486.06 C 221.47 413.37 221.37 340.68 221.44 267.99 C 221.21 247.48 203.49 227.62 182.38 228.09 C 182.35 223.81 182.36 219.54 182.37 215.26 Z" />
<path fill="#c2ac6d" opacity="1.00" d=" M 501.93 215.30 C 584.32 215.25 666.70 215.28 749.08 215.29 C 749.11 241.53 749.08 267.77 749.10 294.01 C 749.06 297.01 749.29 300.04 748.81 303.01 C 744.17 303.30 739.53 302.81 734.89 302.87 C 734.70 283.69 727.78 263.80 713.33 250.70 C 701.40 239.67 684.93 234.90 668.97 234.33 C 650.53 234.34 632.10 234.30 613.67 234.35 C 613.73 274.19 613.69 314.04 613.69 353.88 C 620.84 353.74 628.14 354.51 635.13 352.63 C 645.77 350.10 655.02 342.88 660.52 333.49 C 668.17 320.70 670.33 305.49 670.55 290.83 C 674.81 290.83 679.07 290.83 683.33 290.83 C 683.33 340.99 683.29 391.15 683.35 441.31 C 679.07 441.31 674.80 441.31 670.52 441.31 C 670.35 426.02 668.16 410.16 660.27 396.78 C 654.94 387.78 646.57 380.36 636.44 377.33 C 629.11 374.96 621.31 375.39 613.72 375.28 C 613.67 411.53 613.71 447.78 613.70 484.02 C 613.66 494.44 622.98 503.56 633.33 503.69 C 645.90 503.83 658.47 503.72 671.05 503.74 C 687.32 503.57 703.39 498.08 716.57 488.58 C 736.23 474.74 749.78 452.82 754.13 429.24 C 758.31 429.22 762.49 429.18 766.67 429.29 C 761.85 461.24 757.35 493.25 752.45 525.19 C 669.00 525.15 585.54 525.16 502.08 525.18 C 501.83 520.33 501.95 515.47 501.93 510.62 C 511.64 510.32 522.15 512.02 530.96 506.86 C 539.58 502.40 543.37 492.23 543.38 482.98 C 543.37 408.64 543.38 334.30 543.38 259.96 C 543.49 254.25 543.68 248.26 541.01 243.02 C 537.47 235.56 530.44 229.04 521.95 228.22 C 515.28 228.06 508.61 228.23 501.93 228.16 C 501.93 223.87 501.93 219.59 501.93 215.30 Z" />
<path fill="#c2ac6d" opacity="1.00" d=" M 919.05 571.31 C 923.60 569.99 925.24 564.99 926.84 561.05 C 929.42 561.05 932.00 561.05 934.60 561.08 C 934.49 579.02 934.65 596.97 934.53 614.92 C 931.51 615.35 928.47 615.09 925.45 615.09 C 922.60 603.05 915.54 591.81 905.18 584.89 C 894.98 578.13 880.86 576.82 870.11 583.04 C 861.28 588.23 856.10 597.76 853.13 607.26 C 848.03 623.95 848.12 641.69 849.62 658.91 C 850.65 668.95 853.06 679.38 859.66 687.32 C 867.40 696.96 880.79 701.15 892.78 698.88 C 903.32 696.83 912.40 690.34 919.73 682.74 C 925.75 676.70 930.46 669.54 934.58 662.12 C 934.53 669.98 934.67 677.85 934.50 685.72 C 926.72 697.83 914.57 706.97 901.17 712.08 C 887.52 717.36 872.20 716.81 858.29 712.84 C 843.51 708.64 830.17 699.25 821.72 686.36 C 812.67 672.78 809.15 656.19 809.18 640.04 C 808.97 618.55 817.53 596.96 832.93 581.90 C 843.08 571.80 856.55 564.75 870.90 563.41 C 883.06 562.50 895.40 564.26 906.88 568.37 C 910.84 569.62 914.79 571.60 919.05 571.31 M 921.53 575.23 C 916.58 576.81 911.50 574.68 906.83 573.11 C 896.08 569.10 884.55 567.13 873.08 567.69 C 860.78 568.47 849.07 573.83 839.74 581.76 C 824.71 594.49 815.45 613.49 813.87 633.06 C 812.84 648.13 814.86 663.77 821.65 677.40 C 828.38 691.09 840.63 701.80 854.95 706.97 C 867.63 711.55 881.78 713.18 894.89 709.45 C 909.06 705.41 921.68 696.33 930.18 684.32 C 930.15 682.04 930.16 679.74 930.22 677.48 C 922.08 687.97 911.81 697.49 899.03 701.84 C 885.66 706.32 869.70 703.49 859.40 693.62 C 849.67 684.51 846.11 670.92 845.09 658.06 C 843.71 640.42 843.73 622.27 849.13 605.25 C 852.24 595.53 857.47 585.92 866.14 580.13 C 876.41 573.33 890.13 572.99 901.28 577.82 C 912.88 582.86 921.79 593.01 926.69 604.53 C 927.73 606.80 928.03 609.54 930.04 611.25 C 930.37 595.95 929.92 580.63 930.28 565.32 C 928.05 569.12 925.94 573.59 921.53 575.23 Z" />
<path fill="#c2ac6d" opacity="1.00" d=" M 939.75 564.42 C 959.50 564.36 979.25 564.41 999.01 564.39 C 1007.33 564.51 1015.68 564.13 1024.00 564.63 C 1045.48 566.28 1066.39 577.63 1078.19 595.87 C 1089.60 613.17 1091.92 635.03 1088.71 655.13 C 1085.86 672.20 1076.90 688.47 1062.99 698.97 C 1049.16 709.70 1031.32 714.43 1013.96 713.68 C 989.12 713.65 964.28 713.71 939.44 713.64 C 939.51 710.04 939.50 706.45 939.49 702.86 C 944.75 702.87 950.52 703.23 955.13 700.21 C 958.18 698.26 959.17 694.45 959.10 691.03 C 959.09 656.36 959.10 621.68 959.10 587.01 C 959.17 583.59 958.14 579.79 955.08 577.88 C 950.57 574.92 944.93 575.20 939.77 575.17 C 939.79 571.59 939.79 568.00 939.75 564.42 M 943.58 568.89 C 943.86 570.18 944.63 570.82 945.90 570.80 C 949.98 571.23 954.24 571.85 957.69 574.26 C 961.59 576.72 963.48 581.43 963.49 585.91 C 963.54 620.95 963.48 655.99 963.52 691.04 C 963.66 695.60 962.18 700.53 958.38 703.35 C 954.27 706.53 948.91 707.10 943.90 707.48 C 943.89 707.92 943.88 708.79 943.87 709.23 C 968.59 709.26 993.31 709.22 1018.03 709.25 C 1031.68 709.24 1045.44 705.47 1056.83 697.84 C 1070.04 689.18 1079.45 675.25 1083.14 659.94 C 1087.89 639.86 1086.19 617.46 1075.24 599.61 C 1064.24 581.62 1043.84 570.44 1023.00 569.03 C 1014.35 568.56 1005.68 568.94 997.02 568.82 C 979.21 568.87 961.39 568.73 943.58 568.89 Z" />
<path fill="#c2ac6d" opacity="1.00" d=" M 993.45 573.37 C 1002.28 573.59 1011.19 572.72 1019.96 573.90 C 1029.97 575.67 1039.38 581.79 1044.17 590.89 C 1049.91 601.68 1052.35 613.89 1053.59 625.96 C 1055.02 638.67 1054.03 651.56 1051.55 664.08 C 1050.16 670.68 1048.23 677.22 1045.31 683.32 C 1039.96 694.34 1028.34 702.25 1016.00 702.44 C 1012.01 702.43 1008.02 702.51 1004.05 702.41 C 998.58 702.24 993.70 697.39 993.53 691.92 C 993.44 652.41 993.60 612.89 993.45 573.37 M 997.92 577.77 C 997.94 615.53 997.89 653.28 997.94 691.03 C 997.84 694.08 1000.12 697.06 1003.09 697.76 C 1007.02 698.13 1011.00 697.84 1014.96 697.94 C 1022.83 698.20 1030.49 694.53 1035.92 688.95 C 1041.25 683.56 1043.74 676.17 1045.77 669.04 C 1051.21 648.46 1051.12 626.42 1045.39 605.91 C 1042.70 596.76 1038.53 587.01 1029.72 582.23 C 1020.21 576.16 1008.58 578.04 997.92 577.77 Z" />
<path fill="#c2ac6d" opacity="1.00" d=" M 244.81 770.85 C 269.40 751.43 300.52 739.60 332.04 740.36 C 357.64 740.04 383.40 744.40 407.22 753.86 C 415.16 757.16 424.13 760.60 432.73 757.76 C 439.32 755.64 442.97 748.90 443.84 742.40 C 448.66 742.35 453.48 742.36 458.30 742.39 C 458.23 776.87 458.29 811.36 458.27 845.84 C 453.16 845.80 448.06 845.82 442.95 845.82 C 437.89 830.31 430.45 815.47 420.28 802.67 C 406.94 785.85 388.65 772.76 367.97 766.69 C 353.43 761.95 337.47 762.13 322.98 766.99 C 309.36 771.40 297.53 780.56 289.09 792.05 C 277.57 807.52 271.32 826.20 267.47 844.91 C 263.52 864.68 262.21 884.89 262.23 905.02 C 262.30 926.26 263.26 947.55 266.69 968.54 C 269.49 984.51 273.73 1000.64 282.67 1014.38 C 289.46 1024.88 299.79 1032.91 311.44 1037.34 C 325.52 1042.91 341.06 1044.12 355.97 1041.98 C 365.28 1040.30 375.09 1037.74 382.18 1031.10 C 382.08 1005.72 382.18 980.34 382.14 954.96 C 382.01 947.65 380.36 939.42 373.95 934.98 C 365.50 929.36 354.88 931.53 345.36 931.10 C 345.33 925.86 345.38 920.62 345.31 915.40 C 393.44 915.36 441.57 915.42 489.70 915.36 C 489.68 920.59 489.69 925.82 489.68 931.05 C 480.20 931.03 469.45 932.35 462.71 939.78 C 457.91 944.90 456.92 952.29 457.31 959.03 C 457.33 986.62 457.30 1014.21 457.33 1041.80 C 438.26 1051.44 417.74 1058.03 396.84 1062.30 C 379.79 1065.66 362.43 1067.83 345.04 1067.63 C 314.37 1068.52 283.48 1060.50 257.07 1044.89 C 234.13 1031.34 214.75 1011.76 201.77 988.46 C 182.65 954.34 177.24 913.45 183.50 875.10 C 190.36 834.48 212.27 796.30 244.81 770.85 Z" />
<path fill="#c2ac6d" opacity="1.00" d=" M 926.95 744.79 C 968.15 743.39 1010.39 756.89 1041.10 784.88 C 1069.99 810.52 1087.52 847.65 1091.61 885.85 C 1094.30 911.77 1092.41 938.37 1084.22 963.21 C 1072.84 998.52 1048.42 1029.54 1016.23 1048.12 C 979.13 1069.86 933.53 1075.03 891.91 1065.41 C 854.77 1056.78 820.86 1034.18 799.66 1002.35 C 774.43 965.13 767.01 917.64 774.93 873.81 C 779.50 848.76 789.75 824.63 805.41 804.49 C 819.48 786.35 837.73 771.44 858.39 761.40 C 879.65 750.88 903.29 745.58 926.95 744.79 M 922.62 766.82 C 907.06 769.00 892.88 777.82 883.13 790.01 C 869.97 806.30 863.25 826.70 859.09 846.96 C 853.73 874.96 852.97 903.65 854.57 932.05 C 856.17 954.77 859.56 977.68 868.18 998.89 C 874.48 1014.45 884.11 1029.35 898.35 1038.71 C 914.92 1049.83 936.94 1051.59 955.43 1044.46 C 970.11 1038.71 981.74 1026.91 989.50 1013.40 C 1001.45 992.67 1006.39 968.81 1009.07 945.28 C 1011.46 920.54 1011.47 895.59 1009.19 870.85 C 1006.78 849.09 1002.50 827.18 992.75 807.41 C 986.59 795.27 978.19 783.87 966.71 776.30 C 953.96 767.58 937.79 764.56 922.62 766.82 Z" />
<path fill="#c2ac6d" opacity="1.00" d=" M 491.04 748.09 C 574.77 748.05 658.51 748.08 742.24 748.07 C 742.23 777.80 742.24 807.54 742.23 837.27 C 737.59 837.24 732.95 837.23 728.31 837.27 C 727.53 820.43 722.79 803.23 711.89 790.05 C 699.46 774.64 679.27 767.64 659.95 767.37 C 641.48 767.40 623.02 767.35 604.56 767.40 C 604.65 807.90 604.59 848.41 604.59 888.92 C 612.00 888.76 619.57 889.57 626.82 887.58 C 637.26 885.01 646.34 878.04 651.94 868.91 C 660.02 855.81 662.56 840.01 662.40 824.82 C 666.84 824.82 671.28 824.81 675.73 824.83 C 675.70 875.81 675.66 926.79 675.75 977.77 C 671.29 977.81 666.83 977.81 662.38 977.78 C 662.58 962.98 660.26 947.74 653.28 934.53 C 648.31 925.17 640.28 917.16 630.18 913.58 C 622.04 910.45 613.17 910.57 604.59 910.62 C 604.61 944.74 604.60 978.87 604.60 1012.99 C 604.59 1018.63 604.20 1024.62 606.88 1029.80 C 610.32 1036.92 618.10 1041.41 625.95 1041.28 C 638.63 1041.26 651.31 1041.30 663.99 1041.26 C 684.89 1040.83 705.20 1031.60 719.99 1016.96 C 734.36 1003.28 743.92 984.87 747.62 965.44 C 751.86 965.47 756.11 965.47 760.35 965.44 C 755.44 997.89 750.84 1030.39 745.92 1062.84 C 660.96 1062.95 576.00 1062.88 491.03 1062.87 C 491.08 1058.03 491.12 1053.19 491.00 1048.36 C 501.10 1048.14 512.05 1049.61 521.15 1044.18 C 528.53 1039.82 532.56 1031.41 533.08 1023.05 C 533.88 1012.06 533.25 1001.02 533.45 990.01 C 533.46 923.00 533.44 855.98 533.46 788.97 C 533.46 781.92 531.25 774.77 526.53 769.44 C 522.14 764.49 515.75 760.73 508.96 761.10 C 503.01 761.13 497.06 761.11 491.11 761.13 C 491.04 756.78 491.09 752.44 491.04 748.09 Z" />
</g>
<g id="#299dd8ff">
<path fill="#299dd8" opacity="1.00" d=" M 599.57 564.30 C 602.74 561.46 605.84 558.55 608.98 555.68 C 615.01 562.76 620.44 570.36 625.06 578.43 C 621.67 581.41 618.31 584.41 614.94 587.42 C 610.52 579.27 605.27 571.60 599.57 564.30 Z" />
<path fill="#299dd8" opacity="1.00" d=" M 217.95 580.49 C 221.41 573.68 224.87 566.89 228.37 560.10 C 243.44 564.52 257.98 570.68 271.82 578.07 C 268.90 583.69 265.97 589.31 263.05 594.94 C 267.76 594.89 272.46 595.03 277.17 594.91 C 278.68 594.97 279.74 593.67 280.98 593.02 C 286.13 597.77 291.32 602.49 296.46 607.25 C 295.19 608.54 293.74 609.62 292.03 610.24 C 281.92 624.03 271.38 637.58 259.24 649.65 C 260.30 650.17 261.36 650.70 262.42 651.24 C 261.16 652.58 259.70 653.72 258.00 654.45 C 258.00 674.80 258.00 695.15 258.00 715.50 C 250.56 715.50 243.13 715.50 235.69 715.50 C 235.68 699.47 235.70 683.43 235.68 667.40 C 223.16 676.78 210.12 685.56 196.10 692.53 C 191.63 685.81 187.15 679.09 182.46 672.52 C 197.33 666.13 211.29 657.77 224.46 648.40 C 236.56 639.66 248.19 629.99 257.53 618.27 C 238.00 618.23 218.47 618.26 198.94 618.25 C 198.94 610.48 198.94 602.71 198.94 594.94 C 216.45 594.92 233.96 594.98 251.47 594.91 C 240.59 589.46 229.33 584.80 217.95 580.49 Z" />
<path fill="#299dd8" opacity="1.00" d=" M 404.81 564.97 C 413.53 565.33 422.24 565.57 430.95 566.08 C 430.23 568.24 428.56 569.63 426.41 570.29 C 426.47 579.42 426.58 588.55 426.68 597.68 C 439.14 597.70 451.60 597.68 464.06 597.69 C 464.06 605.79 464.06 613.89 464.06 622.00 C 451.62 622.00 439.18 622.00 426.74 622.00 C 426.94 644.01 427.13 666.01 427.31 688.02 C 427.27 694.89 426.73 702.58 421.87 707.92 C 417.34 712.77 410.39 713.89 404.10 714.51 C 397.75 715.07 391.37 715.01 385.00 715.00 C 383.78 707.05 381.96 699.20 379.46 691.55 C 387.30 691.56 395.20 692.16 402.99 691.22 C 405.22 691.20 405.89 688.89 405.69 687.08 C 405.62 671.92 405.41 656.77 405.29 641.61 C 391.83 661.26 374.89 678.49 355.63 692.49 C 351.26 685.41 346.22 678.72 340.24 672.94 C 361.15 659.85 379.03 642.16 393.16 622.00 C 378.03 621.99 362.89 622.00 347.75 622.00 C 347.75 613.89 347.75 605.79 347.75 597.69 C 366.87 597.69 385.99 597.68 405.11 597.69 C 404.99 586.78 404.95 575.87 404.81 564.97 Z" />
<path fill="#299dd8" opacity="1.00" d=" M 577.00 573.30 C 580.20 570.41 583.38 567.51 586.59 564.64 C 592.75 571.75 598.12 579.54 602.51 587.87 C 599.14 590.88 595.75 593.86 592.39 596.89 C 587.95 588.61 582.80 580.70 577.00 573.30 Z" />
<path fill="#299dd8" opacity="1.00" d=" M 710.81 564.97 C 719.53 565.34 728.26 565.55 736.98 566.10 C 736.22 568.26 734.52 569.63 732.38 570.33 C 732.50 579.45 732.56 588.56 732.68 597.68 C 745.14 597.70 757.60 597.68 770.06 597.69 C 770.06 605.79 770.06 613.89 770.06 622.00 C 757.62 622.00 745.18 621.99 732.74 622.00 C 732.95 643.68 733.11 665.35 733.31 687.03 C 733.29 693.54 733.04 700.58 729.27 706.17 C 726.48 710.34 721.64 712.55 716.86 713.52 C 708.36 715.25 699.62 714.95 691.00 715.00 C 689.78 707.05 687.95 699.20 685.47 691.55 C 693.30 691.56 701.21 692.16 709.00 691.22 C 711.25 691.20 711.89 688.85 711.69 687.03 C 711.62 671.89 711.41 656.75 711.30 641.61 C 697.84 661.26 680.89 678.49 661.63 692.49 C 657.26 685.41 652.22 678.72 646.24 672.94 C 667.15 659.85 685.02 642.16 699.16 622.01 C 684.03 621.99 668.89 622.00 653.75 622.00 C 653.75 613.89 653.75 605.79 653.75 597.69 C 672.87 597.69 691.99 597.69 711.12 597.69 C 710.99 586.78 710.95 575.87 710.81 564.97 Z" />
<path fill="#299dd8" opacity="1.00" d=" M 513.00 590.09 C 516.28 583.41 519.54 576.73 522.84 570.07 C 535.26 574.64 547.43 580.01 558.80 586.83 C 555.25 594.07 551.68 601.31 548.12 608.54 C 537.15 601.11 525.32 594.98 513.00 590.09 Z" />
<path fill="#299dd8" opacity="1.00" d=" M 600.53 596.98 C 606.58 602.92 612.86 608.65 619.51 613.92 C 608.24 641.44 590.32 666.38 567.00 684.94 C 554.46 695.01 540.37 703.09 525.45 709.06 C 525.18 711.06 524.21 712.79 522.84 714.25 C 517.48 705.68 512.21 697.05 506.91 688.45 C 524.03 682.41 540.46 674.01 554.59 662.52 C 575.72 645.56 590.84 622.09 600.53 596.98 Z" />
<path fill="#299dd8" opacity="1.00" d=" M 505.09 611.49 C 517.43 615.55 529.46 620.70 540.63 627.38 C 537.54 634.81 534.37 642.21 531.24 649.63 C 520.02 642.74 508.10 636.97 495.70 632.53 C 498.82 625.51 501.96 618.50 505.09 611.49 Z" />
<path fill="#299dd8" opacity="1.00" d=" M 262.49 661.56 C 267.19 655.60 271.87 649.64 276.62 643.73 C 289.88 652.02 302.56 661.31 314.00 672.01 C 308.68 678.57 303.37 685.13 298.05 691.69 C 287.00 680.74 275.23 670.48 262.49 661.56 Z" />
</g>
</svg>
