<?xml version="1.0" encoding="UTF-8" ?>
<!DOCTYPE svg PUBLIC "-//W3C//DTD SVG 1.1//EN" "http://www.w3.org/Graphics/SVG/1.1/DTD/svg11.dtd">
<svg width="1276pt" height="1276pt" viewBox="0 0 1276 1276" version="1.1" xmlns="http://www.w3.org/2000/svg">
<g id="#ff1400ff">
<path fill="#ff1400" opacity="1.00" d=" M 468.24 184.03 C 562.84 183.97 657.43 183.99 752.03 184.02 C 752.00 202.93 751.94 221.85 752.05 240.75 C 808.79 240.71 865.53 240.74 922.27 240.74 C 922.29 259.64 922.21 278.54 922.31 297.44 C 884.44 297.58 846.57 297.46 808.70 297.51 C 789.81 297.49 770.92 297.50 752.04 297.50 C 733.11 297.50 714.19 297.51 695.27 297.50 C 657.42 297.49 619.58 297.51 581.73 297.49 C 524.99 297.48 468.24 297.46 411.50 297.50 C 411.49 278.58 411.50 259.66 411.50 240.74 C 430.41 240.74 449.32 240.71 468.23 240.75 C 468.30 221.84 468.28 202.94 468.24 184.03 Z" />
<path fill="#ff1400" opacity="1.00" d=" M 411.41 581.39 C 430.37 581.10 449.34 581.35 468.31 581.26 C 487.22 581.26 506.12 581.28 525.03 581.25 C 525.02 637.96 524.87 694.66 525.11 751.37 C 506.14 751.73 487.16 751.31 468.18 751.58 C 468.37 770.47 468.22 789.37 468.26 808.27 C 449.40 808.32 430.54 808.15 411.68 808.35 C 411.26 789.41 411.62 770.45 411.50 751.50 C 373.67 751.50 335.83 751.51 298.00 751.49 C 298.00 732.57 297.99 713.65 298.00 694.74 C 316.91 694.73 335.82 694.74 354.73 694.73 C 354.74 675.83 354.73 656.93 354.74 638.03 C 373.68 637.88 392.62 638.18 411.56 637.88 C 411.36 619.05 411.66 600.22 411.41 581.39 Z" />
<path fill="#ff1400" opacity="1.00" d=" M 581.73 581.25 C 619.58 581.27 657.42 581.27 695.27 581.25 C 695.26 619.08 695.28 656.91 695.25 694.74 C 657.45 694.78 619.64 694.62 581.84 694.82 C 581.59 656.97 581.81 619.11 581.73 581.25 Z" />
<path fill="#ff1400" opacity="1.00" d=" M 752.03 581.26 C 770.92 581.28 789.80 581.26 808.69 581.26 C 827.65 581.33 846.61 581.14 865.56 581.36 C 865.36 600.19 865.66 619.02 865.41 637.84 C 884.35 638.18 903.31 637.96 922.26 637.97 C 922.28 656.89 922.25 675.81 922.27 694.73 C 941.18 694.74 960.09 694.73 979.00 694.74 C 979.00 713.65 979.00 732.57 979.00 751.49 C 941.16 751.51 903.33 751.49 865.50 751.50 C 865.41 770.44 865.66 789.39 865.38 808.33 C 846.50 808.18 827.62 808.30 808.74 808.27 C 808.73 789.35 808.72 770.44 808.75 751.53 C 789.80 751.39 770.84 751.67 751.90 751.39 C 752.21 694.68 751.84 637.97 752.03 581.26 Z" />
</g>
<g id="#ffce9dff">
<path fill="#ffce9d" opacity="1.00" d=" M 581.73 297.49 C 619.58 297.51 657.42 297.49 695.27 297.50 C 695.26 335.32 695.28 373.15 695.26 410.97 C 714.19 411.04 733.11 410.95 752.04 411.01 C 751.91 429.92 752.07 448.83 751.97 467.74 C 733.12 467.66 714.26 467.87 695.41 467.63 C 695.08 486.58 695.35 505.54 695.27 524.50 C 733.07 524.50 770.86 524.49 808.66 524.50 C 808.80 543.42 808.75 562.34 808.69 581.26 C 789.80 581.26 770.92 581.28 752.03 581.26 C 733.11 581.23 714.19 581.24 695.27 581.25 C 657.42 581.27 619.58 581.27 581.73 581.25 C 562.83 581.24 543.93 581.24 525.03 581.25 C 506.12 581.28 487.22 581.26 468.31 581.26 C 468.22 562.34 468.27 543.42 468.29 524.50 C 468.39 505.54 467.97 486.57 468.50 467.63 C 506.24 467.87 543.99 467.67 581.73 467.73 C 581.76 448.84 581.70 429.95 581.76 411.06 C 562.84 410.84 543.92 411.12 525.01 410.98 C 524.98 392.07 524.96 373.16 525.05 354.26 C 543.96 354.21 562.87 354.39 581.78 354.17 C 581.67 335.28 581.77 316.38 581.73 297.49 Z" />
<path fill="#ffce9d" opacity="1.00" d=" M 752.04 297.50 C 770.92 297.50 789.81 297.49 808.70 297.51 C 808.78 316.42 808.71 335.34 808.74 354.26 C 846.54 354.22 884.35 354.37 922.16 354.19 C 922.40 373.11 922.22 392.03 922.25 410.96 C 941.16 411.07 960.07 411.01 978.98 410.98 C 979.00 429.90 979.03 448.83 978.96 467.76 C 960.06 467.70 941.15 467.75 922.24 467.74 C 884.42 467.76 846.61 467.68 808.79 467.78 C 808.65 448.86 808.77 429.93 808.73 411.01 C 789.84 411.02 770.94 410.97 752.04 411.01 C 751.95 373.18 752.01 335.34 752.04 297.50 Z" />
<path fill="#ffce9d" opacity="1.00" d=" M 411.44 354.40 C 430.35 354.07 449.28 354.39 468.20 354.24 C 468.39 392.07 468.15 429.90 468.32 467.73 C 449.47 467.73 430.62 467.74 411.77 467.73 L 411.36 467.73 C 411.65 429.96 411.49 392.18 411.44 354.40 Z" />
<path fill="#ffce9d" opacity="1.00" d=" M 298.00 751.49 C 335.83 751.51 373.67 751.50 411.50 751.50 C 411.62 770.45 411.26 789.41 411.68 808.35 C 430.54 808.15 449.40 808.32 468.26 808.27 C 468.23 827.17 468.24 846.07 468.26 864.97 C 449.32 865.04 430.38 864.86 411.45 865.06 C 411.55 883.95 411.43 902.85 411.51 921.74 C 373.69 921.75 335.87 921.69 298.05 921.77 C 297.93 865.01 298.03 808.25 298.00 751.49 Z" />
<path fill="#ffce9d" opacity="1.00" d=" M 524.96 751.50 C 543.85 751.48 562.75 751.60 581.64 751.44 C 581.71 770.41 581.93 789.41 581.53 808.37 C 562.70 808.09 543.86 808.31 525.03 808.26 C 524.98 789.34 525.11 770.42 524.96 751.50 Z" />
<path fill="#ffce9d" opacity="1.00" d=" M 695.22 808.16 C 695.42 789.25 695.10 770.34 695.37 751.44 C 714.26 751.61 733.15 751.47 752.04 751.50 C 751.90 770.42 752.02 789.34 751.97 808.26 C 733.05 808.17 714.13 808.37 695.22 808.16 Z" />
<path fill="#ffce9d" opacity="1.00" d=" M 865.50 751.50 C 903.33 751.49 941.16 751.51 979.00 751.49 C 978.99 808.24 979.02 864.99 978.98 921.75 C 941.15 921.72 903.32 921.73 865.49 921.74 C 865.62 902.87 865.35 884.00 865.63 865.14 C 846.67 864.75 827.70 865.09 808.74 864.97 C 808.76 846.07 808.76 827.17 808.74 808.27 C 827.62 808.30 846.50 808.18 865.38 808.33 C 865.66 789.39 865.41 770.44 865.50 751.50 Z" />
</g>
<g id="#75341fff">
<path fill="#75341f" opacity="1.00" d=" M 411.49 354.27 C 411.51 335.34 411.49 316.42 411.50 297.50 C 468.24 297.46 524.99 297.48 581.73 297.49 C 581.77 316.38 581.67 335.28 581.78 354.17 C 562.87 354.39 543.96 354.21 525.05 354.26 C 524.96 373.16 524.98 392.07 525.01 410.98 C 543.92 411.12 562.84 410.84 581.76 411.06 C 581.70 429.95 581.76 448.84 581.73 467.73 C 543.99 467.67 506.24 467.87 468.50 467.63 C 467.97 486.57 468.39 505.54 468.29 524.50 C 450.53 524.52 432.76 524.47 415.00 524.53 C 413.59 524.76 412.39 524.12 411.46 523.14 C 411.73 504.67 411.11 486.17 411.77 467.73 C 430.62 467.74 449.47 467.73 468.32 467.73 C 468.15 429.90 468.39 392.07 468.20 354.24 C 449.28 354.39 430.35 354.07 411.44 354.40 C 411.49 392.18 411.65 429.96 411.36 467.73 C 392.61 467.69 373.85 467.81 355.10 467.68 L 354.76 467.30 C 354.62 429.70 354.90 392.08 354.62 354.48 C 373.56 353.98 392.54 354.41 411.49 354.27 Z" />
</g>
<g id="#000000ff">
<path fill="#000000" opacity="1.00" d=" M 695.27 297.50 C 714.19 297.51 733.11 297.50 752.04 297.50 C 752.01 335.34 751.95 373.18 752.04 411.01 C 733.11 410.95 714.19 411.04 695.26 410.97 C 695.28 373.15 695.26 335.32 695.27 297.50 Z" />
<path fill="#000000" opacity="1.00" d=" M 752.04 411.01 C 770.94 410.97 789.84 411.02 808.73 411.01 C 808.77 429.93 808.65 448.86 808.79 467.78 C 846.61 467.68 884.42 467.76 922.24 467.74 C 922.34 486.61 922.17 505.49 922.33 524.36 C 884.45 524.69 846.55 524.41 808.66 524.50 C 770.86 524.49 733.07 524.50 695.27 524.50 C 695.35 505.54 695.08 486.58 695.41 467.63 C 714.26 467.87 733.12 467.66 751.97 467.74 C 752.07 448.83 751.91 429.92 752.04 411.01 Z" />
</g>
<g id="#0011ffff">
<path fill="#0011ff" opacity="1.00" d=" M 525.03 581.25 C 543.93 581.24 562.83 581.24 581.73 581.25 C 581.81 619.11 581.59 656.97 581.84 694.82 C 619.64 694.62 657.45 694.78 695.25 694.74 C 695.28 656.91 695.26 619.08 695.27 581.25 C 714.19 581.24 733.11 581.23 752.03 581.26 C 751.84 637.97 752.21 694.68 751.90 751.39 C 770.84 751.67 789.80 751.39 808.75 751.53 C 808.72 770.44 808.73 789.35 808.74 808.27 C 808.76 827.17 808.76 846.07 808.74 864.97 C 827.70 865.09 846.67 864.75 865.63 865.14 C 865.35 884.00 865.62 902.87 865.49 921.74 C 865.47 940.66 865.59 959.58 865.43 978.50 C 827.64 978.51 789.84 978.49 752.05 978.50 C 733.11 978.46 714.17 978.57 695.24 978.45 C 695.31 959.55 695.25 940.64 695.26 921.73 C 657.42 921.73 619.58 921.73 581.73 921.74 C 581.78 940.62 581.63 959.51 581.81 978.40 C 562.86 978.63 543.90 978.43 524.95 978.50 C 487.15 978.49 449.36 978.51 411.57 978.50 C 411.41 959.58 411.53 940.66 411.51 921.74 C 411.43 902.85 411.55 883.95 411.45 865.06 C 430.38 864.86 449.32 865.04 468.26 864.97 C 468.24 846.07 468.23 827.17 468.26 808.27 C 468.22 789.37 468.37 770.47 468.18 751.58 C 487.16 751.31 506.14 751.73 525.11 751.37 C 524.87 694.66 525.02 637.96 525.03 581.25 M 524.96 751.50 C 525.11 770.42 524.98 789.34 525.03 808.26 C 543.86 808.31 562.70 808.09 581.53 808.37 C 581.93 789.41 581.71 770.41 581.64 751.44 C 562.75 751.60 543.85 751.48 524.96 751.50 M 695.22 808.16 C 714.13 808.37 733.05 808.17 751.97 808.26 C 752.02 789.34 751.90 770.42 752.04 751.50 C 733.15 751.47 714.26 751.61 695.37 751.44 C 695.10 770.34 695.42 789.25 695.22 808.16 Z" />
</g>
<g id="#9a3600ff">
<path fill="#9a3600" opacity="1.00" d=" M 354.68 978.64 C 373.64 978.34 392.61 978.62 411.57 978.50 C 449.36 978.51 487.15 978.49 524.95 978.50 C 524.93 1016.33 524.94 1054.16 524.94 1091.99 C 449.31 1092.01 373.67 1092.00 298.03 1091.99 C 298.05 1073.08 298.01 1054.17 298.06 1035.26 C 316.97 1035.24 335.90 1035.47 354.80 1035.15 C 354.63 1016.31 354.86 997.47 354.68 978.64 Z" />
<path fill="#9a3600" opacity="1.00" d=" M 865.43 978.50 C 884.38 978.62 903.34 978.36 922.29 978.63 C 922.20 997.50 922.29 1016.36 922.24 1035.23 C 941.13 1035.35 960.03 1035.32 978.92 1035.25 C 979.02 1054.16 978.93 1073.08 978.96 1092.00 C 903.33 1092.00 827.69 1092.00 752.06 1092.00 C 752.06 1054.16 752.07 1016.33 752.05 978.50 C 789.84 978.49 827.64 978.51 865.43 978.50 Z" />
</g>
</svg>
