<?xml version="1.0" encoding="UTF-8" ?>
<!DOCTYPE svg PUBLIC "-//W3C//DTD SVG 1.1//EN" "http://www.w3.org/Graphics/SVG/1.1/DTD/svg11.dtd">
<svg width="1276pt" height="1276pt" viewBox="0 0 1276 1276" version="1.1" xmlns="http://www.w3.org/2000/svg">
<g id="#e31e26ff">
<path fill="#e31e26" opacity="1.00" d=" M 539.01 282.68 C 558.64 281.60 578.31 282.21 597.96 282.06 C 646.75 282.04 695.53 282.09 744.32 282.03 C 744.62 282.33 745.23 282.93 745.53 283.22 C 788.52 286.10 831.12 295.71 871.00 312.08 C 925.33 334.37 974.36 369.92 1011.49 415.51 C 1038.74 448.77 1059.64 487.21 1072.95 528.09 C 1101.36 614.80 1095.79 712.53 1055.72 794.71 C 1038.18 830.73 1014.34 863.70 985.42 891.44 C 955.45 920.55 920.04 943.95 881.88 960.89 C 829.88 984.05 772.87 995.03 716.08 995.60 C 689.06 995.43 662.03 996.13 635.02 995.59 C 608.07 995.53 581.12 995.74 554.19 995.48 C 500.28 994.01 446.33 983.27 396.89 961.42 C 353.58 942.48 313.88 915.04 281.43 880.64 C 254.94 852.80 233.36 820.35 217.67 785.29 C 198.96 743.40 188.68 697.79 187.40 651.94 C 185.58 600.89 194.59 549.35 214.19 502.12 C 230.89 461.88 255.18 424.78 285.57 393.56 C 318.50 359.46 358.55 332.41 402.13 313.85 C 445.40 295.35 492.07 285.23 539.01 282.68 M 535.49 369.42 C 535.34 369.77 535.04 370.47 534.89 370.82 C 485.10 375.37 435.61 389.99 393.55 417.49 C 362.00 437.89 334.91 465.27 315.29 497.34 C 293.99 531.89 281.46 571.59 277.83 611.94 C 273.56 657.93 280.10 705.14 298.16 747.74 C 312.79 782.38 335.25 813.73 363.54 838.52 C 388.32 860.39 417.43 877.17 448.41 888.54 C 482.80 901.26 519.45 907.17 556.02 908.18 C 586.00 908.14 615.97 908.18 645.95 908.16 C 672.69 907.94 699.43 908.72 726.17 908.13 C 725.75 908.43 724.93 909.01 724.51 909.30 C 718.77 908.09 712.87 908.91 707.06 908.69 C 698.83 908.92 690.56 908.16 682.37 909.11 C 683.96 910.40 686.09 910.01 687.99 910.12 C 696.31 910.03 704.63 910.11 712.95 910.04 C 717.74 909.94 722.62 910.54 727.34 909.33 C 731.23 908.32 735.28 909.08 739.24 908.67 L 738.14 907.41 C 754.07 905.86 770.02 904.06 785.66 900.52 C 826.86 891.79 866.54 874.66 900.02 848.95 C 930.95 825.31 956.37 794.46 973.38 759.42 C 975.99 753.63 979.14 747.97 980.85 741.85 L 981.76 741.70 L 982.22 740.71 L 981.74 739.92 C 987.24 727.13 990.91 713.55 993.97 699.98 C 999.45 675.73 1001.06 650.81 1000.32 626.02 C 999.07 604.08 996.08 582.05 989.66 561.00 L 990.19 560.25 L 989.81 559.23 L 988.92 559.01 C 988.04 553.76 985.89 548.81 984.23 543.77 C 979.20 529.83 972.93 516.33 965.57 503.46 C 965.55 503.43 965.52 503.36 965.50 503.33 C 956.07 487.07 945.07 471.60 932.07 458.00 L 932.32 457.12 L 931.60 456.30 L 930.67 456.41 C 903.14 426.86 868.30 404.56 830.62 390.26 C 799.21 378.24 765.82 372.15 732.37 369.71 L 733.48 368.22 C 727.31 367.49 721.10 367.91 714.92 367.81 C 662.28 367.81 609.63 367.77 556.98 367.81 C 549.84 368.65 542.63 368.67 535.49 369.42 Z" />
<path fill="#e31e26" opacity="1.00" d=" M 475.03 470.33 C 510.25 470.37 545.48 470.37 580.71 470.33 C 628.90 548.26 677.08 626.21 725.19 704.19 C 725.16 626.24 725.20 548.28 725.17 470.33 C 760.05 470.38 794.92 470.36 829.80 470.34 C 829.84 582.39 829.65 694.45 829.89 806.51 C 794.99 806.59 760.09 806.60 725.19 806.50 C 692.81 754.04 660.09 701.80 627.61 649.40 C 611.56 623.82 595.85 598.00 579.63 572.52 C 579.62 630.69 579.63 688.87 579.63 747.04 C 579.77 766.76 579.33 786.51 579.85 806.22 C 578.32 805.50 576.74 804.78 575.02 804.92 C 541.66 805.09 508.30 804.97 474.93 804.99 C 474.99 693.44 474.80 581.88 475.03 470.33 Z" />
</g>
<g id="#e00a10ff">
<path fill="#e00a10" opacity="1.00" d=" M 535.49 369.42 C 542.63 368.67 549.84 368.65 556.98 367.81 C 609.63 367.77 662.28 367.81 714.92 367.81 C 721.10 367.91 727.31 367.49 733.48 368.22 L 732.37 369.71 C 683.61 369.25 634.83 369.64 586.06 369.51 C 569.00 369.58 551.89 369.02 534.89 370.82 C 535.04 370.47 535.34 369.77 535.49 369.42 Z" />
</g>
<g id="#ffffffff">
<path fill="#ffffff" opacity="1.00" d=" M 534.89 370.82 C 551.89 369.02 569.00 369.58 586.06 369.51 C 634.83 369.64 683.61 369.25 732.37 369.71 C 765.82 372.15 799.21 378.24 830.62 390.26 C 868.30 404.56 903.14 426.86 930.67 456.41 C 931.02 456.81 931.72 457.61 932.07 458.00 C 945.07 471.60 956.07 487.07 965.50 503.33 C 965.52 503.36 965.55 503.43 965.57 503.46 C 972.93 516.33 979.20 529.83 984.23 543.77 C 985.89 548.81 988.04 553.76 988.92 559.01 C 989.11 559.51 989.48 560.51 989.66 561.00 C 996.08 582.05 999.07 604.08 1000.32 626.02 C 1001.06 650.81 999.45 675.73 993.97 699.98 C 990.91 713.55 987.24 727.13 981.74 739.92 C 981.52 740.40 981.08 741.37 980.85 741.85 C 979.14 747.97 975.99 753.63 973.38 759.42 C 956.37 794.46 930.95 825.31 900.02 848.95 C 866.54 874.66 826.86 891.79 785.66 900.52 C 770.02 904.06 754.07 905.86 738.14 907.41 C 734.15 907.68 730.13 907.53 726.17 908.13 C 699.43 908.72 672.69 907.94 645.95 908.16 C 615.97 908.18 586.00 908.14 556.02 908.18 C 519.45 907.17 482.80 901.26 448.41 888.54 C 417.43 877.17 388.32 860.39 363.54 838.52 C 335.25 813.73 312.79 782.38 298.16 747.74 C 280.10 705.14 273.56 657.93 277.83 611.94 C 281.46 571.59 293.99 531.89 315.29 497.34 C 334.91 465.27 362.00 437.89 393.55 417.49 C 435.61 389.99 485.10 375.37 534.89 370.82 M 475.03 470.33 C 474.80 581.88 474.99 693.44 474.93 804.99 L 474.92 806.48 C 494.94 806.51 514.97 806.48 535.00 806.49 C 549.94 806.32 564.92 806.84 579.85 806.22 C 579.33 786.51 579.77 766.76 579.63 747.04 C 579.63 688.87 579.62 630.69 579.63 572.52 C 595.85 598.00 611.56 623.82 627.61 649.40 C 660.09 701.80 692.81 754.04 725.19 806.50 C 760.09 806.60 794.99 806.59 829.89 806.51 C 829.65 694.45 829.84 582.39 829.80 470.34 C 794.92 470.36 760.05 470.38 725.17 470.33 C 725.20 548.28 725.16 626.24 725.19 704.19 C 677.08 626.21 628.90 548.26 580.71 470.33 C 545.48 470.37 510.25 470.37 475.03 470.33 Z" />
</g>
<g id="#ca8688d5">
<path fill="#ca8688" opacity="0.84" d=" M 930.67 456.41 L 931.60 456.30 L 932.32 457.12 L 932.07 458.00 C 931.72 457.61 931.02 456.81 930.67 456.41 Z" />
</g>
<g id="#d39fa1da">
<path fill="#d39fa1" opacity="0.85" d=" M 965.50 503.33 C 965.52 503.36 965.55 503.43 965.57 503.46 C 965.55 503.43 965.52 503.36 965.50 503.33 Z" />
</g>
<g id="#cc9b9dd3">
<path fill="#cc9b9d" opacity="0.83" d=" M 988.92 559.01 L 989.81 559.23 L 990.19 560.25 L 989.66 561.00 C 989.48 560.51 989.11 559.51 988.92 559.01 Z" />
</g>
<g id="#cb9193d4">
<path fill="#cb9193" opacity="0.83" d=" M 980.85 741.85 C 981.08 741.37 981.52 740.40 981.74 739.92 L 982.22 740.71 L 981.76 741.70 L 980.85 741.85 Z" />
</g>
<g id="#df0006ff">
<path fill="#df0006" opacity="1.00" d=" M 474.93 804.99 C 508.30 804.97 541.66 805.09 575.02 804.92 C 576.74 804.78 578.32 805.50 579.85 806.22 C 564.92 806.84 549.94 806.32 535.00 806.49 C 514.97 806.48 494.94 806.51 474.92 806.48 L 474.93 804.99 Z" />
</g>
<g id="#dd050efc">
<path fill="#dd050e" opacity="1.00" d=" M 726.17 908.13 C 730.13 907.53 734.15 907.68 738.14 907.41 L 739.24 908.67 C 735.28 909.08 731.23 908.32 727.34 909.33 C 722.62 910.54 717.74 909.94 712.95 910.04 C 704.63 910.11 696.31 910.03 687.99 910.12 C 686.09 910.01 683.96 910.40 682.37 909.11 C 690.56 908.16 698.83 908.92 707.06 908.69 C 712.87 908.91 718.77 908.09 724.51 909.30 C 724.93 909.01 725.75 908.43 726.17 908.13 Z" />
</g>
</svg>
