<?xml version="1.0" encoding="UTF-8" ?>
<!DOCTYPE svg PUBLIC "-//W3C//DTD SVG 1.1//EN" "http://www.w3.org/Graphics/SVG/1.1/DTD/svg11.dtd">
<svg width="1276pt" height="1276pt" viewBox="0 0 1276 1276" version="1.1" xmlns="http://www.w3.org/2000/svg">
<g id="#7e03018e">
<path fill="#7e0301" opacity="0.56" d=" M 178.61 339.51 C 192.34 330.21 209.20 325.36 225.75 326.31 C 223.97 327.20 222.03 327.60 220.05 327.55 C 208.98 327.66 198.16 330.79 188.09 335.20 C 183.80 337.14 180.16 340.21 175.98 342.36 C 176.30 340.96 177.53 340.25 178.61 339.51 Z" />
</g>
<g id="#e40603ff">
<path fill="#e40603" opacity="1.00" d=" M 225.75 326.31 C 227.86 325.65 230.12 326.05 232.28 326.11 C 233.36 326.85 234.51 327.62 235.90 327.47 C 250.67 327.53 264.57 333.25 278.15 338.43 C 279.58 338.84 280.99 339.41 281.90 340.67 C 282.28 340.59 283.04 340.43 283.41 340.35 L 283.58 341.37 C 285.28 341.79 286.78 342.74 288.19 343.76 C 289.79 344.87 291.53 345.76 293.25 346.67 C 296.51 349.09 300.10 351.04 303.17 353.73 C 315.12 362.28 325.98 372.31 336.07 382.97 C 339.94 386.75 343.46 390.93 347.84 394.17 C 352.60 398.77 357.85 402.81 362.77 407.23 C 375.53 418.43 388.28 429.66 401.15 440.73 C 404.41 443.51 407.47 446.50 410.76 449.24 C 418.65 456.34 426.90 463.04 434.80 470.14 C 442.50 476.81 449.91 483.82 457.88 490.17 C 462.89 494.81 468.08 499.23 473.20 503.75 C 478.71 508.59 484.15 513.52 489.81 518.20 C 503.18 529.85 516.38 541.70 529.91 553.16 C 531.69 554.68 533.37 556.32 535.07 557.94 C 535.78 558.53 536.49 559.12 537.21 559.72 C 540.03 561.88 542.41 564.55 545.21 566.73 C 560.84 580.09 576.08 593.91 591.73 607.24 C 610.08 623.57 628.81 639.49 647.17 655.83 C 649.81 658.28 652.64 660.52 655.45 662.78 C 657.72 664.74 659.82 666.89 662.11 668.85 C 675.46 680.52 688.84 692.17 702.24 703.78 C 703.09 704.58 703.95 705.39 704.82 706.21 C 708.93 709.73 712.86 713.48 717.17 716.77 C 721.31 720.26 725.13 724.14 729.43 727.43 C 729.92 727.54 730.90 727.77 731.38 727.88 C 731.29 624.58 731.37 521.28 731.34 417.98 C 731.42 387.48 731.18 356.97 731.46 326.47 C 776.49 326.52 821.51 326.51 866.54 326.47 C 866.79 478.96 866.58 631.46 866.65 783.96 C 866.45 810.97 867.07 838.01 866.31 865.02 C 865.32 876.80 863.87 888.70 859.88 899.91 C 858.70 902.97 857.54 906.05 856.29 909.09 C 850.47 921.24 841.47 932.29 829.47 938.75 L 829.37 939.33 C 827.42 940.12 825.49 940.95 823.55 941.74 L 823.52 942.43 C 821.60 942.64 819.84 943.44 818.13 944.27 C 816.37 944.88 814.59 945.44 812.76 945.81 C 811.21 946.27 809.66 946.73 808.14 947.25 C 806.17 947.71 803.59 946.85 802.06 948.45 C 794.04 948.91 786.01 948.75 777.99 948.78 C 770.95 948.81 763.71 948.14 757.11 945.62 C 756.46 945.63 755.16 945.65 754.51 945.65 L 754.61 944.75 C 751.46 944.46 748.64 942.90 745.54 942.47 L 745.54 941.70 C 743.12 941.16 740.90 940.02 738.55 939.31 L 738.50 938.60 C 735.54 938.24 733.16 936.33 730.46 935.27 L 730.37 934.24 C 730.01 934.34 729.29 934.55 728.93 934.65 C 727.89 933.39 726.58 932.48 724.95 932.30 C 723.70 931.07 722.25 930.12 720.73 929.29 C 717.70 927.22 714.62 925.22 711.54 923.23 C 706.99 919.52 702.09 916.22 697.90 912.09 C 694.75 909.58 691.81 906.84 688.86 904.12 C 687.86 903.11 686.85 902.13 685.82 901.19 C 682.41 897.26 678.05 894.25 674.88 890.11 C 670.20 884.75 664.49 880.43 659.11 875.83 C 633.37 852.98 607.17 830.68 581.48 807.79 C 570.75 798.81 560.30 789.50 549.82 780.23 C 544.77 775.88 539.74 771.54 534.67 767.23 C 524.40 757.83 513.70 748.90 503.25 739.71 C 502.98 739.47 502.44 738.98 502.18 738.74 C 499.38 736.55 497.00 733.89 494.20 731.73 C 491.56 729.77 489.42 727.24 486.87 725.18 C 473.35 714.04 460.60 702.01 447.14 690.80 C 444.59 688.73 442.41 686.25 439.80 684.25 C 436.99 682.09 434.59 679.45 431.82 677.25 C 431.55 677.01 431.01 676.53 430.73 676.29 C 428.70 674.62 426.88 672.70 424.70 671.23 C 422.35 669.28 420.18 667.13 417.86 665.17 C 409.22 657.80 401.04 649.90 392.12 642.87 C 389.69 640.65 387.36 638.31 384.76 636.28 C 381.44 633.60 378.54 630.43 375.14 627.83 C 370.33 623.30 365.14 619.22 360.18 614.85 C 357.52 612.77 355.35 610.12 352.55 608.22 C 347.69 603.60 342.40 599.46 337.58 594.80 C 331.41 590.26 326.11 584.63 320.08 579.90 C 307.82 568.65 294.80 558.25 282.68 546.84 C 281.97 562.19 282.57 577.58 282.37 592.95 C 282.41 711.48 282.31 830.02 282.42 948.55 L 281.29 948.43 L 281.73 949.59 C 236.68 949.38 191.62 949.57 146.57 949.49 C 146.39 772.33 146.57 595.17 146.48 418.01 C 147.11 406.26 148.02 394.41 151.18 383.02 C 151.76 381.01 152.34 379.00 152.90 376.99 C 155.54 370.24 157.91 363.25 162.27 357.36 C 165.36 353.42 168.09 349.16 171.85 345.81 C 173.20 344.63 174.46 343.32 175.98 342.36 C 180.16 340.21 183.80 337.14 188.09 335.20 C 198.16 330.79 208.98 327.66 220.05 327.55 C 222.03 327.60 223.97 327.20 225.75 326.31 Z" />
<path fill="#e40603" opacity="1.00" d=" M 1022.90 560.76 C 1026.69 560.79 1030.25 559.19 1034.05 559.28 C 1043.56 559.11 1053.08 559.12 1062.58 559.55 L 1062.43 560.44 C 1063.97 560.51 1065.51 560.62 1067.07 560.76 C 1068.00 561.09 1068.95 561.42 1069.92 561.74 C 1071.58 562.18 1073.38 562.44 1074.89 563.37 C 1076.25 563.79 1077.61 564.21 1079.00 564.63 C 1080.74 565.47 1082.51 566.29 1084.40 566.77 L 1084.45 567.39 C 1085.79 567.62 1086.93 568.34 1087.97 569.21 C 1090.20 570.07 1092.12 571.54 1094.17 572.78 C 1102.15 577.90 1109.39 584.34 1114.78 592.20 C 1118.80 596.85 1121.69 602.32 1124.23 607.89 C 1124.83 609.58 1125.52 611.24 1126.30 612.88 C 1133.02 631.27 1132.43 652.02 1125.25 670.18 C 1118.45 686.35 1107.03 700.77 1091.81 709.73 C 1090.27 711.02 1088.60 712.23 1086.58 712.58 L 1086.42 713.41 C 1085.21 713.78 1084.03 714.21 1082.85 714.63 C 1081.53 715.27 1080.01 715.55 1078.99 716.65 C 1078.63 716.58 1077.92 716.46 1077.56 716.39 L 1077.45 717.64 C 1077.11 717.60 1076.44 717.53 1076.10 717.50 C 1074.99 718.22 1073.77 718.60 1072.43 718.64 L 1072.51 719.50 C 1071.18 719.52 1069.87 719.54 1068.57 719.57 L 1068.44 720.35 C 1067.21 720.29 1066.09 720.59 1065.09 721.24 C 1063.85 721.32 1062.62 721.39 1061.40 721.44 L 1061.52 722.36 C 1058.52 722.44 1055.53 722.56 1052.54 722.55 L 1052.42 723.48 C 1047.34 723.18 1042.18 723.99 1037.18 722.84 C 1034.34 722.33 1031.44 722.46 1028.59 722.38 C 1028.58 722.15 1028.56 721.69 1028.56 721.46 C 1027.31 721.38 1026.08 721.31 1024.85 721.25 C 1024.09 720.93 1023.35 720.60 1022.63 720.27 C 1021.28 719.79 1019.89 719.50 1018.48 719.40 L 1018.41 718.58 C 1017.79 718.52 1016.54 718.41 1015.92 718.36 C 1014.16 717.76 1012.46 717.07 1010.75 716.38 C 1009.08 715.58 1007.38 714.84 1005.86 713.81 C 1005.27 713.72 1004.08 713.54 1003.49 713.44 L 1003.49 712.73 C 1001.65 711.81 999.88 710.77 998.17 709.66 C 997.68 709.44 996.69 709.01 996.19 708.79 C 982.17 698.33 969.94 684.67 964.18 667.91 C 957.72 651.13 957.60 632.09 963.10 615.03 C 963.43 614.02 963.78 613.02 964.16 612.04 C 964.91 610.37 965.60 608.68 966.27 606.99 C 971.35 596.14 978.76 586.48 987.86 578.69 C 989.00 577.83 990.17 577.00 991.40 576.25 L 991.61 575.77 C 992.80 574.86 994.07 574.06 995.36 573.28 L 995.50 572.70 C 998.82 571.33 1001.71 569.17 1004.87 567.49 C 1005.24 567.50 1005.99 567.51 1006.37 567.51 L 1006.56 566.23 C 1006.95 566.32 1007.72 566.50 1008.11 566.59 C 1009.56 564.67 1012.21 564.96 1013.98 563.48 C 1014.34 563.58 1015.05 563.76 1015.41 563.86 L 1015.42 562.72 C 1018.00 562.47 1020.57 561.97 1022.90 560.76 Z" />
</g>
<g id="#79030188">
<path fill="#790301" opacity="0.53" d=" M 232.28 326.11 C 235.25 326.03 238.21 326.03 241.18 326.04 C 241.58 326.29 242.37 326.78 242.77 327.03 C 253.99 327.58 264.71 331.72 274.92 336.16 C 276.16 336.64 277.41 337.25 278.15 338.43 C 264.57 333.25 250.67 327.53 235.90 327.47 C 234.51 327.62 233.36 326.85 232.28 326.11 Z" />
</g>
</svg>
