<?xml version="1.0" encoding="UTF-8" ?>
<!DOCTYPE svg PUBLIC "-//W3C//DTD SVG 1.1//EN" "http://www.w3.org/Graphics/SVG/1.1/DTD/svg11.dtd">
<svg width="1276pt" height="1276pt" viewBox="0 0 1276 1276" version="1.1" xmlns="http://www.w3.org/2000/svg">
<g id="#860f1a94">
<path fill="#860f1a" opacity="0.58" d=" M 639.36 112.06 C 646.04 111.31 652.48 113.37 659.05 114.10 C 669.03 115.72 679.06 116.90 689.03 118.51 C 693.88 119.86 699.32 118.77 703.75 121.52 C 693.71 121.27 683.89 118.82 673.93 117.73 C 662.84 115.77 651.50 115.18 640.62 112.22 C 640.07 118.30 639.60 124.39 638.20 130.35 C 638.45 126.14 638.78 121.93 639.06 117.72 C 639.17 115.84 639.26 113.95 639.36 112.06 Z" />
</g>
<g id="#e81a2eff">
<path fill="#e81a2e" opacity="1.00" d=" M 640.62 112.22 C 651.50 115.18 662.84 115.77 673.93 117.73 C 683.89 118.82 693.71 121.27 703.75 121.52 C 705.48 121.56 707.21 121.64 708.95 121.73 C 711.30 122.29 713.72 122.57 716.04 123.31 C 718.50 123.50 720.98 123.60 723.47 123.63 L 723.55 124.27 C 725.43 124.42 727.30 124.69 729.12 125.25 C 732.27 125.54 735.44 125.66 738.62 125.68 C 738.90 128.73 738.23 131.71 737.34 134.60 L 736.71 134.40 C 736.32 136.16 735.86 137.91 735.45 139.67 L 734.80 139.46 C 734.39 141.50 733.85 143.51 733.35 145.53 L 732.75 145.40 C 732.35 147.17 731.88 148.92 731.44 150.67 L 730.82 150.47 C 730.49 151.93 730.14 153.39 729.74 154.84 C 729.00 156.57 728.30 158.31 727.61 160.06 C 727.54 160.28 727.40 160.72 727.33 160.94 C 726.88 162.46 726.50 164.00 726.18 165.55 L 725.57 165.34 C 725.12 167.08 724.65 168.81 724.26 170.57 L 723.65 170.47 C 723.14 172.49 722.60 174.50 722.21 176.55 L 721.51 176.31 C 721.07 178.06 720.63 179.81 720.27 181.58 L 719.77 181.44 C 719.04 184.06 718.28 186.69 716.93 189.07 C 716.77 190.29 716.65 191.52 716.57 192.76 C 716.30 192.73 715.76 192.67 715.49 192.64 C 715.19 194.17 714.79 195.68 714.44 197.20 C 713.95 198.11 713.46 199.02 712.99 199.94 C 712.75 201.15 712.53 202.37 712.34 203.59 L 711.69 203.37 C 711.41 204.56 711.11 205.75 710.81 206.94 C 710.29 208.31 709.75 209.68 709.28 211.07 C 708.74 212.35 708.23 213.63 707.68 214.90 C 707.25 216.48 706.78 218.06 706.37 219.65 L 705.78 219.44 C 705.47 221.67 704.76 223.81 703.75 225.82 C 703.28 227.41 702.78 229.00 702.34 230.61 L 701.81 230.44 C 701.47 231.87 701.09 233.30 700.66 234.72 C 699.99 236.24 699.46 237.83 699.16 239.48 L 698.39 239.57 C 698.42 239.92 698.48 240.60 698.51 240.95 C 697.58 243.31 696.68 245.68 695.58 247.97 C 695.55 248.61 695.49 249.91 695.46 250.55 L 694.36 250.49 C 694.40 250.85 694.46 251.58 694.49 251.94 C 693.57 254.31 692.66 256.67 691.60 258.98 C 691.58 259.62 691.53 260.91 691.51 261.56 L 690.59 261.37 C 690.06 263.40 689.54 265.45 689.43 267.56 C 689.14 267.50 688.58 267.40 688.30 267.35 C 687.94 269.08 687.59 270.81 687.32 272.56 L 686.63 272.37 C 686.21 274.13 685.75 275.87 685.36 277.64 L 684.52 277.45 C 684.50 278.08 684.47 279.35 684.46 279.98 C 683.84 281.26 683.25 282.56 682.63 283.85 C 682.19 285.44 681.73 287.02 681.32 288.62 L 680.70 288.41 C 680.47 289.60 680.24 290.79 680.00 291.98 C 678.75 294.39 677.94 296.99 677.27 299.62 L 676.74 299.38 C 676.37 301.15 675.93 302.91 675.52 304.68 L 674.81 304.44 C 674.42 306.50 673.88 308.53 673.38 310.57 L 672.52 310.45 C 672.50 311.09 672.46 312.37 672.43 313.02 C 672.15 313.68 671.58 315.01 671.29 315.67 L 670.84 315.51 C 670.50 317.07 670.11 318.62 669.58 320.14 C 669.59 320.46 669.61 321.09 669.62 321.41 L 668.50 321.52 C 668.51 322.19 668.52 323.54 668.53 324.21 C 668.16 324.68 667.43 325.61 667.07 326.08 C 666.67 327.87 666.38 329.69 666.14 331.52 C 663.24 331.86 660.33 331.64 657.44 331.47 L 657.57 330.60 C 655.71 330.52 653.85 330.42 652.01 330.32 C 650.99 329.94 649.99 329.58 648.98 329.24 C 644.82 328.41 640.60 327.89 636.41 327.25 L 636.61 326.54 C 634.58 326.51 632.54 326.44 630.52 326.40 L 630.43 325.27 C 629.91 325.42 628.88 325.72 628.37 325.87 L 628.52 324.72 C 626.01 324.62 623.52 324.49 621.02 324.35 C 619.70 323.90 618.38 323.50 617.06 323.09 C 615.48 322.81 613.89 322.62 612.31 322.46 C 612.36 319.12 612.52 315.79 612.58 312.46 L 613.34 312.51 C 613.42 307.47 614.83 302.56 614.59 297.51 L 615.39 297.49 C 615.44 294.56 615.61 291.61 616.41 288.77 C 618.56 282.08 618.48 275.00 619.80 268.15 C 623.21 242.07 626.89 216.02 630.27 189.93 C 630.77 184.59 632.26 179.35 632.20 173.95 C 632.27 171.74 631.97 169.48 632.54 167.31 C 632.98 168.25 633.38 169.21 633.76 170.20 C 633.74 156.80 637.17 143.68 638.20 130.35 C 639.60 124.39 640.07 118.30 640.62 112.22 Z" />
<path fill="#e81a2e" opacity="1.00" d=" M 567.05 401.78 C 570.38 401.49 573.79 401.69 577.03 400.71 C 595.04 399.88 613.13 399.99 630.97 402.78 C 633.26 403.44 635.66 403.58 638.05 403.72 C 641.33 404.52 644.62 405.32 647.96 405.88 C 649.52 406.23 651.11 406.51 652.71 406.76 L 652.41 407.48 C 653.61 407.51 654.81 407.55 656.03 407.61 C 659.00 409.02 662.21 409.88 665.54 409.61 C 665.51 410.20 665.46 410.79 665.39 411.39 C 667.10 411.43 668.83 411.50 670.56 411.55 L 670.36 412.43 C 672.38 412.94 674.42 413.45 676.50 413.81 L 676.31 414.53 C 678.04 414.97 679.79 415.41 681.55 415.78 L 681.32 416.29 C 684.33 417.26 687.24 418.52 690.17 419.74 C 693.19 421.23 696.24 422.67 699.42 423.83 L 699.37 424.25 C 703.22 425.86 706.78 428.04 710.57 429.77 L 710.54 430.14 C 714.19 431.80 717.48 434.10 720.93 436.13 C 721.99 436.89 723.03 437.66 724.10 438.45 C 724.34 438.46 724.82 438.47 725.06 438.48 C 728.75 441.75 733.07 444.20 736.87 447.34 C 738.33 448.45 739.78 449.57 741.27 450.66 C 751.42 459.11 761.11 468.17 769.77 478.17 C 771.87 480.78 774.17 483.24 776.30 485.85 C 778.22 488.55 780.25 491.18 782.30 493.80 C 785.93 499.10 789.65 504.36 792.86 509.94 C 793.48 510.99 794.13 512.06 794.78 513.13 C 795.28 514.02 795.79 514.91 796.31 515.82 C 798.18 519.21 799.96 522.66 801.68 526.15 C 802.89 528.68 804.08 531.22 805.32 533.75 C 805.74 534.88 806.20 536.01 806.67 537.15 C 807.47 538.90 808.14 540.70 808.77 542.54 L 809.29 542.40 C 809.52 543.59 809.77 544.77 810.06 545.96 C 811.34 548.48 812.15 551.21 812.80 553.96 L 813.19 553.06 C 813.80 557.01 815.23 560.76 816.35 564.59 C 817.21 566.79 817.60 569.13 817.71 571.50 L 818.30 571.52 C 818.99 574.48 819.61 577.46 819.67 580.52 L 820.27 580.43 C 820.80 584.24 821.60 588.02 821.80 591.88 C 823.83 599.74 823.53 607.92 823.72 615.97 C 823.83 626.96 823.77 637.96 823.26 648.94 C 822.58 651.62 822.53 654.43 821.74 657.10 C 821.54 659.03 821.40 660.96 821.26 662.90 C 820.16 666.35 819.37 669.91 819.32 673.55 L 818.80 673.54 C 818.49 674.75 818.17 675.95 817.82 677.16 C 817.62 678.47 817.46 679.79 817.31 681.13 C 816.92 682.06 816.56 683.01 816.23 683.97 C 815.64 686.36 815.04 688.76 814.16 691.07 C 813.77 692.52 813.48 694.01 813.22 695.50 L 812.29 695.48 C 812.34 695.84 812.43 696.56 812.48 696.91 C 811.59 699.30 810.69 701.68 809.62 704.00 C 809.57 704.63 809.48 705.90 809.43 706.53 L 808.69 706.37 C 807.67 709.47 806.36 712.48 805.25 715.56 L 804.83 715.49 C 803.98 718.00 802.90 720.42 801.67 722.77 C 801.00 724.09 800.34 725.42 799.69 726.76 C 798.08 729.82 796.50 732.90 794.78 735.90 C 789.93 744.72 784.05 752.90 778.31 761.15 C 777.09 762.71 775.87 764.26 774.67 765.84 C 773.23 767.63 771.74 769.37 770.33 771.18 C 763.60 779.77 755.83 787.45 748.05 795.06 C 741.38 801.84 734.09 807.98 726.58 813.80 C 723.94 815.86 721.28 817.89 718.56 819.85 L 718.50 820.20 C 714.16 822.91 710.06 825.98 705.78 828.77 C 701.88 831.42 697.71 833.62 693.94 836.44 C 693.70 836.46 693.21 836.50 692.97 836.53 C 691.84 837.27 690.72 838.04 689.57 838.76 C 688.71 839.33 687.85 839.92 687.01 840.52 C 686.64 840.46 685.90 840.34 685.53 840.28 L 685.42 841.15 C 684.81 841.50 683.60 842.19 682.99 842.54 C 682.62 842.48 681.90 842.37 681.54 842.32 L 681.58 843.27 C 680.57 843.73 679.58 844.20 678.59 844.68 C 675.53 846.37 672.33 847.76 669.23 849.38 C 667.96 849.83 666.71 850.31 665.46 850.76 L 665.65 851.40 C 664.20 851.78 662.77 852.21 661.34 852.62 L 661.60 853.18 C 659.73 853.76 657.90 854.44 656.12 855.24 C 655.13 855.59 654.15 855.96 653.19 856.34 C 651.24 857.18 649.27 857.96 647.30 858.71 L 647.53 859.23 C 646.00 859.53 644.47 859.86 642.98 860.27 L 642.31 860.30 L 642.40 861.31 C 641.24 861.39 640.08 861.49 638.94 861.60 C 635.64 863.74 631.68 863.94 627.87 863.72 C 625.05 861.05 621.93 858.74 618.90 856.34 C 617.31 855.14 615.75 853.91 614.20 852.69 C 610.93 849.95 607.50 847.41 604.21 844.70 C 601.13 842.21 597.98 839.81 594.88 837.36 C 593.21 836.01 591.57 834.65 589.89 833.33 C 588.53 832.31 587.18 831.27 585.84 830.24 C 583.96 828.70 582.09 827.16 580.20 825.66 C 578.63 824.51 577.10 823.31 575.54 822.16 L 575.48 821.82 C 573.81 820.62 572.18 819.37 570.52 818.18 L 570.43 817.88 C 568.63 816.56 566.91 815.15 565.20 813.72 C 564.08 812.89 562.96 812.06 561.85 811.26 C 558.52 808.58 555.23 805.85 551.83 803.27 C 550.16 801.95 548.52 800.60 546.86 799.30 C 543.53 796.60 540.10 794.05 536.81 791.32 C 535.25 790.07 533.69 788.85 532.09 787.67 C 525.67 782.43 519.13 777.32 512.58 772.23 C 510.98 770.90 509.39 769.57 507.76 768.29 C 503.29 764.73 498.67 761.35 494.38 757.56 L 493.74 757.48 C 492.13 756.02 490.49 754.60 488.81 753.24 C 485.61 750.75 482.31 748.39 479.37 745.60 L 478.64 745.44 C 474.30 741.72 469.77 738.23 465.28 734.70 C 463.62 733.43 462.02 732.10 460.41 730.78 C 458.64 729.47 456.93 728.09 455.22 726.73 C 450.46 722.89 445.63 719.15 440.87 715.32 C 439.33 714.17 437.79 713.04 436.21 711.97 C 436.64 710.23 437.21 708.55 437.81 706.88 C 438.11 705.88 438.40 704.89 438.68 703.91 C 439.27 702.63 439.84 701.35 440.44 700.09 C 440.45 699.42 440.47 698.09 440.49 697.42 L 441.31 697.62 C 441.57 696.43 441.86 695.24 442.18 694.07 C 443.11 691.69 443.96 689.27 444.69 686.83 C 445.11 685.90 445.52 684.97 445.93 684.05 C 446.19 682.83 446.43 681.62 446.66 680.41 L 447.37 680.62 C 447.54 679.39 447.72 678.17 447.92 676.96 C 448.41 676.01 448.89 675.07 449.38 674.14 C 449.76 672.52 450.19 670.92 450.59 669.33 L 451.22 669.56 C 451.60 667.47 452.11 665.42 452.60 663.36 L 453.25 663.59 C 453.47 661.26 454.20 659.03 455.39 657.02 C 455.45 656.51 455.58 655.49 455.64 654.99 C 456.68 652.67 457.56 650.29 458.45 647.92 C 458.42 647.56 458.36 646.83 458.32 646.47 L 459.18 646.53 C 459.49 644.94 459.88 643.37 460.44 641.86 C 460.42 641.54 460.38 640.90 460.36 640.59 L 461.44 640.49 C 461.48 639.14 461.52 637.81 461.58 636.48 L 462.51 636.68 C 463.06 634.55 463.65 632.41 463.53 630.20 C 463.84 630.32 464.46 630.57 464.77 630.69 C 465.27 628.36 465.63 625.97 466.74 623.83 C 467.15 622.36 467.48 620.88 467.80 619.39 L 468.33 619.64 C 469.24 615.82 470.93 612.24 471.77 608.40 L 472.33 608.59 C 472.54 607.37 472.78 606.16 473.03 604.95 C 473.45 604.02 473.87 603.09 474.30 602.17 C 475.41 598.57 476.79 595.05 477.71 591.39 L 478.46 591.59 C 478.51 590.95 478.60 589.65 478.65 589.00 C 479.04 587.83 479.41 586.67 479.78 585.50 L 480.27 585.57 C 480.58 584.33 480.93 583.11 481.30 581.90 C 481.36 581.40 481.49 580.40 481.55 579.90 L 482.18 580.90 C 482.52 578.69 483.04 576.52 483.57 574.37 L 484.19 574.55 C 484.53 572.98 484.93 571.42 485.40 569.89 C 485.40 569.56 485.41 568.88 485.42 568.55 L 486.25 568.56 C 486.51 566.33 487.27 564.21 488.19 562.18 C 488.52 561.14 488.88 560.11 489.25 559.10 C 489.87 557.25 490.44 555.37 490.81 553.46 L 491.61 553.49 C 491.62 553.15 491.63 552.48 491.64 552.14 C 492.25 550.61 492.47 548.99 492.51 547.36 C 492.92 547.44 493.74 547.59 494.15 547.66 C 493.98 547.29 493.63 546.54 493.46 546.16 C 494.88 542.76 496.34 539.33 496.85 535.66 C 503.43 534.02 510.43 534.49 517.11 535.19 C 526.38 535.34 535.65 535.34 544.92 535.17 C 546.94 535.28 548.98 535.24 551.00 534.98 C 552.97 535.23 554.97 535.27 556.96 535.18 C 591.52 535.44 626.08 535.31 660.64 535.37 C 660.73 539.34 660.34 543.36 661.27 547.27 C 661.13 547.64 660.86 548.37 660.73 548.74 C 661.09 550.47 661.35 552.24 661.36 554.04 C 661.44 574.19 661.70 594.34 661.77 614.50 C 635.49 614.39 609.22 614.44 582.94 614.26 C 573.55 614.62 564.22 613.13 554.81 613.63 C 553.74 616.68 552.70 619.75 552.05 622.93 C 551.76 624.10 551.50 625.29 551.26 626.49 L 550.52 626.47 C 550.49 627.66 550.47 628.85 550.45 630.06 C 549.83 631.37 549.24 632.71 548.61 634.04 C 548.55 635.44 548.50 636.85 548.49 638.27 L 548.30 639.19 L 547.72 638.14 L 547.43 638.44 C 547.13 641.34 546.46 644.21 545.57 646.99 C 545.51 647.22 545.41 647.68 545.36 647.91 C 544.16 652.62 542.09 657.20 542.38 662.17 C 542.19 661.04 542.01 659.91 541.85 658.79 C 541.57 660.57 541.26 662.35 540.77 664.09 C 540.64 665.26 540.51 666.43 540.41 667.61 L 539.53 667.43 C 539.50 668.07 539.43 669.34 539.40 669.98 C 538.52 672.97 537.66 675.98 536.83 678.99 C 536.50 680.29 536.18 681.62 535.78 682.91 C 534.86 687.23 532.82 691.40 533.35 695.92 C 535.58 697.27 537.72 698.78 539.84 700.32 C 543.45 703.04 547.14 705.65 550.82 708.29 C 554.49 710.95 558.16 713.63 561.85 716.29 C 563.93 717.77 566.01 719.27 568.14 720.72 C 569.70 721.89 571.25 723.08 572.81 724.27 C 574.97 725.69 577.08 727.19 579.16 728.74 C 580.35 729.59 581.56 730.44 582.77 731.30 C 585.22 733.13 587.70 734.92 590.21 736.68 C 595.00 740.31 600.02 743.64 604.80 747.30 C 606.91 748.78 609.02 750.24 611.15 751.71 C 614.93 754.73 618.99 757.38 622.83 760.32 C 626.34 762.70 629.67 765.32 633.21 767.67 C 636.13 769.99 639.35 771.90 642.12 774.43 C 642.96 774.47 644.66 774.54 645.50 774.58 L 645.45 773.63 C 647.11 773.13 648.77 772.61 650.46 772.17 L 650.28 771.68 C 651.95 770.93 653.62 770.17 655.27 769.36 C 657.31 768.21 659.40 767.16 661.55 766.22 L 661.52 765.88 C 664.99 764.21 668.12 761.96 671.52 760.17 L 671.52 759.87 C 672.64 759.18 673.75 758.49 674.87 757.80 C 678.73 755.08 682.54 752.30 686.19 749.31 C 696.44 740.96 705.75 731.46 713.70 720.89 C 718.33 714.95 722.30 708.54 726.17 702.08 C 727.04 700.38 727.93 698.68 728.74 696.95 C 729.34 695.97 729.95 695.00 730.58 694.04 C 730.56 693.78 730.52 693.26 730.49 693.01 C 731.35 691.68 732.11 690.30 732.83 688.91 C 733.50 687.19 734.16 685.47 734.80 683.75 C 736.05 680.86 737.13 677.90 738.35 674.99 C 738.44 673.81 738.53 672.63 738.64 671.47 L 739.46 671.65 C 740.03 668.85 740.60 666.07 741.41 663.34 C 742.48 659.62 743.48 655.87 743.88 652.02 C 744.45 649.53 744.57 646.97 744.61 644.43 L 745.41 644.55 C 745.82 633.17 745.82 621.79 745.44 610.42 L 744.65 610.55 C 744.58 607.99 744.48 605.42 743.92 602.92 C 742.41 592.43 739.02 582.33 735.33 572.43 L 734.78 572.50 C 734.35 570.79 733.84 569.11 733.38 567.43 L 732.87 567.52 C 732.27 565.98 731.60 564.49 730.92 563.01 C 730.21 561.60 729.42 560.22 728.56 558.92 C 728.54 558.69 728.52 558.22 728.50 557.99 C 726.86 555.76 725.48 553.37 724.21 550.92 C 723.31 549.71 722.43 548.51 721.52 547.33 L 721.37 546.64 C 714.27 536.62 706.16 527.27 696.85 519.24 C 691.65 514.89 686.38 510.54 680.51 507.12 L 680.59 506.65 C 679.50 506.22 678.42 505.79 677.35 505.36 L 677.47 504.87 C 674.97 503.61 672.54 502.23 670.17 500.76 C 667.86 499.61 665.54 498.46 663.20 497.39 L 663.33 496.93 C 660.66 496.17 658.10 495.11 655.50 494.17 L 655.44 493.46 C 655.11 493.43 654.46 493.37 654.13 493.34 C 652.59 492.86 651.04 492.48 649.47 492.16 L 649.66 491.49 C 647.89 491.07 646.13 490.62 644.35 490.28 L 644.58 489.79 C 643.35 489.44 642.14 489.08 640.94 488.70 C 639.76 488.60 638.59 488.52 637.42 488.45 L 637.54 487.70 C 632.96 486.91 628.41 485.99 623.95 484.74 C 621.80 484.60 619.64 484.49 617.49 484.44 L 617.44 483.59 C 606.32 483.11 595.19 483.08 584.06 483.28 C 581.01 483.37 577.89 483.30 574.96 484.25 C 572.97 484.44 571.00 484.60 569.03 484.80 C 567.18 485.22 565.32 485.49 563.45 485.69 L 563.54 486.42 C 561.99 486.47 560.46 486.55 558.92 486.63 C 557.29 487.20 555.66 487.74 554.06 488.36 C 553.03 488.47 552.01 488.59 550.99 488.72 C 549.80 489.08 548.61 489.42 547.43 489.75 L 547.58 490.25 C 545.98 490.55 544.39 490.92 542.84 491.39 C 542.50 491.37 541.82 491.33 541.49 491.30 L 541.57 492.22 C 539.23 492.43 537.05 493.27 535.03 494.44 C 534.40 494.47 533.13 494.53 532.50 494.56 L 532.57 495.30 C 531.95 495.51 530.69 495.93 530.07 496.14 C 528.97 496.64 527.88 497.17 526.80 497.69 C 525.68 498.07 524.55 498.44 523.42 498.80 L 523.60 499.36 C 522.33 499.79 521.07 500.25 519.81 500.68 C 518.87 501.19 517.93 501.70 517.00 502.22 C 515.90 502.83 514.80 503.45 513.71 504.09 C 513.26 504.22 512.35 504.49 511.89 504.62 C 510.50 505.53 508.97 506.19 507.41 506.76 L 507.57 507.29 C 506.15 507.72 504.76 508.20 503.36 508.66 L 503.60 509.33 C 502.17 509.74 500.77 510.20 499.36 510.63 L 499.61 511.33 C 498.18 511.72 496.77 512.16 495.35 512.57 L 495.53 513.24 C 494.13 513.68 492.74 514.17 491.36 514.64 L 491.59 515.24 C 490.17 515.67 488.76 516.14 487.37 516.60 L 487.49 517.13 C 485.93 517.64 484.45 518.35 483.04 519.16 C 482.05 519.58 481.07 520.01 480.09 520.44 L 479.38 520.39 L 479.49 521.17 C 478.34 521.55 477.21 521.95 476.08 522.38 L 475.43 522.44 L 475.43 523.10 C 474.14 523.63 472.85 524.20 471.59 524.78 C 470.57 525.14 469.54 525.50 468.52 525.84 L 468.71 526.28 C 466.25 527.38 463.83 528.58 461.39 529.74 C 460.97 529.98 460.13 530.45 459.71 530.68 C 457.21 531.90 454.70 533.08 452.21 534.31 C 450.86 534.96 449.52 535.62 448.19 536.31 C 446.17 537.30 444.18 538.34 442.17 539.35 C 441.11 539.88 440.06 540.44 439.01 541.00 C 438.38 541.18 437.12 541.53 436.49 541.71 L 436.59 542.25 C 434.68 543.04 432.80 543.93 430.95 544.84 C 429.61 545.53 428.29 546.22 426.94 546.88 C 424.30 548.21 421.64 549.53 418.97 550.81 C 418.37 551.05 417.16 551.54 416.55 551.78 L 416.44 552.71 C 415.97 552.61 415.04 552.41 414.57 552.31 L 414.40 553.14 C 413.80 553.50 412.59 554.21 411.98 554.56 C 411.63 554.49 410.91 554.35 410.56 554.28 L 410.48 555.18 C 409.86 555.50 408.63 556.15 408.01 556.48 C 407.74 556.49 407.20 556.50 406.93 556.51 C 405.55 557.50 403.99 558.19 402.42 558.79 L 402.38 559.14 C 401.77 559.48 400.55 560.15 399.94 560.49 C 399.58 560.44 398.85 560.33 398.49 560.28 L 398.47 561.18 C 397.84 561.50 396.57 562.13 395.93 562.45 C 395.56 562.41 394.81 562.34 394.43 562.30 L 394.53 563.17 C 391.75 564.19 389.09 565.51 386.43 566.80 L 386.51 567.19 C 383.72 568.16 381.07 569.46 378.41 570.75 L 378.50 571.13 C 375.69 572.11 373.04 573.46 370.36 574.73 L 370.50 575.19 C 369.07 575.62 367.64 576.09 366.23 576.57 L 366.49 577.16 C 365.33 577.53 364.17 577.92 363.03 578.34 L 362.35 578.37 L 362.48 579.41 C 361.87 579.46 360.65 579.57 360.05 579.62 C 358.33 580.74 356.56 581.77 354.78 582.78 C 353.68 583.13 352.59 583.47 351.49 583.80 L 351.75 584.42 C 350.32 584.88 348.90 585.36 347.47 585.80 L 347.71 586.44 C 346.21 586.91 344.73 587.39 343.23 587.83 C 343.26 590.03 343.72 592.21 345.04 594.04 C 346.28 596.45 347.45 598.90 348.67 601.34 C 352.22 608.47 355.79 615.59 359.32 622.73 C 360.00 624.08 360.69 625.44 361.38 626.80 C 361.88 627.86 362.40 628.92 362.90 629.99 C 363.58 631.29 364.26 632.61 364.92 633.94 C 365.57 635.28 366.24 636.62 366.93 637.95 C 367.67 639.41 368.33 640.93 368.88 642.49 L 369.32 642.39 C 369.80 643.60 370.31 644.82 370.81 646.05 C 371.50 647.35 372.20 648.67 372.91 649.99 C 373.65 651.43 374.34 652.93 374.86 654.49 L 375.39 654.40 C 375.85 655.77 376.32 657.13 376.76 658.52 L 377.39 658.41 C 377.82 659.78 378.29 661.15 378.73 662.53 L 379.38 662.40 C 379.81 663.77 380.28 665.13 380.72 666.52 L 381.37 666.40 C 381.80 667.77 382.27 669.14 382.70 670.53 L 383.37 670.41 C 383.81 671.77 384.28 673.13 384.72 674.52 L 385.26 674.47 C 385.56 675.11 386.17 676.40 386.47 677.05 C 386.45 677.40 386.41 678.11 386.38 678.46 L 387.66 678.48 C 387.64 678.85 387.58 679.57 387.56 679.94 C 387.87 680.57 388.49 681.84 388.80 682.48 L 389.34 682.39 C 389.78 683.77 390.26 685.15 390.70 686.54 L 391.33 686.39 C 391.77 687.77 392.25 689.15 392.71 690.55 L 393.69 690.46 C 393.64 690.83 393.55 691.59 393.51 691.96 C 393.84 692.58 394.50 693.82 394.84 694.44 L 395.20 694.45 C 395.71 696.06 396.42 697.62 397.50 698.96 C 397.50 699.22 397.50 699.74 397.50 700.00 C 397.84 700.60 398.52 701.81 398.86 702.41 L 399.69 702.55 C 399.63 702.92 399.50 703.65 399.43 704.01 C 400.04 704.95 400.66 705.91 401.27 706.88 C 401.88 708.26 402.52 709.63 403.20 710.99 C 404.10 712.81 404.97 714.64 405.78 716.52 L 406.15 716.61 C 406.49 717.22 407.16 718.44 407.50 719.05 C 407.45 719.41 407.34 720.13 407.28 720.49 L 408.16 720.56 C 408.48 721.19 409.13 722.43 409.46 723.05 C 409.42 723.42 409.34 724.15 409.31 724.51 L 410.17 724.55 C 410.49 725.18 411.14 726.43 411.46 727.06 C 411.42 727.42 411.33 728.14 411.28 728.50 L 412.18 728.54 C 412.49 729.17 413.13 730.43 413.44 731.07 C 413.41 731.43 413.33 732.15 413.29 732.51 L 414.29 732.46 C 414.71 733.83 415.17 735.21 415.61 736.60 L 416.28 736.47 C 416.70 737.85 417.16 739.22 417.60 740.62 L 418.27 740.46 C 418.69 741.84 419.16 743.22 419.60 744.62 L 420.24 744.46 C 420.67 745.85 421.14 747.24 421.60 748.65 L 422.26 748.45 C 422.68 749.84 423.14 751.23 423.59 752.64 L 424.23 752.47 C 424.65 753.86 425.12 755.23 425.58 756.63 L 426.22 756.50 C 426.65 757.86 427.12 759.21 427.58 760.58 L 428.11 760.55 C 428.68 762.08 429.33 763.57 430.05 765.06 C 430.74 766.37 431.40 767.70 432.08 769.05 C 432.74 770.39 433.41 771.72 434.09 773.06 C 435.28 775.45 436.47 777.84 437.65 780.24 C 438.31 781.56 438.98 782.90 439.65 784.24 C 445.73 796.49 451.87 808.71 457.92 820.97 C 458.59 822.28 459.26 823.61 459.96 824.93 C 460.68 826.39 461.33 827.91 461.89 829.46 L 462.44 829.40 C 462.89 830.75 463.36 832.11 463.79 833.49 L 464.42 833.34 C 464.87 834.73 465.35 836.15 465.79 837.57 L 466.41 837.30 C 466.86 838.70 467.33 840.11 467.77 841.54 L 468.41 841.32 C 468.86 842.70 469.33 844.10 469.77 845.51 L 470.43 845.40 C 470.86 846.76 471.32 848.12 471.75 849.51 L 472.40 849.37 C 472.83 850.75 473.29 852.12 473.73 853.52 L 474.39 853.40 C 474.82 854.76 475.29 856.13 475.73 857.52 L 476.23 857.44 C 476.86 858.91 477.52 860.39 478.25 861.84 C 479.11 863.55 479.98 865.27 480.82 867.01 C 481.48 868.32 482.16 869.65 482.83 870.99 C 483.49 872.31 484.17 873.65 484.83 875.01 C 485.50 876.33 486.19 877.67 486.86 879.02 C 487.50 880.36 488.14 881.73 488.75 883.11 C 489.35 884.06 489.96 885.02 490.58 885.99 C 490.56 886.23 490.51 886.71 490.49 886.95 C 491.37 888.25 492.11 889.65 492.79 891.09 C 493.27 892.06 493.75 893.04 494.25 894.02 C 494.84 895.11 495.43 896.20 496.04 897.31 C 496.23 897.79 496.60 898.77 496.78 899.25 C 497.50 900.65 498.19 902.07 498.86 903.52 L 499.32 903.43 C 499.75 904.82 500.21 906.20 500.65 907.61 L 501.21 907.49 C 501.52 908.14 502.15 909.44 502.46 910.09 C 502.42 910.45 502.34 911.18 502.30 911.55 L 503.31 911.40 C 503.73 912.79 504.20 914.18 504.64 915.59 L 505.32 915.44 C 505.74 916.81 506.21 918.19 506.65 919.59 L 507.32 919.45 C 507.74 920.82 508.20 922.20 508.63 923.59 L 509.28 923.46 C 509.71 924.83 510.19 926.20 510.64 927.59 L 511.66 927.55 C 511.61 927.91 511.51 928.63 511.47 928.99 C 511.80 929.62 512.46 930.87 512.79 931.50 L 513.13 931.53 C 513.69 933.08 514.42 934.56 515.29 935.99 C 515.44 936.42 515.73 937.27 515.87 937.70 C 517.04 939.75 518.09 941.87 519.14 944.00 C 519.77 945.33 520.42 946.66 521.10 948.01 C 521.75 949.33 522.42 950.66 523.10 952.00 C 523.75 953.33 524.42 954.66 525.09 956.01 C 525.75 957.33 526.42 958.66 527.10 960.00 C 528.26 962.40 529.45 964.80 530.65 967.19 C 531.31 968.52 531.98 969.85 532.66 971.19 C 533.31 972.53 533.98 973.87 534.65 975.22 C 538.30 982.72 542.24 990.09 545.70 997.69 L 546.15 997.56 C 546.53 998.69 546.92 999.82 547.34 1000.96 L 547.38 1001.61 L 548.15 1001.58 C 548.49 1002.61 548.85 1003.65 549.23 1004.69 C 549.91 1005.99 550.60 1007.31 551.29 1008.63 C 551.95 1009.97 552.62 1011.34 553.31 1012.70 C 554.63 1015.39 555.96 1018.08 557.35 1020.75 C 557.84 1021.82 558.33 1022.91 558.83 1024.01 C 559.68 1025.57 560.49 1027.16 561.33 1028.75 C 561.96 1030.08 562.61 1031.43 563.29 1032.77 C 563.94 1034.10 564.60 1035.45 565.29 1036.80 C 566.58 1039.46 567.90 1042.11 569.31 1044.73 C 570.12 1046.48 570.96 1048.24 571.74 1050.03 C 572.35 1051.00 572.97 1051.97 573.60 1052.94 C 573.56 1053.22 573.48 1053.78 573.44 1054.06 C 574.18 1055.00 574.92 1055.95 575.67 1056.91 C 575.60 1057.20 575.47 1057.77 575.40 1058.06 C 576.15 1058.98 576.91 1059.92 577.67 1060.87 C 577.60 1061.17 577.46 1061.76 577.39 1062.05 C 578.15 1062.99 578.91 1063.94 579.67 1064.91 C 579.58 1065.29 579.39 1066.04 579.30 1066.42 L 580.16 1066.54 C 580.51 1067.16 581.22 1068.39 581.57 1069.00 C 581.51 1069.36 581.39 1070.09 581.33 1070.45 L 582.18 1070.52 C 582.53 1071.14 583.21 1072.38 583.55 1073.01 C 583.49 1073.37 583.38 1074.09 583.32 1074.45 L 584.20 1074.49 C 584.53 1075.12 585.18 1076.38 585.50 1077.01 C 585.46 1077.38 585.38 1078.12 585.34 1078.49 L 586.20 1078.53 C 586.52 1079.16 587.18 1080.41 587.51 1081.04 C 587.45 1081.39 587.35 1082.11 587.30 1082.46 L 588.21 1082.48 C 588.53 1083.12 589.18 1084.41 589.51 1085.06 C 589.45 1085.42 589.33 1086.14 589.28 1086.51 L 590.33 1086.37 C 590.76 1087.77 591.23 1089.16 591.67 1090.59 L 592.33 1090.39 C 592.75 1091.78 593.22 1093.18 593.66 1094.60 L 594.33 1094.41 C 594.75 1095.80 595.22 1097.19 595.66 1098.61 L 596.35 1098.41 C 596.76 1099.80 597.22 1101.18 597.65 1102.60 L 598.69 1102.49 C 598.64 1102.86 598.56 1103.60 598.52 1103.97 C 598.83 1104.60 599.46 1105.86 599.77 1106.49 L 600.31 1106.44 C 600.74 1107.81 601.21 1109.18 601.67 1110.57 L 602.70 1110.53 C 602.65 1110.89 602.53 1111.62 602.47 1111.98 C 602.81 1112.61 603.47 1113.86 603.80 1114.48 L 604.68 1114.54 C 604.62 1114.90 604.51 1115.63 604.45 1115.99 C 604.79 1116.61 605.48 1117.84 605.82 1118.46 L 606.16 1118.53 C 607.53 1121.53 609.24 1124.53 608.72 1127.98 C 604.69 1129.32 601.05 1131.52 597.22 1133.31 C 594.14 1134.80 591.11 1136.42 587.98 1137.82 C 587.05 1138.29 586.13 1138.79 585.22 1139.30 C 583.45 1140.11 581.71 1140.98 579.95 1141.82 C 578.63 1142.50 577.32 1143.20 576.01 1143.90 C 575.39 1144.12 574.17 1144.57 573.55 1144.79 L 573.44 1145.77 C 573.07 1145.67 572.32 1145.46 571.95 1145.35 C 570.99 1146.12 570.05 1146.90 569.11 1147.69 C 568.81 1147.61 568.23 1147.44 567.94 1147.35 C 566.98 1148.11 566.03 1148.87 565.09 1149.65 C 564.71 1149.56 563.94 1149.38 563.56 1149.28 L 563.42 1150.15 C 562.81 1150.50 561.59 1151.20 560.98 1151.55 C 560.62 1151.49 559.89 1151.36 559.53 1151.30 L 559.46 1152.17 C 558.84 1152.51 557.59 1153.18 556.97 1153.52 C 556.61 1153.46 555.89 1153.35 555.53 1153.29 L 555.47 1154.18 C 554.85 1154.51 553.59 1155.17 552.97 1155.50 C 552.59 1155.45 551.85 1155.34 551.48 1155.29 L 551.47 1156.17 C 550.83 1156.49 549.56 1157.14 548.93 1157.46 C 548.56 1157.42 547.83 1157.33 547.46 1157.29 L 547.56 1158.28 C 546.16 1158.71 544.79 1159.19 543.41 1159.65 L 543.47 1160.57 C 542.52 1160.59 540.61 1160.62 539.66 1160.63 C 539.20 1159.22 538.71 1157.83 538.28 1156.44 L 537.62 1156.64 C 537.17 1155.21 536.71 1153.81 536.30 1152.42 L 535.63 1152.64 C 535.19 1151.22 534.73 1149.82 534.31 1148.43 L 533.63 1148.63 C 533.18 1147.20 532.72 1145.80 532.29 1144.40 L 531.63 1144.61 C 531.19 1143.20 530.72 1141.82 530.30 1140.45 L 529.64 1140.62 C 529.20 1139.20 528.73 1137.82 528.30 1136.44 L 527.29 1136.53 C 527.34 1136.16 527.44 1135.41 527.49 1135.04 C 527.16 1134.41 526.50 1133.14 526.17 1132.51 L 525.28 1132.50 C 525.34 1132.13 525.45 1131.39 525.51 1131.03 C 525.17 1130.41 524.50 1129.18 524.16 1128.56 L 523.29 1128.48 C 523.35 1128.11 523.46 1127.39 523.52 1127.03 C 523.17 1126.41 522.49 1125.19 522.14 1124.58 L 521.30 1124.45 C 521.36 1124.09 521.49 1123.38 521.55 1123.02 C 521.20 1122.41 520.49 1121.20 520.14 1120.59 L 519.28 1120.41 C 519.38 1120.04 519.56 1119.29 519.65 1118.92 C 518.89 1117.96 518.13 1117.01 517.37 1116.08 C 517.42 1115.82 517.50 1115.31 517.55 1115.05 C 516.66 1113.70 515.90 1112.29 515.20 1110.87 C 514.54 1109.51 513.88 1108.16 513.23 1106.83 C 512.54 1105.50 511.88 1104.17 511.23 1102.85 C 510.56 1101.51 509.88 1100.19 509.22 1098.88 C 508.50 1097.41 507.85 1095.91 507.24 1094.42 L 506.73 1094.58 C 506.28 1093.16 505.82 1091.76 505.38 1090.37 L 504.72 1090.55 C 504.28 1089.14 503.81 1087.75 503.38 1086.37 L 502.71 1086.56 C 502.28 1085.15 501.82 1083.77 501.39 1082.39 L 500.74 1082.54 C 500.32 1081.14 499.86 1079.76 499.43 1078.40 L 498.73 1078.54 C 498.29 1077.14 497.82 1075.76 497.38 1074.38 L 496.74 1074.53 C 496.30 1073.13 495.82 1071.76 495.38 1070.39 L 494.86 1070.49 C 494.29 1068.94 493.63 1067.44 492.80 1066.04 C 492.31 1064.83 491.82 1063.63 491.36 1062.45 L 490.90 1062.43 C 490.29 1060.90 489.63 1059.41 488.92 1057.96 C 488.23 1056.63 487.55 1055.30 486.88 1053.99 C 486.24 1052.64 485.58 1051.30 484.92 1049.99 C 484.24 1048.63 483.56 1047.28 482.88 1045.96 C 482.37 1044.86 481.85 1043.79 481.35 1042.73 C 477.08 1034.26 472.88 1025.76 468.66 1017.27 C 466.79 1013.53 464.91 1009.80 463.07 1006.06 C 462.41 1004.70 461.75 1003.36 461.10 1002.02 C 459.71 999.38 458.38 996.71 457.11 994.01 C 456.43 992.67 455.75 991.34 455.06 990.02 C 454.36 988.55 453.70 987.06 453.11 985.56 L 452.57 985.61 C 452.11 984.23 451.65 982.87 451.23 981.51 L 450.61 981.63 C 450.16 980.23 449.69 978.86 449.26 977.49 L 448.61 977.64 C 448.16 976.24 447.69 974.86 447.26 973.48 L 446.61 973.63 C 446.16 972.22 445.68 970.84 445.25 969.47 L 444.61 969.62 C 444.17 968.22 443.71 966.84 443.29 965.47 L 442.62 965.64 C 442.18 964.23 441.72 962.84 441.29 961.46 L 440.78 961.59 C 440.15 960.07 439.50 958.58 438.77 957.13 C 438.09 955.79 437.42 954.48 436.76 953.16 C 436.10 951.81 435.44 950.49 434.76 949.19 C 433.91 947.43 433.04 945.71 432.17 943.99 C 431.52 942.61 430.87 941.25 430.26 939.88 C 429.65 938.91 429.05 937.96 428.44 937.02 C 428.46 936.75 428.49 936.23 428.51 935.97 C 427.44 934.62 426.72 933.07 426.17 931.48 L 425.83 931.41 C 425.49 930.81 424.81 929.60 424.47 928.99 C 424.53 928.63 424.64 927.90 424.69 927.54 L 423.82 927.45 C 423.49 926.83 422.83 925.59 422.50 924.97 C 422.55 924.61 422.65 923.88 422.70 923.51 L 421.81 923.46 C 421.49 922.84 420.84 921.59 420.52 920.97 C 420.56 920.60 420.65 919.87 420.69 919.50 L 419.81 919.48 C 419.49 918.85 418.85 917.58 418.54 916.95 C 418.57 916.59 418.65 915.85 418.69 915.49 L 417.80 915.49 C 417.49 914.85 416.86 913.58 416.54 912.95 C 416.58 912.58 416.65 911.85 416.69 911.49 L 415.70 911.55 C 415.26 910.14 414.79 908.75 414.36 907.36 L 413.69 907.57 C 413.26 906.15 412.80 904.76 412.38 903.37 L 411.73 903.59 C 411.29 902.17 410.82 900.76 410.38 899.37 L 409.82 899.52 C 409.28 897.95 408.65 896.43 407.75 895.05 C 407.26 893.83 406.78 892.61 406.33 891.40 L 405.74 891.55 C 405.31 890.15 404.84 888.77 404.39 887.40 L 403.60 887.53 C 403.50 886.97 403.30 885.87 403.21 885.31 C 401.98 883.27 400.91 881.14 399.86 879.01 C 399.22 877.66 398.56 876.33 397.90 875.01 C 397.24 873.66 396.57 872.32 395.92 871.00 C 395.25 869.66 394.57 868.33 393.90 867.01 C 393.39 865.93 392.88 864.87 392.37 863.82 C 389.61 858.47 387.01 853.04 384.29 847.67 C 380.18 839.49 376.14 831.27 372.06 823.08 C 371.38 821.74 370.72 820.41 370.07 819.08 C 368.64 816.16 367.19 813.25 365.66 810.40 C 365.13 809.10 364.62 807.82 364.14 806.52 L 363.73 806.63 C 363.07 805.16 362.41 803.70 361.72 802.26 C 359.05 796.92 356.34 791.60 353.70 786.26 C 352.72 784.22 351.70 782.21 350.67 780.21 C 350.16 779.12 349.64 778.06 349.15 776.99 C 348.46 775.66 347.78 774.34 347.11 773.01 C 346.44 771.66 345.76 770.33 345.10 769.00 C 344.43 767.65 343.76 766.32 343.10 764.98 C 342.45 763.64 341.80 762.30 341.18 760.96 C 340.68 759.98 340.17 759.02 339.67 758.07 C 338.85 756.33 338.00 754.60 337.19 752.87 C 335.07 748.78 332.92 744.71 331.16 740.46 L 330.66 740.60 C 330.22 739.19 329.75 737.79 329.32 736.40 L 328.67 736.60 C 328.23 735.20 327.75 733.82 327.32 732.43 L 326.34 732.49 C 326.37 732.13 326.42 731.41 326.45 731.06 C 326.14 730.41 325.53 729.13 325.22 728.49 L 324.29 728.47 C 324.37 728.01 324.55 727.08 324.64 726.62 L 323.40 726.38 C 323.47 725.92 323.61 724.98 323.68 724.51 L 322.34 724.49 C 322.38 724.12 322.44 723.40 322.47 723.04 C 322.16 722.40 321.54 721.13 321.23 720.50 L 320.35 720.47 C 320.38 720.11 320.46 719.38 320.50 719.02 C 320.18 718.39 319.54 717.13 319.22 716.50 L 318.33 716.48 C 318.38 716.11 318.46 715.39 318.51 715.02 C 318.18 714.40 317.53 713.15 317.20 712.52 L 316.71 712.55 C 316.26 711.15 315.78 709.77 315.33 708.39 L 314.85 708.50 C 313.50 705.22 311.82 702.10 310.34 698.90 C 309.72 697.91 309.10 696.94 308.47 695.98 C 308.50 695.72 308.56 695.21 308.59 694.95 C 307.98 694.00 307.38 693.06 306.79 692.12 C 306.20 690.73 305.56 689.36 304.92 688.01 C 304.23 686.67 303.55 685.33 302.88 684.00 C 302.22 682.65 301.54 681.31 300.87 679.99 C 299.69 677.60 298.53 675.21 297.34 672.84 C 296.31 670.79 295.27 668.75 294.28 666.69 C 293.59 665.35 292.94 664.00 292.29 662.65 C 290.25 658.56 288.08 654.53 286.28 650.32 L 285.80 650.49 C 285.37 649.06 284.88 647.63 284.42 646.23 L 283.81 646.51 C 283.38 645.07 282.90 643.64 282.44 642.24 L 281.84 642.50 C 281.46 641.34 281.06 640.19 280.65 639.06 L 280.61 638.39 L 279.84 638.46 C 279.49 637.41 279.13 636.38 278.75 635.36 C 273.60 625.37 268.71 615.25 263.67 605.21 C 262.99 603.86 262.31 602.52 261.65 601.18 C 259.82 597.44 257.94 593.73 256.10 590.00 C 255.44 588.66 254.77 587.34 254.12 586.01 C 253.46 584.66 252.79 583.33 252.13 581.99 C 251.47 580.62 250.83 579.25 250.22 577.87 C 249.60 576.92 248.99 575.98 248.37 575.04 C 248.45 574.67 248.62 573.93 248.70 573.55 L 247.62 573.58 C 247.15 572.21 246.68 570.85 246.24 569.48 L 245.80 569.49 C 245.46 568.86 244.79 567.61 244.45 566.99 C 244.51 566.62 244.63 565.89 244.68 565.53 L 243.79 565.53 C 243.46 564.89 242.80 563.62 242.47 562.98 C 242.52 562.61 242.63 561.88 242.69 561.52 L 241.61 561.60 C 241.17 560.21 240.70 558.83 240.28 557.44 L 239.83 557.59 C 239.10 555.99 238.34 554.41 237.49 552.88 C 237.44 552.11 237.33 550.58 237.27 549.81 C 239.32 548.95 241.35 548.04 243.28 546.92 C 243.72 546.76 244.60 546.44 245.05 546.28 C 246.44 545.37 247.95 544.66 249.54 544.16 L 249.38 543.65 C 250.78 543.18 252.17 542.69 253.59 542.25 L 253.33 541.58 C 254.75 541.16 256.16 540.71 257.59 540.32 L 257.36 539.63 C 258.77 539.21 260.18 538.76 261.61 538.36 L 261.39 537.66 C 262.78 537.21 264.17 536.73 265.57 536.30 L 265.41 535.78 C 268.37 534.61 271.27 533.26 273.99 531.61 C 274.48 531.53 275.45 531.36 275.93 531.27 C 276.32 530.86 277.11 530.03 277.50 529.62 C 278.05 529.50 279.15 529.27 279.70 529.15 C 281.04 528.34 282.40 527.56 283.77 526.81 C 284.86 526.29 285.95 525.77 287.06 525.26 C 288.02 524.77 289.00 524.30 289.98 523.84 C 291.51 523.38 292.86 522.55 294.07 521.52 C 294.31 521.53 294.79 521.57 295.04 521.58 C 295.99 520.98 296.94 520.38 297.91 519.81 C 299.29 519.22 300.64 518.57 302.00 517.93 C 303.08 517.41 304.16 516.88 305.25 516.37 C 316.42 510.67 327.74 505.26 338.90 499.53 L 339.69 499.67 L 339.53 498.61 C 340.12 498.54 341.31 498.41 341.91 498.34 C 343.32 497.44 344.84 496.70 346.40 496.08 L 346.46 495.77 C 348.45 494.93 350.42 494.01 352.27 492.87 C 352.71 492.73 353.59 492.46 354.03 492.33 C 356.67 490.75 359.42 489.39 362.21 488.09 C 363.64 487.42 365.08 486.77 366.54 486.16 L 366.38 485.64 C 367.79 485.21 369.18 484.75 370.60 484.34 L 370.38 483.67 C 371.79 483.23 373.19 482.76 374.61 482.34 L 374.39 481.66 C 375.80 481.23 377.19 480.78 378.61 480.36 L 378.42 479.67 C 379.83 479.25 381.24 478.80 382.66 478.40 L 382.46 477.73 C 383.85 477.30 385.23 476.83 386.62 476.40 L 386.47 475.76 C 387.85 475.31 389.22 474.83 390.60 474.38 L 390.44 473.75 C 391.85 473.32 393.25 472.84 394.66 472.40 L 394.48 471.78 C 395.89 471.33 397.28 470.84 398.69 470.38 L 398.52 469.81 C 399.66 469.43 400.79 469.03 401.93 468.62 L 402.60 468.60 L 402.58 467.91 C 404.09 467.31 405.57 466.64 407.05 465.94 C 408.10 465.38 409.17 464.83 410.23 464.28 C 411.31 463.89 412.39 463.51 413.49 463.16 L 413.30 462.76 C 414.94 461.97 416.58 461.17 418.19 460.30 C 419.28 459.91 420.38 459.54 421.49 459.19 L 421.31 458.72 C 425.42 457.00 429.23 454.59 433.47 453.17 L 433.41 452.72 C 436.27 451.50 439.06 450.12 441.78 448.60 C 443.01 448.14 444.25 447.67 445.51 447.24 L 445.47 446.28 C 445.83 446.32 446.57 446.39 446.94 446.43 C 448.27 445.58 449.62 444.77 450.98 443.97 C 451.60 443.80 452.85 443.45 453.48 443.27 L 453.53 442.24 C 453.91 442.33 454.68 442.51 455.06 442.60 C 455.99 441.83 456.93 441.08 457.88 440.33 C 458.16 440.39 458.71 440.50 458.99 440.56 C 459.95 439.91 460.92 439.28 461.89 438.65 C 463.65 437.92 465.36 437.11 467.09 436.32 C 468.01 435.77 468.94 435.23 469.87 434.70 C 471.75 433.87 473.62 433.00 475.52 432.21 L 475.44 431.73 C 476.68 431.27 477.91 430.79 479.16 430.32 C 480.56 429.47 482.06 428.81 483.58 428.22 L 483.42 427.71 C 484.68 427.29 485.93 426.84 487.20 426.43 C 487.64 426.07 488.51 425.34 488.95 424.97 C 489.63 424.84 490.99 424.56 491.67 424.42 L 491.50 423.83 C 494.53 422.65 497.49 421.27 500.57 420.19 L 500.40 419.77 C 505.54 418.17 510.32 415.57 515.55 414.23 L 515.44 413.75 C 517.20 413.40 518.96 412.98 520.72 412.55 L 520.54 411.75 C 522.39 411.52 524.24 411.33 526.09 411.04 L 526.66 410.77 C 526.61 410.47 526.52 409.87 526.47 409.58 C 528.83 409.63 531.26 409.54 533.36 408.33 C 535.32 407.56 537.43 407.45 539.52 407.34 L 539.46 406.76 C 540.68 406.48 541.90 406.17 543.12 405.84 C 545.45 405.58 547.82 405.41 550.08 404.71 C 551.06 404.38 552.04 404.04 553.03 403.70 C 556.73 403.46 560.43 403.32 564.14 403.52 C 561.70 403.16 559.26 402.84 556.83 402.48 C 560.24 402.60 563.72 402.77 567.05 401.78 Z" />
</g>
<g id="#760d1782">
<path fill="#760d17" opacity="0.51" d=" M 636.32 135.00 C 637.45 129.27 637.23 123.32 639.06 117.72 C 638.78 121.93 638.45 126.14 638.20 130.35 C 637.17 143.68 633.74 156.80 633.76 170.20 C 633.38 169.21 632.98 168.25 632.54 167.31 C 631.97 169.48 632.27 171.74 632.20 173.95 C 632.26 179.35 630.77 184.59 630.27 189.93 C 626.89 216.02 623.21 242.07 619.80 268.15 C 618.48 275.00 618.56 282.08 616.41 288.77 C 615.64 285.44 616.28 282.06 616.91 278.77 C 621.23 245.82 625.88 212.92 630.21 179.97 C 631.20 175.54 631.51 171.01 631.22 166.49 C 633.85 161.98 632.91 156.56 633.98 151.64 C 635.23 146.16 635.22 140.50 636.32 135.00 Z" />
</g>
<g id="#008c84ff">
<path fill="#008c84" opacity="1.00" d=" M 846.80 181.99 C 847.72 180.68 848.68 179.39 849.68 178.13 C 858.77 185.17 868.42 191.48 877.72 198.25 C 878.66 198.91 879.61 199.57 880.57 200.24 C 887.64 205.30 894.76 210.30 901.88 215.31 C 908.79 220.64 916.51 224.93 922.96 230.84 C 898.00 260.63 873.61 290.91 848.57 320.62 L 848.45 321.39 C 843.09 326.80 838.78 333.12 833.69 338.77 C 824.31 350.32 814.80 361.77 805.30 373.22 C 804.51 374.17 803.73 375.13 802.94 376.09 C 799.22 380.73 795.37 385.28 791.58 389.86 C 790.60 391.40 788.89 389.65 787.86 389.13 C 774.35 379.76 760.33 371.13 746.97 361.55 C 746.52 361.51 745.63 361.44 745.19 361.40 C 745.23 359.98 745.41 358.58 745.72 357.21 C 752.59 345.82 759.07 334.19 765.74 322.68 C 771.47 312.81 777.26 302.96 782.81 292.98 C 783.99 291.15 785.12 289.28 786.21 287.39 C 787.44 285.00 788.80 282.67 790.23 280.39 C 793.68 274.19 797.31 268.10 800.80 261.93 C 803.63 257.07 806.41 252.19 809.26 247.35 C 813.21 240.56 817.02 233.69 821.01 226.93 C 825.22 219.54 829.60 212.24 833.73 204.81 C 838.11 197.22 842.63 189.70 846.80 181.99 Z" />
</g>
<g id="#00adf7ff">
<path fill="#00adf7" opacity="1.00" d=" M 987.60 306.53 L 987.45 305.31 C 988.24 305.34 989.80 305.38 990.58 305.41 L 990.32 306.58 L 991.65 306.57 C 991.56 307.04 991.40 307.98 991.32 308.45 L 992.25 308.48 C 992.68 309.43 993.13 310.39 993.59 311.35 C 994.18 312.13 994.78 312.91 995.40 313.69 C 995.82 314.66 996.25 315.62 996.70 316.59 L 997.68 316.54 C 997.59 317.02 997.41 317.97 997.32 318.45 L 998.62 318.41 L 998.34 319.64 L 999.63 319.59 C 999.57 319.95 999.45 320.66 999.39 321.02 C 1000.67 322.62 1001.76 324.37 1002.74 326.18 C 1003.33 327.07 1003.95 327.95 1004.58 328.84 L 1004.42 329.57 L 1005.68 329.59 C 1005.57 330.08 1005.35 331.04 1005.24 331.53 L 1006.30 331.36 C 1006.73 332.45 1007.18 333.56 1007.63 334.66 L 1008.61 334.53 C 1008.56 335.00 1008.47 335.93 1008.42 336.39 L 1009.28 336.44 C 1009.75 337.47 1010.23 338.50 1010.73 339.53 L 1011.60 339.61 C 1011.53 340.08 1011.41 341.02 1011.35 341.49 L 1012.36 341.31 C 1012.79 342.41 1013.22 343.52 1013.67 344.63 L 1014.70 344.46 C 1014.63 344.94 1014.48 345.90 1014.41 346.38 L 1015.63 346.44 L 1015.30 347.66 L 1016.63 347.56 C 1016.57 348.02 1016.44 348.95 1016.38 349.42 L 1017.20 349.56 C 1017.70 350.49 1018.22 351.44 1018.76 352.38 C 1019.02 352.92 1019.54 354.00 1019.80 354.54 L 1020.30 354.37 C 1020.74 355.48 1021.21 356.59 1021.68 357.70 L 1022.71 357.49 C 1022.62 357.97 1022.45 358.93 1022.36 359.41 L 1023.18 359.46 C 1024.55 361.96 1026.05 364.38 1027.59 366.79 L 1027.50 367.53 L 1028.71 367.53 C 1028.62 368.01 1028.45 368.96 1028.36 369.43 L 1029.69 369.39 L 1029.35 370.62 L 1030.65 370.57 C 1030.56 371.05 1030.37 372.01 1030.28 372.49 L 1031.59 372.39 L 1031.32 373.61 L 1032.00 373.70 C 1032.71 375.09 1033.48 376.45 1034.28 377.82 C 1034.77 378.71 1035.27 379.60 1035.78 380.51 L 1036.63 380.59 C 1036.56 381.06 1036.41 382.00 1036.34 382.48 L 1037.36 382.31 C 1037.79 383.41 1038.23 384.51 1038.69 385.62 L 1039.61 385.46 C 1039.60 386.14 1039.59 387.52 1039.58 388.20 C 1038.53 388.70 1037.48 389.21 1036.45 389.72 L 1036.38 390.68 C 1035.90 390.57 1034.94 390.34 1034.47 390.22 L 1034.70 391.30 C 1033.58 391.76 1032.47 392.23 1031.37 392.70 L 1031.61 393.33 C 1030.49 393.75 1029.38 394.17 1028.29 394.60 L 1028.44 395.18 C 1027.90 395.43 1026.82 395.92 1026.28 396.17 C 1025.47 396.69 1024.68 397.21 1023.90 397.74 C 1022.14 398.89 1020.33 399.93 1018.47 400.87 L 1018.69 401.32 C 1017.57 401.78 1016.46 402.24 1015.36 402.71 L 1015.54 403.76 C 1015.05 403.66 1014.08 403.45 1013.59 403.35 L 1013.59 404.63 L 1012.37 404.30 L 1012.47 405.64 C 1011.98 405.57 1011.01 405.41 1010.52 405.33 L 1010.63 406.24 C 1009.69 406.71 1008.77 407.18 1007.87 407.67 C 1006.81 408.34 1005.77 409.02 1004.72 409.68 C 1003.88 410.23 1003.05 410.79 1002.24 411.36 C 1001.30 411.83 1000.37 412.29 999.46 412.76 L 999.45 413.71 C 998.97 413.60 998.01 413.40 997.53 413.30 L 997.64 414.65 L 996.41 414.33 L 996.41 415.60 C 995.92 415.53 994.95 415.39 994.46 415.31 L 994.64 416.34 C 993.54 416.78 992.44 417.22 991.36 417.67 L 991.57 418.27 C 990.52 418.71 989.49 419.16 988.47 419.62 C 987.73 420.21 986.99 420.80 986.27 421.39 C 985.33 421.84 984.40 422.28 983.48 422.74 L 983.47 423.20 C 982.42 423.69 981.38 424.20 980.36 424.71 L 980.38 425.59 C 979.90 425.52 978.94 425.39 978.47 425.32 L 978.66 426.32 C 977.54 426.77 976.43 427.23 975.34 427.69 L 975.55 428.75 C 975.07 428.65 974.10 428.46 973.62 428.37 L 973.61 429.31 C 972.56 429.79 971.52 430.27 970.49 430.75 L 970.55 431.26 C 969.58 431.71 968.63 432.17 967.69 432.64 C 966.92 433.22 966.16 433.81 965.42 434.40 C 964.42 434.85 963.44 435.30 962.47 435.76 L 962.55 436.33 C 961.48 436.78 960.41 437.24 959.36 437.71 L 959.48 438.75 C 959.00 438.63 958.03 438.39 957.55 438.27 L 957.60 439.59 L 956.40 439.33 L 956.41 440.60 C 955.92 440.53 954.94 440.39 954.46 440.32 L 954.63 441.31 C 953.54 441.75 952.46 442.20 951.39 442.66 L 951.46 443.17 C 950.92 443.46 949.85 444.03 949.31 444.31 C 948.37 444.81 947.44 445.32 946.52 445.83 L 946.54 446.26 C 945.50 446.74 944.46 447.23 943.44 447.73 L 943.42 448.64 C 942.93 448.55 941.96 448.37 941.48 448.28 L 941.70 449.35 C 940.58 449.80 939.48 450.24 938.38 450.69 L 938.66 451.33 C 937.54 451.76 936.42 452.19 935.32 452.63 L 935.53 453.68 C 935.05 453.61 934.09 453.48 933.61 453.41 L 933.61 454.29 C 932.57 454.77 931.53 455.25 930.51 455.74 L 930.53 456.21 C 928.85 457.09 927.18 457.98 925.50 458.84 L 925.63 459.35 C 924.55 459.81 923.48 460.27 922.42 460.73 L 922.42 461.88 L 920.72 461.27 C 920.68 461.63 920.59 462.34 920.55 462.70 L 919.40 462.34 L 919.49 463.68 C 919.01 463.59 918.04 463.43 917.56 463.35 L 917.57 464.63 L 916.36 464.31 L 916.43 465.61 C 915.95 465.54 914.98 465.39 914.50 465.32 L 914.49 466.14 C 912.69 467.11 910.93 468.16 909.24 469.31 C 908.43 469.76 907.63 470.21 906.84 470.66 C 905.93 471.30 905.04 471.94 904.16 472.60 L 903.44 472.41 L 903.42 473.66 C 902.94 473.57 901.97 473.39 901.48 473.29 L 901.68 474.34 C 900.57 474.78 899.47 475.23 898.37 475.68 L 898.56 476.16 C 896.43 477.29 894.37 478.52 892.29 479.71 L 892.44 480.09 L 891.59 480.38 C 886.11 482.11 881.74 486.02 876.86 488.88 C 875.44 489.63 873.99 490.91 872.28 490.40 C 869.61 487.58 867.91 484.01 865.22 481.22 C 864.47 480.33 863.78 479.39 863.14 478.47 L 862.81 478.50 C 862.54 477.93 862.00 476.79 861.73 476.22 C 860.87 474.95 860.01 473.67 859.19 472.39 L 858.35 472.52 C 858.41 472.04 858.54 471.08 858.60 470.60 L 857.81 470.60 C 857.53 470.23 856.97 469.50 856.68 469.13 C 856.21 468.20 855.74 467.28 855.29 466.36 L 854.68 466.60 C 854.52 466.01 854.21 464.82 854.05 464.23 C 853.72 463.98 853.06 463.47 852.73 463.21 C 852.23 462.39 851.73 461.57 851.25 460.76 C 850.54 459.64 849.85 458.54 849.20 457.43 L 848.72 457.58 C 848.23 456.52 847.75 455.46 847.27 454.41 L 846.74 454.58 C 846.24 453.51 845.76 452.45 845.28 451.40 L 844.89 451.51 C 844.17 450.39 843.42 449.28 842.70 448.19 C 842.19 447.30 841.69 446.41 841.20 445.53 L 840.79 445.50 C 838.85 443.08 836.81 439.35 839.92 436.94 C 840.36 436.79 841.23 436.48 841.67 436.32 L 841.53 435.93 C 844.56 433.56 847.24 430.79 850.10 428.22 C 850.47 427.97 851.22 427.46 851.60 427.21 L 851.60 426.93 C 853.91 425.01 856.08 422.93 858.42 421.05 L 858.36 420.74 C 858.74 420.50 859.50 420.02 859.88 419.78 C 862.81 417.27 865.42 414.39 868.52 412.08 L 868.36 411.76 C 868.73 411.52 869.47 411.05 869.84 410.81 C 872.00 408.86 874.11 406.86 876.39 405.06 L 876.38 404.31 L 877.18 404.58 C 877.47 404.28 878.06 403.67 878.35 403.36 C 881.03 400.93 883.59 398.37 886.37 396.05 L 886.42 395.78 C 886.78 395.53 887.51 395.02 887.87 394.77 C 890.02 392.82 892.12 390.83 894.43 389.07 L 894.35 388.31 L 895.14 388.55 C 895.51 388.21 896.25 387.54 896.62 387.20 L 896.55 386.93 C 899.30 384.79 901.68 382.24 904.40 380.06 L 904.40 379.36 L 905.60 379.60 L 905.39 378.79 C 905.77 378.55 906.53 378.08 906.91 377.84 C 908.96 375.95 911.02 374.06 913.10 372.20 C 913.48 371.96 914.24 371.47 914.62 371.23 L 914.39 370.40 L 915.27 370.61 C 917.92 368.00 920.56 365.38 923.47 363.06 L 923.39 362.80 C 923.78 362.55 924.55 362.05 924.93 361.80 C 927.16 359.73 929.41 357.68 931.67 355.64 C 931.96 355.34 932.54 354.73 932.83 354.42 L 933.59 354.67 L 933.64 353.96 C 936.23 351.81 938.62 349.45 941.08 347.16 C 941.46 346.92 942.23 346.44 942.61 346.20 L 942.39 345.38 L 943.62 345.68 L 943.59 344.93 C 945.69 343.29 947.66 341.48 949.62 339.67 C 949.94 339.44 950.58 338.99 950.90 338.76 C 953.76 336.23 956.41 333.46 959.40 331.06 L 959.39 330.78 C 959.76 330.45 960.50 329.80 960.88 329.47 L 961.20 329.62 C 963.45 327.42 965.77 325.30 968.10 323.19 C 968.48 322.96 969.24 322.50 969.62 322.27 L 969.61 321.94 C 972.59 319.50 975.26 316.72 978.17 314.21 C 978.45 313.99 979.03 313.56 979.32 313.35 C 981.41 311.45 983.50 309.54 985.61 307.65 C 985.91 307.34 986.50 306.72 986.80 306.40 L 987.60 306.53 Z" />
</g>
<g id="#0054787d">
<path fill="#005478" opacity="0.49" d=" M 876.86 488.88 C 881.74 486.02 886.11 482.11 891.59 480.38 C 888.48 483.53 884.42 485.40 880.78 487.82 C 877.94 489.67 875.07 491.53 871.91 492.81 C 869.80 488.87 866.34 485.63 865.22 481.22 C 867.91 484.01 869.61 487.58 872.28 490.40 C 873.99 490.91 875.44 489.63 876.86 488.88 Z" />
</g>
</svg>
