<?xml version="1.0" encoding="UTF-8" ?>
<!DOCTYPE svg PUBLIC "-//W3C//DTD SVG 1.1//EN" "http://www.w3.org/Graphics/SVG/1.1/DTD/svg11.dtd">
<svg width="1276pt" height="1276pt" viewBox="0 0 1276 1276" version="1.1" xmlns="http://www.w3.org/2000/svg">
<g id="#ff0000ff">
<path fill="#ff0000" opacity="1.00" d=" M 944.00 184.63 C 991.00 184.62 1038.00 184.63 1085.00 184.62 C 1095.97 184.71 1107.09 184.03 1117.86 186.58 C 1130.10 189.21 1141.58 195.59 1149.86 205.04 C 1159.96 216.44 1165.99 230.99 1168.66 245.88 C 1171.38 261.40 1171.37 277.43 1168.22 292.89 C 1166.61 301.99 1163.52 310.84 1158.85 318.83 C 1150.10 334.23 1134.55 345.76 1117.12 349.16 C 1109.20 350.83 1101.08 350.95 1093.03 350.88 C 1080.02 350.88 1067.02 350.88 1054.01 350.88 C 1040.66 350.96 1027.30 350.78 1013.96 350.96 C 1007.75 350.84 1001.74 354.46 999.07 360.06 C 995.42 367.29 996.48 375.61 996.32 383.41 C 996.30 387.11 996.30 390.80 996.33 394.50 C 1000.85 394.49 1005.37 394.51 1009.90 394.48 C 1016.52 394.44 1023.14 394.43 1029.76 394.45 C 1047.58 394.47 1065.40 394.38 1083.23 394.45 C 1111.77 394.55 1140.32 394.47 1168.87 394.49 C 1168.89 414.99 1168.87 435.49 1168.88 456.00 C 1144.25 456.01 1119.61 455.99 1094.98 456.00 C 1073.85 456.02 1052.73 456.01 1031.61 456.01 C 1001.80 455.99 971.99 456.01 942.18 456.00 C 942.15 427.54 942.25 399.08 942.13 370.63 L 942.12 370.05 C 942.49 347.83 947.86 323.95 964.22 307.85 C 971.64 301.06 980.25 295.29 990.00 292.50 C 1002.29 288.71 1015.29 289.35 1028.00 289.31 C 1051.67 289.29 1075.34 289.35 1099.01 289.28 C 1104.05 289.34 1109.01 287.03 1112.06 282.99 C 1117.10 275.98 1117.40 266.54 1115.39 258.42 C 1113.53 251.21 1106.54 245.93 1099.09 246.20 C 1047.39 246.02 995.70 246.18 944.00 246.12 C 944.00 225.62 944.00 205.13 944.00 184.63 Z" />
</g>
<g id="#ff7e00ff">
<path fill="#ff7e00" opacity="1.00" d=" M 182.42 335.96 C 183.15 320.38 197.31 307.05 212.89 307.08 C 333.61 307.05 454.34 307.04 575.07 307.09 C 586.82 307.00 598.14 313.94 603.33 324.49 C 606.06 329.89 606.86 336.04 606.66 342.03 C 606.63 356.99 606.66 371.95 606.65 386.91 C 586.75 387.01 566.86 387.06 546.97 386.92 C 544.64 386.94 542.36 387.41 540.10 387.87 C 535.97 379.57 528.06 373.21 518.98 371.22 C 515.04 370.28 510.96 370.70 506.95 370.63 C 429.64 370.63 352.33 370.65 275.01 370.63 C 263.98 370.87 253.76 378.11 248.84 387.84 C 246.27 387.32 243.67 386.86 241.05 386.88 C 221.51 387.12 201.97 386.89 182.43 387.03 C 182.42 370.01 182.44 352.98 182.42 335.96 Z" />
</g>
<g id="#ff7f00ff">
<path fill="#ff7f00" opacity="1.00" d=" M 673.80 324.92 C 678.62 314.10 690.20 307.01 701.97 307.06 C 781.08 307.11 860.19 306.98 939.30 307.12 C 937.57 307.49 935.87 307.97 934.18 308.43 C 937.08 313.78 941.65 318.65 941.99 325.01 C 942.39 330.82 939.32 335.95 937.19 341.12 C 933.75 350.71 928.37 359.57 926.12 369.58 C 931.43 370.07 936.78 370.22 942.12 370.05 L 942.13 370.63 C 907.09 370.63 872.06 370.64 837.02 370.63 C 822.26 371.30 809.31 384.23 808.38 398.93 C 808.34 410.27 808.39 421.61 808.37 432.95 C 762.49 432.83 716.60 432.94 670.72 432.89 C 670.71 402.91 670.72 372.93 670.71 342.94 C 670.46 336.82 670.89 330.45 673.80 324.92 Z" />
</g>
<g id="#ef7600ff">
<path fill="#ef7600" opacity="1.00" d=" M 939.30 307.12 C 947.60 306.99 955.95 306.89 964.22 307.85 C 947.86 323.95 942.49 347.83 942.12 370.05 C 936.78 370.22 931.43 370.07 926.12 369.58 C 928.37 359.57 933.75 350.71 937.19 341.12 C 939.32 335.95 942.39 330.82 941.99 325.01 C 941.65 318.65 937.08 313.78 934.18 308.43 C 935.87 307.97 937.57 307.49 939.30 307.12 Z" />
</g>
<g id="#733a00ff">
<path fill="#733a00" opacity="1.00" d=" M 999.07 360.06 C 1001.74 354.46 1007.75 350.84 1013.96 350.96 C 1027.30 350.78 1040.66 350.96 1054.01 350.88 C 1062.67 359.76 1070.18 369.77 1076.32 380.55 C 1063.25 380.59 1049.70 381.00 1037.63 386.61 C 1034.16 388.23 1032.18 391.67 1029.76 394.45 C 1023.14 394.43 1016.52 394.44 1009.90 394.48 C 1005.58 390.54 1001.16 386.71 996.32 383.41 C 996.48 375.61 995.42 367.29 999.07 360.06 Z" />
</g>
<g id="#874501ff">
<path fill="#874501" opacity="1.00" d=" M 1037.63 386.61 C 1049.70 381.00 1063.25 380.59 1076.32 380.55 C 1078.80 385.09 1081.26 389.65 1083.23 394.45 C 1065.40 394.38 1047.58 394.47 1029.76 394.45 C 1032.18 391.67 1034.16 388.23 1037.63 386.61 Z" />
</g>
<g id="#fe8501ff">
<path fill="#fe8501" opacity="1.00" d=" M 182.43 387.03 C 201.97 386.89 221.51 387.12 241.05 386.88 C 243.67 386.86 246.27 387.32 248.84 387.84 C 246.73 392.24 245.46 397.10 245.59 402.00 C 245.63 412.33 245.60 422.66 245.61 433.00 C 224.55 432.96 203.49 433.08 182.43 432.98 C 182.43 417.66 182.44 402.35 182.43 387.03 Z" />
<path fill="#fe8501" opacity="1.00" d=" M 540.10 387.87 C 542.36 387.41 544.64 386.94 546.97 386.92 C 566.86 387.06 586.75 387.01 606.65 386.91 C 606.64 402.26 606.65 417.61 606.65 432.95 C 585.60 433.10 564.55 432.94 543.50 433.04 C 543.49 423.34 543.49 413.64 543.51 403.94 C 543.51 398.42 542.48 392.87 540.10 387.87 Z" />
</g>
<g id="#fe8b02ff">
<path fill="#fe8b02" opacity="1.00" d=" M 182.43 432.98 C 203.49 433.08 224.55 432.96 245.61 433.00 C 245.61 451.34 245.61 469.68 245.61 488.02 C 224.55 488.03 203.49 488.00 182.43 487.97 C 182.43 469.64 182.44 451.31 182.43 432.98 Z" />
<path fill="#fe8b02" opacity="1.00" d=" M 543.50 433.04 C 564.55 432.94 585.60 433.10 606.65 432.95 C 606.64 453.99 606.65 475.02 606.65 496.06 C 585.60 496.02 564.54 495.92 543.50 496.02 C 543.49 475.03 543.50 454.03 543.50 433.04 Z" />
<path fill="#fe8b02" opacity="1.00" d=" M 670.72 432.89 C 716.60 432.94 762.49 432.83 808.37 432.95 C 808.37 453.97 808.37 475.00 808.37 496.02 C 762.49 495.87 716.60 496.06 670.72 495.99 C 670.72 474.95 670.72 453.92 670.72 432.89 Z" />
</g>
<g id="#723f01ff">
<path fill="#723f01" opacity="1.00" d=" M 1031.61 456.01 C 1052.73 456.01 1073.85 456.02 1094.98 456.00 C 1095.00 464.89 1094.92 473.77 1095.03 482.66 C 1091.52 480.10 1087.02 480.99 1082.97 480.89 C 1071.98 481.19 1060.99 480.76 1050.00 480.97 C 1043.86 481.16 1037.68 480.52 1031.60 481.67 C 1031.59 473.11 1031.58 464.56 1031.61 456.01 Z" />
</g>
<g id="#834a01ff">
<path fill="#834a01" opacity="1.00" d=" M 1031.60 481.67 C 1037.68 480.52 1043.86 481.16 1050.00 480.97 C 1060.99 480.76 1071.98 481.19 1082.97 480.89 C 1087.02 480.99 1091.52 480.10 1095.03 482.66 C 1094.92 486.99 1094.95 491.32 1095.04 495.65 C 1093.23 494.49 1091.12 494.01 1089.00 494.15 C 1076.99 494.29 1064.98 494.18 1052.97 494.23 C 1045.85 494.30 1038.72 493.89 1031.63 494.65 C 1031.61 490.32 1031.61 485.99 1031.60 481.67 Z" />
</g>
<g id="#fd9203ff">
<path fill="#fd9203" opacity="1.00" d=" M 182.43 487.97 C 203.49 488.00 224.55 488.03 245.61 488.02 C 245.61 505.00 245.61 521.97 245.61 538.95 C 224.55 539.21 203.49 538.85 182.43 539.09 C 182.43 522.05 182.44 505.01 182.43 487.97 Z" />
</g>
<g id="#9f5a02ff">
<path fill="#9f5a02" opacity="1.00" d=" M 1031.63 494.65 C 1038.72 493.89 1045.85 494.30 1052.97 494.23 C 1064.98 494.18 1076.99 494.29 1089.00 494.15 C 1091.12 494.01 1093.23 494.49 1095.04 495.65 C 1094.90 499.62 1094.96 503.58 1095.02 507.55 C 1093.46 506.81 1091.80 506.17 1090.06 506.27 C 1074.71 506.32 1059.36 506.30 1044.01 506.30 C 1039.87 506.40 1035.44 505.56 1031.64 507.64 C 1031.63 503.30 1031.64 498.97 1031.63 494.65 Z" />
</g>
<g id="#fd9303ff">
<path fill="#fd9303" opacity="1.00" d=" M 543.50 496.02 C 564.54 495.92 585.60 496.02 606.65 496.06 C 606.64 512.35 606.65 528.64 606.64 544.94 C 585.60 545.16 564.54 544.85 543.50 545.03 C 543.49 528.69 543.50 512.36 543.50 496.02 Z" />
<path fill="#fd9303" opacity="1.00" d=" M 670.72 495.99 C 716.60 496.06 762.49 495.87 808.37 496.02 C 808.37 512.34 808.37 528.66 808.37 544.98 C 762.49 545.00 716.60 544.96 670.72 545.04 C 670.71 528.69 670.72 512.34 670.72 495.99 Z" />
</g>
<g id="#c06f02ff">
<path fill="#c06f02" opacity="1.00" d=" M 1031.64 507.64 C 1035.44 505.56 1039.87 506.40 1044.01 506.30 C 1059.36 506.30 1074.71 506.32 1090.06 506.27 C 1091.80 506.17 1093.46 506.81 1095.02 507.55 C 1094.84 513.44 1095.08 519.35 1094.92 525.24 C 1094.67 522.82 1094.22 520.43 1093.81 518.04 C 1075.87 517.37 1057.91 518.05 1039.96 517.69 C 1037.03 517.51 1034.08 517.88 1031.67 519.66 C 1031.68 515.65 1031.68 511.64 1031.64 507.64 Z" />
</g>
<g id="#d97e03ff">
<path fill="#d97e03" opacity="1.00" d=" M 1031.67 519.66 C 1034.08 517.88 1037.03 517.51 1039.96 517.69 C 1057.91 518.05 1075.87 517.37 1093.81 518.04 C 1094.22 520.43 1094.67 522.82 1094.92 525.24 C 1095.07 529.14 1094.94 533.04 1094.95 536.95 L 1094.26 536.98 C 1094.30 533.69 1094.17 530.40 1093.89 527.13 C 1073.75 527.03 1053.61 526.66 1033.49 527.26 C 1032.88 528.59 1032.27 529.92 1031.74 531.29 C 1031.72 527.41 1031.68 523.53 1031.67 519.66 Z" />
</g>
<g id="#ec8b03ff">
<path fill="#ec8b03" opacity="1.00" d=" M 1033.49 527.26 C 1053.61 526.66 1073.75 527.03 1093.89 527.13 C 1094.17 530.40 1094.30 533.69 1094.26 536.98 C 1074.84 537.58 1055.40 537.08 1035.97 537.23 C 1034.00 536.91 1032.93 538.73 1031.69 539.88 C 1031.70 537.01 1031.68 534.15 1031.74 531.29 C 1032.27 529.92 1032.88 528.59 1033.49 527.26 Z" />
</g>
<g id="#fd9904ff">
<path fill="#fd9904" opacity="1.00" d=" M 1031.69 539.88 C 1032.93 538.73 1034.00 536.91 1035.97 537.23 C 1055.40 537.08 1074.84 537.58 1094.26 536.98 L 1094.95 536.95 C 1094.91 568.62 1094.97 600.30 1094.94 631.98 L 1094.07 631.93 C 1093.93 616.69 1094.11 601.44 1093.78 586.21 C 1073.56 585.69 1053.32 586.45 1033.11 585.81 C 1032.92 581.34 1033.37 576.75 1031.82 572.47 C 1031.59 561.61 1031.83 550.74 1031.69 539.88 Z" />
</g>
<g id="#fd9b04ff">
<path fill="#fd9b04" opacity="1.00" d=" M 182.43 539.09 C 203.49 538.85 224.55 539.21 245.61 538.95 C 245.60 563.28 245.62 587.62 245.61 611.95 C 224.55 612.00 203.49 611.91 182.43 611.96 C 182.43 587.67 182.44 563.38 182.43 539.09 Z" />
</g>
<g id="#fd9a04ff">
<path fill="#fd9a04" opacity="1.00" d=" M 543.50 545.03 C 564.54 544.85 585.60 545.16 606.64 544.94 C 606.64 560.95 606.65 576.95 606.64 592.96 C 585.59 593.12 564.55 593.01 543.50 593.05 C 543.49 577.04 543.50 561.03 543.50 545.03 Z" />
<path fill="#fd9a04" opacity="1.00" d=" M 670.72 545.04 C 716.60 544.96 762.49 545.00 808.37 544.98 C 808.37 561.00 808.37 577.02 808.37 593.04 C 762.49 593.04 716.60 593.05 670.72 593.04 C 670.71 577.04 670.72 561.04 670.72 545.04 Z" />
</g>
<g id="#fca205ff">
<path fill="#fca205" opacity="1.00" d=" M 1031.82 572.47 C 1033.37 576.75 1032.92 581.34 1033.11 585.81 C 1053.32 586.45 1073.56 585.69 1093.78 586.21 C 1094.11 601.44 1093.93 616.69 1094.07 631.93 C 1093.89 640.55 1094.16 649.18 1093.79 657.79 C 1073.58 658.45 1053.36 657.68 1033.16 658.18 C 1032.69 671.25 1033.26 684.35 1032.70 697.42 L 1031.80 698.66 C 1031.69 656.60 1031.66 614.53 1031.82 572.47 Z" />
</g>
<g id="#fca405ff">
<path fill="#fca405" opacity="1.00" d=" M 543.50 593.05 C 564.55 593.01 585.59 593.12 606.64 592.96 C 606.64 619.00 606.65 645.03 606.65 671.07 C 585.60 670.88 564.54 670.98 543.49 671.02 C 543.49 645.03 543.50 619.04 543.50 593.05 Z" />
</g>
<g id="#fca305ff">
<path fill="#fca305" opacity="1.00" d=" M 670.72 593.04 C 716.60 593.05 762.49 593.04 808.37 593.04 C 808.36 614.68 808.37 636.32 808.37 657.97 C 762.49 658.10 716.60 657.93 670.72 658.03 C 670.71 636.37 670.72 614.70 670.72 593.04 Z" />
<path fill="#fca305" opacity="1.00" d=" M 182.43 611.96 C 203.49 611.91 224.55 612.00 245.61 611.95 C 245.61 620.64 245.61 629.34 245.61 638.04 C 224.55 638.02 203.49 637.96 182.43 638.03 C 182.43 629.34 182.43 620.65 182.43 611.96 Z" />
</g>
<g id="#fbad07ff">
<path fill="#fbad07" opacity="1.00" d=" M 1094.07 631.93 L 1094.94 631.98 C 1094.88 665.19 1095.04 698.41 1094.88 731.61 C 1094.47 733.71 1093.94 735.79 1093.45 737.88 C 1073.37 737.99 1053.27 738.20 1033.19 737.85 C 1032.64 724.38 1033.07 710.89 1032.70 697.42 C 1033.26 684.35 1032.69 671.25 1033.16 658.18 C 1053.36 657.68 1073.58 658.45 1093.79 657.79 C 1094.16 649.18 1093.89 640.55 1094.07 631.93 Z" />
<path fill="#fbad07" opacity="1.00" d=" M 670.72 658.03 C 716.60 657.93 762.49 658.10 808.37 657.97 C 808.37 682.64 808.38 707.32 808.37 732.00 C 762.49 731.87 716.60 732.09 670.72 731.95 C 670.72 707.31 670.72 682.67 670.72 658.03 Z" />
</g>
<g id="#fca806ff">
<path fill="#fca806" opacity="1.00" d=" M 182.43 638.03 C 203.49 637.96 224.55 638.02 245.61 638.04 C 245.61 651.37 245.62 664.69 245.61 678.01 C 224.55 678.02 203.49 678.12 182.43 677.99 C 182.43 664.67 182.44 651.35 182.43 638.03 Z" />
</g>
<g id="#fbae07ff">
<path fill="#fbae07" opacity="1.00" d=" M 543.49 671.02 C 564.54 670.98 585.60 670.88 606.65 671.07 C 606.64 689.06 606.65 707.05 606.64 725.04 C 576.44 725.04 546.24 724.97 516.04 725.04 C 503.21 724.78 490.36 725.37 477.54 724.63 C 485.33 715.72 497.74 713.53 509.01 714.52 C 521.20 715.66 533.43 709.06 539.38 698.41 C 544.30 690.15 543.49 680.24 543.49 671.02 Z" />
</g>
<g id="#fbb007ff">
<path fill="#fbb007" opacity="1.00" d=" M 182.43 677.99 C 203.49 678.12 224.55 678.02 245.61 678.01 C 245.60 702.68 245.62 727.34 245.61 752.00 C 224.55 751.92 203.49 751.98 182.43 751.97 C 182.42 727.31 182.44 702.65 182.43 677.99 Z" />
</g>
<g id="#faba08ff">
<path fill="#faba08" opacity="1.00" d=" M 1031.80 698.66 L 1032.70 697.42 C 1033.07 710.89 1032.64 724.38 1033.19 737.85 C 1053.27 738.20 1073.37 737.99 1093.45 737.88 C 1093.94 735.79 1094.47 733.71 1094.88 731.61 C 1095.02 759.07 1094.90 786.52 1094.94 813.98 C 1094.87 821.31 1095.19 828.66 1094.54 835.98 C 1073.83 835.70 1053.12 836.32 1032.42 835.75 C 1032.14 834.35 1031.89 832.96 1031.67 831.58 C 1031.86 787.27 1031.60 742.96 1031.80 698.66 Z" />
</g>
<g id="#fbb608ff">
<path fill="#fbb608" opacity="1.00" d=" M 469.39 744.98 C 469.26 737.45 472.65 730.22 477.54 724.63 C 490.36 725.37 503.21 724.78 516.04 725.04 C 546.24 724.97 576.44 725.04 606.64 725.04 C 606.64 746.35 606.65 767.67 606.64 788.98 C 560.90 789.09 515.16 788.97 469.42 789.03 C 469.40 774.35 469.45 759.66 469.39 744.98 Z" />
<path fill="#fbb608" opacity="1.00" d=" M 670.72 731.95 C 716.60 732.09 762.49 731.87 808.37 732.00 C 808.37 746.00 808.37 760.00 808.37 774.00 C 762.49 773.96 716.60 774.15 670.72 773.97 C 670.72 759.96 670.72 745.96 670.72 731.95 Z" />
</g>
<g id="#fbb808ff">
<path fill="#fbb808" opacity="1.00" d=" M 182.43 751.97 C 203.49 751.98 224.55 751.92 245.61 752.00 C 245.60 764.34 245.61 776.67 245.61 789.00 C 224.55 789.04 203.49 789.01 182.43 788.97 C 182.43 776.63 182.44 764.30 182.43 751.97 Z" />
</g>
<g id="#fabd09ff">
<path fill="#fabd09" opacity="1.00" d=" M 670.72 773.97 C 716.60 774.15 762.49 773.96 808.37 774.00 C 808.37 794.68 808.37 815.36 808.37 836.04 C 762.49 836.03 716.60 835.92 670.72 836.02 C 670.72 815.34 670.72 794.65 670.72 773.97 Z" />
</g>
<g id="#fabf09ff">
<path fill="#fabf09" opacity="1.00" d=" M 182.43 788.97 C 203.49 789.01 224.55 789.04 245.61 789.00 C 245.60 810.35 245.62 831.69 245.61 853.03 C 224.55 853.14 203.49 853.02 182.43 853.11 C 182.42 831.73 182.44 810.35 182.43 788.97 Z" />
</g>
<g id="#fac009ff">
<path fill="#fac009" opacity="1.00" d=" M 469.42 789.03 C 515.16 788.97 560.90 789.09 606.64 788.98 C 606.64 819.33 606.65 849.68 606.65 880.03 C 560.66 879.79 514.66 880.13 468.68 879.94 C 469.70 874.69 469.39 869.32 469.42 864.01 C 469.42 839.02 469.42 814.02 469.42 789.03 Z" />
</g>
<g id="#fac40aff">
<path fill="#fac40a" opacity="1.00" d=" M 1000.46 889.48 C 1018.65 875.96 1030.38 854.20 1031.67 831.58 C 1031.89 832.96 1032.14 834.35 1032.42 835.75 C 1053.12 836.32 1073.83 835.70 1094.54 835.98 C 1092.79 854.76 1087.80 873.43 1078.74 890.02 L 1078.02 890.30 C 1063.02 889.53 1047.99 890.25 1032.99 889.98 C 1022.15 889.80 1011.27 890.58 1000.46 889.48 Z" />
<path fill="#fac40a" opacity="1.00" d=" M 670.72 836.02 C 716.60 835.92 762.49 836.03 808.37 836.04 C 808.36 849.04 808.40 862.04 808.35 875.04 C 808.18 880.19 809.99 885.18 812.40 889.66 C 802.26 890.40 792.09 889.87 781.94 890.01 C 744.87 889.96 707.79 890.05 670.72 889.98 C 670.72 871.99 670.72 854.01 670.72 836.02 Z" />
</g>
<g id="#f9ca0bff">
<path fill="#f9ca0b" opacity="1.00" d=" M 182.43 853.11 C 203.49 853.02 224.55 853.14 245.61 853.03 C 245.61 860.01 245.60 867.00 245.59 873.98 C 245.53 879.06 246.92 884.10 249.28 888.57 C 254.75 898.93 266.16 905.52 277.86 905.30 C 328.22 905.47 378.59 905.31 428.96 905.37 C 436.89 905.44 445.30 905.48 452.46 901.60 C 460.81 897.34 466.80 889.08 468.68 879.94 C 514.66 880.13 560.66 879.79 606.65 880.03 C 606.65 898.04 606.63 916.04 606.66 934.04 C 606.92 941.37 605.42 949.01 601.01 955.02 C 595.46 963.17 585.91 968.37 576.04 968.57 C 454.70 968.56 333.35 968.59 212.01 968.55 C 196.84 968.03 183.36 955.16 182.43 939.98 C 182.43 911.02 182.44 882.06 182.43 853.11 Z" />
<path fill="#f9ca0b" opacity="1.00" d=" M 670.72 889.98 C 707.79 890.05 744.87 889.96 781.94 890.01 C 792.09 889.87 802.26 890.40 812.40 889.66 C 817.96 899.33 828.88 905.41 840.01 905.36 C 877.66 905.38 915.32 905.36 952.98 905.37 C 969.96 905.26 986.91 899.77 1000.46 889.48 C 1011.27 890.58 1022.15 889.80 1032.99 889.98 C 1047.99 890.25 1063.02 889.53 1078.02 890.30 L 1078.36 890.70 C 1071.25 905.22 1060.90 918.09 1049.20 929.22 C 1026.10 951.12 995.53 965.08 963.79 967.87 C 957.21 968.60 950.60 968.65 944.00 968.57 C 863.00 968.57 781.99 968.58 700.98 968.56 C 695.67 968.30 690.38 966.83 685.85 964.02 C 676.49 958.56 670.58 947.82 670.70 937.02 C 670.74 921.34 670.71 905.66 670.72 889.98 Z" />
</g>
</svg>
