<?xml version="1.0" encoding="UTF-8" ?>
<!DOCTYPE svg PUBLIC "-//W3C//DTD SVG 1.1//EN" "http://www.w3.org/Graphics/SVG/1.1/DTD/svg11.dtd">
<svg width="1276pt" height="1276pt" viewBox="0 0 1276 1276" version="1.1" xmlns="http://www.w3.org/2000/svg">
<g id="#ff131dff">
<path fill="#ff131d" opacity="1.00" d=" M 549.44 198.63 C 558.82 195.20 569.09 194.76 578.86 196.47 C 581.30 196.92 583.92 198.34 584.20 201.07 C 584.98 205.62 589.91 207.04 593.83 207.74 C 606.15 209.63 618.62 210.24 631.02 211.35 C 638.04 211.41 645.00 212.81 652.04 212.42 C 653.47 212.35 654.72 211.52 656.00 210.94 C 663.04 207.10 670.35 203.78 677.53 200.22 C 679.04 199.44 680.67 198.90 682.34 198.55 C 683.92 199.81 686.17 200.70 686.66 202.89 C 688.10 206.83 686.42 210.87 685.12 214.58 C 696.76 214.65 708.34 215.91 719.99 215.52 C 730.65 216.12 741.12 213.11 750.91 209.12 C 758.34 206.08 766.93 204.36 774.68 207.24 C 780.46 209.64 782.47 216.37 787.85 219.38 C 797.00 224.39 807.78 225.29 818.03 225.26 C 824.67 222.24 831.64 219.65 838.98 219.19 C 843.59 218.76 848.71 217.69 853.09 219.38 C 857.58 217.18 861.71 214.28 866.43 212.55 C 872.76 209.99 878.93 205.67 886.10 206.67 C 888.88 206.45 890.55 208.89 892.61 210.27 C 903.89 207.86 915.46 207.72 926.94 208.19 C 935.11 209.06 944.30 210.44 949.98 217.04 C 953.73 220.78 955.12 226.02 957.54 230.57 C 960.78 234.27 963.97 238.02 967.45 241.50 C 969.97 244.31 972.30 247.63 976.00 248.99 C 988.35 254.40 1001.98 257.14 1013.21 264.93 C 1020.23 269.43 1025.89 276.13 1028.93 283.92 C 1029.39 285.69 1031.08 286.55 1032.51 287.48 C 1040.75 292.69 1048.24 299.00 1055.36 305.64 C 1063.03 309.70 1071.62 312.87 1077.46 319.60 C 1082.19 325.72 1083.17 333.74 1083.65 341.22 C 1083.98 345.39 1084.41 349.57 1084.33 353.76 C 1090.15 356.00 1096.08 358.13 1102.23 359.31 C 1104.36 359.53 1107.91 360.03 1107.63 362.93 C 1108.37 365.46 1105.99 367.34 1103.63 367.08 C 1100.08 367.41 1096.52 367.56 1092.97 367.63 C 1095.26 372.10 1098.78 377.86 1104.56 377.38 C 1110.02 376.92 1115.39 375.65 1120.40 373.40 C 1125.69 371.01 1131.52 369.79 1137.32 370.68 C 1138.71 374.82 1135.65 378.91 1132.32 381.11 C 1128.84 384.65 1124.63 387.17 1120.39 389.66 C 1119.68 390.07 1118.98 390.48 1118.29 390.88 C 1113.37 393.53 1108.27 395.93 1103.75 399.28 C 1106.92 399.58 1110.12 399.73 1113.32 399.83 C 1122.12 401.03 1131.16 400.02 1139.85 402.36 C 1139.64 406.09 1136.42 408.90 1132.99 409.84 C 1123.51 412.81 1114.61 417.22 1105.92 421.97 C 1104.90 426.07 1103.17 430.15 1100.06 433.12 C 1096.53 436.52 1091.92 438.41 1087.50 440.34 C 1083.81 441.81 1082.10 445.70 1079.67 448.58 C 1077.23 451.18 1079.28 455.09 1077.58 458.00 C 1076.65 459.57 1075.31 460.82 1074.08 462.13 C 1073.79 466.22 1074.45 470.39 1073.58 474.42 C 1070.78 482.98 1062.33 488.18 1054.13 490.70 C 1041.89 494.50 1028.70 498.01 1019.51 507.52 C 1013.12 513.38 1010.58 522.73 1012.53 531.10 C 1014.79 539.99 1020.36 547.52 1023.71 555.97 C 1024.74 559.11 1026.36 562.56 1025.16 565.88 C 1023.93 569.07 1019.91 569.47 1016.97 569.43 C 1009.69 568.90 1002.79 566.34 995.68 564.88 C 989.13 563.53 982.79 560.51 976.02 560.67 C 970.33 561.95 965.82 566.03 960.84 568.86 C 955.61 572.37 948.76 574.74 946.08 580.92 C 944.14 584.70 950.27 589.34 946.04 592.34 C 939.95 595.30 932.91 595.23 926.49 597.19 C 915.31 599.75 905.30 605.60 895.71 611.69 C 891.48 614.05 886.95 616.14 882.13 616.86 C 877.41 617.22 872.68 616.91 867.97 616.98 C 854.24 616.94 840.63 620.94 826.90 619.03 C 820.81 618.22 814.71 619.71 809.04 621.82 C 826.92 624.47 843.75 631.37 861.17 635.87 C 876.86 640.38 893.26 641.61 908.92 646.21 C 913.11 647.58 917.42 648.65 921.47 650.45 C 926.22 652.03 931.21 650.13 936.08 650.60 C 945.73 650.05 955.54 650.05 965.05 651.98 C 969.61 653.15 975.40 654.80 976.76 659.96 C 978.10 664.86 974.74 669.23 971.74 672.72 C 977.61 675.94 983.18 679.71 988.17 684.20 C 991.81 687.69 995.32 691.40 997.67 695.92 C 1000.41 700.46 1001.46 705.72 1002.07 710.92 C 1002.21 712.82 1002.23 714.74 1002.26 716.67 C 1004.69 716.65 1007.11 716.63 1009.56 716.63 C 1019.49 716.68 1029.31 715.00 1039.10 713.52 C 1042.24 713.05 1043.11 716.75 1042.60 719.16 C 1037.06 723.56 1030.92 728.14 1028.55 735.11 C 1026.60 740.36 1032.54 743.64 1034.18 748.11 C 1035.96 751.30 1036.52 755.19 1039.23 757.84 C 1044.19 762.97 1048.50 769.61 1047.94 777.05 C 1047.95 782.58 1044.36 787.40 1039.88 790.30 C 1041.23 794.31 1044.69 798.13 1043.43 802.60 C 1041.71 805.91 1038.49 808.08 1036.20 810.97 C 1036.27 817.95 1036.28 824.93 1036.19 831.91 C 1038.92 833.76 1042.12 834.59 1045.09 835.96 C 1045.11 836.47 1045.14 837.49 1045.16 837.99 C 1041.88 840.00 1038.25 841.53 1035.52 844.33 C 1034.69 851.54 1033.19 858.79 1029.53 865.15 C 1029.45 867.15 1029.26 869.17 1029.47 871.19 C 1032.84 873.14 1036.68 874.06 1040.16 875.79 C 1041.47 876.82 1041.53 878.59 1041.39 880.14 C 1039.96 882.50 1037.00 882.54 1034.61 883.14 C 1029.99 884.18 1025.25 884.92 1020.86 886.72 C 1017.68 888.86 1015.38 892.03 1012.56 894.59 C 1008.28 898.44 1003.41 901.56 998.57 904.65 C 996.84 905.59 996.21 907.54 995.46 909.22 C 994.09 912.57 992.79 915.96 991.60 919.39 C 988.68 926.05 993.29 933.47 990.07 940.12 C 988.88 943.16 984.84 943.91 984.21 947.26 C 982.17 954.97 976.92 961.21 974.63 968.79 C 966.85 983.81 952.00 993.82 936.18 998.87 C 932.52 1004.99 926.52 1010.69 918.81 1009.76 C 913.37 1015.24 907.22 1020.16 900.07 1023.19 C 890.99 1027.58 881.28 1031.47 871.01 1031.17 C 861.16 1031.44 851.12 1030.16 841.47 1032.69 C 835.03 1033.94 828.20 1036.99 821.73 1034.20 C 813.52 1030.18 805.93 1024.92 797.44 1021.47 C 790.79 1018.56 784.21 1015.18 777.09 1013.67 C 772.33 1015.90 768.48 1019.76 763.46 1021.50 C 753.77 1025.13 743.21 1027.65 732.85 1025.79 C 729.49 1025.39 726.30 1024.24 723.04 1023.39 C 719.90 1023.63 717.01 1025.09 713.99 1025.87 C 710.17 1027.15 706.14 1027.67 702.36 1029.04 C 695.79 1033.41 691.29 1041.43 682.78 1042.34 C 676.88 1041.97 672.29 1037.74 670.26 1032.37 C 660.12 1035.55 649.52 1037.19 638.93 1037.73 C 632.44 1041.25 625.45 1043.67 618.88 1047.01 C 614.62 1049.35 608.59 1049.65 605.10 1045.81 C 601.99 1042.22 599.59 1038.07 596.52 1034.45 C 594.91 1032.14 591.96 1031.71 589.56 1030.67 C 574.78 1025.30 562.06 1015.48 551.08 1004.41 C 551.33 1015.82 546.45 1027.28 537.93 1034.91 C 533.84 1038.36 529.42 1041.82 524.06 1042.94 C 519.15 1044.21 513.36 1042.93 510.06 1038.90 C 505.94 1034.37 505.27 1028.04 503.41 1022.45 C 491.72 1026.19 479.64 1028.96 468.51 1034.26 C 456.64 1039.10 443.92 1042.44 431.02 1042.25 C 420.87 1041.88 410.16 1038.41 403.75 1030.12 C 394.91 1021.03 388.58 1009.62 378.38 1001.86 C 374.63 999.10 370.97 995.26 365.96 995.32 C 362.16 995.32 360.26 999.35 356.99 1000.60 C 354.85 1001.18 353.40 999.38 352.12 998.01 C 349.19 994.69 347.61 990.47 345.17 986.82 C 342.79 983.26 340.39 979.71 337.72 976.37 C 327.96 963.51 317.35 950.50 313.31 934.51 C 311.09 925.71 310.86 916.54 308.71 907.72 C 307.69 903.76 306.99 899.68 305.16 896.00 C 301.58 888.38 295.31 882.58 289.60 876.58 C 278.29 865.79 270.99 851.54 265.84 836.95 C 261.85 823.78 257.56 810.38 257.31 796.52 C 260.20 796.86 262.20 799.24 264.10 801.21 C 276.94 816.07 287.76 832.53 300.48 847.48 C 302.44 849.80 305.42 851.27 306.67 854.18 C 308.72 858.62 310.61 863.16 311.99 867.86 C 313.71 874.13 315.32 880.45 317.48 886.59 C 319.96 894.55 322.79 902.54 327.66 909.39 C 330.11 912.64 333.36 915.49 337.37 916.56 C 344.94 918.11 351.65 922.14 359.07 924.08 C 368.20 925.06 377.18 922.09 385.97 920.01 C 396.36 917.41 407.53 912.43 412.57 902.37 C 414.44 898.53 415.54 894.25 415.35 889.96 C 415.58 879.08 413.57 867.24 405.96 858.95 C 402.87 855.30 398.39 853.31 394.64 850.45 C 394.52 849.98 394.29 849.04 394.17 848.57 C 398.91 846.67 404.37 845.84 408.11 842.06 C 404.18 830.24 398.33 817.83 401.39 805.14 C 401.78 801.83 403.62 798.99 404.60 795.88 C 404.36 792.85 402.37 790.25 401.40 787.42 C 395.63 775.56 389.54 763.78 382.02 752.91 C 380.29 749.98 377.57 747.21 377.65 743.60 C 383.75 742.79 391.10 745.78 396.15 741.03 C 401.14 737.28 402.16 730.84 404.07 725.31 C 404.48 723.72 405.23 721.99 404.51 720.39 C 400.88 711.40 397.00 701.82 398.51 691.92 C 398.95 685.60 401.80 679.87 403.88 674.01 C 402.21 669.78 398.28 667.00 395.32 663.71 C 392.29 661.12 388.87 658.57 387.58 654.62 C 387.12 651.40 387.50 648.13 387.23 644.90 C 386.62 640.26 383.98 635.58 379.52 633.71 C 373.39 631.10 366.58 631.64 360.10 631.33 C 357.35 631.43 355.52 628.47 357.04 626.12 C 360.18 620.19 364.71 615.14 369.01 610.03 C 372.43 606.31 376.10 602.61 378.03 597.85 C 380.76 591.94 379.77 585.27 379.82 578.98 C 378.19 562.50 374.56 545.98 366.99 531.15 C 364.16 525.52 359.31 521.28 356.31 515.77 C 349.27 502.60 347.11 487.66 343.34 473.39 C 341.88 467.72 340.41 461.78 341.69 455.94 C 343.27 453.61 346.37 453.51 348.69 452.34 C 348.46 449.21 347.11 446.37 345.67 443.65 C 340.63 434.58 340.36 422.95 332.43 415.56 C 324.00 409.11 312.93 412.26 303.22 411.54 C 302.94 412.26 302.65 412.98 302.37 413.71 C 302.30 413.15 302.17 412.02 302.10 411.45 C 294.69 410.24 286.94 406.53 283.60 399.44 C 282.26 397.11 281.85 394.45 281.32 391.86 C 280.26 386.14 282.09 380.57 282.98 374.99 C 283.87 370.13 280.94 365.20 276.46 363.32 C 269.64 360.40 262.04 361.42 255.03 362.99 C 243.32 365.67 231.61 368.35 219.95 371.23 C 212.74 372.94 205.83 375.96 199.67 380.06 C 190.48 386.28 186.05 397.32 184.99 408.02 C 184.19 415.18 186.11 422.27 188.15 429.07 C 190.23 437.15 190.45 445.75 188.31 453.84 C 186.51 460.95 187.83 468.68 184.59 475.43 C 181.12 483.30 175.25 490.02 173.38 498.60 C 171.32 504.34 170.46 510.44 168.27 516.14 C 166.94 519.56 163.42 521.51 159.81 521.14 C 157.55 519.16 155.70 516.69 155.05 513.71 C 151.36 500.51 151.78 486.62 152.19 473.06 C 153.07 453.33 158.71 434.33 162.70 415.11 C 164.21 408.32 166.43 401.71 168.22 395.00 C 170.17 387.08 173.60 379.66 176.39 372.03 L 176.51 371.73 C 178.59 365.15 181.93 358.23 179.97 351.21 C 177.88 344.97 171.80 341.17 165.92 339.00 C 162.69 337.72 159.21 338.83 155.88 338.32 C 152.15 337.77 148.44 337.06 144.79 336.16 C 132.86 331.44 122.66 322.34 117.38 310.57 C 116.51 309.29 118.55 308.72 119.22 308.02 C 130.49 299.84 142.73 292.86 155.92 288.29 C 182.36 278.25 210.55 274.52 237.86 267.63 C 268.59 261.29 295.95 245.00 326.02 236.56 C 339.87 232.07 354.61 232.38 368.99 232.70 C 374.98 233.66 381.03 232.85 387.06 233.16 C 390.33 232.24 393.75 232.74 397.09 232.39 C 412.86 230.72 428.92 226.49 441.73 216.75 C 443.90 215.14 445.82 212.79 448.73 212.63 C 460.84 210.81 472.75 207.67 484.97 206.65 C 489.58 206.67 494.84 207.29 498.11 210.91 C 501.00 213.72 503.04 217.66 507.02 219.12 C 514.86 221.65 524.41 220.44 530.40 214.46 C 536.47 208.89 541.56 201.79 549.44 198.63 M 791.06 317.68 C 765.53 322.60 743.89 339.22 718.11 343.29 C 712.39 343.73 706.60 343.69 700.88 343.27 C 679.03 340.15 661.02 325.11 639.11 322.20 C 635.12 321.12 630.93 321.78 626.95 320.81 C 623.55 321.39 620.54 323.72 617.03 323.54 C 595.43 321.53 573.24 319.64 551.98 325.09 C 544.89 327.76 537.28 328.04 529.97 329.80 C 523.89 331.05 518.12 333.45 512.80 336.60 C 508.42 339.45 505.06 343.99 504.14 349.19 C 504.99 356.07 508.81 362.09 513.52 367.03 C 511.62 370.35 508.54 372.78 506.64 376.06 C 508.87 385.13 515.22 393.28 514.27 403.04 C 512.93 413.10 509.52 422.79 508.58 432.93 C 507.82 440.88 507.97 448.94 509.18 456.84 C 509.79 458.55 511.57 457.82 512.93 457.79 C 513.60 456.20 515.37 454.78 517.02 455.97 C 518.26 457.89 516.78 460.22 515.92 462.02 C 513.61 465.93 512.43 470.56 512.63 475.09 C 514.19 481.69 516.27 488.19 517.47 494.89 C 519.57 504.83 518.88 515.07 520.61 525.06 C 522.74 538.66 530.07 551.62 541.76 559.21 C 552.26 566.75 565.28 569.84 577.96 571.15 C 586.28 571.76 594.67 571.77 602.96 570.91 C 605.65 570.74 608.33 570.40 611.04 570.37 C 618.02 572.61 624.27 576.63 631.03 579.42 C 636.16 581.13 641.56 581.99 646.97 581.56 C 663.57 580.16 678.11 571.24 693.99 567.02 C 699.42 565.19 705.27 565.06 710.91 565.95 C 720.56 567.35 730.32 567.51 740.01 568.59 C 748.30 569.37 756.59 570.97 764.95 570.25 C 774.69 569.32 784.71 569.55 794.05 566.27 C 798.98 564.66 803.02 561.18 806.13 557.12 C 810.74 550.91 818.21 547.06 825.89 546.59 C 831.21 547.06 835.68 550.48 840.97 551.21 C 847.91 552.05 854.99 551.41 861.77 549.66 C 867.85 548.09 874.17 544.54 876.30 538.25 C 878.89 530.22 878.00 521.35 881.56 513.56 C 883.03 510.84 881.98 507.67 882.81 504.80 C 885.18 495.90 894.09 488.67 903.49 489.37 C 904.68 483.92 907.53 479.05 910.38 474.32 C 912.47 469.98 915.92 466.53 919.33 463.21 C 921.86 460.76 925.18 459.23 927.50 456.56 C 930.02 451.47 932.41 446.31 935.01 441.25 C 934.35 438.95 933.75 436.32 935.06 434.13 C 939.17 426.75 943.65 418.93 951.27 414.68 C 952.86 408.30 952.53 401.60 952.03 395.11 C 952.21 390.96 947.76 389.34 946.37 385.89 C 945.64 384.71 945.39 383.15 944.36 382.23 C 943.75 378.84 944.33 375.35 943.71 371.99 C 939.00 363.72 932.24 356.85 925.09 350.67 C 917.57 349.07 909.95 347.34 903.14 343.65 C 899.69 341.87 897.25 338.75 894.14 336.51 C 889.27 336.34 884.82 338.63 880.04 339.18 C 877.26 338.69 874.33 337.84 872.48 335.56 C 870.09 332.46 869.11 328.54 868.66 324.72 C 852.88 321.88 836.90 319.86 820.85 319.93 C 811.09 317.80 801.02 315.61 791.06 317.68 M 628.04 693.08 C 619.20 691.85 610.30 691.41 601.38 691.59 C 596.81 694.75 593.08 699.14 588.02 701.54 C 583.07 702.75 578.81 699.10 574.88 696.68 C 567.53 699.20 560.93 704.61 557.83 711.86 C 554.26 719.59 555.43 728.66 558.78 736.26 C 562.10 744.60 567.90 752.12 575.17 757.32 C 578.84 759.36 582.99 760.94 585.88 764.13 C 589.07 768.41 587.14 774.07 585.73 778.66 L 585.49 778.29 C 583.56 783.74 580.46 788.70 577.49 793.64 C 574.42 798.32 572.48 803.62 570.66 808.89 C 570.01 811.13 568.90 813.48 569.72 815.84 C 572.42 826.09 570.54 837.27 565.36 846.43 C 563.85 849.34 561.17 851.64 560.43 854.93 C 558.51 861.99 555.38 868.65 551.81 875.01 C 546.75 884.11 554.11 896.46 563.94 898.10 C 566.61 898.77 569.29 897.69 571.99 897.69 C 573.30 898.63 574.68 899.50 576.12 900.28 L 575.95 900.77 C 590.18 910.38 606.72 917.20 624.05 917.80 C 629.82 919.02 635.60 917.48 641.39 917.44 C 651.20 916.09 661.18 915.99 671.04 916.92 C 684.39 918.26 697.51 923.28 711.05 921.52 C 722.92 920.56 734.39 917.12 746.05 914.87 C 752.12 911.70 756.72 906.18 762.67 902.74 C 764.31 901.71 766.04 902.99 767.53 903.66 C 767.77 905.97 767.93 908.49 766.37 910.45 C 769.95 911.06 773.44 909.57 776.93 908.94 C 787.49 906.21 798.26 903.88 808.15 899.14 C 815.80 892.84 822.40 885.07 831.25 880.33 C 835.95 877.73 841.95 877.34 846.71 880.02 C 853.66 869.46 862.88 859.75 875.12 855.56 C 878.43 853.13 881.45 849.27 886.02 849.41 C 891.94 849.86 896.39 854.51 901.96 856.13 C 905.20 857.21 908.96 855.22 910.21 852.10 C 911.82 849.11 909.79 845.91 908.71 843.13 C 906.98 839.26 906.55 835.01 905.32 831.01 C 903.04 826.81 900.32 822.66 899.69 817.82 C 899.18 814.38 900.82 810.73 903.86 808.99 C 904.02 804.99 903.05 801.02 903.47 797.04 C 904.23 795.25 905.90 795.81 907.20 796.53 C 906.78 798.73 908.12 800.43 909.48 801.96 C 911.37 797.29 914.39 793.11 915.51 788.15 C 916.30 785.98 917.35 783.26 915.40 781.37 C 913.11 778.65 911.38 775.47 908.91 772.92 C 903.17 764.25 894.33 756.19 894.98 744.89 C 886.03 738.74 875.01 737.40 864.59 735.57 C 852.51 733.79 840.35 732.44 828.48 729.55 C 828.18 732.05 828.00 734.57 827.64 737.08 C 827.08 738.45 825.38 738.82 824.48 737.54 C 819.21 731.46 814.13 725.20 808.52 719.43 C 801.35 712.10 791.98 707.34 782.06 705.00 C 766.91 701.49 751.40 699.92 736.00 697.95 C 732.62 697.34 729.10 697.76 725.84 696.61 C 722.96 698.14 720.30 700.23 717.05 700.90 C 710.91 702.30 704.55 701.98 698.35 701.27 C 699.21 702.42 700.74 703.47 700.36 705.16 C 699.61 707.17 697.49 709.17 695.21 708.26 C 688.09 703.78 681.40 698.54 675.81 692.24 C 663.56 691.16 651.26 690.46 638.95 690.42 C 635.03 690.13 632.04 694.13 628.04 693.08 Z" />
</g>
<g id="#ffffffff">
<path fill="#ffffff" opacity="1.00" d=" M 791.06 317.68 C 801.02 315.61 811.09 317.80 820.85 319.93 C 836.90 319.86 852.88 321.88 868.66 324.72 C 869.11 328.54 870.09 332.46 872.48 335.56 C 874.33 337.84 877.26 338.69 880.04 339.18 C 884.82 338.63 889.27 336.34 894.14 336.51 C 897.25 338.75 899.69 341.87 903.14 343.65 C 909.95 347.34 917.57 349.07 925.09 350.67 C 932.24 356.85 939.00 363.72 943.71 371.99 C 944.33 375.35 943.75 378.84 944.36 382.23 C 939.54 380.66 934.57 379.62 929.71 378.19 C 925.58 376.68 921.78 374.38 918.60 371.34 C 916.55 369.60 914.02 367.19 911.12 368.37 C 906.61 369.76 901.78 371.75 897.06 370.15 C 891.89 367.98 889.84 362.03 889.69 356.82 C 873.12 352.89 856.09 351.64 839.11 351.23 C 832.22 349.57 825.09 348.59 817.99 348.82 C 805.35 349.37 793.66 354.60 782.17 359.40 C 767.98 365.80 753.70 372.78 738.10 374.93 C 728.67 376.48 719.11 374.76 710.01 372.25 L 709.34 371.83 C 701.98 370.05 695.41 366.11 688.40 363.35 C 676.10 357.39 662.74 353.13 649.00 352.59 C 644.36 351.96 640.69 356.42 636.05 355.22 C 613.47 352.45 590.03 351.34 568.01 358.15 C 557.41 359.94 546.58 361.63 536.77 366.31 C 530.89 369.24 526.00 374.36 524.69 380.97 C 525.69 384.60 526.42 388.41 528.54 391.60 C 529.94 393.90 532.00 395.69 533.54 397.89 C 533.48 401.83 529.53 404.22 527.27 407.08 C 528.65 415.39 534.59 422.41 534.72 431.01 C 535.30 439.88 531.76 448.24 530.36 456.87 C 528.31 467.20 528.30 477.82 529.74 488.23 C 530.29 489.12 531.16 489.76 531.91 490.49 C 533.61 489.16 536.68 485.35 538.22 488.83 C 537.59 493.51 534.02 497.21 533.57 501.97 C 532.39 507.63 535.17 512.98 536.24 518.43 C 539.84 530.36 539.56 542.88 540.87 555.15 C 541.18 556.49 541.48 557.85 541.76 559.21 C 530.07 551.62 522.74 538.66 520.61 525.06 C 518.88 515.07 519.57 504.83 517.47 494.89 C 516.27 488.19 514.19 481.69 512.63 475.09 C 512.43 470.56 513.61 465.93 515.92 462.02 C 516.78 460.22 518.26 457.89 517.02 455.97 C 515.37 454.78 513.60 456.20 512.93 457.79 C 511.57 457.82 509.79 458.55 509.18 456.84 C 507.97 448.94 507.82 440.88 508.58 432.93 C 509.52 422.79 512.93 413.10 514.27 403.04 C 515.22 393.28 508.87 385.13 506.64 376.06 C 508.54 372.78 511.62 370.35 513.52 367.03 C 508.81 362.09 504.99 356.07 504.14 349.19 C 505.06 343.99 508.42 339.45 512.80 336.60 C 518.12 333.45 523.89 331.05 529.97 329.80 C 537.28 328.04 544.89 327.76 551.98 325.09 C 573.24 319.64 595.43 321.53 617.03 323.54 C 620.54 323.72 623.55 321.39 626.95 320.81 C 630.93 321.78 635.12 321.12 639.11 322.20 C 661.02 325.11 679.03 340.15 700.88 343.27 C 706.60 343.69 712.39 343.73 718.11 343.29 C 743.89 339.22 765.53 322.60 791.06 317.68 Z" />
<path fill="#ffffff" opacity="1.00" d=" M 144.79 336.16 C 148.44 337.06 152.15 337.77 155.88 338.32 C 159.21 338.83 162.69 337.72 165.92 339.00 C 171.80 341.17 177.88 344.97 179.97 351.21 C 181.93 358.23 178.59 365.15 176.51 371.73 C 176.40 371.28 176.18 370.38 176.07 369.93 C 170.15 369.41 164.37 367.65 159.15 364.84 C 149.78 359.58 141.47 351.35 137.86 341.08 C 140.24 339.54 142.53 337.87 144.79 336.16 Z" />
<path fill="#ffffff" opacity="1.00" d=" M 1083.65 341.22 C 1091.66 344.85 1099.81 350.32 1102.23 359.31 C 1096.08 358.13 1090.15 356.00 1084.33 353.76 C 1084.41 349.57 1083.98 345.39 1083.65 341.22 Z" />
<path fill="#ffffff" opacity="1.00" d=" M 255.03 362.99 C 262.04 361.42 269.64 360.40 276.46 363.32 C 280.94 365.20 283.87 370.13 282.98 374.99 C 282.09 380.57 280.26 386.14 281.32 391.86 C 281.37 392.31 281.47 393.22 281.52 393.67 C 278.93 393.60 276.43 394.33 273.93 394.88 C 257.91 399.80 240.68 400.87 225.54 408.53 C 219.91 411.70 214.63 415.79 211.24 421.39 C 206.39 430.54 204.09 441.31 206.38 451.54 C 207.63 456.67 208.99 461.77 210.17 466.92 C 210.65 471.57 211.02 476.33 209.90 480.92 C 206.95 490.91 209.10 502.08 203.28 511.21 C 200.74 515.74 197.73 520.02 195.82 524.89 C 193.26 531.47 191.69 538.36 189.89 545.18 C 189.45 547.38 188.14 549.22 187.00 551.11 C 184.83 552.21 182.31 553.42 179.90 552.25 C 176.49 550.07 175.94 545.74 174.80 542.20 C 171.99 527.85 171.86 513.09 173.38 498.60 C 175.25 490.02 181.12 483.30 184.59 475.43 C 187.83 468.68 186.51 460.95 188.31 453.84 C 190.45 445.75 190.23 437.15 188.15 429.07 C 190.80 419.13 194.84 409.66 198.29 399.99 C 200.59 393.68 202.93 386.49 199.67 380.06 C 205.83 375.96 212.74 372.94 219.95 371.23 C 231.61 368.35 243.32 365.67 255.03 362.99 Z" />
<path fill="#ffffff" opacity="1.00" d=" M 1092.97 367.63 C 1096.52 367.56 1100.08 367.41 1103.63 367.08 C 1104.37 370.46 1104.45 373.93 1104.56 377.38 C 1098.78 377.86 1095.26 372.10 1092.97 367.63 Z" />
<path fill="#ffffff" opacity="1.00" d=" M 1118.29 390.88 L 1118.97 390.66 C 1121.52 391.08 1124.13 391.42 1126.58 392.30 C 1128.59 392.86 1128.00 395.24 1128.35 396.82 C 1125.84 400.42 1120.78 397.91 1117.16 399.12 C 1115.86 399.34 1114.58 399.58 1113.32 399.83 C 1110.12 399.73 1106.92 399.58 1103.75 399.28 C 1108.27 395.93 1113.37 393.53 1118.29 390.88 Z" />
<path fill="#ffffff" opacity="1.00" d=" M 1105.92 421.97 C 1114.61 417.22 1123.51 412.81 1132.99 409.84 L 1133.92 409.52 C 1136.43 412.43 1139.56 415.97 1137.98 420.12 C 1135.68 425.81 1129.34 427.24 1124.74 430.43 C 1126.20 431.71 1128.22 431.30 1130.01 431.57 C 1136.70 432.14 1143.41 432.32 1150.11 432.87 C 1153.15 432.97 1157.60 433.90 1156.74 437.99 C 1155.60 439.15 1154.64 440.56 1153.22 441.39 C 1145.35 444.69 1137.24 447.58 1129.89 451.96 C 1128.45 452.78 1126.67 453.42 1125.99 455.07 C 1124.83 461.54 1119.89 466.85 1113.90 469.30 C 1110.47 471.33 1105.91 471.98 1103.70 475.62 C 1101.86 478.35 1099.57 480.83 1098.51 484.00 C 1100.50 487.08 1097.68 491.34 1095.06 493.33 C 1093.65 498.43 1095.80 504.08 1093.11 508.89 C 1089.31 516.29 1081.34 520.19 1073.86 522.88 C 1072.52 523.22 1071.19 523.53 1069.87 523.85 C 1068.80 524.16 1067.73 524.47 1066.68 524.76 C 1057.36 527.93 1047.76 531.58 1040.66 538.68 C 1034.58 544.18 1031.41 552.77 1032.79 560.89 C 1033.16 564.11 1034.68 567.00 1035.69 570.04 C 1036.17 571.00 1036.65 571.97 1037.16 572.94 C 1040.11 579.28 1044.12 585.19 1045.80 592.06 C 1046.30 594.78 1046.42 598.18 1043.98 600.06 C 1039.49 601.07 1034.65 601.06 1030.20 599.87 C 1020.89 598.42 1012.10 594.78 1002.85 593.13 C 1000.28 592.12 997.47 592.66 994.81 592.66 C 988.20 595.78 982.39 600.30 975.99 603.82 C 971.94 606.44 966.42 609.40 966.44 614.92 C 966.27 617.85 970.15 620.99 967.37 623.53 C 962.50 626.75 956.39 627.08 950.77 627.81 C 939.27 630.20 928.69 635.59 918.82 641.81 C 916.27 643.46 913.50 644.73 911.04 646.51 C 910.51 646.43 909.45 646.28 908.92 646.21 C 893.26 641.61 876.86 640.38 861.17 635.87 C 843.75 631.37 826.92 624.47 809.04 621.82 C 814.71 619.71 820.81 618.22 826.90 619.03 C 840.63 620.94 854.24 616.94 867.97 616.98 C 872.68 616.91 877.41 617.22 882.13 616.86 C 886.95 616.14 891.48 614.05 895.71 611.69 C 905.30 605.60 915.31 599.75 926.49 597.19 C 932.91 595.23 939.95 595.30 946.04 592.34 C 950.27 589.34 944.14 584.70 946.08 580.92 C 948.76 574.74 955.61 572.37 960.84 568.86 C 965.82 566.03 970.33 561.95 976.02 560.67 C 982.79 560.51 989.13 563.53 995.68 564.88 C 1002.79 566.34 1009.69 568.90 1016.97 569.43 C 1019.91 569.47 1023.93 569.07 1025.16 565.88 C 1026.36 562.56 1024.74 559.11 1023.71 555.97 C 1020.36 547.52 1014.79 539.99 1012.53 531.10 C 1010.58 522.73 1013.12 513.38 1019.51 507.52 C 1028.70 498.01 1041.89 494.50 1054.13 490.70 C 1062.33 488.18 1070.78 482.98 1073.58 474.42 C 1074.45 470.39 1073.79 466.22 1074.08 462.13 C 1075.31 460.82 1076.65 459.57 1077.58 458.00 C 1079.28 455.09 1077.23 451.18 1079.67 448.58 C 1082.10 445.70 1083.81 441.81 1087.50 440.34 C 1091.92 438.41 1096.53 436.52 1100.06 433.12 C 1103.17 430.15 1104.90 426.07 1105.92 421.97 Z" />
<path fill="#ffffff" opacity="1.00" d=" M 303.22 411.54 C 312.93 412.26 324.00 409.11 332.43 415.56 C 340.36 422.95 340.63 434.58 345.67 443.65 C 335.79 441.96 325.42 444.80 315.81 441.24 C 304.82 437.60 299.30 424.46 302.37 413.71 C 302.65 412.98 302.94 412.26 303.22 411.54 Z" />
<path fill="#ffffff" opacity="1.00" d=" M 383.71 648.74 C 384.84 647.41 385.99 646.11 387.23 644.90 C 387.50 648.13 387.12 651.40 387.58 654.62 C 388.87 658.57 392.29 661.12 395.32 663.71 C 389.46 662.90 383.47 663.84 377.70 662.25 C 375.94 656.92 381.34 652.95 383.71 648.74 Z" />
<path fill="#ffffff" opacity="1.00" d=" M 988.17 684.20 C 991.33 685.14 994.69 686.48 996.52 689.42 C 997.92 691.30 997.49 693.73 997.67 695.92 C 995.32 691.40 991.81 687.69 988.17 684.20 Z" />
<path fill="#ffffff" opacity="1.00" d=" M 628.04 693.08 C 632.04 694.13 635.03 690.13 638.95 690.42 C 651.26 690.46 663.56 691.16 675.81 692.24 C 681.40 698.54 688.09 703.78 695.21 708.26 C 697.49 709.17 699.61 707.17 700.36 705.16 C 700.74 703.47 699.21 702.42 698.35 701.27 C 704.55 701.98 710.91 702.30 717.05 700.90 C 720.30 700.23 722.96 698.14 725.84 696.61 C 729.10 697.76 732.62 697.34 736.00 697.95 C 751.40 699.92 766.91 701.49 782.06 705.00 C 791.98 707.34 801.35 712.10 808.52 719.43 C 814.13 725.20 819.21 731.46 824.48 737.54 C 825.38 738.82 827.08 738.45 827.64 737.08 C 828.00 734.57 828.18 732.05 828.48 729.55 C 840.35 732.44 852.51 733.79 864.59 735.57 C 875.01 737.40 886.03 738.74 894.98 744.89 C 894.33 756.19 903.17 764.25 908.91 772.92 C 890.88 765.64 870.94 767.07 852.44 761.73 C 851.26 761.42 850.05 761.43 848.86 761.41 C 848.77 764.03 848.53 766.63 848.36 769.26 C 847.22 769.41 845.88 770.18 845.04 769.02 C 836.54 759.83 829.31 748.93 818.14 742.69 C 811.91 738.75 804.57 737.40 797.55 735.59 C 787.46 733.23 777.14 731.93 766.83 731.13 C 759.86 729.99 752.80 729.53 745.82 728.51 C 738.52 734.51 728.33 733.58 719.52 733.00 C 721.32 734.96 720.83 737.69 719.40 739.71 C 717.97 739.66 716.55 739.63 715.13 739.60 C 708.04 735.19 701.91 729.53 696.03 723.66 C 683.37 723.45 670.68 722.00 658.05 722.24 C 655.36 723.05 652.91 724.89 650.01 724.72 C 640.68 724.32 631.37 722.79 622.02 723.44 C 618.87 725.26 616.20 727.81 613.60 730.33 C 611.56 731.56 609.55 733.28 607.05 733.24 C 602.79 733.43 599.21 730.92 595.87 728.66 C 583.32 731.50 574.63 744.94 576.43 757.66 C 576.12 757.57 575.48 757.41 575.17 757.32 C 567.90 752.12 562.10 744.60 558.78 736.26 C 555.43 728.66 554.26 719.59 557.83 711.86 C 560.93 704.61 567.53 699.20 574.88 696.68 C 578.81 699.10 583.07 702.75 588.02 701.54 C 593.08 699.14 596.81 694.75 601.38 691.59 C 610.30 691.41 619.20 691.85 628.04 693.08 Z" />
<path fill="#ffffff" opacity="1.00" d=" M 1002.07 710.92 C 1005.01 712.14 1007.25 714.50 1009.56 716.63 C 1007.11 716.63 1004.69 716.65 1002.26 716.67 C 1002.23 714.74 1002.21 712.82 1002.07 710.92 Z" />
<path fill="#ffffff" opacity="1.00" d=" M 1034.18 748.11 C 1040.52 747.76 1046.82 746.97 1053.13 746.21 C 1056.05 745.36 1059.13 745.17 1062.16 745.50 C 1063.35 747.40 1064.16 750.32 1061.97 751.87 C 1055.80 756.45 1049.56 762.21 1048.38 770.22 C 1051.90 774.71 1054.99 779.55 1057.20 784.83 C 1057.26 788.05 1060.25 789.69 1062.10 791.89 C 1066.30 796.83 1069.31 803.26 1068.54 809.87 C 1068.10 814.96 1064.64 819.22 1060.56 822.02 C 1061.92 826.06 1065.02 829.71 1064.45 834.19 C 1062.15 837.28 1059.09 839.72 1056.85 842.83 C 1056.22 849.60 1056.79 856.46 1056.57 863.27 C 1059.12 865.10 1062.11 866.02 1064.94 867.29 C 1066.10 867.72 1065.34 869.25 1065.57 870.20 C 1062.01 871.55 1058.08 873.34 1056.15 876.81 C 1055.04 883.02 1054.21 889.38 1051.15 895.02 C 1049.57 897.19 1051.07 900.21 1049.36 902.23 C 1050.92 903.69 1053.03 904.23 1054.92 905.17 C 1057.27 905.93 1060.04 906.25 1061.65 908.37 C 1062.12 910.09 1062.30 912.95 1060.09 913.52 C 1054.35 914.96 1048.63 916.47 1042.89 917.86 C 1042.05 918.15 1041.23 918.45 1040.42 918.74 C 1034.77 925.72 1027.57 931.33 1019.88 935.90 C 1017.80 936.86 1016.85 939.08 1016.13 941.10 C 1013.74 947.40 1009.88 953.91 1011.70 960.86 C 1012.63 966.38 1011.97 974.11 1005.73 976.19 C 1003.87 982.93 1000.80 989.28 997.11 995.20 C 996.09 1000.37 992.98 1004.74 989.77 1008.81 C 981.82 1018.96 970.38 1026.24 958.08 1029.95 C 956.28 1030.80 955.31 1032.64 954.17 1034.17 C 950.91 1039.12 944.90 1042.32 938.92 1041.66 C 933.22 1048.07 925.94 1052.96 918.02 1056.20 C 912.39 1058.32 906.92 1060.98 901.01 1062.22 C 895.31 1062.95 889.58 1063.57 883.83 1063.22 C 880.63 1062.14 877.18 1062.81 873.89 1062.76 C 866.72 1063.48 859.52 1064.58 852.52 1066.48 C 847.30 1068.05 841.85 1066.00 837.41 1063.29 C 828.26 1057.92 818.82 1052.99 808.91 1049.17 C 805.28 1047.74 801.60 1046.45 798.03 1044.91 C 790.84 1050.20 782.82 1054.56 774.04 1056.45 C 766.80 1058.10 759.29 1057.99 751.95 1057.26 C 750.01 1056.70 748.03 1056.48 746.09 1056.00 C 745.19 1055.60 744.30 1055.23 743.41 1054.88 C 741.04 1055.88 738.49 1056.31 736.08 1057.16 C 730.47 1058.90 723.80 1058.96 719.51 1063.45 C 714.96 1067.62 710.60 1073.25 703.91 1073.57 C 698.98 1074.15 694.65 1070.82 692.20 1066.82 C 691.98 1066.19 691.55 1064.93 691.33 1064.31 C 690.07 1064.42 688.83 1064.59 687.60 1064.79 C 678.31 1067.72 668.60 1069.13 658.90 1069.78 C 658.41 1070.04 657.43 1070.56 656.94 1070.83 C 649.89 1073.70 643.17 1077.40 635.98 1079.93 C 631.94 1081.39 627.52 1079.50 624.71 1076.52 C 622.15 1072.32 618.87 1068.64 616.12 1064.58 C 614.43 1063.99 612.74 1063.43 611.07 1062.84 C 606.89 1061.26 602.91 1059.20 598.96 1057.16 C 589.05 1051.65 579.73 1044.76 572.28 1036.18 C 571.35 1040.37 571.37 1044.77 569.88 1048.85 C 566.76 1059.37 558.86 1068.25 549.07 1073.07 C 543.61 1075.85 536.09 1076.03 531.55 1071.43 C 528.66 1068.98 527.36 1065.33 526.23 1061.85 C 525.53 1059.37 524.96 1056.86 524.31 1054.39 C 521.20 1055.25 518.10 1056.16 514.95 1056.85 C 507.53 1058.83 500.28 1061.41 493.13 1064.23 C 487.99 1065.97 483.28 1068.89 477.90 1069.94 C 476.61 1070.32 475.33 1070.70 474.07 1071.13 C 460.99 1073.90 446.67 1075.56 434.12 1069.81 C 427.56 1066.75 423.59 1060.52 418.70 1055.52 C 412.16 1046.78 405.30 1038.09 396.48 1031.53 C 393.04 1028.65 388.49 1026.09 383.89 1027.64 C 381.52 1029.31 379.62 1031.73 376.71 1032.49 C 375.77 1032.06 374.84 1031.64 373.91 1031.25 C 368.90 1024.98 365.86 1017.41 360.74 1011.20 C 359.09 1008.57 356.94 1006.32 355.16 1003.80 C 348.70 995.12 341.78 986.50 337.72 976.37 C 340.39 979.71 342.79 983.26 345.17 986.82 C 347.61 990.47 349.19 994.69 352.12 998.01 C 353.40 999.38 354.85 1001.18 356.99 1000.60 C 360.26 999.35 362.16 995.32 365.96 995.32 C 370.97 995.26 374.63 999.10 378.38 1001.86 C 388.58 1009.62 394.91 1021.03 403.75 1030.12 C 410.16 1038.41 420.87 1041.88 431.02 1042.25 C 443.92 1042.44 456.64 1039.10 468.51 1034.26 C 479.64 1028.96 491.72 1026.19 503.41 1022.45 C 505.27 1028.04 505.94 1034.37 510.06 1038.90 C 513.36 1042.93 519.15 1044.21 524.06 1042.94 C 529.42 1041.82 533.84 1038.36 537.93 1034.91 C 546.45 1027.28 551.33 1015.82 551.08 1004.41 C 562.06 1015.48 574.78 1025.30 589.56 1030.67 C 591.96 1031.71 594.91 1032.14 596.52 1034.45 C 599.59 1038.07 601.99 1042.22 605.10 1045.81 C 608.59 1049.65 614.62 1049.35 618.88 1047.01 C 625.45 1043.67 632.44 1041.25 638.93 1037.73 C 649.52 1037.19 660.12 1035.55 670.26 1032.37 C 672.29 1037.74 676.88 1041.97 682.78 1042.34 C 691.29 1041.43 695.79 1033.41 702.36 1029.04 C 706.14 1027.67 710.17 1027.15 713.99 1025.87 C 717.01 1025.09 719.90 1023.63 723.04 1023.39 C 726.30 1024.24 729.49 1025.39 732.85 1025.79 C 743.21 1027.65 753.77 1025.13 763.46 1021.50 C 768.48 1019.76 772.33 1015.90 777.09 1013.67 C 784.21 1015.18 790.79 1018.56 797.44 1021.47 C 805.93 1024.92 813.52 1030.18 821.73 1034.20 C 828.20 1036.99 835.03 1033.94 841.47 1032.69 C 851.12 1030.16 861.16 1031.44 871.01 1031.17 C 881.28 1031.47 890.99 1027.58 900.07 1023.19 C 907.22 1020.16 913.37 1015.24 918.81 1009.76 C 926.52 1010.69 932.52 1004.99 936.18 998.87 C 952.00 993.82 966.85 983.81 974.63 968.79 C 976.92 961.21 982.17 954.97 984.21 947.26 C 984.84 943.91 988.88 943.16 990.07 940.12 C 993.29 933.47 988.68 926.05 991.60 919.39 C 992.79 915.96 994.09 912.57 995.46 909.22 C 996.21 907.54 996.84 905.59 998.57 904.65 C 1003.41 901.56 1008.28 898.44 1012.56 894.59 C 1015.38 892.03 1017.68 888.86 1020.86 886.72 C 1025.25 884.92 1029.99 884.18 1034.61 883.14 C 1037.00 882.54 1039.96 882.50 1041.39 880.14 C 1041.53 878.59 1041.47 876.82 1040.16 875.79 C 1036.68 874.06 1032.84 873.14 1029.47 871.19 C 1029.26 869.17 1029.45 867.15 1029.53 865.15 C 1033.19 858.79 1034.69 851.54 1035.52 844.33 C 1038.25 841.53 1041.88 840.00 1045.16 837.99 C 1045.14 837.49 1045.11 836.47 1045.09 835.96 C 1042.12 834.59 1038.92 833.76 1036.19 831.91 C 1036.28 824.93 1036.27 817.95 1036.20 810.97 C 1038.49 808.08 1041.71 805.91 1043.43 802.60 C 1044.69 798.13 1041.23 794.31 1039.88 790.30 C 1044.36 787.40 1047.95 782.58 1047.94 777.05 C 1048.50 769.61 1044.19 762.97 1039.23 757.84 C 1036.52 755.19 1035.96 751.30 1034.18 748.11 Z" />
<path fill="#ffffff" opacity="1.00" d=" M 585.49 778.29 L 585.73 778.66 C 589.60 785.09 595.95 789.36 602.50 792.71 C 606.49 794.47 609.09 798.77 608.24 803.16 C 606.84 811.47 602.06 818.66 597.83 825.78 C 594.00 831.86 591.96 838.82 589.78 845.61 C 594.08 858.43 590.57 872.92 582.47 883.48 C 580.22 889.00 578.51 894.78 576.12 900.28 C 574.68 899.50 573.30 898.63 571.99 897.69 C 569.29 897.69 566.61 898.77 563.94 898.10 C 554.11 896.46 546.75 884.11 551.81 875.01 C 555.38 868.65 558.51 861.99 560.43 854.93 C 561.17 851.64 563.85 849.34 565.36 846.43 C 570.54 837.27 572.42 826.09 569.72 815.84 C 568.90 813.48 570.01 811.13 570.66 808.89 C 572.48 803.62 574.42 798.32 577.49 793.64 C 580.46 788.70 583.56 783.74 585.49 778.29 Z" />
<path fill="#ffffff" opacity="1.00" d=" M 311.99 867.86 C 316.41 873.43 320.62 879.24 326.05 883.89 C 330.09 890.26 331.96 897.73 334.13 904.89 C 334.98 908.84 336.42 912.63 337.37 916.56 C 333.36 915.49 330.11 912.64 327.66 909.39 C 322.79 902.54 319.96 894.55 317.48 886.59 C 315.32 880.45 313.71 874.13 311.99 867.86 Z" />
<path fill="#ffffff" opacity="1.00" d=" M 289.60 876.58 C 295.31 882.58 301.58 888.38 305.16 896.00 C 306.99 899.68 307.69 903.76 308.71 907.72 C 307.28 904.72 304.68 902.61 302.76 899.97 C 297.33 892.81 292.94 884.91 289.60 876.58 Z" />
</g>
<g id="#6c4b4c6c">
<path fill="#6c4b4c" opacity="0.42" d=" M 1118.29 390.88 C 1118.98 390.48 1119.68 390.07 1120.39 389.66 C 1122.72 391.02 1125.71 390.56 1127.97 392.10 C 1129.42 393.36 1128.72 395.23 1128.35 396.82 C 1128.00 395.24 1128.59 392.86 1126.58 392.30 C 1124.13 391.42 1121.52 391.08 1118.97 390.66 L 1118.29 390.88 Z" />
</g>
</svg>
