<?xml version="1.0" encoding="UTF-8" ?>
<!DOCTYPE svg PUBLIC "-//W3C//DTD SVG 1.1//EN" "http://www.w3.org/Graphics/SVG/1.1/DTD/svg11.dtd">
<svg width="1276pt" height="1276pt" viewBox="0 0 1276 1276" version="1.1" xmlns="http://www.w3.org/2000/svg">
<g id="#ff002bff">
<path fill="#ff002b" opacity="1.00" d=" M 648.04 236.64 C 665.26 232.29 684.50 237.34 697.22 249.76 C 706.95 258.81 712.84 271.73 713.54 284.97 C 714.23 293.43 714.51 301.93 715.42 310.37 C 695.65 319.44 675.68 328.07 655.83 336.98 C 649.90 339.51 644.13 342.39 638.10 344.69 C 637.81 338.77 637.48 332.85 637.00 326.95 C 636.92 323.71 634.06 321.22 631.00 320.79 C 629.18 321.04 627.52 321.81 625.87 322.54 C 613.13 328.26 600.34 333.86 587.60 339.57 C 583.19 341.46 580.10 346.17 580.53 351.01 C 583.26 391.50 586.11 431.98 588.81 472.47 C 588.82 476.81 593.90 480.13 597.81 477.95 C 611.27 472.00 624.71 466.01 638.15 460.03 C 642.78 458.09 645.90 453.06 645.33 448.03 C 644.79 441.95 644.58 435.85 643.96 429.78 C 647.09 428.32 650.27 426.95 653.37 425.40 C 661.71 440.47 669.66 455.75 677.89 470.89 C 657.92 495.61 638.58 520.87 618.55 545.52 C 608.33 550.47 597.80 554.79 587.46 559.51 C 576.46 564.59 563.73 565.95 551.99 562.79 C 534.76 558.47 520.13 544.92 514.80 527.93 C 512.24 520.55 512.25 512.66 511.63 504.97 C 508.87 463.65 505.92 422.35 503.21 381.03 C 500.80 343.62 518.40 305.69 548.46 283.30 C 562.22 272.50 578.92 266.78 594.61 259.51 C 607.23 253.90 619.84 248.28 632.47 242.69 C 637.55 240.42 642.59 237.92 648.04 236.64 Z" />
<path fill="#ff002b" opacity="1.00" d=" M 420.09 337.06 C 432.00 331.98 445.77 331.48 457.98 335.84 C 473.86 341.26 486.81 354.65 491.40 370.84 C 493.67 378.03 493.49 385.63 494.18 393.06 C 495.02 406.37 496.02 419.68 496.88 433.00 C 498.04 446.90 498.76 461.06 495.90 474.82 C 490.00 506.15 470.29 534.53 442.98 550.98 C 435.55 555.65 427.37 558.91 419.38 562.50 C 402.80 569.88 386.21 577.21 369.64 584.62 C 371.74 613.31 373.71 642.03 375.54 670.74 C 403.97 658.12 432.40 645.47 460.83 632.84 C 476.90 625.59 496.71 626.91 511.38 636.81 C 518.69 619.71 531.25 604.83 547.22 595.22 C 554.06 591.02 561.59 588.19 568.86 584.84 C 578.51 580.62 588.08 576.21 597.76 572.03 C 584.00 589.51 570.16 606.92 556.38 624.39 C 550.72 631.79 544.11 638.68 540.41 647.37 C 536.53 655.97 534.79 665.53 535.49 674.94 C 537.32 701.62 539.16 728.29 540.97 754.96 C 541.39 759.30 541.17 763.82 542.87 767.93 C 546.34 777.44 556.89 783.73 566.92 782.21 C 571.18 781.63 574.95 779.48 578.85 777.83 C 605.13 766.21 631.32 754.41 657.64 742.90 C 658.13 752.26 659.33 761.64 658.54 771.03 C 656.61 799.74 641.15 827.17 617.58 843.68 C 605.00 852.80 589.98 857.44 576.19 864.30 C 576.35 876.55 577.83 888.82 578.40 901.09 C 590.40 895.89 602.31 890.49 614.27 885.20 C 637.68 874.73 657.82 857.17 671.42 835.43 C 682.12 818.41 688.86 798.90 690.85 778.89 C 692.58 763.90 690.45 748.87 689.62 733.90 C 685.96 679.24 682.08 624.59 678.47 569.92 C 664.50 576.02 650.60 582.29 636.68 588.50 C 639.52 585.65 643.04 583.63 646.19 581.15 C 672.86 560.95 699.68 540.93 726.30 520.66 C 741.27 529.10 756.14 537.73 771.12 546.15 C 774.25 593.46 777.63 640.76 780.76 688.07 C 791.36 683.46 801.90 678.68 812.48 674.02 C 809.68 633.35 806.95 592.67 804.10 551.99 C 826.90 541.89 849.68 531.75 872.46 521.63 C 874.88 520.62 877.31 519.06 880.06 519.36 C 883.76 519.59 886.99 522.81 887.21 526.52 C 889.71 563.50 892.31 600.48 894.76 637.47 C 905.35 632.69 916.02 628.10 926.58 623.25 C 923.44 581.16 920.80 539.04 917.81 496.94 C 917.49 488.87 912.36 481.31 905.09 477.88 C 899.29 474.95 892.25 474.84 886.34 477.52 C 854.85 491.53 823.33 505.46 791.87 519.54 C 786.94 510.46 782.09 501.35 777.21 492.24 C 809.53 477.93 841.80 463.53 874.12 449.21 C 890.13 442.12 909.66 443.66 924.25 453.40 C 930.91 437.39 942.36 423.40 956.82 413.82 C 964.87 408.30 974.07 404.91 982.88 400.87 C 1004.07 391.45 1025.26 382.06 1046.44 372.62 C 1055.87 368.05 1066.58 365.76 1077.04 367.15 C 1090.29 368.62 1102.88 375.29 1111.47 385.49 C 1117.65 392.77 1121.71 401.75 1123.38 411.14 C 1124.53 417.99 1124.47 424.97 1125.15 431.88 C 1126.08 442.60 1126.21 453.52 1123.67 464.04 C 1124.85 463.49 1126.09 462.96 1127.31 462.43 C 1129.28 494.30 1131.67 526.14 1133.74 558.01 C 1134.19 562.47 1131.09 566.56 1126.99 568.02 C 1083.38 587.33 1039.84 606.82 996.20 626.07 C 983.88 631.01 969.80 630.88 957.41 626.24 C 957.85 631.79 958.36 637.34 958.58 642.91 C 928.03 656.32 897.60 670.01 867.07 683.48 C 864.44 642.79 861.44 602.13 858.84 561.44 C 851.28 564.84 843.63 568.04 836.15 571.63 C 839.33 612.18 841.63 652.80 844.71 693.35 C 804.23 711.54 763.62 729.43 723.08 747.48 C 721.33 747.82 721.28 749.55 721.58 750.99 C 724.57 782.54 717.91 814.92 702.79 842.76 C 688.31 869.70 665.98 892.35 639.21 907.16 C 630.95 911.87 622.10 915.38 613.46 919.31 C 596.84 926.68 580.23 934.10 563.61 941.45 C 557.82 944.40 550.16 939.94 549.83 933.48 C 547.97 906.29 546.07 879.10 544.25 851.91 C 543.77 847.79 546.25 843.62 550.06 842.04 C 562.71 836.41 575.37 830.81 588.01 825.18 C 602.72 818.81 614.58 806.80 621.67 792.53 C 612.40 796.68 603.11 800.80 593.83 804.93 C 587.98 807.41 582.29 810.47 576.02 811.80 C 565.63 814.29 554.57 813.38 544.60 809.60 C 545.23 815.10 545.38 820.64 545.90 826.16 C 515.41 839.85 484.81 853.29 454.31 866.95 C 451.53 826.32 448.92 785.65 445.88 745.05 C 438.31 748.10 430.94 751.65 423.46 754.91 C 426.37 795.57 429.03 836.24 431.86 876.91 C 346.93 914.59 262.06 952.40 177.13 990.05 C 171.36 992.89 163.63 988.59 163.40 982.09 C 155.99 874.72 148.66 767.35 141.34 659.97 C 140.68 655.50 143.46 651.05 147.66 649.50 C 195.25 628.34 242.85 607.20 290.45 586.05 C 286.14 524.12 281.92 462.17 277.72 400.23 C 325.24 379.31 372.62 358.08 420.09 337.06 M 1061.42 399.71 C 1036.57 410.77 1011.72 421.80 986.87 432.84 C 982.54 434.72 978.19 436.60 974.27 439.25 C 959.76 448.59 949.95 464.79 948.40 481.97 C 947.75 488.35 948.55 494.75 948.92 501.13 C 950.72 526.77 952.40 552.41 954.23 578.05 C 954.73 588.89 964.23 598.29 975.03 598.90 C 979.55 599.31 984.00 598.00 988.03 596.02 C 1026.06 579.03 1064.21 562.31 1102.18 545.18 C 1101.06 532.94 1100.45 520.65 1099.57 508.39 C 1065.30 523.88 1030.84 538.95 996.51 554.30 C 992.13 556.89 985.79 554.15 984.95 549.08 C 984.30 543.32 984.22 537.52 983.63 531.76 C 1006.05 521.81 1028.47 511.84 1050.89 501.88 C 1057.89 498.68 1065.25 496.02 1071.44 491.32 C 1086.10 480.80 1095.07 463.01 1095.10 444.99 C 1094.70 435.96 1093.92 426.95 1093.35 417.93 C 1092.56 408.55 1085.23 400.24 1076.07 398.20 C 1071.19 396.87 1065.97 397.67 1061.42 399.71 M 408.28 419.29 C 392.08 426.40 375.92 433.59 359.78 440.84 C 361.57 463.84 363.03 486.87 364.56 509.90 C 380.81 502.70 397.05 495.48 413.29 488.26 C 417.66 486.42 420.80 481.82 420.50 477.02 C 419.29 459.68 418.16 442.33 416.92 424.99 C 417.01 420.79 412.14 417.26 408.28 419.29 M 708.28 556.69 C 711.99 609.61 715.62 662.53 719.14 715.46 C 729.78 710.77 740.44 706.11 751.00 701.24 C 749.66 686.16 748.91 671.03 747.75 655.93 C 745.29 618.10 742.44 580.29 740.11 542.46 C 729.53 547.29 718.84 551.84 708.28 556.69 M 172.92 672.01 C 179.30 764.56 185.72 857.12 191.88 949.69 C 240.52 928.29 289.02 906.56 337.61 885.02 C 336.74 872.74 335.84 860.47 335.22 848.18 C 297.11 864.96 259.14 882.08 221.01 898.81 C 219.30 870.43 217.26 842.06 215.25 813.70 C 238.63 803.21 262.09 792.91 285.48 782.43 C 284.56 770.16 283.62 757.88 283.02 745.59 C 259.60 756.01 236.17 766.43 212.73 776.83 C 210.89 749.51 209.16 722.18 207.07 694.88 C 237.65 681.10 268.35 667.58 299.00 653.96 C 298.27 641.65 297.31 629.36 296.56 617.05 C 255.36 635.41 214.13 653.69 172.92 672.01 M 473.14 661.11 C 434.83 678.17 396.49 695.15 358.19 712.21 C 356.65 712.44 357.35 714.16 357.27 715.18 C 360.88 767.31 364.56 819.43 367.91 871.58 C 378.50 866.83 389.12 862.14 399.73 857.43 C 396.90 816.91 394.15 776.38 391.39 735.85 C 393.12 734.06 395.98 733.59 398.19 732.38 C 419.92 722.74 441.62 713.03 463.38 703.44 C 468.08 700.97 474.30 704.81 474.43 710.05 C 476.92 746.98 479.57 783.90 481.94 820.85 C 492.57 816.08 503.37 811.64 513.83 806.50 C 510.60 764.39 508.00 722.22 505.02 680.09 C 504.56 671.73 499.00 664.01 491.29 660.80 C 485.56 658.33 478.79 658.48 473.14 661.11 M 239.19 714.46 C 239.76 719.90 240.13 725.36 240.40 730.83 C 263.74 720.30 287.25 710.14 310.55 699.51 C 312.93 733.67 315.23 767.83 317.58 802.00 C 294.17 812.23 270.90 822.79 247.49 833.02 C 247.78 839.62 248.50 846.19 248.73 852.80 C 276.97 840.30 305.19 827.74 333.42 815.18 C 330.07 769.00 327.08 722.80 323.85 676.62 C 295.67 689.33 267.25 701.51 239.19 714.46 Z" />
<path fill="#ff002b" opacity="1.00" d=" M 689.20 409.59 C 699.88 404.88 710.56 400.16 721.21 395.36 C 721.46 405.90 723.12 416.39 722.69 426.94 C 722.36 427.37 721.69 428.23 721.36 428.67 C 710.66 422.30 699.74 416.31 688.97 410.09 L 689.20 409.59 Z" />
<path fill="#ff002b" opacity="1.00" d=" M 1048.35 443.46 C 1050.99 442.19 1054.15 441.75 1056.91 442.97 C 1061.20 444.63 1063.90 449.61 1062.86 454.10 C 1062.27 457.24 1059.95 459.88 1057.08 461.17 C 1031.81 472.46 1006.47 483.60 981.22 494.94 C 980.73 489.61 980.24 484.27 980.28 478.92 C 980.56 474.55 984.34 471.50 988.22 470.17 C 1008.28 461.29 1028.32 452.39 1048.35 443.46 Z" />
<path fill="#ff002b" opacity="1.00" d=" M 572.74 654.81 C 598.30 643.56 623.71 631.96 649.36 620.92 C 651.12 649.29 653.15 677.65 655.12 706.01 C 632.44 716.05 609.79 726.13 587.14 736.22 C 584.28 737.41 581.32 739.28 578.10 738.50 C 574.64 737.74 572.00 734.52 571.97 730.98 C 570.44 708.29 568.86 685.61 567.33 662.93 C 566.91 659.31 569.41 655.99 572.74 654.81 M 599.06 676.86 C 599.58 683.43 600.00 690.02 600.44 696.60 C 607.87 693.18 615.37 689.90 622.87 686.62 C 622.58 680.03 622.00 673.46 621.58 666.89 C 614.05 670.15 606.58 673.57 599.06 676.86 Z" />
</g>
<g id="#ffffffff">
<path fill="#ffffff" opacity="1.00" d=" M 887.71 312.68 C 889.94 311.08 891.92 309.07 894.48 307.94 C 849.73 364.65 804.91 421.34 760.01 477.95 C 773.80 503.06 787.06 528.46 800.76 553.62 C 775.90 539.34 751.03 525.09 726.05 511.03 C 669.99 553.62 613.60 595.80 557.46 638.29 C 556.10 639.40 554.70 640.48 553.09 641.22 C 597.79 584.44 642.73 527.81 687.54 471.11 C 673.77 446.14 660.61 420.82 646.95 395.78 C 671.81 409.71 696.50 423.97 721.27 438.08 C 776.82 396.38 832.21 354.47 887.71 312.68 Z" />
</g>
</svg>
