<?xml version="1.0" encoding="UTF-8" ?>
<!DOCTYPE svg PUBLIC "-//W3C//DTD SVG 1.1//EN" "http://www.w3.org/Graphics/SVG/1.1/DTD/svg11.dtd">
<svg width="1276pt" height="1276pt" viewBox="0 0 1276 1276" version="1.1" xmlns="http://www.w3.org/2000/svg">
<g id="#ff002bff">
<path fill="#ff002b" opacity="1.00" d=" M 749.09 162.18 C 773.63 150.26 803.44 150.23 828.12 161.78 C 851.77 172.82 870.65 193.94 878.10 219.05 C 878.87 221.65 879.46 224.30 880.18 226.92 C 881.13 231.60 881.75 236.32 881.88 241.10 C 883.04 245.96 881.99 251.06 883.21 255.92 C 883.59 260.58 883.34 265.29 884.10 269.92 C 884.51 275.00 884.49 280.11 885.19 285.17 C 885.00 285.45 884.61 286.01 884.41 286.30 C 879.41 288.81 874.12 290.72 869.09 293.19 C 857.35 298.41 845.61 303.66 833.83 308.78 C 812.22 318.55 790.50 328.09 768.82 337.72 C 762.46 340.80 755.78 343.24 749.55 346.58 C 749.39 344.38 749.24 342.17 749.07 339.98 C 748.29 335.35 748.55 330.63 748.14 325.97 C 747.20 321.97 747.78 317.82 747.18 313.77 C 746.13 307.98 740.11 303.11 734.13 304.55 C 730.28 305.65 726.79 307.71 723.12 309.25 C 713.43 313.53 703.74 317.78 694.09 322.13 C 691.74 323.11 689.44 324.18 687.16 325.27 C 678.12 329.19 669.11 333.17 660.13 337.20 C 653.14 340.23 648.13 347.31 647.74 354.94 C 649.83 390.99 652.75 427.02 654.82 463.08 C 656.02 467.96 654.98 473.08 656.13 477.96 C 656.63 482.59 656.15 487.32 657.13 491.90 C 657.62 506.33 659.20 520.66 659.87 535.08 C 661.14 547.70 661.36 560.42 662.64 573.05 C 663.55 579.10 670.44 583.72 676.34 581.62 C 680.95 579.96 685.34 577.73 689.83 575.74 C 701.84 570.41 713.88 565.14 725.86 559.73 C 733.75 556.27 741.61 552.74 749.51 549.28 C 756.90 546.07 762.27 538.18 761.75 530.01 C 761.32 518.62 760.41 507.25 759.50 495.89 C 764.54 493.83 769.45 491.46 774.49 489.37 C 775.58 488.71 777.01 489.20 777.42 490.45 C 790.95 515.92 804.65 541.32 818.27 566.74 C 818.43 567.27 818.74 568.32 818.90 568.85 C 785.37 610.71 752.31 652.97 718.98 694.99 C 717.12 697.09 715.83 699.97 713.05 701.02 C 705.63 704.23 698.24 707.52 690.87 710.83 C 679.35 716.10 667.67 720.99 656.17 726.29 C 654.47 726.87 652.79 727.51 651.14 728.19 C 629.54 735.63 605.13 735.07 584.20 725.75 C 553.91 713.29 531.44 683.61 528.17 650.94 C 526.03 626.67 525.05 602.27 522.85 578.03 C 522.40 573.38 522.81 568.65 521.87 564.06 C 519.73 526.74 516.74 489.47 514.49 452.15 C 513.84 432.24 511.16 412.41 511.46 392.46 C 511.99 371.85 515.95 351.32 522.74 331.85 C 535.83 294.87 559.83 261.80 591.18 238.18 C 604.94 227.58 620.24 219.10 636.20 212.32 C 641.51 209.98 646.80 207.57 652.13 205.29 C 664.08 199.82 676.16 194.62 688.15 189.24 C 699.43 184.14 710.81 179.25 722.09 174.14 C 731.05 170.07 740.11 166.22 749.09 162.18 Z" />
<path fill="#ff002b" opacity="1.00" d=" M 384.87 326.84 C 395.84 324.91 407.08 324.99 418.05 326.86 C 434.43 330.02 450.03 337.33 462.57 348.39 C 480.11 363.31 491.57 385.19 493.92 408.10 C 496.38 437.00 497.86 466.01 500.09 494.95 C 501.47 517.24 503.97 539.67 500.90 561.94 C 500.04 569.08 498.59 576.12 497.24 583.18 L 496.83 583.80 C 493.33 599.53 487.48 614.71 480.25 629.10 C 458.92 671.02 422.46 704.93 379.08 723.14 C 376.75 724.13 374.43 725.16 372.14 726.24 C 362.49 730.60 352.74 734.73 343.10 739.12 C 320.92 748.99 298.73 758.83 276.55 768.69 C 276.08 777.14 277.36 785.56 277.77 793.98 C 279.77 823.00 281.91 852.01 283.91 881.01 C 284.81 885.94 284.07 891.02 285.15 895.93 C 285.50 901.14 285.80 906.39 285.51 911.63 C 285.71 910.17 285.90 908.73 286.12 907.30 C 287.59 935.32 290.06 963.27 291.91 991.28 C 278.96 996.69 265.80 1001.60 252.74 1006.76 C 238.94 1012.43 224.94 1017.60 211.12 1023.22 C 192.65 1030.45 174.20 1037.74 155.74 1045.02 C 155.44 1036.98 154.47 1028.99 154.29 1020.96 C 153.22 1016.04 154.02 1010.95 152.83 1006.07 C 152.30 1001.07 152.95 996.00 151.92 991.06 C 151.11 985.05 151.75 978.95 151.15 972.93 C 149.95 966.79 150.87 960.47 149.77 954.32 C 149.04 946.20 148.18 938.10 148.11 929.94 C 146.96 924.69 147.59 919.27 146.91 913.98 C 146.17 908.41 146.36 902.78 145.74 897.22 C 145.51 882.60 143.95 868.05 143.29 853.46 C 142.33 844.35 142.66 835.12 140.88 826.11 C 140.48 821.74 140.77 817.34 140.08 813.01 C 139.19 807.72 140.07 802.28 138.87 797.05 C 138.37 791.73 138.78 786.34 137.90 781.06 C 137.06 776.09 138.02 770.96 136.88 766.04 C 136.25 761.00 136.57 755.91 136.16 750.87 C 134.82 746.34 135.80 741.53 135.09 736.92 C 134.27 731.96 134.40 726.93 134.15 721.94 C 132.98 716.19 133.62 710.28 132.77 704.50 C 129.90 661.59 126.98 618.67 124.11 575.80 C 123.07 570.61 124.12 565.21 122.86 560.08 C 120.58 521.33 117.53 482.63 115.17 443.85 C 126.16 438.97 137.16 434.14 148.15 429.26 C 150.45 428.19 152.76 427.14 155.09 426.15 C 164.28 421.89 173.68 418.06 182.86 413.77 C 194.87 408.44 206.90 403.16 218.89 397.79 C 230.84 392.37 242.92 387.25 254.83 381.75 C 264.31 377.66 273.71 373.39 283.17 369.25 C 294.69 363.99 306.34 359.02 317.88 353.79 C 331.66 347.59 345.55 341.63 359.29 335.34 C 367.43 331.46 376.04 328.65 384.87 326.84 M 345.05 477.32 C 336.03 481.16 327.09 485.22 318.14 489.25 C 309.13 493.24 300.07 497.14 291.11 501.26 C 280.56 505.74 270.24 510.80 259.56 514.97 C 259.48 526.97 261.24 538.92 261.60 550.92 C 262.67 562.58 262.96 574.30 264.15 585.95 C 265.02 602.99 266.40 619.99 267.47 637.02 C 269.34 636.44 271.13 635.64 272.88 634.76 C 282.30 630.58 291.74 626.45 301.16 622.27 C 313.09 616.79 325.16 611.64 337.13 606.27 C 343.04 603.46 349.14 601.06 355.02 598.19 C 360.58 595.11 364.98 589.49 365.74 583.07 C 366.24 578.38 365.34 573.68 365.37 568.98 C 364.27 556.99 363.89 544.94 362.66 532.95 C 362.41 529.34 362.74 525.66 361.90 522.11 C 361.54 517.05 361.50 511.97 361.15 506.91 C 360.18 502.32 360.68 497.58 360.17 492.94 C 359.12 489.54 360.36 485.66 358.34 482.56 C 355.91 477.96 350.01 475.16 345.05 477.32 Z" />
<path fill="#ff002b" opacity="1.00" d=" M 878.15 443.26 C 883.86 440.53 889.75 438.20 895.45 435.46 C 895.56 438.64 895.32 441.88 896.13 445.00 C 896.46 455.05 897.53 465.04 897.91 475.08 C 898.89 480.46 898.01 485.96 898.45 491.39 C 897.22 492.33 895.86 494.47 894.15 493.05 C 875.51 482.29 856.77 471.69 838.09 460.99 C 839.45 460.39 840.82 459.79 842.21 459.22 C 854.16 453.83 866.17 448.58 878.15 443.26 Z" />
<path fill="#ff002b" opacity="1.00" d=" M 692.42 844.60 C 698.45 842.87 704.76 843.36 710.96 843.31 C 745.97 843.31 780.98 843.30 816.00 843.31 C 827.99 842.72 840.00 843.11 852.00 843.00 C 852.00 853.58 851.99 864.17 852.01 874.75 C 883.67 874.73 915.34 874.76 947.01 874.73 C 954.92 874.55 962.43 877.36 970.09 878.92 C 976.00 880.02 980.53 884.17 985.39 887.39 C 990.14 883.59 995.23 879.77 1001.35 878.60 C 1008.52 877.15 1015.56 874.59 1022.96 874.74 C 1054.97 874.75 1086.98 874.75 1118.99 874.74 C 1132.32 875.05 1145.66 875.02 1159.00 875.00 C 1159.13 887.01 1158.66 899.03 1159.39 911.03 C 1159.37 969.01 1159.39 1026.99 1159.38 1084.97 C 1159.32 1093.28 1159.86 1101.75 1157.61 1109.85 C 1155.52 1117.42 1154.89 1125.68 1150.25 1132.28 C 1146.77 1137.05 1143.71 1142.34 1138.80 1145.81 C 1133.86 1149.30 1129.11 1153.49 1123.03 1154.79 C 1115.09 1156.54 1107.20 1159.26 1098.96 1158.95 C 1053.98 1158.90 1008.99 1159.01 964.00 1159.00 C 964.00 1138.00 963.99 1117.00 964.00 1096.00 C 876.68 1095.99 789.36 1096.01 702.04 1096.00 C 695.57 1096.06 689.40 1093.87 683.13 1092.58 C 678.66 1091.65 674.24 1090.15 670.57 1087.38 C 666.63 1084.43 662.28 1081.87 659.19 1077.96 C 654.88 1072.33 650.20 1066.60 648.71 1059.48 C 646.85 1050.72 643.80 1042.09 643.99 1033.04 C 644.00 993.69 643.99 954.35 644.00 915.01 C 644.03 908.10 643.64 901.10 645.26 894.33 C 646.48 889.22 647.61 884.10 648.91 879.02 C 650.60 872.49 654.90 867.15 658.80 861.81 C 661.89 857.52 666.59 854.88 670.78 851.80 C 677.10 847.20 685.10 846.61 692.42 844.60 M 682.80 882.85 C 677.42 889.20 676.08 897.89 676.00 905.96 C 676.00 945.29 676.00 984.63 676.00 1023.96 C 675.98 1033.85 675.34 1044.50 680.57 1053.36 C 684.57 1060.54 692.99 1063.98 700.93 1063.98 C 740.77 1064.07 780.61 1063.91 820.45 1064.06 C 820.57 1053.54 820.47 1043.02 820.50 1032.50 C 785.48 1032.50 750.46 1032.49 715.45 1032.50 C 715.43 1016.81 715.44 1001.13 715.44 985.44 C 741.71 985.43 767.98 985.44 794.25 985.44 C 794.25 974.94 794.25 964.44 794.25 953.94 C 767.98 953.93 741.70 953.95 715.43 953.93 C 715.45 938.22 715.42 922.52 715.45 906.81 C 750.46 906.82 785.48 906.81 820.50 906.82 C 820.51 896.32 820.49 885.82 820.51 875.32 C 781.00 875.30 741.49 875.31 701.98 875.32 C 694.97 875.27 687.48 877.34 682.80 882.85 M 843.00 906.75 C 843.00 958.92 843.00 1011.08 843.00 1063.25 C 856.15 1063.25 869.29 1063.25 882.44 1063.25 C 882.44 1021.58 882.44 979.92 882.44 938.25 C 899.93 938.24 917.43 938.26 934.93 938.25 C 934.94 979.91 934.93 1021.58 934.94 1063.25 C 948.08 1063.25 961.23 1063.25 974.37 1063.25 C 974.38 1024.81 974.37 986.38 974.38 947.94 C 974.32 937.63 975.20 926.48 969.69 917.26 C 965.77 910.35 957.68 906.93 950.00 906.81 C 914.33 906.67 878.67 906.79 843.00 906.75 M 1002.63 914.49 C 997.03 921.29 995.94 930.53 995.99 939.04 C 996.02 970.71 995.98 1002.38 996.01 1034.05 C 996.17 1042.06 997.63 1050.72 1003.17 1056.89 C 1007.88 1062.11 1015.17 1064.03 1022.00 1064.03 C 1043.98 1064.11 1065.96 1064.04 1087.94 1064.06 C 1087.94 1074.52 1087.94 1084.97 1087.94 1095.43 C 1057.29 1095.43 1026.65 1095.45 996.01 1095.42 C 995.99 1105.93 996.00 1116.43 996.00 1126.94 C 1027.68 1126.94 1059.36 1126.94 1091.04 1126.94 C 1099.67 1126.83 1109.19 1127.95 1116.71 1122.76 C 1125.30 1116.91 1127.31 1105.63 1127.36 1095.94 C 1127.39 1032.88 1127.37 969.81 1127.37 906.75 C 1092.26 906.75 1057.14 906.74 1022.03 906.75 C 1014.92 906.69 1007.30 908.84 1002.63 914.49 Z" />
<path fill="#ff002b" opacity="1.00" d=" M 1035.44 938.25 C 1052.93 938.24 1070.43 938.26 1087.93 938.25 C 1087.94 969.66 1087.93 1001.08 1087.94 1032.50 C 1070.44 1032.50 1052.94 1032.49 1035.45 1032.50 C 1035.43 1001.08 1035.45 969.67 1035.44 938.25 Z" />
</g>
<g id="#ffffffff">
<path fill="#ffffff" opacity="1.00" d=" M 1185.92 291.87 C 1190.33 288.32 1195.33 285.42 1199.28 281.33 C 1199.41 281.75 1199.65 282.59 1199.78 283.01 C 1194.82 288.39 1190.72 294.47 1186.02 300.07 C 1163.37 328.72 1140.75 357.38 1118.05 385.99 C 1114.03 391.29 1109.75 396.38 1105.72 401.67 C 1063.58 454.85 1021.56 508.14 979.42 561.32 C 974.58 568.03 968.66 574.17 964.21 581.01 C 970.51 593.44 977.51 605.56 983.81 618.01 C 990.60 629.82 996.54 642.11 1003.31 653.93 C 1006.53 660.25 1009.86 666.52 1013.34 672.71 C 1014.49 675.20 1015.73 677.66 1017.27 679.95 C 1020.47 686.81 1024.53 693.23 1027.78 700.06 C 1030.31 703.96 1032.11 708.27 1034.56 712.22 C 1034.61 712.68 1034.69 713.58 1034.74 714.03 C 1033.41 713.07 1032.10 712.11 1030.72 711.27 C 1029.47 710.54 1028.23 709.81 1026.97 709.13 C 1018.89 704.41 1010.66 699.94 1002.54 695.29 C 1001.70 694.76 1000.87 694.24 1000.05 693.74 C 994.95 691.05 990.08 687.95 984.98 685.26 C 982.68 683.82 980.30 682.52 977.96 681.18 C 969.04 675.97 959.96 671.07 951.05 665.87 C 935.76 656.85 920.06 648.51 904.89 639.30 C 899.79 641.81 895.74 646.09 891.04 649.29 C 887.24 652.01 883.62 654.97 879.81 657.67 C 869.17 665.73 858.48 673.72 847.80 681.73 C 843.40 684.95 839.21 688.44 834.79 691.62 C 832.52 693.41 830.22 695.15 827.87 696.83 C 825.29 698.91 822.61 700.87 819.94 702.82 C 814.21 707.11 808.53 711.46 802.79 715.72 C 798.79 718.71 794.83 721.74 790.81 724.68 C 789.28 725.86 787.77 727.06 786.22 728.21 C 776.72 735.38 767.33 742.68 757.73 749.70 C 756.61 750.56 755.47 751.41 754.36 752.28 C 734.12 767.35 714.13 782.77 693.88 797.84 C 678.85 809.14 663.86 820.49 648.87 831.84 C 646.26 833.89 643.59 835.85 640.90 837.81 C 635.19 842.12 629.49 846.45 623.73 850.71 C 616.91 855.91 609.98 860.97 603.23 866.26 C 602.14 867.28 600.72 867.72 599.32 868.10 C 608.75 856.92 617.56 845.22 626.72 833.81 C 636.46 821.55 646.11 809.21 655.87 796.96 C 672.23 776.30 688.49 755.56 704.93 734.97 C 714.58 722.60 724.39 710.35 734.08 698.01 C 762.65 661.86 791.29 625.76 819.78 589.55 C 825.10 583.09 830.13 576.39 835.46 569.95 C 836.23 567.33 833.84 565.21 832.70 563.08 C 829.19 555.54 824.69 548.51 821.18 540.97 C 816.75 533.54 812.95 525.76 808.83 518.16 C 799.07 500.18 789.50 482.11 779.80 464.12 C 778.82 462.45 777.97 460.73 777.22 458.97 C 776.19 457.27 775.13 455.59 774.19 453.84 C 772.44 449.96 770.02 446.44 768.33 442.53 C 767.49 440.23 764.97 438.52 765.50 435.85 C 767.69 437.97 770.49 439.23 773.11 440.72 C 776.09 442.43 779.02 444.24 782.06 445.87 C 786.63 448.67 791.40 451.13 796.07 453.78 C 799.04 455.47 801.94 457.30 804.99 458.86 C 810.87 462.41 816.88 465.76 822.89 469.10 C 823.35 469.39 824.26 469.97 824.72 470.26 C 829.23 472.70 833.55 475.46 838.13 477.79 C 844.70 481.66 851.41 485.28 857.95 489.19 C 864.91 493.24 872.01 497.06 878.90 501.23 C 884.77 504.09 890.13 507.92 896.05 510.71 C 898.80 508.18 902.00 506.22 904.87 503.83 C 905.99 502.97 907.12 502.12 908.29 501.31 C 917.85 494.20 927.26 486.90 936.76 479.72 C 947.45 471.71 958.16 463.72 968.80 455.64 C 975.20 450.77 981.80 446.16 988.00 441.02 C 988.82 440.42 989.66 439.82 990.51 439.24 C 995.89 435.00 1001.52 431.09 1006.91 426.85 C 1009.22 425.14 1011.52 423.43 1013.78 421.66 C 1019.37 417.65 1024.78 413.41 1030.30 409.29 C 1039.92 402.23 1049.25 394.80 1058.83 387.69 C 1077.87 373.44 1096.89 359.16 1115.80 344.74 C 1126.22 336.90 1136.67 329.09 1147.09 321.24 C 1154.60 315.62 1162.09 309.97 1169.52 304.25 C 1174.94 300.07 1180.51 296.07 1185.92 291.87 Z" />
</g>
<g id="#58000e58">
<path fill="#58000e" opacity="0.35" d=" M 510.57 399.97 C 510.76 397.48 509.93 394.65 511.46 392.46 C 511.16 412.41 513.84 432.24 514.49 452.15 L 513.99 453.16 C 512.68 435.44 511.27 417.72 510.57 399.97 Z" />
</g>
</svg>
