<?xml version="1.0" encoding="UTF-8" ?>
<!DOCTYPE svg PUBLIC "-//W3C//DTD SVG 1.1//EN" "http://www.w3.org/Graphics/SVG/1.1/DTD/svg11.dtd">
<svg width="1276pt" height="1276pt" viewBox="0 0 1276 1276" version="1.1" xmlns="http://www.w3.org/2000/svg">
<g id="#ffffffff">
<path fill="#ffffff" opacity="1.00" d=" M 179.01 335.09 C 239.46 335.00 299.92 335.07 360.38 335.06 C 360.41 395.57 360.28 456.08 360.45 516.59 C 319.73 516.82 279.00 516.52 238.27 516.74 C 238.52 537.07 238.30 557.42 238.38 577.75 C 218.59 577.73 198.80 577.79 179.01 577.72 C 179.08 496.85 179.08 415.97 179.01 335.09 M 238.31 394.49 C 238.41 414.84 238.45 435.18 238.29 455.53 C 258.67 455.59 279.06 455.61 299.45 455.51 C 299.33 435.18 299.33 414.85 299.44 394.52 C 279.07 394.42 258.69 394.47 238.31 394.49 Z" />
<path fill="#ffffff" opacity="1.00" d=" M 421.33 335.10 C 482.35 334.99 543.37 335.07 604.39 335.06 C 604.40 354.85 604.31 374.65 604.43 394.44 C 584.05 394.54 563.67 394.39 543.29 394.52 C 543.45 435.22 543.41 475.92 543.30 516.62 C 563.67 516.73 584.05 516.62 604.42 516.68 C 604.30 537.04 604.43 557.41 604.36 577.77 C 543.34 577.69 482.32 577.84 421.30 577.70 C 421.44 557.36 421.40 537.02 421.32 516.68 C 441.70 516.61 462.07 516.76 482.44 516.60 C 482.33 475.91 482.33 435.21 482.44 394.52 C 462.09 394.43 441.74 394.46 421.38 394.50 C 421.34 374.70 421.44 354.90 421.33 335.10 Z" />
<path fill="#ffffff" opacity="1.00" d=" M 665.34 335.09 C 726.35 335.01 787.37 335.07 848.39 335.06 C 848.40 354.85 848.31 374.65 848.43 394.44 C 807.72 394.54 767.00 394.40 726.29 394.51 C 726.43 435.21 726.44 475.91 726.28 516.60 C 766.99 516.76 807.71 516.60 848.42 516.68 C 848.32 537.04 848.39 557.39 848.39 577.75 C 787.36 577.72 726.33 577.83 665.30 577.69 C 665.46 496.82 665.37 415.95 665.34 335.09 Z" />
<path fill="#ffffff" opacity="1.00" d=" M 909.34 335.09 C 970.89 335.03 1032.44 335.02 1093.99 335.09 C 1093.92 415.97 1093.92 496.85 1093.99 577.72 C 1032.43 577.76 970.86 577.80 909.30 577.70 C 909.45 496.83 909.38 415.96 909.34 335.09 M 970.30 394.50 C 970.43 435.21 970.42 475.92 970.31 516.63 C 990.68 516.68 1011.06 516.72 1031.44 516.61 C 1031.34 475.91 1031.33 435.21 1031.45 394.52 C 1011.06 394.43 990.68 394.46 970.30 394.50 Z" />
<path fill="#ffffff" opacity="1.00" d=" M 421.34 945.91 C 421.42 843.56 421.37 741.20 421.37 638.84 C 563.71 638.85 706.05 638.84 848.39 638.84 C 848.37 741.21 848.37 843.58 848.38 945.94 C 706.04 945.93 563.69 945.99 421.34 945.91 M 543.36 700.00 C 543.44 720.38 543.29 740.76 543.43 761.14 C 604.41 761.07 665.40 761.13 726.38 761.11 C 726.37 740.71 726.39 720.32 726.37 699.93 C 665.36 699.97 604.36 699.83 543.36 700.00 M 543.31 822.25 C 543.42 842.59 543.42 862.93 543.31 883.27 C 604.35 883.29 665.38 883.29 726.41 883.27 C 726.34 862.92 726.38 842.56 726.39 822.20 C 665.36 822.22 604.34 822.13 543.31 822.25 Z" />
</g>
<g id="#88285aff">
<path fill="#88285a" opacity="1.00" d=" M 179.02 638.85 C 198.80 638.83 218.58 638.84 238.36 638.84 C 238.38 679.60 238.37 720.35 238.37 761.11 C 218.60 761.10 198.82 761.11 179.05 761.10 C 179.03 720.35 179.09 679.60 179.02 638.85 Z" />
<path fill="#88285a" opacity="1.00" d=" M 1031.36 638.84 C 1052.23 638.85 1073.11 638.83 1093.98 638.85 C 1093.91 679.60 1093.97 720.35 1093.95 761.10 C 1073.08 761.11 1052.22 761.10 1031.35 761.11 C 1031.39 720.35 1031.37 679.60 1031.36 638.84 Z" />
<path fill="#88285a" opacity="1.00" d=" M 179.02 822.22 C 198.79 822.16 218.57 822.21 238.35 822.20 C 238.38 863.45 238.38 904.70 238.36 945.95 C 218.57 945.92 198.79 945.99 179.01 945.91 C 179.08 904.68 179.07 863.45 179.02 822.22 Z" />
<path fill="#88285a" opacity="1.00" d=" M 1031.36 822.20 C 1052.23 822.22 1073.11 822.16 1093.99 822.23 C 1093.92 863.45 1093.92 904.68 1093.99 945.91 C 1073.11 945.99 1052.24 945.92 1031.36 945.95 C 1031.37 904.70 1031.38 863.45 1031.36 822.20 Z" />
</g>
<g id="#9274b0ff">
<path fill="#9274b0" opacity="1.00" d=" M 238.36 638.84 C 258.70 638.84 279.03 638.84 299.37 638.84 C 299.38 679.60 299.38 720.35 299.37 761.11 C 279.04 761.11 258.70 761.11 238.37 761.11 C 238.37 720.35 238.38 679.60 238.36 638.84 Z" />
<path fill="#9274b0" opacity="1.00" d=" M 970.37 638.84 C 990.70 638.84 1011.03 638.84 1031.36 638.84 C 1031.37 679.60 1031.39 720.35 1031.35 761.11 C 1011.02 761.11 990.70 761.11 970.37 761.11 C 970.38 720.35 970.38 679.60 970.37 638.84 Z" />
<path fill="#9274b0" opacity="1.00" d=" M 238.35 822.20 C 258.69 822.20 279.03 822.19 299.37 822.20 C 299.39 863.45 299.38 904.70 299.37 945.95 C 279.03 945.95 258.69 945.95 238.36 945.95 C 238.38 904.70 238.38 863.45 238.35 822.20 Z" />
<path fill="#9274b0" opacity="1.00" d=" M 970.37 822.20 C 990.70 822.20 1011.03 822.20 1031.36 822.20 C 1031.38 863.45 1031.37 904.70 1031.36 945.95 C 1011.03 945.95 990.70 945.95 970.37 945.95 C 970.38 904.70 970.38 863.45 970.37 822.20 Z" />
</g>
<g id="#2dbeffff">
<path fill="#2dbeff" opacity="1.00" d=" M 299.37 638.84 C 319.71 638.84 340.05 638.84 360.39 638.85 C 360.36 679.60 360.38 720.35 360.38 761.10 C 340.04 761.11 319.71 761.11 299.37 761.11 C 299.38 720.35 299.38 679.60 299.37 638.84 Z" />
<path fill="#2dbeff" opacity="1.00" d=" M 909.35 638.86 C 929.69 638.82 950.03 638.85 970.37 638.84 C 970.38 679.60 970.38 720.35 970.37 761.11 C 950.03 761.08 929.70 761.16 909.36 761.06 C 909.38 720.33 909.40 679.59 909.35 638.86 Z" />
<path fill="#2dbeff" opacity="1.00" d=" M 299.37 822.20 C 319.71 822.20 340.05 822.19 360.39 822.20 C 360.36 863.45 360.37 904.70 360.38 945.94 C 340.04 945.95 319.70 945.95 299.37 945.95 C 299.38 904.70 299.39 863.45 299.37 822.20 Z" />
<path fill="#2dbeff" opacity="1.00" d=" M 909.31 822.25 C 929.66 822.13 950.02 822.23 970.37 822.20 C 970.38 863.45 970.38 904.70 970.37 945.95 C 950.03 945.93 929.68 945.99 909.34 945.91 C 909.38 904.69 909.44 863.47 909.31 822.25 Z" />
</g>
</svg>
