<?xml version="1.0" encoding="UTF-8" ?>
<!DOCTYPE svg PUBLIC "-//W3C//DTD SVG 1.1//EN" "http://www.w3.org/Graphics/SVG/1.1/DTD/svg11.dtd">
<svg width="1276pt" height="1276pt" viewBox="0 0 1276 1276" version="1.1" xmlns="http://www.w3.org/2000/svg">
<g id="#00000084">
<path fill="#000000" opacity="0.52" d=" M 995.45 263.26 C 999.73 260.47 1005.07 260.34 1010.02 260.01 C 1015.56 260.14 1021.57 260.36 1026.42 263.38 C 1016.25 260.82 1005.63 260.80 995.45 263.26 Z" />
</g>
<g id="#000000ff">
<path fill="#000000" opacity="1.00" d=" M 995.45 263.26 C 1005.63 260.80 1016.25 260.82 1026.42 263.38 C 1040.22 267.75 1051.42 279.02 1056.59 292.45 C 1058.52 297.58 1060.64 302.63 1062.49 307.78 C 1064.94 316.74 1069.04 325.14 1072.19 333.86 C 1074.52 339.52 1076.34 345.39 1079.18 350.83 C 1079.87 352.34 1080.36 353.95 1080.48 355.62 C 1080.69 360.77 1081.66 365.96 1080.91 371.12 C 1080.41 374.47 1079.86 377.82 1079.41 381.19 C 1079.34 381.64 1079.19 382.54 1079.11 382.99 C 1075.28 384.48 1074.19 389.05 1070.53 390.74 C 1062.41 394.77 1054.73 399.69 1046.58 403.63 C 1046.01 403.84 1044.87 404.27 1044.30 404.49 C 1044.31 404.96 1044.33 405.92 1044.34 406.40 C 1061.94 416.11 1077.27 429.94 1088.37 446.73 C 1104.61 470.21 1112.77 498.62 1113.88 526.99 C 1114.08 537.77 1112.23 548.47 1110.34 559.05 C 1108.96 567.45 1104.90 575.34 1105.07 583.99 C 1105.09 600.64 1105.08 617.29 1105.09 633.94 C 1105.30 639.45 1104.11 644.84 1102.99 650.20 C 1098.64 665.71 1085.22 678.11 1069.82 682.37 C 1064.90 682.90 1059.92 683.41 1055.30 685.29 C 1043.82 688.31 1033.51 694.86 1021.72 696.83 C 1021.63 697.16 1021.44 697.81 1021.35 698.14 C 1041.84 707.37 1057.37 726.32 1064.16 747.59 C 1065.04 753.43 1066.83 759.11 1067.22 765.03 C 1067.99 778.96 1067.92 793.04 1064.70 806.69 C 1063.57 811.73 1061.41 816.48 1059.12 821.10 C 1058.57 821.99 1058.43 823.14 1059.01 824.07 C 1060.79 827.72 1062.78 831.33 1063.67 835.33 C 1065.30 843.15 1067.53 850.93 1067.45 858.99 C 1067.56 883.66 1067.50 908.32 1067.48 932.99 C 1067.65 940.37 1065.89 947.56 1064.71 954.80 C 1059.77 973.19 1047.68 989.35 1032.21 1000.30 C 1025.59 1004.77 1018.49 1008.86 1010.68 1010.78 C 1002.28 1012.98 993.71 1014.83 984.98 1014.59 C 977.12 1014.85 969.42 1013.26 961.76 1011.79 C 951.93 1009.33 942.82 1004.38 934.72 998.37 C 930.98 995.27 926.92 992.42 924.02 988.46 C 923.52 988.42 922.53 988.35 922.03 988.31 C 915.23 994.96 907.02 1000.19 898.19 1003.67 C 886.85 1007.44 875.01 1010.37 862.97 1009.76 C 856.02 1009.51 849.27 1007.81 842.44 1006.72 C 827.12 1002.45 813.21 993.20 803.02 981.02 C 792.34 992.85 778.79 1002.53 763.26 1006.70 C 755.54 1007.92 747.88 1009.89 740.02 1009.82 C 731.70 1010.01 723.62 1007.93 715.47 1006.62 C 701.75 1002.70 689.35 994.68 679.43 984.50 C 678.16 983.32 676.77 985.08 675.97 985.98 C 660.60 1004.16 636.98 1015.78 612.99 1014.79 C 591.03 1015.70 569.11 1006.15 553.94 990.43 C 545.76 997.16 536.50 1002.87 526.29 1005.88 C 516.68 1008.13 506.90 1010.35 496.96 1009.78 C 490.28 1009.66 483.81 1007.90 477.25 1006.87 C 461.36 1002.79 446.91 993.13 436.56 980.44 C 436.16 980.44 435.35 980.44 434.94 980.45 C 424.52 995.61 408.41 1007.00 390.66 1011.84 C 378.61 1014.44 366.11 1015.67 353.90 1013.51 C 350.82 1012.91 347.74 1012.31 344.65 1011.81 C 329.32 1007.65 315.19 998.60 304.98 986.43 C 304.31 986.41 303.65 986.41 302.98 986.42 C 295.03 994.62 285.07 1001.01 274.29 1004.79 C 267.25 1006.67 260.23 1008.71 252.94 1009.37 C 238.81 1011.12 224.70 1007.75 211.44 1003.08 C 191.35 994.31 174.84 977.06 167.36 956.42 C 166.31 950.76 164.25 945.32 163.43 939.61 C 162.33 932.13 162.48 924.55 162.47 917.01 C 162.49 871.00 162.44 824.99 162.49 778.98 C 162.34 771.82 163.58 764.75 164.36 757.66 C 168.13 740.76 178.08 725.46 191.11 714.17 C 196.57 709.78 202.23 705.39 208.83 702.88 C 209.75 702.53 210.67 702.19 211.60 701.86 C 207.30 700.60 202.84 700.10 198.40 699.70 C 183.45 696.05 170.57 684.59 165.25 670.14 C 163.82 664.53 162.27 658.86 162.38 653.02 C 162.38 559.36 162.40 465.70 162.37 372.04 C 162.37 367.13 163.28 362.29 164.21 357.49 C 169.42 339.57 186.21 325.86 204.67 323.66 C 229.78 323.70 254.88 323.65 279.98 323.68 C 284.01 323.65 288.08 323.93 292.06 323.17 C 292.33 323.12 292.86 323.03 293.12 322.98 C 299.50 322.66 305.93 322.35 312.25 323.42 C 319.18 324.52 326.25 324.22 333.17 325.41 C 343.19 326.40 352.97 328.80 362.79 330.86 C 377.62 334.11 391.74 340.26 404.92 347.73 C 426.88 360.33 445.49 379.09 456.64 401.93 C 463.93 398.24 470.97 393.94 478.75 391.29 C 482.76 390.22 486.64 388.75 490.59 387.46 C 514.52 380.06 540.25 378.45 564.89 382.97 C 572.47 384.07 579.69 386.66 587.15 388.29 C 587.61 388.39 588.52 388.61 588.98 388.72 C 599.08 392.59 609.16 396.83 618.18 402.86 C 618.53 402.80 619.23 402.66 619.58 402.59 C 619.30 382.07 619.56 361.55 619.44 341.03 C 619.27 334.84 620.96 328.84 622.33 322.86 C 626.98 310.41 637.23 300.11 649.63 295.34 C 655.68 294.03 661.71 292.18 667.97 292.31 C 692.99 292.35 718.01 292.32 743.03 292.32 C 748.95 292.33 754.66 294.07 760.40 295.31 C 772.05 299.66 781.69 309.02 786.82 320.31 C 788.69 326.35 790.95 332.44 790.82 338.86 C 790.82 352.22 790.85 365.58 790.78 378.93 C 790.79 381.47 791.02 384.00 791.30 386.52 C 813.95 386.51 836.60 386.40 859.26 386.58 C 858.98 382.04 858.08 377.52 858.37 372.96 C 858.62 367.70 860.19 362.63 861.35 357.53 C 863.90 350.41 868.44 344.06 873.98 338.94 C 877.78 335.29 882.40 332.69 886.81 329.88 C 917.35 310.66 947.87 291.41 978.41 272.19 C 983.83 268.80 989.20 264.99 995.45 263.26 M 1001.42 315.74 L 1001.34 316.29 C 999.95 316.58 998.68 317.18 998.00 318.48 C 997.75 318.47 997.25 318.44 997.00 318.42 C 995.52 319.74 993.85 320.80 992.12 321.74 C 990.32 322.90 988.44 323.96 986.88 325.43 C 986.64 325.43 986.17 325.41 985.93 325.40 C 984.59 326.43 983.25 327.46 981.96 328.53 C 981.73 328.51 981.25 328.46 981.02 328.44 C 979.70 329.51 978.37 330.54 977.05 331.58 C 976.72 331.55 976.06 331.49 975.73 331.47 L 975.64 332.31 C 974.28 333.04 972.98 333.84 971.69 334.66 C 970.82 335.14 969.96 335.62 969.12 336.10 C 968.14 336.96 967.08 337.75 966.07 338.56 C 965.71 338.54 965.00 338.49 964.64 338.47 L 964.68 339.35 C 963.66 339.81 962.64 340.27 961.64 340.73 L 961.54 341.25 C 959.70 342.14 957.99 343.24 956.30 344.36 C 954.75 345.24 953.27 346.23 951.95 347.43 C 951.70 347.43 951.21 347.42 950.96 347.41 C 949.64 348.46 948.31 349.48 947.00 350.52 C 946.67 350.49 946.00 350.41 945.67 350.38 L 945.62 351.26 C 943.58 352.29 941.68 353.54 939.77 354.76 C 938.66 355.46 937.55 356.14 936.40 356.75 L 936.32 357.63 C 935.99 357.58 935.32 357.48 934.99 357.43 C 933.66 358.50 932.33 359.54 931.02 360.61 C 930.68 360.56 930.01 360.45 929.68 360.39 L 929.69 361.29 C 928.40 361.84 927.21 362.55 926.20 363.51 L 925.38 363.37 L 925.23 364.20 C 924.23 364.63 923.23 365.06 922.26 365.50 L 922.28 366.46 C 921.85 366.42 920.99 366.36 920.56 366.32 L 920.31 367.25 C 916.87 368.68 914.16 371.37 910.75 372.85 L 910.62 373.62 L 909.73 373.40 C 907.76 374.45 906.98 376.34 907.39 378.55 C 907.61 378.54 908.05 378.52 908.27 378.51 C 908.56 380.43 909.16 382.29 909.83 384.12 C 910.15 385.27 910.44 386.44 910.70 387.62 L 911.21 387.46 C 911.69 390.89 913.30 394.02 913.78 397.46 C 913.97 397.45 914.35 397.42 914.53 397.40 C 914.55 398.17 914.58 399.69 914.60 400.45 L 915.23 400.48 C 915.54 401.65 915.89 402.81 916.29 403.98 C 916.38 404.63 916.56 405.93 916.65 406.58 L 917.48 406.40 C 917.50 407.18 917.53 408.73 917.55 409.51 L 918.34 409.52 C 918.44 410.15 918.64 411.39 918.74 412.01 C 919.10 413.17 919.44 414.34 919.76 415.53 L 920.36 415.47 C 920.44 416.62 920.54 417.78 920.65 418.94 C 921.89 418.70 923.01 418.21 924.03 417.47 C 924.28 417.46 924.79 417.46 925.04 417.46 C 926.27 416.32 927.82 415.68 929.46 415.36 L 929.57 414.68 C 931.55 414.24 933.31 413.16 935.18 412.39 C 936.38 411.79 937.58 411.19 938.80 410.60 C 940.26 410.07 941.74 409.49 942.92 408.42 C 943.28 408.48 944.01 408.59 944.38 408.65 L 944.54 407.63 C 946.17 407.32 947.77 406.70 948.96 405.49 C 949.33 405.55 950.06 405.68 950.43 405.74 L 950.56 404.74 C 952.11 404.36 953.63 403.78 954.98 402.88 C 956.34 402.30 957.70 401.70 959.07 401.12 C 960.70 400.22 962.49 399.60 963.98 398.45 C 964.26 398.47 964.80 398.50 965.07 398.52 C 966.28 397.35 967.83 396.73 969.46 396.39 L 969.62 395.80 C 972.68 394.90 975.34 393.03 978.43 392.18 L 978.52 391.56 C 980.15 391.28 981.71 390.60 982.93 389.45 C 983.30 389.50 984.03 389.62 984.40 389.67 L 984.55 388.67 C 986.18 388.35 987.73 387.69 988.99 386.57 C 989.26 386.57 989.80 386.59 990.07 386.60 C 992.48 384.81 995.51 384.18 997.95 382.42 C 998.22 382.43 998.75 382.45 999.02 382.47 C 1000.22 381.26 1001.81 380.69 1003.45 380.31 L 1003.59 379.34 C 1003.96 379.40 1004.69 379.52 1005.06 379.58 C 1006.24 378.37 1007.85 377.81 1009.47 377.41 L 1009.62 376.85 C 1012.70 376.01 1015.31 373.99 1018.44 373.25 L 1018.52 372.58 C 1020.64 372.26 1022.33 370.71 1024.47 370.40 L 1024.57 369.70 C 1026.12 369.37 1027.60 368.74 1028.95 367.87 C 1030.63 367.55 1031.95 366.64 1032.72 365.06 C 1031.44 363.60 1030.85 361.75 1030.23 359.97 C 1029.82 358.82 1029.47 357.66 1029.18 356.50 L 1028.58 356.51 C 1028.29 354.53 1027.51 352.69 1026.50 350.98 C 1026.52 350.74 1026.56 350.25 1026.58 350.01 C 1025.84 348.76 1025.26 347.43 1024.71 346.11 C 1024.21 344.57 1023.68 343.05 1023.28 341.49 L 1022.80 341.49 C 1022.45 340.34 1022.09 339.21 1021.71 338.08 C 1021.12 336.40 1020.47 334.74 1019.67 333.15 C 1018.77 329.85 1016.93 326.87 1016.28 323.49 L 1015.73 323.49 C 1015.27 321.82 1014.74 320.19 1014.29 318.54 L 1013.81 318.48 C 1013.56 317.29 1013.18 316.16 1012.67 315.09 C 1012.05 313.50 1011.50 311.88 1011.09 310.23 C 1007.58 311.52 1004.82 314.20 1001.42 315.74 M 667.58 341.43 C 667.63 444.76 667.65 548.09 667.57 651.42 C 668.15 651.62 669.30 652.03 669.88 652.23 C 672.21 652.00 674.96 652.96 676.99 651.46 C 678.70 652.69 681.29 652.71 683.01 651.44 C 685.12 652.98 688.03 651.96 690.48 652.30 L 690.57 651.71 C 691.29 651.71 692.71 651.71 693.43 651.71 L 693.52 652.30 C 706.00 652.17 718.49 652.24 730.98 652.26 C 732.63 652.12 734.61 652.69 736.00 651.46 C 737.24 652.22 738.62 652.49 740.15 652.29 C 740.74 652.08 741.91 651.65 742.49 651.44 C 742.35 620.27 742.56 589.10 742.38 557.93 C 742.44 556.54 742.60 555.18 742.87 553.82 C 743.02 554.52 743.33 555.91 743.49 556.60 L 744.18 556.49 C 744.46 557.66 744.81 558.81 745.24 559.95 C 746.11 561.74 747.15 563.48 747.67 565.43 L 748.28 565.58 C 748.81 567.63 750.03 569.42 750.65 571.45 L 751.21 571.64 C 751.62 572.83 752.10 574.00 752.59 575.18 C 754.40 578.36 755.62 581.84 757.56 584.95 C 757.57 585.21 757.60 585.72 757.61 585.98 C 758.80 587.50 759.38 589.40 760.52 590.97 C 760.49 591.32 760.42 592.03 760.38 592.38 L 761.33 592.57 C 761.66 594.19 762.33 595.73 763.45 596.99 C 763.44 597.25 763.43 597.77 763.43 598.03 C 766.16 602.47 767.85 607.48 770.57 611.94 C 770.57 612.20 770.59 612.72 770.60 612.97 C 771.78 614.51 772.40 616.37 773.52 617.96 C 773.53 618.22 773.54 618.75 773.55 619.01 C 774.70 620.56 775.35 622.41 776.49 623.98 C 776.50 624.25 776.51 624.77 776.52 625.03 C 777.63 626.61 778.27 628.46 779.45 630.01 C 779.44 630.27 779.44 630.79 779.44 631.06 C 780.52 632.58 781.23 634.32 782.08 635.99 C 782.77 637.64 783.54 639.26 784.36 640.87 C 784.92 642.30 785.51 643.73 786.53 644.93 C 786.53 645.20 786.54 645.74 786.54 646.01 C 788.28 647.94 788.28 651.06 790.74 652.38 C 796.15 652.03 801.58 652.41 807.00 652.15 C 808.99 651.69 811.25 652.93 813.01 651.46 C 815.92 652.75 820.05 652.73 823.01 651.48 C 824.33 652.62 825.66 652.61 827.01 651.45 C 828.64 652.83 831.01 652.05 832.98 652.28 C 834.61 652.04 836.75 652.80 838.00 651.38 C 839.86 652.80 843.06 652.72 845.00 651.43 C 847.28 653.01 850.43 652.24 852.99 651.77 C 855.57 652.32 858.56 652.85 861.01 651.54 C 863.14 653.21 865.54 650.81 867.83 652.47 C 867.87 650.42 866.86 648.69 865.70 647.10 C 865.07 645.73 864.41 644.39 863.52 643.19 L 863.68 642.35 L 862.75 642.43 C 862.43 640.29 860.70 638.75 860.24 636.67 L 859.70 636.58 C 858.89 634.56 857.83 632.65 856.55 630.91 L 856.53 630.01 C 855.10 628.13 854.00 626.03 852.82 624.00 C 851.71 621.63 850.25 619.45 849.21 617.07 C 848.96 616.65 848.48 615.83 848.24 615.41 L 847.48 615.30 C 847.51 614.97 847.56 614.29 847.58 613.95 C 846.38 612.52 845.51 610.88 844.66 609.25 C 844.21 608.39 843.76 607.54 843.32 606.69 C 842.40 605.08 841.67 603.33 840.35 602.00 L 840.64 600.72 C 840.40 600.70 839.93 600.66 839.69 600.64 C 839.16 599.38 838.58 598.16 837.81 597.05 C 836.85 595.08 835.87 593.13 834.71 591.28 C 833.26 588.89 832.08 586.34 830.44 584.07 C 830.42 583.82 830.39 583.33 830.37 583.08 C 829.49 581.92 828.74 580.69 828.25 579.33 L 827.77 579.36 C 827.39 577.83 826.51 576.50 825.68 575.20 C 825.21 574.35 824.76 573.49 824.32 572.64 C 823.21 570.79 822.20 568.88 821.30 566.94 C 820.46 565.54 819.57 564.20 818.58 562.94 C 818.58 562.68 818.58 562.18 818.58 561.92 C 817.41 560.73 816.69 559.25 816.21 557.69 L 815.46 557.54 L 815.57 556.76 C 814.09 554.56 813.13 552.03 811.41 550.01 L 811.45 549.12 C 810.47 547.73 809.54 546.32 808.58 544.93 C 808.58 544.68 808.56 544.19 808.55 543.94 C 807.46 542.37 806.66 540.61 805.37 539.20 C 805.41 538.30 805.46 537.41 805.53 536.52 L 806.29 536.67 C 807.13 535.00 808.15 533.42 808.83 531.68 L 809.42 531.73 C 809.85 530.80 810.28 529.88 810.73 528.97 C 812.13 526.81 813.61 524.70 814.75 522.40 L 815.58 522.28 C 815.54 521.95 815.46 521.29 815.42 520.97 C 816.47 519.65 817.51 518.31 818.56 516.99 C 818.55 516.75 818.51 516.26 818.49 516.02 C 819.51 514.67 820.53 513.33 821.60 512.03 C 821.57 511.70 821.52 511.05 821.50 510.73 L 822.35 510.67 C 822.78 509.74 823.22 508.82 823.68 507.91 C 824.91 506.30 826.03 504.60 826.83 502.73 L 827.55 502.53 L 827.34 501.40 L 828.14 501.26 C 828.96 499.61 829.86 498.01 830.74 496.39 L 831.61 496.30 C 831.56 495.96 831.46 495.28 831.41 494.95 C 831.85 494.46 832.73 493.47 833.17 492.98 C 833.50 492.47 834.17 491.44 834.50 490.93 L 834.38 489.70 C 834.61 489.68 835.08 489.64 835.32 489.62 C 835.75 488.70 836.19 487.80 836.66 486.90 C 838.07 484.87 839.31 482.72 840.65 480.64 C 841.53 479.12 842.40 477.60 843.48 476.21 L 843.47 475.76 C 846.04 472.32 847.87 468.38 850.50 464.98 C 850.49 464.63 850.47 463.95 850.46 463.60 L 851.28 463.65 C 851.84 462.31 852.60 461.08 853.60 460.02 C 853.55 459.69 853.46 459.03 853.42 458.70 C 853.67 458.69 854.19 458.67 854.45 458.67 C 854.87 457.66 855.30 456.66 855.74 455.67 L 856.27 455.60 C 857.31 453.24 858.78 451.12 860.23 449.00 C 861.08 447.47 861.94 445.95 862.75 444.41 L 863.26 444.36 C 863.54 443.81 864.10 442.71 864.38 442.16 L 864.43 441.43 L 865.48 441.27 C 865.46 440.94 865.42 440.29 865.39 439.97 C 866.79 438.76 867.63 437.15 868.03 435.37 C 841.86 435.51 815.68 435.41 789.51 435.42 L 789.63 436.60 L 788.79 436.66 C 788.05 438.24 787.22 439.79 786.34 441.30 C 784.70 444.23 782.87 447.05 781.25 450.00 C 780.45 451.38 779.59 452.76 779.15 454.31 L 778.64 454.30 C 778.07 455.61 777.35 456.83 776.44 457.92 C 776.42 458.17 776.40 458.67 776.38 458.92 C 775.41 460.28 774.45 461.66 773.47 463.01 C 773.48 463.25 773.51 463.72 773.52 463.96 C 772.47 465.26 771.49 466.62 770.53 467.99 C 770.51 468.24 770.47 468.73 770.46 468.98 C 770.12 469.55 769.44 470.69 769.11 471.27 L 768.48 471.46 L 768.59 472.57 L 767.90 472.73 C 767.62 473.28 767.05 474.40 766.77 474.96 C 765.88 476.47 765.03 478.02 764.29 479.62 L 763.80 479.68 C 763.20 481.45 762.14 483.01 761.29 484.66 L 760.50 484.73 C 760.51 485.04 760.51 485.65 760.51 485.96 C 759.93 487.02 759.40 488.12 758.90 489.23 C 758.53 489.40 758.16 489.59 757.81 489.78 C 757.08 492.51 754.96 494.57 754.17 497.28 L 753.72 497.39 C 753.22 498.73 752.35 499.88 751.46 500.99 C 751.49 501.32 751.57 501.99 751.61 502.32 L 750.73 502.38 C 749.96 503.95 749.13 505.49 748.23 506.99 C 747.97 507.57 747.43 508.74 747.16 509.32 L 746.69 509.35 C 746.21 510.25 745.74 511.16 745.27 512.07 C 744.83 513.12 744.43 514.20 744.09 515.30 C 743.64 515.42 742.74 515.66 742.29 515.78 C 742.68 457.66 742.30 399.53 742.48 341.41 C 717.51 341.30 692.54 341.26 667.58 341.43 M 210.61 372.57 C 210.58 465.49 210.65 558.41 210.58 651.33 C 211.18 651.62 212.37 652.19 212.97 652.48 C 213.73 652.44 215.25 652.35 216.01 652.31 C 220.22 651.15 224.69 651.97 229.01 651.84 C 235.82 651.80 242.65 651.77 249.46 651.70 L 249.59 652.27 C 250.30 652.27 251.70 652.27 252.41 652.27 L 252.53 651.69 C 254.66 651.93 257.11 651.19 259.00 652.50 C 262.37 650.91 266.37 652.13 270.00 651.77 C 274.63 652.15 279.57 650.93 284.00 652.44 C 285.41 651.67 287.01 651.66 288.57 651.62 C 288.86 619.28 288.53 586.95 288.54 554.62 C 305.18 554.80 321.84 554.97 338.48 554.30 L 338.54 553.69 C 341.34 553.54 344.24 553.75 346.92 552.78 C 348.79 552.57 350.68 552.43 352.58 552.35 C 352.53 552.17 352.45 551.81 352.41 551.64 C 356.62 551.59 360.51 549.81 364.64 549.28 L 364.40 548.57 C 365.08 548.53 366.44 548.44 367.12 548.40 C 368.35 547.79 369.63 547.29 370.92 546.80 C 372.43 546.25 373.93 545.68 375.49 545.27 L 375.57 544.67 C 377.21 544.36 378.79 543.78 379.99 542.57 C 380.27 542.57 380.82 542.59 381.10 542.60 C 382.78 541.24 384.71 540.24 386.65 539.30 L 386.72 538.79 C 388.79 538.10 390.38 536.55 392.12 535.30 C 398.97 530.00 404.66 523.34 409.26 516.01 C 410.10 514.22 411.19 512.52 411.75 510.61 L 412.32 510.42 C 412.69 509.21 413.20 508.05 413.71 506.91 C 414.10 505.78 414.47 504.64 414.79 503.49 L 415.48 503.56 C 415.51 502.80 415.57 501.28 415.59 500.52 L 416.24 500.49 C 416.53 499.32 416.86 498.17 417.22 497.03 C 417.39 495.84 417.55 494.66 417.70 493.47 L 418.46 493.60 C 418.49 492.21 418.51 490.82 418.55 489.43 C 418.74 489.44 419.14 489.47 419.34 489.48 C 419.43 487.62 419.58 485.77 419.81 483.94 C 421.58 474.21 421.49 464.27 421.36 454.40 L 420.65 454.60 C 420.61 452.05 420.51 449.51 420.18 446.98 C 419.58 445.17 419.45 443.28 419.36 441.40 L 418.58 441.59 C 418.53 440.19 418.48 438.79 418.44 437.40 L 417.76 437.55 C 417.46 435.60 416.92 433.72 416.24 431.89 C 415.80 430.78 415.46 429.64 415.21 428.48 L 414.60 428.47 C 414.32 426.34 413.05 424.52 412.41 422.50 L 411.79 422.37 C 411.44 420.83 410.64 419.46 409.69 418.24 C 409.22 417.41 408.77 416.59 408.32 415.76 C 407.44 414.58 406.58 413.40 405.75 412.20 C 404.27 410.26 402.63 408.46 401.14 406.54 L 400.48 406.48 L 400.52 405.45 L 399.82 405.49 C 399.57 405.19 399.07 404.60 398.82 404.31 C 398.43 403.83 397.63 402.87 397.23 402.40 L 396.78 402.50 C 396.53 402.22 396.02 401.66 395.77 401.38 C 391.86 397.73 387.47 394.66 382.98 391.78 C 378.50 389.12 373.85 386.78 369.11 384.65 C 367.42 384.09 365.76 383.47 364.18 382.66 C 362.72 382.23 361.30 381.69 359.91 381.10 C 358.74 380.80 357.56 380.54 356.38 380.32 L 356.57 379.59 C 355.19 379.52 353.82 379.45 352.45 379.39 L 352.61 378.71 C 349.92 378.22 347.27 377.52 344.55 377.23 L 344.58 376.52 C 343.20 376.50 341.82 376.49 340.45 376.49 C 340.46 376.29 340.47 375.90 340.48 375.70 C 338.63 375.57 336.78 375.40 334.94 375.18 C 332.54 374.38 329.99 374.40 327.49 374.32 L 327.57 373.64 C 324.49 373.57 321.41 373.38 318.34 373.37 L 318.63 372.64 C 303.75 372.13 288.87 372.64 274.00 372.55 C 252.87 372.57 231.74 372.51 210.61 372.57 M 952.53 430.41 C 950.48 430.47 948.45 430.58 946.43 430.66 L 946.73 431.45 C 945.46 431.53 944.19 431.62 942.94 431.75 C 940.50 432.65 937.99 433.39 935.42 433.74 L 935.62 434.29 C 934.01 434.63 932.45 435.12 930.91 435.59 C 929.57 436.19 928.24 436.79 927.03 437.60 C 926.77 437.59 926.26 437.56 926.00 437.55 C 924.45 438.74 922.56 439.35 921.06 440.61 C 920.71 440.57 920.01 440.50 919.66 440.46 L 919.69 441.35 C 918.75 441.78 917.83 442.22 916.92 442.68 C 910.03 447.40 903.44 452.70 898.23 459.28 C 897.22 460.52 896.22 461.77 895.25 463.04 C 894.03 464.73 892.91 466.51 891.46 468.03 C 891.46 468.26 891.46 468.72 891.46 468.96 C 890.47 470.30 889.50 471.66 888.52 473.01 C 888.51 473.26 888.51 473.77 888.51 474.02 C 887.22 475.49 886.59 477.37 885.45 478.95 C 885.50 479.31 885.58 480.02 885.63 480.38 L 884.67 480.57 C 884.11 482.96 882.70 485.07 882.25 487.51 L 881.75 487.48 C 881.44 488.62 881.11 489.76 880.76 490.90 C 880.07 492.72 879.47 494.58 879.23 496.53 L 878.56 496.39 C 878.49 497.05 878.37 498.39 878.31 499.05 C 877.69 500.65 877.28 502.31 876.83 503.97 C 876.31 506.86 875.35 509.68 875.31 512.65 L 874.70 512.53 C 874.59 514.69 874.48 516.88 873.84 518.98 C 873.52 521.52 873.40 524.07 873.37 526.64 L 872.65 526.38 C 872.32 537.24 872.13 548.11 872.36 558.98 C 872.36 562.07 873.29 565.04 873.86 568.05 C 874.23 569.48 874.51 570.95 874.71 572.44 C 874.90 572.45 875.28 572.49 875.47 572.51 C 875.47 573.28 875.47 574.82 875.47 575.59 L 876.20 575.52 C 876.50 577.43 877.06 579.29 877.75 581.11 C 878.14 582.22 878.48 583.37 878.76 584.54 L 879.35 584.52 C 879.71 586.97 881.21 589.05 881.74 591.47 L 882.69 591.61 C 882.64 591.96 882.53 592.67 882.48 593.03 C 883.64 594.59 884.29 596.47 885.56 597.97 C 885.53 598.32 885.46 599.00 885.42 599.35 L 886.24 599.36 C 886.75 600.70 887.43 602.00 888.45 603.05 C 888.45 603.29 888.44 603.77 888.44 604.01 C 889.46 605.22 890.41 606.49 891.30 607.82 C 898.38 618.39 907.49 627.75 918.13 634.75 C 919.44 635.64 920.71 636.57 921.98 637.54 C 922.31 637.50 922.98 637.42 923.31 637.38 L 923.40 638.27 C 924.65 638.79 925.84 639.45 927.01 640.15 L 927.31 640.24 C 931.79 643.67 937.34 645.23 942.58 647.12 C 956.89 651.79 972.06 652.96 987.03 652.35 C 1000.28 652.24 1013.51 650.47 1026.32 647.12 C 1035.48 644.46 1044.88 641.48 1052.56 635.64 C 1052.48 617.77 1052.55 599.89 1052.53 582.02 C 1049.13 582.78 1046.28 584.86 1043.15 586.26 C 1031.37 591.68 1018.78 595.23 1005.99 597.20 C 993.12 598.84 979.73 599.75 967.20 595.74 C 963.27 594.65 959.87 592.28 955.98 591.13 C 955.63 590.89 954.93 590.39 954.58 590.14 L 954.46 589.85 C 951.04 587.53 948.27 584.43 945.66 581.28 C 944.49 579.47 943.34 577.65 942.25 575.81 C 941.40 574.09 940.65 572.32 940.34 570.43 L 939.61 570.59 C 939.52 569.20 939.44 567.83 939.38 566.46 L 938.63 566.52 C 938.53 564.78 938.43 563.06 938.34 561.34 C 981.43 561.35 1024.52 561.21 1067.60 561.41 L 1067.28 560.30 L 1068.38 560.61 C 1068.51 553.84 1068.39 547.09 1068.39 540.33 L 1067.65 540.64 C 1067.71 536.56 1067.39 532.49 1067.37 528.42 L 1066.67 528.55 C 1066.89 524.10 1065.46 519.82 1065.36 515.40 L 1064.63 515.55 C 1064.57 513.83 1064.49 512.12 1064.44 510.41 L 1063.73 510.54 C 1063.60 506.36 1061.77 502.52 1061.28 498.42 L 1060.59 498.57 C 1060.54 497.90 1060.44 496.58 1060.39 495.91 C 1059.82 494.60 1059.28 493.30 1058.69 492.02 C 1058.62 491.38 1058.48 490.09 1058.41 489.44 L 1057.77 489.57 C 1057.44 488.41 1057.08 487.26 1056.68 486.14 C 1056.18 484.94 1055.67 483.76 1055.37 482.52 L 1054.78 482.44 C 1054.09 479.68 1052.61 477.24 1051.32 474.74 C 1050.51 473.53 1049.85 472.25 1049.25 470.95 C 1048.23 469.42 1047.27 467.88 1046.37 466.30 L 1045.55 466.27 C 1045.56 465.93 1045.59 465.25 1045.61 464.91 C 1044.28 463.62 1043.18 462.15 1042.26 460.58 L 1041.87 460.44 C 1040.07 457.85 1037.81 455.64 1035.66 453.35 C 1033.49 451.19 1031.22 449.13 1028.91 447.14 C 1028.61 446.94 1028.01 446.53 1027.71 446.33 C 1026.57 445.43 1025.42 444.54 1024.28 443.66 C 1022.70 442.81 1021.21 441.82 1019.92 440.61 C 1019.67 440.60 1019.15 440.59 1018.90 440.59 C 1016.99 439.14 1014.86 437.90 1012.52 437.40 L 1012.47 436.77 C 1010.20 436.15 1008.10 435.04 1005.82 434.52 C 1004.88 433.00 1002.95 433.54 1001.49 433.34 L 1001.51 432.73 C 999.10 432.24 996.73 431.61 994.29 431.36 L 994.58 430.66 C 992.51 430.57 990.46 430.44 988.42 430.37 L 988.51 429.66 C 985.01 429.45 981.47 429.61 978.04 428.81 C 973.04 428.74 967.97 428.26 963.02 429.13 C 959.54 429.41 956.05 429.53 952.57 429.70 C 952.56 429.88 952.54 430.23 952.53 430.41 M 509.40 432.69 L 509.48 433.33 C 508.09 433.40 506.71 433.48 505.33 433.56 L 505.60 434.41 C 504.93 434.46 503.58 434.58 502.91 434.64 C 501.64 435.18 500.36 435.70 499.09 436.22 C 497.66 436.70 496.26 437.26 494.86 437.80 C 493.49 438.58 492.03 439.22 490.49 439.54 L 490.40 440.18 C 488.07 440.86 485.82 441.89 483.99 443.50 C 483.73 443.49 483.22 443.47 482.96 443.46 C 481.63 444.48 480.30 445.49 479.00 446.53 C 478.76 446.52 478.29 446.49 478.06 446.47 C 476.51 447.90 474.75 449.07 473.05 450.30 C 471.99 451.08 470.95 451.87 469.89 452.63 C 467.43 454.58 465.16 456.74 462.82 458.83 C 462.49 459.07 461.82 459.56 461.49 459.80 L 461.56 460.56 L 460.46 460.49 L 460.53 461.21 C 460.20 461.55 459.55 462.21 459.22 462.54 L 458.48 462.45 L 458.60 463.57 L 457.83 463.50 C 457.59 463.84 457.10 464.54 456.86 464.88 C 453.85 467.99 451.22 471.42 448.64 474.87 C 446.96 477.24 445.43 479.72 443.76 482.10 C 442.73 484.08 441.74 486.09 440.43 487.91 C 440.42 488.17 440.40 488.68 440.39 488.93 C 439.18 490.47 438.52 492.34 437.41 493.94 C 437.45 494.29 437.54 494.99 437.58 495.33 L 436.67 495.57 C 436.19 497.38 435.52 499.14 434.72 500.84 C 434.23 502.27 433.71 503.69 433.26 505.13 C 432.75 506.73 432.29 508.35 431.63 509.90 C 431.58 510.58 431.49 511.94 431.44 512.62 L 430.68 512.42 C 430.54 513.96 430.37 515.49 430.16 517.03 C 429.43 518.75 429.39 520.61 429.29 522.45 L 428.66 522.51 C 428.56 525.22 428.39 527.93 428.36 530.65 L 427.62 530.35 C 427.51 537.12 427.49 543.89 427.60 550.66 L 428.36 550.37 C 427.96 556.59 430.01 562.54 430.70 568.65 L 431.44 568.37 C 431.49 569.73 431.55 571.10 431.62 572.48 L 432.24 572.47 C 432.52 573.66 432.86 574.84 433.23 576.01 C 433.34 576.63 433.55 577.86 433.66 578.48 L 434.25 578.47 C 434.44 579.65 434.79 580.80 435.30 581.90 C 435.74 582.98 436.16 584.07 436.59 585.18 C 437.19 586.40 437.77 587.64 438.34 588.90 C 439.09 590.74 440.21 592.44 440.75 594.38 L 441.29 594.37 C 441.72 595.74 442.56 596.91 443.47 598.04 C 443.46 598.28 443.46 598.75 443.46 598.99 C 445.05 600.95 446.47 603.05 447.73 605.26 C 448.74 606.52 449.75 607.80 450.67 609.15 C 452.27 611.27 454.09 613.21 455.77 615.27 C 455.98 615.54 456.40 616.07 456.61 616.33 C 459.53 619.43 462.50 622.51 465.80 625.22 C 467.22 626.40 468.63 627.59 470.06 628.76 C 471.39 629.78 472.73 630.80 474.10 631.78 C 475.74 632.93 477.38 634.07 479.03 635.23 C 480.52 636.11 482.05 636.97 483.63 637.71 L 483.65 638.25 C 485.69 638.77 487.36 640.24 489.44 640.67 L 489.57 641.32 C 492.12 642.21 494.72 643.11 496.99 644.61 C 497.24 644.58 497.75 644.52 498.00 644.49 C 499.26 645.19 500.59 645.78 501.92 646.37 C 502.56 646.43 503.84 646.57 504.48 646.63 L 504.43 647.49 C 505.22 647.49 506.80 647.48 507.59 647.48 L 507.54 648.30 C 508.73 648.44 509.92 648.60 511.12 648.78 C 512.81 649.45 514.63 649.57 516.43 649.75 L 516.47 650.43 C 518.20 650.45 519.94 650.52 521.69 650.55 L 521.43 651.32 C 531.80 651.90 542.20 651.91 552.58 651.32 L 552.31 650.55 C 554.05 650.52 555.79 650.45 557.54 650.43 L 557.56 649.74 C 559.37 649.60 561.20 649.44 562.91 648.78 C 564.10 648.60 565.30 648.45 566.51 648.31 L 566.41 647.49 C 567.20 647.49 568.78 647.49 569.58 647.48 L 569.53 646.63 C 570.17 646.56 571.45 646.42 572.09 646.36 C 573.42 645.78 574.75 645.20 576.01 644.48 C 576.26 644.51 576.77 644.58 577.02 644.61 C 578.81 643.20 581.21 642.96 582.96 641.48 C 583.32 641.53 584.05 641.62 584.41 641.66 L 584.55 640.68 C 586.64 640.27 588.29 638.73 590.38 638.29 L 590.38 637.72 C 591.96 636.96 593.48 636.10 594.99 635.21 C 596.35 634.24 597.73 633.30 599.13 632.40 C 600.75 631.21 602.33 629.97 603.93 628.75 C 605.23 627.73 606.51 626.69 607.76 625.62 C 608.01 625.33 608.52 624.76 608.78 624.47 L 609.19 624.55 C 611.99 621.87 614.79 619.19 617.39 616.31 C 617.67 616.03 618.23 615.47 618.51 615.19 L 618.43 614.47 L 619.12 614.45 C 620.48 612.62 621.96 610.89 623.41 609.13 C 624.19 607.96 625.00 606.81 625.78 605.64 L 626.23 605.59 C 627.01 604.15 627.82 602.72 628.63 601.30 L 629.12 601.30 C 630.16 598.92 631.72 596.80 632.71 594.40 L 633.25 594.36 C 633.59 592.72 634.32 591.22 635.45 589.98 C 635.44 589.74 635.42 589.25 635.41 589.00 C 636.16 587.76 636.82 586.46 637.49 585.18 C 637.88 583.95 638.31 582.74 638.59 581.49 L 639.35 581.51 C 639.42 580.86 639.57 579.57 639.64 578.93 C 640.24 577.64 640.78 576.33 641.36 575.05 C 641.41 574.37 641.51 573.02 641.56 572.34 L 642.40 572.61 C 642.46 571.22 642.53 569.84 642.61 568.47 L 643.33 568.56 C 643.45 567.02 643.63 565.47 644.20 564.02 C 644.32 562.76 644.43 561.49 644.51 560.24 L 645.26 560.50 C 645.35 557.94 645.40 555.39 645.71 552.85 C 647.11 545.44 646.30 537.87 646.37 530.38 L 645.66 530.62 C 645.62 527.89 645.46 525.17 645.38 522.44 L 644.65 522.51 C 644.58 520.95 644.48 519.42 644.28 517.88 C 643.65 516.18 643.45 514.38 643.32 512.59 C 643.13 512.58 642.75 512.54 642.57 512.52 C 642.52 511.52 642.42 509.52 642.37 508.52 C 642.19 508.54 641.83 508.59 641.65 508.61 C 641.42 507.43 641.15 506.26 640.85 505.10 C 640.30 503.68 639.78 502.25 639.31 500.82 C 638.75 499.57 638.23 498.30 637.73 497.04 C 637.30 495.95 636.84 494.88 636.41 493.81 C 634.87 490.87 633.56 487.81 631.82 484.97 C 630.87 483.27 629.87 481.60 628.79 479.99 C 625.47 474.45 621.23 469.54 617.11 464.59 L 616.74 464.55 C 616.42 464.21 615.77 463.54 615.45 463.20 L 615.54 462.45 L 614.81 462.51 C 614.48 462.18 613.81 461.52 613.47 461.18 L 613.57 460.43 L 612.43 460.59 L 612.56 459.44 L 611.77 459.58 C 611.51 459.28 611.00 458.66 610.74 458.35 C 608.55 456.43 606.39 454.46 604.12 452.63 C 603.05 451.87 602.01 451.08 600.97 450.30 C 599.49 449.17 597.98 448.12 596.42 447.13 C 594.59 445.94 592.73 444.81 591.01 443.49 C 590.76 443.49 590.26 443.50 590.01 443.50 C 588.17 441.89 585.93 440.85 583.60 440.18 L 583.52 439.55 C 581.97 439.17 580.50 438.56 579.13 437.79 C 577.72 437.26 576.32 436.70 574.92 436.20 C 573.64 435.70 572.37 435.22 571.10 434.74 C 568.97 433.98 566.79 433.35 564.53 433.19 L 564.59 432.68 C 561.84 432.22 559.16 431.43 556.37 431.36 L 556.60 430.66 C 555.04 430.62 553.49 430.54 551.95 430.42 C 542.89 428.74 533.63 429.51 524.48 429.67 L 524.58 430.36 C 522.18 430.41 519.78 430.55 517.39 430.64 L 517.72 431.35 C 514.90 431.47 512.16 432.18 509.40 432.69 M 382.60 594.72 C 377.90 595.19 373.53 597.09 368.94 598.05 C 358.65 600.36 348.23 602.28 337.68 602.82 C 336.40 623.87 339.12 645.26 335.11 666.10 C 332.78 676.98 325.24 686.07 316.45 692.54 C 315.37 692.42 314.77 693.73 313.96 694.27 C 324.29 694.60 334.64 694.32 344.97 694.41 C 393.59 694.31 442.22 694.61 490.84 694.26 C 488.69 693.73 486.66 692.58 484.47 692.38 C 439.29 676.29 402.39 638.72 387.27 593.19 C 385.66 593.54 384.07 593.97 382.60 594.72 M 622.21 676.03 C 615.22 680.77 607.73 684.76 599.99 688.15 L 599.40 688.01 C 596.05 688.86 593.19 692.33 589.54 691.12 C 585.04 694.95 578.94 695.09 573.52 696.68 C 560.89 699.94 547.82 700.89 534.82 701.28 C 535.26 702.08 535.80 703.37 536.97 702.81 C 542.56 705.86 548.17 709.04 552.82 713.46 C 553.23 713.48 554.04 713.53 554.44 713.56 C 560.26 707.33 567.42 702.54 574.88 698.49 C 577.91 698.17 580.09 695.45 583.16 695.00 C 584.82 694.42 586.58 692.77 588.41 693.87 C 589.87 692.92 591.43 692.06 593.18 691.80 C 600.07 690.73 606.96 689.31 613.98 689.62 C 620.66 689.47 627.16 691.12 633.77 691.80 L 634.68 692.20 C 636.05 692.64 637.41 693.14 638.82 693.47 C 640.17 695.60 642.80 696.14 645.09 695.35 C 643.38 693.92 641.64 692.25 639.28 692.18 C 633.35 687.74 627.85 682.24 624.92 675.33 C 624.00 675.50 622.97 675.40 622.21 676.03 M 889.76 696.03 C 889.66 696.72 889.57 697.42 889.49 698.13 C 891.17 698.38 892.90 698.56 894.52 699.19 C 905.05 703.14 914.84 709.13 923.02 716.86 C 929.82 709.71 937.43 703.01 946.52 698.94 C 945.90 698.66 944.65 698.08 944.02 697.80 C 930.77 695.15 917.59 691.01 905.78 684.35 C 901.03 688.92 896.21 693.97 889.76 696.03 M 647.75 697.20 C 650.29 699.37 653.19 701.21 656.54 701.85 C 664.59 706.75 671.96 712.99 677.61 720.58 C 678.01 720.57 678.81 720.56 679.20 720.55 C 686.48 712.51 695.50 705.93 705.53 701.76 C 698.05 701.02 690.53 701.59 683.03 701.42 C 674.81 701.18 666.49 702.12 658.38 700.42 C 655.35 698.05 651.44 697.61 647.75 697.20 M 970.70 741.06 L 971.99 741.16 C 962.58 744.54 955.38 752.72 952.10 762.05 C 949.62 768.79 950.62 776.04 950.41 783.05 C 950.19 787.54 951.24 791.94 952.72 796.15 C 956.61 805.41 964.46 812.85 973.95 816.18 C 979.77 818.09 985.99 817.93 992.02 817.29 C 995.47 816.17 998.88 814.93 1002.10 813.24 C 1008.71 809.21 1014.03 803.14 1016.86 795.92 C 1017.96 793.40 1018.48 790.69 1018.86 787.99 C 1019.93 778.32 1020.09 768.04 1016.30 758.86 C 1013.40 752.96 1008.98 747.73 1003.46 744.15 C 1000.13 740.62 995.16 739.50 990.60 738.49 C 983.93 736.79 976.90 738.45 970.70 741.06 M 582.71 756.51 C 576.80 766.32 578.73 778.12 578.70 789.00 C 579.61 792.06 580.37 795.18 581.67 798.13 C 585.71 806.10 592.62 812.70 601.08 815.76 C 602.70 816.28 604.32 816.76 605.94 817.32 C 610.62 817.83 615.35 817.84 620.03 817.29 C 623.45 816.14 626.90 815.02 630.08 813.29 C 637.02 809.16 642.38 802.71 645.30 795.20 C 646.59 791.25 647.38 787.12 647.43 782.97 C 647.42 776.30 647.86 769.48 645.89 763.01 C 645.51 762.01 645.15 761.03 644.80 760.05 C 641.25 751.29 633.90 744.27 625.17 740.73 C 609.66 734.46 590.38 741.67 582.71 756.51 M 236.97 744.46 C 226.30 746.93 217.23 754.92 213.09 765.02 C 212.63 766.31 212.19 767.61 211.74 768.92 C 211.32 771.60 210.54 774.24 210.53 776.99 C 210.52 827.33 210.53 877.67 210.53 928.01 C 210.53 929.35 210.72 930.69 211.11 932.00 C 211.55 935.15 212.55 938.17 213.73 941.12 C 218.28 950.51 226.98 957.51 237.00 960.29 C 242.32 960.92 247.69 960.91 253.01 960.30 C 263.42 957.42 272.62 949.99 276.80 939.93 C 277.16 938.95 277.52 937.98 277.89 937.03 C 278.82 934.09 279.43 931.04 279.50 927.96 C 279.58 889.51 279.40 851.06 279.59 812.61 C 297.28 812.57 314.98 812.83 332.67 812.47 C 332.83 812.91 333.14 813.78 333.29 814.21 C 333.68 855.47 332.98 896.77 333.65 938.03 C 334.14 939.65 334.61 941.31 335.17 942.94 C 338.18 951.58 344.94 958.75 353.11 962.76 C 354.05 963.14 354.99 963.53 355.94 963.93 C 356.96 964.26 357.98 964.61 359.01 964.97 C 366.36 966.21 374.17 966.21 381.16 963.32 C 389.55 959.48 396.51 952.55 399.84 943.89 C 401.37 940.44 401.38 936.64 402.24 933.03 C 402.54 892.88 402.15 852.73 402.44 812.59 C 423.01 812.67 443.58 812.66 464.15 812.59 C 464.75 812.91 465.96 813.55 466.56 813.87 C 465.21 814.81 465.60 816.58 465.53 818.01 C 465.68 855.41 465.41 892.81 465.67 930.21 C 466.61 934.48 467.44 938.87 469.72 942.68 C 474.17 951.45 482.68 957.60 492.02 960.29 C 497.32 960.91 502.70 960.92 508.01 960.30 C 517.67 957.59 526.42 951.08 530.81 941.94 C 531.54 940.28 532.21 938.60 532.86 936.92 C 533.91 933.37 534.65 929.70 534.50 925.99 C 534.31 874.99 534.81 823.98 534.30 772.99 C 532.56 764.70 528.64 756.59 521.86 751.28 C 515.49 746.10 507.25 743.11 499.02 743.55 C 416.03 743.59 333.05 743.56 250.06 743.57 C 245.69 743.63 241.21 743.15 236.97 744.46 M 726.14 746.23 C 715.81 750.52 708.25 760.10 705.66 770.89 C 705.15 775.56 705.32 780.26 705.31 784.95 C 705.31 822.97 705.31 860.98 705.31 899.00 C 705.51 910.67 704.86 922.37 705.70 934.01 C 708.33 943.84 714.82 952.56 723.89 957.31 C 733.56 962.10 745.47 962.06 755.17 957.38 C 761.99 953.72 767.61 947.99 770.92 940.98 C 775.98 929.64 773.88 916.97 774.32 904.96 C 774.39 874.17 774.18 843.37 774.43 812.57 C 793.46 812.69 812.50 812.65 831.53 812.59 C 831.88 852.06 831.41 891.54 831.77 931.01 C 832.72 934.67 833.39 938.46 835.25 941.83 C 839.67 950.96 848.33 957.53 858.01 960.28 C 863.32 960.92 868.70 960.90 874.02 960.32 C 884.42 957.42 893.64 950.02 897.82 939.95 C 898.33 938.67 898.80 937.37 899.31 936.10 C 901.02 929.88 900.46 923.40 900.54 917.03 C 900.54 873.36 900.54 829.70 900.54 786.03 C 900.48 779.73 901.07 773.22 898.82 767.19 C 894.50 753.75 881.27 743.62 867.08 743.55 C 822.72 743.70 778.36 743.35 734.01 743.72 C 731.42 744.69 728.63 745.00 726.14 746.23 M 952.09 851.09 C 951.73 852.45 951.43 853.81 951.18 855.22 L 950.71 855.92 C 950.05 880.93 950.63 905.98 950.41 931.01 C 950.19 935.52 951.19 939.96 952.70 944.18 C 957.11 954.72 966.69 963.16 978.02 965.32 C 984.78 966.07 991.82 966.03 998.19 963.34 C 1006.59 959.56 1013.57 952.64 1016.89 943.98 C 1017.36 942.68 1017.81 941.37 1018.28 940.08 C 1018.42 938.35 1018.68 936.64 1019.26 935.02 C 1019.59 911.35 1019.27 887.68 1019.42 864.02 C 1019.44 861.99 1019.38 859.95 1018.88 857.99 C 1018.56 854.49 1017.51 851.14 1016.27 847.88 C 1012.36 839.78 1005.49 833.16 997.16 829.73 C 991.66 827.68 985.75 827.12 979.94 827.71 C 967.27 829.73 956.16 838.87 952.09 851.09 M 602.10 829.22 C 592.29 832.45 584.46 840.26 580.63 849.79 C 579.98 852.16 579.39 854.56 578.71 856.94 C 578.30 868.61 578.63 880.30 578.53 891.98 C 578.64 906.99 578.29 922.01 578.71 937.02 C 579.12 938.33 579.47 939.70 579.75 941.07 C 580.19 942.35 580.66 943.65 581.16 944.93 C 584.84 953.61 592.26 960.54 601.04 963.91 C 611.16 967.21 623.04 966.37 631.93 960.18 C 641.58 953.85 647.50 942.50 647.43 930.99 C 647.32 906.98 647.64 882.96 647.27 858.96 C 645.89 844.98 635.62 832.48 622.06 828.67 C 617.44 827.47 612.68 827.30 607.95 827.71 C 606.00 828.20 604.04 828.66 602.10 829.22 Z" />
<path fill="#000000" opacity="1.00" d=" M 287.50 426.50 C 290.57 426.54 293.63 426.60 296.70 426.53 L 296.46 427.28 C 300.83 427.21 305.20 427.55 309.58 427.66 L 309.39 428.36 C 310.95 428.44 312.52 428.56 314.08 428.74 C 315.55 429.25 317.08 429.48 318.62 429.66 L 318.45 430.37 C 319.84 430.44 321.23 430.51 322.62 430.59 L 322.38 431.30 C 324.36 431.63 326.42 432.05 327.98 433.44 C 328.25 433.43 328.80 433.40 329.07 433.39 C 331.40 434.96 333.99 436.10 336.32 437.67 C 339.21 440.08 342.08 442.60 344.25 445.71 C 344.93 446.81 345.68 447.86 346.44 448.93 C 346.48 449.17 346.54 449.64 346.57 449.87 C 347.12 451.02 347.53 452.22 347.85 453.46 L 348.47 453.40 C 348.53 454.06 348.64 455.39 348.70 456.05 C 350.44 461.33 349.54 467.04 349.40 472.50 L 348.62 472.54 C 348.60 473.31 348.55 474.85 348.53 475.62 L 347.81 475.56 C 347.49 477.18 346.89 478.73 345.90 480.08 C 344.93 481.93 343.59 483.55 342.18 485.09 C 339.61 487.59 336.85 489.90 333.76 491.73 C 332.17 492.65 330.45 493.35 329.02 494.51 C 328.76 494.50 328.25 494.48 327.99 494.47 C 326.75 495.19 325.44 495.77 324.12 496.32 C 322.25 496.92 320.38 497.53 318.42 497.75 L 318.65 498.33 C 317.11 498.51 315.57 498.73 314.12 499.29 C 312.91 499.43 311.69 499.55 310.48 499.67 L 310.53 500.37 C 308.47 500.43 306.41 500.54 304.35 500.60 L 304.62 501.36 C 300.60 501.47 296.59 501.78 292.57 501.76 L 292.55 502.39 C 290.86 502.36 289.18 502.35 287.50 502.36 C 287.42 477.07 287.42 451.79 287.50 426.50 Z" />
<path fill="#000000" opacity="1.00" d=" M 955.79 480.19 C 959.78 478.90 963.73 477.16 968.01 477.13 C 972.72 476.79 977.39 477.65 982.01 478.47 C 982.37 478.53 983.07 478.64 983.43 478.70 L 983.42 479.29 C 984.65 479.79 985.80 480.44 986.94 481.16 C 990.08 483.72 992.92 486.65 995.29 489.96 C 997.25 493.19 998.73 496.69 1000.56 499.99 C 1000.55 500.23 1000.52 500.71 1000.51 500.95 C 1000.99 501.96 1001.44 503.00 1001.85 504.06 C 1002.55 506.54 1003.45 508.99 1003.68 511.59 C 1003.82 511.58 1004.11 511.54 1004.25 511.52 C 1004.40 513.95 1004.95 516.33 1005.68 518.66 C 984.29 518.12 962.89 518.73 941.49 518.70 L 941.54 519.33 C 939.83 519.30 938.13 519.29 936.45 519.30 C 936.48 517.33 936.53 515.36 936.59 513.41 L 937.33 513.54 C 937.41 511.99 937.56 510.46 937.71 508.92 C 938.22 507.30 938.68 505.65 939.34 504.08 C 939.41 503.41 939.55 502.08 939.62 501.41 L 940.26 501.58 C 940.67 499.12 941.96 496.95 942.72 494.60 L 943.65 494.36 C 943.61 494.03 943.53 493.36 943.49 493.02 C 944.49 492.04 945.24 490.84 945.68 489.51 L 946.16 489.46 C 947.31 487.57 948.77 485.89 950.34 484.33 C 951.79 483.00 953.28 481.72 954.83 480.51 C 955.07 480.43 955.55 480.27 955.79 480.19 Z" />
<path fill="#000000" opacity="1.00" d=" M 526.37 484.67 C 527.60 484.43 528.81 484.13 530.02 483.76 C 533.99 483.20 538.03 483.22 542.01 483.75 C 542.90 483.99 544.68 484.48 545.57 484.73 L 545.56 485.20 C 546.66 485.49 547.75 485.83 548.84 486.21 C 549.75 486.70 550.66 487.19 551.59 487.68 L 551.73 488.17 C 557.93 491.41 562.29 497.31 566.23 502.95 C 566.99 504.79 568.24 506.44 568.70 508.42 L 569.32 508.58 C 569.93 510.96 571.35 513.10 571.64 515.58 L 572.22 515.47 C 572.63 518.02 573.36 520.51 574.18 522.97 C 576.42 533.37 575.79 544.07 575.37 554.63 L 574.63 554.38 C 574.54 555.94 574.43 557.51 574.30 559.08 C 573.74 560.69 573.28 562.35 572.70 563.96 C 572.63 564.62 572.49 565.94 572.42 566.60 L 571.79 566.46 C 571.50 567.64 571.18 568.81 570.83 569.98 C 569.86 572.07 568.84 574.14 568.10 576.33 L 567.35 576.41 L 567.45 577.17 C 566.51 578.45 565.73 579.84 565.19 581.34 L 564.70 581.32 C 563.72 583.45 562.06 585.13 560.46 586.80 L 560.52 587.21 C 560.20 587.55 559.56 588.22 559.24 588.56 L 558.49 588.46 L 558.56 589.58 L 557.80 589.51 C 557.55 589.80 557.05 590.39 556.80 590.69 C 555.52 591.74 554.22 592.78 552.89 593.78 C 550.89 595.00 548.89 596.35 546.55 596.82 L 546.53 597.37 C 543.89 598.09 541.22 598.71 538.49 598.76 L 538.59 599.37 C 536.86 599.34 535.13 599.34 533.41 599.37 L 533.50 598.77 C 530.75 598.70 528.08 598.10 525.44 597.39 L 525.45 596.85 C 523.10 596.35 521.08 595.04 519.09 593.78 C 517.60 592.62 516.12 591.47 514.61 590.37 C 513.57 589.37 512.58 588.35 511.63 587.29 C 511.39 587.05 510.91 586.57 510.67 586.33 C 510.17 585.61 509.69 584.88 509.24 584.14 C 507.12 580.16 504.49 576.45 502.75 572.28 C 495.26 555.02 494.54 535.06 500.09 517.14 C 501.59 512.13 504.16 507.55 506.17 502.74 C 506.72 501.55 507.44 500.46 508.15 499.37 C 511.24 495.26 515.02 491.75 518.93 488.43 C 519.27 488.46 519.93 488.52 520.27 488.55 L 520.33 487.66 C 522.33 486.73 524.27 485.56 526.48 485.21 L 526.37 484.67 Z" />
</g>
<g id="#00000095">
<path fill="#000000" opacity="0.58" d=" M 649.63 295.34 C 654.72 291.99 661.12 291.65 667.04 291.40 C 691.34 291.33 715.64 291.41 739.94 291.37 C 746.83 291.52 754.42 291.41 760.40 295.31 C 754.66 294.07 748.95 292.33 743.03 292.32 C 718.01 292.32 692.99 292.35 667.97 292.31 C 661.71 292.18 655.68 294.03 649.63 295.34 Z" />
</g>
<g id="#0000007f">
<path fill="#000000" opacity="0.50" d=" M 1062.49 307.78 C 1064.65 310.80 1065.66 314.41 1067.02 317.82 C 1069.94 325.28 1072.87 332.74 1075.76 340.22 C 1077.05 343.70 1078.90 347.05 1079.18 350.83 C 1076.34 345.39 1074.52 339.52 1072.19 333.86 C 1069.04 325.14 1064.94 316.74 1062.49 307.78 Z" />
<path fill="#000000" opacity="0.50" d=" M 312.25 323.42 C 316.26 321.61 320.63 323.31 324.79 323.48 C 338.55 324.41 352.09 327.19 365.44 330.53 C 364.77 330.61 363.45 330.78 362.79 330.86 C 352.97 328.80 343.19 326.40 333.17 325.41 C 326.25 324.22 319.18 324.52 312.25 323.42 Z" />
<path fill="#000000" opacity="0.50" d=" M 161.00 372.00 C 161.39 367.12 161.22 361.63 164.21 357.49 C 163.28 362.29 162.37 367.13 162.37 372.04 C 162.40 465.70 162.38 559.36 162.38 653.02 C 162.27 658.86 163.82 664.53 165.25 670.14 C 163.48 668.49 163.14 666.01 162.52 663.80 C 161.50 659.97 160.99 656.00 160.99 652.04 C 161.01 558.69 160.99 465.34 161.00 372.00 Z" />
<path fill="#000000" opacity="0.50" d=" M 496.96 1009.78 C 506.90 1010.35 516.68 1008.13 526.29 1005.88 C 524.73 1007.41 522.57 1007.87 520.51 1008.32 C 505.51 1012.04 489.54 1011.47 474.77 1007.02 C 475.39 1006.99 476.63 1006.91 477.25 1006.87 C 483.81 1007.90 490.28 1009.66 496.96 1009.78 Z" />
</g>
<g id="#ffffffff">
<path fill="#ffffff" opacity="1.00" d=" M 1001.42 315.74 C 1004.82 314.20 1007.58 311.52 1011.09 310.23 C 1011.50 311.88 1012.05 313.50 1012.67 315.09 C 1013.18 316.16 1013.56 317.29 1013.81 318.48 L 1014.29 318.54 C 1014.74 320.19 1015.27 321.82 1015.73 323.49 L 1016.28 323.49 C 1016.93 326.87 1018.77 329.85 1019.67 333.15 C 1020.47 334.74 1021.12 336.40 1021.71 338.08 C 1022.09 339.21 1022.45 340.34 1022.80 341.49 L 1023.28 341.49 C 1023.68 343.05 1024.21 344.57 1024.71 346.11 C 1025.26 347.43 1025.84 348.76 1026.58 350.01 C 1026.56 350.25 1026.52 350.74 1026.50 350.98 C 1027.51 352.69 1028.29 354.53 1028.58 356.51 L 1029.18 356.50 C 1029.47 357.66 1029.82 358.82 1030.23 359.97 C 1030.85 361.75 1031.44 363.60 1032.72 365.06 C 1031.95 366.64 1030.63 367.55 1028.95 367.87 C 1027.60 368.74 1026.12 369.37 1024.57 369.70 L 1024.47 370.40 C 1022.33 370.71 1020.64 372.26 1018.52 372.58 L 1018.44 373.25 C 1015.31 373.99 1012.70 376.01 1009.62 376.85 L 1009.47 377.41 C 1007.85 377.81 1006.24 378.37 1005.06 379.58 C 1004.69 379.52 1003.96 379.40 1003.59 379.34 L 1003.45 380.31 C 1001.81 380.69 1000.22 381.26 999.02 382.47 C 998.75 382.45 998.22 382.43 997.95 382.42 C 995.51 384.18 992.48 384.81 990.07 386.60 C 989.80 386.59 989.26 386.57 988.99 386.57 C 987.73 387.69 986.18 388.35 984.55 388.67 L 984.40 389.67 C 984.03 389.62 983.30 389.50 982.93 389.45 C 981.71 390.60 980.15 391.28 978.52 391.56 L 978.43 392.18 C 975.34 393.03 972.68 394.90 969.62 395.80 L 969.46 396.39 C 967.83 396.73 966.28 397.35 965.07 398.52 C 964.80 398.50 964.26 398.47 963.98 398.45 C 962.49 399.60 960.70 400.22 959.07 401.12 C 957.70 401.70 956.34 402.30 954.98 402.88 C 953.63 403.78 952.11 404.36 950.56 404.74 L 950.43 405.74 C 950.06 405.68 949.33 405.55 948.96 405.49 C 947.77 406.70 946.17 407.32 944.54 407.63 L 944.38 408.65 C 944.01 408.59 943.28 408.48 942.92 408.42 C 941.74 409.49 940.26 410.07 938.80 410.60 C 937.58 411.19 936.38 411.79 935.18 412.39 C 933.31 413.16 931.55 414.24 929.57 414.68 L 929.46 415.36 C 927.82 415.68 926.27 416.32 925.04 417.46 C 924.79 417.46 924.28 417.46 924.03 417.47 C 923.01 418.21 921.89 418.70 920.65 418.94 C 920.54 417.78 920.44 416.62 920.36 415.47 L 919.76 415.53 C 919.44 414.34 919.10 413.17 918.74 412.01 C 918.64 411.39 918.44 410.15 918.34 409.52 L 917.55 409.51 C 917.53 408.73 917.50 407.18 917.48 406.40 L 916.65 406.58 C 916.56 405.93 916.38 404.63 916.29 403.98 C 915.89 402.81 915.54 401.65 915.23 400.48 L 914.60 400.45 C 914.58 399.69 914.55 398.17 914.53 397.40 C 914.35 397.42 913.97 397.45 913.78 397.46 C 913.30 394.02 911.69 390.89 911.21 387.46 L 910.70 387.62 C 910.44 386.44 910.15 385.27 909.83 384.12 C 909.16 382.29 908.56 380.43 908.27 378.51 C 908.05 378.52 907.61 378.54 907.39 378.55 C 906.98 376.34 907.76 374.45 909.73 373.40 L 910.62 373.62 L 910.75 372.85 C 914.16 371.37 916.87 368.68 920.31 367.25 L 920.56 366.32 C 920.99 366.36 921.85 366.42 922.28 366.46 L 922.26 365.50 C 923.23 365.06 924.23 364.63 925.23 364.20 L 925.38 363.37 L 926.20 363.51 C 927.21 362.55 928.40 361.84 929.69 361.29 L 929.68 360.39 C 930.01 360.45 930.68 360.56 931.02 360.61 C 932.33 359.54 933.66 358.50 934.99 357.43 C 935.32 357.48 935.99 357.58 936.32 357.63 L 936.40 356.75 C 937.55 356.14 938.66 355.46 939.77 354.76 C 941.68 353.54 943.58 352.29 945.62 351.26 L 945.67 350.38 C 946.00 350.41 946.67 350.49 947.00 350.52 C 948.31 349.48 949.64 348.46 950.96 347.41 C 951.21 347.42 951.70 347.43 951.95 347.43 C 953.27 346.23 954.75 345.24 956.30 344.36 C 957.99 343.24 959.70 342.14 961.54 341.25 L 961.64 340.73 C 962.64 340.27 963.66 339.81 964.68 339.35 L 964.64 338.47 C 965.00 338.49 965.71 338.54 966.07 338.56 C 967.08 337.75 968.14 336.96 969.12 336.10 C 969.96 335.62 970.82 335.14 971.69 334.66 C 972.98 333.84 974.28 333.04 975.64 332.31 L 975.73 331.47 C 976.06 331.49 976.72 331.55 977.05 331.58 C 978.37 330.54 979.70 329.51 981.02 328.44 C 981.25 328.46 981.73 328.51 981.96 328.53 C 983.25 327.46 984.59 326.43 985.93 325.40 C 986.17 325.41 986.64 325.43 986.88 325.43 C 988.44 323.96 990.32 322.90 992.12 321.74 C 993.85 320.80 995.52 319.74 997.00 318.42 C 997.25 318.44 997.75 318.47 998.00 318.48 C 998.68 317.18 999.95 316.58 1001.34 316.29 L 1001.42 315.74 Z" />
<path fill="#ffffff" opacity="1.00" d=" M 667.58 341.43 C 692.54 341.26 717.51 341.30 742.48 341.41 C 742.30 399.53 742.68 457.66 742.29 515.78 C 742.74 515.66 743.64 515.42 744.09 515.30 C 744.43 514.20 744.83 513.12 745.27 512.07 C 745.74 511.16 746.21 510.25 746.69 509.35 L 747.16 509.32 C 747.43 508.74 747.97 507.57 748.23 506.99 C 749.13 505.49 749.96 503.95 750.73 502.38 L 751.61 502.32 C 751.57 501.99 751.49 501.32 751.46 500.99 C 752.35 499.88 753.22 498.73 753.72 497.39 L 754.17 497.28 C 754.96 494.57 757.08 492.51 757.81 489.78 C 758.16 489.59 758.53 489.40 758.90 489.23 C 759.40 488.12 759.93 487.02 760.51 485.96 C 760.51 485.65 760.51 485.04 760.50 484.73 L 761.29 484.66 C 762.14 483.01 763.20 481.45 763.80 479.68 L 764.29 479.62 C 765.03 478.02 765.88 476.47 766.77 474.96 C 767.05 474.40 767.62 473.28 767.90 472.73 L 768.59 472.57 L 768.48 471.46 L 769.11 471.27 C 769.44 470.69 770.12 469.55 770.46 468.98 C 770.47 468.73 770.51 468.24 770.53 467.99 C 771.49 466.62 772.47 465.26 773.52 463.96 C 773.51 463.72 773.48 463.25 773.47 463.01 C 774.45 461.66 775.41 460.28 776.38 458.92 C 776.40 458.67 776.42 458.17 776.44 457.92 C 777.35 456.83 778.07 455.61 778.64 454.30 L 779.15 454.31 C 779.59 452.76 780.45 451.38 781.25 450.00 C 782.87 447.05 784.70 444.23 786.34 441.30 C 787.22 439.79 788.05 438.24 788.79 436.66 L 789.63 436.60 L 789.51 435.42 C 815.68 435.41 841.86 435.51 868.03 435.37 C 867.63 437.15 866.79 438.76 865.39 439.97 C 865.42 440.29 865.46 440.94 865.48 441.27 L 864.43 441.43 L 864.38 442.16 C 864.10 442.71 863.54 443.81 863.26 444.36 L 862.75 444.41 C 861.94 445.95 861.08 447.47 860.23 449.00 C 858.78 451.12 857.31 453.24 856.27 455.60 L 855.74 455.67 C 855.30 456.66 854.87 457.66 854.45 458.67 C 854.19 458.67 853.67 458.69 853.42 458.70 C 853.46 459.03 853.55 459.69 853.60 460.02 C 852.60 461.08 851.84 462.31 851.28 463.65 L 850.46 463.60 C 850.47 463.95 850.49 464.63 850.50 464.98 C 847.87 468.38 846.04 472.32 843.47 475.76 L 843.48 476.21 C 842.40 477.60 841.53 479.12 840.65 480.64 C 839.31 482.72 838.07 484.87 836.66 486.90 C 836.19 487.80 835.75 488.70 835.32 489.62 C 835.08 489.64 834.61 489.68 834.38 489.70 L 834.50 490.93 C 834.17 491.44 833.50 492.47 833.17 492.98 C 832.73 493.47 831.85 494.46 831.41 494.95 C 831.46 495.28 831.56 495.96 831.61 496.30 L 830.74 496.39 C 829.86 498.01 828.96 499.61 828.14 501.26 L 827.34 501.40 L 827.55 502.53 L 826.83 502.73 C 826.03 504.60 824.91 506.30 823.68 507.91 C 823.22 508.82 822.78 509.74 822.35 510.67 L 821.50 510.73 C 821.52 511.05 821.57 511.70 821.60 512.03 C 820.53 513.33 819.51 514.67 818.49 516.02 C 818.51 516.26 818.55 516.75 818.56 516.99 C 817.51 518.31 816.47 519.65 815.42 520.97 C 815.46 521.29 815.54 521.95 815.58 522.28 L 814.75 522.40 C 813.61 524.70 812.13 526.81 810.73 528.97 C 810.28 529.88 809.85 530.80 809.42 531.73 L 808.83 531.68 C 808.15 533.42 807.13 535.00 806.29 536.67 L 805.53 536.52 C 805.46 537.41 805.41 538.30 805.37 539.20 C 806.66 540.61 807.46 542.37 808.55 543.94 C 808.56 544.19 808.58 544.68 808.58 544.93 C 809.54 546.32 810.47 547.73 811.45 549.12 L 811.41 550.01 C 813.13 552.03 814.09 554.56 815.57 556.76 L 815.46 557.54 L 816.21 557.69 C 816.69 559.25 817.41 560.73 818.58 561.92 C 818.58 562.18 818.58 562.68 818.58 562.94 C 819.57 564.20 820.46 565.54 821.30 566.94 C 822.20 568.88 823.21 570.79 824.32 572.64 C 824.76 573.49 825.21 574.35 825.68 575.20 C 826.51 576.50 827.39 577.83 827.77 579.36 L 828.25 579.33 C 828.74 580.69 829.49 581.92 830.37 583.08 C 830.39 583.33 830.42 583.82 830.44 584.07 C 832.08 586.34 833.26 588.89 834.71 591.28 C 835.87 593.13 836.85 595.08 837.81 597.05 C 838.58 598.16 839.16 599.38 839.69 600.64 C 839.93 600.66 840.40 600.70 840.64 600.72 L 840.35 602.00 C 841.67 603.33 842.40 605.08 843.32 606.69 C 843.76 607.54 844.21 608.39 844.66 609.25 C 845.51 610.88 846.38 612.52 847.58 613.95 C 847.56 614.29 847.51 614.97 847.48 615.30 L 848.24 615.41 C 848.48 615.83 848.96 616.65 849.21 617.07 C 850.25 619.45 851.71 621.63 852.82 624.00 C 854.00 626.03 855.10 628.13 856.53 630.01 L 856.55 630.91 C 857.83 632.65 858.89 634.56 859.70 636.58 L 860.24 636.67 C 860.70 638.75 862.43 640.29 862.75 642.43 L 863.68 642.35 L 863.52 643.19 C 864.41 644.39 865.07 645.73 865.70 647.10 C 866.86 648.69 867.87 650.42 867.83 652.47 C 865.54 650.81 863.14 653.21 861.01 651.54 C 858.56 652.85 855.57 652.32 852.99 651.77 C 850.43 652.24 847.28 653.01 845.00 651.43 C 843.06 652.72 839.86 652.80 838.00 651.38 C 836.75 652.80 834.61 652.04 832.98 652.28 C 831.01 652.05 828.64 652.83 827.01 651.45 C 825.66 652.61 824.33 652.62 823.01 651.48 C 820.05 652.73 815.92 652.75 813.01 651.46 C 811.25 652.93 808.99 651.69 807.00 652.15 C 801.58 652.41 796.15 652.03 790.74 652.38 C 788.28 651.06 788.28 647.94 786.54 646.01 C 786.54 645.74 786.53 645.20 786.53 644.93 C 785.51 643.73 784.92 642.30 784.36 640.87 C 783.54 639.26 782.77 637.64 782.08 635.99 C 781.23 634.32 780.52 632.58 779.44 631.06 C 779.44 630.79 779.44 630.27 779.45 630.01 C 778.27 628.46 777.63 626.61 776.52 625.03 C 776.51 624.77 776.50 624.25 776.49 623.98 C 775.35 622.41 774.70 620.56 773.55 619.01 C 773.54 618.75 773.53 618.22 773.52 617.96 C 772.40 616.37 771.78 614.51 770.60 612.97 C 770.59 612.72 770.57 612.20 770.57 611.94 C 767.85 607.48 766.16 602.47 763.43 598.03 C 763.43 597.77 763.44 597.25 763.45 596.99 C 762.33 595.73 761.66 594.19 761.33 592.57 L 760.38 592.38 C 760.42 592.03 760.49 591.32 760.52 590.97 C 759.38 589.40 758.80 587.50 757.61 585.98 C 757.60 585.72 757.57 585.21 757.56 584.95 C 755.62 581.84 754.40 578.36 752.59 575.18 C 752.10 574.00 751.62 572.83 751.21 571.64 L 750.65 571.45 C 750.03 569.42 748.81 567.63 748.28 565.58 L 747.67 565.43 C 747.15 563.48 746.11 561.74 745.24 559.95 C 744.81 558.81 744.46 557.66 744.18 556.49 L 743.49 556.60 C 743.33 555.91 743.02 554.52 742.87 553.82 C 742.60 555.18 742.44 556.54 742.38 557.93 C 742.56 589.10 742.35 620.27 742.49 651.44 C 741.91 651.65 740.74 652.08 740.15 652.29 C 738.62 652.49 737.24 652.22 736.00 651.46 C 734.61 652.69 732.63 652.12 730.98 652.26 C 718.49 652.24 706.00 652.17 693.52 652.30 L 693.43 651.71 C 692.71 651.71 691.29 651.71 690.57 651.71 L 690.48 652.30 C 688.03 651.96 685.12 652.98 683.01 651.44 C 681.29 652.71 678.70 652.69 676.99 651.46 C 674.96 652.96 672.21 652.00 669.88 652.23 C 669.30 652.03 668.15 651.62 667.57 651.42 C 667.65 548.09 667.63 444.76 667.58 341.43 Z" />
<path fill="#ffffff" opacity="1.00" d=" M 210.61 372.57 C 231.74 372.51 252.87 372.57 274.00 372.55 C 288.87 372.64 303.75 372.13 318.63 372.64 L 318.34 373.37 C 321.41 373.38 324.49 373.57 327.57 373.64 L 327.49 374.32 C 329.99 374.40 332.54 374.38 334.94 375.18 C 336.78 375.40 338.63 375.57 340.48 375.70 C 340.47 375.90 340.46 376.29 340.45 376.49 C 341.82 376.49 343.20 376.50 344.58 376.52 L 344.55 377.23 C 347.27 377.52 349.92 378.22 352.61 378.71 L 352.45 379.39 C 353.82 379.45 355.19 379.52 356.57 379.59 L 356.38 380.32 C 357.56 380.54 358.74 380.80 359.91 381.10 C 361.30 381.69 362.72 382.23 364.18 382.66 C 365.76 383.47 367.42 384.09 369.11 384.65 C 373.85 386.78 378.50 389.12 382.98 391.78 C 387.47 394.66 391.86 397.73 395.77 401.38 C 396.02 401.66 396.53 402.22 396.78 402.50 L 397.23 402.40 C 397.63 402.87 398.43 403.83 398.82 404.31 C 399.07 404.60 399.57 405.19 399.82 405.49 L 400.52 405.45 L 400.48 406.48 L 401.14 406.54 C 402.63 408.46 404.27 410.26 405.75 412.20 C 406.58 413.40 407.44 414.58 408.32 415.76 C 408.77 416.59 409.22 417.41 409.69 418.24 C 410.64 419.46 411.44 420.83 411.79 422.37 L 412.41 422.50 C 413.05 424.52 414.32 426.34 414.60 428.47 L 415.21 428.48 C 415.46 429.64 415.80 430.78 416.24 431.89 C 416.92 433.72 417.46 435.60 417.76 437.55 L 418.44 437.40 C 418.48 438.79 418.53 440.19 418.58 441.59 L 419.36 441.40 C 419.45 443.28 419.58 445.17 420.18 446.98 C 420.51 449.51 420.61 452.05 420.65 454.60 L 421.36 454.40 C 421.49 464.27 421.58 474.21 419.81 483.94 C 419.58 485.77 419.43 487.62 419.34 489.48 C 419.14 489.47 418.74 489.44 418.55 489.43 C 418.51 490.82 418.49 492.21 418.46 493.60 L 417.70 493.47 C 417.55 494.66 417.39 495.84 417.22 497.03 C 416.86 498.17 416.53 499.32 416.24 500.49 L 415.59 500.52 C 415.57 501.28 415.51 502.80 415.48 503.56 L 414.79 503.49 C 414.47 504.64 414.10 505.78 413.71 506.91 C 413.20 508.05 412.69 509.21 412.32 510.42 L 411.75 510.61 C 411.19 512.52 410.10 514.22 409.26 516.01 C 404.66 523.34 398.97 530.00 392.12 535.30 C 390.38 536.55 388.79 538.10 386.72 538.79 L 386.65 539.30 C 384.71 540.24 382.78 541.24 381.10 542.60 C 380.82 542.59 380.27 542.57 379.99 542.57 C 378.79 543.78 377.21 544.36 375.57 544.67 L 375.49 545.27 C 373.93 545.68 372.43 546.25 370.92 546.80 C 369.63 547.29 368.35 547.79 367.12 548.40 C 366.44 548.44 365.08 548.53 364.40 548.57 L 364.64 549.28 C 360.51 549.81 356.62 551.59 352.41 551.64 C 352.45 551.81 352.53 552.17 352.58 552.35 C 350.68 552.43 348.79 552.57 346.92 552.78 C 344.24 553.75 341.34 553.54 338.54 553.69 L 338.48 554.30 C 321.84 554.97 305.18 554.80 288.54 554.62 C 288.53 586.95 288.86 619.28 288.57 651.62 C 287.01 651.66 285.41 651.67 284.00 652.44 C 279.57 650.93 274.63 652.15 270.00 651.77 C 266.37 652.13 262.37 650.91 259.00 652.50 C 257.11 651.19 254.66 651.93 252.53 651.69 L 252.41 652.27 C 251.70 652.27 250.30 652.27 249.59 652.27 L 249.46 651.70 C 242.65 651.77 235.82 651.80 229.01 651.84 C 224.69 651.97 220.22 651.15 216.01 652.31 C 215.25 652.35 213.73 652.44 212.97 652.48 C 212.37 652.19 211.18 651.62 210.58 651.33 C 210.65 558.41 210.58 465.49 210.61 372.57 M 287.50 426.50 C 287.42 451.79 287.42 477.07 287.50 502.36 C 289.18 502.35 290.86 502.36 292.55 502.39 L 292.57 501.76 C 296.59 501.78 300.60 501.47 304.62 501.36 L 304.35 500.60 C 306.41 500.54 308.47 500.43 310.53 500.37 L 310.48 499.67 C 311.69 499.55 312.91 499.43 314.12 499.29 C 315.57 498.73 317.11 498.51 318.65 498.33 L 318.42 497.75 C 320.38 497.53 322.25 496.92 324.12 496.32 C 325.44 495.77 326.75 495.19 327.99 494.47 C 328.25 494.48 328.76 494.50 329.02 494.51 C 330.45 493.35 332.17 492.65 333.76 491.73 C 336.85 489.90 339.61 487.59 342.18 485.09 C 343.59 483.55 344.93 481.93 345.90 480.08 C 346.89 478.73 347.49 477.18 347.81 475.56 L 348.53 475.62 C 348.55 474.85 348.60 473.31 348.62 472.54 L 349.40 472.50 C 349.54 467.04 350.44 461.33 348.70 456.05 C 348.64 455.39 348.53 454.06 348.47 453.40 L 347.85 453.46 C 347.53 452.22 347.12 451.02 346.57 449.87 C 346.54 449.64 346.48 449.17 346.44 448.93 C 345.68 447.86 344.93 446.81 344.25 445.71 C 342.08 442.60 339.21 440.08 336.32 437.67 C 333.99 436.10 331.40 434.96 329.07 433.39 C 328.80 433.40 328.25 433.43 327.98 433.44 C 326.42 432.05 324.36 431.63 322.38 431.30 L 322.62 430.59 C 321.23 430.51 319.84 430.44 318.45 430.37 L 318.62 429.66 C 317.08 429.48 315.55 429.25 314.08 428.74 C 312.52 428.56 310.95 428.44 309.39 428.36 L 309.58 427.66 C 305.20 427.55 300.83 427.21 296.46 427.28 L 296.70 426.53 C 293.63 426.60 290.57 426.54 287.50 426.50 Z" />
<path fill="#ffffff" opacity="1.00" d=" M 952.53 430.41 C 952.54 430.23 952.56 429.88 952.57 429.70 C 956.05 429.53 959.54 429.41 963.02 429.13 C 967.97 428.26 973.04 428.74 978.04 428.81 C 981.47 429.61 985.01 429.45 988.51 429.66 L 988.42 430.37 C 990.46 430.44 992.51 430.57 994.58 430.66 L 994.29 431.36 C 996.73 431.61 999.10 432.24 1001.51 432.73 L 1001.49 433.34 C 1002.95 433.54 1004.88 433.00 1005.82 434.52 C 1008.10 435.04 1010.20 436.15 1012.47 436.77 L 1012.52 437.40 C 1014.86 437.90 1016.99 439.14 1018.90 440.59 C 1019.15 440.59 1019.67 440.60 1019.92 440.61 C 1021.21 441.82 1022.70 442.81 1024.28 443.66 C 1025.42 444.54 1026.57 445.43 1027.71 446.33 C 1028.01 446.53 1028.61 446.94 1028.91 447.14 C 1031.22 449.13 1033.49 451.19 1035.66 453.35 C 1037.81 455.64 1040.07 457.85 1041.87 460.44 L 1042.26 460.58 C 1043.18 462.15 1044.28 463.62 1045.61 464.91 C 1045.59 465.25 1045.56 465.93 1045.55 466.27 L 1046.37 466.30 C 1047.27 467.88 1048.23 469.42 1049.25 470.95 C 1049.85 472.25 1050.51 473.53 1051.32 474.74 C 1052.61 477.24 1054.09 479.68 1054.78 482.44 L 1055.37 482.52 C 1055.67 483.76 1056.18 484.94 1056.68 486.14 C 1057.08 487.26 1057.44 488.41 1057.77 489.57 L 1058.41 489.44 C 1058.48 490.09 1058.62 491.38 1058.69 492.02 C 1059.28 493.30 1059.82 494.60 1060.39 495.91 C 1060.44 496.58 1060.54 497.90 1060.59 498.57 L 1061.28 498.42 C 1061.77 502.52 1063.60 506.36 1063.73 510.54 L 1064.44 510.41 C 1064.49 512.12 1064.57 513.83 1064.63 515.55 L 1065.36 515.40 C 1065.46 519.82 1066.89 524.10 1066.67 528.55 L 1067.37 528.42 C 1067.39 532.49 1067.71 536.56 1067.65 540.64 L 1068.39 540.33 C 1068.39 547.09 1068.51 553.84 1068.38 560.61 L 1067.28 560.30 L 1067.60 561.41 C 1024.52 561.21 981.43 561.35 938.34 561.34 C 938.43 563.06 938.53 564.78 938.63 566.52 L 939.38 566.46 C 939.44 567.83 939.52 569.20 939.61 570.59 L 940.34 570.43 C 940.65 572.32 941.40 574.09 942.25 575.81 C 943.34 577.65 944.49 579.47 945.66 581.28 C 948.27 584.43 951.04 587.53 954.46 589.85 L 954.58 590.14 C 954.93 590.39 955.63 590.89 955.98 591.13 C 967.06 599.47 981.73 600.15 995.06 599.48 C 1014.68 598.01 1034.21 592.80 1051.39 583.08 C 1051.38 599.75 1051.37 616.43 1051.41 633.10 C 1051.85 635.90 1048.89 637.10 1046.93 638.24 C 1028.44 647.69 1007.44 650.47 986.96 651.49 C 970.84 652.03 954.47 650.31 939.21 644.89 C 935.16 643.53 931.43 641.37 927.31 640.24 L 927.01 640.15 C 925.84 639.45 924.65 638.79 923.40 638.27 L 923.31 637.38 C 922.98 637.42 922.31 637.50 921.98 637.54 C 920.71 636.57 919.44 635.64 918.13 634.75 C 907.49 627.75 898.38 618.39 891.30 607.82 C 890.41 606.49 889.46 605.22 888.44 604.01 C 888.44 603.77 888.45 603.29 888.45 603.05 C 887.43 602.00 886.75 600.70 886.24 599.36 L 885.42 599.35 C 885.46 599.00 885.53 598.32 885.56 597.97 C 884.29 596.47 883.64 594.59 882.48 593.03 C 882.53 592.67 882.64 591.96 882.69 591.61 L 881.74 591.47 C 881.21 589.05 879.71 586.97 879.35 584.52 L 878.76 584.54 C 878.48 583.37 878.14 582.22 877.75 581.11 C 877.06 579.29 876.50 577.43 876.20 575.52 L 875.47 575.59 C 875.47 574.82 875.47 573.28 875.47 572.51 C 875.28 572.49 874.90 572.45 874.71 572.44 C 874.51 570.95 874.23 569.48 873.86 568.05 C 873.29 565.04 872.36 562.07 872.36 558.98 C 872.13 548.11 872.32 537.24 872.65 526.38 L 873.37 526.64 C 873.40 524.07 873.52 521.52 873.84 518.98 C 874.48 516.88 874.59 514.69 874.70 512.53 L 875.31 512.65 C 875.35 509.68 876.31 506.86 876.83 503.97 C 877.28 502.31 877.69 500.65 878.31 499.05 C 878.37 498.39 878.49 497.05 878.56 496.39 L 879.23 496.53 C 879.47 494.58 880.07 492.72 880.76 490.90 C 881.11 489.76 881.44 488.62 881.75 487.48 L 882.25 487.51 C 882.70 485.07 884.11 482.96 884.67 480.57 L 885.63 480.38 C 885.58 480.02 885.50 479.31 885.45 478.95 C 886.59 477.37 887.22 475.49 888.51 474.02 C 888.51 473.77 888.51 473.26 888.52 473.01 C 889.50 471.66 890.47 470.30 891.46 468.96 C 891.46 468.72 891.46 468.26 891.46 468.03 C 892.91 466.51 894.03 464.73 895.25 463.04 C 896.22 461.77 897.22 460.52 898.23 459.28 C 903.44 452.70 910.03 447.40 916.92 442.68 C 917.83 442.22 918.75 441.78 919.69 441.35 L 919.66 440.46 C 920.01 440.50 920.71 440.57 921.06 440.61 C 922.56 439.35 924.45 438.74 926.00 437.55 C 926.26 437.56 926.77 437.59 927.03 437.60 C 928.24 436.79 929.57 436.19 930.91 435.59 C 932.45 435.12 934.01 434.63 935.62 434.29 L 935.42 433.74 C 937.99 433.39 940.50 432.65 942.94 431.75 C 944.19 431.62 945.46 431.53 946.73 431.45 L 946.43 430.66 C 948.45 430.58 950.48 430.47 952.53 430.41 M 955.79 480.19 C 955.55 480.27 955.07 480.43 954.83 480.51 C 953.28 481.72 951.79 483.00 950.34 484.33 C 948.77 485.89 947.31 487.57 946.16 489.46 L 945.68 489.51 C 945.24 490.84 944.49 492.04 943.49 493.02 C 943.53 493.36 943.61 494.03 943.65 494.36 L 942.72 494.60 C 941.96 496.95 940.67 499.12 940.26 501.58 L 939.62 501.41 C 939.55 502.08 939.41 503.41 939.34 504.08 C 938.68 505.65 938.22 507.30 937.71 508.92 C 937.56 510.46 937.41 511.99 937.33 513.54 L 936.59 513.41 C 936.53 515.36 936.48 517.33 936.45 519.30 C 938.13 519.29 939.83 519.30 941.54 519.33 L 941.49 518.70 C 962.89 518.73 984.29 518.12 1005.68 518.66 C 1004.95 516.33 1004.40 513.95 1004.25 511.52 C 1004.11 511.54 1003.82 511.58 1003.68 511.59 C 1003.45 508.99 1002.55 506.54 1001.85 504.06 C 1001.44 503.00 1000.99 501.96 1000.51 500.95 C 1000.52 500.71 1000.55 500.23 1000.56 499.99 C 998.73 496.69 997.25 493.19 995.29 489.96 C 992.92 486.65 990.08 483.72 986.94 481.16 C 985.80 480.44 984.65 479.79 983.42 479.29 L 983.43 478.70 C 983.07 478.64 982.37 478.53 982.01 478.47 C 977.38 475.64 971.55 475.17 966.28 475.97 C 962.64 476.86 958.50 477.33 955.79 480.19 Z" />
<path fill="#ffffff" opacity="1.00" d=" M 509.40 432.69 C 512.16 432.18 514.90 431.47 517.72 431.35 L 517.39 430.64 C 519.78 430.55 522.18 430.41 524.58 430.36 L 524.48 429.67 C 533.63 429.51 542.89 428.74 551.95 430.42 C 553.49 430.54 555.04 430.62 556.60 430.66 L 556.37 431.36 C 559.16 431.43 561.84 432.22 564.59 432.68 L 564.53 433.19 C 566.79 433.35 568.97 433.98 571.10 434.74 C 572.37 435.22 573.64 435.70 574.92 436.20 C 576.32 436.70 577.72 437.26 579.13 437.79 C 580.50 438.56 581.97 439.17 583.52 439.55 L 583.60 440.18 C 585.93 440.85 588.17 441.89 590.01 443.50 C 590.26 443.50 590.76 443.49 591.01 443.49 C 592.73 444.81 594.59 445.94 596.42 447.13 C 597.98 448.12 599.49 449.17 600.97 450.30 C 602.01 451.08 603.05 451.87 604.12 452.63 C 606.39 454.46 608.55 456.43 610.74 458.35 C 611.00 458.66 611.51 459.28 611.77 459.58 L 612.56 459.44 L 612.43 460.59 L 613.57 460.43 L 613.47 461.18 C 613.81 461.52 614.48 462.18 614.81 462.51 L 615.54 462.45 L 615.45 463.20 C 615.77 463.54 616.42 464.21 616.74 464.55 L 617.11 464.59 C 621.23 469.54 625.47 474.45 628.79 479.99 C 629.87 481.60 630.87 483.27 631.82 484.97 C 633.56 487.81 634.87 490.87 636.41 493.81 C 636.84 494.88 637.30 495.95 637.73 497.04 C 638.23 498.30 638.75 499.57 639.31 500.82 C 639.78 502.25 640.30 503.68 640.85 505.10 C 641.15 506.26 641.42 507.43 641.65 508.61 C 641.83 508.59 642.19 508.54 642.37 508.52 C 642.42 509.52 642.52 511.52 642.57 512.52 C 642.75 512.54 643.13 512.58 643.32 512.59 C 643.45 514.38 643.65 516.18 644.28 517.88 C 644.48 519.42 644.58 520.95 644.65 522.51 L 645.38 522.44 C 645.46 525.17 645.62 527.89 645.66 530.62 L 646.37 530.38 C 646.30 537.87 647.11 545.44 645.71 552.85 C 645.40 555.39 645.35 557.94 645.26 560.50 L 644.51 560.24 C 644.43 561.49 644.32 562.76 644.20 564.02 C 643.63 565.47 643.45 567.02 643.33 568.56 L 642.61 568.47 C 642.53 569.84 642.46 571.22 642.40 572.61 L 641.56 572.34 C 641.51 573.02 641.41 574.37 641.36 575.05 C 640.78 576.33 640.24 577.64 639.64 578.93 C 639.57 579.57 639.42 580.86 639.35 581.51 L 638.59 581.49 C 638.31 582.74 637.88 583.95 637.49 585.18 C 636.82 586.46 636.16 587.76 635.41 589.00 C 635.42 589.25 635.44 589.74 635.45 589.98 C 634.32 591.22 633.59 592.72 633.25 594.36 L 632.71 594.40 C 631.72 596.80 630.16 598.92 629.12 601.30 L 628.63 601.30 C 627.82 602.72 627.01 604.15 626.23 605.59 L 625.78 605.64 C 625.00 606.81 624.19 607.96 623.41 609.13 C 621.96 610.89 620.48 612.62 619.12 614.45 L 618.43 614.47 L 618.51 615.19 C 618.23 615.47 617.67 616.03 617.39 616.31 C 614.79 619.19 611.99 621.87 609.19 624.55 L 608.78 624.47 C 608.52 624.76 608.01 625.33 607.76 625.62 C 606.51 626.69 605.23 627.73 603.93 628.75 C 602.33 629.97 600.75 631.21 599.13 632.40 C 597.73 633.30 596.35 634.24 594.99 635.21 C 593.48 636.10 591.96 636.96 590.38 637.72 L 590.38 638.29 C 588.29 638.73 586.64 640.27 584.55 640.68 L 584.41 641.66 C 584.05 641.62 583.32 641.53 582.96 641.48 C 581.21 642.96 578.81 643.20 577.02 644.61 C 576.77 644.58 576.26 644.51 576.01 644.48 C 574.75 645.20 573.42 645.78 572.09 646.36 C 571.45 646.42 570.17 646.56 569.53 646.63 L 569.58 647.48 C 568.78 647.49 567.20 647.49 566.41 647.49 L 566.51 648.31 C 565.30 648.45 564.10 648.60 562.91 648.78 C 561.20 649.44 559.37 649.60 557.56 649.74 L 557.54 650.43 C 555.79 650.45 554.05 650.52 552.31 650.55 L 552.58 651.32 C 542.20 651.91 531.80 651.90 521.43 651.32 L 521.69 650.55 C 519.94 650.52 518.20 650.45 516.47 650.43 L 516.43 649.75 C 514.63 649.57 512.81 649.45 511.12 648.78 C 509.92 648.60 508.73 648.44 507.54 648.30 L 507.59 647.48 C 506.80 647.48 505.22 647.49 504.43 647.49 L 504.48 646.63 C 503.84 646.57 502.56 646.43 501.92 646.37 C 500.59 645.78 499.26 645.19 498.00 644.49 C 497.75 644.52 497.24 644.58 496.99 644.61 C 494.72 643.11 492.12 642.21 489.57 641.32 L 489.44 640.67 C 487.36 640.24 485.69 638.77 483.65 638.25 L 483.63 637.71 C 482.05 636.97 480.52 636.11 479.03 635.23 C 477.38 634.07 475.74 632.93 474.10 631.78 C 472.73 630.80 471.39 629.78 470.06 628.76 C 468.63 627.59 467.22 626.40 465.80 625.22 C 462.50 622.51 459.53 619.43 456.61 616.33 C 456.40 616.07 455.98 615.54 455.77 615.27 C 454.09 613.21 452.27 611.27 450.67 609.15 C 449.75 607.80 448.74 606.52 447.73 605.26 C 446.47 603.05 445.05 600.95 443.46 598.99 C 443.46 598.75 443.46 598.28 443.47 598.04 C 442.56 596.91 441.72 595.74 441.29 594.37 L 440.75 594.38 C 440.21 592.44 439.09 590.74 438.34 588.90 C 437.77 587.64 437.19 586.40 436.59 585.18 C 436.16 584.07 435.74 582.98 435.30 581.90 C 434.79 580.80 434.44 579.65 434.25 578.47 L 433.66 578.48 C 433.55 577.86 433.34 576.63 433.23 576.01 C 432.86 574.84 432.52 573.66 432.24 572.47 L 431.62 572.48 C 431.55 571.10 431.49 569.73 431.44 568.37 L 430.70 568.65 C 430.01 562.54 427.96 556.59 428.36 550.37 L 427.60 550.66 C 427.49 543.89 427.51 537.12 427.62 530.35 L 428.36 530.65 C 428.39 527.93 428.56 525.22 428.66 522.51 L 429.29 522.45 C 429.39 520.61 429.43 518.75 430.16 517.03 C 430.37 515.49 430.54 513.96 430.68 512.42 L 431.44 512.62 C 431.49 511.94 431.58 510.58 431.63 509.90 C 432.29 508.35 432.75 506.73 433.26 505.13 C 433.71 503.69 434.23 502.27 434.72 500.84 C 435.52 499.14 436.19 497.38 436.67 495.57 L 437.58 495.33 C 437.54 494.99 437.45 494.29 437.41 493.94 C 438.52 492.34 439.18 490.47 440.39 488.93 C 440.40 488.68 440.42 488.17 440.43 487.91 C 441.74 486.09 442.73 484.08 443.76 482.10 C 445.43 479.72 446.96 477.24 448.64 474.87 C 451.22 471.42 453.85 467.99 456.86 464.88 C 457.10 464.54 457.59 463.84 457.83 463.50 L 458.60 463.57 L 458.48 462.45 L 459.22 462.54 C 459.55 462.21 460.20 461.55 460.53 461.21 L 460.46 460.49 L 461.56 460.56 L 461.49 459.80 C 461.82 459.56 462.49 459.07 462.82 458.83 C 465.16 456.74 467.43 454.58 469.89 452.63 C 470.95 451.87 471.99 451.08 473.05 450.30 C 474.75 449.07 476.51 447.90 478.06 446.47 C 478.29 446.49 478.76 446.52 479.00 446.53 C 480.30 445.49 481.63 444.48 482.96 443.46 C 483.22 443.47 483.73 443.49 483.99 443.50 C 485.82 441.89 488.07 440.86 490.40 440.18 L 490.49 439.54 C 492.03 439.22 493.49 438.58 494.86 437.80 C 496.26 437.26 497.66 436.70 499.09 436.22 C 500.36 435.70 501.64 435.18 502.91 434.64 C 503.58 434.58 504.93 434.46 505.60 434.41 L 505.33 433.56 C 506.71 433.48 508.09 433.40 509.48 433.33 L 509.40 432.69 M 526.37 484.67 L 526.48 485.21 C 524.27 485.56 522.33 486.73 520.33 487.66 L 520.27 488.55 C 519.93 488.52 519.27 488.46 518.93 488.43 C 515.02 491.75 511.24 495.26 508.15 499.37 C 507.44 500.46 506.72 501.55 506.17 502.74 C 503.13 505.46 502.02 509.55 500.41 513.16 C 492.94 532.98 493.63 555.98 502.97 575.08 C 504.78 578.25 506.15 581.95 509.24 584.14 C 509.69 584.88 510.17 585.61 510.67 586.33 C 510.91 586.57 511.39 587.05 511.63 587.29 C 512.58 588.35 513.57 589.37 514.61 590.37 C 516.12 591.47 517.60 592.62 519.09 593.78 C 521.08 595.04 523.10 596.35 525.45 596.85 L 525.44 597.39 C 528.08 598.10 530.75 598.70 533.50 598.77 L 533.41 599.37 C 535.13 599.34 536.86 599.34 538.59 599.37 L 538.49 598.76 C 541.22 598.71 543.89 598.09 546.53 597.37 L 546.55 596.82 C 548.89 596.35 550.89 595.00 552.89 593.78 C 554.22 592.78 555.52 591.74 556.80 590.69 C 557.05 590.39 557.55 589.80 557.80 589.51 L 558.56 589.58 L 558.49 588.46 L 559.24 588.56 C 559.56 588.22 560.20 587.55 560.52 587.21 L 560.46 586.80 C 562.06 585.13 563.72 583.45 564.70 581.32 L 565.19 581.34 C 565.73 579.84 566.51 578.45 567.45 577.17 L 567.35 576.41 L 568.10 576.33 C 568.84 574.14 569.86 572.07 570.83 569.98 C 571.18 568.81 571.50 567.64 571.79 566.46 L 572.42 566.60 C 572.49 565.94 572.63 564.62 572.70 563.96 C 573.28 562.35 573.74 560.69 574.30 559.08 C 574.43 557.51 574.54 555.94 574.63 554.38 L 575.37 554.63 C 575.79 544.07 576.42 533.37 574.18 522.97 C 573.36 520.51 572.63 518.02 572.22 515.47 L 571.64 515.58 C 571.35 513.10 569.93 510.96 569.32 508.58 L 568.70 508.42 C 568.24 506.44 566.99 504.79 566.23 502.95 C 562.29 497.31 557.93 491.41 551.73 488.17 L 551.59 487.68 C 550.66 487.19 549.75 486.70 548.84 486.21 C 547.75 485.83 546.66 485.49 545.56 485.20 L 545.57 484.73 C 544.68 484.48 542.90 483.99 542.01 483.75 C 538.03 483.22 533.99 483.20 530.02 483.76 C 528.81 484.13 527.60 484.43 526.37 484.67 Z" />
</g>
<g id="#00000067">
<path fill="#000000" opacity="0.40" d=" M 786.82 320.31 C 790.98 325.61 791.31 332.81 792.10 339.25 C 792.39 354.60 792.10 369.95 792.23 385.30 C 814.13 385.24 836.02 385.24 857.92 385.30 C 857.48 376.07 856.13 365.69 861.35 357.53 C 860.19 362.63 858.62 367.70 858.37 372.96 C 858.08 377.52 858.98 382.04 859.26 386.58 C 836.60 386.40 813.95 386.51 791.30 386.52 C 791.02 384.00 790.79 381.47 790.78 378.93 C 790.85 365.58 790.82 352.22 790.82 338.86 C 790.95 332.44 788.69 326.35 786.82 320.31 Z" />
</g>
<g id="#00000060">
<path fill="#000000" opacity="0.38" d=" M 204.67 323.66 C 205.89 322.69 207.43 322.48 208.94 322.52 C 233.62 322.54 258.31 322.53 283.00 322.53 C 286.02 322.62 289.19 321.92 292.06 323.17 C 288.08 323.93 284.01 323.65 279.98 323.68 C 254.88 323.65 229.78 323.70 204.67 323.66 Z" />
</g>
<g id="#00000091">
<path fill="#000000" opacity="0.57" d=" M 618.46 337.90 C 618.96 332.79 619.30 327.21 622.33 322.86 C 620.96 328.84 619.27 334.84 619.44 341.03 C 619.56 361.55 619.30 382.07 619.58 402.59 C 619.23 402.66 618.53 402.80 618.18 402.86 C 618.66 381.22 618.11 359.55 618.46 337.90 Z" />
</g>
<g id="#00000077">
<path fill="#000000" opacity="0.47" d=" M 1080.48 355.62 C 1082.87 359.65 1082.22 364.51 1082.24 368.99 C 1081.89 373.12 1081.72 377.60 1079.41 381.19 C 1079.86 377.82 1080.41 374.47 1080.91 371.12 C 1081.66 365.96 1080.69 360.77 1080.48 355.62 Z" />
</g>
<g id="#0000007b">
<path fill="#000000" opacity="0.48" d=" M 481.39 389.52 C 511.85 378.00 545.91 376.04 577.36 384.66 C 580.66 385.72 584.43 385.92 587.15 388.29 C 579.69 386.66 572.47 384.07 564.89 382.97 C 540.25 378.45 514.52 380.06 490.59 387.46 C 486.64 388.75 482.76 390.22 478.75 391.29 C 479.55 390.59 480.43 390.00 481.39 389.52 Z" />
<path fill="#000000" opacity="0.48" d=" M 1044.30 404.49 C 1044.87 404.27 1046.01 403.84 1046.58 403.63 C 1046.47 404.19 1046.26 405.30 1046.16 405.86 C 1078.83 424.07 1102.12 457.26 1110.48 493.49 C 1112.34 502.21 1114.43 511.02 1113.99 520.00 C 1113.65 531.84 1115.01 543.85 1112.26 555.51 C 1111.04 563.88 1107.93 571.81 1106.42 580.10 C 1105.99 593.05 1106.37 606.04 1106.24 619.00 C 1106.04 629.83 1107.30 641.07 1103.34 651.42 L 1102.99 650.20 C 1104.11 644.84 1105.30 639.45 1105.09 633.94 C 1105.08 617.29 1105.09 600.64 1105.07 583.99 C 1104.90 575.34 1108.96 567.45 1110.34 559.05 C 1112.23 548.47 1114.08 537.77 1113.88 526.99 C 1112.77 498.62 1104.61 470.21 1088.37 446.73 C 1077.27 429.94 1061.94 416.11 1044.34 406.40 C 1044.33 405.92 1044.31 404.96 1044.30 404.49 Z" />
</g>
<g id="#636363ff">
<path fill="#636363" opacity="1.00" d=" M 955.79 480.19 C 958.50 477.33 962.64 476.86 966.28 475.97 C 971.55 475.17 977.38 475.64 982.01 478.47 C 977.39 477.65 972.72 476.79 968.01 477.13 C 963.73 477.16 959.78 478.90 955.79 480.19 Z" />
</g>
<g id="#737373ff">
<path fill="#737373" opacity="1.00" d=" M 500.41 513.16 C 502.02 509.55 503.13 505.46 506.17 502.74 C 504.16 507.55 501.59 512.13 500.09 517.14 C 494.54 535.06 495.26 555.02 502.75 572.28 C 504.49 576.45 507.12 580.16 509.24 584.14 C 506.15 581.95 504.78 578.25 502.97 575.08 C 493.63 555.98 492.94 532.98 500.41 513.16 Z" />
</g>
<g id="#7a7a7aff">
<path fill="#7a7a7a" opacity="1.00" d=" M 1043.15 586.26 C 1046.28 584.86 1049.13 582.78 1052.53 582.02 C 1052.55 599.89 1052.48 617.77 1052.56 635.64 C 1044.88 641.48 1035.48 644.46 1026.32 647.12 C 1013.51 650.47 1000.28 652.24 987.03 652.35 C 972.06 652.96 956.89 651.79 942.58 647.12 C 937.34 645.23 931.79 643.67 927.31 640.24 C 931.43 641.37 935.16 643.53 939.21 644.89 C 954.47 650.31 970.84 652.03 986.96 651.49 C 1007.44 650.47 1028.44 647.69 1046.93 638.24 C 1048.89 637.10 1051.85 635.90 1051.41 633.10 C 1051.37 616.43 1051.38 599.75 1051.39 583.08 C 1034.21 592.80 1014.68 598.01 995.06 599.48 C 981.73 600.15 967.06 599.47 955.98 591.13 C 959.87 592.28 963.27 594.65 967.20 595.74 C 979.73 599.75 993.12 598.84 1005.99 597.20 C 1018.78 595.23 1031.37 591.68 1043.15 586.26 Z" />
</g>
<g id="#00000073">
<path fill="#000000" opacity="0.45" d=" M 368.94 598.05 C 373.53 597.09 377.90 595.19 382.60 594.72 C 378.22 597.09 373.29 598.00 368.51 599.22 C 358.65 601.53 348.61 603.07 338.53 604.09 C 338.47 615.39 338.60 626.70 338.50 638.01 C 338.54 648.28 338.31 658.77 335.15 668.64 C 335.14 668.00 335.12 666.74 335.11 666.10 C 339.12 645.26 336.40 623.87 337.68 602.82 C 348.23 602.28 358.65 600.36 368.94 598.05 Z" />
</g>
<g id="#00000082">
<path fill="#000000" opacity="0.51" d=" M 1055.30 685.29 C 1059.92 683.41 1064.90 682.90 1069.82 682.37 C 1065.36 684.56 1060.19 684.93 1055.30 685.29 Z" />
<path fill="#000000" opacity="0.51" d=" M 1067.22 765.03 C 1066.83 759.11 1065.04 753.43 1064.16 747.59 C 1067.32 753.87 1067.94 761.05 1068.56 767.95 C 1068.85 779.77 1069.29 791.82 1066.29 803.37 C 1065.90 804.54 1065.37 805.65 1064.70 806.69 C 1067.92 793.04 1067.99 778.96 1067.22 765.03 Z" />
</g>
<g id="#00000054">
<path fill="#000000" opacity="0.33" d=" M 589.54 691.12 C 593.19 692.33 596.05 688.86 599.40 688.01 L 599.99 688.15 C 604.89 689.72 610.00 688.21 615.00 688.54 C 621.34 688.86 627.91 689.09 633.77 691.80 C 627.16 691.12 620.66 689.47 613.98 689.62 C 606.96 689.31 600.07 690.73 593.18 691.80 C 591.43 692.06 589.87 692.92 588.41 693.87 C 586.58 692.77 584.82 694.42 583.16 695.00 C 580.09 695.45 577.91 698.17 574.88 698.49 C 568.14 698.44 561.65 700.48 554.98 701.17 C 549.02 702.20 542.88 701.38 536.97 702.81 C 535.80 703.37 535.26 702.08 534.82 701.28 C 547.82 700.89 560.89 699.94 573.52 696.68 C 578.94 695.09 585.04 694.95 589.54 691.12 Z" />
</g>
<g id="#00000034">
<path fill="#000000" opacity="0.20" d=" M 313.96 694.27 C 314.77 693.73 315.37 692.42 316.45 692.54 C 321.57 693.44 326.77 693.56 331.96 693.38 C 380.30 693.39 428.64 693.33 476.98 693.41 C 479.50 693.30 481.98 692.77 484.47 692.38 C 486.66 692.58 488.69 693.73 490.84 694.26 C 442.22 694.61 393.59 694.31 344.97 694.41 C 334.64 694.32 324.29 694.60 313.96 694.27 Z" />
</g>
<g id="#000000c3">
<path fill="#000000" opacity="0.76" d=" M 639.28 692.18 C 641.64 692.25 643.38 693.92 645.09 695.35 C 642.80 696.14 640.17 695.60 638.82 693.47 C 639.40 693.57 640.54 693.77 641.11 693.87 C 640.65 693.45 639.74 692.60 639.28 692.18 Z" />
</g>
<g id="#000000c6">
<path fill="#000000" opacity="0.78" d=" M 647.75 697.20 C 651.44 697.61 655.35 698.05 658.38 700.42 C 656.97 700.37 655.57 700.35 654.17 700.37 C 654.76 700.74 655.94 701.48 656.54 701.85 C 653.19 701.21 650.29 699.37 647.75 697.20 Z" />
</g>
<g id="#0000007d">
<path fill="#000000" opacity="0.49" d=" M 198.40 699.70 C 202.84 700.10 207.30 700.60 211.60 701.86 C 210.67 702.19 209.75 702.53 208.83 702.88 C 205.57 701.03 201.50 701.91 198.40 699.70 Z" />
</g>
<g id="#737004ff">
<path fill="#737004" opacity="1.00" d=" M 970.70 741.06 C 976.90 738.45 983.93 736.79 990.60 738.49 C 995.16 739.50 1000.13 740.62 1003.46 744.15 C 993.93 738.67 982.39 737.72 971.99 741.16 L 970.70 741.06 Z" />
</g>
<g id="#f5ed07ff">
<path fill="#f5ed07" opacity="1.00" d=" M 582.71 756.51 C 590.38 741.67 609.66 734.46 625.17 740.73 C 633.90 744.27 641.25 751.29 644.80 760.05 C 645.15 761.03 645.51 762.01 645.89 763.01 C 647.86 769.48 647.42 776.30 647.43 782.97 C 647.38 787.12 646.59 791.25 645.30 795.20 C 642.38 802.71 637.02 809.16 630.08 813.29 C 626.90 815.02 623.45 816.14 620.03 817.29 C 615.35 817.84 610.62 817.83 605.94 817.32 C 604.32 816.76 602.70 816.28 601.08 815.76 C 592.62 812.70 585.71 806.10 581.67 798.13 C 580.37 795.18 579.61 792.06 578.70 789.00 C 578.73 778.12 576.80 766.32 582.71 756.51 Z" />
<path fill="#f5ed07" opacity="1.00" d=" M 971.99 741.16 C 982.39 737.72 993.93 738.67 1003.46 744.15 C 1008.98 747.73 1013.40 752.96 1016.30 758.86 C 1020.09 768.04 1019.93 778.32 1018.86 787.99 C 1018.48 790.69 1017.96 793.40 1016.86 795.92 C 1014.03 803.14 1008.71 809.21 1002.10 813.24 C 998.88 814.93 995.47 816.17 992.02 817.29 C 985.99 817.93 979.77 818.09 973.95 816.18 C 964.46 812.85 956.61 805.41 952.72 796.15 C 951.24 791.94 950.19 787.54 950.41 783.05 C 950.62 776.04 949.62 768.79 952.10 762.05 C 955.38 752.72 962.58 744.54 971.99 741.16 Z" />
<path fill="#f5ed07" opacity="1.00" d=" M 236.97 744.46 C 241.21 743.15 245.69 743.63 250.06 743.57 C 333.05 743.56 416.03 743.59 499.02 743.55 C 507.25 743.11 515.49 746.10 521.86 751.28 C 528.64 756.59 532.56 764.70 534.30 772.99 C 534.81 823.98 534.31 874.99 534.50 925.99 C 534.65 929.70 533.91 933.37 532.86 936.92 C 532.21 938.60 531.54 940.28 530.81 941.94 C 526.42 951.08 517.67 957.59 508.01 960.30 C 502.70 960.92 497.32 960.91 492.02 960.29 C 482.68 957.60 474.17 951.45 469.72 942.68 C 467.44 938.87 466.61 934.48 465.67 930.21 C 465.41 892.81 465.68 855.41 465.53 818.01 C 465.60 816.58 465.21 814.81 466.56 813.87 C 465.96 813.55 464.75 812.91 464.15 812.59 C 443.58 812.66 423.01 812.67 402.44 812.59 C 402.15 852.73 402.54 892.88 402.24 933.03 C 401.38 936.64 401.37 940.44 399.84 943.89 C 396.51 952.55 389.55 959.48 381.16 963.32 C 374.17 966.21 366.36 966.21 359.01 964.97 C 357.98 964.61 356.96 964.26 355.94 963.93 C 354.99 963.53 354.05 963.14 353.11 962.76 C 344.94 958.75 338.18 951.58 335.17 942.94 C 334.61 941.31 334.14 939.65 333.65 938.03 C 332.98 896.77 333.68 855.47 333.29 814.21 C 333.14 813.78 332.83 812.91 332.67 812.47 C 314.98 812.83 297.28 812.57 279.59 812.61 C 279.40 851.06 279.58 889.51 279.50 927.96 C 279.43 931.04 278.82 934.09 277.89 937.03 C 277.52 937.98 277.16 938.95 276.80 939.93 C 272.62 949.99 263.42 957.42 253.01 960.30 C 247.69 960.91 242.32 960.92 237.00 960.29 C 226.98 957.51 218.28 950.51 213.73 941.12 C 212.55 938.17 211.55 935.15 211.11 932.00 C 210.72 930.69 210.53 929.35 210.53 928.01 C 210.53 877.67 210.52 827.33 210.53 776.99 C 210.54 774.24 211.32 771.60 211.74 768.92 C 212.19 767.61 212.63 766.31 213.09 765.02 C 217.23 754.92 226.30 746.93 236.97 744.46 Z" />
<path fill="#f5ed07" opacity="1.00" d=" M 726.14 746.23 C 728.63 745.00 731.42 744.69 734.01 743.72 C 778.36 743.35 822.72 743.70 867.08 743.55 C 881.27 743.62 894.50 753.75 898.82 767.19 C 901.07 773.22 900.48 779.73 900.54 786.03 C 900.54 829.70 900.54 873.36 900.54 917.03 C 900.46 923.40 901.02 929.88 899.31 936.10 C 898.80 937.37 898.33 938.67 897.82 939.95 C 893.64 950.02 884.42 957.42 874.02 960.32 C 868.70 960.90 863.32 960.92 858.01 960.28 C 848.33 957.53 839.67 950.96 835.25 941.83 C 833.39 938.46 832.72 934.67 831.77 931.01 C 831.41 891.54 831.88 852.06 831.53 812.59 C 812.50 812.65 793.46 812.69 774.43 812.57 C 774.18 843.37 774.39 874.17 774.32 904.96 C 773.88 916.97 775.98 929.64 770.92 940.98 C 767.61 947.99 761.99 953.72 755.17 957.38 C 745.47 962.06 733.56 962.10 723.89 957.31 C 714.82 952.56 708.33 943.84 705.70 934.01 C 704.86 922.37 705.51 910.67 705.31 899.00 C 705.31 860.98 705.31 822.97 705.31 784.95 C 705.32 780.26 705.15 775.56 705.66 770.89 C 708.25 760.10 715.81 750.52 726.14 746.23 Z" />
<path fill="#f5ed07" opacity="1.00" d=" M 952.09 851.09 C 956.16 838.87 967.27 829.73 979.94 827.71 C 985.75 827.12 991.66 827.68 997.16 829.73 C 1005.49 833.16 1012.36 839.78 1016.27 847.88 C 1017.51 851.14 1018.56 854.49 1018.88 857.99 C 1019.38 859.95 1019.44 861.99 1019.42 864.02 C 1019.27 887.68 1019.59 911.35 1019.26 935.02 C 1018.68 936.64 1018.42 938.35 1018.28 940.08 C 1017.81 941.37 1017.36 942.68 1016.89 943.98 C 1013.57 952.64 1006.59 959.56 998.19 963.34 C 991.82 966.03 984.78 966.07 978.02 965.32 C 966.69 963.16 957.11 954.72 952.70 944.18 C 951.19 939.96 950.19 935.52 950.41 931.01 C 950.63 905.98 950.05 880.93 950.71 855.92 L 951.18 855.22 C 951.43 853.81 951.73 852.45 952.09 851.09 Z" />
<path fill="#f5ed07" opacity="1.00" d=" M 602.10 829.22 C 604.04 828.66 606.00 828.20 607.95 827.71 C 612.68 827.30 617.44 827.47 622.06 828.67 C 635.62 832.48 645.89 844.98 647.27 858.96 C 647.64 882.96 647.32 906.98 647.43 930.99 C 647.50 942.50 641.58 953.85 631.93 960.18 C 623.04 966.37 611.16 967.21 601.04 963.91 C 592.26 960.54 584.84 953.61 581.16 944.93 C 580.66 943.65 580.19 942.35 579.75 941.07 C 579.47 939.70 579.12 938.33 578.71 937.02 C 578.29 922.01 578.64 906.99 578.53 891.98 C 578.63 880.30 578.30 868.61 578.71 856.94 C 579.39 854.56 579.98 852.16 580.63 849.79 C 584.46 840.26 592.29 832.45 602.10 829.22 Z" />
</g>
<g id="#000000a8">
<path fill="#000000" opacity="0.66" d=" M 161.18 777.97 C 161.37 771.15 161.52 763.98 164.36 757.66 C 163.58 764.75 162.34 771.82 162.49 778.98 C 162.44 824.99 162.49 871.00 162.47 917.01 C 162.48 924.55 162.33 932.13 163.43 939.61 C 164.25 945.32 166.31 950.76 167.36 956.42 C 166.53 955.01 165.70 953.59 165.25 952.02 C 162.87 943.90 161.06 935.51 161.19 927.00 C 161.15 877.33 161.16 827.65 161.18 777.97 Z" />
</g>
<g id="#0000008a">
<path fill="#000000" opacity="0.54" d=" M 1063.67 835.33 C 1065.84 838.34 1066.20 842.14 1067.08 845.64 C 1069.19 855.30 1068.60 865.23 1068.67 875.04 C 1068.67 894.00 1068.67 912.97 1068.68 931.93 C 1068.31 939.61 1068.20 947.80 1064.71 954.80 C 1065.89 947.56 1067.65 940.37 1067.48 932.99 C 1067.50 908.32 1067.56 883.66 1067.45 858.99 C 1067.53 850.93 1065.30 843.15 1063.67 835.33 Z" />
</g>
<g id="#00000085">
<path fill="#000000" opacity="0.52" d=" M 211.44 1003.08 C 224.70 1007.75 238.81 1011.12 252.94 1009.37 C 260.23 1008.71 267.25 1006.67 274.29 1004.79 C 273.15 1005.95 271.62 1006.53 270.09 1006.99 C 252.38 1012.47 232.79 1012.01 215.45 1005.37 C 214.00 1004.81 212.71 1003.95 211.44 1003.08 Z" />
<path fill="#000000" opacity="0.52" d=" M 862.97 1009.76 C 875.01 1010.37 886.85 1007.44 898.19 1003.67 C 896.16 1005.76 893.16 1006.17 890.55 1007.13 C 879.09 1010.84 866.86 1011.34 854.96 1010.10 C 850.74 1009.22 846.15 1009.13 842.44 1006.72 C 849.27 1007.81 856.02 1009.51 862.97 1009.76 Z" />
</g>
<g id="#00000089">
<path fill="#000000" opacity="0.54" d=" M 715.47 1006.62 C 723.62 1007.93 731.70 1010.01 740.02 1009.82 C 747.88 1009.89 755.54 1007.92 763.26 1006.70 C 759.65 1009.12 755.11 1009.14 750.99 1010.04 C 740.25 1011.17 729.21 1010.98 718.73 1008.15 C 717.58 1007.74 716.50 1007.23 715.47 1006.62 Z" />
</g>
<g id="#00000081">
<path fill="#000000" opacity="0.51" d=" M 984.98 1014.59 C 993.71 1014.83 1002.28 1012.98 1010.68 1010.78 L 1010.96 1011.64 C 997.82 1015.72 983.71 1017.39 970.15 1014.50 C 967.33 1013.71 963.91 1014.05 961.76 1011.79 C 969.42 1013.26 977.12 1014.85 984.98 1014.59 Z" />
</g>
<g id="#00000083">
<path fill="#000000" opacity="0.51" d=" M 344.65 1011.81 C 347.74 1012.31 350.82 1012.91 353.90 1013.51 C 366.11 1015.67 378.61 1014.44 390.66 1011.84 C 388.39 1013.72 385.34 1013.85 382.59 1014.46 C 372.66 1016.48 362.32 1016.41 352.39 1014.37 C 349.75 1013.77 346.78 1013.71 344.65 1011.81 Z" />
</g>
</svg>
