<?xml version="1.0" encoding="UTF-8" ?>
<!DOCTYPE svg PUBLIC "-//W3C//DTD SVG 1.1//EN" "http://www.w3.org/Graphics/SVG/1.1/DTD/svg11.dtd">
<svg width="1276pt" height="1276pt" viewBox="0 0 1276 1276" version="1.1" xmlns="http://www.w3.org/2000/svg">
<g id="#4349a3ff">
<path fill="#4349a3" opacity="1.00" d=" M 1058.32 251.38 C 1074.00 251.28 1090.17 250.18 1105.15 255.82 C 1117.63 260.03 1126.86 270.61 1131.26 282.79 C 1136.23 297.83 1134.79 313.92 1134.68 329.48 C 1134.38 326.69 1133.95 323.92 1133.60 321.14 C 1122.51 320.61 1111.40 321.47 1100.32 320.90 C 1100.38 317.53 1100.40 314.10 1099.33 310.87 C 1098.13 304.24 1098.10 297.22 1095.02 291.04 C 1091.40 283.15 1083.36 278.23 1075.02 276.76 C 1061.70 275.88 1048.36 276.59 1035.03 276.49 C 1023.34 276.41 1011.66 276.67 999.98 276.67 C 993.85 277.59 987.66 277.12 981.49 277.38 C 981.50 269.48 981.43 261.58 981.54 253.68 C 990.36 253.27 999.22 253.64 1008.01 252.67 C 1016.35 252.43 1024.70 252.40 1033.04 252.12 C 1041.42 251.20 1049.90 251.74 1058.32 251.38 Z" />
</g>
<g id="#424ba5ff">
<path fill="#424ba5" opacity="1.00" d=" M 508.51 255.33 C 553.61 263.58 597.84 275.97 641.90 288.53 C 662.66 294.76 683.45 300.91 704.04 307.68 C 727.13 314.89 750.14 322.68 772.22 332.57 C 764.50 333.39 756.74 332.87 749.00 333.03 C 668.84 332.96 588.68 333.07 508.52 333.02 C 508.51 307.12 508.52 281.23 508.51 255.33 Z" />
</g>
<g id="#4051a9ff">
<path fill="#4051a9" opacity="1.00" d=" M 1099.33 310.87 C 1100.40 314.10 1100.38 317.53 1100.32 320.90 C 1111.40 321.47 1122.51 320.61 1133.60 321.14 C 1133.95 323.92 1134.38 326.69 1134.68 329.48 C 1134.89 334.06 1134.04 338.60 1132.99 343.04 C 1130.11 355.01 1121.69 365.75 1110.07 370.24 C 1091.02 378.21 1070.00 374.75 1050.00 374.59 C 1039.68 373.91 1028.65 375.01 1019.75 380.70 C 1013.57 384.66 1010.29 391.86 1010.11 399.06 C 1008.44 419.81 1009.91 440.73 1009.22 461.55 C 1007.61 459.76 1007.85 457.25 1007.78 455.03 C 1007.84 443.42 1007.84 431.80 1007.69 420.19 C 996.90 419.53 986.08 420.68 975.29 419.79 C 975.23 414.13 975.19 408.46 974.78 402.81 C 975.46 395.22 976.20 387.43 979.31 380.38 C 983.52 371.47 990.53 363.81 999.27 359.18 C 1008.35 354.19 1018.69 351.44 1029.07 351.33 C 1045.01 349.33 1061.10 353.22 1077.03 350.72 C 1082.21 350.08 1087.29 347.70 1090.61 343.59 C 1098.39 334.67 1099.57 322.20 1099.33 310.87 Z" />
</g>
<g id="#4051aaff">
<path fill="#4051aa" opacity="1.00" d=" M 508.52 333.02 C 588.68 333.07 668.84 332.96 749.00 333.03 C 756.74 332.87 764.50 333.39 772.22 332.57 L 772.94 332.52 C 801.63 345.37 829.90 360.41 853.10 381.97 C 859.28 388.39 866.08 394.28 871.20 401.65 C 850.13 402.43 829.03 401.78 807.96 402.01 C 782.97 401.91 757.99 402.10 733.01 401.95 C 730.98 401.91 728.99 402.37 727.25 403.42 C 727.12 403.49 726.85 403.62 726.72 403.69 C 721.92 391.77 710.55 383.33 698.02 381.14 C 691.75 379.70 685.16 382.35 680.77 386.84 C 676.22 391.68 673.35 397.87 671.86 404.30 L 671.50 403.18 C 667.94 401.34 663.82 402.16 659.99 402.00 C 609.50 402.06 559.01 402.09 508.52 402.01 C 508.51 379.01 508.52 356.01 508.52 333.02 Z" />
</g>
<g id="#3e59b0ff">
<path fill="#3e59b0" opacity="1.00" d=" M 508.52 402.01 C 559.01 402.09 609.50 402.06 659.99 402.00 C 663.82 402.16 667.94 401.34 671.50 403.18 C 670.37 408.04 669.42 412.97 669.37 417.98 C 669.38 437.67 669.44 457.36 669.33 477.06 C 615.73 476.88 562.12 477.15 508.52 476.97 C 508.50 451.98 508.52 427.00 508.52 402.01 Z" />
</g>
<g id="#3e57afff">
<path fill="#3e57af" opacity="1.00" d=" M 727.25 403.42 C 728.99 402.37 730.98 401.91 733.01 401.95 C 757.99 402.10 782.97 401.91 807.96 402.01 C 829.03 401.78 850.13 402.43 871.20 401.65 L 871.82 401.61 C 877.69 410.42 884.09 418.99 888.69 428.60 C 892.13 435.67 895.71 442.79 897.88 450.37 C 888.25 449.67 878.60 450.21 868.96 450.08 C 824.04 449.88 779.11 450.32 734.21 449.88 C 733.64 443.57 735.17 437.02 732.94 430.94 C 731.90 422.87 731.30 414.52 728.05 406.95 C 727.85 406.07 727.45 404.30 727.25 403.42 Z" />
</g>
<g id="#3d5db3ff">
<path fill="#3d5db3" opacity="1.00" d=" M 973.87 419.95 C 974.62 414.27 974.14 408.50 974.78 402.81 C 975.19 408.46 975.23 414.13 975.29 419.79 C 986.08 420.68 996.90 419.53 1007.69 420.19 C 1007.84 431.80 1007.84 443.42 1007.78 455.03 C 1007.85 457.25 1007.61 459.76 1009.22 461.55 C 1049.59 461.42 1089.95 461.45 1130.31 461.53 C 1130.29 469.79 1130.30 478.05 1130.31 486.31 C 1085.54 486.41 1040.77 486.31 996.00 486.36 C 990.85 486.58 985.29 486.26 981.00 483.07 C 976.11 479.78 973.59 473.82 973.73 468.04 C 973.85 452.01 973.59 435.97 973.87 419.95 Z" />
</g>
<g id="#294580b3">
<path fill="#294580" opacity="0.70" d=" M 671.50 403.18 L 671.86 404.30 C 671.00 409.84 670.25 415.41 669.82 421.01 C 669.85 473.34 669.84 525.66 669.86 577.99 C 669.76 594.69 670.04 611.40 669.69 628.09 C 669.11 616.40 669.53 604.69 669.37 592.99 C 669.38 581.31 669.40 569.62 669.33 557.94 C 669.41 530.98 669.41 504.02 669.33 477.06 C 669.44 457.36 669.38 437.67 669.37 417.98 C 669.42 412.97 670.37 408.04 671.50 403.18 Z" />
</g>
<g id="#3c5fb5ff">
<path fill="#3c5fb5" opacity="1.00" d=" M 732.94 430.94 C 735.17 437.02 733.64 443.57 734.21 449.88 C 779.11 450.32 824.04 449.88 868.96 450.08 C 878.60 450.21 888.25 449.67 897.88 450.37 L 898.22 450.39 C 900.74 458.19 903.09 466.03 904.95 474.02 C 906.64 480.93 907.76 487.97 908.82 495.01 C 909.46 497.98 909.52 501.03 909.87 504.04 C 910.78 506.94 910.37 510.05 911.16 512.99 C 911.06 513.81 910.86 515.45 910.76 516.27 C 910.65 520.44 910.84 524.62 910.75 528.80 C 864.18 529.15 817.59 528.81 771.02 528.96 C 758.75 529.03 746.48 528.71 734.22 529.12 C 733.97 544.73 733.88 560.34 733.97 575.95 C 733.81 593.31 733.59 610.66 733.70 628.02 C 733.43 646.43 733.76 664.85 733.27 683.25 C 732.99 609.19 733.23 535.11 733.17 461.05 C 733.03 451.01 733.47 440.96 732.94 430.94 Z" />
</g>
<g id="#3b63b8ff">
<path fill="#3b63b8" opacity="1.00" d=" M 508.52 476.97 C 562.12 477.15 615.73 476.88 669.33 477.06 C 669.41 504.02 669.41 530.98 669.33 557.94 C 615.73 557.90 562.12 557.89 508.51 557.94 C 508.50 530.95 508.53 503.96 508.52 476.97 Z" />
</g>
<g id="#3a68bcff">
<path fill="#3a68bc" opacity="1.00" d=" M 910.76 516.27 L 911.60 516.33 C 911.51 519.46 911.41 522.63 912.08 525.72 C 913.10 542.64 912.65 559.63 912.38 576.56 C 912.17 576.54 911.75 576.50 911.55 576.48 C 904.05 575.56 896.49 576.14 888.97 575.98 C 837.30 576.01 785.63 576.06 733.97 575.95 C 733.88 560.34 733.97 544.73 734.22 529.12 C 746.48 528.71 758.75 529.03 771.02 528.96 C 817.59 528.81 864.18 529.15 910.75 528.80 C 910.84 524.62 910.65 520.44 910.76 516.27 Z" />
</g>
<g id="#396bbeff">
<path fill="#396bbe" opacity="1.00" d=" M 508.51 557.94 C 562.12 557.89 615.73 557.90 669.33 557.94 C 669.40 569.62 669.38 581.31 669.37 592.99 C 615.75 593.02 562.13 592.94 508.52 593.03 C 508.51 581.34 508.52 569.64 508.51 557.94 Z" />
</g>
<g id="#386fc1ff">
<path fill="#386fc1" opacity="1.00" d=" M 733.97 575.95 C 785.63 576.06 837.30 576.01 888.97 575.98 C 896.49 576.14 904.05 575.56 911.55 576.48 C 911.72 579.96 911.49 583.45 910.79 586.88 C 909.49 598.06 907.40 609.17 904.28 620.00 C 903.91 621.01 903.55 622.03 903.20 623.06 C 902.70 624.50 902.38 625.98 902.13 627.49 C 901.95 627.51 901.61 627.55 901.43 627.58 C 892.33 628.73 883.14 627.64 874.00 628.01 C 827.24 627.99 780.47 628.06 733.70 628.02 C 733.59 610.66 733.81 593.31 733.97 575.95 Z" />
</g>
<g id="#3770c2ff">
<path fill="#3770c2" opacity="1.00" d=" M 508.52 593.03 C 562.13 592.94 615.75 593.02 669.37 592.99 C 669.53 604.69 669.11 616.40 669.69 628.09 C 615.96 627.99 562.24 628.13 508.52 628.05 C 508.51 616.37 508.52 604.70 508.52 593.03 Z" />
</g>
<g id="#3578c9ff">
<path fill="#3578c9" opacity="1.00" d=" M 508.52 628.05 C 562.24 628.13 615.96 627.99 669.69 628.09 C 669.70 653.72 669.71 679.34 669.70 704.96 C 616.14 704.93 562.57 704.99 509.00 704.95 C 509.00 689.98 509.00 675.01 509.01 660.05 C 508.10 649.40 508.68 638.71 508.52 628.05 Z" />
</g>
<g id="#3577c8ff">
<path fill="#3577c8" opacity="1.00" d=" M 733.70 628.02 C 780.47 628.06 827.24 627.99 874.00 628.01 C 883.14 627.64 892.33 628.73 901.43 627.58 C 899.34 636.18 894.96 644.02 890.85 651.80 C 881.47 668.11 867.90 682.36 850.95 690.81 C 845.04 694.18 838.49 696.11 832.06 698.18 C 830.72 698.46 829.41 698.76 828.11 699.11 C 812.24 702.59 795.86 701.82 779.93 699.18 C 778.92 698.85 777.91 698.53 776.92 698.23 C 769.77 696.74 762.71 694.81 755.84 692.35 C 748.72 689.90 741.79 686.96 734.97 683.79 C 734.54 683.66 733.69 683.39 733.27 683.25 C 733.76 664.85 733.43 646.43 733.70 628.02 Z" />
</g>
<g id="#3281d0ff">
<path fill="#3281d0" opacity="1.00" d=" M 466.93 690.73 C 470.19 689.36 473.60 688.37 476.90 687.10 C 477.10 708.72 476.95 730.35 477.00 751.97 C 428.00 752.09 379.00 752.04 330.00 752.01 C 318.65 752.23 307.29 751.77 295.94 752.23 L 294.91 752.29 C 299.35 750.91 303.65 749.10 308.05 747.56 C 312.39 746.11 316.73 744.62 320.95 742.83 C 321.47 742.71 322.51 742.46 323.03 742.33 C 324.03 741.88 325.05 741.46 326.08 741.09 C 333.13 738.76 340.06 736.11 347.06 733.65 C 353.04 731.39 359.12 729.38 365.12 727.18 C 379.36 721.89 393.77 717.04 407.97 711.66 C 408.49 711.52 409.54 711.25 410.06 711.11 C 420.25 707.12 430.69 703.77 440.89 699.81 C 441.44 699.66 442.52 699.36 443.06 699.22 C 444.07 698.84 445.10 698.49 446.13 698.16 C 452.94 695.38 460.02 693.27 466.93 690.73 Z" />
</g>
<g id="#3282d1ff">
<path fill="#3282d1" opacity="1.00" d=" M 509.00 704.95 C 562.57 704.99 616.14 704.93 669.70 704.96 C 669.44 713.99 670.32 723.07 669.02 732.04 C 668.96 745.04 669.02 758.04 669.00 771.05 C 615.66 770.99 562.33 771.14 509.00 770.96 C 508.99 748.96 509.02 726.95 509.00 704.95 Z" />
</g>
<g id="#3186d4ff">
<path fill="#3186d4" opacity="1.00" d=" M 846.96 728.79 C 854.69 728.55 862.40 728.24 870.13 728.22 C 876.36 727.00 882.72 727.69 889.02 727.51 C 891.69 727.59 894.50 727.10 897.04 728.21 C 905.02 728.50 913.12 727.98 921.00 729.23 C 932.76 729.81 944.48 731.21 956.14 732.85 C 960.40 733.58 964.80 733.81 968.95 735.14 C 981.75 736.97 994.44 739.72 1007.00 742.85 C 1013.33 744.59 1019.75 746.00 1025.99 748.06 C 1027.33 748.36 1028.74 748.66 1030.06 749.18 C 1036.35 751.15 1042.68 752.97 1048.93 755.09 C 1049.97 755.44 1051.01 755.82 1052.06 756.22 C 1052.58 756.36 1053.63 756.62 1054.15 756.75 C 1071.20 763.15 1088.38 769.88 1103.32 780.48 C 1108.76 784.15 1113.54 788.71 1117.86 793.62 C 1108.94 794.63 1099.97 793.98 1091.02 794.12 C 1061.00 794.14 1030.98 794.14 1000.95 794.13 C 993.32 794.17 985.66 793.81 978.05 794.63 C 969.49 789.97 959.74 787.54 949.95 787.18 C 939.73 785.82 929.29 786.21 919.00 786.60 C 917.00 786.62 914.95 786.48 913.07 787.23 C 899.96 787.67 887.14 790.94 874.65 794.70 C 864.51 793.27 854.27 794.32 844.07 793.98 C 796.38 793.97 748.69 793.94 701.00 794.03 C 701.11 782.35 700.76 770.67 701.19 759.01 C 704.21 758.30 707.10 757.16 710.06 756.25 C 716.58 753.76 723.37 752.14 729.94 749.80 C 730.47 749.67 731.52 749.42 732.05 749.29 C 733.37 748.85 734.69 748.44 736.05 748.06 C 752.86 743.35 769.83 739.07 787.05 736.13 C 789.04 735.67 791.07 735.40 793.11 735.14 C 807.27 732.33 821.69 731.15 836.04 729.72 C 839.67 729.26 843.41 729.81 846.96 728.79 Z" />
</g>
<g id="#3088d6ff">
<path fill="#3088d6" opacity="1.00" d=" M 295.94 752.23 C 307.29 751.77 318.65 752.23 330.00 752.01 C 379.00 752.04 428.00 752.09 477.00 751.97 C 476.93 761.98 477.11 771.99 476.92 782.00 C 473.89 782.76 470.91 783.76 468.09 785.09 C 467.04 785.39 466.01 785.71 464.98 786.05 C 458.40 788.62 451.64 790.72 445.10 793.38 C 444.57 793.50 443.51 793.75 442.98 793.87 C 438.73 795.86 434.20 797.10 429.83 798.77 C 428.82 799.10 427.81 799.42 426.81 799.76 C 425.55 800.25 424.30 800.76 423.06 801.28 C 417.01 803.44 410.96 805.58 404.92 807.78 C 403.87 808.14 402.81 808.50 401.76 808.87 C 394.90 811.43 388.02 813.92 381.11 816.33 C 379.11 817.07 377.14 817.86 375.15 818.61 L 374.82 818.47 C 372.42 817.12 369.66 816.87 366.97 816.92 C 296.24 817.10 225.51 816.85 154.79 817.04 C 168.93 803.08 187.12 794.24 204.86 785.75 C 210.84 783.02 216.91 780.52 223.08 778.28 C 228.42 776.17 233.76 774.08 239.22 772.29 C 240.45 771.78 241.71 771.32 242.94 770.80 C 248.56 768.70 254.34 767.02 259.93 764.83 C 261.00 764.45 262.06 764.10 263.13 763.73 C 269.09 761.46 275.15 759.42 281.20 757.37 C 282.43 756.80 283.68 756.29 284.92 755.73 C 285.47 755.61 286.57 755.36 287.12 755.24 C 290.02 754.13 292.86 752.77 295.94 752.23 Z" />
</g>
<g id="#2f8cd9ff">
<path fill="#2f8cd9" opacity="1.00" d=" M 509.00 770.96 C 562.33 771.14 615.66 770.99 669.00 771.05 C 668.98 797.68 669.01 824.31 669.00 850.95 C 615.67 851.02 562.33 850.88 509.00 851.04 C 508.99 824.34 509.02 797.65 509.00 770.96 Z" />
<path fill="#2f8cd9" opacity="1.00" d=" M 701.00 794.03 C 748.69 793.94 796.38 793.97 844.07 793.98 C 854.27 794.32 864.51 793.27 874.65 794.70 C 870.26 796.92 865.41 797.99 860.86 799.84 C 859.83 800.17 858.81 800.50 857.80 800.83 C 850.62 803.84 843.12 806.01 835.87 808.85 C 831.02 810.81 825.94 812.12 821.13 814.15 C 808.12 818.77 795.10 823.36 782.11 828.07 C 781.07 828.41 780.05 828.77 779.04 829.15 C 778.52 829.30 777.48 829.58 776.96 829.73 C 764.04 834.71 750.85 839.07 737.83 843.81 C 736.81 844.16 735.80 844.51 734.79 844.87 C 728.20 847.31 721.57 849.68 714.92 851.92 C 710.35 853.74 705.69 855.32 701.02 856.87 C 700.97 835.92 701.02 814.97 701.00 794.03 Z" />
</g>
<g id="#2d91ddff">
<path fill="#2d91dd" opacity="1.00" d=" M 978.05 794.63 C 985.66 793.81 993.32 794.17 1000.95 794.13 C 1030.98 794.14 1061.00 794.14 1091.02 794.12 C 1099.97 793.98 1108.94 794.63 1117.86 793.62 L 1118.17 793.59 C 1120.25 796.63 1122.36 799.66 1123.84 803.06 C 1127.83 810.90 1127.87 820.69 1124.99 828.92 C 1124.59 829.90 1124.19 830.89 1123.79 831.89 C 1121.78 836.28 1119.10 840.26 1116.19 844.09 C 1104.82 856.65 1090.32 865.90 1075.19 873.31 C 1058.05 881.59 1039.89 887.50 1022.10 894.20 C 1019.04 895.20 1015.95 896.15 1013.04 897.54 L 1012.69 897.40 C 1011.16 896.80 1009.70 896.02 1008.06 895.94 C 927.37 895.99 846.67 895.92 765.98 895.98 C 763.71 895.89 761.45 895.66 759.20 895.50 C 759.24 895.29 759.33 894.86 759.37 894.65 C 772.27 890.23 785.10 885.59 797.87 880.79 C 798.39 880.65 799.42 880.38 799.93 880.25 C 800.93 879.78 801.96 879.36 803.01 878.98 C 814.36 875.10 825.58 870.83 836.92 866.90 C 846.16 863.27 855.65 860.29 864.91 856.71 C 877.00 852.52 888.97 848.00 901.04 843.76 C 907.04 841.45 913.12 839.36 919.23 837.36 C 920.44 836.80 921.69 836.29 922.92 835.74 C 923.47 835.61 924.57 835.35 925.12 835.22 C 930.72 833.05 936.47 831.26 942.12 829.22 C 943.34 828.69 944.56 828.19 945.80 827.69 C 950.36 826.57 954.59 824.48 959.11 823.28 C 960.37 822.75 961.66 822.25 962.93 821.73 C 968.77 819.39 974.11 815.90 978.97 811.94 C 981.61 809.16 984.35 805.51 983.42 801.44 C 982.57 798.57 979.83 796.87 978.05 794.63 Z" />
</g>
<g id="#2e8fdcff">
<path fill="#2e8fdc" opacity="1.00" d=" M 141.20 849.01 C 138.59 836.82 146.05 824.80 154.79 817.04 C 225.51 816.85 296.24 817.10 366.97 816.92 C 369.66 816.87 372.42 817.12 374.82 818.47 C 372.84 819.27 370.86 820.05 368.85 820.79 C 367.84 821.11 366.82 821.44 365.81 821.77 C 364.55 822.26 363.30 822.76 362.05 823.28 C 356.02 825.53 349.89 827.49 343.87 829.77 C 338.99 831.63 333.99 833.16 329.14 835.10 C 327.15 835.82 325.14 836.48 323.14 837.20 C 312.81 840.78 302.32 844.69 293.71 851.64 C 290.60 854.26 287.54 857.86 287.48 862.14 C 289.25 866.61 293.43 869.36 297.64 871.25 L 296.44 871.42 C 293.99 871.72 291.54 872.04 289.07 872.05 C 249.38 871.88 209.68 872.01 169.99 871.96 C 164.33 871.88 158.65 871.74 153.02 872.42 L 152.12 872.31 C 145.85 866.37 142.35 857.55 141.20 849.01 Z" />
</g>
<g id="#2c95e1ff">
<path fill="#2c95e1" opacity="1.00" d=" M 472.17 842.11 C 473.75 841.48 475.34 840.87 476.92 840.22 C 476.97 868.58 477.19 896.95 476.83 925.30 C 464.91 927.04 452.99 929.01 440.96 929.79 C 437.38 930.86 433.58 930.43 429.90 930.87 C 426.39 932.22 422.40 930.67 419.02 932.27 C 416.31 932.35 413.61 932.25 410.91 932.41 C 403.94 933.11 396.89 932.14 389.97 933.38 C 383.66 933.14 377.20 934.07 371.00 932.84 C 362.62 932.75 354.26 932.47 345.88 932.28 C 342.80 930.59 339.04 932.51 335.96 930.87 C 331.97 930.51 327.88 930.83 323.96 929.87 C 320.97 929.57 317.97 929.36 314.97 929.10 C 306.31 927.66 297.54 926.86 288.92 925.14 C 286.93 924.65 284.90 924.42 282.88 924.16 C 281.02 923.55 279.06 923.31 277.17 922.81 C 275.74 922.57 274.30 922.34 272.87 922.15 C 265.34 920.19 257.60 919.04 250.13 916.83 C 248.78 916.49 247.44 916.21 246.11 915.83 C 239.09 913.82 231.87 912.45 225.04 909.85 C 223.98 909.63 222.93 909.42 221.87 909.24 C 220.89 908.82 219.90 908.43 218.91 908.06 C 213.55 906.63 208.34 904.75 203.15 902.80 C 201.72 902.28 200.30 901.73 198.87 901.23 C 194.50 899.58 190.25 897.65 185.95 895.84 C 173.92 889.91 161.20 883.61 152.73 872.92 L 153.02 872.42 C 158.65 871.74 164.33 871.88 169.99 871.96 C 209.68 872.01 249.38 871.88 289.07 872.05 C 291.54 872.04 293.99 871.72 296.44 871.42 C 299.21 871.30 301.55 873.10 304.10 873.94 C 311.18 876.09 318.54 877.42 325.95 877.73 C 333.54 878.89 341.37 878.12 349.05 878.15 C 350.01 877.78 351.01 877.60 352.04 877.59 C 359.38 877.40 366.66 876.14 373.89 874.91 C 375.28 874.65 376.67 874.41 378.07 874.18 C 381.07 873.47 384.05 872.67 387.10 872.16 C 392.67 870.25 398.61 869.39 403.94 866.81 C 404.49 866.69 405.60 866.43 406.15 866.31 C 407.42 865.71 408.71 865.15 410.00 864.60 C 414.30 863.08 418.63 861.63 422.85 859.89 C 423.85 859.55 424.86 859.21 425.87 858.88 C 426.92 858.45 427.97 858.04 429.03 857.63 C 437.00 854.73 444.95 851.79 452.96 849.03 C 456.56 847.43 460.48 846.68 463.98 844.84 C 464.51 844.73 465.56 844.50 466.09 844.39 C 467.09 843.94 468.10 843.51 469.12 843.10 C 470.12 842.75 471.14 842.42 472.17 842.11 Z" />
</g>
<g id="#2c94e0ff">
<path fill="#2c94e0" opacity="1.00" d=" M 509.00 851.04 C 562.33 850.88 615.67 851.02 669.00 850.95 C 668.99 872.29 669.01 893.64 669.00 914.98 C 615.67 914.99 562.33 915.06 509.00 915.02 C 508.99 893.69 509.01 872.36 509.00 851.04 Z" />
</g>
<g id="#2b99e3ff">
<path fill="#2b99e3" opacity="1.00" d=" M 754.73 896.44 C 756.15 895.92 757.62 895.19 759.20 895.50 C 761.45 895.66 763.71 895.89 765.98 895.98 C 846.67 895.92 927.37 895.99 1008.06 895.94 C 1009.70 896.02 1011.16 896.80 1012.69 897.40 C 1007.81 899.31 1002.82 900.89 997.94 902.78 C 986.63 906.88 975.27 910.83 964.04 915.13 C 963.51 915.25 962.46 915.49 961.93 915.61 C 960.62 916.15 959.33 916.71 958.03 917.26 C 950.98 919.72 943.88 922.08 936.97 924.88 C 932.23 926.46 927.58 928.30 922.79 929.73 C 916.39 932.64 909.53 934.38 903.08 937.14 C 902.55 937.26 901.49 937.51 900.96 937.63 C 899.93 938.05 898.91 938.48 897.90 938.92 C 890.42 941.83 882.66 944.03 875.30 947.24 C 862.40 951.47 849.75 956.44 836.94 960.94 C 835.92 961.26 834.91 961.59 833.91 961.93 C 828.65 964.13 823.19 965.81 817.85 967.80 C 816.91 968.18 815.97 968.57 815.04 968.96 C 810.65 970.56 806.17 971.90 801.85 973.68 C 800.84 974.02 799.84 974.36 798.85 974.71 C 797.84 975.08 796.85 975.46 795.86 975.85 C 789.93 977.98 783.98 980.06 778.08 982.27 C 764.68 987.14 751.29 992.05 737.86 996.84 C 731.35 999.49 724.54 1001.36 718.15 1004.27 C 717.57 1004.39 716.43 1004.63 715.85 1004.76 C 711.01 1006.88 705.85 1008.18 701.09 1010.49 C 700.92 978.89 700.99 947.29 701.05 915.69 C 713.06 911.62 724.94 907.13 736.90 902.89 C 737.90 902.46 738.90 902.04 739.92 901.63 C 740.46 901.51 741.53 901.26 742.06 901.14 C 746.17 899.29 750.53 898.09 754.73 896.44 Z" />
</g>
<g id="#2a9be5ff">
<path fill="#2a9be5" opacity="1.00" d=" M 509.00 915.02 C 562.33 915.06 615.67 914.99 669.00 914.98 C 668.89 950.53 669.22 986.09 668.84 1021.63 C 664.96 1020.15 660.94 1019.11 657.06 1017.66 C 648.94 1015.34 640.98 1012.43 632.84 1010.17 C 626.36 1007.70 619.59 1006.12 613.07 1003.74 C 612.56 1003.62 611.52 1003.37 611.01 1003.24 C 609.96 1002.84 608.93 1002.45 607.90 1002.09 C 602.33 1000.28 596.66 998.76 591.16 996.76 C 590.63 996.63 589.57 996.36 589.05 996.23 C 582.51 993.79 575.70 992.17 569.11 989.89 C 568.11 989.54 567.12 989.19 566.14 988.84 C 558.83 986.43 551.33 984.56 544.18 981.71 C 543.10 981.51 542.03 981.32 540.97 981.14 C 535.89 978.90 530.39 977.86 525.20 975.91 C 524.18 975.51 523.16 975.12 522.16 974.74 C 521.09 974.53 520.03 974.33 518.99 974.14 C 515.79 972.79 512.49 971.70 509.09 971.04 C 508.87 952.37 509.07 933.69 509.00 915.02 Z" />
</g>
</svg>
