<?xml version="1.0" encoding="UTF-8" ?>
<!DOCTYPE svg PUBLIC "-//W3C//DTD SVG 1.1//EN" "http://www.w3.org/Graphics/SVG/1.1/DTD/svg11.dtd">
<svg width="1276pt" height="1276pt" viewBox="0 0 1276 1276" version="1.1" xmlns="http://www.w3.org/2000/svg">
<g id="#ffffffff">
<path fill="#ffffff" opacity="1.00" d=" M 969.00 251.09 C 1005.68 251.10 1042.35 251.09 1079.03 251.10 C 1094.11 251.36 1109.80 254.62 1122.04 263.89 C 1134.53 273.04 1141.92 287.87 1143.95 303.01 C 1146.79 323.38 1142.25 346.27 1126.70 360.73 C 1125.47 361.97 1122.56 363.53 1124.17 365.57 C 1135.97 376.49 1142.05 392.28 1143.99 407.97 C 1144.91 416.07 1145.02 424.31 1144.11 432.41 C 1142.27 446.87 1135.66 460.98 1124.51 470.56 C 1112.63 481.00 1096.58 485.56 1080.99 485.76 C 1043.66 485.78 1006.33 485.76 969.00 485.77 C 968.99 477.44 969.00 469.10 969.00 460.77 C 1000.34 460.76 1031.68 460.78 1063.02 460.76 C 1071.55 460.85 1080.33 457.57 1085.92 450.95 C 1092.72 443.00 1094.75 432.13 1094.63 421.94 C 1094.68 410.50 1093.16 398.32 1086.30 388.79 C 1081.05 381.32 1071.88 377.36 1062.90 377.38 C 1031.60 377.31 1000.30 377.37 969.00 377.35 C 969.00 369.01 969.00 360.66 969.00 352.32 C 1000.32 352.31 1031.64 352.35 1062.96 352.30 C 1071.16 352.24 1079.61 349.41 1085.26 343.26 C 1092.24 335.70 1094.61 325.03 1094.62 314.99 C 1094.78 304.81 1092.65 293.97 1085.83 286.07 C 1080.27 279.50 1071.51 276.36 1063.06 276.36 C 1031.70 276.34 1000.35 276.35 969.00 276.35 C 969.00 267.93 969.00 259.51 969.00 251.09 Z" />
<path fill="#ffffff" opacity="1.00" d=" M 508.49 255.44 C 509.40 255.51 511.23 255.65 512.14 255.72 C 518.95 257.57 526.05 258.29 532.86 260.23 C 534.11 260.36 535.36 260.50 536.62 260.62 L 536.58 261.33 C 538.21 261.43 539.83 261.54 541.47 261.65 L 541.47 262.42 C 542.80 262.50 544.13 262.59 545.46 262.68 L 545.48 263.29 C 552.69 264.49 559.88 266.21 566.90 268.30 C 568.07 268.44 569.26 268.57 570.45 268.69 L 570.46 269.43 C 571.78 269.50 573.11 269.59 574.45 269.67 L 574.48 270.38 C 575.65 270.50 576.84 270.64 578.03 270.80 C 581.84 272.19 585.90 272.74 589.72 274.13 C 590.83 274.33 591.96 274.54 593.10 274.76 C 594.06 275.06 595.04 275.36 596.03 275.65 C 597.30 276.29 598.69 276.52 600.10 276.72 C 601.68 277.22 603.29 277.67 604.83 278.29 C 605.93 278.49 607.04 278.69 608.16 278.91 C 613.00 280.62 618.13 281.42 622.94 283.24 C 623.96 283.41 625.00 283.58 626.05 283.76 C 627.02 284.22 628.04 284.59 629.11 284.87 C 630.39 285.32 631.70 285.63 633.04 285.97 C 637.66 287.47 642.47 288.42 646.99 290.25 C 648.16 290.42 649.35 290.59 650.54 290.73 L 650.48 291.38 C 651.12 291.47 652.41 291.65 653.05 291.75 C 654.29 292.26 655.59 292.63 656.90 293.01 C 660.14 294.21 663.55 294.86 666.81 296.03 C 667.90 296.31 668.98 296.68 670.03 297.15 C 671.20 297.36 672.39 297.55 673.59 297.72 L 673.47 298.35 C 674.13 298.43 675.45 298.58 676.11 298.66 C 677.08 299.10 678.07 299.50 679.07 299.88 C 682.43 300.63 685.60 302.06 688.98 302.73 C 690.32 303.16 691.70 303.57 692.98 304.21 C 693.53 304.33 694.61 304.57 695.16 304.69 C 696.65 305.36 698.25 305.74 699.81 306.25 C 700.81 306.58 701.81 306.95 702.81 307.34 C 703.37 307.48 704.49 307.75 705.05 307.89 C 708.23 309.33 711.71 309.90 714.96 311.15 C 715.51 311.29 716.61 311.56 717.15 311.70 C 718.12 312.11 719.12 312.47 720.14 312.80 C 721.13 313.15 722.13 313.50 723.15 313.83 C 727.76 315.53 732.54 316.78 737.11 318.66 C 738.38 319.13 739.70 319.57 740.98 320.09 C 746.33 321.96 751.65 323.94 756.89 326.10 C 758.28 326.66 759.68 327.23 761.12 327.73 C 765.30 329.72 769.77 331.04 773.92 333.13 C 775.63 333.78 777.31 334.55 778.98 335.34 C 782.72 337.16 786.62 338.66 790.30 340.63 C 794.49 342.83 798.73 344.94 802.99 347.00 C 804.68 347.92 806.28 349.02 808.03 349.86 C 812.02 352.15 816.01 354.43 819.96 356.80 C 824.90 360.32 830.12 363.44 835.00 367.05 C 837.20 368.81 839.56 370.37 841.67 372.25 C 850.71 378.87 858.19 387.25 866.14 395.08 C 871.18 401.59 876.72 407.83 880.79 415.04 C 883.69 419.03 886.01 423.44 888.32 427.80 C 890.87 432.75 893.08 437.84 895.32 442.93 C 898.18 450.61 901.26 458.36 902.77 466.43 L 903.41 466.44 C 903.48 467.78 903.56 469.12 903.66 470.47 L 904.37 470.48 C 904.48 471.67 904.63 472.86 904.82 474.06 C 905.48 475.61 905.68 477.30 906.01 478.96 C 907.21 484.25 908.02 489.63 908.77 495.00 C 909.59 498.09 909.59 501.34 909.68 504.52 L 910.42 504.58 C 910.39 507.26 910.55 509.94 910.75 512.62 L 912.26 512.73 L 910.96 513.69 L 910.46 515.75 L 911.44 515.41 C 911.71 518.81 911.22 522.28 912.10 525.62 C 912.97 542.38 912.84 559.23 912.27 576.01 C 910.85 579.30 911.77 583.08 911.27 586.57 L 910.64 586.45 C 910.50 588.78 910.39 591.11 910.31 593.45 L 909.65 593.42 C 909.56 595.29 909.38 597.16 909.16 599.03 C 908.53 601.00 908.35 603.07 908.06 605.11 C 906.78 609.30 906.20 613.67 904.85 617.84 C 904.58 618.89 904.29 619.94 903.98 620.99 C 903.61 621.98 903.24 622.98 902.87 623.98 C 901.27 629.45 899.17 634.77 896.94 640.01 C 896.67 640.51 896.15 641.52 895.88 642.02 C 893.68 646.43 891.60 650.92 888.91 655.07 C 882.11 665.94 873.54 675.72 863.18 683.35 C 859.02 686.31 854.70 689.01 850.12 691.27 C 844.54 694.13 838.60 696.41 832.48 697.78 L 832.51 698.37 C 831.15 698.45 829.80 698.54 828.46 698.64 L 828.54 699.31 C 826.39 699.50 824.15 699.42 822.14 700.31 C 819.42 700.54 816.69 700.75 813.98 700.95 C 808.10 701.78 801.92 701.80 796.05 700.93 C 792.97 700.77 789.92 700.51 786.85 700.30 C 784.64 699.45 782.24 699.45 779.93 699.23 C 778.63 698.73 777.32 698.32 776.05 697.83 C 774.66 697.63 773.27 697.43 771.90 697.25 C 766.24 695.58 760.51 694.14 754.99 692.03 C 753.27 691.43 751.58 690.77 749.86 690.25 C 748.20 689.51 746.57 688.77 744.88 688.17 C 741.83 687.03 738.98 685.45 735.95 684.29 C 735.04 683.89 734.13 683.51 733.24 683.15 C 733.07 602.44 733.21 521.73 733.17 441.02 C 733.37 435.36 732.69 429.72 732.07 424.11 C 731.53 420.37 731.33 416.51 729.83 412.99 C 729.66 411.93 729.50 410.88 729.36 409.83 C 728.76 408.58 728.25 407.30 727.75 406.02 C 726.04 401.76 723.93 397.51 720.73 394.18 C 718.65 390.71 715.03 388.52 711.72 386.36 C 710.85 385.84 710.00 385.31 709.17 384.75 C 707.71 384.26 706.30 383.64 704.89 383.04 C 702.35 382.07 699.69 381.53 697.08 380.83 C 695.34 380.79 693.62 380.79 691.91 380.80 C 683.79 382.23 678.15 388.78 674.58 395.75 C 671.41 403.46 670.39 411.76 669.70 419.98 C 669.64 522.77 669.82 625.56 669.62 728.35 C 669.11 729.50 668.90 730.71 668.98 731.98 C 669.02 819.97 668.99 907.96 669.00 995.95 C 668.78 1004.63 669.45 1013.36 668.62 1022.02 C 668.27 1021.70 667.58 1021.07 667.24 1020.75 C 663.72 1020.08 660.32 1018.89 657.02 1017.53 C 656.52 1017.47 655.50 1017.34 655.00 1017.28 C 653.94 1016.80 652.86 1016.40 651.77 1016.08 C 648.56 1014.80 645.21 1014.01 641.93 1012.99 C 638.94 1012.08 636.07 1010.77 633.00 1010.17 C 631.99 1009.68 630.94 1009.34 629.86 1009.14 C 626.67 1007.72 623.17 1007.29 619.96 1005.98 C 617.86 1005.26 615.76 1004.52 613.58 1004.16 L 613.53 1003.75 C 612.32 1003.60 611.19 1003.25 610.13 1002.71 C 609.57 1002.59 608.44 1002.33 607.88 1002.21 C 606.00 1001.32 604.01 1000.70 601.99 1000.34 C 600.63 999.87 599.28 999.44 597.95 998.99 C 596.90 998.64 595.87 998.28 594.85 997.94 C 593.57 997.61 592.32 997.30 591.10 996.87 C 590.09 996.53 589.10 996.14 588.15 995.71 C 587.59 995.59 586.49 995.35 585.93 995.23 C 581.38 993.62 576.71 992.27 572.08 990.88 C 571.07 990.54 570.06 990.19 569.07 989.85 C 568.08 989.52 567.10 989.16 566.14 988.79 C 565.13 988.48 564.12 988.17 563.13 987.85 C 560.04 987.07 557.01 986.05 554.02 984.96 C 552.71 984.60 551.41 984.30 550.12 983.95 C 549.10 983.56 548.08 983.20 547.07 982.85 C 546.05 982.53 545.07 982.14 544.12 981.69 C 543.06 981.50 542.00 981.34 540.95 981.19 C 536.86 979.25 532.41 978.30 528.13 976.93 C 527.10 976.56 526.08 976.21 525.07 975.87 C 524.05 975.53 523.07 975.14 522.12 974.70 C 521.07 974.52 520.04 974.34 519.01 974.18 C 518.00 973.73 516.98 973.34 515.94 973.03 C 513.72 972.12 511.44 971.42 509.07 971.08 C 508.90 882.71 509.05 794.34 509.00 705.96 C 508.80 687.31 509.48 668.61 508.50 649.99 C 508.52 518.48 508.53 386.96 508.49 255.44 Z" />
<path fill="#ffffff" opacity="1.00" d=" M 471.18 689.13 C 473.10 688.44 475.03 687.79 476.95 687.10 C 477.02 718.74 477.06 750.38 476.93 782.02 C 474.17 782.65 471.51 783.59 468.92 784.72 C 467.91 785.08 466.89 785.42 465.88 785.76 C 464.84 786.15 463.80 786.50 462.75 786.81 C 457.96 788.87 452.91 790.23 448.10 792.24 C 446.40 792.86 444.70 793.49 442.95 793.95 C 438.72 795.85 434.23 797.06 429.92 798.75 C 428.89 799.10 427.85 799.44 426.82 799.75 C 425.56 800.28 424.29 800.78 423.04 801.33 C 421.37 801.91 419.70 802.50 418.01 803.03 C 414.71 804.49 411.16 805.25 407.88 806.75 C 406.88 807.09 405.88 807.43 404.88 807.77 C 403.84 808.17 402.78 808.53 401.70 808.84 C 396.94 810.91 391.88 812.22 387.10 814.27 C 385.40 814.88 383.70 815.49 381.96 815.98 C 377.71 817.84 373.23 819.06 368.93 820.76 C 367.90 821.12 366.87 821.46 365.83 821.76 C 364.58 822.27 363.32 822.77 362.08 823.33 C 357.00 825.05 351.99 826.95 346.88 828.61 C 344.89 829.46 342.89 830.30 340.78 830.80 C 339.58 831.29 338.37 831.76 337.18 832.27 C 334.48 833.15 331.74 833.91 329.16 835.10 C 328.13 835.45 327.11 835.82 326.09 836.20 C 325.08 836.50 324.09 836.85 323.12 837.25 C 318.37 839.03 313.48 840.47 308.88 842.64 C 307.00 843.46 305.14 844.34 303.34 845.34 C 300.28 847.23 296.96 848.77 294.31 851.27 C 291.08 853.17 289.29 856.59 287.56 859.77 C 287.55 860.67 287.55 861.59 287.55 862.52 L 288.27 862.52 C 288.37 863.14 288.58 864.38 288.68 864.99 C 292.10 868.59 296.45 871.00 301.09 872.69 C 302.03 873.11 302.99 873.50 303.97 873.87 C 311.42 876.46 319.35 877.02 327.05 878.16 C 334.37 878.35 341.71 878.35 349.03 878.17 C 357.24 876.98 365.75 876.71 373.93 874.86 C 375.29 874.63 376.66 874.41 378.04 874.21 C 381.04 873.49 384.01 872.60 387.08 872.22 C 392.61 870.17 398.63 869.48 403.90 866.77 C 404.47 866.66 405.60 866.44 406.17 866.33 C 407.37 865.71 408.62 865.18 409.86 864.64 C 411.57 864.13 413.23 863.48 414.87 862.79 C 417.59 861.97 420.26 861.02 422.85 859.86 C 423.88 859.54 424.91 859.21 425.94 858.87 C 426.93 858.46 427.92 858.05 428.91 857.65 C 430.34 857.16 431.75 856.60 433.17 856.07 C 435.06 855.42 436.96 854.80 438.78 853.98 C 441.83 853.04 444.93 852.19 447.77 850.69 C 448.79 850.41 449.80 850.09 450.80 849.73 C 451.88 849.37 452.96 848.98 454.03 848.57 C 457.03 847.44 460.14 846.59 463.10 845.33 C 464.39 844.83 465.71 844.38 466.97 843.79 C 467.50 843.66 468.54 843.39 469.07 843.26 C 470.33 842.60 471.68 842.13 473.05 841.73 C 474.36 841.25 475.66 840.74 476.96 840.23 C 476.94 868.60 477.20 896.98 476.83 925.34 C 474.90 925.54 472.96 925.69 471.12 926.31 C 464.04 927.02 457.00 928.21 449.97 929.09 C 446.82 929.43 443.67 929.73 440.51 929.66 L 440.47 930.38 C 434.92 930.05 429.50 931.70 423.96 931.53 C 422.29 931.60 420.46 931.24 419.01 932.29 C 410.36 932.41 401.72 932.77 393.07 932.82 C 389.51 933.99 385.69 933.17 382.02 933.40 C 378.36 933.15 374.52 934.03 370.99 932.80 C 362.47 932.87 353.96 932.26 345.44 932.40 L 345.38 931.55 C 342.28 931.26 338.88 932.28 335.98 930.86 C 331.98 930.43 327.84 930.94 323.96 929.81 C 320.96 929.61 317.98 929.32 314.98 929.14 C 308.33 927.99 301.59 927.18 294.89 926.30 C 292.96 925.70 290.95 925.50 288.96 925.23 C 286.87 924.39 284.60 924.44 282.39 924.32 L 282.48 923.58 C 280.85 923.50 279.22 923.42 277.60 923.38 L 277.62 922.66 C 276.03 922.56 274.45 922.38 272.88 922.23 C 271.31 921.56 269.63 921.27 267.96 921.00 C 261.85 919.89 255.90 918.04 249.77 917.06 C 250.63 916.96 251.49 916.87 252.36 916.79 C 250.42 916.64 248.48 916.45 246.55 916.30 L 246.55 915.60 C 245.36 915.47 244.18 915.33 243.00 915.18 C 241.74 914.53 240.32 914.33 238.96 914.06 C 235.37 912.79 231.62 912.10 228.00 910.97 C 226.99 910.60 226.00 910.21 225.02 909.80 C 223.98 909.61 222.95 909.44 221.92 909.29 C 220.95 908.83 219.95 908.43 218.94 908.11 C 213.58 906.58 208.30 904.78 203.12 902.75 C 201.71 902.25 200.32 901.72 198.92 901.25 C 197.65 900.69 196.37 900.22 195.09 899.74 C 192.34 898.68 189.72 897.31 186.95 896.32 C 185.94 895.88 184.94 895.40 183.99 894.86 C 178.98 892.24 173.70 890.04 169.09 886.71 C 160.73 881.80 153.37 875.10 147.74 867.20 C 146.68 865.06 145.41 863.03 144.34 860.91 C 141.12 852.32 138.96 842.62 142.60 833.80 C 143.39 832.19 144.12 830.56 144.87 828.94 C 150.41 819.91 158.48 812.92 166.97 806.75 C 170.89 804.11 174.87 801.57 178.88 799.09 C 183.81 796.20 188.89 793.55 194.02 791.05 C 197.59 789.17 201.24 787.45 204.85 785.68 C 210.85 783.08 216.87 780.52 223.01 778.26 C 223.99 777.74 225.02 777.39 226.12 777.21 C 229.52 775.25 233.53 774.75 236.93 772.84 C 237.50 772.73 238.63 772.49 239.20 772.38 C 240.43 771.82 241.69 771.32 242.91 770.74 C 247.45 768.94 252.32 768.00 256.70 765.82 C 257.28 765.69 258.43 765.42 259.01 765.29 C 260.28 764.76 261.56 764.27 262.84 763.76 C 266.20 762.40 269.69 761.40 273.11 760.18 C 275.74 759.15 278.42 758.24 281.11 757.37 C 282.35 756.79 283.60 756.25 284.84 755.68 C 285.41 755.57 286.56 755.36 287.13 755.25 C 291.87 753.04 297.07 752.05 301.75 749.74 C 302.80 749.46 303.84 749.15 304.87 748.81 C 305.87 748.45 306.84 748.04 307.79 747.57 C 308.21 747.46 309.07 747.25 309.49 747.14 C 313.31 745.71 317.22 744.49 320.96 742.84 C 321.49 742.73 322.55 742.51 323.08 742.40 C 324.01 741.84 325.00 741.41 326.05 741.10 C 327.06 740.75 328.08 740.42 329.11 740.10 C 333.03 738.63 337.01 737.32 340.93 735.83 C 341.92 735.50 342.90 735.12 343.87 734.71 C 344.91 734.40 345.94 734.07 346.96 733.72 C 350.95 732.08 355.08 730.80 359.13 729.31 C 360.14 728.93 361.17 728.59 362.21 728.28 C 363.17 727.88 364.14 727.53 365.13 727.20 C 366.08 726.81 367.04 726.44 368.01 726.08 C 371.97 724.74 375.87 723.21 379.85 721.92 C 381.24 721.35 382.64 720.80 384.06 720.32 C 386.04 719.51 388.08 718.89 390.10 718.18 C 393.97 716.61 398.05 715.58 401.86 713.83 C 402.91 713.57 403.94 713.21 404.93 712.76 C 405.44 712.60 406.47 712.29 406.98 712.14 C 407.99 711.72 409.01 711.35 410.05 711.02 C 414.40 709.38 418.78 707.84 423.16 706.32 C 424.69 705.70 426.25 705.15 427.82 704.61 C 430.92 703.40 434.04 702.25 437.24 701.31 C 438.45 700.79 439.68 700.31 440.88 699.74 C 441.45 699.63 442.60 699.42 443.17 699.31 C 444.43 698.72 445.74 698.24 447.05 697.74 C 450.35 696.37 453.77 695.33 457.16 694.21 C 459.32 693.29 461.58 692.59 463.78 691.77 C 464.94 691.50 466.04 691.08 467.09 690.49 C 467.29 690.47 467.70 690.44 467.91 690.42 C 468.92 689.80 470.01 689.37 471.18 689.13 Z" />
<path fill="#ffffff" opacity="1.00" d=" M 846.97 728.75 C 855.46 728.62 863.93 728.03 872.44 728.33 L 872.49 727.54 C 880.05 727.52 887.63 727.43 895.19 727.56 C 895.66 727.73 896.60 728.05 897.07 728.21 C 904.71 728.19 912.33 728.52 919.97 728.77 C 929.85 730.17 940.00 730.37 949.90 732.02 C 956.26 732.93 962.77 733.44 968.96 735.18 C 972.73 735.33 976.36 736.41 980.09 736.92 C 986.69 738.43 993.47 739.22 999.91 741.33 C 1000.81 741.39 1002.60 741.50 1003.50 741.55 C 1003.49 741.76 1003.47 742.17 1003.46 742.38 C 1004.77 742.44 1006.10 742.51 1007.44 742.58 L 1007.13 743.24 C 1008.50 743.38 1009.87 743.57 1011.26 743.79 C 1016.07 745.58 1021.25 746.16 1025.99 748.17 C 1027.01 748.33 1028.06 748.50 1029.12 748.68 C 1035.56 751.29 1042.47 752.54 1048.89 755.23 C 1049.46 755.36 1050.60 755.60 1051.17 755.73 C 1052.11 756.14 1053.08 756.52 1054.08 756.86 C 1055.09 757.19 1056.11 757.52 1057.16 757.84 C 1062.12 759.85 1067.15 761.71 1072.14 763.69 C 1073.74 764.53 1075.41 765.27 1077.13 765.89 C 1079.91 767.66 1083.20 768.34 1085.98 770.13 C 1087.39 770.63 1088.70 771.39 1089.82 772.44 C 1093.81 774.05 1097.40 776.45 1100.97 778.83 C 1102.54 779.98 1104.17 781.08 1105.79 782.21 C 1113.62 788.40 1121.03 795.60 1124.89 805.00 C 1127.48 812.60 1127.92 821.32 1124.94 828.87 C 1124.59 829.91 1124.20 830.93 1123.79 831.96 C 1122.17 834.84 1120.91 837.97 1118.75 840.53 C 1117.84 841.66 1116.99 842.85 1116.24 844.10 C 1112.38 847.92 1108.65 851.86 1104.44 855.30 C 1103.28 856.13 1102.10 856.93 1100.95 857.76 C 1097.21 860.77 1093.09 863.28 1089.02 865.83 C 1084.16 868.82 1079.04 871.36 1073.93 873.89 C 1069.75 876.18 1065.18 877.64 1060.87 879.67 C 1059.89 880.07 1058.92 880.48 1057.97 880.90 C 1056.96 881.29 1055.94 881.65 1054.93 881.98 C 1052.37 883.14 1049.63 883.86 1047.09 885.05 C 1046.02 885.33 1044.99 885.66 1043.98 886.05 C 1041.66 887.12 1039.24 887.95 1036.85 888.83 C 1032.95 890.31 1029.01 891.66 1025.07 893.01 C 1024.00 893.32 1022.99 893.75 1022.03 894.29 C 1021.50 894.41 1020.45 894.64 1019.92 894.76 C 1018.93 895.24 1017.90 895.60 1016.84 895.84 C 1011.04 898.48 1004.77 899.94 998.96 902.55 C 998.75 902.57 998.32 902.61 998.11 902.63 C 994.23 904.47 990.00 905.45 986.04 907.08 C 984.98 907.33 983.96 907.67 982.98 908.09 C 980.42 909.32 977.68 910.11 974.99 910.95 C 971.47 912.62 967.64 913.49 964.08 915.08 C 963.03 915.36 962.01 915.72 961.03 916.16 C 960.51 916.32 959.47 916.64 958.95 916.80 C 957.94 917.22 956.91 917.58 955.88 917.90 C 949.97 920.30 943.81 922.03 937.94 924.53 C 937.74 924.56 937.32 924.61 937.12 924.64 C 936.10 925.22 935.02 925.64 933.89 925.90 C 930.93 926.94 927.99 928.02 925.06 929.10 C 923.98 929.32 922.96 929.66 921.98 930.12 C 915.79 932.71 909.31 934.55 903.10 937.09 C 902.04 937.36 901.01 937.73 900.03 938.18 C 899.52 938.34 898.49 938.66 897.97 938.82 C 896.95 939.23 895.92 939.59 894.89 939.90 C 891.66 941.38 888.26 942.42 884.90 943.51 C 882.34 944.77 879.48 945.24 876.94 946.54 C 876.74 946.57 876.32 946.63 876.11 946.66 C 875.10 947.25 874.03 947.67 872.90 947.92 C 869.94 948.94 867.03 950.06 864.07 951.05 C 862.67 951.61 861.27 952.15 859.86 952.63 C 857.90 953.42 855.91 954.09 853.92 954.78 C 849.97 956.23 846.02 957.66 842.08 959.09 C 840.95 959.29 839.93 959.71 839.01 960.36 C 838.50 960.47 837.46 960.68 836.94 960.79 C 832.61 962.49 828.28 964.19 823.86 965.63 C 821.89 966.41 819.87 967.08 817.86 967.73 C 816.90 968.13 815.94 968.54 815.00 968.96 C 813.92 969.30 812.85 969.62 811.79 969.94 C 808.62 971.53 805.08 972.10 801.90 973.65 C 800.88 974.04 799.84 974.39 798.80 974.70 C 797.83 975.08 796.86 975.45 795.89 975.81 C 795.14 976.10 793.64 976.67 792.88 976.96 C 789.91 977.85 787.04 979.05 784.10 980.03 C 783.13 980.40 782.17 980.80 781.23 981.22 C 780.18 981.50 779.15 981.86 778.16 982.28 C 776.70 982.78 775.27 983.34 773.83 983.88 C 771.19 984.79 768.55 985.69 765.95 986.68 C 763.66 987.41 761.37 988.13 759.25 989.28 C 758.19 989.51 757.15 989.83 756.16 990.25 C 755.11 990.57 754.08 990.95 753.08 991.39 C 749.71 992.51 746.37 993.73 743.05 995.02 C 741.96 995.30 740.94 995.72 739.98 996.28 C 739.47 996.40 738.44 996.63 737.93 996.75 C 736.92 997.20 735.89 997.56 734.84 997.85 C 732.02 999.24 728.96 999.99 726.07 1001.19 C 723.66 1002.03 721.22 1002.79 718.88 1003.80 C 717.89 1004.18 716.89 1004.53 715.89 1004.84 C 714.83 1005.22 713.77 1005.58 712.71 1005.92 C 709.10 1007.83 704.65 1008.00 701.54 1010.82 C 700.83 1008.25 700.97 1005.59 700.99 1002.98 C 701.05 973.84 700.93 944.71 701.05 915.57 C 701.61 915.45 702.74 915.22 703.31 915.11 C 704.26 914.70 705.23 914.34 706.22 914.03 C 709.39 912.47 712.94 911.90 716.11 910.34 C 717.10 909.92 718.13 909.57 719.19 909.32 C 721.15 908.53 723.14 907.81 725.12 907.08 C 727.85 906.20 730.55 905.26 733.23 904.21 C 734.45 903.77 735.68 903.32 736.92 902.87 C 737.93 902.46 738.94 902.04 739.96 901.61 C 740.48 901.50 741.52 901.30 742.04 901.20 C 743.28 900.57 744.57 900.07 745.88 899.56 C 748.54 898.63 751.24 897.78 753.88 896.76 C 756.29 895.90 758.70 895.03 761.13 894.23 C 762.07 893.82 763.03 893.43 764.00 893.06 C 767.90 891.77 771.73 890.29 775.62 888.98 C 777.08 888.37 778.58 887.81 780.11 887.34 C 784.68 885.52 789.42 884.15 793.96 882.25 C 795.29 881.79 796.61 881.33 797.95 880.87 C 799.02 880.61 800.02 880.19 800.96 879.60 C 801.49 879.50 802.54 879.28 803.07 879.17 C 807.36 877.39 811.73 875.79 816.18 874.44 C 818.98 872.99 822.15 872.46 824.99 871.10 C 827.85 869.86 830.97 869.34 833.74 867.88 C 834.81 867.60 835.87 867.27 836.92 866.88 C 838.29 866.31 839.67 865.77 841.09 865.30 C 843.33 864.42 845.66 863.76 847.87 862.80 C 850.56 861.89 853.32 861.14 855.91 859.95 C 856.91 859.58 857.92 859.22 858.94 858.87 C 859.93 858.56 860.91 858.21 861.89 857.84 C 866.51 856.12 871.17 854.52 875.81 852.86 C 877.25 852.33 878.69 851.79 880.16 851.32 C 881.69 850.67 883.26 850.13 884.84 849.59 C 889.16 847.95 893.56 846.50 897.86 844.81 C 898.87 844.55 899.87 844.21 900.85 843.80 C 906.89 841.53 912.99 839.42 919.12 837.37 C 920.34 836.78 921.58 836.24 922.84 835.69 C 923.39 835.58 924.51 835.36 925.06 835.25 C 927.28 834.28 929.63 833.65 931.87 832.71 C 935.33 831.63 938.74 830.36 942.20 829.27 C 943.40 828.70 944.63 828.18 945.85 827.62 C 946.42 827.50 947.57 827.27 948.14 827.16 C 950.96 825.90 954.01 825.21 956.78 823.80 C 957.34 823.69 958.47 823.47 959.03 823.37 C 960.30 822.76 961.58 822.18 962.89 821.62 C 968.38 819.71 973.20 816.31 977.84 812.88 C 979.67 811.64 980.73 809.66 982.15 808.02 C 983.79 805.26 984.18 801.64 982.25 798.92 C 980.45 797.38 979.03 795.36 976.85 794.33 C 975.97 793.72 975.10 793.13 974.23 792.56 C 972.72 792.24 971.34 791.56 969.96 790.96 C 966.16 789.45 962.14 788.73 958.17 787.90 C 955.43 787.65 952.70 787.38 949.96 787.24 C 941.45 785.88 932.62 786.29 923.98 786.38 C 920.37 787.03 916.51 785.89 913.08 787.30 C 902.00 787.46 891.17 790.18 880.47 792.79 L 880.55 793.20 C 878.57 793.53 876.67 794.16 874.80 794.83 C 871.04 796.69 866.76 797.21 863.10 799.25 C 862.55 799.37 861.44 799.60 860.89 799.72 C 859.91 800.22 858.89 800.58 857.82 800.81 C 852.04 803.48 845.75 804.90 839.94 807.49 C 839.73 807.51 839.31 807.55 839.10 807.58 C 838.12 808.22 837.05 808.64 835.88 808.82 C 831.07 810.87 825.92 812.03 821.17 814.21 C 820.15 814.50 819.15 814.84 818.18 815.23 C 817.13 815.56 816.11 815.91 815.10 816.30 C 811.08 817.86 806.89 818.94 802.93 820.65 C 801.92 821.02 800.90 821.36 799.88 821.68 C 797.89 822.42 795.89 823.10 793.91 823.82 C 790.01 825.32 785.98 826.47 782.13 828.12 C 781.07 828.41 780.04 828.78 779.04 829.21 C 778.51 829.33 777.46 829.58 776.94 829.70 C 776.00 830.29 774.99 830.72 773.91 830.98 C 769.97 832.33 766.04 833.70 762.14 835.16 C 761.11 835.48 760.11 835.84 759.12 836.24 C 753.77 838.24 748.31 839.94 743.02 842.08 C 742.49 842.20 741.44 842.44 740.92 842.56 C 739.90 842.98 738.89 843.40 737.89 843.82 C 736.90 844.18 735.91 844.52 734.92 844.84 C 733.89 845.20 732.86 845.57 731.85 845.95 C 729.00 847.17 726.01 848.01 723.08 848.99 C 722.10 849.37 721.14 849.80 720.20 850.26 C 719.65 850.40 718.54 850.66 717.98 850.80 C 716.99 851.25 715.97 851.62 714.92 851.89 C 713.66 852.39 712.39 852.86 711.16 853.39 C 707.77 854.54 704.41 855.78 701.00 856.86 C 701.14 824.24 700.71 791.59 701.22 758.98 C 702.47 758.67 703.73 758.32 704.98 757.95 C 705.97 757.59 706.96 757.24 707.96 756.90 C 708.97 756.58 709.96 756.19 710.94 755.74 C 711.49 755.62 712.60 755.37 713.16 755.25 C 718.48 753.26 723.98 751.67 729.47 750.20 L 729.51 749.63 C 730.26 749.59 731.76 749.51 732.52 749.48 L 732.43 748.74 C 733.62 748.59 734.82 748.42 736.03 748.24 C 745.05 745.33 754.30 743.00 763.57 741.15 L 763.22 740.64 C 764.53 740.54 765.84 740.38 767.16 740.21 C 771.97 738.67 777.05 738.20 781.94 736.94 C 783.62 736.70 785.31 736.48 787.00 736.19 C 789.10 735.44 791.36 735.40 793.58 735.31 L 793.46 734.67 C 795.34 734.60 797.26 734.55 799.05 733.86 C 801.69 733.49 804.41 733.55 806.98 732.76 C 809.36 732.58 811.74 732.35 814.11 731.99 C 822.16 730.89 830.30 730.28 838.40 729.56 C 841.24 729.17 844.23 729.81 846.97 728.75 Z" />
</g>
</svg>
