<?xml version="1.0" encoding="UTF-8" ?>
<!DOCTYPE svg PUBLIC "-//W3C//DTD SVG 1.1//EN" "http://www.w3.org/Graphics/SVG/1.1/DTD/svg11.dtd">
<svg width="1276pt" height="1276pt" viewBox="0 0 1276 1276" version="1.1" xmlns="http://www.w3.org/2000/svg">
<g id="#c1ac6dff">
<path fill="#c1ac6d" opacity="1.00" d=" M 1007.62 342.58 C 1026.72 312.70 1045.80 282.81 1064.90 252.93 C 1083.02 252.95 1101.13 252.93 1119.25 252.94 C 1119.25 302.67 1119.25 352.39 1119.25 402.12 C 1128.56 402.13 1137.87 402.12 1147.19 402.12 C 1147.19 412.44 1147.19 422.75 1147.19 433.06 C 1137.87 433.06 1128.56 433.06 1119.25 433.06 C 1119.25 450.37 1119.25 467.69 1119.25 485.00 C 1106.71 485.00 1094.17 485.00 1081.63 485.00 C 1081.63 467.69 1081.62 450.38 1081.63 433.07 C 1045.67 433.05 1009.71 433.07 973.75 433.06 C 973.84 420.63 973.58 408.19 973.87 395.77 C 984.78 377.85 996.43 360.34 1007.62 342.58 M 1008.82 402.12 C 1033.09 402.12 1057.36 402.13 1081.63 402.12 C 1081.53 363.19 1081.80 324.26 1081.49 285.35 C 1057.01 324.10 1033.08 363.22 1008.82 402.12 Z" />
<path fill="#c1ac6d" opacity="1.00" d=" M 508.50 255.42 C 509.41 255.50 511.24 255.68 512.15 255.77 C 522.04 258.04 532.09 259.65 541.92 262.20 C 543.24 262.51 544.56 262.82 545.90 263.16 C 554.28 265.02 562.64 266.95 570.93 269.19 C 572.25 269.50 573.59 269.82 574.91 270.18 C 581.28 271.77 587.62 273.48 593.99 275.08 C 603.59 277.98 613.36 280.24 622.95 283.17 C 625.02 283.63 627.07 284.24 629.11 284.83 C 635.02 286.72 641.07 288.13 646.97 290.08 C 649.02 290.68 651.08 291.30 653.16 291.84 C 658.72 293.81 664.48 295.12 670.05 297.07 C 671.07 297.32 672.10 297.56 673.14 297.80 C 679.65 300.25 686.45 301.82 692.99 304.18 C 693.52 304.32 694.59 304.60 695.12 304.74 C 698.39 305.86 701.71 306.87 704.99 307.98 C 708.99 309.40 713.11 310.44 717.15 311.76 C 719.34 312.61 721.58 313.36 723.91 313.82 L 723.25 314.07 C 728.22 315.52 733.26 316.92 737.94 319.15 C 738.47 319.27 739.53 319.50 740.06 319.61 C 745.63 321.87 751.35 323.77 756.90 326.08 C 758.30 326.66 759.71 327.26 761.14 327.83 C 762.08 328.21 763.02 328.59 763.98 328.97 C 767.31 330.31 770.66 331.59 773.92 333.09 C 775.98 334.02 778.05 334.94 780.13 335.84 C 800.65 345.19 820.57 356.07 838.57 369.72 C 854.85 382.42 869.76 397.27 880.74 414.85 C 883.75 419.41 886.58 424.10 888.88 429.06 C 892.14 435.04 894.53 441.43 897.24 447.66 C 899.30 454.06 901.54 460.42 903.23 466.94 C 903.38 467.69 903.68 469.18 903.83 469.93 C 906.29 478.11 907.49 486.60 908.82 495.02 C 909.47 497.99 909.52 501.06 909.86 504.08 C 910.82 506.75 910.44 509.67 910.70 512.46 L 911.26 512.53 C 911.66 524.02 912.93 535.44 912.70 546.96 C 912.83 556.65 912.59 566.32 912.22 576.00 C 911.02 578.99 911.70 582.32 911.32 585.46 L 910.72 585.55 C 910.74 590.11 909.63 594.54 909.10 599.04 C 907.60 607.15 905.85 615.23 903.27 623.07 C 901.44 628.51 899.54 633.93 897.32 639.22 C 887.64 660.95 871.84 680.72 850.11 691.25 C 844.43 694.36 838.19 696.19 832.07 698.17 C 830.72 698.46 829.39 698.76 828.08 699.13 C 826.09 699.45 824.09 699.72 822.15 700.27 C 808.09 702.41 793.85 701.41 779.88 699.17 C 776.32 697.87 772.56 697.35 768.92 696.37 C 757.55 693.39 746.55 689.14 735.90 684.20 C 735.01 683.84 734.13 683.49 733.25 683.15 C 733.06 604.46 733.22 525.76 733.17 447.06 C 733.29 433.29 732.85 419.06 727.78 406.07 C 724.52 397.50 718.57 389.77 710.34 385.50 C 706.21 383.21 701.65 381.91 697.08 380.84 C 695.34 380.80 693.62 380.79 691.90 380.78 C 681.67 382.77 675.13 392.31 672.55 401.79 C 670.66 407.68 670.45 413.87 669.72 419.96 C 669.62 522.75 669.85 625.55 669.60 728.34 C 669.15 729.52 668.95 730.75 668.98 732.02 C 669.02 804.34 668.99 876.67 669.00 949.00 C 668.89 973.21 669.22 997.42 668.83 1021.63 C 655.94 1017.17 642.85 1013.29 629.87 1009.11 C 624.29 1007.22 618.60 1005.73 613.07 1003.71 C 612.56 1003.59 611.54 1003.37 611.02 1003.25 C 609.89 1002.81 608.76 1002.40 607.64 1002.00 C 603.70 1000.66 599.66 999.67 595.74 998.29 C 586.90 995.38 577.98 992.75 569.15 989.85 C 568.13 989.49 567.13 989.14 566.14 988.79 C 565.12 988.47 564.11 988.16 563.11 987.86 C 556.75 985.88 550.30 984.13 544.09 981.72 C 543.33 981.59 541.81 981.31 541.05 981.18 C 534.93 978.54 528.31 977.35 522.16 974.80 C 520.77 974.45 519.40 974.11 518.05 973.73 C 515.12 972.61 512.15 971.63 509.08 971.03 C 508.87 867.03 509.09 763.01 508.98 659.01 C 508.29 652.69 508.55 646.35 508.52 640.01 C 508.51 511.81 508.54 383.61 508.50 255.42 Z" />
<path fill="#c1ac6d" opacity="1.00" d=" M 466.91 690.67 C 470.18 689.30 473.62 688.37 476.93 687.11 C 477.04 718.74 477.06 750.37 476.92 782.00 C 473.89 782.79 470.86 783.68 468.10 785.19 C 467.56 785.30 466.49 785.54 465.96 785.66 C 464.89 786.06 463.82 786.47 462.76 786.87 C 451.83 790.89 440.85 794.80 429.90 798.77 C 422.58 801.43 415.23 804.03 407.92 806.73 C 406.92 807.07 405.93 807.41 404.94 807.76 C 403.88 808.13 402.82 808.50 401.76 808.87 C 390.86 812.92 379.89 816.80 368.95 820.76 C 366.65 821.56 364.33 822.32 362.10 823.30 C 356.03 825.50 349.90 827.50 343.86 829.79 C 338.98 831.62 334.01 833.18 329.15 835.08 C 327.16 835.81 325.16 836.50 323.17 837.24 C 318.11 839.08 312.93 840.65 308.08 843.03 C 300.16 846.90 291.31 851.22 287.56 859.75 C 287.56 860.55 287.57 861.36 287.58 862.19 C 288.64 864.99 290.73 867.25 293.23 868.87 C 301.87 874.13 311.93 876.48 321.91 877.46 C 323.63 877.58 325.41 877.53 327.06 878.12 C 334.38 878.38 341.72 878.37 349.04 878.13 C 349.98 877.80 350.96 877.62 351.96 877.60 C 359.32 877.41 366.61 876.11 373.87 874.92 C 375.26 874.65 376.65 874.41 378.06 874.18 C 381.05 873.47 384.02 872.65 387.07 872.19 C 392.64 870.27 398.57 869.37 403.92 866.82 C 404.48 866.70 405.59 866.44 406.14 866.31 C 407.36 865.74 408.59 865.20 409.82 864.66 C 415.21 862.82 420.53 860.82 425.86 858.84 C 426.87 858.45 427.89 858.06 428.91 857.68 C 433.25 856.01 437.68 854.55 442.02 852.86 C 442.57 852.73 443.69 852.46 444.24 852.33 C 450.57 849.24 457.57 847.82 463.95 844.85 C 464.47 844.74 465.50 844.51 466.02 844.39 C 467.05 843.95 468.09 843.52 469.13 843.11 C 471.73 842.16 474.37 841.29 476.93 840.22 C 477.03 868.57 477.08 896.91 476.90 925.26 C 464.97 927.06 453.02 928.99 440.97 929.79 C 438.09 930.86 434.91 930.01 432.05 931.16 C 429.34 930.61 426.67 931.64 423.97 931.53 C 422.30 931.60 420.50 931.32 419.02 932.26 C 416.09 932.36 413.15 932.23 410.23 932.44 C 403.51 933.07 396.72 932.15 390.05 933.37 C 383.72 933.14 377.23 934.06 371.00 932.83 C 362.64 932.72 354.28 932.49 345.92 932.27 C 342.85 930.64 339.15 932.46 336.08 930.88 C 332.04 930.50 327.92 930.84 323.96 929.85 C 320.97 929.57 317.97 929.35 314.98 929.10 C 306.32 927.67 297.55 926.84 288.93 925.15 C 286.95 924.65 284.92 924.42 282.90 924.18 C 281.00 923.65 279.06 923.32 277.17 922.81 C 275.73 922.57 274.30 922.35 272.88 922.15 C 263.96 920.02 254.93 918.32 246.12 915.76 C 239.36 914.06 232.59 912.40 225.96 910.27 C 224.60 909.85 223.24 909.50 221.88 909.17 C 220.89 908.79 219.90 908.43 218.91 908.09 C 213.56 906.61 208.33 904.76 203.14 902.80 C 201.71 902.27 200.30 901.72 198.87 901.21 C 182.15 894.55 165.01 886.85 152.66 873.31 C 148.78 869.47 146.21 864.59 143.83 859.75 C 142.02 854.35 140.76 848.73 140.57 843.03 C 141.17 833.12 147.08 824.68 153.70 817.71 C 168.79 803.48 187.40 793.74 206.14 785.25 C 211.59 782.50 217.39 780.55 223.00 778.17 C 224.04 777.79 225.08 777.44 226.14 777.11 C 231.59 774.67 237.42 773.19 242.87 770.76 C 249.54 768.47 256.25 766.30 262.86 763.80 C 268.92 761.54 275.05 759.45 281.18 757.36 C 282.43 756.79 283.70 756.26 284.96 755.69 C 285.50 755.58 286.58 755.35 287.12 755.24 C 292.95 752.89 298.95 751.05 304.80 748.78 C 305.84 748.40 306.87 748.01 307.90 747.61 C 314.04 745.60 320.06 743.26 326.14 741.08 C 331.07 739.40 335.97 737.63 340.90 735.93 C 341.88 735.50 342.85 735.07 343.83 734.65 C 344.38 734.53 345.48 734.28 346.02 734.16 C 352.26 731.48 358.80 729.60 365.14 727.18 C 371.37 724.65 377.86 722.82 384.09 720.27 C 390.75 717.97 397.35 715.51 404.01 713.22 C 405.30 712.69 406.59 712.17 407.89 711.67 C 418.95 707.91 429.90 703.84 440.87 699.85 C 442.64 699.28 444.39 698.69 446.17 698.16 C 452.95 695.31 460.05 693.32 466.91 690.67 Z" />
<path fill="#c1ac6d" opacity="1.00" d=" M 846.96 728.78 C 854.31 728.63 861.65 728.14 869.01 728.28 C 877.28 726.98 885.68 727.62 894.03 727.56 C 902.94 729.07 912.12 727.68 921.01 729.22 C 932.78 729.82 944.50 731.16 956.17 732.84 C 960.43 733.55 964.80 733.85 968.95 735.13 C 972.71 735.44 976.40 736.30 980.11 736.98 C 987.78 738.40 995.41 740.04 1003.00 741.83 C 1004.32 742.21 1005.65 742.52 1007.01 742.88 C 1013.35 744.53 1019.73 746.04 1025.98 748.02 C 1027.32 748.36 1028.72 748.71 1030.06 749.18 C 1036.33 751.20 1042.74 752.83 1048.90 755.21 C 1049.44 755.35 1050.50 755.61 1051.04 755.75 C 1056.70 757.75 1062.35 759.81 1067.94 762.04 C 1085.42 769.28 1103.18 777.65 1116.24 791.76 C 1119.52 794.96 1121.94 798.91 1123.84 803.06 C 1128.47 812.31 1127.89 823.93 1123.21 833.09 C 1121.35 837.05 1118.78 840.59 1116.19 844.09 C 1104.80 856.66 1090.30 865.92 1075.16 873.32 C 1066.04 877.79 1056.55 881.49 1047.01 884.98 C 1039.69 887.72 1032.43 890.66 1024.96 892.97 C 1023.96 893.36 1022.99 893.79 1022.03 894.24 C 1021.48 894.37 1020.37 894.63 1019.81 894.76 C 1012.69 897.80 1005.23 899.91 998.06 902.80 C 993.29 904.41 988.62 906.31 983.78 907.68 C 982.71 908.17 981.66 908.68 980.61 909.19 C 975.01 910.94 969.50 912.98 964.05 915.13 C 963.53 915.25 962.48 915.48 961.96 915.60 C 960.62 916.14 959.31 916.69 957.99 917.25 C 950.70 919.90 943.26 922.22 936.13 925.28 C 931.60 926.50 927.32 928.46 922.81 929.72 C 916.41 932.63 909.54 934.35 903.09 937.16 C 902.55 937.27 901.47 937.50 900.93 937.61 C 899.62 938.16 898.34 938.71 897.06 939.26 C 889.78 941.94 882.33 944.22 875.20 947.27 C 864.03 950.81 853.19 955.29 842.09 959.02 C 841.06 959.38 840.03 959.77 839.03 960.19 C 831.94 962.65 824.93 965.35 817.84 967.80 C 816.89 968.18 815.95 968.57 815.02 968.96 C 811.05 970.36 807.06 971.69 803.12 973.14 C 794.82 976.34 786.39 979.13 778.08 982.26 C 765.41 987.00 752.59 991.32 739.99 996.23 C 739.46 996.36 738.40 996.62 737.88 996.75 C 731.40 999.56 724.52 1001.31 718.12 1004.27 C 717.58 1004.38 716.50 1004.61 715.96 1004.73 C 711.08 1006.84 705.88 1008.13 701.12 1010.51 C 700.85 983.00 701.07 955.49 701.00 927.98 C 701.08 923.89 700.76 919.79 701.20 915.72 C 705.71 913.98 710.34 912.54 714.88 910.85 C 722.17 908.07 729.60 905.65 736.89 902.87 C 737.90 902.46 738.92 902.07 739.95 901.69 C 740.93 901.36 741.91 901.03 742.91 900.72 C 748.96 898.45 755.08 896.37 761.17 894.20 C 762.09 893.78 763.02 893.37 763.96 892.98 C 764.98 892.66 766.01 892.36 767.05 892.08 C 778.33 887.87 789.75 884.03 800.95 879.63 C 801.47 879.50 802.51 879.24 803.03 879.11 C 814.00 875.09 824.98 871.09 836.01 867.24 C 837.27 866.73 838.52 866.23 839.79 865.72 C 846.15 863.39 852.66 861.46 858.87 858.75 C 859.40 858.63 860.46 858.41 860.99 858.30 C 874.26 853.23 887.72 848.62 901.07 843.74 C 907.05 841.46 913.10 839.36 919.18 837.35 C 920.40 836.78 921.64 836.23 922.89 835.68 C 923.44 835.57 924.55 835.33 925.10 835.22 C 930.71 833.03 936.48 831.28 942.13 829.19 C 948.01 826.91 954.04 825.02 959.99 822.90 C 966.92 820.43 973.33 816.61 978.98 811.91 C 981.90 808.92 985.02 804.41 982.88 800.14 C 979.58 794.89 973.72 792.10 968.01 790.28 C 962.20 788.28 956.05 787.61 949.96 787.18 C 939.73 785.81 929.29 786.21 918.99 786.60 C 916.99 786.65 914.93 786.43 913.06 787.22 C 901.88 787.72 890.77 789.88 880.08 793.17 C 874.37 795.03 868.62 796.90 863.08 799.22 C 862.54 799.35 861.47 799.61 860.94 799.74 C 853.72 802.65 846.27 804.94 839.02 807.77 C 837.97 808.14 836.90 808.49 835.87 808.86 C 831.02 810.79 825.96 812.12 821.14 814.14 C 807.14 819.20 793.03 823.97 779.10 829.24 C 778.57 829.37 777.50 829.63 776.96 829.76 C 764.01 834.63 750.89 839.14 737.84 843.77 C 732.02 846.14 725.93 847.77 720.16 850.26 C 719.62 850.41 718.54 850.71 717.99 850.86 C 716.96 851.23 715.92 851.59 714.90 851.95 C 710.32 853.72 705.68 855.32 701.03 856.87 C 701.08 824.24 700.78 791.61 701.18 758.99 C 702.42 758.67 703.69 758.36 704.94 758.03 C 705.92 757.62 706.91 757.21 707.90 756.80 C 708.45 756.68 709.55 756.44 710.10 756.32 C 716.54 753.69 723.35 752.14 729.91 749.85 C 731.97 749.28 734.00 748.65 736.07 748.08 C 745.18 745.28 754.51 743.29 763.70 740.79 C 769.77 739.46 775.86 738.22 781.96 736.96 C 783.64 736.70 785.34 736.46 787.03 736.16 C 789.01 735.65 791.04 735.40 793.07 735.15 C 797.65 734.10 802.35 733.69 806.96 732.81 C 817.46 731.54 827.96 730.34 838.51 729.55 C 841.32 729.28 844.22 729.66 846.96 728.78 Z" />
</g>
</svg>
