<?xml version="1.0" encoding="UTF-8" ?>
<!DOCTYPE svg PUBLIC "-//W3C//DTD SVG 1.1//EN" "http://www.w3.org/Graphics/SVG/1.1/DTD/svg11.dtd">
<svg width="1276pt" height="1276pt" viewBox="0 0 1276 1276" version="1.1" xmlns="http://www.w3.org/2000/svg">
<g id="#5587a3ff">
<path fill="#5587a3" opacity="1.00" d=" M 391.78 253.69 C 491.55 230.79 591.38 208.13 691.17 185.31 C 709.12 264.88 727.28 344.41 745.38 423.95 C 706.69 485.55 668.54 547.49 629.97 609.17 C 570.19 571.29 510.60 533.09 450.87 495.13 C 449.26 494.08 447.55 493.17 446.14 491.87 C 427.86 412.52 410.20 333.01 391.78 253.69 M 662.88 226.79 L 662.31 227.14 C 662.21 225.23 658.45 226.52 659.35 228.14 L 658.54 228.28 L 658.04 227.49 L 656.98 227.48 L 656.48 228.25 L 655.73 228.53 C 655.67 228.56 655.54 228.61 655.48 228.64 L 654.45 229.23 C 654.11 229.00 653.43 228.55 653.09 228.33 L 652.54 229.01 L 651.69 229.49 C 651.62 229.53 651.48 229.60 651.41 229.64 L 650.28 230.18 C 650.30 228.13 646.43 229.24 647.32 230.97 L 646.66 231.08 C 644.08 229.92 640.18 230.41 638.55 232.86 C 629.45 235.06 620.28 237.03 611.15 239.10 C 610.52 237.13 605.98 238.12 606.35 240.17 L 605.27 240.15 C 605.15 238.24 601.55 239.46 602.38 241.06 L 601.25 241.06 C 601.11 239.07 597.41 240.42 598.37 242.06 L 597.43 242.25 C 597.08 242.01 596.38 241.53 596.03 241.29 L 595.47 241.94 L 594.98 242.42 C 593.61 241.42 592.51 241.64 591.68 243.06 L 590.98 243.35 C 589.44 242.23 588.51 242.53 588.22 244.25 L 587.25 244.37 C 586.52 242.33 581.87 243.70 582.07 245.70 C 572.77 247.93 563.42 250.00 554.12 252.17 C 553.57 250.08 548.99 251.07 549.36 253.15 L 547.90 253.12 C 546.43 252.26 545.55 252.59 545.28 254.11 L 544.27 254.00 C 544.09 252.10 540.48 253.40 541.37 254.99 L 540.53 255.09 L 539.93 254.36 L 538.88 254.53 L 538.51 255.42 L 537.66 255.55 C 537.58 255.56 537.42 255.59 537.34 255.60 L 536.26 255.82 C 534.40 255.67 532.56 255.98 530.96 256.95 C 525.46 259.09 519.55 259.78 513.87 261.28 C 512.03 261.99 510.14 261.31 508.32 261.27 C 508.60 261.82 509.05 262.27 509.64 262.62 C 505.27 262.85 501.12 264.34 496.80 264.87 C 496.67 264.90 496.43 264.95 496.31 264.97 L 495.61 265.22 L 495.07 264.48 L 494.02 264.53 L 493.55 265.32 L 492.71 265.60 C 492.64 265.63 492.52 265.68 492.46 265.71 L 491.00 266.40 C 489.51 265.24 488.57 265.47 488.19 267.10 L 487.24 266.99 C 487.02 265.18 483.49 266.40 484.34 267.96 L 483.28 267.92 C 483.03 265.46 478.53 266.96 480.12 269.03 L 479.31 269.15 C 478.71 267.49 473.89 267.73 474.29 269.80 C 469.46 271.81 464.21 272.38 459.20 273.74 C 456.61 274.55 453.92 274.25 451.28 274.36 C 451.99 274.70 452.72 275.03 453.46 275.35 C 448.84 275.80 444.41 277.22 439.83 277.89 C 439.71 277.92 439.47 277.97 439.34 278.00 L 438.39 278.27 C 437.40 276.86 436.89 276.98 436.85 278.63 L 435.76 278.74 C 435.64 278.76 435.40 278.79 435.28 278.80 L 434.01 278.99 C 432.84 277.66 429.42 278.74 430.15 280.68 L 430.67 280.76 L 431.15 281.72 C 429.20 281.77 430.33 285.49 432.00 284.69 L 432.03 285.76 C 430.05 285.90 431.38 289.53 432.99 288.57 L 433.12 289.55 L 432.34 290.03 L 432.36 291.00 L 433.14 291.45 C 435.51 297.05 436.04 303.21 437.59 309.05 C 439.72 317.54 441.38 326.14 443.40 334.65 C 441.35 334.59 442.24 338.52 444.03 337.65 L 444.12 338.78 C 442.12 338.85 443.39 342.53 445.04 341.67 L 445.17 342.51 L 444.37 343.01 L 444.40 344.05 L 445.22 344.52 L 445.57 345.09 C 444.93 346.64 444.68 349.13 446.10 350.33 L 446.69 350.16 L 446.99 350.74 C 444.44 350.82 445.74 355.52 447.91 353.93 L 447.95 355.05 C 445.82 354.98 446.87 359.06 448.69 358.00 L 448.94 359.00 C 446.66 359.47 447.74 364.41 450.05 363.63 C 450.42 365.60 450.96 367.52 451.54 369.43 C 453.59 379.97 456.43 390.37 458.67 400.87 C 459.25 403.66 459.23 406.62 460.48 409.23 C 461.13 414.28 462.70 419.18 463.76 424.17 C 464.25 426.28 464.43 428.54 465.58 430.43 C 465.49 432.99 466.26 435.47 466.88 437.93 C 468.55 444.09 469.36 450.47 471.25 456.58 L 471.73 455.74 C 471.64 457.73 471.85 459.72 472.22 461.69 C 474.41 462.77 476.39 464.20 478.36 465.65 L 478.42 466.60 L 479.37 467.12 L 480.19 466.67 C 480.98 467.20 481.80 467.69 482.65 468.16 C 484.06 471.46 487.97 472.67 490.78 474.57 L 491.92 473.89 C 493.30 474.74 494.72 475.53 496.11 476.39 C 496.38 478.95 499.33 479.65 501.12 480.95 L 501.20 479.65 C 501.69 479.91 502.65 480.43 503.14 480.68 C 500.80 481.77 504.83 484.30 505.97 482.58 C 507.29 483.67 508.83 484.45 510.33 485.31 L 510.28 485.73 C 523.84 494.16 537.58 502.27 551.10 510.76 C 555.28 512.61 558.44 516.48 563.00 517.42 C 566.68 521.44 572.03 523.42 576.53 526.38 C 589.64 535.08 603.34 542.83 616.48 551.48 C 617.63 551.63 617.95 550.21 618.62 549.56 C 626.35 537.60 633.90 525.52 641.66 513.58 C 642.76 511.94 644.18 510.38 644.38 508.33 C 645.24 507.53 646.03 506.67 646.75 505.75 C 653.79 494.29 661.35 483.16 668.54 471.80 L 668.49 471.34 C 672.07 467.63 673.42 462.43 676.88 458.64 C 680.92 454.00 683.95 448.47 686.83 443.05 C 688.65 439.71 690.89 436.62 692.88 433.38 C 695.01 434.44 697.24 430.79 695.62 429.16 C 696.35 428.15 697.02 427.10 697.62 426.01 C 699.95 425.01 703.51 421.98 701.96 419.33 C 702.20 418.95 702.68 418.21 702.92 417.84 L 702.77 419.30 C 704.79 417.71 707.24 415.21 706.49 412.41 C 707.41 410.97 708.18 409.44 708.98 407.94 C 708.18 403.88 707.87 399.69 706.30 395.84 C 705.23 388.36 702.77 381.16 701.74 373.67 C 702.65 372.21 702.34 371.43 700.80 371.33 L 700.78 370.26 C 702.64 370.12 701.47 366.57 699.87 367.27 L 699.80 366.05 C 700.00 365.54 700.40 364.52 700.60 364.02 L 699.97 363.08 L 699.19 363.07 L 698.74 361.73 C 700.11 360.59 699.41 354.78 697.32 356.93 C 697.24 356.27 697.08 354.95 697.00 354.29 C 697.21 353.52 697.21 352.77 697.00 352.02 C 695.49 345.26 694.19 338.41 692.06 331.83 L 691.83 331.31 C 693.74 331.20 692.64 327.44 690.97 328.34 L 690.94 327.24 C 692.93 327.16 691.61 323.49 689.99 324.37 L 689.86 323.49 L 690.65 322.98 L 690.66 321.94 L 689.89 321.45 L 689.44 320.94 C 689.91 319.62 690.69 314.60 688.21 315.74 C 688.14 315.15 687.99 313.97 687.92 313.39 C 688.65 310.73 686.68 308.18 686.07 305.66 L 685.67 304.93 C 686.78 303.42 686.54 302.51 684.94 302.19 L 685.04 301.16 C 684.89 297.36 683.94 293.55 682.94 289.88 C 681.48 284.94 681.01 279.74 678.99 274.98 C 678.57 273.38 677.84 271.78 678.12 270.10 C 678.22 269.91 678.42 269.53 678.51 269.34 C 676.42 267.57 676.62 264.60 675.70 262.22 C 678.02 262.39 677.19 257.53 675.14 259.21 L 675.01 257.96 C 677.14 258.12 676.21 254.03 674.39 255.01 L 674.20 253.85 C 674.17 253.72 674.11 253.47 674.08 253.35 L 673.71 252.28 C 675.80 252.31 674.67 248.41 672.92 249.35 L 672.73 248.37 C 674.15 247.38 674.02 246.88 672.35 246.88 C 672.27 246.26 672.10 245.02 672.01 244.40 C 672.14 240.48 670.71 236.55 669.57 232.82 L 669.42 232.13 C 669.33 229.89 669.05 227.65 667.98 225.64 C 666.23 225.76 664.45 225.96 662.88 226.79 Z" />
<path fill="#5587a3" opacity="1.00" d=" M 781.99 443.94 C 861.41 425.57 940.98 407.78 1020.45 389.57 C 1029.02 427.82 1037.88 466.02 1046.54 504.25 C 1047.46 508.95 1049.06 513.55 1049.47 518.32 C 1049.09 519.34 1048.71 520.36 1048.33 521.38 C 1042.08 523.22 1035.49 522.87 1029.18 524.30 C 1025.95 524.97 1022.71 525.56 1019.45 525.95 C 1018.39 521.74 1017.96 517.19 1015.36 513.57 C 1015.22 514.20 1014.95 515.45 1014.82 516.07 C 1014.16 513.30 1013.43 510.56 1012.71 507.82 C 1012.41 506.41 1012.19 504.98 1011.97 503.57 C 1013.24 502.39 1013.18 500.23 1011.37 499.67 C 1011.23 499.13 1010.95 498.07 1010.81 497.54 C 1012.21 496.38 1011.61 494.52 1010.02 493.96 L 1010.16 493.43 C 1011.12 492.23 1010.87 491.67 1009.38 491.76 L 1009.26 490.60 L 1009.40 490.69 C 1009.36 490.60 1009.27 490.40 1009.23 490.31 C 1005.28 475.90 1002.30 461.22 998.98 446.64 C 999.78 445.54 1000.74 442.99 998.85 442.49 L 998.19 442.69 C 998.14 442.16 998.03 441.10 997.97 440.57 C 999.37 439.33 998.62 437.48 997.01 436.96 L 996.84 436.45 C 998.11 435.46 997.97 434.85 996.42 434.64 L 996.36 433.63 L 996.46 433.73 C 996.43 433.64 996.37 433.47 996.34 433.38 L 995.99 432.24 C 995.84 430.81 995.71 429.39 995.62 427.97 C 994.11 428.33 992.65 428.80 991.26 429.45 C 990.82 429.59 989.95 429.87 989.51 430.01 C 988.37 428.62 986.09 429.17 986.11 431.09 L 984.90 431.08 C 983.18 430.38 980.98 430.36 980.05 432.24 C 968.91 435.16 957.62 437.45 946.42 440.07 C 945.56 438.40 942.37 438.57 943.05 440.86 L 942.36 440.65 C 941.07 439.54 938.25 439.62 938.97 441.97 C 938.37 441.96 937.16 441.93 936.56 441.92 C 935.31 440.76 933.01 441.24 933.07 443.17 C 931.61 443.35 930.18 443.63 928.77 443.92 C 928.20 443.97 927.08 444.08 926.51 444.13 C 922.44 445.97 917.93 446.38 913.66 447.54 C 903.62 449.74 893.69 452.41 883.59 454.28 C 882.54 452.74 880.10 453.21 880.07 455.19 C 878.69 455.41 877.32 455.71 875.99 456.08 C 874.82 454.72 872.76 455.09 872.00 456.63 L 871.69 456.92 C 871.11 456.97 869.94 457.07 869.36 457.12 C 868.69 457.43 868.03 457.76 867.39 458.09 C 866.53 456.21 863.33 456.69 864.03 458.99 C 863.38 458.98 862.08 458.94 861.42 458.92 C 860.22 458.19 858.17 458.25 858.08 460.04 L 857.47 459.79 C 856.21 458.76 854.01 459.30 854.12 461.16 C 840.87 463.90 827.80 467.70 814.43 469.79 C 812.50 468.57 811.13 470.64 810.63 472.28 L 810.59 472.85 C 810.52 473.41 810.38 474.53 810.31 475.09 C 808.46 474.50 807.75 476.62 808.15 478.04 C 807.55 479.01 806.97 479.98 806.38 480.95 C 803.88 482.40 802.26 484.71 802.21 487.67 C 797.77 495.36 793.09 502.93 788.17 510.34 C 785.76 510.51 784.03 512.81 785.37 515.09 C 782.28 520.03 779.38 525.10 776.15 529.96 C 775.82 530.48 775.17 531.50 774.84 532.02 C 774.65 532.26 774.26 532.75 774.07 532.99 C 772.43 534.84 771.18 536.99 770.16 539.24 C 768.81 541.82 767.31 544.31 765.83 546.81 C 765.31 547.50 764.80 548.20 764.28 548.89 C 762.86 549.90 761.24 550.74 760.21 552.20 C 756.75 557.13 754.01 562.54 750.60 567.51 C 749.25 569.83 746.35 569.80 744.04 570.23 C 736.96 571.07 730.06 573.01 722.97 573.75 C 714.43 574.42 706.03 576.16 697.70 578.09 C 697.36 578.14 696.68 578.22 696.34 578.26 C 717.40 544.70 738.90 511.42 760.13 477.96 C 767.48 466.66 774.45 455.09 781.99 443.94 Z" />
<path fill="#5587a3" opacity="1.00" d=" M 188.03 576.82 C 267.35 558.48 346.85 540.81 426.18 522.47 C 461.80 544.60 497.40 566.77 533.01 588.91 C 539.11 592.84 545.49 596.36 551.38 600.60 C 541.72 603.38 531.59 604.29 521.64 605.56 C 511.10 607.68 500.44 609.15 489.88 611.12 C 486.80 609.15 483.68 607.25 480.83 604.98 C 480.77 604.66 480.66 604.02 480.60 603.70 C 479.62 602.20 477.90 601.48 476.16 601.53 C 475.88 601.46 475.32 601.33 475.05 601.26 C 474.88 599.53 473.26 598.65 471.67 599.08 C 471.26 598.81 470.45 598.28 470.04 598.01 C 464.21 593.68 458.09 589.67 451.73 586.18 C 451.26 585.96 450.33 585.52 449.86 585.30 C 450.33 583.44 448.22 582.64 446.75 583.10 C 446.49 582.88 445.96 582.45 445.69 582.23 C 445.11 580.02 442.99 578.39 440.71 579.39 C 439.79 578.63 438.86 577.91 437.92 577.22 C 432.30 573.41 426.74 569.37 420.68 566.29 L 419.87 565.94 C 419.81 563.77 417.71 562.77 415.79 563.20 C 413.84 562.12 411.95 560.90 409.86 560.14 C 408.01 560.11 406.18 560.45 404.36 560.68 C 402.46 560.77 400.58 561.11 398.84 561.88 C 393.80 563.85 388.40 564.52 383.18 565.80 C 377.92 566.78 372.80 568.38 367.53 569.28 C 366.71 567.99 366.01 568.07 365.43 569.51 L 364.72 569.60 C 364.60 569.61 364.36 569.64 364.24 569.66 L 363.39 569.79 C 362.00 569.50 360.83 569.87 359.91 570.90 L 359.42 570.73 C 358.20 569.90 356.19 570.23 356.08 571.95 L 355.34 571.69 C 354.08 570.73 351.35 570.57 352.02 572.90 L 351.31 572.67 C 349.42 571.53 347.17 572.05 346.07 574.00 L 345.51 573.91 C 344.44 572.93 343.79 573.16 343.54 574.60 L 342.78 574.70 C 342.67 574.72 342.46 574.76 342.35 574.78 C 330.57 578.13 318.57 580.89 306.50 582.96 C 303.89 583.28 301.28 583.75 298.86 584.82 L 298.38 585.01 C 297.51 583.31 294.42 583.60 294.98 585.85 L 294.42 585.68 C 292.99 584.68 290.89 584.56 290.59 586.71 L 289.83 586.70 C 289.72 586.70 289.51 586.72 289.41 586.72 L 288.82 586.80 C 288.21 586.87 286.99 587.02 286.38 587.09 L 286.20 587.21 C 284.77 586.47 283.00 586.95 282.62 588.64 L 282.23 588.66 C 281.00 587.15 279.07 587.81 278.41 589.47 L 277.74 589.52 C 277.63 589.54 277.41 589.58 277.31 589.60 L 276.59 589.75 C 275.28 588.53 272.77 588.51 272.81 590.80 L 272.46 590.81 C 268.36 591.00 264.28 591.88 260.51 593.50 C 256.61 594.76 252.30 596.72 248.24 594.99 C 248.66 595.59 249.09 596.15 249.53 596.75 C 245.49 597.07 241.58 598.11 237.64 598.98 C 235.83 597.97 232.83 597.44 231.69 599.68 L 231.34 600.01 C 230.19 598.91 229.66 599.13 229.76 600.67 L 228.03 600.63 L 227.83 599.76 C 227.74 601.68 228.07 603.59 228.68 605.42 L 228.99 606.35 C 230.65 611.87 232.22 617.48 232.69 623.24 C 232.71 623.35 232.73 623.56 232.75 623.66 L 232.86 624.38 C 232.04 625.79 232.32 626.37 233.70 626.13 L 233.73 626.82 C 232.22 628.02 232.72 630.18 234.72 630.38 C 236.40 637.18 237.88 644.02 239.41 650.85 C 238.79 652.12 238.16 653.41 237.55 654.70 C 228.23 656.13 218.75 656.64 209.62 659.21 C 209.00 660.60 208.37 662.00 207.73 663.39 C 202.00 639.68 196.82 615.82 191.29 592.06 C 190.32 586.95 188.60 581.98 188.03 576.82 Z" />
</g>
<g id="#628593bc">
<path fill="#628593" opacity="0.74" d=" M 659.35 228.14 C 658.45 226.52 662.21 225.23 662.31 227.14 C 661.42 227.76 660.43 228.09 659.35 228.14 Z" />
</g>
<g id="#5c7d89ab">
<path fill="#5c7d89" opacity="0.67" d=" M 656.98 227.48 L 658.04 227.49 L 658.54 228.28 C 658.03 228.27 657.00 228.26 656.48 228.25 L 656.98 227.48 Z" />
</g>
<g id="#aedce8ff">
<path fill="#aedce8" opacity="1.00" d=" M 662.31 227.14 L 662.88 226.79 C 664.56 226.66 666.47 225.57 668.07 226.56 C 668.63 228.39 668.99 230.27 669.42 232.13 L 669.57 232.82 C 670.36 236.68 671.39 240.50 672.01 244.40 C 672.10 245.02 672.27 246.26 672.35 246.88 C 672.45 247.25 672.64 248.00 672.73 248.37 L 672.92 249.35 C 673.03 250.36 673.29 251.34 673.71 252.28 L 674.08 253.35 L 674.20 253.85 L 674.39 255.01 C 674.52 256.00 674.73 256.99 675.01 257.96 L 675.14 259.21 C 675.18 260.24 675.36 261.24 675.70 262.22 C 676.62 264.60 676.42 267.57 678.51 269.34 C 678.42 269.53 678.22 269.91 678.12 270.10 C 677.84 271.78 678.57 273.38 678.99 274.98 C 681.24 283.65 683.28 292.38 685.04 301.16 L 684.94 302.19 C 684.71 303.21 684.95 304.13 685.67 304.93 L 686.07 305.66 C 686.79 308.21 687.44 310.78 687.92 313.39 C 687.99 313.97 688.14 315.15 688.21 315.74 C 688.27 317.24 688.42 318.76 688.78 320.24 C 688.94 320.41 689.27 320.76 689.44 320.94 L 689.89 321.45 C 689.89 321.96 689.87 322.98 689.86 323.49 L 689.99 324.37 C 689.99 325.44 690.31 326.39 690.94 327.24 L 690.97 328.34 C 690.96 329.40 691.25 330.39 691.83 331.31 L 692.06 331.83 C 692.69 334.40 693.16 337.01 693.62 339.62 C 693.27 339.89 692.57 340.43 692.22 340.70 C 691.68 338.89 691.16 337.09 690.64 335.29 C 675.64 337.06 660.69 339.40 645.62 340.55 C 628.90 342.64 612.22 345.34 595.40 346.45 C 578.38 348.51 561.44 351.37 544.33 352.45 C 528.25 354.88 512.06 356.44 495.98 358.80 C 485.87 359.04 475.94 361.00 465.93 362.16 C 461.40 362.80 456.77 362.92 452.36 364.22 C 452.07 365.95 451.76 367.68 451.54 369.43 C 450.96 367.52 450.42 365.60 450.05 363.63 C 449.78 362.06 449.40 360.51 448.94 359.00 L 448.69 358.00 C 448.48 357.00 448.23 356.02 447.95 355.05 L 447.91 353.93 C 447.99 352.75 447.69 351.69 446.99 350.74 L 446.69 350.16 C 446.66 348.41 446.74 346.52 445.57 345.09 L 445.22 344.52 C 445.21 344.02 445.18 343.01 445.17 342.51 L 445.04 341.67 C 445.02 340.59 444.71 339.63 444.12 338.78 L 444.03 337.65 C 443.97 336.62 443.76 335.62 443.40 334.65 C 441.38 326.14 439.72 317.54 437.59 309.05 C 436.04 303.21 435.51 297.05 433.14 291.45 C 433.14 290.98 433.13 290.02 433.12 289.55 L 432.99 288.57 C 433.01 287.50 432.69 286.56 432.03 285.76 L 432.00 284.69 C 432.01 283.61 431.73 282.63 431.15 281.72 L 430.67 280.76 C 431.76 280.14 432.88 279.54 434.01 278.99 L 435.28 278.80 L 435.76 278.74 L 436.85 278.63 C 437.24 278.54 438.01 278.36 438.39 278.27 L 439.34 278.00 L 439.83 277.89 C 444.41 277.22 448.84 275.80 453.46 275.35 C 452.72 275.03 451.99 274.70 451.28 274.36 C 453.92 274.25 456.61 274.55 459.20 273.74 C 464.21 272.38 469.46 271.81 474.29 269.80 C 475.96 269.65 477.65 269.50 479.31 269.15 L 480.12 269.03 C 481.36 269.12 482.41 268.75 483.28 267.92 L 484.34 267.96 C 485.45 268.09 486.42 267.76 487.24 266.99 L 488.19 267.10 C 489.21 267.29 490.15 267.06 491.00 266.40 L 492.46 265.71 C 492.52 265.68 492.64 265.63 492.71 265.60 L 493.55 265.32 C 494.06 265.30 495.09 265.25 495.61 265.22 L 496.31 264.97 L 496.80 264.87 C 501.12 264.34 505.27 262.85 509.64 262.62 C 509.05 262.27 508.60 261.82 508.32 261.27 C 510.14 261.31 512.03 261.99 513.87 261.28 C 519.55 259.78 525.46 259.09 530.96 256.95 C 532.71 256.51 534.49 256.18 536.26 255.82 L 537.34 255.60 C 537.42 255.59 537.58 255.56 537.66 255.55 L 538.51 255.42 C 539.02 255.33 540.03 255.17 540.53 255.09 L 541.37 254.99 C 542.47 255.01 543.43 254.68 544.27 254.00 L 545.28 254.11 C 546.46 254.43 547.33 254.10 547.90 253.12 L 549.36 253.15 C 551.01 253.31 552.58 252.70 554.12 252.17 C 563.42 250.00 572.77 247.93 582.07 245.70 C 583.83 245.46 585.58 245.03 587.25 244.37 L 588.22 244.25 C 589.24 244.28 590.16 243.98 590.98 243.35 L 591.68 243.06 C 591.93 243.23 592.45 243.59 592.70 243.77 C 593.59 243.55 594.35 243.10 594.98 242.42 L 595.47 241.94 C 595.96 242.02 596.94 242.18 597.43 242.25 L 598.37 242.06 C 599.42 241.98 600.38 241.65 601.25 241.06 L 602.38 241.06 C 603.46 241.15 604.43 240.85 605.27 240.15 L 606.35 240.17 C 608.03 240.35 609.62 239.71 611.15 239.10 C 620.28 237.03 629.45 235.06 638.55 232.86 C 641.26 232.30 643.95 231.65 646.66 231.08 L 647.32 230.97 C 648.35 230.89 649.34 230.63 650.28 230.18 L 651.41 229.64 C 651.48 229.60 651.62 229.53 651.69 229.49 L 652.54 229.01 C 653.02 229.07 653.97 229.17 654.45 229.23 L 655.48 228.64 C 655.54 228.61 655.67 228.56 655.73 228.53 L 656.48 228.25 C 657.00 228.26 658.03 228.27 658.54 228.28 L 659.35 228.14 C 660.43 228.09 661.42 227.76 662.31 227.14 Z" />
<path fill="#aedce8" opacity="1.00" d=" M 991.26 429.45 C 992.45 429.40 993.66 429.35 994.88 429.31 C 995.25 430.28 995.62 431.25 995.99 432.24 L 996.34 433.38 L 996.36 433.63 L 996.42 434.64 C 996.52 435.10 996.73 436.00 996.84 436.45 L 997.01 436.96 C 996.78 438.31 997.11 439.51 997.97 440.57 C 998.03 441.10 998.14 442.16 998.19 442.69 C 998.19 444.05 998.45 445.37 998.98 446.64 C 1002.30 461.22 1005.28 475.90 1009.23 490.31 L 1009.26 490.60 L 1009.38 491.76 C 1009.58 492.18 1009.96 493.01 1010.16 493.43 L 1010.02 493.96 C 1009.65 495.25 1009.91 496.44 1010.81 497.54 C 1010.95 498.07 1011.23 499.13 1011.37 499.67 C 1011.20 501.01 1011.40 502.32 1011.97 503.57 C 1012.19 504.98 1012.41 506.41 1012.71 507.82 C 1011.33 506.68 1010.10 504.62 1008.03 505.08 C 999.97 506.00 992.10 508.05 984.11 509.37 C 969.28 511.09 954.75 514.72 940.00 516.93 C 930.77 517.80 921.78 520.15 912.66 521.66 C 907.19 522.98 901.53 523.09 896.02 524.15 C 886.12 526.03 876.25 528.22 866.23 529.36 C 851.96 531.42 837.98 535.34 823.59 536.57 C 812.75 538.67 801.94 541.08 790.95 542.24 C 783.43 543.29 776.07 545.56 768.45 545.78 C 767.69 546.50 766.95 547.23 766.21 547.97 L 765.83 546.81 C 767.31 544.31 768.81 541.82 770.16 539.24 C 771.42 537.13 772.70 535.03 774.07 532.99 C 774.26 532.75 774.65 532.26 774.84 532.02 C 775.17 531.50 775.82 530.48 776.15 529.96 C 779.38 525.10 782.28 520.03 785.37 515.09 C 786.60 513.69 787.54 512.08 788.17 510.34 C 793.09 502.93 797.77 495.36 802.21 487.67 C 803.72 485.50 805.14 483.27 806.38 480.95 C 806.97 479.98 807.55 479.01 808.15 478.04 C 809.18 477.37 810.36 476.47 810.31 475.09 C 810.38 474.53 810.52 473.41 810.59 472.85 C 812.33 472.59 813.24 470.89 814.43 469.79 C 827.80 467.70 840.87 463.90 854.12 461.16 C 855.45 461.20 856.57 460.74 857.47 459.79 L 858.08 460.04 C 859.41 460.50 860.52 460.13 861.42 458.92 C 862.08 458.94 863.38 458.98 864.03 458.99 C 865.22 459.02 866.34 458.72 867.39 458.09 C 868.03 457.76 868.69 457.43 869.36 457.12 C 869.94 457.07 871.11 456.97 871.69 456.92 L 872.00 456.63 C 873.34 456.93 874.76 456.79 875.99 456.08 C 877.32 455.71 878.69 455.41 880.07 455.19 C 881.29 455.12 882.47 454.82 883.59 454.28 C 893.69 452.41 903.62 449.74 913.66 447.54 C 917.93 446.38 922.44 445.97 926.51 444.13 L 927.11 444.67 C 927.53 444.48 928.36 444.11 928.77 443.92 C 930.18 443.63 931.61 443.35 933.07 443.17 C 934.35 443.13 935.52 442.72 936.56 441.92 C 937.16 441.93 938.37 441.96 938.97 441.97 C 940.32 442.11 941.45 441.67 942.36 440.65 L 943.05 440.86 C 944.22 441.10 945.35 440.83 946.42 440.07 C 957.62 437.45 968.91 435.16 980.05 432.24 C 981.76 432.53 983.49 432.13 984.90 431.08 L 986.11 431.09 C 987.33 431.10 988.47 430.74 989.51 430.01 C 989.95 429.87 990.82 429.59 991.26 429.45 Z" />
<path fill="#aedce8" opacity="1.00" d=" M 404.36 560.68 C 406.18 560.45 408.01 560.11 409.86 560.14 C 411.95 560.90 413.84 562.12 415.79 563.20 C 416.55 564.83 418.12 565.70 419.87 565.94 L 420.68 566.29 C 426.48 569.85 432.06 573.76 437.92 577.22 C 438.86 577.91 439.79 578.63 440.71 579.39 C 442.04 580.84 443.73 581.88 445.69 582.23 C 445.96 582.45 446.49 582.88 446.75 583.10 C 447.41 584.25 448.54 585.04 449.86 585.30 C 450.33 585.52 451.26 585.96 451.73 586.18 C 457.84 590.11 463.94 594.05 470.04 598.01 C 470.45 598.28 471.26 598.81 471.67 599.08 C 472.35 600.34 473.58 601.18 475.05 601.26 C 475.32 601.33 475.88 601.46 476.16 601.53 L 476.34 602.07 C 477.43 603.56 479.16 604.30 480.83 604.98 C 483.68 607.25 486.80 609.15 489.88 611.12 C 492.06 612.62 494.36 613.97 496.84 614.97 C 497.64 615.92 498.41 616.93 499.42 617.71 C 500.02 617.70 501.21 617.68 501.81 617.67 C 502.05 618.05 502.54 618.81 502.79 619.19 C 503.33 620.51 504.73 621.02 506.06 621.17 C 512.69 625.98 519.70 630.26 526.68 634.53 C 527.81 635.70 529.16 636.66 530.73 637.19 C 531.16 637.39 532.03 637.79 532.46 637.99 C 535.30 640.28 538.41 642.18 541.43 644.21 C 534.01 647.23 525.83 647.30 518.13 649.32 C 504.94 650.61 492.08 653.95 478.97 655.80 C 465.57 657.28 452.54 661.03 439.14 662.41 C 424.46 665.03 409.84 668.10 395.04 669.99 C 384.23 671.95 373.51 674.47 362.56 675.56 C 350.93 677.63 339.39 680.28 327.64 681.61 C 317.11 683.32 306.67 685.53 296.16 687.36 C 281.69 688.99 267.55 692.77 253.08 694.36 C 251.05 694.34 251.06 696.94 250.26 698.29 C 249.93 697.20 249.60 696.13 249.25 695.08 L 249.21 694.86 C 248.25 691.20 247.38 687.53 246.63 683.83 C 246.37 682.26 246.11 680.68 245.87 679.13 C 245.72 678.71 245.43 677.88 245.28 677.47 C 243.68 668.52 241.25 659.75 239.41 650.85 C 237.88 644.02 236.40 637.18 234.72 630.38 C 234.64 629.12 234.31 627.93 233.73 626.82 L 233.70 626.13 L 233.65 625.14 L 232.86 624.38 L 232.75 623.66 L 232.69 623.24 C 232.22 617.48 230.65 611.87 228.99 606.35 C 228.58 604.45 228.30 602.54 228.03 600.63 L 229.76 600.67 C 230.15 600.50 230.95 600.17 231.34 600.01 L 231.69 599.68 C 233.69 599.99 235.78 599.86 237.64 598.98 C 241.58 598.11 245.49 597.07 249.53 596.75 C 249.09 596.15 248.66 595.59 248.24 594.99 C 252.30 596.72 256.61 594.76 260.51 593.50 C 264.44 592.39 268.43 591.51 272.46 590.81 L 272.81 590.80 C 274.18 591.02 275.56 590.73 276.59 589.75 L 277.31 589.60 L 277.74 589.52 L 278.41 589.47 C 279.77 589.61 281.04 589.35 282.23 588.66 L 282.62 588.64 C 284.00 588.85 285.40 588.40 286.20 587.21 L 286.38 587.09 C 286.80 587.19 287.66 587.40 288.09 587.50 L 288.82 586.80 L 289.41 586.72 L 289.83 586.70 L 290.59 586.71 C 292.10 587.19 293.38 586.84 294.42 585.68 L 294.98 585.85 C 296.18 586.06 297.32 585.78 298.38 585.01 L 298.86 584.82 C 301.40 584.18 303.95 583.56 306.50 582.96 C 318.57 580.89 330.57 578.13 342.35 574.78 L 342.78 574.70 L 343.54 574.60 C 344.03 574.42 345.01 574.08 345.51 573.91 L 346.07 574.00 C 347.91 574.48 350.00 574.15 351.31 572.67 L 352.02 572.90 C 353.35 573.30 354.46 572.89 355.34 571.69 L 356.08 571.95 C 357.43 572.34 358.54 571.93 359.42 570.73 L 359.91 570.90 C 361.33 571.46 362.49 571.09 363.39 569.79 L 364.24 569.66 L 364.72 569.60 L 365.43 569.51 C 365.96 569.46 367.01 569.34 367.53 569.28 C 372.80 568.38 377.92 566.78 383.18 565.80 C 388.40 564.52 393.80 563.85 398.84 561.88 C 400.67 561.46 402.52 561.08 404.36 560.68 Z" />
<path fill="#aedce8" opacity="1.00" d=" M 654.07 718.22 C 654.49 717.66 655.33 716.53 655.75 715.96 C 668.15 723.70 680.63 731.30 692.96 739.14 C 693.41 739.40 694.31 739.94 694.77 740.21 C 696.82 741.44 698.82 742.75 700.84 744.04 C 701.32 744.33 702.27 744.91 702.74 745.20 C 713.52 751.78 724.33 758.32 734.93 765.18 C 740.05 768.75 745.43 771.96 750.84 775.09 C 757.56 778.98 764.13 783.14 770.73 787.23 C 759.84 794.13 748.06 799.48 736.94 805.97 C 703.18 823.70 669.92 842.34 636.22 860.20 C 622.89 868.07 608.81 874.62 595.41 882.35 C 588.71 885.58 582.43 889.59 575.70 892.76 C 573.68 893.49 573.08 895.63 572.21 897.37 C 570.17 889.10 568.77 880.68 566.33 872.52 C 566.26 872.01 566.11 871.00 566.04 870.50 C 565.68 869.76 565.50 869.00 565.50 868.20 C 565.62 866.45 565.06 864.78 564.28 863.25 L 563.87 862.20 C 563.71 861.65 563.40 860.53 563.25 859.98 C 563.84 859.01 564.44 858.05 565.06 857.12 C 565.35 856.64 565.94 855.70 566.24 855.23 C 567.92 852.54 569.56 849.82 571.24 847.14 C 571.45 846.87 571.87 846.34 572.07 846.07 C 572.98 845.40 573.55 844.44 573.94 843.41 C 577.12 838.68 580.23 833.90 583.20 829.04 C 583.51 828.61 584.12 827.75 584.43 827.32 C 584.56 827.02 584.81 826.42 584.94 826.12 C 586.26 823.77 587.71 821.50 589.24 819.28 C 594.77 811.43 599.90 803.27 604.93 795.08 C 606.18 792.91 607.50 790.78 608.83 788.67 L 609.14 788.17 C 611.55 784.53 613.82 780.79 616.18 777.11 C 616.39 776.81 616.82 776.20 617.03 775.90 C 617.22 775.70 617.61 775.30 617.80 775.10 C 618.50 774.02 619.16 772.93 619.78 771.82 L 620.11 771.25 C 621.63 768.72 623.20 766.21 624.87 763.77 C 630.30 756.07 635.35 748.08 640.16 739.98 C 641.53 738.78 642.36 737.17 642.91 735.47 C 643.23 735.12 643.86 734.41 644.17 734.06 C 644.46 733.62 645.05 732.74 645.34 732.30 C 645.49 731.99 645.78 731.37 645.93 731.06 C 647.30 728.73 648.71 726.42 650.22 724.19 C 650.50 723.91 651.06 723.34 651.33 723.05 C 652.23 722.34 652.90 721.39 653.17 720.28 C 653.40 719.77 653.85 718.74 654.07 718.22 Z" />
</g>
<g id="#62818cab">
<path fill="#62818c" opacity="0.67" d=" M 653.09 228.33 C 653.43 228.55 654.11 229.00 654.45 229.23 C 653.97 229.17 653.02 229.07 652.54 229.01 L 653.09 228.33 Z" />
</g>
<g id="#587682a2">
<path fill="#587682" opacity="0.64" d=" M 655.48 228.64 C 655.54 228.61 655.67 228.56 655.73 228.53 C 655.67 228.56 655.54 228.61 655.48 228.64 Z" />
</g>
<g id="#6f919dba">
<path fill="#6f919d" opacity="0.73" d=" M 647.32 230.97 C 646.43 229.24 650.30 228.13 650.28 230.18 C 649.34 230.63 648.35 230.89 647.32 230.97 Z" />
</g>
<g id="#5e7c87a3">
<path fill="#5e7c87" opacity="0.64" d=" M 651.41 229.64 C 651.48 229.60 651.62 229.53 651.69 229.49 C 651.62 229.53 651.48 229.60 651.41 229.64 Z" />
</g>
<g id="#658997c1">
<path fill="#658997" opacity="0.76" d=" M 638.55 232.86 C 640.18 230.41 644.08 229.92 646.66 231.08 C 643.95 231.65 641.26 232.30 638.55 232.86 Z" />
</g>
<g id="#6b8e9cbe">
<path fill="#6b8e9c" opacity="0.75" d=" M 606.35 240.17 C 605.98 238.12 610.52 237.13 611.15 239.10 C 609.62 239.71 608.03 240.35 606.35 240.17 Z" />
</g>
<g id="#638794bc">
<path fill="#638794" opacity="0.74" d=" M 602.38 241.06 C 601.55 239.46 605.15 238.24 605.27 240.15 C 604.43 240.85 603.46 241.15 602.38 241.06 Z" />
</g>
<g id="#6a8d9abc">
<path fill="#6a8d9a" opacity="0.74" d=" M 598.37 242.06 C 597.41 240.42 601.11 239.07 601.25 241.06 C 600.38 241.65 599.42 241.98 598.37 242.06 Z" />
</g>
<g id="#64838eab">
<path fill="#64838e" opacity="0.67" d=" M 596.03 241.29 C 596.38 241.53 597.08 242.01 597.43 242.25 C 596.94 242.18 595.96 242.02 595.47 241.94 L 596.03 241.29 Z" />
</g>
<g id="#688b98bc">
<path fill="#688b98" opacity="0.74" d=" M 591.68 243.06 C 592.51 241.64 593.61 241.42 594.98 242.42 C 594.35 243.10 593.59 243.55 592.70 243.77 C 592.45 243.59 591.93 243.23 591.68 243.06 Z" />
</g>
<g id="#5a7e8ebc">
<path fill="#5a7e8e" opacity="0.74" d=" M 582.07 245.70 C 581.87 243.70 586.52 242.33 587.25 244.37 C 585.58 245.03 583.83 245.46 582.07 245.70 Z" />
</g>
<g id="#628593b8">
<path fill="#628593" opacity="0.72" d=" M 588.22 244.25 C 588.51 242.53 589.44 242.23 590.98 243.35 C 590.16 243.98 589.24 244.28 588.22 244.25 Z" />
</g>
<g id="#4d6c7aa5">
<path fill="#4d6c7a" opacity="0.65" d=" M 672.35 246.88 C 674.02 246.88 674.15 247.38 672.73 248.37 C 672.64 248.00 672.45 247.25 672.35 246.88 Z" />
</g>
<g id="#628797c6">
<path fill="#628797" opacity="0.78" d=" M 672.92 249.35 C 674.67 248.41 675.80 252.31 673.71 252.28 C 673.29 251.34 673.03 250.36 672.92 249.35 Z" />
</g>
<g id="#6d909dbe">
<path fill="#6d909d" opacity="0.75" d=" M 549.36 253.15 C 548.99 251.07 553.57 250.08 554.12 252.17 C 552.58 252.70 551.01 253.31 549.36 253.15 Z" />
</g>
<g id="#6b8d9abc">
<path fill="#6b8d9a" opacity="0.74" d=" M 541.37 254.99 C 540.48 253.40 544.09 252.10 544.27 254.00 C 543.43 254.68 542.47 255.01 541.37 254.99 Z" />
</g>
<g id="#6f919bb7">
<path fill="#6f919b" opacity="0.72" d=" M 545.28 254.11 C 545.55 252.59 546.43 252.26 547.90 253.12 C 547.33 254.10 546.46 254.43 545.28 254.11 Z" />
</g>
<g id="#38536089">
<path fill="#385360" opacity="0.54" d=" M 674.08 253.35 C 674.11 253.47 674.17 253.72 674.20 253.85 L 674.08 253.35 Z" />
</g>
<g id="#65858fab">
<path fill="#65858f" opacity="0.67" d=" M 538.88 254.53 L 539.93 254.36 L 540.53 255.09 C 540.03 255.17 539.02 255.33 538.51 255.42 L 538.88 254.53 Z" />
</g>
<g id="#617f8aa3">
<path fill="#617f8a" opacity="0.64" d=" M 537.34 255.60 C 537.42 255.59 537.58 255.56 537.66 255.55 C 537.58 255.56 537.42 255.59 537.34 255.60 Z" />
</g>
<g id="#51778bc7">
<path fill="#51778b" opacity="0.78" d=" M 674.39 255.01 C 676.21 254.03 677.14 258.12 675.01 257.96 C 674.73 256.99 674.52 256.00 674.39 255.01 Z" />
</g>
<g id="#688e9eca">
<path fill="#688e9e" opacity="0.79" d=" M 675.14 259.21 C 677.19 257.53 678.02 262.39 675.70 262.22 C 675.36 261.24 675.18 260.24 675.14 259.21 Z" />
</g>
<g id="#5f8292bf">
<path fill="#5f8292" opacity="0.75" d=" M 494.02 264.53 L 495.07 264.48 L 495.61 265.22 C 495.09 265.25 494.06 265.30 493.55 265.32 L 494.02 264.53 Z" />
</g>
<g id="#50707ea5">
<path fill="#50707e" opacity="0.65" d=" M 496.31 264.97 C 496.43 264.95 496.67 264.90 496.80 264.87 L 496.31 264.97 Z" />
</g>
<g id="#577480a1">
<path fill="#577480" opacity="0.63" d=" M 492.46 265.71 C 492.52 265.68 492.64 265.63 492.71 265.60 C 492.64 265.63 492.52 265.68 492.46 265.71 Z" />
</g>
<g id="#6d8f9bbc">
<path fill="#6d8f9b" opacity="0.74" d=" M 484.34 267.96 C 483.49 266.40 487.02 265.18 487.24 266.99 C 486.42 267.76 485.45 268.09 484.34 267.96 Z" />
</g>
<g id="#70929db7">
<path fill="#70929d" opacity="0.72" d=" M 488.19 267.10 C 488.57 265.47 489.51 265.24 491.00 266.40 C 490.15 267.06 489.21 267.29 488.19 267.10 Z" />
</g>
<g id="#668d9dcb">
<path fill="#668d9d" opacity="0.80" d=" M 480.12 269.03 C 478.53 266.96 483.03 265.46 483.28 267.92 C 482.41 268.75 481.36 269.12 480.12 269.03 Z" />
</g>
<g id="#5c7b88ab">
<path fill="#5c7b88" opacity="0.67" d=" M 436.85 278.63 C 436.89 276.98 437.40 276.86 438.39 278.27 C 438.01 278.36 437.24 278.54 436.85 278.63 Z" />
</g>
<g id="#52717fa5">
<path fill="#52717f" opacity="0.65" d=" M 439.34 278.00 C 439.47 277.97 439.71 277.92 439.83 277.89 L 439.34 278.00 Z" />
</g>
<g id="#567480a1">
<path fill="#567480" opacity="0.63" d=" M 435.28 278.80 C 435.40 278.79 435.64 278.76 435.76 278.74 L 435.28 278.80 Z" />
</g>
<g id="#648897c3">
<path fill="#648897" opacity="0.76" d=" M 432.00 284.69 C 430.33 285.49 429.20 281.77 431.15 281.72 C 431.73 282.63 432.01 283.61 432.00 284.69 Z" />
</g>
<g id="#698e9cc4">
<path fill="#698e9c" opacity="0.77" d=" M 432.99 288.57 C 431.38 289.53 430.05 285.90 432.03 285.76 C 432.69 286.56 433.01 287.50 432.99 288.57 Z" />
<path fill="#698e9c" opacity="0.77" d=" M 864.03 458.99 C 863.33 456.69 866.53 456.21 867.39 458.09 C 866.34 458.72 865.22 459.02 864.03 458.99 Z" />
</g>
<g id="#5d7c87a5">
<path fill="#5d7c87" opacity="0.65" d=" M 432.34 290.03 L 433.12 289.55 C 433.13 290.02 433.14 290.98 433.14 291.45 L 432.36 291.00 L 432.34 290.03 Z" />
</g>
<g id="#7196a2c3">
<path fill="#7196a2" opacity="0.76" d=" M 684.94 302.19 C 686.54 302.51 686.78 303.42 685.67 304.93 C 684.95 304.13 684.71 303.21 684.94 302.19 Z" />
</g>
<g id="#547380a5">
<path fill="#547380" opacity="0.65" d=" M 689.86 323.49 C 689.87 322.98 689.89 321.96 689.89 321.45 L 690.66 321.94 L 690.65 322.98 L 689.86 323.49 Z" />
</g>
<g id="#678b9bc4">
<path fill="#678b9b" opacity="0.77" d=" M 689.99 324.37 C 691.61 323.49 692.93 327.16 690.94 327.24 C 690.31 326.39 689.99 325.44 689.99 324.37 Z" />
</g>
<g id="#618696c5">
<path fill="#618696" opacity="0.77" d=" M 690.97 328.34 C 692.64 327.44 693.74 331.20 691.83 331.31 C 691.25 330.39 690.96 329.40 690.97 328.34 Z" />
</g>
<g id="#5e8494c5">
<path fill="#5e8494" opacity="0.77" d=" M 444.03 337.65 C 442.24 338.52 441.35 334.59 443.40 334.65 C 443.76 335.62 443.97 336.62 444.03 337.65 Z" />
</g>
<g id="#a5d6e3ff">
<path fill="#a5d6e3" opacity="1.00" d=" M 645.62 340.55 C 660.69 339.40 675.64 337.06 690.64 335.29 C 691.16 337.09 691.68 338.89 692.22 340.70 C 692.57 340.43 693.27 339.89 693.62 339.62 C 695.36 344.34 696.02 349.37 697.00 354.29 C 697.08 354.95 697.24 356.27 697.32 356.93 C 697.45 358.61 698.16 360.16 698.74 361.73 L 699.19 363.07 C 699.22 364.09 699.42 365.08 699.80 366.05 L 699.87 367.27 C 699.78 368.39 700.08 369.39 700.78 370.26 L 700.80 371.33 C 700.88 371.98 701.04 373.27 701.12 373.92 C 701.06 374.32 700.94 375.13 700.88 375.53 C 699.69 374.92 698.56 373.77 697.13 374.15 C 684.88 375.69 672.65 377.52 660.34 378.41 C 646.78 380.12 633.22 381.82 619.66 383.53 C 602.01 384.76 584.59 388.02 566.99 389.80 C 561.68 389.96 556.40 390.59 551.14 391.32 C 537.68 393.33 524.13 394.64 510.65 396.56 C 493.75 397.69 477.05 400.77 460.17 402.26 C 460.32 404.58 460.40 406.90 460.48 409.23 C 459.23 406.62 459.25 403.66 458.67 400.87 C 456.43 390.37 453.59 379.97 451.54 369.43 C 451.76 367.68 452.07 365.95 452.36 364.22 C 456.77 362.92 461.40 362.80 465.93 362.16 C 475.94 361.00 485.87 359.04 495.98 358.80 C 512.06 356.44 528.25 354.88 544.33 352.45 C 561.44 351.37 578.38 348.51 595.40 346.45 C 612.22 345.34 628.90 342.64 645.62 340.55 Z" />
<path fill="#a5d6e3" opacity="1.00" d=" M 736.94 805.97 C 748.06 799.48 759.84 794.13 770.73 787.23 C 778.51 791.99 786.22 796.87 793.96 801.69 L 795.03 802.40 C 795.69 803.17 796.60 803.67 797.60 803.99 C 798.18 804.26 799.36 804.79 799.94 805.05 C 800.19 805.63 800.70 806.77 800.95 807.35 C 801.29 808.67 801.42 810.04 801.35 811.44 C 801.16 811.62 800.77 811.99 800.57 812.17 C 793.20 814.77 786.65 819.14 779.74 822.70 C 740.06 843.95 700.62 865.65 660.95 886.93 C 634.47 900.98 608.25 915.56 581.60 929.30 C 581.39 930.03 580.97 931.49 580.76 932.22 C 580.38 931.46 579.95 930.75 579.49 930.08 C 579.37 929.24 579.13 927.58 579.01 926.74 C 578.96 925.65 578.66 924.64 578.11 923.72 C 577.71 922.94 577.46 922.14 577.36 921.31 C 577.64 920.14 577.79 918.48 576.41 917.99 C 576.88 915.97 575.97 914.07 575.55 912.15 C 574.43 907.22 573.19 902.32 572.21 897.37 C 573.08 895.63 573.68 893.49 575.70 892.76 C 582.43 889.59 588.71 885.58 595.41 882.35 C 608.81 874.62 622.89 868.07 636.22 860.20 C 669.92 842.34 703.18 823.70 736.94 805.97 Z" />
</g>
<g id="#638797c3">
<path fill="#638797" opacity="0.76" d=" M 445.04 341.67 C 443.39 342.53 442.12 338.85 444.12 338.78 C 444.71 339.63 445.02 340.59 445.04 341.67 Z" />
</g>
<g id="#597783a5">
<path fill="#597783" opacity="0.65" d=" M 444.37 343.01 L 445.17 342.51 C 445.18 343.01 445.21 344.02 445.22 344.52 L 444.40 344.05 L 444.37 343.01 Z" />
</g>
<g id="#668d9ecf">
<path fill="#668d9e" opacity="0.81" d=" M 447.91 353.93 C 445.74 355.52 444.44 350.82 446.99 350.74 C 447.69 351.69 447.99 352.75 447.91 353.93 Z" />
</g>
<g id="#53798cc6">
<path fill="#53798c" opacity="0.78" d=" M 448.69 358.00 C 446.87 359.06 445.82 354.98 447.95 355.05 C 448.23 356.02 448.48 357.00 448.69 358.00 Z" />
</g>
<g id="#587d8dbd">
<path fill="#587d8d" opacity="0.74" d=" M 697.32 356.93 C 699.41 354.78 700.11 360.59 698.74 361.73 C 698.16 360.16 697.45 358.61 697.32 356.93 Z" />
</g>
<g id="#577d90c7">
<path fill="#577d90" opacity="0.78" d=" M 450.05 363.63 C 447.74 364.41 446.66 359.47 448.94 359.00 C 449.40 360.51 449.78 362.06 450.05 363.63 Z" />
</g>
<g id="#496b7bad">
<path fill="#496b7b" opacity="0.68" d=" M 699.87 367.27 C 701.47 366.57 702.64 370.12 700.78 370.26 C 700.08 369.39 699.78 368.39 699.87 367.27 Z" />
</g>
<g id="#648c9dce">
<path fill="#648c9d" opacity="0.81" d=" M 700.80 371.33 C 702.34 371.43 702.65 372.21 701.74 373.67 L 701.12 373.92 C 701.04 373.27 700.88 371.98 700.80 371.33 Z" />
</g>
<g id="#9ccfdeff">
<path fill="#9ccfde" opacity="1.00" d=" M 660.34 378.41 C 672.65 377.52 684.88 375.69 697.13 374.15 C 698.56 373.77 699.69 374.92 700.88 375.53 C 700.94 375.13 701.06 374.32 701.12 373.92 L 701.74 373.67 C 702.77 381.16 705.23 388.36 706.30 395.84 C 706.11 396.27 705.73 397.14 705.54 397.58 C 689.24 399.61 673.01 402.25 656.63 403.54 C 639.89 405.47 623.22 408.08 606.41 409.45 C 591.61 411.37 576.78 413.08 561.99 415.13 C 555.37 416.22 548.61 415.91 542.01 417.12 C 527.12 418.84 512.33 421.39 497.37 422.39 C 487.04 423.75 476.70 425.08 466.35 426.26 C 466.08 427.65 465.82 429.04 465.58 430.43 C 464.43 428.54 464.25 426.28 463.76 424.17 C 462.70 419.18 461.13 414.28 460.48 409.23 C 460.40 406.90 460.32 404.58 460.17 402.26 C 477.05 400.77 493.75 397.69 510.65 396.56 C 524.13 394.64 537.68 393.33 551.14 391.32 C 556.40 390.59 561.68 389.96 566.99 389.80 C 584.59 388.02 602.01 384.76 619.66 383.53 C 633.22 381.82 646.78 380.12 660.34 378.41 Z" />
</g>
<g id="#95cbdaff">
<path fill="#95cbda" opacity="1.00" d=" M 706.30 395.84 C 707.87 399.69 708.18 403.88 708.98 407.94 C 708.18 409.44 707.41 410.97 706.49 412.41 C 705.26 414.19 704.00 415.96 702.92 417.84 C 702.68 418.21 702.20 418.95 701.96 419.33 C 700.90 420.83 699.79 422.30 698.80 423.86 C 693.21 423.15 687.67 424.71 682.14 425.36 C 672.84 426.51 663.56 428.00 654.18 428.33 C 638.79 430.40 623.38 432.35 607.97 434.28 C 601.98 435.15 595.87 434.88 589.93 436.12 C 578.17 437.70 566.39 439.08 554.62 440.55 C 537.00 441.87 519.59 444.99 502.03 446.84 C 491.72 447.19 481.62 449.50 471.34 450.25 C 471.60 452.07 471.80 453.89 471.73 455.74 L 471.25 456.58 C 469.36 450.47 468.55 444.09 466.88 437.93 C 466.26 435.47 465.49 432.99 465.58 430.43 C 465.82 429.04 466.08 427.65 466.35 426.26 C 476.70 425.08 487.04 423.75 497.37 422.39 C 512.33 421.39 527.12 418.84 542.01 417.12 C 548.61 415.91 555.37 416.22 561.99 415.13 C 576.78 413.08 591.61 411.37 606.41 409.45 C 623.22 408.08 639.89 405.47 656.63 403.54 C 673.01 402.25 689.24 399.61 705.54 397.58 C 705.73 397.14 706.11 396.27 706.30 395.84 Z" />
</g>
<g id="#4f7c94e3">
<path fill="#4f7c94" opacity="0.89" d=" M 702.92 417.84 C 704.00 415.96 705.26 414.19 706.49 412.41 C 707.24 415.21 704.79 417.71 702.77 419.30 L 702.92 417.84 Z" />
</g>
<g id="#548197e0">
<path fill="#548197" opacity="0.88" d=" M 698.80 423.86 C 699.79 422.30 700.90 420.83 701.96 419.33 C 703.51 421.98 699.95 425.01 697.62 426.01 C 697.92 425.47 698.51 424.40 698.80 423.86 Z" />
</g>
<g id="#8dc5d5ff">
<path fill="#8dc5d5" opacity="1.00" d=" M 682.14 425.36 C 687.67 424.71 693.21 423.15 698.80 423.86 C 698.51 424.40 697.92 425.47 697.62 426.01 C 697.02 427.10 696.35 428.15 695.62 429.16 C 694.56 430.47 693.65 431.89 692.88 433.38 C 690.89 436.62 688.65 439.71 686.83 443.05 C 683.70 448.36 680.62 453.73 676.88 458.64 C 673.42 462.43 672.07 467.63 668.49 471.34 C 668.45 470.97 668.37 470.24 668.32 469.88 C 669.19 468.05 670.25 466.31 671.26 464.56 C 666.17 463.37 661.08 465.64 655.97 465.77 C 645.57 465.99 635.37 468.14 625.05 469.20 C 615.42 470.33 605.84 471.98 596.13 472.29 C 580.08 474.77 563.88 476.21 547.82 478.68 C 535.31 479.25 522.93 481.32 510.56 483.11 C 510.47 483.84 510.40 484.57 510.33 485.31 C 508.83 484.45 507.29 483.67 505.97 482.58 C 505.10 481.83 504.20 481.10 503.14 480.68 C 502.65 480.43 501.69 479.91 501.20 479.65 C 499.53 478.52 497.83 477.42 496.11 476.39 C 494.72 475.53 493.30 474.74 491.92 473.89 C 488.88 471.90 485.87 469.84 482.65 468.16 C 481.80 467.69 480.98 467.20 480.19 466.67 C 479.73 466.42 478.82 465.91 478.36 465.65 C 476.39 464.20 474.41 462.77 472.22 461.69 C 471.85 459.72 471.64 457.73 471.73 455.74 C 471.80 453.89 471.60 452.07 471.34 450.25 C 481.62 449.50 491.72 447.19 502.03 446.84 C 519.59 444.99 537.00 441.87 554.62 440.55 C 566.39 439.08 578.17 437.70 589.93 436.12 C 595.87 434.88 601.98 435.15 607.97 434.28 C 623.38 432.35 638.79 430.40 654.18 428.33 C 663.56 428.00 672.84 426.51 682.14 425.36 Z" />
</g>
<g id="#648a9bcb">
<path fill="#648a9b" opacity="0.80" d=" M 991.26 429.45 C 992.65 428.80 994.11 428.33 995.62 427.97 C 995.71 429.39 995.84 430.81 995.99 432.24 C 995.62 431.25 995.25 430.28 994.88 429.31 C 993.66 429.35 992.45 429.40 991.26 429.45 Z" />
</g>
<g id="#537f95db">
<path fill="#537f95" opacity="0.86" d=" M 692.88 433.38 C 693.65 431.89 694.56 430.47 695.62 429.16 C 697.24 430.79 695.01 434.44 692.88 433.38 Z" />
</g>
<g id="#688c99be">
<path fill="#688c99" opacity="0.75" d=" M 986.11 431.09 C 986.09 429.17 988.37 428.62 989.51 430.01 C 988.47 430.74 987.33 431.10 986.11 431.09 Z" />
</g>
<g id="#739aaad4">
<path fill="#739aaa" opacity="0.83" d=" M 980.05 432.24 C 980.98 430.36 983.18 430.38 984.90 431.08 C 983.49 432.13 981.76 432.53 980.05 432.24 Z" />
</g>
<g id="#4d6e7caa">
<path fill="#4d6e7c" opacity="0.67" d=" M 996.34 433.38 C 996.37 433.47 996.43 433.64 996.46 433.73 L 996.36 433.63 L 996.34 433.38 Z" />
</g>
<g id="#557a8bbe">
<path fill="#557a8b" opacity="0.75" d=" M 996.42 434.64 C 997.97 434.85 998.11 435.46 996.84 436.45 C 996.73 436.00 996.52 435.10 996.42 434.64 Z" />
</g>
<g id="#567b8cc2">
<path fill="#567b8c" opacity="0.76" d=" M 997.01 436.96 C 998.62 437.48 999.37 439.33 997.97 440.57 C 997.11 439.51 996.78 438.31 997.01 436.96 Z" />
</g>
<g id="#6a8e9dc3">
<path fill="#6a8e9d" opacity="0.76" d=" M 943.05 440.86 C 942.37 438.57 945.56 438.40 946.42 440.07 C 945.35 440.83 944.22 441.10 943.05 440.86 Z" />
</g>
<g id="#7094a1c3">
<path fill="#7094a1" opacity="0.76" d=" M 938.97 441.97 C 938.25 439.62 941.07 439.54 942.36 440.65 C 941.45 441.67 940.32 442.11 938.97 441.97 Z" />
</g>
<g id="#638694bc">
<path fill="#638694" opacity="0.74" d=" M 933.07 443.17 C 933.01 441.24 935.31 440.76 936.56 441.92 C 935.52 442.72 934.35 443.13 933.07 443.17 Z" />
</g>
<g id="#658795b9">
<path fill="#658795" opacity="0.73" d=" M 926.51 444.13 C 927.08 444.08 928.20 443.97 928.77 443.92 C 928.36 444.11 927.53 444.48 927.11 444.67 L 926.51 444.13 Z" />
</g>
<g id="#5e8190bd">
<path fill="#5e8190" opacity="0.74" d=" M 880.07 455.19 C 880.10 453.21 882.54 452.74 883.59 454.28 C 882.47 454.82 881.29 455.12 880.07 455.19 Z" />
</g>
<g id="#668895b9">
<path fill="#668895" opacity="0.73" d=" M 869.36 457.12 C 869.94 457.07 871.11 456.97 871.69 456.92 C 871.11 456.97 869.94 457.07 869.36 457.12 Z" />
</g>
<g id="#457d8fff">
<path fill="#457d8f" opacity="1.00" d=" M 872.00 456.63 C 872.76 455.09 874.82 454.72 875.99 456.08 C 874.76 456.79 873.34 456.93 872.00 456.63 Z" />
<path fill="#457d8f" opacity="1.00" d=" M 1031.26 587.69 C 1036.12 593.16 1035.35 601.12 1038.11 607.61 C 1044.40 606.56 1050.64 605.14 1057.04 604.77 C 1061.01 604.09 1065.26 604.21 1068.94 602.38 C 1075.56 631.09 1081.71 659.92 1088.74 688.54 C 1069.58 693.44 1050.15 697.32 1030.91 701.91 C 970.61 715.52 910.37 729.42 850.04 742.92 C 817.28 722.35 784.30 702.15 751.57 681.54 C 762.53 679.29 773.61 677.74 784.59 675.56 C 792.36 674.50 800.39 674.29 807.85 671.68 C 803.83 669.20 799.82 666.71 795.96 664.00 C 794.75 663.46 794.34 662.38 794.66 661.13 C 806.12 668.42 817.61 675.67 829.05 683.01 C 832.51 685.30 835.90 687.70 839.59 689.64 C 848.34 695.59 857.39 701.12 866.26 706.90 C 867.38 707.82 868.79 706.93 870.03 706.78 C 881.65 703.32 893.69 701.63 905.40 698.52 C 912.27 697.00 919.14 695.48 925.99 693.87 C 932.39 691.94 939.11 691.47 945.46 689.35 C 979.97 681.65 1014.38 673.48 1048.92 665.93 C 1047.97 661.76 1046.99 657.61 1046.05 653.45 C 1042.56 638.01 1039.39 622.51 1035.68 607.13 C 1034.42 600.59 1032.51 594.21 1031.26 587.69 Z" />
<path fill="#457d8f" opacity="1.00" d=" M 642.17 657.70 C 692.95 689.97 743.64 722.40 794.40 754.72 C 804.89 761.57 815.69 767.99 826.00 775.08 C 836.62 820.70 846.81 866.44 857.26 912.11 C 865.05 945.86 872.41 979.72 880.46 1013.41 C 780.64 1036.11 680.87 1059.02 581.03 1081.66 C 563.08 1002.11 544.82 922.62 526.87 843.07 C 565.39 781.34 603.81 719.54 642.17 657.70 M 654.07 718.22 C 653.85 718.74 653.40 719.77 653.17 720.28 C 651.64 719.23 649.98 721.96 651.33 723.05 C 651.06 723.34 650.50 723.91 650.22 724.19 C 648.24 726.07 647.00 728.58 645.93 731.06 C 645.78 731.37 645.49 731.99 645.34 732.30 L 644.43 732.28 L 643.83 733.19 L 644.17 734.06 C 643.86 734.41 643.23 735.12 642.91 735.47 C 641.00 734.80 639.66 737.88 639.76 739.45 L 640.16 739.98 C 635.35 748.08 630.30 756.07 624.87 763.77 C 622.77 765.89 621.31 768.54 620.11 771.25 L 619.78 771.82 C 617.90 771.10 615.69 774.34 617.03 775.90 C 616.82 776.20 616.39 776.81 616.18 777.11 C 613.38 780.47 611.12 784.28 609.14 788.17 L 608.83 788.67 C 607.15 790.55 605.72 792.67 604.93 795.08 C 599.90 803.27 594.77 811.43 589.24 819.28 C 587.29 821.18 585.86 823.56 584.94 826.12 C 584.81 826.42 584.56 827.02 584.43 827.32 L 583.51 827.27 L 582.88 828.15 L 583.20 829.04 C 580.23 833.90 577.12 838.68 573.94 843.41 C 572.35 843.00 571.57 843.68 571.59 845.43 L 572.07 846.07 C 571.87 846.34 571.45 846.87 571.24 847.14 C 569.17 849.55 567.45 852.29 566.24 855.23 C 565.94 855.70 565.35 856.64 565.06 857.12 C 564.18 858.05 563.31 859.00 562.43 859.95 C 562.90 860.69 563.38 861.44 563.87 862.20 L 564.28 863.25 C 562.96 864.65 563.35 867.84 565.50 868.20 C 565.50 869.00 565.68 869.76 566.04 870.50 L 565.33 871.06 L 565.47 872.10 L 566.33 872.52 C 568.77 880.68 570.17 889.10 572.21 897.37 C 573.19 902.32 574.43 907.22 575.55 912.15 C 575.97 914.07 576.88 915.97 576.41 917.99 C 575.39 919.41 575.71 920.51 577.36 921.31 C 577.46 922.14 577.71 922.94 578.11 923.72 C 575.75 923.79 577.05 928.08 579.01 926.74 C 579.13 927.58 579.37 929.24 579.49 930.08 C 578.37 931.40 578.53 932.49 579.96 933.34 L 580.39 934.14 C 578.97 935.52 579.50 938.60 581.54 939.12 C 582.00 941.46 582.66 943.77 583.37 946.07 C 582.01 946.84 582.31 950.15 584.20 949.66 C 585.02 954.41 586.33 959.10 587.44 963.79 C 587.54 965.44 587.67 967.13 588.32 968.69 C 586.25 968.69 587.36 972.57 589.14 971.68 C 590.10 976.26 591.33 980.79 592.07 985.43 L 591.68 984.66 C 592.61 987.75 592.58 991.07 593.79 994.09 L 594.11 994.55 C 592.93 995.72 593.18 996.18 594.86 995.93 L 595.39 997.41 C 595.26 999.12 595.69 1000.82 596.23 1002.45 L 595.46 1002.95 L 595.49 1004.01 L 596.30 1004.50 C 598.43 1012.82 600.11 1021.27 602.57 1029.50 C 602.24 1033.56 604.23 1037.40 604.95 1041.35 C 614.53 1039.90 623.80 1037.01 633.31 1035.25 C 643.64 1032.66 654.11 1030.63 664.33 1027.64 C 667.35 1028.02 670.16 1026.70 673.02 1026.01 C 685.50 1023.59 697.77 1020.26 710.22 1017.68 C 710.59 1017.86 711.33 1018.23 711.69 1018.41 C 716.89 1017.58 721.94 1016.01 727.08 1014.87 C 729.85 1014.09 732.92 1013.88 735.27 1012.04 C 748.21 1008.54 761.46 1006.33 774.36 1002.67 C 775.63 1002.74 776.88 1002.36 778.10 1002.03 C 778.32 1004.44 783.39 1003.30 782.54 1001.07 L 783.50 1000.91 C 785.46 1002.39 788.02 1000.80 790.20 1000.85 C 790.16 1000.46 790.06 999.66 790.02 999.27 L 790.68 999.12 C 793.28 1000.59 796.22 999.14 798.91 998.72 C 800.16 998.22 802.21 998.44 802.37 996.61 L 800.87 996.77 C 801.45 996.64 802.63 996.38 803.22 996.25 C 801.60 998.45 806.77 997.94 805.64 995.83 L 806.61 995.61 L 806.98 996.61 C 808.71 996.18 810.47 995.88 812.25 995.72 C 812.15 995.34 811.94 994.59 811.83 994.22 C 812.53 994.14 813.94 993.97 814.65 993.89 C 815.71 995.15 816.19 994.95 816.07 993.30 L 817.21 993.14 C 817.33 993.12 817.58 993.08 817.70 993.06 C 818.90 992.85 820.11 992.60 821.32 992.36 C 821.39 992.34 821.53 992.31 821.61 992.29 C 822.59 992.02 823.65 991.88 824.64 991.56 C 825.60 992.99 826.10 992.88 826.15 991.23 L 827.20 991.08 C 827.33 991.05 827.57 991.01 827.69 990.98 C 828.83 990.71 829.96 990.39 831.09 990.04 C 830.97 992.17 835.01 991.12 833.96 989.29 L 835.06 989.03 C 834.95 991.13 839.05 990.17 837.98 988.35 C 838.66 988.19 840.01 987.86 840.68 987.70 C 840.84 990.79 845.17 987.30 842.09 986.71 L 841.54 985.69 C 841.50 985.59 841.43 985.40 841.39 985.30 C 841.21 984.56 840.86 983.09 840.68 982.35 C 843.00 982.31 841.87 978.10 839.91 979.34 L 840.02 978.32 C 842.25 978.15 840.56 974.49 838.98 976.09 C 838.91 973.57 838.22 971.14 837.26 968.84 C 836.10 960.86 833.69 953.05 832.25 945.09 C 831.81 942.98 831.70 940.68 830.36 938.90 C 830.49 936.92 829.82 935.03 829.40 933.15 C 827.40 924.04 825.51 914.91 823.30 905.85 L 823.14 906.50 C 822.43 898.78 819.77 891.42 818.31 883.84 C 818.28 883.72 818.22 883.47 818.20 883.35 L 817.86 882.04 C 818.05 881.54 818.43 880.53 818.63 880.03 L 818.03 879.08 L 817.26 879.05 L 816.74 878.28 C 818.68 878.23 817.69 874.53 816.06 875.35 L 816.04 874.23 C 818.50 874.11 817.11 869.64 815.06 871.13 L 815.07 870.48 L 815.78 869.90 L 815.62 868.87 L 814.74 868.48 C 812.64 861.99 812.14 855.04 809.73 848.68 C 809.20 844.87 808.64 841.04 807.56 837.36 C 809.63 837.36 808.59 833.42 806.81 834.38 C 806.52 832.68 806.24 830.99 805.81 829.35 C 807.76 828.27 806.28 824.49 804.67 823.58 L 804.63 823.04 C 805.67 821.55 805.37 820.41 803.74 819.62 C 803.67 818.78 803.42 818.01 803.01 817.30 C 805.53 817.14 804.20 812.43 802.05 814.08 C 801.99 813.31 801.88 811.77 801.82 811.00 L 801.35 811.44 C 801.42 810.04 801.29 808.67 800.95 807.35 C 803.20 807.19 801.54 803.48 799.94 805.05 C 799.36 804.79 798.18 804.26 797.60 803.99 C 798.88 802.45 795.93 800.70 795.03 802.40 L 793.96 801.69 C 789.42 797.98 784.13 795.36 779.28 792.10 C 769.70 786.61 760.76 779.91 750.84 775.09 C 745.43 771.96 740.05 768.75 734.93 765.18 C 731.72 761.97 727.35 760.32 723.72 757.67 C 716.61 753.71 710.10 748.66 702.74 745.20 C 702.27 744.91 701.32 744.33 700.84 744.04 C 699.15 742.29 697.07 740.96 694.77 740.21 C 694.31 739.94 693.41 739.40 692.96 739.14 C 692.23 738.45 691.46 737.82 690.66 737.25 C 678.94 729.97 667.24 722.67 655.48 715.47 C 654.99 716.38 654.51 717.28 654.07 718.22 Z" />
<path fill="#457d8f" opacity="1.00" d=" M 511.86 718.48 C 513.61 715.64 515.49 712.88 517.35 710.10 C 517.41 711.40 517.94 712.88 516.98 714.02 C 512.83 720.50 508.66 726.99 505.14 733.85 C 512.45 731.98 520.04 731.93 527.42 730.41 C 536.73 728.95 545.93 726.64 555.35 726.04 C 535.07 757.90 514.73 789.72 494.46 821.60 C 415.12 839.77 335.69 857.57 256.38 875.83 C 246.16 832.52 236.54 789.07 226.46 745.72 C 236.95 744.80 247.26 742.58 257.64 740.83 C 256.02 733.24 253.37 725.72 253.28 717.90 C 254.21 720.31 255.10 722.75 255.94 725.21 C 256.72 727.98 257.57 730.73 258.20 733.55 C 259.73 742.07 261.87 750.47 263.95 758.88 C 265.65 769.36 268.52 779.60 270.85 789.96 C 273.16 801.49 275.97 812.92 278.79 824.34 C 279.71 828.87 280.75 833.37 281.55 837.93 C 288.38 836.54 295.22 835.16 301.94 833.32 C 355.38 821.51 408.65 808.95 462.06 797.01 C 464.16 796.99 464.78 794.80 465.80 793.37 C 473.88 780.12 482.29 767.08 490.25 753.76 C 497.58 742.07 505.05 730.47 511.86 718.48 Z" />
</g>
<g id="#5c8090bf">
<path fill="#5c8090" opacity="0.75" d=" M 858.08 460.04 C 858.17 458.25 860.22 458.19 861.42 458.92 C 860.52 460.13 859.41 460.50 858.08 460.04 Z" />
</g>
<g id="#628694bf">
<path fill="#628694" opacity="0.75" d=" M 854.12 461.16 C 854.01 459.30 856.21 458.76 857.47 459.79 C 856.57 460.74 855.45 461.20 854.12 461.16 Z" />
</g>
<g id="#83becfff">
<path fill="#83becf" opacity="1.00" d=" M 655.97 465.77 C 661.08 465.64 666.17 463.37 671.26 464.56 C 670.25 466.31 669.19 468.05 668.32 469.88 C 668.37 470.24 668.45 470.97 668.49 471.34 L 668.54 471.80 C 661.35 483.16 653.79 494.29 646.75 505.75 C 646.03 506.67 645.24 507.53 644.38 508.33 C 644.66 506.84 645.03 505.36 645.42 503.89 C 643.05 503.96 640.68 504.06 638.34 504.40 C 625.46 506.40 612.44 507.46 599.57 509.59 C 594.41 510.11 589.18 509.83 584.08 510.88 C 576.23 512.23 568.23 512.52 560.44 514.17 C 561.29 515.24 562.14 516.33 563.00 517.42 C 558.44 516.48 555.28 512.61 551.10 510.76 C 537.58 502.27 523.84 494.16 510.28 485.73 L 510.33 485.31 C 510.40 484.57 510.47 483.84 510.56 483.11 C 522.93 481.32 535.31 479.25 547.82 478.68 C 563.88 476.21 580.08 474.77 596.13 472.29 C 605.84 471.98 615.42 470.33 625.05 469.20 C 635.37 468.14 645.57 465.99 655.97 465.77 Z" />
</g>
<g id="#4b7286c6">
<path fill="#4b7286" opacity="0.78" d=" M 478.36 465.65 C 478.82 465.91 479.73 466.42 480.19 466.67 L 479.37 467.12 L 478.42 466.60 L 478.36 465.65 Z" />
</g>
<g id="#548196dc">
<path fill="#548196" opacity="0.86" d=" M 482.65 468.16 C 485.87 469.84 488.88 471.90 491.92 473.89 L 490.78 474.57 C 487.97 472.67 484.06 471.46 482.65 468.16 Z" />
</g>
<g id="#6c919fc6">
<path fill="#6c919f" opacity="0.78" d=" M 808.15 478.04 C 807.75 476.62 808.46 474.50 810.31 475.09 C 810.36 476.47 809.18 477.37 808.15 478.04 Z" />
</g>
<g id="#537f94d9">
<path fill="#537f94" opacity="0.85" d=" M 496.11 476.39 C 497.83 477.42 499.53 478.52 501.20 479.65 L 501.12 480.95 C 499.33 479.65 496.38 478.95 496.11 476.39 Z" />
</g>
<g id="#558194d2">
<path fill="#558194" opacity="0.82" d=" M 505.97 482.58 C 504.83 484.30 500.80 481.77 503.14 480.68 C 504.20 481.10 505.10 481.83 505.97 482.58 Z" />
</g>
<g id="#578094d5">
<path fill="#578094" opacity="0.84" d=" M 802.21 487.67 C 802.26 484.71 803.88 482.40 806.38 480.95 C 805.14 483.27 803.72 485.50 802.21 487.67 Z" />
</g>
<g id="#4b6b7baa">
<path fill="#4b6b7b" opacity="0.67" d=" M 1009.23 490.31 C 1009.27 490.40 1009.36 490.60 1009.40 490.69 L 1009.26 490.60 L 1009.23 490.31 Z" />
</g>
<g id="#547889bf">
<path fill="#547889" opacity="0.75" d=" M 1009.38 491.76 C 1010.87 491.67 1011.12 492.23 1010.16 493.43 C 1009.96 493.01 1009.58 492.18 1009.38 491.76 Z" />
</g>
<g id="#547a8cc3">
<path fill="#547a8c" opacity="0.76" d=" M 1010.02 493.96 C 1011.61 494.52 1012.21 496.38 1010.81 497.54 C 1009.91 496.44 1009.65 495.25 1010.02 493.96 Z" />
</g>
<g id="#7ab7c9ff">
<path fill="#7ab7c9" opacity="1.00" d=" M 638.34 504.40 C 640.68 504.06 643.05 503.96 645.42 503.89 C 645.03 505.36 644.66 506.84 644.38 508.33 C 644.18 510.38 642.76 511.94 641.66 513.58 C 633.90 525.52 626.35 537.60 618.62 549.56 C 617.95 550.21 617.63 551.63 616.48 551.48 C 603.34 542.83 589.64 535.08 576.53 526.38 C 572.03 523.42 566.68 521.44 563.00 517.42 C 562.14 516.33 561.29 515.24 560.44 514.17 C 568.23 512.52 576.23 512.23 584.08 510.88 C 589.18 509.83 594.41 510.11 599.57 509.59 C 612.44 507.46 625.46 506.40 638.34 504.40 Z" />
</g>
<g id="#a8d8e4ff">
<path fill="#a8d8e4" opacity="1.00" d=" M 984.11 509.37 C 992.10 508.05 999.97 506.00 1008.03 505.08 C 1010.10 504.62 1011.33 506.68 1012.71 507.82 C 1013.43 510.56 1014.16 513.30 1014.82 516.07 C 1015.45 519.02 1016.23 521.95 1016.93 524.89 C 1016.49 526.24 1016.84 527.30 1018.00 528.09 L 1017.85 528.55 C 1017.15 529.81 1017.51 531.35 1018.55 532.34 C 1018.30 532.57 1017.79 533.03 1017.54 533.26 C 1010.74 534.22 1004.03 535.78 997.18 536.38 C 984.14 538.62 971.18 541.41 958.03 542.98 C 942.00 546.44 925.73 548.42 909.65 551.57 C 902.41 552.78 895.24 554.44 887.92 555.15 C 875.36 557.00 863.03 560.35 850.36 561.49 C 841.38 563.22 832.39 564.95 823.37 566.44 C 807.00 568.30 791.05 572.78 774.68 574.59 C 767.35 576.08 759.94 577.10 752.63 578.65 C 750.48 579.18 748.27 579.04 746.27 578.10 C 749.90 572.50 753.38 566.80 756.82 561.08 C 757.15 560.56 757.80 559.53 758.13 559.02 C 760.28 555.70 762.26 552.28 764.28 548.89 C 764.80 548.20 765.31 547.50 765.83 546.81 L 766.21 547.97 C 766.95 547.23 767.69 546.50 768.45 545.78 C 776.07 545.56 783.43 543.29 790.95 542.24 C 801.94 541.08 812.75 538.67 823.59 536.57 C 837.98 535.34 851.96 531.42 866.23 529.36 C 876.25 528.22 886.12 526.03 896.02 524.15 C 901.53 523.09 907.19 522.98 912.66 521.66 C 921.78 520.15 930.77 517.80 940.00 516.93 C 954.75 514.72 969.28 511.09 984.11 509.37 Z" />
</g>
<g id="#588196d7">
<path fill="#588196" opacity="0.84" d=" M 785.37 515.09 C 784.03 512.81 785.76 510.51 788.17 510.34 C 787.54 512.08 786.60 513.69 785.37 515.09 Z" />
</g>
<g id="#50849dff">
<path fill="#50849d" opacity="1.00" d=" M 1015.36 513.57 C 1017.96 517.19 1018.39 521.74 1019.45 525.95 C 1022.71 525.56 1025.95 524.97 1029.18 524.30 C 1035.49 522.87 1042.08 523.22 1048.33 521.38 C 1048.71 520.36 1049.09 519.34 1049.47 518.32 L 1049.64 517.87 C 1053.13 532.89 1056.49 547.94 1059.94 562.97 C 1059.64 563.29 1059.05 563.94 1058.75 564.26 C 1052.92 563.79 1047.39 565.99 1041.67 566.58 C 1037.33 567.05 1033.00 567.65 1028.65 567.76 C 1027.55 561.36 1025.79 555.10 1024.33 548.78 C 1024.11 547.20 1023.27 545.96 1021.62 545.73 C 1021.40 544.64 1021.24 543.55 1021.16 542.45 C 1022.01 541.27 1021.80 539.26 1020.09 539.08 L 1020.34 538.40 C 1021.28 537.14 1020.69 535.04 1018.92 535.11 C 1018.96 534.31 1019.03 532.72 1019.06 531.92 C 1019.30 530.55 1018.90 529.43 1017.85 528.55 L 1018.00 528.09 C 1018.52 526.74 1018.17 525.68 1016.93 524.89 C 1016.23 521.95 1015.45 519.02 1014.82 516.07 C 1014.95 515.45 1015.22 514.20 1015.36 513.57 Z" />
</g>
<g id="#5c8191c0">
<path fill="#5c8191" opacity="0.75" d=" M 1016.93 524.89 C 1018.17 525.68 1018.52 526.74 1018.00 528.09 C 1016.84 527.30 1016.49 526.24 1016.93 524.89 Z" />
</g>
<g id="#618695c0">
<path fill="#618695" opacity="0.75" d=" M 1018.55 532.34 C 1017.51 531.35 1017.15 529.81 1017.85 528.55 C 1018.90 529.43 1019.30 530.55 1019.06 531.92 L 1018.55 532.34 Z" />
</g>
<g id="#83a9b5d3">
<path fill="#83a9b5" opacity="0.83" d=" M 774.84 532.02 C 775.17 531.50 775.82 530.48 776.15 529.96 C 775.82 530.48 775.17 531.50 774.84 532.02 Z" />
</g>
<g id="#9dd0deff">
<path fill="#9dd0de" opacity="1.00" d=" M 1018.55 532.34 L 1019.06 531.92 C 1019.03 532.72 1018.96 534.31 1018.92 535.11 C 1018.77 536.46 1019.24 537.56 1020.34 538.40 L 1020.09 539.08 C 1019.62 540.41 1019.97 541.53 1021.16 542.45 C 1021.24 543.55 1021.40 544.64 1021.62 545.73 C 1023.33 553.50 1024.72 561.36 1026.93 569.02 C 1026.74 570.58 1026.67 572.61 1028.31 573.49 L 1027.76 574.20 C 1025.20 574.28 1022.64 573.96 1020.10 574.26 C 1008.78 576.41 997.49 578.95 986.02 580.20 C 973.76 582.00 961.75 585.27 949.40 586.44 C 938.25 588.63 927.06 590.61 915.88 592.64 C 902.46 593.98 889.43 597.73 876.03 599.23 C 863.74 600.88 851.73 604.26 839.37 605.42 C 817.03 609.74 794.53 613.05 772.18 617.32 C 763.02 618.32 753.99 620.16 744.93 621.81 C 742.68 622.17 740.57 623.05 738.55 624.07 C 737.98 623.96 736.84 623.75 736.27 623.64 C 735.26 622.95 734.25 622.27 733.25 621.62 C 732.92 621.33 732.25 620.76 731.92 620.48 C 730.34 619.54 728.77 618.61 727.20 617.71 C 726.86 617.42 726.19 616.83 725.85 616.54 C 725.03 616.04 724.23 615.55 723.43 615.06 C 729.70 604.95 736.11 594.91 742.15 584.66 C 743.62 582.57 744.94 580.37 746.21 578.15 L 746.27 578.10 C 748.27 579.04 750.48 579.18 752.63 578.65 C 759.94 577.10 767.35 576.08 774.68 574.59 C 791.05 572.78 807.00 568.30 823.37 566.44 C 832.39 564.95 841.38 563.22 850.36 561.49 C 863.03 560.35 875.36 557.00 887.92 555.15 C 895.24 554.44 902.41 552.78 909.65 551.57 C 925.73 548.42 942.00 546.44 958.03 542.98 C 971.18 541.41 984.14 538.62 997.18 536.38 C 1004.03 535.78 1010.74 534.22 1017.54 533.26 C 1017.79 533.03 1018.30 532.57 1018.55 532.34 Z" />
</g>
<g id="#618795c2">
<path fill="#618795" opacity="0.76" d=" M 1018.92 535.11 C 1020.69 535.04 1021.28 537.14 1020.34 538.40 C 1019.24 537.56 1018.77 536.46 1018.92 535.11 Z" />
</g>
<g id="#5a818fc0">
<path fill="#5a818f" opacity="0.75" d=" M 1020.09 539.08 C 1021.80 539.26 1022.01 541.27 1021.16 542.45 C 1019.97 541.53 1019.62 540.41 1020.09 539.08 Z" />
</g>
<g id="#4c8298ff">
<path fill="#4c8298" opacity="1.00" d=" M 1021.62 545.73 C 1023.27 545.96 1024.11 547.20 1024.33 548.78 C 1025.79 555.10 1027.55 561.36 1028.65 567.76 C 1033.00 567.65 1037.33 567.05 1041.67 566.58 C 1047.39 565.99 1052.92 563.79 1058.75 564.26 C 1059.05 563.94 1059.64 563.29 1059.94 562.97 C 1062.96 576.10 1065.87 589.26 1068.94 602.38 C 1065.26 604.21 1061.01 604.09 1057.04 604.77 C 1050.64 605.14 1044.40 606.56 1038.11 607.61 C 1035.35 601.12 1036.12 593.16 1031.26 587.69 L 1031.21 587.38 C 1032.03 586.22 1031.94 584.13 1030.15 584.09 L 1030.51 583.21 C 1031.61 581.87 1031.00 580.10 1029.36 579.65 L 1029.39 578.78 C 1029.39 578.68 1029.39 578.49 1029.39 578.40 L 1029.39 577.43 C 1029.99 576.08 1029.61 574.04 1027.76 574.20 L 1028.31 573.49 C 1029.88 571.95 1028.45 569.87 1026.93 569.02 C 1024.72 561.36 1023.33 553.50 1021.62 545.73 Z" />
</g>
<g id="#4f839cff">
<path fill="#4f839c" opacity="1.00" d=" M 760.21 552.20 C 761.24 550.74 762.86 549.90 764.28 548.89 C 762.26 552.28 760.28 555.70 758.13 559.02 C 757.80 559.53 757.15 560.56 756.82 561.08 C 753.38 566.80 749.90 572.50 746.27 578.10 L 746.21 578.15 C 743.58 579.34 742.55 581.98 742.15 584.66 C 736.11 594.91 729.70 604.95 723.43 615.06 C 724.23 615.55 725.03 616.04 725.85 616.54 C 725.06 617.85 725.51 618.24 727.20 617.71 C 728.77 618.61 730.34 619.54 731.92 620.48 C 731.13 621.82 731.57 622.20 733.25 621.62 C 734.25 622.27 735.26 622.95 736.27 623.64 C 736.15 625.63 738.14 627.04 739.94 625.96 C 741.01 626.62 742.13 627.25 743.27 627.84 C 743.57 628.50 744.15 629.83 744.44 630.49 C 727.49 635.11 709.84 636.41 692.59 639.57 C 690.51 639.96 688.49 640.54 686.48 641.15 C 679.18 636.74 672.03 632.11 664.69 627.79 C 675.12 611.25 685.69 594.79 696.18 578.28 L 696.34 578.26 C 696.68 578.22 697.36 578.14 697.70 578.09 C 706.03 576.16 714.43 574.42 722.97 573.75 C 730.06 573.01 736.96 571.07 744.04 570.23 C 746.35 569.80 749.25 569.83 750.60 567.51 C 754.01 562.54 756.75 557.13 760.21 552.20 Z" />
</g>
<g id="#7ba3b1d3">
<path fill="#7ba3b1" opacity="0.83" d=" M 756.82 561.08 C 757.15 560.56 757.80 559.53 758.13 559.02 C 757.80 559.53 757.15 560.56 756.82 561.08 Z" />
</g>
<g id="#6a8d9abe">
<path fill="#6a8d9a" opacity="0.75" d=" M 415.79 563.20 C 417.71 562.77 419.81 563.77 419.87 565.94 C 418.12 565.70 416.55 564.83 415.79 563.20 Z" />
</g>
<g id="#5a7a87ab">
<path fill="#5a7a87" opacity="0.67" d=" M 365.43 569.51 C 366.01 568.07 366.71 567.99 367.53 569.28 C 367.01 569.34 365.96 569.46 365.43 569.51 Z" />
</g>
<g id="#567480a2">
<path fill="#567480" opacity="0.64" d=" M 364.24 569.66 C 364.36 569.64 364.60 569.61 364.72 569.60 L 364.24 569.66 Z" />
</g>
<g id="#558090cf">
<path fill="#558090" opacity="0.81" d=" M 1026.93 569.02 C 1028.45 569.87 1029.88 571.95 1028.31 573.49 C 1026.67 572.61 1026.74 570.58 1026.93 569.02 Z" />
</g>
<g id="#6c8f9bbc">
<path fill="#6c8f9b" opacity="0.74" d=" M 356.08 571.95 C 356.19 570.23 358.20 569.90 359.42 570.73 C 358.54 571.93 357.43 572.34 356.08 571.95 Z" />
</g>
<g id="#70909bb5">
<path fill="#70909b" opacity="0.71" d=" M 359.91 570.90 C 360.83 569.87 362.00 569.50 363.39 569.79 C 362.49 571.09 361.33 571.46 359.91 570.90 Z" />
</g>
<g id="#6b909ec5">
<path fill="#6b909e" opacity="0.77" d=" M 352.02 572.90 C 351.35 570.57 354.08 570.73 355.34 571.69 C 354.46 572.89 353.35 573.30 352.02 572.90 Z" />
</g>
<g id="#6b8e9cc0">
<path fill="#6b8e9c" opacity="0.75" d=" M 346.07 574.00 C 347.17 572.05 349.42 571.53 351.31 572.67 C 350.00 574.15 347.91 574.48 346.07 574.00 Z" />
</g>
<g id="#577785ad">
<path fill="#577785" opacity="0.68" d=" M 343.54 574.60 C 343.79 573.16 344.44 572.93 345.51 573.91 C 345.01 574.08 344.03 574.42 343.54 574.60 Z" />
</g>
<g id="#557480a6">
<path fill="#557480" opacity="0.65" d=" M 342.35 574.78 C 342.46 574.76 342.67 574.72 342.78 574.70 L 342.35 574.78 Z" />
</g>
<g id="#91c8d7ff">
<path fill="#91c8d7" opacity="1.00" d=" M 986.02 580.20 C 997.49 578.95 1008.78 576.41 1020.10 574.26 C 1022.64 573.96 1025.20 574.28 1027.76 574.20 C 1027.62 575.60 1028.16 576.68 1029.39 577.43 L 1029.39 578.40 L 1029.39 578.78 L 1029.36 579.65 C 1029.09 581.05 1029.47 582.24 1030.51 583.21 L 1030.15 584.09 C 1029.67 585.38 1030.02 586.48 1031.21 587.38 L 1031.26 587.69 C 1032.51 594.21 1034.42 600.59 1035.68 607.13 C 1034.99 607.98 1034.21 608.72 1033.36 609.37 C 1024.32 611.46 1015.04 612.12 1005.97 614.01 C 996.86 615.63 987.80 617.59 978.59 618.55 C 971.49 619.66 964.51 621.39 957.41 622.48 C 950.63 623.99 943.67 624.27 936.89 625.74 C 925.52 627.91 914.17 630.28 902.66 631.56 C 894.25 633.39 885.73 634.58 877.33 636.48 C 864.98 637.54 852.93 640.67 840.70 642.58 C 826.34 644.13 812.32 647.83 798.04 649.89 C 793.42 650.27 788.88 651.23 784.36 652.20 C 785.21 652.99 786.09 653.79 786.93 654.63 L 786.04 655.38 C 776.64 649.67 767.48 643.58 758.20 637.70 C 754.52 635.47 750.87 633.21 747.28 630.85 C 746.98 630.59 746.38 630.08 746.08 629.83 C 745.35 628.88 744.38 628.19 743.27 627.84 C 742.13 627.25 741.01 626.62 739.94 625.96 C 739.59 625.49 738.90 624.54 738.55 624.07 C 740.57 623.05 742.68 622.17 744.93 621.81 C 753.99 620.16 763.02 618.32 772.18 617.32 C 794.53 613.05 817.03 609.74 839.37 605.42 C 851.73 604.26 863.74 600.88 876.03 599.23 C 889.43 597.73 902.46 593.98 915.88 592.64 C 927.06 590.61 938.25 588.63 949.40 586.44 C 961.75 585.27 973.76 582.00 986.02 580.20 Z" />
</g>
<g id="#547d8bc3">
<path fill="#547d8b" opacity="0.76" d=" M 1027.76 574.20 C 1029.61 574.04 1029.99 576.08 1029.39 577.43 C 1028.16 576.68 1027.62 575.60 1027.76 574.20 Z" />
</g>
<g id="#558092d4">
<path fill="#558092" opacity="0.83" d=" M 742.15 584.66 C 742.55 581.98 743.58 579.34 746.21 578.15 C 744.94 580.37 743.62 582.57 742.15 584.66 Z" />
</g>
<g id="#446876ad">
<path fill="#446876" opacity="0.68" d=" M 1029.39 578.40 C 1029.39 578.49 1029.39 578.68 1029.39 578.78 L 1029.39 578.40 Z" />
</g>
<g id="#537789c1">
<path fill="#537789" opacity="0.76" d=" M 440.71 579.39 C 442.99 578.39 445.11 580.02 445.69 582.23 C 443.73 581.88 442.04 580.84 440.71 579.39 Z" />
</g>
<g id="#487283c8">
<path fill="#487283" opacity="0.78" d=" M 1029.36 579.65 C 1031.00 580.10 1031.61 581.87 1030.51 583.21 C 1029.47 582.24 1029.09 581.05 1029.36 579.65 Z" />
</g>
<g id="#61828fb3">
<path fill="#61828f" opacity="0.70" d=" M 446.75 583.10 C 448.22 582.64 450.33 583.44 449.86 585.30 C 448.54 585.04 447.41 584.25 446.75 583.10 Z" />
</g>
<g id="#6a8d9bc0">
<path fill="#6a8d9b" opacity="0.75" d=" M 294.98 585.85 C 294.42 583.60 297.51 583.31 298.38 585.01 C 297.32 585.78 296.18 586.06 294.98 585.85 Z" />
</g>
<g id="#608996c2">
<path fill="#608996" opacity="0.76" d=" M 1030.15 584.09 C 1031.94 584.13 1032.03 586.22 1031.21 587.38 C 1030.02 586.48 1029.67 585.38 1030.15 584.09 Z" />
</g>
<g id="#6c8f9cbe">
<path fill="#6c8f9c" opacity="0.75" d=" M 290.59 586.71 C 290.89 584.56 292.99 584.68 294.42 585.68 C 293.38 586.84 292.10 587.19 290.59 586.71 Z" />
</g>
<g id="#5b7f8fbc">
<path fill="#5b7f8f" opacity="0.74" d=" M 286.38 587.09 C 286.99 587.02 288.21 586.87 288.82 586.80 L 288.09 587.50 C 287.66 587.40 286.80 587.19 286.38 587.09 Z" />
</g>
<g id="#4f6e7ca3">
<path fill="#4f6e7c" opacity="0.64" d=" M 289.41 586.72 C 289.51 586.72 289.72 586.70 289.83 586.70 L 289.41 586.72 Z" />
</g>
<g id="#5d808fbc">
<path fill="#5d808f" opacity="0.74" d=" M 282.62 588.64 C 283.00 586.95 284.77 586.47 286.20 587.21 C 285.40 588.40 284.00 588.85 282.62 588.64 Z" />
</g>
<g id="#608290b8">
<path fill="#608290" opacity="0.72" d=" M 278.41 589.47 C 279.07 587.81 281.00 587.15 282.23 588.66 C 281.04 589.35 279.77 589.61 278.41 589.47 Z" />
</g>
<g id="#597e8ec1">
<path fill="#597e8e" opacity="0.76" d=" M 272.81 590.80 C 272.77 588.51 275.28 588.53 276.59 589.75 C 275.56 590.73 274.18 591.02 272.81 590.80 Z" />
</g>
<g id="#5b7983a1">
<path fill="#5b7983" opacity="0.63" d=" M 277.31 589.60 C 277.41 589.58 277.63 589.54 277.74 589.52 L 277.31 589.60 Z" />
</g>
<g id="#5c7f8fbc">
<path fill="#5c7f8f" opacity="0.74" d=" M 229.76 600.67 C 229.66 599.13 230.19 598.91 231.34 600.01 C 230.95 600.17 230.15 600.50 229.76 600.67 Z" />
</g>
<g id="#5c7e8bb3">
<path fill="#5c7e8b" opacity="0.70" d=" M 471.67 599.08 C 473.26 598.65 474.88 599.53 475.05 601.26 C 473.58 601.18 472.35 600.34 471.67 599.08 Z" />
</g>
<g id="#51849eff">
<path fill="#51849e" opacity="1.00" d=" M 521.64 605.56 C 531.59 604.29 541.72 603.38 551.38 600.60 L 551.79 600.47 C 566.90 610.27 582.47 619.36 597.53 629.23 C 591.52 631.18 585.13 630.82 579.00 632.12 C 571.09 633.81 563.09 634.97 555.12 636.32 C 550.01 637.14 544.68 636.80 539.85 638.89 C 537.40 640.20 534.82 638.72 532.46 637.99 C 532.03 637.79 531.16 637.39 530.73 637.19 C 530.96 634.96 528.65 633.38 526.68 634.53 C 519.70 630.26 512.69 625.98 506.06 621.17 C 505.84 619.63 504.32 618.32 502.79 619.19 C 502.54 618.81 502.05 618.05 501.81 617.67 C 500.96 616.00 499.22 615.09 497.43 614.86 L 496.84 614.97 C 494.36 613.97 492.06 612.62 489.88 611.12 C 500.44 609.15 511.10 607.68 521.64 605.56 Z" />
</g>
<g id="#85bfd0ff">
<path fill="#85bfd0" opacity="1.00" d=" M 1035.68 607.13 C 1039.39 622.51 1042.56 638.01 1046.05 653.45 C 1044.48 652.22 1043.35 649.59 1041.01 650.04 C 1031.33 651.45 1021.77 653.63 1012.13 655.28 C 1001.53 656.46 991.10 658.74 980.61 660.59 C 974.34 661.98 967.87 662.16 961.59 663.52 C 950.58 665.84 939.51 667.89 928.37 669.40 C 916.07 671.18 904.03 674.46 891.64 675.53 C 873.25 679.48 854.55 681.68 836.10 685.32 C 837.52 686.52 839.12 687.71 839.59 689.64 C 835.90 687.70 832.51 685.30 829.05 683.01 C 817.61 675.67 806.12 668.42 794.66 661.13 C 791.72 659.29 788.89 657.31 786.04 655.38 L 786.93 654.63 C 786.09 653.79 785.21 652.99 784.36 652.20 C 788.88 651.23 793.42 650.27 798.04 649.89 C 812.32 647.83 826.34 644.13 840.70 642.58 C 852.93 640.67 864.98 637.54 877.33 636.48 C 885.73 634.58 894.25 633.39 902.66 631.56 C 914.17 630.28 925.52 627.91 936.89 625.74 C 943.67 624.27 950.63 623.99 957.41 622.48 C 964.51 621.39 971.49 619.66 978.59 618.55 C 987.80 617.59 996.86 615.63 1005.97 614.01 C 1015.04 612.12 1024.32 611.46 1033.36 609.37 C 1034.21 608.72 1034.99 607.98 1035.68 607.13 Z" />
</g>
<g id="#3d6373b8">
<path fill="#3d6373" opacity="0.72" d=" M 727.20 617.71 C 725.51 618.24 725.06 617.85 725.85 616.54 C 726.19 616.83 726.86 617.42 727.20 617.71 Z" />
</g>
<g id="#628490b3">
<path fill="#628490" opacity="0.70" d=" M 502.79 619.19 C 504.32 618.32 505.84 619.63 506.06 621.17 C 504.73 621.02 503.33 620.51 502.79 619.19 Z" />
</g>
<g id="#406b7dcd">
<path fill="#406b7d" opacity="0.80" d=" M 733.25 621.62 C 731.57 622.20 731.13 621.82 731.92 620.48 C 732.25 620.76 732.92 621.33 733.25 621.62 Z" />
</g>
<g id="#4f7282b6">
<path fill="#4f7282" opacity="0.71" d=" M 232.75 623.66 C 232.73 623.56 232.71 623.35 232.69 623.24 L 232.75 623.66 Z" />
</g>
<g id="#4f7988c8">
<path fill="#4f7988" opacity="0.78" d=" M 736.27 623.64 C 736.84 623.75 737.98 623.96 738.55 624.07 C 738.90 624.54 739.59 625.49 739.94 625.96 C 738.14 627.04 736.15 625.63 736.27 623.64 Z" />
</g>
<g id="#4f707eaa">
<path fill="#4f707e" opacity="0.67" d=" M 233.70 626.13 C 232.32 626.37 232.04 625.79 232.86 624.38 L 233.65 625.14 L 233.70 626.13 Z" />
</g>
<g id="#597f91c8">
<path fill="#597f91" opacity="0.78" d=" M 234.72 630.38 C 232.72 630.18 232.22 628.02 233.73 626.82 C 234.31 627.93 234.64 629.12 234.72 630.38 Z" />
</g>
<g id="#517886bc">
<path fill="#517886" opacity="0.74" d=" M 743.27 627.84 C 744.38 628.19 745.35 628.88 746.08 629.83 C 745.67 629.99 744.85 630.32 744.44 630.49 C 744.15 629.83 743.57 628.50 743.27 627.84 Z" />
</g>
<g id="#4d8299ff">
<path fill="#4d8299" opacity="1.00" d=" M 597.53 629.23 L 597.80 629.16 C 602.41 632.18 607.14 635.01 611.83 637.93 C 605.70 647.31 599.63 656.74 593.69 666.25 L 593.38 666.26 C 587.69 666.26 582.19 667.85 576.60 668.60 C 564.96 669.57 553.59 672.39 542.04 674.00 C 546.08 666.42 551.29 659.52 555.19 651.87 C 554.85 651.73 554.18 651.45 553.85 651.31 C 553.53 651.18 552.90 650.92 552.59 650.79 C 551.10 648.59 548.77 647.41 546.21 646.99 C 544.59 646.10 542.98 645.20 541.43 644.21 C 538.41 642.18 535.30 640.28 532.46 637.99 C 534.82 638.72 537.40 640.20 539.85 638.89 C 544.68 636.80 550.01 637.14 555.12 636.32 C 563.09 634.97 571.09 633.81 579.00 632.12 C 585.13 630.82 591.52 631.18 597.53 629.23 Z" />
</g>
<g id="#4a8095ff">
<path fill="#4a8095" opacity="1.00" d=" M 744.44 630.49 C 744.85 630.32 745.67 629.99 746.08 629.83 C 746.38 630.08 746.98 630.59 747.28 630.85 C 750.61 633.58 754.35 635.78 758.20 637.70 C 767.48 643.58 776.64 649.67 786.04 655.38 C 788.89 657.31 791.72 659.29 794.66 661.13 C 794.34 662.38 794.75 663.46 795.96 664.00 C 799.82 666.71 803.83 669.20 807.85 671.68 C 800.39 674.29 792.36 674.50 784.59 675.56 C 773.61 677.74 762.53 679.29 751.57 681.54 C 729.80 668.21 708.14 654.67 686.48 641.15 C 688.49 640.54 690.51 639.96 692.59 639.57 C 709.84 636.41 727.49 635.11 744.44 630.49 Z" />
</g>
<g id="#587d8bbc">
<path fill="#587d8b" opacity="0.74" d=" M 526.68 634.53 C 528.65 633.38 530.96 634.96 530.73 637.19 C 529.16 636.66 527.81 635.70 526.68 634.53 Z" />
</g>
<g id="#a4d5e2ff">
<path fill="#a4d5e2" opacity="1.00" d=" M 541.43 644.21 C 542.98 645.20 544.59 646.10 546.21 646.99 C 548.14 648.55 550.22 649.96 552.59 650.79 C 552.90 650.92 553.53 651.18 553.85 651.31 C 547.12 661.66 540.70 672.23 534.13 682.69 C 529.25 682.09 524.58 683.93 519.84 684.66 C 512.26 685.83 504.83 687.89 497.14 688.29 C 485.82 690.39 474.54 692.89 463.09 694.17 C 451.66 695.95 440.42 698.81 428.92 700.07 C 414.11 702.27 399.55 706.04 384.65 707.51 C 376.01 709.27 367.33 710.83 358.67 712.47 C 347.05 713.74 335.65 716.40 324.13 718.33 C 307.97 720.05 292.26 724.58 276.10 726.32 C 270.59 727.25 265.10 728.35 259.58 729.26 C 259.10 730.68 258.63 732.10 258.20 733.55 C 257.57 730.73 256.72 727.98 255.94 725.21 C 254.63 716.12 251.62 707.37 250.26 698.29 C 251.06 696.94 251.05 694.34 253.08 694.36 C 267.55 692.77 281.69 688.99 296.16 687.36 C 306.67 685.53 317.11 683.32 327.64 681.61 C 339.39 680.28 350.93 677.63 362.56 675.56 C 373.51 674.47 384.23 671.95 395.04 669.99 C 409.84 668.10 424.46 665.03 439.14 662.41 C 452.54 661.03 465.57 657.28 478.97 655.80 C 492.08 653.95 504.94 650.61 518.13 649.32 C 525.83 647.30 534.01 647.23 541.43 644.21 Z" />
</g>
<g id="#537a89c4">
<path fill="#537a89" opacity="0.77" d=" M 546.21 646.99 C 548.77 647.41 551.10 648.59 552.59 650.79 C 550.22 649.96 548.14 648.55 546.21 646.99 Z" />
</g>
<g id="#7bb8caff">
<path fill="#7bb8ca" opacity="1.00" d=" M 1012.13 655.28 C 1021.77 653.63 1031.33 651.45 1041.01 650.04 C 1043.35 649.59 1044.48 652.22 1046.05 653.45 C 1046.99 657.61 1047.97 661.76 1048.92 665.93 C 1014.38 673.48 979.97 681.65 945.46 689.35 C 939.11 691.47 932.39 691.94 925.99 693.87 C 919.14 695.48 912.27 697.00 905.40 698.52 C 893.69 701.63 881.65 703.32 870.03 706.78 C 868.79 706.93 867.38 707.82 866.26 706.90 C 857.39 701.12 848.34 695.59 839.59 689.64 C 839.12 687.71 837.52 686.52 836.10 685.32 C 854.55 681.68 873.25 679.48 891.64 675.53 C 904.03 674.46 916.07 671.18 928.37 669.40 C 939.51 667.89 950.58 665.84 961.59 663.52 C 967.87 662.16 974.34 661.98 980.61 660.59 C 991.10 658.74 1001.53 656.46 1012.13 655.28 Z" />
</g>
<g id="#50849cff">
<path fill="#50849c" opacity="1.00" d=" M 239.41 650.85 C 241.25 659.75 243.68 668.52 245.28 677.47 C 244.10 678.69 244.29 679.24 245.87 679.13 C 246.11 680.68 246.37 682.26 246.63 683.83 C 246.96 686.07 247.32 688.32 247.62 690.58 C 246.81 694.26 247.81 697.95 247.96 701.64 C 237.81 703.30 227.63 704.88 217.57 707.02 C 214.24 692.58 211.07 678.11 207.58 663.72 L 207.73 663.39 C 208.37 662.00 209.00 660.60 209.62 659.21 C 218.75 656.64 228.23 656.13 237.55 654.70 C 238.16 653.41 238.79 652.12 239.41 650.85 Z" />
</g>
<g id="#497f94ff">
<path fill="#497f94" opacity="1.00" d=" M 553.85 651.31 C 554.18 651.45 554.85 651.73 555.19 651.87 C 551.29 659.52 546.08 666.42 542.04 674.00 C 553.59 672.39 564.96 669.57 576.60 668.60 C 582.19 667.85 587.69 666.26 593.38 666.26 C 581.07 686.40 568.06 706.14 555.35 726.04 C 545.93 726.64 536.73 728.95 527.42 730.41 C 520.04 731.93 512.45 731.98 505.14 733.85 C 508.66 726.99 512.83 720.50 516.98 714.02 C 517.94 712.88 517.41 711.40 517.35 710.10 C 520.04 704.86 523.56 700.11 526.66 695.11 C 529.06 693.56 530.73 691.29 530.95 688.37 C 531.98 686.46 533.03 684.56 534.13 682.69 C 540.70 672.23 547.12 661.66 553.85 651.31 Z" />
</g>
<g id="#496a78aa">
<path fill="#496a78" opacity="0.67" d=" M 245.87 679.13 C 244.29 679.24 244.10 678.69 245.28 677.47 C 245.43 677.88 245.72 678.71 245.87 679.13 Z" />
</g>
<g id="#97cbdaff">
<path fill="#97cbda" opacity="1.00" d=" M 519.84 684.66 C 524.58 683.93 529.25 682.09 534.13 682.69 C 533.03 684.56 531.98 686.46 530.95 688.37 C 529.30 690.48 527.87 692.73 526.66 695.11 C 523.56 700.11 520.04 704.86 517.35 710.10 C 515.49 712.88 513.61 715.64 511.86 718.48 C 511.69 717.66 511.52 716.84 511.35 716.04 C 504.65 717.40 497.92 718.65 491.11 719.34 C 479.95 721.43 468.74 723.31 457.60 725.53 C 445.24 726.58 433.21 729.90 420.97 731.76 C 412.24 732.65 403.68 734.61 395.04 736.08 C 387.72 737.78 380.15 737.93 372.85 739.75 C 361.93 741.60 351.14 744.20 340.11 745.37 C 330.06 747.07 320.05 749.06 310.01 750.75 C 300.44 751.57 291.15 754.12 281.68 755.60 C 275.82 757.01 269.66 756.81 263.95 758.88 C 261.87 750.47 259.73 742.07 258.20 733.55 C 258.63 732.10 259.10 730.68 259.58 729.26 C 265.10 728.35 270.59 727.25 276.10 726.32 C 292.26 724.58 307.97 720.05 324.13 718.33 C 335.65 716.40 347.05 713.74 358.67 712.47 C 367.33 710.83 376.01 709.27 384.65 707.51 C 399.55 706.04 414.11 702.27 428.92 700.07 C 440.42 698.81 451.66 695.95 463.09 694.17 C 474.54 692.89 485.82 690.39 497.14 688.29 C 504.83 687.89 512.26 685.83 519.84 684.66 Z" />
</g>
<g id="#4a7989da">
<path fill="#4a7989" opacity="0.85" d=" M 526.66 695.11 C 527.87 692.73 529.30 690.48 530.95 688.37 C 530.73 691.29 529.06 693.56 526.66 695.11 Z" />
</g>
<g id="#4b8197ff">
<path fill="#4b8197" opacity="1.00" d=" M 247.62 690.58 C 248.10 692.10 248.62 693.60 249.25 695.08 C 249.60 696.13 249.93 697.20 250.26 698.29 C 251.62 707.37 254.63 716.12 255.94 725.21 C 255.10 722.75 254.21 720.31 253.28 717.90 C 253.37 725.72 256.02 733.24 257.64 740.83 C 247.26 742.58 236.95 744.80 226.46 745.72 C 223.48 732.82 220.54 719.92 217.57 707.02 C 227.63 704.88 237.81 703.30 247.96 701.64 C 247.81 697.95 246.81 694.26 247.62 690.58 Z" />
</g>
<g id="#8bc3d3ff">
<path fill="#8bc3d3" opacity="1.00" d=" M 491.11 719.34 C 497.92 718.65 504.65 717.40 511.35 716.04 C 511.52 716.84 511.69 717.66 511.86 718.48 C 505.05 730.47 497.58 742.07 490.25 753.76 C 489.93 752.80 489.61 751.85 489.29 750.90 C 478.54 752.09 467.98 754.67 457.31 756.42 C 442.08 758.11 427.22 762.07 412.02 764.04 C 399.06 765.74 386.37 769.12 373.36 770.43 C 364.46 772.23 355.51 773.73 346.63 775.54 C 335.30 776.55 324.26 779.40 313.03 781.14 C 303.75 783.18 294.20 783.60 284.96 785.88 C 280.25 787.17 274.71 786.51 270.85 789.96 C 268.52 779.60 265.65 769.36 263.95 758.88 C 269.66 756.81 275.82 757.01 281.68 755.60 C 291.15 754.12 300.44 751.57 310.01 750.75 C 320.05 749.06 330.06 747.07 340.11 745.37 C 351.14 744.20 361.93 741.60 372.85 739.75 C 380.15 737.93 387.72 737.78 395.04 736.08 C 403.68 734.61 412.24 732.65 420.97 731.76 C 433.21 729.90 445.24 726.58 457.60 725.53 C 468.74 723.31 479.95 721.43 491.11 719.34 Z" />
</g>
<g id="#698c96b7">
<path fill="#698c96" opacity="0.72" d=" M 651.33 723.05 C 649.98 721.96 651.64 719.23 653.17 720.28 C 652.90 721.39 652.23 722.34 651.33 723.05 Z" />
</g>
<g id="#648993c0">
<path fill="#648993" opacity="0.75" d=" M 644.43 732.28 L 645.34 732.30 C 645.05 732.74 644.46 733.62 644.17 734.06 L 643.83 733.19 L 644.43 732.28 Z" />
</g>
<g id="#7ebaccff">
<path fill="#7ebacc" opacity="1.00" d=" M 457.31 756.42 C 467.98 754.67 478.54 752.09 489.29 750.90 C 489.61 751.85 489.93 752.80 490.25 753.76 C 482.29 767.08 473.88 780.12 465.80 793.37 C 465.64 792.20 465.48 791.03 465.33 789.87 C 456.14 790.97 447.14 793.32 437.99 794.67 C 430.07 795.11 422.45 797.46 414.61 798.53 C 404.42 800.69 394.03 801.60 383.82 803.68 C 368.32 807.08 352.52 808.72 336.98 811.95 C 328.76 813.84 320.28 814.14 312.06 816.03 C 301.62 818.33 291.03 819.74 280.48 821.32 C 279.91 822.32 279.35 823.32 278.79 824.34 C 275.97 812.92 273.16 801.49 270.85 789.96 C 274.71 786.51 280.25 787.17 284.96 785.88 C 294.20 783.60 303.75 783.18 313.03 781.14 C 324.26 779.40 335.30 776.55 346.63 775.54 C 355.51 773.73 364.46 772.23 373.36 770.43 C 386.37 769.12 399.06 765.74 412.02 764.04 C 427.22 762.07 442.08 758.11 457.31 756.42 Z" />
</g>
<g id="#74b3c6ff">
<path fill="#74b3c6" opacity="1.00" d=" M 437.99 794.67 C 447.14 793.32 456.14 790.97 465.33 789.87 C 465.48 791.03 465.64 792.20 465.80 793.37 C 464.78 794.80 464.16 796.99 462.06 797.01 C 408.65 808.95 355.38 821.51 301.94 833.32 C 295.22 835.16 288.38 836.54 281.55 837.93 C 280.75 833.37 279.71 828.87 278.79 824.34 C 279.35 823.32 279.91 822.32 280.48 821.32 C 291.03 819.74 301.62 818.33 312.06 816.03 C 320.28 814.14 328.76 813.84 336.98 811.95 C 352.52 808.72 368.32 807.08 383.82 803.68 C 394.03 801.60 404.42 800.69 414.61 798.53 C 422.45 797.46 430.07 795.11 437.99 794.67 Z" />
<path fill="#74b3c6" opacity="1.00" d=" M 730.58 952.50 C 760.50 936.27 790.65 920.40 820.37 903.81 C 821.17 905.17 821.98 906.53 822.81 907.90 C 822.90 907.55 823.06 906.85 823.14 906.50 L 823.30 905.85 C 825.51 914.91 827.40 924.04 829.40 933.15 C 829.82 935.03 830.49 936.92 830.36 938.90 C 829.57 937.93 828.77 937.00 827.99 936.07 C 811.35 945.57 794.27 954.29 777.43 963.43 C 743.78 981.40 710.34 999.77 676.81 1017.95 C 671.58 1020.87 666.05 1023.28 661.03 1026.58 C 662.11 1026.94 663.21 1027.29 664.33 1027.64 C 654.11 1030.63 643.64 1032.66 633.31 1035.25 C 623.80 1037.01 614.53 1039.90 604.95 1041.35 C 604.23 1037.40 602.24 1033.56 602.57 1029.50 C 602.97 1027.02 602.93 1024.50 602.54 1022.03 C 605.58 1019.76 608.91 1017.92 612.34 1016.32 C 646.68 997.71 680.93 978.95 715.43 960.62 C 720.70 958.32 725.23 954.65 730.58 952.50 Z" />
</g>
<g id="#47717ec3">
<path fill="#47717e" opacity="0.76" d=" M 799.94 805.05 C 801.54 803.48 803.20 807.19 800.95 807.35 C 800.70 806.77 800.19 805.63 799.94 805.05 Z" />
</g>
<g id="#98ccdbff">
<path fill="#98ccdb" opacity="1.00" d=" M 801.35 811.44 L 801.82 811.00 C 801.88 811.77 801.99 813.31 802.05 814.08 C 802.01 815.24 802.33 816.31 803.01 817.30 C 803.42 818.01 803.67 818.78 803.74 819.62 C 803.17 820.85 803.57 822.20 804.63 823.04 L 804.67 823.58 C 804.43 825.58 805.19 827.47 805.81 829.35 C 806.24 830.99 806.52 832.68 806.81 834.38 C 806.94 835.38 807.19 836.38 807.56 837.36 C 808.64 841.04 809.20 844.87 809.73 848.68 C 808.95 847.54 808.13 846.44 807.34 845.34 C 804.50 846.25 801.82 847.59 799.35 849.25 C 758.77 870.90 718.54 893.23 677.94 914.86 C 648.42 930.69 618.95 946.63 589.37 962.35 C 589.16 963.56 588.94 964.79 588.74 966.02 C 588.29 965.27 587.85 964.53 587.44 963.79 C 586.33 959.10 585.02 954.41 584.20 949.66 C 584.20 948.39 583.85 947.19 583.37 946.07 C 582.66 943.77 582.00 941.46 581.54 939.12 C 581.52 937.38 581.36 935.61 580.39 934.14 L 579.96 933.34 C 580.16 933.06 580.56 932.50 580.76 932.22 C 580.97 931.49 581.39 930.03 581.60 929.30 C 608.25 915.56 634.47 900.98 660.95 886.93 C 700.62 865.65 740.06 843.95 779.74 822.70 C 786.65 819.14 793.20 814.77 800.57 812.17 C 800.77 811.99 801.16 811.62 801.35 811.44 Z" />
</g>
<g id="#588390ce">
<path fill="#588390" opacity="0.81" d=" M 802.05 814.08 C 804.20 812.43 805.53 817.14 803.01 817.30 C 802.33 816.31 802.01 815.24 802.05 814.08 Z" />
</g>
<g id="#537c88c0">
<path fill="#537c88" opacity="0.75" d=" M 804.63 823.04 C 803.57 822.20 803.17 820.85 803.74 819.62 C 805.37 820.41 805.67 821.55 804.63 823.04 Z" />
</g>
<g id="#60848fba">
<path fill="#60848f" opacity="0.73" d=" M 583.51 827.27 L 584.43 827.32 C 584.12 827.75 583.51 828.61 583.20 829.04 L 582.88 828.15 L 583.51 827.27 Z" />
</g>
<g id="#4a7582c6">
<path fill="#4a7582" opacity="0.78" d=" M 806.81 834.38 C 808.59 833.42 809.63 837.36 807.56 837.36 C 807.19 836.38 806.94 835.38 806.81 834.38 Z" />
</g>
<g id="#8cc4d4ff">
<path fill="#8cc4d4" opacity="1.00" d=" M 799.35 849.25 C 801.82 847.59 804.50 846.25 807.34 845.34 C 808.13 846.44 808.95 847.54 809.73 848.68 C 812.14 855.04 812.64 861.99 814.74 868.48 C 814.82 868.98 814.99 869.98 815.07 870.48 L 815.06 871.13 C 814.78 872.37 815.10 873.40 816.04 874.23 L 816.06 875.35 C 816.12 875.95 816.24 877.15 816.30 877.75 C 815.62 876.96 814.95 876.18 814.29 875.40 C 807.21 878.26 800.85 882.56 794.02 885.94 C 757.67 905.57 721.11 924.88 684.95 944.89 C 667.44 954.00 650.32 963.88 632.72 972.82 C 620.82 979.66 608.60 985.97 596.41 992.29 C 596.04 993.98 595.68 995.68 595.39 997.41 L 594.86 995.93 C 594.67 995.58 594.30 994.89 594.11 994.55 L 593.79 994.09 C 593.28 991.19 592.80 988.28 592.07 985.43 C 591.33 980.79 590.10 976.26 589.14 971.68 C 588.98 970.63 588.70 969.64 588.32 968.69 C 587.67 967.13 587.54 965.44 587.44 963.79 C 587.85 964.53 588.29 965.27 588.74 966.02 C 588.94 964.79 589.16 963.56 589.37 962.35 C 618.95 946.63 648.42 930.69 677.94 914.86 C 718.54 893.23 758.77 870.90 799.35 849.25 Z" />
</g>
<g id="#61848eb8">
<path fill="#61848e" opacity="0.72" d=" M 564.28 863.25 C 565.06 864.78 565.62 866.45 565.50 868.20 C 563.35 867.84 562.96 864.65 564.28 863.25 Z" />
</g>
<g id="#4a707ba7">
<path fill="#4a707b" opacity="0.65" d=" M 815.07 870.48 C 814.99 869.98 814.82 868.98 814.74 868.48 L 815.62 868.87 L 815.78 869.90 L 815.07 870.48 Z" />
</g>
<g id="#5d7d86a7">
<path fill="#5d7d86" opacity="0.65" d=" M 565.33 871.06 L 566.04 870.50 C 566.11 871.00 566.26 872.01 566.33 872.52 L 565.47 872.10 L 565.33 871.06 Z" />
</g>
<g id="#507f8dd0">
<path fill="#507f8d" opacity="0.82" d=" M 815.06 871.13 C 817.11 869.64 818.50 874.11 816.04 874.23 C 815.10 873.40 814.78 872.37 815.06 871.13 Z" />
</g>
<g id="#80bccdff">
<path fill="#80bccd" opacity="1.00" d=" M 794.02 885.94 C 800.85 882.56 807.21 878.26 814.29 875.40 C 814.95 876.18 815.62 876.96 816.30 877.75 L 816.74 878.28 L 817.26 879.05 C 817.23 880.08 817.42 881.07 817.86 882.04 L 818.20 883.35 L 818.31 883.84 C 819.77 891.42 822.43 898.78 823.14 906.50 C 823.06 906.85 822.90 907.55 822.81 907.90 C 821.98 906.53 821.17 905.17 820.37 903.81 C 790.65 920.40 760.50 936.27 730.58 952.50 C 725.23 954.65 720.70 958.32 715.43 960.62 C 680.93 978.95 646.68 997.71 612.34 1016.32 C 608.91 1017.92 605.58 1019.76 602.54 1022.03 C 602.93 1024.50 602.97 1027.02 602.57 1029.50 C 600.11 1021.27 598.43 1012.82 596.30 1004.50 C 596.29 1003.99 596.25 1002.96 596.23 1002.45 C 595.69 1000.82 595.26 999.12 595.39 997.41 C 595.68 995.68 596.04 993.98 596.41 992.29 C 608.60 985.97 620.82 979.66 632.72 972.82 C 650.32 963.88 667.44 954.00 684.95 944.89 C 721.11 924.88 757.67 905.57 794.02 885.94 Z" />
</g>
<g id="#55818fc4">
<path fill="#55818f" opacity="0.77" d=" M 816.06 875.35 C 817.69 874.53 818.68 878.23 816.74 878.28 L 816.30 877.75 C 816.24 877.15 816.12 875.95 816.06 875.35 Z" />
</g>
<g id="#31515b8f">
<path fill="#31515b" opacity="0.56" d=" M 818.20 883.35 C 818.22 883.47 818.28 883.72 818.31 883.84 L 818.20 883.35 Z" />
</g>
<g id="#4f7884c1">
<path fill="#4f7884" opacity="0.76" d=" M 576.41 917.99 C 577.79 918.48 577.64 920.14 577.36 921.31 C 575.71 920.51 575.39 919.41 576.41 917.99 Z" />
</g>
<g id="#58828fc9">
<path fill="#58828f" opacity="0.79" d=" M 579.01 926.74 C 577.05 928.08 575.75 923.79 578.11 923.72 C 578.66 924.64 578.96 925.65 579.01 926.74 Z" />
</g>
<g id="#5e8692c2">
<path fill="#5e8692" opacity="0.76" d=" M 579.49 930.08 C 579.95 930.75 580.38 931.46 580.76 932.22 C 580.56 932.50 580.16 933.06 579.96 933.34 C 578.53 932.49 578.37 931.40 579.49 930.08 Z" />
</g>
<g id="#517b88c7">
<path fill="#517b88" opacity="0.78" d=" M 580.39 934.14 C 581.36 935.61 581.52 937.38 581.54 939.12 C 579.50 938.60 578.97 935.52 580.39 934.14 Z" />
</g>
<g id="#69abbfff">
<path fill="#69abbf" opacity="1.00" d=" M 777.43 963.43 C 794.27 954.29 811.35 945.57 827.99 936.07 C 828.77 937.00 829.57 937.93 830.36 938.90 C 831.70 940.68 831.81 942.98 832.25 945.09 C 833.69 953.05 836.10 960.86 837.26 968.84 L 837.07 969.99 C 836.40 968.99 835.75 967.99 835.11 967.00 C 813.89 978.72 792.46 990.06 771.11 1001.56 C 772.18 1001.94 773.26 1002.30 774.36 1002.67 C 761.46 1006.33 748.21 1008.54 735.27 1012.04 C 726.84 1013.53 718.50 1015.54 710.22 1017.68 C 697.77 1020.26 685.50 1023.59 673.02 1026.01 C 670.16 1026.70 667.35 1028.02 664.33 1027.64 C 663.21 1027.29 662.11 1026.94 661.03 1026.58 C 666.05 1023.28 671.58 1020.87 676.81 1017.95 C 710.34 999.77 743.78 981.40 777.43 963.43 Z" />
</g>
<g id="#628d9acc">
<path fill="#628d9a" opacity="0.80" d=" M 583.37 946.07 C 583.85 947.19 584.20 948.39 584.20 949.66 C 582.31 950.15 582.01 946.84 583.37 946.07 Z" />
</g>
<g id="#5fa4baff">
<path fill="#5fa4ba" opacity="1.00" d=" M 771.11 1001.56 C 792.46 990.06 813.89 978.72 835.11 967.00 C 835.75 967.99 836.40 968.99 837.07 969.99 L 837.26 968.84 C 838.22 971.14 838.91 973.57 838.98 976.09 C 839.24 976.65 839.76 977.76 840.02 978.32 L 839.91 979.34 C 839.78 980.41 840.04 981.41 840.68 982.35 C 840.86 983.09 841.21 984.56 841.39 985.30 C 841.43 985.40 841.50 985.59 841.54 985.69 L 842.09 986.71 C 841.74 986.96 841.03 987.45 840.68 987.70 C 840.01 987.86 838.66 988.19 837.98 988.35 C 836.98 988.50 836.00 988.72 835.06 989.03 L 833.96 989.29 C 832.97 989.45 832.02 989.70 831.09 990.04 C 829.96 990.39 828.83 990.71 827.69 990.98 L 827.20 991.08 L 826.15 991.23 C 825.77 991.31 825.02 991.47 824.64 991.56 C 823.65 991.88 822.59 992.02 821.61 992.29 C 821.53 992.31 821.39 992.34 821.32 992.36 C 820.11 992.60 818.90 992.85 817.70 993.06 L 817.21 993.14 L 816.07 993.30 C 815.72 993.45 815.01 993.75 814.65 993.89 C 813.94 993.97 812.53 994.14 811.83 994.22 C 810.05 994.53 808.34 995.13 806.61 995.61 L 805.64 995.83 C 805.04 995.93 803.83 996.14 803.22 996.25 C 802.63 996.38 801.45 996.64 800.87 996.77 C 797.44 997.44 794.08 998.36 790.68 999.12 L 790.02 999.27 C 787.82 999.74 785.67 1000.36 783.50 1000.91 L 782.54 1001.07 C 781.02 1001.22 779.53 1001.53 778.10 1002.03 C 776.88 1002.36 775.63 1002.74 774.36 1002.67 C 773.26 1002.30 772.18 1001.94 771.11 1001.56 Z" />
</g>
<g id="#4b7683c5">
<path fill="#4b7683" opacity="0.77" d=" M 589.14 971.68 C 587.36 972.57 586.25 968.69 588.32 968.69 C 588.70 969.64 588.98 970.63 589.14 971.68 Z" />
</g>
<g id="#3f7181d3">
<path fill="#3f7181" opacity="0.83" d=" M 838.98 976.09 C 840.56 974.49 842.25 978.15 840.02 978.32 C 839.76 977.76 839.24 976.65 838.98 976.09 Z" />
</g>
<g id="#407384da">
<path fill="#407384" opacity="0.85" d=" M 839.91 979.34 C 841.87 978.10 843.00 982.31 840.68 982.35 C 840.04 981.41 839.78 980.41 839.91 979.34 Z" />
</g>
<g id="#396473aa">
<path fill="#396473" opacity="0.67" d=" M 841.39 985.30 C 841.43 985.40 841.50 985.59 841.54 985.69 C 841.50 985.59 841.43 985.40 841.39 985.30 Z" />
</g>
<g id="#315865ae">
<path fill="#315865" opacity="0.68" d=" M 840.68 987.70 C 841.03 987.45 841.74 986.96 842.09 986.71 C 845.17 987.30 840.84 990.79 840.68 987.70 Z" />
</g>
<g id="#386472bc">
<path fill="#386472" opacity="0.74" d=" M 835.06 989.03 C 836.00 988.72 836.98 988.50 837.98 988.35 C 839.05 990.17 834.95 991.13 835.06 989.03 Z" />
</g>
<g id="#3e6f7ed0">
<path fill="#3e6f7e" opacity="0.82" d=" M 831.09 990.04 C 832.02 989.70 832.97 989.45 833.96 989.29 C 835.01 991.12 830.97 992.17 831.09 990.04 Z" />
</g>
<g id="#366271c0">
<path fill="#366271" opacity="0.75" d=" M 824.64 991.56 C 825.02 991.47 825.77 991.31 826.15 991.23 C 826.10 992.88 825.60 992.99 824.64 991.56 Z" />
</g>
<g id="#2e5460a6">
<path fill="#2e5460" opacity="0.65" d=" M 827.20 991.08 L 827.69 990.98 C 827.57 991.01 827.33 991.05 827.20 991.08 Z" />
</g>
<g id="#325966a2">
<path fill="#325966" opacity="0.64" d=" M 821.32 992.36 C 821.39 992.34 821.53 992.31 821.61 992.29 C 821.53 992.31 821.39 992.34 821.32 992.36 Z" />
</g>
<g id="#386473b8">
<path fill="#386473" opacity="0.72" d=" M 814.65 993.89 C 815.01 993.75 815.72 993.45 816.07 993.30 C 816.19 994.95 815.71 995.15 814.65 993.89 Z" />
</g>
<g id="#335b68a7">
<path fill="#335b68" opacity="0.65" d=" M 817.21 993.14 L 817.70 993.06 C 817.58 993.08 817.33 993.12 817.21 993.14 Z" />
</g>
<g id="#427586d5">
<path fill="#427586" opacity="0.84" d=" M 806.61 995.61 C 808.34 995.13 810.05 994.53 811.83 994.22 C 811.94 994.59 812.15 995.34 812.25 995.72 C 810.47 995.88 808.71 996.18 806.98 996.61 L 806.61 995.61 Z" />
</g>
<g id="#3d626ea7">
<path fill="#3d626e" opacity="0.65" d=" M 594.86 995.93 C 593.18 996.18 592.93 995.72 594.11 994.55 C 594.30 994.89 594.67 995.58 594.86 995.93 Z" />
</g>
<g id="#3e6e7fcf">
<path fill="#3e6e7f" opacity="0.81" d=" M 803.22 996.25 C 803.83 996.14 805.04 995.93 805.64 995.83 C 806.77 997.94 801.60 998.45 803.22 996.25 Z" />
</g>
<g id="#3d6e7dd2">
<path fill="#3d6e7d" opacity="0.82" d=" M 790.68 999.12 C 794.08 998.36 797.44 997.44 800.87 996.77 L 802.37 996.61 C 802.21 998.44 800.16 998.22 798.91 998.72 C 796.22 999.14 793.28 1000.59 790.68 999.12 Z" />
</g>
<g id="#427586d6">
<path fill="#427586" opacity="0.84" d=" M 783.50 1000.91 C 785.67 1000.36 787.82 999.74 790.02 999.27 C 790.06 999.66 790.16 1000.46 790.20 1000.85 C 788.02 1000.80 785.46 1002.39 783.50 1000.91 Z" />
</g>
<g id="#427484d6">
<path fill="#427484" opacity="0.84" d=" M 778.10 1002.03 C 779.53 1001.53 781.02 1001.22 782.54 1001.07 C 783.39 1003.30 778.32 1004.44 778.10 1002.03 Z" />
</g>
<g id="#4a7582bf">
<path fill="#4a7582" opacity="0.75" d=" M 595.46 1002.95 L 596.23 1002.45 C 596.25 1002.96 596.29 1003.99 596.30 1004.50 L 595.49 1004.01 L 595.46 1002.95 Z" />
</g>
<g id="#467a8ae1">
<path fill="#467a8a" opacity="0.88" d=" M 710.22 1017.68 C 718.50 1015.54 726.84 1013.53 735.27 1012.04 C 732.92 1013.88 729.85 1014.09 727.08 1014.87 C 721.94 1016.01 716.89 1017.58 711.69 1018.41 C 711.33 1018.23 710.59 1017.86 710.22 1017.68 Z" />
</g>
</svg>
