<?xml version="1.0" encoding="UTF-8" ?>
<!DOCTYPE svg PUBLIC "-//W3C//DTD SVG 1.1//EN" "http://www.w3.org/Graphics/SVG/1.1/DTD/svg11.dtd">
<svg width="1276pt" height="1276pt" viewBox="0 0 1276 1276" version="1.1" xmlns="http://www.w3.org/2000/svg">
<g id="#73adc1ff">
<path fill="#73adc1" opacity="1.00" d=" M 899.22 251.02 C 918.33 251.14 937.44 251.04 956.55 251.07 C 986.98 306.80 1017.39 362.53 1047.78 418.27 C 1050.07 423.11 1053.79 427.97 1059.02 429.62 C 1062.65 428.65 1065.18 425.29 1067.38 422.40 C 1098.68 365.33 1129.77 308.14 1161.05 251.05 C 1171.94 251.04 1182.85 251.10 1193.75 251.02 C 1158.21 318.43 1122.69 385.85 1087.16 453.27 C 1082.81 460.78 1079.90 469.39 1073.42 475.45 C 1066.24 482.65 1056.21 487.13 1045.97 486.80 C 1037.20 486.85 1028.43 483.03 1022.77 476.28 C 1019.98 473.16 1018.29 469.32 1016.37 465.66 C 977.32 394.12 938.27 322.57 899.22 251.02 Z" />
<path fill="#73adc1" opacity="1.00" d=" M 508.50 255.42 C 509.40 255.51 511.21 255.68 512.12 255.76 C 520.41 257.74 528.88 258.98 537.14 261.14 C 538.74 261.41 540.36 261.66 541.92 262.19 C 543.22 262.52 544.53 262.84 545.85 263.18 C 554.27 264.99 562.67 266.92 570.97 269.26 C 571.69 269.40 573.15 269.69 573.88 269.83 C 580.55 271.71 587.30 273.32 594.01 275.11 C 603.60 277.97 613.35 280.26 622.93 283.15 C 630.98 285.35 639.01 287.65 646.99 290.09 C 649.04 290.68 651.08 291.29 653.15 291.83 C 658.71 293.83 664.49 295.10 670.05 297.07 C 671.06 297.32 672.08 297.56 673.11 297.80 C 679.65 300.19 686.41 301.89 693.00 304.13 C 694.02 304.47 695.05 304.82 696.08 305.18 C 699.11 305.87 702.00 307.06 704.98 307.97 C 708.97 309.43 713.11 310.41 717.14 311.77 C 724.02 314.33 731.16 316.20 737.93 319.05 C 738.98 319.35 740.01 319.73 741.03 320.17 C 741.57 320.30 742.65 320.57 743.20 320.70 C 747.62 322.82 752.42 324.04 756.88 326.10 C 758.29 326.67 759.70 327.26 761.13 327.82 C 762.08 328.20 763.04 328.59 764.01 328.97 C 767.72 330.43 771.38 332.00 775.05 333.58 C 776.71 334.38 778.42 335.14 780.16 335.80 C 800.62 345.24 820.59 356.06 838.59 369.73 C 859.21 385.70 877.33 405.49 888.86 429.06 C 892.22 435.01 894.42 441.51 897.34 447.66 C 897.46 448.24 897.71 449.41 897.83 449.99 C 900.35 456.48 902.35 463.19 903.87 469.98 C 906.22 478.16 907.56 486.60 908.79 495.01 C 909.59 497.96 909.45 501.04 909.84 504.05 C 910.88 506.57 910.15 509.41 911.11 511.97 C 912.84 533.25 913.15 554.65 912.23 576.00 C 910.76 579.12 912.23 582.75 910.81 585.91 C 910.62 590.34 909.61 594.65 909.12 599.04 C 907.60 606.37 906.39 613.84 903.80 620.89 C 903.64 621.60 903.50 622.33 903.38 623.07 C 901.39 628.38 899.63 633.79 897.40 639.02 C 887.74 660.84 871.88 680.68 850.11 691.27 C 844.40 694.36 838.17 696.20 832.03 698.19 C 830.69 698.45 829.37 698.74 828.08 699.13 C 816.52 701.30 804.64 702.35 792.94 700.74 C 788.53 700.72 784.27 699.50 779.90 699.21 C 777.02 697.99 773.89 697.62 770.89 696.87 C 758.83 693.90 747.20 689.41 735.94 684.24 C 735.04 683.87 734.14 683.50 733.26 683.15 C 733.04 604.42 733.23 525.70 733.17 446.98 C 733.27 433.24 732.87 419.00 727.74 406.07 C 724.76 398.16 719.49 390.91 712.14 386.55 C 707.56 383.65 702.32 382.03 697.07 380.84 C 695.34 380.80 693.63 380.79 691.92 380.79 C 681.35 382.82 674.77 392.86 672.31 402.65 C 670.56 408.30 670.49 414.22 669.71 420.03 C 669.64 522.81 669.84 625.59 669.61 728.37 C 669.14 729.51 668.93 730.70 668.98 731.94 C 669.03 817.30 668.98 902.66 669.00 988.02 C 668.82 999.24 669.37 1010.49 668.70 1021.70 C 650.33 1015.20 631.54 1009.87 613.04 1003.72 C 612.54 1003.60 611.54 1003.36 611.04 1003.24 C 609.98 1002.84 608.92 1002.46 607.86 1002.11 C 603.90 1000.64 599.77 999.74 595.80 998.32 C 593.21 997.43 590.53 996.82 588.04 995.70 C 587.51 995.58 586.43 995.33 585.89 995.21 C 580.37 993.24 574.67 991.84 569.16 989.83 C 568.14 989.48 567.14 989.14 566.14 988.79 C 565.12 988.47 564.12 988.15 563.12 987.85 C 556.74 985.89 550.29 984.12 544.06 981.71 C 543.31 981.58 541.80 981.32 541.05 981.20 C 535.95 978.89 530.39 977.89 525.18 975.89 C 524.16 975.51 523.15 975.12 522.14 974.73 C 521.09 974.52 520.05 974.33 519.01 974.15 C 518.04 973.75 517.06 973.36 516.09 973.00 C 513.80 972.18 511.48 971.48 509.09 971.05 C 508.87 869.71 509.07 768.36 509.00 667.02 C 509.10 662.35 509.00 657.70 508.53 653.06 C 508.48 520.52 508.55 387.97 508.50 255.42 Z" />
<path fill="#73adc1" opacity="1.00" d=" M 466.92 690.67 C 470.17 689.26 473.64 688.43 476.92 687.08 C 477.05 718.72 477.05 750.36 476.92 782.00 C 474.19 782.71 471.49 783.55 468.92 784.73 C 467.92 785.06 466.93 785.39 465.93 785.72 C 460.03 788.01 453.98 789.93 448.08 792.25 C 439.75 795.28 431.32 798.08 423.08 801.31 C 417.78 803.35 412.20 804.72 407.11 807.24 C 406.56 807.34 405.48 807.54 404.93 807.64 C 399.11 810.10 393.02 811.87 387.15 814.22 C 381.07 816.43 374.97 818.58 368.88 820.77 C 367.87 821.11 366.85 821.45 365.83 821.78 C 364.58 822.28 363.32 822.78 362.08 823.33 C 356.00 825.46 349.90 827.53 343.86 829.78 C 338.99 831.64 333.97 833.13 329.16 835.13 C 327.15 835.81 325.13 836.43 323.17 837.24 C 318.12 839.11 312.91 840.60 308.09 843.06 C 300.13 846.85 291.33 851.26 287.55 859.76 C 287.58 860.53 287.61 861.32 287.65 862.13 C 288.04 863.06 288.43 864.01 288.82 864.97 C 292.79 869.55 298.56 871.82 304.10 873.90 C 311.50 876.51 319.41 876.99 327.07 878.14 C 334.38 878.37 341.72 878.36 349.04 878.15 C 349.55 878.02 350.57 877.76 351.09 877.64 C 360.16 877.42 369.13 875.73 378.06 874.18 C 381.04 873.48 383.99 872.65 387.03 872.21 C 393.42 870.28 399.89 868.60 406.15 866.24 C 407.38 865.71 408.62 865.18 409.86 864.66 C 415.23 862.82 420.53 860.79 425.86 858.84 C 426.87 858.46 427.88 858.07 428.89 857.70 C 433.23 855.98 437.69 854.58 442.03 852.84 C 442.58 852.72 443.68 852.48 444.22 852.36 C 450.52 849.20 457.59 847.89 463.93 844.82 C 464.45 844.72 465.50 844.50 466.02 844.40 C 467.04 843.95 468.06 843.53 469.10 843.12 C 471.71 842.15 474.38 841.32 476.94 840.22 C 476.96 868.59 477.19 896.96 476.83 925.33 C 464.90 926.99 452.99 929.04 440.96 929.78 C 437.40 930.89 433.58 930.43 429.91 930.82 C 426.43 932.36 422.39 930.56 419.03 932.27 C 416.09 932.36 413.14 932.22 410.20 932.44 C 403.50 933.08 396.73 932.13 390.09 933.37 C 383.74 933.11 377.22 934.10 371.00 932.82 C 362.63 932.75 354.28 932.46 345.91 932.28 C 343.06 930.82 339.75 932.01 336.73 931.26 C 332.53 930.23 328.12 930.96 323.95 929.85 C 320.96 929.58 317.97 929.37 314.99 929.11 C 306.32 927.69 297.57 926.79 288.93 925.17 C 286.95 924.58 284.90 924.43 282.87 924.18 C 281.04 923.44 279.03 923.40 277.17 922.78 C 275.74 922.55 274.30 922.34 272.88 922.16 C 265.35 920.18 257.59 919.06 250.12 916.81 C 248.77 916.46 247.42 916.12 246.09 915.73 C 245.07 915.51 244.05 915.30 243.03 915.10 C 237.10 913.14 230.80 912.27 225.05 909.80 C 223.99 909.60 222.94 909.42 221.89 909.25 C 220.92 908.82 219.94 908.43 218.95 908.08 C 213.57 906.65 208.35 904.74 203.14 902.81 C 201.73 902.26 200.32 901.72 198.90 901.23 C 193.80 899.24 188.73 897.15 183.79 894.81 C 167.73 887.13 151.25 876.74 143.84 859.79 C 141.61 852.55 139.36 844.72 141.59 837.20 C 143.39 829.87 148.22 823.80 153.14 818.27 C 168.29 803.75 187.12 793.83 206.10 785.31 C 211.54 782.45 217.41 780.57 223.04 778.17 C 224.06 777.78 225.09 777.43 226.14 777.14 C 231.31 774.82 236.77 773.24 242.05 771.21 C 243.27 770.64 244.52 770.15 245.78 769.68 C 251.65 768.00 257.32 765.70 263.10 763.74 C 270.00 761.01 277.17 759.00 284.01 756.12 C 285.02 755.76 286.05 755.44 287.09 755.15 C 292.99 753.01 298.93 750.98 304.82 748.78 C 305.85 748.40 306.87 748.01 307.90 747.60 C 312.30 746.14 316.70 744.64 321.00 742.87 C 321.52 742.75 322.56 742.51 323.08 742.39 C 324.02 741.84 325.02 741.41 326.07 741.10 C 331.04 739.41 335.99 737.68 340.91 735.87 C 348.97 732.97 357.01 730.01 365.11 727.21 C 366.33 726.65 367.59 726.16 368.85 725.68 C 373.99 724.08 379.06 722.21 384.08 720.27 C 389.96 718.06 396.03 716.35 401.77 713.78 C 402.31 713.66 403.41 713.43 403.95 713.31 C 404.96 712.87 405.98 712.43 407.01 712.02 C 414.44 709.50 421.77 706.70 429.20 704.17 C 432.97 702.40 437.09 701.58 440.87 699.84 C 442.63 699.27 444.39 698.70 446.17 698.19 C 452.92 695.28 460.05 693.33 466.92 690.67 Z" />
<path fill="#73adc1" opacity="1.00" d=" M 846.97 728.78 C 855.29 728.49 863.60 728.25 871.93 728.18 C 876.12 726.82 880.62 727.78 884.95 727.52 C 888.98 727.76 893.18 726.85 897.08 728.18 C 905.05 728.52 913.16 727.99 921.03 729.22 C 934.55 729.88 947.99 731.62 961.38 733.59 C 963.89 734.09 966.54 734.19 968.95 735.17 C 980.42 736.65 991.72 739.27 1003.00 741.82 C 1004.31 742.25 1005.64 742.53 1007.00 742.84 C 1013.31 744.61 1019.75 745.97 1025.98 748.07 C 1027.34 748.39 1028.70 748.73 1030.05 749.20 C 1036.34 751.19 1042.76 752.82 1048.91 755.23 C 1049.43 755.36 1050.49 755.61 1051.02 755.73 C 1053.01 756.60 1055.09 757.25 1057.21 757.84 C 1062.12 759.94 1067.21 761.63 1072.13 763.75 C 1076.52 765.67 1080.83 767.79 1085.27 769.62 C 1093.73 774.37 1102.36 778.98 1109.72 785.41 C 1115.26 790.54 1120.99 795.89 1123.81 803.09 C 1126.89 808.12 1126.99 814.34 1126.85 820.08 C 1126.84 824.21 1125.40 828.16 1123.76 831.90 C 1121.82 836.31 1119.08 840.24 1116.21 844.08 C 1104.82 856.65 1090.31 865.90 1075.17 873.32 C 1066.07 877.80 1056.56 881.41 1047.08 885.02 C 1038.79 888.22 1030.30 891.01 1022.05 894.27 C 1021.50 894.39 1020.41 894.62 1019.86 894.74 C 1007.92 899.26 995.93 903.69 983.80 907.68 C 981.04 909.16 978.02 909.98 975.08 910.96 C 971.48 912.55 967.62 913.48 964.05 915.15 C 963.52 915.26 962.46 915.48 961.93 915.59 C 960.59 916.15 959.27 916.73 957.97 917.34 C 957.43 917.46 956.35 917.69 955.81 917.81 C 949.68 920.54 943.14 922.21 936.98 924.86 C 932.25 926.45 927.61 928.31 922.81 929.69 C 916.43 932.68 909.50 934.32 903.07 937.18 C 902.54 937.28 901.48 937.50 900.96 937.60 C 899.63 938.16 898.33 938.72 897.02 939.28 C 890.00 941.80 882.88 944.12 875.97 946.92 C 874.97 947.28 873.96 947.62 872.95 947.93 C 854.56 954.50 836.24 961.24 817.86 967.79 C 816.91 968.18 815.97 968.57 815.04 968.95 C 810.66 970.55 806.19 971.88 801.88 973.63 C 793.96 976.59 785.96 979.30 778.06 982.30 C 766.36 986.50 754.71 990.77 743.02 994.99 C 741.96 995.32 740.94 995.73 739.96 996.23 C 739.44 996.37 738.40 996.64 737.88 996.77 C 736.86 997.14 735.84 997.51 734.83 997.87 C 729.40 1000.31 723.54 1001.66 718.16 1004.21 C 712.33 1005.81 706.85 1008.44 701.04 1010.09 C 701.01 978.60 700.90 947.11 701.09 915.63 C 713.11 911.62 724.96 907.15 736.88 902.87 C 737.90 902.45 738.93 902.03 739.97 901.61 C 740.49 901.50 741.54 901.27 742.06 901.16 C 748.30 898.51 754.80 896.56 761.15 894.19 C 762.07 893.78 763.01 893.38 763.95 892.99 C 764.97 892.67 766.00 892.37 767.04 892.08 C 769.96 890.92 772.93 889.87 775.94 888.93 C 778.41 887.89 780.90 886.87 783.50 886.17 C 788.23 884.29 793.09 882.76 797.78 880.79 C 798.32 880.66 799.40 880.40 799.94 880.28 C 800.91 879.72 801.94 879.30 803.04 879.01 C 814.37 875.06 825.61 870.85 836.93 866.89 C 843.19 864.36 849.65 862.37 855.96 859.99 C 856.93 859.57 857.91 859.16 858.89 858.76 C 859.41 858.65 860.45 858.43 860.96 858.32 C 862.23 857.70 863.53 857.17 864.86 856.66 C 875.96 852.92 886.94 848.82 897.94 844.80 C 898.97 844.45 900.03 844.13 901.08 843.78 C 907.02 841.43 913.08 839.39 919.15 837.37 C 920.40 836.79 921.70 836.26 922.99 835.70 C 923.52 835.58 924.58 835.35 925.11 835.24 C 930.70 833.01 936.47 831.28 942.12 829.21 C 947.70 827.05 953.41 825.15 959.09 823.29 C 960.36 822.77 961.66 822.26 962.92 821.70 C 968.80 819.43 974.09 815.86 978.98 811.93 C 981.72 809.04 984.57 805.13 983.27 800.93 C 981.81 797.86 978.98 795.65 976.22 793.80 C 968.21 789.37 959.02 787.67 949.97 787.18 C 941.44 785.94 932.68 786.25 924.06 786.39 C 920.41 786.94 916.57 786.01 913.05 787.24 C 902.17 787.64 891.40 789.84 880.96 792.86 C 874.19 794.97 867.58 797.53 860.87 799.83 C 859.85 800.16 858.83 800.50 857.82 800.84 C 851.67 803.52 845.11 805.18 838.96 807.85 C 837.96 808.23 836.94 808.56 835.92 808.86 C 828.97 811.30 822.03 813.76 815.11 816.29 C 810.82 818.09 806.16 818.94 802.05 821.15 C 801.52 821.27 800.45 821.50 799.91 821.61 C 794.06 823.98 787.97 825.72 782.14 828.14 C 781.11 828.45 780.09 828.77 779.09 829.12 C 765.34 834.00 751.60 838.94 737.84 843.80 C 736.82 844.15 735.80 844.50 734.79 844.85 C 729.27 847.11 723.53 848.73 718.00 850.95 C 716.96 851.27 715.94 851.60 714.91 851.93 C 710.34 853.74 705.68 855.30 701.03 856.86 C 700.96 825.92 701.04 794.97 700.98 764.03 C 700.98 762.32 701.08 760.62 701.24 758.94 C 702.48 758.64 703.72 758.33 704.97 758.02 C 705.96 757.62 706.95 757.21 707.94 756.80 C 708.47 756.69 709.51 756.45 710.03 756.34 C 716.52 753.73 723.34 752.09 729.97 749.87 C 730.96 749.55 731.95 749.22 732.94 748.88 C 733.96 748.62 734.99 748.38 736.04 748.14 C 745.22 745.20 754.69 743.29 763.98 740.72 C 769.96 739.40 775.98 738.24 781.96 736.93 C 783.97 736.71 786.01 736.47 787.94 735.80 C 789.65 735.59 791.37 735.41 793.09 735.16 C 797.66 734.10 802.40 733.84 806.98 732.79 C 817.69 731.55 828.39 730.26 839.15 729.52 C 841.75 729.29 844.44 729.66 846.97 728.78 Z" />
</g>
</svg>
