<?xml version="1.0" encoding="UTF-8" ?>
<!DOCTYPE svg PUBLIC "-//W3C//DTD SVG 1.1//EN" "http://www.w3.org/Graphics/SVG/1.1/DTD/svg11.dtd">
<svg width="1276pt" height="1276pt" viewBox="0 0 1276 1276" version="1.1" xmlns="http://www.w3.org/2000/svg">
<g id="#760529ff">
<path fill="#760529" opacity="1.00" d=" M 605.50 131.66 C 606.30 129.39 607.07 127.08 608.25 124.97 C 646.64 202.87 685.86 280.36 724.96 357.90 C 755.82 308.13 786.76 258.41 817.65 208.66 C 821.05 202.86 825.18 197.53 828.71 191.82 C 841.43 171.30 854.18 150.80 866.89 130.28 C 871.08 154.81 875.29 179.33 879.51 203.85 C 886.12 238.10 891.16 272.63 897.01 307.01 C 900.20 326.51 903.61 345.97 906.67 365.50 C 916.12 355.34 925.68 345.29 935.50 335.49 C 943.51 326.53 952.09 318.10 960.46 309.47 C 972.83 295.85 986.07 283.06 998.57 269.56 C 1014.39 252.72 1030.21 235.87 1046.03 219.04 C 1044.23 251.38 1041.89 283.70 1040.49 316.05 C 1037.24 369.45 1034.21 422.88 1030.99 476.30 C 1084.72 433.61 1138.63 391.15 1192.34 348.43 C 1184.49 366.98 1177.05 385.69 1169.29 404.27 C 1164.42 415.50 1159.30 426.64 1155.09 438.15 C 1151.53 446.66 1150.88 456.03 1147.70 464.67 C 1143.60 476.32 1140.38 488.30 1138.24 500.47 C 1133.73 520.30 1132.04 540.67 1131.23 560.95 C 1130.27 589.73 1132.33 618.61 1137.57 646.93 C 1140.87 666.18 1147.80 684.50 1154.16 702.89 C 1160.75 725.99 1165.87 749.85 1164.93 774.02 C 1164.64 793.72 1160.11 813.00 1155.12 831.96 C 1149.67 851.44 1141.21 870.08 1129.89 886.87 C 1119.28 902.26 1107.86 917.37 1093.50 929.49 C 1086.93 935.69 1079.47 940.86 1072.19 946.17 C 1052.94 960.15 1030.99 970.30 1007.96 976.19 C 996.11 979.06 984.26 982.14 972.13 983.55 C 988.74 995.99 1004.97 1008.94 1021.44 1021.57 C 1025.60 1024.44 1028.32 1028.84 1030.96 1033.03 C 1032.59 1038.60 1033.92 1044.30 1035.00 1050.00 C 1034.08 1054.90 1032.92 1059.78 1031.59 1064.59 C 1028.92 1068.47 1026.50 1072.80 1022.35 1075.30 C 1016.10 1080.48 1007.89 1082.02 1000.35 1084.45 C 989.36 1087.32 978.29 1090.03 967.06 1091.83 C 941.82 1095.76 915.84 1094.28 891.09 1088.03 C 870.38 1083.52 849.61 1076.66 832.49 1063.82 C 828.94 1066.31 825.72 1069.76 821.19 1070.27 C 816.79 1071.07 812.52 1072.72 808.03 1073.00 C 737.70 1073.02 667.37 1072.98 597.04 1073.02 C 593.60 1073.06 590.34 1071.90 587.04 1071.18 C 583.71 1070.28 579.95 1070.14 577.35 1067.60 C 556.44 1080.94 531.98 1086.83 507.89 1091.37 C 483.82 1095.44 458.94 1094.79 435.13 1089.40 C 424.12 1086.91 413.06 1084.45 402.43 1080.58 C 393.51 1077.58 385.39 1070.68 382.47 1061.58 C 351.73 1066.01 320.12 1064.36 289.99 1056.81 C 276.31 1053.75 262.72 1049.96 249.90 1044.20 C 237.81 1039.03 226.97 1031.41 216.67 1023.33 C 211.22 1018.43 205.84 1013.30 201.78 1007.14 C 198.99 1002.95 195.16 999.11 194.41 993.92 C 193.78 989.33 191.10 984.73 192.75 980.09 C 194.25 975.25 194.18 969.66 197.87 965.80 C 200.69 961.02 205.37 957.81 210.09 955.14 C 219.62 952.14 229.16 948.37 237.03 942.05 C 241.82 937.56 246.77 933.06 250.08 927.31 C 229.74 919.54 210.29 909.26 192.80 896.25 C 179.75 887.20 167.79 876.62 157.24 864.76 C 146.14 851.46 135.80 837.25 128.71 821.37 C 122.44 806.89 118.79 791.44 115.83 776.00 C 115.34 773.71 115.29 771.36 115.22 769.04 C 114.97 756.89 114.64 744.67 116.32 732.60 C 126.92 735.58 137.51 738.60 148.12 741.54 C 170.39 746.99 192.34 753.66 214.43 759.77 C 189.90 730.91 165.59 701.85 141.14 672.91 C 128.11 657.26 114.70 641.92 101.98 626.02 C 80.04 600.01 58.14 573.95 36.10 548.02 C 57.70 554.77 79.30 561.52 100.90 568.27 C 116.47 573.03 131.90 578.31 147.68 582.35 C 184.45 593.33 221.38 603.81 258.08 615.02 C 249.16 597.69 241.24 579.86 232.70 562.34 C 204.24 502.75 175.98 443.07 147.03 383.71 C 173.56 397.27 200.13 410.73 226.67 424.27 C 242.42 431.69 257.81 439.87 273.40 447.63 C 308.37 465.11 343.13 483.01 378.09 500.52 C 361.73 434.36 345.29 368.22 328.97 302.05 C 326.75 292.67 324.20 283.37 322.45 273.89 C 316.76 250.92 311.17 227.93 305.41 204.98 C 349.39 234.91 393.64 264.42 437.65 294.30 C 466.31 314.07 495.30 333.36 524.09 352.96 C 539.20 311.50 554.22 270.00 569.49 228.59 C 574.87 214.38 579.55 199.88 585.55 185.92 C 592.17 167.82 598.86 149.75 605.50 131.66 M 611.26 207.01 C 587.51 272.01 563.77 337.01 539.99 401.99 C 478.33 360.34 416.68 318.67 355.01 277.02 C 378.32 371.34 401.67 465.66 425.00 559.99 C 355.66 525.02 286.35 489.99 217.01 455.02 C 250.33 525.01 283.67 595.00 317.00 664.99 C 254.66 646.68 192.34 628.32 130.00 610.01 C 188.34 679.33 246.66 748.67 304.99 817.99 C 252.64 803.34 200.38 788.31 147.98 773.85 C 150.52 794.91 159.42 814.88 171.87 831.94 C 190.28 857.21 216.14 876.23 244.03 889.89 C 280.22 907.39 320.27 916.32 360.35 917.78 C 362.98 894.47 381.78 874.12 404.93 870.04 C 407.88 869.90 409.55 867.35 411.36 865.40 C 423.59 852.29 436.13 839.47 448.37 826.37 C 464.42 842.41 480.45 858.47 496.52 874.50 C 513.33 857.65 530.17 840.83 547.00 824.01 C 563.01 840.00 578.99 856.00 595.00 872.00 C 612.67 854.34 630.33 836.66 648.00 819.01 C 666.34 837.33 684.66 855.67 703.00 874.00 C 722.01 855.00 740.99 836.00 760.00 817.01 C 776.81 833.84 793.68 850.60 810.43 867.49 C 825.37 852.74 840.12 837.81 855.00 823.01 C 867.51 835.50 879.99 848.02 892.52 860.50 C 902.96 854.24 912.37 846.51 921.44 838.43 C 925.92 833.21 930.65 828.17 934.70 822.59 C 938.91 816.46 944.02 810.87 947.06 804.01 C 952.91 793.22 957.41 781.61 959.74 769.54 C 960.32 765.37 961.79 761.22 961.06 756.98 C 947.60 770.34 934.24 783.79 920.82 797.18 C 906.38 782.81 892.01 768.37 877.57 754.01 C 860.73 770.88 843.86 787.73 827.00 804.58 C 809.26 786.87 791.55 769.13 773.81 751.41 C 757.21 768.00 740.61 784.59 724.00 801.18 C 707.45 784.67 690.95 768.11 674.39 751.60 C 658.21 767.80 642.01 783.99 625.82 800.18 C 607.99 782.41 590.22 764.59 572.40 746.82 C 553.87 765.35 535.35 783.88 516.82 802.40 C 501.07 786.67 485.34 770.93 469.60 755.20 C 454.19 770.51 438.93 785.98 423.46 801.23 C 406.18 783.34 388.32 765.97 370.81 748.30 C 366.72 747.59 362.50 748.23 358.36 747.93 C 349.55 739.32 343.75 728.05 339.59 716.57 C 331.89 694.60 332.16 669.95 340.40 648.18 C 347.47 629.25 360.41 612.59 377.00 601.06 C 390.99 591.17 407.56 585.44 424.48 583.26 C 446.63 578.39 470.20 578.72 491.73 586.21 C 500.14 589.12 508.60 591.91 517.13 594.48 C 517.53 593.81 518.34 592.47 518.75 591.80 C 517.64 590.66 516.45 589.62 515.14 588.76 C 489.54 571.01 472.97 541.08 471.22 510.00 C 469.63 486.19 476.63 461.96 490.57 442.60 C 509.97 415.08 543.42 398.26 577.08 399.02 C 600.13 399.29 622.98 407.53 640.92 422.01 C 655.14 433.28 666.14 448.48 672.79 465.34 C 680.96 486.08 682.24 509.47 676.32 530.97 C 671.63 548.46 662.14 564.55 649.46 577.44 C 636.19 590.50 619.54 600.17 601.46 604.72 C 592.98 607.05 584.24 608.27 575.83 610.84 C 575.14 612.64 574.65 614.50 574.40 616.42 C 585.86 620.87 597.93 623.66 610.08 625.50 C 644.72 631.12 679.93 632.96 714.98 631.53 C 748.74 630.14 782.40 625.50 815.13 617.08 C 818.10 614.80 815.20 611.21 812.10 611.93 C 779.94 613.26 747.57 598.59 727.45 573.45 C 712.25 554.90 703.82 530.97 704.01 507.00 C 703.94 474.31 720.38 442.10 746.95 423.04 C 765.64 409.37 788.96 402.19 812.11 403.08 C 834.03 403.75 855.63 411.66 872.89 425.18 C 898.91 445.24 914.29 478.21 912.93 511.05 C 912.04 543.79 894.61 575.62 867.35 593.83 C 867.32 594.36 867.26 595.41 867.22 595.94 C 871.86 595.24 876.31 593.61 880.98 593.01 C 909.87 588.24 940.81 599.99 959.07 622.90 C 961.84 625.95 963.61 629.84 966.80 632.53 C 963.00 638.49 959.18 644.44 955.49 650.46 C 953.67 653.31 952.27 656.59 949.48 658.66 C 947.38 639.19 933.61 621.69 915.35 614.74 C 902.57 609.70 887.84 609.75 875.13 614.97 C 870.00 617.03 865.66 620.62 860.43 622.45 C 840.33 632.79 818.77 640.06 796.84 645.45 C 761.24 654.09 724.56 657.89 687.96 658.00 C 647.95 658.00 607.79 653.69 569.09 643.37 C 549.48 638.22 530.60 630.77 511.86 623.12 C 500.87 618.11 489.76 613.20 478.03 610.17 C 466.41 606.43 454.12 605.67 442.00 605.32 C 416.57 603.07 390.54 614.74 374.90 634.84 C 364.75 647.61 358.77 663.64 358.09 679.94 C 357.27 696.89 362.17 714.08 371.85 728.02 C 372.71 729.49 374.66 728.83 376.04 729.03 C 545.02 728.97 714.00 729.02 882.97 729.00 C 896.82 728.91 910.76 729.54 924.47 727.19 C 936.05 726.33 946.59 721.08 956.67 715.72 C 960.27 713.36 963.58 710.59 967.11 708.12 C 971.43 705.16 974.58 700.90 978.24 697.22 C 981.33 693.73 984.86 690.61 987.58 686.81 C 988.42 690.63 990.02 694.23 991.14 697.97 C 995.89 713.16 998.20 729.11 997.98 745.03 C 997.61 782.27 982.80 819.17 957.17 846.22 C 933.91 871.26 901.81 887.94 867.93 892.51 C 866.71 892.73 865.23 892.66 864.53 893.94 C 717.35 894.08 570.17 893.95 422.98 894.01 C 415.74 894.06 408.10 893.31 401.38 896.61 C 389.45 901.69 382.16 915.35 384.37 928.10 C 386.25 941.88 399.03 953.02 412.94 952.97 C 594.63 953.05 776.32 952.97 958.00 953.01 C 973.22 951.83 988.42 949.46 1003.03 944.90 C 1023.02 938.75 1041.96 929.17 1058.75 916.70 C 1085.73 896.67 1107.06 869.12 1119.61 837.94 C 1136.67 795.86 1137.69 747.23 1121.20 704.82 C 1106.05 662.98 1098.94 618.41 1099.00 573.97 C 1099.18 530.55 1105.72 486.85 1120.74 446.02 C 1078.81 479.32 1036.93 512.68 995.01 545.99 C 999.65 465.66 1004.35 385.34 1008.99 305.01 C 967.99 347.67 927.01 390.34 886.01 432.99 C 873.98 361.02 862.04 289.04 849.99 217.08 C 807.27 285.68 764.69 354.37 722.00 422.98 C 685.77 351.20 649.53 279.44 613.35 207.63 C 613.20 206.58 611.48 204.95 611.26 207.01 M 541.18 430.41 C 578.41 460.40 615.64 490.40 652.87 520.40 C 654.02 522.18 654.57 519.97 654.60 519.13 C 658.36 499.35 654.48 478.24 643.77 461.19 C 633.96 445.41 618.58 433.16 600.95 427.27 C 581.60 420.65 559.72 421.77 541.18 430.41 M 777.81 433.82 C 759.47 441.15 744.02 455.42 735.36 473.17 C 727.29 489.34 725.00 508.25 728.77 525.90 C 729.87 526.04 730.56 524.85 731.45 524.37 C 768.20 494.61 805.17 465.11 841.86 435.27 C 821.81 426.29 798.20 425.49 777.81 433.82 M 519.66 444.78 C 505.02 458.55 495.61 477.81 494.24 497.90 C 492.84 515.62 497.54 533.73 507.35 548.55 C 517.09 563.37 531.82 574.86 548.63 580.58 C 566.36 586.75 586.26 586.43 603.79 579.72 C 621.31 573.15 636.16 560.19 645.52 544.03 C 637.43 537.31 629.24 530.73 621.11 524.06 C 615.81 530.43 610.86 537.11 605.11 543.09 C 596.83 552.06 585.22 557.71 573.07 558.80 C 562.55 559.77 551.71 556.98 543.02 550.96 C 532.02 543.55 524.60 531.12 523.28 517.93 C 521.93 505.93 525.63 493.55 532.99 484.03 C 538.25 477.68 543.10 471.01 548.12 464.47 C 539.57 457.54 531.08 450.52 522.51 443.61 C 521.48 442.61 520.41 444.21 519.66 444.78 M 856.64 451.71 C 849.39 457.64 842.14 463.56 834.88 469.47 C 839.76 475.81 844.45 482.32 849.58 488.47 C 859.33 500.58 862.71 517.68 857.66 532.46 C 852.94 547.22 840.19 559.02 825.13 562.63 C 813.62 565.61 801.24 563.50 790.78 558.13 C 778.49 551.45 770.66 539.50 761.89 529.06 C 753.76 535.73 745.57 542.31 737.49 549.03 C 749.15 569.39 769.80 584.40 792.95 588.59 C 811.04 592.04 830.28 589.09 846.47 580.28 C 861.59 572.15 874.01 559.06 881.28 543.49 C 890.06 525.07 891.40 503.27 885.01 483.89 C 880.69 470.13 872.22 458.04 861.82 448.19 C 859.73 448.75 858.28 450.44 856.64 451.71 M 559.99 501.93 C 557.22 506.32 557.45 512.28 560.25 516.61 C 564.37 523.60 575.66 525.42 581.17 519.11 C 586.03 513.87 590.74 508.49 595.43 503.11 C 588.26 497.24 581.09 491.38 573.90 485.54 C 569.18 490.92 563.60 495.67 559.99 501.93 M 787.57 508.11 C 792.29 513.51 797.01 518.92 801.90 524.17 C 805.84 528.72 813.10 528.99 818.09 526.06 C 824.44 522.64 826.89 513.73 823.33 507.49 C 819.73 500.96 813.96 496.08 809.10 490.54 C 801.91 496.38 794.74 502.24 787.57 508.11 M 270.59 953.42 C 258.83 968.12 242.21 978.68 224.15 983.80 C 233.68 998.87 249.22 1008.86 265.19 1016.01 C 291.19 1027.30 319.74 1031.84 347.96 1032.00 C 365.84 1032.04 383.74 1030.14 401.17 1026.11 C 405.61 1025.22 408.74 1021.69 412.38 1019.29 C 432.75 1004.20 453.25 989.30 473.53 974.08 C 457.03 973.89 440.53 974.05 424.04 974.00 C 416.32 973.92 408.47 974.46 400.92 972.53 C 385.51 968.93 371.84 958.28 364.88 944.03 C 364.29 943.16 363.95 941.60 362.61 941.78 C 336.06 940.89 309.51 938.10 283.52 932.49 C 279.91 939.86 275.90 947.11 270.59 953.42 M 529.74 974.02 C 546.49 990.77 563.35 1007.43 580.15 1024.14 C 597.16 1007.45 614.14 990.72 631.13 974.01 C 597.34 974.00 563.54 973.98 529.74 974.02 M 777.74 974.02 C 794.49 990.77 811.35 1007.43 828.15 1024.14 C 845.16 1007.45 862.14 990.72 879.13 974.01 C 845.33 974.00 811.54 973.98 777.74 974.02 M 658.22 976.15 C 651.90 981.84 646.13 988.12 640.04 994.06 C 624.40 1009.70 608.75 1025.34 593.12 1041.00 C 665.90 1041.00 738.69 1041.01 811.47 1040.99 C 789.90 1019.27 768.15 997.71 746.57 976.00 C 717.12 976.09 687.67 975.81 658.22 976.15 M 413.30 1046.31 C 411.90 1047.15 412.11 1048.90 411.74 1050.29 C 432.76 1058.53 455.42 1062.51 477.98 1062.00 C 491.40 1062.24 504.81 1060.49 517.89 1057.55 C 534.51 1053.68 550.73 1047.40 564.91 1037.80 C 544.39 1017.35 523.61 997.15 503.02 976.77 C 473.12 999.96 443.19 1023.11 413.30 1046.31 M 850.09 1037.80 C 877.27 1055.86 910.66 1062.84 942.96 1062.00 C 963.54 1061.81 984.11 1057.80 1003.27 1050.28 C 1003.51 1046.71 1000.16 1045.19 997.83 1043.29 C 969.21 1021.12 940.59 998.95 911.98 976.77 C 891.39 997.15 870.61 1017.35 850.09 1037.80 Z" />
</g>
<g id="#52cec2ff">
<path fill="#52cec2" opacity="1.00" d=" M 611.26 207.01 C 611.48 204.95 613.20 206.58 613.35 207.63 C 649.53 279.44 685.77 351.20 722.00 422.98 C 764.69 354.37 807.27 285.68 849.99 217.08 C 862.04 289.04 873.98 361.02 886.01 432.99 C 927.01 390.34 967.99 347.67 1008.99 305.01 C 1004.35 385.34 999.65 465.66 995.01 545.99 C 1036.93 512.68 1078.81 479.32 1120.74 446.02 C 1105.72 486.85 1099.18 530.55 1099.00 573.97 C 1098.94 618.41 1106.05 662.98 1121.20 704.82 C 1137.69 747.23 1136.67 795.86 1119.61 837.94 C 1107.06 869.12 1085.73 896.67 1058.75 916.70 C 1041.96 929.17 1023.02 938.75 1003.03 944.90 C 988.42 949.46 973.22 951.83 958.00 953.01 C 776.32 952.97 594.63 953.05 412.94 952.97 C 399.03 953.02 386.25 941.88 384.37 928.10 C 382.16 915.35 389.45 901.69 401.38 896.61 C 408.10 893.31 415.74 894.06 422.98 894.01 C 570.17 893.95 717.35 894.08 864.53 893.94 C 865.23 892.66 866.71 892.73 867.93 892.51 C 901.81 887.94 933.91 871.26 957.17 846.22 C 982.80 819.17 997.61 782.27 997.98 745.03 C 998.20 729.11 995.89 713.16 991.14 697.97 C 990.02 694.23 988.42 690.63 987.58 686.81 C 984.86 690.61 981.33 693.73 978.24 697.22 C 974.58 700.90 971.43 705.16 967.11 708.12 C 963.58 710.59 960.27 713.36 956.67 715.72 C 946.59 721.08 936.05 726.33 924.47 727.19 C 910.76 729.54 896.82 728.91 882.97 729.00 C 714.00 729.02 545.02 728.97 376.04 729.03 C 374.66 728.83 372.71 729.49 371.85 728.02 C 362.17 714.08 357.27 696.89 358.09 679.94 C 358.77 663.64 364.75 647.61 374.90 634.84 C 390.54 614.74 416.57 603.07 442.00 605.32 C 454.12 605.67 466.41 606.43 478.03 610.17 C 489.76 613.20 500.87 618.11 511.86 623.12 C 530.60 630.77 549.48 638.22 569.09 643.37 C 607.79 653.69 647.95 658.00 687.96 658.00 C 724.56 657.89 761.24 654.09 796.84 645.45 C 818.77 640.06 840.33 632.79 860.43 622.45 C 865.66 620.62 870.00 617.03 875.13 614.97 C 887.84 609.75 902.57 609.70 915.35 614.74 C 933.61 621.69 947.38 639.19 949.48 658.66 C 952.27 656.59 953.67 653.31 955.49 650.46 C 959.18 644.44 963.00 638.49 966.80 632.53 C 963.61 629.84 961.84 625.95 959.07 622.90 C 940.81 599.99 909.87 588.24 880.98 593.01 C 876.31 593.61 871.86 595.24 867.22 595.94 C 867.26 595.41 867.32 594.36 867.35 593.83 C 894.61 575.62 912.04 543.79 912.93 511.05 C 914.29 478.21 898.91 445.24 872.89 425.18 C 855.63 411.66 834.03 403.75 812.11 403.08 C 788.96 402.19 765.64 409.37 746.95 423.04 C 720.38 442.10 703.94 474.31 704.01 507.00 C 703.82 530.97 712.25 554.90 727.45 573.45 C 747.57 598.59 779.94 613.26 812.10 611.93 C 815.20 611.21 818.10 614.80 815.13 617.08 C 782.40 625.50 748.74 630.14 714.98 631.53 C 679.93 632.96 644.72 631.12 610.08 625.50 C 597.93 623.66 585.86 620.87 574.40 616.42 C 574.65 614.50 575.14 612.64 575.83 610.84 C 584.24 608.27 592.98 607.05 601.46 604.72 C 619.54 600.17 636.19 590.50 649.46 577.44 C 662.14 564.55 671.63 548.46 676.32 530.97 C 682.24 509.47 680.96 486.08 672.79 465.34 C 666.14 448.48 655.14 433.28 640.92 422.01 C 622.98 407.53 600.13 399.29 577.08 399.02 C 543.42 398.26 509.97 415.08 490.57 442.60 C 476.63 461.96 469.63 486.19 471.22 510.00 C 472.97 541.08 489.54 571.01 515.14 588.76 C 516.45 589.62 517.64 590.66 518.75 591.80 C 518.34 592.47 517.53 593.81 517.13 594.48 C 508.60 591.91 500.14 589.12 491.73 586.21 C 470.20 578.72 446.63 578.39 424.48 583.26 C 407.56 585.44 390.99 591.17 377.00 601.06 C 360.41 612.59 347.47 629.25 340.40 648.18 C 332.16 669.95 331.89 694.60 339.59 716.57 C 343.75 728.05 349.55 739.32 358.36 747.93 C 362.50 748.23 366.72 747.59 370.81 748.30 C 388.32 765.97 406.18 783.34 423.46 801.23 C 431.54 809.82 440.12 817.93 448.37 826.37 C 436.13 839.47 423.59 852.29 411.36 865.40 C 409.55 867.35 407.88 869.90 404.93 870.04 C 381.78 874.12 362.98 894.47 360.35 917.78 C 320.27 916.32 280.22 907.39 244.03 889.89 C 216.14 876.23 190.28 857.21 171.87 831.94 C 159.42 814.88 150.52 794.91 147.98 773.85 C 200.38 788.31 252.64 803.34 304.99 817.99 C 246.66 748.67 188.34 679.33 130.00 610.01 C 192.34 628.32 254.66 646.68 317.00 664.99 C 283.67 595.00 250.33 525.01 217.01 455.02 C 286.35 489.99 355.66 525.02 425.00 559.99 C 401.67 465.66 378.32 371.34 355.01 277.02 C 416.68 318.67 478.33 360.34 539.99 401.99 C 563.77 337.01 587.51 272.01 611.26 207.01 Z" />
<path fill="#52cec2" opacity="1.00" d=" M 270.59 953.42 C 275.90 947.11 279.91 939.86 283.52 932.49 C 309.51 938.10 336.06 940.89 362.61 941.78 C 363.95 941.60 364.29 943.16 364.88 944.03 C 371.84 958.28 385.51 968.93 400.92 972.53 C 408.47 974.46 416.32 973.92 424.04 974.00 C 440.53 974.05 457.03 973.89 473.53 974.08 C 453.25 989.30 432.75 1004.20 412.38 1019.29 C 408.74 1021.69 405.61 1025.22 401.17 1026.11 C 383.74 1030.14 365.84 1032.04 347.96 1032.00 C 319.74 1031.84 291.19 1027.30 265.19 1016.01 C 249.22 1008.86 233.68 998.87 224.15 983.80 C 242.21 978.68 258.83 968.12 270.59 953.42 Z" />
<path fill="#52cec2" opacity="1.00" d=" M 529.74 974.02 C 563.54 973.98 597.34 974.00 631.13 974.01 C 614.14 990.72 597.16 1007.45 580.15 1024.14 C 563.35 1007.43 546.49 990.77 529.74 974.02 Z" />
<path fill="#52cec2" opacity="1.00" d=" M 777.74 974.02 C 811.54 973.98 845.33 974.00 879.13 974.01 C 862.14 990.72 845.16 1007.45 828.15 1024.14 C 811.35 1007.43 794.49 990.77 777.74 974.02 Z" />
</g>
<g id="#ffffffff">
<path fill="#ffffff" opacity="1.00" d=" M 541.18 430.41 C 559.72 421.77 581.60 420.65 600.95 427.27 C 618.58 433.16 633.96 445.41 643.77 461.19 C 654.48 478.24 658.36 499.35 654.60 519.13 C 654.57 519.97 654.02 522.18 652.87 520.40 C 615.64 490.40 578.41 460.40 541.18 430.41 Z" />
<path fill="#ffffff" opacity="1.00" d=" M 777.81 433.82 C 798.20 425.49 821.81 426.29 841.86 435.27 C 805.17 465.11 768.20 494.61 731.45 524.37 C 730.56 524.85 729.87 526.04 728.77 525.90 C 725.00 508.25 727.29 489.34 735.36 473.17 C 744.02 455.42 759.47 441.15 777.81 433.82 Z" />
<path fill="#ffffff" opacity="1.00" d=" M 519.66 444.78 C 520.41 444.21 521.48 442.61 522.51 443.61 C 531.08 450.52 539.57 457.54 548.12 464.47 C 543.10 471.01 538.25 477.68 532.99 484.03 C 525.63 493.55 521.93 505.93 523.28 517.93 C 524.60 531.12 532.02 543.55 543.02 550.96 C 551.71 556.98 562.55 559.77 573.07 558.80 C 585.22 557.71 596.83 552.06 605.11 543.09 C 610.86 537.11 615.81 530.43 621.11 524.06 C 629.24 530.73 637.43 537.31 645.52 544.03 C 636.16 560.19 621.31 573.15 603.79 579.72 C 586.26 586.43 566.36 586.75 548.63 580.58 C 531.82 574.86 517.09 563.37 507.35 548.55 C 497.54 533.73 492.84 515.62 494.24 497.90 C 495.61 477.81 505.02 458.55 519.66 444.78 Z" />
<path fill="#ffffff" opacity="1.00" d=" M 856.64 451.71 C 858.28 450.44 859.73 448.75 861.82 448.19 C 872.22 458.04 880.69 470.13 885.01 483.89 C 891.40 503.27 890.06 525.07 881.28 543.49 C 874.01 559.06 861.59 572.15 846.47 580.28 C 830.28 589.09 811.04 592.04 792.95 588.59 C 769.80 584.40 749.15 569.39 737.49 549.03 C 745.57 542.31 753.76 535.73 761.89 529.06 C 770.66 539.50 778.49 551.45 790.78 558.13 C 801.24 563.50 813.62 565.61 825.13 562.63 C 840.19 559.02 852.94 547.22 857.66 532.46 C 862.71 517.68 859.33 500.58 849.58 488.47 C 844.45 482.32 839.76 475.81 834.88 469.47 C 842.14 463.56 849.39 457.64 856.64 451.71 Z" />
<path fill="#ffffff" opacity="1.00" d=" M 559.99 501.93 C 563.60 495.67 569.18 490.92 573.90 485.54 C 581.09 491.38 588.26 497.24 595.43 503.11 C 590.74 508.49 586.03 513.87 581.17 519.11 C 575.66 525.42 564.37 523.60 560.25 516.61 C 557.45 512.28 557.22 506.32 559.99 501.93 Z" />
<path fill="#ffffff" opacity="1.00" d=" M 787.57 508.11 C 794.74 502.24 801.91 496.38 809.10 490.54 C 813.96 496.08 819.73 500.96 823.33 507.49 C 826.89 513.73 824.44 522.64 818.09 526.06 C 813.10 528.99 805.84 528.72 801.90 524.17 C 797.01 518.92 792.29 513.51 787.57 508.11 Z" />
<path fill="#ffffff" opacity="1.00" d=" M 572.40 746.82 C 590.22 764.59 607.99 782.41 625.82 800.18 C 642.01 783.99 658.21 767.80 674.39 751.60 C 690.95 768.11 707.45 784.67 724.00 801.18 C 740.61 784.59 757.21 768.00 773.81 751.41 C 791.55 769.13 809.26 786.87 827.00 804.58 C 843.86 787.73 860.73 770.88 877.57 754.01 C 892.01 768.37 906.38 782.81 920.82 797.18 C 934.24 783.79 947.60 770.34 961.06 756.98 C 961.79 761.22 960.32 765.37 959.74 769.54 C 957.41 781.61 952.91 793.22 947.06 804.01 C 944.02 810.87 938.91 816.46 934.70 822.59 C 930.65 828.17 925.92 833.21 921.44 838.43 C 912.37 846.51 902.96 854.24 892.52 860.50 C 879.99 848.02 867.51 835.50 855.00 823.01 C 840.12 837.81 825.37 852.74 810.43 867.49 C 793.68 850.60 776.81 833.84 760.00 817.01 C 740.99 836.00 722.01 855.00 703.00 874.00 C 684.66 855.67 666.34 837.33 648.00 819.01 C 630.33 836.66 612.67 854.34 595.00 872.00 C 578.99 856.00 563.01 840.00 547.00 824.01 C 530.17 840.83 513.33 857.65 496.52 874.50 C 480.45 858.47 464.42 842.41 448.37 826.37 C 440.12 817.93 431.54 809.82 423.46 801.23 C 438.93 785.98 454.19 770.51 469.60 755.20 C 485.34 770.93 501.07 786.67 516.82 802.40 C 535.35 783.88 553.87 765.35 572.40 746.82 Z" />
<path fill="#ffffff" opacity="1.00" d=" M 658.22 976.15 C 687.67 975.81 717.12 976.09 746.57 976.00 C 768.15 997.71 789.90 1019.27 811.47 1040.99 C 738.69 1041.01 665.90 1041.00 593.12 1041.00 C 608.75 1025.34 624.40 1009.70 640.04 994.06 C 646.13 988.12 651.90 981.84 658.22 976.15 Z" />
<path fill="#ffffff" opacity="1.00" d=" M 413.30 1046.31 C 443.19 1023.11 473.12 999.96 503.02 976.77 C 523.61 997.15 544.39 1017.35 564.91 1037.80 C 550.73 1047.40 534.51 1053.68 517.89 1057.55 C 504.81 1060.49 491.40 1062.24 477.98 1062.00 C 455.42 1062.51 432.76 1058.53 411.74 1050.29 C 412.11 1048.90 411.90 1047.15 413.30 1046.31 Z" />
<path fill="#ffffff" opacity="1.00" d=" M 850.09 1037.80 C 870.61 1017.35 891.39 997.15 911.98 976.77 C 940.59 998.95 969.21 1021.12 997.83 1043.29 C 1000.16 1045.19 1003.51 1046.71 1003.27 1050.28 C 984.11 1057.80 963.54 1061.81 942.96 1062.00 C 910.66 1062.84 877.27 1055.86 850.09 1037.80 Z" />
</g>
</svg>
