<?xml version="1.0" encoding="UTF-8" ?>
<!DOCTYPE svg PUBLIC "-//W3C//DTD SVG 1.1//EN" "http://www.w3.org/Graphics/SVG/1.1/DTD/svg11.dtd">
<svg width="1276pt" height="1276pt" viewBox="0 0 1276 1276" version="1.1" xmlns="http://www.w3.org/2000/svg">
<g id="#7d7d7d7d">
<path fill="#7d7d7d" opacity="0.49" d=" M 479.88 102.89 C 479.93 102.19 480.05 100.78 480.11 100.08 L 480.25 104.02 C 481.15 103.23 482.96 101.64 483.86 100.84 C 482.72 102.02 481.52 103.14 480.36 104.29 C 479.78 104.33 478.63 104.42 478.06 104.46 C 476.61 105.46 475.12 106.45 473.37 106.80 C 472.78 106.64 472.21 106.47 471.64 106.31 L 470.62 106.00 C 472.84 105.18 475.11 104.45 477.47 104.13 C 477.52 103.72 477.61 102.89 477.66 102.47 C 478.21 102.57 479.32 102.78 479.88 102.89 Z" />
<path fill="#7d7d7d" opacity="0.49" d=" M 792.16 101.52 C 793.25 101.15 795.44 100.41 796.53 100.05 C 796.25 100.80 795.69 102.30 795.41 103.05 C 796.17 102.89 797.67 102.57 798.42 102.41 C 798.42 102.87 798.40 103.77 798.39 104.22 C 800.85 104.35 803.18 105.14 805.43 106.12 L 804.52 106.37 C 803.83 106.53 803.16 106.70 802.51 106.86 C 800.79 106.37 799.29 105.40 797.79 104.50 C 797.30 104.41 796.32 104.23 795.83 104.14 C 794.64 103.20 793.41 102.34 792.16 101.52 Z" />
<path fill="#7d7d7d" opacity="0.49" d=" M 981.30 412.54 C 981.61 424.43 980.13 436.29 978.69 448.08 C 976.24 465.47 972.44 482.67 967.24 499.45 C 965.53 504.57 964.26 509.91 961.61 514.66 C 961.74 511.84 962.83 509.22 963.75 506.60 C 972.91 479.31 978.38 450.81 980.05 422.09 C 980.40 418.92 979.51 415.40 981.30 412.54 Z" />
</g>
<g id="#aaaaaaaa">
<path fill="#aaaaaa" opacity="0.67" d=" M 467.77 107.53 C 469.04 107.08 470.29 106.54 471.64 106.31 C 472.21 106.47 472.78 106.64 473.37 106.80 L 474.35 107.10 C 473.37 107.26 471.41 107.58 470.44 107.75 C 470.48 108.04 470.55 108.64 470.59 108.93 C 468.46 109.81 466.43 110.88 464.40 111.95 C 463.53 111.81 461.78 111.54 460.90 111.41 C 463.07 109.91 465.44 108.76 467.77 107.53 Z" />
</g>
<g id="#adadadad">
<path fill="#adadad" opacity="0.68" d=" M 802.51 106.86 C 803.16 106.70 803.83 106.53 804.52 106.37 C 805.77 106.61 806.95 107.12 808.18 107.55 C 824.15 115.40 839.96 123.65 854.98 133.22 C 855.77 133.80 856.51 134.45 857.21 135.15 C 852.90 133.75 849.31 130.92 845.45 128.66 C 837.13 123.77 828.67 119.13 820.11 114.67 C 818.45 113.66 816.47 113.62 814.61 113.47 C 811.29 112.62 808.71 109.94 805.41 108.94 C 805.44 108.64 805.51 108.04 805.55 107.74 C 804.56 107.58 802.59 107.25 801.61 107.09 L 802.51 106.86 Z" />
</g>
<g id="#ffffffff">
<path fill="#ffffff" opacity="1.00" d=" M 458.91 112.47 C 459.54 112.07 460.21 111.71 460.90 111.41 C 461.78 111.54 463.53 111.81 464.40 111.95 C 463.80 112.24 462.61 112.82 462.01 113.11 C 460.90 113.72 459.79 114.32 458.68 114.90 L 458.64 115.68 L 457.46 115.36 L 457.31 116.19 C 456.09 116.73 454.89 117.31 453.69 117.85 L 453.66 118.69 L 452.75 118.46 C 451.93 119.17 451.12 119.88 450.31 120.60 L 449.36 120.39 L 449.41 121.64 C 448.99 121.60 448.14 121.52 447.72 121.47 L 447.55 122.63 L 446.32 122.41 L 446.44 123.73 C 445.99 123.64 445.09 123.47 444.64 123.38 L 444.63 124.64 L 443.43 124.39 L 443.44 125.62 C 442.98 125.58 442.07 125.49 441.61 125.45 L 441.70 126.74 L 440.48 126.47 L 440.53 127.62 L 439.32 127.35 L 439.40 128.67 C 438.95 128.59 438.06 128.42 437.61 128.34 L 437.66 129.62 L 436.49 129.43 L 436.35 130.10 C 434.92 131.11 433.53 132.18 432.15 133.24 C 430.95 134.11 429.77 135.01 428.56 135.84 L 428.63 136.64 L 427.42 136.26 L 427.52 137.16 C 426.52 137.71 425.52 138.27 424.52 138.83 L 424.64 139.75 L 423.88 139.48 C 423.50 139.79 422.74 140.42 422.37 140.73 L 422.44 141.04 C 420.77 142.29 419.19 143.67 417.53 144.94 L 417.54 145.19 C 417.19 145.52 416.49 146.18 416.13 146.51 L 415.40 146.29 L 415.30 147.04 C 413.37 148.62 411.57 150.36 409.62 151.92 L 409.60 152.62 L 408.45 152.42 L 408.55 153.61 L 407.80 153.40 C 407.45 153.75 406.76 154.44 406.41 154.78 L 406.55 155.52 L 405.78 155.40 C 405.43 155.73 404.72 156.40 404.36 156.73 L 404.30 157.07 C 401.71 159.25 399.37 161.69 396.99 164.10 C 394.97 166.12 392.92 168.12 391.05 170.29 L 390.39 170.42 L 390.50 171.52 L 389.33 171.39 L 389.53 172.13 C 389.19 172.49 388.50 173.19 388.16 173.54 L 387.42 173.45 L 387.60 174.20 C 387.26 174.54 386.59 175.23 386.25 175.58 L 385.92 175.71 C 385.28 176.46 384.64 177.20 383.99 177.94 C 382.96 179.04 381.98 180.17 381.10 181.39 L 380.37 181.40 L 380.62 182.59 L 379.81 182.40 C 379.60 182.78 379.17 183.54 378.96 183.92 C 377.55 185.33 376.21 186.80 375.01 188.38 L 374.33 188.46 L 374.63 189.62 L 373.83 189.55 C 372.96 190.84 372.03 192.10 371.15 193.39 L 370.37 193.38 L 370.47 194.16 C 369.28 195.50 368.12 196.86 367.02 198.28 L 366.37 198.48 L 366.68 199.64 L 365.88 199.58 C 365.02 200.88 364.10 202.15 363.24 203.44 L 362.88 203.64 C 362.28 204.58 361.58 205.44 360.76 206.20 C 360.70 206.41 360.59 206.83 360.54 207.04 C 359.68 208.16 358.84 209.29 358.07 210.47 L 357.76 210.51 C 356.95 211.84 356.08 213.14 355.26 214.47 L 354.76 214.50 C 354.25 215.53 353.75 216.56 353.25 217.60 L 352.91 217.48 C 352.18 218.72 351.33 219.88 350.46 221.03 C 350.49 221.36 350.53 222.03 350.55 222.37 L 349.27 222.30 L 349.58 223.52 L 348.44 223.48 L 348.68 224.69 L 347.43 224.64 C 347.50 225.08 347.63 225.97 347.69 226.41 L 346.36 226.63 C 346.40 227.05 346.47 227.89 346.51 228.31 L 345.36 228.45 L 345.63 229.68 L 344.31 229.60 C 344.40 230.05 344.58 230.94 344.68 231.38 L 343.45 231.44 L 343.65 232.63 L 342.46 232.65 C 342.51 233.10 342.63 233.99 342.69 234.44 L 341.32 234.61 C 341.38 235.04 341.49 235.90 341.55 236.33 L 340.39 236.48 L 340.67 237.71 L 339.41 237.61 C 339.47 237.99 339.58 238.74 339.63 239.12 C 338.88 240.04 338.14 240.96 337.40 241.88 C 337.45 242.26 337.55 243.02 337.60 243.40 L 336.33 243.29 L 336.65 244.52 L 335.52 244.70 C 335.56 245.13 335.64 246.00 335.68 246.43 L 334.35 246.60 C 334.44 247.05 334.62 247.95 334.71 248.40 L 333.72 248.60 C 333.24 249.89 332.72 251.16 332.26 252.45 L 331.28 252.54 C 331.33 252.92 331.43 253.67 331.49 254.05 C 330.77 254.97 330.06 255.90 329.36 256.83 C 329.42 257.22 329.54 257.99 329.60 258.38 L 328.33 258.53 C 328.33 258.88 328.35 259.56 328.35 259.91 C 328.06 260.54 327.47 261.79 327.17 262.42 L 326.26 262.55 C 326.35 263.01 326.54 263.91 326.64 264.37 L 325.81 264.60 C 325.48 265.21 324.82 266.42 324.49 267.02 C 324.56 267.38 324.69 268.10 324.76 268.45 L 323.82 268.49 C 323.31 270.43 322.48 272.28 321.47 274.01 C 321.49 274.26 321.54 274.75 321.56 275.00 C 321.20 275.50 320.47 276.48 320.10 276.97 C 319.78 278.18 319.49 279.40 319.23 280.63 L 318.14 280.52 C 318.26 280.89 318.49 281.62 318.60 281.98 C 317.86 283.32 317.15 284.69 316.41 286.03 C 316.47 286.26 316.58 286.72 316.63 286.94 C 316.05 287.97 315.49 289.01 314.95 290.06 C 314.70 291.24 314.46 292.42 314.24 293.60 L 313.51 293.27 C 313.48 294.10 313.42 295.78 313.39 296.62 L 312.14 296.60 C 312.31 297.04 312.65 297.91 312.82 298.34 L 311.90 298.46 C 311.46 300.84 310.56 303.10 310.10 305.48 L 309.76 305.53 C 309.19 307.58 308.52 309.60 308.23 311.72 L 307.73 311.40 C 307.54 312.60 307.33 313.80 307.11 315.00 C 306.78 316.27 306.51 317.55 306.30 318.85 C 306.11 318.68 305.73 318.35 305.54 318.18 C 305.50 319.64 305.46 321.11 305.42 322.59 L 304.66 322.48 C 304.56 323.83 304.46 325.19 304.36 326.55 L 303.67 326.39 C 303.59 327.64 303.49 328.90 303.38 330.15 C 302.48 331.78 302.34 333.65 302.18 335.47 L 301.67 335.53 C 301.65 336.02 301.60 337.01 301.58 337.50 C 299.38 342.36 299.07 347.77 298.12 352.95 C 293.66 380.90 293.25 409.39 295.84 437.55 C 296.00 436.85 296.33 435.44 296.49 434.74 C 296.49 442.10 298.62 449.24 298.74 456.58 L 299.37 456.37 C 299.45 458.10 299.57 459.84 299.66 461.58 L 300.36 461.29 C 300.45 463.72 300.62 466.15 300.75 468.59 L 301.35 468.05 C 301.58 469.34 301.86 470.62 302.19 471.90 C 302.38 473.46 302.57 475.04 302.72 476.62 L 303.51 476.23 C 303.54 477.68 303.57 479.14 303.60 480.60 L 304.36 480.44 C 304.47 481.77 304.58 483.11 304.69 484.45 L 305.42 484.40 C 305.47 485.83 305.53 487.26 305.60 488.70 L 306.42 488.23 C 306.50 488.95 306.66 490.38 306.74 491.09 C 307.21 492.54 307.54 494.03 307.82 495.54 L 308.54 495.31 C 308.53 496.14 308.52 497.82 308.51 498.65 L 309.41 498.42 C 309.46 499.20 309.55 500.75 309.60 501.52 L 310.38 501.48 C 310.40 502.29 310.43 503.92 310.45 504.73 L 311.20 504.35 C 311.58 506.43 312.20 508.47 312.73 510.53 L 313.43 510.39 C 313.45 511.22 313.50 512.89 313.53 513.72 L 314.15 513.37 C 314.54 514.64 314.98 515.90 315.46 517.16 C 315.38 517.49 315.22 518.14 315.14 518.47 L 316.40 518.39 C 316.45 519.20 316.55 520.82 316.60 521.63 L 317.74 521.66 C 317.58 522.10 317.28 522.97 317.13 523.40 L 318.32 523.43 C 318.38 524.24 318.51 525.87 318.57 526.68 L 319.79 526.54 C 319.69 526.90 319.50 527.63 319.40 527.99 C 320.13 529.33 320.83 530.69 321.60 532.02 C 321.52 532.36 321.36 533.04 321.29 533.38 L 322.53 533.63 C 322.54 533.96 322.56 534.61 322.57 534.94 C 323.05 536.11 323.48 537.30 323.87 538.51 L 324.76 538.36 C 324.70 538.80 324.59 539.66 324.54 540.09 C 325.23 541.02 325.92 541.95 326.62 542.89 C 326.54 543.26 326.38 544.01 326.30 544.39 C 326.66 544.46 327.37 544.61 327.73 544.68 L 327.52 545.89 C 327.84 546.52 328.47 547.79 328.79 548.43 L 329.69 548.59 C 329.62 548.97 329.49 549.73 329.42 550.11 C 330.14 551.02 330.85 551.94 331.57 552.87 C 331.51 553.25 331.40 554.02 331.34 554.41 L 332.67 554.54 C 332.65 554.90 332.62 555.60 332.61 555.96 C 332.94 556.53 333.60 557.67 333.93 558.25 L 334.16 558.35 C 334.84 559.62 335.60 560.84 336.40 562.05 C 336.38 562.39 336.35 563.06 336.34 563.40 L 337.70 563.63 C 337.62 564.07 337.45 564.95 337.37 565.39 L 338.29 565.44 C 338.77 566.51 339.25 567.59 339.72 568.68 L 340.64 568.63 C 340.58 568.99 340.48 569.70 340.43 570.06 C 341.15 570.93 341.87 571.81 342.60 572.70 L 342.41 573.63 L 343.60 573.66 C 343.55 574.07 343.45 574.90 343.41 575.32 L 344.60 575.46 L 344.29 576.68 L 345.51 576.65 C 345.51 576.99 345.49 577.65 345.48 577.99 C 345.85 578.57 346.59 579.74 346.96 580.32 L 347.74 580.41 L 347.38 581.66 L 348.65 581.60 C 348.60 582.02 348.50 582.87 348.45 583.29 L 349.62 583.44 L 349.41 584.63 L 350.70 584.61 C 350.63 585.05 350.49 585.92 350.43 586.36 L 351.65 586.37 L 351.41 587.55 L 352.64 587.58 C 352.59 588.02 352.49 588.91 352.44 589.35 L 353.71 589.33 L 353.43 590.54 L 354.57 590.47 L 354.28 591.68 L 355.55 591.59 C 355.53 591.95 355.49 592.66 355.47 593.01 C 356.61 594.34 357.73 595.70 358.79 597.10 C 359.88 598.69 361.06 600.22 362.25 601.75 C 362.47 602.04 362.91 602.62 363.13 602.91 C 363.71 603.63 364.30 604.36 364.89 605.10 C 365.10 605.49 365.51 606.28 365.72 606.67 L 366.13 606.62 C 367.03 607.88 367.98 609.10 368.89 610.37 L 369.66 610.42 L 369.47 611.14 C 369.78 611.52 370.40 612.27 370.72 612.65 L 371.10 612.63 C 371.99 613.89 372.94 615.12 373.85 616.39 L 374.61 616.40 L 374.49 617.14 C 374.81 617.50 375.44 618.24 375.75 618.61 L 376.08 618.68 C 377.66 620.59 379.39 622.38 380.98 624.30 L 381.74 624.39 L 381.51 625.10 C 381.85 625.46 382.55 626.17 382.90 626.53 L 383.70 626.36 L 383.40 627.15 C 383.76 627.51 384.47 628.23 384.83 628.58 L 385.59 628.42 L 385.35 629.22 C 385.69 629.57 386.39 630.29 386.73 630.64 L 387.53 630.45 L 387.36 631.25 C 387.70 631.60 388.38 632.30 388.72 632.65 L 389.05 632.70 C 389.99 633.81 390.99 634.90 391.99 635.98 C 393.74 637.65 395.48 639.36 397.32 640.95 L 397.42 641.68 L 398.10 641.48 C 398.47 641.83 399.19 642.53 399.56 642.89 L 399.37 643.66 L 400.63 643.36 L 400.37 644.64 L 401.18 644.37 C 401.53 644.72 402.22 645.41 402.57 645.75 L 402.69 646.04 C 404.23 647.29 405.69 648.65 407.10 650.06 C 407.85 650.67 408.60 651.28 409.37 651.89 L 409.42 652.23 C 409.78 652.54 410.51 653.16 410.87 653.47 L 411.56 653.39 L 411.66 654.13 C 412.90 655.03 414.10 655.99 415.35 656.91 L 415.34 657.31 C 415.72 657.52 416.48 657.95 416.86 658.16 C 418.33 659.45 419.80 660.75 421.37 661.94 L 421.41 662.25 C 421.79 662.47 422.56 662.91 422.94 663.13 C 423.65 663.70 424.37 664.29 425.09 664.88 C 425.47 665.10 426.22 665.54 426.59 665.75 L 426.64 666.17 C 427.90 667.03 429.14 667.94 430.41 668.80 L 430.55 669.17 C 431.42 669.69 432.28 670.22 433.14 670.77 C 433.50 671.02 434.20 671.52 434.55 671.78 L 434.65 672.56 C 435.08 672.53 435.95 672.49 436.39 672.46 L 436.30 673.30 C 436.69 673.59 437.49 674.16 437.89 674.45 L 438.63 674.28 L 438.61 675.51 C 439.08 675.47 440.03 675.39 440.50 675.35 L 440.33 676.63 L 441.56 676.29 L 441.64 677.49 C 442.07 677.47 442.94 677.42 443.38 677.39 L 443.40 678.65 L 444.60 678.32 L 444.68 679.55 C 445.10 679.52 445.94 679.45 446.36 679.42 L 446.47 680.62 L 447.71 680.30 L 447.64 681.59 C 447.97 681.56 448.63 681.52 448.95 681.49 C 450.12 682.35 451.32 683.20 452.61 683.89 L 452.61 684.68 C 453.04 684.62 453.90 684.51 454.33 684.45 L 454.48 685.64 L 455.72 685.34 L 455.56 686.60 C 455.92 686.57 456.64 686.50 457.00 686.47 C 457.56 686.84 458.68 687.59 459.24 687.96 L 459.48 688.67 L 460.72 688.31 L 460.61 689.60 C 460.99 689.56 461.74 689.48 462.12 689.43 C 463.03 690.16 463.95 690.90 464.87 691.65 C 465.25 691.59 466.02 691.48 466.41 691.42 L 466.32 692.68 L 467.55 692.39 L 467.63 693.57 C 468.08 693.49 468.98 693.33 469.43 693.25 L 469.59 694.65 C 469.97 694.60 470.74 694.50 471.12 694.45 C 472.04 695.17 472.97 695.90 473.90 696.64 C 474.28 696.57 475.04 696.41 475.41 696.34 L 475.35 697.23 C 476.94 697.92 478.51 698.69 479.99 699.61 C 480.34 699.57 481.04 699.48 481.40 699.44 L 481.36 700.69 L 482.57 700.26 L 482.46 701.32 C 483.23 701.39 484.77 701.55 485.54 701.62 L 485.45 702.79 C 485.81 702.75 486.53 702.67 486.89 702.63 C 487.50 702.94 488.73 703.57 489.34 703.88 L 489.59 704.75 C 490.04 704.64 490.96 704.42 491.41 704.31 L 491.58 705.19 C 492.20 705.51 493.45 706.13 494.07 706.45 C 494.44 706.38 495.17 706.26 495.53 706.19 L 495.41 707.40 C 496.19 707.47 497.77 707.61 498.56 707.68 L 498.58 708.72 C 499.01 708.64 499.87 708.49 500.30 708.41 L 500.63 709.75 C 501.09 709.60 502.01 709.29 502.47 709.14 L 502.47 710.11 C 503.69 710.52 504.91 710.97 506.13 711.47 C 506.46 711.40 507.14 711.26 507.48 711.19 L 507.32 712.41 C 508.15 712.47 509.80 712.58 510.63 712.64 L 510.60 713.82 C 510.91 713.74 511.51 713.57 511.81 713.48 C 513.04 714.08 514.34 714.52 515.70 714.78 L 515.30 715.20 C 516.60 715.55 517.89 715.98 519.17 716.48 C 519.50 716.39 520.15 716.22 520.48 716.13 L 520.32 717.16 C 522.32 717.42 524.24 718.05 526.10 718.84 C 527.32 719.16 528.56 719.46 529.81 719.73 L 529.30 720.40 C 530.71 720.49 532.13 720.58 533.55 720.69 L 533.44 721.32 C 535.53 721.84 537.61 722.44 539.76 722.75 L 539.31 723.31 C 540.54 723.47 541.79 723.66 543.03 723.87 C 544.25 724.22 545.48 724.52 546.73 724.80 L 546.27 725.45 C 547.72 725.48 549.18 725.52 550.65 725.57 L 550.47 726.35 C 551.80 726.45 553.13 726.56 554.47 726.68 L 554.43 727.39 C 555.86 727.43 557.30 727.47 558.75 727.52 L 558.33 728.39 C 560.06 728.48 561.79 728.60 563.53 728.71 L 563.48 729.37 C 564.89 729.43 566.30 729.50 567.73 729.58 L 567.29 730.37 C 569.43 730.43 571.57 730.55 573.72 730.63 L 573.25 731.39 C 574.99 731.47 576.72 731.58 578.48 731.70 L 578.49 732.29 C 580.56 732.36 582.65 732.50 584.74 732.58 L 584.28 733.36 C 587.41 733.47 590.55 733.66 593.69 733.75 C 593.64 702.83 593.68 671.91 593.67 640.98 C 593.55 627.76 593.94 614.53 593.41 601.32 L 592.64 601.65 C 592.57 600.20 592.50 598.75 592.44 597.31 L 591.36 597.46 C 591.40 597.11 591.49 596.40 591.53 596.05 C 591.24 595.40 590.66 594.09 590.36 593.44 L 589.43 593.38 C 589.46 593.01 589.54 592.27 589.58 591.90 C 588.39 590.57 587.22 589.25 586.04 587.94 C 584.77 586.75 583.50 585.57 582.25 584.39 L 581.40 584.63 L 581.37 583.37 C 580.94 583.41 580.10 583.49 579.67 583.53 L 579.54 582.31 L 578.29 582.85 L 578.51 581.92 C 577.30 581.45 576.11 580.95 574.94 580.43 C 574.63 580.44 574.02 580.48 573.71 580.50 L 573.40 579.25 C 572.92 579.39 571.95 579.66 571.46 579.79 L 571.53 578.70 C 570.88 578.60 569.57 578.39 568.91 578.29 C 567.65 577.92 566.39 577.61 565.12 577.33 L 565.57 576.72 C 563.14 576.57 560.72 576.39 558.31 576.33 L 558.65 575.69 C 552.25 575.35 545.84 575.13 539.44 575.41 C 539.28 570.33 539.39 565.24 539.35 560.16 C 539.88 560.23 540.96 560.38 541.49 560.45 L 541.40 559.68 C 546.13 559.78 550.87 559.79 555.61 559.68 L 555.38 560.41 L 557.12 560.13 C 557.95 559.98 559.63 559.67 560.47 559.51 L 561.02 561.26 L 561.40 559.69 C 564.47 559.77 567.54 559.77 570.61 559.68 L 570.48 560.29 C 571.24 560.29 572.76 560.29 573.51 560.29 L 573.40 559.70 C 575.46 559.74 577.54 559.74 579.62 559.70 L 579.41 560.28 C 581.46 560.23 583.52 560.23 585.59 560.28 L 585.38 559.70 C 587.45 559.74 589.53 559.73 591.61 559.69 L 591.37 560.30 L 593.56 560.32 L 593.60 559.22 C 594.30 559.65 595.71 560.51 596.42 560.94 L 596.29 559.70 C 599.05 559.76 601.81 559.76 604.58 559.69 L 605.00 561.30 L 605.42 559.69 C 609.84 559.78 614.26 559.77 618.68 559.69 L 618.67 561.08 L 619.78 559.74 L 621.20 559.75 L 622.34 561.03 L 622.33 559.69 C 627.42 559.77 632.51 559.78 637.61 559.68 L 637.48 560.29 C 638.24 560.29 639.76 560.29 640.52 560.29 L 640.39 559.69 C 643.12 559.76 645.85 559.76 648.58 559.68 L 648.41 560.30 L 650.54 560.32 L 650.42 559.65 L 652.67 559.68 L 652.41 560.28 C 653.46 560.28 655.56 560.27 656.61 560.27 L 656.36 559.71 C 657.42 559.71 659.55 559.70 660.62 559.70 L 660.38 560.31 L 662.63 560.31 L 662.38 559.69 C 663.45 559.70 665.58 559.71 666.64 559.72 L 666.64 560.68 C 667.33 560.33 668.70 559.63 669.39 559.28 L 669.36 560.29 L 671.62 560.31 L 671.39 559.70 C 673.12 559.72 674.86 559.72 676.61 559.70 L 676.38 560.31 L 678.63 560.31 L 678.38 559.69 C 679.44 559.70 681.57 559.71 682.63 559.71 L 682.45 560.32 C 683.16 560.30 684.58 560.25 685.29 560.22 L 685.85 559.38 C 686.51 559.70 687.85 560.33 688.52 560.64 L 688.38 559.68 C 693.11 559.78 697.85 559.77 702.59 559.69 L 702.98 561.26 L 703.45 559.70 C 704.22 559.70 705.78 559.70 706.55 559.70 L 707.02 561.26 L 707.41 559.69 C 711.80 559.77 716.19 559.78 720.58 559.69 L 721.00 561.29 L 721.42 559.69 C 725.81 559.77 730.21 559.78 734.60 559.68 L 734.50 560.45 C 735.04 560.38 736.11 560.23 736.65 560.15 C 736.61 565.24 736.71 570.33 736.55 575.42 C 729.88 575.13 723.20 575.35 716.55 575.76 L 716.67 576.39 C 714.57 576.45 712.50 576.60 710.42 576.71 L 710.87 577.34 C 709.59 577.60 708.33 577.91 707.09 578.28 C 706.43 578.38 705.10 578.59 704.44 578.69 L 704.73 579.50 C 703.88 579.54 702.18 579.61 701.33 579.65 L 701.77 580.88 L 700.44 580.13 L 700.53 581.28 C 699.75 581.37 698.21 581.54 697.44 581.62 L 697.72 582.82 L 696.47 582.30 L 696.33 583.48 C 695.98 583.47 695.30 583.46 694.95 583.46 C 693.62 584.60 692.29 585.75 690.96 586.90 C 689.41 588.53 687.89 590.19 686.40 591.88 C 686.44 592.26 686.51 593.01 686.55 593.38 L 685.19 593.51 C 685.26 593.96 685.41 594.87 685.48 595.33 L 684.32 595.54 L 684.83 596.88 L 683.69 596.38 C 683.55 598.13 683.40 599.88 683.31 601.65 L 682.57 601.29 C 682.01 645.44 682.51 689.60 682.31 733.75 C 685.44 733.66 688.57 733.47 691.70 733.36 L 691.25 732.58 C 693.34 732.50 695.42 732.36 697.53 732.28 L 697.49 731.71 C 699.51 731.56 701.54 731.40 703.57 731.28 L 703.26 730.53 C 705.06 730.48 706.89 730.42 708.72 730.39 L 708.28 729.57 C 709.68 729.49 711.10 729.43 712.52 729.36 L 712.44 728.73 C 714.46 728.58 716.50 728.40 718.53 728.24 L 718.14 727.38 C 719.00 727.39 720.73 727.41 721.59 727.42 L 721.51 726.67 C 722.84 726.56 724.18 726.45 725.53 726.35 L 725.31 725.62 C 727.33 725.49 729.37 725.36 731.39 725.19 C 730.53 725.11 728.79 724.96 727.92 724.89 C 729.63 724.71 731.32 724.36 732.96 723.83 C 734.22 723.65 735.48 723.50 736.77 723.38 C 736.60 723.21 736.28 722.88 736.12 722.71 C 738.30 722.47 740.42 721.85 742.55 721.30 L 742.45 720.67 C 743.85 720.57 745.26 720.49 746.69 720.41 L 746.22 719.76 C 747.55 719.42 748.87 719.03 750.18 718.58 C 750.51 718.65 751.17 718.77 751.49 718.84 L 751.42 717.67 C 752.83 717.55 754.24 717.44 755.67 717.34 L 755.52 716.15 C 755.85 716.22 756.50 716.38 756.83 716.46 C 758.08 715.96 759.37 715.54 760.68 715.19 L 760.26 714.77 C 761.62 714.50 762.93 714.07 764.20 713.47 C 764.49 713.56 765.08 713.74 765.37 713.83 L 765.37 712.63 C 766.19 712.57 767.84 712.46 768.67 712.41 L 768.51 711.19 C 768.85 711.26 769.54 711.39 769.88 711.45 C 771.07 710.96 772.28 710.50 773.51 710.09 L 773.50 709.16 C 773.97 709.30 774.91 709.57 775.37 709.71 L 775.69 708.38 C 776.12 708.46 776.98 708.63 777.40 708.72 L 777.44 707.67 C 778.22 707.60 779.79 707.46 780.58 707.38 L 780.46 706.17 C 780.83 706.24 781.55 706.37 781.91 706.43 C 782.53 706.12 783.77 705.50 784.39 705.18 L 784.59 704.32 C 785.05 704.42 785.98 704.63 786.45 704.73 L 786.63 703.87 C 787.25 703.55 788.49 702.91 789.12 702.60 C 789.48 702.65 790.20 702.75 790.56 702.81 L 790.41 701.64 C 791.20 701.55 792.76 701.38 793.54 701.30 L 793.41 700.22 L 794.62 700.68 L 794.61 699.41 C 794.96 699.47 795.67 699.59 796.03 699.66 C 797.26 698.86 798.52 698.13 799.79 697.40 L 800.76 697.57 L 800.52 696.27 C 800.91 696.37 801.68 696.56 802.06 696.66 C 802.99 695.91 803.92 695.17 804.87 694.44 C 805.25 694.49 806.02 694.59 806.41 694.64 L 806.55 693.24 C 807.01 693.32 807.92 693.48 808.37 693.56 L 808.44 692.37 L 809.66 692.67 L 809.60 691.37 C 810.05 691.47 810.96 691.65 811.42 691.75 L 811.65 690.86 C 812.23 690.52 813.41 689.84 814.00 689.51 C 814.34 689.51 815.03 689.53 815.37 689.54 L 815.31 688.29 L 816.54 688.66 L 816.74 687.95 C 817.30 687.58 818.43 686.83 818.99 686.45 C 819.35 686.49 820.07 686.56 820.43 686.59 L 820.27 685.33 L 821.52 685.63 L 821.67 684.43 C 822.09 684.49 822.95 684.61 823.38 684.66 L 823.35 683.89 C 824.65 683.17 825.87 682.31 827.07 681.44 L 828.28 681.64 C 828.30 681.29 828.33 680.59 828.35 680.25 L 829.50 680.63 L 829.62 679.44 C 830.05 679.46 830.90 679.48 831.32 679.50 L 831.41 678.27 L 832.62 678.67 L 832.54 677.41 C 833.00 677.43 833.92 677.45 834.39 677.47 L 834.37 676.68 C 834.74 676.45 835.49 676.01 835.86 675.78 C 836.84 675.10 837.81 674.40 838.81 673.73 C 840.02 672.89 841.23 672.03 842.48 671.23 L 842.47 670.80 C 843.47 670.26 844.48 669.72 845.51 669.19 L 845.41 668.75 C 845.80 668.54 846.57 668.10 846.95 667.89 C 847.66 667.29 848.39 666.70 849.13 666.12 C 849.51 665.91 850.27 665.48 850.65 665.26 L 850.63 664.89 C 851.83 664.04 853.01 663.15 854.23 662.30 C 855.91 660.97 857.52 659.55 859.10 658.11 C 859.49 657.91 860.27 657.51 860.66 657.32 L 860.60 656.97 C 862.19 655.79 863.68 654.46 865.13 653.10 C 865.51 652.89 866.26 652.47 866.64 652.26 L 866.60 651.88 C 867.76 650.96 868.88 649.99 870.01 649.03 C 870.66 648.34 871.32 647.65 871.99 646.97 C 872.79 646.33 873.59 645.71 874.42 645.10 L 874.40 644.31 L 875.13 644.55 C 875.49 644.20 876.21 643.50 876.57 643.16 L 876.44 642.85 C 876.80 642.51 877.52 641.82 877.88 641.48 L 878.65 641.69 L 878.50 640.92 C 878.86 640.58 879.58 639.88 879.94 639.53 L 880.70 639.70 L 880.46 638.46 L 881.71 638.70 L 881.50 637.94 C 881.86 637.60 882.58 636.91 882.94 636.57 L 883.61 636.68 L 883.73 636.01 C 884.50 635.25 885.25 634.48 886.00 633.70 L 886.68 633.63 L 886.54 632.94 C 886.89 632.58 887.59 631.87 887.95 631.52 L 888.69 631.66 L 888.43 630.41 L 889.22 630.63 C 889.57 630.27 890.27 629.56 890.62 629.20 L 890.38 628.40 L 891.14 628.57 C 891.50 628.21 892.22 627.49 892.57 627.13 L 892.32 626.43 L 893.07 626.34 C 895.23 623.67 897.77 621.33 899.91 618.65 L 900.23 618.58 C 900.55 618.22 901.17 617.48 901.49 617.12 L 901.36 616.38 L 902.13 616.38 C 903.03 615.10 903.98 613.86 904.88 612.59 L 905.72 612.64 L 905.34 611.47 L 906.09 611.48 C 907.32 609.82 908.66 608.24 909.90 606.58 L 910.25 606.44 C 911.09 605.15 911.99 603.89 912.85 602.61 L 913.66 602.62 L 913.37 601.46 L 914.51 601.52 L 914.32 600.34 L 915.56 600.36 C 915.51 599.92 915.43 599.02 915.39 598.57 L 916.28 598.67 C 916.51 598.29 916.98 597.55 917.21 597.17 C 917.76 596.31 918.31 595.45 918.87 594.59 L 919.61 594.52 L 919.41 593.35 L 920.68 593.40 C 920.60 592.95 920.43 592.05 920.34 591.61 L 921.67 591.71 L 921.39 590.49 L 922.53 590.52 L 922.28 589.32 L 923.55 589.33 C 923.50 588.89 923.39 588.00 923.34 587.56 L 924.55 587.57 L 924.29 586.37 L 925.50 586.39 C 925.46 585.93 925.38 585.01 925.34 584.55 L 926.58 584.62 L 926.33 583.43 L 927.49 583.32 C 927.46 582.90 927.41 582.04 927.38 581.61 L 928.68 581.43 C 928.63 580.99 928.52 580.10 928.46 579.66 L 929.70 579.68 L 929.46 578.49 L 930.65 578.37 C 930.59 577.94 930.47 577.08 930.41 576.65 L 931.70 576.68 L 931.39 575.47 L 932.08 575.26 C 932.45 574.71 933.19 573.60 933.56 573.05 C 933.54 572.70 933.50 572.00 933.49 571.65 L 934.69 571.71 L 934.44 570.50 L 935.58 570.36 C 935.53 569.93 935.42 569.07 935.37 568.65 L 936.74 568.43 C 936.66 567.98 936.51 567.08 936.43 566.63 L 937.65 566.63 L 937.39 565.42 L 938.60 565.39 C 938.52 564.94 938.36 564.05 938.28 563.60 L 939.61 563.41 C 939.60 563.06 939.59 562.36 939.58 562.02 C 939.92 561.46 940.58 560.33 940.91 559.77 L 941.30 559.63 C 941.76 558.55 942.23 557.48 942.71 556.42 L 943.56 556.34 C 943.48 555.89 943.31 555.00 943.22 554.56 L 944.63 554.40 C 944.57 554.01 944.46 553.24 944.40 552.86 C 945.11 551.93 945.82 551.00 946.55 550.09 C 946.48 549.71 946.35 548.96 946.28 548.58 L 947.28 548.42 C 947.70 547.10 948.19 545.81 948.65 544.51 L 949.66 544.41 C 949.60 544.04 949.48 543.31 949.42 542.94 C 949.72 542.43 950.32 541.42 950.62 540.92 C 951.23 539.55 951.90 538.21 952.65 536.92 L 952.58 536.12 C 952.88 535.49 953.49 534.22 953.80 533.59 L 954.17 533.50 C 954.70 531.55 955.58 529.73 956.51 527.94 C 956.43 527.59 956.28 526.89 956.20 526.54 L 957.42 526.63 C 957.48 525.83 957.60 524.22 957.66 523.42 L 958.83 523.39 C 958.68 522.95 958.38 522.09 958.24 521.66 L 959.39 521.60 C 959.44 520.80 959.54 519.18 959.59 518.38 L 960.83 518.46 C 960.73 518.10 960.53 517.37 960.43 517.01 C 960.81 516.22 961.20 515.44 961.61 514.66 C 964.26 509.91 965.53 504.57 967.24 499.45 C 972.44 482.67 976.24 465.47 978.69 448.08 C 980.13 436.29 981.61 424.43 981.30 412.54 L 979.62 411.79 L 981.38 411.59 C 981.33 407.21 981.33 402.84 981.40 398.47 L 979.48 398.00 L 981.36 397.53 C 981.35 396.46 981.33 394.32 981.33 393.25 L 980.60 393.78 C 980.69 386.34 980.31 378.89 980.22 371.45 L 979.41 371.90 C 979.39 370.07 979.37 368.26 979.36 366.45 L 978.72 366.60 C 978.65 363.19 978.37 359.80 978.26 356.39 L 977.46 356.81 C 977.42 355.01 977.36 353.22 977.34 351.43 L 976.70 351.53 C 976.56 349.47 976.41 347.42 976.31 345.37 L 975.59 345.71 C 975.53 343.90 975.47 342.10 975.43 340.29 L 974.63 340.66 C 974.52 338.95 974.39 337.24 974.30 335.54 L 973.67 335.49 C 973.60 334.06 973.53 332.64 973.48 331.21 L 972.63 331.69 C 972.53 329.92 972.40 328.14 972.34 326.37 L 971.61 326.60 C 971.50 325.24 971.41 323.88 971.32 322.52 L 970.56 322.59 C 970.51 321.12 970.47 319.66 970.45 318.20 C 970.26 318.37 969.89 318.71 969.70 318.88 C 969.46 317.58 969.17 316.30 968.84 315.03 C 968.61 313.83 968.41 312.63 968.25 311.43 L 967.47 311.69 C 967.48 310.86 967.49 309.18 967.50 308.35 L 966.60 308.56 C 966.55 307.79 966.45 306.26 966.40 305.50 L 965.63 305.53 C 965.60 304.70 965.54 303.03 965.51 302.20 L 964.62 302.70 C 964.50 301.29 964.39 299.89 964.29 298.49 L 963.20 298.39 C 963.35 297.94 963.63 297.04 963.77 296.59 L 962.59 296.63 C 962.56 295.79 962.50 294.11 962.48 293.27 L 961.86 293.63 C 961.45 292.33 961.01 291.06 960.54 289.80 L 960.98 288.62 C 960.63 288.59 959.94 288.52 959.60 288.48 C 959.57 287.72 959.51 286.20 959.47 285.43 L 958.79 285.41 C 958.30 283.73 957.72 282.08 957.27 280.39 L 956.83 280.61 C 956.43 279.37 956.00 278.14 955.55 276.93 C 955.55 276.60 955.57 275.95 955.57 275.62 L 954.29 275.45 C 954.39 274.99 954.61 274.06 954.71 273.59 L 953.48 273.30 C 953.49 272.99 953.49 272.38 953.49 272.07 C 952.99 270.86 952.53 269.65 952.12 268.43 L 951.19 268.52 C 951.26 268.15 951.41 267.41 951.49 267.04 C 951.16 266.44 950.50 265.23 950.17 264.63 L 949.34 264.38 C 949.44 263.93 949.63 263.02 949.73 262.57 L 948.71 262.45 C 948.28 261.12 947.79 259.81 947.37 258.49 L 946.36 258.38 C 946.43 258.00 946.56 257.24 946.63 256.85 C 945.91 255.93 945.19 255.00 944.49 254.09 C 944.54 253.70 944.65 252.94 944.71 252.55 L 943.35 252.41 C 943.40 252.03 943.49 251.25 943.53 250.87 C 942.80 249.94 942.07 249.02 941.36 248.10 C 941.43 247.73 941.57 246.97 941.64 246.59 L 940.68 246.61 C 940.22 245.50 939.76 244.39 939.31 243.29 L 938.37 243.40 C 938.42 243.03 938.53 242.28 938.58 241.90 C 937.83 240.98 937.09 240.06 936.36 239.14 C 936.41 238.76 936.50 238.00 936.55 237.62 L 935.30 237.71 L 935.58 236.48 L 934.40 236.32 C 934.48 235.89 934.63 235.03 934.70 234.60 L 933.89 234.61 C 933.19 233.31 932.33 232.10 931.46 230.93 C 931.51 230.60 931.61 229.94 931.66 229.61 L 930.37 229.71 L 930.62 228.48 L 929.47 228.32 C 929.50 227.90 929.58 227.06 929.62 226.64 L 928.31 226.46 C 928.36 226.00 928.47 225.09 928.53 224.63 L 927.28 224.68 L 927.51 223.48 L 926.38 223.52 L 926.72 222.31 L 925.41 222.37 C 925.47 221.93 925.60 221.04 925.66 220.60 L 924.45 220.52 L 924.65 219.34 L 923.41 219.34 C 923.48 218.89 923.62 218.01 923.70 217.57 L 922.42 217.65 L 922.67 216.43 L 921.56 216.36 C 921.55 216.02 921.51 215.35 921.49 215.01 C 920.27 213.60 919.12 212.13 918.13 210.55 L 917.78 210.62 C 917.25 209.59 916.72 208.57 916.21 207.55 L 915.70 207.64 C 915.49 207.24 915.06 206.45 914.84 206.05 C 914.26 205.31 913.69 204.58 913.14 203.84 C 912.93 203.48 912.50 202.76 912.29 202.40 L 911.91 202.44 C 911.34 201.60 910.76 200.76 910.19 199.93 C 909.94 199.56 909.44 198.81 909.19 198.44 L 908.95 198.28 C 907.85 196.87 906.69 195.52 905.51 194.19 L 905.62 193.39 L 904.82 193.40 C 903.93 192.11 903.00 190.87 902.14 189.58 L 901.36 189.63 L 901.60 188.48 L 900.94 188.31 C 899.38 186.39 897.67 184.59 896.09 182.69 L 895.82 182.51 C 895.49 182.18 894.83 181.52 894.50 181.20 L 894.62 180.73 C 892.70 178.77 890.78 176.79 889.08 174.63 L 888.38 174.62 L 888.54 173.48 L 887.37 173.58 L 887.57 172.83 C 887.23 172.48 886.54 171.78 886.19 171.44 L 885.47 171.53 L 885.64 170.35 L 884.92 170.48 C 884.58 170.13 883.90 169.43 883.57 169.08 L 883.59 168.71 C 879.81 164.95 876.07 161.16 872.28 157.41 L 871.91 157.45 C 871.56 157.12 870.85 156.44 870.50 156.11 L 870.62 155.39 L 869.44 155.54 L 869.58 154.80 C 869.23 154.45 868.53 153.76 868.17 153.42 L 867.42 153.63 L 867.54 152.43 L 866.38 152.65 L 866.36 151.94 C 864.40 150.37 862.60 148.63 860.66 147.06 L 860.62 146.30 L 859.87 146.56 C 859.52 146.22 858.80 145.56 858.45 145.22 L 858.42 144.97 C 856.83 143.76 855.34 142.44 853.90 141.08 C 853.52 140.87 852.78 140.45 852.41 140.24 L 852.33 139.91 C 850.91 138.81 849.54 137.65 848.21 136.46 L 847.38 136.63 L 847.41 135.86 C 846.19 135.02 845.02 134.13 843.83 133.26 C 842.43 132.20 841.05 131.13 839.63 130.13 L 839.50 129.45 L 838.32 129.64 L 838.38 128.37 C 837.93 128.45 837.04 128.61 836.59 128.68 L 836.68 127.37 L 835.49 127.64 L 835.45 126.88 C 834.57 126.35 833.70 125.81 832.85 125.28 C 832.46 125.03 831.70 124.55 831.31 124.30 L 831.36 123.41 C 830.91 123.49 830.01 123.65 829.56 123.72 L 829.67 122.42 L 828.44 122.67 L 828.32 121.51 C 827.88 121.54 827.01 121.60 826.57 121.63 L 826.58 120.90 C 825.32 120.15 824.13 119.30 822.97 118.42 C 822.65 118.45 822.01 118.50 821.69 118.52 L 821.73 117.33 L 820.51 117.60 L 820.35 116.75 C 819.14 116.21 817.94 115.65 816.74 115.12 L 816.64 114.64 C 816.13 114.34 815.12 113.76 814.61 113.47 C 816.47 113.62 818.45 113.66 820.11 114.67 C 828.67 119.13 837.13 123.77 845.45 128.66 C 849.31 130.92 852.90 133.75 857.21 135.15 C 857.55 135.28 858.25 135.53 858.59 135.65 L 858.64 136.66 C 859.08 136.59 859.95 136.45 860.39 136.38 L 860.40 137.61 L 861.62 137.40 L 861.62 138.66 C 862.07 138.57 862.98 138.38 863.43 138.29 L 863.31 139.61 L 864.54 139.37 L 864.69 140.56 C 865.11 140.51 865.96 140.42 866.39 140.37 L 866.35 141.65 L 867.58 141.31 L 867.68 142.54 C 868.10 142.52 868.92 142.48 869.33 142.46 L 869.47 143.63 L 870.69 143.38 L 870.57 144.69 C 871.01 144.62 871.89 144.48 872.33 144.41 L 872.38 145.65 L 873.13 145.45 C 873.51 145.75 874.28 146.36 874.66 146.67 L 874.70 147.48 C 875.13 147.48 875.99 147.47 876.43 147.47 L 876.48 148.65 L 877.65 148.31 L 877.58 149.62 C 878.03 149.58 878.93 149.49 879.38 149.44 L 879.36 150.66 L 880.11 150.58 C 880.49 150.87 881.27 151.44 881.66 151.72 L 881.59 152.60 C 882.04 152.57 882.93 152.51 883.37 152.49 L 883.38 153.68 L 884.57 153.45 L 884.54 154.20 C 885.83 155.07 887.09 155.99 888.40 156.86 L 888.37 157.70 L 889.53 157.36 L 889.68 158.05 C 891.09 159.15 892.45 160.31 893.80 161.51 L 894.62 161.38 L 894.56 162.16 C 895.84 163.05 897.08 163.99 898.37 164.88 L 898.36 165.71 L 899.13 165.48 C 899.50 165.80 900.24 166.44 900.61 166.76 L 900.67 167.06 C 902.75 168.71 904.67 170.54 906.68 172.27 C 906.96 172.60 907.52 173.25 907.80 173.58 L 908.56 173.36 L 908.70 174.08 C 910.22 175.32 911.67 176.67 913.09 178.05 C 913.82 178.69 914.57 179.32 915.33 179.94 L 915.38 180.27 C 915.73 180.61 916.43 181.28 916.78 181.62 L 917.57 181.45 L 917.39 182.20 C 917.75 182.55 918.47 183.25 918.82 183.60 L 919.58 183.38 L 919.43 184.59 L 920.18 184.43 C 920.53 184.78 921.24 185.47 921.59 185.81 L 921.40 186.58 L 922.59 186.37 L 922.46 187.57 L 923.24 187.36 C 923.58 187.72 924.25 188.43 924.59 188.79 L 924.46 189.53 L 925.65 189.38 L 925.49 190.12 C 925.84 190.46 926.54 191.15 926.89 191.49 L 927.60 191.41 L 927.42 192.61 L 928.19 192.41 C 928.53 192.76 929.22 193.47 929.57 193.83 L 929.41 194.57 L 930.61 194.45 L 930.41 195.18 C 930.76 195.53 931.46 196.25 931.81 196.61 L 932.56 196.42 L 932.40 197.21 C 932.73 197.56 933.40 198.27 933.73 198.63 L 934.04 198.70 C 935.64 200.60 937.39 202.39 938.96 204.33 L 939.67 204.37 L 939.45 205.53 L 940.64 205.40 L 940.46 206.15 C 940.79 206.50 941.45 207.21 941.78 207.56 L 942.11 207.69 C 943.69 209.61 945.41 211.41 946.92 213.40 L 947.68 213.39 L 947.33 214.53 L 948.09 214.61 C 949.00 215.86 949.98 217.08 950.92 218.32 L 951.67 218.47 L 951.49 219.17 C 951.81 219.52 952.46 220.23 952.79 220.58 L 953.47 220.52 L 953.29 221.69 L 954.54 221.60 C 954.50 222.06 954.43 222.98 954.39 223.44 L 955.68 223.35 L 955.41 224.49 L 956.07 224.67 C 957.17 226.10 958.34 227.47 959.55 228.82 L 959.30 229.65 L 960.61 229.58 C 960.58 230.02 960.52 230.90 960.49 231.35 L 961.65 231.39 L 961.47 232.54 L 962.24 232.53 C 963.07 233.85 963.95 235.14 964.79 236.48 L 965.17 236.44 C 965.68 237.34 966.22 238.24 966.77 239.14 C 967.01 239.52 967.49 240.29 967.73 240.67 L 968.59 240.65 C 968.56 241.07 968.49 241.91 968.45 242.33 L 969.63 242.45 L 969.38 243.66 L 970.67 243.60 C 970.61 244.04 970.49 244.91 970.43 245.35 L 971.64 245.37 L 971.43 246.56 L 972.67 246.59 C 972.60 247.04 972.44 247.92 972.37 248.37 L 973.65 248.30 L 973.42 249.52 L 974.60 249.66 C 974.55 250.09 974.47 250.93 974.42 251.36 L 975.70 251.36 L 975.34 252.59 L 976.57 252.67 C 976.54 253.08 976.46 253.92 976.42 254.34 L 977.61 254.48 L 977.28 255.71 L 978.16 255.62 C 978.67 256.87 979.25 258.09 979.79 259.33 L 980.69 259.43 L 980.32 260.66 L 981.61 260.64 C 981.55 261.06 981.43 261.91 981.37 262.33 L 982.21 262.43 C 982.67 263.40 983.13 264.37 983.61 265.34 C 984.23 266.21 984.87 267.08 985.53 267.94 C 985.49 268.30 985.41 269.02 985.37 269.38 L 986.72 269.57 C 986.67 270.02 986.56 270.90 986.51 271.35 L 987.66 271.47 L 987.36 272.71 L 988.63 272.56 C 988.57 272.94 988.45 273.71 988.39 274.09 C 989.11 275.00 989.83 275.92 990.57 276.84 C 990.52 277.23 990.42 278.02 990.37 278.41 L 991.73 278.54 C 991.67 278.92 991.56 279.68 991.50 280.06 C 992.21 281.00 992.94 281.95 993.68 282.90 C 993.60 283.27 993.44 284.01 993.36 284.38 L 994.35 284.29 C 994.76 285.42 995.18 286.55 995.61 287.68 L 996.38 287.49 C 996.45 288.24 996.60 289.75 996.67 290.50 L 997.29 290.52 C 997.60 291.13 998.23 292.34 998.54 292.95 C 998.51 293.31 998.45 294.04 998.42 294.40 L 999.69 294.55 C 999.67 294.90 999.63 295.60 999.61 295.95 C 999.91 296.57 1000.50 297.80 1000.80 298.42 L 1001.71 298.58 C 1001.61 299.04 1001.40 299.96 1001.30 300.42 L 1002.53 300.68 C 1002.53 300.99 1002.52 301.61 1002.52 301.92 C 1003.00 303.12 1003.45 304.34 1003.87 305.57 L 1004.85 305.50 C 1004.72 305.96 1004.45 306.87 1004.31 307.33 L 1005.59 307.71 C 1005.49 308.15 1005.30 309.03 1005.21 309.46 L 1006.37 309.43 C 1006.42 310.23 1006.54 311.82 1006.59 312.62 L 1007.81 312.56 C 1007.75 312.88 1007.61 313.52 1007.55 313.83 C 1008.02 315.08 1008.46 316.33 1008.86 317.61 L 1009.50 317.27 C 1009.53 318.09 1009.61 319.74 1009.65 320.57 L 1010.88 320.59 C 1010.73 321.02 1010.43 321.88 1010.28 322.32 L 1011.41 322.41 C 1011.45 323.21 1011.53 324.82 1011.57 325.63 L 1012.23 325.23 C 1012.60 326.55 1013.03 327.87 1013.50 329.17 C 1013.41 329.49 1013.23 330.12 1013.14 330.43 L 1014.36 330.39 C 1014.45 331.79 1014.56 333.20 1014.68 334.60 L 1015.85 334.52 C 1015.78 334.84 1015.64 335.48 1015.57 335.80 C 1016.03 337.11 1016.43 338.44 1016.78 339.80 L 1017.41 339.33 C 1017.48 340.73 1017.56 342.14 1017.66 343.55 L 1018.43 343.45 C 1018.47 344.23 1018.56 345.78 1018.60 346.55 L 1019.47 346.34 C 1019.47 347.19 1019.47 348.89 1019.47 349.75 L 1020.24 349.41 C 1020.42 350.62 1020.64 351.83 1020.89 353.04 C 1021.20 354.32 1021.44 355.62 1021.61 356.94 C 1021.82 356.76 1022.22 356.39 1022.42 356.21 C 1022.46 358.02 1022.54 359.82 1022.63 361.64 L 1023.46 361.37 C 1023.49 362.17 1023.53 363.78 1023.56 364.59 L 1024.33 364.40 C 1024.41 366.52 1024.57 368.66 1024.66 370.79 C 1024.89 370.60 1025.35 370.20 1025.58 370.00 C 1025.59 371.50 1025.62 373.00 1025.66 374.51 L 1026.39 374.46 C 1026.45 375.85 1026.52 377.24 1026.61 378.64 L 1027.40 378.26 C 1027.45 380.40 1027.55 382.55 1027.64 384.70 L 1028.40 384.31 C 1028.47 386.04 1028.57 387.76 1028.68 389.50 L 1029.34 389.49 C 1029.35 390.94 1029.37 392.40 1029.39 393.86 L 1030.21 393.49 C 1030.35 396.86 1030.61 400.23 1030.69 403.62 L 1031.30 403.44 C 1031.42 406.17 1031.61 408.91 1031.67 411.65 L 1032.35 411.31 C 1032.34 414.64 1032.46 417.97 1032.69 421.29 C 1033.88 424.02 1033.40 427.09 1033.63 429.98 C 1034.21 445.47 1033.73 460.97 1033.65 476.46 C 1033.28 473.96 1032.80 471.48 1032.36 469.00 C 1032.45 488.21 1029.23 507.31 1025.43 526.09 L 1026.14 525.58 L 1026.59 525.25 C 1025.69 527.27 1025.37 529.45 1025.31 531.64 L 1024.50 531.30 C 1024.45 532.71 1024.42 534.14 1024.40 535.56 L 1023.67 535.51 C 1023.55 536.86 1023.45 538.22 1023.37 539.58 L 1022.62 539.34 C 1022.51 541.42 1022.39 543.52 1022.31 545.61 C 1022.14 544.41 1021.97 543.21 1021.81 542.02 C 1021.61 543.83 1021.43 545.65 1021.27 547.47 L 1020.61 547.50 C 1020.58 548.31 1020.53 549.93 1020.50 550.74 L 1019.60 550.29 C 1019.52 551.73 1019.46 553.18 1019.41 554.64 L 1018.58 554.42 C 1018.54 555.20 1018.46 556.75 1018.41 557.53 L 1017.60 557.43 C 1017.59 558.27 1017.56 559.95 1017.55 560.79 L 1016.79 560.37 C 1016.53 562.00 1016.19 563.62 1015.56 565.17 C 1015.63 565.49 1015.76 566.14 1015.83 566.47 L 1014.66 566.41 C 1014.55 567.82 1014.45 569.24 1014.37 570.67 L 1013.67 570.35 C 1013.25 572.12 1012.74 573.87 1012.34 575.65 L 1011.56 575.38 C 1011.53 576.18 1011.46 577.78 1011.43 578.58 L 1010.92 578.54 C 1010.47 579.74 1009.99 580.92 1009.49 582.10 C 1009.57 582.45 1009.75 583.13 1009.84 583.48 L 1008.89 583.45 C 1008.48 584.69 1008.04 585.92 1007.57 587.14 C 1007.63 587.48 1007.76 588.16 1007.83 588.49 L 1006.63 588.35 C 1006.57 589.17 1006.45 590.80 1006.39 591.62 L 1005.25 591.62 C 1005.30 591.92 1005.41 592.52 1005.46 592.82 C 1004.94 594.03 1004.49 595.28 1004.10 596.55 L 1003.19 596.46 C 1003.25 596.83 1003.38 597.57 1003.44 597.94 C 1003.13 598.56 1002.52 599.79 1002.21 600.41 L 1001.35 600.64 C 1001.42 600.99 1001.55 601.67 1001.62 602.02 C 1000.85 603.30 1000.13 604.61 999.43 605.93 C 999.46 606.29 999.53 607.01 999.57 607.38 L 998.24 607.53 C 998.33 607.99 998.53 608.92 998.62 609.38 L 997.37 609.61 C 997.42 610.05 997.52 610.91 997.58 611.35 L 996.33 611.61 C 996.42 612.06 996.62 612.96 996.72 613.42 L 995.39 613.58 C 995.40 613.93 995.42 614.62 995.43 614.97 C 995.12 615.58 994.51 616.82 994.21 617.43 L 993.29 617.58 C 993.39 618.03 993.58 618.92 993.67 619.37 L 992.82 619.64 C 992.50 620.22 991.85 621.39 991.52 621.98 C 991.53 622.33 991.56 623.03 991.57 623.38 L 990.23 623.59 C 990.32 624.04 990.50 624.94 990.59 625.39 L 989.39 625.44 L 989.72 626.64 L 988.52 626.64 C 988.54 627.00 988.58 627.71 988.59 628.07 C 987.68 629.45 986.89 630.92 986.19 632.42 L 985.28 632.60 C 985.36 633.05 985.53 633.94 985.61 634.39 L 984.42 634.45 L 984.68 635.64 L 983.45 635.63 C 983.53 636.08 983.69 636.99 983.76 637.44 L 982.76 637.61 C 982.24 638.84 981.68 640.07 981.19 641.32 L 980.30 641.38 L 980.66 642.59 L 979.78 642.67 C 979.24 643.89 978.68 645.10 978.18 646.34 L 977.27 646.33 L 977.59 647.54 L 976.41 647.66 C 976.45 648.08 976.54 648.91 976.58 649.33 L 975.35 649.40 L 975.68 650.62 L 974.44 650.69 C 974.48 651.11 974.55 651.95 974.59 652.36 L 973.42 652.47 L 973.72 653.69 L 972.42 653.58 C 972.48 654.04 972.58 654.95 972.64 655.41 L 971.45 655.48 L 971.62 656.64 L 970.37 656.66 C 970.47 657.11 970.68 658.01 970.78 658.46 L 969.49 658.35 L 969.53 659.18 C 969.18 659.73 968.50 660.83 968.16 661.38 L 967.33 661.42 L 967.72 662.59 L 966.46 662.66 C 966.49 663.08 966.53 663.90 966.56 664.32 L 965.77 664.41 C 965.52 664.78 965.01 665.54 964.75 665.91 C 964.20 666.78 963.67 667.66 963.15 668.55 L 962.85 668.59 C 961.87 670.04 960.81 671.45 959.78 672.86 C 958.94 673.96 958.10 675.06 957.30 676.19 C 956.23 677.57 955.16 678.94 954.15 680.37 L 953.87 680.54 C 952.72 682.16 951.45 683.67 950.17 685.19 C 949.95 685.55 949.51 686.28 949.29 686.64 L 948.87 686.66 C 947.96 687.91 947.02 689.13 946.14 690.40 L 945.38 690.41 L 945.61 691.54 L 944.93 691.64 C 943.24 693.80 941.33 695.78 939.42 697.75 L 939.55 698.16 C 939.21 698.50 938.53 699.20 938.19 699.54 L 937.91 699.69 C 936.68 701.19 935.36 702.62 934.00 704.00 C 932.99 705.09 932.00 706.21 931.08 707.38 L 930.34 707.36 L 930.56 708.53 L 929.37 708.39 L 929.56 709.59 L 928.80 709.39 C 928.47 709.76 927.81 710.48 927.48 710.85 L 927.57 711.57 L 926.85 711.48 C 926.50 711.83 925.80 712.51 925.45 712.86 L 925.64 713.60 L 924.46 713.45 L 924.59 714.62 L 923.86 714.48 C 923.52 714.83 922.83 715.52 922.49 715.87 L 922.61 716.60 L 921.43 716.46 L 921.60 717.21 C 921.25 717.55 920.55 718.25 920.20 718.60 L 919.46 718.44 L 919.58 719.62 L 918.85 719.45 C 918.49 719.79 917.78 720.48 917.42 720.82 L 917.60 721.56 L 916.42 721.42 L 916.55 722.61 L 915.79 722.38 C 915.44 722.73 914.76 723.43 914.41 723.78 L 914.54 724.53 L 913.38 724.36 L 913.35 725.07 C 912.19 725.98 911.09 726.96 910.02 727.97 C 908.93 729.04 907.78 730.05 906.58 730.99 L 906.62 731.69 L 905.42 731.43 L 905.57 732.16 C 905.20 732.49 904.47 733.16 904.10 733.49 L 903.75 733.38 C 902.44 734.61 901.13 735.84 899.80 737.05 L 899.60 737.65 L 898.45 737.49 L 898.69 738.33 C 898.31 738.53 897.55 738.92 897.17 739.12 C 895.73 740.36 894.31 741.63 892.93 742.93 C 892.54 743.13 891.76 743.54 891.37 743.74 L 891.41 744.17 C 890.12 745.06 888.89 746.00 887.62 746.89 L 887.60 747.64 L 886.43 747.39 L 886.37 748.10 C 884.93 749.11 883.55 750.19 882.18 751.28 C 880.98 752.12 879.79 752.99 878.58 753.80 L 878.41 754.23 C 877.10 755.05 875.84 755.94 874.54 756.78 L 874.53 757.23 C 873.50 757.74 872.47 758.25 871.45 758.78 L 871.51 759.68 C 871.17 759.68 870.48 759.68 870.13 759.69 C 869.45 760.64 868.57 761.34 867.49 761.77 L 867.35 762.63 C 866.93 762.59 866.09 762.52 865.67 762.49 L 865.58 763.65 L 864.38 763.45 L 864.43 764.75 C 863.98 764.65 863.07 764.45 862.62 764.34 L 862.71 765.64 L 861.51 765.44 L 861.39 766.61 C 860.95 766.57 860.06 766.49 859.62 766.45 L 859.69 767.74 L 858.44 767.39 L 858.37 768.60 C 857.96 768.56 857.12 768.48 856.71 768.44 L 856.60 769.66 L 855.36 769.34 L 855.36 770.62 C 854.93 770.56 854.09 770.46 853.66 770.41 L 853.52 771.60 L 852.27 771.31 L 852.40 772.60 C 852.02 772.55 851.27 772.46 850.89 772.41 C 850.01 773.13 849.14 773.86 848.27 774.59 L 847.29 774.32 L 847.40 775.56 C 847.05 775.55 846.37 775.53 846.03 775.52 C 845.45 775.87 844.30 776.57 843.72 776.92 L 843.61 777.70 L 842.39 777.31 L 842.34 778.20 C 841.07 778.69 839.82 779.23 838.56 779.74 L 838.45 780.77 C 838.00 780.69 837.09 780.53 836.63 780.44 L 836.59 781.66 L 835.39 781.36 L 835.41 782.63 C 834.95 782.53 834.02 782.33 833.56 782.24 L 833.42 783.27 C 832.12 783.74 830.86 784.26 829.58 784.75 L 829.45 785.78 C 828.98 785.68 828.05 785.47 827.58 785.37 L 827.60 786.64 L 826.40 786.29 L 826.38 787.48 C 826.03 787.45 825.31 787.39 824.96 787.37 C 823.50 788.28 821.96 789.04 820.40 789.74 L 820.40 790.58 C 820.02 790.53 819.28 790.42 818.90 790.37 C 818.40 790.68 817.39 791.29 816.89 791.60 C 815.54 792.22 814.22 792.87 812.97 793.67 C 812.65 793.60 812.00 793.48 811.68 793.42 L 811.44 794.24 C 810.84 794.57 809.63 795.23 809.03 795.56 C 808.67 795.50 807.94 795.40 807.57 795.34 L 807.48 796.26 C 806.84 796.55 805.54 797.14 804.89 797.43 C 804.54 797.38 803.83 797.28 803.47 797.23 L 803.66 798.39 C 802.85 798.45 801.23 798.58 800.42 798.64 L 800.48 799.27 C 799.85 799.58 798.59 800.19 797.97 800.50 C 797.59 800.43 796.85 800.28 796.48 800.21 L 796.60 801.15 C 795.32 801.55 794.06 802.00 792.82 802.51 C 792.52 802.45 791.92 802.32 791.62 802.25 L 791.66 803.42 C 790.83 803.48 789.18 803.59 788.36 803.64 L 788.52 804.83 C 788.19 804.78 787.51 804.68 787.17 804.63 C 785.94 805.08 784.70 805.50 783.46 805.89 L 783.50 806.86 C 783.15 806.77 782.46 806.59 782.11 806.50 C 780.95 807.00 779.78 807.48 778.61 807.93 L 778.61 808.45 C 777.79 808.48 776.16 808.54 775.34 808.57 L 775.67 809.34 C 773.88 809.75 772.12 810.27 770.34 810.69 L 770.69 811.39 C 769.25 811.48 767.82 811.57 766.39 811.68 L 766.46 812.88 C 766.01 812.73 765.11 812.41 764.66 812.26 L 764.56 813.36 C 763.13 813.43 761.72 813.50 760.31 813.59 C 760.45 813.84 760.74 814.34 760.88 814.59 C 760.03 814.60 758.34 814.62 757.49 814.62 L 757.55 815.43 C 756.78 815.48 755.24 815.57 754.47 815.61 L 754.68 816.46 C 753.22 816.50 751.78 816.56 750.35 816.62 L 750.77 817.26 C 749.53 817.55 748.30 817.90 747.09 818.29 C 746.37 818.36 744.92 818.50 744.20 818.57 L 744.72 819.26 C 741.91 819.45 739.21 820.27 736.47 820.81 L 736.57 821.32 L 735.45 821.31 C 729.80 821.14 724.48 823.41 718.96 824.24 C 710.18 826.25 701.19 827.10 692.38 828.97 C 694.83 829.12 697.29 829.21 699.75 829.32 L 699.80 829.32 C 695.31 829.79 690.77 829.24 686.27 829.65 L 686.73 830.41 C 685.23 830.43 683.74 830.47 682.26 830.52 L 682.89 831.64 C 682.60 831.61 682.02 831.55 681.73 831.52 C 681.86 850.35 681.75 869.18 681.79 888.01 C 681.66 898.59 682.11 909.19 681.41 919.76 L 680.63 919.32 C 680.53 921.73 680.35 924.15 680.28 926.58 L 679.63 926.40 C 679.54 928.15 679.44 929.94 679.37 931.71 L 678.63 931.28 C 678.47 934.69 678.40 938.11 678.64 941.53 C 678.38 939.74 678.14 937.91 677.89 936.14 C 677.63 938.57 677.43 941.04 677.28 943.49 L 676.75 943.53 C 676.62 945.91 676.42 948.29 676.30 950.69 L 675.54 950.17 C 675.48 952.31 675.37 954.44 675.33 956.61 L 674.61 956.36 C 674.52 958.08 674.43 959.84 674.36 961.59 L 673.68 961.35 C 673.55 964.53 673.31 967.71 673.40 970.91 C 673.14 969.01 672.88 967.13 672.62 965.25 C 672.96 970.84 671.30 976.26 671.07 981.82 C 670.83 979.95 670.63 978.08 670.38 976.22 C 670.51 979.38 670.54 982.55 670.45 985.73 L 669.70 985.39 C 669.58 987.43 669.42 989.47 669.31 991.53 L 668.72 991.45 C 668.62 993.86 668.44 996.28 668.32 998.71 L 667.54 998.19 C 667.46 1000.32 667.34 1002.44 667.29 1004.59 L 666.62 1004.40 C 666.54 1006.14 666.43 1007.88 666.37 1009.65 L 665.65 1009.30 C 665.57 1012.06 665.38 1014.82 665.27 1017.59 C 665.06 1017.50 664.64 1017.31 664.43 1017.22 C 664.40 1018.63 664.38 1020.05 664.36 1021.49 L 663.75 1021.52 C 663.58 1024.22 663.34 1026.92 663.30 1029.64 C 663.05 1029.46 662.55 1029.11 662.30 1028.93 C 662.41 1030.82 662.38 1032.72 662.40 1034.64 L 661.62 1034.32 C 661.52 1036.05 661.43 1037.83 661.35 1039.58 L 660.63 1039.36 C 660.60 1041.20 660.55 1043.07 660.55 1044.94 C 660.34 1044.77 659.91 1044.44 659.70 1044.27 C 659.62 1046.55 659.45 1048.82 659.22 1051.11 C 658.34 1053.88 658.36 1056.83 658.34 1059.72 C 658.06 1057.71 657.79 1055.70 657.51 1053.71 C 658.26 1059.06 656.66 1064.22 656.24 1069.51 L 655.68 1069.46 C 655.62 1071.24 655.55 1073.05 655.51 1074.86 L 654.71 1074.32 C 654.58 1077.07 654.36 1079.83 654.28 1082.60 L 653.61 1082.38 C 653.54 1084.13 653.42 1085.87 653.35 1087.64 L 652.64 1087.30 C 652.57 1089.74 652.42 1092.21 652.34 1094.67 L 651.56 1094.22 C 651.47 1095.96 651.38 1097.75 651.31 1099.52 L 650.73 1099.52 C 650.62 1101.58 650.47 1103.64 650.38 1105.72 L 649.63 1105.26 C 649.52 1108.12 649.35 1110.97 649.14 1113.85 C 648.89 1112.47 648.67 1111.11 648.47 1109.75 C 648.61 1112.34 648.50 1114.94 648.35 1117.54 L 647.67 1117.38 C 647.60 1119.48 647.49 1121.61 647.43 1123.74 L 646.69 1123.28 C 646.64 1124.56 646.53 1125.85 646.36 1127.16 C 642.35 1142.02 641.58 1157.57 637.81 1172.51 C 637.56 1170.50 637.36 1168.51 637.21 1166.52 L 636.55 1166.72 L 636.60 1165.37 C 637.00 1160.14 635.37 1155.11 634.68 1149.99 C 625.44 1095.52 616.18 1041.06 606.96 986.60 C 605.80 980.50 605.21 974.27 603.39 968.32 C 603.20 967.80 602.83 966.74 602.64 966.22 C 602.48 964.26 602.36 962.30 602.31 960.36 L 601.65 960.62 C 601.55 958.84 601.44 957.09 601.36 955.34 L 600.68 955.66 C 600.60 953.20 600.44 950.76 600.35 948.31 L 599.54 948.76 C 599.48 947.00 599.38 945.23 599.32 943.49 L 598.69 943.44 C 598.64 941.97 598.60 940.52 598.57 939.07 L 597.76 939.61 C 597.64 936.83 597.44 934.07 597.37 931.30 L 596.68 931.59 C 596.56 929.56 596.39 927.53 596.28 925.52 L 595.67 925.58 C 595.58 923.45 595.46 921.35 595.38 919.24 L 594.61 919.78 C 593.82 906.53 594.38 893.25 594.21 880.00 C 594.20 863.98 594.23 847.97 594.20 831.95 C 593.41 831.26 592.64 830.57 591.89 829.87 C 588.03 829.59 584.17 829.43 580.31 829.35 L 580.70 828.63 C 578.61 828.53 576.54 828.40 574.47 828.32 L 574.59 827.71 C 571.86 827.60 569.15 827.38 566.43 827.24 L 566.87 826.42 C 565.39 826.39 563.91 826.37 562.45 826.36 L 562.53 825.68 C 560.79 825.56 559.08 825.44 557.36 825.34 L 557.69 824.58 C 555.01 824.48 552.35 824.44 549.68 824.55 C 551.18 824.33 552.68 824.11 554.19 823.89 C 552.76 823.74 549.89 823.44 548.45 823.29 L 548.48 822.67 C 547.01 822.62 545.55 822.58 544.09 822.56 C 544.27 822.32 544.63 821.83 544.81 821.58 C 542.99 821.54 541.18 821.43 539.38 821.40 L 539.55 820.82 C 536.78 820.28 534.07 819.37 531.23 819.36 C 531.39 819.18 531.71 818.81 531.87 818.63 C 530.59 818.47 529.31 818.30 528.05 818.12 C 525.61 817.04 523.04 816.32 520.37 816.21 L 520.51 815.07 C 520.05 815.24 519.12 815.59 518.66 815.76 L 518.53 814.70 C 517.13 814.59 515.73 814.48 514.34 814.38 L 514.80 813.48 C 513.96 813.46 512.28 813.41 511.44 813.38 L 511.52 812.59 C 510.77 812.53 509.27 812.42 508.52 812.36 L 508.65 811.52 C 507.82 811.50 506.14 811.47 505.31 811.46 L 505.65 810.70 C 503.86 810.28 502.11 809.76 500.33 809.35 L 500.62 808.57 C 499.82 808.54 498.21 808.49 497.41 808.47 L 497.42 807.86 C 496.29 807.53 495.17 807.19 494.06 806.84 C 492.32 806.16 490.61 805.38 488.93 804.59 C 488.56 804.65 487.82 804.76 487.45 804.82 L 487.63 803.64 C 486.81 803.59 485.17 803.49 484.35 803.43 L 484.37 802.29 C 484.07 802.35 483.46 802.46 483.16 802.52 C 481.90 802.02 480.64 801.56 479.37 801.15 L 479.53 800.22 C 479.16 800.29 478.41 800.43 478.04 800.51 C 477.40 800.20 476.13 799.59 475.49 799.29 L 475.58 798.65 C 474.77 798.59 473.14 798.46 472.33 798.40 L 472.52 797.25 C 472.16 797.30 471.46 797.39 471.11 797.44 C 470.46 797.15 469.15 796.56 468.50 796.27 L 468.43 795.37 C 468.07 795.41 467.33 795.50 466.96 795.54 C 466.36 795.23 465.15 794.59 464.54 794.27 L 464.46 793.91 C 463.18 793.65 462.03 793.13 461.00 792.35 C 460.75 792.37 460.23 792.40 459.97 792.41 C 459.01 791.71 458.06 791.01 457.11 790.31 C 456.73 790.40 455.99 790.57 455.62 790.65 L 455.58 789.60 C 454.26 789.12 452.95 788.61 451.63 788.17 L 451.49 787.16 C 451.03 787.26 450.10 787.46 449.64 787.56 L 449.61 786.33 L 448.40 786.64 L 448.40 785.37 C 447.93 785.48 447.01 785.68 446.54 785.79 L 446.41 784.77 C 445.11 784.28 443.85 783.76 442.56 783.29 L 442.43 782.24 C 441.97 782.34 441.05 782.54 440.59 782.64 L 440.59 781.38 L 439.39 781.67 L 439.36 780.45 C 438.91 780.54 437.99 780.71 437.54 780.79 L 437.45 779.76 C 436.17 779.25 434.92 778.71 433.66 778.22 L 433.61 777.33 L 432.39 777.72 L 432.31 776.83 C 431.06 776.30 429.84 775.75 428.60 775.24 L 428.49 774.24 C 428.03 774.30 427.11 774.43 426.65 774.50 L 426.66 773.28 L 425.46 773.53 L 425.41 772.28 C 424.96 772.38 424.06 772.58 423.60 772.68 L 423.75 771.36 L 422.49 771.61 L 422.33 770.43 C 421.90 770.48 421.05 770.59 420.62 770.64 L 420.64 769.36 L 419.41 769.70 L 419.30 768.49 C 418.89 768.51 418.07 768.56 417.65 768.58 L 417.44 767.82 C 416.87 767.47 415.72 766.75 415.15 766.40 L 414.43 766.52 L 414.51 765.41 L 413.30 765.69 L 413.38 764.38 C 412.93 764.47 412.02 764.65 411.56 764.74 L 411.60 763.77 C 410.56 763.24 409.53 762.73 408.50 762.22 L 408.50 761.74 C 407.15 760.93 405.83 760.08 404.49 759.29 L 404.40 758.41 C 403.95 758.43 403.05 758.45 402.60 758.46 L 402.60 757.27 L 401.35 757.56 L 401.52 756.35 C 401.18 756.35 400.50 756.34 400.16 756.34 C 399.43 755.46 398.58 754.73 397.62 754.15 L 397.41 753.82 C 396.18 753.01 394.99 752.15 393.80 751.31 C 392.43 750.22 391.07 749.13 389.65 748.13 L 389.46 747.87 C 387.86 746.72 386.35 745.45 384.85 744.18 C 384.48 743.96 383.73 743.51 383.36 743.29 L 383.33 742.87 C 382.09 741.96 380.88 741.01 379.65 740.12 L 379.57 739.80 C 379.21 739.46 378.50 738.78 378.14 738.44 L 377.41 738.75 L 377.35 737.97 C 375.74 736.71 374.22 735.34 372.64 734.05 L 372.56 733.31 L 371.87 733.55 C 371.52 733.20 370.82 732.52 370.47 732.17 L 370.31 731.91 C 368.00 730.03 365.94 727.86 363.63 726.01 L 363.62 725.71 C 363.27 725.38 362.56 724.72 362.20 724.39 L 361.47 724.55 L 361.59 723.35 L 360.84 723.57 C 360.50 723.21 359.82 722.50 359.48 722.15 L 359.59 721.42 L 358.41 721.57 L 358.54 720.85 C 358.19 720.51 357.48 719.84 357.13 719.50 L 356.42 719.59 L 356.53 718.43 L 355.79 718.59 C 355.44 718.25 354.75 717.55 354.41 717.21 L 354.57 716.46 L 353.39 716.60 L 353.51 715.87 C 353.16 715.52 352.47 714.82 352.13 714.47 L 351.40 714.62 L 351.54 713.45 L 350.36 713.61 L 350.55 712.86 C 350.20 712.52 349.48 711.84 349.13 711.50 L 348.40 711.59 L 348.57 710.39 L 347.82 710.58 C 347.49 710.22 346.81 709.50 346.48 709.14 L 346.61 708.41 L 345.41 708.54 L 345.64 707.75 C 345.31 707.47 344.67 706.92 344.35 706.64 C 343.57 705.78 342.80 704.94 342.02 704.10 C 341.34 703.37 340.65 702.65 339.97 701.94 C 339.33 701.19 338.69 700.44 338.07 699.70 L 337.77 699.56 C 337.44 699.21 336.77 698.52 336.43 698.17 L 336.57 697.77 C 334.65 695.80 332.76 693.81 331.05 691.67 L 330.38 691.56 L 330.60 690.44 L 329.84 690.42 C 328.95 689.16 328.01 687.94 327.11 686.70 L 326.72 686.61 C 326.41 686.24 325.78 685.52 325.47 685.15 L 325.60 684.45 L 324.90 684.31 C 323.86 682.91 322.78 681.55 321.71 680.18 C 320.84 678.98 319.95 677.81 319.12 676.61 L 318.33 676.61 L 318.74 675.43 L 317.83 675.51 C 317.29 674.50 316.75 673.49 316.21 672.49 L 315.73 672.49 C 314.88 671.16 313.99 669.87 313.16 668.55 L 312.42 668.56 L 312.67 667.38 L 311.47 667.38 C 311.50 666.94 311.58 666.06 311.62 665.62 L 310.35 665.63 L 310.48 664.88 C 310.13 664.34 309.42 663.27 309.07 662.74 L 308.69 662.64 C 308.44 662.26 307.96 661.51 307.71 661.13 C 307.18 660.23 306.67 659.33 306.16 658.43 L 305.74 658.64 C 305.25 657.58 304.76 656.52 304.27 655.48 L 303.93 655.49 C 303.16 654.29 302.35 653.13 301.52 651.99 C 301.52 651.67 301.50 651.03 301.50 650.70 L 300.30 650.63 L 300.62 649.41 L 299.39 649.34 C 299.44 648.93 299.53 648.09 299.58 647.67 L 298.38 647.54 L 298.72 646.32 L 297.81 646.37 C 297.28 645.13 296.71 643.92 296.18 642.70 L 295.33 642.58 L 295.68 641.37 L 294.78 641.34 C 294.27 640.09 293.72 638.86 293.22 637.62 L 292.84 637.71 C 292.15 636.41 291.38 635.16 290.54 633.97 C 290.57 633.62 290.63 632.93 290.66 632.58 L 289.30 632.42 C 289.36 631.98 289.48 631.10 289.55 630.66 L 288.41 630.51 L 288.67 629.28 L 287.40 629.39 C 287.47 629.01 287.60 628.26 287.67 627.88 C 286.94 626.94 286.22 626.00 285.50 625.06 C 285.55 624.69 285.65 623.95 285.70 623.58 L 284.35 623.40 C 284.40 623.02 284.49 622.26 284.54 621.87 C 283.83 620.95 283.11 620.02 282.40 619.11 C 282.47 618.73 282.60 617.97 282.67 617.58 L 281.66 617.48 C 281.21 616.16 280.72 614.88 280.28 613.58 L 279.27 613.41 C 279.36 612.96 279.56 612.05 279.65 611.60 L 278.39 611.37 C 278.45 610.94 278.55 610.07 278.60 609.64 L 277.36 609.38 C 277.45 608.92 277.65 608.01 277.75 607.55 L 276.43 607.38 C 276.44 607.03 276.47 606.33 276.49 605.97 C 275.56 604.22 274.67 602.44 274.11 600.54 L 273.75 600.42 C 273.45 599.80 272.83 598.56 272.53 597.93 C 272.60 597.57 272.74 596.84 272.82 596.48 L 271.88 596.61 C 271.48 595.31 271.02 594.05 270.49 592.82 C 270.56 592.52 270.68 591.93 270.74 591.64 L 269.59 591.63 C 269.53 590.82 269.41 589.19 269.36 588.38 L 268.16 588.51 C 268.22 588.17 268.34 587.49 268.40 587.15 C 267.92 585.93 267.49 584.71 267.09 583.48 L 266.14 583.48 C 266.23 583.14 266.40 582.45 266.49 582.11 C 265.96 580.95 265.48 579.77 265.06 578.58 L 264.55 578.58 C 264.52 577.78 264.45 576.20 264.42 575.40 L 263.63 575.68 C 263.22 573.89 262.70 572.13 262.30 570.35 L 261.56 570.67 C 261.55 569.83 261.51 568.17 261.50 567.33 L 260.62 567.50 C 260.57 566.75 260.46 565.26 260.41 564.51 L 259.62 564.52 C 259.60 563.70 259.56 562.07 259.55 561.26 L 258.61 561.60 C 258.51 560.20 258.42 558.81 258.33 557.43 L 257.56 557.57 C 257.52 556.79 257.44 555.23 257.39 554.45 L 256.57 554.64 C 256.51 553.21 256.45 551.79 256.40 550.38 L 255.57 550.73 C 255.48 550.03 255.30 548.63 255.21 547.93 C 254.86 546.66 254.57 545.38 254.34 544.10 C 254.16 544.26 253.80 544.58 253.62 544.74 C 253.55 542.95 253.44 541.14 253.37 539.36 L 252.60 539.61 C 252.50 538.25 252.41 536.90 252.31 535.55 L 251.64 535.60 C 251.52 533.49 251.35 531.39 251.23 529.29 C 251.03 530.57 250.85 531.85 250.66 533.14 C 250.57 530.91 250.42 528.69 250.30 526.48 L 249.64 526.50 C 249.57 525.07 249.50 523.66 249.43 522.25 L 248.64 522.74 C 248.57 520.58 248.45 518.43 248.38 516.28 L 247.70 516.65 C 247.49 512.49 246.28 508.46 246.35 504.28 L 245.60 504.77 C 245.52 501.97 245.33 499.18 245.30 496.39 L 244.65 496.65 C 244.57 494.21 244.42 491.78 244.35 489.34 L 243.65 489.66 C 243.65 486.46 243.49 483.26 243.49 480.07 L 242.66 480.79 C 241.85 460.28 241.93 439.75 242.64 419.25 L 243.49 419.89 C 243.50 416.70 243.66 413.51 243.67 410.32 L 244.35 410.72 C 244.41 408.27 244.56 405.85 244.66 403.41 L 245.30 403.62 C 245.35 400.84 245.54 398.06 245.62 395.28 L 246.31 395.74 C 246.37 394.99 246.49 393.48 246.55 392.73 C 248.33 386.60 248.98 380.24 250.51 374.06 C 251.07 371.67 251.54 369.24 251.59 366.78 C 251.61 366.18 251.66 364.98 251.68 364.38 L 252.43 364.55 C 252.44 363.74 252.48 362.13 252.50 361.32 L 253.32 361.63 C 253.40 359.84 253.53 358.07 253.63 356.28 L 254.26 356.80 C 254.49 355.54 254.77 354.28 255.09 353.04 C 255.32 351.83 255.54 350.61 255.73 349.40 L 256.53 349.68 C 256.52 348.85 256.51 347.19 256.50 346.36 L 257.37 346.50 C 257.41 345.73 257.50 344.18 257.54 343.41 L 258.32 343.54 C 258.40 342.13 258.49 340.72 258.58 339.31 L 259.50 339.71 C 259.53 338.90 259.58 337.29 259.61 336.48 L 260.40 336.49 C 260.45 335.73 260.56 334.23 260.62 333.48 L 261.50 333.67 C 261.52 332.82 261.54 331.14 261.55 330.30 L 262.24 330.73 C 262.54 329.49 262.86 328.26 263.21 327.05 C 263.73 325.63 264.31 324.25 264.83 322.84 C 265.56 321.05 266.26 319.24 266.73 317.37 L 267.13 317.54 C 267.51 316.29 267.95 315.05 268.42 313.84 C 268.36 313.51 268.24 312.86 268.18 312.53 L 269.39 312.61 C 269.45 311.81 269.57 310.21 269.62 309.41 L 270.78 309.44 C 270.68 309.01 270.47 308.14 270.37 307.70 L 271.66 307.32 C 271.53 306.86 271.27 305.94 271.13 305.48 L 272.11 305.55 C 272.51 304.32 272.95 303.12 273.43 301.93 C 273.44 301.61 273.45 300.97 273.45 300.65 L 274.68 300.41 C 274.58 299.95 274.37 299.04 274.27 298.59 L 275.15 298.38 C 275.46 297.76 276.09 296.52 276.40 295.90 C 276.35 295.55 276.25 294.85 276.20 294.50 L 277.37 294.56 C 277.45 293.78 277.61 292.22 277.69 291.44 L 278.84 291.61 L 278.16 290.40 L 279.30 290.54 C 279.38 289.77 279.54 288.22 279.62 287.45 L 280.86 287.47 C 280.75 287.03 280.53 286.13 280.41 285.68 L 281.64 285.58 L 281.21 284.34 L 282.34 284.51 C 282.43 283.76 282.59 282.25 282.68 281.49 L 283.81 281.64 L 283.36 280.45 L 284.57 280.37 C 284.48 279.91 284.31 278.99 284.22 278.53 L 285.60 278.41 C 285.55 278.01 285.46 277.23 285.41 276.83 C 286.13 275.90 286.86 274.98 287.60 274.06 C 287.53 273.69 287.40 272.95 287.33 272.58 L 288.32 272.63 C 288.78 271.52 289.23 270.41 289.70 269.30 L 290.66 269.41 C 290.59 269.03 290.46 268.29 290.39 267.91 C 291.14 266.99 291.89 266.06 292.63 265.14 C 292.58 264.76 292.48 264.00 292.43 263.62 L 293.70 263.72 L 293.41 262.49 L 294.59 262.31 C 294.53 261.89 294.42 261.04 294.36 260.62 L 295.63 260.69 L 295.37 259.75 C 296.11 258.85 296.85 257.96 297.60 257.08 C 297.55 256.71 297.44 255.98 297.39 255.61 L 298.67 255.71 L 298.37 254.47 L 299.56 254.30 C 299.52 253.88 299.43 253.04 299.38 252.62 L 300.63 252.64 L 300.25 251.38 L 301.48 251.37 C 301.47 250.93 301.44 250.06 301.43 249.62 L 302.58 249.48 L 302.32 248.28 L 303.64 248.35 C 303.55 247.91 303.38 247.03 303.30 246.60 L 304.16 246.54 C 304.67 245.65 305.19 244.76 305.72 243.88 C 305.97 243.51 306.48 242.76 306.74 242.38 L 307.53 242.31 C 307.49 241.89 307.41 241.05 307.37 240.62 L 308.64 240.63 L 308.30 239.44 L 309.52 239.37 C 309.53 238.94 309.55 238.09 309.56 237.66 L 310.30 237.60 C 310.55 237.25 311.05 236.55 311.30 236.20 C 311.82 235.32 312.33 234.44 312.85 233.56 L 313.30 233.62 C 313.52 233.25 313.95 232.51 314.17 232.14 C 314.71 231.40 315.25 230.66 315.79 229.92 C 316.02 229.59 316.49 228.94 316.72 228.61 C 317.92 227.13 319.12 225.66 320.25 224.13 C 321.25 222.83 322.29 221.57 323.33 220.31 C 323.53 220.02 323.93 219.45 324.14 219.17 C 325.44 217.65 326.75 216.14 327.94 214.54 L 328.26 214.60 C 328.45 214.23 328.83 213.48 329.02 213.11 C 330.41 211.67 331.75 210.18 332.98 208.61 L 333.66 208.56 L 333.45 207.40 L 334.19 207.59 C 334.52 207.22 335.17 206.49 335.49 206.13 L 335.32 205.43 L 336.00 205.40 C 336.96 204.21 337.97 203.07 339.02 201.96 C 340.02 200.89 341.00 199.79 341.93 198.65 L 342.25 198.61 C 342.58 198.26 343.25 197.54 343.58 197.18 L 343.43 196.42 L 344.17 196.57 C 344.51 196.21 345.19 195.50 345.54 195.15 L 345.39 194.41 L 346.59 194.57 L 346.41 193.81 C 346.75 193.45 347.43 192.74 347.76 192.38 L 348.52 192.55 L 348.39 191.36 L 349.10 191.48 C 349.46 191.14 350.16 190.46 350.51 190.11 L 350.35 189.38 L 351.54 189.53 L 351.37 188.34 L 352.11 188.52 C 352.45 188.16 353.12 187.45 353.46 187.09 L 353.38 186.38 L 354.56 186.53 L 354.38 185.77 C 354.74 185.43 355.45 184.75 355.81 184.40 L 356.57 184.60 L 356.41 183.40 L 357.15 183.54 C 357.50 183.20 358.20 182.51 358.56 182.17 L 358.42 181.44 L 359.19 181.57 C 359.55 181.24 360.26 180.58 360.62 180.25 L 360.66 179.92 C 363.33 177.76 365.65 175.20 368.37 173.10 L 368.40 172.78 C 368.76 172.46 369.50 171.83 369.87 171.51 L 370.57 171.59 L 370.70 170.93 C 372.61 169.34 374.41 167.62 376.38 166.09 L 376.48 165.39 L 377.64 165.69 L 377.59 164.87 C 378.88 163.98 380.12 163.04 381.42 162.15 L 381.37 161.37 L 382.18 161.48 C 383.51 160.29 384.87 159.13 386.29 158.03 L 386.47 157.34 L 387.63 157.69 L 387.57 156.85 C 388.86 155.99 390.11 155.06 391.40 154.19 L 391.59 153.81 C 392.80 152.99 393.98 152.13 395.17 151.28 C 396.57 150.21 397.97 149.14 399.42 148.15 L 399.50 147.47 L 400.69 147.76 L 400.62 146.48 C 401.08 146.51 401.99 146.57 402.45 146.60 L 402.43 145.39 L 403.60 145.61 L 403.65 144.39 C 404.09 144.46 404.97 144.60 405.41 144.66 L 405.30 143.35 L 406.53 143.62 L 406.65 142.44 C 407.06 142.46 407.88 142.49 408.30 142.51 L 408.41 141.29 L 409.63 141.64 L 409.59 140.35 C 410.02 140.40 410.88 140.49 411.31 140.54 L 411.44 139.36 L 412.67 139.59 L 412.57 138.26 C 413.02 138.35 413.92 138.54 414.37 138.63 L 414.37 137.38 L 415.57 137.59 L 415.61 136.35 C 416.06 136.43 416.95 136.58 417.40 136.66 L 417.28 135.34 L 418.52 135.61 L 418.67 134.42 C 419.10 134.47 419.95 134.57 420.38 134.62 L 420.36 133.35 L 421.57 133.70 L 421.76 132.94 C 422.32 132.58 423.46 131.85 424.03 131.49 C 424.38 131.52 425.08 131.58 425.42 131.62 L 425.24 130.34 L 426.50 130.68 L 426.71 129.95 C 427.28 129.57 428.43 128.81 429.01 128.43 C 429.36 128.47 430.07 128.55 430.42 128.58 L 430.27 127.32 L 431.51 127.62 L 431.64 126.45 C 432.09 126.51 432.97 126.62 433.41 126.67 L 433.58 125.26 C 434.04 125.36 434.95 125.55 435.41 125.65 L 435.42 124.40 L 436.63 124.69 L 436.63 123.45 C 437.09 123.54 438.02 123.71 438.48 123.79 L 438.60 122.79 C 439.87 122.30 441.12 121.77 442.40 121.28 L 442.60 120.24 C 443.06 120.34 443.97 120.55 444.43 120.65 L 444.32 119.37 L 445.55 119.66 L 445.69 118.45 C 446.15 118.56 447.06 118.77 447.52 118.87 L 447.47 117.64 C 448.22 117.55 449.70 117.37 450.45 117.28 L 450.41 116.24 L 451.58 116.59 L 451.58 115.38 C 451.92 115.43 452.61 115.52 452.96 115.56 C 454.36 114.64 455.86 113.87 457.40 113.16 L 457.61 112.35 C 457.94 112.38 458.58 112.44 458.91 112.47 Z" />
</g>
<g id="#86868686">
<path fill="#868686" opacity="0.53" d=" M 298.12 352.95 C 299.07 347.77 299.38 342.36 301.58 337.50 C 301.32 344.44 299.18 351.13 298.58 358.04 C 294.71 383.40 295.02 409.21 296.49 434.74 C 296.33 435.44 296.00 436.85 295.84 437.55 C 293.25 409.39 293.66 380.90 298.12 352.95 Z" />
<path fill="#868686" opacity="0.53" d=" M 1032.36 469.00 C 1032.80 471.48 1033.28 473.96 1033.65 476.46 C 1032.67 491.42 1030.39 506.32 1027.74 521.09 C 1027.37 522.63 1027.44 524.44 1026.14 525.58 L 1025.43 526.09 C 1029.23 507.31 1032.45 488.21 1032.36 469.00 Z" />
</g>
<g id="#76767676">
<path fill="#767676" opacity="0.46" d=" M 248.66 376.90 C 249.55 373.50 249.57 369.77 251.59 366.78 C 251.54 369.24 251.07 371.67 250.51 374.06 C 248.98 380.24 248.33 386.60 246.55 392.73 C 245.98 387.33 247.88 382.16 248.66 376.90 Z" />
</g>
<g id="#8b8b8b8b">
<path fill="#8b8b8b" opacity="0.55" d=" M 718.96 824.24 C 724.48 823.41 729.80 821.14 735.45 821.31 C 724.23 825.38 712.08 826.09 700.61 829.14 L 699.75 829.32 C 697.29 829.21 694.83 829.12 692.38 828.97 C 701.19 827.10 710.18 826.25 718.96 824.24 Z" />
</g>
<g id="#82828282">
<path fill="#828282" opacity="0.51" d=" M 603.39 968.32 C 605.21 974.27 605.80 980.50 606.96 986.60 C 616.18 1041.06 625.44 1095.52 634.68 1149.99 C 635.37 1155.11 637.00 1160.14 636.60 1165.37 C 634.13 1157.40 633.60 1149.00 631.94 1140.85 C 623.03 1088.45 614.18 1036.05 605.26 983.65 C 604.53 978.55 603.03 973.52 603.39 968.32 Z" />
</g>
<g id="#87878788">
<path fill="#878787" opacity="0.53" d=" M 637.81 1172.51 C 641.58 1157.57 642.35 1142.02 646.36 1127.16 C 646.69 1130.42 646.06 1133.66 645.34 1136.84 C 643.22 1149.67 641.06 1162.49 639.08 1175.35 C 638.77 1174.64 638.13 1173.22 637.81 1172.51 Z" />
</g>
</svg>
