<?xml version="1.0" encoding="UTF-8" ?>
<!DOCTYPE svg PUBLIC "-//W3C//DTD SVG 1.1//EN" "http://www.w3.org/Graphics/SVG/1.1/DTD/svg11.dtd">
<svg width="1276pt" height="1276pt" viewBox="0 0 1276 1276" version="1.1" xmlns="http://www.w3.org/2000/svg">
<g id="#ffffffff">
<path fill="#ffffff" opacity="1.00" d=" M 801.59 110.77 C 798.19 109.86 797.56 105.00 801.37 104.07 C 801.56 104.49 801.95 105.33 802.14 105.75 L 802.09 104.02 C 804.90 104.85 807.96 105.05 810.59 106.46 C 813.66 108.26 817.69 108.12 820.11 111.06 C 822.64 111.07 824.68 112.65 826.16 114.58 C 826.27 114.27 826.50 113.65 826.61 113.34 C 830.11 115.01 833.37 117.15 836.52 119.40 C 836.72 119.88 837.11 120.84 837.31 121.32 C 838.51 121.08 839.72 120.85 840.94 120.63 C 842.48 121.50 843.79 122.68 845.15 123.83 C 847.03 124.53 848.97 125.05 850.85 125.81 C 850.57 126.40 850.00 127.58 849.72 128.18 C 852.36 126.83 855.90 127.99 857.41 130.49 C 860.77 130.82 863.21 133.50 866.31 134.68 C 866.57 135.19 867.09 136.20 867.35 136.71 C 867.82 136.63 868.75 136.48 869.22 136.41 C 872.29 138.05 875.11 140.08 877.99 142.03 C 879.03 142.78 880.45 143.21 880.84 144.59 C 881.30 144.59 882.21 144.58 882.67 144.58 C 883.04 145.25 883.79 146.58 884.16 147.25 C 884.72 147.30 885.86 147.39 886.43 147.44 C 887.67 148.92 889.25 150.19 890.14 151.95 C 890.70 154.10 890.84 156.38 891.89 158.39 C 895.37 159.05 897.69 161.63 900.45 163.60 C 901.23 165.38 903.35 165.28 904.88 166.03 C 906.59 166.54 907.57 168.14 908.37 169.63 C 909.97 170.02 910.95 171.13 911.32 172.73 C 912.62 173.13 913.93 173.54 915.25 173.97 C 914.76 174.48 913.80 175.49 913.32 175.99 C 913.97 175.77 915.29 175.33 915.94 175.11 C 918.32 177.38 920.77 179.58 922.93 182.07 C 926.56 185.48 930.09 189.06 932.82 193.26 C 934.82 195.36 936.91 197.42 938.21 200.08 C 940.87 201.29 940.77 204.56 942.95 206.17 C 943.24 208.96 945.82 210.38 947.61 212.19 C 947.49 214.54 950.42 214.89 950.93 216.98 C 951.84 219.91 954.74 221.52 955.82 224.36 C 957.29 225.84 958.56 227.50 959.82 229.18 C 959.78 229.72 959.70 230.82 959.66 231.36 C 963.60 233.91 965.79 238.16 968.39 241.91 C 968.45 242.39 968.55 243.34 968.61 243.82 C 969.08 244.00 970.04 244.37 970.52 244.56 C 971.79 250.02 977.61 252.84 978.80 258.40 C 982.04 261.07 982.87 265.34 985.55 268.44 C 985.46 269.06 985.29 270.29 985.21 270.90 C 985.50 270.47 986.09 269.60 986.38 269.17 C 988.06 271.67 989.11 274.51 991.05 276.91 C 991.82 280.77 994.91 283.44 995.86 287.20 C 996.91 290.34 996.97 293.70 996.94 296.99 C 995.95 299.30 999.09 300.52 998.85 302.81 L 1000.51 303.02 C 1000.09 303.76 999.70 304.51 999.31 305.26 C 1001.29 305.64 1002.19 307.10 1002.44 309.03 C 1003.04 308.93 1004.24 308.72 1004.85 308.62 C 1008.03 314.89 1012.32 321.39 1011.97 328.63 C 1013.04 329.92 1014.48 331.11 1014.71 332.89 C 1015.68 337.99 1018.02 342.68 1019.04 347.76 C 1017.73 350.08 1020.61 351.83 1020.86 354.04 C 1020.32 354.21 1019.23 354.54 1018.69 354.71 C 1019.54 355.55 1020.39 356.39 1021.26 357.24 C 1020.18 358.85 1018.57 359.90 1017.16 361.17 C 1016.04 362.80 1015.64 364.79 1014.92 366.60 C 1016.11 367.72 1019.77 368.71 1017.42 370.47 C 1018.84 370.16 1020.25 370.46 1021.62 370.96 C 1021.99 372.66 1022.87 374.10 1024.58 374.72 C 1025.73 377.30 1026.10 380.13 1027.00 382.79 C 1028.28 385.34 1029.10 388.11 1029.20 390.97 C 1031.80 398.35 1032.04 406.26 1032.56 413.98 C 1033.05 428.66 1033.69 443.34 1033.58 458.03 C 1034.14 467.34 1033.95 476.67 1033.87 485.99 C 1033.52 490.38 1033.88 495.34 1031.03 499.03 C 1026.92 502.49 1026.37 508.61 1022.27 511.97 C 1022.13 513.40 1021.77 514.77 1021.18 516.09 C 1020.60 515.64 1019.46 514.74 1018.89 514.29 C 1019.83 515.24 1020.47 516.35 1020.80 517.62 C 1020.06 517.70 1018.57 517.88 1017.83 517.96 C 1018.35 518.06 1019.38 518.25 1019.90 518.34 C 1019.44 519.22 1018.52 520.99 1018.06 521.87 C 1020.94 524.70 1024.38 527.11 1026.19 530.85 C 1027.42 532.29 1025.86 533.98 1025.57 535.48 C 1024.94 537.39 1024.15 539.24 1022.92 540.84 C 1022.89 543.82 1021.07 546.25 1020.06 548.93 C 1019.06 553.70 1016.17 557.68 1015.41 562.51 C 1014.90 562.70 1013.88 563.07 1013.37 563.26 C 1010.37 566.60 1013.58 571.66 1009.99 574.59 C 1010.92 577.01 1008.35 578.76 1008.29 581.12 C 1008.06 583.19 1006.85 584.88 1005.42 586.31 C 1005.33 589.56 1004.99 593.50 1001.62 595.06 C 1001.89 595.39 1002.45 596.04 1002.72 596.37 C 1001.35 600.42 999.75 604.40 998.02 608.31 C 997.74 609.24 997.17 611.10 996.89 612.03 C 996.47 611.21 996.07 610.40 995.69 609.59 L 995.11 611.81 C 995.51 611.80 996.32 611.78 996.73 611.77 C 995.60 613.87 995.37 616.86 993.01 618.06 C 990.93 618.68 991.94 620.84 992.35 622.30 C 991.77 623.63 991.06 624.90 989.92 625.82 C 989.72 629.36 987.58 632.61 984.74 634.65 C 984.84 634.99 985.03 635.68 985.13 636.02 C 984.21 639.21 982.38 642.01 980.96 644.99 C 980.48 646.18 979.45 646.95 978.28 647.36 C 978.32 647.80 978.42 648.67 978.46 649.11 C 976.68 652.30 974.55 655.28 972.76 658.48 C 972.41 658.08 971.72 657.29 971.37 656.90 C 971.21 659.49 970.91 662.29 968.52 663.82 C 967.13 666.33 965.48 668.71 963.63 670.91 C 963.13 670.80 962.14 670.57 961.64 670.45 C 962.95 672.99 960.85 674.69 958.70 675.48 C 957.53 681.67 950.71 683.92 948.09 689.15 C 946.44 690.40 945.55 692.85 943.27 692.98 C 943.30 693.46 943.36 694.42 943.38 694.90 C 942.89 695.25 941.90 695.95 941.41 696.30 C 940.96 697.19 940.52 698.09 940.09 699.00 C 938.35 700.23 936.62 701.50 935.12 703.02 C 934.67 704.55 933.62 705.75 932.71 707.02 C 932.19 706.78 931.16 706.31 930.65 706.07 C 931.94 708.04 930.51 710.07 928.24 709.96 C 928.30 710.39 928.42 711.24 928.48 711.67 C 926.26 713.60 923.87 715.47 921.01 716.33 C 921.46 716.74 922.35 717.57 922.80 717.98 C 917.90 718.39 917.32 724.02 913.53 726.25 C 912.66 725.53 911.63 725.31 910.45 725.57 C 911.32 725.95 912.20 726.32 913.09 726.70 C 910.72 727.94 909.14 730.41 906.18 730.40 C 906.08 729.90 905.89 728.89 905.80 728.39 C 905.18 728.40 903.96 728.43 903.35 728.45 C 903.74 724.28 902.62 720.06 900.59 716.45 C 899.53 714.63 897.37 715.59 895.76 715.76 C 895.95 717.91 894.58 719.76 894.39 721.87 C 893.45 726.52 894.73 731.21 894.71 735.88 C 894.25 738.66 893.62 741.44 893.80 744.29 C 890.37 745.58 888.25 748.96 885.76 751.51 C 885.30 751.39 884.39 751.16 883.93 751.04 C 883.90 754.26 880.01 755.13 877.48 755.76 C 876.86 758.41 874.11 759.53 871.91 760.62 C 870.10 761.17 869.35 763.38 867.36 763.51 C 864.79 764.63 863.46 768.01 860.35 767.70 C 859.57 770.71 855.97 771.01 853.93 772.95 C 850.98 773.86 849.04 776.30 846.66 778.11 C 845.45 777.80 844.24 777.47 843.06 777.16 C 843.72 777.41 845.03 777.90 845.69 778.15 C 842.81 780.79 839.28 782.59 835.95 784.57 C 835.56 784.53 834.78 784.45 834.39 784.41 C 835.06 786.85 831.44 786.97 829.89 786.55 L 830.00 788.01 C 828.64 788.39 827.49 789.20 826.53 790.21 C 825.94 790.17 824.77 790.10 824.19 790.06 C 821.31 792.46 817.91 794.08 814.12 794.21 C 813.75 794.04 813.01 793.70 812.64 793.52 C 811.97 794.31 811.31 795.11 810.66 795.93 C 806.98 796.97 803.70 799.04 800.05 800.15 C 797.29 801.66 794.41 802.77 791.35 803.54 C 785.21 807.69 778.26 810.49 771.18 812.63 C 769.42 813.07 767.55 814.03 765.92 812.73 C 762.18 814.61 758.10 815.61 754.05 816.56 C 753.55 818.28 751.44 821.06 749.71 819.03 C 741.95 823.64 732.42 820.34 724.41 824.08 C 721.04 826.67 716.55 826.14 712.74 827.58 C 709.80 828.53 706.72 828.88 703.68 829.35 C 703.30 829.19 702.52 828.86 702.13 828.70 C 699.47 830.66 695.75 828.75 692.81 830.07 C 688.61 832.50 683.28 830.59 679.11 833.10 C 679.50 834.35 680.15 835.56 680.09 836.92 C 680.11 848.63 680.11 860.33 680.08 872.04 C 680.19 875.41 679.40 878.72 678.89 882.01 C 680.02 885.26 678.40 889.07 675.47 890.79 C 672.55 892.71 671.73 896.85 673.12 899.94 C 672.73 900.47 671.94 901.51 671.55 902.03 C 672.39 901.97 674.05 901.83 674.88 901.77 C 676.70 902.67 676.26 905.01 677.40 906.45 C 678.81 923.56 677.54 940.81 675.19 957.80 C 674.70 960.75 674.13 963.68 673.67 966.65 C 673.07 966.85 671.87 967.24 671.28 967.44 C 671.73 969.56 671.97 971.73 672.22 973.90 C 671.30 978.33 668.69 982.26 668.24 986.81 C 667.38 992.37 667.43 998.01 667.35 1003.62 C 665.96 1009.90 658.19 1010.67 654.65 1015.37 C 658.22 1015.92 662.72 1017.41 664.12 1020.93 C 662.96 1023.48 661.98 1026.11 661.90 1028.97 C 662.16 1034.44 660.29 1039.86 659.25 1045.22 C 659.00 1045.67 658.49 1046.58 658.24 1047.04 C 658.59 1051.36 657.22 1055.55 656.49 1059.77 L 655.52 1059.33 C 654.89 1060.81 653.84 1062.87 655.65 1064.09 C 653.12 1076.16 651.19 1088.36 649.24 1100.54 C 648.92 1103.62 647.27 1106.44 647.75 1109.61 C 646.77 1119.09 645.02 1128.49 644.11 1137.98 C 643.61 1140.27 643.97 1143.28 641.57 1144.57 C 640.75 1146.10 643.82 1147.33 642.01 1148.95 C 641.54 1150.10 641.37 1151.31 641.50 1152.59 C 640.20 1152.76 638.91 1152.92 637.63 1153.05 C 636.77 1150.55 635.96 1148.01 635.30 1145.47 C 635.78 1145.26 636.74 1144.85 637.22 1144.64 C 636.70 1144.65 635.64 1144.67 635.12 1144.67 C 633.49 1138.83 633.09 1132.82 632.45 1126.83 C 632.16 1126.74 631.57 1126.57 631.28 1126.48 C 630.29 1119.64 628.00 1112.94 628.24 1105.98 C 626.38 1102.08 625.51 1097.76 625.61 1093.46 C 625.63 1091.19 624.17 1089.30 623.82 1087.12 C 621.91 1075.83 619.52 1064.61 617.79 1053.30 L 618.22 1051.92 C 616.66 1050.14 616.69 1047.73 616.26 1045.56 C 615.15 1038.03 613.44 1030.61 612.34 1023.09 C 611.87 1019.98 610.83 1016.90 611.29 1013.74 C 609.67 1010.73 609.69 1007.24 609.14 1003.95 C 607.37 993.63 605.52 983.31 604.32 972.91 C 603.15 966.28 601.64 959.55 601.93 952.85 C 599.83 946.49 599.59 939.78 598.88 933.18 C 599.72 930.34 599.32 927.46 598.14 924.81 C 597.05 917.10 596.69 909.21 597.27 901.44 C 600.95 901.49 604.83 900.54 607.80 898.32 C 607.21 897.50 606.01 895.88 605.41 895.07 C 605.98 895.03 607.11 894.97 607.68 894.94 L 605.10 894.66 L 605.35 892.53 C 605.01 893.27 604.67 894.02 604.33 894.77 C 601.82 892.71 598.94 891.21 596.13 889.63 C 595.68 888.42 595.15 887.25 594.51 886.16 C 594.70 867.63 595.36 849.11 595.50 830.58 L 593.68 830.76 C 593.98 830.07 594.57 828.70 594.86 828.02 C 593.75 828.98 592.47 829.70 591.17 830.37 C 585.18 828.42 578.51 829.25 572.92 825.96 C 571.41 826.69 569.77 827.08 568.14 826.52 C 564.07 825.48 559.84 825.30 555.79 824.20 C 556.28 823.64 557.26 822.54 557.75 821.98 C 556.31 823.00 554.82 824.67 553.18 822.92 C 549.04 823.40 545.01 821.62 541.07 820.65 C 540.72 820.38 540.03 819.84 539.68 819.58 C 536.14 819.33 531.53 819.57 529.34 816.26 C 525.76 816.38 521.16 816.42 519.03 813.00 C 518.61 813.20 517.78 813.59 517.36 813.79 C 511.99 812.40 506.91 810.10 501.50 808.87 C 502.11 803.04 500.49 797.37 500.63 791.52 C 497.37 791.65 494.13 791.13 490.98 790.39 C 488.69 791.59 486.06 791.21 483.59 791.37 C 482.94 790.90 482.30 790.43 481.66 789.99 C 479.67 794.31 474.17 794.60 470.07 793.87 C 463.58 794.84 457.50 791.46 452.48 787.72 C 449.07 787.05 447.55 783.41 444.06 783.04 C 442.13 781.23 439.79 779.96 437.51 778.67 C 436.05 777.80 434.54 776.93 433.61 775.47 C 431.00 774.91 429.02 773.09 427.67 770.87 C 424.91 770.61 423.08 768.43 420.99 766.89 C 419.42 765.40 417.04 764.33 416.99 761.87 C 414.43 761.62 413.64 759.72 414.66 757.46 C 413.77 757.60 412.00 757.89 411.11 758.04 C 407.00 756.65 402.65 756.75 398.38 756.89 C 398.63 756.29 399.14 755.10 399.39 754.50 C 397.91 754.38 396.44 754.27 394.97 754.13 C 394.49 751.76 393.68 749.42 393.79 746.98 C 392.19 745.23 390.90 743.26 390.01 741.07 C 388.80 738.94 384.69 736.60 387.62 734.21 C 387.13 734.47 386.15 734.99 385.65 735.25 C 384.33 733.67 383.05 732.05 381.68 730.53 C 381.89 729.96 382.10 729.40 382.32 728.86 C 380.92 728.24 378.75 727.54 379.28 725.57 C 377.23 726.34 376.31 724.00 375.04 722.91 C 371.97 719.52 367.55 717.50 362.97 717.56 C 358.47 717.00 353.08 714.13 352.61 709.20 C 350.91 709.34 349.41 708.89 348.40 707.48 C 348.75 706.83 349.45 705.52 349.80 704.87 C 349.32 705.45 348.36 706.61 347.88 707.19 C 346.58 705.78 345.44 704.25 346.53 702.33 C 344.79 703.48 343.50 702.45 342.34 701.16 C 342.69 700.78 343.39 700.02 343.74 699.64 C 341.46 700.08 340.31 698.44 339.39 696.64 C 337.69 696.07 336.49 694.75 336.51 692.90 C 334.41 691.23 331.53 689.74 330.96 686.90 C 329.33 685.32 328.57 682.68 326.03 682.38 C 326.19 681.96 326.53 681.12 326.70 680.70 C 323.06 679.50 321.69 675.61 319.34 672.94 C 319.38 672.41 319.46 671.36 319.50 670.83 C 316.85 670.51 316.24 667.45 314.98 665.56 C 315.10 665.34 315.34 664.88 315.45 664.66 C 312.65 663.56 312.97 660.28 312.16 657.88 C 310.08 657.99 309.19 656.16 308.31 654.64 C 305.07 650.41 301.20 646.75 297.27 643.17 C 299.06 642.58 299.32 641.95 298.05 641.29 C 296.49 640.53 294.92 639.79 293.46 638.87 C 291.13 634.14 287.16 630.52 284.72 625.85 L 286.08 624.78 C 284.95 623.90 283.83 623.01 282.72 622.11 C 282.85 620.56 282.37 619.17 281.37 618.00 C 281.69 617.65 282.33 616.97 282.65 616.63 C 279.95 617.26 279.41 613.94 278.58 612.14 C 276.73 610.61 275.26 608.35 276.01 605.86 C 272.69 603.58 271.28 599.20 270.75 595.39 C 266.92 591.97 267.07 585.55 262.53 582.52 C 261.85 580.46 260.38 578.83 259.34 576.97 C 258.82 572.74 258.54 568.48 258.94 564.23 C 256.94 562.19 254.87 559.59 255.54 556.54 C 252.81 554.66 251.80 551.15 252.04 547.97 C 248.30 545.76 248.40 540.78 248.18 536.98 C 247.93 530.26 251.14 523.43 248.78 516.87 C 248.97 516.61 249.35 516.07 249.54 515.80 C 244.01 514.34 244.92 507.44 244.48 503.02 C 245.40 495.51 243.93 488.05 243.51 480.59 C 246.41 480.24 247.42 477.08 249.16 475.16 C 245.92 473.45 244.37 470.10 242.82 466.97 C 242.41 462.92 242.86 458.84 242.64 454.79 C 242.14 451.53 240.74 448.38 241.13 445.02 C 241.57 438.34 240.41 430.81 244.52 425.03 C 242.17 420.02 243.29 414.39 243.67 409.10 C 244.81 401.37 245.50 393.56 247.35 385.95 C 247.50 384.80 248.14 383.81 248.68 382.81 C 248.17 379.97 248.85 376.87 250.94 374.79 C 250.77 374.35 250.43 373.48 250.25 373.04 C 251.33 370.03 252.94 367.15 253.35 363.96 C 253.59 357.18 255.58 350.64 256.92 344.03 C 257.35 344.50 258.22 345.42 258.66 345.88 C 257.81 337.33 260.13 326.62 269.15 323.30 C 269.71 317.03 269.19 310.60 271.66 304.69 C 272.43 300.11 277.37 299.05 281.30 299.23 C 282.10 295.38 282.65 290.87 280.09 287.54 C 278.62 286.04 279.34 283.17 281.39 282.64 C 281.83 280.63 282.26 278.62 283.06 276.72 C 283.48 276.61 284.33 276.37 284.75 276.26 C 284.48 273.36 286.77 271.09 288.99 269.61 C 289.21 267.55 290.80 266.08 291.93 264.47 C 293.40 262.40 294.93 260.35 296.95 258.78 C 297.49 259.26 298.56 260.24 299.10 260.73 C 298.68 260.23 297.84 259.22 297.42 258.72 C 298.60 256.28 299.38 253.68 299.36 250.96 C 299.55 244.80 304.78 238.84 311.26 239.51 C 314.39 235.89 312.33 230.62 314.87 226.70 C 316.10 224.71 316.17 220.70 319.42 221.22 C 320.75 219.30 322.69 218.16 325.03 218.02 C 324.89 216.61 324.72 215.21 324.53 213.81 C 326.51 210.27 328.83 206.57 332.75 204.96 C 332.94 204.42 333.33 203.34 333.52 202.81 C 334.45 202.34 335.39 201.87 336.33 201.41 C 336.41 200.92 336.58 199.95 336.67 199.47 C 339.75 197.05 338.32 192.59 340.06 189.37 C 342.81 188.96 345.55 188.02 348.36 188.45 C 348.39 187.93 348.46 186.89 348.49 186.37 C 351.87 185.34 353.35 181.82 356.19 179.96 C 356.64 178.83 357.10 177.70 357.56 176.58 C 358.12 176.54 359.23 176.47 359.79 176.43 C 360.68 172.36 364.89 169.72 368.65 168.50 C 369.14 167.29 369.97 166.36 371.33 166.14 C 371.89 165.38 372.45 164.62 373.01 163.86 C 373.43 164.06 374.27 164.45 374.68 164.64 C 374.75 164.12 374.89 163.06 374.96 162.53 C 375.38 162.70 376.21 163.06 376.62 163.24 C 377.85 160.98 380.27 159.81 382.69 159.27 C 384.14 156.24 386.11 153.50 387.58 150.49 C 388.08 150.19 389.07 149.61 389.56 149.31 C 391.27 146.97 394.12 146.96 396.76 146.81 C 397.10 146.32 397.77 145.35 398.11 144.87 C 400.37 144.49 402.79 144.77 404.96 143.94 C 406.95 142.04 405.84 138.69 408.03 136.96 C 410.77 134.14 414.15 132.04 417.53 130.08 C 418.89 129.20 420.29 128.37 421.68 127.53 C 423.48 127.58 425.29 127.31 427.08 127.65 C 426.47 127.22 425.25 126.35 424.64 125.92 C 426.40 124.48 428.61 124.13 430.80 124.54 C 431.50 123.51 432.20 122.48 432.92 121.46 C 435.52 121.49 437.51 119.89 439.46 118.39 C 442.93 116.34 446.61 114.31 450.76 114.34 C 450.91 113.88 451.23 112.96 451.39 112.50 C 456.22 111.24 460.42 107.78 465.45 107.57 C 468.19 105.63 471.77 105.28 474.81 106.72 C 475.79 107.83 476.84 108.90 477.93 109.92 C 476.77 111.38 476.09 114.88 473.44 112.65 C 473.16 113.84 472.81 115.02 472.40 116.17 C 471.44 116.66 470.48 117.15 469.53 117.64 C 466.48 119.97 463.23 122.12 459.64 123.51 C 459.20 123.39 458.33 123.13 457.90 123.01 C 456.79 126.42 452.59 127.11 449.47 126.64 C 449.30 127.20 448.98 128.32 448.81 128.88 C 448.27 129.04 447.19 129.37 446.65 129.53 C 445.26 131.41 442.81 133.70 440.66 131.50 C 440.15 131.60 439.13 131.80 438.62 131.90 C 439.69 132.47 440.76 133.08 441.65 133.92 C 439.49 134.13 437.88 135.70 436.08 136.72 C 435.90 136.25 435.53 135.31 435.35 134.84 C 437.05 138.24 432.42 138.42 430.33 139.54 C 430.48 139.93 430.79 140.71 430.94 141.10 C 429.71 141.61 428.49 142.14 427.29 142.69 C 427.05 143.07 426.57 143.84 426.33 144.23 C 424.02 145.57 422.00 147.32 419.98 149.05 C 419.49 148.85 418.51 148.47 418.03 148.28 C 417.75 149.29 417.48 150.30 417.21 151.32 C 416.27 151.40 415.33 151.50 414.41 151.61 C 414.26 154.02 412.11 154.89 410.04 155.05 C 409.00 156.76 407.99 158.68 405.66 158.43 C 404.74 161.02 401.37 163.31 398.72 161.96 C 398.80 162.79 398.86 163.62 398.91 164.45 C 396.87 166.84 394.29 168.68 391.60 170.27 C 391.33 172.20 391.07 174.14 390.87 176.09 C 388.15 177.46 385.10 178.72 383.63 181.58 C 383.18 181.49 382.27 181.29 381.82 181.20 C 381.62 183.16 379.89 184.25 378.32 185.09 C 378.33 186.92 376.97 187.58 375.42 187.98 C 375.33 188.38 375.17 189.18 375.09 189.57 C 372.33 192.20 369.74 195.00 367.12 197.77 C 366.77 197.69 366.06 197.54 365.71 197.47 C 364.96 201.73 360.83 204.07 358.10 207.05 C 358.25 209.05 357.01 210.08 355.22 210.58 C 355.19 213.36 354.76 217.29 350.92 216.67 C 351.07 217.27 351.37 218.47 351.52 219.07 C 350.61 220.03 349.73 221.01 348.87 222.02 C 348.77 221.21 348.57 219.59 348.46 218.78 C 348.78 220.76 348.35 222.52 346.61 223.66 C 345.07 227.85 340.50 230.15 339.81 234.80 C 339.23 233.81 338.66 232.83 338.11 231.85 C 337.89 232.53 337.45 233.89 337.23 234.57 C 337.75 234.98 338.27 235.38 338.81 235.78 C 338.12 238.68 336.72 241.30 335.20 243.84 C 334.69 245.39 333.20 245.86 331.73 245.93 C 331.44 248.76 330.61 251.69 327.79 252.97 C 327.76 254.92 326.86 256.59 325.34 257.79 C 325.43 258.27 325.60 259.22 325.69 259.70 C 322.59 266.71 317.49 273.13 317.01 281.06 C 316.76 285.08 314.71 288.62 313.04 292.19 C 312.54 292.41 311.52 292.84 311.01 293.06 C 311.09 296.15 308.84 298.35 307.69 301.01 C 308.01 304.39 307.73 307.75 306.69 311.00 C 304.85 312.62 303.64 314.63 304.11 317.15 C 303.13 318.60 302.22 320.18 300.55 320.93 C 301.37 324.66 299.59 328.21 299.56 331.92 C 299.47 335.29 299.11 338.66 299.18 342.04 C 299.14 344.60 299.50 347.52 297.70 349.62 C 298.28 360.27 295.69 370.75 293.72 381.16 C 293.22 384.88 291.16 388.21 290.83 391.96 C 294.58 396.87 293.29 403.26 294.07 408.98 C 293.96 417.68 294.40 426.37 294.71 435.06 C 295.63 443.06 296.79 451.05 298.01 459.02 C 295.70 460.97 293.88 463.43 291.59 465.39 C 289.09 466.73 287.03 468.75 284.41 469.88 C 284.24 471.62 284.11 474.11 286.03 474.95 C 287.60 476.00 289.42 475.20 291.09 474.95 C 293.11 476.47 295.93 476.28 297.68 478.21 C 298.60 478.95 299.53 479.70 300.50 480.40 C 300.82 481.47 301.14 482.54 301.46 483.62 C 301.99 483.81 303.06 484.20 303.59 484.39 C 304.84 487.75 304.85 491.33 303.55 494.68 C 300.13 497.31 304.62 500.32 305.59 503.09 C 309.65 505.51 311.29 510.53 312.61 514.86 C 313.36 518.08 314.72 521.36 314.23 524.71 C 315.03 527.86 317.09 530.37 319.35 532.61 C 321.34 534.45 321.97 537.27 323.98 539.11 C 323.94 540.04 323.87 541.89 323.83 542.81 C 325.40 542.10 326.44 542.70 326.73 544.41 C 327.93 548.66 330.31 552.52 330.79 556.99 C 330.90 559.57 329.63 561.84 327.81 563.59 C 327.94 564.55 328.07 565.51 328.21 566.49 C 330.40 567.31 332.81 568.04 335.01 566.76 C 339.37 568.24 342.25 572.00 344.39 575.89 C 344.29 576.32 344.08 577.17 343.97 577.60 C 346.85 579.68 346.88 583.40 347.71 586.53 C 349.00 590.09 351.95 592.65 354.52 595.31 C 354.58 595.76 354.71 596.67 354.77 597.12 C 356.51 597.71 357.62 599.24 357.95 601.02 C 358.79 604.29 361.83 606.43 362.44 609.80 C 363.34 610.55 364.42 611.04 365.43 611.67 C 365.10 612.15 364.45 613.11 364.12 613.59 C 367.03 612.83 367.96 616.06 370.04 617.28 C 371.18 617.92 371.96 618.89 372.32 620.17 C 374.83 620.17 377.03 621.38 378.98 622.85 C 378.70 624.87 380.16 626.25 382.17 625.97 C 383.37 627.73 384.34 629.63 385.21 631.58 C 388.26 632.93 389.95 636.00 392.04 638.45 C 394.23 640.03 396.10 642.00 398.11 643.81 C 398.34 644.31 398.79 645.33 399.02 645.83 C 401.40 646.44 402.60 648.73 404.56 650.01 C 406.64 652.28 410.20 652.50 411.30 655.67 C 411.98 655.67 413.33 655.68 414.00 655.68 C 414.97 656.71 415.89 657.82 415.55 659.38 C 417.87 658.27 418.23 661.32 419.41 662.51 C 421.78 666.37 427.29 667.25 429.04 671.51 C 432.12 670.51 433.60 673.68 435.15 675.47 L 436.27 674.25 C 437.62 675.25 439.09 676.25 438.71 678.20 C 440.44 678.41 443.72 678.25 443.34 680.93 C 443.02 684.17 444.80 687.03 447.40 688.80 C 452.24 692.37 456.04 697.89 455.72 704.12 C 458.69 706.74 463.34 708.01 466.32 704.68 C 466.68 702.58 467.15 700.50 467.49 698.41 C 468.79 697.83 470.10 697.29 471.44 696.83 C 476.53 698.21 481.59 700.06 486.26 702.61 C 488.13 704.72 491.43 704.22 493.16 706.54 C 495.28 707.24 496.47 709.37 498.53 710.19 C 500.24 710.90 502.00 711.49 503.77 712.08 C 503.65 712.61 503.41 713.68 503.29 714.21 C 503.50 713.70 503.93 712.68 504.14 712.17 L 505.50 713.07 C 505.61 713.39 505.84 714.03 505.95 714.35 C 508.80 712.98 511.90 714.37 514.76 715.06 C 515.17 715.70 515.98 716.98 516.38 717.62 C 516.96 717.48 518.11 717.20 518.68 717.06 C 519.45 719.25 520.89 721.61 519.94 723.99 C 519.75 727.59 519.90 731.20 520.40 734.78 C 521.24 735.36 521.90 736.11 522.39 737.03 C 525.91 736.51 529.53 735.99 533.06 736.76 C 532.91 736.30 532.61 735.39 532.46 734.93 C 535.56 734.39 538.64 732.20 541.80 733.36 C 542.58 732.50 543.57 732.06 544.77 732.01 C 546.67 730.20 549.35 729.78 551.84 729.38 C 554.93 728.69 558.11 730.46 561.10 729.08 C 561.66 729.20 562.79 729.46 563.35 729.58 C 564.57 729.37 565.75 729.51 566.89 730.02 C 569.62 729.71 572.29 730.45 575.01 730.63 C 577.63 730.95 580.45 730.75 582.80 732.20 C 585.26 732.25 587.72 732.32 590.17 732.48 C 591.75 730.72 594.23 731.06 596.35 730.81 C 596.61 722.13 596.19 713.29 598.04 704.76 C 598.43 704.59 599.19 704.26 599.57 704.10 C 599.25 703.41 598.94 702.74 598.64 702.08 C 599.87 701.50 601.10 700.93 602.35 700.38 C 602.91 698.06 604.79 695.59 603.58 693.22 C 602.64 692.44 601.40 692.20 600.31 691.77 C 599.41 691.06 598.53 690.33 597.68 689.58 C 596.40 680.49 597.40 671.21 597.11 662.04 C 597.35 655.02 596.29 647.77 598.44 640.96 C 597.14 636.45 599.13 631.95 601.23 628.04 C 602.28 626.30 602.74 624.00 601.33 622.31 C 598.07 618.29 598.74 612.81 598.73 607.99 C 599.02 604.19 598.83 600.36 599.45 596.59 C 597.60 596.54 596.30 595.37 595.15 594.08 C 595.62 593.68 596.55 592.89 597.02 592.49 C 596.26 592.52 594.74 592.58 593.98 592.61 L 594.07 591.04 C 592.38 590.69 590.80 589.98 589.42 588.96 C 589.54 588.28 589.79 586.94 589.91 586.26 C 588.76 585.94 587.62 585.63 586.48 585.35 C 583.48 581.66 577.74 581.11 575.01 576.92 C 569.79 576.31 564.64 575.12 559.36 574.98 C 559.12 574.19 558.89 573.41 558.66 572.63 L 559.26 575.24 C 555.55 572.18 549.68 576.95 546.62 572.84 C 546.24 573.11 545.48 573.67 545.10 573.94 C 542.71 573.35 540.22 569.97 542.37 567.91 C 541.69 566.39 540.91 564.93 540.14 563.47 C 556.74 563.11 573.35 563.64 589.96 563.30 C 597.63 563.51 605.37 563.01 612.98 564.16 C 621.95 563.19 631.03 563.89 640.04 563.71 C 643.95 564.70 647.99 564.90 651.92 563.77 C 666.59 563.81 681.27 563.55 695.95 563.86 C 699.62 563.90 703.42 563.66 706.88 565.17 C 716.41 563.83 726.11 564.13 735.73 564.21 C 735.75 567.19 736.02 570.78 733.04 572.55 C 731.84 572.81 730.66 573.08 729.48 573.36 C 728.96 573.65 727.93 574.23 727.41 574.52 C 725.54 573.71 723.94 575.27 722.12 575.38 C 719.06 575.66 715.97 576.18 712.89 575.82 C 710.56 577.25 707.89 577.84 705.21 577.19 C 704.63 579.66 701.84 579.62 699.83 579.94 C 696.65 582.77 692.47 584.76 688.44 585.80 C 689.13 588.10 687.28 589.08 685.57 590.01 C 682.26 593.98 680.58 598.91 679.59 603.94 C 679.57 608.65 681.80 613.10 681.31 617.85 C 680.17 619.16 678.88 620.41 678.15 622.02 C 677.39 624.68 678.66 627.76 677.04 630.20 C 675.99 631.63 674.55 632.71 673.30 633.96 C 679.03 639.78 677.73 648.55 677.90 655.99 C 678.50 671.32 678.16 686.66 678.27 701.99 C 678.21 703.66 678.44 705.37 678.01 707.02 C 675.61 709.93 671.58 710.48 668.53 712.48 C 667.40 714.18 665.98 715.67 663.87 716.08 C 665.75 717.01 667.15 718.57 668.38 720.26 C 670.93 720.23 672.56 722.07 673.99 723.94 C 674.59 726.74 675.73 729.50 674.90 732.41 C 679.46 734.22 684.39 732.77 689.13 732.91 C 690.44 733.21 691.78 733.26 693.15 733.07 C 694.55 732.03 696.21 732.29 697.83 732.54 C 705.32 730.65 713.07 729.77 720.73 728.81 C 724.65 727.64 728.95 725.70 733.00 727.34 C 734.41 726.21 736.27 725.86 737.63 724.64 C 740.73 723.89 743.81 723.04 746.90 722.21 C 747.20 722.59 747.79 723.36 748.09 723.75 C 748.93 721.05 751.41 720.22 754.00 720.62 C 757.14 718.49 760.80 717.40 764.37 716.23 C 764.88 716.62 765.89 717.38 766.40 717.77 C 766.38 717.09 766.34 715.74 766.32 715.06 C 767.75 714.59 769.20 714.15 770.66 713.74 C 772.21 712.83 773.76 711.91 775.23 710.86 C 775.84 710.82 777.05 710.75 777.66 710.72 C 778.82 708.88 780.81 707.73 782.99 707.64 C 784.89 707.57 786.05 705.75 787.86 705.37 C 792.21 704.20 796.81 704.66 801.17 703.44 C 801.74 701.33 803.89 700.72 805.83 701.10 C 802.08 699.87 806.28 696.89 807.39 695.13 C 812.57 694.44 817.15 690.77 822.54 691.59 C 820.07 689.50 823.58 688.20 825.41 687.73 C 825.23 687.35 824.86 686.60 824.67 686.23 C 826.89 683.73 828.81 680.65 832.06 679.41 C 837.20 678.17 840.83 674.06 845.34 671.52 C 847.67 668.67 850.53 666.24 853.74 664.41 C 854.16 664.50 855.01 664.69 855.43 664.79 C 854.81 663.65 854.97 662.71 855.90 661.96 C 858.99 659.51 861.94 656.40 866.00 655.67 C 869.39 655.79 872.71 656.62 876.10 656.93 C 876.78 657.55 877.41 658.24 877.98 659.00 C 876.24 655.60 876.78 651.69 876.91 648.02 C 877.28 647.59 878.03 646.73 878.40 646.31 C 878.00 644.47 879.29 643.08 880.15 641.63 C 880.68 641.95 881.75 642.58 882.29 642.90 C 881.79 639.52 884.46 635.09 888.35 636.24 C 888.19 635.69 887.89 634.57 887.74 634.01 C 887.93 632.37 890.29 633.19 891.45 632.68 C 890.18 630.15 893.03 629.58 894.53 628.38 C 895.40 626.90 896.15 625.36 896.95 623.85 C 897.45 623.77 898.46 623.62 898.96 623.55 C 899.16 621.72 900.41 620.44 901.65 619.23 L 902.23 621.07 C 901.84 618.60 903.33 617.16 905.57 616.47 C 905.64 615.92 905.78 614.82 905.86 614.27 C 907.06 613.53 908.28 612.78 909.47 612.00 C 911.26 608.19 914.65 605.35 917.04 601.89 C 919.93 599.84 924.02 598.01 924.60 594.05 C 924.83 591.76 926.98 590.18 926.79 587.81 C 927.16 587.73 927.91 587.57 928.29 587.49 C 928.69 585.66 929.71 584.06 930.00 582.21 C 931.57 580.76 932.92 579.13 934.25 577.46 C 935.60 577.38 936.41 576.66 936.68 575.32 C 938.64 573.85 941.37 573.86 943.35 572.58 C 944.83 568.91 942.30 564.04 945.41 560.80 C 944.92 555.46 950.34 552.34 950.41 547.27 C 951.03 547.34 952.29 547.49 952.91 547.56 C 952.72 545.22 953.16 542.80 954.31 540.74 C 954.75 539.71 955.37 538.80 956.34 538.20 C 957.15 536.22 957.26 533.03 959.76 532.43 C 959.86 531.05 960.51 530.04 961.71 529.39 C 961.29 529.07 960.45 528.43 960.03 528.11 C 961.20 527.00 962.44 525.94 963.85 525.11 C 963.44 524.42 963.05 523.74 962.67 523.06 C 963.83 520.66 965.61 518.48 965.97 515.77 C 966.97 506.85 969.19 497.95 973.12 489.87 C 973.23 486.28 974.08 482.78 975.12 479.35 C 975.62 479.09 976.63 478.57 977.13 478.31 C 975.64 470.05 979.69 462.19 980.02 454.05 C 981.99 442.47 983.25 430.75 983.21 418.99 C 983.60 417.33 982.97 413.86 985.67 414.35 C 986.00 412.24 988.20 412.06 989.84 411.56 C 990.13 408.35 990.96 404.84 988.74 402.08 C 986.23 400.17 982.54 398.57 982.48 394.90 C 980.50 378.35 980.62 361.63 979.69 345.01 C 979.74 341.39 979.62 337.60 977.73 334.40 C 976.42 332.69 976.82 330.31 975.27 328.76 C 972.77 326.17 974.12 322.28 972.47 319.35 C 969.51 313.67 969.51 307.12 968.56 300.94 C 968.12 297.87 965.80 295.00 966.97 291.81 C 966.11 291.43 965.27 291.04 964.46 290.62 C 962.44 285.44 961.54 279.83 961.71 274.29 C 960.97 271.91 960.26 269.50 960.10 267.01 C 958.79 265.52 957.07 264.26 955.00 265.10 C 954.17 264.04 952.79 263.07 953.53 261.58 C 953.20 261.50 952.54 261.36 952.21 261.29 C 950.10 257.29 948.01 253.21 946.58 248.92 C 946.28 248.77 945.67 248.45 945.37 248.29 C 944.49 246.60 943.15 245.02 943.29 243.00 C 942.38 242.25 941.25 241.67 940.81 240.53 C 939.64 237.72 937.27 235.67 936.02 232.91 C 932.54 228.20 929.32 223.32 925.87 218.60 C 925.74 218.13 925.49 217.18 925.36 216.70 C 924.06 216.09 923.04 215.18 923.06 213.62 C 922.26 213.05 921.47 212.47 920.69 211.90 C 920.84 211.57 921.16 210.90 921.32 210.57 C 918.12 209.82 917.77 206.06 915.50 204.15 C 912.93 201.83 912.31 197.94 908.77 196.66 C 908.79 196.12 908.83 195.03 908.86 194.49 C 907.51 193.97 905.38 193.92 905.55 191.95 C 905.88 191.58 906.55 190.83 906.89 190.46 C 906.15 190.56 904.68 190.77 903.94 190.88 C 902.45 188.97 900.80 187.18 898.83 185.76 C 899.06 185.41 899.52 184.71 899.75 184.36 C 896.23 184.54 894.15 180.76 892.40 178.21 C 891.54 177.79 890.70 177.38 889.86 176.98 C 889.71 176.47 889.40 175.45 889.25 174.94 C 885.98 173.74 883.91 170.75 881.27 168.64 C 879.23 167.25 878.79 164.21 876.04 163.90 C 875.90 163.29 875.63 162.08 875.49 161.47 C 874.83 161.43 873.51 161.34 872.84 161.29 C 872.20 159.84 871.17 158.74 869.61 158.32 C 865.68 155.00 861.07 152.48 857.49 148.75 C 855.32 146.65 852.32 145.84 849.94 144.09 C 850.06 143.59 850.29 142.57 850.41 142.06 C 848.52 141.84 846.67 141.58 844.82 141.24 C 844.80 140.49 844.77 139.00 844.75 138.26 C 844.38 138.69 843.64 139.56 843.27 139.99 C 840.79 136.89 836.21 136.24 834.44 132.55 C 830.91 132.07 828.26 129.57 825.25 127.91 C 825.20 127.38 825.09 126.32 825.04 125.78 C 822.33 125.93 819.83 124.86 818.38 122.53 C 814.82 122.36 812.53 119.05 809.27 117.90 C 807.47 117.23 805.53 116.87 803.90 115.86 C 802.88 114.29 802.24 112.51 801.59 110.77 M 437.25 121.17 C 437.78 121.69 437.78 121.69 437.25 121.17 M 395.06 164.26 C 393.60 167.27 398.40 164.30 395.06 164.26 M 1022.21 508.14 C 1021.69 509.53 1022.16 509.98 1023.60 509.49 C 1024.10 508.09 1023.63 507.64 1022.21 508.14 M 442.15 687.21 C 441.70 688.61 442.18 689.06 443.59 688.55 C 444.03 687.12 443.55 686.68 442.15 687.21 Z" />
</g>
<g id="#b3b3b3b4">
<path fill="#b3b3b3" opacity="0.71" d=" M 437.25 121.17 C 437.78 121.69 437.78 121.69 437.25 121.17 Z" />
</g>
<g id="#d2d2d2d2">
<path fill="#d2d2d2" opacity="0.82" d=" M 395.06 164.26 C 398.40 164.30 393.60 167.27 395.06 164.26 Z" />
</g>
<g id="#cccccccc">
<path fill="#cccccc" opacity="0.80" d=" M 1022.21 508.14 C 1023.63 507.64 1024.10 508.09 1023.60 509.49 C 1022.16 509.98 1021.69 509.53 1022.21 508.14 Z" />
</g>
<g id="#dcdcdcdd">
<path fill="#dcdcdc" opacity="0.87" d=" M 442.15 687.21 C 443.55 686.68 444.03 687.12 443.59 688.55 C 442.18 689.06 441.70 688.61 442.15 687.21 Z" />
</g>
<g id="#9d9d9d9d">
<path fill="#9d9d9d" opacity="0.62" d=" M 673.67 966.65 C 674.13 963.68 674.70 960.75 675.19 957.80 C 674.59 963.22 674.21 968.76 672.22 973.90 C 671.97 971.73 671.73 969.56 671.28 967.44 C 671.87 967.24 673.07 966.85 673.67 966.65 Z" />
</g>
</svg>
