<?xml version="1.0" encoding="UTF-8" ?>
<!DOCTYPE svg PUBLIC "-//W3C//DTD SVG 1.1//EN" "http://www.w3.org/Graphics/SVG/1.1/DTD/svg11.dtd">
<svg width="1276pt" height="1276pt" viewBox="0 0 1276 1276" version="1.1" xmlns="http://www.w3.org/2000/svg">
<g id="#382d67ff">
<path fill="#382d67" opacity="1.00" d=" M 110.34 433.37 C 173.90 433.33 237.46 433.36 301.01 433.35 C 311.04 433.44 321.12 432.98 331.09 434.32 C 353.86 436.61 376.39 443.76 395.38 456.69 C 373.28 457.20 351.16 456.68 329.06 456.90 C 267.01 456.79 204.97 456.96 142.93 456.87 C 132.41 456.96 121.89 456.75 111.38 457.04 C 111.07 459.08 110.75 461.12 110.50 463.18 C 110.22 453.25 110.52 443.31 110.34 433.37 Z" />
<path fill="#382d67" opacity="1.00" d=" M 492.23 433.31 C 567.70 433.50 643.17 433.15 718.63 433.49 C 718.40 438.60 718.54 443.72 718.48 448.84 C 718.39 458.74 718.54 468.65 718.25 478.56 C 717.80 477.06 717.37 475.55 717.11 474.02 C 717.30 468.69 716.97 463.38 716.61 458.07 C 694.07 457.60 671.51 458.03 648.97 457.86 C 594.56 457.94 540.15 457.82 485.74 457.90 C 487.89 449.70 489.96 441.48 492.23 433.31 Z" />
<path fill="#382d67" opacity="1.00" d=" M 798.98 433.37 C 838.58 433.29 878.19 433.45 917.80 433.29 C 924.05 441.37 930.13 449.57 936.25 457.75 C 903.17 458.08 870.07 457.78 836.99 457.91 C 829.83 458.01 822.66 457.50 815.53 458.32 C 809.99 450.02 804.51 441.68 798.98 433.37 Z" />
<path fill="#382d67" opacity="1.00" d=" M 987.11 433.33 C 1037.66 433.48 1088.21 433.17 1138.75 433.48 C 1136.13 438.54 1133.84 443.76 1131.37 448.90 C 1129.59 452.69 1127.74 456.46 1126.02 460.28 C 1125.27 459.48 1124.53 458.70 1123.81 457.91 C 1078.05 457.89 1032.28 457.72 986.52 457.96 C 986.77 449.75 986.69 441.53 987.11 433.33 Z" />
</g>
<g id="#db3041ff">
<path fill="#db3041" opacity="1.00" d=" M 718.48 448.84 C 722.11 448.82 725.75 448.83 729.39 448.81 C 729.49 471.38 729.19 493.96 729.54 516.53 C 721.73 517.17 713.89 517.12 706.07 517.35 C 661.27 518.37 616.48 519.58 571.68 520.52 C 568.19 516.67 564.64 512.89 561.10 509.10 C 556.91 516.95 549.12 523.17 540.02 523.69 C 531.65 524.52 523.21 520.37 518.26 513.67 C 515.90 510.46 514.55 506.65 513.42 502.87 C 512.70 496.87 513.64 490.79 516.60 485.49 C 521.25 477.85 530.01 472.71 539.04 473.23 C 543.61 473.15 547.87 474.98 551.81 477.10 C 555.56 480.04 558.94 483.57 560.96 487.93 C 563.18 493.33 563.78 499.30 562.43 505.00 C 575.63 504.55 588.84 504.63 602.05 504.31 C 619.83 503.04 637.69 504.11 655.47 502.65 C 676.47 502.46 697.47 501.74 718.47 501.36 C 718.38 500.92 718.21 500.02 718.12 499.58 C 718.55 492.58 718.63 485.55 718.25 478.56 C 718.54 468.65 718.39 458.74 718.48 448.84 Z" />
<path fill="#db3041" opacity="1.00" d=" M 1131.37 448.90 C 1137.43 448.71 1143.50 448.88 1149.57 448.78 C 1118.85 514.01 1088.37 579.36 1057.59 644.56 C 1056.24 642.78 1054.84 641.04 1053.49 639.28 C 1051.53 636.09 1049.16 633.19 1046.78 630.32 C 1050.35 620.43 1055.39 611.10 1059.70 601.50 C 1063.15 595.40 1065.21 588.64 1068.69 582.55 C 1071.99 575.71 1075.15 568.80 1078.28 561.88 C 1079.68 558.61 1081.25 555.42 1082.82 552.23 C 1084.38 549.14 1085.88 546.02 1087.23 542.83 C 1089.42 537.81 1092.09 533.00 1094.24 527.95 C 1095.67 524.77 1097.19 521.64 1098.61 518.45 C 1102.47 510.27 1106.52 502.17 1110.23 493.92 C 1112.80 488.21 1115.71 482.66 1118.19 476.91 C 1120.76 471.35 1123.53 465.88 1126.02 460.28 C 1127.74 456.46 1129.59 452.69 1131.37 448.90 Z" />
<path fill="#db3041" opacity="1.00" d=" M 429.92 493.86 C 442.49 508.52 450.17 527.05 453.35 546.01 C 456.12 563.59 455.69 581.84 451.12 599.09 C 446.94 614.72 438.16 629.46 424.99 639.11 C 422.57 641.08 419.63 642.28 417.31 644.37 C 411.08 638.66 403.31 634.66 394.95 633.26 C 407.86 629.40 419.35 621.27 427.41 610.48 C 436.30 598.74 441.13 584.35 442.99 569.84 C 443.60 565.90 444.17 561.94 444.00 557.95 C 443.90 550.87 444.65 543.74 443.32 536.73 C 442.92 532.71 442.24 528.72 441.30 524.79 C 439.93 518.58 438.32 512.39 435.74 506.56 C 434.02 502.23 431.92 498.07 429.92 493.86 Z" />
<path fill="#db3041" opacity="1.00" d=" M 237.11 508.03 C 245.40 514.51 253.41 521.35 261.64 527.92 C 267.03 532.71 272.73 537.14 278.42 541.57 C 277.94 543.47 277.56 545.40 277.32 547.36 C 267.41 539.36 257.66 531.16 247.80 523.11 C 247.88 542.94 247.84 562.77 247.82 582.60 L 248.74 582.01 C 246.54 583.93 244.21 585.67 241.87 587.41 C 240.22 588.65 238.60 589.94 236.98 591.22 C 237.07 587.38 237.04 583.54 237.00 579.70 C 236.86 572.43 237.26 565.17 236.96 557.90 C 236.62 550.50 237.64 543.08 236.83 535.69 C 237.10 531.69 237.01 527.69 236.79 523.69 C 236.92 518.47 236.95 513.25 237.11 508.03 Z" />
<path fill="#db3041" opacity="1.00" d=" M 847.01 594.25 C 850.61 594.45 854.23 594.36 857.84 594.31 C 857.97 616.31 857.71 638.31 857.97 660.31 C 815.14 660.46 772.31 660.21 729.48 660.44 C 729.23 655.26 729.44 650.08 729.38 644.91 C 768.56 644.98 807.73 644.92 846.91 644.94 C 846.89 644.53 846.85 643.69 846.83 643.27 C 847.35 636.53 846.70 629.78 846.90 623.03 C 846.96 620.10 846.96 617.17 846.91 614.25 C 847.35 608.73 846.81 603.21 846.86 597.70 C 846.89 596.54 846.94 595.39 847.01 594.25 Z" />
<path fill="#db3041" opacity="1.00" d=" M 431.22 662.75 C 445.01 677.30 450.59 697.52 453.29 716.90 C 455.70 737.87 456.59 759.68 450.19 780.07 C 445.34 795.90 435.48 810.20 422.08 819.98 C 405.37 832.19 384.59 838.18 364.04 838.79 C 283.09 838.79 202.15 838.83 121.21 838.77 C 121.30 833.66 121.29 828.55 121.24 823.45 C 198.50 823.39 275.76 823.44 353.02 823.42 C 370.38 822.91 387.77 818.51 402.92 809.93 C 416.04 802.53 427.06 791.37 433.89 777.91 C 442.56 761.09 444.80 741.74 444.08 723.05 C 443.38 702.45 440.55 681.38 431.22 662.75 M 121.73 824.74 C 142.47 825.35 163.24 824.84 184.00 825.00 C 240.98 825.02 297.97 824.97 354.96 825.00 C 356.70 825.01 358.43 824.73 360.12 824.32 C 358.75 824.14 357.39 824.03 356.02 823.98 C 278.99 823.96 201.95 824.00 124.91 823.97 C 123.77 823.91 122.71 824.16 121.73 824.74 Z" />
<path fill="#db3041" opacity="1.00" d=" M 237.09 673.40 C 241.20 676.34 244.88 679.83 248.91 682.87 C 258.78 691.09 268.79 699.12 278.57 707.44 C 278.09 709.22 277.70 711.04 277.43 712.88 C 267.58 704.71 257.71 696.56 247.80 688.46 C 247.82 708.10 247.96 727.74 247.73 747.37 C 248.51 746.93 249.29 746.49 250.07 746.05 L 249.92 747.39 C 244.96 749.42 241.31 753.47 236.93 756.44 C 236.91 732.26 236.93 708.08 236.94 683.90 C 236.93 683.52 236.89 682.75 236.88 682.36 C 236.95 679.37 237.06 676.39 237.09 673.40 Z" />
<path fill="#db3041" opacity="1.00" d=" M 745.17 708.91 C 748.33 712.13 751.46 715.39 754.44 718.78 C 754.21 745.20 754.37 771.62 754.36 798.04 C 735.87 812.35 717.50 826.84 698.89 840.99 C 689.00 841.59 678.92 841.00 668.96 840.97 C 593.81 840.30 518.67 839.53 443.52 838.85 C 446.41 833.74 449.42 828.70 452.36 823.62 C 530.85 824.36 609.34 825.14 687.83 825.85 C 699.25 816.94 710.71 808.08 722.15 799.19 C 729.32 793.85 736.06 787.92 743.50 782.97 L 744.70 782.24 C 745.28 777.52 744.96 772.76 745.04 768.02 C 745.08 748.32 744.86 728.61 745.17 708.91 Z" />
<path fill="#db3041" opacity="1.00" d=" M 601.55 716.63 C 601.89 716.64 602.57 716.66 602.92 716.68 C 610.13 723.21 616.58 730.57 623.62 737.30 C 624.46 738.08 625.48 738.89 626.75 738.40 C 628.43 740.10 630.15 741.77 631.90 743.42 C 635.79 737.04 642.48 732.36 649.95 731.48 C 657.17 730.47 664.77 732.82 670.07 737.84 C 676.12 743.37 679.22 751.94 677.99 760.06 C 676.92 767.90 671.95 775.08 664.97 778.81 C 657.96 782.63 649.06 782.70 641.98 779.02 C 629.89 773.13 624.86 757.15 630.85 745.21 C 630.41 745.09 629.55 744.84 629.12 744.72 C 619.63 735.69 610.58 726.13 601.55 716.63 Z" />
<path fill="#db3041" opacity="1.00" d=" M 969.76 715.50 L 970.69 715.70 C 1000.08 752.53 1029.12 789.66 1058.39 826.60 C 1059.11 827.89 1060.62 827.92 1061.96 827.93 C 1089.88 827.88 1117.80 827.90 1145.73 827.92 C 1161.63 827.88 1177.53 827.85 1193.43 827.93 C 1196.88 833.34 1201.04 838.26 1204.74 843.51 C 1159.90 843.38 1115.05 843.63 1070.21 843.38 C 1046.01 812.43 1021.51 781.70 997.21 750.82 C 991.62 743.90 986.34 736.73 980.57 729.97 C 980.86 767.03 980.47 804.10 980.77 841.17 C 923.81 841.41 866.84 841.29 809.88 841.23 C 813.57 836.14 817.23 831.04 820.77 825.86 C 870.45 825.78 920.13 825.87 969.81 825.82 C 969.71 789.04 969.79 752.27 969.76 715.50 Z" />
</g>
<g id="#512e61ff">
<path fill="#512e61" opacity="1.00" d=" M 111.38 457.04 C 121.89 456.75 132.41 456.96 142.93 456.87 C 204.97 456.96 267.01 456.79 329.06 456.90 C 351.16 456.68 373.28 457.20 395.38 456.69 C 402.22 461.42 408.78 466.68 414.28 472.95 C 312.98 473.04 211.69 472.99 110.40 472.98 C 110.42 469.71 110.25 466.44 110.50 463.18 C 110.75 461.12 111.07 459.08 111.38 457.04 Z" />
</g>
<g id="#532e61ff">
<path fill="#532e61" opacity="1.00" d=" M 479.47 481.91 C 481.50 473.89 483.65 465.90 485.74 457.90 C 540.15 457.82 594.56 457.94 648.97 457.86 C 671.51 458.03 694.07 457.60 716.61 458.07 C 716.97 463.38 717.30 468.69 717.11 474.02 C 665.09 473.87 613.07 474.01 561.05 473.94 C 557.46 473.86 553.87 473.96 550.29 474.20 C 551.25 475.11 552.22 476.04 553.18 476.98 L 551.81 477.10 C 547.87 474.98 543.61 473.15 539.04 473.23 C 530.01 472.71 521.25 477.85 516.60 485.49 C 516.51 484.30 516.43 483.11 516.35 481.93 C 504.05 481.87 491.76 481.82 479.47 481.91 Z" />
</g>
<g id="#542f60ff">
<path fill="#542f60" opacity="1.00" d=" M 815.53 458.32 C 822.66 457.50 829.83 458.01 836.99 457.91 C 870.07 457.78 903.17 458.08 936.25 457.75 C 940.95 464.06 945.90 470.20 950.34 476.70 C 934.25 477.25 918.14 476.80 902.04 476.97 C 879.70 476.99 857.36 477.03 835.02 476.93 C 832.79 476.95 830.59 477.24 828.41 477.59 L 828.23 477.62 C 824.08 471.13 819.73 464.77 815.53 458.32 Z" />
</g>
<g id="#522e61ff">
<path fill="#522e61" opacity="1.00" d=" M 986.52 457.96 C 1032.28 457.72 1078.05 457.89 1123.81 457.91 C 1124.53 458.70 1125.27 459.48 1126.02 460.28 C 1123.53 465.88 1120.76 471.35 1118.19 476.91 C 1113.60 475.40 1108.75 476.07 1104.03 475.99 C 1065.11 475.91 1026.18 476.06 987.26 475.87 C 987.21 472.21 986.92 468.56 986.52 464.93 C 986.33 462.61 986.45 460.28 986.52 457.96 Z" />
</g>
<g id="#69305bff">
<path fill="#69305b" opacity="1.00" d=" M 985.77 493.03 C 985.98 483.66 986.13 474.29 986.52 464.93 C 986.92 468.56 987.21 472.21 987.26 475.87 C 1026.18 476.06 1065.11 475.91 1104.03 475.99 C 1108.75 476.07 1113.60 475.40 1118.19 476.91 C 1115.71 482.66 1112.80 488.21 1110.23 493.92 C 1105.60 492.56 1100.77 493.09 1096.04 493.05 C 1059.28 493.02 1022.52 493.14 985.77 493.03 Z" />
</g>
<g id="#652f5cff">
<path fill="#652f5c" opacity="1.00" d=" M 110.40 472.98 C 211.69 472.99 312.98 473.04 414.28 472.95 C 418.98 477.65 423.10 483.00 426.51 488.71 C 408.70 489.33 390.86 488.89 373.03 489.04 C 285.49 489.03 197.94 489.05 110.40 489.00 C 110.38 483.66 110.40 478.32 110.40 472.98 Z" />
</g>
<g id="#632f5dff">
<path fill="#632f5d" opacity="1.00" d=" M 550.29 474.20 C 553.87 473.96 557.46 473.86 561.05 473.94 C 613.07 474.01 665.09 473.87 717.11 474.02 C 717.37 475.55 717.80 477.06 718.25 478.56 C 718.63 485.55 718.55 492.58 718.12 499.58 C 716.51 495.28 716.99 490.65 716.69 486.17 C 666.12 485.86 615.54 486.16 564.97 486.04 C 563.31 485.82 562.16 487.04 560.96 487.93 C 558.94 483.57 555.56 480.04 551.81 477.10 L 553.18 476.98 C 552.22 476.04 551.25 475.11 550.29 474.20 Z" />
</g>
<g id="#6a305bff">
<path fill="#6a305b" opacity="1.00" d=" M 828.41 477.59 C 830.59 477.24 832.79 476.95 835.02 476.93 C 857.36 477.03 879.70 476.99 902.04 476.97 C 918.14 476.80 934.25 477.25 950.34 476.70 L 950.70 476.68 C 954.66 482.53 959.21 487.96 963.29 493.73 C 933.89 494.38 904.47 493.84 875.05 494.06 C 863.20 494.20 851.33 493.62 839.48 494.27 L 839.25 494.29 C 835.77 488.64 831.84 483.27 828.41 477.59 Z" />
</g>
<g id="#743059ff">
<path fill="#743059" opacity="1.00" d=" M 479.47 481.91 C 491.76 481.82 504.05 481.87 516.35 481.93 C 516.43 483.11 516.51 484.30 516.60 485.49 C 513.64 490.79 512.70 496.87 513.42 502.87 C 513.32 503.29 513.11 504.13 513.01 504.56 C 499.91 503.66 486.76 504.37 473.64 504.11 C 475.56 496.70 477.50 489.30 479.47 481.91 Z" />
</g>
<g id="#753058ff">
<path fill="#753058" opacity="1.00" d=" M 560.96 487.93 C 562.16 487.04 563.31 485.82 564.97 486.04 C 615.54 486.16 666.12 485.86 716.69 486.17 C 716.99 490.65 716.51 495.28 718.12 499.58 C 718.21 500.02 718.38 500.92 718.47 501.36 C 697.47 501.74 676.47 502.46 655.47 502.65 C 637.69 504.11 619.83 503.04 602.05 504.31 C 588.84 504.63 575.63 504.55 562.43 505.00 C 563.78 499.30 563.18 493.33 560.96 487.93 Z" />
</g>
<g id="#7a3057ff">
<path fill="#7a3057" opacity="1.00" d=" M 110.40 489.00 C 197.94 489.05 285.49 489.03 373.03 489.04 C 390.86 488.89 408.70 489.33 426.51 488.71 L 426.71 488.70 C 427.74 490.44 428.90 492.10 429.92 493.86 C 431.92 498.07 434.02 502.23 435.74 506.56 C 434.38 506.48 433.45 505.52 432.57 504.62 C 418.05 505.57 403.47 504.89 388.93 505.06 C 296.08 505.05 203.24 505.16 110.40 505.00 C 110.38 499.66 110.40 494.33 110.40 489.00 Z" />
</g>
<g id="#7f3156ff">
<path fill="#7f3156" opacity="1.00" d=" M 985.77 493.03 C 1022.52 493.14 1059.28 493.02 1096.04 493.05 C 1100.77 493.09 1105.60 492.56 1110.23 493.92 C 1106.52 502.17 1102.47 510.27 1098.61 518.45 C 1098.48 516.65 1098.52 514.84 1098.65 513.04 C 1060.89 512.73 1023.12 512.93 985.36 512.93 C 985.48 506.29 985.63 499.66 985.77 493.03 Z" />
</g>
<g id="#803156ff">
<path fill="#803156" opacity="1.00" d=" M 839.48 494.27 C 851.33 493.62 863.20 494.20 875.05 494.06 C 904.47 493.84 933.89 494.38 963.29 493.73 C 967.99 500.00 972.94 506.10 977.32 512.60 C 963.21 513.33 949.06 512.71 934.93 512.91 C 909.29 512.90 883.64 512.98 858.00 512.85 C 856.04 512.84 854.13 513.29 852.25 513.74 C 847.97 507.27 843.54 500.89 839.48 494.27 Z" />
</g>
<g id="#933251ff">
<path fill="#933251" opacity="1.00" d=" M 513.42 502.87 C 514.55 506.65 515.90 510.46 518.26 513.67 C 523.21 520.37 531.65 524.52 540.02 523.69 C 549.12 523.17 556.91 516.95 561.10 509.10 C 564.64 512.89 568.19 516.67 571.68 520.52 C 573.58 522.56 575.58 524.51 577.37 526.66 C 549.25 527.41 521.10 526.71 492.96 527.02 C 484.53 526.95 476.10 527.11 467.67 526.93 C 469.64 519.32 471.65 511.72 473.64 504.11 C 486.76 504.37 499.91 503.66 513.01 504.56 C 513.11 504.13 513.32 503.29 513.42 502.87 Z" />
</g>
<g id="#8f3152ff">
<path fill="#8f3152" opacity="1.00" d=" M 388.93 505.06 C 403.47 504.89 418.05 505.57 432.57 504.62 C 433.45 505.52 434.38 506.48 435.74 506.56 C 438.32 512.39 439.93 518.58 441.30 524.79 C 441.18 525.54 440.92 527.04 440.80 527.79 C 440.13 527.18 439.48 526.57 438.82 525.96 C 410.89 525.79 382.95 525.98 355.01 525.88 C 341.99 526.05 328.96 525.62 315.94 526.10 C 318.04 527.85 320.40 529.60 320.97 532.47 C 317.63 529.41 313.92 526.57 309.51 525.30 C 301.91 522.90 293.34 524.54 287.03 529.36 C 286.82 528.54 286.62 527.72 286.42 526.90 C 280.60 526.66 274.78 526.83 268.97 526.72 C 266.46 526.62 264.00 527.13 261.64 527.92 C 253.41 521.35 245.40 514.51 237.11 508.03 C 236.95 513.25 236.92 518.47 236.79 523.69 C 236.41 525.10 235.98 526.50 235.57 527.91 C 235.27 526.63 234.98 525.35 234.69 524.09 C 193.27 523.72 151.83 524.01 110.39 523.94 C 110.37 517.62 110.41 511.31 110.40 505.00 C 203.24 505.16 296.08 505.05 388.93 505.06 Z" />
</g>
<g id="#943251ff">
<path fill="#943251" opacity="1.00" d=" M 852.25 513.74 C 854.13 513.29 856.04 512.84 858.00 512.85 C 883.64 512.98 909.29 512.90 934.93 512.91 C 949.06 512.71 963.21 513.33 977.32 512.60 L 977.69 512.57 C 980.12 516.05 982.56 519.54 985.39 522.72 C 985.20 519.45 985.24 516.19 985.36 512.93 C 1023.12 512.93 1060.89 512.73 1098.65 513.04 C 1098.52 514.84 1098.48 516.65 1098.61 518.45 C 1097.19 521.64 1095.67 524.77 1094.24 527.95 C 1092.97 527.06 1091.76 525.81 1090.09 526.02 C 1018.73 526.06 947.36 526.03 876.00 526.06 C 870.87 525.97 865.73 525.85 860.63 526.40 C 857.79 522.21 855.02 517.97 852.25 513.74 Z" />
</g>
<g id="#a4324dff">
<path fill="#a4324d" opacity="1.00" d=" M 110.39 523.94 C 151.83 524.01 193.27 523.72 234.69 524.09 C 234.98 525.35 235.27 526.63 235.57 527.91 C 235.98 526.50 236.41 525.10 236.79 523.69 C 237.01 527.69 237.10 531.69 236.83 535.69 C 236.43 538.08 236.00 540.47 235.63 542.87 C 235.27 541.98 234.91 541.10 234.55 540.23 C 193.18 539.72 151.78 540.26 110.40 539.96 C 110.37 534.62 110.41 529.28 110.39 523.94 Z" />
<path fill="#a4324d" opacity="1.00" d=" M 261.64 527.92 C 264.00 527.13 266.46 526.62 268.97 526.72 C 274.78 526.83 280.60 526.66 286.42 526.90 C 286.62 527.72 286.82 528.54 287.03 529.36 C 283.09 532.54 280.09 536.80 278.42 541.57 C 272.73 537.14 267.03 532.71 261.64 527.92 Z" />
</g>
<g id="#efed99ff">
<path fill="#efed99" opacity="1.00" d=" M 287.03 529.36 C 293.34 524.54 301.91 522.90 309.51 525.30 C 313.92 526.57 317.63 529.41 320.97 532.47 C 323.62 536.23 325.99 540.27 326.82 544.86 C 327.60 549.53 327.06 554.34 325.49 558.79 C 323.57 563.44 320.24 567.31 316.39 570.49 C 312.24 572.66 307.84 574.70 303.04 574.68 C 292.53 575.23 282.43 568.16 278.83 558.36 C 277.55 554.84 277.12 551.08 277.32 547.36 C 277.56 545.40 277.94 543.47 278.42 541.57 C 280.09 536.80 283.09 532.54 287.03 529.36 Z" />
<path fill="#efed99" opacity="1.00" d=" M 278.57 707.44 C 282.15 697.07 292.85 689.58 303.90 690.57 C 315.73 691.12 325.96 701.26 327.03 712.98 C 328.12 721.96 323.88 731.31 316.46 736.47 C 308.57 742.21 297.19 742.45 289.00 737.17 C 284.08 734.10 280.41 729.22 278.52 723.76 C 277.38 720.26 277.07 716.53 277.43 712.88 C 277.70 711.04 278.09 709.22 278.57 707.44 Z" />
</g>
<g id="#a8334cff">
<path fill="#a8334c" opacity="1.00" d=" M 441.30 524.79 C 442.24 528.72 442.92 532.71 443.32 536.73 C 443.13 539.74 442.90 542.75 442.80 545.78 C 442.16 545.16 441.53 544.54 440.90 543.94 C 405.62 543.88 370.34 543.97 335.06 543.90 C 332.28 543.87 329.53 544.28 326.82 544.86 C 325.99 540.27 323.62 536.23 320.97 532.47 C 320.40 529.60 318.04 527.85 315.94 526.10 C 328.96 525.62 341.99 526.05 355.01 525.88 C 382.95 525.98 410.89 525.79 438.82 525.96 C 439.48 526.57 440.13 527.18 440.80 527.79 C 440.92 527.04 441.18 525.54 441.30 524.79 Z" />
<path fill="#a8334c" opacity="1.00" d=" M 467.67 526.93 C 476.10 527.11 484.53 526.95 492.96 527.02 C 521.10 526.71 549.25 527.41 577.37 526.66 C 581.94 531.12 586.13 535.96 590.56 540.58 C 587.05 540.98 583.53 541.18 580.01 541.10 C 541.33 541.00 502.65 541.12 463.97 541.03 C 465.18 536.32 466.44 531.63 467.67 526.93 Z" />
</g>
<g id="#a6324dff">
<path fill="#a6324d" opacity="1.00" d=" M 860.63 526.40 C 865.73 525.85 870.87 525.97 876.00 526.06 C 947.36 526.03 1018.73 526.06 1090.09 526.02 C 1091.76 525.81 1092.97 527.06 1094.24 527.95 C 1092.09 533.00 1089.42 537.81 1087.23 542.83 C 1081.65 541.13 1075.78 542.14 1070.06 541.90 C 1048.46 541.71 1026.84 542.24 1005.25 541.66 L 1004.48 541.61 C 1004.20 541.59 1003.63 541.55 1003.34 541.53 C 1002.04 539.57 1000.56 537.34 998.06 536.94 C 991.36 535.62 985.04 539.21 979.65 542.73 C 973.49 541.65 967.21 542.06 960.99 542.05 C 939.64 542.06 918.30 542.00 896.95 542.07 C 888.46 542.27 879.91 541.52 871.47 542.57 L 871.27 542.59 C 867.80 537.15 864.15 531.82 860.63 526.40 Z" />
</g>
<g id="#bb3447ff">
<path fill="#bb3447" opacity="1.00" d=" M 235.63 542.87 C 236.00 540.47 236.43 538.08 236.83 535.69 C 237.64 543.08 236.62 550.50 236.96 557.90 C 236.63 558.27 235.97 559.00 235.63 559.37 C 208.10 558.63 180.53 559.32 152.98 558.98 C 138.78 559.12 124.59 558.91 110.40 559.08 C 110.37 552.71 110.41 546.33 110.40 539.96 C 151.78 540.26 193.18 539.72 234.55 540.23 C 234.91 541.10 235.27 541.98 235.63 542.87 Z" />
</g>
<g id="#bd3447ff">
<path fill="#bd3447" opacity="1.00" d=" M 443.32 536.73 C 444.65 543.74 443.90 550.87 444.00 557.95 C 443.66 558.31 442.98 559.04 442.64 559.40 C 436.13 558.56 429.55 559.02 423.01 558.92 C 390.50 558.83 357.99 559.16 325.49 558.79 C 327.06 554.34 327.60 549.53 326.82 544.86 C 329.53 544.28 332.28 543.87 335.06 543.90 C 370.34 543.97 405.62 543.88 440.90 543.94 C 441.53 544.54 442.16 545.16 442.80 545.78 C 442.90 542.75 443.13 539.74 443.32 536.73 Z" />
</g>
<g id="#315b16ff">
<path fill="#315b16" opacity="1.00" d=" M 979.65 542.73 C 985.04 539.21 991.36 535.62 998.06 536.94 C 1000.56 537.34 1002.04 539.57 1003.34 541.53 C 1004.39 548.44 1000.66 554.75 996.68 560.05 C 990.79 567.07 983.13 573.27 973.98 575.20 C 970.21 576.09 965.35 575.20 963.66 571.30 C 961.75 566.53 964.08 561.50 966.15 557.21 C 969.74 551.62 974.25 546.62 979.65 542.73 Z" />
<path fill="#315b16" opacity="1.00" d=" M 949.44 684.30 C 951.89 674.05 961.35 665.89 971.93 665.32 C 980.03 664.66 988.26 668.46 993.20 674.87 C 1001.16 684.61 1000.11 700.31 990.81 708.82 C 985.60 714.16 977.96 716.05 970.69 715.70 L 969.76 715.50 C 955.58 713.56 945.54 698.05 949.44 684.30 Z" />
</g>
<g id="#ba3447ff">
<path fill="#ba3447" opacity="1.00" d=" M 463.97 541.03 C 502.65 541.12 541.33 541.00 580.01 541.10 C 583.53 541.18 587.05 540.98 590.56 540.58 C 596.55 546.87 602.49 553.22 608.42 559.57 C 600.62 560.47 592.77 559.69 584.95 560.03 C 576.82 559.77 568.67 560.42 560.55 559.81 C 559.77 558.22 560.12 555.44 557.93 555.08 C 555.62 554.65 553.27 554.78 550.95 554.78 C 538.35 554.96 525.74 554.63 513.14 554.97 C 512.80 555.28 512.11 555.90 511.76 556.21 C 511.66 556.32 511.45 556.55 511.34 556.66 C 510.68 557.64 510.19 558.70 509.89 559.86 C 492.95 559.80 476.00 559.90 459.05 559.86 C 460.64 553.57 462.35 547.31 463.97 541.03 Z" />
</g>
<g id="#c13446ff">
<path fill="#c13446" opacity="1.00" d=" M 1003.34 541.53 C 1003.63 541.55 1004.20 541.59 1004.48 541.61 L 1005.25 541.66 C 1005.18 544.05 1005.13 546.44 1005.11 548.84 C 1030.57 549.43 1056.06 548.71 1081.54 549.20 C 1081.95 550.20 1082.38 551.21 1082.82 552.23 C 1081.25 555.42 1079.68 558.61 1078.28 561.88 C 1074.24 560.95 1070.08 561.06 1065.97 561.17 C 1044.31 561.12 1022.64 561.24 1000.98 561.15 C 999.48 561.08 998.08 560.47 996.68 560.05 C 1000.66 554.75 1004.39 548.44 1003.34 541.53 Z" />
</g>
<g id="#bc3447ff">
<path fill="#bc3447" opacity="1.00" d=" M 871.47 542.57 C 879.91 541.52 888.46 542.27 896.95 542.07 C 918.30 542.00 939.64 542.06 960.99 542.05 C 967.21 542.06 973.49 541.65 979.65 542.73 C 974.25 546.62 969.74 551.62 966.15 557.21 L 965.86 555.60 C 963.64 557.81 962.93 562.55 959.04 561.99 C 944.03 562.00 929.02 561.95 914.01 562.01 C 904.25 562.15 894.46 561.58 884.72 562.39 L 884.30 562.42 C 880.25 555.65 875.52 549.32 871.47 542.57 Z" />
</g>
<g id="#b43349ff">
<path fill="#b43349" opacity="1.00" d=" M 1005.25 541.66 C 1026.84 542.24 1048.46 541.71 1070.06 541.90 C 1075.78 542.14 1081.65 541.13 1087.23 542.83 C 1085.88 546.02 1084.38 549.14 1082.82 552.23 C 1082.38 551.21 1081.95 550.20 1081.54 549.20 C 1056.06 548.71 1030.57 549.43 1005.11 548.84 C 1005.13 546.44 1005.18 544.05 1005.25 541.66 Z" />
</g>
<g id="#d43541ff">
<path fill="#d43541" opacity="1.00" d=" M 511.76 556.21 C 512.11 555.90 512.80 555.28 513.14 554.97 C 525.74 554.63 538.35 554.96 550.95 554.78 C 553.27 554.78 555.62 554.65 557.93 555.08 C 560.12 555.44 559.77 558.22 560.55 559.81 C 568.67 560.42 576.82 559.77 584.95 560.03 C 592.77 559.69 600.62 560.47 608.42 559.57 C 614.40 565.95 620.49 572.23 626.34 578.73 C 614.56 579.33 602.77 578.82 590.99 579.03 C 580.92 578.84 570.83 579.31 560.78 578.76 C 559.84 577.58 558.87 576.44 557.86 575.36 C 557.76 568.98 557.84 562.60 557.83 556.23 C 542.48 556.27 527.12 556.29 511.76 556.21 Z" />
<path fill="#d43541" opacity="1.00" d=" M 235.63 559.37 C 235.97 559.00 236.63 558.27 236.96 557.90 C 237.26 565.17 236.86 572.43 237.00 579.70 C 235.02 579.31 233.03 578.94 231.01 578.93 C 190.81 579.04 150.60 578.92 110.39 578.99 C 110.37 572.35 110.41 565.72 110.40 559.08 C 124.59 558.91 138.78 559.12 152.98 558.98 C 180.53 559.32 208.10 558.63 235.63 559.37 Z" />
</g>
<g id="#060606ff">
<path fill="#060606" opacity="1.00" d=" M 511.34 556.66 C 511.45 556.55 511.66 556.32 511.76 556.21 C 527.12 556.29 542.48 556.27 557.83 556.23 C 557.84 562.60 557.76 568.98 557.86 575.36 C 557.80 579.10 557.81 582.85 557.83 586.60 C 557.83 592.01 557.75 597.43 557.86 602.85 C 572.54 602.76 587.21 602.80 601.89 602.83 C 601.95 605.01 602.05 607.20 602.09 609.40 C 601.75 615.01 601.91 620.64 602.04 626.26 C 601.86 638.61 601.75 650.99 602.09 663.34 C 602.07 663.72 602.01 664.48 601.99 664.86 C 627.58 664.92 653.18 664.61 678.76 665.01 C 678.68 678.43 678.75 691.86 678.68 705.28 C 700.26 705.23 721.84 705.28 743.42 705.26 C 743.46 705.95 743.49 706.66 743.52 707.37 C 743.50 732.57 743.54 757.77 743.50 782.97 C 736.06 787.92 729.32 793.85 722.15 799.19 C 710.71 808.08 699.25 816.94 687.83 825.85 C 609.34 825.14 530.85 824.36 452.36 823.62 C 445.98 823.61 439.59 823.62 433.21 823.54 C 433.21 823.26 433.21 822.69 433.20 822.40 C 454.09 786.35 475.02 750.32 495.95 714.30 C 540.33 724.50 584.77 734.40 629.12 744.72 C 629.55 744.84 630.41 745.09 630.85 745.21 C 624.86 757.15 629.89 773.13 641.98 779.02 C 649.06 782.70 657.96 782.63 664.97 778.81 C 671.95 775.08 676.92 767.90 677.99 760.06 C 679.22 751.94 676.12 743.37 670.07 737.84 C 664.77 732.82 657.17 730.47 649.95 731.48 C 642.48 732.36 635.79 737.04 631.90 743.42 C 630.15 741.77 628.43 740.10 626.75 738.40 C 586.22 696.82 545.56 655.36 504.96 613.84 C 501.48 610.25 497.99 606.68 494.42 603.19 C 500.06 602.31 505.79 602.93 511.47 602.90 C 511.57 597.28 511.50 591.67 511.48 586.06 C 511.42 576.26 511.51 566.46 511.34 556.66 Z" />
<path fill="#060606" opacity="1.00" d=" M 375.44 569.93 C 397.96 569.73 420.47 569.91 442.99 569.84 C 441.13 584.35 436.30 598.74 427.41 610.48 C 419.35 621.27 407.86 629.40 394.95 633.26 C 403.31 634.66 411.08 638.66 417.31 644.37 C 423.18 649.43 427.68 655.91 431.22 662.75 C 440.55 681.38 443.38 702.45 444.08 723.05 C 444.80 741.74 442.56 761.09 433.89 777.91 C 427.06 791.37 416.04 802.53 402.92 809.93 C 387.77 818.51 370.38 822.91 353.02 823.42 C 275.76 823.44 198.50 823.39 121.24 823.45 C 117.57 823.47 113.88 823.70 110.22 823.28 C 110.59 791.07 110.26 758.84 110.39 726.62 C 125.21 726.66 140.04 726.49 154.86 726.71 C 155.00 712.47 154.86 698.23 154.86 683.99 C 182.22 683.76 209.58 683.94 236.94 683.90 C 236.93 708.08 236.91 732.26 236.93 756.44 C 241.31 753.47 244.96 749.42 249.92 747.39 L 250.07 746.05 C 259.62 738.70 269.01 731.16 278.52 723.76 C 280.41 729.22 284.08 734.10 289.00 737.17 C 297.19 742.45 308.57 742.21 316.46 736.47 C 323.88 731.31 328.12 721.96 327.03 712.98 C 325.96 701.26 315.73 691.12 303.90 690.57 C 292.85 689.58 282.15 697.07 278.57 707.44 C 268.79 699.12 258.78 691.09 248.91 682.87 C 249.00 672.17 248.86 661.47 248.88 650.77 C 248.95 641.89 248.94 633.01 248.78 624.14 C 273.79 624.26 298.80 624.18 323.81 624.19 C 323.82 625.31 323.83 626.45 323.84 627.59 C 323.76 632.59 323.75 637.59 323.82 642.59 C 323.78 647.57 323.71 652.56 323.84 657.54 C 323.78 662.80 323.75 668.05 323.78 673.31 C 323.78 673.83 323.78 674.85 323.78 675.36 C 341.03 675.36 358.28 675.32 375.53 675.39 C 375.47 670.53 375.46 665.68 375.50 660.83 C 375.56 639.58 375.42 618.32 375.47 597.07 C 375.51 588.02 375.50 578.97 375.44 569.93 Z" />
<path fill="#060606" opacity="1.00" d=" M 893.50 569.80 C 913.97 569.83 934.45 569.79 954.93 569.82 C 954.88 575.35 954.83 580.88 955.03 586.41 C 954.76 592.35 954.93 598.30 954.93 604.25 C 954.84 609.13 954.91 614.02 954.89 618.92 L 954.89 620.44 C 968.34 620.48 981.78 620.46 995.23 620.46 L 995.23 618.87 C 995.22 613.52 995.25 608.18 995.16 602.84 C 1006.74 602.66 1018.32 602.88 1029.90 602.74 C 1029.61 609.01 1029.66 615.30 1029.87 621.57 C 1029.70 638.87 1029.68 656.18 1029.84 673.48 C 1029.68 684.08 1029.81 694.68 1029.74 705.28 C 1041.90 705.25 1054.06 705.26 1066.22 705.27 C 1066.22 704.76 1066.22 703.75 1066.22 703.24 C 1066.20 697.33 1066.25 691.42 1066.12 685.51 C 1066.32 679.89 1066.19 674.26 1066.13 668.64 C 1066.24 664.47 1066.22 660.31 1066.18 656.15 C 1076.15 669.49 1086.28 682.77 1095.91 696.35 C 1095.86 716.27 1095.88 736.20 1095.89 756.13 C 1110.73 756.12 1125.58 756.17 1140.43 756.10 C 1143.16 759.63 1145.76 763.26 1148.45 766.84 C 1148.41 772.04 1147.95 777.23 1147.90 782.44 C 1147.52 788.17 1147.46 793.93 1147.11 799.67 C 1146.45 809.07 1146.35 818.51 1145.73 827.92 C 1117.80 827.90 1089.88 827.88 1061.96 827.93 C 1060.62 827.92 1059.11 827.89 1058.39 826.60 C 1029.12 789.66 1000.08 752.53 970.69 715.70 C 977.96 716.05 985.60 714.16 990.81 708.82 C 1000.11 700.31 1001.16 684.61 993.20 674.87 C 988.26 668.46 980.03 664.66 971.93 665.32 C 961.35 665.89 951.89 674.05 949.44 684.30 C 945.54 698.05 955.58 713.56 969.76 715.50 C 969.79 752.27 969.71 789.04 969.81 825.82 C 920.13 825.87 870.45 825.78 820.77 825.86 C 813.51 825.94 806.25 825.87 798.99 825.92 C 843.70 762.59 888.63 699.43 933.30 636.07 C 919.96 616.22 906.75 596.26 893.66 576.25 C 893.52 574.10 893.51 571.95 893.50 569.80 Z" />
</g>
<g id="#d63542ff">
<path fill="#d63542" opacity="1.00" d=" M 959.04 561.99 C 962.93 562.55 963.64 557.81 965.86 555.60 L 966.15 557.21 C 964.08 561.50 961.75 566.53 963.66 571.30 C 965.35 575.20 970.21 576.09 973.98 575.20 C 983.13 573.27 990.79 567.07 996.68 560.05 C 998.08 560.47 999.48 561.08 1000.98 561.15 C 1022.64 561.24 1044.31 561.12 1065.97 561.17 C 1070.08 561.06 1074.24 560.95 1078.28 561.88 C 1075.15 568.80 1071.99 575.71 1068.69 582.55 C 1067.59 582.84 1066.54 583.28 1065.55 583.78 C 1041.05 584.39 1016.52 583.78 992.01 584.07 C 980.46 583.83 968.90 584.28 957.36 583.87 C 957.09 582.60 956.83 581.34 956.58 580.08 C 956.09 582.19 955.54 584.30 955.03 586.41 C 954.83 580.88 954.88 575.35 954.93 569.82 C 934.45 569.79 913.97 569.83 893.50 569.80 C 893.51 571.95 893.52 574.10 893.66 576.25 C 890.64 571.65 887.37 567.20 884.72 562.39 C 894.46 561.58 904.25 562.15 914.01 562.01 C 929.02 561.95 944.03 562.00 959.04 561.99 Z" />
</g>
<g id="#f7404dff">
<path fill="#f7404d" opacity="1.00" d=" M 509.89 559.86 C 510.19 558.70 510.68 557.64 511.34 556.66 C 511.51 566.46 511.42 576.26 511.48 586.06 L 509.91 586.12 C 509.91 583.75 509.86 581.39 509.87 579.03 C 509.89 575.03 510.08 571.04 510.11 567.05 C 510.12 564.65 509.98 562.25 509.89 559.86 Z" />
</g>
<g id="#ce3443ff">
<path fill="#ce3443" opacity="1.00" d=" M 442.64 559.40 C 442.98 559.04 443.66 558.31 444.00 557.95 C 444.17 561.94 443.60 565.90 442.99 569.84 C 420.47 569.91 397.96 569.73 375.44 569.93 L 374.20 569.95 C 360.48 569.94 346.76 569.96 333.04 570.01 C 327.48 570.21 321.88 569.22 316.39 570.49 C 320.24 567.31 323.57 563.44 325.49 558.79 C 357.99 559.16 390.50 558.83 423.01 558.92 C 429.55 559.02 436.13 558.56 442.64 559.40 Z" />
</g>
<g id="#d93641ff">
<path fill="#d93641" opacity="1.00" d=" M 252.71 578.79 C 261.42 571.98 270.04 565.05 278.83 558.36 C 282.43 568.16 292.53 575.23 303.04 574.68 C 307.84 574.70 312.24 572.66 316.39 570.49 C 321.88 569.22 327.48 570.21 333.04 570.01 C 346.76 569.96 360.48 569.94 374.20 569.95 C 374.14 572.98 374.07 576.00 374.03 579.04 C 344.00 579.07 313.98 578.94 283.96 579.07 C 273.54 578.83 263.12 579.32 252.71 578.79 Z" />
</g>
<g id="#cb3443ff">
<path fill="#cb3443" opacity="1.00" d=" M 459.05 559.86 C 476.00 559.90 492.95 559.80 509.89 559.86 C 509.98 562.25 510.12 564.65 510.11 567.05 C 493.24 567.24 476.34 566.58 459.48 567.38 C 458.82 566.65 458.16 565.94 457.52 565.23 C 458.04 563.44 458.57 561.66 459.05 559.86 Z" />
</g>
<g id="#d83541ff">
<path fill="#d83541" opacity="1.00" d=" M 459.48 567.38 C 476.34 566.58 493.24 567.24 510.11 567.05 C 510.08 571.04 509.89 575.03 509.87 579.03 C 497.59 579.30 485.31 578.92 473.04 579.18 C 473.13 576.14 473.03 573.11 472.72 570.10 L 471.59 569.92 C 468.45 569.71 465.30 569.86 462.16 569.84 C 461.15 569.15 460.34 568.22 459.48 567.38 Z" />
</g>
<g id="#fc4c4dff">
<path fill="#fc4c4d" opacity="1.00" d=" M 374.20 569.95 L 375.44 569.93 C 375.50 578.97 375.51 588.02 375.47 597.07 L 374.27 597.16 C 374.14 594.78 373.99 592.40 373.94 590.02 C 373.91 586.35 373.99 582.69 374.03 579.04 C 374.07 576.00 374.14 572.98 374.20 569.95 Z" />
</g>
<g id="#000404ff">
<path fill="#000404" opacity="1.00" d=" M 462.16 569.84 C 465.30 569.86 468.45 569.71 471.59 569.92 C 471.57 573.18 471.59 576.44 471.58 579.70 C 470.03 578.17 469.09 576.03 467.18 574.90 C 465.16 573.60 463.64 571.70 462.16 569.84 Z" />
</g>
<g id="#fb3f4bff">
<path fill="#fb3f4b" opacity="1.00" d=" M 471.59 569.92 L 472.72 570.10 C 473.03 573.11 473.13 576.14 473.04 579.18 L 471.58 579.70 C 471.59 576.44 471.57 573.18 471.59 569.92 Z" />
</g>
<g id="#df3042ff">
<path fill="#df3042" opacity="1.00" d=" M 467.18 574.90 C 469.09 576.03 470.03 578.17 471.58 579.70 C 478.64 587.22 485.96 594.48 493.13 601.90 C 493.45 602.22 494.10 602.87 494.42 603.19 C 497.99 606.68 501.48 610.25 504.96 613.84 C 504.52 614.46 503.66 615.70 503.22 616.31 C 491.61 604.58 480.20 592.65 468.54 580.97 C 469.69 578.59 468.67 576.74 467.18 574.90 Z" />
</g>
<g id="#da4344ff">
<path fill="#da4344" opacity="1.00" d=" M 557.86 575.36 C 558.87 576.44 559.84 577.58 560.78 578.76 C 570.83 579.31 580.92 578.84 590.99 579.03 C 602.77 578.82 614.56 579.33 626.34 578.73 C 630.24 582.50 633.79 586.65 637.56 590.56 C 630.39 591.36 623.17 590.93 615.97 591.03 C 601.32 591.15 586.67 590.87 572.03 591.08 C 568.42 591.03 564.79 591.35 561.22 590.79 C 559.88 589.57 558.90 588.03 557.83 586.60 C 557.81 582.85 557.80 579.10 557.86 575.36 Z" />
<path fill="#da4344" opacity="1.00" d=" M 110.39 578.99 C 150.60 578.92 190.81 579.04 231.01 578.93 C 233.03 578.94 235.02 579.31 237.00 579.70 C 237.04 583.54 237.07 587.38 236.98 591.22 C 236.54 590.35 236.11 589.48 235.69 588.61 C 234.25 589.43 232.74 590.22 231.03 590.07 C 190.82 589.99 150.61 590.07 110.40 590.04 C 110.39 586.35 110.40 582.67 110.39 578.99 Z" />
<path fill="#da4344" opacity="1.00" d=" M 248.74 582.01 C 250.07 580.94 251.38 579.85 252.71 578.79 C 263.12 579.32 273.54 578.83 283.96 579.07 C 313.98 578.94 344.00 579.07 374.03 579.04 C 373.99 582.69 373.91 586.35 373.94 590.02 C 330.20 590.05 286.45 590.11 242.70 589.95 C 242.42 589.10 242.15 588.25 241.87 587.41 C 244.21 585.67 246.54 583.93 248.74 582.01 Z" />
</g>
<g id="#da4745ff">
<path fill="#da4745" opacity="1.00" d=" M 471.58 579.70 L 473.04 579.18 C 485.31 578.92 497.59 579.30 509.87 579.03 C 509.86 581.39 509.91 583.75 509.91 586.12 C 509.83 590.97 509.60 595.83 509.67 600.69 C 504.18 601.13 498.27 599.39 493.13 601.90 C 485.96 594.48 478.64 587.22 471.58 579.70 Z" />
</g>
<g id="#c43445ff">
<path fill="#c43445" opacity="1.00" d=" M 718.59 579.08 C 761.37 579.16 804.15 579.08 846.93 579.12 C 846.92 584.16 846.84 589.21 847.01 594.25 C 845.96 593.00 844.95 591.36 843.05 591.78 C 801.55 591.93 760.05 591.70 718.55 591.85 C 718.55 587.59 718.51 583.33 718.59 579.08 Z" />
</g>
<g id="#da4c46ff">
<path fill="#da4c46" opacity="1.00" d=" M 955.03 586.41 C 955.54 584.30 956.09 582.19 956.58 580.08 C 956.83 581.34 957.09 582.60 957.36 583.87 C 968.90 584.28 980.46 583.83 992.01 584.07 C 1016.52 583.78 1041.05 584.39 1065.55 583.78 C 1066.54 583.28 1067.59 582.84 1068.69 582.55 C 1065.21 588.64 1063.15 595.40 1059.70 601.50 C 1057.55 601.90 1056.36 604.40 1054.01 604.06 C 1047.65 604.06 1041.29 604.19 1034.94 604.04 C 1033.00 604.16 1031.57 602.80 1030.06 601.86 C 1028.30 600.52 1026.00 600.85 1023.96 600.79 C 1015.62 600.87 1007.28 600.75 998.95 600.79 C 995.79 600.72 993.20 603.10 990.05 602.97 C 979.18 602.81 968.32 603.14 957.46 602.83 C 957.23 602.14 956.77 600.77 956.54 600.08 C 955.98 601.46 955.41 602.84 954.93 604.25 C 954.93 598.30 954.76 592.35 955.03 586.41 Z" />
</g>
<g id="#df564aff">
<path fill="#df564a" opacity="1.00" d=" M 509.91 586.12 L 511.48 586.06 C 511.50 591.67 511.57 597.28 511.47 602.90 C 505.79 602.93 500.06 602.31 494.42 603.19 C 494.10 602.87 493.45 602.22 493.13 601.90 C 498.27 599.39 504.18 601.13 509.67 600.69 C 509.60 595.83 509.83 590.97 509.91 586.12 Z" />
</g>
<g id="#db5348ff">
<path fill="#db5348" opacity="1.00" d=" M 557.83 586.60 C 558.90 588.03 559.88 589.57 561.22 590.79 C 564.79 591.35 568.42 591.03 572.03 591.08 C 586.67 590.87 601.32 591.15 615.97 591.03 C 623.17 590.93 630.39 591.36 637.56 590.56 C 642.95 596.19 648.24 601.89 653.56 607.58 C 646.74 608.34 639.87 607.90 633.02 608.07 C 623.48 607.92 613.93 608.34 604.39 607.91 C 604.09 606.28 603.81 604.66 603.53 603.05 C 603.06 605.16 602.55 607.27 602.09 609.40 C 602.05 607.20 601.95 605.01 601.89 602.83 C 587.21 602.80 572.54 602.76 557.86 602.85 C 557.75 597.43 557.83 592.01 557.83 586.60 Z" />
<path fill="#db5348" opacity="1.00" d=" M 231.03 590.07 C 232.74 590.22 234.25 589.43 235.69 588.61 C 236.11 589.48 236.54 590.35 236.98 591.22 C 238.60 589.94 240.22 588.65 241.87 587.41 C 242.15 588.25 242.42 589.10 242.70 589.95 C 286.45 590.11 330.20 590.05 373.94 590.02 C 373.99 592.40 374.14 594.78 374.27 597.16 C 374.40 599.79 374.38 602.41 374.35 605.05 C 286.37 604.97 198.38 605.09 110.40 605.00 C 110.38 600.01 110.40 595.03 110.40 590.04 C 150.61 590.07 190.82 589.99 231.03 590.07 Z" />
</g>
<g id="#d93841ff">
<path fill="#d93841" opacity="1.00" d=" M 718.55 591.85 C 760.05 591.70 801.55 591.93 843.05 591.78 C 844.95 591.36 845.96 593.00 847.01 594.25 C 846.94 595.39 846.89 596.54 846.86 597.70 C 838.27 598.48 829.63 598.09 821.02 598.19 C 786.86 598.14 752.71 598.20 718.55 598.14 C 718.54 596.04 718.54 593.94 718.55 591.85 Z" />
</g>
<g id="#ff8e5eff">
<path fill="#ff8e5e" opacity="1.00" d=" M 374.27 597.16 L 375.47 597.07 C 375.42 618.32 375.56 639.58 375.50 660.83 L 374.20 660.85 C 374.40 657.20 374.32 653.54 374.06 649.90 C 373.84 644.94 374.04 639.97 373.92 635.01 C 373.94 630.37 374.03 625.72 374.08 621.08 C 374.27 615.74 374.36 610.39 374.35 605.05 C 374.38 602.41 374.40 599.79 374.27 597.16 Z" />
</g>
<g id="#da4d46ff">
<path fill="#da4d46" opacity="1.00" d=" M 821.02 598.19 C 829.63 598.09 838.27 598.48 846.86 597.70 C 846.81 603.21 847.35 608.73 846.91 614.25 C 846.57 612.66 846.17 611.08 845.81 609.52 C 839.91 610.22 833.96 610.02 828.04 610.08 C 791.54 609.98 755.05 610.15 718.55 609.98 C 718.54 606.03 718.55 602.08 718.55 598.14 C 752.71 598.20 786.86 598.14 821.02 598.19 Z" />
</g>
<g id="#dc634cff">
<path fill="#dc634c" opacity="1.00" d=" M 954.93 604.25 C 955.41 602.84 955.98 601.46 956.54 600.08 C 956.77 600.77 957.23 602.14 957.46 602.83 C 968.32 603.14 979.18 602.81 990.05 602.97 C 993.20 603.10 995.79 600.72 998.95 600.79 C 1007.28 600.75 1015.62 600.87 1023.96 600.79 C 1026.00 600.85 1028.30 600.52 1030.06 601.86 L 1029.90 602.74 C 1018.32 602.88 1006.74 602.66 995.16 602.84 C 995.25 608.18 995.22 613.52 995.23 618.87 C 981.78 618.93 968.34 618.86 954.89 618.92 C 954.91 614.02 954.84 609.13 954.93 604.25 Z" />
</g>
<g id="#dc694dff">
<path fill="#dc694d" opacity="1.00" d=" M 1054.01 604.06 C 1056.36 604.40 1057.55 601.90 1059.70 601.50 C 1055.39 611.10 1050.35 620.43 1046.78 630.32 C 1046.59 631.12 1046.42 631.94 1046.27 632.76 C 1041.19 632.09 1035.35 634.22 1030.84 631.21 C 1031.01 627.96 1030.74 624.70 1029.87 621.57 C 1029.66 615.30 1029.61 609.01 1029.90 602.74 L 1030.06 601.86 C 1031.57 602.80 1033.00 604.16 1034.94 604.04 C 1041.29 604.19 1047.65 604.06 1054.01 604.06 Z" />
</g>
<g id="#dc6d4eff">
<path fill="#dc6d4e" opacity="1.00" d=" M 603.53 603.05 C 603.81 604.66 604.09 606.28 604.39 607.91 C 613.93 608.34 623.48 607.92 633.02 608.07 C 639.87 607.90 646.74 608.34 653.56 607.58 C 659.83 614.27 666.26 620.82 672.32 627.71 C 655.89 628.56 639.42 627.84 622.98 628.05 C 616.76 628.01 610.54 628.29 604.33 627.83 C 604.10 625.88 603.87 623.93 603.64 622.00 C 603.09 623.41 602.53 624.82 602.04 626.26 C 601.91 620.64 601.75 615.01 602.09 609.40 C 602.55 607.27 603.06 605.16 603.53 603.05 Z" />
</g>
<g id="#dc684dff">
<path fill="#dc684d" opacity="1.00" d=" M 110.40 605.00 C 198.38 605.09 286.37 604.97 374.35 605.05 C 374.36 610.39 374.27 615.74 374.08 621.08 C 286.19 620.82 198.29 621.13 110.40 620.96 C 110.38 615.64 110.40 610.32 110.40 605.00 Z" />
</g>
<g id="#dc6a4eff">
<path fill="#dc6a4e" opacity="1.00" d=" M 828.04 610.08 C 833.96 610.02 839.91 610.22 845.81 609.52 C 846.17 611.08 846.57 612.66 846.91 614.25 C 846.96 617.17 846.96 620.10 846.90 623.03 C 846.46 622.56 846.04 622.09 845.64 621.64 C 844.19 622.36 842.73 623.22 841.06 623.10 C 800.23 623.01 759.39 623.09 718.55 623.05 C 718.53 618.69 718.55 614.33 718.55 609.98 C 755.05 610.15 791.54 609.98 828.04 610.08 Z" />
</g>
<g id="#e23043ff">
<path fill="#e23043" opacity="1.00" d=" M 503.22 616.31 C 503.66 615.70 504.52 614.46 504.96 613.84 C 545.56 655.36 586.22 696.82 626.75 738.40 C 625.48 738.89 624.46 738.08 623.62 737.30 C 616.58 730.57 610.13 723.21 602.92 716.68 C 602.57 716.66 601.89 716.64 601.55 716.63 L 601.33 716.62 C 568.63 683.19 535.92 649.76 503.22 616.31 Z" />
</g>
<g id="#ff7e5aff">
<path fill="#ff7e5a" opacity="1.00" d=" M 954.89 618.92 C 968.34 618.86 981.78 618.93 995.23 618.87 L 995.23 620.46 C 981.78 620.46 968.34 620.48 954.89 620.44 L 954.89 618.92 Z" />
</g>
<g id="#dd7b52ff">
<path fill="#dd7b52" opacity="1.00" d=" M 110.40 620.96 C 198.29 621.13 286.19 620.82 374.08 621.08 C 374.03 625.72 373.94 630.37 373.92 635.01 C 358.11 634.89 342.30 635.27 326.49 634.90 C 325.90 632.36 325.09 629.88 323.84 627.59 C 323.83 626.45 323.82 625.31 323.81 624.19 C 298.80 624.18 273.79 624.26 248.78 624.14 C 248.46 624.46 247.83 625.10 247.51 625.41 C 246.81 629.18 247.03 633.05 246.76 636.87 C 201.31 637.08 155.85 636.98 110.40 636.96 C 110.38 631.62 110.40 626.29 110.40 620.96 Z" />
</g>
<g id="#de8c56ff">
<path fill="#de8c56" opacity="1.00" d=" M 845.64 621.64 C 846.04 622.09 846.46 622.56 846.90 623.03 C 846.70 629.78 847.35 636.53 846.83 643.27 C 846.50 640.63 846.17 637.99 846.02 635.34 C 844.75 635.97 843.52 636.89 842.05 636.88 C 800.89 636.88 759.72 636.83 718.55 636.90 C 718.53 632.28 718.56 627.66 718.55 623.05 C 759.39 623.09 800.23 623.01 841.06 623.10 C 842.73 623.22 844.19 622.36 845.64 621.64 Z" />
<path fill="#de8c56" opacity="1.00" d=" M 323.84 627.59 C 325.09 629.88 325.90 632.36 326.49 634.90 C 342.30 635.27 358.11 634.89 373.92 635.01 C 374.04 639.97 373.84 644.94 374.06 649.90 C 358.22 649.81 342.37 650.26 326.54 649.76 C 325.88 647.28 325.03 644.85 323.82 642.59 C 323.75 637.59 323.76 632.59 323.84 627.59 Z" />
</g>
<g id="#de8655ff">
<path fill="#de8655" opacity="1.00" d=" M 602.04 626.26 C 602.53 624.82 603.09 623.41 603.64 622.00 C 603.87 623.93 604.10 625.88 604.33 627.83 C 610.54 628.29 616.76 628.01 622.98 628.05 C 639.42 627.84 655.89 628.56 672.32 627.71 L 672.68 627.68 C 678.65 634.59 685.24 640.94 691.29 647.78 C 662.37 648.03 633.45 648.02 604.53 647.77 C 604.14 646.45 603.75 645.13 603.36 643.83 C 602.52 647.96 602.35 652.22 603.02 656.40 C 602.78 658.71 602.42 661.03 602.09 663.34 C 601.75 650.99 601.86 638.61 602.04 626.26 Z" />
</g>
<g id="#f19c5eff">
<path fill="#f19c5e" opacity="1.00" d=" M 1029.87 621.57 C 1030.74 624.70 1031.01 627.96 1030.84 631.21 C 1030.80 634.45 1030.83 637.70 1030.95 640.95 C 1031.01 646.47 1031.09 651.99 1031.22 657.52 C 1030.56 662.43 1030.81 667.38 1030.70 672.32 L 1029.84 673.48 C 1029.68 656.18 1029.70 638.87 1029.87 621.57 Z" />
</g>
<g id="#de8f57ff">
<path fill="#de8f57" opacity="1.00" d=" M 247.51 625.41 C 247.83 625.10 248.46 624.46 248.78 624.14 C 248.94 633.01 248.95 641.89 248.88 650.77 C 248.36 652.23 247.76 653.67 247.25 655.14 C 247.05 653.79 246.84 652.45 246.62 651.11 C 201.22 650.78 155.80 651.03 110.39 650.99 C 110.38 646.31 110.40 641.63 110.40 636.96 C 155.85 636.98 201.31 637.08 246.76 636.87 C 247.03 633.05 246.81 629.18 247.51 625.41 Z" />
</g>
<g id="#de8554ff">
<path fill="#de8554" opacity="1.00" d=" M 1030.84 631.21 C 1035.35 634.22 1041.19 632.09 1046.27 632.76 C 1046.42 631.94 1046.59 631.12 1046.78 630.32 C 1049.16 633.19 1051.53 636.09 1053.49 639.28 C 1053.51 640.94 1053.93 642.55 1054.54 644.09 C 1047.69 644.03 1040.83 644.29 1033.99 644.05 C 1032.31 644.10 1031.83 642.02 1030.95 640.95 C 1030.83 637.70 1030.80 634.45 1030.84 631.21 Z" />
</g>
<g id="#e0a75dff">
<path fill="#e0a75d" opacity="1.00" d=" M 842.05 636.88 C 843.52 636.89 844.75 635.97 846.02 635.34 C 846.17 637.99 846.50 640.63 846.83 643.27 C 846.85 643.69 846.89 644.53 846.91 644.94 C 807.73 644.92 768.56 644.98 729.38 644.91 C 725.77 644.88 722.16 644.89 718.56 644.91 C 718.53 642.23 718.54 639.56 718.55 636.90 C 759.72 636.83 800.89 636.88 842.05 636.88 Z" />
</g>
<g id="#df9759ff">
<path fill="#df9759" opacity="1.00" d=" M 1054.54 644.09 C 1053.93 642.55 1053.51 640.94 1053.49 639.28 C 1054.84 641.04 1056.24 642.78 1057.59 644.56 C 1060.46 648.41 1063.34 652.26 1066.18 656.15 C 1064.09 657.33 1063.95 659.72 1063.56 661.82 C 1053.23 662.00 1042.88 662.06 1032.56 661.80 C 1032.09 660.37 1031.62 658.95 1031.22 657.52 C 1031.09 651.99 1031.01 646.47 1030.95 640.95 C 1031.83 642.02 1032.31 644.10 1033.99 644.05 C 1040.83 644.29 1047.69 644.03 1054.54 644.09 Z" />
</g>
<g id="#df9f5bff">
<path fill="#df9f5b" opacity="1.00" d=" M 323.82 642.59 C 325.03 644.85 325.88 647.28 326.54 649.76 C 342.37 650.26 358.22 649.81 374.06 649.90 C 374.32 653.54 374.40 657.20 374.20 660.85 C 374.18 661.62 374.13 663.18 374.11 663.96 C 359.72 664.07 345.33 663.84 330.95 664.03 C 329.46 663.98 327.92 664.10 326.51 663.61 C 325.40 661.68 324.63 659.60 323.84 657.54 C 323.71 652.56 323.78 647.57 323.82 642.59 Z" />
</g>
<g id="#df9b5aff">
<path fill="#df9b5a" opacity="1.00" d=" M 603.02 656.40 C 602.35 652.22 602.52 647.96 603.36 643.83 C 603.75 645.13 604.14 646.45 604.53 647.77 C 633.45 648.02 662.37 648.03 691.29 647.78 C 696.35 653.05 701.47 658.30 706.29 663.80 C 699.54 664.44 692.77 664.00 686.02 664.21 C 681.91 664.48 678.01 662.89 673.95 662.74 C 650.80 662.83 627.65 662.85 604.51 662.71 C 604.20 660.56 603.70 658.45 603.02 656.40 Z" />
</g>
<g id="#df9e5bff">
<path fill="#df9e5b" opacity="1.00" d=" M 110.39 650.99 C 155.80 651.03 201.22 650.78 246.62 651.11 C 246.84 652.45 247.05 653.79 247.25 655.14 C 247.04 657.37 246.85 659.60 246.66 661.84 C 201.24 662.26 155.81 661.85 110.39 661.98 C 110.39 658.31 110.40 654.65 110.39 650.99 Z" />
</g>
<g id="#e0ac5eff">
<path fill="#e0ac5e" opacity="1.00" d=" M 247.25 655.14 C 247.76 653.67 248.36 652.23 248.88 650.77 C 248.86 661.47 249.00 672.17 248.91 682.87 C 244.88 679.83 241.20 676.34 237.09 673.40 C 237.06 676.39 236.95 679.37 236.88 682.36 C 236.40 679.34 236.31 676.27 235.70 673.28 C 234.95 671.93 233.31 672.09 232.01 671.99 C 191.47 672.10 150.93 671.92 110.40 672.08 C 110.39 668.71 110.40 665.34 110.39 661.98 C 155.81 661.85 201.24 662.26 246.66 661.84 C 246.85 659.60 247.04 657.37 247.25 655.14 Z" />
</g>
<g id="#e1b761ff">
<path fill="#e1b761" opacity="1.00" d=" M 603.02 656.40 C 603.70 658.45 604.20 660.56 604.51 662.71 C 627.65 662.85 650.80 662.83 673.95 662.74 C 678.01 662.89 681.91 664.48 686.02 664.21 C 692.77 664.00 699.54 664.44 706.29 663.80 L 706.57 663.78 C 713.90 672.04 721.79 679.78 729.13 688.03 C 713.24 687.68 697.33 688.13 681.44 687.83 C 680.93 686.78 680.44 685.73 679.97 684.68 C 679.50 678.24 679.71 671.79 679.55 665.35 L 678.76 665.01 C 653.18 664.61 627.58 664.92 601.99 664.86 C 602.01 664.48 602.07 663.72 602.09 663.34 C 602.42 661.03 602.78 658.71 603.02 656.40 Z" />
</g>
<g id="#e0ab5eff">
<path fill="#e0ab5e" opacity="1.00" d=" M 1063.56 661.82 C 1063.95 659.72 1064.09 657.33 1066.18 656.15 C 1066.22 660.31 1066.24 664.47 1066.13 668.64 C 1065.05 671.29 1064.14 674.00 1063.56 676.80 C 1055.71 677.28 1047.84 676.76 1039.98 676.99 C 1036.62 676.90 1032.03 677.95 1030.72 673.83 L 1030.70 672.32 C 1030.81 667.38 1030.56 662.43 1031.22 657.52 C 1031.62 658.95 1032.09 660.37 1032.56 661.80 C 1042.88 662.06 1053.23 662.00 1063.56 661.82 Z" />
</g>
<g id="#e0af5fff">
<path fill="#e0af5f" opacity="1.00" d=" M 323.84 657.54 C 324.63 659.60 325.40 661.68 326.51 663.61 C 327.92 664.10 329.46 663.98 330.95 664.03 C 345.33 663.84 359.72 664.07 374.11 663.96 C 374.11 667.24 374.03 670.53 373.80 673.82 C 360.20 673.93 346.60 673.72 333.00 673.90 C 329.91 673.97 326.83 673.75 323.78 673.31 C 323.75 668.05 323.78 662.80 323.84 657.54 Z" />
</g>
<g id="#ffce6eff">
<path fill="#ffce6e" opacity="1.00" d=" M 374.20 660.85 L 375.50 660.83 C 375.46 665.68 375.47 670.53 375.53 675.39 C 358.28 675.32 341.03 675.36 323.78 675.36 C 323.78 674.85 323.78 673.83 323.78 673.31 C 326.83 673.75 329.91 673.97 333.00 673.90 C 346.60 673.72 360.20 673.93 373.80 673.82 C 374.03 670.53 374.11 667.24 374.11 663.96 C 374.13 663.18 374.18 661.62 374.20 660.85 Z" />
</g>
<g id="#fbe672ff">
<path fill="#fbe672" opacity="1.00" d=" M 678.76 665.01 L 679.55 665.35 C 679.71 671.79 679.50 678.24 679.97 684.68 C 679.70 691.02 680.23 697.35 680.37 703.69 C 701.47 703.64 722.57 703.61 743.67 703.70 L 743.42 705.26 C 721.84 705.28 700.26 705.23 678.68 705.28 C 678.75 691.86 678.68 678.43 678.76 665.01 Z" />
</g>
<g id="#e1bf63ff">
<path fill="#e1bf63" opacity="1.00" d=" M 1063.56 676.80 C 1064.14 674.00 1065.05 671.29 1066.13 668.64 C 1066.19 674.26 1066.32 679.89 1066.12 685.51 C 1065.03 688.19 1064.15 690.94 1063.63 693.79 C 1054.08 694.03 1044.52 693.90 1034.97 693.93 C 1032.76 694.39 1031.79 692.49 1031.03 690.83 C 1030.60 685.17 1030.62 679.50 1030.72 673.83 C 1032.03 677.95 1036.62 676.90 1039.98 676.99 C 1047.84 676.76 1055.71 677.28 1063.56 676.80 Z" />
</g>
<g id="#e1ba62ff">
<path fill="#e1ba62" opacity="1.00" d=" M 110.40 672.08 C 150.93 671.92 191.47 672.10 232.01 671.99 C 233.31 672.09 234.95 671.93 235.70 673.28 C 236.31 676.27 236.40 679.34 236.88 682.36 C 236.89 682.75 236.93 683.52 236.94 683.90 C 209.58 683.94 182.22 683.76 154.86 683.99 C 154.42 684.06 153.54 684.19 153.11 684.26 C 153.00 685.85 152.95 687.44 152.95 689.05 C 138.77 688.75 124.58 688.96 110.39 688.90 C 110.37 683.29 110.40 677.68 110.40 672.08 Z" />
</g>
<g id="#f8e271ff">
<path fill="#f8e271" opacity="1.00" d=" M 1029.84 673.48 L 1030.70 672.32 L 1030.72 673.83 C 1030.62 679.50 1030.60 685.17 1031.03 690.83 C 1030.97 695.10 1030.92 699.38 1031.32 703.65 C 1042.95 703.46 1054.62 704.17 1066.22 703.24 C 1066.22 703.75 1066.22 704.76 1066.22 705.27 C 1054.06 705.26 1041.90 705.25 1029.74 705.28 C 1029.81 694.68 1029.68 684.08 1029.84 673.48 Z" />
</g>
<g id="#e3dd6bff">
<path fill="#e3dd6b" opacity="1.00" d=" M 153.11 684.26 C 153.54 684.19 154.42 684.06 154.86 683.99 C 154.86 698.23 155.00 712.47 154.86 726.71 C 140.04 726.49 125.21 726.66 110.39 726.62 C 110.39 718.73 110.40 710.84 110.39 702.96 C 124.49 702.81 138.59 703.17 152.67 702.80 C 152.99 698.22 153.07 693.63 152.95 689.05 C 152.95 687.44 153.00 685.85 153.11 684.26 Z" />
<path fill="#e3dd6b" opacity="1.00" d=" M 1095.91 696.35 C 1110.93 716.12 1125.54 736.22 1140.43 756.10 C 1125.58 756.17 1110.73 756.12 1095.89 756.13 C 1095.88 736.20 1095.86 716.27 1095.91 696.35 Z" />
<path fill="#e3dd6b" opacity="1.00" d=" M 1148.45 766.84 C 1161.10 784.10 1173.94 801.21 1186.67 818.41 C 1188.90 821.59 1191.51 824.53 1193.43 827.93 C 1177.53 827.85 1161.63 827.88 1145.73 827.92 C 1146.35 818.51 1146.45 809.07 1147.11 799.67 C 1147.52 800.23 1148.32 801.34 1148.72 801.89 C 1148.68 795.43 1150.37 788.63 1147.90 782.44 C 1147.95 777.23 1148.41 772.04 1148.45 766.84 M 1147.55 803.98 C 1146.84 810.03 1146.23 816.22 1147.24 822.28 C 1148.72 816.36 1148.32 809.99 1147.55 803.98 Z" />
</g>
<g id="#e2cf67ff">
<path fill="#e2cf67" opacity="1.00" d=" M 679.97 684.68 C 680.44 685.73 680.93 686.78 681.44 687.83 C 697.33 688.13 713.24 687.68 729.13 688.03 C 734.06 693.16 739.14 698.21 743.67 703.70 C 722.57 703.61 701.47 703.64 680.37 703.69 C 680.23 697.35 679.70 691.02 679.97 684.68 Z" />
</g>
<g id="#e2d168ff">
<path fill="#e2d168" opacity="1.00" d=" M 1063.63 693.79 C 1064.15 690.94 1065.03 688.19 1066.12 685.51 C 1066.25 691.42 1066.20 697.33 1066.22 703.24 C 1054.62 704.17 1042.95 703.46 1031.32 703.65 C 1030.92 699.38 1030.97 695.10 1031.03 690.83 C 1031.79 692.49 1032.76 694.39 1034.97 693.93 C 1044.52 693.90 1054.08 694.03 1063.63 693.79 Z" />
<path fill="#e2d168" opacity="1.00" d=" M 110.39 688.90 C 124.58 688.96 138.77 688.75 152.95 689.05 C 153.07 693.63 152.99 698.22 152.67 702.80 C 138.59 703.17 124.49 702.81 110.39 702.96 C 110.38 698.27 110.41 693.58 110.39 688.90 Z" />
</g>
<g id="#fe374bfe">
<path fill="#fe374b" opacity="1.00" d=" M 743.52 707.37 C 743.93 707.76 744.76 708.53 745.17 708.91 C 744.86 728.61 745.08 748.32 745.04 768.02 C 744.96 772.76 745.28 777.52 744.70 782.24 L 743.50 782.97 C 743.54 757.77 743.50 732.57 743.52 707.37 Z" />
</g>
<g id="#fcf878ff">
<path fill="#fcf878" opacity="1.00" d=" M 1147.90 782.44 C 1150.37 788.63 1148.68 795.43 1148.72 801.89 C 1148.32 801.34 1147.52 800.23 1147.11 799.67 C 1147.46 793.93 1147.52 788.17 1147.90 782.44 Z" />
</g>
<g id="#fdf978ff">
<path fill="#fdf978" opacity="1.00" d=" M 1147.55 803.98 C 1148.32 809.99 1148.72 816.36 1147.24 822.28 C 1146.23 816.22 1146.84 810.03 1147.55 803.98 Z" />
</g>
<g id="#fe384bff">
<path fill="#fe384b" opacity="1.00" d=" M 121.73 824.74 C 122.71 824.16 123.77 823.91 124.91 823.97 C 201.95 824.00 278.99 823.96 356.02 823.98 C 357.39 824.03 358.75 824.14 360.12 824.32 C 358.43 824.73 356.70 825.01 354.96 825.00 C 297.97 824.97 240.98 825.02 184.00 825.00 C 163.24 824.84 142.47 825.35 121.73 824.74 Z" />
</g>
</svg>
