<?xml version="1.0" encoding="UTF-8" ?>
<!DOCTYPE svg PUBLIC "-//W3C//DTD SVG 1.1//EN" "http://www.w3.org/Graphics/SVG/1.1/DTD/svg11.dtd">
<svg width="1276pt" height="1276pt" viewBox="0 0 1276 1276" version="1.1" xmlns="http://www.w3.org/2000/svg">
<g id="#644da4ff">
<path fill="#644da4" opacity="1.00" d=" M 468.28 177.38 C 478.45 176.61 488.74 177.28 498.96 177.06 C 542.31 177.05 585.66 177.08 629.01 177.04 C 630.95 176.94 632.93 177.27 634.51 178.48 C 696.51 218.45 751.47 268.53 800.78 323.19 C 846.82 374.51 888.03 430.14 924.02 488.94 C 948.72 529.55 971.13 571.66 989.20 615.66 C 996.39 633.41 1002.98 651.44 1007.94 669.95 C 1008.55 680.63 1008.07 691.38 1008.19 702.09 C 1008.49 704.98 1006.04 707.89 1003.03 707.48 C 1000.61 707.46 999.28 705.14 998.56 703.16 C 983.86 665.40 966.29 628.78 946.55 593.39 C 920.26 546.40 890.19 501.52 856.63 459.40 C 809.90 400.90 756.40 347.63 696.49 302.64 C 628.11 251.14 551.05 210.88 469.02 186.16 C 464.74 185.41 464.36 178.85 468.28 177.38 Z" />
<path fill="#644da4" opacity="1.00" d=" M 731.22 177.26 C 753.44 176.77 775.71 177.23 797.95 177.03 C 800.17 177.14 802.83 176.62 804.53 178.45 C 832.67 204.12 857.24 233.45 879.74 264.12 C 916.19 314.27 947.16 368.30 973.27 424.50 C 984.88 449.76 995.56 475.49 1004.30 501.89 C 1005.84 507.20 1008.45 512.37 1008.24 518.03 C 1008.15 532.70 1008.28 547.37 1008.18 562.03 C 1008.19 563.88 1007.46 565.88 1005.66 566.67 C 1003.22 568.38 999.72 566.59 999.03 563.87 C 981.11 514.77 957.37 467.97 930.82 423.01 C 897.58 367.24 859.47 314.25 815.88 266.08 C 789.52 237.10 761.14 209.86 730.14 185.87 C 726.67 183.92 727.18 178.07 731.22 177.26 Z" />
<path fill="#644da4" opacity="1.00" d=" M 892.22 177.36 C 902.43 176.64 912.74 177.26 922.99 177.06 C 949.70 177.07 976.41 177.03 1003.12 177.08 C 1005.50 176.83 1007.88 178.56 1008.09 181.01 C 1008.37 184.00 1008.17 187.01 1008.21 190.01 C 1008.22 260.33 1008.20 330.66 1008.22 400.98 C 1008.11 403.88 1008.59 406.90 1007.67 409.71 C 1006.18 413.14 1000.48 413.20 999.28 409.49 C 977.80 350.43 952.95 292.45 922.72 237.30 C 912.72 219.26 902.05 201.58 890.31 184.61 C 888.41 182.29 889.23 178.30 892.22 177.36 Z" />
<path fill="#644da4" opacity="1.00" d=" M 441.05 283.01 C 485.60 280.56 530.13 289.42 572.07 304.01 C 613.24 318.41 652.26 338.53 688.94 362.05 C 749.47 401.14 803.78 449.56 850.92 503.97 C 884.31 542.55 914.15 584.24 939.47 628.55 C 961.66 667.42 980.37 708.36 994.15 750.98 C 1008.44 795.51 1017.50 842.10 1016.90 889.01 C 1016.46 930.47 1007.92 972.71 986.73 1008.74 C 968.73 1039.67 940.79 1064.70 907.90 1078.89 C 867.90 1096.44 822.83 1099.07 779.97 1093.26 C 735.47 1087.14 692.52 1072.42 652.12 1053.07 C 613.17 1034.29 576.41 1011.13 542.03 984.93 C 498.81 952.00 459.30 914.26 423.79 873.16 C 376.15 817.77 335.60 756.05 305.61 689.36 C 286.16 645.81 271.24 600.04 263.78 552.86 C 256.96 508.57 256.59 462.57 268.60 419.11 C 277.03 388.71 292.06 359.80 314.13 337.07 C 332.20 318.41 354.67 304.16 379.08 295.36 C 398.93 288.02 419.97 284.27 441.05 283.01 M 442.73 472.82 C 430.74 478.36 421.43 489.00 417.23 501.49 C 411.47 518.37 412.73 536.74 416.02 553.99 C 419.60 571.97 425.86 589.39 434.24 605.67 C 437.96 612.53 441.78 619.58 447.74 624.80 C 463.13 617.80 480.76 618.69 497.05 621.49 C 532.34 628.18 565.93 645.13 591.11 670.91 C 603.05 682.81 613.39 696.48 620.84 711.64 C 630.17 711.20 639.18 706.29 644.53 698.62 C 651.87 688.36 654.46 675.50 654.81 663.10 C 655.78 640.25 650.76 617.54 642.93 596.19 C 630.88 563.62 611.79 533.37 586.26 509.71 C 561.31 486.38 529.15 470.39 495.01 466.84 C 477.50 465.30 458.98 465.16 442.73 472.82 M 690.45 529.48 C 680.30 538.42 674.91 551.70 673.49 564.95 C 672.49 577.51 673.03 590.23 675.58 602.59 C 679.08 619.52 684.69 636.02 692.37 651.51 C 696.32 659.42 700.82 667.17 707.00 673.56 C 719.92 667.65 734.55 667.46 748.44 668.90 C 779.48 673.11 809.38 685.67 834.17 704.83 C 853.28 719.88 869.70 738.70 880.59 760.53 C 884.77 759.76 889.05 759.04 892.87 757.07 C 900.10 753.42 905.45 746.80 908.66 739.47 C 914.02 727.43 915.00 713.98 914.54 700.97 C 913.72 684.22 910.20 667.68 904.95 651.78 C 896.23 625.60 882.91 600.89 865.53 579.44 C 846.71 556.08 822.47 536.64 794.47 525.51 C 775.68 517.85 755.27 514.38 735.02 514.66 C 719.23 514.99 702.43 518.52 690.45 529.48 M 538.20 709.20 C 511.01 711.34 484.14 720.79 462.44 737.48 C 448.85 748.17 437.07 761.80 430.89 778.13 C 425.15 793.01 424.85 810.10 430.92 824.93 C 435.63 836.92 444.36 846.90 454.42 854.76 C 469.90 866.46 488.85 872.95 507.99 875.26 C 516.66 876.01 525.37 876.97 534.06 875.92 C 568.64 873.79 603.42 859.86 627.01 833.95 C 638.59 821.32 646.92 805.18 648.28 787.93 C 649.58 772.59 644.62 756.99 635.27 744.84 C 625.50 732.03 611.59 722.84 596.69 717.02 C 578.15 709.98 557.94 707.42 538.20 709.20 M 802.19 756.20 C 789.26 756.76 776.45 759.33 764.12 763.21 C 740.14 771.01 717.50 784.93 702.29 805.36 C 691.94 819.21 685.37 836.61 687.07 854.07 C 688.02 868.68 694.88 882.58 704.99 893.05 C 719.89 908.80 740.78 917.75 761.90 921.36 C 799.62 927.54 839.96 918.55 870.86 895.85 C 885.49 884.89 897.99 870.45 904.41 853.16 C 910.26 837.48 910.02 819.42 902.79 804.23 C 894.76 787.00 879.31 774.18 862.18 766.53 C 843.47 758.03 822.62 755.10 802.19 756.20 Z" />
<path fill="#644da4" opacity="1.00" d=" M 318.40 825.62 C 322.49 824.42 327.07 825.77 329.72 829.14 C 391.76 905.88 466.58 972.28 550.07 1024.89 C 584.84 1046.60 621.24 1065.92 659.54 1080.66 C 664.57 1082.28 666.99 1088.61 664.41 1093.21 C 662.87 1096.31 659.44 1098.16 656.01 1097.93 C 529.65 1097.94 403.28 1097.96 276.93 1097.92 C 273.13 1098.28 269.82 1094.74 270.16 1091.01 C 270.11 1088.10 272.51 1085.94 275.11 1085.15 C 297.69 1076.86 319.77 1065.14 336.00 1047.01 C 348.18 1033.54 355.95 1016.13 357.53 998.02 C 359.79 966.22 351.22 934.86 339.64 905.55 C 331.60 884.97 322.38 864.88 313.22 844.78 C 311.86 841.71 310.03 838.58 310.40 835.10 C 310.66 830.61 314.25 826.92 318.40 825.62 Z" />
</g>
<g id="#2aa4ddff">
<path fill="#2aa4dd" opacity="1.00" d=" M 442.73 472.82 C 458.98 465.16 477.50 465.30 495.01 466.84 C 529.15 470.39 561.31 486.38 586.26 509.71 C 611.79 533.37 630.88 563.62 642.93 596.19 C 650.76 617.54 655.78 640.25 654.81 663.10 C 654.46 675.50 651.87 688.36 644.53 698.62 C 639.18 706.29 630.17 711.20 620.84 711.64 C 613.39 696.48 603.05 682.81 591.11 670.91 C 565.93 645.13 532.34 628.18 497.05 621.49 C 480.76 618.69 463.13 617.80 447.74 624.80 C 441.78 619.58 437.96 612.53 434.24 605.67 C 425.86 589.39 419.60 571.97 416.02 553.99 C 412.73 536.74 411.47 518.37 417.23 501.49 C 421.43 489.00 430.74 478.36 442.73 472.82 Z" />
</g>
<g id="#ed2224ff">
<path fill="#ed2224" opacity="1.00" d=" M 690.45 529.48 C 702.43 518.52 719.23 514.99 735.02 514.66 C 755.27 514.38 775.68 517.85 794.47 525.51 C 822.47 536.64 846.71 556.08 865.53 579.44 C 882.91 600.89 896.23 625.60 904.95 651.78 C 910.20 667.68 913.72 684.22 914.54 700.97 C 915.00 713.98 914.02 727.43 908.66 739.47 C 905.45 746.80 900.10 753.42 892.87 757.07 C 889.05 759.04 884.77 759.76 880.59 760.53 C 869.70 738.70 853.28 719.88 834.17 704.83 C 809.38 685.67 779.48 673.11 748.44 668.90 C 734.55 667.46 719.92 667.65 707.00 673.56 C 700.82 667.17 696.32 659.42 692.37 651.51 C 684.69 636.02 679.08 619.52 675.58 602.59 C 673.03 590.23 672.49 577.51 673.49 564.95 C 674.91 551.70 680.30 538.42 690.45 529.48 Z" />
</g>
<g id="#73b744ff">
<path fill="#73b744" opacity="1.00" d=" M 538.20 709.20 C 557.94 707.42 578.15 709.98 596.69 717.02 C 611.59 722.84 625.50 732.03 635.27 744.84 C 644.62 756.99 649.58 772.59 648.28 787.93 C 646.92 805.18 638.59 821.32 627.01 833.95 C 603.42 859.86 568.64 873.79 534.06 875.92 C 525.37 876.97 516.66 876.01 507.99 875.26 C 488.85 872.95 469.90 866.46 454.42 854.76 C 444.36 846.90 435.63 836.92 430.92 824.93 C 424.85 810.10 425.15 793.01 430.89 778.13 C 437.07 761.80 448.85 748.17 462.44 737.48 C 484.14 720.79 511.01 711.34 538.20 709.20 Z" />
</g>
<g id="#fcda00ff">
<path fill="#fcda00" opacity="1.00" d=" M 802.19 756.20 C 822.62 755.10 843.47 758.03 862.18 766.53 C 879.31 774.18 894.76 787.00 902.79 804.23 C 910.02 819.42 910.26 837.48 904.41 853.16 C 897.99 870.45 885.49 884.89 870.86 895.85 C 839.96 918.55 799.62 927.54 761.90 921.36 C 740.78 917.75 719.89 908.80 704.99 893.05 C 694.88 882.58 688.02 868.68 687.07 854.07 C 685.37 836.61 691.94 819.21 702.29 805.36 C 717.50 784.93 740.14 771.01 764.12 763.21 C 776.45 759.33 789.26 756.76 802.19 756.20 Z" />
</g>
</svg>
