<?xml version="1.0" encoding="UTF-8" ?>
<!DOCTYPE svg PUBLIC "-//W3C//DTD SVG 1.1//EN" "http://www.w3.org/Graphics/SVG/1.1/DTD/svg11.dtd">
<svg width="1276pt" height="1276pt" viewBox="0 0 1276 1276" version="1.1" xmlns="http://www.w3.org/2000/svg">
<g id="#000000ff">
<path fill="#000000" opacity="1.00" d=" M 468.30 177.37 C 477.82 176.63 487.47 177.27 497.04 177.05 C 541.37 177.06 585.70 177.05 630.03 177.06 C 631.63 176.95 633.16 177.52 634.46 178.44 C 691.92 215.48 743.37 261.24 789.85 311.23 C 836.60 361.70 878.45 416.68 915.24 474.80 C 941.22 516.08 964.78 558.96 984.21 603.72 C 993.42 625.34 1001.85 647.37 1008.00 670.07 C 1008.52 679.35 1008.04 688.69 1008.23 697.99 C 1008.11 700.49 1008.65 703.24 1007.33 705.52 C 1005.62 708.09 1001.29 708.21 999.68 705.49 C 998.29 702.92 997.40 700.12 996.29 697.42 C 980.19 656.92 960.76 617.77 938.97 580.04 C 878.57 476.11 799.71 382.29 704.44 308.67 C 634.06 254.37 554.31 211.80 469.06 186.22 C 464.77 185.44 464.32 178.86 468.30 177.37 Z" />
<path fill="#000000" opacity="1.00" d=" M 731.20 177.24 C 753.44 176.78 775.73 177.21 798.00 177.03 C 800.16 177.14 802.78 176.61 804.46 178.38 C 832.83 204.27 857.60 233.86 880.25 264.82 C 916.77 315.18 947.78 369.43 973.90 425.85 C 985.67 451.59 996.47 477.81 1005.24 504.73 C 1006.40 508.77 1008.33 512.71 1008.24 517.00 C 1008.16 532.03 1008.26 547.05 1008.19 562.07 C 1008.54 565.26 1005.05 568.28 1002.01 567.03 C 998.68 565.86 998.53 561.78 997.22 559.02 C 977.83 507.17 952.12 457.87 923.35 410.64 C 888.19 353.42 847.84 299.23 801.46 250.59 C 780.00 228.31 757.36 207.11 732.94 188.09 C 731.31 186.73 729.34 185.62 728.26 183.74 C 726.85 181.31 728.48 177.82 731.20 177.24 Z" />
<path fill="#000000" opacity="1.00" d=" M 892.29 177.33 C 895.14 176.77 898.09 177.14 901.00 177.05 C 935.03 177.07 969.05 177.04 1003.08 177.07 C 1005.86 176.71 1008.39 179.17 1008.19 181.95 C 1008.25 256.65 1008.18 331.35 1008.23 406.05 C 1008.28 408.14 1007.90 410.74 1005.73 411.68 C 1003.27 413.35 999.67 411.72 999.02 408.91 C 979.39 354.63 956.66 301.40 929.75 250.31 C 917.78 227.74 904.86 205.63 890.30 184.61 C 888.37 182.28 889.27 178.24 892.29 177.33 Z" />
<path fill="#000000" opacity="1.00" d=" M 441.04 283.01 C 484.80 280.60 528.55 289.10 569.83 303.24 C 607.97 316.34 644.27 334.42 678.59 355.53 C 741.33 394.40 797.54 443.39 846.31 498.68 C 881.43 538.57 912.73 581.86 939.15 627.99 C 959.40 663.40 976.78 700.52 990.16 739.08 C 1005.94 784.71 1016.39 832.60 1016.91 881.03 C 1017.41 921.49 1010.63 962.79 992.04 999.06 C 976.18 1030.48 950.64 1057.08 919.35 1073.36 C 883.26 1092.44 841.39 1098.17 801.04 1095.39 C 756.44 1092.31 712.93 1079.71 671.98 1062.12 C 636.13 1046.63 602.04 1027.21 569.87 1005.10 C 528.30 976.51 489.89 943.43 454.84 907.17 C 407.25 857.86 365.73 802.59 332.37 742.70 C 311.20 704.57 293.36 664.51 280.30 622.87 C 267.09 580.21 258.64 535.73 259.07 490.95 C 259.27 461.04 263.60 430.93 273.85 402.75 C 283.03 377.35 297.33 353.62 316.59 334.59 C 336.26 315.04 360.91 300.77 387.35 292.53 C 404.73 287.01 422.86 284.11 441.04 283.01 M 449.96 469.94 C 437.40 473.87 426.20 482.56 420.29 494.43 C 413.24 507.76 412.64 523.32 413.67 538.04 C 415.67 558.65 421.68 578.75 430.26 597.55 C 434.73 607.19 439.79 616.72 447.01 624.60 C 447.48 624.51 448.44 624.33 448.91 624.24 C 462.45 618.54 477.63 618.73 491.96 620.65 C 529.34 626.59 565.12 644.12 591.58 671.38 C 603.28 683.16 613.48 696.62 620.77 711.57 C 629.22 711.38 637.37 707.18 642.84 700.82 C 651.01 690.84 654.23 677.70 654.71 665.04 C 655.82 645.81 652.61 626.57 647.00 608.21 C 635.62 571.44 615.34 537.13 587.29 510.64 C 561.43 486.19 527.73 469.43 492.04 466.56 C 477.98 465.62 463.49 465.41 449.96 469.94 M 708.17 519.08 C 695.24 523.50 684.02 533.18 678.62 545.83 C 672.24 559.30 672.60 574.61 673.52 589.13 C 676.05 611.09 682.92 632.44 692.72 652.21 C 696.58 659.87 701.00 667.36 706.99 673.57 C 722.01 666.81 739.10 667.34 755.04 669.85 C 784.83 675.28 813.42 687.93 836.96 707.07 C 854.82 721.73 870.26 739.72 880.54 760.51 C 884.24 759.82 888.03 759.29 891.50 757.71 C 899.16 754.37 904.93 747.66 908.35 740.15 C 914.15 727.65 915.02 713.55 914.51 699.98 C 912.85 672.15 904.26 645.09 891.87 620.24 C 880.00 596.98 864.51 575.37 845.16 557.75 C 821.48 535.94 791.52 520.45 759.44 516.20 C 742.43 513.93 724.61 513.46 708.17 519.08 M 538.17 709.23 C 503.12 711.90 468.01 726.98 445.09 754.19 C 434.23 767.29 426.44 783.72 426.52 801.00 C 426.03 817.50 432.92 833.84 444.38 845.60 C 455.48 857.67 470.31 865.71 485.82 870.60 C 510.09 877.94 536.27 877.97 560.80 871.86 C 588.06 865.26 613.96 850.75 631.56 828.60 C 641.51 815.92 648.26 800.28 648.44 784.01 C 648.80 769.45 643.45 755.02 634.38 743.71 C 624.69 731.47 611.18 722.71 596.76 717.03 C 578.20 709.94 557.93 707.41 538.17 709.23 M 761.95 763.88 C 739.03 771.84 717.40 785.28 702.66 804.85 C 693.90 816.47 687.73 830.43 686.94 845.09 C 685.88 859.85 690.57 874.81 699.48 886.59 C 712.45 903.80 732.42 914.50 753.07 919.54 C 775.69 925.00 799.58 924.31 822.10 918.67 C 842.07 913.50 861.24 904.43 876.95 890.95 C 889.98 879.87 900.77 865.57 905.77 849.06 C 909.65 836.34 909.42 822.44 905.15 809.85 C 897.53 788.50 878.77 772.99 858.16 764.77 C 827.61 752.67 792.87 753.61 761.95 763.88 Z" />
<path fill="#000000" opacity="1.00" d=" M 318.40 825.62 C 322.80 824.29 327.62 826.07 330.28 829.77 C 366.59 874.81 407.50 916.09 451.81 953.26 C 483.87 980.09 517.71 1004.81 553.24 1026.86 C 585.54 1046.79 619.19 1064.74 654.55 1078.66 C 658.24 1080.19 662.87 1081.21 664.65 1085.26 C 667.54 1090.98 662.58 1098.60 656.11 1097.93 C 529.72 1097.95 403.33 1097.96 276.94 1097.93 C 273.16 1098.30 269.85 1094.78 270.16 1091.07 C 270.09 1088.16 272.46 1085.93 275.09 1085.15 C 291.39 1079.23 307.15 1071.45 320.98 1060.91 C 333.84 1051.02 344.85 1038.31 351.19 1023.27 C 356.05 1011.86 358.24 999.39 357.82 987.01 C 357.82 949.74 343.94 914.39 329.32 880.70 C 323.60 867.43 317.56 854.30 311.58 841.15 C 308.25 835.19 311.94 827.33 318.40 825.62 Z" />
</g>
<g id="#2aa4ddff">
<path fill="#2aa4dd" opacity="1.00" d=" M 449.96 469.94 C 463.49 465.41 477.98 465.62 492.04 466.56 C 527.73 469.43 561.43 486.19 587.29 510.64 C 615.34 537.13 635.62 571.44 647.00 608.21 C 652.61 626.57 655.82 645.81 654.71 665.04 C 654.23 677.70 651.01 690.84 642.84 700.82 C 637.37 707.18 629.22 711.38 620.77 711.57 C 613.48 696.62 603.28 683.16 591.58 671.38 C 565.12 644.12 529.34 626.59 491.96 620.65 C 477.63 618.73 462.45 618.54 448.91 624.24 C 448.44 624.33 447.48 624.51 447.01 624.60 C 439.79 616.72 434.73 607.19 430.26 597.55 C 421.68 578.75 415.67 558.65 413.67 538.04 C 412.64 523.32 413.24 507.76 420.29 494.43 C 426.20 482.56 437.40 473.87 449.96 469.94 Z" />
</g>
<g id="#ed2224ff">
<path fill="#ed2224" opacity="1.00" d=" M 708.17 519.08 C 724.61 513.46 742.43 513.93 759.44 516.20 C 791.52 520.45 821.48 535.94 845.16 557.75 C 864.51 575.37 880.00 596.98 891.87 620.24 C 904.26 645.09 912.85 672.15 914.51 699.98 C 915.02 713.55 914.15 727.65 908.35 740.15 C 904.93 747.66 899.16 754.37 891.50 757.71 C 888.03 759.29 884.24 759.82 880.54 760.51 C 870.26 739.72 854.82 721.73 836.96 707.07 C 813.42 687.93 784.83 675.28 755.04 669.85 C 739.10 667.34 722.01 666.81 706.99 673.57 C 701.00 667.36 696.58 659.87 692.72 652.21 C 682.92 632.44 676.05 611.09 673.52 589.13 C 672.60 574.61 672.24 559.30 678.62 545.83 C 684.02 533.18 695.24 523.50 708.17 519.08 Z" />
</g>
<g id="#73b744ff">
<path fill="#73b744" opacity="1.00" d=" M 538.17 709.23 C 557.93 707.41 578.20 709.94 596.76 717.03 C 611.18 722.71 624.69 731.47 634.38 743.71 C 643.45 755.02 648.80 769.45 648.44 784.01 C 648.26 800.28 641.51 815.92 631.56 828.60 C 613.96 850.75 588.06 865.26 560.80 871.86 C 536.27 877.97 510.09 877.94 485.82 870.60 C 470.31 865.71 455.48 857.67 444.38 845.60 C 432.92 833.84 426.03 817.50 426.52 801.00 C 426.44 783.72 434.23 767.29 445.09 754.19 C 468.01 726.98 503.12 711.90 538.17 709.23 Z" />
</g>
<g id="#fcda00ff">
<path fill="#fcda00" opacity="1.00" d=" M 761.95 763.88 C 792.87 753.61 827.61 752.67 858.16 764.77 C 878.77 772.99 897.53 788.50 905.15 809.85 C 909.42 822.44 909.65 836.34 905.77 849.06 C 900.77 865.57 889.98 879.87 876.95 890.95 C 861.24 904.43 842.07 913.50 822.10 918.67 C 799.58 924.31 775.69 925.00 753.07 919.54 C 732.42 914.50 712.45 903.80 699.48 886.59 C 690.57 874.81 685.88 859.85 686.94 845.09 C 687.73 830.43 693.90 816.47 702.66 804.85 C 717.40 785.28 739.03 771.84 761.95 763.88 Z" />
</g>
</svg>
