<?xml version="1.0" encoding="UTF-8" ?>
<!DOCTYPE svg PUBLIC "-//W3C//DTD SVG 1.1//EN" "http://www.w3.org/Graphics/SVG/1.1/DTD/svg11.dtd">
<svg width="1276pt" height="1276pt" viewBox="0 0 1276 1276" version="1.1" xmlns="http://www.w3.org/2000/svg">
<g id="#333333ff">
<path fill="#333333" opacity="1.00" d=" M 514.65 165.50 C 563.56 152.62 614.58 149.12 664.97 151.85 C 707.56 154.81 749.66 163.63 790.21 176.90 C 811.31 183.86 832.00 192.15 851.83 202.19 C 867.27 210.06 882.07 219.10 896.77 228.26 C 922.67 244.70 947.89 262.58 969.70 284.27 C 976.15 290.88 982.67 297.50 988.13 304.99 C 997.42 317.98 1005.70 332.13 1009.00 347.94 C 1012.66 363.61 1010.31 380.01 1005.26 395.10 C 997.18 419.31 983.53 441.19 968.85 461.89 C 960.85 473.09 952.34 483.92 943.64 494.58 C 934.65 505.79 925.32 517.01 919.14 530.08 C 915.58 537.93 913.18 547.54 917.36 555.62 C 922.44 566.07 929.39 575.47 936.24 584.81 C 942.90 593.55 949.60 602.27 956.81 610.57 C 958.52 612.51 960.26 614.43 961.82 616.50 C 982.26 642.51 996.10 673.09 1005.65 704.60 C 1012.51 727.23 1017.26 750.48 1019.93 773.97 C 1022.02 793.22 1022.89 812.70 1020.88 832.00 C 1016.63 867.41 1007.42 902.29 992.95 934.92 C 979.33 965.59 960.90 994.32 937.37 1018.35 C 916.70 1039.38 891.94 1055.90 866.38 1070.38 C 835.79 1087.40 802.91 1100.17 769.04 1108.94 C 726.94 1119.81 683.44 1124.87 640.00 1125.50 C 594.53 1126.08 548.87 1121.06 504.92 1109.21 C 463.47 1098.11 423.58 1080.89 387.54 1057.56 C 377.35 1051.10 367.72 1043.84 358.03 1036.68 C 345.87 1027.41 334.86 1016.77 323.67 1006.38 C 306.05 989.61 288.45 972.43 275.05 951.98 C 265.52 937.46 258.15 921.21 255.58 903.92 C 252.05 881.13 257.04 857.35 268.39 837.37 C 276.60 822.80 286.94 809.56 297.77 796.85 C 320.08 770.57 345.28 746.97 368.88 721.89 C 375.67 714.13 382.71 706.03 386.01 696.09 C 388.60 688.41 384.07 680.96 380.73 674.32 C 364.95 646.88 341.40 624.90 325.39 597.61 C 302.55 559.38 290.62 515.27 287.56 471.03 C 283.90 415.05 294.61 357.65 321.16 308.01 C 336.84 278.82 358.30 252.86 383.59 231.49 C 421.29 199.54 467.01 177.95 514.65 165.50 M 512.93 240.76 C 479.55 253.39 448.48 272.89 424.10 299.09 C 399.65 325.62 381.67 358.51 374.63 394.03 C 369.86 417.14 369.04 440.90 370.49 464.40 C 369.33 468.84 369.96 473.46 369.82 478.00 C 369.82 510.87 376.28 544.17 391.69 573.40 C 406.65 601.41 425.97 627.07 448.72 649.22 C 473.55 673.26 501.28 694.27 530.96 711.96 C 549.36 722.93 567.77 733.88 586.17 744.84 C 615.12 761.99 644.33 779.14 670.17 800.85 C 677.87 807.73 685.33 815.75 688.54 825.76 C 686.47 831.08 683.30 836.16 678.59 839.52 C 670.87 845.03 661.39 847.35 652.10 848.44 C 623.95 851.33 595.82 844.70 569.44 835.35 C 527.26 820.37 487.02 798.51 453.94 768.10 C 449.62 764.41 446.20 759.74 441.57 756.43 C 436.26 752.83 429.03 752.34 423.34 755.34 C 419.20 757.31 416.41 761.06 413.63 764.57 C 386.91 797.75 360.31 831.02 333.48 864.11 L 333.84 864.56 C 333.24 875.03 333.78 885.53 333.55 896.01 C 333.12 899.37 336.12 901.57 337.78 904.11 C 374.42 952.62 420.31 995.40 475.39 1022.06 C 515.47 1041.50 559.74 1050.89 603.95 1054.40 C 630.10 1056.28 656.43 1056.66 682.56 1054.32 C 716.45 1051.06 750.09 1044.05 782.08 1032.29 C 813.58 1020.56 843.45 1003.87 868.86 981.76 L 868.80 981.42 C 877.43 974.62 884.85 966.36 892.07 958.09 C 904.67 943.14 915.62 926.70 923.99 909.01 C 940.08 874.74 944.39 836.16 942.53 798.70 C 944.39 756.87 939.73 713.71 921.45 675.56 C 907.85 647.70 889.99 621.85 868.21 599.76 C 848.85 580.49 827.41 563.35 804.69 548.23 C 790.53 538.76 775.55 530.64 760.73 522.29 C 742.03 511.90 723.22 501.71 704.29 491.74 C 686.17 482.22 668.33 472.10 651.48 460.47 C 640.30 452.79 628.79 444.30 622.73 431.79 C 625.05 428.76 627.09 425.46 629.94 422.87 C 636.63 416.54 646.06 414.27 655.01 413.68 C 667.79 413.03 680.54 415.06 692.96 417.92 C 713.62 422.73 733.47 430.50 752.62 439.55 C 782.67 454.16 811.83 471.06 837.72 492.30 C 841.43 495.40 845.18 498.83 850.03 499.98 C 857.81 502.10 866.44 498.43 870.76 491.73 C 888.01 465.66 905.17 439.53 922.39 413.44 C 927.56 405.25 933.39 397.44 938.17 389.03 C 938.22 377.85 938.52 366.63 937.99 355.46 L 938.31 355.00 C 893.07 309.92 840.43 271.22 780.86 247.42 C 736.13 229.68 687.98 221.62 639.99 220.62 C 596.91 219.50 553.35 225.50 512.93 240.76 Z" />
</g>
<g id="#00c832ff">
<path fill="#00c832" opacity="1.00" d=" M 512.93 240.76 C 553.35 225.50 596.91 219.50 639.99 220.62 C 687.98 221.62 736.13 229.68 780.86 247.42 C 840.43 271.22 893.07 309.92 938.31 355.00 L 937.99 355.46 C 916.73 387.17 895.93 419.18 874.86 451.01 C 871.87 455.49 869.18 460.55 864.37 463.35 C 857.43 467.61 847.90 466.54 841.85 461.17 C 815.14 438.60 784.80 420.74 753.47 405.41 C 735.91 397.13 717.83 389.81 699.02 384.91 C 683.70 380.93 667.82 378.08 651.94 379.45 C 643.62 380.29 635.11 383.07 629.10 389.11 C 618.22 400.05 615.84 418.12 622.73 431.79 C 628.79 444.30 640.30 452.79 651.48 460.47 C 668.33 472.10 686.17 482.22 704.29 491.74 C 723.22 501.71 742.03 511.90 760.73 522.29 C 775.55 530.64 790.53 538.76 804.69 548.23 C 827.41 563.35 848.85 580.49 868.21 599.76 C 889.99 621.85 907.85 647.70 921.45 675.56 C 939.73 713.71 944.39 756.87 942.53 798.70 C 941.05 816.09 938.45 833.47 933.26 850.18 C 923.82 881.50 905.55 909.60 883.30 933.33 C 878.26 938.69 872.85 943.69 867.35 948.57 C 841.38 970.74 810.95 987.38 778.89 998.95 C 745.73 1010.71 710.91 1017.60 675.87 1020.36 C 651.61 1022.16 627.23 1021.69 603.00 1019.81 C 560.95 1016.47 519.01 1007.52 480.48 990.02 C 428.15 965.79 383.71 926.95 347.71 882.29 C 342.95 876.49 338.54 870.42 333.84 864.56 L 333.48 864.11 C 360.31 831.02 386.91 797.75 413.63 764.57 C 416.41 761.06 419.20 757.31 423.34 755.34 C 429.03 752.34 436.26 752.83 441.57 756.43 C 446.20 759.74 449.62 764.41 453.94 768.10 C 487.02 798.51 527.26 820.37 569.44 835.35 C 595.82 844.70 623.95 851.33 652.10 848.44 C 661.39 847.35 670.87 845.03 678.59 839.52 C 683.30 836.16 686.47 831.08 688.54 825.76 C 692.07 813.91 693.18 800.57 687.95 789.03 C 682.58 776.91 672.54 767.72 662.18 759.83 C 633.81 737.57 602.20 720.06 571.39 701.52 C 544.33 685.11 516.36 670.00 491.12 650.79 C 465.33 631.32 441.02 609.51 421.10 583.95 C 410.84 570.86 401.65 556.93 393.60 542.38 C 383.80 524.66 377.14 505.26 373.55 485.34 C 372.20 478.41 371.57 471.37 370.49 464.40 C 369.04 440.90 369.86 417.14 374.63 394.03 C 381.67 358.51 399.65 325.62 424.10 299.09 C 448.48 272.89 479.55 253.39 512.93 240.76 Z" />
</g>
<g id="#0000004c">
<path fill="#000000" opacity="0.30" d=" M 987.89 303.87 C 992.23 307.27 995.46 311.82 998.79 316.16 C 1009.87 331.04 1018.58 348.33 1020.40 367.01 C 1021.99 382.84 1017.91 398.59 1012.24 413.24 C 997.50 449.74 972.77 480.92 948.19 511.22 C 940.76 520.69 933.29 530.37 928.43 541.47 C 925.15 549.20 923.35 558.59 927.65 566.31 C 934.34 579.39 943.42 591.06 952.19 602.79 C 953.84 605.29 956.69 607.34 956.81 610.57 C 949.60 602.27 942.90 593.55 936.24 584.81 C 929.39 575.47 922.44 566.07 917.36 555.62 C 913.18 547.54 915.58 537.93 919.14 530.08 C 925.32 517.01 934.65 505.79 943.64 494.58 C 952.34 483.92 960.85 473.09 968.85 461.89 C 983.53 441.19 997.18 419.31 1005.26 395.10 C 1010.31 380.01 1012.66 363.61 1009.00 347.94 C 1005.70 332.13 997.42 317.98 988.13 304.99 L 987.89 303.87 Z" />
<path fill="#000000" opacity="0.30" d=" M 961.82 616.50 C 963.24 617.19 964.48 618.22 965.47 619.46 C 990.38 646.98 1005.72 681.71 1016.31 716.93 C 1027.60 755.81 1033.81 796.52 1031.30 837.05 C 1027.56 873.64 1018.22 909.70 1003.51 943.43 C 989.81 974.63 971.20 1003.89 947.31 1028.29 C 926.32 1049.68 901.10 1066.42 875.09 1081.04 C 825.21 1108.64 769.43 1124.50 712.99 1131.24 C 685.46 1134.46 657.74 1136.19 630.03 1135.48 C 587.43 1134.20 544.83 1128.29 503.94 1116.10 C 451.60 1100.62 401.91 1075.21 360.13 1039.94 C 359.02 1039.13 358.12 1038.09 358.03 1036.68 C 367.72 1043.84 377.35 1051.10 387.54 1057.56 C 423.58 1080.89 463.47 1098.11 504.92 1109.21 C 548.87 1121.06 594.53 1126.08 640.00 1125.50 C 683.44 1124.87 726.94 1119.81 769.04 1108.94 C 802.91 1100.17 835.79 1087.40 866.38 1070.38 C 891.94 1055.90 916.70 1039.38 937.37 1018.35 C 960.90 994.32 979.33 965.59 992.95 934.92 C 1007.42 902.29 1016.63 867.41 1020.88 832.00 C 1022.89 812.70 1022.02 793.22 1019.93 773.97 C 1017.26 750.48 1012.51 727.23 1005.65 704.60 C 996.10 673.09 982.26 642.51 961.82 616.50 Z" />
</g>
<g id="#006a1bff">
<path fill="#006a1b" opacity="1.00" d=" M 874.86 451.01 C 895.93 419.18 916.73 387.17 937.99 355.46 C 938.52 366.63 938.22 377.85 938.17 389.03 C 933.39 397.44 927.56 405.25 922.39 413.44 C 905.17 439.53 888.01 465.66 870.76 491.73 C 866.44 498.43 857.81 502.10 850.03 499.98 C 845.18 498.83 841.43 495.40 837.72 492.30 C 811.83 471.06 782.67 454.16 752.62 439.55 C 753.61 437.14 753.20 434.49 753.12 431.97 C 752.73 425.32 753.34 418.66 752.93 412.01 C 752.86 409.80 752.38 407.46 753.47 405.41 C 784.80 420.74 815.14 438.60 841.85 461.17 C 847.90 466.54 857.43 467.61 864.37 463.35 C 869.18 460.55 871.87 455.49 874.86 451.01 Z" />
<path fill="#006a1b" opacity="1.00" d=" M 370.49 464.40 C 371.57 471.37 372.20 478.41 373.55 485.34 C 377.14 505.26 383.80 524.66 393.60 542.38 C 401.65 556.93 410.84 570.86 421.10 583.95 C 441.02 609.51 465.33 631.32 491.12 650.79 C 516.36 670.00 544.33 685.11 571.39 701.52 C 602.20 720.06 633.81 737.57 662.18 759.83 C 672.54 767.72 682.58 776.91 687.95 789.03 C 693.18 800.57 692.07 813.91 688.54 825.76 C 685.33 815.75 677.87 807.73 670.17 800.85 C 644.33 779.14 615.12 761.99 586.17 744.84 C 567.77 733.88 549.36 722.93 530.96 711.96 C 501.28 694.27 473.55 673.26 448.72 649.22 C 425.97 627.07 406.65 601.41 391.69 573.40 C 376.28 544.17 369.82 510.87 369.82 478.00 C 369.96 473.46 369.33 468.84 370.49 464.40 Z" />
<path fill="#006a1b" opacity="1.00" d=" M 933.26 850.18 C 938.45 833.47 941.05 816.09 942.53 798.70 C 944.39 836.16 940.08 874.74 923.99 909.01 C 915.62 926.70 904.67 943.14 892.07 958.09 C 884.85 966.36 877.43 974.62 868.80 981.42 C 867.35 974.68 868.18 967.77 867.99 960.94 C 867.81 956.82 868.97 952.51 867.35 948.57 C 872.85 943.69 878.26 938.69 883.30 933.33 C 905.55 909.60 923.82 881.50 933.26 850.18 Z" />
<path fill="#006a1b" opacity="1.00" d=" M 333.84 864.56 C 338.54 870.42 342.95 876.49 347.71 882.29 C 383.71 926.95 428.15 965.79 480.48 990.02 C 479.05 990.15 477.62 990.35 476.20 990.55 C 475.38 1001.04 476.84 1011.60 475.39 1022.06 C 420.31 995.40 374.42 952.62 337.78 904.11 C 336.12 901.57 333.12 899.37 333.55 896.01 C 333.78 885.53 333.24 875.03 333.84 864.56 Z" />
</g>
<g id="#006e1cff">
<path fill="#006e1c" opacity="1.00" d=" M 629.10 389.11 C 635.11 383.07 643.62 380.29 651.94 379.45 C 667.82 378.08 683.70 380.93 699.02 384.91 C 717.83 389.81 735.91 397.13 753.47 405.41 C 752.38 407.46 752.86 409.80 752.93 412.01 C 753.34 418.66 752.73 425.32 753.12 431.97 C 753.20 434.49 753.61 437.14 752.62 439.55 C 733.47 430.50 713.62 422.73 692.96 417.92 C 680.54 415.06 667.79 413.03 655.01 413.68 C 646.06 414.27 636.63 416.54 629.94 422.87 C 627.09 425.46 625.05 428.76 622.73 431.79 C 615.84 418.12 618.22 400.05 629.10 389.11 Z" />
<path fill="#006e1c" opacity="1.00" d=" M 778.89 998.95 C 810.95 987.38 841.38 970.74 867.35 948.57 C 868.97 952.51 867.81 956.82 867.99 960.94 C 868.18 967.77 867.35 974.68 868.80 981.42 L 868.86 981.76 C 843.45 1003.87 813.58 1020.56 782.08 1032.29 C 750.09 1044.05 716.45 1051.06 682.56 1054.32 C 656.43 1056.66 630.10 1056.28 603.95 1054.40 C 559.74 1050.89 515.47 1041.50 475.39 1022.06 C 476.84 1011.60 475.38 1001.04 476.20 990.55 C 477.62 990.35 479.05 990.15 480.48 990.02 C 519.01 1007.52 560.95 1016.47 603.00 1019.81 C 627.23 1021.69 651.61 1022.16 675.87 1020.36 C 710.91 1017.60 745.73 1010.71 778.89 998.95 Z" />
</g>
</svg>
