<?xml version="1.0" encoding="UTF-8" ?>
<!DOCTYPE svg PUBLIC "-//W3C//DTD SVG 1.1//EN" "http://www.w3.org/Graphics/SVG/1.1/DTD/svg11.dtd">
<svg width="1276pt" height="1276pt" viewBox="0 0 1276 1276" version="1.1" xmlns="http://www.w3.org/2000/svg">
<g id="#ff221dff">
<path fill="#ff221d" opacity="1.00" d=" M 384.82 394.84 C 412.32 391.60 440.02 390.24 467.70 390.53 C 461.14 419.05 455.14 447.70 448.50 476.20 C 422.59 476.35 396.67 478.50 371.10 482.74 C 333.99 489.12 296.80 500.69 266.13 523.18 C 250.46 534.69 236.90 549.16 226.81 565.80 C 217.27 581.34 210.84 598.64 206.68 616.35 C 202.68 634.25 200.04 652.61 200.51 671.00 C 201.04 690.53 205.51 710.10 214.67 727.43 C 224.38 746.06 239.36 761.71 256.93 773.11 C 283.58 790.48 315.32 798.65 346.85 800.35 C 340.51 828.37 334.22 856.41 328.03 884.46 C 286.28 880.43 245.08 867.27 209.96 844.10 C 175.96 821.95 148.36 789.87 132.52 752.43 C 115.76 713.42 112.20 669.65 118.32 627.88 C 123.91 586.26 137.46 545.16 161.49 510.45 C 184.02 477.49 215.63 451.30 251.05 433.17 C 292.61 411.80 338.63 400.45 384.82 394.84 Z" />
<path fill="#ff221d" opacity="1.00" d=" M 527.05 401.98 C 535.28 395.70 545.61 392.24 555.96 392.30 C 577.97 392.29 599.98 392.31 621.99 392.29 C 627.86 392.11 633.85 392.53 639.35 394.76 C 651.74 399.42 660.93 411.15 662.80 424.23 C 665.62 427.01 668.07 430.11 670.34 433.35 C 670.82 431.06 671.25 428.77 671.75 426.50 C 686.77 426.52 701.80 426.49 716.82 426.52 C 714.91 434.14 713.41 441.86 711.53 449.50 C 717.43 449.46 723.34 449.49 729.25 449.47 C 724.60 470.08 720.12 490.72 715.35 511.30 C 718.24 511.26 721.16 511.46 724.06 511.12 C 727.02 510.64 729.15 508.01 729.63 505.14 C 735.44 478.96 741.36 452.79 747.13 426.59 C 762.13 426.54 777.13 426.57 792.13 426.58 C 790.12 434.16 788.59 441.87 786.75 449.50 C 789.20 449.48 791.65 449.48 794.11 449.48 C 795.77 441.84 797.57 434.24 799.17 426.60 C 812.78 426.52 826.38 426.61 839.99 426.54 C 841.61 426.50 843.24 426.73 844.83 427.13 C 855.86 426.14 866.95 426.71 878.01 426.58 C 892.43 426.60 906.11 436.08 911.49 449.40 C 912.84 452.30 913.16 455.56 914.38 458.50 C 916.94 461.25 919.47 464.04 921.58 467.18 C 923.69 455.26 930.01 444.06 939.65 436.65 C 947.95 430.14 958.46 426.56 969.00 426.57 C 982.34 426.57 995.69 426.57 1009.03 426.57 C 1019.78 426.45 1030.42 431.33 1037.35 439.55 C 1041.95 444.74 1044.49 451.33 1045.97 458.02 C 1048.46 461.06 1051.38 463.79 1053.42 467.21 C 1056.43 453.69 1059.55 440.19 1062.42 426.63 C 1078.60 426.65 1094.82 426.24 1110.98 426.92 C 1123.40 426.17 1135.85 426.76 1148.28 426.55 C 1146.36 434.15 1144.87 441.86 1142.93 449.46 C 1148.93 449.51 1154.93 449.44 1160.93 449.51 C 1157.62 463.20 1154.73 477.00 1151.63 490.75 C 1139.75 490.79 1127.86 490.66 1115.99 490.80 C 1112.56 490.87 1109.87 493.81 1109.42 497.08 C 1103.66 523.22 1097.65 549.30 1091.97 575.45 C 1076.94 575.48 1061.92 575.48 1046.89 575.45 C 1048.83 567.86 1050.28 560.15 1052.18 552.55 C 1048.89 552.55 1045.61 552.54 1042.33 552.59 C 1035.32 564.04 1023.39 572.36 1010.14 574.67 C 1004.84 575.72 999.42 575.44 994.06 575.47 C 983.01 575.45 971.98 575.48 960.94 575.46 C 950.96 575.42 941.06 571.10 934.34 563.71 C 929.18 558.34 926.16 551.32 924.69 544.10 C 922.12 540.98 919.14 538.18 917.03 534.69 C 911.98 555.03 892.02 570.38 871.04 569.93 C 857.40 569.48 843.56 571.11 830.08 568.44 C 828.78 574.59 827.33 580.71 826.02 586.87 C 811.01 586.85 796.01 586.90 781.00 586.84 C 782.76 579.20 784.51 571.56 786.11 563.89 C 783.69 563.97 781.29 563.97 778.89 564.10 C 778.05 567.89 777.23 571.69 776.39 575.49 C 763.27 575.45 750.15 575.46 737.03 575.49 C 726.02 574.83 714.99 575.79 703.96 575.48 C 693.29 575.92 682.49 571.67 675.28 563.75 C 669.95 558.23 667.00 550.95 665.44 543.55 C 662.83 540.61 660.13 537.75 657.99 534.45 C 655.90 549.11 646.69 562.59 633.64 569.65 C 626.46 573.61 618.24 575.63 610.04 575.53 C 586.35 575.49 562.66 575.58 538.98 575.49 C 523.55 575.15 509.27 563.85 505.19 549.01 C 504.38 546.80 504.53 544.05 502.60 542.42 C 495.49 535.59 491.08 525.93 491.06 516.03 C 490.83 510.45 492.40 505.04 493.59 499.64 C 504.96 499.64 516.34 499.69 527.71 499.62 C 522.86 494.25 520.18 487.44 518.45 480.53 C 512.04 474.14 507.16 466.02 505.90 456.95 C 504.18 447.62 507.35 438.49 509.27 429.47 C 511.78 418.62 518.15 408.70 527.05 401.98 M 545.16 403.26 C 532.56 406.89 522.17 417.37 518.75 430.04 C 517.42 435.18 516.30 440.38 515.19 445.57 C 513.17 455.64 516.93 466.54 524.55 473.40 C 530.05 478.49 537.51 481.30 545.00 481.24 C 563.69 481.23 582.38 481.26 601.07 481.22 C 603.28 481.26 605.60 481.32 607.61 482.39 C 612.14 484.62 615.06 489.96 614.00 494.98 C 613.01 499.93 612.00 504.89 610.62 509.75 C 608.53 516.27 601.88 520.92 595.04 520.66 C 575.31 520.64 555.59 520.69 535.86 520.64 C 529.84 520.88 525.76 514.66 526.61 509.06 C 518.01 509.19 509.41 509.13 500.80 509.10 C 499.25 517.06 500.74 525.70 505.76 532.19 C 510.87 539.14 519.35 543.47 528.00 543.37 C 551.68 543.34 575.37 543.40 599.05 543.34 C 612.15 543.12 624.69 535.55 631.28 524.28 C 635.93 516.64 636.74 507.55 638.94 499.06 C 640.33 491.59 643.62 483.98 641.47 476.32 C 639.27 467.03 631.00 459.93 621.66 458.46 C 622.34 458.20 623.68 457.68 624.36 457.42 C 618.25 456.71 612.11 457.06 605.99 457.01 C 590.33 456.95 574.67 457.06 559.01 456.96 C 556.09 456.98 553.00 456.63 550.33 458.05 C 544.52 456.98 540.29 450.70 541.39 444.90 C 542.39 439.44 543.09 433.35 547.23 429.24 C 550.49 425.77 555.29 424.06 560.01 424.30 C 579.38 424.35 598.75 424.29 618.11 424.33 C 624.23 423.96 628.48 430.24 627.55 435.94 C 636.08 435.79 644.61 435.89 653.14 435.87 C 653.79 431.34 654.08 426.64 652.77 422.19 C 649.81 410.74 638.92 401.86 627.04 401.65 C 604.03 401.57 581.02 401.72 558.02 401.66 C 553.69 401.63 549.31 401.96 545.16 403.26 M 679.16 435.83 C 673.59 460.94 667.77 486.01 662.37 511.16 C 659.42 527.03 672.90 543.28 689.06 543.21 C 703.39 542.78 719.14 545.41 732.01 537.52 C 731.48 539.43 730.96 541.34 730.45 543.26 C 739.11 543.26 747.77 543.17 756.43 543.32 C 764.71 507.53 772.38 471.60 780.59 435.80 C 772.34 435.89 764.09 435.76 755.85 435.89 C 754.03 435.53 754.28 437.95 753.81 439.00 C 748.79 461.82 743.64 484.62 738.57 507.43 C 737.54 512.54 734.05 517.08 729.27 519.19 C 724.81 521.27 719.76 520.46 715.02 520.60 C 709.01 520.50 703.01 520.75 697.01 520.53 C 691.47 520.36 687.23 514.31 688.77 509.02 C 694.23 484.61 699.64 460.19 705.21 435.81 C 696.52 435.83 687.84 435.80 679.16 435.83 M 804.81 443.80 C 796.58 480.78 788.28 517.75 779.97 554.71 C 788.65 554.74 797.34 554.71 806.03 554.73 C 807.62 547.21 809.46 539.75 810.86 532.20 C 816.79 536.90 824.65 537.61 831.94 537.72 C 841.31 537.71 850.68 537.79 860.05 537.68 C 876.55 537.22 891.68 524.81 895.68 508.85 C 898.75 495.63 901.64 482.36 904.57 469.11 C 906.97 458.03 901.61 445.92 891.98 440.02 C 886.10 436.10 878.84 435.49 871.97 435.83 C 858.31 436.26 843.39 434.07 831.13 441.55 C 831.65 439.65 832.17 437.75 832.69 435.85 C 824.12 435.98 815.54 435.67 806.98 435.97 C 805.59 438.29 805.53 441.21 804.81 443.80 M 958.93 437.13 C 948.13 440.05 938.84 447.93 934.09 458.05 C 931.68 463.04 930.80 468.56 929.57 473.92 C 927.34 483.92 925.14 493.92 922.88 503.91 C 921.58 509.17 920.46 514.64 921.44 520.07 C 923.41 532.75 935.11 543.12 948.02 543.21 C 961.33 543.31 974.64 543.20 987.96 543.25 C 995.93 543.37 1003.93 541.07 1010.53 536.55 C 1019.96 530.35 1025.79 519.86 1027.66 508.87 C 1019.06 508.90 1010.47 508.89 1001.88 508.87 C 1000.12 514.03 996.30 519.01 990.67 520.03 C 988.90 519.23 986.99 518.83 985.06 518.93 C 977.04 519.00 969.01 519.02 960.99 518.94 C 958.46 518.98 955.78 518.67 953.49 519.95 C 949.94 518.62 947.32 514.88 947.51 511.07 C 947.78 507.99 948.63 505.01 949.28 502.00 C 967.20 501.72 985.13 502.02 1003.05 501.85 C 1013.26 501.66 1023.12 496.29 1029.16 488.11 C 1034.17 481.49 1036.08 473.10 1036.89 465.00 C 1037.97 450.74 1026.23 437.02 1011.95 435.99 C 1001.66 435.55 991.34 435.90 981.04 435.77 C 973.67 435.91 966.12 435.07 958.93 437.13 M 1045.87 543.17 C 1054.55 543.15 1063.23 543.18 1071.91 543.15 C 1077.12 519.44 1082.53 495.78 1087.77 472.08 C 1088.89 465.76 1093.93 460.07 1100.37 458.97 C 1104.02 460.62 1108.10 459.97 1111.99 460.04 C 1118.81 459.82 1125.68 460.53 1132.47 459.55 L 1131.33 458.89 C 1133.56 451.27 1134.81 443.41 1136.81 435.73 C 1122.64 436.19 1107.15 433.68 1094.42 441.44 C 1094.96 439.54 1095.52 437.65 1096.07 435.75 C 1087.36 435.72 1078.66 435.74 1069.96 435.74 C 1061.93 471.55 1053.96 507.38 1045.87 543.17 Z" />
<path fill="#ff221d" opacity="1.00" d=" M 824.54 471.13 C 825.89 465.14 831.00 459.83 837.17 459.05 C 841.36 459.85 845.63 460.34 849.92 460.10 C 857.29 459.68 864.83 460.99 872.04 458.87 C 876.37 460.55 879.59 465.17 878.34 469.90 C 876.03 480.60 873.57 491.27 871.20 501.96 C 869.86 509.09 863.33 514.87 856.02 515.02 C 846.33 515.22 836.63 515.08 826.94 515.09 C 823.03 515.30 819.25 512.90 817.77 509.29 C 816.61 506.64 817.27 503.69 817.88 501.00 C 820.18 491.06 822.37 481.09 824.54 471.13 M 844.01 505.67 C 848.72 505.48 853.59 506.32 858.20 505.16 C 863.54 502.54 862.65 495.58 864.38 490.74 C 859.63 491.05 854.68 490.03 850.08 491.40 C 844.87 494.06 845.79 500.91 844.01 505.67 Z" />
<path fill="#ff221d" opacity="1.00" d=" M 959.52 464.43 C 961.73 461.89 964.69 459.60 968.10 459.13 C 975.99 460.75 984.04 459.79 992.02 460.09 C 996.32 460.25 1000.61 459.81 1004.88 459.24 C 1009.68 460.97 1011.99 467.13 1009.76 471.69 C 1007.91 476.37 1003.01 479.49 997.99 479.27 C 983.43 479.30 968.87 479.23 954.32 479.29 C 955.69 474.26 955.98 468.58 959.52 464.43 Z" />
<path fill="#ff221d" opacity="1.00" d=" M 381.08 640.08 C 397.63 640.03 414.18 640.05 430.73 640.08 C 430.62 699.54 430.79 759.00 430.65 818.46 C 464.31 765.46 497.67 712.26 531.28 659.22 C 538.72 647.60 552.19 640.11 566.00 640.07 C 587.64 640.04 609.28 640.04 630.92 640.07 C 627.90 653.08 625.05 666.13 622.08 679.16 C 607.18 679.15 592.27 679.16 577.37 679.16 C 534.07 747.72 490.78 816.31 447.52 884.90 C 425.37 884.98 403.23 884.96 381.08 884.92 C 381.15 803.31 381.15 721.69 381.08 640.08 Z" />
<path fill="#ff221d" opacity="1.00" d=" M 751.32 640.09 C 766.56 640.03 781.81 640.03 797.05 640.09 C 794.02 653.10 791.18 666.15 788.18 679.17 C 772.95 679.16 757.71 679.14 742.48 679.18 C 745.50 666.16 748.37 653.12 751.32 640.09 Z" />
<path fill="#ff221d" opacity="1.00" d=" M 692.95 695.07 C 700.90 692.42 709.46 690.64 717.82 692.24 C 713.78 709.33 710.11 726.51 706.13 743.62 C 701.98 744.45 697.73 745.67 694.48 748.51 C 688.91 753.21 686.19 760.27 684.05 767.03 C 679.94 781.02 677.81 795.49 675.35 809.84 C 672.58 826.01 667.24 842.08 657.53 855.47 C 645.32 872.63 625.17 884.26 603.98 884.93 C 600.23 885.13 596.40 884.61 593.18 882.59 C 597.04 866.45 600.46 850.21 604.23 834.05 C 612.34 832.90 620.23 828.78 624.60 821.65 C 631.92 809.86 633.42 795.66 635.23 782.20 C 637.64 762.51 643.00 742.73 653.99 726.00 C 663.19 711.86 676.89 700.49 692.95 695.07 Z" />
<path fill="#ff221d" opacity="1.00" d=" M 868.57 692.78 C 888.51 689.90 909.53 692.21 927.72 701.18 C 948.62 711.20 964.59 730.27 971.78 752.20 C 978.44 772.53 979.55 795.18 972.34 815.53 C 962.50 843.70 938.86 865.69 911.48 876.70 C 890.32 885.28 866.31 887.65 844.15 881.61 C 823.95 876.14 805.81 863.29 794.19 845.86 C 779.40 824.16 775.48 796.11 781.72 770.81 C 787.80 744.73 804.81 721.56 827.63 707.62 C 840.06 699.92 854.11 694.91 868.57 692.78 M 873.49 734.74 C 857.60 737.33 842.69 746.02 833.04 758.97 C 822.71 772.62 818.52 790.93 822.59 807.63 C 825.76 820.67 834.92 832.12 847.07 837.88 C 858.54 843.48 871.93 843.96 884.23 841.21 C 900.81 837.48 916.24 827.89 926.15 813.99 C 932.94 804.50 936.24 792.55 934.90 780.93 C 933.97 767.21 928.48 753.21 917.54 744.42 C 905.38 734.51 888.60 732.25 873.49 734.74 Z" />
<path fill="#ff221d" opacity="1.00" d=" M 529.88 884.91 C 543.94 823.21 557.75 761.44 571.72 699.71 C 586.94 699.72 602.16 699.74 617.38 699.70 C 603.36 761.42 589.57 823.19 575.61 884.92 C 560.37 884.96 545.12 884.97 529.88 884.91 Z" />
<path fill="#ff221d" opacity="1.00" d=" M 696.12 884.96 C 710.03 823.21 723.97 761.46 737.90 699.72 C 753.12 699.72 768.35 699.73 783.57 699.71 C 769.53 761.42 755.78 823.20 741.79 884.92 C 726.57 884.99 711.34 884.91 696.12 884.96 Z" />
<path fill="#ff221d" opacity="1.00" d=" M 1017.00 699.73 C 1048.01 699.69 1079.02 699.76 1110.03 699.77 C 1116.71 699.87 1123.55 699.27 1130.06 701.19 C 1140.86 704.13 1150.01 712.36 1154.23 722.71 C 1157.19 729.73 1157.65 737.66 1156.03 745.07 C 1145.51 791.69 1135.01 838.31 1124.49 884.93 C 1109.24 884.96 1094.00 884.93 1078.76 884.94 C 1088.93 840.33 1098.92 795.67 1109.01 751.03 C 1110.67 745.35 1105.97 739.09 1100.11 738.91 C 1084.68 738.75 1069.26 738.90 1053.83 738.84 C 1042.85 787.53 1031.89 836.23 1020.92 884.92 C 1005.68 884.97 990.43 884.95 975.19 884.93 C 989.21 823.21 1003.07 761.46 1017.00 699.73 Z" />
</g>
<g id="#fdeb05ff">
<path fill="#fdeb05" opacity="1.00" d=" M 545.16 403.26 C 549.31 401.96 553.69 401.63 558.02 401.66 C 581.02 401.72 604.03 401.57 627.04 401.65 C 638.92 401.86 649.81 410.74 652.77 422.19 C 654.08 426.64 653.79 431.34 653.14 435.87 C 644.61 435.89 636.08 435.79 627.55 435.94 C 628.48 430.24 624.23 423.96 618.11 424.33 C 598.75 424.29 579.38 424.35 560.01 424.30 C 555.29 424.06 550.49 425.77 547.23 429.24 C 543.09 433.35 542.39 439.44 541.39 444.90 C 540.29 450.70 544.52 456.98 550.33 458.05 C 574.08 458.90 597.89 458.09 621.66 458.46 C 631.00 459.93 639.27 467.03 641.47 476.32 C 643.62 483.98 640.33 491.59 638.94 499.06 C 636.74 507.55 635.93 516.64 631.28 524.28 C 624.69 535.55 612.15 543.12 599.05 543.34 C 575.37 543.40 551.68 543.34 528.00 543.37 C 519.35 543.47 510.87 539.14 505.76 532.19 C 500.74 525.70 499.25 517.06 500.80 509.10 C 509.41 509.13 518.01 509.19 526.61 509.06 C 525.76 514.66 529.84 520.88 535.86 520.64 C 555.59 520.69 575.31 520.64 595.04 520.66 C 601.88 520.92 608.53 516.27 610.62 509.75 C 612.00 504.89 613.01 499.93 614.00 494.98 C 615.06 489.96 612.14 484.62 607.61 482.39 C 605.60 481.32 603.28 481.26 601.07 481.22 C 582.38 481.26 563.69 481.23 545.00 481.24 C 537.51 481.30 530.05 478.49 524.55 473.40 C 516.93 466.54 513.17 455.64 515.19 445.57 C 516.30 440.38 517.42 435.18 518.75 430.04 C 522.17 417.37 532.56 406.89 545.16 403.26 Z" />
<path fill="#fdeb05" opacity="1.00" d=" M 679.16 435.83 C 687.84 435.80 696.52 435.83 705.21 435.81 C 699.64 460.19 694.23 484.61 688.77 509.02 C 687.23 514.31 691.47 520.36 697.01 520.53 C 703.01 520.75 709.01 520.50 715.02 520.60 C 719.76 520.46 724.81 521.27 729.27 519.19 C 734.05 517.08 737.54 512.54 738.57 507.43 C 743.64 484.62 748.79 461.82 753.81 439.00 C 754.28 437.95 754.03 435.53 755.85 435.89 C 764.09 435.76 772.34 435.89 780.59 435.80 C 772.38 471.60 764.71 507.53 756.43 543.32 C 747.77 543.17 739.11 543.26 730.45 543.26 C 730.96 541.34 731.48 539.43 732.01 537.52 C 719.14 545.41 703.39 542.78 689.06 543.21 C 672.90 543.28 659.42 527.03 662.37 511.16 C 667.77 486.01 673.59 460.94 679.16 435.83 Z" />
<path fill="#fdeb05" opacity="1.00" d=" M 804.81 443.80 C 805.53 441.21 805.59 438.29 806.98 435.97 C 815.54 435.67 824.12 435.98 832.69 435.85 C 832.17 437.75 831.65 439.65 831.13 441.55 C 843.39 434.07 858.31 436.26 871.97 435.83 C 878.84 435.49 886.10 436.10 891.98 440.02 C 901.61 445.92 906.97 458.03 904.57 469.11 C 901.64 482.36 898.75 495.63 895.68 508.85 C 891.68 524.81 876.55 537.22 860.05 537.68 C 850.68 537.79 841.31 537.71 831.94 537.72 C 824.65 537.61 816.79 536.90 810.86 532.20 C 809.46 539.75 807.62 547.21 806.03 554.73 C 797.34 554.71 788.65 554.74 779.97 554.71 C 788.28 517.75 796.58 480.78 804.81 443.80 M 824.54 471.13 C 822.37 481.09 820.18 491.06 817.88 501.00 C 817.27 503.69 816.61 506.64 817.77 509.29 C 819.25 512.90 823.03 515.30 826.94 515.09 C 836.63 515.08 846.33 515.22 856.02 515.02 C 863.33 514.87 869.86 509.09 871.20 501.96 C 873.57 491.27 876.03 480.60 878.34 469.90 C 879.59 465.17 876.37 460.55 872.04 458.87 C 865.38 458.41 858.69 458.72 852.02 458.64 C 847.06 458.71 842.08 458.33 837.17 459.05 C 831.00 459.83 825.89 465.14 824.54 471.13 Z" />
<path fill="#fdeb05" opacity="1.00" d=" M 958.93 437.13 C 966.12 435.07 973.67 435.91 981.04 435.77 C 991.34 435.90 1001.66 435.55 1011.95 435.99 C 1026.23 437.02 1037.97 450.74 1036.89 465.00 C 1036.08 473.10 1034.17 481.49 1029.16 488.11 C 1023.12 496.29 1013.26 501.66 1003.05 501.85 C 985.13 502.02 967.20 501.72 949.28 502.00 C 948.63 505.01 947.78 507.99 947.51 511.07 C 947.32 514.88 949.94 518.62 953.49 519.95 C 959.27 520.94 965.17 520.30 971.01 520.46 C 977.56 520.30 984.15 520.89 990.67 520.03 C 996.30 519.01 1000.12 514.03 1001.88 508.87 C 1010.47 508.89 1019.06 508.90 1027.66 508.87 C 1025.79 519.86 1019.96 530.35 1010.53 536.55 C 1003.93 541.07 995.93 543.37 987.96 543.25 C 974.64 543.20 961.33 543.31 948.02 543.21 C 935.11 543.12 923.41 532.75 921.44 520.07 C 920.46 514.64 921.58 509.17 922.88 503.91 C 925.14 493.92 927.34 483.92 929.57 473.92 C 930.80 468.56 931.68 463.04 934.09 458.05 C 938.84 447.93 948.13 440.05 958.93 437.13 M 959.52 464.43 C 955.98 468.58 955.69 474.26 954.32 479.29 C 968.87 479.23 983.43 479.30 997.99 479.27 C 1003.01 479.49 1007.91 476.37 1009.76 471.69 C 1011.99 467.13 1009.68 460.97 1004.88 459.24 C 999.34 458.00 993.64 458.78 988.03 458.59 C 981.39 458.79 974.69 458.05 968.10 459.13 C 964.69 459.60 961.73 461.89 959.52 464.43 Z" />
<path fill="#fdeb05" opacity="1.00" d=" M 1045.87 543.17 C 1053.96 507.38 1061.93 471.55 1069.96 435.74 C 1078.66 435.74 1087.36 435.72 1096.07 435.75 C 1095.52 437.65 1094.96 439.54 1094.42 441.44 C 1107.15 433.68 1122.64 436.19 1136.81 435.73 C 1134.81 443.41 1133.56 451.27 1131.33 458.89 C 1126.91 458.29 1122.43 458.65 1118.00 458.59 C 1112.12 458.69 1106.21 458.24 1100.37 458.97 C 1093.93 460.07 1088.89 465.76 1087.77 472.08 C 1082.53 495.78 1077.12 519.44 1071.91 543.15 C 1063.23 543.18 1054.55 543.15 1045.87 543.17 Z" />
</g>
<g id="#ff0121ff">
<path fill="#ff0121" opacity="1.00" d=" M 550.33 458.05 C 553.00 456.63 556.09 456.98 559.01 456.96 C 574.67 457.06 590.33 456.95 605.99 457.01 C 612.11 457.06 618.25 456.71 624.36 457.42 C 623.68 457.68 622.34 458.20 621.66 458.46 C 597.89 458.09 574.08 458.90 550.33 458.05 Z" />
<path fill="#ff0121" opacity="1.00" d=" M 953.49 519.95 C 955.78 518.67 958.46 518.98 960.99 518.94 C 969.01 519.02 977.04 519.00 985.06 518.93 C 986.99 518.83 988.90 519.23 990.67 520.03 C 984.15 520.89 977.56 520.30 971.01 520.46 C 965.17 520.30 959.27 520.94 953.49 519.95 Z" />
</g>
<g id="#ff0620ff">
<path fill="#ff0620" opacity="1.00" d=" M 837.17 459.05 C 842.08 458.33 847.06 458.71 852.02 458.64 C 858.69 458.72 865.38 458.41 872.04 458.87 C 864.83 460.99 857.29 459.68 849.92 460.10 C 845.63 460.34 841.36 459.85 837.17 459.05 Z" />
</g>
<g id="#ff0421ff">
<path fill="#ff0421" opacity="1.00" d=" M 968.10 459.13 C 974.69 458.05 981.39 458.79 988.03 458.59 C 993.64 458.78 999.34 458.00 1004.88 459.24 C 1000.61 459.81 996.32 460.25 992.02 460.09 C 984.04 459.79 975.99 460.75 968.10 459.13 Z" />
</g>
<g id="#ff0321ff">
<path fill="#ff0321" opacity="1.00" d=" M 1100.37 458.97 C 1106.21 458.24 1112.12 458.69 1118.00 458.59 C 1122.43 458.65 1126.91 458.29 1131.33 458.89 L 1132.47 459.55 C 1125.68 460.53 1118.81 459.82 1111.99 460.04 C 1108.10 459.97 1104.02 460.62 1100.37 458.97 Z" />
</g>
</svg>
