<?xml version="1.0" encoding="UTF-8" ?>
<!DOCTYPE svg PUBLIC "-//W3C//DTD SVG 1.1//EN" "http://www.w3.org/Graphics/SVG/1.1/DTD/svg11.dtd">
<svg width="1276pt" height="1276pt" viewBox="0 0 1276 1276" version="1.1" xmlns="http://www.w3.org/2000/svg">
<g id="#b2ae85ff">
<path fill="#b2ae85" opacity="1.00" d=" M 121.37 329.23 C 360.24 329.53 599.12 329.30 838.00 329.37 C 935.88 329.37 1033.77 329.37 1131.66 329.37 C 1131.62 538.13 1131.60 746.87 1131.66 955.63 C 901.44 955.63 671.21 955.63 440.99 955.63 C 334.45 955.65 227.91 955.55 121.37 955.78 C 121.37 746.92 121.37 538.08 121.37 329.23 M 144.60 354.61 C 144.67 429.87 144.62 505.12 144.62 580.38 C 220.41 580.65 296.21 580.48 372.00 580.53 C 617.46 580.54 862.92 580.49 1108.38 580.55 C 1108.38 505.24 1108.33 429.92 1108.40 354.61 C 787.13 354.59 465.87 354.59 144.60 354.61 M 144.61 605.79 C 144.65 714.23 144.62 822.67 144.63 931.11 C 465.88 931.12 787.12 931.12 1108.37 931.11 C 1108.38 822.67 1108.35 714.23 1108.39 605.79 C 787.13 605.78 465.87 605.78 144.61 605.79 Z" />
<path fill="#b2ae85" opacity="1.00" d=" M 589.60 376.83 C 590.87 376.81 592.15 376.80 593.44 376.80 C 593.42 389.41 593.40 402.02 593.46 414.63 C 592.16 414.64 590.86 414.67 589.57 414.69 C 588.95 413.02 588.61 410.97 586.83 410.12 C 584.09 408.84 580.94 408.92 577.98 408.73 C 533.87 408.71 489.75 408.77 445.64 408.70 C 445.62 422.08 445.65 435.46 445.62 448.84 C 475.12 448.86 504.62 448.83 534.11 448.86 C 537.92 449.25 542.51 447.67 542.80 443.26 C 544.09 443.27 545.39 443.29 546.70 443.31 C 546.62 456.06 546.66 468.81 546.68 481.57 C 545.72 481.57 543.80 481.56 542.85 481.56 C 542.50 477.69 538.53 475.97 535.08 476.13 C 505.28 475.83 475.46 476.45 445.67 475.86 C 445.58 490.66 445.69 505.46 445.61 520.25 C 490.39 520.29 535.18 520.23 579.96 520.28 C 584.41 520.42 591.21 520.63 592.08 514.87 C 593.32 514.86 594.57 514.85 595.83 514.85 C 595.83 526.98 595.75 539.11 595.87 551.24 C 594.55 551.23 593.23 551.22 591.92 551.22 C 590.25 547.96 586.38 547.28 583.05 547.36 C 521.41 547.36 459.76 547.41 398.11 547.34 C 398.20 546.58 398.37 545.06 398.46 544.31 C 400.34 543.48 402.77 543.91 404.31 542.33 C 405.30 541.12 405.59 539.51 405.60 538.00 C 405.62 490.32 405.57 442.65 405.62 394.97 C 405.48 392.25 406.19 389.05 404.24 386.80 C 402.67 385.23 400.24 385.58 398.24 385.16 C 398.32 384.04 398.40 382.92 398.49 381.81 C 456.99 381.97 515.48 381.82 573.98 381.88 C 578.19 381.65 582.70 382.42 586.68 380.75 C 588.44 380.19 588.93 378.31 589.60 376.83 Z" />
<path fill="#b2ae85" opacity="1.00" d=" M 202.72 392.86 C 219.72 385.04 238.44 381.67 256.99 380.34 C 290.12 377.34 323.73 382.64 354.81 394.30 C 358.44 395.49 362.40 397.96 366.22 396.00 C 368.12 394.83 370.17 396.11 372.09 396.56 C 364.66 407.88 357.64 419.46 350.27 430.83 C 348.77 430.04 347.27 429.26 345.77 428.49 C 345.88 427.60 346.09 425.84 346.20 424.96 C 343.03 421.49 338.58 419.63 334.42 417.65 C 314.82 409.21 293.24 406.56 272.06 406.53 C 255.93 407.15 239.05 407.79 224.32 415.17 C 218.00 418.31 211.93 424.33 212.35 431.91 C 212.33 437.50 217.53 441.18 222.36 442.71 C 230.92 445.60 240.09 445.82 249.03 446.36 C 270.68 446.84 292.38 446.12 313.97 448.11 C 330.66 449.84 348.30 452.70 362.01 463.13 C 372.12 470.72 377.36 483.56 376.90 496.04 C 377.33 505.82 372.93 515.32 366.29 522.34 C 356.62 532.39 343.51 538.26 330.33 542.18 C 308.48 548.50 285.55 549.88 262.92 549.58 C 239.92 549.04 216.63 546.84 194.76 539.30 C 188.01 537.10 181.72 533.75 174.99 531.53 C 173.84 532.28 172.70 533.05 171.56 533.81 C 170.20 533.56 168.85 533.29 167.49 533.05 C 175.33 520.10 183.11 507.13 190.85 494.14 C 192.40 494.75 193.96 495.37 195.51 495.98 C 195.09 498.80 194.57 502.04 196.56 504.43 C 200.71 510.03 207.55 512.61 213.85 514.99 C 236.71 522.50 261.16 523.39 285.01 522.02 C 295.93 521.22 306.93 519.80 317.29 516.15 C 322.88 513.99 328.63 511.20 332.24 506.23 C 336.00 501.17 335.65 493.39 331.20 488.88 C 327.29 484.64 321.58 482.86 316.15 481.49 C 297.06 477.36 277.42 478.82 258.06 477.82 C 239.74 477.38 221.11 476.78 203.43 471.47 C 192.79 468.27 182.18 462.36 176.68 452.31 C 170.98 441.29 170.86 427.50 176.33 416.37 C 181.71 405.48 191.98 397.95 202.72 392.86 Z" />
<path fill="#b2ae85" opacity="1.00" d=" M 650.61 398.61 C 677.22 384.21 708.00 379.05 738.00 379.59 C 756.20 380.38 774.30 383.19 791.94 387.75 C 801.09 390.56 809.92 394.32 819.12 397.00 C 821.98 398.09 824.69 396.27 827.04 394.84 C 828.31 395.35 829.60 395.88 830.90 396.42 C 821.87 408.36 813.26 420.60 804.35 432.63 C 803.11 434.67 801.06 431.96 799.56 431.58 C 800.07 429.36 800.78 426.77 798.89 424.99 C 794.41 420.00 787.87 417.55 781.81 415.05 C 757.68 406.23 731.19 404.55 705.94 408.86 C 689.57 411.89 672.93 417.98 661.11 430.15 C 650.93 440.55 646.37 455.78 648.32 470.11 C 649.55 484.33 657.55 497.54 669.04 505.88 C 684.02 516.82 702.76 521.39 721.04 522.33 C 745.66 523.41 771.39 520.18 793.12 507.87 C 793.11 501.65 793.11 495.44 793.12 489.24 C 777.07 489.13 761.02 489.22 744.96 489.18 C 741.35 489.10 736.66 490.51 736.15 494.69 C 734.84 494.67 733.53 494.65 732.24 494.63 C 732.39 481.26 732.28 467.89 732.30 454.52 C 733.25 454.52 735.15 454.52 736.10 454.52 C 736.76 458.67 741.28 460.05 744.94 459.85 C 776.10 459.83 807.25 459.87 838.41 459.83 C 838.42 460.66 838.44 462.32 838.45 463.15 C 835.72 463.84 833.10 465.93 833.20 469.00 C 833.11 484.68 833.16 500.38 833.18 516.07 C 832.76 519.09 835.80 520.22 838.09 521.04 C 838.10 521.79 838.13 523.29 838.14 524.04 C 807.33 538.34 773.88 547.29 739.95 549.35 C 718.34 550.35 696.47 548.59 675.59 542.77 C 657.72 537.66 640.24 529.22 627.36 515.51 C 614.55 502.12 607.67 483.45 608.18 464.97 C 607.76 453.79 610.44 442.57 615.54 432.63 C 623.17 417.87 636.18 406.50 650.61 398.61 Z" />
<path fill="#b2ae85" opacity="1.00" d=" M 936.26 381.85 C 956.66 381.89 977.06 381.88 997.46 381.86 C 997.47 382.69 997.49 384.35 997.49 385.18 C 995.41 385.73 992.80 385.83 991.59 387.91 C 991.41 390.97 993.67 393.43 995.00 396.00 C 1022.57 443.81 1050.00 491.69 1077.59 539.48 C 1079.23 542.66 1082.60 544.14 1086.08 544.01 C 1086.10 544.85 1086.15 546.53 1086.17 547.37 C 1067.51 547.36 1048.85 547.39 1030.19 547.35 C 1030.23 546.53 1030.31 544.88 1030.36 544.06 C 1032.22 543.82 1034.04 543.29 1035.59 542.18 C 1032.93 535.07 1028.39 528.89 1024.76 522.28 C 1021.16 516.13 1017.61 509.95 1014.03 503.80 C 982.18 503.75 950.33 503.89 918.48 503.73 C 914.23 510.79 910.41 518.09 906.18 525.15 C 903.19 530.43 899.68 535.44 897.42 541.11 C 898.62 542.65 900.20 543.76 902.14 544.16 C 902.16 544.96 902.20 546.56 902.22 547.35 C 885.50 547.38 868.79 547.38 852.07 547.35 C 852.09 546.52 852.13 544.85 852.15 544.01 C 856.81 544.29 860.00 540.65 861.89 536.84 C 888.56 488.19 915.22 439.52 941.84 390.87 C 943.74 387.21 938.92 385.51 936.12 385.17 C 936.16 384.34 936.23 382.68 936.26 381.85 M 931.54 477.63 C 953.61 477.57 975.67 477.62 997.74 477.60 C 986.40 458.00 975.54 438.13 964.22 418.53 C 953.52 438.33 942.45 457.94 931.54 477.63 Z" />
<path fill="#b2ae85" opacity="1.00" d=" M 180.37 633.14 C 477.21 633.16 774.04 633.12 1070.88 633.16 C 1070.80 723.18 1070.88 813.19 1070.84 903.21 C 774.03 903.20 477.22 903.17 180.41 903.22 C 180.33 813.20 180.42 723.17 180.37 633.14 M 641.19 671.60 C 638.50 672.05 634.94 671.64 633.80 674.76 C 635.01 675.63 636.29 676.56 637.88 676.07 C 662.82 673.31 687.93 672.12 713.02 672.23 C 748.84 672.76 784.98 675.74 819.57 685.60 C 834.98 690.16 850.33 696.04 863.30 705.74 C 871.84 712.22 879.45 721.12 881.08 732.05 C 882.62 741.51 879.15 751.03 873.56 758.56 C 865.42 769.49 854.21 777.65 842.63 784.61 C 815.67 800.38 785.93 810.65 756.02 819.26 C 730.83 826.39 705.23 832.09 679.48 836.79 C 676.34 837.83 675.40 833.94 674.16 831.88 C 668.64 818.94 665.51 805.14 662.29 791.50 C 658.05 772.57 654.46 753.50 651.26 734.38 C 651.19 732.90 649.99 731.97 649.15 730.92 C 648.02 731.73 646.18 732.38 646.44 734.12 C 646.43 775.38 646.42 816.64 646.44 857.89 C 646.07 860.53 649.11 860.65 650.94 860.12 C 726.60 848.72 801.83 833.44 875.00 810.88 C 911.87 799.25 948.53 786.12 982.65 767.74 C 998.05 759.11 1013.52 749.66 1025.25 736.24 C 1031.20 729.26 1036.36 720.38 1035.11 710.88 C 1033.80 702.21 1027.68 695.15 1020.74 690.23 C 1011.27 683.49 1000.35 679.08 989.33 675.57 C 968.42 669.07 946.73 665.55 925.02 663.04 C 896.43 659.85 867.65 658.71 838.91 658.43 C 772.82 658.37 706.77 663.42 641.19 671.60 M 585.10 679.99 C 541.01 686.92 497.16 695.42 453.76 705.87 C 407.89 717.05 362.37 730.13 318.43 747.50 C 299.38 755.17 280.54 763.50 262.77 773.82 C 250.06 781.26 237.56 789.54 227.57 800.48 C 221.36 807.44 215.84 816.33 216.91 826.04 C 218.09 835.31 225.06 842.52 232.49 847.54 C 245.38 856.19 260.42 860.88 275.32 864.76 C 316.43 874.74 358.90 877.00 401.03 878.19 C 468.89 879.00 536.73 874.16 604.08 866.00 C 606.27 866.36 607.66 863.61 605.21 862.80 C 554.06 867.63 502.06 867.99 451.44 858.27 C 431.20 854.16 410.96 848.37 393.05 837.84 C 383.34 831.99 374.16 824.20 369.54 813.60 C 365.46 804.40 366.35 793.60 370.68 784.67 C 376.77 771.90 387.31 761.95 398.24 753.29 C 416.74 739.08 437.68 728.44 459.03 719.23 C 500.04 701.98 543.29 690.51 587.05 682.81 C 587.99 682.40 590.34 682.61 589.92 680.96 C 589.93 678.38 586.58 679.97 585.10 679.99 Z" />
</g>
<g id="#000000ff">
<path fill="#000000" opacity="1.00" d=" M 144.60 354.61 C 465.87 354.59 787.13 354.59 1108.40 354.61 C 1108.33 429.92 1108.38 505.24 1108.38 580.55 C 862.92 580.49 617.46 580.54 372.00 580.53 C 296.21 580.48 220.41 580.65 144.62 580.38 C 144.62 505.12 144.67 429.87 144.60 354.61 M 589.60 376.83 C 588.93 378.31 588.44 380.19 586.68 380.75 C 582.70 382.42 578.19 381.65 573.98 381.88 C 515.48 381.82 456.99 381.97 398.49 381.81 C 398.40 382.92 398.32 384.04 398.24 385.16 C 400.24 385.58 402.67 385.23 404.24 386.80 C 406.19 389.05 405.48 392.25 405.62 394.97 C 405.57 442.65 405.62 490.32 405.60 538.00 C 405.59 539.51 405.30 541.12 404.31 542.33 C 402.77 543.91 400.34 543.48 398.46 544.31 C 398.37 545.06 398.20 546.58 398.11 547.34 C 459.76 547.41 521.41 547.36 583.05 547.36 C 586.38 547.28 590.25 547.96 591.92 551.22 C 593.23 551.22 594.55 551.23 595.87 551.24 C 595.75 539.11 595.83 526.98 595.83 514.85 C 594.57 514.85 593.32 514.86 592.08 514.87 C 591.21 520.63 584.41 520.42 579.96 520.28 C 535.18 520.23 490.39 520.29 445.61 520.25 C 445.69 505.46 445.58 490.66 445.67 475.86 C 475.46 476.45 505.28 475.83 535.08 476.13 C 538.53 475.97 542.50 477.69 542.85 481.56 C 543.80 481.56 545.72 481.57 546.68 481.57 C 546.66 468.81 546.62 456.06 546.70 443.31 C 545.39 443.29 544.09 443.27 542.80 443.26 C 542.51 447.67 537.92 449.25 534.11 448.86 C 504.62 448.83 475.12 448.86 445.62 448.84 C 445.65 435.46 445.62 422.08 445.64 408.70 C 489.75 408.77 533.87 408.71 577.98 408.73 C 580.94 408.92 584.09 408.84 586.83 410.12 C 588.61 410.97 588.95 413.02 589.57 414.69 C 590.86 414.67 592.16 414.64 593.46 414.63 C 593.40 402.02 593.42 389.41 593.44 376.80 C 592.15 376.80 590.87 376.81 589.60 376.83 M 202.72 392.86 C 191.98 397.95 181.71 405.48 176.33 416.37 C 170.86 427.50 170.98 441.29 176.68 452.31 C 182.18 462.36 192.79 468.27 203.43 471.47 C 221.11 476.78 239.74 477.38 258.06 477.82 C 277.42 478.82 297.06 477.36 316.15 481.49 C 321.58 482.86 327.29 484.64 331.20 488.88 C 335.65 493.39 336.00 501.17 332.24 506.23 C 328.63 511.20 322.88 513.99 317.29 516.15 C 306.93 519.80 295.93 521.22 285.01 522.02 C 261.16 523.39 236.71 522.50 213.85 514.99 C 207.55 512.61 200.71 510.03 196.56 504.43 C 194.57 502.04 195.09 498.80 195.51 495.98 C 193.96 495.37 192.40 494.75 190.85 494.14 C 183.11 507.13 175.33 520.10 167.49 533.05 C 168.85 533.29 170.20 533.56 171.56 533.81 C 172.70 533.05 173.84 532.28 174.99 531.53 C 181.72 533.75 188.01 537.10 194.76 539.30 C 216.63 546.84 239.92 549.04 262.92 549.58 C 285.55 549.88 308.48 548.50 330.33 542.18 C 343.51 538.26 356.62 532.39 366.29 522.34 C 372.93 515.32 377.33 505.82 376.90 496.04 C 377.36 483.56 372.12 470.72 362.01 463.13 C 348.30 452.70 330.66 449.84 313.97 448.11 C 292.38 446.12 270.68 446.84 249.03 446.36 C 240.09 445.82 230.92 445.60 222.36 442.71 C 217.53 441.18 212.33 437.50 212.35 431.91 C 211.93 424.33 218.00 418.31 224.32 415.17 C 239.05 407.79 255.93 407.15 272.06 406.53 C 293.24 406.56 314.82 409.21 334.42 417.65 C 338.58 419.63 343.03 421.49 346.20 424.96 C 346.09 425.84 345.88 427.60 345.77 428.49 C 347.27 429.26 348.77 430.04 350.27 430.83 C 357.64 419.46 364.66 407.88 372.09 396.56 C 370.17 396.11 368.12 394.83 366.22 396.00 C 362.40 397.96 358.44 395.49 354.81 394.30 C 323.73 382.64 290.12 377.34 256.99 380.34 C 238.44 381.67 219.72 385.04 202.72 392.86 M 650.61 398.61 C 636.18 406.50 623.17 417.87 615.54 432.63 C 610.44 442.57 607.76 453.79 608.18 464.97 C 607.67 483.45 614.55 502.12 627.36 515.51 C 640.24 529.22 657.72 537.66 675.59 542.77 C 696.47 548.59 718.34 550.35 739.95 549.35 C 773.88 547.29 807.33 538.34 838.14 524.04 C 838.13 523.29 838.10 521.79 838.09 521.04 C 835.80 520.22 832.76 519.09 833.18 516.07 C 833.16 500.38 833.11 484.68 833.20 469.00 C 833.10 465.93 835.72 463.84 838.45 463.15 C 838.44 462.32 838.42 460.66 838.41 459.83 C 807.25 459.87 776.10 459.83 744.94 459.85 C 741.28 460.05 736.76 458.67 736.10 454.52 C 735.15 454.52 733.25 454.52 732.30 454.52 C 732.28 467.89 732.39 481.26 732.24 494.63 C 733.53 494.65 734.84 494.67 736.15 494.69 C 736.66 490.51 741.35 489.10 744.96 489.18 C 761.02 489.22 777.07 489.13 793.12 489.24 C 793.11 495.44 793.11 501.65 793.12 507.87 C 771.39 520.18 745.66 523.41 721.04 522.33 C 702.76 521.39 684.02 516.82 669.04 505.88 C 657.55 497.54 649.55 484.33 648.32 470.11 C 646.37 455.78 650.93 440.55 661.11 430.15 C 672.93 417.98 689.57 411.89 705.94 408.86 C 731.19 404.55 757.68 406.23 781.81 415.05 C 787.87 417.55 794.41 420.00 798.89 424.99 C 800.78 426.77 800.07 429.36 799.56 431.58 C 801.06 431.96 803.11 434.67 804.35 432.63 C 813.26 420.60 821.87 408.36 830.90 396.42 C 829.60 395.88 828.31 395.35 827.04 394.84 C 824.69 396.27 821.98 398.09 819.12 397.00 C 809.92 394.32 801.09 390.56 791.94 387.75 C 774.30 383.19 756.20 380.38 738.00 379.59 C 708.00 379.05 677.22 384.21 650.61 398.61 M 936.26 381.85 C 936.23 382.68 936.16 384.34 936.12 385.17 C 938.92 385.51 943.74 387.21 941.84 390.87 C 915.22 439.52 888.56 488.19 861.89 536.84 C 860.00 540.65 856.81 544.29 852.15 544.01 C 852.13 544.85 852.09 546.52 852.07 547.35 C 868.79 547.38 885.50 547.38 902.22 547.35 C 902.20 546.56 902.16 544.96 902.14 544.16 C 900.20 543.76 898.62 542.65 897.42 541.11 C 899.68 535.44 903.19 530.43 906.18 525.15 C 910.41 518.09 914.23 510.79 918.48 503.73 C 950.33 503.89 982.18 503.75 1014.03 503.80 C 1017.61 509.95 1021.16 516.13 1024.76 522.28 C 1028.39 528.89 1032.93 535.07 1035.59 542.18 C 1034.04 543.29 1032.22 543.82 1030.36 544.06 C 1030.31 544.88 1030.23 546.53 1030.19 547.35 C 1048.85 547.39 1067.51 547.36 1086.17 547.37 C 1086.15 546.53 1086.10 544.85 1086.08 544.01 C 1082.60 544.14 1079.23 542.66 1077.59 539.48 C 1050.00 491.69 1022.57 443.81 995.00 396.00 C 993.67 393.43 991.41 390.97 991.59 387.91 C 992.80 385.83 995.41 385.73 997.49 385.18 C 997.49 384.35 997.47 382.69 997.46 381.86 C 977.06 381.88 956.66 381.89 936.26 381.85 Z" />
<path fill="#000000" opacity="1.00" d=" M 931.54 477.63 C 942.45 457.94 953.52 438.33 964.22 418.53 C 975.54 438.13 986.40 458.00 997.74 477.60 C 975.67 477.62 953.61 477.57 931.54 477.63 Z" />
<path fill="#000000" opacity="1.00" d=" M 144.61 605.79 C 465.87 605.78 787.13 605.78 1108.39 605.79 C 1108.35 714.23 1108.38 822.67 1108.37 931.11 C 787.12 931.12 465.88 931.12 144.63 931.11 C 144.62 822.67 144.65 714.23 144.61 605.79 M 180.37 633.14 C 180.42 723.17 180.33 813.20 180.41 903.22 C 477.22 903.17 774.03 903.20 1070.84 903.21 C 1070.88 813.19 1070.80 723.18 1070.88 633.16 C 774.04 633.12 477.21 633.16 180.37 633.14 Z" />
<path fill="#000000" opacity="1.00" d=" M 641.19 671.60 C 706.77 663.42 772.82 658.37 838.91 658.43 C 867.65 658.71 896.43 659.85 925.02 663.04 C 946.73 665.55 968.42 669.07 989.33 675.57 C 1000.35 679.08 1011.27 683.49 1020.74 690.23 C 1027.68 695.15 1033.80 702.21 1035.11 710.88 C 1036.36 720.38 1031.20 729.26 1025.25 736.24 C 1013.52 749.66 998.05 759.11 982.65 767.74 C 948.53 786.12 911.87 799.25 875.00 810.88 C 801.83 833.44 726.60 848.72 650.94 860.12 C 649.11 860.65 646.07 860.53 646.44 857.89 C 646.42 816.64 646.43 775.38 646.44 734.12 C 646.18 732.38 648.02 731.73 649.15 730.92 C 649.99 731.97 651.19 732.90 651.26 734.38 C 654.46 753.50 658.05 772.57 662.29 791.50 C 665.51 805.14 668.64 818.94 674.16 831.88 C 675.40 833.94 676.34 837.83 679.48 836.79 C 705.23 832.09 730.83 826.39 756.02 819.26 C 785.93 810.65 815.67 800.38 842.63 784.61 C 854.21 777.65 865.42 769.49 873.56 758.56 C 879.15 751.03 882.62 741.51 881.08 732.05 C 879.45 721.12 871.84 712.22 863.30 705.74 C 850.33 696.04 834.98 690.16 819.57 685.60 C 784.98 675.74 748.84 672.76 713.02 672.23 C 687.93 672.12 662.82 673.31 637.88 676.07 C 636.29 676.56 635.01 675.63 633.80 674.76 C 634.94 671.64 638.50 672.05 641.19 671.60 Z" />
<path fill="#000000" opacity="1.00" d=" M 585.10 679.99 C 586.58 679.97 589.93 678.38 589.92 680.96 C 590.34 682.61 587.99 682.40 587.05 682.81 C 543.29 690.51 500.04 701.98 459.03 719.23 C 437.68 728.44 416.74 739.08 398.24 753.29 C 387.31 761.95 376.77 771.90 370.68 784.67 C 366.35 793.60 365.46 804.40 369.54 813.60 C 374.16 824.20 383.34 831.99 393.05 837.84 C 410.96 848.37 431.20 854.16 451.44 858.27 C 502.06 867.99 554.06 867.63 605.21 862.80 C 607.66 863.61 606.27 866.36 604.08 866.00 C 536.73 874.16 468.89 879.00 401.03 878.19 C 358.90 877.00 316.43 874.74 275.32 864.76 C 260.42 860.88 245.38 856.19 232.49 847.54 C 225.06 842.52 218.09 835.31 216.91 826.04 C 215.84 816.33 221.36 807.44 227.57 800.48 C 237.56 789.54 250.06 781.26 262.77 773.82 C 280.54 763.50 299.38 755.17 318.43 747.50 C 362.37 730.13 407.89 717.05 453.76 705.87 C 497.16 695.42 541.01 686.92 585.10 679.99 Z" />
</g>
</svg>
