<?xml version="1.0" encoding="UTF-8" ?>
<!DOCTYPE svg PUBLIC "-//W3C//DTD SVG 1.1//EN" "http://www.w3.org/Graphics/SVG/1.1/DTD/svg11.dtd">
<svg width="1276pt" height="1276pt" viewBox="0 0 1276 1276" version="1.1" xmlns="http://www.w3.org/2000/svg">
<g id="#b2ae85ff">
<path fill="#b2ae85" opacity="1.00" d=" M 902.05 443.44 C 909.00 442.85 916.02 442.88 922.98 443.47 C 930.65 443.61 938.33 443.42 946.00 443.53 C 955.93 444.84 966.02 443.94 975.94 445.33 C 978.62 445.45 981.41 445.14 983.95 446.27 C 985.32 445.90 986.72 445.71 988.16 445.71 C 990.94 447.00 994.11 446.19 996.98 447.17 C 1008.33 447.80 1019.60 449.46 1030.89 450.78 C 1033.25 451.29 1035.67 451.56 1038.09 451.86 C 1040.01 452.34 1041.97 452.67 1043.92 453.14 C 1045.96 453.41 1048.02 453.72 1050.06 454.18 C 1055.09 454.90 1060.07 455.95 1065.04 457.04 C 1066.40 457.30 1067.80 457.56 1069.21 457.81 C 1070.74 458.26 1072.31 458.65 1073.86 459.12 C 1075.20 459.45 1076.54 459.78 1077.91 460.15 C 1084.03 461.50 1090.08 463.21 1096.03 465.19 C 1096.55 465.33 1097.58 465.61 1098.10 465.75 C 1102.68 467.45 1107.35 468.89 1111.95 470.55 C 1113.27 471.12 1114.61 471.69 1115.96 472.26 C 1124.16 475.45 1132.06 479.36 1139.74 483.64 C 1146.81 488.32 1154.11 492.82 1160.09 498.91 C 1169.80 507.85 1177.05 519.79 1179.07 532.96 C 1181.67 549.47 1175.57 565.97 1166.79 579.74 C 1156.43 595.95 1142.49 609.53 1127.86 621.87 C 1106.16 639.91 1082.22 655.05 1057.58 668.73 C 1049.48 673.29 1041.19 677.52 1032.96 681.85 C 1029.38 683.68 1025.74 685.38 1022.13 687.13 C 1016.80 689.91 1011.27 692.26 1005.89 694.92 C 1001.22 696.86 996.72 699.16 992.12 701.24 C 983.01 705.00 974.04 709.06 964.89 712.70 C 959.95 714.87 954.91 716.80 949.87 718.73 C 943.00 721.77 935.80 723.99 928.87 726.87 C 925.01 728.39 921.07 729.68 917.19 731.10 C 916.16 731.46 915.15 731.84 914.15 732.24 C 907.50 734.70 900.76 736.93 894.06 739.27 C 889.71 740.90 885.28 742.32 880.85 743.69 C 873.33 746.47 865.60 748.56 858.01 751.11 C 851.41 753.27 844.73 755.16 838.09 757.19 C 837.10 757.50 836.12 757.82 835.15 758.17 C 829.44 759.84 823.68 761.37 818.00 763.12 C 816.97 763.35 815.94 763.59 814.93 763.84 C 806.72 766.51 798.31 768.47 790.00 770.77 C 788.64 771.18 787.26 771.53 785.91 771.92 C 780.65 773.26 775.42 774.74 770.11 775.86 C 767.41 776.63 764.71 777.39 762.01 778.13 C 758.04 779.04 754.10 780.02 750.15 780.95 C 747.37 781.58 744.61 782.26 741.84 782.86 C 740.31 783.32 738.75 783.70 737.23 784.15 C 730.06 785.66 722.95 787.40 715.77 788.85 C 714.23 789.27 712.69 789.64 711.16 790.07 C 709.47 790.42 707.78 790.76 706.12 791.18 C 700.02 792.25 694.00 793.74 687.91 794.84 C 686.27 795.23 684.62 795.55 682.98 795.90 C 679.64 796.68 676.28 797.34 672.93 798.05 C 670.54 798.49 668.12 798.77 665.70 798.97 C 663.69 795.67 664.51 791.72 664.38 788.07 C 664.38 719.73 664.39 651.39 664.38 583.04 C 664.46 579.59 663.89 575.97 665.33 572.71 C 666.27 572.20 667.22 571.69 668.17 571.18 C 669.11 572.64 670.39 574.04 670.55 575.86 C 672.08 586.85 673.41 597.87 674.98 608.85 C 680.47 648.73 686.36 688.63 695.26 727.91 C 698.20 738.23 699.86 749.28 705.82 758.41 C 708.46 757.33 711.20 756.50 714.01 756.03 C 719.32 754.55 724.74 753.48 730.01 751.87 C 731.01 751.61 732.02 751.35 733.03 751.10 C 739.24 749.20 745.58 747.72 751.79 745.81 C 752.80 745.47 753.81 745.13 754.84 744.79 C 760.24 743.26 765.62 741.65 770.97 739.95 C 773.30 739.28 775.59 738.50 777.87 737.68 C 781.54 736.46 785.25 735.37 788.87 733.98 C 795.34 731.83 801.69 729.34 808.16 727.17 C 810.06 726.37 811.98 725.61 813.90 724.84 C 817.01 723.73 820.08 722.48 823.19 721.36 C 828.82 718.94 834.41 716.39 840.17 714.29 C 844.67 712.06 849.21 709.91 853.84 707.96 C 859.36 705.16 865.05 702.67 870.47 699.66 C 873.55 698.02 876.66 696.43 879.72 694.76 C 897.34 684.91 914.47 673.99 929.94 660.97 C 946.48 646.97 961.54 630.31 969.91 610.08 C 975.29 597.34 976.94 583.16 974.83 569.51 C 972.69 555.59 965.94 542.67 956.85 532.04 C 943.41 516.44 925.67 505.20 907.13 496.62 C 903.66 495.13 900.22 493.55 896.69 492.19 C 890.90 489.84 885.03 487.73 879.05 485.93 C 878.01 485.57 876.98 485.22 875.97 484.86 C 875.02 484.54 874.09 484.22 873.17 483.89 C 867.08 482.20 860.97 480.56 854.81 479.20 C 853.17 478.74 851.53 478.37 849.92 477.91 C 848.28 477.56 846.65 477.23 845.05 476.84 C 843.62 476.59 842.18 476.33 840.77 476.07 C 832.25 474.42 823.67 473.05 815.06 472.00 C 812.74 471.51 810.35 471.42 808.06 470.85 C 805.05 470.56 802.04 470.34 799.04 470.11 C 778.76 467.98 758.34 467.37 737.94 467.44 C 730.58 468.31 723.13 467.24 715.80 468.35 C 706.91 468.66 697.99 469.11 689.18 470.13 C 685.50 470.38 681.82 470.63 678.15 470.87 C 675.79 471.47 673.35 471.49 670.98 472.01 C 664.32 472.62 657.70 473.64 651.06 474.45 C 647.29 474.43 647.63 467.92 651.06 467.57 C 654.00 466.99 656.98 466.55 659.94 466.02 C 662.28 465.55 664.68 465.34 667.06 465.05 C 682.20 461.86 697.68 460.60 712.89 457.82 C 715.28 457.59 717.67 457.33 720.07 457.07 C 731.08 455.55 742.10 454.11 753.17 453.11 C 766.70 450.95 780.42 450.19 794.04 448.78 C 801.72 448.39 809.33 447.27 817.03 447.22 C 820.55 445.91 824.46 447.23 827.96 445.83 C 834.34 445.38 840.88 445.97 847.16 444.74 C 854.79 444.76 862.39 444.06 870.03 444.24 C 880.64 442.82 891.38 443.85 902.05 443.44 Z" />
<path fill="#b2ae85" opacity="1.00" d=" M 569.90 483.83 C 576.07 482.80 582.12 481.01 588.35 480.36 C 590.24 481.55 590.09 485.02 587.74 485.56 C 581.84 487.20 575.80 488.31 569.87 489.84 C 568.24 490.33 566.61 490.77 564.99 491.27 C 557.97 493.13 550.92 494.92 544.01 497.14 C 532.58 500.44 521.26 504.08 510.08 508.15 C 509.54 508.28 508.45 508.55 507.90 508.69 C 502.41 511.00 496.76 512.89 491.19 515.01 C 490.18 515.42 489.19 515.85 488.20 516.29 C 482.70 518.34 477.32 520.68 471.86 522.83 C 468.22 524.53 464.51 526.10 460.81 527.67 C 459.59 528.24 458.36 528.80 457.15 529.38 C 453.40 531.23 449.58 532.91 445.80 534.70 C 441.57 536.93 437.19 538.86 432.98 541.13 C 428.44 543.41 424.00 545.90 419.53 548.34 C 412.38 552.22 405.46 556.50 398.48 560.67 C 372.61 576.99 347.97 595.72 327.65 618.72 C 313.14 635.67 300.39 655.00 295.62 677.11 C 293.82 685.07 293.97 693.31 294.31 701.42 C 295.62 717.67 303.26 732.89 313.74 745.19 C 325.45 758.56 340.37 768.77 356.16 776.75 C 361.62 779.56 367.23 782.10 372.93 784.39 C 378.16 786.61 383.59 788.30 388.90 790.32 C 396.62 792.63 404.34 794.92 412.16 796.86 C 413.76 797.29 415.37 797.64 416.99 798.02 C 421.66 799.00 426.31 800.09 431.03 800.83 C 433.00 801.25 435.00 801.58 436.99 801.96 C 438.95 802.40 440.94 802.69 442.91 803.19 C 444.96 803.40 447.03 803.63 449.09 803.88 C 457.64 805.26 466.28 806.21 474.92 806.76 C 480.85 807.90 486.97 807.20 492.92 808.24 C 513.29 809.05 533.71 808.86 554.09 808.34 C 554.60 808.20 555.63 807.94 556.14 807.81 C 562.16 807.53 568.27 807.79 574.22 806.72 C 584.18 806.33 594.12 805.16 604.00 803.90 C 606.17 803.67 608.34 803.50 610.52 803.31 C 610.91 804.87 612.09 806.79 610.69 808.21 C 607.54 809.27 604.21 809.49 600.98 810.15 C 592.28 811.32 583.62 812.76 574.92 813.82 C 567.65 815.09 560.35 816.15 553.02 816.97 C 548.42 817.63 543.80 818.23 539.17 818.67 C 533.47 819.66 527.63 819.73 521.98 821.02 C 518.66 821.48 515.25 821.25 512.00 822.13 C 508.67 822.38 505.35 822.60 502.02 822.85 C 486.12 824.66 470.13 826.01 454.14 826.81 C 450.52 828.03 446.62 826.94 442.96 827.99 C 442.09 828.11 440.33 828.35 439.45 828.47 L 439.46 827.46 C 438.63 827.68 436.99 828.10 436.17 828.31 C 431.46 829.06 426.56 827.87 421.96 829.27 C 417.69 829.46 413.42 829.17 409.16 829.57 C 402.13 830.14 395.02 829.15 388.03 830.41 C 373.36 830.62 358.67 830.40 343.99 830.51 C 341.32 830.48 338.59 830.70 336.01 829.90 C 326.34 829.48 316.54 830.09 306.98 828.72 C 302.99 828.46 298.91 829.02 295.03 827.83 C 293.70 827.97 292.37 828.12 291.05 828.29 C 287.87 826.81 284.26 828.00 281.01 826.84 C 269.28 826.17 257.64 824.49 245.97 823.22 C 243.65 822.71 241.29 822.45 238.95 822.12 C 234.71 821.28 230.42 820.72 226.21 819.78 C 224.44 819.54 222.68 819.28 220.93 819.00 C 217.91 818.37 214.90 817.74 211.86 817.23 C 210.17 816.83 208.47 816.48 206.76 816.18 C 205.22 815.72 203.66 815.35 202.13 814.89 C 193.43 812.86 184.73 810.74 176.29 807.81 C 171.72 806.60 167.32 804.86 162.87 803.31 C 161.62 802.79 160.38 802.28 159.13 801.78 C 141.57 794.75 124.30 785.68 111.11 771.85 C 101.22 761.53 94.45 747.55 95.02 733.04 C 95.23 717.17 102.71 702.46 111.73 689.80 C 121.16 677.07 132.47 665.79 144.56 655.59 C 161.63 641.23 180.12 628.66 199.25 617.22 C 202.33 615.29 205.53 613.56 208.67 611.73 C 212.42 609.42 216.34 607.41 220.18 605.25 C 224.08 603.08 228.01 600.97 231.96 598.90 C 236.33 596.61 240.78 594.48 245.10 592.10 C 248.70 590.27 252.38 588.63 256.02 586.90 C 260.22 584.72 264.48 582.69 268.84 580.86 C 273.74 578.29 278.85 576.18 283.91 573.96 C 285.28 573.32 286.65 572.68 288.03 572.05 C 292.72 570.02 297.41 568.01 302.13 566.09 C 305.35 564.61 308.67 563.40 311.91 561.98 C 312.92 561.56 313.93 561.15 314.95 560.74 C 318.93 559.10 322.93 557.52 326.97 556.03 C 327.93 555.62 328.89 555.20 329.86 554.79 C 335.56 552.51 341.36 550.46 347.10 548.26 C 352.03 546.29 357.06 544.60 362.03 542.76 C 369.62 539.96 377.31 537.42 384.92 534.68 C 385.44 534.54 386.48 534.27 387.00 534.14 C 392.25 532.14 397.65 530.56 402.96 528.74 C 403.47 528.60 404.48 528.33 404.99 528.19 C 406.00 527.78 407.03 527.39 408.06 527.01 C 411.42 525.97 414.80 524.99 418.16 523.93 C 418.65 523.77 419.62 523.46 420.11 523.31 C 421.37 522.89 422.64 522.50 423.92 522.13 C 429.29 520.22 434.80 518.81 440.26 517.19 C 441.17 516.87 442.09 516.58 443.02 516.30 C 444.60 515.78 446.20 515.30 447.80 514.80 C 452.25 513.60 456.66 512.24 461.16 511.23 C 462.40 510.74 463.66 510.27 464.91 509.78 C 465.91 509.60 466.92 509.42 467.94 509.25 C 474.16 506.98 480.77 506.07 487.01 503.86 C 489.36 503.25 491.71 502.64 494.08 502.13 C 500.64 500.21 507.35 498.83 513.91 496.91 C 520.92 495.19 527.95 493.57 534.97 491.87 C 537.66 491.35 540.31 490.64 542.97 489.94 C 548.94 488.43 555.02 487.39 560.99 485.88 C 562.35 485.63 563.73 485.41 565.11 485.17 C 566.69 484.69 568.30 484.29 569.90 483.83 Z" />
</g>
</svg>
