<?xml version="1.0" encoding="UTF-8" ?>
<!DOCTYPE svg PUBLIC "-//W3C//DTD SVG 1.1//EN" "http://www.w3.org/Graphics/SVG/1.1/DTD/svg11.dtd">
<svg width="1276pt" height="1276pt" viewBox="0 0 1276 1276" version="1.1" xmlns="http://www.w3.org/2000/svg">
<g id="#00a7ebff">
<path fill="#00a7eb" opacity="1.00" d=" M 518.59 289.48 C 557.10 274.62 600.58 273.10 640.06 285.11 C 670.53 294.32 698.51 311.55 720.54 334.52 C 745.96 360.85 763.40 394.79 769.79 430.84 C 776.88 470.10 771.05 511.60 753.14 547.27 C 736.09 581.58 708.20 610.39 674.44 628.52 C 649.52 642.07 621.43 649.71 593.09 650.68 C 593.69 613.62 582.78 576.48 562.28 545.60 C 543.47 517.07 516.69 493.85 485.74 479.33 C 458.70 466.51 428.53 460.56 398.65 461.69 C 399.07 425.97 409.90 390.43 429.76 360.71 C 451.05 328.53 482.54 303.24 518.59 289.48 Z" />
</g>
<g id="#e60012ff">
<path fill="#e60012" opacity="1.00" d=" M 856.93 496.86 C 886.89 478.99 922.08 470.15 956.92 471.58 C 1001.48 473.09 1045.05 491.95 1076.85 523.16 C 1100.00 545.76 1117.05 574.58 1125.44 605.84 C 1136.87 647.95 1132.59 694.18 1113.33 733.36 C 1098.14 764.54 1073.85 791.22 1044.16 809.16 C 1017.98 825.20 987.62 834.27 956.94 835.43 C 957.66 796.23 944.99 757.00 921.69 725.49 C 895.14 689.17 854.74 663.24 810.55 654.63 C 796.46 651.81 782.05 650.78 767.70 651.29 C 768.13 619.41 776.93 587.66 793.36 560.31 C 808.84 534.32 830.91 512.30 856.93 496.86 Z" />
</g>
<g id="#6eb92bff">
<path fill="#6eb92b" opacity="1.00" d=" M 330.22 596.24 C 373.64 595.12 417.67 600.48 458.54 615.65 C 477.77 622.91 496.43 632.47 512.02 646.03 C 523.34 656.00 533.11 668.59 536.72 683.48 C 539.77 695.53 537.99 708.53 532.52 719.62 C 525.92 733.17 514.91 744.04 502.83 752.81 C 485.92 764.97 466.67 773.52 446.92 779.90 C 403.24 793.75 356.77 797.59 311.20 794.27 C 273.51 791.20 235.70 783.15 201.70 766.16 C 185.57 757.92 170.19 747.47 158.68 733.32 C 149.96 722.55 143.91 709.03 144.30 694.98 C 144.41 681.82 150.00 669.21 158.09 659.02 C 168.15 646.27 181.52 636.52 195.60 628.65 C 213.31 618.79 232.52 611.91 252.09 606.86 C 277.60 600.25 303.90 597.01 330.22 596.24 Z" />
</g>
<g id="#ffe100ff">
<path fill="#ffe100" opacity="1.00" d=" M 687.37 776.54 C 717.88 774.40 748.65 775.71 778.85 780.59 C 803.80 784.67 828.45 791.26 851.63 801.46 C 868.61 809.07 885.00 818.58 898.53 831.49 C 910.37 842.77 920.04 857.37 921.97 873.93 C 923.97 889.35 918.39 904.92 909.13 917.12 C 897.76 932.22 882.04 943.43 865.53 952.29 C 830.74 970.59 791.74 979.50 752.84 983.28 C 703.26 987.59 652.55 983.89 604.93 968.88 C 580.23 960.90 556.03 949.84 536.19 932.82 C 524.59 922.72 514.54 910.05 510.33 895.04 C 506.40 881.43 508.38 866.48 514.90 854.00 C 522.61 839.08 535.27 827.34 548.97 817.95 C 572.33 802.23 599.15 792.37 626.36 785.69 C 646.39 780.89 666.84 777.96 687.37 776.54 Z" />
</g>
</svg>
