<?xml version="1.0" encoding="UTF-8" ?>
<!DOCTYPE svg PUBLIC "-//W3C//DTD SVG 1.1//EN" "http://www.w3.org/Graphics/SVG/1.1/DTD/svg11.dtd">
<svg width="1276pt" height="1276pt" viewBox="0 0 1276 1276" version="1.1" xmlns="http://www.w3.org/2000/svg">
<g id="#ffffffff">
<path fill="#ffffff" opacity="1.00" d=" M 437.45 308.32 C 481.50 275.32 535.90 256.09 591.01 255.06 C 708.47 255.08 825.93 255.06 943.39 255.07 C 943.36 356.73 943.41 458.38 943.37 560.04 C 917.54 559.77 891.71 560.03 865.88 559.91 C 900.47 595.26 925.61 639.94 936.87 688.18 C 939.46 698.95 941.14 709.92 942.77 720.88 C 944.86 746.86 944.67 773.20 939.85 798.89 C 936.57 817.12 931.39 834.98 924.48 852.16 C 916.95 851.82 909.49 850.41 901.95 850.84 C 889.85 850.69 877.75 851.13 865.66 850.67 C 887.67 808.76 895.12 759.50 886.85 712.91 C 878.26 662.38 850.59 615.48 810.72 583.31 C 782.15 560.05 747.47 544.40 711.11 538.38 C 688.97 534.33 666.41 535.54 644.03 535.37 C 629.01 535.33 613.99 535.44 598.98 535.32 C 593.45 535.26 588.55 530.59 588.43 525.02 C 587.75 519.24 593.38 514.09 599.03 514.59 C 696.07 514.63 793.10 514.61 890.14 514.61 C 890.16 483.35 890.14 452.09 890.14 420.83 C 794.10 420.81 698.05 420.84 602.01 420.82 C 592.60 420.59 583.15 421.41 574.00 423.61 C 543.54 430.77 517.08 452.65 504.00 481.03 C 493.52 503.15 491.57 529.15 498.64 552.59 C 507.55 583.02 531.26 608.63 560.86 619.97 C 568.62 623.01 576.76 625.05 585.03 626.09 C 594.99 627.18 605.02 626.87 615.02 626.91 C 635.01 626.90 655.00 626.92 674.99 626.90 C 709.60 627.39 743.33 643.82 765.83 669.98 C 788.17 695.42 799.51 730.41 795.43 764.10 C 791.45 801.76 768.64 836.41 736.45 856.08 C 728.59 856.14 720.74 855.99 712.89 856.12 C 703.11 856.69 695.28 864.33 691.15 872.74 C 684.50 873.85 677.74 874.28 671.00 874.15 C 574.74 874.13 478.47 874.15 382.20 874.14 C 382.25 904.66 382.26 935.18 382.20 965.70 C 475.44 965.70 568.67 965.67 661.91 965.71 C 661.83 974.16 661.68 982.65 662.69 991.06 C 663.33 1000.43 663.79 1009.97 666.82 1018.94 C 553.98 1018.91 441.15 1018.97 328.31 1018.91 C 328.35 914.66 328.38 810.41 328.29 706.16 C 352.44 706.11 376.59 706.10 400.74 706.17 C 352.35 655.15 325.66 584.25 328.62 514.00 C 330.05 469.93 343.03 426.35 365.49 388.43 C 383.81 357.28 408.51 329.95 437.45 308.32 M 570.90 310.28 C 546.98 313.17 523.54 320.09 501.95 330.77 C 467.12 347.81 437.19 374.62 416.24 407.23 C 396.07 438.42 384.40 474.99 382.51 512.07 C 380.14 554.39 390.39 597.41 412.15 633.83 C 430.34 664.57 456.33 690.68 487.09 708.85 C 520.67 728.94 559.89 739.46 599.02 738.91 C 623.01 738.91 647.00 738.92 670.99 738.91 C 675.17 738.81 679.84 740.17 682.10 743.97 C 686.54 750.49 682.73 762.24 673.96 762.13 C 576.71 762.15 479.45 762.12 382.19 762.14 C 382.12 792.46 382.52 822.81 382.00 853.12 C 398.97 853.72 415.98 853.21 432.96 853.38 C 503.96 853.38 574.96 853.38 645.96 853.38 C 658.25 853.15 670.58 853.85 682.83 853.02 C 697.92 852.36 712.71 847.21 725.80 839.74 C 750.55 825.53 769.08 800.78 775.33 772.88 C 781.95 744.26 775.20 713.02 757.49 689.60 C 740.03 666.06 712.19 649.78 682.78 648.05 C 678.89 647.39 674.95 647.75 671.03 647.68 C 646.10 647.63 621.17 647.79 596.24 647.60 C 575.21 646.74 554.34 640.71 536.38 629.65 C 507.81 612.48 486.52 583.50 479.15 550.94 C 473.72 527.53 475.54 502.51 484.24 480.11 C 496.47 448.18 522.40 421.84 554.14 409.10 C 569.28 402.98 585.66 399.79 602.01 400.24 C 698.05 400.24 794.10 400.25 890.15 400.23 C 890.15 370.17 890.15 340.11 890.14 310.05 L 890.18 308.62 C 794.11 308.58 698.04 308.62 601.97 308.60 C 598.75 308.61 595.51 308.40 592.33 309.00 C 585.19 308.45 578.01 309.64 570.90 310.28 Z" />
</g>
<g id="#034693ff">
<path fill="#034693" opacity="1.00" d=" M 570.90 310.28 C 578.01 309.64 585.19 308.45 592.33 309.00 C 593.87 309.36 595.41 309.80 597.00 309.97 C 694.71 310.09 792.43 309.90 890.14 310.05 C 890.15 340.11 890.15 370.17 890.15 400.23 C 794.10 400.25 698.05 400.24 602.01 400.24 C 585.66 399.79 569.28 402.98 554.14 409.10 C 522.40 421.84 496.47 448.18 484.24 480.11 C 475.54 502.51 473.72 527.53 479.15 550.94 C 486.52 583.50 507.81 612.48 536.38 629.65 C 554.34 640.71 575.21 646.74 596.24 647.60 C 594.11 647.86 592.00 648.26 589.90 648.67 C 614.59 649.43 639.31 648.77 664.01 649.02 C 670.26 648.74 676.68 649.92 682.78 648.05 C 712.19 649.78 740.03 666.06 757.49 689.60 C 775.20 713.02 781.95 744.26 775.33 772.88 C 769.08 800.78 750.55 825.53 725.80 839.74 C 712.71 847.21 697.92 852.36 682.83 853.02 C 678.71 851.54 674.32 851.99 670.04 852.01 C 575.37 851.94 480.69 852.10 386.02 851.93 C 384.58 851.96 383.24 852.35 382.00 853.12 C 382.52 822.81 382.12 792.46 382.19 762.14 C 479.45 762.12 576.71 762.15 673.96 762.13 C 682.73 762.24 686.54 750.49 682.10 743.97 C 679.84 740.17 675.17 738.81 670.99 738.91 C 647.00 738.92 623.01 738.91 599.02 738.91 C 559.89 739.46 520.67 728.94 487.09 708.85 C 456.33 690.68 430.34 664.57 412.15 633.83 C 390.39 597.41 380.14 554.39 382.51 512.07 C 384.40 474.99 396.07 438.42 416.24 407.23 C 437.19 374.62 467.12 347.81 501.95 330.77 C 523.54 320.09 546.98 313.17 570.90 310.28 Z" />
<path fill="#034693" opacity="1.00" d=" M 574.00 423.61 C 583.15 421.41 592.60 420.59 602.01 420.82 C 698.05 420.84 794.10 420.81 890.14 420.83 C 890.14 452.09 890.16 483.35 890.14 514.61 C 793.10 514.61 696.07 514.63 599.03 514.59 C 593.38 514.09 587.75 519.24 588.43 525.02 C 588.55 530.59 593.45 535.26 598.98 535.32 C 613.99 535.44 629.01 535.33 644.03 535.37 C 666.41 535.54 688.97 534.33 711.11 538.38 C 747.47 544.40 782.15 560.05 810.72 583.31 C 850.59 615.48 878.26 662.38 886.85 712.91 C 895.12 759.50 887.67 808.76 865.66 850.67 C 864.69 852.47 863.72 854.28 862.77 856.09 C 820.66 856.09 778.55 856.11 736.45 856.08 C 768.64 836.41 791.45 801.76 795.43 764.10 C 799.51 730.41 788.17 695.42 765.83 669.98 C 743.33 643.82 709.60 627.39 674.99 626.90 C 655.00 626.92 635.01 626.90 615.02 626.91 C 605.02 626.87 594.99 627.18 585.03 626.09 C 576.76 625.05 568.62 623.01 560.86 619.97 C 531.26 608.63 507.55 583.02 498.64 552.59 C 491.57 529.15 493.52 503.15 504.00 481.03 C 517.08 452.65 543.54 430.77 574.00 423.61 Z" />
<path fill="#034693" opacity="1.00" d=" M 671.00 874.15 C 677.74 874.28 684.50 873.85 691.15 872.74 C 689.37 876.54 688.16 880.58 687.27 884.68 C 679.93 890.89 676.17 900.15 672.98 908.98 C 668.55 922.48 666.73 936.79 667.03 950.97 C 667.00 955.70 666.23 960.67 668.32 965.12 C 667.93 965.25 667.15 965.50 666.76 965.63 C 665.14 965.67 663.52 965.69 661.91 965.71 C 568.67 965.67 475.44 965.70 382.20 965.70 C 382.26 935.18 382.25 904.66 382.20 874.14 C 478.47 874.15 574.74 874.13 671.00 874.15 Z" />
</g>
<g id="#002982ff">
<path fill="#002982" opacity="1.00" d=" M 592.33 309.00 C 595.51 308.40 598.75 308.61 601.97 308.60 C 698.04 308.62 794.11 308.58 890.18 308.62 L 890.14 310.05 C 792.43 309.90 694.71 310.09 597.00 309.97 C 595.41 309.80 593.87 309.36 592.33 309.00 Z" />
<path fill="#002982" opacity="1.00" d=" M 382.00 853.12 C 383.24 852.35 384.58 851.96 386.02 851.93 C 480.69 852.10 575.37 851.94 670.04 852.01 C 674.32 851.99 678.71 851.54 682.83 853.02 C 670.58 853.85 658.25 853.15 645.96 853.38 C 574.96 853.38 503.96 853.38 432.96 853.38 C 415.98 853.21 398.97 853.72 382.00 853.12 Z" />
</g>
<g id="#002c84ff">
<path fill="#002c84" opacity="1.00" d=" M 589.90 648.67 C 592.00 648.26 594.11 647.86 596.24 647.60 C 621.17 647.79 646.10 647.63 671.03 647.68 C 674.95 647.75 678.89 647.39 682.78 648.05 C 676.68 649.92 670.26 648.74 664.01 649.02 C 639.31 648.77 614.59 649.43 589.90 648.67 Z" />
</g>
<g id="#f6f6f6ff">
<path fill="#f6f6f6" opacity="1.00" d=" M 862.77 856.09 C 863.72 854.28 864.69 852.47 865.66 850.67 C 877.75 851.13 889.85 850.69 901.95 850.84 C 909.49 850.41 916.95 851.82 924.48 852.16 C 923.13 855.52 921.53 858.79 920.45 862.25 C 920.52 860.19 920.58 858.14 920.60 856.09 C 901.32 856.08 882.04 856.08 862.77 856.09 Z" />
</g>
<g id="#ff0000ff">
<path fill="#ff0000" opacity="1.00" d=" M 691.15 872.74 C 695.28 864.33 703.11 856.69 712.89 856.12 C 720.74 855.99 728.59 856.14 736.45 856.08 C 778.55 856.11 820.66 856.09 862.77 856.09 C 882.04 856.08 901.32 856.08 920.60 856.09 C 920.58 858.14 920.52 860.19 920.45 862.25 C 920.27 874.55 920.42 886.86 920.38 899.17 C 913.53 899.19 906.69 899.13 899.85 899.20 C 876.88 899.33 853.90 899.23 830.93 899.25 C 796.30 899.27 761.67 899.19 727.04 899.28 C 727.19 917.51 727.10 935.74 727.09 953.98 C 733.33 954.12 739.57 954.19 745.81 953.91 C 755.86 953.79 765.90 954.02 775.94 953.93 C 801.26 954.04 826.58 953.77 851.89 954.09 C 865.61 954.20 879.34 954.12 893.06 954.12 C 898.79 953.97 904.39 956.52 908.50 960.44 C 916.35 967.67 920.04 978.52 920.37 989.01 C 920.37 1006.67 920.37 1024.34 920.37 1042.00 C 920.26 1052.15 921.31 1062.71 917.24 1072.30 C 913.49 1082.02 905.05 1091.17 894.08 1091.69 C 825.07 1091.72 756.05 1091.68 687.04 1091.71 C 687.04 1077.42 687.08 1063.13 687.02 1048.84 C 751.47 1048.82 815.91 1048.84 880.35 1048.83 C 880.33 1031.52 880.36 1014.22 880.34 996.91 C 848.74 996.97 817.13 996.78 785.53 997.01 C 777.42 996.92 769.31 997.01 761.21 997.06 C 746.57 996.89 731.93 997.02 717.30 997.01 C 714.18 997.05 711.03 996.97 708.00 996.20 C 706.21 995.48 704.47 994.68 702.79 993.79 C 699.46 991.64 696.63 988.81 694.24 985.69 C 690.23 979.63 687.60 972.64 686.99 965.39 C 687.11 938.48 686.67 911.56 687.27 884.68 C 688.16 880.58 689.37 876.54 691.15 872.74 Z" />
<path fill="#ff0000" opacity="1.00" d=" M 965.90 856.62 C 973.89 855.86 981.97 856.51 990.00 856.30 C 1051.98 856.29 1113.97 856.31 1175.96 856.29 C 1175.96 870.58 1175.91 884.87 1175.98 899.16 C 1111.53 899.18 1047.09 899.16 982.64 899.17 C 982.66 949.06 982.66 998.94 982.64 1048.83 C 1033.70 1048.81 1084.75 1048.88 1135.80 1048.79 C 1135.68 1031.52 1135.76 1014.24 1135.76 996.97 C 1107.35 996.83 1078.95 996.95 1050.54 996.91 C 1050.57 982.64 1050.54 968.38 1050.56 954.11 C 1092.36 954.18 1134.16 954.12 1175.97 954.14 C 1175.93 1000.00 1175.95 1045.85 1175.96 1091.71 C 1106.97 1091.69 1037.97 1091.71 968.98 1091.70 C 961.64 1091.47 954.99 1087.05 950.71 1081.28 C 944.70 1073.59 942.36 1063.63 942.43 1054.01 C 942.47 999.79 942.39 945.57 942.47 891.35 C 942.74 876.83 950.59 860.08 965.90 856.62 Z" />
</g>
<g id="#033e82ff">
<path fill="#033e82" opacity="1.00" d=" M 672.98 908.98 C 676.17 900.15 679.93 890.89 687.27 884.68 C 686.67 911.56 687.11 938.48 686.99 965.39 C 686.30 965.41 684.92 965.47 684.23 965.50 C 681.10 965.65 677.97 965.72 674.85 965.71 C 672.15 965.70 669.45 965.64 666.76 965.63 C 667.15 965.50 667.93 965.25 668.32 965.12 C 666.23 960.67 667.00 955.70 667.03 950.97 C 666.73 936.79 668.55 922.48 672.98 908.98 Z" />
</g>
<g id="#012247ff">
<path fill="#012247" opacity="1.00" d=" M 727.04 899.28 C 761.67 899.19 796.30 899.27 830.93 899.25 C 828.78 901.37 826.65 903.52 824.46 905.61 C 817.29 912.51 809.65 918.91 801.63 924.79 C 795.77 929.02 789.65 932.84 783.50 936.62 C 771.50 943.50 758.91 949.42 745.81 953.91 C 739.57 954.19 733.33 954.12 727.09 953.98 C 727.10 935.74 727.19 917.51 727.04 899.28 Z" />
</g>
<g id="#888888ff">
<path fill="#888888" opacity="1.00" d=" M 830.93 899.25 C 853.90 899.23 876.88 899.33 899.85 899.20 C 898.23 901.47 896.64 903.78 895.07 906.09 C 879.37 906.18 863.67 906.12 847.97 906.13 C 840.13 905.95 832.26 906.63 824.46 905.61 C 826.65 903.52 828.78 901.37 830.93 899.25 Z" />
</g>
<g id="#7a7a7aff">
<path fill="#7a7a7a" opacity="1.00" d=" M 801.63 924.79 C 809.65 918.91 817.29 912.51 824.46 905.61 C 832.26 906.63 840.13 905.95 847.97 906.13 C 863.67 906.12 879.37 906.18 895.07 906.09 C 890.22 912.87 885.23 919.57 879.70 925.81 C 871.83 924.56 863.85 925.47 855.94 925.19 C 837.83 924.93 819.71 925.71 801.63 924.79 Z" />
</g>
<g id="#848484ff">
<path fill="#848484" opacity="1.00" d=" M 783.50 936.62 C 789.65 932.84 795.77 929.02 801.63 924.79 C 819.71 925.71 837.83 924.93 855.94 925.19 C 863.85 925.47 871.83 924.56 879.70 925.81 C 876.61 929.63 873.27 933.24 869.87 936.78 C 862.36 935.00 854.60 936.12 846.97 935.90 C 829.99 935.73 813.01 935.94 796.03 935.87 C 791.85 936.08 787.69 936.72 783.50 936.62 Z" />
</g>
<g id="#979797ff">
<path fill="#979797" opacity="1.00" d=" M 783.50 936.62 C 787.69 936.72 791.85 936.08 796.03 935.87 C 813.01 935.94 829.99 935.73 846.97 935.90 C 854.60 936.12 862.36 935.00 869.87 936.78 C 866.70 940.21 863.36 943.49 860.01 946.76 L 859.81 946.72 C 854.30 945.19 848.57 945.87 842.94 945.80 C 828.30 945.80 813.66 945.80 799.02 945.79 C 790.35 945.80 781.82 948.20 774.05 951.93 C 774.67 952.59 775.30 953.25 775.94 953.93 C 765.90 954.02 755.86 953.79 745.81 953.91 C 758.91 949.42 771.50 943.50 783.50 936.62 Z" />
</g>
<g id="#a8a8a8ff">
<path fill="#a8a8a8" opacity="1.00" d=" M 774.05 951.93 C 781.82 948.20 790.35 945.80 799.02 945.79 C 813.66 945.80 828.30 945.80 842.94 945.80 C 848.57 945.87 854.30 945.19 859.81 946.72 C 857.28 949.30 854.59 951.70 851.89 954.09 C 826.58 953.77 801.26 954.04 775.94 953.93 C 775.30 953.25 774.67 952.59 774.05 951.93 Z" />
</g>
<g id="#eeeeeeff">
<path fill="#eeeeee" opacity="1.00" d=" M 661.91 965.71 C 663.52 965.69 665.14 965.67 666.76 965.63 C 669.45 965.64 672.15 965.70 674.85 965.71 C 674.40 979.17 675.17 992.64 677.13 1005.96 C 677.81 1010.29 679.07 1014.50 680.34 1018.69 C 679.92 1018.72 679.09 1018.79 678.67 1018.83 C 674.72 1019.04 670.77 1018.91 666.82 1018.94 C 663.79 1009.97 663.33 1000.43 662.69 991.06 C 661.68 982.65 661.83 974.16 661.91 965.71 Z" />
</g>
<g id="#d9d9d9ff">
<path fill="#d9d9d9" opacity="1.00" d=" M 674.85 965.71 C 677.97 965.72 681.10 965.65 684.23 965.50 C 684.56 983.10 684.24 1001.09 689.71 1018.05 C 686.58 1018.25 683.45 1018.42 680.34 1018.69 C 679.07 1014.50 677.81 1010.29 677.13 1005.96 C 675.17 992.64 674.40 979.17 674.85 965.71 Z" />
</g>
<g id="#c1c1c1ff">
<path fill="#c1c1c1" opacity="1.00" d=" M 684.23 965.50 C 684.92 965.47 686.30 965.41 686.99 965.39 C 687.60 972.64 690.23 979.63 694.24 985.69 C 694.69 991.76 694.80 997.89 696.13 1003.87 C 696.81 1008.11 698.54 1012.07 699.49 1016.25 C 699.78 1017.31 698.71 1018.10 698.34 1019.03 C 691.78 1018.78 685.22 1019.24 678.67 1018.83 C 679.09 1018.79 679.92 1018.72 680.34 1018.69 C 683.45 1018.42 686.58 1018.25 689.71 1018.05 C 684.24 1001.09 684.56 983.10 684.23 965.50 Z" />
</g>
<g id="#a6a6a6ff">
<path fill="#a6a6a6" opacity="1.00" d=" M 694.24 985.69 C 696.63 988.81 699.46 991.64 702.79 993.79 C 703.57 1002.30 705.72 1010.81 710.15 1018.19 L 709.99 1018.74 C 706.14 1019.28 702.22 1018.79 698.34 1019.03 C 698.71 1018.10 699.78 1017.31 699.49 1016.25 C 698.54 1012.07 696.81 1008.11 696.13 1003.87 C 694.80 997.89 694.69 991.76 694.24 985.69 Z" />
</g>
<g id="#969696ff">
<path fill="#969696" opacity="1.00" d=" M 702.79 993.79 C 704.47 994.68 706.21 995.48 708.00 996.20 C 709.62 1003.83 711.78 1011.31 715.43 1018.25 C 713.88 1018.59 712.35 1018.69 710.82 1018.54 L 710.15 1018.19 C 705.72 1010.81 703.57 1002.30 702.79 993.79 Z" />
</g>
<g id="#868686ff">
<path fill="#868686" opacity="1.00" d=" M 708.00 996.20 C 711.03 996.97 714.18 997.05 717.30 997.01 C 719.20 999.11 719.97 1001.84 720.65 1004.53 C 721.77 1008.87 724.41 1012.58 727.00 1016.16 C 723.15 1016.89 719.29 1017.58 715.43 1018.25 C 711.78 1011.31 709.62 1003.83 708.00 996.20 Z" />
</g>
<g id="#767676ff">
<path fill="#767676" opacity="1.00" d=" M 717.30 997.01 C 731.93 997.02 746.57 996.89 761.21 997.06 C 760.15 997.48 759.10 997.92 758.06 998.40 C 761.76 1000.70 765.81 1002.33 769.96 1003.65 C 756.01 1008.98 741.63 1013.16 727.00 1016.16 C 724.41 1012.58 721.77 1008.87 720.65 1004.53 C 719.97 1001.84 719.20 999.11 717.30 997.01 Z" />
</g>
<g id="#838383ff">
<path fill="#838383" opacity="1.00" d=" M 761.21 997.06 C 769.31 997.01 777.42 996.92 785.53 997.01 C 780.47 999.52 775.19 1001.53 769.96 1003.65 C 765.81 1002.33 761.76 1000.70 758.06 998.40 C 759.10 997.92 760.15 997.48 761.21 997.06 Z" />
</g>
</svg>
