<?xml version="1.0" encoding="UTF-8" ?>
<!DOCTYPE svg PUBLIC "-//W3C//DTD SVG 1.1//EN" "http://www.w3.org/Graphics/SVG/1.1/DTD/svg11.dtd">
<svg width="1276pt" height="1276pt" viewBox="0 0 1276 1276" version="1.1" xmlns="http://www.w3.org/2000/svg">
<g id="#a17fffff">
<path fill="#a17fff" opacity="1.00" d=" M 506.56 294.59 C 547.16 275.48 594.73 271.92 637.79 284.44 C 668.67 293.34 697.10 310.46 719.52 333.47 C 745.52 359.97 763.35 394.39 769.82 430.96 C 777.33 472.60 770.20 516.72 749.75 553.78 C 731.46 587.15 702.76 614.72 668.61 631.54 C 645.18 643.21 619.22 649.81 593.06 650.66 C 593.72 613.38 582.62 576.02 561.89 545.03 C 541.39 514.14 511.49 489.57 477.16 475.55 C 452.40 465.30 425.41 460.70 398.66 461.69 C 399.06 426.95 409.31 392.37 428.16 363.17 C 447.13 333.52 474.64 309.43 506.56 294.59 Z" />
<path fill="#a17fff" opacity="1.00" d=" M 329.25 596.27 C 371.91 595.05 415.12 600.13 455.45 614.50 C 474.91 621.58 493.82 630.89 509.83 644.15 C 521.51 653.96 531.79 666.30 536.10 681.17 C 539.76 693.32 538.51 706.70 533.20 718.17 C 526.72 732.38 515.33 743.73 502.84 752.81 C 485.22 765.47 465.08 774.23 444.43 780.68 C 401.26 793.94 355.48 797.57 310.57 794.23 C 271.21 790.91 231.58 782.28 196.56 763.44 C 181.53 755.20 167.31 744.79 156.90 731.01 C 148.71 720.16 143.43 706.64 144.38 692.89 C 145.11 677.78 152.95 663.93 163.14 653.11 C 177.38 638.14 195.58 627.59 214.42 619.46 C 250.69 604.24 290.08 597.53 329.25 596.27 Z" />
</g>
<g id="#5013ecff">
<path fill="#5013ec" opacity="1.00" d=" M 855.68 497.62 C 883.37 480.81 915.64 471.68 948.03 471.46 C 977.22 471.13 1006.48 477.95 1032.46 491.28 C 1064.71 507.71 1091.82 533.99 1109.23 565.72 C 1126.86 597.56 1134.47 634.78 1130.84 670.99 C 1127.09 713.24 1107.57 753.67 1077.36 783.36 C 1045.48 814.81 1001.74 833.93 956.94 835.43 C 957.65 796.66 945.27 757.87 922.46 726.54 C 896.77 690.89 857.81 665.01 814.87 655.54 C 799.42 652.06 783.52 650.70 767.71 651.30 C 768.13 618.44 777.50 585.71 794.88 557.80 C 810.02 533.31 831.04 512.50 855.68 497.62 Z" />
<path fill="#5013ec" opacity="1.00" d=" M 694.24 776.11 C 725.23 774.50 756.43 776.35 786.95 782.00 C 809.35 786.20 831.42 792.49 852.27 801.76 C 868.19 808.92 883.51 817.81 896.49 829.58 C 907.57 839.69 917.02 852.32 920.71 867.07 C 923.76 878.85 922.45 891.55 917.58 902.66 C 911.96 915.64 902.27 926.43 891.41 935.31 C 875.70 948.07 857.40 957.25 838.56 964.40 C 795.97 980.15 750.16 985.88 704.92 984.83 C 664.45 983.80 623.75 977.15 586.04 962.07 C 570.32 955.70 555.13 947.72 541.68 937.31 C 530.43 928.59 520.33 917.91 514.09 904.99 C 508.47 893.53 506.76 880.15 509.81 867.71 C 513.45 852.36 523.33 839.25 534.95 828.91 C 555.04 811.06 580.04 799.76 605.40 791.55 C 634.13 782.38 664.17 777.75 694.24 776.11 Z" />
</g>
</svg>
