<?xml version="1.0" encoding="UTF-8" ?>
<!DOCTYPE svg PUBLIC "-//W3C//DTD SVG 1.1//EN" "http://www.w3.org/Graphics/SVG/1.1/DTD/svg11.dtd">
<svg width="1276pt" height="1276pt" viewBox="0 0 1276 1276" version="1.1" xmlns="http://www.w3.org/2000/svg">
<g id="#00a7ebff">
<path fill="#00a7eb" opacity="1.00" d=" M 518.55 289.49 C 557.08 274.62 600.59 273.09 640.09 285.12 C 674.19 295.42 705.12 315.80 728.17 342.94 C 750.59 369.18 765.53 401.75 770.63 435.90 C 776.76 476.05 769.40 518.13 749.78 553.72 C 732.20 585.81 705.02 612.56 672.58 629.52 C 648.13 642.44 620.72 649.74 593.08 650.68 C 593.70 613.37 582.62 575.99 561.87 544.99 C 541.37 514.13 511.50 489.59 477.20 475.57 C 452.43 465.30 425.42 460.71 398.65 461.69 C 399.07 425.73 410.05 389.96 430.15 360.12 C 451.43 328.23 482.74 303.17 518.55 289.49 Z" />
</g>
<g id="#e60012ff">
<path fill="#e60012" opacity="1.00" d=" M 865.93 491.87 C 893.83 477.30 925.58 470.30 957.02 471.59 C 1001.54 473.12 1045.05 491.96 1076.83 523.14 C 1099.99 545.75 1117.06 574.58 1125.45 605.87 C 1136.87 647.95 1132.59 694.14 1113.36 733.30 C 1098.17 764.50 1073.88 791.20 1044.18 809.15 C 1018.00 825.20 987.62 834.28 956.94 835.43 C 957.65 796.67 945.27 757.87 922.47 726.54 C 895.64 689.28 854.29 662.75 809.11 654.35 C 795.48 651.73 781.56 650.80 767.70 651.29 C 768.13 618.21 777.63 585.27 795.24 557.23 C 812.41 529.66 837.08 506.80 865.93 491.87 Z" />
</g>
<g id="#6eb92bff">
<path fill="#6eb92b" opacity="1.00" d=" M 330.21 596.24 C 372.82 595.13 415.98 600.30 456.21 614.78 C 475.84 621.98 494.91 631.49 510.93 645.09 C 522.34 654.91 532.31 667.24 536.33 681.99 C 539.72 693.92 538.38 706.94 533.20 718.16 C 526.83 732.15 515.68 743.38 503.42 752.38 C 486.86 764.43 467.99 772.94 448.62 779.35 C 404.45 793.66 357.36 797.62 311.20 794.27 C 273.77 791.22 236.23 783.25 202.41 766.51 C 186.24 758.35 170.82 747.98 159.18 733.94 C 150.41 723.31 144.20 709.98 144.29 695.99 C 144.16 683.50 148.97 671.37 156.29 661.39 C 165.74 648.46 178.69 638.52 192.41 630.47 C 210.98 619.64 231.34 612.21 252.11 606.85 C 277.61 600.25 303.91 597.01 330.21 596.24 Z" />
</g>
<g id="#ffe100ff">
<path fill="#ffe100" opacity="1.00" d=" M 687.35 776.54 C 717.57 774.42 748.04 775.68 777.96 780.44 C 803.20 784.51 828.14 791.13 851.58 801.44 C 867.96 808.76 883.75 817.87 897.02 830.06 C 909.30 841.37 919.54 856.03 921.83 872.91 C 924.12 888.16 918.94 903.72 909.96 915.99 C 898.56 931.67 882.43 943.22 865.50 952.30 C 827.47 972.25 784.56 981.14 742.00 984.15 C 695.40 986.93 648.00 982.76 603.44 968.40 C 579.27 960.45 555.61 949.50 536.18 932.81 C 524.79 922.89 514.91 910.52 510.57 895.86 C 506.56 882.72 508.04 868.19 513.99 855.87 C 520.66 841.79 531.96 830.49 544.29 821.26 C 567.87 804.11 595.56 793.52 623.64 786.36 C 644.52 781.15 665.89 778.04 687.35 776.54 Z" />
</g>
</svg>
