<?xml version="1.0" encoding="UTF-8" ?>
<!DOCTYPE svg PUBLIC "-//W3C//DTD SVG 1.1//EN" "http://www.w3.org/Graphics/SVG/1.1/DTD/svg11.dtd">
<svg width="1276pt" height="1276pt" viewBox="0 0 1276 1276" version="1.1" xmlns="http://www.w3.org/2000/svg">
<g id="#800000ff">
<path fill="#800000" opacity="1.00" d=" M 410.43 192.58 C 440.74 180.78 473.71 177.99 505.98 178.09 C 515.60 178.40 525.33 178.14 534.84 179.82 C 553.36 183.60 570.24 193.32 584.39 205.65 C 598.04 217.77 609.56 232.60 616.46 249.59 C 621.60 262.27 623.80 276.64 620.06 290.00 C 617.13 300.78 610.00 310.08 601.14 316.72 C 596.09 320.43 590.58 323.43 584.90 326.05 C 583.11 322.96 581.49 319.78 579.59 316.76 C 585.65 315.80 591.60 313.42 596.07 309.13 C 603.62 302.28 607.09 292.00 607.76 282.04 C 609.04 263.25 602.32 244.59 591.55 229.40 C 583.40 218.04 572.90 208.21 560.58 201.53 C 552.23 197.29 543.12 194.59 533.88 193.22 C 507.96 188.94 481.36 191.52 455.80 196.90 C 432.77 202.03 410.12 209.34 388.80 219.48 C 406.95 216.67 425.28 215.01 443.66 215.39 C 453.86 215.76 464.09 217.10 473.85 220.19 C 477.13 221.17 480.18 222.76 483.05 224.61 C 460.08 219.06 435.97 222.14 413.35 227.84 C 396.11 232.07 379.31 238.26 363.61 246.57 C 350.45 253.70 337.34 262.28 328.95 275.00 C 338.76 272.15 349.18 270.98 358.39 266.38 C 372.15 263.38 385.55 258.89 399.14 255.21 C 405.50 253.53 411.66 251.07 418.19 250.10 C 398.11 260.09 377.55 269.43 358.76 281.79 C 336.36 294.30 315.13 310.05 300.28 331.27 C 295.51 338.25 291.27 345.83 289.57 354.20 C 298.88 351.00 307.58 346.32 316.44 342.09 C 326.93 337.09 337.28 331.80 347.74 326.71 C 359.29 320.89 371.18 315.77 382.64 309.78 C 381.62 311.03 380.47 312.19 379.15 313.12 C 367.84 320.68 356.08 327.53 344.29 334.32 C 334.57 339.59 324.89 345.29 316.86 352.99 C 303.39 365.76 299.68 385.19 299.53 403.02 C 298.80 419.52 303.14 435.88 310.31 450.65 C 316.85 464.19 325.34 476.77 335.06 488.22 C 355.66 513.21 380.69 534.22 407.14 552.75 C 409.92 554.74 412.84 556.54 415.82 558.24 C 409.09 542.74 402.79 526.12 404.29 508.92 C 404.62 502.47 410.37 496.69 407.88 490.10 C 405.31 484.56 399.50 481.76 395.07 477.93 C 391.19 474.67 386.79 470.52 387.21 464.98 C 387.19 459.58 390.64 455.13 393.33 450.75 C 385.39 452.96 377.10 452.99 368.93 452.59 C 366.32 452.46 363.79 451.76 361.29 451.08 C 365.43 447.95 370.19 445.66 373.87 441.95 C 380.65 435.29 384.96 426.53 387.63 417.51 C 384.75 419.40 381.96 421.57 378.64 422.65 C 374.73 423.84 370.58 423.49 366.55 423.35 C 366.73 418.21 368.26 412.80 372.61 409.65 C 381.14 403.26 391.52 400.07 400.60 394.58 C 402.57 393.74 404.78 391.49 406.98 392.96 C 413.29 396.50 419.60 400.02 426.11 403.17 C 420.36 406.16 414.32 409.00 409.98 414.00 C 409.33 414.91 407.45 416.06 408.77 417.26 C 413.64 423.61 418.86 430.76 418.62 439.15 C 418.38 445.73 413.29 450.60 408.61 454.62 C 405.46 457.54 401.58 460.47 400.83 464.99 C 400.33 467.75 402.67 469.80 404.42 471.55 C 410.69 477.34 417.98 482.00 423.81 488.27 C 425.26 490.07 427.41 492.42 425.97 494.85 C 420.20 509.14 417.23 524.64 418.22 540.07 C 418.48 549.15 421.22 557.86 422.65 566.77 C 405.74 559.41 390.09 549.41 375.02 538.84 C 348.02 519.30 323.04 496.16 304.90 467.99 C 293.52 450.14 285.03 429.56 285.39 408.08 C 285.48 391.01 292.10 374.42 302.61 361.10 C 293.05 366.88 285.20 375.02 275.90 381.12 C 272.35 369.42 270.49 356.71 273.73 344.72 C 276.90 333.12 284.82 323.53 293.60 315.61 C 309.41 301.60 327.97 291.27 345.96 280.41 C 335.65 282.41 325.43 285.15 314.93 285.95 C 315.41 271.03 325.26 258.40 336.73 249.74 C 355.50 235.73 378.18 227.91 400.97 223.43 C 391.07 223.83 381.27 225.44 371.38 225.94 C 378.15 209.25 394.39 199.03 410.43 192.58 Z" />
<path fill="#800000" opacity="1.00" d=" M 548.45 321.06 C 548.53 321.10 548.68 321.17 548.76 321.21 C 548.59 326.33 548.46 331.45 548.41 336.57 C 547.75 336.67 546.44 336.87 545.78 336.97 C 547.02 331.73 547.93 326.42 548.45 321.06 Z" />
</g>
<g id="#db4c4cff">
<path fill="#db4c4c" opacity="1.00" d=" M 455.80 196.90 C 481.36 191.52 507.96 188.94 533.88 193.22 C 529.99 194.31 526.06 195.22 522.07 195.81 C 495.52 200.52 469.44 207.56 443.66 215.39 C 425.28 215.01 406.95 216.67 388.80 219.48 C 410.12 209.34 432.77 202.03 455.80 196.90 Z" />
<path fill="#db4c4c" opacity="1.00" d=" M 363.61 246.57 C 379.31 238.26 396.11 232.07 413.35 227.84 C 401.25 236.69 388.69 244.90 376.43 253.52 C 370.43 257.83 364.07 261.64 358.39 266.38 C 349.18 270.98 338.76 272.15 328.95 275.00 C 337.34 262.28 350.45 253.70 363.61 246.57 Z" />
<path fill="#db4c4c" opacity="1.00" d=" M 300.28 331.27 C 315.13 310.05 336.36 294.30 358.76 281.79 L 360.95 281.51 C 356.87 288.04 351.22 293.35 346.03 298.97 C 336.80 308.82 327.01 318.45 320.34 330.31 C 318.22 333.92 317.13 337.99 316.44 342.09 C 307.58 346.32 298.88 351.00 289.57 354.20 C 291.27 345.83 295.51 338.25 300.28 331.27 Z" />
<path fill="#db4c4c" opacity="1.00" d=" M 405.27 315.63 C 416.34 313.01 427.30 317.79 437.53 321.52 C 445.16 324.00 452.60 327.33 460.60 328.44 C 470.35 330.84 480.48 329.21 490.16 327.27 C 495.40 326.22 500.76 326.80 506.05 327.11 C 509.26 327.30 512.21 329.39 513.84 332.10 C 515.30 336.81 511.81 340.85 509.80 344.77 C 507.00 350.11 502.40 354.08 498.24 358.32 C 496.41 360.16 494.31 361.76 491.92 362.78 C 485.58 365.49 478.89 367.50 472.03 368.25 C 455.47 369.45 438.91 367.26 422.61 364.51 C 412.71 362.71 402.45 365.65 394.42 371.54 C 390.80 374.36 386.74 376.49 382.87 378.91 C 376.52 383.19 369.13 385.57 361.89 387.83 C 352.02 390.36 341.91 381.02 342.80 371.07 C 341.74 362.39 348.27 355.43 354.62 350.55 C 358.88 347.71 363.69 345.82 367.93 342.92 C 376.41 338.06 385.13 333.15 391.73 325.77 C 395.72 321.82 399.83 317.45 405.27 315.63 Z" />
<path fill="#db4c4c" opacity="1.00" d=" M 299.53 403.02 C 299.68 385.19 303.39 365.76 316.86 352.99 C 312.27 380.32 311.57 408.53 316.52 435.86 C 319.83 454.19 326.46 471.75 335.06 488.22 C 325.34 476.77 316.85 464.19 310.31 450.65 C 303.14 435.88 298.80 419.52 299.53 403.02 Z" />
</g>
<g id="#cc0000ff">
<path fill="#cc0000" opacity="1.00" d=" M 533.88 193.22 C 543.12 194.59 552.23 197.29 560.58 201.53 C 572.90 208.21 583.40 218.04 591.55 229.40 C 602.32 244.59 609.04 263.25 607.76 282.04 C 607.09 292.00 603.62 302.28 596.07 309.13 C 591.60 313.42 585.65 315.80 579.59 316.76 L 578.94 316.31 C 583.73 312.30 584.06 304.43 579.11 300.41 C 585.83 287.49 591.91 273.78 593.43 259.15 C 594.53 249.13 591.49 238.11 583.23 231.77 C 571.70 222.51 556.62 220.05 542.71 216.38 C 534.84 214.63 527.21 212.02 519.67 209.23 C 526.55 219.58 537.86 225.56 546.58 234.11 C 529.59 230.81 512.22 231.84 495.05 232.61 C 472.19 233.76 449.34 236.15 426.43 235.04 C 432.51 239.24 439.90 240.67 447.00 242.14 C 468.51 246.09 490.38 248.10 511.63 253.45 C 526.63 257.39 541.88 262.81 553.52 273.46 C 562.34 281.54 567.52 293.20 567.89 305.14 C 567.48 305.32 566.66 305.68 566.25 305.86 C 563.68 299.78 560.99 293.56 556.32 288.75 C 545.56 277.03 530.01 271.21 514.68 268.40 C 489.26 263.74 463.08 265.86 437.86 270.71 C 412.64 275.79 387.98 283.72 364.63 294.51 C 360.73 296.17 356.71 297.73 353.45 300.52 C 364.42 301.31 375.24 298.86 385.96 296.92 C 418.11 290.48 450.19 282.67 483.03 280.73 C 496.71 280.54 510.58 279.96 524.02 282.99 C 536.38 285.71 548.81 290.89 557.25 300.66 C 559.23 302.77 560.67 305.87 563.82 306.40 C 557.07 307.76 549.97 306.22 543.42 308.63 C 544.04 312.29 544.76 315.94 545.48 319.59 C 546.46 320.07 547.45 320.56 548.45 321.06 C 547.93 326.42 547.02 331.73 545.78 336.97 C 542.44 350.21 537.67 363.16 530.80 374.99 C 525.37 384.29 518.48 392.78 510.14 399.62 C 497.81 409.53 481.79 414.47 466.02 413.49 C 462.92 413.36 459.84 413.02 456.78 412.57 C 446.15 410.95 436.03 407.19 426.11 403.17 C 419.60 400.02 413.29 396.50 406.98 392.96 C 404.78 391.49 402.57 393.74 400.60 394.58 C 391.52 400.07 381.14 403.26 372.61 409.65 C 368.26 412.80 366.73 418.21 366.55 423.35 C 370.58 423.49 374.73 423.84 378.64 422.65 C 381.96 421.57 384.75 419.40 387.63 417.51 C 384.96 426.53 380.65 435.29 373.87 441.95 C 370.19 445.66 365.43 447.95 361.29 451.08 C 363.79 451.76 366.32 452.46 368.93 452.59 C 377.10 452.99 385.39 452.96 393.33 450.75 C 390.64 455.13 387.19 459.58 387.21 464.98 C 386.79 470.52 391.19 474.67 395.07 477.93 C 399.50 481.76 405.31 484.56 407.88 490.10 C 410.37 496.69 404.62 502.47 404.29 508.92 C 402.79 526.12 409.09 542.74 415.82 558.24 C 412.84 556.54 409.92 554.74 407.14 552.75 C 380.69 534.22 355.66 513.21 335.06 488.22 C 326.46 471.75 319.83 454.19 316.52 435.86 C 311.57 408.53 312.27 380.32 316.86 352.99 C 324.89 345.29 334.57 339.59 344.29 334.32 C 341.97 339.15 336.93 341.60 333.45 345.44 C 328.19 350.38 326.05 357.58 324.62 364.43 C 322.42 377.51 327.89 391.44 338.03 399.89 C 345.07 405.29 354.35 406.95 363.02 405.85 C 371.03 405.69 378.10 401.59 385.15 398.25 C 393.61 394.35 400.81 388.26 409.08 384.03 C 416.67 380.46 425.03 383.52 432.89 384.18 C 446.86 386.61 461.17 387.51 475.31 386.11 C 484.80 384.19 494.77 382.55 503.00 377.09 C 511.95 371.62 519.39 363.78 524.76 354.80 C 527.46 350.42 530.74 346.30 532.32 341.35 C 535.04 333.77 534.59 324.27 528.61 318.33 C 521.11 310.89 510.19 308.84 500.04 308.29 C 487.80 308.56 475.63 313.16 463.37 310.62 C 455.23 308.44 447.01 306.34 439.29 302.91 C 430.21 298.88 420.32 296.72 410.40 296.57 C 402.76 296.28 395.45 299.18 389.02 303.07 C 386.29 304.67 384.59 307.39 382.64 309.78 C 371.18 315.77 359.29 320.89 347.74 326.71 C 337.28 331.80 326.93 337.09 316.44 342.09 C 317.13 337.99 318.22 333.92 320.34 330.31 C 327.01 318.45 336.80 308.82 346.03 298.97 C 351.22 293.35 356.87 288.04 360.95 281.51 L 358.76 281.79 C 377.55 269.43 398.11 260.09 418.19 250.10 C 411.66 251.07 405.50 253.53 399.14 255.21 C 385.55 258.89 372.15 263.38 358.39 266.38 C 364.07 261.64 370.43 257.83 376.43 253.52 C 388.69 244.90 401.25 236.69 413.35 227.84 C 435.97 222.14 460.08 219.06 483.05 224.61 C 480.18 222.76 477.13 221.17 473.85 220.19 C 464.09 217.10 453.86 215.76 443.66 215.39 C 469.44 207.56 495.52 200.52 522.07 195.81 C 526.06 195.22 529.99 194.31 533.88 193.22 M 531.37 356.42 C 520.30 369.98 506.09 381.31 489.65 387.60 C 469.56 395.79 446.95 396.08 425.99 391.29 C 420.84 390.23 415.91 388.37 410.80 387.18 C 414.26 390.59 418.72 392.65 422.81 395.17 C 437.71 403.53 454.81 409.34 472.09 407.74 C 484.48 406.79 496.32 401.59 506.06 393.99 C 520.43 382.61 531.03 367.04 538.24 350.31 C 538.65 349.08 539.01 347.83 539.32 346.57 C 536.24 349.49 534.10 353.19 531.37 356.42 Z" />
<path fill="#cc0000" opacity="1.00" d=" M 385.74 799.70 C 387.47 799.41 389.20 799.10 390.95 798.81 C 391.99 800.30 393.04 801.81 394.10 803.30 C 391.40 804.02 388.67 804.83 386.36 806.46 C 386.15 804.20 385.94 801.95 385.74 799.70 Z" />
<path fill="#cc0000" opacity="1.00" d=" M 369.73 801.53 C 372.60 801.36 375.47 801.10 378.33 800.76 C 378.57 804.75 378.92 808.73 379.37 812.71 C 376.57 815.68 373.83 818.73 371.40 822.02 C 370.58 815.21 370.34 808.36 369.73 801.53 Z" />
<path fill="#cc0000" opacity="1.00" d=" M 762.91 816.89 C 779.77 856.81 795.78 897.25 806.89 939.21 C 807.31 940.74 807.37 942.35 807.17 943.95 C 797.19 983.69 787.73 1023.57 777.62 1063.28 C 780.28 1067.30 783.52 1070.89 786.76 1074.45 C 790.30 1078.29 793.87 1082.13 797.60 1085.81 C 800.36 1088.44 803.12 1091.09 805.39 1094.18 C 801.75 1093.82 797.94 1094.51 794.40 1093.61 C 789.78 1090.27 785.76 1086.14 781.07 1082.87 C 751.61 1060.97 717.00 1045.34 680.48 1040.41 C 693.10 1024.60 700.55 1005.34 704.64 985.68 C 716.84 983.99 729.03 982.24 741.15 980.05 C 751.18 978.03 761.43 976.20 770.69 971.68 C 773.14 970.29 776.05 968.88 777.20 966.13 C 777.49 963.44 777.23 960.73 777.11 958.04 C 774.93 910.77 769.19 863.76 762.91 816.89 Z" />
<path fill="#cc0000" opacity="1.00" d=" M 373.22 838.02 C 376.07 843.63 380.26 848.45 384.92 852.64 C 388.44 874.60 393.66 896.25 399.26 917.76 C 402.38 929.50 404.01 942.17 400.17 953.95 C 396.15 967.14 385.98 977.01 376.56 986.54 C 366.50 996.71 357.07 1008.64 354.59 1023.12 C 358.26 1019.44 360.80 1014.88 363.35 1010.41 C 366.83 1004.44 368.48 997.41 373.29 992.23 C 380.54 983.15 391.58 978.64 400.45 971.48 C 406.25 966.83 410.05 959.86 410.71 952.45 C 411.64 943.62 410.12 934.74 407.95 926.21 C 402.20 903.90 396.66 881.49 392.98 858.74 C 395.28 860.16 397.25 862.05 398.67 864.38 C 401.04 868.13 404.21 871.33 407.84 873.89 C 408.76 884.00 411.11 893.92 412.20 904.03 C 413.34 914.63 414.81 925.24 414.71 935.93 C 414.67 944.61 415.26 953.44 413.11 961.95 C 410.81 971.47 405.43 979.89 399.52 987.57 C 396.08 992.18 391.93 996.21 388.65 1000.95 C 396.79 997.10 403.41 990.86 410.48 985.42 C 416.59 980.27 423.68 976.02 428.39 969.41 C 433.56 962.06 436.67 953.07 436.27 944.03 C 436.07 937.62 432.98 931.45 434.18 924.98 C 435.78 914.57 442.94 906.34 449.77 898.81 C 458.66 889.38 467.94 880.19 478.42 872.52 C 474.47 896.77 469.74 920.90 464.46 944.89 C 463.54 948.99 462.98 953.23 461.22 957.08 C 458.24 963.74 454.56 970.12 452.38 977.11 C 451.60 979.95 450.80 983.55 453.09 985.95 C 457.59 990.99 464.46 993.15 471.04 993.47 C 480.54 993.89 490.01 992.65 499.51 992.75 C 494.79 1009.37 491.41 1026.79 493.35 1044.12 C 481.66 1047.44 470.44 1052.52 460.59 1059.67 C 449.15 1067.94 439.24 1079.02 434.55 1092.52 C 417.72 1092.54 400.88 1092.39 384.05 1092.35 C 370.99 1092.13 357.86 1092.81 344.87 1091.17 C 336.80 1089.97 329.36 1086.06 323.29 1080.69 C 312.79 1072.98 307.13 1059.85 307.26 1046.98 C 307.03 1039.90 308.45 1032.88 310.65 1026.18 C 320.04 1035.22 335.02 1037.19 346.70 1031.68 C 346.60 1031.99 346.38 1032.62 346.27 1032.94 C 340.34 1037.94 333.14 1041.20 325.87 1043.77 C 323.39 1044.63 320.42 1046.04 320.25 1049.05 C 319.72 1055.47 325.37 1062.33 332.00 1062.17 C 336.01 1061.40 339.12 1058.48 342.57 1056.49 C 356.79 1048.07 365.67 1033.01 370.70 1017.66 C 372.82 1010.62 375.03 1003.43 374.85 996.00 C 370.19 1006.84 363.52 1016.75 355.36 1025.26 C 354.03 1026.65 352.42 1027.74 350.72 1028.64 C 352.82 1023.64 353.21 1018.13 355.19 1013.09 C 358.65 1002.94 364.80 993.93 371.93 986.01 C 379.66 977.16 388.59 968.57 391.97 956.96 C 395.97 943.44 392.80 929.20 389.20 915.97 C 382.41 890.31 377.15 864.27 373.22 838.02 Z" />
<path fill="#cc0000" opacity="1.00" d=" M 566.00 993.32 C 587.25 993.28 608.50 992.77 629.73 991.83 C 626.80 1006.32 625.43 1021.55 629.41 1035.99 C 604.14 1034.53 578.99 1039.14 553.72 1038.13 C 560.23 1023.99 564.44 1008.81 566.00 993.32 Z" />
</g>
<g id="#a30000ff">
<path fill="#a30000" opacity="1.00" d=" M 519.67 209.23 C 527.21 212.02 534.84 214.63 542.71 216.38 C 556.62 220.05 571.70 222.51 583.23 231.77 C 591.49 238.11 594.53 249.13 593.43 259.15 C 591.91 273.78 585.83 287.49 579.11 300.41 C 577.83 299.79 576.43 298.85 575.20 300.08 C 575.87 294.75 577.03 289.45 576.98 284.05 C 577.15 273.81 573.28 263.73 567.01 255.72 C 568.33 261.49 570.41 267.09 571.06 273.01 C 572.62 283.08 571.83 293.28 571.39 303.41 C 570.24 304.03 569.06 304.59 567.89 305.14 C 567.52 293.20 562.34 281.54 553.52 273.46 C 541.88 262.81 526.63 257.39 511.63 253.45 C 490.38 248.10 468.51 246.09 447.00 242.14 C 439.90 240.67 432.51 239.24 426.43 235.04 C 449.34 236.15 472.19 233.76 495.05 232.61 C 512.22 231.84 529.59 230.81 546.58 234.11 C 537.86 225.56 526.55 219.58 519.67 209.23 Z" />
<path fill="#a30000" opacity="1.00" d=" M 437.86 270.71 C 463.08 265.86 489.26 263.74 514.68 268.40 C 530.01 271.21 545.56 277.03 556.32 288.75 C 560.99 293.56 563.68 299.78 566.25 305.86 C 565.64 306.00 564.43 306.26 563.82 306.40 C 560.67 305.87 559.23 302.77 557.25 300.66 C 548.81 290.89 536.38 285.71 524.02 282.99 C 510.58 279.96 496.71 280.54 483.03 280.73 C 450.19 282.67 418.11 290.48 385.96 296.92 C 375.24 298.86 364.42 301.31 353.45 300.52 C 356.71 297.73 360.73 296.17 364.63 294.51 C 387.98 283.72 412.64 275.79 437.86 270.71 Z" />
<path fill="#a30000" opacity="1.00" d=" M 450.07 724.75 C 461.08 718.95 471.98 712.94 483.07 707.30 C 486.13 722.06 487.57 737.09 488.16 752.13 C 478.36 747.55 468.11 744.02 458.19 739.80 C 454.83 735.19 452.91 729.68 450.07 724.75 Z" />
<path fill="#a30000" opacity="1.00" d=" M 474.05 868.99 C 478.17 867.92 476.61 862.20 480.14 860.50 C 479.71 864.52 479.11 868.53 478.42 872.52 C 467.94 880.19 458.66 889.38 449.77 898.81 C 442.94 906.34 435.78 914.57 434.18 924.98 C 432.98 931.45 436.07 937.62 436.27 944.03 C 436.67 953.07 433.56 962.06 428.39 969.41 C 423.68 976.02 416.59 980.27 410.48 985.42 C 403.41 990.86 396.79 997.10 388.65 1000.95 C 391.93 996.21 396.08 992.18 399.52 987.57 C 405.43 979.89 410.81 971.47 413.11 961.95 C 415.26 953.44 414.67 944.61 414.71 935.93 C 414.81 925.24 413.34 914.63 412.20 904.03 C 411.11 893.92 408.76 884.00 407.84 873.89 C 414.96 878.35 423.32 882.16 431.91 881.32 C 446.34 878.80 460.55 874.72 474.05 868.99 Z" />
<path fill="#a30000" opacity="1.00" d=" M 374.85 996.00 C 375.03 1003.43 372.82 1010.62 370.70 1017.66 C 365.67 1033.01 356.79 1048.07 342.57 1056.49 C 339.12 1058.48 336.01 1061.40 332.00 1062.17 C 325.37 1062.33 319.72 1055.47 320.25 1049.05 C 320.42 1046.04 323.39 1044.63 325.87 1043.77 C 333.14 1041.20 340.34 1037.94 346.27 1032.94 C 346.38 1032.62 346.60 1031.99 346.70 1031.68 L 346.81 1031.36 C 347.97 1030.49 349.14 1029.65 350.34 1028.85 L 350.72 1028.64 C 352.42 1027.74 354.03 1026.65 355.36 1025.26 C 363.52 1016.75 370.19 1006.84 374.85 996.00 Z" />
</g>
<g id="#cd0000ff">
<path fill="#cd0000" opacity="1.00" d=" M 567.01 255.72 C 573.28 263.73 577.15 273.81 576.98 284.05 C 577.03 289.45 575.87 294.75 575.20 300.08 C 573.94 301.20 572.71 302.37 571.39 303.41 C 571.83 293.28 572.62 283.08 571.06 273.01 C 570.41 267.09 568.33 261.49 567.01 255.72 Z" />
</g>
<g id="#d01414ff">
<path fill="#d01414" opacity="1.00" d=" M 389.02 303.07 C 395.45 299.18 402.76 296.28 410.40 296.57 C 420.32 296.72 430.21 298.88 439.29 302.91 C 447.01 306.34 455.23 308.44 463.37 310.62 C 475.63 313.16 487.80 308.56 500.04 308.29 C 510.19 308.84 521.11 310.89 528.61 318.33 C 534.59 324.27 535.04 333.77 532.32 341.35 C 530.74 346.30 527.46 350.42 524.76 354.80 C 519.39 363.78 511.95 371.62 503.00 377.09 C 494.77 382.55 484.80 384.19 475.31 386.11 C 461.17 387.51 446.86 386.61 432.89 384.18 C 425.03 383.52 416.67 380.46 409.08 384.03 C 400.81 388.26 393.61 394.35 385.15 398.25 C 378.10 401.59 371.03 405.69 363.02 405.85 C 354.35 406.95 345.07 405.29 338.03 399.89 C 327.89 391.44 322.42 377.51 324.62 364.43 C 326.05 357.58 328.19 350.38 333.45 345.44 C 336.93 341.60 341.97 339.15 344.29 334.32 C 356.08 327.53 367.84 320.68 379.15 313.12 C 380.47 312.19 381.62 311.03 382.64 309.78 C 384.59 307.39 386.29 304.67 389.02 303.07 M 408.27 307.12 C 404.78 307.61 401.23 308.27 398.21 310.18 C 391.13 313.79 386.51 320.48 380.71 325.68 C 370.03 334.49 356.68 339.22 345.89 347.90 C 339.14 353.14 334.60 361.33 334.57 369.97 C 334.73 377.12 337.27 384.50 342.64 389.42 C 348.08 395.50 357.25 397.19 364.89 395.00 C 380.37 391.41 392.62 380.74 406.49 373.66 C 415.13 370.03 424.45 372.92 433.32 373.81 C 440.15 375.22 447.12 375.47 454.02 376.30 C 466.25 376.59 479.05 376.63 490.41 371.46 C 500.73 367.82 509.01 359.98 514.85 350.89 C 517.55 346.51 520.61 342.27 522.45 337.42 C 524.32 333.32 522.45 328.49 519.82 325.18 C 511.86 319.25 501.19 317.43 491.54 319.34 C 484.46 320.78 477.28 322.04 470.04 321.72 C 454.58 321.72 440.99 313.35 426.41 309.47 C 420.50 308.01 414.41 305.97 408.27 307.12 Z" />
</g>
<g id="#d3d7cfff">
<path fill="#d3d7cf" opacity="1.00" d=" M 575.20 300.08 C 576.43 298.85 577.83 299.79 579.11 300.41 C 584.06 304.43 583.73 312.30 578.94 316.31 C 570.25 322.46 558.95 324.17 548.76 321.21 C 548.68 321.17 548.53 321.10 548.45 321.06 C 547.45 320.56 546.46 320.07 545.48 319.59 C 544.76 315.94 544.04 312.29 543.42 308.63 C 549.97 306.22 557.07 307.76 563.82 306.40 C 564.43 306.26 565.64 306.00 566.25 305.86 C 566.66 305.68 567.48 305.32 567.89 305.14 C 569.06 304.59 570.24 304.03 571.39 303.41 C 572.71 302.37 573.94 301.20 575.20 300.08 Z" />
</g>
<g id="#d73939ff">
<path fill="#d73939" opacity="1.00" d=" M 408.27 307.12 C 414.41 305.97 420.50 308.01 426.41 309.47 C 440.99 313.35 454.58 321.72 470.04 321.72 C 477.28 322.04 484.46 320.78 491.54 319.34 C 501.19 317.43 511.86 319.25 519.82 325.18 C 522.45 328.49 524.32 333.32 522.45 337.42 C 520.61 342.27 517.55 346.51 514.85 350.89 C 509.01 359.98 500.73 367.82 490.41 371.46 C 479.05 376.63 466.25 376.59 454.02 376.30 C 447.12 375.47 440.15 375.22 433.32 373.81 C 424.45 372.92 415.13 370.03 406.49 373.66 C 392.62 380.74 380.37 391.41 364.89 395.00 C 357.25 397.19 348.08 395.50 342.64 389.42 C 337.27 384.50 334.73 377.12 334.57 369.97 C 334.60 361.33 339.14 353.14 345.89 347.90 C 356.68 339.22 370.03 334.49 380.71 325.68 C 386.51 320.48 391.13 313.79 398.21 310.18 C 401.23 308.27 404.78 307.61 408.27 307.12 M 405.27 315.63 C 399.83 317.45 395.72 321.82 391.73 325.77 C 385.13 333.15 376.41 338.06 367.93 342.92 C 363.69 345.82 358.88 347.71 354.62 350.55 C 348.27 355.43 341.74 362.39 342.80 371.07 C 341.91 381.02 352.02 390.36 361.89 387.83 C 369.13 385.57 376.52 383.19 382.87 378.91 C 386.74 376.49 390.80 374.36 394.42 371.54 C 402.45 365.65 412.71 362.71 422.61 364.51 C 438.91 367.26 455.47 369.45 472.03 368.25 C 478.89 367.50 485.58 365.49 491.92 362.78 C 494.31 361.76 496.41 360.16 498.24 358.32 C 502.40 354.08 507.00 350.11 509.80 344.77 C 511.81 340.85 515.30 336.81 513.84 332.10 C 512.21 329.39 509.26 327.30 506.05 327.11 C 500.76 326.80 495.40 326.22 490.16 327.27 C 480.48 329.21 470.35 330.84 460.60 328.44 C 452.60 327.33 445.16 324.00 437.53 321.52 C 427.30 317.79 416.34 313.01 405.27 315.63 Z" />
</g>
<g id="#2c3e46ff">
<path fill="#2c3e46" opacity="1.00" d=" M 601.14 316.72 C 604.31 315.68 607.72 315.91 611.02 315.70 C 624.38 315.38 638.03 315.31 650.99 319.01 C 657.35 320.77 663.69 325.04 665.28 331.82 C 685.55 413.59 705.53 495.45 726.53 577.03 C 727.08 580.59 726.11 584.77 722.90 586.81 C 717.89 590.18 712.72 593.32 707.72 596.71 C 699.94 601.58 692.25 606.62 684.54 611.61 C 681.78 613.34 679.19 615.49 676.05 616.48 C 670.61 615.84 665.50 613.64 660.14 612.55 C 659.61 615.68 659.37 619.45 656.43 621.38 C 651.50 624.71 645.65 626.36 640.01 628.07 C 622.76 632.47 604.70 633.08 587.02 631.56 C 552.09 628.84 517.90 619.20 485.90 605.10 C 482.12 603.71 480.32 599.84 479.86 596.09 C 472.46 534.89 464.05 473.80 456.78 412.57 C 459.84 413.02 462.92 413.36 466.02 413.49 C 469.03 425.09 466.73 437.21 469.23 448.87 C 470.44 454.70 470.44 460.70 471.84 466.50 C 474.57 482.48 476.12 498.64 478.39 514.69 C 482.07 542.09 485.34 569.54 489.03 596.93 C 505.80 604.40 523.22 610.42 540.99 615.03 C 562.22 620.36 584.08 623.82 606.02 623.38 C 621.35 623.38 636.97 621.25 650.98 614.74 C 650.43 611.67 649.83 608.62 649.14 605.59 C 653.08 605.10 657.04 604.63 660.90 603.65 C 661.05 603.22 661.37 602.36 661.52 601.93 C 661.64 602.33 661.87 603.14 661.98 603.54 C 666.14 604.34 670.28 605.28 674.43 606.15 C 688.36 595.98 703.26 587.22 717.75 577.89 C 696.79 496.82 677.11 415.42 656.82 334.18 C 645.69 344.27 631.81 350.55 617.99 356.04 C 590.13 366.81 560.53 372.71 530.80 374.99 C 537.67 363.16 542.44 350.21 545.78 336.97 C 546.44 336.87 547.75 336.67 548.41 336.57 C 548.36 338.04 548.32 339.52 548.27 341.01 C 561.98 346.65 577.70 342.44 589.32 334.04 C 587.88 331.36 586.40 328.70 584.90 326.05 C 590.58 323.43 596.09 320.43 601.14 316.72 Z" />
</g>
<g id="#888a85ff">
<path fill="#888a85" opacity="1.00" d=" M 548.76 321.21 C 558.95 324.17 570.25 322.46 578.94 316.31 L 579.59 316.76 C 581.49 319.78 583.11 322.96 584.90 326.05 C 586.40 328.70 587.88 331.36 589.32 334.04 C 577.70 342.44 561.98 346.65 548.27 341.01 C 548.32 339.52 548.36 338.04 548.41 336.57 C 548.46 331.45 548.59 326.33 548.76 321.21 Z" />
</g>
<g id="#425b68ff">
<path fill="#425b68" opacity="1.00" d=" M 617.99 356.04 C 631.81 350.55 645.69 344.27 656.82 334.18 C 677.11 415.42 696.79 496.82 717.75 577.89 C 703.26 587.22 688.36 595.98 674.43 606.15 C 666.13 562.41 657.45 518.73 649.00 475.02 C 648.62 473.57 648.65 471.88 650.23 471.20 C 656.48 466.97 663.14 463.36 669.38 459.11 C 668.72 447.27 667.87 435.44 667.47 423.60 C 667.48 422.74 667.49 421.03 667.50 420.17 C 657.41 426.38 646.16 430.24 635.24 434.67 C 634.63 434.85 633.41 435.19 632.80 435.37 C 627.25 436.82 621.78 438.55 616.31 440.27 C 614.31 440.29 612.35 440.72 610.47 441.37 C 591.66 446.15 572.06 447.88 552.70 446.23 C 558.39 457.10 564.70 467.64 570.40 478.50 C 570.76 478.11 571.48 477.32 571.84 476.93 C 572.19 479.81 572.60 482.69 573.02 485.56 C 585.75 485.06 598.33 482.83 611.02 481.88 C 614.35 481.65 617.66 481.19 620.93 480.46 C 622.32 484.25 622.94 488.27 623.82 492.21 C 632.30 529.99 640.63 567.81 649.14 605.59 C 649.83 608.62 650.43 611.67 650.98 614.74 C 636.97 621.25 621.35 623.38 606.02 623.38 C 584.08 623.82 562.22 620.36 540.99 615.03 C 523.22 610.42 505.80 604.40 489.03 596.93 C 485.34 569.54 482.07 542.09 478.39 514.69 C 476.12 498.64 474.57 482.48 471.84 466.50 C 472.01 464.68 472.24 462.89 472.47 461.09 C 478.22 500.85 483.63 540.66 489.51 580.40 C 490.25 584.66 490.18 589.14 491.76 593.21 C 495.01 596.28 499.20 598.10 503.07 600.28 C 501.93 582.86 499.92 565.50 499.19 548.04 C 496.91 499.95 497.10 450.98 509.21 404.07 C 509.54 402.59 509.83 401.10 510.14 399.62 C 518.48 392.78 525.37 384.29 530.80 374.99 C 560.53 372.71 590.13 366.81 617.99 356.04 Z" />
<path fill="#425b68" opacity="1.00" d=" M 897.70 693.19 C 898.11 688.52 899.15 683.95 900.63 679.52 C 907.81 682.02 915.49 683.33 923.09 682.28 C 922.07 687.60 920.20 692.70 918.62 697.88 C 912.43 694.00 904.90 692.86 897.70 693.19 Z" />
<path fill="#425b68" opacity="1.00" d=" M 896.19 698.96 C 902.54 702.12 909.79 703.12 916.82 702.52 C 916.28 706.90 915.01 711.16 913.05 715.11 C 907.00 711.83 900.00 710.55 893.16 710.93 C 893.95 706.89 894.92 702.88 896.19 698.96 Z" />
<path fill="#425b68" opacity="1.00" d=" M 891.94 716.97 C 898.16 719.69 905.13 721.10 911.91 720.10 C 911.01 723.76 909.92 727.37 908.77 730.97 C 902.87 727.71 895.94 726.82 889.29 727.11 C 889.96 723.68 890.82 720.28 891.94 716.97 Z" />
<path fill="#425b68" opacity="1.00" d=" M 810.24 726.28 C 810.82 724.96 812.04 724.27 813.43 724.01 C 813.00 725.43 812.60 726.87 812.23 728.33 C 866.49 737.62 920.87 746.25 975.10 755.71 C 977.16 769.47 979.45 783.19 981.74 796.92 C 962.73 790.57 943.88 783.70 924.95 777.09 C 918.72 774.90 912.57 772.45 906.20 770.74 C 901.12 788.39 894.87 805.68 889.11 823.12 C 878.54 853.90 867.76 884.62 856.21 915.05 C 854.33 919.13 853.49 923.82 850.49 927.30 C 850.58 915.82 852.11 904.40 853.01 892.96 C 855.65 865.94 858.74 838.96 862.33 812.04 C 864.57 796.68 866.58 781.26 869.87 766.07 C 860.64 764.52 851.24 764.36 841.95 763.40 C 825.33 761.76 808.62 760.92 792.05 758.91 C 798.20 748.08 804.19 737.17 810.24 726.28 Z" />
</g>
<g id="#8f0000ff">
<path fill="#8f0000" opacity="1.00" d=" M 531.37 356.42 C 534.10 353.19 536.24 349.49 539.32 346.57 C 539.01 347.83 538.65 349.08 538.24 350.31 C 531.03 367.04 520.43 382.61 506.06 393.99 C 496.32 401.59 484.48 406.79 472.09 407.74 C 454.81 409.34 437.71 403.53 422.81 395.17 C 418.72 392.65 414.26 390.59 410.80 387.18 C 415.91 388.37 420.84 390.23 425.99 391.29 C 446.95 396.08 469.56 395.79 489.65 387.60 C 506.09 381.31 520.30 369.98 531.37 356.42 Z" />
</g>
<g id="#2e4049ff">
<path fill="#2e4049" opacity="1.00" d=" M 466.02 413.49 C 481.79 414.47 497.81 409.53 510.14 399.62 C 509.83 401.10 509.54 402.59 509.21 404.07 C 497.10 450.98 496.91 499.95 499.19 548.04 C 499.92 565.50 501.93 582.86 503.07 600.28 C 499.20 598.10 495.01 596.28 491.76 593.21 C 490.18 589.14 490.25 584.66 489.51 580.40 C 483.63 540.66 478.22 500.85 472.47 461.09 C 472.24 462.89 472.01 464.68 471.84 466.50 C 470.44 460.70 470.44 454.70 469.23 448.87 C 466.73 437.21 469.03 425.09 466.02 413.49 Z" />
</g>
<g id="#000000ff">
<path fill="#000000" opacity="1.00" d=" M 635.24 434.67 C 646.16 430.24 657.41 426.38 667.50 420.17 C 667.49 421.03 667.48 422.74 667.47 423.60 C 665.22 425.03 662.97 426.45 660.74 427.88 C 660.31 436.79 660.81 445.77 659.87 454.63 C 651.83 458.97 643.38 462.52 635.14 466.46 C 643.35 509.68 651.92 552.84 660.19 596.06 C 660.56 598.03 661.02 599.98 661.52 601.93 C 661.37 602.36 661.05 603.22 660.90 603.65 C 657.04 604.63 653.08 605.10 649.14 605.59 C 640.63 567.81 632.30 529.99 623.82 492.21 C 622.94 488.27 622.32 484.25 620.93 480.46 C 619.02 477.29 617.01 474.19 615.10 471.04 C 600.68 472.99 586.24 474.84 571.84 476.93 C 571.48 477.32 570.76 478.11 570.40 478.50 C 564.70 467.64 558.39 457.10 552.70 446.23 C 572.06 447.88 591.66 446.15 610.47 441.37 C 606.28 446.09 609.70 454.59 615.99 454.89 C 620.16 455.46 623.19 450.69 622.03 446.96 C 621.42 443.89 618.96 441.68 616.31 440.27 C 621.78 438.55 627.25 436.82 632.80 435.37 C 627.21 438.12 627.46 447.13 633.08 449.67 C 636.98 451.76 641.39 448.00 641.66 444.03 C 642.37 439.76 639.33 435.71 635.24 434.67 Z" />
<path fill="#000000" opacity="1.00" d=" M 771.60 587.10 C 777.66 586.53 783.58 584.14 789.68 584.39 C 794.02 587.25 795.83 592.50 797.91 597.02 C 802.83 609.46 805.89 622.54 808.65 635.60 C 811.44 649.91 813.91 664.40 813.98 679.03 C 813.82 681.57 814.04 684.36 812.76 686.66 C 808.82 688.78 804.49 690.07 800.50 692.08 C 784.16 699.36 767.89 706.77 751.53 713.97 C 749.31 706.30 746.97 698.66 744.58 691.05 C 750.51 733.02 757.19 774.88 762.91 816.89 C 769.19 863.76 774.93 910.77 777.11 958.04 C 777.23 960.73 777.49 963.44 777.20 966.13 C 776.05 968.88 773.14 970.29 770.69 971.68 C 761.43 976.20 751.18 978.03 741.15 980.05 C 729.03 982.24 716.84 983.99 704.64 985.68 C 700.55 1005.34 693.10 1024.60 680.48 1040.41 C 717.00 1045.34 751.61 1060.97 781.07 1082.87 C 785.76 1086.14 789.78 1090.27 794.40 1093.61 C 797.94 1094.51 801.75 1093.82 805.39 1094.18 C 811.17 1094.58 816.96 1094.44 822.76 1094.46 L 823.38 1094.47 C 813.92 1094.60 804.46 1094.74 795.00 1094.76 C 796.28 1095.77 797.55 1096.81 798.82 1097.88 C 676.92 1098.04 555.01 1097.86 433.11 1097.97 C 433.53 1096.13 433.95 1094.29 434.55 1092.52 C 439.24 1079.02 449.15 1067.94 460.59 1059.67 C 470.44 1052.52 481.66 1047.44 493.35 1044.12 C 491.41 1026.79 494.79 1009.37 499.51 992.75 C 490.01 992.65 480.54 993.89 471.04 993.47 C 464.46 993.15 457.59 990.99 453.09 985.95 C 450.80 983.55 451.60 979.95 452.38 977.11 C 454.56 970.12 458.24 963.74 461.22 957.08 C 462.98 953.23 463.54 948.99 464.46 944.89 C 469.74 920.90 474.47 896.77 478.42 872.52 C 479.11 868.53 479.71 864.52 480.14 860.50 C 487.10 858.11 494.55 857.25 501.29 854.22 C 505.22 852.96 502.89 847.17 506.53 845.56 C 513.34 841.24 521.21 838.64 527.44 833.44 C 529.55 832.00 529.07 829.23 529.24 827.04 C 529.21 814.01 529.31 800.97 529.37 787.94 C 529.34 784.34 529.74 780.68 529.03 777.13 C 527.13 774.64 524.48 772.90 522.02 771.04 C 511.54 763.39 499.88 757.58 488.16 752.13 C 487.57 737.09 486.13 722.06 483.07 707.30 C 471.98 712.94 461.08 718.95 450.07 724.75 C 440.64 706.24 431.16 687.76 421.71 669.27 C 406.85 667.51 391.95 671.08 378.12 676.28 C 358.24 683.87 340.52 695.90 323.38 708.29 C 328.87 695.32 336.94 683.56 345.61 672.53 C 368.42 644.07 399.35 622.95 432.68 608.64 C 442.29 604.43 452.20 600.95 462.11 597.53 C 467.78 595.73 473.77 595.37 479.68 595.28 L 479.86 596.09 C 480.32 599.84 482.12 603.71 485.90 605.10 C 517.90 619.20 552.09 628.84 587.02 631.56 C 604.70 633.08 622.76 632.47 640.01 628.07 C 645.65 626.36 651.50 624.71 656.43 621.38 C 659.37 619.45 659.61 615.68 660.14 612.55 C 665.50 613.64 670.61 615.84 676.05 616.48 C 679.19 615.49 681.78 613.34 684.54 611.61 C 692.25 606.62 699.94 601.58 707.72 596.71 C 710.71 595.66 713.89 595.34 717.00 594.77 C 735.17 592.04 753.43 589.88 771.60 587.10 M 597.51 666.53 C 589.86 678.70 582.97 691.78 580.10 705.98 C 578.21 712.60 584.43 717.57 584.55 723.94 C 585.21 735.62 585.11 747.35 586.31 759.00 C 587.30 773.47 590.97 787.57 592.51 801.97 C 592.72 805.45 595.60 807.71 598.07 809.77 C 607.94 817.79 618.64 824.71 629.17 831.83 C 631.05 832.76 634.15 835.47 635.45 832.48 C 638.61 826.57 640.79 820.04 645.36 814.97 C 653.83 817.42 661.70 821.46 669.98 824.41 C 671.98 824.95 674.66 826.30 676.13 824.07 C 683.58 814.76 685.90 802.51 692.78 792.86 C 695.71 788.54 700.77 786.76 704.92 783.93 C 708.49 781.54 707.45 776.70 707.39 773.06 C 706.41 763.08 706.03 753.05 706.24 743.02 C 706.46 730.79 705.96 718.54 706.43 706.31 C 706.47 702.96 708.36 700.10 709.29 696.98 C 709.48 695.01 707.56 693.79 706.23 692.72 C 699.32 687.95 692.25 683.39 685.01 679.14 C 682.42 677.73 679.88 676.05 676.97 675.45 C 674.40 677.14 673.32 680.17 671.75 682.68 C 669.20 687.29 665.23 690.82 662.12 695.02 C 665.48 698.30 669.84 700.28 673.32 703.35 C 675.59 727.55 677.32 751.81 679.20 776.04 C 679.45 781.02 680.01 786.05 679.41 791.03 C 675.14 794.30 668.86 793.12 664.58 790.39 C 662.82 764.56 660.27 738.79 658.84 712.94 C 658.44 709.04 660.60 705.66 662.20 702.31 C 654.69 696.29 646.36 691.28 639.38 684.60 C 637.67 683.24 635.58 681.00 633.22 682.19 C 628.54 684.28 625.93 689.06 623.20 693.14 C 620.75 697.53 617.92 701.94 617.01 706.95 C 618.93 710.54 625.03 709.18 626.69 713.24 C 628.88 718.84 628.96 724.99 629.62 730.91 C 630.97 747.06 632.40 763.20 633.53 779.37 C 633.94 787.07 634.98 794.77 634.46 802.50 C 628.86 800.87 621.00 798.86 620.10 792.02 C 614.63 763.09 613.56 733.56 610.65 704.31 C 606.98 701.65 603.13 699.26 599.44 696.63 C 595.92 694.74 597.16 690.17 597.50 686.97 C 600.15 677.47 606.07 669.38 610.74 660.82 C 612.01 658.60 612.68 656.10 612.55 653.54 C 605.31 654.28 601.36 661.20 597.51 666.53 M 566.00 993.32 C 564.44 1008.81 560.23 1023.99 553.72 1038.13 C 578.99 1039.14 604.14 1034.53 629.41 1035.99 C 625.43 1021.55 626.80 1006.32 629.73 991.83 C 608.50 992.77 587.25 993.28 566.00 993.32 Z" />
</g>
<g id="#70979fff">
<path fill="#70979f" opacity="1.00" d=" M 660.74 427.88 C 662.97 426.45 665.22 425.03 667.47 423.60 C 667.87 435.44 668.72 447.27 669.38 459.11 C 663.14 463.36 656.48 466.97 650.23 471.20 C 648.65 471.88 648.62 473.57 649.00 475.02 C 657.45 518.73 666.13 562.41 674.43 606.15 C 670.28 605.28 666.14 604.34 661.98 603.54 C 661.87 603.14 661.64 602.33 661.52 601.93 C 661.02 599.98 660.56 598.03 660.19 596.06 C 651.92 552.84 643.35 509.68 635.14 466.46 C 643.38 462.52 651.83 458.97 659.87 454.63 C 660.81 445.77 660.31 436.79 660.74 427.88 Z" />
<path fill="#70979f" opacity="1.00" d=" M 571.84 476.93 C 586.24 474.84 600.68 472.99 615.10 471.04 C 617.01 474.19 619.02 477.29 620.93 480.46 C 617.66 481.19 614.35 481.65 611.02 481.88 C 598.33 482.83 585.75 485.06 573.02 485.56 C 572.60 482.69 572.19 479.81 571.84 476.93 Z" />
</g>
<g id="#ffffffff">
<path fill="#ffffff" opacity="1.00" d=" M 632.80 435.37 C 633.41 435.19 634.63 434.85 635.24 434.67 C 639.33 435.71 642.37 439.76 641.66 444.03 C 641.39 448.00 636.98 451.76 633.08 449.67 C 627.46 447.13 627.21 438.12 632.80 435.37 Z" />
<path fill="#ffffff" opacity="1.00" d=" M 610.47 441.37 C 612.35 440.72 614.31 440.29 616.31 440.27 C 618.96 441.68 621.42 443.89 622.03 446.96 C 623.19 450.69 620.16 455.46 615.99 454.89 C 609.70 454.59 606.28 446.09 610.47 441.37 Z" />
<path fill="#ffffff" opacity="1.00" d=" M 786.76 1074.45 C 811.41 973.34 835.83 872.17 860.40 771.04 C 857.39 792.30 854.75 813.60 852.69 834.97 C 850.25 861.53 847.59 888.12 846.46 914.78 C 844.86 922.86 841.84 930.57 839.63 938.50 C 826.68 981.59 813.61 1024.66 801.97 1068.12 C 800.39 1073.99 798.94 1079.88 797.60 1085.81 C 793.87 1082.13 790.30 1078.29 786.76 1074.45 Z" />
</g>
<g id="#2d3c50ff">
<path fill="#2d3c50" opacity="1.00" d=" M 887.42 557.09 C 908.68 553.02 930.28 549.75 951.99 550.34 C 960.14 550.56 968.48 551.43 976.00 554.79 C 979.62 556.14 981.00 560.05 982.97 563.05 C 996.96 587.34 1006.84 615.59 1003.14 643.96 C 1003.24 646.24 1000.70 646.50 999.08 647.21 C 982.13 652.89 965.21 658.68 948.28 664.41 C 946.38 667.97 944.74 671.93 941.24 674.24 C 937.74 677.30 933.37 678.97 929.34 681.12 C 926.00 697.28 923.67 713.65 920.41 729.84 C 940.82 734.81 961.04 740.62 981.04 747.05 C 984.21 747.83 986.72 750.62 986.75 753.96 C 988.40 769.61 989.63 785.31 991.26 800.96 C 991.89 805.08 988.13 809.22 983.96 808.95 C 980.79 808.61 977.88 807.20 974.89 806.24 C 956.44 799.79 938.02 793.25 919.54 786.92 C 905.56 853.73 891.43 920.50 877.36 987.28 C 872.68 989.33 868.03 991.44 863.28 993.33 C 867.10 997.62 871.28 1001.58 875.11 1005.87 C 872.40 1016.80 870.36 1027.90 867.64 1038.83 C 865.24 1042.39 861.61 1044.98 858.61 1048.04 C 859.65 1053.06 861.00 1058.01 862.15 1063.02 C 862.69 1064.70 862.13 1066.41 861.76 1068.09 C 859.55 1076.82 857.58 1085.61 855.45 1094.36 C 844.76 1094.26 834.07 1094.66 823.38 1094.47 L 822.76 1094.46 C 828.55 1094.30 834.35 1094.30 840.15 1094.30 C 842.88 1083.90 844.98 1073.34 847.80 1062.96 C 849.95 1056.77 845.65 1050.99 844.44 1045.08 C 848.08 1040.48 853.63 1036.80 854.59 1030.62 C 856.21 1022.71 858.18 1014.87 859.78 1006.96 C 855.69 1001.22 851.54 995.53 847.42 989.81 C 853.22 986.35 859.31 983.43 865.19 980.13 C 877.93 924.00 890.85 867.92 903.64 811.80 C 905.05 805.20 907.15 798.72 907.84 791.98 C 894.52 830.50 882.48 869.57 865.89 906.87 C 861.55 915.84 857.58 925.55 849.79 932.16 C 847.62 926.61 847.11 920.64 846.46 914.78 C 847.59 888.12 850.25 861.53 852.69 834.97 C 854.75 813.60 857.39 792.30 860.40 771.04 C 835.83 872.17 811.41 973.34 786.76 1074.45 C 783.52 1070.89 780.28 1067.30 777.62 1063.28 C 787.73 1023.57 797.19 983.69 807.17 943.95 C 820.91 887.57 834.93 831.26 848.69 774.89 C 827.47 774.02 806.26 772.78 785.06 771.56 C 779.97 771.61 776.55 765.45 779.09 761.10 C 786.73 746.45 794.46 731.84 802.20 717.24 C 803.43 714.48 806.32 713.36 808.96 712.37 C 806.12 705.61 803.42 698.80 800.50 692.08 C 804.49 690.07 808.82 688.78 812.76 686.66 C 814.04 684.36 813.82 681.57 813.98 679.03 C 813.91 664.40 811.44 649.91 808.65 635.60 C 805.89 622.54 802.83 609.46 797.91 597.02 C 795.83 592.50 794.02 587.25 789.68 584.39 C 783.58 584.14 777.66 586.53 771.60 587.10 C 772.24 576.01 774.61 565.15 777.17 554.38 C 813.92 554.79 850.68 556.43 887.42 557.09 M 928.05 562.47 C 915.85 564.01 903.44 565.51 891.88 569.94 C 881.90 570.44 871.90 569.42 861.91 569.28 C 838.49 568.31 815.09 566.95 791.66 566.79 C 795.23 572.38 798.63 578.08 801.99 583.81 C 803.43 588.81 805.79 593.48 807.50 598.39 C 817.61 626.40 823.17 656.33 821.45 686.16 C 823.08 684.57 824.63 682.89 825.98 681.05 C 841.26 661.08 860.10 644.30 878.35 627.14 C 884.69 630.04 888.87 635.91 892.26 641.77 C 895.60 647.69 898.34 653.93 900.59 660.35 C 901.26 661.88 901.63 663.90 903.41 664.56 C 909.76 667.74 917.07 669.77 924.17 668.26 C 931.20 666.68 936.71 661.10 939.57 654.67 C 932.71 640.89 924.59 627.58 919.77 612.88 C 923.71 614.05 927.82 614.86 931.95 614.39 C 944.30 613.28 955.96 608.53 967.15 603.46 C 960.44 609.95 951.41 613.52 944.75 620.12 C 950.29 620.62 955.85 619.95 961.40 620.32 C 956.42 623.50 950.45 624.57 945.21 627.26 C 944.93 633.59 947.80 640.36 953.21 643.85 C 954.93 643.61 956.55 642.90 958.18 642.28 C 968.35 638.03 978.67 634.15 988.85 629.92 C 992.16 628.83 991.20 624.59 991.03 621.94 C 988.82 607.01 983.41 592.81 978.36 578.66 C 976.32 573.70 974.87 568.46 972.30 563.76 C 968.57 561.77 964.19 561.63 960.07 561.35 C 949.39 561.03 938.66 561.10 928.05 562.47 M 809.01 712.98 C 831.63 716.18 854.19 719.85 876.78 723.26 C 881.86 706.87 887.20 690.55 892.20 674.13 C 886.83 664.04 883.30 653.12 879.65 642.33 C 856.31 666.09 832.29 689.18 809.01 712.98 M 897.70 693.19 C 896.12 693.50 894.17 693.88 893.28 695.33 C 893.29 697.05 894.97 698.03 896.19 698.96 C 894.92 702.88 893.95 706.89 893.16 710.93 C 891.44 711.32 889.80 711.91 888.16 712.49 C 888.56 714.56 890.10 716.05 891.94 716.97 C 890.82 720.28 889.96 723.68 889.29 727.11 C 887.31 727.24 885.62 728.33 884.29 729.74 C 885.34 730.64 886.44 731.59 887.53 732.50 C 887.39 732.70 887.11 733.10 886.98 733.30 C 877.77 731.04 868.31 730.09 858.97 728.57 C 844.21 726.15 829.34 724.35 814.66 721.51 C 814.20 722.31 813.79 723.15 813.43 724.01 C 812.04 724.27 810.82 724.96 810.24 726.28 C 804.19 737.17 798.20 748.08 792.05 758.91 C 808.62 760.92 825.33 761.76 841.95 763.40 C 851.24 764.36 860.64 764.52 869.87 766.07 C 866.58 781.26 864.57 796.68 862.33 812.04 C 858.74 838.96 855.65 865.94 853.01 892.96 C 852.11 904.40 850.58 915.82 850.49 927.30 C 853.49 923.82 854.33 919.13 856.21 915.05 C 867.76 884.62 878.54 853.90 889.11 823.12 C 894.87 805.68 901.12 788.39 906.20 770.74 C 912.57 772.45 918.72 774.90 924.95 777.09 C 943.88 783.70 962.73 790.57 981.74 796.92 C 979.45 783.19 977.16 769.47 975.10 755.71 C 973.73 754.75 972.24 753.96 970.68 753.42 C 960.51 750.01 950.34 746.56 939.96 743.87 C 929.67 740.91 919.11 739.04 908.74 736.41 C 909.51 735.77 911.05 734.48 911.82 733.84 C 910.82 732.85 909.85 731.84 908.77 730.97 C 909.92 727.37 911.01 723.76 911.91 720.10 C 912.99 719.68 914.07 719.24 915.14 718.77 C 914.59 717.47 914.33 715.91 913.05 715.11 C 915.01 711.16 916.28 706.90 916.82 702.52 C 919.08 702.05 920.99 699.66 918.62 697.88 C 920.20 692.70 922.07 687.60 923.09 682.28 C 915.49 683.33 907.81 682.02 900.63 679.52 C 899.15 683.95 898.11 688.52 897.70 693.19 Z" />
<path fill="#2d3c50" opacity="1.00" d=" M 378.12 676.28 C 391.95 671.08 406.85 667.51 421.71 669.27 C 431.16 687.76 440.64 706.24 450.07 724.75 C 452.91 729.68 454.83 735.19 458.19 739.80 C 468.11 744.02 478.36 747.55 488.16 752.13 C 499.88 757.58 511.54 763.39 522.02 771.04 C 524.48 772.90 527.13 774.64 529.03 777.13 C 529.74 780.68 529.34 784.34 529.37 787.94 C 529.31 800.97 529.21 814.01 529.24 827.04 C 529.07 829.23 529.55 832.00 527.44 833.44 C 521.21 838.64 513.34 841.24 506.53 845.56 C 502.89 847.17 505.22 852.96 501.29 854.22 C 494.55 857.25 487.10 858.11 480.14 860.50 C 476.61 862.20 478.17 867.92 474.05 868.99 C 460.55 874.72 446.34 878.80 431.91 881.32 C 423.32 882.16 414.96 878.35 407.84 873.89 C 404.21 871.33 401.04 868.13 398.67 864.38 C 397.25 862.05 395.28 860.16 392.98 858.74 C 390.18 856.85 387.46 854.85 384.92 852.64 C 380.26 848.45 376.07 843.63 373.22 838.02 C 370.86 833.20 369.16 827.10 371.40 822.02 C 373.83 818.73 376.57 815.68 379.37 812.71 C 381.56 810.48 383.88 808.37 386.36 806.46 C 388.67 804.83 391.40 804.02 394.10 803.30 C 393.04 801.81 391.99 800.30 390.95 798.81 C 389.20 799.10 387.47 799.41 385.74 799.70 C 383.27 800.09 380.80 800.46 378.33 800.76 C 375.47 801.10 372.60 801.36 369.73 801.53 C 354.65 802.53 338.77 800.52 325.81 792.24 C 306.82 780.70 297.49 757.62 276.45 748.89 C 291.44 734.62 307.12 721.09 323.38 708.29 C 340.52 695.90 358.24 683.87 378.12 676.28 M 415.53 680.46 C 399.59 682.02 383.92 686.24 369.33 692.82 C 366.34 693.36 363.49 694.42 360.74 695.67 C 345.47 702.51 331.00 711.38 318.67 722.75 C 317.52 723.79 316.62 725.05 315.76 726.34 C 309.53 731.42 304.46 737.77 299.30 743.91 C 298.19 745.08 297.11 746.27 296.02 747.47 C 299.46 749.30 302.67 751.54 306.23 753.16 C 309.83 757.38 313.65 761.42 317.30 765.62 C 323.37 772.60 330.97 778.70 339.88 781.50 C 342.95 783.75 346.76 784.46 350.37 785.38 C 363.38 788.58 376.86 788.66 390.16 789.29 C 390.55 783.17 390.63 777.02 391.54 770.94 C 392.84 778.49 394.06 786.27 398.15 792.91 C 402.65 802.00 411.01 808.28 416.17 816.89 C 420.65 824.34 420.09 833.45 418.51 841.66 C 412.25 833.93 407.45 825.21 403.47 816.13 C 396.23 816.83 389.91 821.04 385.08 826.25 C 383.73 827.71 384.68 829.93 385.00 831.64 C 387.69 840.32 395.65 845.77 403.06 850.24 C 405.92 851.77 406.25 855.42 408.40 857.65 C 414.61 864.95 424.72 867.26 433.94 866.66 C 435.48 866.37 437.23 866.66 438.61 865.80 C 447.13 865.97 455.18 862.42 462.67 858.72 C 465.12 857.75 466.12 855.21 466.88 852.91 C 469.65 844.12 471.10 834.97 473.97 826.21 C 475.29 827.89 476.72 829.66 476.92 831.88 C 478.32 839.07 476.34 846.23 474.93 853.24 C 480.16 852.86 485.32 851.41 489.88 848.80 C 492.30 847.36 494.87 845.52 495.54 842.61 C 497.99 833.31 500.57 824.02 503.69 814.92 C 504.21 822.64 503.89 830.38 504.19 838.11 C 508.93 836.73 513.73 834.78 517.31 831.27 C 520.67 827.72 519.53 822.44 519.81 818.02 C 520.14 806.66 519.98 795.28 520.80 783.94 C 520.99 782.52 520.47 781.22 519.90 779.98 C 517.89 779.11 515.93 778.15 514.02 777.11 C 497.49 768.12 480.65 759.72 463.92 751.11 C 459.84 748.96 455.30 747.32 452.09 743.86 C 446.98 738.43 443.01 732.06 439.31 725.61 C 430.99 710.91 424.22 695.39 417.96 679.72 C 417.36 679.90 416.14 680.27 415.53 680.46 Z" />
</g>
<g id="#618599ff">
<path fill="#618599" opacity="1.00" d=" M 928.05 562.47 C 938.66 561.10 949.39 561.03 960.07 561.35 C 964.19 561.63 968.57 561.77 972.30 563.76 C 974.87 568.46 976.32 573.70 978.36 578.66 C 983.41 592.81 988.82 607.01 991.03 621.94 C 991.20 624.59 992.16 628.83 988.85 629.92 C 978.67 634.15 968.35 638.03 958.18 642.28 C 956.55 642.90 954.93 643.61 953.21 643.85 C 947.80 640.36 944.93 633.59 945.21 627.26 C 950.45 624.57 956.42 623.50 961.40 620.32 C 955.85 619.95 950.29 620.62 944.75 620.12 C 951.41 613.52 960.44 609.95 967.15 603.46 C 955.96 608.53 944.30 613.28 931.95 614.39 C 927.82 614.86 923.71 614.05 919.77 612.88 C 924.59 627.58 932.71 640.89 939.57 654.67 C 936.71 661.10 931.20 666.68 924.17 668.26 C 917.07 669.77 909.76 667.74 903.41 664.56 C 901.63 663.90 901.26 661.88 900.59 660.35 C 898.34 653.93 895.60 647.69 892.26 641.77 C 888.87 635.91 884.69 630.04 878.35 627.14 C 860.10 644.30 841.26 661.08 825.98 681.05 C 824.63 682.89 823.08 684.57 821.45 686.16 C 823.17 656.33 817.61 626.40 807.50 598.39 C 805.79 593.48 803.43 588.81 801.99 583.81 C 803.34 585.85 804.74 587.87 806.12 589.91 C 832.43 587.62 858.70 584.79 885.00 582.35 C 888.79 581.98 892.71 581.81 896.24 580.23 C 905.91 575.94 916.27 573.59 926.56 571.32 C 940.23 568.42 954.07 566.44 967.90 564.46 C 942.54 565.98 917.25 568.60 891.88 569.94 C 903.44 565.51 915.85 564.01 928.05 562.47 Z" />
<path fill="#618599" opacity="1.00" d=" M 415.53 680.46 C 416.14 680.27 417.36 679.90 417.96 679.72 C 424.22 695.39 430.99 710.91 439.31 725.61 C 443.01 732.06 446.98 738.43 452.09 743.86 C 455.30 747.32 459.84 748.96 463.92 751.11 C 480.65 759.72 497.49 768.12 514.02 777.11 C 515.93 778.15 517.89 779.11 519.90 779.98 C 514.52 790.49 503.97 796.99 493.35 801.29 C 481.62 805.95 468.79 807.88 456.25 806.09 C 453.75 822.33 451.09 838.60 446.48 854.39 C 445.28 859.00 442.07 862.68 438.61 865.80 C 437.23 866.66 435.48 866.37 433.94 866.66 C 436.65 862.78 439.24 858.81 441.94 854.93 C 443.22 853.19 443.96 851.14 444.32 849.03 C 446.77 834.64 449.89 820.38 452.42 806.01 C 445.77 801.29 438.92 796.61 433.75 790.22 C 430.21 785.87 428.16 780.58 425.00 775.98 C 422.60 772.47 419.39 769.65 416.33 766.75 C 427.08 759.76 439.26 755.47 450.39 749.20 C 439.87 750.80 429.56 753.53 419.08 755.43 C 411.75 756.72 404.51 758.89 397.02 759.16 C 381.66 758.40 366.13 757.53 351.27 753.21 C 350.88 742.63 350.08 731.22 355.79 721.77 C 363.30 709.28 376.97 702.39 390.02 697.09 C 398.58 693.45 407.64 691.29 416.40 688.30 C 419.76 686.45 416.54 682.80 415.53 680.46 Z" />
<path fill="#618599" opacity="1.00" d=" M 865.89 906.87 C 882.48 869.57 894.52 830.50 907.84 791.98 C 907.15 798.72 905.05 805.20 903.64 811.80 C 890.85 867.92 877.93 924.00 865.19 980.13 C 859.31 983.43 853.22 986.35 847.42 989.81 C 851.54 995.53 855.69 1001.22 859.78 1006.96 C 858.18 1014.87 856.21 1022.71 854.59 1030.62 C 853.63 1036.80 848.08 1040.48 844.44 1045.08 C 845.65 1050.99 849.95 1056.77 847.80 1062.96 C 844.98 1073.34 842.88 1083.90 840.15 1094.30 C 834.35 1094.30 828.55 1094.30 822.76 1094.46 C 816.96 1094.44 811.17 1094.58 805.39 1094.18 C 803.12 1091.09 800.36 1088.44 797.60 1085.81 C 798.94 1079.88 800.39 1073.99 801.97 1068.12 C 813.61 1024.66 826.68 981.59 839.63 938.50 C 841.84 930.57 844.86 922.86 846.46 914.78 C 847.11 920.64 847.62 926.61 849.79 932.16 C 857.58 925.55 861.55 915.84 865.89 906.87 Z" />
</g>
<g id="#c0ced6ff">
<path fill="#c0ced6" opacity="1.00" d=" M 891.88 569.94 C 917.25 568.60 942.54 565.98 967.90 564.46 C 954.07 566.44 940.23 568.42 926.56 571.32 C 916.27 573.59 905.91 575.94 896.24 580.23 C 892.71 581.81 888.79 581.98 885.00 582.35 C 858.70 584.79 832.43 587.62 806.12 589.91 C 804.74 587.87 803.34 585.85 801.99 583.81 C 798.63 578.08 795.23 572.38 791.66 566.79 C 815.09 566.95 838.49 568.31 861.91 569.28 C 871.90 569.42 881.90 570.44 891.88 569.94 Z" />
</g>
<g id="#f57900ff">
<path fill="#f57900" opacity="1.00" d=" M 597.51 666.53 C 601.36 661.20 605.31 654.28 612.55 653.54 C 612.68 656.10 612.01 658.60 610.74 660.82 C 606.07 669.38 600.15 677.47 597.50 686.97 C 597.16 690.17 595.92 694.74 599.44 696.63 C 603.13 699.26 606.98 701.65 610.65 704.31 C 613.56 733.56 614.63 763.09 620.10 792.02 C 621.00 798.86 628.86 800.87 634.46 802.50 C 634.98 794.77 633.94 787.07 633.53 779.37 C 632.40 763.20 630.97 747.06 629.62 730.91 C 628.96 724.99 628.88 718.84 626.69 713.24 C 625.03 709.18 618.93 710.54 617.01 706.95 C 617.92 701.94 620.75 697.53 623.20 693.14 C 625.93 689.06 628.54 684.28 633.22 682.19 C 635.58 681.00 637.67 683.24 639.38 684.60 C 646.36 691.28 654.69 696.29 662.20 702.31 C 660.60 705.66 658.44 709.04 658.84 712.94 C 660.27 738.79 662.82 764.56 664.58 790.39 C 668.86 793.12 675.14 794.30 679.41 791.03 C 680.01 786.05 679.45 781.02 679.20 776.04 C 677.32 751.81 675.59 727.55 673.32 703.35 C 669.84 700.28 665.48 698.30 662.12 695.02 C 665.23 690.82 669.20 687.29 671.75 682.68 C 673.32 680.17 674.40 677.14 676.97 675.45 C 679.88 676.05 682.42 677.73 685.01 679.14 C 692.25 683.39 699.32 687.95 706.23 692.72 C 707.56 693.79 709.48 695.01 709.29 696.98 C 708.36 700.10 706.47 702.96 706.43 706.31 C 705.96 718.54 706.46 730.79 706.24 743.02 C 706.03 753.05 706.41 763.08 707.39 773.06 C 707.45 776.70 708.49 781.54 704.92 783.93 C 700.77 786.76 695.71 788.54 692.78 792.86 C 685.90 802.51 683.58 814.76 676.13 824.07 C 674.66 826.30 671.98 824.95 669.98 824.41 C 661.70 821.46 653.83 817.42 645.36 814.97 C 640.79 820.04 638.61 826.57 635.45 832.48 C 634.15 835.47 631.05 832.76 629.17 831.83 C 618.64 824.71 607.94 817.79 598.07 809.77 C 595.60 807.71 592.72 805.45 592.51 801.97 C 590.97 787.57 587.30 773.47 586.31 759.00 C 585.11 747.35 585.21 735.62 584.55 723.94 C 584.43 717.57 578.21 712.60 580.10 705.98 C 582.97 691.78 589.86 678.70 597.51 666.53 Z" />
</g>
<g id="#a0b6c2ff">
<path fill="#a0b6c2" opacity="1.00" d=" M 369.33 692.82 C 383.92 686.24 399.59 682.02 415.53 680.46 C 416.54 682.80 419.76 686.45 416.40 688.30 C 407.64 691.29 398.58 693.45 390.02 697.09 C 376.97 702.39 363.30 709.28 355.79 721.77 C 350.08 731.22 350.88 742.63 351.27 753.21 C 344.71 750.93 337.66 748.38 333.39 742.57 C 330.45 738.68 330.19 733.36 331.76 728.88 C 334.67 720.20 341.24 713.56 347.21 706.91 C 346.64 706.91 345.49 706.92 344.91 706.93 C 347.17 705.15 349.53 703.45 352.18 702.29 C 358.17 699.66 363.76 696.24 369.33 692.82 Z" />
</g>
<g id="#608499ff">
<path fill="#608499" opacity="1.00" d=" M 360.74 695.67 C 363.49 694.42 366.34 693.36 369.33 692.82 C 363.76 696.24 358.17 699.66 352.18 702.29 C 349.53 703.45 347.17 705.15 344.91 706.93 C 342.12 708.99 339.29 711.01 336.37 712.88 C 328.74 716.15 322.92 722.28 315.76 726.34 C 316.62 725.05 317.52 723.79 318.67 722.75 C 331.00 711.38 345.47 702.51 360.74 695.67 Z" />
</g>
<g id="#8e9da4ff">
<path fill="#8e9da4" opacity="1.00" d=" M 893.28 695.33 C 894.17 693.88 896.12 693.50 897.70 693.19 C 904.90 692.86 912.43 694.00 918.62 697.88 C 920.99 699.66 919.08 702.05 916.82 702.52 C 909.79 703.12 902.54 702.12 896.19 698.96 C 894.97 698.03 893.29 697.05 893.28 695.33 Z" />
<path fill="#8e9da4" opacity="1.00" d=" M 888.16 712.49 C 889.80 711.91 891.44 711.32 893.16 710.93 C 900.00 710.55 907.00 711.83 913.05 715.11 C 914.33 715.91 914.59 717.47 915.14 718.77 C 914.07 719.24 912.99 719.68 911.91 720.10 C 905.13 721.10 898.16 719.69 891.94 716.97 C 890.10 716.05 888.56 714.56 888.16 712.49 Z" />
<path fill="#8e9da4" opacity="1.00" d=" M 813.43 724.01 C 813.79 723.15 814.20 722.31 814.66 721.51 C 829.34 724.35 844.21 726.15 858.97 728.57 C 868.31 730.09 877.77 731.04 886.98 733.30 C 887.11 733.10 887.39 732.70 887.53 732.50 C 886.44 731.59 885.34 730.64 884.29 729.74 C 885.62 728.33 887.31 727.24 889.29 727.11 C 895.94 726.82 902.87 727.71 908.77 730.97 C 909.85 731.84 910.82 732.85 911.82 733.84 C 911.05 734.48 909.51 735.77 908.74 736.41 C 919.11 739.04 929.67 740.91 939.96 743.87 C 950.34 746.56 960.51 750.01 970.68 753.42 C 972.24 753.96 973.73 754.75 975.10 755.71 C 920.87 746.25 866.49 737.62 812.23 728.33 C 812.60 726.87 813.00 725.43 813.43 724.01 Z" />
</g>
<g id="#bcccd4ff">
<path fill="#bcccd4" opacity="1.00" d=" M 344.91 706.93 C 345.49 706.92 346.64 706.91 347.21 706.91 C 341.24 713.56 334.67 720.20 331.76 728.88 C 330.19 733.36 330.45 738.68 333.39 742.57 C 337.66 748.38 344.71 750.93 351.27 753.21 C 351.95 762.95 351.38 773.02 346.85 781.87 C 344.52 781.76 342.20 781.64 339.88 781.50 C 330.97 778.70 323.37 772.60 317.30 765.62 C 313.65 761.42 309.83 757.38 306.23 753.16 C 304.49 750.54 302.78 747.89 300.69 745.53 C 311.36 733.37 324.25 723.49 336.37 712.88 C 339.29 711.01 342.12 708.99 344.91 706.93 Z" />
</g>
<g id="#94acb9ff">
<path fill="#94acb9" opacity="1.00" d=" M 315.76 726.34 C 322.92 722.28 328.74 716.15 336.37 712.88 C 324.25 723.49 311.36 733.37 300.69 745.53 C 300.35 745.12 299.65 744.31 299.30 743.91 C 304.46 737.77 309.53 731.42 315.76 726.34 Z" />
</g>
<g id="#5e8398ff">
<path fill="#5e8398" opacity="1.00" d=" M 296.02 747.47 C 297.11 746.27 298.19 745.08 299.30 743.91 C 299.65 744.31 300.35 745.12 300.69 745.53 C 302.78 747.89 304.49 750.54 306.23 753.16 C 302.67 751.54 299.46 749.30 296.02 747.47 Z" />
</g>
<g id="#90a9b7ff">
<path fill="#90a9b7" opacity="1.00" d=" M 419.08 755.43 C 429.56 753.53 439.87 750.80 450.39 749.20 C 439.26 755.47 427.08 759.76 416.33 766.75 C 419.39 769.65 422.60 772.47 425.00 775.98 C 428.16 780.58 430.21 785.87 433.75 790.22 C 438.92 796.61 445.77 801.29 452.42 806.01 C 449.89 820.38 446.77 834.64 444.32 849.03 C 443.96 851.14 443.22 853.19 441.94 854.93 C 439.24 858.81 436.65 862.78 433.94 866.66 C 424.72 867.26 414.61 864.95 408.40 857.65 C 406.25 855.42 405.92 851.77 403.06 850.24 C 395.65 845.77 387.69 840.32 385.00 831.64 C 384.68 829.93 383.73 827.71 385.08 826.25 C 389.91 821.04 396.23 816.83 403.47 816.13 C 407.45 825.21 412.25 833.93 418.51 841.66 C 420.09 833.45 420.65 824.34 416.17 816.89 C 411.01 808.28 402.65 802.00 398.15 792.91 C 394.06 786.27 392.84 778.49 391.54 770.94 C 390.63 777.02 390.55 783.17 390.16 789.29 C 376.86 788.66 363.38 788.58 350.37 785.38 C 346.76 784.46 342.95 783.75 339.88 781.50 C 342.20 781.64 344.52 781.76 346.85 781.87 C 351.38 773.02 351.95 762.95 351.27 753.21 C 366.13 757.53 381.66 758.40 397.02 759.16 C 404.51 758.89 411.75 756.72 419.08 755.43 Z" />
</g>
<g id="#3d5266ff">
<path fill="#3d5266" opacity="1.00" d=" M 519.90 779.98 C 520.47 781.22 520.99 782.52 520.80 783.94 C 519.98 795.28 520.14 806.66 519.81 818.02 C 519.53 822.44 520.67 827.72 517.31 831.27 C 513.73 834.78 508.93 836.73 504.19 838.11 C 503.89 830.38 504.21 822.64 503.69 814.92 C 500.57 824.02 497.99 833.31 495.54 842.61 C 494.87 845.52 492.30 847.36 489.88 848.80 C 485.32 851.41 480.16 852.86 474.93 853.24 C 476.34 846.23 478.32 839.07 476.92 831.88 C 476.72 829.66 475.29 827.89 473.97 826.21 C 471.10 834.97 469.65 844.12 466.88 852.91 C 466.12 855.21 465.12 857.75 462.67 858.72 C 455.18 862.42 447.13 865.97 438.61 865.80 C 442.07 862.68 445.28 859.00 446.48 854.39 C 451.09 838.60 453.75 822.33 456.25 806.09 C 468.79 807.88 481.62 805.95 493.35 801.29 C 503.97 796.99 514.52 790.49 519.90 779.98 Z" />
</g>
<g id="#e06666ff">
<path fill="#e06666" opacity="1.00" d=" M 378.33 800.76 C 380.80 800.46 383.27 800.09 385.74 799.70 C 385.94 801.95 386.15 804.20 386.36 806.46 C 383.88 808.37 381.56 810.48 379.37 812.71 C 378.92 808.73 378.57 804.75 378.33 800.76 Z" />
<path fill="#e06666" opacity="1.00" d=" M 384.92 852.64 C 387.46 854.85 390.18 856.85 392.98 858.74 C 396.66 881.49 402.20 903.90 407.95 926.21 C 410.12 934.74 411.64 943.62 410.71 952.45 C 410.05 959.86 406.25 966.83 400.45 971.48 C 391.58 978.64 380.54 983.15 373.29 992.23 C 368.48 997.41 366.83 1004.44 363.35 1010.41 C 360.80 1014.88 358.26 1019.44 354.59 1023.12 C 357.07 1008.64 366.50 996.71 376.56 986.54 C 385.98 977.01 396.15 967.14 400.17 953.95 C 404.01 942.17 402.38 929.50 399.26 917.76 C 393.66 896.25 388.44 874.60 384.92 852.64 Z" />
</g>
</svg>
