<?xml version="1.0" encoding="UTF-8" ?>
<!DOCTYPE svg PUBLIC "-//W3C//DTD SVG 1.1//EN" "http://www.w3.org/Graphics/SVG/1.1/DTD/svg11.dtd">
<svg width="1276pt" height="1276pt" viewBox="0 0 1276 1276" version="1.1" xmlns="http://www.w3.org/2000/svg">
<g id="#a40000ff">
<path fill="#a40000" opacity="1.00" d=" M 840.30 197.36 C 845.08 191.13 851.96 185.94 859.98 185.14 C 867.51 184.29 874.83 187.77 880.33 192.70 C 887.32 198.31 889.18 207.73 890.38 216.13 C 892.42 236.31 888.23 256.48 883.24 275.94 C 873.37 312.26 858.59 347.07 841.61 380.59 C 830.77 401.58 819.10 422.20 805.58 441.60 C 800.69 449.06 793.87 455.91 792.50 465.07 C 791.65 470.85 795.79 475.74 800.31 478.70 C 826.23 496.40 852.28 513.91 877.56 532.51 C 900.01 548.99 921.45 567.06 939.91 587.99 C 953.54 603.42 966.65 619.58 976.13 637.96 C 984.35 653.11 989.85 669.82 991.20 687.06 C 993.02 709.10 990.45 731.21 987.70 753.07 C 984.39 777.34 979.70 801.54 971.69 824.73 C 965.27 843.09 956.61 860.92 944.18 876.00 C 934.96 887.51 922.95 896.25 911.87 905.84 C 854.17 953.70 794.66 999.44 732.86 1041.90 C 708.43 1058.25 683.95 1074.95 656.93 1086.81 C 652.30 1088.70 646.99 1091.14 642.02 1088.98 C 631.42 1084.23 624.21 1074.70 617.14 1065.88 C 608.31 1053.53 598.51 1041.90 587.92 1031.03 C 574.22 1017.05 559.92 1003.59 544.41 991.62 C 525.07 976.41 502.13 966.61 478.96 958.83 C 463.08 953.81 446.75 949.41 430.01 948.90 C 418.13 948.39 405.42 953.71 399.40 964.35 C 393.00 975.68 394.17 989.53 397.52 1001.63 C 398.59 1006.03 400.47 1010.96 398.32 1015.32 C 396.02 1018.74 391.28 1017.23 388.17 1015.91 C 376.16 1010.38 366.86 1000.51 358.68 990.39 C 347.33 976.09 338.15 960.16 330.52 943.61 C 323.53 928.09 317.80 911.89 314.88 895.09 C 312.93 884.17 313.22 873.01 313.96 861.99 C 314.63 853.88 315.99 845.45 320.65 838.58 C 325.29 831.73 332.65 827.42 339.91 823.85 C 360.40 814.14 382.28 806.89 404.92 804.64 C 438.67 801.16 472.45 806.46 505.81 811.16 C 514.29 811.98 523.26 813.56 531.47 810.45 C 538.54 807.53 542.59 800.60 546.50 794.43 C 549.27 789.67 552.62 784.73 552.68 779.02 C 552.48 774.14 548.19 770.89 544.42 768.51 C 535.97 763.47 526.69 760.05 517.59 756.42 C 480.53 742.19 444.09 726.11 409.70 706.21 C 380.45 689.20 352.36 669.63 328.73 645.26 C 312.11 627.99 297.63 608.00 289.96 585.09 C 284.95 569.17 280.50 552.09 284.69 535.45 C 288.92 518.51 296.47 502.62 304.09 486.99 C 322.40 451.09 345.82 418.13 369.84 385.88 C 420.30 319.11 474.41 255.23 528.14 191.10 C 539.75 190.70 551.35 189.84 562.98 189.83 C 583.69 189.89 603.46 196.82 622.95 203.06 C 643.21 209.74 663.45 216.58 683.15 224.79 C 705.17 233.67 727.83 241.17 751.12 245.93 C 764.22 248.43 777.66 250.44 791.01 248.97 C 796.28 248.18 802.33 247.32 805.75 242.72 C 818.10 228.26 828.91 212.58 840.30 197.36 M 489.51 329.83 C 480.85 332.25 472.87 337.18 466.77 343.79 C 461.33 349.70 458.42 358.32 460.87 366.19 C 463.83 376.09 472.19 383.18 480.80 388.25 C 493.51 395.62 507.29 400.95 521.14 405.74 C 559.65 418.77 599.40 427.59 639.05 436.36 C 661.40 441.19 683.95 445.21 706.04 451.16 C 709.58 451.82 712.21 455.06 715.99 454.80 C 724.39 454.52 731.43 448.75 736.38 442.39 C 743.75 432.92 749.85 422.45 754.35 411.33 C 756.04 406.82 757.93 401.95 756.84 397.08 C 755.51 393.51 751.04 393.24 747.87 392.58 C 734.01 390.67 719.98 390.55 706.05 389.49 C 685.78 388.61 665.40 386.16 646.12 379.57 C 608.00 366.74 572.21 347.91 534.09 335.06 C 519.81 330.61 504.47 326.08 489.51 329.83 M 387.42 446.58 C 383.37 448.10 381.65 452.55 380.28 456.30 C 376.47 468.50 375.39 482.25 380.86 494.14 C 387.73 509.23 399.75 521.10 411.34 532.64 C 422.95 544.16 435.52 554.69 448.85 564.15 C 465.30 575.98 482.21 587.22 499.97 596.99 C 506.02 600.06 512.07 603.69 518.93 604.51 C 525.26 605.46 530.62 609.20 536.41 611.66 C 556.91 620.61 578.20 627.69 599.82 633.41 C 606.51 634.97 613.19 636.76 620.05 637.43 C 624.95 637.89 629.04 634.55 632.40 631.41 C 640.83 623.32 648.12 613.98 653.80 603.76 C 655.67 600.15 657.95 595.88 656.15 591.80 C 653.41 585.75 647.30 582.24 641.69 579.22 C 624.87 570.89 606.26 567.26 587.93 563.93 C 567.77 560.28 547.83 555.07 528.87 547.23 C 512.27 540.35 495.81 532.96 480.41 523.64 C 462.96 513.15 446.27 501.36 430.53 488.43 C 421.48 480.89 412.56 473.06 405.06 463.93 C 400.98 459.19 398.89 452.97 394.17 448.75 C 392.37 447.15 389.87 445.79 387.42 446.58 M 722.36 609.57 C 716.73 611.22 712.74 615.86 709.43 620.44 C 705.01 626.78 700.61 633.25 697.68 640.44 C 695.27 646.05 694.39 653.31 698.81 658.21 C 704.35 664.30 712.54 666.87 720.10 669.53 C 726.09 671.83 732.65 671.37 738.73 673.34 C 751.79 677.21 764.31 682.68 776.73 688.21 C 792.79 695.52 808.60 703.38 823.97 712.05 C 835.42 718.60 846.95 725.33 856.77 734.24 C 878.91 754.59 887.28 784.88 906.33 807.60 C 907.48 808.61 908.78 810.76 910.57 809.64 C 914.38 806.61 915.41 801.42 916.54 796.93 C 919.65 781.18 918.26 764.58 912.31 749.65 C 907.44 737.11 900.07 725.71 891.81 715.15 C 878.76 698.71 863.73 683.92 847.97 670.09 C 826.47 651.60 803.14 634.99 777.62 622.51 C 763.31 615.46 747.90 610.43 731.98 608.84 C 728.76 608.59 725.47 608.64 722.36 609.57 M 607.34 808.38 C 601.91 814.63 596.75 821.74 595.34 830.09 C 594.38 835.28 596.56 841.12 601.32 843.71 C 613.39 850.12 627.01 852.80 639.26 858.86 C 660.08 868.85 679.65 881.24 698.71 894.22 C 714.91 905.48 730.85 917.24 745.23 930.79 C 750.57 935.80 755.24 942.37 762.79 944.12 C 772.54 946.40 782.18 942.01 790.65 937.60 C 806.36 928.91 820.71 917.98 834.57 906.63 C 837.80 903.61 841.71 900.97 843.81 896.99 C 844.99 891.16 842.16 885.45 839.59 880.39 C 834.24 870.88 827.12 862.08 817.84 856.17 C 808.60 850.13 798.89 844.83 788.95 840.07 C 766.60 829.43 742.61 822.94 718.95 815.96 C 687.70 807.13 656.40 798.47 625.11 789.78 C 619.20 795.99 613.13 802.06 607.34 808.38 Z" />
</g>
</svg>
