<?xml version="1.0" encoding="UTF-8" ?>
<!DOCTYPE svg PUBLIC "-//W3C//DTD SVG 1.1//EN" "http://www.w3.org/Graphics/SVG/1.1/DTD/svg11.dtd">
<svg width="1276pt" height="1276pt" viewBox="0 0 1276 1276" version="1.1" xmlns="http://www.w3.org/2000/svg">
<g id="#ffffffff">
<path fill="#ffffff" opacity="1.00" d=" M 230.11 401.50 C 239.41 400.83 248.73 401.11 258.04 401.05 C 423.63 401.04 589.22 401.07 754.82 401.04 C 782.93 443.56 810.68 486.32 838.85 528.80 C 866.49 486.10 894.69 443.76 922.46 401.14 C 990.98 400.94 1059.51 401.11 1128.04 401.05 C 1149.05 401.13 1170.08 400.90 1191.09 401.17 C 1087.51 558.54 984.34 716.18 880.80 873.58 C 828.08 873.51 775.36 873.61 722.64 873.53 C 722.37 863.96 723.60 854.22 721.60 844.79 C 719.22 834.93 711.35 825.83 700.97 824.37 C 686.31 824.09 671.64 824.47 656.98 824.18 C 651.29 824.27 645.30 823.37 639.88 825.56 C 629.23 829.55 623.02 841.03 622.74 852.03 C 622.71 859.32 622.71 866.62 622.77 873.91 C 560.95 873.97 499.14 873.96 437.32 873.92 C 437.41 868.42 437.30 862.92 437.41 857.43 C 418.84 867.19 398.04 872.35 377.16 873.59 C 370.13 873.89 363.09 874.00 356.05 873.94 C 265.76 873.92 175.46 873.99 85.17 873.91 C 85.23 801.66 85.27 729.41 85.15 657.16 C 94.07 657.07 102.99 657.12 111.91 657.14 C 93.39 620.03 88.26 576.89 95.05 536.16 C 99.65 508.70 110.12 482.03 126.74 459.59 C 140.28 441.21 157.96 425.75 178.48 415.65 C 194.54 407.58 212.22 402.89 230.11 401.50 M 157.64 474.61 C 138.81 495.64 127.95 522.99 124.61 550.85 C 121.62 575.43 124.21 600.76 132.65 624.07 C 142.77 652.28 162.67 677.63 189.77 691.14 C 191.25 691.91 193.03 692.29 194.13 693.64 C 168.21 693.56 142.29 693.60 116.37 693.62 C 116.51 741.51 116.42 789.40 116.42 837.30 C 201.27 837.25 286.13 837.30 370.98 837.27 C 386.70 836.75 402.41 833.76 416.92 827.62 C 434.39 820.30 449.91 808.55 462.02 794.02 C 464.04 791.61 465.75 788.92 468.16 786.87 C 468.87 789.18 468.56 791.61 468.60 793.99 C 468.58 808.43 468.62 822.86 468.58 837.30 C 509.56 837.26 550.54 837.27 591.52 837.30 C 591.51 829.55 591.46 821.80 591.53 814.06 C 592.08 801.36 601.67 788.19 615.09 787.54 C 653.68 787.56 692.27 787.49 730.86 787.57 C 743.61 788.54 752.79 800.83 753.74 812.97 C 754.12 821.00 753.79 829.04 753.91 837.08 C 791.01 837.10 828.12 837.05 865.23 837.11 C 952.85 704.06 1040.02 570.72 1127.63 437.68 C 1064.42 437.77 1001.21 437.71 938.00 437.71 C 904.94 488.14 871.67 538.43 838.81 588.98 C 805.88 538.97 773.09 488.85 740.18 438.82 C 739.50 437.06 737.43 437.89 736.07 437.70 C 571.03 437.75 406.00 437.72 240.97 437.71 C 209.63 437.49 178.40 451.03 157.64 474.61 Z" />
</g>
<g id="#000000ff">
<path fill="#000000" opacity="1.00" d=" M 157.64 474.61 C 178.40 451.03 209.63 437.49 240.97 437.71 C 406.00 437.72 571.03 437.75 736.07 437.70 C 737.43 437.89 739.50 437.06 740.18 438.82 C 773.09 488.85 805.88 538.97 838.81 588.98 C 871.67 538.43 904.94 488.14 938.00 437.71 C 1001.21 437.71 1064.42 437.77 1127.63 437.68 C 1040.02 570.72 952.85 704.06 865.23 837.11 C 828.12 837.05 791.01 837.10 753.91 837.08 C 753.79 829.04 754.12 821.00 753.74 812.97 C 752.79 800.83 743.61 788.54 730.86 787.57 C 692.27 787.49 653.68 787.56 615.09 787.54 C 601.67 788.19 592.08 801.36 591.53 814.06 C 591.46 821.80 591.51 829.55 591.52 837.30 C 550.54 837.27 509.56 837.26 468.58 837.30 C 468.62 822.86 468.58 808.43 468.60 793.99 C 468.56 791.61 468.87 789.18 468.16 786.87 C 465.75 788.92 464.04 791.61 462.02 794.02 C 449.91 808.55 434.39 820.30 416.92 827.62 C 402.41 833.76 386.70 836.75 370.98 837.27 C 286.13 837.30 201.27 837.25 116.42 837.30 C 116.42 789.40 116.51 741.51 116.37 693.62 C 142.29 693.60 168.21 693.56 194.13 693.64 C 193.03 692.29 191.25 691.91 189.77 691.14 C 162.67 677.63 142.77 652.28 132.65 624.07 C 124.21 600.76 121.62 575.43 124.61 550.85 C 127.95 522.99 138.81 495.64 157.64 474.61 M 205.10 481.93 C 191.54 488.13 179.95 498.36 171.77 510.79 C 159.47 529.29 154.10 551.86 154.67 573.93 C 155.38 595.87 161.98 618.04 175.59 635.49 C 186.63 649.92 202.79 660.26 220.49 664.33 C 234.74 667.85 249.50 666.47 264.01 666.75 C 298.33 666.74 332.65 666.76 366.96 666.73 C 375.53 666.67 383.87 671.33 388.32 678.65 C 394.77 689.00 395.44 702.53 390.78 713.71 C 388.10 720.22 383.03 725.90 376.39 728.48 C 371.54 730.55 366.17 730.43 361.01 730.35 C 289.88 730.36 218.75 730.33 147.62 730.37 C 147.72 753.83 147.63 777.30 147.67 800.76 C 221.10 800.66 294.53 800.76 367.95 800.71 C 380.99 800.52 394.10 798.29 406.14 793.19 C 422.34 786.53 436.24 774.69 445.83 760.07 C 465.61 729.76 468.65 689.85 455.76 656.27 C 448.68 637.86 436.11 621.33 419.35 610.73 C 404.12 600.96 385.92 596.47 367.94 596.36 C 325.30 596.36 282.67 596.37 240.03 596.36 C 232.98 596.29 226.44 592.08 222.78 586.17 C 217.20 577.23 216.23 565.68 219.83 555.83 C 222.30 548.75 227.89 542.68 235.08 540.30 C 240.19 538.48 245.67 538.89 250.99 538.88 C 333.93 538.87 416.86 538.89 499.80 538.87 C 499.84 626.16 499.80 713.45 499.82 800.74 C 519.91 800.70 540.01 800.73 560.11 800.73 C 560.14 713.44 560.08 626.15 560.14 538.87 C 592.09 538.91 624.05 538.85 656.00 538.89 C 666.68 555.79 677.90 572.36 688.80 589.12 C 735.08 659.59 781.30 730.11 827.63 800.55 C 835.01 800.51 842.40 800.49 849.78 800.56 C 921.29 691.85 992.60 583.01 1064.06 474.26 C 1032.40 474.26 1000.75 474.34 969.09 474.22 C 925.63 540.39 882.06 606.49 838.82 672.80 C 795.32 606.69 751.88 540.54 708.54 474.33 C 553.37 474.21 398.19 474.32 243.02 474.27 C 230.04 474.11 216.93 476.50 205.10 481.93 M 596.76 616.16 C 596.73 639.62 596.80 663.08 596.72 686.55 C 623.24 686.56 649.75 686.57 676.26 686.55 C 676.19 663.08 676.25 639.62 676.24 616.16 C 649.74 616.20 623.25 616.21 596.76 616.16 Z" />
</g>
<g id="#ffe850ff">
<path fill="#ffe850" opacity="1.00" d=" M 205.10 481.93 C 216.93 476.50 230.04 474.11 243.02 474.27 C 398.19 474.32 553.37 474.21 708.54 474.33 C 751.88 540.54 795.32 606.69 838.82 672.80 C 882.06 606.49 925.63 540.39 969.09 474.22 C 1000.75 474.34 1032.40 474.26 1064.06 474.26 C 992.60 583.01 921.29 691.85 849.78 800.56 C 842.40 800.49 835.01 800.51 827.63 800.55 C 781.30 730.11 735.08 659.59 688.80 589.12 C 677.90 572.36 666.68 555.79 656.00 538.89 C 624.05 538.85 592.09 538.91 560.14 538.87 C 560.08 626.15 560.14 713.44 560.11 800.73 C 540.01 800.73 519.91 800.70 499.82 800.74 C 499.80 713.45 499.84 626.16 499.80 538.87 C 416.86 538.89 333.93 538.87 250.99 538.88 C 245.67 538.89 240.19 538.48 235.08 540.30 C 227.89 542.68 222.30 548.75 219.83 555.83 C 216.23 565.68 217.20 577.23 222.78 586.17 C 226.44 592.08 232.98 596.29 240.03 596.36 C 282.67 596.37 325.30 596.36 367.94 596.36 C 385.92 596.47 404.12 600.96 419.35 610.73 C 436.11 621.33 448.68 637.86 455.76 656.27 C 468.65 689.85 465.61 729.76 445.83 760.07 C 436.24 774.69 422.34 786.53 406.14 793.19 C 394.10 798.29 380.99 800.52 367.95 800.71 C 294.53 800.76 221.10 800.66 147.67 800.76 C 147.63 777.30 147.72 753.83 147.62 730.37 C 218.75 730.33 289.88 730.36 361.01 730.35 C 366.17 730.43 371.54 730.55 376.39 728.48 C 383.03 725.90 388.10 720.22 390.78 713.71 C 395.44 702.53 394.77 689.00 388.32 678.65 C 383.87 671.33 375.53 666.67 366.96 666.73 C 332.65 666.76 298.33 666.74 264.01 666.75 C 249.50 666.47 234.74 667.85 220.49 664.33 C 202.79 660.26 186.63 649.92 175.59 635.49 C 161.98 618.04 155.38 595.87 154.67 573.93 C 154.10 551.86 159.47 529.29 171.77 510.79 C 179.95 498.36 191.54 488.13 205.10 481.93 Z" />
<path fill="#ffe850" opacity="1.00" d=" M 596.76 616.16 C 623.25 616.21 649.74 616.20 676.24 616.16 C 676.25 639.62 676.19 663.08 676.26 686.55 C 649.75 686.57 623.24 686.56 596.72 686.55 C 596.80 663.08 596.73 639.62 596.76 616.16 Z" />
</g>
</svg>
