<?xml version="1.0" encoding="UTF-8" ?>
<!DOCTYPE svg PUBLIC "-//W3C//DTD SVG 1.1//EN" "http://www.w3.org/Graphics/SVG/1.1/DTD/svg11.dtd">
<svg width="1276pt" height="1276pt" viewBox="0 0 1276 1276" version="1.1" xmlns="http://www.w3.org/2000/svg">
<g id="#65b7ffff">
<path fill="#65b7ff" opacity="1.00" d=" M 186.04 252.09 C 487.68 252.05 789.32 252.06 1090.96 252.08 C 1090.90 264.93 1090.96 277.78 1090.92 290.63 C 900.30 290.60 709.68 290.63 519.05 290.62 C 511.34 290.52 503.63 290.74 495.93 290.91 C 494.64 291.05 493.36 291.07 492.08 290.96 C 474.07 290.22 456.03 290.81 438.00 290.62 C 354.02 290.63 270.05 290.60 186.08 290.63 C 186.04 277.78 186.10 264.93 186.04 252.09 Z" />
<path fill="#65b7ff" opacity="1.00" d=" M 186.07 373.36 C 283.06 373.38 380.05 373.36 477.04 373.36 C 484.77 373.58 492.45 372.65 500.18 372.76 L 500.86 373.15 C 524.58 373.63 548.32 373.24 572.05 373.37 C 745.01 373.36 917.97 373.38 1090.93 373.35 C 1090.95 386.20 1090.89 399.04 1090.96 411.89 C 789.32 411.92 487.68 411.92 186.04 411.89 C 186.10 399.04 186.04 386.20 186.07 373.36 Z" />
<path fill="#65b7ff" opacity="1.00" d=" M 198.70 548.62 C 207.86 539.09 220.65 532.94 233.95 532.70 C 313.44 532.75 392.94 532.68 472.43 532.73 C 472.42 545.76 472.39 558.80 472.45 571.83 C 393.14 571.96 313.83 571.85 234.52 571.89 C 234.47 617.67 234.52 663.45 234.49 709.23 C 297.57 709.22 360.65 709.27 423.73 709.21 C 423.69 694.43 423.69 679.65 423.74 664.87 C 392.06 664.62 360.37 665.05 328.69 664.65 C 328.79 651.65 328.73 638.66 328.72 625.67 C 376.63 625.54 424.53 625.61 472.44 625.64 C 472.41 666.56 472.40 707.48 472.45 748.41 C 393.63 748.49 314.82 748.39 236.00 748.46 C 233.00 748.41 230.07 747.63 227.07 747.53 C 210.51 745.11 195.93 733.09 189.69 717.67 C 185.28 707.37 186.11 695.97 186.07 685.04 C 186.06 652.34 186.07 619.64 186.06 586.95 C 185.93 579.53 186.41 571.95 189.05 564.95 C 190.98 558.82 194.85 553.64 198.70 548.62 Z" />
<path fill="#65b7ff" opacity="1.00" d=" M 515.60 532.74 C 599.23 532.69 682.86 532.72 766.49 532.72 C 766.48 545.76 766.44 558.80 766.51 571.84 C 699.11 571.99 631.71 571.75 564.32 571.96 C 564.31 589.84 564.38 607.71 564.29 625.59 C 621.18 625.65 678.07 625.57 734.96 625.63 C 734.87 638.68 734.89 651.73 734.95 664.78 C 678.07 664.85 621.19 664.75 564.31 664.83 C 564.36 692.68 564.29 720.54 564.35 748.39 C 548.10 748.48 531.84 748.45 515.59 748.40 C 515.64 676.51 515.62 604.62 515.60 532.74 Z" />
<path fill="#65b7ff" opacity="1.00" d=" M 796.91 538.13 C 795.18 536.43 793.35 534.80 792.02 532.76 C 814.72 532.65 837.42 532.75 860.12 532.71 C 869.76 542.46 879.52 552.10 889.19 561.83 C 907.21 578.64 924.07 596.68 941.84 613.76 C 955.16 599.79 969.06 586.34 982.66 572.62 C 996.02 559.33 1009.24 545.91 1022.65 532.68 C 1045.51 532.81 1068.36 532.58 1091.22 532.80 C 1055.30 568.75 1019.32 604.63 983.46 640.63 C 1019.44 676.46 1055.34 712.38 1091.18 748.35 C 1068.32 748.56 1045.45 748.36 1022.58 748.46 C 996.75 722.62 970.89 696.79 945.08 670.93 C 943.81 669.64 942.48 668.42 941.11 667.27 C 914.36 694.53 887.10 721.30 860.21 748.44 C 837.44 748.37 814.67 748.58 791.91 748.33 C 806.90 732.56 822.66 717.50 837.93 701.97 C 858.38 681.60 878.70 661.08 899.22 640.78 C 884.96 625.74 869.95 611.41 855.41 596.64 C 835.91 577.13 816.41 557.63 796.91 538.13 Z" />
<path fill="#65b7ff" opacity="1.00" d=" M 186.11 863.48 C 487.70 863.49 789.29 863.53 1090.89 863.48 C 1090.99 876.53 1090.91 889.59 1090.93 902.65 C 976.26 902.62 861.59 902.64 746.92 902.63 C 663.57 902.71 580.18 902.48 496.85 902.76 L 496.19 903.24 C 483.49 902.33 470.76 902.70 458.05 902.63 C 367.39 902.64 276.73 902.62 186.08 902.65 C 186.08 889.59 186.02 876.53 186.11 863.48 Z" />
<path fill="#65b7ff" opacity="1.00" d=" M 186.05 984.77 C 487.68 984.76 789.32 984.76 1090.95 984.77 C 1090.92 997.82 1090.91 1010.86 1090.96 1023.91 C 789.32 1023.94 487.68 1023.95 186.04 1023.91 C 186.09 1010.86 186.08 997.82 186.05 984.77 Z" />
</g>
</svg>
