<?xml version="1.0" encoding="UTF-8" ?>
<!DOCTYPE svg PUBLIC "-//W3C//DTD SVG 1.1//EN" "http://www.w3.org/Graphics/SVG/1.1/DTD/svg11.dtd">
<svg width="1276pt" height="1276pt" viewBox="0 0 1276 1276" version="1.1" xmlns="http://www.w3.org/2000/svg">
<g id="#54afb5ff">
<path fill="#54afb5" opacity="1.00" d=" M 972.71 342.21 C 987.93 342.07 1003.15 342.23 1018.37 342.11 C 1019.61 343.83 1020.35 345.84 1020.19 348.01 C 1020.06 363.56 1020.25 379.12 1020.05 394.68 C 1011.67 394.70 1003.30 394.67 994.92 394.68 C 994.76 383.79 995.09 372.90 994.88 362.00 C 994.75 355.79 995.38 349.56 994.75 343.35 C 987.41 342.86 980.03 343.02 972.71 342.21 Z" />
<path fill="#54afb5" opacity="1.00" d=" M 997.95 786.44 C 1004.29 786.43 1010.63 786.46 1016.97 786.42 C 1016.82 803.63 1017.27 820.84 1016.98 838.04 C 1010.69 838.16 1004.39 838.25 998.12 837.78 C 997.64 820.68 998.05 803.55 997.95 786.44 Z" />
</g>
<g id="#50acc7ff">
<path fill="#50acc7" opacity="1.00" d=" M 1018.37 342.11 C 1034.74 342.38 1051.14 341.78 1067.50 342.39 L 1066.41 342.75 C 1063.00 342.94 1059.59 343.02 1056.19 343.22 C 1055.54 360.14 1056.03 377.10 1055.99 394.03 C 1054.60 394.21 1053.22 394.40 1051.85 394.60 C 1041.25 394.82 1030.65 394.60 1020.05 394.68 C 1020.25 379.12 1020.06 363.56 1020.19 348.01 C 1020.35 345.84 1019.61 343.83 1018.37 342.11 Z" />
</g>
<g id="#49a8e2ff">
<path fill="#49a8e2" opacity="1.00" d=" M 1067.50 342.39 C 1105.84 341.79 1144.28 342.40 1182.66 342.07 C 1172.68 359.66 1162.45 377.11 1152.42 394.67 C 1118.90 394.66 1085.37 394.76 1051.85 394.60 C 1053.22 394.40 1054.60 394.21 1055.99 394.03 C 1065.27 393.79 1074.56 394.05 1083.84 393.67 C 1084.46 381.46 1083.76 369.22 1084.07 357.01 C 1084.17 352.42 1084.16 347.84 1083.78 343.27 C 1077.99 342.91 1072.19 343.11 1066.41 342.75 L 1067.50 342.39 Z" />
<path fill="#49a8e2" opacity="1.00" d=" M 1074.13 409.78 C 1097.33 409.76 1120.52 409.80 1143.71 409.75 C 1139.11 417.56 1134.68 425.47 1130.09 433.28 C 1111.43 433.27 1092.77 433.28 1074.11 433.28 C 1074.18 425.44 1074.18 417.61 1074.13 409.78 Z" />
<path fill="#49a8e2" opacity="1.00" d=" M 1087.03 724.95 C 1087.36 715.70 1086.30 706.40 1087.60 697.20 C 1119.64 713.43 1145.61 740.99 1160.46 773.64 C 1177.53 810.49 1179.85 853.96 1166.14 892.25 C 1160.88 907.77 1152.40 921.87 1144.14 935.93 C 1123.63 935.76 1103.11 935.89 1082.60 935.86 C 1093.04 917.85 1103.49 899.84 1113.79 881.75 C 1122.81 861.26 1124.83 837.79 1119.71 816.01 C 1114.75 794.65 1103.15 774.91 1086.97 760.13 C 1087.01 748.40 1086.94 736.68 1087.03 724.95 Z" />
</g>
<g id="#6ebc59ff">
<path fill="#6ebc59" opacity="1.00" d=" M 853.01 344.75 C 859.93 343.46 866.93 342.66 873.97 342.35 C 873.88 354.88 873.98 367.41 874.04 379.94 C 873.91 384.89 873.86 389.84 874.44 394.76 L 874.47 395.10 C 867.14 395.36 859.91 396.85 852.85 398.74 C 853.29 380.75 852.88 362.75 853.01 344.75 Z" />
<path fill="#6ebc59" opacity="1.00" d=" M 851.04 786.28 C 858.74 786.28 866.44 786.27 874.14 786.28 C 873.76 803.92 874.45 821.58 873.95 839.22 C 866.29 839.22 858.63 839.23 850.97 839.22 C 850.99 821.57 850.98 803.92 851.04 786.28 Z" />
</g>
<g id="#69ba66ff">
<path fill="#69ba66" opacity="1.00" d=" M 873.97 342.35 C 881.61 342.05 889.26 342.16 896.91 342.15 C 897.21 359.66 896.95 377.17 897.05 394.68 C 889.51 394.68 881.97 394.67 874.44 394.76 C 873.86 389.84 873.91 384.89 874.04 379.94 C 873.98 367.41 873.88 354.88 873.97 342.35 Z" />
</g>
<g id="#64b875ff">
<path fill="#64b875" opacity="1.00" d=" M 896.91 342.15 C 904.26 342.15 911.60 342.14 918.95 342.15 C 918.96 359.66 918.98 377.17 918.95 394.68 C 911.65 394.69 904.35 394.68 897.05 394.68 C 896.95 377.17 897.21 359.66 896.91 342.15 Z" />
</g>
<g id="#60b682ff">
<path fill="#60b682" opacity="1.00" d=" M 918.95 342.15 C 925.98 342.15 933.02 342.14 940.06 342.15 C 940.09 359.66 940.14 377.17 939.94 394.68 C 932.94 394.69 925.95 394.68 918.95 394.68 C 918.98 377.17 918.96 359.66 918.95 342.15 Z" />
</g>
<g id="#5cb492ff">
<path fill="#5cb492" opacity="1.00" d=" M 940.06 342.15 C 948.68 342.16 957.30 342.13 965.92 342.15 C 966.48 359.66 965.71 377.18 966.14 394.68 C 957.41 394.69 948.67 394.67 939.94 394.68 C 940.14 377.17 940.09 359.66 940.06 342.15 Z" />
<path fill="#5cb492" opacity="1.00" d=" M 940.10 448.47 C 948.72 448.47 957.35 448.46 965.97 448.47 C 966.13 487.43 965.95 526.41 965.96 565.37 C 957.32 565.37 948.68 565.37 940.04 565.37 C 940.19 526.40 940.04 487.44 940.10 448.47 Z" />
</g>
<g id="#57b1a4ff">
<path fill="#57b1a4" opacity="1.00" d=" M 965.92 342.15 C 968.18 342.15 970.44 342.08 972.71 342.21 C 980.03 343.02 987.41 342.86 994.75 343.35 C 995.38 349.56 994.75 355.79 994.88 362.00 C 995.09 372.90 994.76 383.79 994.92 394.68 C 985.33 394.70 975.73 394.68 966.14 394.68 C 965.71 377.18 966.48 359.66 965.92 342.15 Z" />
</g>
<g id="#4caad6ff">
<path fill="#4caad6" opacity="1.00" d=" M 1056.19 343.22 C 1059.59 343.02 1063.00 342.94 1066.41 342.75 C 1072.19 343.11 1077.99 342.91 1083.78 343.27 C 1084.16 347.84 1084.17 352.42 1084.07 357.01 C 1083.76 369.22 1084.46 381.46 1083.84 393.67 C 1074.56 394.05 1065.27 393.79 1055.99 394.03 C 1056.03 377.10 1055.54 360.14 1056.19 343.22 Z" />
<path fill="#4caad6" opacity="1.00" d=" M 1057.93 448.47 C 1067.61 448.47 1077.29 448.46 1086.96 448.47 C 1086.80 460.98 1087.07 473.50 1086.91 486.02 C 1087.08 492.92 1086.28 499.92 1087.80 506.73 C 1078.21 523.48 1068.56 540.20 1058.88 556.91 C 1057.28 550.71 1058.06 544.30 1057.91 537.99 C 1057.94 508.15 1057.85 478.31 1057.93 448.47 Z" />
</g>
<g id="#f15f1bff">
<path fill="#f15f1b" opacity="1.00" d=" M 330.54 360.56 C 335.68 355.33 340.92 350.22 346.04 344.98 C 349.49 348.47 352.98 351.92 356.44 355.41 C 355.56 364.01 356.18 372.67 355.90 381.30 C 352.60 378.02 349.30 374.74 346.05 371.41 C 341.33 376.25 336.60 381.10 331.68 385.74 C 330.22 377.40 331.73 368.92 330.54 360.56 Z" />
</g>
<g id="#74bd4eff">
<path fill="#74bd4e" opacity="1.00" d=" M 831.06 350.41 C 838.24 348.05 845.58 346.14 853.01 344.75 C 852.88 362.75 853.29 380.75 852.85 398.74 C 845.35 400.94 838.08 403.87 831.18 407.52 C 830.66 388.49 830.84 369.44 831.06 350.41 Z" />
</g>
<g id="#7cbf41ff">
<path fill="#7cbf41" opacity="1.00" d=" M 798.04 365.89 C 808.42 359.51 819.53 354.34 831.06 350.41 C 830.84 369.44 830.66 388.49 831.18 407.52 C 818.68 414.35 807.49 423.54 798.50 434.59 C 797.67 424.41 798.28 414.19 798.11 404.00 C 797.84 391.30 798.10 378.60 798.04 365.89 Z" />
<path fill="#7cbf41" opacity="1.00" d=" M 825.17 493.29 C 826.65 499.78 825.72 506.44 825.98 513.02 C 825.99 533.01 825.98 553.01 825.94 573.00 C 826.17 580.75 825.50 588.54 826.48 596.26 C 817.18 612.14 808.33 628.31 798.69 643.98 L 798.36 643.85 C 797.55 636.60 797.96 629.31 797.91 622.05 C 798.11 598.70 797.82 575.35 798.04 552.01 C 798.13 548.49 797.84 544.98 797.37 541.50 C 806.60 525.41 815.86 509.33 825.17 493.29 Z" />
</g>
<g id="#f26619ff">
<path fill="#f26619" opacity="1.00" d=" M 356.44 355.41 C 370.17 369.13 383.95 382.80 397.62 396.58 C 388.83 396.58 380.03 396.51 371.24 396.60 C 366.07 391.55 361.01 386.40 355.90 381.30 C 356.18 372.67 355.56 364.01 356.44 355.41 Z" />
</g>
<g id="#f1581cff">
<path fill="#f1581c" opacity="1.00" d=" M 294.52 396.55 C 306.57 384.59 318.52 372.54 330.54 360.56 C 331.73 368.92 330.22 377.40 331.68 385.74 L 331.70 385.93 C 327.93 389.33 324.69 393.41 320.71 396.52 C 311.98 396.62 303.25 396.54 294.52 396.55 Z" />
</g>
<g id="#87c035ff">
<path fill="#87c035" opacity="1.00" d=" M 777.28 381.15 C 783.76 375.50 790.76 370.47 798.04 365.89 C 798.10 378.60 797.84 391.30 798.11 404.00 C 798.28 414.19 797.67 424.41 798.50 434.59 C 790.58 444.42 785.06 455.84 778.56 466.59 C 777.58 460.76 777.96 454.85 778.07 448.98 C 777.89 431.31 777.89 413.63 777.96 395.96 C 778.10 391.02 778.23 386.04 777.28 381.15 Z" />
<path fill="#87c035" opacity="1.00" d=" M 777.25 681.29 C 780.68 681.04 784.11 680.79 787.55 680.58 C 791.30 680.83 795.06 680.91 798.81 681.26 C 799.65 698.36 798.75 715.50 799.09 732.62 C 791.76 732.61 784.42 732.62 777.09 732.62 C 776.83 722.74 777.25 712.87 776.96 703.01 C 777.11 695.77 776.64 688.51 777.25 681.29 Z" />
</g>
<g id="#93c02cff">
<path fill="#93c02c" opacity="1.00" d=" M 756.27 403.11 C 762.62 395.21 769.60 387.79 777.28 381.15 C 778.23 386.04 778.10 391.02 777.96 395.96 C 777.89 413.63 777.89 431.31 778.07 448.98 C 777.96 454.85 777.58 460.76 778.56 466.59 C 771.55 478.82 764.50 491.02 757.43 503.21 C 756.90 497.83 756.79 492.42 756.88 487.01 C 756.90 462.33 756.95 437.66 756.94 412.98 C 756.96 409.75 756.73 406.53 756.30 403.34 L 756.27 403.11 Z" />
<path fill="#93c02c" opacity="1.00" d=" M 761.02 747.72 C 765.69 747.72 770.36 747.72 775.03 747.72 C 775.09 755.56 774.87 763.40 775.02 771.24 C 770.36 771.24 765.70 771.25 761.04 771.24 C 761.05 763.40 761.06 755.56 761.02 747.72 Z" />
</g>
<g id="#a3c023ff">
<path fill="#a3c023" opacity="1.00" d=" M 732.35 441.46 C 740.00 428.56 746.71 414.97 756.30 403.34 C 756.73 406.53 756.96 409.75 756.94 412.98 C 756.95 437.66 756.90 462.33 756.88 487.01 C 756.79 492.42 756.90 497.83 757.43 503.21 C 749.49 516.78 741.97 530.61 733.69 543.97 L 733.35 543.83 C 732.31 531.25 733.29 518.61 732.92 506.00 C 732.81 491.33 732.96 476.66 732.85 461.99 C 732.74 455.15 733.75 448.24 732.35 441.46 Z" />
</g>
<g id="#ec3723ff">
<path fill="#ec3723" opacity="1.00" d=" M 149.02 406.43 C 174.04 406.30 199.06 406.40 224.08 406.37 C 224.26 423.48 223.58 440.61 224.24 457.71 C 234.59 458.67 245.03 457.42 255.34 458.84 C 229.99 459.00 204.64 458.96 179.30 458.85 C 169.27 441.34 159.24 423.82 149.02 406.43 Z" />
<path fill="#ec3723" opacity="1.00" d=" M 144.18 474.31 C 170.80 474.01 197.42 474.26 224.04 474.18 C 229.26 474.28 234.50 473.92 239.71 474.41 L 238.46 474.90 C 233.70 475.13 228.93 474.92 224.17 475.21 C 223.64 482.63 223.99 490.07 223.95 497.50 C 204.28 497.51 184.60 497.51 164.92 497.50 C 164.85 490.10 165.41 482.69 164.80 475.30 C 157.94 474.60 150.93 476.00 144.18 474.31 Z" />
</g>
<g id="#ee4720ff">
<path fill="#ee4720" opacity="1.00" d=" M 224.08 406.37 C 245.35 406.37 266.63 406.36 287.90 406.37 C 288.01 423.51 287.65 440.67 288.11 457.81 C 296.04 458.46 304.01 458.10 311.97 458.21 C 314.83 458.21 317.69 458.31 320.56 458.38 L 319.33 458.71 C 298.04 459.17 276.66 458.90 255.34 458.84 C 245.03 457.42 234.59 458.67 224.24 457.71 C 223.58 440.61 224.26 423.48 224.08 406.37 Z" />
</g>
<g id="#f0531dff">
<path fill="#f0531d" opacity="1.00" d=" M 287.90 406.37 C 295.65 406.37 303.39 406.36 311.14 406.37 C 311.56 406.74 312.41 407.49 312.83 407.86 L 312.79 408.10 C 312.34 410.69 311.96 413.31 311.95 415.95 C 312.04 430.04 312.05 444.12 311.97 458.21 C 304.01 458.10 296.04 458.46 288.11 457.81 C 287.65 440.67 288.01 423.51 287.90 406.37 Z" />
</g>
<g id="#f36c18ff">
<path fill="#f36c18" opacity="1.00" d=" M 366.70 420.59 C 371.43 415.84 376.17 411.11 380.90 406.36 C 391.87 406.27 402.84 407.28 413.62 409.32 C 413.09 412.85 412.76 416.41 412.85 419.99 C 413.02 434.42 412.80 448.84 412.95 463.27 C 404.62 460.82 396.01 459.58 387.37 459.00 C 380.81 457.05 373.94 458.44 367.24 457.73 C 366.61 445.36 367.61 432.95 366.70 420.59 Z" />
<path fill="#f36c18" opacity="1.00" d=" M 374.03 512.71 C 380.08 512.76 386.18 512.42 392.18 513.42 C 400.67 514.65 408.76 518.15 415.65 523.23 C 415.26 525.47 414.89 527.72 414.83 530.01 C 414.84 555.67 414.95 581.34 414.78 607.01 C 414.77 609.92 415.19 612.81 415.72 615.67 C 412.29 621.90 408.43 627.91 405.49 634.40 C 396.53 653.74 393.35 675.82 397.12 696.84 C 399.56 711.68 405.51 725.80 413.57 738.42 C 412.25 748.22 413.23 758.12 412.90 767.96 C 413.14 782.40 412.96 796.84 412.81 811.28 C 397.53 800.77 384.14 787.54 373.35 772.46 C 373.71 769.65 374.05 766.84 374.09 764.01 C 373.91 710.34 374.03 656.68 374.02 603.01 C 374.03 596.56 374.16 590.10 373.64 583.67 C 377.17 577.58 380.55 571.40 384.25 565.42 C 380.81 565.35 377.38 565.36 373.96 565.37 C 374.09 547.82 373.96 530.26 374.03 512.71 Z" />
</g>
<g id="#f15a1cff">
<path fill="#f15a1c" opacity="1.00" d=" M 311.95 415.95 C 311.96 413.31 312.34 410.69 312.79 408.10 C 322.48 417.45 331.88 427.11 341.43 436.62 C 340.55 443.64 341.38 450.71 340.81 457.75 C 334.07 458.25 327.28 457.59 320.56 458.38 C 317.69 458.31 314.83 458.21 311.97 458.21 C 312.05 444.12 312.04 430.04 311.95 415.95 Z" />
<path fill="#f15a1c" opacity="1.00" d=" M 311.99 512.71 C 320.67 512.71 329.35 512.70 338.03 512.71 C 337.97 530.26 338.16 547.82 337.98 565.37 C 329.30 565.37 320.63 565.37 311.96 565.37 C 311.93 547.82 311.94 530.26 311.99 512.71 Z" />
</g>
<g id="#f67a14ff">
<path fill="#f67a14" opacity="1.00" d=" M 412.85 419.99 C 412.76 416.41 413.09 412.85 413.62 409.32 C 422.84 411.10 431.87 413.75 440.66 417.05 L 440.64 417.20 C 439.38 424.76 440.13 432.43 440.06 440.04 C 439.89 451.82 440.44 463.61 439.76 475.38 C 431.43 470.14 422.38 466.08 412.95 463.27 C 412.80 448.84 413.02 434.42 412.85 419.99 Z" />
</g>
<g id="#6cbb5eff">
<path fill="#6cbb5e" opacity="1.00" d=" M 863.49 411.56 C 869.29 410.75 875.11 409.95 880.98 409.79 C 881.07 417.62 880.90 425.45 880.95 433.28 C 875.26 433.35 869.59 434.04 864.08 435.47 C 863.77 427.58 864.45 419.65 863.52 411.79 L 863.49 411.56 Z" />
</g>
<g id="#68ba68ff">
<path fill="#68ba68" opacity="1.00" d=" M 880.98 409.79 C 886.03 409.76 891.09 409.77 896.16 409.77 C 896.31 417.61 896.29 425.44 896.16 433.28 C 891.08 433.28 886.02 433.27 880.95 433.28 C 880.90 425.45 881.07 417.62 880.98 409.79 Z" />
</g>
<g id="#63b779ff">
<path fill="#63b779" opacity="1.00" d=" M 896.16 409.77 C 908.06 409.78 919.96 409.77 931.86 409.77 C 931.78 417.61 931.77 425.44 931.87 433.28 C 919.97 433.28 908.06 433.28 896.16 433.28 C 896.29 425.44 896.31 417.61 896.16 409.77 Z" />
<path fill="#63b779" opacity="1.00" d=" M 907.96 747.62 C 912.99 747.61 918.03 747.61 923.07 747.62 C 923.08 755.52 923.21 763.43 923.03 771.34 C 918.00 771.34 912.97 771.34 907.94 771.34 C 908.01 763.43 907.95 755.52 907.96 747.62 Z" />
</g>
<g id="#5eb58aff">
<path fill="#5eb58a" opacity="1.00" d=" M 931.86 409.77 C 937.25 409.77 942.64 409.77 948.04 409.78 C 947.88 417.61 948.04 425.44 948.06 433.28 C 942.66 433.28 937.26 433.27 931.87 433.28 C 931.77 425.44 931.78 417.61 931.86 409.77 Z" />
<path fill="#5eb58a" opacity="1.00" d=" M 930.93 701.99 C 931.19 694.94 930.23 687.77 931.69 680.82 C 937.39 680.81 943.10 680.75 948.79 681.31 C 949.10 685.18 949.21 689.07 949.10 692.96 C 948.77 706.18 949.04 719.40 949.09 732.62 C 943.26 732.61 937.42 732.65 931.59 732.58 C 930.23 722.44 931.33 712.18 930.93 701.99 Z" />
</g>
<g id="#5cb393ff">
<path fill="#5cb393" opacity="1.00" d=" M 948.04 409.78 C 952.37 409.77 956.71 409.77 961.05 409.78 C 961.14 417.61 961.06 425.44 961.05 433.28 C 956.72 433.28 952.39 433.28 948.06 433.28 C 948.04 425.44 947.88 417.61 948.04 409.78 Z" />
</g>
<g id="#59b29fff">
<path fill="#59b29f" opacity="1.00" d=" M 961.05 409.78 C 968.71 409.78 976.37 409.77 984.04 409.78 C 984.19 417.61 984.15 425.44 984.07 433.28 C 976.39 433.28 968.72 433.27 961.05 433.28 C 961.06 425.44 961.14 417.61 961.05 409.78 Z" />
</g>
<g id="#55afb1ff">
<path fill="#55afb1" opacity="1.00" d=" M 984.04 409.78 C 995.32 409.78 1006.60 409.77 1017.88 409.78 C 1017.81 417.61 1017.80 425.44 1017.92 433.28 C 1006.63 433.28 995.35 433.27 984.07 433.28 C 984.15 425.44 984.19 417.61 984.04 409.78 Z" />
</g>
<g id="#51adc3ff">
<path fill="#51adc3" opacity="1.00" d=" M 1017.88 409.78 C 1026.60 409.78 1035.32 409.77 1044.05 409.78 C 1044.18 417.61 1043.96 425.44 1043.95 433.27 C 1035.27 433.28 1026.59 433.27 1017.92 433.28 C 1017.80 425.44 1017.81 417.61 1017.88 409.78 Z" />
</g>
<g id="#4daad1ff">
<path fill="#4daad1" opacity="1.00" d=" M 1044.05 409.78 C 1054.07 409.78 1064.10 409.77 1074.13 409.78 C 1074.18 417.61 1074.18 425.44 1074.11 433.28 C 1064.05 433.28 1054.00 433.27 1043.95 433.27 C 1043.96 425.44 1044.18 417.61 1044.05 409.78 Z" />
</g>
<g id="#70bc55ff">
<path fill="#70bc55" opacity="1.00" d=" M 846.89 416.77 C 852.28 414.66 857.80 412.83 863.52 411.79 C 864.45 419.65 863.77 427.58 864.08 435.47 C 858.23 437.10 852.58 439.40 847.31 442.42 C 846.71 433.88 847.09 425.32 846.89 416.77 Z" />
</g>
<g id="#75bd4cff">
<path fill="#75bd4c" opacity="1.00" d=" M 830.52 425.45 C 835.77 422.19 841.17 419.15 846.89 416.77 C 847.09 425.32 846.71 433.88 847.31 442.42 C 841.35 445.89 836.03 450.32 831.32 455.32 C 830.40 445.46 831.41 435.54 830.53 425.67 L 830.52 425.45 Z" />
<path fill="#75bd4c" opacity="1.00" d=" M 825.17 493.29 C 832.61 480.99 838.33 466.77 850.65 458.39 C 851.33 469.56 850.91 480.77 851.09 491.96 C 851.05 516.43 851.16 540.90 851.07 565.37 C 848.83 565.36 846.59 565.36 844.36 565.37 C 838.35 575.64 832.47 585.98 826.48 596.26 C 825.50 588.54 826.17 580.75 825.94 573.00 C 825.98 553.01 825.99 533.01 825.98 513.02 C 825.72 506.44 826.65 499.78 825.17 493.29 Z" />
<path fill="#75bd4c" opacity="1.00" d=" M 824.93 786.44 C 833.64 786.51 842.34 786.36 851.04 786.28 C 850.98 803.92 850.99 821.57 850.97 839.22 C 848.26 839.21 845.52 839.42 842.85 838.88 C 837.05 837.64 831.10 838.48 825.25 837.79 C 824.88 833.20 824.86 828.59 824.92 823.99 C 825.13 811.48 824.76 798.96 824.93 786.44 Z" />
</g>
<g id="#fb8711ff">
<path fill="#fb8711" opacity="1.00" d=" M 440.06 440.04 C 440.13 432.43 439.38 424.76 440.64 417.20 C 450.41 420.76 459.64 425.70 468.44 431.21 L 468.40 432.08 C 467.93 452.39 468.28 472.73 468.22 493.05 C 468.14 495.57 467.79 498.07 467.41 500.57 C 459.61 490.77 450.38 482.06 439.76 475.38 C 440.44 463.61 439.89 451.82 440.06 440.04 Z" />
<path fill="#fb8711" opacity="1.00" d=" M 435.47 741.60 C 437.24 728.20 434.97 714.59 436.84 701.21 C 443.61 721.00 459.56 737.55 479.55 744.09 L 479.52 744.28 C 478.31 752.18 478.66 760.23 479.34 768.18 C 462.60 763.66 447.15 754.45 435.47 741.60 Z" />
</g>
<g id="#f2631aff">
<path fill="#f2631a" opacity="1.00" d=" M 346.05 441.28 C 352.91 434.36 359.81 427.48 366.70 420.59 C 367.61 432.95 366.61 445.36 367.24 457.73 C 373.94 458.44 380.81 457.05 387.37 459.00 C 364.69 458.71 342.00 459.23 319.33 458.71 L 320.56 458.38 C 327.28 457.59 334.07 458.25 340.81 457.75 C 341.38 450.71 340.55 443.64 341.43 436.62 C 342.99 438.14 344.52 439.70 346.05 441.28 Z" />
<path fill="#f2631a" opacity="1.00" d=" M 338.03 512.71 C 350.03 512.71 362.03 512.70 374.03 512.71 C 373.96 530.26 374.09 547.82 373.96 565.37 C 361.96 565.37 349.97 565.37 337.98 565.37 C 338.16 547.82 337.97 530.26 338.03 512.71 Z" />
</g>
<g id="#7bbf41ff">
<path fill="#7bbf41" opacity="1.00" d=" M 800.25 459.29 C 807.45 445.89 817.76 434.02 830.53 425.67 C 831.41 435.54 830.40 445.46 831.32 455.32 C 825.02 462.08 820.87 470.38 816.25 478.28 C 811.38 486.69 806.57 495.13 801.67 503.51 C 800.29 496.07 801.14 488.48 800.91 480.97 C 800.61 473.74 801.69 466.44 800.25 459.29 Z" />
</g>
<g id="#fe990bff">
<path fill="#fe990b" opacity="1.00" d=" M 468.40 432.08 L 468.44 431.22 C 483.43 440.92 496.84 453.08 507.83 467.16 C 507.49 469.07 507.15 470.98 507.04 472.93 C 506.90 535.96 506.99 599.00 506.97 662.04 C 507.01 664.29 507.40 666.52 507.81 668.73 C 505.84 672.28 503.85 675.82 501.70 679.27 C 501.51 679.57 501.14 680.17 500.95 680.47 C 503.57 680.86 506.20 681.21 508.83 681.52 C 509.18 698.54 508.78 715.58 508.93 732.62 C 500.14 732.89 491.18 732.47 482.88 729.27 C 483.06 698.84 482.94 668.40 482.96 637.96 C 482.69 627.19 483.69 616.38 482.42 605.65 C 489.11 588.38 491.52 569.44 488.81 551.09 C 486.13 532.86 478.65 515.35 467.38 500.77 L 467.41 500.57 C 467.79 498.07 468.14 495.57 468.22 493.05 C 468.28 472.73 467.93 452.39 468.40 432.08 Z" />
</g>
<g id="#b5c01cff">
<path fill="#b5c01c" opacity="1.00" d=" M 732.35 441.46 C 733.75 448.24 732.74 455.15 732.85 461.99 C 732.96 476.66 732.81 491.33 732.92 506.00 C 733.29 518.61 732.31 531.25 733.35 543.83 L 733.27 544.77 C 725.24 559.38 716.72 573.76 708.34 588.19 C 707.88 559.79 708.25 531.38 708.13 502.97 C 708.02 497.04 708.71 491.00 707.14 485.20 C 715.47 470.58 723.95 456.04 732.35 441.46 Z" />
<path fill="#b5c01c" opacity="1.00" d=" M 705.14 747.72 C 715.38 747.71 725.63 747.73 735.88 747.73 C 735.79 755.56 735.76 763.40 735.89 771.24 C 725.62 771.24 715.36 771.25 705.11 771.25 C 705.27 763.40 705.20 755.56 705.14 747.72 Z" />
</g>
<g id="#6ebb5bff">
<path fill="#6ebb5b" opacity="1.00" d=" M 850.65 458.39 C 858.94 452.46 868.93 449.03 879.10 448.50 C 878.59 468.32 879.21 488.14 878.94 507.97 C 878.91 527.10 879.05 546.23 878.95 565.37 C 869.65 565.37 860.36 565.37 851.07 565.37 C 851.16 540.90 851.05 516.43 851.09 491.96 C 850.91 480.77 851.33 469.56 850.65 458.39 Z" />
<path fill="#6ebb5b" opacity="1.00" d=" M 859.63 679.79 C 864.12 679.84 868.61 679.80 873.11 679.81 C 873.23 697.46 873.19 715.11 873.15 732.76 C 868.07 732.76 863.00 732.76 857.93 732.76 C 857.83 719.83 858.03 706.91 857.96 693.99 C 858.04 689.24 856.98 684.06 859.63 679.79 Z" />
<path fill="#6ebb5b" opacity="1.00" d=" M 857.92 747.62 C 863.26 747.61 868.61 747.61 873.97 747.62 C 873.89 755.53 874.16 763.43 874.01 771.34 C 868.62 771.34 863.23 771.34 857.85 771.34 C 857.85 763.43 857.80 755.52 857.92 747.62 Z" />
</g>
<g id="#68b969ff">
<path fill="#68b969" opacity="1.00" d=" M 879.10 448.50 C 886.71 448.44 894.32 448.47 901.93 448.47 C 902.10 487.44 901.75 526.40 902.06 565.37 C 894.36 565.37 886.65 565.37 878.95 565.37 C 879.05 546.23 878.91 527.10 878.94 507.97 C 879.21 488.14 878.59 468.32 879.10 448.50 Z" />
<path fill="#68b969" opacity="1.00" d=" M 873.11 679.81 C 885.75 679.81 898.38 679.82 911.02 679.81 C 909.97 680.55 908.93 681.31 907.90 682.07 C 907.63 698.59 908.04 715.12 907.72 731.64 C 901.40 731.93 895.04 731.74 888.77 732.69 C 883.56 732.89 878.35 732.69 873.15 732.76 C 873.19 715.11 873.23 697.46 873.11 679.81 Z" />
</g>
<g id="#63b777ff">
<path fill="#63b777" opacity="1.00" d=" M 901.93 448.47 C 908.93 448.47 915.93 448.46 922.93 448.47 C 923.11 487.44 922.76 526.40 923.02 565.37 C 916.03 565.37 909.05 565.37 902.06 565.37 C 901.75 526.40 902.10 487.44 901.93 448.47 Z" />
</g>
<g id="#60b684ff">
<path fill="#60b684" opacity="1.00" d=" M 922.93 448.47 C 928.65 448.47 934.38 448.46 940.10 448.47 C 940.04 487.44 940.19 526.40 940.04 565.37 C 934.36 565.37 928.69 565.37 923.02 565.37 C 922.76 526.40 923.11 487.44 922.93 448.47 Z" />
</g>
<g id="#58b1a3ff">
<path fill="#58b1a3" opacity="1.00" d=" M 965.97 448.47 C 974.02 448.48 982.06 448.45 990.11 448.47 C 989.96 487.43 990.22 526.40 990.06 565.37 C 982.02 565.37 973.99 565.36 965.96 565.37 C 965.95 526.41 966.13 487.43 965.97 448.47 Z" />
</g>
<g id="#54afb4ff">
<path fill="#54afb4" opacity="1.00" d=" M 990.11 448.47 C 1001.04 448.48 1011.96 448.46 1022.89 448.47 C 1022.61 463.98 1023.38 479.49 1022.86 495.00 C 1022.98 508.99 1022.75 522.98 1022.95 536.97 C 1023.45 546.44 1022.54 555.90 1022.96 565.37 C 1011.99 565.38 1001.03 565.36 990.06 565.37 C 990.22 526.40 989.96 487.43 990.11 448.47 Z" />
<path fill="#54afb4" opacity="1.00" d=" M 1016.52 839.53 L 1017.01 839.92 C 1017.06 871.73 1017.02 903.54 1017.04 935.34 C 1008.77 935.08 1000.48 935.39 992.23 934.71 C 991.52 917.38 992.92 899.98 991.50 882.69 C 999.85 868.31 1007.97 853.79 1016.52 839.53 Z" />
</g>
<g id="#4facc8ff">
<path fill="#4facc8" opacity="1.00" d=" M 1022.89 448.47 C 1034.57 448.48 1046.25 448.46 1057.93 448.47 C 1057.85 478.31 1057.94 508.15 1057.91 537.99 C 1058.06 544.30 1057.28 550.71 1058.88 556.91 C 1057.29 559.76 1055.65 562.58 1054.01 565.39 C 1043.66 565.35 1033.31 565.38 1022.96 565.37 C 1022.54 555.90 1023.45 546.44 1022.95 536.97 C 1022.75 522.98 1022.98 508.99 1022.86 495.00 C 1023.38 479.49 1022.61 463.98 1022.89 448.47 Z" />
<path fill="#4facc8" opacity="1.00" d=" M 1022.95 680.22 C 1034.77 680.79 1046.53 682.61 1057.96 685.70 C 1057.90 704.26 1057.95 722.81 1057.88 741.37 C 1047.04 736.72 1035.47 733.92 1023.73 732.94 C 1022.84 728.00 1023.04 722.99 1023.13 718.01 C 1023.14 705.41 1023.27 692.81 1022.95 680.22 Z" />
</g>
<g id="#4aa8e0ff">
<path fill="#4aa8e0" opacity="1.00" d=" M 1086.96 448.47 C 1098.47 448.47 1109.98 448.46 1121.49 448.47 C 1110.14 467.82 1099.09 487.34 1087.80 506.73 C 1086.28 499.92 1087.08 492.92 1086.91 486.02 C 1087.07 473.50 1086.80 460.98 1086.96 448.47 Z" />
</g>
<g id="#eb2a26ff">
<path fill="#eb2a26" opacity="1.00" d=" M 86.38 483.76 C 101.52 473.60 117.29 464.38 132.49 454.32 C 136.64 460.83 140.35 467.61 144.18 474.31 C 150.93 476.00 157.94 474.60 164.80 475.30 C 165.41 482.69 164.85 490.10 164.92 497.50 C 162.52 497.46 160.12 497.49 157.73 497.65 C 160.88 502.57 163.50 507.79 166.49 512.81 C 139.74 503.26 113.18 493.16 86.38 483.76 Z" />
</g>
<g id="#86c036ff">
<path fill="#86c036" opacity="1.00" d=" M 800.25 459.29 C 801.69 466.44 800.61 473.74 800.91 480.97 C 801.14 488.48 800.29 496.07 801.67 503.51 C 794.00 516.87 786.32 530.22 778.59 543.55 C 777.41 535.74 778.11 527.85 777.98 519.99 C 777.80 513.08 778.74 506.09 777.19 499.27 C 784.81 485.90 792.54 472.61 800.25 459.29 Z" />
</g>
<g id="#fea508ff">
<path fill="#fea508" opacity="1.00" d=" M 507.04 472.93 C 507.15 470.98 507.49 469.07 507.83 467.16 C 530.46 495.86 543.07 532.40 542.41 568.99 C 542.13 588.42 538.10 607.78 530.78 625.79 C 524.71 640.90 515.79 654.60 507.81 668.73 C 507.40 666.52 507.01 664.29 506.97 662.04 C 506.99 599.00 506.90 535.96 507.04 472.93 Z" />
</g>
<g id="#ef4d1eff">
<path fill="#ef4d1e" opacity="1.00" d=" M 239.71 474.41 C 249.79 473.88 259.97 474.34 270.09 474.18 C 284.60 474.33 299.13 473.87 313.63 474.41 L 312.34 474.86 C 308.95 475.07 305.54 475.11 302.14 475.22 C 301.65 482.64 302.05 490.08 301.95 497.50 C 286.31 497.51 270.67 497.50 255.03 497.50 C 255.00 490.09 255.31 482.67 254.83 475.26 C 249.38 474.95 243.91 475.12 238.46 474.90 L 239.71 474.41 Z" />
</g>
<g id="#f2601aff">
<path fill="#f2601a" opacity="1.00" d=" M 313.63 474.41 C 331.05 473.88 348.57 474.33 366.02 474.18 C 373.42 474.27 380.83 473.96 388.22 474.38 C 379.93 475.70 371.53 474.71 363.20 475.28 C 362.72 482.68 363.13 490.10 362.96 497.50 C 352.29 497.51 341.62 497.50 330.95 497.50 C 331.02 490.08 331.26 482.65 330.82 475.23 C 324.66 474.90 318.50 475.25 312.34 474.86 L 313.63 474.41 Z" />
</g>
<g id="#ee4221ff">
<path fill="#ee4221" opacity="1.00" d=" M 224.17 475.21 C 228.93 474.92 233.70 475.13 238.46 474.90 C 243.91 475.12 249.38 474.95 254.83 475.26 C 255.31 482.67 255.00 490.09 255.03 497.50 C 244.67 497.51 234.31 497.50 223.95 497.50 C 223.99 490.07 223.64 482.63 224.17 475.21 Z" />
</g>
<g id="#f0581cff">
<path fill="#f0581c" opacity="1.00" d=" M 302.14 475.22 C 305.54 475.11 308.95 475.07 312.34 474.86 C 318.50 475.25 324.66 474.90 330.82 475.23 C 331.26 482.65 331.02 490.08 330.95 497.50 C 321.28 497.51 311.61 497.50 301.95 497.50 C 302.05 490.08 301.65 482.64 302.14 475.22 Z" />
</g>
<g id="#f36919ff">
<path fill="#f36919" opacity="1.00" d=" M 363.20 475.28 C 371.53 474.71 379.93 475.70 388.22 474.38 C 389.85 474.33 391.47 474.53 393.10 474.65 C 393.17 482.47 393.29 490.29 393.04 498.10 C 383.06 496.98 372.98 497.71 362.96 497.50 C 363.13 490.10 362.72 482.68 363.20 475.28 Z" />
</g>
<g id="#f57715ff">
<path fill="#f57715" opacity="1.00" d=" M 393.10 474.65 C 410.29 476.75 426.90 483.55 440.33 494.53 C 439.29 505.12 440.40 515.77 439.56 526.37 C 428.79 511.09 411.62 500.49 393.04 498.10 C 393.29 490.29 393.17 482.47 393.10 474.65 Z" />
</g>
<g id="#c4c017ff">
<path fill="#c4c017" opacity="1.00" d=" M 691.12 513.07 C 696.47 503.79 701.69 494.43 707.14 485.20 C 708.71 491.00 708.02 497.04 708.13 502.97 C 708.25 531.38 707.88 559.79 708.34 588.19 C 703.22 597.39 697.84 606.46 692.58 615.59 C 692.21 612.72 691.87 609.85 691.86 606.96 C 691.93 580.31 691.86 553.66 691.89 527.01 C 692.01 522.35 692.04 517.66 691.12 513.07 Z" />
</g>
<g id="#fb8811ff">
<path fill="#fb8811" opacity="1.00" d=" M 440.33 494.53 C 454.54 506.29 465.27 522.22 470.59 539.91 C 478.41 564.76 474.28 592.60 460.72 614.71 C 454.00 626.34 447.33 637.99 440.64 649.64 C 439.16 634.69 440.87 619.63 439.60 604.68 C 443.82 597.60 447.74 590.21 449.66 582.14 C 454.61 563.24 450.79 542.35 439.56 526.37 C 440.40 515.77 439.29 505.12 440.33 494.53 Z" />
</g>
<g id="#94c02cff">
<path fill="#94c02c" opacity="1.00" d=" M 777.19 499.27 C 778.74 506.09 777.80 513.08 777.98 519.99 C 778.11 527.85 777.41 535.74 778.59 543.55 C 770.94 556.85 763.29 570.14 755.59 583.41 C 754.64 574.97 755.24 566.46 755.07 557.98 C 754.99 551.74 755.72 545.39 754.13 539.26 C 761.73 525.88 769.47 512.58 777.19 499.27 Z" />
<path fill="#94c02c" opacity="1.00" d=" M 739.48 680.38 C 755.09 679.95 770.78 680.03 786.39 680.36 L 787.55 680.58 C 784.11 680.79 780.68 681.04 777.25 681.29 C 776.64 688.51 777.11 695.77 776.96 703.01 C 777.25 712.87 776.83 722.74 777.09 732.62 C 769.76 732.61 762.42 732.63 755.09 732.62 C 754.79 715.49 755.05 698.35 754.82 681.23 C 750.08 680.68 745.31 680.85 740.56 680.64 L 739.48 680.38 Z" />
</g>
<g id="#ee4520ff">
<path fill="#ee4520" opacity="1.00" d=" M 210.41 512.69 C 231.26 512.74 252.11 512.69 272.96 512.71 C 272.91 530.26 273.05 547.82 272.92 565.37 C 262.25 565.40 251.58 565.32 240.91 565.41 C 230.66 547.88 220.68 530.20 210.41 512.69 Z" />
</g>
<g id="#f0511eff">
<path fill="#f0511e" opacity="1.00" d=" M 272.96 512.71 C 285.97 512.71 298.98 512.70 311.99 512.71 C 311.94 530.26 311.93 547.82 311.96 565.37 C 298.94 565.37 285.93 565.37 272.92 565.37 C 273.05 547.82 272.91 530.26 272.96 512.71 Z" />
</g>
<g id="#d4c012ff">
<path fill="#d4c012" opacity="1.00" d=" M 664.32 559.48 C 673.24 544.00 682.16 528.53 691.12 513.07 C 692.04 517.66 692.01 522.35 691.89 527.01 C 691.86 553.66 691.93 580.31 691.86 606.96 C 691.87 609.85 692.21 612.72 692.58 615.59 C 683.60 631.22 674.59 646.85 665.56 662.45 C 664.41 654.67 665.44 646.82 665.00 639.01 C 664.69 620.01 665.06 601.00 664.86 582.00 C 664.85 574.49 665.47 566.94 664.32 559.48 Z" />
</g>
<g id="#f67915ff">
<path fill="#f67915" opacity="1.00" d=" M 414.83 530.01 C 414.89 527.72 415.26 525.47 415.65 523.23 C 431.23 534.80 439.48 555.42 435.78 574.53 C 434.59 582.00 431.34 588.93 427.43 595.35 C 423.52 602.11 419.67 608.92 415.72 615.67 C 415.19 612.81 414.77 609.92 414.78 607.01 C 414.95 581.34 414.84 555.67 414.83 530.01 Z" />
</g>
<g id="#a2c024ff">
<path fill="#a2c024" opacity="1.00" d=" M 754.13 539.26 C 755.72 545.39 754.99 551.74 755.07 557.98 C 755.24 566.46 754.64 574.97 755.59 583.41 C 749.27 594.39 743.00 605.39 736.60 616.32 C 735.23 608.27 736.10 600.10 735.86 591.99 C 735.64 585.40 736.68 578.72 735.12 572.23 C 741.39 561.20 747.75 550.23 754.13 539.26 Z" />
</g>
<g id="#88c034ff">
<path fill="#88c034" opacity="1.00" d=" M 797.37 541.50 C 797.84 544.98 798.13 548.49 798.04 552.01 C 797.82 575.35 798.11 598.70 797.91 622.05 C 797.96 629.31 797.55 636.60 798.36 643.85 L 798.29 644.77 C 793.76 653.42 788.56 661.72 783.79 670.25 C 780.30 670.26 776.83 670.23 773.35 670.28 C 774.13 668.61 775.11 666.93 775.05 665.03 C 774.72 644.35 775.12 623.65 774.90 602.96 C 774.77 595.79 775.56 588.57 774.33 581.47 C 781.98 568.13 789.65 554.80 797.37 541.50 Z" />
</g>
<g id="#e8c00dff">
<path fill="#e8c00d" opacity="1.00" d=" M 664.32 559.48 C 665.47 566.94 664.85 574.49 664.86 582.00 C 665.06 601.00 664.69 620.01 665.00 639.01 C 665.44 646.82 664.41 654.67 665.56 662.45 C 664.06 665.06 662.56 667.66 661.02 670.25 C 648.28 670.23 635.54 670.29 622.79 670.23 C 624.31 669.39 626.97 669.15 627.05 666.98 C 627.57 660.99 627.05 654.97 627.17 648.96 C 626.96 641.07 627.88 633.09 626.37 625.28 C 638.98 603.32 651.69 581.43 664.32 559.48 Z" />
</g>
<g id="#b3c01cff">
<path fill="#b3c01c" opacity="1.00" d=" M 708.12 619.03 C 717.07 603.40 726.09 587.81 735.12 572.23 C 736.68 578.72 735.64 585.40 735.86 591.99 C 736.10 600.10 735.23 608.27 736.60 616.32 C 727.61 632.02 718.56 647.68 709.50 663.34 C 708.67 650.92 709.35 638.47 709.18 626.03 C 709.10 623.66 708.62 621.33 708.12 619.03 Z" />
<path fill="#b3c01c" opacity="1.00" d=" M 692.42 680.37 C 704.60 679.82 716.82 680.29 729.03 680.15 C 732.50 680.28 736.02 679.84 739.48 680.38 L 740.56 680.64 C 738.07 680.88 735.60 681.15 733.12 681.38 C 732.57 688.57 733.27 695.78 733.04 702.99 C 733.18 712.86 732.88 722.74 733.10 732.62 C 726.09 732.60 719.08 732.63 712.08 732.62 C 711.93 715.50 712.46 698.37 711.78 681.27 C 705.75 680.61 699.67 680.82 693.62 680.66 L 692.42 680.37 Z" />
</g>
<g id="#97c02aff">
<path fill="#97c02a" opacity="1.00" d=" M 774.33 581.47 C 775.56 588.57 774.77 595.79 774.90 602.96 C 775.12 623.65 774.72 644.35 775.05 665.03 C 775.11 666.93 774.13 668.61 773.35 670.28 C 763.35 670.21 753.35 670.26 743.35 670.26 C 745.00 663.60 744.00 656.74 744.24 649.98 C 744.37 645.07 744.56 640.09 743.30 635.30 C 753.60 617.33 763.97 599.40 774.33 581.47 Z" />
</g>
<g id="#f2641aff">
<path fill="#f2641a" opacity="1.00" d=" M 362.03 604.03 C 365.78 597.18 369.74 590.43 373.64 583.67 C 374.16 590.10 374.03 596.56 374.02 603.01 C 374.03 656.68 373.91 710.34 374.09 764.01 C 374.05 766.84 373.71 769.65 373.35 772.46 C 352.56 743.49 341.52 707.52 343.28 671.84 C 344.19 648.19 350.89 624.87 362.03 604.03 Z" />
</g>
<g id="#f67b14ff">
<path fill="#f67b14" opacity="1.00" d=" M 421.44 636.45 C 427.34 625.78 433.53 615.26 439.60 604.68 C 440.87 619.63 439.16 634.69 440.64 649.64 C 434.73 662.13 432.11 676.35 434.38 690.07 C 434.74 693.88 436.08 697.49 436.84 701.21 C 434.97 714.59 437.24 728.20 435.47 741.60 C 423.61 728.67 415.46 712.35 412.33 695.08 C 408.64 675.24 412.07 654.28 421.44 636.45 Z" />
</g>
<g id="#fd8f0fff">
<path fill="#fd8f0f" opacity="1.00" d=" M 453.83 657.89 C 462.93 640.25 474.40 623.84 482.42 605.65 C 483.69 616.38 482.69 627.19 482.96 637.96 C 482.94 668.40 483.06 698.84 482.88 729.27 C 469.94 724.39 459.09 714.29 453.52 701.62 C 447.24 687.91 447.36 671.50 453.83 657.89 Z" />
</g>
<g id="#c5c016ff">
<path fill="#c5c016" opacity="1.00" d=" M 678.49 670.28 C 688.43 653.23 698.20 636.09 708.12 619.03 C 708.62 621.33 709.10 623.66 709.18 626.03 C 709.35 638.47 708.67 650.92 709.50 663.34 C 708.18 665.70 706.83 668.03 705.37 670.31 C 696.41 670.19 687.45 670.26 678.49 670.28 Z" />
</g>
<g id="#f7c009ff">
<path fill="#f7c009" opacity="1.00" d=" M 600.36 670.28 C 609.08 655.31 617.68 640.27 626.37 625.28 C 627.88 633.09 626.96 641.07 627.17 648.96 C 627.05 654.97 627.57 660.99 627.05 666.98 C 626.97 669.15 624.31 669.39 622.79 670.23 C 615.32 670.31 607.83 670.19 600.36 670.28 Z" />
</g>
<g id="#a8c021ff">
<path fill="#a8c021" opacity="1.00" d=" M 743.30 635.30 C 744.56 640.09 744.37 645.07 744.24 649.98 C 744.00 656.74 745.00 663.60 743.35 670.26 C 736.61 670.24 729.86 670.24 723.12 670.27 C 729.83 658.60 736.55 646.94 743.30 635.30 Z" />
</g>
<g id="#fea708ff">
<path fill="#fea708" opacity="1.00" d=" M 500.95 680.47 C 501.14 680.17 501.51 679.57 501.70 679.27 L 501.65 680.19 C 519.99 680.24 538.36 679.86 556.70 680.36 L 555.39 680.80 C 550.33 681.15 545.25 680.91 540.20 681.24 C 539.74 698.35 540.07 715.49 539.97 732.62 C 529.62 732.63 519.28 732.61 508.93 732.62 C 508.78 715.58 509.18 698.54 508.83 681.52 C 506.20 681.21 503.57 680.86 500.95 680.47 Z" />
</g>
<g id="#fec007ff">
<path fill="#fec007" opacity="1.00" d=" M 556.70 680.36 C 567.44 679.86 578.27 680.29 589.05 680.14 C 607.25 680.26 625.46 679.91 643.65 680.35 L 642.49 680.68 C 638.67 680.87 634.85 680.91 631.05 681.20 C 630.54 698.32 630.80 715.48 630.91 732.61 C 610.95 732.61 590.99 732.62 571.03 732.62 C 570.94 715.50 571.38 698.37 570.82 681.26 C 565.68 680.97 560.53 681.04 555.39 680.80 L 556.70 680.36 Z" />
<path fill="#fec007" opacity="1.00" d=" M 574.03 747.72 C 591.63 747.72 609.24 747.72 626.85 747.72 C 627.29 755.56 626.79 763.40 626.90 771.25 C 609.29 771.24 591.67 771.25 574.06 771.24 C 574.06 763.40 574.07 755.56 574.03 747.72 Z" />
<path fill="#fec007" opacity="1.00" d=" M 613.35 860.44 C 614.74 868.22 613.82 876.14 614.04 883.99 C 614.20 900.90 613.86 917.82 614.26 934.72 C 619.67 934.94 625.16 934.58 630.48 935.86 C 610.30 935.82 590.11 935.88 569.92 935.84 C 584.40 910.71 598.86 885.56 613.35 860.44 Z" />
</g>
<g id="#dcc010ff">
<path fill="#dcc010" opacity="1.00" d=" M 643.65 680.35 C 654.05 679.82 664.53 680.30 674.97 680.15 C 680.78 680.30 686.63 679.86 692.42 680.37 L 693.62 680.66 L 692.09 680.72 C 687.77 680.91 683.44 680.86 679.14 681.25 C 678.62 698.36 679.03 715.49 678.93 732.61 C 671.29 732.60 663.65 732.63 656.02 732.62 C 655.56 715.47 656.41 698.31 655.82 681.18 C 651.37 680.91 646.92 680.88 642.49 680.68 L 643.65 680.35 Z" />
</g>
<g id="#7bbf43ff">
<path fill="#7bbf43" opacity="1.00" d=" M 786.39 680.36 C 805.55 679.80 824.75 680.38 843.92 680.08 C 841.01 680.63 838.09 681.13 835.15 681.47 C 834.55 698.50 835.01 715.57 834.94 732.62 C 822.99 732.61 811.04 732.62 799.09 732.62 C 798.75 715.50 799.65 698.36 798.81 681.26 C 795.06 680.91 791.30 680.83 787.55 680.58 L 786.39 680.36 Z" />
</g>
<g id="#73bd50ff">
<path fill="#73bd50" opacity="1.00" d=" M 843.92 680.08 C 849.13 679.46 854.39 680.00 859.63 679.79 C 856.98 684.06 858.04 689.24 857.96 693.99 C 858.03 706.91 857.83 719.83 857.93 732.76 C 850.26 732.86 842.60 732.61 834.94 732.62 C 835.01 715.57 834.55 698.50 835.15 681.47 C 838.09 681.13 841.01 680.63 843.92 680.08 Z" />
</g>
<g id="#62b77cff">
<path fill="#62b77c" opacity="1.00" d=" M 911.02 679.81 C 917.98 679.98 924.98 679.47 931.93 680.08 L 931.69 680.82 C 930.23 687.77 931.19 694.94 930.93 701.99 C 931.33 712.18 930.23 722.44 931.59 732.58 L 931.62 732.80 C 917.33 732.67 903.05 732.87 888.77 732.69 C 895.04 731.74 901.40 731.93 907.72 731.64 C 908.04 715.12 907.63 698.59 907.90 682.07 C 908.93 681.31 909.97 680.55 911.02 679.81 Z" />
</g>
<g id="#5bb396ff">
<path fill="#5bb396" opacity="1.00" d=" M 931.93 680.08 C 945.68 680.29 959.44 680.00 973.20 680.21 C 971.86 680.59 970.56 681.03 969.27 681.47 C 968.93 698.51 969.31 715.57 969.07 732.62 C 962.41 732.62 955.75 732.61 949.09 732.62 C 949.04 719.40 948.77 706.18 949.10 692.96 C 949.21 689.07 949.10 685.18 948.79 681.31 C 943.10 680.75 937.39 680.81 931.69 680.82 L 931.93 680.08 Z" />
</g>
<g id="#57b1a7ff">
<path fill="#57b1a7" opacity="1.00" d=" M 973.20 680.21 C 989.57 680.12 1005.97 680.02 1022.35 680.26 L 1021.66 680.31 C 1015.16 680.95 1008.60 680.51 1002.11 681.28 C 1001.46 698.37 1001.96 715.51 1001.92 732.62 C 990.97 732.63 980.02 732.60 969.07 732.62 C 969.31 715.57 968.93 698.51 969.27 681.47 C 970.56 681.03 971.86 680.59 973.20 680.21 Z" />
</g>
<g id="#feb307ff">
<path fill="#feb307" opacity="1.00" d=" M 540.20 681.24 C 545.25 680.91 550.33 681.15 555.39 680.80 C 560.53 681.04 565.68 680.97 570.82 681.26 C 571.38 698.37 570.94 715.50 571.03 732.62 C 560.68 732.63 550.32 732.61 539.97 732.62 C 540.07 715.49 539.74 698.35 540.20 681.24 Z" />
<path fill="#feb307" opacity="1.00" d=" M 525.36 935.92 C 539.35 911.48 553.48 887.12 567.55 862.73 C 569.04 877.62 566.80 892.66 568.65 907.52 C 563.14 917.00 557.81 926.58 552.13 935.96 C 543.21 935.76 534.28 935.82 525.36 935.92 Z" />
</g>
<g id="#ebc00cff">
<path fill="#ebc00c" opacity="1.00" d=" M 631.05 681.20 C 634.85 680.91 638.67 680.87 642.49 680.68 C 646.92 680.88 651.37 680.91 655.82 681.18 C 656.41 698.31 655.56 715.47 656.02 732.62 C 647.65 732.60 639.28 732.63 630.91 732.61 C 630.80 715.48 630.54 698.32 631.05 681.20 Z" />
</g>
<g id="#cfc013ff">
<path fill="#cfc013" opacity="1.00" d=" M 679.14 681.25 C 683.44 680.86 687.77 680.91 692.09 680.72 C 692.05 698.02 692.11 715.32 692.08 732.62 C 687.69 732.61 683.31 732.62 678.93 732.61 C 679.03 715.49 678.62 698.36 679.14 681.25 Z" />
</g>
<g id="#c3c017ff">
<path fill="#c3c017" opacity="1.00" d=" M 692.09 680.72 L 693.62 680.66 C 699.67 680.82 705.75 680.61 711.78 681.27 C 712.46 698.37 711.93 715.50 712.08 732.62 C 705.41 732.60 698.74 732.63 692.08 732.62 C 692.11 715.32 692.05 698.02 692.09 680.72 Z" />
</g>
<g id="#a4c023ff">
<path fill="#a4c023" opacity="1.00" d=" M 733.12 681.38 C 735.60 681.15 738.07 680.88 740.56 680.64 C 745.31 680.85 750.08 680.68 754.82 681.23 C 755.05 698.35 754.79 715.49 755.09 732.62 C 747.76 732.60 740.43 732.63 733.10 732.62 C 732.88 722.74 733.18 712.86 733.04 702.99 C 733.27 695.78 732.57 688.57 733.12 681.38 Z" />
<path fill="#a4c023" opacity="1.00" d=" M 733.03 786.44 C 740.33 786.43 747.64 786.45 754.94 786.44 C 754.75 803.53 755.12 820.62 754.76 837.70 C 751.29 837.90 747.83 838.20 744.38 838.59 C 740.60 838.37 736.81 838.44 733.03 838.44 C 733.11 821.11 733.13 803.77 733.03 786.44 Z" />
</g>
<g id="#53aeb8ff">
<path fill="#53aeb8" opacity="1.00" d=" M 1002.11 681.28 C 1008.60 680.51 1015.16 680.95 1021.66 680.31 L 1022.95 680.22 C 1023.27 692.81 1023.14 705.41 1023.13 718.01 C 1023.04 722.99 1022.84 728.00 1023.73 732.94 C 1016.47 732.44 1009.19 732.66 1001.92 732.62 C 1001.96 715.51 1001.46 698.37 1002.11 681.28 Z" />
</g>
<g id="#4caad7ff">
<path fill="#4caad7" opacity="1.00" d=" M 1057.96 685.70 C 1068.18 688.57 1078.16 692.34 1087.60 697.20 C 1086.30 706.40 1087.36 715.70 1087.03 724.95 C 1086.94 736.68 1087.01 748.40 1086.97 760.13 C 1078.34 752.39 1068.50 746.00 1057.88 741.37 C 1057.95 722.81 1057.90 704.26 1057.96 685.70 Z" />
</g>
<g id="#f77c14ff">
<path fill="#f77c14" opacity="1.00" d=" M 412.90 767.96 C 413.23 758.12 412.25 748.22 413.57 738.42 C 422.83 752.14 435.01 763.91 449.39 772.16 L 449.33 773.04 C 448.48 791.66 449.48 810.34 448.70 828.97 L 448.20 829.31 C 435.61 825.19 423.80 818.68 412.81 811.28 C 412.96 796.84 413.14 782.40 412.90 767.96 Z" />
</g>
<g id="#fe9a0bff">
<path fill="#fe9a0b" opacity="1.00" d=" M 479.34 768.18 C 478.66 760.23 478.31 752.18 479.52 744.28 C 489.98 747.81 501.04 747.98 511.95 747.72 C 511.84 755.56 511.89 763.40 511.97 771.24 C 501.02 771.50 489.99 770.90 479.34 768.18 Z" />
</g>
<g id="#fea608ff">
<path fill="#fea608" opacity="1.00" d=" M 511.95 747.72 C 517.98 747.72 524.01 747.72 530.04 747.72 C 530.06 755.56 530.04 763.40 529.95 771.24 C 523.95 771.25 517.96 771.24 511.97 771.24 C 511.89 763.40 511.84 755.56 511.95 747.72 Z" />
</g>
<g id="#feae07ff">
<path fill="#feae07" opacity="1.00" d=" M 530.04 747.72 C 536.70 747.72 543.36 747.72 550.02 747.72 C 550.01 755.56 550.05 763.40 550.02 771.24 C 543.33 771.25 536.64 771.24 529.95 771.24 C 530.04 763.40 530.06 755.56 530.04 747.72 Z" />
</g>
<g id="#feb607ff">
<path fill="#feb607" opacity="1.00" d=" M 550.02 747.72 C 558.02 747.72 566.02 747.72 574.03 747.72 C 574.07 755.56 574.06 763.40 574.06 771.24 C 566.04 771.25 558.03 771.24 550.02 771.24 C 550.05 763.40 550.01 755.56 550.02 747.72 Z" />
</g>
<g id="#e9c00cff">
<path fill="#e9c00c" opacity="1.00" d=" M 626.85 747.72 C 640.20 747.71 653.56 747.73 666.91 747.72 C 666.74 755.56 666.86 763.40 666.84 771.24 C 653.53 771.24 640.21 771.25 626.90 771.25 C 626.79 763.40 627.29 755.56 626.85 747.72 Z" />
</g>
<g id="#d3c012ff">
<path fill="#d3c012" opacity="1.00" d=" M 666.91 747.72 C 675.25 747.71 683.59 747.73 691.93 747.73 C 691.84 755.56 691.91 763.40 691.92 771.24 C 683.56 771.24 675.20 771.25 666.84 771.24 C 666.86 763.40 666.74 755.56 666.91 747.72 Z" />
</g>
<g id="#c6c016ff">
<path fill="#c6c016" opacity="1.00" d=" M 691.93 747.73 C 696.33 747.71 700.73 747.72 705.14 747.72 C 705.20 755.56 705.27 763.40 705.11 771.25 C 700.71 771.24 696.31 771.25 691.92 771.24 C 691.91 763.40 691.84 755.56 691.93 747.73 Z" />
</g>
<g id="#a5c023ff">
<path fill="#a5c023" opacity="1.00" d=" M 735.88 747.73 C 739.92 747.72 743.97 747.72 748.02 747.72 C 747.98 755.56 747.93 763.40 747.96 771.24 C 743.93 771.24 739.91 771.25 735.89 771.24 C 735.76 763.40 735.79 755.56 735.88 747.73 Z" />
</g>
<g id="#9cc027ff">
<path fill="#9cc027" opacity="1.00" d=" M 748.02 747.72 C 752.35 747.72 756.68 747.72 761.02 747.72 C 761.06 755.56 761.05 763.40 761.04 771.24 C 756.68 771.24 752.32 771.25 747.96 771.24 C 747.93 763.40 747.98 755.56 748.02 747.72 Z" />
</g>
<g id="#8bc032ff">
<path fill="#8bc032" opacity="1.00" d=" M 775.03 747.72 C 779.71 747.72 784.39 747.72 789.07 747.72 C 788.93 755.56 789.09 763.40 788.93 771.24 C 784.29 771.24 779.66 771.24 775.02 771.24 C 774.87 763.40 775.09 755.56 775.03 747.72 Z" />
</g>
<g id="#83c039ff">
<path fill="#83c039" opacity="1.00" d=" M 789.07 747.72 C 793.69 747.72 798.32 747.72 802.95 747.72 C 802.98 755.56 803.12 763.40 802.95 771.24 C 798.27 771.24 793.60 771.24 788.93 771.24 C 789.09 763.40 788.93 755.56 789.07 747.72 Z" />
</g>
<g id="#7cbf40ff">
<path fill="#7cbf40" opacity="1.00" d=" M 802.95 747.72 C 808.66 747.72 814.38 747.72 820.11 747.73 C 820.17 755.56 820.22 763.40 820.09 771.24 C 814.37 771.24 808.66 771.24 802.95 771.24 C 803.12 763.40 802.98 755.56 802.95 747.72 Z" />
</g>
<g id="#75bd4dff">
<path fill="#75bd4d" opacity="1.00" d=" M 820.11 747.73 C 832.71 747.80 845.31 747.60 857.92 747.62 C 857.80 755.52 857.85 763.43 857.85 771.34 C 845.26 771.36 832.67 771.17 820.09 771.24 C 820.22 763.40 820.17 755.56 820.11 747.73 Z" />
</g>
<g id="#6aba65ff">
<path fill="#6aba65" opacity="1.00" d=" M 873.97 747.62 C 879.99 747.61 886.02 747.61 892.06 747.62 C 891.94 755.52 892.03 763.43 892.05 771.34 C 886.03 771.35 880.02 771.34 874.01 771.34 C 874.16 763.43 873.89 755.53 873.97 747.62 Z" />
</g>
<g id="#66b970ff">
<path fill="#66b970" opacity="1.00" d=" M 892.06 747.62 C 897.35 747.61 902.65 747.61 907.96 747.62 C 907.95 755.52 908.01 763.43 907.94 771.34 C 902.64 771.34 897.34 771.34 892.05 771.34 C 892.03 763.43 891.94 755.52 892.06 747.62 Z" />
</g>
<g id="#5fb587ff">
<path fill="#5fb587" opacity="1.00" d=" M 923.07 747.62 C 931.69 747.64 940.32 747.78 948.95 747.72 C 949.01 755.56 948.75 763.40 949.01 771.24 C 940.35 771.19 931.69 771.32 923.03 771.34 C 923.21 763.43 923.08 755.52 923.07 747.62 Z" />
</g>
<g id="#5ab398ff">
<path fill="#5ab398" opacity="1.00" d=" M 948.95 747.72 C 957.59 747.72 966.24 747.72 974.88 747.72 C 974.95 755.56 974.89 763.40 974.93 771.24 C 966.29 771.25 957.65 771.24 949.01 771.24 C 948.75 763.40 949.01 755.56 948.95 747.72 Z" />
</g>
<g id="#57b1a5ff">
<path fill="#57b1a5" opacity="1.00" d=" M 974.88 747.72 C 979.89 747.72 984.91 747.72 989.93 747.72 C 990.15 755.56 990.02 763.40 989.94 771.24 C 984.93 771.24 979.93 771.24 974.93 771.24 C 974.89 763.40 974.95 755.56 974.88 747.72 Z" />
<path fill="#57b1a5" opacity="1.00" d=" M 960.75 935.83 C 971.10 918.18 981.19 900.37 991.50 882.69 C 992.92 899.98 991.52 917.38 992.23 934.71 C 1000.48 935.39 1008.77 935.08 1017.04 935.34 C 1018.48 935.48 1019.92 935.66 1021.38 935.87 C 1001.17 935.84 980.96 935.87 960.75 935.83 Z" />
</g>
<g id="#55afb0ff">
<path fill="#55afb0" opacity="1.00" d=" M 989.93 747.72 C 995.59 747.72 1001.26 747.72 1006.93 747.72 C 1007.02 755.56 1007.08 763.40 1006.95 771.24 C 1001.28 771.25 995.61 771.24 989.94 771.24 C 990.02 763.40 990.15 755.56 989.93 747.72 Z" />
</g>
<g id="#53aeb9ff">
<path fill="#53aeb9" opacity="1.00" d=" M 1006.93 747.72 C 1012.24 747.78 1017.59 747.51 1022.89 748.13 C 1023.12 755.90 1022.83 763.67 1023.06 771.45 C 1017.69 771.16 1012.32 771.25 1006.95 771.24 C 1007.08 763.40 1007.02 755.56 1006.93 747.72 Z" />
</g>
<g id="#51acc3ff">
<path fill="#51acc3" opacity="1.00" d=" M 1022.89 748.13 C 1028.65 748.72 1034.49 749.47 1040.00 751.30 L 1040.28 751.98 C 1039.73 759.77 1040.24 767.58 1040.05 775.39 C 1034.56 773.40 1028.84 772.12 1023.06 771.45 C 1022.83 763.67 1023.12 755.90 1022.89 748.13 Z" />
</g>
<g id="#4eabd0ff">
<path fill="#4eabd0" opacity="1.00" d=" M 1040.28 751.98 L 1040.79 751.65 C 1052.05 754.44 1062.56 760.20 1071.69 767.32 C 1070.14 777.55 1071.55 787.93 1070.66 798.22 C 1062.82 787.97 1052.17 779.88 1040.05 775.39 C 1040.24 767.58 1039.73 759.77 1040.28 751.98 Z" />
</g>
<g id="#4ba9ddff">
<path fill="#4ba9dd" opacity="1.00" d=" M 1070.66 798.22 C 1071.55 787.93 1070.14 777.55 1071.69 767.32 C 1087.19 779.55 1098.56 796.86 1103.78 815.89 C 1108.80 834.10 1107.96 853.88 1101.33 871.57 C 1097.21 882.90 1090.36 892.92 1084.55 903.40 C 1080.21 910.56 1076.44 918.09 1071.74 925.02 L 1071.41 924.91 C 1070.34 910.21 1071.82 895.44 1070.62 880.74 C 1075.24 872.88 1079.94 864.89 1082.04 855.92 C 1087.38 836.27 1082.84 814.46 1070.66 798.22 Z" />
</g>
<g id="#fd8d0fff">
<path fill="#fd8d0f" opacity="1.00" d=" M 449.33 773.04 L 449.39 772.20 C 460.56 778.51 472.80 783.07 485.52 784.93 L 485.49 785.23 C 484.23 798.45 485.25 811.76 484.90 825.03 C 485.03 829.47 483.94 834.44 486.76 838.30 C 473.94 836.74 461.13 834.28 449.02 829.69 L 448.70 828.97 C 449.48 810.34 448.48 791.66 449.33 773.04 Z" />
</g>
<g id="#fe9d0bff">
<path fill="#fe9d0b" opacity="1.00" d=" M 485.49 785.23 C 495.60 786.46 505.78 786.58 515.96 786.44 C 515.81 803.54 516.24 820.66 515.79 837.76 C 509.11 838.43 502.37 837.55 495.73 838.71 C 492.73 838.82 489.75 838.42 486.76 838.30 C 483.94 834.44 485.03 829.47 484.90 825.03 C 485.25 811.76 484.23 798.45 485.49 785.23 Z" />
</g>
<g id="#fea908ff">
<path fill="#fea908" opacity="1.00" d=" M 515.96 786.44 C 524.67 786.44 533.37 786.43 542.08 786.44 C 542.15 803.54 541.57 820.66 542.21 837.76 C 544.63 837.85 547.05 837.96 549.46 838.21 L 550.55 838.66 C 545.72 839.56 540.78 838.94 535.90 839.09 C 522.50 839.08 509.12 839.12 495.73 838.71 C 502.37 837.55 509.11 838.43 515.79 837.76 C 516.24 820.66 515.81 803.54 515.96 786.44 Z" />
</g>
<g id="#feb407ff">
<path fill="#feb407" opacity="1.00" d=" M 542.08 786.44 C 551.74 786.45 561.40 786.43 571.06 786.44 C 570.80 803.57 571.42 820.71 570.82 837.83 C 563.71 838.46 556.58 837.98 549.46 838.21 C 547.05 837.96 544.63 837.85 542.21 837.76 C 541.57 820.66 542.15 803.54 542.08 786.44 Z" />
</g>
<g id="#febf07ff">
<path fill="#febf07" opacity="1.00" d=" M 571.06 786.44 C 586.05 786.44 601.05 786.44 616.04 786.44 C 615.95 803.54 615.75 820.65 616.15 837.73 C 621.73 838.37 627.34 838.06 632.94 837.98 C 637.74 838.12 642.54 838.23 647.33 838.52 L 648.18 838.72 C 644.14 839.54 640.01 838.49 635.93 838.98 C 609.98 839.03 583.99 839.24 558.03 838.99 C 555.54 839.03 552.97 839.29 550.55 838.66 L 549.46 838.21 C 556.58 837.98 563.71 838.46 570.82 837.83 C 571.42 820.71 570.80 803.57 571.06 786.44 Z" />
</g>
<g id="#f5c009ff">
<path fill="#f5c009" opacity="1.00" d=" M 616.04 786.44 C 621.72 786.43 627.40 786.44 633.08 786.44 C 632.92 803.62 633.20 820.80 632.94 837.98 C 627.34 838.06 621.73 838.37 616.15 837.73 C 615.75 820.65 615.95 803.54 616.04 786.44 Z" />
</g>
<g id="#eac00cff">
<path fill="#eac00c" opacity="1.00" d=" M 633.08 786.44 C 640.72 786.43 648.36 786.45 656.00 786.44 C 655.86 803.51 656.39 820.61 655.76 837.66 C 652.94 837.89 650.13 838.19 647.33 838.52 C 642.54 838.23 637.74 838.12 632.94 837.98 C 633.20 820.80 632.92 803.62 633.08 786.44 Z" />
</g>
<g id="#ddc010ff">
<path fill="#ddc010" opacity="1.00" d=" M 656.00 786.44 C 662.98 786.43 669.96 786.45 676.94 786.44 C 676.97 803.54 676.72 820.66 677.17 837.76 C 682.43 838.47 687.73 838.35 693.01 837.94 C 695.06 838.15 697.10 838.54 699.15 838.87 C 684.44 838.98 669.74 839.12 655.03 839.12 C 652.74 839.07 650.40 839.35 648.18 838.72 L 647.33 838.52 C 650.13 838.19 652.94 837.89 655.76 837.66 C 656.39 820.61 655.86 803.51 656.00 786.44 Z" />
</g>
<g id="#d0c013ff">
<path fill="#d0c013" opacity="1.00" d=" M 676.94 786.44 C 682.32 786.43 687.71 786.45 693.10 786.44 C 693.09 803.61 693.34 820.78 693.01 837.94 C 687.73 838.35 682.43 838.47 677.17 837.76 C 676.72 820.66 676.97 803.54 676.94 786.44 Z" />
</g>
<g id="#bfc018ff">
<path fill="#bfc018" opacity="1.00" d=" M 693.10 786.44 C 702.67 786.42 712.25 786.45 721.83 786.45 C 721.96 803.58 721.42 820.73 722.11 837.85 C 725.73 838.29 729.38 838.48 733.03 838.44 C 736.81 838.44 740.60 838.37 744.38 838.59 L 745.14 838.73 C 736.40 839.03 727.65 839.30 718.90 838.94 C 712.32 838.76 705.71 839.56 699.15 838.87 C 697.10 838.54 695.06 838.15 693.01 837.94 C 693.34 820.78 693.09 803.61 693.10 786.44 Z" />
</g>
<g id="#b0c01eff">
<path fill="#b0c01e" opacity="1.00" d=" M 721.83 786.45 C 725.56 786.43 729.30 786.44 733.03 786.44 C 733.13 803.77 733.11 821.11 733.03 838.44 C 729.38 838.48 725.73 838.29 722.11 837.85 C 721.42 820.73 721.96 803.58 721.83 786.45 Z" />
</g>
<g id="#96c02bff">
<path fill="#96c02b" opacity="1.00" d=" M 754.94 786.44 C 760.94 786.43 766.94 786.44 772.95 786.44 C 773.35 803.54 772.55 820.65 773.24 837.75 C 778.27 838.30 783.35 838.07 788.40 838.45 L 789.27 838.70 C 781.55 839.47 773.71 838.74 765.95 839.09 C 759.02 838.86 752.02 839.61 745.14 838.73 L 744.38 838.59 C 747.83 838.20 751.29 837.90 754.76 837.70 C 755.12 820.62 754.75 803.53 754.94 786.44 Z" />
</g>
<g id="#8ac033ff">
<path fill="#8ac033" opacity="1.00" d=" M 772.95 786.44 C 779.67 786.43 786.40 786.44 793.13 786.44 C 793.02 803.50 793.46 820.58 792.86 837.63 C 791.36 837.90 789.88 838.17 788.40 838.45 C 783.35 838.07 778.27 838.30 773.24 837.75 C 772.55 820.65 773.35 803.54 772.95 786.44 Z" />
</g>
<g id="#7dbf3fff">
<path fill="#7dbf3f" opacity="1.00" d=" M 793.13 786.44 C 803.73 786.43 814.33 786.44 824.93 786.44 C 824.76 798.96 825.13 811.48 824.92 823.99 C 824.86 828.59 824.88 833.20 825.25 837.79 C 831.10 838.48 837.05 837.64 842.85 838.88 C 827.24 839.22 811.62 839.07 796.00 839.09 C 793.75 839.01 791.43 839.42 789.27 838.70 L 788.40 838.45 C 789.88 838.17 791.36 837.90 792.86 837.63 C 793.46 820.58 793.02 803.50 793.13 786.44 Z" />
</g>
<g id="#69ba68ff">
<path fill="#69ba68" opacity="1.00" d=" M 874.14 786.28 C 883.40 786.28 892.67 786.27 901.93 786.28 C 901.86 803.93 901.88 821.57 901.90 839.22 C 892.58 839.23 883.27 839.22 873.95 839.22 C 874.45 821.58 873.76 803.92 874.14 786.28 Z" />
</g>
<g id="#64b877ff">
<path fill="#64b877" opacity="1.00" d=" M 901.93 786.28 C 908.62 786.28 915.31 786.27 922.01 786.28 C 922.20 803.93 922.03 821.57 922.12 839.22 C 915.38 839.23 908.64 839.22 901.90 839.22 C 901.88 821.57 901.86 803.93 901.93 786.28 Z" />
</g>
<g id="#5fb586ff">
<path fill="#5fb586" opacity="1.00" d=" M 922.01 786.28 C 930.97 786.27 939.93 786.55 948.90 786.44 C 949.04 803.57 948.47 820.72 949.13 837.84 C 953.07 838.13 957.02 838.17 960.98 838.17 C 965.09 838.20 969.21 838.50 973.33 838.38 L 972.65 838.80 C 966.87 839.55 960.84 838.89 954.96 839.11 C 944.01 839.03 933.07 839.16 922.12 839.22 C 922.03 821.57 922.20 803.93 922.01 786.28 Z" />
</g>
<g id="#5cb394ff">
<path fill="#5cb394" opacity="1.00" d=" M 948.90 786.44 C 952.93 786.44 956.97 786.43 961.02 786.44 C 960.96 803.68 961.08 820.92 960.98 838.17 C 957.02 838.17 953.07 838.13 949.13 837.84 C 948.47 820.72 949.04 803.57 948.90 786.44 Z" />
</g>
<g id="#59b29cff">
<path fill="#59b29c" opacity="1.00" d=" M 961.02 786.44 C 965.70 786.44 970.39 786.43 975.09 786.44 C 975.09 797.98 975.09 809.52 975.08 821.07 C 975.01 826.53 975.49 832.04 974.72 837.48 C 974.38 837.71 973.68 838.16 973.33 838.38 C 969.21 838.50 965.09 838.20 960.98 838.17 C 961.08 820.92 960.96 803.68 961.02 786.44 Z" />
</g>
<g id="#57b0a8ff">
<path fill="#57b0a8" opacity="1.00" d=" M 975.09 786.44 C 982.71 786.44 990.33 786.43 997.95 786.44 C 998.05 803.55 997.64 820.68 998.12 837.78 C 1004.39 838.25 1010.69 838.16 1016.98 838.04 C 1016.99 838.51 1017.00 839.45 1017.01 839.92 L 1016.52 839.53 L 1015.93 839.15 C 1001.51 838.92 987.07 839.46 972.65 838.80 L 973.33 838.38 C 973.68 838.16 974.38 837.71 974.72 837.48 C 975.49 832.04 975.01 826.53 975.08 821.07 C 975.09 809.52 975.09 797.98 975.09 786.44 Z" />
</g>
<g id="#51adc2ff">
<path fill="#51adc2" opacity="1.00" d=" M 1016.97 786.42 C 1026.53 786.44 1035.93 789.25 1044.17 794.03 L 1044.16 794.19 C 1043.60 820.44 1044.10 846.70 1043.90 872.96 C 1044.11 880.50 1043.35 888.10 1044.67 895.58 C 1036.94 909.03 1029.21 922.48 1021.38 935.87 C 1019.92 935.66 1018.48 935.48 1017.04 935.34 C 1017.02 903.54 1017.06 871.73 1017.01 839.92 C 1017.00 839.45 1016.99 838.51 1016.98 838.04 C 1017.27 820.84 1016.82 803.63 1016.97 786.42 Z" />
</g>
<g id="#4eabceff">
<path fill="#4eabce" opacity="1.00" d=" M 1044.16 794.19 C 1061.64 804.50 1071.72 825.81 1068.78 845.86 C 1067.85 852.92 1065.45 859.76 1061.85 865.91 C 1056.11 875.79 1050.45 885.72 1044.67 895.58 C 1043.35 888.10 1044.11 880.50 1043.90 872.96 C 1044.10 846.70 1043.60 820.44 1044.16 794.19 Z" />
</g>
<g id="#fea109ff">
<path fill="#fea109" opacity="1.00" d=" M 495.25 852.44 C 496.34 851.12 496.63 848.21 498.91 848.67 C 509.89 848.68 520.88 848.67 531.87 848.68 C 531.81 860.11 531.98 871.55 531.78 882.99 C 531.69 886.14 532.22 889.26 532.73 892.37 C 524.80 906.76 516.15 920.77 508.29 935.21 C 504.27 935.03 500.24 935.02 496.23 934.76 C 495.41 921.17 496.31 907.55 495.99 893.95 C 495.57 880.13 496.98 866.20 495.25 852.44 Z" />
</g>
<g id="#fead07ff">
<path fill="#fead07" opacity="1.00" d=" M 531.87 848.68 C 540.58 848.67 549.29 848.69 558.00 848.65 C 549.66 863.27 541.29 877.88 532.73 892.37 C 532.22 889.26 531.69 886.14 531.78 882.99 C 531.98 871.55 531.81 860.11 531.87 848.68 Z" />
</g>
<g id="#febb07ff">
<path fill="#febb07" opacity="1.00" d=" M 567.55 862.73 C 570.25 858.02 572.94 853.30 575.73 848.64 C 584.72 848.71 593.71 848.67 602.70 848.66 C 591.26 868.23 580.04 887.92 568.65 907.52 C 566.80 892.66 569.04 877.62 567.55 862.73 Z" />
</g>
<g id="#f2c00aff">
<path fill="#f2c00a" opacity="1.00" d=" M 620.10 848.69 C 630.38 848.65 640.67 848.69 650.96 848.68 C 650.69 861.78 650.93 874.88 650.76 887.98 C 650.66 891.79 650.96 895.59 651.56 899.36 C 644.53 911.52 637.62 923.76 630.48 935.86 C 625.16 934.58 619.67 934.94 614.26 934.72 C 613.86 917.82 614.20 900.90 614.04 883.99 C 613.82 876.14 614.74 868.22 613.35 860.44 C 615.57 856.50 617.84 852.60 620.10 848.69 Z" />
</g>
<g id="#e1c00eff">
<path fill="#e1c00e" opacity="1.00" d=" M 650.96 848.68 C 660.90 848.66 670.84 848.70 680.78 848.66 C 671.01 865.54 661.34 882.48 651.56 899.36 C 650.96 895.59 650.66 891.79 650.76 887.98 C 650.93 874.88 650.69 861.78 650.96 848.68 Z" />
</g>
<g id="#fe940dff">
<path fill="#fe940d" opacity="1.00" d=" M 447.13 935.89 C 463.11 908.04 479.17 880.24 495.25 852.44 C 496.98 866.20 495.57 880.13 495.99 893.95 C 496.31 907.55 495.41 921.17 496.23 934.76 C 500.24 935.02 504.27 935.03 508.29 935.21 C 506.72 936.26 504.76 935.76 503.00 935.88 C 484.38 935.86 465.75 935.79 447.13 935.89 Z" />
</g>
<g id="#4daad2ff">
<path fill="#4daad2" opacity="1.00" d=" M 1038.77 935.81 C 1049.52 917.54 1059.95 899.07 1070.62 880.74 C 1071.82 895.44 1070.34 910.21 1071.41 924.91 L 1071.35 925.81 C 1069.89 929.34 1067.61 932.46 1065.83 935.83 C 1056.80 935.86 1047.78 935.87 1038.77 935.81 Z" />
</g>
</svg>
