<?xml version="1.0" encoding="UTF-8" ?>
<!DOCTYPE svg PUBLIC "-//W3C//DTD SVG 1.1//EN" "http://www.w3.org/Graphics/SVG/1.1/DTD/svg11.dtd">
<svg width="1276pt" height="1276pt" viewBox="0 0 1276 1276" version="1.1" xmlns="http://www.w3.org/2000/svg">
<g id="#ead900ff">
<path fill="#ead900" opacity="1.00" d=" M 499.12 218.90 C 499.79 201.82 514.91 186.75 532.02 186.28 C 548.34 186.28 564.66 186.26 580.98 186.29 C 595.08 187.07 607.92 197.45 611.93 210.95 C 614.09 217.41 613.41 224.28 613.50 230.97 C 613.53 243.87 613.44 256.76 613.56 269.66 C 601.64 269.66 589.73 269.79 577.82 269.59 C 578.02 253.60 577.67 237.60 578.00 221.61 C 563.45 221.51 548.91 221.62 534.37 221.56 C 534.43 232.06 534.33 242.56 534.42 253.06 C 534.92 262.70 534.92 272.36 534.42 282.00 C 534.27 327.34 534.45 372.67 534.64 418.00 C 534.00 435.88 535.05 453.77 534.35 471.65 C 548.86 471.67 563.39 471.63 577.91 471.67 C 577.73 434.47 577.72 397.27 577.91 360.07 C 570.65 359.98 563.39 360.19 556.14 359.91 C 556.21 348.08 556.22 336.25 556.13 324.42 C 575.27 324.45 594.42 324.40 613.56 324.45 C 613.23 356.62 613.87 388.78 613.74 420.94 C 613.07 432.63 613.92 444.33 613.77 456.02 C 613.27 472.99 613.59 489.97 613.52 506.95 C 586.68 506.94 559.84 506.98 533.00 506.93 C 515.44 506.86 499.66 491.53 499.12 473.99 C 498.90 414.65 499.18 355.31 499.11 295.97 C 498.92 270.28 499.13 244.59 499.12 218.90 Z" />
<path fill="#ead900" opacity="1.00" d=" M 777.38 186.58 C 778.66 185.33 780.45 185.68 782.07 185.61 C 795.38 185.67 808.69 185.62 822.00 185.63 C 822.00 197.39 822.00 209.14 822.00 220.90 C 813.64 220.98 805.27 220.71 796.91 221.05 C 793.83 222.59 790.27 221.67 786.97 221.92 C 784.25 221.69 781.15 222.69 778.84 220.80 C 778.42 221.13 777.58 221.79 777.16 222.12 C 765.90 221.69 754.62 221.89 743.35 222.00 C 743.42 232.33 743.31 242.66 743.41 253.00 C 744.01 265.00 743.22 277.02 743.37 289.03 C 743.32 300.85 743.47 312.68 743.29 324.50 C 753.86 324.56 764.42 324.48 774.99 324.55 C 776.33 324.68 777.64 324.35 778.76 323.57 C 793.17 323.45 807.58 323.55 822.00 323.52 C 822.00 335.39 822.00 347.26 822.00 359.13 C 812.33 359.55 802.49 358.15 792.97 360.10 C 788.31 359.97 783.51 360.75 778.99 359.34 C 777.64 359.60 776.37 360.16 774.99 360.13 C 764.44 360.15 753.88 360.09 743.33 360.15 C 743.50 391.45 743.14 422.75 743.61 454.03 C 743.21 471.67 743.41 489.31 743.38 506.95 C 731.51 506.95 719.64 506.95 707.77 506.95 C 707.57 423.98 708.03 340.99 707.61 258.02 C 707.97 246.00 707.65 233.98 707.80 221.97 C 708.00 214.91 709.90 207.81 714.00 202.00 C 720.14 192.80 730.90 186.86 741.97 186.63 C 753.77 186.59 765.57 186.71 777.38 186.58 Z" />
<path fill="#ead900" opacity="1.00" d=" M 908.53 186.64 C 920.42 186.62 932.31 186.63 944.20 186.64 C 944.16 208.10 944.19 229.57 944.18 251.04 C 944.38 260.70 944.46 270.37 944.11 280.03 C 951.49 290.82 958.63 301.78 965.93 312.63 C 973.08 301.65 980.34 290.73 987.76 279.93 C 987.32 270.29 987.37 260.63 987.69 250.99 C 987.66 229.54 987.72 208.09 987.66 186.64 C 999.43 186.63 1011.21 186.62 1022.99 186.65 C 1022.77 218.48 1023.22 250.32 1022.82 282.14 C 1020.27 292.04 1014.78 300.88 1010.02 309.84 C 1003.00 322.40 995.45 334.66 987.83 346.86 C 994.83 357.71 1001.44 368.83 1007.93 380.00 C 1012.85 388.80 1017.87 397.61 1021.56 407.02 C 1023.57 411.43 1022.84 416.35 1022.95 421.04 C 1023.04 449.67 1022.88 478.30 1022.98 506.93 C 1011.21 506.97 999.44 506.94 987.68 506.95 C 987.68 492.96 987.70 478.96 987.67 464.97 C 986.99 447.83 988.21 430.64 987.51 413.52 C 980.41 402.57 972.80 391.93 965.93 380.83 C 958.94 391.78 951.49 402.44 944.41 413.32 C 943.78 427.51 944.45 441.80 944.34 456.04 C 944.04 473.00 944.23 489.98 944.19 506.95 C 932.31 506.95 920.43 506.95 908.56 506.95 C 908.67 486.65 908.50 466.35 908.32 446.06 C 908.94 434.74 908.18 423.37 908.80 412.06 C 911.24 401.91 916.89 392.92 921.71 383.76 C 928.81 371.27 936.18 358.92 943.97 346.84 C 933.89 330.81 923.97 314.64 915.26 297.80 C 912.72 292.41 909.75 287.04 908.72 281.11 C 908.11 271.10 908.22 261.05 908.57 251.03 C 908.54 229.56 908.62 208.10 908.53 186.64 Z" />
</g>
<g id="#ff6427ff">
<path fill="#ff6427" opacity="1.00" d=" M 231.24 188.27 C 269.45 188.28 307.67 188.28 345.89 188.27 C 345.92 200.00 345.66 211.74 346.03 223.47 C 332.78 223.75 319.52 223.43 306.27 223.63 C 306.60 234.39 306.01 245.17 306.78 255.91 C 307.03 270.59 306.49 285.26 306.37 299.93 C 306.38 345.95 306.37 391.97 306.37 437.99 C 306.69 447.00 306.75 456.03 306.39 465.04 C 306.35 479.34 306.38 493.64 306.38 507.95 C 294.51 507.95 282.64 507.95 270.77 507.95 C 270.73 490.29 270.92 472.62 270.59 454.97 C 270.91 424.00 270.73 393.03 270.77 362.06 C 270.72 333.37 270.94 304.67 270.52 275.98 C 270.24 269.31 270.33 262.62 270.43 255.94 C 271.10 245.18 270.55 234.39 270.87 223.62 C 257.65 223.53 244.43 223.60 231.21 223.58 C 231.33 211.81 231.29 200.04 231.24 188.27 Z" />
<path fill="#ff6427" opacity="1.00" d=" M 369.24 306.27 C 391.49 306.27 413.74 306.29 435.99 306.26 C 436.01 317.84 435.99 329.42 436.00 341.00 C 413.73 341.00 391.46 341.00 369.19 341.00 C 369.36 329.43 369.27 317.85 369.24 306.27 Z" />
<path fill="#ff6427" opacity="1.00" d=" M 421.19 572.35 C 444.27 568.45 467.74 567.47 491.10 567.72 C 595.73 567.73 700.36 567.72 804.99 567.73 C 818.66 568.43 832.38 568.95 845.95 570.92 C 859.02 572.35 871.53 576.66 884.40 579.18 C 886.59 579.67 888.73 580.41 890.86 581.18 C 896.61 583.38 902.51 585.16 908.15 587.65 C 909.38 588.23 910.61 588.78 911.87 589.37 C 916.73 591.21 921.42 593.47 926.00 595.95 C 929.40 597.56 932.81 599.19 936.01 601.20 C 979.19 625.09 1015.51 661.22 1039.73 704.20 C 1043.08 709.88 1045.95 715.84 1048.86 721.75 C 1050.61 727.19 1053.16 732.32 1055.39 737.57 C 1059.09 747.91 1063.07 758.16 1065.39 768.92 C 1070.02 784.22 1071.59 800.18 1073.33 816.00 C 1073.82 821.31 1073.42 826.66 1074.05 831.97 C 1074.89 837.87 1073.38 843.74 1073.62 849.66 C 1073.29 861.24 1071.49 872.73 1069.83 884.18 C 1068.42 894.47 1064.82 904.27 1062.84 914.44 C 1062.32 916.63 1061.63 918.78 1060.96 920.94 C 1060.59 921.90 1060.22 922.88 1059.85 923.86 C 1057.65 929.61 1055.81 935.49 1053.28 941.12 C 1050.95 946.12 1048.90 951.26 1046.25 956.12 C 1043.95 960.50 1041.92 965.04 1039.29 969.25 C 1030.18 985.29 1019.39 1000.36 1007.16 1014.17 C 987.55 1036.67 963.85 1055.38 938.17 1070.50 C 937.80 1070.55 937.07 1070.65 936.70 1070.69 C 936.29 1071.01 935.46 1071.66 935.04 1071.98 C 931.95 1074.10 928.34 1075.34 925.14 1077.28 C 920.87 1079.42 916.51 1081.38 912.10 1083.21 C 911.59 1083.47 910.59 1083.99 910.08 1084.25 C 902.20 1087.36 894.30 1090.49 886.19 1092.90 C 876.72 1094.89 867.43 1097.62 858.02 1099.82 C 841.82 1102.47 825.46 1104.53 809.02 1104.60 C 703.68 1104.62 598.33 1104.60 492.98 1104.61 C 480.32 1104.52 467.65 1104.86 455.00 1104.25 C 442.35 1103.15 429.69 1101.89 417.22 1099.51 C 408.40 1097.41 399.69 1094.85 390.81 1092.98 C 388.51 1092.48 386.30 1091.64 384.11 1090.82 C 378.76 1088.87 373.32 1087.14 368.10 1084.86 C 366.44 1084.17 364.80 1083.39 363.19 1082.62 C 340.43 1072.85 319.21 1059.57 300.11 1043.83 C 296.52 1040.41 291.94 1037.82 289.19 1033.67 C 288.94 1032.54 288.29 1031.91 287.23 1031.78 C 286.90 1031.71 286.24 1031.59 285.91 1031.53 C 284.31 1029.71 282.41 1028.16 281.02 1026.19 C 280.63 1025.83 279.87 1025.09 279.49 1024.72 C 262.65 1008.10 248.40 988.80 236.75 968.21 C 234.09 964.01 232.14 959.44 229.80 955.08 C 227.36 950.46 225.38 945.63 223.32 940.85 C 222.88 939.88 222.44 938.92 222.01 937.96 C 220.49 934.36 219.33 930.63 217.80 927.04 C 217.69 926.52 217.45 925.47 217.34 924.94 C 216.90 923.95 216.46 922.97 216.03 922.00 C 215.70 920.96 215.37 919.92 215.05 918.89 C 213.01 912.69 211.57 906.32 209.72 900.08 C 209.51 899.03 209.31 898.00 209.11 896.98 C 206.98 889.80 206.41 882.30 204.82 875.03 C 204.50 871.72 204.59 868.36 203.64 865.16 C 203.45 862.63 203.37 860.10 203.35 857.58 L 202.65 857.45 C 202.12 843.16 202.19 828.85 202.67 814.55 L 203.39 814.43 C 203.11 808.85 204.64 803.43 204.82 797.88 C 206.35 790.32 207.03 782.58 209.22 775.16 C 209.33 774.59 209.55 773.47 209.66 772.90 C 210.23 771.31 210.55 769.64 210.91 768.01 C 212.52 762.63 213.78 757.15 215.71 751.88 C 216.08 750.87 216.44 749.87 216.80 748.88 C 217.16 747.88 217.51 746.89 217.85 745.90 C 219.46 741.24 221.06 736.57 223.18 732.11 C 225.17 727.74 226.79 723.20 229.09 718.97 C 251.30 673.12 286.82 633.89 330.22 607.21 C 337.94 602.47 345.89 598.11 354.06 594.19 C 357.87 592.10 361.95 590.59 365.90 588.79 C 369.87 587.03 373.89 585.39 378.00 583.95 C 378.98 583.62 379.97 583.29 380.96 582.97 C 381.94 582.56 382.92 582.14 383.91 581.72 C 384.44 581.64 385.51 581.46 386.04 581.38 C 397.61 577.87 409.41 575.09 421.19 572.35 M 418.00 595.85 C 416.38 596.29 414.73 596.61 413.10 596.98 C 408.05 598.31 402.93 599.40 398.01 601.17 C 397.49 601.31 396.46 601.58 395.95 601.71 C 389.60 604.03 383.13 606.01 376.95 608.78 C 316.81 633.42 267.47 682.99 243.14 743.26 C 240.48 748.90 238.84 754.95 236.72 760.81 C 233.85 769.00 231.99 777.50 230.07 785.95 C 227.79 795.85 226.66 805.97 225.67 816.06 C 224.83 838.06 224.70 860.28 229.06 881.95 C 229.64 884.67 230.28 887.36 230.82 890.10 C 231.24 891.70 231.58 893.30 231.94 894.94 C 233.20 900.00 234.39 905.11 236.15 910.04 C 236.28 910.55 236.54 911.58 236.67 912.10 C 240.52 923.25 244.73 934.32 250.08 944.86 C 276.16 998.14 322.17 1041.45 377.12 1063.88 C 390.52 1069.60 404.53 1073.90 418.79 1076.86 C 438.80 1081.57 459.47 1082.78 479.97 1082.49 C 590.31 1082.48 700.66 1082.50 811.00 1082.48 C 834.31 1081.81 857.65 1078.35 879.84 1071.03 C 916.26 1059.78 949.69 1039.41 977.07 1012.96 C 1005.22 985.51 1026.85 951.36 1039.22 914.01 C 1041.63 907.11 1043.40 900.03 1045.15 892.95 C 1045.46 891.32 1045.80 889.71 1046.24 888.12 C 1050.05 870.69 1051.87 852.80 1051.50 834.96 C 1051.45 828.66 1051.78 822.31 1050.74 816.07 C 1050.06 804.92 1048.49 793.80 1045.87 782.93 C 1045.65 781.91 1045.44 780.89 1045.25 779.89 C 1033.50 729.37 1005.08 682.99 965.62 649.36 C 925.56 614.66 873.88 593.70 820.99 590.60 C 803.67 590.09 786.35 590.32 769.03 590.28 C 685.71 590.27 602.38 590.27 519.05 590.28 C 497.38 590.37 475.71 590.00 454.05 590.65 C 441.94 591.61 429.85 593.12 418.00 595.85 Z" />
<path fill="#ff6427" opacity="1.00" d=" M 387.48 680.50 C 414.16 680.36 440.85 680.77 467.52 680.28 C 467.27 770.99 467.53 861.71 467.39 952.42 C 479.79 952.39 492.20 952.42 504.61 952.40 C 504.60 965.81 504.59 979.22 504.62 992.63 C 465.57 992.61 426.52 992.64 387.47 992.61 C 387.51 979.21 387.49 965.81 387.48 952.42 C 399.71 952.54 411.95 952.10 424.17 952.65 C 424.35 875.24 424.28 797.83 424.18 720.44 C 411.95 721.10 399.68 720.65 387.43 720.68 C 387.56 707.28 387.47 693.89 387.48 680.50 M 466.29 681.23 C 465.76 683.80 466.05 686.46 465.99 689.09 C 466.02 760.72 466.00 832.36 466.00 903.99 C 466.18 920.21 465.63 936.45 466.29 952.66 C 467.04 951.55 467.41 950.34 467.38 949.03 C 467.30 861.03 467.31 773.03 467.37 685.04 C 467.04 683.83 468.08 681.46 466.29 681.23 M 424.93 803.00 C 425.06 853.03 424.67 903.07 425.12 953.10 C 425.66 951.45 425.96 949.78 426.04 948.08 C 425.94 873.40 426.04 798.71 425.99 724.03 C 425.77 723.00 425.33 720.94 425.11 719.91 C 424.64 747.60 425.04 775.30 424.93 803.00 Z" />
<path fill="#ff6427" opacity="1.00" d=" M 555.39 710.53 C 565.57 700.61 575.46 690.38 585.63 680.44 C 676.86 680.54 768.10 680.52 859.33 680.45 C 869.47 690.39 879.35 700.59 889.52 710.50 C 889.56 726.47 889.64 742.45 889.48 758.42 C 876.14 758.39 862.79 758.37 849.45 758.43 C 849.26 745.88 849.41 733.33 849.37 720.78 C 764.77 720.73 680.17 720.74 595.57 720.77 C 595.59 752.66 595.53 784.56 595.60 816.45 C 683.60 816.58 771.60 816.44 859.60 816.52 C 869.53 826.55 879.51 836.53 889.54 846.47 C 889.48 885.19 889.75 923.94 889.41 962.65 C 879.75 972.84 869.48 982.45 859.78 992.61 C 768.23 992.70 676.69 992.64 585.14 992.64 C 575.24 982.69 565.45 972.63 555.38 962.85 C 555.34 878.74 555.33 794.64 555.39 710.53 M 595.54 952.40 C 680.16 952.41 764.78 952.43 849.40 952.39 C 849.40 920.48 849.40 888.57 849.40 856.67 C 764.77 856.63 680.15 856.65 595.53 856.66 C 595.52 888.57 595.51 920.48 595.54 952.40 Z" />
</g>
<g id="#823314b1">
<path fill="#823314" opacity="0.69" d=" M 429.05 570.23 C 453.80 565.84 478.99 567.25 503.98 567.04 C 603.67 567.04 703.36 567.04 803.04 567.04 C 821.79 566.71 840.58 568.50 858.93 572.35 C 867.53 574.11 876.28 575.75 884.40 579.18 C 871.53 576.66 859.02 572.35 845.95 570.92 C 832.38 568.95 818.66 568.43 804.99 567.73 C 700.36 567.72 595.73 567.73 491.10 567.72 C 467.74 567.47 444.27 568.45 421.19 572.35 C 409.41 575.09 397.61 577.87 386.04 581.38 L 384.79 581.19 C 399.18 576.22 414.02 572.61 429.05 570.23 Z" />
</g>
<g id="#ffffffff">
<path fill="#ffffff" opacity="1.00" d=" M 418.00 595.85 C 429.85 593.12 441.94 591.61 454.05 590.65 C 475.71 590.00 497.38 590.37 519.05 590.28 C 602.38 590.27 685.71 590.27 769.03 590.28 C 786.35 590.32 803.67 590.09 820.99 590.60 C 873.88 593.70 925.56 614.66 965.62 649.36 C 1005.08 682.99 1033.50 729.37 1045.25 779.89 C 1045.44 780.89 1045.65 781.91 1045.87 782.93 C 1048.49 793.80 1050.06 804.92 1050.74 816.07 C 1051.78 822.31 1051.45 828.66 1051.50 834.96 C 1051.87 852.80 1050.05 870.69 1046.24 888.12 C 1045.80 889.71 1045.46 891.32 1045.15 892.95 C 1043.40 900.03 1041.63 907.11 1039.22 914.01 C 1026.85 951.36 1005.22 985.51 977.07 1012.96 C 949.69 1039.41 916.26 1059.78 879.84 1071.03 C 857.65 1078.35 834.31 1081.81 811.00 1082.48 C 700.66 1082.50 590.31 1082.48 479.97 1082.49 C 459.47 1082.78 438.80 1081.57 418.79 1076.86 C 404.53 1073.90 390.52 1069.60 377.12 1063.88 C 322.17 1041.45 276.16 998.14 250.08 944.86 C 244.73 934.32 240.52 923.25 236.67 912.10 C 236.54 911.58 236.28 910.55 236.15 910.04 C 234.39 905.11 233.20 900.00 231.94 894.94 C 231.58 893.30 231.24 891.70 230.82 890.10 C 230.28 887.36 229.64 884.67 229.06 881.95 C 224.70 860.28 224.83 838.06 225.67 816.06 C 226.66 805.97 227.79 795.85 230.07 785.95 C 231.99 777.50 233.85 769.00 236.72 760.81 C 238.84 754.95 240.48 748.90 243.14 743.26 C 267.47 682.99 316.81 633.42 376.95 608.78 C 383.13 606.01 389.60 604.03 395.95 601.71 C 396.46 601.58 397.49 601.31 398.01 601.17 C 402.93 599.40 408.05 598.31 413.10 596.98 C 414.73 596.61 416.38 596.29 418.00 595.85 M 425.91 616.68 C 424.69 616.77 423.65 617.43 422.65 618.05 C 418.46 618.59 414.48 620.07 410.33 620.73 L 410.58 621.47 C 409.20 621.51 407.83 621.55 406.46 621.60 L 406.54 622.32 C 400.70 623.64 395.17 626.00 389.47 627.75 L 389.53 628.26 C 387.96 628.74 386.42 629.29 384.87 629.82 C 381.80 631.22 378.73 632.61 375.57 633.76 L 375.44 634.66 C 374.98 634.59 374.05 634.44 373.59 634.36 L 373.39 635.25 C 370.88 636.33 368.43 637.54 365.96 638.71 C 365.07 639.24 364.19 639.78 363.31 640.33 C 362.45 640.77 361.60 641.22 360.75 641.68 C 357.43 643.67 354.03 645.53 350.80 647.69 C 347.74 649.76 344.63 651.76 341.54 653.79 L 341.42 654.16 C 339.12 655.68 336.93 657.37 334.63 658.89 L 334.57 659.34 C 334.21 659.54 333.50 659.95 333.14 660.15 C 329.18 663.28 325.43 666.66 321.54 669.87 L 321.54 670.57 L 320.41 670.40 L 320.51 671.56 L 319.35 671.32 L 319.30 672.04 C 314.52 676.36 310.00 680.97 305.60 685.68 C 305.40 685.96 305.01 686.51 304.81 686.79 C 301.44 690.54 298.03 694.25 295.13 698.39 L 294.35 698.39 L 294.64 699.55 L 293.86 699.59 C 292.33 701.90 290.66 704.11 289.12 706.41 L 288.78 706.50 C 287.15 708.99 285.45 711.44 283.90 714.00 C 283.53 714.44 282.79 715.34 282.42 715.78 L 282.67 716.61 L 281.42 716.67 C 281.47 717.12 281.55 718.03 281.59 718.48 C 281.38 718.47 280.95 718.46 280.73 718.45 C 279.69 720.55 278.52 722.59 277.40 724.65 L 276.53 724.67 C 276.58 725.14 276.67 726.08 276.71 726.55 L 275.83 726.64 C 275.56 727.22 275.01 728.38 274.74 728.96 C 273.14 732.05 271.46 735.11 270.15 738.34 L 269.29 738.57 C 269.37 739.03 269.54 739.94 269.62 740.40 L 268.32 740.48 C 268.34 740.86 268.38 741.61 268.40 741.99 C 266.71 744.99 265.44 748.20 264.24 751.42 L 263.84 751.56 C 263.36 753.09 262.78 754.59 262.26 756.11 C 261.82 757.08 261.39 758.06 260.98 759.05 C 260.62 760.23 260.27 761.41 259.96 762.62 C 256.67 768.16 255.60 774.76 253.92 780.93 C 245.84 811.91 245.01 844.59 250.42 876.08 C 251.21 879.19 251.11 882.67 252.97 885.42 C 253.46 888.62 254.25 891.76 255.12 894.88 C 255.46 896.21 255.82 897.57 256.33 898.87 C 256.50 899.87 256.68 900.89 256.87 901.92 C 257.15 902.45 257.72 903.52 258.01 904.05 C 259.34 908.96 261.28 913.68 262.73 918.56 L 263.22 918.46 C 263.59 919.60 263.97 920.74 264.37 921.89 C 266.01 925.63 267.39 929.51 269.52 933.02 C 269.48 933.37 269.41 934.06 269.37 934.41 L 270.60 934.51 C 270.62 934.89 270.66 935.66 270.68 936.04 C 272.56 939.12 274.09 942.40 275.71 945.63 L 276.57 945.61 C 276.55 945.96 276.52 946.67 276.50 947.02 C 278.26 949.57 279.70 952.32 281.46 954.88 L 281.34 955.79 C 281.67 955.74 282.31 955.65 282.64 955.61 C 282.56 956.05 282.40 956.95 282.33 957.39 L 283.20 957.45 C 284.95 960.42 286.87 963.28 288.82 966.13 C 289.05 966.42 289.50 966.99 289.73 967.28 C 291.46 969.53 293.13 971.84 294.82 974.14 C 295.03 974.42 295.47 974.98 295.69 975.26 C 297.16 976.91 298.57 978.61 299.86 980.41 L 300.58 980.46 L 300.45 981.24 C 300.74 981.54 301.33 982.14 301.62 982.44 C 304.35 985.34 306.97 988.35 309.87 991.09 C 310.06 991.39 310.43 992.00 310.62 992.31 C 312.21 994.12 313.91 995.85 315.87 997.28 C 319.37 1000.47 322.68 1003.89 326.33 1006.92 L 326.54 1007.18 C 328.35 1008.42 330.04 1009.85 331.69 1011.32 C 331.97 1011.54 332.53 1011.99 332.81 1012.22 C 335.28 1014.07 337.74 1015.92 340.24 1017.74 C 340.59 1017.98 341.29 1018.44 341.63 1018.68 L 341.79 1019.06 C 344.33 1020.63 346.71 1022.44 349.40 1023.76 C 349.39 1023.98 349.38 1024.41 349.38 1024.63 C 349.84 1024.60 350.75 1024.54 351.21 1024.51 L 351.32 1025.73 L 352.54 1025.47 L 352.54 1026.25 C 355.25 1027.70 357.89 1029.30 360.63 1030.71 L 360.63 1031.50 C 360.99 1031.50 361.71 1031.51 362.07 1031.51 C 365.02 1033.65 368.43 1035.03 371.69 1036.64 L 371.52 1037.11 C 372.74 1037.38 373.91 1037.83 375.02 1038.46 C 375.25 1038.52 375.72 1038.64 375.95 1038.70 C 379.13 1040.49 382.61 1041.63 385.88 1043.24 C 387.40 1043.75 388.90 1044.32 390.45 1044.80 L 390.39 1045.29 C 391.55 1045.59 392.71 1045.93 393.87 1046.31 C 396.55 1047.25 399.28 1048.10 401.92 1049.20 C 402.59 1049.29 403.93 1049.46 404.59 1049.55 L 404.36 1050.38 C 405.04 1050.43 406.40 1050.53 407.09 1050.59 C 408.36 1051.21 409.73 1051.53 411.11 1051.89 C 416.85 1053.42 422.64 1054.91 428.54 1055.67 L 428.48 1056.34 C 430.50 1056.37 432.53 1056.49 434.55 1056.58 L 434.36 1057.42 C 436.78 1057.45 439.21 1057.56 441.64 1057.62 L 441.46 1058.43 C 444.46 1058.49 447.45 1058.66 450.45 1058.70 L 450.51 1059.33 C 459.02 1059.65 467.53 1059.91 476.05 1059.85 C 584.69 1059.85 693.32 1059.85 801.96 1059.85 C 810.28 1059.61 818.72 1060.19 826.95 1058.83 C 829.96 1058.43 833.17 1058.93 836.04 1057.73 C 838.72 1057.44 841.43 1057.37 844.14 1057.43 C 842.40 1057.05 840.67 1056.71 838.93 1056.41 C 841.79 1056.70 844.66 1056.51 847.53 1056.38 L 847.60 1055.76 C 853.35 1055.15 858.89 1053.38 864.57 1052.33 L 864.52 1051.63 C 865.89 1051.57 867.26 1051.52 868.65 1051.49 L 868.42 1050.54 C 869.80 1050.46 871.18 1050.40 872.58 1050.35 L 872.38 1049.60 C 876.30 1048.59 880.12 1047.27 883.93 1045.91 C 885.33 1045.39 886.72 1044.82 888.14 1044.33 C 889.38 1043.74 890.63 1043.15 891.90 1042.60 C 895.45 1041.29 898.84 1039.62 902.35 1038.19 L 902.63 1037.26 C 903.09 1037.36 904.01 1037.56 904.47 1037.67 L 904.60 1036.75 C 908.37 1035.15 911.90 1033.06 915.57 1031.25 L 915.63 1030.39 C 915.97 1030.42 916.64 1030.47 916.98 1030.50 C 922.85 1026.77 928.77 1023.11 934.55 1019.23 L 934.56 1018.40 C 935.00 1018.43 935.89 1018.49 936.34 1018.52 L 936.31 1017.29 L 937.14 1017.45 C 938.67 1016.10 940.25 1014.81 941.83 1013.52 L 942.66 1013.69 L 942.67 1012.92 C 943.83 1012.05 944.98 1011.16 946.16 1010.31 C 948.11 1008.81 949.95 1007.17 951.74 1005.49 L 952.11 1005.39 C 952.46 1005.10 953.15 1004.53 953.50 1004.24 L 953.53 1003.54 L 954.32 1003.54 C 961.14 996.96 968.11 990.49 974.21 983.22 C 975.74 981.41 977.31 979.64 978.83 977.83 C 979.05 977.48 979.47 976.76 979.68 976.41 L 980.13 976.36 C 982.21 973.59 984.16 970.72 986.46 968.12 L 986.33 967.32 L 987.55 967.38 C 987.54 967.03 987.50 966.35 987.49 966.01 C 989.56 963.73 991.25 961.15 992.80 958.49 L 993.61 958.41 C 993.56 957.96 993.45 957.07 993.40 956.62 L 994.67 956.68 L 994.58 955.84 C 996.08 953.62 997.40 951.28 998.74 948.97 C 999.40 947.87 1000.08 946.79 1000.74 945.70 C 1002.55 942.41 1004.32 939.09 1005.73 935.60 L 1006.65 935.48 C 1006.57 935.01 1006.42 934.09 1006.35 933.62 L 1007.28 933.41 C 1008.75 929.77 1010.49 926.25 1011.78 922.55 L 1012.60 922.41 C 1012.55 922.06 1012.43 921.36 1012.37 921.02 C 1013.12 919.96 1013.60 918.80 1013.82 917.53 L 1014.27 917.58 C 1014.58 916.40 1014.92 915.25 1015.29 914.11 C 1016.21 911.40 1017.11 908.70 1018.28 906.10 C 1018.34 905.39 1018.46 903.98 1018.52 903.27 C 1018.75 903.37 1019.19 903.57 1019.42 903.67 C 1019.46 902.98 1019.56 901.59 1019.61 900.89 C 1020.21 899.63 1020.53 898.26 1020.91 896.94 C 1022.20 892.72 1022.94 888.36 1024.10 884.10 C 1024.39 882.09 1024.66 880.07 1025.34 878.16 C 1025.60 875.75 1025.65 873.34 1025.48 870.94 C 1025.70 872.37 1025.94 873.83 1026.23 875.28 C 1027.12 865.18 1029.01 855.15 1028.85 844.96 C 1028.67 834.32 1029.46 823.57 1027.87 813.03 C 1027.60 810.51 1027.48 807.99 1027.44 805.47 L 1026.64 805.57 C 1026.57 802.85 1026.41 800.14 1026.33 797.43 L 1025.45 797.65 C 1025.42 795.91 1025.37 794.17 1025.38 792.45 L 1024.60 792.52 C 1024.46 791.29 1024.32 790.06 1024.19 788.84 C 1022.93 783.39 1021.45 777.99 1020.25 772.53 L 1019.56 772.58 C 1019.44 771.41 1019.33 770.25 1019.23 769.11 C 1018.94 768.56 1018.36 767.47 1018.07 766.93 C 1017.01 763.04 1015.45 759.32 1014.38 755.45 L 1013.57 755.47 C 1013.55 754.71 1013.52 753.20 1013.50 752.45 C 1013.30 752.46 1012.88 752.49 1012.68 752.50 C 1012.17 750.94 1011.62 749.42 1011.06 747.91 C 1010.30 746.30 1009.61 744.68 1008.93 743.06 C 1007.95 740.92 1006.92 738.80 1006.13 736.59 L 1005.69 736.72 C 1004.18 733.39 1002.67 730.03 1000.53 727.05 C 1000.54 726.69 1000.56 725.98 1000.57 725.63 L 999.75 725.58 C 996.22 718.53 991.48 712.20 987.24 705.59 L 986.83 705.49 C 984.99 702.78 982.95 700.22 981.15 697.48 L 980.87 697.52 C 977.49 693.14 973.96 688.90 970.15 684.90 C 969.12 683.85 968.08 682.84 967.03 681.84 C 966.45 681.19 965.88 680.54 965.33 679.89 C 960.65 675.12 955.72 670.51 950.66 666.11 L 950.58 665.42 L 949.79 665.51 C 948.13 663.95 946.38 662.50 944.54 661.17 L 944.40 660.81 C 943.20 659.97 942.04 659.10 940.87 658.26 C 939.25 657.07 937.67 655.85 936.13 654.58 L 935.33 654.64 L 935.36 653.39 C 934.92 653.44 934.04 653.55 933.60 653.60 L 933.61 652.74 C 931.45 651.42 929.33 650.07 927.24 648.67 C 925.48 647.46 923.70 646.29 921.88 645.20 C 919.83 644.08 917.81 642.92 915.95 641.54 C 915.60 641.56 914.90 641.62 914.55 641.65 L 914.58 640.79 C 910.98 638.93 907.33 637.18 903.73 635.35 C 902.08 634.46 900.40 633.62 898.62 633.09 L 898.53 632.59 C 895.28 631.41 892.02 630.24 889.00 628.56 C 888.62 628.60 887.85 628.67 887.46 628.71 L 887.57 627.57 C 886.79 627.55 885.24 627.51 884.47 627.48 L 884.56 626.74 C 883.39 626.42 882.24 626.09 881.10 625.74 C 877.58 624.43 874.00 623.27 870.35 622.40 L 870.52 621.66 C 869.13 621.59 867.76 621.54 866.39 621.49 L 866.59 620.62 C 865.36 620.51 864.14 620.39 862.94 620.26 C 859.85 619.08 856.60 618.44 853.36 617.91 C 850.16 616.19 846.43 616.04 842.95 615.28 C 830.76 612.98 818.35 612.81 806.01 612.07 C 710.35 612.00 614.69 612.02 519.02 612.06 C 487.96 612.27 456.54 610.40 425.91 616.68 Z" />
</g>
<g id="#797979dc">
<path fill="#797979" opacity="0.86" d=" M 425.91 616.68 C 456.54 610.40 487.96 612.27 519.02 612.06 C 614.69 612.02 710.35 612.00 806.01 612.07 C 818.35 612.81 830.76 612.98 842.95 615.28 C 846.43 616.04 850.16 616.19 853.36 617.91 C 839.01 615.87 824.64 613.30 810.10 613.41 C 782.40 612.50 754.68 613.17 726.97 612.93 C 712.98 613.38 698.98 613.44 684.98 613.17 C 670.98 612.54 656.97 613.25 642.97 613.31 C 629.00 612.88 615.03 612.72 601.07 613.25 C 591.02 613.62 580.99 612.74 570.95 612.95 C 549.31 613.10 527.66 612.61 506.03 613.30 C 492.98 613.30 479.92 613.19 466.87 613.39 C 452.00 613.30 437.30 615.86 422.65 618.05 C 423.65 617.43 424.69 616.77 425.91 616.68 Z" />
</g>
<g id="#000000ff">
<path fill="#000000" opacity="1.00" d=" M 466.87 613.39 C 479.92 613.19 492.98 613.30 506.03 613.30 C 527.66 612.61 549.31 613.10 570.95 612.95 C 580.99 612.74 591.02 613.62 601.07 613.25 C 615.03 612.72 629.00 612.88 642.97 613.31 C 656.97 613.25 670.98 612.54 684.98 613.17 C 698.98 613.44 712.98 613.38 726.97 612.93 C 754.68 613.17 782.40 612.50 810.10 613.41 C 824.64 613.30 839.01 615.87 853.36 617.91 C 856.60 618.44 859.85 619.08 862.94 620.26 C 864.14 620.39 865.36 620.51 866.59 620.62 L 866.39 621.49 C 867.76 621.54 869.13 621.59 870.52 621.66 L 870.35 622.40 C 874.00 623.27 877.58 624.43 881.10 625.74 C 882.24 626.09 883.39 626.42 884.56 626.74 L 884.47 627.48 C 885.24 627.51 886.79 627.55 887.57 627.57 L 887.46 628.71 C 887.85 628.67 888.62 628.60 889.00 628.56 C 892.02 630.24 895.28 631.41 898.53 632.59 L 898.62 633.09 C 900.40 633.62 902.08 634.46 903.73 635.35 C 907.33 637.18 910.98 638.93 914.58 640.79 L 914.55 641.65 C 914.90 641.62 915.60 641.56 915.95 641.54 C 917.81 642.92 919.83 644.08 921.88 645.20 C 923.70 646.29 925.48 647.46 927.24 648.67 C 929.33 650.07 931.45 651.42 933.61 652.74 L 933.60 653.60 C 934.04 653.55 934.92 653.44 935.36 653.39 L 935.33 654.64 L 936.13 654.58 C 937.67 655.85 939.25 657.07 940.87 658.26 C 942.04 659.10 943.20 659.97 944.40 660.81 L 944.54 661.17 C 946.38 662.50 948.13 663.95 949.79 665.51 L 950.58 665.42 L 950.66 666.11 C 955.72 670.51 960.65 675.12 965.33 679.89 C 965.88 680.54 966.45 681.19 967.03 681.84 C 968.08 682.84 969.12 683.85 970.15 684.90 C 973.96 688.90 977.49 693.14 980.87 697.52 L 981.15 697.48 C 982.95 700.22 984.99 702.78 986.83 705.49 L 987.24 705.59 C 991.48 712.20 996.22 718.53 999.75 725.58 L 1000.57 725.63 C 1000.56 725.98 1000.54 726.69 1000.53 727.05 C 1002.67 730.03 1004.18 733.39 1005.69 736.72 L 1006.13 736.59 C 1006.92 738.80 1007.95 740.92 1008.93 743.06 C 1009.61 744.68 1010.30 746.30 1011.06 747.91 C 1011.62 749.42 1012.17 750.94 1012.68 752.50 C 1012.88 752.49 1013.30 752.46 1013.50 752.45 C 1013.52 753.20 1013.55 754.71 1013.57 755.47 L 1014.38 755.45 C 1015.45 759.32 1017.01 763.04 1018.07 766.93 C 1018.36 767.47 1018.94 768.56 1019.23 769.11 C 1019.33 770.25 1019.44 771.41 1019.56 772.58 L 1020.25 772.53 C 1021.45 777.99 1022.93 783.39 1024.19 788.84 C 1024.32 790.06 1024.46 791.29 1024.60 792.52 L 1025.38 792.45 C 1025.37 794.17 1025.42 795.91 1025.45 797.65 L 1026.33 797.43 C 1026.41 800.14 1026.57 802.85 1026.64 805.57 L 1027.44 805.47 C 1027.48 807.99 1027.60 810.51 1027.87 813.03 C 1029.46 823.57 1028.67 834.32 1028.85 844.96 C 1029.01 855.15 1027.12 865.18 1026.23 875.28 C 1025.94 873.83 1025.70 872.37 1025.48 870.94 C 1025.65 873.34 1025.60 875.75 1025.34 878.16 C 1024.66 880.07 1024.39 882.09 1024.10 884.10 C 1022.94 888.36 1022.20 892.72 1020.91 896.94 C 1020.53 898.26 1020.21 899.63 1019.61 900.89 C 1019.56 901.59 1019.46 902.98 1019.42 903.67 C 1019.19 903.57 1018.75 903.37 1018.52 903.27 C 1018.46 903.98 1018.34 905.39 1018.28 906.10 C 1017.11 908.70 1016.21 911.40 1015.29 914.11 C 1014.92 915.25 1014.58 916.40 1014.27 917.58 L 1013.82 917.53 C 1013.60 918.80 1013.12 919.96 1012.37 921.02 C 1012.43 921.36 1012.55 922.06 1012.60 922.41 L 1011.78 922.55 C 1010.49 926.25 1008.75 929.77 1007.28 933.41 L 1006.35 933.62 C 1006.42 934.09 1006.57 935.01 1006.65 935.48 L 1005.73 935.60 C 1004.32 939.09 1002.55 942.41 1000.74 945.70 C 1000.08 946.79 999.40 947.87 998.74 948.97 C 997.40 951.28 996.08 953.62 994.58 955.84 L 994.67 956.68 L 993.40 956.62 C 993.45 957.07 993.56 957.96 993.61 958.41 L 992.80 958.49 C 991.25 961.15 989.56 963.73 987.49 966.01 C 987.50 966.35 987.54 967.03 987.55 967.38 L 986.33 967.32 L 986.46 968.12 C 984.16 970.72 982.21 973.59 980.13 976.36 L 979.68 976.41 C 979.47 976.76 979.05 977.48 978.83 977.83 C 977.31 979.64 975.74 981.41 974.21 983.22 C 968.11 990.49 961.14 996.96 954.32 1003.54 L 953.53 1003.54 L 953.50 1004.24 C 953.15 1004.53 952.46 1005.10 952.11 1005.39 L 951.74 1005.49 C 949.95 1007.17 948.11 1008.81 946.16 1010.31 C 944.98 1011.16 943.83 1012.05 942.67 1012.92 L 942.66 1013.69 L 941.83 1013.52 C 940.25 1014.81 938.67 1016.10 937.14 1017.45 L 936.31 1017.29 L 936.34 1018.52 C 935.89 1018.49 935.00 1018.43 934.56 1018.40 L 934.55 1019.23 C 928.77 1023.11 922.85 1026.77 916.98 1030.50 C 916.64 1030.47 915.97 1030.42 915.63 1030.39 L 915.57 1031.25 C 911.90 1033.06 908.37 1035.15 904.60 1036.75 L 904.47 1037.67 C 904.01 1037.56 903.09 1037.36 902.63 1037.26 L 902.35 1038.19 C 898.84 1039.62 895.45 1041.29 891.90 1042.60 C 890.63 1043.15 889.38 1043.74 888.14 1044.33 C 886.72 1044.82 885.33 1045.39 883.93 1045.91 C 880.12 1047.27 876.30 1048.59 872.38 1049.60 L 872.58 1050.35 C 871.18 1050.40 869.80 1050.46 868.42 1050.54 L 868.65 1051.49 C 867.26 1051.52 865.89 1051.57 864.52 1051.63 L 864.57 1052.33 C 858.89 1053.38 853.35 1055.15 847.60 1055.76 L 847.53 1056.38 C 844.66 1056.51 841.79 1056.70 838.93 1056.41 C 840.67 1056.71 842.40 1057.05 844.14 1057.43 C 841.43 1057.37 838.72 1057.44 836.04 1057.73 C 833.17 1058.93 829.96 1058.43 826.95 1058.83 C 818.72 1060.19 810.28 1059.61 801.96 1059.85 C 693.32 1059.85 584.69 1059.85 476.05 1059.85 C 467.53 1059.91 459.02 1059.65 450.51 1059.33 L 450.45 1058.70 C 447.45 1058.66 444.46 1058.49 441.46 1058.43 L 441.64 1057.62 C 439.21 1057.56 436.78 1057.45 434.36 1057.42 L 434.55 1056.58 C 432.53 1056.49 430.50 1056.37 428.48 1056.34 L 428.54 1055.67 C 422.64 1054.91 416.85 1053.42 411.11 1051.89 C 409.73 1051.53 408.36 1051.21 407.09 1050.59 C 406.40 1050.53 405.04 1050.43 404.36 1050.38 L 404.59 1049.55 C 403.93 1049.46 402.59 1049.29 401.92 1049.20 C 399.28 1048.10 396.55 1047.25 393.87 1046.31 C 392.71 1045.93 391.55 1045.59 390.39 1045.29 L 390.45 1044.80 C 388.90 1044.32 387.40 1043.75 385.88 1043.24 C 382.61 1041.63 379.13 1040.49 375.95 1038.70 C 375.72 1038.64 375.25 1038.52 375.02 1038.46 C 373.91 1037.83 372.74 1037.38 371.52 1037.11 L 371.69 1036.64 C 368.43 1035.03 365.02 1033.65 362.07 1031.51 C 361.71 1031.51 360.99 1031.50 360.63 1031.50 L 360.63 1030.71 C 357.89 1029.30 355.25 1027.70 352.54 1026.25 L 352.54 1025.47 L 351.32 1025.73 L 351.21 1024.51 C 350.75 1024.54 349.84 1024.60 349.38 1024.63 C 349.38 1024.41 349.39 1023.98 349.40 1023.76 C 346.71 1022.44 344.33 1020.63 341.79 1019.06 L 341.63 1018.68 C 341.29 1018.44 340.59 1017.98 340.24 1017.74 C 337.74 1015.92 335.28 1014.07 332.81 1012.22 C 332.53 1011.99 331.97 1011.54 331.69 1011.32 C 330.04 1009.85 328.35 1008.42 326.54 1007.18 L 326.33 1006.92 C 322.68 1003.89 319.37 1000.47 315.87 997.28 C 313.91 995.85 312.21 994.12 310.62 992.31 C 310.43 992.00 310.06 991.39 309.87 991.09 C 306.97 988.35 304.35 985.34 301.62 982.44 C 301.33 982.14 300.74 981.54 300.45 981.24 L 300.58 980.46 L 299.86 980.41 C 298.57 978.61 297.16 976.91 295.69 975.26 C 295.47 974.98 295.03 974.42 294.82 974.14 C 293.13 971.84 291.46 969.53 289.73 967.28 C 289.50 966.99 289.05 966.42 288.82 966.13 C 286.87 963.28 284.95 960.42 283.20 957.45 L 282.33 957.39 C 282.40 956.95 282.56 956.05 282.64 955.61 C 282.31 955.65 281.67 955.74 281.34 955.79 L 281.46 954.88 C 279.70 952.32 278.26 949.57 276.50 947.02 C 276.52 946.67 276.55 945.96 276.57 945.61 L 275.71 945.63 C 274.09 942.40 272.56 939.12 270.68 936.04 C 270.66 935.66 270.62 934.89 270.60 934.51 L 269.37 934.41 C 269.41 934.06 269.48 933.37 269.52 933.02 C 267.39 929.51 266.01 925.63 264.37 921.89 C 263.97 920.74 263.59 919.60 263.22 918.46 L 262.73 918.56 C 261.28 913.68 259.34 908.96 258.01 904.05 C 257.72 903.52 257.15 902.45 256.87 901.92 C 256.68 900.89 256.50 899.87 256.33 898.87 C 255.82 897.57 255.46 896.21 255.12 894.88 C 254.25 891.76 253.46 888.62 252.97 885.42 C 251.00 871.97 248.34 858.52 248.26 844.88 C 247.33 826.93 249.20 808.94 252.43 791.29 C 254.17 781.54 257.70 772.24 259.96 762.62 C 260.27 761.41 260.62 760.23 260.98 759.05 C 261.39 758.06 261.82 757.08 262.26 756.11 C 262.78 754.59 263.36 753.09 263.84 751.56 L 264.24 751.42 C 265.44 748.20 266.71 744.99 268.40 741.99 C 268.38 741.61 268.34 740.86 268.32 740.48 L 269.62 740.40 C 269.54 739.94 269.37 739.03 269.29 738.57 L 270.15 738.34 C 271.46 735.11 273.14 732.05 274.74 728.96 C 275.01 728.38 275.56 727.22 275.83 726.64 L 276.71 726.55 C 276.67 726.08 276.58 725.14 276.53 724.67 L 277.40 724.65 C 278.52 722.59 279.69 720.55 280.73 718.45 C 280.95 718.46 281.38 718.47 281.59 718.48 C 281.55 718.03 281.47 717.12 281.42 716.67 L 282.67 716.61 L 282.42 715.78 C 282.79 715.34 283.53 714.44 283.90 714.00 C 285.45 711.44 287.15 708.99 288.78 706.50 L 289.12 706.41 C 290.66 704.11 292.33 701.90 293.86 699.59 L 294.64 699.55 L 294.35 698.39 L 295.13 698.39 C 298.03 694.25 301.44 690.54 304.81 686.79 C 305.01 686.51 305.40 685.96 305.60 685.68 C 310.00 680.97 314.52 676.36 319.30 672.04 L 319.35 671.32 L 320.51 671.56 L 320.41 670.40 L 321.54 670.57 L 321.54 669.87 C 325.43 666.66 329.18 663.28 333.14 660.15 C 333.50 659.95 334.21 659.54 334.57 659.34 L 334.63 658.89 C 336.93 657.37 339.12 655.68 341.42 654.16 L 341.54 653.79 C 344.63 651.76 347.74 649.76 350.80 647.69 C 354.03 645.53 357.43 643.67 360.75 641.68 C 361.60 641.22 362.45 640.77 363.31 640.33 C 364.19 639.78 365.07 639.24 365.96 638.71 C 368.43 637.54 370.88 636.33 373.39 635.25 L 373.59 634.36 C 374.05 634.44 374.98 634.59 375.44 634.66 L 375.57 633.76 C 378.73 632.61 381.80 631.22 384.87 629.82 C 386.42 629.29 387.96 628.74 389.53 628.26 L 389.47 627.75 C 395.17 626.00 400.70 623.64 406.54 622.32 L 406.46 621.60 C 407.83 621.55 409.20 621.51 410.58 621.47 L 410.33 620.73 C 414.48 620.07 418.46 618.59 422.65 618.05 C 437.30 615.86 452.00 613.30 466.87 613.39 M 387.48 680.50 C 387.47 693.89 387.56 707.28 387.43 720.68 C 399.68 720.65 411.95 721.10 424.18 720.44 C 424.28 797.83 424.35 875.24 424.17 952.65 C 411.95 952.10 399.71 952.54 387.48 952.42 C 387.49 965.81 387.51 979.21 387.47 992.61 C 426.52 992.64 465.57 992.61 504.62 992.63 C 504.59 979.22 504.60 965.81 504.61 952.40 C 492.20 952.42 479.79 952.39 467.39 952.42 C 467.53 861.71 467.27 770.99 467.52 680.28 C 440.85 680.77 414.16 680.36 387.48 680.50 M 555.39 710.53 C 555.33 794.64 555.34 878.74 555.38 962.85 C 565.45 972.63 575.24 982.69 585.14 992.64 C 676.69 992.64 768.23 992.70 859.78 992.61 C 869.48 982.45 879.75 972.84 889.41 962.65 C 889.75 923.94 889.48 885.19 889.54 846.47 C 879.51 836.53 869.53 826.55 859.60 816.52 C 771.60 816.44 683.60 816.58 595.60 816.45 C 595.53 784.56 595.59 752.66 595.57 720.77 C 680.17 720.74 764.77 720.73 849.37 720.78 C 849.41 733.33 849.26 745.88 849.45 758.43 C 862.79 758.37 876.14 758.39 889.48 758.42 C 889.64 742.45 889.56 726.47 889.52 710.50 C 879.35 700.59 869.47 690.39 859.33 680.45 C 768.10 680.52 676.86 680.54 585.63 680.44 C 575.46 690.38 565.57 700.61 555.39 710.53 Z" />
<path fill="#000000" opacity="1.00" d=" M 595.54 952.40 C 595.51 920.48 595.52 888.57 595.53 856.66 C 680.15 856.65 764.77 856.63 849.40 856.67 C 849.40 888.57 849.40 920.48 849.40 952.39 C 764.78 952.43 680.16 952.41 595.54 952.40 Z" />
</g>
<g id="#cc501ff0">
<path fill="#cc501f" opacity="0.94" d=" M 466.29 681.23 C 468.08 681.46 467.04 683.83 467.37 685.04 C 467.31 773.03 467.30 861.03 467.38 949.03 C 467.41 950.34 467.04 951.55 466.29 952.66 C 465.63 936.45 466.18 920.21 466.00 903.99 C 466.00 832.36 466.02 760.72 465.99 689.09 C 466.05 686.46 465.76 683.80 466.29 681.23 Z" />
</g>
<g id="#b8481cea">
<path fill="#b8481c" opacity="0.92" d=" M 424.93 803.00 C 425.04 775.30 424.64 747.60 425.11 719.91 C 425.33 720.94 425.77 723.00 425.99 724.03 C 426.04 798.71 425.94 873.40 426.04 948.08 C 425.96 949.78 425.66 951.45 425.12 953.10 C 424.67 903.07 425.06 853.03 424.93 803.00 Z" />
</g>
<g id="#5d240e91">
<path fill="#5d240e" opacity="0.57" d=" M 1048.86 721.75 C 1051.80 725.62 1053.28 730.33 1055.09 734.78 C 1076.92 787.67 1080.83 847.60 1066.68 903.00 C 1065.64 906.88 1065.02 910.98 1062.84 914.44 C 1064.82 904.27 1068.42 894.47 1069.83 884.18 C 1071.49 872.73 1073.29 861.24 1073.62 849.66 C 1073.38 843.74 1074.89 837.87 1074.05 831.97 C 1073.42 826.66 1073.82 821.31 1073.33 816.00 C 1071.59 800.18 1070.02 784.22 1065.39 768.92 C 1063.07 758.16 1059.09 747.91 1055.39 737.57 C 1053.16 732.32 1050.61 727.19 1048.86 721.75 Z" />
</g>
<g id="#7c7c7ce9">
<path fill="#7c7c7c" opacity="0.91" d=" M 253.92 780.93 C 255.60 774.76 256.67 768.16 259.96 762.62 C 257.70 772.24 254.17 781.54 252.43 791.29 C 249.20 808.94 247.33 826.93 248.26 844.88 C 248.34 858.52 251.00 871.97 252.97 885.42 C 251.11 882.67 251.21 879.19 250.42 876.08 C 245.01 844.59 245.84 811.91 253.92 780.93 Z" />
</g>
<g id="#63270f9d">
<path fill="#63270f" opacity="0.62" d=" M 279.49 1024.72 C 279.87 1025.09 280.63 1025.83 281.02 1026.19 L 280.12 1026.39 L 279.33 1025.64 L 279.49 1024.72 Z" />
</g>
<g id="#9a3c17c7">
<path fill="#9a3c17" opacity="0.78" d=" M 287.23 1031.78 C 288.29 1031.91 288.94 1032.54 289.19 1033.67 C 287.53 1034.04 286.88 1033.40 287.23 1031.78 Z" />
</g>
<g id="#6d2a10a9">
<path fill="#6d2a10" opacity="0.66" d=" M 935.04 1071.98 C 935.46 1071.66 936.29 1071.01 936.70 1070.69 L 936.75 1071.61 L 935.89 1072.27 L 935.04 1071.98 Z" />
</g>
<g id="#7f3213b0">
<path fill="#7f3213" opacity="0.69" d=" M 390.81 1092.98 C 399.69 1094.85 408.40 1097.41 417.22 1099.51 C 429.69 1101.89 442.35 1103.15 455.00 1104.25 C 467.65 1104.86 480.32 1104.52 492.98 1104.61 C 598.33 1104.60 703.68 1104.62 809.02 1104.60 C 825.46 1104.53 841.82 1102.47 858.02 1099.82 C 867.43 1097.62 876.72 1094.89 886.19 1092.90 C 882.21 1095.26 877.42 1095.67 873.11 1097.17 C 856.97 1101.05 840.58 1104.17 823.97 1105.05 C 803.31 1106.27 782.60 1105.50 761.92 1105.72 C 672.29 1105.72 582.67 1105.72 493.04 1105.72 C 470.31 1105.82 447.39 1106.02 424.98 1101.70 C 415.38 1100.03 405.84 1097.95 396.49 1095.19 C 394.58 1094.51 392.32 1094.48 390.81 1092.98 Z" />
</g>
</svg>
