<?xml version="1.0" encoding="UTF-8" ?>
<!DOCTYPE svg PUBLIC "-//W3C//DTD SVG 1.1//EN" "http://www.w3.org/Graphics/SVG/1.1/DTD/svg11.dtd">
<svg width="1276pt" height="1276pt" viewBox="0 0 1276 1276" version="1.1" xmlns="http://www.w3.org/2000/svg">
<g id="#ead900ff">
<path fill="#ead900" opacity="1.00" d=" M 306.01 171.08 C 527.30 171.04 748.60 171.02 969.90 171.09 C 969.80 482.62 969.85 794.15 969.87 1105.68 C 748.61 1105.66 527.34 1105.63 306.07 1105.69 C 305.99 794.16 306.12 482.62 306.01 171.08 M 317.14 182.21 C 317.25 486.36 317.19 790.50 317.17 1094.65 C 531.06 1094.62 744.94 1094.61 958.82 1094.65 C 958.82 790.51 958.75 486.36 958.86 182.21 C 744.95 182.16 531.05 182.17 317.14 182.21 Z" />
<path fill="#ead900" opacity="1.00" d=" M 371.49 245.65 C 395.83 245.68 420.17 245.61 444.51 245.68 C 444.44 251.19 444.63 256.71 444.41 262.22 C 435.84 262.08 427.27 262.21 418.70 262.15 C 418.73 381.41 418.65 500.67 418.75 619.94 C 413.30 619.94 407.85 619.91 402.40 619.91 C 402.36 500.66 402.41 381.40 402.38 262.15 C 398.67 262.16 394.95 262.16 391.24 262.16 C 384.67 262.17 378.10 262.16 371.53 262.16 C 371.50 256.66 371.52 251.15 371.49 245.65 Z" />
<path fill="#ead900" opacity="1.00" d=" M 476.19 245.67 C 481.65 245.64 487.11 245.65 492.58 245.68 C 492.55 326.30 492.60 406.91 492.55 487.53 C 492.58 491.20 492.58 494.87 492.46 498.54 C 503.29 498.86 514.13 498.55 524.97 498.71 C 527.82 498.63 530.97 499.00 533.47 497.30 C 536.30 495.60 537.71 492.24 537.53 489.02 C 537.48 407.90 537.55 326.77 537.49 245.65 C 542.94 245.65 548.38 245.65 553.83 245.67 C 553.81 324.76 553.82 403.86 553.82 482.95 C 553.77 486.61 554.11 490.34 553.20 493.93 C 551.10 503.16 543.87 511.03 534.81 513.81 C 528.73 515.78 522.28 514.91 516.02 515.09 C 507.08 514.95 498.11 515.38 489.19 514.88 C 482.46 513.01 476.46 507.31 476.27 500.00 C 476.16 415.22 476.33 330.45 476.19 245.67 Z" />
<path fill="#ead900" opacity="1.00" d=" M 592.25 245.70 C 612.84 245.61 633.44 245.66 654.04 245.67 C 661.94 245.40 668.71 251.60 670.45 259.07 C 670.79 288.70 670.49 318.35 670.59 347.99 C 670.45 354.37 671.28 361.01 668.88 367.11 C 665.64 376.23 657.27 383.04 647.80 384.78 C 657.33 428.19 666.76 471.63 676.04 515.10 C 670.46 515.09 664.89 515.09 659.32 515.10 C 649.89 471.78 640.54 428.44 631.12 385.12 C 627.54 385.11 623.96 385.10 620.39 385.10 C 616.51 385.11 612.63 385.12 608.75 385.11 C 608.78 428.39 608.68 471.67 608.80 514.95 C 603.30 515.25 597.80 515.02 592.31 515.10 C 592.28 425.30 592.40 335.50 592.25 245.70 M 608.75 262.15 C 608.72 293.95 608.79 325.76 608.72 357.57 C 608.76 361.20 608.77 364.84 608.66 368.47 C 620.78 368.76 632.91 368.51 645.04 368.61 C 649.86 369.08 654.25 364.75 654.15 359.97 C 654.19 327.36 654.19 294.76 654.15 262.16 C 650.42 262.16 646.69 262.15 642.96 262.18 C 631.56 262.13 620.16 262.19 608.75 262.15 Z" />
<path fill="#ead900" opacity="1.00" d=" M 708.87 245.66 C 729.57 245.67 750.27 245.61 770.96 245.69 C 778.70 245.62 785.23 251.73 786.88 259.08 C 787.12 290.02 786.97 321.00 786.93 351.95 C 787.31 361.04 782.05 369.74 774.59 374.67 C 781.57 379.97 787.05 387.93 787.04 396.97 C 786.77 427.31 787.14 457.66 786.93 488.00 C 787.19 499.88 778.40 511.10 766.97 514.09 C 762.43 515.41 757.66 515.07 753.01 515.09 C 738.29 515.09 723.57 515.09 708.86 515.09 C 708.89 425.28 708.86 335.47 708.87 245.66 M 725.34 262.20 C 725.42 293.98 725.45 325.78 725.32 357.56 C 725.41 361.24 725.40 364.92 725.35 368.60 C 737.59 368.59 749.82 368.61 762.06 368.59 C 766.63 368.75 770.71 364.59 770.60 360.04 C 770.72 327.43 770.55 294.81 770.69 262.19 C 766.95 262.15 763.22 262.15 759.50 262.15 C 748.11 262.20 736.73 262.11 725.34 262.20 M 724.23 384.71 C 723.68 389.78 724.01 394.88 723.96 399.97 C 724.02 427.64 723.94 455.32 723.96 482.99 C 724.29 484.36 723.25 486.82 725.31 487.18 L 725.30 487.52 C 725.43 491.23 725.40 494.93 725.33 498.64 C 737.56 498.70 749.80 498.69 762.03 498.65 C 766.60 498.74 770.70 494.64 770.60 490.07 C 770.72 455.10 770.55 420.12 770.69 385.15 C 766.95 385.10 763.22 385.11 759.50 385.10 C 748.07 385.24 736.63 384.89 725.21 385.28 L 724.23 384.71 Z" />
<path fill="#ead900" opacity="1.00" d=" M 826.72 255.62 C 829.22 249.63 835.49 245.55 841.99 245.67 C 855.31 245.61 868.63 245.70 881.96 245.63 C 886.68 245.56 891.79 245.45 895.88 248.20 C 899.34 250.18 901.17 253.84 903.06 257.19 L 903.11 257.28 C 902.57 258.79 901.97 260.32 901.98 261.95 C 901.95 369.61 901.98 477.28 901.96 584.94 C 901.94 589.21 901.50 593.61 903.04 597.70 C 900.88 609.93 889.54 619.96 877.01 619.91 C 864.39 619.90 851.76 619.98 839.15 619.90 C 831.71 618.39 825.32 611.87 825.44 604.04 C 825.43 492.36 825.45 380.67 825.44 268.99 C 825.53 264.53 824.86 259.84 826.72 255.62 M 841.87 262.16 C 841.82 372.28 841.87 482.40 841.84 592.52 C 841.84 596.21 841.75 599.91 841.99 603.61 C 854.37 603.42 866.75 603.64 879.12 603.51 C 883.86 603.37 887.56 598.66 887.13 594.03 C 887.06 483.41 887.20 372.79 887.06 262.17 C 883.38 262.15 879.71 262.15 876.04 262.18 C 864.65 262.14 853.26 262.18 841.87 262.16 Z" />
<path fill="#ead900" opacity="1.00" d=" M 383.62 682.00 C 383.31 673.58 390.65 665.79 399.09 665.68 C 414.72 665.62 430.35 665.64 445.98 665.67 C 453.61 665.61 459.58 671.78 461.58 678.75 L 461.68 678.96 C 461.73 706.56 461.66 734.16 461.72 761.77 C 456.24 761.73 450.77 761.73 445.30 761.74 C 445.23 735.14 445.31 708.54 445.26 681.94 C 441.56 681.89 437.86 681.90 434.16 682.01 C 422.76 682.07 411.36 682.03 399.96 682.10 C 399.92 792.92 399.96 903.74 399.94 1014.56 C 399.92 1018.26 399.93 1021.97 400.00 1025.68 C 415.06 1025.73 430.12 1025.60 445.18 1025.75 C 445.41 967.38 445.19 908.99 445.29 850.62 C 441.58 850.58 437.88 850.59 434.17 850.65 C 434.11 845.17 434.19 839.69 434.11 834.21 C 443.30 834.16 452.50 834.19 461.70 834.19 C 461.72 903.51 461.65 972.84 461.73 1042.16 C 440.18 1042.09 418.61 1042.44 397.08 1041.99 C 392.60 1040.68 388.14 1038.26 385.84 1034.04 C 382.97 1029.56 383.66 1024.04 383.62 1019.00 C 383.63 906.67 383.64 794.33 383.62 682.00 Z" />
<path fill="#ead900" opacity="1.00" d=" M 825.44 770.04 C 825.50 735.22 825.33 700.39 825.52 665.57 C 830.96 665.70 836.41 665.63 841.86 665.67 C 841.88 709.15 841.78 752.64 841.90 796.11 C 847.14 805.01 853.44 813.33 858.93 822.12 C 860.78 824.88 862.59 827.66 864.34 830.50 C 871.18 820.59 877.55 810.37 884.44 800.49 C 885.71 798.55 887.41 796.58 887.14 794.09 C 887.05 751.28 887.21 708.48 887.06 665.67 C 892.54 665.63 898.03 665.63 903.52 665.68 C 903.50 709.12 903.52 752.55 903.51 795.98 C 903.31 800.65 900.92 804.83 899.00 808.98 C 892.16 822.69 883.95 835.66 875.95 848.72 C 882.42 858.55 888.40 868.71 894.18 878.97 C 897.30 884.91 900.92 890.79 902.73 897.28 C 901.50 902.44 902.04 907.76 901.97 913.01 C 901.89 956.07 902.12 999.13 901.87 1042.18 C 896.95 1042.19 892.04 1042.18 887.13 1042.19 C 887.12 997.44 887.10 952.69 887.13 907.95 C 886.98 904.75 887.87 901.11 885.65 898.43 C 878.38 887.96 871.54 877.21 864.40 866.65 C 862.60 869.46 860.77 872.24 858.93 875.02 C 853.42 883.77 847.22 892.11 841.91 900.95 C 841.79 948.03 841.86 995.11 841.87 1042.18 C 836.40 1042.20 830.93 1042.18 825.46 1042.19 C 825.41 997.46 825.46 952.72 825.43 907.99 C 825.50 903.94 824.95 899.71 826.51 895.87 C 829.80 887.45 834.37 879.61 838.84 871.78 C 843.43 864.02 847.97 856.22 852.99 848.73 C 846.14 837.59 839.21 826.50 833.01 814.99 C 830.21 809.46 826.93 803.99 825.60 797.88 C 825.19 788.61 825.56 779.32 825.44 770.04 Z" />
<path fill="#ead900" opacity="1.00" d=" M 500.03 772.70 C 520.35 772.65 540.67 772.70 560.99 772.68 C 564.87 772.61 568.81 773.68 571.91 776.08 C 574.94 778.31 576.60 781.84 578.07 785.22 C 578.07 785.50 578.05 786.06 578.04 786.34 C 577.53 787.85 576.88 789.37 576.89 791.01 C 576.85 821.35 576.99 851.69 576.84 882.04 C 576.79 883.96 577.44 885.80 578.01 887.63 C 577.29 899.55 567.21 909.77 555.57 911.82 C 565.14 955.25 574.44 998.75 583.90 1042.20 C 578.30 1042.18 572.70 1042.18 567.11 1042.19 C 557.65 998.85 548.28 955.49 538.89 912.14 C 535.32 912.10 531.76 912.09 528.19 912.10 C 524.26 912.15 520.33 912.00 516.40 912.18 L 515.22 912.28 C 514.62 955.57 515.34 998.89 514.84 1042.18 C 509.92 1042.19 505.01 1042.18 500.09 1042.19 C 500.04 952.36 500.16 862.53 500.03 772.70 M 515.28 788.78 C 514.62 801.51 515.17 814.28 515.02 827.04 C 515.17 846.38 514.63 865.75 515.27 885.08 C 515.55 884.74 516.13 884.07 516.42 883.74 C 516.41 883.96 516.41 884.39 516.41 884.61 C 516.56 888.24 516.54 891.88 516.35 895.53 C 528.56 895.94 540.80 895.63 553.02 895.69 C 557.67 895.89 562.10 891.75 561.83 887.02 C 561.88 854.41 561.77 821.81 561.89 789.20 C 558.20 789.15 554.51 789.15 550.82 789.18 C 539.31 789.27 527.79 788.93 516.30 789.35 L 515.28 788.78 Z" />
<path fill="#ead900" opacity="1.00" d=" M 625.57 774.55 C 629.37 772.45 633.83 772.64 638.03 772.66 C 651.66 772.76 665.30 772.57 678.94 772.74 C 686.61 772.73 693.00 778.88 694.67 786.13 C 694.81 871.47 694.63 956.81 694.76 1042.15 C 689.31 1042.23 683.86 1042.16 678.41 1042.19 C 678.38 998.83 678.40 955.47 678.40 912.11 C 674.68 912.10 670.96 912.10 667.24 912.11 C 655.87 912.13 644.49 912.08 633.12 912.14 C 633.22 955.49 633.13 998.84 633.16 1042.19 C 627.67 1042.19 622.18 1042.18 616.69 1042.19 C 616.62 958.12 616.68 874.04 616.66 789.97 C 616.39 783.67 619.87 777.34 625.57 774.55 M 633.11 789.20 C 633.19 820.99 633.22 852.78 633.09 884.57 C 633.18 888.28 633.16 891.99 633.12 895.71 C 648.26 895.61 663.40 895.94 678.53 895.54 C 678.19 860.07 678.56 824.60 678.34 789.13 C 674.64 789.18 670.94 789.17 667.24 789.17 C 655.86 789.18 644.49 789.13 633.11 789.20 Z" />
<path fill="#ead900" opacity="1.00" d=" M 733.21 788.94 C 733.01 780.44 740.52 772.77 749.01 772.74 C 763.91 772.59 778.81 772.72 793.71 772.69 C 793.71 778.16 793.66 783.63 793.76 789.11 C 779.05 789.24 764.34 789.13 749.63 789.16 C 749.62 820.97 749.65 852.78 749.62 884.59 C 749.64 888.25 749.63 891.91 749.52 895.58 C 761.94 895.89 774.36 895.62 786.77 895.72 C 786.75 901.18 786.76 906.64 786.78 912.10 C 774.40 912.12 762.02 912.11 749.64 912.10 C 749.67 955.43 749.55 998.76 749.70 1042.09 C 744.21 1042.31 738.71 1042.13 733.22 1042.19 C 733.20 957.77 733.21 873.36 733.21 788.94 Z" />
</g>
<g id="#ffffffff">
<path fill="#ffffff" opacity="1.00" d=" M 317.14 182.21 C 531.05 182.17 744.95 182.16 958.86 182.21 C 958.75 486.36 958.82 790.51 958.82 1094.65 C 744.94 1094.61 531.06 1094.62 317.17 1094.65 C 317.19 790.50 317.25 486.36 317.14 182.21 M 333.45 198.51 C 333.58 292.35 333.47 386.19 333.50 480.02 C 333.47 679.45 333.57 878.87 333.45 1078.29 C 536.48 1078.31 739.51 1078.31 942.55 1078.29 C 942.44 1048.53 942.53 1018.76 942.50 988.99 C 942.54 725.50 942.42 462.01 942.56 198.52 C 739.52 198.47 536.48 198.48 333.45 198.51 Z" />
<path fill="#ffffff" opacity="1.00" d=" M 360.54 262.21 C 360.38 253.02 360.55 243.82 360.44 234.62 C 388.47 234.62 416.49 234.64 444.52 234.62 C 444.50 238.30 444.50 241.99 444.51 245.68 C 420.17 245.61 395.83 245.68 371.49 245.65 C 371.52 251.15 371.50 256.66 371.53 262.16 C 367.86 262.16 364.20 262.14 360.54 262.21 Z" />
<path fill="#ffffff" opacity="1.00" d=" M 465.01 234.67 C 474.20 234.57 483.39 234.68 492.58 234.61 C 492.58 238.30 492.57 241.99 492.58 245.68 C 487.11 245.65 481.65 245.64 476.19 245.67 C 476.33 330.45 476.16 415.22 476.27 500.00 C 476.46 507.31 482.46 513.01 489.19 514.88 C 476.34 513.60 465.43 502.02 465.15 489.07 C 464.99 404.27 465.29 319.46 465.01 234.67 Z" />
<path fill="#ffffff" opacity="1.00" d=" M 526.42 487.50 C 526.32 403.19 526.36 318.88 526.40 234.57 C 535.57 234.72 544.75 234.54 553.93 234.67 C 553.76 238.33 553.82 242.00 553.83 245.67 C 548.38 245.65 542.94 245.65 537.49 245.65 C 537.55 326.77 537.48 407.90 537.53 489.02 C 537.71 492.24 536.30 495.60 533.47 497.30 C 530.97 499.00 527.82 498.63 524.97 498.71 C 514.13 498.55 503.29 498.86 492.46 498.54 C 492.58 494.87 492.58 491.20 492.55 487.53 C 503.84 487.51 515.13 487.57 526.42 487.50 Z" />
<path fill="#ffffff" opacity="1.00" d=" M 581.17 234.68 C 602.12 234.56 623.08 234.65 644.03 234.63 C 657.31 234.76 669.23 245.87 670.45 259.07 C 668.71 251.60 661.94 245.40 654.04 245.67 C 633.44 245.66 612.84 245.61 592.25 245.70 C 592.40 335.50 592.28 425.30 592.31 515.10 C 588.68 515.08 585.05 515.05 581.43 515.18 C 581.01 421.69 581.52 328.18 581.17 234.68 Z" />
<path fill="#ffffff" opacity="1.00" d=" M 697.83 234.63 C 718.89 234.64 739.95 234.59 761.01 234.65 C 774.07 235.05 785.75 246.06 786.88 259.08 C 785.23 251.73 778.70 245.62 770.96 245.69 C 750.27 245.61 729.57 245.67 708.87 245.66 C 708.86 335.47 708.89 425.28 708.86 515.09 C 705.18 515.09 701.51 515.09 697.85 515.10 C 697.83 421.61 697.87 328.12 697.83 234.63 Z" />
<path fill="#ffffff" opacity="1.00" d=" M 814.33 261.93 C 814.03 247.95 826.03 235.22 840.00 234.67 C 852.32 234.58 864.64 234.65 876.96 234.63 C 889.53 234.77 901.13 244.76 903.06 257.19 C 901.17 253.84 899.34 250.18 895.88 248.20 C 891.79 245.45 886.68 245.56 881.96 245.63 C 868.63 245.70 855.31 245.61 841.99 245.67 C 835.49 245.55 829.22 249.63 826.72 255.62 C 824.86 259.84 825.53 264.53 825.44 268.99 C 825.45 380.67 825.43 492.36 825.44 604.04 C 825.32 611.87 831.71 618.39 839.15 619.90 C 825.58 618.90 814.14 606.48 814.33 592.86 C 814.29 482.55 814.29 372.24 814.33 261.93 Z" />
<path fill="#ffffff" opacity="1.00" d=" M 391.24 262.16 C 394.95 262.16 398.67 262.16 402.38 262.15 C 402.41 381.40 402.36 500.66 402.40 619.91 C 398.66 619.91 394.92 619.99 391.18 619.88 C 391.33 500.64 391.21 381.40 391.24 262.16 Z" />
<path fill="#ffffff" opacity="1.00" d=" M 642.96 262.18 C 646.69 262.15 650.42 262.16 654.15 262.16 C 654.19 294.76 654.19 327.36 654.15 359.97 C 654.25 364.75 649.86 369.08 645.04 368.61 C 632.91 368.51 620.78 368.76 608.66 368.47 C 608.77 364.84 608.76 361.20 608.72 357.57 C 620.13 357.57 631.54 357.56 642.95 357.57 C 642.93 325.78 642.91 293.98 642.96 262.18 Z" />
<path fill="#ffffff" opacity="1.00" d=" M 759.50 262.15 C 763.22 262.15 766.95 262.15 770.69 262.19 C 770.55 294.81 770.72 327.43 770.60 360.04 C 770.71 364.59 766.63 368.75 762.06 368.59 C 749.82 368.61 737.59 368.59 725.35 368.60 C 725.40 364.92 725.41 361.24 725.32 357.56 C 736.74 357.55 748.15 357.61 759.56 357.53 C 759.41 325.74 759.54 293.94 759.50 262.15 Z" />
<path fill="#ffffff" opacity="1.00" d=" M 876.04 262.18 C 879.71 262.15 883.38 262.15 887.06 262.17 C 887.20 372.79 887.06 483.41 887.13 594.03 C 887.56 598.66 883.86 603.37 879.12 603.51 C 866.75 603.64 854.37 603.42 841.99 603.61 C 841.75 599.91 841.84 596.21 841.84 592.52 C 853.26 592.46 864.68 592.60 876.10 592.44 C 875.99 482.36 876.11 372.27 876.04 262.18 Z" />
<path fill="#ffffff" opacity="1.00" d=" M 620.39 385.10 C 623.96 385.10 627.54 385.11 631.12 385.12 C 640.54 428.44 649.89 471.78 659.32 515.10 C 655.78 515.08 652.25 515.05 648.72 515.16 C 639.03 471.87 629.89 428.45 620.39 385.10 Z" />
<path fill="#ffffff" opacity="1.00" d=" M 759.50 385.10 C 763.22 385.11 766.95 385.10 770.69 385.15 C 770.55 420.12 770.72 455.10 770.60 490.07 C 770.70 494.64 766.60 498.74 762.03 498.65 C 749.80 498.69 737.56 498.70 725.33 498.64 C 725.40 494.93 725.43 491.23 725.30 487.52 C 736.72 487.52 748.13 487.55 759.55 487.51 C 759.43 453.37 759.53 419.24 759.50 385.10 Z" />
<path fill="#ffffff" opacity="1.00" d=" M 525.63 562.77 C 540.19 553.25 557.55 548.08 574.95 548.18 C 615.99 548.17 657.02 548.15 698.06 548.19 C 718.93 548.18 739.64 555.89 755.56 569.34 C 767.23 579.08 776.36 591.84 781.83 606.02 C 789.82 626.65 789.80 650.27 781.78 670.89 C 774.96 688.62 762.32 703.99 746.36 714.26 C 734.23 722.13 720.18 726.87 705.82 728.35 C 683.23 729.07 660.62 728.48 638.02 728.67 C 614.12 728.48 590.20 729.07 566.31 728.35 C 550.27 726.62 534.64 720.86 521.63 711.28 C 505.75 699.75 493.77 682.93 488.23 664.10 C 482.39 644.56 483.44 623.03 491.23 604.19 C 498.13 587.31 510.35 572.69 525.63 562.77 M 574.35 556.50 C 548.36 556.42 522.89 569.72 507.97 590.97 C 496.46 607.04 491.12 627.39 493.32 647.04 C 495.04 664.30 502.57 680.90 514.31 693.66 C 527.36 708.01 545.67 717.49 564.95 719.69 C 572.26 720.67 579.65 720.22 587.00 720.32 C 623.98 720.32 660.96 720.33 697.94 720.32 C 716.37 720.25 734.71 713.77 749.01 702.13 C 761.41 692.20 770.75 678.53 775.59 663.42 C 781.00 646.52 780.76 627.85 774.82 611.12 C 769.06 594.69 757.86 580.25 743.42 570.54 C 729.87 561.29 713.46 556.41 697.07 556.49 C 656.17 556.47 615.26 556.45 574.35 556.50 Z" />
<path fill="#ffffff" opacity="1.00" d=" M 375.53 669.40 C 380.05 660.38 389.90 654.39 399.99 654.52 C 411.98 654.56 423.97 654.43 435.95 654.58 C 448.88 655.09 460.21 665.98 461.58 678.75 C 459.58 671.78 453.61 665.61 445.98 665.67 C 430.35 665.64 414.72 665.62 399.09 665.68 C 390.65 665.79 383.31 673.58 383.62 682.00 C 383.64 794.33 383.63 906.67 383.62 1019.00 C 383.66 1024.04 382.97 1029.56 385.84 1034.04 C 388.14 1038.26 392.60 1040.68 397.08 1041.99 C 386.79 1041.03 377.50 1033.68 374.09 1023.95 C 371.77 1017.88 372.65 1011.31 372.49 1004.98 C 372.48 897.99 372.50 791.01 372.47 684.02 C 372.29 678.99 373.16 673.87 375.53 669.40 Z" />
<path fill="#ffffff" opacity="1.00" d=" M 814.42 797.02 C 814.38 749.51 814.42 702.00 814.40 654.49 C 823.59 654.59 832.79 654.42 841.98 654.58 C 841.78 658.27 841.84 661.97 841.86 665.67 C 836.41 665.63 830.96 665.70 825.52 665.57 C 825.33 700.39 825.50 735.22 825.44 770.04 C 825.56 779.32 825.19 788.61 825.60 797.88 C 826.93 803.99 830.21 809.46 833.01 814.99 C 839.21 826.50 846.14 837.59 852.99 848.73 C 847.97 856.22 843.43 864.02 838.84 871.78 C 834.37 879.61 829.80 887.45 826.51 895.87 C 824.95 899.71 825.50 903.94 825.43 907.99 C 825.46 952.72 825.41 997.46 825.46 1042.19 C 821.79 1042.18 818.14 1042.15 814.49 1042.26 C 814.30 994.88 814.44 947.49 814.42 900.11 C 815.51 893.35 819.35 887.42 822.34 881.38 C 828.47 870.23 835.02 859.31 841.90 848.62 C 835.47 838.44 829.20 828.16 823.36 817.63 C 820.00 810.97 815.67 804.46 814.42 797.02 Z" />
<path fill="#ffffff" opacity="1.00" d=" M 875.95 654.54 C 885.16 654.50 894.37 654.49 903.59 654.55 C 903.48 658.26 903.51 661.97 903.52 665.68 C 898.03 665.63 892.54 665.63 887.06 665.67 C 887.21 708.48 887.05 751.28 887.14 794.09 C 887.41 796.58 885.71 798.55 884.44 800.49 C 877.55 810.37 871.18 820.59 864.34 830.50 C 862.59 827.66 860.78 824.88 858.93 822.12 C 864.41 813.33 870.65 804.97 876.00 796.12 C 876.07 748.93 876.16 701.73 875.95 654.54 Z" />
<path fill="#ffffff" opacity="1.00" d=" M 434.16 682.01 C 437.86 681.90 441.56 681.89 445.26 681.94 C 445.31 708.54 445.23 735.14 445.30 761.74 C 441.57 761.73 437.85 761.73 434.13 761.75 C 434.18 735.17 434.13 708.59 434.16 682.01 Z" />
<path fill="#ffffff" opacity="1.00" d=" M 488.92 761.66 C 509.95 761.62 530.99 761.61 552.02 761.66 C 564.88 761.95 576.49 772.45 578.07 785.22 C 576.60 781.84 574.94 778.31 571.91 776.08 C 568.81 773.68 564.87 772.61 560.99 772.68 C 540.67 772.70 520.35 772.65 500.03 772.70 C 500.16 862.53 500.04 952.36 500.09 1042.19 C 496.36 1042.18 492.64 1042.19 488.92 1042.18 C 489.00 948.67 489.12 855.17 488.92 761.66 Z" />
<path fill="#ffffff" opacity="1.00" d=" M 607.09 780.13 C 610.59 769.60 620.99 761.89 632.09 761.65 C 644.38 761.64 656.69 761.58 668.98 761.68 C 681.98 762.20 693.52 773.17 694.67 786.13 C 693.00 778.88 686.61 772.73 678.94 772.74 C 665.30 772.57 651.66 772.76 638.03 772.66 C 633.83 772.64 629.37 772.45 625.57 774.55 C 619.87 777.34 616.39 783.67 616.66 789.97 C 616.68 874.04 616.62 958.12 616.69 1042.19 C 612.99 1042.18 609.30 1042.18 605.61 1042.20 C 605.63 960.47 605.61 878.74 605.62 797.01 C 605.69 791.36 605.08 785.53 607.09 780.13 Z" />
<path fill="#ffffff" opacity="1.00" d=" M 741.26 763.18 C 746.94 761.11 753.06 761.70 758.99 761.64 C 770.58 761.65 782.18 761.59 793.78 761.67 C 793.66 765.34 793.70 769.01 793.71 772.69 C 778.81 772.72 763.91 772.59 749.01 772.74 C 740.52 772.77 733.01 780.44 733.21 788.94 C 733.21 873.36 733.20 957.77 733.22 1042.19 C 729.53 1042.18 725.84 1042.18 722.15 1042.19 C 722.22 957.46 722.16 872.72 722.18 787.99 C 722.32 776.73 730.70 766.56 741.26 763.18 Z" />
<path fill="#ffffff" opacity="1.00" d=" M 550.82 789.18 C 554.51 789.15 558.20 789.15 561.89 789.20 C 561.77 821.81 561.88 854.41 561.83 887.02 C 562.10 891.75 557.67 895.89 553.02 895.69 C 540.80 895.63 528.56 895.94 516.35 895.53 C 516.54 891.88 516.56 888.24 516.41 884.61 C 527.88 884.54 539.36 884.59 550.84 884.58 C 550.75 852.78 550.80 820.98 550.82 789.18 Z" />
<path fill="#ffffff" opacity="1.00" d=" M 667.24 789.17 C 670.94 789.17 674.64 789.18 678.34 789.13 C 678.56 824.60 678.19 860.07 678.53 895.54 C 663.40 895.94 648.26 895.61 633.12 895.71 C 633.16 891.99 633.18 888.28 633.09 884.57 C 644.49 884.57 655.88 884.59 667.28 884.57 C 667.21 852.77 667.28 820.97 667.24 789.17 Z" />
<path fill="#ffffff" opacity="1.00" d=" M 423.08 823.17 C 435.97 823.17 448.86 823.12 461.75 823.20 C 461.68 826.86 461.69 830.52 461.70 834.19 C 452.50 834.19 443.30 834.16 434.11 834.21 C 434.19 839.69 434.11 845.17 434.17 850.65 C 437.88 850.59 441.58 850.58 445.29 850.62 C 445.19 908.99 445.41 967.38 445.18 1025.75 C 430.12 1025.60 415.06 1025.73 400.00 1025.68 C 399.93 1021.97 399.92 1018.26 399.94 1014.56 C 411.36 1014.50 422.79 1014.67 434.21 1014.48 C 434.06 959.85 434.22 905.23 434.13 850.61 C 430.45 850.59 426.77 850.58 423.10 850.63 C 423.09 841.48 423.14 832.32 423.08 823.17 Z" />
<path fill="#ffffff" opacity="1.00" d=" M 864.40 866.65 C 871.54 877.21 878.38 887.96 885.65 898.43 C 887.87 901.11 886.98 904.75 887.13 907.95 C 887.10 952.69 887.12 997.44 887.13 1042.19 C 883.39 1042.18 879.67 1042.19 875.95 1042.18 C 876.16 995.10 876.07 948.00 875.99 900.91 C 870.55 892.14 864.44 883.76 858.93 875.02 C 860.77 872.24 862.60 869.46 864.40 866.65 Z" />
<path fill="#ffffff" opacity="1.00" d=" M 749.62 884.59 C 762.03 884.59 774.44 884.52 786.86 884.62 C 786.72 888.32 786.76 892.02 786.77 895.72 C 774.36 895.62 761.94 895.89 749.52 895.58 C 749.63 891.91 749.64 888.25 749.62 884.59 Z" />
<path fill="#ffffff" opacity="1.00" d=" M 528.19 912.10 C 531.76 912.09 535.32 912.10 538.89 912.14 C 548.28 955.49 557.65 998.85 567.11 1042.19 C 563.57 1042.18 560.03 1042.15 556.51 1042.27 C 546.82 998.94 537.60 955.50 528.19 912.10 Z" />
<path fill="#ffffff" opacity="1.00" d=" M 667.24 912.11 C 670.96 912.10 674.68 912.10 678.40 912.11 C 678.40 955.47 678.38 998.83 678.41 1042.19 C 674.68 1042.18 670.95 1042.19 667.23 1042.19 C 667.28 998.83 667.24 955.47 667.24 912.11 Z" />
</g>
<g id="#000000ff">
<path fill="#000000" opacity="1.00" d=" M 333.45 198.51 C 536.48 198.48 739.52 198.47 942.56 198.52 C 942.42 462.01 942.54 725.50 942.50 988.99 C 942.53 1018.76 942.44 1048.53 942.55 1078.29 C 739.51 1078.31 536.48 1078.31 333.45 1078.29 C 333.57 878.87 333.47 679.45 333.50 480.02 C 333.47 386.19 333.58 292.35 333.45 198.51 M 360.54 262.21 C 364.20 262.14 367.86 262.16 371.53 262.16 C 378.10 262.16 384.67 262.17 391.24 262.16 C 391.21 381.40 391.33 500.64 391.18 619.88 C 394.92 619.99 398.66 619.91 402.40 619.91 C 407.85 619.91 413.30 619.94 418.75 619.94 C 418.65 500.67 418.73 381.41 418.70 262.15 C 427.27 262.21 435.84 262.08 444.41 262.22 C 444.63 256.71 444.44 251.19 444.51 245.68 C 444.50 241.99 444.50 238.30 444.52 234.62 C 416.49 234.64 388.47 234.62 360.44 234.62 C 360.55 243.82 360.38 253.02 360.54 262.21 M 465.01 234.67 C 465.29 319.46 464.99 404.27 465.15 489.07 C 465.43 502.02 476.34 513.60 489.19 514.88 C 498.11 515.38 507.08 514.95 516.02 515.09 C 522.28 514.91 528.73 515.78 534.81 513.81 C 543.87 511.03 551.10 503.16 553.20 493.93 C 554.11 490.34 553.77 486.61 553.82 482.95 C 553.82 403.86 553.81 324.76 553.83 245.67 C 553.82 242.00 553.76 238.33 553.93 234.67 C 544.75 234.54 535.57 234.72 526.40 234.57 C 526.36 318.88 526.32 403.19 526.42 487.50 C 515.13 487.57 503.84 487.51 492.55 487.53 C 492.60 406.91 492.55 326.30 492.58 245.68 C 492.57 241.99 492.58 238.30 492.58 234.61 C 483.39 234.68 474.20 234.57 465.01 234.67 M 581.17 234.68 C 581.52 328.18 581.01 421.69 581.43 515.18 C 585.05 515.05 588.68 515.08 592.31 515.10 C 597.80 515.02 603.30 515.25 608.80 514.95 C 608.68 471.67 608.78 428.39 608.75 385.11 C 612.63 385.12 616.51 385.11 620.39 385.10 C 629.89 428.45 639.03 471.87 648.72 515.16 C 652.25 515.05 655.78 515.08 659.32 515.10 C 664.89 515.09 670.46 515.09 676.04 515.10 C 666.76 471.63 657.33 428.19 647.80 384.78 C 657.27 383.04 665.64 376.23 668.88 367.11 C 671.28 361.01 670.45 354.37 670.59 347.99 C 670.49 318.35 670.79 288.70 670.45 259.07 C 669.23 245.87 657.31 234.76 644.03 234.63 C 623.08 234.65 602.12 234.56 581.17 234.68 M 697.83 234.63 C 697.87 328.12 697.83 421.61 697.85 515.10 C 701.51 515.09 705.18 515.09 708.86 515.09 C 723.57 515.09 738.29 515.09 753.01 515.09 C 757.66 515.07 762.43 515.41 766.97 514.09 C 778.40 511.10 787.19 499.88 786.93 488.00 C 787.14 457.66 786.77 427.31 787.04 396.97 C 787.05 387.93 781.57 379.97 774.59 374.67 C 782.05 369.74 787.31 361.04 786.93 351.95 C 786.97 321.00 787.12 290.02 786.88 259.08 C 785.75 246.06 774.07 235.05 761.01 234.65 C 739.95 234.59 718.89 234.64 697.83 234.63 M 814.33 261.93 C 814.29 372.24 814.29 482.55 814.33 592.86 C 814.14 606.48 825.58 618.90 839.15 619.90 C 851.76 619.98 864.39 619.90 877.01 619.91 C 889.54 619.96 900.88 609.93 903.04 597.70 C 903.98 584.50 903.21 571.22 903.46 557.99 C 903.46 461.65 903.46 365.32 903.46 268.98 C 903.45 265.08 903.61 261.16 903.11 257.28 L 903.06 257.19 C 901.13 244.76 889.53 234.77 876.96 234.63 C 864.64 234.65 852.32 234.58 840.00 234.67 C 826.03 235.22 814.03 247.95 814.33 261.93 M 560.60 540.84 C 536.09 544.29 513.20 557.49 497.79 576.84 C 484.42 593.48 476.58 614.57 476.24 635.94 C 475.69 653.22 479.94 670.59 488.28 685.73 C 504.57 715.92 537.53 736.37 571.91 736.87 C 609.94 736.95 647.97 736.88 686.00 736.91 C 695.05 736.83 704.18 737.31 713.15 735.74 C 735.40 732.27 756.23 720.78 771.16 703.95 C 790.36 682.71 799.39 652.81 795.20 624.48 C 792.00 601.64 780.41 580.11 763.13 564.85 C 749.19 552.31 731.56 543.95 713.04 541.04 C 702.77 539.34 692.33 539.85 681.96 539.78 C 651.32 539.78 620.69 539.78 590.05 539.78 C 580.23 539.86 570.35 539.37 560.60 540.84 M 375.53 669.40 C 373.16 673.87 372.29 678.99 372.47 684.02 C 372.50 791.01 372.48 897.99 372.49 1004.98 C 372.65 1011.31 371.77 1017.88 374.09 1023.95 C 377.50 1033.68 386.79 1041.03 397.08 1041.99 C 418.61 1042.44 440.18 1042.09 461.73 1042.16 C 461.65 972.84 461.72 903.51 461.70 834.19 C 461.69 830.52 461.68 826.86 461.75 823.20 C 448.86 823.12 435.97 823.17 423.08 823.17 C 423.14 832.32 423.09 841.48 423.10 850.63 C 426.77 850.58 430.45 850.59 434.13 850.61 C 434.22 905.23 434.06 959.85 434.21 1014.48 C 422.79 1014.67 411.36 1014.50 399.94 1014.56 C 399.96 903.74 399.92 792.92 399.96 682.10 C 411.36 682.03 422.76 682.07 434.16 682.01 C 434.13 708.59 434.18 735.17 434.13 761.75 C 437.85 761.73 441.57 761.73 445.30 761.74 C 450.77 761.73 456.24 761.73 461.72 761.77 C 461.66 734.16 461.73 706.56 461.68 678.96 L 461.58 678.75 C 460.21 665.98 448.88 655.09 435.95 654.58 C 423.97 654.43 411.98 654.56 399.99 654.52 C 389.90 654.39 380.05 660.38 375.53 669.40 M 814.42 797.02 C 815.67 804.46 820.00 810.97 823.36 817.63 C 829.20 828.16 835.47 838.44 841.90 848.62 C 835.02 859.31 828.47 870.23 822.34 881.38 C 819.35 887.42 815.51 893.35 814.42 900.11 C 814.44 947.49 814.30 994.88 814.49 1042.26 C 818.14 1042.15 821.79 1042.18 825.46 1042.19 C 830.93 1042.18 836.40 1042.20 841.87 1042.18 C 841.86 995.11 841.79 948.03 841.91 900.95 C 847.22 892.11 853.42 883.77 858.93 875.02 C 864.44 883.76 870.55 892.14 875.99 900.91 C 876.07 948.00 876.16 995.10 875.95 1042.18 C 879.67 1042.19 883.39 1042.18 887.13 1042.19 C 892.04 1042.18 896.95 1042.19 901.87 1042.18 L 903.47 1042.21 C 903.46 996.83 903.46 951.44 903.47 906.05 C 903.41 903.12 903.81 900.08 902.73 897.28 C 900.92 890.79 897.30 884.91 894.18 878.97 C 888.40 868.71 882.42 858.55 875.95 848.72 C 883.95 835.66 892.16 822.69 899.00 808.98 C 900.92 804.83 903.31 800.65 903.51 795.98 C 903.52 752.55 903.50 709.12 903.52 665.68 C 903.51 661.97 903.48 658.26 903.59 654.55 C 894.37 654.49 885.16 654.50 875.95 654.54 C 876.16 701.73 876.07 748.93 876.00 796.12 C 870.65 804.97 864.41 813.33 858.93 822.12 C 853.44 813.33 847.14 805.01 841.90 796.11 C 841.78 752.64 841.88 709.15 841.86 665.67 C 841.84 661.97 841.78 658.27 841.98 654.58 C 832.79 654.42 823.59 654.59 814.40 654.49 C 814.42 702.00 814.38 749.51 814.42 797.02 M 488.92 761.66 C 489.12 855.17 489.00 948.67 488.92 1042.18 C 492.64 1042.19 496.36 1042.18 500.09 1042.19 C 505.01 1042.18 509.92 1042.19 514.84 1042.18 L 516.45 1042.21 C 516.41 998.87 516.51 955.53 516.40 912.18 C 520.33 912.00 524.26 912.15 528.19 912.10 C 537.60 955.50 546.82 998.94 556.51 1042.27 C 560.03 1042.15 563.57 1042.18 567.11 1042.19 C 572.70 1042.18 578.30 1042.18 583.90 1042.20 C 574.44 998.75 565.14 955.25 555.57 911.82 C 567.21 909.77 577.29 899.55 578.01 887.63 C 578.72 872.77 578.12 857.85 578.31 842.98 C 578.14 824.10 578.67 805.20 578.04 786.34 C 578.05 786.06 578.07 785.50 578.07 785.22 C 576.49 772.45 564.88 761.95 552.02 761.66 C 530.99 761.61 509.95 761.62 488.92 761.66 M 607.09 780.13 C 605.08 785.53 605.69 791.36 605.62 797.01 C 605.61 878.74 605.63 960.47 605.61 1042.20 C 609.30 1042.18 612.99 1042.18 616.69 1042.19 C 622.18 1042.18 627.67 1042.19 633.16 1042.19 C 633.13 998.84 633.22 955.49 633.12 912.14 C 644.49 912.08 655.87 912.13 667.24 912.11 C 667.24 955.47 667.28 998.83 667.23 1042.19 C 670.95 1042.19 674.68 1042.18 678.41 1042.19 C 683.86 1042.16 689.31 1042.23 694.76 1042.15 C 694.63 956.81 694.81 871.47 694.67 786.13 C 693.52 773.17 681.98 762.20 668.98 761.68 C 656.69 761.58 644.38 761.64 632.09 761.65 C 620.99 761.89 610.59 769.60 607.09 780.13 M 741.26 763.18 C 730.70 766.56 722.32 776.73 722.18 787.99 C 722.16 872.72 722.22 957.46 722.15 1042.19 C 725.84 1042.18 729.53 1042.18 733.22 1042.19 C 738.71 1042.13 744.21 1042.31 749.70 1042.09 C 749.55 998.76 749.67 955.43 749.64 912.10 C 762.02 912.11 774.40 912.12 786.78 912.10 C 786.76 906.64 786.75 901.18 786.77 895.72 C 786.76 892.02 786.72 888.32 786.86 884.62 C 774.44 884.52 762.03 884.59 749.62 884.59 C 749.65 852.78 749.62 820.97 749.63 789.16 C 764.34 789.13 779.05 789.24 793.76 789.11 C 793.66 783.63 793.71 778.16 793.71 772.69 C 793.70 769.01 793.66 765.34 793.78 761.67 C 782.18 761.59 770.58 761.65 758.99 761.64 C 753.06 761.70 746.94 761.11 741.26 763.18 Z" />
<path fill="#000000" opacity="1.00" d=" M 608.75 262.15 C 620.16 262.19 631.56 262.13 642.96 262.18 C 642.91 293.98 642.93 325.78 642.95 357.57 C 631.54 357.56 620.13 357.57 608.72 357.57 C 608.79 325.76 608.72 293.95 608.75 262.15 Z" />
<path fill="#000000" opacity="1.00" d=" M 725.34 262.20 C 736.73 262.11 748.11 262.20 759.50 262.15 C 759.54 293.94 759.41 325.74 759.56 357.53 C 748.15 357.61 736.74 357.55 725.32 357.56 C 725.45 325.78 725.42 293.98 725.34 262.20 Z" />
<path fill="#000000" opacity="1.00" d=" M 841.87 262.16 C 853.26 262.18 864.65 262.14 876.04 262.18 C 876.11 372.27 875.99 482.36 876.10 592.44 C 864.68 592.60 853.26 592.46 841.84 592.52 C 841.87 482.40 841.82 372.28 841.87 262.16 Z" />
<path fill="#000000" opacity="1.00" d=" M 725.21 385.28 C 736.63 384.89 748.07 385.24 759.50 385.10 C 759.53 419.24 759.43 453.37 759.55 487.51 C 748.13 487.55 736.72 487.52 725.30 487.52 L 725.31 487.18 C 725.32 453.21 725.52 419.24 725.21 385.28 Z" />
<path fill="#000000" opacity="1.00" d=" M 574.35 556.50 C 615.26 556.45 656.17 556.47 697.07 556.49 C 713.46 556.41 729.87 561.29 743.42 570.54 C 757.86 580.25 769.06 594.69 774.82 611.12 C 780.76 627.85 781.00 646.52 775.59 663.42 C 770.75 678.53 761.41 692.20 749.01 702.13 C 734.71 713.77 716.37 720.25 697.94 720.32 C 660.96 720.33 623.98 720.32 587.00 720.32 C 579.65 720.22 572.26 720.67 564.95 719.69 C 545.67 717.49 527.36 708.01 514.31 693.66 C 502.57 680.90 495.04 664.30 493.32 647.04 C 491.12 627.39 496.46 607.04 507.97 590.97 C 522.89 569.72 548.36 556.42 574.35 556.50 M 544.14 581.27 C 544.15 586.20 544.18 591.13 544.14 596.07 C 548.71 596.15 553.29 596.08 557.87 596.14 C 557.79 624.38 557.80 652.62 557.87 680.86 C 553.29 680.90 548.72 680.88 544.15 680.89 C 544.17 685.83 544.17 690.78 544.13 695.73 C 558.46 695.77 572.78 695.63 587.11 695.80 C 587.38 690.83 587.18 685.86 587.24 680.89 C 582.62 680.87 578.01 680.93 573.41 680.82 C 573.61 647.68 573.29 614.53 573.57 581.39 C 563.76 581.12 553.95 581.35 544.14 581.27 M 616.10 581.99 C 612.88 585.15 609.68 588.35 606.52 591.57 C 605.25 592.64 605.85 594.50 605.68 595.94 C 605.80 625.33 605.61 654.73 605.78 684.11 C 608.71 688.41 613.06 692.13 616.98 695.66 C 650.31 695.77 683.65 695.78 716.98 695.65 C 721.01 692.56 724.43 688.52 728.04 684.90 C 728.67 670.69 728.18 656.33 728.28 642.06 C 724.53 638.46 720.97 634.67 717.19 631.11 C 684.98 631.25 652.76 631.13 620.55 631.17 C 620.57 619.48 620.56 607.80 620.56 596.11 C 651.53 596.10 682.50 596.13 713.47 596.10 C 713.50 600.66 713.49 605.21 713.44 609.77 C 718.39 609.82 723.35 609.75 728.31 609.83 C 728.27 604.17 728.42 598.52 728.27 592.87 C 726.33 589.60 722.95 587.37 720.47 584.48 C 719.08 583.39 718.07 581.25 716.11 581.28 C 684.05 581.25 651.99 581.32 619.93 581.24 C 618.65 581.37 617.06 580.89 616.10 581.99 Z" />
<path fill="#000000" opacity="1.00" d=" M 620.55 645.84 C 651.50 645.80 682.46 645.88 713.42 645.80 C 713.59 657.47 713.37 669.15 713.53 680.83 C 682.54 680.97 651.55 680.85 620.56 680.88 C 620.56 669.20 620.57 657.52 620.55 645.84 Z" />
<path fill="#000000" opacity="1.00" d=" M 516.30 789.35 C 527.79 788.93 539.31 789.27 550.82 789.18 C 550.80 820.98 550.75 852.78 550.84 884.58 C 539.36 884.59 527.88 884.54 516.41 884.61 C 516.41 884.39 516.41 883.96 516.42 883.74 C 516.39 852.28 516.62 820.80 516.30 789.35 Z" />
<path fill="#000000" opacity="1.00" d=" M 633.11 789.20 C 644.49 789.13 655.86 789.18 667.24 789.17 C 667.28 820.97 667.21 852.77 667.28 884.57 C 655.88 884.59 644.49 884.57 633.09 884.57 C 633.22 852.78 633.19 820.99 633.11 789.20 Z" />
</g>
<g id="#fff500ff">
<path fill="#fff500" opacity="1.00" d=" M 901.98 261.95 C 901.97 260.32 902.57 258.79 903.11 257.28 C 903.61 261.16 903.45 265.08 903.46 268.98 C 903.46 365.32 903.46 461.65 903.46 557.99 C 903.21 571.22 903.98 584.50 903.04 597.70 C 901.50 593.61 901.94 589.21 901.96 584.94 C 901.98 477.28 901.95 369.61 901.98 261.95 Z" />
<path fill="#fff500" opacity="1.00" d=" M 901.97 913.01 C 902.04 907.76 901.50 902.44 902.73 897.28 C 903.81 900.08 903.41 903.12 903.47 906.05 C 903.46 951.44 903.46 996.83 903.47 1042.21 L 901.87 1042.18 C 902.12 999.13 901.89 956.07 901.97 913.01 Z" />
</g>
<g id="#fff200ff">
<path fill="#fff200" opacity="1.00" d=" M 724.23 384.71 L 725.21 385.28 C 725.52 419.24 725.32 453.21 725.31 487.18 C 723.25 486.82 724.29 484.36 723.96 482.99 C 723.94 455.32 724.02 427.64 723.96 399.97 C 724.01 394.88 723.68 389.78 724.23 384.71 Z" />
</g>
<g id="#ff6427ff">
<path fill="#ff6427" opacity="1.00" d=" M 560.60 540.84 C 570.35 539.37 580.23 539.86 590.05 539.78 C 620.69 539.78 651.32 539.78 681.96 539.78 C 692.33 539.85 702.77 539.34 713.04 541.04 C 731.56 543.95 749.19 552.31 763.13 564.85 C 780.41 580.11 792.00 601.64 795.20 624.48 C 799.39 652.81 790.36 682.71 771.16 703.95 C 756.23 720.78 735.40 732.27 713.15 735.74 C 704.18 737.31 695.05 736.83 686.00 736.91 C 647.97 736.88 609.94 736.95 571.91 736.87 C 537.53 736.37 504.57 715.92 488.28 685.73 C 479.94 670.59 475.69 653.22 476.24 635.94 C 476.58 614.57 484.42 593.48 497.79 576.84 C 513.20 557.49 536.09 544.29 560.60 540.84 M 525.63 562.77 C 510.35 572.69 498.13 587.31 491.23 604.19 C 483.44 623.03 482.39 644.56 488.23 664.10 C 493.77 682.93 505.75 699.75 521.63 711.28 C 534.64 720.86 550.27 726.62 566.31 728.35 C 565.66 728.59 564.38 729.06 563.74 729.30 C 565.11 729.70 566.50 730.08 567.95 730.13 C 613.33 730.04 658.72 730.04 704.10 730.12 C 705.75 730.05 707.40 729.84 709.05 729.63 C 707.98 729.16 706.90 728.73 705.82 728.35 C 720.18 726.87 734.23 722.13 746.36 714.26 C 762.32 703.99 774.96 688.62 781.78 670.89 C 789.80 650.27 789.82 626.65 781.83 606.02 C 776.36 591.84 767.23 579.08 755.56 569.34 C 739.64 555.89 718.93 548.18 698.06 548.19 C 657.02 548.15 615.99 548.17 574.95 548.18 C 557.55 548.08 540.19 553.25 525.63 562.77 Z" />
<path fill="#ff6427" opacity="1.00" d=" M 544.14 581.27 C 553.95 581.35 563.76 581.12 573.57 581.39 C 573.29 614.53 573.61 647.68 573.41 680.82 C 578.01 680.93 582.62 680.87 587.24 680.89 C 587.18 685.86 587.38 690.83 587.11 695.80 C 572.78 695.63 558.46 695.77 544.13 695.73 C 544.17 690.78 544.17 685.83 544.15 680.89 C 548.72 680.88 553.29 680.90 557.87 680.86 C 557.80 652.62 557.79 624.38 557.87 596.14 C 553.29 596.08 548.71 596.15 544.14 596.07 C 544.18 591.13 544.15 586.20 544.14 581.27 Z" />
<path fill="#ff6427" opacity="1.00" d=" M 616.10 581.99 C 617.06 580.89 618.65 581.37 619.93 581.24 C 651.99 581.32 684.05 581.25 716.11 581.28 C 718.07 581.25 719.08 583.39 720.47 584.48 C 722.95 587.37 726.33 589.60 728.27 592.87 C 728.42 598.52 728.27 604.17 728.31 609.83 C 723.35 609.75 718.39 609.82 713.44 609.77 C 713.49 605.21 713.50 600.66 713.47 596.10 C 682.50 596.13 651.53 596.10 620.56 596.11 C 620.56 607.80 620.57 619.48 620.55 631.17 C 652.76 631.13 684.98 631.25 717.19 631.11 C 720.97 634.67 724.53 638.46 728.28 642.06 C 728.18 656.33 728.67 670.69 728.04 684.90 C 724.43 688.52 721.01 692.56 716.98 695.65 C 683.65 695.78 650.31 695.77 616.98 695.66 C 613.06 692.13 608.71 688.41 605.78 684.11 C 605.61 654.73 605.80 625.33 605.68 595.94 C 605.85 594.50 605.25 592.64 606.52 591.57 C 609.68 588.35 612.88 585.15 616.10 581.99 M 620.55 645.84 C 620.57 657.52 620.56 669.20 620.56 680.88 C 651.55 680.85 682.54 680.97 713.53 680.83 C 713.37 669.15 713.59 657.47 713.42 645.80 C 682.46 645.88 651.50 645.80 620.55 645.84 Z" />
</g>
<g id="#ff520eff">
<path fill="#ff520e" opacity="1.00" d=" M 563.74 729.30 C 564.38 729.06 565.66 728.59 566.31 728.35 C 590.20 729.07 614.12 728.48 638.02 728.67 C 660.62 728.48 683.23 729.07 705.82 728.35 C 706.90 728.73 707.98 729.16 709.05 729.63 C 707.40 729.84 705.75 730.05 704.10 730.12 C 658.72 730.04 613.33 730.04 567.95 730.13 C 566.50 730.08 565.11 729.70 563.74 729.30 Z" />
</g>
<g id="#fff100ff">
<path fill="#fff100" opacity="1.00" d=" M 576.89 791.01 C 576.88 789.37 577.53 787.85 578.04 786.34 C 578.67 805.20 578.14 824.10 578.31 842.98 C 578.12 857.85 578.72 872.77 578.01 887.63 C 577.44 885.80 576.79 883.96 576.84 882.04 C 576.99 851.69 576.85 821.35 576.89 791.01 Z" />
</g>
<g id="#fffe00ff">
<path fill="#fffe00" opacity="1.00" d=" M 515.28 788.78 L 516.30 789.35 C 516.62 820.80 516.39 852.28 516.42 883.74 C 516.13 884.07 515.55 884.74 515.27 885.08 C 514.63 865.75 515.17 846.38 515.02 827.04 C 515.17 814.28 514.62 801.51 515.28 788.78 Z" />
<path fill="#fffe00" opacity="1.00" d=" M 515.22 912.28 L 516.40 912.18 C 516.51 955.53 516.41 998.87 516.45 1042.21 L 514.84 1042.18 C 515.34 998.89 514.62 955.57 515.22 912.28 Z" />
</g>
</svg>
