<?xml version="1.0" encoding="UTF-8" ?>
<!DOCTYPE svg PUBLIC "-//W3C//DTD SVG 1.1//EN" "http://www.w3.org/Graphics/SVG/1.1/DTD/svg11.dtd">
<svg width="1276pt" height="1276pt" viewBox="0 0 1276 1276" version="1.1" xmlns="http://www.w3.org/2000/svg">
<g id="#ffffffff">
<path fill="#ffffff" opacity="1.00" d=" M 240.74 184.49 C 467.38 184.49 694.03 184.53 920.67 184.47 C 920.76 203.44 920.65 222.42 920.73 241.40 C 939.65 241.37 958.57 241.42 977.49 241.37 C 977.48 297.88 977.52 354.38 977.47 410.88 C 1015.14 411.44 1052.84 410.90 1090.53 411.15 C 1090.49 505.68 1090.48 600.20 1090.53 694.72 C 1071.77 694.82 1053.02 694.73 1034.26 694.77 C 1034.29 713.69 1034.25 732.62 1034.28 751.55 C 1015.34 751.56 996.40 751.54 977.47 751.56 C 977.48 827.13 977.56 902.70 977.42 978.27 C 969.94 978.23 962.46 978.23 954.98 978.26 C 954.24 978.26 952.76 978.26 952.02 978.26 C 949.34 978.19 946.63 978.44 944.00 977.89 C 939.86 978.61 935.65 978.06 931.49 978.30 L 931.44 977.75 C 930.72 977.75 929.28 977.74 928.56 977.74 L 928.52 978.30 C 925.90 978.23 923.30 978.23 920.70 978.26 C 920.72 996.92 920.68 1015.59 920.72 1034.27 C 901.78 1034.30 882.83 1034.21 863.89 1034.31 C 863.91 1053.18 863.85 1072.05 863.92 1090.92 C 769.49 1090.90 675.04 1091.03 580.61 1090.85 C 580.69 1071.99 580.58 1053.14 580.67 1034.29 C 561.95 1034.25 543.24 1034.28 524.53 1034.27 C 524.54 1053.15 524.50 1072.03 524.55 1090.92 C 429.94 1090.95 335.33 1090.92 240.73 1090.93 C 240.76 1072.05 240.68 1053.17 240.77 1034.29 C 221.86 1034.24 202.96 1034.28 184.05 1034.27 C 184.09 769.97 184.05 505.67 184.07 241.38 C 202.94 241.43 221.81 241.34 240.67 241.42 C 240.81 222.45 240.68 203.47 240.74 184.49 M 297.49 241.40 C 297.54 260.35 297.48 279.31 297.52 298.27 C 278.63 298.21 259.74 298.36 240.85 298.19 C 240.57 400.77 240.81 503.36 240.73 605.95 C 240.73 710.87 240.73 815.78 240.73 920.70 C 240.72 939.63 240.74 958.56 240.72 977.50 C 259.72 977.47 278.71 977.53 297.71 977.46 L 298.18 977.87 C 298.02 978.13 297.71 978.64 297.55 978.90 C 297.53 997.14 297.55 1015.38 297.54 1033.62 L 299.08 1033.60 C 355.17 1033.58 411.27 1033.67 467.36 1033.56 C 467.32 1014.87 467.41 996.18 467.32 977.49 C 523.86 977.51 580.40 977.46 636.94 977.52 C 636.79 996.19 636.94 1014.87 636.86 1033.55 C 693.66 1033.67 750.46 1033.60 807.27 1033.58 C 807.20 1014.89 807.32 996.20 807.20 977.51 C 825.96 977.45 844.72 977.53 863.48 977.47 C 863.42 958.59 863.50 939.71 863.44 920.83 L 863.44 920.69 C 882.35 920.62 901.28 920.91 920.19 920.54 L 920.34 921.46 C 920.92 917.30 920.65 913.09 920.69 908.92 C 920.70 837.53 920.66 766.15 920.71 694.77 C 939.60 694.60 958.51 695.07 977.40 694.53 C 977.50 675.64 977.36 656.74 977.47 637.85 C 996.39 637.44 1015.32 637.87 1034.24 637.61 C 1034.18 584.40 1034.23 531.19 1034.22 477.99 C 1034.14 474.54 1034.67 470.98 1033.59 467.64 C 1019.05 467.89 1004.52 467.68 989.99 467.75 C 985.55 467.85 981.06 467.37 976.67 468.24 C 976.83 524.56 976.70 580.88 976.74 637.20 C 958.07 637.47 939.40 637.23 920.74 637.29 C 920.62 558.85 920.72 480.41 920.69 401.96 C 920.55 367.18 920.96 332.39 920.48 297.61 C 901.47 297.49 882.45 297.64 863.44 297.54 C 863.49 278.83 863.43 260.12 863.47 241.42 C 674.81 241.36 486.15 241.40 297.49 241.40 Z" />
<path fill="#ffffff" opacity="1.00" d=" M 297.63 694.41 C 297.36 599.98 297.55 505.53 297.53 411.10 C 467.44 411.13 637.34 411.10 807.25 411.11 C 807.25 505.51 807.27 599.92 807.23 694.33 C 637.37 694.45 467.50 694.28 297.63 694.41 M 410.49 637.49 C 429.45 637.48 448.40 637.55 467.36 637.46 C 467.35 580.90 467.35 524.33 467.36 467.77 C 448.41 467.72 429.46 467.77 410.50 467.74 C 410.47 524.33 410.49 580.91 410.49 637.49 M 636.88 467.76 C 636.88 524.33 636.88 580.91 636.88 637.48 C 655.80 637.54 674.73 637.44 693.65 637.53 C 693.72 580.93 693.72 524.32 693.65 467.72 C 674.73 467.79 655.80 467.72 636.88 467.76 Z" />
<path fill="#ffffff" opacity="1.00" d=" M 410.46 751.38 C 418.27 750.26 426.13 751.62 433.96 750.88 C 445.11 751.80 456.29 750.43 467.44 751.37 C 467.29 770.00 467.33 788.65 467.41 807.29 C 523.91 807.23 580.40 807.22 636.89 807.29 C 636.84 791.86 636.91 776.43 636.86 761.00 C 636.76 757.50 636.80 753.99 637.45 750.55 C 645.59 751.70 653.82 751.09 662.01 751.24 C 672.57 751.34 683.14 751.06 693.71 751.25 C 693.70 769.89 693.64 788.53 693.74 807.17 C 674.85 807.31 655.97 807.29 637.09 807.17 C 636.61 826.07 636.99 844.98 636.89 863.88 C 580.37 863.89 523.84 863.92 467.31 863.87 C 467.41 845.01 467.33 826.14 467.36 807.27 C 448.43 807.25 429.50 807.21 410.57 807.29 C 410.35 788.65 410.58 770.01 410.46 751.38 Z" />
</g>
<g id="#2c376bff">
<path fill="#2c376b" opacity="1.00" d=" M 297.49 241.40 C 486.15 241.40 674.81 241.36 863.47 241.42 C 863.43 260.12 863.49 278.83 863.44 297.54 L 863.44 298.21 C 674.80 298.32 486.16 298.21 297.52 298.27 C 297.48 279.31 297.54 260.35 297.49 241.40 Z" />
<path fill="#2c376b" opacity="1.00" d=" M 297.61 354.20 C 403.42 354.42 509.23 354.23 615.04 354.29 C 679.09 354.27 743.14 354.34 807.19 354.26 C 807.33 373.21 807.22 392.16 807.25 411.11 C 637.34 411.10 467.44 411.13 297.53 411.10 C 297.55 392.13 297.39 373.16 297.61 354.20 Z" />
<path fill="#2c376b" opacity="1.00" d=" M 240.73 920.70 C 327.48 920.72 414.24 920.70 500.99 920.71 C 621.81 920.79 742.63 920.55 863.44 920.83 C 863.50 939.71 863.42 958.59 863.48 977.47 C 844.72 977.53 825.96 977.45 807.20 977.51 C 750.45 977.56 693.69 977.55 636.94 977.52 C 580.40 977.46 523.86 977.51 467.32 977.49 C 410.74 977.30 354.15 977.61 297.57 977.33 L 297.71 977.46 C 278.71 977.53 259.72 977.47 240.72 977.50 C 240.74 958.56 240.72 939.63 240.73 920.70 Z" />
</g>
<g id="#92939aff">
<path fill="#92939a" opacity="1.00" d=" M 863.44 297.54 C 882.45 297.64 901.47 297.49 920.48 297.61 C 920.96 332.39 920.55 367.18 920.69 401.96 C 920.72 480.41 920.62 558.85 920.74 637.29 C 939.40 637.23 958.07 637.47 976.74 637.20 C 995.56 637.46 1014.39 637.29 1033.22 637.32 C 1033.30 592.21 1033.23 547.11 1033.25 502.00 C 1033.44 490.55 1032.84 479.08 1033.59 467.64 C 1034.67 470.98 1034.14 474.54 1034.22 477.99 C 1034.23 531.19 1034.18 584.40 1034.24 637.61 C 1015.32 637.87 996.39 637.44 977.47 637.85 C 977.36 656.74 977.50 675.64 977.40 694.53 C 958.51 695.07 939.60 694.60 920.71 694.77 C 920.66 766.15 920.70 837.53 920.69 908.92 C 920.65 913.09 920.92 917.30 920.34 921.46 L 920.19 920.54 C 919.12 910.73 920.00 900.82 919.72 890.98 C 919.73 830.34 919.71 769.70 919.73 709.06 C 919.97 704.16 919.04 699.08 920.23 694.30 C 923.36 693.30 926.74 693.85 929.98 693.75 C 945.52 693.74 961.05 693.90 976.59 693.66 C 976.38 675.04 976.59 656.42 976.48 637.79 C 957.56 637.46 938.63 637.84 919.71 637.63 C 919.73 524.59 919.72 411.55 919.72 298.50 C 900.96 298.54 882.20 298.39 863.44 298.59 L 863.44 298.21 L 863.44 297.54 Z" />
</g>
<g id="#5fa5f0ff">
<path fill="#5fa5f0" opacity="1.00" d=" M 240.85 298.19 C 259.74 298.36 278.63 298.21 297.52 298.27 C 486.16 298.21 674.80 298.32 863.44 298.21 L 863.44 298.59 C 863.48 505.95 863.48 713.32 863.44 920.69 L 863.44 920.83 C 742.63 920.55 621.81 920.79 500.99 920.71 C 414.24 920.70 327.48 920.72 240.73 920.70 C 240.73 815.78 240.73 710.87 240.73 605.95 C 240.81 503.36 240.57 400.77 240.85 298.19 M 297.61 354.20 C 297.39 373.16 297.55 392.13 297.53 411.10 C 297.55 505.53 297.36 599.98 297.63 694.41 C 467.50 694.28 637.37 694.45 807.23 694.33 C 807.27 599.92 807.25 505.51 807.25 411.11 C 807.22 392.16 807.33 373.21 807.19 354.26 C 743.14 354.34 679.09 354.27 615.04 354.29 C 509.23 354.23 403.42 354.42 297.61 354.20 M 410.46 751.38 C 410.58 770.01 410.35 788.65 410.57 807.29 C 429.50 807.21 448.43 807.25 467.36 807.27 C 467.33 826.14 467.41 845.01 467.31 863.87 C 523.84 863.92 580.37 863.89 636.89 863.88 C 636.99 844.98 636.61 826.07 637.09 807.17 C 655.97 807.29 674.85 807.31 693.74 807.17 C 693.64 788.53 693.70 769.89 693.71 751.25 C 683.14 751.06 672.57 751.34 662.01 751.24 C 653.82 751.09 645.59 751.70 637.45 750.55 C 636.80 753.99 636.76 757.50 636.86 761.00 C 636.91 776.43 636.84 791.86 636.89 807.29 C 580.40 807.22 523.91 807.23 467.41 807.29 C 467.33 788.65 467.29 770.00 467.44 751.37 C 456.29 750.43 445.11 751.80 433.96 750.88 C 426.13 751.62 418.27 750.26 410.46 751.38 Z" />
</g>
<g id="#1b1c2bff">
<path fill="#1b1c2b" opacity="1.00" d=" M 863.44 298.59 C 882.20 298.39 900.96 298.54 919.72 298.50 C 919.72 411.55 919.73 524.59 919.71 637.63 C 938.63 637.84 957.56 637.46 976.48 637.79 C 976.59 656.42 976.38 675.04 976.59 693.66 C 961.05 693.90 945.52 693.74 929.98 693.75 C 926.74 693.85 923.36 693.30 920.23 694.30 C 919.04 699.08 919.97 704.16 919.73 709.06 C 919.71 769.70 919.73 830.34 919.72 890.98 C 920.00 900.82 919.12 910.73 920.19 920.54 C 901.28 920.91 882.35 920.62 863.44 920.69 C 863.48 713.32 863.48 505.95 863.44 298.59 Z" />
<path fill="#1b1c2b" opacity="1.00" d=" M 410.49 637.49 C 410.49 580.91 410.47 524.33 410.50 467.74 C 429.46 467.77 448.41 467.72 467.36 467.77 C 467.35 524.33 467.35 580.90 467.36 637.46 C 448.40 637.55 429.45 637.48 410.49 637.49 Z" />
<path fill="#1b1c2b" opacity="1.00" d=" M 636.88 467.76 C 655.80 467.72 674.73 467.79 693.65 467.72 C 693.72 524.32 693.72 580.93 693.65 637.53 C 674.73 637.44 655.80 637.54 636.88 637.48 C 636.88 580.91 636.88 524.33 636.88 467.76 Z" />
<path fill="#1b1c2b" opacity="1.00" d=" M 976.67 468.24 C 981.06 467.37 985.55 467.85 989.99 467.75 C 1004.52 467.68 1019.05 467.89 1033.59 467.64 C 1032.84 479.08 1033.44 490.55 1033.25 502.00 C 1033.23 547.11 1033.30 592.21 1033.22 637.32 C 1014.39 637.29 995.56 637.46 976.74 637.20 C 976.70 580.88 976.83 524.56 976.67 468.24 Z" />
<path fill="#1b1c2b" opacity="1.00" d=" M 297.71 977.46 L 297.57 977.33 C 354.15 977.61 410.74 977.30 467.32 977.49 C 467.41 996.18 467.32 1014.87 467.36 1033.56 C 411.27 1033.67 355.17 1033.58 299.08 1033.60 C 299.02 1015.05 298.83 996.50 299.21 977.95 C 298.95 977.93 298.44 977.89 298.18 977.87 L 297.71 977.46 Z" />
<path fill="#1b1c2b" opacity="1.00" d=" M 636.94 977.52 C 693.69 977.55 750.45 977.56 807.20 977.51 C 807.32 996.20 807.20 1014.89 807.27 1033.58 C 750.46 1033.60 693.66 1033.67 636.86 1033.55 C 636.94 1014.87 636.79 996.19 636.94 977.52 Z" />
</g>
<g id="#0a0b1bff">
<path fill="#0a0b1b" opacity="1.00" d=" M 298.18 977.87 C 298.44 977.89 298.95 977.93 299.21 977.95 C 298.83 996.50 299.02 1015.05 299.08 1033.60 L 297.54 1033.62 C 297.55 1015.38 297.53 997.14 297.55 978.90 C 297.71 978.64 298.02 978.13 298.18 977.87 Z" />
</g>
</svg>
