<?xml version="1.0" encoding="UTF-8" ?>
<!DOCTYPE svg PUBLIC "-//W3C//DTD SVG 1.1//EN" "http://www.w3.org/Graphics/SVG/1.1/DTD/svg11.dtd">
<svg width="1276pt" height="1276pt" viewBox="0 0 1276 1276" version="1.1" xmlns="http://www.w3.org/2000/svg">
<g id="#000000ff">
<path fill="#000000" opacity="1.00" d=" M 620.78 190.92 C 626.21 189.09 631.50 186.78 637.00 185.19 C 646.57 188.19 655.93 191.96 665.40 195.31 C 816.26 250.19 967.13 305.03 1117.96 359.96 C 1117.95 432.19 1117.92 504.41 1117.98 576.64 C 1087.54 565.56 1057.08 554.55 1026.67 543.38 C 1026.28 606.48 1026.54 669.59 1026.47 732.70 C 1056.94 721.50 1087.47 710.46 1117.98 699.37 C 1117.91 771.59 1117.95 843.81 1117.96 916.04 C 957.66 974.40 797.35 1032.72 637.02 1090.99 C 476.70 1032.64 316.36 974.35 156.04 916.00 C 156.05 843.79 156.08 771.57 156.02 699.36 C 186.55 710.37 217.06 721.47 247.53 732.65 C 247.84 669.53 247.70 606.40 247.63 543.28 C 217.14 554.54 186.58 565.60 156.02 576.64 C 156.08 504.43 156.05 432.21 156.04 360.00 C 310.95 303.62 465.87 247.29 620.78 190.92 M 666.11 226.75 C 665.85 277.53 666.09 328.31 665.99 379.08 C 665.28 381.44 667.87 381.94 669.42 382.76 C 674.12 384.33 678.84 385.87 683.45 387.70 C 684.43 388.01 685.41 388.34 686.39 388.71 C 687.80 389.21 689.21 389.74 690.62 390.27 C 691.86 390.78 693.14 391.22 694.39 391.74 C 698.07 393.05 701.76 394.35 705.42 395.73 C 709.14 396.89 712.77 398.32 716.43 399.70 C 719.13 400.60 721.80 401.63 724.45 402.74 C 729.11 404.37 733.83 405.86 738.43 407.69 C 741.13 408.60 743.80 409.59 746.44 410.70 C 747.43 411.01 748.41 411.35 749.40 411.72 C 753.08 413.05 756.79 414.33 760.46 415.72 C 763.85 416.81 767.14 418.18 770.52 419.31 C 773.48 420.54 776.52 421.56 779.50 422.75 C 784.16 424.32 788.84 425.89 793.43 427.69 C 796.12 428.63 798.80 429.63 801.46 430.70 C 806.09 432.41 810.81 433.90 815.42 435.71 C 818.14 436.63 820.84 437.63 823.52 438.70 C 824.48 439.00 825.44 439.34 826.40 439.72 C 833.38 442.37 840.47 444.74 847.49 447.30 C 850.12 448.40 852.82 449.36 855.53 450.30 C 860.11 452.16 864.85 453.59 869.49 455.30 C 872.44 456.49 875.50 457.43 878.43 458.70 C 883.09 460.36 887.76 462.01 892.41 463.74 C 895.11 464.63 897.82 465.56 900.45 466.69 C 901.44 467.00 902.42 467.33 903.41 467.71 C 904.80 468.22 906.20 468.75 907.62 469.25 C 908.88 469.77 910.16 470.23 911.44 470.76 C 914.84 471.89 918.23 473.06 921.61 474.26 C 922.86 474.77 924.14 475.20 925.41 475.72 C 927.81 476.52 930.16 477.48 932.57 478.31 C 937.44 480.32 942.50 481.82 947.41 483.72 C 950.12 484.61 952.79 485.62 955.44 486.69 C 956.43 487.00 957.41 487.34 958.40 487.71 C 959.79 488.23 961.18 488.76 962.60 489.27 C 967.47 491.29 972.59 492.63 977.46 494.69 C 978.45 494.99 979.43 495.32 980.43 495.69 C 981.81 496.22 983.20 496.76 984.61 497.27 C 985.85 497.78 987.13 498.22 988.40 498.74 C 992.13 500.02 995.86 501.30 999.56 502.70 C 1000.50 503.01 1001.45 503.35 1002.41 503.72 C 1004.81 504.54 1007.16 505.50 1009.58 506.31 C 1012.19 507.36 1014.84 508.37 1017.53 509.26 C 1022.46 511.17 1027.54 512.68 1032.45 514.69 C 1033.42 515.00 1034.41 515.34 1035.39 515.71 C 1036.78 516.23 1038.17 516.77 1039.59 517.28 C 1044.20 519.11 1048.91 520.66 1053.60 522.26 C 1054.84 522.76 1056.12 523.21 1057.39 523.73 C 1058.79 524.23 1060.19 524.76 1061.61 525.28 C 1062.58 525.64 1063.56 525.98 1064.56 526.31 C 1072.59 529.52 1080.86 532.08 1088.92 535.22 C 1089.14 483.77 1088.89 432.31 1089.04 380.86 C 1085.39 378.86 1081.28 378.00 1077.51 376.31 C 1076.51 376.00 1075.53 375.66 1074.58 375.30 C 1073.17 374.77 1071.77 374.24 1070.38 373.76 C 1069.11 373.24 1067.83 372.78 1066.60 372.25 C 1062.22 370.76 1057.86 369.25 1053.51 367.70 C 1050.83 366.63 1048.14 365.64 1045.43 364.70 C 1040.54 362.72 1035.52 361.10 1030.59 359.27 C 1027.87 358.39 1025.19 357.43 1022.57 356.30 C 1020.15 355.51 1017.79 354.58 1015.40 353.72 C 1010.52 351.68 1005.38 350.35 1000.51 348.31 C 999.51 348.00 998.53 347.66 997.58 347.30 C 995.21 346.44 992.89 345.49 990.51 344.69 C 985.60 342.71 980.54 341.16 975.59 339.28 C 973.18 338.46 970.83 337.50 968.43 336.69 C 965.77 335.64 963.10 334.65 960.41 333.72 C 955.54 331.68 950.39 330.40 945.55 328.31 C 944.54 328.00 943.55 327.66 942.58 327.30 C 940.87 326.66 939.16 326.01 937.50 325.29 C 931.87 323.27 926.20 321.37 920.60 319.28 C 919.18 318.77 917.78 318.24 916.39 317.71 C 915.41 317.34 914.43 317.00 913.45 316.69 C 906.18 313.81 898.76 311.37 891.42 308.70 C 888.49 307.50 885.49 306.51 882.57 305.30 C 877.91 303.61 873.15 302.17 868.55 300.31 C 867.55 299.99 866.57 299.65 865.61 299.28 C 864.19 298.77 862.79 298.24 861.39 297.73 C 860.13 297.21 858.85 296.78 857.61 296.26 C 852.95 294.57 848.27 292.94 843.61 291.26 C 841.21 290.41 838.84 289.47 836.43 288.69 C 833.79 287.61 831.11 286.64 828.42 285.71 C 823.57 283.64 818.41 282.39 813.57 280.30 C 810.88 279.36 808.19 278.42 805.57 277.30 C 800.90 275.63 796.20 274.06 791.58 272.28 C 789.15 271.50 786.76 270.64 784.38 269.74 C 783.12 269.22 781.85 268.78 780.61 268.26 C 773.58 265.66 766.50 263.18 759.44 260.69 C 756.79 259.61 754.11 258.65 751.43 257.70 C 746.57 255.63 741.45 254.30 736.57 252.30 C 733.87 251.37 731.19 250.41 728.57 249.30 C 726.15 248.52 723.78 247.59 721.40 246.74 C 719.14 245.86 716.85 245.11 714.59 244.25 C 712.16 243.51 709.78 242.61 707.40 241.73 C 706.14 241.21 704.85 240.77 703.60 240.27 C 700.90 239.34 698.24 238.32 695.59 237.27 C 692.19 236.11 688.80 234.92 685.41 233.72 C 684.44 233.35 683.46 233.00 682.49 232.69 C 679.81 231.66 677.13 230.64 674.42 229.70 C 671.70 228.58 668.94 227.55 666.11 226.75 M 463.78 464.79 C 463.81 537.18 463.79 609.56 463.80 681.95 C 463.89 725.12 463.53 768.31 464.13 811.47 C 521.80 832.29 579.42 853.28 637.00 874.35 C 694.79 853.26 752.62 832.30 810.41 811.21 C 810.42 718.80 810.41 626.39 810.42 533.97 C 810.53 510.90 809.93 487.83 810.21 464.75 C 752.51 443.61 694.71 422.74 636.99 401.66 C 579.31 422.85 521.48 443.64 463.78 464.79 M 185.06 740.78 C 184.88 792.21 185.11 843.64 184.95 895.07 C 189.27 897.34 194.05 898.52 198.57 900.31 C 201.52 901.51 204.57 902.47 207.50 903.71 C 212.12 905.45 216.88 906.79 221.45 908.69 C 222.44 909.00 223.42 909.34 224.40 909.71 C 225.80 910.22 227.19 910.75 228.60 911.29 C 233.48 913.23 238.50 914.84 243.42 916.73 C 245.85 917.45 248.22 918.37 250.60 919.29 C 251.57 919.65 252.56 919.99 253.56 920.31 C 256.17 921.36 258.82 922.34 261.49 923.27 C 266.13 925.10 270.89 926.58 275.57 928.30 C 278.50 929.48 281.51 930.46 284.43 931.70 C 289.10 933.33 293.79 934.94 298.42 936.71 C 300.83 937.49 303.20 938.40 305.59 939.28 C 306.84 939.79 308.13 940.21 309.40 940.73 C 310.80 941.22 312.20 941.74 313.61 942.25 C 319.22 944.40 324.93 946.24 330.57 948.30 C 333.19 949.35 335.83 950.34 338.49 951.30 C 343.39 953.30 348.51 954.70 353.42 956.69 C 356.11 957.63 358.79 958.61 361.44 959.69 C 362.43 960.00 363.42 960.34 364.40 960.72 C 368.05 962.10 371.76 963.34 375.41 964.74 C 377.83 965.51 380.20 966.43 382.61 967.26 C 383.86 967.76 385.14 968.20 386.39 968.73 C 387.80 969.23 389.20 969.76 390.61 970.28 C 391.55 970.63 392.50 970.98 393.47 971.30 C 397.13 972.76 400.90 973.92 404.62 975.24 C 405.87 975.75 407.15 976.19 408.41 976.72 C 410.82 977.53 413.17 978.46 415.57 979.30 C 420.44 981.32 425.50 982.79 430.40 984.73 C 433.11 985.64 435.81 986.56 438.44 987.69 C 439.43 988.00 440.41 988.34 441.39 988.72 C 442.79 989.22 444.19 989.74 445.61 990.24 C 446.89 990.76 448.19 991.23 449.49 991.77 C 452.87 992.88 456.24 994.06 459.60 995.27 C 460.85 995.77 462.13 996.21 463.40 996.73 C 465.79 997.53 468.12 998.50 470.52 999.31 C 474.46 1000.96 478.58 1002.12 482.56 1003.70 C 483.51 1004.00 484.47 1004.33 485.42 1004.70 C 487.82 1005.50 490.17 1006.47 492.57 1007.31 C 495.20 1008.40 497.90 1009.33 500.60 1010.25 C 505.48 1012.24 510.57 1013.66 515.44 1015.69 C 516.42 1016.00 517.40 1016.35 518.39 1016.72 C 519.79 1017.22 521.19 1017.75 522.60 1018.27 C 523.85 1018.78 525.13 1019.23 526.39 1019.75 C 529.80 1020.87 533.18 1022.11 536.59 1023.26 C 537.84 1023.77 539.12 1024.22 540.39 1024.74 C 542.78 1025.53 545.12 1026.52 547.52 1027.31 C 555.08 1030.32 562.87 1032.69 570.42 1035.69 C 573.16 1036.60 575.86 1037.62 578.54 1038.71 C 582.88 1040.24 587.23 1041.78 591.59 1043.28 C 592.83 1043.78 594.12 1044.21 595.38 1044.73 C 596.78 1045.23 598.17 1045.76 599.58 1046.30 C 600.52 1046.66 601.48 1046.99 602.46 1047.32 C 604.23 1048.05 606.05 1048.68 607.91 1049.23 C 608.11 998.15 607.96 947.06 607.98 895.98 C 608.28 894.45 606.41 894.21 605.49 893.64 C 600.88 891.87 596.19 890.37 591.56 888.71 C 588.57 887.54 585.53 886.54 582.57 885.30 C 580.17 884.47 577.80 883.56 575.40 882.74 C 570.52 880.75 565.39 879.40 560.55 877.31 C 559.55 876.99 558.57 876.65 557.60 876.30 C 556.18 875.77 554.79 875.23 553.39 874.72 C 552.45 874.35 551.51 874.01 550.57 873.70 C 546.91 872.20 543.12 871.07 539.41 869.71 C 538.44 869.33 537.47 868.99 536.49 868.69 C 534.79 867.99 533.08 867.37 531.38 866.72 C 530.40 866.35 529.42 866.00 528.44 865.69 C 523.55 863.72 518.53 862.10 513.60 860.27 C 510.89 859.36 508.20 858.40 505.57 857.31 C 502.83 856.38 500.13 855.37 497.46 854.28 C 492.83 852.57 488.08 851.18 483.51 849.31 C 482.52 848.99 481.54 848.66 480.58 848.31 C 479.18 847.77 477.79 847.23 476.40 846.71 C 475.45 846.33 474.49 845.99 473.53 845.69 C 468.63 843.69 463.54 842.17 458.60 840.29 C 457.18 839.77 455.78 839.23 454.38 838.72 C 453.41 838.34 452.43 838.00 451.44 837.69 C 448.81 836.65 446.16 835.67 443.50 834.73 C 438.59 832.74 433.44 831.40 428.57 829.30 C 425.87 828.38 423.20 827.39 420.57 826.31 C 415.89 824.66 411.18 823.08 406.56 821.30 C 405.56 820.98 404.57 820.64 403.60 820.29 C 401.22 819.43 398.87 818.48 396.48 817.70 C 389.21 814.81 381.77 812.37 374.42 809.69 C 371.49 808.49 368.46 807.53 365.54 806.29 C 360.90 804.58 356.14 803.18 351.57 801.30 C 349.17 800.48 346.79 799.59 344.41 798.72 C 343.15 798.19 341.87 797.76 340.62 797.25 C 336.95 795.91 333.23 794.68 329.59 793.28 C 325.86 792.12 322.23 790.67 318.58 789.29 C 316.21 788.46 313.87 787.52 311.50 786.72 C 306.59 784.72 301.48 783.30 296.57 781.31 C 293.86 780.41 291.20 779.39 288.58 778.29 C 283.92 776.61 279.20 775.09 274.58 773.28 C 271.87 772.38 269.18 771.42 266.55 770.31 C 265.56 769.98 264.57 769.64 263.60 769.29 C 262.19 768.77 260.79 768.24 259.39 767.74 C 254.79 765.90 250.03 764.50 245.41 762.72 C 244.42 762.34 243.44 762.00 242.44 761.69 C 239.82 760.61 237.16 759.61 234.47 758.69 C 229.58 756.69 224.48 755.24 219.57 753.30 C 216.88 752.37 214.20 751.38 211.57 750.31 C 209.16 749.51 206.80 748.56 204.40 747.75 C 199.78 745.94 195.05 744.46 190.40 742.72 C 188.64 742.03 186.85 741.40 185.06 740.78 Z" />
</g>
<g id="#ffffffff">
<path fill="#ffffff" opacity="1.00" d=" M 666.11 226.75 C 668.94 227.55 671.70 228.58 674.42 229.70 C 677.13 230.64 679.81 231.66 682.49 232.69 C 683.46 233.00 684.44 233.35 685.41 233.72 C 688.80 234.92 692.19 236.11 695.59 237.27 C 698.24 238.32 700.90 239.34 703.60 240.27 C 704.85 240.77 706.14 241.21 707.40 241.73 C 709.78 242.61 712.16 243.51 714.59 244.25 C 716.85 245.11 719.14 245.86 721.40 246.74 C 723.78 247.59 726.15 248.52 728.57 249.30 C 731.19 250.41 733.87 251.37 736.57 252.30 C 741.45 254.30 746.57 255.63 751.43 257.70 C 754.11 258.65 756.79 259.61 759.44 260.69 C 766.50 263.18 773.58 265.66 780.61 268.26 C 781.85 268.78 783.12 269.22 784.38 269.74 C 786.76 270.64 789.15 271.50 791.58 272.28 C 796.20 274.06 800.90 275.63 805.57 277.30 C 808.19 278.42 810.88 279.36 813.57 280.30 C 818.41 282.39 823.57 283.64 828.42 285.71 C 831.11 286.64 833.79 287.61 836.43 288.69 C 838.84 289.47 841.21 290.41 843.61 291.26 C 848.27 292.94 852.95 294.57 857.61 296.26 C 858.85 296.78 860.13 297.21 861.39 297.73 C 862.79 298.24 864.19 298.77 865.61 299.28 C 866.57 299.65 867.55 299.99 868.55 300.31 C 873.15 302.17 877.91 303.61 882.57 305.30 C 885.49 306.51 888.49 307.50 891.42 308.70 C 898.76 311.37 906.18 313.81 913.45 316.69 C 914.43 317.00 915.41 317.34 916.39 317.71 C 917.78 318.24 919.18 318.77 920.60 319.28 C 926.20 321.37 931.87 323.27 937.50 325.29 C 939.16 326.01 940.87 326.66 942.58 327.30 C 943.55 327.66 944.54 328.00 945.55 328.31 C 950.39 330.40 955.54 331.68 960.41 333.72 C 963.10 334.65 965.77 335.64 968.43 336.69 C 970.83 337.50 973.18 338.46 975.59 339.28 C 980.54 341.16 985.60 342.71 990.51 344.69 C 992.89 345.49 995.21 346.44 997.58 347.30 C 998.53 347.66 999.51 348.00 1000.51 348.31 C 1005.38 350.35 1010.52 351.68 1015.40 353.72 C 1017.79 354.58 1020.15 355.51 1022.57 356.30 C 1025.19 357.43 1027.87 358.39 1030.59 359.27 C 1035.52 361.10 1040.54 362.72 1045.43 364.70 C 1048.14 365.64 1050.83 366.63 1053.51 367.70 C 1057.86 369.25 1062.22 370.76 1066.60 372.25 C 1067.83 372.78 1069.11 373.24 1070.38 373.76 C 1071.77 374.24 1073.17 374.77 1074.58 375.30 C 1075.53 375.66 1076.51 376.00 1077.51 376.31 C 1081.28 378.00 1085.39 378.86 1089.04 380.86 C 1088.89 432.31 1089.14 483.77 1088.92 535.22 C 1080.86 532.08 1072.59 529.52 1064.56 526.31 C 1063.56 525.98 1062.58 525.64 1061.61 525.28 C 1060.19 524.76 1058.79 524.23 1057.39 523.73 C 1056.12 523.21 1054.84 522.76 1053.60 522.26 C 1048.91 520.66 1044.20 519.11 1039.59 517.28 C 1038.17 516.77 1036.78 516.23 1035.39 515.71 C 1034.41 515.34 1033.42 515.00 1032.45 514.69 C 1027.54 512.68 1022.46 511.17 1017.53 509.26 C 1014.84 508.37 1012.19 507.36 1009.58 506.31 C 1007.16 505.50 1004.81 504.54 1002.41 503.72 C 1001.45 503.35 1000.50 503.01 999.56 502.70 C 995.86 501.30 992.13 500.02 988.40 498.74 C 987.13 498.22 985.85 497.78 984.61 497.27 C 983.20 496.76 981.81 496.22 980.43 495.69 C 979.43 495.32 978.45 494.99 977.46 494.69 C 972.59 492.63 967.47 491.29 962.60 489.27 C 961.18 488.76 959.79 488.23 958.40 487.71 C 957.41 487.34 956.43 487.00 955.44 486.69 C 952.79 485.62 950.12 484.61 947.41 483.72 C 942.50 481.82 937.44 480.32 932.57 478.31 C 930.16 477.48 927.81 476.52 925.41 475.72 C 924.14 475.20 922.86 474.77 921.61 474.26 C 918.23 473.06 914.84 471.89 911.44 470.76 C 910.16 470.23 908.88 469.77 907.62 469.25 C 906.20 468.75 904.80 468.22 903.41 467.71 C 902.42 467.33 901.44 467.00 900.45 466.69 C 897.82 465.56 895.11 464.63 892.41 463.74 C 887.76 462.01 883.09 460.36 878.43 458.70 C 875.50 457.43 872.44 456.49 869.49 455.30 C 864.85 453.59 860.11 452.16 855.53 450.30 C 852.82 449.36 850.12 448.40 847.49 447.30 C 840.47 444.74 833.38 442.37 826.40 439.72 C 825.44 439.34 824.48 439.00 823.52 438.70 C 820.84 437.63 818.14 436.63 815.42 435.71 C 810.81 433.90 806.09 432.41 801.46 430.70 C 798.80 429.63 796.12 428.63 793.43 427.69 C 788.84 425.89 784.16 424.32 779.50 422.75 C 776.52 421.56 773.48 420.54 770.52 419.31 C 767.14 418.18 763.85 416.81 760.46 415.72 C 756.79 414.33 753.08 413.05 749.40 411.72 C 748.41 411.35 747.43 411.01 746.44 410.70 C 743.80 409.59 741.13 408.60 738.43 407.69 C 733.83 405.86 729.11 404.37 724.45 402.74 C 721.80 401.63 719.13 400.60 716.43 399.70 C 712.77 398.32 709.14 396.89 705.42 395.73 C 701.76 394.35 698.07 393.05 694.39 391.74 C 693.14 391.22 691.86 390.78 690.62 390.27 C 689.21 389.74 687.80 389.21 686.39 388.71 C 685.41 388.34 684.43 388.01 683.45 387.70 C 678.84 385.87 674.12 384.33 669.42 382.76 C 667.87 381.94 665.28 381.44 665.99 379.08 C 666.09 328.31 665.85 277.53 666.11 226.75 Z" />
<path fill="#ffffff" opacity="1.00" d=" M 185.06 740.78 C 186.85 741.40 188.64 742.03 190.40 742.72 C 195.05 744.46 199.78 745.94 204.40 747.75 C 206.80 748.56 209.16 749.51 211.57 750.31 C 214.20 751.38 216.88 752.37 219.57 753.30 C 224.48 755.24 229.58 756.69 234.47 758.69 C 237.16 759.61 239.82 760.61 242.44 761.69 C 243.44 762.00 244.42 762.34 245.41 762.72 C 250.03 764.50 254.79 765.90 259.39 767.74 C 260.79 768.24 262.19 768.77 263.60 769.29 C 264.57 769.64 265.56 769.98 266.55 770.31 C 269.18 771.42 271.87 772.38 274.58 773.28 C 279.20 775.09 283.92 776.61 288.58 778.29 C 291.20 779.39 293.86 780.41 296.57 781.31 C 301.48 783.30 306.59 784.72 311.50 786.72 C 313.87 787.52 316.21 788.46 318.58 789.29 C 322.23 790.67 325.86 792.12 329.59 793.28 C 333.23 794.68 336.95 795.91 340.62 797.25 C 341.87 797.76 343.15 798.19 344.41 798.72 C 346.79 799.59 349.17 800.48 351.57 801.30 C 356.14 803.18 360.90 804.58 365.54 806.29 C 368.46 807.53 371.49 808.49 374.42 809.69 C 381.77 812.37 389.21 814.81 396.48 817.70 C 398.87 818.48 401.22 819.43 403.60 820.29 C 404.57 820.64 405.56 820.98 406.56 821.30 C 411.18 823.08 415.89 824.66 420.57 826.31 C 423.20 827.39 425.87 828.38 428.57 829.30 C 433.44 831.40 438.59 832.74 443.50 834.73 C 446.16 835.67 448.81 836.65 451.44 837.69 C 452.43 838.00 453.41 838.34 454.38 838.72 C 455.78 839.23 457.18 839.77 458.60 840.29 C 463.54 842.17 468.63 843.69 473.53 845.69 C 474.49 845.99 475.45 846.33 476.40 846.71 C 477.79 847.23 479.18 847.77 480.58 848.31 C 481.54 848.66 482.52 848.99 483.51 849.31 C 488.08 851.18 492.83 852.57 497.46 854.28 C 500.13 855.37 502.83 856.38 505.57 857.31 C 508.20 858.40 510.89 859.36 513.60 860.27 C 518.53 862.10 523.55 863.72 528.44 865.69 C 529.42 866.00 530.40 866.35 531.38 866.72 C 533.08 867.37 534.79 867.99 536.49 868.69 C 537.47 868.99 538.44 869.33 539.41 869.71 C 543.12 871.07 546.91 872.20 550.57 873.70 C 551.51 874.01 552.45 874.35 553.39 874.72 C 554.79 875.23 556.18 875.77 557.60 876.30 C 558.57 876.65 559.55 876.99 560.55 877.31 C 565.39 879.40 570.52 880.75 575.40 882.74 C 577.80 883.56 580.17 884.47 582.57 885.30 C 585.53 886.54 588.57 887.54 591.56 888.71 C 596.19 890.37 600.88 891.87 605.49 893.64 C 606.41 894.21 608.28 894.45 607.98 895.98 C 607.96 947.06 608.11 998.15 607.91 1049.23 C 606.05 1048.68 604.23 1048.05 602.46 1047.32 C 601.48 1046.99 600.52 1046.66 599.58 1046.30 C 598.17 1045.76 596.78 1045.23 595.38 1044.73 C 594.12 1044.21 592.83 1043.78 591.59 1043.28 C 587.23 1041.78 582.88 1040.24 578.54 1038.71 C 575.86 1037.62 573.16 1036.60 570.42 1035.69 C 562.87 1032.69 555.08 1030.32 547.52 1027.31 C 545.12 1026.52 542.78 1025.53 540.39 1024.74 C 539.12 1024.22 537.84 1023.77 536.59 1023.26 C 533.18 1022.11 529.80 1020.87 526.39 1019.75 C 525.13 1019.23 523.85 1018.78 522.60 1018.27 C 521.19 1017.75 519.79 1017.22 518.39 1016.72 C 517.40 1016.35 516.42 1016.00 515.44 1015.69 C 510.57 1013.66 505.48 1012.24 500.60 1010.25 C 497.90 1009.33 495.20 1008.40 492.57 1007.31 C 490.17 1006.47 487.82 1005.50 485.42 1004.70 C 484.47 1004.33 483.51 1004.00 482.56 1003.70 C 478.58 1002.12 474.46 1000.96 470.52 999.31 C 468.12 998.50 465.79 997.53 463.40 996.73 C 462.13 996.21 460.85 995.77 459.60 995.27 C 456.24 994.06 452.87 992.88 449.49 991.77 C 448.19 991.23 446.89 990.76 445.61 990.24 C 444.19 989.74 442.79 989.22 441.39 988.72 C 440.41 988.34 439.43 988.00 438.44 987.69 C 435.81 986.56 433.11 985.64 430.40 984.73 C 425.50 982.79 420.44 981.32 415.57 979.30 C 413.17 978.46 410.82 977.53 408.41 976.72 C 407.15 976.19 405.87 975.75 404.62 975.24 C 400.90 973.92 397.13 972.76 393.47 971.30 C 392.50 970.98 391.55 970.63 390.61 970.28 C 389.20 969.76 387.80 969.23 386.39 968.73 C 385.14 968.20 383.86 967.76 382.61 967.26 C 380.20 966.43 377.83 965.51 375.41 964.74 C 371.76 963.34 368.05 962.10 364.40 960.72 C 363.42 960.34 362.43 960.00 361.44 959.69 C 358.79 958.61 356.11 957.63 353.42 956.69 C 348.51 954.70 343.39 953.30 338.49 951.30 C 335.83 950.34 333.19 949.35 330.57 948.30 C 324.93 946.24 319.22 944.40 313.61 942.25 C 312.20 941.74 310.80 941.22 309.40 940.73 C 308.13 940.21 306.84 939.79 305.59 939.28 C 303.20 938.40 300.83 937.49 298.42 936.71 C 293.79 934.94 289.10 933.33 284.43 931.70 C 281.51 930.46 278.50 929.48 275.57 928.30 C 270.89 926.58 266.13 925.10 261.49 923.27 C 258.82 922.34 256.17 921.36 253.56 920.31 C 252.56 919.99 251.57 919.65 250.60 919.29 C 248.22 918.37 245.85 917.45 243.42 916.73 C 238.50 914.84 233.48 913.23 228.60 911.29 C 227.19 910.75 225.80 910.22 224.40 909.71 C 223.42 909.34 222.44 909.00 221.45 908.69 C 216.88 906.79 212.12 905.45 207.50 903.71 C 204.57 902.47 201.52 901.51 198.57 900.31 C 194.05 898.52 189.27 897.34 184.95 895.07 C 185.11 843.64 184.88 792.21 185.06 740.78 Z" />
</g>
</svg>
