<?xml version="1.0" encoding="UTF-8" ?>
<!DOCTYPE svg PUBLIC "-//W3C//DTD SVG 1.1//EN" "http://www.w3.org/Graphics/SVG/1.1/DTD/svg11.dtd">
<svg width="1276pt" height="1276pt" viewBox="0 0 1276 1276" version="1.1" xmlns="http://www.w3.org/2000/svg">
<g id="#6b4386ff">
<path fill="#6b4386" opacity="1.00" d=" M 529.50 371.40 C 565.63 309.61 602.05 247.98 638.00 186.08 C 675.94 251.37 714.35 316.39 752.46 381.58 C 789.67 445.05 826.89 508.52 864.09 572.00 C 829.64 572.04 795.20 571.92 760.75 572.06 C 719.73 502.37 678.96 432.54 638.00 362.81 C 598.77 429.65 559.61 496.53 520.40 563.37 C 518.53 566.14 517.36 569.50 515.05 571.90 C 480.68 572.13 446.29 571.94 411.91 572.00 C 451.10 505.13 490.31 438.27 529.50 371.40 Z" />
<path fill="#6b4386" opacity="1.00" d=" M 117.46 614.20 C 173.86 614.21 230.27 614.21 286.68 614.20 C 286.65 627.77 286.63 641.34 286.69 654.91 C 248.73 654.85 210.77 654.90 172.81 654.88 C 172.77 664.42 172.85 673.96 172.77 683.50 C 204.82 683.61 236.87 683.48 268.92 683.56 C 268.77 697.05 268.90 710.55 268.85 724.05 C 236.83 723.99 204.82 724.07 172.80 723.96 C 172.86 747.10 172.70 770.23 172.88 793.37 C 154.41 793.44 135.93 793.38 117.45 793.40 C 117.52 733.67 117.49 673.93 117.46 614.20 Z" />
<path fill="#6b4386" opacity="1.00" d=" M 352.30 614.34 C 390.18 614.05 428.07 614.33 465.96 614.20 C 479.19 614.00 492.97 616.38 504.20 623.74 C 512.21 628.98 517.87 637.61 519.33 647.10 C 520.50 655.33 519.91 663.66 520.09 671.94 C 519.81 693.97 520.38 716.00 519.93 738.03 C 519.97 746.45 521.00 755.16 518.16 763.27 C 515.05 772.99 507.99 781.29 499.04 786.12 C 489.28 791.48 477.99 793.34 466.97 793.38 C 430.99 793.41 395.00 793.35 359.02 793.41 C 343.98 794.25 327.72 792.84 315.10 783.84 C 306.22 777.57 301.40 766.76 301.33 756.04 C 301.19 723.70 301.33 691.36 301.26 659.02 C 300.64 646.05 307.01 633.07 317.38 625.34 C 327.35 617.83 340.01 614.87 352.30 614.34 M 357.74 654.88 C 357.70 688.03 357.75 721.19 357.72 754.34 C 393.85 754.31 429.99 754.35 466.13 754.32 C 466.12 734.22 466.13 714.12 466.13 694.02 C 465.95 681.05 466.48 668.03 465.87 655.09 C 460.60 654.60 455.29 655.02 450.01 654.89 C 419.25 654.88 388.50 654.90 357.74 654.88 Z" />
<path fill="#6b4386" opacity="1.00" d=" M 540.19 614.22 C 588.79 614.21 637.40 614.25 686.00 614.20 C 699.37 613.80 713.57 616.31 724.36 624.71 C 732.69 631.19 737.17 641.66 737.52 652.07 C 737.75 663.72 737.52 675.38 737.63 687.03 C 738.03 693.58 735.53 699.86 732.71 705.63 C 727.52 716.05 718.25 724.35 707.23 728.13 C 700.82 730.43 693.98 731.26 687.20 731.35 C 713.13 752.06 739.13 772.69 765.08 793.37 C 742.32 793.35 719.56 793.49 696.80 793.30 C 688.23 787.31 680.28 780.41 671.94 774.09 C 653.78 759.80 635.58 745.58 617.45 731.25 C 617.57 717.91 617.46 704.56 617.50 691.22 C 638.00 691.32 658.50 691.18 679.00 691.30 C 682.68 691.43 686.72 689.01 686.99 685.05 C 687.51 676.51 686.76 667.93 687.50 659.40 C 685.61 655.11 679.93 655.34 675.99 654.96 C 648.25 654.79 620.51 654.95 592.77 654.88 C 592.79 701.04 592.66 747.20 592.84 793.36 C 575.27 793.40 557.70 793.41 540.14 793.36 C 540.31 733.65 540.21 673.93 540.19 614.22 Z" />
<path fill="#6b4386" opacity="1.00" d=" M 773.23 625.23 C 783.81 616.86 797.75 614.32 810.93 614.24 C 844.96 614.20 878.98 614.23 913.01 614.22 C 919.68 614.29 926.44 613.78 933.03 615.19 C 942.71 617.00 952.28 621.70 958.12 629.86 C 963.23 636.80 965.20 645.54 965.34 654.04 C 965.42 663.86 965.30 673.69 965.41 683.51 C 948.18 683.52 930.96 683.61 913.74 683.47 C 913.85 673.94 913.79 664.42 913.78 654.91 C 881.87 654.86 849.96 654.92 818.05 654.88 C 816.16 654.88 814.28 654.99 812.41 655.10 C 812.53 688.18 812.44 721.26 812.46 754.35 C 846.25 754.31 880.04 754.35 913.83 754.33 C 913.77 744.18 913.80 734.04 913.81 723.89 C 930.98 724.15 948.17 724.22 965.35 723.89 C 965.57 735.59 964.95 747.31 965.76 758.99 C 966.27 768.40 962.45 778.10 954.99 784.02 C 946.30 790.95 934.82 793.00 923.99 793.35 C 886.98 793.47 849.96 793.30 812.95 793.43 C 801.48 794.13 789.56 793.09 779.11 788.00 C 772.17 784.63 766.24 779.02 763.06 771.95 C 760.50 766.36 759.53 760.17 759.58 754.06 C 759.56 720.69 759.60 687.31 759.56 653.94 C 759.54 642.98 764.58 632.04 773.23 625.23 Z" />
<path fill="#6b4386" opacity="1.00" d=" M 981.09 614.20 C 1040.37 614.22 1099.64 614.20 1158.92 614.21 C 1158.87 627.77 1158.88 641.32 1158.91 654.88 C 1118.67 654.91 1078.43 654.84 1038.18 654.91 C 1038.16 664.47 1038.16 674.03 1038.18 683.58 C 1066.73 683.49 1095.28 683.54 1123.83 683.56 C 1123.68 697.03 1123.78 710.50 1123.78 723.98 C 1095.24 724.04 1066.72 724.07 1038.19 723.95 C 1038.13 734.08 1038.23 744.22 1038.13 754.36 C 1078.39 754.38 1118.66 754.38 1158.92 754.36 C 1158.91 767.36 1158.80 780.37 1158.97 793.37 C 1099.64 793.42 1040.30 793.42 980.97 793.37 C 981.29 733.65 981.03 673.92 981.09 614.20 Z" />
<path fill="#6b4386" opacity="1.00" d=" M 255.32 839.03 C 289.82 838.96 324.32 839.01 358.82 839.01 C 324.83 897.01 290.80 954.98 256.83 1013.00 C 510.95 1013.00 765.06 1013.01 1019.17 1012.99 C 985.19 954.99 951.17 897.00 917.18 839.01 C 951.68 839.01 986.19 838.96 1020.69 839.03 C 1070.23 923.73 1119.93 1008.33 1169.52 1093.00 C 815.17 1093.00 460.83 1093.00 106.48 1093.00 C 156.07 1008.33 205.77 923.72 255.32 839.03 Z" />
</g>
</svg>
