<?xml version="1.0" encoding="UTF-8" ?>
<!DOCTYPE svg PUBLIC "-//W3C//DTD SVG 1.1//EN" "http://www.w3.org/Graphics/SVG/1.1/DTD/svg11.dtd">
<svg width="1276pt" height="1276pt" viewBox="0 0 1276 1276" version="1.1" xmlns="http://www.w3.org/2000/svg">
<g id="#45498aff">
<path fill="#45498a" opacity="1.00" d=" M 626.30 206.28 C 630.10 199.43 634.61 192.92 637.89 185.80 L 637.78 187.38 C 637.45 201.25 637.67 215.14 637.66 229.02 C 631.14 239.52 624.98 250.23 618.92 261.00 C 607.08 281.31 595.01 301.48 583.22 321.82 C 582.89 321.38 582.24 320.50 581.92 320.05 C 576.50 316.64 569.73 315.16 565.37 310.22 C 585.68 275.58 605.99 240.93 626.30 206.28 Z" />
</g>
<g id="#d6d7ebff">
<path fill="#d6d7eb" opacity="1.00" d=" M 637.78 187.38 L 638.79 187.11 L 639.25 188.59 C 638.81 201.39 639.19 214.22 639.06 227.03 C 638.86 228.16 638.55 229.26 638.14 230.34 L 637.66 229.02 C 637.67 215.14 637.45 201.25 637.78 187.38 Z" />
</g>
<g id="#b3b3d8ff">
<path fill="#b3b3d8" opacity="1.00" d=" M 639.25 188.59 C 685.79 267.66 732.07 346.90 778.53 426.03 C 776.44 428.72 774.64 431.97 771.40 433.40 C 767.62 435.18 763.94 437.40 759.76 438.07 C 750.54 422.34 741.28 406.64 732.10 390.88 C 703.24 341.71 674.44 292.50 645.55 243.35 C 643.24 238.92 640.21 234.88 638.14 230.34 C 638.55 229.26 638.86 228.16 639.06 227.03 C 639.19 214.22 638.81 201.39 639.25 188.59 Z" />
</g>
<g id="#5656a7ff">
<path fill="#5656a7" opacity="1.00" d=" M 618.92 261.00 C 624.98 250.23 631.14 239.52 637.66 229.02 L 638.14 230.34 C 640.21 234.88 643.24 238.92 645.55 243.35 C 674.44 292.50 703.24 341.71 732.10 390.88 C 670.40 391.27 608.69 390.87 546.99 391.02 C 544.59 390.50 543.71 393.77 541.40 393.28 C 555.17 369.36 569.18 345.58 583.22 321.82 C 595.01 301.48 607.08 281.31 618.92 261.00 Z" />
</g>
<g id="#464588ff">
<path fill="#464588" opacity="1.00" d=" M 514.43 397.12 C 531.41 368.15 548.39 339.18 565.37 310.22 C 569.73 315.16 576.50 316.64 581.92 320.05 C 582.24 320.50 582.89 321.38 583.22 321.82 C 569.18 345.58 555.17 369.36 541.40 393.28 C 538.22 398.07 535.61 403.21 532.46 408.02 C 526.70 403.98 519.09 402.64 514.43 397.12 Z" />
</g>
<g id="#5850a2ff">
<path fill="#5850a2" opacity="1.00" d=" M 541.40 393.28 C 543.71 393.77 544.59 390.50 546.99 391.02 C 608.69 390.87 670.40 391.27 732.10 390.88 C 741.28 406.64 750.54 422.34 759.76 438.07 C 776.46 466.72 793.38 495.24 810.02 523.93 C 696.02 524.09 582.00 523.91 468.01 524.04 C 465.88 523.63 465.51 527.89 463.48 526.02 C 469.33 515.61 475.68 505.48 481.50 495.05 C 491.64 478.52 500.97 461.51 511.01 444.92 C 518.03 432.54 525.52 420.44 532.46 408.02 C 535.61 403.21 538.22 398.07 541.40 393.28 Z" />
</g>
<g id="#474285ff">
<path fill="#474285" opacity="1.00" d=" M 463.46 484.06 C 480.45 455.08 497.43 426.10 514.43 397.12 C 519.09 402.64 526.70 403.98 532.46 408.02 C 525.52 420.44 518.03 432.54 511.01 444.92 C 500.97 461.51 491.64 478.52 481.50 495.05 C 476.55 491.95 471.11 489.75 465.98 486.99 C 464.71 486.45 464.16 485.13 463.46 484.06 Z" />
</g>
<g id="#b4afd4ff">
<path fill="#b4afd4" opacity="1.00" d=" M 778.53 426.03 C 819.78 496.47 861.15 566.85 902.33 637.32 C 891.45 631.39 880.84 624.97 870.02 618.93 C 868.05 617.85 866.27 616.29 864.00 615.91 C 846.02 585.24 828.08 554.55 810.02 523.93 C 793.38 495.24 776.46 466.72 759.76 438.07 C 763.94 437.40 767.62 435.18 771.40 433.40 C 774.64 431.97 776.44 428.72 778.53 426.03 Z" />
</g>
<g id="#493d81ff">
<path fill="#493d81" opacity="1.00" d=" M 374.25 636.32 C 403.92 585.53 433.73 534.81 463.46 484.06 C 464.16 485.13 464.71 486.45 465.98 486.99 C 471.11 489.75 476.55 491.95 481.50 495.05 C 475.68 505.48 469.33 515.61 463.48 526.02 C 445.83 555.98 428.24 585.96 410.75 616.00 C 400.48 621.98 390.09 627.76 379.85 633.80 C 378.09 634.85 376.22 635.74 374.25 636.32 Z" />
</g>
<g id="#59499eff">
<path fill="#59499e" opacity="1.00" d=" M 463.48 526.02 C 465.51 527.89 465.88 523.63 468.01 524.04 C 582.00 523.91 696.02 524.09 810.02 523.93 C 828.08 554.55 846.02 585.24 864.00 615.91 C 712.92 616.08 561.83 615.89 410.75 616.00 C 428.24 585.96 445.83 555.98 463.48 526.02 Z" />
</g>
<g id="#281f44ff">
<path fill="#281f44" opacity="1.00" d=" M 379.85 633.80 C 390.09 627.76 400.48 621.98 410.75 616.00 C 561.83 615.89 712.92 616.08 864.00 615.91 C 866.27 616.29 868.05 617.85 870.02 618.93 C 880.84 624.97 891.45 631.39 902.33 637.32 C 902.51 637.46 902.85 637.73 903.02 637.86 C 829.02 638.18 754.99 637.91 680.98 638.00 C 578.49 638.00 476.00 638.00 373.51 638.00 C 373.70 637.58 374.07 636.74 374.25 636.32 C 376.22 635.74 378.09 634.85 379.85 633.80 Z" />
</g>
<g id="#b7a9d0ff">
<path fill="#b7a9d0" opacity="1.00" d=" M 371.26 640.52 C 380.09 654.56 388.20 669.08 396.77 683.31 C 432.37 743.59 467.96 803.88 503.60 864.14 C 498.75 870.12 490.11 870.70 484.78 876.10 C 471.15 853.08 457.62 830.01 443.91 807.04 C 423.98 773.04 403.82 739.17 383.80 705.21 C 379.49 698.30 375.77 691.03 371.21 684.29 C 370.62 670.28 371.25 656.24 370.87 642.23 C 370.97 641.80 371.16 640.94 371.26 640.52 Z" />
</g>
<g id="#b6a9d0ff">
<path fill="#b6a9d0" opacity="1.00" d=" M 904.31 641.06 C 913.45 655.55 921.74 670.64 930.56 685.36 C 956.89 730.27 983.19 775.18 1009.54 820.08 C 1008.23 821.76 1007.03 823.54 1005.57 825.10 C 1005.13 824.99 1004.70 824.90 1004.28 824.82 C 1003.98 825.37 1003.70 825.93 1003.44 826.52 C 1003.15 826.25 1002.58 825.71 1002.29 825.44 C 1002.13 825.95 1001.81 826.96 1001.65 827.47 C 1001.17 827.13 1000.70 826.81 1000.25 826.50 C 1000.12 826.99 999.87 827.96 999.75 828.44 C 999.44 828.25 998.83 827.87 998.53 827.67 C 998.22 828.16 997.93 828.67 997.66 829.19 C 997.39 829.10 996.83 828.93 996.56 828.84 C 996.15 829.31 995.80 829.83 995.44 830.33 C 995.17 830.16 994.64 829.83 994.38 829.66 C 994.13 830.23 993.90 830.82 993.68 831.42 C 993.37 831.24 992.73 830.87 992.41 830.69 C 991.85 831.16 991.31 831.66 990.82 832.20 C 985.90 823.81 980.93 815.44 976.05 807.04 C 955.73 772.35 935.38 737.69 915.05 703.01 C 911.24 696.95 908.11 690.46 903.95 684.63 C 903.98 670.60 904.06 656.57 903.91 642.55 C 904.01 642.18 904.21 641.43 904.31 641.06 Z" />
</g>
<g id="#4b347aff">
<path fill="#4b347a" opacity="1.00" d=" M 258.77 833.25 C 296.14 769.58 333.30 705.77 370.87 642.23 C 371.25 656.24 370.62 670.28 371.21 684.29 C 369.35 686.48 367.79 688.89 366.41 691.41 C 343.63 730.84 320.18 769.88 297.47 809.35 C 290.48 820.69 283.98 832.33 277.22 843.81 C 275.49 839.75 270.56 841.30 267.31 839.76 C 263.73 838.56 262.33 834.51 258.77 833.25 Z" />
</g>
<g id="#4b367cff">
<path fill="#4b367c" opacity="1.00" d=" M 838.44 753.16 C 860.29 716.31 881.95 679.34 903.91 642.55 C 904.06 656.57 903.98 670.60 903.95 684.63 C 897.49 693.53 892.85 703.59 886.81 712.77 C 876.78 730.21 866.42 747.46 856.20 764.80 C 855.13 761.49 851.27 760.91 848.64 759.30 C 845.22 757.31 840.98 756.38 838.44 753.16 Z" />
</g>
<g id="#5d3e94ff">
<path fill="#5d3e94" opacity="1.00" d=" M 366.41 691.41 C 367.79 688.89 369.35 686.48 371.21 684.29 C 375.77 691.03 379.49 698.30 383.80 705.21 C 403.82 739.17 423.98 773.04 443.91 807.04 C 396.94 806.95 349.95 807.05 302.98 806.98 C 300.56 806.41 299.79 809.84 297.47 809.35 C 320.18 769.88 343.63 730.84 366.41 691.41 Z" />
<path fill="#5d3e94" opacity="1.00" d=" M 886.81 712.77 C 892.85 703.59 897.49 693.53 903.95 684.63 C 908.11 690.46 911.24 696.95 915.05 703.01 C 935.38 737.69 955.73 772.35 976.05 807.04 C 936.36 807.04 896.67 807.03 856.98 807.00 C 849.11 807.21 841.19 806.67 833.36 807.31 C 829.98 811.36 827.95 816.33 824.94 820.64 C 824.58 820.53 823.88 820.32 823.53 820.21 C 834.40 801.73 845.20 783.20 856.20 764.80 C 866.42 747.46 876.78 730.21 886.81 712.77 Z" />
</g>
<g id="#4c3279ff">
<path fill="#4c3279" opacity="1.00" d=" M 792.39 831.11 C 807.73 805.12 823.09 779.14 838.44 753.16 C 840.98 756.38 845.22 757.31 848.64 759.30 C 851.27 760.91 855.13 761.49 856.20 764.80 C 845.20 783.20 834.40 801.73 823.53 820.21 C 818.88 827.64 814.64 835.32 810.16 842.85 C 809.33 839.71 805.76 839.07 803.32 837.61 C 799.63 835.53 795.13 834.54 792.39 831.11 Z" />
</g>
<g id="#5e3a91ff">
<path fill="#5e3a91" opacity="1.00" d=" M 297.47 809.35 C 299.79 809.84 300.56 806.41 302.98 806.98 C 349.95 807.05 396.94 806.95 443.91 807.04 C 457.62 830.01 471.15 853.08 484.78 876.10 L 485.15 876.79 C 468.78 877.26 452.38 876.91 435.99 876.97 C 377.98 877.05 319.98 876.97 261.97 877.04 C 259.60 876.49 258.70 879.66 256.45 879.35 C 263.14 867.37 270.13 855.55 277.22 843.81 C 283.98 832.33 290.48 820.69 297.47 809.35 Z" />
</g>
<g id="#5f3891ff">
<path fill="#5f3891" opacity="1.00" d=" M 833.36 807.31 C 841.19 806.67 849.11 807.21 856.98 807.00 C 896.67 807.03 936.36 807.04 976.05 807.04 C 980.93 815.44 985.90 823.81 990.82 832.20 C 1008.49 862.49 1026.30 892.69 1044.00 922.96 C 961.33 923.12 878.65 922.94 795.98 923.02 C 785.72 923.12 775.43 922.69 765.20 923.18 C 763.98 923.94 763.18 926.08 761.48 925.19 C 775.60 900.80 790.15 876.66 804.38 852.33 C 806.15 849.07 808.16 845.97 810.16 842.85 C 814.64 835.32 818.88 827.64 823.53 820.21 C 823.88 820.32 824.58 820.53 824.94 820.64 C 827.95 816.33 829.98 811.36 833.36 807.31 Z" />
</g>
<g id="#b7a4ccff">
<path fill="#b7a4cc" opacity="1.00" d=" M 1009.54 820.08 C 1062.71 910.90 1116.08 1001.62 1169.15 1092.51 C 1160.83 1087.57 1152.37 1082.91 1144.03 1078.03 C 1139.59 1075.77 1135.53 1072.66 1130.89 1070.93 C 1101.75 1021.71 1072.98 972.28 1044.00 922.96 C 1026.30 892.69 1008.49 862.49 990.82 832.20 C 991.31 831.66 991.85 831.16 992.41 830.69 C 992.73 830.87 993.37 831.24 993.68 831.42 C 993.90 830.82 994.13 830.23 994.38 829.66 C 994.64 829.83 995.17 830.16 995.44 830.33 C 995.80 829.83 996.15 829.31 996.56 828.84 C 996.83 828.93 997.39 829.10 997.66 829.19 C 997.93 828.67 998.22 828.16 998.53 827.67 C 998.83 827.87 999.44 828.25 999.75 828.44 C 999.87 827.96 1000.12 826.99 1000.25 826.50 C 1000.70 826.81 1001.17 827.13 1001.65 827.47 C 1001.81 826.96 1002.13 825.95 1002.29 825.44 C 1002.58 825.71 1003.15 826.25 1003.44 826.52 C 1003.70 825.93 1003.98 825.37 1004.28 824.82 C 1004.70 824.90 1005.13 824.99 1005.57 825.10 C 1007.03 823.54 1008.23 821.76 1009.54 820.08 Z" />
<path fill="#b7a4cc" opacity="1.00" d=" M 503.60 864.14 C 546.67 937.10 589.78 1010.04 632.86 1083.00 C 634.83 1085.97 636.19 1089.38 638.62 1092.05 C 634.43 1090.85 630.95 1087.84 627.01 1085.98 C 617.96 1081.05 609.29 1075.21 599.95 1070.93 C 578.54 1035.02 557.40 998.94 536.06 962.98 C 519.12 934.23 502.12 905.52 485.15 876.79 L 484.78 876.10 C 490.11 870.70 498.75 870.12 503.60 864.14 Z" />
</g>
<g id="#4d2e76ff">
<path fill="#4d2e76" opacity="1.00" d=" M 737.43 924.07 C 755.76 893.09 774.05 862.09 792.39 831.11 C 795.13 834.54 799.63 835.53 803.32 837.61 C 805.76 839.07 809.33 839.71 810.16 842.85 C 808.16 845.97 806.15 849.07 804.38 852.33 C 790.15 876.66 775.60 900.80 761.48 925.19 C 759.42 928.43 757.54 931.78 755.44 934.99 C 749.73 930.86 741.96 929.73 737.43 924.07 Z" />
</g>
<g id="#4d2e75ff">
<path fill="#4d2e75" opacity="1.00" d=" M 191.43 948.08 C 213.89 909.81 236.28 871.50 258.77 833.25 C 262.33 834.51 263.73 838.56 267.31 839.76 C 270.56 841.30 275.49 839.75 277.22 843.81 C 270.13 855.55 263.14 867.37 256.45 879.35 C 248.83 891.27 242.28 903.81 234.81 915.82 C 226.49 930.32 217.99 944.71 209.49 959.10 C 204.56 955.92 199.09 953.74 193.94 950.97 C 192.71 950.40 192.14 949.12 191.43 948.08 Z" />
</g>
<g id="#5f368eff">
<path fill="#5f368e" opacity="1.00" d=" M 256.45 879.35 C 258.70 879.66 259.60 876.49 261.97 877.04 C 319.98 876.97 377.98 877.05 435.99 876.97 C 452.38 876.91 468.78 877.26 485.15 876.79 C 502.12 905.52 519.12 934.23 536.06 962.98 C 439.39 963.06 342.72 962.97 246.05 963.01 C 233.80 963.19 221.51 962.62 209.29 963.32 C 206.40 966.22 205.48 970.61 202.46 973.36 L 201.34 973.20 C 203.95 968.44 206.72 963.77 209.49 959.10 C 217.99 944.71 226.49 930.32 234.81 915.82 C 242.28 903.81 248.83 891.27 256.45 879.35 Z" />
</g>
<g id="#60338cff">
<path fill="#60338c" opacity="1.00" d=" M 761.48 925.19 C 763.18 926.08 763.98 923.94 765.20 923.18 C 775.43 922.69 785.72 923.12 795.98 923.02 C 878.65 922.94 961.33 923.12 1044.00 922.96 C 1072.98 972.28 1101.75 1021.71 1130.89 1070.93 C 1013.26 1071.03 895.64 1070.94 778.01 1070.97 C 743.72 1071.04 709.43 1070.83 675.14 1071.08 C 695.52 1036.76 715.70 1002.32 736.07 968.00 C 742.63 957.06 749.06 946.05 755.44 934.99 C 757.54 931.78 759.42 928.43 761.48 925.19 Z" />
</g>
<g id="#4e2a73ff">
<path fill="#4e2a73" opacity="1.00" d=" M 638.54 1091.39 C 671.53 1035.63 704.46 979.84 737.43 924.07 C 741.96 929.73 749.73 930.86 755.44 934.99 C 749.06 946.05 742.63 957.06 736.07 968.00 C 715.70 1002.32 695.52 1036.76 675.14 1071.08 C 663.00 1078.08 650.79 1084.97 638.68 1092.02 L 638.54 1091.39 Z" />
</g>
<g id="#4e2972ff">
<path fill="#4e2972" opacity="1.00" d=" M 107.59 1091.29 C 135.36 1043.46 163.51 995.83 191.43 948.08 C 192.14 949.12 192.71 950.40 193.94 950.97 C 199.09 953.74 204.56 955.92 209.49 959.10 C 206.72 963.77 203.95 968.44 201.34 973.20 C 182.05 1005.70 163.08 1038.42 143.94 1071.03 C 134.06 1076.81 124.06 1082.39 114.17 1088.18 C 112.08 1089.41 109.87 1090.46 107.59 1091.29 Z" />
</g>
<g id="#60338bff">
<path fill="#60338b" opacity="1.00" d=" M 209.29 963.32 C 221.51 962.62 233.80 963.19 246.05 963.01 C 342.72 962.97 439.39 963.06 536.06 962.98 C 557.40 998.94 578.54 1035.02 599.95 1070.93 C 447.95 1071.08 295.95 1070.87 143.94 1071.03 C 163.08 1038.42 182.05 1005.70 201.34 973.20 L 202.46 973.36 C 205.48 970.61 206.40 966.22 209.29 963.32 Z" />
</g>
<g id="#2b163dff">
<path fill="#2b163d" opacity="1.00" d=" M 114.17 1088.18 C 124.06 1082.39 134.06 1076.81 143.94 1071.03 C 295.95 1070.87 447.95 1071.08 599.95 1070.93 C 609.29 1075.21 617.96 1081.05 627.01 1085.98 C 630.95 1087.84 634.43 1090.85 638.62 1092.05 L 638.68 1092.02 C 650.79 1084.97 663.00 1078.08 675.14 1071.08 C 709.43 1070.83 743.72 1071.04 778.01 1070.97 C 895.64 1070.94 1013.26 1071.03 1130.89 1070.93 C 1135.53 1072.66 1139.59 1075.77 1144.03 1078.03 C 1152.37 1082.91 1160.83 1087.57 1169.15 1092.51 L 1169.80 1092.98 C 815.39 1093.00 460.97 1093.04 106.56 1092.96 C 106.82 1092.54 107.33 1091.71 107.59 1091.29 C 109.87 1090.46 112.08 1089.41 114.17 1088.18 Z" />
</g>
</svg>
