<?xml version="1.0" encoding="UTF-8" ?>
<!DOCTYPE svg PUBLIC "-//W3C//DTD SVG 1.1//EN" "http://www.w3.org/Graphics/SVG/1.1/DTD/svg11.dtd">
<svg width="1276pt" height="1276pt" viewBox="0 0 1276 1276" version="1.1" xmlns="http://www.w3.org/2000/svg">
<g id="#6b4386ff">
<path fill="#6b4386" opacity="1.00" d=" M 637.93 186.14 C 679.12 256.56 720.44 326.91 761.68 397.30 C 778.62 426.39 795.90 455.29 812.64 484.50 C 807.79 484.26 803.32 481.56 798.38 482.36 C 787.99 475.54 775.34 472.83 763.03 473.02 C 711.62 473.18 660.19 472.85 608.78 473.19 L 608.26 473.24 C 607.97 474.75 607.74 476.28 607.52 477.82 C 603.61 477.85 599.71 477.87 595.82 477.92 C 595.80 476.30 595.80 474.68 595.79 473.07 C 553.82 473.06 511.85 472.95 469.89 473.13 C 510.90 403.09 551.98 333.09 593.02 263.06 C 607.94 237.40 623.23 211.93 637.93 186.14 Z" />
<path fill="#6b4386" opacity="1.00" d=" M 336.88 699.97 C 357.76 664.35 378.64 628.74 399.52 593.13 C 404.64 594.05 409.83 594.45 415.01 594.91 C 421.80 595.35 428.82 599.19 431.48 605.70 C 433.93 611.09 434.16 617.11 434.04 622.94 C 434.00 638.30 434.10 653.66 434.00 669.02 C 433.58 678.13 434.84 687.25 436.79 696.13 C 438.14 702.28 441.88 708.80 439.07 715.07 C 436.34 719.21 430.96 720.25 426.64 722.02 C 402.74 722.09 378.85 722.01 354.96 722.06 C 342.05 722.20 328.76 725.08 318.03 732.56 C 323.93 721.48 330.66 710.86 336.88 699.97 Z" />
<path fill="#6b4386" opacity="1.00" d=" M 232.15 920.16 C 236.30 912.95 245.22 910.47 253.06 910.96 C 260.95 911.39 269.81 909.39 276.66 914.47 C 281.88 918.58 286.54 923.79 288.84 930.12 C 293.60 942.56 302.82 952.68 313.03 960.96 C 328.09 972.73 347.33 977.48 366.05 979.15 C 377.98 980.66 390.01 979.79 402.00 980.05 C 423.33 979.93 444.67 980.10 466.00 979.98 C 480.37 980.22 494.78 978.86 508.82 975.74 C 522.01 973.03 535.86 971.39 549.10 974.75 C 560.90 977.43 572.91 979.38 585.00 979.97 C 597.23 978.87 609.99 977.88 621.02 971.96 C 629.90 967.23 636.00 959.01 643.22 952.27 C 646.17 949.54 649.82 946.98 653.99 947.00 C 660.42 947.43 665.90 951.28 670.82 955.11 C 681.13 963.00 692.30 970.05 704.67 974.20 C 712.81 977.12 721.41 978.42 729.99 979.29 C 740.62 980.81 751.37 979.60 762.05 980.06 C 769.08 980.50 776.01 978.86 783.03 979.00 C 794.69 979.25 806.37 978.57 818.01 979.17 C 826.29 980.51 834.68 979.85 843.02 980.02 C 871.69 980.04 900.37 979.99 929.04 980.06 C 934.65 979.86 940.21 979.00 945.82 978.62 C 959.99 977.46 974.20 974.70 988.44 976.51 C 1000.60 978.07 1012.80 979.21 1025.03 980.07 C 1051.10 979.95 1077.17 980.12 1103.25 979.95 C 1125.36 1017.63 1147.43 1055.34 1169.56 1093.02 C 815.19 1092.99 460.81 1092.99 106.44 1093.02 C 128.80 1054.98 151.06 1016.87 173.43 978.83 C 180.53 979.25 187.38 976.92 194.15 975.12 C 208.74 969.60 220.62 957.14 225.29 942.22 C 227.81 934.93 227.45 926.62 232.15 920.16 Z" />
</g>
<g id="#ffffffff">
<path fill="#ffffff" opacity="1.00" d=" M 372.05 473.19 C 404.66 473.17 437.28 473.31 469.89 473.13 C 511.85 472.95 553.82 473.06 595.79 473.07 C 595.80 474.68 595.80 476.30 595.82 477.92 C 595.82 481.60 595.81 485.28 595.82 488.97 C 595.82 491.95 595.81 494.93 595.82 497.92 C 595.81 500.67 595.82 503.43 595.83 506.19 C 595.84 509.40 595.83 512.60 595.77 515.81 C 567.89 515.84 540.00 515.81 512.11 515.83 C 512.30 563.71 512.04 611.60 512.25 659.49 C 499.16 659.74 486.07 659.55 472.98 659.61 C 467.15 659.60 461.32 659.54 455.50 659.74 C 454.79 655.85 455.07 651.89 455.06 647.97 C 455.06 625.73 455.06 603.49 455.06 581.26 C 455.05 574.25 455.07 567.24 455.06 560.24 C 455.06 545.43 455.06 530.63 455.06 515.82 C 451.63 515.84 448.20 515.85 444.77 515.67 C 420.54 515.46 396.30 515.58 372.07 515.61 C 372.04 501.47 372.07 487.33 372.05 473.19 Z" />
<path fill="#ffffff" opacity="1.00" d=" M 608.78 473.19 C 660.19 472.85 711.62 473.18 763.03 473.02 C 775.34 472.83 787.99 475.54 798.38 482.36 C 803.17 485.91 807.31 490.40 810.04 495.73 C 811.58 498.93 812.67 502.35 813.46 505.83 C 814.44 511.11 814.31 516.50 814.33 521.86 C 814.25 532.73 814.48 543.61 814.18 554.48 C 811.41 566.88 804.51 578.60 793.99 585.94 C 784.74 592.38 773.30 595.19 762.11 594.99 C 773.90 604.44 785.76 613.80 797.56 623.23 C 802.52 627.20 807.52 631.12 812.47 635.11 C 822.68 643.19 832.82 651.34 843.07 659.37 C 834.89 659.89 826.69 659.42 818.51 659.62 C 814.27 659.60 810.03 659.58 805.80 659.60 C 794.35 659.59 782.91 659.59 771.47 659.59 C 743.99 638.06 716.52 616.51 689.10 594.92 C 689.14 580.98 689.08 567.04 689.13 553.10 C 710.44 553.03 731.76 553.07 753.08 553.09 C 756.71 553.21 761.05 551.01 761.26 546.97 C 761.80 538.06 760.95 529.11 761.83 520.21 C 760.06 516.19 754.73 516.11 750.96 515.85 C 721.92 515.79 692.87 515.86 663.82 515.82 C 663.84 563.73 663.84 611.65 663.82 659.56 C 654.87 659.62 645.91 659.58 636.96 659.60 C 632.99 659.59 629.01 659.60 625.04 659.60 C 620.72 659.54 616.40 659.68 612.08 659.57 C 610.95 659.51 609.83 659.47 608.71 659.46 C 608.83 631.11 608.87 602.75 608.72 574.41 C 608.81 550.04 608.83 525.68 608.71 501.32 C 609.02 491.94 608.66 482.56 608.78 473.19 Z" />
<path fill="#ffffff" opacity="1.00" d=" M 847.74 473.19 C 866.68 473.23 885.62 473.21 904.57 473.19 C 904.51 510.80 904.56 548.41 904.55 586.02 C 904.70 604.63 904.23 623.27 904.79 641.87 C 904.80 647.78 904.81 653.69 904.73 659.59 C 888.98 659.60 873.24 659.58 857.50 659.63 C 854.17 659.62 850.84 659.59 847.52 659.55 C 847.54 639.58 847.56 619.62 847.54 599.65 C 847.61 580.90 847.40 562.14 847.64 543.39 C 847.86 519.99 847.67 496.59 847.74 473.19 Z" />
<path fill="#ffffff" opacity="1.00" d=" M 117.45 722.19 C 173.86 722.21 230.27 722.21 286.68 722.20 C 286.64 735.76 286.64 749.32 286.68 762.89 C 248.73 762.88 210.77 762.90 172.81 762.88 C 172.77 772.42 172.85 781.97 172.77 791.52 C 204.82 791.58 236.87 791.50 268.93 791.55 C 268.83 799.34 268.79 807.13 268.94 814.91 C 269.20 820.65 269.12 826.40 269.11 832.15 C 265.84 832.16 262.58 832.16 259.32 832.12 C 230.48 831.90 201.65 832.16 172.81 831.92 C 172.86 855.07 172.69 878.22 172.89 901.37 C 154.41 901.44 135.93 901.37 117.44 901.40 C 117.52 841.67 117.50 781.93 117.45 722.19 Z" />
<path fill="#ffffff" opacity="1.00" d=" M 318.03 732.56 C 328.76 725.08 342.05 722.20 354.96 722.06 C 378.85 722.01 402.74 722.09 426.64 722.02 C 437.76 722.06 448.89 722.04 460.01 722.05 C 466.06 722.07 472.13 721.80 478.15 722.58 C 485.80 723.59 493.40 725.54 500.26 729.15 C 507.10 732.78 513.01 738.35 516.46 745.34 C 518.64 749.81 519.62 754.74 520.19 759.66 C 520.25 792.79 520.10 825.91 520.19 859.04 C 520.50 870.08 515.41 880.96 507.33 888.38 C 500.64 894.63 491.89 898.25 483.01 900.04 C 472.47 902.25 461.66 901.51 450.99 901.64 C 416.66 901.75 382.33 901.42 348.01 901.81 C 341.24 901.50 334.45 900.54 327.98 898.48 C 320.91 896.12 314.11 892.40 309.25 886.64 C 304.28 880.96 301.78 873.50 301.18 866.06 C 300.94 831.16 301.12 796.27 301.09 761.37 C 302.90 750.04 308.87 739.53 318.03 732.56 M 357.92 763.17 C 357.92 767.83 357.92 772.49 357.92 777.15 C 357.92 805.47 357.93 833.79 357.92 862.12 C 360.66 862.10 363.41 862.10 366.16 862.11 C 371.17 862.11 376.18 862.10 381.19 862.11 C 386.06 862.11 390.93 862.10 395.80 862.11 C 403.88 862.13 411.96 862.06 420.04 862.14 C 426.38 862.09 432.73 862.08 439.07 862.14 C 448.06 862.07 457.05 862.09 466.03 862.15 L 465.85 861.45 C 465.76 847.07 466.10 832.67 465.77 818.31 C 465.93 800.42 466.01 782.52 465.78 764.64 C 465.85 764.28 466.01 763.56 466.08 763.20 C 430.03 763.13 393.98 763.19 357.92 763.17 Z" />
<path fill="#ffffff" opacity="1.00" d=" M 540.06 722.07 C 549.11 722.02 558.16 722.05 567.21 722.05 C 573.06 722.06 578.91 722.06 584.77 722.04 C 599.93 722.04 615.09 722.06 630.25 722.05 C 650.05 722.03 669.84 722.09 689.64 722.01 C 700.94 722.04 712.59 724.48 722.09 730.83 C 728.29 734.91 732.90 741.12 735.47 748.05 C 737.09 752.80 737.75 757.82 737.85 762.83 C 737.89 768.49 737.82 774.16 737.85 779.83 C 737.73 786.48 738.09 793.14 737.69 799.78 C 735.02 813.99 726.04 827.31 712.96 833.87 C 705.19 837.92 696.36 839.40 687.66 839.53 C 704.79 853.16 721.93 866.76 739.04 880.42 C 747.59 887.19 756.09 894.04 764.69 900.75 C 764.72 901.00 764.77 901.49 764.79 901.74 C 742.03 901.50 719.27 901.70 696.52 901.61 C 670.10 880.88 643.72 860.11 617.28 839.41 C 617.20 825.97 617.26 812.54 617.25 799.11 C 636.49 799.03 655.73 799.04 674.97 799.10 C 678.14 799.06 681.75 799.49 684.43 797.39 C 686.41 795.93 686.98 793.34 687.00 791.01 C 687.15 785.34 686.92 779.66 687.04 773.99 C 686.96 771.44 687.61 768.80 686.90 766.32 C 682.61 762.48 676.30 763.34 670.99 763.16 C 644.97 763.19 618.96 763.17 592.94 763.17 C 592.94 766.78 592.94 770.40 592.94 774.03 C 592.91 816.56 592.99 859.09 592.90 901.62 C 575.30 901.63 557.70 901.60 540.11 901.64 C 539.97 860.50 540.09 819.37 540.05 778.24 C 540.04 774.76 540.04 771.30 540.05 767.83 C 540.05 761.24 540.04 754.66 540.05 748.07 C 540.06 739.40 540.02 730.73 540.06 722.07 Z" />
<path fill="#ffffff" opacity="1.00" d=" M 790.29 724.63 C 801.88 721.26 814.03 722.15 825.95 722.05 C 858.63 722.04 891.31 722.06 923.99 722.04 C 927.55 722.02 931.09 722.51 934.57 723.29 C 946.04 725.62 956.74 732.74 961.77 743.54 C 963.67 748.18 964.97 753.06 965.31 758.08 C 965.43 760.03 965.53 761.99 965.60 763.96 C 965.67 773.20 965.55 782.45 965.63 791.70 C 952.27 791.90 938.90 791.71 925.54 791.80 C 921.59 791.78 917.64 791.77 913.70 791.81 C 913.61 782.27 913.60 772.74 913.67 763.20 C 880.02 763.16 846.37 763.20 812.71 763.19 C 812.70 796.17 812.73 829.14 812.69 862.12 C 817.47 862.10 822.25 862.10 827.03 862.11 C 832.41 862.11 837.79 862.10 843.17 862.11 C 848.47 862.11 853.77 862.10 859.08 862.11 C 877.29 862.11 895.51 862.10 913.72 862.12 C 913.66 857.57 913.65 853.04 913.62 848.51 C 913.60 842.91 913.62 837.31 913.65 831.72 C 930.93 831.79 948.22 832.09 965.50 831.68 C 965.91 843.10 965.23 854.55 965.91 865.97 C 966.05 869.07 965.91 872.19 965.37 875.26 C 963.68 882.98 958.97 890.03 952.23 894.24 C 943.26 899.90 932.41 901.44 921.99 901.62 C 885.68 901.72 849.37 901.55 813.07 901.67 C 798.41 902.52 782.27 900.61 770.75 890.65 C 764.17 884.81 760.40 876.31 759.61 867.62 C 758.94 840.75 759.52 813.85 759.33 786.97 C 759.34 781.35 759.32 775.74 759.32 770.13 C 759.32 765.74 759.19 761.35 759.68 756.99 C 760.63 750.78 762.93 744.73 766.74 739.71 C 772.39 731.96 781.20 727.16 790.29 724.63 Z" />
<path fill="#ffffff" opacity="1.00" d=" M 981.06 722.21 C 1040.34 722.18 1099.62 722.23 1158.91 722.19 C 1158.88 735.76 1158.87 749.32 1158.91 762.89 C 1118.67 762.88 1078.43 762.89 1038.19 762.88 C 1038.12 772.44 1038.24 781.99 1038.12 791.54 C 1066.69 791.55 1095.27 791.51 1123.84 791.56 C 1123.66 805.02 1123.80 818.49 1123.77 831.96 C 1095.24 832.13 1066.71 832.02 1038.20 831.90 C 1038.12 842.05 1038.24 852.21 1038.13 862.36 C 1078.39 862.36 1118.65 862.39 1158.91 862.35 C 1158.92 875.35 1158.79 888.37 1158.98 901.37 C 1125.08 901.50 1091.17 901.24 1057.27 901.51 C 1031.84 901.82 1006.41 901.52 980.98 901.66 C 980.66 858.08 980.96 814.50 980.86 770.92 C 981.39 754.70 981.02 738.44 981.06 722.21 Z" />
</g>
<g id="#5f3b77ff">
<path fill="#5f3b77" opacity="1.00" d=" M 608.26 473.24 L 608.78 473.19 C 608.66 482.56 609.02 491.94 608.71 501.32 L 608.47 502.55 C 608.36 501.01 608.27 499.48 608.17 497.95 C 608.00 495.01 607.90 492.06 607.77 489.12 C 603.79 488.96 599.80 488.91 595.82 488.97 C 595.81 485.28 595.82 481.60 595.82 477.92 C 599.71 477.87 603.61 477.85 607.52 477.82 C 607.74 476.28 607.97 474.75 608.26 473.24 Z" />
</g>
<g id="#5f3c77ff">
<path fill="#5f3c77" opacity="1.00" d=" M 798.38 482.36 C 803.32 481.56 807.79 484.26 812.64 484.50 L 812.86 484.53 C 815.46 489.16 818.39 493.61 820.74 498.38 C 817.07 497.94 813.53 496.88 810.04 495.73 C 807.31 490.40 803.17 485.91 798.38 482.36 Z" />
</g>
<g id="#55356bff">
<path fill="#55356b" opacity="1.00" d=" M 595.82 488.97 C 599.80 488.91 603.79 488.96 607.77 489.12 C 607.90 492.06 608.00 495.01 608.17 497.95 C 604.05 497.95 599.93 497.94 595.82 497.92 C 595.81 494.93 595.82 491.95 595.82 488.97 Z" />
</g>
<g id="#56366cff">
<path fill="#56366c" opacity="1.00" d=" M 810.04 495.73 C 813.53 496.88 817.07 497.94 820.74 498.38 L 821.06 498.43 C 823.17 502.28 825.57 505.97 827.58 509.88 C 822.68 509.25 818.24 506.93 813.46 505.83 C 812.67 502.35 811.58 498.93 810.04 495.73 Z" />
</g>
<g id="#4c2f5fff">
<path fill="#4c2f5f" opacity="1.00" d=" M 595.82 497.92 C 599.93 497.94 604.05 497.95 608.17 497.95 C 608.27 499.48 608.36 501.01 608.47 502.55 C 607.95 503.94 608.15 506.47 606.03 506.32 C 602.63 506.68 599.22 506.33 595.83 506.19 C 595.82 503.43 595.81 500.67 595.82 497.92 Z" />
</g>
<g id="#352143ff">
<path fill="#352143" opacity="1.00" d=" M 608.47 502.55 L 608.71 501.32 C 608.83 525.68 608.81 550.04 608.72 574.41 L 608.15 575.43 C 608.10 571.69 607.89 567.96 607.72 564.22 C 595.88 557.67 581.71 554.77 568.34 557.44 C 557.60 559.27 546.51 563.81 540.01 572.97 C 532.81 583.10 531.14 595.87 530.13 607.95 C 530.02 621.98 529.98 636.02 530.04 650.06 C 529.56 661.51 531.70 673.98 525.38 684.30 C 521.45 692.06 513.20 696.51 504.96 698.22 C 494.41 699.65 483.51 693.83 478.26 684.66 C 473.85 677.13 473.05 668.17 472.98 659.61 C 486.07 659.55 499.16 659.74 512.25 659.49 C 512.04 611.60 512.30 563.71 512.11 515.83 C 540.00 515.81 567.89 515.84 595.77 515.81 C 595.83 512.60 595.84 509.40 595.83 506.19 C 599.22 506.33 602.63 506.68 606.03 506.32 C 608.15 506.47 607.95 503.94 608.47 502.55 Z" />
<path fill="#352143" opacity="1.00" d=" M 812.71 763.19 C 846.37 763.20 880.02 763.16 913.67 763.20 C 913.60 772.74 913.61 782.27 913.70 791.81 C 917.64 791.77 921.59 791.78 925.54 791.80 C 933.75 799.12 942.50 806.29 952.90 810.23 C 961.43 813.92 970.97 813.57 979.80 816.24 C 980.06 824.83 979.83 833.43 979.93 842.03 C 979.71 850.55 980.52 859.15 979.53 867.62 C 976.13 871.82 970.58 874.07 965.37 875.26 C 965.91 872.19 966.05 869.07 965.91 865.97 C 965.23 854.55 965.91 843.10 965.50 831.68 C 960.18 829.88 953.79 832.64 949.21 828.73 C 942.09 823.47 934.92 818.26 927.23 813.86 C 922.29 811.08 917.73 807.60 912.44 805.49 C 907.18 803.34 901.72 801.62 896.10 800.73 C 889.79 799.73 883.40 798.40 876.99 799.24 C 869.24 800.23 861.40 801.33 854.07 804.15 C 842.98 808.63 834.25 818.20 830.63 829.59 C 826.68 839.97 826.83 851.18 827.03 862.11 C 822.25 862.10 817.47 862.10 812.69 862.12 C 812.73 829.14 812.70 796.17 812.71 763.19 Z" />
</g>
<g id="#482d5aff">
<path fill="#482d5a" opacity="1.00" d=" M 813.46 505.83 C 818.24 506.93 822.68 509.25 827.58 509.88 L 827.81 509.92 C 832.03 517.49 836.79 524.75 840.75 532.46 C 836.54 532.84 832.73 530.78 829.04 529.08 C 824.13 526.68 819.30 524.12 814.33 521.86 C 814.31 516.50 814.44 511.11 813.46 505.83 Z" />
<path fill="#482d5a" opacity="1.00" d=" M 568.34 557.44 C 581.71 554.77 595.88 557.67 607.72 564.22 C 607.89 567.96 608.10 571.69 608.15 575.43 C 607.79 582.87 607.89 590.32 607.71 597.77 C 604.78 589.12 599.11 581.12 590.71 577.10 C 585.02 574.10 578.31 574.26 572.11 575.07 C 562.72 577.18 554.95 584.48 551.18 593.20 C 547.67 600.64 547.60 609.04 546.77 617.07 C 546.69 635.71 546.80 654.37 546.73 673.02 C 546.05 684.01 543.47 695.62 536.03 704.12 C 530.44 709.81 522.97 713.26 515.31 715.18 C 505.70 718.36 495.00 719.01 485.39 715.49 C 473.83 711.87 463.71 702.82 460.05 691.11 C 457.64 683.32 456.24 675.16 456.30 667.00 C 456.31 664.55 455.95 662.13 455.50 659.74 C 461.32 659.54 467.15 659.60 472.98 659.61 C 473.05 668.17 473.85 677.13 478.26 684.66 C 483.51 693.83 494.41 699.65 504.96 698.22 C 513.20 696.51 521.45 692.06 525.38 684.30 C 531.70 673.98 529.56 661.51 530.04 650.06 C 529.98 636.02 530.02 621.98 530.13 607.95 C 531.14 595.87 532.81 583.10 540.01 572.97 C 546.51 563.81 557.60 559.27 568.34 557.44 Z" />
<path fill="#482d5a" opacity="1.00" d=" M 704.91 651.84 C 712.04 650.64 719.28 652.59 725.90 655.14 C 734.33 658.35 741.10 664.48 748.19 669.85 C 760.30 679.32 772.46 689.19 786.73 695.24 C 799.66 700.94 814.13 701.33 828.04 700.97 C 839.97 699.64 852.09 699.45 864.01 701.04 C 872.98 701.18 881.97 700.93 890.95 701.08 C 900.38 701.27 910.15 697.76 916.23 690.32 C 920.59 686.22 921.46 680.05 924.65 675.21 C 927.81 680.50 930.90 685.83 934.01 691.16 C 930.47 696.72 927.11 702.68 921.57 706.54 C 911.93 713.45 899.74 716.32 888.00 715.95 C 870.32 715.86 852.65 715.89 834.98 715.91 C 819.63 716.23 804.16 714.73 789.37 710.53 C 775.69 706.38 763.95 697.87 752.61 689.45 C 744.04 683.28 736.41 675.46 726.31 671.74 C 719.14 668.80 710.09 668.73 703.83 673.79 C 695.23 681.90 693.48 694.75 684.82 702.82 C 676.32 711.32 663.90 715.59 651.97 714.98 C 641.08 714.85 630.49 709.91 622.82 702.28 C 612.98 690.50 611.61 674.31 612.08 659.57 C 616.40 659.68 620.72 659.54 625.04 659.60 C 625.08 665.34 624.40 671.25 626.12 676.84 C 627.37 680.96 629.09 684.98 631.49 688.59 C 639.37 700.04 656.60 703.88 668.38 696.29 C 680.05 689.68 684.30 676.06 689.73 664.66 C 692.91 658.78 697.93 652.89 704.91 651.84 Z" />
</g>
<g id="#342142ff">
<path fill="#342142" opacity="1.00" d=" M 444.77 515.67 C 448.20 515.85 451.63 515.84 455.06 515.82 C 455.06 530.63 455.06 545.43 455.06 560.24 C 450.49 558.18 445.88 556.16 441.01 554.95 C 435.28 553.36 429.30 553.19 423.48 552.11 C 430.51 539.93 437.74 527.86 444.77 515.67 Z" />
<path fill="#342142" opacity="1.00" d=" M 276.94 802.01 C 285.06 788.51 292.58 774.63 301.09 761.37 C 301.12 796.27 300.94 831.16 301.18 866.06 C 297.13 864.80 292.89 864.72 288.74 865.45 C 278.47 866.10 268.25 867.40 258.13 869.25 C 251.06 870.55 243.82 869.01 236.76 870.49 C 244.36 857.75 251.73 844.87 259.32 832.12 C 262.58 832.16 265.84 832.16 269.11 832.15 C 269.12 826.40 269.20 820.65 268.94 814.91 C 272.17 810.99 274.22 806.28 276.94 802.01 Z" />
</g>
<g id="#332040ff">
<path fill="#332040" opacity="1.00" d=" M 663.82 515.82 C 692.87 515.86 721.92 515.79 750.96 515.85 C 754.73 516.11 760.06 516.19 761.83 520.21 C 760.95 529.11 761.80 538.06 761.26 546.97 C 761.05 551.01 756.71 553.21 753.08 553.09 C 731.76 553.07 710.44 553.03 689.13 553.10 C 689.08 567.04 689.14 580.98 689.10 594.92 C 716.52 616.51 743.99 638.06 771.47 659.59 C 782.91 659.59 794.35 659.59 805.80 659.60 C 808.22 665.69 813.35 670.21 815.62 676.35 C 816.61 678.63 815.89 681.45 813.74 682.78 C 810.51 684.72 806.71 685.78 802.95 685.89 C 792.79 685.08 783.18 680.95 774.81 675.27 C 761.93 666.64 750.34 656.29 737.82 647.18 C 727.09 639.88 714.18 634.75 701.00 636.03 C 694.56 636.33 689.28 640.56 684.72 644.72 C 678.53 650.44 675.46 658.64 673.62 666.68 C 672.16 673.18 668.79 679.33 663.74 683.72 C 659.48 687.20 653.02 689.01 648.03 685.95 C 643.41 682.87 639.53 678.30 638.14 672.85 C 636.87 668.55 636.96 664.03 636.96 659.60 C 645.91 659.58 654.87 659.62 663.82 659.56 C 663.84 611.65 663.84 563.73 663.82 515.82 Z" />
</g>
<g id="#382346ff">
<path fill="#382346" opacity="1.00" d=" M 814.33 521.86 C 819.30 524.12 824.13 526.68 829.04 529.08 C 832.73 530.78 836.54 532.84 840.75 532.46 L 841.09 532.46 C 843.21 536.14 845.17 539.92 847.64 543.39 C 847.40 562.14 847.61 580.90 847.54 599.65 C 836.99 602.04 828.46 609.54 821.27 617.27 C 816.55 622.15 814.22 628.69 812.47 635.11 C 807.52 631.12 802.52 627.20 797.56 623.23 C 801.78 611.59 809.25 601.57 814.29 590.32 C 818.33 581.41 819.09 571.31 817.41 561.75 C 816.95 559.08 815.62 556.71 814.18 554.48 C 814.48 543.61 814.25 532.73 814.33 521.86 Z" />
</g>
<g id="#422a53ff">
<path fill="#422a53" opacity="1.00" d=" M 415.61 565.55 C 418.22 561.07 420.84 556.58 423.48 552.11 C 429.30 553.19 435.28 553.36 441.01 554.95 C 445.88 556.16 450.49 558.18 455.06 560.24 C 455.07 567.24 455.05 574.25 455.06 581.26 C 451.20 576.49 446.31 572.48 440.42 570.54 C 432.54 567.20 423.85 567.42 415.61 565.55 Z" />
</g>
<g id="#301e3cff">
<path fill="#301e3c" opacity="1.00" d=" M 814.18 554.48 C 815.62 556.71 816.95 559.08 817.41 561.75 C 819.09 571.31 818.33 581.41 814.29 590.32 C 809.25 601.57 801.78 611.59 797.56 623.23 C 785.76 613.80 773.90 604.44 762.11 594.99 C 773.30 595.19 784.74 592.38 793.99 585.94 C 804.51 578.60 811.41 566.88 814.18 554.48 Z" />
</g>
<g id="#55356aff">
<path fill="#55356a" opacity="1.00" d=" M 408.94 576.97 C 411.15 573.16 413.42 569.38 415.61 565.55 C 423.85 567.42 432.54 567.20 440.42 570.54 C 446.31 572.48 451.20 576.49 455.06 581.26 C 455.06 603.49 455.06 625.73 455.06 647.97 C 455.07 651.89 454.79 655.85 455.50 659.74 C 455.95 662.13 456.31 664.55 456.30 667.00 C 456.24 675.16 457.64 683.32 460.05 691.11 C 463.71 702.82 473.83 711.87 485.39 715.49 C 495.00 719.01 505.70 718.36 515.31 715.18 C 522.97 713.26 530.44 709.81 536.03 704.12 C 543.47 695.62 546.05 684.01 546.73 673.02 C 546.80 654.37 546.69 635.71 546.77 617.07 C 547.60 609.04 547.67 600.64 551.18 593.20 C 554.95 584.48 562.72 577.18 572.11 575.07 C 578.31 574.26 585.02 574.10 590.71 577.10 C 599.11 581.12 604.78 589.12 607.71 597.77 C 607.89 590.32 607.79 582.87 608.15 575.43 L 608.72 574.41 C 608.87 602.75 608.83 631.11 608.71 659.46 C 609.83 659.47 610.95 659.51 612.08 659.57 C 611.61 674.31 612.98 690.50 622.82 702.28 C 630.49 709.91 641.08 714.85 651.97 714.98 C 663.90 715.59 676.32 711.32 684.82 702.82 C 693.48 694.75 695.23 681.90 703.83 673.79 C 710.09 668.73 719.14 668.80 726.31 671.74 C 736.41 675.46 744.04 683.28 752.61 689.45 C 763.95 697.87 775.69 706.38 789.37 710.53 C 804.16 714.73 819.63 716.23 834.98 715.91 C 852.65 715.89 870.32 715.86 888.00 715.95 C 899.74 716.32 911.93 713.45 921.57 706.54 C 927.11 702.68 930.47 696.72 934.01 691.16 C 936.70 695.81 939.46 700.42 942.14 705.08 C 938.58 710.62 934.45 716.39 934.57 723.29 C 931.09 722.51 927.55 722.02 923.99 722.04 C 891.31 722.06 858.63 722.04 825.95 722.05 C 814.03 722.15 801.88 721.26 790.29 724.63 C 781.43 720.39 772.76 715.78 764.28 710.85 C 756.22 705.65 748.54 699.88 741.00 693.97 C 735.16 689.55 728.66 684.84 720.99 684.94 C 713.25 684.35 707.61 690.95 703.90 696.90 C 699.07 705.21 692.43 712.66 689.64 722.01 C 669.84 722.09 650.05 722.03 630.25 722.05 C 622.90 714.20 614.38 706.91 610.37 696.64 C 606.50 686.24 604.55 675.08 604.86 663.98 C 604.92 646.99 604.85 629.99 604.90 613.00 C 604.37 603.88 601.93 594.34 595.65 587.43 C 591.20 583.17 585.36 579.80 579.02 580.02 C 571.17 579.56 563.63 583.98 559.11 590.22 C 554.13 596.67 552.63 605.04 552.10 612.99 C 552.06 623.99 552.19 635.00 552.11 646.01 C 551.97 660.07 553.11 674.41 549.35 688.14 C 547.18 696.78 543.43 705.61 536.16 711.17 C 525.52 719.58 512.17 723.06 500.26 729.15 C 493.40 725.54 485.80 723.59 478.15 722.58 C 473.03 717.47 467.63 712.62 462.84 707.19 C 453.47 695.27 451.84 679.63 450.86 665.02 C 450.68 651.02 450.98 637.01 450.83 623.01 C 450.72 615.79 451.52 608.40 449.46 601.36 C 447.12 593.28 442.10 585.38 434.16 581.89 C 426.23 578.49 417.56 576.91 408.94 576.97 Z" />
</g>
<g id="#603c78ff">
<path fill="#603c78" opacity="1.00" d=" M 408.94 576.97 C 417.56 576.91 426.23 578.49 434.16 581.89 C 442.10 585.38 447.12 593.28 449.46 601.36 C 451.52 608.40 450.72 615.79 450.83 623.01 C 450.98 637.01 450.68 651.02 450.86 665.02 C 451.84 679.63 453.47 695.27 462.84 707.19 C 467.63 712.62 473.03 717.47 478.15 722.58 C 472.13 721.80 466.06 722.07 460.01 722.05 C 448.89 722.04 437.76 722.06 426.64 722.02 C 430.96 720.25 436.34 719.21 439.07 715.07 C 441.88 708.80 438.14 702.28 436.79 696.13 C 434.84 687.25 433.58 678.13 434.00 669.02 C 434.10 653.66 434.00 638.30 434.04 622.94 C 434.16 617.11 433.93 611.09 431.48 605.70 C 428.82 599.19 421.80 595.35 415.01 594.91 C 409.83 594.45 404.64 594.05 399.52 593.13 C 402.62 587.72 405.83 582.37 408.94 576.97 Z" />
<path fill="#603c78" opacity="1.00" d=" M 222.14 904.17 C 230.02 895.99 242.06 893.66 253.01 894.08 C 262.55 894.53 272.56 892.59 281.64 896.42 C 289.85 899.59 295.69 906.72 299.62 914.35 C 303.10 921.40 306.75 928.40 310.98 935.04 C 314.32 939.30 318.39 942.96 322.33 946.66 C 336.93 958.19 355.90 961.82 374.02 963.12 C 405.99 963.10 437.96 963.15 469.94 963.11 C 482.73 963.52 495.45 961.41 507.92 958.71 C 519.76 956.11 532.01 953.66 544.15 955.71 C 557.63 958.83 571.19 962.33 585.07 962.87 C 596.11 961.83 607.71 959.63 616.78 952.83 C 623.26 948.08 626.85 940.71 631.24 934.21 C 634.92 928.66 641.07 924.39 647.91 924.44 C 653.95 924.64 659.75 927.01 664.69 930.43 C 673.48 936.53 681.64 943.52 690.76 949.17 C 701.09 955.24 712.34 960.13 724.33 961.62 C 738.07 964.27 752.10 962.64 765.99 963.13 C 773.05 963.60 780.00 961.87 787.06 962.05 C 794.70 962.15 802.35 962.05 810.01 962.05 C 815.02 962.01 819.97 963.07 824.98 963.14 C 855.64 963.11 886.29 963.13 916.95 963.11 C 924.63 962.98 932.35 963.53 939.99 962.36 C 955.29 961.10 970.53 958.09 985.95 959.23 C 998.61 960.60 1011.26 962.21 1023.97 963.12 C 1047.08 962.99 1070.20 963.37 1093.31 962.94 C 1096.62 968.61 1099.97 974.25 1103.25 979.95 C 1077.17 980.12 1051.10 979.95 1025.03 980.07 C 1012.80 979.21 1000.60 978.07 988.44 976.51 C 974.20 974.70 959.99 977.46 945.82 978.62 C 940.21 979.00 934.65 979.86 929.04 980.06 C 900.37 979.99 871.69 980.04 843.02 980.02 C 834.68 979.85 826.29 980.51 818.01 979.17 C 806.37 978.57 794.69 979.25 783.03 979.00 C 776.01 978.86 769.08 980.50 762.05 980.06 C 751.37 979.60 740.62 980.81 729.99 979.29 C 721.41 978.42 712.81 977.12 704.67 974.20 C 692.30 970.05 681.13 963.00 670.82 955.11 C 665.90 951.28 660.42 947.43 653.99 947.00 C 649.82 946.98 646.17 949.54 643.22 952.27 C 636.00 959.01 629.90 967.23 621.02 971.96 C 609.99 977.88 597.23 978.87 585.00 979.97 C 572.91 979.38 560.90 977.43 549.10 974.75 C 535.86 971.39 522.01 973.03 508.82 975.74 C 494.78 978.86 480.37 980.22 466.00 979.98 C 444.67 980.10 423.33 979.93 402.00 980.05 C 390.01 979.79 377.98 980.66 366.05 979.15 C 347.33 977.48 328.09 972.73 313.03 960.96 C 302.82 952.68 293.60 942.56 288.84 930.12 C 286.54 923.79 281.88 918.58 276.66 914.47 C 269.81 909.39 260.95 911.39 253.06 910.96 C 245.22 910.47 236.30 912.95 232.15 920.16 C 227.45 926.62 227.81 934.93 225.29 942.22 C 220.62 957.14 208.74 969.60 194.15 975.12 C 187.38 976.92 180.53 979.25 173.43 978.83 C 177.32 971.97 181.42 965.23 185.33 958.38 L 185.62 958.30 C 191.44 957.22 196.31 953.47 200.53 949.52 C 212.26 936.71 209.67 916.51 222.14 904.17 Z" />
</g>
<g id="#5e3b76ff">
<path fill="#5e3b76" opacity="1.00" d=" M 559.11 590.22 C 563.63 583.98 571.17 579.56 579.02 580.02 C 585.36 579.80 591.20 583.17 595.65 587.43 C 601.93 594.34 604.37 603.88 604.90 613.00 C 604.85 629.99 604.92 646.99 604.86 663.98 C 604.55 675.08 606.50 686.24 610.37 696.64 C 614.38 706.91 622.90 714.20 630.25 722.05 C 615.09 722.06 599.93 722.04 584.77 722.04 C 588.83 720.42 593.10 717.96 594.75 713.67 C 596.19 709.47 593.84 705.32 592.73 701.35 C 589.76 691.17 588.92 680.54 588.12 670.02 C 588.07 651.36 588.21 632.69 588.14 614.03 C 588.20 609.10 585.95 603.99 581.65 601.40 C 578.54 599.82 574.61 600.84 572.61 603.67 C 569.27 607.27 568.65 612.38 568.77 617.08 C 568.95 634.71 568.87 652.35 568.86 669.98 C 567.93 681.48 567.28 693.25 563.13 704.15 C 561.87 707.89 560.29 711.83 561.00 715.85 C 561.55 719.03 564.66 720.62 567.21 722.05 C 558.16 722.05 549.11 722.02 540.06 722.07 C 540.02 730.73 540.06 739.40 540.05 748.07 C 532.04 748.82 524.19 747.17 516.46 745.34 C 513.01 738.35 507.10 732.78 500.26 729.15 C 512.17 723.06 525.52 719.58 536.16 711.17 C 543.43 705.61 547.18 696.78 549.35 688.14 C 553.11 674.41 551.97 660.07 552.11 646.01 C 552.19 635.00 552.06 623.99 552.10 612.99 C 552.63 605.04 554.13 596.67 559.11 590.22 Z" />
</g>
<g id="#442b55ff">
<path fill="#442b55" opacity="1.00" d=" M 821.27 617.27 C 828.46 609.54 836.99 602.04 847.54 599.65 C 847.56 619.62 847.54 639.58 847.52 659.55 C 850.84 659.59 854.17 659.62 857.50 659.63 C 854.88 664.88 849.77 668.79 844.01 669.85 C 834.46 671.13 824.90 666.54 818.51 659.62 C 826.69 659.42 834.89 659.89 843.07 659.37 C 832.82 651.34 822.68 643.19 812.47 635.11 C 814.22 628.69 816.55 622.15 821.27 617.27 Z" />
</g>
<g id="#684182ff">
<path fill="#684182" opacity="1.00" d=" M 572.61 603.67 C 574.61 600.84 578.54 599.82 581.65 601.40 C 585.95 603.99 588.20 609.10 588.14 614.03 C 588.21 632.69 588.07 651.36 588.12 670.02 C 588.92 680.54 589.76 691.17 592.73 701.35 C 593.84 705.32 596.19 709.47 594.75 713.67 C 593.10 717.96 588.83 720.42 584.77 722.04 C 578.91 722.06 573.06 722.06 567.21 722.05 C 564.66 720.62 561.55 719.03 561.00 715.85 C 560.29 711.83 561.87 707.89 563.13 704.15 C 567.28 693.25 567.93 681.48 568.86 669.98 C 568.87 652.35 568.95 634.71 568.77 617.08 C 568.65 612.38 569.27 607.27 572.61 603.67 Z" />
</g>
<g id="#392448ff">
<path fill="#392448" opacity="1.00" d=" M 684.72 644.72 C 689.28 640.56 694.56 636.33 701.00 636.03 C 714.18 634.75 727.09 639.88 737.82 647.18 C 750.34 656.29 761.93 666.64 774.81 675.27 C 783.18 680.95 792.79 685.08 802.95 685.89 C 806.71 685.78 810.51 684.72 813.74 682.78 C 815.89 681.45 816.61 678.63 815.62 676.35 C 813.35 670.21 808.22 665.69 805.80 659.60 C 810.03 659.58 814.27 659.60 818.51 659.62 C 824.90 666.54 834.46 671.13 844.01 669.85 C 849.77 668.79 854.88 664.88 857.50 659.63 C 873.24 659.58 888.98 659.60 904.73 659.59 C 904.81 653.69 904.80 647.78 904.79 641.87 C 911.94 652.63 918.02 664.11 924.65 675.21 C 921.46 680.05 920.59 686.22 916.23 690.32 C 910.15 697.76 900.38 701.27 890.95 701.08 C 881.97 700.93 872.98 701.18 864.01 701.04 C 852.09 699.45 839.97 699.64 828.04 700.97 C 814.13 701.33 799.66 700.94 786.73 695.24 C 772.46 689.19 760.30 679.32 748.19 669.85 C 741.10 664.48 734.33 658.35 725.90 655.14 C 719.28 652.59 712.04 650.64 704.91 651.84 C 697.93 652.89 692.91 658.78 689.73 664.66 C 684.30 676.06 680.05 689.68 668.38 696.29 C 656.60 703.88 639.37 700.04 631.49 688.59 C 629.09 684.98 627.37 680.96 626.12 676.84 C 624.40 671.25 625.08 665.34 625.04 659.60 C 629.01 659.60 632.99 659.59 636.96 659.60 C 636.96 664.03 636.87 668.55 638.14 672.85 C 639.53 678.30 643.41 682.87 648.03 685.95 C 653.02 689.01 659.48 687.20 663.74 683.72 C 668.79 679.33 672.16 673.18 673.62 666.68 C 675.46 658.64 678.53 650.44 684.72 644.72 Z" />
</g>
<g id="#633e7cff">
<path fill="#633e7c" opacity="1.00" d=" M 703.90 696.90 C 707.61 690.95 713.25 684.35 720.99 684.94 C 728.66 684.84 735.16 689.55 741.00 693.97 C 748.54 699.88 756.22 705.65 764.28 710.85 C 772.76 715.78 781.43 720.39 790.29 724.63 C 781.20 727.16 772.39 731.96 766.74 739.71 C 762.93 744.73 760.63 750.78 759.68 756.99 C 758.56 755.24 756.50 754.75 754.66 754.17 C 748.17 752.40 742.16 749.11 735.47 748.05 C 732.90 741.12 728.29 734.91 722.09 730.83 C 712.59 724.48 700.94 722.04 689.64 722.01 C 692.43 712.66 699.07 705.21 703.90 696.90 Z" />
</g>
<g id="#613d79ff">
<path fill="#613d79" opacity="1.00" d=" M 934.57 723.29 C 934.45 716.39 938.58 710.62 942.14 705.08 C 949.13 717.13 956.33 729.08 963.22 741.19 C 962.86 741.77 962.14 742.95 961.77 743.54 C 956.74 732.74 946.04 725.62 934.57 723.29 Z" />
</g>
<g id="#503264ff">
<path fill="#503264" opacity="1.00" d=" M 961.77 743.54 C 962.14 742.95 962.86 741.77 963.22 741.19 C 965.87 745.32 968.22 749.63 970.77 753.83 C 968.54 754.70 965.84 755.34 965.31 758.08 C 964.97 753.06 963.67 748.18 961.77 743.54 Z" />
<path fill="#503264" opacity="1.00" d=" M 735.47 748.05 C 742.16 749.11 748.17 752.40 754.66 754.17 C 756.50 754.75 758.56 755.24 759.68 756.99 C 759.19 761.35 759.32 765.74 759.32 770.13 C 751.84 768.67 745.06 765.13 737.85 762.83 C 737.75 757.82 737.09 752.80 735.47 748.05 Z" />
</g>
<g id="#4d3061ff">
<path fill="#4d3061" opacity="1.00" d=" M 516.46 745.34 C 524.19 747.17 532.04 748.82 540.05 748.07 C 540.04 754.66 540.05 761.24 540.05 767.83 C 533.72 767.77 527.36 767.89 521.10 766.84 C 521.01 764.42 520.60 762.03 520.19 759.66 C 519.62 754.74 518.64 749.81 516.46 745.34 Z" />
</g>
<g id="#462c58ff">
<path fill="#462c58" opacity="1.00" d=" M 970.77 753.83 C 972.80 757.36 974.96 760.82 976.86 764.44 C 973.20 766.05 969.29 764.67 965.60 763.96 C 965.53 761.99 965.43 760.03 965.31 758.08 C 965.84 755.34 968.54 754.70 970.77 753.83 Z" />
</g>
<g id="#32203fff">
<path fill="#32203f" opacity="1.00" d=" M 520.19 759.66 C 520.60 762.03 521.01 764.42 521.10 766.84 C 521.07 769.87 521.00 772.90 521.04 775.94 C 527.30 777.25 533.66 777.93 540.05 778.24 C 540.09 819.37 539.97 860.50 540.11 901.64 C 557.70 901.60 575.30 901.63 592.90 901.62 C 592.99 859.09 592.91 816.56 592.94 774.03 C 624.31 773.92 655.68 774.07 687.04 773.99 C 686.92 779.66 687.15 785.34 687.00 791.01 C 686.98 793.34 686.41 795.93 684.43 797.39 C 681.75 799.49 678.14 799.06 674.97 799.10 C 655.73 799.04 636.49 799.03 617.25 799.11 C 617.26 812.54 617.20 825.97 617.28 839.41 C 643.72 860.11 670.10 880.88 696.52 901.61 C 719.27 901.70 742.03 901.50 764.79 901.74 C 764.77 901.49 764.72 901.00 764.69 900.75 C 766.95 897.53 769.17 894.27 770.75 890.65 C 782.27 900.61 798.41 902.52 813.07 901.67 C 849.37 901.55 885.68 901.72 921.99 901.62 C 932.41 901.44 943.26 899.90 952.23 894.24 C 958.97 890.03 963.68 882.98 965.37 875.26 C 970.58 874.07 976.13 871.82 979.53 867.62 C 980.52 859.15 979.71 850.55 979.93 842.03 C 979.83 833.43 980.06 824.83 979.80 816.24 C 970.97 813.57 961.43 813.92 952.90 810.23 C 942.50 806.29 933.75 799.12 925.54 791.80 C 938.90 791.71 952.27 791.90 965.63 791.70 C 965.55 782.45 965.67 773.20 965.60 763.96 C 969.29 764.67 973.20 766.05 976.86 764.44 L 977.02 764.39 C 978.27 766.58 979.61 768.72 980.86 770.92 C 980.96 814.50 980.66 858.08 980.98 901.66 C 1006.41 901.52 1031.84 901.82 1057.27 901.51 C 1063.55 911.79 1069.52 922.27 1075.63 932.66 C 1064.12 933.56 1052.55 932.92 1041.02 933.12 C 1024.62 933.74 1008.40 930.72 992.19 928.65 C 968.97 925.89 946.09 932.29 922.98 933.14 C 899.01 933.10 875.03 933.08 851.05 933.08 C 844.48 932.96 837.87 933.55 831.34 932.59 C 822.38 931.26 813.29 932.93 804.34 931.61 C 800.58 931.06 796.79 930.95 793.01 931.10 C 786.96 931.37 781.02 929.77 774.98 930.11 C 770.29 930.35 765.69 929.29 761.03 929.06 C 750.69 929.50 740.30 932.08 729.97 930.18 C 719.15 929.25 708.63 925.41 699.70 919.23 C 688.22 911.58 677.77 902.53 666.71 894.31 C 656.98 888.14 645.77 883.16 633.98 884.03 C 625.75 883.35 618.62 888.59 613.31 894.31 C 606.46 902.40 605.37 913.62 599.01 922.04 C 594.52 928.84 586.06 932.60 578.00 931.04 C 566.61 929.09 555.74 924.79 544.40 922.59 C 533.72 920.70 523.07 923.51 512.66 925.65 C 505.72 927.14 499.02 929.60 492.04 930.93 C 486.38 932.26 480.54 931.92 474.82 932.71 C 470.57 933.27 466.28 933.19 462.02 933.13 C 442.01 933.07 422.00 933.13 401.99 933.14 C 392.00 933.01 381.97 933.58 372.03 932.22 C 361.03 931.78 349.61 929.24 340.96 922.07 C 334.08 915.99 329.80 907.39 327.98 898.48 C 334.45 900.54 341.24 901.50 348.01 901.81 C 382.33 901.42 416.66 901.75 450.99 901.64 C 461.66 901.51 472.47 902.25 483.01 900.04 C 491.89 898.25 500.64 894.63 507.33 888.38 C 515.41 880.96 520.50 870.08 520.19 859.04 C 520.10 825.91 520.25 792.79 520.19 759.66 Z" />
</g>
<g id="#3a2449ff">
<path fill="#3a2449" opacity="1.00" d=" M 357.92 763.17 C 393.98 763.19 430.03 763.13 466.08 763.20 C 466.01 763.56 465.85 764.28 465.78 764.64 C 465.19 767.35 464.85 770.10 464.53 772.86 C 440.36 773.10 416.18 772.82 392.01 773.02 C 387.66 773.25 383.35 773.98 378.99 773.98 C 371.85 773.95 364.82 775.44 357.92 777.15 C 357.92 772.49 357.92 767.83 357.92 763.17 Z" />
</g>
<g id="#392447ff">
<path fill="#392447" opacity="1.00" d=" M 592.94 763.17 C 618.96 763.17 644.97 763.19 670.99 763.16 C 676.30 763.34 682.61 762.48 686.90 766.32 C 687.61 768.80 686.96 771.44 687.04 773.99 C 655.68 774.07 624.31 773.92 592.94 774.03 C 592.94 770.40 592.94 766.78 592.94 763.17 Z" />
</g>
<g id="#402850ff">
<path fill="#402850" opacity="1.00" d=" M 737.85 762.83 C 745.06 765.13 751.84 768.67 759.32 770.13 C 759.32 775.74 759.34 781.35 759.33 786.97 C 751.96 785.24 744.99 782.28 737.85 779.83 C 737.82 774.16 737.89 768.49 737.85 762.83 Z" />
</g>
<g id="#342041ff">
<path fill="#342041" opacity="1.00" d=" M 464.53 772.86 C 464.85 770.10 465.19 767.35 465.78 764.64 C 466.01 782.52 465.93 800.42 465.77 818.31 C 465.59 817.80 465.23 816.78 465.05 816.26 C 465.02 810.25 465.06 804.25 464.79 798.25 C 455.05 794.16 444.43 793.14 434.02 792.13 C 429.01 791.63 424.00 792.27 419.03 792.86 C 410.89 793.71 402.66 794.95 395.02 798.00 C 386.24 802.28 378.13 808.63 373.37 817.32 C 367.39 827.12 366.37 838.83 365.21 849.99 C 364.74 854.05 365.46 858.11 366.16 862.11 C 363.41 862.10 360.66 862.10 357.92 862.12 C 357.93 833.79 357.92 805.47 357.92 777.15 C 364.82 775.44 371.85 773.95 378.99 773.98 C 383.35 773.98 387.66 773.25 392.01 773.02 C 416.18 772.82 440.36 773.10 464.53 772.86 Z" />
</g>
<g id="#3e274dff">
<path fill="#3e274d" opacity="1.00" d=" M 521.10 766.84 C 527.36 767.89 533.72 767.77 540.05 767.83 C 540.04 771.30 540.04 774.76 540.05 778.24 C 533.66 777.93 527.30 777.25 521.04 775.94 C 521.00 772.90 521.07 769.87 521.10 766.84 Z" />
</g>
<g id="#311e3dff">
<path fill="#311e3d" opacity="1.00" d=" M 737.85 779.83 C 744.99 782.28 751.96 785.24 759.33 786.97 C 759.52 813.85 758.94 840.75 759.61 867.62 C 756.53 867.79 753.30 867.81 750.56 869.42 C 745.59 871.73 742.42 876.32 739.04 880.42 C 721.93 866.76 704.79 853.16 687.66 839.53 C 696.36 839.40 705.19 837.92 712.96 833.87 C 726.04 827.31 735.02 813.99 737.69 799.78 C 738.09 793.14 737.73 786.48 737.85 779.83 Z" />
</g>
<g id="#3b254aff">
<path fill="#3b254a" opacity="1.00" d=" M 419.03 792.86 C 424.00 792.27 429.01 791.63 434.02 792.13 C 444.43 793.14 455.05 794.16 464.79 798.25 C 465.06 804.25 465.02 810.25 465.05 816.26 C 447.06 806.16 424.79 804.29 405.39 811.33 C 396.51 814.02 388.80 820.66 385.30 829.31 C 380.91 839.55 378.85 851.09 381.19 862.11 C 376.18 862.10 371.17 862.11 366.16 862.11 C 365.46 858.11 364.74 854.05 365.21 849.99 C 366.37 838.83 367.39 827.12 373.37 817.32 C 378.13 808.63 386.24 802.28 395.02 798.00 C 402.66 794.95 410.89 793.71 419.03 792.86 Z" />
</g>
<g id="#412951ff">
<path fill="#412951" opacity="1.00" d=" M 854.07 804.15 C 861.40 801.33 869.24 800.23 876.99 799.24 C 883.40 798.40 889.79 799.73 896.10 800.73 C 901.72 801.62 907.18 803.34 912.44 805.49 C 917.73 807.60 922.29 811.08 927.23 813.86 C 934.92 818.26 942.09 823.47 949.21 828.73 C 953.79 832.64 960.18 829.88 965.50 831.68 C 948.22 832.09 930.93 831.79 913.65 831.72 C 916.28 831.17 918.93 830.69 921.58 830.19 C 914.40 822.91 905.01 817.84 894.95 816.00 C 882.48 813.47 868.87 814.29 857.65 820.69 C 850.03 825.43 845.06 833.63 843.39 842.36 C 841.50 848.81 841.63 855.60 843.17 862.11 C 837.79 862.10 832.41 862.11 827.03 862.11 C 826.83 851.18 826.68 839.97 830.63 829.59 C 834.25 818.20 842.98 808.63 854.07 804.15 Z" />
</g>
<g id="#4a2e5cff">
<path fill="#4a2e5c" opacity="1.00" d=" M 405.39 811.33 C 424.79 804.29 447.06 806.16 465.05 816.26 C 465.23 816.78 465.59 817.80 465.77 818.31 C 466.10 832.67 465.76 847.07 465.85 861.45 C 463.92 855.82 465.83 849.72 463.98 844.09 C 462.03 837.82 458.46 831.83 453.06 827.94 C 437.06 816.84 411.79 818.58 399.96 834.99 C 394.67 842.82 392.84 853.03 395.80 862.11 C 390.93 862.10 386.06 862.11 381.19 862.11 C 378.85 851.09 380.91 839.55 385.30 829.31 C 388.80 820.66 396.51 814.02 405.39 811.33 Z" />
</g>
<g id="#533468ff">
<path fill="#533468" opacity="1.00" d=" M 857.65 820.69 C 868.87 814.29 882.48 813.47 894.95 816.00 C 905.01 817.84 914.40 822.91 921.58 830.19 C 918.93 830.69 916.28 831.17 913.65 831.72 C 913.62 837.31 913.60 842.91 913.62 848.51 C 910.76 844.96 908.48 840.91 904.91 838.00 C 900.13 833.99 894.34 831.29 888.37 829.60 C 874.91 826.21 860.16 836.15 857.48 849.60 C 856.30 853.83 857.95 858.06 859.08 862.11 C 853.77 862.10 848.47 862.11 843.17 862.11 C 841.63 855.60 841.50 848.81 843.39 842.36 C 845.06 833.63 850.03 825.43 857.65 820.69 Z" />
</g>
<g id="#5b3972ff">
<path fill="#5b3972" opacity="1.00" d=" M 399.96 834.99 C 411.79 818.58 437.06 816.84 453.06 827.94 C 458.46 831.83 462.03 837.82 463.98 844.09 C 465.83 849.72 463.92 855.82 465.85 861.45 L 466.03 862.15 C 457.05 862.09 448.06 862.07 439.07 862.14 C 441.83 859.14 445.19 855.48 443.99 851.03 C 443.15 845.60 438.04 842.45 433.36 840.57 C 429.48 838.86 425.04 840.44 421.79 842.77 C 418.59 845.20 415.37 848.61 415.70 852.95 C 415.28 856.64 417.87 859.50 420.04 862.14 C 411.96 862.06 403.88 862.13 395.80 862.11 C 392.84 853.03 394.67 842.82 399.96 834.99 Z" />
</g>
<g id="#613d7aff">
<path fill="#613d7a" opacity="1.00" d=" M 857.48 849.60 C 860.16 836.15 874.91 826.21 888.37 829.60 C 894.34 831.29 900.13 833.99 904.91 838.00 C 908.48 840.91 910.76 844.96 913.62 848.51 C 913.65 853.04 913.66 857.57 913.72 862.12 C 895.51 862.10 877.29 862.11 859.08 862.11 C 857.95 858.06 856.30 853.83 857.48 849.60 Z" />
</g>
<g id="#664080ff">
<path fill="#664080" opacity="1.00" d=" M 421.79 842.77 C 425.04 840.44 429.48 838.86 433.36 840.57 C 438.04 842.45 443.15 845.60 443.99 851.03 C 445.19 855.48 441.83 859.14 439.07 862.14 C 432.73 862.08 426.38 862.09 420.04 862.14 C 417.87 859.50 415.28 856.64 415.70 852.95 C 415.37 848.61 418.59 845.20 421.79 842.77 Z" />
</g>
<g id="#3f284fff">
<path fill="#3f284f" opacity="1.00" d=" M 288.74 865.45 C 292.89 864.72 297.13 864.80 301.18 866.06 C 301.78 873.50 304.28 880.96 309.25 886.64 C 314.11 892.40 320.91 896.12 327.98 898.48 C 329.80 907.39 334.08 915.99 340.96 922.07 C 349.61 929.24 361.03 931.78 372.03 932.22 C 381.97 933.58 392.00 933.01 401.99 933.14 C 422.00 933.13 442.01 933.07 462.02 933.13 C 466.28 933.19 470.57 933.27 474.82 932.71 C 480.54 931.92 486.38 932.26 492.04 930.93 C 499.02 929.60 505.72 927.14 512.66 925.65 C 523.07 923.51 533.72 920.70 544.40 922.59 C 555.74 924.79 566.61 929.09 578.00 931.04 C 586.06 932.60 594.52 928.84 599.01 922.04 C 605.37 913.62 606.46 902.40 613.31 894.31 C 618.62 888.59 625.75 883.35 633.98 884.03 C 645.77 883.16 656.98 888.14 666.71 894.31 C 677.77 902.53 688.22 911.58 699.70 919.23 C 708.63 925.41 719.15 929.25 729.97 930.18 C 740.30 932.08 750.69 929.50 761.03 929.06 C 765.69 929.29 770.29 930.35 774.98 930.11 C 781.02 929.77 786.96 931.37 793.01 931.10 C 796.79 930.95 800.58 931.06 804.34 931.61 C 813.29 932.93 822.38 931.26 831.34 932.59 C 837.87 933.55 844.48 932.96 851.05 933.08 C 875.03 933.08 899.01 933.10 922.98 933.14 C 946.09 932.29 968.97 925.89 992.19 928.65 C 1008.40 930.72 1024.62 933.74 1041.02 933.12 C 1052.55 932.92 1064.12 933.56 1075.63 932.66 C 1079.18 938.71 1082.74 944.77 1086.27 950.85 C 1073.83 950.94 1061.40 950.88 1048.96 950.89 C 1029.15 951.41 1009.44 948.86 989.83 946.30 C 972.15 944.56 954.55 947.70 937.06 949.86 C 930.73 950.20 924.37 949.83 918.08 950.74 C 904.39 951.13 890.67 950.78 876.97 950.88 C 864.87 950.52 852.73 951.62 840.66 950.41 C 830.75 949.10 820.70 950.75 810.80 949.32 C 804.90 948.48 798.95 949.21 793.02 948.93 C 785.98 948.53 779.05 950.32 772.01 950.01 C 765.21 950.08 758.38 949.66 751.61 950.53 C 747.71 951.07 743.82 950.33 739.93 950.11 C 727.20 949.74 714.20 947.35 703.02 940.99 C 691.23 934.53 680.60 926.22 670.04 917.97 C 662.63 912.19 654.03 907.55 644.61 906.31 C 637.11 904.97 629.29 908.95 625.22 915.24 C 619.74 923.69 616.05 933.58 608.25 940.31 C 601.58 946.75 592.16 949.55 583.06 949.75 C 569.02 948.87 555.72 943.81 542.00 941.15 C 518.80 938.76 497.19 951.37 474.01 949.90 C 455.74 951.61 437.36 950.68 419.03 950.89 C 406.02 950.60 392.97 951.63 380.02 950.01 C 369.85 950.25 359.63 949.05 349.87 946.11 C 338.25 942.55 327.65 935.27 320.73 925.21 C 313.65 914.66 309.90 902.33 303.53 891.40 C 298.11 883.22 287.67 881.50 278.67 880.35 C 270.76 878.97 262.89 881.33 254.96 880.91 C 246.43 880.52 238.07 882.52 229.59 882.90 C 231.92 878.72 234.45 874.67 236.76 870.49 C 243.82 869.01 251.06 870.55 258.13 869.25 C 268.25 867.40 278.47 866.10 288.74 865.45 Z" />
</g>
<g id="#3c264bff">
<path fill="#3c264b" opacity="1.00" d=" M 750.56 869.42 C 753.30 867.81 756.53 867.79 759.61 867.62 C 760.40 876.31 764.17 884.81 770.75 890.65 C 769.17 894.27 766.95 897.53 764.69 900.75 C 756.09 894.04 747.59 887.19 739.04 880.42 C 742.42 876.32 745.59 871.73 750.56 869.42 Z" />
</g>
<g id="#513265ff">
<path fill="#513265" opacity="1.00" d=" M 254.96 880.91 C 262.89 881.33 270.76 878.97 278.67 880.35 C 287.67 881.50 298.11 883.22 303.53 891.40 C 309.90 902.33 313.65 914.66 320.73 925.21 C 327.65 935.27 338.25 942.55 349.87 946.11 C 359.63 949.05 369.85 950.25 380.02 950.01 C 392.97 951.63 406.02 950.60 419.03 950.89 C 437.36 950.68 455.74 951.61 474.01 949.90 C 497.19 951.37 518.80 938.76 542.00 941.15 C 555.72 943.81 569.02 948.87 583.06 949.75 C 592.16 949.55 601.58 946.75 608.25 940.31 C 616.05 933.58 619.74 923.69 625.22 915.24 C 629.29 908.95 637.11 904.97 644.61 906.31 C 654.03 907.55 662.63 912.19 670.04 917.97 C 680.60 926.22 691.23 934.53 703.02 940.99 C 714.20 947.35 727.20 949.74 739.93 950.11 C 743.82 950.33 747.71 951.07 751.61 950.53 C 758.38 949.66 765.21 950.08 772.01 950.01 C 779.05 950.32 785.98 948.53 793.02 948.93 C 798.95 949.21 804.90 948.48 810.80 949.32 C 820.70 950.75 830.75 949.10 840.66 950.41 C 852.73 951.62 864.87 950.52 876.97 950.88 C 890.67 950.78 904.39 951.13 918.08 950.74 C 924.37 949.83 930.73 950.20 937.06 949.86 C 954.55 947.70 972.15 944.56 989.83 946.30 C 1009.44 948.86 1029.15 951.41 1048.96 950.89 C 1061.40 950.88 1073.83 950.94 1086.27 950.85 C 1088.59 954.89 1091.00 958.88 1093.31 962.94 C 1070.20 963.37 1047.08 962.99 1023.97 963.12 C 1011.26 962.21 998.61 960.60 985.95 959.23 C 970.53 958.09 955.29 961.10 939.99 962.36 C 932.35 963.53 924.63 962.98 916.95 963.11 C 886.29 963.13 855.64 963.11 824.98 963.14 C 819.97 963.07 815.02 962.01 810.01 962.05 C 802.35 962.05 794.70 962.15 787.06 962.05 C 780.00 961.87 773.05 963.60 765.99 963.13 C 752.10 962.64 738.07 964.27 724.33 961.62 C 712.34 960.13 701.09 955.24 690.76 949.17 C 681.64 943.52 673.48 936.53 664.69 930.43 C 659.75 927.01 653.95 924.64 647.91 924.44 C 641.07 924.39 634.92 928.66 631.24 934.21 C 626.85 940.71 623.26 948.08 616.78 952.83 C 607.71 959.63 596.11 961.83 585.07 962.87 C 571.19 962.33 557.63 958.83 544.15 955.71 C 532.01 953.66 519.76 956.11 507.92 958.71 C 495.45 961.41 482.73 963.52 469.94 963.11 C 437.96 963.15 405.99 963.10 374.02 963.12 C 355.90 961.82 336.93 958.19 322.33 946.66 C 318.39 942.96 314.32 939.30 310.98 935.04 C 306.75 928.40 303.10 921.40 299.62 914.35 C 295.69 906.72 289.85 899.59 281.64 896.42 C 272.56 892.59 262.55 894.53 253.01 894.08 C 242.06 893.66 230.02 895.99 222.14 904.17 C 209.67 916.51 212.26 936.71 200.53 949.52 C 196.31 953.47 191.44 957.22 185.62 958.30 C 199.92 932.97 214.98 908.06 229.59 882.90 C 238.07 882.52 246.43 880.52 254.96 880.91 Z" />
</g>
</svg>
