<?xml version="1.0" encoding="UTF-8" ?>
<!DOCTYPE svg PUBLIC "-//W3C//DTD SVG 1.1//EN" "http://www.w3.org/Graphics/SVG/1.1/DTD/svg11.dtd">
<svg width="1276pt" height="1276pt" viewBox="0 0 1276 1276" version="1.1" xmlns="http://www.w3.org/2000/svg">
<g id="#ffffffff">
<path fill="#ffffff" opacity="1.00" d=" M 832.96 356.71 C 849.29 356.05 865.66 356.50 882.01 356.39 C 890.97 357.14 899.99 356.20 908.94 357.09 C 925.71 357.20 942.46 357.85 959.22 358.21 C 984.43 359.11 1010.08 359.96 1034.41 367.32 C 1049.17 371.83 1063.34 379.78 1073.01 392.03 C 1081.55 402.67 1086.66 415.65 1089.55 428.88 C 1095.06 452.85 1093.36 477.57 1093.62 501.95 C 1093.62 532.98 1093.62 564.00 1093.62 595.03 C 1093.77 616.59 1092.30 638.79 1083.86 658.90 C 1077.58 674.07 1066.06 686.98 1051.54 694.67 C 1030.29 706.25 1005.60 707.94 981.98 710.06 C 956.35 711.98 930.70 712.43 905.00 712.31 C 882.38 712.20 859.74 712.53 837.13 712.14 C 813.09 711.47 789.01 711.75 764.99 710.31 C 746.66 709.17 728.14 706.82 710.84 700.37 C 695.38 694.72 681.18 684.65 672.30 670.61 C 663.06 656.48 659.80 639.55 658.19 623.02 C 656.20 605.57 656.25 588.00 656.05 570.47 C 656.56 536.65 655.73 502.79 656.87 468.99 C 657.31 449.13 658.66 428.73 666.36 410.16 C 671.98 396.13 682.24 384.04 695.21 376.28 C 710.93 366.56 729.43 362.96 747.55 360.89 C 775.89 357.57 804.45 356.71 832.96 356.71 M 829.52 447.57 C 820.03 448.10 810.49 448.40 801.13 450.13 C 794.01 451.20 786.71 452.77 780.55 456.66 C 773.40 461.30 769.84 469.57 767.63 477.48 C 763.66 492.63 763.19 508.41 763.16 523.99 C 763.32 544.04 762.30 564.25 765.67 584.12 C 767.31 593.16 769.69 602.92 776.81 609.30 C 785.57 617.06 797.71 618.36 808.81 619.97 C 830.83 622.32 852.99 622.56 875.10 622.14 C 893.80 621.39 912.53 621.47 931.23 620.61 C 943.02 620.17 955.29 619.43 966.09 614.19 C 975.15 609.74 980.55 600.43 983.28 591.04 C 988.70 572.52 987.29 553.03 987.47 533.98 C 987.30 518.64 988.26 503.16 985.53 487.97 C 983.82 477.54 980.44 466.80 972.88 459.09 C 965.37 451.80 954.50 450.24 944.59 448.87 C 928.41 447.49 912.18 447.82 895.96 447.81 C 873.82 447.24 851.66 447.49 829.52 447.57 Z" />
<path fill="#ffffff" opacity="1.00" d=" M 251.22 364.31 C 298.73 356.45 347.01 356.65 395.00 356.37 C 403.31 356.86 411.64 356.66 419.96 356.69 C 433.28 357.49 446.65 357.12 459.97 358.09 C 484.85 359.28 510.09 360.10 534.23 366.81 C 549.08 370.94 564.11 377.88 573.25 390.82 C 584.33 406.56 587.33 426.37 587.89 445.20 C 588.72 454.25 587.85 463.34 587.29 472.38 C 585.52 488.69 580.71 505.85 568.29 517.34 C 560.06 525.02 548.87 528.47 537.87 529.62 C 534.22 530.06 530.52 530.14 526.90 530.81 C 542.58 533.27 559.39 536.24 571.53 547.35 C 582.56 556.59 587.92 570.71 590.18 584.56 C 592.36 597.92 592.35 611.49 592.31 624.99 C 591.78 643.44 589.47 663.01 578.44 678.44 C 569.74 690.79 555.80 698.19 541.60 702.39 C 520.36 708.78 498.12 710.82 476.07 711.89 C 443.09 713.49 410.06 712.01 377.06 712.31 C 356.74 712.07 336.44 713.07 316.13 712.48 C 290.51 712.06 264.60 710.72 239.71 704.17 C 224.82 700.02 209.36 694.11 199.07 682.04 C 187.33 667.82 183.91 648.84 182.94 630.93 C 182.75 623.30 182.07 615.65 182.65 608.02 C 182.63 592.75 184.53 577.04 191.32 563.18 C 195.94 554.06 202.87 545.90 211.97 541.04 C 223.22 535.05 235.97 532.89 248.40 530.85 C 236.11 529.47 223.10 528.63 212.41 521.68 C 199.48 513.87 192.24 499.47 189.44 485.05 C 186.35 470.59 186.60 455.70 186.94 441.00 C 187.95 422.34 191.63 402.55 204.15 387.95 C 215.90 374.09 233.78 367.41 251.22 364.31 M 324.74 435.90 C 319.04 436.51 313.31 437.01 307.67 438.07 C 301.75 439.35 295.62 442.06 292.37 447.43 C 287.97 454.85 288.11 463.87 288.59 472.20 C 289.07 478.93 291.99 486.26 298.47 489.27 C 307.69 493.62 318.17 493.20 328.10 494.17 C 339.09 494.63 350.07 495.28 361.08 495.15 C 374.71 496.05 388.35 494.85 402.00 495.13 C 413.66 494.94 425.35 495.55 436.99 494.71 C 448.07 494.72 459.23 494.02 470.09 491.65 C 475.14 490.33 481.02 488.66 483.49 483.55 C 486.81 476.94 486.54 469.28 486.40 462.08 C 486.07 453.83 482.55 444.92 474.78 441.06 C 463.15 434.99 449.61 436.83 437.02 435.77 C 428.98 435.90 420.97 435.32 412.93 435.47 C 403.65 434.77 394.32 435.71 385.06 434.82 C 364.94 434.69 344.82 434.64 324.74 435.90 M 318.56 570.86 C 310.84 571.70 302.96 572.22 295.56 574.76 C 292.07 575.91 289.19 578.55 287.59 581.84 C 284.20 588.34 284.29 595.86 284.12 602.99 C 284.21 609.96 284.26 617.60 288.56 623.47 C 292.11 628.72 298.80 629.98 304.58 631.21 C 327.83 635.17 351.50 634.01 374.98 634.22 C 387.29 633.25 399.65 634.26 411.97 633.53 C 421.33 633.50 430.68 633.29 440.02 632.82 C 445.05 633.68 450.08 632.58 455.14 632.77 C 465.22 632.04 476.21 631.10 484.35 624.45 C 489.45 619.84 490.28 612.48 490.59 606.00 C 490.52 597.68 491.40 588.59 486.89 581.17 C 483.94 576.22 478.21 574.23 472.88 573.12 C 460.42 570.66 447.66 570.67 435.01 570.76 C 422.34 570.17 409.64 570.46 396.98 569.77 C 370.84 570.03 344.66 569.06 318.56 570.86 Z" />
</g>
<g id="#dd243cff">
<path fill="#dd243c" opacity="1.00" d=" M 211.57 782.73 C 213.99 782.21 216.47 782.06 218.94 782.04 C 285.65 782.06 352.36 782.05 419.07 782.05 C 426.10 781.92 432.93 784.43 438.78 788.22 C 448.43 794.78 454.56 806.27 454.40 817.97 C 454.35 840.65 454.42 863.33 454.36 886.00 C 453.98 903.55 438.72 919.66 421.00 919.94 C 355.00 919.96 289.00 919.94 223.00 919.95 C 219.63 919.92 216.25 920.06 212.89 919.72 C 196.74 917.31 183.55 902.43 183.17 886.09 C 183.15 862.71 183.13 839.33 183.18 815.95 C 183.66 800.09 196.08 785.83 211.57 782.73 Z" />
</g>
<g id="#1aaa4bff">
<path fill="#1aaa4b" opacity="1.00" d=" M 529.39 782.64 C 533.86 781.77 538.44 782.10 542.98 782.05 C 607.32 782.05 671.66 782.06 736.00 782.04 C 750.61 781.80 764.87 791.70 769.53 805.58 C 772.36 812.74 771.51 820.52 771.62 828.04 C 771.62 844.36 771.62 860.69 771.62 877.01 C 771.56 882.79 772.08 888.72 770.27 894.32 C 767.35 905.75 758.00 914.95 746.89 918.58 C 741.82 920.44 736.34 919.85 731.06 919.95 C 665.70 919.95 600.34 919.94 534.97 919.95 C 517.21 920.29 501.35 904.54 500.68 886.93 C 500.55 863.30 500.62 839.66 500.64 816.03 C 501.00 799.94 513.67 785.58 529.39 782.64 Z" />
</g>
<g id="#1094d2ff">
<path fill="#1094d2" opacity="1.00" d=" M 846.41 782.70 C 854.54 781.41 862.82 782.32 871.02 782.05 C 931.35 782.04 991.68 782.07 1052.01 782.04 C 1071.50 780.76 1090.04 798.28 1088.91 817.97 C 1088.88 840.32 1088.88 862.68 1088.90 885.03 C 1089.55 903.55 1072.56 920.68 1054.00 919.96 C 987.34 919.94 920.68 919.94 854.02 919.96 C 839.78 920.87 825.94 911.34 820.67 898.28 C 818.68 893.80 817.80 888.88 817.83 884.00 C 817.86 864.32 817.84 844.65 817.85 824.98 C 817.71 817.82 817.60 810.36 820.78 803.75 C 825.12 793.02 835.18 785.11 846.41 782.70 Z" />
</g>
</svg>
