<?xml version="1.0" encoding="UTF-8" ?>
<!DOCTYPE svg PUBLIC "-//W3C//DTD SVG 1.1//EN" "http://www.w3.org/Graphics/SVG/1.1/DTD/svg11.dtd">
<svg width="1276pt" height="1276pt" viewBox="0 0 1276 1276" version="1.1" xmlns="http://www.w3.org/2000/svg">
<g id="#ffffffff">
<path fill="#ffffff" opacity="1.00" d=" M 867.08 228.07 C 895.25 224.89 923.66 225.13 951.97 225.05 C 974.33 225.16 996.74 224.58 1019.03 226.73 C 1030.66 228.03 1042.40 229.60 1053.48 233.49 C 1063.72 237.08 1073.02 244.21 1077.64 254.21 C 1084.55 268.58 1083.47 284.93 1083.79 300.42 C 1061.20 300.54 1038.60 300.50 1016.00 300.44 C 1016.32 294.58 1016.65 287.49 1011.60 283.39 C 1004.45 277.63 994.64 278.46 986.04 277.79 C 962.69 277.74 939.35 277.77 916.00 277.77 C 907.61 278.29 898.97 277.86 890.90 280.57 C 886.74 281.83 883.90 285.72 883.13 289.88 C 882.23 294.69 882.27 299.95 884.48 304.42 C 885.96 307.56 889.13 309.57 892.47 310.23 C 903.54 312.37 914.87 312.21 926.09 312.75 C 947.41 313.77 968.74 314.38 990.08 314.65 C 1009.17 315.32 1028.38 315.87 1047.20 319.49 C 1059.80 321.76 1072.56 326.88 1080.95 336.93 C 1089.28 347.67 1091.05 361.79 1091.65 374.96 C 1091.89 390.88 1092.38 407.24 1087.40 422.58 C 1084.06 433.09 1077.57 443.05 1067.84 448.63 C 1056.02 455.38 1042.23 457.32 1028.87 458.40 C 996.27 460.00 963.62 459.62 930.99 459.94 C 908.68 459.89 886.25 459.83 864.16 456.35 C 856.20 454.99 848.17 453.49 840.79 450.11 C 828.86 444.77 818.48 434.70 815.17 421.77 C 811.66 408.36 812.63 394.29 813.49 380.61 C 835.88 380.75 858.27 380.65 880.66 380.66 C 880.31 388.67 880.78 398.86 888.57 403.40 C 896.69 407.49 906.14 406.57 914.96 407.19 C 921.97 406.55 928.98 407.52 936.01 407.23 C 949.67 407.78 963.34 407.13 977.00 407.24 C 990.07 406.41 1003.66 408.65 1016.29 404.18 C 1020.55 402.80 1023.84 399.08 1024.28 394.56 C 1024.81 388.26 1025.64 380.94 1021.30 375.70 C 1016.95 371.03 1010.07 370.50 1004.09 370.27 C 963.97 369.29 923.90 366.95 883.80 365.50 C 869.10 364.95 853.83 364.09 840.39 357.52 C 830.44 352.67 822.82 343.62 819.37 333.14 C 814.51 318.93 814.98 303.63 815.34 288.82 C 816.10 273.54 818.83 257.17 829.19 245.23 C 838.64 234.35 853.17 229.69 867.08 228.07 Z" />
<path fill="#ffffff" opacity="1.00" d=" M 185.14 228.64 C 277.07 228.56 369.00 228.56 460.92 228.64 C 460.68 248.01 460.82 267.38 460.85 286.75 C 427.07 286.76 393.28 286.76 359.50 286.75 C 359.61 343.29 359.41 399.84 359.60 456.38 C 335.22 456.42 310.84 456.42 286.47 456.38 C 286.63 399.83 286.46 343.29 286.55 286.74 C 252.77 286.77 218.99 286.76 185.20 286.75 C 185.24 267.38 185.37 248.01 185.14 228.64 Z" />
<path fill="#ffffff" opacity="1.00" d=" M 495.82 228.60 C 553.54 228.59 611.26 228.60 668.99 228.60 C 674.93 228.65 680.89 228.46 686.83 228.74 C 702.57 229.01 718.37 228.17 734.04 229.98 C 746.58 231.40 759.41 236.36 767.38 246.55 C 777.83 259.10 779.34 276.28 779.34 291.96 C 778.96 308.34 780.85 325.20 775.85 341.08 C 773.17 349.79 767.52 357.90 759.21 362.00 C 752.60 365.50 745.20 366.98 737.86 368.03 C 748.39 369.32 760.07 371.15 767.57 379.45 C 776.13 389.07 776.53 402.73 777.07 414.91 C 777.20 428.74 777.06 442.57 777.14 456.40 C 754.26 456.39 731.39 456.43 708.51 456.38 C 708.49 442.40 709.31 428.23 706.35 414.45 C 705.34 409.65 702.89 404.91 698.59 402.29 C 692.74 398.75 685.65 398.91 679.06 398.65 C 641.19 398.64 603.33 398.67 565.47 398.64 C 565.59 417.89 565.40 437.14 565.57 456.39 C 542.32 456.43 519.07 456.40 495.82 456.40 C 495.86 380.47 495.85 304.53 495.82 228.60 M 565.45 285.67 C 565.53 304.30 565.55 322.93 565.44 341.56 C 585.32 341.62 605.21 341.57 625.09 341.59 C 646.69 341.54 668.31 341.90 689.88 340.64 C 695.06 340.21 700.76 339.48 704.67 335.70 C 707.88 332.34 708.88 327.59 709.41 323.13 C 710.04 316.39 710.08 309.58 709.42 302.85 C 708.79 297.78 707.20 292.17 702.57 289.34 C 696.74 285.78 689.59 286.00 683.00 285.68 C 643.82 285.63 604.63 285.65 565.45 285.67 Z" />
<path fill="#ffffff" opacity="1.00" d=" M 837.53 498.57 C 864.69 498.00 891.87 498.57 919.01 499.21 C 943.04 499.86 967.07 500.08 991.07 501.76 C 1014.51 503.97 1039.16 507.31 1059.01 521.00 C 1074.96 531.76 1084.63 549.69 1088.89 568.10 C 1094.86 591.60 1093.49 616.01 1093.62 640.03 C 1093.62 671.37 1093.62 702.72 1093.62 734.06 C 1093.85 756.13 1092.74 778.85 1084.41 799.57 C 1078.40 814.79 1067.23 828.00 1052.85 835.92 C 1033.51 847.07 1010.80 849.34 989.02 851.50 C 942.79 855.53 896.39 854.01 850.02 854.31 C 828.07 853.92 806.11 853.62 784.16 853.20 C 760.18 852.29 735.72 851.14 712.87 843.12 C 698.22 838.06 684.53 829.31 675.20 816.79 C 666.72 805.51 661.99 791.82 659.88 777.97 C 656.96 758.78 656.01 739.33 656.23 719.94 C 656.25 717.42 656.26 714.89 655.98 712.40 C 656.65 675.95 655.61 639.44 657.12 603.03 C 657.86 583.38 660.25 563.11 669.52 545.45 C 677.04 530.80 690.21 519.50 705.24 513.04 C 716.82 507.84 729.35 505.29 741.87 503.61 C 773.58 499.37 805.61 498.82 837.53 498.57 M 829.51 589.57 C 820.12 590.09 810.68 590.40 801.40 592.09 C 794.21 593.16 786.82 594.70 780.60 598.63 C 773.63 603.11 770.07 611.08 767.83 618.75 C 763.66 634.11 763.19 650.17 763.16 666.00 C 763.35 685.00 762.34 704.13 765.22 722.99 C 766.69 732.82 768.82 743.49 776.19 750.74 C 785.03 759.05 797.68 760.36 809.14 762.02 C 831.32 764.29 853.65 764.66 875.92 764.06 C 897.31 763.38 918.72 763.39 940.10 762.19 C 949.88 761.30 960.09 760.00 968.61 754.73 C 977.37 749.22 981.87 739.19 984.26 729.48 C 988.63 711.29 987.25 692.48 987.47 673.95 C 987.33 662.09 987.94 650.19 986.67 638.37 C 985.28 625.37 982.56 611.47 973.36 601.57 C 966.21 594.21 955.58 592.41 945.87 591.04 C 924.96 588.90 903.91 590.40 882.95 589.47 C 865.14 589.56 847.32 589.35 829.51 589.57 Z" />
<path fill="#ffffff" opacity="1.00" d=" M 271.62 503.42 C 303.99 499.53 336.63 498.73 369.20 498.59 C 391.41 498.01 413.64 498.79 435.84 499.19 C 453.87 499.60 471.88 500.60 489.89 501.70 C 511.18 503.58 533.01 506.22 552.46 515.67 C 563.26 520.85 572.48 529.47 577.77 540.27 C 585.18 554.71 587.44 571.17 587.89 587.21 C 588.72 596.26 587.84 605.34 587.29 614.38 C 585.62 629.10 581.76 644.39 571.73 655.76 C 563.83 665.25 551.68 670.00 539.67 671.40 C 535.43 672.06 531.11 671.99 526.91 672.85 C 537.97 674.68 549.32 676.33 559.48 681.35 C 572.08 687.32 582.10 698.52 586.41 711.80 C 591.22 724.98 591.81 739.14 592.31 753.00 C 592.40 770.79 592.37 789.11 586.03 805.99 C 581.88 817.63 573.96 827.92 563.52 834.59 C 551.09 842.61 536.48 846.26 522.13 849.11 C 506.92 851.85 491.49 853.16 476.08 853.95 C 445.09 855.35 414.03 854.16 383.00 854.31 C 353.98 854.15 324.94 855.28 295.96 853.93 C 273.63 852.66 251.05 850.44 229.78 843.13 C 217.28 838.67 204.67 832.30 196.85 821.17 C 186.06 806.11 183.51 787.04 182.69 769.01 C 182.99 763.02 181.91 757.04 182.60 751.06 C 182.72 734.73 184.43 717.75 192.39 703.17 C 197.63 693.51 205.82 685.32 216.04 681.04 C 226.31 676.56 237.44 674.61 248.44 672.86 C 241.28 671.66 233.90 671.76 226.87 669.71 C 214.77 666.86 203.81 659.20 197.45 648.45 C 189.81 635.70 187.72 620.60 186.87 606.02 C 186.53 587.40 186.44 568.26 192.68 550.45 C 197.12 536.87 206.43 524.86 218.83 517.66 C 234.71 508.03 253.53 505.61 271.62 503.42 M 324.70 577.90 C 315.65 579.12 305.88 578.92 297.86 583.89 C 291.11 588.09 288.71 596.48 288.50 604.00 C 288.10 611.80 288.13 620.50 293.10 627.01 C 297.71 632.60 305.37 633.96 312.17 634.85 C 331.72 636.94 351.38 637.00 371.01 637.46 C 379.68 637.68 388.33 636.95 397.00 637.13 C 409.10 637.02 421.21 637.34 433.30 636.97 C 447.78 636.29 462.81 636.72 476.60 631.56 C 482.99 629.40 485.53 622.40 486.10 616.25 C 486.78 608.07 487.07 599.34 483.36 591.79 C 480.74 586.37 475.51 582.70 469.88 580.94 C 458.93 577.40 447.29 578.67 436.01 577.75 C 428.31 577.91 420.64 577.28 412.94 577.47 C 403.66 576.76 394.33 577.72 385.06 576.82 C 364.92 576.70 344.79 576.64 324.70 577.90 M 318.57 712.86 C 310.35 713.80 301.85 714.19 294.11 717.37 C 287.42 720.44 285.23 728.38 284.53 735.10 C 284.12 743.26 283.46 751.67 285.68 759.64 C 287.20 765.12 291.41 769.81 296.99 771.29 C 311.25 775.59 326.32 775.45 341.05 776.23 C 355.05 776.00 369.07 776.66 383.04 775.78 C 402.03 775.89 421.03 775.63 439.99 774.81 C 445.01 775.71 450.04 774.55 455.09 774.77 C 465.20 774.04 476.22 773.10 484.38 766.43 C 489.45 761.82 490.28 754.50 490.59 748.05 C 490.52 739.74 491.40 730.68 486.94 723.25 C 484.03 718.29 478.33 716.26 473.00 715.15 C 460.49 712.65 447.68 712.68 434.98 712.77 C 422.32 712.15 409.63 712.47 396.99 711.76 C 370.84 712.03 344.67 711.06 318.57 712.86 Z" />
</g>
<g id="#dd243cff">
<path fill="#dd243c" opacity="1.00" d=" M 211.54 914.73 C 213.67 914.28 215.85 914.10 218.03 914.06 C 285.00 914.04 351.98 914.06 418.96 914.05 C 430.55 913.95 441.83 920.23 448.29 929.78 C 451.95 935.51 454.38 942.16 454.38 949.02 C 454.37 972.00 454.41 994.98 454.37 1017.96 C 454.01 1035.87 438.10 1052.27 419.97 1051.95 C 352.98 1051.95 285.98 1051.93 218.98 1051.96 C 205.04 1052.76 191.60 1043.53 186.17 1030.87 C 183.67 1025.62 182.89 1019.75 183.15 1014.00 C 183.19 991.96 183.11 969.92 183.18 947.88 C 183.70 932.05 196.09 917.85 211.54 914.73 Z" />
</g>
<g id="#1aaa4bff">
<path fill="#1aaa4b" opacity="1.00" d=" M 529.40 914.63 C 533.55 913.81 537.81 914.08 542.02 914.05 C 604.68 914.05 667.34 914.05 730.00 914.05 C 733.68 914.07 737.37 913.88 741.04 914.34 C 754.55 916.25 766.75 926.44 770.22 939.76 C 772.42 946.64 771.38 953.94 771.62 961.04 C 771.58 980.36 771.70 999.69 771.56 1019.01 C 770.83 1036.69 754.82 1052.45 736.99 1051.95 C 669.64 1051.94 602.30 1051.95 534.95 1051.95 C 517.21 1052.28 501.39 1036.57 500.68 1018.98 C 500.53 1000.00 500.66 981.01 500.62 962.03 C 500.81 953.90 499.71 945.48 502.67 937.70 C 506.56 925.93 517.34 917.06 529.40 914.63 Z" />
</g>
<g id="#1094d2ff">
<path fill="#1094d2" opacity="1.00" d=" M 846.52 914.68 C 850.62 913.83 854.83 914.07 858.99 914.05 C 923.98 914.05 988.98 914.05 1053.97 914.05 C 1071.72 913.89 1088.17 929.12 1088.87 946.93 C 1088.93 970.30 1088.86 993.67 1088.90 1017.03 C 1089.55 1035.55 1072.56 1052.69 1053.99 1051.96 C 988.33 1051.94 922.67 1051.95 857.00 1051.95 C 853.15 1051.90 849.25 1052.17 845.46 1051.37 C 834.80 1048.73 825.28 1041.18 820.98 1030.99 C 818.30 1025.40 817.60 1019.11 817.84 1012.99 C 817.85 992.65 817.86 972.30 817.83 951.97 C 817.68 946.42 818.46 940.77 820.81 935.70 C 825.16 924.95 835.26 917.06 846.52 914.68 Z" />
</g>
</svg>
