<?xml version="1.0" encoding="UTF-8" ?>
<!DOCTYPE svg PUBLIC "-//W3C//DTD SVG 1.1//EN" "http://www.w3.org/Graphics/SVG/1.1/DTD/svg11.dtd">
<svg width="1276pt" height="1276pt" viewBox="0 0 1276 1276" version="1.1" xmlns="http://www.w3.org/2000/svg">
<g id="#fcfcfcff">
<path fill="#fcfcfc" opacity="1.00" d=" M 379.11 270.02 C 489.73 269.97 600.35 270.02 710.98 269.99 C 713.66 270.02 716.41 269.78 719.05 270.43 C 721.17 279.75 723.89 288.96 726.53 298.15 C 727.27 297.75 728.01 297.34 728.76 296.93 C 729.80 295.59 730.90 294.29 732.08 293.06 C 734.37 290.71 736.65 288.34 738.90 285.94 C 740.91 283.94 742.76 281.79 744.72 279.74 C 747.73 276.44 750.81 273.20 753.96 270.03 C 901.95 269.96 1049.94 270.03 1197.94 270.00 C 1200.30 269.98 1202.67 270.03 1205.06 270.10 C 1201.74 273.12 1198.68 276.41 1195.69 279.75 C 1195.40 279.99 1194.81 280.48 1194.52 280.72 L 1194.50 281.46 L 1193.80 281.55 C 1193.14 282.33 1192.49 283.12 1191.86 283.90 C 1191.61 284.13 1191.11 284.60 1190.86 284.83 C 1187.08 289.05 1182.96 292.96 1179.21 297.21 C 1178.19 298.21 1177.22 299.24 1176.31 300.32 C 1172.04 305.14 1167.23 309.45 1163.14 314.42 L 1162.72 314.48 C 1162.42 314.80 1161.82 315.44 1161.52 315.77 L 1161.47 316.21 C 1156.50 321.35 1151.54 326.48 1146.67 331.72 C 1146.43 331.95 1145.94 332.42 1145.69 332.65 C 1145.36 333.09 1144.69 333.95 1144.36 334.38 C 1144.09 334.61 1143.54 335.08 1143.27 335.31 C 1143.04 335.56 1142.60 336.06 1142.38 336.31 C 1138.51 340.53 1134.46 344.57 1130.56 348.76 L 1130.45 349.45 L 1129.64 349.45 C 1129.30 349.91 1128.63 350.85 1128.29 351.32 C 1128.05 351.62 1127.59 352.22 1127.35 352.52 L 1126.87 352.64 C 1123.03 357.21 1118.58 361.22 1114.63 365.69 C 1114.40 365.94 1113.94 366.43 1113.71 366.67 C 1113.41 366.93 1112.80 367.46 1112.50 367.72 L 1112.50 368.50 L 1111.83 368.60 C 1111.53 368.91 1110.94 369.53 1110.64 369.84 L 1110.50 370.24 C 1106.22 374.72 1101.92 379.17 1097.66 383.66 C 1096.86 384.55 1096.08 385.43 1095.31 386.32 C 1095.06 386.56 1094.56 387.03 1094.31 387.26 C 1090.51 391.55 1086.41 395.56 1082.50 399.73 L 1082.37 400.16 C 1082.06 400.46 1081.45 401.05 1081.14 401.35 L 1080.74 401.54 C 1080.46 401.86 1079.90 402.49 1079.62 402.81 L 1079.46 403.26 C 1079.18 403.52 1078.60 404.03 1078.32 404.28 C 1073.47 409.52 1068.48 414.61 1063.52 419.74 L 1063.49 420.25 C 1063.18 420.56 1062.57 421.19 1062.27 421.50 L 1061.85 421.57 C 1057.33 427.12 1051.86 431.80 1047.26 437.28 C 1047.01 437.52 1046.49 437.99 1046.24 438.23 C 1041.91 443.21 1037.10 447.75 1032.69 452.65 C 1032.03 453.36 1031.38 454.07 1030.75 454.78 C 1030.50 455.02 1030.01 455.49 1029.77 455.72 C 1028.82 456.79 1027.88 457.85 1026.92 458.91 C 1024.11 461.79 1021.26 464.64 1018.61 467.67 C 1018.08 468.10 1017.55 468.54 1017.04 468.97 C 1016.43 469.81 1015.81 470.65 1015.25 471.51 L 1014.79 471.52 C 1014.48 471.84 1013.86 472.48 1013.55 472.80 L 1013.51 473.23 C 1012.30 474.45 1011.11 475.69 1009.91 476.92 C 1006.37 480.80 1002.45 484.33 999.15 488.42 L 998.74 488.54 C 998.48 488.83 997.98 489.42 997.72 489.71 C 992.58 495.56 986.98 500.99 981.71 506.72 C 980.74 507.77 979.79 508.84 978.85 509.92 C 974.69 514.19 970.61 518.52 966.47 522.80 L 966.53 523.60 L 965.44 523.32 C 965.48 523.60 965.57 524.18 965.61 524.46 C 965.42 524.48 965.04 524.51 964.85 524.52 C 963.91 525.69 962.94 526.82 961.92 527.91 C 958.17 531.85 954.29 535.66 950.66 539.71 C 950.37 539.96 949.79 540.46 949.50 540.71 L 949.51 541.47 L 948.48 541.46 L 948.43 542.22 C 948.15 542.54 947.58 543.18 947.30 543.50 L 946.55 543.59 L 946.54 544.32 C 946.25 544.57 945.68 545.08 945.39 545.34 C 941.55 549.51 937.54 553.52 933.68 557.68 C 928.71 563.46 923.03 568.57 918.14 574.42 L 917.72 574.48 C 917.41 574.79 916.80 575.43 916.49 575.74 L 916.45 576.19 C 915.40 577.22 914.37 578.27 913.36 579.33 C 909.73 583.46 905.59 587.12 902.11 591.38 L 901.67 591.48 C 901.38 591.79 900.79 592.42 900.50 592.74 L 900.44 593.19 C 899.70 593.88 898.98 594.59 898.27 595.30 C 898.04 595.55 897.58 596.05 897.35 596.30 C 893.40 600.68 889.18 604.81 885.17 609.15 C 884.48 609.89 883.82 610.64 883.17 611.41 L 882.79 611.59 C 882.51 611.90 881.94 612.53 881.66 612.84 L 881.49 613.26 C 877.55 617.41 873.48 621.45 869.63 625.68 C 869.39 625.92 868.90 626.40 868.66 626.64 C 867.70 627.70 866.77 628.78 865.83 629.86 C 865.58 630.09 865.07 630.56 864.82 630.80 C 860.48 635.86 855.37 640.22 851.21 645.44 L 850.52 645.54 L 850.46 646.27 C 850.17 646.51 849.59 647.00 849.30 647.24 C 845.70 651.36 841.77 655.17 838.03 659.15 C 837.06 660.15 836.10 661.17 835.16 662.20 C 834.94 662.53 834.50 663.18 834.28 663.50 L 833.75 663.55 C 833.51 663.86 833.04 664.47 832.81 664.78 C 831.50 666.36 830.08 667.85 828.42 669.06 C 828.32 672.88 830.10 676.39 830.87 680.08 C 831.27 681.36 831.65 682.68 832.08 683.98 C 834.46 692.33 836.45 700.80 838.80 709.17 C 842.01 718.68 843.93 728.55 846.81 738.15 C 850.16 747.62 851.74 757.60 854.88 767.14 C 857.72 775.93 859.42 785.04 862.13 793.88 C 862.75 796.22 863.43 798.55 864.16 800.88 C 866.49 809.26 868.47 817.72 870.90 826.08 C 871.21 827.09 871.52 828.11 871.83 829.15 C 874.65 837.94 876.25 847.07 879.21 855.82 C 882.23 865.21 883.92 874.98 887.09 884.33 C 889.11 891.23 890.86 898.21 892.84 905.13 C 895.57 913.65 897.31 922.46 900.13 930.95 C 900.36 931.98 900.61 933.02 900.86 934.08 C 903.66 942.58 905.19 951.44 908.11 959.92 C 911.72 972.18 914.32 984.72 918.12 996.93 C 918.73 999.22 919.39 1001.49 920.00 1003.80 C 809.02 1003.89 698.04 1003.80 587.06 1003.85 C 584.66 1003.85 582.26 1003.84 579.88 1003.66 C 579.59 1002.13 579.28 1000.62 578.86 999.15 C 578.28 996.97 577.66 994.80 577.16 992.62 C 576.70 991.10 576.32 989.59 575.87 988.10 C 575.05 984.67 574.01 981.31 573.15 977.90 C 570.23 968.00 567.74 957.99 564.96 948.05 C 564.87 948.43 564.68 949.19 564.59 949.57 L 563.46 949.34 L 563.52 950.19 C 558.56 955.36 553.54 960.47 548.70 965.75 C 548.41 966.01 547.85 966.52 547.56 966.78 L 547.53 967.50 L 546.83 967.58 C 545.78 968.93 544.65 970.24 543.44 971.46 C 540.96 973.97 538.51 976.52 536.07 979.08 C 535.05 980.15 534.06 981.24 533.12 982.39 L 532.50 982.53 L 532.48 983.25 C 532.17 983.55 531.56 984.16 531.26 984.46 L 530.81 984.57 C 526.32 990.12 520.88 994.82 516.26 1000.27 C 516.02 1000.52 515.54 1001.01 515.29 1001.26 C 514.10 1002.47 513.06 1004.30 511.04 1003.84 C 454.72 1003.72 398.40 1004.11 342.08 1004.00 C 257.40 1004.00 172.73 1004.00 88.05 1004.00 C 78.85 1003.78 69.60 1004.46 60.43 1003.60 C 63.86 1001.76 66.01 998.39 68.72 995.71 C 72.95 990.87 77.78 986.58 81.86 981.61 L 82.27 981.50 C 82.59 981.19 83.22 980.57 83.53 980.27 L 83.59 979.88 C 88.99 973.85 94.68 968.10 100.10 962.11 C 109.43 952.43 118.51 942.52 127.82 932.82 C 128.94 931.60 130.06 930.39 131.19 929.20 C 135.26 924.64 139.67 920.39 143.76 915.85 C 218.04 837.07 292.27 758.26 366.54 679.47 C 372.90 673.22 378.40 666.07 385.13 660.21 C 389.23 655.92 393.35 651.66 397.39 647.32 C 397.68 647.07 398.26 646.57 398.55 646.32 L 398.59 645.86 C 399.48 644.98 400.36 644.09 401.26 643.23 C 401.49 642.98 401.97 642.48 402.20 642.23 C 405.79 638.13 409.76 634.41 413.38 630.34 C 413.63 630.11 414.14 629.66 414.39 629.44 C 415.19 628.46 415.99 627.49 416.79 626.52 L 417.19 626.45 C 417.51 626.13 418.13 625.49 418.45 625.18 L 418.48 624.77 C 423.55 619.41 428.86 614.27 433.69 608.69 C 433.95 608.45 434.45 607.98 434.71 607.75 C 438.59 603.34 442.79 599.22 446.83 594.96 C 447.65 594.04 448.45 593.11 449.28 592.20 C 449.52 591.97 450.02 591.51 450.26 591.28 C 451.80 589.47 453.39 587.71 455.10 586.06 C 457.87 583.07 460.74 580.18 463.54 577.23 C 462.46 573.10 461.24 569.00 460.13 564.89 C 457.34 556.08 455.56 546.99 452.83 538.17 C 452.53 537.12 452.23 536.08 451.92 535.06 C 449.10 525.45 446.84 515.68 443.84 506.13 C 441.73 498.81 440.09 491.36 437.75 484.11 C 437.59 482.99 437.44 481.88 437.29 480.77 C 436.76 479.25 436.30 477.73 435.78 476.22 C 433.09 467.96 431.59 459.38 428.86 451.14 C 425.65 441.63 424.04 431.67 420.80 422.17 C 418.75 415.12 417.08 407.96 415.16 400.87 C 414.47 398.53 413.79 396.19 413.17 393.85 C 410.40 385.04 408.51 375.99 405.82 367.16 C 405.51 366.13 405.19 365.11 404.86 364.10 C 402.29 355.38 400.45 346.47 397.60 337.85 C 395.11 329.96 393.47 321.84 391.11 313.92 C 390.77 312.90 390.44 311.88 390.13 310.86 C 389.66 309.31 389.26 307.74 388.80 306.19 C 386.93 298.81 385.10 291.40 382.85 284.12 C 382.51 282.80 382.16 281.48 381.77 280.19 C 381.63 279.59 381.37 278.40 381.24 277.81 C 380.44 275.24 379.75 272.63 379.11 270.02 M 414.43 297.46 C 416.03 303.28 417.47 309.13 419.14 314.93 C 419.70 316.99 420.29 319.04 420.85 321.11 C 424.32 333.67 427.53 346.32 431.18 358.84 C 435.11 374.37 439.75 389.71 443.78 405.22 L 444.16 405.87 C 448.11 420.55 452.17 435.21 456.16 449.88 C 464.77 482.38 474.00 514.70 482.81 547.14 C 486.99 561.44 490.46 575.93 494.66 590.21 C 468.78 617.16 443.55 644.72 417.56 671.55 C 367.66 724.33 317.88 777.23 268.00 830.03 C 222.04 878.85 175.90 927.50 130.04 976.42 C 138.32 976.51 146.61 976.65 154.89 976.37 C 159.52 975.42 164.26 975.73 168.96 975.71 C 278.13 975.66 387.31 975.80 496.48 975.64 C 523.27 947.00 550.28 918.57 577.14 890.00 C 580.83 903.01 584.21 916.10 587.82 929.14 C 588.17 930.46 588.50 931.81 588.82 933.17 L 589.19 933.76 C 592.68 947.81 596.76 961.72 600.52 975.71 C 695.23 975.66 789.95 975.82 884.67 975.63 C 874.52 938.71 864.11 901.87 854.17 864.89 C 853.70 863.29 853.27 861.70 852.82 860.12 C 842.27 820.27 830.65 780.71 820.22 740.83 L 819.83 740.16 C 813.68 716.02 806.62 692.13 800.15 668.08 C 799.18 664.10 797.28 660.27 797.34 656.10 C 801.12 652.96 804.00 648.91 807.55 645.52 C 910.86 536.21 1013.96 426.72 1117.22 317.37 C 1122.96 310.51 1130.10 304.83 1135.29 297.54 C 1013.76 297.43 892.22 297.53 770.69 297.49 C 764.89 304.41 758.19 310.50 752.21 317.25 C 746.59 323.61 740.40 329.43 734.75 335.75 C 728.25 342.99 721.15 349.67 714.86 357.10 C 711.38 346.56 709.01 335.70 705.82 325.07 C 703.08 315.96 700.89 306.69 698.26 297.55 C 603.65 297.40 509.04 297.57 414.43 297.46 Z" />
</g>
<g id="#333333ff">
<path fill="#333333" opacity="1.00" d=" M 414.43 297.46 C 509.04 297.57 603.65 297.40 698.26 297.55 C 700.89 306.69 703.08 315.96 705.82 325.07 C 709.01 335.70 711.38 346.56 714.86 357.10 C 721.15 349.67 728.25 342.99 734.75 335.75 C 740.40 329.43 746.59 323.61 752.21 317.25 C 758.19 310.50 764.89 304.41 770.69 297.49 C 892.22 297.53 1013.76 297.43 1135.29 297.54 C 1130.10 304.83 1122.96 310.51 1117.22 317.37 C 1013.96 426.72 910.86 536.21 807.55 645.52 C 804.00 648.91 801.12 652.96 797.34 656.10 C 797.28 660.27 799.18 664.10 800.15 668.08 C 806.62 692.13 813.68 716.02 819.83 740.16 L 820.22 740.83 C 830.65 780.71 842.27 820.27 852.82 860.12 C 853.27 861.70 853.70 863.29 854.17 864.89 C 864.11 901.87 874.52 938.71 884.67 975.63 C 789.95 975.82 695.23 975.66 600.52 975.71 C 596.76 961.72 592.68 947.81 589.19 933.76 L 588.82 933.17 C 588.50 931.81 588.17 930.46 587.82 929.14 C 584.21 916.10 580.83 903.01 577.14 890.00 C 550.28 918.57 523.27 947.00 496.48 975.64 C 387.31 975.80 278.13 975.66 168.96 975.71 C 164.26 975.73 159.52 975.42 154.89 976.37 C 146.61 976.65 138.32 976.51 130.04 976.42 C 175.90 927.50 222.04 878.85 268.00 830.03 C 317.88 777.23 367.66 724.33 417.56 671.55 C 443.55 644.72 468.78 617.16 494.66 590.21 C 490.46 575.93 486.99 561.44 482.81 547.14 C 474.00 514.70 464.77 482.38 456.16 449.88 C 452.17 435.21 448.11 420.55 444.16 405.87 L 443.78 405.22 C 439.75 389.71 435.11 374.37 431.18 358.84 C 427.53 346.32 424.32 333.67 420.85 321.11 C 420.29 319.04 419.70 316.99 419.14 314.93 C 417.47 309.13 416.03 303.28 414.43 297.46 M 502.73 366.56 C 515.17 411.68 527.19 456.91 539.86 501.97 C 550.89 541.69 561.26 581.59 572.67 621.20 C 508.25 689.91 443.48 758.29 378.98 826.93 C 353.89 853.32 329.17 880.06 303.95 906.32 C 305.39 907.55 307.28 907.13 308.99 907.10 C 312.65 906.76 316.30 907.41 319.96 907.21 C 327.62 906.35 335.29 907.85 342.96 907.00 C 349.30 907.56 355.64 906.32 361.97 907.07 C 367.63 907.75 373.31 906.39 378.97 907.15 C 383.66 907.65 388.34 906.48 393.03 906.99 C 401.01 907.82 409.01 906.46 416.99 907.27 C 426.31 906.56 435.62 907.52 444.95 907.24 C 448.89 907.02 453.91 908.39 456.56 904.57 C 506.46 851.56 556.49 798.66 606.34 745.59 C 609.19 753.40 610.93 761.57 613.28 769.54 C 625.38 815.32 638.64 860.78 650.69 906.57 C 652.41 906.97 654.17 907.31 655.97 907.27 C 662.99 907.17 670.02 907.43 677.03 906.84 C 687.35 907.53 697.69 907.12 708.02 907.24 C 720.68 906.71 733.35 907.59 746.01 906.91 C 752.32 907.71 758.62 906.24 764.93 907.02 C 768.94 907.12 772.97 906.86 776.99 907.08 C 783.32 906.57 789.65 907.73 795.98 907.04 C 793.19 893.87 788.94 881.06 785.70 867.99 C 778.95 843.46 772.06 818.96 765.34 794.42 C 750.33 738.15 734.25 682.17 719.33 625.87 C 796.59 543.97 873.78 462.00 950.99 380.06 C 955.09 375.64 959.65 371.58 963.12 366.62 C 913.06 366.50 863.00 366.55 812.94 366.60 C 770.42 411.68 727.89 456.74 685.39 501.85 C 672.40 456.94 660.64 411.67 648.12 366.62 C 599.66 366.48 551.19 366.60 502.73 366.56 Z" />
</g>
<g id="#0b61a8ff">
<path fill="#0b61a8" opacity="1.00" d=" M 502.73 366.56 C 551.19 366.60 599.66 366.48 648.12 366.62 C 660.64 411.67 672.40 456.94 685.39 501.85 C 727.89 456.74 770.42 411.68 812.94 366.60 C 863.00 366.55 913.06 366.50 963.12 366.62 C 959.65 371.58 955.09 375.64 950.99 380.06 C 873.78 462.00 796.59 543.97 719.33 625.87 C 734.25 682.17 750.33 738.15 765.34 794.42 C 772.06 818.96 778.95 843.46 785.70 867.99 C 788.94 881.06 793.19 893.87 795.98 907.04 C 789.65 907.73 783.32 906.57 776.99 907.08 C 772.97 906.86 768.94 907.12 764.93 907.02 C 758.62 906.24 752.32 907.71 746.01 906.91 C 733.35 907.59 720.68 906.71 708.02 907.24 C 697.69 907.12 687.35 907.53 677.03 906.84 C 670.02 907.43 662.99 907.17 655.97 907.27 C 654.17 907.31 652.41 906.97 650.69 906.57 C 638.64 860.78 625.38 815.32 613.28 769.54 C 610.93 761.57 609.19 753.40 606.34 745.59 C 556.49 798.66 506.46 851.56 456.56 904.57 C 453.91 908.39 448.89 907.02 444.95 907.24 C 435.62 907.52 426.31 906.56 416.99 907.27 C 409.01 906.46 401.01 907.82 393.03 906.99 C 388.34 906.48 383.66 907.65 378.97 907.15 C 373.31 906.39 367.63 907.75 361.97 907.07 C 355.64 906.32 349.30 907.56 342.96 907.00 C 335.29 907.85 327.62 906.35 319.96 907.21 C 316.30 907.41 312.65 906.76 308.99 907.10 C 307.28 907.13 305.39 907.55 303.95 906.32 C 329.17 880.06 353.89 853.32 378.98 826.93 C 443.48 758.29 508.25 689.91 572.67 621.20 C 561.26 581.59 550.89 541.69 539.86 501.97 C 527.19 456.91 515.17 411.68 502.73 366.56 Z" />
</g>
</svg>
