<?xml version="1.0" encoding="UTF-8" ?>
<!DOCTYPE svg PUBLIC "-//W3C//DTD SVG 1.1//EN" "http://www.w3.org/Graphics/SVG/1.1/DTD/svg11.dtd">
<svg width="1276pt" height="1276pt" viewBox="0 0 1276 1276" version="1.1" xmlns="http://www.w3.org/2000/svg">
<g id="#0b61a8ff">
<path fill="#0b61a8" opacity="1.00" d=" M 1016.40 131.72 C 1047.80 126.90 1081.03 135.24 1106.18 154.72 C 1124.08 168.37 1137.97 187.23 1145.61 208.42 C 1155.09 234.54 1154.99 264.01 1145.46 290.11 C 1138.17 309.94 1125.47 327.76 1109.08 341.09 C 1087.65 358.75 1059.79 368.32 1032.05 367.74 C 1003.92 367.44 976.12 356.55 955.17 337.81 C 926.41 312.62 911.32 272.83 916.25 234.90 C 919.98 201.82 938.55 170.86 965.86 151.87 C 980.85 141.37 998.29 134.38 1016.40 131.72 Z" />
<path fill="#0b61a8" opacity="1.00" d=" M 534.75 334.20 C 567.22 393.35 599.07 452.86 631.58 511.99 C 644.55 499.11 658.46 487.19 672.41 475.39 C 726.34 430.12 785.50 391.11 848.23 359.14 C 851.61 365.44 854.90 371.78 858.38 378.03 C 785.78 426.44 721.42 487.19 669.18 557.09 C 666.71 560.58 663.71 563.73 661.91 567.65 C 659.15 564.95 657.70 561.33 655.83 558.03 C 647.57 542.93 639.50 527.73 631.13 512.69 C 617.98 526.03 604.39 538.95 591.77 552.81 C 486.03 666.38 409.56 806.91 371.55 957.36 C 360.35 1001.44 352.41 1046.35 347.79 1091.60 C 272.92 1091.50 198.04 1091.66 123.17 1091.52 C 260.43 839.12 397.50 586.61 534.75 334.20 Z" />
<path fill="#0b61a8" opacity="1.00" d=" M 659.03 568.01 C 660.33 568.00 661.64 568.01 662.96 568.01 L 661.82 568.29 C 677.71 596.79 693.03 625.62 708.69 654.26 C 755.98 741.29 803.25 828.34 850.54 915.37 C 882.35 974.12 914.45 1032.72 946.12 1091.54 C 803.44 1091.62 660.77 1091.53 518.09 1091.59 C 516.11 1069.12 514.67 1046.58 514.81 1024.03 C 512.79 861.75 564.82 699.37 660.38 568.22 L 659.03 568.01 Z" />
</g>
</svg>
