<?xml version="1.0" encoding="UTF-8" ?>
<!DOCTYPE svg PUBLIC "-//W3C//DTD SVG 1.1//EN" "http://www.w3.org/Graphics/SVG/1.1/DTD/svg11.dtd">
<svg width="1276pt" height="1276pt" viewBox="0 0 1276 1276" version="1.1" xmlns="http://www.w3.org/2000/svg">
<g id="#000000ff">
<path fill="#000000" opacity="1.00" d=" M 167.94 305.90 C 168.99 304.80 170.32 303.93 171.92 304.17 C 214.29 304.19 256.67 304.11 299.05 304.21 C 301.53 303.93 303.13 306.20 303.38 308.43 C 312.97 388.62 322.49 468.82 332.09 549.02 C 334.03 563.83 335.25 578.75 337.66 593.49 C 346.96 515.02 356.35 436.55 365.70 358.08 C 366.34 354.54 365.66 350.25 368.60 347.57 C 382.19 333.83 395.94 320.24 409.53 306.50 C 410.76 305.30 412.12 303.91 414.01 304.18 C 456.36 304.16 498.72 304.15 541.08 304.19 C 543.70 303.90 545.94 306.37 545.85 308.92 C 545.70 312.76 544.97 316.56 544.58 320.38 C 520.64 520.94 496.75 721.50 472.88 922.07 C 472.75 924.08 471.44 925.70 470.07 927.07 C 459.72 937.38 449.41 947.74 439.09 958.08 C 434.92 961.83 431.49 966.51 426.85 969.68 C 351.91 970.03 276.94 969.72 201.98 969.84 C 198.81 970.29 196.99 966.85 196.86 964.15 C 173.32 766.03 149.66 567.94 126.07 369.83 C 125.45 363.89 124.36 357.98 124.13 352.01 C 123.77 350.08 125.22 348.69 126.42 347.45 C 140.29 333.63 154.10 319.74 167.94 305.90 M 174.43 314.46 C 163.53 325.40 152.59 336.29 141.72 347.25 C 178.77 347.17 215.82 347.27 252.87 347.20 C 263.74 336.25 274.63 325.32 285.58 314.45 C 248.53 314.47 211.48 314.46 174.43 314.46 M 416.87 314.49 C 405.97 325.42 395.08 336.37 384.14 347.26 C 421.16 347.20 458.19 347.20 495.22 347.26 C 506.30 336.44 517.01 325.24 528.17 314.49 C 491.07 314.44 453.97 314.45 416.87 314.49 M 135.09 357.54 C 147.83 463.24 160.30 568.98 172.96 674.69 C 182.86 757.88 192.78 841.06 202.70 924.25 C 204.17 936.02 205.43 947.82 206.99 959.59 C 277.98 959.51 348.97 959.51 419.96 959.59 C 431.19 865.79 442.34 771.99 453.52 678.20 C 466.13 573.01 478.50 467.80 491.22 362.63 C 491.39 360.91 491.56 359.19 491.75 357.48 C 453.24 357.52 414.73 357.39 376.22 357.54 C 371.22 401.96 365.56 446.30 360.59 490.72 C 359.01 500.80 358.16 511.01 356.80 521.14 C 345.52 616.15 334.21 711.15 322.82 806.15 C 321.52 817.47 320.10 828.78 318.82 840.11 C 318.61 842.26 318.08 844.87 315.81 845.78 C 312.94 847.59 308.64 845.34 308.36 842.00 C 307.44 835.64 306.86 829.23 306.03 822.86 C 296.15 739.63 286.14 656.42 276.31 573.19 C 267.61 501.29 259.20 429.35 250.54 357.44 C 212.05 357.56 173.57 357.38 135.09 357.54 Z" />
<path fill="#000000" opacity="1.00" d=" M 609.65 308.50 C 611.71 306.52 613.70 303.62 616.96 304.16 C 658.66 304.19 700.35 304.14 742.05 304.19 C 745.25 303.77 747.30 307.09 747.03 309.97 C 747.11 512.00 747.01 714.04 747.08 916.07 C 746.92 919.44 747.86 923.47 745.11 926.08 C 731.52 939.83 717.77 953.43 704.17 967.17 C 702.76 968.50 701.18 970.10 699.06 969.83 C 656.41 969.85 613.76 969.80 571.12 969.86 C 570.02 968.36 568.31 967.01 568.54 964.97 C 568.51 760.64 568.55 556.30 568.53 351.97 C 568.26 350.18 569.45 348.80 570.61 347.63 C 583.63 334.59 596.68 321.58 609.65 308.50 M 618.76 314.48 C 607.84 325.40 596.95 336.34 586.02 347.26 C 622.79 347.20 659.57 347.19 696.34 347.26 C 707.38 336.42 718.19 325.33 729.21 314.46 C 692.40 314.47 655.58 314.44 618.76 314.48 M 578.80 357.52 L 578.81 359.11 C 578.80 424.48 578.81 489.85 578.81 555.22 C 578.82 647.64 578.79 740.05 578.82 832.47 C 578.77 874.82 578.86 917.17 578.78 959.53 C 617.04 959.54 655.31 959.55 693.58 959.52 C 693.43 879.68 693.57 799.84 693.51 720.00 C 693.53 650.34 693.51 580.67 693.52 511.00 C 693.39 488.43 693.77 465.85 693.32 443.29 L 693.21 443.06 C 693.35 441.36 693.44 439.67 693.47 437.98 C 693.47 411.15 693.44 384.32 693.49 357.49 C 655.26 357.57 617.03 357.52 578.80 357.52 Z" />
<path fill="#000000" opacity="1.00" d=" M 869.77 321.77 C 886.72 310.12 907.33 303.34 927.98 304.17 C 968.97 304.17 1009.96 304.17 1050.95 304.17 C 1079.57 302.87 1108.10 315.62 1127.31 336.67 C 1143.99 354.88 1153.63 379.33 1153.85 404.03 C 1153.82 443.71 1153.87 483.40 1153.83 523.08 C 1153.97 525.16 1152.56 526.79 1151.18 528.16 C 1137.28 541.96 1123.49 555.88 1109.64 569.74 C 1108.46 571.11 1106.77 571.76 1104.99 571.56 C 1063.64 571.54 1022.30 571.57 980.95 571.55 C 978.33 571.74 975.29 569.97 975.41 567.08 C 975.36 536.06 975.41 505.03 975.40 474.02 C 975.36 464.24 966.42 456.36 956.85 456.43 C 956.83 571.29 956.87 686.16 956.83 801.02 C 956.80 811.46 965.46 820.17 975.36 822.25 C 975.43 798.51 975.38 774.77 975.38 751.03 C 975.14 748.68 976.62 746.72 978.19 745.17 C 991.21 732.18 1004.21 719.16 1017.17 706.11 C 1019.05 704.36 1021.13 702.18 1023.94 702.44 C 1065.30 702.45 1106.66 702.44 1148.01 702.44 C 1151.18 702.09 1154.20 704.70 1153.84 707.98 C 1153.85 747.66 1153.83 787.35 1153.85 827.04 C 1153.54 854.07 1142.10 880.91 1122.17 899.29 C 1130.34 898.75 1138.77 899.99 1145.99 904.02 C 1156.95 909.82 1164.72 921.01 1166.63 933.23 C 1167.13 937.47 1166.91 941.75 1166.95 946.02 C 1166.95 997.70 1166.94 1049.38 1166.95 1101.05 C 1166.90 1105.71 1167.24 1110.47 1166.04 1115.03 C 1164.30 1122.76 1160.13 1129.87 1154.37 1135.29 C 1148.11 1141.39 1142.12 1147.76 1135.75 1153.73 C 1128.90 1159.52 1120.00 1163.15 1110.97 1162.97 C 1096.28 1162.93 1081.61 1162.96 1066.93 1162.95 C 1060.72 1162.85 1054.33 1163.54 1048.36 1161.44 C 1035.81 1157.71 1025.51 1147.43 1021.77 1134.88 C 1019.56 1128.49 1020.09 1121.64 1020.02 1115.01 C 1019.95 1066.61 1020.08 1018.22 1019.98 969.83 C 1014.06 969.83 1008.15 969.80 1002.24 969.87 C 1002.30 983.59 1002.23 997.31 1002.28 1011.04 C 1002.31 1022.03 997.46 1032.88 989.44 1040.37 C 984.56 1045.15 979.30 1049.56 974.84 1054.77 C 968.55 1062.03 959.37 1065.53 951.32 1070.37 C 942.93 1075.03 934.59 1079.78 926.17 1084.37 C 926.11 1090.43 926.25 1096.49 926.04 1102.55 C 950.71 1102.74 975.38 1102.50 1000.04 1102.66 C 1001.99 1102.31 1002.41 1104.47 1002.28 1105.94 C 1002.24 1118.94 1002.30 1131.94 1002.23 1144.95 C 996.25 1150.97 990.24 1156.97 984.23 1162.97 C 942.14 1162.92 900.04 1162.97 857.95 1162.94 C 856.66 1163.13 854.89 1162.58 855.09 1160.98 C 854.98 1142.99 855.09 1124.99 855.05 1107.00 C 854.96 1097.81 854.53 1088.20 858.48 1079.63 C 862.11 1070.56 869.89 1064.31 876.51 1057.48 C 881.11 1053.10 885.21 1048.09 890.67 1044.72 C 904.17 1036.93 917.85 1029.46 931.47 1021.86 C 931.54 1004.52 931.48 987.18 931.49 969.83 C 929.66 969.82 927.85 969.82 926.04 969.83 C 925.73 975.54 926.37 981.27 925.83 986.97 C 920.97 992.66 915.24 997.60 910.12 1003.07 C 909.01 1004.16 907.78 1005.43 906.07 1005.23 C 889.62 1005.33 873.17 1005.22 856.73 1005.27 C 856.30 1004.96 855.45 1004.36 855.02 1004.05 C 855.07 991.35 855.05 978.65 855.04 965.95 C 834.29 959.60 815.56 946.58 802.81 928.99 C 790.39 912.33 783.53 891.73 783.08 870.97 C 783.03 730.65 783.09 590.32 783.05 450.00 C 782.85 431.28 787.56 412.45 797.27 396.39 C 806.66 379.98 821.55 367.93 834.43 354.42 C 846.01 343.33 856.38 330.80 869.77 321.77 M 882.46 324.32 C 868.89 331.61 858.48 343.14 847.68 353.84 C 858.02 349.92 868.97 347.48 880.04 347.22 C 918.04 347.22 956.03 347.22 994.02 347.22 C 1006.07 347.40 1018.26 346.40 1030.12 349.10 C 1047.08 352.53 1063.10 360.49 1076.08 371.94 C 1088.30 359.61 1100.60 347.37 1112.84 335.07 C 1096.54 321.16 1075.49 312.99 1054.03 312.65 C 1015.71 312.64 977.38 312.65 939.06 312.65 C 932.32 312.74 925.56 312.34 918.85 313.12 C 906.11 314.19 893.60 318.05 882.46 324.32 M 812.64 392.60 C 800.31 408.25 793.58 428.11 793.55 448.01 C 793.60 505.93 793.51 563.85 793.59 621.77 C 793.52 703.84 793.60 785.91 793.55 867.98 C 793.40 877.54 795.00 887.07 797.73 896.22 C 806.26 923.35 828.13 945.76 855.08 954.87 C 855.68 943.59 861.02 932.84 869.54 925.45 C 878.44 917.36 885.65 906.71 897.22 902.17 C 907.24 897.84 918.35 899.30 928.96 899.05 C 941.32 899.23 953.70 898.68 966.05 899.35 C 984.86 900.86 1001.03 917.26 1002.16 936.12 C 1002.33 943.78 1002.40 951.47 1002.06 959.14 C 1007.24 959.62 1012.52 959.80 1017.68 958.93 C 1018.14 958.77 1019.05 958.45 1019.51 958.28 C 1019.98 955.21 1020.22 952.10 1020.68 949.04 C 1022.15 940.55 1026.67 932.78 1032.82 926.82 C 1038.54 921.19 1044.08 915.37 1049.92 909.86 C 1057.63 902.74 1068.10 898.90 1078.57 899.17 C 1084.10 899.32 1089.64 899.29 1095.17 899.19 C 1097.27 892.41 1099.36 885.52 1099.57 878.38 C 1100.29 876.96 1100.22 875.29 1099.99 873.78 C 1100.73 864.86 1100.14 855.89 1100.33 846.95 C 1100.33 816.64 1100.34 786.32 1100.33 756.01 L 1098.85 756.08 C 1061.61 756.05 1024.38 756.05 987.15 756.08 L 985.69 755.92 C 985.67 776.28 985.69 796.64 985.69 817.00 C 985.45 827.74 986.19 838.51 985.24 849.22 C 983.00 857.26 977.66 864.55 969.98 868.10 C 962.58 871.94 954.03 870.69 946.03 870.89 C 939.37 870.74 932.40 871.62 926.07 869.07 C 917.12 865.69 910.14 857.41 908.58 847.94 C 908.06 843.99 908.31 840.00 908.28 836.04 C 908.27 819.95 908.31 803.86 908.26 787.77 C 908.31 695.02 908.27 602.27 908.28 509.51 C 908.29 497.33 908.28 485.16 908.28 472.98 C 908.30 463.06 914.55 453.66 923.37 449.29 C 929.66 445.74 937.03 446.32 943.98 446.37 C 952.69 446.68 961.84 445.09 970.04 448.92 C 979.07 453.40 985.46 462.84 985.65 473.01 C 985.64 502.43 985.67 531.85 985.63 561.28 C 1023.89 561.27 1062.14 561.27 1100.40 561.28 C 1100.35 529.18 1100.39 497.09 1100.38 464.99 C 1100.26 453.36 1101.05 441.59 1098.51 430.14 C 1093.31 403.93 1075.84 380.57 1052.25 368.05 C 1039.01 361.03 1024.01 357.23 1009.01 357.46 C 966.66 357.49 924.31 357.47 881.96 357.47 C 855.12 357.90 828.89 371.27 812.64 392.60 M 992.95 745.64 C 1029.55 745.73 1066.16 745.78 1102.75 745.61 C 1105.82 743.55 1108.10 740.39 1110.88 737.91 C 1119.33 729.54 1127.61 721.01 1136.14 712.72 C 1099.42 712.74 1062.70 712.72 1025.99 712.72 C 1014.93 723.65 1004.11 734.81 992.95 745.64 M 909.43 903.53 C 898.72 904.11 889.31 910.45 882.56 918.46 C 890.39 915.61 898.79 916.50 906.95 916.38 C 919.99 916.39 933.03 916.38 946.07 916.38 C 957.07 916.48 967.72 921.55 975.04 929.70 C 979.79 925.01 984.39 920.17 989.26 915.60 C 982.59 908.33 973.05 903.41 963.08 903.49 C 945.20 903.53 927.31 903.44 909.43 903.53 M 1047.28 918.50 C 1055.21 915.55 1063.74 916.52 1072.01 916.38 C 1085.03 916.39 1098.04 916.37 1111.06 916.39 C 1120.09 916.52 1128.85 920.04 1135.81 925.74 C 1140.43 920.98 1145.09 916.25 1149.92 911.70 C 1143.50 906.55 1135.36 903.27 1127.06 903.49 C 1110.03 903.51 1093.01 903.49 1075.99 903.50 C 1064.61 903.43 1054.44 910.07 1047.28 918.50 M 886.79 921.46 C 871.51 924.99 859.56 939.51 859.42 955.25 C 859.32 970.56 859.42 985.86 859.37 1001.17 C 874.54 1001.14 889.70 1001.16 904.87 1001.16 C 904.84 989.46 904.79 977.76 904.89 966.06 C 904.86 960.36 910.27 955.32 915.96 955.73 C 919.68 955.77 923.42 955.55 927.15 955.90 C 931.65 957.02 935.49 961.25 935.48 966.02 C 935.55 985.98 935.42 1005.95 935.56 1025.91 C 935.51 1029.95 932.86 1033.54 929.36 1035.37 C 914.38 1043.71 899.44 1052.10 884.46 1060.45 C 880.04 1062.98 875.38 1065.20 871.54 1068.62 C 863.96 1075.14 859.41 1085.07 859.40 1095.07 C 859.33 1116.35 859.45 1137.63 859.34 1158.92 C 899.91 1158.99 940.48 1159.01 981.05 1158.91 C 980.97 1147.22 980.93 1135.53 981.06 1123.85 C 959.04 1123.84 937.02 1123.84 914.99 1123.85 C 911.62 1123.81 908.21 1124.09 904.91 1123.34 C 904.79 1114.91 904.83 1106.47 904.86 1098.04 C 904.73 1094.10 906.96 1090.29 910.43 1088.45 C 925.57 1079.90 940.79 1071.47 955.97 1062.97 C 960.79 1060.20 965.92 1057.78 969.95 1053.87 C 976.87 1047.16 981.11 1037.66 981.03 1027.98 C 980.97 1003.98 980.92 979.99 981.01 955.99 C 981.04 946.35 976.75 936.87 969.76 930.28 C 963.15 924.02 954.12 920.36 945.00 920.43 C 928.99 920.44 912.98 920.45 896.96 920.43 C 893.54 920.31 890.11 920.61 886.79 921.46 M 1056.42 920.60 C 1045.68 921.73 1035.61 927.91 1029.84 937.05 C 1025.96 942.94 1024.08 950.01 1024.15 957.04 C 1024.18 1012.72 1024.12 1068.39 1024.18 1124.07 C 1024.25 1142.09 1039.87 1158.28 1057.90 1158.90 C 1074.92 1159.03 1091.95 1158.89 1108.98 1158.96 C 1113.74 1159.05 1118.55 1158.36 1122.98 1156.53 C 1136.44 1151.43 1146.12 1137.48 1145.74 1123.03 C 1145.73 1067.34 1145.74 1011.65 1145.74 955.95 C 1145.92 941.07 1135.47 926.95 1121.38 922.35 C 1113.89 919.54 1105.81 920.65 1098.01 920.44 C 1084.14 920.55 1070.27 920.22 1056.42 920.60 M 911.85 1119.78 C 934.91 1119.66 957.97 1119.80 981.04 1119.71 C 982.35 1119.91 983.15 1118.75 984.02 1117.99 C 987.69 1114.22 991.48 1110.56 995.15 1106.79 C 971.78 1106.97 948.40 1106.70 925.03 1106.92 C 920.34 1110.84 916.24 1115.50 911.85 1119.78 Z" />
</g>
<g id="#ffffffff">
<path fill="#ffffff" opacity="1.00" d=" M 882.46 324.32 C 893.60 318.05 906.11 314.19 918.85 313.12 C 925.56 312.34 932.32 312.74 939.06 312.65 C 977.38 312.65 1015.71 312.64 1054.03 312.65 C 1075.49 312.99 1096.54 321.16 1112.84 335.07 C 1100.60 347.37 1088.30 359.61 1076.08 371.94 C 1063.10 360.49 1047.08 352.53 1030.12 349.10 C 1018.26 346.40 1006.07 347.40 994.02 347.22 C 956.03 347.22 918.04 347.22 880.04 347.22 C 868.97 347.48 858.02 349.92 847.68 353.84 C 858.48 343.14 868.89 331.61 882.46 324.32 Z" />
<path fill="#ffffff" opacity="1.00" d=" M 174.43 314.46 C 211.48 314.46 248.53 314.47 285.58 314.45 C 274.63 325.32 263.74 336.25 252.87 347.20 C 215.82 347.27 178.77 347.17 141.72 347.25 C 152.59 336.29 163.53 325.40 174.43 314.46 Z" />
<path fill="#ffffff" opacity="1.00" d=" M 416.87 314.49 C 453.97 314.45 491.07 314.44 528.17 314.49 C 517.01 325.24 506.30 336.44 495.22 347.26 C 458.19 347.20 421.16 347.20 384.14 347.26 C 395.08 336.37 405.97 325.42 416.87 314.49 Z" />
<path fill="#ffffff" opacity="1.00" d=" M 618.76 314.48 C 655.58 314.44 692.40 314.47 729.21 314.46 C 718.19 325.33 707.38 336.42 696.34 347.26 C 659.57 347.19 622.79 347.20 586.02 347.26 C 596.95 336.34 607.84 325.40 618.76 314.48 Z" />
<path fill="#ffffff" opacity="1.00" d=" M 992.95 745.64 C 1004.11 734.81 1014.93 723.65 1025.99 712.72 C 1062.70 712.72 1099.42 712.74 1136.14 712.72 C 1127.61 721.01 1119.33 729.54 1110.88 737.91 C 1108.10 740.39 1105.82 743.55 1102.75 745.61 C 1066.16 745.78 1029.55 745.73 992.95 745.64 Z" />
<path fill="#ffffff" opacity="1.00" d=" M 909.43 903.53 C 927.31 903.44 945.20 903.53 963.08 903.49 C 973.05 903.41 982.59 908.33 989.26 915.60 C 984.39 920.17 979.79 925.01 975.04 929.70 C 967.72 921.55 957.07 916.48 946.07 916.38 C 933.03 916.38 919.99 916.39 906.95 916.38 C 898.79 916.50 890.39 915.61 882.56 918.46 C 889.31 910.45 898.72 904.11 909.43 903.53 Z" />
<path fill="#ffffff" opacity="1.00" d=" M 1047.28 918.50 C 1054.44 910.07 1064.61 903.43 1075.99 903.50 C 1093.01 903.49 1110.03 903.51 1127.06 903.49 C 1135.36 903.27 1143.50 906.55 1149.92 911.70 C 1145.09 916.25 1140.43 920.98 1135.81 925.74 C 1128.85 920.04 1120.09 916.52 1111.06 916.39 C 1098.04 916.37 1085.03 916.39 1072.01 916.38 C 1063.74 916.52 1055.21 915.55 1047.28 918.50 Z" />
<path fill="#ffffff" opacity="1.00" d=" M 886.79 921.46 C 890.11 920.61 893.54 920.31 896.96 920.43 C 912.98 920.45 928.99 920.44 945.00 920.43 C 954.12 920.36 963.15 924.02 969.76 930.28 C 976.75 936.87 981.04 946.35 981.01 955.99 C 980.92 979.99 980.97 1003.98 981.03 1027.98 C 981.11 1037.66 976.87 1047.16 969.95 1053.87 C 965.92 1057.78 960.79 1060.20 955.97 1062.97 C 940.79 1071.47 925.57 1079.90 910.43 1088.45 C 906.96 1090.29 904.73 1094.10 904.86 1098.04 C 904.83 1106.47 904.79 1114.91 904.91 1123.34 C 908.21 1124.09 911.62 1123.81 914.99 1123.85 C 937.02 1123.84 959.04 1123.84 981.06 1123.85 C 980.93 1135.53 980.97 1147.22 981.05 1158.91 C 940.48 1159.01 899.91 1158.99 859.34 1158.92 C 859.45 1137.63 859.33 1116.35 859.40 1095.07 C 859.41 1085.07 863.96 1075.14 871.54 1068.62 C 875.38 1065.20 880.04 1062.98 884.46 1060.45 C 899.44 1052.10 914.38 1043.71 929.36 1035.37 C 932.86 1033.54 935.51 1029.95 935.56 1025.91 C 935.42 1005.95 935.55 985.98 935.48 966.02 C 935.49 961.25 931.65 957.02 927.15 955.90 C 923.42 955.55 919.68 955.77 915.96 955.73 C 910.27 955.32 904.86 960.36 904.89 966.06 C 904.79 977.76 904.84 989.46 904.87 1001.16 C 889.70 1001.16 874.54 1001.14 859.37 1001.17 C 859.42 985.86 859.32 970.56 859.42 955.25 C 859.56 939.51 871.51 924.99 886.79 921.46 Z" />
<path fill="#ffffff" opacity="1.00" d=" M 1056.42 920.60 C 1070.27 920.22 1084.14 920.55 1098.01 920.44 C 1105.81 920.65 1113.89 919.54 1121.38 922.35 C 1135.47 926.95 1145.92 941.07 1145.74 955.95 C 1145.74 1011.65 1145.73 1067.34 1145.74 1123.03 C 1146.12 1137.48 1136.44 1151.43 1122.98 1156.53 C 1118.55 1158.36 1113.74 1159.05 1108.98 1158.96 C 1091.95 1158.89 1074.92 1159.03 1057.90 1158.90 C 1039.87 1158.28 1024.25 1142.09 1024.18 1124.07 C 1024.12 1068.39 1024.18 1012.72 1024.15 957.04 C 1024.08 950.01 1025.96 942.94 1029.84 937.05 C 1035.61 927.91 1045.68 921.73 1056.42 920.60 M 1076.30 956.49 C 1072.21 958.23 1069.40 962.52 1069.61 966.99 C 1069.63 1015.64 1069.60 1064.29 1069.62 1112.94 C 1069.61 1116.65 1071.63 1120.30 1074.85 1122.18 C 1079.08 1124.86 1084.32 1123.58 1089.04 1123.84 C 1094.95 1124.13 1100.49 1118.97 1100.39 1113.03 C 1100.39 1064.33 1100.36 1015.63 1100.40 966.94 C 1100.64 962.24 1097.36 957.69 1092.95 956.20 C 1090.39 955.41 1087.67 955.81 1085.05 955.72 C 1082.13 955.86 1079.04 955.26 1076.30 956.49 Z" />
<path fill="#ffffff" opacity="1.00" d=" M 911.85 1119.78 C 916.24 1115.50 920.34 1110.84 925.03 1106.92 C 948.40 1106.70 971.78 1106.97 995.15 1106.79 C 991.48 1110.56 987.69 1114.22 984.02 1117.99 C 983.15 1118.75 982.35 1119.91 981.04 1119.71 C 957.97 1119.80 934.91 1119.66 911.85 1119.78 Z" />
</g>
<g id="#002684ff">
<path fill="#002684" opacity="1.00" d=" M 135.09 357.54 C 173.57 357.38 212.05 357.56 250.54 357.44 C 259.20 429.35 267.61 501.29 276.31 573.19 C 242.03 607.19 207.45 640.90 172.96 674.69 C 160.30 568.98 147.83 463.24 135.09 357.54 Z" />
<path fill="#002684" opacity="1.00" d=" M 376.22 357.54 C 414.73 357.39 453.24 357.52 491.75 357.48 C 491.56 359.19 491.39 360.91 491.22 362.63 C 447.59 405.24 404.13 448.03 360.59 490.72 C 365.56 446.30 371.22 401.96 376.22 357.54 Z" />
</g>
<g id="#fe0077ff">
<path fill="#fe0077" opacity="1.00" d=" M 578.80 357.52 C 617.03 357.52 655.26 357.57 693.49 357.49 C 693.44 384.32 693.47 411.15 693.47 437.98 C 693.44 439.67 693.35 441.36 693.21 443.06 C 691.07 439.41 692.14 434.99 691.95 430.99 C 691.91 407.02 692.11 383.05 691.85 359.08 C 668.90 358.76 645.94 359.09 622.99 358.94 C 608.26 359.01 593.53 358.78 578.81 359.11 L 578.80 357.52 Z" />
</g>
<g id="#f17100ff">
<path fill="#f17100" opacity="1.00" d=" M 812.64 392.60 C 828.89 371.27 855.12 357.90 881.96 357.47 C 924.31 357.47 966.66 357.49 1009.01 357.46 C 1024.01 357.23 1039.01 361.03 1052.25 368.05 C 1025.05 395.22 997.39 421.92 970.04 448.92 C 961.84 445.09 952.69 446.68 943.98 446.37 C 937.03 446.32 929.66 445.74 923.37 449.29 C 914.55 453.66 908.30 463.06 908.28 472.98 C 908.28 485.16 908.29 497.33 908.28 509.51 C 887.61 529.74 866.96 549.99 846.35 570.29 C 828.65 587.33 811.44 604.89 793.59 621.77 C 793.51 563.85 793.60 505.93 793.55 448.01 C 793.58 428.11 800.31 408.25 812.64 392.60 Z" />
<path fill="#f17100" opacity="1.00" d=" M 673.35 462.40 C 680.08 456.10 686.24 449.20 693.32 443.29 C 693.77 465.85 693.39 488.43 693.52 511.00 C 693.51 580.67 693.53 650.34 693.51 720.00 C 674.62 738.96 655.30 757.49 636.32 776.35 C 617.03 794.93 598.24 814.02 578.82 832.47 C 578.79 740.05 578.82 647.64 578.81 555.22 C 610.26 524.21 641.85 493.35 673.35 462.40 Z" />
<path fill="#f17100" opacity="1.00" d=" M 322.82 806.15 C 366.54 763.66 409.80 720.68 453.52 678.20 C 442.34 771.99 431.19 865.79 419.96 959.59 C 348.97 959.51 277.98 959.51 206.99 959.59 C 205.43 947.82 204.17 936.02 202.70 924.25 C 213.26 913.61 224.05 903.22 234.71 892.69 C 258.55 869.48 282.13 846.00 306.03 822.86 C 306.86 829.23 307.44 835.64 308.36 842.00 C 308.64 845.34 312.94 847.59 315.81 845.78 C 318.08 844.87 318.61 842.26 318.82 840.11 C 320.10 828.78 321.52 817.47 322.82 806.15 Z" />
</g>
<g id="#e50069ff">
<path fill="#e50069" opacity="1.00" d=" M 578.81 359.11 C 593.53 358.78 608.26 359.01 622.99 358.94 C 645.94 359.09 668.90 358.76 691.85 359.08 C 692.11 383.05 691.91 407.02 691.95 430.99 C 692.14 434.99 691.07 439.41 693.21 443.06 L 693.32 443.29 C 686.24 449.20 680.08 456.10 673.35 462.40 C 641.85 493.35 610.26 524.21 578.81 555.22 C 578.81 489.85 578.80 424.48 578.81 359.11 Z" />
<path fill="#e50069" opacity="1.00" d=" M 360.59 490.72 C 404.13 448.03 447.59 405.24 491.22 362.63 C 478.50 467.80 466.13 573.01 453.52 678.20 C 409.80 720.68 366.54 763.66 322.82 806.15 C 334.21 711.15 345.52 616.15 356.80 521.14 C 358.16 511.01 359.01 500.80 360.59 490.72 Z" />
<path fill="#e50069" opacity="1.00" d=" M 172.96 674.69 C 207.45 640.90 242.03 607.19 276.31 573.19 C 286.14 656.42 296.15 739.63 306.03 822.86 C 282.13 846.00 258.55 869.48 234.71 892.69 C 224.05 903.22 213.26 913.61 202.70 924.25 C 192.78 841.06 182.86 757.88 172.96 674.69 Z" />
</g>
<g id="#fcec01ff">
<path fill="#fcec01" opacity="1.00" d=" M 970.04 448.92 C 997.39 421.92 1025.05 395.22 1052.25 368.05 C 1075.84 380.57 1093.31 403.93 1098.51 430.14 C 1101.05 441.59 1100.26 453.36 1100.38 464.99 C 1100.39 497.09 1100.35 529.18 1100.40 561.28 C 1062.14 561.27 1023.89 561.27 985.63 561.28 C 985.67 531.85 985.64 502.43 985.65 473.01 C 985.46 462.84 979.07 453.40 970.04 448.92 Z" />
<path fill="#fcec01" opacity="1.00" d=" M 846.35 570.29 C 866.96 549.99 887.61 529.74 908.28 509.51 C 908.27 602.27 908.31 695.02 908.26 787.77 C 881.61 813.25 855.61 839.41 829.15 865.08 C 818.74 875.52 807.94 885.58 797.73 896.22 C 795.00 887.07 793.40 877.54 793.55 867.98 C 793.60 785.91 793.52 703.84 793.59 621.77 C 811.44 604.89 828.65 587.33 846.35 570.29 Z" />
<path fill="#fcec01" opacity="1.00" d=" M 636.32 776.35 C 655.30 757.49 674.62 738.96 693.51 720.00 C 693.57 799.84 693.43 879.68 693.58 959.52 C 655.31 959.55 617.04 959.54 578.78 959.53 C 578.86 917.17 578.77 874.82 578.82 832.47 C 598.24 814.02 617.03 794.93 636.32 776.35 Z" />
</g>
<g id="#99d22bff">
<path fill="#99d22b" opacity="1.00" d=" M 985.69 755.92 L 987.15 756.08 C 986.83 787.25 987.31 818.42 986.92 849.59 C 986.50 849.50 985.66 849.31 985.24 849.22 C 986.19 838.51 985.45 827.74 985.69 817.00 C 985.69 796.64 985.67 776.28 985.69 755.92 Z" />
</g>
<g id="#89bc27ff">
<path fill="#89bc27" opacity="1.00" d=" M 987.15 756.08 C 1024.38 756.05 1061.61 756.05 1098.85 756.08 C 1099.21 793.05 1098.88 830.02 1098.99 866.98 C 1099.09 869.27 1099.56 871.52 1099.99 873.78 C 1100.22 875.29 1100.29 876.96 1099.57 878.38 C 1092.66 885.40 1085.42 892.09 1078.57 899.17 C 1068.10 898.90 1057.63 902.74 1049.92 909.86 C 1044.08 915.37 1038.54 921.19 1032.82 926.82 C 1026.67 932.78 1022.15 940.55 1020.68 949.04 C 1020.22 952.10 1019.98 955.21 1019.51 958.28 C 1019.05 958.45 1018.14 958.77 1017.68 958.93 C 1012.54 957.73 1007.08 957.12 1002.06 959.14 C 1002.40 951.47 1002.33 943.78 1002.16 936.12 C 1001.03 917.26 984.86 900.86 966.05 899.35 C 953.70 898.68 941.32 899.23 928.96 899.05 C 918.35 899.30 907.24 897.84 897.22 902.17 C 885.65 906.71 878.44 917.36 869.54 925.45 C 861.02 932.84 855.68 943.59 855.08 954.87 C 828.13 945.76 806.26 923.35 797.73 896.22 C 807.94 885.58 818.74 875.52 829.15 865.08 C 855.61 839.41 881.61 813.25 908.26 787.77 C 908.31 803.86 908.27 819.95 908.28 836.04 C 908.31 840.00 908.06 843.99 908.58 847.94 C 910.14 857.41 917.12 865.69 926.07 869.07 C 932.40 871.62 939.37 870.74 946.03 870.89 C 954.03 870.69 962.58 871.94 969.98 868.10 C 977.66 864.55 983.00 857.26 985.24 849.22 C 985.66 849.31 986.50 849.50 986.92 849.59 C 987.31 818.42 986.83 787.25 987.15 756.08 Z" />
</g>
<g id="#9dd72dff">
<path fill="#9dd72d" opacity="1.00" d=" M 1098.85 756.08 L 1100.33 756.01 C 1100.34 786.32 1100.33 816.64 1100.33 846.95 C 1100.14 855.89 1100.73 864.86 1099.99 873.78 C 1099.56 871.52 1099.09 869.27 1098.99 866.98 C 1098.88 830.02 1099.21 793.05 1098.85 756.08 Z" />
</g>
<g id="#00771fff">
<path fill="#00771f" opacity="1.00" d=" M 1078.57 899.17 C 1085.42 892.09 1092.66 885.40 1099.57 878.38 C 1099.36 885.52 1097.27 892.41 1095.17 899.19 C 1089.64 899.29 1084.10 899.32 1078.57 899.17 Z" />
</g>
<g id="#020202ff">
<path fill="#020202" opacity="1.00" d=" M 1076.30 956.49 C 1079.04 955.26 1082.13 955.86 1085.05 955.72 C 1087.67 955.81 1090.39 955.41 1092.95 956.20 C 1097.36 957.69 1100.64 962.24 1100.40 966.94 C 1100.36 1015.63 1100.39 1064.33 1100.39 1113.03 C 1100.49 1118.97 1094.95 1124.13 1089.04 1123.84 C 1084.32 1123.58 1079.08 1124.86 1074.85 1122.18 C 1071.63 1120.30 1069.61 1116.65 1069.62 1112.94 C 1069.60 1064.29 1069.63 1015.64 1069.61 966.99 C 1069.40 962.52 1072.21 958.23 1076.30 956.49 M 1088.97 959.43 C 1088.95 1004.97 1089.03 1050.52 1088.97 1096.05 C 1088.68 1100.42 1092.50 1103.49 1096.25 1104.81 C 1096.26 1058.89 1096.29 1012.96 1096.23 967.03 C 1096.57 962.80 1092.70 960.07 1088.97 959.43 Z" />
</g>
<g id="#9fda2eff">
<path fill="#9fda2e" opacity="1.00" d=" M 1002.06 959.14 C 1007.08 957.12 1012.54 957.73 1017.68 958.93 C 1012.52 959.80 1007.24 959.62 1002.06 959.14 Z" />
</g>
</svg>
