<?xml version="1.0" encoding="UTF-8" ?>
<!DOCTYPE svg PUBLIC "-//W3C//DTD SVG 1.1//EN" "http://www.w3.org/Graphics/SVG/1.1/DTD/svg11.dtd">
<svg width="1276pt" height="1276pt" viewBox="0 0 1276 1276" version="1.1" xmlns="http://www.w3.org/2000/svg">
<g id="#ffff00ff">
<path fill="#ffff00" opacity="1.00" d=" M 380.78 287.74 C 428.65 287.75 476.54 287.74 524.41 287.65 C 524.44 375.10 524.41 462.56 524.42 550.02 C 524.48 555.48 524.21 560.95 524.61 566.42 C 565.67 566.35 606.72 566.51 647.78 566.34 C 688.87 566.21 729.96 566.38 771.06 566.25 C 781.73 566.20 792.41 566.20 803.08 566.25 C 803.16 614.22 803.12 662.20 803.11 710.17 C 792.42 710.20 781.74 710.21 771.06 710.17 C 729.97 710.09 688.88 710.18 647.79 710.12 C 606.68 710.14 565.55 710.01 524.44 710.19 C 524.38 803.08 524.46 895.97 524.40 988.86 C 476.53 988.78 428.66 988.77 380.78 988.79 C 380.76 895.94 380.78 803.10 380.77 710.25 C 287.87 710.18 194.98 710.10 102.08 710.10 C 102.08 662.20 102.06 614.31 102.09 566.41 C 152.73 566.42 203.36 566.49 253.99 566.20 C 296.25 566.22 338.51 566.19 380.77 566.11 C 380.78 473.32 380.76 380.53 380.78 287.74 Z" />
</g>
<g id="#ffb40aff">
<path fill="#ffb40a" opacity="1.00" d=" M 524.41 287.65 C 554.27 287.85 584.13 287.68 613.99 287.73 C 625.26 287.84 636.53 287.29 647.80 287.65 C 647.73 380.54 647.77 473.44 647.78 566.34 C 606.72 566.51 565.67 566.35 524.61 566.42 C 524.21 560.95 524.48 555.48 524.42 550.02 C 524.41 462.56 524.44 375.10 524.41 287.65 Z" />
<path fill="#ffb40a" opacity="1.00" d=" M 803.08 566.25 C 833.49 566.34 863.91 566.30 894.32 566.27 C 904.99 566.86 915.67 566.26 926.35 566.60 C 926.53 614.47 926.44 662.35 926.40 710.22 C 915.72 710.27 905.05 710.29 894.38 710.21 C 863.95 710.08 833.53 710.16 803.11 710.17 C 803.12 662.20 803.16 614.22 803.08 566.25 Z" />
<path fill="#ffb40a" opacity="1.00" d=" M 524.44 710.19 C 565.55 710.01 606.68 710.14 647.79 710.12 C 647.76 803.04 647.72 895.95 647.81 988.86 C 606.68 988.86 565.54 988.65 524.40 988.86 C 524.46 895.97 524.38 803.08 524.44 710.19 Z" />
</g>
<g id="#ff6a15ff">
<path fill="#ff6a15" opacity="1.00" d=" M 647.80 287.65 C 677.52 287.85 707.24 287.68 736.95 287.73 C 748.34 287.86 759.72 287.26 771.11 287.66 C 770.98 380.52 771.09 473.39 771.06 566.25 C 729.96 566.38 688.87 566.21 647.78 566.34 C 647.77 473.44 647.73 380.54 647.80 287.65 Z" />
<path fill="#ff6a15" opacity="1.00" d=" M 894.32 566.27 C 910.53 565.74 926.77 566.30 942.99 566.19 C 978.58 566.27 1014.17 566.03 1049.76 566.31 C 1049.73 614.25 1049.73 662.20 1049.76 710.14 C 1008.64 710.26 967.52 710.11 926.40 710.22 C 926.44 662.35 926.53 614.47 926.35 566.60 C 915.67 566.26 904.99 566.86 894.32 566.27 Z" />
<path fill="#ff6a15" opacity="1.00" d=" M 647.79 710.12 C 688.88 710.18 729.97 710.09 771.06 710.17 C 771.06 803.06 771.01 895.96 771.09 988.86 C 730.00 988.87 688.90 988.65 647.81 988.86 C 647.72 895.95 647.76 803.04 647.79 710.12 Z" />
</g>
<g id="#ff1f1fff">
<path fill="#ff1f1f" opacity="1.00" d=" M 771.11 287.66 C 812.19 287.83 853.27 287.68 894.35 287.74 C 894.34 380.58 894.40 473.43 894.32 566.27 C 863.91 566.30 833.49 566.34 803.08 566.25 C 792.41 566.20 781.73 566.20 771.06 566.25 C 771.09 473.39 770.98 380.52 771.11 287.66 Z" />
<path fill="#ff1f1f" opacity="1.00" d=" M 1049.76 566.31 C 1090.90 566.58 1132.05 566.34 1173.20 566.43 C 1173.20 614.32 1173.21 662.21 1173.20 710.09 C 1132.05 710.14 1090.91 710.04 1049.76 710.14 C 1049.73 662.20 1049.73 614.25 1049.76 566.31 Z" />
<path fill="#ff1f1f" opacity="1.00" d=" M 771.06 710.17 C 781.74 710.21 792.42 710.20 803.11 710.17 C 833.53 710.16 863.95 710.08 894.38 710.21 C 894.33 803.06 894.36 895.92 894.36 988.77 C 853.27 988.85 812.18 988.69 771.09 988.86 C 771.01 895.96 771.06 803.06 771.06 710.17 Z" />
</g>
</svg>
