<?xml version="1.0" encoding="UTF-8" ?>
<!DOCTYPE svg PUBLIC "-//W3C//DTD SVG 1.1//EN" "http://www.w3.org/Graphics/SVG/1.1/DTD/svg11.dtd">
<svg width="1276pt" height="1276pt" viewBox="0 0 1276 1276" version="1.1" xmlns="http://www.w3.org/2000/svg">
<g id="#fe0016ff">
<path fill="#fe0016" opacity="1.00" d=" M 272.98 180.16 C 304.64 180.07 336.31 180.17 367.98 180.11 C 370.74 180.08 373.52 180.12 376.28 180.37 C 376.53 184.60 377.16 188.81 378.21 192.92 C 378.34 194.47 378.46 196.02 378.56 197.58 L 379.27 197.62 C 379.41 199.76 379.59 201.90 379.81 204.04 C 380.90 208.39 381.52 212.84 381.87 217.32 C 382.09 215.85 382.30 214.40 382.52 212.94 C 381.79 222.54 385.84 231.72 385.76 241.30 C 385.98 240.08 386.20 238.85 386.42 237.63 C 386.29 242.15 387.11 246.63 388.16 251.02 C 388.39 253.14 388.58 255.28 388.73 257.41 L 389.44 257.44 C 389.52 258.98 389.63 260.53 389.77 262.08 C 390.96 266.29 391.07 270.71 392.21 274.93 C 393.15 280.61 393.87 286.35 395.23 291.96 C 395.54 294.67 395.67 297.40 395.55 300.14 C 395.81 298.66 396.09 297.19 396.36 295.72 C 396.03 302.99 399.03 309.92 398.64 317.19 C 398.87 315.71 399.12 314.23 399.38 312.76 C 399.32 319.57 400.85 326.32 402.25 332.95 C 402.59 335.67 402.67 338.42 402.49 341.16 C 402.70 339.99 402.92 338.81 403.16 337.65 C 403.58 341.80 404.03 345.98 405.18 350.00 C 405.52 352.71 405.66 355.45 405.56 358.19 C 405.81 356.72 406.08 355.25 406.34 353.79 C 406.04 359.87 408.17 365.68 408.46 371.70 C 408.68 371.69 409.12 371.66 409.34 371.65 C 409.35 374.11 409.50 376.56 409.82 379.01 C 411.14 384.63 411.85 390.38 412.80 396.07 C 413.34 398.03 413.65 400.05 413.87 402.08 C 414.51 405.56 415.30 409.03 415.49 412.58 C 415.70 412.64 416.11 412.76 416.31 412.82 C 416.37 415.22 416.55 417.61 416.83 420.01 C 417.59 423.00 418.02 426.06 418.58 429.09 C 419.72 431.58 419.40 434.39 419.77 437.05 C 421.32 443.31 421.80 449.78 423.23 456.07 C 423.80 459.70 424.27 463.37 425.19 466.94 C 425.45 469.38 425.63 471.84 425.73 474.30 C 425.94 473.08 426.15 471.87 426.37 470.67 C 426.39 473.13 426.52 475.59 426.77 478.05 C 427.83 482.11 428.44 486.27 428.73 490.45 C 428.92 489.60 429.12 488.76 429.32 487.92 C 429.33 490.31 429.47 492.70 429.73 495.09 C 431.00 499.27 430.95 503.74 432.22 507.93 C 432.44 510.08 432.60 512.24 432.70 514.40 C 432.88 514.40 433.24 514.39 433.42 514.39 C 433.61 517.69 434.37 520.92 434.75 524.21 C 441.45 565.38 448.84 606.44 455.73 647.57 C 458.50 662.55 460.62 677.66 463.67 692.58 C 464.04 692.57 464.78 692.55 465.15 692.54 C 465.30 688.63 465.84 684.76 466.60 680.93 C 482.64 586.29 498.68 491.65 514.73 397.02 C 515.47 392.61 516.31 388.22 516.71 383.77 C 517.61 377.95 519.01 372.19 519.41 366.31 C 519.63 366.31 520.09 366.29 520.32 366.29 C 520.34 363.83 520.49 361.37 520.77 358.93 C 522.02 352.87 523.27 346.75 523.68 340.57 L 524.34 340.45 C 524.57 336.56 525.25 332.71 526.12 328.92 C 526.30 327.54 526.49 326.17 526.68 324.80 C 527.87 318.18 529.29 311.53 529.68 304.79 C 529.88 304.73 530.28 304.59 530.48 304.53 C 530.54 303.00 530.63 301.48 530.76 299.97 C 532.03 295.78 532.03 291.33 533.26 287.13 C 533.42 285.27 533.56 283.41 533.67 281.54 L 534.35 281.49 C 534.53 277.60 535.24 273.77 536.18 270.01 C 536.38 267.82 536.55 265.63 536.73 263.45 C 536.95 264.32 537.17 265.19 537.40 266.07 C 537.10 261.31 538.28 256.68 539.11 252.03 C 539.32 250.01 539.62 247.99 540.21 246.04 C 540.41 244.35 540.59 242.65 540.81 240.97 C 542.88 231.04 544.05 220.93 546.15 211.00 C 546.33 209.18 546.49 207.36 546.62 205.54 L 547.31 205.41 C 547.79 199.23 548.92 193.08 550.23 187.03 C 550.47 184.82 550.62 182.61 550.71 180.40 C 567.78 179.77 584.89 180.30 601.98 180.13 C 619.27 180.12 636.56 180.13 653.86 180.12 C 653.44 185.31 651.56 190.25 651.28 195.46 L 650.67 195.52 C 650.34 198.72 649.75 201.89 648.78 204.96 C 648.62 206.49 648.50 208.02 648.39 209.56 C 648.20 209.54 647.82 209.48 647.63 209.45 C 647.50 210.99 647.35 212.53 647.21 214.07 C 646.10 217.68 645.38 221.41 645.31 225.19 C 645.19 224.59 644.94 223.38 644.82 222.77 C 644.34 228.24 643.08 233.61 641.79 238.94 C 641.58 240.29 641.40 241.66 641.19 243.02 C 640.16 246.28 639.82 249.71 638.81 252.98 C 638.57 254.98 638.40 256.99 638.27 259.01 C 638.07 258.26 637.87 257.52 637.68 256.78 C 637.55 258.55 637.40 260.32 637.24 262.10 C 636.18 265.52 635.59 269.07 635.18 272.63 C 634.99 271.74 634.81 270.86 634.65 269.98 C 634.73 275.76 633.14 281.40 631.72 286.96 C 631.59 288.48 631.51 290.01 631.46 291.55 C 631.23 291.53 630.79 291.49 630.57 291.46 C 630.42 295.78 629.14 299.93 628.37 304.16 C 626.96 309.14 626.29 314.42 625.36 319.54 L 624.77 319.59 C 624.25 324.79 623.10 329.92 621.77 334.97 C 621.61 336.47 621.48 337.97 621.37 339.48 L 620.70 339.51 C 620.32 344.10 619.01 348.53 618.24 353.05 C 616.80 358.30 616.34 363.77 614.72 368.96 C 614.50 370.97 614.37 373.00 614.33 375.03 C 614.12 374.29 613.92 373.54 613.72 372.81 C 613.54 374.53 613.36 376.26 613.18 377.99 C 612.70 379.64 612.29 381.31 611.84 382.98 C 611.60 384.97 611.42 387.01 610.70 388.91 C 610.51 389.96 610.33 391.02 610.16 392.09 C 609.20 395.66 608.79 399.35 607.80 402.92 C 606.77 407.58 606.05 412.32 604.83 416.95 C 604.55 418.92 604.32 420.92 603.72 422.83 C 602.05 430.52 600.67 438.27 598.76 445.91 C 598.62 447.38 598.52 448.86 598.44 450.34 C 598.22 450.39 597.80 450.48 597.58 450.53 C 597.14 455.42 596.05 460.25 594.79 464.99 C 594.62 466.50 594.49 468.02 594.39 469.54 C 594.21 469.54 593.85 469.52 593.67 469.51 C 593.43 474.55 591.46 479.32 591.36 484.38 C 591.16 484.40 590.77 484.45 590.57 484.48 C 590.40 487.70 589.58 490.84 588.93 494.00 C 588.59 495.64 588.27 497.30 587.78 498.91 C 587.57 500.28 587.38 501.65 587.18 503.03 C 586.15 506.30 585.85 509.74 584.78 512.99 C 584.63 514.50 584.52 516.04 584.44 517.57 C 584.23 517.56 583.83 517.53 583.63 517.51 C 583.48 522.82 581.31 527.82 581.28 533.15 C 581.10 532.40 580.93 531.65 580.76 530.91 C 580.36 536.34 579.17 541.70 577.74 546.95 C 577.58 548.45 577.46 549.97 577.35 551.49 L 576.71 551.52 C 576.30 556.25 574.75 560.80 574.32 565.54 L 573.73 565.54 C 573.46 569.06 572.70 572.51 571.83 575.93 C 571.65 576.98 571.48 578.03 571.31 579.09 C 569.87 584.32 569.31 589.75 567.82 594.98 C 567.61 596.31 567.44 597.67 567.22 599.03 C 566.62 600.65 566.37 602.35 566.11 604.06 C 565.24 607.68 564.42 611.32 564.21 615.06 C 564.03 614.31 563.85 613.57 563.69 612.84 C 563.65 616.61 562.74 620.29 561.89 623.95 C 561.61 625.63 561.37 627.35 560.77 628.97 C 560.55 630.31 560.36 631.66 560.17 633.02 C 559.19 636.31 558.83 639.75 557.81 643.03 C 557.63 644.52 557.49 646.01 557.37 647.52 L 556.72 647.54 C 556.16 652.73 554.95 657.83 553.78 662.91 C 552.94 667.66 551.64 672.34 551.19 677.16 C 551.01 676.38 550.83 675.61 550.66 674.85 C 550.62 676.91 550.48 678.96 550.26 681.02 C 548.86 686.31 547.53 691.71 547.31 697.20 C 547.12 696.42 546.93 695.64 546.75 694.87 C 546.29 700.30 545.09 705.66 543.75 710.94 C 543.53 712.29 543.34 713.64 543.13 715.01 C 542.20 718.29 541.81 721.70 540.83 724.98 C 540.61 726.32 540.43 727.69 540.23 729.05 C 538.18 738.52 535.87 747.99 534.47 757.58 C 534.26 757.59 533.84 757.60 533.64 757.61 C 533.55 759.41 533.42 761.21 533.25 763.03 C 532.09 766.27 531.93 769.77 530.75 773.01 C 530.62 774.49 530.54 775.99 530.49 777.49 C 530.27 777.52 529.83 777.58 529.61 777.61 C 529.51 782.90 527.33 787.87 527.25 793.17 C 527.06 792.39 526.88 791.62 526.71 790.87 C 526.58 792.90 526.41 794.94 526.19 796.98 C 525.67 798.62 525.28 800.29 524.88 801.97 C 524.65 803.65 524.32 805.33 523.78 806.96 C 523.57 808.31 523.39 809.67 523.21 811.05 C 521.00 820.35 519.24 829.77 517.25 839.13 C 516.61 841.02 516.39 843.01 516.10 844.99 C 515.23 848.30 514.81 851.72 513.83 855.01 C 513.61 856.34 513.43 857.71 513.24 859.07 C 511.08 869.12 508.47 879.15 507.28 889.37 C 507.15 888.76 506.90 887.54 506.77 886.93 C 506.62 888.96 506.45 890.99 506.23 893.03 C 505.20 896.29 504.79 899.69 503.87 902.98 C 503.57 904.96 503.27 906.95 502.73 908.90 C 501.88 913.65 500.46 918.32 500.23 923.17 C 500.06 922.40 499.89 921.64 499.73 920.89 C 499.67 926.44 497.54 931.68 497.24 937.21 C 497.05 936.45 496.87 935.69 496.69 934.94 C 496.61 936.97 496.46 939.01 496.26 941.05 C 494.89 946.31 493.54 951.67 493.29 957.13 C 493.11 956.40 492.93 955.69 492.76 954.99 C 492.51 958.68 491.86 962.36 490.75 965.90 C 490.57 967.68 490.43 969.47 490.31 971.28 C 490.12 970.49 489.93 969.72 489.74 968.96 C 489.60 970.97 489.42 972.99 489.21 975.02 C 488.25 978.09 487.63 981.27 487.31 984.48 L 486.66 984.51 C 486.54 986.02 486.40 987.52 486.26 989.05 C 484.97 993.80 483.97 998.66 483.37 1003.55 C 483.20 1003.57 482.85 1003.62 482.68 1003.65 C 482.43 1008.24 481.12 1012.67 480.26 1017.17 C 479.66 1019.07 479.40 1021.05 479.12 1023.04 C 478.01 1027.69 477.11 1032.39 476.15 1037.08 C 475.22 1040.65 474.81 1044.34 473.75 1047.89 C 473.58 1049.40 473.45 1050.94 473.33 1052.48 L 472.61 1052.46 C 472.48 1053.96 472.32 1055.46 472.16 1056.97 C 471.13 1060.30 470.50 1063.75 470.23 1067.23 C 470.03 1066.46 469.84 1065.69 469.66 1064.94 C 469.60 1066.97 469.46 1069.02 469.26 1071.07 C 467.97 1075.80 466.89 1080.63 466.39 1085.52 C 466.20 1085.55 465.83 1085.61 465.65 1085.65 C 465.54 1088.50 465.00 1091.31 464.31 1094.09 C 463.77 1092.74 463.25 1091.40 462.71 1090.08 C 462.54 1088.67 462.37 1087.28 462.21 1085.90 C 460.10 1077.68 458.91 1069.25 456.73 1061.05 C 456.58 1059.54 456.45 1058.04 456.34 1056.55 L 455.68 1056.47 C 455.38 1053.26 454.75 1050.09 453.82 1047.02 C 453.64 1045.50 453.50 1044.00 453.37 1042.50 L 452.65 1042.46 C 452.53 1040.94 452.39 1039.42 452.24 1037.93 C 451.31 1034.84 450.67 1031.68 450.34 1028.48 L 449.74 1028.45 C 449.29 1023.24 447.96 1018.16 446.82 1013.07 C 446.63 1011.99 446.46 1010.92 446.28 1009.87 C 445.22 1006.31 444.94 1002.57 443.79 999.05 C 443.60 997.27 443.47 995.51 443.38 993.75 C 443.14 993.69 442.65 993.58 442.41 993.53 C 442.37 992.33 442.32 991.15 442.27 989.99 C 441.14 986.65 440.59 983.16 440.22 979.69 C 440.04 980.45 439.86 981.21 439.69 981.99 C 439.63 979.95 439.50 977.92 439.31 975.91 C 437.92 970.63 436.57 965.26 436.31 959.80 C 436.10 959.74 435.69 959.62 435.49 959.56 C 435.13 955.16 433.48 950.96 433.42 946.52 C 433.19 946.52 432.74 946.51 432.51 946.50 C 432.45 944.98 432.36 943.47 432.26 941.98 C 430.51 935.74 429.51 929.30 428.11 922.97 C 427.26 919.31 426.39 915.63 426.27 911.87 C 426.08 912.60 425.90 913.34 425.73 914.10 C 425.63 908.57 423.46 903.36 423.24 897.85 C 423.05 898.61 422.87 899.38 422.70 900.17 C 422.60 898.10 422.44 896.05 422.21 894.02 C 421.14 890.75 420.77 887.31 419.88 884.01 C 419.56 882.02 419.26 880.03 418.72 878.10 C 417.82 873.39 416.41 868.75 416.28 863.93 C 416.09 864.65 415.91 865.39 415.73 866.13 C 415.59 862.37 414.73 858.71 413.87 855.07 C 412.50 848.73 411.43 842.31 409.76 836.05 C 409.60 834.52 409.47 833.02 409.36 831.52 L 408.70 831.48 C 408.32 826.74 406.72 822.20 406.33 817.47 L 405.71 817.49 C 405.48 812.72 403.78 808.20 403.34 803.46 L 402.71 803.44 C 402.59 801.92 402.45 800.41 402.30 798.91 C 401.22 795.35 400.86 791.62 399.75 788.07 C 399.52 785.99 399.36 783.92 399.24 781.84 C 399.03 782.95 398.84 784.07 398.65 785.20 C 398.57 783.12 398.42 781.05 398.22 778.99 C 397.25 775.91 396.59 772.74 396.32 769.52 L 395.66 769.45 C 395.54 767.94 395.39 766.43 395.24 764.94 C 393.91 760.33 393.22 755.56 392.19 750.89 C 391.25 747.33 390.76 743.67 389.88 740.11 C 389.60 738.39 389.31 736.69 388.75 735.05 C 388.53 733.70 388.33 732.34 388.13 731.01 C 387.26 727.90 386.60 724.72 386.31 721.51 L 385.65 721.48 C 385.53 719.96 385.40 718.45 385.26 716.95 C 383.86 712.36 383.20 707.59 382.20 702.90 C 381.03 697.83 379.77 692.73 379.27 687.54 L 378.68 687.54 C 378.37 684.60 377.70 681.72 377.20 678.82 L 376.79 678.19 C 376.65 677.08 376.49 675.99 376.34 674.90 C 375.62 673.00 375.43 670.95 375.17 668.96 C 374.22 665.68 373.82 662.26 372.79 659.01 C 372.58 657.20 372.42 655.40 372.28 653.60 L 371.63 653.60 C 371.19 649.16 369.75 644.89 369.35 640.45 L 368.74 640.44 C 368.28 635.23 366.95 630.15 365.86 625.06 C 364.87 620.38 364.02 615.67 362.88 611.03 C 362.59 609.05 362.34 607.07 361.74 605.17 C 360.91 600.67 359.51 596.26 359.36 591.66 C 359.15 591.63 358.74 591.56 358.53 591.53 C 358.18 586.63 356.84 581.87 355.84 577.09 C 354.82 572.41 354.07 567.66 352.80 563.05 C 352.44 561.02 352.93 558.65 351.48 556.98 C 351.38 555.98 351.29 554.98 351.21 553.99 C 350.26 550.88 349.60 547.69 349.38 544.46 C 349.19 544.46 348.80 544.47 348.60 544.47 C 348.52 542.95 348.41 541.43 348.30 539.92 C 346.91 534.34 345.32 528.70 345.32 522.92 C 345.15 524.01 344.99 525.10 344.83 526.20 C 344.53 522.43 343.89 518.68 342.73 515.07 C 342.61 513.55 342.52 512.03 342.45 510.52 C 342.21 510.52 341.74 510.52 341.51 510.52 C 341.44 509.00 341.34 507.49 341.24 505.98 C 340.22 502.91 339.64 499.72 339.31 496.51 L 338.66 496.48 C 338.54 494.96 338.40 493.45 338.25 491.95 C 336.91 486.65 335.54 481.28 335.29 475.80 C 335.12 476.54 334.95 477.29 334.78 478.05 C 333.53 467.92 330.87 458.00 328.83 448.02 C 328.61 446.66 328.42 445.30 328.21 443.96 C 326.94 439.20 325.97 434.34 325.32 429.47 L 324.73 429.44 C 324.40 424.16 322.40 419.15 322.25 413.85 C 322.08 414.61 321.91 415.38 321.75 416.16 C 321.46 410.69 320.06 405.35 318.81 400.04 C 318.60 398.69 318.42 397.34 318.20 396.00 C 317.55 394.35 317.35 392.58 317.15 390.85 L 316.83 390.19 C 316.53 388.78 316.20 387.38 315.82 386.00 C 315.65 384.50 315.50 382.99 315.37 381.49 L 314.67 381.48 C 314.53 379.94 314.38 378.41 314.22 376.89 C 313.30 373.81 312.68 370.65 312.35 367.46 L 311.74 367.44 C 311.30 362.24 309.98 357.16 308.82 352.08 C 308.55 350.39 308.24 348.70 307.80 347.05 C 307.25 344.02 306.66 341.00 305.91 338.03 C 305.60 336.04 305.36 334.03 304.69 332.13 C 304.51 331.07 304.35 330.01 304.19 328.95 C 303.22 325.52 302.54 322.01 302.25 318.46 C 302.13 319.10 301.89 320.37 301.77 321.01 C 301.65 315.26 300.02 309.69 298.77 304.11 C 298.62 302.89 298.31 300.43 298.16 299.20 L 299.49 298.86 C 299.18 298.74 298.56 298.49 298.25 298.37 C 297.99 298.90 297.47 299.98 297.21 300.51 C 297.89 296.95 296.77 293.45 295.80 290.06 C 295.63 288.53 295.49 287.01 295.36 285.49 L 294.64 285.49 C 294.52 283.98 294.38 282.47 294.23 280.96 C 292.91 276.35 292.17 271.61 291.18 266.92 C 289.18 257.13 286.71 247.40 285.29 237.51 L 284.63 237.52 C 284.51 236.00 284.38 234.49 284.23 232.98 C 283.19 229.69 282.78 226.24 281.84 222.93 C 281.62 221.61 281.42 220.29 281.19 218.97 C 280.59 217.31 280.38 215.55 280.17 213.81 L 279.82 213.15 C 279.24 209.96 278.43 206.80 278.36 203.54 C 278.16 203.55 277.76 203.58 277.56 203.59 C 277.41 200.36 276.61 197.23 275.87 194.09 C 275.59 192.40 275.34 190.71 274.85 189.06 C 274.17 186.11 273.45 183.16 272.98 180.16 Z" />
<path fill="#fe0016" opacity="1.00" d=" M 693.50 180.12 C 761.66 179.98 829.83 180.12 898.00 180.05 C 900.59 179.89 903.03 180.85 905.42 181.74 L 905.53 182.34 C 906.75 182.74 907.98 183.18 909.22 183.61 C 910.43 184.17 911.66 184.73 912.89 185.30 C 914.93 186.20 916.96 187.15 918.96 188.16 C 921.27 189.40 923.61 190.59 925.96 191.77 C 927.90 192.94 929.86 194.09 931.81 195.27 C 955.94 209.58 977.84 228.97 991.19 253.97 C 992.16 255.95 993.14 257.93 994.15 259.91 C 995.05 261.97 995.91 264.04 996.70 266.15 C 997.22 267.41 997.75 268.67 998.32 269.93 C 998.44 270.46 998.69 271.51 998.82 272.04 C 999.71 274.65 1000.40 277.33 1001.34 279.93 C 1002.22 293.28 1001.50 306.70 1001.73 320.07 C 1001.71 410.39 1001.72 500.71 1001.73 591.03 C 1001.86 595.50 1000.16 599.70 998.87 603.91 C 998.30 605.30 997.72 606.68 997.18 608.09 C 992.71 617.75 985.12 626.12 975.19 630.29 C 970.84 631.99 966.24 632.80 961.67 633.56 C 961.80 639.84 961.57 646.12 961.75 652.39 C 962.62 653.87 964.60 653.36 966.03 653.82 C 967.35 654.16 968.71 654.48 970.08 654.79 C 972.01 655.58 973.98 656.32 975.95 657.09 C 985.32 661.70 992.85 669.65 997.21 679.12 C 998.96 682.93 999.94 687.02 1001.31 690.97 C 1002.12 701.60 1001.48 712.30 1001.69 722.95 C 1001.70 815.95 1001.73 908.95 1001.73 1001.95 C 1001.86 1006.17 1000.40 1010.16 999.34 1014.18 C 998.63 1016.16 997.91 1018.14 997.21 1020.13 C 996.20 1022.43 995.20 1024.75 994.16 1027.05 C 982.94 1049.96 963.35 1068.05 940.88 1079.73 C 938.63 1080.93 936.35 1082.04 934.09 1083.20 C 931.37 1084.43 928.65 1085.64 925.89 1086.78 C 923.96 1087.59 922.01 1088.32 920.05 1089.05 C 919.02 1089.43 918.00 1089.84 917.00 1090.28 C 916.48 1090.41 915.46 1090.66 914.95 1090.79 C 912.66 1091.61 910.33 1092.31 908.05 1093.15 C 905.14 1094.18 902.13 1095.06 899.01 1094.95 C 842.35 1094.91 785.69 1094.94 729.03 1094.93 C 717.14 1095.08 705.23 1094.63 693.36 1095.17 C 693.81 1060.12 693.42 1025.06 693.55 990.00 C 693.52 720.04 693.62 450.08 693.50 180.12 M 796.59 284.44 C 796.59 386.76 796.52 489.08 796.62 591.41 C 830.94 591.43 865.26 591.33 899.58 591.46 L 899.40 590.42 L 900.41 590.52 C 900.27 488.52 900.39 386.52 900.35 284.51 C 865.77 284.35 831.18 284.50 796.59 284.44 M 796.40 684.33 C 796.50 790.35 796.29 896.37 796.51 1002.40 C 830.86 1002.39 865.21 1002.31 899.56 1002.44 L 899.40 1001.42 L 900.41 1001.53 C 900.30 895.83 900.35 790.13 900.39 684.43 C 865.72 684.18 831.06 684.38 796.40 684.33 Z" />
</g>
<g id="#3f00033f">
<path fill="#3f0003" opacity="0.25" d=" M 692.34 180.27 C 692.63 180.23 693.21 180.16 693.50 180.12 C 693.62 450.08 693.52 720.04 693.55 990.00 C 693.42 1025.06 693.81 1060.12 693.36 1095.17 C 692.72 1094.55 692.40 1093.82 692.38 1092.99 C 692.36 788.75 692.45 484.51 692.34 180.27 Z" />
<path fill="#3f0003" opacity="0.25" d=" M 512.96 401.02 C 513.93 395.22 514.35 389.23 516.71 383.77 C 516.31 388.22 515.47 392.61 514.73 397.02 C 498.68 491.65 482.64 586.29 466.60 680.93 C 465.84 684.76 465.30 688.63 465.15 692.54 C 464.78 692.55 464.04 692.57 463.67 692.58 C 460.62 677.66 458.50 662.55 455.73 647.57 C 448.84 606.44 441.45 565.38 434.75 524.21 C 434.92 523.36 435.12 522.53 435.36 521.71 C 443.99 573.25 453.03 624.71 461.75 676.24 C 462.87 679.86 462.29 683.96 464.18 687.32 C 468.05 667.60 470.98 647.70 474.48 627.90 C 487.31 552.27 500.10 476.64 512.96 401.02 Z" />
</g>
</svg>
