<?xml version="1.0" encoding="UTF-8" ?>
<!DOCTYPE svg PUBLIC "-//W3C//DTD SVG 1.1//EN" "http://www.w3.org/Graphics/SVG/1.1/DTD/svg11.dtd">
<svg width="1276pt" height="1276pt" viewBox="0 0 1276 1276" version="1.1" xmlns="http://www.w3.org/2000/svg">
<g id="#f0352bff">
<path fill="#f0352b" opacity="1.00" d=" M 675.50 242.63 C 699.79 236.53 725.39 236.81 749.88 241.64 C 781.34 247.82 811.29 263.24 833.18 286.87 C 856.71 312.06 870.27 345.74 872.85 379.95 C 874.30 397.26 872.71 414.74 868.95 431.67 C 900.06 425.80 932.60 426.75 962.98 435.97 C 980.98 441.27 998.02 449.43 1013.94 459.31 C 1014.11 458.42 1014.44 456.64 1014.60 455.75 C 1014.55 457.22 1014.45 458.68 1014.40 460.16 C 1030.39 471.37 1045.12 484.49 1057.13 499.94 C 1085.22 535.26 1100.01 580.89 1097.78 625.98 C 1098.02 636.03 1095.88 645.91 1094.48 655.81 C 1087.04 707.04 1080.04 758.34 1072.67 809.58 C 1087.25 813.79 1101.21 820.39 1113.12 829.87 C 1127.82 841.40 1139.60 856.65 1146.92 873.85 C 1156.02 894.89 1158.35 918.76 1153.57 941.17 C 1150.04 958.10 1142.42 974.10 1131.75 987.69 C 1122.68 999.22 1112.17 1009.76 1099.88 1017.84 C 1081.34 1030.24 1059.27 1037.19 1036.99 1037.89 C 995.19 1038.88 952.75 1027.72 918.03 1004.11 C 901.17 992.68 886.09 978.49 874.20 961.92 C 855.79 936.43 844.76 905.98 841.05 874.84 C 823.54 887.85 802.66 896.29 781.00 898.97 C 754.28 902.42 726.27 896.40 703.72 881.54 C 681.00 894.67 654.08 900.96 627.96 897.17 C 597.91 893.12 568.78 877.08 551.92 851.48 C 528.64 869.15 501.08 879.82 473.44 888.55 C 444.95 897.31 414.65 902.37 384.92 897.79 C 382.32 914.16 381.10 930.92 375.34 946.59 C 363.83 979.88 337.46 1007.76 304.59 1020.57 C 273.53 1033.12 236.91 1030.81 207.76 1014.29 C 191.29 1005.09 177.33 991.38 168.01 974.96 C 157.17 956.04 152.46 933.84 153.78 912.13 C 154.07 906.33 155.07 900.62 155.88 894.89 C 168.08 810.55 180.28 726.21 192.48 641.86 C 194.71 623.17 200.48 605.06 207.70 587.73 C 218.60 562.06 234.02 538.35 252.76 517.71 C 249.45 516.43 246.25 514.93 243.12 513.28 C 214.06 531.34 173.48 527.78 148.01 504.94 C 134.11 492.64 124.96 475.39 121.74 457.18 C 118.89 441.55 119.77 425.44 122.87 409.92 C 127.68 383.26 135.82 356.66 151.04 333.99 C 167.58 310.90 198.05 298.04 226.06 303.83 C 229.43 304.23 232.75 306.63 236.13 305.16 C 245.09 302.33 254.83 301.66 263.98 303.96 C 266.14 304.35 268.43 305.59 270.59 304.49 C 285.11 298.95 301.60 299.49 316.05 304.99 C 330.72 310.53 343.03 321.63 350.47 335.39 C 358.40 336.87 366.20 339.53 373.05 343.86 C 374.26 344.49 375.51 345.75 377.01 344.97 C 387.51 342.26 398.60 342.71 409.06 345.36 C 421.50 342.23 434.87 341.53 447.15 345.77 C 451.27 346.91 454.98 349.17 458.96 350.61 C 467.40 347.85 476.14 345.84 485.06 345.70 C 490.46 345.39 495.94 346.89 501.24 345.24 C 507.05 332.63 516.15 321.42 527.82 313.80 C 542.63 304.04 561.54 300.38 578.79 304.92 C 603.68 275.05 637.62 252.15 675.50 242.63 M 670.76 275.79 C 636.33 288.05 607.32 313.18 587.64 343.71 C 579.95 336.83 569.48 332.40 559.05 333.78 C 547.31 335.31 537.12 343.25 531.29 353.35 C 527.04 360.29 525.56 368.38 523.20 376.06 C 515.64 373.90 507.41 373.94 500.07 376.88 C 498.05 377.90 495.89 376.81 493.84 376.61 C 480.23 374.21 466.25 378.78 455.18 386.67 C 444.95 372.50 423.44 368.90 408.93 378.44 C 397.05 370.22 380.06 372.61 369.72 382.26 C 369.51 382.09 369.09 381.74 368.88 381.56 L 368.83 381.58 C 366.67 376.88 362.72 373.26 358.30 370.71 C 349.25 365.59 338.24 364.13 328.17 366.77 C 327.84 347.94 310.82 331.12 291.99 331.04 C 283.99 330.93 276.33 334.29 270.07 339.09 C 266.59 336.95 262.98 334.93 259.00 333.90 C 249.99 331.62 240.03 333.59 232.70 339.36 C 222.04 331.69 207.52 331.07 195.48 335.62 C 184.67 339.79 176.62 348.93 171.38 359.02 C 169.20 363.02 167.27 367.14 165.39 371.29 C 163.45 376.15 161.51 381.02 160.16 386.08 L 160.00 386.02 C 158.65 390.42 157.41 394.85 156.30 399.32 L 156.23 399.30 C 153.55 411.37 150.71 423.52 150.37 435.93 C 150.38 440.62 150.32 445.37 151.21 449.99 L 151.82 450.12 L 151.44 450.77 C 152.93 462.64 159.15 473.91 168.00 481.98 C 180.50 493.24 198.83 496.76 214.93 492.62 C 226.08 489.49 235.68 482.48 244.06 474.69 C 251.03 484.87 262.98 490.49 274.97 491.99 C 285.05 493.17 295.16 491.32 304.94 489.08 C 313.00 492.26 321.63 493.93 330.30 492.92 C 328.05 494.44 325.75 495.88 323.48 497.37 L 323.31 497.33 C 314.95 502.81 306.79 508.64 299.16 515.12 C 292.22 520.70 285.83 526.94 279.60 533.29 C 271.93 541.46 264.60 550.00 258.33 559.31 L 258.14 559.27 C 253.96 565.40 249.91 571.64 246.28 578.14 C 242.53 584.64 239.20 591.39 236.28 598.32 L 236.20 598.30 C 232.26 607.74 228.73 617.39 226.27 627.33 L 226.16 627.30 C 222.54 641.62 221.44 656.42 219.04 670.97 C 207.58 750.13 196.13 829.30 184.68 908.47 C 181.88 930.89 188.12 954.76 203.06 971.94 C 222.85 994.66 256.29 1003.44 284.99 995.01 C 304.23 989.53 321.39 977.39 333.31 961.37 C 342.81 948.69 348.92 933.57 351.21 917.91 C 354.13 898.11 356.96 878.30 359.86 858.50 C 372.67 864.73 386.74 868.21 400.96 868.94 C 422.76 870.13 444.44 865.66 465.18 859.25 C 492.18 850.50 519.70 840.30 541.28 821.24 C 546.04 817.35 549.81 812.41 554.69 808.66 C 558.00 806.06 560.99 803.10 564.27 800.46 C 566.32 815.71 572.38 830.67 582.91 842.04 C 595.32 855.69 612.79 864.22 630.95 866.85 C 650.40 869.86 670.59 865.33 687.56 855.58 C 693.88 852.21 699.31 847.45 704.97 843.21 C 708.92 847.17 712.88 851.17 717.51 854.36 C 739.40 870.09 768.78 873.26 794.21 865.19 C 814.39 858.99 832.73 845.85 843.66 827.61 C 849.65 817.74 853.25 806.51 854.63 795.07 C 858.28 767.25 861.98 739.45 865.63 711.63 C 866.56 704.21 867.54 696.79 868.49 689.36 C 869.41 682.17 870.33 674.98 871.29 667.79 C 872.09 661.14 872.94 654.49 873.71 647.83 C 873.37 638.20 881.48 630.99 889.98 628.16 C 891.92 628.20 893.89 628.04 895.85 628.25 C 894.27 639.05 893.24 649.92 891.75 660.74 C 890.73 669.20 889.70 677.66 888.65 686.11 C 887.61 694.42 886.63 702.72 885.58 711.03 C 880.70 751.34 875.51 791.61 870.81 831.95 C 868.20 857.56 870.87 883.85 879.76 908.08 C 889.51 935.20 907.53 959.28 931.00 976.04 C 961.15 997.98 998.90 1008.30 1035.99 1007.49 C 1053.24 1006.92 1070.29 1001.31 1084.44 991.41 C 1100.65 980.17 1113.14 963.66 1119.53 945.00 C 1125.62 927.38 1125.73 907.70 1119.60 890.07 C 1114.46 875.30 1104.57 862.10 1091.37 853.62 C 1075.99 843.58 1057.25 839.58 1039.04 840.38 C 1040.27 817.33 1044.33 794.55 1047.25 771.68 C 1048.65 763.21 1049.56 754.66 1050.97 746.19 C 1052.84 731.53 1055.13 716.92 1057.11 702.27 C 1058.66 690.93 1060.29 679.61 1061.93 668.28 C 1063.51 655.28 1065.94 642.38 1067.10 629.34 C 1066.94 620.81 1066.65 612.27 1065.56 603.80 C 1064.28 594.18 1062.30 584.66 1059.80 575.29 L 1059.52 575.30 C 1057.62 567.70 1054.85 560.34 1051.80 553.14 C 1047.60 543.41 1042.66 534.00 1036.98 525.06 C 1031.21 516.33 1024.96 507.88 1017.84 500.21 C 1014.15 497.23 1010.55 494.14 1006.70 491.37 L 1006.58 491.37 C 989.51 478.43 969.60 469.41 948.86 464.22 C 913.19 455.25 874.97 457.76 840.44 470.23 C 830.61 473.68 821.11 478.02 811.94 482.97 C 813.41 480.95 814.89 478.94 816.34 476.90 C 821.62 469.36 826.21 461.34 830.04 452.97 C 831.90 448.28 834.32 443.71 835.35 438.75 L 835.05 438.17 L 835.71 437.92 C 849.54 397.04 843.79 348.70 816.73 314.40 C 796.81 288.92 765.77 273.82 734.03 269.83 C 712.86 266.92 690.94 268.52 670.76 275.79 Z" />
<path fill="#f0352b" opacity="1.00" d=" M 581.17 485.33 C 582.41 484.52 583.64 483.69 584.87 482.87 C 586.50 485.29 588.10 487.73 589.79 490.11 C 594.82 497.11 600.54 503.62 606.96 509.37 C 606.43 510.65 605.89 511.93 605.42 513.25 C 602.94 519.55 602.40 526.36 601.32 532.99 C 601.00 535.02 600.70 537.06 600.40 539.10 C 598.55 536.45 596.74 533.78 594.81 531.20 C 589.62 524.21 583.89 517.64 577.66 511.57 C 570.03 504.11 561.62 497.49 552.81 491.50 C 562.55 491.69 572.95 491.24 581.17 485.33 Z" />
<path fill="#f0352b" opacity="1.00" d=" M 412.31 633.49 C 422.75 627.48 435.79 624.23 447.46 628.47 C 453.74 630.65 458.15 636.13 460.67 642.10 C 462.26 650.09 461.70 658.47 459.17 666.21 C 454.85 679.43 444.53 690.69 431.40 695.49 C 425.29 697.95 418.66 698.33 412.21 699.29 C 402.01 700.98 391.66 702.40 381.98 706.19 C 383.57 695.06 385.20 683.93 386.82 672.80 C 387.47 668.41 387.84 663.94 389.23 659.70 C 393.49 648.55 402.17 639.53 412.31 633.49 Z" />
</g>
<g id="#ffffffff">
<path fill="#ffffff" opacity="1.00" d=" M 670.76 275.79 C 690.94 268.52 712.86 266.92 734.03 269.83 C 765.77 273.82 796.81 288.92 816.73 314.40 C 843.79 348.70 849.54 397.04 835.71 437.92 L 835.05 438.17 C 829.06 436.70 822.84 436.71 816.78 435.69 C 812.33 435.04 807.87 434.45 803.37 434.47 C 803.16 433.81 802.76 432.49 802.55 431.82 C 809.94 411.56 811.51 389.06 805.93 368.15 C 802.03 352.54 793.76 338.09 782.24 326.85 C 771.68 315.43 758.05 307.00 743.19 302.46 C 723.90 296.38 702.88 296.26 683.45 301.77 C 652.43 310.23 625.52 332.23 610.63 360.66 C 603.09 374.74 598.76 390.47 597.69 406.39 C 585.09 405.69 572.67 403.58 560.24 401.59 C 562.33 396.28 565.24 391.32 568.87 386.92 C 573.57 381.17 575.08 373.24 573.72 366.05 C 572.71 361.25 568.04 357.33 563.02 358.10 C 556.67 358.89 552.32 364.64 550.54 370.39 C 546.81 382.47 543.35 394.64 540.35 406.93 C 534.01 405.98 526.99 407.27 521.22 404.08 C 518.52 398.03 509.45 396.86 505.65 402.46 C 498.87 401.53 492.26 399.36 485.37 399.48 C 476.55 397.99 467.64 396.83 458.70 396.29 C 442.98 393.59 427.05 392.34 411.21 390.46 C 407.33 390.04 403.39 389.81 399.65 388.63 C 391.21 385.75 382.17 385.79 373.42 384.47 C 371.94 384.24 370.84 383.15 369.72 382.26 C 380.06 372.61 397.05 370.22 408.93 378.44 C 423.44 368.90 444.95 372.50 455.18 386.67 C 466.25 378.78 480.23 374.21 493.84 376.61 C 495.89 376.81 498.05 377.90 500.07 376.88 C 507.41 373.94 515.64 373.90 523.20 376.06 C 525.56 368.38 527.04 360.29 531.29 353.35 C 537.12 343.25 547.31 335.31 559.05 333.78 C 569.48 332.40 579.95 336.83 587.64 343.71 C 607.32 313.18 636.33 288.05 670.76 275.79 Z" />
<path fill="#ffffff" opacity="1.00" d=" M 750.50 329.74 C 756.79 328.48 763.88 328.96 769.28 332.72 C 775.28 336.34 779.04 343.15 779.47 350.08 C 780.79 364.30 769.05 377.79 755.02 379.31 C 750.28 379.91 745.52 378.69 741.14 377.00 C 735.60 373.57 730.57 368.25 729.63 361.55 C 726.20 347.54 736.73 332.75 750.50 329.74 Z" />
<path fill="#ffffff" opacity="1.00" d=" M 270.07 339.09 C 276.33 334.29 283.99 330.93 291.99 331.04 C 310.82 331.12 327.84 347.94 328.17 366.77 C 338.24 364.13 349.25 365.59 358.30 370.71 C 362.72 373.26 366.67 376.88 368.83 381.58 C 364.46 383.52 359.73 380.99 355.22 380.84 C 348.87 380.63 342.75 378.72 336.41 378.48 C 328.98 378.19 321.72 376.52 314.32 375.96 C 309.84 375.35 305.01 375.79 300.97 373.39 C 305.00 367.31 301.42 358.05 294.09 356.84 C 286.29 354.87 279.08 363.22 281.57 370.72 C 277.64 371.78 274.67 374.60 271.89 377.41 C 268.90 376.65 265.87 376.08 262.81 375.64 C 263.44 371.00 262.58 366.03 259.88 362.14 C 257.90 359.33 254.46 357.24 250.94 357.80 C 246.35 358.88 242.75 362.50 240.62 366.58 C 233.83 366.90 227.27 364.72 220.57 363.99 C 220.26 361.55 219.02 359.09 216.55 358.26 C 210.76 356.20 204.54 358.65 199.69 361.89 C 198.17 361.84 196.69 362.15 195.25 362.60 C 191.21 358.52 185.22 362.27 180.59 360.01 C 177.53 359.64 174.43 359.48 171.38 359.02 C 176.62 348.93 184.67 339.79 195.48 335.62 C 207.52 331.07 222.04 331.69 232.70 339.36 C 240.03 333.59 249.99 331.62 259.00 333.90 C 262.98 334.93 266.59 336.95 270.07 339.09 Z" />
<path fill="#ffffff" opacity="1.00" d=" M 716.26 377.45 C 721.39 374.78 728.99 376.90 730.49 382.90 C 733.39 391.19 724.22 399.95 716.08 397.04 C 711.61 395.61 708.82 390.51 709.93 385.98 C 710.49 382.34 713.05 379.15 716.26 377.45 Z" />
</g>
<g id="#3a484bff">
<path fill="#3a484b" opacity="1.00" d=" M 683.45 301.77 C 702.88 296.26 723.90 296.38 743.19 302.46 C 758.05 307.00 771.68 315.43 782.24 326.85 C 793.76 338.09 802.03 352.54 805.93 368.15 C 811.51 389.06 809.94 411.56 802.55 431.82 C 800.32 437.74 797.68 443.52 794.54 449.01 C 790.01 457.05 784.50 464.51 778.25 471.30 C 773.00 476.77 767.42 481.94 761.31 486.43 C 754.67 491.28 747.50 495.38 740.03 498.80 C 734.41 501.17 728.76 503.57 722.80 504.98 C 701.11 510.96 677.56 509.86 656.58 501.71 C 652.04 499.47 647.28 497.63 642.99 494.89 C 633.98 488.85 624.83 482.54 618.46 473.56 C 613.61 466.53 608.46 459.54 605.50 451.45 C 603.58 447.20 602.03 442.80 600.96 438.26 C 598.12 427.91 597.31 417.08 597.69 406.39 C 598.76 390.47 603.09 374.74 610.63 360.66 C 625.52 332.23 652.43 310.23 683.45 301.77 M 750.50 329.74 C 736.73 332.75 726.20 347.54 729.63 361.55 C 730.57 368.25 735.60 373.57 741.14 377.00 C 745.52 378.69 750.28 379.91 755.02 379.31 C 769.05 377.79 780.79 364.30 779.47 350.08 C 779.04 343.15 775.28 336.34 769.28 332.72 C 763.88 328.96 756.79 328.48 750.50 329.74 M 642.25 341.31 C 627.32 356.06 616.76 375.44 613.46 396.24 C 610.71 412.28 612.42 429.14 618.82 444.14 C 621.84 452.45 627.19 459.58 632.66 466.41 C 647.06 482.85 668.28 492.78 690.03 494.07 C 723.45 496.19 756.86 479.06 775.98 451.83 C 772.26 453.32 768.93 455.59 765.31 457.29 C 746.34 466.42 724.24 469.26 703.68 464.43 C 680.64 459.24 660.15 443.50 649.67 422.29 C 640.11 403.45 638.22 381.04 643.56 360.68 C 646.23 349.50 651.54 339.25 657.34 329.43 C 651.61 332.38 646.93 336.96 642.25 341.31 M 716.26 377.45 C 713.05 379.15 710.49 382.34 709.93 385.98 C 708.82 390.51 711.61 395.61 716.08 397.04 C 724.22 399.95 733.39 391.19 730.49 382.90 C 728.99 376.90 721.39 374.78 716.26 377.45 Z" />
</g>
<g id="#657278ff">
<path fill="#657278" opacity="1.00" d=" M 642.25 341.31 C 646.93 336.96 651.61 332.38 657.34 329.43 C 651.54 339.25 646.23 349.50 643.56 360.68 C 638.22 381.04 640.11 403.45 649.67 422.29 C 660.15 443.50 680.64 459.24 703.68 464.43 C 724.24 469.26 746.34 466.42 765.31 457.29 C 768.93 455.59 772.26 453.32 775.98 451.83 C 756.86 479.06 723.45 496.19 690.03 494.07 C 668.28 492.78 647.06 482.85 632.66 466.41 C 627.19 459.58 621.84 452.45 618.82 444.14 C 612.42 429.14 610.71 412.28 613.46 396.24 C 616.76 375.44 627.32 356.06 642.25 341.31 Z" />
</g>
<g id="#110000ff">
<path fill="#110000" opacity="1.00" d=" M 281.57 370.72 C 279.08 363.22 286.29 354.87 294.09 356.84 C 301.42 358.05 305.00 367.31 300.97 373.39 C 298.42 376.67 294.23 378.79 290.03 377.93 C 286.09 377.34 283.07 374.26 281.57 370.72 Z" />
<path fill="#110000" opacity="1.00" d=" M 199.69 361.89 C 204.54 358.65 210.76 356.20 216.55 358.26 C 219.02 359.09 220.26 361.55 220.57 363.99 C 219.84 369.56 215.51 373.51 212.90 378.23 C 206.07 388.93 201.54 400.85 198.17 413.04 C 195.74 421.13 193.67 429.48 193.82 437.98 C 193.90 441.82 195.54 445.94 199.03 447.89 C 203.14 450.18 208.22 449.25 212.28 447.30 C 218.39 444.40 222.76 439.06 227.25 434.19 C 231.39 429.80 234.14 424.35 236.52 418.87 C 239.46 412.04 241.66 404.93 244.19 397.95 C 245.29 394.76 246.63 391.44 246.04 388.00 C 245.63 385.01 243.49 382.75 241.93 380.31 C 239.40 376.23 238.78 371.06 240.62 366.58 C 242.75 362.50 246.35 358.88 250.94 357.80 C 254.46 357.24 257.90 359.33 259.88 362.14 C 262.58 366.03 263.44 371.00 262.81 375.64 C 262.60 378.44 261.21 382.08 263.75 384.22 C 266.72 386.22 271.22 387.04 272.13 391.08 C 273.07 395.11 269.22 397.98 265.73 398.71 C 263.30 398.65 260.94 398.08 258.63 397.38 C 257.35 403.95 255.74 410.47 253.65 416.84 C 251.72 422.74 249.35 428.51 246.40 433.98 C 243.54 439.43 239.44 444.07 235.15 448.43 C 228.88 454.98 222.40 461.52 214.53 466.16 C 207.00 470.76 197.10 470.69 189.28 466.86 C 183.09 463.82 178.89 457.80 176.91 451.32 C 175.79 447.25 175.26 443.05 175.14 438.85 C 174.91 426.73 178.12 414.93 180.91 403.24 C 182.04 398.99 183.30 394.77 184.70 390.60 C 186.34 385.78 188.20 381.03 190.30 376.39 C 192.86 371.24 195.24 365.73 199.69 361.89 Z" />
<path fill="#110000" opacity="1.00" d=" M 550.54 370.39 C 552.32 364.64 556.67 358.89 563.02 358.10 C 568.04 357.33 572.71 361.25 573.72 366.05 C 575.08 373.24 573.57 381.17 568.87 386.92 C 565.24 391.32 562.33 396.28 560.24 401.59 C 556.17 411.75 553.55 422.42 551.25 433.10 C 550.10 439.04 548.71 444.96 548.06 450.98 C 547.74 453.93 550.55 455.99 553.16 456.50 C 559.78 457.81 566.66 455.03 571.34 450.35 C 573.46 448.14 576.77 446.72 579.52 448.77 C 580.04 455.61 573.92 460.50 568.76 463.85 C 561.06 467.21 552.18 467.47 543.99 466.01 C 539.98 465.57 537.92 461.81 534.89 459.69 C 531.77 460.55 529.35 463.06 526.31 464.22 C 517.57 468.05 507.10 469.81 498.07 465.95 C 493.13 463.98 491.07 458.80 488.12 454.82 C 482.48 462.37 474.01 469.65 463.95 468.58 C 458.63 468.23 455.02 463.97 450.98 461.05 C 448.04 462.50 445.25 464.22 442.42 465.87 C 434.03 469.39 423.36 469.78 415.73 464.28 C 411.57 461.42 411.10 456.09 409.01 451.89 C 406.71 454.94 404.94 458.53 401.70 460.73 C 395.59 465.27 387.27 467.32 379.86 465.37 C 376.51 464.67 375.58 460.85 373.09 459.18 C 367.43 463.27 361.16 466.99 354.05 467.62 C 349.47 468.12 345.07 466.43 340.99 464.57 C 335.76 466.30 330.54 468.49 324.94 468.50 C 317.80 468.62 310.83 465.65 305.58 460.87 C 296.43 467.47 284.23 468.73 273.41 466.44 C 266.83 465.03 262.14 459.02 261.36 452.48 C 260.75 447.11 262.90 442.04 264.06 436.90 C 265.41 431.57 266.79 426.25 268.14 420.93 C 270.32 414.45 270.50 407.12 274.32 401.32 C 278.94 397.44 286.94 396.50 290.96 401.70 C 292.54 405.91 290.42 410.10 289.22 414.09 C 287.60 419.02 286.03 423.97 284.43 428.92 C 282.46 435.28 280.20 441.56 278.38 447.96 C 277.15 451.17 279.48 454.90 282.97 454.90 C 290.39 455.23 298.93 453.99 304.07 448.09 C 307.72 443.02 311.03 437.70 314.55 432.54 C 317.52 428.08 320.52 423.63 323.48 419.17 C 325.19 416.61 326.91 414.06 328.60 411.50 C 327.37 409.42 326.21 407.29 325.41 405.02 C 323.99 397.46 330.98 390.94 337.98 389.96 C 342.20 389.26 346.34 391.48 348.76 394.86 C 352.06 401.55 342.37 407.21 346.29 413.70 C 351.02 419.47 354.78 426.31 355.14 433.93 C 355.38 438.93 354.75 444.07 352.48 448.60 C 351.41 451.20 349.56 453.91 350.27 456.85 C 351.17 459.10 354.19 458.47 356.00 457.89 C 359.98 456.47 363.75 454.47 367.34 452.26 C 372.52 448.96 373.55 442.43 375.09 436.96 C 377.95 426.22 380.90 415.49 383.78 404.75 C 384.28 402.43 385.78 400.55 387.47 398.97 C 392.27 396.68 397.72 398.99 400.42 403.32 C 402.36 409.49 397.81 415.20 396.40 421.05 C 394.47 426.37 392.62 431.72 390.66 437.04 C 388.62 442.20 387.16 448.60 390.47 453.56 C 392.27 456.28 395.92 454.63 397.58 452.61 C 400.96 448.73 403.95 444.49 406.55 440.04 C 409.38 434.69 411.40 428.95 412.97 423.11 C 414.49 417.59 415.95 412.06 417.38 406.51 C 418.08 403.62 419.46 400.67 422.20 399.21 C 426.92 396.34 434.60 397.87 436.39 403.55 C 437.55 408.00 434.52 412.01 433.32 416.11 C 430.67 423.75 428.71 431.61 426.14 439.27 C 424.72 443.28 423.78 448.01 426.10 451.88 C 431.98 461.34 450.17 456.43 449.65 445.05 C 449.69 436.56 451.56 427.87 456.45 420.80 C 463.14 410.34 474.19 401.62 487.00 401.09 C 492.66 400.67 497.80 403.36 502.66 405.86 C 503.64 404.71 504.63 403.57 505.65 402.46 C 509.45 396.86 518.52 398.03 521.22 404.08 C 521.07 406.04 520.66 407.98 519.94 409.81 C 517.36 416.49 514.89 423.22 512.35 429.91 C 510.35 435.32 508.23 440.69 506.28 446.12 C 505.30 448.60 505.07 451.86 507.24 453.79 C 510.48 456.54 515.16 456.38 519.10 455.66 C 524.96 454.40 530.89 451.03 533.44 445.38 C 534.97 441.39 534.71 437.02 535.38 432.85 C 536.50 424.12 538.32 415.49 540.35 406.93 C 543.35 394.64 546.81 382.47 550.54 370.39 M 487.70 414.77 C 479.12 418.14 473.10 425.76 468.62 433.52 C 466.05 438.21 464.11 443.66 465.39 449.05 C 466.01 451.86 467.79 455.02 470.98 455.31 C 473.90 455.33 476.39 453.39 478.21 451.27 C 482.15 446.59 485.79 441.66 489.14 436.54 C 492.06 431.90 494.91 427.18 497.28 422.23 C 498.10 420.13 499.16 417.36 497.51 415.40 C 494.73 413.35 490.82 413.83 487.70 414.77 M 321.31 444.20 C 318.18 449.19 324.46 456.86 329.84 454.05 C 336.21 446.99 340.46 435.15 333.67 426.96 C 329.49 432.66 325.19 438.30 321.31 444.20 Z" />
</g>
<g id="#fefef1ff">
<path fill="#fefef1" opacity="1.00" d=" M 165.39 371.29 C 167.27 367.14 169.20 363.02 171.38 359.02 C 174.43 359.48 177.53 359.64 180.59 360.01 C 185.22 362.27 191.21 358.52 195.25 362.60 C 196.69 362.15 198.17 361.84 199.69 361.89 C 195.24 365.73 192.86 371.24 190.30 376.39 C 183.31 376.30 176.55 374.35 169.58 374.24 C 167.60 374.37 166.53 372.58 165.39 371.29 Z" />
</g>
<g id="#fefef2ff">
<path fill="#fefef2" opacity="1.00" d=" M 220.57 363.99 C 227.27 364.72 233.83 366.90 240.62 366.58 C 238.78 371.06 239.40 376.23 241.93 380.31 C 241.08 380.72 240.35 381.64 239.31 381.49 C 230.48 380.63 221.80 378.46 212.90 378.23 C 215.51 373.51 219.84 369.56 220.57 363.99 Z" />
</g>
<g id="#fdfde6ff">
<path fill="#fdfde6" opacity="1.00" d=" M 160.16 386.08 C 161.51 381.02 163.45 376.15 165.39 371.29 C 166.53 372.58 167.60 374.37 169.58 374.24 C 176.55 374.35 183.31 376.30 190.30 376.39 C 188.20 381.03 186.34 385.78 184.70 390.60 C 179.57 389.57 174.40 388.49 169.14 388.49 C 165.98 388.53 162.97 387.44 160.16 386.08 Z" />
<path fill="#fdfde6" opacity="1.00" d=" M 840.44 470.23 C 874.97 457.76 913.19 455.25 948.86 464.22 C 969.60 469.41 989.51 478.43 1006.58 491.37 C 1000.54 491.41 994.61 490.06 988.64 489.38 C 980.77 489.01 972.93 488.03 965.18 486.62 C 955.31 485.65 945.52 483.95 935.62 483.36 C 931.51 482.98 927.54 481.62 923.40 481.55 C 917.14 481.48 911.03 479.87 904.78 479.62 C 898.96 479.48 893.46 477.15 887.62 477.38 C 880.84 476.25 873.89 476.51 867.21 474.76 C 859.69 474.31 852.31 472.63 844.78 472.32 C 843.12 472.19 841.82 471.01 840.44 470.23 Z" />
</g>
<g id="#fefdefff">
<path fill="#fefdef" opacity="1.00" d=" M 271.89 377.41 C 274.67 374.60 277.64 371.78 281.57 370.72 C 283.07 374.26 286.09 377.34 290.03 377.93 C 294.23 378.79 298.42 376.67 300.97 373.39 C 305.01 375.79 309.84 375.35 314.32 375.96 C 321.72 376.52 328.98 378.19 336.41 378.48 C 342.75 378.72 348.87 380.63 355.22 380.84 C 359.73 380.99 364.46 383.52 368.83 381.58 L 368.88 381.56 C 369.09 381.74 369.51 382.09 369.72 382.26 C 370.84 383.15 371.94 384.24 373.42 384.47 C 382.17 385.79 391.21 385.75 399.65 388.63 C 403.39 389.81 407.33 390.04 411.21 390.46 C 427.05 392.34 442.98 393.59 458.70 396.29 C 467.64 396.83 476.55 397.99 485.37 399.48 C 492.26 399.36 498.87 401.53 505.65 402.46 C 504.63 403.57 503.64 404.71 502.66 405.86 C 497.80 403.36 492.66 400.67 487.00 401.09 C 474.19 401.62 463.14 410.34 456.45 420.80 C 451.54 420.26 446.63 419.77 441.71 419.44 C 438.62 419.27 435.84 417.78 433.32 416.11 C 434.52 412.01 437.55 408.00 436.39 403.55 C 434.60 397.87 426.92 396.34 422.20 399.21 C 419.46 400.67 418.08 403.62 417.38 406.51 C 412.01 404.33 406.07 404.32 400.42 403.32 C 397.72 398.99 392.27 396.68 387.47 398.97 C 383.73 399.06 380.01 398.54 376.35 397.84 C 371.33 396.88 366.16 397.13 361.16 396.01 C 357.09 395.12 352.91 394.94 348.76 394.86 C 346.34 391.48 342.20 389.26 337.98 389.96 C 330.98 390.94 323.99 397.46 325.41 405.02 C 314.83 403.22 304.08 402.63 293.55 400.53 C 292.68 400.91 291.82 401.31 290.96 401.70 C 286.94 396.50 278.94 397.44 274.32 401.32 C 272.02 400.99 269.73 400.68 267.43 400.38 C 267.00 399.96 266.15 399.13 265.73 398.71 C 269.22 397.98 273.07 395.11 272.13 391.08 C 271.22 387.04 266.72 386.22 263.75 384.22 C 261.21 382.08 262.60 378.44 262.81 375.64 C 265.87 376.08 268.90 376.65 271.89 377.41 Z" />
</g>
<g id="#fcfcdeff">
<path fill="#fcfcde" opacity="1.00" d=" M 212.90 378.23 C 221.80 378.46 230.48 380.63 239.31 381.49 C 240.35 381.64 241.08 380.72 241.93 380.31 C 243.49 382.75 245.63 385.01 246.04 388.00 C 246.63 391.44 245.29 394.76 244.19 397.95 C 241.66 404.93 239.46 412.04 236.52 418.87 C 225.98 418.19 215.68 415.46 205.09 415.32 C 202.59 415.34 200.29 414.25 198.17 413.04 C 201.54 400.85 206.07 388.93 212.90 378.23 Z" />
</g>
<g id="#fcfcdcff">
<path fill="#fcfcdc" opacity="1.00" d=" M 160.00 386.02 L 160.16 386.08 C 162.97 387.44 165.98 388.53 169.14 388.49 C 174.40 388.49 179.57 389.57 184.70 390.60 C 183.30 394.77 182.04 398.99 180.91 403.24 C 172.79 401.25 164.22 402.22 156.30 399.32 C 157.41 394.85 158.65 390.42 160.00 386.02 Z" />
<path fill="#fcfcdc" opacity="1.00" d=" M 548.06 450.98 C 548.71 444.96 550.10 439.04 551.25 433.10 C 566.86 436.73 582.96 437.15 598.77 439.38 C 599.52 439.05 600.24 438.67 600.96 438.26 C 602.03 442.80 603.58 447.20 605.50 451.45 C 602.03 453.23 598.34 450.68 594.76 450.66 C 589.63 450.65 584.41 450.50 579.52 448.77 C 576.77 446.72 573.46 448.14 571.34 450.35 C 566.66 455.03 559.78 457.81 553.16 456.50 C 550.55 455.99 547.74 453.93 548.06 450.98 Z" />
</g>
<g id="#fcfce0ff">
<path fill="#fcfce0" opacity="1.00" d=" M 348.76 394.86 C 352.91 394.94 357.09 395.12 361.16 396.01 C 366.16 397.13 371.33 396.88 376.35 397.84 C 380.01 398.54 383.73 399.06 387.47 398.97 C 385.78 400.55 384.28 402.43 383.78 404.75 C 380.90 415.49 377.95 426.22 375.09 436.96 C 370.62 436.73 366.26 435.60 361.78 435.47 C 359.48 435.43 357.29 434.67 355.14 433.93 C 354.78 426.31 351.02 419.47 346.29 413.70 C 342.37 407.21 352.06 401.55 348.76 394.86 Z" />
</g>
<g id="#fcfbdaff">
<path fill="#fcfbda" opacity="1.00" d=" M 258.63 397.38 C 260.94 398.08 263.30 398.65 265.73 398.71 C 266.15 399.13 267.00 399.96 267.43 400.38 C 269.73 400.68 272.02 400.99 274.32 401.32 C 270.50 407.12 270.32 414.45 268.14 420.93 C 267.90 420.38 267.42 419.28 267.18 418.72 C 262.62 418.50 258.08 417.99 253.65 416.84 C 255.74 410.47 257.35 403.95 258.63 397.38 Z" />
</g>
<g id="#fbfac9ff">
<path fill="#fbfac9" opacity="1.00" d=" M 156.23 399.30 L 156.30 399.32 C 164.22 402.22 172.79 401.25 180.91 403.24 C 178.12 414.93 174.91 426.73 175.14 438.85 C 166.91 437.65 158.57 437.40 150.37 435.93 C 150.71 423.52 153.55 411.37 156.23 399.30 Z" />
</g>
<g id="#fcfcddff">
<path fill="#fcfcdd" opacity="1.00" d=" M 293.55 400.53 C 304.08 402.63 314.83 403.22 325.41 405.02 C 326.21 407.29 327.37 409.42 328.60 411.50 C 326.91 414.06 325.19 416.61 323.48 419.17 C 318.34 418.24 313.16 417.55 307.99 416.85 C 301.73 415.91 295.05 417.13 289.22 414.09 C 290.42 410.10 292.54 405.91 290.96 401.70 C 291.82 401.31 292.68 400.91 293.55 400.53 Z" />
</g>
<g id="#fefdedff">
<path fill="#fefded" opacity="1.00" d=" M 551.25 433.10 C 553.55 422.42 556.17 411.75 560.24 401.59 C 572.67 403.58 585.09 405.69 597.69 406.39 C 597.31 417.08 598.12 427.91 600.96 438.26 C 600.24 438.67 599.52 439.05 598.77 439.38 C 582.96 437.15 566.86 436.73 551.25 433.10 Z" />
</g>
<g id="#fdfce3ff">
<path fill="#fdfce3" opacity="1.00" d=" M 400.42 403.32 C 406.07 404.32 412.01 404.33 417.38 406.51 C 415.95 412.06 414.49 417.59 412.97 423.11 C 407.40 422.89 401.73 422.92 396.40 421.05 C 397.81 415.20 402.36 409.49 400.42 403.32 Z" />
<path fill="#fdfce3" opacity="1.00" d=" M 778.25 471.30 C 784.50 464.51 790.01 457.05 794.54 449.01 C 798.62 449.08 802.63 449.81 806.65 450.44 C 814.49 450.85 822.20 452.56 830.04 452.97 C 826.21 461.34 821.62 469.36 816.34 476.90 C 806.85 475.33 797.25 474.54 787.75 473.00 C 784.57 472.46 781.26 472.56 778.25 471.30 Z" />
</g>
<g id="#fdfdeaff">
<path fill="#fdfdea" opacity="1.00" d=" M 521.22 404.08 C 526.99 407.27 534.01 405.98 540.35 406.93 C 538.32 415.49 536.50 424.12 535.38 432.85 C 527.67 432.22 519.96 431.34 512.35 429.91 C 514.89 423.22 517.36 416.49 519.94 409.81 C 520.66 407.98 521.07 406.04 521.22 404.08 Z" />
</g>
<g id="#faf9c5ff">
<path fill="#faf9c5" opacity="1.00" d=" M 193.82 437.98 C 193.67 429.48 195.74 421.13 198.17 413.04 C 200.29 414.25 202.59 415.34 205.09 415.32 C 215.68 415.46 225.98 418.19 236.52 418.87 C 234.14 424.35 231.39 429.80 227.25 434.19 C 222.76 439.06 218.39 444.40 212.28 447.30 C 208.22 449.25 203.14 450.18 199.03 447.89 C 195.54 445.94 193.90 441.82 193.82 437.98 Z" />
</g>
<g id="#fbfbd2ff">
<path fill="#fbfbd2" opacity="1.00" d=" M 284.43 428.92 C 286.03 423.97 287.60 419.02 289.22 414.09 C 295.05 417.13 301.73 415.91 307.99 416.85 C 313.16 417.55 318.34 418.24 323.48 419.17 C 320.52 423.63 317.52 428.08 314.55 432.54 C 304.53 431.13 294.48 430.04 284.43 428.92 Z" />
</g>
<g id="#fdfce1ff">
<path fill="#fdfce1" opacity="1.00" d=" M 487.70 414.77 C 490.82 413.83 494.73 413.35 497.51 415.40 C 499.16 417.36 498.10 420.13 497.28 422.23 C 494.91 427.18 492.06 431.90 489.14 436.54 C 482.29 435.59 475.33 435.25 468.62 433.52 C 473.10 425.76 479.12 418.14 487.70 414.77 Z" />
</g>
<g id="#fcfbd4ff">
<path fill="#fcfbd4" opacity="1.00" d=" M 426.14 439.27 C 428.71 431.61 430.67 423.75 433.32 416.11 C 435.84 417.78 438.62 419.27 441.71 419.44 C 446.63 419.77 451.54 420.26 456.45 420.80 C 451.56 427.87 449.69 436.56 449.65 445.05 C 450.17 456.43 431.98 461.34 426.10 451.88 C 423.78 448.01 424.72 443.28 426.14 439.27 Z" />
</g>
<g id="#fbfacbff">
<path fill="#fbfacb" opacity="1.00" d=" M 253.65 416.84 C 258.08 417.99 262.62 418.50 267.18 418.72 C 267.42 419.28 267.90 420.38 268.14 420.93 C 266.79 426.25 265.41 431.57 264.06 436.90 C 258.14 436.15 252.16 435.65 246.40 433.98 C 249.35 428.51 251.72 422.74 253.65 416.84 Z" />
<path fill="#fbfacb" opacity="1.00" d=" M 390.66 437.04 C 395.89 438.39 401.29 438.84 406.55 440.04 C 403.95 444.49 400.96 448.73 397.58 452.61 C 395.92 454.63 392.27 456.28 390.47 453.56 C 387.16 448.60 388.62 442.20 390.66 437.04 Z" />
</g>
<g id="#fcfbd6ff">
<path fill="#fcfbd6" opacity="1.00" d=" M 396.40 421.05 C 401.73 422.92 407.40 422.89 412.97 423.11 C 411.40 428.95 409.38 434.69 406.55 440.04 C 401.29 438.84 395.89 438.39 390.66 437.04 C 392.62 431.72 394.47 426.37 396.40 421.05 Z" />
</g>
<g id="#fafac6ff">
<path fill="#fafac6" opacity="1.00" d=" M 321.31 444.20 C 325.19 438.30 329.49 432.66 333.67 426.96 C 340.46 435.15 336.21 446.99 329.84 454.05 C 324.46 456.86 318.18 449.19 321.31 444.20 Z" />
</g>
<g id="#faf9c4ff">
<path fill="#faf9c4" opacity="1.00" d=" M 278.38 447.96 C 280.20 441.56 282.46 435.28 284.43 428.92 C 294.48 430.04 304.53 431.13 314.55 432.54 C 311.03 437.70 307.72 443.02 304.07 448.09 C 298.93 453.99 290.39 455.23 282.97 454.90 C 279.48 454.90 277.15 451.17 278.38 447.96 Z" />
<path fill="#faf9c4" opacity="1.00" d=" M 579.52 448.77 C 584.41 450.50 589.63 450.65 594.76 450.66 C 598.34 450.68 602.03 453.23 605.50 451.45 C 608.46 459.54 613.61 466.53 618.46 473.56 C 624.83 482.54 633.98 488.85 642.99 494.89 C 637.95 496.63 632.74 494.99 627.69 494.32 C 622.37 493.62 617.12 492.38 611.74 492.23 C 604.39 491.86 597.17 490.15 589.79 490.11 C 588.10 487.73 586.50 485.29 584.87 482.87 C 583.64 483.69 582.41 484.52 581.17 485.33 C 574.79 483.55 568.14 483.32 561.62 482.31 C 545.33 480.71 529.16 478.17 512.90 476.31 C 506.54 476.06 500.29 474.78 493.98 474.07 C 480.49 472.99 467.15 470.54 453.67 469.36 C 449.70 469.08 445.81 467.99 442.42 465.87 C 445.25 464.22 448.04 462.50 450.98 461.05 C 455.02 463.97 458.63 468.23 463.95 468.58 C 474.01 469.65 482.48 462.37 488.12 454.82 C 491.07 458.80 493.13 463.98 498.07 465.95 C 507.10 469.81 517.57 468.05 526.31 464.22 C 529.35 463.06 531.77 460.55 534.89 459.69 C 537.92 461.81 539.98 465.57 543.99 466.01 C 552.18 467.47 561.06 467.21 568.76 463.85 C 573.92 460.50 580.04 455.61 579.52 448.77 Z" />
</g>
<g id="#fcfbd7ff">
<path fill="#fcfbd7" opacity="1.00" d=" M 506.28 446.12 C 508.23 440.69 510.35 435.32 512.35 429.91 C 519.96 431.34 527.67 432.22 535.38 432.85 C 534.71 437.02 534.97 441.39 533.44 445.38 C 530.89 451.03 524.96 454.40 519.10 455.66 C 515.16 456.38 510.48 456.54 507.24 453.79 C 505.07 451.86 505.30 448.60 506.28 446.12 Z" />
<path fill="#fcfbd7" opacity="1.00" d=" M 811.94 482.97 C 821.11 478.02 830.61 473.68 840.44 470.23 C 841.82 471.01 843.12 472.19 844.78 472.32 C 852.31 472.63 859.69 474.31 867.21 474.76 C 873.89 476.51 880.84 476.25 887.62 477.38 C 893.46 477.15 898.96 479.48 904.78 479.62 C 911.03 479.87 917.14 481.48 923.40 481.55 C 927.54 481.62 931.51 482.98 935.62 483.36 C 945.52 483.95 955.31 485.65 965.18 486.62 C 972.93 488.03 980.77 489.01 988.64 489.38 C 994.61 490.06 1000.54 491.41 1006.58 491.37 L 1006.70 491.37 C 1010.55 494.14 1014.15 497.23 1017.84 500.21 C 1024.96 507.88 1031.21 516.33 1036.98 525.06 C 1035.16 527.75 1031.99 527.01 1029.30 526.73 C 1026.32 523.22 1024.47 518.93 1021.62 515.35 C 1016.23 512.80 1010.02 514.13 1004.35 512.74 C 1000.86 511.89 997.29 511.52 993.72 511.41 C 986.15 510.45 978.60 509.20 970.96 509.01 C 937.51 491.71 897.40 489.37 861.46 499.76 C 856.74 498.00 851.67 497.94 846.74 497.25 C 838.64 496.25 830.55 495.10 822.40 494.55 C 815.75 494.08 809.27 492.31 802.64 491.72 C 797.96 491.53 793.39 490.38 788.71 490.17 C 780.46 489.60 772.35 487.76 764.09 487.32 C 763.09 487.27 762.19 486.79 761.31 486.43 C 767.42 481.94 773.00 476.77 778.25 471.30 C 781.26 472.56 784.57 472.46 787.75 473.00 C 797.25 474.54 806.85 475.33 816.34 476.90 C 814.89 478.94 813.41 480.95 811.94 482.97 Z" />
</g>
<g id="#fefef3ff">
<path fill="#fefef3" opacity="1.00" d=" M 794.54 449.01 C 797.68 443.52 800.32 437.74 802.55 431.82 C 802.76 432.49 803.16 433.81 803.37 434.47 C 807.87 434.45 812.33 435.04 816.78 435.69 C 822.84 436.71 829.06 436.70 835.05 438.17 L 835.35 438.75 C 834.32 443.71 831.90 448.28 830.04 452.97 C 822.20 452.56 814.49 450.85 806.65 450.44 C 802.63 449.81 798.62 449.08 794.54 449.01 Z" />
</g>
<g id="#faf9beff">
<path fill="#faf9be" opacity="1.00" d=" M 235.15 448.43 C 239.44 444.07 243.54 439.43 246.40 433.98 C 252.16 435.65 258.14 436.15 264.06 436.90 C 262.90 442.04 260.75 447.11 261.36 452.48 C 256.58 452.13 251.96 450.69 247.17 450.51 C 243.14 450.10 238.94 450.05 235.15 448.43 Z" />
</g>
<g id="#fafac7ff">
<path fill="#fafac7" opacity="1.00" d=" M 355.14 433.93 C 357.29 434.67 359.48 435.43 361.78 435.47 C 366.26 435.60 370.62 436.73 375.09 436.96 C 373.55 442.43 372.52 448.96 367.34 452.26 C 363.75 454.47 359.98 456.47 356.00 457.89 C 354.19 458.47 351.17 459.10 350.27 456.85 C 349.56 453.91 351.41 451.20 352.48 448.60 C 354.75 444.07 355.38 438.93 355.14 433.93 Z" />
<path fill="#fafac7" opacity="1.00" d=" M 740.03 498.80 C 747.50 495.38 754.67 491.28 761.31 486.43 C 762.19 486.79 763.09 487.27 764.09 487.32 C 772.35 487.76 780.46 489.60 788.71 490.17 C 793.39 490.38 797.96 491.53 802.64 491.72 C 809.27 492.31 815.75 494.08 822.40 494.55 C 830.55 495.10 838.64 496.25 846.74 497.25 C 851.67 497.94 856.74 498.00 861.46 499.76 C 850.84 502.85 840.55 507.02 830.73 512.11 C 826.28 509.74 821.06 510.28 816.22 509.46 C 803.47 507.68 790.65 506.43 777.93 504.47 C 766.90 503.73 755.99 501.86 744.99 500.74 C 743.16 500.67 741.52 499.78 740.03 498.80 Z" />
<path fill="#fafac7" opacity="1.00" d=" M 970.96 509.01 C 978.60 509.20 986.15 510.45 993.72 511.41 C 997.29 511.52 1000.86 511.89 1004.35 512.74 C 1010.02 514.13 1016.23 512.80 1021.62 515.35 C 1024.47 518.93 1026.32 523.22 1029.30 526.73 C 1031.99 527.01 1035.16 527.75 1036.98 525.06 C 1042.66 534.00 1047.60 543.41 1051.80 553.14 C 1049.12 553.39 1046.44 553.46 1043.76 553.41 C 1040.72 549.27 1039.52 542.51 1033.79 541.32 C 1029.45 540.45 1025.05 539.69 1020.61 539.57 C 1016.28 539.55 1012.05 537.90 1007.72 538.77 C 997.61 526.51 984.95 516.48 970.96 509.01 Z" />
</g>
<g id="#fbfbd3ff">
<path fill="#fbfbd3" opacity="1.00" d=" M 465.39 449.05 C 464.11 443.66 466.05 438.21 468.62 433.52 C 475.33 435.25 482.29 435.59 489.14 436.54 C 485.79 441.66 482.15 446.59 478.21 451.27 C 476.39 453.39 473.90 455.33 470.98 455.31 C 467.79 455.02 466.01 451.86 465.39 449.05 Z" />
</g>
<g id="#f9f8b5ff">
<path fill="#f9f8b5" opacity="1.00" d=" M 150.37 435.93 C 158.57 437.40 166.91 437.65 175.14 438.85 C 175.26 443.05 175.79 447.25 176.91 451.32 C 172.08 452.54 167.17 451.14 162.30 450.97 C 158.78 450.89 155.29 448.76 151.82 450.12 L 151.21 449.99 C 150.32 445.37 150.38 440.62 150.37 435.93 Z" />
<path fill="#f9f8b5" opacity="1.00" d=" M 1007.72 538.77 C 1012.05 537.90 1016.28 539.55 1020.61 539.57 C 1025.05 539.69 1029.45 540.45 1033.79 541.32 C 1039.52 542.51 1040.72 549.27 1043.76 553.41 C 1046.44 553.46 1049.12 553.39 1051.80 553.14 C 1054.85 560.34 1057.62 567.70 1059.52 575.30 C 1055.90 575.27 1052.24 575.98 1048.66 575.26 C 1047.96 572.80 1047.76 570.24 1047.45 567.72 C 1039.77 567.28 1032.20 564.39 1024.47 565.72 C 1020.13 556.03 1014.44 546.97 1007.72 538.77 Z" />
</g>
<g id="#f9f8b2ff">
<path fill="#f9f8b2" opacity="1.00" d=" M 214.53 466.16 C 222.40 461.52 228.88 454.98 235.15 448.43 C 238.94 450.05 243.14 450.10 247.17 450.51 C 251.96 450.69 256.58 452.13 261.36 452.48 C 262.14 459.02 266.83 465.03 273.41 466.44 C 284.23 468.73 296.43 467.47 305.58 460.87 C 310.83 465.65 317.80 468.62 324.94 468.50 C 330.54 468.49 335.76 466.30 340.99 464.57 C 345.07 466.43 349.47 468.12 354.05 467.62 C 361.16 466.99 367.43 463.27 373.09 459.18 C 375.58 460.85 376.51 464.67 379.86 465.37 C 387.27 467.32 395.59 465.27 401.70 460.73 C 404.94 458.53 406.71 454.94 409.01 451.89 C 411.10 456.09 411.57 461.42 415.73 464.28 C 423.36 469.78 434.03 469.39 442.42 465.87 C 445.81 467.99 449.70 469.08 453.67 469.36 C 467.15 470.54 480.49 472.99 493.98 474.07 C 500.29 474.78 506.54 476.06 512.90 476.31 C 529.16 478.17 545.33 480.71 561.62 482.31 C 568.14 483.32 574.79 483.55 581.17 485.33 C 572.95 491.24 562.55 491.69 552.81 491.50 C 561.62 497.49 570.03 504.11 577.66 511.57 C 567.95 511.13 558.42 508.98 548.75 508.24 C 539.34 507.09 529.89 506.34 520.54 504.75 C 513.85 504.32 507.23 502.41 500.51 503.55 C 480.01 496.48 458.13 493.44 436.48 494.85 C 432.38 491.50 426.85 492.89 422.05 491.86 C 415.16 490.59 408.13 490.28 401.29 488.75 C 393.09 487.93 384.81 487.65 376.69 486.08 C 372.84 485.28 368.87 485.60 365.02 484.83 C 360.71 483.79 356.31 483.32 351.89 483.14 C 340.50 481.48 329.03 480.31 317.62 478.74 C 310.97 478.60 304.49 477.01 297.92 476.26 C 287.48 475.55 277.16 473.66 266.76 472.63 C 262.76 472.73 258.95 471.42 255.01 470.98 C 241.43 470.19 228.06 467.51 214.53 466.16 Z" />
</g>
<g id="#f7f6a3ff">
<path fill="#f7f6a3" opacity="1.00" d=" M 151.82 450.12 C 155.29 448.76 158.78 450.89 162.30 450.97 C 167.17 451.14 172.08 452.54 176.91 451.32 C 178.89 457.80 183.09 463.82 189.28 466.86 C 197.10 470.69 207.00 470.76 214.53 466.16 C 228.06 467.51 241.43 470.19 255.01 470.98 C 258.95 471.42 262.76 472.73 266.76 472.63 C 277.16 473.66 287.48 475.55 297.92 476.26 C 304.49 477.01 310.97 478.60 317.62 478.74 C 329.03 480.31 340.50 481.48 351.89 483.14 C 356.31 483.32 360.71 483.79 365.02 484.83 C 368.87 485.60 372.84 485.28 376.69 486.08 C 384.81 487.65 393.09 487.93 401.29 488.75 C 408.13 490.28 415.16 490.59 422.05 491.86 C 426.85 492.89 432.38 491.50 436.48 494.85 C 419.09 496.11 401.90 499.80 385.49 505.68 C 371.63 503.36 357.61 502.24 343.70 500.30 C 336.97 499.24 330.08 499.18 323.48 497.37 C 325.75 495.88 328.05 494.44 330.30 492.92 C 321.63 493.93 313.00 492.26 304.94 489.08 C 295.16 491.32 285.05 493.17 274.97 491.99 C 262.98 490.49 251.03 484.87 244.06 474.69 C 235.68 482.48 226.08 489.49 214.93 492.62 C 198.83 496.76 180.50 493.24 168.00 481.98 C 159.15 473.91 152.93 462.64 151.44 450.77 L 151.82 450.12 Z" />
</g>
<g id="#f9f8b3ff">
<path fill="#f9f8b3" opacity="1.00" d=" M 589.79 490.11 C 597.17 490.15 604.39 491.86 611.74 492.23 C 617.12 492.38 622.37 493.62 627.69 494.32 C 632.74 494.99 637.95 496.63 642.99 494.89 C 647.28 497.63 652.04 499.47 656.58 501.71 C 655.91 503.25 655.51 504.99 654.27 506.22 C 650.39 510.36 645.94 513.96 642.24 518.28 C 633.16 517.06 624.01 516.38 614.95 514.98 C 611.86 514.21 607.85 515.75 605.42 513.25 C 605.89 511.93 606.43 510.65 606.96 509.37 C 600.54 503.62 594.82 497.11 589.79 490.11 Z" />
</g>
<g id="#000000ff">
<path fill="#000000" opacity="1.00" d=" M 861.46 499.76 C 897.40 489.37 937.51 491.71 970.96 509.01 C 984.95 516.48 997.61 526.51 1007.72 538.77 C 1014.44 546.97 1020.13 556.03 1024.47 565.72 C 1028.34 574.48 1031.24 583.70 1032.81 593.16 C 1034.37 602.42 1034.77 611.90 1033.73 621.24 C 1032.55 629.38 1031.24 637.50 1030.16 645.65 C 1028.52 657.06 1026.94 668.47 1025.31 679.88 C 1023.58 691.93 1021.91 703.99 1020.18 716.04 C 1019.16 723.18 1018.16 730.33 1017.15 737.48 C 1013.56 763.00 1009.84 788.49 1006.37 814.03 C 1004.98 825.79 1002.80 837.90 1005.61 849.62 C 1008.27 860.72 1017.96 868.10 1027.50 873.26 C 1033.54 876.41 1040.49 874.59 1046.97 874.88 C 1059.19 875.07 1071.86 879.53 1079.81 889.16 C 1090.39 901.74 1091.71 920.04 1086.45 935.17 C 1081.19 951.06 1068.43 964.40 1052.47 969.68 C 1040.77 973.85 1028.13 973.17 1015.98 972.00 C 984.20 968.66 952.87 954.56 931.83 930.08 C 914.30 910.01 905.28 883.44 904.53 856.98 C 903.86 842.23 906.24 827.60 907.97 813.00 C 911.95 780.65 915.93 748.30 919.92 715.95 C 920.96 707.33 922.05 698.72 923.10 690.11 C 924.12 681.67 925.19 673.23 926.22 664.78 C 927.46 653.92 929.06 643.09 930.10 632.20 C 930.77 623.00 928.97 613.21 923.10 605.86 C 916.93 597.95 906.91 593.88 897.08 593.34 C 876.35 592.10 855.60 603.72 845.48 621.80 C 841.60 628.31 839.60 635.69 839.34 643.25 C 838.63 649.10 837.93 654.96 837.19 660.82 C 836.16 668.79 835.14 676.76 834.12 684.74 C 833.13 692.31 832.17 699.88 831.19 707.45 C 827.45 735.90 823.74 764.37 819.90 792.81 C 818.05 806.19 809.79 818.23 798.45 825.42 C 783.17 835.22 763.04 837.86 746.12 830.90 C 736.00 826.78 727.71 818.48 723.68 808.32 C 719.29 797.43 719.42 785.30 721.36 773.89 C 725.20 749.42 729.01 724.95 732.84 700.48 C 733.60 695.61 734.36 690.73 735.12 685.87 C 735.93 680.70 736.74 675.54 737.55 670.38 C 738.26 665.74 738.99 661.10 739.72 656.46 C 740.40 652.04 741.10 647.63 741.79 643.22 C 744.00 630.90 744.93 618.29 748.49 606.25 C 751.62 596.09 756.25 586.45 761.68 577.32 C 767.21 568.06 773.70 559.39 780.84 551.31 C 786.52 544.95 792.65 539.00 799.15 533.47 C 808.84 525.21 819.49 518.10 830.73 512.11 C 840.55 507.02 850.84 502.85 861.46 499.76 Z" />
<path fill="#000000" opacity="1.00" d=" M 385.49 505.68 C 401.90 499.80 419.09 496.11 436.48 494.85 C 458.13 493.44 480.01 496.48 500.51 503.55 C 515.91 509.11 530.47 517.02 543.38 527.09 C 553.77 535.43 562.98 545.25 570.46 556.29 C 576.67 565.54 581.82 575.50 585.70 585.96 C 588.98 594.77 591.39 603.90 593.01 613.16 C 595.06 624.73 595.86 636.51 595.54 648.26 C 595.15 660.07 593.75 671.86 591.13 683.39 C 583.24 719.42 564.77 753.49 537.22 778.25 C 533.78 781.49 529.77 784.07 526.48 787.48 C 515.15 800.25 499.93 808.81 484.39 815.43 C 465.28 823.22 445.39 829.46 424.89 832.26 C 410.89 834.07 396.34 834.43 382.70 830.31 C 373.67 827.58 365.02 822.13 360.34 813.72 C 355.15 804.61 355.13 793.53 357.28 783.52 C 359.19 774.52 362.72 765.94 366.83 757.74 C 368.20 754.60 371.33 752.90 373.84 750.78 C 380.26 745.60 387.11 740.60 395.14 738.26 C 406.17 734.89 417.71 733.67 429.07 731.93 C 443.93 729.27 458.02 722.40 469.16 712.20 C 481.08 701.40 489.68 687.03 493.75 671.47 C 495.83 663.50 496.71 655.21 496.33 646.97 C 495.81 640.43 495.22 633.66 492.29 627.68 C 490.45 623.73 488.29 619.93 485.78 616.37 C 477.61 604.75 465.02 596.40 451.12 593.44 C 430.68 588.96 409.02 594.41 391.52 605.37 C 382.10 611.30 373.76 618.95 367.19 627.94 C 361.21 636.15 356.77 645.49 354.38 655.37 C 342.37 736.85 330.69 818.38 318.80 899.87 C 317.35 909.31 316.53 918.99 313.00 927.96 C 308.63 939.72 300.35 950.15 289.40 956.41 C 274.88 964.92 255.96 966.01 240.93 958.19 C 230.65 953.02 222.90 943.22 220.18 932.05 C 217.84 923.35 218.62 914.23 220.15 905.47 C 232.72 818.60 245.28 731.73 257.85 644.85 C 258.47 640.81 259.55 636.87 260.67 632.95 C 263.52 622.95 267.42 613.28 272.07 603.99 C 275.64 596.88 279.72 590.04 284.18 583.47 C 288.71 576.79 293.68 570.41 299.03 564.36 C 307.05 555.15 316.02 546.78 325.55 539.14 C 333.19 533.09 341.23 527.56 349.59 522.56 C 361.00 515.84 373.03 510.17 385.49 505.68 Z" />
<path fill="#000000" opacity="1.00" d=" M 656.58 501.71 C 677.56 509.86 701.11 510.96 722.80 504.98 C 727.27 511.01 730.86 517.77 732.82 525.03 C 734.91 531.61 733.41 538.46 732.45 545.08 C 731.19 554.09 729.96 563.10 728.70 572.11 C 727.24 582.43 725.85 592.76 724.38 603.08 C 722.69 615.13 721.05 627.18 719.36 639.23 C 718.67 644.11 718.00 649.00 717.32 653.89 C 716.67 658.52 716.03 663.16 715.38 667.79 C 714.66 672.95 713.95 678.11 713.24 683.27 C 712.54 688.18 711.87 693.10 711.18 698.01 C 707.37 725.40 703.55 752.79 699.76 780.18 C 698.85 788.42 696.67 796.57 692.83 803.94 C 687.60 814.17 679.02 822.67 668.63 827.61 C 654.08 834.66 636.30 835.11 621.62 828.17 C 613.26 824.23 606.07 817.59 602.10 809.18 C 598.51 801.70 597.50 793.13 598.55 784.95 C 603.48 752.22 608.39 719.48 613.30 686.74 C 615.10 674.71 616.93 662.68 618.73 650.65 C 620.39 639.51 622.09 628.37 623.75 617.23 C 625.05 608.45 626.39 599.68 627.70 590.91 C 629.11 581.36 630.58 571.82 632.01 562.27 C 633.21 554.03 634.49 545.80 635.71 537.57 C 636.63 530.80 637.09 523.39 642.24 518.28 C 645.94 513.96 650.39 510.36 654.27 506.22 C 655.51 504.99 655.91 503.25 656.58 501.71 Z" />
</g>
<g id="#f6f594ff">
<path fill="#f6f594" opacity="1.00" d=" M 323.31 497.33 L 323.48 497.37 C 330.08 499.18 336.97 499.24 343.70 500.30 C 357.61 502.24 371.63 503.36 385.49 505.68 C 373.03 510.17 361.00 515.84 349.59 522.56 C 346.01 520.93 342.01 521.44 338.22 520.85 C 331.76 519.95 325.25 519.31 318.80 518.37 C 312.31 516.78 305.30 518.29 299.16 515.12 C 306.79 508.64 314.95 502.81 323.31 497.33 Z" />
<path fill="#f6f594" opacity="1.00" d=" M 732.45 545.08 C 735.90 545.76 739.36 546.51 742.89 546.64 C 750.44 547.06 757.82 548.96 765.37 549.33 C 770.58 549.50 775.67 550.70 780.84 551.31 C 773.70 559.39 767.21 568.06 761.68 577.32 C 759.20 576.27 756.59 575.55 753.90 575.41 C 745.44 574.73 737.13 572.94 728.70 572.11 C 729.96 563.10 731.19 554.09 732.45 545.08 Z" />
</g>
<g id="#f9f8b7ff">
<path fill="#f9f8b7" opacity="1.00" d=" M 722.80 504.98 C 728.76 503.57 734.41 501.17 740.03 498.80 C 741.52 499.78 743.16 500.67 744.99 500.74 C 755.99 501.86 766.90 503.73 777.93 504.47 C 790.65 506.43 803.47 507.68 816.22 509.46 C 821.06 510.28 826.28 509.74 830.73 512.11 C 819.49 518.10 808.84 525.21 799.15 533.47 C 792.52 533.08 786.03 531.52 779.38 531.41 C 774.07 531.10 768.88 529.91 763.60 529.42 C 758.25 529.01 753.10 527.07 747.69 527.42 C 742.72 526.76 737.59 526.68 732.82 525.03 C 730.86 517.77 727.27 511.01 722.80 504.98 Z" />
</g>
<g id="#f7f6a2ff">
<path fill="#f7f6a2" opacity="1.00" d=" M 500.51 503.55 C 507.23 502.41 513.85 504.32 520.54 504.75 C 529.89 506.34 539.34 507.09 548.75 508.24 C 558.42 508.98 567.95 511.13 577.66 511.57 C 583.89 517.64 589.62 524.21 594.81 531.20 C 590.27 532.41 585.63 531.29 581.09 530.77 C 573.29 529.44 565.37 529.11 557.56 527.91 C 552.86 527.31 548.10 525.77 543.38 527.09 C 530.47 517.02 515.91 509.11 500.51 503.55 Z" />
<path fill="#f7f6a2" opacity="1.00" d=" M 601.32 532.99 C 602.40 526.36 602.94 519.55 605.42 513.25 C 607.85 515.75 611.86 514.21 614.95 514.98 C 624.01 516.38 633.16 517.06 642.24 518.28 C 637.09 523.39 636.63 530.80 635.71 537.57 C 624.33 535.41 612.72 535.01 601.32 532.99 Z" />
</g>
<g id="#f5f384ff">
<path fill="#f5f384" opacity="1.00" d=" M 279.60 533.29 C 285.83 526.94 292.22 520.70 299.16 515.12 C 305.30 518.29 312.31 516.78 318.80 518.37 C 325.25 519.31 331.76 519.95 338.22 520.85 C 342.01 521.44 346.01 520.93 349.59 522.56 C 341.23 527.56 333.19 533.09 325.55 539.14 C 310.28 536.85 294.85 535.72 279.60 533.29 Z" />
</g>
<g id="#f8f6a5ff">
<path fill="#f8f6a5" opacity="1.00" d=" M 732.82 525.03 C 737.59 526.68 742.72 526.76 747.69 527.42 C 753.10 527.07 758.25 529.01 763.60 529.42 C 768.88 529.91 774.07 531.10 779.38 531.41 C 786.03 531.52 792.52 533.08 799.15 533.47 C 792.65 539.00 786.52 544.95 780.84 551.31 C 775.67 550.70 770.58 549.50 765.37 549.33 C 757.82 548.96 750.44 547.06 742.89 546.64 C 739.36 546.51 735.90 545.76 732.45 545.08 C 733.41 538.46 734.91 531.61 732.82 525.03 Z" />
</g>
<g id="#f6f591ff">
<path fill="#f6f591" opacity="1.00" d=" M 543.38 527.09 C 548.10 525.77 552.86 527.31 557.56 527.91 C 565.37 529.11 573.29 529.44 581.09 530.77 C 585.63 531.29 590.27 532.41 594.81 531.20 C 596.74 533.78 598.55 536.45 600.40 539.10 C 600.70 537.06 601.00 535.02 601.32 532.99 C 612.72 535.01 624.33 535.41 635.71 537.57 C 634.49 545.80 633.21 554.03 632.01 562.27 C 624.64 563.63 617.43 560.71 610.09 560.49 C 604.57 560.59 599.33 558.54 593.84 558.34 C 586.04 557.71 578.31 556.02 570.46 556.29 C 562.98 545.25 553.77 535.43 543.38 527.09 Z" />
</g>
<g id="#f3f272ff">
<path fill="#f3f272" opacity="1.00" d=" M 279.60 533.29 C 294.85 535.72 310.28 536.85 325.55 539.14 C 316.02 546.78 307.05 555.15 299.03 564.36 C 295.86 564.35 292.71 563.95 289.59 563.41 C 279.25 561.49 268.61 561.66 258.33 559.31 C 264.60 550.00 271.93 541.46 279.60 533.29 Z" />
</g>
<g id="#f4f37dff">
<path fill="#f4f37d" opacity="1.00" d=" M 570.46 556.29 C 578.31 556.02 586.04 557.71 593.84 558.34 C 599.33 558.54 604.57 560.59 610.09 560.49 C 617.43 560.71 624.64 563.63 632.01 562.27 C 630.58 571.82 629.11 581.36 627.70 590.91 C 622.06 588.70 615.92 589.26 610.04 588.31 C 604.49 587.37 598.87 586.88 593.35 585.76 C 590.81 585.23 588.22 585.56 585.70 585.96 C 581.82 575.50 576.67 565.54 570.46 556.29 Z" />
<path fill="#f4f37d" opacity="1.00" d=" M 728.70 572.11 C 737.13 572.94 745.44 574.73 753.90 575.41 C 756.59 575.55 759.20 576.27 761.68 577.32 C 756.25 586.45 751.62 596.09 748.49 606.25 C 740.41 605.65 732.35 604.56 724.38 603.08 C 725.85 592.76 727.24 582.43 728.70 572.11 Z" />
</g>
<g id="#f2f05fff">
<path fill="#f2f05f" opacity="1.00" d=" M 258.14 559.27 L 258.33 559.31 C 268.61 561.66 279.25 561.49 289.59 563.41 C 292.71 563.95 295.86 564.35 299.03 564.36 C 293.68 570.41 288.71 576.79 284.18 583.47 C 273.44 583.30 262.96 580.30 252.22 580.40 C 250.05 580.28 248.19 579.02 246.28 578.14 C 249.91 571.64 253.96 565.40 258.14 559.27 Z" />
<path fill="#f2f05f" opacity="1.00" d=" M 1025.31 679.88 C 1026.94 668.47 1028.52 657.06 1030.16 645.65 C 1034.86 646.82 1039.75 646.78 1044.50 647.77 C 1045.09 654.72 1044.61 661.70 1045.17 668.65 C 1050.75 668.32 1056.34 668.68 1061.93 668.28 C 1060.29 679.61 1058.66 690.93 1057.11 702.27 C 1052.65 703.84 1047.89 702.84 1043.32 702.60 C 1043.12 695.65 1043.05 688.70 1042.77 681.75 C 1037.07 680.16 1031.13 680.46 1025.31 679.88 Z" />
</g>
<g id="#f8f6a4ff">
<path fill="#f8f6a4" opacity="1.00" d=" M 1024.47 565.72 C 1032.20 564.39 1039.77 567.28 1047.45 567.72 C 1047.76 570.24 1047.96 572.80 1048.66 575.26 C 1052.24 575.98 1055.90 575.27 1059.52 575.30 L 1059.80 575.29 C 1062.30 584.66 1064.28 594.18 1065.56 603.80 C 1059.51 603.99 1053.50 603.18 1047.46 603.36 C 1047.19 600.60 1046.96 597.84 1046.76 595.09 C 1042.15 594.04 1037.34 594.62 1032.81 593.16 C 1031.24 583.70 1028.34 574.48 1024.47 565.72 Z" />
</g>
<g id="#f1ee4fff">
<path fill="#f1ee4f" opacity="1.00" d=" M 236.28 598.32 C 239.20 591.39 242.53 584.64 246.28 578.14 C 248.19 579.02 250.05 580.28 252.22 580.40 C 262.96 580.30 273.44 583.30 284.18 583.47 C 279.72 590.04 275.64 596.88 272.07 603.99 C 265.89 602.21 259.40 602.24 253.12 600.98 C 247.44 600.53 241.77 599.94 236.28 598.32 Z" />
<path fill="#f1ee4f" opacity="1.00" d=" M 719.36 639.23 C 726.66 641.60 734.80 639.74 741.79 643.22 C 741.10 647.63 740.40 652.04 739.72 656.46 C 732.19 656.09 724.84 654.29 717.32 653.89 C 718.00 649.00 718.67 644.11 719.36 639.23 Z" />
</g>
<g id="#f3f168ff">
<path fill="#f3f168" opacity="1.00" d=" M 585.70 585.96 C 588.22 585.56 590.81 585.23 593.35 585.76 C 598.87 586.88 604.49 587.37 610.04 588.31 C 615.92 589.26 622.06 588.70 627.70 590.91 C 626.39 599.68 625.05 608.45 623.75 617.23 C 619.81 616.77 615.84 616.69 611.93 616.03 C 605.65 614.80 599.08 615.46 593.01 613.16 C 591.39 603.90 588.98 594.77 585.70 585.96 Z" />
</g>
<g id="#f1ef56ff">
<path fill="#f1ef56" opacity="1.00" d=" M 391.52 605.37 C 409.02 594.41 430.68 588.96 451.12 593.44 C 465.02 596.40 477.61 604.75 485.78 616.37 C 484.88 616.77 484.07 617.58 483.02 617.46 C 476.04 616.98 469.19 615.46 462.27 614.57 C 455.85 614.65 449.57 613.26 443.22 612.53 C 433.75 611.58 424.34 610.08 414.85 609.23 C 407.16 607.35 399.04 608.08 391.52 605.37 Z" />
</g>
<g id="#f4f278ff">
<path fill="#f4f278" opacity="1.00" d=" M 845.48 621.80 C 855.60 603.72 876.35 592.10 897.08 593.34 C 906.91 593.88 916.93 597.95 923.10 605.86 C 928.97 613.21 930.77 623.00 930.10 632.20 C 918.61 631.50 907.30 629.26 895.85 628.25 C 893.89 628.04 891.92 628.20 889.98 628.16 C 880.48 626.37 870.92 624.55 861.24 624.25 C 855.95 623.69 850.75 622.51 845.48 621.80 Z" />
</g>
<g id="#f6f491ff">
<path fill="#f6f491" opacity="1.00" d=" M 1032.81 593.16 C 1037.34 594.62 1042.15 594.04 1046.76 595.09 C 1046.96 597.84 1047.19 600.60 1047.46 603.36 C 1053.50 603.18 1059.51 603.99 1065.56 603.80 C 1066.65 612.27 1066.94 620.81 1067.10 629.34 C 1064.96 630.39 1062.60 630.86 1060.23 630.63 C 1055.57 630.22 1050.86 631.01 1046.24 630.14 C 1046.10 627.61 1045.93 625.09 1045.76 622.58 C 1041.79 621.80 1037.77 621.36 1033.73 621.24 C 1034.77 611.90 1034.37 602.42 1032.81 593.16 Z" />
</g>
<g id="#efec3bff">
<path fill="#efec3b" opacity="1.00" d=" M 236.20 598.30 L 236.28 598.32 C 241.77 599.94 247.44 600.53 253.12 600.98 C 259.40 602.24 265.89 602.21 272.07 603.99 C 267.42 613.28 263.52 622.95 260.67 632.95 C 256.48 630.92 251.67 631.12 247.15 630.54 C 240.11 630.18 233.08 629.17 226.27 627.33 C 228.73 617.39 232.26 607.74 236.20 598.30 Z" />
</g>
<g id="#f2f063ff">
<path fill="#f2f063" opacity="1.00" d=" M 724.38 603.08 C 732.35 604.56 740.41 605.65 748.49 606.25 C 744.93 618.29 744.00 630.90 741.79 643.22 C 734.80 639.74 726.66 641.60 719.36 639.23 C 721.05 627.18 722.69 615.13 724.38 603.08 Z" />
</g>
<g id="#f0ed46ff">
<path fill="#f0ed46" opacity="1.00" d=" M 367.19 627.94 C 373.76 618.95 382.10 611.30 391.52 605.37 C 399.04 608.08 407.16 607.35 414.85 609.23 C 424.34 610.08 433.75 611.58 443.22 612.53 C 449.57 613.26 455.85 614.65 462.27 614.57 C 469.19 615.46 476.04 616.98 483.02 617.46 C 484.07 617.58 484.88 616.77 485.78 616.37 C 488.29 619.93 490.45 623.73 492.29 627.68 C 495.22 633.66 495.81 640.43 496.33 646.97 C 488.55 644.56 480.34 645.09 472.42 643.59 C 468.50 643.07 464.59 642.55 460.67 642.10 C 458.15 636.13 453.74 630.65 447.46 628.47 C 435.79 624.23 422.75 627.48 412.31 633.49 C 407.83 634.26 403.47 632.28 399.00 632.98 C 397.70 633.25 396.58 632.49 395.55 631.84 C 386.05 631.00 376.54 629.79 367.19 627.94 Z" />
</g>
<g id="#f1ee50ff">
<path fill="#f1ee50" opacity="1.00" d=" M 593.01 613.16 C 599.08 615.46 605.65 614.80 611.93 616.03 C 615.84 616.69 619.81 616.77 623.75 617.23 C 622.09 628.37 620.39 639.51 618.73 650.65 C 610.95 650.43 603.22 649.40 595.54 648.26 C 595.86 636.51 595.06 624.73 593.01 613.16 Z" />
</g>
<g id="#f4f27aff">
<path fill="#f4f27a" opacity="1.00" d=" M 1033.73 621.24 C 1037.77 621.36 1041.79 621.80 1045.76 622.58 C 1045.93 625.09 1046.10 627.61 1046.24 630.14 C 1050.86 631.01 1055.57 630.22 1060.23 630.63 C 1062.60 630.86 1064.96 630.39 1067.10 629.34 C 1065.94 642.38 1063.51 655.28 1061.93 668.28 C 1056.34 668.68 1050.75 668.32 1045.17 668.65 C 1044.61 661.70 1045.09 654.72 1044.50 647.77 C 1039.75 646.78 1034.86 646.82 1030.16 645.65 C 1031.24 637.50 1032.55 629.38 1033.73 621.24 Z" />
</g>
<g id="#f2f065ff">
<path fill="#f2f065" opacity="1.00" d=" M 839.34 643.25 C 839.60 635.69 841.60 628.31 845.48 621.80 C 850.75 622.51 855.95 623.69 861.24 624.25 C 870.92 624.55 880.48 626.37 889.98 628.16 C 881.48 630.99 873.37 638.20 873.71 647.83 C 862.28 646.10 850.58 646.07 839.34 643.25 Z" />
</g>
<g id="#edea22ff">
<path fill="#edea22" opacity="1.00" d=" M 226.16 627.30 L 226.27 627.33 C 233.08 629.17 240.11 630.18 247.15 630.54 C 251.67 631.12 256.48 630.92 260.67 632.95 C 259.55 636.87 258.47 640.81 257.85 644.85 C 245.28 731.73 232.72 818.60 220.15 905.47 C 218.62 914.23 217.84 923.35 220.18 932.05 C 222.90 943.22 230.65 953.02 240.93 958.19 C 255.96 966.01 274.88 964.92 289.40 956.41 C 300.35 950.15 308.63 939.72 313.00 927.96 C 316.53 918.99 317.35 909.31 318.80 899.87 C 330.69 818.38 342.37 736.85 354.38 655.37 C 359.53 655.78 364.57 657.03 369.73 657.41 C 376.26 657.93 382.67 659.48 389.23 659.70 C 387.84 663.94 387.47 668.41 386.82 672.80 C 385.20 683.93 383.57 695.06 381.98 706.19 C 391.66 702.40 402.01 700.98 412.21 699.29 C 418.66 698.33 425.29 697.95 431.40 695.49 C 444.53 690.69 454.85 679.43 459.17 666.21 C 463.79 668.69 469.15 668.09 474.17 668.77 C 480.70 669.66 487.30 670.06 493.75 671.47 C 489.68 687.03 481.08 701.40 469.16 712.20 C 458.02 722.40 443.93 729.27 429.07 731.93 C 417.71 733.67 406.17 734.89 395.14 738.26 C 387.11 740.60 380.26 745.60 373.84 750.78 C 371.33 752.90 368.20 754.60 366.83 757.74 C 362.72 765.94 359.19 774.52 357.28 783.52 C 355.13 793.53 355.15 804.61 360.34 813.72 C 365.02 822.13 373.67 827.58 382.70 830.31 C 396.34 834.43 410.89 834.07 424.89 832.26 C 445.39 829.46 465.28 823.22 484.39 815.43 C 499.93 808.81 515.15 800.25 526.48 787.48 C 529.77 784.07 533.78 781.49 537.22 778.25 C 564.77 753.49 583.24 719.42 591.13 683.39 C 592.42 683.98 593.76 684.50 595.19 684.64 C 601.24 685.26 607.22 686.48 613.30 686.74 C 608.39 719.48 603.48 752.22 598.55 784.95 C 597.50 793.13 598.51 801.70 602.10 809.18 C 606.07 817.59 613.26 824.23 621.62 828.17 C 636.30 835.11 654.08 834.66 668.63 827.61 C 679.02 822.67 687.60 814.17 692.83 803.94 C 696.67 796.57 698.85 788.42 699.76 780.18 C 703.55 752.79 707.37 725.40 711.18 698.01 C 718.40 698.85 725.65 699.40 732.84 700.48 C 729.01 724.95 725.20 749.42 721.36 773.89 C 719.42 785.30 719.29 797.43 723.68 808.32 C 727.71 818.48 736.00 826.78 746.12 830.90 C 763.04 837.86 783.17 835.22 798.45 825.42 C 809.79 818.23 818.05 806.19 819.90 792.81 C 823.74 764.37 827.45 735.90 831.19 707.45 C 840.96 707.49 850.55 709.76 860.27 710.50 C 862.10 710.64 863.86 711.14 865.63 711.63 C 861.98 739.45 858.28 767.25 854.63 795.07 C 853.25 806.51 849.65 817.74 843.66 827.61 C 832.73 845.85 814.39 858.99 794.21 865.19 C 768.78 873.26 739.40 870.09 717.51 854.36 C 712.88 851.17 708.92 847.17 704.97 843.21 C 699.31 847.45 693.88 852.21 687.56 855.58 C 670.59 865.33 650.40 869.86 630.95 866.85 C 612.79 864.22 595.32 855.69 582.91 842.04 C 572.38 830.67 566.32 815.71 564.27 800.46 C 560.99 803.10 558.00 806.06 554.69 808.66 C 549.81 812.41 546.04 817.35 541.28 821.24 C 519.70 840.30 492.18 850.50 465.18 859.25 C 444.44 865.66 422.76 870.13 400.96 868.94 C 386.74 868.21 372.67 864.73 359.86 858.50 C 356.96 878.30 354.13 898.11 351.21 917.91 C 348.92 933.57 342.81 948.69 333.31 961.37 C 321.39 977.39 304.23 989.53 284.99 995.01 C 256.29 1003.44 222.85 994.66 203.06 971.94 C 188.12 954.76 181.88 930.89 184.68 908.47 C 196.13 829.30 207.58 750.13 219.04 670.97 C 221.44 656.42 222.54 641.62 226.16 627.30 Z" />
<path fill="#edea22" opacity="1.00" d=" M 885.58 711.03 C 897.00 712.87 908.54 713.84 919.92 715.95 C 915.93 748.30 911.95 780.65 907.97 813.00 C 906.24 827.60 903.86 842.23 904.53 856.98 C 905.28 883.44 914.30 910.01 931.83 930.08 C 952.87 954.56 984.20 968.66 1015.98 972.00 C 1028.13 973.17 1040.77 973.85 1052.47 969.68 C 1068.43 964.40 1081.19 951.06 1086.45 935.17 C 1091.71 920.04 1090.39 901.74 1079.81 889.16 C 1071.86 879.53 1059.19 875.07 1046.97 874.88 C 1040.49 874.59 1033.54 876.41 1027.50 873.26 C 1017.96 868.10 1008.27 860.72 1005.61 849.62 C 1002.80 837.90 1004.98 825.79 1006.37 814.03 C 1009.84 788.49 1013.56 763.00 1017.15 737.48 C 1024.93 738.93 1032.87 739.20 1040.67 740.49 C 1041.22 751.06 1040.71 761.65 1040.98 772.24 C 1043.02 771.65 1045.14 771.54 1047.25 771.68 C 1044.33 794.55 1040.27 817.33 1039.04 840.38 C 1057.25 839.58 1075.99 843.58 1091.37 853.62 C 1104.57 862.10 1114.46 875.30 1119.60 890.07 C 1125.73 907.70 1125.62 927.38 1119.53 945.00 C 1113.14 963.66 1100.65 980.17 1084.44 991.41 C 1070.29 1001.31 1053.24 1006.92 1035.99 1007.49 C 998.90 1008.30 961.15 997.98 931.00 976.04 C 907.53 959.28 889.51 935.20 879.76 908.08 C 870.87 883.85 868.20 857.56 870.81 831.95 C 875.51 791.61 880.70 751.34 885.58 711.03 Z" />
</g>
<g id="#eeec32ff">
<path fill="#eeec32" opacity="1.00" d=" M 354.38 655.37 C 356.77 645.49 361.21 636.15 367.19 627.94 C 376.54 629.79 386.05 631.00 395.55 631.84 C 396.58 632.49 397.70 633.25 399.00 632.98 C 403.47 632.28 407.83 634.26 412.31 633.49 C 402.17 639.53 393.49 648.55 389.23 659.70 C 382.67 659.48 376.26 657.93 369.73 657.41 C 364.57 657.03 359.53 655.78 354.38 655.37 Z" />
</g>
<g id="#f2f061ff">
<path fill="#f2f061" opacity="1.00" d=" M 895.85 628.25 C 907.30 629.26 918.61 631.50 930.10 632.20 C 929.06 643.09 927.46 653.92 926.22 664.78 C 914.72 663.53 903.31 661.22 891.75 660.74 C 893.24 649.92 894.27 639.05 895.85 628.25 Z" />
</g>
<g id="#eeeb31ff">
<path fill="#eeeb31" opacity="1.00" d=" M 460.67 642.10 C 464.59 642.55 468.50 643.07 472.42 643.59 C 480.34 645.09 488.55 644.56 496.33 646.97 C 496.71 655.21 495.83 663.50 493.75 671.47 C 487.30 670.06 480.70 669.66 474.17 668.77 C 469.15 668.09 463.79 668.69 459.17 666.21 C 461.70 658.47 462.26 650.09 460.67 642.10 Z" />
</g>
<g id="#f1ef55ff">
<path fill="#f1ef55" opacity="1.00" d=" M 839.34 643.25 C 850.58 646.07 862.28 646.10 873.71 647.83 C 872.94 654.49 872.09 661.14 871.29 667.79 C 866.71 665.63 861.55 666.78 856.75 665.67 C 850.81 664.43 844.70 664.57 838.80 663.20 C 838.40 662.60 837.60 661.41 837.19 660.82 C 837.93 654.96 838.63 649.10 839.34 643.25 Z" />
</g>
<g id="#efec35ff">
<path fill="#efec35" opacity="1.00" d=" M 595.54 648.26 C 603.22 649.40 610.95 650.43 618.73 650.65 C 616.93 662.68 615.10 674.71 613.30 686.74 C 607.22 686.48 601.24 685.26 595.19 684.64 C 593.76 684.50 592.42 683.98 591.13 683.39 C 593.75 671.86 595.15 660.07 595.54 648.26 Z" />
</g>
<g id="#f0ed44ff">
<path fill="#f0ed44" opacity="1.00" d=" M 717.32 653.89 C 724.84 654.29 732.19 656.09 739.72 656.46 C 738.99 661.10 738.26 665.74 737.55 670.38 C 730.08 670.35 722.75 668.77 715.38 667.79 C 716.03 663.16 716.67 658.52 717.32 653.89 Z" />
<path fill="#f0ed44" opacity="1.00" d=" M 1025.31 679.88 C 1031.13 680.46 1037.07 680.16 1042.77 681.75 C 1043.05 688.70 1043.12 695.65 1043.32 702.60 C 1047.89 702.84 1052.65 703.84 1057.11 702.27 C 1055.13 716.92 1052.84 731.53 1050.97 746.19 C 1048.44 747.85 1045.44 748.05 1042.52 747.65 C 1041.94 738.27 1042.16 728.88 1041.78 719.50 C 1036.71 719.61 1031.80 718.25 1026.80 717.69 C 1024.52 717.44 1022.33 716.76 1020.18 716.04 C 1021.91 703.99 1023.58 691.93 1025.31 679.88 Z" />
</g>
<g id="#f0ee4bff">
<path fill="#f0ee4b" opacity="1.00" d=" M 891.75 660.74 C 903.31 661.22 914.72 663.53 926.22 664.78 C 925.19 673.23 924.12 681.67 923.10 690.11 C 913.96 690.10 904.97 688.31 895.92 687.36 C 893.46 687.12 891.04 686.66 888.65 686.11 C 889.70 677.66 890.73 669.20 891.75 660.74 Z" />
</g>
<g id="#f0ed45ff">
<path fill="#f0ed45" opacity="1.00" d=" M 834.12 684.74 C 835.14 676.76 836.16 668.79 837.19 660.82 C 837.60 661.41 838.40 662.60 838.80 663.20 C 844.70 664.57 850.81 664.43 856.75 665.67 C 861.55 666.78 866.71 665.63 871.29 667.79 C 870.33 674.98 869.41 682.17 868.49 689.36 C 862.99 688.39 857.41 687.98 851.89 687.15 C 845.99 686.13 839.95 686.18 834.12 684.74 Z" />
</g>
<g id="#efec39ff">
<path fill="#efec39" opacity="1.00" d=" M 715.38 667.79 C 722.75 668.77 730.08 670.35 737.55 670.38 C 736.74 675.54 735.93 680.70 735.12 685.87 C 727.77 685.55 720.53 684.17 713.24 683.27 C 713.95 678.11 714.66 672.95 715.38 667.79 Z" />
</g>
<g id="#eeeb2dff">
<path fill="#eeeb2d" opacity="1.00" d=" M 713.24 683.27 C 720.53 684.17 727.77 685.55 735.12 685.87 C 734.36 690.73 733.60 695.61 732.84 700.48 C 725.65 699.40 718.40 698.85 711.18 698.01 C 711.87 693.10 712.54 688.18 713.24 683.27 Z" />
</g>
<g id="#eeec34ff">
<path fill="#eeec34" opacity="1.00" d=" M 831.19 707.45 C 832.17 699.88 833.13 692.31 834.12 684.74 C 839.95 686.18 845.99 686.13 851.89 687.15 C 857.41 687.98 862.99 688.39 868.49 689.36 C 867.54 696.79 866.56 704.21 865.63 711.63 C 863.86 711.14 862.10 710.64 860.27 710.50 C 850.55 709.76 840.96 707.49 831.19 707.45 Z" />
</g>
<g id="#efec37ff">
<path fill="#efec37" opacity="1.00" d=" M 888.65 686.11 C 891.04 686.66 893.46 687.12 895.92 687.36 C 904.97 688.31 913.96 690.10 923.10 690.11 C 922.05 698.72 920.96 707.33 919.92 715.95 C 908.54 713.84 897.00 712.87 885.58 711.03 C 886.63 702.72 887.61 694.42 888.65 686.11 Z" />
</g>
<g id="#eeeb2eff">
<path fill="#eeeb2e" opacity="1.00" d=" M 1017.15 737.48 C 1018.16 730.33 1019.16 723.18 1020.18 716.04 C 1022.33 716.76 1024.52 717.44 1026.80 717.69 C 1031.80 718.25 1036.71 719.61 1041.78 719.50 C 1042.16 728.88 1041.94 738.27 1042.52 747.65 C 1045.44 748.05 1048.44 747.85 1050.97 746.19 C 1049.56 754.66 1048.65 763.21 1047.25 771.68 C 1045.14 771.54 1043.02 771.65 1040.98 772.24 C 1040.71 761.65 1041.22 751.06 1040.67 740.49 C 1032.87 739.20 1024.93 738.93 1017.15 737.48 Z" />
</g>
</svg>
