<?xml version="1.0" encoding="UTF-8" ?>
<!DOCTYPE svg PUBLIC "-//W3C//DTD SVG 1.1//EN" "http://www.w3.org/Graphics/SVG/1.1/DTD/svg11.dtd">
<svg width="1276pt" height="1276pt" viewBox="0 0 1276 1276" version="1.1" xmlns="http://www.w3.org/2000/svg">
<g id="#e7e047ff">
<path fill="#e7e047" opacity="1.00" d=" M 226.47 195.82 L 226.40 194.61 C 228.17 194.52 229.93 194.44 231.70 194.37 L 231.15 193.40 C 237.07 193.17 243.00 193.21 248.93 193.37 L 248.26 194.32 C 257.72 194.18 267.18 194.78 276.64 194.58 L 276.39 195.44 C 289.13 195.37 301.80 196.86 314.55 196.65 L 314.26 197.49 C 316.06 197.46 317.86 197.45 319.67 197.48 C 319.75 197.01 319.92 196.06 320.00 195.59 L 320.31 197.58 C 322.77 197.63 325.27 197.31 327.70 197.79 C 332.05 200.27 337.21 199.25 341.98 199.69 C 349.97 199.70 357.92 200.61 365.90 200.53 C 372.95 200.30 380.01 200.85 387.07 200.86 C 391.58 203.29 396.89 202.53 401.80 202.39 C 407.44 202.21 413.09 202.54 418.73 202.38 L 418.97 204.33 C 419.06 203.85 419.26 202.88 419.35 202.40 C 421.49 202.47 423.62 202.49 425.77 202.49 L 425.37 203.38 C 434.41 203.26 443.46 203.89 452.51 203.70 L 452.49 204.33 C 456.15 204.50 459.81 204.53 463.47 204.63 L 463.47 205.34 C 472.84 205.14 482.20 205.77 491.57 205.65 L 491.25 206.60 C 501.72 206.15 512.10 207.84 522.58 207.60 L 522.39 208.38 C 529.82 208.18 537.24 208.67 544.68 208.56 L 544.21 209.46 C 555.51 209.13 566.75 210.42 578.04 210.58 C 588.49 211.98 599.11 211.46 609.64 211.68 L 609.15 212.60 C 614.11 212.55 619.06 212.71 624.01 212.93 L 624.50 213.16 C 626.74 214.51 629.42 214.37 631.95 214.48 C 643.96 214.85 655.98 215.09 667.95 216.29 C 681.08 215.81 694.12 218.65 707.25 217.64 C 711.70 217.39 716.17 217.80 720.63 217.60 L 720.42 218.38 C 730.91 218.23 741.32 219.75 751.81 219.42 L 751.32 220.36 C 760.73 220.21 770.14 220.85 779.55 220.64 L 779.53 221.39 C 784.98 221.63 790.49 221.27 795.88 222.20 C 801.19 222.36 806.51 222.54 811.83 222.50 L 811.22 223.39 C 819.31 223.24 827.39 223.82 835.48 223.67 L 835.56 224.68 C 836.18 224.28 837.42 223.48 838.04 223.08 C 839.31 225.45 842.75 224.06 844.98 224.53 C 855.55 225.83 866.25 225.31 876.89 225.75 L 875.80 226.50 C 880.98 226.78 886.17 226.70 891.34 227.22 C 896.40 229.16 901.93 229.18 907.23 228.35 C 911.77 228.42 916.31 228.51 920.86 228.53 C 928.15 230.04 935.66 229.71 943.07 230.13 C 950.25 229.93 956.98 232.94 963.17 236.28 C 963.83 236.78 964.45 237.33 965.03 237.95 C 965.47 238.33 966.35 239.11 966.79 239.50 L 967.74 239.48 C 967.69 239.95 967.59 240.89 967.54 241.36 C 968.02 241.44 968.98 241.60 969.46 241.68 C 969.43 242.13 969.38 243.03 969.36 243.48 L 970.70 243.52 C 970.70 243.92 970.71 244.70 970.71 245.09 C 972.53 245.34 972.43 247.15 972.77 248.54 L 973.53 248.43 C 973.90 249.74 974.31 251.04 974.69 252.36 L 975.54 252.38 C 975.52 253.21 975.49 254.88 975.48 255.71 L 976.40 255.37 C 976.71 259.11 976.87 262.87 976.81 266.63 C 980.75 266.69 984.68 266.38 988.63 266.32 L 988.21 265.45 C 992.39 265.53 996.57 265.53 1000.75 265.45 L 1000.36 266.29 C 1003.12 266.40 1005.86 266.88 1008.55 267.56 L 1008.50 268.38 C 1009.30 268.41 1010.89 268.47 1011.68 268.50 L 1011.47 269.36 C 1013.19 269.59 1014.77 270.26 1015.99 271.55 C 1016.35 271.47 1017.06 271.33 1017.42 271.26 L 1017.49 272.26 C 1018.66 272.58 1019.50 273.30 1019.99 274.42 C 1020.36 274.38 1021.09 274.29 1021.46 274.24 L 1021.65 275.15 C 1022.80 276.02 1023.88 276.97 1024.96 277.95 C 1026.45 279.62 1028.00 281.24 1029.59 282.83 L 1029.29 283.71 L 1030.67 283.52 C 1030.64 283.99 1030.57 284.93 1030.53 285.40 C 1031.00 285.45 1031.93 285.57 1032.40 285.63 C 1032.39 286.01 1032.38 286.78 1032.38 287.17 C 1032.72 287.68 1033.41 288.70 1033.75 289.22 C 1034.32 290.13 1034.92 291.03 1035.56 291.92 C 1035.48 292.31 1035.33 293.08 1035.25 293.47 L 1036.34 293.43 C 1036.75 295.12 1037.24 296.79 1037.68 298.49 L 1038.47 298.43 C 1038.47 299.84 1038.47 301.26 1038.49 302.68 C 1038.73 302.58 1039.21 302.38 1039.45 302.29 C 1039.54 304.56 1039.69 306.84 1039.93 309.11 C 1040.58 312.84 1040.59 316.65 1040.76 320.42 C 1040.94 320.41 1041.30 320.38 1041.48 320.36 C 1041.46 323.46 1041.59 326.56 1041.59 329.67 L 1042.41 329.37 C 1042.28 335.83 1043.76 342.18 1043.58 348.65 L 1044.42 348.28 C 1044.41 351.42 1044.55 354.56 1044.57 357.70 L 1045.26 357.48 C 1045.24 364.61 1046.77 371.65 1046.57 378.79 L 1047.44 378.26 C 1047.26 390.00 1050.55 401.59 1049.29 413.36 C 1049.62 410.92 1049.76 408.42 1050.18 406.01 C 1050.47 410.50 1050.71 415.01 1050.67 419.52 L 1051.34 419.53 C 1051.44 422.18 1051.61 424.83 1051.70 427.48 L 1052.32 427.52 C 1052.32 430.32 1052.47 433.12 1052.37 435.93 C 1052.50 444.02 1053.63 452.09 1054.77 460.11 C 1055.31 471.11 1056.72 482.05 1057.95 492.99 C 1058.01 499.39 1059.47 505.67 1059.66 512.07 C 1059.72 515.10 1060.49 518.05 1061.35 520.95 C 1061.50 522.23 1061.53 523.52 1061.43 524.82 C 1061.00 528.89 1061.96 532.89 1062.47 536.91 C 1062.99 540.74 1062.03 544.97 1064.37 548.37 C 1064.50 551.46 1064.60 554.55 1064.58 557.65 L 1065.36 557.38 C 1065.41 560.56 1065.51 563.75 1066.09 566.89 C 1066.41 570.44 1066.58 574.01 1066.61 577.58 L 1067.46 577.27 C 1067.44 580.38 1067.57 583.49 1067.57 586.60 C 1067.74 586.58 1068.09 586.52 1068.26 586.50 C 1068.38 593.59 1069.82 600.60 1069.62 607.72 L 1070.47 607.25 C 1070.07 613.41 1071.61 619.41 1071.69 625.54 L 1072.29 625.52 C 1072.27 629.88 1072.62 634.23 1072.66 638.60 L 1073.53 638.26 C 1073.18 644.06 1074.64 649.73 1074.71 655.51 L 1075.32 655.45 C 1075.32 658.88 1075.50 662.31 1075.55 665.75 L 1076.39 665.23 C 1076.37 669.30 1076.72 673.37 1076.72 677.45 L 1077.31 677.57 C 1077.39 680.22 1077.56 682.86 1077.66 685.51 L 1078.36 685.41 C 1078.35 688.85 1078.55 692.28 1078.54 695.73 L 1079.38 695.38 C 1079.42 698.96 1079.57 702.53 1079.88 706.10 C 1080.39 711.94 1081.75 717.72 1081.45 723.61 C 1081.64 723.62 1082.02 723.63 1082.21 723.64 C 1082.37 727.81 1082.53 731.98 1082.95 736.13 C 1083.58 742.97 1084.97 749.73 1084.60 756.65 L 1085.41 756.34 C 1085.20 760.59 1086.29 764.79 1085.96 769.03 C 1085.47 774.05 1086.99 778.97 1087.13 783.98 C 1087.30 789.74 1088.84 795.35 1088.87 801.12 C 1088.88 804.48 1089.56 807.79 1090.48 811.02 C 1090.74 812.85 1090.62 814.71 1090.65 816.58 L 1091.37 816.49 C 1091.44 819.12 1091.60 821.75 1091.70 824.40 L 1092.28 824.59 C 1092.31 827.99 1092.52 831.39 1092.58 834.80 L 1093.38 834.24 C 1093.43 838.33 1093.72 842.42 1093.68 846.52 L 1094.35 846.52 C 1094.47 849.18 1094.62 851.84 1094.70 854.52 L 1095.32 854.50 C 1095.42 860.10 1095.74 865.69 1095.41 871.29 C 1095.73 868.11 1095.90 864.92 1096.26 861.76 C 1096.35 865.64 1096.57 869.53 1096.66 873.42 C 1096.64 879.93 1098.24 886.31 1098.36 892.83 C 1100.55 912.40 1102.13 932.03 1104.53 951.58 L 1104.66 952.77 C 1104.82 952.68 1105.14 952.50 1105.30 952.41 C 1105.68 959.83 1106.40 967.26 1105.44 974.67 L 1104.55 974.27 C 1104.48 976.03 1104.43 977.82 1104.38 979.60 L 1103.46 979.44 C 1103.17 980.81 1102.85 982.19 1102.59 983.59 L 1101.60 983.39 C 1101.56 984.18 1101.47 985.77 1101.42 986.56 L 1100.59 986.45 C 1100.17 987.52 1099.76 988.59 1099.37 989.68 L 1098.20 989.53 C 1098.32 989.98 1098.58 990.88 1098.70 991.33 L 1097.45 991.38 L 1097.52 992.51 L 1096.87 992.68 C 1095.78 994.48 1094.27 995.98 1092.50 997.11 C 1092.51 997.51 1092.53 998.31 1092.55 998.71 C 1092.13 998.64 1091.29 998.50 1090.87 998.42 C 1090.65 999.42 1090.12 1000.17 1089.29 1000.69 C 1084.55 1003.51 1080.11 1006.96 1074.86 1008.78 C 1069.75 1010.55 1064.43 1011.90 1059.00 1012.05 C 1054.93 1012.18 1050.84 1012.42 1046.91 1013.52 C 1045.88 1013.66 1044.86 1013.80 1043.86 1013.94 C 1041.05 1014.42 1038.21 1014.57 1035.37 1014.61 L 1035.58 1015.35 C 1031.14 1015.32 1026.70 1015.62 1022.26 1015.66 L 1022.79 1016.58 C 1020.96 1016.33 1018.85 1017.06 1017.37 1015.71 L 1017.92 1016.65 C 1013.75 1017.05 1009.59 1017.61 1005.41 1017.60 L 1005.64 1018.39 C 995.46 1018.04 985.51 1020.64 975.34 1020.57 L 975.65 1021.41 C 970.86 1021.36 966.07 1021.71 961.29 1021.70 L 961.89 1022.49 C 956.04 1022.61 950.27 1023.79 944.41 1023.60 L 944.73 1024.46 C 940.94 1024.42 937.15 1024.65 933.37 1024.63 L 933.66 1025.39 C 927.17 1025.48 920.77 1026.85 914.27 1026.62 L 914.78 1027.47 C 908.18 1027.28 901.65 1028.32 895.13 1029.17 C 891.23 1029.43 887.32 1029.61 883.42 1029.66 C 883.49 1029.88 883.62 1030.32 883.69 1030.54 C 880.29 1030.52 876.89 1030.70 873.51 1030.69 L 873.46 1031.37 C 870.51 1031.49 867.58 1031.72 864.64 1031.88 C 851.45 1032.18 838.43 1034.77 825.26 1035.31 L 825.39 1036.48 C 822.22 1036.41 819.06 1036.61 815.91 1036.88 C 813.11 1037.47 810.23 1037.55 807.39 1037.57 L 807.63 1038.37 C 803.51 1038.32 799.42 1038.60 795.31 1038.60 L 795.70 1039.42 C 792.41 1039.45 789.13 1039.57 785.87 1039.93 C 782.75 1040.48 779.57 1040.56 776.41 1040.62 L 776.69 1041.42 C 771.91 1041.35 767.15 1041.74 762.37 1041.71 L 762.82 1042.55 C 757.31 1042.65 751.88 1043.78 746.36 1043.59 L 746.73 1044.44 C 742.94 1044.42 739.15 1044.63 735.37 1044.62 L 735.64 1045.38 C 732.77 1045.42 729.89 1045.51 727.07 1046.08 C 723.36 1046.41 719.65 1046.52 715.94 1046.67 C 709.45 1046.94 702.99 1047.56 696.59 1048.62 C 686.01 1049.39 675.43 1050.27 664.94 1051.81 C 651.55 1052.48 638.31 1054.73 624.94 1055.51 C 618.75 1056.49 612.47 1056.57 606.30 1057.59 C 600.58 1058.40 594.68 1057.90 589.12 1059.66 C 585.69 1060.55 582.13 1060.48 578.62 1060.58 C 564.35 1060.94 550.27 1063.53 536.03 1064.36 C 524.88 1066.00 513.61 1066.59 502.40 1067.70 C 500.54 1068.01 498.74 1068.62 496.94 1069.16 C 495.00 1069.51 493.01 1069.40 491.06 1069.41 C 479.13 1069.71 467.39 1072.16 455.47 1072.58 C 448.55 1073.24 441.52 1073.35 434.79 1075.25 C 427.79 1075.13 420.86 1076.31 413.96 1077.36 C 408.82 1078.45 403.56 1078.60 398.32 1078.60 L 398.80 1079.44 C 392.62 1079.14 386.56 1080.71 380.39 1080.58 L 380.64 1081.39 C 377.50 1081.36 374.36 1081.50 371.22 1081.50 L 371.59 1082.28 C 362.86 1082.71 354.08 1083.62 345.36 1082.47 L 345.71 1081.51 C 344.27 1081.45 342.84 1081.41 341.41 1081.39 L 341.57 1080.42 C 340.22 1080.09 338.89 1079.74 337.54 1079.44 L 337.46 1078.32 C 337.08 1078.37 336.31 1078.48 335.93 1078.53 C 335.43 1078.20 334.43 1077.54 333.93 1077.21 C 333.03 1076.62 332.13 1076.04 331.25 1075.46 L 330.75 1075.49 C 329.86 1074.58 328.98 1073.71 328.08 1072.85 C 325.38 1071.90 323.47 1069.63 321.83 1067.41 C 318.10 1062.24 314.14 1057.07 312.26 1050.89 C 307.86 1035.33 309.41 1018.83 305.74 1003.16 C 305.31 999.30 305.43 995.39 305.43 991.52 C 305.02 994.49 304.78 997.49 304.45 1000.49 C 304.65 995.01 304.76 989.47 303.85 984.05 C 303.58 981.52 303.43 978.98 303.39 976.45 L 302.64 976.59 C 302.67 971.99 302.45 967.39 302.21 962.81 C 301.85 965.05 301.61 967.41 301.28 969.69 C 301.73 964.75 301.56 959.79 301.10 954.87 C 299.87 945.83 298.86 936.74 299.61 927.61 C 299.24 931.49 298.98 935.40 298.52 939.28 C 298.73 933.89 298.61 928.46 297.69 923.13 C 297.65 922.79 297.57 922.11 297.53 921.77 C 285.31 921.17 273.06 921.24 260.89 920.06 C 254.28 919.40 247.63 920.14 241.03 919.36 C 226.43 917.33 211.55 918.86 196.98 916.44 C 193.78 915.72 190.84 914.13 187.60 913.58 C 187.31 913.52 186.72 913.41 186.43 913.35 L 186.51 912.35 C 186.03 912.38 185.08 912.45 184.60 912.49 C 184.54 912.02 184.40 911.08 184.34 910.61 C 183.88 910.64 182.97 910.69 182.51 910.71 L 182.65 909.41 L 181.77 909.55 C 181.32 909.12 180.44 908.27 180.00 907.85 C 179.46 906.92 178.67 906.35 177.62 906.13 C 177.63 905.75 177.65 904.98 177.66 904.60 L 176.56 904.68 C 176.38 904.28 176.04 903.47 175.86 903.07 C 175.02 902.06 174.24 901.00 173.44 899.97 C 173.53 899.63 173.70 898.94 173.79 898.60 L 172.71 898.44 C 171.44 895.19 170.01 891.92 170.28 888.34 L 169.33 888.87 C 169.21 884.23 169.22 879.60 169.42 874.98 L 170.31 875.78 C 170.21 866.63 170.75 857.49 170.57 848.35 L 171.41 848.47 C 171.18 838.23 172.58 828.06 172.43 817.82 C 172.68 820.42 173.07 823.01 173.51 825.59 C 174.30 817.06 173.79 808.51 173.84 799.97 C 176.47 788.13 175.30 775.92 176.51 763.93 C 176.89 759.90 177.28 755.83 176.68 751.81 C 176.11 744.70 176.95 737.56 176.65 730.43 L 177.35 730.50 C 177.45 727.14 177.51 723.79 177.54 720.45 C 177.73 720.45 178.11 720.45 178.29 720.46 C 178.07 713.04 178.60 705.64 178.47 698.23 L 179.38 698.68 C 179.47 689.69 179.31 680.66 180.31 671.72 L 179.03 671.02 L 180.25 670.26 C 180.68 666.36 180.51 662.43 180.73 658.52 L 181.33 658.54 C 181.36 654.84 181.13 651.12 181.56 647.45 C 183.75 640.18 182.99 632.49 183.13 625.01 C 182.98 619.64 184.51 614.41 184.60 609.05 C 185.11 601.79 184.25 594.48 185.26 587.24 C 185.99 580.17 186.75 573.02 185.97 565.92 C 185.37 562.27 186.04 558.62 186.31 554.99 C 186.43 549.14 186.74 543.31 186.75 537.47 L 187.43 537.70 C 187.32 531.89 187.71 526.08 187.54 520.27 L 188.44 520.64 C 188.32 511.14 188.85 501.66 189.54 492.21 C 190.84 487.23 190.48 482.06 190.66 476.98 C 190.78 471.85 191.26 466.74 191.56 461.63 C 193.53 454.92 191.98 447.90 193.03 441.08 C 193.58 437.43 193.67 433.74 193.38 430.07 C 193.62 423.13 193.77 416.19 193.89 409.26 C 196.41 402.31 195.26 394.68 195.36 387.43 C 195.32 384.75 194.93 382.00 195.50 379.36 C 198.99 369.77 195.27 359.41 197.52 349.64 C 198.84 344.23 198.78 338.63 198.26 333.13 C 198.34 328.80 198.44 324.47 198.43 320.15 C 201.19 312.40 199.61 304.08 199.76 296.07 C 199.77 292.33 201.04 288.77 201.38 285.07 C 201.89 279.73 201.82 274.36 201.72 269.00 C 201.55 261.26 203.88 253.59 202.75 245.85 C 202.15 240.42 202.93 234.97 202.66 229.54 L 203.32 229.45 C 203.24 226.44 203.34 223.43 203.50 220.43 C 203.72 220.45 204.16 220.48 204.38 220.50 C 204.39 219.45 204.41 217.35 204.42 216.30 L 205.21 216.59 C 205.61 214.90 206.11 213.25 206.60 211.59 L 207.42 211.51 C 207.46 211.10 207.54 210.28 207.59 209.86 L 208.76 209.42 L 208.40 208.53 L 209.13 208.33 C 210.36 206.71 211.68 205.14 212.94 203.54 C 213.23 203.52 213.83 203.49 214.12 203.47 C 214.67 202.42 215.22 201.37 215.77 200.33 C 216.17 200.43 216.98 200.62 217.38 200.72 L 217.48 199.32 C 217.88 199.31 218.69 199.29 219.09 199.28 C 219.39 197.47 221.22 197.59 222.62 197.27 L 222.51 196.15 C 222.96 196.26 223.87 196.47 224.32 196.58 L 224.72 195.36 C 225.16 195.47 226.03 195.71 226.47 195.82 M 975.61 291.65 C 975.42 295.33 975.42 299.01 975.44 302.69 L 974.72 302.42 C 974.55 309.57 974.76 316.78 973.86 323.88 C 973.68 331.12 973.34 338.36 973.40 345.61 L 972.51 345.27 C 972.71 352.71 972.13 360.14 972.38 367.58 L 971.58 367.54 C 971.51 380.27 970.06 392.94 970.39 405.68 L 969.50 405.23 C 969.63 410.27 969.31 415.31 969.33 420.36 C 968.05 422.59 968.09 425.23 967.77 427.71 C 967.05 436.12 967.49 444.60 966.57 453.00 C 966.57 454.58 966.08 456.34 966.80 457.85 C 966.31 465.41 966.21 472.99 966.14 480.57 C 965.18 481.50 964.54 482.67 964.65 484.03 C 964.48 488.39 963.88 492.80 964.80 497.12 C 964.25 503.73 964.84 510.40 964.13 517.01 C 963.08 522.75 963.22 528.71 963.47 534.54 C 963.12 536.69 963.27 538.89 963.14 541.06 C 962.60 543.24 962.50 545.52 962.80 547.75 C 962.22 550.44 962.56 553.27 961.73 555.92 C 961.59 563.54 961.08 571.20 961.62 578.81 L 960.61 577.79 C 960.75 583.60 959.11 589.44 960.39 595.19 C 960.03 597.58 960.22 600.01 960.27 602.42 C 959.90 602.42 959.16 602.43 958.79 602.44 C 958.95 609.49 958.09 616.56 958.60 623.60 C 957.75 629.13 957.65 634.73 957.02 640.28 C 956.23 647.72 957.38 655.28 955.96 662.67 C 955.51 665.15 955.61 667.68 955.85 670.19 C 955.18 674.41 955.53 678.75 955.27 683.03 C 955.22 691.41 953.71 699.80 954.53 708.18 C 953.77 717.69 953.34 727.24 953.43 736.79 L 952.54 736.23 C 952.70 743.70 952.17 751.16 952.39 758.62 L 951.60 758.42 C 951.38 763.89 951.75 769.44 950.85 774.86 C 950.68 782.16 950.28 789.47 950.43 796.79 L 949.53 796.27 C 949.49 806.75 949.05 817.24 949.69 827.73 C 949.36 824.11 949.33 820.47 948.86 816.88 C 948.45 821.44 948.45 826.04 948.29 830.62 L 946.82 830.76 L 948.32 831.71 C 948.19 832.27 947.93 833.40 947.81 833.97 C 947.62 841.83 947.32 849.70 947.36 857.57 L 946.45 857.22 C 946.63 862.65 946.19 868.07 946.35 873.51 L 945.64 873.50 C 945.65 874.27 945.68 875.80 945.69 876.56 L 947.09 876.73 L 945.84 877.75 C 945.29 881.28 945.53 884.89 945.41 888.46 L 944.67 888.48 C 944.87 897.89 944.25 907.30 944.37 916.71 L 943.47 916.23 C 943.72 920.69 943.32 925.14 942.29 929.48 L 941.55 929.45 C 941.56 930.25 941.57 931.86 941.57 932.66 L 940.69 932.49 C 940.29 933.84 939.86 935.20 939.46 936.57 L 938.28 936.60 C 938.38 937.04 938.59 937.93 938.69 938.37 L 937.29 938.48 C 937.30 938.95 937.32 939.88 937.32 940.35 C 936.98 940.42 936.29 940.55 935.94 940.62 C 935.15 941.91 934.21 943.11 933.13 944.16 C 932.21 944.68 931.51 945.41 931.02 946.36 C 930.63 946.32 929.85 946.26 929.46 946.23 L 929.51 947.12 C 928.32 947.88 927.16 948.68 926.03 949.52 C 925.67 949.46 924.94 949.35 924.58 949.29 L 924.52 950.33 C 921.80 951.18 919.19 952.46 916.32 952.73 L 916.69 953.47 C 905.90 954.25 895.10 953.28 884.31 953.42 L 884.76 952.53 C 877.31 952.65 869.88 952.15 862.44 952.37 L 862.45 951.56 C 854.43 951.78 846.48 950.65 838.48 950.56 L 837.43 949.04 C 837.52 949.44 837.70 950.23 837.80 950.63 C 835.58 950.53 833.38 950.51 831.19 950.52 L 831.63 949.64 C 822.58 949.75 813.53 949.16 804.47 949.32 L 804.49 948.70 C 800.05 948.48 795.59 948.70 791.21 947.85 C 784.56 947.58 777.89 947.50 771.23 947.50 L 771.66 946.61 C 763.95 946.77 756.26 946.16 748.56 946.33 L 748.45 945.69 C 743.48 945.78 738.52 945.36 733.56 945.43 L 733.57 944.63 C 728.37 944.88 723.16 944.30 717.98 944.77 C 718.27 944.55 718.84 944.11 719.13 943.89 C 709.48 943.60 699.84 943.16 690.20 942.88 C 689.38 941.97 688.30 941.53 687.10 941.65 C 682.39 941.55 677.63 940.72 672.97 941.74 C 668.20 941.33 663.41 941.47 658.63 941.42 L 658.07 940.80 C 648.77 940.67 639.49 940.00 630.20 939.83 C 629.39 938.88 628.24 938.54 627.03 938.63 C 622.38 938.53 617.67 937.74 613.06 938.69 C 610.69 938.37 608.29 938.50 605.93 938.58 C 603.03 938.47 600.13 938.45 597.24 938.48 L 597.55 937.76 C 583.14 937.87 568.80 936.20 554.40 936.44 L 554.67 935.54 C 548.90 935.72 543.13 935.32 537.37 935.44 C 537.41 935.27 537.49 934.91 537.54 934.74 C 530.39 934.55 523.19 934.73 516.10 933.87 C 511.13 933.68 506.16 933.50 501.19 933.56 L 501.67 932.66 C 492.73 932.67 483.78 932.45 474.85 932.21 C 469.00 930.96 462.95 931.90 457.10 930.83 C 451.80 930.64 446.51 930.47 441.21 930.53 L 441.71 929.63 C 433.60 929.75 425.49 929.25 417.38 929.32 L 417.01 927.20 L 416.60 929.30 C 415.82 929.32 414.27 929.35 413.49 929.36 L 413.53 928.63 C 409.84 928.52 406.15 928.46 402.46 928.32 L 402.32 927.30 C 401.66 927.65 400.34 928.36 399.68 928.71 L 399.54 927.69 C 388.61 927.61 377.70 927.24 366.78 927.54 C 369.95 927.12 373.15 927.25 376.33 926.98 C 370.45 926.09 364.45 926.41 358.52 926.32 L 358.54 925.67 C 353.58 925.65 348.57 925.76 343.66 924.99 C 346.69 924.77 349.73 924.83 352.76 924.58 C 342.88 924.49 333.01 924.78 323.12 924.45 C 323.37 928.60 323.32 932.80 324.12 936.91 C 324.41 940.51 324.57 944.12 324.59 947.74 L 325.44 947.24 C 325.46 951.00 325.69 954.77 325.66 958.55 L 326.35 958.43 C 326.45 961.09 326.62 963.75 326.71 966.41 L 327.30 966.54 C 327.31 969.96 327.51 973.37 327.57 976.80 L 328.39 976.21 C 328.09 985.75 330.41 995.09 330.59 1004.60 C 329.93 1009.13 331.48 1013.53 331.57 1018.03 C 331.67 1023.72 333.23 1029.27 333.21 1034.98 C 333.73 1041.26 335.43 1048.81 341.26 1052.22 C 341.42 1052.44 341.72 1052.90 341.87 1053.12 C 343.19 1053.50 344.49 1054.01 344.95 1055.46 C 345.34 1055.40 346.11 1055.28 346.50 1055.22 C 346.51 1055.50 346.52 1056.07 346.53 1056.35 C 347.46 1056.54 349.34 1056.94 350.27 1057.14 L 348.72 1057.93 C 356.68 1059.87 365.00 1058.71 372.95 1057.30 C 380.71 1057.28 388.33 1055.61 396.09 1055.48 C 397.84 1055.16 400.43 1055.92 401.12 1053.67 C 405.59 1053.67 410.06 1053.30 414.54 1053.22 L 414.08 1052.43 C 416.89 1052.39 419.70 1052.29 422.52 1052.32 L 422.49 1051.68 C 428.27 1051.51 433.95 1050.14 439.76 1050.51 L 439.35 1049.63 C 443.38 1049.59 447.41 1049.28 451.45 1049.28 L 451.54 1048.69 C 454.21 1048.59 456.88 1048.43 459.55 1048.34 L 459.41 1047.64 C 462.52 1047.65 465.63 1047.56 468.73 1047.38 C 471.94 1047.82 475.57 1048.13 478.39 1046.19 C 481.18 1045.97 483.96 1045.53 486.77 1045.54 C 486.68 1045.34 486.50 1044.93 486.41 1044.73 C 492.43 1044.49 498.55 1044.94 504.45 1043.51 L 503.72 1043.25 C 511.57 1043.90 519.49 1042.26 527.30 1041.37 C 527.66 1041.41 528.37 1041.49 528.73 1041.52 L 528.48 1040.75 C 536.85 1040.76 545.13 1038.82 553.52 1039.63 C 551.25 1039.36 548.92 1039.05 546.67 1038.81 C 551.31 1038.56 555.96 1038.36 560.62 1038.39 L 560.42 1037.60 C 564.05 1037.53 567.71 1037.47 571.26 1036.62 C 575.22 1037.70 579.27 1036.58 583.25 1036.21 C 587.37 1035.57 591.57 1035.74 595.68 1035.02 C 601.93 1033.71 608.36 1034.02 614.67 1033.16 C 613.33 1032.83 611.98 1032.55 610.63 1032.35 C 614.25 1032.43 617.87 1032.30 621.50 1032.31 L 621.53 1031.62 C 627.90 1031.19 634.22 1030.18 640.63 1030.36 L 640.31 1029.51 C 641.14 1029.47 642.79 1029.40 643.62 1029.36 C 643.72 1029.83 643.93 1030.78 644.04 1031.25 L 644.25 1029.38 C 645.87 1029.32 647.49 1029.25 649.13 1029.19 C 651.89 1028.52 654.74 1028.40 657.58 1028.34 L 657.43 1027.66 C 661.21 1027.68 664.98 1027.45 668.76 1027.44 L 668.26 1026.59 C 675.36 1026.79 682.36 1025.27 689.47 1025.26 L 689.32 1024.58 C 693.83 1024.82 698.45 1023.66 702.85 1025.00 C 701.57 1024.28 700.13 1023.82 698.99 1022.89 C 700.66 1023.22 702.34 1023.51 703.93 1024.20 C 708.35 1022.97 712.99 1023.58 717.48 1022.70 C 722.92 1021.76 728.46 1021.79 733.94 1021.17 L 732.12 1020.31 C 737.40 1020.45 742.61 1019.31 747.90 1019.33 C 752.52 1019.65 757.31 1018.79 762.01 1018.69 C 769.57 1016.96 777.36 1017.32 784.99 1016.06 C 789.40 1015.25 794.80 1016.88 798.42 1013.70 C 801.53 1013.62 804.64 1013.45 807.76 1013.43 L 807.25 1012.62 C 811.34 1012.55 815.43 1012.27 819.53 1012.32 L 819.56 1011.62 C 825.30 1011.47 830.96 1010.21 836.73 1010.46 L 836.24 1009.61 C 840.31 1009.61 844.38 1009.28 848.46 1009.29 L 848.55 1008.70 C 851.20 1008.59 853.84 1008.41 856.50 1008.32 L 856.44 1007.66 C 861.43 1007.58 866.42 1007.43 871.41 1007.51 C 869.20 1007.24 867.02 1007.13 864.83 1006.88 C 868.90 1006.52 873.01 1006.46 877.10 1006.14 C 883.94 1005.32 890.77 1004.18 897.70 1004.42 L 897.23 1003.57 C 900.53 1003.55 903.83 1003.39 907.13 1003.09 C 910.85 1002.41 914.66 1002.40 918.44 1002.24 L 918.32 1001.55 C 922.11 1001.55 925.91 1001.32 929.72 1001.32 L 929.15 1000.50 C 934.98 1000.51 940.74 999.21 946.59 999.41 L 946.29 998.56 C 950.07 998.59 953.85 998.36 957.64 998.38 L 957.34 997.61 C 960.52 997.55 963.72 997.47 966.85 996.85 C 969.37 996.64 971.90 996.59 974.44 996.59 C 979.65 996.51 984.83 995.46 990.06 995.34 C 996.98 993.84 1004.10 994.19 1011.07 993.04 C 1016.42 992.20 1022.11 993.04 1027.14 990.64 C 1029.68 990.66 1032.22 990.51 1034.77 990.47 L 1034.22 989.61 C 1044.76 989.95 1055.09 987.41 1065.61 987.34 L 1065.43 986.06 C 1065.85 986.20 1066.69 986.48 1067.11 986.62 C 1068.03 985.87 1068.95 985.13 1069.88 984.39 C 1070.27 984.45 1071.04 984.57 1071.43 984.62 L 1071.26 983.32 L 1072.53 983.55 L 1072.46 982.34 L 1073.68 982.66 L 1073.46 981.34 C 1073.93 981.35 1074.87 981.37 1075.34 981.38 C 1075.34 980.92 1075.34 980.00 1075.34 979.54 L 1076.64 979.54 C 1076.65 979.14 1076.66 978.33 1076.67 977.93 C 1078.40 977.54 1078.47 975.83 1078.78 974.41 L 1079.89 974.50 C 1079.83 974.15 1079.70 973.45 1079.64 973.10 C 1081.51 969.46 1081.46 965.35 1081.43 961.37 L 1080.63 961.60 C 1080.57 958.44 1080.47 955.26 1079.86 952.15 C 1079.57 948.84 1079.43 945.52 1079.44 942.20 L 1078.60 942.69 C 1078.53 937.30 1078.20 931.91 1078.23 926.53 L 1077.41 926.80 C 1077.24 925.54 1077.06 924.29 1076.86 923.05 C 1076.62 918.27 1076.00 913.45 1076.76 908.69 C 1076.58 906.97 1076.31 907.13 1076.26 908.82 L 1076.21 909.88 C 1076.08 912.15 1075.84 914.42 1075.53 916.69 C 1075.74 911.94 1075.36 907.20 1075.34 902.47 L 1074.72 902.49 C 1074.63 899.83 1074.46 897.17 1074.37 894.52 L 1073.70 894.49 C 1073.72 890.41 1073.46 886.33 1073.40 882.25 L 1072.58 882.74 C 1072.85 875.94 1071.24 869.28 1071.27 862.51 C 1071.10 862.52 1070.77 862.53 1070.61 862.54 C 1070.60 860.11 1070.54 857.69 1070.44 855.29 C 1071.54 850.52 1069.65 845.81 1069.62 841.05 C 1069.59 836.53 1069.00 832.02 1067.43 827.77 C 1067.43 826.27 1067.44 824.77 1067.48 823.29 L 1066.61 823.63 C 1066.81 817.17 1065.34 810.83 1065.43 804.38 L 1064.62 804.64 C 1064.64 800.54 1064.37 796.45 1064.39 792.35 L 1063.57 792.64 C 1063.45 785.41 1062.61 778.21 1061.58 771.08 C 1061.37 764.65 1060.49 758.25 1059.63 751.89 C 1060.68 748.28 1059.65 744.58 1059.30 740.95 C 1058.64 736.43 1058.77 731.83 1057.88 727.35 C 1056.75 721.94 1057.20 716.37 1056.30 710.93 C 1055.43 706.00 1055.80 700.93 1054.68 696.05 C 1053.69 690.34 1053.93 684.50 1053.18 678.77 C 1052.94 679.01 1052.47 679.50 1052.24 679.74 C 1052.32 677.66 1052.32 675.58 1052.37 673.51 L 1051.71 673.48 C 1051.57 670.47 1051.36 667.47 1051.28 664.47 L 1050.65 664.55 C 1050.62 661.44 1050.49 658.34 1050.49 655.24 L 1049.62 655.67 C 1049.60 651.74 1049.41 647.82 1049.12 643.91 C 1048.15 637.41 1047.23 630.87 1047.43 624.27 L 1046.58 624.77 C 1046.56 621.45 1046.40 618.14 1046.12 614.85 C 1045.41 611.13 1045.41 607.33 1045.24 603.57 L 1044.56 603.66 C 1044.55 600.52 1044.41 597.39 1044.43 594.26 L 1043.60 594.66 C 1043.72 588.20 1042.26 581.85 1042.42 575.40 L 1041.57 575.70 C 1041.59 572.57 1041.46 569.45 1041.46 566.33 C 1041.28 566.37 1040.92 566.44 1040.74 566.48 C 1040.50 561.81 1040.54 557.10 1039.63 552.50 L 1038.22 551.57 L 1039.69 551.87 C 1039.59 550.31 1039.53 548.75 1039.49 547.21 L 1038.68 547.66 C 1038.63 543.23 1038.33 538.81 1038.38 534.39 L 1037.60 534.57 C 1037.57 531.72 1037.51 528.86 1036.90 526.08 C 1036.58 522.16 1036.41 518.23 1036.36 514.31 L 1035.52 514.78 C 1035.51 511.33 1035.33 507.88 1035.36 504.43 L 1034.67 504.47 C 1034.69 498.69 1033.25 493.02 1033.49 487.23 L 1032.64 487.74 C 1032.60 483.13 1032.39 478.53 1032.15 473.93 C 1030.68 467.82 1030.48 461.47 1030.39 455.21 L 1029.59 455.79 C 1029.52 452.37 1029.31 448.97 1029.29 445.56 L 1028.72 445.43 C 1028.64 442.36 1028.40 439.28 1028.14 436.24 C 1027.80 438.44 1027.62 440.68 1027.31 442.89 C 1027.71 438.33 1027.67 433.76 1027.56 429.20 L 1026.80 429.41 C 1026.63 424.91 1026.46 420.41 1026.12 415.92 C 1025.51 413.12 1025.44 410.24 1025.41 407.39 L 1024.63 407.64 C 1024.65 403.85 1024.42 400.07 1024.42 396.28 L 1023.62 396.66 C 1023.55 392.78 1023.33 388.91 1023.08 385.04 L 1022.39 384.28 L 1023.33 385.03 C 1023.22 377.98 1021.58 371.06 1021.48 364.00 C 1020.14 357.26 1020.31 350.36 1019.21 343.58 C 1018.60 336.95 1018.37 330.25 1016.61 323.78 C 1016.57 321.28 1016.40 318.77 1016.39 316.27 L 1015.55 316.73 C 1015.54 313.00 1015.39 309.26 1015.24 305.53 C 1014.93 305.55 1014.31 305.57 1014.00 305.58 C 1013.69 303.87 1013.21 302.23 1012.47 300.67 C 1009.95 297.66 1007.18 294.87 1004.08 292.47 C 1003.68 292.56 1002.89 292.75 1002.49 292.84 L 1002.64 291.72 C 993.73 288.82 984.65 291.72 975.61 291.65 M 439.05 437.26 C 438.39 437.32 437.08 437.44 436.43 437.49 L 436.39 438.20 C 434.88 438.71 433.40 439.30 431.97 439.99 C 429.80 441.23 427.61 442.43 425.47 443.71 C 420.89 448.08 415.81 452.22 412.85 457.95 C 411.99 459.21 411.24 460.53 410.62 461.92 C 410.05 463.28 409.41 464.62 408.69 465.91 C 408.65 466.59 408.56 467.93 408.52 468.60 L 407.69 468.52 C 406.83 472.96 406.80 477.55 405.74 481.93 C 405.14 487.58 406.97 493.06 407.61 498.62 L 408.27 498.44 C 409.31 504.73 413.24 510.06 417.15 514.91 C 421.04 519.58 426.06 523.08 431.03 526.50 C 431.27 526.51 431.76 526.52 432.00 526.52 C 433.34 527.52 434.89 528.16 436.51 528.59 L 436.47 529.35 C 437.67 529.48 438.86 529.62 440.07 529.78 C 448.04 532.82 456.87 531.44 465.22 531.33 C 466.46 530.80 467.71 530.28 468.95 529.72 C 469.61 529.67 470.93 529.56 471.59 529.51 L 471.57 528.76 C 474.87 527.96 477.71 526.05 480.55 524.28 C 483.08 522.14 485.79 520.23 488.44 518.25 L 488.52 517.76 C 490.49 515.91 492.40 513.95 493.73 511.58 L 494.27 511.50 C 495.17 509.91 496.06 508.30 496.80 506.62 L 497.73 506.46 C 497.71 506.10 497.69 505.40 497.68 505.05 C 499.33 502.60 500.24 499.76 500.86 496.90 C 501.29 495.61 501.72 494.32 502.22 493.07 C 502.86 486.68 502.69 480.25 502.26 473.86 C 501.78 472.61 501.34 471.37 500.91 470.12 C 500.47 468.31 499.88 466.56 499.32 464.80 C 498.74 463.87 498.15 462.95 497.57 462.04 C 497.60 461.67 497.66 460.93 497.69 460.57 L 496.75 460.39 C 495.57 457.60 493.92 455.00 491.67 452.96 C 491.64 452.70 491.59 452.17 491.56 451.91 C 489.68 449.85 487.73 447.85 485.51 446.17 L 485.45 445.34 C 485.11 445.31 484.42 445.26 484.07 445.24 C 482.71 443.33 480.51 442.39 478.50 441.37 L 478.35 440.86 C 476.12 439.90 473.89 438.90 471.57 438.18 L 471.58 437.67 C 467.03 436.82 462.60 435.17 457.91 435.41 C 451.63 435.59 444.90 434.44 439.05 437.26 M 682.49 460.80 L 682.52 461.55 C 681.18 461.86 679.86 462.20 678.54 462.52 L 678.40 463.64 C 678.05 463.60 677.33 463.52 676.97 463.48 C 668.63 468.38 661.71 475.53 656.98 483.96 C 656.30 485.41 655.71 486.89 655.22 488.41 L 654.51 488.41 C 654.44 489.07 654.31 490.39 654.25 491.05 C 652.89 493.69 652.39 496.64 652.35 499.60 L 651.55 499.39 C 651.58 503.61 651.21 507.84 651.51 512.06 C 652.20 518.14 653.99 524.06 656.68 529.56 L 657.65 529.59 C 657.58 529.95 657.44 530.68 657.38 531.04 C 659.18 533.49 660.96 535.97 662.77 538.43 L 663.18 538.59 C 664.63 540.61 666.40 542.39 668.43 543.85 L 668.56 544.32 C 669.68 544.65 670.50 545.34 671.03 546.38 C 671.28 546.44 671.77 546.54 672.01 546.59 C 673.05 547.45 674.18 548.22 675.38 548.87 L 675.59 549.77 C 675.93 549.71 676.61 549.57 676.95 549.50 C 678.25 550.60 679.76 551.38 681.43 551.80 L 681.45 552.38 C 686.00 553.68 690.61 554.98 695.41 554.72 L 695.36 555.58 C 699.45 555.46 703.56 555.47 707.66 555.56 L 707.51 554.73 C 710.40 554.64 713.28 554.14 715.85 552.73 C 716.52 552.65 717.86 552.50 718.53 552.42 L 718.46 551.69 C 723.68 550.13 727.69 546.25 732.17 543.33 C 733.05 542.50 733.96 541.68 734.85 540.85 C 735.64 539.97 736.43 539.10 737.25 538.24 C 738.25 536.90 739.27 535.58 740.29 534.26 C 741.29 532.47 742.33 530.71 743.50 529.03 C 743.50 528.78 743.50 528.28 743.50 528.02 C 744.75 526.42 745.21 524.42 745.70 522.50 L 746.33 522.59 C 746.49 521.04 746.70 519.50 747.14 518.01 C 749.33 509.26 748.56 500.12 746.28 491.47 L 745.72 491.53 C 745.29 489.56 744.86 487.53 743.52 485.97 C 743.52 485.72 743.53 485.23 743.54 484.98 C 739.65 479.13 736.10 472.77 730.18 468.70 C 729.24 468.22 728.50 467.55 727.95 466.67 C 727.69 466.63 727.17 466.55 726.91 466.51 C 724.99 465.04 722.85 463.93 720.59 463.14 L 720.48 462.59 C 708.46 457.79 694.89 457.14 682.49 460.80 M 505.97 610.84 C 504.67 614.08 506.04 617.51 507.80 620.27 C 511.82 626.84 515.16 634.30 521.50 639.00 C 522.68 640.93 524.47 642.36 526.22 643.76 C 528.71 645.95 531.23 648.15 534.16 649.77 C 537.20 651.53 540.00 653.84 543.50 654.68 L 543.46 655.45 C 544.14 655.52 545.48 655.65 546.16 655.71 C 552.37 658.75 559.49 657.16 566.14 657.32 C 567.39 656.78 568.68 656.29 569.94 655.75 C 570.57 655.70 571.83 655.60 572.46 655.55 L 572.60 654.79 C 574.92 654.07 577.18 653.14 579.44 652.24 L 579.48 651.73 C 582.22 650.40 585.05 649.03 587.10 646.70 C 587.36 646.66 587.89 646.60 588.15 646.56 C 589.10 645.67 590.07 644.80 591.04 643.94 C 596.74 639.85 601.29 634.45 606.26 629.56 C 607.13 628.37 608.03 627.21 608.96 626.08 C 610.00 624.97 610.98 623.82 611.88 622.60 L 612.27 622.31 C 612.67 621.27 613.36 620.48 614.35 619.96 C 614.35 619.66 614.35 619.05 614.35 618.75 C 615.34 617.82 616.36 616.91 617.43 616.07 C 617.84 613.04 617.84 609.98 617.45 606.96 C 616.22 605.89 615.05 604.78 613.98 603.57 C 610.97 603.27 607.94 603.25 604.93 603.55 C 604.32 604.36 603.63 605.12 602.88 605.81 C 600.20 608.82 597.92 612.17 595.14 615.11 C 590.79 620.50 585.57 625.06 580.13 629.31 C 578.85 630.03 577.95 631.38 576.39 631.56 L 576.45 632.26 C 574.48 633.09 572.52 633.96 570.54 634.76 L 570.48 635.27 C 567.09 636.52 563.66 637.92 559.97 637.67 C 555.35 637.47 550.19 638.54 546.18 635.66 C 545.51 635.60 544.17 635.48 543.50 635.43 L 543.49 634.71 C 542.17 634.06 541.00 633.19 539.87 632.29 C 537.86 630.60 535.90 628.83 534.20 626.83 C 533.13 625.58 532.09 624.30 531.02 623.06 C 530.32 622.32 529.72 621.50 529.24 620.62 L 528.78 620.48 C 527.53 618.31 526.28 616.15 525.02 614.00 C 524.05 612.08 523.12 610.14 522.31 608.15 L 522.14 608.09 C 518.48 602.22 507.68 604.22 505.97 610.84 Z" />
</g>
<g id="#b1ac36c4">
<path fill="#b1ac36" opacity="0.77" d=" M 327.70 197.79 C 330.09 197.55 332.51 197.41 334.91 197.74 C 340.27 198.84 345.77 199.01 351.24 198.86 C 356.41 198.93 361.56 199.40 366.74 199.40 C 366.53 199.69 366.11 200.25 365.90 200.53 C 357.92 200.61 349.97 199.70 341.98 199.69 C 337.21 199.25 332.05 200.27 327.70 197.79 Z" />
<path fill="#b1ac36" opacity="0.77" d=" M 175.67 750.60 C 175.92 750.90 176.43 751.51 176.68 751.81 C 177.28 755.83 176.89 759.90 176.51 763.93 C 175.30 775.92 176.47 788.13 173.84 799.97 C 173.79 808.51 174.30 817.06 173.51 825.59 C 173.07 823.01 172.68 820.42 172.43 817.82 C 172.34 814.85 172.39 811.84 173.08 808.94 C 173.82 802.35 173.18 795.70 173.76 789.10 C 174.82 783.74 175.00 778.26 174.87 772.82 C 175.11 765.41 175.46 758.01 175.67 750.60 Z" />
</g>
<g id="#4341144a">
<path fill="#434114" opacity="0.29" d=" M 334.91 197.74 C 339.25 196.83 343.68 197.51 348.06 197.63 C 349.28 197.53 350.41 197.92 351.24 198.86 C 345.77 199.01 340.27 198.84 334.91 197.74 Z" />
<path fill="#434114" opacity="0.29" d=" M 198.16 319.00 L 198.43 320.15 C 198.44 324.47 198.34 328.80 198.26 333.13 C 197.76 336.44 197.34 339.77 196.78 343.08 C 195.23 335.01 197.71 327.02 198.16 319.00 Z" />
</g>
<g id="#3e3d1245">
<path fill="#3e3d12" opacity="0.27" d=" M 366.74 199.40 L 367.13 198.86 C 373.46 198.74 379.72 199.78 386.02 200.19 C 393.34 200.13 400.70 200.09 408.00 200.82 C 411.53 201.59 415.10 202.22 418.73 202.38 C 413.09 202.54 407.44 202.21 401.80 202.39 C 402.28 202.26 403.24 202.01 403.72 201.88 C 398.18 201.37 392.63 200.88 387.07 200.86 C 380.01 200.85 372.95 200.30 365.90 200.53 C 366.11 200.25 366.53 199.69 366.74 199.40 Z" />
</g>
<g id="#aba634be">
<path fill="#aba634" opacity="0.75" d=" M 387.07 200.86 C 392.63 200.88 398.18 201.37 403.72 201.88 C 403.24 202.01 402.28 202.26 401.80 202.39 C 396.89 202.53 391.58 203.29 387.07 200.86 Z" />
</g>
<g id="#837f2791">
<path fill="#837f27" opacity="0.57" d=" M 624.50 213.16 C 631.34 212.10 638.23 213.80 645.11 213.71 C 654.37 214.67 663.75 213.89 672.95 215.35 C 683.69 215.83 694.43 216.06 705.15 216.76 C 705.68 216.98 706.72 217.42 707.25 217.64 C 694.12 218.65 681.08 215.81 667.95 216.29 C 655.98 215.09 643.96 214.85 631.95 214.48 C 629.42 214.37 626.74 214.51 624.50 213.16 Z" />
</g>
<g id="#3635103c">
<path fill="#363510" opacity="0.24" d=" M 876.89 225.75 C 880.38 224.48 884.26 225.98 887.91 225.95 C 894.61 225.98 901.32 226.28 908.03 226.55 C 912.84 226.62 917.42 228.47 922.27 228.34 L 920.86 228.53 C 916.31 228.51 911.77 228.42 907.23 228.35 C 902.02 227.16 896.65 227.15 891.34 227.22 C 886.17 226.70 880.98 226.78 875.80 226.50 L 876.89 225.75 Z" />
<path fill="#363510" opacity="0.24" d=" M 755.14 1017.99 C 761.50 1015.57 768.51 1016.15 775.20 1015.64 C 768.76 1017.78 761.80 1017.12 755.14 1017.99 Z" />
</g>
<g id="#b6b038c9">
<path fill="#b6b038" opacity="0.79" d=" M 891.34 227.22 C 896.65 227.15 902.02 227.16 907.23 228.35 C 901.93 229.18 896.40 229.16 891.34 227.22 Z" />
</g>
<g id="#68661f74">
<path fill="#68661f" opacity="0.45" d=" M 922.27 228.34 C 928.50 227.67 934.78 228.58 941.02 228.76 C 948.69 229.55 957.80 229.98 963.17 236.28 C 956.98 232.94 950.25 229.93 943.07 230.13 C 935.66 229.71 928.15 230.04 920.86 228.53 L 922.27 228.34 Z" />
</g>
<g id="#ada835c0">
<path fill="#ada835" opacity="0.75" d=" M 201.70 244.74 C 201.96 245.02 202.49 245.57 202.75 245.85 C 203.88 253.59 201.55 261.26 201.72 269.00 C 201.82 274.36 201.89 279.73 201.38 285.07 C 201.04 288.77 199.77 292.33 199.76 296.07 C 199.61 304.08 201.19 312.40 198.43 320.15 C 198.37 314.76 198.03 309.26 199.13 303.97 C 199.83 297.07 199.28 290.13 199.83 283.23 C 200.77 277.79 201.12 272.27 201.17 266.76 C 201.18 259.42 201.47 252.08 201.70 244.74 Z" />
</g>
<g id="#3a381140">
<path fill="#3a3811" opacity="0.25" d=" M 199.68 269.99 C 199.53 268.67 200.27 267.62 201.17 266.76 C 201.12 272.27 200.77 277.79 199.83 283.23 C 198.86 278.86 199.49 274.40 199.68 269.99 Z" />
</g>
<g id="#716e227d">
<path fill="#716e22" opacity="0.49" d=" M 1016.61 323.78 C 1018.37 330.25 1018.60 336.95 1019.21 343.58 C 1020.31 350.36 1020.14 357.26 1021.48 364.00 C 1021.58 371.06 1023.22 377.98 1023.33 385.03 L 1022.39 384.28 C 1021.20 382.88 1021.73 380.73 1021.43 379.04 C 1020.87 368.34 1019.43 357.72 1018.31 347.07 C 1018.17 339.27 1016.13 331.61 1016.61 323.78 Z" />
<path fill="#716e22" opacity="0.49" d=" M 1052.24 679.74 C 1052.47 679.50 1052.94 679.01 1053.18 678.77 C 1053.93 684.50 1053.69 690.34 1054.68 696.05 C 1055.80 700.93 1055.43 706.00 1056.30 710.93 C 1057.20 716.37 1056.75 721.94 1057.88 727.35 C 1058.77 731.83 1058.64 736.43 1059.30 740.95 C 1059.65 744.58 1060.68 748.28 1059.63 751.89 C 1058.23 747.36 1058.23 742.59 1057.94 737.91 C 1056.66 727.63 1055.51 717.33 1054.87 706.99 C 1053.83 697.93 1052.44 688.86 1052.24 679.74 Z" />
<path fill="#716e22" opacity="0.49" d=" M 305.74 1003.16 C 309.41 1018.83 307.86 1035.33 312.26 1050.89 C 314.14 1057.07 318.10 1062.24 321.83 1067.41 L 321.97 1068.74 C 313.50 1060.39 309.25 1048.71 308.51 1037.01 C 308.29 1031.34 307.00 1025.77 307.00 1020.09 C 307.13 1014.39 304.61 1008.87 305.74 1003.16 Z" />
</g>
<g id="#b0ab36c3">
<path fill="#b0ab36" opacity="0.76" d=" M 196.78 343.08 C 197.34 339.77 197.76 336.44 198.26 333.13 C 198.78 338.63 198.84 344.23 197.52 349.64 C 195.27 359.41 198.99 369.77 195.50 379.36 C 195.18 373.91 195.14 368.34 196.11 362.96 C 196.80 356.35 196.23 349.69 196.78 343.08 Z" />
</g>
<g id="#9c9830ad">
<path fill="#9c9830" opacity="0.68" d=" M 193.81 387.53 C 194.20 387.51 194.97 387.46 195.36 387.43 C 195.26 394.68 196.41 402.31 193.89 409.26 L 193.62 410.00 C 193.25 402.51 193.95 395.02 193.81 387.53 Z" />
</g>
<g id="#5b591b65">
<path fill="#5b591b" opacity="0.40" d=" M 193.62 410.00 L 193.89 409.26 C 193.77 416.19 193.62 423.13 193.38 430.07 C 191.57 436.91 192.40 444.04 191.97 451.02 C 191.73 454.55 191.58 458.08 191.56 461.63 C 191.26 466.74 190.78 471.85 190.66 476.98 C 190.48 482.06 190.84 487.23 189.54 492.21 C 187.72 487.34 189.56 482.21 189.66 477.22 C 190.42 465.84 189.77 454.35 191.56 443.04 C 191.76 432.02 191.76 420.89 193.62 410.00 Z" />
<path fill="#5b591b" opacity="0.40" d=" M 958.79 602.44 C 959.16 602.43 959.90 602.42 960.27 602.42 C 960.54 607.62 960.40 612.85 959.68 618.02 C 959.57 620.38 959.29 622.72 958.75 625.03 L 958.60 623.60 C 958.09 616.56 958.95 609.49 958.79 602.44 Z" />
</g>
<g id="#99942ea9">
<path fill="#99942e" opacity="0.66" d=" M 967.77 427.71 C 968.09 425.23 968.05 422.59 969.33 420.36 C 969.77 433.38 967.15 446.29 967.80 459.33 L 966.80 457.85 C 966.08 456.34 966.57 454.58 966.57 453.00 C 967.49 444.60 967.05 436.12 967.77 427.71 Z" />
</g>
<g id="#b8b338cc">
<path fill="#b8b338" opacity="0.80" d=" M 191.97 451.02 C 192.40 444.04 191.57 436.91 193.38 430.07 C 193.67 433.74 193.58 437.43 193.03 441.08 C 191.98 447.90 193.53 454.92 191.56 461.63 C 191.58 458.08 191.73 454.55 191.97 451.02 Z" />
</g>
<g id="#000000ff">
<path fill="#000000" opacity="1.00" d=" M 439.05 437.26 C 444.90 434.44 451.63 435.59 457.91 435.41 C 462.60 435.17 467.03 436.82 471.58 437.67 L 471.57 438.18 C 473.89 438.90 476.12 439.90 478.35 440.86 L 478.50 441.37 C 480.51 442.39 482.71 443.33 484.07 445.24 C 484.42 445.26 485.11 445.31 485.45 445.34 L 485.51 446.17 C 487.73 447.85 489.68 449.85 491.56 451.91 C 491.59 452.17 491.64 452.70 491.67 452.96 C 493.92 455.00 495.57 457.60 496.75 460.39 L 497.69 460.57 C 497.66 460.93 497.60 461.67 497.57 462.04 C 498.15 462.95 498.74 463.87 499.32 464.80 C 499.88 466.56 500.47 468.31 500.91 470.12 C 501.34 471.37 501.78 472.61 502.26 473.86 C 502.69 480.25 502.86 486.68 502.22 493.07 C 501.72 494.32 501.29 495.61 500.86 496.90 C 500.24 499.76 499.33 502.60 497.68 505.05 C 497.69 505.40 497.71 506.10 497.73 506.46 L 496.80 506.62 C 496.06 508.30 495.17 509.91 494.27 511.50 L 493.73 511.58 C 492.40 513.95 490.49 515.91 488.52 517.76 L 488.44 518.25 C 485.79 520.23 483.08 522.14 480.55 524.28 C 477.71 526.05 474.87 527.96 471.57 528.76 L 471.59 529.51 C 470.93 529.56 469.61 529.67 468.95 529.72 C 467.71 530.28 466.46 530.80 465.22 531.33 C 456.87 531.44 448.04 532.82 440.07 529.78 C 438.86 529.62 437.67 529.48 436.47 529.35 L 436.51 528.59 C 434.89 528.16 433.34 527.52 432.00 526.52 C 431.76 526.52 431.27 526.51 431.03 526.50 C 426.06 523.08 421.04 519.58 417.15 514.91 C 413.24 510.06 409.31 504.73 408.27 498.44 L 407.61 498.62 C 406.97 493.06 405.14 487.58 405.74 481.93 C 406.80 477.55 406.83 472.96 407.69 468.52 L 408.52 468.60 C 408.56 467.93 408.65 466.59 408.69 465.91 C 409.41 464.62 410.05 463.28 410.62 461.92 C 411.24 460.53 411.99 459.21 412.85 457.95 C 415.81 452.22 420.89 448.08 425.47 443.71 C 427.61 442.43 429.80 441.23 431.97 439.99 C 433.40 439.30 434.88 438.71 436.39 438.20 L 436.43 437.49 C 437.08 437.44 438.39 437.32 439.05 437.26 Z" />
<path fill="#000000" opacity="1.00" d=" M 682.49 460.80 C 694.89 457.14 708.46 457.79 720.48 462.59 L 720.59 463.14 C 722.85 463.93 724.99 465.04 726.91 466.51 C 727.17 466.55 727.69 466.63 727.95 466.67 C 728.50 467.55 729.24 468.22 730.18 468.70 C 736.10 472.77 739.65 479.13 743.54 484.98 C 743.53 485.23 743.52 485.72 743.52 485.97 C 744.86 487.53 745.29 489.56 745.72 491.53 L 746.28 491.47 C 748.56 500.12 749.33 509.26 747.14 518.01 C 746.70 519.50 746.49 521.04 746.33 522.59 L 745.70 522.50 C 745.21 524.42 744.75 526.42 743.50 528.02 C 743.50 528.28 743.50 528.78 743.50 529.03 C 742.33 530.71 741.29 532.47 740.29 534.26 C 739.27 535.58 738.25 536.90 737.25 538.24 C 736.43 539.10 735.64 539.97 734.85 540.85 C 733.96 541.68 733.05 542.50 732.17 543.33 C 727.69 546.25 723.68 550.13 718.46 551.69 L 718.53 552.42 C 717.86 552.50 716.52 552.65 715.85 552.73 C 713.28 554.14 710.40 554.64 707.51 554.73 L 707.66 555.56 C 703.56 555.47 699.45 555.46 695.36 555.58 L 695.41 554.72 C 690.61 554.98 686.00 553.68 681.45 552.38 L 681.43 551.80 C 679.76 551.38 678.25 550.60 676.95 549.50 C 676.61 549.57 675.93 549.71 675.59 549.77 L 675.38 548.87 C 674.18 548.22 673.05 547.45 672.01 546.59 C 671.77 546.54 671.28 546.44 671.03 546.38 C 670.50 545.34 669.68 544.65 668.56 544.32 L 668.43 543.85 C 666.40 542.39 664.63 540.61 663.18 538.59 L 662.77 538.43 C 660.96 535.97 659.18 533.49 657.38 531.04 C 657.44 530.68 657.58 529.95 657.65 529.59 L 656.68 529.56 C 653.99 524.06 652.20 518.14 651.51 512.06 C 651.21 507.84 651.58 503.61 651.55 499.39 L 652.35 499.60 C 652.39 496.64 652.89 493.69 654.25 491.05 C 654.31 490.39 654.44 489.07 654.51 488.41 L 655.22 488.41 C 655.71 486.89 656.30 485.41 656.98 483.96 C 661.71 475.53 668.63 468.38 676.97 463.48 C 677.33 463.52 678.05 463.60 678.40 463.64 L 678.54 462.52 C 679.86 462.20 681.18 461.86 682.52 461.55 L 682.49 460.80 Z" />
<path fill="#000000" opacity="1.00" d=" M 602.88 605.81 C 603.63 605.12 604.32 604.36 604.93 603.55 C 607.94 603.25 610.97 603.27 613.98 603.57 C 615.05 604.78 616.22 605.89 617.45 606.96 C 617.84 609.98 617.84 613.04 617.43 616.07 C 616.36 616.91 615.34 617.82 614.35 618.75 C 614.35 619.05 614.35 619.66 614.35 619.96 C 613.36 620.48 612.67 621.27 612.27 622.31 L 611.88 622.60 C 610.98 623.82 610.00 624.97 608.96 626.08 C 608.03 627.21 607.13 628.37 606.26 629.56 C 601.29 634.45 596.74 639.85 591.04 643.94 C 590.07 644.80 589.10 645.67 588.15 646.56 C 587.89 646.60 587.36 646.66 587.10 646.70 C 585.05 649.03 582.22 650.40 579.48 651.73 L 579.44 652.24 C 577.18 653.14 574.92 654.07 572.60 654.79 L 572.46 655.55 C 571.83 655.60 570.57 655.70 569.94 655.75 C 568.68 656.29 567.39 656.78 566.14 657.32 C 559.49 657.16 552.37 658.75 546.16 655.71 C 545.48 655.65 544.14 655.52 543.46 655.45 L 543.50 654.68 C 540.00 653.84 537.20 651.53 534.16 649.77 C 531.23 648.15 528.71 645.95 526.22 643.76 C 524.47 642.36 522.68 640.93 521.50 639.00 C 518.74 634.37 514.80 630.56 512.31 625.76 C 510.19 621.67 506.59 617.85 507.07 612.92 C 506.87 610.33 508.34 607.48 511.01 606.86 C 514.74 605.61 518.69 606.42 522.14 608.09 L 522.31 608.15 C 523.12 610.14 524.05 612.08 525.02 614.00 C 526.28 616.15 527.53 618.31 528.78 620.48 L 529.24 620.62 C 529.72 621.50 530.32 622.32 531.02 623.06 C 532.09 624.30 533.13 625.58 534.20 626.83 C 535.90 628.83 537.86 630.60 539.87 632.29 C 541.00 633.19 542.17 634.06 543.49 634.71 L 543.50 635.43 C 544.17 635.48 545.51 635.60 546.18 635.66 C 550.19 638.54 555.35 637.47 559.97 637.67 C 563.66 637.92 567.09 636.52 570.48 635.27 L 570.54 634.76 C 572.52 633.96 574.48 633.09 576.45 632.26 L 576.39 631.56 C 577.95 631.38 578.85 630.03 580.13 629.31 C 585.57 625.06 590.79 620.50 595.14 615.11 C 597.92 612.17 600.20 608.82 602.88 605.81 Z" />
</g>
<g id="#86832995">
<path fill="#868329" opacity="0.58" d=" M 1052.37 435.93 L 1053.24 434.78 C 1054.02 440.83 1053.71 447.00 1055.16 452.96 C 1056.47 470.03 1058.51 487.01 1060.13 504.06 C 1060.03 509.74 1062.30 515.25 1061.35 520.95 C 1060.49 518.05 1059.72 515.10 1059.66 512.07 C 1059.47 505.67 1058.01 499.39 1057.95 492.99 C 1056.72 482.05 1055.31 471.11 1054.77 460.11 C 1053.63 452.09 1052.50 444.02 1052.37 435.93 Z" />
</g>
<g id="#3736103d">
<path fill="#373610" opacity="0.24" d=" M 966.14 480.57 C 966.21 472.99 966.31 465.41 966.80 457.85 L 967.80 459.33 C 968.53 465.92 967.20 472.46 966.81 479.02 C 966.55 486.75 967.24 494.57 965.83 502.23 C 963.04 512.82 967.07 524.06 963.47 534.54 C 963.22 528.71 963.08 522.75 964.13 517.01 C 964.84 510.40 964.25 503.73 964.80 497.12 C 965.77 491.66 966.09 486.11 966.14 480.57 Z" />
<path fill="#373610" opacity="0.24" d=" M 182.70 597.97 C 182.58 596.61 183.26 595.45 184.21 594.54 C 184.13 600.02 183.69 605.51 182.85 610.93 C 182.05 606.64 182.52 602.28 182.70 597.97 Z" />
</g>
<g id="#a7a233b9">
<path fill="#a7a233" opacity="0.73" d=" M 964.65 484.03 C 964.54 482.67 965.18 481.50 966.14 480.57 C 966.09 486.11 965.77 491.66 964.80 497.12 C 963.88 492.80 964.48 488.39 964.65 484.03 Z" />
</g>
<g id="#75722382">
<path fill="#757223" opacity="0.51" d=" M 1061.43 524.82 C 1061.60 524.56 1061.94 524.05 1062.11 523.80 C 1063.34 530.11 1062.95 536.60 1064.26 542.90 C 1064.52 544.71 1064.55 546.53 1064.37 548.37 C 1062.03 544.97 1062.99 540.74 1062.47 536.91 C 1061.96 532.89 1061.00 528.89 1061.43 524.82 Z" />
</g>
<g id="#34330f3a">
<path fill="#34330f" opacity="0.23" d=" M 962.80 547.75 C 964.17 553.24 963.55 558.95 962.44 564.42 C 961.45 569.27 961.71 574.25 961.67 579.17 L 961.62 578.81 C 961.08 571.20 961.59 563.54 961.73 555.92 C 962.56 553.27 962.22 550.44 962.80 547.75 Z" />
</g>
<g id="#a29d31b3">
<path fill="#a29d31" opacity="0.70" d=" M 184.88 564.95 C 185.15 565.20 185.70 565.68 185.97 565.92 C 186.75 573.02 185.99 580.17 185.26 587.24 C 184.25 594.48 185.11 601.79 184.60 609.05 C 184.51 614.41 182.98 619.64 183.13 625.01 C 182.99 632.49 183.75 640.18 181.56 647.45 C 181.23 641.95 181.14 636.33 182.13 630.91 C 182.73 624.26 182.44 617.58 182.85 610.93 C 183.69 605.51 184.13 600.02 184.21 594.54 C 184.19 584.67 184.71 574.82 184.88 564.95 Z" />
<path fill="#a29d31" opacity="0.70" d=" M 672.97 941.74 C 677.63 940.72 682.39 941.55 687.10 941.65 C 688.30 941.53 689.38 941.97 690.20 942.88 C 684.44 943.00 678.64 942.80 672.97 941.74 Z" />
</g>
<g id="#5250185b">
<path fill="#525018" opacity="0.36" d=" M 960.61 577.79 L 961.62 578.81 L 961.67 579.17 C 961.80 584.52 961.91 590.00 960.39 595.19 C 959.11 589.44 960.75 583.60 960.61 577.79 Z" />
</g>
<g id="#5d5b1cff">
<path fill="#5d5b1c" opacity="1.00" d=" M 505.97 610.84 C 507.68 604.22 518.48 602.22 522.14 608.09 C 518.69 606.42 514.74 605.61 511.01 606.86 C 508.34 607.48 506.87 610.33 507.07 612.92 C 506.59 617.85 510.19 621.67 512.31 625.76 C 514.80 630.56 518.74 634.37 521.50 639.00 C 515.16 634.30 511.82 626.84 507.80 620.27 C 506.04 617.51 504.67 614.08 505.97 610.84 Z" />
</g>
<g id="#86832895">
<path fill="#868328" opacity="0.58" d=" M 958.60 623.60 L 958.75 625.03 C 958.94 631.73 958.52 638.43 958.37 645.13 C 954.55 652.97 959.28 662.18 955.85 670.19 C 955.61 667.68 955.51 665.15 955.96 662.67 C 957.38 655.28 956.23 647.72 957.02 640.28 C 957.65 634.73 957.75 629.13 958.60 623.60 Z" />
</g>
<g id="#5f5c1c69">
<path fill="#5f5c1c" opacity="0.41" d=" M 955.85 670.19 C 959.28 662.18 954.55 652.97 958.37 645.13 C 958.36 648.15 958.26 651.19 957.83 654.19 C 956.76 661.56 957.72 669.03 956.89 676.42 C 956.18 682.58 955.98 688.78 955.87 694.98 C 955.67 699.39 956.04 703.95 954.53 708.18 C 953.71 699.80 955.22 691.41 955.27 683.03 C 955.53 678.75 955.18 674.41 955.85 670.19 Z" />
</g>
<g id="#84802892">
<path fill="#848028" opacity="0.57" d=" M 1085.96 769.03 L 1086.98 767.65 C 1087.67 774.07 1087.66 780.57 1088.68 786.96 C 1089.49 791.36 1089.12 795.89 1090.05 800.28 C 1090.70 803.81 1090.91 807.44 1090.48 811.02 C 1089.56 807.79 1088.88 804.48 1088.87 801.12 C 1088.84 795.35 1087.30 789.74 1087.13 783.98 C 1086.99 778.97 1085.47 774.05 1085.96 769.03 Z" />
</g>
<g id="#42401449">
<path fill="#424014" opacity="0.29" d=" M 173.64 775.93 C 173.55 774.71 173.94 773.62 174.87 772.82 C 175.00 778.26 174.82 783.74 173.76 789.10 C 172.80 784.75 173.49 780.31 173.64 775.93 Z" />
<path fill="#424014" opacity="0.29" d=" M 500.99 1042.18 C 509.80 1043.74 518.45 1039.49 527.30 1041.37 C 519.49 1042.26 511.57 1043.90 503.72 1043.25 C 502.78 1042.92 501.87 1042.59 500.99 1042.18 Z" />
</g>
<g id="#99952ea9">
<path fill="#99952e" opacity="0.66" d=" M 1067.43 827.77 C 1069.00 832.02 1069.59 836.53 1069.62 841.05 C 1069.65 845.81 1071.54 850.52 1070.44 855.29 C 1069.08 852.38 1069.25 849.12 1069.00 846.01 C 1068.69 839.90 1067.00 833.92 1067.43 827.77 Z" />
</g>
<g id="#4f4d1858">
<path fill="#4f4d18" opacity="0.35" d=" M 1096.66 873.42 C 1098.91 876.50 1098.52 880.44 1098.82 884.03 C 1098.92 889.07 1100.19 894.01 1100.14 899.06 C 1100.01 904.10 1101.90 908.92 1101.86 913.96 C 1101.90 920.02 1103.53 925.93 1103.36 932.01 C 1104.27 938.47 1105.80 945.03 1104.53 951.58 C 1102.13 932.03 1100.55 912.40 1098.36 892.83 C 1098.24 886.31 1096.64 879.93 1096.66 873.42 Z" />
</g>
<g id="#8c882a9b">
<path fill="#8c882a" opacity="0.61" d=" M 187.60 913.58 C 190.84 914.13 193.78 915.72 196.98 916.44 C 211.55 918.86 226.43 917.33 241.03 919.36 C 247.63 920.14 254.28 919.40 260.89 920.06 C 273.06 921.24 285.31 921.17 297.53 921.77 C 297.57 922.11 297.65 922.79 297.69 923.13 C 294.47 923.68 291.22 923.01 288.02 922.76 C 277.67 922.06 267.32 921.71 256.96 921.38 C 247.71 919.85 238.30 920.78 229.01 919.75 C 219.66 919.24 210.32 918.67 200.96 918.45 C 196.35 917.55 191.24 916.80 187.60 913.58 Z" />
<path fill="#8c882a" opacity="0.61" d=" M 384.98 1055.17 C 390.39 1055.01 395.69 1053.57 401.12 1053.67 C 400.43 1055.92 397.84 1055.16 396.09 1055.48 C 388.33 1055.61 380.71 1057.28 372.95 1057.30 C 365.00 1058.71 356.68 1059.87 348.72 1057.93 L 350.27 1057.14 C 361.86 1058.69 373.42 1055.83 384.98 1055.17 Z" />
</g>
<g id="#30300e36">
<path fill="#30300e" opacity="0.21" d=" M 605.93 938.58 C 608.29 938.50 610.69 938.37 613.06 938.69 C 618.69 939.83 624.47 939.98 630.20 939.83 C 639.49 940.00 648.77 940.67 658.07 940.80 L 658.63 941.42 L 659.08 941.89 C 645.68 942.74 632.39 940.45 619.01 940.50 C 614.65 940.10 609.75 941.26 605.93 938.58 Z" />
</g>
<g id="#9b972fac">
<path fill="#9b972f" opacity="0.67" d=" M 613.06 938.69 C 617.67 937.74 622.38 938.53 627.03 938.63 C 628.24 938.54 629.39 938.88 630.20 939.83 C 624.47 939.98 618.69 939.83 613.06 938.69 Z" />
<path fill="#9b972f" opacity="0.67" d=" M 775.20 1015.64 C 782.99 1015.56 790.66 1014.01 798.42 1013.70 C 794.80 1016.88 789.40 1015.25 784.99 1016.06 C 777.36 1017.32 769.57 1016.96 762.01 1018.69 C 757.31 1018.79 752.52 1019.65 747.90 1019.33 L 746.88 1018.64 C 749.62 1018.39 752.38 1018.28 755.14 1017.99 C 761.80 1017.12 768.76 1017.78 775.20 1015.64 Z" />
</g>
<g id="#33320f39">
<path fill="#33320f" opacity="0.22" d=" M 658.63 941.42 C 663.41 941.47 668.20 941.33 672.97 941.74 C 678.64 942.80 684.44 943.00 690.20 942.88 C 699.84 943.16 709.48 943.60 719.13 943.89 C 718.84 944.11 718.27 944.55 717.98 944.77 C 710.59 945.45 703.16 944.91 695.80 944.23 C 688.87 943.79 681.93 943.76 675.01 943.48 C 669.65 943.37 664.45 941.76 659.08 941.89 L 658.63 941.42 Z" />
</g>
<g id="#6e6b217a">
<path fill="#6e6b21" opacity="0.48" d=" M 1010.98 992.01 C 1016.39 991.83 1021.69 990.16 1027.14 990.64 C 1022.11 993.04 1016.42 992.20 1011.07 993.04 C 1004.10 994.19 996.98 993.84 990.06 995.34 C 984.83 995.46 979.65 996.51 974.44 996.59 C 972.52 996.24 970.60 995.81 968.71 995.43 C 982.88 995.70 996.85 992.69 1010.98 992.01 Z" />
<path fill="#6e6b21" opacity="0.48" d=" M 709.02 1022.52 C 716.65 1021.28 724.39 1020.62 732.12 1020.31 L 733.94 1021.17 C 728.46 1021.79 722.92 1021.76 717.48 1022.70 C 712.99 1023.58 708.35 1022.97 703.93 1024.20 C 702.34 1023.51 700.66 1023.22 698.99 1022.89 L 698.35 1022.44 C 701.91 1022.03 705.46 1022.98 709.02 1022.52 Z" />
</g>
<g id="#6c692078">
<path fill="#6c6920" opacity="0.47" d=" M 1074.86 1008.78 C 1080.11 1006.96 1084.55 1003.51 1089.29 1000.69 C 1083.41 1007.81 1073.86 1010.82 1065.07 1012.51 C 1059.01 1012.74 1052.93 1014.75 1046.91 1013.52 C 1050.84 1012.42 1054.93 1012.18 1059.00 1012.05 C 1064.43 1011.90 1069.75 1010.55 1074.86 1008.78 Z" />
</g>
<g id="#65631f70">
<path fill="#65631f" opacity="0.44" d=" M 330.59 1004.60 C 332.89 1008.47 331.65 1013.16 332.51 1017.40 C 334.03 1025.32 333.78 1033.47 335.39 1041.39 C 336.24 1045.50 339.07 1048.75 341.26 1052.22 C 335.43 1048.81 333.73 1041.26 333.21 1034.98 C 333.23 1029.27 331.67 1023.72 331.57 1018.03 C 331.48 1013.53 329.93 1009.13 330.59 1004.60 Z" />
</g>
<g id="#73702380">
<path fill="#737023" opacity="0.50" d=" M 593.24 1033.96 C 599.05 1033.59 604.81 1032.56 610.63 1032.35 C 611.98 1032.55 613.33 1032.83 614.67 1033.16 C 608.36 1034.02 601.93 1033.71 595.68 1035.02 C 591.57 1035.74 587.37 1035.57 583.25 1036.21 C 579.27 1036.58 575.22 1037.70 571.26 1036.62 C 578.43 1034.61 585.98 1035.48 593.24 1033.96 Z" />
</g>
<g id="#69672075">
<path fill="#696720" opacity="0.46" d=" M 825.26 1035.31 C 838.43 1034.77 851.45 1032.18 864.64 1031.88 C 867.62 1031.99 870.60 1032.30 873.57 1032.67 C 864.42 1032.10 855.43 1034.17 846.31 1034.30 C 839.42 1035.65 832.39 1035.99 825.39 1036.48 L 825.26 1035.31 Z" />
</g>
<g id="#908c2ba0">
<path fill="#908c2b" opacity="0.63" d=" M 468.73 1047.38 C 471.71 1045.81 475.15 1046.22 478.39 1046.19 C 475.57 1048.13 471.94 1047.82 468.73 1047.38 Z" />
</g>
<g id="#77742484">
<path fill="#777424" opacity="0.52" d=" M 696.59 1048.62 C 702.99 1047.56 709.45 1046.94 715.94 1046.67 L 717.32 1047.51 C 705.86 1048.46 694.49 1050.11 683.02 1050.91 C 677.59 1050.80 672.37 1052.63 666.95 1052.57 C 660.71 1053.13 654.51 1054.11 648.23 1054.22 C 640.26 1055.73 632.12 1055.88 624.08 1056.94 C 617.29 1056.90 610.71 1058.73 603.94 1058.91 C 599.00 1059.14 594.03 1060.88 589.12 1059.66 C 594.68 1057.90 600.58 1058.40 606.30 1057.59 C 612.47 1056.57 618.75 1056.49 624.94 1055.51 C 638.31 1054.73 651.55 1052.48 664.94 1051.81 C 675.43 1050.27 686.01 1049.39 696.59 1048.62 Z" />
</g>
<g id="#89852997">
<path fill="#898529" opacity="0.59" d=" M 536.03 1064.36 C 550.27 1063.53 564.35 1060.94 578.62 1060.58 L 580.89 1061.21 C 556.53 1063.38 532.29 1066.32 507.93 1068.41 C 504.28 1068.89 500.63 1069.74 496.94 1069.16 C 498.74 1068.62 500.54 1068.01 502.40 1067.70 C 513.61 1066.59 524.88 1066.00 536.03 1064.36 Z" />
</g>
<g id="#74712381">
<path fill="#747123" opacity="0.51" d=" M 455.47 1072.58 C 467.39 1072.16 479.13 1069.71 491.06 1069.41 L 492.87 1070.15 C 486.62 1071.16 480.23 1070.73 474.05 1072.19 C 468.54 1072.28 463.06 1073.53 457.59 1073.52 C 457.06 1073.28 456.00 1072.81 455.47 1072.58 Z" />
</g>
<g id="#95912da5">
<path fill="#95912d" opacity="0.65" d=" M 434.79 1075.25 C 441.52 1073.35 448.55 1073.24 455.47 1072.58 C 456.00 1072.81 457.06 1073.28 457.59 1073.52 C 449.64 1073.70 441.89 1075.84 433.93 1075.60 L 434.79 1075.25 Z" />
</g>
<g id="#66631f71">
<path fill="#66631f" opacity="0.44" d=" M 413.96 1077.36 C 420.86 1076.31 427.79 1075.13 434.79 1075.25 L 433.93 1075.60 C 427.57 1077.71 420.59 1077.24 413.96 1077.36 Z" />
</g>
</svg>
