<?xml version="1.0" encoding="UTF-8" ?>
<!DOCTYPE svg PUBLIC "-//W3C//DTD SVG 1.1//EN" "http://www.w3.org/Graphics/SVG/1.1/DTD/svg11.dtd">
<svg width="1276pt" height="1276pt" viewBox="0 0 1276 1276" version="1.1" xmlns="http://www.w3.org/2000/svg">
<g id="#638f34ff">
<path fill="#638f34" opacity="1.00" d=" M 200.00 199.00 C 297.33 199.00 394.66 199.00 491.98 199.00 C 492.13 238.62 509.24 277.88 538.43 304.71 C 569.55 334.25 614.29 348.54 656.79 342.78 C 693.73 338.18 728.45 318.63 751.70 289.58 C 772.30 264.19 783.84 231.69 784.02 199.00 C 882.34 199.00 980.67 199.00 1079.00 199.00 C 1079.00 492.00 1079.00 785.00 1079.00 1078.00 C 786.00 1078.00 493.00 1078.00 200.00 1078.00 C 200.00 785.00 200.00 492.00 200.00 199.00 M 903.48 601.72 C 880.49 604.74 859.07 617.95 846.19 637.24 C 834.15 654.82 829.47 677.18 833.31 698.12 C 837.83 724.44 856.08 747.84 880.49 758.67 C 904.54 769.74 933.88 768.13 956.57 754.48 C 975.49 743.39 989.53 724.41 994.65 703.09 C 1000.92 677.99 994.49 650.07 977.62 630.42 C 960.00 608.96 930.94 597.85 903.48 601.72 M 393.01 617.01 C 392.99 652.67 393.01 688.33 392.99 723.99 C 357.33 724.01 321.67 723.99 286.01 724.01 C 286.00 752.67 286.00 781.33 286.01 809.99 C 321.67 810.01 357.33 809.99 392.99 810.01 C 393.01 845.67 392.99 881.33 393.01 916.99 C 421.67 917.00 450.33 917.00 478.99 916.99 C 479.01 881.33 478.99 845.67 479.01 810.01 C 514.67 809.99 550.33 810.01 585.99 809.99 C 586.00 781.33 586.00 752.67 585.99 724.01 C 550.33 723.99 514.67 724.01 479.01 723.99 C 478.99 688.33 479.01 652.67 478.99 617.01 C 450.33 617.00 421.67 616.99 393.01 617.01 M 766.44 764.73 C 737.52 768.39 711.51 788.62 700.93 815.78 C 692.95 835.45 693.05 858.22 701.17 877.83 C 709.72 898.95 727.47 916.09 748.88 923.88 C 772.50 932.77 800.14 929.92 821.42 916.34 C 838.98 905.42 852.04 887.60 857.26 867.60 C 863.72 843.66 858.58 816.98 843.65 797.17 C 826.28 773.43 795.56 760.53 766.44 764.73 Z" />
</g>
<g id="#d2e6bcff">
<path fill="#d2e6bc" opacity="1.00" d=" M 903.48 601.72 C 930.94 597.85 960.00 608.96 977.62 630.42 C 994.49 650.07 1000.92 677.99 994.65 703.09 C 989.53 724.41 975.49 743.39 956.57 754.48 C 933.88 768.13 904.54 769.74 880.49 758.67 C 856.08 747.84 837.83 724.44 833.31 698.12 C 829.47 677.18 834.15 654.82 846.19 637.24 C 859.07 617.95 880.49 604.74 903.48 601.72 Z" />
<path fill="#d2e6bc" opacity="1.00" d=" M 393.01 617.01 C 421.67 616.99 450.33 617.00 478.99 617.01 C 479.01 652.67 478.99 688.33 479.01 723.99 C 514.67 724.01 550.33 723.99 585.99 724.01 C 586.00 752.67 586.00 781.33 585.99 809.99 C 550.33 810.01 514.67 809.99 479.01 810.01 C 478.99 845.67 479.01 881.33 478.99 916.99 C 450.33 917.00 421.67 917.00 393.01 916.99 C 392.99 881.33 393.01 845.67 392.99 810.01 C 357.33 809.99 321.67 810.01 286.01 809.99 C 286.00 781.33 286.00 752.67 286.01 724.01 C 321.67 723.99 357.33 724.01 392.99 723.99 C 393.01 688.33 392.99 652.67 393.01 617.01 Z" />
<path fill="#d2e6bc" opacity="1.00" d=" M 766.44 764.73 C 795.56 760.53 826.28 773.43 843.65 797.17 C 858.58 816.98 863.72 843.66 857.26 867.60 C 852.04 887.60 838.98 905.42 821.42 916.34 C 800.14 929.92 772.50 932.77 748.88 923.88 C 727.47 916.09 709.72 898.95 701.17 877.83 C 693.05 858.22 692.95 835.45 700.93 815.78 C 711.51 788.62 737.52 768.39 766.44 764.73 Z" />
</g>
</svg>
