<?xml version="1.0" encoding="UTF-8" ?>
<!DOCTYPE svg PUBLIC "-//W3C//DTD SVG 1.1//EN" "http://www.w3.org/Graphics/SVG/1.1/DTD/svg11.dtd">
<svg width="1276pt" height="1276pt" viewBox="0 0 1276 1276" version="1.1" xmlns="http://www.w3.org/2000/svg">
<g id="#17b3e8ff">
<path fill="#17b3e8" opacity="1.00" d=" M 228.55 314.52 C 248.34 299.38 273.35 292.45 297.98 291.43 C 334.92 291.42 371.86 291.43 408.79 291.42 C 408.74 401.27 408.80 511.12 408.77 620.97 C 409.26 655.55 414.24 690.39 426.39 722.91 C 436.66 750.39 452.41 776.06 473.55 796.52 C 496.10 818.62 524.43 834.36 554.55 843.51 C 580.89 851.65 608.51 855.03 636.01 855.32 C 661.14 855.54 686.38 853.13 710.82 847.07 C 735.97 840.89 760.19 830.50 781.50 815.70 C 800.76 802.21 817.47 785.07 830.34 765.38 C 845.27 742.84 855.30 717.28 861.38 691.00 C 867.74 663.84 869.73 635.86 869.59 608.03 C 869.57 502.50 869.61 396.97 869.57 291.44 C 903.39 291.41 937.21 291.43 971.04 291.43 C 985.92 291.03 1000.90 292.88 1015.17 297.18 C 1037.79 303.73 1058.25 317.98 1071.43 337.59 C 1086.52 359.89 1092.37 387.36 1091.94 414.00 C 1091.95 540.99 1091.94 667.98 1091.94 794.98 C 1091.88 808.59 1092.32 822.24 1090.92 835.81 C 1088.99 858.93 1083.98 882.02 1074.08 903.10 C 1066.36 919.59 1055.53 934.74 1041.77 946.73 C 1026.77 959.97 1008.64 969.36 989.60 975.31 C 967.13 982.20 943.49 984.98 920.03 984.57 C 733.04 984.58 546.05 984.57 359.06 984.58 C 327.45 985.10 295.17 980.36 266.45 966.63 C 251.98 959.55 238.65 950.03 227.65 938.25 C 214.42 924.08 204.61 906.93 198.19 888.70 C 190.59 867.32 187.17 844.62 186.42 822.01 C 185.77 808.01 186.15 794.00 186.06 779.99 C 186.06 663.33 186.06 546.66 186.06 430.00 C 185.93 411.62 185.76 392.95 190.53 375.05 C 196.05 351.45 209.01 329.19 228.55 314.52 Z" />
<path fill="#17b3e8" opacity="1.00" d=" M 519.37 291.40 C 599.31 291.55 679.25 291.23 759.19 291.56 C 759.04 303.71 759.21 315.85 759.10 328.00 C 759.16 349.00 759.16 370.00 759.10 391.00 C 759.15 394.66 759.15 398.33 759.10 401.99 C 759.16 408.33 759.15 414.67 759.10 421.00 C 759.16 435.34 759.14 449.67 759.11 464.00 C 759.10 466.00 759.10 468.00 759.11 470.00 C 759.15 478.00 759.13 486.00 759.11 494.00 C 759.09 495.66 759.09 497.33 759.11 499.00 C 759.15 502.67 759.14 506.33 759.11 510.01 C 759.11 512.33 759.12 514.66 759.12 517.00 C 759.10 518.99 759.10 520.99 759.11 523.00 C 759.14 527.00 759.15 531.00 759.10 535.00 C 759.16 543.33 759.15 551.67 759.11 560.00 C 759.13 562.66 759.13 565.33 759.10 568.00 C 759.15 571.67 759.15 575.33 759.10 579.00 C 759.13 581.67 759.13 584.34 759.11 587.01 C 759.13 590.00 759.14 593.00 759.10 596.00 C 759.15 600.33 759.16 604.66 759.09 609.00 C 759.29 638.56 753.85 668.90 738.82 694.70 C 725.02 718.83 702.46 738.18 675.80 746.56 C 642.19 757.14 603.43 752.97 574.19 732.75 C 557.81 721.52 544.64 705.84 535.87 688.07 C 525.10 667.09 520.32 643.47 519.38 620.03 C 519.36 510.49 519.39 400.95 519.37 291.40 Z" />
</g>
</svg>
