<?xml version="1.0" encoding="UTF-8" ?>
<!DOCTYPE svg PUBLIC "-//W3C//DTD SVG 1.1//EN" "http://www.w3.org/Graphics/SVG/1.1/DTD/svg11.dtd">
<svg width="1276pt" height="1276pt" viewBox="0 0 1276 1276" version="1.1" xmlns="http://www.w3.org/2000/svg">
<g id="#ffffffff">
<path fill="#ffffff" opacity="1.00" d=" M 352.01 174.46 C 362.37 173.94 373.21 172.74 383.07 176.79 C 391.41 180.79 398.05 188.06 401.19 196.76 C 401.47 198.16 401.78 199.55 402.16 200.92 C 402.93 207.08 403.27 213.75 400.41 219.44 C 401.64 219.69 402.90 219.98 404.18 219.73 C 411.08 218.94 418.05 219.90 424.95 219.16 C 434.78 218.36 445.58 219.13 453.60 225.53 C 465.74 234.11 470.72 251.08 465.26 264.89 C 476.87 265.03 488.45 264.19 500.07 264.41 C 502.84 264.45 505.52 265.26 508.23 265.80 C 519.85 269.76 529.71 280.24 530.85 292.74 C 547.27 292.66 563.68 291.79 580.12 291.99 C 583.48 292.04 586.71 293.10 589.90 294.08 C 598.06 297.35 604.78 303.77 608.34 311.82 C 609.28 314.66 610.13 317.54 610.78 320.47 C 619.47 319.43 628.26 320.44 636.96 319.47 C 650.25 320.31 664.25 316.42 676.88 322.18 C 679.16 323.32 681.31 324.72 683.30 326.32 C 719.47 323.30 755.80 322.65 792.04 323.88 C 810.44 324.48 828.77 326.34 847.11 327.86 C 856.79 328.97 866.44 330.40 876.05 332.03 C 878.32 332.36 880.60 332.66 882.84 333.19 C 884.86 333.44 886.91 333.65 888.92 334.04 C 895.01 335.25 901.09 336.55 907.13 337.98 C 908.88 338.34 910.67 338.62 912.45 338.97 C 918.71 340.53 924.94 342.21 931.17 343.90 C 937.96 345.46 944.46 347.99 951.15 349.90 C 956.57 351.66 961.83 353.90 967.24 355.71 C 984.39 362.55 1001.34 369.90 1017.81 378.25 C 1074.70 406.57 1127.10 445.06 1167.86 494.09 C 1174.53 501.98 1176.99 512.91 1174.99 522.97 C 1173.38 530.20 1169.77 536.74 1167.35 543.70 C 1159.81 562.41 1152.33 581.13 1144.87 599.87 C 1139.09 614.18 1133.48 628.57 1127.75 642.91 C 1126.34 646.68 1124.60 650.32 1123.21 654.10 C 1115.81 672.69 1108.40 691.28 1100.90 709.83 C 1100.52 710.83 1100.15 711.83 1099.79 712.84 C 1098.37 716.65 1096.55 720.30 1095.21 724.15 C 1087.51 743.72 1079.39 763.14 1071.92 782.80 C 1064.43 801.11 1057.17 819.50 1049.84 837.87 C 1047.94 842.89 1045.62 847.74 1043.88 852.82 C 1040.36 861.17 1037.21 869.67 1033.69 878.02 C 1029.88 888.02 1025.71 897.87 1021.83 907.84 C 1019.99 912.88 1017.59 917.69 1015.92 922.80 C 1006.49 946.12 997.25 969.52 987.93 992.89 C 984.46 1001.15 981.34 1009.55 977.85 1017.80 C 976.21 1022.69 973.93 1027.32 972.17 1032.16 C 970.19 1037.43 967.87 1042.57 965.90 1047.86 C 961.52 1058.82 957.08 1069.76 952.78 1080.76 C 949.65 1088.64 943.40 1095.09 935.83 1098.84 C 929.14 1101.49 921.70 1103.05 914.58 1101.26 C 906.60 1099.74 899.29 1095.16 894.37 1088.71 C 868.28 1057.50 836.41 1031.41 801.75 1010.23 C 801.28 1009.97 800.34 1009.45 799.87 1009.18 C 793.64 1005.34 787.29 1001.70 780.85 998.23 C 751.52 982.56 720.91 968.92 688.76 960.12 C 678.84 957.90 669.08 954.97 659.02 953.42 C 647.34 951.42 635.73 948.87 623.88 948.09 C 599.39 945.02 574.71 943.13 550.02 943.36 C 548.65 943.38 547.30 943.21 545.99 942.86 C 540.99 942.69 535.99 942.70 530.99 942.86 C 523.71 944.06 516.24 942.82 508.89 943.56 C 498.59 943.70 488.31 944.44 478.02 944.99 C 467.59 945.52 457.19 947.18 446.72 946.75 C 432.35 945.30 419.78 933.60 417.40 919.31 C 407.59 919.09 397.80 919.83 387.99 919.63 C 385.68 919.63 383.33 919.49 381.10 920.18 C 376.02 920.27 370.93 920.25 365.85 920.20 C 356.16 918.80 347.00 913.55 341.46 905.40 C 336.29 897.41 334.08 887.30 336.65 878.01 C 332.39 878.06 328.14 877.85 323.89 878.10 C 316.31 879.07 308.64 877.88 301.07 878.97 C 291.93 879.01 282.41 876.02 275.91 869.39 C 271.50 865.31 268.41 859.94 266.69 854.23 C 265.94 849.95 265.20 845.61 265.80 841.27 C 255.87 841.78 245.94 841.38 236.01 841.85 C 225.25 841.81 214.65 836.14 208.73 827.15 C 202.71 818.42 201.32 806.85 204.76 796.86 C 205.14 795.85 205.52 794.84 205.88 793.83 C 206.42 792.52 206.95 791.19 207.51 789.91 C 196.85 789.33 185.64 792.35 175.51 787.69 C 164.64 783.54 156.76 773.28 154.84 761.90 C 154.54 757.97 154.32 753.97 155.05 750.09 C 155.62 746.81 156.84 743.70 158.08 740.64 C 149.11 740.90 140.10 741.85 131.12 740.92 C 122.49 739.55 114.18 734.96 109.03 727.81 C 101.46 718.37 100.68 704.89 104.85 693.83 C 108.76 684.92 111.85 675.68 115.97 666.88 C 119.47 660.31 125.38 655.16 132.16 652.16 C 136.56 650.44 141.24 649.61 145.94 649.29 C 145.65 649.05 145.09 648.55 144.80 648.31 C 142.30 644.56 140.02 640.61 138.71 636.27 C 138.51 634.81 138.29 633.34 138.04 631.91 C 137.42 628.68 137.53 625.37 137.95 622.14 C 138.33 620.49 138.61 618.84 138.93 617.19 C 140.61 613.08 142.41 609.01 143.91 604.84 C 147.17 597.61 149.00 589.50 154.41 583.46 C 157.97 579.15 162.80 576.08 167.90 573.90 C 168.95 573.59 169.98 573.27 171.02 572.93 C 172.46 572.67 173.91 572.44 175.36 572.24 C 168.93 563.92 166.32 552.60 169.14 542.40 C 171.58 534.44 175.30 526.97 178.06 519.13 C 182.30 506.09 194.65 496.42 208.35 495.50 C 200.58 488.69 196.46 478.18 197.03 467.93 C 197.72 459.09 202.15 451.22 205.23 443.08 C 206.75 438.56 208.78 434.25 210.59 429.85 C 216.35 419.13 228.26 411.70 240.53 412.22 C 236.91 407.35 233.91 401.94 232.87 395.89 C 232.45 390.27 232.35 384.55 234.02 379.11 C 237.68 370.38 240.98 361.51 244.69 352.81 C 249.52 342.91 259.49 336.61 270.08 334.47 C 269.00 333.02 267.98 331.52 267.02 330.00 C 264.47 324.57 262.66 318.67 262.72 312.64 C 263.62 301.41 269.69 291.59 273.23 281.11 C 276.27 272.11 283.17 264.78 291.75 260.80 C 295.62 259.58 299.55 258.32 303.66 258.35 C 296.54 252.34 292.28 243.28 291.97 234.02 C 291.29 224.05 296.41 215.09 299.87 206.08 C 301.58 201.22 303.61 196.48 305.76 191.80 C 310.09 184.50 316.96 178.58 325.17 176.16 C 333.94 173.99 343.06 174.52 352.01 174.46 M 334.93 208.55 C 331.99 216.73 328.44 224.68 325.38 232.82 C 336.73 232.42 348.10 232.42 359.46 232.29 C 362.70 224.02 366.24 215.86 369.27 207.51 C 364.82 207.38 360.39 207.55 355.97 207.99 C 348.95 208.01 341.93 207.85 334.93 208.55 M 388.98 253.59 C 385.08 262.94 381.33 272.35 377.67 281.79 C 383.11 281.76 388.56 281.90 393.99 281.41 C 403.57 281.45 413.21 281.29 422.73 280.64 C 426.45 271.24 430.11 261.81 434.03 252.49 C 419.02 253.13 404.00 253.21 388.98 253.59 M 304.99 292.18 C 301.98 299.26 299.52 306.58 296.25 313.55 C 305.47 313.50 314.70 313.74 323.88 312.79 C 326.77 305.48 329.52 298.12 332.62 290.90 C 323.44 292.10 314.13 290.72 304.99 292.18 M 458.01 298.72 C 451.91 298.40 445.87 299.62 439.77 299.27 C 434.96 310.60 430.64 322.12 425.95 333.49 C 435.64 333.36 445.32 333.25 455.00 333.11 C 458.60 332.27 462.32 332.75 465.98 332.65 C 472.10 332.83 478.19 332.10 484.30 332.34 C 486.38 326.54 489.06 320.99 491.12 315.18 C 493.43 309.46 495.83 303.77 497.85 297.93 C 491.22 297.61 484.63 298.66 478.01 298.37 C 471.33 298.13 464.69 298.96 458.01 298.72 M 547.96 325.90 C 539.66 326.79 531.30 325.97 523.00 326.66 C 517.39 326.80 511.77 326.71 506.17 326.68 C 500.17 341.19 494.39 355.78 488.67 370.39 C 492.16 370.40 495.65 370.55 499.14 370.28 C 506.07 369.54 513.08 370.49 520.01 369.65 C 525.79 369.27 531.59 369.72 537.38 369.41 C 545.03 368.41 552.81 369.67 560.47 368.53 C 561.73 365.43 562.98 362.33 564.08 359.18 C 568.72 347.99 573.14 336.72 577.59 325.46 C 567.70 325.18 557.85 326.22 547.96 325.90 M 359.52 339.42 C 356.30 347.95 352.54 356.28 349.55 364.90 C 354.36 365.06 359.17 364.86 363.97 364.49 C 371.20 364.41 378.45 364.66 385.66 363.82 C 389.11 355.44 392.33 346.97 395.80 338.60 C 391.85 338.40 387.92 338.81 383.99 339.12 C 375.83 338.44 367.69 339.74 359.52 339.42 M 613.99 353.88 C 603.22 353.64 592.49 354.64 581.71 354.38 C 577.64 365.02 573.22 375.52 569.09 386.14 C 565.65 394.57 562.35 403.04 558.92 411.47 C 571.63 411.68 584.32 411.19 597.02 411.15 C 602.99 410.13 609.09 411.01 615.11 410.64 C 623.39 409.86 631.75 410.96 640.00 409.74 C 644.14 398.46 649.03 387.46 653.19 376.18 C 656.46 368.35 659.39 360.39 662.70 352.58 C 655.14 352.65 647.60 353.26 640.03 353.00 C 631.37 353.91 622.65 352.98 613.99 353.88 M 736.05 357.17 C 724.23 357.36 712.43 358.01 700.63 358.63 C 690.75 359.39 680.86 360.15 670.97 360.74 C 668.94 366.93 666.05 372.79 663.86 378.92 C 658.41 392.28 653.21 405.73 647.71 419.07 C 646.10 423.84 643.89 428.37 642.14 433.09 C 641.54 434.67 640.93 436.24 640.32 437.81 C 647.20 437.80 654.11 438.17 660.98 437.51 C 668.63 437.18 676.32 437.83 683.96 437.05 C 691.28 436.77 698.63 437.41 705.94 436.59 C 712.96 436.08 720.17 437.25 727.09 436.03 C 728.72 433.16 729.80 430.02 730.99 426.96 C 740.25 403.53 749.68 380.17 758.89 356.73 C 751.26 356.27 743.68 357.51 736.05 357.17 M 768.57 356.46 C 759.45 378.47 750.78 400.69 741.91 422.81 C 740.27 427.10 738.34 431.27 736.76 435.59 C 713.30 493.98 690.13 552.49 666.71 610.90 C 660.67 625.85 654.88 640.92 648.65 655.80 C 637.43 684.96 625.51 713.85 614.00 742.90 C 602.22 772.66 590.02 802.27 578.49 832.13 C 577.31 834.78 576.15 837.45 575.12 840.18 C 565.91 863.25 556.86 886.40 547.35 909.35 C 551.57 909.46 555.78 909.82 560.01 909.72 C 583.78 910.06 607.49 912.41 631.13 914.85 C 651.22 917.62 671.21 921.17 690.91 925.99 C 712.84 931.54 734.22 939.05 754.87 948.26 C 780.42 959.40 805.19 972.38 828.63 987.48 C 863.33 1009.68 894.95 1036.84 921.33 1068.52 C 929.16 1049.82 936.45 1030.90 944.05 1012.11 C 947.74 1002.77 951.58 993.49 955.18 984.11 C 956.98 979.05 959.39 974.24 961.09 969.15 C 970.43 946.12 979.61 923.03 988.80 899.95 C 996.32 881.36 1003.70 862.72 1011.17 844.12 C 1022.39 815.75 1033.80 787.45 1045.06 759.10 C 1052.48 740.83 1059.67 722.48 1067.08 704.21 C 1072.67 689.83 1078.70 675.62 1084.12 661.18 C 1091.57 642.89 1098.81 624.53 1106.17 606.21 C 1108.01 601.13 1110.37 596.27 1112.15 591.18 C 1119.57 572.86 1126.83 554.49 1134.20 536.16 C 1136.01 531.10 1138.40 526.27 1140.14 521.19 C 1140.80 519.43 1141.50 517.69 1142.19 515.95 C 1100.59 465.24 1045.14 427.32 985.85 400.14 C 981.93 398.41 978.12 396.48 974.16 394.86 C 959.13 388.39 943.83 382.53 928.13 377.90 C 911.01 372.90 893.60 368.84 876.00 365.95 C 867.02 364.58 858.09 362.97 849.08 361.85 C 846.03 361.54 842.96 361.40 839.92 361.08 C 829.19 359.87 818.41 359.03 807.63 358.36 C 795.44 357.43 783.21 357.07 770.98 357.15 C 770.17 356.91 769.37 356.68 768.57 356.46 M 273.90 369.75 C 271.44 376.44 268.57 382.97 266.14 389.67 C 275.19 389.95 284.22 389.47 293.26 389.44 C 295.79 381.95 299.34 374.87 301.81 367.36 C 294.22 367.53 286.63 367.85 279.04 367.67 C 277.20 367.70 274.40 367.39 273.90 369.75 M 412.65 384.70 C 408.29 394.84 404.11 405.07 400.36 415.45 C 408.88 414.55 417.47 415.43 425.99 414.55 C 433.29 414.40 440.60 414.70 447.88 413.91 C 452.04 403.80 456.04 393.63 460.06 383.46 C 453.70 383.94 447.33 383.67 440.97 383.79 C 431.56 384.81 422.08 384.03 412.65 384.70 M 491.98 414.40 C 487.28 414.78 482.54 414.08 477.88 414.73 C 472.31 427.68 467.33 440.90 462.05 453.98 C 464.41 454.00 466.77 454.05 469.13 453.90 C 477.08 453.01 485.10 453.97 493.05 453.05 C 503.38 453.17 513.68 452.47 524.01 452.51 C 528.85 439.25 534.33 426.23 539.57 413.13 C 531.71 413.38 523.86 413.71 515.99 413.62 C 508.00 414.39 499.96 413.57 491.98 414.40 M 328.96 415.87 C 325.76 424.36 322.31 432.75 318.90 441.17 C 330.99 440.57 343.10 440.70 355.21 440.29 C 358.43 431.81 362.05 423.49 365.20 414.98 C 353.12 415.33 341.04 415.36 328.96 415.87 M 588.05 441.54 C 576.68 441.39 565.34 442.20 553.98 442.06 C 547.89 458.25 540.91 474.10 534.97 490.33 C 541.98 490.37 549.01 490.66 556.00 489.84 C 571.69 489.73 587.38 489.42 603.07 489.27 C 609.68 473.12 616.08 456.89 622.55 440.68 C 618.66 440.67 614.77 440.54 610.90 440.82 C 603.30 441.53 595.65 440.78 588.05 441.54 M 240.16 446.22 C 236.73 454.22 233.63 462.38 230.38 470.47 C 236.96 469.46 243.64 470.36 250.25 469.87 C 255.06 469.36 259.90 469.59 264.73 469.61 C 265.55 467.46 266.38 465.30 267.21 463.15 C 269.44 457.03 272.45 451.19 274.19 444.89 C 264.45 445.60 254.65 445.35 244.88 445.48 C 243.31 445.67 241.58 445.44 240.16 446.22 M 636.84 447.12 C 636.59 447.55 636.10 448.41 635.85 448.84 C 632.30 457.95 628.50 466.95 625.02 476.09 C 619.83 489.04 614.77 502.05 609.42 514.94 C 614.95 514.95 620.51 515.25 626.03 514.68 C 633.60 514.20 641.23 515.00 648.79 514.20 C 654.52 513.91 660.27 514.22 666.01 514.07 C 676.16 513.12 686.37 514.11 696.53 513.22 C 696.94 512.10 697.36 510.98 697.76 509.86 C 703.25 496.55 708.39 483.10 713.90 469.80 C 715.60 464.71 717.99 459.88 719.84 454.84 C 720.99 451.79 722.20 448.75 723.39 445.71 C 715.93 445.85 708.45 445.34 701.04 446.24 C 679.62 446.17 658.25 447.16 636.84 447.12 M 400.98 460.73 C 394.58 461.05 388.03 460.02 381.75 461.62 C 377.57 471.50 373.92 481.61 369.81 491.53 C 377.53 490.78 385.30 491.67 393.01 490.76 C 401.13 490.69 409.24 490.65 417.36 490.37 C 421.40 480.17 425.46 469.99 429.61 459.84 C 420.08 460.71 410.51 460.07 400.98 460.73 M 294.41 490.67 C 290.34 500.05 286.49 509.54 283.03 519.16 C 297.99 518.98 312.96 518.38 327.94 518.31 C 329.61 512.77 332.29 507.62 334.24 502.18 C 335.55 497.95 337.99 494.13 338.85 489.76 C 336.87 489.76 334.90 489.79 332.93 489.88 C 330.98 490.36 328.98 490.43 326.99 490.41 C 316.12 490.19 305.28 490.97 294.41 490.67 M 447.47 490.63 C 441.93 503.75 436.86 517.07 431.59 530.30 C 452.18 529.09 472.84 529.80 493.44 528.71 C 498.42 515.60 503.99 502.73 508.88 489.60 C 488.39 489.49 467.96 490.88 447.47 490.63 M 544.01 517.77 C 537.27 518.51 530.50 518.42 523.75 518.36 C 517.09 534.42 510.77 550.61 504.31 566.75 C 508.55 566.77 512.79 566.88 517.03 566.73 C 525.33 566.03 533.68 566.76 541.98 566.00 C 552.29 566.23 562.56 565.21 572.87 565.46 C 579.06 549.35 585.63 533.39 591.90 517.32 C 575.93 517.24 559.97 517.84 544.01 517.77 M 625.95 523.84 C 619.26 524.85 612.44 524.06 605.69 524.30 C 596.82 546.96 587.57 569.48 578.68 592.14 C 581.79 592.12 584.91 592.22 588.03 592.08 C 596.98 591.11 606.00 592.13 614.97 591.38 C 620.64 591.22 626.32 591.38 632.01 591.33 C 643.14 590.33 654.35 590.91 665.52 590.50 C 674.68 568.16 683.45 545.66 692.39 523.22 C 670.24 523.20 648.10 523.69 625.95 523.84 M 210.29 529.42 C 207.17 536.56 204.33 543.84 201.82 551.22 C 210.78 551.61 219.71 550.75 228.66 550.60 C 231.87 543.35 234.45 535.86 237.60 528.59 C 228.50 528.94 219.35 528.41 210.29 529.42 M 350.97 536.50 C 348.93 536.62 346.89 536.58 344.85 536.60 C 340.22 548.02 335.57 559.43 331.27 570.98 C 333.88 570.99 336.50 571.09 339.11 570.85 C 346.08 570.05 353.13 571.04 360.10 570.20 C 366.32 569.79 372.56 570.44 378.77 569.80 C 382.31 569.48 385.86 569.64 389.41 569.65 C 391.53 564.09 393.98 558.67 396.05 553.11 C 398.36 547.19 400.90 541.37 403.05 535.39 C 393.36 535.18 383.69 535.89 374.00 535.71 C 366.35 536.65 358.63 535.69 350.97 536.50 M 411.39 564.14 C 405.36 578.57 399.58 593.12 393.94 607.71 C 409.32 607.51 424.70 607.27 440.09 607.16 C 448.44 605.95 456.96 607.13 465.37 606.26 C 471.17 591.77 477.11 577.35 482.67 562.77 C 477.74 562.77 472.81 562.67 467.88 562.83 C 464.00 563.74 459.98 563.20 456.03 563.32 C 451.00 563.13 445.99 563.76 440.96 563.68 C 431.09 563.43 421.27 564.54 411.39 564.14 M 283.01 576.51 C 276.84 576.25 270.71 577.00 264.54 577.11 C 261.41 585.59 257.74 593.85 254.67 602.34 C 261.13 602.72 267.55 601.53 274.01 601.75 C 279.56 601.88 285.10 601.51 290.65 601.52 C 294.28 593.12 297.46 584.54 300.95 576.09 C 294.96 575.68 289.01 576.79 283.01 576.51 M 486.81 591.67 C 486.16 593.42 485.50 595.18 484.86 596.95 C 479.40 610.29 474.21 623.73 468.72 637.06 C 467.34 641.10 465.57 645.00 463.95 648.95 C 475.33 649.38 486.66 648.29 498.04 648.55 C 506.07 647.66 514.17 648.61 522.20 647.71 C 529.82 647.56 537.46 647.81 545.07 647.22 C 549.22 636.11 553.88 625.21 558.17 614.17 C 560.01 609.12 562.40 604.30 564.11 599.20 C 565.27 596.19 566.58 593.24 567.84 590.27 C 556.56 590.46 545.28 590.45 534.01 590.76 C 528.65 590.68 523.29 590.66 517.96 591.31 C 507.57 591.10 497.20 591.82 486.81 591.67 M 614.84 600.78 C 607.27 601.77 599.61 600.99 592.00 601.33 C 586.30 601.70 580.57 601.44 574.86 601.56 C 565.70 624.10 556.99 646.82 547.75 669.33 C 556.84 669.62 565.94 667.87 575.01 669.15 C 583.47 667.86 592.07 668.94 600.59 668.45 C 608.68 667.86 616.83 668.83 624.89 667.82 C 628.23 667.60 631.59 667.79 634.95 667.64 C 636.88 661.56 639.73 655.84 641.86 649.84 C 648.52 633.17 655.35 616.58 661.77 599.82 C 653.52 600.82 645.20 600.11 636.92 600.42 C 629.58 601.05 622.20 600.48 614.84 600.78 M 179.77 605.41 C 177.08 612.83 173.81 620.02 171.11 627.43 C 180.19 627.34 189.26 626.73 198.35 627.01 C 200.94 619.58 204.46 612.52 206.86 605.03 C 197.82 604.63 188.80 605.57 179.77 605.41 M 331.98 621.96 C 327.13 621.84 322.28 622.02 317.46 622.48 C 313.31 632.48 309.54 642.63 305.39 652.63 C 321.23 652.38 337.08 652.10 352.92 651.58 C 357.04 641.37 361.13 631.14 365.16 620.90 C 360.13 621.26 355.09 621.64 350.04 621.48 C 344.01 621.23 338.01 622.15 331.98 621.96 M 383.78 651.89 C 382.08 652.97 381.70 655.18 380.85 656.88 C 376.45 668.44 371.61 679.82 367.29 691.42 C 373.51 691.72 379.72 690.56 385.94 691.09 C 390.30 691.45 394.64 690.50 399.01 690.59 C 408.99 690.77 418.96 690.13 428.95 690.25 C 433.98 677.02 439.43 663.94 444.61 650.77 C 424.35 651.53 404.06 651.56 383.78 651.89 M 224.15 678.40 C 236.22 678.65 248.26 677.82 260.33 677.88 C 263.46 669.31 267.08 660.93 270.39 652.43 C 258.44 652.13 246.51 652.98 234.56 652.65 C 230.89 661.15 227.60 669.81 224.15 678.40 M 575.05 678.38 C 564.72 678.09 554.42 678.87 544.09 678.74 C 542.89 681.37 541.85 684.08 540.85 686.81 C 532.99 706.75 524.64 726.52 517.15 746.61 C 525.44 746.20 533.75 746.33 542.06 746.26 C 549.72 745.32 557.44 746.01 565.14 745.71 C 573.70 744.88 582.33 745.88 590.89 745.07 C 595.22 744.82 599.56 745.00 603.89 744.96 C 609.31 731.61 614.55 718.19 619.84 704.81 C 623.64 695.57 627.37 686.30 630.97 676.99 C 621.98 677.31 612.99 677.63 603.99 677.48 C 594.37 678.44 584.68 677.47 575.05 678.38 M 459.20 679.54 C 452.93 695.77 446.11 711.78 439.98 728.06 C 462.92 726.84 485.90 726.72 508.84 725.50 C 515.09 709.81 521.34 694.12 527.53 678.41 C 523.38 678.38 519.23 678.28 515.09 678.50 C 507.04 679.08 498.96 678.36 490.93 679.25 C 480.35 679.15 469.78 679.78 459.20 679.54 M 145.19 683.11 C 142.46 691.41 138.72 699.32 135.80 707.55 C 145.91 707.66 156.01 707.05 166.13 707.29 C 167.39 707.03 168.64 706.77 169.90 706.49 C 170.95 704.86 171.46 702.96 172.16 701.18 C 174.70 694.83 177.28 688.49 179.77 682.11 C 173.25 683.04 166.65 682.13 160.11 682.68 C 155.16 683.29 150.16 682.82 145.19 683.11 M 287.27 698.13 C 283.05 708.33 279.11 718.64 274.93 728.86 C 290.33 728.64 305.73 728.12 321.14 727.94 C 322.74 728.20 323.01 726.49 323.50 725.42 C 327.21 716.08 330.95 706.76 334.62 697.41 C 318.82 697.16 303.05 698.18 287.27 698.13 M 223.96 728.00 C 215.66 727.76 207.38 728.35 199.09 728.53 C 197.49 733.03 195.45 737.36 193.83 741.85 C 191.99 746.87 189.55 751.67 188.00 756.82 C 195.22 756.06 202.48 756.64 209.71 756.27 C 217.48 755.41 225.37 756.76 233.09 755.31 C 236.67 746.01 240.53 736.83 244.14 727.54 C 237.41 727.42 230.67 727.39 223.96 728.00 M 375.06 727.88 C 367.47 728.14 359.86 727.77 352.28 728.49 C 347.34 741.53 341.86 754.37 336.87 767.40 C 347.61 767.71 358.31 766.79 369.05 766.98 C 378.90 766.17 388.80 766.81 398.66 765.90 C 403.59 752.86 409.12 740.06 414.02 727.01 C 407.99 727.07 401.95 726.76 395.93 727.25 C 388.99 727.86 382.00 727.10 375.06 727.88 M 451.98 755.42 C 444.24 755.46 436.51 755.51 428.78 756.06 C 422.09 772.04 415.78 788.18 409.43 804.30 C 423.92 803.34 438.45 803.66 452.96 803.27 C 461.32 802.31 469.76 803.13 478.15 802.49 C 484.15 786.27 491.22 770.45 497.12 754.19 C 490.10 754.76 483.06 754.47 476.03 754.67 C 468.02 755.37 459.98 754.59 451.98 755.42 M 571.03 754.58 C 563.01 755.24 554.96 754.89 546.93 755.04 C 541.30 755.72 535.64 755.46 529.99 755.49 C 524.30 755.29 518.66 756.18 512.97 756.14 C 511.32 761.49 508.62 766.46 506.91 771.80 C 499.77 789.09 493.07 806.54 486.12 823.91 C 489.05 823.32 492.05 823.36 495.03 823.40 C 506.36 823.61 517.66 822.69 529.00 823.00 C 537.01 822.12 545.07 822.70 553.10 822.43 C 559.79 821.62 566.53 822.16 573.24 821.97 C 577.31 810.96 582.00 800.19 586.19 789.23 C 589.77 780.44 593.24 771.62 596.79 762.83 C 597.88 759.92 599.04 757.04 600.22 754.17 C 590.48 754.09 580.77 754.90 571.03 754.58 M 288.86 773.07 C 282.30 773.76 275.69 773.10 269.12 773.50 C 263.37 774.03 257.60 773.63 251.85 773.77 C 250.24 773.23 249.64 774.98 249.20 776.09 C 245.68 784.64 242.33 793.26 238.88 801.85 C 238.12 803.85 237.29 805.82 236.48 807.81 C 241.99 808.63 247.59 808.20 253.14 808.16 C 260.72 807.09 268.39 808.14 276.00 807.42 C 281.85 807.23 287.72 807.37 293.58 807.36 C 293.94 807.10 294.68 806.57 295.04 806.31 C 299.26 794.99 304.00 783.87 308.25 772.56 C 301.81 773.39 295.31 772.61 288.86 773.07 M 340.93 801.37 C 332.77 801.16 324.64 801.69 316.49 801.72 C 310.39 816.06 304.67 830.58 299.07 845.12 C 306.36 844.71 313.69 845.43 320.96 844.60 C 326.26 844.34 331.56 844.72 336.86 844.43 C 343.28 843.63 349.76 844.38 356.20 843.91 C 361.00 843.40 365.85 843.70 370.67 843.60 C 373.30 836.64 376.24 829.80 378.90 822.85 C 382.14 815.27 384.82 807.47 388.12 799.91 C 380.74 800.59 373.33 800.46 365.93 800.49 C 357.62 801.38 349.25 800.52 340.93 801.37 M 415.12 828.86 C 407.45 828.98 399.78 828.75 392.15 829.51 C 391.01 831.10 390.54 833.06 389.81 834.86 C 388.00 839.91 385.59 844.72 383.91 849.82 C 378.78 861.99 374.21 874.38 369.05 886.54 C 375.03 886.73 380.99 886.13 386.97 886.27 C 390.63 886.19 394.34 886.59 397.96 885.82 C 405.63 885.57 413.32 885.95 420.98 885.36 C 430.74 885.66 440.45 884.71 450.21 884.87 C 452.20 878.83 454.96 873.11 457.11 867.15 C 462.34 853.94 467.57 840.73 472.96 827.59 C 461.62 827.20 450.33 828.26 438.99 828.02 C 431.06 828.97 423.05 827.96 415.12 828.86 M 535.01 831.73 C 526.04 832.82 516.98 831.67 508.00 832.56 C 499.42 832.76 490.83 832.25 482.28 833.18 C 477.91 844.44 473.43 855.65 468.84 866.82 C 462.88 882.41 456.24 897.75 450.45 913.40 C 479.68 911.01 508.95 909.34 538.28 909.45 C 548.31 883.36 559.23 857.59 569.09 831.46 C 557.72 831.21 546.37 831.92 535.01 831.73 Z" />
</g>
<g id="#000000ff">
<path fill="#000000" opacity="1.00" d=" M 334.93 208.55 C 341.93 207.85 348.95 208.01 355.97 207.99 C 360.39 207.55 364.82 207.38 369.27 207.51 C 366.24 215.86 362.70 224.02 359.46 232.29 C 348.10 232.42 336.73 232.42 325.38 232.82 C 328.44 224.68 331.99 216.73 334.93 208.55 Z" />
<path fill="#000000" opacity="1.00" d=" M 388.98 253.59 C 404.00 253.21 419.02 253.13 434.03 252.49 C 430.11 261.81 426.45 271.24 422.73 280.64 C 413.21 281.29 403.57 281.45 393.99 281.41 C 388.56 281.90 383.11 281.76 377.67 281.79 C 381.33 272.35 385.08 262.94 388.98 253.59 Z" />
<path fill="#000000" opacity="1.00" d=" M 458.01 298.72 C 464.69 298.96 471.33 298.13 478.01 298.37 C 484.63 298.66 491.22 297.61 497.85 297.93 C 495.83 303.77 493.43 309.46 491.12 315.18 C 489.06 320.99 486.38 326.54 484.30 332.34 C 478.19 332.10 472.10 332.83 465.98 332.65 C 462.32 332.75 458.60 332.27 455.00 333.11 C 445.32 333.25 435.64 333.36 425.95 333.49 C 430.64 322.12 434.96 310.60 439.77 299.27 C 445.87 299.62 451.91 298.40 458.01 298.72 Z" />
<path fill="#000000" opacity="1.00" d=" M 547.96 325.90 C 557.85 326.22 567.70 325.18 577.59 325.46 C 573.14 336.72 568.72 347.99 564.08 359.18 C 562.98 362.33 561.73 365.43 560.47 368.53 C 552.81 369.67 545.03 368.41 537.38 369.41 C 531.59 369.72 525.79 369.27 520.01 369.65 C 513.08 370.49 506.07 369.54 499.14 370.28 C 495.65 370.55 492.16 370.40 488.67 370.39 C 494.39 355.78 500.17 341.19 506.17 326.68 C 511.77 326.71 517.39 326.80 523.00 326.66 C 531.30 325.97 539.66 326.79 547.96 325.90 Z" />
<path fill="#000000" opacity="1.00" d=" M 613.99 353.88 C 622.65 352.98 631.37 353.91 640.03 353.00 C 647.60 353.26 655.14 352.65 662.70 352.58 C 659.39 360.39 656.46 368.35 653.19 376.18 C 649.03 387.46 644.14 398.46 640.00 409.74 C 631.75 410.96 623.39 409.86 615.11 410.64 C 609.09 411.01 602.99 410.13 597.02 411.15 C 584.32 411.19 571.63 411.68 558.92 411.47 C 562.35 403.04 565.65 394.57 569.09 386.14 C 573.22 375.52 577.64 365.02 581.71 354.38 C 592.49 354.64 603.22 353.64 613.99 353.88 Z" />
<path fill="#000000" opacity="1.00" d=" M 736.05 357.17 C 743.68 357.51 751.26 356.27 758.89 356.73 C 749.68 380.17 740.25 403.53 730.99 426.96 C 729.80 430.02 728.72 433.16 727.09 436.03 C 720.17 437.25 712.96 436.08 705.94 436.59 C 698.63 437.41 691.28 436.77 683.96 437.05 C 676.32 437.83 668.63 437.18 660.98 437.51 C 654.11 438.17 647.20 437.80 640.32 437.81 C 640.93 436.24 641.54 434.67 642.14 433.09 C 643.89 428.37 646.10 423.84 647.71 419.07 C 653.21 405.73 658.41 392.28 663.86 378.92 C 666.05 372.79 668.94 366.93 670.97 360.74 C 680.86 360.15 690.75 359.39 700.63 358.63 C 712.43 358.01 724.23 357.36 736.05 357.17 Z" />
<path fill="#000000" opacity="1.00" d=" M 768.57 356.46 C 769.37 356.68 770.17 356.91 770.98 357.15 C 783.21 357.07 795.44 357.43 807.63 358.36 C 818.41 359.03 829.19 359.87 839.92 361.08 C 842.96 361.40 846.03 361.54 849.08 361.85 C 858.09 362.97 867.02 364.58 876.00 365.95 C 893.60 368.84 911.01 372.90 928.13 377.90 C 943.83 382.53 959.13 388.39 974.16 394.86 C 978.12 396.48 981.93 398.41 985.85 400.14 C 1045.14 427.32 1100.59 465.24 1142.19 515.95 C 1141.50 517.69 1140.80 519.43 1140.14 521.19 C 1138.40 526.27 1136.01 531.10 1134.20 536.16 C 1126.83 554.49 1119.57 572.86 1112.15 591.18 C 1110.37 596.27 1108.01 601.13 1106.17 606.21 C 1098.81 624.53 1091.57 642.89 1084.12 661.18 C 1078.70 675.62 1072.67 689.83 1067.08 704.21 C 1059.67 722.48 1052.48 740.83 1045.06 759.10 C 1033.80 787.45 1022.39 815.75 1011.17 844.12 C 1003.70 862.72 996.32 881.36 988.80 899.95 C 979.61 923.03 970.43 946.12 961.09 969.15 C 959.39 974.24 956.98 979.05 955.18 984.11 C 951.58 993.49 947.74 1002.77 944.05 1012.11 C 936.45 1030.90 929.16 1049.82 921.33 1068.52 C 894.95 1036.84 863.33 1009.68 828.63 987.48 C 805.19 972.38 780.42 959.40 754.87 948.26 C 734.22 939.05 712.84 931.54 690.91 925.99 C 671.21 921.17 651.22 917.62 631.13 914.85 C 607.49 912.41 583.78 910.06 560.01 909.72 C 555.78 909.82 551.57 909.46 547.35 909.35 C 556.86 886.40 565.91 863.25 575.12 840.18 C 576.15 837.45 577.31 834.78 578.49 832.13 C 598.74 832.64 618.89 835.00 639.03 837.01 C 666.43 840.60 693.73 845.43 720.36 852.90 C 740.55 803.41 759.92 753.59 780.00 704.05 C 784.73 691.80 789.84 679.70 794.54 667.44 C 777.33 663.23 759.71 661.19 742.17 658.95 C 720.85 656.97 699.43 655.82 678.02 655.81 C 668.24 655.06 658.44 656.35 648.65 655.80 C 654.88 640.92 660.67 625.85 666.71 610.90 C 688.49 611.00 710.29 610.52 732.03 612.09 C 758.96 613.22 785.79 616.88 812.16 622.42 C 814.84 618.29 815.82 613.34 817.92 608.91 C 839.54 554.93 861.13 500.93 882.70 446.93 C 839.13 437.75 794.46 434.88 750.02 435.22 C 745.59 435.16 741.17 435.32 736.76 435.59 C 738.34 431.27 740.27 427.10 741.91 422.81 C 750.78 400.69 759.45 378.47 768.57 356.46 M 928.56 461.06 C 909.61 508.92 890.48 556.72 871.35 604.51 C 867.30 615.22 862.45 625.64 858.88 636.52 C 902.89 654.07 945.06 677.47 980.54 709.13 C 1004.22 650.76 1027.36 592.18 1050.84 533.73 C 1027.70 512.81 1001.32 495.67 973.69 481.29 C 958.96 473.90 944.11 466.57 928.56 461.06 M 840.75 681.11 C 824.05 723.15 807.14 765.10 790.40 807.13 C 782.10 827.40 774.37 847.90 765.96 868.12 C 809.89 885.41 852.01 907.55 890.66 934.72 C 914.60 874.40 938.80 814.18 962.80 753.88 C 927.19 722.13 884.86 698.78 840.75 681.11 Z" />
<path fill="#000000" opacity="1.00" d=" M 240.16 446.22 C 241.58 445.44 243.31 445.67 244.88 445.48 C 254.65 445.35 264.45 445.60 274.19 444.89 C 272.45 451.19 269.44 457.03 267.21 463.15 C 266.38 465.30 265.55 467.46 264.73 469.61 C 259.90 469.59 255.06 469.36 250.25 469.87 C 243.64 470.36 236.96 469.46 230.38 470.47 C 233.63 462.38 236.73 454.22 240.16 446.22 Z" />
<path fill="#000000" opacity="1.00" d=" M 636.84 447.12 C 658.25 447.16 679.62 446.17 701.04 446.24 C 708.45 445.34 715.93 445.85 723.39 445.71 C 722.20 448.75 720.99 451.79 719.84 454.84 C 717.99 459.88 715.60 464.71 713.90 469.80 C 708.39 483.10 703.25 496.55 697.76 509.86 C 697.36 510.98 696.94 512.10 696.53 513.22 C 686.37 514.11 676.16 513.12 666.01 514.07 C 660.27 514.22 654.52 513.91 648.79 514.20 C 641.23 515.00 633.60 514.20 626.03 514.68 C 620.51 515.25 614.95 514.95 609.42 514.94 C 614.77 502.05 619.83 489.04 625.02 476.09 C 628.50 466.95 632.30 457.95 635.85 448.84 C 636.10 448.41 636.59 447.55 636.84 447.12 Z" />
<path fill="#000000" opacity="1.00" d=" M 294.41 490.67 C 305.28 490.97 316.12 490.19 326.99 490.41 C 328.98 490.43 330.98 490.36 332.93 489.88 C 334.90 489.79 336.87 489.76 338.85 489.76 C 337.99 494.13 335.55 497.95 334.24 502.18 C 332.29 507.62 329.61 512.77 327.94 518.31 C 312.96 518.38 297.99 518.98 283.03 519.16 C 286.49 509.54 290.34 500.05 294.41 490.67 Z" />
<path fill="#000000" opacity="1.00" d=" M 625.95 523.84 C 648.10 523.69 670.24 523.20 692.39 523.22 C 683.45 545.66 674.68 568.16 665.52 590.50 C 654.35 590.91 643.14 590.33 632.01 591.33 C 626.32 591.38 620.64 591.22 614.97 591.38 C 606.00 592.13 596.98 591.11 588.03 592.08 C 584.91 592.22 581.79 592.12 578.68 592.14 C 587.57 569.48 596.82 546.96 605.69 524.30 C 612.44 524.06 619.26 524.85 625.95 523.84 Z" />
<path fill="#000000" opacity="1.00" d=" M 350.97 536.50 C 358.63 535.69 366.35 536.65 374.00 535.71 C 383.69 535.89 393.36 535.18 403.05 535.39 C 400.90 541.37 398.36 547.19 396.05 553.11 C 393.98 558.67 391.53 564.09 389.41 569.65 C 385.86 569.64 382.31 569.48 378.77 569.80 C 372.56 570.44 366.32 569.79 360.10 570.20 C 353.13 571.04 346.08 570.05 339.11 570.85 C 336.50 571.09 333.88 570.99 331.27 570.98 C 335.57 559.43 340.22 548.02 344.85 536.60 C 346.89 536.58 348.93 536.62 350.97 536.50 Z" />
<path fill="#000000" opacity="1.00" d=" M 411.39 564.14 C 421.27 564.54 431.09 563.43 440.96 563.68 C 445.99 563.76 451.00 563.13 456.03 563.32 C 459.98 563.20 464.00 563.74 467.88 562.83 C 472.81 562.67 477.74 562.77 482.67 562.77 C 477.11 577.35 471.17 591.77 465.37 606.26 C 456.96 607.13 448.44 605.95 440.09 607.16 C 424.70 607.27 409.32 607.51 393.94 607.71 C 399.58 593.12 405.36 578.57 411.39 564.14 Z" />
<path fill="#000000" opacity="1.00" d=" M 486.81 591.67 C 497.20 591.82 507.57 591.10 517.96 591.31 C 523.29 590.66 528.65 590.68 534.01 590.76 C 545.28 590.45 556.56 590.46 567.84 590.27 C 566.58 593.24 565.27 596.19 564.11 599.20 C 562.40 604.30 560.01 609.12 558.17 614.17 C 553.88 625.21 549.22 636.11 545.07 647.22 C 537.46 647.81 529.82 647.56 522.20 647.71 C 514.17 648.61 506.07 647.66 498.04 648.55 C 486.66 648.29 475.33 649.38 463.95 648.95 C 465.57 645.00 467.34 641.10 468.72 637.06 C 474.21 623.73 479.40 610.29 484.86 596.95 C 485.50 595.18 486.16 593.42 486.81 591.67 Z" />
<path fill="#000000" opacity="1.00" d=" M 614.84 600.78 C 622.20 600.48 629.58 601.05 636.92 600.42 C 645.20 600.11 653.52 600.82 661.77 599.82 C 655.35 616.58 648.52 633.17 641.86 649.84 C 639.73 655.84 636.88 661.56 634.95 667.64 C 631.59 667.79 628.23 667.60 624.89 667.82 C 616.83 668.83 608.68 667.86 600.59 668.45 C 592.07 668.94 583.47 667.86 575.01 669.15 C 565.94 667.87 556.84 669.62 547.75 669.33 C 556.99 646.82 565.70 624.10 574.86 601.56 C 580.57 601.44 586.30 601.70 592.00 601.33 C 599.61 600.99 607.27 601.77 614.84 600.78 Z" />
<path fill="#000000" opacity="1.00" d=" M 575.05 678.38 C 584.68 677.47 594.37 678.44 603.99 677.48 C 612.99 677.63 621.98 677.31 630.97 676.99 C 627.37 686.30 623.64 695.57 619.84 704.81 C 614.55 718.19 609.31 731.61 603.89 744.96 C 599.56 745.00 595.22 744.82 590.89 745.07 C 582.33 745.88 573.70 744.88 565.14 745.71 C 557.44 746.01 549.72 745.32 542.06 746.26 C 533.75 746.33 525.44 746.20 517.15 746.61 C 524.64 726.52 532.99 706.75 540.85 686.81 C 541.85 684.08 542.89 681.37 544.09 678.74 C 554.42 678.87 564.72 678.09 575.05 678.38 Z" />
<path fill="#000000" opacity="1.00" d=" M 145.19 683.11 C 150.16 682.82 155.16 683.29 160.11 682.68 C 166.65 682.13 173.25 683.04 179.77 682.11 C 177.28 688.49 174.70 694.83 172.16 701.18 C 171.46 702.96 170.95 704.86 169.90 706.49 C 168.64 706.77 167.39 707.03 166.13 707.29 C 156.01 707.05 145.91 707.66 135.80 707.55 C 138.72 699.32 142.46 691.41 145.19 683.11 Z" />
<path fill="#000000" opacity="1.00" d=" M 223.96 728.00 C 230.67 727.39 237.41 727.42 244.14 727.54 C 240.53 736.83 236.67 746.01 233.09 755.31 C 225.37 756.76 217.48 755.41 209.71 756.27 C 202.48 756.64 195.22 756.06 188.00 756.82 C 189.55 751.67 191.99 746.87 193.83 741.85 C 195.45 737.36 197.49 733.03 199.09 728.53 C 207.38 728.35 215.66 727.76 223.96 728.00 Z" />
<path fill="#000000" opacity="1.00" d=" M 571.03 754.58 C 580.77 754.90 590.48 754.09 600.22 754.17 C 599.04 757.04 597.88 759.92 596.79 762.83 C 593.24 771.62 589.77 780.44 586.19 789.23 C 582.00 800.19 577.31 810.96 573.24 821.97 C 566.53 822.16 559.79 821.62 553.10 822.43 C 545.07 822.70 537.01 822.12 529.00 823.00 C 517.66 822.69 506.36 823.61 495.03 823.40 C 492.05 823.36 489.05 823.32 486.12 823.91 C 493.07 806.54 499.77 789.09 506.91 771.80 C 508.62 766.46 511.32 761.49 512.97 756.14 C 518.66 756.18 524.30 755.29 529.99 755.49 C 535.64 755.46 541.30 755.72 546.93 755.04 C 554.96 754.89 563.01 755.24 571.03 754.58 Z" />
<path fill="#000000" opacity="1.00" d=" M 288.86 773.07 C 295.31 772.61 301.81 773.39 308.25 772.56 C 304.00 783.87 299.26 794.99 295.04 806.31 C 294.68 806.57 293.94 807.10 293.58 807.36 C 287.72 807.37 281.85 807.23 276.00 807.42 C 268.39 808.14 260.72 807.09 253.14 808.16 C 247.59 808.20 241.99 808.63 236.48 807.81 C 237.29 805.82 238.12 803.85 238.88 801.85 C 242.33 793.26 245.68 784.64 249.20 776.09 C 249.64 774.98 250.24 773.23 251.85 773.77 C 257.60 773.63 263.37 774.03 269.12 773.50 C 275.69 773.10 282.30 773.76 288.86 773.07 Z" />
<path fill="#000000" opacity="1.00" d=" M 340.93 801.37 C 349.25 800.52 357.62 801.38 365.93 800.49 C 373.33 800.46 380.74 800.59 388.12 799.91 C 384.82 807.47 382.14 815.27 378.90 822.85 C 376.24 829.80 373.30 836.64 370.67 843.60 C 365.85 843.70 361.00 843.40 356.20 843.91 C 349.76 844.38 343.28 843.63 336.86 844.43 C 331.56 844.72 326.26 844.34 320.96 844.60 C 313.69 845.43 306.36 844.71 299.07 845.12 C 304.67 830.58 310.39 816.06 316.49 801.72 C 324.64 801.69 332.77 801.16 340.93 801.37 Z" />
<path fill="#000000" opacity="1.00" d=" M 415.12 828.86 C 423.05 827.96 431.06 828.97 438.99 828.02 C 450.33 828.26 461.62 827.20 472.96 827.59 C 467.57 840.73 462.34 853.94 457.11 867.15 C 454.96 873.11 452.20 878.83 450.21 884.87 C 440.45 884.71 430.74 885.66 420.98 885.36 C 413.32 885.95 405.63 885.57 397.96 885.82 C 394.34 886.59 390.63 886.19 386.97 886.27 C 380.99 886.13 375.03 886.73 369.05 886.54 C 374.21 874.38 378.78 861.99 383.91 849.82 C 385.59 844.72 388.00 839.91 389.81 834.86 C 390.54 833.06 391.01 831.10 392.15 829.51 C 399.78 828.75 407.45 828.98 415.12 828.86 Z" />
<path fill="#000000" opacity="1.00" d=" M 535.01 831.73 C 546.37 831.92 557.72 831.21 569.09 831.46 C 559.23 857.59 548.31 883.36 538.28 909.45 C 508.95 909.34 479.68 911.01 450.45 913.40 C 456.24 897.75 462.88 882.41 468.84 866.82 C 473.43 855.65 477.91 844.44 482.28 833.18 C 490.83 832.25 499.42 832.76 508.00 832.56 C 516.98 831.67 526.04 832.82 535.01 831.73 Z" />
</g>
<g id="#ff3c22ff">
<path fill="#ff3c22" opacity="1.00" d=" M 304.99 292.18 C 314.13 290.72 323.44 292.10 332.62 290.90 C 329.52 298.12 326.77 305.48 323.88 312.79 C 314.70 313.74 305.47 313.50 296.25 313.55 C 299.52 306.58 301.98 299.26 304.99 292.18 Z" />
<path fill="#ff3c22" opacity="1.00" d=" M 359.52 339.42 C 367.69 339.74 375.83 338.44 383.99 339.12 C 387.92 338.81 391.85 338.40 395.80 338.60 C 392.33 346.97 389.11 355.44 385.66 363.82 C 378.45 364.66 371.20 364.41 363.97 364.49 C 359.17 364.86 354.36 365.06 349.55 364.90 C 352.54 356.28 356.30 347.95 359.52 339.42 Z" />
<path fill="#ff3c22" opacity="1.00" d=" M 273.90 369.75 C 274.40 367.39 277.20 367.70 279.04 367.67 C 286.63 367.85 294.22 367.53 301.81 367.36 C 299.34 374.87 295.79 381.95 293.26 389.44 C 284.22 389.47 275.19 389.95 266.14 389.67 C 268.57 382.97 271.44 376.44 273.90 369.75 Z" />
<path fill="#ff3c22" opacity="1.00" d=" M 412.65 384.70 C 422.08 384.03 431.56 384.81 440.97 383.79 C 447.33 383.67 453.70 383.94 460.06 383.46 C 456.04 393.63 452.04 403.80 447.88 413.91 C 440.60 414.70 433.29 414.40 425.99 414.55 C 417.47 415.43 408.88 414.55 400.36 415.45 C 404.11 405.07 408.29 394.84 412.65 384.70 Z" />
<path fill="#ff3c22" opacity="1.00" d=" M 491.98 414.40 C 499.96 413.57 508.00 414.39 515.99 413.62 C 523.86 413.71 531.71 413.38 539.57 413.13 C 534.33 426.23 528.85 439.25 524.01 452.51 C 513.68 452.47 503.38 453.17 493.05 453.05 C 485.10 453.97 477.08 453.01 469.13 453.90 C 466.77 454.05 464.41 454.00 462.05 453.98 C 467.33 440.90 472.31 427.68 477.88 414.73 C 482.54 414.08 487.28 414.78 491.98 414.40 Z" />
<path fill="#ff3c22" opacity="1.00" d=" M 328.96 415.87 C 341.04 415.36 353.12 415.33 365.20 414.98 C 362.05 423.49 358.43 431.81 355.21 440.29 C 343.10 440.70 330.99 440.57 318.90 441.17 C 322.31 432.75 325.76 424.36 328.96 415.87 Z" />
<path fill="#ff3c22" opacity="1.00" d=" M 736.76 435.59 C 741.17 435.32 745.59 435.16 750.02 435.22 C 794.46 434.88 839.13 437.75 882.70 446.93 C 861.13 500.93 839.54 554.93 817.92 608.91 C 815.82 613.34 814.84 618.29 812.16 622.42 C 785.79 616.88 758.96 613.22 732.03 612.09 C 710.29 610.52 688.49 611.00 666.71 610.90 C 690.13 552.49 713.30 493.98 736.76 435.59 Z" />
<path fill="#ff3c22" opacity="1.00" d=" M 588.05 441.54 C 595.65 440.78 603.30 441.53 610.90 440.82 C 614.77 440.54 618.66 440.67 622.55 440.68 C 616.08 456.89 609.68 473.12 603.07 489.27 C 587.38 489.42 571.69 489.73 556.00 489.84 C 549.01 490.66 541.98 490.37 534.97 490.33 C 540.91 474.10 547.89 458.25 553.98 442.06 C 565.34 442.20 576.68 441.39 588.05 441.54 Z" />
<path fill="#ff3c22" opacity="1.00" d=" M 400.98 460.73 C 410.51 460.07 420.08 460.71 429.61 459.84 C 425.46 469.99 421.40 480.17 417.36 490.37 C 409.24 490.65 401.13 490.69 393.01 490.76 C 385.30 491.67 377.53 490.78 369.81 491.53 C 373.92 481.61 377.57 471.50 381.75 461.62 C 388.03 460.02 394.58 461.05 400.98 460.73 Z" />
<path fill="#ff3c22" opacity="1.00" d=" M 447.47 490.63 C 467.96 490.88 488.39 489.49 508.88 489.60 C 503.99 502.73 498.42 515.60 493.44 528.71 C 472.84 529.80 452.18 529.09 431.59 530.30 C 436.86 517.07 441.93 503.75 447.47 490.63 Z" />
<path fill="#ff3c22" opacity="1.00" d=" M 544.01 517.77 C 559.97 517.84 575.93 517.24 591.90 517.32 C 585.63 533.39 579.06 549.35 572.87 565.46 C 562.56 565.21 552.29 566.23 541.98 566.00 C 533.68 566.76 525.33 566.03 517.03 566.73 C 512.79 566.88 508.55 566.77 504.31 566.75 C 510.77 550.61 517.09 534.42 523.75 518.36 C 530.50 518.42 537.27 518.51 544.01 517.77 Z" />
</g>
<g id="#3c8929ff">
<path fill="#3c8929" opacity="1.00" d=" M 928.56 461.06 C 944.11 466.57 958.96 473.90 973.69 481.29 C 1001.32 495.67 1027.70 512.81 1050.84 533.73 C 1027.36 592.18 1004.22 650.76 980.54 709.13 C 945.06 677.47 902.89 654.07 858.88 636.52 C 862.45 625.64 867.30 615.22 871.35 604.51 C 890.48 556.72 909.61 508.92 928.56 461.06 Z" />
</g>
<g id="#3e96ffff">
<path fill="#3e96ff" opacity="1.00" d=" M 210.29 529.42 C 219.35 528.41 228.50 528.94 237.60 528.59 C 234.45 535.86 231.87 543.35 228.66 550.60 C 219.71 550.75 210.78 551.61 201.82 551.22 C 204.33 543.84 207.17 536.56 210.29 529.42 Z" />
<path fill="#3e96ff" opacity="1.00" d=" M 283.01 576.51 C 289.01 576.79 294.96 575.68 300.95 576.09 C 297.46 584.54 294.28 593.12 290.65 601.52 C 285.10 601.51 279.56 601.88 274.01 601.75 C 267.55 601.53 261.13 602.72 254.67 602.34 C 257.74 593.85 261.41 585.59 264.54 577.11 C 270.71 577.00 276.84 576.25 283.01 576.51 Z" />
<path fill="#3e96ff" opacity="1.00" d=" M 179.77 605.41 C 188.80 605.57 197.82 604.63 206.86 605.03 C 204.46 612.52 200.94 619.58 198.35 627.01 C 189.26 626.73 180.19 627.34 171.11 627.43 C 173.81 620.02 177.08 612.83 179.77 605.41 Z" />
<path fill="#3e96ff" opacity="1.00" d=" M 331.98 621.96 C 338.01 622.15 344.01 621.23 350.04 621.48 C 355.09 621.64 360.13 621.26 365.16 620.90 C 361.13 631.14 357.04 641.37 352.92 651.58 C 337.08 652.10 321.23 652.38 305.39 652.63 C 309.54 642.63 313.31 632.48 317.46 622.48 C 322.28 622.02 327.13 621.84 331.98 621.96 Z" />
<path fill="#3e96ff" opacity="1.00" d=" M 383.78 651.89 C 404.06 651.56 424.35 651.53 444.61 650.77 C 439.43 663.94 433.98 677.02 428.95 690.25 C 418.96 690.13 408.99 690.77 399.01 690.59 C 394.64 690.50 390.30 691.45 385.94 691.09 C 379.72 690.56 373.51 691.72 367.29 691.42 C 371.61 679.82 376.45 668.44 380.85 656.88 C 381.70 655.18 382.08 652.97 383.78 651.89 Z" />
<path fill="#3e96ff" opacity="1.00" d=" M 224.15 678.40 C 227.60 669.81 230.89 661.15 234.56 652.65 C 246.51 652.98 258.44 652.13 270.39 652.43 C 267.08 660.93 263.46 669.31 260.33 677.88 C 248.26 677.82 236.22 678.65 224.15 678.40 Z" />
<path fill="#3e96ff" opacity="1.00" d=" M 648.65 655.80 C 658.44 656.35 668.24 655.06 678.02 655.81 C 699.43 655.82 720.85 656.97 742.17 658.95 C 759.71 661.19 777.33 663.23 794.54 667.44 C 789.84 679.70 784.73 691.80 780.00 704.05 C 759.92 753.59 740.55 803.41 720.36 852.90 C 693.73 845.43 666.43 840.60 639.03 837.01 C 618.89 835.00 598.74 832.64 578.49 832.13 C 590.02 802.27 602.22 772.66 614.00 742.90 C 625.51 713.85 637.43 684.96 648.65 655.80 Z" />
<path fill="#3e96ff" opacity="1.00" d=" M 459.20 679.54 C 469.78 679.78 480.35 679.15 490.93 679.25 C 498.96 678.36 507.04 679.08 515.09 678.50 C 519.23 678.28 523.38 678.38 527.53 678.41 C 521.34 694.12 515.09 709.81 508.84 725.50 C 485.90 726.72 462.92 726.84 439.98 728.06 C 446.11 711.78 452.93 695.77 459.20 679.54 Z" />
<path fill="#3e96ff" opacity="1.00" d=" M 287.27 698.13 C 303.05 698.18 318.82 697.16 334.62 697.41 C 330.95 706.76 327.21 716.08 323.50 725.42 C 323.01 726.49 322.74 728.20 321.14 727.94 C 305.73 728.12 290.33 728.64 274.93 728.86 C 279.11 718.64 283.05 708.33 287.27 698.13 Z" />
<path fill="#3e96ff" opacity="1.00" d=" M 375.06 727.88 C 382.00 727.10 388.99 727.86 395.93 727.25 C 401.95 726.76 407.99 727.07 414.02 727.01 C 409.12 740.06 403.59 752.86 398.66 765.90 C 388.80 766.81 378.90 766.17 369.05 766.98 C 358.31 766.79 347.61 767.71 336.87 767.40 C 341.86 754.37 347.34 741.53 352.28 728.49 C 359.86 727.77 367.47 728.14 375.06 727.88 Z" />
<path fill="#3e96ff" opacity="1.00" d=" M 451.98 755.42 C 459.98 754.59 468.02 755.37 476.03 754.67 C 483.06 754.47 490.10 754.76 497.12 754.19 C 491.22 770.45 484.15 786.27 478.15 802.49 C 469.76 803.13 461.32 802.31 452.96 803.27 C 438.45 803.66 423.92 803.34 409.43 804.30 C 415.78 788.18 422.09 772.04 428.78 756.06 C 436.51 755.51 444.24 755.46 451.98 755.42 Z" />
</g>
<g id="#ffc200ff">
<path fill="#ffc200" opacity="1.00" d=" M 840.75 681.11 C 884.86 698.78 927.19 722.13 962.80 753.88 C 938.80 814.18 914.60 874.40 890.66 934.72 C 852.01 907.55 809.89 885.41 765.96 868.12 C 774.37 847.90 782.10 827.40 790.40 807.13 C 807.14 765.10 824.05 723.15 840.75 681.11 Z" />
</g>
</svg>
