<?xml version="1.0" encoding="UTF-8" ?>
<!DOCTYPE svg PUBLIC "-//W3C//DTD SVG 1.1//EN" "http://www.w3.org/Graphics/SVG/1.1/DTD/svg11.dtd">
<svg width="1276pt" height="1276pt" viewBox="0 0 1276 1276" version="1.1" xmlns="http://www.w3.org/2000/svg">
<g id="#f35325ff">
<path fill="#f35325" opacity="1.00" d=" M 184.02 184.02 C 327.68 184.02 471.34 184.02 615.00 184.02 C 615.00 327.68 615.00 471.34 615.00 615.00 C 471.34 615.00 327.68 615.00 184.02 615.00 C 184.02 471.34 184.03 327.68 184.02 184.02 Z" />
</g>
<g id="#81bc06ff">
<path fill="#81bc06" opacity="1.00" d=" M 661.00 184.03 C 804.66 184.03 948.31 184.02 1091.97 184.03 C 1091.97 327.69 1091.97 471.34 1091.97 614.99 C 948.32 615.00 804.66 614.99 661.01 615.00 C 661.00 471.34 661.01 327.69 661.00 184.03 Z" />
</g>
<g id="#05a6f0ff">
<path fill="#05a6f0" opacity="1.00" d=" M 184.01 661.01 C 327.67 660.99 471.33 661.01 615.00 661.00 C 615.00 804.66 615.00 948.33 615.00 1091.99 C 471.34 1091.99 327.67 1091.99 184.01 1091.99 C 184.01 948.33 184.02 804.67 184.01 661.01 Z" />
</g>
<g id="#ffba08ff">
<path fill="#ffba08" opacity="1.00" d=" M 661.00 661.00 C 804.67 661.00 948.33 661.00 1091.99 661.00 C 1091.99 804.66 1091.99 948.33 1091.99 1091.99 C 948.33 1091.99 804.67 1091.99 661.00 1091.99 C 661.00 948.33 661.00 804.66 661.00 661.00 Z" />
</g>
</svg>
