<?xml version="1.0" encoding="UTF-8" ?>
<!DOCTYPE svg PUBLIC "-//W3C//DTD SVG 1.1//EN" "http://www.w3.org/Graphics/SVG/1.1/DTD/svg11.dtd">
<svg width="1276pt" height="1276pt" viewBox="0 0 1276 1276" version="1.1" xmlns="http://www.w3.org/2000/svg">
<g id="#00adefff">
<path fill="#00adef" opacity="1.00" d=" M 595.72 250.01 C 760.46 226.27 925.11 201.92 1089.83 178.06 C 1089.79 322.59 1089.76 467.13 1089.84 611.66 C 925.10 612.98 760.36 614.39 595.61 615.54 C 595.79 493.70 595.56 371.86 595.72 250.01 Z" />
<path fill="#00adef" opacity="1.00" d=" M 532.93 259.20 C 538.80 258.33 544.72 257.75 550.56 256.65 C 550.90 376.52 550.62 496.40 550.88 616.26 C 426.72 616.98 302.55 617.62 178.39 618.43 C 178.26 561.95 178.27 505.47 178.19 449.00 C 178.23 401.80 177.94 354.61 178.17 307.42 C 296.45 291.52 414.67 275.24 532.93 259.20 Z" />
<path fill="#00adef" opacity="1.00" d=" M 178.23 655.31 C 302.32 655.91 426.41 656.95 550.50 657.63 C 550.58 754.42 550.65 851.22 550.72 948.01 C 550.81 971.15 550.61 994.29 550.88 1017.43 C 427.27 1000.52 303.68 983.43 180.07 966.50 C 179.63 966.37 178.75 966.11 178.31 965.97 C 178.26 862.42 178.38 758.86 178.23 655.31 Z" />
<path fill="#00adef" opacity="1.00" d=" M 595.06 660.22 C 738.71 660.50 882.36 660.67 1026.01 660.89 C 1047.31 660.79 1068.61 661.18 1089.92 661.13 C 1089.81 776.42 1089.86 891.71 1089.82 1007.00 C 1089.89 1035.56 1089.65 1064.12 1089.92 1092.67 C 925.15 1069.68 760.45 1046.13 595.69 1023.07 C 595.42 902.12 595.26 781.16 595.06 660.22 Z" />
</g>
</svg>
