<?xml version="1.0" encoding="UTF-8" ?>
<!DOCTYPE svg PUBLIC "-//W3C//DTD SVG 1.1//EN" "http://www.w3.org/Graphics/SVG/1.1/DTD/svg11.dtd">
<svg width="1276pt" height="1276pt" viewBox="0 0 1276 1276" version="1.1" xmlns="http://www.w3.org/2000/svg">
<g id="#ff0000ff">
<path fill="#ff0000" opacity="1.00" d=" M 508.96 183.97 C 599.77 176.09 691.92 191.80 776.45 225.36 C 842.62 251.54 904.32 288.64 959.32 333.73 C 1025.24 387.68 1081.59 452.85 1127.86 524.24 C 1144.53 549.80 1159.80 576.24 1174.12 603.18 C 1170.46 599.65 1167.99 595.13 1164.72 591.28 C 1140.89 561.39 1114.21 533.74 1084.99 509.10 C 1052.76 481.93 1017.18 458.32 978.24 441.91 C 947.80 429.07 915.18 420.98 882.10 419.79 C 856.67 418.99 830.98 422.05 806.65 429.57 C 856.17 460.61 903.19 495.98 944.97 536.94 C 973.99 565.71 1000.43 597.32 1021.69 632.29 C 1043.32 667.57 1059.44 706.42 1067.40 747.09 C 1080.59 813.08 1070.91 883.36 1040.31 943.31 C 1033.36 956.57 1025.66 969.57 1015.93 981.01 C 991.47 1008.62 961.17 1030.69 928.41 1047.47 C 887.69 1068.45 843.17 1081.52 797.95 1088.34 C 705.46 1102.00 610.07 1089.99 522.22 1058.76 C 421.70 1023.24 330.92 962.49 256.49 886.50 C 202.28 831.57 156.48 768.67 118.41 701.63 C 113.18 692.07 107.56 682.68 102.85 672.85 C 106.04 676.16 108.32 680.19 111.25 683.71 C 133.42 711.63 158.05 737.61 184.94 761.02 C 214.85 787.09 247.66 810.12 283.52 827.28 C 321.59 845.61 363.59 856.87 406.03 856.22 C 427.70 855.90 449.38 852.68 470.13 846.39 C 439.95 827.63 410.91 807.04 383.22 784.77 C 354.79 761.79 327.89 736.83 303.73 709.36 C 279.44 681.79 257.96 651.61 241.07 618.95 C 222.43 582.84 209.67 543.51 205.33 503.04 C 200.20 456.83 205.98 409.50 221.91 365.83 C 231.17 340.95 243.03 316.66 259.84 295.96 C 283.74 268.49 313.59 246.62 345.72 229.71 C 396.19 203.31 452.38 188.95 508.96 183.97 M 515.07 382.80 C 479.11 386.67 443.39 400.72 417.45 426.44 C 393.60 449.44 379.01 481.00 374.25 513.60 C 367.99 555.59 375.94 598.58 390.94 637.93 C 405.03 674.79 425.64 708.96 450.23 739.74 C 475.88 771.61 505.89 799.98 539.14 823.82 C 578.01 851.63 621.56 873.36 667.95 885.26 C 695.70 892.28 724.50 895.83 753.10 893.73 C 776.35 892.10 799.50 886.67 820.51 876.45 C 833.28 870.36 844.91 862.13 855.74 853.11 C 850.75 855.37 846.60 859.11 841.59 861.38 C 817.05 873.45 788.33 873.68 762.06 867.93 C 734.36 861.81 708.33 849.21 685.33 832.72 C 662.03 816.02 641.48 795.38 625.34 771.66 C 607.17 744.84 594.11 713.62 592.94 680.93 C 592.44 663.06 595.93 644.69 605.16 629.21 C 613.93 614.27 627.78 602.48 643.77 595.88 C 662.31 588.03 682.98 586.79 702.80 589.02 C 735.06 593.00 765.60 606.49 792.18 624.90 C 817.07 642.19 838.83 664.02 855.80 689.15 C 870.81 711.67 882.12 737.07 886.01 763.99 C 889.47 787.50 886.67 813.03 873.17 833.12 C 877.74 828.12 881.02 822.16 884.35 816.32 C 894.62 797.92 900.63 777.34 903.18 756.48 C 908.66 708.68 896.79 660.42 876.93 617.11 C 850.04 559.03 808.23 508.52 758.76 468.23 C 724.98 440.88 687.23 418.20 646.59 402.64 C 604.90 386.76 559.71 377.95 515.07 382.80 Z" />
</g>
</svg>
