<?xml version="1.0" encoding="UTF-8" ?>
<!DOCTYPE svg PUBLIC "-//W3C//DTD SVG 1.1//EN" "http://www.w3.org/Graphics/SVG/1.1/DTD/svg11.dtd">
<svg width="1276pt" height="1276pt" viewBox="0 0 1276 1276" version="1.1" xmlns="http://www.w3.org/2000/svg">
<g id="#ffffffff">
<path fill="#ffffff" opacity="1.00" d=" M 503.06 184.52 C 591.68 175.83 681.86 189.73 765.04 220.97 C 835.52 247.32 901.17 286.06 959.32 333.72 C 1025.22 387.66 1081.56 452.82 1127.83 524.20 C 1144.49 549.74 1159.77 576.17 1174.06 603.09 C 1170.54 599.82 1168.28 595.49 1165.17 591.86 C 1141.23 561.72 1114.37 533.88 1084.95 509.06 C 1052.70 481.89 1017.11 458.28 978.15 441.88 C 947.72 429.04 915.11 420.97 882.04 419.79 C 856.64 419.02 830.94 421.99 806.66 429.61 C 853.85 459.08 898.65 492.64 938.94 531.07 C 970.52 561.52 999.24 595.26 1022.02 632.85 C 1043.79 668.46 1059.93 707.74 1067.74 748.82 C 1080.57 815.06 1070.43 885.50 1039.24 945.35 C 1030.64 961.64 1020.58 977.40 1007.28 990.28 C 981.37 1016.87 949.93 1037.64 916.42 1053.38 C 874.45 1073.05 829.04 1084.83 783.09 1090.34 C 686.97 1101.57 588.63 1085.85 499.02 1050.02 C 398.83 1010.28 309.56 945.37 237.00 866.03 C 186.06 810.48 143.04 747.93 107.37 681.62 C 105.85 678.73 103.92 676.04 102.93 672.91 C 105.92 676.03 108.06 679.83 110.82 683.15 C 133.11 711.31 157.91 737.49 185.00 761.07 C 215.07 787.28 248.08 810.40 284.15 827.60 C 317.96 843.73 354.73 854.39 392.28 856.01 C 418.49 857.18 444.94 853.98 470.08 846.42 C 406.38 806.30 346.20 759.35 297.23 701.85 C 271.13 671.00 248.46 637.01 231.99 600.03 C 214.44 560.79 204.15 518.10 203.59 475.04 C 202.66 426.02 213.97 376.82 236.11 333.08 C 243.68 318.55 252.15 304.32 263.18 292.12 C 284.24 269.11 309.36 250.00 336.51 234.73 C 387.50 206.06 445.05 190.33 503.06 184.52 M 433.81 412.65 C 403.85 433.93 383.46 467.29 376.17 503.13 C 369.21 535.71 371.67 569.68 379.58 601.86 C 388.86 639.24 405.36 674.61 426.37 706.80 C 448.53 740.77 475.75 771.33 506.33 797.93 C 550.09 835.78 601.16 865.84 656.83 882.22 C 684.13 890.13 712.52 894.84 740.99 894.27 C 764.20 893.88 787.50 889.95 809.16 881.44 C 826.17 874.69 842.17 865.10 855.73 852.77 C 847.08 858.65 837.94 863.96 827.82 866.84 C 801.52 874.80 773.08 872.01 747.15 863.98 C 723.39 856.58 701.16 844.64 681.27 829.75 C 657.91 812.30 637.48 790.83 621.77 766.22 C 604.43 739.04 592.47 707.41 592.89 674.83 C 593.35 659.91 596.50 644.87 603.74 631.71 C 612.67 615.14 627.73 602.11 645.23 595.29 C 662.17 588.42 680.83 587.07 698.91 588.61 C 720.69 590.67 741.84 597.38 761.49 606.86 C 790.86 621.25 817.09 641.84 838.49 666.53 C 854.21 684.74 867.32 705.32 876.21 727.71 C 885.40 751.16 890.20 777.06 885.54 802.09 C 883.62 813.20 879.18 823.72 873.31 833.31 C 886.39 816.21 895.16 796.02 899.94 775.09 C 906.01 748.53 905.69 720.81 901.21 694.02 C 896.83 668.15 888.67 643.00 877.84 619.12 C 854.03 566.67 817.83 520.37 775.02 482.06 C 743.64 454.10 708.40 430.35 670.26 412.63 C 632.20 395.07 591.04 383.33 549.02 381.61 C 508.78 380.03 466.85 388.70 433.81 412.65 Z" />
</g>
</svg>
