<?xml version="1.0" encoding="UTF-8" ?>
<!DOCTYPE svg PUBLIC "-//W3C//DTD SVG 1.1//EN" "http://www.w3.org/Graphics/SVG/1.1/DTD/svg11.dtd">
<svg width="1276pt" height="1276pt" viewBox="0 0 1276 1276" version="1.1" xmlns="http://www.w3.org/2000/svg">
<g id="#ff0000ff">
<path fill="#ff0000" opacity="1.00" d=" M 247.28 348.64 C 249.49 349.23 251.81 348.95 254.07 349.00 C 404.38 349.00 554.69 349.00 705.00 349.00 C 818.33 542.85 931.70 736.67 1045.00 930.54 C 892.17 930.52 739.34 930.55 586.52 930.52 C 515.07 807.95 443.64 685.38 372.20 562.81 C 330.54 491.43 289.05 419.95 247.28 348.64 M 318.51 382.53 C 414.86 548.19 511.17 713.86 607.52 879.52 C 724.86 879.54 842.20 879.54 959.54 879.52 C 862.57 714.40 765.49 549.33 668.66 384.12 C 661.78 383.84 654.89 384.08 648.01 384.00 C 539.65 384.00 431.28 383.99 322.92 384.01 C 321.28 384.19 319.90 383.17 318.51 382.53 Z" />
<path fill="#ff0000" opacity="1.00" d=" M 757.29 348.64 C 759.47 349.22 761.76 348.95 764.00 349.00 C 902.01 349.01 1040.01 348.99 1178.02 349.01 C 1121.22 406.52 1064.27 463.90 1007.45 521.40 C 984.46 544.73 961.27 567.87 938.45 591.36 C 930.14 599.76 921.62 607.95 913.44 616.47 C 861.42 527.18 809.45 437.85 757.29 348.64 M 828.51 382.53 C 860.17 437.04 891.98 491.48 923.52 546.06 C 930.86 539.22 937.62 531.75 944.74 524.68 C 990.67 477.78 1036.62 430.91 1082.55 384.01 C 999.34 384.00 916.13 383.99 832.92 384.01 C 831.28 384.20 829.89 383.16 828.51 382.53 Z" />
<path fill="#ff0000" opacity="1.00" d=" M 345.11 685.05 C 352.64 677.58 360.20 670.15 367.56 662.53 C 419.45 751.72 471.48 840.83 523.40 929.99 C 383.26 930.00 243.12 930.01 102.98 929.99 C 111.54 921.25 120.31 912.70 128.68 903.79 C 159.10 873.52 189.11 842.83 219.35 812.38 C 261.25 769.91 303.39 727.68 345.11 685.05 M 198.45 894.99 C 281.67 895.00 364.89 895.01 448.10 894.99 C 449.73 894.80 451.09 895.82 452.49 896.47 C 420.77 841.93 389.04 787.39 357.35 732.83 C 304.35 786.86 251.41 840.93 198.45 894.99 Z" />
</g>
</svg>
