<?xml version="1.0" encoding="UTF-8" ?>
<!DOCTYPE svg PUBLIC "-//W3C//DTD SVG 1.1//EN" "http://www.w3.org/Graphics/SVG/1.1/DTD/svg11.dtd">
<svg width="1276pt" height="1276pt" viewBox="0 0 1276 1276" version="1.1" xmlns="http://www.w3.org/2000/svg">
<g id="#ffffffff">
<path fill="#ffffff" opacity="1.00" d=" M 598.14 234.08 C 624.82 234.01 651.49 234.07 678.16 234.06 C 678.16 255.14 678.14 276.23 678.17 297.32 C 651.48 297.30 624.80 297.34 598.11 297.30 C 598.26 276.23 598.20 255.16 598.14 234.08 Z" />
<path fill="#ffffff" opacity="1.00" d=" M 135.65 320.77 C 282.80 320.80 429.95 320.77 577.09 320.79 C 577.05 341.65 577.16 362.51 577.04 383.37 C 576.90 383.55 576.62 383.91 576.48 384.09 C 455.96 384.17 335.43 384.09 214.91 384.13 C 214.91 396.65 214.92 409.17 214.90 421.69 C 307.94 421.71 400.97 421.68 494.01 421.70 C 495.69 421.77 497.20 420.79 498.89 420.80 C 524.71 420.78 550.54 420.82 576.37 420.78 C 576.34 453.87 576.40 486.96 576.34 520.05 C 576.31 522.05 577.14 523.95 577.10 525.96 C 577.09 545.92 577.08 565.89 577.10 585.86 C 429.95 585.96 282.81 585.82 135.66 585.92 C 135.64 564.83 135.69 543.74 135.64 522.65 C 255.91 522.69 376.19 522.72 496.46 522.64 C 496.32 510.07 496.48 497.49 496.38 484.92 C 402.78 485.35 309.17 484.90 215.57 485.14 C 214.26 486.17 212.57 485.83 211.04 485.90 C 185.70 485.84 160.36 485.91 135.02 485.87 C 135.09 444.25 135.03 402.63 135.05 361.02 C 135.33 352.69 134.42 344.28 135.65 336.03 C 135.70 330.94 135.64 325.86 135.65 320.77 Z" />
<path fill="#ffffff" opacity="1.00" d=" M 598.16 320.78 C 624.82 320.78 651.49 320.79 678.16 320.78 C 678.16 409.17 678.15 497.56 678.16 585.94 C 651.49 585.93 624.82 585.99 598.14 585.92 C 598.23 497.54 598.20 409.16 598.16 320.78 Z" />
<path fill="#ffffff" opacity="1.00" d=" M 699.24 320.78 C 846.36 320.78 993.48 320.80 1140.60 320.77 C 1140.59 409.14 1140.54 497.51 1140.62 585.88 C 1113.96 585.94 1087.29 585.83 1060.63 585.93 C 1060.63 518.66 1060.60 451.39 1060.64 384.11 C 966.82 384.14 873.00 384.10 779.19 384.14 C 779.27 451.39 779.19 518.65 779.23 585.91 C 752.56 585.86 725.89 585.92 699.22 585.87 C 699.31 497.51 699.27 409.15 699.24 320.78 Z" />
<path fill="#ffffff" opacity="1.00" d=" M 159.44 634.56 C 200.23 634.56 241.03 634.56 281.83 634.56 C 279.48 646.64 277.10 658.71 274.77 670.79 C 246.65 696.34 218.49 721.84 190.36 747.37 C 213.60 747.37 236.84 747.37 260.08 747.37 C 257.66 759.91 255.22 772.45 252.81 785.00 C 212.02 785.00 171.22 785.00 130.43 785.00 C 132.90 772.93 134.94 760.74 137.67 748.74 C 165.62 723.13 193.82 697.77 221.87 672.26 C 198.64 672.25 175.41 672.25 152.18 672.25 C 154.58 659.69 157.02 647.13 159.44 634.56 Z" />
<path fill="#ffffff" opacity="1.00" d=" M 294.47 634.56 C 307.31 634.56 320.14 634.56 332.98 634.56 C 339.97 649.42 346.94 664.30 353.93 679.16 C 366.72 664.30 379.52 649.45 392.29 634.57 C 406.38 634.54 420.47 634.56 434.56 634.57 C 413.20 659.90 391.79 685.19 370.44 710.54 C 382.22 735.34 393.96 760.18 405.72 785.00 C 392.36 785.00 379.00 784.99 365.64 785.00 C 358.98 770.70 352.34 756.38 345.67 742.08 C 333.55 756.40 321.42 770.71 309.28 785.01 C 294.61 784.99 279.94 785.01 265.27 785.00 C 286.50 760.12 307.82 735.33 328.99 710.40 C 317.40 685.16 305.98 659.84 294.47 634.56 Z" />
<path fill="#ffffff" opacity="1.00" d=" M 472.08 695.03 C 484.12 687.79 497.91 683.77 511.86 682.47 C 518.87 681.74 525.92 681.97 532.95 681.94 C 563.62 681.95 594.29 681.91 624.96 681.95 C 639.87 682.12 655.39 685.28 667.48 694.47 C 675.80 700.64 682.38 709.08 686.44 718.61 C 687.82 722.00 690.38 724.71 692.09 727.92 C 699.43 740.93 701.36 756.23 701.04 770.95 C 700.62 785.92 698.26 800.82 694.18 815.22 C 691.29 825.36 687.18 835.29 680.75 843.72 C 677.05 848.51 672.97 852.99 668.94 857.51 C 672.39 864.03 676.34 870.50 677.65 877.87 C 679.81 889.63 677.80 901.63 675.66 913.23 C 671.81 933.97 664.94 954.40 653.38 972.16 C 644.54 985.74 633.12 998.03 618.76 1005.82 C 604.23 1013.88 587.48 1017.18 570.98 1017.23 C 541.99 1017.28 513.01 1017.23 484.02 1017.25 C 471.47 1017.25 458.69 1017.69 446.46 1014.37 C 432.54 1010.78 419.86 1001.94 412.43 989.54 C 410.39 986.00 407.08 983.47 404.75 980.15 C 394.78 967.06 391.74 950.15 391.69 934.05 C 391.74 915.06 395.22 896.16 400.87 878.08 C 405.05 864.54 413.75 853.01 423.62 843.07 C 419.73 835.78 415.67 828.29 414.83 819.93 C 413.13 805.44 416.36 791.00 419.40 776.92 C 423.65 758.62 430.60 740.79 441.23 725.22 C 449.39 713.28 459.56 702.46 472.08 695.03 M 484.10 698.01 C 470.55 704.08 458.68 713.70 449.69 725.50 C 436.81 742.28 429.28 762.59 425.04 783.16 C 422.69 795.18 420.28 807.62 422.69 819.82 C 424.20 828.41 429.30 835.66 433.49 843.11 C 426.61 850.06 419.32 856.81 414.21 865.25 C 407.37 876.37 404.32 889.27 401.89 901.96 C 398.65 920.15 397.34 939.33 402.86 957.23 C 406.74 970.02 415.43 981.40 427.26 987.79 C 440.48 995.38 456.15 996.22 471.03 996.00 C 493.71 996.00 516.39 996.00 539.06 996.00 C 550.33 995.85 561.63 996.44 572.87 995.36 C 591.21 993.65 608.92 985.96 622.70 973.75 C 642.52 956.00 653.93 930.66 659.45 905.03 C 661.83 892.83 664.43 880.30 662.66 867.85 C 661.45 858.64 656.21 850.77 651.43 843.06 C 658.57 835.29 666.56 828.04 671.63 818.64 C 679.53 804.30 682.86 787.96 684.88 771.86 C 686.53 754.93 686.15 737.03 678.60 721.43 C 672.90 709.34 662.29 699.86 649.88 695.05 C 641.03 691.57 631.46 690.31 622.00 690.30 C 588.35 690.30 554.71 690.29 521.06 690.30 C 508.40 690.35 495.65 692.71 484.10 698.01 Z" />
<path fill="#ffffff" opacity="1.00" d=" M 742.30 681.94 C 785.74 681.94 829.19 681.94 872.63 681.94 C 872.53 682.66 872.33 684.10 872.23 684.82 C 875.04 689.14 877.85 693.47 880.67 697.79 C 860.03 804.27 839.39 910.76 818.75 1017.25 C 795.02 1017.26 771.29 1017.23 747.56 1017.26 C 744.80 1013.01 742.35 1008.54 739.46 1004.38 C 738.86 1004.32 737.67 1004.19 737.07 1004.13 C 751.43 929.30 765.74 854.46 780.08 779.63 C 765.61 779.62 751.14 779.64 736.67 779.62 C 733.93 775.35 731.50 770.88 728.57 766.75 C 727.98 766.69 726.81 766.56 726.23 766.50 C 731.62 738.32 736.94 710.13 742.30 681.94 M 747.68 690.29 C 743.34 712.94 739.19 735.63 734.82 758.28 C 753.73 758.29 772.64 758.25 791.56 758.29 C 776.12 837.52 760.68 916.75 745.32 996.00 C 765.20 996.00 785.09 996.00 804.97 996.00 C 824.55 894.07 844.34 792.18 863.98 690.26 C 825.21 690.33 786.45 690.29 747.68 690.29 Z" />
<path fill="#ffffff" opacity="1.00" d=" M 508.32 758.39 C 540.22 758.12 572.13 758.36 604.04 758.27 C 608.33 758.25 612.88 758.18 616.80 760.23 C 620.38 762.23 622.96 765.90 623.67 769.94 C 625.04 780.80 622.01 792.01 615.84 801.00 C 612.12 805.75 606.04 808.34 600.10 808.62 C 566.39 808.62 532.68 808.60 498.97 808.63 C 493.49 808.65 487.46 806.04 485.20 800.75 C 481.57 793.19 483.26 784.37 485.76 776.74 C 488.92 767.00 497.89 758.97 508.32 758.39 M 504.96 784.92 C 501.47 789.32 498.90 794.58 498.51 800.25 C 533.00 800.20 567.50 800.33 601.99 800.19 C 612.06 799.57 616.52 788.32 617.12 779.63 C 584.40 779.62 551.69 779.63 518.98 779.63 C 513.89 779.54 508.39 780.92 504.96 784.92 Z" />
<path fill="#ffffff" opacity="1.00" d=" M 482.29 877.39 C 497.15 876.78 512.09 877.31 526.98 877.13 C 546.66 877.12 566.34 877.15 586.02 877.11 C 591.63 877.01 596.74 880.95 599.07 885.90 C 601.55 891.03 600.99 896.94 600.23 902.41 C 598.91 910.68 595.12 919.15 587.78 923.74 C 583.18 926.92 577.42 927.43 571.98 927.44 C 540.99 927.42 509.99 927.45 478.99 927.43 C 474.29 927.32 469.08 927.00 465.43 923.65 C 460.66 919.61 459.93 912.79 460.44 906.95 C 460.67 899.88 463.80 893.32 467.46 887.42 C 470.84 882.27 476.52 879.12 482.29 877.39 M 485.52 901.51 C 479.73 905.46 477.26 912.56 475.57 919.05 C 508.73 919.06 541.89 919.06 575.05 919.06 C 579.99 919.11 585.71 918.03 588.67 913.65 C 591.61 909.10 593.67 903.96 594.56 898.62 C 561.37 898.19 528.15 898.59 494.95 898.42 C 491.53 898.16 488.34 899.74 485.52 901.51 Z" />
</g>
<g id="#cd171fff">
<path fill="#cd171f" opacity="1.00" d=" M 484.10 698.01 C 495.65 692.71 508.40 690.35 521.06 690.30 C 554.71 690.29 588.35 690.30 622.00 690.30 C 631.46 690.31 641.03 691.57 649.88 695.05 C 662.29 699.86 672.90 709.34 678.60 721.43 C 686.15 737.03 686.53 754.93 684.88 771.86 C 682.86 787.96 679.53 804.30 671.63 818.64 C 666.56 828.04 658.57 835.29 651.43 843.06 C 656.21 850.77 661.45 858.64 662.66 867.85 C 664.43 880.30 661.83 892.83 659.45 905.03 C 653.93 930.66 642.52 956.00 622.70 973.75 C 608.92 985.96 591.21 993.65 572.87 995.36 C 561.63 996.44 550.33 995.85 539.06 996.00 C 516.39 996.00 493.71 996.00 471.03 996.00 C 456.15 996.22 440.48 995.38 427.26 987.79 C 415.43 981.40 406.74 970.02 402.86 957.23 C 397.34 939.33 398.65 920.15 401.89 901.96 C 404.32 889.27 407.37 876.37 414.21 865.25 C 419.32 856.81 426.61 850.06 433.49 843.11 C 429.30 835.66 424.20 828.41 422.69 819.82 C 420.28 807.62 422.69 795.18 425.04 783.16 C 429.28 762.59 436.81 742.28 449.69 725.50 C 458.68 713.70 470.55 704.08 484.10 698.01 M 508.32 758.39 C 497.89 758.97 488.92 767.00 485.76 776.74 C 483.26 784.37 481.57 793.19 485.20 800.75 C 487.46 806.04 493.49 808.65 498.97 808.63 C 532.68 808.60 566.39 808.62 600.10 808.62 C 606.04 808.34 612.12 805.75 615.84 801.00 C 622.01 792.01 625.04 780.80 623.67 769.94 C 622.96 765.90 620.38 762.23 616.80 760.23 C 612.88 758.18 608.33 758.25 604.04 758.27 C 572.13 758.36 540.22 758.12 508.32 758.39 M 482.29 877.39 C 476.52 879.12 470.84 882.27 467.46 887.42 C 463.80 893.32 460.67 899.88 460.44 906.95 C 459.93 912.79 460.66 919.61 465.43 923.65 C 469.08 927.00 474.29 927.32 478.99 927.43 C 509.99 927.45 540.99 927.42 571.98 927.44 C 577.42 927.43 583.18 926.92 587.78 923.74 C 595.12 919.15 598.91 910.68 600.23 902.41 C 600.99 896.94 601.55 891.03 599.07 885.90 C 596.74 880.95 591.63 877.01 586.02 877.11 C 566.34 877.15 546.66 877.12 526.98 877.13 C 512.09 877.31 497.15 876.78 482.29 877.39 Z" />
<path fill="#cd171f" opacity="1.00" d=" M 747.68 690.29 C 786.45 690.29 825.21 690.33 863.98 690.26 C 844.34 792.18 824.55 894.07 804.97 996.00 C 785.09 996.00 765.20 996.00 745.32 996.00 C 760.68 916.75 776.12 837.52 791.56 758.29 C 772.64 758.25 753.73 758.29 734.82 758.28 C 739.19 735.63 743.34 712.94 747.68 690.29 Z" />
</g>
</svg>
