<?xml version="1.0" encoding="UTF-8" ?>
<!DOCTYPE svg PUBLIC "-//W3C//DTD SVG 1.1//EN" "http://www.w3.org/Graphics/SVG/1.1/DTD/svg11.dtd">
<svg width="1276pt" height="1276pt" viewBox="0 0 1276 1276" version="1.1" xmlns="http://www.w3.org/2000/svg">
<g id="#ffffffff">
<path fill="#ffffff" opacity="1.00" d=" M 598.15 234.08 C 624.82 234.01 651.49 234.06 678.16 234.06 C 678.16 255.14 678.14 276.23 678.17 297.32 C 651.48 297.30 624.80 297.34 598.11 297.31 C 598.26 276.23 598.19 255.16 598.15 234.08 Z" />
<path fill="#ffffff" opacity="1.00" d=" M 135.65 320.77 C 282.80 320.80 429.95 320.77 577.09 320.79 C 576.95 341.91 577.37 363.04 576.88 384.15 C 456.22 384.08 335.56 384.13 214.91 384.13 C 214.93 396.65 214.87 409.18 214.94 421.70 C 307.98 421.69 401.03 421.70 494.07 421.69 C 496.10 421.66 497.95 420.55 500.01 420.78 C 525.47 420.80 550.92 420.81 576.37 420.78 C 576.36 451.19 576.37 481.60 576.37 512.01 C 576.41 516.30 576.04 520.65 577.02 524.88 C 577.19 545.20 577.03 565.53 577.10 585.86 C 429.95 585.95 282.81 585.83 135.66 585.92 C 135.64 564.83 135.69 543.74 135.64 522.66 C 255.91 522.69 376.18 522.71 496.46 522.65 C 496.34 510.12 496.44 497.58 496.40 485.05 C 403.24 485.15 310.08 485.03 216.91 485.11 C 215.25 485.20 213.70 486.04 212.01 485.89 C 186.35 485.86 160.69 485.89 135.03 485.87 C 135.08 437.57 135.03 389.26 135.05 340.96 C 136.12 334.29 135.51 327.50 135.65 320.77 Z" />
<path fill="#ffffff" opacity="1.00" d=" M 598.16 320.79 C 624.82 320.78 651.49 320.79 678.16 320.78 C 678.16 409.17 678.15 497.56 678.16 585.94 C 651.49 585.93 624.82 585.99 598.14 585.92 C 598.23 497.54 598.20 409.16 598.16 320.79 Z" />
<path fill="#ffffff" opacity="1.00" d=" M 699.23 320.78 C 846.35 320.77 993.47 320.82 1140.58 320.76 C 1140.63 409.12 1140.50 497.49 1140.64 585.85 C 1113.97 585.97 1087.30 585.81 1060.63 585.93 C 1060.64 518.66 1060.58 451.40 1060.66 384.13 C 966.84 384.11 873.02 384.13 779.20 384.12 C 779.25 451.39 779.20 518.65 779.23 585.91 C 752.55 585.85 725.88 585.93 699.21 585.87 C 699.31 497.51 699.27 409.15 699.23 320.78 Z" />
<path fill="#ffffff" opacity="1.00" d=" M 159.44 634.56 C 200.23 634.56 241.03 634.56 281.83 634.56 C 279.48 646.64 277.10 658.71 274.77 670.80 C 246.65 696.34 218.49 721.84 190.36 747.37 C 213.60 747.37 236.83 747.37 260.07 747.37 C 257.66 759.91 255.22 772.45 252.81 785.00 C 212.02 785.01 171.22 785.00 130.43 785.00 C 132.91 772.92 134.93 760.71 137.69 748.72 C 165.63 723.11 193.83 697.77 221.87 672.25 C 198.65 672.26 175.42 672.24 152.20 672.26 C 154.55 659.68 157.03 647.13 159.44 634.56 Z" />
<path fill="#ffffff" opacity="1.00" d=" M 294.47 634.57 C 307.31 634.55 320.14 634.56 332.98 634.56 C 339.97 649.42 346.94 664.30 353.93 679.16 C 366.79 664.30 379.50 649.30 392.45 634.51 C 406.49 634.63 420.52 634.52 434.56 634.57 C 413.20 659.91 391.77 685.19 370.44 710.55 C 376.25 722.72 382.00 734.91 387.76 747.10 C 409.06 725.91 430.25 704.62 451.51 683.40 C 453.82 681.48 457.09 681.18 459.99 681.06 C 680.98 681.08 901.98 681.06 1122.97 681.07 C 1128.42 681.26 1134.23 680.25 1139.32 682.73 C 1143.24 685.17 1143.01 691.10 1140.55 694.47 C 1034.54 800.47 928.55 906.52 822.53 1012.52 C 820.14 1014.30 816.90 1014.69 814.00 1014.93 C 589.98 1014.95 365.96 1014.91 141.94 1014.95 C 139.42 1014.88 136.76 1014.57 134.52 1013.37 C 130.57 1010.83 130.71 1004.74 133.52 1001.43 C 209.21 925.68 284.98 850.01 360.63 774.24 C 355.64 763.52 350.68 752.79 345.66 742.08 C 333.52 756.41 321.42 770.77 309.21 785.04 C 294.57 784.95 279.92 785.02 265.27 785.00 C 286.50 760.15 307.76 735.33 328.98 710.47 C 317.47 685.18 305.97 659.87 294.47 634.57 M 391.26 753.94 C 395.92 764.39 401.00 774.64 405.85 785.00 C 392.38 784.95 378.90 785.10 365.43 784.92 C 364.88 783.72 364.33 782.54 363.79 781.36 C 353.44 792.13 342.71 802.53 332.21 813.15 C 278.40 867.03 224.60 920.92 170.78 974.79 C 159.72 985.70 149.01 996.96 137.69 1007.60 C 155.77 1008.36 173.90 1007.72 192.00 1007.93 C 230.93 1007.90 269.87 1008.01 308.80 1007.88 C 365.49 1007.95 422.19 1008.01 478.88 1007.85 C 535.33 1008.05 591.79 1007.87 648.24 1007.94 C 693.50 1007.93 738.76 1007.93 784.02 1007.93 C 795.04 1007.74 806.10 1008.33 817.10 1007.62 C 819.02 1004.45 822.08 1002.26 824.55 999.56 C 923.18 900.88 1021.83 802.21 1120.47 703.53 C 1125.75 698.59 1130.35 692.88 1136.18 688.56 C 1134.46 688.32 1132.75 688.05 1131.03 688.05 C 1076.62 688.09 1022.21 688.03 967.79 688.09 C 911.17 688.07 854.54 688.02 797.92 688.11 C 741.24 688.04 684.57 688.03 627.90 688.11 C 589.61 688.00 551.32 688.10 513.03 688.07 C 494.32 688.22 475.58 687.76 456.89 688.29 C 435.06 710.21 413.22 732.14 391.26 753.94 Z" />
</g>
<g id="#e50e0aff">
<path fill="#e50e0a" opacity="1.00" d=" M 391.26 753.94 C 413.22 732.14 435.06 710.21 456.89 688.29 C 475.58 687.76 494.32 688.22 513.03 688.07 C 551.32 688.10 589.61 688.00 627.90 688.11 C 525.19 791.01 422.34 893.76 319.59 996.62 C 315.93 1000.31 312.10 1003.85 308.80 1007.88 C 269.87 1008.01 230.93 1007.90 192.00 1007.93 C 173.90 1007.72 155.77 1008.36 137.69 1007.60 C 149.01 996.96 159.72 985.70 170.78 974.79 C 224.60 920.92 278.40 867.03 332.21 813.15 C 342.71 802.53 353.44 792.13 363.79 781.36 C 364.33 782.54 364.88 783.72 365.43 784.92 C 378.90 785.10 392.38 784.95 405.85 785.00 C 401.00 774.64 395.92 764.39 391.26 753.94 Z" />
</g>
<g id="#fec500ff">
<path fill="#fec500" opacity="1.00" d=" M 627.90 688.11 C 684.57 688.03 741.24 688.04 797.92 688.11 C 697.34 789.14 596.40 889.82 495.73 990.76 C 490.14 996.48 484.27 1001.93 478.88 1007.85 C 422.19 1008.01 365.49 1007.95 308.80 1007.88 C 312.10 1003.85 315.93 1000.31 319.59 996.62 C 422.34 893.76 525.19 791.01 627.90 688.11 Z" />
</g>
<g id="#009c37ff">
<path fill="#009c37" opacity="1.00" d=" M 797.92 688.11 C 854.54 688.02 911.17 688.07 967.79 688.09 C 917.02 739.23 865.92 790.04 815.03 841.06 C 759.43 896.68 703.83 952.30 648.24 1007.94 C 591.79 1007.87 535.33 1008.05 478.88 1007.85 C 484.27 1001.93 490.14 996.48 495.73 990.76 C 596.40 889.82 697.34 789.14 797.92 688.11 Z" />
</g>
<g id="#00559eff">
<path fill="#00559e" opacity="1.00" d=" M 967.79 688.09 C 1022.21 688.03 1076.62 688.09 1131.03 688.05 C 1132.75 688.05 1134.46 688.32 1136.18 688.56 C 1130.35 692.88 1125.75 698.59 1120.47 703.53 C 1021.83 802.21 923.18 900.88 824.55 999.56 C 822.08 1002.26 819.02 1004.45 817.10 1007.62 C 806.10 1008.33 795.04 1007.74 784.02 1007.93 C 738.76 1007.93 693.50 1007.93 648.24 1007.94 C 703.83 952.30 759.43 896.68 815.03 841.06 C 865.92 790.04 917.02 739.23 967.79 688.09 Z" />
</g>
</svg>
