<?xml version="1.0" encoding="UTF-8" ?>
<!DOCTYPE svg PUBLIC "-//W3C//DTD SVG 1.1//EN" "http://www.w3.org/Graphics/SVG/1.1/DTD/svg11.dtd">
<svg width="1276pt" height="1276pt" viewBox="0 0 1276 1276" version="1.1" xmlns="http://www.w3.org/2000/svg">
<g id="#ff221cff">
<path fill="#ff221c" opacity="1.00" d=" M 379.25 284.28 C 391.81 283.73 404.44 284.20 417.03 284.05 C 661.01 284.05 904.99 284.05 1148.97 284.05 C 1157.05 284.08 1165.84 283.19 1172.99 287.78 C 1178.14 290.54 1181.87 296.09 1181.93 302.00 C 1182.44 308.74 1178.76 314.74 1177.22 321.12 C 1106.43 536.05 1035.67 750.98 964.89 965.91 C 962.27 972.95 956.87 978.52 950.98 982.98 C 942.48 988.72 932.30 992.51 921.94 991.95 C 652.95 991.95 383.96 991.96 114.96 991.95 C 108.45 991.26 101.54 988.93 97.39 983.59 C 93.32 978.00 93.07 970.32 95.87 964.13 C 178.13 746.35 260.39 528.55 342.64 310.78 C 348.31 295.76 363.89 286.48 379.25 284.28 M 963.02 296.62 C 917.01 296.93 871.01 297.55 825.01 297.68 C 823.52 297.70 822.05 297.86 820.61 298.13 C 818.79 297.57 816.88 297.72 815.02 297.72 C 778.02 298.16 741.01 298.49 704.00 298.69 C 699.20 298.79 694.38 298.42 689.62 299.11 C 686.83 298.38 683.90 298.83 681.06 298.78 C 648.71 299.19 616.36 299.61 584.00 299.61 C 532.99 300.12 481.98 300.58 430.97 300.78 C 429.39 300.79 427.84 301.02 426.33 301.50 C 424.65 300.77 422.76 301.32 421.02 301.40 C 403.01 303.61 385.10 309.00 369.81 318.97 C 356.09 327.57 345.56 340.98 340.41 356.33 C 332.59 377.84 324.60 399.29 316.87 420.83 C 315.16 423.71 314.44 427.02 313.16 430.09 C 305.98 450.76 298.00 471.15 290.83 491.82 C 284.94 506.23 280.43 521.22 274.55 535.67 C 271.59 542.67 269.74 550.07 267.05 557.17 C 278.12 562.38 289.94 565.89 301.08 570.93 C 306.17 571.97 311.21 573.88 315.44 576.96 C 312.67 580.11 309.12 582.63 306.90 586.22 L 307.23 587.79 C 281.09 616.65 262.48 651.69 249.79 688.28 C 249.55 688.19 249.06 688.01 248.82 687.92 C 248.92 688.98 249.11 691.10 249.20 692.16 C 249.90 691.90 251.30 691.37 252.01 691.11 C 348.68 691.06 445.36 691.13 542.03 691.07 C 543.74 691.11 545.43 691.44 547.11 691.77 C 519.97 776.45 492.91 861.16 465.72 945.83 C 510.84 945.84 555.96 945.79 601.08 945.86 C 602.25 942.54 603.26 939.17 604.39 935.84 C 604.73 936.18 605.42 936.87 605.76 937.21 C 606.99 931.99 609.50 927.13 610.21 921.80 L 608.81 922.04 C 615.85 899.70 623.07 877.41 630.17 855.08 C 630.44 853.58 631.96 852.96 633.04 852.13 C 651.34 839.68 669.46 826.95 687.80 814.57 C 704.82 858.35 722.07 902.06 739.25 945.79 C 799.23 945.86 859.22 945.84 919.21 945.80 C 886.13 875.90 853.38 805.84 820.33 735.92 C 821.54 735.12 822.77 734.33 823.98 733.51 L 825.08 734.18 C 824.41 735.14 823.75 736.11 823.09 737.09 C 824.55 741.05 826.55 744.77 828.38 748.57 C 839.01 745.73 849.50 742.40 859.94 738.89 C 871.82 734.38 884.04 730.65 895.46 725.03 C 922.21 713.71 948.14 700.38 972.43 684.41 C 978.23 680.47 984.37 676.90 989.72 672.37 C 1008.20 659.26 1025.60 644.59 1041.40 628.36 C 1046.37 623.45 1051.16 618.36 1055.51 612.89 L 1055.49 612.40 C 1061.94 607.38 1063.11 599.02 1065.91 591.87 C 1073.92 568.96 1082.28 546.17 1090.02 523.17 C 1097.66 501.78 1105.16 480.33 1112.71 458.90 C 1113.88 454.77 1116.18 450.85 1116.60 446.57 C 1118.96 442.26 1120.07 437.43 1121.84 432.87 C 1124.44 425.00 1127.67 417.32 1129.90 409.35 C 1137.87 387.68 1145.34 365.82 1153.07 344.06 C 1156.43 335.40 1158.18 325.86 1156.52 316.63 C 1155.31 309.74 1151.20 303.29 1145.01 299.89 C 1137.17 295.34 1127.81 295.16 1119.01 295.40 C 1067.01 295.72 1015.02 296.35 963.02 296.62 Z" />
<path fill="#ff221c" opacity="1.00" d=" M 549.50 424.96 C 563.46 424.03 577.54 423.71 591.49 424.99 C 584.78 426.74 577.84 425.27 571.01 425.61 C 563.84 425.24 556.51 427.05 549.50 424.96 Z" />
<path fill="#ff221c" opacity="1.00" d=" M 491.67 451.06 C 499.05 441.98 509.07 435.22 520.01 431.15 C 520.14 431.51 520.40 432.23 520.54 432.59 C 513.90 435.04 507.58 438.39 502.09 442.90 C 498.32 445.67 495.40 449.36 491.93 452.46 L 491.67 451.06 Z" />
<path fill="#ff221c" opacity="1.00" d=" M 557.32 482.31 C 559.14 481.97 561.16 481.54 562.65 483.02 C 541.18 487.34 519.71 491.65 498.24 495.97 C 497.66 495.60 496.49 494.86 495.91 494.50 C 516.36 490.34 536.88 486.55 557.32 482.31 Z" />
<path fill="#ff221c" opacity="1.00" d=" M 694.27 655.31 C 696.08 658.48 693.92 661.83 693.07 664.95 C 687.17 682.83 681.48 700.77 676.10 718.80 C 687.99 710.85 699.14 701.77 711.03 693.86 C 711.44 694.02 712.27 694.34 712.68 694.50 C 699.12 704.46 685.60 714.48 671.98 724.37 C 679.45 701.36 686.80 678.31 694.27 655.31 Z" />
<path fill="#ff221c" opacity="1.00" d=" M 849.31 716.36 C 855.88 711.89 862.47 707.46 869.07 703.03 C 868.35 707.19 863.75 708.32 860.84 710.61 C 857.49 712.62 854.52 715.26 850.96 716.90 C 850.55 716.76 849.72 716.50 849.31 716.36 Z" />
</g>
<g id="#ff6247ff">
<path fill="#ff6247" opacity="1.00" d=" M 963.02 296.62 C 1015.02 296.35 1067.01 295.72 1119.01 295.40 C 1127.81 295.16 1137.17 295.34 1145.01 299.89 C 1151.20 303.29 1155.31 309.74 1156.52 316.63 C 1158.18 325.86 1156.43 335.40 1153.07 344.06 C 1145.34 365.82 1137.87 387.68 1129.90 409.35 C 1129.47 408.04 1129.07 406.69 1128.35 405.52 C 1120.32 401.92 1112.06 398.95 1103.63 396.41 C 1098.86 395.11 1095.08 391.58 1090.16 390.77 C 1085.95 387.91 1080.65 388.08 1076.25 385.67 C 1069.22 382.27 1061.39 380.71 1054.67 376.70 C 1048.04 374.80 1041.77 371.90 1035.18 369.89 C 1027.09 366.00 1018.11 364.28 1010.34 359.73 C 1006.50 358.78 1002.75 357.63 999.19 355.91 C 995.21 354.92 991.65 352.95 988.07 351.08 C 984.13 351.20 980.91 348.43 977.12 347.74 C 970.82 344.96 964.26 342.87 957.97 340.11 C 952.30 339.00 947.47 335.71 942.10 333.80 C 925.02 327.90 908.31 321.01 891.42 314.59 C 886.84 312.25 881.74 311.31 877.09 309.15 C 869.67 306.67 862.79 302.86 855.39 300.34 C 844.03 297.20 831.98 300.81 820.61 298.13 C 822.05 297.86 823.52 297.70 825.01 297.68 C 871.01 297.55 917.01 296.93 963.02 296.62 Z" />
</g>
<g id="#ff5b42ff">
<path fill="#ff5b42" opacity="1.00" d=" M 704.00 298.69 C 741.01 298.49 778.02 298.16 815.02 297.72 C 816.88 297.72 818.79 297.57 820.61 298.13 C 831.98 300.81 844.03 297.20 855.39 300.34 C 862.79 302.86 869.67 306.67 877.09 309.15 C 881.74 311.31 886.84 312.25 891.42 314.59 C 908.31 321.01 925.02 327.90 942.10 333.80 C 947.47 335.71 952.30 339.00 957.97 340.11 C 964.26 342.87 970.82 344.96 977.12 347.74 C 980.91 348.43 984.13 351.20 988.07 351.08 C 991.65 352.95 995.21 354.92 999.19 355.91 C 1002.75 357.63 1006.50 358.78 1010.34 359.73 C 1018.11 364.28 1027.09 366.00 1035.18 369.89 C 1041.77 371.90 1048.04 374.80 1054.67 376.70 C 1061.39 380.71 1069.22 382.27 1076.25 385.67 C 1080.65 388.08 1085.95 387.91 1090.16 390.77 C 1095.08 391.58 1098.86 395.11 1103.63 396.41 C 1112.06 398.95 1120.32 401.92 1128.35 405.52 C 1129.07 406.69 1129.47 408.04 1129.90 409.35 C 1127.67 417.32 1124.44 425.00 1121.84 432.87 C 1120.07 437.43 1118.96 442.26 1116.60 446.57 C 1116.04 443.88 1116.89 441.26 1117.78 438.76 C 1117.29 438.60 1116.31 438.28 1115.82 438.12 C 1117.84 436.71 1119.80 435.03 1119.89 432.37 C 1119.43 432.15 1118.52 431.71 1118.06 431.49 C 1117.53 431.74 1117.03 432.00 1116.54 432.27 C 1114.36 428.97 1110.11 429.65 1106.75 429.23 C 1105.25 428.28 1104.12 426.89 1102.90 425.65 C 1102.56 425.81 1101.89 426.13 1101.55 426.28 C 1100.88 425.72 1100.21 425.16 1099.58 424.61 C 1098.73 424.53 1097.89 424.46 1097.08 424.40 C 1095.34 422.11 1092.20 422.38 1089.87 421.06 C 1087.11 419.63 1083.01 421.21 1081.51 417.71 C 1080.88 418.10 1080.28 418.50 1079.69 418.90 C 1078.76 417.84 1077.84 416.78 1076.93 415.73 C 1074.08 417.59 1071.31 415.13 1068.62 414.20 C 1068.36 413.79 1067.85 412.99 1067.59 412.59 C 1066.96 412.98 1066.35 413.37 1065.75 413.78 C 1063.55 412.18 1061.63 410.18 1059.25 408.89 C 1057.93 408.75 1056.63 409.02 1055.34 409.18 C 1052.79 405.55 1048.23 404.78 1044.23 403.76 C 1042.62 403.29 1041.04 403.97 1039.50 404.30 C 1038.14 401.90 1035.86 399.80 1033.00 401.17 C 1031.60 399.73 1030.20 398.29 1028.79 396.88 C 1028.67 397.38 1028.42 398.38 1028.30 398.87 C 1020.67 395.39 1013.29 391.55 1005.69 388.05 C 1005.59 388.55 1005.38 389.54 1005.27 390.04 C 1003.70 387.38 1000.74 386.58 998.22 385.17 L 998.73 386.94 C 994.53 384.37 990.18 381.86 985.32 380.82 C 983.11 380.42 981.10 379.43 979.20 378.29 C 978.40 378.75 977.62 379.22 976.85 379.69 C 974.72 377.23 972.10 374.02 968.42 375.08 C 966.76 371.80 962.65 372.73 959.85 371.19 C 956.24 369.72 952.50 366.84 948.43 368.06 C 947.54 367.14 947.00 365.73 945.75 365.28 C 944.56 365.46 943.50 366.05 942.42 366.47 C 939.56 364.25 936.04 359.40 932.13 362.35 C 929.94 359.06 925.70 358.58 922.65 356.38 C 917.24 354.87 912.21 352.26 906.74 350.98 C 902.74 349.74 899.15 346.53 894.71 347.62 C 894.63 346.96 894.57 346.30 894.52 345.65 C 891.20 345.83 888.40 344.10 885.93 342.07 C 885.63 342.64 885.35 343.21 885.08 343.78 C 880.61 339.73 874.34 339.70 869.29 336.82 C 868.31 336.66 867.34 336.64 866.37 336.59 C 866.68 336.21 867.29 335.43 867.59 335.05 C 866.21 334.91 864.85 334.77 863.49 334.56 L 863.63 335.49 C 861.19 334.50 858.46 335.18 855.95 334.48 C 857.23 333.75 858.52 333.04 859.83 332.32 C 857.39 330.82 855.35 332.30 853.76 334.22 C 853.65 333.01 853.53 331.80 853.41 330.59 C 848.42 329.42 844.41 325.53 839.09 325.43 C 837.91 324.07 836.47 323.16 834.59 323.48 C 831.31 323.87 829.10 321.10 826.39 319.83 C 824.79 319.44 823.15 319.48 821.53 319.35 C 820.67 318.18 819.72 316.90 818.13 316.86 C 815.10 316.51 812.65 314.61 810.09 313.14 C 809.49 313.77 809.23 314.83 808.30 315.06 C 807.59 314.24 806.92 313.41 806.28 312.56 C 804.56 312.04 802.75 311.72 801.22 310.77 C 798.29 308.79 794.79 307.99 791.70 306.30 C 788.30 304.49 784.24 304.69 780.86 302.81 C 778.87 302.06 777.34 300.05 775.10 300.16 C 769.75 300.33 764.39 300.39 759.05 300.08 C 740.36 300.05 721.67 300.09 702.98 300.05 C 698.49 300.27 693.86 301.17 689.62 299.11 C 694.38 298.42 699.20 298.79 704.00 298.69 Z" />
</g>
<g id="#ff553eff">
<path fill="#ff553e" opacity="1.00" d=" M 584.00 299.61 C 616.36 299.61 648.71 299.19 681.06 298.78 C 683.90 298.83 686.83 298.38 689.62 299.11 C 693.86 301.17 698.49 300.27 702.98 300.05 C 721.67 300.09 740.36 300.05 759.05 300.08 C 764.39 300.39 769.75 300.33 775.10 300.16 C 777.34 300.05 778.87 302.06 780.86 302.81 C 784.24 304.69 788.30 304.49 791.70 306.30 C 794.79 307.99 798.29 308.79 801.22 310.77 C 802.75 311.72 804.56 312.04 806.28 312.56 C 806.92 313.41 807.59 314.24 808.30 315.06 C 809.23 314.83 809.49 313.77 810.09 313.14 C 812.65 314.61 815.10 316.51 818.13 316.86 C 819.72 316.90 820.67 318.18 821.53 319.35 C 823.15 319.48 824.79 319.44 826.39 319.83 C 829.10 321.10 831.31 323.87 834.59 323.48 C 836.47 323.16 837.91 324.07 839.09 325.43 C 844.41 325.53 848.42 329.42 853.41 330.59 C 853.53 331.80 853.65 333.01 853.76 334.22 C 855.35 332.30 857.39 330.82 859.83 332.32 C 858.52 333.04 857.23 333.75 855.95 334.48 C 858.46 335.18 861.19 334.50 863.63 335.49 L 863.49 334.56 C 864.85 334.77 866.21 334.91 867.59 335.05 C 867.29 335.43 866.68 336.21 866.37 336.59 C 867.34 336.64 868.31 336.66 869.29 336.82 C 874.34 339.70 880.61 339.73 885.08 343.78 C 885.35 343.21 885.63 342.64 885.93 342.07 C 888.40 344.10 891.20 345.83 894.52 345.65 C 894.57 346.30 894.63 346.96 894.71 347.62 C 899.15 346.53 902.74 349.74 906.74 350.98 C 912.21 352.26 917.24 354.87 922.65 356.38 C 925.70 358.58 929.94 359.06 932.13 362.35 C 936.04 359.40 939.56 364.25 942.42 366.47 C 943.50 366.05 944.56 365.46 945.75 365.28 C 947.00 365.73 947.54 367.14 948.43 368.06 C 952.50 366.84 956.24 369.72 959.85 371.19 C 962.65 372.73 966.76 371.80 968.42 375.08 C 972.10 374.02 974.72 377.23 976.85 379.69 C 977.62 379.22 978.40 378.75 979.20 378.29 C 981.10 379.43 983.11 380.42 985.32 380.82 C 990.18 381.86 994.53 384.37 998.73 386.94 L 998.22 385.17 C 1000.74 386.58 1003.70 387.38 1005.27 390.04 C 1005.38 389.54 1005.59 388.55 1005.69 388.05 C 1013.29 391.55 1020.67 395.39 1028.30 398.87 C 1028.42 398.38 1028.67 397.38 1028.79 396.88 C 1030.20 398.29 1031.60 399.73 1033.00 401.17 C 1035.86 399.80 1038.14 401.90 1039.50 404.30 C 1041.04 403.97 1042.62 403.29 1044.23 403.76 C 1048.23 404.78 1052.79 405.55 1055.34 409.18 C 1056.63 409.02 1057.93 408.75 1059.25 408.89 C 1061.63 410.18 1063.55 412.18 1065.75 413.78 C 1066.35 413.37 1066.96 412.98 1067.59 412.59 C 1067.85 412.99 1068.36 413.79 1068.62 414.20 C 1071.31 415.13 1074.08 417.59 1076.93 415.73 C 1077.84 416.78 1078.76 417.84 1079.69 418.90 C 1080.28 418.50 1080.88 418.10 1081.51 417.71 C 1083.01 421.21 1087.11 419.63 1089.87 421.06 C 1092.20 422.38 1095.34 422.11 1097.08 424.40 C 1097.89 424.46 1098.73 424.53 1099.58 424.61 C 1100.21 425.16 1100.88 425.72 1101.55 426.28 C 1101.89 426.13 1102.56 425.81 1102.90 425.65 C 1104.12 426.89 1105.25 428.28 1106.75 429.23 C 1110.11 429.65 1114.36 428.97 1116.54 432.27 C 1117.03 432.00 1117.53 431.74 1118.06 431.49 C 1118.52 431.71 1119.43 432.15 1119.89 432.37 C 1119.80 435.03 1117.84 436.71 1115.82 438.12 C 1116.31 438.28 1117.29 438.60 1117.78 438.76 C 1116.89 441.26 1116.04 443.88 1116.60 446.57 C 1116.18 450.85 1113.88 454.77 1112.71 458.90 C 1105.16 480.33 1097.66 501.78 1090.02 523.17 C 1087.95 517.65 1081.48 517.00 1076.61 515.44 C 1067.57 511.74 1058.23 508.75 1049.30 504.81 C 1048.89 504.94 1048.06 505.18 1047.65 505.30 C 1045.38 502.36 1041.53 502.13 1038.38 500.70 C 1032.98 498.67 1027.90 495.72 1022.16 494.69 C 1010.25 490.75 998.87 485.38 987.20 480.84 C 977.88 478.37 969.46 473.41 960.25 470.63 C 955.06 470.25 950.99 466.70 946.23 465.01 C 932.95 460.92 920.39 454.79 907.11 450.73 C 900.05 447.07 892.13 445.47 885.25 441.42 C 884.63 441.63 884.02 441.85 883.43 442.08 C 877.83 437.61 869.95 437.51 864.43 432.84 C 860.09 434.11 856.30 430.86 852.31 429.76 C 845.37 427.85 839.32 423.70 832.37 421.83 C 829.66 421.27 827.75 418.97 825.04 418.45 C 816.19 416.34 808.32 411.29 799.34 409.68 C 794.93 407.55 790.45 405.61 785.79 404.11 C 781.22 401.02 775.61 400.51 770.75 398.10 C 768.83 396.94 768.98 392.53 766.09 393.71 C 759.77 380.48 748.37 370.38 735.72 363.35 C 717.87 353.44 697.85 348.23 677.86 344.74 C 659.10 341.36 640.05 339.95 621.04 338.85 C 621.23 338.46 621.60 337.66 621.79 337.27 C 618.27 337.12 614.76 336.99 611.25 336.86 C 604.91 333.88 598.23 331.66 591.46 329.93 C 584.06 326.72 576.77 323.24 569.03 320.89 C 566.18 320.11 563.89 318.12 561.16 317.08 C 555.00 315.74 549.41 312.66 543.24 311.33 C 535.97 307.86 528.42 305.00 520.81 302.41 C 508.24 301.38 495.63 302.95 483.05 302.18 C 476.01 302.29 468.97 302.23 461.94 302.00 C 456.56 301.72 451.21 303.27 445.85 302.40 C 440.59 301.58 435.29 302.23 430.02 302.43 C 428.70 302.58 427.48 302.05 426.33 301.50 C 427.84 301.02 429.39 300.79 430.97 300.78 C 481.98 300.58 532.99 300.12 584.00 299.61 Z" />
</g>
<g id="#ff4c38ff">
<path fill="#ff4c38" opacity="1.00" d=" M 369.81 318.97 C 385.10 309.00 403.01 303.61 421.02 301.40 C 422.76 301.32 424.65 300.77 426.33 301.50 C 427.48 302.05 428.70 302.58 430.02 302.43 C 435.29 302.23 440.59 301.58 445.85 302.40 C 451.21 303.27 456.56 301.72 461.94 302.00 C 468.97 302.23 476.01 302.29 483.05 302.18 C 495.63 302.95 508.24 301.38 520.81 302.41 C 528.42 305.00 535.97 307.86 543.24 311.33 C 549.41 312.66 555.00 315.74 561.16 317.08 C 563.89 318.12 566.18 320.11 569.03 320.89 C 576.77 323.24 584.06 326.72 591.46 329.93 C 598.23 331.66 604.91 333.88 611.25 336.86 C 607.96 336.96 604.64 337.15 601.50 338.20 C 590.56 338.23 579.62 338.13 568.68 338.27 C 563.48 335.77 557.52 337.24 551.99 337.30 C 552.54 337.68 553.62 338.43 554.16 338.80 C 551.99 338.97 549.83 339.14 547.67 339.17 C 544.52 337.05 540.64 338.08 537.13 338.21 C 537.41 338.62 537.97 339.43 538.25 339.83 C 537.76 339.88 536.79 339.99 536.31 340.04 C 534.31 339.23 532.24 338.33 530.04 338.63 C 507.83 340.96 485.71 344.83 464.30 351.23 C 459.97 351.74 456.01 355.61 451.57 353.86 C 450.50 353.64 450.70 352.32 450.39 351.55 C 449.27 352.08 448.14 352.61 447.03 353.14 C 444.33 352.09 441.49 351.39 438.85 350.20 C 437.54 348.99 436.63 347.42 435.54 346.02 C 435.51 347.05 435.49 348.07 435.48 349.11 C 429.81 343.71 420.61 345.66 414.75 340.33 C 412.51 339.51 410.08 339.32 407.89 338.40 C 407.32 337.07 406.89 335.62 405.36 335.09 C 404.55 335.67 403.75 336.25 402.94 336.83 C 402.44 336.17 401.94 335.50 401.45 334.84 C 395.80 334.14 390.16 332.18 385.86 328.33 L 386.10 329.60 C 380.76 327.15 374.02 327.19 370.04 322.31 C 370.50 321.62 370.96 320.93 371.43 320.24 C 371.02 319.92 370.22 319.29 369.81 318.97 Z" />
</g>
<g id="#ff4231ff">
<path fill="#ff4231" opacity="1.00" d=" M 340.41 356.33 C 345.56 340.98 356.09 327.57 369.81 318.97 C 370.22 319.29 371.02 319.92 371.43 320.24 C 370.96 320.93 370.50 321.62 370.04 322.31 C 374.02 327.19 380.76 327.15 386.10 329.60 L 385.86 328.33 C 390.16 332.18 395.80 334.14 401.45 334.84 C 401.94 335.50 402.44 336.17 402.94 336.83 C 403.75 336.25 404.55 335.67 405.36 335.09 C 406.89 335.62 407.32 337.07 407.89 338.40 C 410.08 339.32 412.51 339.51 414.75 340.33 C 420.61 345.66 429.81 343.71 435.48 349.11 C 435.49 348.07 435.51 347.05 435.54 346.02 C 436.63 347.42 437.54 348.99 438.85 350.20 C 441.49 351.39 444.33 352.09 447.03 353.14 C 448.14 352.61 449.27 352.08 450.39 351.55 C 450.70 352.32 450.50 353.64 451.57 353.86 C 456.01 355.61 459.97 351.74 464.30 351.23 C 485.71 344.83 507.83 340.96 530.04 338.63 C 532.24 338.33 534.31 339.23 536.31 340.04 C 497.02 343.53 457.50 351.93 422.35 370.41 C 406.99 378.39 392.73 388.43 379.89 400.04 C 376.04 400.39 373.84 403.85 371.23 406.24 C 369.83 407.44 369.16 409.13 368.99 410.94 C 366.23 414.30 363.26 417.48 360.57 420.89 L 359.85 419.64 C 357.70 421.25 356.16 423.47 354.58 425.60 C 351.74 425.22 349.64 423.36 347.55 421.59 C 345.40 421.21 343.06 422.00 341.03 420.99 C 338.63 419.88 336.49 418.30 334.15 417.11 C 331.80 415.96 328.99 416.31 326.71 414.98 C 325.15 414.14 323.61 413.28 322.02 412.52 C 320.27 415.95 319.12 419.64 317.41 423.09 C 317.28 422.53 317.01 421.39 316.87 420.83 C 324.60 399.29 332.59 377.84 340.41 356.33 Z" />
</g>
<g id="#ff351eff">
<path fill="#ff351e" opacity="1.00" d=" M 551.99 337.30 C 557.52 337.24 563.48 335.77 568.68 338.27 C 563.84 338.49 558.99 338.47 554.16 338.80 C 553.62 338.43 552.54 337.68 551.99 337.30 Z" />
</g>
<g id="#ff2b22ff">
<path fill="#ff2b22" opacity="1.00" d=" M 601.50 338.20 C 604.64 337.15 607.96 336.96 611.25 336.86 C 614.76 336.99 618.27 337.12 621.79 337.27 C 621.60 337.66 621.23 338.46 621.04 338.85 C 614.54 338.37 608.01 338.53 601.50 338.20 Z" />
<path fill="#ff2b22" opacity="1.00" d=" M 274.55 535.67 C 280.43 521.22 284.94 506.23 290.83 491.82 C 290.90 492.23 291.03 493.05 291.09 493.45 C 291.73 493.17 292.38 492.89 293.02 492.62 C 299.11 496.51 306.93 497.01 312.35 502.05 C 313.41 501.84 314.51 501.50 315.55 502.00 C 319.77 503.65 324.15 504.84 328.30 506.66 C 334.38 509.38 340.86 511.07 346.77 514.17 C 353.49 515.81 359.72 518.85 366.24 521.03 C 368.66 522.20 371.07 523.39 373.52 524.50 C 373.79 525.58 374.07 526.66 374.35 527.75 C 374.72 526.98 375.10 526.22 375.48 525.46 C 378.44 525.77 381.11 527.09 383.85 528.16 C 389.91 526.02 395.63 522.96 401.61 520.57 C 402.99 519.78 404.49 520.02 405.81 520.85 C 376.34 532.63 348.55 548.93 324.88 570.16 C 320.52 570.04 318.39 574.49 315.44 576.96 C 311.21 573.88 306.17 571.97 301.08 570.93 C 289.94 565.89 278.12 562.38 267.05 557.17 C 269.74 550.07 271.59 542.67 274.55 535.67 Z" />
</g>
<g id="#ff341dff">
<path fill="#ff341d" opacity="1.00" d=" M 537.13 338.21 C 540.64 338.08 544.52 337.05 547.67 339.17 C 544.52 339.37 541.38 339.59 538.25 339.83 C 537.97 339.43 537.41 338.62 537.13 338.21 Z" />
</g>
<g id="#ffffffff">
<path fill="#ffffff" opacity="1.00" d=" M 554.16 338.80 C 558.99 338.47 563.84 338.49 568.68 338.27 C 579.62 338.13 590.56 338.23 601.50 338.20 C 608.01 338.53 614.54 338.37 621.04 338.85 C 640.05 339.95 659.10 341.36 677.86 344.74 C 697.85 348.23 717.87 353.44 735.72 363.35 C 748.37 370.38 759.77 380.48 766.09 393.71 C 772.98 408.07 773.12 424.73 769.93 440.08 C 767.14 453.94 761.92 467.33 754.31 479.26 C 736.58 506.76 707.90 525.07 678.10 537.20 C 659.06 544.84 639.18 550.32 619.00 554.00 C 581.60 560.63 544.19 567.17 506.79 573.85 C 488.48 577.22 469.82 579.56 452.25 586.02 C 442.88 589.46 433.93 594.28 426.48 600.98 C 425.55 601.89 424.67 602.86 423.83 603.86 C 447.54 603.39 471.28 603.79 495.00 603.64 C 566.97 603.67 638.95 603.55 710.93 603.66 C 710.28 605.53 709.65 607.41 709.07 609.31 C 707.88 613.09 706.63 616.85 705.46 620.63 C 701.63 632.16 697.94 643.73 694.27 655.31 C 686.80 678.31 679.45 701.36 671.98 724.37 C 685.60 714.48 699.12 704.46 712.68 694.50 C 735.76 677.61 758.79 660.66 781.81 643.69 C 798.17 631.77 814.46 619.75 830.76 607.76 C 833.14 606.39 835.05 603.61 838.01 603.64 C 897.20 603.64 956.40 603.70 1015.59 603.59 C 997.24 616.52 978.38 628.74 959.92 641.52 C 956.29 643.98 952.65 646.42 949.04 648.90 C 922.34 666.88 895.66 684.90 869.07 703.03 C 862.47 707.46 855.88 711.89 849.31 716.36 C 840.85 722.06 832.40 727.76 823.98 733.51 C 822.77 734.33 821.54 735.12 820.33 735.92 C 853.38 805.84 886.13 875.90 919.21 945.80 C 859.22 945.84 799.23 945.86 739.25 945.79 C 722.07 902.06 704.82 858.35 687.80 814.57 C 669.46 826.95 651.34 839.68 633.04 852.13 C 631.96 852.96 630.44 853.58 630.17 855.08 C 623.07 877.41 615.85 899.70 608.81 922.04 C 607.32 926.63 605.86 931.24 604.39 935.84 C 603.26 939.17 602.25 942.54 601.08 945.86 C 555.96 945.79 510.84 945.84 465.72 945.83 C 492.91 861.16 519.97 776.45 547.11 691.77 C 547.29 691.22 547.66 690.12 547.84 689.57 C 451.24 689.59 354.64 689.58 258.05 689.57 C 255.44 689.67 252.69 689.13 250.23 690.24 C 250.12 689.75 249.90 688.77 249.79 688.28 C 262.48 651.69 281.09 616.65 307.23 587.79 C 312.85 581.66 318.77 575.80 324.88 570.16 C 348.55 548.93 376.34 532.63 405.81 520.85 C 422.52 514.36 439.65 508.94 457.09 504.76 C 470.71 501.37 484.51 498.82 498.24 495.97 C 519.71 491.65 541.18 487.34 562.65 483.02 C 570.85 481.49 579.01 479.78 587.20 478.16 C 596.80 476.24 606.42 472.48 613.42 465.41 C 618.45 460.11 622.13 453.25 622.75 445.89 C 623.17 440.18 619.75 434.83 614.96 431.95 C 607.94 427.57 599.61 425.89 591.49 424.99 C 577.54 423.71 563.46 424.03 549.50 424.96 C 539.47 425.78 529.43 427.54 520.01 431.15 C 509.07 435.22 499.05 441.98 491.67 451.06 C 486.45 457.18 482.47 464.30 479.45 471.73 C 429.93 472.05 380.41 471.81 330.89 471.87 C 338.65 453.75 348.14 436.25 360.57 420.89 C 363.26 417.48 366.23 414.30 368.99 410.94 C 372.48 407.17 376.14 403.55 379.89 400.04 C 392.73 388.43 406.99 378.39 422.35 370.41 C 457.50 351.93 497.02 343.53 536.31 340.04 C 536.79 339.99 537.76 339.88 538.25 339.83 C 541.38 339.59 544.52 339.37 547.67 339.17 C 549.83 339.14 551.99 338.97 554.16 338.80 Z" />
</g>
<g id="#ff4b37ff">
<path fill="#ff4b37" opacity="1.00" d=" M 766.09 393.71 C 768.98 392.53 768.83 396.94 770.75 398.10 C 775.61 400.51 781.22 401.02 785.79 404.11 C 790.45 405.61 794.93 407.55 799.34 409.68 C 808.32 411.29 816.19 416.34 825.04 418.45 C 827.75 418.97 829.66 421.27 832.37 421.83 C 839.32 423.70 845.37 427.85 852.31 429.76 C 856.30 430.86 860.09 434.11 864.43 432.84 C 869.95 437.51 877.83 437.61 883.43 442.08 C 884.02 441.85 884.63 441.63 885.25 441.42 C 892.13 445.47 900.05 447.07 907.11 450.73 C 920.39 454.79 932.95 460.92 946.23 465.01 C 950.99 466.70 955.06 470.25 960.25 470.63 C 969.46 473.41 977.88 478.37 987.20 480.84 C 998.87 485.38 1010.25 490.75 1022.16 494.69 C 1027.90 495.72 1032.98 498.67 1038.38 500.70 C 1041.53 502.13 1045.38 502.36 1047.65 505.30 C 1048.06 505.18 1048.89 504.94 1049.30 504.81 C 1058.23 508.75 1067.57 511.74 1076.61 515.44 C 1081.48 517.00 1087.95 517.65 1090.02 523.17 C 1082.28 546.17 1073.92 568.96 1065.91 591.87 C 1063.11 599.02 1061.94 607.38 1055.49 612.40 C 1055.16 608.63 1059.24 606.40 1060.32 602.98 C 1057.31 600.79 1053.62 600.09 1050.22 598.79 C 1040.60 595.46 1031.18 591.58 1021.77 587.74 C 1016.44 586.07 1011.34 583.80 1006.21 581.63 C 1001.32 579.91 996.06 579.14 991.49 576.59 C 986.01 573.64 979.91 572.19 974.23 569.72 C 968.87 567.31 963.23 565.60 957.84 563.29 C 954.44 561.68 950.46 561.82 947.23 559.83 C 942.37 556.95 936.67 556.05 931.76 553.29 C 922.67 550.26 913.72 546.73 904.90 542.98 C 897.69 540.81 891.18 536.81 883.79 535.18 C 877.38 532.71 871.04 530.03 864.71 527.38 C 855.22 524.59 846.35 520.11 836.95 517.08 C 828.98 514.66 821.60 510.68 813.67 508.14 C 809.51 506.80 805.61 504.79 801.44 503.48 C 792.82 500.72 784.73 496.55 776.10 493.82 C 768.27 491.30 761.00 487.43 753.20 484.85 C 753.74 483.06 755.53 481.15 754.31 479.26 C 761.92 467.33 767.14 453.94 769.93 440.08 C 773.12 424.73 772.98 408.07 766.09 393.71 Z" />
</g>
<g id="#ff2515ff">
<path fill="#ff2515" opacity="1.00" d=" M 371.23 406.24 C 373.84 403.85 376.04 400.39 379.89 400.04 C 376.14 403.55 372.48 407.17 368.99 410.94 C 369.16 409.13 369.83 407.44 371.23 406.24 Z" />
</g>
<g id="#ff3328ff">
<path fill="#ff3328" opacity="1.00" d=" M 317.41 423.09 C 319.12 419.64 320.27 415.95 322.02 412.52 C 323.61 413.28 325.15 414.14 326.71 414.98 C 328.99 416.31 331.80 415.96 334.15 417.11 C 336.49 418.30 338.63 419.88 341.03 420.99 C 343.06 422.00 345.40 421.21 347.55 421.59 C 349.64 423.36 351.74 425.22 354.58 425.60 C 356.16 423.47 357.70 421.25 359.85 419.64 L 360.57 420.89 C 348.14 436.25 338.65 453.75 330.89 471.87 C 330.75 472.11 330.47 472.59 330.34 472.83 C 374.55 472.35 418.79 472.86 463.01 472.73 C 467.99 472.87 473.00 472.38 477.96 472.98 C 478.29 473.22 478.95 473.68 479.28 473.91 C 473.52 474.73 467.71 473.91 461.93 474.29 C 458.77 474.42 457.10 477.57 455.06 479.55 C 460.75 478.94 465.29 483.00 470.08 485.37 C 471.02 485.39 471.98 485.37 472.93 485.30 C 473.49 485.91 474.05 486.54 474.63 487.17 C 479.13 485.99 482.25 491.35 486.82 490.52 C 487.15 491.15 487.49 491.80 487.83 492.46 C 490.60 492.74 493.42 493.17 495.91 494.50 C 496.49 494.86 497.66 495.60 498.24 495.97 C 484.51 498.82 470.71 501.37 457.09 504.76 C 439.65 508.94 422.52 514.36 405.81 520.85 C 404.49 520.02 402.99 519.78 401.61 520.57 C 395.63 522.96 389.91 526.02 383.85 528.16 C 381.11 527.09 378.44 525.77 375.48 525.46 C 375.10 526.22 374.72 526.98 374.35 527.75 C 374.07 526.66 373.79 525.58 373.52 524.50 C 371.07 523.39 368.66 522.20 366.24 521.03 C 359.72 518.85 353.49 515.81 346.77 514.17 C 340.86 511.07 334.38 509.38 328.30 506.66 C 324.15 504.84 319.77 503.65 315.55 502.00 C 314.51 501.50 313.41 501.84 312.35 502.05 C 306.93 497.01 299.11 496.51 293.02 492.62 C 292.38 492.89 291.73 493.17 291.09 493.45 C 291.03 493.05 290.90 492.23 290.83 491.82 C 298.00 471.15 305.98 450.76 313.16 430.09 C 314.44 427.02 315.16 423.71 316.87 420.83 C 317.01 421.39 317.28 422.53 317.41 423.09 Z" />
</g>
<g id="#ff3f2fff">
<path fill="#ff3f2f" opacity="1.00" d=" M 520.01 431.15 C 529.43 427.54 539.47 425.78 549.50 424.96 C 556.51 427.05 563.84 425.24 571.01 425.61 C 577.84 425.27 584.78 426.74 591.49 424.99 C 599.61 425.89 607.94 427.57 614.96 431.95 C 619.75 434.83 623.17 440.18 622.75 445.89 C 622.13 453.25 618.45 460.11 613.42 465.41 C 606.42 472.48 596.80 476.24 587.20 478.16 C 579.01 479.78 570.85 481.49 562.65 483.02 C 561.16 481.54 559.14 481.97 557.32 482.31 C 536.88 486.55 516.36 490.34 495.91 494.50 C 493.42 493.17 490.60 492.74 487.83 492.46 C 487.49 491.80 487.15 491.15 486.82 490.52 C 482.25 491.35 479.13 485.99 474.63 487.17 C 474.05 486.54 473.49 485.91 472.93 485.30 C 471.98 485.37 471.02 485.39 470.08 485.37 C 465.29 483.00 460.75 478.94 455.06 479.55 C 457.10 477.57 458.77 474.42 461.93 474.29 C 467.71 473.91 473.52 474.73 479.28 473.91 C 478.95 473.68 478.29 473.22 477.96 472.98 C 473.00 472.38 467.99 472.87 463.01 472.73 C 418.79 472.86 374.55 472.35 330.34 472.83 C 330.47 472.59 330.75 472.11 330.89 471.87 C 380.41 471.81 429.93 472.05 479.45 471.73 C 482.47 464.30 486.45 457.18 491.67 451.06 L 491.93 452.46 C 495.40 449.36 498.32 445.67 502.09 442.90 C 507.58 438.39 513.90 435.04 520.54 432.59 C 520.40 432.23 520.14 431.51 520.01 431.15 Z" />
</g>
<g id="#ff4030ff">
<path fill="#ff4030" opacity="1.00" d=" M 754.31 479.26 C 755.53 481.15 753.74 483.06 753.20 484.85 C 761.00 487.43 768.27 491.30 776.10 493.82 C 784.73 496.55 792.82 500.72 801.44 503.48 C 805.61 504.79 809.51 506.80 813.67 508.14 C 821.60 510.68 828.98 514.66 836.95 517.08 C 846.35 520.11 855.22 524.59 864.71 527.38 C 871.04 530.03 877.38 532.71 883.79 535.18 C 891.18 536.81 897.69 540.81 904.90 542.98 C 913.72 546.73 922.67 550.26 931.76 553.29 C 936.67 556.05 942.37 556.95 947.23 559.83 C 950.46 561.82 954.44 561.68 957.84 563.29 C 963.23 565.60 968.87 567.31 974.23 569.72 C 979.91 572.19 986.01 573.64 991.49 576.59 C 996.06 579.14 1001.32 579.91 1006.21 581.63 C 1011.34 583.80 1016.44 586.07 1021.77 587.74 C 1031.18 591.58 1040.60 595.46 1050.22 598.79 C 1053.62 600.09 1057.31 600.79 1060.32 602.98 C 1059.24 606.40 1055.16 608.63 1055.49 612.40 L 1055.51 612.89 C 1051.16 618.36 1046.37 623.45 1041.40 628.36 C 1025.60 644.59 1008.20 659.26 989.72 672.37 C 989.69 672.04 989.61 671.38 989.57 671.05 C 989.87 670.46 990.17 669.87 990.49 669.29 C 986.36 667.84 982.22 666.42 978.13 664.86 C 976.50 664.40 975.44 663.05 974.37 661.86 C 971.10 662.88 968.10 660.75 965.12 659.78 C 960.93 658.35 957.02 656.16 952.68 655.24 C 950.70 654.84 948.91 653.95 947.19 652.97 C 947.78 652.15 948.38 651.34 948.98 650.53 C 953.31 647.98 957.85 645.58 961.43 642.00 L 959.92 641.52 C 978.38 628.74 997.24 616.52 1015.59 603.59 C 956.40 603.70 897.20 603.64 838.01 603.64 C 835.05 603.61 833.14 606.39 830.76 607.76 C 829.61 606.98 828.25 607.37 827.01 607.40 C 826.56 606.53 826.11 605.67 825.70 604.82 C 820.32 605.98 815.24 602.29 810.41 600.42 C 808.25 599.49 805.69 599.73 803.76 598.25 C 798.74 594.95 792.38 594.81 787.25 591.73 C 784.44 589.84 780.52 589.95 778.48 586.94 C 775.76 588.22 773.18 586.38 770.73 585.36 C 767.79 583.91 764.35 583.45 761.85 581.20 C 759.97 579.24 757.12 579.49 754.67 579.02 C 752.49 576.78 749.22 576.86 746.34 576.58 C 745.49 575.71 744.65 574.85 743.82 574.00 C 740.57 574.39 737.77 572.40 734.73 571.61 C 732.84 571.17 731.45 569.77 729.91 568.72 C 720.79 566.86 712.56 562.13 703.54 559.90 C 699.56 558.14 695.54 556.48 691.36 555.30 C 689.94 555.06 689.32 553.65 688.52 552.64 C 680.02 551.14 672.36 547.01 664.18 544.49 C 669.05 542.55 674.03 540.94 678.87 538.94 C 678.68 538.51 678.29 537.64 678.10 537.20 C 707.90 525.07 736.58 506.76 754.31 479.26 Z" />
</g>
<g id="#ff3429ff">
<path fill="#ff3429" opacity="1.00" d=" M 619.00 554.00 C 639.18 550.32 659.06 544.84 678.10 537.20 C 678.29 537.64 678.68 538.51 678.87 538.94 C 674.03 540.94 669.05 542.55 664.18 544.49 C 672.36 547.01 680.02 551.14 688.52 552.64 C 689.32 553.65 689.94 555.06 691.36 555.30 C 695.54 556.48 699.56 558.14 703.54 559.90 C 712.56 562.13 720.79 566.86 729.91 568.72 C 731.45 569.77 732.84 571.17 734.73 571.61 C 737.77 572.40 740.57 574.39 743.82 574.00 C 744.65 574.85 745.49 575.71 746.34 576.58 C 749.22 576.86 752.49 576.78 754.67 579.02 C 757.12 579.49 759.97 579.24 761.85 581.20 C 764.35 583.45 767.79 583.91 770.73 585.36 C 773.18 586.38 775.76 588.22 778.48 586.94 C 780.52 589.95 784.44 589.84 787.25 591.73 C 792.38 594.81 798.74 594.95 803.76 598.25 C 805.69 599.73 808.25 599.49 810.41 600.42 C 815.24 602.29 820.32 605.98 825.70 604.82 C 826.11 605.67 826.56 606.53 827.01 607.40 C 828.25 607.37 829.61 606.98 830.76 607.76 C 814.46 619.75 798.17 631.77 781.81 643.69 C 780.72 643.09 779.71 643.11 778.79 643.76 C 774.64 646.56 770.73 649.70 766.68 652.64 C 763.61 655.14 760.15 650.70 756.68 652.06 C 754.42 649.72 751.08 648.59 748.14 650.39 C 746.95 649.52 745.77 648.65 744.60 647.78 C 744.95 647.14 745.32 646.51 745.69 645.89 C 744.12 646.15 742.56 646.40 741.01 646.66 C 740.31 645.81 739.61 644.98 738.92 644.15 C 737.69 644.99 736.48 645.83 735.27 646.68 C 734.88 645.31 734.57 643.93 734.01 642.64 C 732.42 641.85 730.37 643.02 728.79 642.21 C 728.05 641.20 727.52 640.06 726.78 639.08 C 721.27 637.08 715.57 635.54 710.26 633.04 C 708.11 632.92 706.09 632.00 704.45 630.63 C 704.70 627.73 706.08 625.08 706.77 622.28 C 707.76 618.49 709.30 614.85 710.08 611.01 C 709.83 610.58 709.33 609.73 709.07 609.31 C 709.65 607.41 710.28 605.53 710.93 603.66 C 638.95 603.55 566.97 603.67 495.00 603.64 C 471.28 603.79 447.54 603.39 423.83 603.86 C 424.67 602.86 425.55 601.89 426.48 600.98 C 429.98 603.08 434.11 602.49 438.00 602.49 C 480.67 602.49 523.34 602.47 566.01 602.48 C 569.76 602.56 573.52 602.58 577.25 602.04 C 575.05 600.49 572.42 599.93 569.90 599.20 C 566.61 598.29 564.22 595.42 560.73 595.10 C 551.66 592.17 542.97 588.11 533.92 585.10 C 529.24 583.63 525.03 581.04 520.38 579.51 C 515.79 577.77 510.75 576.92 506.79 573.85 C 544.19 567.17 581.60 560.63 619.00 554.00 Z" />
</g>
<g id="#ff110aff">
<path fill="#ff110a" opacity="1.00" d=" M 315.44 576.96 C 318.39 574.49 320.52 570.04 324.88 570.16 C 318.77 575.80 312.85 581.66 307.23 587.79 L 306.90 586.22 C 309.12 582.63 312.67 580.11 315.44 576.96 Z" />
</g>
<g id="#ff2c23ff">
<path fill="#ff2c23" opacity="1.00" d=" M 452.25 586.02 C 469.82 579.56 488.48 577.22 506.79 573.85 C 510.75 576.92 515.79 577.77 520.38 579.51 C 525.03 581.04 529.24 583.63 533.92 585.10 C 542.97 588.11 551.66 592.17 560.73 595.10 C 564.22 595.42 566.61 598.29 569.90 599.20 C 572.42 599.93 575.05 600.49 577.25 602.04 C 573.52 602.58 569.76 602.56 566.01 602.48 C 523.34 602.47 480.67 602.49 438.00 602.49 C 434.11 602.49 429.98 603.08 426.48 600.98 C 433.93 594.28 442.88 589.46 452.25 586.02 Z" />
<path fill="#ff2c23" opacity="1.00" d=" M 850.96 716.90 C 854.52 715.26 857.49 712.62 860.84 710.61 C 868.94 714.42 877.76 716.58 885.51 721.11 C 888.95 722.06 892.59 722.69 895.46 725.03 C 884.04 730.65 871.82 734.38 859.94 738.89 C 849.50 742.40 839.01 745.73 828.38 748.57 C 826.55 744.77 824.55 741.05 823.09 737.09 C 823.75 736.11 824.41 735.14 825.08 734.18 L 823.98 733.51 C 832.40 727.76 840.85 722.06 849.31 716.36 C 849.72 716.50 850.55 716.76 850.96 716.90 Z" />
</g>
<g id="#ff2014ff">
<path fill="#ff2014" opacity="1.00" d=" M 709.07 609.31 C 709.33 609.73 709.83 610.58 710.08 611.01 C 709.30 614.85 707.76 618.49 706.77 622.28 C 706.44 621.87 705.79 621.05 705.46 620.63 C 706.63 616.85 707.88 613.09 709.07 609.31 Z" />
</g>
<g id="#ff2e24ff">
<path fill="#ff2e24" opacity="1.00" d=" M 694.27 655.31 C 697.94 643.73 701.63 632.16 705.46 620.63 C 705.79 621.05 706.44 621.87 706.77 622.28 C 706.08 625.08 704.70 627.73 704.45 630.63 C 706.09 632.00 708.11 632.92 710.26 633.04 C 715.57 635.54 721.27 637.08 726.78 639.08 C 727.52 640.06 728.05 641.20 728.79 642.21 C 730.37 643.02 732.42 641.85 734.01 642.64 C 734.57 643.93 734.88 645.31 735.27 646.68 C 736.48 645.83 737.69 644.99 738.92 644.15 C 739.61 644.98 740.31 645.81 741.01 646.66 C 742.56 646.40 744.12 646.15 745.69 645.89 C 745.32 646.51 744.95 647.14 744.60 647.78 C 745.77 648.65 746.95 649.52 748.14 650.39 C 751.08 648.59 754.42 649.72 756.68 652.06 C 760.15 650.70 763.61 655.14 766.68 652.64 C 770.73 649.70 774.64 646.56 778.79 643.76 C 779.71 643.11 780.72 643.09 781.81 643.69 C 758.79 660.66 735.76 677.61 712.68 694.50 C 712.27 694.34 711.44 694.02 711.03 693.86 C 699.14 701.77 687.99 710.85 676.10 718.80 C 681.48 700.77 687.17 682.83 693.07 664.95 C 693.92 661.83 696.08 658.48 694.27 655.31 Z" />
</g>
<g id="#ff2b1bff">
<path fill="#ff2b1b" opacity="1.00" d=" M 949.04 648.90 C 952.65 646.42 956.29 643.98 959.92 641.52 L 961.43 642.00 C 957.85 645.58 953.31 647.98 948.98 650.53 L 949.04 648.90 Z" />
</g>
<g id="#ff3428ff">
<path fill="#ff3428" opacity="1.00" d=" M 869.07 703.03 C 895.66 684.90 922.34 666.88 949.04 648.90 L 948.98 650.53 C 948.38 651.34 947.78 652.15 947.19 652.97 C 948.91 653.95 950.70 654.84 952.68 655.24 C 957.02 656.16 960.93 658.35 965.12 659.78 C 968.10 660.75 971.10 662.88 974.37 661.86 C 975.44 663.05 976.50 664.40 978.13 664.86 C 982.22 666.42 986.36 667.84 990.49 669.29 C 990.17 669.87 989.87 670.46 989.57 671.05 C 989.61 671.38 989.69 672.04 989.72 672.37 C 984.37 676.90 978.23 680.47 972.43 684.41 C 948.14 700.38 922.21 713.71 895.46 725.03 C 892.59 722.69 888.95 722.06 885.51 721.11 C 877.76 716.58 868.94 714.42 860.84 710.61 C 863.75 708.32 868.35 707.19 869.07 703.03 Z" />
</g>
<g id="#ff0701ff">
<path fill="#ff0701" opacity="1.00" d=" M 248.82 687.92 C 249.06 688.01 249.55 688.19 249.79 688.28 C 249.90 688.77 250.12 689.75 250.23 690.24 C 252.69 689.13 255.44 689.67 258.05 689.57 C 354.64 689.58 451.24 689.59 547.84 689.57 C 547.66 690.12 547.29 691.22 547.11 691.77 C 545.43 691.44 543.74 691.11 542.03 691.07 C 445.36 691.13 348.68 691.06 252.01 691.11 C 251.30 691.37 249.90 691.90 249.20 692.16 C 249.11 691.10 248.92 688.98 248.82 687.92 Z" />
</g>
<g id="#ff100bff">
<path fill="#ff100b" opacity="1.00" d=" M 608.81 922.04 L 610.21 921.80 C 609.50 927.13 606.99 931.99 605.76 937.21 C 605.42 936.87 604.73 936.18 604.39 935.84 C 605.86 931.24 607.32 926.63 608.81 922.04 Z" />
</g>
</svg>
