<?xml version="1.0" encoding="UTF-8" ?>
<!DOCTYPE svg PUBLIC "-//W3C//DTD SVG 1.1//EN" "http://www.w3.org/Graphics/SVG/1.1/DTD/svg11.dtd">
<svg width="1276pt" height="1276pt" viewBox="0 0 1276 1276" version="1.1" xmlns="http://www.w3.org/2000/svg">
<g id="#ffffffff">
<path fill="#ffffff" opacity="1.00" d=" M 134.00 279.00 C 386.85 279.02 639.71 278.95 892.56 279.04 C 974.19 512.90 1055.91 746.73 1137.57 980.58 C 1139.27 986.41 1142.24 991.96 1143.07 998.00 C 1099.22 997.97 1055.38 998.07 1011.54 997.94 C 999.61 959.30 987.37 920.75 975.48 882.09 C 916.40 881.88 857.31 882.05 798.23 882.01 C 786.00 920.67 773.69 959.31 761.48 997.98 C 552.32 998.03 343.16 997.98 134.00 998.00 C 134.00 758.33 134.00 518.67 134.00 279.00 M 145.00 287.00 C 145.00 330.67 145.00 374.33 145.00 418.00 C 376.86 417.95 608.72 418.10 840.58 417.92 C 856.35 374.25 872.36 330.66 888.21 287.01 C 640.48 286.99 392.74 287.00 145.00 287.00 M 145.01 431.00 C 145.00 474.00 145.00 517.00 145.01 560.00 C 359.60 559.99 574.19 560.03 788.78 559.98 C 804.40 516.97 820.11 474.00 835.74 431.00 C 605.50 431.00 375.25 430.99 145.01 431.00 M 145.01 573.01 C 145.00 616.34 145.00 659.66 145.01 702.99 C 342.23 702.98 539.46 703.04 736.68 702.96 C 752.42 659.63 768.25 616.33 784.01 573.01 C 571.01 572.99 358.01 573.00 145.01 573.01 M 887.50 600.51 C 868.64 660.01 849.76 719.50 830.90 779.00 C 868.34 779.00 905.78 779.00 943.22 779.00 C 924.65 719.50 906.08 660.00 887.50 600.51 M 145.00 716.01 C 145.00 759.00 145.00 802.00 145.00 845.00 C 324.97 845.00 504.94 845.00 684.90 844.99 C 700.58 802.00 716.24 759.01 731.90 716.01 C 536.27 715.99 340.64 716.00 145.00 716.01 M 145.00 858.00 C 145.00 901.33 145.00 944.66 145.00 988.00 C 307.60 988.00 470.20 988.01 632.81 987.99 C 648.59 944.66 664.39 901.34 680.16 858.01 C 501.77 857.99 323.39 858.00 145.00 858.00 Z" />
</g>
<g id="#f14438ff">
<path fill="#f14438" opacity="1.00" d=" M 145.00 287.00 C 392.74 287.00 640.48 286.99 888.21 287.01 C 872.36 330.66 856.35 374.25 840.58 417.92 C 608.72 418.10 376.86 417.95 145.00 418.00 C 145.00 374.33 145.00 330.67 145.00 287.00 Z" />
</g>
<g id="#f38637ff">
<path fill="#f38637" opacity="1.00" d=" M 145.01 431.00 C 375.25 430.99 605.50 431.00 835.74 431.00 C 820.11 474.00 804.40 516.97 788.78 559.98 C 574.19 560.03 359.60 559.99 145.01 560.00 C 145.00 517.00 145.00 474.00 145.01 431.00 Z" />
</g>
<g id="#f9dd30ff">
<path fill="#f9dd30" opacity="1.00" d=" M 145.01 573.01 C 358.01 573.00 571.01 572.99 784.01 573.01 C 768.25 616.33 752.42 659.63 736.68 702.96 C 539.46 703.04 342.23 702.98 145.01 702.99 C 145.00 659.66 145.00 616.34 145.01 573.01 Z" />
</g>
<g id="#4bbd46ff">
<path fill="#4bbd46" opacity="1.00" d=" M 145.00 716.01 C 340.64 716.00 536.27 715.99 731.90 716.01 C 716.24 759.01 700.58 802.00 684.90 844.99 C 504.94 845.00 324.97 845.00 145.00 845.00 C 145.00 802.00 145.00 759.00 145.00 716.01 Z" />
</g>
<g id="#00aeecff">
<path fill="#00aeec" opacity="1.00" d=" M 145.00 858.00 C 323.39 858.00 501.77 857.99 680.16 858.01 C 664.39 901.34 648.59 944.66 632.81 987.99 C 470.20 988.01 307.60 988.00 145.00 988.00 C 145.00 944.66 145.00 901.33 145.00 858.00 Z" />
</g>
</svg>
