<?xml version="1.0" encoding="UTF-8" ?>
<!DOCTYPE svg PUBLIC "-//W3C//DTD SVG 1.1//EN" "http://www.w3.org/Graphics/SVG/1.1/DTD/svg11.dtd">
<svg width="1276pt" height="1276pt" viewBox="0 0 1276 1276" version="1.1" xmlns="http://www.w3.org/2000/svg">
<g id="#ff5c00ff">
<path fill="#ff5c00" opacity="1.00" d=" M 127.08 355.01 C 134.33 333.39 156.15 317.66 179.02 318.06 C 483.35 318.05 787.68 318.06 1092.00 318.06 C 1101.39 318.21 1111.11 317.16 1120.08 320.62 C 1138.48 326.80 1151.70 345.62 1150.95 365.07 C 1150.89 517.48 1151.02 669.91 1150.88 822.32 C 1149.39 829.01 1147.33 835.70 1143.43 841.42 C 1136.96 851.33 1126.56 858.59 1114.99 861.17 C 1108.46 862.76 1101.70 862.25 1095.04 862.32 C 866.36 862.32 637.67 862.32 408.98 862.32 C 365.15 862.44 321.30 862.09 277.48 862.50 C 277.34 847.05 277.52 831.59 277.43 816.14 C 553.26 816.18 829.08 816.15 1104.90 816.15 C 1104.87 675.50 1104.87 534.84 1104.90 394.18 C 1104.84 384.17 1104.90 374.16 1104.89 364.15 C 793.30 364.15 481.71 364.15 170.13 364.15 C 170.11 374.16 170.15 384.17 170.13 394.18 C 170.16 514.99 170.18 635.80 170.12 756.60 C 205.91 792.64 241.77 828.61 277.49 864.72 C 277.30 873.92 277.76 883.12 277.45 892.33 C 277.50 904.85 277.51 917.37 277.46 929.89 C 232.42 884.80 187.59 839.50 142.64 794.33 C 132.37 784.16 126.38 770.43 124.13 756.29 C 123.97 633.18 124.10 510.06 124.06 386.95 C 124.17 376.26 123.17 365.21 127.08 355.01 Z" />
</g>
<g id="#ffbf00ff">
<path fill="#ffbf00" opacity="1.00" d=" M 170.13 364.15 C 481.71 364.15 793.30 364.15 1104.89 364.15 C 1104.90 374.16 1104.84 384.17 1104.90 394.18 C 793.31 394.18 481.72 394.17 170.13 394.18 C 170.15 384.17 170.11 374.16 170.13 364.15 Z" />
<path fill="#ffbf00" opacity="1.00" d=" M 124.13 756.29 C 126.38 770.43 132.37 784.16 142.64 794.33 C 187.59 839.50 232.42 884.80 277.46 929.89 C 277.51 939.89 277.30 949.90 277.58 959.90 C 258.27 941.05 239.50 921.61 220.38 902.56 C 193.84 875.81 167.17 849.18 140.73 822.34 C 134.31 815.23 129.48 806.70 126.75 797.53 C 122.58 784.18 124.43 770.03 124.13 756.29 Z" />
<path fill="#ffbf00" opacity="1.00" d=" M 1143.43 841.42 C 1147.33 835.70 1149.39 829.01 1150.88 822.32 C 1151.02 830.52 1150.90 838.73 1150.94 846.94 C 1150.95 863.32 1141.14 879.10 1126.74 886.77 C 1119.51 890.72 1111.21 892.58 1103.00 892.34 C 827.82 892.32 552.63 892.34 277.45 892.33 C 277.76 883.12 277.30 873.92 277.49 864.72 C 277.49 864.16 277.48 863.05 277.48 862.50 C 321.30 862.09 365.15 862.44 408.98 862.32 C 637.67 862.32 866.36 862.32 1095.04 862.32 C 1101.70 862.25 1108.46 862.76 1114.99 861.17 C 1126.56 858.59 1136.96 851.33 1143.43 841.42 Z" />
</g>
<g id="#ffffffff">
<path fill="#ffffff" opacity="1.00" d=" M 170.13 394.18 C 481.72 394.17 793.31 394.18 1104.90 394.18 C 1104.87 534.84 1104.87 675.50 1104.90 816.15 C 829.08 816.15 553.26 816.18 277.43 816.14 C 277.52 831.59 277.34 847.05 277.48 862.50 C 277.48 863.05 277.49 864.16 277.49 864.72 C 241.77 828.61 205.91 792.64 170.12 756.60 C 170.18 635.80 170.16 514.99 170.13 394.18 M 245.13 446.91 C 244.94 502.50 245.22 558.10 244.99 613.69 C 266.67 613.76 288.35 613.66 310.03 613.70 C 321.32 613.59 332.84 614.41 343.87 611.38 C 355.62 608.48 366.60 601.43 373.00 591.00 C 380.25 579.25 382.73 564.38 379.00 551.04 C 375.74 539.58 366.23 531.19 355.90 525.99 C 364.33 523.15 370.53 515.95 374.19 508.08 C 380.00 495.82 379.44 480.88 373.15 468.92 C 365.39 454.16 348.17 446.46 331.96 446.92 C 303.02 446.92 274.07 446.94 245.13 446.91 M 436.29 447.05 C 417.09 502.82 398.09 558.65 378.73 614.36 C 410.31 614.33 441.90 614.35 473.49 614.35 C 473.39 603.26 473.48 592.18 473.45 581.09 C 458.99 581.14 444.53 581.07 430.07 581.13 C 438.88 554.55 447.98 528.07 456.62 501.44 C 456.77 501.62 457.08 501.99 457.23 502.18 C 469.52 539.38 482.14 576.49 494.50 613.67 C 507.98 613.70 521.46 613.75 534.94 613.65 C 519.62 570.02 504.75 526.24 489.61 482.55 C 485.37 470.67 481.62 458.60 477.08 446.84 C 463.49 447.12 449.88 446.70 436.29 447.05 M 541.99 447.07 C 542.11 502.62 542.05 558.17 542.01 613.73 C 555.45 613.72 568.90 613.69 582.34 613.74 C 582.20 581.52 582.60 549.29 582.14 517.08 C 582.39 517.29 582.89 517.72 583.14 517.94 C 601.13 548.96 619.20 579.98 637.17 611.03 C 637.93 612.05 638.29 614.02 639.97 613.73 C 653.02 613.70 666.08 613.73 679.13 613.71 C 679.15 558.17 679.09 502.63 679.16 447.09 C 665.70 446.70 652.22 447.04 638.76 446.92 C 638.85 477.87 638.54 508.83 638.92 539.78 C 637.12 538.22 636.26 535.97 635.03 534.01 C 617.40 505.00 599.91 475.89 582.22 446.91 C 568.81 447.03 555.39 446.73 541.99 447.07 M 708.15 446.87 C 707.70 451.22 708.02 455.60 707.93 459.97 C 708.02 511.23 707.76 562.50 708.06 613.75 C 730.36 613.63 752.66 613.75 774.96 613.68 C 789.82 613.68 805.02 610.66 817.83 602.86 C 830.94 594.99 840.65 582.26 846.20 568.12 C 853.52 549.41 855.12 528.62 851.60 508.89 C 848.39 491.11 839.93 473.75 825.72 462.23 C 813.27 451.91 796.98 447.13 780.97 446.95 C 756.70 446.79 732.42 447.00 708.15 446.87 M 899.27 447.02 C 880.08 502.58 861.02 558.19 841.73 613.71 C 873.32 613.62 904.91 613.83 936.50 613.61 C 936.28 602.33 936.44 591.04 936.41 579.76 C 922.08 579.73 907.74 579.84 893.41 579.70 C 902.30 553.65 910.97 527.51 919.66 501.39 L 920.08 502.02 C 932.52 539.23 945.03 576.47 957.48 613.69 C 970.94 613.66 984.41 613.79 997.87 613.63 C 978.39 558.14 959.61 502.39 940.19 446.88 C 926.55 447.02 912.91 446.74 899.27 447.02 M 1004.88 446.90 C 1004.86 502.50 1004.88 558.10 1004.87 613.70 C 1018.33 613.72 1031.80 613.67 1045.26 613.72 C 1045.26 558.11 1045.27 502.50 1045.26 446.89 C 1031.80 446.92 1018.34 446.89 1004.88 446.90 M 926.27 648.39 C 911.92 649.19 899.29 661.64 898.68 676.06 C 898.53 693.05 898.67 710.03 898.61 727.02 C 898.11 742.47 911.59 756.47 926.98 756.84 C 955.01 756.94 983.04 756.85 1011.07 756.89 C 1015.07 756.89 1019.15 757.05 1023.04 755.91 C 1036.60 752.60 1046.44 738.92 1045.27 725.00 C 1045.25 709.33 1045.26 693.65 1045.27 677.97 C 1045.33 669.57 1041.53 661.27 1035.17 655.79 C 1029.45 650.63 1021.64 648.02 1013.98 648.30 C 984.74 648.38 955.50 648.18 926.27 648.39 M 245.03 651.10 C 245.05 685.46 245.21 719.83 244.95 754.19 C 256.91 754.22 268.86 754.21 280.82 754.19 C 280.69 729.73 280.81 705.27 280.75 680.81 C 300.20 680.81 319.64 680.78 339.08 680.82 C 338.78 705.28 339.24 729.74 338.94 754.19 C 350.89 754.21 362.84 754.22 374.79 754.19 C 374.66 729.47 374.80 704.74 374.72 680.02 C 374.65 667.68 365.80 656.18 354.08 652.54 C 349.25 650.80 344.07 651.08 339.04 651.09 C 307.70 651.10 276.37 651.07 245.03 651.10 M 398.16 650.92 C 397.98 659.16 398.16 667.41 398.06 675.66 C 429.20 675.64 460.35 675.66 491.50 675.65 C 491.44 679.60 491.41 683.57 491.53 687.53 C 468.00 687.65 444.47 687.56 420.94 687.57 C 413.50 687.37 405.74 689.08 399.76 693.71 C 393.30 698.62 389.93 706.73 389.56 714.70 C 389.38 723.40 388.74 732.75 393.31 740.57 C 398.27 749.71 408.96 754.23 419.02 754.21 C 455.33 754.19 491.64 754.23 527.95 754.19 C 527.78 729.12 527.99 704.05 527.84 678.98 C 527.33 664.46 514.51 651.78 500.05 651.15 C 466.09 650.84 432.11 651.32 398.16 650.92 M 547.58 650.90 C 547.50 685.34 547.61 719.77 547.53 754.20 C 559.46 754.22 571.38 754.21 583.31 754.20 C 583.24 729.74 583.36 705.28 583.25 680.82 C 596.66 680.79 610.07 680.80 623.48 680.81 C 623.41 705.28 623.50 729.74 623.43 754.21 C 635.37 754.20 647.30 754.21 659.23 754.20 C 659.17 729.74 659.29 705.28 659.17 680.82 C 672.58 680.79 685.99 680.80 699.39 680.81 C 699.39 705.29 699.31 729.78 699.43 754.26 C 711.33 754.13 723.23 754.25 735.14 754.20 C 735.14 730.14 735.12 706.07 735.14 682.01 C 736.02 665.99 722.13 651.04 706.04 651.10 C 653.22 650.90 600.40 651.31 547.58 650.90 M 772.01 652.95 C 760.85 656.95 752.67 668.13 752.55 680.03 C 752.53 695.34 752.48 710.65 752.57 725.96 C 753.04 740.84 766.22 753.70 781.04 754.16 C 814.23 754.28 847.43 754.16 880.63 754.22 C 880.65 745.14 880.57 736.08 880.67 727.01 C 850.02 726.76 819.35 726.95 788.69 726.91 C 788.70 710.69 788.68 694.47 788.70 678.26 C 819.32 678.38 849.94 678.17 880.56 678.37 C 880.75 669.28 880.52 660.19 880.68 651.10 C 849.45 651.04 818.21 651.07 786.99 651.05 C 781.94 650.91 776.75 651.04 772.01 652.95 Z" />
<path fill="#ffffff" opacity="1.00" d=" M 285.25 478.61 C 295.15 478.49 305.06 478.58 314.96 478.56 C 320.51 478.63 326.55 479.27 331.03 482.86 C 336.02 486.89 337.10 493.96 336.24 499.97 C 335.50 504.77 331.66 508.54 327.21 510.13 C 318.34 513.39 308.73 512.46 299.48 512.62 C 299.59 523.03 299.50 533.44 299.53 543.85 C 306.37 543.93 313.22 543.59 320.05 543.93 C 326.12 544.34 332.99 545.92 336.50 551.39 C 341.04 558.83 340.59 570.62 332.54 575.54 C 326.75 579.14 319.70 579.73 313.03 579.76 C 303.78 579.75 294.53 579.81 285.28 579.72 C 285.37 546.02 285.44 512.31 285.25 478.61 Z" />
<path fill="#ffffff" opacity="1.00" d=" M 748.27 482.09 C 756.84 481.81 765.44 481.82 774.02 482.16 C 783.88 482.46 794.16 485.58 801.10 492.90 C 809.61 501.67 812.43 514.25 813.20 526.07 C 813.73 537.72 813.15 550.04 807.53 560.54 C 803.46 568.31 795.91 573.82 787.57 576.21 C 774.80 579.98 761.34 578.29 748.24 578.61 C 748.39 546.44 748.33 514.26 748.27 482.09 Z" />
<path fill="#ffffff" opacity="1.00" d=" M 934.45 674.13 C 959.43 674.04 984.41 674.13 1009.39 674.09 C 1009.40 693.13 1009.37 712.17 1009.41 731.21 C 984.43 731.18 959.46 731.18 934.49 731.21 C 934.46 712.18 934.54 693.15 934.45 674.13 Z" />
<path fill="#ffffff" opacity="1.00" d=" M 427.09 712.84 C 448.55 712.83 470.00 712.85 491.46 712.83 C 491.45 718.18 491.47 723.53 491.45 728.89 C 469.98 728.79 448.52 728.92 427.05 728.82 C 427.14 723.49 427.10 718.16 427.09 712.84 Z" />
</g>
<g id="#e60000ff">
<path fill="#e60000" opacity="1.00" d=" M 245.13 446.91 C 274.07 446.94 303.02 446.92 331.96 446.92 C 348.17 446.46 365.39 454.16 373.15 468.92 C 379.44 480.88 380.00 495.82 374.19 508.08 C 370.53 515.95 364.33 523.15 355.90 525.99 C 366.23 531.19 375.74 539.58 379.00 551.04 C 382.73 564.38 380.25 579.25 373.00 591.00 C 366.60 601.43 355.62 608.48 343.87 611.38 C 332.84 614.41 321.32 613.59 310.03 613.70 C 288.35 613.66 266.67 613.76 244.99 613.69 C 245.22 558.10 244.94 502.50 245.13 446.91 M 285.25 478.61 C 285.44 512.31 285.37 546.02 285.28 579.72 C 294.53 579.81 303.78 579.75 313.03 579.76 C 319.70 579.73 326.75 579.14 332.54 575.54 C 340.59 570.62 341.04 558.83 336.50 551.39 C 332.99 545.92 326.12 544.34 320.05 543.93 C 313.22 543.59 306.37 543.93 299.53 543.85 C 299.50 533.44 299.59 523.03 299.48 512.62 C 308.73 512.46 318.34 513.39 327.21 510.13 C 331.66 508.54 335.50 504.77 336.24 499.97 C 337.10 493.96 336.02 486.89 331.03 482.86 C 326.55 479.27 320.51 478.63 314.96 478.56 C 305.06 478.58 295.15 478.49 285.25 478.61 Z" />
<path fill="#e60000" opacity="1.00" d=" M 436.29 447.05 C 449.88 446.70 463.49 447.12 477.08 446.84 C 481.62 458.60 485.37 470.67 489.61 482.55 C 504.75 526.24 519.62 570.02 534.94 613.65 C 521.46 613.75 507.98 613.70 494.50 613.67 C 482.14 576.49 469.52 539.38 457.23 502.18 C 457.08 501.99 456.77 501.62 456.62 501.44 C 447.98 528.07 438.88 554.55 430.07 581.13 C 444.53 581.07 458.99 581.14 473.45 581.09 C 473.48 592.18 473.39 603.26 473.49 614.35 C 441.90 614.35 410.31 614.33 378.73 614.36 C 398.09 558.65 417.09 502.82 436.29 447.05 Z" />
<path fill="#e60000" opacity="1.00" d=" M 541.99 447.07 C 555.39 446.73 568.81 447.03 582.22 446.91 C 599.91 475.89 617.40 505.00 635.03 534.01 C 636.26 535.97 637.12 538.22 638.92 539.78 C 638.54 508.83 638.85 477.87 638.76 446.92 C 652.22 447.04 665.70 446.70 679.16 447.09 C 679.09 502.63 679.15 558.17 679.13 613.71 C 666.08 613.73 653.02 613.70 639.97 613.73 C 638.29 614.02 637.93 612.05 637.17 611.03 C 619.20 579.98 601.13 548.96 583.14 517.94 C 582.89 517.72 582.39 517.29 582.14 517.08 C 582.60 549.29 582.20 581.52 582.34 613.74 C 568.90 613.69 555.45 613.72 542.01 613.73 C 542.05 558.17 542.11 502.62 541.99 447.07 Z" />
<path fill="#e60000" opacity="1.00" d=" M 708.15 446.87 C 732.42 447.00 756.70 446.79 780.97 446.95 C 796.98 447.13 813.27 451.91 825.72 462.23 C 839.93 473.75 848.39 491.11 851.60 508.89 C 855.12 528.62 853.52 549.41 846.20 568.12 C 840.65 582.26 830.94 594.99 817.83 602.86 C 805.02 610.66 789.82 613.68 774.96 613.68 C 752.66 613.75 730.36 613.63 708.06 613.75 C 707.76 562.50 708.02 511.23 707.93 459.97 C 708.02 455.60 707.70 451.22 708.15 446.87 M 748.27 482.09 C 748.33 514.26 748.39 546.44 748.24 578.61 C 761.34 578.29 774.80 579.98 787.57 576.21 C 795.91 573.82 803.46 568.31 807.53 560.54 C 813.15 550.04 813.73 537.72 813.20 526.07 C 812.43 514.25 809.61 501.67 801.10 492.90 C 794.16 485.58 783.88 482.46 774.02 482.16 C 765.44 481.82 756.84 481.81 748.27 482.09 Z" />
<path fill="#e60000" opacity="1.00" d=" M 899.27 447.02 C 912.91 446.74 926.55 447.02 940.19 446.88 C 959.61 502.39 978.39 558.14 997.87 613.63 C 984.41 613.79 970.94 613.66 957.48 613.69 C 945.03 576.47 932.52 539.23 920.08 502.02 L 919.66 501.39 C 910.97 527.51 902.30 553.65 893.41 579.70 C 907.74 579.84 922.08 579.73 936.41 579.76 C 936.44 591.04 936.28 602.33 936.50 613.61 C 904.91 613.83 873.32 613.62 841.73 613.71 C 861.02 558.19 880.08 502.58 899.27 447.02 Z" />
<path fill="#e60000" opacity="1.00" d=" M 1004.88 446.90 C 1018.34 446.89 1031.80 446.92 1045.26 446.89 C 1045.27 502.50 1045.26 558.11 1045.26 613.72 C 1031.80 613.67 1018.33 613.72 1004.87 613.70 C 1004.88 558.10 1004.86 502.50 1004.88 446.90 Z" />
<path fill="#e60000" opacity="1.00" d=" M 926.27 648.39 C 955.50 648.18 984.74 648.38 1013.98 648.30 C 1021.64 648.02 1029.45 650.63 1035.17 655.79 C 1041.53 661.27 1045.33 669.57 1045.27 677.97 C 1045.26 693.65 1045.25 709.33 1045.27 725.00 C 1046.44 738.92 1036.60 752.60 1023.04 755.91 C 1019.15 757.05 1015.07 756.89 1011.07 756.89 C 983.04 756.85 955.01 756.94 926.98 756.84 C 911.59 756.47 898.11 742.47 898.61 727.02 C 898.67 710.03 898.53 693.05 898.68 676.06 C 899.29 661.64 911.92 649.19 926.27 648.39 M 934.45 674.13 C 934.54 693.15 934.46 712.18 934.49 731.21 C 959.46 731.18 984.43 731.18 1009.41 731.21 C 1009.37 712.17 1009.40 693.13 1009.39 674.09 C 984.41 674.13 959.43 674.04 934.45 674.13 Z" />
<path fill="#e60000" opacity="1.00" d=" M 245.03 651.10 C 276.37 651.07 307.70 651.10 339.04 651.09 C 344.07 651.08 349.25 650.80 354.08 652.54 C 365.80 656.18 374.65 667.68 374.72 680.02 C 374.80 704.74 374.66 729.47 374.79 754.19 C 362.84 754.22 350.89 754.21 338.94 754.19 C 339.24 729.74 338.78 705.28 339.08 680.82 C 319.64 680.78 300.20 680.81 280.75 680.81 C 280.81 705.27 280.69 729.73 280.82 754.19 C 268.86 754.21 256.91 754.22 244.95 754.19 C 245.21 719.83 245.05 685.46 245.03 651.10 Z" />
<path fill="#e60000" opacity="1.00" d=" M 398.16 650.92 C 432.11 651.32 466.09 650.84 500.05 651.15 C 514.51 651.78 527.33 664.46 527.84 678.98 C 527.99 704.05 527.78 729.12 527.95 754.19 C 491.64 754.23 455.33 754.19 419.02 754.21 C 408.96 754.23 398.27 749.71 393.31 740.57 C 388.74 732.75 389.38 723.40 389.56 714.70 C 389.93 706.73 393.30 698.62 399.76 693.71 C 405.74 689.08 413.50 687.37 420.94 687.57 C 444.47 687.56 468.00 687.65 491.53 687.53 C 491.41 683.57 491.44 679.60 491.50 675.65 C 460.35 675.66 429.20 675.64 398.06 675.66 C 398.16 667.41 397.98 659.16 398.16 650.92 M 427.09 712.84 C 427.10 718.16 427.14 723.49 427.05 728.82 C 448.52 728.92 469.98 728.79 491.45 728.89 C 491.47 723.53 491.45 718.18 491.46 712.83 C 470.00 712.85 448.55 712.83 427.09 712.84 Z" />
<path fill="#e60000" opacity="1.00" d=" M 547.58 650.90 C 600.40 651.31 653.22 650.90 706.04 651.10 C 722.13 651.04 736.02 665.99 735.14 682.01 C 735.12 706.07 735.14 730.14 735.14 754.20 C 723.23 754.25 711.33 754.13 699.43 754.26 C 699.31 729.78 699.39 705.29 699.39 680.81 C 685.99 680.80 672.58 680.79 659.17 680.82 C 659.29 705.28 659.17 729.74 659.23 754.20 C 647.30 754.21 635.37 754.20 623.43 754.21 C 623.50 729.74 623.41 705.28 623.48 680.81 C 610.07 680.80 596.66 680.79 583.25 680.82 C 583.36 705.28 583.24 729.74 583.31 754.20 C 571.38 754.21 559.46 754.22 547.53 754.20 C 547.61 719.77 547.50 685.34 547.58 650.90 Z" />
<path fill="#e60000" opacity="1.00" d=" M 772.01 652.95 C 776.75 651.04 781.94 650.91 786.99 651.05 C 818.21 651.07 849.45 651.04 880.68 651.10 C 880.52 660.19 880.75 669.28 880.56 678.37 C 849.94 678.17 819.32 678.38 788.70 678.26 C 788.68 694.47 788.70 710.69 788.69 726.91 C 819.35 726.95 850.02 726.76 880.67 727.01 C 880.57 736.08 880.65 745.14 880.63 754.22 C 847.43 754.16 814.23 754.28 781.04 754.16 C 766.22 753.70 753.04 740.84 752.57 725.96 C 752.48 710.65 752.53 695.34 752.55 680.03 C 752.67 668.13 760.85 656.95 772.01 652.95 Z" />
</g>
</svg>
