<?xml version="1.0" encoding="UTF-8" ?>
<!DOCTYPE svg PUBLIC "-//W3C//DTD SVG 1.1//EN" "http://www.w3.org/Graphics/SVG/1.1/DTD/svg11.dtd">
<svg width="1276pt" height="1276pt" viewBox="0 0 1276 1276" version="1.1" xmlns="http://www.w3.org/2000/svg">
<g id="#148effff">
<path fill="#148eff" opacity="1.00" d=" M 471.85 148.34 C 495.21 144.02 519.50 147.32 541.70 155.37 C 574.30 167.08 603.10 187.34 628.85 210.18 C 656.34 234.79 680.44 262.97 702.23 292.69 C 724.41 323.21 744.15 355.44 761.90 388.72 C 728.92 380.86 695.48 374.97 661.95 370.13 C 641.68 347.31 619.60 325.58 593.44 309.55 C 575.44 298.69 555.28 290.42 534.05 289.51 C 519.46 289.04 504.24 291.64 491.90 299.84 C 478.66 308.70 469.21 322.13 462.44 336.35 C 453.17 355.64 448.34 376.66 444.80 397.66 C 468.83 396.00 492.90 394.90 517.00 394.78 C 607.73 394.97 698.44 406.77 786.22 429.76 C 835.81 442.92 884.70 459.29 931.24 481.02 C 942.00 455.06 951.29 428.48 959.23 401.52 C 971.89 357.39 979.86 311.24 975.98 265.24 C 975.66 261.10 974.44 256.11 977.94 252.92 C 979.42 253.73 981.24 254.26 982.25 255.74 C 985.77 260.47 987.37 266.24 988.92 271.84 C 997.67 302.70 1000.04 335.06 998.63 367.00 C 997.20 400.80 991.14 434.27 982.54 466.95 C 979.33 478.49 976.28 490.11 972.17 501.37 C 1007.48 520.60 1041.58 542.52 1071.52 569.50 C 1099.23 594.54 1124.12 624.25 1137.19 659.67 C 1145.23 681.70 1147.44 706.10 1141.90 728.99 C 1137.33 748.39 1127.20 766.19 1114.03 781.03 C 1090.30 807.61 1058.48 825.52 1025.64 838.44 C 980.99 855.72 933.49 864.62 885.93 868.92 C 852.66 872.01 819.20 872.33 785.82 871.40 C 808.45 846.72 830.32 821.31 850.77 794.80 C 851.37 793.68 852.76 793.80 853.80 793.49 C 874.57 789.44 895.05 783.74 914.74 775.95 C 935.71 767.46 955.93 756.15 971.99 740.01 C 984.88 726.63 994.95 709.67 997.19 690.99 C 999.05 672.01 991.22 653.62 980.75 638.22 C 968.56 620.43 952.81 605.35 936.01 591.95 C 916.50 633.36 893.50 673.07 868.29 711.25 C 819.27 784.81 761.46 852.59 695.89 911.90 C 671.97 933.28 647.17 953.75 620.82 972.07 C 644.64 1002.32 669.79 1031.67 698.01 1057.93 C 725.03 1083.11 755.15 1105.38 788.77 1120.94 C 790.78 1121.89 792.67 1123.21 794.01 1125.05 C 795.29 1127.06 792.87 1128.74 791.14 1129.16 C 783.58 1130.35 776.19 1127.75 768.94 1125.99 C 730.88 1115.49 695.72 1096.22 664.09 1072.83 C 634.33 1051.04 607.79 1025.19 582.80 998.16 C 578.79 999.67 575.33 1002.52 571.54 1004.56 C 532.92 1027.50 491.67 1046.78 447.86 1057.33 C 416.61 1064.55 383.48 1067.40 352.15 1059.10 C 324.10 1051.97 298.87 1034.04 283.56 1009.40 C 265.29 980.24 260.24 944.84 261.40 910.99 C 263.18 866.48 274.77 822.92 290.45 781.42 C 307.71 735.83 330.55 692.54 356.14 651.12 C 366.29 683.47 377.44 715.55 390.43 746.88 C 383.74 765.76 378.53 785.18 375.19 804.94 C 372.07 824.48 370.66 844.54 373.82 864.17 C 376.52 882.67 383.65 900.82 396.05 915.00 C 404.71 925.25 416.93 932.25 430.00 935.10 C 446.84 939.09 464.43 937.55 481.24 934.17 C 495.45 931.15 509.43 926.85 522.85 921.27 C 506.02 897.61 491.06 872.66 476.76 847.40 C 438.86 779.51 408.75 707.33 386.42 632.88 C 369.46 575.85 357.02 517.34 351.51 458.05 C 306.54 464.41 261.67 473.30 218.81 488.59 C 191.37 498.44 164.85 511.20 140.80 527.76 C 137.84 529.74 134.64 532.58 130.80 531.20 C 130.70 529.53 130.23 527.77 130.98 526.18 C 133.56 519.83 138.88 515.27 143.47 510.40 C 172.77 480.92 209.03 459.13 247.15 443.04 C 279.78 428.99 314.12 419.44 348.71 411.59 C 347.00 361.69 350.61 311.05 365.10 263.05 C 373.55 235.85 385.81 209.32 404.67 187.71 C 421.90 167.71 445.69 152.96 471.85 148.34 M 440.49 450.62 C 440.30 608.37 487.71 765.06 570.86 898.78 C 624.00 868.09 673.56 831.26 718.48 789.46 C 788.92 724.08 847.96 646.64 893.34 561.96 C 839.42 530.64 781.79 505.74 722.14 487.60 C 631.16 459.75 535.55 447.59 440.49 450.62 Z" />
</g>
</svg>
