<?xml version="1.0" encoding="UTF-8" ?>
<!DOCTYPE svg PUBLIC "-//W3C//DTD SVG 1.1//EN" "http://www.w3.org/Graphics/SVG/1.1/DTD/svg11.dtd">
<svg width="1276pt" height="1276pt" viewBox="0 0 1276 1276" version="1.1" xmlns="http://www.w3.org/2000/svg">
<g id="#dc0d15ff">
<path fill="#dc0d15" opacity="1.00" d=" M 781.12 48.01 C 783.82 45.18 786.33 42.17 788.86 39.19 C 788.27 41.86 786.73 44.16 785.54 46.58 C 729.18 160.18 672.86 273.79 616.51 387.38 C 608.94 402.90 600.98 418.24 593.64 433.85 L 594.09 435.06 L 595.05 435.44 C 640.94 404.63 686.74 373.64 732.76 343.04 C 723.00 361.14 713.29 379.26 703.70 397.45 C 767.71 373.96 831.89 350.93 895.85 327.31 C 894.10 329.52 891.38 330.59 889.16 332.24 C 839.81 365.87 790.43 399.48 741.09 433.13 C 733.07 438.74 724.70 443.90 716.94 449.83 C 828.60 436.93 940.32 424.42 1051.97 411.44 C 1051.83 411.61 1051.53 411.94 1051.39 412.10 C 916.26 466.49 781.19 521.22 646.03 575.57 C 649.74 575.43 653.26 574.18 656.87 573.41 C 718.42 559.35 780.00 545.40 841.56 531.37 C 845.31 530.46 849.16 529.91 852.77 528.46 C 852.72 528.72 852.63 529.22 852.59 529.47 C 797.06 564.88 741.86 600.80 686.44 636.37 C 651.96 658.63 617.45 680.82 582.97 703.07 C 580.75 704.52 578.37 705.75 576.39 707.52 C 660.68 761.16 744.73 815.19 828.94 868.95 C 890.96 908.65 953.01 948.31 1015.03 988.01 C 1018.36 990.26 1021.99 992.09 1025.06 994.73 C 1024.43 994.85 1023.18 995.08 1022.55 995.20 C 943.45 965.81 865.54 933.34 787.85 900.42 C 692.71 859.77 598.06 817.95 503.86 775.17 C 503.03 774.87 501.36 774.26 500.53 773.95 C 502.26 776.41 504.70 778.21 507.00 780.09 C 577.64 840.10 648.26 900.13 718.93 960.10 C 724.05 964.41 729.61 968.18 734.85 972.36 C 722.23 975.94 709.60 979.46 696.97 983.02 C 689.96 984.85 683.08 987.34 675.95 988.64 C 675.73 987.95 675.30 986.58 675.08 985.89 C 674.15 982.92 672.90 980.06 671.34 977.38 C 667.96 979.01 664.48 980.44 661.08 982.03 C 664.70 989.49 667.46 997.66 667.20 1006.05 C 666.82 1013.57 663.20 1020.55 658.08 1025.94 C 659.23 1027.31 660.39 1028.70 661.53 1030.11 C 649.50 1048.55 639.38 1068.17 630.25 1088.19 C 625.68 1098.38 621.01 1108.55 617.23 1119.07 C 626.50 1119.35 636.28 1120.59 644.22 1125.75 C 648.91 1128.73 651.31 1134.77 649.77 1140.14 C 647.70 1148.02 645.06 1155.75 643.01 1163.64 C 639.60 1159.35 637.50 1154.09 635.55 1149.00 C 634.14 1144.61 632.62 1139.66 634.82 1135.28 C 624.53 1132.79 613.71 1134.42 603.54 1136.77 C 582.42 1142.04 562.59 1151.39 543.40 1161.50 C 533.85 1166.74 524.35 1172.10 515.19 1178.03 C 516.13 1171.03 519.78 1164.71 524.41 1159.52 C 531.09 1151.98 539.48 1146.18 548.18 1141.21 C 550.12 1140.03 552.40 1139.30 553.99 1137.62 C 541.94 1137.38 531.46 1144.40 521.95 1150.99 C 529.66 1136.42 544.48 1125.47 560.95 1123.36 C 569.63 1122.11 578.77 1121.81 587.17 1124.68 C 590.69 1124.47 593.99 1122.76 597.49 1122.21 C 600.97 1121.87 602.18 1118.11 603.50 1115.42 C 615.22 1086.01 628.53 1057.12 645.11 1030.09 C 639.00 1029.44 633.75 1025.44 630.49 1020.39 C 626.66 1014.43 624.97 1007.16 625.61 1000.13 C 599.91 1003.08 573.91 1004.27 548.11 1001.77 C 542.70 1001.25 537.30 1000.65 531.91 1000.04 C 530.61 999.84 529.32 999.65 528.04 999.49 C 487.34 993.75 447.48 980.81 411.83 960.21 C 407.90 957.63 403.39 956.10 399.54 953.40 C 363.63 930.77 335.56 894.03 327.95 851.80 C 322.43 854.37 317.60 858.28 312.00 860.67 C 312.36 810.41 319.14 759.14 340.78 713.29 C 334.36 713.80 327.97 714.57 321.55 714.95 C 327.70 707.04 333.48 698.79 339.93 691.12 C 337.61 695.85 335.38 700.61 333.36 705.48 C 337.41 704.97 341.45 704.38 345.45 703.58 C 354.45 686.00 365.18 669.21 378.38 654.48 C 385.43 646.63 393.01 639.12 401.70 633.10 C 398.13 649.83 394.33 666.52 390.29 683.14 C 393.16 681.46 394.85 678.47 397.12 676.13 C 435.24 633.77 477.12 595.00 519.57 557.05 C 513.86 547.27 507.44 537.86 499.86 529.44 C 482.02 541.43 464.36 553.70 446.56 565.75 C 442.05 568.92 437.42 572.21 431.91 573.33 C 422.40 576.24 411.58 573.99 404.21 567.26 C 409.23 569.47 414.34 572.04 419.99 571.78 C 429.63 571.86 439.49 566.50 443.68 557.64 C 447.47 549.98 445.92 540.13 440.00 533.97 C 437.14 530.40 432.34 529.08 429.63 525.41 C 427.77 522.97 428.96 519.82 430.52 517.59 C 434.25 512.09 439.09 507.46 443.93 502.95 C 458.25 489.33 472.59 475.73 486.87 462.08 C 488.07 461.84 488.81 461.13 489.11 459.94 C 495.30 454.20 501.34 448.29 507.55 442.56 C 509.06 441.20 510.33 439.59 511.51 437.95 C 500.02 441.82 488.96 446.91 477.58 451.11 C 480.74 442.79 486.84 436.08 491.85 428.85 C 470.18 442.66 449.15 457.50 427.48 471.32 C 429.34 465.36 432.48 459.92 435.63 454.57 C 446.19 437.16 458.65 421.01 470.97 404.84 C 456.57 416.28 443.11 428.94 428.70 440.39 C 428.48 434.09 430.40 428.01 432.36 422.11 C 437.40 407.62 444.12 393.79 450.80 380.00 C 441.05 388.91 432.24 398.90 424.41 409.55 C 424.18 409.50 423.70 409.40 423.47 409.35 C 424.71 404.55 425.35 399.60 427.09 394.94 C 429.19 388.69 432.14 382.80 435.06 376.91 C 414.34 395.57 398.02 418.89 385.86 443.91 C 376.06 464.12 369.28 485.72 365.26 507.81 C 363.78 508.43 362.31 509.08 360.85 509.73 C 359.95 511.69 359.79 514.74 357.13 515.08 C 335.13 521.51 316.22 536.64 303.26 555.31 L 303.32 556.64 C 318.76 540.18 341.14 530.01 363.83 530.69 C 373.28 548.05 383.15 565.32 389.94 583.94 C 391.05 587.81 392.87 591.88 392.05 595.95 C 391.03 599.21 387.36 597.14 385.03 596.98 C 381.52 595.86 377.61 598.01 376.63 601.53 C 374.76 607.74 376.52 614.22 377.71 620.39 C 366.38 615.95 355.17 611.18 343.79 606.89 C 325.49 599.56 307.20 592.20 288.89 584.89 C 288.41 584.50 287.46 583.73 286.98 583.34 C 310.47 575.92 335.95 572.70 360.12 578.77 C 361.19 582.09 363.67 584.81 367.09 585.75 C 373.05 587.93 379.52 587.95 385.79 587.68 C 383.29 578.17 374.49 572.54 366.94 567.21 C 355.35 570.92 342.69 571.19 331.09 567.42 C 323.32 564.71 314.85 565.04 307.04 567.39 C 300.48 569.22 294.39 572.39 288.52 575.79 C 307.21 512.94 325.41 449.94 343.93 387.04 C 344.87 384.79 344.56 381.86 346.37 380.09 C 348.11 404.79 350.20 429.48 352.25 454.16 C 352.54 453.72 353.10 452.84 353.38 452.40 C 390.81 370.23 428.32 288.09 465.78 205.93 C 466.81 203.83 467.35 201.40 469.12 199.75 C 469.53 261.49 470.48 323.22 470.89 384.96 C 470.85 386.67 470.80 388.41 471.36 390.06 C 574.52 275.96 677.90 162.07 781.12 48.01 M 491.27 633.26 C 486.36 643.65 480.87 653.80 476.37 664.36 C 498.77 648.81 520.93 632.87 543.16 617.08 C 538.47 599.51 532.59 582.09 524.04 566.00 C 513.14 588.43 502.16 610.83 491.27 633.26 Z" />
<path fill="#dc0d15" opacity="1.00" d=" M 428.02 543.29 C 431.51 542.46 434.79 540.79 438.39 540.45 C 439.33 544.64 439.77 549.08 438.24 553.19 C 436.07 559.39 430.54 564.34 424.05 565.54 C 414.50 567.79 404.03 562.08 400.36 553.06 C 400.58 551.25 404.96 550.09 405.31 552.76 C 408.57 560.12 418.11 563.75 425.51 560.68 C 428.50 559.60 430.85 557.37 432.87 554.99 C 431.21 554.07 429.59 553.11 428.03 552.05 C 429.24 549.21 428.66 546.18 428.02 543.29 Z" />
<path fill="#dc0d15" opacity="1.00" d=" M 782.04 956.99 C 837.45 972.84 893.17 988.69 950.44 996.27 C 973.84 998.94 997.89 1001.31 1021.11 995.99 C 1002.29 1004.24 981.37 1006.20 961.02 1006.23 C 930.49 1005.88 900.30 1000.07 870.92 992.11 C 874.27 1000.76 877.96 1009.29 881.61 1017.83 C 848.83 1000.69 816.77 982.14 784.15 964.71 C 783.83 963.46 783.54 962.23 783.18 961.03 C 782.80 959.66 782.41 958.33 782.04 956.99 Z" />
<path fill="#dc0d15" opacity="1.00" d=" M 528.46 1005.03 C 531.58 1005.47 534.71 1005.84 537.85 1006.19 C 539.52 1006.62 541.32 1006.86 542.78 1007.88 C 535.38 1012.49 529.34 1019.02 522.77 1024.73 C 502.29 1043.94 482.58 1063.96 463.24 1084.30 C 458.92 1089.21 461.05 1096.38 463.22 1101.81 C 464.97 1106.85 468.57 1110.91 470.86 1115.65 C 462.51 1109.10 451.26 1106.13 440.83 1108.45 C 428.86 1110.93 418.70 1118.65 410.55 1127.46 C 409.09 1128.91 408.12 1130.89 406.26 1131.91 C 405.87 1121.50 412.21 1112.35 419.78 1105.82 C 421.75 1103.85 424.42 1102.68 426.12 1100.45 C 397.72 1106.04 372.07 1120.69 348.57 1137.07 C 348.31 1136.97 347.80 1136.75 347.54 1136.64 C 346.89 1133.01 347.05 1129.11 348.77 1125.79 C 351.95 1119.27 357.95 1114.74 364.03 1111.10 C 364.00 1106.35 367.75 1102.81 372.02 1101.46 C 381.38 1098.29 391.37 1097.67 400.92 1095.17 C 417.17 1091.04 433.49 1087.03 449.66 1082.60 C 475.13 1055.97 500.75 1029.38 528.46 1005.03 Z" />
</g>
<g id="#000000ff">
<path fill="#000000" opacity="1.00" d=" M 385.86 443.91 C 398.02 418.89 414.34 395.57 435.06 376.91 C 432.14 382.80 429.19 388.69 427.09 394.94 C 425.35 399.60 424.71 404.55 423.47 409.35 C 423.70 409.40 424.18 409.50 424.41 409.55 C 432.24 398.90 441.05 388.91 450.80 380.00 C 444.12 393.79 437.40 407.62 432.36 422.11 C 430.40 428.01 428.48 434.09 428.70 440.39 C 443.11 428.94 456.57 416.28 470.97 404.84 C 458.65 421.01 446.19 437.16 435.63 454.57 C 432.48 459.92 429.34 465.36 427.48 471.32 C 449.15 457.50 470.18 442.66 491.85 428.85 C 486.84 436.08 480.74 442.79 477.58 451.11 C 488.96 446.91 500.02 441.82 511.51 437.95 C 510.33 439.59 509.06 441.20 507.55 442.56 C 501.34 448.29 495.30 454.20 489.11 459.94 C 487.51 459.77 486.76 460.48 486.87 462.08 C 472.59 475.73 458.25 489.33 443.93 502.95 C 439.09 507.46 434.25 512.09 430.52 517.59 C 428.96 519.82 427.77 522.97 429.63 525.41 C 432.34 529.08 437.14 530.40 440.00 533.97 C 445.92 540.13 447.47 549.98 443.68 557.64 C 439.49 566.50 429.63 571.86 419.99 571.78 C 414.34 572.04 409.23 569.47 404.21 567.26 C 411.58 573.99 422.40 576.24 431.91 573.33 C 437.42 572.21 442.05 568.92 446.56 565.75 C 464.36 553.70 482.02 541.43 499.86 529.44 C 507.44 537.86 513.86 547.27 519.57 557.05 C 477.12 595.00 435.24 633.77 397.12 676.13 C 394.85 678.47 393.16 681.46 390.29 683.14 C 394.33 666.52 398.13 649.83 401.70 633.10 C 393.01 639.12 385.43 646.63 378.38 654.48 C 365.18 669.21 354.45 686.00 345.45 703.58 C 341.45 704.38 337.41 704.97 333.36 705.48 C 335.38 700.61 337.61 695.85 339.93 691.12 C 343.88 683.78 347.94 676.48 352.74 669.65 C 354.23 667.75 354.58 665.31 354.97 663.02 C 357.42 647.59 354.48 631.74 348.53 617.43 C 347.13 613.82 345.18 610.48 343.79 606.89 C 355.17 611.18 366.38 615.95 377.71 620.39 C 376.52 614.22 374.76 607.74 376.63 601.53 C 377.61 598.01 381.52 595.86 385.03 596.98 C 387.36 597.14 391.03 599.21 392.05 595.95 C 392.87 591.88 391.05 587.81 389.94 583.94 C 383.15 565.32 373.28 548.05 363.83 530.69 C 341.14 530.01 318.76 540.18 303.32 556.64 L 303.26 555.31 C 316.22 536.64 335.13 521.51 357.13 515.08 C 359.79 514.74 359.95 511.69 360.85 509.73 C 362.31 509.08 363.78 508.43 365.26 507.81 C 369.28 485.72 376.06 464.12 385.86 443.91 M 428.02 543.29 C 428.66 546.18 429.24 549.21 428.03 552.05 C 429.59 553.11 431.21 554.07 432.87 554.99 C 430.85 557.37 428.50 559.60 425.51 560.68 C 418.11 563.75 408.57 560.12 405.31 552.76 C 404.96 550.09 400.58 551.25 400.36 553.06 C 404.03 562.08 414.50 567.79 424.05 565.54 C 430.54 564.34 436.07 559.39 438.24 553.19 C 439.77 549.08 439.33 544.64 438.39 540.45 C 434.79 540.79 431.51 542.46 428.02 543.29 Z" />
<path fill="#000000" opacity="1.00" d=" M 307.04 567.39 C 314.85 565.04 323.32 564.71 331.09 567.42 C 342.69 571.19 355.35 570.92 366.94 567.21 C 374.49 572.54 383.29 578.17 385.79 587.68 C 379.52 587.95 373.05 587.93 367.09 585.75 C 363.67 584.81 361.19 582.09 360.12 578.77 C 335.95 572.70 310.47 575.92 286.98 583.34 C 287.46 583.73 288.41 584.50 288.89 584.89 C 287.96 584.52 287.04 584.14 286.13 583.76 C 292.66 577.76 299.69 572.34 307.04 567.39 Z" />
<path fill="#000000" opacity="1.00" d=" M 491.27 633.26 C 502.16 610.83 513.14 588.43 524.04 566.00 C 532.59 582.09 538.47 599.51 543.16 617.08 C 520.93 632.87 498.77 648.81 476.37 664.36 C 480.87 653.80 486.36 643.65 491.27 633.26 Z" />
<path fill="#000000" opacity="1.00" d=" M 500.53 773.95 C 501.36 774.26 503.03 774.87 503.86 775.17 C 598.06 817.95 692.71 859.77 787.85 900.42 C 865.54 933.34 943.45 965.81 1022.55 995.20 C 1022.19 995.40 1021.47 995.80 1021.11 995.99 C 997.89 1001.31 973.84 998.94 950.44 996.27 C 893.17 988.69 837.45 972.84 782.04 956.99 C 782.41 958.33 782.80 959.66 783.18 961.03 C 783.11 962.15 783.02 963.29 782.92 964.43 C 775.99 959.63 767.69 956.89 759.46 955.32 C 746.87 952.96 734.44 957.36 722.93 961.99 C 721.29 963.00 720.16 960.82 718.93 960.10 C 648.26 900.13 577.64 840.10 507.00 780.09 C 504.70 778.21 502.26 776.41 500.53 773.95 Z" />
<path fill="#000000" opacity="1.00" d=" M 661.08 982.03 C 664.48 980.44 667.96 979.01 671.34 977.38 C 672.90 980.06 674.15 982.92 675.08 985.89 C 679.08 997.17 680.35 1010.07 675.19 1021.20 C 672.78 1026.10 669.62 1031.05 664.94 1034.02 C 663.61 1032.88 662.63 1031.43 661.53 1030.11 C 660.39 1028.70 659.23 1027.31 658.08 1025.94 C 663.20 1020.55 666.82 1013.57 667.20 1006.05 C 667.46 997.66 664.70 989.49 661.08 982.03 Z" />
<path fill="#000000" opacity="1.00" d=" M 528.04 999.49 C 529.32 999.65 530.61 999.84 531.91 1000.04 C 537.14 1000.79 542.40 1001.42 547.68 1001.81 C 547.60 1003.51 547.48 1005.23 547.34 1006.96 C 546.40 1006.96 544.51 1006.96 543.57 1006.97 C 541.88 1005.80 539.75 1006.25 537.85 1006.19 C 534.71 1005.84 531.58 1005.47 528.46 1005.03 L 527.19 1004.85 C 527.29 1003.03 527.61 1001.24 528.04 999.49 Z" />
</g>
<g id="#370305db">
<path fill="#370305" opacity="0.86" d=" M 486.87 462.08 C 486.76 460.48 487.51 459.77 489.11 459.94 C 488.81 461.13 488.07 461.84 486.87 462.08 Z" />
</g>
</svg>
