<?xml version="1.0" encoding="UTF-8" ?>
<!DOCTYPE svg PUBLIC "-//W3C//DTD SVG 1.1//EN" "http://www.w3.org/Graphics/SVG/1.1/DTD/svg11.dtd">
<svg width="1276pt" height="1276pt" viewBox="0 0 1276 1276" version="1.1" xmlns="http://www.w3.org/2000/svg">
<g id="#ffffffff">
<path fill="#ffffff" opacity="1.00" d=" M 844.91 173.98 C 863.25 172.21 881.68 174.24 899.86 176.73 C 932.71 181.90 965.53 191.97 992.90 211.39 C 999.21 215.89 1005.36 220.67 1010.97 226.03 C 1028.43 245.17 1041.64 267.72 1052.96 290.90 C 1071.75 329.86 1087.12 370.67 1095.92 413.09 C 1101.99 442.11 1105.43 471.65 1106.95 501.23 C 1109.75 548.78 1108.11 596.66 1100.91 643.77 C 1093.95 687.74 1080.65 730.61 1062.22 771.11 C 1045.04 808.91 1024.12 845.03 999.71 878.62 C 989.88 892.53 978.39 905.14 966.89 917.67 C 953.66 931.84 940.25 945.89 925.77 958.80 C 894.78 985.35 860.67 1008.19 824.80 1027.58 C 805.98 1037.55 786.65 1046.68 766.47 1053.55 C 747.99 1060.02 729.15 1065.39 710.17 1070.15 C 684.13 1076.55 657.80 1081.89 631.17 1085.15 C 605.12 1087.12 578.74 1087.98 552.82 1084.05 C 510.84 1077.21 469.22 1067.57 428.91 1053.92 C 378.46 1035.79 331.60 1008.52 289.17 975.91 C 273.99 964.19 259.44 951.67 245.53 938.47 C 220.75 913.74 198.59 886.12 181.37 855.57 C 167.72 831.46 162.56 803.50 161.80 776.08 C 162.62 758.34 164.23 740.63 167.34 723.14 C 170.45 704.90 176.22 687.22 183.36 670.19 C 214.09 598.52 257.99 532.95 309.41 474.51 C 332.45 448.12 357.45 423.49 383.94 400.58 C 414.63 373.84 446.91 348.95 480.10 325.39 C 542.88 281.31 609.79 242.27 681.90 215.54 C 722.89 200.11 764.94 187.25 807.95 178.85 C 820.17 176.56 832.51 174.97 844.91 173.98 M 766.17 236.66 C 729.11 243.26 693.72 257.12 660.28 274.15 C 646.49 281.36 634.64 292.58 627.69 306.60 C 622.05 317.44 619.78 329.60 618.19 341.61 L 617.96 341.66 C 616.19 354.32 614.09 366.96 613.23 379.73 L 612.97 379.85 C 612.10 391.90 611.12 403.95 611.22 416.04 C 611.32 429.80 610.91 443.58 611.47 457.33 C 611.27 461.94 614.52 466.47 619.05 467.57 C 624.25 468.88 629.48 466.67 633.51 463.47 C 644.09 455.16 653.91 445.92 663.05 436.05 C 676.35 422.08 689.25 407.74 702.15 393.40 C 714.16 379.74 726.14 366.04 737.96 352.22 C 747.49 341.02 757.01 329.83 766.43 318.54 C 779.36 302.75 793.31 287.73 805.02 270.97 C 809.89 263.62 814.58 255.97 817.28 247.52 C 818.55 243.77 817.93 238.86 814.14 236.81 C 808.67 233.77 802.18 233.29 796.04 233.30 C 786.00 233.44 776.06 235.05 766.17 236.66 M 870.24 245.62 L 870.04 245.53 C 864.34 248.08 858.75 250.94 853.83 254.81 C 842.02 264.12 831.30 274.69 820.48 285.09 C 784.00 320.75 750.62 359.39 716.56 397.32 C 697.62 418.26 678.71 439.39 662.75 462.75 C 660.77 465.52 660.37 469.66 662.58 472.42 C 664.43 475.04 667.94 475.89 670.95 475.11 C 676.55 473.84 681.83 471.51 687.10 469.27 C 705.80 461.04 724.28 452.31 742.71 443.48 C 788.04 421.54 832.51 397.88 876.86 374.02 L 876.83 373.91 C 885.33 369.42 893.73 364.75 902.19 360.19 C 911.66 354.79 921.46 349.83 930.38 343.56 C 940.12 337.54 949.17 330.33 957.19 322.13 C 961.67 317.67 965.14 312.11 966.57 305.91 C 969.30 295.67 965.62 285.06 960.86 276.03 C 951.85 258.88 934.76 246.73 916.06 242.33 C 900.95 238.83 884.62 239.60 870.24 245.62 M 1006.18 279.88 C 1009.14 287.00 1011.72 294.27 1013.77 301.70 C 1017.14 313.17 1017.63 325.17 1018.20 337.03 C 1018.51 345.34 1017.52 353.61 1017.14 361.89 C 1014.80 378.12 1011.32 394.23 1006.09 409.80 C 998.18 433.33 988.02 456.07 976.42 478.00 C 960.38 508.11 941.27 536.50 920.29 563.37 C 891.50 599.89 859.93 634.22 825.96 665.98 C 808.64 682.29 790.42 697.61 772.18 712.87 C 770.53 713.74 769.18 715.06 767.71 716.20 C 765.43 718.08 763.11 719.90 760.78 721.72 C 758.24 723.73 755.66 725.68 753.14 727.71 C 737.25 739.98 720.97 751.73 704.56 763.30 C 686.06 775.96 667.32 788.31 648.10 799.86 C 647.61 800.14 646.63 800.71 646.14 801.00 C 612.75 820.81 578.20 838.82 542.22 853.46 C 540.73 854.14 539.25 854.83 537.76 855.51 C 508.48 867.35 478.50 877.51 447.90 885.39 C 428.07 890.53 407.96 894.95 387.54 896.89 L 387.78 897.26 C 380.83 897.41 373.95 898.66 366.99 898.67 C 356.62 899.59 346.21 899.20 335.82 899.17 C 322.52 897.96 309.05 897.17 295.94 894.23 C 291.64 893.43 287.50 891.95 283.20 891.15 C 264.94 885.35 247.43 876.70 232.58 864.49 C 230.53 862.73 228.34 861.14 225.99 859.81 C 237.89 874.03 250.55 887.63 263.73 900.69 C 270.09 907.14 276.62 913.46 283.44 919.43 L 283.47 919.58 L 283.62 919.60 C 320.19 953.36 361.48 982.28 406.59 1003.44 C 447.91 1022.95 492.47 1035.61 537.91 1040.47 C 587.30 1045.81 637.45 1042.13 685.91 1031.46 C 728.85 1022.00 770.90 1007.91 810.23 988.14 C 843.54 971.37 874.90 950.62 903.01 926.08 C 960.02 876.81 1002.79 812.45 1031.05 742.90 C 1046.03 706.02 1057.64 667.76 1065.74 628.79 C 1076.42 577.63 1076.79 524.75 1070.80 472.96 C 1068.22 448.37 1063.22 424.08 1056.79 400.22 C 1049.54 374.05 1041.16 348.14 1030.59 323.11 C 1024.80 309.57 1018.46 296.16 1009.90 284.12 C 1008.72 282.67 1008.01 280.63 1006.18 279.88 M 543.05 335.17 C 492.63 363.98 445.04 398.77 406.28 442.30 C 402.44 446.69 398.83 451.48 397.00 457.09 C 395.73 461.07 396.08 465.79 398.89 469.06 C 404.09 475.44 412.42 477.71 419.98 479.97 C 436.94 484.77 453.91 489.72 471.24 492.96 L 471.58 493.28 C 488.36 496.59 505.25 499.76 522.35 500.91 L 522.48 501.27 C 530.32 501.34 538.11 502.50 545.95 502.33 C 556.05 502.61 566.99 499.70 573.66 491.64 C 582.10 481.76 583.59 468.32 585.38 455.96 C 585.57 452.48 586.67 449.00 586.29 445.54 C 589.12 422.77 587.95 399.75 588.20 376.86 C 588.37 367.60 588.92 358.28 587.49 349.08 C 586.48 342.24 584.92 335.05 580.47 329.56 C 576.92 325.47 571.04 324.71 566.00 325.82 C 557.88 327.59 550.30 331.20 543.05 335.17 M 913.78 377.94 C 886.23 389.04 859.31 401.63 832.62 414.64 C 807.90 426.63 783.17 438.60 758.43 450.56 C 734.18 462.47 710.18 474.94 686.90 488.67 C 679.96 493.17 672.45 496.84 666.07 502.15 C 662.31 505.25 659.63 510.02 660.32 515.02 C 660.35 519.45 663.83 523.05 667.90 524.30 C 673.42 526.06 679.21 526.77 684.80 528.25 C 708.39 533.84 732.36 538.10 756.39 541.06 C 774.89 543.77 793.51 545.64 812.12 547.42 C 822.68 548.23 833.21 549.85 843.84 549.24 C 855.96 548.22 868.26 547.04 879.74 542.73 C 892.56 538.26 904.02 530.17 912.78 519.82 C 925.81 504.61 938.29 488.59 947.86 470.99 C 953.37 462.77 957.55 453.71 961.79 444.78 C 970.79 425.48 976.64 404.41 976.48 383.00 C 976.32 377.42 975.05 371.19 970.56 367.43 C 966.85 364.22 961.58 363.83 956.93 364.46 C 941.97 366.86 927.81 372.44 913.78 377.94 M 339.25 517.99 L 339.28 518.19 C 331.78 522.83 325.42 529.07 319.62 535.65 C 307.78 549.71 296.37 564.16 285.98 579.33 C 272.01 599.92 259.34 621.86 252.84 646.05 C 251.26 652.35 249.34 658.87 250.41 665.41 C 251.07 669.13 254.41 671.68 257.99 672.32 C 264.83 673.45 271.71 671.53 278.12 669.23 C 289.97 664.83 301.69 660.08 313.32 655.14 C 331.70 647.20 349.96 638.98 367.93 630.16 L 368.07 630.20 C 378.58 625.09 389.15 620.12 399.53 614.75 C 410.49 609.53 421.36 604.07 432.22 598.62 C 440.60 594.64 448.86 590.40 457.18 586.28 C 472.72 578.53 488.11 570.45 502.97 561.45 C 509.79 557.19 516.89 553.25 523.08 548.10 C 527.71 544.35 530.92 537.89 528.57 532.01 C 527.42 528.65 523.91 527.09 520.73 526.27 C 515.52 525.13 510.70 522.70 505.45 521.71 C 488.26 517.61 470.89 514.32 453.40 511.82 C 442.78 510.38 432.15 508.71 421.49 507.75 C 409.20 506.42 396.91 504.16 384.52 504.46 C 368.52 504.32 352.60 509.20 339.25 517.99 M 625.81 552.59 C 615.18 557.28 608.75 568.14 606.44 579.15 C 604.56 589.26 603.03 599.46 602.07 609.70 C 600.75 622.50 600.17 635.37 599.85 648.23 C 599.71 657.27 599.32 666.38 599.78 675.40 C 599.36 691.57 599.91 707.75 600.74 723.90 C 601.88 735.67 602.78 747.97 608.44 758.60 C 611.59 764.60 618.12 768.46 624.93 768.20 C 636.01 767.70 646.12 762.57 655.96 757.90 C 680.62 745.87 704.35 731.79 726.49 715.58 C 753.36 696.53 777.93 674.42 801.02 650.99 C 811.48 640.66 821.74 629.78 828.73 616.73 C 831.10 611.97 833.41 606.50 831.88 601.12 C 830.29 595.66 825.73 591.85 821.22 588.75 C 814.73 584.43 807.41 581.50 800.00 579.21 L 799.84 579.00 C 791.65 576.23 783.36 573.83 774.96 571.79 C 765.66 569.64 756.41 566.85 746.94 565.65 L 746.34 565.96 L 746.15 565.25 C 733.92 561.96 721.31 559.48 708.81 557.09 L 708.77 556.93 C 697.15 554.74 685.49 552.75 673.74 551.41 C 667.86 550.61 661.94 550.25 656.03 549.74 C 645.94 549.34 635.24 548.04 625.81 552.59 M 489.36 586.31 C 476.51 591.91 463.87 597.98 451.17 603.92 C 440.17 609.38 429.02 614.53 418.12 620.20 C 398.00 630.36 377.85 640.55 358.13 651.45 C 340.70 660.28 323.70 669.94 306.39 679.00 L 306.38 679.15 C 289.20 688.09 272.77 698.55 257.55 710.54 C 245.89 719.41 236.48 732.14 234.36 746.91 C 232.90 754.24 234.35 761.66 234.13 769.05 C 234.51 786.01 242.09 802.87 255.28 813.70 C 264.35 821.32 275.62 828.11 287.92 826.93 C 302.25 825.68 313.65 816.01 324.43 807.42 C 338.18 795.08 351.26 782.02 364.44 769.08 C 379.45 753.79 394.55 738.57 408.87 722.62 L 408.99 722.60 C 424.75 705.70 440.17 688.49 455.28 671.02 C 464.05 661.00 472.79 650.96 481.38 640.78 C 490.44 630.13 499.54 619.50 508.44 608.70 C 512.53 604.03 516.37 599.13 520.47 594.45 C 523.05 591.34 526.42 588.29 526.90 584.06 C 527.67 578.83 522.47 573.03 517.05 574.83 C 507.56 577.96 498.50 582.29 489.36 586.31 M 556.24 587.20 C 544.68 593.44 535.95 603.50 527.02 612.88 C 519.25 621.15 511.39 629.35 503.86 637.84 C 493.40 648.94 483.36 660.41 473.21 671.77 C 458.28 688.70 443.49 705.76 428.95 723.03 C 428.42 723.88 427.34 724.63 427.36 725.70 L 427.13 725.26 C 410.45 744.72 394.23 764.57 377.96 784.38 C 367.18 797.49 356.79 811.18 349.80 826.75 C 347.67 831.82 345.31 837.43 346.81 843.01 C 348.18 847.43 352.38 850.11 356.52 851.62 C 374.70 857.60 394.25 859.09 413.17 856.17 C 434.49 853.30 455.53 848.18 475.79 840.93 C 483.72 838.46 491.43 835.30 499.15 832.24 C 507.73 828.88 516.17 825.01 523.82 819.83 C 537.20 810.88 548.24 798.21 554.60 783.37 L 554.75 783.31 C 559.51 772.99 562.04 761.83 563.88 750.66 C 566.32 736.77 568.43 722.80 569.87 708.77 L 570.06 708.71 C 571.44 694.46 573.00 680.22 573.75 665.92 C 574.82 653.03 575.45 640.09 576.04 627.16 C 576.61 620.79 576.20 614.39 576.31 608.01 C 576.51 602.08 575.65 596.11 573.66 590.53 C 572.66 587.86 570.95 584.93 567.96 584.27 C 563.81 583.38 559.83 585.38 556.24 587.20 Z" />
</g>
<g id="#ffdd02ff">
<path fill="#ffdd02" opacity="1.00" d=" M 766.17 236.66 C 776.06 235.05 786.00 233.44 796.04 233.30 C 802.18 233.29 808.67 233.77 814.14 236.81 C 817.93 238.86 818.55 243.77 817.28 247.52 C 814.58 255.97 809.89 263.62 805.02 270.97 C 793.31 287.73 779.36 302.75 766.43 318.54 C 764.69 317.26 763.04 315.62 760.81 315.30 C 754.01 314.02 747.54 311.37 740.67 310.42 C 727.86 308.18 714.63 308.32 701.85 310.65 C 694.43 311.50 687.36 314.06 679.98 315.06 C 672.37 316.36 665.57 320.28 658.16 322.27 C 652.73 323.64 648.30 327.30 642.99 328.96 C 638.65 330.22 635.23 333.37 631.04 334.99 C 626.52 336.80 623.26 341.08 618.19 341.61 C 619.78 329.60 622.05 317.44 627.69 306.60 C 634.64 292.58 646.49 281.36 660.28 274.15 C 693.72 257.12 729.11 243.26 766.17 236.66 Z" />
<path fill="#ffdd02" opacity="1.00" d=" M 707.42 571.57 C 708.22 566.81 710.53 561.90 708.81 557.09 C 721.31 559.48 733.92 561.96 746.15 565.25 L 746.34 565.96 C 745.57 572.44 744.49 578.88 741.94 584.93 C 740.95 591.47 737.50 597.13 735.28 603.27 C 730.31 613.26 724.80 623.04 717.80 631.77 C 713.33 638.22 707.45 643.44 702.21 649.22 C 694.32 656.45 686.12 663.61 676.55 668.51 C 673.86 670.31 671.31 672.43 668.14 673.33 C 662.81 674.95 658.38 678.68 652.92 679.94 C 645.19 681.58 638.00 685.44 630.01 685.91 C 622.35 686.81 614.62 687.02 606.99 688.12 C 605.19 688.27 603.25 688.33 601.65 687.40 C 600.20 683.55 601.79 679.14 599.78 675.40 C 599.32 666.38 599.71 657.27 599.85 648.23 C 600.38 647.19 600.97 646.20 601.56 645.20 C 601.84 646.42 602.13 647.64 602.42 648.88 C 609.63 649.28 616.76 647.65 623.95 647.24 C 633.32 646.87 641.63 642.17 650.30 639.17 C 664.36 631.72 677.58 622.08 687.36 609.38 C 696.62 598.33 702.68 585.07 707.42 571.57 Z" />
</g>
<g id="#ffda05ff">
<path fill="#ffda05" opacity="1.00" d=" M 870.24 245.62 C 884.62 239.60 900.95 238.83 916.06 242.33 C 934.76 246.73 951.85 258.88 960.86 276.03 C 965.62 285.06 969.30 295.67 966.57 305.91 C 965.14 312.11 961.67 317.67 957.19 322.13 C 949.17 330.33 940.12 337.54 930.38 343.56 C 931.28 341.79 932.40 340.03 932.72 338.03 C 932.70 330.57 928.55 324.12 926.62 317.12 C 925.98 314.98 924.97 312.99 924.01 311.00 C 917.90 294.98 908.44 280.43 898.12 266.82 C 893.71 262.57 890.15 257.54 885.52 253.52 C 882.85 250.87 880.70 247.60 877.40 245.67 C 875.59 245.64 873.85 246.19 872.08 246.42 C 871.62 246.22 870.70 245.82 870.24 245.62 Z" />
</g>
<g id="#ffe305ff">
<path fill="#ffe305" opacity="1.00" d=" M 872.08 246.42 C 873.85 246.19 875.59 245.64 877.40 245.67 C 880.70 247.60 882.85 250.87 885.52 253.52 C 890.15 257.54 893.71 262.57 898.12 266.82 C 908.44 280.43 917.90 294.98 924.01 311.00 C 924.97 312.99 925.98 314.98 926.62 317.12 C 928.55 324.12 932.70 330.57 932.72 338.03 C 932.40 340.03 931.28 341.79 930.38 343.56 C 921.46 349.83 911.66 354.79 902.19 360.19 C 893.73 364.75 885.33 369.42 876.83 373.91 C 875.23 366.92 871.87 360.49 870.42 353.47 C 860.41 326.74 843.59 302.09 820.48 285.09 C 831.30 274.69 842.02 264.12 853.83 254.81 C 858.75 250.94 864.34 248.08 870.04 245.53 L 870.24 245.62 C 870.70 245.82 871.62 246.22 872.08 246.42 Z" />
</g>
<g id="#f15624ff">
<path fill="#f15624" opacity="1.00" d=" M 1006.18 279.88 C 1008.01 280.63 1008.72 282.67 1009.90 284.12 C 1018.46 296.16 1024.80 309.57 1030.59 323.11 C 1041.16 348.14 1049.54 374.05 1056.79 400.22 C 1063.22 424.08 1068.22 448.37 1070.80 472.96 C 1076.79 524.75 1076.42 577.63 1065.74 628.79 C 1057.64 667.76 1046.03 706.02 1031.05 742.90 C 1002.79 812.45 960.02 876.81 903.01 926.08 C 874.90 950.62 843.54 971.37 810.23 988.14 C 770.90 1007.91 728.85 1022.00 685.91 1031.46 C 637.45 1042.13 587.30 1045.81 537.91 1040.47 C 492.47 1035.61 447.91 1022.95 406.59 1003.44 C 361.48 982.28 320.19 953.36 283.62 919.60 C 287.20 919.71 289.29 923.14 291.93 925.11 C 327.62 956.01 367.18 982.82 410.29 1002.24 C 456.41 1023.27 506.43 1035.87 557.07 1038.57 C 604.46 1041.38 652.12 1035.78 698.11 1024.28 C 741.21 1013.53 783.17 997.81 822.16 976.47 C 836.77 968.73 850.67 959.74 864.24 950.33 C 876.78 941.79 888.63 932.25 900.05 922.26 C 905.73 917.51 911.05 912.36 916.35 907.20 C 942.47 882.66 964.87 854.34 984.16 824.17 C 1006.14 789.53 1023.64 752.16 1037.47 713.57 C 1049.58 678.98 1059.32 643.49 1065.32 607.32 C 1073.09 560.82 1071.97 513.18 1066.02 466.54 C 1065.58 456.36 1063.26 446.41 1061.53 436.40 C 1055.99 407.64 1047.22 379.65 1037.98 351.91 C 1033.29 340.35 1029.27 328.49 1023.67 317.33 C 1021.40 311.91 1018.92 306.57 1015.92 301.52 C 1015.38 301.57 1014.31 301.66 1013.77 301.70 C 1011.72 294.27 1009.14 287.00 1006.18 279.88 Z" />
<path fill="#f15624" opacity="1.00" d=" M 264.31 899.29 C 269.48 904.58 274.79 909.75 280.33 914.67 C 281.69 916.00 283.46 917.30 283.44 919.43 C 276.62 913.46 270.09 907.14 263.73 900.69 C 263.87 900.34 264.16 899.64 264.31 899.29 Z" />
</g>
<g id="#fff004ff">
<path fill="#fff004" opacity="1.00" d=" M 716.56 397.32 C 750.62 359.39 784.00 320.75 820.48 285.09 C 843.59 302.09 860.41 326.74 870.42 353.47 C 871.87 360.49 875.23 366.92 876.83 373.91 L 876.86 374.02 C 832.51 397.88 788.04 421.54 742.71 443.48 C 741.60 438.13 741.13 432.50 738.40 427.64 C 733.41 416.15 726.47 405.19 716.56 397.32 Z" />
</g>
<g id="#f66418ff">
<path fill="#f66418" opacity="1.00" d=" M 1013.77 301.70 C 1014.31 301.66 1015.38 301.57 1015.92 301.52 C 1018.92 306.57 1021.40 311.91 1023.67 317.33 C 1029.27 328.49 1033.29 340.35 1037.98 351.91 C 1047.22 379.65 1055.99 407.64 1061.53 436.40 C 1063.26 446.41 1065.58 456.36 1066.02 466.54 C 1065.45 468.49 1064.73 470.40 1063.99 472.30 C 1062.52 467.78 1061.77 463.01 1059.59 458.74 C 1057.84 455.39 1057.57 451.52 1055.80 448.19 C 1053.48 443.65 1052.37 438.58 1049.87 434.12 C 1045.94 427.22 1044.41 419.04 1039.38 412.78 C 1038.30 411.16 1038.76 409.03 1037.85 407.35 C 1036.72 405.62 1035.15 404.17 1034.42 402.21 C 1033.22 399.01 1030.99 396.34 1029.77 393.15 C 1028.77 390.34 1026.14 388.55 1025.11 385.78 C 1023.93 382.55 1022.02 379.66 1020.09 376.84 C 1019.54 375.73 1018.18 375.63 1017.20 375.15 C 1017.18 370.73 1017.48 366.30 1017.14 361.89 C 1017.52 353.61 1018.51 345.34 1018.20 337.03 C 1017.63 325.17 1017.14 313.17 1013.77 301.70 Z" />
</g>
<g id="#ffe702ff">
<path fill="#ffe702" opacity="1.00" d=" M 701.85 310.65 C 714.63 308.32 727.86 308.18 740.67 310.42 C 747.54 311.37 754.01 314.02 760.81 315.30 C 763.04 315.62 764.69 317.26 766.43 318.54 C 757.01 329.83 747.49 341.02 737.96 352.22 C 737.66 351.05 737.39 349.90 737.10 348.74 C 728.08 346.94 719.18 344.13 709.90 343.96 C 701.74 343.58 693.61 344.85 685.66 346.59 C 679.73 347.99 673.45 348.09 667.88 350.80 C 661.42 353.96 654.15 355.19 648.04 359.06 C 639.88 363.44 631.43 367.42 623.99 373.00 C 620.31 375.10 617.14 378.04 613.23 379.73 C 614.09 366.96 616.19 354.32 617.96 341.66 L 618.19 341.61 C 623.26 341.08 626.52 336.80 631.04 334.99 C 635.23 333.37 638.65 330.22 642.99 328.96 C 648.30 327.30 652.73 323.64 658.16 322.27 C 665.57 320.28 672.37 316.36 679.98 315.06 C 687.36 314.06 694.43 311.50 701.85 310.65 Z" />
<path fill="#ffe702" opacity="1.00" d=" M 673.74 551.41 C 685.49 552.75 697.15 554.74 708.77 556.93 L 708.81 557.09 C 710.53 561.90 708.22 566.81 707.42 571.57 C 702.68 585.07 696.62 598.33 687.36 609.38 C 677.58 622.08 664.36 631.72 650.30 639.17 C 641.63 642.17 633.32 646.87 623.95 647.24 C 616.76 647.65 609.63 649.28 602.42 648.88 C 602.13 647.64 601.84 646.42 601.56 645.20 C 600.97 646.20 600.38 647.19 599.85 648.23 C 600.17 635.37 600.75 622.50 602.07 609.70 C 603.53 610.98 604.70 613.19 606.95 612.94 C 610.64 613.12 614.35 613.18 618.05 612.91 C 624.40 612.24 630.17 609.33 636.06 607.08 C 641.24 605.48 645.32 601.75 649.72 598.76 C 653.34 595.36 657.71 592.70 660.51 588.49 C 668.39 578.76 674.73 567.42 676.87 554.97 C 676.97 553.20 674.86 552.38 673.74 551.41 Z" />
</g>
<g id="#ffcf05ff">
<path fill="#ffcf05" opacity="1.00" d=" M 543.05 335.17 C 550.30 331.20 557.88 327.59 566.00 325.82 C 571.04 324.71 576.92 325.47 580.47 329.56 C 584.92 335.05 586.48 342.24 587.49 349.08 C 588.92 358.28 588.37 367.60 588.20 376.86 C 586.93 376.07 585.72 374.69 584.07 374.98 C 576.82 375.42 570.84 380.09 563.96 381.90 C 558.67 383.11 554.58 386.91 549.52 388.69 C 537.33 395.66 525.34 403.31 515.50 413.45 C 509.41 418.37 504.19 424.26 499.36 430.40 C 495.33 434.85 491.86 439.75 488.69 444.84 C 482.74 452.67 478.37 461.56 474.44 470.54 C 471.24 476.32 468.80 482.56 467.40 489.01 C 468.01 490.68 470.10 491.56 471.24 492.96 C 453.91 489.72 436.94 484.77 419.98 479.97 C 412.42 477.71 404.09 475.44 398.89 469.06 C 396.08 465.79 395.73 461.07 397.00 457.09 C 398.83 451.48 402.44 446.69 406.28 442.30 C 445.04 398.77 492.63 363.98 543.05 335.17 Z" />
</g>
<g id="#ffef01ff">
<path fill="#ffef01" opacity="1.00" d=" M 685.66 346.59 C 693.61 344.85 701.74 343.58 709.90 343.96 C 719.18 344.13 728.08 346.94 737.10 348.74 C 737.39 349.90 737.66 351.05 737.96 352.22 C 726.14 366.04 714.16 379.74 702.15 393.40 C 701.57 392.23 701.50 390.43 699.90 390.20 C 696.12 388.82 692.03 388.93 688.07 388.88 C 677.52 388.48 667.54 392.53 657.74 395.88 C 647.79 400.65 638.02 406.25 630.21 414.17 C 626.75 417.02 623.21 419.88 620.65 423.63 C 618.21 427.17 614.55 430.08 613.48 434.40 C 612.22 441.99 612.67 449.74 611.47 457.33 C 610.91 443.58 611.32 429.80 611.22 416.04 C 611.12 403.95 612.10 391.90 612.97 379.85 L 613.23 379.73 C 617.14 378.04 620.31 375.10 623.99 373.00 C 631.43 367.42 639.88 363.44 648.04 359.06 C 654.15 355.19 661.42 353.96 667.88 350.80 C 673.45 348.09 679.73 347.99 685.66 346.59 Z" />
<path fill="#ffef01" opacity="1.00" d=" M 686.90 488.67 C 710.18 474.94 734.18 462.47 758.43 450.56 C 762.67 454.19 765.16 459.24 768.05 463.90 C 770.25 469.26 773.06 474.45 773.73 480.30 C 779.58 499.53 775.60 520.67 766.03 537.98 C 764.33 542.09 759.47 539.12 756.39 541.06 C 732.36 538.10 708.39 533.84 684.80 528.25 C 689.75 520.88 694.24 512.19 692.95 503.05 C 692.02 497.88 689.32 493.26 686.90 488.67 Z" />
<path fill="#ffef01" opacity="1.00" d=" M 451.17 603.92 C 463.87 597.98 476.51 591.91 489.36 586.31 C 489.33 588.52 488.82 590.93 490.03 592.94 C 492.37 597.94 496.00 602.16 499.87 606.03 C 502.12 608.16 505.27 610.30 508.44 608.70 C 499.54 619.50 490.44 630.13 481.38 640.78 C 476.26 641.56 473.39 636.90 469.91 634.10 C 465.71 630.45 462.94 625.56 459.90 620.99 C 455.95 615.89 453.94 609.67 451.17 603.92 Z" />
</g>
<g id="#f86e14ff">
<path fill="#f86e14" opacity="1.00" d=" M 1006.09 409.80 C 1011.32 394.23 1014.80 378.12 1017.14 361.89 C 1017.48 366.30 1017.18 370.73 1017.20 375.15 C 1018.18 375.63 1019.54 375.73 1020.09 376.84 C 1022.02 379.66 1023.93 382.55 1025.11 385.78 C 1026.14 388.55 1028.77 390.34 1029.77 393.15 C 1030.99 396.34 1033.22 399.01 1034.42 402.21 C 1035.15 404.17 1036.72 405.62 1037.85 407.35 C 1038.76 409.03 1038.30 411.16 1039.38 412.78 C 1044.41 419.04 1045.94 427.22 1049.87 434.12 C 1052.37 438.58 1053.48 443.65 1055.80 448.19 C 1057.57 451.52 1057.84 455.39 1059.59 458.74 C 1061.77 463.01 1062.52 467.78 1063.99 472.30 C 1064.73 470.40 1065.45 468.49 1066.02 466.54 C 1071.97 513.18 1073.09 560.82 1065.32 607.32 C 1065.09 605.53 1064.83 603.76 1064.58 602.00 C 1064.14 603.71 1063.73 605.43 1063.32 607.16 C 1061.83 598.35 1062.40 589.13 1058.79 580.80 C 1059.34 580.64 1060.43 580.33 1060.98 580.17 C 1059.93 576.53 1059.34 572.80 1059.49 569.01 C 1058.59 563.69 1058.05 558.31 1056.81 553.06 C 1056.02 550.43 1057.10 547.81 1057.27 545.19 C 1056.49 540.77 1053.95 536.83 1053.54 532.32 C 1053.33 529.83 1052.29 527.37 1052.83 524.86 C 1053.86 520.91 1050.99 517.45 1050.18 513.74 C 1049.22 509.64 1046.57 505.59 1048.35 501.31 C 1047.50 500.84 1046.65 500.38 1045.83 499.92 C 1047.06 495.95 1044.34 492.54 1042.93 489.06 C 1042.44 486.03 1042.31 482.89 1040.75 480.16 C 1038.45 475.90 1038.80 470.80 1036.29 466.62 C 1034.14 462.82 1034.25 457.98 1031.23 454.67 C 1029.54 453.04 1030.68 450.49 1030.00 448.50 C 1028.86 446.20 1027.16 444.22 1026.17 441.85 C 1022.09 430.45 1015.82 420.01 1010.37 409.24 C 1009.30 410.02 1008.25 410.81 1007.20 411.60 C 1006.93 411.15 1006.37 410.25 1006.09 409.80 Z" />
</g>
<g id="#ffcb04ff">
<path fill="#ffcb04" opacity="1.00" d=" M 913.78 377.94 C 927.81 372.44 941.97 366.86 956.93 364.46 C 961.58 363.83 966.85 364.22 970.56 367.43 C 975.05 371.19 976.32 377.42 976.48 383.00 C 976.64 404.41 970.79 425.48 961.79 444.78 C 957.55 453.71 953.37 462.77 947.86 470.99 C 947.95 467.42 949.45 463.93 948.64 460.35 C 947.53 454.37 946.05 448.47 945.45 442.41 C 943.86 436.49 941.61 430.75 940.06 424.82 C 936.91 417.60 934.19 410.21 930.79 403.10 C 925.55 394.45 920.59 385.51 913.78 377.94 Z" />
</g>
<g id="#ffe103ff">
<path fill="#ffe103" opacity="1.00" d=" M 563.96 381.90 C 570.84 380.09 576.82 375.42 584.07 374.98 C 585.72 374.69 586.93 376.07 588.20 376.86 C 587.95 399.75 589.12 422.77 586.29 445.54 C 585.58 443.39 584.97 441.21 584.50 439.00 C 577.07 440.20 569.65 442.14 563.33 446.38 C 543.18 456.33 528.56 475.23 520.91 496.02 C 521.06 497.72 521.78 499.30 522.35 500.91 C 505.25 499.76 488.36 496.59 471.58 493.28 L 471.24 492.96 C 470.10 491.56 468.01 490.68 467.40 489.01 C 468.80 482.56 471.24 476.32 474.44 470.54 C 478.37 461.56 482.74 452.67 488.69 444.84 C 491.86 439.75 495.33 434.85 499.36 430.40 C 504.19 424.26 509.41 418.37 515.50 413.45 C 525.34 403.31 537.33 395.66 549.52 388.69 C 554.58 386.91 558.67 383.11 563.96 381.90 Z" />
</g>
<g id="#ffd603ff">
<path fill="#ffd603" opacity="1.00" d=" M 832.62 414.64 C 859.31 401.63 886.23 389.04 913.78 377.94 C 920.59 385.51 925.55 394.45 930.79 403.10 C 934.19 410.21 936.91 417.60 940.06 424.82 C 941.61 430.75 943.86 436.49 945.45 442.41 C 946.05 448.47 947.53 454.37 948.64 460.35 C 949.45 463.93 947.95 467.42 947.86 470.99 C 938.29 488.59 925.81 504.61 912.78 519.82 C 904.02 530.17 892.56 538.26 879.74 542.73 C 868.26 547.04 855.96 548.22 843.84 549.24 C 845.37 548.01 847.29 546.97 847.94 544.99 C 849.65 540.91 851.57 536.89 852.72 532.61 C 853.85 528.28 856.11 524.29 856.70 519.82 C 857.86 510.54 860.49 501.41 860.11 491.98 C 860.36 484.91 859.18 477.92 857.99 470.99 C 857.16 466.52 857.08 461.88 855.41 457.61 C 852.28 450.02 850.52 441.84 846.29 434.72 C 841.98 427.86 838.29 420.52 832.62 414.64 Z" />
<path fill="#ffd603" opacity="1.00" d=" M 358.13 651.45 C 377.85 640.55 398.00 630.36 418.12 620.20 C 420.14 624.11 422.34 627.93 424.11 631.97 C 428.50 641.63 434.85 650.23 441.63 658.32 C 445.63 663.14 450.91 666.59 455.28 671.02 C 440.17 688.49 424.75 705.70 408.99 722.60 L 408.87 722.62 C 406.98 722.87 405.36 723.88 403.79 724.88 C 397.97 720.19 393.07 714.50 387.83 709.20 C 381.25 701.07 374.28 693.13 369.22 683.92 C 363.56 674.86 358.30 665.51 354.50 655.50 C 355.70 654.14 356.90 652.77 358.13 651.45 Z" />
<path fill="#ffd603" opacity="1.00" d=" M 473.21 671.77 C 480.48 680.00 489.64 686.19 498.66 692.29 C 504.38 694.42 508.92 698.95 514.97 700.28 C 519.90 701.66 524.29 704.54 529.34 705.55 C 540.16 707.42 550.92 710.14 561.96 710.21 C 564.66 710.20 567.29 709.50 569.87 708.77 C 568.43 722.80 566.32 736.77 563.88 750.66 C 562.04 761.83 559.51 772.99 554.75 783.31 L 554.60 783.37 C 552.75 783.78 551.68 785.38 550.49 786.69 C 543.68 785.56 536.71 786.58 529.98 784.96 C 522.16 783.60 514.73 780.69 506.95 779.19 C 499.09 777.96 492.41 773.28 484.83 771.11 C 478.21 767.83 471.42 764.80 465.19 760.79 C 452.04 753.88 440.69 744.14 429.32 734.71 C 427.80 733.38 426.45 731.88 425.12 730.38 C 426.01 729.08 426.90 727.79 427.78 726.50 C 427.68 726.30 427.47 725.90 427.36 725.70 C 427.34 724.63 428.42 723.88 428.95 723.03 C 443.49 705.76 458.28 688.70 473.21 671.77 Z" />
</g>
<g id="#fff701ff">
<path fill="#fff701" opacity="1.00" d=" M 657.74 395.88 C 667.54 392.53 677.52 388.48 688.07 388.88 C 692.03 388.93 696.12 388.82 699.90 390.20 C 701.50 390.43 701.57 392.23 702.15 393.40 C 689.25 407.74 676.35 422.08 663.05 436.05 C 653.91 445.92 644.09 455.16 633.51 463.47 C 629.48 466.67 624.25 468.88 619.05 467.57 C 614.52 466.47 611.27 461.94 611.47 457.33 C 612.67 449.74 612.22 441.99 613.48 434.40 C 614.55 430.08 618.21 427.17 620.65 423.63 C 623.21 419.88 626.75 417.02 630.21 414.17 C 638.02 406.25 647.79 400.65 657.74 395.88 Z" />
</g>
<g id="#fff603ff">
<path fill="#fff603" opacity="1.00" d=" M 662.75 462.75 C 678.71 439.39 697.62 418.26 716.56 397.32 C 726.47 405.19 733.41 416.15 738.40 427.64 C 741.13 432.50 741.60 438.13 742.71 443.48 C 724.28 452.31 705.80 461.04 687.10 469.27 C 681.83 471.51 676.55 473.84 670.95 475.11 C 667.94 475.89 664.43 475.04 662.58 472.42 C 660.37 469.66 660.77 465.52 662.75 462.75 Z" />
</g>
<g id="#fc7d0cff">
<path fill="#fc7d0c" opacity="1.00" d=" M 1010.37 409.24 C 1015.82 420.01 1022.09 430.45 1026.17 441.85 C 1027.16 444.22 1028.86 446.20 1030.00 448.50 C 1030.68 450.49 1029.54 453.04 1031.23 454.67 C 1034.25 457.98 1034.14 462.82 1036.29 466.62 C 1038.80 470.80 1038.45 475.90 1040.75 480.16 C 1042.31 482.89 1042.44 486.03 1042.93 489.06 C 1044.34 492.54 1047.06 495.95 1045.83 499.92 C 1046.65 500.38 1047.50 500.84 1048.35 501.31 C 1046.57 505.59 1049.22 509.64 1050.18 513.74 C 1050.99 517.45 1053.86 520.91 1052.83 524.86 C 1052.29 527.37 1053.33 529.83 1053.54 532.32 C 1053.95 536.83 1056.49 540.77 1057.27 545.19 C 1057.10 547.81 1056.02 550.43 1056.81 553.06 C 1058.05 558.31 1058.59 563.69 1059.49 569.01 C 1059.34 572.80 1059.93 576.53 1060.98 580.17 C 1060.43 580.33 1059.34 580.64 1058.79 580.80 C 1062.40 589.13 1061.83 598.35 1063.32 607.16 C 1063.73 605.43 1064.14 603.71 1064.58 602.00 C 1064.83 603.76 1065.09 605.53 1065.32 607.32 C 1059.32 643.49 1049.58 678.98 1037.47 713.57 C 1023.64 752.16 1006.14 789.53 984.16 824.17 C 964.87 854.34 942.47 882.66 916.35 907.20 C 916.44 905.83 916.56 904.49 916.67 903.14 C 915.42 902.27 914.21 900.82 915.35 899.30 C 917.11 896.38 916.84 892.66 915.12 889.79 C 913.15 887.19 915.13 883.89 915.08 880.98 C 915.10 876.22 916.13 871.58 916.67 866.87 C 916.83 861.17 920.13 856.23 923.29 851.71 C 928.84 844.76 934.28 837.72 939.15 830.27 C 941.35 826.49 943.62 822.75 946.19 819.21 C 947.48 817.13 949.44 815.04 949.04 812.41 C 951.61 810.65 952.76 807.73 954.27 805.14 C 959.66 796.88 963.34 787.69 968.10 779.08 C 972.12 770.27 975.79 761.31 979.23 752.26 C 980.57 748.57 982.64 745.13 983.33 741.23 C 984.06 736.57 987.29 732.75 988.02 728.07 C 989.06 722.10 991.77 716.59 992.76 710.62 C 993.78 704.99 996.09 699.70 997.14 694.08 C 998.83 683.49 1000.80 672.95 1002.54 662.37 C 1002.93 654.55 1004.06 646.79 1004.77 638.99 C 1005.11 626.47 1007.21 613.94 1005.59 601.41 C 1004.85 596.70 1005.28 591.90 1004.71 587.18 C 1003.02 573.08 1002.59 558.83 999.09 545.00 C 997.36 539.24 997.82 533.04 995.55 527.42 C 993.26 521.57 992.99 515.18 990.66 509.36 C 988.90 504.90 988.53 500.01 986.42 495.68 C 983.58 490.24 983.15 483.82 979.56 478.73 C 978.67 478.04 977.43 478.25 976.42 478.00 C 988.02 456.07 998.18 433.33 1006.09 409.80 C 1006.37 410.25 1006.93 411.15 1007.20 411.60 C 1008.25 410.81 1009.30 410.02 1010.37 409.24 Z" />
</g>
<g id="#ffe202ff">
<path fill="#ffe202" opacity="1.00" d=" M 758.43 450.56 C 783.17 438.60 807.90 426.63 832.62 414.64 C 838.29 420.52 841.98 427.86 846.29 434.72 C 850.52 441.84 852.28 450.02 855.41 457.61 C 857.08 461.88 857.16 466.52 857.99 470.99 C 859.18 477.92 860.36 484.91 860.11 491.98 C 860.49 501.41 857.86 510.54 856.70 519.82 C 856.11 524.29 853.85 528.28 852.72 532.61 C 851.57 536.89 849.65 540.91 847.94 544.99 C 847.29 546.97 845.37 548.01 843.84 549.24 C 833.21 549.85 822.68 548.23 812.12 547.42 C 793.51 545.64 774.89 543.77 756.39 541.06 C 759.47 539.12 764.33 542.09 766.03 537.98 C 775.60 520.67 779.58 499.53 773.73 480.30 C 773.06 474.45 770.25 469.26 768.05 463.90 C 765.16 459.24 762.67 454.19 758.43 450.56 Z" />
</g>
<g id="#fff101ff">
<path fill="#fff101" opacity="1.00" d=" M 563.33 446.38 C 569.65 442.14 577.07 440.20 584.50 439.00 C 584.97 441.21 585.58 443.39 586.29 445.54 C 586.67 449.00 585.57 452.48 585.38 455.96 C 583.59 468.32 582.10 481.76 573.66 491.64 C 566.99 499.70 556.05 502.61 545.95 502.33 C 538.11 502.50 530.32 501.34 522.48 501.27 L 522.35 500.91 C 521.78 499.30 521.06 497.72 520.91 496.02 C 528.56 475.23 543.18 456.33 563.33 446.38 Z" />
</g>
<g id="#ff8904ff">
<path fill="#ff8904" opacity="1.00" d=" M 920.29 563.37 C 941.27 536.50 960.38 508.11 976.42 478.00 C 977.43 478.25 978.67 478.04 979.56 478.73 C 983.15 483.82 983.58 490.24 986.42 495.68 C 988.53 500.01 988.90 504.90 990.66 509.36 C 992.99 515.18 993.26 521.57 995.55 527.42 C 997.82 533.04 997.36 539.24 999.09 545.00 C 1002.59 558.83 1003.02 573.08 1004.71 587.18 C 1005.28 591.90 1004.85 596.70 1005.59 601.41 C 1007.21 613.94 1005.11 626.47 1004.77 638.99 C 1004.06 646.79 1002.93 654.55 1002.54 662.37 C 1000.80 672.95 998.83 683.49 997.14 694.08 C 996.09 699.70 993.78 704.99 992.76 710.62 C 991.77 716.59 989.06 722.10 988.02 728.07 C 987.29 732.75 984.06 736.57 983.33 741.23 C 982.64 745.13 980.57 748.57 979.23 752.26 C 975.79 761.31 972.12 770.27 968.10 779.08 C 963.34 787.69 959.66 796.88 954.27 805.14 C 952.76 807.73 951.61 810.65 949.04 812.41 C 949.44 815.04 947.48 817.13 946.19 819.21 C 943.62 822.75 941.35 826.49 939.15 830.27 C 934.28 837.72 928.84 844.76 923.29 851.71 C 922.80 849.77 922.49 847.81 922.41 845.82 C 921.68 845.46 920.97 845.11 920.27 844.77 C 921.79 838.85 917.52 833.97 916.59 828.36 C 913.29 821.04 910.55 813.45 906.46 806.51 C 901.16 796.24 894.22 786.94 887.12 777.86 C 876.52 766.17 865.95 754.16 852.85 745.18 C 845.24 738.09 835.51 734.00 827.24 727.83 C 822.23 725.71 817.65 722.79 812.84 720.32 C 808.02 718.76 803.82 715.81 799.07 714.12 C 792.99 712.60 787.62 709.22 781.66 707.38 C 778.68 709.51 775.95 712.27 772.18 712.87 C 790.42 697.61 808.64 682.29 825.96 665.98 C 859.93 634.22 891.50 599.89 920.29 563.37 Z" />
</g>
<g id="#fff800ff">
<path fill="#fff800" opacity="1.00" d=" M 666.07 502.15 C 672.45 496.84 679.96 493.17 686.90 488.67 C 689.32 493.26 692.02 497.88 692.95 503.05 C 694.24 512.19 689.75 520.88 684.80 528.25 C 679.21 526.77 673.42 526.06 667.90 524.30 C 663.83 523.05 660.35 519.45 660.32 515.02 C 659.63 510.02 662.31 505.25 666.07 502.15 Z" />
</g>
<g id="#ffcf03ff">
<path fill="#ffcf03" opacity="1.00" d=" M 339.25 517.99 C 352.60 509.20 368.52 504.32 384.52 504.46 C 382.88 505.25 381.27 506.10 379.66 506.96 C 377.75 513.46 376.50 520.17 376.99 526.98 C 376.22 534.49 375.23 542.07 376.46 549.60 C 377.55 556.23 376.15 563.11 378.36 569.59 C 380.76 577.33 381.69 585.50 384.94 592.96 C 385.96 595.94 386.69 599.03 388.09 601.87 C 390.20 606.10 391.40 610.82 394.40 614.57 C 396.10 614.64 397.81 614.75 399.53 614.75 C 389.15 620.12 378.58 625.09 368.07 630.20 L 367.93 630.16 C 365.99 629.32 364.00 629.94 362.11 630.52 C 359.10 627.24 358.06 622.84 356.05 618.99 C 354.10 615.35 353.33 611.22 351.45 607.55 C 349.05 603.09 348.79 597.90 346.83 593.28 C 345.48 589.97 344.28 586.56 343.99 582.98 C 343.08 573.91 339.84 565.16 339.92 555.99 C 340.05 546.33 339.82 536.67 340.05 527.02 C 340.13 524.05 339.82 521.10 339.28 518.19 L 339.25 517.99 Z" />
<path fill="#ffcf03" opacity="1.00" d=" M 746.34 565.96 L 746.94 565.65 C 756.41 566.85 765.66 569.64 774.96 571.79 C 783.36 573.83 791.65 576.23 799.84 579.00 L 800.00 579.21 C 801.35 581.84 804.28 582.58 806.81 583.59 C 806.23 589.02 805.86 594.61 803.70 599.70 C 801.41 605.04 800.86 610.95 798.12 616.12 C 791.90 633.91 783.04 650.78 772.06 666.09 C 767.01 674.78 759.49 681.58 753.64 689.66 C 751.54 692.55 748.27 694.24 745.91 696.87 C 740.12 703.08 733.35 708.21 726.83 713.59 C 726.75 714.09 726.58 715.08 726.49 715.58 C 704.35 731.79 680.62 745.87 655.96 757.90 C 646.12 762.57 636.01 767.70 624.93 768.20 C 618.12 768.46 611.59 764.60 608.44 758.60 C 602.78 747.97 601.88 735.67 600.74 723.90 C 599.91 707.75 599.36 691.57 599.78 675.40 C 601.79 679.14 600.20 683.55 601.65 687.40 C 603.25 688.33 605.19 688.27 606.99 688.12 C 614.62 687.02 622.35 686.81 630.01 685.91 C 638.00 685.44 645.19 681.58 652.92 679.94 C 658.38 678.68 662.81 674.95 668.14 673.33 C 671.31 672.43 673.86 670.31 676.55 668.51 C 686.12 663.61 694.32 656.45 702.21 649.22 C 707.45 643.44 713.33 638.22 717.80 631.77 C 724.80 623.04 730.31 613.26 735.28 603.27 C 737.50 597.13 740.95 591.47 741.94 584.93 C 744.49 578.88 745.57 572.44 746.34 565.96 Z" />
</g>
<g id="#ffd803ff">
<path fill="#ffd803" opacity="1.00" d=" M 384.52 504.46 C 396.91 504.16 409.20 506.42 421.49 507.75 C 419.76 508.30 418.06 508.95 416.36 509.58 C 413.52 516.01 414.09 523.18 413.12 530.00 C 411.81 541.62 413.35 553.25 414.26 564.83 C 414.77 568.00 416.08 570.96 417.04 574.01 C 418.49 578.25 418.93 582.85 421.20 586.79 C 423.30 590.56 424.28 594.82 426.28 598.65 C 428.25 598.66 430.23 598.69 432.22 598.62 C 421.36 604.07 410.49 609.53 399.53 614.75 C 397.81 614.75 396.10 614.64 394.40 614.57 C 391.40 610.82 390.20 606.10 388.09 601.87 C 386.69 599.03 385.96 595.94 384.94 592.96 C 381.69 585.50 380.76 577.33 378.36 569.59 C 376.15 563.11 377.55 556.23 376.46 549.60 C 375.23 542.07 376.22 534.49 376.99 526.98 C 376.50 520.17 377.75 513.46 379.66 506.96 C 381.27 506.10 382.88 505.25 384.52 504.46 Z" />
</g>
<g id="#ffe002ff">
<path fill="#ffe002" opacity="1.00" d=" M 421.49 507.75 C 432.15 508.71 442.78 510.38 453.40 511.82 C 451.48 512.62 449.28 513.26 447.92 514.93 C 446.86 517.40 447.13 520.19 446.70 522.81 C 443.11 539.86 445.10 557.80 450.74 574.17 C 451.86 578.68 454.71 582.43 457.18 586.28 C 448.86 590.40 440.60 594.64 432.22 598.62 C 430.23 598.69 428.25 598.66 426.28 598.65 C 424.28 594.82 423.30 590.56 421.20 586.79 C 418.93 582.85 418.49 578.25 417.04 574.01 C 416.08 570.96 414.77 568.00 414.26 564.83 C 413.35 553.25 411.81 541.62 413.12 530.00 C 414.09 523.18 413.52 516.01 416.36 509.58 C 418.06 508.95 419.76 508.30 421.49 507.75 Z" />
</g>
<g id="#ffea02ff">
<path fill="#ffea02" opacity="1.00" d=" M 453.40 511.82 C 470.89 514.32 488.26 517.61 505.45 521.71 C 503.30 522.72 500.16 522.90 499.34 525.54 C 496.77 531.70 498.34 538.53 497.88 545.00 C 497.43 550.91 499.85 556.57 502.97 561.45 C 488.11 570.45 472.72 578.53 457.18 586.28 C 454.71 582.43 451.86 578.68 450.74 574.17 C 445.10 557.80 443.11 539.86 446.70 522.81 C 447.13 520.19 446.86 517.40 447.92 514.93 C 449.28 513.26 451.48 512.62 453.40 511.82 Z" />
</g>
<g id="#ffc404ff">
<path fill="#ffc404" opacity="1.00" d=" M 319.62 535.65 C 325.42 529.07 331.78 522.83 339.28 518.19 C 339.82 521.10 340.13 524.05 340.05 527.02 C 339.82 536.67 340.05 546.33 339.92 555.99 C 339.84 565.16 343.08 573.91 343.99 582.98 C 344.28 586.56 345.48 589.97 346.83 593.28 C 348.79 597.90 349.05 603.09 351.45 607.55 C 353.33 611.22 354.10 615.35 356.05 618.99 C 358.06 622.84 359.10 627.24 362.11 630.52 C 364.00 629.94 365.99 629.32 367.93 630.16 C 349.96 638.98 331.70 647.20 313.32 655.14 C 311.74 653.95 309.83 653.04 308.73 651.35 C 301.51 636.10 295.45 620.29 291.09 603.98 C 288.01 596.08 287.83 587.52 285.98 579.33 C 296.37 564.16 307.78 549.71 319.62 535.65 Z" />
<path fill="#ffc404" opacity="1.00" d=" M 306.39 679.00 C 323.70 669.94 340.70 660.28 358.13 651.45 C 356.90 652.77 355.70 654.14 354.50 655.50 C 358.30 665.51 363.56 674.86 369.22 683.92 C 374.28 693.13 381.25 701.07 387.83 709.20 C 393.07 714.50 397.97 720.19 403.79 724.88 C 405.36 723.88 406.98 722.87 408.87 722.62 C 394.55 738.57 379.45 753.79 364.44 769.08 C 359.34 766.45 356.48 761.29 351.88 758.06 C 336.00 740.47 321.60 721.29 310.86 700.09 C 307.50 694.85 305.97 688.68 302.28 683.63 C 303.60 682.83 304.92 682.03 306.25 681.24 C 306.28 680.72 306.35 679.67 306.38 679.15 L 306.39 679.00 Z" />
</g>
<g id="#fff401ff">
<path fill="#fff401" opacity="1.00" d=" M 505.45 521.71 C 510.70 522.70 515.52 525.13 520.73 526.27 C 523.91 527.09 527.42 528.65 528.57 532.01 C 530.92 537.89 527.71 544.35 523.08 548.10 C 516.89 553.25 509.79 557.19 502.97 561.45 C 499.85 556.57 497.43 550.91 497.88 545.00 C 498.34 538.53 496.77 531.70 499.34 525.54 C 500.16 522.90 503.30 522.72 505.45 521.71 Z" />
</g>
<g id="#fff001ff">
<path fill="#fff001" opacity="1.00" d=" M 625.81 552.59 C 635.24 548.04 645.94 549.34 656.03 549.74 C 661.94 550.25 667.86 550.61 673.74 551.41 C 674.86 552.38 676.97 553.20 676.87 554.97 C 674.73 567.42 668.39 578.76 660.51 588.49 C 657.71 592.70 653.34 595.36 649.72 598.76 C 645.32 601.75 641.24 605.48 636.06 607.08 C 630.17 609.33 624.40 612.24 618.05 612.91 C 614.35 613.18 610.64 613.12 606.95 612.94 C 604.70 613.19 603.53 610.98 602.07 609.70 C 603.03 599.46 604.56 589.26 606.44 579.15 C 608.75 568.14 615.18 557.28 625.81 552.59 Z" />
</g>
<g id="#fffa00ff">
<path fill="#fffa00" opacity="1.00" d=" M 489.36 586.31 C 498.50 582.29 507.56 577.96 517.05 574.83 C 522.47 573.03 527.67 578.83 526.90 584.06 C 526.42 588.29 523.05 591.34 520.47 594.45 C 516.37 599.13 512.53 604.03 508.44 608.70 C 505.27 610.30 502.12 608.16 499.87 606.03 C 496.00 602.16 492.37 597.94 490.03 592.94 C 488.82 590.93 489.33 588.52 489.36 586.31 Z" />
</g>
<g id="#ffba05ff">
<path fill="#ffba05" opacity="1.00" d=" M 252.84 646.05 C 259.34 621.86 272.01 599.92 285.98 579.33 C 287.83 587.52 288.01 596.08 291.09 603.98 C 295.45 620.29 301.51 636.10 308.73 651.35 C 309.83 653.04 311.74 653.95 313.32 655.14 C 301.69 660.08 289.97 664.83 278.12 669.23 C 271.71 671.53 264.83 673.45 257.99 672.32 C 254.41 671.68 251.07 669.13 250.41 665.41 C 249.34 658.87 251.26 652.35 252.84 646.05 Z" />
<path fill="#ffba05" opacity="1.00" d=" M 257.55 710.54 C 272.77 698.55 289.20 688.09 306.38 679.15 C 306.35 679.67 306.28 680.72 306.25 681.24 C 304.92 682.03 303.60 682.83 302.28 683.63 C 305.97 688.68 307.50 694.85 310.86 700.09 C 321.60 721.29 336.00 740.47 351.88 758.06 C 356.48 761.29 359.34 766.45 364.44 769.08 C 351.26 782.02 338.18 795.08 324.43 807.42 C 313.65 816.01 302.25 825.68 287.92 826.93 C 275.62 828.11 264.35 821.32 255.28 813.70 C 242.09 802.87 234.51 786.01 234.13 769.05 C 234.35 761.66 232.90 754.24 234.36 746.91 C 236.48 732.14 245.89 719.41 257.55 710.54 Z" />
<path fill="#ffba05" opacity="1.00" d=" M 349.80 826.75 C 356.79 811.18 367.18 797.49 377.96 784.38 C 383.05 788.80 387.96 793.41 392.95 797.93 C 398.38 801.84 403.43 806.25 408.82 810.22 C 411.39 811.94 414.07 813.53 416.45 815.55 C 419.60 818.23 423.49 819.79 426.85 822.16 C 430.43 824.75 434.77 826.03 438.24 828.79 C 441.95 831.86 446.91 832.51 450.95 835.00 C 455.29 837.64 460.07 839.43 464.88 841.03 C 468.51 842.56 472.18 838.77 475.79 840.93 C 455.53 848.18 434.49 853.30 413.17 856.17 C 394.25 859.09 374.70 857.60 356.52 851.62 C 352.38 850.11 348.18 847.43 346.81 843.01 C 345.31 837.43 347.67 831.82 349.80 826.75 Z" />
</g>
<g id="#ffc504ff">
<path fill="#ffc504" opacity="1.00" d=" M 800.00 579.21 C 807.41 581.50 814.73 584.43 821.22 588.75 C 825.73 591.85 830.29 595.66 831.88 601.12 C 833.41 606.50 831.10 611.97 828.73 616.73 C 821.74 629.78 811.48 640.66 801.02 650.99 C 777.93 674.42 753.36 696.53 726.49 715.58 C 726.58 715.08 726.75 714.09 726.83 713.59 C 733.35 708.21 740.12 703.08 745.91 696.87 C 748.27 694.24 751.54 692.55 753.64 689.66 C 759.49 681.58 767.01 674.78 772.06 666.09 C 783.04 650.78 791.90 633.91 798.12 616.12 C 800.86 610.95 801.41 605.04 803.70 599.70 C 805.86 594.61 806.23 589.02 806.81 583.59 C 804.28 582.58 801.35 581.84 800.00 579.21 Z" />
</g>
<g id="#fff601ff">
<path fill="#fff601" opacity="1.00" d=" M 556.24 587.20 C 559.83 585.38 563.81 583.38 567.96 584.27 C 570.95 584.93 572.66 587.86 573.66 590.53 C 575.65 596.11 576.51 602.08 576.31 608.01 C 576.20 614.39 576.61 620.79 576.04 627.16 C 575.73 626.82 575.12 626.15 574.81 625.82 C 566.17 629.29 556.71 627.95 547.87 626.16 C 540.24 622.97 532.60 619.17 527.02 612.88 C 535.95 603.50 544.68 593.44 556.24 587.20 Z" />
</g>
<g id="#ffe502ff">
<path fill="#ffe502" opacity="1.00" d=" M 418.12 620.20 C 429.02 614.53 440.17 609.38 451.17 603.92 C 453.94 609.67 455.95 615.89 459.90 620.99 C 462.94 625.56 465.71 630.45 469.91 634.10 C 473.39 636.90 476.26 641.56 481.38 640.78 C 472.79 650.96 464.05 661.00 455.28 671.02 C 450.91 666.59 445.63 663.14 441.63 658.32 C 434.85 650.23 428.50 641.63 424.11 631.97 C 422.34 627.93 420.14 624.11 418.12 620.20 Z" />
</g>
<g id="#ffee01ff">
<path fill="#ffee01" opacity="1.00" d=" M 503.86 637.84 C 511.39 629.35 519.25 621.15 527.02 612.88 C 532.60 619.17 540.24 622.97 547.87 626.16 C 556.71 627.95 566.17 629.29 574.81 625.82 C 575.12 626.15 575.73 626.82 576.04 627.16 C 575.45 640.09 574.82 653.03 573.75 665.92 C 566.50 666.09 559.26 665.84 552.02 666.05 C 543.53 666.66 536.15 661.80 528.22 659.67 C 519.62 655.38 511.27 650.33 504.19 643.77 C 502.50 642.18 503.53 639.76 503.86 637.84 Z" />
</g>
<g id="#ffe402ff">
<path fill="#ffe402" opacity="1.00" d=" M 473.21 671.77 C 483.36 660.41 493.40 648.94 503.86 637.84 C 503.53 639.76 502.50 642.18 504.19 643.77 C 511.27 650.33 519.62 655.38 528.22 659.67 C 536.15 661.80 543.53 666.66 552.02 666.05 C 559.26 665.84 566.50 666.09 573.75 665.92 C 573.00 680.22 571.44 694.46 570.06 708.71 L 569.87 708.77 C 567.29 709.50 564.66 710.20 561.96 710.21 C 550.92 710.14 540.16 707.42 529.34 705.55 C 524.29 704.54 519.90 701.66 514.97 700.28 C 508.92 698.95 504.38 694.42 498.66 692.29 C 489.64 686.19 480.48 680.00 473.21 671.77 Z" />
</g>
<g id="#ff8f15ff">
<path fill="#ff8f15" opacity="1.00" d=" M 772.18 712.87 C 775.95 712.27 778.68 709.51 781.66 707.38 C 787.62 709.22 792.99 712.60 799.07 714.12 C 803.82 715.81 808.02 718.76 812.84 720.32 C 817.65 722.79 822.23 725.71 827.24 727.83 C 835.51 734.00 845.24 738.09 852.85 745.18 C 865.95 754.16 876.52 766.17 887.12 777.86 C 894.22 786.94 901.16 796.24 906.46 806.51 C 910.55 813.45 913.29 821.04 916.59 828.36 C 917.52 833.97 921.79 838.85 920.27 844.77 C 920.97 845.11 921.68 845.46 922.41 845.82 C 922.49 847.81 922.80 849.77 923.29 851.71 C 920.13 856.23 916.83 861.17 916.67 866.87 C 916.13 871.58 915.10 876.22 915.08 880.98 C 915.13 883.89 913.15 887.19 915.12 889.79 C 916.84 892.66 917.11 896.38 915.35 899.30 C 914.21 900.82 915.42 902.27 916.67 903.14 C 916.56 904.49 916.44 905.83 916.35 907.20 C 911.05 912.36 905.73 917.51 900.05 922.26 C 898.11 919.38 898.61 915.98 900.21 913.09 C 902.24 909.32 902.02 904.96 903.00 900.90 C 904.27 895.73 903.31 890.37 902.13 885.28 C 901.64 883.75 902.43 882.28 902.89 880.87 C 904.11 877.83 903.99 874.30 902.71 871.31 C 901.38 870.79 900.04 871.68 898.75 871.86 C 898.84 870.24 899.06 868.64 899.36 867.07 C 898.14 864.69 898.70 862.12 899.09 859.64 C 898.75 854.58 898.40 849.42 896.49 844.67 C 894.52 839.59 894.36 834.00 891.94 829.08 C 890.07 825.16 889.39 820.75 887.13 817.02 C 884.73 813.20 883.59 808.78 881.17 804.98 C 879.55 801.04 876.47 797.99 874.64 794.18 C 872.00 789.08 867.99 784.91 864.73 780.23 C 860.30 773.80 853.91 769.10 848.96 763.12 C 843.01 756.97 835.87 752.18 829.40 746.64 C 826.10 744.68 822.94 742.51 819.92 740.15 C 810.26 734.22 800.38 728.59 790.01 724.00 C 782.93 720.58 775.65 716.87 767.71 716.20 C 769.18 715.06 770.53 713.74 772.18 712.87 Z" />
</g>
<g id="#ff9921ff">
<path fill="#ff9921" opacity="1.00" d=" M 767.71 716.20 C 775.65 716.87 782.93 720.58 790.01 724.00 C 800.38 728.59 810.26 734.22 819.92 740.15 C 822.94 742.51 826.10 744.68 829.40 746.64 C 835.87 752.18 843.01 756.97 848.96 763.12 C 853.91 769.10 860.30 773.80 864.73 780.23 C 867.99 784.91 872.00 789.08 874.64 794.18 C 876.47 797.99 879.55 801.04 881.17 804.98 C 883.59 808.78 884.73 813.20 887.13 817.02 C 889.39 820.75 890.07 825.16 891.94 829.08 C 894.36 834.00 894.52 839.59 896.49 844.67 C 898.40 849.42 898.75 854.58 899.09 859.64 C 898.70 862.12 898.14 864.69 899.36 867.07 C 899.06 868.64 898.84 870.24 898.75 871.86 C 896.30 874.78 895.01 878.64 892.04 881.10 C 891.08 883.82 889.35 886.38 889.49 889.38 C 889.77 893.87 885.41 896.44 883.73 900.19 C 881.75 901.21 880.01 902.61 878.36 904.08 C 878.14 904.90 877.93 905.73 877.73 906.58 C 877.27 906.23 876.82 905.89 876.38 905.56 C 874.09 907.47 871.71 909.30 869.09 910.72 C 870.49 905.09 872.93 899.80 874.26 894.15 C 875.57 889.85 875.83 885.34 876.88 880.98 C 877.93 859.62 873.60 838.17 865.57 818.41 C 861.62 809.93 857.87 801.25 852.36 793.64 C 832.70 763.46 802.46 741.40 769.66 727.31 C 766.56 725.74 762.18 725.38 760.78 721.72 C 763.11 719.90 765.43 718.08 767.71 716.20 Z" />
</g>
<g id="#ffac12ff">
<path fill="#ffac12" opacity="1.00" d=" M 753.14 727.71 C 755.66 725.68 758.24 723.73 760.78 721.72 C 762.18 725.38 766.56 725.74 769.66 727.31 C 802.46 741.40 832.70 763.46 852.36 793.64 C 857.87 801.25 861.62 809.93 865.57 818.41 C 873.60 838.17 877.93 859.62 876.88 880.98 C 875.83 885.34 875.57 889.85 874.26 894.15 C 872.93 899.80 870.49 905.09 869.09 910.72 C 867.67 914.05 865.64 917.14 862.66 919.27 C 862.68 917.82 862.70 916.38 862.75 914.96 C 856.78 921.94 853.42 930.63 847.50 937.62 C 846.86 937.24 845.59 936.47 844.96 936.09 C 846.00 933.57 848.40 931.38 847.99 928.46 C 847.94 926.93 848.35 925.44 848.70 923.99 C 848.21 923.68 847.73 923.40 847.26 923.12 C 848.43 920.69 848.96 918.04 848.84 915.35 C 852.50 906.92 857.88 898.50 857.05 888.94 C 857.00 881.92 858.87 874.96 857.94 867.93 C 856.76 860.25 857.36 852.38 855.31 844.83 C 853.28 837.21 852.17 829.29 848.86 822.08 C 847.04 816.81 845.01 811.59 842.24 806.74 C 838.41 800.29 835.17 793.46 830.47 787.57 C 826.77 782.61 822.47 778.13 818.63 773.29 C 814.84 768.42 809.50 765.18 805.18 760.84 C 789.77 748.08 772.21 738.03 753.75 730.37 C 753.54 729.47 753.33 728.59 753.14 727.71 Z" />
</g>
<g id="#ffc604ff">
<path fill="#ffc604" opacity="1.00" d=" M 427.13 725.26 L 427.36 725.70 C 427.47 725.90 427.68 726.30 427.78 726.50 C 426.90 727.79 426.01 729.08 425.12 730.38 C 426.45 731.88 427.80 733.38 429.32 734.71 C 440.69 744.14 452.04 753.88 465.19 760.79 C 471.42 764.80 478.21 767.83 484.83 771.11 C 492.41 773.28 499.09 777.96 506.95 779.19 C 514.73 780.69 522.16 783.60 529.98 784.96 C 536.71 786.58 543.68 785.56 550.49 786.69 C 551.68 785.38 552.75 783.78 554.60 783.37 C 548.24 798.21 537.20 810.88 523.82 819.83 C 516.17 825.01 507.73 828.88 499.15 832.24 C 491.43 835.30 483.72 838.46 475.79 840.93 C 472.18 838.77 468.51 842.56 464.88 841.03 C 460.07 839.43 455.29 837.64 450.95 835.00 C 446.91 832.51 441.95 831.86 438.24 828.79 C 434.77 826.03 430.43 824.75 426.85 822.16 C 423.49 819.79 419.60 818.23 416.45 815.55 C 414.07 813.53 411.39 811.94 408.82 810.22 C 403.43 806.25 398.38 801.84 392.95 797.93 C 387.96 793.41 383.05 788.80 377.96 784.38 C 394.23 764.57 410.45 744.72 427.13 725.26 Z" />
</g>
<g id="#ffc003ff">
<path fill="#ffc003" opacity="1.00" d=" M 704.56 763.30 C 720.97 751.73 737.25 739.98 753.14 727.71 C 753.33 728.59 753.54 729.47 753.75 730.37 C 772.21 738.03 789.77 748.08 805.18 760.84 C 809.50 765.18 814.84 768.42 818.63 773.29 C 822.47 778.13 826.77 782.61 830.47 787.57 C 835.17 793.46 838.41 800.29 842.24 806.74 C 845.01 811.59 847.04 816.81 848.86 822.08 C 852.17 829.29 853.28 837.21 855.31 844.83 C 857.36 852.38 856.76 860.25 857.94 867.93 C 858.87 874.96 857.00 881.92 857.05 888.94 C 857.88 898.50 852.50 906.92 848.84 915.35 C 843.61 922.13 841.08 930.78 835.01 936.97 C 827.57 942.73 819.52 947.65 811.38 952.33 C 808.71 954.14 806.27 956.35 803.24 957.56 C 798.62 959.39 794.97 963.02 790.26 964.70 C 786.15 966.15 782.99 969.44 778.80 970.71 C 775.89 971.62 773.18 972.99 770.61 974.61 C 766.49 977.19 761.51 977.81 757.34 980.29 C 752.44 983.29 746.57 983.88 741.51 986.52 C 738.09 988.26 734.55 989.80 730.77 990.56 C 723.50 992.08 716.84 995.66 709.61 997.30 C 701.72 998.25 694.38 1001.52 686.69 1003.29 C 677.33 1003.95 668.26 1006.46 659.01 1007.89 C 654.93 1008.59 650.75 1009.11 646.97 1010.93 C 643.82 1012.44 640.26 1011.76 636.91 1012.02 C 633.93 1012.14 631.24 1013.61 628.35 1014.17 C 624.78 1014.56 621.03 1013.15 617.59 1014.64 C 615.25 1015.45 613.01 1017.16 610.40 1016.54 C 604.63 1015.60 598.54 1015.19 593.13 1017.82 C 588.36 1015.61 583.03 1016.86 577.99 1016.91 C 572.66 1017.29 567.39 1016.30 562.07 1016.24 C 558.98 1016.30 556.07 1015.10 553.05 1014.71 C 543.51 1013.58 534.07 1011.74 524.58 1010.36 C 513.82 1007.71 503.11 1004.89 492.34 1002.32 C 488.44 1000.80 484.50 999.36 480.39 998.55 C 474.79 997.44 470.07 994.01 464.64 992.46 C 457.14 990.41 450.47 986.27 443.17 983.67 C 437.91 980.44 432.04 978.50 426.57 975.72 C 423.17 973.18 418.97 971.99 415.67 969.32 C 412.40 966.68 408.30 965.44 404.84 963.10 C 395.49 956.93 385.74 951.18 377.29 943.81 C 374.74 938.73 368.97 936.80 365.76 932.29 C 358.97 922.60 348.68 916.33 340.71 907.76 C 340.18 907.94 339.66 908.14 339.15 908.34 C 338.75 905.53 337.02 903.27 335.20 901.20 C 339.83 901.06 344.50 901.24 349.09 900.47 C 344.67 899.87 340.08 900.70 335.82 899.17 C 346.21 899.20 356.62 899.59 366.99 898.67 C 373.95 898.66 380.83 897.41 387.78 897.26 C 388.02 897.63 388.49 898.37 388.73 898.73 C 384.63 899.32 380.42 899.34 376.44 900.59 C 374.26 903.96 373.19 908.01 373.05 912.01 C 374.13 912.53 375.22 913.06 376.32 913.60 C 376.67 915.04 377.04 916.49 377.42 917.95 C 380.67 919.84 382.79 923.08 385.84 925.21 C 391.01 928.23 395.83 931.81 400.48 935.58 C 403.68 938.15 407.59 939.66 410.71 942.37 C 413.88 945.07 418.19 945.87 421.31 948.68 C 428.45 953.00 435.69 957.25 443.40 960.52 C 453.46 965.96 464.02 970.32 474.71 974.35 C 478.58 975.74 482.27 977.73 486.37 978.42 C 489.81 978.89 492.69 980.96 495.96 981.99 C 507.98 985.54 520.24 988.08 532.35 991.28 C 541.72 991.64 550.69 994.87 560.05 995.33 C 565.74 995.48 571.30 996.94 576.99 997.02 C 581.98 997.09 586.92 998.61 591.92 997.80 C 597.26 996.97 602.61 998.76 607.96 997.76 C 612.63 996.97 617.30 998.58 621.97 997.81 C 626.07 997.20 630.38 997.13 634.10 995.09 C 636.76 993.65 639.88 994.54 642.71 993.77 C 646.71 992.70 651.21 992.38 654.42 989.48 C 658.41 985.95 663.36 983.82 667.50 980.50 C 697.16 960.41 722.91 934.04 740.61 902.76 C 744.02 896.88 746.13 890.44 749.31 884.46 C 750.52 878.43 753.69 873.00 754.79 866.97 C 755.80 856.68 758.71 846.36 757.11 835.98 C 756.62 829.53 755.26 823.19 754.14 816.84 C 751.11 807.89 746.97 799.27 741.63 791.47 C 738.07 786.09 733.10 781.92 728.76 777.22 C 724.74 772.81 719.65 769.63 714.87 766.15 C 711.91 763.92 708.25 762.80 704.56 763.30 Z" />
</g>
<g id="#ffc503ff">
<path fill="#ffc503" opacity="1.00" d=" M 648.10 799.86 C 667.32 788.31 686.06 775.96 704.56 763.30 C 708.25 762.80 711.91 763.92 714.87 766.15 C 719.65 769.63 724.74 772.81 728.76 777.22 C 733.10 781.92 738.07 786.09 741.63 791.47 C 746.97 799.27 751.11 807.89 754.14 816.84 C 755.26 823.19 756.62 829.53 757.11 835.98 C 758.71 846.36 755.80 856.68 754.79 866.97 C 753.69 873.00 750.52 878.43 749.31 884.46 C 746.13 890.44 744.02 896.88 740.61 902.76 C 722.91 934.04 697.16 960.41 667.50 980.50 C 663.36 983.82 658.41 985.95 654.42 989.48 C 651.21 992.38 646.71 992.70 642.71 993.77 C 639.88 994.54 636.76 993.65 634.10 995.09 C 630.38 997.13 626.07 997.20 621.97 997.81 C 617.30 998.58 612.63 996.97 607.96 997.76 C 602.61 998.76 597.26 996.97 591.92 997.80 C 586.92 998.61 581.98 997.09 576.99 997.02 C 571.30 996.94 565.74 995.48 560.05 995.33 C 550.69 994.87 541.72 991.64 532.35 991.28 C 520.24 988.08 507.98 985.54 495.96 981.99 C 492.69 980.96 489.81 978.89 486.37 978.42 C 482.27 977.73 478.58 975.74 474.71 974.35 C 464.02 970.32 453.46 965.96 443.40 960.52 C 435.69 957.25 428.45 953.00 421.31 948.68 C 418.19 945.87 413.88 945.07 410.71 942.37 C 407.59 939.66 403.68 938.15 400.48 935.58 C 395.83 931.81 391.01 928.23 385.84 925.21 C 382.79 923.08 380.67 919.84 377.42 917.95 C 377.04 916.49 376.67 915.04 376.32 913.60 C 375.22 913.06 374.13 912.53 373.05 912.01 C 373.19 908.01 374.26 903.96 376.44 900.59 C 380.42 899.34 384.63 899.32 388.73 898.73 C 388.49 898.37 388.02 897.63 387.78 897.26 L 387.54 896.89 C 407.96 894.95 428.07 890.53 447.90 885.39 C 478.50 877.51 508.48 867.35 537.76 855.51 C 545.88 865.08 558.90 868.43 571.00 868.52 C 581.95 868.38 592.83 866.07 603.04 862.13 C 618.19 856.91 631.51 846.86 641.21 834.17 C 648.40 824.60 652.52 811.43 648.10 799.86 Z" />
</g>
<g id="#ffdf3dff">
<path fill="#ffdf3d" opacity="1.00" d=" M 646.14 801.00 C 646.63 800.71 647.61 800.14 648.10 799.86 C 652.52 811.43 648.40 824.60 641.21 834.17 C 631.51 846.86 618.19 856.91 603.04 862.13 C 592.83 866.07 581.95 868.38 571.00 868.52 C 558.90 868.43 545.88 865.08 537.76 855.51 C 539.25 854.83 540.73 854.14 542.22 853.46 C 549.80 859.50 559.19 863.85 569.05 863.57 C 575.31 863.49 581.67 863.96 587.83 862.54 C 604.09 859.05 619.81 851.58 631.64 839.73 C 641.86 829.94 649.84 815.49 646.14 801.00 Z" />
</g>
<g id="#ffff87ff">
<path fill="#ffff87" opacity="1.00" d=" M 542.22 853.46 C 578.20 838.82 612.75 820.81 646.14 801.00 C 649.84 815.49 641.86 829.94 631.64 839.73 C 619.81 851.58 604.09 859.05 587.83 862.54 C 581.67 863.96 575.31 863.49 569.05 863.57 C 559.19 863.85 549.80 859.50 542.22 853.46 Z" />
</g>
<g id="#f9821cff">
<path fill="#f9821c" opacity="1.00" d=" M 225.99 859.81 C 228.34 861.14 230.53 862.73 232.58 864.49 C 247.43 876.70 264.94 885.35 283.20 891.15 C 277.50 890.37 272.34 887.37 266.53 887.15 C 265.83 891.19 266.01 895.48 264.31 899.29 C 264.16 899.64 263.87 900.34 263.73 900.69 C 250.55 887.63 237.89 874.03 225.99 859.81 Z" />
</g>
<g id="#fc8c21ff">
<path fill="#fc8c21" opacity="1.00" d=" M 898.75 871.86 C 900.04 871.68 901.38 870.79 902.71 871.31 C 903.99 874.30 904.11 877.83 902.89 880.87 C 902.43 882.28 901.64 883.75 902.13 885.28 C 903.31 890.37 904.27 895.73 903.00 900.90 C 902.02 904.96 902.24 909.32 900.21 913.09 C 898.61 915.98 898.11 919.38 900.05 922.26 C 888.63 932.25 876.78 941.79 864.24 950.33 C 864.13 946.75 865.40 943.31 867.43 940.42 C 869.73 937.22 870.89 933.40 873.05 930.13 C 875.66 926.69 875.26 922.07 877.52 918.46 C 880.92 912.86 881.50 906.24 883.73 900.19 C 885.41 896.44 889.77 893.87 889.49 889.38 C 889.35 886.38 891.08 883.82 892.04 881.10 C 895.01 878.64 896.30 874.78 898.75 871.86 Z" />
</g>
<g id="#fa9e0eff">
<path fill="#fa9e0e" opacity="1.00" d=" M 266.53 887.15 C 272.34 887.37 277.50 890.37 283.20 891.15 C 287.50 891.95 291.64 893.43 295.94 894.23 C 295.55 894.62 294.76 895.40 294.37 895.78 C 300.21 902.56 305.72 909.62 312.19 915.81 C 317.96 923.31 325.31 929.28 331.87 936.03 C 337.60 940.60 342.49 946.14 348.44 950.47 C 352.07 952.86 354.01 956.98 357.78 959.20 C 360.47 963.93 365.88 965.73 369.44 969.64 C 372.77 973.05 377.29 974.97 380.52 978.51 C 386.23 984.43 394.87 986.35 400.42 992.49 C 401.56 993.96 403.29 994.58 405.05 994.94 C 405.32 995.44 405.58 995.96 405.86 996.50 C 409.84 995.59 412.96 998.51 415.95 1000.63 C 414.08 1001.21 412.19 1001.74 410.29 1002.24 C 367.18 982.82 327.62 956.01 291.93 925.11 C 289.29 923.14 287.20 919.71 283.62 919.60 L 283.47 919.58 L 283.44 919.43 C 283.46 917.30 281.69 916.00 280.33 914.67 C 274.79 909.75 269.48 904.58 264.31 899.29 C 266.01 895.48 265.83 891.19 266.53 887.15 Z" />
</g>
<g id="#fcad09ff">
<path fill="#fcad09" opacity="1.00" d=" M 294.37 895.78 C 294.76 895.40 295.55 894.62 295.94 894.23 C 309.05 897.17 322.52 897.96 335.82 899.17 C 340.08 900.70 344.67 899.87 349.09 900.47 C 344.50 901.24 339.83 901.06 335.20 901.20 C 337.02 903.27 338.75 905.53 339.15 908.34 C 339.66 908.14 340.18 907.94 340.71 907.76 C 348.68 916.33 358.97 922.60 365.76 932.29 C 368.97 936.80 374.74 938.73 377.29 943.81 C 385.74 951.18 395.49 956.93 404.84 963.10 C 408.30 965.44 412.40 966.68 415.67 969.32 C 418.97 971.99 423.17 973.18 426.57 975.72 C 432.04 978.50 437.91 980.44 443.17 983.67 C 450.47 986.27 457.14 990.41 464.64 992.46 C 470.07 994.01 474.79 997.44 480.39 998.55 C 484.50 999.36 488.44 1000.80 492.34 1002.32 C 503.11 1004.89 513.82 1007.71 524.58 1010.36 C 534.07 1011.74 543.51 1013.58 553.05 1014.71 C 556.07 1015.10 558.98 1016.30 562.07 1016.24 C 567.39 1016.30 572.66 1017.29 577.99 1016.91 C 583.03 1016.86 588.36 1015.61 593.13 1017.82 C 598.54 1015.19 604.63 1015.60 610.40 1016.54 C 613.01 1017.16 615.25 1015.45 617.59 1014.64 C 621.03 1013.15 624.78 1014.56 628.35 1014.17 C 631.24 1013.61 633.93 1012.14 636.91 1012.02 C 640.26 1011.76 643.82 1012.44 646.97 1010.93 C 650.75 1009.11 654.93 1008.59 659.01 1007.89 C 668.26 1006.46 677.33 1003.95 686.69 1003.29 C 694.38 1001.52 701.72 998.25 709.61 997.30 C 716.84 995.66 723.50 992.08 730.77 990.56 C 734.55 989.80 738.09 988.26 741.51 986.52 C 746.57 983.88 752.44 983.29 757.34 980.29 C 761.51 977.81 766.49 977.19 770.61 974.61 C 773.18 972.99 775.89 971.62 778.80 970.71 C 782.99 969.44 786.15 966.15 790.26 964.70 C 794.97 963.02 798.62 959.39 803.24 957.56 C 806.27 956.35 808.71 954.14 811.38 952.33 C 819.52 947.65 827.57 942.73 835.01 936.97 C 841.08 930.78 843.61 922.13 848.84 915.35 C 848.96 918.04 848.43 920.69 847.26 923.12 C 847.73 923.40 848.21 923.68 848.70 923.99 C 848.35 925.44 847.94 926.93 847.99 928.46 C 848.40 931.38 846.00 933.57 844.96 936.09 C 845.59 936.47 846.86 937.24 847.50 937.62 C 846.86 942.39 843.34 945.88 840.81 949.72 C 835.43 958.60 828.88 966.77 821.51 974.07 C 821.68 974.67 822.00 975.87 822.16 976.47 C 783.17 997.81 741.21 1013.53 698.11 1024.28 C 652.12 1035.78 604.46 1041.38 557.07 1038.57 C 506.43 1035.87 456.41 1023.27 410.29 1002.24 C 412.19 1001.74 414.08 1001.21 415.95 1000.63 C 412.96 998.51 409.84 995.59 405.86 996.50 C 405.58 995.96 405.32 995.44 405.05 994.94 C 403.29 994.58 401.56 993.96 400.42 992.49 C 394.87 986.35 386.23 984.43 380.52 978.51 C 377.29 974.97 372.77 973.05 369.44 969.64 C 365.88 965.73 360.47 963.93 357.78 959.20 C 354.01 956.98 352.07 952.86 348.44 950.47 C 342.49 946.14 337.60 940.60 331.87 936.03 C 325.31 929.28 317.96 923.31 312.19 915.81 C 305.72 909.62 300.21 902.56 294.37 895.78 Z" />
</g>
<g id="#fc9b17ff">
<path fill="#fc9b17" opacity="1.00" d=" M 878.36 904.08 C 880.01 902.61 881.75 901.21 883.73 900.19 C 881.50 906.24 880.92 912.86 877.52 918.46 C 875.26 922.07 875.66 926.69 873.05 930.13 C 870.89 933.40 869.73 937.22 867.43 940.42 C 865.40 943.31 864.13 946.75 864.24 950.33 C 850.67 959.74 836.77 968.73 822.16 976.47 C 822.00 975.87 821.68 974.67 821.51 974.07 C 828.88 966.77 835.43 958.60 840.81 949.72 C 843.34 945.88 846.86 942.39 847.50 937.62 C 853.42 930.63 856.78 921.94 862.75 914.96 C 862.70 916.38 862.68 917.82 862.66 919.27 C 865.64 917.14 867.67 914.05 869.09 910.72 C 871.71 909.30 874.09 907.47 876.38 905.56 C 876.82 905.89 877.27 906.23 877.73 906.58 C 877.93 905.73 878.14 904.90 878.36 904.08 Z" />
</g>
</svg>
