<?xml version="1.0" encoding="UTF-8" ?>
<!DOCTYPE svg PUBLIC "-//W3C//DTD SVG 1.1//EN" "http://www.w3.org/Graphics/SVG/1.1/DTD/svg11.dtd">
<svg width="1276pt" height="1276pt" viewBox="0 0 1276 1276" version="1.1" xmlns="http://www.w3.org/2000/svg">
<g id="#0057abff">
<path fill="#0057ab" opacity="1.00" d=" M 310.67 166.76 C 350.25 155.26 391.86 151.32 432.96 154.02 C 477.14 156.57 520.87 165.11 563.09 178.12 C 569.57 179.59 575.61 182.50 582.09 184.00 C 590.17 187.51 598.81 189.51 606.81 193.23 C 613.18 196.04 619.88 198.04 626.25 200.87 C 645.92 209.96 665.76 218.75 684.63 229.44 C 697.87 237.07 711.50 244.10 724.05 252.88 C 729.97 256.59 736.04 260.10 741.55 264.44 C 757.30 274.77 772.01 286.54 787.10 297.79 C 794.49 304.13 802.68 309.48 809.96 315.97 C 814.36 318.83 817.94 322.71 822.19 325.76 C 840.13 340.68 857.82 355.92 874.91 371.82 C 908.65 370.02 942.73 370.34 976.08 376.22 C 995.89 379.86 1015.63 384.76 1034.05 393.08 C 1053.68 401.19 1072.73 410.81 1090.67 422.22 C 1106.78 431.66 1121.94 442.69 1136.00 454.97 C 1137.38 456.17 1138.59 457.54 1139.83 458.91 C 1135.43 467.29 1131.13 475.73 1126.86 484.17 C 1114.04 471.02 1098.64 460.68 1083.19 450.89 C 1072.27 443.40 1060.46 437.35 1048.73 431.27 C 1024.72 418.78 999.36 408.42 972.69 403.28 C 937.32 395.85 900.94 395.17 864.96 396.90 C 861.81 397.65 859.65 395.27 857.70 393.24 C 820.13 358.42 779.82 326.70 738.61 296.36 C 730.69 291.35 723.43 285.36 715.25 280.75 C 706.50 274.59 697.01 269.62 687.94 263.97 C 664.54 249.79 639.96 237.62 614.69 227.14 C 606.28 222.91 597.31 220.03 588.67 216.33 C 534.74 196.25 478.05 182.69 420.47 179.30 C 379.65 176.64 338.21 180.18 298.91 191.80 C 279.36 197.31 260.53 205.39 243.24 216.04 C 223.82 227.65 207.55 243.79 193.41 261.31 C 186.99 269.26 181.31 277.87 174.15 285.21 C 165.15 292.67 154.01 296.65 143.59 301.64 C 128.70 308.40 113.13 314.49 100.48 325.14 C 98.20 327.11 96.05 329.25 94.04 331.49 C 96.83 325.03 100.55 319.02 103.46 312.61 C 106.58 305.57 112.47 300.40 118.42 295.77 C 134.20 285.26 152.16 278.84 169.10 270.53 C 175.77 267.88 181.99 264.08 187.58 259.59 C 191.67 255.30 195.06 250.40 198.91 245.90 C 215.86 222.46 236.67 201.21 262.25 187.25 C 277.38 178.29 293.91 171.96 310.67 166.76 Z" />
<path fill="#0057ab" opacity="1.00" d=" M 330.33 330.22 C 335.48 324.92 341.21 320.22 347.51 316.33 C 351.13 318.03 354.99 319.12 358.81 320.30 C 363.52 321.73 367.85 324.11 372.52 325.66 C 377.06 327.35 381.73 328.69 386.13 330.74 C 396.09 335.41 406.68 338.58 416.57 343.42 C 425.67 347.85 435.23 351.25 444.27 355.81 C 465.31 365.96 486.42 375.98 506.99 387.06 C 522.01 395.38 537.39 403.05 552.05 412.00 C 561.08 417.69 570.66 422.49 579.37 428.71 C 599.43 441.32 618.82 454.99 637.46 469.59 C 697.41 515.72 747.51 573.36 791.71 634.46 C 818.68 672.40 841.38 713.33 859.91 756.01 C 874.28 789.64 886.75 824.25 894.82 859.94 C 891.07 868.40 886.16 876.31 882.40 884.78 C 882.07 884.55 881.41 884.10 881.08 883.87 L 880.98 882.99 C 879.99 874.75 877.23 866.87 875.11 858.88 C 865.45 825.86 853.11 793.64 838.47 762.52 C 825.15 733.94 809.82 706.29 792.54 679.93 C 779.98 660.60 766.01 642.27 751.93 624.05 C 730.38 596.80 707.71 570.37 682.87 546.06 C 646.58 509.99 605.84 478.56 562.54 451.41 C 551.54 445.20 541.22 437.85 530.04 431.95 C 512.99 422.57 496.05 413.00 478.71 404.18 C 460.80 394.89 442.44 386.53 424.28 377.75 C 413.48 372.65 402.21 368.62 391.40 363.54 C 385.18 360.57 378.55 358.62 372.33 355.69 C 368.11 353.72 363.72 352.16 359.31 350.71 C 353.39 348.81 347.87 345.88 341.89 344.17 C 335.83 342.44 330.11 339.68 323.99 338.15 C 326.08 335.49 328.08 332.75 330.33 330.22 Z" />
<path fill="#0057ab" opacity="1.00" d=" M 986.67 524.99 C 987.42 512.93 991.71 500.71 1000.43 492.10 C 996.89 514.44 1003.50 537.02 1013.06 557.07 C 1023.47 578.81 1032.63 601.14 1041.20 623.66 C 1055.98 662.13 1068.98 701.34 1078.18 741.54 C 1089.76 790.92 1095.92 841.44 1099.17 892.01 C 1101.98 942.61 1104.24 993.38 1100.92 1044.00 C 1098.56 1083.21 1094.13 1122.30 1087.46 1161.02 C 1086.77 1164.86 1086.43 1168.91 1084.43 1172.38 C 1081.00 1178.91 1077.94 1185.66 1074.13 1191.98 C 1074.04 1185.60 1075.85 1179.44 1076.68 1173.16 C 1081.46 1143.27 1084.79 1113.15 1087.13 1082.97 C 1088.37 1063.12 1089.56 1043.25 1089.61 1023.36 C 1089.97 1005.26 1089.16 987.18 1088.68 969.10 C 1087.32 930.98 1085.23 892.85 1080.56 854.99 C 1076.84 824.55 1071.88 794.23 1064.64 764.42 C 1057.43 733.49 1048.18 703.04 1037.27 673.22 C 1028.41 648.73 1019.07 624.41 1008.55 600.58 C 1004.30 590.69 999.27 581.15 995.23 571.17 C 989.51 556.53 985.69 540.79 986.67 524.99 Z" />
<path fill="#0057ab" opacity="1.00" d=" M 578.78 565.60 C 581.05 558.16 583.52 550.74 586.74 543.65 C 587.79 544.38 588.83 545.12 589.89 545.86 C 585.40 565.55 583.51 586.46 589.52 606.06 C 596.35 627.11 606.72 646.86 618.60 665.48 C 627.13 679.24 636.80 692.28 646.96 704.89 C 642.38 713.24 638.34 721.87 633.86 730.28 L 633.55 729.84 C 618.35 710.50 604.23 690.24 592.61 668.53 C 586.02 656.15 580.23 643.27 576.17 629.82 C 570.26 608.79 572.58 586.29 578.78 565.60 Z" />
</g>
<g id="#3fcaffff">
<path fill="#3fcaff" opacity="1.00" d=" M 298.91 191.80 C 338.21 180.18 379.65 176.64 420.47 179.30 C 420.71 180.68 421.67 181.56 422.94 182.07 C 432.27 186.70 441.75 191.06 450.76 196.29 C 463.18 202.97 476.19 208.51 488.36 215.63 C 501.09 222.26 514.17 228.22 526.65 235.32 C 538.52 241.51 550.81 246.90 562.40 253.63 C 574.83 260.28 587.82 265.88 600.01 272.99 C 612.95 279.76 626.35 285.66 639.00 292.98 C 651.32 299.33 663.95 305.09 676.00 311.94 C 688.51 318.50 701.44 324.25 713.66 331.36 C 723.41 336.28 733.23 341.06 742.96 346.04 C 755.02 352.89 767.63 358.68 779.95 365.03 C 792.64 372.29 806.02 378.26 818.98 385.02 C 831.18 392.15 844.15 397.82 856.66 404.39 C 871.01 412.66 886.35 419.07 900.71 427.34 C 908.43 431.29 916.23 435.11 924.00 438.98 C 930.92 442.27 937.32 446.53 944.32 449.67 C 954.86 455.20 965.79 459.97 976.06 465.99 C 987.69 472.01 999.54 477.59 1011.11 483.70 C 1007.16 485.95 1003.27 488.48 1000.43 492.10 C 991.71 500.71 987.42 512.93 986.67 524.99 C 985.69 540.79 989.51 556.53 995.23 571.17 C 985.74 567.74 977.43 561.89 968.32 557.68 C 960.55 553.74 952.75 549.87 944.97 545.98 C 932.82 538.78 919.80 533.25 907.36 526.59 C 897.29 520.77 886.68 515.98 876.34 510.68 C 869.87 507.57 863.85 503.62 857.31 500.65 C 851.74 498.14 846.57 494.69 840.65 492.99 L 840.35 492.90 C 817.59 470.14 793.33 448.89 768.33 428.64 C 744.06 409.29 719.04 390.75 692.55 374.49 C 680.97 366.38 668.33 359.99 656.17 352.85 C 642.48 345.28 628.58 338.07 614.25 331.78 C 604.85 327.37 595.49 322.77 585.59 319.55 C 559.70 308.86 532.69 301.11 505.14 296.07 C 475.36 290.76 444.66 289.33 414.65 293.58 C 408.86 293.68 403.29 295.74 397.57 296.14 C 393.57 294.28 389.61 292.37 385.70 290.34 C 373.07 282.99 359.69 277.04 346.74 270.30 C 334.26 263.12 321.08 257.25 308.32 250.57 C 293.78 242.15 278.19 235.72 263.65 227.29 C 256.93 223.40 249.17 221.17 243.24 216.04 C 260.53 205.39 279.36 197.31 298.91 191.80 Z" />
</g>
<g id="#43d0ffff">
<path fill="#43d0ff" opacity="1.00" d=" M 422.94 182.07 C 421.67 181.56 420.71 180.68 420.47 179.30 C 478.05 182.69 534.74 196.25 588.67 216.33 C 597.31 220.03 606.28 222.91 614.69 227.14 C 639.96 237.62 664.54 249.79 687.94 263.97 C 697.01 269.62 706.50 274.59 715.25 280.75 C 723.43 285.36 730.69 291.35 738.61 296.36 C 779.82 326.70 820.13 358.42 857.70 393.24 C 859.65 395.27 861.81 397.65 864.96 396.90 C 900.94 395.17 937.32 395.85 972.69 403.28 C 999.36 408.42 1024.72 418.78 1048.73 431.27 C 1060.46 437.35 1072.27 443.40 1083.19 450.89 C 1098.64 460.68 1114.04 471.02 1126.86 484.17 C 1123.55 483.11 1120.25 482.01 1116.78 481.68 C 1095.61 476.65 1073.80 474.08 1052.01 474.42 C 1038.03 475.17 1023.59 476.89 1011.11 483.70 C 999.54 477.59 987.69 472.01 976.06 465.99 C 965.79 459.97 954.86 455.20 944.32 449.67 C 937.32 446.53 930.92 442.27 924.00 438.98 C 916.23 435.11 908.43 431.29 900.71 427.34 C 886.35 419.07 871.01 412.66 856.66 404.39 C 844.15 397.82 831.18 392.15 818.98 385.02 C 806.02 378.26 792.64 372.29 779.95 365.03 C 767.63 358.68 755.02 352.89 742.96 346.04 C 733.23 341.06 723.41 336.28 713.66 331.36 C 701.44 324.25 688.51 318.50 676.00 311.94 C 663.95 305.09 651.32 299.33 639.00 292.98 C 626.35 285.66 612.95 279.76 600.01 272.99 C 587.82 265.88 574.83 260.28 562.40 253.63 C 550.81 246.90 538.52 241.51 526.65 235.32 C 514.17 228.22 501.09 222.26 488.36 215.63 C 476.19 208.51 463.18 202.97 450.76 196.29 C 441.75 191.06 432.27 186.70 422.94 182.07 Z" />
</g>
<g id="#37c0ffff">
<path fill="#37c0ff" opacity="1.00" d=" M 193.41 261.31 C 207.55 243.79 223.82 227.65 243.24 216.04 C 249.17 221.17 256.93 223.40 263.65 227.29 C 278.19 235.72 293.78 242.15 308.32 250.57 C 321.08 257.25 334.26 263.12 346.74 270.30 C 359.69 277.04 373.07 282.99 385.70 290.34 C 389.61 292.37 393.57 294.28 397.57 296.14 C 380.09 300.60 362.60 306.19 347.51 316.33 C 341.21 320.22 335.48 324.92 330.33 330.22 C 324.51 326.28 317.86 323.85 311.91 320.14 C 299.33 313.24 286.08 307.60 273.66 300.41 C 261.20 293.77 248.17 288.22 236.02 281.01 C 226.01 275.99 215.99 270.99 205.96 266.02 C 201.96 263.98 198.23 260.66 193.41 261.31 Z" />
</g>
<g id="#32b8ffff">
<path fill="#32b8ff" opacity="1.00" d=" M 193.41 261.31 C 198.23 260.66 201.96 263.98 205.96 266.02 C 215.99 270.99 226.01 275.99 236.02 281.01 C 248.17 288.22 261.20 293.77 273.66 300.41 C 286.08 307.60 299.33 313.24 311.91 320.14 C 317.86 323.85 324.51 326.28 330.33 330.22 C 328.08 332.75 326.08 335.49 323.99 338.15 C 330.11 339.68 335.83 342.44 341.89 344.17 C 347.87 345.88 353.39 348.81 359.31 350.71 C 363.72 352.16 368.11 353.72 372.33 355.69 C 378.55 358.62 385.18 360.57 391.40 363.54 C 402.21 368.62 413.48 372.65 424.28 377.75 C 442.44 386.53 460.80 394.89 478.71 404.18 C 496.05 413.00 512.99 422.57 530.04 431.95 C 541.22 437.85 551.54 445.20 562.54 451.41 C 605.84 478.56 646.58 509.99 682.87 546.06 C 707.71 570.37 730.38 596.80 751.93 624.05 C 766.01 642.27 779.98 660.60 792.54 679.93 C 786.96 678.61 782.17 675.38 777.05 672.99 C 768.87 668.90 760.58 665.02 752.67 660.42 C 745.23 656.37 737.50 652.90 730.00 648.97 C 721.08 644.69 712.67 639.44 703.66 635.33 C 698.29 633.00 693.47 629.23 687.58 628.29 C 687.30 628.14 686.75 627.85 686.47 627.70 C 661.89 604.04 636.13 581.60 609.00 560.93 C 602.78 555.71 596.17 551.00 589.89 545.86 C 588.83 545.12 587.79 544.38 586.74 543.65 C 583.52 550.74 581.05 558.16 578.78 565.60 C 578.63 563.61 578.38 561.64 578.16 559.67 C 568.54 554.60 558.70 549.96 549.04 544.98 C 536.97 538.09 524.31 532.33 511.96 525.97 C 498.12 517.88 483.23 511.75 469.33 503.75 C 461.60 499.51 453.42 496.14 445.85 491.62 C 444.44 478.90 444.47 466.05 444.51 453.27 C 426.50 443.98 407.85 436.05 389.61 427.26 C 379.81 423.04 369.77 419.41 360.09 414.91 C 353.01 412.24 345.80 409.91 338.88 406.85 C 331.46 404.64 324.48 401.23 316.93 399.47 C 309.81 396.42 302.19 394.90 295.00 392.04 C 269.22 384.54 243.43 376.05 216.48 373.83 C 207.65 373.38 198.81 372.51 189.99 372.46 L 189.28 371.93 C 184.60 368.15 178.92 366.04 173.63 363.30 C 168.57 360.70 163.40 358.33 158.39 355.64 C 145.57 348.14 131.82 342.39 118.85 335.18 C 112.90 331.50 106.22 329.18 100.48 325.14 C 113.13 314.49 128.70 308.40 143.59 301.64 C 154.01 296.65 165.15 292.67 174.15 285.21 C 181.31 277.87 186.99 269.26 193.41 261.31 Z" />
</g>
<g id="#2db1ffff">
<path fill="#2db1ff" opacity="1.00" d=" M 94.04 331.49 C 96.05 329.25 98.20 327.11 100.48 325.14 C 106.22 329.18 112.90 331.50 118.85 335.18 C 131.82 342.39 145.57 348.14 158.39 355.64 C 163.40 358.33 168.57 360.70 173.63 363.30 C 178.92 366.04 184.60 368.15 189.28 371.93 C 181.86 372.04 174.48 370.95 167.07 370.63 C 150.74 369.10 134.26 368.47 118.14 365.20 C 110.15 363.25 101.86 360.99 95.36 355.69 C 88.41 349.67 88.97 338.51 94.04 331.49 Z" />
</g>
<g id="#2cafffff">
<path fill="#2cafff" opacity="1.00" d=" M 445.85 491.62 C 453.42 496.14 461.60 499.51 469.33 503.75 C 483.23 511.75 498.12 517.88 511.96 525.97 C 524.31 532.33 536.97 538.09 549.04 544.98 C 558.70 549.96 568.54 554.60 578.16 559.67 C 578.38 561.64 578.63 563.61 578.78 565.60 C 572.58 586.29 570.26 608.79 576.17 629.82 C 580.23 643.27 586.02 656.15 592.61 668.53 C 585.93 666.85 580.24 662.70 573.98 659.98 C 563.21 653.87 552.03 648.55 540.99 642.98 C 533.85 639.60 527.23 635.24 520.03 631.98 C 511.57 628.02 503.51 623.19 494.76 619.88 C 470.81 591.96 456.47 556.87 449.81 520.95 C 448.09 511.24 446.37 501.48 445.85 491.62 Z" />
</g>
<g id="#39c2ffff">
<path fill="#39c2ff" opacity="1.00" d=" M 840.65 492.99 C 846.57 494.69 851.74 498.14 857.31 500.65 C 863.85 503.62 869.87 507.57 876.34 510.68 C 886.68 515.98 897.29 520.77 907.36 526.59 C 919.80 533.25 932.82 538.78 944.97 545.98 C 952.75 549.87 960.55 553.74 968.32 557.68 C 977.43 561.89 985.74 567.74 995.23 571.17 C 999.27 581.15 1004.30 590.69 1008.55 600.58 C 1019.07 624.41 1028.41 648.73 1037.27 673.22 C 1029.09 669.90 1021.29 665.73 1013.63 661.38 C 1003.08 655.81 992.22 650.85 981.70 645.22 C 974.91 641.17 967.70 637.95 960.68 634.35 C 956.88 632.49 953.24 630.15 949.04 629.30 L 948.34 629.03 C 919.13 578.84 881.83 533.78 840.65 492.99 Z" />
</g>
<g id="#27a9ffff">
<path fill="#27a9ff" opacity="1.00" d=" M 494.76 619.88 C 503.51 623.19 511.57 628.02 520.03 631.98 C 527.23 635.24 533.85 639.60 540.99 642.98 C 552.03 648.55 563.21 653.87 573.98 659.98 C 580.24 662.70 585.93 666.85 592.61 668.53 C 604.23 690.24 618.35 710.50 633.55 729.84 C 619.64 723.04 606.96 714.13 593.70 706.21 C 589.51 703.46 585.63 700.27 581.36 697.65 C 575.62 694.18 570.71 689.54 565.04 685.97 C 539.40 666.52 515.14 644.89 494.76 619.88 Z" />
</g>
<g id="#2db0ffff">
<path fill="#2db0ff" opacity="1.00" d=" M 687.58 628.29 C 693.47 629.23 698.29 633.00 703.66 635.33 C 712.67 639.44 721.08 644.69 730.00 648.97 C 737.50 652.90 745.23 656.37 752.67 660.42 C 760.58 665.02 768.87 668.90 777.05 672.99 C 782.17 675.38 786.96 678.61 792.54 679.93 C 809.82 706.29 825.15 733.94 838.47 762.52 C 828.82 758.58 820.13 752.67 810.68 748.32 C 803.59 745.10 797.03 740.60 789.49 738.50 C 775.55 721.21 760.62 704.74 745.54 688.46 C 729.59 671.08 713.27 654.02 696.48 637.45 C 693.67 634.23 690.04 631.82 687.58 628.29 Z" />
</g>
<g id="#34bbffff">
<path fill="#34bbff" opacity="1.00" d=" M 949.04 629.30 C 953.24 630.15 956.88 632.49 960.68 634.35 C 967.70 637.95 974.91 641.17 981.70 645.22 C 992.22 650.85 1003.08 655.81 1013.63 661.38 C 1021.29 665.73 1029.09 669.90 1037.27 673.22 C 1048.18 703.04 1057.43 733.49 1064.64 764.42 C 1054.98 758.32 1044.36 754.02 1034.34 748.59 C 1029.03 745.48 1023.52 742.73 1018.00 740.03 C 1010.23 736.26 1002.71 731.93 994.65 728.80 C 982.14 694.61 967.07 661.29 948.84 629.79 L 949.04 629.30 Z" />
</g>
<g id="#2fb4ffff">
<path fill="#2fb4ff" opacity="1.00" d=" M 994.65 728.80 C 1002.71 731.93 1010.23 736.26 1018.00 740.03 C 1023.52 742.73 1029.03 745.48 1034.34 748.59 C 1044.36 754.02 1054.98 758.32 1064.64 764.42 C 1071.88 794.23 1076.84 824.55 1080.56 854.99 C 1079.35 852.77 1078.09 850.33 1075.67 849.26 C 1067.63 845.33 1059.63 841.34 1051.65 837.32 C 1042.86 832.38 1033.93 827.63 1024.65 823.70 L 1024.48 823.63 C 1015.34 791.78 1005.91 759.97 994.65 728.80 Z" />
</g>
<g id="#29abffff">
<path fill="#29abff" opacity="1.00" d=" M 789.49 738.50 C 797.03 740.60 803.59 745.10 810.68 748.32 C 820.13 752.67 828.82 758.58 838.47 762.52 C 853.11 793.64 865.45 825.86 875.11 858.88 C 877.23 866.87 879.99 874.75 880.98 882.99 C 856.42 831.39 825.15 783.10 789.49 738.50 Z" />
</g>
<g id="#2aacffff">
<path fill="#2aacff" opacity="1.00" d=" M 1024.65 823.70 C 1033.93 827.63 1042.86 832.38 1051.65 837.32 C 1059.63 841.34 1067.63 845.33 1075.67 849.26 C 1078.09 850.33 1079.35 852.77 1080.56 854.99 C 1085.23 892.85 1087.32 930.98 1088.68 969.10 C 1077.49 964.02 1066.67 958.18 1055.62 952.84 C 1052.32 932.57 1048.47 912.37 1043.68 892.39 C 1038.54 869.17 1030.91 846.62 1024.65 823.70 Z" />
</g>
<g id="#24a4ffff">
<path fill="#24a4ff" opacity="1.00" d=" M 1055.62 952.84 C 1066.67 958.18 1077.49 964.02 1088.68 969.10 C 1089.16 987.18 1089.97 1005.26 1089.61 1023.36 C 1088.40 1021.04 1087.21 1018.42 1084.68 1017.31 C 1077.49 1013.68 1070.73 1009.12 1063.01 1006.63 C 1060.87 988.66 1058.48 970.71 1055.62 952.84 Z" />
</g>
<g id="#21a0ffff">
<path fill="#21a0ff" opacity="1.00" d=" M 1063.01 1006.63 C 1070.73 1009.12 1077.49 1013.68 1084.68 1017.31 C 1087.21 1018.42 1088.40 1021.04 1089.61 1023.36 C 1089.56 1043.25 1088.37 1063.12 1087.13 1082.97 C 1082.78 1080.12 1077.99 1078.10 1073.39 1075.73 C 1071.29 1074.76 1069.86 1072.90 1068.84 1070.90 C 1067.40 1049.44 1065.34 1028.02 1063.01 1006.63 Z" />
</g>
<g id="#1c9affff">
<path fill="#1c9aff" opacity="1.00" d=" M 1068.84 1070.90 C 1069.86 1072.90 1071.29 1074.76 1073.39 1075.73 C 1077.99 1078.10 1082.78 1080.12 1087.13 1082.97 C 1084.79 1113.15 1081.46 1143.27 1076.68 1173.16 C 1075.85 1179.44 1074.04 1185.60 1074.13 1191.98 C 1073.83 1193.05 1073.11 1193.95 1072.63 1194.96 C 1073.43 1184.99 1072.87 1174.94 1072.90 1164.93 C 1072.36 1133.56 1071.10 1102.20 1068.84 1070.90 Z" />
</g>
</svg>
