<?xml version="1.0" encoding="UTF-8" ?>
<!DOCTYPE svg PUBLIC "-//W3C//DTD SVG 1.1//EN" "http://www.w3.org/Graphics/SVG/1.1/DTD/svg11.dtd">
<svg width="1276pt" height="1276pt" viewBox="0 0 1276 1276" version="1.1" xmlns="http://www.w3.org/2000/svg">
<g id="#0057abff">
<path fill="#0057ab" opacity="1.00" d=" M 360.93 156.18 C 416.05 149.17 472.10 155.42 525.93 167.87 C 540.64 171.63 555.29 175.59 569.81 180.05 C 573.96 181.97 578.48 182.76 582.78 184.23 C 591.85 188.07 601.47 190.42 610.36 194.74 C 625.26 199.79 639.25 207.03 653.56 213.48 C 671.89 221.99 689.41 232.08 706.95 242.09 C 715.23 246.57 722.71 252.38 730.87 257.08 C 737.10 260.77 742.57 265.58 748.83 269.24 C 792.67 301.11 835.15 334.90 874.87 371.80 C 920.15 369.34 966.35 371.01 1009.97 384.20 C 1013.59 385.62 1017.38 386.50 1021.09 387.70 C 1043.60 396.69 1065.78 406.77 1086.44 419.56 C 1093.27 424.07 1100.64 427.75 1107.18 432.71 C 1112.09 436.56 1117.68 439.49 1122.27 443.76 C 1128.45 448.39 1134.55 453.22 1139.81 458.89 C 1135.45 467.31 1131.11 475.73 1126.85 484.19 C 1121.22 477.72 1114.08 472.83 1107.52 467.38 C 1096.78 459.27 1085.28 452.27 1073.99 444.97 C 1058.60 436.03 1042.68 428.02 1026.56 420.50 C 1016.48 416.32 1006.32 412.31 995.90 409.07 C 952.58 396.17 906.81 394.62 861.95 397.07 C 824.25 362.03 784.03 329.83 742.62 299.35 C 738.36 295.83 733.44 293.25 729.08 289.87 C 722.40 284.72 714.89 280.83 708.03 275.95 C 690.79 265.80 673.85 255.08 655.92 246.17 C 638.73 237.08 620.66 229.84 602.93 221.91 C 595.11 219.33 587.76 215.53 579.87 213.18 C 528.62 194.73 474.86 182.53 420.38 179.29 C 388.16 177.23 355.61 178.92 323.98 185.55 C 295.70 191.35 267.85 200.72 243.24 216.05 C 223.84 227.65 207.56 243.75 193.45 261.28 C 186.99 269.23 181.31 277.85 174.16 285.23 C 164.90 292.81 153.51 296.86 142.85 301.98 C 128.19 308.59 112.94 314.68 100.49 325.12 C 98.19 327.11 96.06 329.28 94.02 331.53 C 96.93 324.83 100.77 318.59 103.79 311.95 C 106.92 305.18 112.71 300.29 118.42 295.74 C 121.34 294.40 123.78 292.25 126.60 290.72 C 138.40 284.05 151.02 279.03 163.28 273.30 C 171.91 269.34 180.80 265.54 188.02 259.19 C 192.13 254.54 195.83 249.55 199.80 244.78 C 205.19 236.69 211.93 229.62 218.20 222.21 C 231.64 207.66 247.37 195.15 264.84 185.76 C 294.36 169.27 327.66 160.95 360.93 156.18 Z" />
<path fill="#0057ab" opacity="1.00" d=" M 330.36 330.15 C 335.54 324.91 341.21 320.20 347.50 316.33 C 351.11 318.03 354.96 319.11 358.76 320.28 C 363.50 321.69 367.84 324.14 372.55 325.66 C 377.33 327.45 382.27 328.86 386.88 331.08 C 396.14 335.40 405.96 338.34 415.16 342.78 C 426.10 348.00 437.48 352.22 448.29 357.72 C 469.05 367.81 489.93 377.70 510.19 388.79 C 519.64 394.05 529.30 398.94 538.71 404.29 C 547.57 408.92 555.81 414.61 564.58 419.41 C 573.26 424.19 581.15 430.24 589.68 435.25 C 626.74 459.83 661.92 487.31 693.55 518.61 C 718.12 542.38 740.51 568.31 761.87 594.96 C 777.88 615.54 793.82 636.24 807.81 658.27 C 833.02 697.32 853.96 739.09 870.71 782.44 C 880.36 807.70 888.90 833.49 894.83 859.88 C 891.00 868.40 886.23 876.49 882.19 884.93 C 881.89 884.44 881.30 883.47 881.00 882.98 C 880.00 875.03 877.41 867.41 875.35 859.71 C 865.67 826.39 853.20 793.88 838.46 762.48 C 825.12 733.90 809.79 706.24 792.51 679.86 C 774.51 652.55 754.41 626.68 733.63 601.45 C 708.54 571.35 681.39 542.90 651.80 517.19 C 623.62 492.83 593.55 470.72 561.93 451.05 C 553.25 446.18 545.05 440.50 536.43 435.51 C 528.53 431.06 520.59 426.68 512.60 422.39 C 482.62 405.28 451.37 390.57 420.17 375.84 C 410.61 371.68 400.87 367.93 391.40 363.55 C 384.94 360.45 378.03 358.45 371.57 355.35 C 365.03 352.26 357.95 350.59 351.34 347.67 C 348.02 346.20 344.60 344.95 341.11 343.93 C 335.30 342.23 329.81 339.60 323.94 338.09 C 326.11 335.47 328.14 332.73 330.36 330.15 Z" />
<path fill="#0057ab" opacity="1.00" d=" M 986.50 529.06 C 986.61 515.85 990.53 501.97 1000.14 492.48 C 997.34 514.17 1003.10 536.01 1012.34 555.54 C 1022.91 577.54 1032.24 600.11 1040.91 622.91 C 1055.36 660.50 1068.20 698.77 1077.34 738.03 C 1094.26 808.35 1099.87 880.81 1101.89 952.93 C 1104.71 1023.92 1098.86 1095.09 1086.78 1165.05 C 1086.25 1170.20 1083.13 1174.47 1081.05 1179.07 C 1078.69 1183.37 1076.74 1187.90 1074.11 1192.06 C 1073.99 1185.64 1075.88 1179.47 1076.67 1173.16 C 1081.46 1143.27 1084.79 1113.15 1087.12 1082.98 C 1088.38 1063.08 1089.55 1043.17 1089.62 1023.23 C 1089.96 1005.17 1089.15 987.12 1088.68 969.07 C 1087.32 930.94 1085.20 892.80 1080.57 854.91 C 1076.81 824.51 1071.88 794.21 1064.66 764.43 C 1057.42 733.47 1048.16 703.00 1037.26 673.15 C 1028.21 648.19 1018.69 623.40 1007.91 599.13 C 1003.84 589.75 999.06 580.69 995.25 571.19 C 989.98 557.80 986.39 543.52 986.50 529.06 Z" />
<path fill="#0057ab" opacity="1.00" d=" M 586.50 543.87 C 587.63 544.49 588.74 545.12 589.86 545.80 C 587.05 559.65 584.56 573.81 586.14 587.99 C 587.05 602.04 592.43 615.23 598.01 627.99 C 610.81 655.59 627.69 681.21 646.93 704.73 C 642.54 713.22 638.30 721.79 633.87 730.27 L 633.58 729.86 C 618.34 710.52 604.22 690.22 592.59 668.49 C 586.44 657.09 581.21 645.18 577.09 632.90 C 570.09 611.01 572.22 587.18 578.87 565.49 C 580.95 558.13 583.63 550.95 586.50 543.87 Z" />
<path fill="#0057ab" opacity="1.00" d=" M 143.45 650.93 C 151.74 642.46 160.76 634.69 169.47 626.63 C 178.62 627.52 187.88 626.52 197.04 627.63 C 271.66 631.83 345.23 653.80 409.94 691.21 C 469.89 725.68 522.22 773.28 562.21 829.70 C 619.69 910.47 651.65 1009.42 650.98 1108.62 C 642.01 1116.18 633.81 1124.64 625.03 1132.44 C 624.83 1076.39 615.08 1020.35 595.78 967.70 C 577.65 918.16 551.50 871.49 518.23 830.53 C 497.03 804.13 472.98 780.00 446.64 758.72 C 405.54 725.14 358.66 698.69 308.84 680.44 C 256.02 660.93 199.73 651.21 143.45 650.93 Z" />
</g>
<g id="#3fcaffff">
<path fill="#3fcaff" opacity="1.00" d=" M 323.98 185.55 C 355.61 178.92 388.16 177.23 420.38 179.29 C 420.88 180.51 421.74 181.54 422.99 182.05 C 430.11 185.61 437.27 189.11 444.36 192.73 C 456.59 199.76 469.48 205.53 481.98 212.06 C 494.04 218.93 506.70 224.63 519.01 231.03 C 531.01 238.02 543.75 243.59 556.02 250.08 C 570.31 258.40 585.71 264.62 599.98 272.98 C 610.61 278.38 621.36 283.56 631.96 289.03 C 644.21 296.09 657.16 301.83 669.68 308.40 C 678.81 313.81 688.52 318.14 697.96 322.97 C 705.41 326.37 712.26 330.90 719.69 334.33 C 729.77 339.56 740.17 344.19 749.97 349.95 C 758.16 354.14 766.43 358.18 774.65 362.31 C 780.68 365.15 786.26 368.85 792.30 371.67 C 801.20 376.10 810.12 380.52 818.99 385.01 C 828.35 390.56 838.27 395.07 847.98 399.98 C 855.60 403.52 862.68 408.13 870.32 411.65 C 878.04 415.65 885.94 419.32 893.63 423.40 C 907.06 431.26 921.56 437.11 935.04 444.90 C 948.57 452.16 962.69 458.28 975.99 465.99 C 987.70 471.96 999.51 477.74 1011.27 483.63 C 1007.09 485.92 1003.06 488.65 1000.14 492.48 C 990.53 501.97 986.61 515.85 986.50 529.06 C 986.39 543.52 989.98 557.80 995.25 571.19 C 987.90 568.46 981.16 564.44 974.33 560.66 C 964.58 555.69 954.71 550.95 944.98 545.94 C 932.98 539.00 920.28 533.38 908.02 526.95 C 895.78 519.87 882.80 514.18 870.31 507.60 C 865.86 505.00 861.35 502.52 856.69 500.34 C 851.37 497.87 846.37 494.63 840.68 493.04 L 840.34 492.93 C 813.40 465.92 784.36 441.06 754.34 417.58 C 749.20 414.10 744.74 409.74 739.41 406.52 C 733.45 401.36 726.55 397.52 720.39 392.64 C 707.32 383.58 693.74 375.31 680.42 366.62 C 663.48 357.14 646.80 347.14 629.25 338.80 C 620.69 334.49 611.86 330.76 603.21 326.63 C 594.00 322.11 584.09 319.35 574.76 315.15 C 568.99 313.40 563.45 311.00 557.71 309.20 C 552.63 308.39 548.13 305.69 543.05 304.91 C 505.82 294.24 466.74 288.72 427.98 292.08 C 423.54 292.53 418.98 292.39 414.67 293.64 C 408.87 293.60 403.29 295.78 397.56 296.15 C 387.45 291.60 378.03 285.73 368.03 280.98 C 358.83 276.16 349.27 272.05 340.35 266.72 C 327.66 259.98 314.48 254.18 302.01 247.02 C 291.86 241.79 281.56 236.83 271.42 231.58 C 264.15 227.36 256.57 223.68 249.01 220.01 C 246.88 219.01 245.01 217.57 243.24 216.05 C 267.85 200.72 295.70 191.35 323.98 185.55 Z" />
</g>
<g id="#43d0ffff">
<path fill="#43d0ff" opacity="1.00" d=" M 422.99 182.05 C 421.74 181.54 420.88 180.51 420.38 179.29 C 474.86 182.53 528.62 194.73 579.87 213.18 C 587.76 215.53 595.11 219.33 602.93 221.91 C 620.66 229.84 638.73 237.08 655.92 246.17 C 673.85 255.08 690.79 265.80 708.03 275.95 C 714.89 280.83 722.40 284.72 729.08 289.87 C 733.44 293.25 738.36 295.83 742.62 299.35 C 784.03 329.83 824.25 362.03 861.95 397.07 C 906.81 394.62 952.58 396.17 995.90 409.07 C 1006.32 412.31 1016.48 416.32 1026.56 420.50 C 1042.68 428.02 1058.60 436.03 1073.99 444.97 C 1085.28 452.27 1096.78 459.27 1107.52 467.38 C 1114.08 472.83 1121.22 477.72 1126.85 484.19 C 1123.53 483.13 1120.25 481.93 1116.75 481.70 C 1096.01 476.67 1074.61 474.28 1053.25 474.36 C 1038.91 475.07 1024.08 476.68 1011.27 483.63 C 999.51 477.74 987.70 471.96 975.99 465.99 C 962.69 458.28 948.57 452.16 935.04 444.90 C 921.56 437.11 907.06 431.26 893.63 423.40 C 885.94 419.32 878.04 415.65 870.32 411.65 C 862.68 408.13 855.60 403.52 847.98 399.98 C 838.27 395.07 828.35 390.56 818.99 385.01 C 810.12 380.52 801.20 376.10 792.30 371.67 C 786.26 368.85 780.68 365.15 774.65 362.31 C 766.43 358.18 758.16 354.14 749.97 349.95 C 740.17 344.19 729.77 339.56 719.69 334.33 C 712.26 330.90 705.41 326.37 697.96 322.97 C 688.52 318.14 678.81 313.81 669.68 308.40 C 657.16 301.83 644.21 296.09 631.96 289.03 C 621.36 283.56 610.61 278.38 599.98 272.98 C 585.71 264.62 570.31 258.40 556.02 250.08 C 543.75 243.59 531.01 238.02 519.01 231.03 C 506.70 224.63 494.04 218.93 481.98 212.06 C 469.48 205.53 456.59 199.76 444.36 192.73 C 437.27 189.11 430.11 185.61 422.99 182.05 Z" />
</g>
<g id="#37c0ffff">
<path fill="#37c0ff" opacity="1.00" d=" M 193.45 261.28 C 207.56 243.75 223.84 227.65 243.24 216.05 C 245.01 217.57 246.88 219.01 249.01 220.01 C 256.57 223.68 264.15 227.36 271.42 231.58 C 281.56 236.83 291.86 241.79 302.01 247.02 C 314.48 254.18 327.66 259.98 340.35 266.72 C 349.27 272.05 358.83 276.16 368.03 280.98 C 378.03 285.73 387.45 291.60 397.56 296.15 C 380.08 300.60 362.59 306.20 347.50 316.33 C 341.21 320.20 335.54 324.91 330.36 330.15 C 324.68 326.51 318.37 324.02 312.63 320.48 C 299.55 313.38 285.84 307.49 272.96 300.02 C 262.82 294.74 252.46 289.87 242.32 284.58 C 228.38 276.56 213.49 270.36 199.52 262.41 C 197.69 261.33 195.50 261.44 193.45 261.28 Z" />
</g>
<g id="#32b8ffff">
<path fill="#32b8ff" opacity="1.00" d=" M 193.45 261.28 C 195.50 261.44 197.69 261.33 199.52 262.41 C 213.49 270.36 228.38 276.56 242.32 284.58 C 252.46 289.87 262.82 294.74 272.96 300.02 C 285.84 307.49 299.55 313.38 312.63 320.48 C 318.37 324.02 324.68 326.51 330.36 330.15 C 328.14 332.73 326.11 335.47 323.94 338.09 C 329.81 339.60 335.30 342.23 341.11 343.93 C 344.60 344.95 348.02 346.20 351.34 347.67 C 357.95 350.59 365.03 352.26 371.57 355.35 C 378.03 358.45 384.94 360.45 391.40 363.55 C 400.87 367.93 410.61 371.68 420.17 375.84 C 451.37 390.57 482.62 405.28 512.60 422.39 C 520.59 426.68 528.53 431.06 536.43 435.51 C 545.05 440.50 553.25 446.18 561.93 451.05 C 593.55 470.72 623.62 492.83 651.80 517.19 C 681.39 542.90 708.54 571.35 733.63 601.45 C 754.41 626.68 774.51 652.55 792.51 679.86 C 785.11 677.83 778.66 673.51 771.73 670.35 C 760.95 665.25 750.76 659.05 739.97 653.98 C 732.32 649.96 724.40 646.48 716.95 642.10 C 709.80 638.07 702.23 634.85 695.01 630.95 C 692.67 629.62 690.09 628.82 687.48 628.28 C 687.22 628.13 686.71 627.83 686.45 627.68 C 665.30 607.39 643.40 587.87 620.33 569.78 C 610.25 561.69 599.96 553.87 589.86 545.80 C 588.74 545.12 587.63 544.49 586.50 543.87 C 583.63 550.95 580.95 558.13 578.87 565.49 C 578.68 563.51 578.38 561.56 578.09 559.62 C 566.35 553.41 554.16 548.06 542.64 541.41 C 530.18 534.79 517.22 529.11 505.01 522.02 C 492.73 515.58 479.96 510.06 468.01 503.00 C 460.69 499.09 452.99 495.89 445.87 491.61 C 444.47 478.90 444.46 466.05 444.50 453.27 C 428.32 444.88 411.56 437.69 395.10 429.87 C 384.85 424.72 373.89 421.23 363.49 416.40 C 357.17 413.36 350.31 411.71 343.88 408.91 C 337.80 406.11 331.22 404.63 325.12 401.86 C 319.58 400.32 314.11 398.59 308.78 396.45 C 301.43 394.72 294.57 391.49 287.19 389.90 C 282.68 388.19 278.07 386.81 273.35 385.82 C 269.52 384.15 265.42 383.46 261.40 382.48 C 257.09 380.62 252.33 380.48 247.92 378.97 C 232.88 375.20 217.42 373.49 201.94 373.00 C 197.94 373.06 193.99 371.92 189.99 372.48 L 189.25 371.92 C 185.01 368.42 179.80 366.52 175.01 363.95 C 169.52 361.05 163.82 358.57 158.37 355.60 C 144.51 347.48 129.55 341.45 115.66 333.38 C 110.63 330.58 105.17 328.55 100.49 325.12 C 112.94 314.68 128.19 308.59 142.85 301.98 C 153.51 296.86 164.90 292.81 174.16 285.23 C 181.31 277.85 186.99 269.23 193.45 261.28 Z" />
</g>
<g id="#2db1ffff">
<path fill="#2db1ff" opacity="1.00" d=" M 94.02 331.53 C 96.06 329.28 98.19 327.11 100.49 325.12 C 105.17 328.55 110.63 330.58 115.66 333.38 C 129.55 341.45 144.51 347.48 158.37 355.60 C 163.82 358.57 169.52 361.05 175.01 363.95 C 179.80 366.52 185.01 368.42 189.25 371.92 C 177.81 371.77 166.41 370.42 155.01 369.62 C 138.85 368.25 122.41 367.28 106.94 362.04 C 101.46 359.70 95.34 357.25 92.21 351.82 C 88.74 345.49 89.96 337.29 94.02 331.53 Z" />
</g>
<g id="#2cafffff">
<path fill="#2cafff" opacity="1.00" d=" M 445.87 491.61 C 452.99 495.89 460.69 499.09 468.01 503.00 C 479.96 510.06 492.73 515.58 505.01 522.02 C 517.22 529.11 530.18 534.79 542.64 541.41 C 554.16 548.06 566.35 553.41 578.09 559.62 C 578.38 561.56 578.68 563.51 578.87 565.49 C 572.22 587.18 570.09 611.01 577.09 632.90 C 581.21 645.18 586.44 657.09 592.59 668.49 C 586.14 666.99 580.68 662.93 574.65 660.34 C 561.91 653.19 548.72 646.88 535.67 640.32 C 527.77 635.68 519.50 631.75 511.34 627.61 C 505.83 625.00 500.57 621.83 494.76 619.91 L 494.52 619.82 C 490.10 613.81 485.18 608.15 481.18 601.84 C 459.79 569.11 449.01 530.32 445.87 491.61 Z" />
</g>
<g id="#39c2ffff">
<path fill="#39c2ff" opacity="1.00" d=" M 840.68 493.04 C 846.37 494.63 851.37 497.87 856.69 500.34 C 861.35 502.52 865.86 505.00 870.31 507.60 C 882.80 514.18 895.78 519.87 908.02 526.95 C 920.28 533.38 932.98 539.00 944.98 545.94 C 954.71 550.95 964.58 555.69 974.33 560.66 C 981.16 564.44 987.90 568.46 995.25 571.19 C 999.06 580.69 1003.84 589.75 1007.91 599.13 C 1018.69 623.40 1028.21 648.19 1037.26 673.15 C 1028.56 669.83 1020.48 665.16 1012.36 660.66 C 1002.39 655.57 992.24 650.83 982.36 645.57 C 975.12 641.31 967.50 637.78 960.01 634.02 C 956.48 632.31 953.14 629.97 949.18 629.42 L 948.40 629.26 C 919.31 578.93 881.87 533.87 840.68 493.04 Z" />
</g>
<g id="#27a9ffff">
<path fill="#27a9ff" opacity="1.00" d=" M 494.76 619.91 C 500.57 621.83 505.83 625.00 511.34 627.61 C 519.50 631.75 527.77 635.68 535.67 640.32 C 548.72 646.88 561.91 653.19 574.65 660.34 C 580.68 662.93 586.14 666.99 592.59 668.49 C 604.22 690.22 618.34 710.52 633.58 729.86 C 619.64 723.05 606.96 714.11 593.67 706.20 C 588.19 702.34 582.75 698.42 577.09 694.83 C 569.41 688.79 561.25 683.40 553.70 677.21 C 532.39 659.97 512.09 641.23 494.76 619.91 Z" />
</g>
<g id="#2db0ffff">
<path fill="#2db0ff" opacity="1.00" d=" M 687.48 628.28 C 690.09 628.82 692.67 629.62 695.01 630.95 C 702.23 634.85 709.80 638.07 716.95 642.10 C 724.40 646.48 732.32 649.96 739.97 653.98 C 750.76 659.05 760.95 665.25 771.73 670.35 C 778.66 673.51 785.11 677.83 792.51 679.86 C 809.79 706.24 825.12 733.90 838.46 762.48 C 828.76 758.65 820.14 752.61 810.65 748.31 C 803.51 745.11 796.89 740.75 789.42 738.32 C 775.09 720.81 759.98 703.91 744.52 687.39 C 727.84 669.08 710.56 651.35 692.97 633.94 C 690.95 632.24 689.09 630.35 687.48 628.28 Z" />
</g>
<g id="#34bbffff">
<path fill="#34bbff" opacity="1.00" d=" M 949.18 629.42 C 953.14 629.97 956.48 632.31 960.01 634.02 C 967.50 637.78 975.12 641.31 982.36 645.57 C 992.24 650.83 1002.39 655.57 1012.36 660.66 C 1020.48 665.16 1028.56 669.83 1037.26 673.15 C 1048.16 703.00 1057.42 733.47 1064.66 764.43 C 1055.80 758.94 1046.24 754.74 1036.96 750.01 C 1023.18 742.33 1009.02 735.27 994.68 728.68 C 981.89 694.43 967.07 660.81 948.43 629.30 L 949.18 629.42 Z" />
</g>
<g id="#2fb4ffff">
<path fill="#2fb4ff" opacity="1.00" d=" M 143.01 650.92 L 143.45 650.93 C 199.73 651.21 256.02 660.93 308.84 680.44 C 301.76 684.48 293.84 686.75 286.68 690.63 C 268.60 699.25 251.79 710.51 236.76 723.73 C 221.91 735.97 209.69 751.06 198.68 766.75 C 176.80 799.04 163.49 837.12 160.80 876.06 C 159.68 883.68 160.05 891.39 160.01 899.08 C 161.21 919.01 163.84 939.02 169.93 958.11 C 180.78 994.03 201.16 1026.83 227.71 1053.25 C 245.10 1069.44 264.43 1083.83 285.98 1094.01 C 318.37 1110.19 354.86 1117.60 390.97 1116.98 C 411.21 1115.81 431.51 1113.08 450.86 1106.84 C 486.11 1096.13 518.16 1076.08 544.31 1050.26 C 566.89 1026.68 585.18 998.67 595.78 967.70 C 615.08 1020.35 624.83 1076.39 625.03 1132.44 L 625.05 1133.03 C 464.37 1132.95 303.69 1133.03 143.01 1132.99 C 143.00 972.30 142.99 811.61 143.01 650.92 Z" />
<path fill="#2fb4ff" opacity="1.00" d=" M 994.68 728.68 C 1009.02 735.27 1023.18 742.33 1036.96 750.01 C 1046.24 754.74 1055.80 758.94 1064.66 764.43 C 1071.88 794.21 1076.81 824.51 1080.57 854.91 C 1079.23 852.54 1077.68 850.07 1075.07 848.96 C 1067.24 845.19 1059.47 841.27 1051.71 837.35 C 1042.95 832.33 1034.00 827.59 1024.67 823.74 L 1024.47 823.66 C 1015.40 791.74 1005.80 759.95 994.68 728.68 Z" />
</g>
<g id="#35bdffff">
<path fill="#35bdff" opacity="1.00" d=" M 308.84 680.44 C 358.66 698.69 405.54 725.14 446.64 758.72 C 444.17 758.12 441.68 757.54 439.33 756.58 C 408.46 743.83 373.20 742.47 341.34 752.35 C 320.66 758.81 301.32 769.70 285.35 784.37 C 251.04 815.63 232.89 863.91 238.97 910.03 C 242.14 937.68 253.66 964.24 271.26 985.75 C 288.11 1006.49 311.00 1021.99 336.12 1030.92 C 365.68 1041.37 398.52 1041.81 428.42 1032.43 C 452.77 1024.52 475.41 1010.70 492.61 991.62 C 508.41 974.48 519.77 953.39 526.02 930.97 C 533.66 903.10 532.73 873.00 523.43 845.64 C 521.79 840.57 519.42 835.74 518.23 830.53 C 551.50 871.49 577.65 918.16 595.78 967.70 C 585.18 998.67 566.89 1026.68 544.31 1050.26 C 518.16 1076.08 486.11 1096.13 450.86 1106.84 C 431.51 1113.08 411.21 1115.81 390.97 1116.98 C 354.86 1117.60 318.37 1110.19 285.98 1094.01 C 264.43 1083.83 245.10 1069.44 227.71 1053.25 C 201.16 1026.83 180.78 994.03 169.93 958.11 C 163.84 939.02 161.21 919.01 160.01 899.08 C 160.05 891.39 159.68 883.68 160.80 876.06 C 163.49 837.12 176.80 799.04 198.68 766.75 C 209.69 751.06 221.91 735.97 236.76 723.73 C 251.79 710.51 268.60 699.25 286.68 690.63 C 293.84 686.75 301.76 684.48 308.84 680.44 Z" />
</g>
<g id="#29abffff">
<path fill="#29abff" opacity="1.00" d=" M 789.42 738.32 C 796.89 740.75 803.51 745.11 810.65 748.31 C 820.14 752.61 828.76 758.65 838.46 762.48 C 853.20 793.88 865.67 826.39 875.35 859.71 C 877.41 867.41 880.00 875.03 881.00 882.98 C 856.39 831.33 825.04 783.03 789.42 738.32 Z" />
</g>
<g id="#3dc8ffff">
<path fill="#3dc8ff" opacity="1.00" d=" M 341.34 752.35 C 373.20 742.47 408.46 743.83 439.33 756.58 C 441.68 757.54 444.17 758.12 446.64 758.72 C 472.98 780.00 497.03 804.13 518.23 830.53 C 519.42 835.74 521.79 840.57 523.43 845.64 C 532.73 873.00 533.66 903.10 526.02 930.97 C 519.77 953.39 508.41 974.48 492.61 991.62 C 475.41 1010.70 452.77 1024.52 428.42 1032.43 C 398.52 1041.81 365.68 1041.37 336.12 1030.92 C 311.00 1021.99 288.11 1006.49 271.26 985.75 C 253.66 964.24 242.14 937.68 238.97 910.03 C 232.89 863.91 251.04 815.63 285.35 784.37 C 301.32 769.70 320.66 758.81 341.34 752.35 M 376.34 848.32 C 360.65 851.12 346.85 862.80 342.03 878.05 C 335.60 896.29 342.49 918.48 358.71 929.27 C 368.58 936.53 381.49 938.59 393.40 936.53 C 404.96 934.07 415.82 927.25 422.09 917.10 C 428.74 907.40 430.50 895.01 428.54 883.58 C 426.15 872.48 419.81 862.02 410.22 855.73 C 400.62 848.56 387.99 846.56 376.34 848.32 Z" />
</g>
<g id="#2aacffff">
<path fill="#2aacff" opacity="1.00" d=" M 1024.67 823.74 C 1034.00 827.59 1042.95 832.33 1051.71 837.35 C 1059.47 841.27 1067.24 845.19 1075.07 848.96 C 1077.68 850.07 1079.23 852.54 1080.57 854.91 C 1085.20 892.80 1087.32 930.94 1088.68 969.07 C 1077.48 964.08 1066.76 958.11 1055.65 952.93 C 1051.79 929.15 1047.05 905.49 1041.23 882.10 C 1036.33 862.48 1029.97 843.26 1024.67 823.74 Z" />
</g>
<g id="#43d1ffff">
<path fill="#43d1ff" opacity="1.00" d=" M 376.34 848.32 C 387.99 846.56 400.62 848.56 410.22 855.73 C 419.81 862.02 426.15 872.48 428.54 883.58 C 430.50 895.01 428.74 907.40 422.09 917.10 C 415.82 927.25 404.96 934.07 393.40 936.53 C 381.49 938.59 368.58 936.53 358.71 929.27 C 342.49 918.48 335.60 896.29 342.03 878.05 C 346.85 862.80 360.65 851.12 376.34 848.32 Z" />
</g>
<g id="#24a4ffff">
<path fill="#24a4ff" opacity="1.00" d=" M 1055.65 952.93 C 1066.76 958.11 1077.48 964.08 1088.68 969.07 C 1089.15 987.12 1089.96 1005.17 1089.62 1023.23 C 1088.37 1020.95 1087.12 1018.42 1084.65 1017.28 C 1077.50 1013.62 1070.77 1009.02 1063.03 1006.67 C 1060.88 988.71 1058.46 970.79 1055.65 952.93 Z" />
</g>
<g id="#21a0ffff">
<path fill="#21a0ff" opacity="1.00" d=" M 1063.03 1006.67 C 1070.77 1009.02 1077.50 1013.62 1084.65 1017.28 C 1087.12 1018.42 1088.37 1020.95 1089.62 1023.23 C 1089.55 1043.17 1088.38 1063.08 1087.12 1082.98 C 1082.72 1080.14 1077.90 1078.09 1073.27 1075.71 C 1071.23 1074.74 1069.86 1072.89 1068.84 1070.97 C 1067.42 1049.49 1065.33 1028.06 1063.03 1006.67 Z" />
</g>
<g id="#1c9affff">
<path fill="#1c9aff" opacity="1.00" d=" M 1068.84 1070.97 C 1069.86 1072.89 1071.23 1074.74 1073.27 1075.71 C 1077.90 1078.09 1082.72 1080.14 1087.12 1082.98 C 1084.79 1113.15 1081.46 1143.27 1076.67 1173.16 C 1075.88 1179.47 1073.99 1185.64 1074.11 1192.06 C 1073.84 1193.09 1073.12 1193.97 1072.62 1194.92 C 1073.68 1173.36 1072.48 1151.69 1072.01 1130.10 C 1071.28 1110.37 1070.28 1090.65 1068.84 1070.97 Z" />
</g>
</svg>
