<?xml version="1.0" encoding="UTF-8" ?>
<!DOCTYPE svg PUBLIC "-//W3C//DTD SVG 1.1//EN" "http://www.w3.org/Graphics/SVG/1.1/DTD/svg11.dtd">
<svg width="1276pt" height="1276pt" viewBox="0 0 1276 1276" version="1.1" xmlns="http://www.w3.org/2000/svg">
<g id="#ffffffff">
<path fill="#ffffff" opacity="1.00" d=" M 403.00 223.94 C 402.73 219.46 406.27 215.31 410.79 215.05 C 428.54 214.93 446.29 215.04 464.04 214.99 C 466.72 214.90 469.45 215.75 471.57 217.43 C 473.25 219.54 474.12 222.28 474.01 224.98 C 474.00 241.32 474.00 257.66 474.00 274.00 C 517.00 274.00 560.00 274.00 603.00 274.00 C 603.03 256.94 602.95 239.87 603.04 222.81 C 603.29 218.28 607.45 214.76 611.95 215.00 C 629.31 215.00 646.68 215.00 664.05 215.00 C 666.01 214.90 667.89 215.55 669.77 216.06 C 672.79 217.90 674.14 221.56 674.01 224.97 C 674.00 241.31 674.00 257.66 674.00 274.00 C 717.00 274.00 760.00 274.00 803.00 274.00 C 803.03 256.93 802.95 239.86 803.04 222.80 C 803.29 218.27 807.46 214.76 811.95 215.00 C 829.66 215.02 847.38 214.96 865.10 215.03 C 869.59 214.95 873.64 218.30 873.90 222.88 C 874.13 239.92 873.93 256.96 874.00 274.00 C 886.99 274.00 899.98 274.00 912.98 274.00 C 923.59 274.08 934.39 273.39 944.78 276.11 C 962.26 280.22 978.01 290.88 988.54 305.40 C 997.69 317.97 1002.83 333.42 1002.98 348.97 C 1003.02 366.65 1002.99 384.32 1003.00 402.00 C 1019.69 402.00 1036.38 402.00 1053.07 401.99 C 1057.55 401.73 1061.68 405.29 1061.95 409.80 C 1062.07 424.53 1061.96 439.26 1062.00 453.99 C 1061.80 458.92 1062.66 464.02 1060.93 468.77 C 1058.90 472.15 1054.69 473.28 1050.97 473.02 C 1034.98 472.98 1018.99 473.01 1003.00 473.00 C 1003.00 516.00 1003.00 559.00 1003.00 602.00 C 1019.32 601.99 1035.64 602.02 1051.96 601.98 C 1055.30 601.75 1059.39 603.00 1060.84 606.31 C 1062.42 608.93 1061.94 612.08 1062.01 615.01 C 1061.97 631.35 1062.04 647.70 1061.98 664.05 C 1062.06 668.55 1058.74 672.61 1054.15 672.90 C 1037.11 673.14 1020.05 672.93 1003.00 673.00 C 1003.00 716.00 1003.00 759.00 1003.00 802.00 C 1019.33 801.99 1035.65 802.02 1051.98 801.98 C 1055.32 801.75 1059.38 803.01 1060.84 806.30 C 1062.42 808.94 1061.94 812.09 1062.01 815.03 C 1061.99 831.02 1062.00 847.02 1062.00 863.01 C 1062.09 864.99 1061.45 866.88 1060.94 868.77 C 1059.10 871.77 1055.47 873.12 1052.07 873.00 C 1035.71 873.00 1019.36 873.00 1003.00 873.00 C 1002.99 889.34 1003.01 905.68 1002.99 922.02 C 1003.26 931.77 1002.10 941.62 998.82 950.85 C 990.82 974.57 970.26 993.54 945.96 999.59 C 934.23 1002.88 921.96 1001.83 909.94 1002.00 C 898.29 1002.00 886.64 1002.00 875.00 1002.00 C 875.01 1018.32 874.98 1034.64 875.02 1050.96 C 875.30 1053.72 874.32 1056.44 872.62 1058.62 C 869.67 1061.22 865.64 1061.15 861.95 1061.01 C 845.62 1060.97 829.29 1061.04 812.96 1060.98 C 808.45 1061.07 804.37 1057.73 804.10 1053.13 C 803.86 1036.09 804.07 1019.04 804.00 1002.00 C 761.00 1002.00 718.00 1002.00 675.00 1002.00 C 675.01 1018.32 674.98 1034.64 675.02 1050.97 C 675.24 1054.31 673.99 1058.38 670.70 1059.84 C 668.06 1061.42 664.92 1060.94 662.00 1061.01 C 645.98 1060.99 629.95 1061.00 613.94 1061.01 C 610.65 1061.00 606.63 1059.95 605.20 1056.67 C 604.35 1054.91 603.90 1052.99 604.00 1051.05 C 604.00 1034.70 604.00 1018.35 604.00 1002.00 C 561.00 1002.00 518.00 1002.00 475.00 1002.00 C 474.97 1019.07 475.05 1036.15 474.96 1053.22 C 474.69 1057.74 470.52 1061.24 466.04 1061.00 C 448.67 1061.00 431.29 1061.00 413.92 1061.00 C 411.95 1061.08 410.09 1060.44 408.23 1059.93 C 405.20 1058.09 403.87 1054.42 403.99 1051.02 C 404.00 1034.68 404.00 1018.34 404.00 1002.00 C 386.32 1002.00 368.64 1002.00 350.96 1002.00 C 334.83 1002.02 318.75 996.73 305.80 987.11 C 287.23 973.48 275.45 951.08 275.04 928.02 C 274.95 910.01 275.02 892.00 275.00 874.00 C 257.94 873.97 240.88 874.05 223.83 873.97 C 219.30 873.72 215.77 869.56 216.00 865.08 C 216.02 847.36 215.96 829.65 216.03 811.93 C 215.95 807.43 219.27 803.36 223.88 803.10 C 240.91 802.86 257.96 803.07 275.00 803.00 C 275.00 760.00 275.00 717.00 275.00 674.00 C 258.32 674.00 241.64 674.00 224.96 674.01 C 220.46 674.27 216.30 670.72 216.05 666.18 C 215.93 648.45 216.04 630.71 216.00 612.98 C 215.90 610.99 216.55 609.11 217.07 607.23 C 218.89 604.21 222.54 602.87 225.94 603.00 C 242.30 603.00 258.65 603.00 275.00 603.00 C 275.00 560.00 275.00 517.00 275.00 474.00 C 257.94 473.97 240.89 474.05 223.83 473.97 C 219.30 473.72 215.77 469.56 216.00 465.07 C 216.00 447.72 216.01 430.36 216.00 413.00 C 215.89 411.00 216.54 409.12 217.07 407.23 C 218.90 404.20 222.57 402.86 225.99 402.99 C 242.32 403.00 258.66 403.00 275.00 403.00 C 275.01 385.00 274.97 367.00 275.02 349.00 C 275.19 330.38 282.53 311.88 295.32 298.33 C 309.18 283.15 329.47 274.18 350.01 274.01 C 367.67 273.98 385.34 274.01 403.00 274.00 C 403.00 257.31 403.00 240.63 403.00 223.94 M 350.38 335.66 C 341.92 337.87 335.63 346.24 336.01 355.01 C 335.99 541.34 336.01 727.66 336.00 913.99 C 336.05 918.03 335.72 922.14 336.55 926.15 C 338.55 934.82 347.06 941.37 355.98 940.99 C 544.65 941.01 733.32 941.00 921.99 940.99 C 932.76 941.56 942.53 931.81 941.99 921.04 C 942.00 732.34 942.01 543.63 941.99 354.93 C 942.51 344.17 932.75 334.44 921.99 335.01 C 735.64 334.99 549.30 335.01 362.95 335.00 C 358.76 335.05 354.50 334.69 350.38 335.66 Z" />
<path fill="#ffffff" opacity="1.00" d=" M 431.01 466.93 C 432.95 446.52 452.21 428.80 472.93 429.99 C 510.96 430.01 548.98 429.99 587.00 430.00 C 587.00 452.97 587.00 475.94 587.00 498.92 C 616.48 521.16 646.23 543.06 676.00 564.93 C 675.95 589.93 676.10 614.94 675.93 639.94 C 665.77 643.16 657.14 650.79 652.69 660.47 C 647.90 670.52 647.78 682.68 652.37 692.82 C 656.21 701.61 663.46 708.85 672.26 712.67 C 682.13 717.10 693.90 717.09 703.77 712.66 C 712.56 708.82 719.80 701.59 723.64 692.80 C 728.31 682.46 728.07 670.05 723.04 659.89 C 718.51 650.49 710.02 643.10 700.07 639.94 C 699.90 610.41 700.05 580.88 700.00 551.34 C 685.50 541.23 671.75 530.10 657.46 519.72 C 642.01 508.28 626.56 496.85 611.03 485.54 C 610.97 467.03 611.02 448.51 611.00 430.00 C 662.33 430.00 713.67 430.00 765.00 430.00 C 765.00 444.72 765.00 459.44 765.00 474.17 C 755.74 477.56 747.73 484.37 743.30 493.22 C 737.95 503.49 737.58 516.20 742.34 526.76 C 746.17 535.55 753.41 542.80 762.20 546.64 C 772.08 551.10 783.87 551.10 793.76 546.66 C 802.57 542.82 809.83 535.56 813.67 526.75 C 818.31 516.42 818.06 504.03 813.04 493.89 C 808.37 484.18 799.47 476.64 789.12 473.65 C 788.84 459.10 789.08 444.55 789.00 430.00 C 796.01 430.02 803.02 429.96 810.03 430.01 C 828.86 431.80 845.20 448.13 846.99 466.96 C 847.00 580.99 847.00 695.02 846.99 809.05 C 845.20 827.86 828.88 844.18 810.07 845.99 C 803.38 846.04 796.69 845.97 790.00 846.00 C 790.05 780.35 789.90 714.71 790.07 649.06 C 800.22 645.83 808.86 638.20 813.31 628.53 C 818.10 618.47 818.22 606.31 813.63 596.16 C 809.78 587.40 802.56 580.18 793.79 576.35 C 783.64 571.78 771.48 571.91 761.43 576.70 C 752.99 580.61 746.08 587.69 742.35 596.20 C 737.78 606.35 737.90 618.50 742.69 628.55 C 747.15 638.21 755.78 645.84 765.93 649.06 C 766.10 714.71 765.95 780.35 766.00 846.00 C 742.33 846.00 718.67 846.00 695.00 846.00 C 695.01 826.58 694.98 807.17 695.02 787.75 C 685.48 780.67 675.86 773.70 666.62 766.25 C 646.44 751.31 626.32 736.28 606.01 721.53 C 606.04 697.37 605.91 673.22 606.07 649.06 C 616.23 645.83 624.87 638.19 629.32 628.51 C 634.10 618.45 634.21 606.30 629.63 596.16 C 625.89 587.65 618.96 580.58 610.53 576.69 C 600.24 571.79 587.76 571.79 577.48 576.68 C 569.28 580.47 562.50 587.24 558.70 595.44 C 553.79 605.74 553.78 618.24 558.70 628.55 C 563.15 638.21 571.78 645.84 581.93 649.06 C 582.10 677.75 581.95 706.44 582.00 735.13 C 611.44 757.47 641.29 779.27 671.01 801.25 C 670.99 816.16 671.00 831.08 671.00 846.00 C 647.00 846.00 623.00 846.00 599.00 846.00 C 599.11 827.74 598.74 809.48 599.26 791.23 C 569.55 769.15 539.78 747.15 510.00 725.17 C 510.05 699.80 509.90 674.43 510.07 649.06 C 520.22 645.83 528.86 638.20 533.31 628.53 C 538.09 618.49 538.21 606.36 533.66 596.23 C 529.93 587.68 522.97 580.58 514.50 576.67 C 504.22 571.79 491.75 571.79 481.47 576.69 C 473.27 580.48 466.49 587.26 462.69 595.46 C 457.79 605.75 457.78 618.25 462.69 628.54 C 467.15 638.21 475.78 645.83 485.93 649.06 C 486.09 679.03 485.97 709.00 485.98 738.97 C 515.50 761.20 545.24 783.14 575.00 805.05 C 574.99 818.70 575.00 832.35 575.00 846.00 C 539.32 845.99 503.63 846.01 467.95 845.99 C 449.12 844.19 432.76 827.83 431.01 808.99 C 431.00 694.97 430.99 580.95 431.01 466.93 Z" />
<path fill="#ffffff" opacity="1.00" d=" M 772.41 493.70 C 778.73 491.94 786.01 493.63 790.57 498.45 C 796.08 503.68 797.48 512.47 794.29 519.29 C 791.15 526.19 783.51 530.72 775.93 529.90 C 767.20 529.40 759.63 521.80 759.10 513.10 C 758.12 504.52 764.12 495.94 772.41 493.70 Z" />
<path fill="#ffffff" opacity="1.00" d=" M 493.43 594.70 C 501.93 592.14 511.70 596.62 515.30 604.72 C 518.49 611.57 517.06 620.39 511.51 625.61 C 507.30 629.99 500.81 631.80 494.90 630.63 C 486.63 629.18 480.04 621.39 480.03 612.98 C 479.62 604.75 485.51 596.84 493.43 594.70 Z" />
<path fill="#ffffff" opacity="1.00" d=" M 588.46 594.69 C 594.74 592.95 601.97 594.63 606.52 599.40 C 612.06 604.62 613.48 613.42 610.31 620.27 C 607.17 627.17 599.54 631.71 591.95 630.90 C 583.22 630.41 575.59 622.80 575.10 614.07 C 574.13 605.48 580.15 596.90 588.46 594.69 Z" />
<path fill="#ffffff" opacity="1.00" d=" M 772.44 594.70 C 781.21 592.04 791.31 596.95 794.63 605.48 C 797.38 612.20 795.86 620.57 790.52 625.60 C 784.98 631.42 775.45 632.61 768.50 628.68 C 762.27 625.24 758.35 618.04 759.10 610.92 C 759.55 603.42 765.23 596.67 772.44 594.70 Z" />
<path fill="#ffffff" opacity="1.00" d=" M 682.48 659.69 C 692.78 656.46 704.63 664.12 705.78 674.86 C 707.59 684.96 699.36 695.35 689.13 695.90 C 679.67 697.02 670.26 689.55 669.21 680.10 C 667.70 671.20 673.80 661.96 682.48 659.69 Z" />
</g>
<g id="#0ba10fff">
<path fill="#0ba10f" opacity="1.00" d=" M 350.38 335.66 C 354.50 334.69 358.76 335.05 362.95 335.00 C 549.30 335.01 735.64 334.99 921.99 335.01 C 932.75 334.44 942.51 344.17 941.99 354.93 C 942.01 543.63 942.00 732.34 941.99 921.04 C 942.53 931.81 932.76 941.56 921.99 940.99 C 733.32 941.00 544.65 941.01 355.98 940.99 C 347.06 941.37 338.55 934.82 336.55 926.15 C 335.72 922.14 336.05 918.03 336.00 913.99 C 336.01 727.66 335.99 541.34 336.01 355.01 C 335.63 346.24 341.92 337.87 350.38 335.66 M 431.01 466.93 C 430.99 580.95 431.00 694.97 431.01 808.99 C 432.76 827.83 449.12 844.19 467.95 845.99 C 503.63 846.01 539.32 845.99 575.00 846.00 C 575.00 832.35 574.99 818.70 575.00 805.05 C 545.24 783.14 515.50 761.20 485.98 738.97 C 485.97 709.00 486.09 679.03 485.93 649.06 C 475.78 645.83 467.15 638.21 462.69 628.54 C 457.78 618.25 457.79 605.75 462.69 595.46 C 466.49 587.26 473.27 580.48 481.47 576.69 C 491.75 571.79 504.22 571.79 514.50 576.67 C 522.97 580.58 529.93 587.68 533.66 596.23 C 538.21 606.36 538.09 618.49 533.31 628.53 C 528.86 638.20 520.22 645.83 510.07 649.06 C 509.90 674.43 510.05 699.80 510.00 725.17 C 539.78 747.15 569.55 769.15 599.26 791.23 C 598.74 809.48 599.11 827.74 599.00 846.00 C 623.00 846.00 647.00 846.00 671.00 846.00 C 671.00 831.08 670.99 816.16 671.01 801.25 C 641.29 779.27 611.44 757.47 582.00 735.13 C 581.95 706.44 582.10 677.75 581.93 649.06 C 571.78 645.84 563.15 638.21 558.70 628.55 C 553.78 618.24 553.79 605.74 558.70 595.44 C 562.50 587.24 569.28 580.47 577.48 576.68 C 587.76 571.79 600.24 571.79 610.53 576.69 C 618.96 580.58 625.89 587.65 629.63 596.16 C 634.21 606.30 634.10 618.45 629.32 628.51 C 624.87 638.19 616.23 645.83 606.07 649.06 C 605.91 673.22 606.04 697.37 606.01 721.53 C 626.32 736.28 646.44 751.31 666.62 766.25 C 675.86 773.70 685.48 780.67 695.02 787.75 C 694.98 807.17 695.01 826.58 695.00 846.00 C 718.67 846.00 742.33 846.00 766.00 846.00 C 765.95 780.35 766.10 714.71 765.93 649.06 C 755.78 645.84 747.15 638.21 742.69 628.55 C 737.90 618.50 737.78 606.35 742.35 596.20 C 746.08 587.69 752.99 580.61 761.43 576.70 C 771.48 571.91 783.64 571.78 793.79 576.35 C 802.56 580.18 809.78 587.40 813.63 596.16 C 818.22 606.31 818.10 618.47 813.31 628.53 C 808.86 638.20 800.22 645.83 790.07 649.06 C 789.90 714.71 790.05 780.35 790.00 846.00 C 796.69 845.97 803.38 846.04 810.07 845.99 C 828.88 844.18 845.20 827.86 846.99 809.05 C 847.00 695.02 847.00 580.99 846.99 466.96 C 845.20 448.13 828.86 431.80 810.03 430.01 C 803.02 429.96 796.01 430.02 789.00 430.00 C 789.08 444.55 788.84 459.10 789.12 473.65 C 799.47 476.64 808.37 484.18 813.04 493.89 C 818.06 504.03 818.31 516.42 813.67 526.75 C 809.83 535.56 802.57 542.82 793.76 546.66 C 783.87 551.10 772.08 551.10 762.20 546.64 C 753.41 542.80 746.17 535.55 742.34 526.76 C 737.58 516.20 737.95 503.49 743.30 493.22 C 747.73 484.37 755.74 477.56 765.00 474.17 C 765.00 459.44 765.00 444.72 765.00 430.00 C 713.67 430.00 662.33 430.00 611.00 430.00 C 611.02 448.51 610.97 467.03 611.03 485.54 C 626.56 496.85 642.01 508.28 657.46 519.72 C 671.75 530.10 685.50 541.23 700.00 551.34 C 700.05 580.88 699.90 610.41 700.07 639.94 C 710.02 643.10 718.51 650.49 723.04 659.89 C 728.07 670.05 728.31 682.46 723.64 692.80 C 719.80 701.59 712.56 708.82 703.77 712.66 C 693.90 717.09 682.13 717.10 672.26 712.67 C 663.46 708.85 656.21 701.61 652.37 692.82 C 647.78 682.68 647.90 670.52 652.69 660.47 C 657.14 650.79 665.77 643.16 675.93 639.94 C 676.10 614.94 675.95 589.93 676.00 564.93 C 646.23 543.06 616.48 521.16 587.00 498.92 C 587.00 475.94 587.00 452.97 587.00 430.00 C 548.98 429.99 510.96 430.01 472.93 429.99 C 452.21 428.80 432.95 446.52 431.01 466.93 M 772.41 493.70 C 764.12 495.94 758.12 504.52 759.10 513.10 C 759.63 521.80 767.20 529.40 775.93 529.90 C 783.51 530.72 791.15 526.19 794.29 519.29 C 797.48 512.47 796.08 503.68 790.57 498.45 C 786.01 493.63 778.73 491.94 772.41 493.70 M 493.43 594.70 C 485.51 596.84 479.62 604.75 480.03 612.98 C 480.04 621.39 486.63 629.18 494.90 630.63 C 500.81 631.80 507.30 629.99 511.51 625.61 C 517.06 620.39 518.49 611.57 515.30 604.72 C 511.70 596.62 501.93 592.14 493.43 594.70 M 588.46 594.69 C 580.15 596.90 574.13 605.48 575.10 614.07 C 575.59 622.80 583.22 630.41 591.95 630.90 C 599.54 631.71 607.17 627.17 610.31 620.27 C 613.48 613.42 612.06 604.62 606.52 599.40 C 601.97 594.63 594.74 592.95 588.46 594.69 M 772.44 594.70 C 765.23 596.67 759.55 603.42 759.10 610.92 C 758.35 618.04 762.27 625.24 768.50 628.68 C 775.45 632.61 784.98 631.42 790.52 625.60 C 795.86 620.57 797.38 612.20 794.63 605.48 C 791.31 596.95 781.21 592.04 772.44 594.70 M 682.48 659.69 C 673.80 661.96 667.70 671.20 669.21 680.10 C 670.26 689.55 679.67 697.02 689.13 695.90 C 699.36 695.35 707.59 684.96 705.78 674.86 C 704.63 664.12 692.78 656.46 682.48 659.69 Z" />
</g>
</svg>
