<?xml version="1.0" encoding="UTF-8" ?>
<!DOCTYPE svg PUBLIC "-//W3C//DTD SVG 1.1//EN" "http://www.w3.org/Graphics/SVG/1.1/DTD/svg11.dtd">
<svg width="1276pt" height="1276pt" viewBox="0 0 1276 1276" version="1.1" xmlns="http://www.w3.org/2000/svg">
<g id="#1a191bff">
<path fill="#1a191b" opacity="1.00" d=" M 403.05 222.89 C 403.21 218.33 407.42 214.78 411.92 215.00 C 429.27 214.99 446.62 215.01 463.98 215.00 C 467.28 214.99 471.34 216.00 472.79 219.33 C 473.89 221.38 474.03 223.74 474.02 226.03 C 473.98 242.02 474.01 258.01 474.00 274.00 C 517.00 274.00 560.00 274.00 603.00 274.00 C 603.00 257.32 603.00 240.64 603.00 223.97 C 602.73 219.45 606.31 215.24 610.88 215.06 C 628.26 214.90 645.64 215.07 663.02 214.98 C 666.02 214.87 669.23 215.42 671.56 217.46 C 673.31 219.52 674.05 222.29 674.00 224.97 C 674.00 241.31 673.99 257.65 674.00 274.00 C 717.00 274.00 760.00 274.00 803.00 274.00 C 803.00 257.33 803.00 240.65 802.99 223.98 C 802.71 219.44 806.33 215.20 810.94 215.05 C 828.30 214.91 845.68 215.07 863.06 214.98 C 866.04 214.88 869.22 215.43 871.55 217.44 C 873.30 219.51 874.06 222.28 874.00 224.96 C 874.00 241.31 873.99 257.65 874.00 274.00 C 888.00 274.00 902.00 274.00 916.00 274.00 C 924.03 274.05 932.14 273.64 940.08 275.13 C 956.07 277.89 971.10 285.93 982.18 297.80 C 995.27 311.41 1002.82 330.14 1002.97 349.02 C 1003.04 366.68 1002.98 384.34 1003.00 402.00 C 1020.04 402.04 1037.07 401.93 1054.11 402.05 C 1058.68 402.21 1062.23 406.44 1062.00 410.95 C 1062.01 428.32 1061.99 445.69 1062.00 463.06 C 1062.03 465.72 1061.30 468.49 1059.55 470.55 C 1057.47 472.32 1054.68 473.06 1051.99 473.00 C 1035.66 473.00 1019.33 472.99 1003.00 473.00 C 1003.00 516.00 1003.00 559.00 1003.00 602.00 C 1018.66 601.99 1034.32 602.03 1049.99 601.98 C 1053.49 601.76 1057.57 602.03 1060.02 604.92 C 1062.29 607.79 1062.08 611.55 1062.02 615.00 C 1061.97 631.03 1062.02 647.07 1062.00 663.11 C 1061.99 666.37 1060.95 670.36 1057.68 671.79 C 1055.62 672.89 1053.26 673.03 1050.99 673.02 C 1034.99 672.98 1019.00 673.01 1003.00 673.00 C 1003.00 716.00 1003.00 759.00 1003.00 802.00 C 1018.67 801.99 1034.34 802.03 1050.01 801.98 C 1053.51 801.76 1057.57 802.04 1060.01 804.91 C 1062.29 807.78 1062.08 811.55 1062.02 815.01 C 1061.97 831.01 1062.01 847.01 1062.00 863.02 C 1062.00 866.31 1060.98 870.34 1057.67 871.79 C 1055.63 872.89 1053.27 873.03 1051.01 873.02 C 1035.00 872.98 1019.00 873.01 1003.00 873.00 C 1003.00 886.98 1003.00 900.97 1003.00 914.95 C 1002.94 923.67 1003.38 932.51 1001.49 941.09 C 997.66 960.58 985.71 978.19 969.22 989.20 C 956.84 997.51 941.95 1002.00 927.05 1002.00 C 909.70 1002.01 892.35 1001.99 875.00 1002.00 C 875.01 1017.35 874.98 1032.70 875.02 1048.05 C 874.95 1050.97 875.43 1054.15 873.81 1056.78 C 872.31 1060.00 868.35 1061.17 865.04 1061.02 C 848.01 1060.97 830.97 1061.01 813.93 1061.00 C 810.65 1060.99 806.65 1059.96 805.22 1056.69 C 804.11 1054.64 803.95 1052.28 803.98 1050.02 C 804.02 1034.01 803.99 1018.01 804.00 1002.00 C 761.00 1002.00 718.00 1002.00 675.00 1002.00 C 675.01 1017.34 674.98 1032.68 675.02 1048.03 C 674.94 1050.94 675.44 1054.12 673.82 1056.75 C 672.33 1060.01 668.34 1061.18 665.01 1061.02 C 648.00 1060.97 630.99 1061.01 613.98 1061.00 C 610.69 1060.99 606.66 1059.99 605.22 1056.69 C 604.10 1054.63 603.95 1052.25 603.98 1049.97 C 604.02 1033.98 603.99 1017.99 604.00 1002.00 C 561.00 1002.00 518.00 1002.00 475.00 1002.00 C 474.96 1019.04 475.07 1036.08 474.95 1053.12 C 474.78 1057.67 470.57 1061.22 466.08 1061.00 C 448.73 1061.01 431.38 1060.99 414.03 1061.00 C 411.33 1061.04 408.53 1060.32 406.45 1058.55 C 404.69 1056.48 403.94 1053.71 404.00 1051.04 C 404.00 1034.69 404.01 1018.35 404.00 1002.00 C 386.35 1001.99 368.70 1002.00 351.05 1002.00 C 334.41 1002.05 317.83 996.42 304.66 986.25 C 286.48 972.34 275.12 949.95 275.03 927.02 C 274.96 909.35 275.02 891.67 275.00 874.00 C 258.30 873.99 241.60 874.00 224.90 874.00 C 220.39 874.25 216.21 870.64 216.06 866.08 C 215.91 848.71 216.07 831.33 215.98 813.96 C 215.87 810.96 216.43 807.76 218.46 805.44 C 220.52 803.69 223.26 802.94 225.93 803.00 C 242.29 802.99 258.64 803.00 275.00 803.00 C 275.00 760.00 275.00 717.00 275.00 674.00 C 257.96 673.96 240.93 674.07 223.90 673.96 C 219.31 673.79 215.76 669.56 216.00 665.05 C 215.99 647.70 216.00 630.34 216.00 612.99 C 215.99 609.69 217.02 605.64 220.33 604.21 C 222.37 603.11 224.71 602.95 226.98 602.98 C 242.98 603.02 258.99 602.99 275.00 603.00 C 275.00 560.00 275.00 517.00 275.00 474.00 C 258.33 473.99 241.65 474.00 224.98 474.00 C 220.46 474.28 216.23 470.69 216.06 466.10 C 215.92 448.38 216.04 430.64 216.00 412.91 C 216.00 409.63 217.04 405.63 220.33 404.21 C 222.36 403.11 224.71 402.96 226.97 402.98 C 242.98 403.02 258.99 402.99 275.00 403.00 C 275.02 385.01 274.96 367.02 275.03 349.03 C 275.18 330.15 282.72 311.41 295.82 297.79 C 309.66 282.93 329.73 274.18 350.02 274.02 C 367.68 273.97 385.34 274.01 403.00 274.00 C 403.04 256.96 402.93 239.93 403.05 222.89 M 350.39 335.66 C 341.92 337.86 335.63 346.24 336.01 355.01 C 335.99 541.35 336.01 727.69 336.00 914.03 C 336.03 917.98 335.75 921.99 336.50 925.91 C 337.83 931.85 342.18 937.00 347.77 939.40 C 352.21 941.44 357.24 940.94 362.00 941.01 C 548.66 940.98 735.33 941.02 921.99 940.99 C 929.49 941.27 936.84 936.78 940.04 930.01 C 942.61 925.09 941.91 919.36 942.00 914.02 C 942.00 730.36 942.00 546.70 942.00 363.03 C 941.94 358.72 942.29 354.36 941.50 350.10 C 940.16 344.12 935.78 338.95 930.15 336.56 C 925.43 334.44 920.10 335.10 915.07 335.00 C 731.37 335.00 547.67 335.00 363.97 335.00 C 359.44 335.07 354.84 334.64 350.39 335.66 Z" />
</g>
<g id="#0ba10fff">
<path fill="#0ba10f" opacity="1.00" d=" M 350.39 335.66 C 354.84 334.64 359.44 335.07 363.97 335.00 C 547.67 335.00 731.37 335.00 915.07 335.00 C 920.10 335.10 925.43 334.44 930.15 336.56 C 935.78 338.95 940.16 344.12 941.50 350.10 C 942.29 354.36 941.94 358.72 942.00 363.03 C 942.00 546.70 942.00 730.36 942.00 914.02 C 941.91 919.36 942.61 925.09 940.04 930.01 C 936.84 936.78 929.49 941.27 921.99 940.99 C 735.33 941.02 548.66 940.98 362.00 941.01 C 357.24 940.94 352.21 941.44 347.77 939.40 C 342.18 937.00 337.83 931.85 336.50 925.91 C 335.75 921.99 336.03 917.98 336.00 914.03 C 336.01 727.69 335.99 541.35 336.01 355.01 C 335.63 346.24 341.92 337.86 350.39 335.66 M 431.00 466.98 C 430.99 579.32 431.01 691.67 430.99 804.02 C 429.77 824.78 447.55 844.10 468.01 846.00 C 503.67 846.00 539.34 846.00 575.00 846.00 C 575.00 832.35 574.99 818.70 575.00 805.05 C 545.24 783.14 515.50 761.21 485.98 738.98 C 485.97 709.00 486.09 679.02 485.92 649.05 C 475.52 645.77 466.73 637.82 462.37 627.83 C 457.79 617.70 457.90 605.56 462.67 595.51 C 466.46 587.30 473.24 580.50 481.45 576.70 C 491.48 571.92 503.61 571.78 513.75 576.33 C 522.31 580.06 529.42 587.03 533.33 595.51 C 538.10 605.56 538.21 617.69 533.63 627.82 C 529.27 637.81 520.49 645.77 510.08 649.04 C 509.90 674.42 510.05 699.79 510.00 725.17 C 539.78 747.15 569.54 769.15 599.26 791.22 C 598.75 809.47 599.11 827.74 599.00 846.00 C 623.00 846.00 647.00 846.00 671.00 846.00 C 671.00 831.08 670.99 816.16 671.01 801.25 C 641.29 779.27 611.44 757.47 582.00 735.13 C 581.95 706.44 582.10 677.74 581.92 649.04 C 571.49 645.76 562.69 637.78 558.34 627.76 C 553.78 617.62 553.92 605.50 558.69 595.47 C 562.49 587.24 569.30 580.45 577.53 576.66 C 587.55 571.91 599.65 571.79 609.76 576.34 C 618.32 580.06 625.41 587.03 629.33 595.50 C 634.08 605.53 634.22 617.65 629.65 627.78 C 625.30 637.79 616.50 645.77 606.08 649.04 C 605.90 673.21 606.04 697.38 606.01 721.54 C 618.30 730.35 630.36 739.46 642.54 748.40 C 653.76 756.85 665.33 764.85 676.16 773.80 C 682.45 778.43 688.74 783.07 695.01 787.74 C 694.98 807.16 695.01 826.58 695.00 846.00 C 718.67 846.00 742.33 846.00 766.00 846.00 C 765.95 780.35 766.10 714.69 765.92 649.04 C 755.49 645.76 746.69 637.77 742.34 627.75 C 737.78 617.63 737.92 605.53 742.67 595.51 C 746.46 587.29 753.25 580.49 761.46 576.69 C 771.49 571.91 783.62 571.78 793.75 576.34 C 802.33 580.07 809.45 587.05 813.36 595.56 C 818.08 605.58 818.21 617.68 813.65 627.79 C 809.29 637.79 800.50 645.77 790.08 649.04 C 789.90 714.69 790.05 780.35 790.00 846.00 C 794.98 846.00 799.96 845.99 804.94 846.01 C 825.73 847.27 845.10 829.47 847.00 809.00 C 847.00 695.02 847.00 581.03 847.00 467.05 C 845.25 448.16 828.85 431.76 809.97 430.00 C 802.98 429.98 795.99 430.01 789.00 430.00 C 789.09 444.56 788.81 459.13 789.15 473.68 C 799.53 476.63 808.43 484.26 813.08 493.98 C 818.19 504.36 818.30 517.06 813.32 527.50 C 809.42 535.96 802.34 542.91 793.81 546.64 C 783.90 551.11 772.07 551.11 762.17 546.63 C 753.40 542.79 746.17 535.55 742.34 526.77 C 737.56 516.17 737.95 503.39 743.36 493.10 C 747.80 484.31 755.78 477.54 765.00 474.18 C 765.00 459.45 765.00 444.73 765.00 430.00 C 713.67 430.00 662.33 430.00 611.00 430.00 C 611.03 448.52 610.94 467.05 611.04 485.57 C 630.97 500.03 650.70 514.76 670.52 529.36 C 680.12 536.97 690.02 544.23 700.00 551.33 C 700.05 580.87 699.89 610.42 700.08 639.96 C 710.03 643.09 718.52 650.51 723.04 659.90 C 728.08 670.07 728.31 682.50 723.62 692.85 C 719.78 701.60 712.56 708.82 703.80 712.64 C 693.91 717.10 682.11 717.10 672.22 712.65 C 663.43 708.82 656.18 701.57 652.35 692.78 C 647.78 682.64 647.91 670.49 652.70 660.45 C 657.15 650.80 665.77 643.15 675.92 639.96 C 676.10 614.95 675.95 589.94 676.00 564.93 C 652.82 547.84 629.58 530.83 606.49 513.62 C 600.22 508.42 593.48 503.83 587.00 498.91 C 587.00 475.94 587.00 452.97 587.00 430.00 C 547.33 430.00 507.66 430.00 467.99 430.00 C 449.15 431.78 432.79 448.13 431.00 466.98 M 772.45 493.69 C 765.23 495.66 759.55 502.42 759.10 509.94 C 758.30 517.52 762.82 525.18 769.74 528.31 C 776.57 531.47 785.35 530.07 790.57 524.55 C 795.87 519.51 797.38 511.17 794.62 504.47 C 791.30 495.95 781.21 491.04 772.45 493.69 M 493.43 594.70 C 486.21 596.68 480.54 603.44 480.09 610.96 C 479.29 618.54 483.83 626.17 490.73 629.30 C 497.57 632.49 506.38 631.06 511.60 625.52 C 516.88 620.49 518.37 612.17 515.63 605.50 C 512.32 596.96 502.21 592.03 493.43 594.70 M 591.17 594.17 C 583.13 595.01 576.17 601.83 575.22 609.86 C 574.26 616.02 576.67 622.56 581.49 626.55 C 588.06 632.46 599.03 632.44 605.58 626.49 C 610.84 622.12 613.09 614.73 611.48 608.13 C 609.51 599.22 600.21 592.78 591.17 594.17 M 775.13 594.17 C 767.10 595.02 760.16 601.85 759.22 609.88 C 758.21 616.27 760.91 623.01 766.01 626.99 C 772.80 632.62 783.74 632.24 790.06 626.05 C 795.03 621.65 797.03 614.45 795.46 608.05 C 793.45 599.17 784.16 592.77 775.13 594.17 M 682.47 659.69 C 677.52 661.03 673.30 664.62 670.97 669.16 C 667.45 676.05 668.76 685.19 674.44 690.56 C 680.84 697.38 692.63 697.79 699.55 691.52 C 707.22 685.32 708.15 672.75 701.53 665.47 C 697.02 659.99 689.25 657.77 682.47 659.69 Z" />
</g>
<g id="#ffffffff">
<path fill="#ffffff" opacity="1.00" d=" M 431.00 466.98 C 432.79 448.13 449.15 431.78 467.99 430.00 C 507.66 430.00 547.33 430.00 587.00 430.00 C 587.00 452.97 587.00 475.94 587.00 498.91 C 593.48 503.83 600.22 508.42 606.49 513.62 C 629.58 530.83 652.82 547.84 676.00 564.93 C 675.95 589.94 676.10 614.95 675.92 639.96 C 665.77 643.15 657.15 650.80 652.70 660.45 C 647.91 670.49 647.78 682.64 652.35 692.78 C 656.18 701.57 663.43 708.82 672.22 712.65 C 682.11 717.10 693.91 717.10 703.80 712.64 C 712.56 708.82 719.78 701.60 723.62 692.85 C 728.31 682.50 728.08 670.07 723.04 659.90 C 718.52 650.51 710.03 643.09 700.08 639.96 C 699.89 610.42 700.05 580.87 700.00 551.33 C 690.02 544.23 680.12 536.97 670.52 529.36 C 650.70 514.76 630.97 500.03 611.04 485.57 C 610.94 467.05 611.03 448.52 611.00 430.00 C 662.33 430.00 713.67 430.00 765.00 430.00 C 765.00 444.73 765.00 459.45 765.00 474.18 C 755.78 477.54 747.80 484.31 743.36 493.10 C 737.95 503.39 737.56 516.17 742.34 526.77 C 746.17 535.55 753.40 542.79 762.17 546.63 C 772.07 551.11 783.90 551.11 793.81 546.64 C 802.34 542.91 809.42 535.96 813.32 527.50 C 818.30 517.06 818.19 504.36 813.08 493.98 C 808.43 484.26 799.53 476.63 789.15 473.68 C 788.81 459.13 789.09 444.56 789.00 430.00 C 795.99 430.01 802.98 429.98 809.97 430.00 C 828.85 431.76 845.25 448.16 847.00 467.05 C 847.00 581.03 847.00 695.02 847.00 809.00 C 845.10 829.47 825.73 847.27 804.94 846.01 C 799.96 845.99 794.98 846.00 790.00 846.00 C 790.05 780.35 789.90 714.69 790.08 649.04 C 800.50 645.77 809.29 637.79 813.65 627.79 C 818.21 617.68 818.08 605.58 813.36 595.56 C 809.45 587.05 802.33 580.07 793.75 576.34 C 783.62 571.78 771.49 571.91 761.46 576.69 C 753.25 580.49 746.46 587.29 742.67 595.51 C 737.92 605.53 737.78 617.63 742.34 627.75 C 746.69 637.77 755.49 645.76 765.92 649.04 C 766.10 714.69 765.95 780.35 766.00 846.00 C 742.33 846.00 718.67 846.00 695.00 846.00 C 695.01 826.58 694.98 807.16 695.01 787.74 C 688.74 783.07 682.45 778.43 676.16 773.80 C 665.33 764.85 653.76 756.85 642.54 748.40 C 630.36 739.46 618.30 730.35 606.01 721.54 C 606.04 697.38 605.90 673.21 606.08 649.04 C 616.50 645.77 625.30 637.79 629.65 627.78 C 634.22 617.65 634.08 605.53 629.33 595.50 C 625.41 587.03 618.32 580.06 609.76 576.34 C 599.65 571.79 587.55 571.91 577.53 576.66 C 569.30 580.45 562.49 587.24 558.69 595.47 C 553.92 605.50 553.78 617.62 558.34 627.76 C 562.69 637.78 571.49 645.76 581.92 649.04 C 582.10 677.74 581.95 706.44 582.00 735.13 C 611.44 757.47 641.29 779.27 671.01 801.25 C 670.99 816.16 671.00 831.08 671.00 846.00 C 647.00 846.00 623.00 846.00 599.00 846.00 C 599.11 827.74 598.75 809.47 599.26 791.22 C 569.54 769.15 539.78 747.15 510.00 725.17 C 510.05 699.79 509.90 674.42 510.08 649.04 C 520.49 645.77 529.27 637.81 533.63 627.82 C 538.21 617.69 538.10 605.56 533.33 595.51 C 529.42 587.03 522.31 580.06 513.75 576.33 C 503.61 571.78 491.48 571.92 481.45 576.70 C 473.24 580.50 466.46 587.30 462.67 595.51 C 457.90 605.56 457.79 617.70 462.37 627.83 C 466.73 637.82 475.52 645.77 485.92 649.05 C 486.09 679.02 485.97 709.00 485.98 738.98 C 515.50 761.21 545.24 783.14 575.00 805.05 C 574.99 818.70 575.00 832.35 575.00 846.00 C 539.34 846.00 503.67 846.00 468.01 846.00 C 447.55 844.10 429.77 824.78 430.99 804.02 C 431.01 691.67 430.99 579.32 431.00 466.98 Z" />
<path fill="#ffffff" opacity="1.00" d=" M 772.45 493.69 C 781.21 491.04 791.30 495.95 794.62 504.47 C 797.38 511.17 795.87 519.51 790.57 524.55 C 785.35 530.07 776.57 531.47 769.74 528.31 C 762.82 525.18 758.30 517.52 759.10 509.94 C 759.55 502.42 765.23 495.66 772.45 493.69 Z" />
<path fill="#ffffff" opacity="1.00" d=" M 493.43 594.70 C 502.21 592.03 512.32 596.96 515.63 605.50 C 518.37 612.17 516.88 620.49 511.60 625.52 C 506.38 631.06 497.57 632.49 490.73 629.30 C 483.83 626.17 479.29 618.54 480.09 610.96 C 480.54 603.44 486.21 596.68 493.43 594.70 Z" />
<path fill="#ffffff" opacity="1.00" d=" M 591.17 594.17 C 600.21 592.78 609.51 599.22 611.48 608.13 C 613.09 614.73 610.84 622.12 605.58 626.49 C 599.03 632.44 588.06 632.46 581.49 626.55 C 576.67 622.56 574.26 616.02 575.22 609.86 C 576.17 601.83 583.13 595.01 591.17 594.17 Z" />
<path fill="#ffffff" opacity="1.00" d=" M 775.13 594.17 C 784.16 592.77 793.45 599.17 795.46 608.05 C 797.03 614.45 795.03 621.65 790.06 626.05 C 783.74 632.24 772.80 632.62 766.01 626.99 C 760.91 623.01 758.21 616.27 759.22 609.88 C 760.16 601.85 767.10 595.02 775.13 594.17 Z" />
<path fill="#ffffff" opacity="1.00" d=" M 682.47 659.69 C 689.25 657.77 697.02 659.99 701.53 665.47 C 708.15 672.75 707.22 685.32 699.55 691.52 C 692.63 697.79 680.84 697.38 674.44 690.56 C 668.76 685.19 667.45 676.05 670.97 669.16 C 673.30 664.62 677.52 661.03 682.47 659.69 Z" />
</g>
</svg>
