<?xml version="1.0" encoding="UTF-8" ?>
<!DOCTYPE svg PUBLIC "-//W3C//DTD SVG 1.1//EN" "http://www.w3.org/Graphics/SVG/1.1/DTD/svg11.dtd">
<svg width="1276pt" height="1276pt" viewBox="0 0 1276 1276" version="1.1" xmlns="http://www.w3.org/2000/svg">
<g id="#18232534">
<path fill="#182325" opacity="0.20" d=" M 618.48 182.26 C 619.22 180.97 620.39 179.99 621.97 180.18 C 633.65 179.74 645.35 179.97 657.03 180.40 C 658.53 180.15 659.57 181.14 660.34 182.32 C 654.21 182.44 648.09 182.31 641.98 181.95 C 634.14 181.46 626.32 182.49 618.48 182.26 Z" />
</g>
<g id="#4262688f">
<path fill="#426268" opacity="0.56" d=" M 586.50 184.79 C 596.90 181.94 607.80 182.53 618.48 182.26 C 626.32 182.49 634.14 181.46 641.98 181.95 C 648.09 182.31 654.21 182.44 660.34 182.32 C 670.29 182.52 680.49 182.22 690.16 184.74 C 681.68 185.38 673.31 182.97 664.81 183.74 C 655.21 183.45 645.61 183.52 636.01 183.46 C 625.97 183.57 615.89 183.19 605.89 184.39 C 599.90 184.81 593.94 186.43 587.91 185.76 L 586.50 184.79 Z" />
</g>
<g id="#78b1bbff">
<path fill="#78b1bb" opacity="1.00" d=" M 587.91 185.76 C 593.94 186.43 599.90 184.81 605.89 184.39 C 615.89 183.19 625.97 183.57 636.01 183.46 C 645.61 183.52 655.21 183.45 664.81 183.74 C 673.76 185.41 682.84 186.38 691.94 186.50 C 697.72 186.63 703.17 188.96 708.94 189.19 C 712.32 189.33 715.72 189.66 718.98 190.64 C 723.71 192.03 728.73 191.91 733.47 193.27 C 738.23 194.57 743.07 195.49 747.92 196.37 C 748.39 196.26 749.31 196.02 749.78 195.90 C 749.58 196.05 749.19 196.35 748.99 196.51 C 750.85 196.46 752.70 196.51 754.58 196.50 L 754.45 197.47 C 756.15 197.46 757.89 197.49 759.61 197.48 L 759.33 198.38 C 759.97 198.65 761.27 199.19 761.92 199.46 C 763.13 199.49 764.34 199.50 765.58 199.50 L 765.49 200.49 C 766.87 200.46 768.27 200.43 769.67 200.40 L 769.38 201.40 C 772.83 202.00 776.11 203.45 779.65 203.64 L 779.43 204.93 C 779.94 204.74 780.97 204.35 781.48 204.16 L 781.39 205.47 C 783.76 205.53 786.14 205.66 788.52 205.76 C 788.42 206.21 788.23 207.11 788.13 207.56 C 788.72 207.54 789.90 207.50 790.50 207.48 L 790.50 208.37 C 792.58 208.49 794.57 209.18 796.60 209.66 L 796.44 210.91 C 796.95 210.72 797.98 210.35 798.49 210.16 L 798.42 211.45 C 800.13 211.48 801.87 211.55 803.60 211.60 C 803.55 212.09 803.43 213.08 803.37 213.57 C 803.93 213.49 805.03 213.31 805.59 213.23 L 805.49 214.43 C 807.19 214.48 808.88 214.55 810.61 214.60 C 810.53 215.22 810.46 215.83 810.41 216.45 C 811.77 216.47 813.14 216.48 814.53 216.49 L 814.48 217.59 C 815.27 217.55 816.85 217.45 817.64 217.41 L 817.21 218.77 L 818.70 218.23 L 818.44 219.34 C 819.70 219.39 820.87 219.74 821.95 220.40 C 822.63 220.44 824.00 220.53 824.69 220.57 C 824.57 221.17 824.47 221.77 824.38 222.37 C 825.77 222.42 827.18 222.46 828.59 222.51 L 828.51 223.79 C 829.03 223.64 830.08 223.35 830.60 223.20 C 830.53 223.59 830.39 224.39 830.32 224.78 C 830.85 224.67 831.91 224.43 832.44 224.32 L 832.39 225.56 C 833.77 225.58 835.16 225.61 836.56 225.65 C 836.49 226.14 836.34 227.12 836.27 227.61 C 836.84 227.54 837.97 227.40 838.53 227.33 L 838.43 228.58 C 839.22 228.53 840.80 228.43 841.59 228.37 L 841.30 229.68 L 842.74 229.25 L 842.42 230.37 C 844.15 230.76 845.84 231.35 847.60 231.71 C 847.57 232.15 847.52 233.02 847.49 233.45 C 848.25 233.44 849.76 233.42 850.51 233.41 L 850.50 234.53 C 851.27 234.53 852.82 234.52 853.59 234.51 C 853.55 235.01 853.46 236.00 853.42 236.49 C 854.20 236.47 855.77 236.43 856.55 236.41 L 856.47 237.56 C 857.23 237.55 858.74 237.55 859.50 237.54 C 859.48 238.04 859.45 239.02 859.44 239.52 C 860.22 239.50 861.78 239.46 862.56 239.44 L 862.42 240.73 C 862.94 240.65 863.97 240.49 864.48 240.41 C 864.48 240.87 864.48 241.79 864.47 242.24 C 865.65 242.45 866.82 242.74 867.97 243.11 C 868.42 243.48 869.31 244.21 869.76 244.57 L 870.61 244.34 L 870.45 245.56 C 871.23 245.55 872.81 245.55 873.59 245.55 C 873.55 246.05 873.45 247.06 873.41 247.56 C 873.95 247.50 875.03 247.38 875.57 247.32 L 875.54 248.80 C 876.04 248.63 877.05 248.29 877.56 248.12 L 877.29 249.64 L 878.82 249.35 L 878.42 250.85 C 878.93 250.67 879.95 250.32 880.46 250.15 L 880.49 251.33 C 882.13 251.40 883.73 251.73 883.82 253.72 C 884.22 253.58 885.02 253.30 885.42 253.15 L 885.54 254.63 C 886.04 254.55 887.04 254.40 887.54 254.32 L 887.29 255.65 L 888.55 255.48 L 888.39 256.78 L 889.66 256.27 L 889.49 257.53 C 890.23 257.54 891.70 257.56 892.44 257.57 C 892.44 258.05 892.46 259.01 892.46 259.49 C 893.14 259.51 894.50 259.56 895.17 259.58 C 895.69 260.54 896.23 261.50 896.77 262.46 C 897.46 262.49 898.84 262.54 899.52 262.57 C 899.53 263.03 899.54 263.96 899.54 264.42 C 900.25 264.45 901.68 264.51 902.40 264.54 L 902.32 265.73 L 903.67 265.35 L 903.26 266.55 L 904.54 266.42 L 904.55 267.74 L 905.74 267.23 L 905.50 268.49 C 906.25 268.52 907.76 268.57 908.51 268.59 C 908.47 269.10 908.41 270.13 908.37 270.64 C 908.91 270.57 909.98 270.42 910.51 270.35 L 910.29 271.53 L 911.54 271.40 L 911.55 272.70 L 912.71 272.27 L 912.47 273.70 C 912.99 273.60 914.02 273.38 914.53 273.28 L 914.28 274.42 L 915.34 274.55 L 915.77 275.38 C 916.69 275.83 917.63 276.26 918.59 276.68 L 918.31 277.80 L 919.70 277.19 L 919.37 278.65 C 919.89 278.61 920.92 278.55 921.43 278.52 C 921.47 279.01 921.54 279.99 921.57 280.48 C 922.07 280.46 923.06 280.43 923.55 280.41 L 923.32 281.79 L 924.65 281.33 L 924.42 282.70 C 924.84 282.65 925.67 282.56 926.08 282.51 C 926.43 284.29 928.14 284.99 929.55 285.81 L 929.24 286.56 L 930.48 286.46 L 930.63 287.48 C 931.61 287.86 932.60 288.24 933.61 288.62 L 933.26 289.50 L 934.41 289.58 L 934.75 290.29 C 936.72 291.62 938.37 293.34 940.13 294.93 C 940.61 295.96 941.43 296.55 942.60 296.68 L 942.31 297.75 L 943.47 297.23 L 943.44 298.55 L 944.74 298.50 L 944.47 299.18 C 948.41 301.32 950.58 305.73 954.57 307.76 L 954.24 308.52 L 955.56 308.44 L 955.49 309.80 L 956.75 309.23 L 956.22 310.49 L 957.57 310.43 L 957.49 311.78 L 958.52 311.20 L 958.43 312.57 L 959.80 312.47 L 959.22 313.50 L 960.58 313.43 L 960.49 314.79 L 961.51 314.20 L 961.44 315.56 L 962.80 315.49 L 962.27 316.71 L 963.73 316.29 L 963.24 317.74 L 964.46 317.27 L 964.46 318.59 L 965.78 318.49 L 965.24 319.52 L 966.58 319.42 L 966.49 320.78 L 967.74 320.24 L 967.29 321.72 L 968.75 321.25 L 968.27 322.70 L 969.54 322.23 L 969.39 323.58 L 970.76 323.50 L 970.23 324.69 L 971.19 324.45 C 971.79 326.00 973.01 327.12 974.45 327.93 C 974.48 328.20 974.55 328.75 974.59 329.02 C 976.30 330.18 977.81 331.64 978.85 333.46 L 979.75 333.32 L 979.35 334.66 L 980.50 334.26 L 980.47 335.52 L 981.75 335.55 L 981.23 336.45 L 982.49 336.49 L 982.52 337.71 L 983.18 337.51 C 984.12 339.38 986.02 340.56 986.84 342.52 L 987.52 342.26 L 987.54 343.43 L 988.31 343.72 C 989.11 345.04 989.79 346.62 991.54 346.88 C 991.47 347.30 991.34 348.15 991.28 348.57 L 992.21 348.43 C 993.47 350.63 995.40 352.33 996.91 354.36 L 997.75 354.43 L 997.25 355.71 L 998.64 355.41 C 998.60 355.92 998.52 356.95 998.48 357.46 C 999.00 357.47 1000.05 357.49 1000.58 357.50 C 1000.49 358.03 1000.33 359.09 1000.25 359.61 L 1001.70 359.30 L 1001.21 360.72 L 1002.70 360.42 C 1002.61 360.94 1002.42 361.97 1002.32 362.49 L 1003.76 362.37 L 1003.47 363.35 C 1004.72 364.61 1006.12 365.84 1006.77 367.56 L 1007.42 367.39 C 1007.80 368.46 1008.18 369.53 1008.58 370.61 L 1009.46 370.27 L 1009.41 371.52 L 1010.67 371.59 L 1010.31 372.74 L 1011.73 372.49 C 1011.61 373.00 1011.38 374.02 1011.26 374.53 L 1012.72 374.42 C 1012.67 374.93 1012.56 375.93 1012.50 376.44 C 1013.03 376.45 1014.09 376.48 1014.63 376.50 C 1014.53 377.01 1014.34 378.05 1014.24 378.56 L 1015.63 378.45 C 1015.57 378.95 1015.46 379.95 1015.41 380.45 L 1016.72 380.31 L 1016.40 381.63 L 1017.85 381.56 C 1017.68 382.05 1017.33 383.05 1017.15 383.54 L 1018.67 383.21 L 1018.31 384.70 L 1019.47 384.35 C 1019.80 385.44 1020.14 386.54 1020.50 387.65 L 1021.37 387.37 C 1021.78 388.43 1022.19 389.50 1022.61 390.58 L 1023.71 390.46 C 1023.62 390.98 1023.43 392.02 1023.34 392.53 C 1023.86 392.53 1024.90 392.52 1025.43 392.52 C 1025.44 393.27 1025.47 394.77 1025.48 395.53 L 1026.74 395.34 L 1026.21 396.64 L 1027.63 396.52 C 1027.57 397.03 1027.44 398.06 1027.37 398.57 L 1028.82 398.45 C 1028.68 398.96 1028.40 399.97 1028.26 400.48 L 1029.72 400.43 C 1029.65 400.95 1029.53 402.00 1029.46 402.52 C 1029.96 402.49 1030.96 402.44 1031.46 402.41 C 1031.46 403.20 1031.46 404.79 1031.47 405.59 L 1032.74 405.40 C 1032.66 405.91 1032.51 406.92 1032.43 407.43 C 1032.94 407.45 1033.95 407.49 1034.46 407.51 C 1034.45 408.27 1034.43 409.80 1034.42 410.56 L 1035.74 410.40 C 1035.67 410.91 1035.52 411.93 1035.45 412.44 C 1035.95 412.46 1036.96 412.51 1037.47 412.53 C 1037.44 413.30 1037.39 414.84 1037.37 415.61 L 1038.67 415.32 L 1038.28 416.86 L 1039.36 416.38 C 1039.71 418.12 1040.23 419.82 1040.67 421.55 C 1041.11 421.55 1042.00 421.55 1042.44 421.55 C 1042.43 422.29 1042.41 423.79 1042.40 424.53 L 1043.54 424.46 C 1043.55 425.23 1043.56 426.76 1043.57 427.53 C 1044.05 427.50 1045.01 427.42 1045.49 427.39 C 1045.48 428.18 1045.47 429.77 1045.47 430.57 L 1046.79 430.48 C 1046.65 430.99 1046.36 432.02 1046.21 432.53 L 1047.71 432.24 L 1047.28 433.69 L 1048.56 433.42 C 1048.53 434.21 1048.46 435.78 1048.43 436.57 L 1049.77 436.48 C 1049.64 437.00 1049.38 438.04 1049.25 438.56 L 1050.49 438.32 C 1051.05 440.03 1051.54 441.78 1051.72 443.58 C 1052.15 443.56 1053.02 443.51 1053.45 443.48 C 1053.44 444.25 1053.42 445.79 1053.41 446.56 L 1054.59 446.44 C 1054.54 447.23 1054.44 448.82 1054.39 449.61 L 1055.70 449.23 L 1055.26 450.77 L 1056.58 450.37 C 1056.56 451.15 1056.51 452.71 1056.49 453.49 L 1057.88 453.55 C 1057.68 454.04 1057.29 455.00 1057.09 455.49 L 1058.71 455.51 C 1058.58 456.04 1058.33 457.09 1058.20 457.61 L 1059.60 457.36 C 1059.56 458.15 1059.48 459.74 1059.44 460.53 L 1060.59 460.45 C 1060.57 461.24 1060.51 462.83 1060.48 463.62 C 1060.96 463.58 1061.92 463.49 1062.40 463.45 C 1062.41 464.79 1062.43 466.15 1062.47 467.51 L 1063.52 467.52 C 1063.51 468.32 1063.50 469.92 1063.49 470.72 C 1063.95 470.64 1064.88 470.49 1065.35 470.41 C 1065.40 472.12 1065.46 473.81 1065.54 475.53 L 1066.69 475.48 C 1066.57 476.25 1066.34 477.80 1066.22 478.58 C 1066.50 477.92 1067.06 476.60 1067.34 475.94 C 1067.57 479.20 1068.80 482.30 1068.74 485.60 C 1069.18 485.52 1070.06 485.36 1070.50 485.28 C 1070.49 486.11 1070.45 487.75 1070.43 488.57 L 1071.49 488.41 C 1071.49 490.13 1071.55 491.87 1071.59 493.60 L 1072.83 493.05 L 1072.28 494.63 L 1073.66 494.36 C 1073.61 495.15 1073.52 496.74 1073.47 497.53 L 1074.53 497.42 C 1074.51 498.87 1074.50 500.33 1074.52 501.79 C 1074.96 501.70 1075.85 501.52 1076.29 501.43 C 1076.37 503.47 1076.48 505.51 1076.57 507.57 L 1077.63 507.44 C 1077.53 508.25 1077.33 509.86 1077.22 510.67 L 1078.47 510.38 C 1078.46 511.77 1078.46 513.17 1078.48 514.57 L 1079.56 514.40 C 1079.52 515.79 1079.49 517.19 1079.48 518.59 L 1080.96 518.57 C 1080.63 519.09 1079.96 520.12 1079.63 520.64 L 1081.41 520.33 C 1081.43 522.08 1081.45 523.82 1081.49 525.59 L 1082.48 525.45 C 1082.46 527.13 1082.49 528.83 1082.49 530.53 L 1083.36 530.45 C 1083.62 534.87 1086.09 538.90 1085.61 543.42 L 1086.56 543.52 C 1086.50 544.88 1086.45 546.24 1086.41 547.61 L 1087.56 547.38 C 1087.51 549.08 1087.51 550.80 1087.48 552.51 L 1088.49 552.44 C 1088.47 555.15 1088.56 557.87 1088.58 560.59 L 1089.87 560.42 C 1089.69 560.99 1089.35 562.15 1089.17 562.72 L 1090.46 562.33 C 1089.98 567.20 1091.89 571.87 1091.40 576.74 C 1091.74 576.64 1092.43 576.45 1092.77 576.35 L 1091.49 577.53 L 1090.97 578.03 C 1091.94 586.00 1093.62 593.92 1093.56 601.99 C 1093.44 607.52 1094.39 613.00 1094.56 618.52 C 1094.03 632.36 1095.04 646.24 1093.84 660.06 C 1093.33 665.72 1093.55 671.40 1093.28 677.07 C 1093.03 682.14 1092.14 687.14 1091.43 692.16 C 1089.85 709.29 1086.42 726.18 1082.59 742.94 C 1078.97 758.76 1073.89 774.20 1068.99 789.65 C 1068.58 791.27 1068.55 792.93 1068.48 794.61 L 1067.48 794.44 C 1067.50 795.24 1067.55 796.83 1067.57 797.62 L 1066.15 797.37 C 1066.30 797.90 1066.60 798.95 1066.75 799.48 L 1065.46 799.44 C 1065.47 800.80 1065.49 802.16 1065.53 803.54 L 1064.50 803.42 C 1064.11 804.64 1063.70 805.86 1063.30 807.09 L 1062.42 807.63 C 1059.84 811.45 1058.55 815.93 1056.68 820.11 C 1034.33 871.32 1002.10 918.03 963.03 957.92 C 935.58 985.16 905.12 1009.49 871.76 1029.16 C 853.39 1040.30 834.05 1049.79 814.32 1058.26 C 799.66 1064.41 784.54 1069.33 769.49 1074.41 C 758.36 1077.41 747.33 1080.90 735.96 1082.89 C 719.38 1086.99 702.36 1088.82 685.45 1091.10 C 673.95 1091.50 662.55 1093.69 651.02 1093.45 C 638.98 1093.49 626.92 1093.77 614.91 1092.90 C 614.38 1092.96 613.30 1093.07 612.77 1093.12 C 610.97 1093.35 609.16 1093.44 607.37 1093.61 L 607.63 1092.54 C 603.21 1092.63 598.80 1092.38 594.38 1092.48 L 594.63 1091.50 C 588.59 1091.58 582.57 1091.25 576.54 1091.27 C 576.57 1090.78 576.63 1089.80 576.66 1089.31 C 576.10 1089.41 574.97 1089.61 574.41 1089.71 L 574.61 1088.31 C 574.10 1088.37 573.09 1088.47 572.58 1088.53 C 572.54 1087.13 572.51 1085.75 572.49 1084.37 L 571.45 1084.72 L 571.54 1082.31 L 572.63 1082.60 C 572.61 1081.84 572.57 1080.32 572.55 1079.55 C 573.09 1079.56 574.17 1079.58 574.71 1079.59 C 574.67 1079.11 574.57 1078.15 574.52 1077.67 C 576.61 1077.56 578.70 1077.48 580.80 1077.38 C 587.91 1076.01 594.82 1073.46 601.75 1071.27 C 640.94 1058.10 678.39 1039.71 712.65 1016.56 C 790.81 963.95 852.14 886.69 885.17 798.41 C 888.79 789.50 891.36 780.22 894.64 771.19 C 895.05 769.81 895.30 768.40 895.63 767.02 C 895.99 765.36 896.48 763.74 897.05 762.15 L 897.91 760.75 C 900.38 754.21 901.41 747.25 903.35 740.55 C 904.32 737.15 904.73 733.64 905.08 730.14 C 906.31 722.05 907.69 713.98 908.91 705.90 C 909.57 698.55 911.38 691.36 911.83 683.99 C 912.79 677.01 912.17 669.92 913.28 662.95 C 913.93 647.63 913.76 632.27 913.46 616.94 C 912.18 606.47 912.64 595.89 911.18 585.43 C 910.86 587.24 910.59 589.08 910.33 590.92 C 911.36 583.37 909.31 575.92 909.04 568.39 L 907.48 568.43 C 907.49 566.40 907.48 564.38 907.51 562.36 L 906.45 562.66 C 906.48 560.58 906.46 558.51 906.51 556.44 L 905.55 556.54 C 905.53 554.47 905.49 552.41 905.50 550.35 L 904.39 550.65 C 904.44 549.23 904.50 547.81 904.58 546.40 L 903.49 546.59 C 903.49 544.55 903.45 542.51 903.48 540.49 L 902.36 540.53 L 902.82 539.08 L 901.72 539.42 C 901.63 537.86 901.52 536.31 901.41 534.78 C 900.26 532.82 900.52 530.51 900.49 528.35 L 899.45 528.56 C 899.53 527.74 899.68 526.10 899.75 525.28 L 898.51 525.64 C 898.52 524.21 898.55 522.79 898.60 521.38 L 897.54 521.61 C 897.52 519.55 897.44 517.49 897.43 515.45 L 896.45 515.68 C 896.38 514.34 896.29 513.01 896.16 511.69 C 895.81 507.29 894.00 503.22 892.70 499.06 C 871.91 434.18 836.26 374.11 789.33 324.73 C 744.22 276.94 688.61 239.15 627.66 214.61 C 622.88 212.93 618.32 210.60 613.31 209.63 C 611.05 209.02 608.78 208.35 606.42 208.36 L 606.51 207.20 C 606.00 207.36 604.97 207.67 604.45 207.83 L 604.51 206.44 C 603.76 206.48 602.24 206.55 601.49 206.59 L 601.59 205.43 C 600.21 205.47 598.83 205.51 597.47 205.55 L 597.53 204.76 C 596.92 204.46 595.70 203.87 595.08 203.57 C 594.42 203.55 593.09 203.51 592.43 203.49 L 592.54 202.45 C 591.15 202.50 589.76 202.55 588.38 202.60 L 588.40 200.96 C 587.90 201.36 586.92 202.15 586.43 202.55 L 586.59 200.31 C 586.04 200.46 584.94 200.77 584.38 200.92 L 584.51 199.68 C 582.12 199.64 579.75 199.55 577.38 199.51 L 577.59 198.22 C 577.07 198.35 576.03 198.60 575.51 198.73 L 575.65 197.62 C 574.61 197.15 573.57 196.70 572.53 196.25 C 572.27 193.20 572.17 190.06 573.69 187.29 C 574.17 187.42 575.14 187.68 575.62 187.81 L 575.33 186.39 C 576.70 186.42 578.07 186.46 579.45 186.51 L 579.51 185.55 C 582.31 185.56 585.12 185.41 587.91 185.76 Z" />
<path fill="#78b1bb" opacity="1.00" d=" M 430.36 365.45 C 436.28 366.13 442.03 364.16 447.94 364.58 C 456.31 364.77 464.76 363.95 473.04 365.40 C 476.91 365.59 480.78 365.57 484.65 365.60 C 484.56 366.16 484.47 366.74 484.39 367.31 C 489.14 367.28 493.90 367.54 498.66 367.50 L 498.38 368.54 C 500.13 368.48 501.88 368.46 503.65 368.42 L 503.37 369.57 C 505.08 369.51 506.79 369.50 508.52 369.46 L 508.48 370.50 C 510.21 370.44 511.95 370.42 513.69 370.37 L 513.41 371.46 C 515.15 371.45 516.89 371.46 518.64 371.46 L 518.32 372.43 C 522.09 372.52 525.71 373.86 529.52 373.72 C 529.47 374.18 529.37 375.08 529.33 375.53 C 530.14 375.50 531.76 375.43 532.57 375.40 L 532.48 376.61 C 533.01 376.58 534.08 376.53 534.62 376.50 C 534.53 377.02 534.36 378.06 534.27 378.58 L 535.57 378.39 C 535.52 380.03 535.49 381.67 535.46 383.32 C 534.44 383.79 533.41 384.27 532.40 384.75 C 532.44 385.12 532.51 385.86 532.55 386.23 C 531.32 386.43 530.16 386.82 529.06 387.40 C 528.39 387.44 527.06 387.52 526.39 387.55 C 526.44 388.18 526.49 388.82 526.55 389.46 C 525.78 389.45 524.23 389.42 523.46 389.41 L 523.51 390.47 C 522.18 390.51 520.84 390.56 519.52 390.62 C 519.54 391.10 519.60 392.07 519.62 392.55 C 518.83 392.53 517.25 392.49 516.45 392.47 L 516.54 393.57 C 515.77 393.56 514.22 393.55 513.45 393.54 C 513.49 394.03 513.58 395.00 513.62 395.49 C 512.83 395.49 511.26 395.48 510.47 395.47 L 510.45 396.86 C 509.95 396.69 508.94 396.36 508.44 396.20 L 508.87 397.72 L 507.36 397.36 L 507.51 398.90 C 507.02 398.71 506.02 398.33 505.53 398.14 L 505.57 399.37 C 504.50 399.76 503.44 400.16 502.38 400.57 L 502.57 401.54 C 501.76 401.54 500.13 401.53 499.32 401.53 C 499.38 401.99 499.50 402.93 499.56 403.40 C 498.79 403.43 497.24 403.47 496.47 403.50 L 496.59 404.76 C 496.06 404.67 495.00 404.51 494.47 404.43 C 494.48 404.97 494.52 406.05 494.53 406.59 C 494.01 406.51 492.97 406.36 492.45 406.29 L 492.49 407.70 C 491.98 407.58 490.96 407.35 490.45 407.24 L 490.61 408.43 C 489.55 408.81 488.50 409.18 487.45 409.56 L 487.46 410.63 C 486.97 410.56 485.97 410.42 485.47 410.35 L 485.72 411.41 C 485.35 411.66 484.60 412.16 484.22 412.41 C 483.34 412.79 482.45 413.16 481.56 413.53 L 481.48 414.61 L 480.19 414.43 L 480.52 415.77 C 480.01 415.62 479.00 415.33 478.50 415.19 L 478.55 416.18 C 476.84 417.37 475.18 418.64 473.40 419.73 L 473.62 420.66 C 473.10 420.62 472.07 420.53 471.55 420.49 C 471.52 420.99 471.46 421.99 471.43 422.49 C 470.93 422.46 469.92 422.38 469.41 422.35 L 469.63 423.44 C 468.53 423.81 467.44 424.18 466.35 424.55 L 466.77 425.70 L 465.56 425.28 L 465.55 426.58 L 464.26 426.53 L 464.60 427.69 C 464.08 427.64 463.04 427.54 462.52 427.48 C 462.51 427.89 462.49 428.70 462.48 429.11 C 461.13 429.98 459.81 430.91 458.48 431.81 L 458.70 432.79 L 457.31 432.27 L 457.74 433.49 L 456.46 433.42 L 456.46 434.71 L 455.35 434.28 L 455.47 435.17 C 453.24 436.34 451.73 438.45 449.70 439.90 L 449.63 440.69 L 448.87 440.57 C 444.04 446.81 437.52 451.55 432.74 457.84 C 431.76 458.98 430.80 460.14 430.11 461.48 C 429.71 461.49 428.90 461.51 428.49 461.53 C 428.54 462.04 428.63 463.07 428.67 463.59 L 427.34 463.40 C 427.37 463.92 427.44 464.95 427.47 465.47 C 427.05 465.46 426.20 465.45 425.78 465.44 C 424.91 466.79 424.03 468.14 423.22 469.54 L 422.58 469.37 C 422.15 470.44 421.73 471.52 421.32 472.61 C 420.85 472.58 419.91 472.53 419.44 472.51 C 419.53 473.01 419.70 474.00 419.79 474.50 L 418.39 474.54 C 418.46 475.06 418.60 476.10 418.67 476.62 L 417.18 476.26 L 417.77 477.67 L 416.27 477.41 C 416.38 477.93 416.58 478.97 416.68 479.49 L 415.54 479.32 L 415.44 480.40 L 414.69 480.75 C 413.81 481.98 412.99 483.26 412.23 484.59 L 411.56 484.36 C 411.19 485.42 410.83 486.48 410.47 487.55 L 409.44 487.54 C 409.46 488.02 409.52 488.97 409.55 489.44 L 408.23 489.38 L 408.72 490.66 L 407.48 490.46 C 407.46 491.22 407.44 492.73 407.42 493.49 C 406.89 493.47 405.83 493.45 405.31 493.43 C 405.40 493.94 405.58 494.95 405.67 495.46 L 404.65 495.42 C 404.38 496.02 403.86 497.21 403.60 497.81 L 403.71 498.64 L 402.28 498.47 C 402.39 498.98 402.61 500.00 402.72 500.52 L 401.19 500.55 C 401.35 501.05 401.67 502.04 401.83 502.54 L 400.30 502.23 L 400.66 503.74 L 399.37 503.39 C 399.41 504.17 399.49 505.72 399.53 506.50 L 398.24 506.30 L 398.75 507.72 L 397.21 507.38 L 397.89 508.78 L 396.50 508.46 C 396.53 509.24 396.58 510.80 396.61 511.58 L 395.25 511.56 C 395.39 512.07 395.69 513.08 395.84 513.59 C 395.45 513.53 394.67 513.40 394.29 513.33 C 394.37 513.87 394.55 514.93 394.63 515.46 L 393.13 515.54 C 393.30 516.03 393.64 517.00 393.82 517.49 L 392.34 517.33 L 392.42 518.15 C 392.16 518.75 391.64 519.96 391.39 520.57 L 390.74 520.49 C 390.56 522.13 390.27 523.78 389.52 525.28 C 388.31 526.05 388.16 527.63 387.55 528.81 C 387.52 529.52 387.47 530.92 387.44 531.63 L 386.25 531.09 L 386.66 532.63 L 385.16 532.45 C 385.31 532.96 385.62 533.97 385.77 534.48 L 384.42 534.44 C 384.45 535.22 384.52 536.78 384.55 537.56 L 383.19 537.47 C 383.33 537.98 383.62 539.02 383.77 539.53 L 382.61 539.38 C 382.45 541.50 381.87 543.55 381.45 545.64 L 380.36 545.44 C 380.47 545.98 380.69 547.05 380.80 547.59 L 379.47 547.43 C 379.50 548.79 379.53 550.16 379.57 551.53 L 378.44 551.51 C 378.47 552.29 378.54 553.84 378.57 554.62 L 377.13 554.41 C 377.29 554.93 377.63 555.97 377.80 556.48 L 376.52 556.43 C 376.43 559.50 376.35 562.59 376.54 565.67 C 376.19 564.56 375.91 563.32 374.57 563.09 C 374.54 564.58 374.54 566.07 374.56 567.57 L 373.44 567.42 C 373.47 568.79 373.51 570.16 373.55 571.54 L 372.29 571.56 C 372.45 572.08 372.79 573.14 372.95 573.67 L 371.64 573.44 C 371.57 575.77 371.46 578.10 371.42 580.44 L 370.55 580.52 C 370.52 583.23 370.41 585.94 370.39 588.67 L 369.08 588.02 L 369.87 589.67 L 368.55 589.38 C 368.44 596.96 367.76 604.57 368.71 612.13 C 368.00 611.42 367.29 610.72 366.58 610.04 L 366.41 612.71 L 365.47 612.33 C 365.61 620.38 365.20 628.44 365.42 636.50 L 364.58 636.48 C 364.61 638.17 364.61 639.86 364.59 641.56 L 365.43 641.43 C 365.24 649.50 365.60 657.58 365.55 665.65 L 366.86 665.23 L 366.07 666.92 L 367.49 666.35 C 367.33 667.46 367.58 668.69 367.05 669.75 L 366.45 671.06 C 366.48 681.24 369.63 690.98 371.01 700.98 C 373.74 709.55 375.60 718.39 378.74 726.83 C 389.76 759.02 406.86 789.13 428.94 815.01 C 434.41 822.14 441.16 828.13 447.19 834.77 C 464.94 851.74 484.74 866.64 506.29 878.45 C 514.15 883.35 522.90 886.51 531.07 890.82 C 533.09 891.93 535.54 894.37 534.16 896.84 C 533.76 897.89 533.33 898.95 532.87 900.00 C 532.74 900.31 532.46 900.93 532.33 901.24 L 532.00 901.26 C 523.35 901.77 515.15 905.13 506.60 906.39 C 500.92 904.88 495.54 907.72 489.97 908.26 C 471.95 909.16 453.84 910.66 435.82 908.84 C 430.84 908.42 425.83 908.77 420.86 908.26 C 415.33 906.46 409.51 906.33 403.83 905.40 C 397.56 903.71 391.16 902.58 384.83 901.16 C 384.66 901.30 384.33 901.59 384.16 901.74 C 382.61 901.56 381.08 901.43 379.54 901.34 L 379.56 900.36 C 378.78 900.41 377.22 900.51 376.44 900.56 L 376.60 899.35 C 375.81 899.41 374.22 899.53 373.42 899.59 L 373.58 898.35 C 372.81 898.41 371.27 898.53 370.50 898.59 L 370.55 897.52 C 369.01 897.48 367.47 897.42 365.94 897.35 C 366.47 896.55 367.11 895.87 367.89 895.32 C 365.92 895.78 363.91 895.57 361.93 895.39 C 360.81 894.82 359.62 894.47 358.37 894.33 L 358.59 893.16 C 358.07 893.31 357.02 893.61 356.50 893.77 L 356.59 892.41 C 355.83 892.46 354.31 892.57 353.56 892.62 L 353.42 891.39 C 352.92 891.45 351.92 891.57 351.42 891.63 L 351.50 890.15 C 351.01 890.32 350.01 890.66 349.51 890.83 L 349.54 889.51 C 348.16 889.50 346.79 889.50 345.42 889.51 L 345.67 888.27 C 345.15 888.33 344.11 888.46 343.58 888.52 C 343.55 888.03 343.49 887.07 343.45 886.58 C 342.09 886.55 340.74 886.52 339.39 886.52 L 339.71 885.27 L 338.19 885.78 L 338.62 884.45 C 337.83 884.47 336.26 884.52 335.47 884.54 L 335.56 883.43 C 334.77 883.44 333.18 883.44 332.39 883.45 C 332.46 882.97 332.60 882.01 332.66 881.54 C 331.85 881.53 330.23 881.53 329.41 881.52 L 329.46 880.21 C 328.95 880.37 327.94 880.69 327.43 880.85 L 327.75 879.32 L 326.27 879.65 L 326.55 878.17 C 326.05 878.33 325.03 878.63 324.53 878.78 L 324.51 877.45 C 323.85 877.45 322.52 877.46 321.85 877.46 C 321.75 875.43 319.98 875.47 318.42 875.41 L 318.68 874.21 L 317.33 874.81 L 317.57 873.31 C 317.05 873.39 316.01 873.56 315.49 873.64 L 315.43 872.16 C 314.94 872.34 313.96 872.70 313.47 872.88 L 313.71 871.33 L 312.26 871.76 L 312.56 870.25 C 312.04 870.38 311.00 870.63 310.48 870.75 L 310.46 869.21 C 309.96 869.37 308.95 869.69 308.44 869.85 L 308.74 868.35 L 307.20 868.62 L 307.61 867.15 C 307.09 867.30 306.04 867.61 305.52 867.76 L 305.59 866.72 C 304.12 866.23 303.02 865.13 301.89 864.16 C 301.28 863.94 300.06 863.50 299.45 863.29 L 299.68 862.20 L 298.37 862.74 L 298.58 861.64 C 297.61 861.26 296.65 860.86 295.71 860.45 L 295.40 859.55 L 294.27 859.38 L 294.60 858.59 C 293.61 858.19 292.63 857.81 291.64 857.43 C 289.94 855.75 288.17 854.09 286.01 853.01 C 284.83 851.81 283.62 850.63 282.21 849.73 C 280.81 849.01 279.68 847.89 279.00 846.49 C 278.60 846.56 277.79 846.71 277.39 846.78 L 277.75 845.33 L 276.30 845.67 L 276.59 844.72 C 272.49 842.86 270.47 838.25 266.50 836.20 L 266.66 835.28 L 265.27 835.73 L 265.73 834.27 L 264.50 834.76 L 264.59 833.42 L 263.24 833.51 L 263.73 832.31 L 262.29 832.70 L 262.77 831.29 L 261.63 831.69 L 261.49 830.48 L 260.27 830.42 L 260.69 829.27 L 259.51 829.76 L 259.57 828.45 L 258.28 828.44 L 258.74 827.27 L 257.79 827.56 C 257.16 826.14 256.04 825.08 254.90 824.10 C 252.77 821.79 250.65 819.48 248.39 817.32 L 248.69 816.32 L 247.27 816.69 L 247.79 815.48 L 246.43 815.57 L 246.51 814.24 L 245.60 814.61 C 245.19 813.52 244.78 812.44 244.38 811.37 L 243.73 811.59 C 242.75 809.77 241.36 808.24 240.09 806.66 L 239.55 806.67 L 239.46 805.54 L 238.27 805.40 L 238.74 804.27 L 237.56 804.64 C 237.18 803.56 236.80 802.48 236.43 801.41 L 235.61 801.59 C 235.22 800.63 234.83 799.69 234.43 798.76 C 233.08 797.55 231.98 796.10 231.21 794.48 L 230.54 794.69 L 230.53 793.48 L 229.31 793.37 L 229.66 792.16 L 228.19 792.53 C 228.35 792.04 228.68 791.06 228.85 790.56 L 227.31 790.42 C 227.42 789.92 227.65 788.93 227.77 788.43 L 226.34 788.73 L 226.70 787.38 L 225.35 787.45 C 225.43 786.96 225.59 785.97 225.68 785.47 L 224.31 785.61 L 224.57 784.85 C 224.27 784.25 223.68 783.06 223.38 782.46 L 222.29 782.47 C 222.41 781.96 222.63 780.95 222.75 780.44 L 221.26 780.72 L 221.70 779.29 L 220.21 779.59 C 220.33 779.07 220.56 778.03 220.68 777.50 L 219.14 777.44 C 219.32 776.95 219.69 775.96 219.88 775.47 L 218.30 775.75 L 218.71 774.26 L 217.16 774.54 C 217.32 774.04 217.66 773.04 217.83 772.54 L 216.24 772.47 C 216.39 771.96 216.68 770.95 216.83 770.44 L 215.35 770.75 L 215.70 769.26 L 214.63 769.58 C 214.33 767.66 213.82 765.69 212.50 764.21 C 212.01 763.00 211.57 761.78 211.23 760.54 L 210.24 760.64 L 210.78 759.33 L 209.33 759.62 L 209.74 758.12 L 208.53 758.58 C 208.53 757.19 208.52 755.81 208.52 754.43 L 207.25 754.68 L 207.60 753.84 C 207.31 753.24 206.74 752.04 206.45 751.44 L 205.52 751.53 C 205.50 750.87 205.46 749.54 205.44 748.88 C 205.14 748.26 204.54 747.02 204.24 746.40 L 203.12 746.57 C 203.28 746.06 203.62 745.05 203.78 744.54 L 202.49 744.56 C 202.48 743.15 202.48 741.75 202.48 740.36 L 201.19 740.87 L 201.73 739.28 L 200.36 739.63 C 200.42 738.84 200.53 737.26 200.58 736.47 L 199.41 736.56 C 199.46 735.76 199.56 734.16 199.61 733.36 L 198.25 733.76 L 198.78 732.15 L 197.47 732.67 C 197.49 731.25 197.50 729.83 197.52 728.43 L 196.44 728.55 C 196.49 727.77 196.58 726.19 196.62 725.41 L 195.37 725.51 C 195.47 724.99 195.66 723.94 195.76 723.41 L 194.46 723.57 C 194.49 722.18 194.52 720.79 194.55 719.42 L 193.53 719.55 C 193.49 717.80 193.43 716.07 193.39 714.34 C 192.94 714.43 192.05 714.61 191.61 714.70 C 191.57 712.61 191.50 710.51 191.48 708.44 L 190.30 708.57 L 190.74 707.03 L 189.89 707.30 C 190.23 707.05 190.90 706.55 191.24 706.30 C 188.05 694.53 185.89 682.51 184.52 670.39 C 182.68 652.41 183.60 634.32 183.50 616.29 C 183.58 607.80 185.96 599.58 186.60 591.14 C 189.40 577.96 192.16 564.69 196.72 551.97 C 197.65 549.29 198.60 546.60 199.11 543.82 C 199.33 542.38 199.51 540.94 199.62 539.50 L 200.58 539.49 C 200.53 538.72 200.44 537.16 200.39 536.38 L 201.37 536.65 C 201.64 536.00 202.18 534.70 202.45 534.06 C 202.47 533.40 202.51 532.09 202.53 531.44 L 203.80 531.57 C 203.66 531.04 203.39 529.98 203.25 529.44 L 204.76 529.62 C 204.67 529.11 204.49 528.10 204.39 527.59 L 205.65 527.50 C 205.61 526.75 205.52 525.26 205.48 524.51 L 206.67 524.66 L 206.29 523.30 L 207.65 523.48 C 207.57 522.97 207.42 521.94 207.34 521.42 L 208.88 521.49 C 208.70 521.01 208.34 520.05 208.17 519.57 L 209.65 519.48 C 209.53 518.96 209.31 517.93 209.20 517.41 L 210.68 517.50 C 210.56 516.99 210.33 515.98 210.21 515.48 L 211.54 515.52 C 211.51 514.74 211.46 513.17 211.43 512.39 L 212.73 512.75 L 212.30 511.24 L 213.85 511.55 C 213.68 511.05 213.34 510.04 213.17 509.54 L 214.55 509.58 C 214.55 508.79 214.55 507.23 214.56 506.45 C 215.04 506.48 216.00 506.53 216.48 506.56 C 216.48 505.80 216.49 504.29 216.49 503.53 L 217.81 503.48 C 217.69 502.99 217.43 502.01 217.30 501.52 L 218.74 501.75 L 218.41 500.37 L 219.83 500.57 C 219.69 500.06 219.43 499.04 219.29 498.53 L 220.74 498.63 L 220.20 497.34 L 221.63 497.48 C 221.56 496.97 221.43 495.94 221.36 495.43 L 222.82 495.55 C 222.68 495.03 222.40 494.01 222.26 493.50 L 223.46 493.72 L 223.46 492.58 L 224.41 492.30 C 224.81 491.36 225.19 490.42 225.57 489.48 L 226.58 489.39 C 226.52 488.89 226.42 487.89 226.37 487.40 L 227.83 487.68 L 227.24 486.35 L 228.72 486.50 C 228.60 485.99 228.35 484.95 228.23 484.43 L 229.41 484.75 L 229.50 483.62 L 230.41 483.28 C 230.78 482.40 231.15 481.53 231.53 480.66 L 232.45 480.39 L 232.47 479.19 L 233.70 479.56 C 233.60 479.04 233.41 478.01 233.31 477.49 L 234.78 477.53 C 234.68 477.03 234.48 476.03 234.38 475.53 C 234.93 475.53 236.04 475.52 236.60 475.51 C 236.53 475.00 236.39 473.97 236.32 473.46 L 237.44 473.72 C 237.63 473.34 238.02 472.56 238.21 472.18 C 239.12 471.09 239.89 469.90 240.68 468.73 L 241.44 468.40 L 241.58 467.24 L 242.70 467.64 C 242.66 467.19 242.57 466.30 242.52 465.85 C 243.91 465.63 244.61 464.82 244.64 463.43 L 245.24 463.54 C 246.71 460.29 250.31 458.69 251.76 455.43 L 252.73 455.72 L 252.22 454.55 L 253.52 454.53 L 253.49 453.26 L 254.65 453.65 L 254.24 452.31 L 255.59 452.61 L 255.32 451.29 L 256.17 451.49 C 257.59 448.90 260.05 447.15 262.05 445.06 C 263.84 443.37 265.29 441.23 267.56 440.14 C 267.55 439.72 267.52 438.89 267.51 438.47 C 268.03 438.53 269.06 438.63 269.58 438.68 L 269.27 437.49 L 270.57 437.56 L 270.49 436.21 L 271.69 436.74 L 271.30 435.31 L 272.61 435.72 L 272.52 434.45 C 273.01 434.45 273.97 434.43 274.45 434.43 C 274.45 434.06 274.45 433.31 274.45 432.94 L 275.21 432.63 C 277.85 431.73 279.93 429.81 282.02 428.04 C 295.90 416.39 311.17 406.52 327.02 397.76 C 328.64 396.85 330.45 396.37 332.26 396.00 C 331.93 395.30 331.61 394.61 331.32 393.91 C 334.20 393.84 337.02 393.12 339.51 391.67 C 345.96 388.18 352.96 385.92 359.60 382.83 C 366.89 381.06 373.77 377.97 381.06 376.20 C 390.71 373.45 400.48 371.07 410.41 369.60 C 415.57 367.70 421.42 368.96 426.37 366.51 C 427.78 366.44 429.19 366.45 430.62 366.49 L 430.36 365.45 Z" />
</g>
<g id="#496d739e">
<path fill="#496d73" opacity="0.62" d=" M 664.81 183.74 C 673.31 182.97 681.68 185.38 690.16 184.74 C 705.49 185.27 720.39 189.12 735.45 191.57 C 738.60 192.49 741.72 193.58 745.02 193.91 C 747.43 194.38 749.87 194.67 752.31 194.97 C 751.68 195.20 750.41 195.67 749.78 195.90 C 749.31 196.02 748.39 196.26 747.92 196.37 C 743.07 195.49 738.23 194.57 733.47 193.27 C 728.73 191.91 723.71 192.03 718.98 190.64 C 715.72 189.66 712.32 189.33 708.94 189.19 C 703.17 188.96 697.72 186.63 691.94 186.50 C 682.84 186.38 673.76 185.41 664.81 183.74 Z" />
</g>
<g id="#3b585d80">
<path fill="#3b585d" opacity="0.50" d=" M 613.31 209.63 C 618.32 210.60 622.88 212.93 627.66 214.61 C 688.61 239.15 744.22 276.94 789.33 324.73 C 836.26 374.11 871.91 434.18 892.70 499.06 C 894.00 503.22 895.81 507.29 896.16 511.69 C 895.98 513.53 895.68 515.36 895.39 517.19 C 894.56 512.91 894.24 508.50 892.35 504.52 C 886.34 484.09 878.42 464.25 869.34 445.00 C 854.81 413.60 836.15 384.26 815.06 356.89 C 808.31 348.68 801.34 340.66 794.49 332.55 C 783.55 321.43 772.84 310.04 761.11 299.74 C 736.38 277.53 709.07 258.26 680.18 241.84 C 658.23 229.70 635.45 218.91 611.69 210.85 L 613.31 209.63 Z" />
<path fill="#3b585d" opacity="0.50" d=" M 1094.96 662.98 C 1095.35 656.78 1093.74 650.04 1096.82 644.32 C 1097.24 650.20 1096.82 656.09 1096.96 661.98 C 1096.46 662.23 1095.46 662.73 1094.96 662.98 Z" />
</g>
<g id="#3f5d6388">
<path fill="#3f5d63" opacity="0.53" d=" M 405.64 368.38 C 411.78 366.62 418.22 366.79 424.48 365.71 L 426.37 366.51 C 421.42 368.96 415.57 367.70 410.41 369.60 C 400.48 371.07 390.71 373.45 381.06 376.20 C 373.77 377.97 366.89 381.06 359.60 382.83 C 360.31 382.12 361.02 381.42 361.74 380.73 C 364.60 378.47 368.44 378.42 371.66 376.91 C 374.84 375.40 378.45 375.30 381.64 373.80 C 384.99 372.24 388.84 372.63 392.25 371.21 C 396.54 369.51 401.25 369.72 405.64 368.38 Z" />
</g>
<g id="#3854597a">
<path fill="#385459" opacity="0.48" d=" M 332.54 392.87 C 341.09 388.35 350.12 384.77 358.94 380.90 C 359.64 380.85 361.04 380.77 361.74 380.73 C 361.02 381.42 360.31 382.12 359.60 382.83 C 352.96 385.92 345.96 388.18 339.51 391.67 C 337.02 393.12 334.20 393.84 331.32 393.91 C 331.61 394.61 331.93 395.30 332.26 396.00 C 330.45 396.37 328.64 396.85 327.02 397.76 C 311.17 406.52 295.90 416.39 282.02 428.04 C 279.93 429.81 277.85 431.73 275.21 432.63 C 275.80 430.32 277.98 429.09 279.62 427.59 C 295.98 414.22 313.62 402.32 332.54 392.87 Z" />
</g>
<g id="#41606593">
<path fill="#416065" opacity="0.58" d=" M 198.39 539.10 C 198.63 540.67 198.87 542.22 199.11 543.82 C 198.60 546.60 197.65 549.29 196.72 551.97 C 192.16 564.69 189.40 577.96 186.60 591.14 C 185.96 599.58 183.58 607.80 183.50 616.29 C 183.45 612.46 183.15 608.63 182.70 604.83 C 182.36 599.46 185.05 594.43 185.18 589.05 C 185.26 583.47 188.03 578.45 188.57 572.96 C 188.91 569.82 190.61 567.05 191.15 563.97 C 192.62 555.41 196.83 547.65 198.39 539.10 Z" />
</g>
<g id="#2c41455f">
<path fill="#2c4145" opacity="0.37" d=" M 909.04 568.39 C 909.31 575.92 911.36 583.37 910.33 590.92 C 910.59 589.08 910.86 587.24 911.18 585.43 C 912.64 595.89 912.18 606.47 913.46 616.94 C 913.76 632.27 913.93 647.63 913.28 662.95 C 912.17 669.92 912.79 677.01 911.83 683.99 C 911.38 691.36 909.57 698.55 908.91 705.90 C 908.66 705.10 908.16 703.52 907.91 702.73 C 908.44 694.79 908.33 686.73 910.38 678.96 C 911.63 664.70 911.54 650.35 911.62 636.04 C 911.41 628.36 911.79 620.67 911.04 613.02 C 910.52 607.13 911.29 601.17 910.09 595.35 C 908.43 586.85 908.54 578.16 907.12 569.64 L 909.04 568.39 Z" />
<path fill="#2c4145" opacity="0.37" d=" M 506.60 906.39 C 515.15 905.13 523.35 901.77 532.00 901.26 C 528.43 905.08 522.62 904.00 518.13 905.95 C 513.14 908.06 507.56 907.25 502.49 909.08 C 496.87 910.98 490.89 910.08 485.14 911.13 C 480.12 911.90 475.17 913.46 470.03 913.22 C 454.68 912.99 439.12 914.35 424.02 910.90 L 424.94 910.18 C 428.74 909.98 432.54 910.22 436.34 910.51 C 447.14 912.08 458.09 911.46 468.96 911.31 C 475.49 911.28 481.86 909.45 488.40 909.51 C 494.61 909.48 500.58 907.71 506.60 906.39 Z" />
</g>
<g id="#354f5473">
<path fill="#354f54" opacity="0.45" d=" M 1091.49 577.53 L 1093.09 576.99 C 1095.04 584.87 1094.29 593.04 1095.29 601.04 C 1095.75 603.62 1094.88 606.74 1096.68 608.92 C 1097.12 616.13 1097.15 623.39 1096.82 630.61 C 1095.16 626.80 1095.21 622.56 1094.56 618.52 C 1094.39 613.00 1093.44 607.52 1093.56 601.99 C 1093.62 593.92 1091.94 586.00 1090.97 578.03 L 1091.49 577.53 Z" />
</g>
<g id="#4e747aa7">
<path fill="#4e747a" opacity="0.65" d=" M 182.44 612.90 C 182.43 610.20 182.50 607.51 182.70 604.83 C 183.15 608.63 183.45 612.46 183.50 616.29 C 183.60 634.32 182.68 652.41 184.52 670.39 L 182.75 670.74 L 182.56 670.77 C 182.49 667.89 182.43 665.01 182.43 662.13 C 182.46 658.50 182.20 654.88 182.03 651.27 C 181.89 643.11 181.80 634.96 181.99 626.80 C 182.16 622.16 182.50 617.53 182.44 612.90 Z" />
</g>
<g id="#21313448">
<path fill="#213134" opacity="0.28" d=" M 180.72 613.91 C 181.15 613.66 182.01 613.15 182.44 612.90 C 182.50 617.53 182.16 622.16 181.99 626.80 C 181.50 627.13 180.52 627.79 180.03 628.12 C 180.07 623.39 179.58 618.54 180.72 613.91 Z" />
</g>
<g id="#496c729c">
<path fill="#496c72" opacity="0.61" d=" M 1094.56 618.52 C 1095.21 622.56 1095.16 626.80 1096.82 630.61 C 1097.10 635.17 1097.06 639.75 1096.82 644.32 C 1093.74 650.04 1095.35 656.78 1094.96 662.98 C 1094.92 664.94 1094.84 666.91 1094.79 668.89 C 1094.70 670.99 1094.64 673.11 1094.62 675.23 C 1094.61 675.71 1094.58 676.66 1094.57 677.14 L 1093.28 677.07 C 1093.55 671.40 1093.33 665.72 1093.84 660.06 C 1095.04 646.24 1094.03 632.36 1094.56 618.52 Z" />
</g>
<g id="#334c516f">
<path fill="#334c51" opacity="0.44" d=" M 180.03 628.12 C 180.52 627.79 181.50 627.13 181.99 626.80 C 181.80 634.96 181.89 643.11 182.03 651.27 C 181.52 650.96 180.51 650.32 180.00 650.01 C 180.06 642.71 179.95 635.41 180.03 628.12 Z" />
</g>
<g id="#1f2e3143">
<path fill="#1f2e31" opacity="0.26" d=" M 180.00 650.01 C 180.51 650.32 181.52 650.96 182.03 651.27 C 182.20 654.88 182.46 658.50 182.43 662.13 C 181.95 661.95 180.99 661.60 180.50 661.42 C 179.85 657.65 180.03 653.81 180.00 650.01 Z" />
</g>
<g id="#283b3f56">
<path fill="#283b3f" opacity="0.34" d=" M 1094.96 662.98 C 1095.46 662.73 1096.46 662.23 1096.96 661.98 C 1096.96 664.42 1096.93 666.87 1096.91 669.32 C 1096.38 669.21 1095.32 669.00 1094.79 668.89 C 1094.84 666.91 1094.92 664.94 1094.96 662.98 Z" />
</g>
<g id="#18232533">
<path fill="#182325" opacity="0.20" d=" M 1094.79 668.89 C 1095.32 669.00 1096.38 669.21 1096.91 669.32 C 1097.01 671.47 1097.49 674.75 1094.62 675.23 C 1094.64 673.11 1094.70 670.99 1094.79 668.89 Z" />
</g>
<g id="#38535778">
<path fill="#385357" opacity="0.47" d=" M 182.75 670.74 L 184.52 670.39 C 185.89 682.51 188.05 694.53 191.24 706.30 C 190.90 706.55 190.23 707.05 189.89 707.30 L 188.91 707.99 C 188.44 702.56 187.35 697.25 185.61 692.10 C 185.14 684.91 182.88 677.91 182.75 670.74 Z" />
</g>
<g id="#3a565b7e">
<path fill="#3a565b" opacity="0.49" d=" M 366.45 671.06 L 367.05 669.75 C 368.79 671.37 368.34 673.80 368.53 675.90 C 368.39 681.42 371.09 686.48 371.38 691.96 C 371.49 695.99 373.25 699.67 374.02 703.58 C 386.46 755.03 414.67 802.55 453.66 838.38 C 472.95 856.05 494.73 871.05 518.21 882.59 C 524.62 885.79 532.21 887.76 536.69 893.74 C 536.85 896.49 535.69 898.93 534.00 901.04 L 532.87 900.00 C 533.33 898.95 533.76 897.89 534.16 896.84 C 535.54 894.37 533.09 891.93 531.07 890.82 C 522.90 886.51 514.15 883.35 506.29 878.45 C 484.74 866.64 464.94 851.74 447.19 834.77 C 441.16 828.13 434.41 822.14 428.94 815.01 C 406.86 789.13 389.76 759.02 378.74 726.83 C 375.60 718.39 373.74 709.55 371.01 700.98 C 369.63 690.98 366.48 681.24 366.45 671.06 Z" />
</g>
<g id="#3a575c81">
<path fill="#3a575c" opacity="0.51" d=" M 1093.28 677.07 L 1094.57 677.14 C 1094.93 684.85 1094.00 692.50 1092.46 700.04 C 1091.30 705.01 1091.95 710.24 1090.26 715.12 C 1088.39 720.62 1088.91 726.60 1086.87 732.06 C 1085.63 738.17 1084.23 744.26 1083.03 750.39 C 1080.11 758.96 1078.60 767.97 1075.06 776.35 C 1073.53 782.68 1070.57 788.57 1069.52 795.04 C 1069.32 793.24 1069.08 791.44 1068.99 789.65 C 1073.89 774.20 1078.97 758.76 1082.59 742.94 C 1086.42 726.18 1089.85 709.29 1091.43 692.16 C 1092.14 687.14 1093.03 682.14 1093.28 677.07 Z" />
</g>
<g id="#2a3f435c">
<path fill="#2a3f43" opacity="0.36" d=" M 903.71 723.46 C 906.52 716.82 904.50 709.21 907.91 702.73 C 908.16 703.52 908.66 705.10 908.91 705.90 C 907.69 713.98 906.31 722.05 905.08 730.14 C 905.29 727.08 905.47 724.03 905.62 720.98 C 904.37 729.65 902.68 738.22 900.39 746.68 L 899.38 747.59 C 899.33 743.45 900.00 739.34 901.63 735.53 C 903.32 731.69 902.08 727.32 903.71 723.46 Z" />
</g>
<g id="#59848cbf">
<path fill="#59848c" opacity="0.75" d=" M 900.39 746.68 C 902.68 738.22 904.37 729.65 905.62 720.98 C 905.47 724.03 905.29 727.08 905.08 730.14 C 904.73 733.64 904.32 737.15 903.35 740.55 C 901.41 747.25 900.38 754.21 897.91 760.75 L 897.05 762.15 C 897.52 756.86 899.27 751.84 900.39 746.68 Z" />
<path fill="#59848c" opacity="0.75" d=" M 489.97 908.26 C 495.54 907.72 500.92 904.88 506.60 906.39 C 500.58 907.71 494.61 909.48 488.40 909.51 C 481.86 909.45 475.49 911.28 468.96 911.31 C 458.09 911.46 447.14 912.08 436.34 910.51 C 431.26 909.19 425.99 909.21 420.86 908.26 C 425.83 908.77 430.84 908.42 435.82 908.84 C 453.84 910.66 471.95 909.16 489.97 908.26 Z" />
</g>
<g id="#31494d6a">
<path fill="#31494d" opacity="0.42" d=" M 896.99 754.18 C 897.57 751.94 897.40 749.15 899.38 747.59 L 900.39 746.68 C 899.27 751.84 897.52 756.86 897.05 762.15 C 896.48 763.74 895.99 765.36 895.63 767.02 C 895.26 767.21 894.52 767.58 894.15 767.76 C 894.17 767.34 894.20 766.51 894.22 766.09 C 893.92 761.86 896.44 758.26 896.99 754.18 Z" />
</g>
<g id="#39555a7d">
<path fill="#39555a" opacity="0.49" d=" M 889.04 781.24 C 891.20 776.33 892.01 770.98 894.22 766.09 C 894.20 766.51 894.17 767.34 894.15 767.76 C 894.52 767.58 895.26 767.21 895.63 767.02 C 895.30 768.40 895.05 769.81 894.64 771.19 C 891.36 780.22 888.79 789.50 885.17 798.41 C 852.14 886.69 790.81 963.95 712.65 1016.56 C 678.39 1039.71 640.94 1058.10 601.75 1071.27 C 594.82 1073.46 587.91 1076.01 580.80 1077.38 L 579.90 1076.36 C 582.89 1074.35 586.53 1073.88 589.96 1073.09 C 595.22 1071.13 600.58 1069.48 605.97 1067.98 C 614.93 1064.29 624.20 1061.26 633.05 1057.36 C 722.74 1020.20 799.58 953.13 848.91 869.56 C 861.10 849.57 871.03 828.27 879.93 806.64 C 883.00 798.18 886.92 790.02 889.04 781.24 Z" />
</g>
<g id="#3b575c80">
<path fill="#3b575c" opacity="0.50" d=" M 1056.68 820.11 C 1058.55 815.93 1059.84 811.45 1062.42 807.63 L 1063.60 808.79 C 1058.91 820.34 1053.51 831.57 1048.11 842.81 C 1045.01 849.40 1040.84 855.40 1037.78 862.00 C 1009.90 910.93 973.17 954.86 929.60 990.58 C 892.85 1021.03 851.26 1045.65 806.93 1063.31 C 800.90 1065.95 794.55 1067.70 788.41 1070.07 C 785.57 1071.63 782.21 1071.63 779.31 1073.01 C 777.37 1073.88 775.37 1074.97 773.17 1074.67 C 772.25 1074.60 770.41 1074.48 769.49 1074.41 C 784.54 1069.33 799.66 1064.41 814.32 1058.26 C 834.05 1049.79 853.39 1040.30 871.76 1029.16 C 905.12 1009.49 935.58 985.16 963.03 957.92 C 1002.10 918.03 1034.33 871.32 1056.68 820.11 Z" />
</g>
<g id="#527a81b0">
<path fill="#527a81" opacity="0.69" d=" M 384.16 901.74 C 384.33 901.59 384.66 901.30 384.83 901.16 C 391.16 902.58 397.56 903.71 403.83 905.40 C 409.51 906.33 415.33 906.46 420.86 908.26 C 425.99 909.21 431.26 909.19 436.34 910.51 C 432.54 910.22 428.74 909.98 424.94 910.18 C 420.92 910.19 416.96 909.32 412.94 909.30 C 411.63 908.86 410.32 908.47 409.03 908.06 C 400.13 907.27 391.73 904.07 382.86 903.02 L 384.16 901.74 Z" />
</g>
<g id="#324c5070">
<path fill="#324c50" opacity="0.44" d=" M 735.96 1082.89 C 747.33 1080.90 758.36 1077.41 769.49 1074.41 C 770.41 1074.48 772.25 1074.60 773.17 1074.67 C 769.14 1077.74 763.91 1077.35 759.44 1079.29 C 755.99 1080.77 752.07 1080.54 748.69 1082.21 C 745.47 1083.79 741.75 1083.19 738.41 1084.35 C 734.20 1085.80 729.71 1086.00 725.43 1087.15 C 719.68 1089.00 713.50 1088.45 707.74 1090.29 C 704.28 1091.46 700.62 1091.60 697.01 1091.55 C 690.23 1091.41 683.80 1094.06 677.06 1094.33 C 655.30 1094.87 633.54 1095.80 611.79 1094.46 L 612.77 1093.12 C 613.30 1093.07 614.38 1092.96 614.91 1092.90 C 626.92 1093.77 638.98 1093.49 651.02 1093.45 C 662.55 1093.69 673.95 1091.50 685.45 1091.10 C 702.36 1088.82 719.38 1086.99 735.96 1082.89 Z" />
</g>
</svg>
