<?xml version="1.0" encoding="UTF-8" ?>
<!DOCTYPE svg PUBLIC "-//W3C//DTD SVG 1.1//EN" "http://www.w3.org/Graphics/SVG/1.1/DTD/svg11.dtd">
<svg width="1276pt" height="1276pt" viewBox="0 0 1276 1276" version="1.1" xmlns="http://www.w3.org/2000/svg">
<g id="#000000ff">
<path fill="#000000" opacity="1.00" d=" M 638.11 134.73 C 638.35 134.73 638.84 134.73 639.08 134.73 C 661.70 165.50 689.57 192.33 720.88 214.16 C 752.74 236.45 788.15 253.48 825.07 265.57 C 826.62 266.07 828.17 266.60 829.69 267.22 C 840.77 271.58 852.54 273.89 864.05 276.91 C 867.42 277.84 870.85 278.59 874.37 278.73 L 875.03 278.78 C 881.29 280.14 887.61 281.41 894.01 281.94 C 893.14 282.01 891.40 282.15 890.53 282.22 C 913.03 285.91 935.74 288.77 958.55 289.23 C 960.91 289.29 963.29 289.32 965.67 289.46 C 977.77 289.95 989.91 290.18 1002.02 289.49 C 1020.84 288.34 1039.72 287.34 1058.39 284.63 C 1058.99 284.58 1060.17 284.49 1060.76 284.44 C 1072.00 284.13 1083.13 282.35 1094.31 281.21 C 1100.09 280.38 1105.99 280.20 1111.69 278.87 C 1111.90 281.72 1111.75 284.60 1111.30 287.42 C 1109.44 296.00 1109.54 304.81 1108.71 313.51 C 1105.73 353.63 1104.27 393.83 1102.60 434.02 C 1102.82 443.78 1101.02 453.48 1101.65 463.24 C 1101.66 464.66 1101.65 466.09 1101.50 467.52 C 1100.14 474.91 1100.48 482.45 1099.96 489.92 C 1096.78 539.77 1092.88 589.73 1083.90 638.94 C 1082.63 646.73 1080.70 654.42 1079.79 662.28 C 1064.95 735.40 1037.15 806.31 995.14 868.19 C 953.73 929.78 899.62 982.02 839.97 1025.83 C 778.18 1071.20 710.63 1108.19 641.03 1140.06 C 639.02 1141.35 636.83 1140.22 634.95 1139.32 C 559.38 1104.61 486.16 1063.81 420.32 1012.76 C 374.80 977.34 333.01 936.81 298.37 890.59 C 274.99 859.36 254.88 825.64 238.82 790.08 C 226.63 763.57 216.98 735.97 208.83 707.98 C 208.58 706.74 208.34 705.51 208.11 704.28 C 205.75 693.81 203.06 683.38 200.13 673.04 L 199.84 672.13 C 199.17 669.17 198.46 666.22 198.12 663.22 C 195.69 648.30 192.43 633.51 190.38 618.52 C 190.26 619.14 190.03 620.38 189.92 621.00 C 189.54 616.11 188.47 611.32 188.14 606.43 C 184.28 573.71 180.85 540.90 178.89 508.00 C 177.89 499.38 178.07 490.68 177.24 482.04 C 176.29 473.29 177.09 464.42 175.51 455.73 C 175.49 447.79 174.40 439.92 174.42 431.97 C 174.44 424.44 173.27 416.95 173.61 409.41 C 173.35 383.91 171.57 358.44 170.24 332.97 C 169.18 315.02 167.51 297.10 166.28 279.17 C 188.91 281.95 211.58 284.68 234.31 286.27 C 238.91 286.40 243.50 286.66 248.10 286.95 C 245.65 287.02 243.22 287.22 240.79 287.44 C 257.22 288.27 273.62 289.85 290.08 290.18 C 300.41 289.50 310.77 290.20 321.10 289.37 C 335.11 288.86 349.09 287.58 362.99 285.77 C 368.32 285.02 373.75 284.67 378.94 283.12 L 379.94 282.82 C 381.56 282.63 383.18 282.48 384.81 282.34 C 394.08 281.24 403.41 279.69 412.31 276.78 C 452.28 267.37 491.29 253.23 527.04 232.87 C 567.21 210.13 603.25 179.90 631.79 143.57 C 634.05 140.74 636.41 137.96 638.11 134.73 M 637.96 193.54 C 630.55 201.91 622.13 209.30 613.97 216.91 C 588.74 239.19 560.78 258.43 530.79 273.74 C 527.89 275.23 524.96 276.66 522.06 278.13 C 513.26 282.55 504.19 286.43 495.13 290.30 C 493.46 290.92 491.79 291.55 490.13 292.19 C 487.05 293.41 483.96 294.60 480.85 295.72 C 479.84 296.08 478.84 296.44 477.85 296.80 C 471.67 299.18 465.33 301.12 459.09 303.29 C 458.54 303.42 457.45 303.67 456.90 303.79 C 454.57 304.55 452.22 305.26 449.86 305.89 C 447.28 306.71 444.68 307.41 442.07 308.12 C 435.44 309.86 428.83 311.68 422.15 313.22 C 419.40 313.79 416.67 314.40 413.91 314.86 C 410.34 315.79 406.70 316.42 403.09 317.14 C 401.39 317.38 399.69 317.67 398.05 318.15 C 396.33 318.34 394.62 318.58 392.91 318.78 C 390.69 319.60 388.29 319.56 385.98 319.83 C 376.17 322.10 365.95 322.42 356.04 324.18 C 351.84 324.64 347.56 324.27 343.40 325.14 C 339.00 325.91 334.47 325.15 330.10 326.16 C 311.10 327.02 292.07 326.78 273.06 326.55 C 268.66 326.66 264.37 325.57 259.98 325.60 C 256.35 325.42 252.64 325.76 249.10 324.82 C 245.04 324.46 240.96 324.51 236.90 324.20 C 234.60 323.38 232.13 323.55 229.74 323.37 C 221.98 322.62 214.23 321.59 206.43 321.27 C 206.50 324.50 206.77 327.71 207.22 330.91 C 207.72 337.23 207.31 343.60 207.95 349.92 C 208.78 354.59 208.46 359.35 208.75 364.06 C 210.08 372.26 209.29 380.75 209.87 389.06 C 211.03 395.93 210.15 402.99 211.09 409.90 C 211.66 418.55 211.18 427.28 212.19 435.89 C 212.71 444.18 212.23 452.52 213.35 460.77 C 213.91 465.14 212.94 469.69 214.17 473.97 C 214.57 480.66 214.52 487.36 214.85 494.05 C 215.76 504.03 216.29 514.07 216.84 524.10 C 217.87 532.01 217.80 540.10 219.13 547.97 C 219.66 558.65 220.68 569.37 222.22 579.91 C 223.05 589.96 224.60 599.95 226.11 609.92 C 226.37 612.25 226.63 614.58 227.19 616.87 C 227.88 622.92 228.86 628.96 230.14 634.92 C 230.35 636.64 230.55 638.37 230.79 640.10 C 232.83 648.33 233.86 656.81 236.15 664.98 C 236.39 666.33 236.61 667.69 236.85 669.06 C 238.74 675.98 240.04 683.05 242.08 689.94 C 242.40 691.27 242.69 692.61 243.02 693.96 C 244.25 697.26 244.95 700.72 245.89 704.11 C 247.07 707.66 248.06 711.28 249.10 714.88 C 249.47 715.89 249.85 716.91 250.24 717.93 C 250.38 718.47 250.67 719.54 250.81 720.07 C 251.86 723.08 252.75 726.14 253.80 729.15 C 254.17 730.13 254.53 731.12 254.88 732.13 C 256.07 735.85 257.48 739.49 258.74 743.19 C 259.87 745.80 260.89 748.46 261.82 751.16 C 263.26 754.73 264.70 758.31 266.19 761.87 C 266.84 763.54 267.56 765.17 268.30 766.82 C 269.89 770.53 271.47 774.26 273.28 777.89 C 274.79 781.26 276.29 784.64 277.89 787.98 C 280.62 793.33 283.20 798.77 286.18 804.00 C 305.87 841.55 330.99 876.15 359.47 907.51 C 391.79 943.09 428.70 974.29 467.84 1002.09 C 501.07 1025.71 536.04 1046.78 571.88 1066.20 C 578.17 1069.59 584.54 1072.85 590.82 1076.29 C 592.84 1077.20 594.85 1078.17 596.82 1079.23 C 603.82 1082.92 610.86 1086.56 618.09 1089.79 C 620.35 1090.93 622.62 1092.07 624.91 1093.20 C 629.25 1095.20 633.51 1097.38 637.84 1099.42 C 639.39 1100.09 640.77 1098.73 642.18 1098.28 C 648.73 1095.08 655.28 1091.89 661.87 1088.77 C 664.56 1087.46 667.24 1086.16 669.87 1084.74 C 687.74 1075.88 705.41 1066.58 722.77 1056.76 C 797.99 1014.63 869.37 963.57 926.32 898.33 C 953.18 867.47 976.51 833.51 995.17 797.08 C 996.58 793.95 998.23 790.94 999.74 787.86 C 1001.28 784.63 1002.70 781.34 1004.29 778.14 C 1006.02 774.50 1007.50 770.75 1009.23 767.12 C 1010.09 765.04 1010.94 762.96 1011.79 760.89 C 1012.49 759.22 1013.16 757.55 1013.82 755.88 C 1015.64 751.59 1017.22 747.22 1018.84 742.86 C 1020.05 739.98 1021.09 737.04 1022.08 734.08 C 1022.43 733.08 1022.79 732.10 1023.18 731.13 C 1023.46 730.11 1023.76 729.11 1024.09 728.11 C 1024.44 727.08 1024.81 726.07 1025.20 725.06 C 1025.34 724.52 1025.61 723.43 1025.74 722.88 C 1027.69 717.33 1029.40 711.71 1031.13 706.10 C 1031.70 704.02 1032.30 701.95 1032.82 699.87 C 1034.02 696.25 1034.93 692.56 1035.83 688.86 C 1036.24 687.26 1036.64 685.66 1037.10 684.07 C 1038.34 678.70 1039.73 673.37 1040.85 667.97 C 1042.83 660.04 1044.47 652.01 1045.86 643.95 C 1046.69 640.30 1047.30 636.60 1047.82 632.90 C 1048.29 630.93 1048.59 628.94 1048.89 626.95 C 1049.54 622.61 1050.35 618.30 1050.90 613.96 C 1052.41 606.76 1052.63 599.34 1054.25 592.18 C 1054.44 589.64 1054.56 587.10 1054.61 584.56 L 1055.36 584.45 C 1055.42 581.62 1055.54 578.80 1055.83 575.99 C 1056.95 569.38 1057.34 562.62 1057.86 555.92 C 1059.13 548.04 1059.19 540.03 1060.14 532.13 C 1060.50 523.40 1061.59 514.74 1061.72 506.00 C 1062.83 498.77 1062.07 491.41 1063.15 484.19 C 1063.90 477.15 1063.13 470.01 1064.23 463.00 C 1064.80 456.99 1064.52 450.94 1064.85 444.91 C 1065.99 438.00 1065.34 430.92 1065.94 423.94 C 1066.66 410.59 1067.29 397.23 1067.67 383.85 C 1069.32 375.71 1067.51 367.17 1069.17 359.03 C 1069.61 352.99 1069.35 346.93 1069.79 340.90 C 1070.76 334.39 1070.42 327.79 1070.81 321.24 C 1061.03 321.64 1051.36 323.49 1041.57 323.61 L 1041.46 324.37 C 1036.69 324.41 1031.89 324.34 1027.18 325.14 C 1022.83 325.89 1018.34 325.04 1014.06 326.17 C 997.39 326.98 980.68 326.73 964.00 326.65 C 953.93 326.77 943.96 325.42 933.90 325.21 C 929.98 324.13 925.87 324.71 921.88 324.20 C 918.97 323.32 915.90 323.43 912.92 323.12 C 905.68 321.77 898.22 321.49 891.08 319.78 C 888.91 319.53 886.73 319.41 884.56 319.34 L 884.48 318.62 C 880.93 318.47 877.48 317.62 873.99 317.07 C 872.03 316.65 870.05 316.31 868.11 315.85 C 860.71 314.38 853.32 312.84 846.04 310.86 C 845.00 310.63 843.96 310.41 842.94 310.19 C 836.72 308.24 830.31 306.93 824.15 304.81 C 820.77 303.91 817.43 302.89 814.12 301.81 C 813.11 301.47 812.12 301.13 811.14 300.78 C 807.40 299.48 803.61 298.37 799.96 296.84 C 799.44 296.70 798.39 296.41 797.87 296.27 C 796.63 295.74 795.37 295.22 794.15 294.71 C 792.45 294.14 790.78 293.52 789.14 292.82 C 787.71 292.29 786.28 291.76 784.85 291.25 C 782.95 290.42 781.03 289.63 779.12 288.86 C 777.71 288.29 776.33 287.68 774.96 287.09 C 770.97 285.39 767.01 283.64 763.15 281.70 C 761.02 280.91 758.97 279.94 757.00 278.83 C 754.30 277.57 751.62 276.26 748.99 274.89 C 708.21 254.23 670.93 226.65 639.45 193.50 C 639.07 193.51 638.33 193.53 637.96 193.54 Z" />
<path fill="#000000" opacity="1.00" d=" M 630.06 226.12 C 632.87 223.69 635.48 221.03 638.46 218.78 C 638.78 280.60 638.48 342.44 638.62 404.26 C 638.56 404.60 638.45 405.26 638.40 405.59 C 638.00 405.60 637.20 405.61 636.80 405.62 C 627.10 387.61 617.10 369.76 607.30 351.81 C 604.82 347.17 601.99 342.71 600.02 337.82 C 604.19 334.82 607.83 330.38 607.79 324.98 C 608.89 316.04 601.04 307.16 591.98 307.50 C 583.82 306.97 576.20 313.91 575.52 321.94 C 574.23 330.78 581.65 339.93 590.71 339.88 C 590.82 352.92 590.54 365.95 590.41 378.99 C 590.44 389.11 589.45 399.17 589.45 409.29 C 572.68 396.17 556.41 382.40 539.86 368.99 C 537.64 366.98 534.76 365.52 533.15 362.96 C 535.73 357.39 537.11 350.66 534.05 344.97 C 529.66 336.52 517.26 333.71 509.91 339.95 C 503.65 344.48 501.61 353.58 505.21 360.39 C 507.36 364.15 510.85 367.33 515.11 368.43 C 519.17 369.26 523.32 368.56 527.39 368.14 C 537.14 387.55 547.07 406.86 556.87 426.23 C 577.90 431.92 598.98 437.40 620.00 443.10 C 625.42 444.56 630.85 445.96 636.29 447.38 C 637.03 447.84 637.79 448.30 638.57 448.75 C 638.60 503.01 638.59 557.27 638.59 611.52 C 626.39 612.10 614.14 613.22 602.38 616.73 C 614.90 633.26 627.15 650.01 639.26 666.84 C 637.69 675.80 639.26 684.95 638.32 693.97 C 613.46 660.69 588.61 627.40 563.82 594.07 C 557.56 586.00 551.79 577.57 545.36 569.63 C 573.64 542.79 602.55 516.60 630.95 489.87 C 596.56 480.50 562.27 470.75 527.96 461.12 C 512.96 456.81 497.79 453.05 482.91 448.33 C 483.38 449.64 483.95 450.96 484.99 451.96 C 498.08 465.86 510.46 480.44 523.80 494.12 C 523.58 495.32 523.53 496.63 522.71 497.63 C 507.34 517.96 491.64 538.07 476.49 558.56 C 476.09 558.60 475.28 558.66 474.88 558.70 C 467.33 537.34 458.93 516.28 451.16 495.00 C 443.71 475.65 436.65 456.16 429.20 436.82 C 428.64 435.44 428.00 434.11 427.37 432.79 C 419.84 431.24 412.55 428.73 405.13 426.77 C 370.79 417.15 336.43 407.59 302.10 397.94 C 299.01 396.92 295.82 396.24 292.57 396.09 C 308.01 412.09 322.82 428.72 337.87 445.10 C 343.80 454.84 348.06 465.50 353.61 475.46 C 384.00 535.76 414.56 595.98 444.96 656.27 C 450.41 666.35 455.03 676.86 460.60 686.88 C 456.07 692.33 451.91 698.07 447.45 703.58 C 447.40 704.03 447.29 704.93 447.23 705.38 C 474.80 705.24 502.36 705.38 529.93 705.31 C 528.88 701.15 527.16 697.22 525.68 693.22 C 517.16 670.62 508.72 648.00 500.13 625.43 C 498.67 621.34 496.79 617.37 496.05 613.07 C 500.31 610.49 503.03 605.51 507.82 603.98 C 513.83 611.12 519.11 618.90 524.82 626.30 C 539.79 646.19 554.67 666.15 569.72 685.99 C 564.79 692.18 560.11 698.57 555.03 704.63 C 556.68 704.94 558.34 705.28 560.05 705.33 C 586.27 705.30 612.48 705.30 638.70 705.32 L 638.70 705.38 C 637.96 718.89 638.57 732.44 638.36 745.96 C 638.36 770.31 638.37 794.65 638.36 819.00 C 638.30 825.15 638.69 831.32 637.93 837.46 C 629.16 837.13 620.33 835.79 612.04 832.84 C 611.52 832.69 610.48 832.41 609.96 832.27 C 594.39 826.31 580.45 815.88 570.85 802.20 C 562.59 790.67 557.61 777.00 555.78 762.98 C 555.11 754.62 555.36 746.19 557.01 737.95 C 558.05 732.03 560.29 726.44 562.04 720.72 C 541.59 720.61 521.14 720.75 500.68 720.65 C 492.83 751.60 496.21 785.20 509.75 814.10 C 523.49 843.75 547.77 868.36 577.31 882.36 C 596.33 891.66 617.52 896.10 638.63 896.46 C 638.46 906.40 638.81 916.35 638.46 926.28 C 634.32 939.11 630.07 951.90 625.89 964.72 C 618.28 965.01 610.68 965.41 603.08 964.89 C 597.59 964.94 591.98 964.09 586.62 965.61 C 586.96 965.80 587.64 966.19 587.97 966.38 C 598.31 974.03 608.40 982.03 618.53 989.96 C 616.20 996.96 614.16 1004.05 611.91 1011.09 C 610.08 1016.73 608.49 1022.47 606.32 1028.00 C 609.69 1027.23 612.14 1024.67 614.86 1022.72 C 622.38 1017.06 630.26 1011.85 637.46 1005.76 C 638.89 1010.39 638.33 1015.26 638.36 1020.04 C 638.36 1034.01 638.37 1047.98 638.36 1061.96 C 638.30 1067.88 638.75 1073.85 637.73 1079.73 C 631.40 1076.94 625.34 1073.60 619.06 1070.72 C 616.42 1069.44 613.79 1068.14 611.21 1066.77 C 602.41 1062.29 593.66 1057.73 584.93 1053.15 C 581.93 1051.51 578.91 1049.90 575.94 1048.22 C 541.05 1029.19 507.11 1008.37 474.86 985.12 C 429.97 952.77 388.27 915.59 353.48 872.46 C 327.82 840.81 306.08 805.97 289.20 768.88 C 288.12 766.56 287.09 764.23 286.18 761.86 C 284.77 758.90 283.47 755.90 282.30 752.84 C 281.74 751.62 281.20 750.40 280.64 749.20 C 279.83 747.07 279.03 744.96 278.24 742.84 C 277.74 741.61 277.25 740.39 276.75 739.19 C 276.25 737.72 275.73 736.28 275.24 734.84 C 274.75 733.61 274.31 732.37 273.84 731.15 C 273.48 730.14 273.13 729.13 272.78 728.13 C 271.39 724.47 270.22 720.75 268.94 717.07 C 268.61 716.05 268.27 715.04 267.93 714.04 C 266.90 711.02 265.95 707.97 265.13 704.89 C 264.80 703.88 264.47 702.88 264.16 701.88 C 262.94 698.00 261.92 694.06 260.86 690.14 C 260.56 689.09 260.26 688.05 259.97 687.01 C 259.63 685.69 259.33 684.38 258.78 683.15 C 258.57 682.07 258.37 681.00 258.18 679.94 C 257.75 678.61 257.40 677.24 257.03 675.91 C 255.96 671.64 255.04 667.32 253.86 663.08 C 253.58 661.40 253.29 659.74 252.89 658.11 C 251.61 653.15 251.12 648.00 249.71 643.09 C 249.50 641.71 249.33 640.33 249.15 638.96 C 247.66 633.42 247.13 627.69 245.87 622.10 C 245.53 618.30 244.58 614.60 244.15 610.82 C 241.91 597.64 240.64 584.30 238.86 571.06 C 238.55 568.05 238.54 565.01 237.87 562.05 C 237.52 558.73 237.81 555.31 236.83 552.08 C 236.32 548.10 236.94 543.98 235.79 540.09 C 234.85 522.05 232.70 504.08 232.31 485.99 C 231.18 478.71 231.97 471.30 230.82 464.02 C 230.18 456.04 230.99 447.96 229.76 440.03 C 229.24 433.39 230.01 426.66 228.88 420.09 C 228.23 411.09 228.98 402.02 227.75 393.07 C 227.39 385.69 227.61 378.28 227.17 370.90 C 225.94 365.01 226.72 358.90 226.20 352.92 C 225.17 348.84 225.68 344.57 225.42 340.41 C 226.93 340.52 228.43 340.75 229.92 341.10 C 238.66 341.50 247.31 342.78 256.07 342.85 C 259.61 343.82 263.33 343.45 266.96 343.67 C 284.26 345.08 301.64 344.55 318.98 344.26 C 325.60 343.35 332.36 344.05 338.93 342.86 C 346.66 342.67 354.35 341.85 362.00 340.88 C 364.68 340.55 367.38 340.42 370.07 340.17 C 375.01 339.28 380.04 338.87 385.02 338.15 C 387.30 337.41 389.72 337.38 392.08 337.16 C 397.65 335.77 403.42 335.35 408.97 333.87 C 410.32 333.64 411.69 333.42 413.06 333.21 C 419.30 331.60 425.71 330.67 431.90 328.84 C 432.98 328.63 434.06 328.43 435.14 328.23 C 437.79 327.52 440.46 326.88 443.11 326.14 C 444.61 325.75 446.15 325.48 447.70 325.26 L 447.28 324.70 C 448.83 324.51 450.40 324.34 451.89 323.82 C 456.20 322.40 460.64 321.36 464.91 319.78 C 465.45 319.65 466.55 319.40 467.10 319.27 C 468.09 318.87 469.09 318.46 470.09 318.04 C 471.10 317.73 472.12 317.45 473.15 317.18 C 475.15 316.54 477.14 315.87 479.13 315.17 C 480.12 314.81 481.13 314.46 482.15 314.13 C 484.79 313.16 487.45 312.20 490.11 311.23 C 491.35 310.71 492.59 310.19 493.85 309.68 C 497.93 308.20 501.99 306.63 505.91 304.76 C 508.01 303.99 510.10 303.17 512.17 302.31 C 515.80 300.54 519.53 298.98 523.20 297.31 C 526.73 295.45 530.35 293.79 533.97 292.12 C 568.72 274.50 601.41 252.59 630.06 226.12 M 417.69 789.45 C 417.24 793.06 416.00 796.51 414.67 799.89 C 414.56 800.44 414.32 801.55 414.20 802.11 C 413.00 805.15 411.99 808.27 411.16 811.44 C 403.23 811.70 395.29 811.43 387.36 811.59 C 393.55 816.29 399.58 821.21 405.85 825.81 C 405.72 827.54 405.47 829.27 404.95 830.94 C 403.42 835.25 402.45 839.74 400.69 843.97 C 400.55 845.31 400.27 847.98 400.13 849.32 C 405.61 844.07 412.43 840.52 417.99 835.39 C 421.42 836.91 424.00 839.78 427.17 841.76 C 430.76 844.04 433.66 847.48 437.71 848.96 C 435.84 844.06 434.76 838.91 432.76 834.07 C 432.65 833.52 432.42 832.42 432.30 831.87 C 431.61 830.14 430.96 828.38 430.28 826.67 C 435.32 822.23 440.86 818.42 446.12 814.26 C 447.04 813.50 447.78 812.59 448.34 811.54 C 440.82 811.51 433.30 811.62 425.78 811.50 C 425.27 809.61 424.71 807.73 424.24 805.85 C 423.86 804.86 423.49 803.88 423.13 802.90 C 421.77 798.52 420.21 794.18 419.25 789.69 C 418.86 789.63 418.08 789.51 417.69 789.45 M 496.67 876.44 C 496.51 877.61 496.34 878.80 496.17 880.00 C 494.66 883.96 493.39 888.02 492.07 892.06 C 491.75 893.07 491.42 894.09 491.10 895.11 C 489.97 898.36 488.90 901.62 487.92 904.93 C 487.23 905.93 487.73 908.34 485.95 908.17 C 475.20 908.52 464.42 908.08 453.67 908.38 C 460.36 914.07 467.52 919.19 474.39 924.67 C 476.13 926.23 478.53 927.20 479.81 929.19 C 479.80 931.89 478.64 934.39 477.71 936.88 C 477.58 937.43 477.32 938.53 477.18 939.08 C 476.31 941.64 475.56 944.25 474.80 946.85 C 474.44 947.85 474.08 948.86 473.72 949.88 C 473.60 950.44 473.36 951.55 473.24 952.11 C 472.04 955.36 470.99 958.66 470.23 962.05 C 479.39 955.92 488.11 949.12 497.01 942.62 L 498.18 942.57 C 507.13 949.08 516.07 955.63 524.76 962.48 C 524.54 961.39 524.09 959.19 523.86 958.09 C 522.78 954.77 521.88 951.41 520.68 948.14 C 520.55 947.59 520.30 946.47 520.18 945.92 C 519.81 944.89 519.46 943.87 519.12 942.87 C 517.81 938.19 515.97 933.66 515.11 928.87 C 521.47 924.25 527.59 919.32 533.79 914.49 C 536.34 912.52 539.07 910.76 541.27 908.38 C 530.82 908.09 520.35 908.42 509.90 908.23 C 507.58 908.40 507.69 905.51 506.90 904.04 C 506.36 901.95 505.69 899.91 505.10 897.85 C 504.31 895.60 503.61 893.34 502.91 891.07 C 502.55 890.06 502.19 889.06 501.83 888.07 C 501.70 887.52 501.43 886.41 501.30 885.86 C 500.07 882.78 499.19 879.58 498.48 876.36 C 498.03 876.38 497.13 876.42 496.67 876.44 Z" />
</g>
<g id="#ffe062ff">
<path fill="#ffe062" opacity="1.00" d=" M 637.96 193.54 C 638.33 193.53 639.07 193.51 639.45 193.50 C 670.93 226.65 708.21 254.23 748.99 274.89 C 751.62 276.26 754.30 277.57 757.00 278.83 C 758.97 279.94 761.02 280.91 763.15 281.70 C 767.01 283.64 770.97 285.39 774.96 287.09 C 776.33 287.68 777.71 288.29 779.12 288.86 C 781.03 289.63 782.95 290.42 784.85 291.25 C 786.28 291.76 787.71 292.29 789.14 292.82 C 790.78 293.52 792.45 294.14 794.15 294.71 C 795.37 295.22 796.63 295.74 797.87 296.27 C 798.39 296.41 799.44 296.70 799.96 296.84 C 803.61 298.37 807.40 299.48 811.14 300.78 C 812.12 301.13 813.11 301.47 814.12 301.81 C 817.43 302.89 820.77 303.91 824.15 304.81 C 830.31 306.93 836.72 308.24 842.94 310.19 C 843.96 310.41 845.00 310.63 846.04 310.86 C 853.32 312.84 860.71 314.38 868.11 315.85 C 870.05 316.31 872.03 316.65 873.99 317.07 C 877.48 317.62 880.93 318.47 884.48 318.62 L 884.56 319.34 C 886.73 319.41 888.91 319.53 891.08 319.78 C 898.22 321.49 905.68 321.77 912.92 323.12 C 915.90 323.43 918.97 323.32 921.88 324.20 C 925.87 324.71 929.98 324.13 933.90 325.21 C 943.96 325.42 953.93 326.77 964.00 326.65 C 980.68 326.73 997.39 326.98 1014.06 326.17 C 1018.34 325.04 1022.83 325.89 1027.18 325.14 C 1031.89 324.34 1036.69 324.41 1041.46 324.37 L 1041.57 323.61 C 1051.36 323.49 1061.03 321.64 1070.81 321.24 C 1070.42 327.79 1070.76 334.39 1069.79 340.90 C 1069.35 346.93 1069.61 352.99 1069.17 359.03 C 1067.51 367.17 1069.32 375.71 1067.67 383.85 C 1067.29 397.23 1066.66 410.59 1065.94 423.94 C 1065.34 430.92 1065.99 438.00 1064.85 444.91 C 1064.52 450.94 1064.80 456.99 1064.23 463.00 C 1063.13 470.01 1063.90 477.15 1063.15 484.19 C 1062.07 491.41 1062.83 498.77 1061.72 506.00 C 1061.59 514.74 1060.50 523.40 1060.14 532.13 C 1059.19 540.03 1059.13 548.04 1057.86 555.92 C 1057.34 562.62 1056.95 569.38 1055.83 575.99 C 1055.54 578.80 1055.42 581.62 1055.36 584.45 L 1054.61 584.56 C 1054.56 587.10 1054.44 589.64 1054.25 592.18 C 1052.63 599.34 1052.41 606.76 1050.90 613.96 C 1050.35 618.30 1049.54 622.61 1048.89 626.95 C 1048.59 628.94 1048.29 630.93 1047.82 632.90 C 1047.30 636.60 1046.69 640.30 1045.86 643.95 C 1044.47 652.01 1042.83 660.04 1040.85 667.97 C 1039.73 673.37 1038.34 678.70 1037.10 684.07 C 1036.64 685.66 1036.24 687.26 1035.83 688.86 C 1034.93 692.56 1034.02 696.25 1032.82 699.87 C 1032.30 701.95 1031.70 704.02 1031.13 706.10 C 1029.40 711.71 1027.69 717.33 1025.74 722.88 C 1025.61 723.43 1025.34 724.52 1025.20 725.06 C 1024.81 726.07 1024.44 727.08 1024.09 728.11 C 1023.76 729.11 1023.46 730.11 1023.18 731.13 C 1022.79 732.10 1022.43 733.08 1022.08 734.08 C 1021.09 737.04 1020.05 739.98 1018.84 742.86 C 1017.22 747.22 1015.64 751.59 1013.82 755.88 C 1013.16 757.55 1012.49 759.22 1011.79 760.89 C 1010.94 762.96 1010.09 765.04 1009.23 767.12 C 1007.50 770.75 1006.02 774.50 1004.29 778.14 C 1002.70 781.34 1001.28 784.63 999.74 787.86 C 998.23 790.94 996.58 793.95 995.17 797.08 C 976.51 833.51 953.18 867.47 926.32 898.33 C 869.37 963.57 797.99 1014.63 722.77 1056.76 C 705.41 1066.58 687.74 1075.88 669.87 1084.74 C 667.24 1086.16 664.56 1087.46 661.87 1088.77 C 655.28 1091.89 648.73 1095.08 642.18 1098.28 C 640.77 1098.73 639.39 1100.09 637.84 1099.42 C 633.51 1097.38 629.25 1095.20 624.91 1093.20 C 622.62 1092.07 620.35 1090.93 618.09 1089.79 C 610.86 1086.56 603.82 1082.92 596.82 1079.23 C 594.85 1078.17 592.84 1077.20 590.82 1076.29 C 584.54 1072.85 578.17 1069.59 571.88 1066.20 C 536.04 1046.78 501.07 1025.71 467.84 1002.09 C 428.70 974.29 391.79 943.09 359.47 907.51 C 330.99 876.15 305.87 841.55 286.18 804.00 C 283.20 798.77 280.62 793.33 277.89 787.98 C 276.29 784.64 274.79 781.26 273.28 777.89 C 271.47 774.26 269.89 770.53 268.30 766.82 C 267.56 765.17 266.84 763.54 266.19 761.87 C 264.70 758.31 263.26 754.73 261.82 751.16 C 260.89 748.46 259.87 745.80 258.74 743.19 C 257.48 739.49 256.07 735.85 254.88 732.13 C 254.53 731.12 254.17 730.13 253.80 729.15 C 252.75 726.14 251.86 723.08 250.81 720.07 C 250.67 719.54 250.38 718.47 250.24 717.93 C 249.85 716.91 249.47 715.89 249.10 714.88 C 248.06 711.28 247.07 707.66 245.89 704.11 C 244.95 700.72 244.25 697.26 243.02 693.96 C 242.69 692.61 242.40 691.27 242.08 689.94 C 240.04 683.05 238.74 675.98 236.85 669.06 C 236.61 667.69 236.39 666.33 236.15 664.98 C 233.86 656.81 232.83 648.33 230.79 640.10 C 230.55 638.37 230.35 636.64 230.14 634.92 C 228.86 628.96 227.88 622.92 227.19 616.87 C 226.63 614.58 226.37 612.25 226.11 609.92 C 224.60 599.95 223.05 589.96 222.22 579.91 C 220.68 569.37 219.66 558.65 219.13 547.97 C 217.80 540.10 217.87 532.01 216.84 524.10 C 216.29 514.07 215.76 504.03 214.85 494.05 C 214.52 487.36 214.57 480.66 214.17 473.97 C 212.94 469.69 213.91 465.14 213.35 460.77 C 212.23 452.52 212.71 444.18 212.19 435.89 C 211.18 427.28 211.66 418.55 211.09 409.90 C 210.15 402.99 211.03 395.93 209.87 389.06 C 209.29 380.75 210.08 372.26 208.75 364.06 C 208.46 359.35 208.78 354.59 207.95 349.92 C 207.31 343.60 207.72 337.23 207.22 330.91 C 206.77 327.71 206.50 324.50 206.43 321.27 C 214.23 321.59 221.98 322.62 229.74 323.37 C 232.13 323.55 234.60 323.38 236.90 324.20 C 240.96 324.51 245.04 324.46 249.10 324.82 C 252.64 325.76 256.35 325.42 259.98 325.60 C 264.37 325.57 268.66 326.66 273.06 326.55 C 292.07 326.78 311.10 327.02 330.10 326.16 C 334.47 325.15 339.00 325.91 343.40 325.14 C 347.56 324.27 351.84 324.64 356.04 324.18 C 365.95 322.42 376.17 322.10 385.98 319.83 C 388.29 319.56 390.69 319.60 392.91 318.78 C 394.62 318.58 396.33 318.34 398.05 318.15 C 399.69 317.67 401.39 317.38 403.09 317.14 C 406.70 316.42 410.34 315.79 413.91 314.86 C 416.67 314.40 419.40 313.79 422.15 313.22 C 428.83 311.68 435.44 309.86 442.07 308.12 C 444.68 307.41 447.28 306.71 449.86 305.89 C 452.22 305.26 454.57 304.55 456.90 303.79 C 457.45 303.67 458.54 303.42 459.09 303.29 C 465.33 301.12 471.67 299.18 477.85 296.80 C 478.84 296.44 479.84 296.08 480.85 295.72 C 483.96 294.60 487.05 293.41 490.13 292.19 C 491.79 291.55 493.46 290.92 495.13 290.30 C 504.19 286.43 513.26 282.55 522.06 278.13 C 524.96 276.66 527.89 275.23 530.79 273.74 C 560.78 258.43 588.74 239.19 613.97 216.91 C 622.13 209.30 630.55 201.91 637.96 193.54 M 638.43 217.79 L 638.46 218.78 C 635.48 221.03 632.87 223.69 630.06 226.12 C 601.41 252.59 568.72 274.50 533.97 292.12 C 530.35 293.79 526.73 295.45 523.20 297.31 C 519.53 298.98 515.80 300.54 512.17 302.31 C 510.10 303.17 508.01 303.99 505.91 304.76 C 501.99 306.63 497.93 308.20 493.85 309.68 C 492.59 310.19 491.35 310.71 490.11 311.23 C 487.45 312.20 484.79 313.16 482.15 314.13 C 481.13 314.46 480.12 314.81 479.13 315.17 C 477.14 315.87 475.15 316.54 473.15 317.18 C 472.12 317.45 471.10 317.73 470.09 318.04 C 469.09 318.46 468.09 318.87 467.10 319.27 C 466.55 319.40 465.45 319.65 464.91 319.78 C 460.64 321.36 456.20 322.40 451.89 323.82 C 450.40 324.34 448.83 324.51 447.28 324.70 L 447.70 325.26 C 446.15 325.48 444.61 325.75 443.11 326.14 C 440.46 326.88 437.79 327.52 435.14 328.23 C 434.06 328.43 432.98 328.63 431.90 328.84 C 425.71 330.67 419.30 331.60 413.06 333.21 C 411.69 333.42 410.32 333.64 408.97 333.87 C 403.42 335.35 397.65 335.77 392.08 337.16 C 389.72 337.38 387.30 337.41 385.02 338.15 C 380.04 338.87 375.01 339.28 370.07 340.17 C 367.38 340.42 364.68 340.55 362.00 340.88 C 354.35 341.85 346.66 342.67 338.93 342.86 C 332.36 344.05 325.60 343.35 318.98 344.26 C 301.64 344.55 284.26 345.08 266.96 343.67 C 263.33 343.45 259.61 343.82 256.07 342.85 C 247.31 342.78 238.66 341.50 229.92 341.10 C 228.43 340.75 226.93 340.52 225.42 340.41 C 225.68 344.57 225.17 348.84 226.20 352.92 C 226.72 358.90 225.94 365.01 227.17 370.90 C 227.61 378.28 227.39 385.69 227.75 393.07 C 228.98 402.02 228.23 411.09 228.88 420.09 C 230.01 426.66 229.24 433.39 229.76 440.03 C 230.99 447.96 230.18 456.04 230.82 464.02 C 231.97 471.30 231.18 478.71 232.31 485.99 C 232.70 504.08 234.85 522.05 235.79 540.09 C 236.94 543.98 236.32 548.10 236.83 552.08 C 237.81 555.31 237.52 558.73 237.87 562.05 C 238.54 565.01 238.55 568.05 238.86 571.06 C 240.64 584.30 241.91 597.64 244.15 610.82 C 244.58 614.60 245.53 618.30 245.87 622.10 C 247.13 627.69 247.66 633.42 249.15 638.96 C 249.33 640.33 249.50 641.71 249.71 643.09 C 251.12 648.00 251.61 653.15 252.89 658.11 C 253.29 659.74 253.58 661.40 253.86 663.08 C 255.04 667.32 255.96 671.64 257.03 675.91 C 257.40 677.24 257.75 678.61 258.18 679.94 C 258.37 681.00 258.57 682.07 258.78 683.15 C 259.33 684.38 259.63 685.69 259.97 687.01 C 260.26 688.05 260.56 689.09 260.86 690.14 C 261.92 694.06 262.94 698.00 264.16 701.88 C 264.47 702.88 264.80 703.88 265.13 704.89 C 265.95 707.97 266.90 711.02 267.93 714.04 C 268.27 715.04 268.61 716.05 268.94 717.07 C 270.22 720.75 271.39 724.47 272.78 728.13 C 273.13 729.13 273.48 730.14 273.84 731.15 C 274.31 732.37 274.75 733.61 275.24 734.84 C 275.73 736.28 276.25 737.72 276.75 739.19 C 277.25 740.39 277.74 741.61 278.24 742.84 C 279.03 744.96 279.83 747.07 280.64 749.20 C 281.20 750.40 281.74 751.62 282.30 752.84 C 283.47 755.90 284.77 758.90 286.18 761.86 C 287.09 764.23 288.12 766.56 289.20 768.88 C 306.08 805.97 327.82 840.81 353.48 872.46 C 388.27 915.59 429.97 952.77 474.86 985.12 C 507.11 1008.37 541.05 1029.19 575.94 1048.22 C 578.91 1049.90 581.93 1051.51 584.93 1053.15 C 593.66 1057.73 602.41 1062.29 611.21 1066.77 C 613.79 1068.14 616.42 1069.44 619.06 1070.72 C 625.34 1073.60 631.40 1076.94 637.73 1079.73 C 638.16 1080.00 639.03 1080.54 639.46 1080.81 C 639.47 1080.39 639.48 1079.55 639.48 1079.13 C 640.91 1078.76 642.40 1078.51 643.77 1077.91 C 663.82 1068.25 683.62 1058.07 703.15 1047.40 C 771.17 1010.20 835.92 965.82 890.48 910.42 C 896.56 903.53 903.22 897.17 909.13 890.12 C 950.22 843.97 982.62 790.04 1003.48 731.86 C 1018.72 690.24 1028.27 646.75 1034.67 602.96 C 1040.42 561.80 1043.62 520.40 1045.75 478.93 C 1046.23 477.35 1046.35 475.69 1046.36 474.06 C 1046.27 458.91 1048.17 443.85 1047.59 428.69 C 1047.90 431.22 1048.15 433.78 1048.50 436.32 C 1048.25 425.87 1048.32 415.37 1049.35 404.97 C 1049.61 398.03 1049.30 391.07 1049.88 384.15 C 1051.11 376.84 1049.96 369.36 1051.24 362.06 C 1051.76 355.09 1051.57 348.08 1051.82 341.10 C 1039.87 341.40 1028.01 342.77 1016.09 343.51 C 990.11 345.09 963.93 345.15 938.00 342.86 C 895.62 340.22 853.47 332.61 812.91 319.92 C 779.57 309.67 747.48 295.42 717.38 277.80 C 688.80 261.01 662.36 240.69 638.43 217.79 Z" />
<path fill="#ffe062" opacity="1.00" d=" M 667.54 328.64 C 663.96 319.15 671.88 307.71 681.97 307.51 C 688.99 306.69 695.84 311.52 698.35 317.93 C 699.12 321.87 699.18 326.04 698.24 329.95 C 695.96 336.07 689.70 339.49 683.54 340.43 C 683.61 345.62 683.51 350.82 684.13 355.98 C 684.52 363.73 684.28 371.49 684.51 379.24 C 684.37 389.28 685.64 399.27 685.46 409.32 C 704.34 394.09 722.96 378.52 741.95 363.43 C 739.12 358.48 738.43 352.61 739.74 347.09 C 742.06 340.95 748.37 336.41 755.00 336.58 C 761.38 336.33 767.32 340.59 769.95 346.26 C 770.98 349.03 770.84 352.08 770.78 355.00 C 770.68 361.95 764.63 367.83 757.95 368.87 C 754.45 369.68 750.98 367.90 747.48 368.41 C 745.02 372.22 743.30 376.45 741.22 380.47 C 733.63 395.17 726.22 409.96 718.65 424.67 C 717.71 426.88 714.99 426.89 713.04 427.60 C 689.87 433.67 666.75 439.94 643.60 446.09 C 641.20 446.72 638.75 447.13 636.29 447.38 C 630.85 445.96 625.42 444.56 620.00 443.10 C 598.98 437.40 577.90 431.92 556.87 426.23 C 547.07 406.86 537.14 387.55 527.39 368.14 C 523.32 368.56 519.17 369.26 515.11 368.43 C 510.85 367.33 507.36 364.15 505.21 360.39 C 501.61 353.58 503.65 344.48 509.91 339.95 C 517.26 333.71 529.66 336.52 534.05 344.97 C 537.11 350.66 535.73 357.39 533.15 362.96 C 534.76 365.52 537.64 366.98 539.86 368.99 C 556.41 382.40 572.68 396.17 589.45 409.29 C 589.45 399.17 590.44 389.11 590.41 378.99 C 590.54 365.95 590.82 352.92 590.71 339.88 C 581.65 339.93 574.23 330.78 575.52 321.94 C 576.20 313.91 583.82 306.97 591.98 307.50 C 601.04 307.16 608.89 316.04 607.79 324.98 C 607.83 330.38 604.19 334.82 600.02 337.82 C 601.99 342.71 604.82 347.17 607.30 351.81 C 617.10 369.76 627.10 387.61 636.80 405.62 C 637.20 405.61 638.00 405.60 638.40 405.59 C 638.45 405.26 638.56 404.60 638.62 404.26 C 650.62 382.10 663.13 360.19 674.85 337.89 C 671.42 335.75 668.64 332.58 667.54 328.64 Z" />
<path fill="#ffe062" opacity="1.00" d=" M 913.98 415.09 C 937.27 408.60 960.63 402.30 983.80 395.39 C 983.89 398.22 981.15 399.65 979.58 401.60 C 969.83 412.48 959.79 423.09 950.00 433.94 C 945.78 438.48 941.02 442.71 937.90 448.14 C 920.37 482.92 902.58 517.58 885.22 552.46 C 884.85 552.46 884.12 552.48 883.75 552.49 C 882.60 538.89 879.96 525.45 877.89 511.97 C 877.63 507.74 876.55 503.63 876.32 499.41 C 840.76 505.44 805.46 512.99 769.95 519.32 C 769.29 519.39 767.96 519.52 767.30 519.58 C 766.70 520.38 765.75 521.06 765.68 522.14 C 764.35 530.14 762.59 538.05 761.14 546.03 C 760.89 546.96 760.37 548.83 760.12 549.76 C 770.82 549.90 781.43 548.62 792.07 547.70 C 807.73 546.82 823.31 545.09 838.97 544.23 C 844.34 543.35 849.80 543.30 855.24 543.27 C 848.68 558.08 840.89 572.34 833.78 586.91 C 829.62 595.73 824.64 604.19 821.00 613.25 C 817.86 614.97 814.35 613.73 811.01 613.85 C 800.39 614.97 789.71 614.05 779.06 614.54 C 768.56 614.81 758.03 614.19 747.55 615.28 C 746.32 621.40 744.78 627.48 744.17 633.71 C 740.62 632.13 738.07 629.09 734.88 626.96 C 719.96 616.24 703.45 607.62 685.90 602.14 C 684.08 601.60 682.27 601.07 680.48 600.52 C 680.29 591.00 681.74 581.57 681.61 572.05 C 682.30 564.07 682.52 556.06 682.67 548.04 C 683.03 540.11 684.01 532.05 683.28 524.16 C 671.67 512.86 659.52 502.10 647.70 491.01 C 647.59 490.67 647.38 489.99 647.27 489.66 C 651.89 488.55 656.46 487.29 661.01 485.91 C 700.03 475.01 739.06 464.10 778.07 453.18 C 823.35 440.40 868.71 427.91 913.98 415.09 Z" />
<path fill="#ffe062" opacity="1.00" d=" M 292.57 396.09 C 295.82 396.24 299.01 396.92 302.10 397.94 C 336.43 407.59 370.79 417.15 405.13 426.77 C 412.55 428.73 419.84 431.24 427.37 432.79 C 428.00 434.11 428.64 435.44 429.20 436.82 C 436.65 456.16 443.71 475.65 451.16 495.00 C 458.93 516.28 467.33 537.34 474.88 558.70 C 475.28 558.66 476.09 558.60 476.49 558.56 C 491.64 538.07 507.34 517.96 522.71 497.63 C 523.53 496.63 523.58 495.32 523.80 494.12 C 510.46 480.44 498.08 465.86 484.99 451.96 C 483.95 450.96 483.38 449.64 482.91 448.33 C 497.79 453.05 512.96 456.81 527.96 461.12 C 562.27 470.75 596.56 480.50 630.95 489.87 C 602.55 516.60 573.64 542.79 545.36 569.63 C 551.79 577.57 557.56 586.00 563.82 594.07 C 588.61 627.40 613.46 660.69 638.32 693.97 C 640.73 697.18 643.07 700.44 645.54 703.62 C 645.57 704.06 645.65 704.94 645.69 705.39 C 643.35 705.35 641.03 705.33 638.70 705.32 C 612.48 705.30 586.27 705.30 560.05 705.33 C 558.34 705.28 556.68 704.94 555.03 704.63 C 560.11 698.57 564.79 692.18 569.72 685.99 C 554.67 666.15 539.79 646.19 524.82 626.30 C 519.11 618.90 513.83 611.12 507.82 603.98 C 503.03 605.51 500.31 610.49 496.05 613.07 C 496.79 617.37 498.67 621.34 500.13 625.43 C 508.72 648.00 517.16 670.62 525.68 693.22 C 527.16 697.22 528.88 701.15 529.93 705.31 C 502.36 705.38 474.80 705.24 447.23 705.38 C 447.29 704.93 447.40 704.03 447.45 703.58 C 451.91 698.07 456.07 692.33 460.60 686.88 C 455.03 676.86 450.41 666.35 444.96 656.27 C 414.56 595.98 384.00 535.76 353.61 475.46 C 348.06 465.50 343.80 454.84 337.87 445.10 C 322.82 428.72 308.01 412.09 292.57 396.09 Z" />
<path fill="#ffe062" opacity="1.00" d=" M 602.38 616.73 C 614.14 613.22 626.39 612.10 638.59 611.52 C 675.53 611.63 712.38 626.30 738.55 652.52 C 762.49 675.74 777.65 707.76 780.53 740.98 C 780.86 749.30 780.85 757.64 780.58 765.96 C 777.59 806.03 756.27 844.20 723.98 868.06 C 699.60 886.48 669.11 896.32 638.63 896.46 C 617.52 896.10 596.33 891.66 577.31 882.36 C 547.77 868.36 523.49 843.75 509.75 814.10 C 496.21 785.20 492.83 751.60 500.68 720.65 C 521.14 720.75 541.59 720.61 562.04 720.72 C 560.29 726.44 558.05 732.03 557.01 737.95 C 555.36 746.19 555.11 754.62 555.78 762.98 C 557.61 777.00 562.59 790.67 570.85 802.20 C 580.45 815.88 594.39 826.31 609.96 832.27 C 610.48 832.41 611.52 832.69 612.04 832.84 C 620.33 835.79 629.16 837.13 637.93 837.46 C 638.33 837.45 639.14 837.45 639.54 837.44 C 654.49 836.96 669.47 833.06 682.21 825.07 C 706.36 810.32 722.84 782.58 721.75 754.01 C 722.80 728.05 709.18 702.78 688.62 687.38 C 676.08 677.85 660.64 672.17 644.93 671.13 C 642.24 671.12 640.68 668.76 639.26 666.84 C 627.15 650.01 614.90 633.26 602.38 616.73 Z" />
<path fill="#ffe062" opacity="1.00" d=" M 858.63 790.05 C 859.02 790.17 859.80 790.41 860.19 790.54 C 860.47 791.68 860.76 792.84 861.06 794.00 C 862.98 799.83 864.82 805.69 866.70 811.54 C 874.17 811.54 881.65 811.45 889.13 811.57 C 887.74 814.02 885.30 815.51 883.12 817.17 C 879.12 820.18 875.19 823.27 871.32 826.43 C 872.75 831.31 874.42 836.12 875.85 841.01 C 876.74 843.62 877.93 846.27 877.61 849.12 C 871.53 844.39 865.38 839.75 859.08 835.33 C 852.99 840.21 846.60 844.72 840.25 849.24 C 841.76 841.32 845.38 833.96 846.86 826.05 C 840.89 821.18 834.27 817.06 828.81 811.62 C 836.39 811.47 843.98 811.49 851.57 811.60 C 852.41 809.05 853.27 806.52 854.17 804.00 C 855.68 799.35 857.23 794.72 858.63 790.05 Z" />
<path fill="#ffe062" opacity="1.00" d=" M 496.67 876.44 C 497.13 876.42 498.03 876.38 498.48 876.36 C 499.19 879.58 500.07 882.78 501.30 885.86 C 501.43 886.41 501.70 887.52 501.83 888.07 C 502.19 889.06 502.55 890.06 502.91 891.07 C 503.61 893.34 504.31 895.60 505.10 897.85 C 505.69 899.91 506.36 901.95 506.90 904.04 C 507.69 905.51 507.58 908.40 509.90 908.23 C 520.35 908.42 530.82 908.09 541.27 908.38 C 539.07 910.76 536.34 912.52 533.79 914.49 C 527.59 919.32 521.47 924.25 515.11 928.87 C 515.97 933.66 517.81 938.19 519.12 942.87 C 519.46 943.87 519.81 944.89 520.18 945.92 C 520.30 946.47 520.55 947.59 520.68 948.14 C 521.88 951.41 522.78 954.77 523.86 958.09 C 524.09 959.19 524.54 961.39 524.76 962.48 C 516.07 955.63 507.13 949.08 498.18 942.57 L 497.01 942.62 C 488.11 949.12 479.39 955.92 470.23 962.05 C 470.99 958.66 472.04 955.36 473.24 952.11 C 473.36 951.55 473.60 950.44 473.72 949.88 C 474.08 948.86 474.44 947.85 474.80 946.85 C 475.56 944.25 476.31 941.64 477.18 939.08 C 477.32 938.53 477.58 937.43 477.71 936.88 C 478.64 934.39 479.80 931.89 479.81 929.19 C 478.53 927.20 476.13 926.23 474.39 924.67 C 467.52 919.19 460.36 914.07 453.67 908.38 C 464.42 908.08 475.20 908.52 485.95 908.17 C 487.73 908.34 487.23 905.93 487.92 904.93 C 488.90 901.62 489.97 898.36 491.10 895.11 C 491.42 894.09 491.75 893.07 492.07 892.06 C 493.39 888.02 494.66 883.96 496.17 880.00 C 496.34 878.80 496.51 877.61 496.67 876.44 Z" />
<path fill="#ffe062" opacity="1.00" d=" M 778.61 876.27 C 779.03 876.34 779.86 876.49 780.28 876.56 C 782.66 887.32 786.93 897.59 789.82 908.24 C 800.87 908.41 811.92 908.12 822.98 908.36 C 814.39 915.81 804.89 922.12 796.32 929.59 C 800.29 940.19 803.01 951.21 806.68 961.92 C 804.12 961.31 802.36 959.26 800.29 957.81 C 793.23 952.60 786.31 947.21 779.10 942.22 C 770.22 948.98 761.08 955.40 752.18 962.14 C 752.31 957.94 754.23 954.11 755.27 950.11 C 757.23 943.03 759.85 936.14 761.66 929.02 C 754.23 923.59 747.16 917.70 739.78 912.22 C 738.23 911.13 736.88 909.82 735.68 908.38 C 746.53 908.16 757.39 908.31 768.25 908.29 C 771.18 899.57 774.02 890.82 776.89 882.09 C 777.52 880.16 778.06 878.20 778.61 876.27 Z" />
<path fill="#ffe062" opacity="1.00" d=" M 626.58 965.72 C 630.89 953.02 634.80 940.20 639.10 927.50 C 639.61 928.75 640.10 930.03 640.58 931.32 C 644.01 942.41 647.96 953.36 650.82 964.63 C 652.53 964.97 654.24 965.33 656.01 965.38 C 667.41 965.43 678.82 965.17 690.22 965.52 C 679.97 973.76 669.50 981.72 659.10 989.78 C 662.91 1002.90 667.12 1015.89 671.28 1028.90 C 660.58 1021.43 650.22 1013.47 639.84 1005.57 C 639.03 1005.55 638.24 1005.62 637.46 1005.76 C 630.26 1011.85 622.38 1017.06 614.86 1022.72 C 612.14 1024.67 609.69 1027.23 606.32 1028.00 C 608.49 1022.47 610.08 1016.73 611.91 1011.09 C 614.16 1004.05 616.20 996.96 618.53 989.96 C 608.40 982.03 598.31 974.03 587.97 966.38 C 600.79 965.21 613.72 966.02 626.58 965.72 Z" />
</g>
<g id="#b80000ff">
<path fill="#b80000" opacity="1.00" d=" M 638.43 217.79 C 662.36 240.69 688.80 261.01 717.38 277.80 C 747.48 295.42 779.57 309.67 812.91 319.92 C 853.47 332.61 895.62 340.22 938.00 342.86 C 963.93 345.15 990.11 345.09 1016.09 343.51 C 1028.01 342.77 1039.87 341.40 1051.82 341.10 C 1051.57 348.08 1051.76 355.09 1051.24 362.06 C 1049.96 369.36 1051.11 376.84 1049.88 384.15 C 1049.30 391.07 1049.61 398.03 1049.35 404.97 C 1048.32 415.37 1048.25 425.87 1048.50 436.32 C 1048.15 433.78 1047.90 431.22 1047.59 428.69 C 1048.17 443.85 1046.27 458.91 1046.36 474.06 C 1046.35 475.69 1046.23 477.35 1045.75 478.93 C 1043.62 520.40 1040.42 561.80 1034.67 602.96 C 1028.27 646.75 1018.72 690.24 1003.48 731.86 C 982.62 790.04 950.22 843.97 909.13 890.12 C 903.22 897.17 896.56 903.53 890.48 910.42 C 835.92 965.82 771.17 1010.20 703.15 1047.40 C 683.62 1058.07 663.82 1068.25 643.77 1077.91 C 642.40 1078.51 640.91 1078.76 639.48 1079.13 C 639.35 1062.09 639.46 1045.05 639.43 1028.02 C 639.52 1020.53 639.08 1013.03 639.84 1005.57 C 650.22 1013.47 660.58 1021.43 671.28 1028.90 C 667.12 1015.89 662.91 1002.90 659.10 989.78 C 669.50 981.72 679.97 973.76 690.22 965.52 C 678.82 965.17 667.41 965.43 656.01 965.38 C 654.24 965.33 652.53 964.97 650.82 964.63 C 647.96 953.36 644.01 942.41 640.58 931.32 C 640.50 930.58 640.34 929.11 640.26 928.37 C 639.65 927.66 639.05 926.96 638.46 926.28 C 638.81 916.35 638.46 906.40 638.63 896.46 C 669.11 896.32 699.60 886.48 723.98 868.06 C 756.27 844.20 777.59 806.03 780.58 765.96 C 780.85 757.64 780.86 749.30 780.53 740.98 C 777.65 707.76 762.49 675.74 738.55 652.52 C 712.38 626.30 675.53 611.63 638.59 611.52 C 638.59 557.27 638.60 503.01 638.57 448.75 C 637.79 448.30 637.03 447.84 636.29 447.38 C 638.75 447.13 641.20 446.72 643.60 446.09 C 666.75 439.94 689.87 433.67 713.04 427.60 C 714.99 426.89 717.71 426.88 718.65 424.67 C 726.22 409.96 733.63 395.17 741.22 380.47 C 743.30 376.45 745.02 372.22 747.48 368.41 C 750.98 367.90 754.45 369.68 757.95 368.87 C 764.63 367.83 770.68 361.95 770.78 355.00 C 770.84 352.08 770.98 349.03 769.95 346.26 C 767.32 340.59 761.38 336.33 755.00 336.58 C 748.37 336.41 742.06 340.95 739.74 347.09 C 738.43 352.61 739.12 358.48 741.95 363.43 C 722.96 378.52 704.34 394.09 685.46 409.32 C 685.64 399.27 684.37 389.28 684.51 379.24 C 684.28 371.49 684.52 363.73 684.13 355.98 C 683.51 350.82 683.61 345.62 683.54 340.43 C 689.70 339.49 695.96 336.07 698.24 329.95 C 699.18 326.04 699.12 321.87 698.35 317.93 C 695.84 311.52 688.99 306.69 681.97 307.51 C 671.88 307.71 663.96 319.15 667.54 328.64 C 668.64 332.58 671.42 335.75 674.85 337.89 C 663.13 360.19 650.62 382.10 638.62 404.26 C 638.48 342.44 638.78 280.60 638.46 218.78 L 638.43 217.79 M 913.98 415.09 C 868.71 427.91 823.35 440.40 778.07 453.18 C 739.06 464.10 700.03 475.01 661.01 485.91 C 656.46 487.29 651.89 488.55 647.27 489.66 C 647.38 489.99 647.59 490.67 647.70 491.01 C 659.52 502.10 671.67 512.86 683.28 524.16 C 684.01 532.05 683.03 540.11 682.67 548.04 C 682.52 556.06 682.30 564.07 681.61 572.05 C 681.74 581.57 680.29 591.00 680.48 600.52 C 682.27 601.07 684.08 601.60 685.90 602.14 C 703.45 607.62 719.96 616.24 734.88 626.96 C 738.07 629.09 740.62 632.13 744.17 633.71 C 744.78 627.48 746.32 621.40 747.55 615.28 C 758.03 614.19 768.56 614.81 779.06 614.54 C 789.71 614.05 800.39 614.97 811.01 613.85 C 814.35 613.73 817.86 614.97 821.00 613.25 C 824.64 604.19 829.62 595.73 833.78 586.91 C 840.89 572.34 848.68 558.08 855.24 543.27 C 849.80 543.30 844.34 543.35 838.97 544.23 C 823.31 545.09 807.73 546.82 792.07 547.70 C 781.43 548.62 770.82 549.90 760.12 549.76 C 760.37 548.83 760.89 546.96 761.14 546.03 C 762.59 538.05 764.35 530.14 765.68 522.14 C 765.75 521.06 766.70 520.38 767.30 519.58 C 767.96 519.52 769.29 519.39 769.95 519.32 C 805.46 512.99 840.76 505.44 876.32 499.41 C 876.55 503.63 877.63 507.74 877.89 511.97 C 879.96 525.45 882.60 538.89 883.75 552.49 C 884.12 552.48 884.85 552.46 885.22 552.46 C 902.58 517.58 920.37 482.92 937.90 448.14 C 941.02 442.71 945.78 438.48 950.00 433.94 C 959.79 423.09 969.83 412.48 979.58 401.60 C 981.15 399.65 983.89 398.22 983.80 395.39 C 960.63 402.30 937.27 408.60 913.98 415.09 M 858.63 790.05 C 857.23 794.72 855.68 799.35 854.17 804.00 C 853.27 806.52 852.41 809.05 851.57 811.60 C 843.98 811.49 836.39 811.47 828.81 811.62 C 834.27 817.06 840.89 821.18 846.86 826.05 C 845.38 833.96 841.76 841.32 840.25 849.24 C 846.60 844.72 852.99 840.21 859.08 835.33 C 865.38 839.75 871.53 844.39 877.61 849.12 C 877.93 846.27 876.74 843.62 875.85 841.01 C 874.42 836.12 872.75 831.31 871.32 826.43 C 875.19 823.27 879.12 820.18 883.12 817.17 C 885.30 815.51 887.74 814.02 889.13 811.57 C 881.65 811.45 874.17 811.54 866.70 811.54 C 864.82 805.69 862.98 799.83 861.06 794.00 C 860.76 792.84 860.47 791.68 860.19 790.54 C 859.80 790.41 859.02 790.17 858.63 790.05 M 778.61 876.27 C 778.06 878.20 777.52 880.16 776.89 882.09 C 774.02 890.82 771.18 899.57 768.25 908.29 C 757.39 908.31 746.53 908.16 735.68 908.38 C 736.88 909.82 738.23 911.13 739.78 912.22 C 747.16 917.70 754.23 923.59 761.66 929.02 C 759.85 936.14 757.23 943.03 755.27 950.11 C 754.23 954.11 752.31 957.94 752.18 962.14 C 761.08 955.40 770.22 948.98 779.10 942.22 C 786.31 947.21 793.23 952.60 800.29 957.81 C 802.36 959.26 804.12 961.31 806.68 961.92 C 803.01 951.21 800.29 940.19 796.32 929.59 C 804.89 922.12 814.39 915.81 822.98 908.36 C 811.92 908.12 800.87 908.41 789.82 908.24 C 786.93 897.59 782.66 887.32 780.28 876.56 C 779.86 876.49 779.03 876.34 778.61 876.27 Z" />
<path fill="#b80000" opacity="1.00" d=" M 639.26 666.84 C 640.68 668.76 642.24 671.12 644.93 671.13 C 660.64 672.17 676.08 677.85 688.62 687.38 C 709.18 702.78 722.80 728.05 721.75 754.01 C 722.84 782.58 706.36 810.32 682.21 825.07 C 669.47 833.06 654.49 836.96 639.54 837.44 C 639.26 795.28 639.51 753.11 639.42 710.95 C 639.31 709.07 638.98 707.23 638.70 705.38 L 638.70 705.32 C 641.03 705.33 643.35 705.35 645.69 705.39 C 645.65 704.94 645.57 704.06 645.54 703.62 C 643.07 700.44 640.73 697.18 638.32 693.97 C 639.26 684.95 637.69 675.80 639.26 666.84 Z" />
</g>
<g id="#00000081">
<path fill="#000000" opacity="0.51" d=" M 829.69 267.22 C 832.26 267.31 834.75 267.96 837.20 268.75 C 845.35 271.29 853.64 273.32 861.90 275.46 C 866.05 276.55 870.40 276.97 874.37 278.73 C 870.85 278.59 867.42 277.84 864.05 276.91 C 852.54 273.89 840.77 271.58 829.69 267.22 Z" />
<path fill="#000000" opacity="0.51" d=" M 367.08 284.32 C 370.99 283.60 374.96 283.23 378.94 283.12 C 373.75 284.67 368.32 285.02 362.99 285.77 C 349.09 287.58 335.11 288.86 321.10 289.37 C 310.77 290.20 300.41 289.50 290.08 290.18 C 273.62 289.85 257.22 288.27 240.79 287.44 C 243.22 287.22 245.65 287.02 248.10 286.95 C 257.43 287.12 266.70 288.51 276.05 288.57 C 288.35 288.74 300.67 289.88 312.96 288.72 C 331.06 288.20 349.14 286.73 367.08 284.32 Z" />
<path fill="#000000" opacity="0.51" d=" M 1108.71 313.51 C 1109.54 304.81 1109.44 296.00 1111.30 287.42 C 1111.79 293.12 1110.76 298.81 1110.31 304.48 C 1108.23 332.28 1106.88 360.14 1105.61 387.99 C 1105.42 401.97 1103.56 415.95 1104.55 429.94 C 1104.31 428.32 1104.08 426.71 1103.86 425.10 C 1103.62 434.42 1102.93 443.72 1102.72 453.03 C 1102.45 456.43 1102.72 459.95 1101.65 463.24 C 1101.02 453.48 1102.82 443.78 1102.60 434.02 C 1104.27 393.83 1105.73 353.63 1108.71 313.51 Z" />
</g>
<g id="#00000084">
<path fill="#000000" opacity="0.52" d=" M 391.17 280.48 C 398.26 279.50 405.14 277.16 412.31 276.78 C 403.41 279.69 394.08 281.24 384.81 282.34 C 386.50 280.71 389.02 280.98 391.17 280.48 Z" />
</g>
<g id="#0000007d">
<path fill="#000000" opacity="0.49" d=" M 165.06 278.22 C 183.11 279.88 201.08 282.38 219.13 284.08 C 224.15 285.11 229.54 284.19 234.31 286.27 C 211.58 284.68 188.91 281.95 166.28 279.17 C 167.51 297.10 169.18 315.02 170.24 332.97 C 171.57 358.44 173.35 383.91 173.61 409.41 C 173.01 411.56 172.54 413.74 172.35 415.97 C 173.12 406.00 172.47 395.98 171.79 386.02 C 170.40 350.04 168.24 314.09 165.06 278.22 Z" />
</g>
<g id="#00000077">
<path fill="#000000" opacity="0.47" d=" M 1065.00 283.36 C 1080.84 281.83 1096.62 279.66 1112.46 278.14 L 1111.69 278.87 C 1105.99 280.20 1100.09 280.38 1094.31 281.21 C 1083.13 282.35 1072.00 284.13 1060.76 284.44 C 1062.02 283.61 1063.53 283.49 1065.00 283.36 Z" />
</g>
<g id="#00000078">
<path fill="#000000" opacity="0.47" d=" M 890.53 282.22 C 891.40 282.15 893.14 282.01 894.01 281.94 C 909.30 283.91 924.58 286.58 940.02 287.33 C 944.34 287.52 948.62 288.35 952.97 288.29 C 954.84 288.37 956.91 288.02 958.55 289.23 C 935.74 288.77 913.03 285.91 890.53 282.22 Z" />
</g>
<g id="#0000006e">
<path fill="#000000" opacity="0.43" d=" M 1043.47 285.64 C 1048.40 284.81 1053.39 284.37 1058.39 284.63 C 1039.72 287.34 1020.84 288.34 1002.02 289.49 C 989.91 290.18 977.77 289.95 965.67 289.46 C 973.42 288.76 981.20 289.56 988.96 288.83 C 1007.18 288.79 1025.32 286.98 1043.47 285.64 Z" />
</g>
<g id="#0000007c">
<path fill="#000000" opacity="0.49" d=" M 175.51 455.73 C 177.09 464.42 176.29 473.29 177.24 482.04 C 178.07 490.68 177.89 499.38 178.89 508.00 C 180.85 540.90 184.28 573.71 188.14 606.43 C 187.61 605.33 187.22 604.20 186.96 603.03 C 181.35 562.87 178.59 522.38 176.30 481.93 C 176.72 473.17 174.38 464.47 175.51 455.73 Z" />
</g>
<g id="#0000007f">
<path fill="#000000" opacity="0.50" d=" M 1099.96 489.92 C 1100.48 482.45 1100.14 474.91 1101.50 467.52 C 1102.32 472.34 1101.54 477.23 1101.24 482.06 C 1098.70 527.26 1095.63 572.54 1088.46 617.30 C 1086.78 629.19 1084.63 641.00 1082.42 652.81 C 1081.69 655.99 1081.59 659.43 1079.79 662.28 C 1080.70 654.42 1082.63 646.73 1083.90 638.94 C 1092.88 589.73 1096.78 539.77 1099.96 489.92 Z" />
</g>
<g id="#00000085">
<path fill="#000000" opacity="0.52" d=" M 189.92 621.00 C 190.03 620.38 190.26 619.14 190.38 618.52 C 192.43 633.51 195.69 648.30 198.12 663.22 L 197.73 664.25 C 194.49 649.97 191.74 635.51 189.92 621.00 Z" />
</g>
<g id="#00000079">
<path fill="#000000" opacity="0.47" d=" M 200.13 673.04 C 203.06 683.38 205.75 693.81 208.11 704.28 L 207.68 705.39 C 204.79 694.71 201.47 684.04 200.13 673.04 Z" />
</g>
<g id="#740302ff">
<path fill="#740302" opacity="1.00" d=" M 638.36 745.96 C 638.57 732.44 637.96 718.89 638.70 705.38 C 638.98 707.23 639.31 709.07 639.42 710.95 C 639.51 753.11 639.26 795.28 639.54 837.44 C 639.14 837.45 638.33 837.45 637.93 837.46 C 638.69 831.32 638.30 825.15 638.36 819.00 C 638.37 794.65 638.36 770.31 638.36 745.96 Z" />
</g>
<g id="#ffe161ff">
<path fill="#ffe161" opacity="1.00" d=" M 417.69 789.45 C 418.08 789.51 418.86 789.63 419.25 789.69 C 420.21 794.18 421.77 798.52 423.13 802.90 C 423.49 803.88 423.86 804.86 424.24 805.85 C 424.71 807.73 425.27 809.61 425.78 811.50 C 433.30 811.62 440.82 811.51 448.34 811.54 C 447.78 812.59 447.04 813.50 446.12 814.26 C 440.86 818.42 435.32 822.23 430.28 826.67 C 430.96 828.38 431.61 830.14 432.30 831.87 C 432.42 832.42 432.65 833.52 432.76 834.07 C 434.76 838.91 435.84 844.06 437.71 848.96 C 433.66 847.48 430.76 844.04 427.17 841.76 C 424.00 839.78 421.42 836.91 417.99 835.39 C 412.43 840.52 405.61 844.07 400.13 849.32 C 400.27 847.98 400.55 845.31 400.69 843.97 C 402.45 839.74 403.42 835.25 404.95 830.94 C 405.47 829.27 405.72 827.54 405.85 825.81 C 399.58 821.21 393.55 816.29 387.36 811.59 C 395.29 811.43 403.23 811.70 411.16 811.44 C 411.99 808.27 413.00 805.15 414.20 802.11 C 414.32 801.55 414.56 800.44 414.67 799.89 C 416.00 796.51 417.24 793.06 417.69 789.45 Z" />
</g>
<g id="#937b33ff">
<path fill="#937b33" opacity="1.00" d=" M 625.89 964.72 C 630.07 951.90 634.32 939.11 638.46 926.28 C 639.05 926.96 639.65 927.66 640.26 928.37 C 640.34 929.11 640.50 930.58 640.58 931.32 C 640.10 930.03 639.61 928.75 639.10 927.50 C 634.80 940.20 630.89 953.02 626.58 965.72 C 613.72 966.02 600.79 965.21 587.97 966.38 C 587.64 966.19 586.96 965.80 586.62 965.61 C 591.98 964.09 597.59 964.94 603.08 964.89 C 610.68 965.41 618.28 965.01 625.89 964.72 Z" />
</g>
<g id="#770805ff">
<path fill="#770805" opacity="1.00" d=" M 637.46 1005.76 C 638.24 1005.62 639.03 1005.55 639.84 1005.57 C 639.08 1013.03 639.52 1020.53 639.43 1028.02 C 639.46 1045.05 639.35 1062.09 639.48 1079.13 C 639.48 1079.55 639.47 1080.39 639.46 1080.81 C 639.03 1080.54 638.16 1080.00 637.73 1079.73 C 638.75 1073.85 638.30 1067.88 638.36 1061.96 C 638.37 1047.98 638.36 1034.01 638.36 1020.04 C 638.33 1015.26 638.89 1010.39 637.46 1005.76 Z" />
</g>
</svg>
