<?xml version="1.0" encoding="UTF-8" ?>
<!DOCTYPE svg PUBLIC "-//W3C//DTD SVG 1.1//EN" "http://www.w3.org/Graphics/SVG/1.1/DTD/svg11.dtd">
<svg width="1276pt" height="1276pt" viewBox="0 0 1276 1276" version="1.1" xmlns="http://www.w3.org/2000/svg">
<g id="#ff7b18ff">
<path fill="#ff7b18" opacity="1.00" d=" M 638.12 200.24 C 742.37 200.24 846.62 200.23 950.87 200.24 C 938.68 233.96 926.63 267.72 914.48 301.45 C 909.15 316.51 903.84 331.59 897.10 346.09 C 884.20 374.44 867.83 401.56 846.18 424.11 C 821.11 450.76 788.18 469.28 753.06 479.02 C 705.93 492.81 656.13 492.94 608.79 505.74 C 589.64 510.72 571.60 519.80 556.15 532.15 C 530.82 552.31 511.95 579.35 496.73 607.65 C 485.08 629.30 475.43 651.96 466.66 674.90 C 464.26 680.68 462.89 686.80 460.74 692.66 C 450.46 724.69 440.17 756.71 429.86 788.73 C 325.24 788.70 220.62 788.85 116.01 788.65 C 130.70 748.72 144.88 708.59 159.39 668.59 C 163.26 658.13 166.67 647.48 171.21 637.28 C 185.40 604.36 205.46 573.31 233.15 550.16 C 248.27 537.45 265.36 527.16 283.52 519.43 C 326.23 501.07 372.88 496.23 418.11 487.53 C 442.71 482.65 467.41 476.50 489.76 464.79 C 518.68 449.95 542.83 426.76 560.80 399.83 C 579.39 372.16 591.95 340.85 600.67 308.79 C 613.10 272.59 625.63 236.42 638.12 200.24 Z" />
</g>
<g id="#ff0018ff">
<path fill="#ff0018" opacity="1.00" d=" M 845.23 487.34 C 950.49 487.38 1055.75 487.24 1161.00 487.41 C 1143.70 533.75 1126.93 580.29 1109.74 626.68 C 1093.51 660.42 1073.22 692.78 1046.08 718.86 C 1031.64 732.58 1015.35 744.41 997.48 753.25 C 977.22 763.42 955.29 769.88 933.07 774.06 C 914.83 777.61 896.36 779.75 877.95 782.18 C 851.91 785.76 825.55 789.73 801.10 799.87 C 775.89 809.86 754.75 827.89 737.28 848.31 C 710.64 879.73 691.16 916.82 677.82 955.68 C 674.21 966.47 671.48 977.54 667.37 988.16 C 657.31 1017.43 646.95 1046.60 636.97 1075.90 C 532.69 1075.99 428.41 1075.97 324.14 1075.91 C 337.30 1039.18 350.52 1002.47 363.69 965.74 C 374.14 935.55 387.73 906.26 405.86 879.89 C 424.39 852.79 448.75 829.38 477.81 813.86 C 508.44 797.19 542.90 789.53 577.05 784.03 C 600.77 779.98 624.67 776.72 648.03 770.79 C 678.41 762.76 708.18 749.91 731.99 729.02 C 755.90 708.27 772.81 680.86 786.49 652.63 C 798.06 628.11 808.52 602.99 816.31 577.00 C 825.97 547.12 835.40 517.16 845.23 487.34 Z" />
</g>
</svg>
