<?xml version="1.0" encoding="UTF-8" ?>
<!DOCTYPE svg PUBLIC "-//W3C//DTD SVG 1.1//EN" "http://www.w3.org/Graphics/SVG/1.1/DTD/svg11.dtd">
<svg width="1276pt" height="1276pt" viewBox="0 0 1276 1276" version="1.1" xmlns="http://www.w3.org/2000/svg">
<g id="#e3000bff">
<path fill="#e3000b" opacity="1.00" d=" M 338.33 217.39 C 536.53 217.20 734.74 217.36 932.94 217.31 C 965.63 216.88 998.60 225.87 1025.83 244.13 C 1050.65 260.55 1070.51 284.33 1082.24 311.68 C 1089.09 327.59 1093.21 344.66 1094.53 361.93 C 1095.19 371.60 1094.87 381.30 1094.95 390.99 C 1094.94 561.32 1094.96 731.65 1094.94 901.98 C 1095.05 937.83 1082.18 973.57 1059.06 1001.00 C 1033.29 1032.01 995.11 1051.96 955.14 1056.50 C 943.15 1058.08 931.03 1057.67 918.98 1057.72 C 736.31 1057.72 553.64 1057.72 370.97 1057.72 C 359.19 1057.67 347.40 1057.84 335.61 1057.62 C 299.68 1056.57 263.99 1043.65 236.43 1020.44 C 206.88 996.02 187.17 960.14 182.38 922.11 C 180.72 910.81 181.09 899.37 181.05 887.99 C 181.06 716.66 181.05 545.33 181.06 374.01 C 180.92 342.48 191.29 311.16 209.61 285.57 C 228.23 259.37 254.92 239.09 285.02 227.88 C 302.05 221.49 320.17 218.04 338.33 217.39 M 501.58 437.69 C 486.34 442.32 471.89 449.78 459.73 460.12 C 454.66 448.98 444.43 440.82 432.92 437.04 C 419.81 432.51 405.79 431.49 392.01 431.44 C 372.76 431.32 353.31 435.87 336.63 445.63 C 320.92 454.67 307.94 467.98 298.17 483.17 C 290.13 495.76 283.03 508.93 276.24 522.23 C 265.99 542.39 256.56 562.97 247.85 583.85 C 232.94 620.03 219.63 657.08 211.73 695.48 C 207.80 715.74 204.97 736.74 208.77 757.25 C 212.14 775.71 221.23 793.17 234.88 806.11 C 250.82 821.57 272.29 830.38 294.11 833.28 C 310.69 835.36 327.56 834.78 344.08 832.39 C 363.51 829.42 382.78 823.20 399.14 812.10 C 420.04 826.94 445.52 834.51 471.01 835.44 C 505.48 836.51 541.29 829.16 569.90 809.17 C 574.73 813.12 579.98 816.52 585.42 819.58 C 614.04 835.41 648.21 838.59 680.15 833.63 C 711.45 828.81 741.10 814.66 764.89 793.80 C 778.36 811.24 798.28 822.78 819.23 828.88 C 840.86 835.14 863.74 836.59 886.11 834.50 C 907.72 832.46 929.04 826.03 947.69 814.81 C 975.34 798.34 996.10 772.64 1012.18 745.20 C 1030.65 714.23 1043.23 680.24 1054.13 646.01 C 1059.88 627.36 1065.17 608.41 1067.12 588.93 C 1070.16 564.26 1072.67 538.79 1066.33 514.41 C 1061.34 495.11 1051.07 477.17 1036.90 463.14 C 1025.05 451.60 1010.34 443.20 994.65 438.12 C 977.08 432.37 958.46 430.44 940.04 430.75 C 923.04 431.14 905.99 433.44 889.77 438.68 C 872.75 444.10 856.73 452.73 843.02 464.18 C 824.26 445.32 798.19 435.63 772.21 432.22 C 750.30 429.43 727.93 429.28 706.09 432.81 C 685.60 436.17 665.63 443.20 647.87 454.02 C 640.43 448.14 632.36 443.01 623.65 439.23 C 607.17 431.93 588.95 429.53 571.05 429.52 C 547.71 429.47 524.01 430.74 501.58 437.69 Z" />
</g>
<g id="#ffed00ff">
<path fill="#ffed00" opacity="1.00" d=" M 501.58 437.69 C 524.01 430.74 547.71 429.47 571.05 429.52 C 588.95 429.53 607.17 431.93 623.65 439.23 C 632.36 443.01 640.43 448.14 647.87 454.02 C 665.63 443.20 685.60 436.17 706.09 432.81 C 727.93 429.28 750.30 429.43 772.21 432.22 C 798.19 435.63 824.26 445.32 843.02 464.18 C 856.73 452.73 872.75 444.10 889.77 438.68 C 905.99 433.44 923.04 431.14 940.04 430.75 C 958.46 430.44 977.08 432.37 994.65 438.12 C 1010.34 443.20 1025.05 451.60 1036.90 463.14 C 1051.07 477.17 1061.34 495.11 1066.33 514.41 C 1072.67 538.79 1070.16 564.26 1067.12 588.93 C 1065.17 608.41 1059.88 627.36 1054.13 646.01 C 1043.23 680.24 1030.65 714.23 1012.18 745.20 C 996.10 772.64 975.34 798.34 947.69 814.81 C 929.04 826.03 907.72 832.46 886.11 834.50 C 863.74 836.59 840.86 835.14 819.23 828.88 C 798.28 822.78 778.36 811.24 764.89 793.80 C 741.10 814.66 711.45 828.81 680.15 833.63 C 648.21 838.59 614.04 835.41 585.42 819.58 C 579.98 816.52 574.73 813.12 569.90 809.17 C 541.29 829.16 505.48 836.51 471.01 835.44 C 445.52 834.51 420.04 826.94 399.14 812.10 C 382.78 823.20 363.51 829.42 344.08 832.39 C 327.56 834.78 310.69 835.36 294.11 833.28 C 272.29 830.38 250.82 821.57 234.88 806.11 C 221.23 793.17 212.14 775.71 208.77 757.25 C 204.97 736.74 207.80 715.74 211.73 695.48 C 219.63 657.08 232.94 620.03 247.85 583.85 C 256.56 562.97 265.99 542.39 276.24 522.23 C 283.03 508.93 290.13 495.76 298.17 483.17 C 307.94 467.98 320.92 454.67 336.63 445.63 C 353.31 435.87 372.76 431.32 392.01 431.44 C 405.79 431.49 419.81 432.51 432.92 437.04 C 444.43 440.82 454.66 448.98 459.73 460.12 C 471.89 449.78 486.34 442.32 501.58 437.69 M 544.07 453.71 C 522.54 455.57 500.76 460.61 482.30 472.26 C 469.05 480.41 458.29 492.04 449.94 505.07 C 449.82 494.35 448.93 482.74 442.10 473.95 C 434.78 463.68 422.56 458.22 410.42 456.21 C 391.90 453.23 372.19 454.13 354.91 461.96 C 339.95 468.60 327.77 480.38 318.88 493.96 C 311.17 505.86 304.56 518.42 298.11 531.04 C 287.45 552.18 277.65 573.74 268.60 595.61 C 254.47 630.21 241.55 665.53 234.07 702.22 C 230.25 721.99 227.81 742.98 234.34 762.47 C 239.71 779.41 252.15 793.88 268.06 801.80 C 286.42 811.30 307.70 812.55 327.96 811.13 C 354.09 809.31 381.12 801.05 399.94 782.03 C 417.16 801.04 442.76 810.65 467.97 812.24 C 489.08 813.34 510.52 810.75 530.45 803.60 C 545.28 798.16 559.44 789.98 570.04 778.10 C 577.60 787.58 587.32 795.25 598.05 800.85 C 614.61 809.41 633.42 813.03 651.97 812.86 C 669.88 812.98 687.79 809.66 704.52 803.30 C 729.95 793.72 752.41 776.83 769.30 755.59 C 775.95 774.61 790.00 790.87 807.93 800.09 C 831.46 812.45 859.06 814.25 885.06 811.24 C 903.27 809.03 921.19 803.46 936.94 793.94 C 953.93 783.82 968.11 769.49 979.63 753.52 C 1000.34 724.47 1013.71 691.03 1025.41 657.54 C 1033.70 633.61 1040.25 609.02 1044.17 583.97 C 1047.32 563.53 1048.38 542.37 1043.49 522.12 C 1039.53 505.35 1031.19 489.30 1018.22 477.77 C 1004.94 465.71 987.64 458.94 970.12 456.00 C 951.78 453.00 932.92 453.17 914.61 456.37 C 885.23 461.39 857.58 476.87 838.74 500.07 C 831.04 483.92 816.85 471.41 800.66 464.14 C 781.43 455.48 760.03 453.02 739.13 453.09 C 705.52 452.89 670.70 462.41 644.83 484.56 C 635.75 470.16 619.90 461.64 603.93 457.06 C 584.50 451.40 564.02 452.34 544.07 453.71 Z" />
</g>
<g id="#000000ff">
<path fill="#000000" opacity="1.00" d=" M 544.07 453.71 C 564.02 452.34 584.50 451.40 603.93 457.06 C 619.90 461.64 635.75 470.16 644.83 484.56 C 670.70 462.41 705.52 452.89 739.13 453.09 C 760.03 453.02 781.43 455.48 800.66 464.14 C 816.85 471.41 831.04 483.92 838.74 500.07 C 857.58 476.87 885.23 461.39 914.61 456.37 C 932.92 453.17 951.78 453.00 970.12 456.00 C 987.64 458.94 1004.94 465.71 1018.22 477.77 C 1031.19 489.30 1039.53 505.35 1043.49 522.12 C 1048.38 542.37 1047.32 563.53 1044.17 583.97 C 1040.25 609.02 1033.70 633.61 1025.41 657.54 C 1013.71 691.03 1000.34 724.47 979.63 753.52 C 968.11 769.49 953.93 783.82 936.94 793.94 C 921.19 803.46 903.27 809.03 885.06 811.24 C 859.06 814.25 831.46 812.45 807.93 800.09 C 790.00 790.87 775.95 774.61 769.30 755.59 C 752.41 776.83 729.95 793.72 704.52 803.30 C 687.79 809.66 669.88 812.98 651.97 812.86 C 633.42 813.03 614.61 809.41 598.05 800.85 C 587.32 795.25 577.60 787.58 570.04 778.10 C 559.44 789.98 545.28 798.16 530.45 803.60 C 510.52 810.75 489.08 813.34 467.97 812.24 C 442.76 810.65 417.16 801.04 399.94 782.03 C 381.12 801.05 354.09 809.31 327.96 811.13 C 307.70 812.55 286.42 811.30 268.06 801.80 C 252.15 793.88 239.71 779.41 234.34 762.47 C 227.81 742.98 230.25 721.99 234.07 702.22 C 241.55 665.53 254.47 630.21 268.60 595.61 C 277.65 573.74 287.45 552.18 298.11 531.04 C 304.56 518.42 311.17 505.86 318.88 493.96 C 327.77 480.38 339.95 468.60 354.91 461.96 C 372.19 454.13 391.90 453.23 410.42 456.21 C 422.56 458.22 434.78 463.68 442.10 473.95 C 448.93 482.74 449.82 494.35 449.94 505.07 C 458.29 492.04 469.05 480.41 482.30 472.26 C 500.76 460.61 522.54 455.57 544.07 453.71 M 550.87 480.91 C 531.41 482.09 511.35 486.55 495.56 498.58 C 478.96 511.00 467.56 528.88 458.15 547.05 C 440.84 581.52 426.69 617.64 416.46 654.84 C 410.67 676.44 406.13 698.58 405.82 721.02 C 405.72 736.16 410.70 751.62 421.21 762.75 C 435.57 778.21 457.33 784.72 477.98 784.55 C 497.43 784.34 517.34 780.80 534.50 771.30 C 546.91 764.48 557.34 753.08 560.63 739.06 C 562.74 729.83 563.49 719.23 557.98 711.00 C 552.66 702.98 542.95 699.44 533.81 698.14 C 515.16 695.87 496.28 698.64 478.25 703.52 C 482.32 688.42 486.79 673.43 492.12 658.73 C 510.88 661.90 531.04 664.56 549.23 657.39 C 564.96 651.28 574.52 635.16 576.90 619.03 C 577.97 612.50 576.42 605.21 571.46 600.57 C 565.90 595.42 558.22 593.53 550.91 592.60 C 538.98 591.38 526.96 592.32 515.12 593.90 C 520.20 581.31 525.81 568.88 532.98 557.33 C 544.99 557.96 557.04 557.56 569.04 556.92 C 581.31 556.42 593.87 553.96 604.47 547.48 C 612.86 542.43 619.42 534.23 621.86 524.69 C 623.83 516.80 624.48 507.87 620.26 500.58 C 615.29 491.90 605.99 486.83 596.75 483.89 C 581.95 479.08 566.17 480.21 550.87 480.91 M 711.97 484.16 C 693.59 487.53 676.03 495.58 661.85 507.81 C 645.51 521.65 633.61 539.87 623.65 558.63 C 606.04 592.57 592.39 628.61 583.55 665.82 C 579.13 685.20 575.47 705.21 577.94 725.13 C 579.87 740.71 586.38 756.18 598.22 766.80 C 609.34 776.98 624.14 782.26 638.94 784.01 C 657.04 786.04 675.64 784.06 692.80 777.87 C 712.02 771.03 729.15 758.90 742.79 743.81 C 762.90 721.52 775.76 693.32 781.85 664.07 C 784.25 652.33 786.12 639.88 782.57 628.17 C 780.26 620.21 774.37 613.45 766.84 610.02 C 756.28 605.18 744.32 605.09 732.95 605.96 C 722.76 606.78 712.08 608.51 703.60 614.65 C 694.30 621.37 689.18 632.32 686.46 643.17 C 684.81 649.45 685.85 656.79 690.65 661.46 C 695.89 666.47 703.30 668.47 710.37 668.92 C 707.21 682.59 701.15 696.05 690.76 705.74 C 684.11 711.96 675.18 716.60 665.85 715.63 C 660.22 715.40 654.48 712.13 652.67 706.57 C 649.73 698.00 651.74 688.74 653.51 680.14 C 658.23 659.83 665.05 640.09 672.31 620.57 C 678.93 603.19 685.93 585.91 694.48 569.38 C 698.65 561.36 703.71 553.49 710.98 547.93 C 717.96 542.49 727.54 540.50 736.07 542.94 C 738.81 543.76 741.28 546.02 741.47 549.02 C 741.96 554.80 738.98 560.05 737.74 565.56 C 736.31 571.09 736.38 577.40 739.71 582.26 C 743.43 587.69 749.98 590.20 756.23 591.31 C 770.88 593.81 787.00 590.27 798.34 580.37 C 808.73 571.13 813.79 557.42 815.89 543.98 C 818.05 531.31 817.05 517.32 809.36 506.58 C 800.24 493.57 784.58 487.25 769.51 484.24 C 750.57 480.69 730.93 480.72 711.97 484.16 M 936.14 482.23 C 923.16 482.84 910.20 485.40 898.18 490.39 C 883.50 496.40 870.77 506.53 860.70 518.70 C 843.49 539.69 833.16 565.16 823.39 590.21 C 815.11 611.04 807.84 632.30 802.17 654.00 C 796.95 674.27 792.57 694.97 792.10 715.97 C 791.68 730.65 794.15 746.05 802.67 758.34 C 809.53 768.54 820.32 775.53 831.86 779.38 C 846.62 784.31 862.46 784.99 877.88 783.95 C 893.25 782.90 908.54 778.74 921.82 770.82 C 936.61 762.12 948.67 749.44 958.38 735.42 C 968.47 720.74 976.31 704.67 983.69 688.50 C 1000.30 651.19 1012.89 611.82 1018.18 571.23 C 1020.22 553.66 1020.37 535.18 1013.70 518.51 C 1008.87 506.26 999.34 496.04 987.50 490.31 C 971.63 482.62 953.50 481.31 936.14 482.23 M 373.44 485.58 C 360.20 489.20 349.64 499.07 342.41 510.42 C 330.75 528.79 321.25 548.41 312.01 568.08 C 295.65 603.68 280.95 640.14 269.80 677.73 C 264.46 696.44 259.65 715.52 258.85 735.05 C 258.43 746.86 261.46 759.42 269.92 768.09 C 280.17 778.90 295.56 782.88 310.01 783.42 C 329.84 783.91 350.58 781.78 368.19 771.98 C 380.98 764.99 390.68 752.69 394.28 738.55 C 396.21 730.55 398.20 721.54 394.07 713.88 C 389.78 705.74 380.46 702.06 371.81 700.79 C 360.90 699.41 349.77 700.21 338.99 702.27 C 358.40 660.39 379.60 619.34 397.78 576.90 C 404.95 559.85 412.04 542.68 416.77 524.76 C 419.03 515.59 421.00 505.61 417.58 496.46 C 415.29 490.13 409.28 485.86 402.87 484.43 C 393.19 482.32 382.96 483.01 373.44 485.58 Z" />
<path fill="#000000" opacity="1.00" d=" M 930.52 543.80 C 935.66 543.08 941.80 542.40 946.06 546.04 C 950.32 550.12 949.84 556.64 949.31 562.03 C 947.57 573.88 944.04 585.37 940.67 596.84 C 932.79 622.24 923.77 647.29 913.77 671.94 C 909.90 681.16 906.09 690.44 901.24 699.21 C 897.51 705.57 893.01 712.29 885.84 715.06 C 880.19 717.18 872.90 717.10 868.46 712.54 C 864.49 708.52 863.88 702.43 864.65 697.09 C 866.35 685.19 869.91 673.66 873.33 662.16 C 881.30 636.61 890.43 611.41 900.74 586.71 C 905.61 575.57 910.12 564.12 916.96 553.99 C 920.06 549.12 924.69 544.91 930.52 543.80 Z" />
</g>
<g id="#ffffffff">
<path fill="#ffffff" opacity="1.00" d=" M 550.87 480.91 C 566.17 480.21 581.95 479.08 596.75 483.89 C 605.99 486.83 615.29 491.90 620.26 500.58 C 624.48 507.87 623.83 516.80 621.86 524.69 C 619.42 534.23 612.86 542.43 604.47 547.48 C 593.87 553.96 581.31 556.42 569.04 556.92 C 557.04 557.56 544.99 557.96 532.98 557.33 C 525.81 568.88 520.20 581.31 515.12 593.90 C 526.96 592.32 538.98 591.38 550.91 592.60 C 558.22 593.53 565.90 595.42 571.46 600.57 C 576.42 605.21 577.97 612.50 576.90 619.03 C 574.52 635.16 564.96 651.28 549.23 657.39 C 531.04 664.56 510.88 661.90 492.12 658.73 C 486.79 673.43 482.32 688.42 478.25 703.52 C 496.28 698.64 515.16 695.87 533.81 698.14 C 542.95 699.44 552.66 702.98 557.98 711.00 C 563.49 719.23 562.74 729.83 560.63 739.06 C 557.34 753.08 546.91 764.48 534.50 771.30 C 517.34 780.80 497.43 784.34 477.98 784.55 C 457.33 784.72 435.57 778.21 421.21 762.75 C 410.70 751.62 405.72 736.16 405.82 721.02 C 406.13 698.58 410.67 676.44 416.46 654.84 C 426.69 617.64 440.84 581.52 458.15 547.05 C 467.56 528.88 478.96 511.00 495.56 498.58 C 511.35 486.55 531.41 482.09 550.87 480.91 Z" />
<path fill="#ffffff" opacity="1.00" d=" M 711.97 484.16 C 730.93 480.72 750.57 480.69 769.51 484.24 C 784.58 487.25 800.24 493.57 809.36 506.58 C 817.05 517.32 818.05 531.31 815.89 543.98 C 813.79 557.42 808.73 571.13 798.34 580.37 C 787.00 590.27 770.88 593.81 756.23 591.31 C 749.98 590.20 743.43 587.69 739.71 582.26 C 736.38 577.40 736.31 571.09 737.74 565.56 C 738.98 560.05 741.96 554.80 741.47 549.02 C 741.28 546.02 738.81 543.76 736.07 542.94 C 727.54 540.50 717.96 542.49 710.98 547.93 C 703.71 553.49 698.65 561.36 694.48 569.38 C 685.93 585.91 678.93 603.19 672.31 620.57 C 665.05 640.09 658.23 659.83 653.51 680.14 C 651.74 688.74 649.73 698.00 652.67 706.57 C 654.48 712.13 660.22 715.40 665.85 715.63 C 675.18 716.60 684.11 711.96 690.76 705.74 C 701.15 696.05 707.21 682.59 710.37 668.92 C 703.30 668.47 695.89 666.47 690.65 661.46 C 685.85 656.79 684.81 649.45 686.46 643.17 C 689.18 632.32 694.30 621.37 703.60 614.65 C 712.08 608.51 722.76 606.78 732.95 605.96 C 744.32 605.09 756.28 605.18 766.84 610.02 C 774.37 613.45 780.26 620.21 782.57 628.17 C 786.12 639.88 784.25 652.33 781.85 664.07 C 775.76 693.32 762.90 721.52 742.79 743.81 C 729.15 758.90 712.02 771.03 692.80 777.87 C 675.64 784.06 657.04 786.04 638.94 784.01 C 624.14 782.26 609.34 776.98 598.22 766.80 C 586.38 756.18 579.87 740.71 577.94 725.13 C 575.47 705.21 579.13 685.20 583.55 665.82 C 592.39 628.61 606.04 592.57 623.65 558.63 C 633.61 539.87 645.51 521.65 661.85 507.81 C 676.03 495.58 693.59 487.53 711.97 484.16 Z" />
<path fill="#ffffff" opacity="1.00" d=" M 936.14 482.23 C 953.50 481.31 971.63 482.62 987.50 490.31 C 999.34 496.04 1008.87 506.26 1013.70 518.51 C 1020.37 535.18 1020.22 553.66 1018.18 571.23 C 1012.89 611.82 1000.30 651.19 983.69 688.50 C 976.31 704.67 968.47 720.74 958.38 735.42 C 948.67 749.44 936.61 762.12 921.82 770.82 C 908.54 778.74 893.25 782.90 877.88 783.95 C 862.46 784.99 846.62 784.31 831.86 779.38 C 820.32 775.53 809.53 768.54 802.67 758.34 C 794.15 746.05 791.68 730.65 792.10 715.97 C 792.57 694.97 796.95 674.27 802.17 654.00 C 807.84 632.30 815.11 611.04 823.39 590.21 C 833.16 565.16 843.49 539.69 860.70 518.70 C 870.77 506.53 883.50 496.40 898.18 490.39 C 910.20 485.40 923.16 482.84 936.14 482.23 M 930.52 543.80 C 924.69 544.91 920.06 549.12 916.96 553.99 C 910.12 564.12 905.61 575.57 900.74 586.71 C 890.43 611.41 881.30 636.61 873.33 662.16 C 869.91 673.66 866.35 685.19 864.65 697.09 C 863.88 702.43 864.49 708.52 868.46 712.54 C 872.90 717.10 880.19 717.18 885.84 715.06 C 893.01 712.29 897.51 705.57 901.24 699.21 C 906.09 690.44 909.90 681.16 913.77 671.94 C 923.77 647.29 932.79 622.24 940.67 596.84 C 944.04 585.37 947.57 573.88 949.31 562.03 C 949.84 556.64 950.32 550.12 946.06 546.04 C 941.80 542.40 935.66 543.08 930.52 543.80 Z" />
<path fill="#ffffff" opacity="1.00" d=" M 373.44 485.58 C 382.96 483.01 393.19 482.32 402.87 484.43 C 409.28 485.86 415.29 490.13 417.58 496.46 C 421.00 505.61 419.03 515.59 416.77 524.76 C 412.04 542.68 404.95 559.85 397.78 576.90 C 379.60 619.34 358.40 660.39 338.99 702.27 C 349.77 700.21 360.90 699.41 371.81 700.79 C 380.46 702.06 389.78 705.74 394.07 713.88 C 398.20 721.54 396.21 730.55 394.28 738.55 C 390.68 752.69 380.98 764.99 368.19 771.98 C 350.58 781.78 329.84 783.91 310.01 783.42 C 295.56 782.88 280.17 778.90 269.92 768.09 C 261.46 759.42 258.43 746.86 258.85 735.05 C 259.65 715.52 264.46 696.44 269.80 677.73 C 280.95 640.14 295.65 603.68 312.01 568.08 C 321.25 548.41 330.75 528.79 342.41 510.42 C 349.64 499.07 360.20 489.20 373.44 485.58 Z" />
</g>
</svg>
