<?xml version="1.0" encoding="UTF-8" ?>
<!DOCTYPE svg PUBLIC "-//W3C//DTD SVG 1.1//EN" "http://www.w3.org/Graphics/SVG/1.1/DTD/svg11.dtd">
<svg width="1276pt" height="1276pt" viewBox="0 0 1276 1276" version="1.1" xmlns="http://www.w3.org/2000/svg">
<g id="#5587a3ff">
<path fill="#5587a3" opacity="1.00" d=" M 391.77 253.68 C 491.56 230.82 591.37 208.08 691.18 185.33 C 709.12 264.89 727.27 344.40 745.38 423.92 C 706.66 485.46 668.70 547.50 629.95 609.00 C 604.47 593.27 579.33 576.87 554.00 560.84 C 518.01 537.86 481.93 514.99 445.99 491.92 C 436.44 448.95 426.50 406.06 416.82 363.11 C 408.42 326.64 400.38 290.09 391.77 253.68 M 662.85 226.73 L 662.29 227.12 C 662.14 225.26 658.46 226.52 659.32 228.12 L 658.53 228.25 L 658.02 227.46 L 656.98 227.49 L 656.49 228.28 L 655.75 228.53 C 655.67 228.57 655.51 228.64 655.43 228.67 L 654.51 229.18 L 654.01 228.41 L 652.98 228.43 L 652.49 229.23 L 651.69 229.52 C 651.61 229.56 651.43 229.63 651.35 229.66 L 650.27 230.15 C 650.22 228.11 646.39 229.30 647.30 230.99 L 646.59 231.11 C 644.31 229.74 639.96 230.44 638.64 232.85 C 629.51 235.00 620.34 237.07 611.18 239.07 C 610.43 237.22 606.07 238.13 606.29 240.15 L 605.30 240.11 C 605.11 238.27 601.62 239.49 602.36 241.05 L 601.24 241.03 C 601.08 239.08 597.49 240.44 598.33 242.03 L 597.50 242.16 L 596.99 241.38 L 595.95 241.38 L 595.47 242.14 L 595.08 242.43 C 593.59 241.32 592.46 241.59 591.68 243.26 L 591.02 243.35 C 589.52 242.26 588.60 242.55 588.25 244.21 L 587.29 244.14 C 586.32 242.55 581.94 243.83 581.99 245.69 C 572.73 247.92 563.44 250.03 554.15 252.11 C 553.40 250.24 548.98 251.06 549.27 253.16 L 548.00 253.35 C 546.47 252.24 545.55 252.49 545.21 254.10 L 544.28 253.99 C 544.07 252.10 540.49 253.45 541.38 255.03 L 540.48 255.17 L 540.03 254.37 L 539.05 254.30 L 538.55 255.03 L 537.80 255.55 C 537.67 255.60 537.41 255.71 537.27 255.76 L 536.29 255.91 C 534.44 255.64 532.53 255.88 530.94 256.91 C 526.27 259.01 521.07 259.38 516.17 260.76 C 513.68 261.03 510.89 262.85 508.62 260.84 C 508.13 261.71 508.93 262.17 509.61 262.58 C 505.24 262.81 501.12 264.44 496.78 264.88 C 496.66 264.90 496.41 264.95 496.29 264.97 L 495.53 265.27 C 495.17 265.06 494.45 264.63 494.09 264.41 L 493.59 265.13 L 492.78 265.59 C 492.69 265.64 492.49 265.74 492.40 265.79 L 491.03 266.44 C 489.50 265.23 488.56 265.45 488.21 267.10 L 487.24 267.01 C 487.08 265.18 483.52 266.40 484.31 267.96 L 483.25 267.90 C 482.97 265.47 478.49 266.94 480.10 269.00 L 479.28 269.15 C 478.72 267.52 473.83 267.75 474.28 269.80 C 467.70 272.25 460.65 273.30 453.80 274.79 L 451.63 273.84 C 451.11 274.72 451.95 275.17 452.63 275.60 C 448.27 275.76 444.17 277.42 439.85 277.86 C 439.73 277.88 439.48 277.93 439.35 277.95 L 438.38 278.23 C 437.40 276.82 436.89 276.94 436.86 278.60 L 435.76 278.72 C 435.64 278.73 435.39 278.76 435.26 278.78 L 434.06 278.96 C 432.89 277.11 428.38 279.78 430.71 280.74 L 431.18 281.70 C 429.25 281.80 430.37 285.46 432.02 284.70 L 432.01 285.79 C 430.05 285.93 431.41 289.49 433.00 288.63 L 433.10 289.52 L 432.33 290.01 L 432.36 290.97 L 433.16 291.41 C 435.66 297.66 436.28 304.46 438.01 310.93 C 440.07 318.77 441.44 326.77 443.39 334.63 C 441.39 334.62 442.23 338.44 444.00 337.72 L 444.04 338.75 C 442.09 338.88 443.43 342.49 445.01 341.66 L 445.12 342.50 L 444.35 343.03 L 444.40 344.05 L 445.24 344.49 L 445.59 345.09 C 444.97 346.65 444.70 349.12 446.07 350.37 L 446.66 350.17 L 447.00 350.75 C 444.51 350.85 445.80 355.49 447.93 353.94 L 447.92 355.02 C 445.83 355.02 446.91 359.08 448.70 358.01 L 448.95 359.02 C 446.67 359.43 447.73 364.46 450.03 363.63 C 450.41 365.59 450.99 367.51 451.55 369.43 C 453.57 379.98 456.44 390.40 458.69 400.92 C 459.28 403.64 459.18 406.56 460.43 409.11 C 461.52 415.81 463.49 422.36 464.83 429.02 C 465.03 429.36 465.42 430.05 465.62 430.39 C 465.47 432.66 466.11 434.88 466.65 437.07 C 468.16 442.55 469.06 448.16 470.41 453.68 C 470.61 454.67 471.05 455.54 471.72 456.32 C 471.63 458.15 471.89 459.97 472.27 461.78 C 474.47 462.77 476.46 464.14 478.35 465.63 L 478.38 466.59 L 479.32 467.14 L 480.16 466.71 C 480.99 467.23 481.85 467.73 482.73 468.21 C 483.85 471.51 487.82 472.40 490.36 474.38 C 490.74 474.25 491.48 473.97 491.85 473.83 C 493.28 474.71 494.76 475.51 496.19 476.41 C 496.20 479.05 499.38 479.65 501.14 480.95 L 501.24 479.73 C 501.70 479.98 502.63 480.46 503.09 480.70 C 500.77 481.71 504.82 484.26 505.97 482.67 C 507.30 483.73 508.84 484.48 510.33 485.32 L 510.28 485.73 C 525.52 495.12 540.84 504.37 556.05 513.78 C 558.20 515.23 560.26 517.10 562.97 517.37 C 566.42 521.30 571.60 523.13 575.89 526.00 C 588.43 534.26 601.42 541.78 614.06 549.88 C 615.13 550.41 616.71 552.62 617.73 550.79 C 626.09 538.28 633.85 525.39 642.15 512.86 C 643.09 511.46 644.47 510.12 644.38 508.31 C 644.88 507.81 645.89 506.82 646.39 506.33 C 653.58 494.67 661.25 483.30 668.61 471.75 L 668.54 471.32 C 672.02 467.57 673.44 462.46 676.84 458.66 C 678.74 457.10 679.85 454.86 681.13 452.81 C 683.08 449.60 685.37 446.56 686.81 443.06 C 688.66 439.72 690.90 436.62 692.90 433.38 C 695.06 434.46 697.18 430.81 695.60 429.18 C 696.34 428.16 697.02 427.10 697.63 426.00 C 700.37 425.08 701.76 422.33 703.02 419.95 L 701.66 419.80 C 701.98 419.32 702.60 418.36 702.92 417.87 L 702.91 419.29 C 704.59 417.44 707.64 415.13 706.49 412.38 C 707.41 410.96 708.17 409.46 708.98 407.97 C 708.27 403.91 707.61 399.83 706.53 395.85 L 706.24 396.41 C 705.52 388.73 702.78 381.39 701.74 373.74 C 702.63 372.24 702.32 371.44 700.80 371.34 L 700.78 370.24 C 702.62 370.07 701.42 366.59 699.85 367.23 L 699.79 366.02 C 699.99 365.52 700.38 364.51 700.58 364.00 L 699.96 363.05 L 699.20 363.02 L 698.78 361.79 C 700.03 360.64 699.39 354.60 697.32 356.96 C 697.24 356.28 697.07 354.91 696.99 354.23 C 697.62 352.81 696.70 351.37 696.54 349.97 C 695.38 343.84 693.83 337.76 692.00 331.82 L 691.78 331.31 C 693.69 331.24 692.66 327.52 690.99 328.29 L 690.98 327.22 C 692.91 327.07 691.57 323.48 689.99 324.33 L 689.88 323.49 L 690.66 322.97 L 690.61 321.93 L 689.79 321.46 L 689.94 321.00 C 690.06 320.63 690.30 319.89 690.42 319.52 C 689.36 318.54 690.40 314.42 688.22 315.84 C 688.14 315.22 687.98 314.00 687.90 313.39 C 688.74 310.74 686.68 308.13 686.04 305.63 L 685.65 304.92 C 686.75 303.38 686.51 302.46 684.93 302.16 L 685.03 301.18 C 685.38 298.60 683.80 296.18 684.06 293.56 C 681.89 287.50 681.37 280.96 678.99 274.97 C 677.29 272.69 679.72 269.51 677.19 267.89 C 676.69 266.00 676.32 264.08 675.74 262.21 C 678.02 262.28 677.16 257.61 675.12 259.19 L 675.03 257.96 C 677.12 258.09 676.13 254.07 674.36 254.95 L 674.20 253.84 C 674.17 253.72 674.13 253.46 674.10 253.34 L 673.73 252.30 C 675.79 252.28 674.69 248.46 672.95 249.34 L 672.80 248.40 C 674.17 247.35 674.02 246.86 672.35 246.94 C 672.25 246.29 672.06 244.98 671.97 244.33 C 672.74 242.52 671.21 240.74 671.26 238.91 C 671.51 236.78 670.98 234.50 669.50 232.92 L 669.33 232.18 C 669.10 230.08 669.50 227.62 667.98 225.91 C 666.26 225.54 664.37 225.83 662.85 226.73 Z" />
<path fill="#5587a3" opacity="1.00" d=" M 782.02 443.91 C 861.45 425.60 941.00 407.73 1020.47 389.59 C 1029.99 432.37 1040.04 475.05 1049.57 517.82 C 1049.18 519.04 1048.79 520.26 1048.40 521.48 C 1042.39 523.10 1036.11 522.87 1030.05 524.12 C 1026.54 524.79 1023.06 525.62 1019.50 525.92 C 1018.55 521.78 1017.57 517.62 1015.93 513.69 C 1015.64 514.27 1015.05 515.42 1014.76 516.00 C 1014.13 513.22 1013.46 510.46 1012.67 507.73 C 1012.39 506.35 1012.20 504.97 1012.01 503.60 C 1013.17 502.41 1013.21 500.24 1011.37 499.74 C 1011.24 499.20 1010.97 498.12 1010.84 497.58 C 1012.35 496.43 1011.53 494.59 1009.99 494.01 L 1010.12 493.41 C 1011.08 492.22 1010.82 491.66 1009.34 491.74 L 1009.24 490.61 L 1009.57 490.69 C 1009.48 490.56 1009.29 490.31 1009.19 490.19 C 1005.23 475.81 1002.33 461.14 998.93 446.62 C 999.83 445.56 1000.64 443.08 998.90 442.48 L 998.22 442.66 C 998.15 442.14 998.01 441.09 997.94 440.57 C 999.41 439.37 998.66 437.48 997.04 436.95 L 996.89 436.43 C 998.10 435.37 997.92 434.78 996.37 434.66 L 996.30 433.68 L 996.56 433.77 C 996.48 433.65 996.34 433.42 996.26 433.30 L 995.96 432.26 C 995.83 430.84 995.73 429.43 995.65 428.02 C 994.09 428.24 992.59 428.65 991.31 429.58 C 990.84 429.64 989.90 429.76 989.43 429.82 C 988.18 428.76 986.17 429.32 986.09 431.09 L 984.95 431.04 C 983.21 430.42 981.00 430.35 980.05 432.22 C 968.92 435.19 957.64 437.47 946.42 440.03 C 945.58 438.41 942.30 438.66 943.06 440.89 L 942.35 440.67 C 941.07 439.66 938.22 439.67 939.00 442.01 C 938.37 441.95 937.11 441.83 936.48 441.77 C 935.19 440.76 933.17 441.37 933.08 443.13 C 931.60 443.33 930.15 443.67 928.72 444.03 C 928.17 444.04 927.07 444.05 926.52 444.05 C 924.29 445.39 921.65 445.66 919.19 446.28 C 907.31 448.84 895.56 452.01 883.61 454.28 C 882.57 452.72 880.14 453.25 880.12 455.20 C 878.74 455.40 877.37 455.67 876.02 455.94 C 874.65 454.99 872.75 455.05 871.98 456.68 L 871.68 456.94 C 871.10 456.97 869.95 457.03 869.38 457.06 C 868.70 457.40 868.04 457.75 867.39 458.10 C 866.49 456.38 863.23 456.64 863.96 458.98 C 863.34 458.96 862.10 458.92 861.47 458.89 C 860.16 457.91 858.51 458.47 857.99 460.00 L 857.42 459.84 C 856.17 458.74 854.07 459.31 854.07 461.13 C 840.84 464.00 827.72 467.63 814.37 469.83 C 812.51 468.41 811.09 470.76 810.65 472.33 L 810.66 472.93 C 810.57 473.45 810.38 474.47 810.28 474.99 C 808.47 474.81 807.61 476.54 808.18 478.08 C 807.57 479.02 806.98 479.97 806.39 480.92 C 803.88 482.33 802.17 484.70 802.22 487.67 C 797.72 495.34 793.10 502.95 788.17 510.34 C 785.75 510.48 784.07 512.81 785.34 515.08 C 782.32 520.07 779.36 525.09 776.16 529.97 C 775.83 530.48 775.17 531.50 774.84 532.01 C 774.65 532.25 774.28 532.72 774.09 532.96 C 772.42 534.80 771.16 536.95 770.19 539.23 C 768.76 542.00 767.11 544.64 765.46 547.28 C 765.04 547.83 764.64 548.38 764.24 548.94 C 762.82 549.90 761.21 550.72 760.26 552.20 C 756.77 557.18 753.93 562.58 750.50 567.60 C 749.09 569.79 746.25 569.81 743.97 570.23 C 736.59 571.06 729.42 573.18 722.01 573.81 C 713.33 574.45 704.85 576.54 696.35 578.30 C 717.35 544.70 738.92 511.43 760.13 477.95 C 767.50 466.65 774.45 455.05 782.02 443.91 Z" />
<path fill="#5587a3" opacity="1.00" d=" M 188.90 576.49 C 268.00 558.51 347.14 540.65 426.20 522.47 C 461.79 544.60 497.37 566.74 532.96 588.88 C 539.07 592.79 545.40 596.37 551.35 600.53 C 539.19 604.21 526.34 604.42 513.95 607.01 C 505.92 608.29 497.90 609.69 489.90 611.11 C 486.85 609.14 483.66 607.36 480.93 604.95 C 481.11 602.17 478.28 601.84 476.19 602.12 C 475.91 601.90 475.36 601.45 475.09 601.22 C 474.88 599.61 473.24 598.29 471.70 599.27 C 471.28 598.95 470.44 598.31 470.03 598.00 C 464.20 593.68 458.07 589.68 451.73 586.16 C 451.27 585.94 450.34 585.49 449.87 585.27 C 450.26 583.43 448.23 582.55 446.75 583.09 C 446.49 582.87 445.97 582.44 445.71 582.22 C 445.18 579.99 442.95 578.48 440.71 579.39 C 439.77 578.63 438.82 577.90 437.86 577.19 C 432.27 573.37 426.71 569.36 420.68 566.28 L 419.86 565.92 C 419.78 563.79 417.75 562.74 415.84 563.23 C 413.88 562.14 411.99 560.93 409.91 560.12 C 408.04 560.04 406.22 560.48 404.39 560.71 C 402.47 560.73 400.55 560.95 398.83 561.84 C 393.83 563.92 388.38 564.49 383.16 565.82 C 377.90 566.72 372.83 568.42 367.56 569.26 C 366.61 567.95 366.00 568.05 365.72 569.57 L 364.79 569.58 C 364.66 569.60 364.42 569.63 364.30 569.64 L 363.10 569.91 C 361.63 569.43 360.61 569.79 360.02 570.98 L 359.42 570.73 C 358.22 569.80 356.30 570.28 356.08 571.91 L 355.34 571.66 C 354.09 570.78 351.31 570.65 352.03 572.93 L 351.32 572.70 C 349.47 571.60 347.11 572.01 346.07 574.01 L 345.51 574.17 C 344.46 572.92 343.87 573.09 343.72 574.67 L 342.78 574.75 L 342.59 574.50 C 342.52 574.58 342.37 574.76 342.30 574.84 C 337.61 576.53 332.65 577.24 327.85 578.52 C 320.74 580.08 313.70 582.01 306.48 582.97 C 303.89 583.27 301.26 583.65 298.86 584.73 L 298.38 584.92 C 297.46 583.37 294.33 583.65 295.00 585.86 L 294.39 585.67 C 293.07 584.73 290.64 584.55 290.85 586.82 L 289.70 586.64 C 289.63 586.64 289.49 586.66 289.42 586.67 L 288.65 587.03 C 288.08 587.04 286.94 587.06 286.37 587.07 L 286.12 587.25 C 284.83 586.63 282.65 586.81 282.73 588.68 L 282.20 588.63 C 280.95 587.12 279.09 587.84 278.42 589.47 L 277.74 589.55 C 277.63 589.57 277.41 589.60 277.30 589.61 L 276.61 589.73 C 275.23 588.39 273.09 588.63 272.76 590.74 L 272.45 590.78 C 268.36 591.08 264.25 591.80 260.50 593.50 C 256.60 594.75 252.26 596.76 248.24 594.99 C 248.66 595.62 249.13 596.18 249.67 596.73 C 245.59 596.98 241.65 598.17 237.65 598.94 C 235.85 598.09 232.75 597.43 231.72 599.70 L 231.39 600.00 C 230.20 598.93 229.67 599.16 229.78 600.70 L 228.15 600.81 L 228.07 599.63 C 227.42 601.56 228.06 603.54 228.67 605.41 L 228.99 606.34 C 230.65 611.83 232.19 617.45 232.76 623.18 L 232.55 623.34 C 232.62 623.42 232.74 623.58 232.80 623.66 L 233.11 624.57 C 232.00 625.79 232.21 626.31 233.73 626.14 L 233.72 626.83 C 232.22 628.04 232.72 630.19 234.72 630.36 C 236.37 637.16 237.88 644.00 239.42 650.83 C 238.82 652.09 238.24 653.36 237.65 654.64 C 228.28 656.12 218.72 656.59 209.57 659.29 C 208.96 660.65 208.33 662.01 207.75 663.40 C 200.98 635.49 194.97 607.39 188.35 579.44 C 188.33 578.46 187.29 576.60 188.90 576.49 Z" />
</g>
<g id="#628593bc">
<path fill="#628593" opacity="0.74" d=" M 659.32 228.12 C 658.46 226.52 662.14 225.26 662.29 227.12 C 661.41 227.78 660.43 228.12 659.32 228.12 Z" />
</g>
<g id="#5c7d89ab">
<path fill="#5c7d89" opacity="0.67" d=" M 656.98 227.49 L 658.02 227.46 L 658.53 228.25 C 658.02 228.26 657.00 228.27 656.49 228.28 L 656.98 227.49 Z" />
</g>
<g id="#aedce8ff">
<path fill="#aedce8" opacity="1.00" d=" M 662.29 227.12 L 662.85 226.73 C 664.55 226.72 666.76 225.29 668.18 226.76 C 668.70 228.53 668.93 230.38 669.33 232.18 L 669.50 232.92 C 670.33 236.72 671.37 240.48 671.97 244.33 C 672.06 244.98 672.25 246.29 672.35 246.94 C 672.46 247.30 672.69 248.03 672.80 248.40 L 672.95 249.34 C 673.04 250.36 673.30 251.35 673.73 252.30 L 674.10 253.34 L 674.20 253.84 L 674.36 254.95 C 674.46 255.97 674.69 256.98 675.03 257.96 L 675.12 259.19 C 675.13 260.23 675.33 261.23 675.74 262.21 C 676.32 264.08 676.69 266.00 677.19 267.89 C 679.72 269.51 677.29 272.69 678.99 274.97 C 681.27 283.64 683.26 292.39 685.03 301.18 L 684.93 302.16 C 684.69 303.18 684.93 304.11 685.65 304.92 L 686.04 305.63 C 686.80 308.17 687.47 310.75 687.90 313.39 C 687.98 314.00 688.14 315.22 688.22 315.84 C 688.21 317.71 688.70 319.55 689.94 321.00 L 689.79 321.46 C 689.81 321.97 689.86 322.98 689.88 323.49 L 689.99 324.33 C 689.96 325.42 690.29 326.39 690.98 327.22 L 690.99 328.29 C 690.95 329.36 691.22 330.37 691.78 331.31 L 692.00 331.82 C 692.67 334.54 693.30 337.26 693.97 339.99 C 693.54 340.13 692.67 340.42 692.24 340.57 C 691.69 338.82 691.15 337.08 690.61 335.34 C 679.28 336.71 667.94 338.05 656.64 339.63 C 636.12 341.00 615.89 345.37 595.34 346.43 C 581.58 348.26 567.81 350.09 554.03 351.79 C 549.33 352.02 544.62 352.15 540.01 353.13 C 529.02 354.55 518.02 355.92 507.01 357.26 C 501.67 357.92 496.38 359.07 490.97 359.06 C 482.27 359.72 473.66 361.23 465.01 362.34 C 460.79 362.90 456.51 363.01 452.39 364.13 C 452.08 365.89 451.76 367.65 451.55 369.43 C 450.99 367.51 450.41 365.59 450.03 363.63 C 449.77 362.07 449.41 360.53 448.95 359.02 L 448.70 358.01 C 448.49 356.99 448.22 356.00 447.92 355.02 L 447.93 353.94 C 448.08 352.74 447.77 351.68 447.00 350.75 L 446.66 350.17 C 446.70 348.41 446.73 346.53 445.59 345.09 L 445.24 344.49 C 445.21 343.99 445.15 342.99 445.12 342.50 L 445.01 341.66 C 445.04 340.55 444.71 339.58 444.04 338.75 L 444.00 337.72 C 443.98 336.65 443.78 335.62 443.39 334.63 C 441.44 326.77 440.07 318.77 438.01 310.93 C 436.28 304.46 435.66 297.66 433.16 291.41 C 433.15 290.94 433.12 290.00 433.10 289.52 L 433.00 288.63 C 433.04 287.53 432.71 286.59 432.01 285.79 L 432.02 284.70 C 432.05 283.62 431.77 282.62 431.18 281.70 L 430.71 280.74 C 431.79 280.09 432.91 279.51 434.06 278.96 L 435.26 278.78 L 435.76 278.72 L 436.86 278.60 C 437.24 278.51 438.00 278.32 438.38 278.23 L 439.35 277.95 L 439.85 277.86 C 444.17 277.42 448.27 275.76 452.63 275.60 C 451.95 275.17 451.11 274.72 451.63 273.84 L 453.80 274.79 C 460.65 273.30 467.70 272.25 474.28 269.80 C 475.95 269.68 477.63 269.53 479.28 269.15 L 480.10 269.00 C 481.35 269.11 482.40 268.75 483.25 267.90 L 484.31 267.96 C 485.42 268.09 486.40 267.78 487.24 267.01 L 488.21 267.10 C 489.22 267.26 490.16 267.03 491.03 266.44 L 492.40 265.79 C 492.49 265.74 492.69 265.64 492.78 265.59 L 493.59 265.13 C 494.07 265.17 495.04 265.24 495.53 265.27 L 496.29 264.97 L 496.78 264.88 C 501.12 264.44 505.24 262.81 509.61 262.58 C 508.93 262.17 508.13 261.71 508.62 260.84 C 510.89 262.85 513.68 261.03 516.17 260.76 C 521.07 259.38 526.27 259.01 530.94 256.91 C 532.70 256.46 534.50 256.17 536.29 255.91 L 537.27 255.76 C 537.41 255.71 537.67 255.60 537.80 255.55 L 538.55 255.03 C 539.04 255.06 540.00 255.14 540.48 255.17 L 541.38 255.03 C 542.48 255.03 543.45 254.68 544.28 253.99 L 545.21 254.10 C 546.24 254.30 547.17 254.05 548.00 253.35 L 549.27 253.16 C 550.96 253.24 552.61 252.81 554.15 252.11 C 563.44 250.03 572.73 247.92 581.99 245.69 C 583.78 245.35 585.81 245.39 587.29 244.14 L 588.25 244.21 C 589.28 244.35 590.20 244.06 591.02 243.35 L 591.68 243.26 C 592.90 243.81 594.22 243.44 595.08 242.43 L 595.47 242.14 C 595.98 242.15 596.99 242.16 597.50 242.16 L 598.33 242.03 C 599.42 242.03 600.39 241.70 601.24 241.03 L 602.36 241.05 C 603.48 241.18 604.46 240.87 605.30 240.11 L 606.29 240.15 C 608.00 240.39 609.63 239.74 611.18 239.07 C 620.34 237.07 629.51 235.00 638.64 232.85 C 641.30 232.31 643.93 231.66 646.59 231.11 L 647.30 230.99 C 648.34 230.90 649.33 230.62 650.27 230.15 L 651.35 229.66 C 651.43 229.63 651.61 229.56 651.69 229.52 L 652.49 229.23 C 653.00 229.22 654.01 229.19 654.51 229.18 L 655.43 228.67 C 655.51 228.64 655.67 228.57 655.75 228.53 L 656.49 228.28 C 657.00 228.27 658.02 228.26 658.53 228.25 L 659.32 228.12 C 660.43 228.12 661.41 227.78 662.29 227.12 Z" />
<path fill="#aedce8" opacity="1.00" d=" M 991.31 429.58 C 992.48 429.46 993.66 429.36 994.86 429.26 C 995.22 430.25 995.59 431.25 995.96 432.26 L 996.26 433.30 L 996.30 433.68 L 996.37 434.66 C 996.50 435.10 996.76 435.99 996.89 436.43 L 997.04 436.95 C 996.82 438.28 997.12 439.49 997.94 440.57 C 998.01 441.09 998.15 442.14 998.22 442.66 C 998.16 444.03 998.40 445.35 998.93 446.62 C 1002.33 461.14 1005.23 475.81 1009.19 490.19 L 1009.24 490.61 L 1009.34 491.74 C 1009.54 492.15 1009.92 492.99 1010.12 493.41 L 1009.99 494.01 C 1009.67 495.30 1009.96 496.49 1010.84 497.58 C 1010.97 498.12 1011.24 499.20 1011.37 499.74 C 1011.17 501.08 1011.38 502.37 1012.01 503.60 C 1012.20 504.97 1012.39 506.35 1012.67 507.73 C 1011.29 506.65 1010.05 504.67 1008.05 505.08 C 997.34 506.37 986.92 509.57 976.13 510.35 C 964.73 512.60 953.26 514.57 941.83 516.70 C 930.04 517.89 918.53 520.79 906.86 522.68 C 895.07 523.81 883.58 526.88 871.88 528.67 C 858.10 530.07 844.68 533.71 831.00 535.77 C 823.09 536.16 815.49 538.59 807.67 539.61 C 799.48 541.52 791.06 541.96 782.84 543.70 C 778.06 544.44 773.36 545.79 768.50 545.82 C 767.55 546.48 766.86 548.18 765.46 547.28 C 767.11 544.64 768.76 542.00 770.19 539.23 C 771.44 537.11 772.71 535.00 774.09 532.96 C 774.28 532.72 774.65 532.25 774.84 532.01 C 775.17 531.50 775.83 530.48 776.16 529.97 C 779.36 525.09 782.32 520.07 785.34 515.08 C 786.59 513.70 787.54 512.10 788.17 510.34 C 793.10 502.95 797.72 495.34 802.22 487.67 C 803.77 485.52 805.17 483.27 806.39 480.92 C 806.98 479.97 807.57 479.02 808.18 478.08 C 809.31 477.43 810.25 476.36 810.28 474.99 C 810.38 474.47 810.57 473.45 810.66 472.93 C 811.74 472.57 812.62 471.91 813.32 470.95 C 813.58 470.67 814.11 470.11 814.37 469.83 C 827.72 467.63 840.84 464.00 854.07 461.13 C 855.41 461.24 856.53 460.81 857.42 459.84 L 857.99 460.00 C 859.40 460.46 860.56 460.09 861.47 458.89 C 862.10 458.92 863.34 458.96 863.96 458.98 C 865.18 459.04 866.32 458.75 867.39 458.10 C 868.04 457.75 868.70 457.40 869.38 457.06 C 869.95 457.03 871.10 456.97 871.68 456.94 L 871.98 456.68 C 873.36 457.02 874.86 456.86 876.02 455.94 C 877.37 455.67 878.74 455.40 880.12 455.20 C 881.34 455.14 882.50 454.83 883.61 454.28 C 895.56 452.01 907.31 448.84 919.19 446.28 C 921.65 445.66 924.29 445.39 926.52 444.05 L 927.04 444.64 C 927.46 444.49 928.30 444.18 928.72 444.03 C 930.15 443.67 931.60 443.33 933.08 443.13 C 934.47 443.26 935.60 442.81 936.48 441.77 C 937.11 441.83 938.37 441.95 939.00 442.01 C 940.35 442.20 941.47 441.76 942.35 440.67 L 943.06 440.89 C 944.25 441.13 945.37 440.84 946.42 440.03 C 957.64 437.47 968.92 435.19 980.05 432.22 C 981.77 432.51 983.54 432.14 984.95 431.04 L 986.09 431.09 C 987.44 431.28 988.55 430.86 989.43 429.82 C 989.90 429.76 990.84 429.64 991.31 429.58 Z" />
<path fill="#aedce8" opacity="1.00" d=" M 404.39 560.71 C 406.22 560.48 408.04 560.04 409.91 560.12 C 411.99 560.93 413.88 562.14 415.84 563.23 C 416.52 564.91 418.14 565.69 419.86 565.92 L 420.68 566.28 C 426.45 569.84 432.01 573.73 437.86 577.19 C 438.82 577.90 439.77 578.63 440.71 579.39 C 442.06 580.82 443.73 581.91 445.71 582.22 C 445.97 582.44 446.49 582.87 446.75 583.09 C 447.42 584.24 448.55 585.01 449.87 585.27 C 450.34 585.49 451.27 585.94 451.73 586.16 C 457.81 590.13 463.93 594.04 470.03 598.00 C 470.44 598.31 471.28 598.95 471.70 599.27 C 472.49 600.39 473.70 601.08 475.09 601.22 C 475.36 601.45 475.91 601.90 476.19 602.12 C 477.01 602.94 477.89 603.71 478.90 604.34 C 479.41 604.49 480.42 604.80 480.93 604.95 C 483.66 607.36 486.85 609.14 489.90 611.11 C 492.10 612.58 494.29 614.23 496.94 614.85 C 497.41 616.06 498.41 616.95 499.46 617.70 C 500.05 617.70 501.22 617.69 501.81 617.69 C 502.05 618.04 502.54 618.75 502.78 619.10 C 503.31 620.46 504.67 621.09 506.07 621.17 C 512.70 625.97 519.67 630.29 526.68 634.50 C 527.77 635.71 529.13 636.64 530.69 637.16 C 531.15 637.37 532.06 637.80 532.52 638.01 C 535.26 640.38 538.47 642.10 541.42 644.20 C 535.40 646.89 528.67 646.90 522.35 648.45 C 517.76 649.60 513.06 650.01 508.38 650.53 C 499.64 652.16 490.90 653.84 482.14 655.36 C 470.99 656.60 460.02 659.02 449.00 661.07 C 433.88 663.00 418.95 666.19 403.95 668.85 C 392.16 670.00 380.69 673.09 368.99 674.84 C 355.32 676.14 342.07 680.12 328.40 681.48 C 317.63 683.28 306.91 685.38 296.17 687.38 C 281.45 688.98 267.08 692.96 252.34 694.39 C 251.22 695.40 250.87 696.98 250.26 698.32 C 249.94 697.24 249.61 696.18 249.28 695.13 C 248.42 691.47 247.71 687.71 246.45 684.16 C 246.38 682.44 246.20 680.74 245.89 679.07 C 245.73 678.66 245.41 677.86 245.25 677.45 C 243.72 668.49 241.22 659.73 239.42 650.83 C 237.88 644.00 236.37 637.16 234.72 630.36 C 234.65 629.10 234.31 627.93 233.72 626.83 L 233.73 626.14 L 233.76 625.22 L 233.11 624.57 L 232.80 623.66 L 232.76 623.18 C 232.19 617.45 230.65 611.83 228.99 606.34 C 228.51 604.52 228.21 602.68 228.15 600.81 L 229.78 600.70 C 230.19 600.53 230.99 600.17 231.39 600.00 L 231.72 599.70 C 233.72 600.00 235.84 599.92 237.65 598.94 C 241.65 598.17 245.59 596.98 249.67 596.73 C 249.13 596.18 248.66 595.62 248.24 594.99 C 252.26 596.76 256.60 594.75 260.50 593.50 C 264.42 592.35 268.44 591.59 272.45 590.78 L 272.76 590.74 C 274.15 591.03 275.60 590.80 276.61 589.73 L 277.30 589.61 L 277.74 589.55 L 278.42 589.47 C 279.77 589.64 281.04 589.36 282.20 588.63 L 282.73 588.68 C 284.06 589.03 285.32 588.26 286.12 587.25 L 286.37 587.07 C 286.94 587.06 288.08 587.04 288.65 587.03 L 289.42 586.67 L 289.70 586.64 L 290.85 586.82 C 292.28 587.24 293.46 586.86 294.39 585.67 L 295.00 585.86 C 296.23 586.11 297.35 585.80 298.38 584.92 L 298.86 584.73 C 301.41 584.19 303.95 583.58 306.48 582.97 C 313.70 582.01 320.74 580.08 327.85 578.52 C 332.65 577.24 337.61 576.53 342.30 574.84 L 342.78 574.75 L 343.72 574.67 C 344.17 574.54 345.06 574.30 345.51 574.17 L 346.07 574.01 C 347.90 574.30 350.06 574.31 351.32 572.70 L 352.03 572.93 C 353.39 573.33 354.49 572.91 355.34 571.66 L 356.08 571.91 C 357.44 572.33 358.55 571.94 359.42 570.73 L 360.02 570.98 C 361.28 571.51 362.31 571.15 363.10 569.91 L 364.30 569.64 L 364.79 569.58 L 365.72 569.57 C 366.18 569.49 367.10 569.34 367.56 569.26 C 372.83 568.42 377.90 566.72 383.16 565.82 C 388.38 564.49 393.83 563.92 398.83 561.84 C 400.67 561.43 402.53 561.09 404.39 560.71 Z" />
<path fill="#aedce8" opacity="1.00" d=" M 654.08 718.25 C 654.49 717.68 655.31 716.54 655.72 715.96 C 668.12 723.68 680.60 731.28 692.93 739.13 C 693.37 739.39 694.25 739.92 694.69 740.18 C 696.77 741.40 698.79 742.72 700.82 744.05 C 701.31 744.34 702.29 744.94 702.78 745.24 C 713.55 751.77 724.32 758.32 734.90 765.17 C 740.05 768.75 745.45 771.97 750.88 775.12 C 757.58 779.00 764.13 783.15 770.72 787.23 C 759.24 794.58 746.72 800.08 735.02 807.03 C 717.04 816.24 699.51 826.21 681.68 835.69 C 657.65 848.62 633.76 861.82 609.67 874.66 C 598.18 880.39 587.19 887.05 575.66 892.69 C 573.69 893.46 573.12 895.62 572.23 897.33 C 570.15 889.07 568.77 880.65 566.32 872.50 C 566.26 872.00 566.13 871.00 566.07 870.50 C 565.65 869.79 565.45 869.03 565.46 868.24 C 565.78 866.46 565.04 864.80 564.26 863.27 L 563.82 862.26 C 563.68 861.68 563.39 860.52 563.25 859.94 C 563.84 858.99 564.46 858.05 565.08 857.12 C 565.37 856.64 565.96 855.70 566.25 855.22 C 567.92 852.54 569.57 849.84 571.24 847.16 C 571.45 846.87 571.89 846.30 572.10 846.01 C 573.09 845.45 573.84 844.51 573.76 843.34 C 577.32 838.85 580.15 833.84 583.19 829.01 C 583.50 828.58 584.12 827.73 584.43 827.31 C 584.56 827.01 584.82 826.40 584.94 826.10 C 586.27 823.76 587.71 821.49 589.23 819.28 C 594.79 811.45 599.88 803.27 604.92 795.09 C 606.15 792.94 607.46 790.84 608.78 788.74 L 609.11 788.23 C 611.53 784.57 613.80 780.80 616.19 777.12 C 616.41 776.82 616.84 776.22 617.06 775.92 C 618.19 774.68 619.13 773.29 619.81 771.76 L 620.09 771.24 C 621.63 768.70 623.22 766.20 624.89 763.74 C 630.33 756.07 635.31 748.07 640.17 740.02 C 641.51 738.80 642.35 737.18 642.93 735.48 C 643.23 735.14 643.83 734.44 644.13 734.10 C 644.42 733.66 645.02 732.78 645.31 732.34 C 645.47 732.01 645.80 731.36 645.96 731.03 C 647.32 728.74 648.71 726.46 650.17 724.23 C 650.47 723.93 651.06 723.33 651.35 723.03 C 652.24 722.35 652.91 721.42 653.16 720.32 C 653.39 719.81 653.85 718.77 654.08 718.25 Z" />
</g>
<g id="#62818cab">
<path fill="#62818c" opacity="0.67" d=" M 652.98 228.43 L 654.01 228.41 L 654.51 229.18 C 654.01 229.19 653.00 229.22 652.49 229.23 L 652.98 228.43 Z" />
</g>
<g id="#587682a2">
<path fill="#587682" opacity="0.64" d=" M 655.43 228.67 C 655.51 228.64 655.67 228.57 655.75 228.53 C 655.67 228.57 655.51 228.64 655.43 228.67 Z" />
</g>
<g id="#6f919dba">
<path fill="#6f919d" opacity="0.73" d=" M 647.30 230.99 C 646.39 229.30 650.22 228.11 650.27 230.15 C 649.33 230.62 648.34 230.90 647.30 230.99 Z" />
</g>
<g id="#5e7c87a3">
<path fill="#5e7c87" opacity="0.64" d=" M 651.35 229.66 C 651.43 229.63 651.61 229.56 651.69 229.52 C 651.61 229.56 651.43 229.63 651.35 229.66 Z" />
</g>
<g id="#658997c1">
<path fill="#658997" opacity="0.76" d=" M 638.64 232.85 C 639.96 230.44 644.31 229.74 646.59 231.11 C 643.93 231.66 641.30 232.31 638.64 232.85 Z" />
</g>
<g id="#6b8e9cbe">
<path fill="#6b8e9c" opacity="0.75" d=" M 606.29 240.15 C 606.07 238.13 610.43 237.22 611.18 239.07 C 609.63 239.74 608.00 240.39 606.29 240.15 Z" />
</g>
<g id="#638794bc">
<path fill="#638794" opacity="0.74" d=" M 602.36 241.05 C 601.62 239.49 605.11 238.27 605.30 240.11 C 604.46 240.87 603.48 241.18 602.36 241.05 Z" />
</g>
<g id="#6a8d9abc">
<path fill="#6a8d9a" opacity="0.74" d=" M 598.33 242.03 C 597.49 240.44 601.08 239.08 601.24 241.03 C 600.39 241.70 599.42 242.03 598.33 242.03 Z" />
</g>
<g id="#64838eab">
<path fill="#64838e" opacity="0.67" d=" M 595.95 241.38 L 596.99 241.38 L 597.50 242.16 C 596.99 242.16 595.98 242.15 595.47 242.14 L 595.95 241.38 Z" />
</g>
<g id="#688b98bc">
<path fill="#688b98" opacity="0.74" d=" M 591.68 243.26 C 592.46 241.59 593.59 241.32 595.08 242.43 C 594.22 243.44 592.90 243.81 591.68 243.26 Z" />
</g>
<g id="#5a7e8ebc">
<path fill="#5a7e8e" opacity="0.74" d=" M 581.99 245.69 C 581.94 243.83 586.32 242.55 587.29 244.14 C 585.81 245.39 583.78 245.35 581.99 245.69 Z" />
</g>
<g id="#628593b8">
<path fill="#628593" opacity="0.72" d=" M 588.25 244.21 C 588.60 242.55 589.52 242.26 591.02 243.35 C 590.20 244.06 589.28 244.35 588.25 244.21 Z" />
</g>
<g id="#4d6c7aa5">
<path fill="#4d6c7a" opacity="0.65" d=" M 672.35 246.94 C 674.02 246.86 674.17 247.35 672.80 248.40 C 672.69 248.03 672.46 247.30 672.35 246.94 Z" />
</g>
<g id="#628797c6">
<path fill="#628797" opacity="0.78" d=" M 672.95 249.34 C 674.69 248.46 675.79 252.28 673.73 252.30 C 673.30 251.35 673.04 250.36 672.95 249.34 Z" />
</g>
<g id="#6d909dbe">
<path fill="#6d909d" opacity="0.75" d=" M 549.27 253.16 C 548.98 251.06 553.40 250.24 554.15 252.11 C 552.61 252.81 550.96 253.24 549.27 253.16 Z" />
</g>
<g id="#6b8d9abc">
<path fill="#6b8d9a" opacity="0.74" d=" M 541.38 255.03 C 540.49 253.45 544.07 252.10 544.28 253.99 C 543.45 254.68 542.48 255.03 541.38 255.03 Z" />
</g>
<g id="#6f919bb7">
<path fill="#6f919b" opacity="0.72" d=" M 545.21 254.10 C 545.55 252.49 546.47 252.24 548.00 253.35 C 547.17 254.05 546.24 254.30 545.21 254.10 Z" />
</g>
<g id="#38536089">
<path fill="#385360" opacity="0.54" d=" M 674.10 253.34 C 674.13 253.46 674.17 253.72 674.20 253.84 L 674.10 253.34 Z" />
</g>
<g id="#65858fab">
<path fill="#65858f" opacity="0.67" d=" M 539.05 254.30 L 540.03 254.37 L 540.48 255.17 C 540.00 255.14 539.04 255.06 538.55 255.03 L 539.05 254.30 Z" />
</g>
<g id="#617f8aa3">
<path fill="#617f8a" opacity="0.64" d=" M 537.27 255.76 C 537.41 255.71 537.67 255.60 537.80 255.55 C 537.67 255.60 537.41 255.71 537.27 255.76 Z" />
</g>
<g id="#51778bc7">
<path fill="#51778b" opacity="0.78" d=" M 674.36 254.95 C 676.13 254.07 677.12 258.09 675.03 257.96 C 674.69 256.98 674.46 255.97 674.36 254.95 Z" />
</g>
<g id="#688e9eca">
<path fill="#688e9e" opacity="0.79" d=" M 675.12 259.19 C 677.16 257.61 678.02 262.28 675.74 262.21 C 675.33 261.23 675.13 260.23 675.12 259.19 Z" />
</g>
<g id="#5f8292bf">
<path fill="#5f8292" opacity="0.75" d=" M 494.09 264.41 C 494.45 264.63 495.17 265.06 495.53 265.27 C 495.04 265.24 494.07 265.17 493.59 265.13 L 494.09 264.41 Z" />
</g>
<g id="#50707ea5">
<path fill="#50707e" opacity="0.65" d=" M 496.29 264.97 C 496.41 264.95 496.66 264.90 496.78 264.88 L 496.29 264.97 Z" />
</g>
<g id="#577480a1">
<path fill="#577480" opacity="0.63" d=" M 492.40 265.79 C 492.49 265.74 492.69 265.64 492.78 265.59 C 492.69 265.64 492.49 265.74 492.40 265.79 Z" />
</g>
<g id="#6d8f9bbc">
<path fill="#6d8f9b" opacity="0.74" d=" M 484.31 267.96 C 483.52 266.40 487.08 265.18 487.24 267.01 C 486.40 267.78 485.42 268.09 484.31 267.96 Z" />
</g>
<g id="#70929db7">
<path fill="#70929d" opacity="0.72" d=" M 488.21 267.10 C 488.56 265.45 489.50 265.23 491.03 266.44 C 490.16 267.03 489.22 267.26 488.21 267.10 Z" />
</g>
<g id="#668d9dcb">
<path fill="#668d9d" opacity="0.80" d=" M 480.10 269.00 C 478.49 266.94 482.97 265.47 483.25 267.90 C 482.40 268.75 481.35 269.11 480.10 269.00 Z" />
</g>
<g id="#5c7b88ab">
<path fill="#5c7b88" opacity="0.67" d=" M 436.86 278.60 C 436.89 276.94 437.40 276.82 438.38 278.23 C 438.00 278.32 437.24 278.51 436.86 278.60 Z" />
</g>
<g id="#52717fa5">
<path fill="#52717f" opacity="0.65" d=" M 439.35 277.95 C 439.48 277.93 439.73 277.88 439.85 277.86 L 439.35 277.95 Z" />
</g>
<g id="#567480a1">
<path fill="#567480" opacity="0.63" d=" M 435.26 278.78 C 435.39 278.76 435.64 278.73 435.76 278.72 L 435.26 278.78 Z" />
</g>
<g id="#648897c3">
<path fill="#648897" opacity="0.76" d=" M 432.02 284.70 C 430.37 285.46 429.25 281.80 431.18 281.70 C 431.77 282.62 432.05 283.62 432.02 284.70 Z" />
</g>
<g id="#698e9cc4">
<path fill="#698e9c" opacity="0.77" d=" M 433.00 288.63 C 431.41 289.49 430.05 285.93 432.01 285.79 C 432.71 286.59 433.04 287.53 433.00 288.63 Z" />
<path fill="#698e9c" opacity="0.77" d=" M 863.96 458.98 C 863.23 456.64 866.49 456.38 867.39 458.10 C 866.32 458.75 865.18 459.04 863.96 458.98 Z" />
</g>
<g id="#5d7c87a5">
<path fill="#5d7c87" opacity="0.65" d=" M 432.33 290.01 L 433.10 289.52 C 433.12 290.00 433.15 290.94 433.16 291.41 L 432.36 290.97 L 432.33 290.01 Z" />
</g>
<g id="#7196a2c3">
<path fill="#7196a2" opacity="0.76" d=" M 684.93 302.16 C 686.51 302.46 686.75 303.38 685.65 304.92 C 684.93 304.11 684.69 303.18 684.93 302.16 Z" />
</g>
<g id="#547380a5">
<path fill="#547380" opacity="0.65" d=" M 689.88 323.49 C 689.86 322.98 689.81 321.97 689.79 321.46 L 690.61 321.93 L 690.66 322.97 L 689.88 323.49 Z" />
</g>
<g id="#678b9bc4">
<path fill="#678b9b" opacity="0.77" d=" M 689.99 324.33 C 691.57 323.48 692.91 327.07 690.98 327.22 C 690.29 326.39 689.96 325.42 689.99 324.33 Z" />
</g>
<g id="#618696c5">
<path fill="#618696" opacity="0.77" d=" M 690.99 328.29 C 692.66 327.52 693.69 331.24 691.78 331.31 C 691.22 330.37 690.95 329.36 690.99 328.29 Z" />
</g>
<g id="#5e8494c5">
<path fill="#5e8494" opacity="0.77" d=" M 444.00 337.72 C 442.23 338.44 441.39 334.62 443.39 334.63 C 443.78 335.62 443.98 336.65 444.00 337.72 Z" />
</g>
<g id="#a5d6e3ff">
<path fill="#a5d6e3" opacity="1.00" d=" M 656.64 339.63 C 667.94 338.05 679.28 336.71 690.61 335.34 C 691.15 337.08 691.69 338.82 692.24 340.57 C 692.67 340.42 693.54 340.13 693.97 339.99 C 695.17 344.69 696.14 349.45 696.99 354.23 C 697.07 354.91 697.24 356.28 697.32 356.96 C 697.44 358.66 698.18 360.22 698.78 361.79 L 699.20 363.02 C 699.21 364.05 699.41 365.05 699.79 366.02 L 699.85 367.23 C 699.74 368.37 700.05 369.37 700.78 370.24 L 700.80 371.34 C 700.90 372.01 701.08 373.34 701.17 374.01 C 701.10 374.40 700.95 375.18 700.88 375.57 C 699.71 374.87 698.58 373.71 697.10 374.14 C 677.19 377.06 657.12 378.53 637.19 381.33 C 620.84 383.58 604.37 384.71 588.04 387.16 C 578.74 388.34 569.45 389.87 560.07 390.22 C 543.60 392.41 527.11 394.44 510.63 396.53 C 493.76 397.69 477.08 400.76 460.23 402.26 C 460.32 404.53 460.35 406.82 460.43 409.11 C 459.18 406.56 459.28 403.64 458.69 400.92 C 456.44 390.40 453.57 379.98 451.55 369.43 C 451.76 367.65 452.08 365.89 452.39 364.13 C 456.51 363.01 460.79 362.90 465.01 362.34 C 473.66 361.23 482.27 359.72 490.97 359.06 C 496.38 359.07 501.67 357.92 507.01 357.26 C 518.02 355.92 529.02 354.55 540.01 353.13 C 544.62 352.15 549.33 352.02 554.03 351.79 C 567.81 350.09 581.58 348.26 595.34 346.43 C 615.89 345.37 636.12 341.00 656.64 339.63 Z" />
<path fill="#a5d6e3" opacity="1.00" d=" M 735.02 807.03 C 746.72 800.08 759.24 794.58 770.72 787.23 C 778.53 791.97 786.21 796.92 794.02 801.67 L 795.14 802.35 C 795.28 802.60 795.55 803.10 795.69 803.36 C 796.17 803.50 797.12 803.78 797.60 803.92 C 798.19 804.21 799.37 804.80 799.96 805.10 C 800.20 805.67 800.68 806.81 800.92 807.39 C 801.28 808.72 801.44 810.08 801.40 811.49 C 794.25 814.79 787.29 818.53 780.36 822.31 C 775.17 825.64 769.32 827.74 764.18 831.16 C 746.20 840.38 728.83 850.66 710.81 859.82 C 704.87 863.74 698.27 866.44 692.16 870.07 C 655.50 889.84 618.91 909.66 582.11 929.16 C 581.44 930.02 580.95 931.02 580.64 932.15 C 580.50 931.21 580.04 930.52 579.27 930.08 C 579.21 929.24 579.09 927.57 579.03 926.73 C 578.99 925.63 578.68 924.62 578.10 923.70 C 577.70 922.94 577.45 922.15 577.34 921.34 C 577.71 920.17 577.72 918.61 576.46 918.00 C 576.76 916.40 576.30 914.87 575.85 913.37 C 574.63 908.02 573.25 902.71 572.23 897.33 C 573.12 895.62 573.69 893.46 575.66 892.69 C 587.19 887.05 598.18 880.39 609.67 874.66 C 633.76 861.82 657.65 848.62 681.68 835.69 C 699.51 826.21 717.04 816.24 735.02 807.03 Z" />
</g>
<g id="#638797c3">
<path fill="#638797" opacity="0.76" d=" M 445.01 341.66 C 443.43 342.49 442.09 338.88 444.04 338.75 C 444.71 339.58 445.04 340.55 445.01 341.66 Z" />
</g>
<g id="#597783a5">
<path fill="#597783" opacity="0.65" d=" M 444.35 343.03 L 445.12 342.50 C 445.15 342.99 445.21 343.99 445.24 344.49 L 444.40 344.05 L 444.35 343.03 Z" />
</g>
<g id="#668d9ecf">
<path fill="#668d9e" opacity="0.81" d=" M 447.93 353.94 C 445.80 355.49 444.51 350.85 447.00 350.75 C 447.77 351.68 448.08 352.74 447.93 353.94 Z" />
</g>
<g id="#53798cc6">
<path fill="#53798c" opacity="0.78" d=" M 448.70 358.01 C 446.91 359.08 445.83 355.02 447.92 355.02 C 448.22 356.00 448.49 356.99 448.70 358.01 Z" />
</g>
<g id="#587d8dbd">
<path fill="#587d8d" opacity="0.74" d=" M 697.32 356.96 C 699.39 354.60 700.03 360.64 698.78 361.79 C 698.18 360.22 697.44 358.66 697.32 356.96 Z" />
</g>
<g id="#577d90c7">
<path fill="#577d90" opacity="0.78" d=" M 450.03 363.63 C 447.73 364.46 446.67 359.43 448.95 359.02 C 449.41 360.53 449.77 362.07 450.03 363.63 Z" />
</g>
<g id="#496b7bad">
<path fill="#496b7b" opacity="0.68" d=" M 699.85 367.23 C 701.42 366.59 702.62 370.07 700.78 370.24 C 700.05 369.37 699.74 368.37 699.85 367.23 Z" />
</g>
<g id="#648c9dce">
<path fill="#648c9d" opacity="0.81" d=" M 700.80 371.34 C 702.32 371.44 702.63 372.24 701.74 373.74 L 701.17 374.01 C 701.08 373.34 700.90 372.01 700.80 371.34 Z" />
</g>
<g id="#9ccfdeff">
<path fill="#9ccfde" opacity="1.00" d=" M 637.19 381.33 C 657.12 378.53 677.19 377.06 697.10 374.14 C 698.58 373.71 699.71 374.87 700.88 375.57 C 700.95 375.18 701.10 374.40 701.17 374.01 L 701.74 373.74 C 702.78 381.39 705.52 388.73 706.24 396.41 C 706.07 396.73 705.75 397.36 705.59 397.68 C 689.47 399.35 673.51 402.41 657.34 403.40 C 645.90 404.87 634.46 406.36 623.01 407.72 C 614.59 409.09 606.03 409.15 597.61 410.51 C 580.84 412.35 564.20 415.41 547.36 416.43 C 530.96 418.31 514.65 421.13 498.17 422.35 C 487.57 423.71 476.96 425.00 466.35 426.28 C 466.09 427.64 465.85 429.01 465.62 430.39 C 465.42 430.05 465.03 429.36 464.83 429.02 C 463.49 422.36 461.52 415.81 460.43 409.11 C 460.35 406.82 460.32 404.53 460.23 402.26 C 477.08 400.76 493.76 397.69 510.63 396.53 C 527.11 394.44 543.60 392.41 560.07 390.22 C 569.45 389.87 578.74 388.34 588.04 387.16 C 604.37 384.71 620.84 383.58 637.19 381.33 Z" />
</g>
<g id="#95cbdaff">
<path fill="#95cbda" opacity="1.00" d=" M 706.24 396.41 L 706.53 395.85 C 707.61 399.83 708.27 403.91 708.98 407.97 C 708.17 409.46 707.41 410.96 706.49 412.38 C 705.26 414.18 703.98 415.96 702.92 417.87 C 702.60 418.36 701.98 419.32 701.66 419.80 C 700.66 421.14 699.66 422.49 698.77 423.91 C 695.07 423.19 691.34 424.16 687.66 424.54 C 676.82 425.98 665.99 427.77 655.06 428.24 C 634.59 430.74 614.18 434.04 593.61 435.52 C 580.66 437.60 567.57 438.72 554.60 440.63 C 538.64 441.66 522.87 444.43 506.99 446.27 C 501.71 447.27 496.28 446.72 491.01 447.77 C 484.51 448.89 477.93 449.51 471.39 450.29 C 471.67 452.28 471.80 454.30 471.72 456.32 C 471.05 455.54 470.61 454.67 470.41 453.68 C 469.06 448.16 468.16 442.55 466.65 437.07 C 466.11 434.88 465.47 432.66 465.62 430.39 C 465.85 429.01 466.09 427.64 466.35 426.28 C 476.96 425.00 487.57 423.71 498.17 422.35 C 514.65 421.13 530.96 418.31 547.36 416.43 C 564.20 415.41 580.84 412.35 597.61 410.51 C 606.03 409.15 614.59 409.09 623.01 407.72 C 634.46 406.36 645.90 404.87 657.34 403.40 C 673.51 402.41 689.47 399.35 705.59 397.68 C 705.75 397.36 706.07 396.73 706.24 396.41 Z" />
</g>
<g id="#4f7c94e3">
<path fill="#4f7c94" opacity="0.89" d=" M 702.92 417.87 C 703.98 415.96 705.26 414.18 706.49 412.38 C 707.64 415.13 704.59 417.44 702.91 419.29 L 702.92 417.87 Z" />
</g>
<g id="#548197e0">
<path fill="#548197" opacity="0.88" d=" M 698.77 423.91 C 699.66 422.49 700.66 421.14 701.66 419.80 L 703.02 419.95 C 701.76 422.33 700.37 425.08 697.63 426.00 C 697.92 425.48 698.49 424.43 698.77 423.91 Z" />
</g>
<g id="#8dc5d5ff">
<path fill="#8dc5d5" opacity="1.00" d=" M 687.66 424.54 C 691.34 424.16 695.07 423.19 698.77 423.91 C 698.49 424.43 697.92 425.48 697.63 426.00 C 697.02 427.10 696.34 428.16 695.60 429.18 C 694.52 430.46 693.64 431.89 692.90 433.38 C 690.90 436.62 688.66 439.72 686.81 443.06 C 683.70 448.39 680.62 453.78 676.84 458.66 C 673.44 462.46 672.02 467.57 668.54 471.32 C 668.49 470.95 668.38 470.20 668.33 469.83 C 669.19 468.03 670.26 466.32 671.28 464.61 C 668.59 463.46 665.73 464.55 662.99 464.83 C 658.05 465.72 653.04 465.94 648.04 466.22 C 633.04 468.15 618.05 470.22 603.02 471.91 C 595.65 471.91 588.47 473.73 581.15 474.28 C 570.05 475.79 558.90 476.94 547.84 478.67 C 535.33 479.21 522.95 481.27 510.59 483.12 C 510.50 483.85 510.41 484.58 510.33 485.32 C 508.84 484.48 507.30 483.73 505.97 482.67 C 505.12 481.85 504.21 481.08 503.09 480.70 C 502.63 480.46 501.70 479.98 501.24 479.73 C 499.58 478.58 497.90 477.46 496.19 476.41 C 494.76 475.51 493.28 474.71 491.85 473.83 C 488.84 471.90 485.92 469.83 482.73 468.21 C 481.85 467.73 480.99 467.23 480.16 466.71 C 479.71 466.44 478.80 465.90 478.35 465.63 C 476.46 464.14 474.47 462.77 472.27 461.78 C 471.89 459.97 471.63 458.15 471.72 456.32 C 471.80 454.30 471.67 452.28 471.39 450.29 C 477.93 449.51 484.51 448.89 491.01 447.77 C 496.28 446.72 501.71 447.27 506.99 446.27 C 522.87 444.43 538.64 441.66 554.60 440.63 C 567.57 438.72 580.66 437.60 593.61 435.52 C 614.18 434.04 634.59 430.74 655.06 428.24 C 665.99 427.77 676.82 425.98 687.66 424.54 Z" />
</g>
<g id="#648a9bcb">
<path fill="#648a9b" opacity="0.80" d=" M 991.31 429.58 C 992.59 428.65 994.09 428.24 995.65 428.02 C 995.73 429.43 995.83 430.84 995.96 432.26 C 995.59 431.25 995.22 430.25 994.86 429.26 C 993.66 429.36 992.48 429.46 991.31 429.58 Z" />
</g>
<g id="#537f95db">
<path fill="#537f95" opacity="0.86" d=" M 692.90 433.38 C 693.64 431.89 694.52 430.46 695.60 429.18 C 697.18 430.81 695.06 434.46 692.90 433.38 Z" />
</g>
<g id="#688c99be">
<path fill="#688c99" opacity="0.75" d=" M 986.09 431.09 C 986.17 429.32 988.18 428.76 989.43 429.82 C 988.55 430.86 987.44 431.28 986.09 431.09 Z" />
</g>
<g id="#739aaad4">
<path fill="#739aaa" opacity="0.83" d=" M 980.05 432.22 C 981.00 430.35 983.21 430.42 984.95 431.04 C 983.54 432.14 981.77 432.51 980.05 432.22 Z" />
</g>
<g id="#4d6e7caa">
<path fill="#4d6e7c" opacity="0.67" d=" M 996.26 433.30 C 996.34 433.42 996.48 433.65 996.56 433.77 L 996.30 433.68 L 996.26 433.30 Z" />
</g>
<g id="#557a8bbe">
<path fill="#557a8b" opacity="0.75" d=" M 996.37 434.66 C 997.92 434.78 998.10 435.37 996.89 436.43 C 996.76 435.99 996.50 435.10 996.37 434.66 Z" />
</g>
<g id="#567b8cc2">
<path fill="#567b8c" opacity="0.76" d=" M 997.04 436.95 C 998.66 437.48 999.41 439.37 997.94 440.57 C 997.12 439.49 996.82 438.28 997.04 436.95 Z" />
</g>
<g id="#6a8e9dc3">
<path fill="#6a8e9d" opacity="0.76" d=" M 943.06 440.89 C 942.30 438.66 945.58 438.41 946.42 440.03 C 945.37 440.84 944.25 441.13 943.06 440.89 Z" />
</g>
<g id="#7094a1c3">
<path fill="#7094a1" opacity="0.76" d=" M 939.00 442.01 C 938.22 439.67 941.07 439.66 942.35 440.67 C 941.47 441.76 940.35 442.20 939.00 442.01 Z" />
</g>
<g id="#638694bc">
<path fill="#638694" opacity="0.74" d=" M 933.08 443.13 C 933.17 441.37 935.19 440.76 936.48 441.77 C 935.60 442.81 934.47 443.26 933.08 443.13 Z" />
</g>
<g id="#658795b9">
<path fill="#658795" opacity="0.73" d=" M 926.52 444.05 C 927.07 444.05 928.17 444.04 928.72 444.03 C 928.30 444.18 927.46 444.49 927.04 444.64 L 926.52 444.05 Z" />
</g>
<g id="#5e8190bd">
<path fill="#5e8190" opacity="0.74" d=" M 880.12 455.20 C 880.14 453.25 882.57 452.72 883.61 454.28 C 882.50 454.83 881.34 455.14 880.12 455.20 Z" />
</g>
<g id="#668895b9">
<path fill="#668895" opacity="0.73" d=" M 869.38 457.06 C 869.95 457.03 871.10 456.97 871.68 456.94 C 871.10 456.97 869.95 457.03 869.38 457.06 Z" />
</g>
<g id="#457d8fff">
<path fill="#457d8f" opacity="1.00" d=" M 871.98 456.68 C 872.75 455.05 874.65 454.99 876.02 455.94 C 874.86 456.86 873.36 457.02 871.98 456.68 Z" />
<path fill="#457d8f" opacity="1.00" d=" M 1031.19 587.78 C 1032.29 589.05 1033.64 590.27 1034.03 592.01 C 1035.49 597.17 1036.32 602.51 1038.14 607.59 C 1047.37 605.63 1056.76 605.01 1066.06 603.49 C 1067.12 603.42 1068.05 602.91 1068.85 602.20 C 1074.40 626.27 1079.78 650.37 1085.31 674.45 C 1086.30 679.30 1087.78 684.07 1088.47 688.99 C 1008.91 706.59 929.57 725.16 850.05 742.91 C 817.27 722.41 784.39 702.09 751.59 681.64 C 762.99 679.03 774.62 677.60 786.08 675.30 C 793.44 674.60 800.85 673.77 808.01 671.86 C 803.56 668.81 798.76 666.27 794.55 662.89 C 794.59 662.45 794.68 661.59 794.72 661.16 C 809.63 670.59 824.51 680.11 839.38 689.63 C 848.61 695.63 857.95 701.45 867.14 707.53 C 882.25 703.27 897.75 700.56 913.00 696.86 C 921.72 695.04 930.26 692.44 939.08 691.07 C 949.37 688.08 959.97 686.34 970.36 683.72 C 996.56 677.78 1022.73 671.64 1048.97 665.90 C 1047.95 661.74 1046.97 657.58 1046.01 653.42 C 1042.60 637.92 1039.35 622.40 1035.61 606.98 C 1034.48 600.50 1032.51 594.21 1031.19 587.78 Z" />
<path fill="#457d8f" opacity="1.00" d=" M 642.15 657.71 C 694.56 690.98 746.84 724.46 799.21 757.79 C 808.10 763.59 817.23 769.04 825.99 775.02 C 836.99 822.34 847.56 869.78 858.41 917.15 C 865.80 949.23 872.81 981.40 880.45 1013.42 C 780.63 1036.11 680.86 1059.02 581.04 1081.66 C 563.04 1002.13 544.90 922.64 526.83 843.13 C 565.37 781.38 603.79 719.56 642.15 657.71 M 655.32 715.49 C 654.89 716.39 654.48 717.32 654.08 718.25 C 653.85 718.77 653.39 719.81 653.16 720.32 C 651.64 719.19 649.98 721.95 651.35 723.03 C 651.06 723.33 650.47 723.93 650.17 724.23 C 648.21 726.09 647.04 728.59 645.96 731.03 C 645.80 731.36 645.47 732.01 645.31 732.34 L 644.40 732.31 L 643.79 733.21 L 644.13 734.10 C 643.83 734.44 643.23 735.14 642.93 735.48 C 640.98 734.79 639.70 737.93 639.75 739.50 L 640.17 740.02 C 635.31 748.07 630.33 756.07 624.89 763.74 C 622.76 765.85 621.32 768.54 620.09 771.24 L 619.81 771.76 C 617.88 771.11 615.87 774.34 617.06 775.92 C 616.84 776.22 616.41 776.82 616.19 777.12 C 613.35 780.46 611.10 784.33 609.11 788.23 L 608.78 788.74 C 607.12 790.60 605.68 792.69 604.92 795.09 C 599.88 803.27 594.79 811.45 589.23 819.28 C 587.25 821.15 585.90 823.57 584.94 826.10 C 584.82 826.40 584.56 827.01 584.43 827.31 L 583.52 827.24 L 582.87 828.11 L 583.19 829.01 C 580.15 833.84 577.32 838.85 573.76 843.34 C 572.30 843.07 571.60 843.75 571.64 845.38 L 572.10 846.01 C 571.89 846.30 571.45 846.87 571.24 847.16 C 569.17 849.56 567.44 852.29 566.25 855.22 C 565.96 855.70 565.37 856.64 565.08 857.12 C 564.22 858.01 563.35 858.90 562.48 859.78 C 562.91 860.61 563.34 861.41 563.82 862.26 L 564.26 863.27 C 563.11 864.73 563.32 867.80 565.46 868.24 C 565.45 869.03 565.65 869.79 566.07 870.50 L 565.34 871.04 L 565.46 872.07 L 566.32 872.50 C 568.77 880.65 570.15 889.07 572.23 897.33 C 573.25 902.71 574.63 908.02 575.85 913.37 C 576.30 914.87 576.76 916.40 576.46 918.00 C 575.38 919.41 575.68 920.52 577.34 921.34 C 577.45 922.15 577.70 922.94 578.10 923.70 C 575.74 923.81 577.08 928.01 579.03 926.73 C 579.09 927.57 579.21 929.24 579.27 930.08 C 578.37 931.43 578.60 932.50 579.96 933.28 L 580.40 934.15 C 579.03 935.51 579.47 938.62 581.53 939.11 C 582.05 941.45 582.64 943.77 583.35 946.08 C 582.05 946.85 582.31 950.17 584.18 949.67 C 585.06 954.43 586.30 959.16 587.47 963.84 C 587.55 965.46 587.66 967.12 588.31 968.66 C 586.26 968.71 587.39 972.55 589.15 971.66 C 590.09 976.23 591.33 980.74 592.06 985.36 L 591.64 984.69 C 592.71 987.75 592.47 991.11 593.78 994.10 L 594.12 994.56 C 592.93 995.69 593.18 996.15 594.88 995.92 L 595.39 997.35 C 595.27 999.09 595.72 1000.82 596.24 1002.49 L 595.45 1002.98 L 595.47 1004.02 L 596.29 1004.50 C 598.40 1012.79 600.12 1021.20 602.52 1029.42 C 602.19 1033.48 604.19 1037.37 604.93 1041.35 C 614.51 1039.90 623.80 1037.08 633.31 1035.25 C 643.64 1032.68 654.10 1030.60 664.34 1027.66 C 667.99 1028.08 671.30 1026.20 674.82 1025.62 C 686.74 1023.36 698.44 1020.06 710.34 1017.65 L 711.36 1018.43 C 717.98 1017.38 724.43 1015.37 730.99 1013.94 C 732.53 1013.67 733.96 1013.01 735.20 1012.05 C 748.14 1008.57 761.37 1006.34 774.26 1002.69 C 775.55 1002.70 776.83 1002.40 778.08 1002.04 C 778.30 1004.41 783.30 1003.30 782.54 1001.11 L 783.54 1000.97 C 785.64 1002.22 788.08 1000.73 790.33 1000.81 C 790.22 1000.43 789.99 999.66 789.88 999.27 L 790.65 999.11 C 792.86 1000.65 795.57 999.23 797.96 998.93 C 799.46 998.30 802.00 998.74 802.38 996.65 L 800.92 996.75 C 801.51 996.63 802.68 996.37 803.27 996.24 C 801.62 998.46 806.69 997.96 805.72 995.86 L 806.66 995.63 L 807.05 996.58 C 808.68 996.19 810.34 995.94 812.04 995.87 C 812.03 995.45 812.01 994.62 812.00 994.20 C 812.66 994.09 813.98 993.87 814.63 993.76 C 815.65 995.16 816.15 995.02 816.12 993.35 L 817.19 993.17 C 817.31 993.15 817.56 993.10 817.69 993.08 C 818.87 992.84 820.06 992.58 821.25 992.29 C 821.34 992.27 821.52 992.23 821.61 992.21 C 822.58 991.93 823.64 991.78 824.66 991.69 C 825.71 993.01 826.18 992.84 826.08 991.18 L 827.19 991.04 C 827.31 991.02 827.56 990.98 827.69 990.96 C 828.82 990.69 829.94 990.38 831.06 990.03 C 830.95 992.13 835.00 991.12 833.97 989.31 L 835.07 989.05 C 835.03 991.10 839.08 990.07 838.05 988.32 C 838.71 988.17 840.03 987.89 840.69 987.75 C 840.85 990.83 845.11 987.34 842.09 986.71 L 841.54 985.78 C 841.50 985.66 841.40 985.42 841.35 985.30 C 841.17 984.56 840.81 983.07 840.64 982.33 C 843.03 982.30 841.94 978.05 839.90 979.33 L 839.83 978.42 C 842.18 978.44 840.76 974.53 838.99 976.08 C 838.81 973.69 838.24 971.35 837.66 969.04 L 837.33 969.23 C 836.18 961.08 833.68 953.14 832.23 945.03 C 831.79 942.94 831.67 940.66 830.28 938.95 C 830.46 938.24 830.48 937.54 830.34 936.86 C 827.63 926.57 826.13 915.98 823.06 905.80 C 822.33 898.30 819.71 891.14 818.30 883.76 C 818.27 883.64 818.21 883.39 818.18 883.27 L 817.86 882.02 C 818.05 881.52 818.44 880.51 818.63 880.01 L 818.03 879.08 L 817.26 879.06 L 816.79 878.39 C 818.69 878.27 817.68 874.77 816.11 875.33 L 816.12 874.23 C 818.50 873.95 817.05 869.59 815.04 871.16 L 815.03 870.45 L 815.78 869.98 L 815.74 869.01 L 814.94 868.57 C 812.38 862.17 812.28 855.01 809.72 848.64 C 809.20 844.86 808.62 841.06 807.59 837.39 C 809.61 837.35 808.55 833.48 806.80 834.32 C 806.50 832.63 806.15 830.95 805.79 829.29 C 807.68 828.43 806.88 824.14 804.68 823.83 L 804.78 822.98 C 805.66 821.53 805.32 820.43 803.75 819.68 C 803.69 818.82 803.44 818.03 803.02 817.30 C 805.55 817.15 804.22 812.49 802.06 814.09 C 802.02 813.35 801.95 811.88 801.92 811.15 L 801.40 811.49 C 801.44 810.08 801.28 808.72 800.92 807.39 C 803.20 807.30 801.61 803.54 799.96 805.10 C 799.37 804.80 798.19 804.21 797.60 803.92 C 798.74 802.48 796.02 800.79 795.14 802.35 L 794.02 801.67 C 789.39 798.00 784.10 795.31 779.21 792.05 C 769.66 786.60 760.76 779.90 750.88 775.12 C 745.45 771.97 740.05 768.75 734.90 765.17 C 731.95 762.02 727.68 760.61 724.28 758.02 C 717.00 753.96 710.32 748.77 702.78 745.24 C 702.29 744.94 701.31 744.34 700.82 744.05 C 699.14 742.26 697.03 740.91 694.69 740.18 C 694.25 739.92 693.37 739.39 692.93 739.13 C 692.12 738.34 691.28 737.58 690.33 737.02 C 678.63 729.89 667.12 722.44 655.32 715.49 Z" />
<path fill="#457d8f" opacity="1.00" d=" M 511.89 718.46 C 513.63 715.66 515.45 712.93 517.27 710.19 C 517.71 711.44 518.01 712.86 517.00 713.96 C 512.88 720.47 508.64 726.96 505.19 733.86 C 507.86 733.31 510.50 732.63 513.21 732.28 C 527.40 731.20 541.19 727.25 555.35 725.90 C 535.20 757.88 514.70 789.65 494.48 821.59 C 415.14 839.77 335.70 857.57 256.38 875.83 C 246.17 832.52 236.53 789.06 226.46 745.71 C 236.95 744.86 247.24 742.56 257.61 740.80 C 255.88 733.21 253.52 725.66 253.09 717.86 C 254.28 720.23 255.19 722.72 255.97 725.26 C 256.72 728.01 257.58 730.74 258.18 733.54 C 259.74 742.09 261.89 750.53 263.98 758.97 C 265.63 769.46 268.61 779.66 270.86 790.02 C 273.17 801.46 275.94 812.80 278.72 824.13 C 279.64 828.80 280.68 833.45 281.73 838.10 C 298.55 834.22 315.33 830.13 332.23 826.63 C 376.02 816.52 419.87 806.58 463.69 796.61 C 464.47 795.60 465.08 794.48 465.74 793.40 C 473.90 780.16 482.25 767.04 490.28 753.73 C 497.58 742.03 505.08 730.45 511.89 718.46 Z" />
</g>
<g id="#5c8090bf">
<path fill="#5c8090" opacity="0.75" d=" M 857.99 460.00 C 858.51 458.47 860.16 457.91 861.47 458.89 C 860.56 460.09 859.40 460.46 857.99 460.00 Z" />
</g>
<g id="#628694bf">
<path fill="#628694" opacity="0.75" d=" M 854.07 461.13 C 854.07 459.31 856.17 458.74 857.42 459.84 C 856.53 460.81 855.41 461.24 854.07 461.13 Z" />
</g>
<g id="#83becfff">
<path fill="#83becf" opacity="1.00" d=" M 662.99 464.83 C 665.73 464.55 668.59 463.46 671.28 464.61 C 670.26 466.32 669.19 468.03 668.33 469.83 C 668.38 470.20 668.49 470.95 668.54 471.32 L 668.61 471.75 C 661.25 483.30 653.58 494.67 646.39 506.33 C 645.89 506.82 644.88 507.81 644.38 508.31 C 644.41 507.96 644.45 507.26 644.47 506.91 C 644.83 505.90 645.26 504.93 645.69 503.96 C 641.12 503.71 636.65 504.69 632.16 505.32 C 621.04 506.73 609.90 507.92 598.82 509.66 C 594.48 510.15 590.08 509.77 585.77 510.59 C 577.35 512.17 568.74 512.43 560.35 514.17 C 561.23 515.22 562.10 516.29 562.97 517.37 C 560.26 517.10 558.20 515.23 556.05 513.78 C 540.84 504.37 525.52 495.12 510.28 485.73 L 510.33 485.32 C 510.41 484.58 510.50 483.85 510.59 483.12 C 522.95 481.27 535.33 479.21 547.84 478.67 C 558.90 476.94 570.05 475.79 581.15 474.28 C 588.47 473.73 595.65 471.91 603.02 471.91 C 618.05 470.22 633.04 468.15 648.04 466.22 C 653.04 465.94 658.05 465.72 662.99 464.83 Z" />
</g>
<g id="#4b7286c6">
<path fill="#4b7286" opacity="0.78" d=" M 478.35 465.63 C 478.80 465.90 479.71 466.44 480.16 466.71 L 479.32 467.14 L 478.38 466.59 L 478.35 465.63 Z" />
</g>
<g id="#548196dc">
<path fill="#548196" opacity="0.86" d=" M 482.73 468.21 C 485.92 469.83 488.84 471.90 491.85 473.83 C 491.48 473.97 490.74 474.25 490.36 474.38 C 487.82 472.40 483.85 471.51 482.73 468.21 Z" />
</g>
<g id="#6c919fc6">
<path fill="#6c919f" opacity="0.78" d=" M 808.18 478.08 C 807.61 476.54 808.47 474.81 810.28 474.99 C 810.25 476.36 809.31 477.43 808.18 478.08 Z" />
</g>
<g id="#537f94d9">
<path fill="#537f94" opacity="0.85" d=" M 496.19 476.41 C 497.90 477.46 499.58 478.58 501.24 479.73 L 501.14 480.95 C 499.38 479.65 496.20 479.05 496.19 476.41 Z" />
</g>
<g id="#558194d2">
<path fill="#558194" opacity="0.82" d=" M 505.97 482.67 C 504.82 484.26 500.77 481.71 503.09 480.70 C 504.21 481.08 505.12 481.85 505.97 482.67 Z" />
</g>
<g id="#578094d5">
<path fill="#578094" opacity="0.84" d=" M 802.22 487.67 C 802.17 484.70 803.88 482.33 806.39 480.92 C 805.17 483.27 803.77 485.52 802.22 487.67 Z" />
</g>
<g id="#4b6b7baa">
<path fill="#4b6b7b" opacity="0.67" d=" M 1009.19 490.19 C 1009.29 490.31 1009.48 490.56 1009.57 490.69 L 1009.24 490.61 L 1009.19 490.19 Z" />
</g>
<g id="#547889bf">
<path fill="#547889" opacity="0.75" d=" M 1009.34 491.74 C 1010.82 491.66 1011.08 492.22 1010.12 493.41 C 1009.92 492.99 1009.54 492.15 1009.34 491.74 Z" />
</g>
<g id="#547a8cc3">
<path fill="#547a8c" opacity="0.76" d=" M 1009.99 494.01 C 1011.53 494.59 1012.35 496.43 1010.84 497.58 C 1009.96 496.49 1009.67 495.30 1009.99 494.01 Z" />
</g>
<g id="#7ab7c9ff">
<path fill="#7ab7c9" opacity="1.00" d=" M 632.16 505.32 C 636.65 504.69 641.12 503.71 645.69 503.96 C 645.26 504.93 644.83 505.90 644.47 506.91 C 644.45 507.26 644.41 507.96 644.38 508.31 C 644.47 510.12 643.09 511.46 642.15 512.86 C 633.85 525.39 626.09 538.28 617.73 550.79 C 616.71 552.62 615.13 550.41 614.06 549.88 C 601.42 541.78 588.43 534.26 575.89 526.00 C 571.60 523.13 566.42 521.30 562.97 517.37 C 562.10 516.29 561.23 515.22 560.35 514.17 C 568.74 512.43 577.35 512.17 585.77 510.59 C 590.08 509.77 594.48 510.15 598.82 509.66 C 609.90 507.92 621.04 506.73 632.16 505.32 Z" />
</g>
<g id="#a8d8e4ff">
<path fill="#a8d8e4" opacity="1.00" d=" M 976.13 510.35 C 986.92 509.57 997.34 506.37 1008.05 505.08 C 1010.05 504.67 1011.29 506.65 1012.67 507.73 C 1013.46 510.46 1014.13 513.22 1014.76 516.00 C 1015.42 519.00 1016.27 521.96 1016.95 524.97 C 1016.48 526.40 1016.86 527.43 1018.07 528.05 L 1017.85 528.55 C 1017.72 528.82 1017.46 529.36 1017.33 529.62 C 1017.63 530.28 1018.22 531.60 1018.52 532.26 C 1018.29 532.52 1017.83 533.05 1017.60 533.32 C 1010.77 534.18 1004.06 535.76 997.20 536.35 C 983.53 538.79 969.91 541.50 956.15 543.30 C 941.23 546.61 926.06 548.34 911.09 551.30 C 902.76 552.69 894.52 554.65 886.10 555.42 C 876.95 557.17 867.76 558.67 858.66 560.64 C 847.00 561.47 835.68 564.63 824.14 566.38 C 809.89 567.98 795.93 571.41 781.78 573.71 C 771.40 574.83 761.19 577.18 750.90 578.88 C 749.29 579.30 747.78 578.60 746.32 578.09 C 749.89 572.46 753.39 566.79 756.82 561.09 C 757.14 560.57 757.79 559.54 758.11 559.03 C 760.27 555.73 762.23 552.32 764.24 548.94 C 764.64 548.38 765.04 547.83 765.46 547.28 C 766.86 548.18 767.55 546.48 768.50 545.82 C 773.36 545.79 778.06 544.44 782.84 543.70 C 791.06 541.96 799.48 541.52 807.67 539.61 C 815.49 538.59 823.09 536.16 831.00 535.77 C 844.68 533.71 858.10 530.07 871.88 528.67 C 883.58 526.88 895.07 523.81 906.86 522.68 C 918.53 520.79 930.04 517.89 941.83 516.70 C 953.26 514.57 964.73 512.60 976.13 510.35 Z" />
</g>
<g id="#588196d7">
<path fill="#588196" opacity="0.84" d=" M 785.34 515.08 C 784.07 512.81 785.75 510.48 788.17 510.34 C 787.54 512.10 786.59 513.70 785.34 515.08 Z" />
</g>
<g id="#50849dff">
<path fill="#50849d" opacity="1.00" d=" M 1014.76 516.00 C 1015.05 515.42 1015.64 514.27 1015.93 513.69 C 1017.57 517.62 1018.55 521.78 1019.50 525.92 C 1023.06 525.62 1026.54 524.79 1030.05 524.12 C 1036.11 522.87 1042.39 523.10 1048.40 521.48 C 1048.79 520.26 1049.18 519.04 1049.57 517.82 C 1053.18 532.83 1056.45 547.92 1059.94 562.96 C 1059.63 563.29 1059.01 563.96 1058.70 564.29 C 1052.89 563.81 1047.37 566.07 1041.65 566.54 C 1037.28 566.84 1032.98 567.94 1028.59 567.67 C 1027.20 560.61 1025.74 553.48 1023.47 546.66 C 1023.01 546.45 1022.08 546.03 1021.62 545.82 C 1021.34 544.71 1021.21 543.57 1021.19 542.44 C 1022.03 541.25 1021.80 539.23 1020.10 539.05 L 1020.34 538.38 C 1021.29 537.12 1020.70 535.05 1018.93 535.12 C 1018.96 534.31 1019.02 532.70 1019.04 531.90 C 1019.31 530.52 1018.91 529.40 1017.85 528.55 L 1018.07 528.05 C 1018.57 526.79 1018.19 525.76 1016.95 524.97 C 1016.27 521.96 1015.42 519.00 1014.76 516.00 Z" />
</g>
<g id="#5c8191c0">
<path fill="#5c8191" opacity="0.75" d=" M 1016.95 524.97 C 1018.19 525.76 1018.57 526.79 1018.07 528.05 C 1016.86 527.43 1016.48 526.40 1016.95 524.97 Z" />
</g>
<g id="#618695c0">
<path fill="#618695" opacity="0.75" d=" M 1017.33 529.62 C 1017.46 529.36 1017.72 528.82 1017.85 528.55 C 1018.91 529.40 1019.31 530.52 1019.04 531.90 L 1018.52 532.26 C 1018.22 531.60 1017.63 530.28 1017.33 529.62 Z" />
</g>
<g id="#83a9b5d3">
<path fill="#83a9b5" opacity="0.83" d=" M 774.84 532.01 C 775.17 531.50 775.83 530.48 776.16 529.97 C 775.83 530.48 775.17 531.50 774.84 532.01 Z" />
</g>
<g id="#9dd0deff">
<path fill="#9dd0de" opacity="1.00" d=" M 1018.52 532.26 L 1019.04 531.90 C 1019.02 532.70 1018.96 534.31 1018.93 535.12 C 1018.77 536.47 1019.23 537.56 1020.34 538.38 L 1020.10 539.05 C 1019.64 540.38 1020.00 541.51 1021.19 542.44 C 1021.21 543.57 1021.34 544.71 1021.62 545.82 C 1023.38 553.57 1024.68 561.42 1026.96 569.04 C 1026.71 570.57 1026.63 572.66 1028.34 573.43 L 1027.82 574.22 C 1019.73 573.28 1012.06 576.34 1004.13 577.30 C 991.47 579.81 978.60 581.05 966.01 583.92 C 958.07 585.76 949.86 585.90 941.95 587.92 C 930.83 589.79 919.80 592.33 908.57 593.53 C 899.33 595.12 890.17 597.12 880.92 598.65 C 866.93 599.98 853.36 604.05 839.38 605.42 C 831.29 607.16 823.04 608.06 814.97 609.89 C 807.05 611.74 798.87 611.95 790.98 613.91 C 783.93 615.02 776.97 616.69 769.90 617.66 C 763.76 618.19 757.75 619.58 751.67 620.54 C 747.24 621.43 742.57 621.78 738.57 624.06 C 737.99 623.95 736.82 623.73 736.24 623.62 C 735.24 622.93 734.23 622.26 733.24 621.60 C 732.91 621.32 732.24 620.76 731.91 620.48 C 730.34 619.54 728.77 618.61 727.19 617.72 C 726.86 617.43 726.19 616.84 725.86 616.55 C 725.04 616.03 724.24 615.52 723.45 615.01 C 729.75 604.93 736.11 594.87 742.18 584.64 C 743.64 582.59 744.94 580.43 746.15 578.22 L 746.32 578.09 C 747.78 578.60 749.29 579.30 750.90 578.88 C 761.19 577.18 771.40 574.83 781.78 573.71 C 795.93 571.41 809.89 567.98 824.14 566.38 C 835.68 564.63 847.00 561.47 858.66 560.64 C 867.76 558.67 876.95 557.17 886.10 555.42 C 894.52 554.65 902.76 552.69 911.09 551.30 C 926.06 548.34 941.23 546.61 956.15 543.30 C 969.91 541.50 983.53 538.79 997.20 536.35 C 1004.06 535.76 1010.77 534.18 1017.60 533.32 C 1017.83 533.05 1018.29 532.52 1018.52 532.26 Z" />
</g>
<g id="#618795c2">
<path fill="#618795" opacity="0.76" d=" M 1018.93 535.12 C 1020.70 535.05 1021.29 537.12 1020.34 538.38 C 1019.23 537.56 1018.77 536.47 1018.93 535.12 Z" />
</g>
<g id="#5a818fc0">
<path fill="#5a818f" opacity="0.75" d=" M 1020.10 539.05 C 1021.80 539.23 1022.03 541.25 1021.19 542.44 C 1020.00 541.51 1019.64 540.38 1020.10 539.05 Z" />
</g>
<g id="#4c8298ff">
<path fill="#4c8298" opacity="1.00" d=" M 1021.62 545.82 C 1022.08 546.03 1023.01 546.45 1023.47 546.66 C 1025.74 553.48 1027.20 560.61 1028.59 567.67 C 1032.98 567.94 1037.28 566.84 1041.65 566.54 C 1047.37 566.07 1052.89 563.81 1058.70 564.29 C 1059.01 563.96 1059.63 563.29 1059.94 562.96 C 1062.91 576.04 1065.90 589.11 1068.85 602.20 C 1068.05 602.91 1067.12 603.42 1066.06 603.49 C 1056.76 605.01 1047.37 605.63 1038.14 607.59 C 1036.32 602.51 1035.49 597.17 1034.03 592.01 C 1033.64 590.27 1032.29 589.05 1031.19 587.78 L 1031.29 587.37 C 1032.20 586.07 1031.71 584.41 1030.17 583.96 L 1030.42 583.15 C 1031.69 581.87 1031.02 580.04 1029.30 579.70 L 1029.31 578.84 C 1029.30 578.72 1029.29 578.47 1029.29 578.35 L 1029.25 577.38 C 1030.16 576.10 1029.63 574.09 1027.82 574.22 L 1028.34 573.43 C 1029.80 571.86 1028.52 569.86 1026.96 569.04 C 1024.68 561.42 1023.38 553.57 1021.62 545.82 Z" />
</g>
<g id="#4f839cff">
<path fill="#4f839c" opacity="1.00" d=" M 760.26 552.20 C 761.21 550.72 762.82 549.90 764.24 548.94 C 762.23 552.32 760.27 555.73 758.11 559.03 C 757.79 559.54 757.14 560.57 756.82 561.09 C 753.39 566.79 749.89 572.46 746.32 578.09 L 746.15 578.22 C 743.56 579.38 742.51 581.99 742.18 584.64 C 736.11 594.87 729.75 604.93 723.45 615.01 C 724.24 615.52 725.04 616.03 725.86 616.55 C 725.02 617.84 725.47 618.23 727.19 617.72 C 728.77 618.61 730.34 619.54 731.91 620.48 C 731.10 621.82 731.54 622.19 733.24 621.60 C 734.23 622.26 735.24 622.93 736.24 623.62 C 736.05 625.65 738.12 626.92 739.90 625.92 C 740.98 626.59 742.09 627.23 743.24 627.82 C 743.53 628.49 744.10 629.81 744.39 630.47 C 740.50 632.11 736.24 632.33 732.16 633.24 C 719.30 635.79 706.28 637.17 693.37 639.41 C 691.04 639.77 688.76 640.42 686.54 641.19 C 679.22 636.77 672.06 632.12 664.69 627.79 C 675.10 611.26 685.66 594.82 696.15 578.34 L 696.35 578.30 C 704.85 576.54 713.33 574.45 722.01 573.81 C 729.42 573.18 736.59 571.06 743.97 570.23 C 746.25 569.81 749.09 569.79 750.50 567.60 C 753.93 562.58 756.77 557.18 760.26 552.20 Z" />
</g>
<g id="#7ba3b1d3">
<path fill="#7ba3b1" opacity="0.83" d=" M 756.82 561.09 C 757.14 560.57 757.79 559.54 758.11 559.03 C 757.79 559.54 757.14 560.57 756.82 561.09 Z" />
</g>
<g id="#6a8d9abe">
<path fill="#6a8d9a" opacity="0.75" d=" M 415.84 563.23 C 417.75 562.74 419.78 563.79 419.86 565.92 C 418.14 565.69 416.52 564.91 415.84 563.23 Z" />
</g>
<g id="#5a7a87ab">
<path fill="#5a7a87" opacity="0.67" d=" M 365.72 569.57 C 366.00 568.05 366.61 567.95 367.56 569.26 C 367.10 569.34 366.18 569.49 365.72 569.57 Z" />
</g>
<g id="#567480a2">
<path fill="#567480" opacity="0.64" d=" M 364.30 569.64 C 364.42 569.63 364.66 569.60 364.79 569.58 L 364.30 569.64 Z" />
</g>
<g id="#558090cf">
<path fill="#558090" opacity="0.81" d=" M 1026.96 569.04 C 1028.52 569.86 1029.80 571.86 1028.34 573.43 C 1026.63 572.66 1026.71 570.57 1026.96 569.04 Z" />
</g>
<g id="#6c8f9bbc">
<path fill="#6c8f9b" opacity="0.74" d=" M 356.08 571.91 C 356.30 570.28 358.22 569.80 359.42 570.73 C 358.55 571.94 357.44 572.33 356.08 571.91 Z" />
</g>
<g id="#70909bb5">
<path fill="#70909b" opacity="0.71" d=" M 360.02 570.98 C 360.61 569.79 361.63 569.43 363.10 569.91 C 362.31 571.15 361.28 571.51 360.02 570.98 Z" />
</g>
<g id="#6b909ec5">
<path fill="#6b909e" opacity="0.77" d=" M 352.03 572.93 C 351.31 570.65 354.09 570.78 355.34 571.66 C 354.49 572.91 353.39 573.33 352.03 572.93 Z" />
</g>
<g id="#6b8e9cc0">
<path fill="#6b8e9c" opacity="0.75" d=" M 346.07 574.01 C 347.11 572.01 349.47 571.60 351.32 572.70 C 350.06 574.31 347.90 574.30 346.07 574.01 Z" />
</g>
<g id="#577785ad">
<path fill="#577785" opacity="0.68" d=" M 343.72 574.67 C 343.87 573.09 344.46 572.92 345.51 574.17 C 345.06 574.30 344.17 574.54 343.72 574.67 Z" />
</g>
<g id="#557480a6">
<path fill="#557480" opacity="0.65" d=" M 342.30 574.84 C 342.37 574.76 342.52 574.58 342.59 574.50 L 342.78 574.75 L 342.30 574.84 Z" />
</g>
<g id="#91c8d7ff">
<path fill="#91c8d7" opacity="1.00" d=" M 1004.13 577.30 C 1012.06 576.34 1019.73 573.28 1027.82 574.22 C 1027.63 575.56 1028.11 576.62 1029.25 577.38 L 1029.29 578.35 L 1029.31 578.84 L 1029.30 579.70 C 1029.09 581.04 1029.47 582.20 1030.42 583.15 L 1030.17 583.96 C 1029.65 585.36 1030.03 586.49 1031.29 587.37 L 1031.19 587.78 C 1032.51 594.21 1034.48 600.50 1035.61 606.98 C 1034.82 608.05 1034.17 609.53 1032.65 609.62 C 1024.15 611.36 1015.48 612.02 1007.01 613.86 C 997.29 615.46 987.67 617.67 977.86 618.67 C 965.92 620.81 954.06 623.42 942.00 624.82 C 931.54 626.82 921.08 628.81 910.58 630.59 C 901.90 631.25 893.53 633.70 884.94 634.92 C 877.35 637.00 869.40 636.78 861.79 638.77 C 852.58 640.33 843.47 642.57 834.14 643.33 C 822.38 645.37 810.70 647.86 798.93 649.78 C 794.01 650.18 789.21 651.30 784.37 652.14 C 785.29 653.14 786.87 653.96 786.43 655.61 C 776.89 649.84 767.60 643.65 758.18 637.69 C 754.50 635.46 750.87 633.15 747.24 630.85 C 746.94 630.59 746.32 630.07 746.02 629.81 C 745.33 628.83 744.35 628.15 743.24 627.82 C 742.09 627.23 740.98 626.59 739.90 625.92 C 739.57 625.46 738.91 624.53 738.57 624.06 C 742.57 621.78 747.24 621.43 751.67 620.54 C 757.75 619.58 763.76 618.19 769.90 617.66 C 776.97 616.69 783.93 615.02 790.98 613.91 C 798.87 611.95 807.05 611.74 814.97 609.89 C 823.04 608.06 831.29 607.16 839.38 605.42 C 853.36 604.05 866.93 599.98 880.92 598.65 C 890.17 597.12 899.33 595.12 908.57 593.53 C 919.80 592.33 930.83 589.79 941.95 587.92 C 949.86 585.90 958.07 585.76 966.01 583.92 C 978.60 581.05 991.47 579.81 1004.13 577.30 Z" />
</g>
<g id="#547d8bc3">
<path fill="#547d8b" opacity="0.76" d=" M 1027.82 574.22 C 1029.63 574.09 1030.16 576.10 1029.25 577.38 C 1028.11 576.62 1027.63 575.56 1027.82 574.22 Z" />
</g>
<g id="#558092d4">
<path fill="#558092" opacity="0.83" d=" M 742.18 584.64 C 742.51 581.99 743.56 579.38 746.15 578.22 C 744.94 580.43 743.64 582.59 742.18 584.64 Z" />
</g>
<g id="#446876ad">
<path fill="#446876" opacity="0.68" d=" M 1029.29 578.35 C 1029.29 578.47 1029.30 578.72 1029.31 578.84 L 1029.29 578.35 Z" />
</g>
<g id="#537789c1">
<path fill="#537789" opacity="0.76" d=" M 440.71 579.39 C 442.95 578.48 445.18 579.99 445.71 582.22 C 443.73 581.91 442.06 580.82 440.71 579.39 Z" />
</g>
<g id="#487283c8">
<path fill="#487283" opacity="0.78" d=" M 1029.30 579.70 C 1031.02 580.04 1031.69 581.87 1030.42 583.15 C 1029.47 582.20 1029.09 581.04 1029.30 579.70 Z" />
</g>
<g id="#61828fb3">
<path fill="#61828f" opacity="0.70" d=" M 446.75 583.09 C 448.23 582.55 450.26 583.43 449.87 585.27 C 448.55 585.01 447.42 584.24 446.75 583.09 Z" />
</g>
<g id="#6a8d9bc0">
<path fill="#6a8d9b" opacity="0.75" d=" M 295.00 585.86 C 294.33 583.65 297.46 583.37 298.38 584.92 C 297.35 585.80 296.23 586.11 295.00 585.86 Z" />
</g>
<g id="#608996c2">
<path fill="#608996" opacity="0.76" d=" M 1030.17 583.96 C 1031.71 584.41 1032.20 586.07 1031.29 587.37 C 1030.03 586.49 1029.65 585.36 1030.17 583.96 Z" />
</g>
<g id="#6c8f9cbe">
<path fill="#6c8f9c" opacity="0.75" d=" M 290.85 586.82 C 290.64 584.55 293.07 584.73 294.39 585.67 C 293.46 586.86 292.28 587.24 290.85 586.82 Z" />
</g>
<g id="#5b7f8fbc">
<path fill="#5b7f8f" opacity="0.74" d=" M 286.37 587.07 C 286.94 587.06 288.08 587.04 288.65 587.03 C 288.08 587.04 286.94 587.06 286.37 587.07 Z" />
</g>
<g id="#4f6e7ca3">
<path fill="#4f6e7c" opacity="0.64" d=" M 289.42 586.67 C 289.49 586.66 289.63 586.64 289.70 586.64 L 289.42 586.67 Z" />
</g>
<g id="#5d808fbc">
<path fill="#5d808f" opacity="0.74" d=" M 282.73 588.68 C 282.65 586.81 284.83 586.63 286.12 587.25 C 285.32 588.26 284.06 589.03 282.73 588.68 Z" />
</g>
<g id="#608290b8">
<path fill="#608290" opacity="0.72" d=" M 278.42 589.47 C 279.09 587.84 280.95 587.12 282.20 588.63 C 281.04 589.36 279.77 589.64 278.42 589.47 Z" />
</g>
<g id="#597e8ec1">
<path fill="#597e8e" opacity="0.76" d=" M 272.76 590.74 C 273.09 588.63 275.23 588.39 276.61 589.73 C 275.60 590.80 274.15 591.03 272.76 590.74 Z" />
</g>
<g id="#5b7983a1">
<path fill="#5b7983" opacity="0.63" d=" M 277.30 589.61 C 277.41 589.60 277.63 589.57 277.74 589.55 L 277.30 589.61 Z" />
</g>
<g id="#5c7f8fbc">
<path fill="#5c7f8f" opacity="0.74" d=" M 229.78 600.70 C 229.67 599.16 230.20 598.93 231.39 600.00 C 230.99 600.17 230.19 600.53 229.78 600.70 Z" />
</g>
<g id="#5c7e8bb3">
<path fill="#5c7e8b" opacity="0.70" d=" M 471.70 599.27 C 473.24 598.29 474.88 599.61 475.09 601.22 C 473.70 601.08 472.49 600.39 471.70 599.27 Z" />
</g>
<g id="#51849eff">
<path fill="#51849e" opacity="1.00" d=" M 513.95 607.01 C 526.34 604.42 539.19 604.21 551.35 600.53 C 566.86 609.78 582.24 619.46 597.49 629.19 C 591.85 631.14 585.83 630.82 580.04 631.98 C 571.77 633.57 563.45 634.87 555.16 636.32 C 549.83 637.26 544.23 636.86 539.17 639.08 C 536.94 640.15 534.63 638.64 532.52 638.01 C 532.06 637.80 531.15 637.37 530.69 637.16 C 530.89 634.98 528.63 633.30 526.68 634.50 C 519.67 630.29 512.70 625.97 506.07 621.17 C 505.87 619.52 504.34 618.56 502.78 619.10 C 502.54 618.75 502.05 618.04 501.81 617.69 C 500.92 616.09 499.24 615.21 497.54 614.79 L 496.94 614.85 C 494.29 614.23 492.10 612.58 489.90 611.11 C 497.90 609.69 505.92 608.29 513.95 607.01 Z" />
</g>
<g id="#85bfd0ff">
<path fill="#85bfd0" opacity="1.00" d=" M 1035.61 606.98 C 1039.35 622.40 1042.60 637.92 1046.01 653.42 C 1044.42 652.21 1043.36 649.53 1041.02 649.99 C 1031.10 651.53 1021.30 653.75 1011.40 655.44 C 999.10 656.77 987.02 659.62 974.83 661.64 C 961.77 662.81 949.12 666.51 936.15 668.27 C 923.97 669.87 911.94 672.39 899.87 674.60 C 892.16 674.91 884.75 677.11 877.17 678.31 C 863.50 680.90 849.65 682.50 836.03 685.39 C 837.14 686.26 838.24 687.13 839.29 688.10 C 839.31 688.48 839.36 689.25 839.38 689.63 C 824.51 680.11 809.63 670.59 794.72 661.16 C 791.88 659.41 789.14 657.53 786.43 655.61 C 786.87 653.96 785.29 653.14 784.37 652.14 C 789.21 651.30 794.01 650.18 798.93 649.78 C 810.70 647.86 822.38 645.37 834.14 643.33 C 843.47 642.57 852.58 640.33 861.79 638.77 C 869.40 636.78 877.35 637.00 884.94 634.92 C 893.53 633.70 901.90 631.25 910.58 630.59 C 921.08 628.81 931.54 626.82 942.00 624.82 C 954.06 623.42 965.92 620.81 977.86 618.67 C 987.67 617.67 997.29 615.46 1007.01 613.86 C 1015.48 612.02 1024.15 611.36 1032.65 609.62 C 1034.17 609.53 1034.82 608.05 1035.61 606.98 Z" />
</g>
<g id="#3d6373b8">
<path fill="#3d6373" opacity="0.72" d=" M 727.19 617.72 C 725.47 618.23 725.02 617.84 725.86 616.55 C 726.19 616.84 726.86 617.43 727.19 617.72 Z" />
</g>
<g id="#628490b3">
<path fill="#628490" opacity="0.70" d=" M 502.78 619.10 C 504.34 618.56 505.87 619.52 506.07 621.17 C 504.67 621.09 503.31 620.46 502.78 619.10 Z" />
</g>
<g id="#406b7dcd">
<path fill="#406b7d" opacity="0.80" d=" M 733.24 621.60 C 731.54 622.19 731.10 621.82 731.91 620.48 C 732.24 620.76 732.91 621.32 733.24 621.60 Z" />
</g>
<g id="#4f7282b6">
<path fill="#4f7282" opacity="0.71" d=" M 232.55 623.34 L 232.76 623.18 L 232.80 623.66 C 232.74 623.58 232.62 623.42 232.55 623.34 Z" />
</g>
<g id="#4f7988c8">
<path fill="#4f7988" opacity="0.78" d=" M 736.24 623.62 C 736.82 623.73 737.99 623.95 738.57 624.06 C 738.91 624.53 739.57 625.46 739.90 625.92 C 738.12 626.92 736.05 625.65 736.24 623.62 Z" />
</g>
<g id="#4f707eaa">
<path fill="#4f707e" opacity="0.67" d=" M 233.73 626.14 C 232.21 626.31 232.00 625.79 233.11 624.57 L 233.76 625.22 L 233.73 626.14 Z" />
</g>
<g id="#597f91c8">
<path fill="#597f91" opacity="0.78" d=" M 234.72 630.36 C 232.72 630.19 232.22 628.04 233.72 626.83 C 234.31 627.93 234.65 629.10 234.72 630.36 Z" />
</g>
<g id="#517886bc">
<path fill="#517886" opacity="0.74" d=" M 743.24 627.82 C 744.35 628.15 745.33 628.83 746.02 629.81 C 745.61 629.97 744.80 630.30 744.39 630.47 C 744.10 629.81 743.53 628.49 743.24 627.82 Z" />
</g>
<g id="#4d8299ff">
<path fill="#4d8299" opacity="1.00" d=" M 597.49 629.19 L 597.75 629.12 C 602.37 632.17 607.14 635.00 611.84 637.93 C 605.69 647.31 599.62 656.74 593.69 666.27 L 593.28 666.28 C 587.88 666.18 582.67 667.76 577.36 668.49 C 565.50 669.49 553.91 672.40 542.11 673.94 C 544.28 669.88 546.77 666.00 549.11 662.03 C 551.06 658.67 553.75 655.68 554.94 651.92 C 554.67 651.76 554.13 651.43 553.87 651.26 C 553.54 651.13 552.88 650.86 552.55 650.73 C 551.10 648.51 548.82 647.29 546.22 647.01 C 544.58 646.13 542.96 645.22 541.42 644.20 C 538.47 642.10 535.26 640.38 532.52 638.01 C 534.63 638.64 536.94 640.15 539.17 639.08 C 544.23 636.86 549.83 637.26 555.16 636.32 C 563.45 634.87 571.77 633.57 580.04 631.98 C 585.83 630.82 591.85 631.14 597.49 629.19 Z" />
</g>
<g id="#4a8095ff">
<path fill="#4a8095" opacity="1.00" d=" M 744.39 630.47 C 744.80 630.30 745.61 629.97 746.02 629.81 C 746.32 630.07 746.94 630.59 747.24 630.85 C 750.62 633.51 754.31 635.79 758.18 637.69 C 767.60 643.65 776.89 649.84 786.43 655.61 C 789.14 657.53 791.88 659.41 794.72 661.16 C 794.68 661.59 794.59 662.45 794.55 662.89 C 798.76 666.27 803.56 668.81 808.01 671.86 C 800.85 673.77 793.44 674.60 786.08 675.30 C 774.62 677.60 762.99 679.03 751.59 681.64 C 729.90 668.16 708.17 654.75 686.54 641.19 C 688.76 640.42 691.04 639.77 693.37 639.41 C 706.28 637.17 719.30 635.79 732.16 633.24 C 736.24 632.33 740.50 632.11 744.39 630.47 Z" />
</g>
<g id="#587d8bbc">
<path fill="#587d8b" opacity="0.74" d=" M 526.68 634.50 C 528.63 633.30 530.89 634.98 530.69 637.16 C 529.13 636.64 527.77 635.71 526.68 634.50 Z" />
</g>
<g id="#a4d5e2ff">
<path fill="#a4d5e2" opacity="1.00" d=" M 541.42 644.20 C 542.96 645.22 544.58 646.13 546.22 647.01 C 548.12 648.57 550.16 650.00 552.55 650.73 C 552.88 650.86 553.54 651.13 553.87 651.26 C 547.15 661.64 540.71 672.22 534.13 682.69 C 529.53 682.05 525.14 683.97 520.64 684.53 C 513.06 685.59 505.68 687.87 498.00 688.20 C 486.33 690.15 474.79 692.94 463.02 694.22 C 451.02 696.01 439.24 699.07 427.16 700.31 C 418.15 701.91 409.16 703.58 400.16 705.22 C 393.21 707.23 385.86 706.71 378.91 708.70 C 369.50 710.32 360.18 712.52 350.66 713.47 C 339.14 715.41 327.73 718.12 316.09 719.30 C 304.92 721.27 293.85 723.76 282.65 725.51 C 274.86 726.28 267.22 728.01 259.52 729.31 C 259.06 730.70 258.59 732.11 258.18 733.54 C 257.58 730.74 256.72 728.01 255.97 725.26 C 254.63 716.17 251.64 707.41 250.26 698.32 C 250.87 696.98 251.22 695.40 252.34 694.39 C 267.08 692.96 281.45 688.98 296.17 687.38 C 306.91 685.38 317.63 683.28 328.40 681.48 C 342.07 680.12 355.32 676.14 368.99 674.84 C 380.69 673.09 392.16 670.00 403.95 668.85 C 418.95 666.19 433.88 663.00 449.00 661.07 C 460.02 659.02 470.99 656.60 482.14 655.36 C 490.90 653.84 499.64 652.16 508.38 650.53 C 513.06 650.01 517.76 649.60 522.35 648.45 C 528.67 646.90 535.40 646.89 541.42 644.20 Z" />
</g>
<g id="#537a89c4">
<path fill="#537a89" opacity="0.77" d=" M 546.22 647.01 C 548.82 647.29 551.10 648.51 552.55 650.73 C 550.16 650.00 548.12 648.57 546.22 647.01 Z" />
</g>
<g id="#7bb8caff">
<path fill="#7bb8ca" opacity="1.00" d=" M 1011.40 655.44 C 1021.30 653.75 1031.10 651.53 1041.02 649.99 C 1043.36 649.53 1044.42 652.21 1046.01 653.42 C 1046.97 657.58 1047.95 661.74 1048.97 665.90 C 1022.73 671.64 996.56 677.78 970.36 683.72 C 959.97 686.34 949.37 688.08 939.08 691.07 C 930.26 692.44 921.72 695.04 913.00 696.86 C 897.75 700.56 882.25 703.27 867.14 707.53 C 857.95 701.45 848.61 695.63 839.38 689.63 C 839.36 689.25 839.31 688.48 839.29 688.10 C 838.24 687.13 837.14 686.26 836.03 685.39 C 849.65 682.50 863.50 680.90 877.17 678.31 C 884.75 677.11 892.16 674.91 899.87 674.60 C 911.94 672.39 923.97 669.87 936.15 668.27 C 949.12 666.51 961.77 662.81 974.83 661.64 C 987.02 659.62 999.10 656.77 1011.40 655.44 Z" />
</g>
<g id="#50849cff">
<path fill="#50849c" opacity="1.00" d=" M 239.42 650.83 C 241.22 659.73 243.72 668.49 245.25 677.45 C 244.06 678.68 244.27 679.21 245.89 679.07 C 246.20 680.74 246.38 682.44 246.45 684.16 C 246.47 684.34 246.49 684.71 246.51 684.90 C 246.99 686.77 247.51 688.65 247.84 690.58 C 246.60 694.21 247.96 697.97 247.91 701.68 C 237.76 703.19 227.64 705.03 217.56 706.97 C 214.38 692.44 210.68 677.91 207.75 663.40 C 208.33 662.01 208.96 660.65 209.57 659.29 C 218.72 656.59 228.28 656.12 237.65 654.64 C 238.24 653.36 238.82 652.09 239.42 650.83 Z" />
</g>
<g id="#497f94ff">
<path fill="#497f94" opacity="1.00" d=" M 553.87 651.26 C 554.13 651.43 554.67 651.76 554.94 651.92 C 553.75 655.68 551.06 658.67 549.11 662.03 C 546.77 666.00 544.28 669.88 542.11 673.94 C 553.91 672.40 565.50 669.49 577.36 668.49 C 582.67 667.76 587.88 666.18 593.28 666.28 C 588.76 674.56 583.19 682.26 578.27 690.32 C 570.58 702.15 563.19 714.19 555.35 725.90 C 541.19 727.25 527.40 731.20 513.21 732.28 C 510.50 732.63 507.86 733.31 505.19 733.86 C 508.64 726.96 512.88 720.47 517.00 713.96 C 518.01 712.86 517.71 711.44 517.27 710.19 C 520.01 704.93 523.52 700.14 526.66 695.13 C 529.15 693.67 530.78 691.28 530.93 688.36 C 531.97 686.45 533.03 684.56 534.13 682.69 C 540.71 672.22 547.15 661.64 553.87 651.26 Z" />
</g>
<g id="#496a78aa">
<path fill="#496a78" opacity="0.67" d=" M 245.89 679.07 C 244.27 679.21 244.06 678.68 245.25 677.45 C 245.41 677.86 245.73 678.66 245.89 679.07 Z" />
</g>
<g id="#97cbdaff">
<path fill="#97cbda" opacity="1.00" d=" M 520.64 684.53 C 525.14 683.97 529.53 682.05 534.13 682.69 C 533.03 684.56 531.97 686.45 530.93 688.36 C 529.28 690.46 527.84 692.72 526.66 695.13 C 523.52 700.14 520.01 704.93 517.27 710.19 C 515.45 712.93 513.63 715.66 511.89 718.46 C 511.71 717.65 511.54 716.85 511.37 716.06 C 501.36 718.39 491.10 719.05 481.06 721.18 C 473.47 722.50 465.89 723.84 458.35 725.45 C 443.60 726.69 429.32 731.07 414.59 732.52 C 405.52 734.12 396.47 735.89 387.38 737.43 C 377.84 738.33 368.55 740.75 359.11 742.27 C 350.19 744.64 340.90 744.76 331.94 746.85 C 322.73 748.31 313.65 750.58 304.35 751.43 C 294.52 752.97 284.81 755.25 274.98 756.78 C 271.23 757.08 267.51 757.65 263.98 758.97 C 261.89 750.53 259.74 742.09 258.18 733.54 C 258.59 732.11 259.06 730.70 259.52 729.31 C 267.22 728.01 274.86 726.28 282.65 725.51 C 293.85 723.76 304.92 721.27 316.09 719.30 C 327.73 718.12 339.14 715.41 350.66 713.47 C 360.18 712.52 369.50 710.32 378.91 708.70 C 385.86 706.71 393.21 707.23 400.16 705.22 C 409.16 703.58 418.15 701.91 427.16 700.31 C 439.24 699.07 451.02 696.01 463.02 694.22 C 474.79 692.94 486.33 690.15 498.00 688.20 C 505.68 687.87 513.06 685.59 520.64 684.53 Z" />
</g>
<g id="#4a7989da">
<path fill="#4a7989" opacity="0.85" d=" M 526.66 695.13 C 527.84 692.72 529.28 690.46 530.93 688.36 C 530.78 691.28 529.15 693.67 526.66 695.13 Z" />
</g>
<g id="#4b8197ff">
<path fill="#4b8197" opacity="1.00" d=" M 247.84 690.58 C 248.21 692.12 248.44 693.74 249.28 695.13 C 249.61 696.18 249.94 697.24 250.26 698.32 C 251.64 707.41 254.63 716.17 255.97 725.26 C 255.19 722.72 254.28 720.23 253.09 717.86 C 253.52 725.66 255.88 733.21 257.61 740.80 C 247.24 742.56 236.95 744.86 226.46 745.71 C 223.47 732.80 220.53 719.88 217.56 706.97 C 227.64 705.03 237.76 703.19 247.91 701.68 C 247.96 697.97 246.60 694.21 247.84 690.58 Z" />
</g>
<g id="#8bc3d3ff">
<path fill="#8bc3d3" opacity="1.00" d=" M 481.06 721.18 C 491.10 719.05 501.36 718.39 511.37 716.06 C 511.54 716.85 511.71 717.65 511.89 718.46 C 505.08 730.45 497.58 742.03 490.28 753.73 C 489.95 752.80 489.63 751.88 489.32 750.98 C 481.10 751.49 473.11 753.82 464.97 754.99 C 456.73 756.90 448.24 757.21 440.00 759.11 C 422.54 762.80 404.79 764.76 387.33 768.43 C 380.27 769.91 373.00 770.06 366.01 771.91 C 356.77 773.26 347.75 775.93 338.39 776.43 C 327.26 778.74 316.03 780.55 304.86 782.66 C 297.55 783.39 290.32 784.73 283.14 786.29 C 279.00 787.28 274.12 786.83 270.86 790.02 C 268.61 779.66 265.63 769.46 263.98 758.97 C 267.51 757.65 271.23 757.08 274.98 756.78 C 284.81 755.25 294.52 752.97 304.35 751.43 C 313.65 750.58 322.73 748.31 331.94 746.85 C 340.90 744.76 350.19 744.64 359.11 742.27 C 368.55 740.75 377.84 738.33 387.38 737.43 C 396.47 735.89 405.52 734.12 414.59 732.52 C 429.32 731.07 443.60 726.69 458.35 725.45 C 465.89 723.84 473.47 722.50 481.06 721.18 Z" />
</g>
<g id="#698c96b7">
<path fill="#698c96" opacity="0.72" d=" M 651.35 723.03 C 649.98 721.95 651.64 719.19 653.16 720.32 C 652.91 721.42 652.24 722.35 651.35 723.03 Z" />
</g>
<g id="#648993c0">
<path fill="#648993" opacity="0.75" d=" M 644.40 732.31 L 645.31 732.34 C 645.02 732.78 644.42 733.66 644.13 734.10 L 643.79 733.21 L 644.40 732.31 Z" />
</g>
<g id="#7ebaccff">
<path fill="#7ebacc" opacity="1.00" d=" M 464.97 754.99 C 473.11 753.82 481.10 751.49 489.32 750.98 C 489.63 751.88 489.95 752.80 490.28 753.73 C 482.25 767.04 473.90 780.16 465.74 793.40 C 465.62 792.21 465.52 791.03 465.42 789.86 C 456.98 790.93 448.65 792.71 440.31 794.37 C 427.97 795.51 415.92 798.66 403.67 800.46 C 390.21 802.25 376.94 805.09 363.60 807.50 C 349.39 809.07 335.52 812.89 321.29 814.36 C 308.51 816.53 295.85 819.50 282.93 820.81 C 280.79 820.68 279.83 822.68 278.72 824.13 C 275.94 812.80 273.17 801.46 270.86 790.02 C 274.12 786.83 279.00 787.28 283.14 786.29 C 290.32 784.73 297.55 783.39 304.86 782.66 C 316.03 780.55 327.26 778.74 338.39 776.43 C 347.75 775.93 356.77 773.26 366.01 771.91 C 373.00 770.06 380.27 769.91 387.33 768.43 C 404.79 764.76 422.54 762.80 440.00 759.11 C 448.24 757.21 456.73 756.90 464.97 754.99 Z" />
</g>
<g id="#74b3c6ff">
<path fill="#74b3c6" opacity="1.00" d=" M 440.31 794.37 C 448.65 792.71 456.98 790.93 465.42 789.86 C 465.52 791.03 465.62 792.21 465.74 793.40 C 465.08 794.48 464.47 795.60 463.69 796.61 C 419.87 806.58 376.02 816.52 332.23 826.63 C 315.33 830.13 298.55 834.22 281.73 838.10 C 280.68 833.45 279.64 828.80 278.72 824.13 C 279.83 822.68 280.79 820.68 282.93 820.81 C 295.85 819.50 308.51 816.53 321.29 814.36 C 335.52 812.89 349.39 809.07 363.60 807.50 C 376.94 805.09 390.21 802.25 403.67 800.46 C 415.92 798.66 427.97 795.51 440.31 794.37 Z" />
<path fill="#74b3c6" opacity="1.00" d=" M 699.96 968.91 C 740.14 947.32 780.34 925.80 820.37 903.93 C 821.18 905.25 821.97 906.58 822.78 907.93 C 822.85 907.39 822.99 906.33 823.06 905.80 C 826.13 915.98 827.63 926.57 830.34 936.86 C 830.48 937.54 830.46 938.24 830.28 938.95 C 829.50 937.96 828.71 937.01 827.93 936.07 C 819.42 941.41 810.24 945.58 801.51 950.55 C 786.94 958.30 772.46 966.22 757.79 973.78 C 749.53 979.11 740.43 982.95 731.98 987.95 C 716.89 996.21 701.76 1004.41 686.58 1012.50 C 678.37 1017.69 669.30 1021.37 661.13 1026.58 C 662.18 1026.95 663.25 1027.31 664.34 1027.66 C 654.10 1030.60 643.64 1032.68 633.31 1035.25 C 623.80 1037.08 614.51 1039.90 604.93 1041.35 C 604.19 1037.37 602.19 1033.48 602.52 1029.42 C 603.08 1026.96 603.07 1024.45 602.50 1022.01 C 611.86 1015.97 622.11 1011.42 631.71 1005.74 C 654.55 993.62 677.06 980.91 699.96 968.91 Z" />
</g>
<g id="#47717ec3">
<path fill="#47717e" opacity="0.76" d=" M 799.96 805.10 C 801.61 803.54 803.20 807.30 800.92 807.39 C 800.68 806.81 800.20 805.67 799.96 805.10 Z" />
</g>
<g id="#98ccdbff">
<path fill="#98ccdb" opacity="1.00" d=" M 801.40 811.49 L 801.92 811.15 C 801.95 811.88 802.02 813.35 802.06 814.09 C 802.00 815.25 802.32 816.32 803.02 817.30 C 803.44 818.03 803.69 818.82 803.75 819.68 C 803.34 820.84 803.33 822.52 804.78 822.98 L 804.68 823.83 C 804.61 824.52 804.71 825.21 804.97 825.90 C 805.24 827.01 805.52 828.14 805.79 829.29 C 806.15 830.95 806.50 832.63 806.80 834.32 C 806.93 835.36 807.20 836.39 807.59 837.39 C 808.62 841.06 809.20 844.86 809.72 848.64 C 808.94 847.53 808.14 846.45 807.36 845.38 C 803.21 846.40 799.92 849.19 796.20 851.08 C 789.85 853.93 783.93 857.62 777.78 860.86 C 747.68 877.03 717.79 893.60 687.63 909.65 C 654.88 927.21 622.20 944.87 589.41 962.38 C 589.21 963.54 589.01 964.72 588.82 965.90 C 588.35 965.21 587.90 964.52 587.47 963.84 C 586.30 959.16 585.06 954.43 584.18 949.67 C 584.21 948.40 583.89 947.19 583.35 946.08 C 582.64 943.77 582.05 941.45 581.53 939.11 C 581.57 937.37 581.35 935.62 580.40 934.15 L 579.96 933.28 C 580.13 933.00 580.47 932.44 580.64 932.15 C 580.95 931.02 581.44 930.02 582.11 929.16 C 618.91 909.66 655.50 889.84 692.16 870.07 C 698.27 866.44 704.87 863.74 710.81 859.82 C 728.83 850.66 746.20 840.38 764.18 831.16 C 769.32 827.74 775.17 825.64 780.36 822.31 C 787.29 818.53 794.25 814.79 801.40 811.49 Z" />
</g>
<g id="#588390ce">
<path fill="#588390" opacity="0.81" d=" M 802.06 814.09 C 804.22 812.49 805.55 817.15 803.02 817.30 C 802.32 816.32 802.00 815.25 802.06 814.09 Z" />
</g>
<g id="#537c88c0">
<path fill="#537c88" opacity="0.75" d=" M 804.78 822.98 C 803.33 822.52 803.34 820.84 803.75 819.68 C 805.32 820.43 805.66 821.53 804.78 822.98 Z" />
</g>
<g id="#60848fba">
<path fill="#60848f" opacity="0.73" d=" M 583.52 827.24 L 584.43 827.31 C 584.12 827.73 583.50 828.58 583.19 829.01 L 582.87 828.11 L 583.52 827.24 Z" />
</g>
<g id="#4a7582c6">
<path fill="#4a7582" opacity="0.78" d=" M 806.80 834.32 C 808.55 833.48 809.61 837.35 807.59 837.39 C 807.20 836.39 806.93 835.36 806.80 834.32 Z" />
</g>
<g id="#8cc4d4ff">
<path fill="#8cc4d4" opacity="1.00" d=" M 796.20 851.08 C 799.92 849.19 803.21 846.40 807.36 845.38 C 808.14 846.45 808.94 847.53 809.72 848.64 C 812.28 855.01 812.38 862.17 814.94 868.57 C 814.96 869.04 815.01 869.98 815.03 870.45 L 815.04 871.16 C 814.76 872.43 815.13 873.45 816.12 874.23 L 816.11 875.33 C 816.17 875.96 816.28 877.22 816.33 877.86 C 815.63 877.05 814.95 876.25 814.27 875.47 C 808.45 877.50 803.48 881.21 797.95 883.84 C 764.98 901.57 731.96 919.26 699.02 937.09 C 688.12 943.25 677.03 949.07 665.96 954.93 C 662.61 957.00 659.25 959.07 655.64 960.68 C 635.86 971.15 616.34 982.06 596.43 992.32 C 596.06 993.98 595.68 995.66 595.39 997.35 L 594.88 995.92 C 594.69 995.58 594.31 994.90 594.12 994.56 L 593.78 994.10 C 593.28 991.17 592.80 988.23 592.06 985.36 C 591.33 980.74 590.09 976.23 589.15 971.66 C 588.98 970.61 588.70 969.61 588.31 968.66 C 587.66 967.12 587.55 965.46 587.47 963.84 C 587.90 964.52 588.35 965.21 588.82 965.90 C 589.01 964.72 589.21 963.54 589.41 962.38 C 622.20 944.87 654.88 927.21 687.63 909.65 C 717.79 893.60 747.68 877.03 777.78 860.86 C 783.93 857.62 789.85 853.93 796.20 851.08 Z" />
</g>
<g id="#61848eb8">
<path fill="#61848e" opacity="0.72" d=" M 564.26 863.27 C 565.04 864.80 565.78 866.46 565.46 868.24 C 563.32 867.80 563.11 864.73 564.26 863.27 Z" />
</g>
<g id="#4a707ba7">
<path fill="#4a707b" opacity="0.65" d=" M 815.03 870.45 C 815.01 869.98 814.96 869.04 814.94 868.57 L 815.74 869.01 L 815.78 869.98 L 815.03 870.45 Z" />
</g>
<g id="#5d7d86a7">
<path fill="#5d7d86" opacity="0.65" d=" M 565.34 871.04 L 566.07 870.50 C 566.13 871.00 566.26 872.00 566.32 872.50 L 565.46 872.07 L 565.34 871.04 Z" />
</g>
<g id="#507f8dd0">
<path fill="#507f8d" opacity="0.82" d=" M 815.04 871.16 C 817.05 869.59 818.50 873.95 816.12 874.23 C 815.13 873.45 814.76 872.43 815.04 871.16 Z" />
</g>
<g id="#80bccdff">
<path fill="#80bccd" opacity="1.00" d=" M 797.95 883.84 C 803.48 881.21 808.45 877.50 814.27 875.47 C 814.95 876.25 815.63 877.05 816.33 877.86 L 816.79 878.39 L 817.26 879.06 C 817.22 880.08 817.42 881.07 817.86 882.02 L 818.18 883.27 L 818.30 883.76 C 819.71 891.14 822.33 898.30 823.06 905.80 C 822.99 906.33 822.85 907.39 822.78 907.93 C 821.97 906.58 821.18 905.25 820.37 903.93 C 780.34 925.80 740.14 947.32 699.96 968.91 C 677.06 980.91 654.55 993.62 631.71 1005.74 C 622.11 1011.42 611.86 1015.97 602.50 1022.01 C 603.07 1024.45 603.08 1026.96 602.52 1029.42 C 600.12 1021.20 598.40 1012.79 596.29 1004.50 C 596.28 1003.99 596.25 1002.99 596.24 1002.49 C 595.72 1000.82 595.27 999.09 595.39 997.35 C 595.68 995.66 596.06 993.98 596.43 992.32 C 616.34 982.06 635.86 971.15 655.64 960.68 C 659.25 959.07 662.61 957.00 665.96 954.93 C 677.03 949.07 688.12 943.25 699.02 937.09 C 731.96 919.26 764.98 901.57 797.95 883.84 Z" />
</g>
<g id="#55818fc4">
<path fill="#55818f" opacity="0.77" d=" M 816.11 875.33 C 817.68 874.77 818.69 878.27 816.79 878.39 L 816.33 877.86 C 816.28 877.22 816.17 875.96 816.11 875.33 Z" />
</g>
<g id="#31515b8f">
<path fill="#31515b" opacity="0.56" d=" M 818.18 883.27 C 818.21 883.39 818.27 883.64 818.30 883.76 L 818.18 883.27 Z" />
</g>
<g id="#4f7884c1">
<path fill="#4f7884" opacity="0.76" d=" M 576.46 918.00 C 577.72 918.61 577.71 920.17 577.34 921.34 C 575.68 920.52 575.38 919.41 576.46 918.00 Z" />
</g>
<g id="#58828fc9">
<path fill="#58828f" opacity="0.79" d=" M 579.03 926.73 C 577.08 928.01 575.74 923.81 578.10 923.70 C 578.68 924.62 578.99 925.63 579.03 926.73 Z" />
</g>
<g id="#5e8692c2">
<path fill="#5e8692" opacity="0.76" d=" M 579.27 930.08 C 580.04 930.52 580.50 931.21 580.64 932.15 C 580.47 932.44 580.13 933.00 579.96 933.28 C 578.60 932.50 578.37 931.43 579.27 930.08 Z" />
</g>
<g id="#517b88c7">
<path fill="#517b88" opacity="0.78" d=" M 580.40 934.15 C 581.35 935.62 581.57 937.37 581.53 939.11 C 579.47 938.62 579.03 935.51 580.40 934.15 Z" />
</g>
<g id="#69abbfff">
<path fill="#69abbf" opacity="1.00" d=" M 801.51 950.55 C 810.24 945.58 819.42 941.41 827.93 936.07 C 828.71 937.01 829.50 937.96 830.28 938.95 C 831.67 940.66 831.79 942.94 832.23 945.03 C 833.68 953.14 836.18 961.08 837.33 969.23 C 837.11 969.35 836.67 969.61 836.45 969.73 C 836.01 968.77 835.59 967.83 835.17 966.90 C 831.25 969.56 826.90 971.47 822.73 973.68 C 814.10 978.94 804.86 983.06 796.15 988.17 C 792.37 990.45 788.13 991.88 784.46 994.37 C 780.22 997.16 775.49 999.05 771.09 1001.56 C 772.13 1001.94 773.19 1002.32 774.26 1002.69 C 761.37 1006.34 748.14 1008.57 735.20 1012.05 C 726.83 1013.50 718.56 1015.53 710.34 1017.65 C 698.44 1020.06 686.74 1023.36 674.82 1025.62 C 671.30 1026.20 667.99 1028.08 664.34 1027.66 C 663.25 1027.31 662.18 1026.95 661.13 1026.58 C 669.30 1021.37 678.37 1017.69 686.58 1012.50 C 701.76 1004.41 716.89 996.21 731.98 987.95 C 740.43 982.95 749.53 979.11 757.79 973.78 C 772.46 966.22 786.94 958.30 801.51 950.55 Z" />
</g>
<g id="#628d9acc">
<path fill="#628d9a" opacity="0.80" d=" M 583.35 946.08 C 583.89 947.19 584.21 948.40 584.18 949.67 C 582.31 950.17 582.05 946.85 583.35 946.08 Z" />
</g>
<g id="#5fa4baff">
<path fill="#5fa4ba" opacity="1.00" d=" M 822.73 973.68 C 826.90 971.47 831.25 969.56 835.17 966.90 C 835.59 967.83 836.01 968.77 836.45 969.73 C 836.67 969.61 837.11 969.35 837.33 969.23 L 837.66 969.04 C 838.24 971.35 838.81 973.69 838.99 976.08 C 839.20 976.67 839.62 977.83 839.83 978.42 L 839.90 979.33 C 839.86 980.38 840.11 981.38 840.64 982.33 C 840.81 983.07 841.17 984.56 841.35 985.30 C 841.40 985.42 841.50 985.66 841.54 985.78 L 842.09 986.71 C 841.74 986.97 841.04 987.49 840.69 987.75 C 840.03 987.89 838.71 988.17 838.05 988.32 C 837.02 988.45 836.03 988.70 835.07 989.05 L 833.97 989.31 C 832.97 989.45 832.00 989.69 831.06 990.03 C 829.94 990.38 828.82 990.69 827.69 990.96 L 827.19 991.04 L 826.08 991.18 C 825.72 991.31 825.02 991.57 824.66 991.69 C 823.64 991.78 822.58 991.93 821.61 992.21 C 821.52 992.23 821.34 992.27 821.25 992.29 C 820.06 992.58 818.87 992.84 817.69 993.08 L 817.19 993.17 L 816.12 993.35 C 815.75 993.46 815.01 993.66 814.63 993.76 C 813.98 993.87 812.66 994.09 812.00 994.20 C 810.18 994.55 808.43 995.12 806.66 995.63 L 805.72 995.86 C 805.11 995.95 803.88 996.14 803.27 996.24 C 802.68 996.37 801.51 996.63 800.92 996.75 C 797.47 997.43 794.08 998.37 790.65 999.11 L 789.88 999.27 C 787.72 999.68 785.64 1000.37 783.54 1000.97 L 782.54 1001.11 C 781.01 1001.19 779.50 1001.48 778.08 1002.04 C 776.83 1002.40 775.55 1002.70 774.26 1002.69 C 773.19 1002.32 772.13 1001.94 771.09 1001.56 C 775.49 999.05 780.22 997.16 784.46 994.37 C 788.13 991.88 792.37 990.45 796.15 988.17 C 804.86 983.06 814.10 978.94 822.73 973.68 Z" />
</g>
<g id="#4b7683c5">
<path fill="#4b7683" opacity="0.77" d=" M 589.15 971.66 C 587.39 972.55 586.26 968.71 588.31 968.66 C 588.70 969.61 588.98 970.61 589.15 971.66 Z" />
</g>
<g id="#3f7181d3">
<path fill="#3f7181" opacity="0.83" d=" M 838.99 976.08 C 840.76 974.53 842.18 978.44 839.83 978.42 C 839.62 977.83 839.20 976.67 838.99 976.08 Z" />
</g>
<g id="#407384da">
<path fill="#407384" opacity="0.85" d=" M 839.90 979.33 C 841.94 978.05 843.03 982.30 840.64 982.33 C 840.11 981.38 839.86 980.38 839.90 979.33 Z" />
</g>
<g id="#396473aa">
<path fill="#396473" opacity="0.67" d=" M 841.35 985.30 C 841.40 985.42 841.50 985.66 841.54 985.78 C 841.50 985.66 841.40 985.42 841.35 985.30 Z" />
</g>
<g id="#315865ae">
<path fill="#315865" opacity="0.68" d=" M 840.69 987.75 C 841.04 987.49 841.74 986.97 842.09 986.71 C 845.11 987.34 840.85 990.83 840.69 987.75 Z" />
</g>
<g id="#386472bc">
<path fill="#386472" opacity="0.74" d=" M 835.07 989.05 C 836.03 988.70 837.02 988.45 838.05 988.32 C 839.08 990.07 835.03 991.10 835.07 989.05 Z" />
</g>
<g id="#3e6f7ed0">
<path fill="#3e6f7e" opacity="0.82" d=" M 831.06 990.03 C 832.00 989.69 832.97 989.45 833.97 989.31 C 835.00 991.12 830.95 992.13 831.06 990.03 Z" />
</g>
<g id="#366271c0">
<path fill="#366271" opacity="0.75" d=" M 824.66 991.69 C 825.02 991.57 825.72 991.31 826.08 991.18 C 826.18 992.84 825.71 993.01 824.66 991.69 Z" />
</g>
<g id="#2e5460a6">
<path fill="#2e5460" opacity="0.65" d=" M 827.19 991.04 L 827.69 990.96 C 827.56 990.98 827.31 991.02 827.19 991.04 Z" />
</g>
<g id="#325966a2">
<path fill="#325966" opacity="0.64" d=" M 821.25 992.29 C 821.34 992.27 821.52 992.23 821.61 992.21 C 821.52 992.23 821.34 992.27 821.25 992.29 Z" />
</g>
<g id="#386473b8">
<path fill="#386473" opacity="0.72" d=" M 814.63 993.76 C 815.01 993.66 815.75 993.46 816.12 993.35 C 816.15 995.02 815.65 995.16 814.63 993.76 Z" />
</g>
<g id="#335b68a7">
<path fill="#335b68" opacity="0.65" d=" M 817.19 993.17 L 817.69 993.08 C 817.56 993.10 817.31 993.15 817.19 993.17 Z" />
</g>
<g id="#427586d5">
<path fill="#427586" opacity="0.84" d=" M 806.66 995.63 C 808.43 995.12 810.18 994.55 812.00 994.20 C 812.01 994.62 812.03 995.45 812.04 995.87 C 810.34 995.94 808.68 996.19 807.05 996.58 L 806.66 995.63 Z" />
</g>
<g id="#3d626ea7">
<path fill="#3d626e" opacity="0.65" d=" M 594.88 995.92 C 593.18 996.15 592.93 995.69 594.12 994.56 C 594.31 994.90 594.69 995.58 594.88 995.92 Z" />
</g>
<g id="#3e6e7fcf">
<path fill="#3e6e7f" opacity="0.81" d=" M 803.27 996.24 C 803.88 996.14 805.11 995.95 805.72 995.86 C 806.69 997.96 801.62 998.46 803.27 996.24 Z" />
</g>
<g id="#3d6e7dd2">
<path fill="#3d6e7d" opacity="0.82" d=" M 790.65 999.11 C 794.08 998.37 797.47 997.43 800.92 996.75 L 802.38 996.65 C 802.00 998.74 799.46 998.30 797.96 998.93 C 795.57 999.23 792.86 1000.65 790.65 999.11 Z" />
</g>
<g id="#427586d6">
<path fill="#427586" opacity="0.84" d=" M 783.54 1000.97 C 785.64 1000.37 787.72 999.68 789.88 999.27 C 789.99 999.66 790.22 1000.43 790.33 1000.81 C 788.08 1000.73 785.64 1002.22 783.54 1000.97 Z" />
</g>
<g id="#427484d6">
<path fill="#427484" opacity="0.84" d=" M 778.08 1002.04 C 779.50 1001.48 781.01 1001.19 782.54 1001.11 C 783.30 1003.30 778.30 1004.41 778.08 1002.04 Z" />
</g>
<g id="#4a7582bf">
<path fill="#4a7582" opacity="0.75" d=" M 595.45 1002.98 L 596.24 1002.49 C 596.25 1002.99 596.28 1003.99 596.29 1004.50 L 595.47 1004.02 L 595.45 1002.98 Z" />
</g>
<g id="#467a8ae1">
<path fill="#467a8a" opacity="0.88" d=" M 710.34 1017.65 C 718.56 1015.53 726.83 1013.50 735.20 1012.05 C 733.96 1013.01 732.53 1013.67 730.99 1013.94 C 724.43 1015.37 717.98 1017.38 711.36 1018.43 L 710.34 1017.65 Z" />
</g>
</svg>
