<?xml version="1.0" encoding="UTF-8" ?>
<!DOCTYPE svg PUBLIC "-//W3C//DTD SVG 1.1//EN" "http://www.w3.org/Graphics/SVG/1.1/DTD/svg11.dtd">
<svg width="1276pt" height="1276pt" viewBox="0 0 1276 1276" version="1.1" xmlns="http://www.w3.org/2000/svg">
<g id="#7965c6ff">
<path fill="#7965c6" opacity="1.00" d=" M 222.32 232.37 C 246.47 205.63 281.92 189.60 317.98 189.13 C 528.98 189.10 739.98 189.12 950.98 189.12 C 970.56 188.81 990.32 192.43 1008.15 200.59 C 1045.24 216.74 1073.86 250.85 1083.38 290.17 C 1084.65 296.65 1086.38 303.10 1086.65 309.73 C 1085.30 315.41 1086.19 321.26 1086.04 327.03 C 1086.01 330.00 1084.71 332.97 1082.41 334.89 C 1081.80 334.11 1081.20 333.34 1080.61 332.57 C 1080.04 333.11 1079.47 333.66 1078.94 334.21 C 1077.54 333.71 1076.15 334.07 1074.87 334.67 C 1072.93 334.10 1070.89 332.49 1068.96 333.92 C 1065.86 335.58 1062.56 333.12 1060.05 331.41 C 1057.94 332.29 1056.07 333.60 1054.04 334.62 C 1053.39 334.30 1052.76 333.98 1052.14 333.67 C 1051.38 333.87 1050.63 334.08 1049.89 334.29 C 1049.17 333.96 1048.44 333.67 1047.72 333.41 C 1044.93 334.16 1042.01 333.71 1039.22 334.48 C 1037.33 335.19 1036.18 333.33 1035.03 332.22 C 1034.67 332.47 1033.95 332.97 1033.60 333.22 C 1032.57 332.79 1031.56 332.36 1030.56 331.94 C 1030.58 332.85 1030.62 333.77 1030.67 334.68 C 1029.52 333.90 1028.52 332.76 1027.16 332.42 C 1025.91 332.60 1025.63 334.09 1024.98 334.94 C 1024.63 334.90 1023.94 334.82 1023.60 334.77 C 1023.12 333.08 1022.58 331.41 1021.64 329.92 C 1021.40 331.45 1021.22 332.99 1021.05 334.53 C 1020.27 334.26 1019.50 334.00 1018.75 333.74 C 1016.91 335.04 1014.97 334.63 1013.20 333.48 C 1010.84 331.87 1008.29 334.46 1005.74 333.76 C 1002.72 333.24 999.56 333.14 996.95 335.03 C 994.89 334.19 992.94 333.07 990.80 332.48 C 989.50 332.84 988.52 333.86 987.43 334.59 C 987.00 333.53 986.59 332.48 986.19 331.43 C 985.04 332.02 983.97 332.78 982.96 333.57 C 982.29 333.17 981.63 332.78 980.98 332.39 C 977.59 334.28 973.75 333.23 970.17 332.66 C 969.51 333.31 968.88 333.97 968.26 334.63 C 968.11 334.02 967.82 332.80 967.67 332.19 C 966.61 332.86 965.58 333.59 964.46 334.12 C 962.74 333.87 961.04 333.48 959.30 333.42 C 959.00 334.58 958.72 335.74 958.45 336.91 C 957.98 335.29 957.96 333.43 956.71 332.18 C 956.36 332.82 955.66 334.11 955.31 334.75 C 954.79 334.32 954.32 333.83 953.88 333.37 C 952.02 334.40 949.84 335.16 947.81 334.14 C 945.62 333.01 943.31 334.07 941.15 334.66 C 940.35 334.19 939.57 333.72 938.80 333.25 C 937.75 333.37 936.72 333.49 935.70 333.62 C 935.10 332.26 934.48 330.90 933.83 329.57 C 932.69 331.96 933.60 335.22 931.34 336.98 C 931.43 335.75 931.58 334.54 931.73 333.32 C 928.43 333.71 925.03 335.52 921.96 333.31 C 921.08 334.32 920.20 335.32 919.28 336.27 C 917.47 334.90 915.77 333.33 913.71 332.36 C 912.38 332.18 911.24 333.20 910.05 333.61 C 909.42 333.29 908.82 332.98 908.22 332.67 C 907.53 333.27 906.86 333.88 906.19 334.49 C 904.17 334.02 902.16 333.57 900.15 333.17 C 899.10 333.67 898.07 334.18 897.04 334.68 C 893.70 332.53 889.67 334.12 886.11 332.83 C 884.04 332.02 881.90 332.12 880.03 333.36 C 878.24 332.42 876.42 333.44 874.63 333.69 C 873.03 333.85 872.73 331.77 871.91 330.83 C 871.58 332.10 871.20 333.35 870.85 334.62 C 870.14 333.92 869.44 333.23 868.76 332.55 C 868.00 332.79 867.25 333.04 866.52 333.30 C 865.65 332.94 864.79 332.58 863.96 332.24 C 863.23 332.94 862.52 333.66 861.81 334.37 C 859.62 333.87 857.47 333.09 855.22 332.94 C 852.87 333.36 850.51 334.04 848.14 333.36 C 848.37 332.34 848.60 331.33 848.85 330.31 C 847.69 330.57 846.53 330.82 845.40 331.08 C 845.78 332.02 846.20 332.96 846.53 333.93 C 844.68 335.72 842.31 333.27 841.50 331.55 C 839.71 333.27 837.58 336.35 834.84 334.34 C 835.45 333.32 836.09 332.32 836.74 331.32 C 834.57 331.65 832.47 331.07 830.37 330.65 C 828.93 331.40 829.62 333.58 829.38 334.94 C 828.62 334.47 827.87 334.01 827.14 333.56 C 826.61 334.20 826.09 334.86 825.59 335.52 C 825.01 334.89 824.44 334.26 823.90 333.65 C 823.18 333.89 822.49 334.14 821.79 334.38 C 821.38 333.47 820.99 332.57 820.60 331.68 C 819.83 331.88 819.07 332.10 818.33 332.31 C 817.43 331.90 816.55 331.49 815.67 331.09 C 815.56 332.31 815.49 333.55 815.44 334.79 C 814.10 334.20 812.69 333.72 811.23 334.15 C 810.40 333.58 809.68 332.90 808.88 332.33 C 808.06 333.18 807.15 333.94 806.34 334.80 C 806.18 334.20 805.85 333.01 805.68 332.41 C 805.05 333.11 804.41 333.80 803.80 334.50 C 800.16 332.78 796.44 334.81 792.92 335.76 C 791.04 334.66 789.19 333.52 787.37 332.35 C 786.79 332.96 786.22 333.57 785.66 334.19 C 784.92 334.08 784.18 334.08 783.45 334.13 C 782.67 333.56 782.01 332.82 781.15 332.39 C 776.74 333.31 772.17 331.75 768.01 333.94 C 765.50 333.43 762.99 333.44 760.56 334.45 C 759.45 333.84 758.40 333.19 757.31 332.59 C 756.89 333.45 756.49 334.33 756.09 335.20 C 755.78 334.54 755.48 333.87 755.21 333.20 C 754.39 333.77 753.57 334.35 752.75 334.88 C 751.96 334.18 751.28 333.39 750.60 332.62 C 748.98 334.20 746.80 334.82 744.74 335.54 C 744.54 334.40 744.48 333.25 744.31 332.11 C 742.37 332.73 740.48 333.48 738.52 334.00 C 736.40 334.57 734.52 332.98 732.48 332.76 C 730.97 333.71 729.61 334.86 728.19 335.92 C 728.04 335.64 727.75 335.09 727.60 334.81 C 727.88 334.04 728.17 333.28 728.47 332.53 C 724.95 333.64 721.40 332.22 717.84 332.36 C 717.18 333.00 716.53 333.64 715.89 334.28 C 712.13 332.99 707.95 334.21 704.34 332.32 C 703.90 332.53 703.01 332.97 702.57 333.19 C 702.13 332.97 701.70 332.76 701.29 332.55 C 701.11 333.11 700.74 334.25 700.56 334.82 C 696.16 333.79 691.61 333.98 687.24 332.93 C 684.32 333.42 681.15 331.86 678.97 334.64 C 675.27 332.66 670.49 332.73 666.87 334.87 C 666.45 334.15 666.04 333.42 665.64 332.71 C 665.16 332.93 664.68 333.15 664.22 333.38 C 664.08 332.86 663.81 331.83 663.67 331.31 C 663.30 331.97 662.95 332.65 662.61 333.32 C 661.50 333.29 660.39 333.27 659.30 333.25 C 658.29 334.00 657.30 334.77 656.30 335.53 C 655.76 334.58 655.23 333.64 654.71 332.70 C 652.29 332.10 649.78 332.11 647.32 332.22 C 647.63 332.64 648.27 333.46 648.58 333.87 C 645.60 334.96 642.69 334.18 640.18 332.43 C 639.10 333.20 638.03 333.98 636.97 334.76 C 636.05 334.32 635.13 333.90 634.23 333.49 C 633.24 333.78 632.27 334.22 631.24 333.92 C 627.70 333.19 624.12 335.71 620.67 334.15 C 619.31 333.33 617.94 334.01 616.58 334.38 C 615.09 333.91 613.73 333.14 612.33 332.46 C 611.73 333.08 611.13 333.69 610.54 334.32 C 607.66 333.70 605.06 332.29 602.72 330.54 C 601.89 331.19 601.17 331.96 600.36 332.61 C 597.87 330.88 595.65 333.05 593.48 334.12 C 588.65 334.12 583.52 333.07 578.92 334.78 C 578.53 333.94 578.16 333.12 577.79 332.29 C 576.51 333.14 575.25 334.02 573.99 334.89 C 573.30 333.92 572.63 332.95 571.96 331.99 C 571.48 332.78 571.02 333.58 570.57 334.38 C 569.74 334.07 568.92 333.76 568.11 333.45 C 566.99 334.25 565.89 335.08 564.80 335.91 C 563.16 335.51 562.53 334.04 562.03 332.61 C 559.26 333.72 556.29 333.97 553.37 334.27 C 552.88 333.42 552.40 332.57 551.93 331.72 C 551.53 332.60 551.14 333.48 550.76 334.37 C 549.40 333.60 547.91 333.16 546.35 333.36 C 546.05 334.57 545.74 335.78 545.43 337.00 C 544.41 335.68 543.98 334.05 543.61 332.46 C 543.24 332.72 542.51 333.24 542.14 333.50 C 540.77 332.74 539.41 331.97 538.06 331.21 C 537.27 331.96 536.49 332.71 535.71 333.46 C 533.74 332.78 531.56 332.47 529.82 333.89 C 528.43 334.86 527.30 333.03 526.30 332.30 C 525.67 333.08 525.04 333.86 524.41 334.64 C 522.81 333.76 522.30 331.94 521.61 330.39 C 520.31 333.58 516.46 333.09 514.58 335.62 C 513.75 334.42 513.32 332.66 511.73 332.27 C 509.66 331.41 508.01 333.28 506.47 334.32 C 502.86 333.44 498.99 332.79 495.43 334.20 C 493.51 335.06 491.67 333.65 489.80 333.32 C 488.11 332.80 486.53 333.83 485.00 334.40 C 483.96 333.28 482.92 332.16 481.89 331.04 C 481.14 332.12 480.40 333.22 479.66 334.31 C 477.54 333.51 474.61 332.31 472.90 334.49 C 470.16 335.78 467.61 333.51 465.41 332.13 C 465.37 331.34 465.34 330.55 465.31 329.77 C 464.35 330.57 463.62 331.57 463.16 332.73 C 464.53 333.66 465.97 334.58 466.94 335.97 C 463.38 335.91 460.64 331.38 457.11 333.51 C 455.05 332.62 452.89 331.81 450.63 331.70 C 449.10 332.48 447.80 333.60 446.45 334.62 C 446.25 334.09 445.85 333.03 445.65 332.50 C 443.51 333.34 442.27 335.35 440.93 337.09 C 440.03 335.77 439.13 334.45 438.23 333.14 C 436.53 334.02 434.82 335.61 432.76 335.09 C 430.66 334.70 428.52 334.58 426.41 334.92 C 426.94 333.66 427.47 332.41 427.99 331.14 C 426.18 331.84 424.48 332.80 422.64 333.37 C 420.20 333.29 417.82 332.67 415.54 331.86 C 413.26 333.35 410.08 333.23 408.55 335.78 C 408.44 334.37 408.19 332.97 407.84 331.60 C 407.48 331.72 406.77 331.95 406.41 332.07 C 406.11 331.93 405.51 331.63 405.21 331.48 C 405.01 332.92 404.81 334.37 404.63 335.81 C 404.13 334.90 403.64 333.98 403.15 333.07 C 401.04 336.33 395.89 336.39 394.57 332.45 C 393.96 333.28 393.51 334.20 392.90 335.02 C 392.51 334.96 391.74 334.83 391.35 334.76 C 391.91 333.99 392.47 333.24 393.04 332.48 C 391.84 332.49 390.65 332.48 389.46 332.49 C 389.35 333.62 389.17 334.75 388.90 335.85 C 387.58 334.14 386.21 332.46 384.72 330.90 C 384.65 331.79 384.59 332.70 384.54 333.60 C 381.25 333.56 376.56 334.38 375.40 330.29 C 375.39 333.16 373.09 334.39 370.56 334.58 C 369.14 333.70 367.71 332.84 366.27 332.01 C 365.51 332.52 364.76 333.04 364.01 333.56 C 363.32 333.18 362.63 332.80 361.94 332.42 C 361.05 332.72 360.16 333.03 359.27 333.34 C 358.24 333.02 357.22 332.71 356.20 332.41 C 352.54 334.56 348.05 334.85 344.08 333.43 C 343.31 333.85 342.55 334.29 341.79 334.73 C 341.69 333.53 341.65 332.33 341.56 331.14 C 340.32 332.33 339.06 333.50 337.80 334.68 C 337.22 333.80 336.59 332.96 335.99 332.11 C 335.72 333.47 335.47 334.82 335.28 336.19 C 334.15 334.88 333.18 332.94 331.22 332.85 C 328.32 332.43 325.68 333.90 323.12 335.02 C 319.77 336.77 317.18 332.86 313.94 332.52 C 313.12 333.09 312.29 333.67 311.48 334.26 C 311.06 334.01 310.22 333.52 309.80 333.27 C 308.65 333.37 307.51 333.52 306.37 333.64 C 305.60 332.75 304.79 331.90 304.04 331.01 C 302.30 333.36 300.46 336.52 297.01 335.95 C 297.30 334.47 298.67 333.80 299.88 333.17 C 298.92 332.83 297.96 332.48 297.01 332.14 C 295.80 332.94 294.60 333.75 293.40 334.55 C 292.20 333.68 291.01 332.81 289.82 331.95 C 289.66 332.42 289.35 333.36 289.20 333.83 C 286.79 332.74 284.14 332.18 281.90 333.98 C 280.17 333.45 278.48 332.83 276.82 332.15 C 276.56 333.28 276.41 334.44 276.14 335.58 C 272.80 334.19 269.09 334.62 265.66 333.56 C 263.62 332.79 261.58 333.71 259.58 334.12 C 258.11 334.06 256.89 333.02 255.57 332.49 C 254.85 333.37 254.31 334.38 253.60 335.27 C 253.61 333.95 253.70 332.64 253.73 331.33 C 249.99 335.69 243.99 332.52 239.31 334.50 C 239.32 333.72 239.34 332.94 239.36 332.17 C 238.38 332.30 237.41 332.42 236.44 332.56 C 236.23 333.08 235.80 334.12 235.59 334.64 C 234.31 332.98 233.08 330.96 230.76 330.78 C 230.62 332.12 230.41 333.45 230.11 334.77 C 228.31 334.23 226.52 333.68 224.73 333.14 C 224.62 333.56 224.38 334.38 224.27 334.79 C 222.61 333.33 220.60 332.89 218.72 334.26 C 218.07 333.89 217.44 333.52 216.80 333.16 C 216.30 333.98 215.81 334.81 215.32 335.65 C 214.43 334.24 213.54 332.83 212.67 331.42 C 210.10 331.89 207.60 332.65 205.16 333.56 C 204.01 332.75 202.85 331.95 201.72 331.12 C 201.36 332.42 202.13 334.80 200.12 334.81 C 198.98 334.35 197.91 333.75 196.81 333.20 C 194.93 334.76 193.08 333.50 191.29 332.56 C 189.76 331.64 188.49 333.44 187.21 333.99 C 187.31 324.98 186.92 315.92 188.17 306.96 C 191.32 279.32 203.40 252.78 222.32 232.37 Z" />
</g>
<g id="#725dc6ff">
<path fill="#725dc6" opacity="1.00" d=" M 1086.65 309.73 C 1087.33 320.47 1086.77 331.27 1086.95 342.03 C 1086.90 386.88 1087.04 431.73 1086.87 476.57 C 1086.29 478.82 1085.73 481.07 1085.34 483.36 C 1083.81 483.47 1082.28 483.49 1080.76 483.45 C 1080.41 482.45 1080.06 481.44 1079.73 480.45 C 1078.87 481.27 1078.01 482.07 1077.18 482.89 C 1075.80 482.14 1074.48 481.24 1073.01 480.75 C 1071.08 480.42 1069.50 482.11 1069.18 483.88 C 1067.57 482.92 1065.91 482.07 1064.22 481.32 C 1063.14 482.48 1062.08 483.65 1061.03 484.83 C 1058.88 484.42 1056.46 484.00 1055.51 481.75 C 1054.54 482.16 1053.59 482.58 1052.65 483.01 C 1052.43 481.92 1052.24 480.85 1052.05 479.77 C 1049.72 481.51 1047.58 483.51 1045.09 485.02 C 1043.52 483.54 1041.95 482.07 1040.40 480.60 C 1038.18 481.94 1035.62 481.72 1033.18 481.36 C 1032.58 482.34 1032.07 483.37 1031.50 484.37 C 1028.55 482.77 1024.62 483.27 1022.49 480.32 C 1019.67 481.03 1017.04 485.37 1014.11 482.90 C 1013.54 482.52 1012.99 482.14 1012.46 481.76 C 1012.10 481.96 1011.37 482.37 1011.01 482.58 C 1008.13 479.40 1004.49 482.29 1001.49 483.65 C 1001.09 482.84 1000.69 482.04 1000.31 481.25 C 999.53 482.11 998.77 482.99 998.01 483.86 C 996.86 483.10 995.80 482.19 994.54 481.67 C 992.91 482.11 991.58 483.47 989.89 483.60 C 988.61 482.98 987.49 482.11 986.22 481.53 C 984.08 481.12 982.07 482.32 980.10 482.92 C 979.05 481.67 978.27 479.81 976.38 479.86 C 976.54 481.13 978.26 482.64 977.24 483.79 C 975.49 482.93 973.95 480.46 971.84 481.82 C 969.63 483.04 967.19 482.80 965.03 481.62 C 963.29 482.75 961.58 483.92 959.89 485.11 C 958.69 483.95 957.53 482.76 956.41 481.54 C 954.79 482.78 953.19 484.08 951.33 484.93 C 950.94 483.73 950.64 482.52 950.27 481.33 C 947.70 481.47 945.06 481.25 942.61 482.11 C 942.92 482.97 943.22 483.83 943.53 484.70 C 941.47 483.99 939.64 482.79 937.83 481.63 C 936.23 481.82 934.64 482.04 933.06 482.29 C 932.46 481.68 931.90 481.07 931.33 480.47 C 929.43 481.86 927.54 483.79 924.99 483.57 C 923.10 483.90 922.20 482.00 921.15 480.85 C 917.10 475.91 913.13 470.73 907.99 466.88 C 907.59 467.12 906.77 467.59 906.37 467.82 C 885.91 450.12 859.29 441.30 832.86 437.56 C 821.71 435.57 810.35 435.38 799.05 435.33 C 744.70 434.97 690.35 435.14 635.99 435.08 C 543.32 435.17 450.67 434.92 358.01 434.93 C 351.38 434.99 342.90 433.66 338.57 440.00 C 338.16 439.74 337.34 439.22 336.93 438.96 C 332.03 447.04 334.65 456.76 333.83 465.64 C 333.00 464.88 332.28 464.03 331.46 463.28 C 331.03 464.27 330.59 465.26 330.15 466.26 C 329.75 466.48 328.96 466.92 328.56 467.14 C 328.61 466.13 328.67 465.13 328.73 464.13 C 327.21 464.87 325.71 465.62 324.20 466.38 C 322.92 465.68 321.64 464.98 320.37 464.28 C 320.37 465.25 320.37 466.24 320.38 467.22 C 316.76 465.86 313.60 463.35 309.53 463.62 C 307.70 465.29 305.51 467.47 302.83 466.13 C 299.85 464.77 296.64 465.10 293.51 465.59 C 292.18 462.95 289.62 464.60 287.43 464.39 C 287.84 465.18 288.24 465.99 288.65 466.80 C 288.25 467.14 287.46 467.82 287.06 468.17 C 286.73 467.37 286.41 466.57 286.08 465.78 C 285.34 465.67 284.61 465.56 283.88 465.47 C 283.10 464.57 282.55 463.01 281.11 463.23 C 279.61 463.89 278.24 464.78 276.82 465.60 C 275.54 465.18 274.27 464.73 272.98 464.34 C 271.79 464.79 270.64 465.32 269.46 465.77 C 269.24 465.20 268.81 464.05 268.59 463.48 C 267.57 464.64 266.52 465.78 265.43 466.88 C 264.78 466.06 264.13 465.26 263.49 464.46 C 262.83 465.41 262.56 467.25 261.00 467.01 C 258.17 467.17 257.30 464.20 256.31 462.17 C 255.88 463.00 255.56 463.89 255.12 464.74 C 253.62 464.24 252.15 463.52 250.56 463.47 C 249.23 464.74 248.76 466.63 247.87 468.21 C 247.71 466.13 247.29 464.06 245.30 463.01 C 244.54 463.57 243.79 464.15 243.04 464.73 C 242.63 464.45 241.81 463.90 241.40 463.62 C 240.21 464.22 239.15 465.60 237.70 465.21 C 235.18 464.73 232.52 465.40 230.18 464.08 C 231.06 465.30 231.92 466.53 232.77 467.78 C 232.46 468.01 231.84 468.46 231.53 468.69 C 230.15 466.99 229.28 464.47 226.94 463.93 C 226.61 464.80 226.29 465.70 225.96 466.58 C 223.66 465.98 221.37 464.15 218.96 465.37 C 215.04 464.44 210.42 463.50 207.20 466.62 C 205.91 465.89 204.62 465.16 203.34 464.43 C 202.58 465.20 201.82 465.98 201.06 466.77 C 199.82 466.26 198.80 465.46 198.06 464.35 C 197.20 464.76 196.29 465.04 195.32 464.96 C 194.87 465.60 194.44 466.26 194.02 466.93 C 191.98 465.59 189.82 464.03 187.23 464.69 C 187.23 421.13 187.25 377.56 187.21 333.99 C 188.49 333.44 189.76 331.64 191.29 332.56 C 193.08 333.50 194.93 334.76 196.81 333.20 C 197.91 333.75 198.98 334.35 200.12 334.81 C 202.13 334.80 201.36 332.42 201.72 331.12 C 202.85 331.95 204.01 332.75 205.16 333.56 C 207.60 332.65 210.10 331.89 212.67 331.42 C 213.54 332.83 214.43 334.24 215.32 335.65 C 215.81 334.81 216.30 333.98 216.80 333.16 C 217.44 333.52 218.07 333.89 218.72 334.26 C 220.60 332.89 222.61 333.33 224.27 334.79 C 224.38 334.38 224.62 333.56 224.73 333.14 C 226.52 333.68 228.31 334.23 230.11 334.77 C 230.41 333.45 230.62 332.12 230.76 330.78 C 233.08 330.96 234.31 332.98 235.59 334.64 C 235.80 334.12 236.23 333.08 236.44 332.56 C 237.41 332.42 238.38 332.30 239.36 332.17 C 239.34 332.94 239.32 333.72 239.31 334.50 C 243.99 332.52 249.99 335.69 253.73 331.33 C 253.70 332.64 253.61 333.95 253.60 335.27 C 254.31 334.38 254.85 333.37 255.57 332.49 C 256.89 333.02 258.11 334.06 259.58 334.12 C 261.58 333.71 263.62 332.79 265.66 333.56 C 269.09 334.62 272.80 334.19 276.14 335.58 C 276.41 334.44 276.56 333.28 276.82 332.15 C 278.48 332.83 280.17 333.45 281.90 333.98 C 284.14 332.18 286.79 332.74 289.20 333.83 C 289.35 333.36 289.66 332.42 289.82 331.95 C 291.01 332.81 292.20 333.68 293.40 334.55 C 294.60 333.75 295.80 332.94 297.01 332.14 C 297.96 332.48 298.92 332.83 299.88 333.17 C 298.67 333.80 297.30 334.47 297.01 335.95 C 300.46 336.52 302.30 333.36 304.04 331.01 C 304.79 331.90 305.60 332.75 306.37 333.64 C 307.51 333.52 308.65 333.37 309.80 333.27 C 310.22 333.52 311.06 334.01 311.48 334.26 C 312.29 333.67 313.12 333.09 313.94 332.52 C 317.18 332.86 319.77 336.77 323.12 335.02 C 325.68 333.90 328.32 332.43 331.22 332.85 C 333.18 332.94 334.15 334.88 335.28 336.19 C 335.47 334.82 335.72 333.47 335.99 332.11 C 336.59 332.96 337.22 333.80 337.80 334.68 C 339.06 333.50 340.32 332.33 341.56 331.14 C 341.65 332.33 341.69 333.53 341.79 334.73 C 342.55 334.29 343.31 333.85 344.08 333.43 C 348.05 334.85 352.54 334.56 356.20 332.41 C 357.22 332.71 358.24 333.02 359.27 333.34 C 360.16 333.03 361.05 332.72 361.94 332.42 C 362.63 332.80 363.32 333.18 364.01 333.56 C 364.76 333.04 365.51 332.52 366.27 332.01 C 367.71 332.84 369.14 333.70 370.56 334.58 C 373.09 334.39 375.39 333.16 375.40 330.29 C 376.56 334.38 381.25 333.56 384.54 333.60 C 384.59 332.70 384.65 331.79 384.72 330.90 C 386.21 332.46 387.58 334.14 388.90 335.85 C 389.17 334.75 389.35 333.62 389.46 332.49 C 390.65 332.48 391.84 332.49 393.04 332.48 C 392.47 333.24 391.91 333.99 391.35 334.76 C 391.74 334.83 392.51 334.96 392.90 335.02 C 393.51 334.20 393.96 333.28 394.57 332.45 C 395.89 336.39 401.04 336.33 403.15 333.07 C 403.64 333.98 404.13 334.90 404.63 335.81 C 404.81 334.37 405.01 332.92 405.21 331.48 C 405.51 331.63 406.11 331.93 406.41 332.07 C 406.77 331.95 407.48 331.72 407.84 331.60 C 408.19 332.97 408.44 334.37 408.55 335.78 C 410.08 333.23 413.26 333.35 415.54 331.86 C 417.82 332.67 420.20 333.29 422.64 333.37 C 424.48 332.80 426.18 331.84 427.99 331.14 C 427.47 332.41 426.94 333.66 426.41 334.92 C 428.52 334.58 430.66 334.70 432.76 335.09 C 434.82 335.61 436.53 334.02 438.23 333.14 C 439.13 334.45 440.03 335.77 440.93 337.09 C 442.27 335.35 443.51 333.34 445.65 332.50 C 445.85 333.03 446.25 334.09 446.45 334.62 C 447.80 333.60 449.10 332.48 450.63 331.70 C 452.89 331.81 455.05 332.62 457.11 333.51 C 460.64 331.38 463.38 335.91 466.94 335.97 C 465.97 334.58 464.53 333.66 463.16 332.73 C 463.62 331.57 464.35 330.57 465.31 329.77 C 465.34 330.55 465.37 331.34 465.41 332.13 C 467.61 333.51 470.16 335.78 472.90 334.49 C 474.61 332.31 477.54 333.51 479.66 334.31 C 480.40 333.22 481.14 332.12 481.89 331.04 C 482.92 332.16 483.96 333.28 485.00 334.40 C 486.53 333.83 488.11 332.80 489.80 333.32 C 491.67 333.65 493.51 335.06 495.43 334.20 C 498.99 332.79 502.86 333.44 506.47 334.32 C 508.01 333.28 509.66 331.41 511.73 332.27 C 513.32 332.66 513.75 334.42 514.58 335.62 C 516.46 333.09 520.31 333.58 521.61 330.39 C 522.30 331.94 522.81 333.76 524.41 334.64 C 525.04 333.86 525.67 333.08 526.30 332.30 C 527.30 333.03 528.43 334.86 529.82 333.89 C 531.56 332.47 533.74 332.78 535.71 333.46 C 536.49 332.71 537.27 331.96 538.06 331.21 C 539.41 331.97 540.77 332.74 542.14 333.50 C 542.51 333.24 543.24 332.72 543.61 332.46 C 543.98 334.05 544.41 335.68 545.43 337.00 C 545.74 335.78 546.05 334.57 546.35 333.36 C 547.91 333.16 549.40 333.60 550.76 334.37 C 551.14 333.48 551.53 332.60 551.93 331.72 C 552.40 332.57 552.88 333.42 553.37 334.27 C 556.29 333.97 559.26 333.72 562.03 332.61 C 562.53 334.04 563.16 335.51 564.80 335.91 C 565.89 335.08 566.99 334.25 568.11 333.45 C 568.92 333.76 569.74 334.07 570.57 334.38 C 571.02 333.58 571.48 332.78 571.96 331.99 C 572.63 332.95 573.30 333.92 573.99 334.89 C 575.25 334.02 576.51 333.14 577.79 332.29 C 578.16 333.12 578.53 333.94 578.92 334.78 C 583.52 333.07 588.65 334.12 593.48 334.12 C 595.65 333.05 597.87 330.88 600.36 332.61 C 601.17 331.96 601.89 331.19 602.72 330.54 C 605.06 332.29 607.66 333.70 610.54 334.32 C 611.13 333.69 611.73 333.08 612.33 332.46 C 613.73 333.14 615.09 333.91 616.58 334.38 C 617.94 334.01 619.31 333.33 620.67 334.15 C 624.12 335.71 627.70 333.19 631.24 333.92 C 632.27 334.22 633.24 333.78 634.23 333.49 C 635.13 333.90 636.05 334.32 636.97 334.76 C 638.03 333.98 639.10 333.20 640.18 332.43 C 642.69 334.18 645.60 334.96 648.58 333.87 C 648.27 333.46 647.63 332.64 647.32 332.22 C 649.78 332.11 652.29 332.10 654.71 332.70 C 655.23 333.64 655.76 334.58 656.30 335.53 C 657.30 334.77 658.29 334.00 659.30 333.25 C 660.39 333.27 661.50 333.29 662.61 333.32 C 662.95 332.65 663.30 331.97 663.67 331.31 C 663.81 331.83 664.08 332.86 664.22 333.38 C 664.68 333.15 665.16 332.93 665.64 332.71 C 666.04 333.42 666.45 334.15 666.87 334.87 C 670.49 332.73 675.27 332.66 678.97 334.64 C 681.15 331.86 684.32 333.42 687.24 332.93 C 691.61 333.98 696.16 333.79 700.56 334.82 C 700.74 334.25 701.11 333.11 701.29 332.55 C 701.70 332.76 702.13 332.97 702.57 333.19 C 703.01 332.97 703.90 332.53 704.34 332.32 C 707.95 334.21 712.13 332.99 715.89 334.28 C 716.53 333.64 717.18 333.00 717.84 332.36 C 721.40 332.22 724.95 333.64 728.47 332.53 C 728.17 333.28 727.88 334.04 727.60 334.81 C 727.75 335.09 728.04 335.64 728.19 335.92 C 729.61 334.86 730.97 333.71 732.48 332.76 C 734.52 332.98 736.40 334.57 738.52 334.00 C 740.48 333.48 742.37 332.73 744.31 332.11 C 744.48 333.25 744.54 334.40 744.74 335.54 C 746.80 334.82 748.98 334.20 750.60 332.62 C 751.28 333.39 751.96 334.18 752.75 334.88 C 753.57 334.35 754.39 333.77 755.21 333.20 C 755.48 333.87 755.78 334.54 756.09 335.20 C 756.49 334.33 756.89 333.45 757.31 332.59 C 758.40 333.19 759.45 333.84 760.56 334.45 C 762.99 333.44 765.50 333.43 768.01 333.94 C 772.17 331.75 776.74 333.31 781.15 332.39 C 782.01 332.82 782.67 333.56 783.45 334.13 C 784.18 334.08 784.92 334.08 785.66 334.19 C 786.22 333.57 786.79 332.96 787.37 332.35 C 789.19 333.52 791.04 334.66 792.92 335.76 C 796.44 334.81 800.16 332.78 803.80 334.50 C 804.41 333.80 805.05 333.11 805.68 332.41 C 805.85 333.01 806.18 334.20 806.34 334.80 C 807.15 333.94 808.06 333.18 808.88 332.33 C 809.68 332.90 810.40 333.58 811.23 334.15 C 812.69 333.72 814.10 334.20 815.44 334.79 C 815.49 333.55 815.56 332.31 815.67 331.09 C 816.55 331.49 817.43 331.90 818.33 332.31 C 819.07 332.10 819.83 331.88 820.60 331.68 C 820.99 332.57 821.38 333.47 821.79 334.38 C 822.49 334.14 823.18 333.89 823.90 333.65 C 824.44 334.26 825.01 334.89 825.59 335.52 C 826.09 334.86 826.61 334.20 827.14 333.56 C 827.87 334.01 828.62 334.47 829.38 334.94 C 829.62 333.58 828.93 331.40 830.37 330.65 C 832.47 331.07 834.57 331.65 836.74 331.32 C 836.09 332.32 835.45 333.32 834.84 334.34 C 837.58 336.35 839.71 333.27 841.50 331.55 C 842.31 333.27 844.68 335.72 846.53 333.93 C 846.20 332.96 845.78 332.02 845.40 331.08 C 846.53 330.82 847.69 330.57 848.85 330.31 C 848.60 331.33 848.37 332.34 848.14 333.36 C 850.51 334.04 852.87 333.36 855.22 332.94 C 857.47 333.09 859.62 333.87 861.81 334.37 C 862.52 333.66 863.23 332.94 863.96 332.24 C 864.79 332.58 865.65 332.94 866.52 333.30 C 867.25 333.04 868.00 332.79 868.76 332.55 C 869.44 333.23 870.14 333.92 870.85 334.62 C 871.20 333.35 871.58 332.10 871.91 330.83 C 872.73 331.77 873.03 333.85 874.63 333.69 C 876.42 333.44 878.24 332.42 880.03 333.36 C 881.90 332.12 884.04 332.02 886.11 332.83 C 889.67 334.12 893.70 332.53 897.04 334.68 C 898.07 334.18 899.10 333.67 900.15 333.17 C 902.16 333.57 904.17 334.02 906.19 334.49 C 906.86 333.88 907.53 333.27 908.22 332.67 C 908.82 332.98 909.42 333.29 910.05 333.61 C 911.24 333.20 912.38 332.18 913.71 332.36 C 915.77 333.33 917.47 334.90 919.28 336.27 C 920.20 335.32 921.08 334.32 921.96 333.31 C 925.03 335.52 928.43 333.71 931.73 333.32 C 931.58 334.54 931.43 335.75 931.34 336.98 C 933.60 335.22 932.69 331.96 933.83 329.57 C 934.48 330.90 935.10 332.26 935.70 333.62 C 936.72 333.49 937.75 333.37 938.80 333.25 C 939.57 333.72 940.35 334.19 941.15 334.66 C 943.31 334.07 945.62 333.01 947.81 334.14 C 949.84 335.16 952.02 334.40 953.88 333.37 C 954.32 333.83 954.79 334.32 955.31 334.75 C 955.66 334.11 956.36 332.82 956.71 332.18 C 957.96 333.43 957.98 335.29 958.45 336.91 C 958.72 335.74 959.00 334.58 959.30 333.42 C 961.04 333.48 962.74 333.87 964.46 334.12 C 965.58 333.59 966.61 332.86 967.67 332.19 C 967.82 332.80 968.11 334.02 968.26 334.63 C 968.88 333.97 969.51 333.31 970.17 332.66 C 973.75 333.23 977.59 334.28 980.98 332.39 C 981.63 332.78 982.29 333.17 982.96 333.57 C 983.97 332.78 985.04 332.02 986.19 331.43 C 986.59 332.48 987.00 333.53 987.43 334.59 C 988.52 333.86 989.50 332.84 990.80 332.48 C 992.94 333.07 994.89 334.19 996.95 335.03 C 999.56 333.14 1002.72 333.24 1005.74 333.76 C 1008.29 334.46 1010.84 331.87 1013.20 333.48 C 1014.97 334.63 1016.91 335.04 1018.75 333.74 C 1019.50 334.00 1020.27 334.26 1021.05 334.53 C 1021.22 332.99 1021.40 331.45 1021.64 329.92 C 1022.58 331.41 1023.12 333.08 1023.60 334.77 C 1023.94 334.82 1024.63 334.90 1024.98 334.94 C 1025.63 334.09 1025.91 332.60 1027.16 332.42 C 1028.52 332.76 1029.52 333.90 1030.67 334.68 C 1030.62 333.77 1030.58 332.85 1030.56 331.94 C 1031.56 332.36 1032.57 332.79 1033.60 333.22 C 1033.95 332.97 1034.67 332.47 1035.03 332.22 C 1036.18 333.33 1037.33 335.19 1039.22 334.48 C 1042.01 333.71 1044.93 334.16 1047.72 333.41 C 1048.44 333.67 1049.17 333.96 1049.89 334.29 C 1050.63 334.08 1051.38 333.87 1052.14 333.67 C 1052.76 333.98 1053.39 334.30 1054.04 334.62 C 1056.07 333.60 1057.94 332.29 1060.05 331.41 C 1062.56 333.12 1065.86 335.58 1068.96 333.92 C 1070.89 332.49 1072.93 334.10 1074.87 334.67 C 1076.15 334.07 1077.54 333.71 1078.94 334.21 C 1079.47 333.66 1080.04 333.11 1080.61 332.57 C 1081.20 333.34 1081.80 334.11 1082.41 334.89 C 1084.71 332.97 1086.01 330.00 1086.04 327.03 C 1086.19 321.26 1085.30 315.41 1086.65 309.73 Z" />
</g>
<g id="#fefefeff">
<path fill="#fefefe" opacity="1.00" d=" M 338.57 440.00 C 342.90 433.66 351.38 434.99 358.01 434.93 C 450.67 434.92 543.32 435.17 635.99 435.08 C 690.35 435.14 744.70 434.97 799.05 435.33 C 810.35 435.38 821.71 435.57 832.86 437.56 C 859.29 441.30 885.91 450.12 906.37 467.82 C 915.79 475.83 923.43 485.82 929.23 496.70 C 936.26 510.47 940.05 525.69 941.79 540.99 C 942.46 550.86 942.21 560.77 942.03 570.65 C 941.80 578.41 940.21 586.05 938.39 593.58 C 934.40 611.18 926.07 628.14 913.23 640.98 C 931.86 659.35 939.96 685.70 942.12 711.21 C 942.19 724.12 942.98 737.17 940.54 749.93 C 937.08 771.58 928.00 792.74 912.39 808.41 C 895.36 825.94 872.18 836.17 848.61 841.44 C 837.20 844.17 825.47 845.22 813.82 846.38 C 786.54 847.13 759.25 846.72 731.97 846.86 C 604.30 846.81 476.67 847.15 349.00 847.12 C 342.74 847.21 336.65 842.34 336.29 835.91 C 336.17 817.60 336.31 799.29 336.21 780.98 C 336.18 779.21 336.35 777.45 336.77 775.74 C 338.49 771.78 341.85 768.42 346.22 767.64 C 495.46 767.19 644.72 767.73 793.96 767.18 C 801.40 767.23 808.78 765.73 815.68 762.96 C 825.64 759.18 831.67 749.05 833.55 738.97 C 835.47 728.08 835.47 716.73 832.71 705.99 C 830.49 697.90 825.65 689.99 817.91 686.22 C 811.10 682.95 803.57 680.85 795.98 681.07 C 755.31 681.21 714.67 680.91 674.00 680.90 C 565.33 680.90 456.66 680.82 347.99 680.78 C 341.90 680.64 336.41 675.18 336.26 669.07 C 336.20 650.72 336.28 632.36 336.22 614.00 C 336.07 611.88 336.74 609.85 337.58 607.94 C 339.63 603.78 344.35 600.97 348.99 601.14 C 453.99 601.09 558.99 601.17 663.99 600.91 C 708.00 600.89 752.00 600.97 796.01 600.71 C 806.92 600.66 818.72 597.65 826.10 589.09 C 833.48 580.20 834.93 568.14 834.86 556.98 C 834.79 546.18 832.99 534.63 825.83 526.10 C 818.56 518.10 807.37 515.25 796.94 514.80 C 788.45 514.76 779.96 514.57 771.47 514.71 C 629.94 514.51 488.42 514.58 346.89 514.44 C 341.36 513.32 336.46 508.83 336.26 502.96 C 336.20 484.30 336.24 465.64 336.24 446.99 C 336.09 444.43 337.14 442.05 338.57 440.00 Z" />
</g>
<g id="#6953c7ff">
<path fill="#6953c7" opacity="1.00" d=" M 336.93 438.96 C 337.34 439.22 338.16 439.74 338.57 440.00 C 337.14 442.05 336.09 444.43 336.24 446.99 C 336.24 465.64 336.20 484.30 336.26 502.96 C 336.46 508.83 341.36 513.32 346.89 514.44 C 346.74 514.78 346.45 515.45 346.30 515.79 C 484.19 515.87 622.09 515.91 759.98 515.75 C 763.81 515.59 767.88 516.43 771.47 514.71 C 779.96 514.57 788.45 514.76 796.94 514.80 C 807.37 515.25 818.56 518.10 825.83 526.10 C 832.99 534.63 834.79 546.18 834.86 556.98 C 834.93 568.14 833.48 580.20 826.10 589.09 C 818.72 597.65 806.92 600.66 796.01 600.71 C 752.00 600.97 708.00 600.89 663.99 600.91 C 558.99 601.17 453.99 601.09 348.99 601.14 C 344.35 600.97 339.63 603.78 337.58 607.94 C 337.20 607.71 336.45 607.25 336.07 607.03 C 334.77 609.83 333.90 612.86 333.90 615.98 C 333.85 626.95 333.98 637.92 333.77 648.89 C 332.24 647.54 331.04 645.23 328.72 645.40 C 328.21 647.04 327.64 648.67 327.04 650.30 C 326.62 648.96 326.79 647.25 325.68 646.28 C 323.06 645.24 321.35 650.18 318.89 648.33 C 319.47 647.53 320.06 646.73 320.65 645.95 C 318.26 644.98 315.89 645.36 314.51 647.71 C 313.85 646.98 313.18 646.25 312.52 645.54 C 311.88 646.24 311.25 646.94 310.57 647.62 C 309.46 647.28 309.56 645.85 309.09 645.00 C 307.10 645.98 305.25 648.35 302.80 647.39 C 300.96 647.24 300.06 645.61 299.15 644.27 C 298.57 645.38 298.39 646.63 298.23 647.87 C 294.49 647.13 290.70 645.21 286.86 646.57 C 287.46 647.39 288.06 648.21 288.66 649.04 C 287.51 649.02 286.36 649.01 285.21 649.00 C 284.20 648.02 283.27 646.93 282.07 646.20 C 280.23 646.23 278.55 647.10 278.03 648.95 C 277.07 648.08 276.12 647.22 275.15 646.38 C 272.24 647.66 269.27 646.40 266.41 645.68 C 264.23 644.91 262.88 647.17 261.45 648.38 C 260.52 647.79 259.59 647.19 258.66 646.62 C 257.88 646.87 257.11 647.13 256.34 647.40 C 254.56 645.04 251.47 645.36 248.86 645.33 C 247.29 645.02 246.94 646.87 246.12 647.79 C 244.94 647.15 243.71 645.74 242.28 646.57 C 239.97 647.81 237.47 646.57 235.03 646.70 C 233.46 646.93 233.66 644.92 233.17 644.00 C 232.40 644.97 231.63 645.95 230.85 646.93 C 227.53 645.96 224.20 646.77 220.94 647.26 C 218.36 645.53 215.93 648.03 213.43 648.70 C 213.27 648.23 212.94 647.29 212.78 646.82 C 210.86 646.86 208.91 647.26 207.02 646.88 C 203.49 645.59 198.98 647.92 196.36 644.35 C 195.79 644.96 195.23 645.60 194.66 646.23 C 192.19 645.48 189.75 647.08 187.23 646.81 C 187.25 586.10 187.22 525.40 187.23 464.69 C 189.82 464.03 191.98 465.59 194.02 466.93 C 194.44 466.26 194.87 465.60 195.32 464.96 C 196.29 465.04 197.20 464.76 198.06 464.35 C 198.80 465.46 199.82 466.26 201.06 466.77 C 201.82 465.98 202.58 465.20 203.34 464.43 C 204.62 465.16 205.91 465.89 207.20 466.62 C 210.42 463.50 215.04 464.44 218.96 465.37 C 221.37 464.15 223.66 465.98 225.96 466.58 C 226.29 465.70 226.61 464.80 226.94 463.93 C 229.28 464.47 230.15 466.99 231.53 468.69 C 231.84 468.46 232.46 468.01 232.77 467.78 C 231.92 466.53 231.06 465.30 230.18 464.08 C 232.52 465.40 235.18 464.73 237.70 465.21 C 239.15 465.60 240.21 464.22 241.40 463.62 C 241.81 463.90 242.63 464.45 243.04 464.73 C 243.79 464.15 244.54 463.57 245.30 463.01 C 247.29 464.06 247.71 466.13 247.87 468.21 C 248.76 466.63 249.23 464.74 250.56 463.47 C 252.15 463.52 253.62 464.24 255.12 464.74 C 255.56 463.89 255.88 463.00 256.31 462.17 C 257.30 464.20 258.17 467.17 261.00 467.01 C 262.56 467.25 262.83 465.41 263.49 464.46 C 264.13 465.26 264.78 466.06 265.43 466.88 C 266.52 465.78 267.57 464.64 268.59 463.48 C 268.81 464.05 269.24 465.20 269.46 465.77 C 270.64 465.32 271.79 464.79 272.98 464.34 C 274.27 464.73 275.54 465.18 276.82 465.60 C 278.24 464.78 279.61 463.89 281.11 463.23 C 282.55 463.01 283.10 464.57 283.88 465.47 C 284.61 465.56 285.34 465.67 286.08 465.78 C 286.41 466.57 286.73 467.37 287.06 468.17 C 287.46 467.82 288.25 467.14 288.65 466.80 C 288.24 465.99 287.84 465.18 287.43 464.39 C 289.62 464.60 292.18 462.95 293.51 465.59 C 296.64 465.10 299.85 464.77 302.83 466.13 C 305.51 467.47 307.70 465.29 309.53 463.62 C 313.60 463.35 316.76 465.86 320.38 467.22 C 320.37 466.24 320.37 465.25 320.37 464.28 C 321.64 464.98 322.92 465.68 324.20 466.38 C 325.71 465.62 327.21 464.87 328.73 464.13 C 328.67 465.13 328.61 466.13 328.56 467.14 C 328.96 466.92 329.75 466.48 330.15 466.26 C 330.59 465.26 331.03 464.27 331.46 463.28 C 332.28 464.03 333.00 464.88 333.83 465.64 C 334.65 456.76 332.03 447.04 336.93 438.96 Z" />
</g>
<g id="#6b55c7ff">
<path fill="#6b55c7" opacity="1.00" d=" M 906.37 467.82 C 906.77 467.59 907.59 467.12 907.99 466.88 C 913.13 470.73 917.10 475.91 921.15 480.85 C 922.20 482.00 923.10 483.90 924.99 483.57 C 927.54 483.79 929.43 481.86 931.33 480.47 C 931.90 481.07 932.46 481.68 933.06 482.29 C 934.64 482.04 936.23 481.82 937.83 481.63 C 939.64 482.79 941.47 483.99 943.53 484.70 C 943.22 483.83 942.92 482.97 942.61 482.11 C 945.06 481.25 947.70 481.47 950.27 481.33 C 950.64 482.52 950.94 483.73 951.33 484.93 C 953.19 484.08 954.79 482.78 956.41 481.54 C 957.53 482.76 958.69 483.95 959.89 485.11 C 961.58 483.92 963.29 482.75 965.03 481.62 C 967.19 482.80 969.63 483.04 971.84 481.82 C 973.95 480.46 975.49 482.93 977.24 483.79 C 978.26 482.64 976.54 481.13 976.38 479.86 C 978.27 479.81 979.05 481.67 980.10 482.92 C 982.07 482.32 984.08 481.12 986.22 481.53 C 987.49 482.11 988.61 482.98 989.89 483.60 C 991.58 483.47 992.91 482.11 994.54 481.67 C 995.80 482.19 996.86 483.10 998.01 483.86 C 998.77 482.99 999.53 482.11 1000.31 481.25 C 1000.69 482.04 1001.09 482.84 1001.49 483.65 C 1004.49 482.29 1008.13 479.40 1011.01 482.58 C 1011.37 482.37 1012.10 481.96 1012.46 481.76 C 1012.99 482.14 1013.54 482.52 1014.11 482.90 C 1017.04 485.37 1019.67 481.03 1022.49 480.32 C 1024.62 483.27 1028.55 482.77 1031.50 484.37 C 1032.07 483.37 1032.58 482.34 1033.18 481.36 C 1035.62 481.72 1038.18 481.94 1040.40 480.60 C 1041.95 482.07 1043.52 483.54 1045.09 485.02 C 1047.58 483.51 1049.72 481.51 1052.05 479.77 C 1052.24 480.85 1052.43 481.92 1052.65 483.01 C 1053.59 482.58 1054.54 482.16 1055.51 481.75 C 1056.46 484.00 1058.88 484.42 1061.03 484.83 C 1062.08 483.65 1063.14 482.48 1064.22 481.32 C 1065.91 482.07 1067.57 482.92 1069.18 483.88 C 1069.50 482.11 1071.08 480.42 1073.01 480.75 C 1074.48 481.24 1075.80 482.14 1077.18 482.89 C 1078.01 482.07 1078.87 481.27 1079.73 480.45 C 1080.06 481.44 1080.41 482.45 1080.76 483.45 C 1082.28 483.49 1083.81 483.47 1085.34 483.36 C 1085.73 481.07 1086.29 478.82 1086.87 476.57 C 1087.01 533.16 1086.98 589.76 1086.87 646.35 C 1085.41 641.68 1086.19 636.78 1086.05 632.00 C 1085.91 615.19 1086.06 598.39 1085.88 581.58 C 1084.00 582.18 1082.02 581.83 1080.13 582.23 C 1079.56 581.24 1079.04 580.27 1078.51 579.29 C 1078.09 580.13 1077.69 580.98 1077.31 581.83 C 1076.28 580.29 1075.20 578.75 1073.64 577.73 C 1073.61 578.80 1073.59 579.87 1073.59 580.95 C 1071.88 580.77 1070.27 580.21 1068.84 579.30 C 1068.10 579.98 1067.39 580.67 1066.69 581.38 C 1062.04 582.27 1057.33 581.17 1053.72 578.06 C 1053.51 579.19 1053.29 580.32 1053.14 581.47 C 1050.47 579.82 1047.64 581.50 1045.11 582.56 C 1044.69 581.59 1044.29 580.62 1043.91 579.65 C 1042.40 579.89 1040.84 580.22 1039.35 579.77 C 1038.63 581.03 1037.84 582.31 1036.41 582.83 C 1035.86 582.18 1035.32 581.54 1034.80 580.91 C 1032.24 581.75 1029.86 580.53 1027.79 579.09 C 1027.38 579.84 1027.00 580.60 1026.65 581.37 C 1022.35 580.17 1017.83 580.90 1013.45 580.32 C 1013.42 581.28 1013.41 582.25 1013.40 583.23 C 1011.79 582.57 1010.52 581.40 1009.30 580.23 C 1008.63 580.61 1007.97 580.99 1007.33 581.38 C 1006.47 580.32 1005.62 579.26 1004.78 578.21 C 1003.32 579.18 1001.90 580.18 1000.48 581.18 C 998.71 580.49 996.95 581.14 995.29 581.77 C 994.10 580.89 992.94 580.00 991.79 579.11 C 989.52 579.62 988.32 581.50 987.47 583.50 C 985.51 582.61 983.58 580.48 981.29 581.34 C 978.76 582.47 975.96 581.45 973.46 582.78 C 973.27 582.20 972.89 581.03 972.70 580.45 C 972.16 580.84 971.64 581.23 971.13 581.63 C 970.80 580.86 970.47 580.11 970.17 579.36 C 968.67 580.48 966.95 580.07 965.33 579.56 C 964.24 580.29 963.19 581.07 962.13 581.83 C 960.47 581.33 958.82 580.84 957.17 580.41 C 954.65 582.69 951.99 579.80 949.31 579.68 C 948.15 580.13 947.30 581.07 946.34 581.81 C 946.06 580.60 945.82 579.41 945.56 578.22 C 945.03 579.17 944.50 580.13 943.96 581.08 C 943.20 577.55 944.65 573.68 942.03 570.65 C 942.21 560.77 942.46 550.86 941.79 540.99 C 940.05 525.69 936.26 510.47 929.23 496.70 C 923.43 485.82 915.79 475.83 906.37 467.82 Z" />
</g>
<g id="#5137c8ff">
<path fill="#5137c8" opacity="1.00" d=" M 346.89 514.44 C 488.42 514.58 629.94 514.51 771.47 514.71 C 767.88 516.43 763.81 515.59 759.98 515.75 C 622.09 515.91 484.19 515.87 346.30 515.79 C 346.45 515.45 346.74 514.78 346.89 514.44 Z" />
<path fill="#5137c8" opacity="1.00" d=" M 813.20 944.89 C 813.58 946.48 813.56 948.20 814.36 949.68 C 816.51 951.11 817.35 947.01 819.43 947.50 C 821.68 947.71 822.41 950.07 823.47 951.70 C 824.05 951.01 824.65 950.34 825.25 949.67 C 824.97 948.81 824.59 948.03 824.82 947.13 C 826.81 947.81 828.78 950.48 830.95 949.39 C 830.29 948.37 829.64 947.39 828.99 946.40 C 829.84 946.44 830.72 946.50 831.59 946.56 C 831.84 947.61 832.11 948.67 832.38 949.74 C 833.47 949.47 834.54 949.13 835.59 948.73 C 836.06 949.56 836.52 950.40 837.01 951.27 C 837.55 950.17 838.11 949.09 838.67 948.02 C 839.26 949.18 839.79 950.37 840.37 951.57 C 841.60 949.36 843.53 947.71 845.67 946.43 C 846.06 947.42 846.48 948.44 846.90 949.47 C 850.36 947.33 855.25 951.81 857.46 947.49 C 858.12 948.69 858.82 949.90 859.58 951.08 C 859.58 950.07 859.59 949.08 859.61 948.10 C 860.15 947.83 860.71 947.58 861.30 947.36 C 862.49 948.99 863.82 950.52 865.21 952.01 C 865.49 950.79 865.19 949.09 866.63 948.54 C 869.33 948.34 872.09 948.63 874.69 947.59 C 875.28 947.85 875.89 948.12 876.51 948.41 C 877.07 947.48 877.56 946.46 878.52 945.88 C 878.55 946.81 878.59 947.76 878.63 948.72 C 881.02 948.59 884.08 947.72 884.93 950.80 C 886.92 949.63 889.15 948.93 891.46 949.43 C 891.73 949.99 892.28 951.12 892.55 951.68 C 893.60 950.30 894.52 948.84 895.25 947.28 C 895.97 948.54 896.75 949.80 897.57 951.04 C 897.55 950.15 897.55 949.28 897.56 948.43 C 900.18 947.74 902.91 947.71 905.43 948.82 C 908.42 950.34 911.44 947.01 914.38 948.67 C 915.68 949.62 917.04 948.66 918.33 948.23 C 918.62 949.42 918.91 950.60 919.22 951.80 C 920.29 950.72 921.38 949.65 922.47 948.60 C 923.38 949.29 924.29 950.02 925.22 950.75 C 926.76 949.81 928.21 948.73 929.62 947.60 C 930.12 948.15 930.64 948.71 931.17 949.28 C 932.88 949.35 934.56 949.75 936.15 950.43 C 938.62 949.03 941.39 949.45 944.06 949.90 C 944.24 949.51 944.58 948.72 944.76 948.33 C 947.69 949.42 950.99 951.19 954.03 949.39 C 955.23 950.29 956.49 951.15 957.83 951.89 C 957.36 950.71 956.89 949.56 956.46 948.39 C 958.23 948.74 959.40 950.22 960.79 951.27 C 961.44 950.27 962.12 949.29 962.80 948.31 C 964.00 949.25 965.40 949.23 966.77 948.71 C 968.08 950.13 969.41 951.55 970.77 952.94 C 970.68 951.71 970.61 950.50 970.55 949.30 C 972.39 949.68 974.20 949.27 975.90 948.52 C 977.16 949.20 978.43 949.92 979.71 950.64 C 979.89 949.61 980.08 948.59 980.29 947.58 C 981.94 947.49 983.60 947.53 985.27 947.71 C 985.28 948.78 985.45 949.83 985.50 950.93 C 986.69 950.73 988.13 950.99 989.10 950.08 C 989.72 948.99 988.60 947.84 988.46 946.78 C 989.97 947.65 991.49 948.55 992.98 949.49 C 993.72 949.44 994.46 949.40 995.23 949.37 C 995.40 949.74 995.73 950.47 995.90 950.84 C 997.39 949.74 998.90 948.65 1000.41 947.57 C 1001.95 949.09 1003.42 951.23 1005.83 951.28 C 1007.78 951.63 1009.42 950.24 1011.08 949.43 C 1011.84 949.73 1012.62 950.05 1013.41 950.39 C 1014.43 949.29 1015.47 948.21 1016.52 947.13 C 1016.70 947.74 1017.08 948.95 1017.27 949.56 C 1017.77 949.18 1018.30 948.82 1018.84 948.47 C 1022.44 949.77 1028.15 952.06 1029.97 947.07 C 1030.63 948.01 1031.29 948.95 1031.98 949.91 C 1033.20 948.74 1034.44 947.58 1035.69 946.42 C 1036.30 947.55 1036.91 948.72 1037.56 949.87 C 1037.73 949.26 1038.09 948.02 1038.27 947.40 C 1039.28 948.41 1040.37 949.37 1041.54 950.24 C 1041.28 948.44 1039.45 946.08 1041.74 944.97 C 1042.44 946.57 1042.63 948.83 1044.63 949.41 C 1046.18 950.44 1047.73 949.22 1049.11 948.51 C 1050.07 949.26 1051.01 950.06 1052.00 950.85 C 1052.30 950.27 1052.62 949.71 1052.95 949.17 C 1054.61 949.22 1056.25 949.59 1057.77 950.27 C 1058.24 949.61 1058.71 948.97 1059.21 948.35 C 1060.19 949.32 1061.17 950.31 1062.18 951.30 C 1063.06 950.05 1063.85 948.75 1064.60 947.43 C 1065.73 948.57 1066.89 949.68 1068.08 950.78 C 1068.97 949.88 1069.86 948.99 1070.77 948.12 C 1071.89 948.81 1073.04 949.50 1074.23 950.13 C 1074.59 948.51 1074.86 946.88 1075.23 945.28 C 1076.76 947.33 1078.31 949.40 1080.38 950.96 C 1080.48 950.03 1080.56 949.10 1080.68 948.20 C 1081.91 948.34 1083.16 948.51 1084.41 948.67 C 1087.23 954.56 1085.03 961.19 1086.68 967.30 C 1083.44 1004.85 1063.07 1040.42 1032.49 1062.41 C 1009.17 1079.62 979.99 1088.73 951.00 1087.95 C 747.66 1087.95 544.32 1087.95 340.98 1087.95 C 330.64 1087.83 320.28 1088.22 309.95 1087.64 C 286.66 1085.64 263.80 1077.73 244.67 1064.24 C 225.11 1050.81 209.39 1031.95 199.46 1010.42 C 190.71 991.51 186.71 970.52 187.21 949.71 C 188.63 950.27 190.08 950.84 191.55 951.32 C 192.66 950.02 193.74 948.64 195.36 948.00 C 195.60 948.64 196.07 949.94 196.30 950.59 C 197.57 949.58 198.68 948.24 200.21 947.65 C 201.86 947.91 203.52 949.15 205.20 948.30 C 207.13 947.87 209.04 945.89 211.05 947.01 C 209.41 948.21 207.68 949.26 205.96 950.34 C 208.54 951.43 211.78 950.73 212.52 947.71 C 214.45 948.46 216.62 950.28 218.58 948.59 C 220.54 947.08 223.52 948.25 224.54 950.33 C 225.15 949.68 225.76 949.05 226.38 948.43 C 227.09 949.17 227.80 949.95 228.51 950.72 C 228.98 949.82 229.45 948.93 229.92 948.05 C 230.71 948.71 231.49 949.38 232.29 950.07 C 232.40 949.10 232.52 948.14 232.64 947.21 C 235.20 948.75 238.11 949.49 241.09 948.96 C 243.11 948.50 244.52 950.86 246.50 950.32 C 248.23 949.72 250.02 949.41 251.85 949.61 C 252.60 949.17 253.35 948.74 254.10 948.33 C 255.03 948.76 255.96 949.21 256.90 949.67 C 259.92 947.87 263.43 948.84 266.74 948.63 C 266.65 949.43 266.56 950.25 266.48 951.08 C 267.54 950.67 268.61 950.29 269.68 949.91 C 269.12 949.21 268.57 948.52 268.02 947.85 C 269.30 947.80 270.54 947.53 270.96 946.13 C 271.42 946.11 272.35 946.07 272.81 946.05 C 272.12 948.07 271.34 950.06 270.33 951.95 C 272.16 950.73 274.38 950.70 276.50 950.65 C 276.81 949.55 277.13 948.47 277.45 947.40 C 280.30 947.08 282.58 948.85 285.03 949.96 C 287.97 949.54 289.73 946.60 292.57 945.77 C 292.19 946.41 291.81 947.05 291.43 947.71 C 292.30 947.93 293.19 948.17 294.07 948.43 C 294.52 949.18 294.96 949.96 295.41 950.74 C 296.17 949.72 296.94 948.71 297.69 947.71 C 299.66 947.79 301.27 949.02 303.14 949.47 C 305.23 950.02 307.16 948.74 309.08 948.13 C 309.61 948.91 310.15 949.71 310.69 950.51 C 315.14 948.12 320.45 947.33 325.38 948.51 C 325.63 948.98 326.14 949.90 326.39 950.37 C 328.18 949.85 329.52 948.50 330.92 947.34 C 331.15 948.82 331.40 950.32 331.65 951.81 C 332.96 951.17 334.25 950.47 335.49 949.72 C 334.99 948.83 334.48 947.95 333.99 947.08 C 335.37 947.86 336.70 948.73 338.01 949.66 C 340.52 948.19 343.45 948.42 346.24 948.48 C 346.38 948.79 346.65 949.43 346.79 949.74 C 349.06 948.45 351.76 949.60 353.92 948.07 C 355.45 949.07 356.97 950.09 358.50 951.09 C 358.42 950.25 358.34 949.42 358.27 948.60 C 359.96 948.73 361.59 948.36 363.07 947.53 C 365.40 948.11 368.55 948.06 369.08 951.02 C 369.56 950.15 370.04 949.29 370.53 948.45 C 372.19 949.54 373.96 950.49 375.86 951.13 C 376.99 949.78 378.14 948.46 379.29 947.14 C 381.14 947.73 382.05 949.49 383.04 951.03 C 384.02 950.12 385.00 949.22 386.00 948.36 C 388.52 949.16 391.16 949.49 393.69 950.28 C 396.32 947.14 400.23 948.57 403.47 949.66 C 403.74 949.10 404.28 947.99 404.55 947.43 C 406.13 948.11 407.68 948.91 409.35 949.40 C 411.13 949.18 412.78 948.43 414.47 947.87 C 413.82 949.17 413.25 950.61 414.46 951.80 C 415.47 950.30 416.46 948.79 417.44 947.28 C 418.11 947.93 418.79 948.58 419.47 949.25 C 420.97 947.66 422.02 950.12 423.18 950.85 C 423.85 950.89 425.17 950.96 425.83 951.00 C 424.92 950.14 424.07 949.25 423.15 948.43 C 425.02 948.36 426.86 948.03 428.67 947.55 C 429.46 948.26 430.25 948.99 431.05 949.73 C 432.90 949.74 434.76 949.87 436.58 950.25 C 436.80 949.82 437.24 948.95 437.46 948.52 C 440.12 948.87 442.70 948.18 445.28 947.71 C 448.38 948.27 451.42 950.56 454.57 948.75 C 455.02 948.89 455.92 949.17 456.36 949.31 C 457.57 948.51 458.78 947.72 460.00 946.95 C 461.04 947.75 462.08 948.57 463.14 949.38 C 465.09 947.69 467.32 947.78 469.06 949.75 C 469.86 948.94 470.68 948.14 471.50 947.35 C 472.31 948.59 472.95 950.01 474.11 951.00 C 476.06 951.70 476.88 949.79 477.74 948.48 C 478.15 948.76 478.97 949.33 479.37 949.61 C 479.82 948.80 480.28 948.00 480.74 947.22 C 480.91 948.35 481.07 949.50 481.24 950.65 C 482.26 949.57 483.30 948.48 484.68 947.87 C 484.57 949.23 484.46 950.60 484.34 951.98 C 485.72 950.95 487.05 949.84 488.32 948.68 C 491.38 950.85 494.97 948.54 498.29 948.50 C 500.98 948.02 503.49 949.34 506.11 949.50 C 506.78 948.81 507.36 948.05 507.99 947.34 C 510.69 948.29 513.39 949.34 516.25 949.74 C 518.80 950.21 521.03 947.12 523.51 948.57 C 526.47 950.31 529.80 947.98 532.89 949.15 C 536.15 950.30 539.71 948.42 542.86 950.15 C 544.69 951.31 546.26 949.52 547.88 948.85 C 551.85 947.02 556.06 948.63 560.16 948.69 C 560.41 949.47 560.67 950.27 560.93 951.08 C 561.66 950.19 562.40 949.31 563.14 948.45 C 564.21 949.16 565.28 949.89 566.36 950.62 C 567.10 949.79 567.87 948.98 568.63 948.17 C 568.84 949.26 569.06 950.37 569.30 951.49 C 571.91 950.54 574.07 948.23 576.93 948.17 C 577.96 947.83 578.93 949.24 579.65 949.02 C 581.61 948.46 583.75 948.77 585.58 947.73 C 586.51 948.60 587.42 949.52 588.45 950.32 C 590.79 948.72 593.68 948.66 596.15 947.38 C 598.22 950.66 602.41 950.66 605.39 948.62 C 606.13 949.32 606.87 950.05 607.62 950.78 C 607.62 949.94 607.62 949.12 607.64 948.32 C 608.64 948.39 609.64 948.47 610.66 948.56 C 611.32 947.81 611.99 947.07 612.66 946.35 C 612.82 946.89 613.12 947.99 613.27 948.54 C 614.11 948.18 614.96 947.84 615.83 947.51 C 616.75 948.50 617.69 949.50 618.63 950.50 C 621.07 948.81 623.73 947.49 626.49 946.42 C 627.01 947.09 627.54 947.79 628.08 948.49 C 628.68 948.15 629.29 947.82 629.90 947.50 C 630.42 948.93 630.96 950.36 631.50 951.81 C 631.75 951.20 632.26 949.97 632.51 949.35 C 633.52 949.32 634.55 949.31 635.59 949.30 C 636.19 948.66 636.80 948.04 637.42 947.42 C 638.39 947.64 639.36 947.87 640.35 948.12 C 640.38 949.08 640.42 950.06 640.47 951.04 C 642.12 951.13 643.07 949.67 644.15 948.68 C 644.74 948.93 645.34 949.19 645.95 949.46 C 648.56 947.89 651.77 948.80 654.42 947.34 C 655.90 946.29 657.27 947.85 658.60 948.40 C 660.48 949.68 662.81 948.82 664.92 949.08 C 667.62 949.50 669.72 947.50 671.88 946.24 C 672.60 948.19 672.06 950.13 671.22 951.94 C 673.08 951.32 674.58 950.02 676.26 949.05 C 677.81 948.94 678.58 950.57 679.59 951.47 C 680.72 948.09 684.66 948.01 687.63 947.60 C 689.91 947.13 691.19 949.37 692.83 950.51 C 694.10 949.96 695.29 949.24 696.50 948.56 C 696.83 948.84 697.50 949.40 697.83 949.68 C 697.92 949.07 698.11 947.87 698.20 947.27 C 699.03 948.05 699.67 949.32 700.95 949.45 C 705.92 950.57 710.92 946.76 715.74 949.32 C 716.12 948.53 716.51 947.75 716.91 946.99 C 718.13 948.31 719.37 949.63 720.63 950.94 C 720.61 949.89 720.60 948.84 720.59 947.81 C 721.80 948.43 722.98 949.10 724.19 949.77 C 724.82 948.86 725.30 947.79 726.18 947.10 C 727.70 947.21 729.14 947.77 730.59 948.24 C 730.55 949.47 730.54 950.72 730.53 951.98 C 731.51 950.68 732.51 949.40 733.50 948.12 C 733.66 948.67 733.98 949.79 734.14 950.35 C 737.41 948.79 741.93 948.76 743.06 952.94 C 744.78 951.35 746.29 949.50 748.23 948.16 C 749.87 946.96 750.96 949.22 752.14 950.03 C 752.32 949.49 752.68 948.41 752.86 947.87 C 753.34 948.67 753.82 949.47 754.33 950.31 C 755.26 950.03 756.20 949.76 757.16 949.51 C 757.32 949.24 757.64 948.72 757.79 948.45 C 758.39 948.33 759.00 948.23 759.62 948.15 C 759.96 947.51 760.31 946.89 760.68 946.27 C 760.85 946.87 761.20 948.06 761.37 948.66 C 763.44 948.25 765.53 947.76 767.67 947.91 C 767.25 948.94 766.81 949.98 766.39 951.02 C 768.94 949.88 772.05 948.13 774.31 950.80 C 774.60 949.68 774.91 948.58 775.22 947.49 C 775.70 947.79 776.64 948.37 777.11 948.66 C 778.88 948.11 780.67 947.46 782.56 947.64 C 782.16 948.57 781.77 949.54 781.39 950.49 C 783.92 950.23 786.41 949.65 788.79 948.73 C 788.95 949.17 789.28 950.05 789.45 950.49 C 790.85 949.75 792.25 949.01 793.67 948.29 C 794.30 948.99 794.94 949.72 795.58 950.46 C 796.24 949.70 796.91 948.97 797.59 948.25 C 799.89 949.61 802.55 949.70 805.10 949.09 C 807.60 948.33 810.07 949.25 812.45 949.96 C 812.19 948.20 812.11 946.40 813.20 944.89 Z" />
</g>
<g id="#644dc7ff">
<path fill="#644dc7" opacity="1.00" d=" M 942.03 570.65 C 944.65 573.68 943.20 577.55 943.96 581.08 C 944.50 580.13 945.03 579.17 945.56 578.22 C 945.82 579.41 946.06 580.60 946.34 581.81 C 947.30 581.07 948.15 580.13 949.31 579.68 C 951.99 579.80 954.65 582.69 957.17 580.41 C 958.82 580.84 960.47 581.33 962.13 581.83 C 963.19 581.07 964.24 580.29 965.33 579.56 C 966.95 580.07 968.67 580.48 970.17 579.36 C 970.47 580.11 970.80 580.86 971.13 581.63 C 971.64 581.23 972.16 580.84 972.70 580.45 C 972.89 581.03 973.27 582.20 973.46 582.78 C 975.96 581.45 978.76 582.47 981.29 581.34 C 983.58 580.48 985.51 582.61 987.47 583.50 C 988.32 581.50 989.52 579.62 991.79 579.11 C 992.94 580.00 994.10 580.89 995.29 581.77 C 996.95 581.14 998.71 580.49 1000.48 581.18 C 1001.90 580.18 1003.32 579.18 1004.78 578.21 C 1005.62 579.26 1006.47 580.32 1007.33 581.38 C 1007.97 580.99 1008.63 580.61 1009.30 580.23 C 1010.52 581.40 1011.79 582.57 1013.40 583.23 C 1013.41 582.25 1013.42 581.28 1013.45 580.32 C 1017.83 580.90 1022.35 580.17 1026.65 581.37 C 1027.00 580.60 1027.38 579.84 1027.79 579.09 C 1029.86 580.53 1032.24 581.75 1034.80 580.91 C 1035.32 581.54 1035.86 582.18 1036.41 582.83 C 1037.84 582.31 1038.63 581.03 1039.35 579.77 C 1040.84 580.22 1042.40 579.89 1043.91 579.65 C 1044.29 580.62 1044.69 581.59 1045.11 582.56 C 1047.64 581.50 1050.47 579.82 1053.14 581.47 C 1053.29 580.32 1053.51 579.19 1053.72 578.06 C 1057.33 581.17 1062.04 582.27 1066.69 581.38 C 1067.39 580.67 1068.10 579.98 1068.84 579.30 C 1070.27 580.21 1071.88 580.77 1073.59 580.95 C 1073.59 579.87 1073.61 578.80 1073.64 577.73 C 1075.20 578.75 1076.28 580.29 1077.31 581.83 C 1077.69 580.98 1078.09 580.13 1078.51 579.29 C 1079.04 580.27 1079.56 581.24 1080.13 582.23 C 1082.02 581.83 1084.00 582.18 1085.88 581.58 C 1086.06 598.39 1085.91 615.19 1086.05 632.00 C 1086.19 636.78 1085.41 641.68 1086.87 646.35 C 1087.00 702.36 1086.97 758.40 1086.87 814.42 C 1085.29 809.75 1086.16 804.79 1086.06 799.98 C 1085.88 780.40 1085.92 760.83 1085.91 741.25 C 1084.47 743.54 1081.65 743.73 1079.31 744.43 C 1078.82 743.32 1078.35 742.23 1077.89 741.14 C 1077.51 740.93 1076.76 740.50 1076.39 740.28 C 1075.75 741.48 1075.12 742.69 1074.49 743.90 C 1073.66 742.88 1073.02 741.75 1072.46 740.60 C 1072.07 740.86 1071.27 741.38 1070.88 741.63 C 1069.34 741.50 1067.80 741.38 1066.27 741.29 C 1065.19 741.93 1064.20 742.77 1063.00 743.15 C 1061.26 742.65 1060.20 740.97 1058.86 739.88 C 1057.26 741.30 1055.90 742.96 1054.68 744.71 C 1053.30 743.99 1052.01 743.13 1050.77 742.24 C 1047.78 742.47 1044.76 742.92 1041.80 742.33 C 1041.63 741.64 1041.47 740.96 1041.33 740.29 C 1040.69 740.61 1040.08 740.94 1039.49 741.28 C 1038.81 740.90 1038.16 740.53 1037.52 740.18 C 1037.32 742.01 1037.80 744.81 1035.29 745.14 C 1035.35 743.76 1035.45 742.40 1035.57 741.04 C 1035.15 741.21 1034.32 741.54 1033.90 741.71 C 1033.22 742.91 1032.54 744.11 1031.85 745.31 C 1031.62 744.28 1031.42 743.24 1031.25 742.22 C 1030.26 742.29 1029.29 742.38 1028.32 742.47 C 1028.01 741.32 1027.73 740.19 1027.45 739.06 C 1027.18 740.34 1026.93 741.63 1026.69 742.93 C 1023.40 744.11 1021.87 740.54 1019.30 739.44 C 1019.10 740.00 1018.72 741.11 1018.52 741.67 C 1017.16 741.52 1015.82 741.37 1014.48 741.23 C 1014.85 742.00 1015.21 742.79 1015.58 743.60 C 1013.52 744.04 1012.07 741.55 1010.02 741.43 C 1007.92 741.02 1006.55 743.00 1004.74 743.60 C 1002.97 743.90 1001.60 742.43 1000.18 741.67 C 996.39 742.07 991.66 743.94 988.85 740.28 C 988.08 741.16 987.39 742.09 986.75 743.06 C 985.01 742.45 983.25 740.97 981.34 741.76 C 977.86 743.04 974.05 741.70 970.63 743.20 C 968.34 744.21 966.08 743.05 964.24 741.73 C 963.46 742.15 962.69 742.58 961.93 743.03 C 961.42 742.20 960.93 741.40 960.45 740.59 C 959.47 741.06 958.51 741.55 957.57 742.07 C 955.13 741.83 953.08 743.00 951.27 744.49 C 950.17 744.30 949.10 744.07 948.06 743.79 C 948.10 742.11 948.17 740.45 948.35 738.80 C 947.41 740.28 946.38 741.71 945.25 743.05 C 943.83 739.87 944.26 736.34 944.29 732.97 C 944.38 726.65 944.30 720.34 944.32 714.03 C 944.21 711.95 944.41 709.76 943.46 707.86 C 942.96 708.95 942.52 710.07 942.12 711.21 C 939.96 685.70 931.86 659.35 913.23 640.98 C 926.07 628.14 934.40 611.18 938.39 593.58 C 940.21 586.05 941.80 578.41 942.03 570.65 Z" />
</g>
<g id="#6049c7ff">
<path fill="#6049c7" opacity="1.00" d=" M 336.07 607.03 C 336.45 607.25 337.20 607.71 337.58 607.94 C 336.74 609.85 336.07 611.88 336.22 614.00 C 336.28 632.36 336.20 650.72 336.26 669.07 C 336.41 675.18 341.90 680.64 347.99 680.78 C 456.66 680.82 565.33 680.90 674.00 680.90 C 714.67 680.91 755.31 681.21 795.98 681.07 C 803.57 680.85 811.10 682.95 817.91 686.22 C 825.65 689.99 830.49 697.90 832.71 705.99 C 835.47 716.73 835.47 728.08 833.55 738.97 C 831.67 749.05 825.64 759.18 815.68 762.96 C 814.70 762.06 813.60 761.89 812.38 762.45 C 798.16 767.76 782.78 764.18 768.05 765.87 C 634.38 765.74 500.71 765.86 367.04 765.83 C 359.69 765.96 352.34 765.56 345.01 766.10 C 345.31 766.48 345.91 767.26 346.22 767.64 C 341.85 768.42 338.49 771.78 336.77 775.74 C 336.35 775.58 335.53 775.27 335.12 775.11 C 333.09 781.84 334.38 788.89 333.74 795.77 C 333.41 796.05 332.75 796.61 332.42 796.89 C 332.17 796.18 331.68 794.77 331.43 794.06 C 330.79 795.60 330.17 797.16 329.58 798.74 C 328.90 798.14 328.37 797.18 327.43 797.04 C 324.03 796.44 320.67 795.40 317.19 795.52 C 314.72 795.60 312.57 797.51 310.16 797.46 C 305.42 795.00 299.37 798.23 295.19 794.31 C 294.69 795.71 294.18 797.12 293.69 798.54 C 292.15 795.92 289.33 795.81 286.64 796.30 C 285.88 795.36 285.10 794.44 284.17 793.71 C 282.40 795.07 280.65 796.43 278.93 797.86 C 277.40 797.08 275.89 796.30 274.39 795.50 C 273.71 795.81 273.04 796.14 272.38 796.49 C 271.98 795.67 271.58 794.85 271.19 794.05 C 270.87 794.94 270.56 795.83 270.26 796.74 C 267.18 795.69 264.03 796.30 261.87 798.81 C 261.34 797.54 260.93 795.95 259.39 795.60 C 255.87 795.52 252.23 797.07 248.76 795.82 C 246.75 795.15 244.67 796.50 242.71 795.57 C 238.76 794.05 235.14 796.99 231.38 797.74 C 228.64 796.48 225.59 795.64 223.48 793.34 C 223.40 794.57 223.22 795.82 222.73 796.99 C 222.31 796.10 221.90 795.22 221.50 794.35 C 220.63 797.35 216.54 798.83 214.61 795.91 C 212.71 796.00 210.74 795.05 208.95 796.05 C 207.26 796.78 205.42 797.72 203.76 796.36 C 203.21 797.21 202.61 798.04 202.08 798.92 C 201.22 796.93 200.52 794.75 198.73 793.39 C 198.09 793.98 197.45 794.58 196.81 795.19 C 193.58 796.19 190.31 796.18 187.23 794.63 C 187.24 745.35 187.22 696.08 187.23 646.81 C 189.75 647.08 192.19 645.48 194.66 646.23 C 195.23 645.60 195.79 644.96 196.36 644.35 C 198.98 647.92 203.49 645.59 207.02 646.88 C 208.91 647.26 210.86 646.86 212.78 646.82 C 212.94 647.29 213.27 648.23 213.43 648.70 C 215.93 648.03 218.36 645.53 220.94 647.26 C 224.20 646.77 227.53 645.96 230.85 646.93 C 231.63 645.95 232.40 644.97 233.17 644.00 C 233.66 644.92 233.46 646.93 235.03 646.70 C 237.47 646.57 239.97 647.81 242.28 646.57 C 243.71 645.74 244.94 647.15 246.12 647.79 C 246.94 646.87 247.29 645.02 248.86 645.33 C 251.47 645.36 254.56 645.04 256.34 647.40 C 257.11 647.13 257.88 646.87 258.66 646.62 C 259.59 647.19 260.52 647.79 261.45 648.38 C 262.88 647.17 264.23 644.91 266.41 645.68 C 269.27 646.40 272.24 647.66 275.15 646.38 C 276.12 647.22 277.07 648.08 278.03 648.95 C 278.55 647.10 280.23 646.23 282.07 646.20 C 283.27 646.93 284.20 648.02 285.21 649.00 C 286.36 649.01 287.51 649.02 288.66 649.04 C 288.06 648.21 287.46 647.39 286.86 646.57 C 290.70 645.21 294.49 647.13 298.23 647.87 C 298.39 646.63 298.57 645.38 299.15 644.27 C 300.06 645.61 300.96 647.24 302.80 647.39 C 305.25 648.35 307.10 645.98 309.09 645.00 C 309.56 645.85 309.46 647.28 310.57 647.62 C 311.25 646.94 311.88 646.24 312.52 645.54 C 313.18 646.25 313.85 646.98 314.51 647.71 C 315.89 645.36 318.26 644.98 320.65 645.95 C 320.06 646.73 319.47 647.53 318.89 648.33 C 321.35 650.18 323.06 645.24 325.68 646.28 C 326.79 647.25 326.62 648.96 327.04 650.30 C 327.64 648.67 328.21 647.04 328.72 645.40 C 331.04 645.23 332.24 647.54 333.77 648.89 C 333.98 637.92 333.85 626.95 333.90 615.98 C 333.90 612.86 334.77 609.83 336.07 607.03 Z" />
</g>
<g id="#583fc8ff">
<path fill="#583fc8" opacity="1.00" d=" M 943.46 707.86 C 944.41 709.76 944.21 711.95 944.32 714.03 C 944.30 720.34 944.38 726.65 944.29 732.97 C 944.26 736.34 943.83 739.87 945.25 743.05 C 946.38 741.71 947.41 740.28 948.35 738.80 C 948.17 740.45 948.10 742.11 948.06 743.79 C 949.10 744.07 950.17 744.30 951.27 744.49 C 953.08 743.00 955.13 741.83 957.57 742.07 C 958.51 741.55 959.47 741.06 960.45 740.59 C 960.93 741.40 961.42 742.20 961.93 743.03 C 962.69 742.58 963.46 742.15 964.24 741.73 C 966.08 743.05 968.34 744.21 970.63 743.20 C 974.05 741.70 977.86 743.04 981.34 741.76 C 983.25 740.97 985.01 742.45 986.75 743.06 C 987.39 742.09 988.08 741.16 988.85 740.28 C 991.66 743.94 996.39 742.07 1000.18 741.67 C 1001.60 742.43 1002.97 743.90 1004.74 743.60 C 1006.55 743.00 1007.92 741.02 1010.02 741.43 C 1012.07 741.55 1013.52 744.04 1015.58 743.60 C 1015.21 742.79 1014.85 742.00 1014.48 741.23 C 1015.82 741.37 1017.16 741.52 1018.52 741.67 C 1018.72 741.11 1019.10 740.00 1019.30 739.44 C 1021.87 740.54 1023.40 744.11 1026.69 742.93 C 1026.93 741.63 1027.18 740.34 1027.45 739.06 C 1027.73 740.19 1028.01 741.32 1028.32 742.47 C 1029.29 742.38 1030.26 742.29 1031.25 742.22 C 1031.42 743.24 1031.62 744.28 1031.85 745.31 C 1032.54 744.11 1033.22 742.91 1033.90 741.71 C 1034.32 741.54 1035.15 741.21 1035.57 741.04 C 1035.45 742.40 1035.35 743.76 1035.29 745.14 C 1037.80 744.81 1037.32 742.01 1037.52 740.18 C 1038.16 740.53 1038.81 740.90 1039.49 741.28 C 1040.08 740.94 1040.69 740.61 1041.33 740.29 C 1041.47 740.96 1041.63 741.64 1041.80 742.33 C 1044.76 742.92 1047.78 742.47 1050.77 742.24 C 1052.01 743.13 1053.30 743.99 1054.68 744.71 C 1055.90 742.96 1057.26 741.30 1058.86 739.88 C 1060.20 740.97 1061.26 742.65 1063.00 743.15 C 1064.20 742.77 1065.19 741.93 1066.27 741.29 C 1067.80 741.38 1069.34 741.50 1070.88 741.63 C 1071.27 741.38 1072.07 740.86 1072.46 740.60 C 1073.02 741.75 1073.66 742.88 1074.49 743.90 C 1075.12 742.69 1075.75 741.48 1076.39 740.28 C 1076.76 740.50 1077.51 740.93 1077.89 741.14 C 1078.35 742.23 1078.82 743.32 1079.31 744.43 C 1081.65 743.73 1084.47 743.54 1085.91 741.25 C 1085.92 760.83 1085.88 780.40 1086.06 799.98 C 1086.16 804.79 1085.29 809.75 1086.87 814.42 C 1087.06 842.60 1086.89 870.80 1086.95 898.98 C 1086.77 921.75 1087.29 944.55 1086.68 967.30 C 1085.03 961.19 1087.23 954.56 1084.41 948.67 C 1083.16 948.51 1081.91 948.34 1080.68 948.20 C 1080.56 949.10 1080.48 950.03 1080.38 950.96 C 1078.31 949.40 1076.76 947.33 1075.23 945.28 C 1074.86 946.88 1074.59 948.51 1074.23 950.13 C 1073.04 949.50 1071.89 948.81 1070.77 948.12 C 1069.86 948.99 1068.97 949.88 1068.08 950.78 C 1066.89 949.68 1065.73 948.57 1064.60 947.43 C 1063.85 948.75 1063.06 950.05 1062.18 951.30 C 1061.17 950.31 1060.19 949.32 1059.21 948.35 C 1058.71 948.97 1058.24 949.61 1057.77 950.27 C 1056.25 949.59 1054.61 949.22 1052.95 949.17 C 1052.62 949.71 1052.30 950.27 1052.00 950.85 C 1051.01 950.06 1050.07 949.26 1049.11 948.51 C 1047.73 949.22 1046.18 950.44 1044.63 949.41 C 1042.63 948.83 1042.44 946.57 1041.74 944.97 C 1039.45 946.08 1041.28 948.44 1041.54 950.24 C 1040.37 949.37 1039.28 948.41 1038.27 947.40 C 1038.09 948.02 1037.73 949.26 1037.56 949.87 C 1036.91 948.72 1036.30 947.55 1035.69 946.42 C 1034.44 947.58 1033.20 948.74 1031.98 949.91 C 1031.29 948.95 1030.63 948.01 1029.97 947.07 C 1028.15 952.06 1022.44 949.77 1018.84 948.47 C 1018.30 948.82 1017.77 949.18 1017.27 949.56 C 1017.08 948.95 1016.70 947.74 1016.52 947.13 C 1015.47 948.21 1014.43 949.29 1013.41 950.39 C 1012.62 950.05 1011.84 949.73 1011.08 949.43 C 1009.42 950.24 1007.78 951.63 1005.83 951.28 C 1003.42 951.23 1001.95 949.09 1000.41 947.57 C 998.90 948.65 997.39 949.74 995.90 950.84 C 995.73 950.47 995.40 949.74 995.23 949.37 C 994.46 949.40 993.72 949.44 992.98 949.49 C 991.49 948.55 989.97 947.65 988.46 946.78 C 988.60 947.84 989.72 948.99 989.10 950.08 C 988.13 950.99 986.69 950.73 985.50 950.93 C 985.45 949.83 985.28 948.78 985.27 947.71 C 983.60 947.53 981.94 947.49 980.29 947.58 C 980.08 948.59 979.89 949.61 979.71 950.64 C 978.43 949.92 977.16 949.20 975.90 948.52 C 974.20 949.27 972.39 949.68 970.55 949.30 C 970.61 950.50 970.68 951.71 970.77 952.94 C 969.41 951.55 968.08 950.13 966.77 948.71 C 965.40 949.23 964.00 949.25 962.80 948.31 C 962.12 949.29 961.44 950.27 960.79 951.27 C 959.40 950.22 958.23 948.74 956.46 948.39 C 956.89 949.56 957.36 950.71 957.83 951.89 C 956.49 951.15 955.23 950.29 954.03 949.39 C 950.99 951.19 947.69 949.42 944.76 948.33 C 944.58 948.72 944.24 949.51 944.06 949.90 C 941.39 949.45 938.62 949.03 936.15 950.43 C 934.56 949.75 932.88 949.35 931.17 949.28 C 930.64 948.71 930.12 948.15 929.62 947.60 C 928.21 948.73 926.76 949.81 925.22 950.75 C 924.29 950.02 923.38 949.29 922.47 948.60 C 921.38 949.65 920.29 950.72 919.22 951.80 C 918.91 950.60 918.62 949.42 918.33 948.23 C 917.04 948.66 915.68 949.62 914.38 948.67 C 911.44 947.01 908.42 950.34 905.43 948.82 C 902.91 947.71 900.18 947.74 897.56 948.43 C 897.55 949.28 897.55 950.15 897.57 951.04 C 896.75 949.80 895.97 948.54 895.25 947.28 C 894.52 948.84 893.60 950.30 892.55 951.68 C 892.28 951.12 891.73 949.99 891.46 949.43 C 889.15 948.93 886.92 949.63 884.93 950.80 C 884.08 947.72 881.02 948.59 878.63 948.72 C 878.59 947.76 878.55 946.81 878.52 945.88 C 877.56 946.46 877.07 947.48 876.51 948.41 C 875.89 948.12 875.28 947.85 874.69 947.59 C 872.09 948.63 869.33 948.34 866.63 948.54 C 865.19 949.09 865.49 950.79 865.21 952.01 C 863.82 950.52 862.49 948.99 861.30 947.36 C 860.71 947.58 860.15 947.83 859.61 948.10 C 859.59 949.08 859.58 950.07 859.58 951.08 C 858.82 949.90 858.12 948.69 857.46 947.49 C 855.25 951.81 850.36 947.33 846.90 949.47 C 846.48 948.44 846.06 947.42 845.67 946.43 C 843.53 947.71 841.60 949.36 840.37 951.57 C 839.79 950.37 839.26 949.18 838.67 948.02 C 838.11 949.09 837.55 950.17 837.01 951.27 C 836.52 950.40 836.06 949.56 835.59 948.73 C 834.54 949.13 833.47 949.47 832.38 949.74 C 832.11 948.67 831.84 947.61 831.59 946.56 C 830.72 946.50 829.84 946.44 828.99 946.40 C 829.64 947.39 830.29 948.37 830.95 949.39 C 828.78 950.48 826.81 947.81 824.82 947.13 C 824.59 948.03 824.97 948.81 825.25 949.67 C 824.65 950.34 824.05 951.01 823.47 951.70 C 822.41 950.07 821.68 947.71 819.43 947.50 C 817.35 947.01 816.51 951.11 814.36 949.68 C 813.56 948.20 813.58 946.48 813.20 944.89 C 812.11 946.40 812.19 948.20 812.45 949.96 C 810.07 949.25 807.60 948.33 805.10 949.09 C 802.55 949.70 799.89 949.61 797.59 948.25 C 796.91 948.97 796.24 949.70 795.58 950.46 C 794.94 949.72 794.30 948.99 793.67 948.29 C 792.25 949.01 790.85 949.75 789.45 950.49 C 789.28 950.05 788.95 949.17 788.79 948.73 C 786.41 949.65 783.92 950.23 781.39 950.49 C 781.77 949.54 782.16 948.57 782.56 947.64 C 780.67 947.46 778.88 948.11 777.11 948.66 C 776.64 948.37 775.70 947.79 775.22 947.49 C 774.91 948.58 774.60 949.68 774.31 950.80 C 772.05 948.13 768.94 949.88 766.39 951.02 C 766.81 949.98 767.25 948.94 767.67 947.91 C 765.53 947.76 763.44 948.25 761.37 948.66 C 761.20 948.06 760.85 946.87 760.68 946.27 C 760.31 946.89 759.96 947.51 759.62 948.15 C 759.00 948.23 758.39 948.33 757.79 948.45 C 757.64 948.72 757.32 949.24 757.16 949.51 C 756.20 949.76 755.26 950.03 754.33 950.31 C 753.82 949.47 753.34 948.67 752.86 947.87 C 752.68 948.41 752.32 949.49 752.14 950.03 C 750.96 949.22 749.87 946.96 748.23 948.16 C 746.29 949.50 744.78 951.35 743.06 952.94 C 741.93 948.76 737.41 948.79 734.14 950.35 C 733.98 949.79 733.66 948.67 733.50 948.12 C 732.51 949.40 731.51 950.68 730.53 951.98 C 730.54 950.72 730.55 949.47 730.59 948.24 C 729.14 947.77 727.70 947.21 726.18 947.10 C 725.30 947.79 724.82 948.86 724.19 949.77 C 722.98 949.10 721.80 948.43 720.59 947.81 C 720.60 948.84 720.61 949.89 720.63 950.94 C 719.37 949.63 718.13 948.31 716.91 946.99 C 716.51 947.75 716.12 948.53 715.74 949.32 C 710.92 946.76 705.92 950.57 700.95 949.45 C 699.67 949.32 699.03 948.05 698.20 947.27 C 698.11 947.87 697.92 949.07 697.83 949.68 C 697.50 949.40 696.83 948.84 696.50 948.56 C 695.29 949.24 694.10 949.96 692.83 950.51 C 691.19 949.37 689.91 947.13 687.63 947.60 C 684.66 948.01 680.72 948.09 679.59 951.47 C 678.58 950.57 677.81 948.94 676.26 949.05 C 674.58 950.02 673.08 951.32 671.22 951.94 C 672.06 950.13 672.60 948.19 671.88 946.24 C 669.72 947.50 667.62 949.50 664.92 949.08 C 662.81 948.82 660.48 949.68 658.60 948.40 C 657.27 947.85 655.90 946.29 654.42 947.34 C 651.77 948.80 648.56 947.89 645.95 949.46 C 645.34 949.19 644.74 948.93 644.15 948.68 C 643.07 949.67 642.12 951.13 640.47 951.04 C 640.42 950.06 640.38 949.08 640.35 948.12 C 639.36 947.87 638.39 947.64 637.42 947.42 C 636.80 948.04 636.19 948.66 635.59 949.30 C 634.55 949.31 633.52 949.32 632.51 949.35 C 632.26 949.97 631.75 951.20 631.50 951.81 C 630.96 950.36 630.42 948.93 629.90 947.50 C 629.29 947.82 628.68 948.15 628.08 948.49 C 627.54 947.79 627.01 947.09 626.49 946.42 C 623.73 947.49 621.07 948.81 618.63 950.50 C 617.69 949.50 616.75 948.50 615.83 947.51 C 614.96 947.84 614.11 948.18 613.27 948.54 C 613.12 947.99 612.82 946.89 612.66 946.35 C 611.99 947.07 611.32 947.81 610.66 948.56 C 609.64 948.47 608.64 948.39 607.64 948.32 C 607.62 949.12 607.62 949.94 607.62 950.78 C 606.87 950.05 606.13 949.32 605.39 948.62 C 602.41 950.66 598.22 950.66 596.15 947.38 C 593.68 948.66 590.79 948.72 588.45 950.32 C 587.42 949.52 586.51 948.60 585.58 947.73 C 583.75 948.77 581.61 948.46 579.65 949.02 C 578.93 949.24 577.96 947.83 576.93 948.17 C 574.07 948.23 571.91 950.54 569.30 951.49 C 569.06 950.37 568.84 949.26 568.63 948.17 C 567.87 948.98 567.10 949.79 566.36 950.62 C 565.28 949.89 564.21 949.16 563.14 948.45 C 562.40 949.31 561.66 950.19 560.93 951.08 C 560.67 950.27 560.41 949.47 560.16 948.69 C 556.06 948.63 551.85 947.02 547.88 948.85 C 546.26 949.52 544.69 951.31 542.86 950.15 C 539.71 948.42 536.15 950.30 532.89 949.15 C 529.80 947.98 526.47 950.31 523.51 948.57 C 521.03 947.12 518.80 950.21 516.25 949.74 C 513.39 949.34 510.69 948.29 507.99 947.34 C 507.36 948.05 506.78 948.81 506.11 949.50 C 503.49 949.34 500.98 948.02 498.29 948.50 C 494.97 948.54 491.38 950.85 488.32 948.68 C 487.05 949.84 485.72 950.95 484.34 951.98 C 484.46 950.60 484.57 949.23 484.68 947.87 C 483.30 948.48 482.26 949.57 481.24 950.65 C 481.07 949.50 480.91 948.35 480.74 947.22 C 480.28 948.00 479.82 948.80 479.37 949.61 C 478.97 949.33 478.15 948.76 477.74 948.48 C 476.88 949.79 476.06 951.70 474.11 951.00 C 472.95 950.01 472.31 948.59 471.50 947.35 C 470.68 948.14 469.86 948.94 469.06 949.75 C 467.32 947.78 465.09 947.69 463.14 949.38 C 462.08 948.57 461.04 947.75 460.00 946.95 C 458.78 947.72 457.57 948.51 456.36 949.31 C 455.92 949.17 455.02 948.89 454.57 948.75 C 451.42 950.56 448.38 948.27 445.28 947.71 C 442.70 948.18 440.12 948.87 437.46 948.52 C 437.24 948.95 436.80 949.82 436.58 950.25 C 434.76 949.87 432.90 949.74 431.05 949.73 C 430.25 948.99 429.46 948.26 428.67 947.55 C 426.86 948.03 425.02 948.36 423.15 948.43 C 424.07 949.25 424.92 950.14 425.83 951.00 C 425.17 950.96 423.85 950.89 423.18 950.85 C 422.02 950.12 420.97 947.66 419.47 949.25 C 418.79 948.58 418.11 947.93 417.44 947.28 C 416.46 948.79 415.47 950.30 414.46 951.80 C 413.25 950.61 413.82 949.17 414.47 947.87 C 412.78 948.43 411.13 949.18 409.35 949.40 C 407.68 948.91 406.13 948.11 404.55 947.43 C 404.28 947.99 403.74 949.10 403.47 949.66 C 400.23 948.57 396.32 947.14 393.69 950.28 C 391.16 949.49 388.52 949.16 386.00 948.36 C 385.00 949.22 384.02 950.12 383.04 951.03 C 382.05 949.49 381.14 947.73 379.29 947.14 C 378.14 948.46 376.99 949.78 375.86 951.13 C 373.96 950.49 372.19 949.54 370.53 948.45 C 370.04 949.29 369.56 950.15 369.08 951.02 C 368.55 948.06 365.40 948.11 363.07 947.53 C 361.59 948.36 359.96 948.73 358.27 948.60 C 358.34 949.42 358.42 950.25 358.50 951.09 C 356.97 950.09 355.45 949.07 353.92 948.07 C 351.76 949.60 349.06 948.45 346.79 949.74 C 346.65 949.43 346.38 948.79 346.24 948.48 C 343.45 948.42 340.52 948.19 338.01 949.66 C 336.70 948.73 335.37 947.86 333.99 947.08 C 334.48 947.95 334.99 948.83 335.49 949.72 C 334.25 950.47 332.96 951.17 331.65 951.81 C 331.40 950.32 331.15 948.82 330.92 947.34 C 329.52 948.50 328.18 949.85 326.39 950.37 C 326.14 949.90 325.63 948.98 325.38 948.51 C 320.45 947.33 315.14 948.12 310.69 950.51 C 310.15 949.71 309.61 948.91 309.08 948.13 C 307.16 948.74 305.23 950.02 303.14 949.47 C 301.27 949.02 299.66 947.79 297.69 947.71 C 296.94 948.71 296.17 949.72 295.41 950.74 C 294.96 949.96 294.52 949.18 294.07 948.43 C 293.19 948.17 292.30 947.93 291.43 947.71 C 291.81 947.05 292.19 946.41 292.57 945.77 C 289.73 946.60 287.97 949.54 285.03 949.96 C 282.58 948.85 280.30 947.08 277.45 947.40 C 277.13 948.47 276.81 949.55 276.50 950.65 C 274.38 950.70 272.16 950.73 270.33 951.95 C 271.34 950.06 272.12 948.07 272.81 946.05 C 272.35 946.07 271.42 946.11 270.96 946.13 C 270.54 947.53 269.30 947.80 268.02 947.85 C 268.57 948.52 269.12 949.21 269.68 949.91 C 268.61 950.29 267.54 950.67 266.48 951.08 C 266.56 950.25 266.65 949.43 266.74 948.63 C 263.43 948.84 259.92 947.87 256.90 949.67 C 255.96 949.21 255.03 948.76 254.10 948.33 C 253.35 948.74 252.60 949.17 251.85 949.61 C 250.02 949.41 248.23 949.72 246.50 950.32 C 244.52 950.86 243.11 948.50 241.09 948.96 C 238.11 949.49 235.20 948.75 232.64 947.21 C 232.52 948.14 232.40 949.10 232.29 950.07 C 231.49 949.38 230.71 948.71 229.92 948.05 C 229.45 948.93 228.98 949.82 228.51 950.72 C 227.80 949.95 227.09 949.17 226.38 948.43 C 225.76 949.05 225.15 949.68 224.54 950.33 C 223.52 948.25 220.54 947.08 218.58 948.59 C 216.62 950.28 214.45 948.46 212.52 947.71 C 211.78 950.73 208.54 951.43 205.96 950.34 C 207.68 949.26 209.41 948.21 211.05 947.01 C 209.04 945.89 207.13 947.87 205.20 948.30 C 203.52 949.15 201.86 947.91 200.21 947.65 C 198.68 948.24 197.57 949.58 196.30 950.59 C 196.07 949.94 195.60 948.64 195.36 948.00 C 193.74 948.64 192.66 950.02 191.55 951.32 C 190.08 950.84 188.63 950.27 187.21 949.71 C 187.28 898.02 187.20 846.32 187.23 794.63 C 190.31 796.18 193.58 796.19 196.81 795.19 C 197.45 794.58 198.09 793.98 198.73 793.39 C 200.52 794.75 201.22 796.93 202.08 798.92 C 202.61 798.04 203.21 797.21 203.76 796.36 C 205.42 797.72 207.26 796.78 208.95 796.05 C 210.74 795.05 212.71 796.00 214.61 795.91 C 216.54 798.83 220.63 797.35 221.50 794.35 C 221.90 795.22 222.31 796.10 222.73 796.99 C 223.22 795.82 223.40 794.57 223.48 793.34 C 225.59 795.64 228.64 796.48 231.38 797.74 C 235.14 796.99 238.76 794.05 242.71 795.57 C 244.67 796.50 246.75 795.15 248.76 795.82 C 252.23 797.07 255.87 795.52 259.39 795.60 C 260.93 795.95 261.34 797.54 261.87 798.81 C 264.03 796.30 267.18 795.69 270.26 796.74 C 270.56 795.83 270.87 794.94 271.19 794.05 C 271.58 794.85 271.98 795.67 272.38 796.49 C 273.04 796.14 273.71 795.81 274.39 795.50 C 275.89 796.30 277.40 797.08 278.93 797.86 C 280.65 796.43 282.40 795.07 284.17 793.71 C 285.10 794.44 285.88 795.36 286.64 796.30 C 289.33 795.81 292.15 795.92 293.69 798.54 C 294.18 797.12 294.69 795.71 295.19 794.31 C 299.37 798.23 305.42 795.00 310.16 797.46 C 312.57 797.51 314.72 795.60 317.19 795.52 C 320.67 795.40 324.03 796.44 327.43 797.04 C 328.37 797.18 328.90 798.14 329.58 798.74 C 330.17 797.16 330.79 795.60 331.43 794.06 C 331.68 794.77 332.17 796.18 332.42 796.89 C 332.75 796.61 333.41 796.05 333.74 795.77 C 334.38 788.89 333.09 781.84 335.12 775.11 C 335.53 775.27 336.35 775.58 336.77 775.74 C 336.35 777.45 336.18 779.21 336.21 780.98 C 336.31 799.29 336.17 817.60 336.29 835.91 C 336.65 842.34 342.74 847.21 349.00 847.12 C 476.67 847.15 604.30 846.81 731.97 846.86 C 759.25 846.72 786.54 847.13 813.82 846.38 C 825.47 845.22 837.20 844.17 848.61 841.44 C 872.18 836.17 895.36 825.94 912.39 808.41 C 928.00 792.74 937.08 771.58 940.54 749.93 C 942.98 737.17 942.19 724.12 942.12 711.21 C 942.52 710.07 942.96 708.95 943.46 707.86 Z" />
</g>
<g id="#482dc0ff">
<path fill="#482dc0" opacity="1.00" d=" M 812.38 762.45 C 813.60 761.89 814.70 762.06 815.68 762.96 C 808.78 765.73 801.40 767.23 793.96 767.18 C 644.72 767.73 495.46 767.19 346.22 767.64 C 345.91 767.26 345.31 766.48 345.01 766.10 C 352.34 765.56 359.69 765.96 367.04 765.83 C 500.71 765.86 634.38 765.74 768.05 765.87 C 782.78 764.18 798.16 767.76 812.38 762.45 Z" />
</g>
</svg>
