<?xml version="1.0" encoding="UTF-8" ?>
<!DOCTYPE svg PUBLIC "-//W3C//DTD SVG 1.1//EN" "http://www.w3.org/Graphics/SVG/1.1/DTD/svg11.dtd">
<svg width="1276pt" height="1276pt" viewBox="0 0 1276 1276" version="1.1" xmlns="http://www.w3.org/2000/svg">
<g id="#02c5e5ff">
<path fill="#02c5e5" opacity="1.00" d=" M 283.83 174.61 C 301.38 167.66 320.14 163.61 339.02 163.06 C 380.41 163.05 421.80 163.05 463.20 163.06 C 463.19 451.61 463.31 740.17 463.25 1028.72 C 427.83 1028.78 392.42 1028.73 357.00 1028.75 C 342.72 1028.73 328.32 1028.76 314.26 1025.93 C 284.77 1020.47 256.84 1006.63 234.86 986.20 C 203.41 957.37 184.52 915.56 183.06 872.97 C 183.05 688.34 183.05 503.71 183.06 319.07 C 184.44 285.98 195.84 253.26 215.74 226.74 C 233.06 203.53 256.91 185.29 283.83 174.61 Z" />
<path fill="#02c5e5" opacity="1.00" d=" M 579.71 544.73 C 585.58 517.04 590.82 489.22 596.74 461.54 C 612.89 461.66 629.05 461.39 645.20 461.68 C 639.56 489.22 634.12 516.81 628.42 544.34 C 635.70 544.74 643.00 544.60 650.29 544.65 C 647.16 560.62 644.00 576.59 641.03 592.59 C 633.61 593.00 626.17 593.28 618.76 592.70 C 614.52 613.54 610.47 634.42 606.21 655.26 C 614.04 655.42 621.87 655.34 629.71 655.28 C 626.63 671.12 623.60 686.97 620.52 702.81 C 612.53 703.06 604.44 702.31 596.53 703.41 C 591.56 728.81 586.30 754.15 581.21 779.54 C 580.46 781.61 580.99 784.73 579.09 786.06 C 563.09 786.21 547.08 786.08 531.08 786.12 C 536.06 758.26 542.45 730.64 547.58 702.81 C 537.98 702.79 528.38 702.85 518.79 702.77 C 518.65 687.08 518.81 671.39 518.70 655.70 C 531.49 654.96 544.35 655.67 557.16 655.34 C 561.59 634.51 565.65 613.61 569.98 592.76 C 552.91 592.54 535.84 592.91 518.78 592.82 C 518.72 576.82 518.67 560.81 518.80 544.80 C 539.10 544.71 559.41 544.85 579.71 544.73 Z" />
</g>
<g id="#ff5f55ff">
<path fill="#ff5f55" opacity="1.00" d=" M 810.75 246.28 C 850.18 246.21 889.61 246.27 929.04 246.25 C 961.75 245.86 994.46 256.03 1021.33 274.65 C 1045.30 291.35 1065.19 314.26 1076.90 341.13 C 1086.69 363.68 1091.56 388.41 1090.95 413.00 C 1090.95 588.01 1090.95 763.03 1090.95 938.05 C 1090.88 948.70 1091.35 959.40 1089.85 969.98 C 1086.03 1002.26 1072.41 1033.42 1050.71 1057.68 C 1019.26 1093.33 971.37 1113.40 923.96 1111.95 C 886.24 1111.95 848.52 1111.95 810.80 1111.94 C 810.80 823.39 810.68 534.84 810.75 246.28 Z" />
<path fill="#ff5f55" opacity="1.00" d=" M 674.98 544.75 C 680.71 517.03 685.69 489.14 691.67 461.48 C 708.27 461.71 724.87 461.42 741.47 461.63 C 735.82 489.20 730.28 516.80 724.46 544.34 C 725.93 544.76 727.47 544.83 729.01 544.80 C 737.17 544.71 745.34 544.86 753.50 544.72 C 754.01 560.66 753.76 576.67 753.63 592.63 C 740.71 592.54 727.79 592.66 714.87 592.57 C 710.21 613.40 706.30 634.41 701.90 655.30 C 719.16 655.53 736.42 655.34 753.68 655.39 C 753.84 671.18 753.74 686.97 753.73 702.76 C 733.40 702.93 713.07 702.68 692.74 702.88 C 692.57 703.13 692.23 703.63 692.05 703.88 C 686.46 731.15 680.90 758.43 675.47 785.73 C 659.60 786.67 643.61 785.82 627.69 786.16 C 627.81 780.21 629.83 774.41 630.72 768.52 C 634.91 747.32 639.11 726.13 643.30 704.93 C 643.29 704.38 643.28 703.29 643.28 702.75 C 635.69 702.85 628.10 702.69 620.52 702.81 C 623.60 686.97 626.63 671.12 629.71 655.28 C 637.53 655.35 645.36 655.28 653.19 655.19 C 657.34 634.38 661.38 613.54 665.51 592.72 C 657.35 592.60 649.19 592.55 641.03 592.59 C 644.00 576.59 647.16 560.62 650.29 544.65 C 658.52 544.80 666.75 544.74 674.98 544.75 Z" />
</g>
</svg>
