<?xml version="1.0" encoding="UTF-8" ?>
<!DOCTYPE svg PUBLIC "-//W3C//DTD SVG 1.1//EN" "http://www.w3.org/Graphics/SVG/1.1/DTD/svg11.dtd">
<svg width="1276pt" height="1276pt" viewBox="0 0 1276 1276" version="1.1" xmlns="http://www.w3.org/2000/svg">
<g id="#fedb01ff">
<path fill="#fedb01" opacity="1.00" d=" M 638.49 114.06 C 647.04 122.58 655.56 131.13 664.09 139.66 C 663.83 140.80 663.60 141.95 663.37 143.10 C 664.42 143.47 665.50 143.83 666.57 144.20 C 665.42 148.09 666.24 152.54 663.85 156.02 C 662.63 157.88 665.37 159.41 665.87 161.13 C 665.07 162.34 664.11 163.44 663.22 164.58 C 664.09 165.95 664.96 167.32 665.84 168.69 C 664.85 169.64 663.86 170.60 662.88 171.56 C 663.97 173.03 665.02 174.52 666.03 176.04 C 665.03 177.33 663.99 178.59 663.16 179.99 C 663.97 181.31 664.95 182.52 665.88 183.76 C 664.86 184.68 663.86 185.60 662.86 186.53 C 663.89 187.97 664.98 189.38 665.83 190.96 C 665.09 192.46 663.93 193.71 662.94 195.05 C 663.88 196.20 664.84 197.35 665.79 198.51 C 664.59 200.20 662.59 201.72 662.85 204.04 C 662.86 206.76 665.50 208.45 666.21 210.95 C 666.38 213.40 664.18 215.05 663.16 217.07 C 663.87 218.44 664.99 219.52 665.99 220.69 C 664.75 222.67 662.84 224.57 662.90 227.05 C 663.51 229.25 665.57 230.72 666.19 232.93 C 666.79 235.74 664.60 237.90 663.17 240.03 C 663.53 241.54 664.19 243.04 664.23 244.62 C 662.13 247.94 658.93 250.39 656.32 253.29 C 650.63 259.09 644.69 264.65 639.12 270.58 C 632.82 277.39 625.62 283.32 619.51 290.30 C 613.28 296.49 606.95 302.57 600.66 308.70 C 602.29 305.04 603.37 301.07 603.17 297.03 C 602.83 288.69 602.72 280.34 602.98 272.00 C 603.27 264.33 602.64 256.66 602.90 248.99 C 603.67 220.33 602.40 191.65 603.14 162.99 C 602.86 158.07 602.18 152.92 604.42 148.32 C 615.61 136.75 627.18 125.52 638.49 114.06 Z" />
<path fill="#fedb01" opacity="1.00" d=" M 665.99 976.51 C 669.01 973.33 672.23 970.36 675.31 967.26 C 676.47 977.13 675.87 987.10 675.85 997.02 C 675.91 1032.35 675.80 1067.68 675.89 1103.01 C 675.87 1109.53 675.31 1116.14 676.90 1122.55 C 664.13 1135.37 651.30 1148.12 638.56 1160.96 C 630.36 1152.90 622.29 1144.72 614.17 1136.60 C 616.64 1132.10 615.81 1126.87 615.84 1121.97 C 615.72 1091.97 615.98 1061.96 615.74 1031.95 C 615.68 1029.37 616.45 1026.90 617.38 1024.54 C 624.87 1017.92 631.83 1010.72 638.79 1003.54 C 643.89 998.18 649.49 993.31 654.52 987.87 C 658.34 984.08 662.26 980.39 665.99 976.51 Z" />
</g>
<g id="#fdce02ff">
<path fill="#fdce02" opacity="1.00" d=" M 664.09 139.66 C 673.72 149.26 683.32 158.88 692.93 168.50 C 691.84 170.88 690.90 173.39 691.01 176.05 C 691.10 342.36 691.03 508.68 691.07 675.00 C 691.17 679.15 690.40 683.46 691.53 687.52 C 694.75 692.76 701.42 695.43 702.93 701.79 C 701.37 700.29 699.77 698.82 698.23 697.32 C 694.44 693.25 690.38 689.44 686.44 685.53 C 683.24 682.09 679.78 678.91 676.49 675.57 C 671.88 670.77 667.05 666.21 662.34 661.53 C 660.11 659.06 657.81 656.65 655.37 654.40 C 656.19 652.34 657.00 650.21 656.99 647.97 C 656.93 552.98 656.92 458.00 656.92 363.01 C 657.22 333.68 656.79 304.35 657.00 275.03 C 657.13 267.79 658.62 260.34 656.32 253.29 C 658.93 250.39 662.13 247.94 664.23 244.62 C 664.19 243.04 663.53 241.54 663.17 240.03 C 664.60 237.90 666.79 235.74 666.19 232.93 C 665.57 230.72 663.51 229.25 662.90 227.05 C 662.84 224.57 664.75 222.67 665.99 220.69 C 664.99 219.52 663.87 218.44 663.16 217.07 C 664.18 215.05 666.38 213.40 666.21 210.95 C 665.50 208.45 662.86 206.76 662.85 204.04 C 662.59 201.72 664.59 200.20 665.79 198.51 C 664.84 197.35 663.88 196.20 662.94 195.05 C 663.93 193.71 665.09 192.46 665.83 190.96 C 664.98 189.38 663.89 187.97 662.86 186.53 C 663.86 185.60 664.86 184.68 665.88 183.76 C 664.95 182.52 663.97 181.31 663.16 179.99 C 663.99 178.59 665.03 177.33 666.03 176.04 C 665.02 174.52 663.97 173.03 662.88 171.56 C 663.86 170.60 664.85 169.64 665.84 168.69 C 664.96 167.32 664.09 165.95 663.22 164.58 C 664.11 163.44 665.07 162.34 665.87 161.13 C 665.37 159.41 662.63 157.88 663.85 156.02 C 666.24 152.54 665.42 148.09 666.57 144.20 C 665.50 143.83 664.42 143.47 663.37 143.10 C 663.60 141.95 663.83 140.80 664.09 139.66 Z" />
</g>
<g id="#fcc802ff">
<path fill="#fcc802" opacity="1.00" d=" M 556.64 195.94 C 572.60 180.10 588.33 164.02 604.42 148.32 C 602.18 152.92 602.86 158.07 603.14 162.99 C 602.40 191.65 603.67 220.33 602.90 248.99 C 602.64 256.66 603.27 264.33 602.98 272.00 C 602.72 280.34 602.83 288.69 603.17 297.03 C 603.37 301.07 602.29 305.04 600.66 308.70 C 598.61 310.92 596.53 313.12 594.42 315.29 C 590.42 319.36 586.23 323.24 582.28 327.36 C 576.41 333.41 570.17 339.10 564.36 345.22 C 561.85 347.83 559.20 350.31 556.61 352.83 C 557.23 350.36 558.32 348.04 560.12 346.22 C 562.83 343.28 560.95 339.04 560.35 335.66 C 559.48 333.10 560.65 330.52 560.96 327.97 C 561.66 322.96 561.49 317.79 560.10 312.91 C 559.26 310.59 560.41 308.27 560.79 305.99 C 561.95 300.24 561.24 294.34 559.96 288.68 C 560.86 283.19 561.95 277.59 560.98 272.01 C 560.68 269.36 559.22 266.74 560.11 264.07 C 562.03 257.39 561.41 250.36 560.00 243.66 C 560.63 239.12 561.73 234.58 561.27 229.94 C 561.38 226.69 559.79 223.67 559.80 220.47 C 561.38 214.49 561.83 208.19 560.85 202.07 C 559.81 199.80 558.11 197.93 556.64 195.94 Z" />
</g>
<g id="#fbc302ff">
<path fill="#fbc302" opacity="1.00" d=" M 692.93 168.50 C 703.68 179.21 714.39 189.95 725.11 200.69 C 724.66 208.45 725.23 216.22 724.96 223.99 C 724.63 238.01 725.37 252.03 724.90 266.04 C 725.00 343.69 724.94 421.33 724.94 498.97 C 724.94 549.66 724.74 600.36 725.07 651.05 C 724.77 671.71 724.87 692.37 725.14 713.03 C 725.22 716.27 724.55 719.46 723.53 722.52 C 723.02 722.01 722.01 720.97 721.50 720.46 C 715.38 714.16 708.91 708.21 702.93 701.79 C 701.42 695.43 694.75 692.76 691.53 687.52 C 690.40 683.46 691.17 679.15 691.07 675.00 C 691.03 508.68 691.10 342.36 691.01 176.05 C 690.90 173.39 691.84 170.88 692.93 168.50 Z" />
</g>
<g id="#faba03ff">
<path fill="#faba03" opacity="1.00" d=" M 537.75 214.82 C 544.07 208.54 550.32 202.21 556.64 195.94 C 558.11 197.93 559.81 199.80 560.85 202.07 C 561.83 208.19 561.38 214.49 559.80 220.47 C 559.79 223.67 561.38 226.69 561.27 229.94 C 561.73 234.58 560.63 239.12 560.00 243.66 C 561.41 250.36 562.03 257.39 560.11 264.07 C 559.22 266.74 560.68 269.36 560.98 272.01 C 561.95 277.59 560.86 283.19 559.96 288.68 C 561.24 294.34 561.95 300.24 560.79 305.99 C 560.41 308.27 559.26 310.59 560.10 312.91 C 561.49 317.79 561.66 322.96 560.96 327.97 C 560.65 330.52 559.48 333.10 560.35 335.66 C 560.95 339.04 562.83 343.28 560.12 346.22 C 558.32 348.04 557.23 350.36 556.61 352.83 C 553.03 356.80 549.02 360.34 545.38 364.24 C 540.82 368.88 536.16 373.43 531.46 377.93 C 532.27 374.30 535.58 372.09 536.96 368.75 C 538.77 364.73 537.82 360.21 537.92 355.96 C 537.83 328.30 537.97 300.64 537.91 272.98 C 537.75 253.59 538.22 234.20 537.75 214.82 Z" />
</g>
<g id="#f9b303ff">
<path fill="#f9b303" opacity="1.00" d=" M 725.11 200.69 C 737.51 213.02 749.83 225.43 762.22 237.78 C 761.86 293.87 762.11 349.95 762.06 406.05 C 761.97 501.01 762.20 595.98 761.97 690.94 C 762.29 712.64 761.78 734.36 762.07 756.05 C 761.96 760.95 768.56 762.50 768.57 767.36 C 764.07 763.15 759.77 758.74 755.40 754.40 C 750.74 749.65 745.98 745.00 741.23 740.34 C 737.33 736.23 733.26 732.30 729.21 728.36 C 727.32 726.40 725.43 724.45 723.53 722.52 C 724.55 719.46 725.22 716.27 725.14 713.03 C 724.87 692.37 724.77 671.71 725.07 651.05 C 724.74 600.36 724.94 549.66 724.94 498.97 C 724.94 421.33 725.00 343.69 724.90 266.04 C 725.37 252.03 724.63 238.01 724.96 223.99 C 725.23 216.22 724.66 208.45 725.11 200.69 Z" />
</g>
<g id="#f8ad04ff">
<path fill="#f8ad04" opacity="1.00" d=" M 501.13 251.45 C 513.34 239.24 525.54 227.02 537.75 214.82 C 538.22 234.20 537.75 253.59 537.91 272.98 C 537.97 300.64 537.83 328.30 537.92 355.96 C 537.82 360.21 538.77 364.73 536.96 368.75 C 535.58 372.09 532.27 374.30 531.46 377.93 C 529.43 380.05 527.41 382.19 525.35 384.28 C 521.36 388.31 517.26 392.22 513.31 396.28 C 507.33 402.37 501.14 408.24 495.18 414.35 C 493.32 416.25 491.41 418.10 489.52 419.97 C 491.10 413.20 499.23 410.77 501.55 404.43 C 502.59 396.35 501.94 388.15 501.96 380.03 C 502.18 358.02 501.74 336.01 502.04 314.00 C 501.89 301.35 502.21 288.70 501.94 276.05 C 501.68 267.85 502.85 259.56 501.13 251.45 Z" />
</g>
<g id="#f6a504ff">
<path fill="#f6a504" opacity="1.00" d=" M 762.22 237.78 C 773.71 249.28 785.24 260.75 796.69 272.30 C 796.41 273.31 796.13 274.33 795.98 275.38 C 795.88 420.90 796.06 566.47 795.92 712.01 C 795.92 738.43 796.16 764.86 795.79 791.27 C 797.48 795.16 802.21 797.19 802.92 801.75 C 794.27 793.38 785.89 784.73 777.25 776.35 C 774.42 773.37 771.51 770.50 768.56 767.66 L 768.57 767.36 C 768.56 762.50 761.96 760.95 762.07 756.05 C 761.78 734.36 762.29 712.64 761.97 690.94 C 762.20 595.98 761.97 501.01 762.06 406.05 C 762.11 349.95 761.86 293.87 762.22 237.78 Z" />
</g>
<g id="#f5a005ff">
<path fill="#f5a005" opacity="1.00" d=" M 466.20 286.43 C 477.80 274.73 489.48 263.10 501.13 251.45 C 502.85 259.56 501.68 267.85 501.94 276.05 C 502.21 288.70 501.89 301.35 502.04 314.00 C 501.74 336.01 502.18 358.02 501.96 380.03 C 501.94 388.15 502.59 396.35 501.55 404.43 C 499.23 410.77 491.10 413.20 489.52 419.97 C 482.03 427.67 474.33 435.16 466.77 442.79 C 466.18 424.14 466.84 405.47 466.50 386.82 C 466.32 380.99 467.18 375.17 466.53 369.36 C 465.95 364.36 467.18 359.37 466.60 354.38 C 466.01 349.36 467.11 344.35 466.58 339.33 C 465.88 332.31 467.05 325.28 466.58 318.25 C 466.05 309.82 466.61 301.36 467.37 292.97 C 467.67 290.71 466.91 288.53 466.20 286.43 Z" />
<path fill="#f5a005" opacity="1.00" d=" M 461.95 463.34 C 461.94 462.74 461.92 461.55 461.91 460.95 C 469.27 468.42 476.85 475.68 484.09 483.27 C 484.88 485.22 485.58 487.32 487.18 488.80 C 491.03 492.65 494.98 496.40 498.82 500.26 C 500.08 501.63 501.65 503.05 501.81 505.05 C 502.39 509.98 501.98 514.97 502.00 519.93 C 501.98 676.30 502.05 832.66 501.98 989.03 C 501.87 1000.51 502.64 1012.09 501.05 1023.50 C 488.71 1011.19 476.40 998.86 464.08 986.53 C 465.54 983.97 467.10 981.24 466.61 978.18 C 465.93 970.60 467.15 963.01 466.49 955.44 C 465.88 949.29 467.25 943.15 466.32 937.01 C 466.97 929.16 466.19 921.32 466.40 913.46 C 465.70 905.83 467.04 898.22 466.54 890.60 C 466.61 873.05 466.45 855.51 466.66 837.97 C 465.89 830.99 467.13 824.00 466.38 817.01 C 466.61 786.56 466.48 756.10 466.49 725.65 C 467.09 717.99 466.23 710.33 466.36 702.67 C 465.63 696.03 467.35 689.43 466.45 682.80 C 466.43 676.85 466.91 670.91 466.40 664.97 C 467.22 658.28 465.94 651.58 466.71 644.90 C 466.91 641.91 466.49 638.94 466.39 635.96 C 466.68 608.46 466.36 580.96 466.56 553.46 C 467.16 546.26 465.85 539.07 466.63 531.88 C 466.50 524.25 466.23 516.62 466.16 508.99 C 466.42 504.86 467.08 500.72 466.48 496.59 C 465.82 491.61 467.30 486.63 466.49 481.66 C 465.72 477.51 466.59 473.36 467.66 469.36 C 465.75 467.35 463.84 465.35 461.95 463.34 Z" />
</g>
<g id="#fcbf02ff">
<path fill="#fcbf02" opacity="1.00" d=" M 639.12 270.58 C 644.69 264.65 650.63 259.09 656.32 253.29 C 658.62 260.34 657.13 267.79 657.00 275.03 C 656.79 304.35 657.22 333.68 656.92 363.01 C 656.92 458.00 656.93 552.98 656.99 647.97 C 657.00 650.21 656.19 652.34 655.37 654.40 C 654.34 653.46 653.33 652.55 652.34 651.61 C 647.45 646.87 643.08 641.45 637.16 637.92 C 636.34 656.61 637.21 675.33 636.74 694.04 C 636.27 699.17 638.70 703.93 638.88 709.00 C 638.72 807.18 638.91 905.36 638.79 1003.54 C 631.83 1010.72 624.87 1017.92 617.38 1024.54 C 618.69 1020.13 619.09 1015.52 619.16 1010.95 C 619.18 909.97 619.09 808.98 619.18 708.01 C 619.07 704.39 615.67 701.73 616.09 697.99 C 616.22 675.67 616.13 653.35 616.14 631.03 C 616.26 626.14 615.11 620.84 617.86 616.45 L 618.85 617.41 C 625.42 624.05 631.89 630.82 638.87 637.04 C 639.32 631.36 639.14 625.67 638.90 619.99 C 638.56 611.67 639.42 603.35 639.09 595.03 C 638.57 582.35 639.34 569.67 639.17 556.98 C 638.40 532.65 639.55 508.31 638.96 483.97 C 638.57 473.32 639.53 462.67 639.06 452.01 C 638.55 443.36 639.45 434.70 639.00 426.04 C 638.95 403.69 639.32 381.34 639.11 358.99 C 638.79 345.39 638.52 331.76 639.42 318.17 C 639.72 310.56 638.68 302.97 638.97 295.36 C 639.64 289.80 640.77 284.23 640.37 278.60 C 639.95 275.92 639.02 273.32 639.12 270.58 Z" />
</g>
<g id="#f9a904ff">
<path fill="#f9a904" opacity="1.00" d=" M 619.51 290.30 C 625.62 283.32 632.82 277.39 639.12 270.58 C 639.02 273.32 639.95 275.92 640.37 278.60 C 640.77 284.23 639.64 289.80 638.97 295.36 C 638.68 302.97 639.72 310.56 639.42 318.17 C 638.52 331.76 638.79 345.39 639.11 358.99 C 639.32 381.34 638.95 403.69 639.00 426.04 C 639.45 434.70 638.55 443.36 639.06 452.01 C 639.53 462.67 638.57 473.32 638.96 483.97 C 639.55 508.31 638.40 532.65 639.17 556.98 C 639.34 569.67 638.57 582.35 639.09 595.03 C 639.42 603.35 638.56 611.67 638.90 619.99 C 639.14 625.67 639.32 631.36 638.87 637.04 C 631.89 630.82 625.42 624.05 618.85 617.41 C 616.89 611.82 616.50 605.85 616.76 599.98 C 616.84 503.65 616.74 407.32 616.79 311.00 C 616.94 306.79 618.07 302.61 617.41 298.39 C 616.72 295.49 618.37 292.84 619.51 290.30 Z" />
</g>
<g id="#f49905ff">
<path fill="#f49905" opacity="1.00" d=" M 796.69 272.30 C 806.62 282.09 816.42 292.00 826.29 301.86 C 823.95 306.53 823.63 311.81 824.01 316.95 C 823.98 478.63 823.90 640.32 823.98 802.00 C 824.35 811.67 823.09 821.32 823.95 830.99 C 824.01 870.00 823.93 909.01 823.97 948.01 C 824.12 956.88 823.27 965.84 824.81 974.63 C 814.43 985.10 803.98 995.48 793.57 1005.92 C 792.31 1005.86 791.05 1005.83 789.81 1005.80 C 792.11 997.39 790.41 988.61 791.00 980.03 C 790.70 953.71 791.26 927.38 790.90 901.05 C 791.01 887.70 790.72 874.35 791.04 861.00 C 791.20 858.24 790.46 855.57 789.41 853.05 C 800.15 842.26 810.90 831.46 821.78 820.79 C 815.56 814.37 809.04 808.25 802.92 801.75 C 802.21 797.19 797.48 795.16 795.79 791.27 C 796.16 764.86 795.92 738.43 795.92 712.01 C 796.06 566.47 795.88 420.90 795.98 275.38 C 796.13 274.33 796.41 273.31 796.69 272.30 Z" />
</g>
<g id="#f49406ff">
<path fill="#f49406" opacity="1.00" d=" M 441.38 311.19 C 449.67 302.95 457.86 294.62 466.20 286.43 C 466.91 288.53 467.67 290.71 467.37 292.97 C 466.61 301.36 466.05 309.82 466.58 318.25 C 467.05 325.28 465.88 332.31 466.58 339.33 C 467.11 344.35 466.01 349.36 466.60 354.38 C 467.18 359.37 465.95 364.36 466.53 369.36 C 467.18 375.17 466.32 380.99 466.50 386.82 C 466.84 405.47 466.18 424.14 466.77 442.79 C 462.98 446.65 459.14 450.47 455.26 454.25 C 457.47 456.49 459.69 458.72 461.91 460.95 C 461.92 461.55 461.94 462.74 461.95 463.34 C 463.84 465.35 465.75 467.35 467.66 469.36 C 466.59 473.36 465.72 477.51 466.49 481.66 C 467.30 486.63 465.82 491.61 466.48 496.59 C 467.08 500.72 466.42 504.86 466.16 508.99 C 466.23 516.62 466.50 524.25 466.63 531.88 C 465.85 539.07 467.16 546.26 466.56 553.46 C 466.36 580.96 466.68 608.46 466.39 635.96 C 466.49 638.94 466.91 641.91 466.71 644.90 C 465.94 651.58 467.22 658.28 466.40 664.97 C 466.91 670.91 466.43 676.85 466.45 682.80 C 467.35 689.43 465.63 696.03 466.36 702.67 C 466.23 710.33 467.09 717.99 466.49 725.65 C 466.48 756.10 466.61 786.56 466.38 817.01 C 467.13 824.00 465.89 830.99 466.66 837.97 C 466.45 855.51 466.61 873.05 466.54 890.60 C 467.04 898.22 465.70 905.83 466.40 913.46 C 466.19 921.32 466.97 929.16 466.32 937.01 C 467.25 943.15 465.88 949.29 466.49 955.44 C 467.15 963.01 465.93 970.60 466.61 978.18 C 467.10 981.24 465.54 983.97 464.08 986.53 C 456.47 978.90 448.78 971.36 441.28 963.63 C 442.76 963.86 444.26 964.03 445.77 964.20 C 446.68 958.19 447.04 952.12 446.92 946.05 C 446.91 742.39 446.94 538.74 446.92 335.08 C 447.10 326.39 445.83 317.41 449.03 309.10 C 448.39 309.16 447.12 309.29 446.49 309.36 C 445.61 310.49 444.74 311.63 443.87 312.76 C 443.04 312.23 442.21 311.71 441.38 311.19 Z" />
</g>
<g id="#f69006ff">
<path fill="#f69006" opacity="1.00" d=" M 600.66 308.70 C 606.95 302.57 613.28 296.49 619.51 290.30 C 618.37 292.84 616.72 295.49 617.41 298.39 C 618.07 302.61 616.94 306.79 616.79 311.00 C 616.74 407.32 616.84 503.65 616.76 599.98 C 616.50 605.85 616.89 611.82 618.85 617.41 L 617.86 616.45 C 611.11 609.86 604.19 603.45 597.71 596.59 C 595.00 591.42 596.18 585.55 595.96 579.99 C 595.43 572.01 596.69 564.04 596.07 556.07 C 595.34 548.71 596.60 541.34 595.94 533.99 C 595.53 529.00 596.16 524.02 596.23 519.04 C 596.37 512.36 595.41 505.70 596.04 499.04 C 596.66 492.67 595.37 486.36 595.19 480.01 C 595.21 429.66 595.19 379.31 595.21 328.96 C 595.36 324.39 595.25 319.80 594.42 315.29 C 596.53 313.12 598.61 310.92 600.66 308.70 Z" />
</g>
<g id="#f38f06ff">
<path fill="#f38f06" opacity="1.00" d=" M 826.29 301.86 C 836.31 311.84 846.30 321.85 856.28 331.87 C 855.30 334.49 854.21 337.13 854.00 339.96 C 854.14 456.98 853.92 574.01 854.11 691.04 C 853.86 749.35 854.19 807.67 854.09 865.99 C 854.17 892.40 853.89 918.82 854.29 945.22 C 844.41 954.98 834.69 964.88 824.81 974.63 C 823.27 965.84 824.12 956.88 823.97 948.01 C 823.93 909.01 824.01 870.00 823.95 830.99 C 823.09 821.32 824.35 811.67 823.98 802.00 C 823.90 640.32 823.98 478.63 824.01 316.95 C 823.63 311.81 823.95 306.53 826.29 301.86 Z" />
</g>
<g id="#f28a07ff">
<path fill="#f28a07" opacity="1.00" d=" M 446.49 309.36 C 447.12 309.29 448.39 309.16 449.03 309.10 C 445.83 317.41 447.10 326.39 446.92 335.08 C 446.94 538.74 446.91 742.39 446.92 946.05 C 447.04 952.12 446.68 958.19 445.77 964.20 C 444.26 964.03 442.76 963.86 441.28 963.63 C 430.79 953.39 420.50 942.93 410.14 932.56 C 409.43 926.06 408.40 919.58 408.87 913.03 C 408.89 730.02 408.90 547.01 408.89 364.01 C 409.38 356.65 410.88 349.36 410.61 341.95 C 420.89 331.71 431.12 321.43 441.38 311.19 C 442.21 311.71 443.04 312.23 443.87 312.76 C 444.74 311.63 445.61 310.49 446.49 309.36 Z" />
</g>
<g id="#f37c07ff">
<path fill="#f37c07" opacity="1.00" d=" M 582.28 327.36 C 586.23 323.24 590.42 319.36 594.42 315.29 C 595.25 319.80 595.36 324.39 595.21 328.96 C 595.19 379.31 595.21 429.66 595.19 480.01 C 595.37 486.36 596.66 492.67 596.04 499.04 C 595.41 505.70 596.37 512.36 596.23 519.04 C 596.16 524.02 595.53 529.00 595.94 533.99 C 596.60 541.34 595.34 548.71 596.07 556.07 C 596.69 564.04 595.43 572.01 595.96 579.99 C 596.18 585.55 595.00 591.42 597.71 596.59 C 592.98 591.90 588.13 587.31 583.53 582.49 C 581.77 576.85 581.60 570.88 581.83 565.02 C 581.90 509.68 581.80 454.34 581.86 399.00 C 582.10 375.12 581.33 351.22 582.28 327.36 Z" />
</g>
<g id="#f16a09ff">
<path fill="#f16a09" opacity="1.00" d=" M 564.36 345.22 C 570.17 339.10 576.41 333.41 582.28 327.36 C 581.33 351.22 582.10 375.12 581.86 399.00 C 581.80 454.34 581.90 509.68 581.83 565.02 C 581.60 570.88 581.77 576.85 583.53 582.49 C 580.70 579.58 577.71 576.84 574.87 573.94 C 572.57 571.54 570.19 569.22 567.96 566.75 C 566.56 563.55 564.16 560.63 563.82 557.07 C 563.91 491.39 563.81 425.68 563.80 359.99 C 563.93 355.06 564.77 350.16 564.36 345.22 Z" />
</g>
<g id="#f17f07ff">
<path fill="#f17f07" opacity="1.00" d=" M 856.28 331.87 C 872.53 348.04 888.72 364.28 904.93 380.49 C 903.88 382.86 902.79 385.31 902.84 387.97 C 902.97 554.66 902.85 721.36 902.89 888.05 C 902.99 890.34 904.04 892.44 904.93 894.53 C 888.06 911.44 871.15 928.30 854.29 945.22 C 853.89 918.82 854.17 892.40 854.09 865.99 C 854.19 807.67 853.86 749.35 854.11 691.04 C 853.92 574.01 854.14 456.98 854.00 339.96 C 854.21 337.13 855.30 334.49 856.28 331.87 Z" />
</g>
<g id="#f07907ff">
<path fill="#f07907" opacity="1.00" d=" M 354.68 397.90 C 373.30 379.23 391.97 360.61 410.61 341.95 C 410.88 349.36 409.38 356.65 408.89 364.01 C 408.90 547.01 408.89 730.02 408.87 913.03 C 408.40 919.58 409.43 926.06 410.14 932.56 C 391.43 913.96 372.82 895.28 354.18 876.62 C 355.09 872.48 355.48 868.23 354.93 864.02 C 353.77 855.22 355.56 846.38 354.72 837.56 C 355.22 830.03 354.41 822.51 354.96 814.99 C 354.56 802.53 355.10 790.07 354.73 777.61 C 355.10 759.06 354.60 740.51 354.90 721.96 C 354.40 715.27 355.31 708.59 354.69 701.91 C 355.25 694.27 354.47 686.62 354.94 678.97 C 354.30 672.09 355.33 665.20 354.76 658.32 C 355.00 634.55 354.67 610.78 354.93 587.01 C 354.37 580.28 355.33 573.55 354.72 566.82 C 355.23 559.24 354.48 551.66 354.94 544.08 C 354.31 536.64 355.28 529.21 354.71 521.78 C 355.08 513.52 354.53 505.27 354.96 497.02 C 354.12 487.88 355.22 478.72 354.74 469.57 C 355.15 451.04 354.33 432.49 355.14 413.98 C 354.91 411.93 353.43 410.32 352.46 408.58 C 355.51 405.77 354.95 401.60 354.68 397.90 Z" />
</g>
<g id="#ee540bff">
<path fill="#ee540b" opacity="1.00" d=" M 556.61 352.83 C 559.20 350.31 561.85 347.83 564.36 345.22 C 564.77 350.16 563.93 355.06 563.80 359.99 C 563.81 425.68 563.91 491.39 563.82 557.07 C 564.16 560.63 566.56 563.55 567.96 566.75 C 561.50 560.45 555.01 554.17 548.76 547.66 C 547.95 544.90 546.20 542.56 545.13 539.93 C 544.31 535.33 544.88 530.63 544.79 525.99 C 544.80 477.66 544.79 429.33 544.80 381.00 C 544.97 375.41 546.19 369.84 545.38 364.24 C 549.02 360.34 553.03 356.80 556.61 352.83 Z" />
</g>
<g id="#ec3d0dff">
<path fill="#ec3d0d" opacity="1.00" d=" M 531.46 377.93 C 536.16 373.43 540.82 368.88 545.38 364.24 C 546.19 369.84 544.97 375.41 544.80 381.00 C 544.79 429.33 544.80 477.66 544.79 525.99 C 544.88 530.63 544.31 535.33 545.13 539.93 C 546.20 542.56 547.95 544.90 548.76 547.66 C 541.73 540.70 534.62 533.82 527.75 526.71 C 526.80 523.49 525.25 520.37 525.18 516.97 C 525.35 490.98 525.17 464.98 525.29 438.99 C 525.40 427.66 524.66 416.30 526.15 405.03 C 526.05 398.11 525.73 391.19 525.35 384.28 C 527.41 382.19 529.43 380.05 531.46 377.93 Z" />
</g>
<g id="#ef7108ff">
<path fill="#ef7108" opacity="1.00" d=" M 904.93 380.49 C 917.73 393.24 930.49 406.03 943.26 418.81 C 941.86 422.03 940.74 425.45 940.85 429.01 C 941.40 467.01 940.78 505.01 941.10 543.00 C 940.92 606.33 941.01 669.64 940.96 732.96 C 941.07 774.70 940.70 816.45 941.29 858.19 C 929.17 870.29 917.08 882.44 904.93 894.53 C 904.04 892.44 902.99 890.34 902.89 888.05 C 902.85 721.36 902.97 554.66 902.84 387.97 C 902.79 385.31 903.88 382.86 904.93 380.49 Z" />
</g>
<g id="#e9290fff">
<path fill="#e9290f" opacity="1.00" d=" M 513.31 396.28 C 517.26 392.22 521.36 388.31 525.35 384.28 C 525.73 391.19 526.05 398.11 526.15 405.03 C 524.66 416.30 525.40 427.66 525.29 438.99 C 525.17 464.98 525.35 490.98 525.18 516.97 C 525.25 520.37 526.80 523.49 527.75 526.71 C 526.77 525.72 525.78 524.75 524.78 523.81 C 522.08 521.14 519.42 518.43 516.79 515.70 C 516.25 512.63 513.86 510.49 512.46 507.85 C 512.29 503.55 513.27 499.29 513.15 494.98 C 513.21 471.00 512.99 447.02 512.99 423.05 C 513.68 414.12 512.23 405.17 513.31 396.28 Z" />
</g>
<g id="#e71610ff">
<path fill="#e71610" opacity="1.00" d=" M 495.18 414.35 C 501.14 408.24 507.33 402.37 513.31 396.28 C 512.23 405.17 513.68 414.12 512.99 423.05 C 512.99 447.02 513.21 471.00 513.15 494.98 C 513.27 499.29 512.29 503.55 512.46 507.85 C 513.86 510.49 516.25 512.63 516.79 515.70 C 512.40 511.39 507.98 507.09 503.71 502.65 C 503.09 496.48 494.57 494.57 495.17 488.03 C 495.16 473.67 495.28 459.31 495.20 444.95 C 494.75 434.73 497.51 424.49 495.18 414.35 Z" />
</g>
<g id="#ee6b09ff">
<path fill="#ee6b09" opacity="1.00" d=" M 323.83 428.79 C 334.04 418.42 344.38 408.18 354.68 397.90 C 354.95 401.60 355.51 405.77 352.46 408.58 C 353.43 410.32 354.91 411.93 355.14 413.98 C 354.33 432.49 355.15 451.04 354.74 469.57 C 355.22 478.72 354.12 487.88 354.96 497.02 C 354.53 505.27 355.08 513.52 354.71 521.78 C 355.28 529.21 354.31 536.64 354.94 544.08 C 354.48 551.66 355.23 559.24 354.72 566.82 C 355.33 573.55 354.37 580.28 354.93 587.01 C 354.67 610.78 355.00 634.55 354.76 658.32 C 355.33 665.20 354.30 672.09 354.94 678.97 C 354.47 686.62 355.25 694.27 354.69 701.91 C 355.31 708.59 354.40 715.27 354.90 721.96 C 354.60 740.51 355.10 759.06 354.73 777.61 C 355.10 790.07 354.56 802.53 354.96 814.99 C 354.41 822.51 355.22 830.03 354.72 837.56 C 355.56 846.38 353.77 855.22 354.93 864.02 C 355.48 868.23 355.09 872.48 354.18 876.62 C 343.71 866.22 333.31 855.77 322.88 845.33 C 323.17 711.90 322.77 578.46 323.03 445.02 C 322.85 439.62 321.58 433.96 323.83 428.79 Z" />
</g>
<g id="#e50113ff">
<path fill="#e50113" opacity="1.00" d=" M 489.52 419.97 C 491.41 418.10 493.32 416.25 495.18 414.35 C 497.51 424.49 494.75 434.73 495.20 444.95 C 495.28 459.31 495.16 473.67 495.17 488.03 C 494.57 494.57 503.09 496.48 503.71 502.65 C 497.14 496.22 490.70 489.66 484.09 483.27 C 476.85 475.68 469.27 468.42 461.91 460.95 C 459.69 458.72 457.47 456.49 455.26 454.25 C 459.14 450.47 462.98 446.65 466.77 442.79 C 474.33 435.16 482.03 427.67 489.52 419.97 Z" />
<path fill="#e50113" opacity="1.00" d=" M 781.84 784.84 C 780.41 781.95 777.98 779.58 777.25 776.35 C 785.89 784.73 794.27 793.38 802.92 801.75 C 809.04 808.25 815.56 814.37 821.78 820.79 C 810.90 831.46 800.15 842.26 789.41 853.05 C 787.20 855.26 784.99 857.46 782.80 859.68 C 783.04 837.78 782.71 815.88 782.92 793.98 C 782.83 790.92 782.99 787.73 781.84 784.84 Z" />
</g>
<g id="#ed6209ff">
<path fill="#ed6209" opacity="1.00" d=" M 943.26 418.81 C 957.31 432.80 971.31 446.87 985.35 460.88 C 986.61 470.86 985.58 480.92 985.91 490.95 C 985.90 596.25 985.98 701.56 985.88 806.86 C 986.32 811.39 982.94 814.76 980.84 818.40 C 967.91 831.89 954.44 844.90 941.29 858.19 C 940.70 816.45 941.07 774.70 940.96 732.96 C 941.01 669.64 940.92 606.33 941.10 543.00 C 940.78 505.01 941.40 467.01 940.85 429.01 C 940.74 425.45 941.86 422.03 943.26 418.81 Z" />
</g>
<g id="#ed5e0aff">
<path fill="#ed5e0a" opacity="1.00" d=" M 277.82 474.74 C 293.16 459.43 308.42 444.03 323.83 428.79 C 321.58 433.96 322.85 439.62 323.03 445.02 C 322.77 578.46 323.17 711.90 322.88 845.33 C 307.84 830.33 292.84 815.28 277.80 800.27 C 278.43 782.86 277.93 765.42 278.08 748.00 C 278.05 663.37 278.06 578.73 278.10 494.09 C 278.11 487.64 278.12 481.18 277.82 474.74 Z" />
</g>
<g id="#eb550aff">
<path fill="#eb550a" opacity="1.00" d=" M 985.35 460.88 C 1001.84 477.37 1018.33 493.85 1034.81 510.36 C 1033.77 516.85 1034.09 523.44 1034.08 529.98 C 1033.83 557.68 1034.27 585.38 1033.99 613.07 C 1033.86 634.72 1034.27 656.37 1033.93 678.01 C 1033.90 702.66 1034.27 727.31 1033.94 751.96 C 1033.80 755.96 1034.60 759.90 1035.78 763.70 C 1017.44 781.90 999.41 800.44 980.84 818.40 C 982.94 814.76 986.32 811.39 985.88 806.86 C 985.98 701.56 985.90 596.25 985.91 490.95 C 985.58 480.92 986.61 470.86 985.35 460.88 Z" />
</g>
<g id="#eb520bff">
<path fill="#eb520b" opacity="1.00" d=" M 234.78 517.76 C 249.14 503.43 263.46 489.06 277.82 474.74 C 278.12 481.18 278.11 487.64 278.10 494.09 C 278.06 578.73 278.05 663.37 278.08 748.00 C 277.93 765.42 278.43 782.86 277.80 800.27 C 263.44 785.95 249.12 771.59 234.78 757.26 C 235.42 731.18 234.79 705.09 234.95 679.01 C 235.07 631.66 234.93 584.31 235.03 536.97 C 234.96 530.56 234.93 524.16 234.78 517.76 Z" />
</g>
<g id="#f7ad04ff">
<path fill="#f7ad04" opacity="1.00" d=" M 484.09 483.27 C 490.70 489.66 497.14 496.22 503.71 502.65 C 507.98 507.09 512.40 511.39 516.79 515.70 C 519.42 518.43 522.08 521.14 524.78 523.81 C 524.35 523.95 523.48 524.24 523.04 524.39 C 525.37 526.91 527.96 529.18 530.21 531.79 C 532.50 534.29 531.90 537.95 532.14 541.06 C 532.08 706.38 532.14 871.70 532.13 1037.02 C 531.95 1042.24 533.23 1047.96 530.18 1052.62 C 520.45 1042.94 510.76 1033.21 501.05 1023.50 C 502.64 1012.09 501.87 1000.51 501.98 989.03 C 502.05 832.66 501.98 676.30 502.00 519.93 C 501.98 514.97 502.39 509.98 501.81 505.05 C 501.65 503.05 500.08 501.63 498.82 500.26 C 494.98 496.40 491.03 492.65 487.18 488.80 C 485.58 487.32 484.88 485.22 484.09 483.27 Z" />
</g>
<g id="#e9480cff">
<path fill="#e9480c" opacity="1.00" d=" M 1034.08 529.98 C 1034.09 523.44 1033.77 516.85 1034.81 510.36 C 1052.15 527.65 1069.45 544.99 1086.77 562.31 C 1087.18 607.53 1086.72 652.76 1086.98 697.98 C 1086.90 702.16 1087.57 706.49 1086.43 710.57 C 1084.49 713.30 1081.74 715.46 1080.48 718.65 C 1077.35 722.71 1073.23 725.98 1069.75 729.76 C 1058.42 741.07 1047.12 752.41 1035.78 763.70 C 1034.60 759.90 1033.80 755.96 1033.94 751.96 C 1034.27 727.31 1033.90 702.66 1033.93 678.01 C 1034.27 656.37 1033.86 634.72 1033.99 613.07 C 1034.27 585.38 1033.83 557.68 1034.08 529.98 Z" />
</g>
<g id="#e9460cff">
<path fill="#e9460c" opacity="1.00" d=" M 190.13 562.41 C 205.03 547.54 219.90 532.64 234.78 517.76 C 234.93 524.16 234.96 530.56 235.03 536.97 C 234.93 584.31 235.07 631.66 234.95 679.01 C 234.79 705.09 235.42 731.18 234.78 757.26 C 219.88 742.40 205.04 727.48 190.12 712.63 C 189.51 705.77 190.23 698.89 190.03 692.01 C 190.11 648.81 189.91 605.61 190.13 562.41 Z" />
</g>
<g id="#fabb02ff">
<path fill="#fabb02" opacity="1.00" d=" M 523.04 524.39 C 523.48 524.24 524.35 523.95 524.78 523.81 C 525.78 524.75 526.77 525.72 527.75 526.71 C 534.62 533.82 541.73 540.70 548.76 547.66 C 555.01 554.17 561.50 560.45 567.96 566.75 C 570.19 569.22 572.57 571.54 574.87 573.94 C 576.61 578.78 576.03 583.96 575.88 588.99 C 575.75 758.73 575.99 928.48 575.76 1098.22 C 560.56 1083.03 545.37 1067.83 530.18 1052.62 C 533.23 1047.96 531.95 1042.24 532.13 1037.02 C 532.14 871.70 532.08 706.38 532.14 541.06 C 531.90 537.95 532.50 534.29 530.21 531.79 C 527.96 529.18 525.37 526.91 523.04 524.39 Z" />
</g>
<g id="#e83d0cff">
<path fill="#e83d0c" opacity="1.00" d=" M 114.98 637.47 C 140.12 612.55 165.07 587.42 190.13 562.41 C 189.91 605.61 190.11 648.81 190.03 692.01 C 190.23 698.89 189.51 705.77 190.12 712.63 C 165.09 687.56 140.03 662.52 114.98 637.47 Z" />
<path fill="#e83d0c" opacity="1.00" d=" M 1086.98 697.98 C 1086.72 652.76 1087.18 607.53 1086.77 562.31 C 1111.88 587.33 1136.85 612.51 1162.03 637.46 C 1146.61 652.89 1131.19 668.31 1115.76 683.74 C 1103.95 695.32 1092.60 707.40 1080.48 718.65 C 1081.74 715.46 1084.49 713.30 1086.43 710.57 C 1087.57 706.49 1086.90 702.16 1086.98 697.98 Z" />
</g>
<g id="#fccd02ff">
<path fill="#fccd02" opacity="1.00" d=" M 575.88 588.99 C 576.03 583.96 576.61 578.78 574.87 573.94 C 577.71 576.84 580.70 579.58 583.53 582.49 C 588.13 587.31 592.98 591.90 597.71 596.59 C 604.19 603.45 611.11 609.86 617.86 616.45 C 615.11 620.84 616.26 626.14 616.14 631.03 C 616.13 653.35 616.22 675.67 616.09 697.99 C 615.67 701.73 619.07 704.39 619.18 708.01 C 619.09 808.98 619.18 909.97 619.16 1010.95 C 619.09 1015.52 618.69 1020.13 617.38 1024.54 C 616.45 1026.90 615.68 1029.37 615.74 1031.95 C 615.98 1061.96 615.72 1091.97 615.84 1121.97 C 615.81 1126.87 616.64 1132.10 614.17 1136.60 C 601.33 1123.84 588.58 1111.00 575.76 1098.22 C 575.99 928.48 575.75 758.73 575.88 588.99 Z" />
</g>
<g id="#f9ac03ff">
<path fill="#f9ac03" opacity="1.00" d=" M 637.16 637.92 C 643.08 641.45 647.45 646.87 652.34 651.61 C 651.09 657.83 654.41 663.82 653.16 670.02 C 652.19 676.41 653.88 682.80 653.28 689.20 C 653.06 692.48 652.54 695.77 652.85 699.07 C 653.18 701.72 655.34 703.85 655.41 706.55 C 654.32 719.35 655.09 732.21 654.84 745.04 C 654.88 821.70 654.89 898.38 654.84 975.04 C 655.29 979.32 656.20 983.71 654.52 987.87 C 649.49 993.31 643.89 998.18 638.79 1003.54 C 638.91 905.36 638.72 807.18 638.88 709.00 C 638.70 703.93 636.27 699.17 636.74 694.04 C 637.21 675.33 636.34 656.61 637.16 637.92 Z" />
</g>
<g id="#f89e05ff">
<path fill="#f89e05" opacity="1.00" d=" M 652.34 651.61 C 653.33 652.55 654.34 653.46 655.37 654.40 C 657.81 656.65 660.11 659.06 662.34 661.53 C 663.67 665.57 665.11 669.69 665.12 674.01 C 665.16 681.34 665.08 688.67 664.92 696.01 C 664.82 700.93 665.96 705.74 666.30 710.63 C 665.85 748.42 666.28 786.22 666.10 824.02 C 666.14 869.36 666.10 914.71 666.08 960.06 C 666.08 965.53 666.57 971.03 665.99 976.51 C 662.26 980.39 658.34 984.08 654.52 987.87 C 656.20 983.71 655.29 979.32 654.84 975.04 C 654.89 898.38 654.88 821.70 654.84 745.04 C 655.09 732.21 654.32 719.35 655.41 706.55 C 655.34 703.85 653.18 701.72 652.85 699.07 C 652.54 695.77 653.06 692.48 653.28 689.20 C 653.88 682.80 652.19 676.41 653.16 670.02 C 654.41 663.82 651.09 657.83 652.34 651.61 Z" />
</g>
<g id="#f58e06ff">
<path fill="#f58e06" opacity="1.00" d=" M 665.12 674.01 C 665.11 669.69 663.67 665.57 662.34 661.53 C 667.05 666.21 671.88 670.77 676.49 675.57 C 677.87 680.57 678.21 685.80 677.99 690.97 C 677.88 695.20 677.36 699.66 679.31 703.60 C 681.99 709.35 680.78 715.86 680.95 721.99 C 680.89 794.31 680.96 866.64 680.92 938.97 C 681.11 946.50 681.01 954.03 680.77 961.57 C 678.91 963.42 677.13 965.36 675.31 967.26 C 672.23 970.36 669.01 973.33 665.99 976.51 C 666.57 971.03 666.08 965.53 666.08 960.06 C 666.10 914.71 666.14 869.36 666.10 824.02 C 666.28 786.22 665.85 748.42 666.30 710.63 C 665.96 705.74 664.82 700.93 664.92 696.01 C 665.08 688.67 665.16 681.34 665.12 674.01 Z" />
</g>
<g id="#f48007ff">
<path fill="#f48007" opacity="1.00" d=" M 677.99 690.97 C 678.21 685.80 677.87 680.57 676.49 675.57 C 679.78 678.91 683.24 682.09 686.44 685.53 C 687.77 689.23 688.65 693.12 688.46 697.07 C 688.23 702.56 691.25 707.55 691.11 713.04 C 690.84 785.03 691.20 857.01 690.97 929.00 C 690.83 937.21 692.19 945.90 688.66 953.64 C 686.10 956.35 683.41 958.93 680.77 961.57 C 681.01 954.03 681.11 946.50 680.92 938.97 C 680.96 866.64 680.89 794.31 680.95 721.99 C 680.78 715.86 681.99 709.35 679.31 703.60 C 677.36 699.66 677.88 695.20 677.99 690.97 Z" />
</g>
<g id="#f27309ff">
<path fill="#f27309" opacity="1.00" d=" M 688.46 697.07 C 688.65 693.12 687.77 689.23 686.44 685.53 C 690.38 689.44 694.44 693.25 698.23 697.32 C 698.82 701.96 704.57 704.05 704.16 708.97 C 704.12 775.63 704.16 842.30 704.15 908.96 C 704.10 915.25 704.50 921.57 703.71 927.84 C 703.21 931.76 702.82 935.70 702.76 939.67 C 698.19 944.45 693.33 948.95 688.66 953.64 C 692.19 945.90 690.83 937.21 690.97 929.00 C 691.20 857.01 690.84 785.03 691.11 713.04 C 691.25 707.55 688.23 702.56 688.46 697.07 Z" />
</g>
<g id="#f0610aff">
<path fill="#f0610a" opacity="1.00" d=" M 704.16 708.97 C 704.57 704.05 698.82 701.96 698.23 697.32 C 699.77 698.82 701.37 700.29 702.93 701.79 C 708.91 708.21 715.38 714.16 721.50 720.46 C 723.53 728.49 722.68 736.80 722.79 744.99 C 722.84 794.65 722.75 844.31 722.81 893.98 C 722.65 902.92 723.51 911.97 721.59 920.80 C 717.87 924.66 714.00 928.36 710.25 932.19 C 707.76 934.69 705.23 937.14 702.76 939.67 C 702.82 935.70 703.21 931.76 703.71 927.84 C 704.50 921.57 704.10 915.25 704.15 908.96 C 704.16 842.30 704.12 775.63 704.16 708.97 Z" />
</g>
<g id="#ee4f0cff">
<path fill="#ee4f0c" opacity="1.00" d=" M 722.79 744.99 C 722.68 736.80 723.53 728.49 721.50 720.46 C 722.01 720.97 723.02 722.01 723.53 722.52 C 725.43 724.45 727.32 726.40 729.21 728.36 C 729.65 731.34 732.19 733.30 733.33 735.92 C 732.79 754.60 733.08 773.32 733.06 792.01 C 733.09 825.33 733.04 858.64 733.03 891.96 C 733.10 897.57 733.01 903.20 733.67 908.79 C 729.71 912.86 725.57 916.75 721.59 920.80 C 723.51 911.97 722.65 902.92 722.81 893.98 C 722.75 844.31 722.84 794.65 722.79 744.99 Z" />
</g>
<g id="#ed420cff">
<path fill="#ed420c" opacity="1.00" d=" M 733.33 735.92 C 732.19 733.30 729.65 731.34 729.21 728.36 C 733.26 732.30 737.33 736.23 741.23 740.34 C 741.84 743.53 744.20 745.86 746.27 748.20 C 745.37 752.76 745.69 757.41 745.92 762.02 C 745.77 799.33 745.91 836.65 745.91 873.96 C 746.21 881.38 745.25 888.85 746.04 896.24 L 746.10 896.57 C 741.90 900.59 737.77 904.67 733.67 908.79 C 733.01 903.20 733.10 897.57 733.03 891.96 C 733.04 858.64 733.09 825.33 733.06 792.01 C 733.08 773.32 732.79 754.60 733.33 735.92 Z" />
</g>
<g id="#ea310eff">
<path fill="#ea310e" opacity="1.00" d=" M 746.27 748.20 C 744.20 745.86 741.84 743.53 741.23 740.34 C 745.98 745.00 750.74 749.65 755.40 754.40 C 756.84 758.76 757.23 763.39 757.12 767.96 C 756.78 798.65 757.09 829.35 757.01 860.04 C 756.51 868.91 758.09 877.95 755.74 886.65 C 752.54 889.88 749.30 893.07 746.04 896.24 C 745.25 888.85 746.21 881.38 745.91 873.96 C 745.91 836.65 745.77 799.33 745.92 762.02 C 745.69 757.41 745.37 752.76 746.27 748.20 Z" />
</g>
<g id="#e9230fff">
<path fill="#e9230f" opacity="1.00" d=" M 755.40 754.40 C 759.77 758.74 764.07 763.15 768.57 767.36 L 768.56 767.66 C 767.02 777.04 768.33 786.51 768.11 795.95 C 767.87 817.64 767.98 839.33 768.13 861.02 C 768.49 866.01 767.79 870.99 766.54 875.83 C 763.00 879.49 759.32 883.02 755.74 886.65 C 758.09 877.95 756.51 868.91 757.01 860.04 C 757.09 829.35 756.78 798.65 757.12 767.96 C 757.23 763.39 756.84 758.76 755.40 754.40 Z" />
</g>
<g id="#e81410ff">
<path fill="#e81410" opacity="1.00" d=" M 768.56 767.66 C 771.51 770.50 774.42 773.37 777.25 776.35 C 777.98 779.58 780.41 781.95 781.84 784.84 C 782.99 787.73 782.83 790.92 782.92 793.98 C 782.71 815.88 783.04 837.78 782.80 859.68 C 777.44 865.13 771.94 870.43 766.54 875.83 C 767.79 870.99 768.49 866.01 768.13 861.02 C 767.98 839.33 767.87 817.64 768.11 795.95 C 768.33 786.51 767.02 777.04 768.56 767.66 Z" />
</g>
<g id="#f7a904ff">
<path fill="#f7a904" opacity="1.00" d=" M 782.80 859.68 C 784.99 857.46 787.20 855.26 789.41 853.05 C 790.46 855.57 791.20 858.24 791.04 861.00 C 790.72 874.35 791.01 887.70 790.90 901.05 C 791.26 927.38 790.70 953.71 791.00 980.03 C 790.41 988.61 792.11 997.39 789.81 1005.80 C 791.05 1005.83 792.31 1005.86 793.57 1005.92 C 778.29 1021.13 763.12 1036.43 747.82 1051.63 C 746.25 1043.81 747.43 1035.83 746.95 1027.93 C 747.18 1005.63 747.22 983.32 746.90 961.01 C 746.93 944.98 747.13 928.96 747.04 912.94 C 746.97 907.47 747.67 901.90 746.10 896.57 L 746.04 896.24 C 749.30 893.07 752.54 889.88 755.74 886.65 C 759.32 883.02 763.00 879.49 766.54 875.83 C 771.94 870.43 777.44 865.13 782.80 859.68 Z" />
</g>
<g id="#faba02ff">
<path fill="#faba02" opacity="1.00" d=" M 733.67 908.79 C 737.77 904.67 741.90 900.59 746.10 896.57 C 747.67 901.90 746.97 907.47 747.04 912.94 C 747.13 928.96 746.93 944.98 746.90 961.01 C 747.22 983.32 747.18 1005.63 746.95 1027.93 C 747.43 1035.83 746.25 1043.81 747.82 1051.63 C 735.52 1063.95 723.22 1076.30 710.87 1088.58 C 709.92 1083.11 709.81 1077.55 710.02 1072.03 C 710.09 1043.37 710.04 1014.72 710.07 986.06 C 710.16 968.10 709.74 950.14 710.25 932.19 C 714.00 928.36 717.87 924.66 721.59 920.80 C 725.57 916.75 729.71 912.86 733.67 908.79 Z" />
</g>
<g id="#fcc902ff">
<path fill="#fcc902" opacity="1.00" d=" M 702.76 939.67 C 705.23 937.14 707.76 934.69 710.25 932.19 C 709.74 950.14 710.16 968.10 710.07 986.06 C 710.04 1014.72 710.09 1043.37 710.02 1072.03 C 709.81 1077.55 709.92 1083.11 710.87 1088.58 C 699.56 1099.92 688.25 1111.26 676.90 1122.55 C 675.31 1116.14 675.87 1109.53 675.89 1103.01 C 675.80 1067.68 675.91 1032.35 675.85 997.02 C 675.87 987.10 676.47 977.13 675.31 967.26 C 677.13 965.36 678.91 963.42 680.77 961.57 C 683.41 958.93 686.10 956.35 688.66 953.64 C 693.33 948.95 698.19 944.45 702.76 939.67 Z" />
</g>
</svg>
