<?xml version="1.0" encoding="UTF-8" ?>
<!DOCTYPE svg PUBLIC "-//W3C//DTD SVG 1.1//EN" "http://www.w3.org/Graphics/SVG/1.1/DTD/svg11.dtd">
<svg width="1276pt" height="1276pt" viewBox="0 0 1276 1276" version="1.1" xmlns="http://www.w3.org/2000/svg">
<g id="#0079c2ff">
<path fill="#0079c2" opacity="1.00" d=" M 562.07 187.98 C 584.41 183.47 607.20 179.79 630.07 181.43 C 655.39 183.23 680.34 188.46 704.98 194.39 C 768.89 210.30 831.27 231.81 892.75 255.30 C 894.44 256.21 896.93 256.30 898.00 257.98 C 898.62 269.66 899.07 281.36 899.72 293.05 C 916.17 300.65 932.51 308.50 948.95 316.15 C 951.72 317.61 954.83 318.53 957.38 320.38 C 958.10 329.92 958.43 339.50 959.13 349.04 C 979.98 357.43 1000.82 365.85 1021.61 374.37 C 1022.41 382.80 1021.67 391.49 1021.41 400.01 C 1018.84 442.58 1010.69 484.72 998.44 525.55 C 997.92 528.31 998.25 531.15 998.19 533.95 C 998.19 720.62 998.19 907.28 998.19 1093.95 C 747.47 1093.93 496.76 1094.00 246.05 1093.91 C 246.17 913.60 246.04 733.30 246.11 552.99 C 246.26 549.43 244.50 546.24 243.45 542.95 C 228.64 500.35 218.74 455.97 214.92 411.02 C 213.80 397.78 213.13 384.51 213.52 371.22 C 237.32 361.41 261.26 351.90 285.10 342.18 C 285.55 332.01 286.29 321.87 286.70 311.71 C 305.36 303.74 324.05 295.84 342.73 287.94 C 343.41 277.20 343.94 266.46 344.43 255.72 C 392.92 238.19 441.47 220.69 490.97 206.18 C 514.45 199.28 538.11 192.94 562.07 187.98 M 531.90 236.62 C 486.91 247.69 442.80 262.00 399.15 277.46 C 395.09 278.83 391.12 280.58 386.89 281.38 C 386.44 293.71 385.68 306.02 385.30 318.35 C 366.09 325.26 346.82 332.02 327.55 338.75 C 326.68 350.62 326.80 362.65 325.55 374.45 C 303.65 382.49 281.65 390.32 259.66 398.12 C 259.50 402.40 259.62 406.68 259.82 410.96 C 262.05 451.84 270.95 492.19 284.00 530.93 C 295.86 566.17 311.73 600.05 331.32 631.66 C 367.83 690.88 416.08 742.40 470.66 785.32 C 516.43 821.33 566.64 851.51 619.16 876.58 C 621.35 876.51 623.30 875.03 625.37 874.32 C 694.63 844.87 759.31 803.89 813.52 751.50 C 848.53 717.80 878.94 679.40 904.11 637.85 C 905.89 635.12 907.59 632.33 909.14 629.47 L 908.72 629.09 L 909.66 628.60 C 914.52 619.39 919.90 610.44 924.32 600.99 C 924.43 600.69 924.66 600.07 924.78 599.76 L 924.85 599.51 C 926.12 598.80 926.40 597.22 927.09 596.05 C 928.89 592.01 931.05 588.14 932.71 584.05 C 935.91 576.24 939.67 568.68 942.82 560.84 C 954.69 532.36 964.18 502.89 971.31 472.87 C 976.87 448.31 981.62 423.42 982.88 398.24 C 960.55 389.78 938.14 381.51 915.82 373.03 C 914.49 372.71 914.95 371.01 914.75 370.04 C 914.46 360.79 913.61 351.56 913.34 342.31 C 895.26 335.35 877.05 328.69 858.93 321.83 C 858.42 310.04 857.74 298.25 857.30 286.45 C 855.51 286.06 853.73 285.65 852.03 285.02 C 830.76 277.12 809.38 269.53 787.86 262.33 C 749.77 249.73 711.27 238.06 671.94 229.98 C 649.96 225.65 627.52 222.13 605.06 223.87 C 580.33 225.72 555.98 230.83 531.90 236.62 M 933.70 667.21 C 923.60 682.74 913.12 698.07 901.55 712.55 C 901.08 713.10 900.80 713.74 900.70 714.46 C 897.12 717.67 894.54 721.77 891.40 725.38 C 871.87 749.00 850.47 771.07 827.51 791.36 C 826.19 792.66 824.30 793.63 823.63 795.44 C 822.54 796.10 821.49 796.81 820.48 797.58 C 797.59 817.36 773.20 835.40 747.75 851.76 C 746.04 852.98 743.80 853.70 742.63 855.53 C 735.03 859.39 728.06 864.37 720.60 868.49 C 693.96 883.99 666.34 897.81 638.05 910.06 C 630.71 913.03 623.56 916.63 616.00 918.97 C 605.04 914.57 594.44 909.26 583.75 904.24 C 556.20 890.78 529.25 876.04 503.39 859.55 C 502.46 859.09 501.61 858.20 500.55 858.20 C 498.02 855.66 494.80 854.05 491.86 852.08 C 457.06 829.18 424.10 803.41 393.98 774.62 C 373.75 754.94 354.37 734.34 336.90 712.15 C 335.18 709.84 333.43 707.53 331.24 705.65 C 331.08 704.90 330.77 704.23 330.32 703.63 C 313.50 681.63 298.10 658.52 284.57 634.35 C 279.37 625.71 275.43 616.40 270.35 607.71 C 267.45 601.43 264.70 595.08 261.35 589.04 C 261.53 647.35 261.05 705.65 261.15 763.96 C 261.18 768.41 260.90 772.90 261.57 777.33 C 261.39 784.56 261.57 791.81 261.45 799.05 C 261.46 801.49 261.23 804.01 261.98 806.40 C 261.70 807.89 261.53 809.41 261.47 810.94 C 261.47 848.64 261.44 886.34 261.35 924.04 C 261.31 925.16 261.45 926.27 261.79 927.36 C 261.05 939.54 261.64 951.77 261.43 963.98 C 261.44 1001.10 261.23 1038.22 261.39 1075.33 C 501.32 1075.29 741.25 1075.41 981.18 1075.28 C 981.23 1054.84 981.17 1034.41 981.18 1013.98 C 980.93 1003.43 981.70 992.83 980.76 982.32 L 981.13 981.82 C 981.05 965.64 981.65 949.42 980.79 933.28 L 981.15 932.81 C 981.34 908.52 981.09 884.23 981.17 859.94 C 981.05 854.72 981.55 849.45 980.62 844.27 C 981.41 843.01 981.14 841.44 981.25 840.04 C 981.15 829.38 981.15 818.72 981.17 808.07 C 981.15 803.80 981.42 799.50 980.61 795.29 C 981.41 793.98 981.18 792.40 981.27 790.96 C 981.15 773.98 981.20 757.01 981.13 740.03 C 980.84 730.14 981.67 720.20 980.64 710.36 L 981.01 709.84 C 981.25 694.74 981.28 679.60 980.84 664.50 C 981.52 661.37 981.13 658.14 981.19 654.97 C 981.10 628.67 980.98 602.37 980.80 576.08 C 967.65 607.69 951.88 638.20 933.70 667.21 Z" />
<path fill="#0079c2" opacity="1.00" d=" M 563.12 290.87 C 576.95 285.96 591.44 282.96 605.99 281.23 C 605.73 450.81 605.96 620.40 605.88 789.99 C 605.99 801.95 605.65 813.92 606.07 825.87 C 586.30 808.40 570.54 786.91 556.25 764.87 C 536.43 733.77 520.37 700.39 506.87 666.11 C 504.84 661.09 503.16 655.92 500.80 651.05 C 487.08 666.25 473.50 681.58 459.96 696.95 C 446.42 684.61 435.30 669.88 425.34 654.57 C 407.57 627.01 393.25 597.38 380.65 567.16 C 366.33 532.36 354.26 496.57 345.70 459.91 C 341.83 443.34 339.00 426.52 337.62 409.56 C 351.80 404.01 366.97 401.09 382.12 399.83 C 389.92 443.32 400.61 486.40 416.12 527.82 C 428.15 559.97 443.06 591.22 462.60 619.52 C 463.52 620.96 464.27 622.50 465.05 624.03 C 470.67 612.05 476.45 600.14 482.07 588.16 C 470.54 544.22 460.28 499.89 452.93 455.04 C 449.01 430.51 445.77 405.81 445.05 380.96 C 444.56 369.77 445.08 358.53 446.33 347.41 C 461.62 343.91 476.70 339.22 492.29 337.19 C 495.07 384.99 499.76 432.69 506.51 480.09 C 513.18 525.14 521.41 570.19 535.66 613.53 C 542.36 633.05 549.94 652.63 561.82 669.65 C 561.74 544.79 561.86 419.93 561.76 295.07 C 561.99 293.67 561.01 291.18 563.12 290.87 Z" />
<path fill="#0079c2" opacity="1.00" d=" M 633.04 281.22 C 650.66 283.83 667.90 288.60 684.94 293.73 C 706.89 300.56 728.41 308.84 748.99 319.10 C 761.10 325.28 773.17 331.75 783.94 340.12 C 798.17 351.06 811.19 363.79 821.50 378.53 C 831.49 392.85 838.74 409.47 840.16 427.01 C 841.35 442.39 835.56 457.50 826.95 470.02 C 813.83 488.90 795.57 503.76 775.83 515.29 C 791.00 519.14 805.54 526.31 817.03 537.04 C 825.83 545.31 832.40 556.06 835.14 567.87 C 838.56 584.04 839.73 600.96 836.10 617.21 C 830.93 640.67 816.62 660.56 802.70 679.61 C 773.41 721.54 733.68 754.77 692.52 784.52 C 673.15 798.37 653.35 811.62 633.09 824.12 C 633.22 723.76 633.11 623.39 633.15 523.03 C 633.07 442.43 633.30 361.82 633.04 281.22 M 677.22 337.05 C 677.28 393.11 677.31 449.16 677.20 505.21 C 692.47 503.14 707.49 499.25 722.10 494.38 C 739.84 488.26 757.22 479.83 771.04 466.91 C 781.59 456.99 789.84 443.76 790.99 429.07 C 791.70 417.15 787.14 405.46 780.08 396.02 C 770.94 383.74 758.57 374.29 745.65 366.31 C 725.77 354.18 704.11 345.24 682.02 338.04 C 680.46 337.49 678.84 337.24 677.22 337.05 M 721.94 557.96 C 706.41 566.92 692.10 577.91 678.90 590.02 C 678.84 639.03 679.04 688.05 678.80 737.06 C 679.59 736.10 680.33 735.09 681.22 734.23 C 705.52 719.72 726.71 700.61 746.45 680.46 C 759.32 667.10 771.30 652.65 780.21 636.30 C 788.51 621.01 794.07 603.54 792.37 585.98 C 791.06 574.86 787.94 563.30 780.20 554.86 C 774.21 548.17 764.95 544.95 756.08 545.73 C 743.86 546.75 732.50 552.04 721.94 557.96 Z" />
</g>
<g id="#ffffffff">
<path fill="#ffffff" opacity="1.00" d=" M 531.90 236.62 C 555.98 230.83 580.33 225.72 605.06 223.87 C 627.52 222.13 649.96 225.65 671.94 229.98 C 711.27 238.06 749.77 249.73 787.86 262.33 C 809.38 269.53 830.76 277.12 852.03 285.02 C 853.73 285.65 855.51 286.06 857.30 286.45 C 857.74 298.25 858.42 310.04 858.93 321.83 C 877.05 328.69 895.26 335.35 913.34 342.31 C 913.61 351.56 914.46 360.79 914.75 370.04 C 914.95 371.01 914.49 372.71 915.82 373.03 C 938.14 381.51 960.55 389.78 982.88 398.24 C 981.62 423.42 976.87 448.31 971.31 472.87 C 964.18 502.89 954.69 532.36 942.82 560.84 C 939.67 568.68 935.91 576.24 932.71 584.05 C 932.80 582.93 932.97 580.68 933.06 579.56 C 930.63 582.26 929.35 585.67 927.84 588.91 C 920.03 605.05 911.44 620.81 902.25 636.20 C 902.72 636.61 903.65 637.44 904.11 637.85 C 878.94 679.40 848.53 717.80 813.52 751.50 C 759.31 803.89 694.63 844.87 625.37 874.32 C 623.30 875.03 621.35 876.51 619.16 876.58 C 566.64 851.51 516.43 821.33 470.66 785.32 C 416.08 742.40 367.83 690.88 331.32 631.66 C 311.73 600.05 295.86 566.17 284.00 530.93 C 270.95 492.19 262.05 451.84 259.82 410.96 C 259.62 406.68 259.50 402.40 259.66 398.12 C 281.65 390.32 303.65 382.49 325.55 374.45 C 326.80 362.65 326.68 350.62 327.55 338.75 C 346.82 332.02 366.09 325.26 385.30 318.35 C 385.68 306.02 386.44 293.71 386.89 281.38 C 391.12 280.58 395.09 278.83 399.15 277.46 C 442.80 262.00 486.91 247.69 531.90 236.62 M 563.12 290.87 C 561.01 291.18 561.99 293.67 561.76 295.07 C 561.86 419.93 561.74 544.79 561.82 669.65 C 549.94 652.63 542.36 633.05 535.66 613.53 C 521.41 570.19 513.18 525.14 506.51 480.09 C 499.76 432.69 495.07 384.99 492.29 337.19 C 476.70 339.22 461.62 343.91 446.33 347.41 C 445.08 358.53 444.56 369.77 445.05 380.96 C 445.77 405.81 449.01 430.51 452.93 455.04 C 460.28 499.89 470.54 544.22 482.07 588.16 C 476.45 600.14 470.67 612.05 465.05 624.03 C 464.27 622.50 463.52 620.96 462.60 619.52 C 443.06 591.22 428.15 559.97 416.12 527.82 C 400.61 486.40 389.92 443.32 382.12 399.83 C 366.97 401.09 351.80 404.01 337.62 409.56 C 339.00 426.52 341.83 443.34 345.70 459.91 C 354.26 496.57 366.33 532.36 380.65 567.16 C 393.25 597.38 407.57 627.01 425.34 654.57 C 435.30 669.88 446.42 684.61 459.96 696.95 C 473.50 681.58 487.08 666.25 500.80 651.05 C 503.16 655.92 504.84 661.09 506.87 666.11 C 520.37 700.39 536.43 733.77 556.25 764.87 C 570.54 786.91 586.30 808.40 606.07 825.87 C 605.65 813.92 605.99 801.95 605.88 789.99 C 605.96 620.40 605.73 450.81 605.99 281.23 C 591.44 282.96 576.95 285.96 563.12 290.87 M 633.04 281.22 C 633.30 361.82 633.07 442.43 633.15 523.03 C 633.11 623.39 633.22 723.76 633.09 824.12 C 653.35 811.62 673.15 798.37 692.52 784.52 C 733.68 754.77 773.41 721.54 802.70 679.61 C 816.62 660.56 830.93 640.67 836.10 617.21 C 839.73 600.96 838.56 584.04 835.14 567.87 C 832.40 556.06 825.83 545.31 817.03 537.04 C 805.54 526.31 791.00 519.14 775.83 515.29 C 795.57 503.76 813.83 488.90 826.95 470.02 C 835.56 457.50 841.35 442.39 840.16 427.01 C 838.74 409.47 831.49 392.85 821.50 378.53 C 811.19 363.79 798.17 351.06 783.94 340.12 C 773.17 331.75 761.10 325.28 748.99 319.10 C 728.41 308.84 706.89 300.56 684.94 293.73 C 667.90 288.60 650.66 283.83 633.04 281.22 Z" />
<path fill="#ffffff" opacity="1.00" d=" M 677.22 337.05 C 678.84 337.24 680.46 337.49 682.02 338.04 C 704.11 345.24 725.77 354.18 745.65 366.31 C 758.57 374.29 770.94 383.74 780.08 396.02 C 787.14 405.46 791.70 417.15 790.99 429.07 C 789.84 443.76 781.59 456.99 771.04 466.91 C 757.22 479.83 739.84 488.26 722.10 494.38 C 707.49 499.25 692.47 503.14 677.20 505.21 C 677.31 449.16 677.28 393.11 677.22 337.05 Z" />
<path fill="#ffffff" opacity="1.00" d=" M 721.94 557.96 C 732.50 552.04 743.86 546.75 756.08 545.73 C 764.95 544.95 774.21 548.17 780.20 554.86 C 787.94 563.30 791.06 574.86 792.37 585.98 C 794.07 603.54 788.51 621.01 780.21 636.30 C 771.30 652.65 759.32 667.10 746.45 680.46 C 726.71 700.61 705.52 719.72 681.22 734.23 C 680.33 735.09 679.59 736.10 678.80 737.06 C 679.04 688.05 678.84 639.03 678.90 590.02 C 692.10 577.91 706.41 566.92 721.94 557.96 Z" />
<path fill="#ffffff" opacity="1.00" d=" M 919.19 609.08 C 920.73 606.28 921.96 603.23 924.32 600.99 C 919.90 610.44 914.52 619.39 909.66 628.60 C 908.73 626.87 910.07 625.30 910.85 623.85 C 913.78 619.01 916.49 614.05 919.19 609.08 Z" />
</g>
<g id="#006bacff">
<path fill="#006bac" opacity="1.00" d=" M 933.70 667.21 C 951.88 638.20 967.65 607.69 980.80 576.08 C 980.98 602.37 981.10 628.67 981.19 654.97 C 981.13 658.14 981.52 661.37 980.84 664.50 C 979.51 665.92 978.36 668.16 976.11 668.00 C 969.07 668.23 962.03 667.83 954.99 668.00 C 947.89 667.78 940.70 668.75 933.70 667.21 Z" />
</g>
<g id="#aed4ecff">
<path fill="#aed4ec" opacity="1.00" d=" M 927.84 588.91 C 929.35 585.67 930.63 582.26 933.06 579.56 C 932.97 580.68 932.80 582.93 932.71 584.05 C 931.05 588.14 928.89 592.01 927.09 596.05 C 926.40 597.22 926.12 598.80 924.85 599.51 L 924.77 599.56 C 924.77 599.61 924.78 599.71 924.78 599.76 C 924.66 600.07 924.43 600.69 924.32 600.99 C 921.96 603.23 920.73 606.28 919.19 609.08 C 916.49 614.05 913.78 619.01 910.85 623.85 C 910.07 625.30 908.73 626.87 909.66 628.60 L 908.72 629.09 L 909.14 629.47 C 907.59 632.33 905.89 635.12 904.11 637.85 C 903.65 637.44 902.72 636.61 902.25 636.20 C 911.44 620.81 920.03 605.05 927.84 588.91 Z" />
</g>
<g id="#0069a8ff">
<path fill="#0069a8" opacity="1.00" d=" M 261.35 589.04 C 264.70 595.08 267.45 601.43 270.35 607.71 C 275.43 616.40 279.37 625.71 284.57 634.35 C 298.10 658.52 313.50 681.63 330.32 703.63 C 330.77 704.23 331.08 704.90 331.24 705.65 C 331.55 707.85 332.79 709.70 334.08 711.46 C 326.42 710.56 318.70 711.15 311.01 711.01 C 295.20 710.87 279.38 711.23 263.57 710.80 C 263.13 709.49 262.70 708.20 262.26 706.91 C 262.29 718.12 261.72 729.35 262.38 740.55 C 261.21 752.77 262.46 765.08 261.57 777.33 C 260.90 772.90 261.18 768.41 261.15 763.96 C 261.05 705.65 261.53 647.35 261.35 589.04 Z" />
</g>
<g id="#edf6fbff">
<path fill="#edf6fb" opacity="1.00" d=" M 924.77 599.56 L 924.85 599.51 L 924.78 599.76 C 924.78 599.71 924.77 599.61 924.77 599.56 Z" />
</g>
<g id="#0067a6ff">
<path fill="#0067a6" opacity="1.00" d=" M 976.11 668.00 C 978.36 668.16 979.51 665.92 980.84 664.50 C 981.28 679.60 981.25 694.74 981.01 709.84 L 980.64 710.36 C 978.05 713.20 979.28 717.38 978.88 720.87 C 961.94 721.37 944.97 720.89 928.02 721.05 C 917.72 720.79 907.39 721.51 897.12 720.72 C 898.71 718.88 900.66 717.07 900.70 714.46 C 900.80 713.74 901.08 713.10 901.55 712.55 C 913.12 698.07 923.60 682.74 933.70 667.21 C 940.70 668.75 947.89 667.78 954.99 668.00 C 962.03 667.83 969.07 668.23 976.11 668.00 Z" />
</g>
<g id="#0064a1ff">
<path fill="#0064a1" opacity="1.00" d=" M 334.08 711.46 C 332.79 709.70 331.55 707.85 331.24 705.65 C 333.43 707.53 335.18 709.84 336.90 712.15 C 354.37 734.34 373.75 754.94 393.98 774.62 C 393.73 775.39 393.50 776.17 393.27 776.96 C 363.84 777.18 334.41 776.96 304.98 777.04 C 291.09 776.88 277.18 777.38 263.31 776.80 C 262.69 764.72 264.16 752.53 262.38 740.55 C 261.72 729.35 262.29 718.12 262.26 706.91 C 262.70 708.20 263.13 709.49 263.57 710.80 C 279.38 711.23 295.20 710.87 311.01 711.01 C 318.70 711.15 326.42 710.56 334.08 711.46 Z" />
</g>
<g id="#00629eff">
<path fill="#00629e" opacity="1.00" d=" M 978.88 720.87 C 979.28 717.38 978.05 713.20 980.64 710.36 C 981.67 720.20 980.84 730.14 981.13 740.03 C 981.20 757.01 981.15 773.98 981.27 790.96 C 981.18 792.40 981.41 793.98 980.61 795.29 C 978.85 797.79 978.89 800.91 978.68 803.84 C 952.44 804.23 926.19 803.89 899.95 803.99 C 871.95 803.83 843.94 804.30 815.95 803.79 C 818.18 800.67 822.79 799.46 823.63 795.44 C 824.30 793.63 826.19 792.66 827.51 791.36 C 850.47 771.07 871.87 749.00 891.40 725.38 C 894.54 721.77 897.12 717.67 900.70 714.46 C 900.66 717.07 898.71 718.88 897.12 720.72 C 907.39 721.51 917.72 720.79 928.02 721.05 C 944.97 720.89 961.94 721.37 978.88 720.87 Z" />
</g>
<g id="#005e98ff">
<path fill="#005e98" opacity="1.00" d=" M 262.38 740.55 C 264.16 752.53 262.69 764.72 263.31 776.80 C 277.18 777.38 291.09 776.88 304.98 777.04 C 334.41 776.96 363.84 777.18 393.27 776.96 C 393.50 776.17 393.73 775.39 393.98 774.62 C 424.10 803.41 457.06 829.18 491.86 852.08 C 494.80 854.05 498.02 855.66 500.55 858.20 C 495.75 859.24 490.83 859.16 485.95 859.02 C 436.31 859.02 386.66 859.07 337.02 859.01 C 312.40 858.80 287.77 859.40 263.17 858.80 C 262.88 846.54 263.20 834.27 263.06 822.00 C 262.89 816.80 263.82 811.41 261.98 806.40 C 261.23 804.01 261.46 801.49 261.45 799.05 C 261.57 791.81 261.39 784.56 261.57 777.33 C 262.46 765.08 261.21 752.77 262.38 740.55 Z" />
</g>
<g id="#005d97ff">
<path fill="#005d97" opacity="1.00" d=" M 820.48 797.58 C 821.49 796.81 822.54 796.10 823.63 795.44 C 822.79 799.46 818.18 800.67 815.95 803.79 C 843.94 804.30 871.95 803.83 899.95 803.99 C 926.19 803.89 952.44 804.23 978.68 803.84 C 978.89 800.91 978.85 797.79 980.61 795.29 C 981.42 799.50 981.15 803.80 981.17 808.07 C 981.15 818.72 981.15 829.38 981.25 840.04 C 981.14 841.44 981.41 843.01 980.62 844.27 C 977.64 848.54 979.61 854.04 978.85 858.88 C 899.38 859.29 819.89 858.86 740.41 859.08 C 741.18 857.91 741.94 856.74 742.63 855.53 C 743.80 853.70 746.04 852.98 747.75 851.76 C 773.20 835.40 797.59 817.36 820.48 797.58 Z" />
</g>
<g id="#005890ff">
<path fill="#005890" opacity="1.00" d=" M 261.98 806.40 C 263.82 811.41 262.89 816.80 263.06 822.00 C 263.20 834.27 262.88 846.54 263.17 858.80 C 287.77 859.40 312.40 858.80 337.02 859.01 C 386.66 859.07 436.31 859.02 485.95 859.02 C 490.83 859.16 495.75 859.24 500.55 858.20 C 501.61 858.20 502.46 859.09 503.39 859.55 C 529.25 876.04 556.20 890.78 583.75 904.24 C 594.44 909.26 605.04 914.57 616.00 918.97 C 623.56 916.63 630.71 913.03 638.05 910.06 C 666.34 897.81 693.96 883.99 720.60 868.49 C 728.06 864.37 735.03 859.39 742.63 855.53 C 741.94 856.74 741.18 857.91 740.41 859.08 C 819.89 858.86 899.38 859.29 978.85 858.88 C 979.61 854.04 977.64 848.54 980.62 844.27 C 981.55 849.45 981.05 854.72 981.17 859.94 C 981.09 884.23 981.34 908.52 981.15 932.81 L 980.79 933.28 C 979.99 934.36 978.92 935.44 979.00 936.91 C 978.73 941.86 979.18 946.83 978.81 951.79 C 968.19 952.39 957.52 951.31 946.93 952.47 C 950.47 947.53 954.41 942.91 957.99 938.02 C 957.84 937.59 957.54 936.73 957.39 936.30 C 942.15 927.39 924.72 921.84 906.95 922.21 C 892.12 921.67 877.12 925.71 864.90 934.19 C 864.12 934.36 862.56 934.70 861.78 934.87 C 850.77 943.19 844.05 956.93 844.61 970.79 C 837.74 971.18 830.84 971.02 823.97 970.73 C 828.16 969.60 832.49 969.30 836.78 968.78 C 836.81 968.23 836.86 967.14 836.88 966.59 C 836.85 959.28 836.78 951.98 836.90 944.68 C 836.62 944.74 836.07 944.86 835.80 944.92 C 826.29 943.28 816.58 944.20 806.99 943.99 C 683.65 943.93 560.30 943.97 436.96 943.98 C 428.01 944.06 419.06 943.67 410.13 944.28 C 407.01 944.82 405.49 940.54 402.27 941.50 C 390.44 931.18 375.50 924.84 360.01 922.70 C 347.28 921.97 334.09 922.86 322.42 928.46 C 314.60 931.99 307.62 937.23 301.72 943.45 C 299.88 942.68 298.77 944.62 297.67 945.70 C 293.78 950.55 290.53 955.88 287.67 961.40 C 279.53 960.86 271.38 961.50 263.25 960.86 C 262.71 951.59 263.16 942.30 263.10 933.02 C 263.14 931.04 262.38 929.19 261.79 927.36 C 261.45 926.27 261.31 925.16 261.35 924.04 C 261.44 886.34 261.47 848.64 261.47 810.94 C 261.53 809.41 261.70 807.89 261.98 806.40 Z" />
</g>
<g id="#fffffeff">
<path fill="#fffffe" opacity="1.00" d=" M 864.90 934.19 C 877.12 925.71 892.12 921.67 906.95 922.21 C 924.72 921.84 942.15 927.39 957.39 936.30 C 951.09 944.13 944.94 952.08 938.72 959.97 C 932.77 956.88 927.08 953.22 920.68 951.09 C 909.03 946.85 895.96 946.43 884.18 950.39 C 880.14 951.83 876.02 954.05 873.87 957.94 C 871.30 962.53 872.19 969.30 877.01 972.08 C 883.22 975.84 890.55 977.03 897.53 978.60 C 914.32 981.66 931.80 984.77 946.17 994.59 C 952.65 999.34 958.00 1006.01 959.81 1013.97 C 962.84 1027.41 959.23 1043.28 947.67 1051.71 C 941.82 1056.97 935.01 1061.26 927.25 1062.99 C 900.53 1069.21 871.52 1062.33 849.49 1046.25 C 846.59 1043.83 843.72 1041.31 840.32 1039.61 C 845.90 1033.36 851.65 1027.25 857.19 1020.96 C 862.63 1023.54 866.68 1028.23 871.99 1031.07 C 883.84 1038.36 898.31 1041.12 912.04 1038.98 C 916.76 1038.16 921.68 1036.62 925.11 1033.09 C 928.77 1029.39 929.55 1023.30 927.28 1018.69 C 924.46 1013.78 918.73 1011.82 913.66 1010.14 C 898.10 1005.43 881.37 1004.67 866.57 997.51 C 858.64 993.83 851.56 987.45 848.86 978.94 C 845.87 969.53 846.47 958.84 851.11 950.05 C 854.32 943.71 859.35 938.53 864.90 934.19 Z" />
<path fill="#fffffe" opacity="1.00" d=" M 322.42 928.46 C 334.09 922.86 347.28 921.97 360.01 922.70 C 375.50 924.84 390.44 931.18 402.27 941.50 C 404.57 943.64 406.83 945.85 409.11 948.03 C 403.38 954.27 397.63 960.49 392.03 966.85 C 385.15 959.59 377.64 952.35 368.00 949.01 C 355.25 944.41 339.86 945.36 328.92 953.87 C 315.31 964.15 310.37 982.58 312.81 998.94 C 314.56 1011.87 321.16 1024.61 332.40 1031.70 C 342.01 1038.04 354.14 1038.97 365.25 1037.15 C 371.68 1035.83 378.19 1033.63 383.38 1029.50 C 384.39 1022.78 384.46 1015.94 385.26 1009.19 C 374.51 1008.56 363.74 1008.01 352.98 1007.51 C 352.79 999.56 352.94 991.61 352.88 983.66 C 371.56 984.79 390.24 985.98 408.92 987.02 C 408.90 987.82 408.84 989.41 408.81 990.21 C 407.73 1007.13 406.90 1024.09 405.52 1040.98 C 400.83 1048.97 393.44 1055.18 384.98 1058.90 C 369.83 1065.71 352.36 1066.87 336.28 1062.96 C 321.41 1059.35 307.77 1050.68 298.45 1038.52 C 277.41 1011.30 278.17 968.95 301.72 943.45 C 307.62 937.23 314.60 931.99 322.42 928.46 Z" />
<path fill="#fffffe" opacity="1.00" d=" M 811.08 951.06 C 819.32 949.05 827.77 947.75 835.80 944.92 C 836.07 944.86 836.62 944.74 836.90 944.68 C 836.78 951.98 836.85 959.28 836.88 966.59 C 831.57 966.80 826.42 968.13 821.22 969.04 C 798.16 973.32 775.13 977.75 752.05 981.94 C 751.74 989.27 751.98 996.62 751.91 1003.97 C 767.26 1002.33 782.59 1000.36 797.92 998.49 C 807.50 997.48 817.01 995.64 826.66 995.43 C 826.72 1002.81 826.61 1010.18 826.72 1017.56 C 817.07 1018.01 807.52 1019.67 797.90 1020.58 C 782.64 1022.31 767.33 1023.55 751.99 1024.42 C 751.81 1031.76 751.95 1039.11 751.91 1046.46 C 770.27 1046.47 788.63 1045.70 806.96 1044.65 C 816.94 1044.30 826.89 1043.11 836.89 1043.16 C 836.81 1050.50 836.84 1057.85 836.86 1065.19 C 798.36 1065.14 759.86 1065.29 721.36 1065.12 C 721.37 1032.37 721.41 999.61 721.33 966.86 C 724.63 966.58 727.96 966.36 731.24 965.77 C 758.01 961.77 784.64 956.87 811.08 951.06 Z" />
<path fill="#fffffe" opacity="1.00" d=" M 466.19 964.11 C 467.14 963.03 468.12 961.05 469.88 961.66 C 477.50 962.86 485.12 964.06 492.74 965.26 C 498.92 974.41 504.09 984.22 510.31 993.35 C 520.64 1009.99 531.59 1026.23 542.53 1042.46 C 547.40 1049.98 553.15 1056.99 556.82 1065.23 C 547.16 1065.13 537.50 1065.24 527.84 1065.19 C 525.53 1065.63 524.46 1063.23 523.34 1061.71 C 519.40 1055.36 514.72 1049.52 510.84 1043.14 C 489.88 1043.19 468.99 1041.24 448.11 1039.67 C 443.61 1047.69 437.79 1055.01 434.11 1063.46 C 424.57 1063.49 415.03 1063.43 405.50 1063.49 C 409.89 1057.39 413.34 1050.70 417.18 1044.26 C 424.26 1032.03 431.41 1019.85 438.69 1007.76 C 447.58 993.04 456.65 978.42 466.19 964.11 M 459.95 1021.09 C 473.53 1022.45 487.20 1022.87 500.76 1024.48 C 492.95 1013.79 487.33 1001.74 480.38 990.51 C 472.32 999.81 466.46 1010.71 459.95 1021.09 Z" />
<path fill="#fffffe" opacity="1.00" d=" M 682.26 971.80 C 691.98 972.09 701.55 969.69 711.27 970.17 C 711.25 1002.39 711.26 1034.61 711.25 1066.83 C 701.60 1066.81 691.95 1066.84 682.30 1066.82 C 682.39 1046.44 682.26 1026.07 682.37 1005.69 C 668.22 1019.92 653.49 1033.56 638.14 1046.49 C 624.18 1032.72 609.25 1019.96 594.14 1007.46 C 592.85 1026.69 591.90 1045.95 590.66 1065.19 C 581.03 1065.19 571.40 1065.19 561.77 1065.20 C 561.72 1034.59 561.85 1003.98 561.69 973.38 C 572.02 973.43 582.36 973.66 592.58 975.38 C 606.90 989.85 622.35 1003.16 638.16 1015.97 C 652.92 1001.30 668.41 987.36 682.26 971.80 Z" />
</g>
<g id="#004d7fff">
<path fill="#004d7f" opacity="1.00" d=" M 261.79 927.36 C 262.38 929.19 263.14 931.04 263.10 933.02 C 263.16 942.30 262.71 951.59 263.25 960.86 C 271.38 961.50 279.53 960.86 287.67 961.40 C 290.53 955.88 293.78 950.55 297.67 945.70 C 298.77 944.62 299.88 942.68 301.72 943.45 C 278.17 968.95 277.41 1011.30 298.45 1038.52 C 307.77 1050.68 321.41 1059.35 336.28 1062.96 C 352.36 1066.87 369.83 1065.71 384.98 1058.90 C 393.44 1055.18 400.83 1048.97 405.52 1040.98 C 406.90 1024.09 407.73 1007.13 408.81 990.21 C 409.44 989.05 410.08 987.92 410.76 986.81 C 411.03 993.51 409.67 1000.16 410.25 1006.87 C 419.72 1007.57 429.29 1006.13 438.69 1007.76 C 431.41 1019.85 424.26 1032.03 417.18 1044.26 C 413.34 1050.70 409.89 1057.39 405.50 1063.49 C 415.03 1063.43 424.57 1063.49 434.11 1063.46 C 437.79 1055.01 443.61 1047.69 448.11 1039.67 C 468.99 1041.24 489.88 1043.19 510.84 1043.14 C 514.72 1049.52 519.40 1055.36 523.34 1061.71 C 524.46 1063.23 525.53 1065.63 527.84 1065.19 C 537.50 1065.24 547.16 1065.13 556.82 1065.23 C 553.15 1056.99 547.40 1049.98 542.53 1042.46 C 531.59 1026.23 520.64 1009.99 510.31 993.35 C 512.47 993.17 513.37 995.18 514.40 996.68 C 516.63 1000.28 518.87 1003.87 521.35 1007.31 C 534.11 1006.48 546.91 1007.51 559.68 1006.87 C 559.90 997.24 559.72 987.60 559.81 977.98 C 559.96 976.27 559.58 973.86 561.69 973.38 C 561.85 1003.98 561.72 1034.59 561.77 1065.20 C 571.40 1065.19 581.03 1065.19 590.66 1065.19 C 591.90 1045.95 592.85 1026.69 594.14 1007.46 C 609.25 1019.96 624.18 1032.72 638.14 1046.49 C 653.49 1033.56 668.22 1019.92 682.37 1005.69 C 682.26 1026.07 682.39 1046.44 682.30 1066.82 C 691.95 1066.84 701.60 1066.81 711.25 1066.83 C 711.26 1034.61 711.25 1002.39 711.27 970.17 C 711.68 970.19 712.48 970.24 712.88 970.27 C 713.56 994.45 713.25 1018.67 713.35 1042.87 C 715.11 1042.87 716.87 1042.88 718.64 1042.90 C 719.23 1036.44 717.85 1029.84 719.63 1023.51 C 720.90 1037.26 719.09 1051.10 720.17 1064.85 L 721.36 1065.12 C 759.86 1065.29 798.36 1065.14 836.86 1065.19 C 836.84 1057.85 836.81 1050.50 836.89 1043.16 C 837.37 1043.20 838.33 1043.26 838.82 1043.30 C 839.07 1046.45 839.12 1049.62 839.22 1052.79 C 844.77 1053.14 850.33 1053.05 855.89 1052.83 C 853.57 1050.90 849.66 1049.75 849.49 1046.25 C 871.52 1062.33 900.53 1069.21 927.25 1062.99 C 935.01 1061.26 941.82 1056.97 947.67 1051.71 C 959.23 1043.28 962.84 1027.41 959.81 1013.97 C 958.00 1006.01 952.65 999.34 946.17 994.59 C 949.31 993.50 951.17 996.67 953.26 998.39 C 961.78 997.63 970.34 998.47 978.88 997.86 C 979.81 992.76 977.38 986.70 980.76 982.32 C 981.70 992.83 980.93 1003.43 981.18 1013.98 C 981.17 1034.41 981.23 1054.84 981.18 1075.28 C 741.25 1075.41 501.32 1075.29 261.39 1075.33 C 261.23 1038.22 261.44 1001.10 261.43 963.98 C 261.64 951.77 261.05 939.54 261.79 927.36 M 405.72 1064.82 C 412.48 1065.37 419.26 1064.87 426.03 1065.06 C 428.82 1064.97 431.76 1065.49 434.42 1064.39 C 426.63 1063.68 418.78 1064.32 410.97 1064.01 C 409.24 1064.18 407.14 1063.53 405.72 1064.82 Z" />
</g>
<g id="#005083ff">
<path fill="#005083" opacity="1.00" d=" M 861.78 934.87 C 862.56 934.70 864.12 934.36 864.90 934.19 C 859.35 938.53 854.32 943.71 851.11 950.05 C 846.47 958.84 845.87 969.53 848.86 978.94 C 851.56 987.45 858.64 993.83 866.57 997.51 C 881.37 1004.67 898.10 1005.43 913.66 1010.14 C 918.73 1011.82 924.46 1013.78 927.28 1018.69 C 929.55 1023.30 928.77 1029.39 925.11 1033.09 C 921.68 1036.62 916.76 1038.16 912.04 1038.98 C 898.31 1041.12 883.84 1038.36 871.99 1031.07 C 866.68 1028.23 862.63 1023.54 857.19 1020.96 C 851.65 1027.25 845.90 1033.36 840.32 1039.61 C 843.72 1041.31 846.59 1043.83 849.49 1046.25 C 849.66 1049.75 853.57 1050.90 855.89 1052.83 C 850.33 1053.05 844.77 1053.14 839.22 1052.79 C 839.12 1049.62 839.07 1046.45 838.82 1043.30 C 838.33 1043.26 837.37 1043.20 836.89 1043.16 C 826.89 1043.11 816.94 1044.30 806.96 1044.65 C 788.63 1045.70 770.27 1046.47 751.91 1046.46 C 751.95 1039.11 751.81 1031.76 751.99 1024.42 C 767.33 1023.55 782.64 1022.31 797.90 1020.58 C 807.52 1019.67 817.07 1018.01 826.72 1017.56 C 826.61 1010.18 826.72 1002.81 826.66 995.43 C 817.01 995.64 807.50 997.48 797.92 998.49 C 782.59 1000.36 767.26 1002.33 751.91 1003.97 C 751.98 996.62 751.74 989.27 752.05 981.94 C 775.13 977.75 798.16 973.32 821.22 969.04 C 826.42 968.13 831.57 966.80 836.88 966.59 C 836.86 967.14 836.81 968.23 836.78 968.78 C 832.49 969.30 828.16 969.60 823.97 970.73 C 830.84 971.02 837.74 971.18 844.61 970.79 C 844.05 956.93 850.77 943.19 861.78 934.87 Z" />
<path fill="#005083" opacity="1.00" d=" M 351.06 983.56 C 351.52 983.59 352.43 983.64 352.88 983.66 C 352.94 991.61 352.79 999.56 352.98 1007.51 C 363.74 1008.01 374.51 1008.56 385.26 1009.19 C 384.46 1015.94 384.39 1022.78 383.38 1029.50 C 378.19 1033.63 371.68 1035.83 365.25 1037.15 C 354.14 1038.97 342.01 1038.04 332.40 1031.70 C 321.16 1024.61 314.56 1011.87 312.81 998.94 C 313.43 998.30 314.06 997.67 314.69 997.06 C 315.14 1000.31 315.70 1003.56 316.37 1006.79 C 327.81 1007.14 339.28 1007.09 350.72 1006.78 C 351.15 999.05 350.63 991.30 351.06 983.56 Z" />
</g>
<g id="#005389ff">
<path fill="#005389" opacity="1.00" d=" M 979.00 936.91 C 978.92 935.44 979.99 934.36 980.79 933.28 C 981.65 949.42 981.05 965.64 981.13 981.82 L 980.76 982.32 C 977.38 986.70 979.81 992.76 978.88 997.86 C 970.34 998.47 961.78 997.63 953.26 998.39 C 951.17 996.67 949.31 993.50 946.17 994.59 C 931.80 984.77 914.32 981.66 897.53 978.60 C 890.55 977.03 883.22 975.84 877.01 972.08 C 872.19 969.30 871.30 962.53 873.87 957.94 C 876.02 954.05 880.14 951.83 884.18 950.39 C 895.96 946.43 909.03 946.85 920.68 951.09 C 927.08 953.22 932.77 956.88 938.72 959.97 C 944.94 952.08 951.09 944.13 957.39 936.30 C 957.54 936.73 957.84 937.59 957.99 938.02 C 954.41 942.91 950.47 947.53 946.93 952.47 C 957.52 951.31 968.19 952.39 978.81 951.79 C 979.18 946.83 978.73 941.86 979.00 936.91 Z" />
</g>
<g id="#005489ff">
<path fill="#005489" opacity="1.00" d=" M 402.27 941.50 C 405.49 940.54 407.01 944.82 410.13 944.28 C 419.06 943.67 428.01 944.06 436.96 943.98 C 560.30 943.97 683.65 943.93 806.99 943.99 C 816.58 944.20 826.29 943.28 835.80 944.92 C 827.77 947.75 819.32 949.05 811.08 951.06 C 784.64 956.87 758.01 961.77 731.24 965.77 C 727.96 966.36 724.63 966.58 721.33 966.86 L 720.38 967.31 C 719.52 986.02 720.14 1004.78 719.63 1023.51 C 717.85 1029.84 719.23 1036.44 718.64 1042.90 C 716.87 1042.88 715.11 1042.87 713.35 1042.87 C 713.25 1018.67 713.56 994.45 712.88 970.27 C 712.48 970.24 711.68 970.19 711.27 970.17 C 701.55 969.69 691.98 972.09 682.26 971.80 C 668.41 987.36 652.92 1001.30 638.16 1015.97 C 622.35 1003.16 606.90 989.85 592.58 975.38 C 582.36 973.66 572.02 973.43 561.69 973.38 C 559.58 973.86 559.96 976.27 559.81 977.98 C 559.72 987.60 559.90 997.24 559.68 1006.87 C 546.91 1007.51 534.11 1006.48 521.35 1007.31 C 518.87 1003.87 516.63 1000.28 514.40 996.68 C 513.37 995.18 512.47 993.17 510.31 993.35 C 504.09 984.22 498.92 974.41 492.74 965.26 C 485.12 964.06 477.50 962.86 469.88 961.66 C 468.12 961.05 467.14 963.03 466.19 964.11 C 456.65 978.42 447.58 993.04 438.69 1007.76 C 429.29 1006.13 419.72 1007.57 410.25 1006.87 C 409.67 1000.16 411.03 993.51 410.76 986.81 C 410.08 987.92 409.44 989.05 408.81 990.21 C 408.84 989.41 408.90 987.82 408.92 987.02 C 390.24 985.98 371.56 984.79 352.88 983.66 C 352.43 983.64 351.52 983.59 351.06 983.56 C 350.63 991.30 351.15 999.05 350.72 1006.78 C 339.28 1007.09 327.81 1007.14 316.37 1006.79 C 315.70 1003.56 315.14 1000.31 314.69 997.06 C 314.06 997.67 313.43 998.30 312.81 998.94 C 310.37 982.58 315.31 964.15 328.92 953.87 C 339.86 945.36 355.25 944.41 368.00 949.01 C 377.64 952.35 385.15 959.59 392.03 966.85 C 397.63 960.49 403.38 954.27 409.11 948.03 C 406.83 945.85 404.57 943.64 402.27 941.50 Z" />
</g>
<g id="#003a75ff">
<path fill="#003a75" opacity="1.00" d=" M 720.38 967.31 L 721.33 966.86 C 721.41 999.61 721.37 1032.37 721.36 1065.12 L 720.17 1064.85 C 719.09 1051.10 720.90 1037.26 719.63 1023.51 C 720.14 1004.78 719.52 986.02 720.38 967.31 Z" />
</g>
<g id="#005084ff">
<path fill="#005084" opacity="1.00" d=" M 459.95 1021.09 C 466.46 1010.71 472.32 999.81 480.38 990.51 C 487.33 1001.74 492.95 1013.79 500.76 1024.48 C 487.20 1022.87 473.53 1022.45 459.95 1021.09 Z" />
</g>
<g id="#00326bff">
<path fill="#00326b" opacity="1.00" d=" M 405.72 1064.82 C 407.14 1063.53 409.24 1064.18 410.97 1064.01 C 418.78 1064.32 426.63 1063.68 434.42 1064.39 C 431.76 1065.49 428.82 1064.97 426.03 1065.06 C 419.26 1064.87 412.48 1065.37 405.72 1064.82 Z" />
</g>
</svg>
