<?xml version="1.0" encoding="UTF-8" ?>
<!DOCTYPE svg PUBLIC "-//W3C//DTD SVG 1.1//EN" "http://www.w3.org/Graphics/SVG/1.1/DTD/svg11.dtd">
<svg width="1276pt" height="1276pt" viewBox="0 0 1276 1276" version="1.1" xmlns="http://www.w3.org/2000/svg">
<g id="#0ab9e6ff">
<path fill="#0ab9e6" opacity="1.00" d=" M 366.78 184.77 C 431.71 144.11 508.25 122.29 584.86 122.54 C 584.62 227.02 584.83 331.50 584.76 435.98 C 584.77 606.71 584.73 777.43 584.78 948.15 C 526.06 948.09 467.31 935.64 413.90 911.15 C 346.89 880.73 288.41 831.92 246.35 771.55 C 222.83 738.02 204.45 700.90 191.89 661.92 C 177.33 616.87 170.83 569.29 172.35 521.99 C 174.16 460.15 190.28 398.83 218.99 344.04 C 252.95 279.08 304.54 223.49 366.78 184.77 M 358.90 291.83 C 322.17 325.91 293.28 368.37 275.19 415.10 C 256.36 463.52 249.08 516.40 254.28 568.10 C 260.81 636.03 289.06 701.63 333.87 753.10 C 378.14 804.37 438.50 841.46 504.25 857.79 C 504.21 642.82 504.23 427.86 504.24 212.89 C 450.16 226.35 399.59 253.73 358.90 291.83 Z" />
</g>
<g id="#ff3c28ff">
<path fill="#ff3c28" opacity="1.00" d=" M 687.88 329.10 C 768.31 328.59 848.58 352.85 915.55 397.34 C 958.48 425.78 996.07 462.26 1025.66 504.41 C 1075.22 574.42 1101.83 660.27 1100.62 746.03 C 1100.06 830.71 1072.35 914.91 1022.56 983.39 C 977.69 1045.59 915.20 1094.97 844.15 1123.91 C 794.74 1144.21 741.31 1154.58 687.90 1154.49 C 687.97 885.99 687.90 617.49 687.95 349.00 C 688.24 342.36 688.00 335.73 687.88 329.10 M 768.63 419.27 C 768.69 634.23 768.65 849.19 768.64 1064.15 C 801.91 1055.75 833.87 1042.24 863.02 1024.15 C 921.72 987.83 968.49 932.71 994.79 868.90 C 1026.63 792.76 1028.40 704.68 999.78 627.29 C 983.29 582.28 956.91 540.92 923.05 506.99 C 880.82 464.43 826.77 433.85 768.63 419.27 Z" />
</g>
</svg>
